<svg xmlns="http://www.w3.org/2000/svg" viewBox="0 0 24 24"><defs><style>.a{fill:none;stroke:currentColor;stroke-linecap:round;stroke-linejoin:round;stroke-width:1.5px;}</style></defs><title>instrument-contrabass-sheet</title><path class="a" d="M10.929,16.988a2.345,2.345,0,0,1-.614-4.043C10.576,10.81,8.412,8.87,6,9c-2.412-.13-4.577,1.81-4.315,3.945a2.345,2.345,0,0,1-.614,4.043.462.462,0,0,0-.321.446c.031,2.3,2.464,4.413,5.081,4.4h.338c2.617.01,5.05-2.1,5.081-4.4A.462.462,0,0,0,10.929,16.988Z"/><line class="a" x1="6" y1="13.5" x2="6" y2="0.75"/><line class="a" x1="6" y1="23.25" x2="6" y2="21"/><line class="a" x1="4.5" y1="5.25" x2="7.5" y2="5.25"/><line class="a" x1="4.5" y1="2.25" x2="7.5" y2="2.25"/><path class="a" d="M13.293,14.076a1.022,1.022,0,0,0,.957.937l7.408-.029a1.022,1.022,0,0,0,.951-.943l.629-4.5a1.258,1.258,0,0,0-.22-.911.917.917,0,0,0-.739-.4l-8.7.034a.919.919,0,0,0-.737.4,1.262,1.262,0,0,0-.212.913Z"/><line class="a" x1="18" y1="12.75" x2="18" y2="23.25"/><polyline class="a" points="14.25 23.22 18 20.25 21.75 23.25"/></svg>