<svg xmlns="http://www.w3.org/2000/svg" viewBox="0 0 24 24"><defs><style>.a{fill:none;stroke:currentColor;stroke-linecap:round;stroke-linejoin:round;stroke-width:1.5px;}</style></defs><title>instrument-maracas-2</title><path class="a" d="M15.519,18.375a2.288,2.288,0,0,0,.369-.594c.495-1.171.538-3.454,1.2-5.016.825-1.953,4.279-1.416,5.763-4.931a5.087,5.087,0,1,0-9.374-3.957c-1.484,3.515,1.311,5.616.487,7.569a13.612,13.612,0,0,1-1.59,2.527"/><path class="a" d="M21.637,9.631,21.1,8.307a.979.979,0,0,0-1.275-.538l-2.076.843a.978.978,0,0,1-1.274-.538L15.63,6a.978.978,0,0,0-1.274-.538L13.032,6"/><path class="a" d="M3.86,5.081A5.088,5.088,0,0,1,10.526,7.79c1.484,3.515-1.311,5.615-.487,7.568.66,1.563,2.265,3.186,2.76,4.358a2.634,2.634,0,0,1-1.354,3.333,2.634,2.634,0,0,1-3.333-1.355c-.5-1.171-.538-3.454-1.2-5.017-.825-1.953-4.279-1.415-5.763-4.93A5.088,5.088,0,0,1,3.86,5.081Z"/><path class="a" d="M2.363,13.543,2.9,12.219a.979.979,0,0,1,1.275-.538l2.076.844a.978.978,0,0,0,1.274-.538L8.37,9.911a.978.978,0,0,1,1.274-.538l1.324.538"/></svg>