<svg xmlns="http://www.w3.org/2000/svg" viewBox="0 0 24 24"><defs><style>.a{fill:none;stroke:currentColor;stroke-linecap:round;stroke-linejoin:round;stroke-width:1.5px;}</style></defs><title>instrument-dholak</title><path class="a" d="M19.5,2.25A1.5,1.5,0,0,1,18,3.75H6a1.5,1.5,0,0,1,0-3H18A1.5,1.5,0,0,1,19.5,2.25Z"/><path class="a" d="M18,3.75V9c0,4.142-2.686,7.5-6,7.5h0c-3.314,0-6-3.358-6-7.5V3.75"/><path class="a" d="M12,16.5h0a3.122,3.122,0,0,0-2.962,2.135l-.88,2.641A1.5,1.5,0,0,0,9.581,23.25h4.838a1.5,1.5,0,0,0,1.423-1.974l-.88-2.641A3.122,3.122,0,0,0,12,16.5Z"/><path class="a" d="M6.026,9.705,7.609,6.934a1.5,1.5,0,0,1,2.644.073l.551,1.1a1.5,1.5,0,0,0,2.614.124l.811-1.3a1.5,1.5,0,0,1,2.651.2l1.1,2.558"/></svg>