<svg xmlns="http://www.w3.org/2000/svg" viewBox="0 0 24 24"><defs><style>.a{fill:none;stroke:currentColor;stroke-linecap:round;stroke-linejoin:round;stroke-width:1.5px;}</style></defs><title>instrument-contrabass</title><path class="a" d="M12.947,16.257a3.091,3.091,0,0,1,2.888-.854c.117-.1.243-.181.353-.292a5.389,5.389,0,0,0,.147-7.573,5.285,5.285,0,0,0-7.512.148c-.11.111-.191.238-.29.356a3.15,3.15,0,0,1-.847,2.911,3.018,3.018,0,0,1-4.234.133,7.16,7.16,0,0,0-.606.5,6.929,6.929,0,0,0-.189,9.737,6.8,6.8,0,0,0,9.659-.191,7.208,7.208,0,0,0,.5-.611A3.077,3.077,0,0,1,12.947,16.257Z"/><line class="a" x1="4.5" y1="19.501" x2="0.75" y2="23.249"/><line class="a" x1="23.25" y1="0.751" x2="11.25" y2="12.751"/><line class="a" x1="20.25" y1="0.751" x2="23.25" y2="3.751"/><line class="a" x1="18" y1="3.001" x2="21" y2="6.001"/><line class="a" x1="6.866" y1="14.963" x2="5.287" y2="15.493"/><line class="a" x1="8.97" y1="17.084" x2="8.444" y2="18.675"/></svg>