<?xml version="1.0" encoding="utf-8"?>
<!-- Generator: Adobe Illustrator 22.1.0, SVG Export Plug-In . SVG Version: 6.00 Build 0)  -->
<svg version="1.1" id="Layer_1" xmlns="http://www.w3.org/2000/svg" xmlns:xlink="http://www.w3.org/1999/xlink" x="0px" y="0px"
	 viewBox="0 0 24 24" style="enable-background:new 0 0 24 24;" xml:space="preserve">
<title>flash-drive</title>
<g>
	<path d="M12,24c-3.308,0-6-2.692-6-6V8.25c0-0.96,0.615-1.808,1.5-2.121V0.75C7.5,0.336,7.836,0,8.25,0h7.5
		c0.414,0,0.75,0.336,0.75,0.75v5.379C17.385,6.442,18,7.29,18,8.25V18C18,21.308,15.308,24,12,24z M8.25,7.5
		C7.836,7.5,7.5,7.836,7.5,8.25V18c0,2.481,2.019,4.5,4.5,4.5c2.481,0,4.5-2.019,4.5-4.5V8.25c0-0.414-0.336-0.75-0.75-0.75H8.25z
		 M15,6V1.5H9V6H15z"/>
	<path d="M11.25,4.5c-0.414,0-0.75-0.336-0.75-0.75S10.836,3,11.25,3h1.5c0.414,0,0.75,0.336,0.75,0.75S13.164,4.5,12.75,4.5H11.25z
		"/>
</g>
</svg>
