<?xml version="1.0" encoding="utf-8"?>
<!-- Generator: Adobe Illustrator 22.1.0, SVG Export Plug-In . SVG Version: 6.00 Build 0)  -->
<svg version="1.1" id="Layer_1" xmlns="http://www.w3.org/2000/svg" xmlns:xlink="http://www.w3.org/1999/xlink" x="0px" y="0px"
	 viewBox="0 0 24 24" style="enable-background:new 0 0 24 24;" xml:space="preserve">
<title>sd-card-sync</title>
<g>
	<path d="M2.25,24.002c-1.241,0-2.25-1.009-2.25-2.25v-10.5c0-0.414,0.336-0.75,0.75-0.75H1.5v-1.5H0.75
		C0.336,9.002,0,8.666,0,8.252v-6c0-1.241,1.009-2.25,2.25-2.25h10.56c0.644,0,1.257,0.276,1.683,0.757l4.417,4.283
		c0.018,0.017,0.035,0.036,0.051,0.054c0.346,0.403,0.538,0.923,0.538,1.46v1.7c0,0.414-0.336,0.75-0.75,0.75S18,8.671,18,8.257
		v-1.7c0-0.169-0.058-0.334-0.162-0.466l-4.411-4.277c-0.016-0.016-0.032-0.033-0.047-0.05c-0.143-0.167-0.351-0.263-0.57-0.263
		H2.25c-0.414,0-0.75,0.336-0.75,0.75v5.25h0.75C2.664,7.502,3,7.839,3,8.252v3c0,0.414-0.336,0.75-0.75,0.75H1.5v9.75
		c0,0.414,0.336,0.75,0.75,0.75h6c0.414,0,0.75,0.336,0.75,0.75s-0.336,0.75-0.75,0.75H2.25z"/>
	<path d="M6.75,7.502C6.336,7.502,6,7.166,6,6.752v-3c0-0.414,0.336-0.75,0.75-0.75S7.5,3.339,7.5,3.752v3
		C7.5,7.166,7.164,7.502,6.75,7.502z"/>
	<path d="M11.25,7.502c-0.414,0-0.75-0.336-0.75-0.75v-3c0-0.414,0.336-0.75,0.75-0.75S12,3.339,12,3.752v3
		C12,7.166,11.664,7.502,11.25,7.502z"/>
	<path d="M17.4,24.006c-0.695,0-1.385-0.116-2.052-0.344c-1.419-0.486-2.592-1.442-3.348-2.686v1.525c0,0.414-0.336,0.75-0.75,0.75
		s-0.75-0.336-0.75-0.75v-3.75c0-0.414,0.336-0.75,0.75-0.75H15c0.414,0,0.75,0.336,0.75,0.75s-0.336,0.75-0.75,0.75h-2.067
		c0.524,1.283,1.579,2.289,2.9,2.741c0.509,0.174,1.036,0.262,1.566,0.262c0.735,0,1.448-0.167,2.117-0.495
		c1.157-0.567,2.023-1.551,2.44-2.769c0.104-0.303,0.389-0.508,0.709-0.508c0.083,0,0.166,0.014,0.245,0.041
		c0.188,0.064,0.341,0.199,0.429,0.379c0.088,0.18,0.101,0.384,0.036,0.573c-0.547,1.598-1.683,2.887-3.199,3.63
		C19.3,23.788,18.365,24.006,17.4,24.006z"/>
	<path d="M19.5,16.502c-0.414,0-0.75-0.336-0.75-0.75s0.336-0.75,0.75-0.75h2.067c-0.524-1.283-1.579-2.289-2.9-2.741
		c-0.504-0.172-1.028-0.26-1.557-0.26c-2.064,0-3.899,1.311-4.567,3.261c-0.104,0.304-0.389,0.508-0.709,0.508
		c-0.083,0-0.166-0.014-0.245-0.041c-0.188-0.064-0.341-0.199-0.429-0.379c-0.088-0.18-0.101-0.383-0.036-0.573
		c0.875-2.557,3.281-4.276,5.987-4.276c0.694,0,1.38,0.115,2.041,0.341c1.419,0.486,2.592,1.442,3.348,2.686v-1.525
		c0-0.414,0.336-0.75,0.75-0.75S24,11.589,24,12.002v3.75c0,0.414-0.336,0.75-0.75,0.75H19.5z"/>
</g>
</svg>
