<?xml version="1.0" encoding="utf-8"?>
<!-- Generator: Adobe Illustrator 22.1.0, SVG Export Plug-In . SVG Version: 6.00 Build 0)  -->
<svg version="1.1" id="Layer_1" xmlns="http://www.w3.org/2000/svg" xmlns:xlink="http://www.w3.org/1999/xlink" x="0px" y="0px"
	 viewBox="0 0 24 24" style="enable-background:new 0 0 24 24;" xml:space="preserve">
<title>sd-card-refresh</title>
<g>
	<path d="M2.25,24.002c-1.241,0-2.25-1.009-2.25-2.25v-10.5c0-0.414,0.336-0.75,0.75-0.75H1.5v-1.5H0.75
		C0.336,9.002,0,8.666,0,8.252v-6c0-1.241,1.009-2.25,2.25-2.25h10.56c0.644,0,1.257,0.276,1.683,0.757l4.417,4.283
		c0.018,0.017,0.035,0.036,0.051,0.054C19.308,5.5,19.5,6.02,19.5,6.557v0.945c0,0.414-0.336,0.75-0.75,0.75S18,7.916,18,7.502
		V6.557c0-0.169-0.058-0.334-0.162-0.466l-4.411-4.277c-0.016-0.016-0.032-0.033-0.047-0.05c-0.143-0.167-0.351-0.263-0.57-0.263
		H2.25c-0.414,0-0.75,0.336-0.75,0.75v5.25h0.75C2.664,7.502,3,7.838,3,8.252v3c0,0.414-0.336,0.75-0.75,0.75H1.5v9.75
		c0,0.414,0.336,0.75,0.75,0.75h7.5c0.414,0,0.75,0.336,0.75,0.75s-0.336,0.75-0.75,0.75H2.25z"/>
	<path d="M6.75,7.502C6.336,7.502,6,7.166,6,6.752v-3c0-0.414,0.336-0.75,0.75-0.75S7.5,3.338,7.5,3.752v3
		C7.5,7.166,7.164,7.502,6.75,7.502z"/>
	<path d="M11.25,7.502c-0.414,0-0.75-0.336-0.75-0.75v-3c0-0.414,0.336-0.75,0.75-0.75S12,3.338,12,3.752v3
		C12,7.166,11.664,7.502,11.25,7.502z"/>
	<path d="M17.24,24.004c-1.195,0-2.376-0.324-3.418-0.938c-1.553-0.916-2.657-2.382-3.107-4.128
		c-0.93-3.604,1.245-7.292,4.849-8.223c0.552-0.142,1.119-0.215,1.685-0.215c2.065,0,3.983,0.936,5.251,2.507v-1.755
		c0-0.414,0.336-0.75,0.75-0.75S24,10.838,24,11.252v4.5c0,0.414-0.336,0.75-0.75,0.75H19.5c-0.414,0-0.75-0.336-0.75-0.75
		s0.336-0.75,0.75-0.75h2.494C21.134,13.187,19.29,12,17.25,12c-0.44,0-0.881,0.056-1.311,0.167
		c-1.356,0.35-2.495,1.209-3.208,2.418c-0.713,1.209-0.913,2.622-0.563,3.977c0.35,1.358,1.208,2.498,2.416,3.211
		c0.81,0.478,1.729,0.73,2.657,0.73c0.443,0,0.887-0.057,1.322-0.169c1.094-0.282,2.085-0.924,2.791-1.808
		c0.143-0.179,0.357-0.282,0.586-0.282c0.169,0,0.335,0.058,0.468,0.164c0.156,0.125,0.255,0.303,0.278,0.502
		c0.022,0.199-0.034,0.395-0.159,0.552c-0.907,1.136-2.181,1.961-3.588,2.324C18.381,23.931,17.809,24.004,17.24,24.004z"/>
</g>
</svg>
