<?xml version="1.0" encoding="utf-8"?>
<!-- Generator: Adobe Illustrator 22.1.0, SVG Export Plug-In . SVG Version: 6.00 Build 0)  -->
<svg version="1.1" id="Light" xmlns="http://www.w3.org/2000/svg" xmlns:xlink="http://www.w3.org/1999/xlink" x="0px" y="0px"
	 viewBox="0 0 24 24" style="enable-background:new 0 0 24 24;" xml:space="preserve">
<g>
	<title>multiple-actions-check-2</title>
	<path d="M18.5,24c-3.033,0-5.5-2.467-5.5-5.5s2.467-5.5,5.5-5.5c0.276,0,0.5,0.224,0.5,0.5S18.776,14,18.5,14
		c-2.481,0-4.5,2.019-4.5,4.5s2.019,4.5,4.5,4.5s4.5-2.019,4.5-4.5c0-0.276,0.224-0.5,0.5-0.5s0.5,0.224,0.5,0.5
		C24,21.533,21.533,24,18.5,24z"/>
	<path d="M18.419,19.815c-0.217,0-0.424-0.069-0.599-0.199L16.2,18.4c-0.107-0.08-0.176-0.197-0.195-0.329
		c-0.019-0.132,0.015-0.264,0.095-0.371c0.093-0.125,0.243-0.199,0.4-0.199c0.109,0,0.212,0.034,0.3,0.1l1.62,1.215l4.696-5.635
		C23.211,13.066,23.351,13,23.5,13c0.116,0,0.23,0.041,0.32,0.115c0.212,0.177,0.241,0.493,0.065,0.705l-4.696,5.635
		C18.997,19.684,18.717,19.815,18.419,19.815z"/>
	<path d="M0.5,16C0.224,16,0,15.776,0,15.5C0,11.916,2.916,9,6.5,9s6.5,2.916,6.5,6.5c0,0.276-0.224,0.5-0.5,0.5H0.5z M11.978,15
		c-0.253-2.824-2.611-5-5.478-5s-5.224,2.176-5.478,5H11.978z"/>
	<path d="M6.5,8.5c-2.344,0-4.25-1.906-4.25-4.25S4.156,0,6.5,0s4.25,1.906,4.25,4.25S8.844,8.5,6.5,8.5z M6.5,1
		C4.708,1,3.25,2.458,3.25,4.25S4.708,7.5,6.5,7.5s3.25-1.458,3.25-3.25S8.292,1,6.5,1z"/>
	<path d="M16,8.5c-2.344,0-4.25-1.906-4.25-4.25S13.656,0,16,0s4.25,1.906,4.25,4.25S18.344,8.5,16,8.5z M16,1
		c-1.792,0-3.25,1.458-3.25,3.25S14.208,7.5,16,7.5s3.25-1.458,3.25-3.25S17.792,1,16,1z"/>
	<path d="M19.47,11.105c-0.104,0-0.205-0.032-0.289-0.092c-0.931-0.66-2.032-1.01-3.184-1.01c-0.957,0-1.898,0.249-2.723,0.719
		c-0.075,0.043-0.161,0.066-0.248,0.066l0,0c-0.18,0-0.346-0.097-0.435-0.253c-0.066-0.115-0.083-0.25-0.048-0.379
		c0.035-0.129,0.119-0.236,0.235-0.303c0.975-0.556,2.088-0.85,3.218-0.85c1.36,0,2.661,0.413,3.762,1.194
		c0.225,0.159,0.278,0.472,0.119,0.697C19.785,11.026,19.632,11.105,19.47,11.105z"/>
</g>
</svg>
