<?xml version="1.0" encoding="utf-8"?>
<!-- Generator: Adobe Illustrator 22.1.0, SVG Export Plug-In . SVG Version: 6.00 Build 0)  -->
<svg version="1.1" id="Light" xmlns="http://www.w3.org/2000/svg" xmlns:xlink="http://www.w3.org/1999/xlink" x="0px" y="0px"
	 viewBox="0 0 24 24" style="enable-background:new 0 0 24 24;" xml:space="preserve">
<g>
	<title>multiple-actions-coding</title>
	<path d="M18.5,24c-3.033,0-5.5-2.467-5.5-5.5s2.467-5.5,5.5-5.5s5.5,2.467,5.5,5.5S21.533,24,18.5,24z M18.5,14
		c-2.481,0-4.5,2.019-4.5,4.5s2.019,4.5,4.5,4.5s4.5-2.019,4.5-4.5S20.981,14,18.5,14z"/>
	<path d="M19.5,20.5c-0.134,0-0.259-0.052-0.354-0.146S19,20.134,19,20s0.052-0.259,0.146-0.354l1.146-1.146l-1.146-1.146
		C19.052,17.259,19,17.134,19,17s0.052-0.259,0.146-0.354S19.366,16.5,19.5,16.5s0.259,0.052,0.354,0.146l1.5,1.5
		c0.094,0.094,0.146,0.22,0.146,0.354s-0.052,0.259-0.146,0.354l-1.5,1.5C19.759,20.448,19.634,20.5,19.5,20.5z"/>
	<path d="M17.5,20.5c-0.134,0-0.259-0.052-0.354-0.146l-1.5-1.5c-0.094-0.094-0.146-0.22-0.146-0.354s0.052-0.259,0.146-0.354
		l1.5-1.5c0.094-0.094,0.22-0.146,0.354-0.146s0.259,0.052,0.354,0.146S18,16.866,18,17s-0.052,0.259-0.146,0.354L16.707,18.5
		l1.146,1.146C17.948,19.741,18,19.866,18,20s-0.052,0.259-0.146,0.354S17.634,20.5,17.5,20.5z"/>
	<path d="M0.5,16C0.224,16,0,15.776,0,15.5C0,11.916,2.916,9,6.5,9s6.5,2.916,6.5,6.5c0,0.276-0.224,0.5-0.5,0.5H0.5z M11.978,15
		c-0.253-2.824-2.611-5-5.478-5s-5.224,2.176-5.478,5H11.978z"/>
	<path d="M6.5,8.5c-2.344,0-4.25-1.906-4.25-4.25S4.156,0,6.5,0s4.25,1.906,4.25,4.25S8.844,8.5,6.5,8.5z M6.5,1
		C4.708,1,3.25,2.458,3.25,4.25S4.708,7.5,6.5,7.5s3.25-1.458,3.25-3.25S8.292,1,6.5,1z"/>
	<path d="M16,8.5c-2.344,0-4.25-1.906-4.25-4.25S13.656,0,16,0s4.25,1.906,4.25,4.25S18.344,8.5,16,8.5z M16,1
		c-1.792,0-3.25,1.458-3.25,3.25S14.208,7.5,16,7.5s3.25-1.458,3.25-3.25S17.792,1,16,1z"/>
	<path d="M20.863,12.484c-0.16,0-0.312-0.077-0.406-0.207c-1.033-1.429-2.698-2.282-4.453-2.282c-0.959,0-1.909,0.255-2.748,0.738
		c-0.076,0.044-0.162,0.067-0.249,0.067c0,0,0,0,0,0c-0.178,0-0.344-0.096-0.433-0.251c-0.067-0.115-0.084-0.25-0.05-0.379
		c0.035-0.129,0.118-0.237,0.233-0.303c0.991-0.571,2.114-0.872,3.247-0.872c2.075,0,4.043,1.008,5.263,2.696
		c0.161,0.224,0.111,0.537-0.112,0.698C21.07,12.451,20.969,12.484,20.863,12.484z"/>
</g>
</svg>
