<?xml version="1.0" encoding="utf-8"?>
<!-- Generator: Adobe Illustrator 22.1.0, SVG Export Plug-In . SVG Version: 6.00 Build 0)  -->
<svg version="1.1" id="Light" xmlns="http://www.w3.org/2000/svg" xmlns:xlink="http://www.w3.org/1999/xlink" x="0px" y="0px"
	 viewBox="0 0 24 24" style="enable-background:new 0 0 24 24;" xml:space="preserve">
<g>
	<title>multiple-actions-subtract</title>
	<path d="M18.5,24c-3.033,0-5.5-2.467-5.5-5.5s2.467-5.5,5.5-5.5s5.5,2.467,5.5,5.5S21.533,24,18.5,24z M18.5,14
		c-2.481,0-4.5,2.019-4.5,4.5s2.019,4.5,4.5,4.5s4.5-2.019,4.5-4.5S20.981,14,18.5,14z"/>
	<path d="M16.5,19c-0.276,0-0.5-0.224-0.5-0.5s0.224-0.5,0.5-0.5h4c0.276,0,0.5,0.224,0.5,0.5S20.776,19,20.5,19H16.5z"/>
	<path d="M0.5,16C0.224,16,0,15.776,0,15.5C0,11.916,2.916,9,6.5,9s6.5,2.916,6.5,6.5c0,0.276-0.224,0.5-0.5,0.5H0.5z M11.978,15
		c-0.253-2.824-2.611-5-5.478-5s-5.224,2.176-5.478,5H11.978z"/>
	<path d="M6.5,8.5c-2.344,0-4.25-1.906-4.25-4.25S4.156,0,6.5,0s4.25,1.906,4.25,4.25S8.844,8.5,6.5,8.5z M6.5,1
		C4.708,1,3.25,2.458,3.25,4.25S4.708,7.5,6.5,7.5s3.25-1.458,3.25-3.25S8.292,1,6.5,1z"/>
	<path d="M16,8.5c-2.344,0-4.25-1.906-4.25-4.25S13.656,0,16,0s4.25,1.906,4.25,4.25S18.344,8.5,16,8.5z M16,1
		c-1.792,0-3.25,1.458-3.25,3.25S14.208,7.5,16,7.5s3.25-1.458,3.25-3.25S17.792,1,16,1z"/>
	<path d="M19.47,11.105c-0.104,0-0.204-0.032-0.289-0.092C18.248,10.35,17.146,10,15.995,10c-0.968,0-1.92,0.255-2.754,0.738
		c-0.076,0.044-0.163,0.067-0.25,0.067l0,0c-0.178,0-0.344-0.096-0.433-0.249c-0.067-0.115-0.085-0.25-0.051-0.379
		c0.034-0.129,0.117-0.237,0.233-0.304C13.726,9.302,14.851,9,15.995,9c1.36,0,2.662,0.414,3.765,1.197
		c0.225,0.16,0.278,0.472,0.118,0.697C19.784,11.026,19.632,11.105,19.47,11.105z"/>
</g>
</svg>
