<?xml version="1.0" encoding="utf-8"?>
<!-- Generator: Adobe Illustrator 22.1.0, SVG Export Plug-In . SVG Version: 6.00 Build 0)  -->
<svg version="1.1" id="Light" xmlns="http://www.w3.org/2000/svg" xmlns:xlink="http://www.w3.org/1999/xlink" x="0px" y="0px"
	 viewBox="0 0 24 24" style="enable-background:new 0 0 24 24;" xml:space="preserve">
<g>
	<title>multiple-actions-information</title>
	<path d="M18.5,24c-3.033,0-5.5-2.467-5.5-5.5s2.467-5.5,5.5-5.5s5.5,2.467,5.5,5.5S21.533,24,18.5,24z M18.5,14
		c-2.481,0-4.5,2.019-4.5,4.5s2.019,4.5,4.5,4.5s4.5-2.019,4.5-4.5S20.981,14,18.5,14z"/>
	<path d="M17.5,21c-0.276,0-0.5-0.224-0.5-0.5s0.224-0.5,0.5-0.5H18v-1h-0.5c-0.276,0-0.5-0.224-0.5-0.5s0.224-0.5,0.5-0.5H18
		c0.552,0,1,0.448,1,1v1h0.5c0.276,0,0.5,0.224,0.5,0.5S19.776,21,19.5,21H17.5z"/>
	<circle cx="18" cy="16.5" r="0.75"/>
	<path d="M0.5,16C0.224,16,0,15.776,0,15.5C0,11.916,2.916,9,6.5,9s6.5,2.916,6.5,6.5c0,0.276-0.224,0.5-0.5,0.5H0.5z M11.978,15
		c-0.253-2.824-2.611-5-5.478-5s-5.224,2.176-5.478,5H11.978z"/>
	<path d="M6.5,8.5c-2.344,0-4.25-1.906-4.25-4.25S4.156,0,6.5,0s4.25,1.906,4.25,4.25S8.844,8.5,6.5,8.5z M6.5,1
		C4.708,1,3.25,2.458,3.25,4.25S4.708,7.5,6.5,7.5s3.25-1.458,3.25-3.25S8.292,1,6.5,1z"/>
	<path d="M16,8.5c-2.344,0-4.25-1.906-4.25-4.25S13.656,0,16,0s4.25,1.906,4.25,4.25S18.344,8.5,16,8.5z M16,1
		c-1.792,0-3.25,1.458-3.25,3.25S14.208,7.5,16,7.5s3.25-1.458,3.25-3.25S17.792,1,16,1z"/>
	<path d="M19.47,11.105c-0.105,0-0.205-0.032-0.29-0.093c-0.932-0.661-2.033-1.01-3.183-1.01c-0.967,0-1.919,0.255-2.751,0.736
		c-0.076,0.044-0.163,0.067-0.25,0.067l0,0c-0.178,0-0.344-0.096-0.433-0.25c-0.067-0.115-0.085-0.25-0.05-0.379
		c0.034-0.129,0.117-0.237,0.233-0.304c0.985-0.569,2.109-0.87,3.252-0.87c1.359,0,2.66,0.413,3.762,1.195
		c0.109,0.077,0.181,0.192,0.204,0.324c0.022,0.131-0.008,0.264-0.085,0.373C19.785,11.026,19.632,11.105,19.47,11.105z"/>
</g>
</svg>
