<?xml version="1.0" encoding="utf-8"?>
<!-- Generator: Adobe Illustrator 22.1.0, SVG Export Plug-In . SVG Version: 6.00 Build 0)  -->
<svg version="1.1" id="Light" xmlns="http://www.w3.org/2000/svg" xmlns:xlink="http://www.w3.org/1999/xlink" x="0px" y="0px"
	 viewBox="0 0 24 24" style="enable-background:new 0 0 24 24;" xml:space="preserve">
<g>
	<title>multiple-actions-location</title>
	<path d="M19.5,23.828c-0.256,0-0.499-0.098-0.684-0.275C17.67,22.468,15,19.705,15,17.501c0-2.481,2.019-4.5,4.5-4.5
		s4.5,2.019,4.5,4.5c0,2.204-2.67,4.968-3.818,6.053C19.998,23.73,19.756,23.828,19.5,23.828z M19.5,14.001
		c-1.93,0-3.5,1.57-3.5,3.5c0,1.483,1.811,3.724,3.506,5.327C21.188,21.226,23,18.984,23,17.501C23,15.571,21.43,14.001,19.5,14.001
		z"/>
	<circle cx="19.5" cy="17.501" r="0.75"/>
	<path d="M0.5,16.001c-0.276,0-0.5-0.224-0.5-0.5c0-3.584,2.916-6.5,6.5-6.5s6.5,2.916,6.5,6.5c0,0.276-0.224,0.5-0.5,0.5H0.5z
		 M11.978,15.001c-0.253-2.824-2.611-5-5.478-5c-2.867,0-5.224,2.176-5.478,5H11.978z"/>
	<path d="M6.5,8.501c-2.344,0-4.25-1.906-4.25-4.25s1.906-4.25,4.25-4.25s4.25,1.906,4.25,4.25S8.844,8.501,6.5,8.501z M6.5,1.001
		c-1.792,0-3.25,1.458-3.25,3.25s1.458,3.25,3.25,3.25s3.25-1.458,3.25-3.25S8.292,1.001,6.5,1.001z"/>
	<path d="M16,8.501c-2.344,0-4.25-1.906-4.25-4.25s1.906-4.25,4.25-4.25s4.25,1.906,4.25,4.25S18.344,8.501,16,8.501z M16,1.001
		c-1.792,0-3.25,1.458-3.25,3.25s1.458,3.25,3.25,3.25s3.25-1.458,3.25-3.25S17.792,1.001,16,1.001z"/>
	<path d="M19.991,11.521c-0.123,0-0.241-0.045-0.333-0.127c-1.01-0.901-2.31-1.398-3.66-1.398c-0.961,0-1.912,0.255-2.748,0.738
		c-0.077,0.044-0.163,0.067-0.25,0.067c-0.178,0-0.344-0.096-0.433-0.25c-0.138-0.239-0.056-0.545,0.183-0.683
		c0.989-0.57,2.112-0.872,3.248-0.872c1.595,0,3.131,0.587,4.326,1.652c0.1,0.089,0.159,0.211,0.166,0.345
		c0.008,0.133-0.037,0.262-0.126,0.361C20.27,11.46,20.134,11.521,19.991,11.521z"/>
</g>
</svg>
