<?xml version="1.0" encoding="utf-8"?>
<!-- Generator: Adobe Illustrator 22.1.0, SVG Export Plug-In . SVG Version: 6.00 Build 0)  -->
<svg version="1.1" id="Light" xmlns="http://www.w3.org/2000/svg" xmlns:xlink="http://www.w3.org/1999/xlink" x="0px" y="0px"
	 viewBox="0 0 24 24" style="enable-background:new 0 0 24 24;" xml:space="preserve">
<g>
	<title>multiple-actions-flight</title>
	<path d="M14.756,24.002c-0.203,0-0.399-0.062-0.566-0.181l-2.876-2.02c-0.183-0.146-0.285-0.328-0.307-0.535
		c-0.022-0.204,0.037-0.404,0.166-0.563c0.029-0.039,0.074-0.084,0.124-0.123l1.187-1.048c0.153-0.123,0.323-0.184,0.5-0.184
		c0.086,0,0.171,0.015,0.253,0.043c0.033,0.012,0.063,0.026,0.091,0.043l1.236,0.734l1.032-0.72l-2.992-1.852
		c-0.022-0.014-0.042-0.029-0.061-0.045c-0.348-0.298-0.39-0.823-0.094-1.171c0.043-0.049,0.085-0.089,0.132-0.124l0.893-0.663
		c0.145-0.107,0.316-0.163,0.494-0.163c0.099,0,0.196,0.018,0.289,0.052l4.777,1.779l2.106-1.438
		c0.298-0.205,0.649-0.313,1.013-0.313c0.132,0,0.263,0.015,0.391,0.043c0.002,0,0.02,0.005,0.026,0.007
		c0.608,0.141,1.112,0.593,1.326,1.205C23.965,16.958,24,17.163,24,17.371c0.013,0.642-0.321,1.258-0.871,1.604l-7.855,4.877
		C15.119,23.95,14.94,24.002,14.756,24.002z M14.766,23.004l7.833-4.877c0.253-0.159,0.407-0.445,0.401-0.746
		c0-0.102-0.016-0.192-0.047-0.28c-0.101-0.29-0.338-0.503-0.633-0.572c-0.053-0.012-0.111-0.018-0.168-0.018
		c-0.162,0-0.317,0.048-0.448,0.138l-2.322,1.585c-0.083,0.057-0.181,0.087-0.282,0.087c-0.06,0-0.118-0.01-0.174-0.031
		l-4.932-1.837l-0.61,0.452l3.383,2.094c0.144,0.089,0.232,0.243,0.237,0.411c0.004,0.169-0.075,0.327-0.214,0.424l-1.92,1.34
		c-0.084,0.059-0.183,0.09-0.286,0.09c-0.09,0-0.178-0.024-0.256-0.07l-1.318-0.783l-0.856,0.747L14.766,23.004z"/>
	<path d="M0.5,16.001c-0.276,0-0.5-0.224-0.5-0.5c-0.003-3.584,2.911-6.502,6.495-6.505c2.75,0,5.212,1.738,6.13,4.324
		c0.045,0.126,0.038,0.261-0.02,0.382c-0.057,0.121-0.158,0.212-0.284,0.257c-0.054,0.019-0.11,0.029-0.167,0.029
		c-0.211,0-0.401-0.133-0.472-0.332c-0.777-2.189-2.86-3.66-5.183-3.66c-2.871,0.002-5.228,2.18-5.478,5.005H11
		c0.276,0,0.5,0.224,0.5,0.5s-0.224,0.5-0.5,0.5H0.5z"/>
	<path d="M6.5,8.501c-2.344,0-4.25-1.906-4.25-4.25s1.906-4.25,4.25-4.25s4.25,1.906,4.25,4.25S8.844,8.501,6.5,8.501z M6.5,1.001
		c-1.792,0-3.25,1.458-3.25,3.25s1.458,3.25,3.25,3.25s3.25-1.458,3.25-3.25S8.292,1.001,6.5,1.001z"/>
	<path d="M16,8.501c-2.344,0-4.25-1.906-4.25-4.25s1.907-4.25,4.25-4.25s4.25,1.906,4.25,4.25S18.344,8.501,16,8.501z M16,1.001
		c-1.792,0-3.25,1.458-3.25,3.25s1.458,3.25,3.25,3.25c1.792,0,3.25-1.458,3.25-3.25S17.792,1.001,16,1.001z"/>
	<path d="M21.661,14.007c-0.212,0-0.401-0.134-0.472-0.334c-0.111-0.314-0.251-0.62-0.416-0.909C19.796,11.059,17.964,10,15.992,10
		c-0.953,0-1.895,0.251-2.725,0.727c-0.075,0.043-0.161,0.066-0.248,0.066c-0.179,0-0.345-0.096-0.434-0.252
		c-0.066-0.115-0.084-0.25-0.049-0.379s0.118-0.237,0.234-0.303C13.751,9.297,14.864,9,15.991,9c2.33,0,4.495,1.252,5.65,3.267
		c0.196,0.341,0.361,0.703,0.492,1.074c0.092,0.26-0.046,0.546-0.305,0.638C21.774,13.997,21.718,14.007,21.661,14.007z"/>
</g>
</svg>
