<?xml version="1.0" encoding="utf-8"?>
<!-- Generator: Adobe Illustrator 22.1.0, SVG Export Plug-In . SVG Version: 6.00 Build 0)  -->
<svg version="1.1" id="Light" xmlns="http://www.w3.org/2000/svg" xmlns:xlink="http://www.w3.org/1999/xlink" x="0px" y="0px"
	 viewBox="0 0 24 24" style="enable-background:new 0 0 24 24;" xml:space="preserve">
<g>
	<title>multiple-actions-flash</title>
	<path d="M18.623,23.765c-0.166,0-0.323-0.065-0.44-0.184C18.064,23.463,18,23.305,18,23.138V20h-1c-0.238,0-0.468-0.085-0.649-0.24
		c-0.419-0.359-0.469-0.991-0.111-1.41l4.645-5.878c0.119-0.151,0.298-0.237,0.49-0.237c0.168,0,0.325,0.066,0.443,0.185
		c0.118,0.118,0.182,0.276,0.182,0.443V16h1c0.238,0,0.469,0.085,0.65,0.24c0.203,0.174,0.327,0.417,0.347,0.683
		c0.021,0.266-0.063,0.525-0.237,0.728l-4.645,5.878c-0.117,0.148-0.3,0.237-0.49,0.237H18.623z M17.012,18.985L18.5,19
		c0.276,0,0.5,0.224,0.5,0.5v2.561l3.988-5.046L21.5,17c-0.276,0-0.5-0.224-0.5-0.5v-2.561L17.012,18.985z"/>
	<path d="M0.5,16C0.224,16,0,15.775,0,15.5C0,11.916,2.916,9,6.5,9s6.5,2.916,6.5,6.5c0,0.276-0.224,0.5-0.5,0.5H0.5z M11.978,15
		c-0.253-2.824-2.611-5-5.478-5s-5.224,2.176-5.478,5H11.978z"/>
	<path d="M6.5,8.5c-2.344,0-4.25-1.906-4.25-4.25S4.157,0,6.5,0s4.25,1.906,4.25,4.25S8.844,8.5,6.5,8.5z M6.5,1
		C4.708,1,3.25,2.458,3.25,4.25S4.708,7.5,6.5,7.5s3.25-1.458,3.25-3.25S8.292,1,6.5,1z"/>
	<path d="M16,8.5c-2.344,0-4.25-1.906-4.25-4.25S13.657,0,16,0s4.25,1.906,4.25,4.25S18.344,8.5,16,8.5z M16,1
		c-1.792,0-3.25,1.458-3.25,3.25S14.208,7.5,16,7.5s3.25-1.458,3.25-3.25S17.792,1,16,1z"/>
	<path d="M19.47,11.105c-0.104,0-0.205-0.032-0.289-0.092c-0.932-0.661-2.033-1.01-3.184-1.01c-0.963,0-1.91,0.252-2.739,0.729
		c-0.076,0.044-0.162,0.067-0.249,0.067c-0.178,0-0.345-0.096-0.434-0.251c-0.138-0.239-0.055-0.545,0.184-0.683
		c0.981-0.564,2.1-0.862,3.238-0.862c1.36,0,2.661,0.413,3.762,1.195c0.225,0.159,0.278,0.472,0.119,0.697
		C19.785,11.026,19.632,11.105,19.47,11.105z"/>
</g>
</svg>
