<?xml version="1.0" encoding="utf-8"?>
<!-- Generator: Adobe Illustrator 22.1.0, SVG Export Plug-In . SVG Version: 6.00 Build 0)  -->
<svg version="1.1" id="Light" xmlns="http://www.w3.org/2000/svg" xmlns:xlink="http://www.w3.org/1999/xlink" x="0px" y="0px"
	 viewBox="0 0 24 24" style="enable-background:new 0 0 24 24;" xml:space="preserve">
<g>
	<title>multiple-actions-edit-2</title>
	<path d="M14.233,23.773c-0.169,0-0.336-0.044-0.485-0.127c-0.233-0.129-0.402-0.342-0.476-0.599c-0.051-0.18-0.051-0.369,0-0.549
		l0.717-2.51c0.047-0.163,0.135-0.312,0.254-0.432l5.891-5.892c0.43-0.416,0.991-0.644,1.583-0.644l0.039,0
		c0.605,0.01,1.17,0.255,1.591,0.69c0.856,0.885,0.856,2.27,0,3.155l-5.896,5.896c-0.121,0.12-0.27,0.208-0.432,0.255l-2.512,0.718
		C14.417,23.76,14.325,23.773,14.233,23.773z M21.717,14.021c-0.331,0-0.644,0.127-0.881,0.357l-5.884,5.884l-0.718,2.511
		l2.51-0.717l5.891-5.891c0.474-0.49,0.473-1.263-0.006-1.758c-0.236-0.243-0.552-0.38-0.89-0.386l-0.021-0.25V14.021z"/>
	<path d="M0.506,16c-0.276,0-0.5-0.224-0.5-0.5c0-3.584,2.916-6.5,6.5-6.5s6.5,2.916,6.5,6.5c0,0.276-0.224,0.5-0.5,0.5H0.506z
		 M11.983,15c-0.253-2.824-2.611-5-5.478-5s-5.224,2.176-5.478,5H11.983z"/>
	<path d="M6.506,8.5c-2.344,0-4.25-1.906-4.25-4.25S4.162,0,6.506,0s4.25,1.906,4.25,4.25S8.849,8.5,6.506,8.5z M6.506,1
		c-1.792,0-3.25,1.458-3.25,3.25S4.714,7.5,6.506,7.5s3.25-1.458,3.25-3.25S8.298,1,6.506,1z"/>
	<path d="M16.006,8.5c-2.344,0-4.25-1.906-4.25-4.25S13.662,0,16.006,0s4.25,1.906,4.25,4.25S18.349,8.5,16.006,8.5z M16.006,1
		c-1.792,0-3.25,1.458-3.25,3.25s1.458,3.25,3.25,3.25s3.25-1.458,3.25-3.25S17.798,1,16.006,1z"/>
	<path d="M19.475,11.105c-0.105,0-0.205-0.032-0.29-0.093c-0.931-0.661-2.032-1.01-3.183-1.01c-0.963,0-1.911,0.252-2.741,0.73
		c-0.076,0.044-0.162,0.067-0.249,0.067l0,0c-0.178,0-0.344-0.096-0.434-0.251c-0.067-0.116-0.084-0.25-0.05-0.379
		s0.118-0.237,0.233-0.303c0.981-0.565,2.102-0.863,3.24-0.863c1.359,0,2.661,0.413,3.762,1.195
		c0.109,0.077,0.181,0.192,0.204,0.324c0.022,0.131-0.008,0.264-0.085,0.373C19.79,11.026,19.638,11.105,19.475,11.105z"/>
</g>
</svg>
