<?xml version="1.0" encoding="utf-8"?>
<!-- Generator: Adobe Illustrator 22.1.0, SVG Export Plug-In . SVG Version: 6.00 Build 0)  -->
<svg version="1.1" id="Light" xmlns="http://www.w3.org/2000/svg" xmlns:xlink="http://www.w3.org/1999/xlink" x="0px" y="0px"
	 viewBox="0 0 24 24" style="enable-background:new 0 0 24 24;" xml:space="preserve">
<g>
	<title>multiple-actions-alarm</title>
	<path d="M15.717,22.002c-0.152,0-0.304-0.036-0.44-0.103c-0.24-0.118-0.419-0.323-0.505-0.575s-0.068-0.524,0.05-0.764
		c0.263-0.462,0.398-0.966,0.398-1.472V17.2c-0.045-2.158,1.61-4.002,3.768-4.193C19.077,13.002,19.148,13,19.219,13
		c2.206,0,4,1.794,4,4v2.086c-0.001,0.507,0.13,1.008,0.381,1.448c0.08,0.16,0.117,0.313,0.117,0.468c0,0.551-0.448,1-0.999,1
		H15.717z M22.717,21.002c-0.325-0.569-0.5-1.236-0.498-1.917V17c0-1.654-1.346-3-3-3c-0.054,0-0.109,0.002-0.163,0.004
		c-1.621,0.144-2.872,1.543-2.837,3.185v1.898c0,0.668-0.172,1.327-0.497,1.91L22.717,21.002z"/>
	<path d="M18.719,24c-0.276,0-0.5-0.224-0.5-0.5s0.224-0.5,0.5-0.5h1c0.276,0,0.5,0.224,0.5,0.5s-0.224,0.5-0.5,0.5H18.719z"/>
	<path d="M0.719,16c-0.134,0-0.259-0.052-0.354-0.146C0.272,15.76,0.219,15.632,0.219,15.5c0-1.736,0.677-3.369,1.904-4.596
		c1.228-1.227,2.86-1.903,4.596-1.903c3.584,0,6.5,2.916,6.5,6.499c0,0.132-0.053,0.26-0.146,0.354
		C12.978,15.948,12.853,16,12.719,16H0.719z M12.197,15c-0.254-2.823-2.611-4.999-5.477-4.999l-0.001-0.25v0.25
		c-2.866,0-5.224,2.175-5.478,4.999H12.197z"/>
	<path d="M6.719,8.5c-2.344,0-4.25-1.906-4.25-4.25S4.375,0,6.719,0s4.25,1.906,4.25,4.25S9.062,8.5,6.719,8.5z M6.719,1
		c-1.792,0-3.25,1.458-3.25,3.25S4.927,7.5,6.719,7.5s3.25-1.458,3.25-3.25S8.511,1,6.719,1z"/>
	<path d="M16.219,8.5c-2.344,0-4.25-1.906-4.25-4.25S13.875,0,16.219,0s4.25,1.906,4.25,4.25S18.562,8.5,16.219,8.5z M16.219,1
		c-1.792,0-3.25,1.458-3.25,3.25s1.458,3.25,3.25,3.25s3.25-1.458,3.25-3.25S18.011,1,16.219,1z"/>
	<path d="M20.675,11.981c-0.141,0-0.276-0.06-0.371-0.165c-1.046-1.161-2.531-1.826-4.073-1.826c-0.947,0-1.89,0.251-2.727,0.726
		c-0.076,0.043-0.161,0.065-0.247,0.065l0,0c-0.18,0-0.346-0.097-0.435-0.253c-0.136-0.24-0.052-0.546,0.188-0.682
		c0.988-0.561,2.102-0.857,3.222-0.857c1.824,0,3.579,0.786,4.815,2.157c0.089,0.099,0.135,0.227,0.128,0.36
		s-0.065,0.256-0.164,0.346C20.918,11.935,20.799,11.981,20.675,11.981z"/>
</g>
</svg>
