<?xml version="1.0" encoding="utf-8"?>
<!-- Generator: Adobe Illustrator 22.1.0, SVG Export Plug-In . SVG Version: 6.00 Build 0)  -->
<svg version="1.1" id="Light" xmlns="http://www.w3.org/2000/svg" xmlns:xlink="http://www.w3.org/1999/xlink" x="0px" y="0px"
	 viewBox="0 0 24 24" style="enable-background:new 0 0 24 24;" xml:space="preserve">
<g>
	<title>multiple-actions-sync</title>
	<path d="M18.49,24.002c-1.073,0-2.118-0.316-3.023-0.914c-1.226-0.811-2.062-2.05-2.355-3.489
		c-0.294-1.439-0.009-2.907,0.801-4.132s2.05-2.062,3.489-2.355c0.366-0.075,0.74-0.113,1.11-0.113c1.073,0,2.118,0.316,3.022,0.914
		c0.576,0.381,1.072,0.866,1.466,1.428v-1.839c0-0.276,0.224-0.5,0.5-0.5s0.5,0.224,0.5,0.5v4c0,0.276-0.224,0.5-0.5,0.5h-4
		c-0.276,0-0.5-0.224-0.5-0.5s0.224-0.5,0.5-0.5h3.239c-0.324-0.922-0.939-1.714-1.756-2.255c-0.739-0.489-1.594-0.748-2.472-0.748
		c-0.303,0-0.609,0.031-0.909,0.092c-1.178,0.24-2.192,0.925-2.855,1.927c-0.663,1.003-0.896,2.203-0.656,3.381
		c0.426,2.087,2.28,3.602,4.409,3.602c0.301,0,0.603-0.031,0.9-0.091c1.08-0.22,2.039-0.827,2.7-1.709
		c0.094-0.125,0.243-0.2,0.4-0.2c0.109,0,0.212,0.034,0.3,0.1c0.221,0.166,0.265,0.48,0.1,0.7c-0.808,1.077-1.98,1.819-3.3,2.088
		C19.233,23.964,18.86,24.002,18.49,24.002z"/>
	<path d="M0.5,16.001c-0.276,0-0.5-0.224-0.5-0.5c0-3.584,2.916-6.5,6.5-6.5s6.5,2.916,6.5,6.5c0,0.276-0.224,0.5-0.5,0.5H0.5z
		 M11.978,15.001c-0.253-2.824-2.611-5-5.478-5s-5.224,2.176-5.478,5H11.978z"/>
	<path d="M6.5,8.501c-2.344,0-4.25-1.906-4.25-4.25s1.906-4.25,4.25-4.25s4.25,1.906,4.25,4.25S8.844,8.501,6.5,8.501z M6.5,1.001
		c-1.792,0-3.25,1.458-3.25,3.25s1.458,3.25,3.25,3.25s3.25-1.458,3.25-3.25S8.292,1.001,6.5,1.001z"/>
	<path d="M16,8.501c-2.344,0-4.25-1.906-4.25-4.25s1.906-4.25,4.25-4.25s4.25,1.906,4.25,4.25S18.344,8.501,16,8.501z M16,1.001
		c-1.792,0-3.25,1.458-3.25,3.25s1.458,3.25,3.25,3.25s3.25-1.458,3.25-3.25S17.792,1.001,16,1.001z"/>
	<path d="M19.47,11.106c-0.104,0-0.204-0.032-0.289-0.092c-0.933-0.662-2.034-1.011-3.184-1.011c-0.968,0-1.919,0.255-2.752,0.737
		c-0.077,0.044-0.163,0.067-0.25,0.067c0,0,0,0,0,0c-0.178,0-0.344-0.096-0.433-0.25c-0.067-0.115-0.084-0.25-0.05-0.379
		c0.034-0.129,0.117-0.237,0.232-0.304c0.985-0.57,2.11-0.871,3.253-0.871c1.359,0,2.661,0.413,3.763,1.196
		c0.225,0.159,0.278,0.472,0.118,0.697C19.785,11.027,19.632,11.106,19.47,11.106z"/>
</g>
</svg>
