<?xml version="1.0" encoding="utf-8"?>
<!-- Generator: Adobe Illustrator 22.1.0, SVG Export Plug-In . SVG Version: 6.00 Build 0)  -->
<svg version="1.1" id="Light" xmlns="http://www.w3.org/2000/svg" xmlns:xlink="http://www.w3.org/1999/xlink" x="0px" y="0px"
	 viewBox="0 0 24 24" style="enable-background:new 0 0 24 24;" xml:space="preserve">
<g>
	<title>multiple-actions-monitor</title>
	<path d="M15.5,24c-0.276,0-0.5-0.224-0.5-0.5s0.224-0.5,0.5-0.5H18v-1h-3.5c-0.827,0-1.5-0.673-1.5-1.5v-5
		c0-0.827,0.673-1.5,1.5-1.5h8c0.827,0,1.5,0.673,1.5,1.5v5c0,0.827-0.673,1.5-1.5,1.5H19v1h2.5c0.276,0,0.5,0.224,0.5,0.5
		S21.776,24,21.5,24H15.5z M14.5,15c-0.276,0-0.5,0.224-0.5,0.5v5c0,0.276,0.224,0.5,0.5,0.5h8c0.276,0,0.5-0.224,0.5-0.5v-5
		c0-0.276-0.224-0.5-0.5-0.5H14.5z"/>
	<path d="M0.5,16C0.224,16,0,15.776,0,15.5c-0.002-1.736,0.673-3.369,1.899-4.598c1.227-1.229,2.858-1.907,4.594-1.908
		c2.759,0,5.223,1.744,6.137,4.34c0.044,0.126,0.037,0.261-0.021,0.382c-0.058,0.121-0.159,0.211-0.285,0.256
		C12.271,13.99,12.216,14,12.16,14l0,0c-0.212,0-0.402-0.134-0.472-0.333C10.914,11.47,8.829,9.994,6.5,9.994
		c-1.475,0.001-2.855,0.575-3.893,1.615C1.692,12.525,1.135,13.721,1.022,15H10.5c0.276,0,0.5,0.224,0.5,0.5S10.776,16,10.5,16H0.5z
		"/>
	<path d="M6.5,8.5c-2.344,0-4.25-1.906-4.25-4.25S4.156,0,6.5,0s4.25,1.906,4.25,4.25S8.844,8.5,6.5,8.5z M6.5,1
		C4.708,1,3.25,2.458,3.25,4.25S4.708,7.5,6.5,7.5s3.25-1.458,3.25-3.25S8.292,1,6.5,1z"/>
	<path d="M16,8.5c-2.344,0-4.25-1.906-4.25-4.25S13.656,0,16,0s4.25,1.906,4.25,4.25S18.344,8.5,16,8.5z M16,1
		c-1.792,0-3.25,1.458-3.25,3.25S14.208,7.5,16,7.5s3.25-1.458,3.25-3.25S17.792,1,16,1z"/>
	<path d="M21.2,13.01c-0.179,0-0.345-0.096-0.434-0.251c-0.977-1.701-2.809-2.758-4.781-2.758c-0.948,0-1.885,0.249-2.709,0.719
		c-0.076,0.043-0.161,0.066-0.247,0.066l0,0c-0.179,0-0.346-0.097-0.435-0.252c-0.136-0.24-0.052-0.545,0.187-0.682
		c0.975-0.556,2.083-0.849,3.203-0.849c2.33,0,4.495,1.249,5.65,3.26c0.067,0.116,0.084,0.25,0.049,0.38
		c-0.035,0.129-0.118,0.236-0.233,0.303C21.373,12.987,21.287,13.01,21.2,13.01z"/>
</g>
</svg>
