<?xml version="1.0" encoding="utf-8"?>
<!-- Generator: Adobe Illustrator 22.1.0, SVG Export Plug-In . SVG Version: 6.00 Build 0)  -->
<svg version="1.1" id="Layer_1" xmlns="http://www.w3.org/2000/svg" xmlns:xlink="http://www.w3.org/1999/xlink" x="0px" y="0px"
	 viewBox="0 0 24 24" style="enable-background:new 0 0 24 24;" xml:space="preserve">
<title>force-touch-tap</title>
<g>
	<path d="M6.726,13.526c-0.556,0-1.09-0.205-1.503-0.576c-0.446-0.401-0.71-0.953-0.742-1.554s0.171-1.177,0.573-1.624l6.36-7.99
		c0.143-0.18,0.357-0.283,0.587-0.283c0.169,0,0.335,0.058,0.467,0.163c0.157,0.125,0.256,0.303,0.278,0.502
		c0.023,0.199-0.034,0.395-0.159,0.552l-6.389,8.024c-0.303,0.339-0.285,0.812,0.027,1.093c0.138,0.124,0.315,0.192,0.501,0.192
		c0.213,0,0.417-0.09,0.558-0.248l0.029-0.034l5.377-6.026c0.011-0.013,0.025-0.027,0.039-0.041
		c0.508-0.491,1.179-0.761,1.889-0.761c0.418,0,0.837,0.099,1.211,0.285c1.339,0.67,1.883,2.303,1.214,3.642
		c-0.015,0.03-0.032,0.06-0.052,0.088l-0.341,0.5c-0.26,0.38-0.164,0.899,0.214,1.159c0.032,0.022,0.066,0.042,0.101,0.059
		c0.119,0.06,0.246,0.09,0.375,0.09c0.304,0,0.584-0.168,0.73-0.439l4.522-8.399c0.131-0.243,0.384-0.395,0.66-0.395
		c0.123,0,0.246,0.031,0.355,0.089c0.177,0.095,0.306,0.253,0.364,0.445c0.057,0.192,0.037,0.395-0.058,0.571l-4.522,8.4
		c-0.408,0.758-1.193,1.229-2.049,1.229c-0.365,0-0.717-0.083-1.047-0.248c-0.097-0.049-0.192-0.104-0.281-0.165
		c-1.06-0.728-1.331-2.182-0.603-3.242l0.308-0.452c0.268-0.589,0.02-1.297-0.562-1.589c-0.167-0.083-0.354-0.127-0.541-0.127
		c-0.31,0-0.604,0.115-0.829,0.324l-5.335,5.979c-0.013,0.016-0.033,0.039-0.053,0.062C7.975,13.254,7.365,13.526,6.726,13.526z"/>
	<path d="M3.751,22.5c-2.068,0-3.75-1.682-3.75-3.75c0-1.241,1.009-2.25,2.25-2.25h19.5c1.241,0,2.25,1.009,2.25,2.25
		c0,2.068-1.682,3.75-3.75,3.75H3.751z M20.251,21c1.241,0,2.25-1.009,2.25-2.25c0-0.414-0.336-0.75-0.75-0.75h-5.25v3H20.251z
		 M2.251,18c-0.414,0-0.75,0.336-0.75,0.75c0,1.241,1.009,2.25,2.25,2.25h11.25v-3H2.251z"/>
	<path d="M0.751,15c-0.414,0-0.75-0.336-0.75-0.75s0.336-0.75,0.75-0.75h2.25c0.414,0,0.75,0.336,0.75,0.75S0.751,15,0.751,15z"/>
	<path d="M3.001,11.25c-0.2,0-0.389-0.078-0.53-0.22l-1.5-1.5C0.829,9.389,0.751,9.2,0.751,9s0.078-0.389,0.22-0.53
		c0.141-0.142,0.33-0.22,0.53-0.22s0.389,0.078,0.53,0.22l1.5,1.5c0.142,0.141,0.22,0.33,0.22,0.53s-0.078,0.389-0.22,0.53
		C3.389,11.172,3.201,11.25,3.001,11.25z"/>
	<path d="M10.501,15c-0.414,0-0.75-0.336-0.75-0.75s0.336-0.75,0.75-0.75h2.25c0.414,0,0.75,0.336,0.75,0.75S13.164,15,12.751,15
		H10.501z"/>
</g>
</svg>
