<?xml version="1.0" encoding="utf-8"?>
<!-- Generator: Adobe Illustrator 22.1.0, SVG Export Plug-In . SVG Version: 6.00 Build 0)  -->
<svg version="1.1" id="Layer_1" xmlns="http://www.w3.org/2000/svg" xmlns:xlink="http://www.w3.org/1999/xlink" x="0px" y="0px"
	 viewBox="0 0 24 24" style="enable-background:new 0 0 24 24;" xml:space="preserve">
<title>force-touch-double-tap</title>
<g>
	<path d="M3.807,24c-2.068,0-3.75-1.682-3.75-3.75V3.75C0.057,1.682,1.739,0,3.807,0h7.5c2.068,0,3.75,1.682,3.75,3.75V6
		c0,0.414-0.336,0.75-0.75,0.75s-0.75-0.336-0.75-0.75V3.75c0-1.241-1.009-2.25-2.25-2.25h-7.5c-1.241,0-2.25,1.009-2.25,2.25V18
		h5.25c0.414,0,0.75,0.336,0.75,0.75s-0.336,0.75-0.75,0.75h-5.25v0.75c0,1.241,1.009,2.25,2.25,2.25h7.5
		c0.414,0,0.75,0.336,0.75,0.75S11.721,24,11.307,24H3.807z"/>
	<path d="M13.98,22.63c-1.033,0-1.945-0.659-2.268-1.64c-0.412-1.25,0.27-2.602,1.52-3.014l0.091-0.03l-2.854-2.854
		c-0.022-0.019-0.074-0.07-0.124-0.125c-0.835-0.916-0.77-2.342,0.147-3.178c0.415-0.378,0.953-0.587,1.515-0.587
		c0.632,0,1.238,0.267,1.663,0.733l1.648,1.647l1.127-0.806c0.643-0.459,1.397-0.702,2.181-0.702c0.999,0,1.94,0.391,2.65,1.102
		l2.445,2.446c0.142,0.142,0.22,0.33,0.22,0.53c0,0.201-0.078,0.389-0.22,0.531c-0.141,0.141-0.33,0.219-0.53,0.219
		s-0.389-0.078-0.53-0.22l-2.445-2.446c-0.427-0.427-0.991-0.661-1.59-0.661c-0.47,0-0.923,0.146-1.309,0.421l-1.644,1.175
		c-0.128,0.091-0.279,0.14-0.436,0.14c-0.201,0-0.389-0.078-0.531-0.22l-2.122-2.121c-0.162-0.177-0.365-0.267-0.583-0.267
		c-0.186,0-0.363,0.069-0.5,0.194c-0.148,0.135-0.235,0.32-0.244,0.52c-0.009,0.2,0.06,0.392,0.195,0.54
		c0.016,0.018,0.032,0.034,0.049,0.049l3.738,3.737c0.182,0.182,0.259,0.451,0.2,0.702c-0.059,0.251-0.248,0.458-0.493,0.539
		l-1.245,0.415c-0.227,0.075-0.409,0.232-0.517,0.444c-0.107,0.212-0.125,0.452-0.051,0.676c0.118,0.359,0.464,0.61,0.842,0.61
		c0.034,0,0.068-0.002,0.102-0.006l3.732-0.414c0.028-0.003,0.054-0.004,0.08-0.004c0.384,0,0.705,0.287,0.748,0.667
		c0.045,0.412-0.252,0.783-0.663,0.829l-3.728,0.414C14.161,22.625,14.07,22.63,13.98,22.63z"/>
	<path d="M9.061,17.401c-0.13,0-0.259-0.034-0.373-0.099c-1.217-0.699-2.088-1.829-2.454-3.182S6.051,11.35,6.75,10.134
		C7.683,8.509,9.431,7.5,11.311,7.5c0.912,0,1.813,0.241,2.606,0.696c0.802,0.461,1.47,1.128,1.932,1.929
		c0.207,0.358,0.084,0.818-0.274,1.024c-0.114,0.066-0.244,0.1-0.375,0.1c0,0,0,0,0,0c-0.268,0-0.517-0.144-0.65-0.376
		c-0.33-0.572-0.807-1.048-1.38-1.377C12.604,9.172,11.96,9,11.309,9c-1.344,0-2.592,0.721-3.259,1.881
		c-0.499,0.869-0.63,1.88-0.368,2.846C7.944,14.695,8.566,15.502,9.435,16c0.174,0.1,0.298,0.261,0.35,0.455
		c0.052,0.193,0.026,0.396-0.074,0.569C9.578,17.257,9.329,17.401,9.061,17.401z"/>
</g>
</svg>
