<?xml version="1.0" encoding="utf-8"?>
<!-- Generator: Adobe Illustrator 22.1.0, SVG Export Plug-In . SVG Version: 6.00 Build 0)  -->
<svg version="1.1" id="Layer_1" xmlns="http://www.w3.org/2000/svg" xmlns:xlink="http://www.w3.org/1999/xlink" x="0px" y="0px"
	 viewBox="0 0 24 24" style="enable-background:new 0 0 24 24;" xml:space="preserve">
<title>squeeze-sides</title>
<g>
	<path d="M23.251,21.75c-0.061,0-0.122-0.008-0.181-0.022l-5.532-1.383C16.99,21.219,16.043,21.75,15,21.75H9c-1.654,0-3-1.346-3-3
		v-0.129C5.115,18.308,4.5,17.46,4.5,16.5V9.75c0-0.96,0.615-1.808,1.5-2.121V5.25c0-1.654,1.346-3,3-3h6c1.654,0,3,1.346,3,3v3.402
		c0.451-0.262,0.965-0.402,1.5-0.402c1.654,0,3,1.346,3,3c0,2.115,0.657,2.224,0.873,2.26c0.408,0.068,0.685,0.455,0.617,0.863
		C23.93,14.736,23.619,15,23.251,15c-0.041,0-0.082-0.003-0.123-0.01C21.716,14.755,21,13.497,21,11.25c0-0.827-0.673-1.5-1.5-1.5
		s-1.5,0.673-1.5,1.5v7.5c0,0.054-0.002,0.108-0.005,0.164l5.437,1.359c0.195,0.049,0.358,0.17,0.461,0.342
		c0.103,0.172,0.133,0.374,0.084,0.568C23.895,21.516,23.595,21.75,23.251,21.75z M7.5,18.75c0,0.827,0.673,1.5,1.5,1.5h6
		c0.827,0,1.5-0.673,1.5-1.5v-1.5H9.748c-0.554,0.737-1.352,1.241-2.248,1.423V18.75z M6.75,9C6.337,9,6,9.336,6,9.75v6.75
		c0,0.414,0.336,0.75,0.75,0.75C7.991,17.25,9,16.241,9,15v-3.75C9,10.009,7.991,9,6.75,9z M16.5,15.75V5.25
		c0-0.827-0.673-1.5-1.5-1.5H9c-0.827,0-1.5,0.673-1.5,1.5v2.327c1.732,0.351,3,1.874,3,3.673V15c0,0.251-0.026,0.502-0.078,0.75
		H16.5z"/>
	<path d="M0.75,8.25c-0.2,0-0.389-0.078-0.53-0.22C0.078,7.889,0,7.7,0,7.5s0.078-0.389,0.22-0.53l1.72-1.72L0.22,3.53
		C0.078,3.389,0,3.2,0,3s0.078-0.389,0.22-0.53c0.141-0.142,0.33-0.22,0.53-0.22s0.389,0.078,0.53,0.22l2.25,2.25
		c0.142,0.141,0.22,0.33,0.22,0.53S3.672,5.639,3.53,5.78l-2.25,2.25C1.139,8.172,0.951,8.25,0.75,8.25z"/>
	<path d="M23.25,8.25c-0.2,0-0.389-0.078-0.53-0.22l-2.25-2.25c-0.142-0.141-0.22-0.33-0.22-0.53s0.078-0.389,0.22-0.53l2.25-2.25
		c0.142-0.142,0.33-0.22,0.53-0.22s0.389,0.078,0.53,0.22C23.922,2.611,24,2.8,24,3s-0.078,0.389-0.22,0.53l-1.72,1.72l1.72,1.72
		C23.922,7.111,24,7.3,24,7.5s-0.078,0.389-0.22,0.53S23.451,8.25,23.25,8.25z"/>
</g>
</svg>
