<svg xmlns="http://www.w3.org/2000/svg" viewBox="0 0 24 24"><title>ui-columns</title><path d="M22,0H2A2,2,0,0,0,0,2V9a2,2,0,0,0,2,2H22a2,2,0,0,0,2-2V2A2,2,0,0,0,22,0ZM14.75,8.5a.5.5,0,0,1-.5.5H2.5A.5.5,0,0,1,2,8.5v-6A.5.5,0,0,1,2.5,2H14.25a.5.5,0,0,1,.5.5ZM21,6.856a.728.728,0,0,1-1.182.568l-1.745-1.4a.727.727,0,0,1,0-1.136l1.745-1.4A.727.727,0,0,1,21,4.064Z"/><path d="M4,4.75h7.5a.75.75,0,0,0,0-1.5H4a.75.75,0,0,0,0,1.5Z"/><path d="M4,7.75H8.5a.75.75,0,0,0,0-1.5H4a.75.75,0,0,0,0,1.5Z"/><path d="M22,13H2a2,2,0,0,0-2,2v7a2,2,0,0,0,2,2H22a2,2,0,0,0,2-2V15A2,2,0,0,0,22,13Zm-7.25,8.5a.5.5,0,0,1-.5.5H2.5a.5.5,0,0,1-.5-.5v-6a.5.5,0,0,1,.5-.5H14.25a.5.5,0,0,1,.5.5ZM21,19.856a.728.728,0,0,1-1.182.568l-1.745-1.4a.727.727,0,0,1,0-1.136l1.745-1.4A.727.727,0,0,1,21,17.064Z"/><path d="M4,17.75h7.5a.75.75,0,0,0,0-1.5H4a.75.75,0,0,0,0,1.5Z"/><path d="M4,20.75H8.5a.75.75,0,0,0,0-1.5H4a.75.75,0,0,0,0,1.5Z"/></svg>