<svg xmlns="http://www.w3.org/2000/svg" viewBox="0 0 24 24"><title>ui-phone-slider-horizontal</title><path d="M22.5,18a1,1,0,0,0,1-1V7a1,1,0,0,0-1-1H20a1,1,0,0,0-1,1V17a1,1,0,0,0,1,1Zm-2-7a.5.5,0,0,1,.309-.462.505.505,0,0,1,.545.109l1,1a.5.5,0,0,1,0,.707l-1,1A.5.5,0,0,1,20.5,13Z"/><path d="M4,6H1.5a1,1,0,0,0-1,1V17a1,1,0,0,0,1,1H4a1,1,0,0,0,1-1V7A1,1,0,0,0,4,6Zm-.5,7a.5.5,0,0,1-.309.462.5.5,0,0,1-.545-.108l-1-1a.5.5,0,0,1,0-.707l1-1A.5.5,0,0,1,3.5,11Z"/><path d="M16.5,6h-9a1,1,0,0,0-1,1V17a1,1,0,0,0,1,1h9a1,1,0,0,0,1-1V7A1,1,0,0,0,16.5,6Z"/></svg>