<svg xmlns="http://www.w3.org/2000/svg" viewBox="0 0 24 24"><title>ui-phone-slider-horizontal-alternate</title><path d="M23,6a1,1,0,0,0-1,1V17a1,1,0,0,0,2,0V7A1,1,0,0,0,23,6Z"/><path d="M20.03,10.47a.75.75,0,0,0-1.28.53v2a.75.75,0,0,0,1.28.53l1-1a.749.749,0,0,0,0-1.06Z"/><path d="M1,6A1,1,0,0,0,0,7V17a1,1,0,0,0,2,0V7A1,1,0,0,0,1,6Z"/><path d="M4.787,10.307a.749.749,0,0,0-.817.163l-1,1a.749.749,0,0,0,0,1.06l1,1a.746.746,0,0,0,.53.22A.75.75,0,0,0,5.25,13V11A.75.75,0,0,0,4.787,10.307Z"/><rect x="6.25" y="5.25" width="11.5" height="13.5" rx="1.75" ry="1.75"/></svg>