<svg xmlns="http://www.w3.org/2000/svg" viewBox="0 0 24 24"><title>ui-webpage-play</title><path d="M24,1.5A1.5,1.5,0,0,0,22.5,0H1.5A1.5,1.5,0,0,0,0,1.5v21A1.5,1.5,0,0,0,1.5,24h21A1.5,1.5,0,0,0,24,22.5ZM3,3.5A.5.5,0,0,1,3.5,3h17a.5.5,0,0,1,.5.5v10a.5.5,0,0,1-.5.5H3.5a.5.5,0,0,1-.5-.5ZM4.442,20.458a.625.625,0,0,1-.884.885l-1.5-1.5a.626.626,0,0,1,0-.885l1.5-1.5a.625.625,0,0,1,.884.885l-.881.881a.25.25,0,0,0,0,.353Zm3.25,0a.625.625,0,0,1-.884.885l-1.5-1.5a.626.626,0,0,1,0-.885l1.5-1.5a.625.625,0,0,1,.884.885l-.881.881a.25.25,0,0,0,0,.353Zm6.13-.634-2.557,1.6A.5.5,0,0,1,10.5,21V17.8a.5.5,0,0,1,.765-.424l2.557,1.6a.5.5,0,0,1,0,.848Zm4.87.019-1.5,1.5a.625.625,0,1,1-.884-.885l.881-.881a.25.25,0,0,0,0-.353l-.881-.881a.625.625,0,0,1,.884-.885l1.5,1.5A.626.626,0,0,1,18.692,19.843Zm3.25,0-1.5,1.5a.625.625,0,1,1-.884-.885l.881-.881a.25.25,0,0,0,0-.353l-.881-.881a.625.625,0,0,1,.884-.885l1.5,1.5A.626.626,0,0,1,21.942,19.843Z"/></svg>