<svg xmlns="http://www.w3.org/2000/svg" viewBox="0 0 24 24"><defs><style>.a{fill:none;stroke:currentColor;stroke-linecap:round;stroke-linejoin:round;}</style></defs><title>gesture-expand-1</title><line class="a" x1="11.498" y1="0.503" x2="11.498" y2="5.503"/><polyline class="a" points="8.998 2.503 11.498 0.503 13.998 2.503"/><line class="a" x1="11.498" y1="23.503" x2="11.498" y2="18.503"/><polyline class="a" points="8.998 21.503 11.498 23.503 13.998 21.503"/><line class="a" x1="0.498" y1="11.503" x2="5.498" y2="11.503"/><polyline class="a" points="2.498 14.003 0.498 11.503 2.498 9.003"/><line class="a" x1="23.498" y1="11.503" x2="18.498" y2="11.503"/><polyline class="a" points="21.498 14.003 23.498 11.503 21.498 9.003"/><path class="a" d="M10.5,8.483a1,1,0,1,1,2,0v2c2.91,1.106,4.287,1.3,3.967,2.69-.13.56-.706,2.773-.849,3.33H10.338L8.5,13.483c-1.214-1.857,1-2.5,2-.98Z"/></svg>