<svg xmlns="http://www.w3.org/2000/svg" viewBox="0 0 24 24"><defs><style>.a{fill:none;stroke:currentColor;stroke-linecap:round;stroke-linejoin:round;}</style></defs><title>gesture-swipe-vertical-2</title><line class="a" x1="15.513" y1="3.01" x2="15.513" y2="6.51"/><polyline class="a" points="13.013 5.01 15.513 3.01 18.013 5.01"/><line class="a" x1="15.513" y1="21.01" x2="15.513" y2="17.51"/><polyline class="a" points="13.013 19.01 15.513 21.01 18.013 19.01"/><polyline class="a" points="18.013 21.51 15.513 23.51 13.013 21.51"/><polyline class="a" points="18.013 2.51 15.513 0.51 13.013 2.51"/><path class="a" d="M17.524,10.5a1,1,0,0,1,0,2H12.769L11.6,16.42a1.285,1.285,0,0,1-1.521.895c-.6-.137.3.035-4.576-.85V10.344l4.591-3.061C11.951,6.069,12.6,9.119,9.5,10.5Z"/></svg>