<svg xmlns="http://www.w3.org/2000/svg" viewBox="0 0 24 24"><defs><style>.a{fill:none;stroke:currentColor;stroke-linecap:round;stroke-linejoin:round;}</style></defs><title>gesture-swipe-vertical-up-3</title><polyline class="a" points="12.5 3.51 13.5 0.51 16.5 1.51"/><path class="a" d="M15.921,17.547A11.911,11.911,0,0,1,13.03,23.51"/><polyline class="a" points="13.509 5.51 14.5 2.5 17.509 3.51"/><path class="a" d="M14.5,2.5a16.219,16.219,0,0,1,1.42,4"/><path class="a" d="M17.52,10.5a1,1,0,0,1,0,2H12.765L11.6,16.42a1.284,1.284,0,0,1-1.52.895c-.6-.137.3.035-4.576-.85V10.344l4.591-3.061c1.856-1.214,2.5,1.836-.591,3.217Z"/></svg>