<svg xmlns="http://www.w3.org/2000/svg" viewBox="0 0 24 24"><defs><style>.a{fill:none;stroke:currentColor;stroke-linecap:round;stroke-linejoin:round;}</style></defs><title>gesture-two-fingers-swipe-down</title><path class="a" d="M15.522,9.5a1,1,0,0,1,0,2H10.768l-.246,1L15.338,14a.929.929,0,0,1-.454,1.8l-4.862-1.3c-.472,1.019-.776,2.079-1.944,1.809-.563-.13-4-.745-4.576-.849V9.343l4.59-3.061c1.857-1.215,2.5,1.836-.59,3.217Z"/><polyline class="a" points="16.002 21.011 17.002 23.499 20.002 23.011"/><path class="a" d="M17.063.5C18.85,3.149,20,7.319,20,12.011A21.1,21.1,0,0,1,17,23.5"/></svg>