<svg xmlns="http://www.w3.org/2000/svg" viewBox="0 0 24 24"><defs><style>.a{fill:none;stroke:currentColor;stroke-linecap:round;stroke-linejoin:round;}</style></defs><title>gesture-tap-two-fingers</title><path class="a" d="M5.5,21.508v-9.5a3.5,3.5,0,0,1,7,0v9.5"/><path class="a" d="M10.5,12.008a1.5,1.5,0,0,0-3,0v1.5h3Z"/><path class="a" d="M12.5,21.508v-10.5a3.5,3.5,0,1,1,7,0v10.5"/><path class="a" d="M17.5,11.008a1.5,1.5,0,1,0-3,0v1.5h3Z"/><path class="a" d="M3.524,11.8a5.255,5.255,0,0,1,7.47-5.283"/><path class="a" d="M13.008,5.889a5.507,5.507,0,0,1,8.287,6.1"/></svg>