<svg xmlns="http://www.w3.org/2000/svg" viewBox="0 0 24 24"><defs><style>.a{fill:none;stroke:currentColor;stroke-linecap:round;stroke-linejoin:round;}</style></defs><title>gesture-swipe-vertical-down-3</title><polyline class="a" points="12.5 20.489 13.5 23.489 16.5 22.489"/><path class="a" d="M15.919,6.452A11.9,11.9,0,0,0,13.029.489"/><polyline class="a" points="13.508 18.489 14.498 21.5 17.508 20.489"/><path class="a" d="M14.5,21.5a16.172,16.172,0,0,0,1.42-4"/><path class="a" d="M17.519,10.5a1,1,0,0,1,0,2H12.764L11.6,16.42a1.281,1.281,0,0,1-1.52.893c-.524-.122-4.043-.753-4.577-.85V10.344l4.591-3.061c1.857-1.214,2.5,1.836-.591,3.217Z"/></svg>