<svg xmlns="http://www.w3.org/2000/svg" viewBox="0 0 24 24"><defs><style>.a{fill:none;stroke:currentColor;stroke-linecap:round;stroke-linejoin:round;}</style></defs><title>gesture-tap-two-fingers-clock</title><path class="a" d="M4.494,21.508v-8.5a3.5,3.5,0,0,1,7,0v8.5"/><path class="a" d="M9.494,13.008a1.5,1.5,0,0,0-3,0v1.5h3Z"/><path class="a" d="M11.494,21.508v-9.5a3.5,3.5,0,0,1,7,0v9.5"/><path class="a" d="M16.494,12.008a1.5,1.5,0,0,0-3,0v1.5h3Z"/><polyline class="a" points="17.494 2.508 17.494 4.508 18.494 4.508"/><circle class="a" cx="17.494" cy="4.008" r="3"/><path class="a" d="M2.544,11.549A5.256,5.256,0,0,1,9.992,7.531"/><path class="a" d="M19.238,8.028a5.5,5.5,0,0,1,1.054,4.98"/><path class="a" d="M12.006,6.908a5.511,5.511,0,0,1,1.5-.679"/></svg>