<svg xmlns="http://www.w3.org/2000/svg" viewBox="0 0 24 24"><defs><style>.a{fill:none;stroke:currentColor;stroke-linecap:round;stroke-linejoin:round;}</style></defs><title>gesture-flip-right</title><path class="a" d="M3.489,16.508v-4.5a3.5,3.5,0,0,1,7,0v4.5"/><path class="a" d="M8.489,12.008a1.5,1.5,0,0,0-3,0v1.5h3Z"/><path class="a" d="M12.489,16.508v-4.5a3.5,3.5,0,0,1,7,0v4.5"/><path class="a" d="M17.489,12.008a1.5,1.5,0,0,0-3,0v1.5h3Z"/><polyline class="a" points="14.489 0.508 11.489 1.508 12.489 4.008"/><polyline class="a" points="8.489 23.508 11.489 22.508 10.489 20.008"/><path class="a" d="M6.975,18.008c1,2.718,2.645,4.5,4.514,4.5"/><path class="a" d="M16.173,6.5c-.969-2.995-2.7-4.991-4.684-4.991"/></svg>