<svg xmlns="http://www.w3.org/2000/svg" viewBox="0 0 24 24"><defs><style>.a{fill:none;stroke:currentColor;stroke-linecap:round;stroke-linejoin:round;}</style></defs><title>gesture-two-finger-tap-clock</title><polyline class="a" points="17.504 2.503 17.504 4.503 18.504 4.503"/><circle class="a" cx="17.504" cy="4.003" r="3"/><path class="a" d="M7.5,10.483a1,1,0,0,1,2,0v4.754l1,.246,1.5-4.816a.93.93,0,0,1,1.8.454l-1.3,4.862c1.02.472,2.08.776,1.811,1.943-.13.564-.746,4-.85,4.577H7.348l-3.06-4.59c-1.215-1.858,1.836-2.5,3.216.59Z"/><path class="a" d="M5,10A3.5,3.5,0,0,1,11.333,7.94"/><path class="a" d="M13.519,7.538a3.508,3.508,0,0,1,1.991,5.908"/></svg>