<svg xmlns="http://www.w3.org/2000/svg" viewBox="0 0 24 24"><defs><style>.a{fill:none;stroke:currentColor;stroke-linecap:round;stroke-linejoin:round;}</style></defs><title>gesture-two-finger-zoom-out</title><path class="a" d="M16,5c3.364.314,6.131,1.7,7.5,3.5"/><path class="a" d="M.5,8.5C1.88,6.694,4.613,5.307,8,5"/><polyline class="a" points="21.002 8.503 23.502 8.503 23.502 6.003"/><polyline class="a" points="3.002 8.503 0.502 8.503 0.502 6.003"/><path class="a" d="M9.5,10.483a1,1,0,0,1,2,0v4.754l1,.246,1.5-4.816a.93.93,0,0,1,1.8.454l-1.3,4.862c1.02.472,2.08.776,1.811,1.943-.13.564-.747,4-.85,4.577H9.346l-3.061-4.59c-1.215-1.858,1.836-2.5,3.217.59Z"/></svg>