<svg xmlns="http://www.w3.org/2000/svg" viewBox="0 0 24 24"><defs><style>.a{fill:none;stroke:currentColor;stroke-linecap:round;stroke-linejoin:round;}</style></defs><title>gesture-two-fingers-swipe-up</title><path class="a" d="M16.523,9.5a1,1,0,0,1,0,2H11.769l-.246,1L16.339,14a.929.929,0,0,1-.454,1.8l-4.862-1.3c-.472,1.019-.776,2.079-1.944,1.809-.563-.13-4-.745-4.576-.849V9.343l4.59-3.061C10.951,5.067,11.6,8.118,8.5,9.5Z"/><polyline class="a" points="17.003 2.985 18.003 0.499 21.003 0.985"/><path class="a" d="M18.064,23.5C19.851,20.848,21,16.677,21,11.985A21.085,21.085,0,0,0,18,.5"/></svg>