<svg xmlns="http://www.w3.org/2000/svg" viewBox="0 0 24 24"><defs><style>.a{fill:none;stroke:currentColor;stroke-linecap:round;stroke-linejoin:round;}</style></defs><title>gesture-tap-all-direction</title><line class="a" x1="11.492" y1="0.506" x2="11.492" y2="4.506"/><polyline class="a" points="8.992 2.506 11.492 0.506 13.992 2.506"/><line class="a" x1="11.492" y1="23.506" x2="11.492" y2="19.506"/><polyline class="a" points="8.992 21.506 11.492 23.506 13.992 21.506"/><line class="a" x1="0.492" y1="11.506" x2="3.492" y2="11.506"/><polyline class="a" points="2.492 14.006 0.492 11.506 2.492 9.006"/><line class="a" x1="23.492" y1="11.506" x2="20.492" y2="11.506"/><polyline class="a" points="21.492 14.006 23.492 11.506 21.492 9.006"/><path class="a" d="M6.479,16.452a6.5,6.5,0,1,1,11.016.014"/><path class="a" d="M8.492,17.506v-4.5a3.5,3.5,0,0,1,7,0v4.5"/><path class="a" d="M13.492,13.006a1.5,1.5,0,0,0-3,0v1.5h3Z"/></svg>