<svg xmlns="http://www.w3.org/2000/svg" viewBox="0 0 24 24"><defs><style>.a{fill:none;stroke:currentColor;stroke-linecap:round;stroke-linejoin:round;}</style></defs><title>gesture-zoom-out</title><path class="a" d="M8.495,12.84a1.5,1.5,0,1,0-2.981.336l.168,1.491,2.981-.337Z"/><path class="a" d="M19.483,22.338l.987-8.946a3.5,3.5,0,1,0-6.958-.767L12.5,21.508h-1l-1.017-8.893a3.5,3.5,0,0,0-6.956.785l1.008,8.944"/><path class="a" d="M15.5,12.844a1.5,1.5,0,1,1,2.982.329l-.164,1.49-2.982-.329Z"/><path class="a" d="M15.992,4.008c3.364.315,6.13,1.7,7.5,3.5"/><path class="a" d="M.492,7.515c1.378-1.808,4.111-3.2,7.5-3.507"/><polyline class="a" points="20.992 7.508 23.492 7.508 23.492 5.008"/><polyline class="a" points="2.992 7.508 0.492 7.508 0.492 5.008"/></svg>