<svg xmlns="http://www.w3.org/2000/svg" viewBox="0 0 24 24"><defs><style>.a{fill:none;stroke:currentColor;stroke-linecap:round;stroke-linejoin:round;stroke-width:1.5px;}</style></defs><title>photography-equipment-light-1</title><rect class="a" x="3.375" y="0.75" width="17.25" height="12" rx="1" ry="1"/><path class="a" d="M17.136,18.325A1.5,1.5,0,0,1,15.672,19.5H8.328a1.5,1.5,0,0,1-1.464-1.175L5.625,12.75h12.75Z"/><path class="a" d="M13.5,15.75a.375.375,0,1,1-.375.375.375.375,0,0,1,.375-.375"/><path class="a" d="M7.5,3.772a.375.375,0,1,1-.375.375A.375.375,0,0,1,7.5,3.772"/><path class="a" d="M12,3.772a.375.375,0,1,1-.375.375A.375.375,0,0,1,12,3.772"/><path class="a" d="M16.5,3.75a.375.375,0,1,1-.375.375A.375.375,0,0,1,16.5,3.75"/><path class="a" d="M7.5,8.272a.375.375,0,1,1-.375.375A.375.375,0,0,1,7.5,8.272"/><path class="a" d="M12,8.272a.375.375,0,1,1-.375.375A.375.375,0,0,1,12,8.272"/><path class="a" d="M16.5,8.25a.375.375,0,1,1-.375.375A.375.375,0,0,1,16.5,8.25"/><path class="a" d="M13.875,19.5v3a.75.75,0,0,1-.75.75h-2.25a.75.75,0,0,1-.75-.75v-3"/></svg>