<svg xmlns="http://www.w3.org/2000/svg" viewBox="0 0 24 24"><defs><style>.a{fill:none;stroke:currentColor;stroke-linecap:round;stroke-linejoin:round;stroke-width:1.5px;}</style></defs><title>photography-equipment-light-2</title><circle class="a" cx="12" cy="10.5" r="1.5"/><rect class="a" x="8.25" y="6.75" width="7.5" height="7.5"/><path class="a" d="M8.25,6.75,6.76,2.777A1.5,1.5,0,0,1,8.165.75h7.67a1.5,1.5,0,0,1,1.4,2.027L15.75,6.75"/><path class="a" d="M15.75,6.75l3.973-1.49A1.5,1.5,0,0,1,21.75,6.665v7.671a1.5,1.5,0,0,1-2.027,1.4L15.75,14.25"/><path class="a" d="M15.75,14.25l1.49,3.973a1.5,1.5,0,0,1-1.4,2.027H8.165a1.5,1.5,0,0,1-1.4-2.027L8.25,14.25"/><path class="a" d="M8.25,14.25,4.277,15.74a1.5,1.5,0,0,1-2.027-1.4V6.665A1.5,1.5,0,0,1,4.277,5.26L8.25,6.75"/><line class="a" x1="10.5" y1="20.25" x2="10.5" y2="23.25"/><line class="a" x1="13.5" y1="20.25" x2="13.5" y2="23.25"/></svg>