<svg xmlns="http://www.w3.org/2000/svg" viewBox="0 0 24 24"><defs><style>.a{fill:none;stroke:currentColor;stroke-linecap:round;stroke-linejoin:round;stroke-width:1.5px;}</style></defs><title>love-it-angel</title><line class="a" x1="3.75" y1="16.5" x2="3.75" y2="13.5"/><path class="a" d="M6.75,16.5a1.5,1.5,0,0,1-3,0v3a1.5,1.5,0,0,1-3,0V8.25a2.247,2.247,0,0,1,.793-1.715"/><line class="a" x1="20.25" y1="16.5" x2="20.25" y2="13.5"/><path class="a" d="M17.25,16.5a1.5,1.5,0,0,0,3,0v3a1.5,1.5,0,0,0,3,0V8.25a2.247,2.247,0,0,0-.793-1.715"/><path class="a" d="M12,16.125,5.608,9.457A3.785,3.785,0,0,1,4.9,5.091h0a3.782,3.782,0,0,1,6.057-.983L12,5.152l1.044-1.044a3.782,3.782,0,0,1,6.057.983h0a3.783,3.783,0,0,1-.709,4.366Z"/></svg>