<svg xmlns="http://www.w3.org/2000/svg" viewBox="0 0 24 24"><defs><style>.a{fill:none;stroke:currentColor;stroke-linecap:round;stroke-linejoin:round;stroke-width:1.5px;}</style></defs><title>love-it-hand-give</title><line class="a" x1="0.75" y1="14.25" x2="0.75" y2="23.25"/><path class="a" d="M.75,21.75h15a3,3,0,0,0-3-3H9a3,3,0,0,0-3-3H.75"/><line class="a" x1="6" y1="18.75" x2="9" y2="18.75"/><path class="a" d="M15.75,13.875,9.358,7.207a3.785,3.785,0,0,1-.709-4.366h0a3.782,3.782,0,0,1,6.057-.983L15.75,2.9l1.044-1.044a3.782,3.782,0,0,1,6.057.983h0a3.783,3.783,0,0,1-.709,4.366Z"/></svg>