<svg id="Regular" xmlns="http://www.w3.org/2000/svg" viewBox="0 0 24 24"><defs><style>.cls-1{fill:none;stroke:currentColor;stroke-linecap:round;stroke-linejoin:round;stroke-width:1.5px;}</style></defs><title>multiple-actions-shield</title><path class="cls-1" d="M23.25,15.75a7.668,7.668,0,0,1-6,7.5,7.669,7.669,0,0,1-6-7.5v-3a1.5,1.5,0,0,1,1.5-1.5h9a1.5,1.5,0,0,1,1.5,1.5Z"/><line class="cls-1" x1="17.25" y1="15" x2="17.25" y2="19.5"/><line class="cls-1" x1="15" y1="17.25" x2="19.5" y2="17.25"/><circle class="cls-1" cx="6" cy="3.75" r="3"/><path class="cls-1" d="M9.174,9.317A5.251,5.251,0,0,0,.75,13.5v2.25H3l.75,7.5h4.5L8.7,18.713"/><circle class="cls-1" cx="16.5" cy="3.375" r="2.625"/><path class="cls-1" d="M20.4,9a4.5,4.5,0,0,0-7.285-.71"/></svg>