<svg id="Regular" xmlns="http://www.w3.org/2000/svg" viewBox="0 0 24 24"><defs><style>.cls-1{fill:none;stroke:currentColor;stroke-linecap:round;stroke-linejoin:round;stroke-width:1.5px;}</style></defs><title>multiple-actions-alarm</title><path class="cls-1" d="M18,12a3.749,3.749,0,0,1,3.75,3.75v3a1.5,1.5,0,0,0,1.5,1.5H12.75a1.5,1.5,0,0,0,1.5-1.5v-3A3.75,3.75,0,0,1,18,12Z"/><path class="cls-1" d="M18,22.5a.375.375,0,1,1-.375.375A.374.374,0,0,1,18,22.5"/><circle class="cls-1" cx="16.5" cy="3.375" r="2.625"/><path class="cls-1" d="M20.4,9a4.5,4.5,0,0,0-7.285-.71"/><circle class="cls-1" cx="6" cy="3.75" r="3"/><path class="cls-1" d="M11.25,13.5a5.25,5.25,0,0,0-10.5,0v2.25H3l.75,7.5h4.5L9,15.75h2.25Z"/></svg>