<svg id="Regular" xmlns="http://www.w3.org/2000/svg" viewBox="0 0 24 24"><defs><style>.cls-1{fill:none;stroke:currentColor;stroke-linecap:round;stroke-linejoin:round;stroke-width:1.5px;}</style></defs><title>multiple-actions-chat</title><path class="cls-1" d="M21.75,20.25h-3l-4.5,3v-3h-1.5a1.5,1.5,0,0,1-1.5-1.5v-6a1.5,1.5,0,0,1,1.5-1.5h9a1.5,1.5,0,0,1,1.5,1.5v6A1.5,1.5,0,0,1,21.75,20.25Z"/><line class="cls-1" x1="14.25" y1="14.25" x2="20.25" y2="14.25"/><line class="cls-1" x1="14.25" y1="17.25" x2="20.25" y2="17.25"/><circle class="cls-1" cx="6" cy="3.75" r="3"/><path class="cls-1" d="M9.1,9.264A5.251,5.251,0,0,0,.75,13.5v2.25H3l.75,7.5h4.5l.259-2.594"/><circle class="cls-1" cx="16.348" cy="3.375" r="2.625"/><path class="cls-1" d="M20.245,9a4.5,4.5,0,0,0-7.285-.71"/></svg>