<svg id="Regular" xmlns="http://www.w3.org/2000/svg" viewBox="0 0 24 24"><defs><style>.cls-1{fill:none;stroke:currentColor;stroke-linecap:round;stroke-linejoin:round;stroke-width:1.5px;}</style></defs><title>multiple-actions-location</title><path class="cls-1" d="M18.75,15.437a.375.375,0,1,1-.375.375.374.374,0,0,1,.375-.375"/><path class="cls-1" d="M18.75,11.312a4.5,4.5,0,0,1,4.5,4.5c0,1.92-2.688,5.576-3.909,7.138a.75.75,0,0,1-1.182,0c-1.221-1.561-3.909-5.217-3.909-7.137A4.5,4.5,0,0,1,18.75,11.312Z"/><circle class="cls-1" cx="16.5" cy="3.375" r="2.625"/><path class="cls-1" d="M20.4,9a4.5,4.5,0,0,0-7.285-.71"/><circle class="cls-1" cx="6" cy="3.75" r="3"/><path class="cls-1" d="M11.25,13.5a5.25,5.25,0,0,0-10.5,0v2.25H3l.75,7.5h4.5L9,15.75h2.25Z"/></svg>