<?xml version="1.0" encoding="utf-8"?>
<!-- Generator: Adobe Illustrator 22.1.0, SVG Export Plug-In . SVG Version: 6.00 Build 0)  -->
<svg version="1.1" id="Layer_1" xmlns="http://www.w3.org/2000/svg" xmlns:xlink="http://www.w3.org/1999/xlink" x="0px" y="0px"
	 viewBox="0 0 24 24" style="enable-background:new 0 0 24 24;" xml:space="preserve">
<g>
	<title>share-2</title>
	<path d="M1.5,24C0.673,24,0,23.327,0,22.5v-13C0,8.673,0.673,8,1.5,8h4C5.776,8,6,8.224,6,8.5S5.776,9,5.5,9h-4
		C1.224,9,1,9.224,1,9.5v13C1,22.776,1.224,23,1.5,23h13c0.276,0,0.5-0.224,0.5-0.5v-13C15,9.224,15.224,9,15.5,9S16,9.224,16,9.5
		v13c0,0.827-0.673,1.5-1.5,1.5H1.5z"/>
	<path d="M8.5,12C8.224,12,8,11.776,8,11.5V10c0-3.308,2.692-6,6-6h8.294l-3.147-3.147C19.052,0.758,19,0.633,19,0.499
		s0.052-0.259,0.146-0.354s0.22-0.146,0.354-0.146s0.259,0.052,0.354,0.146l4,4c0.042,0.041,0.065,0.085,0.08,0.112c0,0,0,0,0,0
		c0.001,0,0.016,0.021,0.028,0.051C23.987,4.37,24,4.435,24,4.5c0,0.018-0.004,0.047-0.009,0.069
		c-0.004,0.035-0.011,0.076-0.029,0.121c-0.026,0.064-0.065,0.121-0.115,0.17l-3.994,3.994c-0.094,0.094-0.22,0.146-0.354,0.146
		s-0.259-0.052-0.354-0.146c-0.195-0.195-0.195-0.512,0-0.707L22.292,5H14c-2.757,0-5,2.243-5,5v1.5C9,11.776,8.776,12,8.5,12z"/>
</g>
</svg>
