<?xml version="1.0" encoding="utf-8"?>
<!-- Generator: Adobe Illustrator 22.1.0, SVG Export Plug-In . SVG Version: 6.00 Build 0)  -->
<svg version="1.1" id="Layer_1" xmlns="http://www.w3.org/2000/svg" xmlns:xlink="http://www.w3.org/1999/xlink" x="0px" y="0px"
	 viewBox="0 0 24 24" style="enable-background:new 0 0 24 24;" xml:space="preserve">
<g>
	<title>user-signal-1</title>
	<path d="M12,15.999c-1.93,0-3.5-1.57-3.5-3.5s1.57-3.5,3.5-3.5s3.5,1.57,3.5,3.5S13.93,15.999,12,15.999z M12,9.999
		c-1.379,0-2.5,1.122-2.5,2.5c0,1.378,1.121,2.5,2.5,2.5c1.378,0,2.5-1.122,2.5-2.5C14.5,11.121,13.378,9.999,12,9.999z"/>
	<path d="M7.5,24c-0.14,0-0.275-0.06-0.37-0.163c-0.094-0.104-0.141-0.243-0.128-0.383C7.34,19.775,9.489,17,12,17
		s4.659,2.775,4.998,6.454c0.013,0.14-0.034,0.279-0.128,0.383C16.774,23.941,16.64,24,16.5,24H7.5z M15.936,23
		c-0.428-2.87-2.089-5-3.937-5s-3.509,2.13-3.937,5H15.936z"/>
	<path d="M17.3,17.8c-0.134,0-0.259-0.052-0.354-0.146c-0.195-0.196-0.194-0.513,0-0.707c1.323-1.321,2.052-3.079,2.053-4.948
		c0.001-1.87-0.726-3.628-2.047-4.951c-1.32-1.322-3.079-2.05-4.953-2.05c-1.87,0-3.627,0.726-4.947,2.044
		c-2.731,2.728-2.734,7.168-0.006,9.899c0.197,0.197,0.198,0.516,0.003,0.71c-0.096,0.096-0.222,0.148-0.355,0.148
		c-0.132,0-0.256-0.052-0.349-0.145C4.832,16.137,3.998,14.125,4,11.989c0.001-2.137,0.835-4.145,2.347-5.655
		C7.855,4.827,9.862,3.997,12,3.997c2.141,0,4.151,0.832,5.661,2.343c1.51,1.512,2.341,3.521,2.34,5.658
		c-0.001,2.137-0.835,4.145-2.346,5.656C17.558,17.748,17.433,17.8,17.3,17.8z"/>
	<path d="M20.132,20.631c-0.134,0-0.259-0.052-0.354-0.146s-0.146-0.22-0.146-0.354s0.052-0.259,0.146-0.354
		c4.289-4.289,4.288-11.268-0.001-15.556C17.7,2.144,14.938,1,11.999,1C9.061,1,6.299,2.144,4.221,4.222
		c-4.288,4.289-4.288,11.267,0,15.556c0.094,0.094,0.146,0.22,0.146,0.354s-0.052,0.259-0.146,0.354s-0.22,0.146-0.354,0.146
		s-0.259-0.052-0.354-0.146c-4.678-4.678-4.678-12.291,0-16.97C5.781,1.248,8.794,0,11.999,0s6.219,1.248,8.485,3.514
		c4.679,4.679,4.679,12.292,0.001,16.97C20.391,20.579,20.265,20.631,20.132,20.631z"/>
</g>
</svg>
