<?xml version="1.0" encoding="utf-8"?>
<!-- Generator: Adobe Illustrator 22.1.0, SVG Export Plug-In . SVG Version: 6.00 Build 0)  -->
<svg version="1.1" id="Layer_1" xmlns="http://www.w3.org/2000/svg" xmlns:xlink="http://www.w3.org/1999/xlink" x="0px" y="0px"
	 viewBox="0 0 24 24" style="enable-background:new 0 0 24 24;" xml:space="preserve">
<g>
	<title>cog-double-2</title>
	<path d="M8.501,19.001c-1.93,0-3.5-1.57-3.5-3.5s1.57-3.5,3.5-3.5s3.5,1.57,3.5,3.5S10.431,19.001,8.501,19.001z M8.501,13.001
		c-1.379,0-2.5,1.122-2.5,2.5s1.121,2.5,2.5,2.5s2.5-1.122,2.5-2.5S9.879,13.001,8.501,13.001z"/>
	<path d="M7.501,24c-0.827,0-1.5-0.673-1.5-1.5v-0.467c-0.693-0.264-1.334-0.633-1.911-1.1l-0.402,0.232
		c-0.227,0.131-0.486,0.201-0.748,0.201c-0.536,0-1.034-0.287-1.301-0.75l-1-1.732c-0.413-0.716-0.167-1.635,0.549-2.049
		l0.406-0.234c-0.117-0.731-0.117-1.47,0-2.201l-0.406-0.235c-0.716-0.413-0.962-1.332-0.549-2.049l1-1.732
		C1.906,9.922,2.405,9.635,2.94,9.635c0.262,0,0.521,0.069,0.748,0.201l0.4,0.231c0.576-0.469,1.218-0.838,1.913-1.101V8.5
		c0-0.827,0.673-1.5,1.5-1.5h2c0.827,0,1.5,0.673,1.5,1.5v0.47c0.692,0.264,1.333,0.632,1.909,1.099l0.403-0.233
		c0.228-0.131,0.486-0.201,0.748-0.201c0.536,0,1.034,0.287,1.301,0.75l1,1.732c0.413,0.716,0.167,1.635-0.549,2.049L15.408,14.4
		c0.118,0.731,0.118,1.471,0,2.203l0.404,0.233c0.347,0.2,0.595,0.524,0.699,0.911c0.104,0.387,0.051,0.792-0.15,1.138l-1,1.732
		c-0.2,0.347-0.524,0.595-0.911,0.699c-0.127,0.034-0.259,0.052-0.39,0.052c-0.26,0-0.519-0.07-0.748-0.202l-0.4-0.231
		c-0.576,0.468-1.218,0.837-1.912,1.1V22.5c0,0.827-0.673,1.5-1.5,1.5H7.501z M4.146,19.823c0.124,0,0.243,0.046,0.335,0.128
		c0.632,0.569,1.364,0.99,2.174,1.252c0.207,0.066,0.346,0.258,0.346,0.476V22.5c0,0.276,0.224,0.5,0.5,0.5h2
		c0.276,0,0.5-0.224,0.5-0.5v-0.82c0-0.218,0.14-0.409,0.347-0.476c0.811-0.26,1.542-0.681,2.174-1.25
		c0.092-0.083,0.211-0.129,0.335-0.129c0.088,0,0.174,0.023,0.25,0.067l0.706,0.408c0.076,0.044,0.162,0.067,0.249,0.067
		c0.179,0,0.345-0.096,0.434-0.25l1-1.732c0.138-0.239,0.056-0.545-0.183-0.683l-0.711-0.41c-0.188-0.109-0.284-0.325-0.239-0.538
		c0.178-0.831,0.178-1.674,0-2.505c-0.046-0.213,0.05-0.429,0.238-0.538l0.711-0.411c0.239-0.138,0.321-0.445,0.183-0.683l-1-1.732
		c-0.067-0.116-0.175-0.198-0.303-0.233c-0.043-0.012-0.087-0.017-0.131-0.017c-0.086,0-0.172,0.023-0.248,0.067l-0.708,0.409
		c-0.075,0.044-0.162,0.067-0.25,0.067c-0.123,0-0.241-0.045-0.333-0.127c-0.634-0.569-1.365-0.989-2.175-1.251
		c-0.207-0.067-0.346-0.258-0.346-0.476V8.5c0-0.276-0.224-0.5-0.5-0.5h-2c-0.276,0-0.5,0.224-0.5,0.5v0.821
		c0,0.218-0.14,0.41-0.347,0.476c-0.81,0.259-1.542,0.68-2.173,1.251c-0.093,0.083-0.212,0.129-0.335,0.129
		c-0.088,0-0.174-0.023-0.25-0.067l-0.707-0.408c-0.076-0.044-0.162-0.067-0.249-0.067c-0.179,0-0.345,0.096-0.434,0.25l-1,1.731
		c-0.067,0.115-0.084,0.25-0.05,0.379c0.035,0.129,0.117,0.237,0.233,0.303L2.4,13.711c0.188,0.109,0.284,0.325,0.239,0.538
		c-0.178,0.83-0.178,1.673,0,2.503c0.046,0.213-0.051,0.429-0.239,0.538l-0.712,0.411c-0.239,0.138-0.321,0.444-0.183,0.683l1,1.732
		c0.067,0.116,0.174,0.198,0.303,0.233c0.043,0.011,0.087,0.017,0.131,0.017c0.086,0,0.172-0.023,0.249-0.067l0.708-0.409
		C3.972,19.846,4.058,19.823,4.146,19.823z"/>
	<path d="M19.001,7.001c-1.103,0-2-0.897-2-2s0.897-2,2-2s2,0.897,2,2S20.104,7.001,19.001,7.001z M19.001,4.001
		c-0.552,0-1,0.449-1,1s0.448,1,1,1s1-0.449,1-1S19.552,4.001,19.001,4.001z"/>
	<path d="M18.501,10c-0.552,0-1-0.449-1-1V8.701c-0.343-0.14-0.662-0.326-0.953-0.555l-0.257,0.149
		c-0.16,0.092-0.332,0.138-0.506,0.138c-0.357,0-0.69-0.192-0.868-0.501l-0.5-0.867c-0.133-0.231-0.169-0.5-0.1-0.758
		s0.234-0.474,0.466-0.607l0.265-0.153c-0.051-0.365-0.051-0.733,0-1.098l-0.26-0.15c-0.231-0.133-0.397-0.349-0.467-0.607
		c-0.069-0.258-0.034-0.528,0.099-0.759l0.5-0.867c0.135-0.233,0.351-0.398,0.609-0.467c0.085-0.023,0.172-0.034,0.259-0.034
		c0.175,0,0.347,0.047,0.5,0.135l0.261,0.151c0.291-0.226,0.609-0.41,0.951-0.549V1c0-0.551,0.448-1,1-1h1c0.552,0,1,0.449,1,1
		v0.304c0.341,0.14,0.658,0.325,0.948,0.553l0.262-0.152c0.005-0.003,0.026-0.014,0.031-0.017c0.13-0.076,0.297-0.12,0.469-0.12
		c0.089,0,0.178,0.012,0.264,0.035c0.258,0.069,0.473,0.235,0.607,0.466l0.5,0.867c0.133,0.231,0.169,0.5,0.1,0.758
		s-0.234,0.474-0.466,0.607l-0.266,0.153c0.053,0.364,0.055,0.731,0.006,1.095l0.261,0.152c0.23,0.133,0.395,0.348,0.464,0.606
		c0.069,0.258,0.033,0.527-0.1,0.759l-0.496,0.859c-0.184,0.317-0.516,0.508-0.872,0.508l0,0c-0.175,0-0.348-0.047-0.5-0.135
		l-0.262-0.151c-0.291,0.227-0.609,0.411-0.95,0.55V9c0,0.551-0.448,1-1,1H18.501z M16.605,7.035c0.13,0,0.252,0.049,0.346,0.139
		c0.336,0.321,0.749,0.561,1.194,0.695c0.213,0.064,0.356,0.256,0.356,0.479V9h1V8.345c0-0.223,0.143-0.415,0.356-0.479
		c0.444-0.133,0.857-0.372,1.194-0.691c0.093-0.088,0.215-0.137,0.344-0.137c0.088,0,0.175,0.023,0.25,0.068l0.568,0.329
		l0.501-0.867L22.15,6.238c-0.191-0.111-0.285-0.33-0.236-0.545c0.104-0.451,0.101-0.926-0.009-1.375
		c-0.052-0.215,0.045-0.442,0.236-0.552l0.574-0.331l-0.501-0.867l-0.573,0.332c-0.076,0.044-0.163,0.067-0.25,0.067
		c-0.129,0-0.252-0.049-0.345-0.138c-0.335-0.321-0.747-0.561-1.19-0.695c-0.212-0.064-0.355-0.256-0.355-0.479V1h-1v0.656
		c0,0.222-0.143,0.415-0.356,0.479c-0.445,0.134-0.858,0.372-1.196,0.691c-0.094,0.088-0.215,0.136-0.343,0.136
		c-0.088,0-0.175-0.023-0.25-0.067l-0.568-0.329l-0.5,0.867l0.568,0.327c0.19,0.11,0.287,0.336,0.237,0.549
		c-0.108,0.451-0.108,0.927,0,1.378c0.051,0.214-0.046,0.439-0.236,0.549l-0.572,0.33l0.5,0.867l0.571-0.331
		C16.431,7.058,16.517,7.035,16.605,7.035z"/>
</g>
</svg>
