<?xml version="1.0" encoding="utf-8"?>
<!-- Generator: Adobe Illustrator 22.1.0, SVG Export Plug-In . SVG Version: 6.00 Build 0)  -->
<svg version="1.1" id="Layer_1" xmlns="http://www.w3.org/2000/svg" xmlns:xlink="http://www.w3.org/1999/xlink" x="0px" y="0px"
	 viewBox="0 0 24 24" style="enable-background:new 0 0 24 24;" xml:space="preserve">
<g>
	<title>cog-hand-give-1</title>
	<path d="M0.5,24.001c-0.276,0-0.5-0.224-0.5-0.5v-8c0-0.276,0.224-0.5,0.5-0.5s0.5,0.224,0.5,0.5V16h4.75c1.74,0,3.219,1.3,3.464,3
		H12.5c1.93,0,3.5,1.57,3.5,3.5c0,0.276-0.224,0.5-0.5,0.5H1v0.501C1,23.777,0.776,24.001,0.5,24.001z M14.95,22
		c-0.235-1.141-1.261-2-2.449-2H9.522c-0.007,0.001-0.015,0.001-0.021,0.001H5.75c-0.276,0-0.5-0.224-0.5-0.5s0.224-0.5,0.5-0.5
		h2.448C7.964,17.859,6.938,17,5.75,17H1v5H14.95z"/>
	<path d="M17.75,8.907c-1.068,0-1.937-0.869-1.937-1.937s0.869-1.937,1.937-1.937s1.937,0.869,1.937,1.937S18.818,8.907,17.75,8.907
		z M17.75,6.033c-0.517,0-0.937,0.42-0.937,0.937s0.42,0.937,0.937,0.937s0.937-0.42,0.937-0.937S18.267,6.033,17.75,6.033z"/>
	<path d="M17.754,13.933c-0.172,0-0.343-0.025-0.51-0.075c-0.573-0.172-1.017-0.617-1.189-1.189l-0.424-1.39
		c-0.057-0.191-0.235-0.323-0.433-0.323c-0.033,0-0.067,0.004-0.1,0.011l-1.412,0.327c-0.132,0.03-0.265,0.045-0.397,0.045
		c-0.335,0-0.664-0.096-0.95-0.276c-0.403-0.255-0.682-0.651-0.787-1.115c-0.13-0.575,0.033-1.176,0.434-1.607l0.987-1.064
		c0.16-0.173,0.16-0.447-0.001-0.621l-0.987-1.064c-0.669-0.719-0.629-1.849,0.09-2.519c0.331-0.309,0.763-0.478,1.215-0.478
		c0.132,0,0.264,0.015,0.392,0.044L15.1,2.966c0.029,0.006,0.061,0.01,0.092,0.01c0.198,0,0.377-0.132,0.435-0.321l0.424-1.393
		c0.224-0.743,0.923-1.262,1.7-1.262c0.173,0,0.344,0.025,0.511,0.076c0.572,0.172,1.016,0.616,1.188,1.188l0.428,1.388
		c0.058,0.191,0.237,0.324,0.436,0.324c0.033,0,0.066-0.004,0.099-0.011l1.41-0.328c0.132-0.03,0.266-0.045,0.398-0.045
		c0.335,0,0.664,0.096,0.949,0.276c0.403,0.254,0.682,0.65,0.787,1.115c0.13,0.575-0.033,1.176-0.435,1.607l-0.987,1.064
		c-0.16,0.173-0.159,0.447,0.001,0.621l0.987,1.064C23.848,8.689,24.017,9.143,24,9.619c-0.017,0.476-0.218,0.917-0.567,1.242
		c-0.331,0.308-0.762,0.478-1.214,0.478l0,0c-0.132,0-0.264-0.015-0.393-0.044l-1.415-0.328c-0.032-0.007-0.066-0.011-0.1-0.011
		c-0.198,0-0.376,0.132-0.433,0.321l-0.425,1.394C19.231,13.414,18.532,13.933,17.754,13.933z M15.198,9.956
		c0.636,0,1.208,0.425,1.391,1.033l0.424,1.39c0.075,0.251,0.269,0.446,0.519,0.521c0.073,0.022,0.148,0.033,0.223,0.033
		c0.339,0,0.644-0.227,0.742-0.552l0.425-1.394c0.183-0.607,0.754-1.032,1.39-1.032c0.109,0,0.218,0.012,0.325,0.037l1.413,0.327
		c0.055,0.012,0.112,0.019,0.17,0.019c0.198,0,0.388-0.075,0.533-0.21c0.153-0.143,0.241-0.336,0.249-0.545
		c0.007-0.209-0.067-0.409-0.209-0.562l-0.989-1.066c-0.511-0.555-0.511-1.424-0.001-1.978l0.99-1.067
		c0.177-0.19,0.249-0.454,0.192-0.706c-0.046-0.204-0.168-0.378-0.345-0.49c-0.126-0.079-0.27-0.121-0.417-0.121
		c-0.058,0-0.117,0.007-0.174,0.02L20.638,3.94c-0.107,0.024-0.215,0.037-0.323,0.037c-0.636,0-1.209-0.424-1.393-1.032
		l-0.428-1.388c-0.076-0.254-0.27-0.448-0.52-0.523c-0.073-0.022-0.148-0.033-0.224-0.033c-0.339,0-0.644,0.227-0.742,0.552
		l-0.424,1.394c-0.184,0.606-0.757,1.03-1.392,1.03c-0.105,0-0.211-0.012-0.314-0.035l-1.417-0.329
		c-0.054-0.012-0.112-0.019-0.169-0.019c-0.198,0-0.388,0.075-0.533,0.21c-0.316,0.294-0.333,0.791-0.04,1.107l0.989,1.066
		c0.511,0.556,0.511,1.424,0.001,1.979L12.72,9.021c-0.177,0.19-0.249,0.454-0.192,0.706c0.046,0.204,0.169,0.378,0.345,0.49
		c0.126,0.08,0.27,0.122,0.416,0.122c0.058,0,0.117-0.007,0.174-0.02l1.41-0.326C14.981,9.969,15.09,9.956,15.198,9.956z"/>
</g>
</svg>
