<?xml version="1.0" encoding="utf-8"?>
<!-- Generator: Adobe Illustrator 22.1.0, SVG Export Plug-In . SVG Version: 6.00 Build 0)  -->
<svg version="1.1" id="Layer_1" xmlns="http://www.w3.org/2000/svg" xmlns:xlink="http://www.w3.org/1999/xlink" x="0px" y="0px"
	 viewBox="0 0 24 24" style="enable-background:new 0 0 24 24;" xml:space="preserve">
<g>
	<title>cog-2</title>
	<path d="M12,15.001c-1.654,0-3-1.346-3-3c0-1.654,1.346-3,3-3c1.654,0,3,1.346,3,3C15,13.655,13.654,15.001,12,15.001z M12,10.001
		c-1.103,0-2,0.897-2,2s0.897,2,2,2s2-0.897,2-2S13.103,10.001,12,10.001z"/>
	<path d="M12,24.001c-0.276,0-0.5-0.224-0.5-0.5v-3.017c-1.904-0.112-3.713-0.862-5.142-2.134l-2.136,2.136
		c-0.094,0.094-0.22,0.146-0.354,0.146s-0.259-0.052-0.354-0.146s-0.146-0.22-0.146-0.354s0.052-0.259,0.146-0.354l2.136-2.136
		c-1.271-1.429-2.022-3.238-2.133-5.142H0.5c-0.276,0-0.5-0.224-0.5-0.5c0-0.276,0.224-0.5,0.5-0.5h3.017
		c0.112-1.904,0.862-3.713,2.133-5.142L3.515,4.223C3.42,4.128,3.368,4.003,3.368,3.869S3.42,3.61,3.515,3.516
		s0.22-0.146,0.354-0.146s0.259,0.052,0.354,0.146l2.136,2.136C7.787,4.38,9.596,3.63,11.5,3.518V0.501c0-0.276,0.224-0.5,0.5-0.5
		c0.276,0,0.5,0.224,0.5,0.5v3.017c1.904,0.112,3.713,0.862,5.142,2.133l2.136-2.136c0.094-0.094,0.22-0.146,0.354-0.146
		s0.259,0.052,0.354,0.146c0.195,0.195,0.195,0.512,0,0.707l-2.136,2.136c1.271,1.429,2.022,3.238,2.134,5.142H23.5
		c0.276,0,0.5,0.224,0.5,0.5c0,0.276-0.224,0.5-0.5,0.5h-3.017c-0.112,1.904-0.862,3.713-2.134,5.142l2.136,2.136
		c0.195,0.195,0.195,0.512,0,0.707c-0.094,0.094-0.22,0.146-0.354,0.146s-0.259-0.052-0.354-0.146l-2.136-2.136
		c-1.429,1.271-3.238,2.022-5.142,2.134v3.017C12.5,23.777,12.276,24.001,12,24.001z M12,4.501c-4.135,0-7.5,3.365-7.5,7.5
		s3.365,7.5,7.5,7.5s7.5-3.365,7.5-7.5S16.135,4.501,12,4.501z"/>
</g>
</svg>
