<?xml version="1.0" encoding="utf-8"?>
<!-- Generator: Adobe Illustrator 22.1.0, SVG Export Plug-In . SVG Version: 6.00 Build 0)  -->
<svg version="1.1" id="Layer_1" xmlns="http://www.w3.org/2000/svg" xmlns:xlink="http://www.w3.org/1999/xlink" x="0px" y="0px"
	 viewBox="0 0 24 24" style="enable-background:new 0 0 24 24;" xml:space="preserve">
<g>
	<title>cog-search</title>
	<path d="M23.5,24.001c-0.134,0-0.259-0.052-0.354-0.146l-5.59-5.589c-1.94,1.766-4.436,2.735-7.057,2.735
		c-5.79,0-10.5-4.71-10.5-10.5c0-5.79,4.71-10.5,10.5-10.5c5.79,0,10.5,4.71,10.5,10.5c0,2.621-0.97,5.118-2.736,7.058l5.59,5.589
		C23.948,23.242,24,23.367,24,23.501s-0.052,0.259-0.146,0.354S23.634,24.001,23.5,24.001z M10.5,1.001c-5.238,0-9.5,4.262-9.5,9.5
		s4.262,9.5,9.5,9.5s9.5-4.262,9.5-9.5S15.738,1.001,10.5,1.001z"/>
	<path d="M10,17.5c-0.827,0-1.5-0.673-1.5-1.5v-0.378c-0.51-0.203-0.997-0.488-1.424-0.833l-0.337,0.194
		c-0.228,0.131-0.486,0.2-0.748,0.2c-0.536,0-1.034-0.287-1.301-0.75l-0.5-0.866c-0.2-0.348-0.253-0.752-0.149-1.139
		s0.353-0.71,0.7-0.91l0.345-0.199c-0.081-0.538-0.081-1.096,0-1.634l-0.35-0.202c-0.346-0.2-0.594-0.523-0.698-0.911
		S3.987,7.781,4.187,7.434l0.5-0.866c0.267-0.463,0.766-0.751,1.302-0.751c0.262,0,0.52,0.069,0.747,0.2l0.346,0.2
		C7.508,5.874,7.992,5.591,8.5,5.387V5c0-0.827,0.673-1.5,1.5-1.5h1c0.827,0,1.5,0.673,1.5,1.5v0.379
		c0.511,0.203,0.999,0.488,1.426,0.834l0.337-0.194c0.228-0.131,0.486-0.201,0.748-0.201c0.536,0,1.034,0.287,1.301,0.75l0.5,0.866
		c0.413,0.716,0.167,1.636-0.549,2.049l-0.346,0.2c0.08,0.538,0.08,1.096-0.002,1.634l0.348,0.201
		c0.716,0.414,0.962,1.333,0.549,2.049l-0.5,0.866c-0.267,0.462-0.766,0.75-1.302,0.75l0,0c-0.262,0-0.52-0.069-0.747-0.2
		l-0.343-0.198c-0.426,0.343-0.911,0.627-1.42,0.83V16c0,0.827-0.673,1.5-1.5,1.5H10z M7.134,13.678
		c0.127,0,0.248,0.048,0.341,0.134c0.477,0.444,1.057,0.783,1.678,0.982C9.36,14.86,9.5,15.051,9.5,15.27V16
		c0,0.276,0.224,0.5,0.5,0.5h1c0.276,0,0.5-0.224,0.5-0.5v-0.737c0-0.218,0.139-0.409,0.346-0.476
		c0.62-0.199,1.199-0.539,1.676-0.981c0.093-0.086,0.214-0.133,0.34-0.133c0.088,0,0.174,0.023,0.25,0.067l0.65,0.376
		c0.076,0.044,0.162,0.067,0.249,0.067c0.179,0,0.345-0.096,0.434-0.25l0.5-0.866c0.138-0.239,0.056-0.545-0.183-0.683l-0.655-0.378
		c-0.19-0.11-0.286-0.328-0.238-0.543c0.142-0.631,0.143-1.298,0.003-1.929c-0.047-0.214,0.049-0.432,0.238-0.541l0.652-0.376
		c0.115-0.067,0.198-0.174,0.233-0.303c0.034-0.129,0.017-0.264-0.05-0.379l-0.5-0.866c-0.089-0.154-0.255-0.25-0.434-0.25
		c-0.087,0-0.173,0.023-0.249,0.067l-0.645,0.372c-0.076,0.044-0.162,0.067-0.25,0.067c-0.127,0-0.248-0.047-0.341-0.134
		c-0.477-0.444-1.058-0.784-1.679-0.983C11.64,6.141,11.5,5.949,11.5,5.731V5c0-0.276-0.224-0.5-0.5-0.5h-1
		C9.724,4.5,9.5,4.724,9.5,5v0.738c0,0.218-0.139,0.409-0.346,0.476c-0.619,0.2-1.198,0.539-1.675,0.981
		c-0.093,0.086-0.214,0.133-0.34,0.133c-0.088,0-0.174-0.023-0.25-0.067L6.236,6.884C6.16,6.84,6.075,6.817,5.988,6.817
		c-0.179,0-0.346,0.096-0.435,0.25l-0.5,0.866c-0.067,0.115-0.084,0.25-0.05,0.379C5.038,8.443,5.121,8.55,5.236,8.617l0.656,0.379
		c0.19,0.11,0.285,0.327,0.238,0.541c-0.141,0.631-0.141,1.299,0,1.93c0.048,0.214-0.048,0.432-0.238,0.542L5.24,12.385
		c-0.116,0.067-0.199,0.174-0.233,0.303c-0.035,0.129-0.017,0.264,0.05,0.379l0.5,0.866c0.089,0.154,0.255,0.25,0.434,0.25
		c0.087,0,0.173-0.023,0.249-0.067l0.645-0.372C6.96,13.701,7.046,13.678,7.134,13.678z"/>
	<path d="M10.5,13.001c-1.379,0-2.5-1.121-2.5-2.5s1.121-2.5,2.5-2.5s2.5,1.121,2.5,2.5S11.879,13.001,10.5,13.001z M10.5,9.001
		c-0.827,0-1.5,0.673-1.5,1.5s0.673,1.5,1.5,1.5s1.5-0.673,1.5-1.5S11.327,9.001,10.5,9.001z"/>
</g>
</svg>
