<?xml version="1.0" encoding="utf-8"?>
<!-- Generator: Adobe Illustrator 22.1.0, SVG Export Plug-In . SVG Version: 6.00 Build 0)  -->
<svg version="1.1" id="Layer_1" xmlns="http://www.w3.org/2000/svg" xmlns:xlink="http://www.w3.org/1999/xlink" x="0px" y="0px"
	 viewBox="0 0 24 24" style="enable-background:new 0 0 24 24;" xml:space="preserve">
<g>
	<title>wench-double</title>
	<path d="M4.497,23.999c-0.639,0-1.261-0.134-1.847-0.399c-0.15-0.067-0.257-0.204-0.286-0.366
		c-0.029-0.162,0.022-0.327,0.138-0.443l2-2.002v-1.293H3.209l-2,2.002c-0.093,0.093-0.222,0.147-0.353,0.147
		c-0.031,0-0.062-0.003-0.094-0.009C0.605,21.607,0.468,21.5,0.4,21.35c-0.532-1.178-0.533-2.529,0-3.707
		c0.727-1.608,2.339-2.646,4.107-2.646c0.521,0,1.032,0.09,1.521,0.267l3.267-3.266L6.028,8.732C5.538,8.909,5.025,8.999,4.5,8.999
		c-0.644,0-1.268-0.134-1.854-0.4c-1.094-0.494-1.93-1.387-2.354-2.513S-0.094,3.739,0.4,2.645c0.068-0.15,0.204-0.256,0.366-0.286
		c0.03-0.005,0.06-0.008,0.09-0.008c0.134,0,0.259,0.052,0.354,0.146l2,1.999h1.293V3.204l-2-1.999
		C2.386,1.089,2.335,0.923,2.364,0.762C2.393,0.6,2.5,0.463,2.65,0.396c0.586-0.265,1.21-0.399,1.854-0.399
		c0.644,0,1.267,0.134,1.854,0.399c2.157,0.975,3.179,3.423,2.379,5.629l3.267,3.265l3.266-3.265
		C14.873,4.93,14.919,3.707,15.4,2.643c0.495-1.095,1.387-1.932,2.511-2.357c0.514-0.194,1.049-0.292,1.591-0.292
		c0.639,0,1.261,0.135,1.852,0.402c0.15,0.068,0.257,0.205,0.286,0.366c0.03,0.161-0.022,0.327-0.139,0.443l-1.999,1.999v1.293
		h1.293l2-1.999c0.093-0.093,0.222-0.146,0.354-0.146c0.03,0,0.06,0.003,0.09,0.008c0.162,0.03,0.298,0.136,0.366,0.286
		c0.533,1.178,0.533,2.529,0,3.707c-0.495,1.095-1.387,1.932-2.511,2.357c-0.514,0.194-1.049,0.292-1.591,0.292
		c-0.521,0-1.034-0.091-1.527-0.269l-3.265,3.265l3.266,3.266c0.491-0.177,1.004-0.267,1.528-0.267c0.644,0,1.268,0.135,1.854,0.4
		c1.095,0.495,1.932,1.387,2.356,2.512c0.425,1.125,0.385,2.347-0.11,3.442c-0.067,0.149-0.204,0.256-0.366,0.286
		c-0.028,0.006-0.06,0.009-0.091,0.009c-0.132,0-0.257-0.052-0.352-0.147l-2-2h-1.293v1.293l2,2
		c0.116,0.116,0.168,0.282,0.138,0.444c-0.029,0.161-0.136,0.298-0.286,0.365c-0.586,0.265-1.209,0.399-1.853,0.399
		s-1.268-0.135-1.854-0.4c-2.157-0.975-3.179-3.423-2.379-5.629l-3.266-3.265l-3.267,3.267c0.395,1.095,0.349,2.318-0.132,3.382
		C7.877,22.96,6.265,23.999,4.497,23.999z M3.782,22.925c0.235,0.049,0.474,0.074,0.715,0.074c1.376,0,2.63-0.808,3.196-2.059
		c0.414-0.916,0.414-1.967,0-2.883c-0.085-0.189-0.044-0.414,0.102-0.56l3.84-3.839c0.005-0.006,0.009-0.011,0.014-0.016
		c0.005-0.005,0.01-0.01,0.016-0.015l1.968-1.968c0.002-0.003,0.005-0.006,0.007-0.009c0.008-0.009,0.017-0.017,0.026-0.025
		l3.836-3.836c0.095-0.094,0.22-0.146,0.354-0.146c0.071,0,0.141,0.015,0.206,0.044c0.459,0.207,0.943,0.312,1.44,0.312
		c0.421,0,0.838-0.077,1.238-0.227c0.874-0.33,1.568-0.981,1.953-1.833c0.309-0.683,0.389-1.438,0.236-2.163L21.355,5.35
		c-0.093,0.093-0.222,0.146-0.354,0.146h-2c-0.276,0-0.5-0.224-0.5-0.5v-2c0-0.134,0.052-0.259,0.146-0.354l1.573-1.573
		c-0.236-0.05-0.477-0.076-0.719-0.076c-0.421,0-0.838,0.077-1.238,0.228c-0.875,0.33-1.568,0.981-1.953,1.833
		c-0.414,0.916-0.414,1.967,0,2.883c0.085,0.188,0.044,0.413-0.102,0.56l-9.708,9.707c-0.095,0.094-0.22,0.146-0.354,0.146
		c-0.071,0-0.141-0.015-0.206-0.044c-0.456-0.206-0.939-0.31-1.436-0.31c-1.376,0-2.63,0.808-3.195,2.059
		c-0.309,0.683-0.389,1.437-0.236,2.162l1.573-1.574c0.095-0.094,0.22-0.146,0.354-0.146h2c0.276,0,0.5,0.224,0.5,0.5v2
		c0,0.132-0.053,0.26-0.146,0.354L3.782,22.925z M16.209,17.497c0.146,0.146,0.188,0.371,0.102,0.56
		c-0.385,0.852-0.416,1.802-0.085,2.677c0.33,0.875,0.981,1.569,1.833,1.954c0.456,0.206,0.941,0.311,1.442,0.311
		c0.243,0,0.484-0.025,0.72-0.075l-1.573-1.573c-0.094-0.094-0.146-0.22-0.146-0.354v-2c0-0.276,0.224-0.5,0.5-0.5h2
		c0.134,0,0.259,0.052,0.354,0.146l1.574,1.575c0.14-0.651,0.089-1.321-0.152-1.958c-0.33-0.875-0.981-1.569-1.833-1.954
		c-0.456-0.206-0.941-0.311-1.442-0.311c-0.5,0-0.986,0.104-1.441,0.31c-0.066,0.03-0.135,0.044-0.206,0.044
		c-0.134,0-0.259-0.052-0.354-0.146l-3.5-3.5l-1.293,1.293L16.209,17.497z M6.148,7.644c0.133,0,0.259,0.052,0.353,0.146
		l3.501,3.499l1.293-1.293L7.794,6.498c-0.146-0.146-0.187-0.371-0.102-0.56c0.385-0.852,0.416-1.803,0.086-2.677
		c-0.33-0.875-0.981-1.568-1.833-1.954C5.489,1.101,5.004,0.996,4.503,0.996c-0.243,0-0.484,0.025-0.72,0.075l1.572,1.572
		c0.094,0.094,0.146,0.22,0.146,0.354v2c0,0.276-0.224,0.5-0.5,0.5h-2c-0.134,0-0.259-0.052-0.354-0.146L1.075,3.777
		C0.734,5.37,1.537,7,3.059,7.688C3.515,7.895,4,7.999,4.501,7.999s0.985-0.104,1.441-0.311C6.007,7.659,6.076,7.644,6.148,7.644z"
		/>
</g>
</svg>
