<?xml version="1.0" encoding="utf-8"?>
<!-- Generator: Adobe Illustrator 22.1.0, SVG Export Plug-In . SVG Version: 6.00 Build 0)  -->
<svg version="1.1" id="Layer_1" xmlns="http://www.w3.org/2000/svg" xmlns:xlink="http://www.w3.org/1999/xlink" x="0px" y="0px"
	 viewBox="0 0 24 24" style="enable-background:new 0 0 24 24;" xml:space="preserve">
<title>focus-auto</title>
<g>
	<path d="M12,23.795c-0.602,0-1.167-0.234-1.591-0.658L8.272,21H5.25C4.009,21,3,19.99,3,18.75v-3.021l-2.137-2.137
		c-0.877-0.877-0.877-2.304,0-3.182L3,8.272V5.25C3,4.009,4.009,3,5.25,3h3.022l2.136-2.137C10.84,0.435,11.402,0.204,12,0.204
		c0.602,0,1.167,0.234,1.591,0.659L15.728,3h3.022C19.991,3,21,4.009,21,5.25v3.022l2.137,2.137c0.877,0.877,0.877,2.304,0,3.182
		L21,15.728v3.021C21,19.99,19.991,21,18.75,21h-3.022l-2.136,2.137C13.167,23.561,12.602,23.795,12,23.795z M5.25,4.5
		C4.836,4.5,4.5,4.836,4.5,5.25v3.333c0,0.2-0.078,0.389-0.22,0.53L1.923,11.47c-0.292,0.292-0.292,0.768,0,1.061l2.357,2.357
		c0.14,0.14,0.22,0.333,0.22,0.53v3.332c0,0.414,0.336,0.75,0.75,0.75h3.333c0.2,0,0.389,0.078,0.53,0.22l2.356,2.357
		c0.141,0.142,0.33,0.219,0.53,0.219c0.201,0,0.389-0.078,0.53-0.219l2.356-2.357c0.14-0.14,0.333-0.22,0.53-0.22h3.333
		c0.414,0,0.75-0.336,0.75-0.75v-3.332c0-0.198,0.08-0.391,0.22-0.53l2.357-2.357c0.292-0.292,0.292-0.768,0-1.061L19.72,9.113
		c-0.142-0.142-0.22-0.33-0.22-0.53V5.25c0-0.414-0.336-0.75-0.75-0.75h-3.333c-0.198,0-0.391-0.08-0.53-0.22l-2.356-2.357
		C12.389,1.781,12.201,1.703,12,1.703c-0.2,0-0.389,0.078-0.53,0.219L9.114,4.28C8.972,4.422,8.783,4.5,8.583,4.5H5.25z"/>
	<path d="M14.25,18c-0.414,0-0.75-0.336-0.75-0.75V13.5h-3v3.75c0,0.414-0.336,0.75-0.75,0.75S9,17.663,9,17.25v-9
		c0-1.654,1.346-3,3-3c1.654,0,3,1.346,3,3v9C15,17.663,14.664,18,14.25,18z M13.5,12V8.25c0-0.827-0.673-1.5-1.5-1.5
		s-1.5,0.673-1.5,1.5V12H13.5z"/>
</g>
</svg>
