<?xml version="1.0" encoding="utf-8"?>
<!-- Generator: Adobe Illustrator 22.1.0, SVG Export Plug-In . SVG Version: 6.00 Build 0)  -->
<svg version="1.1" id="Layer_1" xmlns="http://www.w3.org/2000/svg" xmlns:xlink="http://www.w3.org/1999/xlink" x="0px" y="0px"
	 viewBox="0 0 24 24" style="enable-background:new 0 0 24 24;" xml:space="preserve">
<title>focus</title>
<g>
	<path d="M3.75,22.5C1.682,22.5,0,20.818,0,18.75V5.25C0,3.182,1.682,1.5,3.75,1.5h16.5C22.318,1.5,24,3.182,24,5.25v13.5
		c0,2.068-1.682,3.75-3.75,3.75H3.75z M3.75,3C2.509,3,1.5,4.009,1.5,5.25v13.5C1.5,19.991,2.509,21,3.75,21h16.5
		c1.241,0,2.25-1.009,2.25-2.25V5.25C22.5,4.009,21.491,3,20.25,3H3.75z"/>
	<path d="M12,16.5c-2.481,0-4.5-2.019-4.5-4.5c0-2.481,2.019-4.5,4.5-4.5c2.481,0,4.5,2.019,4.5,4.5
		C16.5,14.481,14.481,16.5,12,16.5z M12,9c-1.654,0-3,1.346-3,3c0,1.654,1.346,3,3,3c1.654,0,3-1.346,3-3C15,10.346,13.654,9,12,9z"
		/>
	<path d="M17.651,18.75c-0.206,0-0.406-0.086-0.547-0.237c-0.137-0.146-0.209-0.337-0.203-0.537c0.006-0.2,0.09-0.386,0.236-0.523
		c1.457-1.366,2.294-3.217,2.359-5.213c0.064-1.995-0.653-3.897-2.018-5.353c-0.11-0.117-0.224-0.232-0.34-0.34
		c-0.302-0.282-0.318-0.758-0.035-1.06c0.142-0.151,0.341-0.238,0.548-0.238c0.191,0,0.373,0.072,0.513,0.203
		c0.138,0.129,0.276,0.267,0.408,0.408c1.64,1.749,2.5,4.031,2.423,6.427c-0.077,2.396-1.083,4.618-2.831,6.258
		C18.024,18.678,17.842,18.75,17.651,18.75z"/>
	<path d="M6.349,18.75c-0.191,0-0.373-0.072-0.512-0.202c-0.14-0.131-0.277-0.268-0.409-0.408c-1.637-1.746-2.497-4.029-2.419-6.428
		S4.09,7.09,5.836,5.453C5.975,5.322,6.158,5.25,6.349,5.25c0.207,0,0.406,0.086,0.547,0.237c0.137,0.146,0.209,0.337,0.203,0.537
		c-0.006,0.2-0.091,0.386-0.237,0.523C5.406,7.913,4.568,9.764,4.504,11.76c-0.064,1.996,0.653,3.897,2.018,5.353
		c0.109,0.117,0.224,0.231,0.34,0.34c0.146,0.137,0.23,0.323,0.237,0.523c0.006,0.2-0.066,0.391-0.203,0.537
		C6.755,18.663,6.556,18.75,6.349,18.75z"/>
</g>
</svg>
