<?xml version="1.0" encoding="utf-8"?>
<!-- Generator: Adobe Illustrator 22.1.0, SVG Export Plug-In . SVG Version: 6.00 Build 0)  -->
<svg version="1.1" id="Layer_1" xmlns="http://www.w3.org/2000/svg" xmlns:xlink="http://www.w3.org/1999/xlink" x="0px" y="0px"
	 viewBox="0 0 24 24" style="enable-background:new 0 0 24 24;" xml:space="preserve">
<title>focus-eye</title>
<g>
	<path d="M12,17.25c-4.847,0-7.993-4.637-8.124-4.834c-0.168-0.253-0.168-0.579,0-0.832C4.008,11.387,7.155,6.75,12,6.75
		c4.848,0,7.993,4.637,8.124,4.834c0.168,0.253,0.168,0.579,0,0.832C19.993,12.613,16.85,17.25,12,17.25z M5.436,12
		c0.888,1.118,3.323,3.75,6.564,3.75c3.24,0,5.676-2.632,6.564-3.75C17.676,10.881,15.24,8.25,12,8.25
		C8.759,8.25,6.324,10.881,5.436,12z"/>
	<path d="M12,14.625c-1.447,0-2.625-1.177-2.625-2.625c0-1.447,1.178-2.625,2.625-2.625c1.448,0,2.625,1.178,2.625,2.625
		C14.625,13.448,13.448,14.625,12,14.625z M12,10.875c-0.62,0-1.125,0.505-1.125,1.125S11.38,13.125,12,13.125
		S13.125,12.62,13.125,12S12.62,10.875,12,10.875z"/>
	<path d="M0.75,5.25C0.336,5.25,0,4.914,0,4.5V2.25C0,1.009,1.009,0,2.25,0H4.5c0.414,0,0.75,0.336,0.75,0.75S4.914,1.5,4.5,1.5
		H2.25C1.836,1.5,1.5,1.836,1.5,2.25V4.5C1.5,4.914,1.164,5.25,0.75,5.25z"/>
	<path d="M23.25,5.25c-0.414,0-0.75-0.336-0.75-0.75V2.25c0-0.414-0.336-0.75-0.75-0.75H19.5c-0.414,0-0.75-0.336-0.75-0.75
		S19.086,0,19.5,0h2.25C22.991,0,24,1.009,24,2.25V4.5C24,4.914,23.664,5.25,23.25,5.25z"/>
	<path d="M2.25,24C1.009,24,0,22.991,0,21.75V19.5c0-0.414,0.336-0.75,0.75-0.75S1.5,19.086,1.5,19.5v2.25
		c0,0.414,0.336,0.75,0.75,0.75H4.5c0.414,0,0.75,0.336,0.75,0.75S4.914,24,4.5,24H2.25z"/>
	<path d="M19.5,24c-0.414,0-0.75-0.336-0.75-0.75s0.336-0.75,0.75-0.75h2.25c0.414,0,0.75-0.336,0.75-0.75V19.5
		c0-0.414,0.336-0.75,0.75-0.75S24,19.086,24,19.5v2.25c0,1.241-1.009,2.25-2.25,2.25H19.5z"/>
</g>
</svg>
