<?xml version="1.0" encoding="utf-8"?>
<!-- Generator: Adobe Illustrator 22.1.0, SVG Export Plug-In . SVG Version: 6.00 Build 0)  -->
<svg version="1.1" id="Layer_1" xmlns="http://www.w3.org/2000/svg" xmlns:xlink="http://www.w3.org/1999/xlink" x="0px" y="0px"
	 viewBox="0 0 24 24" style="enable-background:new 0 0 24 24;" xml:space="preserve">
<title>focus-frame-target</title>
<g>
	<path d="M12,19.5c-0.414,0-0.75-0.336-0.75-0.75v-1.559C8.97,16.86,7.14,15.03,6.808,12.75H5.25c-0.414,0-0.75-0.336-0.75-0.75
		s0.336-0.75,0.75-0.75h1.558C7.14,8.97,8.97,7.14,11.25,6.808V5.25c0-0.414,0.336-0.75,0.75-0.75s0.75,0.336,0.75,0.75v1.558
		c2.28,0.331,4.11,2.161,4.441,4.442h1.559c0.414,0,0.75,0.336,0.75,0.75s-0.336,0.75-0.75,0.75h-1.559
		c-0.331,2.28-2.161,4.11-4.441,4.441v1.559C12.75,19.164,12.414,19.5,12,19.5z M12,8.25c-2.068,0-3.75,1.682-3.75,3.75
		c0,2.068,1.682,3.75,3.75,3.75c2.068,0,3.75-1.682,3.75-3.75C15.75,9.932,14.068,8.25,12,8.25z"/>
	<circle cx="12" cy="12" r="1.125"/>
	<path d="M0.75,5.25C0.336,5.25,0,4.914,0,4.5V2.25C0,1.009,1.009,0,2.25,0H4.5c0.414,0,0.75,0.336,0.75,0.75S4.914,1.5,4.5,1.5
		H2.25C1.836,1.5,1.5,1.836,1.5,2.25V4.5C1.5,4.914,1.164,5.25,0.75,5.25z"/>
	<path d="M23.25,5.25c-0.414,0-0.75-0.336-0.75-0.75V2.25c0-0.414-0.336-0.75-0.75-0.75H19.5c-0.414,0-0.75-0.336-0.75-0.75
		S19.086,0,19.5,0h2.25C22.991,0,24,1.009,24,2.25V4.5C24,4.914,23.664,5.25,23.25,5.25z"/>
	<path d="M2.25,24C1.009,24,0,22.991,0,21.75V19.5c0-0.414,0.336-0.75,0.75-0.75S1.5,19.086,1.5,19.5v2.25
		c0,0.414,0.336,0.75,0.75,0.75H4.5c0.414,0,0.75,0.336,0.75,0.75S4.914,24,4.5,24H2.25z"/>
	<path d="M19.5,24c-0.414,0-0.75-0.336-0.75-0.75s0.336-0.75,0.75-0.75h2.25c0.414,0,0.75-0.336,0.75-0.75V19.5
		c0-0.414,0.336-0.75,0.75-0.75S24,19.086,24,19.5v2.25c0,1.241-1.009,2.25-2.25,2.25H19.5z"/>
</g>
</svg>
