<svg xmlns="http://www.w3.org/2000/svg" viewBox="0 0 24 24"><title>book-search</title><path d="M22.957,23.707a1,1,0,0,0,0-1.414l-2.344-2.344a.5.5,0,0,1-.077-.609,5.48,5.48,0,0,0,.772-2.811,5.541,5.541,0,1,0-2.718,4.757.5.5,0,0,1,.609.077l2.344,2.344A1,1,0,0,0,22.957,23.707Zm-7.178-3.648a3.53,3.53,0,1,1,3.529-3.53A3.534,3.534,0,0,1,15.779,20.059Z"/><path d="M15.25,23.7a.25.25,0,0,0-.224-.248,7,7,0,1,1,4.827-12.624.247.247,0,0,0,.26.021.25.25,0,0,0,.137-.223V6a2,2,0,0,0-1.6-1.96.5.5,0,0,1-.4-.489V2a2,2,0,0,0-2-2H3.75a3,3,0,0,0-3,3V21a3,3,0,0,0,3,3H15a.25.25,0,0,0,.25-.25ZM2.75,3a1,1,0,0,1,1-1H16a.25.25,0,0,1,.25.25v1.5A.25.25,0,0,1,16,4H3.75A1,1,0,0,1,2.75,3Z"/></svg>