<svg xmlns="http://www.w3.org/2000/svg" viewBox="0 0 24 24"><title>book-address</title><path d="M20.15,4.04a.5.5,0,0,1-.4-.489V2a2,2,0,0,0-2-2H5.25a3,3,0,0,0-3,3V21a3,3,0,0,0,3,3h14.5a2,2,0,0,0,2-2V6A2,2,0,0,0,20.15,4.04ZM4.25,3a1,1,0,0,1,1-1H17.5a.25.25,0,0,1,.25.25v1.5A.25.25,0,0,1,17.5,4H5.25A1,1,0,0,1,4.25,3ZM17.824,19.984a.5.5,0,0,1-.384.18H6.56a.5.5,0,0,1-.493-.588,5.55,5.55,0,0,1,.486-1.5C7,17.18,8.125,16.63,10.181,15.868a1.084,1.084,0,0,0-.008-.749,5.177,5.177,0,0,1-1.115-3.575,2.946,2.946,0,1,1,5.884,0,5.2,5.2,0,0,1-1.132,3.6,1.042,1.042,0,0,0,.026.737c2.039.751,3.164,1.3,3.611,2.2a5.55,5.55,0,0,1,.486,1.5A.5.5,0,0,1,17.824,19.984Z"/></svg>