<svg xmlns="http://www.w3.org/2000/svg" viewBox="0 0 24 24"><title>radio-antenna-1</title><path d="M20.753,8.009a.261.261,0,0,1-.077-.018L1.38.075a1,1,0,0,0-.76,1.85L14.255,7.519a.25.25,0,0,1-.1.481H3.5A3.5,3.5,0,0,0,0,11.5v9A3.5,3.5,0,0,0,3.5,24h17A3.5,3.5,0,0,0,24,20.5v-9A3.5,3.5,0,0,0,20.753,8.009ZM20.5,12.491a2,2,0,1,1-2-2A2,2,0,0,1,20.5,12.491Zm0,4.018a.75.75,0,0,1,0,1.5h-4a.75.75,0,0,1,0-1.5Zm-4,2.991h4a.75.75,0,0,1,0,1.5h-4a.75.75,0,0,1,0-1.5ZM13.491,16A5.5,5.5,0,1,1,8,10.5,5.495,5.495,0,0,1,13.491,16Z"/><path d="M6.94,13a.75.75,0,0,0,.75.75H8.3a.75.75,0,1,0,0-1.5H7.69A.75.75,0,0,0,6.94,13Z"/><path d="M4.873,15.418A.75.75,0,0,0,5.9,15.142l.3-.527a.75.75,0,0,0-1.3-.752l-.3.53A.75.75,0,0,0,4.873,15.418Z"/><path d="M5.9,16.863a.75.75,0,0,0-1.3.752l.3.527a.75.75,0,1,0,1.3-.749Z"/><path d="M8.31,18.25H7.7a.75.75,0,1,0,0,1.5H8.31a.75.75,0,1,0,0-1.5Z"/><path d="M11.127,16.582a.749.749,0,0,0-1.023.275l-.306.528a.75.75,0,0,0,1.3.752l.3-.531A.749.749,0,0,0,11.127,16.582Z"/><path d="M10.1,15.137a.75.75,0,1,0,1.3-.752l-.3-.528a.75.75,0,1,0-1.3.749Z"/></svg>