<svg xmlns="http://www.w3.org/2000/svg" viewBox="0 0 24 24"><title>radio-antenna-handle</title><path d="M2,4A2,2,0,0,1,4,2H20a2,2,0,0,1,2,2V6.317a.249.249,0,0,0,.206.245,3.976,3.976,0,0,1,1.411.546A.251.251,0,0,0,24,6.9V4a4,4,0,0,0-4-4H4A4,4,0,0,0,0,4V6.9a.251.251,0,0,0,.383.212,3.964,3.964,0,0,1,1.411-.546A.248.248,0,0,0,2,6.316Z"/><path d="M0,21.5A2.5,2.5,0,0,0,2.5,24h19A2.5,2.5,0,0,0,24,21.5V13.75a.25.25,0,0,0-.25-.25H.25a.25.25,0,0,0-.25.25ZM10.25,16h10.5a.75.75,0,0,1,0,1.5H10.25a.75.75,0,0,1,0-1.5Zm0,3.5h10.5a.75.75,0,0,1,0,1.5H10.25a.75.75,0,0,1,0-1.5ZM5,15.5a3,3,0,1,1-3,3A3,3,0,0,1,5,15.5Z"/><path d="M18,6a1,1,0,0,0-1,1v.75a.25.25,0,0,1-.25.25h-1.5A.25.25,0,0,1,15,7.75V7a1,1,0,0,0-2,0v.75a.25.25,0,0,1-.25.25H2.5A2.5,2.5,0,0,0,0,10.5v1.25A.25.25,0,0,0,.25,12h23.5a.25.25,0,0,0,.25-.25V10.5A2.5,2.5,0,0,0,21.5,8H19.25A.25.25,0,0,1,19,7.75V7a1,1,0,0,0-1-1Z"/></svg>