<svg xmlns="http://www.w3.org/2000/svg" viewBox="0 0 24 24"><defs><style>.a{fill:none;stroke:currentColor;stroke-linecap:round;stroke-linejoin:round;}</style></defs><title>photography-equipment-remote-shutter</title><path class="a" d="M13.75,14.5H2.25A1.5,1.5,0,0,1,.75,13V4.182A1.671,1.671,0,0,1,2.25,2.5H4.932A1.488,1.488,0,0,0,5.8,2.162L7.246.838A1.485,1.485,0,0,1,8.114.5h2.272a1.485,1.485,0,0,1,.868.338L12.7,2.162a1.485,1.485,0,0,0,.868.338H16.25a1.406,1.406,0,0,1,1.034.5"/><circle class="a" cx="9.25" cy="8" r="3.5"/><path class="a" d="M22.75,22.5a1,1,0,0,1-1,1h-5a1,1,0,0,1-1-1V15a3.5,3.5,0,0,1,7,0Z"/><circle class="a" cx="19.25" cy="15" r="1.5"/><line class="a" x1="17.75" y1="18.5" x2="20.75" y2="18.5"/><line class="a" x1="17.75" y1="20.5" x2="20.75" y2="20.5"/><path class="a" d="M23.25,6.915a6.36,6.36,0,0,0-8,0"/><path class="a" d="M16.917,9.325a3.711,3.711,0,0,1,4.666,0"/><path class="a" d="M3.5,5.5a.25.25,0,1,1-.25.25A.25.25,0,0,1,3.5,5.5"/></svg>