<svg xmlns="http://www.w3.org/2000/svg" viewBox="0 0 24 24"><defs><style>.a{fill:none;stroke:currentColor;stroke-linecap:round;stroke-linejoin:round;}</style></defs><title>photography-equipment-tripod</title><line class="a" x1="14.714" y1="2.2" x2="17.571" y2="4.999"/><path class="a" d="M21.5,8.848a1,1,0,0,1-1.414.015l-1.429-1.4a4.024,4.024,0,0,1-.618-.776l-.556-.905a.64.64,0,0,1,.87-.887l.916.537a4.082,4.082,0,0,1,.788.6l1.429,1.4A1,1,0,0,1,21.5,8.848Z"/><path class="a" d="M13,22.5a1,1,0,0,1-2,0V21a.5.5,0,0,1,.5-.5h1a.5.5,0,0,1,.5.5Z"/><line class="a" x1="12" y1="20.5" x2="12" y2="11.5"/><path class="a" d="M2.881,22.972a1,1,0,0,1-1.762-.944l.708-1.323a.5.5,0,0,1,.677-.2l.881.472a.5.5,0,0,1,.205.677Z"/><line class="a" x1="2.944" y1="20.737" x2="7.893" y2="11.5"/><path class="a" d="M21.119,22.972a1,1,0,0,0,1.762-.944l-.708-1.323a.5.5,0,0,0-.677-.2l-.881.472a.5.5,0,0,0-.2.677Z"/><line class="a" x1="21.056" y1="20.737" x2="16.107" y2="11.5"/><path class="a" d="M15.065,9.555A2,2,0,0,0,13.3,8.5H10.7A2,2,0,0,0,8.935,9.555L7.893,11.5h8.214Z"/><line class="a" x1="12" y1="8.5" x2="12" y2="2.5"/><path class="a" d="M14,.5H10a1,1,0,0,0,0,2h4a1,1,0,0,0,0-2Z"/><line class="a" x1="10" y1="4.5" x2="10" y2="6.5"/><line class="a" x1="10" y1="5.5" x2="12" y2="5.5"/></svg>