<svg xmlns="http://www.w3.org/2000/svg" viewBox="0 0 24 24"><defs><style>.a{fill:none;stroke:currentColor;stroke-linecap:round;stroke-linejoin:round;}</style></defs><title>cell-border-left</title><line class="a" x1="0.5" y1="0.497" x2="0.5" y2="22.497"/><line class="a" x1="5.5" y1="0.497" x2="8" y2="0.497"/><line class="a" x1="10.5" y1="0.497" x2="12.5" y2="0.497"/><line class="a" x1="15" y1="0.497" x2="17.5" y2="0.497"/><line class="a" x1="5.5" y1="22.497" x2="8" y2="22.497"/><line class="a" x1="10.5" y1="22.497" x2="12.5" y2="22.497"/><line class="a" x1="15" y1="22.497" x2="17.5" y2="22.497"/><line class="a" x1="5.5" y1="11.497" x2="8" y2="11.497"/><line class="a" x1="10.5" y1="11.497" x2="12.5" y2="11.497"/><line class="a" x1="15" y1="11.497" x2="17.5" y2="11.497"/><line class="a" x1="11.5" y1="0.497" x2="11.5" y2="2.997"/><line class="a" x1="11.5" y1="5.497" x2="11.5" y2="7.997"/><line class="a" x1="11.5" y1="14.997" x2="11.5" y2="17.497"/><line class="a" x1="11.5" y1="19.997" x2="11.5" y2="22.497"/><line class="a" x1="11.5" y1="10.497" x2="11.5" y2="12.497"/><line class="a" x1="22.5" y1="5.497" x2="22.5" y2="7.997"/><line class="a" x1="22.5" y1="14.997" x2="22.5" y2="17.497"/><path class="a" d="M20,.5h1.5a1,1,0,0,1,1,1V3"/><path class="a" d="M22.5,20v1.5a1,1,0,0,1-1,1H20"/><line class="a" x1="22.5" y1="11.497" x2="20" y2="11.497"/><line class="a" x1="22.5" y1="10.497" x2="22.5" y2="12.497"/></svg>