<?xml version="1.0" encoding="utf-8"?>
<!-- Generator: Adobe Illustrator 22.1.0, SVG Export Plug-In . SVG Version: 6.00 Build 0)  -->
<svg version="1.1" id="Layer_1" xmlns="http://www.w3.org/2000/svg" xmlns:xlink="http://www.w3.org/1999/xlink" x="0px" y="0px"
	 viewBox="0 0 24 24" style="enable-background:new 0 0 24 24;" xml:space="preserve">
<g>
	<title>ranking-ribbon-1</title>
	<path d="M22,24.001c-0.018,0-0.036-0.001-0.054-0.003C21.439,23.941,17,23.378,17,21.001c-0.011-0.523,0.26-1.002,0.699-1.272
		c-0.687-0.819-2.355-2.228-5.699-2.228c-2.429,0-3.952,0.752-4.802,1.383c-0.403,0.299-0.696,0.599-0.9,0.844
		C6.739,19.997,7.011,20.48,7,21.011c0,2.367-4.439,2.93-4.945,2.986C2.036,24,2.018,24.001,2,24.001
		c-0.163,0-0.316-0.08-0.41-0.214c-0.105-0.151-0.119-0.346-0.037-0.51l0.793-1.586l-2.103-1.262
		c-0.174-0.104-0.267-0.302-0.237-0.502c0.03-0.201,0.176-0.363,0.374-0.412c0.031-0.008,3.232-0.845,3.588-2.268l-0.659-1.812
		c-0.251-0.691,0.031-1.456,0.671-1.818c2.446-1.366,5.218-2.098,8.018-2.117c2.805,0.019,5.578,0.75,8.022,2.115
		c0.642,0.364,0.925,1.128,0.673,1.819l-0.659,1.812c0.356,1.422,3.557,2.26,3.59,2.268c0.195,0.049,0.342,0.21,0.372,0.411
		c0.03,0.201-0.063,0.398-0.237,0.502l-2.103,1.262l0.793,1.586c0.082,0.164,0.068,0.359-0.037,0.51
		C22.317,23.921,22.163,24.001,22,24.001z M18.465,20.501c-0.126,0.003-0.244,0.056-0.332,0.148
		c-0.089,0.093-0.136,0.214-0.133,0.342c0,0.856,1.496,1.525,3.116,1.86l-0.563-1.126c-0.116-0.233-0.032-0.519,0.19-0.652
		l1.553-0.932c-0.877-0.329-2.022-0.877-2.705-1.678l-0.621,1.709c-0.005,0.013-0.012,0.029-0.02,0.042
		c-0.003,0.007-0.007,0.013-0.01,0.019c-0.02,0.039-0.049,0.08-0.084,0.116c-0.006,0.006-0.02,0.02-0.027,0.025
		c-0.078,0.073-0.188,0.12-0.301,0.126C18.524,20.5,18.465,20.501,18.465,20.501z M3.257,21.072c0.222,0.133,0.306,0.42,0.19,0.652
		L2.885,22.85C4.504,22.514,6,21.847,6,21.001c0.003-0.135-0.045-0.259-0.133-0.352c-0.088-0.093-0.207-0.145-0.335-0.148
		c0,0-0.045-0.001-0.046-0.001c-0.131-0.008-0.242-0.057-0.329-0.139c-0.048-0.048-0.078-0.091-0.102-0.137
		c0-0.001-0.001-0.002-0.002-0.004c-0.006-0.01-0.016-0.027-0.024-0.049l-0.621-1.708c-0.682,0.801-1.827,1.349-2.704,1.678
		L3.257,21.072z M12,16.501c3.619,0,5.521,1.507,6.352,2.443l1.4-3.85c0.084-0.23-0.01-0.485-0.224-0.606
		c-2.295-1.282-4.9-1.969-7.532-1.987c-2.626,0.018-5.23,0.705-7.528,1.989c-0.211,0.12-0.305,0.374-0.221,0.604l1.4,3.85
		C6.479,18.008,8.381,16.501,12,16.501z"/>
	<path d="M19.892,11.603c-0.052,0-0.105-0.008-0.156-0.025c-0.262-0.086-0.405-0.369-0.32-0.631c0.233-0.71-0.039-1.492-0.662-1.903
		l-0.041-0.026c-0.142-0.092-0.227-0.249-0.227-0.419s0.085-0.327,0.228-0.419l0.043-0.028c0.619-0.408,0.891-1.188,0.659-1.895
		c-0.24-0.694-0.899-1.163-1.64-1.163l-0.124,0.001c-0.165,0-0.319-0.081-0.412-0.216c-0.094-0.135-0.114-0.308-0.056-0.462
		l0.018-0.047c0.252-0.697,0.001-1.485-0.612-1.913c-0.304-0.215-0.66-0.328-1.028-0.328c-0.385,0-0.753,0.122-1.063,0.354
		l-0.04,0.03c-0.086,0.065-0.19,0.1-0.299,0.1c-0.052,0-0.104-0.008-0.154-0.024c-0.153-0.049-0.274-0.171-0.323-0.325l-0.015-0.047
		c-0.172-0.538-0.596-0.962-1.135-1.134C12.361,1.029,12.182,1,12.002,1c-0.766,0-1.437,0.49-1.67,1.219l-0.015,0.047
		C10.267,2.42,10.146,2.541,9.992,2.59C9.943,2.606,9.892,2.614,9.84,2.614c-0.108,0-0.214-0.036-0.3-0.1L9.5,2.483
		c-0.31-0.232-0.679-0.355-1.065-0.355c-0.368,0-0.722,0.113-1.024,0.325C6.8,2.879,6.549,3.661,6.795,4.36L6.8,4.37
		c0.077,0.164,0.065,0.343-0.027,0.488C6.681,5.003,6.523,5.09,6.351,5.09L6.238,5.089c-0.762,0-1.412,0.461-1.656,1.174
		c-0.23,0.702,0.043,1.481,0.664,1.891L5.299,8.19c0.143,0.099,0.223,0.261,0.215,0.435C5.505,8.799,5.409,8.953,5.258,9.037
		L5.215,9.061c-0.598,0.396-0.864,1.174-0.631,1.883c0.042,0.127,0.032,0.262-0.029,0.382c-0.06,0.119-0.163,0.208-0.29,0.25
		C4.215,11.592,4.162,11.6,4.109,11.6c-0.217,0-0.408-0.138-0.475-0.344C3.325,10.318,3.56,9.303,4.229,8.598
		C3.561,7.896,3.327,6.883,3.634,5.945c0.324-0.947,1.128-1.634,2.09-1.811C5.605,3.16,6.025,2.201,6.837,1.635
		c0.47-0.331,1.023-0.506,1.597-0.506c0.406,0,0.808,0.09,1.175,0.261C10.094,0.538,11.007,0,12.002,0
		c0.283,0,0.565,0.044,0.836,0.131c0.658,0.211,1.212,0.663,1.552,1.259c0.366-0.171,0.767-0.26,1.172-0.26
		c0.576,0,1.129,0.176,1.602,0.509c0.815,0.568,1.236,1.527,1.114,2.499c0.959,0.176,1.761,0.859,2.085,1.8
		c0.308,0.943,0.074,1.957-0.595,2.661c0.671,0.705,0.906,1.721,0.597,2.66C20.299,11.464,20.109,11.603,19.892,11.603
		L19.892,11.603z"/>
	<path d="M9.903,10.974c-0.173,0-0.298-0.067-0.372-0.122c-0.108-0.081-0.344-0.32-0.209-0.798l0.56-1.96L8.499,6.71
		c-0.355-0.357-0.251-0.7-0.211-0.797C8.328,5.817,8.498,5.501,9,5.501h1.516l0.82-1.757c0.205-0.441,0.56-0.475,0.663-0.475
		c0.104,0,0.459,0.034,0.665,0.474l0.821,1.759H15c0.501,0,0.671,0.316,0.711,0.412c0.04,0.097,0.143,0.44-0.212,0.795l-1.383,1.385
		l0.561,1.959c0.137,0.477-0.099,0.717-0.207,0.798c-0.074,0.056-0.2,0.123-0.373,0.123l0,0c-0.147,0-0.299-0.048-0.452-0.144
		L12,9.801l-1.645,1.028C10.202,10.925,10.05,10.974,9.903,10.974z M10.798,7.594c0.129,0.129,0.177,0.317,0.127,0.491l-0.421,1.472
		l1.231-0.77c0.08-0.05,0.172-0.076,0.265-0.076c0.094,0,0.186,0.026,0.265,0.076l1.23,0.769l-0.421-1.472
		c-0.05-0.174-0.001-0.362,0.127-0.49l1.093-1.094h-1.126c-0.194,0-0.371-0.113-0.453-0.289l-0.713-1.528l-0.713,1.529
		c-0.082,0.175-0.26,0.289-0.453,0.289h-1.13L10.798,7.594z"/>
</g>
</svg>
