<?xml version="1.0" encoding="utf-8"?>
<!-- Generator: Adobe Illustrator 22.1.0, SVG Export Plug-In . SVG Version: 6.00 Build 0)  -->
<svg version="1.1" id="Light" xmlns="http://www.w3.org/2000/svg" xmlns:xlink="http://www.w3.org/1999/xlink" x="0px" y="0px"
	 viewBox="0 0 24 24" style="enable-background:new 0 0 24 24;" xml:space="preserve">
<g>
	<title>multiple-actions-chat</title>
	<path d="M15.5,23.998c-0.082,0-0.164-0.021-0.236-0.059C15.101,23.852,15,23.683,15,23.498v-1.5h-0.5c-0.827,0-1.5-0.673-1.5-1.5
		v-6c0-0.827,0.673-1.5,1.5-1.5h8c0.827,0,1.5,0.673,1.5,1.5v6c0,0.827-0.673,1.5-1.5,1.5h-3.849l-2.874,1.916
		C15.695,23.969,15.599,23.998,15.5,23.998z M14.5,13.998c-0.276,0-0.5,0.224-0.5,0.5v6c0,0.276,0.224,0.5,0.5,0.5h1
		c0.276,0,0.5,0.224,0.5,0.5v1.066l2.223-1.482c0.083-0.055,0.178-0.084,0.277-0.084h4c0.276,0,0.5-0.224,0.5-0.5v-6
		c0-0.276-0.224-0.5-0.5-0.5H14.5z"/>
	<path d="M16.5,16.998c-0.276,0-0.5-0.224-0.5-0.5s0.224-0.5,0.5-0.5h4c0.276,0,0.5,0.224,0.5,0.5s-0.224,0.5-0.5,0.5H16.5z"/>
	<path d="M16.5,18.998c-0.276,0-0.5-0.224-0.5-0.5s0.224-0.5,0.5-0.5h3c0.276,0,0.5,0.224,0.5,0.5s-0.224,0.5-0.5,0.5H16.5z"/>
	<path d="M0.5,13.998c-0.133,0-0.262-0.054-0.356-0.149C0.051,13.756-0.002,13.626,0,13.493c0.01-0.999,0.214-1.971,0.605-2.89
		c0.467-0.937,1.913-1.468,3.913-2.203l0.504-0.186c0.014-0.02,0.041-0.07,0.066-0.163c0.106-0.403,0.02-0.902-0.032-1.016
		C4.177,6.074,3.74,4.781,3.853,3.482c-0.068-0.84,0.189-1.66,0.726-2.312c0.548-0.665,1.322-1.076,2.18-1.159
		C6.835,0.005,6.911,0,6.988-0.001C7.865,0.02,8.67,0.375,9.266,1c0.596,0.624,0.912,1.442,0.891,2.302
		c-0.001,0.06-0.005,0.12-0.009,0.18c0.114,1.299-0.324,2.592-1.204,3.555C8.892,7.153,8.806,7.651,8.912,8.052
		c0.024,0.092,0.052,0.143,0.066,0.163l0.497,0.184c2.188,0.805,3.769,1.387,4.019,2.49c0.03,0.13,0.006,0.264-0.065,0.377
		c-0.071,0.113-0.182,0.191-0.312,0.221c-0.036,0.008-0.073,0.012-0.111,0.012l0,0c-0.235,0-0.436-0.16-0.488-0.39
		c-0.13-0.573-1.786-1.183-3.389-1.772L8.608,9.144c-0.23-0.085-0.533-0.305-0.672-0.873C7.806,7.742,7.84,6.766,8.189,6.38
		C8.9,5.609,9.249,4.572,9.147,3.532c-0.003-0.031-0.003-0.063,0-0.095c0.005-0.054,0.008-0.107,0.01-0.16
		c0.03-1.226-0.943-2.248-2.169-2.279c-0.028,0.001-0.08,0.005-0.133,0.01C6.263,1.065,5.729,1.349,5.351,1.807
		C4.973,2.266,4.796,2.844,4.853,3.435c0.003,0.033,0.003,0.065,0,0.097C4.751,4.571,5.099,5.608,5.807,6.375
		c0.352,0.389,0.386,1.365,0.256,1.895C5.925,8.838,5.622,9.058,5.392,9.143L4.863,9.338c-1.581,0.581-3.074,1.13-3.351,1.684
		c-0.263,0.621-0.428,1.288-0.488,1.976H10.5c0.276,0,0.5,0.224,0.5,0.5s-0.224,0.5-0.5,0.5H0.5z"/>
	<path d="M18.025,11.493c-0.202,0-0.383-0.12-0.461-0.306c-0.023-0.055-0.048-0.109-0.075-0.162
		c-0.279-0.556-1.779-1.108-3.368-1.692l-0.513-0.189c-0.23-0.085-0.533-0.306-0.672-0.873c-0.13-0.53-0.096-1.506,0.253-1.892
		c0.711-0.771,1.06-1.808,0.958-2.848c-0.003-0.031-0.003-0.065,0-0.099c0.004-0.049,0.008-0.103,0.009-0.156
		c0.03-1.226-0.943-2.249-2.169-2.279c-0.296,0-0.595,0.066-0.866,0.191c-0.065,0.031-0.136,0.046-0.209,0.046l0,0
		c-0.195,0-0.373-0.114-0.454-0.291c-0.056-0.121-0.061-0.256-0.015-0.382c0.046-0.125,0.138-0.225,0.26-0.281
		c0.402-0.186,0.827-0.284,1.229-0.284l0.078,0.001c1.779,0.044,3.192,1.526,3.148,3.304c-0.002,0.061-0.005,0.12-0.01,0.18
		c0.114,1.299-0.324,2.592-1.204,3.555c-0.052,0.115-0.137,0.613-0.031,1.014c0.024,0.092,0.052,0.143,0.066,0.163l0.489,0.18
		c2.009,0.739,3.461,1.273,3.916,2.181c0.036,0.071,0.071,0.146,0.103,0.223c0.107,0.255-0.013,0.548-0.266,0.655
		C18.157,11.48,18.092,11.493,18.025,11.493z"/>
</g>
</svg>
