<?xml version="1.0" encoding="utf-8"?>
<!-- Generator: Adobe Illustrator 22.1.0, SVG Export Plug-In . SVG Version: 6.00 Build 0)  -->
<svg version="1.1" id="Light" xmlns="http://www.w3.org/2000/svg" xmlns:xlink="http://www.w3.org/1999/xlink" x="0px" y="0px"
	 viewBox="0 0 24 24" style="enable-background:new 0 0 24 24;" xml:space="preserve">
<g>
	<title>multiple-actions-flash</title>
	<path d="M18.5,23.998c-0.057,0-0.113-0.01-0.166-0.028C18.135,23.901,18,23.711,18,23.498v-3.5h-1c-0.239,0-0.47-0.085-0.65-0.241
		c-0.203-0.173-0.326-0.415-0.347-0.681c-0.021-0.266,0.063-0.525,0.237-0.728l4.868-6.16c0.096-0.121,0.239-0.19,0.392-0.19
		c0.057,0,0.113,0.01,0.166,0.029C21.865,12.096,22,12.286,22,12.498v3.5h1c0.239,0,0.47,0.085,0.65,0.241
		c0.202,0.173,0.326,0.415,0.347,0.682c0.021,0.266-0.063,0.525-0.238,0.728l-4.867,6.16C18.797,23.929,18.654,23.998,18.5,23.998z
		 M17.012,18.983l1.488,0.015c0.276,0,0.5,0.224,0.5,0.5v2.561l3.988-5.046L21.5,16.998c-0.276,0-0.5-0.224-0.5-0.5v-2.561
		L17.012,18.983z"/>
	<path d="M0.5,13.998c-0.133,0-0.262-0.054-0.356-0.149C0.051,13.756-0.001,13.626,0,13.493c0.01-0.999,0.214-1.971,0.605-2.89
		c0.467-0.937,1.913-1.468,3.914-2.203l0.504-0.186c0.014-0.02,0.041-0.07,0.066-0.163c0.106-0.403,0.02-0.902-0.032-1.016
		C4.177,6.074,3.74,4.781,3.853,3.482c-0.068-0.84,0.189-1.66,0.726-2.312c0.548-0.665,1.322-1.076,2.18-1.159
		C6.835,0.005,6.912,0,6.988-0.001C7.869,0.02,8.675,0.375,9.269,0.999c0.594,0.624,0.909,1.442,0.888,2.303
		c-0.001,0.06-0.005,0.12-0.009,0.18c0.114,1.299-0.324,2.593-1.204,3.555C8.892,7.153,8.806,7.651,8.912,8.052
		c0.024,0.092,0.052,0.143,0.066,0.163l0.489,0.181c2.009,0.739,3.46,1.272,3.915,2.18c0.401,0.942,0.607,1.919,0.618,2.918
		c0.001,0.133-0.051,0.263-0.145,0.357c-0.093,0.094-0.222,0.148-0.355,0.148L0.5,13.998z M12.976,12.999
		c-0.06-0.69-0.228-1.363-0.5-2.004c-0.264-0.525-1.765-1.077-3.353-1.661L8.609,9.144c-0.23-0.085-0.534-0.306-0.672-0.873
		C7.807,7.742,7.84,6.766,8.19,6.38c0.711-0.771,1.06-1.808,0.958-2.848c-0.003-0.031-0.003-0.063,0-0.095
		c0.005-0.054,0.008-0.106,0.01-0.159c0.015-0.594-0.203-1.159-0.613-1.589c-0.408-0.429-0.958-0.674-1.55-0.69
		C6.954,1,6.904,1.003,6.855,1.008C6.263,1.065,5.729,1.349,5.351,1.807C4.973,2.266,4.796,2.844,4.853,3.435
		c0.003,0.033,0.003,0.065,0,0.097C4.751,4.571,5.099,5.608,5.808,6.375c0.352,0.389,0.386,1.365,0.256,1.895
		C5.925,8.838,5.622,9.058,5.392,9.143L4.864,9.338c-1.581,0.581-3.074,1.13-3.351,1.684c-0.263,0.621-0.428,1.288-0.488,1.976
		L12.976,12.999z"/>
	<path d="M15.5,13.999c-0.276,0-0.5-0.224-0.5-0.5s0.224-0.5,0.5-0.5h2.476c-0.06-0.69-0.228-1.363-0.5-2.004
		c-0.264-0.525-1.765-1.077-3.354-1.662l-0.513-0.189c-0.23-0.085-0.533-0.306-0.672-0.873c-0.13-0.53-0.096-1.506,0.253-1.892
		c0.711-0.771,1.06-1.808,0.958-2.848c-0.003-0.031-0.003-0.065,0-0.099c0.004-0.049,0.008-0.103,0.009-0.156
		c0.03-1.226-0.943-2.249-2.169-2.279c-0.296,0-0.595,0.066-0.866,0.191c-0.065,0.031-0.136,0.046-0.209,0.046
		c-0.195,0-0.373-0.114-0.454-0.291c-0.056-0.121-0.061-0.256-0.015-0.382c0.046-0.125,0.138-0.225,0.26-0.281
		c0.402-0.186,0.827-0.284,1.229-0.284l0.078,0.001c1.779,0.044,3.192,1.526,3.148,3.304c-0.002,0.061-0.005,0.12-0.01,0.18
		c0.114,1.299-0.324,2.592-1.204,3.555c-0.052,0.115-0.137,0.613-0.031,1.014c0.024,0.092,0.052,0.143,0.066,0.163l0.489,0.18
		c2.009,0.739,3.461,1.273,3.916,2.181c0.401,0.942,0.607,1.919,0.618,2.918c0.001,0.133-0.051,0.263-0.145,0.357
		c-0.093,0.094-0.222,0.148-0.355,0.148H15.5z"/>
</g>
</svg>
