<?xml version="1.0" encoding="utf-8"?>
<!-- Generator: Adobe Illustrator 22.1.0, SVG Export Plug-In . SVG Version: 6.00 Build 0)  -->
<svg version="1.1" id="Light" xmlns="http://www.w3.org/2000/svg" xmlns:xlink="http://www.w3.org/1999/xlink" x="0px" y="0px"
	 viewBox="0 0 24 24" style="enable-background:new 0 0 24 24;" xml:space="preserve">
<g>
	<title>multiple-actions-view</title>
	<path d="M23.5,24.008c-0.134,0-0.259-0.052-0.354-0.146l-2.842-2.842c-0.798,0.639-1.785,0.989-2.804,0.989
		c-2.481,0-4.5-2.019-4.5-4.5s2.019-4.5,4.5-4.5s4.5,2.019,4.5,4.5c0,1.019-0.35,2.006-0.989,2.804l2.842,2.842
		C23.948,23.249,24,23.374,24,23.508s-0.052,0.259-0.146,0.354S23.634,24.008,23.5,24.008z M17.5,14.008c-1.93,0-3.5,1.57-3.5,3.5
		s1.57,3.5,3.5,3.5s3.5-1.57,3.5-3.5S19.43,14.008,17.5,14.008z"/>
	<path d="M0.5,14.008c-0.133,0-0.262-0.054-0.356-0.149C0.051,13.765-0.002,13.635,0,13.502c0.01-0.999,0.214-1.971,0.605-2.89
		C1.072,9.676,2.517,9.145,4.516,8.41l0.506-0.187c0.014-0.02,0.041-0.07,0.066-0.163c0.106-0.403,0.02-0.902-0.032-1.016
		C4.177,6.083,3.74,4.791,3.853,3.492C3.711,1.744,5.01,0.19,6.759,0.022C6.835,0.015,6.911,0.01,6.987,0.008
		C7.865,0.029,8.67,0.385,9.266,1.01c0.596,0.624,0.912,1.442,0.891,2.302c-0.001,0.06-0.005,0.12-0.009,0.18
		c0.114,1.299-0.324,2.592-1.204,3.555C8.892,7.162,8.806,7.66,8.912,8.061c0.024,0.092,0.052,0.143,0.066,0.163l0.489,0.181
		c2.009,0.739,3.46,1.272,3.915,2.18c0.401,0.942,0.607,1.919,0.618,2.918c0.001,0.133-0.051,0.263-0.145,0.357
		c-0.093,0.094-0.222,0.148-0.355,0.148L0.5,14.008z M12.976,13.009c-0.06-0.69-0.228-1.363-0.5-2.004
		c-0.264-0.525-1.765-1.077-3.353-1.661L8.609,9.154c-0.23-0.085-0.534-0.306-0.672-0.873c-0.13-0.53-0.096-1.506,0.253-1.892
		C8.9,5.619,9.249,4.581,9.147,3.542c-0.003-0.031-0.003-0.063,0-0.095c0.005-0.054,0.008-0.107,0.01-0.16
		c0.03-1.223-0.939-2.244-2.162-2.278c-0.04,0.002-0.09,0.005-0.141,0.009C5.633,1.135,4.735,2.224,4.853,3.445
		c0.003,0.033,0.003,0.065,0,0.097C4.751,4.581,5.099,5.617,5.807,6.385C6.159,6.773,6.193,7.75,6.064,8.28
		C5.925,8.847,5.622,9.068,5.392,9.153l-0.53,0.195c-1.58,0.581-3.073,1.129-3.349,1.683c-0.263,0.621-0.428,1.288-0.488,1.976
		L12.976,13.009z"/>
	<path d="M18.019,11.489c-0.196,0-0.375-0.116-0.456-0.295c-0.026-0.057-0.052-0.113-0.079-0.168
		c-0.274-0.547-1.775-1.099-3.363-1.683l-0.513-0.189c-0.23-0.085-0.533-0.306-0.672-0.873c-0.13-0.53-0.096-1.506,0.253-1.892
		c0.711-0.771,1.06-1.808,0.958-2.848c-0.003-0.031-0.003-0.065,0-0.099c0.004-0.049,0.008-0.103,0.009-0.156
		c0.03-1.226-0.943-2.249-2.169-2.279c-0.296,0-0.595,0.066-0.866,0.191c-0.065,0.031-0.136,0.046-0.209,0.046l0,0
		c-0.194,0-0.373-0.114-0.454-0.291c-0.056-0.121-0.061-0.257-0.015-0.382c0.046-0.125,0.138-0.225,0.26-0.281
		c0.4-0.185,0.849-0.283,1.298-0.283c1.787,0.044,3.2,1.526,3.156,3.304c-0.002,0.061-0.005,0.12-0.01,0.18
		c0.114,1.299-0.324,2.592-1.204,3.555c-0.052,0.115-0.137,0.613-0.031,1.014c0.024,0.092,0.052,0.143,0.066,0.163l0.489,0.18
		c2.009,0.739,3.461,1.273,3.916,2.181c0.034,0.07,0.063,0.134,0.093,0.198c0.113,0.252,0.001,0.548-0.25,0.662
		C18.159,11.474,18.091,11.489,18.019,11.489C18.02,11.489,18.019,11.489,18.019,11.489z"/>
</g>
</svg>
