<?xml version="1.0" encoding="utf-8"?>
<!-- Generator: Adobe Illustrator 22.1.0, SVG Export Plug-In . SVG Version: 6.00 Build 0)  -->
<svg version="1.1" id="Light" xmlns="http://www.w3.org/2000/svg" xmlns:xlink="http://www.w3.org/1999/xlink" x="0px" y="0px"
	 viewBox="0 0 24 24" style="enable-background:new 0 0 24 24;" xml:space="preserve">
<g>
	<title>multiple-actions-download</title>
	<path d="M18.5,24.008c-3.033,0-5.5-2.467-5.5-5.5s2.467-5.5,5.5-5.5s5.5,2.467,5.5,5.5S21.533,24.008,18.5,24.008z M18.5,14.008
		c-2.481,0-4.5,2.019-4.5,4.5s2.019,4.5,4.5,4.5s4.5-2.019,4.5-4.5S20.981,14.008,18.5,14.008z"/>
	<path d="M18.5,21.008c-0.066,0-0.13-0.013-0.191-0.039c-0.062-0.025-0.117-0.062-0.163-0.109l-1.999-1.999
		C16.052,18.767,16,18.641,16,18.508s0.052-0.259,0.146-0.354s0.22-0.146,0.354-0.146s0.259,0.052,0.354,0.146L18,19.301v-2.793
		c0-0.276,0.224-0.5,0.5-0.5s0.5,0.224,0.5,0.5v2.793l1.146-1.146c0.094-0.094,0.22-0.146,0.354-0.146s0.259,0.052,0.354,0.146
		S21,18.374,21,18.508s-0.052,0.259-0.146,0.354l-2,2c-0.045,0.046-0.101,0.083-0.163,0.109C18.63,20.995,18.566,21.008,18.5,21.008
		z"/>
	<path d="M0.5,14.008c-0.133,0-0.262-0.054-0.356-0.149C0.051,13.765-0.002,13.635,0,13.502c0.01-0.999,0.214-1.971,0.605-2.89
		C1.072,9.676,2.517,9.145,4.516,8.41l0.506-0.187c0.014-0.02,0.041-0.07,0.066-0.163c0.106-0.403,0.02-0.902-0.032-1.016
		C4.177,6.083,3.74,4.791,3.853,3.492C3.711,1.744,5.01,0.19,6.759,0.022C6.835,0.015,6.911,0.01,6.987,0.008
		C7.865,0.029,8.67,0.385,9.266,1.01c0.596,0.624,0.912,1.442,0.891,2.302c-0.001,0.06-0.005,0.12-0.009,0.18
		c0.114,1.299-0.324,2.592-1.204,3.555C8.892,7.162,8.806,7.66,8.912,8.061c0.024,0.092,0.052,0.143,0.066,0.163l0.489,0.181
		c2.009,0.739,3.46,1.272,3.915,2.18c0.401,0.942,0.607,1.919,0.618,2.918c0.001,0.133-0.051,0.263-0.145,0.357
		c-0.093,0.094-0.222,0.148-0.355,0.148L0.5,14.008z M12.976,13.009c-0.06-0.69-0.228-1.363-0.5-2.004
		c-0.264-0.525-1.765-1.077-3.353-1.661L8.609,9.154c-0.23-0.085-0.534-0.306-0.672-0.873c-0.13-0.53-0.096-1.506,0.253-1.892
		C8.9,5.619,9.249,4.581,9.147,3.542c-0.003-0.031-0.003-0.063,0-0.095c0.005-0.054,0.008-0.107,0.01-0.16
		c0.03-1.223-0.939-2.244-2.162-2.278c-0.04,0.002-0.09,0.005-0.141,0.009C5.633,1.135,4.735,2.224,4.853,3.445
		c0.003,0.033,0.003,0.065,0,0.097C4.751,4.581,5.099,5.617,5.807,6.385C6.159,6.773,6.193,7.75,6.064,8.28
		C5.925,8.847,5.622,9.068,5.392,9.153l-0.53,0.195c-1.58,0.581-3.073,1.129-3.349,1.683c-0.263,0.621-0.428,1.288-0.488,1.976
		L12.976,13.009z"/>
	<path d="M18.027,11.509c-0.2,0-0.381-0.119-0.46-0.303c-0.026-0.061-0.053-0.12-0.081-0.177c-0.276-0.55-1.776-1.102-3.365-1.687
		l-0.513-0.189c-0.23-0.085-0.533-0.306-0.672-0.873c-0.13-0.53-0.096-1.506,0.253-1.892c0.711-0.771,1.06-1.808,0.958-2.848
		c-0.003-0.031-0.003-0.065,0-0.099c0.004-0.049,0.008-0.103,0.009-0.156c0.03-1.226-0.943-2.249-2.169-2.279
		c-0.296,0-0.595,0.066-0.866,0.191c-0.065,0.031-0.136,0.046-0.209,0.046l0,0c-0.194,0-0.373-0.114-0.454-0.291
		c-0.056-0.121-0.061-0.257-0.015-0.382c0.046-0.125,0.138-0.225,0.26-0.281c0.4-0.185,0.849-0.283,1.298-0.283
		c1.787,0.044,3.2,1.526,3.156,3.304c-0.002,0.061-0.005,0.12-0.01,0.18c0.114,1.299-0.324,2.592-1.204,3.555
		c-0.052,0.115-0.137,0.613-0.031,1.014c0.024,0.092,0.052,0.143,0.066,0.163l0.489,0.18c2.009,0.739,3.461,1.273,3.916,2.181
		c0.037,0.076,0.072,0.151,0.104,0.227c0.108,0.254-0.01,0.549-0.263,0.657C18.161,11.495,18.095,11.509,18.027,11.509z"/>
</g>
</svg>
