<?xml version="1.0" encoding="utf-8"?>
<!-- Generator: Adobe Illustrator 22.1.0, SVG Export Plug-In . SVG Version: 6.00 Build 0)  -->
<svg version="1.1" id="Light" xmlns="http://www.w3.org/2000/svg" xmlns:xlink="http://www.w3.org/1999/xlink" x="0px" y="0px"
	 viewBox="0 0 24 24" style="enable-background:new 0 0 24 24;" xml:space="preserve">
<g>
	<title>multiple-actions-flight</title>
	<path d="M14.756,24.002c-0.203,0-0.399-0.062-0.566-0.181l-2.876-2.02c-0.183-0.146-0.285-0.328-0.307-0.535
		c-0.022-0.204,0.037-0.404,0.166-0.563c0.029-0.04,0.074-0.085,0.125-0.123l1.187-1.048c0.151-0.123,0.321-0.185,0.499-0.185
		c0.087,0,0.172,0.015,0.255,0.044c0.032,0.011,0.062,0.025,0.09,0.042l1.236,0.734l1.032-0.72l-2.992-1.852
		c-0.022-0.014-0.042-0.029-0.061-0.045c-0.348-0.298-0.39-0.823-0.094-1.171c0.043-0.049,0.085-0.089,0.132-0.124l0.893-0.663
		c0.145-0.107,0.316-0.163,0.494-0.163c0.099,0,0.196,0.018,0.289,0.052l4.777,1.779l2.106-1.438
		c0.298-0.205,0.649-0.313,1.013-0.313c0.132,0,0.263,0.015,0.391,0.043c0.002,0,0.02,0.005,0.026,0.007
		c0.608,0.141,1.112,0.593,1.326,1.205C23.965,16.958,24,17.163,24,17.371c0.013,0.642-0.321,1.258-0.871,1.604l-7.855,4.877
		C15.119,23.95,14.94,24.002,14.756,24.002z M14.766,23.004l7.833-4.877c0.253-0.159,0.407-0.445,0.401-0.746
		c0-0.102-0.016-0.192-0.047-0.28c-0.101-0.29-0.338-0.503-0.633-0.572c-0.053-0.012-0.111-0.018-0.168-0.018
		c-0.162,0-0.317,0.048-0.448,0.138l-2.322,1.585c-0.083,0.057-0.181,0.087-0.282,0.087c-0.06,0-0.118-0.01-0.174-0.031
		l-4.932-1.837l-0.61,0.452l3.383,2.094c0.144,0.089,0.232,0.243,0.237,0.411c0.004,0.169-0.075,0.327-0.214,0.424l-1.92,1.34
		c-0.084,0.059-0.183,0.09-0.286,0.09c-0.09,0-0.178-0.024-0.256-0.07l-1.318-0.783l-0.856,0.747L14.766,23.004z"/>
	<path d="M0.5,14.001c-0.133,0-0.262-0.054-0.356-0.149C0.051,13.758-0.001,13.628,0,13.495c0.01-0.999,0.214-1.971,0.605-2.89
		c0.467-0.937,1.912-1.468,3.913-2.203l0.504-0.186c0.014-0.02,0.042-0.071,0.066-0.163c0.106-0.403,0.02-0.902-0.032-1.016
		C4.177,6.076,3.74,4.784,3.853,3.485c-0.068-0.84,0.189-1.66,0.726-2.312c0.548-0.665,1.322-1.076,2.18-1.159
		c0.076-0.007,0.153-0.012,0.229-0.014C7.865,0.022,8.67,0.378,9.266,1.002c0.596,0.624,0.912,1.442,0.891,2.302
		c-0.001,0.06-0.005,0.12-0.009,0.18c0.114,1.299-0.324,2.592-1.204,3.555C8.892,7.155,8.807,7.653,8.912,8.054
		c0.024,0.092,0.052,0.143,0.066,0.163l0.488,0.18c2.01,0.74,3.462,1.273,3.917,2.181c0.402,0.942,0.607,1.92,0.618,2.919
		c0.001,0.133-0.051,0.263-0.145,0.357c-0.093,0.094-0.222,0.148-0.355,0.148L0.5,14.001z M12.976,13.002
		c-0.06-0.689-0.228-1.363-0.5-2.005C12.211,10.472,10.71,9.92,9.12,9.335L8.609,9.147c-0.23-0.085-0.534-0.306-0.672-0.873
		C7.807,7.744,7.84,6.768,8.19,6.382c0.711-0.771,1.06-1.808,0.958-2.848c-0.003-0.032-0.003-0.065,0-0.097
		c0.005-0.052,0.008-0.105,0.01-0.157c0.03-1.224-0.939-2.245-2.162-2.279c-0.041,0.001-0.09,0.005-0.14,0.009
		C6.263,1.067,5.729,1.351,5.351,1.81C4.973,2.268,4.796,2.846,4.853,3.438c0.003,0.033,0.003,0.065,0,0.097
		C4.751,4.574,5.099,5.61,5.808,6.378C6.16,6.766,6.194,7.743,6.064,8.273C5.925,8.84,5.622,9.061,5.392,9.146L4.863,9.341
		c-1.581,0.581-3.074,1.13-3.351,1.684c-0.263,0.621-0.429,1.288-0.488,1.976L12.976,13.002z"/>
	<path d="M15.5,14.002c-0.276,0-0.5-0.224-0.5-0.5s0.224-0.5,0.5-0.5h2.475c-0.06-0.689-0.228-1.363-0.5-2.005
		c-0.264-0.525-1.764-1.077-3.353-1.661l-0.513-0.189c-0.23-0.085-0.534-0.306-0.673-0.873c-0.13-0.53-0.096-1.506,0.253-1.892
		c0.711-0.771,1.06-1.808,0.958-2.848c-0.003-0.031-0.003-0.065,0-0.099c0.004-0.049,0.008-0.101,0.009-0.154
		c0.015-0.595-0.202-1.16-0.612-1.59c-0.41-0.431-0.963-0.676-1.557-0.691c-0.306,0.006-0.609,0.072-0.866,0.191
		c-0.065,0.031-0.136,0.046-0.209,0.046l0,0c-0.194,0-0.373-0.114-0.454-0.291c-0.056-0.121-0.062-0.257-0.015-0.382
		c0.046-0.125,0.138-0.225,0.26-0.281c0.388-0.179,0.836-0.277,1.295-0.283c0.874,0.021,1.677,0.377,2.271,1.001
		c0.594,0.624,0.909,1.442,0.888,2.303c-0.001,0.06-0.005,0.12-0.01,0.18c0.114,1.299-0.324,2.592-1.204,3.555
		c-0.052,0.115-0.137,0.613-0.031,1.014c0.024,0.092,0.052,0.143,0.066,0.163l0.488,0.18c2.01,0.739,3.461,1.273,3.916,2.181
		c0.402,0.942,0.607,1.92,0.618,2.919c0.001,0.133-0.051,0.263-0.145,0.357c-0.093,0.094-0.222,0.148-0.355,0.148H15.5z"/>
</g>
</svg>
