<?xml version="1.0" encoding="utf-8"?>
<!-- Generator: Adobe Illustrator 22.1.0, SVG Export Plug-In . SVG Version: 6.00 Build 0)  -->
<svg version="1.1" id="Light" xmlns="http://www.w3.org/2000/svg" xmlns:xlink="http://www.w3.org/1999/xlink" x="0px" y="0px"
	 viewBox="0 0 24 24" style="enable-background:new 0 0 24 24;" xml:space="preserve">
<g>
	<title>multiple-actions-time</title>
	<path d="M18.5,24c-3.033,0-5.5-2.467-5.5-5.5s2.467-5.5,5.5-5.5s5.5,2.467,5.5,5.5S21.533,24,18.5,24z M18.5,14
		c-2.481,0-4.5,2.019-4.5,4.5s2.019,4.5,4.5,4.5s4.5-2.019,4.5-4.5S20.981,14,18.5,14z"/>
	<path d="M18.5,19c-0.276,0-0.5-0.224-0.5-0.5v-3c0-0.276,0.224-0.5,0.5-0.5s0.5,0.224,0.5,0.5V18h1.5c0.276,0,0.5,0.224,0.5,0.5
		S20.776,19,20.5,19H18.5z"/>
	<path d="M0.5,14c-0.133,0-0.262-0.054-0.356-0.149C0.051,13.757-0.002,13.627,0,13.495c0.01-0.999,0.214-1.971,0.605-2.89
		c0.467-0.936,1.911-1.468,3.91-2.203l0.507-0.187c0.014-0.02,0.042-0.07,0.066-0.163c0.106-0.403,0.02-0.901-0.032-1.015
		C4.176,6.076,3.738,4.783,3.852,3.484c-0.068-0.84,0.189-1.66,0.726-2.312C5.126,0.508,5.9,0.096,6.758,0.014
		C6.834,0.007,6.911,0.002,6.988,0C7.865,0.021,8.67,0.377,9.266,1.002c0.596,0.624,0.912,1.442,0.891,2.302
		c-0.001,0.06-0.005,0.12-0.009,0.18c0.114,1.3-0.324,2.593-1.205,3.555C8.891,7.154,8.805,7.652,8.911,8.053
		c0.025,0.093,0.052,0.144,0.066,0.163l0.494,0.182c2.007,0.738,3.457,1.272,3.91,2.179c0.402,0.941,0.608,1.918,0.619,2.918
		c0.001,0.133-0.051,0.263-0.145,0.357c-0.093,0.094-0.222,0.148-0.355,0.148L0.5,14z M12.975,13.001
		c-0.06-0.689-0.228-1.362-0.501-2.004c-0.263-0.525-1.762-1.076-3.348-1.66L8.608,9.146C8.378,9.061,8.075,8.84,7.935,8.273
		c-0.13-0.53-0.097-1.506,0.253-1.892C8.9,5.611,9.249,4.574,9.147,3.534c-0.003-0.031-0.003-0.063,0-0.095
		c0.005-0.054,0.008-0.107,0.01-0.16C9.187,2.055,8.218,1.034,6.995,1C6.954,1.001,6.904,1.005,6.854,1.009
		C6.262,1.066,5.728,1.35,5.35,1.809C4.972,2.267,4.795,2.845,4.852,3.437c0.003,0.033,0.003,0.065,0,0.097
		C4.75,4.573,5.098,5.61,5.807,6.377C6.16,6.766,6.193,7.742,6.063,8.272C5.924,8.84,5.62,9.06,5.39,9.145L4.861,9.34
		c-1.58,0.581-3.071,1.129-3.348,1.683C1.249,11.644,1.084,12.312,1.024,13L12.975,13.001z"/>
	<path d="M18.025,11.501c-0.206,0-0.389-0.124-0.465-0.316c-0.022-0.056-0.048-0.109-0.073-0.161
		c-0.276-0.553-1.775-1.104-3.361-1.688l-0.517-0.191c-0.23-0.085-0.534-0.306-0.673-0.873c-0.13-0.53-0.096-1.506,0.253-1.892
		c0.712-0.771,1.061-1.808,0.959-2.848c-0.003-0.031-0.003-0.066,0-0.099c0.004-0.049,0.008-0.103,0.009-0.156
		C14.187,2.053,13.214,1.03,11.988,1c-0.297,0-0.595,0.066-0.866,0.191c-0.065,0.031-0.136,0.046-0.21,0.046l0,0
		c-0.194,0-0.373-0.114-0.454-0.291c-0.056-0.121-0.062-0.257-0.015-0.382c0.046-0.125,0.138-0.225,0.259-0.281
		C11.103,0.098,11.548,0,11.99,0c1.797,0.044,3.21,1.526,3.167,3.304c-0.002,0.061-0.005,0.12-0.01,0.18
		c0.114,1.3-0.324,2.593-1.205,3.555c-0.051,0.115-0.136,0.613-0.031,1.014c0.024,0.093,0.052,0.144,0.066,0.163l0.493,0.182
		c2.007,0.738,3.457,1.272,3.911,2.179c0.038,0.076,0.075,0.155,0.108,0.239c0.049,0.124,0.048,0.259-0.005,0.382
		s-0.15,0.218-0.274,0.267C18.15,11.489,18.088,11.501,18.025,11.501z"/>
</g>
</svg>
