<?xml version="1.0" encoding="utf-8"?>
<!-- Generator: Adobe Illustrator 22.1.0, SVG Export Plug-In . SVG Version: 6.00 Build 0)  -->
<svg version="1.1" id="Light" xmlns="http://www.w3.org/2000/svg" xmlns:xlink="http://www.w3.org/1999/xlink" x="0px" y="0px"
	 viewBox="0 0 24 24" style="enable-background:new 0 0 24 24;" xml:space="preserve">
<g>
	<title>multiple-actions-key</title>
	<path d="M17,21.507c-0.827,0-1.5-0.673-1.5-1.5s0.673-1.5,1.5-1.5s1.5,0.673,1.5,1.5S17.827,21.507,17,21.507z M17,19.507
		c-0.276,0-0.5,0.224-0.5,0.5s0.224,0.5,0.5,0.5s0.5-0.224,0.5-0.5S17.276,19.507,17,19.507z"/>
	<path d="M16.996,24.007c-0.493,0-0.977-0.091-1.44-0.27c-2.057-0.797-3.082-3.118-2.286-5.175c0.386-0.996,1.137-1.783,2.114-2.215
		c0.515-0.228,1.059-0.343,1.615-0.343c0.383,0,0.762,0.055,1.132,0.165l3.016-3.016c0.094-0.094,0.22-0.146,0.354-0.146h2
		c0.276,0,0.5,0.224,0.5,0.5v2c0,0.134-0.052,0.259-0.146,0.354l-3.016,3.017c0.248,0.843,0.211,1.751-0.107,2.574
		C20.138,22.98,18.637,24.007,16.996,24.007z M16.999,17.005c-0.417,0-0.824,0.087-1.211,0.258
		c-0.733,0.323-1.296,0.913-1.585,1.661c-0.29,0.747-0.271,1.562,0.053,2.295c0.324,0.733,0.914,1.296,1.661,1.585
		c0.35,0.135,0.715,0.204,1.084,0.204c0.417,0,0.824-0.087,1.211-0.258c0.733-0.324,1.296-0.914,1.585-1.661
		c0.271-0.698,0.271-1.468,0-2.166c-0.071-0.185-0.027-0.394,0.113-0.534L23,15.3v-1.293h-1.293l-3.09,3.09
		c-0.094,0.094-0.22,0.146-0.354,0.146c-0.062,0-0.122-0.011-0.18-0.033C17.733,17.074,17.368,17.005,16.999,17.005z"/>
	<path d="M0.5,14.007c-0.133,0-0.262-0.054-0.356-0.149C0.051,13.764-0.002,13.634,0,13.501c0.01-0.999,0.214-1.971,0.605-2.89
		c0.467-0.937,1.913-1.468,3.913-2.203l0.504-0.186c0.014-0.02,0.041-0.07,0.066-0.163c0.106-0.403,0.02-0.902-0.032-1.016
		C4.177,6.082,3.739,4.79,3.853,3.491c-0.068-0.84,0.189-1.66,0.726-2.312c0.548-0.665,1.322-1.076,2.18-1.159
		c0.076-0.007,0.153-0.012,0.229-0.014C7.865,0.028,8.67,0.384,9.266,1.008c0.596,0.624,0.912,1.442,0.891,2.302
		c-0.001,0.06-0.005,0.12-0.009,0.18c0.114,1.299-0.324,2.592-1.204,3.555C8.892,7.161,8.806,7.659,8.912,8.06
		c0.024,0.092,0.052,0.143,0.066,0.163l0.489,0.181c2.009,0.739,3.46,1.272,3.915,2.18c0.401,0.942,0.607,1.919,0.618,2.918
		c0.001,0.133-0.051,0.263-0.145,0.357c-0.093,0.094-0.222,0.148-0.355,0.148L0.5,14.007z M12.976,13.008
		c-0.06-0.69-0.228-1.363-0.5-2.004c-0.264-0.525-1.765-1.077-3.353-1.661L8.609,9.153C8.378,9.068,8.075,8.847,7.936,8.28
		C7.806,7.75,7.84,6.774,8.189,6.388C8.9,5.618,9.249,4.58,9.147,3.54c-0.003-0.031-0.003-0.063,0-0.095
		c0.005-0.054,0.008-0.107,0.01-0.16c0.03-1.223-0.939-2.244-2.162-2.278c-0.041,0.001-0.09,0.005-0.14,0.009
		C6.263,1.073,5.729,1.357,5.351,1.816C4.973,2.274,4.796,2.852,4.853,3.444c0.003,0.033,0.003,0.065,0,0.097
		C4.751,4.58,5.099,5.616,5.807,6.384c0.352,0.389,0.386,1.365,0.256,1.896C5.925,8.846,5.622,9.067,5.392,9.152L4.863,9.347
		c-1.581,0.581-3.074,1.13-3.351,1.684c-0.263,0.621-0.428,1.288-0.488,1.976L12.976,13.008z"/>
	<path d="M15.5,14.008c-0.276,0-0.5-0.224-0.5-0.5s0.224-0.5,0.5-0.5h2.476c-0.06-0.69-0.228-1.363-0.5-2.004
		c-0.264-0.525-1.765-1.077-3.354-1.662l-0.513-0.189c-0.23-0.085-0.533-0.306-0.672-0.873c-0.13-0.53-0.096-1.506,0.253-1.892
		c0.711-0.771,1.06-1.808,0.958-2.848c-0.003-0.031-0.003-0.065,0-0.099c0.004-0.049,0.008-0.103,0.009-0.156
		c0.03-1.226-0.943-2.249-2.169-2.279c-0.296,0-0.595,0.066-0.866,0.191c-0.065,0.031-0.136,0.046-0.209,0.046l0,0
		c-0.195,0-0.373-0.114-0.454-0.291c-0.056-0.121-0.061-0.256-0.015-0.382c0.046-0.125,0.138-0.225,0.26-0.281
		C11.102,0.105,11.551,0.007,12,0.007c1.787,0.044,3.2,1.526,3.156,3.304c-0.002,0.061-0.005,0.12-0.01,0.18
		c0.114,1.299-0.324,2.592-1.204,3.555c-0.052,0.115-0.137,0.613-0.031,1.014c0.024,0.092,0.052,0.143,0.066,0.163l0.489,0.18
		c2.009,0.739,3.461,1.273,3.916,2.181c0.401,0.942,0.607,1.919,0.618,2.918c0.001,0.133-0.051,0.263-0.145,0.357
		c-0.093,0.094-0.222,0.148-0.355,0.148H15.5z"/>
</g>
</svg>
