<svg xmlns="http://www.w3.org/2000/svg" viewBox="0 0 24 24"><defs><style>.a{fill:none;stroke:currentColor;stroke-linecap:round;stroke-linejoin:round;}</style></defs><title>love-it-warning</title><path class="a" d="M9.5,18.427,2.2,10.908A5.667,5.667,0,0,1,1.112,4.3h0A5.839,5.839,0,0,1,10.4,2.814L12,4.273l1.6-1.459A5.84,5.84,0,0,1,22.887,4.3h0a5.664,5.664,0,0,1-.711,6.2"/><line class="a" x1="17.5" y1="18.999" x2="17.5" y2="18.999"/><path class="a" d="M17.5,19a.25.25,0,1,0,.25.25A.25.25,0,0,0,17.5,19"/><line class="a" x1="17.5" y1="16.999" x2="17.5" y2="13.999"/><path class="a" d="M18.338,11a.95.95,0,0,0-1.676,0l-5.056,9.634a.923.923,0,0,0,.031.914.947.947,0,0,0,.807.449H22.556a.948.948,0,0,0,.807-.448.923.923,0,0,0,.031-.914Z"/></svg>