<svg xmlns="http://www.w3.org/2000/svg" viewBox="0 0 24 24"><defs><style>.a{fill:none;stroke:currentColor;stroke-linecap:round;stroke-linejoin:round;}</style></defs><title>love-it-hand-give</title><line class="a" x1="1" y1="23" x2="1" y2="13"/><path class="a" d="M1,15H8a3,3,0,0,1,3,3h6a3,3,0,0,1,3,3H1Z"/><line class="a" x1="11" y1="18" x2="8" y2="18"/><path class="a" d="M17.347,11.139a.477.477,0,0,1-.692,0L11.887,6.165a3.027,3.027,0,0,1-.567-3.493h0a3.026,3.026,0,0,1,4.846-.786L17,2.722l.835-.835a3.024,3.024,0,0,1,4.844.786h0a3.027,3.027,0,0,1-.567,3.493Z"/></svg>