<?xml version="1.0" encoding="utf-8"?>
<!-- Generator: Adobe Illustrator 22.1.0, SVG Export Plug-In . SVG Version: 6.00 Build 0)  -->
<svg version="1.1" id="Layer_1" xmlns="http://www.w3.org/2000/svg" xmlns:xlink="http://www.w3.org/1999/xlink" x="0px" y="0px"
	 viewBox="0 0 24 24" style="enable-background:new 0 0 24 24;" xml:space="preserve">
<g>
	<title>pencil</title>
	<path d="M0.507,24c-0.132,0-0.26-0.053-0.354-0.146c-0.135-0.135-0.181-0.331-0.121-0.511l2.121-6.364
		c0.005-0.014,0.014-0.034,0.021-0.047c0.02-0.047,0.05-0.093,0.087-0.133c0.003-0.003,0.006-0.007,0.009-0.01L18.033,1.025
		c0.661-0.639,1.524-0.989,2.433-0.989l0.065,0.001c0.935,0.016,1.807,0.396,2.457,1.068c1.317,1.364,1.317,3.5,0,4.863
		l-0.698,0.698c-0.005,0.006-0.01,0.011-0.015,0.016l-15.05,15.05c-0.01,0.01-0.021,0.019-0.033,0.028
		c-0.035,0.029-0.072,0.052-0.112,0.071c-0.001,0-0.003,0.001-0.005,0.002c-0.012,0.007-0.03,0.016-0.054,0.023l-6.356,2.118
		C0.615,23.991,0.562,24,0.507,24z M1.298,22.709l4.648-1.549l-3.099-3.099L1.298,22.709z M6.872,20.672L21.215,6.329l-3.536-3.536
		L3.336,17.136L6.872,20.672z M21.921,5.621l0.354-0.354c0.936-0.969,0.934-2.494-0.006-3.467c-0.464-0.48-1.087-0.751-1.755-0.763
		l-0.045,0c-0.65,0-1.267,0.249-1.736,0.702l-0.347,0.347L21.921,5.621z"/>
</g>
</svg>
