<svg xmlns="http://www.w3.org/2000/svg" viewBox="0 0 24 24"><defs><style>.a{fill:none;stroke:currentColor;stroke-linecap:round;stroke-linejoin:round;stroke-width:1.5px;}</style></defs><title>radio-antenna</title><line class="a" x1="3.727" y1="7.5" x2="21" y2="0.75"/><line class="a" x1="0.75" y1="13.5" x2="23.25" y2="13.5"/><path class="a" d="M4.124,9.75a.375.375,0,1,1-.374.376.375.375,0,0,1,.374-.376"/><path class="a" d="M19.874,9.75a.375.375,0,1,1-.374.376.375.375,0,0,1,.374-.376"/><line class="a" x1="15" y1="10.5" x2="16.5" y2="10.5"/><line class="a" x1="7.5" y1="10.5" x2="12" y2="10.5"/><circle class="a" cx="6" cy="18" r="2.25"/><line class="a" x1="12.75" y1="16.5" x2="18" y2="16.5"/><line class="a" x1="12.75" y1="19.5" x2="18" y2="19.5"/><rect class="a" x="0.75" y="7.5" width="22.5" height="15.75" rx="1" ry="1"/></svg>