<svg xmlns="http://www.w3.org/2000/svg" viewBox="0 0 24 24"><defs><style>.a{fill:none;stroke:currentColor;stroke-linecap:round;stroke-linejoin:round;stroke-width:1.5px;}</style></defs><title>radio-antenna-1</title><line class="a" x1="20.273" y1="6.742" x2="3" y2="0.75"/><rect class="a" x="0.75" y="6.742" width="22.5" height="16.508" rx="1" ry="1" transform="translate(24 29.992) rotate(-180)"/><path class="a" d="M11.887,17.634A4.469,4.469,0,0,1,10.292,19"/><path class="a" d="M6.86,19.271a4.658,4.658,0,0,1-1.792-1.1"/><path class="a" d="M3.75,14.992a4.587,4.587,0,0,1,.493-2.042"/><path class="a" d="M6.86,10.713a4.526,4.526,0,0,1,2.093-.161"/><path class="a" d="M11.887,12.35a4.363,4.363,0,0,1,.8,1.939"/><circle class="a" cx="18" cy="11.992" r="2.25"/><line class="a" x1="16.5" y1="17.242" x2="19.5" y2="17.242"/><line class="a" x1="16.5" y1="20.242" x2="19.5" y2="20.242"/></svg>