<?xml version="1.0" encoding="utf-8"?>
<!-- Generator: Adobe Illustrator 22.1.0, SVG Export Plug-In . SVG Version: 6.00 Build 0)  -->
<svg version="1.1" id="Layer_1" xmlns="http://www.w3.org/2000/svg" xmlns:xlink="http://www.w3.org/1999/xlink" x="0px" y="0px"
	 viewBox="0 0 24 24" style="enable-background:new 0 0 24 24;" xml:space="preserve">
<g>
	<title>list-numbers</title>
	<path d="M6.5,4.998c-0.276,0-0.5-0.224-0.5-0.5s0.224-0.5,0.5-0.5h17c0.276,0,0.5,0.224,0.5,0.5s-0.224,0.5-0.5,0.5H6.5z"/>
	<path d="M6.5,12.998c-0.276,0-0.5-0.224-0.5-0.5c0-0.276,0.224-0.5,0.5-0.5h17c0.276,0,0.5,0.224,0.5,0.5
		c0,0.276-0.224,0.5-0.5,0.5H6.5z"/>
	<path d="M6.5,20.998c-0.276,0-0.5-0.224-0.5-0.5s0.224-0.5,0.5-0.5h17c0.276,0,0.5,0.224,0.5,0.5s-0.224,0.5-0.5,0.5H6.5z"/>
	<path d="M1.46,23c-0.671-0.001-1.264-0.454-1.443-1.1c-0.036-0.129-0.019-0.263,0.047-0.38s0.173-0.2,0.302-0.236
		c0.044-0.012,0.089-0.018,0.133-0.018c0.224,0,0.422,0.151,0.482,0.366C1.041,21.849,1.239,22,1.462,22
		c0.276,0,0.501-0.224,0.501-0.499c0-0.134-0.051-0.259-0.146-0.354C1.724,21.053,1.598,21,1.465,21c-0.276,0-0.5-0.225-0.499-0.5
		S1.19,20,1.465,20c0.225,0,0.423-0.152,0.482-0.369c0.035-0.129,0.017-0.264-0.049-0.38c-0.066-0.116-0.174-0.199-0.303-0.233
		C1.552,19.006,1.508,19,1.464,19c-0.225,0-0.423,0.152-0.482,0.37c-0.059,0.218-0.258,0.37-0.483,0.37
		c-0.043,0-0.087-0.006-0.129-0.017c-0.267-0.073-0.425-0.348-0.353-0.614C0.193,18.456,0.79,18,1.467,18
		c0.131,0,0.262,0.017,0.389,0.052c0.387,0.105,0.71,0.354,0.91,0.701c0.199,0.347,0.252,0.752,0.147,1.138
		c-0.061,0.226-0.176,0.435-0.331,0.609c0.248,0.276,0.383,0.629,0.382,1.003C2.961,22.329,2.288,23,1.463,23H1.46z"/>
	<path d="M0.5,15c-0.191,0-0.368-0.111-0.451-0.284c-0.083-0.172-0.059-0.38,0.06-0.529l1.688-2.109C1.928,11.915,2,11.71,2,11.5
		C2,11.224,1.775,11,1.5,11S1,11.224,1,11.5S0.775,12,0.5,12S0,11.776,0,11.5C0,10.673,0.672,10,1.5,10S3,10.673,3,11.5
		c0,0.435-0.15,0.863-0.421,1.203L1.54,14H2.5C2.775,14,3,14.224,3,14.5S2.775,15,2.5,15H0.5z"/>
	<path d="M1.468,6.998l-0.969,0c-0.276,0-0.5-0.224-0.5-0.5s0.224-0.5,0.5-0.5H1V3H0.5C0.224,3,0,2.776,0,2.5S0.224,2,0.5,2H1
		c0.551,0,1,0.449,1,1v2.998h0.5c0.276,0,0.5,0.224,0.5,0.5s-0.224,0.5-0.5,0.5H1.53C1.519,6.999,1.509,7,1.5,7
		C1.49,7,1.479,6.999,1.468,6.998z"/>
</g>
</svg>
