<?xml version="1.0" encoding="utf-8"?>
<!-- Generator: Adobe Illustrator 22.1.0, SVG Export Plug-In . SVG Version: 6.00 Build 0)  -->
<svg version="1.1" id="Layer_1" xmlns="http://www.w3.org/2000/svg" xmlns:xlink="http://www.w3.org/1999/xlink" x="0px" y="0px"
	 viewBox="0 0 24 24" style="enable-background:new 0 0 24 24;" xml:space="preserve">
<g>
	<title>iris-scan-denied</title>
	<path d="M17.503,24c-3.584,0-6.5-2.916-6.5-6.5s2.916-6.5,6.5-6.5s6.5,2.916,6.5,6.5S21.087,24,17.503,24z M17.503,12
		c-3.033,0-5.5,2.467-5.5,5.5s2.467,5.5,5.5,5.5s5.5-2.467,5.5-5.5S20.536,12,17.503,12z"/>
	<path d="M19.624,20.122c-0.134,0-0.259-0.052-0.354-0.146l-1.767-1.768l-1.768,1.768c-0.094,0.094-0.22,0.146-0.354,0.146
		s-0.259-0.052-0.354-0.146c-0.195-0.195-0.195-0.512,0-0.707l1.768-1.768l-1.768-1.768c-0.195-0.195-0.195-0.512,0-0.707
		c0.094-0.094,0.22-0.146,0.354-0.146s0.259,0.052,0.354,0.146l1.768,1.768l1.767-1.768c0.094-0.094,0.22-0.146,0.354-0.146
		s0.259,0.052,0.354,0.146s0.146,0.22,0.146,0.354s-0.052,0.259-0.146,0.354L18.21,17.5l1.768,1.768
		c0.195,0.195,0.195,0.512,0,0.707C19.883,20.07,19.757,20.122,19.624,20.122z"/>
	<path d="M12.003,11c-2.206,0-4-1.794-4-4s1.794-4,4-4s4,1.794,4,4S14.208,11,12.003,11z M12.003,4c-1.654,0-3,1.346-3,3
		s1.346,3,3,3c1.654,0,3-1.346,3-3S13.657,4,12.003,4z"/>
	<path d="M12.003,9c-1.103,0-2-0.897-2-2c0-0.276,0.224-0.5,0.5-0.5s0.5,0.224,0.5,0.5c0,0.551,0.449,1,1,1c0.552,0,1-0.449,1-1
		s-0.448-1-1-1c-0.276,0-0.5-0.224-0.5-0.5s0.224-0.5,0.5-0.5c1.103,0,2,0.897,2,2S13.106,9,12.003,9z"/>
	<path d="M10.627,13.903c-0.024,0-0.047-0.001-0.071-0.005C5.47,13.188,1.383,8.943,0.252,7.659
		C-0.075,7.283-0.076,6.718,0.25,6.344C1.562,4.855,6.283,0,12.003,0c5.719,0,10.44,4.854,11.751,6.341
		c0.327,0.376,0.328,0.941,0.002,1.315c-0.907,1.018-1.906,1.962-2.972,2.807c-0.088,0.07-0.198,0.108-0.31,0.108
		c-0.153,0-0.296-0.069-0.392-0.189c-0.171-0.216-0.135-0.531,0.081-0.703c1.021-0.809,1.977-1.712,2.842-2.684
		C21.762,5.594,17.303,1,12.003,1S2.243,5.594,1.002,7.003c1.075,1.215,4.947,5.243,9.694,5.905c0.132,0.018,0.249,0.087,0.33,0.194
		c0.08,0.106,0.115,0.238,0.096,0.371C11.088,13.718,10.875,13.903,10.627,13.903z"/>
</g>
</svg>
