<?xml version="1.0" encoding="utf-8"?>
<!-- Generator: Adobe Illustrator 22.1.0, SVG Export Plug-In . SVG Version: 6.00 Build 0)  -->
<svg version="1.1" id="Layer_1" xmlns="http://www.w3.org/2000/svg" xmlns:xlink="http://www.w3.org/1999/xlink" x="0px" y="0px"
	 viewBox="0 0 24 24" style="enable-background:new 0 0 24 24;" xml:space="preserve">
<g>
	<title>iris-scan-search</title>
	<path d="M23.503,24c-0.134,0-0.259-0.052-0.354-0.146l-2.937-2.936c-0.9,0.739-2.021,1.143-3.181,1.143
		c-2.774,0-5.03-2.256-5.03-5.03S14.258,12,17.032,12s5.03,2.256,5.03,5.03c0,1.16-0.404,2.28-1.142,3.18l2.937,2.937
		c0.195,0.195,0.195,0.512,0,0.707C23.762,23.948,23.636,24,23.503,24z M17.032,13c-2.222,0-4.03,1.808-4.03,4.03
		s1.808,4.03,4.03,4.03s4.03-1.808,4.03-4.03S19.254,13,17.032,13z"/>
	<path d="M12.003,11c-2.206,0-4-1.794-4-4s1.794-4,4-4s4,1.794,4,4S14.208,11,12.003,11z M12.003,4c-1.654,0-3,1.346-3,3
		s1.346,3,3,3c1.654,0,3-1.346,3-3S13.657,4,12.003,4z"/>
	<path d="M12.003,9c-1.103,0-2-0.897-2-2c0-0.276,0.224-0.5,0.5-0.5s0.5,0.224,0.5,0.5c0,0.551,0.449,1,1,1c0.552,0,1-0.449,1-1
		s-0.448-1-1-1c-0.276,0-0.5-0.224-0.5-0.5s0.224-0.5,0.5-0.5c1.103,0,2,0.897,2,2S13.105,9,12.003,9z"/>
	<path d="M11.505,13.987C6,13.72,1.499,9.076,0.251,7.659c-0.327-0.376-0.327-0.941-0.002-1.315C1.561,4.855,6.283,0,12.003,0
		c5.709,0,10.438,4.851,11.751,6.338c0.327,0.376,0.328,0.941,0.003,1.315c-1.234,1.388-2.631,2.626-4.153,3.683
		c-0.084,0.058-0.183,0.089-0.285,0.089c-0.164,0-0.318-0.081-0.411-0.216c-0.076-0.109-0.105-0.242-0.081-0.374
		c0.024-0.131,0.097-0.246,0.207-0.322c1.458-1.011,2.794-2.196,3.973-3.521C21.76,5.591,17.294,1,12.003,1
		c-5.3,0-9.76,4.594-11.001,6.003c1.183,1.339,5.439,5.738,10.555,5.986c0.275,0.014,0.488,0.249,0.475,0.524
		c-0.013,0.267-0.232,0.476-0.499,0.476C11.528,13.988,11.51,13.988,11.505,13.987z"/>
</g>
</svg>
