<?xml version="1.0" encoding="utf-8"?>
<!-- Generator: Adobe Illustrator 22.1.0, SVG Export Plug-In . SVG Version: 6.00 Build 0)  -->
<svg version="1.1" id="Regular" xmlns="http://www.w3.org/2000/svg" xmlns:xlink="http://www.w3.org/1999/xlink" x="0px" y="0px"
	 viewBox="0 0 24 24" style="enable-background:new 0 0 24 24;" xml:space="preserve">
<title>single-woman-focus</title>
<g>
	<path d="M0.75,7.501C0.336,7.501,0,7.165,0,6.751V2.25C0,1.009,1.009,0,2.25,0h4.5C7.164,0,7.5,0.336,7.5,0.75S7.164,1.5,6.75,1.5
		h-4.5C1.836,1.5,1.5,1.836,1.5,2.25v4.501C1.5,7.165,1.164,7.501,0.75,7.501z"/>
	<path d="M23.25,7.501c-0.414,0-0.75-0.336-0.75-0.75V2.25c0-0.414-0.336-0.75-0.75-0.75h-4.5c-0.414,0-0.75-0.336-0.75-0.75
		S16.836,0,17.25,0h4.5C22.991,0,24,1.009,24,2.25v4.501C24,7.165,23.664,7.501,23.25,7.501z"/>
	<path d="M2.25,24C1.009,24,0,22.991,0,21.75v-4.5c0-0.414,0.336-0.75,0.75-0.75s0.75,0.336,0.75,0.75v4.5
		c0,0.414,0.336,0.75,0.75,0.75h4.5c0.414,0,0.75,0.336,0.75,0.75S7.164,24,6.75,24H2.25z"/>
	<path d="M17.25,24c-0.414,0-0.75-0.336-0.75-0.75s0.336-0.75,0.75-0.75h4.5c0.414,0,0.75-0.336,0.75-0.75v-4.5
		c0-0.414,0.336-0.75,0.75-0.75S24,16.836,24,17.25v4.5c0,1.241-1.009,2.25-2.25,2.25H17.25z"/>
	<path d="M12,13.5c-1.511,0-2.92-0.701-3.836-1.87c-0.14,0.351-0.309,0.691-0.506,1.015c-0.135,0.222-0.381,0.36-0.641,0.36
		c-0.137,0-0.271-0.038-0.389-0.109c-0.354-0.215-0.467-0.677-0.252-1.031c0.528-0.868,0.791-1.864,0.762-2.879
		c-0.001-0.01,0-0.012,0-0.028c0-0.008,0.001-0.019,0.001-0.031L7.138,8.91C7.131,8.815,7.125,8.721,7.125,8.625
		C7.125,5.937,9.312,3.75,12,3.75c2.688,0,4.875,2.187,4.875,4.875c0,0.095-0.006,0.188-0.013,0.281l-0.001,0.019
		c0.001,0.009,0.001,0.046,0.001,0.053c-0.028,1.026,0.235,2.02,0.762,2.887c0.215,0.354,0.102,0.816-0.251,1.031
		c-0.118,0.072-0.252,0.109-0.389,0.109c-0.264,0-0.503-0.135-0.641-0.36c-0.197-0.324-0.366-0.664-0.506-1.015
		C14.92,12.799,13.511,13.5,12,13.5z M8.781,9.633C9.216,11.026,10.511,12,12,12c1.489,0,2.784-0.974,3.219-2.367
		C14.022,9.452,12.902,8.927,12,8.122C11.098,8.927,9.978,9.452,8.781,9.633z M12,5.25c-1.681,0-3.095,1.258-3.336,2.883
		C9.74,7.947,10.711,7.4,11.432,6.565C11.572,6.404,11.779,6.311,12,6.311c0.222,0,0.428,0.093,0.568,0.254
		c0.722,0.835,1.692,1.382,2.769,1.568C15.095,6.508,13.681,5.25,12,5.25z"/>
	<path d="M18.336,19.5c-0.318,0-0.603-0.202-0.708-0.503C16.794,16.606,14.53,15,11.995,15c-0.666,0-1.325,0.112-1.96,0.333
		c-1.726,0.603-3.061,1.938-3.664,3.664C6.266,19.298,5.982,19.5,5.663,19.5c-0.085,0-0.168-0.014-0.248-0.042
		c-0.188-0.066-0.34-0.201-0.428-0.382c-0.087-0.18-0.099-0.384-0.032-0.573c0.754-2.16,2.426-3.832,4.586-4.586
		c0.793-0.277,1.619-0.417,2.453-0.417c3.173,0,6.007,2.011,7.051,5.003c0.066,0.189,0.055,0.393-0.032,0.573
		c-0.087,0.181-0.24,0.316-0.429,0.382C18.505,19.486,18.422,19.5,18.336,19.5C18.337,19.5,18.337,19.5,18.336,19.5z"/>
</g>
</svg>
