<?xml version="1.0" encoding="utf-8"?>
<!-- Generator: Adobe Illustrator 22.1.0, SVG Export Plug-In . SVG Version: 6.00 Build 0)  -->
<svg version="1.1" id="Regular" xmlns="http://www.w3.org/2000/svg" xmlns:xlink="http://www.w3.org/1999/xlink" x="0px" y="0px"
	 viewBox="0 0 24 24" style="enable-background:new 0 0 24 24;" xml:space="preserve">
<title>single-woman-news</title>
<g>
	<path d="M4.5,22.5c-0.414,0-0.75-0.336-0.75-0.75S4.086,21,4.5,21h6.75v-1.5H3c-1.241,0-2.25-1.009-2.25-2.25V3.75
		C0.75,2.509,1.759,1.5,3,1.5h18c1.241,0,2.25,1.009,2.25,2.25v13.5c0,1.241-1.009,2.25-2.25,2.25h-8.25V21h6.75
		c0.414,0,0.75,0.336,0.75,0.75s-0.336,0.75-0.75,0.75H4.5z M3,3C2.586,3,2.25,3.336,2.25,3.75v13.5C2.25,17.664,2.586,18,3,18h18
		c0.414,0,0.75-0.336,0.75-0.75V3.75C21.75,3.336,21.414,3,21,3H3z"/>
	<path d="M4.5,10.5c-0.414,0-0.75-0.336-0.75-0.75v-4.5c0-0.414,0.336-0.75,0.75-0.75H9c0.414,0,0.75,0.336,0.75,0.75v4.5
		c0,0.414-0.336,0.75-0.75,0.75H4.5z M8.25,9V6h-3v3H8.25z"/>
	<path d="M19.224,16.5c-0.316,0-0.6-0.2-0.707-0.498c-0.272-0.763-0.783-1.415-1.453-1.863l-1.453,2.045
		c-0.136,0.192-0.365,0.306-0.611,0.306s-0.475-0.115-0.611-0.306l-1.453-2.045c-0.671,0.448-1.182,1.1-1.454,1.863
		c-0.106,0.298-0.39,0.498-0.706,0.498c-0.086,0-0.171-0.015-0.252-0.044c-0.189-0.067-0.34-0.204-0.426-0.385
		c-0.086-0.181-0.096-0.385-0.028-0.573c0.477-1.334,1.49-2.435,2.78-3.021c0.099-0.045,0.203-0.067,0.311-0.067
		c0.242,0,0.471,0.118,0.611,0.315L15,14.455l1.23-1.731c0.141-0.198,0.369-0.316,0.611-0.316c0.108,0,0.213,0.023,0.312,0.068
		c1.289,0.585,2.302,1.687,2.778,3.021c0.067,0.189,0.057,0.392-0.029,0.573c-0.086,0.181-0.237,0.318-0.426,0.385
		C19.395,16.485,19.31,16.5,19.224,16.5L19.224,16.5z"/>
	<path d="M20.25,12.75c-0.674,0-1.847-0.264-2.521-1.933C17.027,11.568,16.05,12,15,12s-2.027-0.432-2.729-1.183
		c-0.674,1.669-1.847,1.933-2.521,1.933C9.336,12.75,9,12.414,9,12s0.336-0.75,0.75-0.75c1.444,0,1.5-2.971,1.5-3.001
		C11.25,6.182,12.933,4.5,15,4.5s3.75,1.682,3.75,3.75c0,0.029,0.055,3,1.5,3c0.414,0,0.75,0.336,0.75,0.75
		S20.664,12.75,20.25,12.75z M15,6c-1.241,0-2.25,1.009-2.25,2.25S13.759,10.5,15,10.5s2.25-1.009,2.25-2.25S16.241,6,15,6z"/>
</g>
</svg>
