<?xml version="1.0" encoding="utf-8"?>
<!-- Generator: Adobe Illustrator 22.1.0, SVG Export Plug-In . SVG Version: 6.00 Build 0)  -->
<svg version="1.1" id="Regular" xmlns="http://www.w3.org/2000/svg" xmlns:xlink="http://www.w3.org/1999/xlink" x="0px" y="0px"
	 viewBox="0 0 24 24" style="enable-background:new 0 0 24 24;" xml:space="preserve">
<title>single-woman</title>
<g>
	<path d="M12.001,16.501c-3.308,0-6-2.692-6-6c0-0.414,0.336-0.75,0.75-0.75c2.481-0.001,4.5-2.019,4.5-4.5
		c0-0.413,0.336-0.75,0.75-0.75s0.75,0.336,0.75,0.75c0,2.481,2.019,4.5,4.5,4.5c0.414,0,0.75,0.336,0.75,0.75
		C18.001,13.809,15.309,16.501,12.001,16.501z M7.555,11.197c0.338,2.16,2.224,3.804,4.446,3.804s4.109-1.644,4.446-3.804
		c-1.878-0.254-3.532-1.396-4.447-3.044C11.086,9.801,9.432,10.942,7.555,11.197z"/>
	<path d="M2.525,24.001c-0.112,0-0.22-0.025-0.322-0.073c-0.18-0.085-0.317-0.236-0.384-0.425c-0.067-0.189-0.057-0.392,0.028-0.573
		c0.626-1.323,1.522-2.527,2.614-3.517c-0.68-0.19-1.345-0.426-1.986-0.705c-1.12-0.503-1.635-1.823-1.153-2.945l1.375-3.209
		c0.201-0.47,0.303-0.967,0.303-1.478V9.001c0-4.963,4.037-9,9-9s9,4.037,9,9v2.076c0,0.511,0.102,1.008,0.303,1.478l1.376,3.21
		c0.482,1.121-0.031,2.44-1.145,2.94c-0.645,0.281-1.312,0.517-1.992,0.707c1.096,0.989,1.973,2.169,2.611,3.518
		c0.086,0.181,0.096,0.385,0.028,0.574s-0.205,0.34-0.385,0.425c-0.1,0.048-0.208,0.072-0.32,0.072
		c-0.289,0-0.555-0.169-0.678-0.429c-1.601-3.384-5.061-5.57-8.814-5.57c-1.441,0-2.836,0.314-4.146,0.934
		c-2.03,0.96-3.676,2.607-4.636,4.636C3.079,23.833,2.813,24.001,2.525,24.001z M11.981,16.502c2.129,0,4.202,0.599,6.007,1.733
		c1.018-0.193,2.006-0.496,2.94-0.902c0.365-0.164,0.534-0.603,0.373-0.977l-1.376-3.211c-0.282-0.657-0.425-1.353-0.425-2.068
		V9.001c0-4.135-3.365-7.5-7.5-7.5s-7.5,3.365-7.5,7.5v2.076c0,0.715-0.143,1.411-0.425,2.068L2.7,16.355
		c-0.161,0.375,0.01,0.815,0.381,0.981c0.925,0.402,1.911,0.705,2.928,0.897c0.385-0.243,0.784-0.463,1.188-0.654
		C8.709,16.865,10.318,16.502,11.981,16.502z"/>
</g>
</svg>
