<?xml version="1.0" encoding="utf-8"?>
<!-- Generator: Adobe Illustrator 22.1.0, SVG Export Plug-In . SVG Version: 6.00 Build 0)  -->
<svg version="1.1" id="Layer_1" xmlns="http://www.w3.org/2000/svg" xmlns:xlink="http://www.w3.org/1999/xlink" x="0px" y="0px"
	 viewBox="0 0 24 24" style="enable-background:new 0 0 24 24;" xml:space="preserve">
<title>alarm-bell-sleep</title>
<g>
	<path d="M20.25,5.251c-0.287,0-0.552-0.167-0.676-0.425c-0.124-0.258-0.089-0.569,0.091-0.793l2.025-2.531H20.25
		c-0.414,0-0.75-0.336-0.75-0.75s0.336-0.75,0.75-0.75h3c0.287,0,0.552,0.167,0.676,0.425c0.124,0.258,0.089,0.569-0.091,0.793
		l-2.025,2.531h1.439c0.414,0,0.75,0.336,0.75,0.75s-0.336,0.75-0.75,0.75H20.25z"/>
	<path d="M14.25,12.001c-0.29,0-0.556-0.169-0.679-0.432c-0.123-0.262-0.083-0.576,0.103-0.799l2.725-3.27H14.25
		c-0.414,0-0.75-0.336-0.75-0.75s0.336-0.75,0.75-0.75H18c0.29,0,0.556,0.169,0.679,0.432c0.123,0.262,0.083,0.576-0.103,0.799
		l-2.725,3.27H18c0.414,0,0.75,0.336,0.75,0.75s-0.336,0.75-0.75,0.75H14.25z"/>
	<path d="M9.747,24.001c-0.47,0-0.939-0.12-1.356-0.348c-0.665-0.363-1.149-0.964-1.362-1.691c-0.116-0.397,0.112-0.815,0.509-0.931
		c0.069-0.02,0.14-0.03,0.211-0.03c0.33,0,0.626,0.221,0.719,0.538c0.101,0.343,0.329,0.626,0.642,0.797
		c0.197,0.107,0.417,0.164,0.638,0.164c0.127,0,0.255-0.019,0.38-0.055c0.438-0.129,0.777-0.468,0.906-0.906
		c0.093-0.317,0.389-0.539,0.72-0.539c0.071,0,0.142,0.01,0.21,0.03c0.398,0.117,0.626,0.534,0.51,0.931
		c-0.274,0.931-0.992,1.65-1.923,1.923C10.287,23.962,10.017,24.001,9.747,24.001z"/>
	<path d="M0.75,19.501c-0.274,0-0.526-0.149-0.657-0.389c-0.132-0.24-0.122-0.532,0.024-0.763C0.128,18.331,1.5,16.003,1.5,10.501
		c0-4.293,3.266-7.835,7.5-8.216V0.751c0-0.414,0.336-0.75,0.75-0.75s0.75,0.336,0.75,0.75v1.54
		c0.969,0.095,1.928,0.364,2.794,0.786c0.371,0.181,0.526,0.631,0.346,1.003c-0.127,0.26-0.385,0.422-0.675,0.422
		c-0.113,0-0.226-0.026-0.328-0.076c-0.896-0.436-1.895-0.67-2.89-0.674C6.027,3.751,3,6.779,3,10.501
		c0,3.812-0.609,6.207-1.087,7.5h15.623c-0.386-0.895-0.647-1.839-0.779-2.812c-0.027-0.198,0.025-0.396,0.146-0.555
		c0.121-0.159,0.297-0.262,0.496-0.289c0.033-0.005,0.068-0.007,0.103-0.007c0.372,0,0.691,0.279,0.741,0.65
		c0.162,1.2,0.552,2.34,1.156,3.388c0.134,0.231,0.134,0.519,0,0.75c-0.133,0.231-0.382,0.375-0.649,0.375H0.75z"/>
</g>
</svg>
