<svg xmlns="http://www.w3.org/2000/svg" viewBox="0 0 24 24"><defs><style>.a{fill:none;stroke:currentColor;stroke-linecap:round;stroke-linejoin:round;}</style></defs><title>iris-scan-smartphone</title><line class="a" x1="19" y1="19.5" x2="6" y2="19.5"/><path class="a" d="M12.5,21.25h0a.25.25,0,0,1,.25.25h0a.25.25,0,0,1-.25.25h0a.25.25,0,0,1-.25-.25h0a.25.25,0,0,1,.25-.25"/><rect class="a" x="6" y="0.5" width="13" height="23" rx="2" ry="2"/><circle class="a" cx="12.5" cy="11" r="1.5"/><path class="a" d="M16.97,10.833a.48.48,0,0,1,0,.334A4.828,4.828,0,0,1,12.5,14.5a4.828,4.828,0,0,1-4.47-3.333.48.48,0,0,1,0-.334A4.829,4.829,0,0,1,12.5,7.5,4.829,4.829,0,0,1,16.97,10.833Z"/></svg>