<svg xmlns="http://www.w3.org/2000/svg" viewBox="0 0 24 24"><defs><style>.a{fill:none;stroke:currentColor;stroke-linecap:round;stroke-linejoin:round;}</style></defs><title>iris-scan-search</title><path class="a" d="M21.559,17.03a4.53,4.53,0,1,1-4.53-4.53A4.53,4.53,0,0,1,21.559,17.03Z"/><line class="a" x1="23.5" y1="23.5" x2="20.232" y2="20.232"/><circle class="a" cx="12" cy="7" r="3.5"/><path class="a" d="M12,5.5A1.5,1.5,0,1,1,10.5,7"/><path class="a" d="M19.315,10.925a22.883,22.883,0,0,0,4.061-3.6.5.5,0,0,0,0-.656C22.213,5.352,17.562.5,12,.5S1.787,5.352.624,6.672a.5.5,0,0,0,0,.656c1.13,1.283,5.554,5.9,10.906,6.16"/></svg>