<?xml version="1.0" encoding="utf-8"?>
<!-- Generator: Adobe Illustrator 22.1.0, SVG Export Plug-In . SVG Version: 6.00 Build 0)  -->
<svg version="1.1" id="Layer_1" xmlns="http://www.w3.org/2000/svg" xmlns:xlink="http://www.w3.org/1999/xlink" x="0px" y="0px"
	 viewBox="0 0 24 24" style="enable-background:new 0 0 24 24;" xml:space="preserve">
<title>bookmarks-document</title>
<g>
	<path d="M2.25,23.999c-1.241,0-2.25-1.009-2.25-2.25v-18c0-1.241,1.009-2.25,2.25-2.25H4.5C4.5,1.1,4.655,0.723,4.938,0.44
		C5.221,0.156,5.597,0,5.998-0.001H10.5c0.827,0,1.5,0.673,1.5,1.5h9.75c1.241,0,2.25,1.009,2.25,2.25v18
		c0,1.241-1.009,2.25-2.25,2.25H2.25z M2.25,2.999c-0.414,0-0.75,0.336-0.75,0.75v18c0,0.414,0.336,0.75,0.75,0.75h19.5
		c0.414,0,0.75-0.336,0.75-0.75v-18c0-0.414-0.336-0.75-0.75-0.75H12v8.25c0,0.286-0.159,0.543-0.414,0.671
		c-0.104,0.052-0.219,0.079-0.335,0.079c-0.161,0-0.321-0.053-0.45-0.15L8.25,9.938L5.7,11.85C5.571,11.947,5.411,12,5.25,12
		c-0.116,0-0.232-0.027-0.335-0.079C4.659,11.793,4.5,11.536,4.5,11.25V2.999H2.25z M5.999,1.499L6,9.75L7.8,8.4
		c0.131-0.098,0.286-0.15,0.45-0.15c0.163,0,0.319,0.052,0.45,0.15l1.8,1.349v-8.25H6L5.999,1.499z"/>
	<path d="M5.25,19.499c-0.414,0-0.75-0.336-0.75-0.75s0.336-0.75,0.75-0.75h10.5c0.414,0,0.75,0.336,0.75,0.75
		s-0.336,0.75-0.75,0.75H5.25z"/>
	<path d="M5.25,14.999c-0.414,0-0.75-0.336-0.75-0.75s0.336-0.75,0.75-0.75h13.5c0.414,0,0.75,0.336,0.75,0.75
		s-0.336,0.75-0.75,0.75H5.25z"/>
	<path d="M14.25,10.499c-0.414,0-0.75-0.336-0.75-0.75s0.336-0.75,0.75-0.75h4.5c0.414,0,0.75,0.336,0.75,0.75
		s-0.336,0.75-0.75,0.75H14.25z"/>
</g>
</svg>
