<?xml version="1.0" encoding="utf-8"?>
<!-- Generator: Adobe Illustrator 22.1.0, SVG Export Plug-In . SVG Version: 6.00 Build 0)  -->
<svg version="1.1" id="Layer_1" xmlns="http://www.w3.org/2000/svg" xmlns:xlink="http://www.w3.org/1999/xlink" x="0px" y="0px"
	 viewBox="0 0 24 24" style="enable-background:new 0 0 24 24;" xml:space="preserve">
<title>bookmarks-2</title>
<g>
	<path d="M14.25,23.7c-0.281,0-0.556-0.079-0.794-0.228L9,20.685l-4.455,2.784c-0.239,0.149-0.513,0.228-0.793,0.228
		c-0.114,0-0.228-0.013-0.34-0.039c-0.391-0.091-0.723-0.328-0.935-0.668c-0.147-0.237-0.226-0.509-0.227-0.787V5.55
		c0-2.895,2.355-5.25,5.25-5.25h9c2.895,0,5.25,2.355,5.25,5.25V9.3c0,0.827-0.673,1.5-1.5,1.5h-4.5v11.4
		c0,0.401-0.156,0.777-0.44,1.061C15.027,23.544,14.65,23.7,14.25,23.7L14.25,23.7z M9,19.05c0.141,0,0.279,0.04,0.398,0.114
		l4.853,3.036L14.25,5.55c0-1.241,1.009-2.25,2.25-2.25c0.414,0,0.75,0.336,0.75,0.75S16.914,4.8,16.5,4.8s-0.75,0.336-0.75,0.75
		V9.3h4.5V5.55c0-2.068-1.682-3.75-3.75-3.75h-9c-2.068,0-3.75,1.682-3.75,3.75V22.2l4.853-3.036C8.722,19.089,8.86,19.05,9,19.05z"
		/>
</g>
</svg>
