<?xml version="1.0" encoding="utf-8"?>
<!-- Generator: Adobe Illustrator 22.1.0, SVG Export Plug-In . SVG Version: 6.00 Build 0)  -->
<svg version="1.1" id="Layer_1" xmlns="http://www.w3.org/2000/svg" xmlns:xlink="http://www.w3.org/1999/xlink" x="0px" y="0px"
	 viewBox="0 0 24 24" style="enable-background:new 0 0 24 24;" xml:space="preserve">
<title>tags-search</title>
<g>
	<path d="M8.006,20.376c-0.602,0-1.167-0.234-1.591-0.658L1.036,14.34c-0.874-0.873-0.877-2.298-0.007-3.175L11.536,0.658
		c0.425-0.425,0.99-0.659,1.59-0.659h5.376c1.241,0,2.25,1.009,2.25,2.25v5.379c0,0.601-0.235,1.166-0.66,1.59
		c-0.142,0.142-0.33,0.219-0.531,0.219s-0.389-0.078-0.531-0.22c-0.292-0.292-0.292-0.768,0-1.06c0.142-0.142,0.22-0.33,0.22-0.53
		V2.249c0-0.414-0.336-0.75-0.75-0.75h-5.375c-0.201,0-0.389,0.078-0.531,0.219L2.101,12.213c-0.298,0.298-0.297,0.774-0.005,1.067
		l5.379,5.378c0.141,0.141,0.33,0.219,0.53,0.219c0.201,0,0.389-0.078,0.53-0.219c0.142-0.142,0.33-0.22,0.53-0.22
		s0.389,0.078,0.53,0.22c0.142,0.142,0.22,0.33,0.22,0.53s-0.078,0.389-0.22,0.53C9.172,20.143,8.607,20.376,8.006,20.376z"/>
	<path d="M16.256,5.624c-0.62,0-1.125-0.505-1.125-1.125s0.505-1.125,1.125-1.125c0.304,0.001,0.586,0.118,0.798,0.331
		c0.212,0.213,0.328,0.496,0.327,0.796C17.381,5.12,16.876,5.624,16.256,5.624z"/>
	<path d="M22.877,23.999c-0.2,0-0.389-0.078-0.53-0.22l-2.543-2.543c-1.051,0.817-2.343,1.263-3.677,1.263c-3.308,0-6-2.692-6-6
		s2.692-6,6-6s6,2.692,6,6c0,1.333-0.446,2.626-1.263,3.677l2.543,2.543c0.292,0.292,0.292,0.768,0,1.061
		C23.266,23.921,23.077,23.999,22.877,23.999z M16.127,11.999c-2.481,0-4.5,2.019-4.5,4.5s2.019,4.5,4.5,4.5s4.5-2.019,4.5-4.5
		S18.608,11.999,16.127,11.999z"/>
</g>
</svg>
