<?xml version="1.0" encoding="utf-8"?>
<!-- Generator: Adobe Illustrator 22.1.0, SVG Export Plug-In . SVG Version: 6.00 Build 0)  -->
<svg version="1.1" id="Layer_1" xmlns="http://www.w3.org/2000/svg" xmlns:xlink="http://www.w3.org/1999/xlink" x="0px" y="0px"
	 viewBox="0 0 24 24" style="enable-background:new 0 0 24 24;" xml:space="preserve">
<title>tags-download</title>
<g>
	<path d="M7.942,20.376c-0.601,0-1.166-0.234-1.591-0.658L0.972,14.34c-0.874-0.874-0.877-2.298-0.007-3.175L11.472,0.658
		c0.425-0.425,0.99-0.659,1.59-0.659h5.379c1.241,0,2.25,1.009,2.25,2.25v5.379c0,0.601-0.234,1.166-0.659,1.59
		c-0.142,0.142-0.33,0.22-0.53,0.22s-0.388-0.078-0.53-0.219c-0.142-0.142-0.22-0.33-0.22-0.531c0-0.2,0.078-0.389,0.22-0.53
		c0.139-0.139,0.219-0.332,0.219-0.53V2.249c0-0.414-0.336-0.75-0.75-0.75h-5.378c-0.201,0-0.389,0.078-0.531,0.219L2.038,12.213
		c-0.147,0.147-0.225,0.335-0.224,0.536c0,0.201,0.078,0.389,0.219,0.531l5.379,5.378c0.141,0.141,0.329,0.219,0.53,0.219
		c0.201,0,0.389-0.078,0.53-0.219c0.142-0.142,0.33-0.22,0.53-0.22s0.389,0.078,0.53,0.22c0.142,0.142,0.22,0.33,0.22,0.53
		s-0.078,0.389-0.22,0.53C9.108,20.143,8.544,20.376,7.942,20.376z"/>
	<circle cx="16.192" cy="4.499" r="1.125"/>
	<path d="M16.942,23.999c-3.722,0-6.75-3.028-6.75-6.75s3.028-6.75,6.75-6.75s6.75,3.028,6.75,6.75S20.664,23.999,16.942,23.999z
		 M16.942,11.999c-2.895,0-5.25,2.355-5.25,5.25s2.355,5.25,5.25,5.25s5.25-2.355,5.25-5.25S19.836,11.999,16.942,11.999z"/>
	<path d="M16.942,20.999c-0.087,0-0.174-0.016-0.258-0.046c-0.006-0.002-0.011-0.004-0.017-0.006
		c-0.104-0.042-0.186-0.097-0.256-0.167l-2.25-2.25c-0.292-0.292-0.292-0.768,0-1.061c0.142-0.142,0.33-0.22,0.53-0.22
		s0.389,0.078,0.53,0.22l0.97,0.97v-4.189c0-0.414,0.336-0.75,0.75-0.75s0.75,0.336,0.75,0.75v4.189l0.97-0.97
		c0.142-0.142,0.33-0.22,0.53-0.22s0.389,0.078,0.53,0.22c0.292,0.292,0.292,0.768,0,1.061l-2.25,2.25
		c-0.07,0.07-0.152,0.125-0.245,0.163c-0.008,0.003-0.017,0.007-0.026,0.01C17.12,20.983,17.031,20.999,16.942,20.999z"/>
</g>
</svg>
