<?xml version="1.0" encoding="utf-8"?>
<!-- Generator: Adobe Illustrator 22.1.0, SVG Export Plug-In . SVG Version: 6.00 Build 0)  -->
<svg version="1.1" id="Layer_1" xmlns="http://www.w3.org/2000/svg" xmlns:xlink="http://www.w3.org/1999/xlink" x="0px" y="0px"
	 viewBox="0 0 24 24" style="enable-background:new 0 0 24 24;" xml:space="preserve">
<title>tags-favorite-star</title>
<g>
	<path d="M7.953,20.377c-0.602,0-1.167-0.234-1.591-0.658l-5.379-5.378c-0.424-0.424-0.658-0.989-0.659-1.591
		s0.233-1.167,0.658-1.591L11.483,0.658C11.908,0.234,12.473,0,13.074,0h5.379c1.241,0,2.25,1.009,2.25,2.25v5.379
		c0,0.6-0.234,1.165-0.658,1.59c-0.142,0.142-0.33,0.22-0.531,0.22s-0.389-0.078-0.53-0.219c-0.292-0.292-0.293-0.768-0.001-1.061
		c0.142-0.142,0.22-0.33,0.22-0.53V2.25c0-0.414-0.336-0.75-0.75-0.75h-5.378c-0.201,0-0.389,0.078-0.531,0.219l-10.5,10.5
		c-0.292,0.296-0.291,0.771,0,1.062l5.379,5.378c0.141,0.141,0.329,0.219,0.53,0.219c0.201,0,0.389-0.078,0.53-0.219
		c0.142-0.142,0.33-0.219,0.53-0.219c0.2,0,0.389,0.078,0.53,0.22c0.142,0.142,0.219,0.33,0.219,0.531s-0.078,0.389-0.22,0.53
		C9.12,20.143,8.555,20.377,7.953,20.377z"/>
	<circle cx="16.202" cy="4.5" r="1.125"/>
	<path d="M13.041,23.999c-0.548,0-1.059-0.294-1.333-0.768c-0.238-0.411-0.271-0.919-0.088-1.357l1.203-2.763l-2.097-1.464
		c-0.021-0.014-0.044-0.032-0.067-0.052c-0.614-0.544-0.671-1.483-0.129-2.096c0.281-0.318,0.691-0.5,1.123-0.5l2.499,0l1.361-3.586
		c0.013-0.033,0.026-0.062,0.042-0.091c0.269-0.501,0.793-0.814,1.367-0.814c0.253,0,0.506,0.063,0.73,0.184
		c0.27,0.145,0.489,0.364,0.634,0.634c0.016,0.03,0.029,0.058,0.04,0.087L19.684,15h2.482c0.006-0.001,0.032-0.002,0.058-0.002
		c0.771,0,1.423,0.64,1.456,1.426c0.018,0.446-0.163,0.872-0.496,1.169c-0.023,0.021-0.048,0.04-0.073,0.058l-2.093,1.461
		l1.198,2.751c0.161,0.386,0.162,0.806,0.006,1.186s-0.451,0.676-0.83,0.834c-0.187,0.077-0.384,0.117-0.588,0.117l0,0
		c-0.271,0-0.537-0.071-0.769-0.206l-3.112-1.75l-3.124,1.755C13.572,23.929,13.308,23.999,13.041,23.999z M13.001,22.461
		c0.001,0,0.001,0.012,0.007,0.021c0.009,0.016,0.027,0.018,0.032,0.018l3.516-1.97c0.111-0.063,0.238-0.096,0.367-0.096
		c0.128,0,0.255,0.033,0.367,0.096l3.488,1.962l0.026,0.009c0.031-0.01,0.04-0.031,0.032-0.05l-1.438-3.302
		c-0.142-0.326-0.033-0.711,0.259-0.914l2.483-1.734L19.166,16.5c-0.309,0-0.591-0.195-0.701-0.484l-1.513-3.997
		c-0.002-0.002-0.005-0.004-0.008-0.005c-0.009-0.001-0.017-0.002-0.023-0.002c-0.014,0-0.024,0.003-0.032,0.009l-1.517,3.996
		c-0.11,0.289-0.391,0.484-0.701,0.484h-2.968l2.482,1.733c0.292,0.203,0.401,0.588,0.258,0.914L13.001,22.461
		C13,22.461,13,22.461,13.001,22.461z"/>
</g>
</svg>
