<?xml version="1.0" encoding="utf-8"?>
<!-- Generator: Adobe Illustrator 22.1.0, SVG Export Plug-In . SVG Version: 6.00 Build 0)  -->
<svg version="1.1" id="Layer_1" xmlns="http://www.w3.org/2000/svg" xmlns:xlink="http://www.w3.org/1999/xlink" x="0px" y="0px"
	 viewBox="0 0 24 24" style="enable-background:new 0 0 24 24;" xml:space="preserve">
<title>folder-dash</title>
<g>
	<path d="M2.137,22.501c-0.572,0-1.109-0.224-1.513-0.629s-0.626-0.942-0.625-1.514V20.25c0-0.414,0.336-0.75,0.75-0.75
		s0.75,0.336,0.75,0.75v0.109c0,0.172,0.066,0.333,0.187,0.454C1.807,20.934,1.967,21,2.138,21.001c0.245,0,0.465-0.136,0.574-0.354
		l0.367-0.732c0.128-0.256,0.385-0.414,0.67-0.414c0.116,0,0.232,0.028,0.337,0.08c0.369,0.185,0.519,0.636,0.334,1.006
		l-0.366,0.731c-0.364,0.73-1.098,1.184-1.915,1.184H2.137z"/>
	<path d="M0.749,5.25c-0.414,0-0.75-0.336-0.75-0.75V3.375c0-1.034,0.841-1.875,1.875-1.875h1.125c0.414,0,0.75,0.336,0.75,0.75
		S3.413,3,2.999,3H1.874C1.667,3,1.499,3.168,1.499,3.375V4.5C1.499,4.913,1.163,5.25,0.749,5.25z"/>
	<path d="M20.249,7.5c-0.414,0-0.75-0.336-0.75-0.75V4.875c0-0.207-0.168-0.375-0.375-0.375h-1.125c-0.414,0-0.75-0.336-0.75-0.75
		S17.586,3,17.999,3h1.125c1.034,0,1.875,0.841,1.875,1.875V6.75C20.999,7.163,20.663,7.5,20.249,7.5z"/>
	<path d="M22.962,12.75c-0.071,0-0.142-0.01-0.211-0.03c-0.191-0.056-0.351-0.183-0.447-0.359s-0.119-0.378-0.063-0.571l0.248-0.852
		c0.023-0.081,0-0.175-0.061-0.238c-0.122-0.127-0.293-0.201-0.47-0.201l-0.96,0c-0.414,0-0.75-0.336-0.75-0.75S20.586,9,20.999,9
		c0,0,0.941,0,0.941,0c0.605,0,1.17,0.242,1.574,0.665c0.427,0.448,0.586,1.095,0.417,1.689l-0.249,0.856
		C23.589,12.528,23.293,12.75,22.962,12.75z"/>
	<path d="M18.749,22.5c-0.414,0-0.75-0.336-0.75-0.75S18.336,21,18.749,21h1.055c0.091-0.017,0.163-0.094,0.173-0.186
		c0.002-0.021,0.005-0.04,0.009-0.059l0.278-1.401c0.07-0.35,0.379-0.604,0.735-0.604c0.048,0,0.098,0.005,0.147,0.015
		c0.405,0.08,0.67,0.476,0.589,0.882l-0.272,1.372c-0.106,0.788-0.755,1.409-1.548,1.479c-0.022,0.002-0.044,0.003-0.066,0.003
		H18.749z"/>
	<path d="M5.25,12.75c-0.048,0-0.097-0.005-0.146-0.014c-0.406-0.081-0.67-0.476-0.59-0.882l0.272-1.372
		c0.106-0.788,0.754-1.409,1.548-1.48C6.355,9.001,6.377,9,6.399,9h1.85c0.414,0,0.75,0.336,0.75,0.75s-0.336,0.75-0.75,0.75H6.444
		c-0.091,0.017-0.162,0.093-0.173,0.186c-0.003,0.022-0.006,0.043-0.01,0.063l-0.277,1.396C5.916,12.496,5.606,12.75,5.25,12.75z"/>
	<path d="M4.209,17.948c-0.051,0-0.101-0.005-0.15-0.015c-0.194-0.039-0.363-0.152-0.475-0.319
		c-0.111-0.167-0.151-0.367-0.111-0.563l0.465-2.325c0.07-0.35,0.379-0.603,0.734-0.603c0.049,0,0.099,0.005,0.149,0.015
		c0.195,0.039,0.365,0.152,0.476,0.319c0.111,0.167,0.151,0.367,0.111,0.563l-0.465,2.325C4.875,17.694,4.566,17.948,4.209,17.948z"
		/>
	<path d="M21.679,17.68c-0.051,0-0.101-0.005-0.15-0.015c-0.194-0.039-0.364-0.152-0.475-0.319c-0.111-0.167-0.15-0.367-0.111-0.563
		l0.435-2.176c0.07-0.35,0.379-0.603,0.734-0.603c0.049,0,0.099,0.005,0.149,0.015c0.195,0.039,0.365,0.152,0.476,0.319
		c0.111,0.167,0.15,0.367,0.111,0.563l-0.435,2.176C22.344,17.426,22.035,17.68,21.679,17.68z"/>
	<path d="M0.749,11.25c-0.414,0-0.75-0.336-0.75-0.75V8.25c0-0.414,0.336-0.75,0.75-0.75s0.75,0.336,0.75,0.75v2.25
		C1.499,10.913,1.163,11.25,0.749,11.25z"/>
	<path d="M11.249,10.5c-0.414,0-0.75-0.336-0.75-0.75S10.836,9,11.249,9h1.5c0.414,0,0.75,0.336,0.75,0.75s-0.336,0.75-0.75,0.75
		H11.249z"/>
	<path d="M16.499,10.5c-0.414,0-0.75-0.336-0.75-0.75S16.086,9,16.499,9h1.5c0.414,0,0.75,0.336,0.75,0.75s-0.336,0.75-0.75,0.75
		H16.499z"/>
	<path d="M11.999,4.5c-0.414,0-0.75-0.336-0.75-0.75S11.586,3,11.999,3h2.25c0.414,0,0.75,0.336,0.75,0.75s-0.336,0.75-0.75,0.75
		H11.999z"/>
	<path d="M6.749,22.5c-0.414,0-0.75-0.336-0.75-0.75S6.336,21,6.749,21h2.25c0.414,0,0.75,0.336,0.75,0.75s-0.336,0.75-0.75,0.75
		H6.749z"/>
	<path d="M12.749,22.5c-0.414,0-0.75-0.336-0.75-0.75S12.336,21,12.749,21h2.25c0.414,0,0.75,0.336,0.75,0.75s-0.336,0.75-0.75,0.75
		H12.749z"/>
	<path d="M0.749,17.25c-0.414,0-0.75-0.336-0.75-0.75v-2.25c0-0.414,0.336-0.75,0.75-0.75s0.75,0.336,0.75,0.75v2.25
		C1.499,16.914,1.163,17.25,0.749,17.25z"/>
</g>
</svg>
