<?xml version="1.0" encoding="utf-8"?>
<!-- Generator: Adobe Illustrator 22.1.0, SVG Export Plug-In . SVG Version: 6.00 Build 0)  -->
<svg version="1.1" id="Layer_1" xmlns="http://www.w3.org/2000/svg" xmlns:xlink="http://www.w3.org/1999/xlink" x="0px" y="0px"
	 viewBox="0 0 24 24" style="enable-background:new 0 0 24 24;" xml:space="preserve">
<title>folder-file</title>
<g>
	<path d="M2.25,24C1.009,24,0,22.991,0,21.75v-9c0-1.241,1.009-2.25,2.25-2.25H6V2.25C6,1.009,7.009,0,8.25,0h10.629
		c0.601,0,1.165,0.234,1.59,0.658l2.872,2.872C23.766,3.955,24,4.52,24,5.121V18.75c0,1.241-1.009,2.25-2.25,2.25H19.5v0.75
		c0,1.241-1.009,2.25-2.25,2.25H2.25z M2.25,12c-0.414,0-0.75,0.336-0.75,0.75v9c0,0.414,0.336,0.75,0.75,0.75h15
		c0.414,0,0.75-0.336,0.75-0.75v-6c0-0.414-0.336-0.75-0.75-0.75h-9c-0.414,0-0.75-0.336-0.75-0.75v-1.5
		C7.5,12.336,7.164,12,6.75,12H2.25z M21.75,19.5c0.414,0,0.75-0.336,0.75-0.75V5.121c0-0.197-0.08-0.39-0.219-0.53l-2.872-2.872
		c-0.142-0.141-0.33-0.219-0.53-0.219H8.25C7.836,1.5,7.5,1.836,7.5,2.25v8.379C8.385,10.942,9,11.79,9,12.75v0.75h8.25
		c1.241,0,2.25,1.009,2.25,2.25v3.75H21.75z"/>
	<path d="M11.25,6c-0.414,0-0.75-0.336-0.75-0.75s0.336-0.75,0.75-0.75h7.5c0.414,0,0.75,0.336,0.75,0.75S19.164,6,18.75,6H11.25z"
		/>
	<path d="M11.25,10.5c-0.414,0-0.75-0.336-0.75-0.75S10.836,9,11.25,9h7.5c0.414,0,0.75,0.336,0.75,0.75s-0.336,0.75-0.75,0.75
		H11.25z"/>
</g>
</svg>
