<?xml version="1.0" encoding="utf-8"?>
<!-- Generator: Adobe Illustrator 22.1.0, SVG Export Plug-In . SVG Version: 6.00 Build 0)  -->
<svg version="1.1" id="Layer_1" xmlns="http://www.w3.org/2000/svg" xmlns:xlink="http://www.w3.org/1999/xlink" x="0px" y="0px"
	 viewBox="0 0 24 24" style="enable-background:new 0 0 24 24;" xml:space="preserve">
<title>folder-file-star</title>
<g>
	<path d="M21.228,10.051c-0.201,0-0.402-0.05-0.582-0.145l-1.899-0.993l-1.903,0.995c-0.177,0.093-0.376,0.142-0.576,0.142
		c-0.258,0-0.505-0.079-0.717-0.229c-0.383-0.271-0.579-0.744-0.499-1.207l0.364-2.111l-1.546-1.499
		c-0.335-0.324-0.457-0.819-0.311-1.262c0.15-0.449,0.533-0.768,0.999-0.833l2.129-0.307c0,0,0.955-1.923,0.957-1.927
		c0.213-0.415,0.635-0.673,1.104-0.673c0.193,0,0.387,0.046,0.56,0.134c0.236,0.12,0.424,0.308,0.544,0.544L20.807,2.6l2.135,0.308
		c0.463,0.065,0.845,0.383,0.995,0.829c0.146,0.446,0.024,0.942-0.311,1.266l-1.545,1.498l0.364,2.111
		c0.079,0.463-0.117,0.937-0.5,1.208C21.735,9.971,21.487,10.051,21.228,10.051z M18.748,7.379c0.2,0,0.4,0.05,0.578,0.143
		l1.549,0.81l-0.297-1.719c-0.067-0.4,0.065-0.806,0.355-1.087l1.25-1.212l-1.726-0.249c-0.4-0.056-0.748-0.307-0.929-0.669
		l-0.779-1.569L17.97,3.394c-0.181,0.362-0.527,0.612-0.925,0.671l-1.729,0.25l1.25,1.212c0.29,0.281,0.423,0.687,0.355,1.085
		L16.625,8.33l1.548-0.81C18.348,7.428,18.548,7.379,18.748,7.379z"/>
	<path d="M2.248,24c-1.241,0-2.25-1.009-2.25-2.25v-9c0-1.241,1.009-2.25,2.25-2.25h3.75V2.25C5.998,1.009,7.008,0,8.248,0h6
		c0.414,0,0.75,0.336,0.75,0.75s-0.336,0.75-0.75,0.75h-6c-0.414,0-0.75,0.336-0.75,0.75v8.379c0.885,0.314,1.5,1.162,1.5,2.121
		v0.75h8.25c1.241,0,2.25,1.009,2.25,2.25v3.75h2.25c0.414,0,0.75-0.336,0.75-0.75v-7.5c0-0.414,0.336-0.75,0.75-0.75
		s0.75,0.336,0.75,0.75v7.5c0,1.241-1.009,2.25-2.25,2.25h-2.25v0.75c0,1.241-1.009,2.25-2.25,2.25H2.248z M2.248,12
		c-0.414,0-0.75,0.336-0.75,0.75v9c0,0.414,0.336,0.75,0.75,0.75h15c0.414,0,0.75-0.336,0.75-0.75v-6c0-0.414-0.336-0.75-0.75-0.75
		h-9c-0.414,0-0.75-0.336-0.75-0.75v-1.5c0-0.414-0.336-0.75-0.75-0.75H2.248z"/>
</g>
</svg>
