<?xml version="1.0" encoding="utf-8"?>
<!-- Generator: Adobe Illustrator 22.1.0, SVG Export Plug-In . SVG Version: 6.00 Build 0)  -->
<svg version="1.1" id="Layer_1" xmlns="http://www.w3.org/2000/svg" xmlns:xlink="http://www.w3.org/1999/xlink" x="0px" y="0px"
	 viewBox="0 0 24 24" style="enable-background:new 0 0 24 24;" xml:space="preserve">
<title>folder-star</title>
<g>
	<path d="M2.447,19.501c-0.079,0-0.156-0.012-0.231-0.037C0.986,19.346,0.017,18.301,0,17.061V2.251c0-1.241,1.009-2.25,2.25-2.25
		h4.5C7.991,0.001,9,1.01,9,2.251v0.75h9.75c1.241,0,2.25,1.009,2.25,2.25v2.25h0.75c0.601,0,1.166,0.234,1.591,0.658
		C23.766,8.584,24,9.149,24,9.75c0,0.195-0.025,0.391-0.076,0.58c-0.088,0.328-0.385,0.557-0.724,0.557
		c-0.066,0-0.131-0.009-0.195-0.026c-0.192-0.051-0.354-0.175-0.454-0.349s-0.127-0.375-0.075-0.569
		c0.017-0.063,0.025-0.127,0.025-0.191c0-0.202-0.078-0.39-0.22-0.532c-0.142-0.142-0.33-0.219-0.53-0.219H7.879
		c-0.333,0-0.629,0.223-0.722,0.542l-2.351,8.154c-0.029,0.104-0.066,0.205-0.109,0.304H8.25c0.414,0,0.75,0.336,0.75,0.75
		s-0.336,0.75-0.75,0.75H2.447z M2.25,1.501c-0.414,0-0.75,0.336-0.75,0.75v14.8c0.007,0.509,0.433,0.927,0.95,0.927
		c0.431-0.006,0.801-0.291,0.914-0.692l2.352-8.158c0.276-0.958,1.165-1.626,2.162-1.626H19.5v-2.25c0-0.414-0.336-0.75-0.75-0.75
		H8.25c-0.414,0-0.75-0.336-0.75-0.75v-1.5c0-0.414-0.336-0.75-0.75-0.75H2.25z"/>
	<path d="M13.363,24c-0.549,0-1.059-0.294-1.333-0.768c-0.238-0.411-0.271-0.918-0.089-1.357l1.243-2.853l-2.234-2.202
		c-0.272-0.236-0.445-0.59-0.472-0.981c-0.027-0.398,0.103-0.783,0.365-1.083c0.281-0.322,0.689-0.507,1.117-0.507l0.056,0.001
		l2.493,0l1.342-2.889c0.208-0.395,0.536-0.67,0.932-0.791c0.149-0.046,0.302-0.069,0.456-0.069c0.251,0,0.501,0.063,0.725,0.182
		c0.276,0.147,0.5,0.371,0.645,0.648c0.004,0.008,0.017,0.033,0.02,0.042l1.335,2.877l2.552,0c0.8,0,1.45,0.627,1.482,1.427
		c0.018,0.444-0.163,0.869-0.495,1.166l-2.207,2.176l1.237,2.841c0.328,0.791-0.043,1.694-0.825,2.019
		c-0.187,0.077-0.384,0.116-0.587,0.116c0,0,0,0,0,0c-0.271,0-0.537-0.071-0.769-0.205l-3.114-1.747l-3.12,1.755
		C13.893,23.93,13.63,24,13.363,24z M13.322,22.462c0.001,0,0.002,0.012,0.007,0.021c0.01,0.016,0.027,0.018,0.032,0.018l3.511-1.97
		c0.113-0.063,0.24-0.096,0.368-0.096c0.128,0,0.256,0.033,0.368,0.097l3.488,1.958c0.013,0.008,0.022,0.009,0.028,0.009
		c0.028-0.009,0.038-0.034,0.031-0.05l-1.437-3.301c-0.123-0.282-0.059-0.617,0.161-0.834l2.6-2.562l-2.991,0.001
		c-0.291,0-0.558-0.171-0.68-0.435l-1.529-3.293c-0.004-0.006-0.01-0.011-0.017-0.015l-0.148-0.362l0.11,0.358
		c-0.013,0.004-0.023,0.012-0.03,0.025l-1.526,3.287c-0.123,0.264-0.39,0.434-0.68,0.434h-2.987l2.603,2.565
		c0.22,0.216,0.284,0.551,0.161,0.834L13.322,22.462C13.322,22.462,13.322,22.462,13.322,22.462z M11.962,15.751
		c0,0,0.001,0.001,0.002,0.001c0.001,0,0.002,0,0.003-0.001C11.964,15.751,11.962,15.751,11.962,15.751z"/>
</g>
</svg>
