<?xml version="1.0" encoding="utf-8"?>
<!-- Generator: Adobe Illustrator 22.1.0, SVG Export Plug-In . SVG Version: 6.00 Build 0)  -->
<svg version="1.1" id="Layer_1" xmlns="http://www.w3.org/2000/svg" xmlns:xlink="http://www.w3.org/1999/xlink" x="0px" y="0px"
	 viewBox="0 0 24 24" style="enable-background:new 0 0 24 24;" xml:space="preserve">
<title>folder-text</title>
<g>
	<path d="M8.25,24C7.009,24,6,22.991,6,21.75v-10.5C6,10.009,7.009,9,8.25,9H21V8.25c0-0.414-0.336-0.75-0.75-0.75h-15
		C4.836,7.5,4.5,7.836,4.5,8.25v12C4.5,20.664,4.164,21,3.75,21S3,20.664,3,20.25v-12C3,7.009,4.009,6,5.25,6H18V5.25
		c0-0.414-0.336-0.75-0.75-0.75h-9C7.836,4.5,7.5,4.164,7.5,3.75v-1.5c0-0.414-0.336-0.75-0.75-0.75h-4.5
		C1.836,1.5,1.5,1.836,1.5,2.25v16.3c0,0.414-0.336,0.75-0.75,0.75S0,18.964,0,18.55V2.25C0,1.009,1.009,0,2.25,0h4.5
		C7.991,0,9,1.009,9,2.25V3h8.25c1.241,0,2.25,1.009,2.25,2.25V6h0.75c1.241,0,2.25,1.009,2.25,2.25v0.879
		C23.385,9.442,24,10.29,24,11.25v10.5c0,1.241-1.009,2.25-2.25,2.25H8.25z M8.25,10.5c-0.414,0-0.75,0.336-0.75,0.75v10.5
		c0,0.414,0.336,0.75,0.75,0.75h13.5c0.414,0,0.75-0.336,0.75-0.75v-10.5c0-0.414-0.336-0.75-0.75-0.75H8.25z"/>
	<path d="M18.75,21C18.336,21,18,20.664,18,20.25V18h-0.75c-0.414,0-0.75-0.336-0.75-0.75s0.336-0.75,0.75-0.75h3
		c0.414,0,0.75,0.336,0.75,0.75S20.664,18,20.25,18H19.5v2.25C19.5,20.664,19.164,21,18.75,21z"/>
	<path d="M9.75,15C9.336,15,9,14.664,9,14.25s0.336-0.75,0.75-0.75h10.5c0.414,0,0.75,0.336,0.75,0.75S20.664,15,20.25,15H9.75z"/>
	<path d="M9.75,18C9.336,18,9,17.664,9,17.25s0.336-0.75,0.75-0.75h4.5c0.414,0,0.75,0.336,0.75,0.75S14.664,18,14.25,18H9.75z"/>
	<path d="M9.75,21C9.336,21,9,20.664,9,20.25s0.336-0.75,0.75-0.75h4.5c0.414,0,0.75,0.336,0.75,0.75S14.664,21,14.25,21H9.75z"/>
</g>
</svg>
