<?xml version="1.0" encoding="utf-8"?>
<!-- Generator: Adobe Illustrator 22.1.0, SVG Export Plug-In . SVG Version: 6.00 Build 0)  -->
<svg version="1.1" id="Layer_1" xmlns="http://www.w3.org/2000/svg" xmlns:xlink="http://www.w3.org/1999/xlink" x="0px" y="0px"
	 viewBox="0 0 24 24" style="enable-background:new 0 0 24 24;" xml:space="preserve">
<g>
	<title>video-file-avi-1</title>
	<path d="M1.5,24.041c-0.827,0-1.5-0.673-1.5-1.5v-21c0-0.827,0.673-1.5,1.5-1.5h12.025c1.731,0,3.358,0.674,4.58,1.897
		C19.327,3.16,20,4.786,20,6.515v6.026c0,0.276-0.224,0.5-0.5,0.5s-0.5-0.224-0.5-0.5V6.515c0-0.149-0.008-0.303-0.024-0.474H15.5
		c-0.827,0-1.5-0.673-1.5-1.5V1.065c-0.171-0.016-0.325-0.024-0.472-0.024H1.5c-0.276,0-0.5,0.224-0.5,0.5v21
		c0,0.276,0.224,0.5,0.5,0.5h3c0.276,0,0.5,0.224,0.5,0.5s-0.224,0.5-0.5,0.5H1.5z M15,4.541c0,0.276,0.224,0.5,0.5,0.5h3.297
		c-0.251-0.905-0.731-1.728-1.399-2.396c-0.669-0.669-1.492-1.149-2.398-1.4V4.541z"/>
	<path d="M11.5,24.041c-0.276,0-0.5-0.224-0.5-0.5v-3.5H8v3.5c0,0.276-0.224,0.5-0.5,0.5S7,23.817,7,23.541v-6
		c0-1.378,1.121-2.5,2.5-2.5s2.5,1.122,2.5,2.5v6C12,23.817,11.776,24.041,11.5,24.041z M11,19.041v-1.5c0-0.827-0.673-1.5-1.5-1.5
		S8,16.714,8,17.541v1.5H11z"/>
	<path d="M15.5,24.041c-0.153,0-0.295-0.068-0.39-0.187c-1.36-1.7-2.109-3.836-2.11-6.013v-2.3c0-0.276,0.224-0.5,0.5-0.5
		s0.5,0.224,0.5,0.5v2.3c0,1.722,0.531,3.434,1.5,4.859c0.969-1.425,1.5-3.137,1.5-4.859v-2.3c0-0.276,0.224-0.5,0.5-0.5
		s0.5,0.224,0.5,0.5v2.3c0,2.177-0.75,4.312-2.109,6.012C15.795,23.973,15.653,24.041,15.5,24.041z"/>
	<path d="M19.5,24.041c-0.276,0-0.5-0.224-0.5-0.5s0.224-0.5,0.5-0.5H21v-7h-1.5c-0.276,0-0.5-0.224-0.5-0.5s0.224-0.5,0.5-0.5h4
		c0.276,0,0.5,0.224,0.5,0.5s-0.224,0.5-0.5,0.5H22v7h1.5c0.276,0,0.5,0.224,0.5,0.5s-0.224,0.5-0.5,0.5H19.5z"/>
</g>
</svg>
