<?xml version="1.0" encoding="utf-8"?>
<!-- Generator: Adobe Illustrator 22.1.0, SVG Export Plug-In . SVG Version: 6.00 Build 0)  -->
<svg version="1.1" id="Layer_1" xmlns="http://www.w3.org/2000/svg" xmlns:xlink="http://www.w3.org/1999/xlink" x="0px" y="0px"
	 viewBox="0 0 24 24" style="enable-background:new 0 0 24 24;" xml:space="preserve">
<g>
	<title>video-file-sync</title>
	<path d="M1.5,23.998c-0.827,0-1.5-0.673-1.5-1.5v-21c0-0.827,0.673-1.5,1.5-1.5h13.293c0.401,0,0.778,0.156,1.061,0.44l3.707,3.707
		C19.844,4.428,20,4.805,20,5.205v3.293c0,0.276-0.224,0.5-0.5,0.5S19,8.774,19,8.498V5.205c0-0.132-0.053-0.26-0.146-0.354
		l-3.707-3.707c-0.094-0.094-0.22-0.146-0.354-0.147H1.5c-0.276,0-0.5,0.224-0.5,0.5v21c0,0.276,0.224,0.5,0.5,0.5h8
		c0.276,0,0.5,0.224,0.5,0.5s-0.224,0.5-0.5,0.5H1.5z"/>
	<path d="M7.263,15.881c-0.338,0-0.655-0.132-0.893-0.371C6.131,15.271,6,14.953,6,14.616V8.88c0-0.215,0.055-0.428,0.16-0.616
		c0.164-0.295,0.434-0.508,0.759-0.601c0.114-0.032,0.23-0.049,0.347-0.049c0.213,0,0.425,0.056,0.614,0.161l4.964,2.673
		c0.243,0.131,0.334,0.434,0.204,0.677c-0.087,0.162-0.256,0.263-0.441,0.263c-0.083,0-0.165-0.021-0.237-0.06L7.399,8.652
		C7.354,8.627,7.31,8.615,7.264,8.615c-0.024,0-0.048,0.003-0.072,0.01c-0.069,0.02-0.124,0.063-0.158,0.125
		C7.011,8.79,7,8.835,7,8.88v5.737c0,0.071,0.027,0.137,0.077,0.187c0.05,0.05,0.116,0.078,0.186,0.078
		c0.046,0,0.09-0.011,0.129-0.033l2.156-1.327c0.078-0.049,0.169-0.074,0.262-0.074c0.175,0,0.335,0.089,0.426,0.239
		c0.07,0.113,0.091,0.247,0.06,0.377c-0.031,0.13-0.111,0.24-0.224,0.31L7.898,15.71c-0.206,0.115-0.416,0.171-0.633,0.171H7.263z"
		/>
	<path d="M17.638,24.005c-0.664,0-1.322-0.109-1.955-0.325c-1.689-0.576-3.034-1.893-3.683-3.526v1.844c0,0.276-0.224,0.5-0.5,0.5
		s-0.5-0.224-0.5-0.5v-3.5c0-0.276,0.224-0.5,0.5-0.5H15c0.276,0,0.5,0.224,0.5,0.5s-0.224,0.5-0.5,0.5h-2.313
		c0.373,1.741,1.623,3.157,3.319,3.735c0.529,0.18,1.078,0.272,1.633,0.272c2.173,0,4.104-1.381,4.805-3.435
		c0.069-0.203,0.259-0.339,0.473-0.339c0.055,0,0.11,0.009,0.162,0.028c0.125,0.042,0.227,0.132,0.286,0.252
		c0.059,0.12,0.068,0.256,0.024,0.382C22.552,22.352,20.24,24.005,17.638,24.005z"/>
	<path d="M20,16.998c-0.276,0-0.5-0.224-0.5-0.5s0.224-0.5,0.5-0.5h2.312c-0.373-1.741-1.622-3.157-3.318-3.735
		c-0.533-0.182-1.086-0.274-1.642-0.274c-0.776,0-1.527,0.176-2.233,0.522c-1.216,0.597-2.126,1.633-2.563,2.915
		c-0.069,0.203-0.259,0.339-0.473,0.339c-0.055,0-0.11-0.009-0.163-0.027c-0.125-0.042-0.227-0.132-0.286-0.252
		s-0.068-0.255-0.025-0.382c0.524-1.535,1.614-2.775,3.069-3.49c0.845-0.415,1.744-0.626,2.673-0.626
		c0.666,0,1.327,0.11,1.965,0.328c1.688,0.576,3.034,1.893,3.683,3.526v-1.844c0-0.276,0.224-0.5,0.5-0.5s0.5,0.224,0.5,0.5v3.5
		c0,0.276-0.224,0.5-0.5,0.5H20z"/>
</g>
</svg>
