<?xml version="1.0" encoding="utf-8"?>
<!-- Generator: Adobe Illustrator 22.1.0, SVG Export Plug-In . SVG Version: 6.00 Build 0)  -->
<svg version="1.1" id="Layer_1" xmlns="http://www.w3.org/2000/svg" xmlns:xlink="http://www.w3.org/1999/xlink" x="0px" y="0px"
	 viewBox="0 0 24 24" style="enable-background:new 0 0 24 24;" xml:space="preserve">
<g>
	<title>video-file-qt</title>
	<path d="M3.5,24C2.673,24,2,23.327,2,22.5v-21C2,0.673,2.673,0,3.5,0h12.025C19.095,0,22,2.905,22,6.475V22.5
		c0,0.827-0.673,1.5-1.5,1.5H3.5z M3.5,1C3.224,1,3,1.224,3,1.5v21C3,22.776,3.224,23,3.5,23h17c0.276,0,0.5-0.224,0.5-0.5V6.475
		C21,6.321,20.993,6.162,20.978,6H17.5C16.673,6,16,5.327,16,4.5V1.022C15.838,1.007,15.681,1,15.525,1H3.5z M17,4.5
		C17,4.776,17.224,5,17.5,5h3.297C20.282,3.164,18.836,1.717,17,1.203V4.5z"/>
	<path d="M11.5,20c-0.112,0-0.223-0.038-0.31-0.108l-1.947-1.543C8.498,18.043,8,17.305,8,16.5V14c0-1.103,0.897-2,2-2s2,0.897,2,2
		v2.5c0,0.805-0.474,1.508-1.18,1.823l0.99,0.785c0.216,0.172,0.252,0.487,0.081,0.703C11.797,19.931,11.654,20,11.5,20z M10,13
		c-0.551,0-1,0.448-1,1v2.5c0,0.552,0.449,1,1,1s1-0.448,1-1V14C11,13.448,10.551,13,10,13z"/>
	<path d="M15.5,19c-0.276,0-0.5-0.224-0.5-0.5V13h-1.5c-0.276,0-0.5-0.224-0.5-0.5c0-0.276,0.224-0.5,0.5-0.5h4
		c0.276,0,0.5,0.224,0.5,0.5c0,0.276-0.224,0.5-0.5,0.5H16v5.5C16,18.776,15.776,19,15.5,19z"/>
</g>
</svg>
