<?xml version="1.0" encoding="utf-8"?>
<!-- Generator: Adobe Illustrator 22.1.0, SVG Export Plug-In . SVG Version: 6.00 Build 0)  -->
<svg version="1.1" id="Layer_1" xmlns="http://www.w3.org/2000/svg" xmlns:xlink="http://www.w3.org/1999/xlink" x="0px" y="0px"
	 viewBox="0 0 24 24" style="enable-background:new 0 0 24 24;" xml:space="preserve">
<g>
	<title>vide-document-avi-1</title>
	<path d="M1.5,24C0.673,24,0,23.327,0,22.5v-21C0,0.673,0.673,0,1.5,0h21C23.327,0,24,0.673,24,1.5v21c0,0.827-0.673,1.5-1.5,1.5
		H1.5z M1.5,1C1.224,1,1,1.224,1,1.5v21C1,22.776,1.224,23,1.5,23h21c0.276,0,0.5-0.224,0.5-0.5v-21C23,1.224,22.776,1,22.5,1H1.5z"
		/>
	<path d="M8.5,20C8.224,20,8,19.776,8,19.5V16H5v3.5C5,19.776,4.776,20,4.5,20S4,19.776,4,19.5v-6C4,12.121,5.121,11,6.5,11
		S9,12.121,9,13.5v6C9,19.776,8.776,20,8.5,20z M8,15v-1.5C8,12.673,7.327,12,6.5,12S5,12.673,5,13.5V15H8z"/>
	<path d="M12.5,20c-0.153,0-0.295-0.068-0.39-0.187c-1.36-1.7-2.11-3.835-2.11-6.013v-2.3c0-0.276,0.224-0.5,0.5-0.5
		s0.5,0.224,0.5,0.5v2.3c0,1.722,0.531,3.434,1.5,4.859c0.969-1.425,1.5-3.137,1.5-4.859v-2.3c0-0.276,0.224-0.5,0.5-0.5
		s0.5,0.224,0.5,0.5v2.3c0,2.177-0.749,4.312-2.109,6.012C12.795,19.932,12.653,20,12.5,20z"/>
	<path d="M16.5,20c-0.276,0-0.5-0.224-0.5-0.5s0.224-0.5,0.5-0.5H18v-7h-1.5c-0.276,0-0.5-0.224-0.5-0.5s0.224-0.5,0.5-0.5h4
		c0.276,0,0.5,0.224,0.5,0.5S20.776,12,20.5,12H19v7h1.5c0.276,0,0.5,0.224,0.5,0.5S20.776,20,20.5,20H16.5z"/>
</g>
</svg>
