<?xml version="1.0" encoding="utf-8"?>
<!-- Generator: Adobe Illustrator 22.1.0, SVG Export Plug-In . SVG Version: 6.00 Build 0)  -->
<svg version="1.1" id="Layer_1" xmlns="http://www.w3.org/2000/svg" xmlns:xlink="http://www.w3.org/1999/xlink" x="0px" y="0px"
	 viewBox="0 0 24 24" style="enable-background:new 0 0 24 24;" xml:space="preserve">
<g>
	<title>video-file-shield</title>
	<path d="M1.5,24C0.673,24,0,23.327,0,22.5v-21C0,0.673,0.673,0,1.5,0h13.293c0.401,0,0.777,0.156,1.061,0.439l3.707,3.707
		C19.844,4.43,20,4.807,20,5.207V8.5C20,8.776,19.776,9,19.5,9S19,8.776,19,8.5V5.207c0-0.133-0.052-0.259-0.146-0.354l-3.707-3.707
		C15.052,1.052,14.927,1,14.793,1H1.5C1.224,1,1,1.224,1,1.5v21C1,22.776,1.224,23,1.5,23h8c0.276,0,0.5,0.224,0.5,0.5
		S9.776,24,9.5,24H1.5z"/>
	<path d="M7.263,15.883C6.566,15.882,5.999,15.314,6,14.618V8.882c0-0.215,0.055-0.428,0.16-0.616
		c0.164-0.295,0.434-0.508,0.759-0.601c0.114-0.032,0.23-0.049,0.347-0.049c0.213,0,0.425,0.056,0.614,0.161L11.45,9.7
		c0.243,0.131,0.334,0.434,0.203,0.677c-0.087,0.162-0.256,0.263-0.44,0.263l0,0c-0.083,0-0.165-0.021-0.238-0.06L7.399,8.654
		c-0.045-0.025-0.09-0.037-0.135-0.037c-0.024,0-0.048,0.004-0.072,0.01C7.124,8.647,7.068,8.691,7.033,8.753
		C7.011,8.792,7,8.837,7,8.882v5.737c0,0.146,0.118,0.265,0.264,0.265c0.045,0,0.09-0.011,0.129-0.033l0.78-0.483
		c0.079-0.049,0.17-0.075,0.263-0.075c0.175,0,0.334,0.089,0.426,0.238c0.07,0.113,0.092,0.248,0.061,0.377
		c-0.031,0.13-0.11,0.24-0.224,0.311l-0.8,0.494C7.693,15.827,7.482,15.883,7.263,15.883C7.263,15.883,7.263,15.883,7.263,15.883z"
		/>
	<path d="M17.5,20c-0.276,0-0.5-0.224-0.5-0.5V17h-2.5c-0.276,0-0.5-0.224-0.5-0.5s0.224-0.5,0.5-0.5H17v-2.5
		c0-0.276,0.224-0.5,0.5-0.5s0.5,0.224,0.5,0.5V16h2.5c0.276,0,0.5,0.224,0.5,0.5S20.776,17,20.5,17H18v2.5
		C18,19.776,17.776,20,17.5,20z"/>
	<path d="M17.482,24.002c-0.253,0-0.502-0.046-0.74-0.138l-0.551-0.209C13.134,22.49,11,19.692,11,16.849v-3.393
		c0-0.615,0.364-1.171,0.929-1.417c1.789-0.676,3.651-1.025,5.545-1.042c1.914,0.017,3.788,0.364,5.573,1.032
		C23.631,12.283,24,12.841,24,13.457v3.396c0,2.835-2.152,5.633-5.234,6.805l-0.553,0.21C17.978,23.957,17.732,24.002,17.482,24.002
		z M17.476,11.998c-1.771,0.015-3.511,0.341-5.171,0.968C12.127,13.044,12,13.243,12,13.456v3.394c0,2.717,2.287,5.01,4.546,5.871
		l0.552,0.21c0.124,0.048,0.253,0.072,0.384,0.072c0.128,0,0.255-0.023,0.375-0.069l0.553-0.21C20.691,21.855,23,19.561,23,16.852
		v-3.396c0-0.217-0.128-0.413-0.327-0.5C21.017,12.339,19.264,12.015,17.476,11.998z"/>
</g>
</svg>
