<?xml version="1.0" encoding="utf-8"?>
<!-- Generator: Adobe Illustrator 22.1.0, SVG Export Plug-In . SVG Version: 6.00 Build 0)  -->
<svg version="1.1" id="Layer_1" xmlns="http://www.w3.org/2000/svg" xmlns:xlink="http://www.w3.org/1999/xlink" x="0px" y="0px"
	 viewBox="0 0 24 24" style="enable-background:new 0 0 24 24;" xml:space="preserve">
<g>
	<title>vide-document-flv</title>
	<path d="M1.5,19.5C0.673,19.5,0,18.827,0,18V6c0-0.827,0.673-1.5,1.5-1.5h21C23.327,4.5,24,5.173,24,6v12
		c0,0.827-0.673,1.5-1.5,1.5H1.5z M1.5,5.5C1.224,5.5,1,5.724,1,6v12c0,0.276,0.224,0.5,0.5,0.5h21c0.276,0,0.5-0.224,0.5-0.5V6
		c0-0.276-0.224-0.5-0.5-0.5H1.5z"/>
	<path d="M5.5,15.5C5.224,15.5,5,15.276,5,15v-5c0-0.827,0.673-1.5,1.5-1.5h2C8.776,8.5,9,8.724,9,9S8.776,9.5,8.5,9.5h-2
		C6.224,9.5,6,9.724,6,10v1.5h1.5C7.776,11.5,8,11.724,8,12c0,0.276-0.224,0.5-0.5,0.5H6V15C6,15.276,5.776,15.5,5.5,15.5z"/>
	<path d="M11.5,15.5c-0.827,0-1.5-0.673-1.5-1.5V9c0-0.276,0.224-0.5,0.5-0.5S11,8.724,11,9v5c0,0.276,0.224,0.5,0.5,0.5h2
		c0.276,0,0.5,0.224,0.5,0.5s-0.224,0.5-0.5,0.5H11.5z"/>
	<path d="M17,15.5c-0.157,0-0.306-0.075-0.4-0.2c-1.031-1.375-1.6-3.08-1.6-4.8V9c0-0.276,0.224-0.5,0.5-0.5S16,8.724,16,9v1.5
		c0,1.256,0.353,2.521,1,3.604c0.647-1.083,1-2.348,1-3.604V9c0-0.276,0.224-0.5,0.5-0.5S19,8.724,19,9v1.5
		c0,1.719-0.568,3.424-1.6,4.8C17.306,15.425,17.157,15.5,17,15.5z"/>
</g>
</svg>
