<?xml version="1.0" encoding="utf-8"?>
<!-- Generator: Adobe Illustrator 22.1.0, SVG Export Plug-In . SVG Version: 6.00 Build 0)  -->
<svg version="1.1" id="Layer_1" xmlns="http://www.w3.org/2000/svg" xmlns:xlink="http://www.w3.org/1999/xlink" x="0px" y="0px"
	 viewBox="0 0 24 24" style="enable-background:new 0 0 24 24;" xml:space="preserve">
<g>
	<title>video-file-play</title>
	<path d="M3.5,24C2.673,24,2,23.327,2,22.5v-21C2,0.673,2.673,0,3.5,0h13.293c0.401,0,0.777,0.156,1.061,0.439l3.707,3.707
		C21.844,4.43,22,4.807,22,5.207V22.5c0,0.827-0.673,1.5-1.5,1.5H3.5z M3.5,1C3.224,1,3,1.224,3,1.5v21C3,22.776,3.224,23,3.5,23h17
		c0.276,0,0.5-0.224,0.5-0.5V5.207c0-0.133-0.052-0.259-0.146-0.354l-3.707-3.707C17.053,1.053,16.925,1,16.793,1H3.5z"/>
	<path d="M9.5,18C8.673,18,8,17.327,8,16.5V9c0-0.255,0.065-0.507,0.189-0.729c0.194-0.35,0.514-0.603,0.899-0.713
		c0.135-0.039,0.274-0.058,0.413-0.058c0.252,0,0.503,0.065,0.726,0.189l6.496,3.498c0.25,0.139,0.452,0.341,0.588,0.585
		c0.194,0.35,0.241,0.755,0.131,1.141c-0.11,0.386-0.363,0.705-0.713,0.899L10.248,17.8C10.008,17.934,9.759,18,9.5,18z M9.501,8.5
		c-0.046,0-0.093,0.007-0.139,0.02C9.234,8.556,9.128,8.64,9.063,8.757C9.022,8.831,9,8.915,9,9v7.5C9,16.776,9.224,17,9.5,17
		c0.085,0,0.169-0.022,0.243-0.063l6.481-3.989c0.256-0.143,0.347-0.45,0.213-0.691c-0.045-0.081-0.112-0.148-0.194-0.194
		L9.749,8.566C9.668,8.521,9.585,8.5,9.501,8.5z"/>
</g>
</svg>
