<?xml version="1.0" encoding="utf-8"?>
<!-- Generator: Adobe Illustrator 22.1.0, SVG Export Plug-In . SVG Version: 6.00 Build 0)  -->
<svg version="1.1" id="Layer_1" xmlns="http://www.w3.org/2000/svg" xmlns:xlink="http://www.w3.org/1999/xlink" x="0px" y="0px"
	 viewBox="0 0 24 24" style="enable-background:new 0 0 24 24;" xml:space="preserve">
<g>
	<title>video-file-mpg</title>
	<path d="M3.5,24C2.673,24,2,23.327,2,22.5v-21C2,0.673,2.673,0,3.5,0h12.025C19.095,0,22,2.905,22,6.475V22.5
		c0,0.827-0.673,1.5-1.5,1.5H3.5z M3.5,1C3.224,1,3,1.224,3,1.5v21C3,22.776,3.224,23,3.5,23h17c0.276,0,0.5-0.224,0.5-0.5V6.475
		C21,6.321,20.993,6.162,20.978,6H17.5C16.673,6,16,5.327,16,4.5V1.022C15.838,1.007,15.681,1,15.525,1H3.5z M17,4.5
		C17,4.776,17.224,5,17.5,5h3.297C20.282,3.164,18.836,1.717,17,1.203V4.5z"/>
	<path d="M8.5,19C8.224,19,8,18.776,8,18.5v-3.882l-0.553,1.105C7.365,15.887,7.194,15.989,7,15.989s-0.365-0.102-0.447-0.265
		L6,14.618V18.5C6,18.776,5.776,19,5.5,19S5,18.776,5,18.5v-6c0-0.233,0.158-0.433,0.385-0.487C5.424,12.004,5.462,12,5.5,12
		c0.191,0,0.362,0.106,0.448,0.276L7,14.382l1.053-2.105C8.138,12.106,8.31,12,8.5,12c0.038,0,0.076,0.004,0.113,0.013
		C8.842,12.067,9,12.267,9,12.5v6C9,18.776,8.776,19,8.5,19z"/>
	<path d="M10.5,19c-0.276,0-0.5-0.224-0.5-0.5v-6c0-0.276,0.224-0.5,0.5-0.5H12c1.103,0,2,0.897,2,2s-0.897,2-2,2h-1v2.5
		C11,18.776,10.776,19,10.5,19z M12,15c0.552,0,1-0.448,1-1s-0.448-1-1-1h-1L12,15z"/>
	<path d="M17,19c-1.103,0-2-0.897-2-2v-3c0-1.103,0.897-2,2-2s2,0.897,2,2v0.5c0,0.276-0.224,0.5-0.5,0.5S18,14.776,18,14.5V14
		c0-0.552-0.448-1-1-1s-1,0.448-1,1v3c0,0.552,0.448,1,1,1s1-0.448,1-1h-0.5c-0.276,0-0.5-0.224-0.5-0.5s0.224-0.5,0.5-0.5h1
		c0.276,0,0.5,0.224,0.5,0.5V17C19,18.103,18.103,19,17,19z"/>
</g>
</svg>
