<?xml version="1.0" encoding="utf-8"?>
<!-- Generator: Adobe Illustrator 22.1.0, SVG Export Plug-In . SVG Version: 6.00 Build 0)  -->
<svg version="1.1" id="Layer_1" xmlns="http://www.w3.org/2000/svg" xmlns:xlink="http://www.w3.org/1999/xlink" x="0px" y="0px"
	 viewBox="0 0 24 24" style="enable-background:new 0 0 24 24;" xml:space="preserve">
<g>
	<title>video-file-play-circle</title>
	<path d="M3.5,24C2.673,24,2,23.327,2,22.5v-21C2,0.673,2.673,0,3.5,0h13.293c0.401,0,0.777,0.156,1.061,0.439l3.707,3.707
		C21.844,4.43,22,4.807,22,5.207V22.5c0,0.827-0.673,1.5-1.5,1.5H3.5z M3.5,1C3.224,1,3,1.224,3,1.5v21C3,22.776,3.224,23,3.5,23h17
		c0.276,0,0.5-0.224,0.5-0.5V5.207c0-0.133-0.052-0.259-0.146-0.354l-3.707-3.707C17.053,1.053,16.925,1,16.793,1H3.5z"/>
	<path d="M12,20.5c-3.584,0-6.5-2.916-6.5-6.5c0-3.584,2.916-6.5,6.5-6.5c3.584,0,6.5,2.916,6.5,6.5
		C18.5,17.584,15.584,20.5,12,20.5z M12,8.5c-3.033,0-5.5,2.467-5.5,5.5s2.467,5.5,5.5,5.5s5.5-2.467,5.5-5.5S15.033,8.5,12,8.5z"/>
	<path d="M10.451,17.003c-0.331,0-0.643-0.176-0.815-0.46C9.547,16.394,9.5,16.224,9.5,16.051v-4.102
		C9.499,11.427,9.922,11.001,10.444,11c0.199,0.01,0.356,0.054,0.492,0.136l4.066,2.033c0.248,0.147,0.403,0.352,0.465,0.602
		c0.061,0.245,0.023,0.5-0.107,0.717c-0.079,0.132-0.191,0.244-0.323,0.324l-4.135,2.071C10.779,16.958,10.618,17.003,10.451,17.003
		z M10.5,15.968l3.93-1.969l-3.93-1.965V15.968z"/>
</g>
</svg>
