<?xml version="1.0" encoding="utf-8"?>
<!-- Generator: Adobe Illustrator 22.1.0, SVG Export Plug-In . SVG Version: 6.00 Build 0)  -->
<svg version="1.1" id="Layer_1" xmlns="http://www.w3.org/2000/svg" xmlns:xlink="http://www.w3.org/1999/xlink" x="0px" y="0px"
	 viewBox="0 0 24 24" style="enable-background:new 0 0 24 24;" xml:space="preserve">
<g>
	<title>book-open-text</title>
	<path d="M12,22.5c-0.276,0-0.5-0.224-0.5-0.5c0-1.626-5.288-2.925-10.016-3C0.941,18.991,0.5,18.542,0.5,18V2.5
		c0-0.551,0.448-1,1-1C5.561,1.564,10.44,2.459,12,4.274c1.56-1.814,6.432-2.71,10.484-2.774c0.277,0.003,0.528,0.103,0.712,0.282
		c0.192,0.186,0.3,0.435,0.304,0.702V18c0,0.542-0.441,0.991-0.984,1C17.788,19.073,12.5,20.371,12.5,22
		C12.5,22.276,12.276,22.5,12,22.5z M22.5,2.5c-4.72,0.074-10,1.373-10,3v14.812c1.514-1.15,4.999-2.236,10-2.312l0-15.75L22.5,2.5z
		 M1.5,2.501L1.5,18c3.699,0.059,8.057,0.796,10,2.307V5.5c0-1.626-5.277-2.925-9.997-3C1.5,2.5,1.5,2.501,1.5,2.501z"/>
	<path d="M9.5,8C9.445,8,9.39,7.991,9.337,7.973C7.285,7.268,5.145,6.859,2.977,6.758C2.843,6.751,2.72,6.693,2.63,6.595
		C2.54,6.496,2.494,6.368,2.5,6.235c0.013-0.267,0.235-0.476,0.506-0.476c2.28,0.107,4.514,0.534,6.656,1.269
		c0.261,0.089,0.4,0.374,0.311,0.635C9.903,7.864,9.713,8,9.5,8z"/>
	<path d="M14.5,8c-0.214,0-0.404-0.136-0.473-0.338c-0.089-0.261,0.05-0.546,0.311-0.635c2.142-0.735,4.375-1.162,6.639-1.269
		c0,0,0,0,0.001,0c0.289,0,0.51,0.209,0.522,0.476c0.013,0.276-0.201,0.51-0.476,0.523c-2.168,0.102-4.309,0.511-6.361,1.215
		C14.61,7.991,14.555,8,14.5,8z"/>
	<path d="M9.5,12.258c-0.055,0-0.11-0.009-0.163-0.027c-2.052-0.704-4.193-1.112-6.361-1.213C2.701,11.005,2.488,10.77,2.5,10.495
		c0.013-0.267,0.236-0.476,0.51-0.476c2.276,0.106,4.51,0.532,6.652,1.267c0.261,0.089,0.4,0.374,0.311,0.635
		C9.904,12.122,9.714,12.258,9.5,12.258z"/>
	<path d="M9.5,16.5c-0.055,0-0.109-0.009-0.161-0.026c-2.055-0.706-4.195-1.115-6.363-1.216C2.701,15.244,2.488,15.01,2.5,14.735
		c0.013-0.267,0.234-0.477,0.503-0.477c2.283,0.107,4.516,0.534,6.659,1.269c0.261,0.09,0.4,0.375,0.311,0.635
		C9.903,16.364,9.714,16.5,9.5,16.5z"/>
	<path d="M14.5,12.258c-0.214,0-0.404-0.136-0.473-0.338c-0.089-0.261,0.05-0.546,0.311-0.635c2.143-0.735,4.376-1.161,6.639-1.267
		c0,0,0,0,0.001,0c0.289,0,0.51,0.209,0.522,0.476c0.013,0.276-0.201,0.51-0.476,0.523c-2.168,0.101-4.308,0.51-6.361,1.213
		C14.61,12.249,14.555,12.258,14.5,12.258z"/>
	<path d="M14.5,16.5c-0.214,0-0.404-0.136-0.473-0.338c-0.089-0.261,0.05-0.546,0.311-0.635c2.143-0.735,4.376-1.161,6.639-1.267
		c0,0,0.001,0,0.001,0c0.29,0,0.509,0.209,0.522,0.476c0.013,0.276-0.201,0.51-0.476,0.523c-2.169,0.101-4.309,0.51-6.362,1.214
		C14.609,16.491,14.554,16.5,14.5,16.5z"/>
</g>
</svg>
