<?xml version="1.0" encoding="utf-8"?>
<!-- Generator: Adobe Illustrator 22.1.0, SVG Export Plug-In . SVG Version: 6.00 Build 0)  -->
<svg version="1.1" id="Layer_1" xmlns="http://www.w3.org/2000/svg" xmlns:xlink="http://www.w3.org/1999/xlink" x="0px" y="0px"
	 viewBox="0 0 24 24" style="enable-background:new 0 0 24 24;" xml:space="preserve">
<g>
	<title>book-pin</title>
	<path d="M5,24c-1.379,0-2.5-1.122-2.5-2.5V20H2c-0.276,0-0.5-0.224-0.5-0.5S1.724,19,2,19h0.5v-2H2c-0.276,0-0.5-0.224-0.5-0.5
		S1.724,16,2,16h0.5v-2H2c-0.276,0-0.5-0.224-0.5-0.5S1.724,13,2,13h0.5v-2H2c-0.276,0-0.5-0.224-0.5-0.5S1.724,10,2,10h0.5V8H2
		C1.724,8,1.5,7.776,1.5,7.5S1.724,7,2,7h0.5V2.5C2.5,1.121,3.621,0,5,0h17c0.276,0,0.5,0.224,0.5,0.5S22.276,1,22,1H5
		C4.173,1,3.5,1.673,3.5,2.5S4.173,4,5,4h16c0.827,0,1.5,0.673,1.5,1.5v17c0,0.827-0.673,1.5-1.5,1.5H5z M3.5,21.5
		C3.5,22.327,4.173,23,5,23h16c0.276,0,0.5-0.224,0.5-0.5v-17C21.5,5.224,21.276,5,21,5H5C4.451,5,3.928,4.822,3.5,4.5V7H4
		c0.276,0,0.5,0.224,0.5,0.5S4.276,8,4,8H3.5v2H4c0.276,0,0.5,0.224,0.5,0.5S4.276,11,4,11H3.5v2H4c0.276,0,0.5,0.224,0.5,0.5
		S4.276,14,4,14H3.5v2H4c0.276,0,0.5,0.224,0.5,0.5S4.276,17,4,17H3.5v2H4c0.276,0,0.5,0.224,0.5,0.5S4.276,20,4,20H3.5V21.5z"/>
	<path d="M5,3C4.724,3,4.5,2.776,4.5,2.5S4.724,2,5,2h16c0.276,0,0.5,0.224,0.5,0.5S21.276,3,21,3H5z"/>
	<path d="M12.496,14c-1.103,0-2-0.897-2-2s0.897-2,2-2c1.103,0,2,0.897,2,2S13.599,14,12.496,14z M12.496,11c-0.552,0-1,0.449-1,1
		c0,0.552,0.449,1,1,1s1-0.448,1-1C13.496,11.449,13.048,11,12.496,11z"/>
	<path d="M12.5,20c-0.134,0-0.259-0.052-0.354-0.146C11.957,19.664,7.5,15.171,7.5,12c0-2.757,2.243-5,5-5c2.757,0,5,2.243,5,5
		c0,3.171-4.457,7.664-4.646,7.854C12.759,19.948,12.634,20,12.5,20z M12.5,8c-2.206,0-4,1.794-4,4c0,2.291,3.021,5.724,4,6.776
		c0.979-1.052,4-4.486,4-6.776C16.5,9.794,14.706,8,12.5,8z"/>
</g>
</svg>
