<?xml version="1.0" encoding="utf-8"?>
<!-- Generator: Adobe Illustrator 22.1.0, SVG Export Plug-In . SVG Version: 6.00 Build 0)  -->
<svg version="1.1" id="Layer_1" xmlns="http://www.w3.org/2000/svg" xmlns:xlink="http://www.w3.org/1999/xlink" x="0px" y="0px"
	 viewBox="0 0 24 24" style="enable-background:new 0 0 24 24;" xml:space="preserve">
<g>
	<title>book-open-2</title>
	<path d="M10.5,23c-0.276,0-0.5-0.224-0.5-0.5c0-1.589-1.094-2.5-3-2.5H2c-0.827,0-1.5-0.673-1.5-1.5v-14C0.5,3.673,1.173,3,2,3h0.5
		V2.5C2.5,1.673,3.173,1,4,1h4.966c0.135-0.018,0.272-0.027,0.408-0.027c0.149,0,0.299,0.011,0.446,0.032
		c0.833,0.119,1.57,0.555,2.076,1.229C11.932,2.282,11.967,2.331,12,2.381c0.579-0.868,1.565-1.408,2.622-1.408
		c0.137,0,0.275,0.009,0.412,0.027H20c0.827,0,1.5,0.673,1.5,1.5V3H22c0.827,0,1.5,0.673,1.5,1.5v14c0,0.827-0.673,1.5-1.5,1.5h-5
		c-1.906,0-3,0.911-3,2.5c0,0.276-0.224,0.5-0.5,0.5H10.5z M13.03,22c0.226-1.857,1.725-3,3.97-3h5c0.276,0,0.5-0.224,0.5-0.5v-14
		C22.5,4.224,22.276,4,22,4h-0.5v12.5c0,0.827-0.673,1.5-1.5,1.5h-5c-1.718,0-2.484,0.771-2.484,2.5c0,0.276-0.224,0.5-0.5,0.5
		s-0.5-0.224-0.5-0.5c0-1.706-0.799-2.5-2.516-2.5H4c-0.827,0-1.5-0.673-1.5-1.5V4H2C1.724,4,1.5,4.224,1.5,4.5v14
		C1.5,18.775,1.724,19,2,19h5c2.245,0,3.745,1.143,3.97,3H13.03z M4,2C3.724,2,3.5,2.224,3.5,2.5v14C3.5,16.775,3.724,17,4,17h5
		c1.069,0,1.906,0.27,2.5,0.803V4.518c-0.032-0.258-0.034-0.515-0.005-0.765c-0.058-0.33-0.195-0.648-0.4-0.92
		c-0.345-0.46-0.848-0.758-1.417-0.839c-0.1-0.014-0.202-0.021-0.304-0.021c-0.101,0-0.204,0.007-0.304,0.021
		C9.048,1.998,9.024,2,9,2H4z M12.5,17.802C13.085,17.269,13.923,17,15,17h5c0.276,0,0.5-0.224,0.5-0.5v-14
		C20.5,2.224,20.276,2,20,2h-5c-0.024,0-0.048-0.002-0.072-0.005c-0.101-0.014-0.205-0.022-0.307-0.022
		c-0.467,0-0.912,0.149-1.288,0.431c-0.44,0.33-0.733,0.809-0.828,1.349c0.029,0.248,0.027,0.505-0.006,0.764V17.802z"/>
</g>
</svg>
