<?xml version="1.0" encoding="utf-8"?>
<!-- Generator: Adobe Illustrator 22.1.0, SVG Export Plug-In . SVG Version: 6.00 Build 0)  -->
<svg version="1.1" id="Layer_1" xmlns="http://www.w3.org/2000/svg" xmlns:xlink="http://www.w3.org/1999/xlink" x="0px" y="0px"
	 viewBox="0 0 24 24" style="enable-background:new 0 0 24 24;" xml:space="preserve">
<g>
	<title>book-open-1</title>
	<path d="M20.502,22.973c-0.074,0-0.148-0.008-0.22-0.025c-2.695-0.596-5.481-0.898-8.281-0.898c-2.8,0-5.587,0.302-8.284,0.899
		c-0.07,0.016-0.143,0.024-0.217,0.024c-0.551,0-1-0.448-1-1v-2.655c-0.351-0.032-0.7-0.056-1.042-0.07
		c-0.538-0.023-0.958-0.462-0.958-1V2.03l0.001-0.038c0.012-0.27,0.128-0.517,0.325-0.697C1.01,1.127,1.251,1.035,1.504,1.035
		l0.04,0.001C5.221,1.195,8.832,2.273,12,4.153c3.168-1.881,6.78-2.958,10.456-3.118l0.048-0.001c0.248,0,0.485,0.093,0.67,0.261
		c0.197,0.18,0.312,0.426,0.325,0.693c0,0.001,0.001,0.041,0.001,0.047v16.212c0.001,0.537-0.42,0.976-0.958,1
		c-0.342,0.014-0.692,0.038-1.042,0.07v2.653c0,0.072-0.008,0.146-0.024,0.219c-0.059,0.262-0.215,0.485-0.44,0.628
		C20.875,22.918,20.691,22.972,20.502,22.973C20.502,22.973,20.502,22.973,20.502,22.973z M3.5,21.972
		c1.915-0.424,3.894-0.703,5.896-0.834c-1.87-0.847-3.849-1.42-5.896-1.705V21.972z M14.604,21.138
		c2.001,0.131,3.98,0.41,5.895,0.834l0.001-2.539C18.453,19.719,16.475,20.291,14.604,21.138z M12.5,21.018
		c0.083-0.016,0.164-0.04,0.244-0.071c2.987-1.624,6.361-2.557,9.756-2.699V2.035l0.001-0.001v-0.25l0,0.25
		C18.983,2.187,15.529,3.219,12.5,5.019V21.018z M11.256,20.947c0.079,0.031,0.16,0.054,0.244,0.071V5.019
		c-3.028-1.8-6.481-2.832-9.996-2.985c-0.003,0-0.005,0.001-0.006,0.001L1.5,18.247C4.896,18.39,8.269,19.323,11.256,20.947z"/>
</g>
</svg>
