<?xml version="1.0" encoding="utf-8"?>
<!-- Generator: Adobe Illustrator 22.1.0, SVG Export Plug-In . SVG Version: 6.00 Build 0)  -->
<svg version="1.1" id="Layer_1" xmlns="http://www.w3.org/2000/svg" xmlns:xlink="http://www.w3.org/1999/xlink" x="0px" y="0px"
	 viewBox="0 0 24 24" style="enable-background:new 0 0 24 24;" xml:space="preserve">
<g>
	<title>phonebook</title>
	<path d="M5.5,24C4.121,24,3,22.878,3,21.5v-19C3,1.121,4.121,0,5.5,0h13C19.327,0,20,0.673,20,1.5v2.586
		c0.59,0.209,1,0.774,1,1.414v17c0,0.827-0.673,1.5-1.5,1.5H5.5z M4,21.5C4,22.327,4.673,23,5.5,23h14c0.276,0,0.5-0.224,0.5-0.5
		v-17C20,5.224,19.776,5,19.5,5h-14C4.951,5,4.428,4.822,4,4.5V21.5z M19,4V1.5C19,1.224,18.776,1,18.5,1h-13C4.673,1,4,1.673,4,2.5
		S4.673,4,5.5,4H17V3.5C17,3.224,16.776,3,16.5,3h-11C5.224,3,5,2.776,5,2.5S5.224,2,5.5,2h11C17.327,2,18,2.673,18,3.5V4H19z"/>
	<path d="M14.729,20.006c-0.433,0-0.87-0.037-1.297-0.111c-0.006,0-0.028-0.004-0.049-0.009c-0.554-0.098-1.113-0.263-1.65-0.489
		c-1.904-0.801-3.382-2.294-4.161-4.206c-0.205-0.501-0.357-1.023-0.453-1.552c-0.009-0.032-0.015-0.065-0.017-0.098
		c-0.237-1.408-0.074-2.856,0.47-4.19c0.188-0.464,0.633-0.764,1.135-0.764c0.158,0,0.312,0.03,0.459,0.09
		C9.318,8.74,9.454,8.83,9.571,8.947l2.1,2.105c0.677,0.678,0.677,1.782,0,2.46L11.183,14c-0.585,0.585-1.21,0.882-1.859,0.882
		c-0.29,0-0.581-0.06-0.872-0.179c0.015,0.037,0.029,0.074,0.044,0.111c0.679,1.665,1.966,2.965,3.623,3.662
		c0.059,0.025,0.118,0.049,0.177,0.072c-0.392-0.942-0.155-1.878,0.701-2.736l0.488-0.487c0.328-0.328,0.765-0.509,1.23-0.509
		s0.902,0.18,1.23,0.508l2.106,2.105c0.477,0.477,0.478,1.253,0.001,1.73c-0.115,0.116-0.252,0.207-0.405,0.269
		C16.712,19.812,15.729,20.006,14.729,20.006z M13.743,18.932c0.326,0.049,0.658,0.074,0.987,0.074c0.869,0,1.725-0.169,2.542-0.502
		c0.029-0.012,0.054-0.028,0.074-0.049c0.042-0.043,0.066-0.099,0.066-0.159s-0.023-0.116-0.066-0.158l-2.106-2.105
		c-0.139-0.139-0.325-0.216-0.524-0.216c-0.198,0-0.384,0.077-0.523,0.216l-0.487,0.487C12.905,17.321,12.914,18.046,13.743,18.932z
		 M8.07,13.262c0.45,0.418,0.86,0.622,1.25,0.622c0.38,0,0.758-0.194,1.156-0.592l0.487-0.487c0.288-0.289,0.288-0.758,0-1.047
		l-2.1-2.105C8.842,9.632,8.817,9.616,8.788,9.604C8.762,9.593,8.734,9.588,8.705,9.588c-0.092,0-0.174,0.055-0.208,0.14
		C8.038,10.853,7.891,12.073,8.07,13.262z"/>
</g>
</svg>
