<?xml version="1.0" encoding="utf-8"?>
<!-- Generator: Adobe Illustrator 22.1.0, SVG Export Plug-In . SVG Version: 6.00 Build 0)  -->
<svg version="1.1" id="Layer_1" xmlns="http://www.w3.org/2000/svg" xmlns:xlink="http://www.w3.org/1999/xlink" x="0px" y="0px"
	 viewBox="0 0 24 24" style="enable-background:new 0 0 24 24;" xml:space="preserve">
<g>
	<title>modern-tv-3d-sync</title>
	<path d="M13.494,15.949c-0.276,0-0.5-0.224-0.5-0.5v-6c0-0.276,0.224-0.5,0.5-0.5h1c1.93,0,3.5,1.57,3.5,3.5s-1.57,3.5-3.5,3.5
		H13.494z M14.494,14.949c1.378,0,2.5-1.122,2.5-2.5c0-1.379-1.122-2.5-2.5-2.5h-0.5v5H14.494z"/>
	<path d="M19.047,22.44c-0.031,0-0.064-0.003-0.096-0.009c-0.132-0.026-0.245-0.101-0.319-0.212
		c-0.074-0.111-0.101-0.244-0.075-0.375l0.594-3.018c-1.875,1.929-4.441,3.02-7.173,3.02c-1.939,0-3.824-0.561-5.451-1.624
		c-3.289-2.146-5.021-6.04-4.414-9.921c0.038-0.245,0.246-0.422,0.494-0.422c0.025,0,0.05,0.002,0.076,0.006
		c0.273,0.043,0.46,0.299,0.417,0.572c-0.547,3.492,1.013,6.997,3.972,8.928c1.464,0.956,3.16,1.461,4.904,1.461
		c2.667,0,5.207-1.189,6.905-3.207l-3.805,0.342c-0.008,0.001-0.037,0.002-0.045,0.002c-0.261,0-0.475-0.196-0.498-0.455
		c-0.024-0.274,0.179-0.518,0.453-0.543l4.981-0.447c0.008-0.001,0.04-0.002,0.047-0.002c0.142,0,0.273,0.059,0.369,0.166
		c0.104,0.116,0.149,0.277,0.119,0.431l-0.965,4.906C19.492,22.271,19.286,22.44,19.047,22.44z"/>
	<path d="M21.185,14.758c-0.043,0-0.086-0.006-0.128-0.017c-0.129-0.034-0.237-0.116-0.304-0.232
		c-0.067-0.115-0.085-0.25-0.052-0.379c1.017-3.856-0.664-7.978-4.088-10.023c-1.398-0.835-2.989-1.277-4.598-1.277
		c-0.742,0-1.488,0.093-2.217,0.277c-1.983,0.5-3.723,1.651-4.952,3.264l3.923-0.352c0.007-0.001,0.037-0.002,0.045-0.002
		c0.26,0,0.475,0.196,0.498,0.455c0.012,0.133-0.029,0.263-0.114,0.365C9.111,6.94,8.991,7.003,8.858,7.015l-4.98,0.447
		C3.87,7.463,3.841,7.464,3.833,7.464c-0.03,0-0.054-0.005-0.071-0.01C3.753,7.453,3.745,7.451,3.739,7.45
		C3.634,7.433,3.534,7.379,3.462,7.299C3.357,7.182,3.312,7.021,3.343,6.868l0.965-4.906c0.046-0.234,0.252-0.404,0.49-0.404
		c0.033,0,0.067,0.003,0.099,0.01C5.026,1.594,5.139,1.669,5.213,1.78s0.101,0.244,0.075,0.375L4.738,4.956
		c1.298-1.38,2.946-2.347,4.816-2.818c0.809-0.204,1.638-0.307,2.463-0.307c1.789,0,3.557,0.49,5.11,1.419
		c3.804,2.272,5.672,6.851,4.542,11.136C21.61,14.604,21.411,14.758,21.185,14.758z"/>
	<path d="M7.494,15.949c-0.276,0-0.5-0.224-0.5-0.5s0.224-0.5,0.5-0.5h2.5c0.551,0,1-0.448,1-1s-0.449-1-1-1h-1.5
		c-0.276,0-0.5-0.224-0.5-0.5c0-0.276,0.224-0.5,0.5-0.5h1.5c0.551,0,1-0.449,1-1s-0.449-1-1-1h-2.5c-0.276,0-0.5-0.224-0.5-0.5
		s0.224-0.5,0.5-0.5h2.5c1.103,0,2,0.897,2,2c0,0.575-0.254,1.123-0.679,1.5c0.425,0.376,0.679,0.925,0.679,1.5c0,1.103-0.897,2-2,2
		H7.494z"/>
</g>
</svg>
