<?xml version="1.0" encoding="utf-8"?>
<!-- Generator: Adobe Illustrator 22.1.0, SVG Export Plug-In . SVG Version: 6.00 Build 0)  -->
<svg version="1.1" id="Layer_1" xmlns="http://www.w3.org/2000/svg" xmlns:xlink="http://www.w3.org/1999/xlink" x="0px" y="0px"
	 viewBox="0 0 24 24" style="enable-background:new 0 0 24 24;" xml:space="preserve">
<g>
	<title>modern-tv-wide</title>
	<path d="M22.5,20.5c-0.175,0-0.339-0.093-0.429-0.243L20.717,18H3.283l-1.354,2.257C1.839,20.407,1.675,20.5,1.5,20.5
		c-0.09,0-0.179-0.025-0.257-0.071c-0.236-0.142-0.313-0.449-0.171-0.686L2.117,18H1c-0.551,0-1-0.448-1-1V4.5c0-0.551,0.449-1,1-1
		h22c0.552,0,1,0.449,1,1v13c0,0.276-0.224,0.5-0.5,0.5h-1.617l1.045,1.743c0.142,0.237,0.065,0.544-0.171,0.686
		C22.68,20.475,22.591,20.5,22.5,20.5z M1,17h22V4.5H1l0,0L1,17z"/>
</g>
</svg>
