<?xml version="1.0" encoding="utf-8"?>
<!-- Generator: Adobe Illustrator 22.1.0, SVG Export Plug-In . SVG Version: 6.00 Build 0)  -->
<svg version="1.1" id="Layer_1" xmlns="http://www.w3.org/2000/svg" xmlns:xlink="http://www.w3.org/1999/xlink" x="0px" y="0px"
	 viewBox="0 0 24 24" style="enable-background:new 0 0 24 24;" xml:space="preserve">
<g>
	<title>modern-tv-curvy-edge</title>
	<path d="M7,20.478c-0.276,0-0.5-0.224-0.5-0.5s0.224-0.5,0.5-0.5h4.5v-1.994c-3.49,0.013-6.993,0.164-10.417,0.448
		c-0.028,0.003-0.058,0.004-0.088,0.004c-0.233,0-0.46-0.084-0.641-0.236c-0.204-0.172-0.329-0.414-0.352-0.68
		C0.001,16.991,0,16.962,0,16.934V4.522c-0.001-0.266,0.102-0.517,0.29-0.706c0.188-0.19,0.439-0.294,0.706-0.295
		c0.031,0,0.059,0.001,0.088,0.004C4.688,3.823,8.361,3.974,12,3.974s7.312-0.152,10.916-0.451c0.028-0.002,0.057-0.004,0.086-0.004
		c0.234,0,0.463,0.084,0.643,0.236c0.204,0.172,0.329,0.414,0.351,0.68C23.999,4.464,24,4.493,24,4.522v12.412
		c0.001,0.266-0.103,0.517-0.29,0.706c-0.188,0.19-0.439,0.295-0.706,0.296c-0.031,0-0.06-0.001-0.089-0.004
		c-3.422-0.284-6.925-0.435-10.415-0.448v1.994H17c0.276,0,0.5,0.224,0.5,0.5s-0.224,0.5-0.5,0.5H7z M1.014,4.521
		C1.002,4.522,0.997,4.526,0.997,4.526L1,16.934c0.001,0,0.004,0.007,0.004,0.007c3.615-0.306,7.303-0.458,10.959-0.46
		c0.013-0.002,0.026-0.003,0.037-0.003c0.012,0,0.025,0.001,0.039,0.003c3.648,0,7.339,0.154,10.961,0.455l0-12.414
		c-3.633,0.3-7.333,0.452-11,0.452C8.338,4.974,4.642,4.822,1.014,4.521z"/>
</g>
</svg>
