<?xml version="1.0" encoding="utf-8"?>
<!-- Generator: Adobe Illustrator 22.1.0, SVG Export Plug-In . SVG Version: 6.00 Build 0)  -->
<svg version="1.1" id="Layer_1" xmlns="http://www.w3.org/2000/svg" xmlns:xlink="http://www.w3.org/1999/xlink" x="0px" y="0px"
	 viewBox="0 0 24 24" style="enable-background:new 0 0 24 24;" xml:space="preserve">
<g>
	<title>modern-tv-3d-glasses</title>
	<path d="M11.5,24c-0.827,0-1.5-0.673-1.5-1.5v-8c0-0.827,0.673-1.5,1.5-1.5h11c0.827,0,1.5,0.673,1.5,1.5v8
		c0,0.827-0.673,1.5-1.5,1.5H11.5z M11.5,14c-0.276,0-0.5,0.224-0.5,0.5v8c0,0.276,0.224,0.5,0.5,0.5h11c0.276,0,0.5-0.224,0.5-0.5
		v-8c0-0.276-0.224-0.5-0.5-0.5H11.5z"/>
	<path d="M12.5,22c-0.276,0-0.5-0.224-0.5-0.5s0.224-0.5,0.5-0.5H15c0.552,0,1-0.448,1-1s-0.448-1-1-1h-1.5
		c-0.276,0-0.5-0.224-0.5-0.5s0.224-0.5,0.5-0.5H15c0.552,0,1-0.448,1-1s-0.448-1-1-1h-2.5c-0.276,0-0.5-0.224-0.5-0.5
		s0.224-0.5,0.5-0.5H15c1.103,0,2,0.897,2,2c0,0.575-0.253,1.123-0.679,1.5C16.747,18.877,17,19.425,17,20c0,1.103-0.897,2-2,2H12.5
		z"/>
	<path d="M18.5,22c-0.276,0-0.5-0.224-0.5-0.5v-6c0-0.276,0.224-0.5,0.5-0.5c1.93,0,3.5,1.57,3.5,3.5S20.43,22,18.5,22z M19,20.949
		c1.141-0.235,2-1.261,2-2.449s-0.859-2.215-2-2.449V20.949z"/>
	<path d="M3.5,14c-1.388,0-2.582-1.036-2.778-2.409l-0.717-5.02c-0.01-0.067-0.005-0.135,0.014-0.203
		c0.005-0.019,0.022-0.058,0.031-0.075C0.058,6.275,0.072,6.239,0.1,6.201L4.001,1C4.47,0.374,5.218,0,6,0h1.5
		C7.776,0,8,0.224,8,0.5S7.776,1,7.5,1H6c-0.47,0-0.918,0.224-1.2,0.6L1.5,6h17l-3.3-4.4C14.919,1.224,14.47,1,14,1h-1.5
		C12.225,1,12,0.776,12,0.5S12.225,0,12.5,0H14c0.783,0,1.531,0.374,2,1l3.9,5.2c0.029,0.039,0.043,0.074,0.05,0.094
		c0.006,0.012,0.021,0.038,0.031,0.074c0.017,0.063,0.022,0.126,0.015,0.189c0,0.005-0.716,5.014-0.716,5.014
		C19.246,11.816,19.034,12,18.788,12c-0.024,0-0.049-0.002-0.074-0.006c-0.13-0.018-0.247-0.088-0.328-0.195
		c-0.08-0.107-0.114-0.239-0.095-0.371L18.924,7H1.077l0.635,4.449C1.839,12.333,2.607,13,3.5,13h2
		c0.988-0.001,1.885-0.623,2.232-1.548l0.447-1.191c0.183-0.486,0.545-0.871,1.018-1.085c0.255-0.115,0.524-0.173,0.8-0.173
		c0.234,0,0.465,0.042,0.687,0.126c0.522,0.197,0.934,0.609,1.131,1.131l0.4,1.065c0.097,0.258-0.034,0.547-0.292,0.644
		C11.867,11.989,11.808,12,11.748,12l0,0c-0.207,0-0.395-0.13-0.468-0.324l-0.4-1.064c-0.095-0.253-0.296-0.453-0.549-0.549
		c-0.108-0.041-0.22-0.062-0.334-0.062c-0.134,0-0.264,0.028-0.388,0.084c-0.23,0.104-0.405,0.291-0.494,0.526l-0.447,1.19
		C8.176,13.116,6.904,13.999,5.501,14H3.5z"/>
</g>
</svg>
