<?xml version="1.0" encoding="utf-8"?>
<!-- Generator: Adobe Illustrator 22.1.0, SVG Export Plug-In . SVG Version: 6.00 Build 0)  -->
<svg version="1.1" id="Layer_1" xmlns="http://www.w3.org/2000/svg" xmlns:xlink="http://www.w3.org/1999/xlink" x="0px" y="0px"
	 viewBox="0 0 24 24" style="enable-background:new 0 0 24 24;" xml:space="preserve">
<g>
	<title>modern-tv-hd</title>
	<path d="M7,22.5c-0.276,0-0.5-0.224-0.5-0.5s0.224-0.5,0.5-0.5h3v-2H1.5C0.673,19.5,0,18.827,0,18V3c0-0.827,0.673-1.5,1.5-1.5h21
		C23.327,1.5,24,2.173,24,3v15c0,0.827-0.673,1.5-1.5,1.5H14v2h3c0.276,0,0.5,0.224,0.5,0.5s-0.224,0.5-0.5,0.5H7z M13,21.5v-2h-2v2
		H13z M1.5,2.5C1.224,2.5,1,2.724,1,3v15c0,0.276,0.224,0.5,0.5,0.5h21c0.276,0,0.5-0.224,0.5-0.5V3c0-0.276-0.224-0.5-0.5-0.5H1.5z
		"/>
	<path d="M13.5,14.5c-0.276,0-0.5-0.224-0.5-0.5V6c0-0.276,0.224-0.5,0.5-0.5c2.481,0,4.5,2.019,4.5,4.5
		C18,12.481,15.981,14.5,13.5,14.5z M14,13.464c1.702-0.245,3-1.717,3-3.464s-1.298-3.22-3-3.464V13.464z"/>
	<path d="M10.5,14.5c-0.276,0-0.5-0.224-0.5-0.5v-3.5H7V14c0,0.276-0.224,0.5-0.5,0.5S6,14.276,6,14V6c0-0.276,0.224-0.5,0.5-0.5
		S7,5.724,7,6v3.5h3V6c0-0.276,0.224-0.5,0.5-0.5S11,5.724,11,6v8C11,14.276,10.776,14.5,10.5,14.5z"/>
</g>
</svg>
