<?xml version="1.0" encoding="utf-8"?>
<!-- Generator: Adobe Illustrator 22.1.0, SVG Export Plug-In . SVG Version: 6.00 Build 0)  -->
<svg version="1.1" id="Layer_1" xmlns="http://www.w3.org/2000/svg" xmlns:xlink="http://www.w3.org/1999/xlink" x="0px" y="0px"
	 viewBox="0 0 24 24" style="enable-background:new 0 0 24 24;" xml:space="preserve">
<title>photo-frame-landscape</title>
<g>
	<path d="M8.067,24c-1.161,0-2.143-0.9-2.245-2.051l-1.008-6.64l-3.37,8.225C1.327,23.817,1.055,24,0.749,24
		c-0.098,0-0.193-0.019-0.284-0.056c-0.185-0.076-0.33-0.219-0.407-0.404s-0.078-0.389-0.002-0.574l4.32-10.543l-1.51-9.948
		c-0.003-0.019-0.005-0.04-0.007-0.061C2.814,1.819,3.005,1.239,3.397,0.783s0.938-0.732,1.537-0.776C4.988,0.002,5.043,0,5.097,0
		h13.687c1.161,0,2.143,0.9,2.245,2.051l2.961,19.475l0.006,0.056c0.045,0.6-0.146,1.181-0.538,1.637
		c-0.392,0.456-0.938,0.731-1.537,0.776C21.865,23.998,21.807,24,21.749,24H8.067z M5.883,12.361c0.004,0.02,0.007,0.04,0.009,0.061
		l1.417,9.327c0.003,0.02,0.005,0.04,0.007,0.06C7.344,22.195,7.673,22.5,8.063,22.5h13.686c0.02,0,0.04-0.001,0.06-0.002
		c0.2-0.015,0.382-0.107,0.513-0.259c0.125-0.146,0.189-0.33,0.181-0.521l-2.96-19.467l-0.006-0.056
		C19.507,1.805,19.179,1.5,18.788,1.5H5.1c-0.017,0-0.036,0.001-0.054,0.002c-0.403,0.03-0.711,0.379-0.693,0.781L5.883,12.361z"/>
	<path d="M9.675,21c-0.369,0-0.688-0.275-0.742-0.64l-2.44-16.5C6.461,3.644,6.525,3.425,6.667,3.26C6.81,3.095,7.017,3,7.235,3
		h9.94c0.369,0,0.688,0.275,0.742,0.64l2.441,16.5c0.032,0.216-0.031,0.435-0.174,0.6C20.042,20.905,19.835,21,19.616,21H9.675z
		 M18.747,19.5l-0.357-2.413l-0.972-0.972c-0.04-0.04-0.085-0.076-0.133-0.106c-0.119-0.074-0.255-0.113-0.395-0.113
		c-0.262,0-0.5,0.132-0.638,0.353L14.22,19.5H18.747z M12.45,19.5l2.53-4.047c0.319-0.51,0.816-0.865,1.402-1
		c0.168-0.039,0.34-0.058,0.51-0.058c0.402,0,0.798,0.109,1.147,0.317L16.528,4.5H8.104l2.218,15H12.45z"/>
	<path d="M11.175,12.375c-0.62,0-1.125-0.505-1.125-1.125s0.505-1.125,1.125-1.125S12.3,10.63,12.3,11.25
		S11.796,12.375,11.175,12.375z"/>
</g>
</svg>
