<?xml version="1.0" encoding="utf-8"?>
<!-- Generator: Adobe Illustrator 22.1.0, SVG Export Plug-In . SVG Version: 6.00 Build 0)  -->
<svg version="1.1" id="Layer_1" xmlns="http://www.w3.org/2000/svg" xmlns:xlink="http://www.w3.org/1999/xlink" x="0px" y="0px"
	 viewBox="0 0 24 24" style="enable-background:new 0 0 24 24;" xml:space="preserve">
<title>iris-scan-lock</title>
<g>
	<path d="M11.858,15c-4.345,0-8.652-3.04-11.234-5.885c-0.831-0.922-0.831-2.311-0.002-3.232C3.206,3.038,7.514,0,11.858,0
		c0.051,0,0.103,0,0.155,0.001L12.134,0c4.348,0,8.659,3.037,11.244,5.88c0.832,0.923,0.832,2.312,0.002,3.233
		c-0.143,0.158-0.346,0.248-0.557,0.248c-0.186,0-0.364-0.068-0.502-0.193c-0.307-0.277-0.332-0.752-0.055-1.059
		c0.314-0.348,0.314-0.873,0-1.222c-2.367-2.604-6.265-5.388-10.102-5.388c-0.05,0-0.1,0-0.151,0.001L11.868,1.5
		c-3.862,0-7.767,2.784-10.134,5.39c-0.312,0.346-0.312,0.871,0.002,1.22C4.101,10.715,8.005,13.5,11.865,13.5
		c0,0,0.123-0.001,0.123-0.001c0.426,0.007,0.755,0.331,0.762,0.738c0.007,0.414-0.324,0.756-0.737,0.762L11.858,15z"/>
	<path d="M12,12c-2.481,0-4.5-2.019-4.5-4.5S9.519,3,12,3s4.5,2.019,4.5,4.5S14.481,12,12,12z M12,4.5c-1.654,0-3,1.346-3,3
		s1.346,3,3,3s3-1.346,3-3S13.654,4.5,12,4.5z"/>
	<path d="M15.75,24c-1.241,0-2.25-1.009-2.25-2.25v-4.5c0-0.96,0.615-1.808,1.5-2.121V14.25c0-2.068,1.682-3.75,3.75-3.75
		s3.75,1.682,3.75,3.75v0.879c0.885,0.314,1.5,1.162,1.5,2.121v4.5c0,1.241-1.009,2.25-2.25,2.25H15.75z M15.75,16.5
		c-0.414,0-0.75,0.336-0.75,0.75v4.5c0,0.414,0.336,0.75,0.75,0.75h6c0.414,0,0.75-0.336,0.75-0.75v-4.5
		c0-0.414-0.336-0.75-0.75-0.75H15.75z M21,15v-0.75c0-1.24-1.009-2.25-2.25-2.25s-2.25,1.009-2.25,2.25L21,15z"/>
	<circle cx="18.75" cy="19.529" r="1.125"/>
</g>
</svg>
