<?xml version="1.0" encoding="utf-8"?>
<!-- Generator: Adobe Illustrator 22.1.0, SVG Export Plug-In . SVG Version: 6.00 Build 0)  -->
<svg version="1.1" id="Layer_1" xmlns="http://www.w3.org/2000/svg" xmlns:xlink="http://www.w3.org/1999/xlink" x="0px" y="0px"
	 viewBox="0 0 24 24" style="enable-background:new 0 0 24 24;" xml:space="preserve">
<title>iris-scan-denied</title>
<g>
	<path d="M17.249,24c-3.722,0-6.75-3.028-6.75-6.75s3.028-6.75,6.75-6.75s6.75,3.028,6.75,6.75S20.971,24,17.249,24z M17.249,12
		c-2.895,0-5.25,2.355-5.25,5.25s2.355,5.25,5.25,5.25s5.25-2.355,5.25-5.25S20.144,12,17.249,12z"/>
	<path d="M19.499,20.249c-0.2,0-0.389-0.078-0.53-0.22l-1.72-1.72l-1.72,1.72c-0.142,0.142-0.33,0.22-0.53,0.22
		s-0.389-0.078-0.53-0.22c-0.292-0.292-0.292-0.768,0-1.061l1.72-1.72l-1.72-1.72c-0.292-0.292-0.292-0.768,0-1.061
		c0.142-0.142,0.33-0.22,0.53-0.22s0.389,0.078,0.53,0.22l1.72,1.72l1.72-1.72c0.142-0.142,0.33-0.22,0.53-0.22
		s0.389,0.078,0.53,0.22c0.292,0.292,0.292,0.768,0,1.061l-1.72,1.72l1.72,1.72c0.292,0.292,0.292,0.768,0,1.061
		C19.888,20.171,19.699,20.249,19.499,20.249z"/>
	<path d="M8.26,14.316c-0.095,0-0.188-0.018-0.277-0.053c-2.806-1.118-5.352-2.9-7.364-5.153c-0.828-0.919-0.827-2.307,0.002-3.228
		C3.205,3.038,7.513,0,11.857,0c0.051,0,0.103,0,0.155,0.001L12.137,0c4.343,0,8.653,3.035,11.239,5.876
		c0.832,0.923,0.833,2.312,0.002,3.233c-0.347,0.383-0.722,0.765-1.115,1.136c-0.14,0.132-0.323,0.205-0.515,0.205
		c-0.205,0-0.404-0.085-0.545-0.234c-0.284-0.301-0.271-0.777,0.03-1.061c0.365-0.344,0.712-0.698,1.032-1.052
		c0.313-0.347,0.312-0.872-0.001-1.22C19.896,4.281,15.996,1.5,12.156,1.5c-0.048,0-0.096,0-0.144,0.001L11.867,1.5
		C8.005,1.5,4.1,4.284,1.733,6.889c-0.312,0.346-0.312,0.871,0.002,1.22c1.86,2.082,4.212,3.728,6.802,4.76
		c0.384,0.153,0.572,0.59,0.419,0.974C8.842,14.131,8.569,14.316,8.26,14.316z"/>
	<path d="M10.499,11.687c-0.104,0-0.205-0.021-0.3-0.063c-1.101-0.481-1.949-1.362-2.387-2.481C7.373,8.024,7.397,6.801,7.878,5.7
		c0.481-1.101,1.362-1.949,2.481-2.387C10.888,3.105,11.441,3,12.001,3c0.62,0,1.226,0.127,1.801,0.379
		c2.271,0.992,3.313,3.648,2.322,5.921c-0.119,0.274-0.389,0.45-0.688,0.45c-0.104,0-0.204-0.021-0.3-0.063
		c-0.379-0.165-0.553-0.608-0.388-0.987c0.66-1.515-0.034-3.285-1.548-3.947c-0.384-0.168-0.787-0.253-1.2-0.253
		c-0.374,0-0.742,0.07-1.095,0.208C10.16,5.002,9.573,5.567,9.252,6.301C8.932,7.035,8.916,7.85,9.208,8.596
		c0.292,0.746,0.857,1.333,1.591,1.654c0.184,0.08,0.325,0.227,0.398,0.414c0.073,0.187,0.069,0.39-0.011,0.574
		C11.067,11.51,10.797,11.687,10.499,11.687z"/>
</g>
</svg>
