<?xml version="1.0" encoding="utf-8"?>
<!-- Generator: Adobe Illustrator 22.1.0, SVG Export Plug-In . SVG Version: 6.00 Build 0)  -->
<svg version="1.1" id="Layer_1" xmlns="http://www.w3.org/2000/svg" xmlns:xlink="http://www.w3.org/1999/xlink" x="0px" y="0px"
	 viewBox="0 0 24 24" style="enable-background:new 0 0 24 24;" xml:space="preserve">
<title>iris-scan-search</title>
<g>
	<path d="M8.26,14.316c-0.095,0-0.188-0.018-0.277-0.053c-2.806-1.118-5.352-2.9-7.364-5.153c-0.828-0.919-0.827-2.307,0.002-3.228
		C3.205,3.038,7.513,0,11.857,0c0.051,0,0.103,0,0.155,0.001L12.137,0c4.343,0,8.653,3.035,11.239,5.876
		c0.832,0.923,0.833,2.312,0.002,3.233c-0.347,0.383-0.722,0.765-1.115,1.136c-0.14,0.132-0.323,0.205-0.515,0.205
		c-0.205,0-0.404-0.085-0.545-0.234c-0.284-0.301-0.271-0.777,0.03-1.061c0.365-0.344,0.712-0.698,1.032-1.052
		c0.313-0.347,0.312-0.872-0.001-1.22C19.896,4.281,15.996,1.5,12.156,1.5c-0.048,0-0.096,0-0.144,0.001L11.867,1.5
		C8.005,1.5,4.1,4.284,1.733,6.889c-0.312,0.346-0.312,0.871,0.002,1.22c1.86,2.082,4.212,3.728,6.802,4.76
		c0.384,0.153,0.572,0.59,0.419,0.974C8.842,14.131,8.569,14.316,8.26,14.316z"/>
	<path d="M9.744,11.25c-0.164,0-0.32-0.052-0.451-0.151c-0.959-0.722-1.579-1.775-1.748-2.967C7.377,6.941,7.682,5.757,8.404,4.798
		c0.723-0.96,1.776-1.582,2.966-1.75c0.211-0.03,0.426-0.045,0.638-0.045c0.978,0,1.91,0.313,2.697,0.905
		c1.122,0.845,1.793,2.187,1.794,3.591c0,0.2-0.078,0.389-0.219,0.531s-0.33,0.22-0.53,0.22c-0.413,0-0.75-0.336-0.75-0.749
		c-0.001-0.936-0.448-1.831-1.196-2.394c-0.524-0.395-1.146-0.603-1.798-0.603c-0.141,0-0.284,0.01-0.425,0.03
		C10.786,4.645,10.084,5.059,9.602,5.7C9.12,6.34,8.916,7.129,9.028,7.923c0.112,0.793,0.526,1.496,1.167,1.978
		c0.16,0.12,0.264,0.296,0.292,0.494c0.028,0.198-0.023,0.396-0.144,0.556C10.203,11.138,9.978,11.25,9.744,11.25z"/>
	<path d="M23.249,24c-0.2,0-0.389-0.078-0.53-0.22l-3.293-3.293c-1.051,0.817-2.343,1.263-3.677,1.263c-3.308,0-6-2.692-6-6
		s2.692-6,6-6s6,2.692,6,6c0,1.333-0.446,2.626-1.263,3.677l3.293,3.293c0.292,0.292,0.292,0.768,0,1.061
		C23.638,23.922,23.449,24,23.249,24z M15.749,11.25c-2.481,0-4.5,2.019-4.5,4.5s2.019,4.5,4.5,4.5s4.5-2.019,4.5-4.5
		S18.23,11.25,15.749,11.25z"/>
</g>
</svg>
