<?xml version="1.0" encoding="utf-8"?>
<!-- Generator: Adobe Illustrator 22.1.0, SVG Export Plug-In . SVG Version: 6.00 Build 0)  -->
<svg version="1.1" id="Layer_1" xmlns="http://www.w3.org/2000/svg" xmlns:xlink="http://www.w3.org/1999/xlink" x="0px" y="0px"
	 viewBox="0 0 24 24" style="enable-background:new 0 0 24 24;" xml:space="preserve">
<title>iris-scan-user</title>
<g>
	<path d="M11.855,14.999c-4.342,0-8.647-3.04-11.229-5.884c-0.832-0.922-0.832-2.312-0.001-3.232C3.206,3.038,7.512,0,11.858,0
		c0.051,0,0.103,0,0.154,0.001L12.147,0c4.336,0,8.646,3.038,11.233,5.88c0.832,0.923,0.833,2.312,0.002,3.233
		c-0.143,0.158-0.346,0.248-0.557,0.248c-0.186,0-0.364-0.068-0.502-0.193c-0.307-0.277-0.332-0.752-0.055-1.059
		c0.314-0.348,0.314-0.873,0-1.222C19.899,4.283,16,1.499,12.168,1.499c-0.051,0-0.103,0-0.154,0.001L11.863,1.5
		c-3.859,0-7.761,2.784-10.125,5.389C1.424,7.236,1.425,7.76,1.739,8.109c2.364,2.605,6.27,5.39,10.138,5.39l0.112-0.001
		c0.418,0,0.755,0.331,0.761,0.737c0.007,0.413-0.323,0.755-0.737,0.763L11.855,14.999L11.855,14.999z"/>
	<path d="M12,12c-2.481,0-4.5-2.019-4.5-4.5S9.518,3,12,3s4.5,2.019,4.5,4.5c0,0.414-0.336,0.75-0.75,0.75
		C15.336,8.25,15,7.914,15,7.5c0-1.654-1.346-3-3-3s-3,1.346-3,3s1.346,3,3,3c0.413,0,0.75,0.336,0.75,0.75S12.413,12,12,12z"/>
	<path d="M18.003,16.5c-1.861,0-3.375-1.514-3.375-3.375c0-1.861,1.514-3.375,3.375-3.375s3.375,1.514,3.375,3.375
		C21.378,14.986,19.864,16.5,18.003,16.5z M18.003,11.25c-1.034,0-1.875,0.841-1.875,1.875c0,1.034,0.841,1.875,1.875,1.875
		s1.875-0.841,1.875-1.875C19.878,12.091,19.037,11.25,18.003,11.25z"/>
	<path d="M12.75,24C12.336,24,12,23.663,12,23.25v-1.5c0-3.308,2.692-6,6-6c3.308,0.001,5.999,2.692,6,6v1.5
		c0,0.414-0.336,0.75-0.75,0.75H12.75z M22.5,22.5v-0.75c-0.001-2.48-2.02-4.499-4.5-4.5c-2.481,0-4.5,2.019-4.5,4.5v0.75H22.5z"/>
</g>
</svg>
