<svg xmlns="http://www.w3.org/2000/svg" viewBox="0 0 24 24"><title>mobile-phone-blackberry-1</title><path d="M15.5,0h-7A4.505,4.505,0,0,0,4,4.5v17A2.5,2.5,0,0,0,6.5,24h11A2.5,2.5,0,0,0,20,21.5V4.5A4.505,4.505,0,0,0,15.5,0Zm1,19a1,1,0,1,1-1,1A1,1,0,0,1,16.5,19Zm-1-2.5a1,1,0,1,1,1,1A1,1,0,0,1,15.5,16.5ZM18,12a1,1,0,0,1-1,1H7a1,1,0,0,1-1-1V6A1,1,0,0,1,7,5H17a1,1,0,0,1,1,1Zm-6,5.5a1,1,0,1,1,1-1A1,1,0,0,1,12,17.5ZM13,20a1,1,0,1,1-1-1A1,1,0,0,1,13,20ZM7.5,17.5a1,1,0,1,1,1-1A1,1,0,0,1,7.5,17.5Zm1,2.5a1,1,0,1,1-1-1A1,1,0,0,1,8.5,20Z"/></svg>