<svg xmlns="http://www.w3.org/2000/svg" viewBox="0 0 24 24"><title>calendar-block</title><path d="M9.569,16.5H2.5A.5.5,0,0,1,2,16V7.5A.5.5,0,0,1,2.5,7H16a.5.5,0,0,1,.5.5V9.57h0a7.266,7.266,0,0,1,2,0h0V3a1,1,0,0,0-1-1H15a.25.25,0,0,1-.25-.25v-1a.75.75,0,1,0-1.5,0V4.5a.75.75,0,1,1-1.5,0v-2a.5.5,0,0,0-.5-.5H7a.25.25,0,0,1-.25-.25v-1a.75.75,0,0,0-1.5,0V4.5a.75.75,0,1,1-1.5,0v-2a.5.5,0,0,0-.5-.5H1A1,1,0,0,0,0,3V16.5a2,2,0,0,0,2,2H9.569a7.281,7.281,0,0,1,0-2Z"/><path d="M17.5,11A6.5,6.5,0,1,0,24,17.5,6.508,6.508,0,0,0,17.5,11Zm0,11a4.459,4.459,0,0,1-2.386-.7L21.3,15.115A4.457,4.457,0,0,1,22,17.5,4.505,4.505,0,0,1,17.5,22Zm0-9a4.457,4.457,0,0,1,2.386.7L13.7,19.887A4.459,4.459,0,0,1,13,17.5,4.5,4.5,0,0,1,17.5,13Z"/></svg>