<?xml version="1.0" encoding="utf-8"?>
<!-- Generator: Adobe Illustrator 22.1.0, SVG Export Plug-In . SVG Version: 6.00 Build 0)  -->
<svg version="1.1" id="Layer_1" xmlns="http://www.w3.org/2000/svg" xmlns:xlink="http://www.w3.org/1999/xlink" x="0px" y="0px"
	 viewBox="0 0 24 24" style="enable-background:new 0 0 24 24;" xml:space="preserve">
<g>
	<title>controls-camera-next</title>
	<path d="M14.5,21.016c-0.072,0-0.145-0.016-0.211-0.047C14.113,20.887,14,20.709,14,20.516V15.5c0-0.193,0.113-0.371,0.288-0.453
		C14.354,15.016,14.426,15,14.5,15c0.116,0,0.23,0.041,0.32,0.115l3,2.5C17.935,17.712,18,17.851,18,18
		c0,0.148-0.065,0.288-0.178,0.384l-3,2.516C14.731,20.975,14.617,21.016,14.5,21.016z M15,19.444l1.72-1.443L15,16.567V19.444z"/>
	<path d="M17,24c-3.308,0-6-2.692-6-6s2.692-6,6-6s6,2.692,6,6S20.308,24,17,24z M17,13c-2.757,0-5,2.243-5,5s2.243,5,5,5
		s5-2.243,5-5S19.757,13,17,13z"/>
	<path d="M1.5,14C0.673,14,0,13.327,0,12.5v-11C0,0.673,0.673,0,1.5,0h13C15.327,0,16,0.673,16,1.5v8.462c0,0.276-0.224,0.5-0.5,0.5
		s-0.5-0.224-0.5-0.5V1.5C15,1.224,14.776,1,14.5,1h-13C1.224,1,1,1.224,1,1.5v11C1,12.776,1.224,13,1.5,13H11
		c0.276,0,0.5,0.224,0.5,0.5S11.276,14,11,14H1.5z"/>
	<path d="M22.5,12.382c-0.232,0-0.464-0.055-0.67-0.158l-4-2C17.318,9.968,17,9.454,17,8.882V5.118c0-0.572,0.318-1.086,0.829-1.341
		l4-2c0.21-0.105,0.435-0.158,0.668-0.158c0.573,0,1.088,0.318,1.344,0.829C23.945,2.655,24,2.887,24,3.118v7.764
		c0,0.401-0.156,0.777-0.44,1.061C23.277,12.226,22.9,12.382,22.5,12.382C22.5,12.382,22.5,12.382,22.5,12.382z M22.499,2.619
		c-0.078,0-0.152,0.018-0.222,0.053l-4,2C18.106,4.756,18,4.928,18,5.118v3.764c0,0.19,0.106,0.362,0.277,0.447l4,2
		c0.069,0.034,0.146,0.053,0.223,0.053c0.133,0,0.259-0.052,0.353-0.146C22.948,11.141,23,11.015,23,10.882V3.118
		c0-0.077-0.018-0.154-0.053-0.223C22.862,2.724,22.69,2.619,22.499,2.619z"/>
	<path d="M19.5,21.016c-0.276,0-0.5-0.224-0.5-0.5V15.5c0-0.276,0.224-0.5,0.5-0.5s0.5,0.224,0.5,0.5v5.016
		C20,20.792,19.776,21.016,19.5,21.016z"/>
</g>
</svg>
