<?xml version="1.0" encoding="utf-8"?>
<!-- Generator: Adobe Illustrator 22.1.0, SVG Export Plug-In . SVG Version: 6.00 Build 0)  -->
<svg version="1.1" id="Layer_1" xmlns="http://www.w3.org/2000/svg" xmlns:xlink="http://www.w3.org/1999/xlink" x="0px" y="0px"
	 viewBox="0 0 24 24" style="enable-background:new 0 0 24 24;" xml:space="preserve">
<g>
	<title>controls-eject</title>
	<path d="M2.72,13.742c-0.827,0-1.5-0.674-1.5-1.501c0-0.366,0.134-0.718,0.376-0.992l9.28-10.491
		C11.16,0.435,11.57,0.25,12.002,0.25c0.366,0,0.718,0.133,0.991,0.375c0.047,0.041,0.092,0.086,0.133,0.133l9.279,10.49
		c0.265,0.3,0.397,0.686,0.373,1.086c-0.025,0.4-0.204,0.767-0.503,1.031c-0.274,0.242-0.627,0.376-0.993,0.376H2.72z M12.001,1.25
		c-0.144,0-0.281,0.062-0.375,0.169L2.345,11.911c-0.08,0.091-0.125,0.208-0.125,0.33c0,0.134,0.052,0.259,0.146,0.354
		c0.094,0.095,0.22,0.147,0.353,0.147h18.562c0.122,0,0.239-0.044,0.331-0.125c0.207-0.183,0.226-0.499,0.044-0.706L12.376,1.42
		c-0.014-0.016-0.029-0.031-0.044-0.045C12.241,1.295,12.123,1.25,12.001,1.25z"/>
	<path d="M1.5,23.751c-0.827,0-1.5-0.673-1.5-1.5v-3c0-0.827,0.673-1.5,1.5-1.5h21c0.827,0,1.5,0.673,1.5,1.5v3
		c0,0.827-0.673,1.5-1.5,1.5H1.5z M1.5,18.751c-0.276,0-0.5,0.224-0.5,0.5v3c0,0.276,0.224,0.5,0.5,0.5h21
		c0.276,0,0.5-0.224,0.5-0.5v-3c0-0.276-0.224-0.5-0.5-0.5H1.5z"/>
</g>
</svg>
