<?xml version="1.0" encoding="utf-8"?>
<!-- Generator: Adobe Illustrator 22.1.0, SVG Export Plug-In . SVG Version: 6.00 Build 0)  -->
<svg version="1.1" id="Layer_1" xmlns="http://www.w3.org/2000/svg" xmlns:xlink="http://www.w3.org/1999/xlink" x="0px" y="0px"
	 viewBox="0 0 24 24" style="enable-background:new 0 0 24 24;" xml:space="preserve">
<g>
	<title>controls-next</title>
	<path d="M1.502,22.782c-0.031,0-0.062-0.001-0.094-0.003c-0.398-0.024-0.765-0.203-1.031-0.503C0.133,22.001-0.001,21.647,0,21.279
		V2.72c0-0.4,0.156-0.776,0.439-1.06s0.66-0.44,1.06-0.44c0.367,0,0.72,0.134,0.995,0.377l10.49,9.28
		c0.3,0.265,0.479,0.631,0.504,1.031c0.025,0.4-0.107,0.785-0.372,1.086c-0.041,0.046-0.085,0.091-0.132,0.132l-10.49,9.28
		C2.22,22.649,1.867,22.782,1.502,22.782z M1.5,2.22C1.224,2.22,1,2.444,1,2.72v18.56c0,0.124,0.044,0.242,0.125,0.334
		c0.089,0.1,0.211,0.16,0.344,0.168l0.03,0.001c0.122,0,0.24-0.045,0.332-0.126l10.491-9.28c0.015-0.014,0.03-0.028,0.043-0.043
		c0.09-0.101,0.134-0.23,0.125-0.363c-0.008-0.134-0.068-0.255-0.168-0.344L1.832,2.345C1.74,2.264,1.622,2.22,1.5,2.22l0-0.25
		L1.5,2.22z"/>
	<path d="M18.5,24c-0.827,0-1.5-0.673-1.5-1.5v-21C17,0.673,17.673,0,18.5,0h4C23.327,0,24,0.673,24,1.5v21
		c0,0.827-0.673,1.5-1.5,1.5H18.5z M18.5,1C18.224,1,18,1.224,18,1.5v21c0,0.276,0.224,0.5,0.5,0.5h4c0.276,0,0.5-0.224,0.5-0.5v-21
		C23,1.224,22.776,1,22.5,1H18.5z"/>
</g>
</svg>
