<?xml version="1.0" encoding="utf-8"?>
<!-- Generator: Adobe Illustrator 22.1.0, SVG Export Plug-In . SVG Version: 6.00 Build 0)  -->
<svg version="1.1" id="Layer_1" xmlns="http://www.w3.org/2000/svg" xmlns:xlink="http://www.w3.org/1999/xlink" x="0px" y="0px"
	 viewBox="0 0 24 24" style="enable-background:new 0 0 24 24;" xml:space="preserve">
<g>
	<title>controls-movie-next</title>
	<path d="M1,6C0.449,6,0,5.551,0,5V2.5C0,1.121,1.121,0,2.5,0h19c0.976,0,1.868,0.576,2.275,1.468
		c0.002,0.005,0.014,0.03,0.016,0.036C23.927,1.81,24,2.15,24,2.5V5c0,0.551-0.448,1-1,1H1z M23,5V2.707L20.707,5H23z M19.293,5
		l3.402-3.402C22.413,1.225,21.97,1,21.5,1h-1.793l-4,4H19.293z M14.293,5l4-4h-3.586l-4,4H14.293z M9.293,5l4-4H9.707l-4,4H9.293z
		 M1,5h3.293l4-4H4.707L1,4.707V5z M2.5,1C1.673,1,1,1.673,1,2.5v0.793L3.293,1H2.5z"/>
	<path d="M2.5,22C1.121,22,0,20.878,0,19.5V8c0-0.551,0.449-1,1-1h22c0.552,0,1,0.449,1,1v4.5c0,0.276-0.224,0.5-0.5,0.5
		S23,12.776,23,12.5V8H1v11.5C1,20.327,1.673,21,2.5,21h8c0.276,0,0.5,0.224,0.5,0.5S10.776,22,10.5,22H2.5z"/>
	<path d="M15.5,21.016c-0.072,0-0.145-0.016-0.211-0.047C15.113,20.887,15,20.709,15,20.516V15.5c0-0.193,0.113-0.371,0.288-0.453
		C15.353,15.016,15.427,15,15.5,15c0.117,0,0.23,0.041,0.32,0.116l3,2.5C18.935,17.712,19,17.851,19,18
		c0,0.148-0.065,0.288-0.178,0.384l-3,2.516C15.731,20.975,15.617,21.016,15.5,21.016z M16,19.444l1.72-1.443L16,16.567V19.444z"/>
	<path d="M18,24c-3.308,0-6-2.692-6-6s2.692-6,6-6s6,2.692,6,6S21.308,24,18,24z M18,13c-2.757,0-5,2.243-5,5s2.243,5,5,5
		s5-2.243,5-5S20.757,13,18,13z"/>
	<path d="M20.5,21.016c-0.276,0-0.5-0.224-0.5-0.5V15.5c0-0.276,0.224-0.5,0.5-0.5s0.5,0.224,0.5,0.5v5.016
		C21,20.792,20.776,21.016,20.5,21.016z"/>
</g>
</svg>
