<?xml version="1.0" encoding="utf-8"?>
<!-- Generator: Adobe Illustrator 22.1.0, SVG Export Plug-In . SVG Version: 6.00 Build 0)  -->
<svg version="1.1" id="Layer_1" xmlns="http://www.w3.org/2000/svg" xmlns:xlink="http://www.w3.org/1999/xlink" x="0px" y="0px"
	 viewBox="0 0 24 24" style="enable-background:new 0 0 24 24;" xml:space="preserve">
<g>
	<title>controls-movie-pause</title>
	<path d="M18,24c-3.308,0-6-2.692-6-6s2.692-6,6-6s6,2.692,6,6S21.308,24,18,24z M18,13c-2.757,0-5,2.243-5,5s2.243,5,5,5
		s5-2.243,5-5S20.757,13,18,13z"/>
	<path d="M16.5,20.5c-0.276,0-0.5-0.224-0.5-0.5v-4c0-0.276,0.224-0.5,0.5-0.5S17,15.724,17,16v4C17,20.276,16.776,20.5,16.5,20.5z"
		/>
	<path d="M19.5,20.5c-0.276,0-0.5-0.224-0.5-0.5v-4c0-0.276,0.224-0.5,0.5-0.5S20,15.724,20,16v4C20,20.276,19.776,20.5,19.5,20.5z"
		/>
	<path d="M1,6C0.449,6,0,5.551,0,5V2.5C0,1.121,1.121,0,2.5,0h19c0.976,0,1.868,0.576,2.275,1.468
		c0.002,0.005,0.014,0.03,0.016,0.036C23.927,1.81,24,2.15,24,2.5V5c0,0.551-0.448,1-1,1H1z M23,5V2.707L20.707,5H23z M19.293,5
		l3.402-3.402C22.413,1.225,21.97,1,21.5,1h-1.793l-4,4H19.293z M14.293,5l4-4h-3.586l-4,4H14.293z M9.293,5l4-4H9.707l-4,4H9.293z
		 M1,5h3.293l4-4H4.707L1,4.707V5z M2.5,1C1.673,1,1,1.673,1,2.5v0.793L3.293,1H2.5z"/>
	<path d="M2.5,22C1.121,22,0,20.878,0,19.5V8c0-0.551,0.449-1,1-1h22c0.552,0,1,0.449,1,1v4.5c0,0.276-0.224,0.5-0.5,0.5
		S23,12.776,23,12.5V8H1v11.5C1,20.327,1.673,21,2.5,21h8c0.276,0,0.5,0.224,0.5,0.5S10.776,22,10.5,22H2.5z"/>
</g>
</svg>
