<?xml version="1.0" encoding="utf-8"?>
<!-- Generator: Adobe Illustrator 22.1.0, SVG Export Plug-In . SVG Version: 6.00 Build 0)  -->
<svg version="1.1" id="Layer_1" xmlns="http://www.w3.org/2000/svg" xmlns:xlink="http://www.w3.org/1999/xlink" x="0px" y="0px"
	 viewBox="0 0 24 24" style="enable-background:new 0 0 24 24;" xml:space="preserve">
<g>
	<title>controls-play</title>
	<path d="M2.121,23.38c-0.573,0-1.088-0.318-1.344-0.829c-0.103-0.208-0.158-0.439-0.158-0.67V2.117c0.001-0.827,0.674-1.5,1.5-1.5
		c0.25,0.005,0.467,0.057,0.67,0.158l19.764,9.882c0.359,0.18,0.625,0.488,0.752,0.868s0.097,0.787-0.083,1.145
		c-0.143,0.287-0.381,0.525-0.669,0.669L2.789,23.222C2.579,23.327,2.354,23.38,2.121,23.38z M2.119,1.618
		c-0.276,0-0.5,0.224-0.5,0.5v19.764c0,0.077,0.018,0.154,0.053,0.224c0.085,0.17,0.257,0.276,0.448,0.276
		c0.078,0,0.152-0.018,0.223-0.053l19.764-9.882c0.095-0.048,0.174-0.127,0.222-0.222c0.06-0.12,0.07-0.255,0.028-0.382
		c-0.042-0.127-0.131-0.229-0.25-0.289L2.342,1.67C2.273,1.636,2.196,1.618,2.119,1.618L2.119,1.618z"/>
</g>
</svg>
