<?xml version="1.0" encoding="utf-8"?>
<!-- Generator: Adobe Illustrator 22.1.0, SVG Export Plug-In . SVG Version: 6.00 Build 0)  -->
<svg version="1.1" id="Regular" xmlns="http://www.w3.org/2000/svg" xmlns:xlink="http://www.w3.org/1999/xlink" x="0px" y="0px"
	 viewBox="0 0 24 24" style="enable-background:new 0 0 24 24;" xml:space="preserve">
<title>single-man-actions-laptop</title>
<g>
	<path d="M0.899,18c-0.414,0-0.75-0.336-0.75-0.75c0-4.135,3.365-7.5,7.5-7.5c0.277,0,0.557,0.015,0.832,0.045
		c0.411,0.045,0.709,0.417,0.664,0.827c-0.042,0.381-0.363,0.668-0.746,0.668l0,0c-0.027,0-0.054-0.001-0.081-0.004
		c-0.222-0.024-0.446-0.037-0.669-0.037c-3.308,0-6,2.692-6,6C1.649,17.664,1.313,18,0.899,18z"/>
	<path d="M7.644,9.75c-2.688,0-4.875-2.187-4.875-4.875c0-0.839,0.221-1.67,0.639-2.404c0.017-0.034,0.034-0.06,0.045-0.075
		C4.328,0.92,5.935,0,7.644,0c2.387,0,4.453,1.777,4.814,4.138c0.013,0.053,0.021,0.104,0.023,0.154
		c0.026,0.217,0.039,0.403,0.039,0.583C12.519,7.563,10.332,9.75,7.644,9.75z M4.374,4.037C4.304,4.31,4.269,4.59,4.269,4.875
		c0,1.861,1.514,3.375,3.375,3.375c1.694,0,3.101-1.255,3.339-2.883c-0.639,0.172-1.296,0.258-1.96,0.258c0,0-0.004,0-0.006,0
		C7.333,5.625,5.705,5.065,4.374,4.037z M9.024,4.125c0.625,0,1.24-0.095,1.832-0.282C10.412,2.468,9.11,1.5,7.644,1.5
		c-0.987,0-1.922,0.437-2.561,1.183c1.092,0.919,2.506,1.441,3.932,1.442c0.002,0,0.003,0,0.005,0
		C9.02,4.125,9.022,4.125,9.024,4.125z"/>
	<path d="M10.934,24c-0.401,0-0.778-0.156-1.061-0.44c-0.283-0.283-0.439-0.66-0.439-1.061c0-0.16,0.026-0.319,0.077-0.472
		l1.138-3.399V12.75c0-1.241,1.009-2.25,2.25-2.25h7.5c1.241,0,2.25,1.009,2.25,2.25v5.878l1.133,3.397
		c0.26,0.787-0.167,1.638-0.953,1.898C22.676,23.974,22.518,24,22.358,24H10.934z M10.934,22.501L22.358,22.5l-1-3h-9.42
		L10.934,22.501z M21.149,18v-5.25c0-0.414-0.336-0.75-0.75-0.75h-7.5c-0.414,0-0.75,0.336-0.75,0.75V18H21.149z"/>
</g>
</svg>
