<?xml version="1.0" encoding="utf-8"?>
<!-- Generator: Adobe Illustrator 22.1.0, SVG Export Plug-In . SVG Version: 6.00 Build 0)  -->
<svg version="1.1" id="Regular" xmlns="http://www.w3.org/2000/svg" xmlns:xlink="http://www.w3.org/1999/xlink" x="0px" y="0px"
	 viewBox="0 0 24 24" style="enable-background:new 0 0 24 24;" xml:space="preserve">
<title>single-man-actions-wifi</title>
<g>
	<path d="M0.75,18c-0.413,0-0.75-0.337-0.75-0.75c0.001-2.004,0.783-3.888,2.201-5.304c1.417-1.415,3.3-2.194,5.302-2.194
		c1.02,0.001,2.008,0.203,2.941,0.6c0.184,0.078,0.327,0.224,0.402,0.41c0.075,0.186,0.073,0.39-0.006,0.574
		c-0.118,0.277-0.389,0.456-0.69,0.456c-0.101,0-0.2-0.02-0.294-0.06c-0.746-0.318-1.537-0.48-2.349-0.48
		c-1.606,0-3.112,0.623-4.246,1.755c-1.135,1.133-1.76,2.64-1.761,4.244C1.5,17.664,1.163,18,0.75,18C0.75,18,0.75,18,0.75,18z"/>
	<path d="M7.5,9.75c-2.688,0-4.875-2.187-4.875-4.875c0-0.839,0.221-1.67,0.639-2.404C3.281,2.436,3.299,2.41,3.31,2.394
		C4.185,0.919,5.792,0,7.5,0c2.387,0,4.453,1.777,4.814,4.138c0.013,0.052,0.021,0.103,0.022,0.153
		c0.026,0.214,0.039,0.405,0.039,0.584C12.375,7.563,10.188,9.75,7.5,9.75z M4.231,4.037C4.161,4.309,4.125,4.59,4.125,4.875
		c0,1.861,1.514,3.375,3.375,3.375c1.694,0,3.101-1.255,3.339-2.883C10.2,5.538,9.543,5.625,8.881,5.625c-0.001,0-0.006,0-0.007,0
		C7.189,5.625,5.561,5.065,4.231,4.037z M8.889,4.125c0.632-0.004,1.239-0.098,1.823-0.283C10.268,2.467,8.966,1.5,7.5,1.5
		c-0.987,0-1.922,0.437-2.561,1.183c1.093,0.92,2.509,1.442,3.935,1.442h0.002C8.879,4.125,8.889,4.125,8.889,4.125z"/>
	<circle cx="17.25" cy="22.799" r="1.125"/>
	<path d="M11.25,16.372c-0.227,0-0.44-0.101-0.583-0.278c-0.126-0.156-0.184-0.352-0.163-0.551s0.119-0.378,0.274-0.504
		c1.814-1.467,4.112-2.275,6.472-2.275s4.657,0.808,6.472,2.275c0.156,0.126,0.253,0.305,0.274,0.504
		c0.021,0.199-0.037,0.395-0.163,0.551c-0.143,0.177-0.355,0.278-0.583,0.278c-0.171,0-0.338-0.059-0.471-0.167
		c-1.549-1.252-3.512-1.942-5.529-1.942s-3.979,0.69-5.528,1.942C11.589,16.312,11.422,16.372,11.25,16.372z"/>
	<path d="M20.749,19.988c-0.171,0-0.338-0.059-0.471-0.167c-0.848-0.686-1.924-1.064-3.029-1.064s-2.18,0.378-3.028,1.063
		c-0.133,0.108-0.301,0.167-0.472,0.167c-0.228,0-0.44-0.102-0.583-0.279c-0.126-0.156-0.184-0.351-0.163-0.55
		c0.021-0.199,0.118-0.378,0.274-0.504c1.114-0.9,2.524-1.396,3.972-1.396s2.858,0.496,3.972,1.396
		c0.156,0.126,0.253,0.305,0.274,0.504c0.021,0.199-0.037,0.395-0.163,0.551C21.189,19.886,20.977,19.988,20.749,19.988z"/>
</g>
</svg>
