<?xml version="1.0" encoding="utf-8"?>
<!-- Generator: Adobe Illustrator 22.1.0, SVG Export Plug-In . SVG Version: 6.00 Build 0)  -->
<svg version="1.1" id="Regular" xmlns="http://www.w3.org/2000/svg" xmlns:xlink="http://www.w3.org/1999/xlink" x="0px" y="0px"
	 viewBox="0 0 24 24" style="enable-background:new 0 0 24 24;" xml:space="preserve">
<title>single-man-actions-credit-card</title>
<g>
	<path d="M12.75,24c-1.241,0-2.25-1.009-2.25-2.25v-6c0-1.241,1.009-2.25,2.25-2.25h9c1.241,0,2.25,1.009,2.25,2.25v6
		c0,1.241-1.009,2.25-2.25,2.25H12.75z M12,21.75c0,0.414,0.336,0.75,0.75,0.75h9c0.414,0,0.75-0.336,0.75-0.75V18H12V21.75z
		 M22.5,16.5v-0.75c0-0.414-0.336-0.75-0.75-0.75h-9C12.336,15,12,15.336,12,15.75v0.75H22.5z"/>
	<path d="M17.25,21c-0.414,0-0.75-0.336-0.75-0.75s0.336-0.75,0.75-0.75h3c0.414,0,0.75,0.336,0.75,0.75S20.664,21,20.25,21H17.25z"
		/>
	<path d="M0.75,18C0.336,18,0,17.664,0,17.25c0.001-4.136,3.367-7.501,7.503-7.501c1.15,0,2.301,0.27,3.33,0.779
		c0.18,0.089,0.314,0.242,0.378,0.432s0.05,0.393-0.038,0.573c-0.127,0.257-0.385,0.417-0.672,0.417l0,0
		c-0.115,0-0.23-0.027-0.333-0.078c-0.823-0.408-1.744-0.623-2.663-0.623c-3.311,0-6.003,2.692-6.004,6.001
		C1.5,17.664,1.164,18,0.75,18z"/>
	<path d="M7.5,9.75c-2.688,0-4.875-2.187-4.875-4.875c0-0.839,0.221-1.669,0.639-2.404C3.281,2.436,3.299,2.41,3.31,2.394
		C4.185,0.919,5.792,0,7.5,0c2.387,0,4.453,1.777,4.814,4.138c0.013,0.052,0.021,0.103,0.022,0.153
		c0.026,0.214,0.039,0.405,0.039,0.584C12.375,7.563,10.188,9.75,7.5,9.75z M4.23,4.037C4.16,4.31,4.125,4.59,4.125,4.875
		c0,1.861,1.514,3.375,3.375,3.375c1.694,0,3.101-1.255,3.339-2.883C10.2,5.538,9.543,5.625,8.88,5.625c0,0-0.004,0-0.006,0
		C7.189,5.625,5.561,5.065,4.23,4.037z M8.88,4.125c0.625,0,1.24-0.095,1.832-0.282C10.268,2.468,8.966,1.5,7.5,1.5
		c-0.987,0-1.922,0.437-2.561,1.184c1.092,0.919,2.506,1.44,3.932,1.441c0.002,0,0.003,0,0.005,0
		C8.877,4.125,8.878,4.125,8.88,4.125z"/>
</g>
</svg>
