<?xml version="1.0" encoding="utf-8"?>
<!-- Generator: Adobe Illustrator 22.1.0, SVG Export Plug-In . SVG Version: 6.00 Build 0)  -->
<svg version="1.1" id="Regular" xmlns="http://www.w3.org/2000/svg" xmlns:xlink="http://www.w3.org/1999/xlink" x="0px" y="0px"
	 viewBox="0 0 24 24" style="enable-background:new 0 0 24 24;" xml:space="preserve">
<title>single-man-actions-warning</title>
<g>
	<path d="M7.499,9.75c-2.688,0-4.875-2.187-4.875-4.875c0-0.839,0.221-1.67,0.639-2.404c0.017-0.035,0.034-0.06,0.045-0.076
		C4.184,0.919,5.79,0,7.499,0c2.387,0,4.453,1.777,4.814,4.138c0.013,0.052,0.021,0.103,0.022,0.153
		c0.026,0.214,0.039,0.405,0.039,0.584C12.374,7.563,10.187,9.75,7.499,9.75z M4.229,4.037C4.159,4.31,4.124,4.59,4.124,4.875
		c0,1.861,1.514,3.375,3.375,3.375c1.694,0,3.101-1.255,3.339-2.883c-0.637,0.171-1.292,0.258-1.952,0.258c-0.003,0-0.007,0-0.01,0
		C7.188,5.625,5.559,5.065,4.229,4.037z M8.891,4.125c0.615,0,1.228-0.095,1.82-0.282C10.267,2.468,8.965,1.5,7.499,1.5
		c-0.987,0-1.922,0.437-2.562,1.184c1.091,0.918,2.504,1.44,3.928,1.441c0.003,0,0.006,0,0.009,0
		C8.879,4.125,8.886,4.125,8.891,4.125z"/>
	<path d="M17.249,21.75c-0.62,0-1.125-0.505-1.125-1.125s0.505-1.125,1.125-1.125c0.304,0.001,0.586,0.118,0.798,0.331
		c0.212,0.213,0.328,0.495,0.327,0.796C18.374,21.246,17.869,21.75,17.249,21.75z"/>
	<path d="M17.249,18.75c-0.414,0-0.75-0.336-0.75-0.75v-3c0-0.414,0.336-0.75,0.75-0.75s0.75,0.336,0.75,0.75v3
		C17.999,18.414,17.663,18.75,17.249,18.75z"/>
	<path d="M13.023,24c-1.391,0-2.524-1.132-2.525-2.523c0-0.39,0.092-0.781,0.267-1.131l4.226-8.452
		c0.302-0.603,0.82-1.052,1.459-1.265c0.26-0.087,0.529-0.13,0.8-0.13c0.393,0,0.772,0.09,1.127,0.268
		c0.485,0.242,0.885,0.643,1.128,1.128l4.226,8.452c0.623,1.245,0.117,2.764-1.127,3.387C22.255,23.908,21.864,24,21.474,24H13.023z
		 M17.25,11.999c-0.11,0-0.219,0.018-0.325,0.053c-0.26,0.086-0.469,0.269-0.592,0.513l-4.226,8.452
		c-0.071,0.142-0.109,0.3-0.109,0.459c0,0.565,0.46,1.024,1.024,1.024h8.452c0.159,0,0.317-0.037,0.459-0.108
		c0.505-0.253,0.71-0.869,0.457-1.375l-4.226-8.452c-0.098-0.197-0.261-0.359-0.458-0.458C17.562,12.036,17.408,11.999,17.25,11.999
		z"/>
	<path d="M0.749,18c-0.413,0-0.75-0.336-0.75-0.749c-0.002-1.974,0.758-3.838,2.139-5.249c1.4-1.43,3.273-2.229,5.275-2.251
		L7.51,9.75c1.96,0,3.815,0.76,5.224,2.139c0.295,0.289,0.301,0.765,0.012,1.06c-0.143,0.146-0.333,0.226-0.536,0.226c0,0,0,0,0,0
		c-0.197,0-0.384-0.076-0.525-0.214c-1.127-1.103-2.606-1.711-4.166-1.711L7.43,11.251c-1.602,0.017-3.101,0.656-4.22,1.8
		c-1.104,1.128-1.712,2.619-1.71,4.198c0,0.2-0.078,0.389-0.219,0.53C1.138,17.922,0.95,18,0.749,18C0.75,18,0.75,18,0.749,18z"/>
</g>
</svg>
