<?xml version="1.0" encoding="utf-8"?>
<!-- Generator: Adobe Illustrator 22.1.0, SVG Export Plug-In . SVG Version: 6.00 Build 0)  -->
<svg version="1.1" id="Regular" xmlns="http://www.w3.org/2000/svg" xmlns:xlink="http://www.w3.org/1999/xlink" x="0px" y="0px"
	 viewBox="0 0 24 24" style="enable-background:new 0 0 24 24;" xml:space="preserve">
<title>single-man-actions-view</title>
<g>
	<path d="M0.749,18c-0.2,0-0.389-0.078-0.53-0.22c-0.142-0.142-0.22-0.33-0.219-0.531C0.003,13.114,3.37,9.75,7.505,9.75
		c0.711,0.001,1.412,0.1,2.089,0.296c0.397,0.115,0.627,0.532,0.512,0.929c-0.093,0.319-0.389,0.541-0.72,0.541l0,0
		c-0.07,0-0.14-0.01-0.207-0.029c-0.543-0.157-1.103-0.237-1.667-0.238c-3.314,0-6.009,2.692-6.011,6
		C1.499,17.664,1.163,18,0.749,18C0.749,18,0.749,18,0.749,18z"/>
	<path d="M7.499,9.75c-2.688,0-4.875-2.187-4.875-4.875c0-0.839,0.221-1.669,0.639-2.404C3.281,2.436,3.299,2.41,3.31,2.394
		C4.185,0.919,5.791,0,7.499,0c2.387,0,4.453,1.777,4.814,4.138c0.013,0.052,0.021,0.103,0.022,0.153
		c0.026,0.214,0.039,0.405,0.039,0.584C12.374,7.563,10.188,9.75,7.499,9.75z M4.23,4.037C4.16,4.31,4.124,4.59,4.124,4.875
		c0,1.861,1.514,3.375,3.375,3.375c1.694,0,3.101-1.255,3.339-2.883c-0.639,0.172-1.296,0.258-1.96,0.258c0,0-0.004,0-0.006,0
		C7.189,5.625,5.56,5.065,4.23,4.037z M8.879,4.125c0.625,0,1.24-0.095,1.832-0.282C10.268,2.468,8.966,1.5,7.499,1.5
		c-0.987,0-1.922,0.437-2.561,1.184C6.03,3.602,7.444,4.124,8.87,4.125c0.002,0,0.003,0,0.005,0
		C8.876,4.125,8.878,4.125,8.879,4.125z"/>
	<path d="M23.249,24c-0.2,0-0.389-0.078-0.53-0.22l-3.293-3.293c-1.051,0.817-2.343,1.263-3.677,1.263c-3.308,0-6-2.692-6-6
		s2.692-6,6-6s6,2.692,6,6c0,1.333-0.446,2.626-1.263,3.677l3.293,3.293c0.292,0.292,0.292,0.768,0,1.061
		C23.638,23.922,23.45,24,23.249,24z M15.749,11.25c-2.481,0-4.5,2.019-4.5,4.5s2.019,4.5,4.5,4.5s4.5-2.019,4.5-4.5
		S18.231,11.25,15.749,11.25z"/>
</g>
</svg>
