<?xml version="1.0" encoding="utf-8"?>
<!-- Generator: Adobe Illustrator 22.1.0, SVG Export Plug-In . SVG Version: 6.00 Build 0)  -->
<svg version="1.1" id="Regular" xmlns="http://www.w3.org/2000/svg" xmlns:xlink="http://www.w3.org/1999/xlink" x="0px" y="0px"
	 viewBox="0 0 24 24" style="enable-background:new 0 0 24 24;" xml:space="preserve">
<title>single-man-actions-subtract</title>
<g>
	<path d="M0.75,18c-0.413,0-0.75-0.337-0.75-0.75c0.001-2.004,0.783-3.888,2.201-5.304c1.417-1.415,3.299-2.194,5.302-2.194
		c1.02,0.001,2.008,0.203,2.941,0.6c0.38,0.162,0.558,0.603,0.396,0.984c-0.118,0.277-0.388,0.456-0.69,0.456l0,0
		c-0.102,0-0.201-0.02-0.294-0.06c-0.747-0.318-1.537-0.48-2.349-0.48c-1.606,0-3.112,0.623-4.246,1.755
		c-1.135,1.133-1.76,2.64-1.761,4.244C1.5,17.664,1.163,18,0.75,18C0.75,18,0.75,18,0.75,18z"/>
	<path d="M7.5,9.75c-2.688,0-4.875-2.187-4.875-4.875c0-0.839,0.221-1.67,0.639-2.404C3.281,2.436,3.299,2.41,3.31,2.394
		C4.185,0.919,5.792,0,7.5,0c2.388,0,4.453,1.778,4.814,4.139c0.013,0.052,0.021,0.103,0.022,0.152
		c0.027,0.217,0.039,0.403,0.039,0.584C12.375,7.563,10.188,9.75,7.5,9.75z M4.23,4.037C4.16,4.31,4.125,4.59,4.125,4.875
		c0,1.861,1.514,3.375,3.375,3.375c1.694,0,3.101-1.255,3.339-2.883C10.2,5.538,9.543,5.625,8.88,5.625c-0.002,0-0.007,0-0.007,0
		C7.189,5.625,5.561,5.065,4.23,4.037z M4.939,2.683c1.093,0.92,2.509,1.442,3.936,1.442c0.63,0,1.245-0.095,1.838-0.282
		C10.268,2.467,8.966,1.5,7.5,1.5C6.513,1.5,5.578,1.937,4.939,2.683z"/>
	<path d="M17.25,23.999c-3.722,0-6.75-3.028-6.75-6.75s3.028-6.75,6.75-6.75S24,13.527,24,17.249S20.972,23.999,17.25,23.999z
		 M17.25,11.999c-2.895,0-5.25,2.355-5.25,5.25s2.355,5.25,5.25,5.25s5.25-2.355,5.25-5.25S20.145,11.999,17.25,11.999z"/>
	<path d="M14.25,17.999c-0.414,0-0.75-0.336-0.75-0.75s0.336-0.75,0.75-0.75h6c0.414,0,0.75,0.336,0.75,0.75s-0.336,0.75-0.75,0.75
		H14.25z"/>
</g>
</svg>
