<?xml version="1.0" encoding="utf-8"?>
<!-- Generator: Adobe Illustrator 22.1.0, SVG Export Plug-In . SVG Version: 6.00 Build 0)  -->
<svg version="1.1" id="Regular" xmlns="http://www.w3.org/2000/svg" xmlns:xlink="http://www.w3.org/1999/xlink" x="0px" y="0px"
	 viewBox="0 0 24 24" style="enable-background:new 0 0 24 24;" xml:space="preserve">
<title>single-man-actions-block</title>
<g>
	<path d="M0.75,18.001c-0.413,0-0.75-0.336-0.75-0.75c-0.001-2,0.778-3.882,2.195-5.3s3.298-2.2,5.297-2.202
		c1.024,0,2.016,0.203,2.953,0.604c0.38,0.163,0.557,0.604,0.395,0.985c-0.118,0.276-0.389,0.455-0.69,0.455c0,0,0,0,0,0
		c-0.101,0-0.2-0.02-0.294-0.06c-0.734-0.314-1.53-0.476-2.366-0.483c-1.599,0.001-3.104,0.626-4.236,1.759
		c-1.132,1.133-1.755,2.64-1.754,4.242C1.5,17.664,1.164,18,0.75,18.001C0.75,18.001,0.75,18.001,0.75,18.001z"/>
	<path d="M7.491,9.751c-2.688,0-4.875-2.187-4.875-4.875c0-0.841,0.222-1.674,0.643-2.41c0.014-0.028,0.028-0.049,0.036-0.06
		c0.87-1.48,2.48-2.405,4.196-2.405c2.384,0,4.448,1.774,4.812,4.13c0.015,0.056,0.023,0.112,0.025,0.167
		c0.025,0.212,0.038,0.401,0.038,0.578C12.366,7.564,10.179,9.751,7.491,9.751z M4.222,4.038C4.151,4.31,4.116,4.591,4.116,4.876
		c0,1.861,1.514,3.375,3.375,3.375c1.694,0,3.1-1.254,3.339-2.883c-0.639,0.172-1.296,0.258-1.959,0.258c-0.006,0-0.027,0-0.027,0
		C7.177,5.626,5.551,5.065,4.222,4.038z M8.896,4.127c0.604-0.001,1.216-0.095,1.807-0.283c-0.443-1.375-1.745-2.343-3.212-2.343
		c-0.987,0-1.922,0.437-2.561,1.183c1.091,0.918,2.503,1.44,3.926,1.442c0.004,0,0.008,0,0.011,0
		C8.876,4.126,8.887,4.126,8.896,4.127z"/>
	<path d="M17.25,23.999c-1.789,0-3.475-0.695-4.749-1.957c-0.008-0.007-0.016-0.014-0.024-0.022c-0.01-0.01-0.019-0.02-0.028-0.031
		c-1.252-1.257-1.95-2.946-1.95-4.74c0-3.722,3.028-6.75,6.75-6.75c1.783,0,3.464,0.691,4.736,1.945
		c0.013,0.01,0.025,0.021,0.036,0.031c0.01,0.01,0.021,0.023,0.031,0.036C23.306,13.777,24,15.461,24,17.249
		C24,20.971,20.972,23.999,17.25,23.999z M14.108,21.45c0.906,0.679,2.007,1.049,3.142,1.049c2.895,0,5.25-2.355,5.25-5.25
		c0-1.135-0.37-2.236-1.049-3.142L14.108,21.45z M17.25,11.999c-2.895,0-5.25,2.355-5.25,5.25c0,1.135,0.37,2.235,1.048,3.141
		l7.343-7.343C19.485,12.369,18.385,11.999,17.25,11.999z"/>
</g>
</svg>
