<?xml version="1.0" encoding="utf-8"?>
<!-- Generator: Adobe Illustrator 22.1.0, SVG Export Plug-In . SVG Version: 6.00 Build 0)  -->
<svg version="1.1" id="Regular" xmlns="http://www.w3.org/2000/svg" xmlns:xlink="http://www.w3.org/1999/xlink" x="0px" y="0px"
	 viewBox="0 0 24 24" style="enable-background:new 0 0 24 24;" xml:space="preserve">
<title>single-man-actions-key</title>
<g>
	<path d="M0.749,18.002c-0.413,0-0.75-0.336-0.75-0.749c-0.002-1.975,0.758-3.84,2.14-5.252c1.401-1.429,3.274-2.228,5.275-2.249
		L7.53,9.752c1.946,0,3.794,0.76,5.203,2.141c0.295,0.289,0.301,0.765,0.011,1.06c-0.143,0.146-0.333,0.225-0.536,0.225c0,0,0,0,0,0
		c-0.198,0-0.384-0.076-0.525-0.215c-1.127-1.104-2.613-1.711-4.185-1.711l-0.07,0c-1.601,0.016-3.099,0.655-4.219,1.799
		c-1.106,1.128-1.714,2.62-1.712,4.2C1.499,17.665,1.163,18.002,0.749,18.002C0.749,18.002,0.749,18.002,0.749,18.002z"/>
	<path d="M7.498,9.752c-2.688,0-4.875-2.187-4.875-4.875c0-0.839,0.221-1.67,0.639-2.404C3.28,2.438,3.298,2.412,3.308,2.397
		c0.875-1.475,2.481-2.394,4.19-2.394c2.387,0,4.453,1.777,4.814,4.137c0.013,0.053,0.021,0.104,0.023,0.154
		c0.026,0.217,0.039,0.403,0.039,0.583C12.373,7.565,10.186,9.752,7.498,9.752z M4.229,4.04c-0.07,0.272-0.105,0.553-0.105,0.838
		c0,1.861,1.514,3.375,3.375,3.375c1.694,0,3.101-1.255,3.339-2.884c-0.64,0.172-1.297,0.259-1.96,0.259c-0.002,0-0.006,0-0.006,0
		C7.188,5.627,5.559,5.067,4.229,4.04z M4.937,2.686c1.093,0.92,2.509,1.442,3.936,1.442c0.63,0,1.245-0.095,1.838-0.282
		C10.266,2.47,8.965,1.502,7.498,1.502C6.511,1.502,5.576,1.939,4.937,2.686z"/>
	<path d="M15.308,20.317c-0.301,0-0.584-0.117-0.796-0.33c-0.437-0.438-0.437-1.151,0-1.589c0.212-0.213,0.494-0.33,0.795-0.331
		c0.302,0,0.584,0.117,0.796,0.328c0.001,0.001,0.003,0.003,0.003,0.003c0.212,0.213,0.328,0.495,0.328,0.796
		s-0.118,0.583-0.331,0.795C15.89,20.2,15.608,20.317,15.308,20.317z"/>
	<path d="M15.308,24.01c-0.6,0-1.19-0.112-1.756-0.334c-1.197-0.469-2.139-1.375-2.654-2.553c-0.515-1.177-0.54-2.485-0.071-3.681
		c0.469-1.197,1.375-2.139,2.553-2.654c0.614-0.269,1.262-0.405,1.925-0.405c0.432,0,0.861,0.059,1.279,0.175l3.357-3.363
		c0.449-0.449,1.046-0.697,1.681-0.697s1.231,0.247,1.68,0.696c0.927,0.927,0.927,2.434,0,3.361l-3.359,3.359
		c0.276,0.999,0.222,2.069-0.157,3.038c-0.469,1.197-1.375,2.139-2.553,2.654C16.619,23.874,15.971,24.01,15.308,24.01z
		 M15.306,15.883c-0.456,0-0.902,0.094-1.325,0.279c-0.811,0.354-1.435,1.003-1.757,1.826c-0.323,0.823-0.305,1.723,0.049,2.534
		c0.354,0.811,1.003,1.435,1.826,1.757c0.39,0.153,0.797,0.23,1.209,0.23c0.455,0,0.901-0.094,1.324-0.279
		c0.811-0.354,1.435-1.003,1.757-1.826c0.301-0.769,0.305-1.617,0.01-2.388c-0.037-0.084-0.059-0.173-0.063-0.264
		c-0.011-0.214,0.068-0.422,0.217-0.571l3.688-3.688c0.342-0.342,0.342-0.898,0-1.239c-0.166-0.165-0.386-0.257-0.62-0.257
		s-0.454,0.091-0.62,0.257l-3.684,3.691c-0.141,0.142-0.33,0.22-0.531,0.22c-0.094,0-0.186-0.017-0.273-0.051
		C16.125,15.961,15.718,15.883,15.306,15.883z"/>
</g>
</svg>
