<?xml version="1.0" encoding="utf-8"?>
<!-- Generator: Adobe Illustrator 22.1.0, SVG Export Plug-In . SVG Version: 6.00 Build 0)  -->
<svg version="1.1" id="Regular" xmlns="http://www.w3.org/2000/svg" xmlns:xlink="http://www.w3.org/1999/xlink" x="0px" y="0px"
	 viewBox="0 0 24 24" style="enable-background:new 0 0 24 24;" xml:space="preserve">
<title>single-man-actions-flight</title>
<g>
	<path d="M11.958,24.003c-0.284,0-0.557-0.087-0.79-0.25L7.45,21.14c-0.257-0.205-0.406-0.473-0.439-0.768
		c-0.032-0.288,0.051-0.571,0.232-0.797c0.005-0.007,0.011-0.013,0.016-0.019c0.002-0.004,0.02-0.023,0.038-0.042
		c0.008-0.009,0.017-0.016,0.026-0.024c0.105-0.099,0.42-0.379,1.628-1.443c0.212-0.173,0.462-0.264,0.717-0.264
		c0.124,0,0.246,0.021,0.362,0.062c0.048,0.017,0.092,0.038,0.135,0.064l1.537,0.916l1.148-0.801l-3.731-2.31
		c-0.034-0.021-0.065-0.044-0.095-0.07c-0.488-0.418-0.547-1.16-0.131-1.653c0.067-0.08,0.074-0.089,1.341-1.033
		c0.206-0.152,0.448-0.232,0.7-0.232c0.14,0,0.277,0.025,0.409,0.074l6.114,2.276l2.68-1.826c0.401-0.278,0.875-0.425,1.369-0.425
		c0.179,0,0.358,0.02,0.532,0.06c0.002,0,0.004,0.001,0.007,0.002c0.658,0.154,1.217,0.554,1.574,1.128
		c0.358,0.574,0.47,1.254,0.317,1.914c-0.151,0.649-0.544,1.204-1.106,1.563l-10.149,6.305
		C12.464,23.931,12.214,24.003,11.958,24.003z M11.962,22.478l10.07-6.256c0.224-0.142,0.383-0.368,0.444-0.633
		c0.062-0.269,0.017-0.546-0.129-0.781c-0.146-0.234-0.374-0.398-0.643-0.46c-0.063-0.014-0.13-0.022-0.198-0.022
		c-0.187,0-0.366,0.056-0.52,0.162l-3.004,2.048c-0.125,0.085-0.271,0.13-0.423,0.13c-0.089,0-0.177-0.016-0.26-0.046l-6.311-2.349
		c-0.195,0.146-0.421,0.314-0.613,0.459l4.234,2.621c0.215,0.133,0.348,0.364,0.354,0.617c0.007,0.253-0.112,0.49-0.32,0.635
		l-2.48,1.73c-0.127,0.088-0.276,0.135-0.429,0.135c-0.135,0-0.268-0.037-0.384-0.106l-1.644-0.98
		c-0.318,0.281-0.681,0.601-0.953,0.842L11.962,22.478z"/>
	<path d="M0.752,18.001c-0.414,0-0.75-0.336-0.75-0.75c0-0.942,0.174-1.865,0.519-2.742c0.732-1.864,2.146-3.332,3.983-4.133
		c0.957-0.417,1.965-0.629,2.996-0.629c0.937,0,1.859,0.176,2.743,0.523c0.186,0.073,0.333,0.215,0.413,0.398
		c0.08,0.184,0.084,0.388,0.01,0.574c-0.113,0.289-0.387,0.476-0.698,0.476c-0.094,0-0.186-0.018-0.274-0.052
		c-0.707-0.278-1.445-0.418-2.194-0.418c-0.824,0-1.63,0.169-2.396,0.503c-1.469,0.64-2.6,1.814-3.186,3.306
		c-0.276,0.702-0.415,1.44-0.415,2.194C1.502,17.664,1.166,18.001,0.752,18.001z"/>
	<path d="M7.502,9.751c-2.688,0-4.875-2.187-4.875-4.875c0-0.841,0.222-1.673,0.642-2.409c0.015-0.029,0.029-0.05,0.037-0.062
		c0.872-1.481,2.481-2.405,4.196-2.405c2.384,0,4.449,1.774,4.813,4.131c0.014,0.056,0.023,0.111,0.024,0.166
		c0.026,0.215,0.038,0.399,0.038,0.579C12.377,7.564,10.19,9.751,7.502,9.751z M4.233,4.038C4.162,4.31,4.127,4.59,4.127,4.876
		c0,1.861,1.514,3.375,3.375,3.375c1.694,0,3.1-1.255,3.339-2.883c-0.64,0.172-1.297,0.258-1.96,0.258
		C7.192,5.626,5.563,5.065,4.233,4.038z M8.889,4.126c0.622-0.001,1.235-0.096,1.824-0.282C10.27,2.468,8.969,1.501,7.502,1.501
		c-0.987,0-1.922,0.437-2.561,1.183c1.091,0.918,2.502,1.44,3.926,1.442c0.004,0,0.008,0,0.011,0
		C8.882,4.125,8.885,4.126,8.889,4.126z"/>
</g>
</svg>
