<svg xmlns="http://www.w3.org/2000/svg" viewBox="0 0 24 24"><title>file-copyright-c-1</title><path d="M24,4.414A2,2,0,0,0,23.414,3L21,.585A2,2,0,0,0,19.586,0H8A2,2,0,0,0,6,2V9.276a.248.248,0,0,0,.242.249c.366.007,1.038.034,1.485.083A.247.247,0,0,0,8,9.359V2.5A.5.5,0,0,1,8.5,2H19.379a.5.5,0,0,1,.353.146l2.122,2.122A.5.5,0,0,1,22,4.621V18a.5.5,0,0,1-.5.5H14.642a.245.245,0,0,0-.241.21,7.935,7.935,0,0,1-.364,1.458.244.244,0,0,0,.228.331H22a2,2,0,0,0,2-2Z"/><path d="M6.5,11a6.452,6.452,0,0,0-3.669,1.146.212.212,0,0,0-.05.324l.874.875a.749.749,0,0,1,0,1.06.8.8,0,0,1-1.06,0l-.916-.916a.216.216,0,0,0-.327.051,6.494,6.494,0,0,0,9.08,9.13.26.26,0,0,0,.03-.4L9.6,21.405a.75.75,0,0,1,1.06-1.06l.87.87a.208.208,0,0,0,.327-.043A6.487,6.487,0,0,0,6.5,11Zm1,9a.5.5,0,0,1,0,1,3.5,3.5,0,0,1,0-7,.5.5,0,0,1,0,1,2.5,2.5,0,0,0,0,5Z"/></svg>