<svg xmlns="http://www.w3.org/2000/svg" viewBox="0 0 24 24"><title>file-copyright-user</title><path d="M23.414,3,21,.585A2,2,0,0,0,19.586,0H8A2,2,0,0,0,6,2V9.276a.248.248,0,0,0,.242.249c.366.007,1.038.034,1.485.083A.247.247,0,0,0,8,9.359V2.5A.5.5,0,0,1,8.5,2H19.379a.5.5,0,0,1,.353.146l2.122,2.122A.5.5,0,0,1,22,4.621V18a.5.5,0,0,1-.5.5H14.641a.245.245,0,0,0-.24.21,7.935,7.935,0,0,1-.364,1.458.244.244,0,0,0,.228.331H22a2,2,0,0,0,2-2V4.414A2,2,0,0,0,23.414,3Z"/><path d="M6.5,11A6.5,6.5,0,1,0,13,17.5,6.508,6.508,0,0,0,6.5,11Zm3.716,9.85a.265.265,0,0,1-.017.348,5.184,5.184,0,0,1-7.4,0,.264.264,0,0,1-.016-.347,5.007,5.007,0,0,1,2.509-1.685.241.241,0,0,0,.049-.449,2.513,2.513,0,0,1-1.224-3,2.382,2.382,0,0,1,1.716-1.633,2.5,2.5,0,0,1,1.815,4.635.243.243,0,0,0,.065.446A5.009,5.009,0,0,1,10.216,20.85Z"/></svg>