<svg xmlns="http://www.w3.org/2000/svg" viewBox="0 0 24 24"><title>file-copyright-equal</title><path d="M23.414,3,21,.585A2,2,0,0,0,19.586,0H8A2,2,0,0,0,6,2V9.276a.248.248,0,0,0,.242.249c.366.007,1.038.034,1.485.083A.247.247,0,0,0,8,9.359V2.5A.5.5,0,0,1,8.5,2H19.379a.5.5,0,0,1,.353.146l2.122,2.122A.5.5,0,0,1,22,4.621V18a.5.5,0,0,1-.5.5H14.641a.245.245,0,0,0-.24.21,7.935,7.935,0,0,1-.364,1.458.244.244,0,0,0,.228.331H22a2,2,0,0,0,2-2V4.414A2,2,0,0,0,23.414,3Z"/><path d="M6.5,11A6.5,6.5,0,1,0,13,17.5,6.508,6.508,0,0,0,6.5,11Zm2,9.25h-4a.75.75,0,0,1,0-1.5h4a.75.75,0,0,1,0,1.5Zm0-3h-4a.75.75,0,0,1,0-1.5h4a.75.75,0,0,1,0,1.5Z"/></svg>