<?xml version="1.0" encoding="utf-8"?>
<!-- Generator: Adobe Illustrator 22.1.0, SVG Export Plug-In . SVG Version: 6.00 Build 0)  -->
<svg version="1.1" id="Layer_1" xmlns="http://www.w3.org/2000/svg" xmlns:xlink="http://www.w3.org/1999/xlink" x="0px" y="0px"
	 viewBox="0 0 24 24" style="enable-background:new 0 0 24 24;" xml:space="preserve">
<g>
	<title>layout-corners-dashboard</title>
	<path d="M1.5,24C0.673,24,0,23.327,0,22.5v-21C0,0.673,0.673,0,1.5,0h21C23.327,0,24,0.673,24,1.5v21c0,0.827-0.673,1.5-1.5,1.5
		H1.5z M22.5,23c0.276,0,0.5-0.224,0.5-0.5v-5.293L17.207,23H22.5z M15.793,23L23,15.793V8.207L15.793,1H8.207L1,8.207v7.586
		L8.207,23H15.793z M1,22.5C1,22.776,1.224,23,1.5,23h5.293L1,17.207V22.5z M23,6.793V1.5C23,1.224,22.776,1,22.5,1h-5.293L23,6.793
		z M1.5,1C1.224,1,1,1.224,1,1.5v5.293L6.793,1H1.5z"/>
</g>
</svg>
