<?xml version="1.0" encoding="utf-8"?>
<!-- Generator: Adobe Illustrator 22.1.0, SVG Export Plug-In . SVG Version: 6.00 Build 0)  -->
<svg version="1.1" id="Layer_1" xmlns="http://www.w3.org/2000/svg" xmlns:xlink="http://www.w3.org/1999/xlink" x="0px" y="0px"
	 viewBox="0 0 24 24" style="enable-background:new 0 0 24 24;" xml:space="preserve">
<g>
	<title>pie-line-graph-desktop</title>
	<path d="M7,12.5c-2.206,0-4-1.794-4-4s1.794-4,4-4s4,1.794,4,4S9.206,12.5,7,12.5z M6.5,5.545C5.078,5.786,4,7.035,4,8.5
		c0,1.654,1.346,3,3,3c1.465,0,2.714-1.078,2.955-2.5H7C6.724,9,6.5,8.776,6.5,8.5V5.545z M9.955,8
		C9.743,6.754,8.746,5.757,7.5,5.545V8H9.955z"/>
	<path d="M7.499,23c-0.276,0-0.5-0.224-0.5-0.5s0.224-0.5,0.5-0.5h1.249c0.649-0.884,1.061-1.913,1.201-3H1.5
		C0.673,19,0,18.327,0,17.5v-15C0,1.673,0.673,1,1.5,1h21C23.327,1,24,1.673,24,2.5v15c0,0.827-0.673,1.5-1.5,1.5h-8.449
		c0.14,1.086,0.552,2.116,1.201,3h1.247c0.276,0,0.5,0.224,0.5,0.5s-0.224,0.5-0.5,0.5H7.499z M14.051,22
		c-0.544-0.912-0.889-1.937-1.007-3h-2.087c-0.119,1.063-0.463,2.088-1.007,3H14.051z M1,17.5C1,17.776,1.224,18,1.5,18h21
		c0.276,0,0.5-0.224,0.5-0.5V16H1V17.5z M23,15V2.5C23,2.224,22.776,2,22.5,2h-21C1.224,2,1,2.224,1,2.5V15H23z"/>
	<path d="M18,8c-0.116,0-0.23-0.041-0.32-0.116l-2.596-2.163L13.9,7.3c-0.094,0.125-0.243,0.2-0.4,0.2l0,0
		c-0.109,0-0.213-0.035-0.3-0.101c-0.106-0.08-0.176-0.197-0.195-0.329C12.986,6.938,13.02,6.807,13.1,6.7l1.5-2
		c0.082-0.109,0.206-0.181,0.342-0.197C14.963,4.501,14.981,4.5,14.999,4.5c0.117,0,0.231,0.041,0.321,0.116l2.616,2.18l2.18-2.616
		C20.211,4.066,20.351,4,20.5,4c0.116,0,0.23,0.041,0.32,0.116c0.212,0.177,0.241,0.493,0.064,0.704l-2.5,3
		C18.289,7.934,18.148,8,18,8z"/>
	<path d="M19.5,13c-0.276,0-0.5-0.224-0.5-0.5V11c0-0.276,0.224-0.5,0.5-0.5S20,10.724,20,11v1.5C20,12.776,19.776,13,19.5,13z"/>
	<path d="M17.5,13c-0.276,0-0.5-0.224-0.5-0.5v-2c0-0.276,0.224-0.5,0.5-0.5s0.5,0.224,0.5,0.5v2C18,12.776,17.776,13,17.5,13z"/>
	<path d="M15.5,13c-0.276,0-0.5-0.224-0.5-0.5v-3C15,9.224,15.224,9,15.5,9S16,9.224,16,9.5v3C16,12.776,15.776,13,15.5,13z"/>
	<path d="M13.5,13c-0.276,0-0.5-0.224-0.5-0.5V11c0-0.276,0.224-0.5,0.5-0.5S14,10.724,14,11v1.5C14,12.776,13.776,13,13.5,13z"/>
</g>
</svg>
