<?xml version="1.0" encoding="utf-8"?>
<!-- Generator: Adobe Illustrator 22.1.0, SVG Export Plug-In . SVG Version: 6.00 Build 0)  -->
<svg version="1.1" id="Layer_1" xmlns="http://www.w3.org/2000/svg" xmlns:xlink="http://www.w3.org/1999/xlink" x="0px" y="0px"
	 viewBox="0 0 24 24" style="enable-background:new 0 0 24 24;" xml:space="preserve">
<g>
	<title>data-transfer-vertical</title>
	<path d="M9.5,24.001c-0.066,0-0.13-0.013-0.192-0.039c-0.061-0.025-0.116-0.062-0.163-0.109l-3.999-3.999
		C5.052,19.76,5,19.634,5,19.501s0.052-0.259,0.146-0.354s0.22-0.146,0.354-0.146s0.259,0.052,0.354,0.146L9,22.294V9.501
		c0-0.276,0.224-0.5,0.5-0.5s0.5,0.224,0.5,0.5v12.793l3.146-3.146c0.094-0.094,0.22-0.146,0.354-0.146s0.259,0.052,0.354,0.146
		S14,19.367,14,19.501s-0.052,0.259-0.146,0.354l-4,4c-0.046,0.046-0.101,0.083-0.163,0.109C9.63,23.988,9.566,24.001,9.5,24.001z"
		/>
	<path d="M14.5,15.001c-0.276,0-0.5-0.224-0.5-0.5V1.708l-3.146,3.146c-0.094,0.094-0.22,0.146-0.354,0.146
		s-0.259-0.052-0.354-0.146S10,4.634,10,4.501s0.052-0.259,0.146-0.354l4-4c0.047-0.047,0.101-0.083,0.163-0.109
		c0.061-0.025,0.125-0.038,0.191-0.038s0.13,0.013,0.191,0.038c0.061,0.025,0.116,0.062,0.163,0.108l4,4
		C18.948,4.242,19,4.367,19,4.501s-0.052,0.259-0.146,0.354s-0.22,0.146-0.354,0.146s-0.259-0.052-0.354-0.146L15,1.708v12.793
		C15,14.776,14.776,15.001,14.5,15.001z"/>
</g>
</svg>
