<?xml version="1.0" encoding="utf-8"?>
<!-- Generator: Adobe Illustrator 22.1.0, SVG Export Plug-In . SVG Version: 6.00 Build 0)  -->
<svg version="1.1" id="Layer_1" xmlns="http://www.w3.org/2000/svg" xmlns:xlink="http://www.w3.org/1999/xlink" x="0px" y="0px"
	 viewBox="0 0 24 24" style="enable-background:new 0 0 24 24;" xml:space="preserve">
<g>
	<title>data-transfer-vertical-diamond</title>
	<path d="M11.957,23.042c-0.401,0-0.778-0.156-1.061-0.439l-9.586-9.586c-0.283-0.283-0.439-0.66-0.439-1.061
		c0-0.401,0.156-0.777,0.439-1.061l9.586-9.585c0.283-0.283,0.66-0.439,1.061-0.439c0.401,0,0.778,0.156,1.061,0.44l9.586,9.585
		c0.585,0.585,0.585,1.536,0,2.121l-9.586,9.586C12.735,22.886,12.358,23.042,11.957,23.042z M11.957,1.879
		c-0.136,0-0.265,0.051-0.354,0.139l-9.586,9.585c-0.094,0.094-0.146,0.22-0.146,0.354s0.052,0.259,0.146,0.354l9.586,9.586
		c0.094,0.094,0.22,0.146,0.354,0.146s0.259-0.052,0.354-0.146l9.586-9.586c0.195-0.195,0.195-0.512,0-0.707l-9.586-9.585
		C12.222,1.929,12.093,1.879,11.957,1.879z"/>
	<path d="M11.987,17.484c-0.067,0-0.132-0.013-0.193-0.039c-0.06-0.025-0.115-0.062-0.161-0.108l-2.999-2.999
		c-0.094-0.094-0.146-0.22-0.146-0.354s0.052-0.259,0.146-0.354s0.22-0.146,0.354-0.146s0.259,0.052,0.354,0.146l2.146,2.146V8.191
		L9.34,10.338c-0.094,0.094-0.22,0.146-0.354,0.146s-0.259-0.052-0.354-0.146s-0.146-0.22-0.146-0.354s0.052-0.259,0.146-0.354l3-3
		c0.094-0.095,0.22-0.147,0.354-0.147c0.134,0,0.259,0.052,0.354,0.147l2.999,3c0.094,0.094,0.146,0.22,0.146,0.354
		s-0.052,0.259-0.146,0.354s-0.22,0.146-0.354,0.146s-0.259-0.052-0.354-0.146l-2.146-2.146v7.586l2.146-2.146
		c0.094-0.094,0.22-0.146,0.354-0.146s0.259,0.052,0.354,0.146s0.146,0.22,0.146,0.354s-0.052,0.259-0.146,0.354l-3,3
		c-0.045,0.046-0.1,0.083-0.162,0.108C12.118,17.471,12.053,17.484,11.987,17.484z"/>
</g>
</svg>
