<?xml version="1.0" encoding="utf-8"?>
<!-- Generator: Adobe Illustrator 22.1.0, SVG Export Plug-In . SVG Version: 6.00 Build 0)  -->
<svg version="1.1" id="Layer_1" xmlns="http://www.w3.org/2000/svg" xmlns:xlink="http://www.w3.org/1999/xlink" x="0px" y="0px"
	 viewBox="0 0 24 24" style="enable-background:new 0 0 24 24;" xml:space="preserve">
<g>
	<title>data-transfer-three-back-forth-back</title>
	<path d="M16,7.5c-0.134,0-0.259-0.052-0.354-0.146c-0.195-0.195-0.195-0.512,0-0.707L17.793,4.5H0.5C0.224,4.5,0,4.276,0,4
		s0.224-0.5,0.5-0.5h17.293l-2.146-2.146c-0.195-0.195-0.195-0.512,0-0.707C15.741,0.552,15.866,0.5,16,0.5s0.259,0.052,0.354,0.146
		l3,3c0.046,0.046,0.083,0.101,0.109,0.163c0.05,0.121,0.05,0.261,0,0.382c-0.025,0.061-0.062,0.116-0.109,0.163l-2.999,2.999
		C16.259,7.448,16.134,7.5,16,7.5z"/>
	<path d="M16,23.5c-0.134,0-0.259-0.052-0.354-0.146c-0.195-0.195-0.195-0.512,0-0.707l2.146-2.146H0.5C0.224,20.5,0,20.276,0,20
		s0.224-0.5,0.5-0.5h17.293l-2.146-2.146c-0.195-0.195-0.195-0.512,0-0.707C15.741,16.552,15.866,16.5,16,16.5
		s0.259,0.052,0.354,0.146l3,3c0.046,0.045,0.083,0.101,0.109,0.163c0.05,0.121,0.05,0.261,0,0.382
		c-0.025,0.062-0.062,0.117-0.109,0.163l-2.999,2.999C16.259,23.448,16.134,23.5,16,23.5z"/>
	<path d="M8,15.5c-0.134,0-0.259-0.052-0.354-0.146l-3-3c-0.046-0.046-0.083-0.101-0.108-0.162c-0.05-0.122-0.05-0.261,0-0.383
		c0.026-0.062,0.062-0.116,0.108-0.163l3-3C7.741,8.552,7.866,8.5,8,8.5s0.259,0.052,0.354,0.146S8.5,8.866,8.5,9
		S8.448,9.259,8.354,9.354L6.207,11.5H23.5c0.276,0,0.5,0.224,0.5,0.5c0,0.276-0.224,0.5-0.5,0.5H6.207l2.146,2.146
		C8.448,14.741,8.5,14.866,8.5,15s-0.052,0.259-0.146,0.354S8.134,15.5,8,15.5z"/>
</g>
</svg>
