<?xml version="1.0" encoding="utf-8"?>
<!-- Generator: Adobe Illustrator 22.1.0, SVG Export Plug-In . SVG Version: 6.00 Build 0)  -->
<svg version="1.1" id="Layer_1" xmlns="http://www.w3.org/2000/svg" xmlns:xlink="http://www.w3.org/1999/xlink" x="0px" y="0px"
	 viewBox="0 0 24 24" style="enable-background:new 0 0 24 24;" xml:space="preserve">
<g>
	<title>data-transfer-circle</title>
	<path d="M8.5,19c-0.134,0-0.259-0.052-0.354-0.146l-3-3c-0.047-0.047-0.083-0.101-0.109-0.163c-0.05-0.121-0.05-0.26,0-0.382
		c0.025-0.061,0.062-0.116,0.108-0.163l3-3C8.241,12.052,8.366,12,8.5,12s0.259,0.052,0.354,0.146S9,12.366,9,12.5
		s-0.052,0.259-0.146,0.354L6.707,15H13.5c0.276,0,0.5,0.224,0.5,0.5S13.776,16,13.5,16H6.707l2.146,2.146
		C8.948,18.241,9,18.366,9,18.5s-0.052,0.259-0.146,0.354S8.634,19,8.5,19z"/>
	<path d="M15.5,12c-0.134,0-0.259-0.052-0.354-0.146c-0.195-0.195-0.195-0.512,0-0.707L17.293,9H10.5C10.224,9,10,8.776,10,8.5
		S10.224,8,10.5,8h6.793l-2.146-2.146c-0.195-0.195-0.195-0.512,0-0.707C15.241,5.052,15.366,5,15.5,5s0.259,0.052,0.354,0.146l3,3
		c0.046,0.046,0.083,0.101,0.109,0.163c0.05,0.121,0.05,0.261,0,0.382c-0.025,0.061-0.062,0.116-0.109,0.163l-2.999,2.999
		C15.759,11.948,15.634,12,15.5,12z"/>
	<path d="M12,24C5.383,24,0,18.617,0,12C0,5.383,5.383,0,12,0c6.617,0,12,5.383,12,12C24,18.617,18.617,24,12,24z M12,1
		C5.935,1,1,5.935,1,12s4.935,11,11,11s11-4.935,11-11S18.065,1,12,1z"/>
</g>
</svg>
