<svg xmlns="http://www.w3.org/2000/svg" viewBox="0 0 24 24"><defs><style>.a{fill:none;stroke:currentColor;stroke-linecap:round;stroke-linejoin:round;stroke-width:1.5px;}</style></defs><title>podcast-live</title><path class="a" d="M1.125,4.875A.375.375,0,1,1,.75,5.25a.375.375,0,0,1,.375-.375"/><line class="a" x1="9.125" y1="16.125" x2="9.125" y2="8.625"/><path class="a" d="M12.125,8.625v2.546a8.932,8.932,0,0,0,1.5,4.954,8.932,8.932,0,0,0,1.5-4.954V8.625"/><path class="a" d="M3.125,8.625v6a1.5,1.5,0,0,0,1.5,1.5h1.5"/><path class="a" d="M21.125,16.125h-1.5a1.5,1.5,0,0,1-1.5-1.5v-4.5a1.5,1.5,0,0,1,1.5-1.5h1.5"/><line class="a" x1="18.125" y1="13.125" x2="21.125" y2="13.125"/><line class="a" x1="4.625" y1="5.625" x2="23.25" y2="5.625"/><line class="a" x1="23.25" y1="19.125" x2="0.75" y2="19.125"/></svg>