<?xml version="1.0" encoding="utf-8"?>
<!-- Generator: Adobe Illustrator 22.1.0, SVG Export Plug-In . SVG Version: 6.00 Build 0)  -->
<svg version="1.1" id="Layer_1" xmlns="http://www.w3.org/2000/svg" xmlns:xlink="http://www.w3.org/1999/xlink" x="0px" y="0px"
	 viewBox="0 0 24 24" style="enable-background:new 0 0 24 24;" xml:space="preserve">
<title>direction-button-arrows</title>
<g>
	<path d="M12,23.998c-0.088,0-0.175-0.016-0.26-0.047c-0.008-0.003-0.015-0.005-0.022-0.008c-0.096-0.039-0.179-0.094-0.249-0.165
		L8.47,20.778c-0.142-0.142-0.22-0.33-0.22-0.53s0.078-0.389,0.22-0.53c0.142-0.142,0.33-0.22,0.53-0.22s0.389,0.078,0.53,0.22
		l1.72,1.72v-8.689H2.561l1.72,1.72c0.142,0.142,0.22,0.33,0.22,0.53s-0.078,0.389-0.22,0.53c-0.142,0.142-0.33,0.22-0.53,0.22
		s-0.389-0.078-0.53-0.22l-3-3c-0.07-0.07-0.125-0.152-0.163-0.245c-0.003-0.008-0.007-0.017-0.01-0.026
		C0.016,12.172,0,12.086,0,11.998c0-0.089,0.016-0.176,0.048-0.261c0.002-0.007,0.005-0.014,0.007-0.021
		c0.04-0.097,0.095-0.179,0.166-0.25L3.22,8.468c0.142-0.142,0.33-0.22,0.53-0.22s0.389,0.078,0.53,0.22
		c0.142,0.141,0.22,0.33,0.22,0.53s-0.078,0.389-0.22,0.53l-1.72,1.72h8.689V2.559l-1.72,1.72C9.389,4.42,9.2,4.498,9,4.498
		S8.611,4.42,8.47,4.278c-0.142-0.141-0.22-0.33-0.22-0.53s0.078-0.389,0.22-0.53l2.999-2.999c0.07-0.07,0.152-0.125,0.245-0.163
		c0.008-0.003,0.016-0.006,0.025-0.009c0.085-0.032,0.172-0.047,0.26-0.047c0.089,0,0.177,0.016,0.261,0.048
		c0.007,0.002,0.014,0.005,0.021,0.007c0.097,0.04,0.179,0.095,0.25,0.166l2.999,2.999c0.142,0.141,0.22,0.33,0.22,0.53
		s-0.078,0.389-0.22,0.53S15.2,4.498,15,4.498s-0.389-0.078-0.53-0.22l-1.72-1.72v8.689h8.689l-1.72-1.72
		c-0.142-0.141-0.22-0.33-0.22-0.53s0.078-0.389,0.22-0.53s0.33-0.22,0.53-0.22s0.389,0.078,0.53,0.22l3,3
		c0.07,0.07,0.125,0.152,0.163,0.245c0.003,0.008,0.007,0.017,0.01,0.026C23.984,11.82,24,11.909,24,11.998
		c0,0.087-0.016,0.174-0.047,0.258c-0.002,0.006-0.004,0.011-0.006,0.016c-0.042,0.104-0.098,0.187-0.168,0.257l-2.999,2.999
		c-0.142,0.142-0.33,0.22-0.53,0.22s-0.389-0.078-0.53-0.22s-0.22-0.33-0.22-0.53s0.078-0.389,0.22-0.53l1.72-1.72H12.75v8.689
		l1.72-1.72c0.142-0.142,0.33-0.22,0.53-0.22s0.389,0.078,0.53,0.22s0.22,0.33,0.22,0.53s-0.078,0.389-0.22,0.53l-3,3
		c-0.07,0.07-0.153,0.125-0.246,0.164c-0.008,0.003-0.018,0.007-0.027,0.01C12.172,23.983,12.086,23.998,12,23.998z"/>
</g>
</svg>
