<?xml version="1.0" encoding="utf-8"?>
<!-- Generator: Adobe Illustrator 22.1.0, SVG Export Plug-In . SVG Version: 6.00 Build 0)  -->
<svg version="1.1" id="Layer_1" xmlns="http://www.w3.org/2000/svg" xmlns:xlink="http://www.w3.org/1999/xlink" x="0px" y="0px"
	 viewBox="0 0 24 24" style="enable-background:new 0 0 24 24;" xml:space="preserve">
<title>direction-button-2</title>
<g>
	<path d="M12.001,15.748c-2.068,0-3.75-1.682-3.75-3.75c0-2.068,1.682-3.75,3.75-3.75c2.068,0,3.75,1.682,3.75,3.75
		C15.751,14.066,14.069,15.748,12.001,15.748z M12.001,9.748c-1.241,0-2.25,1.009-2.25,2.25c0,1.241,1.009,2.25,2.25,2.25
		c1.241,0,2.25-1.009,2.25-2.25C14.251,10.757,13.241,9.748,12.001,9.748z"/>
	<path d="M4.59,16.407c-0.354,0-0.692-0.131-0.952-0.37L0.52,13.179c-0.034-0.031-0.066-0.063-0.096-0.096
		c-0.597-0.649-0.556-1.663,0.092-2.262c0.002-0.001,3.123-2.859,3.123-2.859c0.26-0.238,0.598-0.37,0.951-0.37
		c0.377,0,0.731,0.146,0.997,0.412C5.853,8.268,6,8.622,6.001,8.999V15c-0.001,0.354-0.133,0.691-0.37,0.95
		C5.364,16.241,4.985,16.407,4.59,16.407z M1.534,11.922c-0.02,0.018-0.031,0.043-0.033,0.071c-0.001,0.028,0.008,0.054,0.027,0.074
		l2.972,2.725V9.205L1.534,11.922z"/>
	<path d="M19.408,16.41c-0.377-0.001-0.731-0.148-0.996-0.414c-0.266-0.267-0.412-0.621-0.412-0.997V9
		c-0.002-0.353,0.13-0.693,0.371-0.955c0.255-0.278,0.602-0.439,0.978-0.456l0.056-0.001c0.357,0,0.697,0.132,0.958,0.371
		l3.117,2.858c0.033,0.03,0.066,0.063,0.098,0.098c0.291,0.317,0.439,0.727,0.42,1.154c-0.019,0.427-0.203,0.822-0.519,1.111
		l-3.117,2.86c-0.26,0.239-0.599,0.371-0.953,0.371H19.408z M19.501,14.794l2.966-2.721c0.021-0.019,0.032-0.043,0.033-0.071
		c0.001-0.028-0.008-0.053-0.027-0.073l-2.973-2.726V14.794z"/>
	<path d="M11.925,23.996c-0.425-0.019-0.819-0.204-1.107-0.52L7.961,20.36c-0.238-0.261-0.37-0.599-0.37-0.951
		c0-0.376,0.146-0.731,0.412-0.997c0.266-0.267,0.62-0.414,0.997-0.414h6.001c0.355,0,0.694,0.132,0.955,0.372
		c0.277,0.255,0.438,0.602,0.454,0.978c0.016,0.376-0.116,0.735-0.37,1.013l-2.858,3.117c-0.029,0.033-0.067,0.071-0.106,0.106
		c-0.292,0.267-0.674,0.415-1.073,0.415C11.977,23.998,11.951,23.997,11.925,23.996z M11.925,22.464
		c0.02,0.022,0.043,0.033,0.07,0.034c0.001,0,0.002,0,0.003,0c0.031,0,0.051-0.009,0.069-0.026l2.727-2.974H9.206L11.925,22.464z"/>
	<path d="M9.001,5.998c-0.354,0-0.692-0.132-0.952-0.37c-0.278-0.255-0.44-0.602-0.456-0.978C7.576,4.273,7.707,3.913,7.962,3.635
		l2.858-3.118c0.03-0.033,0.062-0.065,0.096-0.096c0.298-0.274,0.681-0.424,1.08-0.424c0.025,0,0.051,0.001,0.076,0.002
		c0.426,0.018,0.821,0.202,1.11,0.518l2.858,3.118c0.239,0.261,0.371,0.599,0.371,0.952c0.001,0.376-0.146,0.73-0.412,0.997
		c-0.266,0.266-0.62,0.413-0.997,0.414H9.001z M14.796,4.498l-2.72-2.967c-0.019-0.021-0.043-0.032-0.071-0.033L12,1.123v0.375
		c-0.026,0-0.049,0.009-0.068,0.027L9.206,4.498H14.796z"/>
</g>
</svg>
