<?xml version="1.0" encoding="utf-8"?>
<!-- Generator: Adobe Illustrator 22.1.0, SVG Export Plug-In . SVG Version: 6.00 Build 0)  -->
<svg version="1.1" id="Layer_1" xmlns="http://www.w3.org/2000/svg" xmlns:xlink="http://www.w3.org/1999/xlink" x="0px" y="0px"
	 viewBox="0 0 24 24" style="enable-background:new 0 0 24 24;" xml:space="preserve">
<title>scroll-vertical</title>
<g>
	<path d="M12,14.998c-1.654,0-3-1.346-3-3s1.346-3,3-3c1.654,0,3,1.346,3,3S13.654,14.998,12,14.998z M12,10.498
		c-0.827,0-1.5,0.673-1.5,1.5c0,0.827,0.673,1.5,1.5,1.5s1.5-0.673,1.5-1.5C13.5,11.171,12.827,10.498,12,10.498z"/>
	<path d="M6,7.058c-0.2,0-0.389-0.078-0.53-0.22c-0.142-0.141-0.22-0.33-0.22-0.53s0.078-0.389,0.22-0.53l5.25-5.25
		c0.342-0.342,0.796-0.53,1.28-0.53s0.938,0.188,1.28,0.529l5.25,5.25c0.142,0.141,0.22,0.33,0.22,0.53s-0.078,0.389-0.22,0.53
		S18.2,7.058,18,7.058s-0.389-0.078-0.53-0.22l-5.25-5.25c-0.058-0.058-0.136-0.09-0.22-0.09c-0.083,0-0.161,0.032-0.22,0.091
		l-5.25,5.25C6.389,6.98,6.2,7.058,6,7.058z"/>
	<path d="M12,23.996c-0.484,0-0.939-0.188-1.28-0.529l-5.25-5.25c-0.292-0.292-0.292-0.768,0-1.061c0.142-0.142,0.33-0.22,0.53-0.22
		s0.389,0.078,0.53,0.22l5.25,5.25c0.058,0.058,0.136,0.09,0.22,0.09s0.162-0.032,0.22-0.091l5.25-5.25
		c0.142-0.142,0.33-0.22,0.53-0.22s0.389,0.078,0.53,0.22c0.292,0.292,0.292,0.768,0,1.061l-5.25,5.25
		C12.939,23.808,12.484,23.996,12,23.996z"/>
</g>
</svg>
