<?xml version="1.0" encoding="utf-8"?>
<!-- Generator: Adobe Illustrator 22.1.0, SVG Export Plug-In . SVG Version: 6.00 Build 0)  -->
<svg version="1.1" id="Layer_1" xmlns="http://www.w3.org/2000/svg" xmlns:xlink="http://www.w3.org/1999/xlink" x="0px" y="0px"
	 viewBox="0 0 24 24" style="enable-background:new 0 0 24 24;" xml:space="preserve">
<title>scroll-vertical-1</title>
<g>
	<path d="M12.091,15.748c-2.068,0-3.75-1.682-3.75-3.75c0-2.068,1.682-3.75,3.75-3.75c2.068,0,3.75,1.682,3.75,3.75
		C15.841,14.066,14.159,15.748,12.091,15.748z M12.091,9.748c-1.241,0-2.25,1.009-2.25,2.25c0,1.241,1.009,2.25,2.25,2.25
		c1.241,0,2.25-1.009,2.25-2.25C14.341,10.757,13.332,9.748,12.091,9.748z"/>
	<path d="M9.091,5.998c-0.358,0-0.695-0.132-0.956-0.37C7.562,5.102,7.523,4.208,8.048,3.635l2.861-3.118
		c0.031-0.033,0.063-0.066,0.097-0.097c0.295-0.272,0.679-0.422,1.08-0.422c0.024,0,0.048,0,0.073,0.002
		c0.427,0.018,0.823,0.201,1.113,0.517l2.859,3.119c0.239,0.26,0.371,0.599,0.371,0.952c0,0.376-0.146,0.73-0.412,0.997
		c-0.266,0.266-0.62,0.413-0.997,0.414H9.091z M14.886,4.498l-2.719-2.967c-0.019-0.021-0.043-0.032-0.071-0.033L12.09,1.123v0.375
		c-0.027,0-0.05,0.009-0.07,0.027L9.293,4.497L14.886,4.498z"/>
	<path d="M12.017,23.996c-0.424-0.019-0.818-0.203-1.107-0.518L8.049,20.36c-0.24-0.263-0.371-0.603-0.37-0.958
		c0.001-0.376,0.149-0.73,0.417-0.995c0.266-0.264,0.618-0.409,0.993-0.409h6.003c0.355,0,0.694,0.132,0.955,0.372
		c0.277,0.254,0.438,0.602,0.454,0.978c0.016,0.376-0.116,0.736-0.371,1.013l-2.857,3.117c-0.028,0.031-0.062,0.065-0.097,0.098
		c-0.298,0.273-0.682,0.422-1.083,0.422C12.067,23.997,12.042,23.997,12.017,23.996z M12.016,22.464
		c0.019,0.021,0.043,0.031,0.07,0.033c0,0,0,0,0.001,0c0.031,0,0.053-0.009,0.073-0.027l2.725-2.973H9.293l2.719,2.963
		C12.014,22.462,12.015,22.463,12.016,22.464z"/>
</g>
</svg>
