<svg xmlns="http://www.w3.org/2000/svg" viewBox="0 0 24 24"><title>electronics-shottkey-diode</title><path d="M7.547,11.151a.249.249,0,0,0-.354,0l-.7.7a1.5,1.5,0,0,0,0,2.121l.883.884a.25.25,0,0,1,0,.354L.293,22.294a1,1,0,1,0,1.414,1.414l7.08-7.081a.251.251,0,0,1,.354,0l.884.884a1.5,1.5,0,0,0,2.121,0l.7-.7a.25.25,0,0,0,0-.354Z"/><path d="M23.707.294a1,1,0,0,0-1.414,0l-6.08,6.08a.246.246,0,0,1-.177.073.251.251,0,0,1-.177-.073l-.884-.884a1.537,1.537,0,0,0-2.121,0L8.615,9.729a.25.25,0,0,0,0,.354l5.3,5.3a.251.251,0,0,0,.354,0l4.238-4.239a1.5,1.5,0,0,0,0-2.121l-.883-.884a.249.249,0,0,1,0-.353l6.08-6.081A1,1,0,0,0,23.707.294Z"/></svg>