<svg xmlns="http://www.w3.org/2000/svg" viewBox="0 0 24 24"><defs><style>.a{fill:none;stroke:currentColor;stroke-linecap:round;stroke-linejoin:round;}</style></defs><title>cog-double-1</title><path class="a" d="M5.813,11.212a1.062,1.062,0,0,0,1.578,0l.51-.564a1.063,1.063,0,0,1,1.85.766l-.039.76a1.063,1.063,0,0,0,1.115,1.115l.76-.039a1.063,1.063,0,0,1,.767,1.85l-.565.51a1.062,1.062,0,0,0,0,1.578l.565.51a1.063,1.063,0,0,1-.767,1.85l-.76-.039a1.063,1.063,0,0,0-1.115,1.115l.039.76a1.063,1.063,0,0,1-1.85.766l-.51-.564a1.062,1.062,0,0,0-1.578,0l-.51.564a1.063,1.063,0,0,1-1.85-.766l.039-.76a1.063,1.063,0,0,0-1.115-1.115l-.76.039A1.063,1.063,0,0,1,.851,17.7l.564-.51a1.062,1.062,0,0,0,0-1.578L.851,15.1a1.063,1.063,0,0,1,.766-1.85l.76.039a1.063,1.063,0,0,0,1.115-1.115l-.039-.76a1.063,1.063,0,0,1,1.85-.766Z"/><circle class="a" cx="6.602" cy="16.399" r="2.441"/><path class="a" d="M18.187,12.79a1.062,1.062,0,0,0-1.578,0l-.51.565a1.063,1.063,0,0,1-1.85-.767l.039-.76a1.063,1.063,0,0,0-1.115-1.115l-.76.039a1.063,1.063,0,0,1-.767-1.85l.565-.51a1.062,1.062,0,0,0,0-1.578l-.565-.51a1.063,1.063,0,0,1,.767-1.85l.76.039a1.063,1.063,0,0,0,1.115-1.115l-.039-.76a1.063,1.063,0,0,1,1.85-.766l.51.564a1.062,1.062,0,0,0,1.578,0l.51-.564a1.063,1.063,0,0,1,1.85.766l-.039.76a1.063,1.063,0,0,0,1.115,1.115l.76-.039a1.063,1.063,0,0,1,.766,1.85l-.564.51a1.062,1.062,0,0,0,0,1.578l.564.51a1.063,1.063,0,0,1-.766,1.85l-.76-.039a1.063,1.063,0,0,0-1.115,1.115l.039.76a1.063,1.063,0,0,1-1.85.767Z"/><circle class="a" cx="17.398" cy="7.603" r="2.441"/></svg>