<?xml version="1.0" encoding="utf-8"?>
<!-- Generator: Adobe Illustrator 22.1.0, SVG Export Plug-In . SVG Version: 6.00 Build 0)  -->
<svg version="1.1" id="Layer_1" xmlns="http://www.w3.org/2000/svg" xmlns:xlink="http://www.w3.org/1999/xlink" x="0px" y="0px"
	 viewBox="0 0 24 24" style="enable-background:new 0 0 24 24;" xml:space="preserve">
<title>network-add</title>
<g>
	<path d="M17.254,24.002c-3.722,0-6.75-3.028-6.75-6.75s3.028-6.75,6.75-6.75s6.75,3.028,6.75,6.75S20.976,24.002,17.254,24.002z
		 M17.254,12.002c-2.895,0-5.25,2.355-5.25,5.25s2.355,5.25,5.25,5.25s5.25-2.355,5.25-5.25S20.149,12.002,17.254,12.002z"/>
	<path d="M17.254,21.002c-0.414,0-0.75-0.336-0.75-0.75v-2.25h-2.25c-0.414,0-0.75-0.336-0.75-0.75s0.336-0.75,0.75-0.75h2.25v-2.25
		c0-0.414,0.336-0.75,0.75-0.75s0.75,0.336,0.75,0.75v2.25h2.25c0.414,0,0.75,0.336,0.75,0.75s-0.336,0.75-0.75,0.75h-2.25v2.25
		C18.004,20.666,17.668,21.002,17.254,21.002z"/>
	<path d="M10.513,23.904c-0.034,0-0.069-0.002-0.104-0.007c-0.414-0.055-0.846-0.137-1.277-0.243
		c-0.01-0.002-0.034-0.008-0.058-0.016c-2.641-0.654-4.932-2.16-6.605-4.35c-0.4-0.524-0.764-1.094-1.082-1.695
		c-0.002-0.005-0.011-0.022-0.011-0.022c-1.019-1.936-1.484-4.117-1.345-6.31c0-0.003,0-0.006,0-0.008
		c0-0.025,0.002-0.049,0.005-0.073c0.02-0.287,0.044-0.535,0.075-0.768c0.269-2.007,1.048-3.926,2.255-5.549
		c0.028-0.047,0.061-0.089,0.097-0.128c1.636-2.14,3.967-3.686,6.569-4.355C9.081,0.361,9.133,0.348,9.187,0.34
		c0.925-0.225,1.875-0.339,2.822-0.339c0.528,0,1.062,0.036,1.588,0.106c0.4,0.054,0.815,0.132,1.235,0.234
		c0.04,0.006,0.08,0.016,0.119,0.029c2.607,0.662,4.946,2.208,6.589,4.358c0.044,0.045,0.082,0.095,0.113,0.15
		c1.201,1.623,1.978,3.533,2.245,5.523c0.055,0.41-0.233,0.788-0.643,0.843c-0.035,0.005-0.067,0.007-0.099,0.007
		c-0.375,0-0.695-0.28-0.744-0.65c-0.221-1.647-0.841-3.233-1.796-4.6h-3.183c0.162,0.742,0.276,1.478,0.34,2.195
		c0.018,0.199-0.043,0.394-0.172,0.548c-0.129,0.154-0.31,0.248-0.509,0.265c-0.023,0.002-0.045,0.003-0.066,0.003
		c-0.391,0-0.712-0.294-0.747-0.684c-0.068-0.771-0.196-1.552-0.381-2.327H8.147c-0.316,1.388-0.522,2.93-0.602,4.5h2.927
		c0.414,0,0.75,0.336,0.75,0.75s-0.336,0.75-0.75,0.75H7.504c0,4.124,0.862,8.032,2.256,10.259c0.284,0.062,0.57,0.112,0.851,0.15
		c0.198,0.026,0.375,0.129,0.496,0.288s0.174,0.356,0.147,0.555C11.206,23.625,10.887,23.904,10.513,23.904z M3.387,18.002
		c0.089,0.129,0.181,0.254,0.273,0.375c1.077,1.41,2.469,2.51,4.062,3.218c-0.461-1.043-0.837-2.247-1.122-3.594H3.387z
		 M6.33,16.502c-0.216-1.438-0.326-2.95-0.326-4.5H1.502c-0.002,1.554,0.345,3.098,1.013,4.5H6.33z M6.042,10.502
		c0.074-1.588,0.261-3.098,0.559-4.5H3.39c-0.932,1.334-1.545,2.884-1.779,4.5H6.042z M19.343,4.502
		c-0.901-0.881-1.952-1.594-3.1-2.103c0.304,0.675,0.57,1.378,0.794,2.103H19.343z M15.462,4.502
		c-0.328-0.962-0.742-1.888-1.235-2.761c-0.283-0.062-0.561-0.111-0.829-0.147c-0.46-0.062-0.928-0.093-1.39-0.093
		c-0.754,0-1.51,0.082-2.249,0.245C9.296,2.487,8.89,3.411,8.549,4.502H15.462z M6.973,4.502c0.216-0.749,0.464-1.444,0.743-2.078
		c-1.129,0.508-2.163,1.212-3.05,2.078H6.973z"/>
</g>
</svg>
