<?xml version="1.0" encoding="utf-8"?>
<!-- Generator: Adobe Illustrator 22.1.0, SVG Export Plug-In . SVG Version: 6.00 Build 0)  -->
<svg version="1.1" id="Layer_1" xmlns="http://www.w3.org/2000/svg" xmlns:xlink="http://www.w3.org/1999/xlink" x="0px" y="0px"
	 viewBox="0 0 24 24" style="enable-background:new 0 0 24 24;" xml:space="preserve">
<title>network-heart</title>
<g>
	<path d="M17.252,24c-0.203,0-0.4-0.084-0.541-0.231l-5.114-5.334c-1.143-1.142-1.424-2.892-0.695-4.348
		c0.644-1.287,1.939-2.086,3.382-2.086c0.588,0,1.154,0.134,1.683,0.398c0.364,0.182,0.695,0.42,0.982,0.708l0.304,0.305
		l0.305-0.305c0.712-0.712,1.66-1.105,2.67-1.105s1.958,0.392,2.67,1.105c0.288,0.288,0.526,0.618,0.707,0.981
		c0.728,1.456,0.443,3.207-0.708,4.358l-5.103,5.323C17.652,23.916,17.455,24,17.252,24z M14.282,13.501
		c-0.87,0-1.651,0.482-2.039,1.258c-0.439,0.877-0.268,1.933,0.425,2.627l4.584,4.781l4.573-4.77
		c0.702-0.703,0.876-1.761,0.438-2.638c-0.109-0.219-0.252-0.418-0.426-0.591c-0.429-0.429-1-0.666-1.609-0.666
		c-0.609,0-1.18,0.236-1.61,0.666l-0.835,0.835c-0.142,0.142-0.33,0.22-0.53,0.22s-0.389-0.078-0.53-0.22l-0.835-0.835
		c-0.173-0.173-0.372-0.317-0.592-0.426C14.976,13.582,14.635,13.501,14.282,13.501z"/>
	<path d="M12.002,24c-3.205,0-6.219-1.249-8.485-3.515c-2.266-2.267-3.514-5.281-3.514-8.486c0-0.222,0.008-0.454,0.025-0.729
		c0-0.007-0.001-0.014-0.001-0.02c0-0.043,0.004-0.086,0.011-0.129c0.165-2.262,0.964-4.42,2.313-6.243
		C2.384,4.82,2.424,4.769,2.47,4.722c1.644-2.149,3.982-3.695,6.586-4.355c0.038-0.013,0.077-0.022,0.119-0.028
		C10.103,0.114,11.054,0,12.002,0c0.941,0,1.883,0.113,2.803,0.337c0.064,0.008,0.126,0.024,0.185,0.047
		c2.571,0.668,4.883,2.198,6.517,4.314c0.067,0.061,0.123,0.134,0.163,0.213c1.182,1.604,1.95,3.488,2.22,5.453
		c0.056,0.41-0.232,0.789-0.641,0.845c-0.034,0.005-0.068,0.007-0.102,0.007c-0.373,0-0.692-0.278-0.743-0.648
		C22.179,8.934,21.559,7.358,20.606,6h-3.202c0.292,1.377,0.479,2.855,0.557,4.4c0.01,0.2-0.058,0.392-0.193,0.541
		c-0.134,0.149-0.319,0.236-0.519,0.246c-0.006,0-0.031,0.001-0.038,0.001c-0.4,0-0.729-0.313-0.749-0.713
		C16.384,8.906,16.182,7.402,15.861,6H8.144c-0.316,1.388-0.522,2.93-0.602,4.5h2.757c0.414,0,0.75,0.336,0.75,0.75
		S10.713,12,10.299,12H7.502c0,1.54,0.118,3.052,0.352,4.5h0.398c0.414,0,0.75,0.336,0.75,0.75S8.665,18,8.252,18H8.143
		c0.394,1.732,0.948,3.194,1.614,4.258c0.74,0.161,1.494,0.242,2.244,0.242c0.414,0,0.75,0.336,0.75,0.75S12.415,24,12.002,24
		L12.002,24z M3.383,18c0.355,0.508,0.755,0.985,1.194,1.424c0.921,0.921,1.974,1.647,3.141,2.167
		C7.258,20.548,6.882,19.345,6.597,18H3.383z M6.327,16.5c-0.216-1.438-0.325-2.95-0.325-4.5H1.503c0,1.578,0.34,3.091,1.01,4.5
		H6.327z M6.039,10.5C6.112,8.912,6.3,7.402,6.597,6H3.385C2.449,7.339,1.84,8.883,1.609,10.5H6.039z M19.33,4.5
		c-0.884-0.862-1.913-1.564-3.035-2.071c0.275,0.629,0.522,1.322,0.737,2.071H19.33z M15.457,4.5
		c-0.34-1.082-0.753-2.024-1.209-2.755C13.512,1.583,12.758,1.5,12.004,1.5l-0.001-0.375V1.5c-0.75,0-1.505,0.081-2.245,0.242
		C9.294,2.482,8.887,3.408,8.546,4.5H15.457z M6.97,4.5c0.217-0.754,0.468-1.454,0.749-2.091C6.584,2.914,5.557,3.615,4.654,4.5
		H6.97z"/>
</g>
</svg>
