<svg id="Light" xmlns="http://www.w3.org/2000/svg" viewBox="0 0 24 24"><defs><style>.cls-1{fill:none;stroke:currentColor;stroke-linecap:round;stroke-linejoin:round;}</style></defs><title>single-woman-actions-graduate</title><path class="cls-1" d="M16.35,14.7,9.719,17.337l6.667,2.353a1,1,0,0,0,.666,0l6.038-2.131a.25.25,0,0,0,.009-.468L17.088,14.7A1,1,0,0,0,16.35,14.7Z"/><line class="cls-1" x1="9.719" y1="17.337" x2="9.719" y2="21"/><path class="cls-1" d="M12.719,18.4V21.55a.748.748,0,0,0,.471.7l3.25,1.2a.745.745,0,0,0,.557,0l3.25-1.2a.749.749,0,0,0,.472-.7V18.4"/><path class="cls-1" d="M10.9,9.692a5.467,5.467,0,0,0,3.408-.739.485.485,0,0,0,.128-.721c-.409-.481-.692-1.119-.817-2.967C13.381,1.74,11,.5,8.961.5S4.541,1.74,4.3,5.265c-.125,1.847-.408,2.486-.816,2.967a.485.485,0,0,0,.127.721,5.472,5.472,0,0,0,3.409.739"/><path class="cls-1" d="M15.222,12.609a31.427,31.427,0,0,0-3.854-1.589.717.717,0,0,1-.467-.666V9.045a.675.675,0,0,1,.217-.5A2.054,2.054,0,0,0,11.87,6.8V4.864A4.841,4.841,0,0,1,8.961,3.179,4.838,4.838,0,0,1,6.052,4.864V6.8A2.056,2.056,0,0,0,6.8,8.545a.676.676,0,0,1,.218.5v1.309a.716.716,0,0,1-.468.666c-2.659.985-4.613,1.686-5.119,2.7A6.9,6.9,0,0,0,.719,16.5h7"/></svg>