<svg id="Light" xmlns="http://www.w3.org/2000/svg" viewBox="0 0 24 24"><defs><style>.cls-1{fill:none;stroke:currentColor;stroke-linecap:round;stroke-linejoin:round;}</style></defs><title>single-woman-actions-time</title><path class="cls-1" d="M10.963,9.979a5.629,5.629,0,0,0,3.517-.764.5.5,0,0,0,.123-.75c-.418-.5-.707-1.156-.836-3.051C13.521,1.778,11.07.5,8.963.5s-4.558,1.278-4.8,4.914c-.129,1.9-.418,2.556-.836,3.051a.5.5,0,0,0,.123.75,5.637,5.637,0,0,0,3.517.764"/><path class="cls-1" d="M11.463,11.355a.755.755,0,0,1-.5-.693V9.312a.759.759,0,0,1,.258-.546A2.111,2.111,0,0,0,11.963,7V5a4.992,4.992,0,0,1-3-1.738A4.992,4.992,0,0,1,5.963,5V7a2.111,2.111,0,0,0,.743,1.766.76.76,0,0,1,.257.546v1.35a.755.755,0,0,1-.5.693C3.73,12.367,1.723,13.09,1.2,14.132A7.307,7.307,0,0,0,.5,16.5H8.994"/><circle class="cls-1" cx="17.5" cy="17.5" r="6"/><polyline class="cls-1" points="19.5 17.7 17.5 17.7 17.5 14.5"/></svg>