<svg id="Light" xmlns="http://www.w3.org/2000/svg" viewBox="0 0 24 24"><defs><style>.cls-1{fill:none;stroke:currentColor;stroke-linecap:round;stroke-linejoin:round;}</style></defs><title>single-woman-actions-cart</title><circle class="cls-1" cx="15.5" cy="22.5" r="1"/><circle class="cls-1" cx="19.5" cy="22.5" r="1"/><path class="cls-1" d="M23.5,10.5l-2.4,8.634a.5.5,0,0,1-.482.366H14.86a.5.5,0,0,1-.474-.342l-1.667-5a.5.5,0,0,1,.475-.658h9.473"/><path class="cls-1" d="M10.682,9.692a5.466,5.466,0,0,0,3.408-.739.484.484,0,0,0,.128-.721c-.408-.481-.692-1.119-.817-2.967C13.162,1.74,10.785.5,8.742.5S4.322,1.74,4.084,5.265c-.125,1.847-.409,2.486-.817,2.967a.484.484,0,0,0,.128.721A5.467,5.467,0,0,0,6.8,9.692"/><path class="cls-1" d="M12.518,11.53c-.43-.163-.888-.332-1.369-.51a.717.717,0,0,1-.467-.666V9.045a.673.673,0,0,1,.218-.5A2.056,2.056,0,0,0,11.652,6.8V4.864a4.843,4.843,0,0,1-2.91-1.685A4.838,4.838,0,0,1,5.833,4.864V6.8a2.056,2.056,0,0,0,.752,1.742.673.673,0,0,1,.218.5v1.309a.717.717,0,0,1-.467.666c-2.659.985-4.613,1.686-5.119,2.7A6.89,6.89,0,0,0,.5,16.5h11"/></svg>