<svg id="Light" xmlns="http://www.w3.org/2000/svg" viewBox="0 0 24 24"><defs><style>.cls-1{fill:none;stroke:currentColor;stroke-linecap:round;stroke-linejoin:round;}</style></defs><title>single-woman-actions-share-1</title><line class="cls-1" x1="0.5" y1="15.5" x2="0.5" y2="23.5"/><path class="cls-1" d="M15.5,22.5a3,3,0,0,0-3-3H8.75a3,3,0,0,0-3-3H.5v6Z"/><line class="cls-1" x1="5.75" y1="19.5" x2="9.5" y2="19.5"/><path class="cls-1" d="M17.2,9.692a5.471,5.471,0,0,0,3.409-.739.485.485,0,0,0,.127-.721c-.408-.481-.692-1.119-.817-2.967C19.678,1.74,17.3.5,15.258.5S10.838,1.74,10.6,5.265c-.125,1.847-.408,2.486-.817,2.967a.484.484,0,0,0,.128.721,5.467,5.467,0,0,0,3.408.739"/><path class="cls-1" d="M10,16.5H23.5a6.89,6.89,0,0,0-.717-2.781c-.506-1.013-2.46-1.714-5.119-2.7a.717.717,0,0,1-.467-.666V9.045a.673.673,0,0,1,.218-.5A2.056,2.056,0,0,0,18.167,6.8V4.864a4.838,4.838,0,0,1-2.909-1.685,4.843,4.843,0,0,1-2.91,1.685V6.8A2.056,2.056,0,0,0,13.1,8.545a.673.673,0,0,1,.218.5v1.309a.717.717,0,0,1-.467.666c-2.659.985-4.613,1.686-5.119,2.7A6.685,6.685,0,0,0,7.4,14.5"/></svg>