<svg id="Light" xmlns="http://www.w3.org/2000/svg" viewBox="0 0 24 24"><defs><style>.cls-1{fill:none;stroke:currentColor;stroke-linecap:round;stroke-linejoin:round;}</style></defs><title>single-woman-actions-add</title><circle class="cls-1" cx="17.5" cy="17.5" r="6"/><line class="cls-1" x1="17.5" y1="14.5" x2="17.5" y2="20.5"/><line class="cls-1" x1="20.5" y1="17.5" x2="14.5" y2="17.5"/><path class="cls-1" d="M10.963,9.979a5.631,5.631,0,0,0,3.515-.762.5.5,0,0,0,.132-.743c-.422-.5-.714-1.155-.843-3.06C13.521,1.779,11.07.5,8.963.5s-4.558,1.279-4.8,4.914c-.129,1.905-.421,2.563-.843,3.059a.5.5,0,0,0,.132.744,5.633,5.633,0,0,0,3.515.762"/><path class="cls-1" d="M11.463,11.355a.754.754,0,0,1-.5-.693V9.313a.756.756,0,0,1,.258-.546A2.113,2.113,0,0,0,11.963,7V5a4.991,4.991,0,0,1-3-1.737A4.991,4.991,0,0,1,5.963,5V7a2.113,2.113,0,0,0,.743,1.767.757.757,0,0,1,.257.546v1.349a.754.754,0,0,1-.5.693C3.73,12.367,1.723,13.09,1.2,14.132A7.307,7.307,0,0,0,.5,16.5h9"/></svg>