<svg id="Light" xmlns="http://www.w3.org/2000/svg" viewBox="0 0 24 24"><defs><style>.cls-1{fill:none;stroke:currentColor;stroke-linecap:round;stroke-linejoin:round;}</style></defs><title>single-woman-actions-sync</title><polyline class="cls-1" points="19 15.5 23.5 15.5 23.5 11"/><path class="cls-1" d="M23.158,15.5a6,6,0,1,0-.968,5.742"/><path class="cls-1" d="M10.682,9.691a5.452,5.452,0,0,0,3.408-.739.484.484,0,0,0,.128-.721c-.408-.481-.692-1.119-.817-2.966C13.162,1.739,10.785.5,8.742.5s-4.42,1.24-4.658,4.766c-.125,1.847-.409,2.485-.817,2.966a.484.484,0,0,0,.128.721A5.461,5.461,0,0,0,6.8,9.691"/><path class="cls-1" d="M12,11.333l-.847-.314a.715.715,0,0,1-.467-.665V9.045a.671.671,0,0,1,.218-.5A2.06,2.06,0,0,0,11.652,6.8V4.863a4.838,4.838,0,0,1-2.91-1.685A4.833,4.833,0,0,1,5.833,4.863V6.8a2.06,2.06,0,0,0,.752,1.743.671.671,0,0,1,.218.5v1.309a.715.715,0,0,1-.467.665c-2.659.985-4.613,1.686-5.119,2.7A6.894,6.894,0,0,0,.5,16.5h9"/></svg>