<svg id="Light" xmlns="http://www.w3.org/2000/svg" viewBox="0 0 24 24"><defs><style>.cls-1{fill:none;stroke:currentColor;stroke-linecap:round;stroke-linejoin:round;}</style></defs><title>single-woman-actions-key</title><path class="cls-1" d="M16.405,20.231a1.25,1.25,0,1,1,0-1.768A1.251,1.251,0,0,1,16.405,20.231Z"/><path class="cls-1" d="M19.048,17.942l4.305-4.295a.5.5,0,0,0,.147-.354V12a.5.5,0,0,0-.5-.5H21.7a.5.5,0,0,0-.344.137l-4.429,4.184a4,4,0,1,0,2.122,2.121Z"/><path class="cls-1" d="M10.682,9.692a5.466,5.466,0,0,0,3.408-.739.484.484,0,0,0,.128-.721c-.408-.481-.692-1.119-.817-2.967C13.162,1.74,10.785.5,8.742.5S4.322,1.74,4.084,5.265c-.125,1.847-.409,2.486-.817,2.967a.484.484,0,0,0,.128.721A5.467,5.467,0,0,0,6.8,9.692"/><path class="cls-1" d="M15.6,12.99a20.568,20.568,0,0,0-4.454-1.97.717.717,0,0,1-.467-.666V9.045a.673.673,0,0,1,.218-.5A2.056,2.056,0,0,0,11.652,6.8V4.864a4.843,4.843,0,0,1-2.91-1.685A4.838,4.838,0,0,1,5.833,4.864V6.8a2.056,2.056,0,0,0,.752,1.742.673.673,0,0,1,.218.5v1.309a.717.717,0,0,1-.467.666c-2.659.985-4.613,1.686-5.119,2.7A6.89,6.89,0,0,0,.5,16.5H10"/></svg>