<svg id="Light" xmlns="http://www.w3.org/2000/svg" viewBox="0 0 24 24"><defs><style>.cls-1{fill:none;stroke:currentColor;stroke-linecap:round;stroke-linejoin:round;}</style></defs><title>single-woman-actions-flash</title><path class="cls-1" d="M20.5,10.443a.25.25,0,0,0-.445-.156l-5.466,6.826a.375.375,0,0,0,.286.618H17.5v5.288a.25.25,0,0,0,.445.156l5.466-6.826a.376.376,0,0,0-.286-.618H20.5Z"/><path class="cls-1" d="M10.682,9.923a5.466,5.466,0,0,0,3.408-.739.484.484,0,0,0,.128-.721c-.408-.481-.692-1.119-.817-2.967C13.162,1.971,10.785.731,8.742.731S4.322,1.971,4.084,5.5c-.125,1.848-.409,2.486-.817,2.967a.484.484,0,0,0,.128.721A5.467,5.467,0,0,0,6.8,9.923"/><path class="cls-1" d="M14.489,12.577c-.881-.421-2.024-.839-3.34-1.326a.717.717,0,0,1-.467-.666V9.276a.671.671,0,0,1,.218-.5,2.06,2.06,0,0,0,.752-1.743V5.1A4.843,4.843,0,0,1,8.742,3.41,4.838,4.838,0,0,1,5.833,5.1V7.034a2.056,2.056,0,0,0,.752,1.742.675.675,0,0,1,.218.5v1.308a.717.717,0,0,1-.467.666c-2.659.985-4.613,1.686-5.119,2.7A6.894,6.894,0,0,0,.5,16.731h12"/></svg>