<?xml version="1.0" encoding="utf-8"?>
<!-- Generator: Adobe Illustrator 22.1.0, SVG Export Plug-In . SVG Version: 6.00 Build 0)  -->
<svg version="1.1" id="Layer_1" xmlns="http://www.w3.org/2000/svg" xmlns:xlink="http://www.w3.org/1999/xlink" x="0px" y="0px"
	 viewBox="0 0 24 24" style="enable-background:new 0 0 24 24;" xml:space="preserve">
<g>
	<title>modern-music-bass-guitar</title>
	<path d="M11.375,24c-0.206,0-0.408-0.039-0.601-0.116l-4.275-1.84l-4.263,1.835c-0.201,0.081-0.406,0.12-0.616,0.12
		c-0.242,0-0.485-0.055-0.702-0.16c-0.391-0.188-0.684-0.517-0.828-0.925s-0.119-0.849,0.069-1.24l4.839-10.782V6.5h-0.5
		c-0.276,0-0.5-0.224-0.5-0.5V5.5H3.085c-0.276,0-0.5-0.224-0.5-0.5s0.224-0.5,0.5-0.5h0.914v-1H3.085c-0.276,0-0.5-0.224-0.5-0.5
		s0.224-0.5,0.5-0.5h0.914c0-0.191,0.106-0.362,0.276-0.447l4-2C8.345,0.018,8.422,0,8.499,0c0.093,0,0.184,0.026,0.263,0.075
		C8.91,0.166,8.999,0.325,8.999,0.5v2h0.914c0.276,0,0.5,0.224,0.5,0.5s-0.224,0.5-0.5,0.5H8.999v1h0.914c0.276,0,0.5,0.224,0.5,0.5
		s-0.224,0.5-0.5,0.5H8.999V6c0,0.276-0.224,0.5-0.5,0.5h-0.5v4.393l4.845,10.795c0.192,0.399,0.207,0.872,0.039,1.293
		C12.635,23.6,12.043,24,11.375,24z M6.499,21c0.068,0,0.134,0.013,0.197,0.04l4.462,1.92c0.066,0.026,0.141,0.041,0.218,0.041
		c0.252,0,0.485-0.157,0.579-0.392c0.064-0.161,0.058-0.344-0.017-0.5l-3.938-8.774V18c0,0.552-0.449,1-1,1h-1c-0.551,0-1-0.448-1-1
		v-4.665l-3.933,8.762c-0.078,0.162-0.088,0.328-0.032,0.487c0.055,0.157,0.168,0.283,0.317,0.355C1.435,22.979,1.528,23,1.621,23
		c0.08,0,0.157-0.015,0.23-0.044l4.449-1.915C6.365,21.013,6.431,21,6.499,21z M5.499,5.5c0.276,0,0.5,0.224,0.5,0.5v12h1V6
		c0-0.276,0.224-0.5,0.5-0.5h0.5V1.309l-3,1.5V5.5H5.499z"/>
	<path d="M14.499,24c-0.276,0-0.5-0.224-0.5-0.5s0.224-0.5,0.5-0.5h7c0.827,0,1.5-0.673,1.5-1.5V11h-13c-0.276,0-0.5-0.224-0.5-0.5
		s0.224-0.5,0.5-0.5h13V9.5c0-0.827-0.673-1.5-1.5-1.5h-12c-0.276,0-0.5-0.224-0.5-0.5S9.223,7,9.499,7h3.5V6.5
		c0-0.276,0.224-0.5,0.5-0.5s0.5,0.224,0.5,0.5V7h2V6.5c0-0.276,0.224-0.5,0.5-0.5s0.5,0.224,0.5,0.5V7h1V6.5
		c0-0.276,0.224-0.5,0.5-0.5s0.5,0.224,0.5,0.5V7h2.5c1.378,0,2.5,1.121,2.5,2.5v12c0,1.378-1.122,2.5-2.5,2.5H14.499z"/>
	<path d="M16.508,22.003c-0.375,0-0.753-0.043-1.123-0.127c-0.41-0.093-0.808-0.239-1.182-0.432
		c-0.245-0.127-0.341-0.429-0.215-0.674c0.086-0.167,0.256-0.271,0.445-0.271c0.079,0,0.158,0.019,0.229,0.055
		c0.3,0.155,0.618,0.271,0.946,0.346c0.296,0.068,0.599,0.102,0.899,0.102c0.747,0,1.479-0.212,2.12-0.614
		c0.905-0.568,1.534-1.455,1.772-2.496c0.491-2.15-0.859-4.299-3.009-4.791c-0.293-0.067-0.594-0.101-0.892-0.101
		c-1.847,0-3.487,1.308-3.899,3.11c-0.051,0.225-0.255,0.389-0.486,0.389c-0.039,0-0.077-0.005-0.115-0.014
		c-0.266-0.061-0.435-0.329-0.374-0.598c0.515-2.252,2.564-3.887,4.874-3.887c0.373,0,0.748,0.042,1.115,0.126
		c2.688,0.614,4.375,3.3,3.761,5.988c-0.297,1.302-1.084,2.41-2.215,3.121C18.358,21.738,17.442,22.003,16.508,22.003z"/>
	<path d="M16.499,19c-1.103,0-2-0.897-2-2s0.897-2,2-2s2,0.897,2,2S17.602,19,16.499,19z M16.499,16c-0.552,0-1,0.448-1,1
		s0.448,1,1,1c0.552,0,1-0.448,1-1S17.05,16,16.499,16z"/>
</g>
</svg>
