<?xml version="1.0" encoding="utf-8"?>
<!-- Generator: Adobe Illustrator 22.1.0, SVG Export Plug-In . SVG Version: 6.00 Build 0)  -->
<svg version="1.1" id="Layer_1" xmlns="http://www.w3.org/2000/svg" xmlns:xlink="http://www.w3.org/1999/xlink" x="0px" y="0px"
	 viewBox="0 0 24 24" style="enable-background:new 0 0 24 24;" xml:space="preserve">
<g>
	<title>modern-music-dj-tape</title>
	<path d="M8.997,18.03c-4.963,0-9-4.037-9-9c0-4.963,4.037-9,9-9s9,4.037,9,9c0,0.276-0.224,0.5-0.5,0.5s-0.5-0.224-0.5-0.5
		c0-4.411-3.589-8-8-8c-4.411,0-8,3.589-8,8s3.589,8,8,8c0.276,0,0.5,0.224,0.5,0.5S9.273,18.03,8.997,18.03z"/>
	<path d="M8.997,11.03c-1.103,0-2-0.897-2-2s0.897-2,2-2s2,0.897,2,2S10.1,11.03,8.997,11.03z M8.997,8.03c-0.551,0-1,0.449-1,1
		s0.449,1,1,1s1-0.449,1-1S9.549,8.03,8.997,8.03z"/>
	<path d="M18.519,23.978c-0.285,0-0.572-0.031-0.852-0.094c-1.999-0.447-4.898-1.451-5.3-1.592c-0.326-0.068-0.61-0.254-0.803-0.527
		c-0.202-0.286-0.281-0.633-0.222-0.979c0.102-0.594,0.593-1.04,1.193-1.085c0.006,0,0.031-0.001,0.038-0.001
		c0.013,0,0.026,0,0.039,0.001l1.406,0.109l-3.826-3.825c-0.59-0.59-0.591-1.551-0.001-2.142c0.127-0.126,0.273-0.228,0.435-0.301
		c-0.256-0.28-0.396-0.64-0.396-1.022c0-0.405,0.158-0.786,0.444-1.072c0.286-0.286,0.667-0.444,1.073-0.444
		c0.391,0,0.758,0.146,1.04,0.413c0.078-0.17,0.187-0.323,0.323-0.453c0.284-0.27,0.656-0.419,1.046-0.419
		c0.39,0,0.761,0.148,1.044,0.417l0.438,0.438c0.073-0.159,0.173-0.303,0.298-0.428c0.285-0.286,0.666-0.443,1.071-0.443
		c0.405,0,0.785,0.157,1.071,0.443l2.87,2.87c0.009,0.009,0.018,0.02,0.027,0.032l1.883,1.883c1.513,1.513,1.513,3.975,0,5.488
		l-1.601,1.594C20.524,23.573,19.551,23.978,18.519,23.978z M12.583,20.702c-0.128,0.022-0.231,0.124-0.254,0.254
		c-0.014,0.082,0.005,0.164,0.053,0.232c0.048,0.067,0.119,0.113,0.201,0.127c0.028,0.005,0.054,0.011,0.08,0.021
		c0.033,0.012,3.164,1.112,5.222,1.572c0.208,0.046,0.42,0.07,0.632,0.07c0.767,0,1.489-0.3,2.035-0.845l1.601-1.594
		c1.123-1.123,1.123-2.95,0-4.073l-3.108-3.109c-0.009-0.009-0.018-0.02-0.026-0.031l-1.646-1.645
		c-0.097-0.097-0.226-0.15-0.364-0.15s-0.267,0.053-0.364,0.151c-0.097,0.097-0.15,0.226-0.15,0.364
		c0,0.136,0.053,0.264,0.149,0.361l2.153,2.154c0.195,0.195,0.195,0.512,0,0.707c-0.094,0.094-0.22,0.146-0.354,0.146
		s-0.259-0.052-0.354-0.146l-3.586-3.587c-0.089-0.085-0.213-0.134-0.344-0.134c-0.133,0-0.26,0.051-0.357,0.143
		c-0.201,0.191-0.211,0.514-0.024,0.719l1.911,1.911c0.007,0.007,0.015,0.016,0.022,0.025l0.934,0.934
		c0.094,0.094,0.146,0.22,0.146,0.354s-0.052,0.259-0.146,0.354s-0.22,0.146-0.354,0.146s-0.259-0.052-0.354-0.146l-2.869-2.869
		c-0.006-0.006-0.015-0.016-0.022-0.025l-0.934-0.934c-0.098-0.097-0.228-0.151-0.366-0.151c-0.138,0-0.268,0.054-0.365,0.151
		c-0.098,0.098-0.151,0.228-0.151,0.365s0.054,0.268,0.151,0.365l2.869,2.869c0.009,0.009,0.019,0.021,0.028,0.033l0.925,0.924
		c0.195,0.195,0.195,0.512,0,0.707c-0.094,0.094-0.22,0.146-0.354,0.146s-0.259-0.052-0.354-0.146l-2.869-2.869
		c-0.097-0.097-0.226-0.15-0.364-0.15s-0.267,0.053-0.364,0.151c-0.097,0.097-0.15,0.226-0.15,0.364c0,0.138,0.053,0.267,0.15,0.364
		l4.782,4.781c0.147,0.147,0.188,0.373,0.101,0.562c-0.083,0.179-0.256,0.291-0.453,0.291c-0.006,0-0.033-0.001-0.04-0.001
		L12.583,20.702z"/>
	<path d="M3.497,9.53c-0.276,0-0.5-0.224-0.5-0.5c0-3.308,2.692-6,6-6c0.276,0,0.5,0.224,0.5,0.5s-0.224,0.5-0.5,0.5
		c-2.757,0-5,2.243-5,5C3.997,9.305,3.773,9.53,3.497,9.53z"/>
</g>
</svg>
