<?xml version="1.0" encoding="utf-8"?>
<!-- Generator: Adobe Illustrator 22.1.0, SVG Export Plug-In . SVG Version: 6.00 Build 0)  -->
<svg version="1.1" id="Layer_1" xmlns="http://www.w3.org/2000/svg" xmlns:xlink="http://www.w3.org/1999/xlink" x="0px" y="0px"
	 viewBox="0 0 24 24" style="enable-background:new 0 0 24 24;" xml:space="preserve">
<g>
	<title>modern-music-cymbal</title>
	<path d="M3.837,9c-0.42,0-0.797-0.265-0.94-0.659C2.806,8.09,2.818,7.819,2.931,7.577C3.044,7.335,3.245,7.151,3.496,7.06l2.75-1
		c1.221-1.011,2.687-1.678,4.254-1.938V3c0-0.551,0.449-1,1-1V0.5c0-0.276,0.224-0.5,0.5-0.5c0.276,0,0.5,0.224,0.5,0.5V2
		c0.552,0,1,0.449,1,1v1.13c1.563,0.265,3.028,0.929,4.252,1.93l2.752,1c0.394,0.143,0.659,0.521,0.658,0.941
		c0,0.267-0.104,0.518-0.293,0.707C20.679,8.896,20.428,9,20.162,9H3.837z M11.967,5c-1.885,0.001-3.71,0.669-5.145,1.882
		C6.777,6.92,6.726,6.949,6.67,6.97L3.837,8h16.324l-2.833-1.03c-0.055-0.02-0.105-0.049-0.149-0.086C15.722,5.669,13.876,5,11.98,5
		L11.967,5z M11.98,4c0.172,0,0.346,0.005,0.519,0.015V3h-1v1.013C11.657,4.004,11.812,4,11.963,4H11.98z"/>
	<path d="M12.999,24c-0.276,0-0.5-0.224-0.5-0.5v-8.515C12.326,14.995,12.153,15,11.98,15c-0.162,0-0.321-0.004-0.48-0.013V23.5
		c0,0.276-0.224,0.5-0.5,0.5s-0.5-0.224-0.5-0.5v-8.622c-1.567-0.26-3.032-0.927-4.253-1.938l-2.75-1
		c-0.251-0.091-0.451-0.275-0.564-0.517c-0.113-0.242-0.125-0.513-0.034-0.765C3.04,10.265,3.418,10,3.837,10h16.324
		c0.267,0,0.518,0.104,0.707,0.292c0.189,0.189,0.293,0.44,0.293,0.707c0,0.42-0.264,0.797-0.659,0.94l-2.751,1
		c-1.224,1.001-2.689,1.665-4.252,1.93v8.63C13.499,23.776,13.275,24,12.999,24z M6.67,12.03c0.055,0.02,0.107,0.05,0.152,0.088
		C8.258,13.332,10.083,14,11.963,14c1.913,0,3.76-0.669,5.216-1.884c0.045-0.037,0.095-0.066,0.15-0.086L20.161,11H3.837
		C3.837,11,6.67,12.03,6.67,12.03z"/>
</g>
</svg>
