<?xml version="1.0" encoding="utf-8"?>
<!-- Generator: Adobe Illustrator 22.1.0, SVG Export Plug-In . SVG Version: 6.00 Build 0)  -->
<svg version="1.1" id="Layer_1" xmlns="http://www.w3.org/2000/svg" xmlns:xlink="http://www.w3.org/1999/xlink" x="0px" y="0px"
	 viewBox="0 0 24 24" style="enable-background:new 0 0 24 24;" xml:space="preserve">
<title>video-edit-cc</title>
<g>
	<path d="M13.406,24c-1.189,0-2.156-0.967-2.156-2.156v-8.438c0-1.189,0.967-2.156,2.156-2.156h8.438
		c1.189,0,2.156,0.967,2.156,2.156v8.438C24,23.033,23.033,24,21.844,24H13.406z M13.406,12.75c-0.362,0-0.656,0.294-0.656,0.656
		v8.438c0,0.362,0.294,0.656,0.656,0.656h8.438c0.362,0,0.656-0.294,0.656-0.656v-8.438c0-0.362-0.294-0.656-0.656-0.656H13.406z"/>
	<path d="M16.365,20.255c-1.276,0-2.369-0.995-2.487-2.266c-0.002-0.02-0.003-0.045-0.003-0.069v-0.791
		c0-0.025,0.001-0.05,0.004-0.074c0.117-1.266,1.209-2.261,2.483-2.261c0.065,0,0.131,0.002,0.197,0.008
		c0.199,0.015,0.381,0.108,0.511,0.26c0.13,0.152,0.193,0.346,0.178,0.546c-0.03,0.388-0.356,0.692-0.743,0.692
		c-0.023,0-0.046-0.001-0.069-0.003c-0.019-0.001-0.044-0.002-0.069-0.002c-0.499,0-0.931,0.383-0.992,0.875v0.711
		c0.061,0.492,0.494,0.875,0.994,0.875c0.024,0,0.049-0.001,0.074-0.003c0.016-0.001,0.038-0.002,0.06-0.002
		c0.387,0,0.714,0.304,0.744,0.692c0.016,0.199-0.048,0.394-0.178,0.546c-0.13,0.152-0.312,0.245-0.512,0.26
		C16.494,20.253,16.429,20.255,16.365,20.255z"/>
	<path d="M20.115,20.255c-1.276,0-2.369-0.995-2.487-2.266c-0.002-0.02-0.003-0.045-0.003-0.069v-0.791
		c0-0.025,0.001-0.05,0.004-0.074c0.117-1.266,1.209-2.261,2.484-2.261c0.065,0,0.131,0.002,0.197,0.008
		c0.199,0.015,0.381,0.108,0.511,0.26c0.13,0.152,0.193,0.346,0.178,0.546c-0.03,0.388-0.356,0.692-0.743,0.692
		c-0.023,0-0.046-0.001-0.068-0.003c-0.019-0.001-0.044-0.002-0.069-0.002c-0.499,0-0.931,0.383-0.992,0.875v0.711
		c0.061,0.492,0.494,0.875,0.994,0.875c0.025,0,0.049-0.001,0.074-0.003c0.016-0.001,0.038-0.002,0.061-0.002
		c0.387,0,0.714,0.304,0.744,0.692c0.016,0.199-0.048,0.394-0.178,0.546c-0.13,0.152-0.312,0.245-0.512,0.26
		C20.244,20.253,20.179,20.255,20.115,20.255z"/>
	<path d="M2.25,24C1.009,24,0,22.991,0,21.75V2.25C0,1.009,1.009,0,2.25,0h15c1.241,0,2.25,1.009,2.25,2.25v6
		C19.5,8.664,19.164,9,18.75,9S18,8.664,18,8.25V6h-3v2.25C15,8.664,14.664,9,14.25,9S13.5,8.664,13.5,8.25V1.5H6V9h3.75
		c0.414,0,0.75,0.336,0.75,0.75s-0.336,0.75-0.75,0.75H1.5v3H9c0.414,0,0.75,0.336,0.75,0.75S9.414,15,9,15H6v7.5h3
		c0.414,0,0.75,0.336,0.75,0.75S9.414,24,9,24H2.25z M1.5,21.75c0,0.414,0.336,0.75,0.75,0.75H4.5v-3h-3V21.75z M4.5,18v-3h-3v3H4.5
		z M4.5,9V6h-3v3H4.5z M18,4.5V2.25c0-0.414-0.336-0.75-0.75-0.75H15v3H18z M4.5,4.5v-3H2.25C1.836,1.5,1.5,1.836,1.5,2.25V4.5H4.5z
		"/>
</g>
</svg>
