<?xml version="1.0" encoding="utf-8"?>
<!-- Generator: Adobe Illustrator 22.1.0, SVG Export Plug-In . SVG Version: 6.00 Build 0)  -->
<svg version="1.1" id="Layer_1" xmlns="http://www.w3.org/2000/svg" xmlns:xlink="http://www.w3.org/1999/xlink" x="0px" y="0px"
	 viewBox="0 0 24 24" style="enable-background:new 0 0 24 24;" xml:space="preserve">
<title>video-edit-cut</title>
<g>
	<path d="M3.013,19.446c-1.654,0-3-1.346-3-3c0-1.274,0.804-2.405,2.006-2.828l2.143-1.27l-2.143-1.27
		C0.817,10.655,0.013,9.523,0.013,8.25c0-1.654,1.346-3,3-3s3,1.346,3,3c0,1.073-0.579,2.048-1.473,2.579l1.093,0.648l0.642-0.381
		c0.116-0.069,0.248-0.105,0.382-0.105c0.264,0,0.511,0.141,0.646,0.367c0.102,0.173,0.131,0.374,0.081,0.568
		C7.34,12.097,7.24,12.244,7.1,12.346l7.214,4.276c0.172,0.102,0.295,0.265,0.344,0.459c0.05,0.194,0.021,0.396-0.082,0.569
		c-0.134,0.226-0.381,0.367-0.645,0.367c-0.134,0-0.267-0.036-0.382-0.105L5.632,13.22L4.54,13.867
		c0.894,0.531,1.473,1.506,1.473,2.579C6.013,18.1,4.667,19.446,3.013,19.446z M3.013,14.946c-0.827,0-1.5,0.673-1.5,1.5
		s0.673,1.5,1.5,1.5s1.5-0.673,1.5-1.5S3.84,14.946,3.013,14.946z M3.013,6.75c-0.827,0-1.5,0.673-1.5,1.5s0.673,1.5,1.5,1.5
		s1.5-0.673,1.5-1.5S3.84,6.75,3.013,6.75z"/>
	<path d="M11.237,24c-1.241,0-2.25-1.009-2.25-2.25V18c0-0.414,0.336-0.75,0.75-0.75s0.75,0.336,0.75,0.75v3.75
		c0,0.414,0.336,0.75,0.75,0.75h2.25v-2.25c0-0.414,0.336-0.75,0.75-0.75s0.75,0.336,0.75,0.75v2.25h7.5V15h-6.75
		c-0.414,0-0.75-0.336-0.75-0.75s0.336-0.75,0.75-0.75h6.75v-3h-12V12c0,0.414-0.336,0.75-0.75,0.75s-0.75-0.336-0.75-0.75V2.25
		c0-1.241,1.009-2.25,2.25-2.25h12c0.414,0,0.75,0.336,0.75,0.75v22.5c0,0.414-0.336,0.75-0.75,0.75H11.237z M22.487,9V1.5h-7.5V9
		H22.487z M13.487,9V6h-3v3H13.487z M13.487,4.5v-3h-2.25c-0.414,0-0.75,0.336-0.75,0.75V4.5H13.487z"/>
</g>
</svg>
