<?xml version="1.0" encoding="utf-8"?>
<!-- Generator: Adobe Illustrator 22.1.0, SVG Export Plug-In . SVG Version: 6.00 Build 0)  -->
<svg version="1.1" id="Layer_1" xmlns="http://www.w3.org/2000/svg" xmlns:xlink="http://www.w3.org/1999/xlink" x="0px" y="0px"
	 viewBox="0 0 24 24" style="enable-background:new 0 0 24 24;" xml:space="preserve">
<title>video-edit-camera-archive</title>
<g>
	<path d="M13.75,24C12.785,24,12,23.215,12,22.25V13c0-0.965,0.785-1.75,1.75-1.75h8.5c0.965,0,1.75,0.785,1.75,1.75v9.25
		c0,0.965-0.785,1.75-1.75,1.75H13.75z M13.75,12.75c-0.138,0-0.25,0.112-0.25,0.25v9.25c0,0.138,0.112,0.25,0.25,0.25h8.5
		c0.138,0,0.25-0.112,0.25-0.25V13c0-0.138-0.112-0.25-0.25-0.25H18v1.5h0.75c0.414,0,0.75,0.336,0.75,0.75s-0.336,0.75-0.75,0.75
		H18v1.5h0.75c0.414,0,0.75,0.336,0.75,0.75s-0.336,0.75-0.75,0.75H18v0.75c0,0.414-0.336,0.75-0.75,0.75s-0.75-0.336-0.75-0.75
		v-0.75h-0.75C15.336,18.75,15,18.414,15,18s0.336-0.75,0.75-0.75h0.75v-1.5h-0.75C15.336,15.75,15,15.414,15,15
		s0.336-0.75,0.75-0.75h0.75v-1.5H13.75z"/>
	<circle cx="3.75" cy="6" r="1.125"/>
	<path d="M2.25,15C1.009,15,0,13.991,0,12.75V4.5c0-1.241,1.009-2.25,2.25-2.25h2.459l0.237-0.711C5.253,0.618,6.111,0,7.081,0
		h3.838c0.97,0,1.828,0.619,2.135,1.539l0.237,0.711h2.459C16.991,2.25,18,3.259,18,4.5V9c0,0.414-0.336,0.75-0.75,0.75
		S16.5,9.414,16.5,9V4.5c0-0.414-0.336-0.75-0.75-0.75h-3c-0.323,0-0.609-0.206-0.712-0.513l-0.408-1.224
		C11.528,1.706,11.242,1.5,10.919,1.5H7.081c-0.323,0-0.609,0.206-0.711,0.513L5.961,3.237C5.859,3.544,5.573,3.75,5.25,3.75h-3
		C1.836,3.75,1.5,4.086,1.5,4.5v8.25c0,0.414,0.336,0.75,0.75,0.75h7.5c0.414,0,0.75,0.336,0.75,0.75S10.164,15,9.75,15H2.25z"/>
	<path d="M9,12c-2.068,0-3.75-1.682-3.75-3.75S6.932,4.5,9,4.5s3.75,1.682,3.75,3.75S11.068,12,9,12z M9,6
		C7.759,6,6.75,7.009,6.75,8.25S7.759,10.5,9,10.5s2.25-1.009,2.25-2.25S10.241,6,9,6z"/>
</g>
</svg>
