<?xml version="1.0" encoding="utf-8"?>
<!-- Generator: Adobe Illustrator 22.1.0, SVG Export Plug-In . SVG Version: 6.00 Build 0)  -->
<svg version="1.1" id="Layer_1" xmlns="http://www.w3.org/2000/svg" xmlns:xlink="http://www.w3.org/1999/xlink" x="0px" y="0px"
	 viewBox="0 0 24 24" style="enable-background:new 0 0 24 24;" xml:space="preserve">
<title>video-edit-brightness</title>
<g>
	<path d="M15.719,20.661c-4.549,0-8.25-3.701-8.25-8.25c0-4.549,3.701-8.25,8.25-8.25c4.549,0,8.25,3.701,8.25,8.25
		C23.969,16.96,20.269,20.661,15.719,20.661z M15.719,5.661c-3.722,0-6.75,3.028-6.75,6.75s3.028,6.75,6.75,6.75
		s6.75-3.028,6.75-6.75S19.441,5.661,15.719,5.661z"/>
	<path d="M7.27,20.612c-0.195,0-0.38-0.074-0.52-0.21c-4.617-4.441-4.76-11.81-0.319-16.427c0.134-0.14,0.272-0.276,0.413-0.408
		c0.14-0.132,0.322-0.204,0.514-0.204c0.206,0,0.405,0.086,0.546,0.237c0.137,0.145,0.209,0.336,0.203,0.536
		c-0.006,0.2-0.09,0.386-0.236,0.523C7.749,4.775,7.63,4.893,7.513,5.015C3.645,9.036,3.77,15.453,7.791,19.321
		c0.298,0.287,0.307,0.762,0.021,1.06C7.67,20.528,7.473,20.612,7.27,20.612z"/>
	<path d="M3.111,20.583c-0.25,0-0.482-0.123-0.622-0.33c-3.418-5.06-3.38-11.572,0.097-16.591c0.14-0.202,0.371-0.323,0.617-0.323
		c0.153,0,0.301,0.046,0.427,0.134C3.794,3.586,3.905,3.758,3.94,3.955S3.933,4.351,3.819,4.516
		C0.697,9.022,0.663,14.87,3.732,19.413c0.231,0.343,0.141,0.81-0.202,1.042C3.406,20.538,3.261,20.583,3.111,20.583z"/>
</g>
</svg>
