<svg xmlns="http://www.w3.org/2000/svg" viewBox="0 0 24 24"><title>phone-selfie-front</title><path d="M23.78,17.927a.75.75,0,0,0,0-1.061l-.293-.293A1.653,1.653,0,0,1,23,15.4v-2a3.14,3.14,0,0,0-.927-2.237l-1.5-1.5a.249.249,0,0,1-.073-.177V4a3,3,0,0,0-3-3h-9a3,3,0,0,0-3,3V21a3,3,0,0,0,3,3h9a2.992,2.992,0,0,0,2.225-.99A.25.25,0,0,1,20.087,23l.779.779a.75.75,0,0,0,1.061-1.06l-1.793-1.793A2.18,2.18,0,0,1,19.5,19.4v-1.88a.747.747,0,0,0-.22-.531l-2.217-2.214a.75.75,0,0,1,1.061-1.061l1.406,1.406a.75.75,0,0,0,1.061-1.06l-.018-.018a.249.249,0,0,1-.073-.177v-1.55a.25.25,0,0,1,.427-.177l.086.086A1.653,1.653,0,0,1,21.5,13.4v2a3.141,3.141,0,0,0,.927,2.238C22.8,18.006,23.257,18.45,23.78,17.927ZM17.5,22h-9a1,1,0,0,1-1-1V19.25A.25.25,0,0,1,7.75,19h10a.25.25,0,0,1,.25.25V19.4a3.672,3.672,0,0,0,.433,1.723.251.251,0,0,1,.016.2A1,1,0,0,1,17.5,22ZM16,12.65a2.236,2.236,0,0,0-.649,1.4.251.251,0,0,1-.336.214l-.236-.087c-.565-.21-.472-1.685-.222-1.96a4.173,4.173,0,0,0,1.085-3.233A2.725,2.725,0,0,0,13,6a2.725,2.725,0,0,0-2.645,2.985,4.173,4.173,0,0,0,1.085,3.233c.25.275.343,1.75-.222,1.96a23.682,23.682,0,0,0-3.341,1.38.25.25,0,0,1-.377-.215V4a1,1,0,0,1,1-1h9a1,1,0,0,1,1,1v7.83a.249.249,0,0,1-.1.2.252.252,0,0,1-.217.043A2.253,2.253,0,0,0,16,12.65Z"/><path d="M4.571,2.005l-.265-.038A1.507,1.507,0,0,1,3.033.694L3,.429a.5.5,0,0,0-.99,0L1.967.694A1.507,1.507,0,0,1,.693,1.967l-.264.038a.5.5,0,0,0,0,.99l.265.038A1.507,1.507,0,0,1,1.967,4.306l.038.265a.5.5,0,0,0,.99,0l.038-.265A1.507,1.507,0,0,1,4.307,3.033L4.571,3a.5.5,0,0,0,0-.99Z"/></svg>