<svg xmlns="http://www.w3.org/2000/svg" viewBox="0 0 24 24"><title>phone-selfie-shoot</title><path d="M17,3a1,1,0,0,0,0,2,1,1,0,0,1,1,1V21a1,1,0,0,1-1,1H7a1,1,0,0,1-1-1V6A1,1,0,0,1,7,5,1,1,0,0,0,7,3,3,3,0,0,0,4,6V21a3,3,0,0,0,3,3H17a3,3,0,0,0,3-3V6A3,3,0,0,0,17,3Z"/><path d="M10,20.5h4A.75.75,0,0,0,14,19H10a.75.75,0,0,0,0,1.5Z"/><path d="M9.172,3.732a.75.75,0,0,0,1.06-1.06L9.172,1.611A.75.75,0,0,0,8.111,2.672Z"/><path d="M14.828,3.732l1.061-1.06a.75.75,0,0,0-1.061-1.061l-1.06,1.061a.75.75,0,0,0,1.06,1.06Z"/><path d="M12,3a.75.75,0,0,0,.75-.75V.75a.75.75,0,0,0-1.5,0v1.5A.75.75,0,0,0,12,3Z"/><circle cx="12" cy="5.5" r="1.5"/></svg>