<?xml version="1.0" encoding="utf-8"?>
<!-- Generator: Adobe Illustrator 22.1.0, SVG Export Plug-In . SVG Version: 6.00 Build 0)  -->
<svg version="1.1" id="Layer_1" xmlns="http://www.w3.org/2000/svg" xmlns:xlink="http://www.w3.org/1999/xlink" x="0px" y="0px"
	 viewBox="0 0 24 24" style="enable-background:new 0 0 24 24;" xml:space="preserve">
<g>
	<title>bluetooth</title>
	<path d="M12.676,23.535c-0.1,0-0.196-0.019-0.287-0.056c-0.194-0.081-0.517-0.313-0.517-0.965v-9.309l-6.187,5.681
		c-0.092,0.085-0.212,0.132-0.338,0.132c-0.14,0-0.274-0.059-0.368-0.162c-0.09-0.099-0.137-0.226-0.131-0.36
		c0.006-0.133,0.063-0.257,0.161-0.347l6.686-6.14L5.034,5.886C4.831,5.7,4.818,5.383,5.004,5.18
		c0.095-0.103,0.229-0.162,0.369-0.162c0.126,0,0.246,0.047,0.338,0.132l6.162,5.664v-9.3c0-0.672,0.36-0.896,0.515-0.961
		c0.092-0.038,0.189-0.057,0.29-0.057c0.257,0,0.511,0.121,0.755,0.361l4.634,4.594C18.34,5.719,18.495,6.08,18.5,6.466
		s-0.141,0.752-0.411,1.028c-0.021,0.022-0.043,0.043-0.066,0.064l-4.849,4.452l4.854,4.462c0.285,0.259,0.452,0.615,0.471,1.001
		c0.018,0.387-0.115,0.758-0.375,1.044c-0.02,0.021-0.039,0.041-0.059,0.061l-4.631,4.591
		C13.189,23.412,12.934,23.535,12.676,23.535z M12.872,22.318l4.52-4.483c0.072-0.079,0.113-0.194,0.107-0.313
		c-0.006-0.12-0.058-0.23-0.146-0.311l-4.481-4.119V22.318z M12.872,10.929l4.499-4.132c0.084-0.087,0.129-0.199,0.128-0.319
		c-0.001-0.12-0.049-0.231-0.134-0.314L12.872,1.71V10.929z"/>
</g>
</svg>
