<svg xmlns="http://www.w3.org/2000/svg" viewBox="0 0 24 24"><defs><style>.a{fill:none;stroke:currentColor;stroke-linecap:round;stroke-linejoin:round;stroke-width:1.5px;}</style></defs><title>laptop-bug</title><path class="a" d="M20.25,18.75a3,3,0,0,1-6,0v-1.5a3,3,0,0,1,6,0Z"/><line class="a" x1="14.25" y1="17.25" x2="20.25" y2="17.25"/><line class="a" x1="14.515" y1="16.015" x2="12" y2="13.5"/><line class="a" x1="15.129" y1="20.871" x2="12.75" y2="23.25"/><line class="a" x1="14.25" y1="18.75" x2="11.25" y2="18.75"/><line class="a" x1="19.985" y1="16.015" x2="22.5" y2="13.5"/><line class="a" x1="19.371" y1="20.871" x2="21.75" y2="23.25"/><line class="a" x1="20.25" y1="18.75" x2="23.25" y2="18.75"/><path class="a" d="M3,12V2.25A1.5,1.5,0,0,1,4.5.75h15A1.5,1.5,0,0,1,21,2.25v7.5"/><path class="a" d="M9.75,12h-9A3.75,3.75,0,0,0,4.5,15.75H8.25"/></svg>