<?xml version="1.0" encoding="utf-8"?>
<!-- Generator: Adobe Illustrator 22.1.0, SVG Export Plug-In . SVG Version: 6.00 Build 0)  -->
<svg version="1.1" id="Layer_1" xmlns="http://www.w3.org/2000/svg" xmlns:xlink="http://www.w3.org/1999/xlink" x="0px" y="0px"
	 viewBox="0 0 24 24" style="enable-background:new 0 0 24 24;" xml:space="preserve">
<g>
	<title>vintage-tv-3</title>
	<path d="M4.118,23c-0.572,0-1.086-0.318-1.341-0.829L2.191,21H1.5C0.673,21,0,20.327,0,19.5v-17C0,1.673,0.673,1,1.5,1h21
		C23.327,1,24,1.673,24,2.5v17c0,0.827-0.673,1.5-1.5,1.5h-0.691l-0.586,1.171C20.968,22.682,20.454,23,19.883,23
		C19.882,23,4.118,23,4.118,23z M1.5,2C1.224,2,1,2.224,1,2.5v17C1,19.776,1.224,20,1.5,20h1c0.191,0,0.362,0.106,0.447,0.276
		l0.724,1.447C3.756,21.894,3.928,22,4.118,22h15.764c0.19,0,0.361-0.106,0.447-0.277l0.724-1.447C21.138,20.106,21.31,20,21.5,20h1
		c0.276,0,0.5-0.224,0.5-0.5v-17C23,2.224,22.776,2,22.5,2H1.5z"/>
	<path d="M4.5,21C4.224,21,4,20.776,4,20.5S4.224,20,4.5,20h3C7.776,20,8,20.224,8,20.5S7.776,21,7.5,21H4.5z"/>
	<path d="M18.5,21c-0.276,0-0.5-0.224-0.5-0.5s0.224-0.5,0.5-0.5h1c0.276,0,0.5,0.224,0.5,0.5S19.776,21,19.5,21H18.5z"/>
	<path d="M15.5,21c-0.276,0-0.5-0.224-0.5-0.5s0.224-0.5,0.5-0.5h1c0.276,0,0.5,0.224,0.5,0.5S16.776,21,16.5,21H15.5z"/>
	<path d="M10.483,18.018c-2.539,0-5.102-0.149-7.618-0.444C2.36,17.496,2,17.08,2,16.583V4.417c0-0.496,0.356-0.912,0.846-0.988
		c2.531-0.297,5.101-0.446,7.648-0.446c0.505,0,1.015,0.006,1.518,0.018c0.491-0.012,1.003-0.018,1.508-0.018
		c2.539,0,5.101,0.149,7.615,0.444C21.64,3.505,22,3.921,22,4.417v12.166c0,0.496-0.356,0.912-0.846,0.988
		c-2.53,0.297-5.1,0.447-7.649,0.447c-0.504,0-1.014-0.006-1.516-0.018C11.498,18.012,10.987,18.018,10.483,18.018z M12,17
		c0.499,0.012,1.006,0.018,1.507,0.018c2.508,0,5.035-0.147,7.512-0.438L21,4.417c-2.462-0.288-4.985-0.435-7.491-0.435
		c-0.498,0-1.001,0.006-1.497,0.017c-0.51-0.012-1.016-0.017-1.516-0.017c-2.509,0-5.037,0.147-7.515,0.437L3,16.583
		c2.463,0.288,4.988,0.434,7.497,0.434c0.496,0,0.998-0.006,1.492-0.017c0.002,0,0.004,0,0.006,0S11.998,17,12,17z"/>
</g>
</svg>
