<svg id="Bold" xmlns="http://www.w3.org/2000/svg" viewBox="0 0 24 24"><title>single-woman-actions-star</title><path d="M9.661,15.189a2.724,2.724,0,0,1,1.606-1.526.5.5,0,0,0,.114-.887A7.406,7.406,0,0,0,7.25,11.5,7.543,7.543,0,0,0,.065,16.856a.5.5,0,0,0,.479.642H9.058a.5.5,0,0,0,.486-.622A2.689,2.689,0,0,1,9.661,15.189Z"/><path d="M22.7,15H20.2a.252.252,0,0,1-.23-.151l-1.344-3.117L18.61,11.7a1.294,1.294,0,0,0-2.318.027l-1.346,3.117a.251.251,0,0,1-.229.151h-2.5a1.23,1.23,0,0,0-1.166.759,1.271,1.271,0,0,0,.319,1.4l2.194,1.954a.251.251,0,0,1,.063.287L12.4,22.21a1.255,1.255,0,0,0,.315,1.451,1.288,1.288,0,0,0,1.506.166l3.112-1.752a.249.249,0,0,1,.245,0l3.113,1.752a1.284,1.284,0,0,0,1.506-.166,1.254,1.254,0,0,0,.315-1.45L21.29,19.4a.252.252,0,0,1,.063-.287l2.213-1.971a1.264,1.264,0,0,0,.3-1.378A1.234,1.234,0,0,0,22.7,15Z"/><path d="M1.57,10.442a1,1,0,0,0,1.382-.3,5.166,5.166,0,0,0,.455-.9.249.249,0,0,1,.411-.082,4.728,4.728,0,0,0,6.787,0,.249.249,0,0,1,.411.082,5.233,5.233,0,0,0,.454.9A1,1,0,0,0,13.151,9.06a4.561,4.561,0,0,1-.643-2.511h0V5.3a5.3,5.3,0,1,0-10.594,0V6.548A4.573,4.573,0,0,1,1.272,9.06,1,1,0,0,0,1.57,10.442ZM7.211,8.6A2.706,2.706,0,0,1,4.47,6.248a.5.5,0,0,1,.324-.577A5.708,5.708,0,0,0,7.04,4.232a.249.249,0,0,1,.36,0A5.719,5.719,0,0,0,9.63,5.669a.5.5,0,0,1,.323.576A2.707,2.707,0,0,1,7.211,8.6Z"/></svg>