<svg id="Bold" xmlns="http://www.w3.org/2000/svg" viewBox="0 0 24 24"><title>single-woman-actions-edit-2</title><path d="M13.5,15.63a.5.5,0,0,0,.068-.622A7.528,7.528,0,0,0,7.25,11.5,7.542,7.542,0,0,0,.065,16.858a.5.5,0,0,0,.479.642H11.422a.5.5,0,0,0,.353-.146Z"/><path d="M23.184,11.765a2.618,2.618,0,0,0-3.7,0l-6.5,6.5a.5.5,0,0,0,0,.707l3,3a.5.5,0,0,0,.707,0l6.5-6.5A2.621,2.621,0,0,0,23.184,11.765Z"/><path d="M12.349,20.461a.5.5,0,0,0-.844.256L10.968,23.4a.5.5,0,0,0,.49.6c.066,0-.16.043,2.783-.547a.5.5,0,0,0,.256-.843Z"/><path d="M1.569,10.442a1,1,0,0,0,1.383-.3,5.233,5.233,0,0,0,.454-.9.249.249,0,0,1,.411-.082,4.728,4.728,0,0,0,6.787,0,.249.249,0,0,1,.411.082,5.233,5.233,0,0,0,.454.9A1,1,0,0,0,13.15,9.06a4.578,4.578,0,0,1-.643-2.511h0V5.3a5.3,5.3,0,1,0-10.594,0V6.548A4.573,4.573,0,0,1,1.271,9.06,1,1,0,0,0,1.569,10.442ZM7.211,8.6A2.7,2.7,0,0,1,4.47,6.248a.5.5,0,0,1,.324-.577A5.711,5.711,0,0,0,7.039,4.232a.25.25,0,0,1,.361,0A5.7,5.7,0,0,0,9.63,5.669a.5.5,0,0,1,.323.576A2.708,2.708,0,0,1,7.211,8.6Z"/></svg>