<svg id="Bold" xmlns="http://www.w3.org/2000/svg" viewBox="0 0 24 24"><title>single-woman-actions-sync</title><path d="M23.691,11.624a.5.5,0,0,0-.545.108l-1.341,1.341a.249.249,0,0,1-.346.007,6.244,6.244,0,1,0,.671,8.506,1,1,0,1,0-1.562-1.249,4.247,4.247,0,1,1-3.321-6.895,4.172,4.172,0,0,1,2.76,1.052.25.25,0,0,1,.012.365l-1.33,1.33a.5.5,0,0,0,.354.853H23.5a.5.5,0,0,0,.5-.5V12.085A.5.5,0,0,0,23.691,11.624Z"/><path d="M10.654,12.439a7.368,7.368,0,0,0-3.448-.875A7.543,7.543,0,0,0,.021,16.921a.5.5,0,0,0,.479.643H9.015a.5.5,0,0,0,.5-.47,7.93,7.93,0,0,1,1.322-3.935.5.5,0,0,0-.182-.72Z"/><path d="M1.57,10.442a1,1,0,0,0,1.382-.3,5.166,5.166,0,0,0,.455-.9.249.249,0,0,1,.411-.082,4.728,4.728,0,0,0,6.787,0,.249.249,0,0,1,.411.082,5.233,5.233,0,0,0,.454.9A1,1,0,0,0,13.151,9.06a4.561,4.561,0,0,1-.643-2.511h0V5.3a5.3,5.3,0,1,0-10.594,0V6.548A4.573,4.573,0,0,1,1.272,9.06,1,1,0,0,0,1.57,10.442ZM7.211,8.6A2.706,2.706,0,0,1,4.47,6.248a.5.5,0,0,1,.324-.577A5.708,5.708,0,0,0,7.04,4.232a.249.249,0,0,1,.36,0A5.719,5.719,0,0,0,9.63,5.669a.5.5,0,0,1,.323.576A2.707,2.707,0,0,1,7.211,8.6Z"/></svg>