<svg id="Bold" xmlns="http://www.w3.org/2000/svg" viewBox="0 0 24 24"><title>single-woman-actions-image</title><path d="M9,12.144a.5.5,0,0,0-.4-.489,6.816,6.816,0,0,0-1.4-.155A7.543,7.543,0,0,0,.021,16.857.5.5,0,0,0,.5,17.5h8A.5.5,0,0,0,9,17Z"/><path d="M12.5,10.5a2,2,0,0,0-2,2V22a2,2,0,0,0,2,2H22a2,2,0,0,0,2-2V12.5a2,2,0,0,0-2-2Zm8.775,6.387a1.25,1.25,0,0,0-2.064-.024l-1.537,2.2a.254.254,0,0,1-.169.1.25.25,0,0,1-.192-.053l-.612-.489a1.249,1.249,0,0,0-1.821.282l-2,3.005a.2.2,0,0,1-.171.092.206.206,0,0,1-.206-.206V12.75a.25.25,0,0,1,.25-.25h9a.25.25,0,0,1,.25.25v4.4a.25.25,0,0,1-.458.139Z"/><circle cx="15.5" cy="15" r="1.75"/><path d="M10.6,9.163a.248.248,0,0,1,.345-.012.248.248,0,0,0,.223.056A7.356,7.356,0,0,1,12.5,9h.194a.25.25,0,0,0,.227-.355,4.916,4.916,0,0,1-.415-2.1h0V5.3a5.3,5.3,0,1,0-10.594,0V6.548A4.573,4.573,0,0,1,1.27,9.06a1,1,0,0,0,1.68,1.085,5.131,5.131,0,0,0,.455-.9.249.249,0,0,1,.411-.082,4.728,4.728,0,0,0,6.787,0ZM9.951,6.246A2.707,2.707,0,0,1,7.209,8.6a2.7,2.7,0,0,1-2.74-2.35.5.5,0,0,1,.323-.578A5.719,5.719,0,0,0,7.038,4.232a.249.249,0,0,1,.36,0,5.719,5.719,0,0,0,2.23,1.437A.5.5,0,0,1,9.951,6.246Z"/></svg>