<svg id="Bold" xmlns="http://www.w3.org/2000/svg" viewBox="0 0 24 24"><title>single-woman-actions</title><path d="M12,14a7.508,7.508,0,0,0-7.5,7.5A.5.5,0,0,0,5,22H19a.5.5,0,0,0,.5-.5A7.508,7.508,0,0,0,12,14Z"/><path d="M5.763,11.943a1,1,0,0,0,1.68,1.084,6.084,6.084,0,0,0,.6-1.226.249.249,0,0,1,.4-.1,5.511,5.511,0,0,0,7.225,0,.25.25,0,0,1,.4.1,6.092,6.092,0,0,0,.6,1.227,1,1,0,0,0,1.68-1.084,5.417,5.417,0,0,1-.765-2.98V7.523a5.524,5.524,0,0,0-11.047,0v1.44A5.417,5.417,0,0,1,5.763,11.943Zm6.288-.9A3.523,3.523,0,0,1,8.57,8.029a.5.5,0,0,1,.356-.552,6.569,6.569,0,0,0,2.965-1.8.25.25,0,0,1,.363,0,6.574,6.574,0,0,0,2.928,1.79.5.5,0,0,1,.354.549A3.525,3.525,0,0,1,12.051,11.046Z"/></svg>