<svg id="Bold" xmlns="http://www.w3.org/2000/svg" viewBox="0 0 24 24"><title>single-woman-actions-address</title><path d="M10.393,12.858a.5.5,0,0,0-.218-.733A7.414,7.414,0,0,0,7.206,11.5,7.542,7.542,0,0,0,.021,16.856.5.5,0,0,0,.5,17.5H8.514a.5.5,0,0,0,.5-.472A8.426,8.426,0,0,1,10.393,12.858Z"/><path d="M17.424,10.5a6.753,6.753,0,0,0-1.761,13.316A7.088,7.088,0,0,0,17.251,24a6.751,6.751,0,0,0,1.735-.226,1,1,0,0,0-.513-1.933,4.873,4.873,0,0,1-2.362.027,4.723,4.723,0,0,1-3.484-3.494,4.8,4.8,0,0,1,.947-4.133,4.722,4.722,0,0,1,3.8-1.739A4.921,4.921,0,0,1,22,17.516v.812a.8.8,0,0,1-1.594,0V17.25a3.157,3.157,0,1,0-3.156,3.156,3.106,3.106,0,0,0,1.476-.377.249.249,0,0,1,.312.062A2.793,2.793,0,0,0,24,18.328v-.812A6.933,6.933,0,0,0,17.424,10.5Zm-.174,7.9a1.157,1.157,0,1,1,1.156-1.156A1.158,1.158,0,0,1,17.25,18.406Z"/><path d="M1.564,10.442a1,1,0,0,0,1.383-.3,5.093,5.093,0,0,0,.454-.9.25.25,0,0,1,.412-.082,4.727,4.727,0,0,0,6.786,0,.251.251,0,0,1,.228-.071.255.255,0,0,1,.184.153,5.093,5.093,0,0,0,.454.9A1,1,0,0,0,13.146,9.06,4.561,4.561,0,0,1,12.5,6.549h0V5.3a5.3,5.3,0,1,0-10.594,0V6.548A4.573,4.573,0,0,1,1.267,9.06,1,1,0,0,0,1.564,10.442ZM7.206,8.6A2.7,2.7,0,0,1,4.465,6.248a.5.5,0,0,1,.324-.577A5.7,5.7,0,0,0,7.034,4.232a.25.25,0,0,1,.361,0,5.719,5.719,0,0,0,2.23,1.437.5.5,0,0,1,.323.576A2.707,2.707,0,0,1,7.206,8.6Z"/><path d="M1.564,10.442a1,1,0,0,0,1.383-.3,5.093,5.093,0,0,0,.454-.9.25.25,0,0,1,.412-.082,4.727,4.727,0,0,0,6.786,0,.251.251,0,0,1,.228-.071.255.255,0,0,1,.184.153,5.093,5.093,0,0,0,.454.9A1,1,0,0,0,13.146,9.06,4.561,4.561,0,0,1,12.5,6.549h0V5.3a5.3,5.3,0,1,0-10.594,0V6.548A4.573,4.573,0,0,1,1.267,9.06,1,1,0,0,0,1.564,10.442ZM7.206,8.6A2.7,2.7,0,0,1,4.465,6.248a.5.5,0,0,1,.324-.577A5.7,5.7,0,0,0,7.034,4.232a.25.25,0,0,1,.361,0,5.719,5.719,0,0,0,2.23,1.437.5.5,0,0,1,.323.576A2.707,2.707,0,0,1,7.206,8.6Z"/></svg>