<svg id="Bold" xmlns="http://www.w3.org/2000/svg" viewBox="0 0 24 24"><title>single-woman-actions-subtract</title><path d="M17.5,11A6.5,6.5,0,1,0,24,17.5,6.508,6.508,0,0,0,17.5,11ZM21,18.5H14a1,1,0,0,1,0-2h7a1,1,0,0,1,0,2Z"/><path d="M10.653,12.375A7.361,7.361,0,0,0,7.206,11.5,7.543,7.543,0,0,0,.021,16.857.5.5,0,0,0,.5,17.5H9.015a.5.5,0,0,0,.5-.47A7.929,7.929,0,0,1,10.835,13.1a.5.5,0,0,0-.182-.72Z"/><path d="M1.565,10.442a1,1,0,0,0,1.383-.3,5.233,5.233,0,0,0,.454-.9.249.249,0,0,1,.411-.082,4.728,4.728,0,0,0,6.787,0,.249.249,0,0,1,.411.082,5.233,5.233,0,0,0,.454.9A1,1,0,0,0,13.146,9.06,4.569,4.569,0,0,1,12.5,6.549h0V5.3A5.3,5.3,0,1,0,1.91,5.3V6.548A4.564,4.564,0,0,1,1.267,9.06,1,1,0,0,0,1.565,10.442ZM7.207,8.6A2.7,2.7,0,0,1,4.466,6.248a.5.5,0,0,1,.324-.577A5.7,5.7,0,0,0,7.035,4.232a.25.25,0,0,1,.361,0,5.7,5.7,0,0,0,2.23,1.437.5.5,0,0,1,.323.576A2.708,2.708,0,0,1,7.207,8.6Z"/></svg>