<svg id="Bold" xmlns="http://www.w3.org/2000/svg" viewBox="0 0 24 24"><title>single-woman-actions-home</title><path d="M9.206,16.474l2.847-2.408a.5.5,0,0,0,0-.763A7.471,7.471,0,0,0,.021,16.857.5.5,0,0,0,.5,17.5H8.211a.5.5,0,0,0,.459-.3A1.985,1.985,0,0,1,9.206,16.474Z"/><path d="M21.5,24a.5.5,0,0,0,.5-.5V18.75a.25.25,0,0,1,.25-.25H23.5a.5.5,0,0,0,.324-.882l-6.5-5.5a.5.5,0,0,0-.647,0l-6.5,5.5a.5.5,0,0,0,.323.882h1.25a.25.25,0,0,1,.25.25V23.5a.5.5,0,0,0,.5.5Z"/><path d="M1.564,10.442a1,1,0,0,0,1.383-.3,5.093,5.093,0,0,0,.454-.9.25.25,0,0,1,.412-.082,4.727,4.727,0,0,0,6.786,0,.251.251,0,0,1,.228-.071.255.255,0,0,1,.184.153,5.093,5.093,0,0,0,.454.9A1,1,0,0,0,13.146,9.06,4.561,4.561,0,0,1,12.5,6.549h0V5.3a5.3,5.3,0,1,0-10.594,0V6.548A4.573,4.573,0,0,1,1.267,9.06,1,1,0,0,0,1.564,10.442ZM7.206,8.6A2.7,2.7,0,0,1,4.465,6.248a.5.5,0,0,1,.324-.577A5.7,5.7,0,0,0,7.034,4.232a.25.25,0,0,1,.361,0,5.719,5.719,0,0,0,2.23,1.437.5.5,0,0,1,.323.576A2.707,2.707,0,0,1,7.206,8.6Z"/><path d="M1.564,10.442a1,1,0,0,0,1.383-.3,5.093,5.093,0,0,0,.454-.9.25.25,0,0,1,.412-.082,4.727,4.727,0,0,0,6.786,0,.251.251,0,0,1,.228-.071.255.255,0,0,1,.184.153,5.093,5.093,0,0,0,.454.9A1,1,0,0,0,13.146,9.06,4.561,4.561,0,0,1,12.5,6.549h0V5.3a5.3,5.3,0,1,0-10.594,0V6.548A4.573,4.573,0,0,1,1.267,9.06,1,1,0,0,0,1.564,10.442ZM7.206,8.6A2.7,2.7,0,0,1,4.465,6.248a.5.5,0,0,1,.324-.577A5.7,5.7,0,0,0,7.034,4.232a.25.25,0,0,1,.361,0,5.719,5.719,0,0,0,2.23,1.437.5.5,0,0,1,.323.576A2.707,2.707,0,0,1,7.206,8.6Z"/></svg>