<?xml version="1.0" encoding="utf-8"?>
<!-- Generator: Adobe Illustrator 22.1.0, SVG Export Plug-In . SVG Version: 6.00 Build 0)  -->
<svg version="1.1" id="Layer_1" xmlns="http://www.w3.org/2000/svg" xmlns:xlink="http://www.w3.org/1999/xlink" x="0px" y="0px"
	 viewBox="0 0 24 24" style="enable-background:new 0 0 24 24;" xml:space="preserve">
<g>
	<title>volume-control-remove</title>
	<path d="M9.5,17.043c-0.134,0-0.259-0.052-0.354-0.146l-3.854-3.854H2c-1.103,0-2-0.897-2-2v-3c0-1.103,0.897-2,2-2h3.293
		l5.146-5.147c0.283-0.283,0.66-0.439,1.06-0.439c0.401,0,0.778,0.156,1.061,0.439C12.844,1.18,13,1.556,13,1.957v4.123
		c1.405,0.203,2.552,1.235,2.891,2.631c0.032,0.13,0.011,0.264-0.059,0.378c-0.069,0.114-0.179,0.194-0.309,0.226
		c-0.038,0.009-0.078,0.014-0.118,0.014c-0.231,0-0.431-0.157-0.486-0.382C14.689,8.003,13.936,7.286,13,7.095V10.3
		c0,0.276-0.224,0.5-0.5,0.5c-0.276,0-0.5-0.224-0.5-0.5V1.957c0-0.134-0.052-0.259-0.146-0.353
		c-0.094-0.094-0.22-0.146-0.354-0.146s-0.259,0.052-0.354,0.146L5.854,6.897C5.759,6.991,5.634,7.043,5.5,7.043H2
		c-0.551,0-1,0.449-1,1v3c0,0.551,0.449,1,1,1h3.5c0.134,0,0.259,0.052,0.354,0.146l4,4c0.195,0.195,0.195,0.512,0,0.707
		C9.759,16.991,9.634,17.043,9.5,17.043z"/>
	<path d="M17.5,23.043c-3.584,0-6.5-2.916-6.5-6.5s2.916-6.5,6.5-6.5s6.5,2.916,6.5,6.5S21.084,23.043,17.5,23.043z M17.5,11.043
		c-3.033,0-5.5,2.467-5.5,5.5s2.467,5.5,5.5,5.5s5.5-2.467,5.5-5.5S20.533,11.043,17.5,11.043z"/>
	<path d="M19.621,19.164c-0.134,0-0.259-0.052-0.354-0.146L17.5,17.25l-1.768,1.768c-0.094,0.094-0.22,0.146-0.354,0.146
		s-0.259-0.052-0.354-0.146c-0.195-0.195-0.195-0.512,0-0.707l1.768-1.767l-1.768-1.768c-0.195-0.195-0.195-0.512,0-0.707
		c0.094-0.094,0.22-0.146,0.354-0.146s0.259,0.052,0.354,0.146l1.768,1.768l1.768-1.768c0.094-0.094,0.22-0.146,0.354-0.146
		s0.259,0.052,0.354,0.146c0.195,0.195,0.195,0.512,0,0.707l-1.768,1.768l1.768,1.767c0.195,0.195,0.195,0.512,0,0.707
		C19.88,19.112,19.755,19.164,19.621,19.164z"/>
</g>
</svg>
