<?xml version="1.0" encoding="utf-8"?>
<!-- Generator: Adobe Illustrator 22.1.0, SVG Export Plug-In . SVG Version: 6.00 Build 0)  -->
<svg version="1.1" id="Layer_1" xmlns="http://www.w3.org/2000/svg" xmlns:xlink="http://www.w3.org/1999/xlink" x="0px" y="0px"
	 viewBox="0 0 24 24" style="enable-background:new 0 0 24 24;" xml:space="preserve">
<g>
	<title>volume-control-full-1</title>
	<path d="M19.992,20.5c-0.139,0-0.272-0.058-0.367-0.16c-0.187-0.202-0.175-0.519,0.028-0.707c0.2-0.185,0.395-0.379,0.579-0.579
		c3.889-4.208,3.63-10.797-0.579-14.687c-0.202-0.187-0.215-0.504-0.028-0.707C19.719,3.559,19.853,3.5,19.992,3.5
		c0.126,0,0.246,0.047,0.339,0.133c2.232,2.062,3.527,4.875,3.647,7.919c0.12,3.044-0.949,5.95-3.012,8.181
		c-0.202,0.219-0.416,0.432-0.635,0.635C20.239,20.453,20.119,20.5,19.992,20.5z"/>
	<path d="M17.493,18.5c-0.156,0-0.305-0.074-0.399-0.198c-0.081-0.106-0.115-0.237-0.097-0.37s0.087-0.25,0.193-0.33
		c0.508-0.385,0.96-0.838,1.346-1.346c1.136-1.496,1.623-3.346,1.368-5.208s-1.218-3.513-2.714-4.65
		c-0.106-0.081-0.175-0.198-0.193-0.331s0.017-0.264,0.097-0.37C17.19,5.572,17.335,5.5,17.493,5.5c0.11,0,0.214,0.035,0.302,0.102
		c1.707,1.296,2.806,3.183,3.097,5.311s-0.263,4.241-1.56,5.947c-0.44,0.58-0.958,1.097-1.538,1.538
		C17.707,18.465,17.603,18.5,17.493,18.5z"/>
	<path d="M15.493,16c-0.16,0-0.311-0.077-0.405-0.206c-0.078-0.108-0.11-0.24-0.089-0.372s0.092-0.248,0.2-0.326
		c1.16-0.843,1.798-1.942,1.798-3.095c0-1.153-0.638-2.252-1.799-3.096c-0.108-0.078-0.179-0.194-0.2-0.326
		c-0.021-0.132,0.011-0.264,0.09-0.372C15.182,8.077,15.333,8,15.492,8c0.106,0,0.208,0.033,0.294,0.096
		c1.426,1.037,2.211,2.424,2.211,3.905c0,1.481-0.785,2.868-2.211,3.904C15.7,15.967,15.599,16,15.493,16z"/>
	<path d="M12.992,21c-3.402-0.002-6.547-1.96-8.056-5H2.992c-1.654,0-3-1.346-3-3v-2c0-1.654,1.346-3,3-3h1.944
		c1.509-3.041,4.654-4.998,8.056-5c0.552,0,1,0.449,1,1v16C13.992,20.552,13.544,21,12.992,21C12.992,21,12.992,21,12.992,21z
		 M2.992,9c-1.103,0-2,0.897-2,2v2c0,1.103,0.897,2,2,2h2.26c0.196,0,0.375,0.115,0.456,0.294c1.291,2.856,4.15,4.704,7.285,4.706
		l0-16C9.858,4.002,6.999,5.849,5.708,8.706C5.627,8.885,5.449,9,5.252,9H2.992z"/>
</g>
</svg>
