<?xml version="1.0" encoding="utf-8"?>
<!-- Generator: Adobe Illustrator 22.1.0, SVG Export Plug-In . SVG Version: 6.00 Build 0)  -->
<svg version="1.1" id="Layer_1" xmlns="http://www.w3.org/2000/svg" xmlns:xlink="http://www.w3.org/1999/xlink" x="0px" y="0px"
	 viewBox="0 0 24 24" style="enable-background:new 0 0 24 24;" xml:space="preserve">
<g>
	<title>volume-control-warning</title>
	<path d="M10.499,18.043c-0.134,0-0.259-0.052-0.354-0.146l-4.854-4.854H1.999c-1.103,0-2-0.897-2-2v-3c0-1.103,0.897-2,2-2h3.293
		l5.147-5.147c0.283-0.283,0.66-0.439,1.06-0.439c0.827,0,1.5,0.673,1.5,1.5v4.125c1.7,0.245,3,1.723,3,3.461
		c0,0.276-0.224,0.5-0.5,0.5s-0.5-0.224-0.5-0.5c0-1.187-0.859-2.213-2-2.448v4.896c0.193-0.039,0.379-0.099,0.553-0.18
		c0.067-0.031,0.138-0.046,0.21-0.046c0.194,0,0.372,0.114,0.454,0.29c0.056,0.121,0.062,0.257,0.016,0.382
		s-0.138,0.226-0.259,0.282c-0.305,0.141-0.632,0.237-0.974,0.285v1.54c0,0.276-0.224,0.5-0.5,0.5c-0.276,0-0.5-0.224-0.5-0.5V1.957
		c0-0.276-0.224-0.5-0.5-0.5c-0.134,0-0.259,0.052-0.354,0.146L5.852,6.897c-0.094,0.094-0.22,0.146-0.354,0.146h-3.5
		c-0.551,0-1,0.449-1,1v3c0,0.551,0.449,1,1,1h3.5c0.134,0,0.259,0.052,0.354,0.146l5,5c0.094,0.094,0.146,0.22,0.146,0.354
		s-0.052,0.259-0.146,0.354S10.632,18.043,10.499,18.043z"/>
	<circle cx="17.499" cy="19.793" r="0.75"/>
	<path d="M17.499,18.043c-0.276,0-0.5-0.224-0.5-0.5v-3c0-0.276,0.224-0.5,0.5-0.5s0.5,0.224,0.5,0.5v3
		C17.999,17.819,17.775,18.043,17.499,18.043z"/>
	<path d="M12.443,23.043c-0.506,0-0.966-0.256-1.232-0.684c-0.263-0.427-0.282-0.968-0.049-1.411l5.056-9.635
		c0.137-0.257,0.344-0.464,0.598-0.599c0.21-0.112,0.445-0.171,0.681-0.171c0.143,0,0.285,0.021,0.423,0.063
		c0.369,0.112,0.672,0.36,0.855,0.699c0.002,0.004,5.061,9.643,5.061,9.643c0.233,0.443,0.214,0.982-0.048,1.409
		c-0.267,0.43-0.727,0.686-1.231,0.686H12.443z M17.498,11.543c-0.074,0-0.145,0.018-0.211,0.053
		c-0.079,0.042-0.143,0.106-0.185,0.185l-5.054,9.632c-0.069,0.132-0.064,0.293,0.014,0.419c0.082,0.131,0.224,0.21,0.38,0.21
		h10.114c0.157,0,0.3-0.079,0.382-0.212c0.077-0.125,0.083-0.286,0.013-0.417l-5.056-9.635c-0.056-0.104-0.15-0.181-0.265-0.216
		C17.587,11.55,17.542,11.543,17.498,11.543z"/>
</g>
</svg>
