<?xml version="1.0" encoding="utf-8"?>
<!-- Generator: Adobe Illustrator 22.1.0, SVG Export Plug-In . SVG Version: 6.00 Build 0)  -->
<svg version="1.1" id="Layer_1" xmlns="http://www.w3.org/2000/svg" xmlns:xlink="http://www.w3.org/1999/xlink" x="0px" y="0px"
	 viewBox="0 0 24 24" style="enable-background:new 0 0 24 24;" xml:space="preserve">
<g>
	<title>folder-share</title>
	<path d="M1.5,18C0.673,18,0,17.327,0,16.5v-15C0,0.673,0.673,0,1.5,0h5.382c0.572,0,1.086,0.318,1.341,0.829l0.948,1.894
		C9.256,2.894,9.428,3,9.618,3H19.5C20.327,3,21,3.673,21,4.5v4C21,8.776,20.776,9,20.5,9S20,8.776,20,8.5v-4
		C20,4.224,19.776,4,19.5,4H9.618C9.046,4,8.532,3.682,8.277,3.171L7.329,1.277C7.244,1.106,7.072,1,6.882,1H1.5
		C1.224,1,1,1.224,1,1.5v15C1,16.776,1.224,17,1.5,17h7C8.776,17,9,17.224,9,17.5S8.776,18,8.5,18H1.5z"/>
	<path d="M21.25,24c-1.516,0-2.75-1.234-2.75-2.75c0-0.18,0.018-0.36,0.055-0.54l-2.482-0.993C15.57,20.514,14.699,21,13.75,21
		C12.234,21,11,19.766,11,18.25s1.234-2.75,2.75-2.75c0.797,0,1.535,0.337,2.058,0.932l2.868-1.721
		C18.559,14.402,18.5,14.08,18.5,13.75c0-1.516,1.234-2.75,2.75-2.75S24,12.234,24,13.75s-1.234,2.75-2.75,2.75
		c-0.797,0-1.535-0.337-2.058-0.932l-2.868,1.72c0.117,0.309,0.176,0.632,0.176,0.961c0,0.18-0.018,0.36-0.055,0.54l2.482,0.993
		c0.503-0.796,1.374-1.282,2.323-1.282c1.516,0,2.75,1.234,2.75,2.75S22.766,24,21.25,24z M21.25,19.5
		c-0.965,0-1.75,0.785-1.75,1.75S20.285,23,21.25,23S23,22.215,23,21.25S22.215,19.5,21.25,19.5z M13.75,16.5
		c-0.965,0-1.75,0.785-1.75,1.75S12.785,20,13.75,20s1.75-0.785,1.75-1.75c0-0.304-0.081-0.605-0.235-0.871
		c-0.008-0.01-0.015-0.02-0.02-0.028c-0.006-0.01-0.011-0.021-0.016-0.032C14.917,16.813,14.361,16.5,13.75,16.5z M19.77,14.681
		c0.313,0.506,0.869,0.819,1.48,0.819c0.965,0,1.75-0.785,1.75-1.75S22.215,12,21.25,12s-1.75,0.785-1.75,1.75
		c0,0.304,0.081,0.605,0.235,0.872c0.005,0.007,0.01,0.013,0.014,0.02C19.757,14.653,19.764,14.667,19.77,14.681z"/>
</g>
</svg>
