<?xml version="1.0" encoding="utf-8"?>
<!-- Generator: Adobe Illustrator 22.1.0, SVG Export Plug-In . SVG Version: 6.00 Build 0)  -->
<svg version="1.1" id="Layer_1" xmlns="http://www.w3.org/2000/svg" xmlns:xlink="http://www.w3.org/1999/xlink" x="0px" y="0px"
	 viewBox="0 0 24 24" style="enable-background:new 0 0 24 24;" xml:space="preserve">
<g>
	<title>folder-search</title>
	<path d="M1.5,18C0.673,18,0,17.327,0,16.5v-15C0,0.673,0.673,0,1.5,0h5.382c0.572,0,1.086,0.318,1.341,0.829l0.948,1.894
		C9.256,2.894,9.428,3,9.618,3H19.5C20.327,3,21,3.673,21,4.5v6c0,0.276-0.224,0.5-0.5,0.5S20,10.776,20,10.5v-6
		C20,4.224,19.776,4,19.5,4H9.618C9.046,4,8.532,3.682,8.277,3.171L7.329,1.277C7.244,1.106,7.072,1,6.882,1H1.5
		C1.224,1,1,1.224,1,1.5v15C1,16.776,1.224,17,1.5,17h8c0.276,0,0.5,0.224,0.5,0.5S9.776,18,9.5,18H1.5z"/>
	<path d="M23.5,24c-0.134,0-0.259-0.052-0.354-0.146l-2.938-2.938c-0.9,0.738-2.02,1.142-3.18,1.142
		c-2.773,0-5.029-2.256-5.029-5.029S14.256,12,17.029,12s5.029,2.256,5.029,5.029c0,1.16-0.404,2.28-1.142,3.18l2.938,2.938
		C23.948,23.241,24,23.366,24,23.5s-0.052,0.259-0.146,0.354S23.634,24,23.5,24z M17.029,13C14.807,13,13,14.807,13,17.029
		s1.807,4.029,4.029,4.029s4.029-1.807,4.029-4.029S19.251,13,17.029,13z"/>
</g>
</svg>
