<?xml version="1.0" encoding="utf-8"?>
<!-- Generator: Adobe Illustrator 22.1.0, SVG Export Plug-In . SVG Version: 6.00 Build 0)  -->
<svg version="1.1" id="Layer_1" xmlns="http://www.w3.org/2000/svg" xmlns:xlink="http://www.w3.org/1999/xlink" x="0px" y="0px"
	 viewBox="0 0 24 24" style="enable-background:new 0 0 24 24;" xml:space="preserve">
<g>
	<title>folder-home</title>
	<path d="M1.5,18C0.672,18,0,17.327,0,16.5v-15C0,0.673,0.672,0,1.5,0h5.382c0.572,0,1.086,0.318,1.341,0.829l0.948,1.894
		C9.256,2.894,9.427,3,9.618,3H19.5C20.327,3,21,3.673,21,4.5v7c0,0.276-0.224,0.5-0.5,0.5S20,11.776,20,11.5v-7
		C20,4.224,19.775,4,19.5,4H9.618C9.046,4,8.532,3.682,8.276,3.171L7.329,1.277C7.243,1.106,7.072,1,6.881,1H1.5
		C1.224,1,1,1.224,1,1.5v15C1,16.776,1.224,17,1.5,17h6C7.775,17,8,17.224,8,17.5S7.775,18,7.5,18H1.5z"/>
	<path d="M13.5,24c-0.827,0-1.5-0.673-1.5-1.5v-5.114l-1.177,0.996C10.732,18.458,10.617,18.5,10.5,18.5
		c-0.148,0-0.287-0.065-0.382-0.177c-0.178-0.209-0.152-0.526,0.059-0.704l5.854-4.953c0.271-0.23,0.615-0.356,0.969-0.356
		s0.698,0.127,0.969,0.357l5.854,4.952c0.211,0.178,0.237,0.495,0.059,0.705c-0.095,0.112-0.234,0.177-0.382,0.177
		c-0.118,0-0.232-0.042-0.322-0.118L22,17.386V22.5c0,0.827-0.673,1.5-1.5,1.5H13.5z M20.5,23c0.276,0,0.5-0.224,0.5-0.5v-5.96
		l-3.677-3.111C17.232,13.352,17.117,13.31,17,13.31c-0.118,0-0.232,0.042-0.323,0.119L13,16.54v5.96c0,0.276,0.224,0.5,0.5,0.5H15
		v-2.5c0-1.103,0.897-2,2-2s2,0.897,2,2V23H20.5z M18,23v-2.5c0-0.552-0.448-1-1-1s-1,0.448-1,1V23H18z"/>
</g>
</svg>
