<?xml version="1.0" encoding="utf-8"?>
<!-- Generator: Adobe Illustrator 22.1.0, SVG Export Plug-In . SVG Version: 6.00 Build 0)  -->
<svg version="1.1" id="Layer_1" xmlns="http://www.w3.org/2000/svg" xmlns:xlink="http://www.w3.org/1999/xlink" x="0px" y="0px"
	 viewBox="0 0 24 24" style="enable-background:new 0 0 24 24;" xml:space="preserve">
<g>
	<title>folder-file-lock</title>
	<path d="M2,24c-0.827,0-1.5-0.673-1.5-1.5v-9C0.5,12.673,1.173,12,2,12h1.5V1.5C3.5,0.673,4.173,0,5,0h8c0.276,0,0.5,0.224,0.5,0.5
		S13.276,1,13,1H5C4.724,1,4.5,1.224,4.5,1.5V12c0.469,0,0.918,0.224,1.2,0.6L6.6,13.8C6.694,13.925,6.843,14,7,14h7
		c0.827,0,1.5,0.673,1.5,1.5V21H20c0.276,0,0.5-0.224,0.5-0.5v-6c0-0.276,0.224-0.5,0.5-0.5s0.5,0.224,0.5,0.5v6
		c0,0.827-0.673,1.5-1.5,1.5h-4.5v0.5c0,0.827-0.673,1.5-1.5,1.5H2z M2,13c-0.276,0-0.5,0.224-0.5,0.5v9C1.5,22.776,1.724,23,2,23
		h12c0.276,0,0.5-0.224,0.5-0.5v-7c0-0.276-0.224-0.5-0.5-0.5H7c-0.47,0-0.918-0.224-1.2-0.6L4.9,13.2C4.806,13.075,4.657,13,4.5,13
		H2z"/>
	<path d="M15,12c-0.827,0-1.5-0.673-1.5-1.5v-5C13.5,4.673,14.173,4,15,4h0.5V3c0-1.654,1.346-3,3-3s3,1.346,3,3v1H22
		c0.827,0,1.5,0.673,1.5,1.5v5c0,0.827-0.673,1.5-1.5,1.5H15z M15,5c-0.276,0-0.5,0.224-0.5,0.5v5c0,0.276,0.224,0.5,0.5,0.5h7
		c0.276,0,0.5-0.224,0.5-0.5v-5C22.5,5.224,22.276,5,22,5H15z M20.5,4V3c0-1.103-0.897-2-2-2s-2,0.897-2,2v1H20.5z"/>
	<path d="M18.5,9.5C17.673,9.5,17,8.827,17,8s0.673-1.5,1.5-1.5S20,7.173,20,8S19.327,9.5,18.5,9.5z M18.5,7.5
		C18.224,7.5,18,7.724,18,8s0.224,0.5,0.5,0.5S19,8.276,19,8S18.776,7.5,18.5,7.5z"/>
</g>
</svg>
