<?xml version="1.0" encoding="utf-8"?>
<!-- Generator: Adobe Illustrator 22.1.0, SVG Export Plug-In . SVG Version: 6.00 Build 0)  -->
<svg version="1.1" id="Layer_1" xmlns="http://www.w3.org/2000/svg" xmlns:xlink="http://www.w3.org/1999/xlink" x="0px" y="0px"
	 viewBox="0 0 24 24" style="enable-background:new 0 0 24 24;" xml:space="preserve">
<g>
	<title>folder-fiile-edit</title>
	<path d="M2.006,24c-0.827,0-1.5-0.673-1.5-1.5v-9c0-0.827,0.673-1.5,1.5-1.5h1.5V1.5c0-0.827,0.673-1.5,1.5-1.5h11.086
		c0.276,0,0.5,0.224,0.5,0.5S16.367,1,16.092,1H5.006c-0.276,0-0.5,0.224-0.5,0.5V12c0.47,0,0.918,0.224,1.2,0.6l0.9,1.201
		C6.7,13.925,6.849,14,7.006,14h7c0.827,0,1.5,0.673,1.5,1.5V21h4.5c0.276,0,0.5-0.224,0.5-0.5v-11c0-0.276,0.224-0.5,0.5-0.5
		s0.5,0.224,0.5,0.5v11c0,0.827-0.673,1.5-1.5,1.5h-4.5v0.5c0,0.827-0.673,1.5-1.5,1.5H2.006z M2.006,13c-0.276,0-0.5,0.224-0.5,0.5
		v9c0,0.276,0.224,0.5,0.5,0.5h12c0.276,0,0.5-0.224,0.5-0.5v-7c0-0.276-0.224-0.5-0.5-0.5h-7c-0.469,0-0.918-0.224-1.2-0.6
		l-0.9-1.201c-0.094-0.125-0.243-0.2-0.4-0.2H2.006z"/>
	<path d="M13.006,11.5c-0.134,0-0.259-0.052-0.354-0.146c-0.128-0.128-0.177-0.316-0.127-0.491l1-3.5
		c0.024-0.082,0.068-0.156,0.127-0.216l5.982-5.982c0.43-0.416,0.991-0.644,1.583-0.644l0.039,0c0.604,0.01,1.17,0.255,1.591,0.69
		c0.856,0.884,0.856,2.27,0,3.155l-5.988,5.988c-0.06,0.06-0.135,0.104-0.217,0.127l-3.5,1C13.099,11.494,13.052,11.5,13.006,11.5z
		 M13.734,10.272l2.51-0.717l5.89-5.891c0.475-0.49,0.473-1.263-0.006-1.758c-0.236-0.243-0.552-0.38-0.89-0.386l-0.019-0.25v0.25
		c-0.327,0-0.649,0.13-0.884,0.357l-5.884,5.885L13.734,10.272z"/>
</g>
</svg>
