<?xml version="1.0" encoding="utf-8"?>
<!-- Generator: Adobe Illustrator 22.1.0, SVG Export Plug-In . SVG Version: 6.00 Build 0)  -->
<svg version="1.1" id="Layer_1" xmlns="http://www.w3.org/2000/svg" xmlns:xlink="http://www.w3.org/1999/xlink" x="0px" y="0px"
	 viewBox="0 0 24 24" style="enable-background:new 0 0 24 24;" xml:space="preserve">
<g>
	<title>folder-empty-1</title>
	<path d="M2,21.5c-0.827,0-1.5-0.673-1.5-1.5V4c0-0.827,0.673-1.5,1.5-1.5h6.5c0.572,0,1.086,0.318,1.341,0.829l0.948,1.894
		C10.874,5.394,11.046,5.5,11.236,5.5H22c0.827,0,1.5,0.673,1.5,1.5v13c0,0.827-0.673,1.5-1.5,1.5H2z M2,3.5
		C1.724,3.5,1.5,3.724,1.5,4v16c0,0.276,0.224,0.5,0.5,0.5h20c0.276,0,0.5-0.224,0.5-0.5V7c0-0.276-0.224-0.5-0.5-0.5H11.236
		c-0.572,0-1.086-0.318-1.341-0.83L8.947,3.777C8.862,3.606,8.69,3.5,8.5,3.5H2z"/>
</g>
</svg>
