<?xml version="1.0" encoding="utf-8"?>
<!-- Generator: Adobe Illustrator 22.1.0, SVG Export Plug-In . SVG Version: 6.00 Build 0)  -->
<svg version="1.1" id="Layer_1" xmlns="http://www.w3.org/2000/svg" xmlns:xlink="http://www.w3.org/1999/xlink" x="0px" y="0px"
	 viewBox="0 0 24 24" style="enable-background:new 0 0 24 24;" xml:space="preserve">
<g>
	<title>folder-check</title>
	<path d="M1.5,18C0.673,18,0,17.327,0,16.5v-15C0,0.673,0.673,0,1.5,0h5.382c0.572,0,1.086,0.318,1.341,0.829l0.948,1.894
		C9.256,2.894,9.428,3,9.618,3H19.5C20.327,3,21,3.673,21,4.5v4C21,8.776,20.776,9,20.5,9S20,8.776,20,8.5v-4
		C20,4.224,19.776,4,19.5,4H9.618C9.046,4,8.532,3.682,8.277,3.171L7.329,1.277C7.244,1.106,7.072,1,6.882,1H1.5
		C1.224,1,1,1.224,1,1.5v15C1,16.776,1.224,17,1.5,17h7C8.776,17,9,17.224,9,17.5S8.776,18,8.5,18H1.5z"/>
	<path d="M17.5,24c-3.584,0-6.5-2.916-6.5-6.5s2.916-6.5,6.5-6.5s6.5,2.916,6.5,6.5S21.084,24,17.5,24z M17.5,12
		c-3.033,0-5.5,2.467-5.5,5.5s2.467,5.5,5.5,5.5s5.5-2.467,5.5-5.5S20.533,12,17.5,12z"/>
	<path d="M16.667,20.429c-0.272,0-0.531-0.087-0.75-0.251c-0.046-0.034-0.091-0.073-0.133-0.115l-1.5-1.5
		c-0.195-0.195-0.195-0.512,0-0.707c0.094-0.094,0.22-0.146,0.354-0.146s0.259,0.052,0.354,0.146l1.5,1.5
		c0.008,0.008,0.017,0.015,0.026,0.022c0.044,0.033,0.096,0.051,0.15,0.051c0.012,0,0.025-0.001,0.037-0.002
		c0.067-0.01,0.124-0.043,0.165-0.098l2.905-3.872c0.093-0.125,0.243-0.2,0.4-0.2c0.109,0,0.213,0.035,0.3,0.1
		c0.107,0.08,0.176,0.197,0.195,0.329c0.019,0.132-0.015,0.264-0.095,0.371l-2.905,3.872c-0.201,0.268-0.494,0.44-0.825,0.488
		C16.785,20.425,16.726,20.429,16.667,20.429z"/>
</g>
</svg>
