<?xml version="1.0" encoding="utf-8"?>
<!-- Generator: Adobe Illustrator 22.1.0, SVG Export Plug-In . SVG Version: 6.00 Build 0)  -->
<svg version="1.1" id="Layer_1" xmlns="http://www.w3.org/2000/svg" xmlns:xlink="http://www.w3.org/1999/xlink" x="0px" y="0px"
	 viewBox="0 0 24 24" style="enable-background:new 0 0 24 24;" xml:space="preserve">
<g>
	<title>folder-bookmark</title>
	<path d="M4.1,21.5c-0.711,0-1.329-0.505-1.471-1.2l-2.6-13.002c-0.02-0.097-0.03-0.198-0.03-0.3C0,6.172,0.672,5.5,1.499,5.5H7.96
		c0.711,0,1.329,0.505,1.471,1.2l0.278,1.402C9.756,8.332,9.962,8.5,10.199,8.5H14V8c0-0.827,0.673-1.5,1.5-1.5h3
		C19.327,6.5,20,7.173,20,8v0.5h2.5c0.102,0,0.203,0.01,0.302,0.031c0.81,0.165,1.334,0.959,1.169,1.769l-1.495,9.974
		C22.33,20.99,21.711,21.5,21.001,21.5H4.1z M1.499,6.5c-0.134,0-0.259,0.052-0.354,0.146C1.051,6.74,0.999,6.866,0.999,6.999
		c0,0.034,0.003,0.068,0.01,0.101l2.6,13.002c0.047,0.23,0.253,0.398,0.49,0.398H21c0.238,0,0.444-0.168,0.491-0.4l1.495-9.974
		c0.06-0.295-0.111-0.56-0.385-0.615c-0.029-0.006-0.058-0.01-0.088-0.01L20,9.5v7.293c0,0.264-0.107,0.522-0.294,0.708
		c-0.189,0.188-0.44,0.292-0.706,0.292c-0.268,0-0.519-0.105-0.708-0.294L17,16.207L15.707,17.5
		c-0.186,0.186-0.444,0.293-0.708,0.293c-0.552,0-1-0.448-1-1V9.5h-3.8c-0.711,0-1.329-0.505-1.471-1.2L8.45,6.897
		C8.403,6.668,8.198,6.5,7.961,6.5H1.499z M15.5,7.5C15.224,7.5,15,7.724,15,8v8.793l1.646-1.646C16.741,15.052,16.866,15,17,15
		s0.259,0.052,0.354,0.146l1.646,1.646L19,8c0-0.276-0.224-0.5-0.5-0.5H15.5z"/>
	<path d="M22.5,7.5C22.224,7.5,22,7.276,22,7V4c0-0.276-0.224-0.5-0.5-0.5h-18C3.224,3.5,3,3.724,3,4S2.776,4.5,2.5,4.5S2,4.276,2,4
		c0-0.827,0.673-1.5,1.5-1.5h18C22.327,2.5,23,3.173,23,4v3C23,7.276,22.776,7.5,22.5,7.5z"/>
</g>
</svg>
