<?xml version="1.0" encoding="utf-8"?>
<!-- Generator: Adobe Illustrator 22.1.0, SVG Export Plug-In . SVG Version: 6.00 Build 0)  -->
<svg version="1.1" id="Layer_1" xmlns="http://www.w3.org/2000/svg" xmlns:xlink="http://www.w3.org/1999/xlink" x="0px" y="0px"
	 viewBox="0 0 24 24" style="enable-background:new 0 0 24 24;" xml:space="preserve">
<g>
	<title>folder-warning</title>
	<path d="M1.499,18c-0.827,0-1.5-0.673-1.5-1.5v-15c0-0.827,0.673-1.5,1.5-1.5h5.382c0.572,0,1.086,0.318,1.341,0.83L9.17,2.723
		C9.255,2.894,9.426,3,9.617,3h9.882c0.827,0,1.5,0.673,1.5,1.5v5c0,0.276-0.224,0.5-0.5,0.5s-0.5-0.224-0.5-0.5v-5
		c0-0.276-0.224-0.5-0.5-0.5H9.617C9.045,4,8.531,3.682,8.275,3.17L7.328,1.277C7.242,1.106,7.071,1,6.88,1H1.499
		c-0.276,0-0.5,0.224-0.5,0.5v15c0,0.276,0.224,0.5,0.5,0.5h8c0.276,0,0.5,0.224,0.5,0.5S9.775,18,9.499,18H1.499z"/>
	<circle cx="17.499" cy="20.75" r="0.75"/>
	<path d="M17.499,19c-0.276,0-0.5-0.224-0.5-0.5v-3c0-0.276,0.224-0.5,0.5-0.5s0.5,0.224,0.5,0.5v3
		C17.999,18.776,17.775,19,17.499,19z"/>
	<path d="M12.443,23.997c-0.506,0-0.966-0.256-1.232-0.684c-0.263-0.427-0.282-0.968-0.049-1.41l5.055-9.635
		c0.137-0.257,0.344-0.463,0.598-0.599c0.21-0.112,0.446-0.172,0.681-0.172c0.143,0,0.285,0.021,0.423,0.063
		c0.368,0.112,0.671,0.36,0.854,0.698c0.003,0.005,5.062,9.645,5.062,9.645c0.233,0.443,0.214,0.982-0.048,1.408
		c-0.267,0.43-0.727,0.686-1.231,0.686H12.443z M17.498,12.497c-0.074,0-0.145,0.018-0.211,0.053
		c-0.079,0.042-0.143,0.106-0.185,0.185l-5.054,9.632c-0.069,0.132-0.064,0.292,0.014,0.419c0.082,0.131,0.224,0.21,0.379,0.21
		h10.114c0.155,0,0.301-0.081,0.382-0.212c0.077-0.125,0.083-0.286,0.013-0.417l-5.056-9.635c-0.056-0.104-0.15-0.181-0.265-0.216
		C17.586,12.504,17.542,12.497,17.498,12.497z"/>
</g>
</svg>
