<?xml version="1.0" encoding="utf-8"?>
<!-- Generator: Adobe Illustrator 22.1.0, SVG Export Plug-In . SVG Version: 6.00 Build 0)  -->
<svg version="1.1" id="Layer_1" xmlns="http://www.w3.org/2000/svg" xmlns:xlink="http://www.w3.org/1999/xlink" x="0px" y="0px"
	 viewBox="0 0 24 24" style="enable-background:new 0 0 24 24;" xml:space="preserve">
<g>
	<title>folder-add</title>
	<path d="M1.5,18C0.673,18,0,17.327,0,16.5v-15C0,0.673,0.673,0,1.5,0h5.382c0.572,0,1.086,0.318,1.341,0.829l0.948,1.894
		C9.256,2.894,9.428,3,9.618,3H19.5C20.327,3,21,3.673,21,4.5v4C21,8.776,20.776,9,20.5,9S20,8.776,20,8.5v-4
		C20,4.224,19.776,4,19.5,4H9.618C9.046,4,8.532,3.682,8.277,3.171L7.329,1.277C7.244,1.106,7.072,1,6.882,1H1.5
		C1.224,1,1,1.224,1,1.5v15C1,16.776,1.224,17,1.5,17h7C8.776,17,9,17.224,9,17.5S8.776,18,8.5,18H1.5z"/>
	<path d="M17.5,24c-3.584,0-6.5-2.916-6.5-6.5s2.916-6.5,6.5-6.5s6.5,2.916,6.5,6.5S21.084,24,17.5,24z M17.5,12
		c-3.033,0-5.5,2.467-5.5,5.5s2.467,5.5,5.5,5.5s5.5-2.467,5.5-5.5S20.533,12,17.5,12z"/>
	<path d="M17.5,21c-0.276,0-0.5-0.224-0.5-0.5V18h-2.5c-0.276,0-0.5-0.224-0.5-0.5s0.224-0.5,0.5-0.5H17v-2.5
		c0-0.276,0.224-0.5,0.5-0.5s0.5,0.224,0.5,0.5V17h2.5c0.276,0,0.5,0.224,0.5,0.5S20.776,18,20.5,18H18v2.5
		C18,20.776,17.776,21,17.5,21z"/>
</g>
</svg>
