<?xml version="1.0" encoding="utf-8"?>
<!-- Generator: Adobe Illustrator 22.1.0, SVG Export Plug-In . SVG Version: 6.00 Build 0)  -->
<svg version="1.1" id="Layer_1" xmlns="http://www.w3.org/2000/svg" xmlns:xlink="http://www.w3.org/1999/xlink" x="0px" y="0px"
	 viewBox="0 0 24 24" style="enable-background:new 0 0 24 24;" xml:space="preserve">
<g>
	<title>folder-media</title>
	<path d="M1.5,16C1.224,16,1,15.776,1,15.5V3.786C1,2.801,1.801,2,2.786,2h3.432c0.405,0,0.799,0.167,1.08,0.459l1.341,1.387
		C8.734,3.944,8.865,4,9,4h13c0.276,0,0.5,0.224,0.5,0.5S22.276,5,22,5H9C8.595,5,8.201,4.833,7.92,4.541L6.579,3.154
		C6.484,3.056,6.353,3,6.218,3H2.786C2.353,3,2,3.353,2,3.786V15.5C2,15.776,1.776,16,1.5,16z"/>
	<path d="M5.5,22C4.673,22,4,21.327,4,20.5v-12C4,7.673,4.673,7,5.5,7h16C22.327,7,23,7.673,23,8.5v12c0,0.827-0.673,1.5-1.5,1.5
		H5.5z M5.5,8C5.224,8,5,8.224,5,8.5v12C5,20.776,5.224,21,5.5,21h16c0.276,0,0.5-0.224,0.5-0.5v-12C22,8.224,21.776,8,21.5,8H5.5z"
		/>
	<path d="M11.219,19.003c-0.1,0-0.2-0.012-0.297-0.036c-0.315-0.078-0.581-0.275-0.748-0.553C10.06,18.224,10,18.007,10,17.785
		v-6.069c0-0.67,0.545-1.216,1.215-1.216c0.222,0,0.438,0.06,0.628,0.174l5.548,3.023c0.293,0.175,0.493,0.442,0.572,0.758
		c0.079,0.315,0.03,0.642-0.137,0.921c-0.102,0.17-0.247,0.315-0.417,0.417l-5.585,3.046C11.65,18.944,11.437,19.003,11.219,19.003z
		 M11.216,11.5C11.097,11.5,11,11.597,11,11.716v6.07c0,0.04,0.011,0.078,0.031,0.112c0.03,0.051,0.076,0.084,0.133,0.098
		c0.018,0.005,0.036,0.007,0.053,0.007c0.038,0,0.076-0.011,0.11-0.031l5.586-3.047c0.008-0.005,0.036-0.03,0.056-0.064
		c0.03-0.049,0.038-0.107,0.024-0.164c-0.014-0.056-0.049-0.103-0.098-0.133l-5.549-3.024C11.295,11.511,11.257,11.5,11.216,11.5
		l0-0.25L11.216,11.5z"/>
</g>
</svg>
