<?xml version="1.0" encoding="utf-8"?>
<!-- Generator: Adobe Illustrator 22.1.0, SVG Export Plug-In . SVG Version: 6.00 Build 0)  -->
<svg version="1.1" id="Layer_1" xmlns="http://www.w3.org/2000/svg" xmlns:xlink="http://www.w3.org/1999/xlink" x="0px" y="0px"
	 viewBox="0 0 24 24" style="enable-background:new 0 0 24 24;" xml:space="preserve">
<g>
	<title>folder-media-1</title>
	<path d="M1.5,22.5C0.673,22.5,0,21.827,0,21V3c0-0.827,0.673-1.5,1.5-1.5H9c0.572,0,1.086,0.318,1.341,0.829l0.948,1.894
		C11.374,4.394,11.546,4.5,11.736,4.5H22.5C23.327,4.5,24,5.173,24,6v15c0,0.827-0.673,1.5-1.5,1.5H1.5z M1.5,2.5
		C1.224,2.5,1,2.724,1,3v18c0,0.276,0.224,0.5,0.5,0.5h21c0.276,0,0.5-0.224,0.5-0.5V6c0-0.276-0.224-0.5-0.5-0.5H11.736
		c-0.572,0-1.086-0.318-1.341-0.83L9.447,2.777C9.362,2.606,9.19,2.5,9,2.5H1.5z"/>
	<path d="M9.218,17.251c-0.1,0-0.199-0.012-0.296-0.037c-0.315-0.078-0.58-0.275-0.748-0.553C8.06,16.472,8,16.255,8,16.033V9.966
		c0-0.325,0.126-0.63,0.356-0.86c0.23-0.23,0.535-0.356,0.86-0.357c0.215,0,0.426,0.057,0.612,0.165l6.535,3.018
		c0.016,0.007,0.031,0.015,0.047,0.025c0.279,0.167,0.476,0.433,0.555,0.748c0.079,0.315,0.03,0.642-0.137,0.921
		c-0.102,0.17-0.247,0.315-0.417,0.417c-0.013,0.008-0.03,0.017-0.046,0.025l-6.557,3.029C9.641,17.194,9.431,17.251,9.218,17.251z
		 M9.216,9.75c-0.058,0-0.111,0.022-0.153,0.063C9.022,9.854,9,9.907,9,9.966v6.068c0,0.04,0.01,0.078,0.031,0.111
		c0.031,0.051,0.076,0.085,0.133,0.099c0.017,0.004,0.035,0.007,0.053,0.007c0.039,0,0.077-0.011,0.11-0.031
		c0.012-0.008,0.028-0.016,0.045-0.024l6.538-3.021c0.023-0.017,0.043-0.039,0.058-0.063c0.058-0.096,0.031-0.221-0.058-0.286
		l-6.536-3.02C9.359,9.799,9.342,9.79,9.326,9.78C9.294,9.76,9.255,9.75,9.216,9.75L9.216,9.75z"/>
</g>
</svg>
