<?xml version="1.0" encoding="utf-8"?>
<!-- Generator: Adobe Illustrator 22.1.0, SVG Export Plug-In . SVG Version: 6.00 Build 0)  -->
<svg version="1.1" id="Layer_1" xmlns="http://www.w3.org/2000/svg" xmlns:xlink="http://www.w3.org/1999/xlink" x="0px" y="0px"
	 viewBox="0 0 24 24" style="enable-background:new 0 0 24 24;" xml:space="preserve">
<title>laptop-download</title>
<g>
	<path d="M17.25,24c-3.722,0-6.75-3.028-6.75-6.75s3.028-6.75,6.75-6.75S24,13.528,24,17.25S20.972,24,17.25,24z M17.25,12
		C14.355,12,12,14.355,12,17.25s2.355,5.25,5.25,5.25s5.25-2.355,5.25-5.25S20.145,12,17.25,12z"/>
	<path d="M17.25,21c-0.087,0-0.174-0.016-0.258-0.046c-0.006-0.002-0.011-0.004-0.017-0.006c-0.104-0.042-0.186-0.097-0.256-0.167
		l-2.25-2.25c-0.292-0.292-0.292-0.768,0-1.061c0.142-0.142,0.33-0.22,0.53-0.22s0.389,0.078,0.53,0.22l0.97,0.97V14.25
		c0-0.414,0.336-0.75,0.75-0.75S18,13.836,18,14.25v4.189l0.97-0.97c0.142-0.142,0.33-0.22,0.53-0.22s0.389,0.078,0.53,0.22
		c0.292,0.292,0.292,0.768,0,1.061l-2.25,2.25c-0.07,0.07-0.152,0.125-0.245,0.163c-0.008,0.003-0.017,0.007-0.026,0.01
		C17.428,20.984,17.339,21,17.25,21z"/>
	<path d="M4.5,16.5C2.019,16.5,0,14.481,0,12c0-0.414,0.336-0.75,0.75-0.75h1.5v-9C2.25,1.009,3.259,0,4.5,0h15
		c1.241,0,2.25,1.009,2.25,2.25v6C21.75,8.664,21.414,9,21,9s-0.75-0.336-0.75-0.75v-6c0-0.414-0.336-0.75-0.75-0.75h-15
		c-0.414,0-0.75,0.336-0.75,0.75v9h6c0.414,0,0.75,0.336,0.75,0.75s-0.336,0.75-0.75,0.75H1.594C1.929,14.058,3.112,15,4.5,15h3.75
		C8.664,15,9,15.336,9,15.75S8.664,16.5,8.25,16.5H4.5z"/>
</g>
</svg>
