<?xml version="1.0" encoding="utf-8"?>
<!-- Generator: Adobe Illustrator 22.1.0, SVG Export Plug-In . SVG Version: 6.00 Build 0)  -->
<svg version="1.1" id="Layer_1" xmlns="http://www.w3.org/2000/svg" xmlns:xlink="http://www.w3.org/1999/xlink" x="0px" y="0px"
	 viewBox="0 0 24 24" style="enable-background:new 0 0 24 24;" xml:space="preserve">
<title>laptop-disable</title>
<g>
	<path d="M17.25,24c-1.789,0-3.475-0.695-4.749-1.957c-0.008-0.007-0.016-0.014-0.024-0.022c-0.01-0.01-0.019-0.02-0.028-0.031
		c-1.252-1.257-1.95-2.946-1.95-4.74c0-3.722,3.028-6.75,6.75-6.75c1.786,0,3.469,0.693,4.742,1.951
		c0.011,0.009,0.021,0.018,0.03,0.027c0.01,0.01,0.02,0.021,0.029,0.032C23.304,13.773,24,15.459,24,17.25
		C24,20.972,20.972,24,17.25,24z M14.108,21.451c0.906,0.679,2.007,1.049,3.142,1.049c2.895,0,5.25-2.355,5.25-5.25
		c0-1.135-0.37-2.236-1.048-3.141L14.108,21.451z M17.25,12C14.355,12,12,14.355,12,17.25c0,1.135,0.37,2.236,1.048,3.141
		l7.344-7.343C19.486,12.37,18.385,12,17.25,12z"/>
	<path d="M4.5,16.5C2.019,16.5,0,14.481,0,12c0-0.414,0.336-0.75,0.75-0.75h1.5v-9C2.25,1.009,3.259,0,4.5,0h15
		c1.241,0,2.25,1.009,2.25,2.25v6C21.75,8.664,21.414,9,21,9s-0.75-0.336-0.75-0.75v-6c0-0.414-0.336-0.75-0.75-0.75h-15
		c-0.414,0-0.75,0.336-0.75,0.75v9h6c0.414,0,0.75,0.336,0.75,0.75s-0.336,0.75-0.75,0.75H1.594C1.929,14.058,3.112,15,4.5,15h3.75
		C8.664,15,9,15.336,9,15.75S8.664,16.5,8.25,16.5H4.5z"/>
</g>
</svg>
