<?xml version="1.0" encoding="utf-8"?>
<!-- Generator: Adobe Illustrator 22.1.0, SVG Export Plug-In . SVG Version: 6.00 Build 0)  -->
<svg version="1.1" id="Layer_1" xmlns="http://www.w3.org/2000/svg" xmlns:xlink="http://www.w3.org/1999/xlink" x="0px" y="0px"
	 viewBox="0 0 24 24" style="enable-background:new 0 0 24 24;" xml:space="preserve">
<title>laptop-search</title>
<g>
	<path d="M23.249,24c-0.2,0-0.389-0.078-0.53-0.22l-3.293-3.293c-1.051,0.817-2.343,1.263-3.677,1.263c-3.308,0-6-2.692-6-6
		s2.692-6,6-6s6,2.692,6,6c0,1.333-0.446,2.626-1.263,3.677l3.293,3.293c0.292,0.292,0.292,0.768,0,1.061
		C23.638,23.922,23.45,24,23.249,24z M15.749,11.25c-2.481,0-4.5,2.019-4.5,4.5s2.019,4.5,4.5,4.5s4.5-2.019,4.5-4.5
		S18.231,11.25,15.749,11.25z"/>
	<path d="M4.499,16.5c-2.481,0-4.5-2.019-4.5-4.5c0-0.414,0.336-0.75,0.75-0.75h1.5v-9C2.249,1.009,3.259,0,4.499,0h15
		c1.241,0,2.25,1.009,2.25,2.25v6c0,0.414-0.336,0.75-0.75,0.75s-0.75-0.336-0.75-0.75v-6c0-0.414-0.336-0.75-0.75-0.75h-15
		c-0.414,0-0.75,0.336-0.75,0.75v9h4.5c0.414,0,0.75,0.336,0.75,0.75s-0.336,0.75-0.75,0.75H1.594C1.929,14.058,3.112,15,4.499,15
		h2.25c0.414,0,0.75,0.336,0.75,0.75s-0.336,0.75-0.75,0.75H4.499z"/>
</g>
</svg>
