<?xml version="1.0" encoding="utf-8"?>
<!-- Generator: Adobe Illustrator 22.1.0, SVG Export Plug-In . SVG Version: 6.00 Build 0)  -->
<svg version="1.1" id="Layer_1" xmlns="http://www.w3.org/2000/svg" xmlns:xlink="http://www.w3.org/1999/xlink" x="0px" y="0px"
	 viewBox="0 0 24 24" style="enable-background:new 0 0 24 24;" xml:space="preserve">
<title>laptop-settings</title>
<g>
	<path d="M17.25,19.001c-1.241,0-2.25-1.009-2.25-2.25s1.009-2.25,2.25-2.25s2.25,1.009,2.25,2.25S18.491,19.001,17.25,19.001z
		 M17.25,16.001c-0.414,0-0.75,0.336-0.75,0.75s0.336,0.75,0.75,0.75S18,17.164,18,16.751S17.664,16.001,17.25,16.001z"/>
	<path d="M17.253,24.253c-0.202,0-0.404-0.03-0.6-0.089c-0.672-0.201-1.194-0.723-1.395-1.395l-0.441-1.45
		c-0.031-0.103-0.128-0.174-0.235-0.174c-0.018,0-0.036,0.002-0.054,0.006l-1.47,0.34c-0.156,0.035-0.312,0.053-0.468,0.053
		c-0.393,0-0.778-0.112-1.113-0.324c-0.472-0.298-0.799-0.762-0.922-1.306c-0.152-0.673,0.038-1.376,0.508-1.882l1.031-1.111
		c0.089-0.096,0.089-0.246,0-0.341l-1.031-1.111c-0.38-0.408-0.578-0.94-0.557-1.498c0.02-0.558,0.257-1.074,0.665-1.454
		c0.387-0.361,0.892-0.559,1.422-0.559c0.154,0,0.309,0.017,0.46,0.051l1.477,0.342c0.016,0.004,0.034,0.006,0.052,0.006
		c0.107,0,0.204-0.071,0.235-0.173l0.443-1.454c0.261-0.871,1.081-1.48,1.993-1.48c0.201,0,0.402,0.029,0.596,0.088
		c0.672,0.202,1.193,0.723,1.395,1.394l0.441,1.451c0.031,0.103,0.128,0.174,0.235,0.174c0.018,0,0.036-0.002,0.054-0.006
		l1.471-0.341c0.154-0.035,0.308-0.052,0.463-0.052c0.969,0,1.826,0.685,2.039,1.63c0.152,0.673-0.038,1.376-0.508,1.882
		l-1.031,1.11c-0.089,0.096-0.089,0.246,0,0.341l1.031,1.112c0.38,0.408,0.578,0.94,0.557,1.498
		c-0.02,0.557-0.256,1.074-0.665,1.454c-0.388,0.361-0.893,0.559-1.422,0.559l0,0c-0.155,0-0.309-0.017-0.46-0.052l-1.476-0.342
		c-0.017-0.004-0.035-0.006-0.053-0.006c-0.107,0-0.203,0.071-0.234,0.174l-0.443,1.454c-0.158,0.53-0.515,0.967-1.004,1.231
		C17.933,24.166,17.593,24.253,17.253,24.253z M14.581,19.645c0.763,0,1.45,0.51,1.671,1.239l0.442,1.452
		c0.057,0.19,0.202,0.336,0.39,0.392c0.054,0.016,0.111,0.024,0.167,0.024c0.096,0,0.188-0.023,0.275-0.07
		c0.135-0.073,0.235-0.195,0.28-0.344l0.443-1.456c0.221-0.729,0.908-1.238,1.671-1.238c0.13,0,0.261,0.015,0.388,0.044l1.474,0.342
		c0.039,0.009,0.082,0.013,0.125,0.013c0.149,0,0.291-0.056,0.401-0.158c0.115-0.107,0.182-0.253,0.188-0.41
		c0.006-0.157-0.05-0.307-0.157-0.423l-1.031-1.112c-0.621-0.668-0.621-1.715,0-2.383l1.031-1.11
		c0.133-0.143,0.187-0.341,0.144-0.531c-0.06-0.266-0.302-0.459-0.575-0.459c-0.043,0-0.087,0.005-0.13,0.015l-1.468,0.34
		c-0.128,0.03-0.26,0.045-0.391,0.045c-0.762,0-1.449-0.51-1.67-1.239l-0.443-1.455c-0.056-0.187-0.202-0.333-0.389-0.389
		c-0.055-0.016-0.112-0.025-0.168-0.025c-0.095,0-0.188,0.023-0.273,0.07c-0.137,0.074-0.237,0.196-0.281,0.344l-0.443,1.456
		c-0.22,0.729-0.906,1.238-1.669,1.238c-0.131,0-0.262-0.015-0.39-0.044l-1.473-0.341c-0.039-0.009-0.082-0.013-0.125-0.013
		c-0.149,0-0.292,0.056-0.401,0.158c-0.115,0.107-0.182,0.253-0.188,0.41c-0.006,0.157,0.05,0.307,0.157,0.423l1.031,1.111
		c0.621,0.668,0.621,1.715,0,2.383l-1.031,1.111c-0.133,0.143-0.187,0.341-0.144,0.531c0.035,0.154,0.127,0.284,0.26,0.369
		c0.094,0.06,0.203,0.091,0.313,0.091c0.044,0,0.088-0.005,0.131-0.015l1.467-0.34C14.318,19.659,14.45,19.645,14.581,19.645z"/>
	<path d="M4.5,16.751c-2.481,0-4.5-2.019-4.5-4.5c0-0.414,0.336-0.75,0.75-0.75h1.5v-9c0-1.241,1.009-2.25,2.25-2.25h15
		c1.241,0,2.25,1.009,2.25,2.25v6c0,0.414-0.336,0.75-0.75,0.75s-0.75-0.336-0.75-0.75v-6c0-0.414-0.336-0.75-0.75-0.75h-15
		c-0.414,0-0.75,0.336-0.75,0.75v9h4.5c0.414,0,0.75,0.336,0.75,0.75c0,0.413-0.336,0.75-0.75,0.75H1.594
		c0.335,1.308,1.518,2.25,2.906,2.25h3.75c0.414,0,0.75,0.336,0.75,0.75s-0.336,0.75-0.75,0.75H4.5z"/>
</g>
</svg>
