<?xml version="1.0" encoding="utf-8"?>
<!-- Generator: Adobe Illustrator 22.1.0, SVG Export Plug-In . SVG Version: 6.00 Build 0)  -->
<svg version="1.1" id="Layer_1" xmlns="http://www.w3.org/2000/svg" xmlns:xlink="http://www.w3.org/1999/xlink" x="0px" y="0px"
	 viewBox="0 0 24 24" style="enable-background:new 0 0 24 24;" xml:space="preserve">
<title>laptop-flash</title>
<g>
	<path d="M17.249,24c-0.089,0-0.177-0.016-0.261-0.047c-0.292-0.108-0.489-0.391-0.489-0.703V18h-1.875
		c-0.265-0.001-0.521-0.095-0.722-0.263c-0.231-0.195-0.373-0.467-0.398-0.766c-0.026-0.299,0.066-0.591,0.26-0.822l5.916-6.888
		C19.822,9.095,20.03,9,20.249,9c0.089,0,0.176,0.016,0.26,0.046c0.294,0.109,0.49,0.392,0.49,0.704V15h1.875
		c0.266,0.001,0.522,0.095,0.723,0.264c0.475,0.4,0.537,1.112,0.138,1.586l-5.917,6.888C17.675,23.905,17.468,24,17.249,24z
		 M17.249,16.5c0.414,0,0.75,0.336,0.75,0.75v3.976l4.06-4.727l-1.81,0.001c-0.414,0-0.75-0.336-0.75-0.75v-3.976l-4.06,4.727
		L17.249,16.5z"/>
	<path d="M4.499,16.5c-2.481,0-4.5-2.019-4.5-4.5c0-0.414,0.336-0.75,0.75-0.75h1.5v-9C2.249,1.009,3.258,0,4.499,0h15
		c1.241,0,2.25,1.009,2.25,2.25v4.5c0,0.414-0.336,0.75-0.75,0.75s-0.75-0.336-0.75-0.75v-4.5c0-0.414-0.336-0.75-0.75-0.75h-15
		c-0.414,0-0.75,0.336-0.75,0.75v9h9c0.414,0,0.75,0.336,0.75,0.75s-0.336,0.75-0.75,0.75H1.593C1.928,14.058,3.111,15,4.499,15
		h6.75c0.414,0,0.75,0.336,0.75,0.75s-0.336,0.75-0.75,0.75H4.499z"/>
</g>
</svg>
