<svg xmlns="http://www.w3.org/2000/svg" viewBox="0 0 24 24"><title>arduino-plus-minus-1</title><path d="M24,10a1.509,1.509,0,0,0-.6-1.2L22,7.751V3.5A1.5,1.5,0,0,0,20.5,2H1.5A1.5,1.5,0,0,0,0,3.5v17A1.5,1.5,0,0,0,1.5,22h19A1.5,1.5,0,0,0,22,20.5v-2.25l1.4-1.05A1.508,1.508,0,0,0,24,16ZM19.125,11.94a3.684,3.684,0,0,1-2.728,3.6c-2.289.577-3.961-1.1-4.819-2.276a.25.25,0,0,0-.406,0c-.858,1.174-2.53,2.853-4.819,2.276a3.684,3.684,0,0,1-2.728-3.6A3.53,3.53,0,0,1,7.277,8.348a5.134,5.134,0,0,1,3.9,2.394.25.25,0,0,0,.406,0,5.134,5.134,0,0,1,3.9-2.394A3.53,3.53,0,0,1,19.125,11.94Z"/><path d="M6,12a.5.5,0,0,0,.5.5h2a.5.5,0,0,0,0-1h-2A.5.5,0,0,0,6,12Z"/><path d="M15.5,10.5a.5.5,0,0,0-.5.5v.25a.25.25,0,0,1-.25.25H14.5a.5.5,0,0,0,0,1h.25a.25.25,0,0,1,.25.25V13a.5.5,0,0,0,1,0v-.25a.25.25,0,0,1,.25-.25h.25a.5.5,0,0,0,0-1h-.25a.25.25,0,0,1-.25-.25V11A.5.5,0,0,0,15.5,10.5Z"/></svg>