<svg xmlns="http://www.w3.org/2000/svg" viewBox="0 0 24 24"><defs><style>.a{fill:none;stroke:currentColor;stroke-linecap:round;stroke-linejoin:round;}</style></defs><title>password-approved-1</title><path class="a" d="M9.5,13.5h-8a1,1,0,0,1-1-1v-7a1,1,0,0,1,1-1h21a1,1,0,0,1,1,1v5.021"/><line class="a" x1="4.5" y1="7" x2="4.5" y2="11"/><line class="a" x1="6.173" y1="7.903" x2="2.828" y2="10.097"/><line class="a" x1="6.164" y1="10.11" x2="2.836" y2="7.89"/><line class="a" x1="10.5" y1="7" x2="10.5" y2="11"/><line class="a" x1="12.173" y1="7.903" x2="8.828" y2="10.097"/><line class="a" x1="12.164" y1="10.11" x2="8.836" y2="7.89"/><circle class="a" cx="17.5" cy="17.5" r="6"/><path class="a" d="M20.174,15.756l-2.905,3.873a.751.751,0,0,1-1.13.081l-1.5-1.5"/></svg>