<svg xmlns="http://www.w3.org/2000/svg" viewBox="0 0 24 24"><defs><style>.a{fill:none;stroke:currentColor;stroke-linecap:round;stroke-linejoin:round;}</style></defs><title>touch-password-lock-1</title><path class="a" d="M6.5,12.5h-5a1,1,0,0,1-1-1v-7a1,1,0,0,1,1-1h11"/><rect class="a" x="14.5" y="4.5" width="9" height="7" rx="1" ry="1"/><path class="a" d="M16,4.5v-1a3,3,0,0,1,6,0v1"/><path class="a" d="M20.25,8A1.249,1.249,0,0,1,19,9.25h0A1.249,1.249,0,0,1,17.75,8h0A1.249,1.249,0,0,1,19,6.75h0A1.249,1.249,0,0,1,20.25,8Z"/><path class="a" d="M7.653,23.5,3.847,18.921A1.5,1.5,0,0,1,6.154,17L8.5,19.826V10a1.5,1.5,0,0,1,3,0v6.5h3a4,4,0,0,1,4,4v3"/></svg>