<svg xmlns="http://www.w3.org/2000/svg" viewBox="0 0 24 24"><defs><style>.a{fill:none;stroke:currentColor;stroke-linecap:round;stroke-linejoin:round;}</style></defs><title>headphones-customer-support-human-1</title><path class="a" d="M14.31,1.579c4.865.61,9,4.708,9,9.672a9.724,9.724,0,0,1-4,7.861V23.5"/><path class="a" d="M4.31,16v-.5H2a.5.5,0,0,1-.474-.654C3.435,8.932,4.809,2.572,11.31,1.622"/><path class="a" d="M9.31,23.5v-2h-2A3.021,3.021,0,0,1,6.4,21.36"/><rect class="a" x="11.31" y="0.501" width="3" height="9" rx="1" ry="1"/><circle class="a" cx="12.81" cy="13.001" r="1.5"/><path class="a" d="M14.28,8.746a4.5,4.5,0,1,1-2.939,0"/><rect class="a" x="2.31" y="18.001" width="3" height="2.5" rx="1.25" ry="1.25"/><path class="a" d="M12.355,14.43c-1.723,2.756-4.627,4.821-7.045,4.821"/></svg>