<svg xmlns="http://www.w3.org/2000/svg" viewBox="0 0 24 24"><defs><style>.a{fill:none;stroke:currentColor;stroke-linecap:round;stroke-linejoin:round;}</style></defs><title>help-question-network</title><line class="a" x1="17.011" y1="7.021" x2="20.118" y2="3.934"/><circle class="a" cx="21.511" cy="2.501" r="2"/><line class="a" x1="17.973" y1="17.98" x2="20.087" y2="20.108"/><circle class="a" cx="21.52" cy="21.501" r="2"/><line class="a" x1="7.011" y1="7.021" x2="3.903" y2="3.934"/><circle class="a" cx="2.511" cy="2.501" r="2"/><line class="a" x1="6.049" y1="17.98" x2="3.934" y2="20.108"/><circle class="a" cx="2.5" cy="21.501" r="2"/><line class="a" x1="16.511" y1="11.501" x2="19.511" y2="11.501"/><circle class="a" cx="21.511" cy="11.501" r="2"/><line class="a" x1="7.511" y1="11.501" x2="4.511" y2="11.501"/><circle class="a" cx="2.511" cy="11.501" r="2"/><path class="a" d="M12.02,17a.25.25,0,1,1-.25.25.249.249,0,0,1,.25-.25"/><path class="a" d="M9.02,10a3,3,0,1,1,4.2,2.75,2,2,0,0,0-1.2,1.834V15"/></svg>