<svg id="Light" xmlns="http://www.w3.org/2000/svg" viewBox="0 0 24 24"><defs><style>.cls-1{fill:none;stroke:currentColor;stroke-linecap:round;stroke-linejoin:round;}</style></defs><title>gender-bisexual</title><path class="cls-1" d="M12.5,23.5H14l1-5h3.5C16.983,12.969,17,9,12.532,9.009"/><path class="cls-1" d="M10.389,5a1.484,1.484,0,0,0,2.222,0"/><path class="cls-1" d="M10.5,9.05A4.984,4.984,0,0,0,6,14v4.5H8.5v5h2"/><path class="cls-1" d="M10.5.55a3.484,3.484,0,0,0,0,6.9"/><path class="cls-1" d="M12.5.55a3.484,3.484,0,0,1,0,6.9"/><path class="cls-1" d="M5.5.5h-3a2,2,0,0,0-2,2v19a2,2,0,0,0,2,2h3"/><path class="cls-1" d="M18.5,23.5h3a2,2,0,0,0,2-2V2.5a2,2,0,0,0-2-2h-3"/></svg>