<?xml version="1.0" encoding="utf-8"?>
<!-- Generator: Adobe Illustrator 22.1.0, SVG Export Plug-In . SVG Version: 6.00 Build 0)  -->
<svg version="1.1" id="Layer_1" xmlns="http://www.w3.org/2000/svg" xmlns:xlink="http://www.w3.org/1999/xlink" x="0px" y="0px"
	 viewBox="0 0 24 24" style="enable-background:new 0 0 24 24;" xml:space="preserve">
<g>
	<title>speakers-1</title>
	<path d="M5,24c-0.827,0-1.5-0.673-1.5-1.5v-21C3.5,0.673,4.173,0,5,0h14c0.827,0,1.5,0.673,1.5,1.5v21c0,0.827-0.673,1.5-1.5,1.5H5
		z M5,1C4.724,1,4.5,1.224,4.5,1.5v21C4.5,22.776,4.724,23,5,23h14c0.276,0,0.5-0.224,0.5-0.5v-21C19.5,1.224,19.276,1,19,1H5z"/>
	<path d="M12,21.5c-3.033,0-5.5-2.467-5.5-5.5s2.467-5.5,5.5-5.5s5.5,2.467,5.5,5.5S15.033,21.5,12,21.5z M12,11.5
		c-2.481,0-4.5,2.019-4.5,4.5s2.019,4.5,4.5,4.5c2.481,0,4.5-2.019,4.5-4.5S14.481,11.5,12,11.5z"/>
	<path d="M12,9c-1.654,0-3-1.346-3-3s1.346-3,3-3c1.654,0,3,1.346,3,3S13.654,9,12,9z M12,4c-1.103,0-2,0.897-2,2s0.897,2,2,2
		s2-0.897,2-2S13.103,4,12,4z"/>
	<path d="M12,18c-1.103,0-2-0.897-2-2s0.897-2,2-2s2,0.897,2,2S13.103,18,12,18z M12,15c-0.551,0-1,0.448-1,1s0.449,1,1,1
		c0.552,0,1-0.448,1-1S12.552,15,12,15z"/>
	<circle cx="12" cy="6" r="0.75"/>
</g>
</svg>
