<?xml version="1.0" encoding="utf-8"?>
<!-- Generator: Adobe Illustrator 22.1.0, SVG Export Plug-In . SVG Version: 6.00 Build 0)  -->
<svg version="1.1" id="Layer_1" xmlns="http://www.w3.org/2000/svg" xmlns:xlink="http://www.w3.org/1999/xlink" x="0px" y="0px"
	 viewBox="0 0 24 24" style="enable-background:new 0 0 24 24;" xml:space="preserve">
<g>
	<title>speaker</title>
	<path d="M4.5,24C2.019,24,0,21.981,0,19.5v-15C0,2.019,2.019,0,4.5,0h15C21.981,0,24,2.019,24,4.5v15c0,2.481-2.019,4.5-4.5,4.5
		H4.5z M4.5,1C2.57,1,1,2.57,1,4.5v15C1,21.43,2.57,23,4.5,23h15c1.93,0,3.5-1.57,3.5-3.5v-15C23,2.57,21.43,1,19.5,1H4.5z"/>
	<path d="M12,14.5c-1.379,0-2.5-1.122-2.5-2.5c0-1.379,1.121-2.5,2.5-2.5c1.378,0,2.5,1.121,2.5,2.5
		C14.5,13.378,13.378,14.5,12,14.5z M12,10.5c-0.827,0-1.5,0.673-1.5,1.5s0.673,1.5,1.5,1.5s1.5-0.673,1.5-1.5S12.827,10.5,12,10.5z
		"/>
	<path d="M12,19c-3.86,0-7-3.14-7-7s3.14-7,7-7s7,3.14,7,7S15.86,19,12,19z M12,6c-3.308,0-6,2.692-6,6s2.692,6,6,6s6-2.692,6-6
		S15.308,6,12,6z"/>
	<path d="M12,21.5c-5.238,0-9.5-4.262-9.5-9.5S6.762,2.5,12,2.5s9.5,4.262,9.5,9.5S17.238,21.5,12,21.5z M12,3.5
		c-4.687,0-8.5,3.813-8.5,8.5c0,4.687,3.813,8.5,8.5,8.5c4.687,0,8.5-3.813,8.5-8.5C20.5,7.313,16.687,3.5,12,3.5z"/>
	<path d="M3.5,4.751c-0.414,0-0.75-0.336-0.75-0.75c0-0.414,0.336-0.751,0.75-0.751c0.022,0,0.043,0.001,0.064,0.004
		C3.941,3.277,4.25,3.606,4.25,4.001C4.25,4.415,3.914,4.751,3.5,4.751z"/>
	<circle cx="20.5" cy="4.001" r="0.75"/>
	<circle cx="3.5" cy="20.501" r="0.75"/>
	<circle cx="20.5" cy="20.501" r="0.75"/>
</g>
</svg>
