<?xml version="1.0" encoding="utf-8"?>
<!-- Generator: Adobe Illustrator 22.1.0, SVG Export Plug-In . SVG Version: 6.00 Build 0)  -->
<svg version="1.1" id="Layer_1" xmlns="http://www.w3.org/2000/svg" xmlns:xlink="http://www.w3.org/1999/xlink" x="0px" y="0px"
	 viewBox="0 0 24 24" style="enable-background:new 0 0 24 24;" xml:space="preserve">
<g>
	<title>speakers</title>
	<path d="M11.99,7.974c-1.103,0-2-0.897-2-2s0.897-2,2-2s2,0.897,2,2S13.093,7.974,11.99,7.974z M11.99,4.974c-0.551,0-1,0.449-1,1
		s0.449,1,1,1c0.552,0,1-0.449,1-1S12.542,4.974,11.99,4.974z"/>
	<path d="M11.99,20.974c-3.308,0-6-2.692-6-6c0-3.308,2.692-6,6-6s6,2.692,6,6C17.99,18.282,15.298,20.974,11.99,20.974z
		 M11.99,9.974c-2.757,0-5,2.243-5,5s2.243,5,5,5c2.757,0,5-2.243,5-5S14.747,9.974,11.99,9.974z"/>
	<path d="M11.99,17.474c-1.379,0-2.5-1.122-2.5-2.5s1.121-2.5,2.5-2.5c1.378,0,2.5,1.122,2.5,2.5S13.368,17.474,11.99,17.474z
		 M11.99,13.474c-0.827,0-1.5,0.673-1.5,1.5s0.673,1.5,1.5,1.5s1.5-0.673,1.5-1.5S12.817,13.474,11.99,13.474z"/>
	<circle cx="6" cy="3" r="0.75"/>
	<circle cx="18" cy="3" r="0.75"/>
	<circle cx="18" cy="21" r="0.75"/>
	<circle cx="6" cy="21" r="0.75"/>
	<path d="M5.5,24C4.121,24,3,22.878,3,21.5v-19C3,1.121,4.121,0,5.5,0h13C19.878,0,21,1.121,21,2.5v19c0,1.378-1.122,2.5-2.5,2.5
		H5.5z M5.5,1C4.673,1,4,1.673,4,2.5v19C4,22.327,4.673,23,5.5,23h13c0.827,0,1.5-0.673,1.5-1.5v-19C20,1.673,19.327,1,18.5,1H5.5z"
		/>
</g>
</svg>
