<svg xmlns="http://www.w3.org/2000/svg" viewBox="0 0 24 24"><defs><style>.a{fill:none;stroke:currentColor;stroke-linecap:round;stroke-linejoin:round;}</style></defs><title>content-brush-pen</title><rect class="a" x="1.412" y="11.627" width="17.677" height="4.244" transform="translate(-6.72 11.278) rotate(-45.01)"/><path class="a" d="M13.56,16.608,21,23.5c2,0,2.5-.5,2.5-2.5l-7.959-6.308"/><path class="a" d="M22.5,4.5a2.213,2.213,0,0,1,0,3l-5,5"/><line class="a" x1="2.25" y1="21.75" x2="0.5" y2="23.5"/><rect class="a" x="15.361" y="2.629" width="7.778" height="4.243" transform="translate(2.279 15.003) rotate(-45)"/><polyline class="a" points="3.249 19.25 1.5 20.999 3 22.5 4.75 20.75"/><path class="a" d="M3,.5c-.183,3.741,3.217,3.281,4.68,4.371a3.559,3.559,0,0,1,.719,4.947C4.647,14.842-2.593,5.9,3,.5Z"/></svg>