<?xml version="1.0" encoding="utf-8"?>
<!-- Generator: Adobe Illustrator 22.1.0, SVG Export Plug-In . SVG Version: 6.00 Build 0)  -->
<svg version="1.1" id="Light" xmlns="http://www.w3.org/2000/svg" xmlns:xlink="http://www.w3.org/1999/xlink" x="0px" y="0px"
	 viewBox="0 0 24 24" style="enable-background:new 0 0 24 24;" xml:space="preserve">
<g>
	<title>multiple-actions-flag</title>
	<path d="M3.5,24c-0.258,0-0.477-0.201-0.498-0.458L2.54,18H0.5C0.224,18,0,17.776,0,17.5V14c0-3.033,2.467-5.5,5.5-5.5
		S11,10.967,11,14v3.5c0,0.276-0.224,0.5-0.5,0.5H8.46l-0.462,5.542C7.977,23.799,7.758,24,7.5,24H3.5z M7.04,23l0.462-5.542
		C7.523,17.201,7.742,17,8,17h2v-3c0-2.481-2.019-4.5-4.5-4.5S1,11.519,1,14v3h2c0.258,0,0.477,0.201,0.498,0.458L3.96,23H7.04z"/>
	<path d="M5.5,8c-2.206,0-4-1.794-4-4s1.794-4,4-4s4,1.794,4,4S7.706,8,5.5,8z M5.5,1c-1.654,0-3,1.346-3,3s1.346,3,3,3s3-1.346,3-3
		S7.154,1,5.5,1z"/>
	<path d="M17.439,10.87c-0.128,0-0.25-0.049-0.344-0.137c-0.844-0.799-1.941-1.239-3.09-1.239c-0.663,0-1.307,0.144-1.916,0.428
		c-0.066,0.031-0.137,0.047-0.211,0.047c-0.193,0-0.371-0.113-0.453-0.289c-0.057-0.121-0.062-0.257-0.017-0.382
		s0.137-0.226,0.258-0.282c0.743-0.347,1.53-0.523,2.34-0.523c1.405,0,2.746,0.537,3.776,1.513c0.2,0.189,0.209,0.506,0.02,0.707
		C17.708,10.813,17.575,10.87,17.439,10.87z"/>
	<path d="M14,8c-1.93,0-3.5-1.57-3.5-3.5S12.07,1,14,1s3.5,1.57,3.5,3.5S15.93,8,14,8z M14,2c-1.378,0-2.5,1.121-2.5,2.5
		S12.622,7,14,7s2.5-1.121,2.5-2.5S15.378,2,14,2z"/>
	<path d="M15.5,24c-0.276,0-0.5-0.224-0.5-0.5l0.001-9.484c0-0.216,0.137-0.406,0.342-0.474l1.075-0.358
		C16.784,13.062,17.165,13,17.549,13c0.668,0,1.322,0.188,1.892,0.545c0.558,0.311,1.202,0.479,1.852,0.479
		c0.337,0,0.674-0.044,1.003-0.132l0.387-0.13c0.102-0.034,0.208-0.051,0.315-0.051c0.271,0,0.521,0.105,0.709,0.294
		C23.897,14.192,24,14.444,24,14.71v4.779c-0.001,0.431-0.276,0.812-0.684,0.948l-0.732,0.245c-0.429,0.122-0.862,0.182-1.299,0.182
		c-0.82,0-1.626-0.212-2.33-0.613c-0.427-0.286-0.904-0.431-1.395-0.431c-0.28,0-0.555,0.048-0.817,0.142L16,20.21v3.29
		C16,23.776,15.776,24,15.5,24z M17.562,18.819c0.688,0,1.352,0.201,1.92,0.583c0.529,0.3,1.157,0.464,1.801,0.464
		c0.342,0,0.681-0.047,1.006-0.139l0.71-0.238L23,14.71l-0.417,0.138c-0.434,0.116-0.863,0.173-1.291,0.173
		c-0.822,0-1.638-0.213-2.361-0.617C18.504,14.138,18.029,14,17.546,14c-0.275,0-0.549,0.044-0.812,0.132l-0.733,0.244L16,19.156
		l0.417-0.139C16.78,18.886,17.167,18.819,17.562,18.819z"/>
</g>
</svg>
