<?xml version="1.0" encoding="utf-8"?>
<!-- Generator: Adobe Illustrator 22.1.0, SVG Export Plug-In . SVG Version: 6.00 Build 0)  -->
<svg version="1.1" id="Light" xmlns="http://www.w3.org/2000/svg" xmlns:xlink="http://www.w3.org/1999/xlink" x="0px" y="0px"
	 viewBox="0 0 24 24" style="enable-background:new 0 0 24 24;" xml:space="preserve">
<g>
	<title>multiple-actions-wifi</title>
	<path d="M3.5,24c-0.258,0-0.477-0.201-0.498-0.458L2.54,18H0.5C0.224,18,0,17.776,0,17.5V14c-0.001-2.404,1.536-4.511,3.827-5.242
		c0.547-0.175,1.112-0.263,1.679-0.263c0.866,0,1.736,0.213,2.516,0.615c1.306,0.674,2.271,1.815,2.718,3.214
		c0.084,0.263-0.062,0.545-0.324,0.628c-0.048,0.016-0.1,0.024-0.153,0.024l0,0c-0.218,0-0.409-0.14-0.476-0.348
		c-0.366-1.145-1.155-2.079-2.224-2.63c-0.647-0.334-1.34-0.503-2.058-0.503c-0.464,0-0.926,0.073-1.374,0.216
		C2.257,10.309,0.999,12.032,1,14v3h2c0.258,0,0.477,0.201,0.498,0.458L3.96,23h3.08l0.462-5.542C7.523,17.201,7.742,17,8,17h1.938
		c0.276,0,0.5,0.224,0.5,0.5s-0.224,0.5-0.5,0.5H8.46l-0.462,5.542C7.976,23.799,7.758,24,7.5,24H3.5z"/>
	<path d="M5.5,8c-2.206,0-4-1.794-4-4s1.794-4,4-4s4,1.794,4,4S7.705,8,5.5,8z M5.5,1c-1.654,0-3,1.346-3,3s1.346,3,3,3s3-1.346,3-3
		S7.154,1,5.5,1z"/>
	<path d="M17.438,10.87c-0.129,0-0.251-0.049-0.344-0.137c-0.843-0.799-1.939-1.24-3.087-1.24c-0.663,0-1.308,0.145-1.917,0.43
		c-0.066,0.031-0.138,0.047-0.212,0.047c-0.193,0-0.371-0.113-0.453-0.288c-0.117-0.25-0.009-0.548,0.241-0.665
		c0.743-0.348,1.531-0.524,2.342-0.524c1.404,0,2.745,0.538,3.775,1.515c0.2,0.19,0.208,0.507,0.019,0.707
		C17.707,10.813,17.574,10.87,17.438,10.87z"/>
	<path d="M14,8c-1.93,0-3.5-1.57-3.5-3.5S12.07,1,14,1s3.5,1.57,3.5,3.5S15.93,8,14,8z M14,2c-1.378,0-2.5,1.121-2.5,2.5
		S12.621,7,14,7s2.5-1.121,2.5-2.5S15.378,2,14,2z"/>
	<path d="M17.5,24c-1.103,0-2-0.897-2-2s0.897-2,2-2s2,0.897,2,2S18.602,24,17.5,24z M17.5,21c-0.552,0-1,0.448-1,1s0.448,1,1,1
		s1-0.448,1-1S18.051,21,17.5,21z"/>
	<path d="M20.825,19.12c-0.11,0-0.215-0.035-0.303-0.102c-0.86-0.654-1.934-1.014-3.023-1.014s-2.163,0.36-3.024,1.014
		c-0.087,0.067-0.192,0.102-0.302,0.102c-0.156,0-0.305-0.074-0.399-0.198c-0.08-0.105-0.115-0.237-0.097-0.369
		c0.018-0.133,0.087-0.25,0.193-0.331c1.033-0.785,2.322-1.218,3.629-1.218s2.595,0.432,3.629,1.218
		c0.106,0.081,0.175,0.198,0.193,0.331c0.018,0.132-0.017,0.264-0.098,0.37C21.13,19.046,20.981,19.12,20.825,19.12z"/>
	<path d="M23.499,16c-0.108,0-0.212-0.034-0.299-0.099c-1.623-1.216-3.648-1.886-5.701-1.886s-4.077,0.669-5.7,1.885
		C11.712,15.966,11.609,16,11.5,16c-0.157,0-0.306-0.075-0.4-0.2c-0.165-0.221-0.12-0.535,0.1-0.7
		c1.795-1.344,4.032-2.084,6.3-2.084s4.505,0.74,6.3,2.084c0.22,0.166,0.266,0.479,0.101,0.7C23.805,15.925,23.656,16,23.499,16z"/>
</g>
</svg>
