<?xml version="1.0" encoding="utf-8"?>
<!-- Generator: Adobe Illustrator 22.1.0, SVG Export Plug-In . SVG Version: 6.00 Build 0)  -->
<svg version="1.1" id="Light" xmlns="http://www.w3.org/2000/svg" xmlns:xlink="http://www.w3.org/1999/xlink" x="0px" y="0px"
	 viewBox="0 0 24 24" style="enable-background:new 0 0 24 24;" xml:space="preserve">
<g>
	<title>multiple-actions-video</title>
	<path d="M14.5,24c-0.827,0-1.5-0.673-1.5-1.5v-5c0-0.827,0.673-1.5,1.5-1.5h6c0.8,0,1.456,0.63,1.498,1.419l0.721-0.212
		c0.092-0.027,0.186-0.041,0.281-0.041c0.552,0,1,0.448,1,1v3.639c0,0.109-0.017,0.216-0.052,0.318
		c-0.084,0.252-0.262,0.458-0.501,0.577c-0.139,0.069-0.294,0.106-0.447,0.106l0,0c-0.107,0-0.214-0.017-0.316-0.051L22,22.527
		C21.985,23.342,21.318,24,20.5,24H14.5z M14.5,17c-0.276,0-0.5,0.224-0.5,0.5v5c0,0.276,0.224,0.5,0.5,0.5h6
		c0.276,0,0.5-0.224,0.5-0.5v-0.667c0-0.16,0.077-0.312,0.207-0.406c0.086-0.062,0.187-0.095,0.292-0.095
		c0.054,0,0.108,0.009,0.16,0.026L23,21.807l0-3.64l-1.359,0.399c-0.045,0.014-0.093,0.021-0.141,0.021
		c-0.107,0-0.213-0.035-0.299-0.099C21.075,18.394,21,18.244,21,18.087V17.5c0-0.276-0.224-0.5-0.5-0.5H14.5z"/>
	<path d="M3.5,24c-0.258,0-0.477-0.201-0.498-0.458L2.54,18H0.5C0.224,18,0,17.776,0,17.5V14c0-3.033,2.467-5.5,5.5-5.5
		S11,10.967,11,14v3.5c0,0.276-0.224,0.5-0.5,0.5H8.46l-0.462,5.542C7.977,23.799,7.758,24,7.5,24H3.5z M7.04,23l0.462-5.542
		C7.523,17.201,7.742,17,8,17h2v-3c0-2.481-2.019-4.5-4.5-4.5S1,11.519,1,14v3h2c0.258,0,0.477,0.201,0.498,0.458L3.96,23H7.04z"/>
	<path d="M5.5,8c-2.206,0-4-1.794-4-4s1.794-4,4-4s4,1.794,4,4S7.706,8,5.5,8z M5.5,1c-1.654,0-3,1.346-3,3s1.346,3,3,3s3-1.346,3-3
		S7.154,1,5.5,1z"/>
	<path d="M14,8c-1.93,0-3.5-1.57-3.5-3.5S12.07,1,14,1s3.5,1.57,3.5,3.5S15.93,8,14,8z M14,2c-1.378,0-2.5,1.121-2.5,2.5
		S12.622,7,14,7s2.5-1.121,2.5-2.5S15.378,2,14,2z"/>
	<path d="M18.7,12.985c-0.219,0-0.411-0.14-0.477-0.349c-0.364-1.146-1.152-2.081-2.219-2.634c-0.649-0.336-1.344-0.507-2.064-0.507
		c-0.461,0-0.921,0.072-1.367,0.214c-0.307,0.098-0.605,0.229-0.885,0.39c-0.076,0.044-0.162,0.067-0.249,0.067
		c-0.179,0-0.345-0.096-0.434-0.25c-0.137-0.239-0.055-0.545,0.184-0.683c0.342-0.197,0.706-0.358,1.082-0.477
		c0.545-0.173,1.107-0.26,1.671-0.26c0.87,0,1.742,0.214,2.523,0.619c1.304,0.675,2.268,1.819,2.712,3.219
		c0.04,0.127,0.029,0.263-0.032,0.381c-0.062,0.119-0.166,0.206-0.293,0.247C18.803,12.977,18.752,12.985,18.7,12.985z"/>
</g>
</svg>
