<?xml version="1.0" encoding="utf-8"?>
<!-- Generator: Adobe Illustrator 22.1.0, SVG Export Plug-In . SVG Version: 6.00 Build 0)  -->
<svg version="1.1" id="Light" xmlns="http://www.w3.org/2000/svg" xmlns:xlink="http://www.w3.org/1999/xlink" x="0px" y="0px"
	 viewBox="0 0 24 24" style="enable-background:new 0 0 24 24;" xml:space="preserve">
<g>
	<title>multiple-actions-heart</title>
	<path d="M3.501,24c-0.258,0-0.477-0.201-0.498-0.458L2.541,18h-2.04c-0.276,0-0.5-0.224-0.5-0.5V14c0-3.033,2.467-5.5,5.5-5.5
		s5.5,2.467,5.5,5.5v3.5c0,0.276-0.224,0.5-0.5,0.5h-2.04L8,23.542C7.978,23.799,7.759,24,7.501,24H3.501z M7.041,23l0.462-5.542
		C7.525,17.201,7.744,17,8.001,17h2v-3c0-2.481-2.019-4.5-4.5-4.5s-4.5,2.019-4.5,4.5v3h2c0.258,0,0.477,0.201,0.498,0.458L3.961,23
		H7.041z"/>
	<path d="M5.501,8c-2.206,0-4-1.794-4-4s1.794-4,4-4s4,1.794,4,4S7.707,8,5.501,8z M5.501,1c-1.654,0-3,1.346-3,3s1.346,3,3,3
		s3-1.346,3-3S7.156,1,5.501,1z"/>
	<path d="M14.001,8c-1.93,0-3.5-1.57-3.5-3.5s1.57-3.5,3.5-3.5s3.5,1.57,3.5,3.5S15.931,8,14.001,8z M14.001,2
		c-1.378,0-2.5,1.121-2.5,2.5s1.122,2.5,2.5,2.5s2.5-1.121,2.5-2.5S15.38,2,14.001,2z"/>
	<path d="M18.701,12.985c-0.219,0-0.411-0.14-0.477-0.349c-0.364-1.146-1.152-2.081-2.219-2.634
		c-0.649-0.336-1.343-0.507-2.064-0.507c-0.461,0-0.921,0.072-1.367,0.214c-0.307,0.098-0.605,0.229-0.885,0.39
		c-0.076,0.044-0.162,0.067-0.249,0.067c-0.179,0-0.345-0.096-0.434-0.25c-0.137-0.239-0.055-0.545,0.184-0.683
		c0.342-0.197,0.706-0.358,1.082-0.477c0.545-0.173,1.107-0.26,1.671-0.26c0.87,0,1.742,0.214,2.523,0.619
		c1.304,0.675,2.268,1.819,2.712,3.219c0.04,0.127,0.029,0.263-0.032,0.381c-0.062,0.119-0.166,0.206-0.293,0.247
		C18.804,12.977,18.753,12.985,18.701,12.985z"/>
	<path d="M18.64,23.777c-0.259,0-0.505-0.099-0.692-0.278l-0.024-0.023l-3.784-3.948c-0.893-0.893-1.114-2.26-0.545-3.397
		c0.353-0.705,0.958-1.23,1.705-1.479c0.304-0.101,0.618-0.152,0.935-0.152c0.459,0,0.902,0.105,1.317,0.313
		c0.284,0.142,0.542,0.328,0.766,0.552l0.323,0.323l0.323-0.323c0.557-0.557,1.297-0.864,2.085-0.864
		c0.788,0,1.528,0.307,2.085,0.864c0.225,0.225,0.41,0.482,0.552,0.766c0.569,1.137,0.347,2.505-0.552,3.404l-3.772,3.935
		C19.172,23.667,18.915,23.777,18.64,23.777z M16.234,15.5c-0.209,0-0.417,0.034-0.618,0.101c-0.494,0.165-0.894,0.512-1.127,0.977
		c-0.376,0.751-0.229,1.656,0.365,2.25l3.785,3.949l3.779-3.942c0.6-0.6,0.748-1.506,0.372-2.257
		c-0.094-0.187-0.216-0.357-0.365-0.506c-0.368-0.368-0.857-0.571-1.378-0.571s-1.01,0.203-1.378,0.571l-0.676,0.676
		c-0.094,0.094-0.22,0.146-0.354,0.146s-0.259-0.052-0.354-0.146l-0.676-0.676c-0.148-0.148-0.319-0.271-0.506-0.365
		C16.83,15.569,16.537,15.5,16.234,15.5z"/>
</g>
</svg>
