<?xml version="1.0" encoding="utf-8"?>
<!-- Generator: Adobe Illustrator 22.1.0, SVG Export Plug-In . SVG Version: 6.00 Build 0)  -->
<svg version="1.1" id="Light" xmlns="http://www.w3.org/2000/svg" xmlns:xlink="http://www.w3.org/1999/xlink" x="0px" y="0px"
	 viewBox="0 0 24 24" style="enable-background:new 0 0 24 24;" xml:space="preserve">
<g>
	<title>multiple-actions-star</title>
	<path d="M3.5,24c-0.258,0-0.477-0.201-0.498-0.458L2.54,18H0.5C0.224,18,0,17.776,0,17.5V14c0-3.033,2.467-5.5,5.5-5.5
		S11,10.968,11,14v3.5c0,0.276-0.224,0.5-0.5,0.5H8.46l-0.462,5.542C7.977,23.799,7.758,24,7.5,24H3.5z M7.04,23l0.462-5.542
		C7.523,17.202,7.742,17,8,17h2v-3c0-2.481-2.019-4.5-4.5-4.5S1,11.519,1,14v3h2c0.258,0,0.477,0.201,0.498,0.458L3.96,23H7.04z"/>
	<path d="M5.5,8c-2.206,0-4-1.794-4-4s1.794-4,4-4s4,1.794,4,4S7.705,8,5.5,8z M5.5,1c-1.654,0-3,1.346-3,3s1.346,3,3,3s3-1.346,3-3
		S7.154,1,5.5,1z"/>
	<path d="M17.439,10.87c-0.128,0-0.25-0.049-0.344-0.137c-0.844-0.799-1.941-1.239-3.09-1.239c-0.663,0-1.307,0.144-1.916,0.428
		c-0.066,0.031-0.138,0.047-0.211,0.047c0,0,0,0,0,0c-0.193,0-0.371-0.113-0.453-0.288c-0.057-0.121-0.063-0.257-0.017-0.382
		s0.137-0.226,0.258-0.282c0.743-0.347,1.53-0.523,2.341-0.523c1.404,0,2.745,0.537,3.776,1.513c0.2,0.189,0.209,0.506,0.02,0.707
		C17.707,10.813,17.575,10.87,17.439,10.87z"/>
	<path d="M14,8c-1.93,0-3.5-1.57-3.5-3.5S12.07,1,14,1s3.5,1.57,3.5,3.5S15.93,8,14,8z M14,2c-1.378,0-2.5,1.121-2.5,2.5
		S12.621,7,14,7s2.5-1.121,2.5-2.5S15.378,2,14,2z"/>
	<path d="M15.277,24.004c-0.411,0-0.795-0.22-1-0.575c-0.18-0.311-0.205-0.695-0.065-1.026l1.065-2.452l-1.927-1.894
		c-0.444-0.394-0.481-1.094-0.074-1.552c0.211-0.238,0.511-0.374,0.824-0.374l0.051,0.001l2.155,0l1.151-2.479
		c0.204-0.406,0.604-0.653,1.047-0.653c0.18,0,0.361,0.043,0.522,0.125c0.22,0.111,0.396,0.286,0.51,0.506l1.156,2.498l2.219-0.001
		c0.591,0,1.073,0.468,1.099,1.065c0.014,0.339-0.124,0.662-0.379,0.885l-1.9,1.874l1.063,2.447c0.248,0.591-0.028,1.27-0.614,1.516
		c-0.142,0.059-0.292,0.09-0.447,0.09c-0.204,0-0.404-0.054-0.579-0.155l-2.649-1.493l-2.655,1.496
		C15.677,23.95,15.478,24.004,15.277,24.004z M14.114,17.131c-0.039,0-0.069,0.013-0.092,0.038c-0.041,0.046-0.036,0.117,0.01,0.158
		l2.19,2.152c0.146,0.144,0.19,0.367,0.108,0.556l-1.2,2.761c-0.016,0.039-0.012,0.091,0.011,0.131
		c0.028,0.048,0.079,0.077,0.134,0.077c0.027,0,0.052-0.007,0.076-0.021l2.906-1.637c0.075-0.042,0.16-0.064,0.246-0.064
		s0.171,0.022,0.246,0.064l2.9,1.634c0.027,0.016,0.055,0.023,0.083,0.023c0.021,0,0.041-0.004,0.06-0.012
		c0.037-0.016,0.066-0.045,0.082-0.083s0.016-0.079,0-0.118l-1.198-2.756c-0.082-0.188-0.039-0.411,0.107-0.555l2.166-2.135
		c0.062-0.055,0.061-0.096,0.06-0.11c-0.003-0.06-0.062-0.107-0.111-0.107l-2.527,0.001c-0.194,0-0.373-0.114-0.454-0.29
		l-1.279-2.764c-0.01-0.019-0.034-0.042-0.065-0.058c-0.023-0.011-0.048-0.018-0.073-0.018c-0.017,0-0.034,0.003-0.051,0.008
		c-0.041,0.014-0.074,0.042-0.094,0.081l-1.278,2.754c-0.082,0.176-0.26,0.29-0.454,0.29L14.114,17.131z"/>
</g>
</svg>
