<?xml version="1.0" encoding="utf-8"?>
<!-- Generator: Adobe Illustrator 22.1.0, SVG Export Plug-In . SVG Version: 6.00 Build 0)  -->
<svg version="1.1" id="Light" xmlns="http://www.w3.org/2000/svg" xmlns:xlink="http://www.w3.org/1999/xlink" x="0px" y="0px"
	 viewBox="0 0 24 24" style="enable-background:new 0 0 24 24;" xml:space="preserve">
<g>
	<title>multiple-actions-check-1</title>
	<path d="M3.5,24c-0.258,0-0.477-0.201-0.498-0.458L2.54,18H0.5C0.224,18,0,17.776,0,17.5V14c0-3.033,2.467-5.5,5.5-5.5
		S11,10.967,11,14v3.5c0,0.276-0.224,0.5-0.5,0.5H8.46l-0.462,5.542C7.977,23.799,7.758,24,7.5,24H3.5z M7.04,23l0.462-5.542
		C7.523,17.201,7.742,17,8,17h2v-3c0-2.481-2.019-4.5-4.5-4.5S1,11.519,1,14v3h2c0.258,0,0.477,0.201,0.498,0.458L3.96,23H7.04z"/>
	<path d="M5.5,8c-2.206,0-4-1.794-4-4s1.794-4,4-4s4,1.794,4,4S7.706,8,5.5,8z M5.5,1c-1.654,0-3,1.346-3,3s1.346,3,3,3s3-1.346,3-3
		S7.154,1,5.5,1z"/>
	<path d="M17.439,10.87c-0.128,0-0.25-0.049-0.344-0.137c-0.844-0.799-1.941-1.239-3.09-1.239c-0.663,0-1.307,0.144-1.916,0.428
		c-0.066,0.031-0.137,0.047-0.211,0.047l0,0c-0.193,0-0.371-0.113-0.453-0.289c-0.057-0.121-0.062-0.257-0.017-0.382
		s0.137-0.226,0.258-0.282c0.743-0.347,1.53-0.523,2.34-0.523c1.405,0,2.746,0.537,3.776,1.513c0.2,0.189,0.209,0.506,0.02,0.707
		C17.708,10.813,17.575,10.87,17.439,10.87z"/>
	<path d="M14,8c-1.93,0-3.5-1.57-3.5-3.5S12.07,1,14,1s3.5,1.57,3.5,3.5S15.93,8,14,8z M14,2c-1.378,0-2.5,1.121-2.5,2.5
		S12.622,7,14,7s2.5-1.121,2.5-2.5S15.378,2,14,2z"/>
	<path d="M18.5,24c-3.033,0-5.5-2.467-5.5-5.5s2.467-5.5,5.5-5.5s5.5,2.467,5.5,5.5S21.533,24,18.5,24z M18.5,14
		c-2.481,0-4.5,2.019-4.5,4.5s2.019,4.5,4.5,4.5s4.5-2.019,4.5-4.5S20.981,14,18.5,14z"/>
	<path d="M17.936,20.729c-0.267,0-0.518-0.104-0.707-0.292l-1.083-1.083c-0.195-0.195-0.195-0.512,0-0.707
		c0.094-0.094,0.22-0.146,0.354-0.146s0.259,0.052,0.354,0.146l1.083,1.083l2.157-3.02c0.094-0.131,0.246-0.209,0.407-0.209
		c0.105,0,0.205,0.032,0.291,0.094c0.108,0.077,0.18,0.192,0.202,0.324s-0.009,0.264-0.086,0.373l-2.157,3.02
		c-0.031,0.044-0.067,0.086-0.106,0.125C18.455,20.625,18.204,20.729,17.936,20.729z"/>
</g>
</svg>
