<?xml version="1.0" encoding="utf-8"?>
<!-- Generator: Adobe Illustrator 22.1.0, SVG Export Plug-In . SVG Version: 6.00 Build 0)  -->
<svg version="1.1" id="Light" xmlns="http://www.w3.org/2000/svg" xmlns:xlink="http://www.w3.org/1999/xlink" x="0px" y="0px"
	 viewBox="0 0 24 24" style="enable-background:new 0 0 24 24;" xml:space="preserve">
<g>
	<title>multiple-actions-edit-1</title>
	<path d="M3.496,24c-0.258,0-0.477-0.201-0.498-0.458L2.536,18h-2.04c-0.276,0-0.5-0.224-0.5-0.5V14c0-3.033,2.467-5.5,5.5-5.5
		s5.5,2.467,5.5,5.5v3.5c0,0.276-0.224,0.5-0.5,0.5h-2.04l-0.462,5.542C7.973,23.799,7.754,24,7.496,24H3.496z M7.036,23
		l0.462-5.542C7.519,17.201,7.738,17,7.996,17h2v-3c0-2.481-2.019-4.5-4.5-4.5s-4.5,2.019-4.5,4.5v3h2
		c0.258,0,0.477,0.201,0.498,0.458L3.956,23H7.036z"/>
	<path d="M5.496,8c-2.206,0-4-1.794-4-4s1.794-4,4-4s4,1.794,4,4S7.702,8,5.496,8z M5.496,1c-1.654,0-3,1.346-3,3s1.346,3,3,3
		s3-1.346,3-3S7.15,1,5.496,1z"/>
	<path d="M17.435,10.87c-0.128,0-0.25-0.049-0.344-0.137c-0.844-0.799-1.941-1.239-3.09-1.239c-0.663,0-1.307,0.144-1.916,0.428
		C12.02,9.954,11.948,9.97,11.874,9.97l0,0c-0.193,0-0.371-0.113-0.453-0.289c-0.057-0.121-0.062-0.257-0.017-0.382
		s0.137-0.226,0.258-0.282c0.743-0.347,1.53-0.523,2.34-0.523c1.405,0,2.746,0.537,3.776,1.513c0.2,0.189,0.209,0.506,0.02,0.707
		C17.704,10.813,17.572,10.87,17.435,10.87z"/>
	<path d="M13.996,8c-1.93,0-3.5-1.57-3.5-3.5s1.57-3.5,3.5-3.5s3.5,1.57,3.5,3.5S15.926,8,13.996,8z M13.996,2
		c-1.378,0-2.5,1.121-2.5,2.5s1.122,2.5,2.5,2.5s2.5-1.121,2.5-2.5S15.375,2,13.996,2z"/>
	<path d="M14.223,23.772c-0.168,0-0.336-0.044-0.485-0.126c-0.234-0.13-0.403-0.343-0.476-0.6c-0.051-0.179-0.051-0.369,0-0.549
		l0.753-2.635c0.004-0.014,0.013-0.038,0.02-0.051c-0.001,0.001-0.001,0.002-0.001,0.002s0.004-0.01,0.009-0.021
		c0.026-0.058,0.06-0.107,0.1-0.147l5.915-5.915c0.432-0.452,1.045-0.714,1.677-0.714c0.46,0,0.907,0.135,1.292,0.391
		c1.03,0.731,1.274,2.152,0.55,3.173c-0.073,0.103-0.156,0.201-0.246,0.291l-5.982,5.982c-0.04,0.04-0.089,0.073-0.147,0.1
		c-0.007,0.003-0.033,0.014-0.04,0.017c-0.013,0.006-0.014,0.007-0.028,0.011l-2.636,0.753
		C14.409,23.76,14.316,23.772,14.223,23.772z M14.224,22.772l1.818-0.52l-1.298-1.298L14.224,22.772z M16.996,21.793l4.525-4.525
		l-1.793-1.793L15.203,20L16.996,21.793z M22.228,16.561l0.396-0.396c0.05-0.05,0.096-0.105,0.137-0.163
		c0.405-0.57,0.27-1.364-0.3-1.769c-0.21-0.139-0.462-0.215-0.723-0.215c-0.363,0-0.715,0.15-0.966,0.413l-0.337,0.337
		L22.228,16.561z"/>
</g>
</svg>
