<?xml version="1.0" encoding="utf-8"?>
<!-- Generator: Adobe Illustrator 22.1.0, SVG Export Plug-In . SVG Version: 6.00 Build 0)  -->
<svg version="1.1" id="Light" xmlns="http://www.w3.org/2000/svg" xmlns:xlink="http://www.w3.org/1999/xlink" x="0px" y="0px"
	 viewBox="0 0 24 24" style="enable-background:new 0 0 24 24;" xml:space="preserve">
<g>
	<title>multiple-actions-share-1</title>
	<path d="M0.5,24C0.224,24,0,23.776,0,23.5v-8C0,15.224,0.224,15,0.5,15S1,15.224,1,15.5V16h4.75c1.74,0,3.219,1.3,3.464,3H12.5
		c1.93,0,3.5,1.57,3.5,3.5c0,0.276-0.224,0.5-0.5,0.5H1v0.5C1,23.776,0.776,24,0.5,24z M14.949,22c-0.235-1.141-1.261-2-2.449-2
		H5.75c-0.276,0-0.5-0.224-0.5-0.5S5.474,19,5.75,19h2.448c-0.235-1.141-1.261-2-2.448-2H1v5H14.949z"/>
	<path d="M17.5,24c-0.276,0-0.5-0.224-0.5-0.5s0.224-0.5,0.5-0.5h2.54l0.462-5.542C20.523,17.201,20.742,17,21,17h2v-3
		c0-2.481-2.019-4.5-4.5-4.5S14,11.519,14,14v3h2c0.276,0,0.5,0.224,0.5,0.5S16.276,18,16,18h-2.5c-0.276,0-0.5-0.224-0.5-0.5V14
		c0-3.033,2.467-5.5,5.5-5.5S24,10.967,24,14v3.5c0,0.276-0.224,0.5-0.5,0.5h-2.04l-0.462,5.542C20.977,23.799,20.758,24,20.5,24
		H17.5z"/>
	<path d="M18.5,8c-2.206,0-4-1.794-4-4s1.794-4,4-4s4,1.794,4,4S20.706,8,18.5,8z M18.5,1c-1.654,0-3,1.346-3,3s1.346,3,3,3
		s3-1.346,3-3S20.154,1,18.5,1z"/>
	<path d="M10,8C8.07,8,6.5,6.43,6.5,4.5S8.07,1,10,1s3.5,1.57,3.5,3.5S11.93,8,10,8z M10,2C8.621,2,7.5,3.121,7.5,4.5S8.621,7,10,7
		s2.5-1.121,2.5-2.5S11.379,2,10,2z"/>
	<path d="M5,15c-0.276,0-0.5-0.224-0.5-0.5V14c0-1.467,0.572-2.847,1.611-3.888s2.42-1.613,3.887-1.614
		c0.803,0,1.61,0.18,2.336,0.52c0.121,0.057,0.212,0.157,0.258,0.282c0.046,0.126,0.039,0.261-0.017,0.382
		c-0.082,0.175-0.26,0.288-0.453,0.288c-0.073,0-0.145-0.016-0.212-0.047C11.316,9.646,10.656,9.498,10,9.498
		C7.517,9.499,5.499,11.519,5.5,14v0.5C5.5,14.776,5.276,15,5,15z"/>
</g>
</svg>
