<svg xmlns="http://www.w3.org/2000/svg" viewBox="0 0 24 24"><title>folder-share-alternate</title><path d="M2.5,2H7.073a.5.5,0,0,1,.447.276L8.33,3.9A2,2,0,0,0,10.118,5H19a.5.5,0,0,1,.5.5V9.545a.247.247,0,0,0,.314.24,9.865,9.865,0,0,1,1.465-.243A.241.241,0,0,0,21.5,9.3V5a2,2,0,0,0-2-2H10.427a.5.5,0,0,1-.447-.276L9.17,1.105A2,2,0,0,0,7.382,0H2A2,2,0,0,0,0,2V16.5a2,2,0,0,0,2,2H9.292a.246.246,0,0,0,.249-.222,9.893,9.893,0,0,1,.238-1.464A.247.247,0,0,0,9.54,16.5H2.5A.5.5,0,0,1,2,16V2.5A.5.5,0,0,1,2.5,2Z"/><path d="M22.129,18.639a2.74,2.74,0,0,0-2.767.623.24.24,0,0,1-.258.053L16.553,18.3a.114.114,0,0,1-.06-.084l-.03-.353a.118.118,0,0,1,.056-.1L19.442,16a.245.245,0,0,1,.266.012,2.741,2.741,0,0,0,4.168-1.425A2.759,2.759,0,0,0,21.25,11a2.808,2.808,0,0,0-2.713,3.059.243.243,0,0,1-.115.221L15.558,16a.245.245,0,0,1-.266-.012,2.741,2.741,0,0,0-4.168,1.426A2.759,2.759,0,0,0,13.75,21a2.729,2.729,0,0,0,1.887-.761.245.245,0,0,1,.26-.053s1.923.781,2.463,1a.239.239,0,0,1,.144.214,2.753,2.753,0,1,0,5.361-1.025A2.681,2.681,0,0,0,22.129,18.639Z"/></svg>