<svg xmlns="http://www.w3.org/2000/svg" viewBox="0 0 24 24"><title>folder-question-alternate</title><path d="M17.5,11A6.5,6.5,0,1,0,24,17.5,6.508,6.508,0,0,0,17.5,11Zm0,11.5a1,1,0,1,1,1-1A1,1,0,0,1,17.5,22.5Zm.933-4.171a.245.245,0,0,0-.183.215v.206a.75.75,0,0,1-1.5,0V18.2a1.256,1.256,0,0,1,.988-1.221,1.125,1.125,0,1,0-1.363-1.1.75.75,0,0,1-1.5,0,2.625,2.625,0,1,1,3.558,2.454Z"/><path d="M2.5,2H7.073a.5.5,0,0,1,.447.276L8.33,3.9A2,2,0,0,0,10.118,5H19a.5.5,0,0,1,.5.5v4.08a.242.242,0,0,0,.179.233,7.951,7.951,0,0,1,1.46.573.241.241,0,0,0,.361-.208V5a2,2,0,0,0-2-2H10.427a.5.5,0,0,1-.447-.276L9.17,1.105A2,2,0,0,0,7.382,0H2A2,2,0,0,0,0,2V16.5a2,2,0,0,0,2,2H9.3a.245.245,0,0,0,.25-.255c-.018-.4-.018-1.086,0-1.49A.245.245,0,0,0,9.3,16.5H2.5A.5.5,0,0,1,2,16V2.5A.5.5,0,0,1,2.5,2Z"/></svg>