<svg xmlns="http://www.w3.org/2000/svg" viewBox="0 0 24 24"><title>folder-media-alternate</title><path d="M5.365,3.4,6.557,4.638A2,2,0,0,0,8,5.25H21a1,1,0,0,0,0-2H8.208A.5.5,0,0,1,7.849,3.1L6.657,1.862A2,2,0,0,0,5.216,1.25H2.286A2.285,2.285,0,0,0,0,3.536V15.25a1,1,0,0,0,2,0V3.536a.286.286,0,0,1,.286-.286H5.005A.5.5,0,0,1,5.365,3.4Z"/><path d="M22,6.75H6a2,2,0,0,0-2,2v12a2,2,0,0,0,2,2H22a2,2,0,0,0,2-2v-12A2,2,0,0,0,22,6.75Zm0,13.5a.5.5,0,0,1-.5.5H6.5a.5.5,0,0,1-.5-.5v-11a.5.5,0,0,1,.5-.5h15a.5.5,0,0,1,.5.5Z"/><path d="M16.72,14.036l-4.5-2.629a1.157,1.157,0,0,0-1.138-.014,1.123,1.123,0,0,0-.581.978v5.258a1.122,1.122,0,0,0,.582.978,1.154,1.154,0,0,0,1.136-.013l4.5-2.629a1.114,1.114,0,0,0,0-1.929Z"/></svg>