<svg xmlns="http://www.w3.org/2000/svg" viewBox="0 0 24 24"><title>folder-music-1-alternate</title><path d="M14.619,7.562a.823.823,0,0,0-.121.03L10.2,8.975a2.243,2.243,0,0,0-1.759,2.189V15.04a.249.249,0,0,1-.23.243,1.993,1.993,0,1,0,2.224,2.028c0-.011.006-.02.006-.031V11.164a.243.243,0,0,1,.2-.238,1.191,1.191,0,0,0,.121-.031l4.267-1.372a.289.289,0,0,1,.161.055.247.247,0,0,1,.088.188v2.806a.25.25,0,0,1-.23.244,1.993,1.993,0,1,0,.575,3.943,2.073,2.073,0,0,0,1.655-2.079V9.766a2.242,2.242,0,0,0-2.656-2.2Z"/><path d="M24,6.3a1.95,1.95,0,0,0-1.95-1.95H12a.5.5,0,0,1-.447-.277l-.747-1.494A1.949,1.949,0,0,0,9.061,1.5H1.95A1.95,1.95,0,0,0,0,3.45v17.1A1.95,1.95,0,0,0,1.95,22.5h20.1A1.95,1.95,0,0,0,24,20.55ZM22.048,20a.5.5,0,0,1-.5.5L2.5,20.549a.5.5,0,0,1-.5-.5L1.952,4a.5.5,0,0,1,.5-.5l6.256-.025a.5.5,0,0,1,.449.277l.761,1.523A1.941,1.941,0,0,0,11.66,6.35L21.5,6.3a.5.5,0,0,1,.5.5Z"/></svg>