<svg xmlns="http://www.w3.org/2000/svg" viewBox="0 0 24 24"><title>folder-image</title><path d="M21.5,5.25A.25.25,0,0,0,21.75,5V4.25A.75.75,0,0,0,21,3.5H8l-.18-.076L6.478,2.035A1.751,1.751,0,0,0,5.218,1.5H2.286A2.037,2.037,0,0,0,.25,3.536V16.25A1.749,1.749,0,0,0,2,18h.25a.25.25,0,0,0,.25-.25V8.25a3,3,0,0,1,3-3Z"/><path d="M22,7H6A1.752,1.752,0,0,0,4.25,8.75v12A1.752,1.752,0,0,0,6,22.5H22a1.752,1.752,0,0,0,1.75-1.75v-12A1.752,1.752,0,0,0,22,7ZM11.1,10.25a1.5,1.5,0,1,1-1.5,1.5A1.5,1.5,0,0,1,11.1,10.25Zm7.241,9H10a.5.5,0,0,1-.425-.763L11.054,16.1a1,1,0,0,1,1.273-.207L13.906,17.1a.249.249,0,0,0,.349-.045l1.511-1.945a1,1,0,0,1,1.587.068L18.8,18.553A.5.5,0,0,1,18.344,19.25Z"/></svg>