<svg xmlns="http://www.w3.org/2000/svg" viewBox="0 0 24 24"><title>folder-music</title><path d="M21.5,5.25A.25.25,0,0,0,21.75,5V4.25A.75.75,0,0,0,21,3.5H8l-.18-.076L6.478,2.035A1.751,1.751,0,0,0,5.218,1.5H2.286A2.037,2.037,0,0,0,.25,3.536V16.25A1.749,1.749,0,0,0,2,18h.25a.25.25,0,0,0,.25-.25V8.25a3,3,0,0,1,3-3Z"/><path d="M22,7H6A1.752,1.752,0,0,0,4.25,8.75v12A1.752,1.752,0,0,0,6,22.5H22a1.752,1.752,0,0,0,1.75-1.75v-12A1.752,1.752,0,0,0,22,7Zm-4.25,8.75A1.75,1.75,0,1,1,16,14c.086,0,.25.056.25-.091V11.7a.248.248,0,0,0-.09-.192.245.245,0,0,0-.205-.053l-3.409,1.1c-.21.044-.3.148-.3.268V17.75A1.75,1.75,0,1,1,10.5,16c.086,0,.25.068.25-.109V12.829a1.753,1.753,0,0,1,1.428-1.72l3.409-1.1a1.776,1.776,0,0,1,1.531.349A1.745,1.745,0,0,1,17.75,11.7Z"/></svg>