<svg xmlns="http://www.w3.org/2000/svg" viewBox="0 0 24 24"><title>folder-disable-1-alternate</title><path d="M12.075,7.5a6,6,0,1,0,6,6A6.007,6.007,0,0,0,12.075,7.5ZM8.48,15.219A3.873,3.873,0,0,1,8.233,12.4,4.05,4.05,0,0,1,10.971,9.66a3.863,3.863,0,0,1,2.823.245.252.252,0,0,1,.059.4l-4.97,4.969A.253.253,0,0,1,8.48,15.219Zm7.437-.62a4.049,4.049,0,0,1-2.74,2.742,3.866,3.866,0,0,1-2.822-.247.252.252,0,0,1-.058-.4l4.97-4.97a.252.252,0,0,1,.4.059A3.865,3.865,0,0,1,15.917,14.6Z"/><path d="M24,6.3a1.95,1.95,0,0,0-1.95-1.95H12a.5.5,0,0,1-.447-.277l-.747-1.494A1.949,1.949,0,0,0,9.061,1.5H1.95A1.95,1.95,0,0,0,0,3.45v17.1A1.95,1.95,0,0,0,1.95,22.5h20.1A1.95,1.95,0,0,0,24,20.55ZM22.048,20a.5.5,0,0,1-.5.5L2.5,20.549a.5.5,0,0,1-.5-.5L1.952,4a.5.5,0,0,1,.5-.5l6.256-.025a.5.5,0,0,1,.449.277l.761,1.523A1.941,1.941,0,0,0,11.66,6.35L21.5,6.3a.5.5,0,0,1,.5.5Z"/></svg>