<svg xmlns="http://www.w3.org/2000/svg" viewBox="0 0 24 24"><title>folder-cash-alternate</title><path d="M2.5,2H7.073a.5.5,0,0,1,.447.276L8.33,3.9A2,2,0,0,0,10.118,5H19a.5.5,0,0,1,.5.5v4.08a.242.242,0,0,0,.179.233,7.951,7.951,0,0,1,1.46.573.244.244,0,0,0,.361-.215V5a2,2,0,0,0-2-2H10.427a.5.5,0,0,1-.447-.276L9.17,1.105A2,2,0,0,0,7.382,0H2A2,2,0,0,0,0,2V16.5a2,2,0,0,0,2,2H9.3a.245.245,0,0,0,.25-.255c-.018-.4-.018-1.086,0-1.49A.245.245,0,0,0,9.3,16.5H2.5A.5.5,0,0,1,2,16V2.5A.5.5,0,0,1,2.5,2Z"/><path d="M17.5,11A6.5,6.5,0,1,0,24,17.5,6.508,6.508,0,0,0,17.5,11Zm.887,10.2a.184.184,0,0,0-.137.2v.354a.75.75,0,0,1-1.5,0v-.334a.17.17,0,0,0-.164-.166H16a.75.75,0,0,1,0-1.5h2.033a.592.592,0,0,0,.22-1.141l-2.063-.826a2.079,2.079,0,0,1,.4-3.98l-.005-.008a.191.191,0,0,0,.164-.2v-.35a.75.75,0,0,1,1.5,0v.335a.171.171,0,0,0,.169.165H19a.75.75,0,0,1,0,1.5H16.967a.592.592,0,0,0-.22,1.141l2.063.826a2.079,2.079,0,0,1-.423,3.984Z"/></svg>