<svg xmlns="http://www.w3.org/2000/svg" viewBox="0 0 24 24"><title>folder-warning</title><path d="M11.59,17.866l3.3-6.292a2.948,2.948,0,0,1,3.337-1.486,3.057,3.057,0,0,1,1.934,1.587l.419.8c.048.09.419.173.419-.157V4.5A1.5,1.5,0,0,0,19.5,3H9.619a.5.5,0,0,1-.448-.276L8.223.829A1.5,1.5,0,0,0,6.882,0H1.5A1.5,1.5,0,0,0,0,1.5v15A1.5,1.5,0,0,0,1.5,18h9.868A.25.25,0,0,0,11.59,17.866Z"/><path d="M23.836,21.905l-5.055-9.634a1.449,1.449,0,0,0-2.561,0L11.165,21.9a1.428,1.428,0,0,0,.047,1.409A1.457,1.457,0,0,0,12.445,24H22.556a1.458,1.458,0,0,0,1.233-.686A1.428,1.428,0,0,0,23.836,21.905ZM16.751,16a.75.75,0,0,1,1.5,0v2.5a.75.75,0,0,1-1.5,0Zm.75,6.25a1,1,0,1,1,1-1A1,1,0,0,1,17.5,22.25Z"/></svg>