<svg xmlns="http://www.w3.org/2000/svg" viewBox="0 0 24 24"><title>folder-add</title><path d="M9.5,17.5a8.009,8.009,0,0,1,8-8,7.914,7.914,0,0,1,3.153.657A.244.244,0,0,0,21,9.935V4.5A1.5,1.5,0,0,0,19.5,3H9.618a.5.5,0,0,1-.447-.276L8.223.829A1.5,1.5,0,0,0,6.882,0H1.5A1.5,1.5,0,0,0,0,1.5v15A1.5,1.5,0,0,0,1.5,18H9.141C9.391,18,9.5,17.669,9.5,17.5Z"/><path d="M17.5,11A6.5,6.5,0,1,0,24,17.5,6.508,6.508,0,0,0,17.5,11Zm3.25,6.5a.75.75,0,0,1-.75.75H18.5a.25.25,0,0,0-.25.25V20a.75.75,0,0,1-1.5,0V18.5a.25.25,0,0,0-.25-.25H15a.75.75,0,0,1,0-1.5h1.5a.25.25,0,0,0,.25-.25V15a.75.75,0,0,1,1.5,0v1.5a.25.25,0,0,0,.25.25H20A.75.75,0,0,1,20.75,17.5Z"/></svg>