<svg xmlns="http://www.w3.org/2000/svg" viewBox="0 0 24 24"><title>folder-download</title><path d="M17.5,9.5a7.914,7.914,0,0,1,3.153.657A.244.244,0,0,0,21,9.935V4.5A1.5,1.5,0,0,0,19.5,3H9.618a.5.5,0,0,1-.447-.276L8.224.83A1.5,1.5,0,0,0,6.88,0H1.5A1.5,1.5,0,0,0,0,1.5v15A1.5,1.5,0,0,0,1.5,18H9.063a.447.447,0,0,0,.437-.5A8.009,8.009,0,0,1,17.5,9.5Z"/><path d="M17.5,24A6.5,6.5,0,1,0,11,17.5,6.508,6.508,0,0,0,17.5,24Zm-2.391-5.688A.5.5,0,0,1,15.5,17.5h.75a.25.25,0,0,0,.25-.25V14.5a1,1,0,0,1,2,0v2.75a.25.25,0,0,0,.25.25h.75a.5.5,0,0,1,.391.813l-2,2.5a.518.518,0,0,1-.782,0Z"/></svg>