<svg xmlns="http://www.w3.org/2000/svg" viewBox="0 0 24 24"><title>folder-home-alternate</title><path d="M23.823,17.618l-6.5-5.5a.5.5,0,0,0-.647,0l-6.5,5.5a.5.5,0,0,0,.324.882h1.25a.25.25,0,0,1,.25.25V23.5a.5.5,0,0,0,.5.5H15a.5.5,0,0,0,.5-.5V21.25a1.5,1.5,0,0,1,3,0V23.5a.5.5,0,0,0,.5.5h2.5a.5.5,0,0,0,.5-.5V18.75a.25.25,0,0,1,.25-.25H23.5a.5.5,0,0,0,.323-.882Z"/><path d="M19,5a.5.5,0,0,1,.5.5v5.726a.252.252,0,0,0,.088.191l1.5,1.269a.25.25,0,0,0,.412-.191V5a2,2,0,0,0-2-2H10.427a.5.5,0,0,1-.447-.276L9.17,1.105A2,2,0,0,0,7.382,0H2A2,2,0,0,0,0,2V16.5a2,2,0,0,0,2,2H7.767a.25.25,0,0,0,.244-.282,2.5,2.5,0,0,1,.276-1.364.245.245,0,0,0-.223-.354H2.5A.5.5,0,0,1,2,16V2.5A.5.5,0,0,1,2.5,2H7.073a.5.5,0,0,1,.447.276L8.33,3.9A2,2,0,0,0,10.118,5Z"/></svg>