<?xml version="1.0" encoding="utf-8"?>
<!-- Generator: Adobe Illustrator 22.1.0, SVG Export Plug-In . SVG Version: 6.00 Build 0)  -->
<svg version="1.1" id="Layer_1" xmlns="http://www.w3.org/2000/svg" xmlns:xlink="http://www.w3.org/1999/xlink" x="0px" y="0px"
	 viewBox="0 0 24 24" style="enable-background:new 0 0 24 24;" xml:space="preserve">
<g>
	<title>add-bold</title>
	<path d="M9.5,24C8.673,24,8,23.327,8,22.5V16H1.5C0.673,16,0,15.327,0,14.5v-5C0,8.673,0.673,8,1.5,8H8V1.5C8,0.673,8.673,0,9.5,0
		h5C15.327,0,16,0.673,16,1.5V8h6.5C23.327,8,24,8.673,24,9.5v5c0,0.827-0.673,1.5-1.5,1.5H16v6.5c0,0.827-0.673,1.5-1.5,1.5H9.5z
		 M1.5,9C1.224,9,1,9.224,1,9.5v5C1,14.776,1.224,15,1.5,15h7C8.776,15,9,15.224,9,15.5v7C9,22.776,9.224,23,9.5,23h5
		c0.276,0,0.5-0.224,0.5-0.5v-7c0-0.276,0.224-0.5,0.5-0.5h7c0.276,0,0.5-0.224,0.5-0.5v-5C23,9.224,22.776,9,22.5,9h-7
		C15.224,9,15,8.776,15,8.5v-7C15,1.224,14.776,1,14.5,1h-5C9.224,1,9,1.224,9,1.5v7C9,8.776,8.776,9,8.5,9H1.5z"/>
</g>
</svg>
