<?xml version="1.0" encoding="utf-8"?>
<!-- Generator: Adobe Illustrator 22.1.0, SVG Export Plug-In . SVG Version: 6.00 Build 0)  -->
<svg version="1.1" id="Layer_1" xmlns="http://www.w3.org/2000/svg" xmlns:xlink="http://www.w3.org/1999/xlink" x="0px" y="0px"
	 viewBox="0 0 24 24" style="enable-background:new 0 0 24 24;" xml:space="preserve">
<g>
	<title>subtract-bold</title>
	<path d="M1.5,16C0.673,16,0,15.327,0,14.5v-5C0,8.673,0.673,8,1.5,8h21C23.327,8,24,8.673,24,9.5v5c0,0.827-0.673,1.5-1.5,1.5H1.5z
		 M1.5,9C1.224,9,1,9.224,1,9.5v5C1,14.776,1.224,15,1.5,15h21c0.276,0,0.5-0.224,0.5-0.5v-5C23,9.224,22.776,9,22.5,9H1.5z"/>
</g>
</svg>
