<?xml version="1.0" encoding="utf-8"?>
<!-- Generator: Adobe Illustrator 22.1.0, SVG Export Plug-In . SVG Version: 6.00 Build 0)  -->
<svg version="1.1" id="Layer_1" xmlns="http://www.w3.org/2000/svg" xmlns:xlink="http://www.w3.org/1999/xlink" x="0px" y="0px"
	 viewBox="0 0 24 24" style="enable-background:new 0 0 24 24;" xml:space="preserve">
<g>
	<title>subtract-tab</title>
	<path d="M3.998,12.5c-0.276,0-0.5-0.224-0.5-0.5c0-0.276,0.224-0.5,0.5-0.5h7c0.276,0,0.5,0.224,0.5,0.5c0,0.276-0.224,0.5-0.5,0.5
		H3.998z"/>
	<path d="M1.498,19c-0.827,0-1.5-0.673-1.5-1.5v-11c0-0.827,0.673-1.5,1.5-1.5h14.5c0.766,0.041,1.486,0.337,2.041,0.835
		l5.105,5.105c0.584,0.585,0.584,1.536,0,2.121l-5.086,5.086c-0.004,0.005-0.019,0.018-0.024,0.022
		c-0.55,0.494-1.265,0.79-2.009,0.83L1.498,19z M1.498,6c-0.276,0-0.5,0.224-0.5,0.5v11c0,0.276,0.224,0.5,0.5,0.5h14.5
		c0.493-0.028,0.984-0.232,1.369-0.575l5.071-5.071c0.195-0.195,0.195-0.512,0-0.707l-5.086-5.086
		C16.984,6.231,16.492,6.029,15.978,6L1.498,6z"/>
</g>
</svg>
