<svg xmlns="http://www.w3.org/2000/svg" viewBox="0 0 24 24"><defs><style>.a{fill:none;stroke:currentColor;stroke-linecap:round;stroke-linejoin:round;stroke-width:1.5px;}</style></defs><title>book-play</title><path class="a" d="M21,23.25H5.25A2.25,2.25,0,0,1,3,21"/><path class="a" d="M6,.75a3,3,0,0,0-3,3V21a2.25,2.25,0,0,1,2.25-2.25h15A.75.75,0,0,0,21,18V1.5a.75.75,0,0,0-.75-.75Z"/><line class="a" x1="19.5" y1="23.25" x2="19.5" y2="18.75"/><path class="a" d="M7.5,7.125v5.912a.749.749,0,0,0,1.085.67L16.5,9.75,8.538,6.433A.749.749,0,0,0,7.5,7.125Z"/></svg>