<svg id="Regular" xmlns="http://www.w3.org/2000/svg" viewBox="0 0 24 24"><defs><style>.cls-1{fill:none;stroke:currentColor;stroke-linecap:round;stroke-linejoin:round;stroke-width:1.5px;}</style></defs><title>single-man-actions-flight</title><path class="cls-1" d="M21.873,13.616a1.784,1.784,0,0,1,.555,3.242l-10.142,6.3a.624.624,0,0,1-.688-.02L7.88,20.526a.343.343,0,0,1-.052-.483c.017-.022,1.619-1.434,1.619-1.434a.343.343,0,0,1,.332-.057l1.955,1.165,2.48-1.73-4.7-2.91a.427.427,0,0,1-.048-.6c.02-.024,1.217-.916,1.217-.916a.425.425,0,0,1,.4-.057l6.477,2.411,3-2.045A1.663,1.663,0,0,1,21.873,13.616Z"/><path class="cls-1" d="M9.967,10.967A6.749,6.749,0,0,0,.751,17.25"/><path class="cls-1" d="M3.947,2.781A6.845,6.845,0,0,0,8.876,4.875a6.851,6.851,0,0,0,2.713-.558"/><circle class="cls-1" cx="7.501" cy="4.875" r="4.125"/></svg>