<svg id="Regular" xmlns="http://www.w3.org/2000/svg" viewBox="0 0 24 24"><defs><style>.cls-1{fill:none;stroke:currentColor;stroke-linecap:round;stroke-linejoin:round;stroke-width:1.5px;}</style></defs><title>single-man-actions-location</title><path class="cls-1" d="M18.75,15.443a.375.375,0,1,1-.375.375.375.375,0,0,1,.375-.375"/><path class="cls-1" d="M18.75,11.318a4.5,4.5,0,0,1,4.5,4.5c0,1.92-2.688,5.576-3.909,7.138a.75.75,0,0,1-1.182,0c-1.221-1.562-3.909-5.217-3.909-7.138A4.5,4.5,0,0,1,18.75,11.318Z"/><path class="cls-1" d="M12.21,12.432A6.742,6.742,0,0,0,.75,17.256"/><path class="cls-1" d="M3.945,2.787a6.848,6.848,0,0,0,4.93,2.094,6.847,6.847,0,0,0,2.712-.558"/><circle class="cls-1" cx="7.5" cy="4.881" r="4.125"/></svg>