<?xml version="1.0" encoding="utf-8"?>
<!-- Generator: Adobe Illustrator 22.1.0, SVG Export Plug-In . SVG Version: 6.00 Build 0)  -->
<svg version="1.1" id="Layer_1" xmlns="http://www.w3.org/2000/svg" xmlns:xlink="http://www.w3.org/1999/xlink" x="0px" y="0px"
	 viewBox="0 0 24 24" style="enable-background:new 0 0 24 24;" xml:space="preserve">
<title>light-mode-sunny-man-alternate</title>
<g>
	<path d="M18.008,2.428c-0.414,0-0.75-0.336-0.75-0.75V0.814c0-0.414,0.336-0.75,0.75-0.75s0.75,0.336,0.75,0.75v0.864
		C18.758,2.092,18.421,2.428,18.008,2.428z"/>
	<path d="M21.12,3.694c-0.2,0-0.389-0.078-0.53-0.22c-0.142-0.141-0.22-0.33-0.22-0.53c0-0.2,0.078-0.389,0.22-0.53L21.2,1.803
		c0.142-0.142,0.33-0.22,0.53-0.22s0.389,0.078,0.53,0.22c0.142,0.141,0.22,0.33,0.22,0.53c0,0.2-0.078,0.389-0.22,0.53L21.65,3.474
		C21.509,3.616,21.32,3.694,21.12,3.694z"/>
	<path d="M22.386,6.806c-0.414,0-0.75-0.336-0.75-0.75s0.336-0.75,0.75-0.75h0.864c0.414,0,0.75,0.336,0.75,0.75
		s-0.336,0.75-0.75,0.75H22.386z"/>
	<path d="M21.731,10.417c-0.2,0-0.389-0.078-0.53-0.22L20.59,9.586c-0.142-0.142-0.22-0.33-0.22-0.53c0-0.2,0.078-0.389,0.22-0.53
		s0.33-0.22,0.53-0.22s0.389,0.078,0.53,0.22l0.611,0.611c0.142,0.142,0.22,0.33,0.22,0.53c0,0.2-0.078,0.389-0.22,0.53
		S21.931,10.417,21.731,10.417z"/>
	<path d="M18.008,11.936c-0.414,0-0.75-0.336-0.75-0.75v-0.864c0-0.414,0.336-0.75,0.75-0.75s0.75,0.336,0.75,0.75v0.864
		C18.758,11.6,18.421,11.936,18.008,11.936z"/>
	<path d="M14.397,10.417c-0.2,0-0.389-0.078-0.53-0.22c-0.142-0.142-0.22-0.33-0.22-0.53c0-0.2,0.078-0.389,0.22-0.53l0.611-0.611
		c0.142-0.142,0.33-0.22,0.53-0.22s0.389,0.078,0.53,0.22c0.142,0.142,0.22,0.33,0.22,0.53c0,0.2-0.078,0.389-0.22,0.53
		l-0.611,0.611C14.785,10.339,14.597,10.417,14.397,10.417z"/>
	<path d="M12.878,6.806c-0.414,0-0.75-0.336-0.75-0.75s0.336-0.75,0.75-0.75h0.864c0.414,0,0.75,0.336,0.75,0.75
		s-0.336,0.75-0.75,0.75H12.878z"/>
	<path d="M15.008,3.694c-0.2,0-0.389-0.078-0.53-0.22l-0.611-0.611c-0.142-0.141-0.22-0.33-0.22-0.53c0-0.2,0.078-0.389,0.22-0.53
		c0.142-0.142,0.33-0.22,0.53-0.22s0.389,0.078,0.53,0.22l0.611,0.611c0.142,0.141,0.22,0.33,0.22,0.53c0,0.2-0.078,0.389-0.22,0.53
		C15.396,3.616,15.208,3.694,15.008,3.694z"/>
	<path d="M18,9.064c-1.654,0-3-1.346-3-3s1.346-3,3-3s3,1.346,3,3S19.654,9.064,18,9.064z M18,4.564c-0.827,0-1.5,0.673-1.5,1.5
		s0.673,1.5,1.5,1.5s1.5-0.673,1.5-1.5S18.827,4.564,18,4.564z"/>
	<path d="M0.75,23.936c-0.029,0-0.058-0.002-0.087-0.005c-0.203-0.025-0.38-0.125-0.504-0.282s-0.178-0.354-0.154-0.553
		c0.378-3.112,2.815-5.549,5.926-5.926c0.273-0.033,0.551-0.05,0.824-0.05c3.428,0,6.325,2.569,6.739,5.976
		c0.024,0.199-0.031,0.395-0.154,0.553s-0.301,0.258-0.5,0.282c-0.032,0.004-0.06,0.005-0.089,0.005l0,0
		c-0.379,0-0.7-0.283-0.746-0.659c-0.322-2.655-2.58-4.657-5.252-4.657c-0.213,0-0.429,0.013-0.641,0.039
		c-2.425,0.294-4.324,2.193-4.618,4.618C1.449,23.652,1.129,23.936,0.75,23.936z"/>
	<path d="M6.75,17.186c-2.275,0-4.125-1.851-4.125-4.125c0-2.275,1.85-4.125,4.125-4.125s4.125,1.85,4.125,4.125
		C10.875,15.335,9.024,17.186,6.75,17.186z M6.75,10.436c-1.447,0-2.625,1.178-2.625,2.625c0,1.448,1.178,2.625,2.625,2.625
		s2.625-1.177,2.625-2.625C9.375,11.614,8.197,10.436,6.75,10.436z"/>
</g>
</svg>
