<svg xmlns="http://www.w3.org/2000/svg" viewBox="0 0 24 24"><defs><style>.a{fill:none;stroke:currentColor;stroke-linecap:round;stroke-linejoin:round;stroke-width:1.5px;}</style></defs><title>login-lock</title><path class="a" d="M9.75,23.254h-6a1.5,1.5,0,0,1-1.5-1.5V2.254a1.5,1.5,0,0,1,1.5-1.5h10.5a1.5,1.5,0,0,1,1.5,1.5V7.5"/><path class="a" d="M5.625,11.629A.375.375,0,1,0,6,12a.375.375,0,0,0-.375-.375h0"/><rect class="a" x="12.75" y="15.754" width="9" height="7.5" rx="1.5" ry="1.5"/><path class="a" d="M14.25,15.754v-1.5a3,3,0,0,1,3-3h0a3,3,0,0,1,3,3v1.5"/><path class="a" d="M17.25,19.129a.375.375,0,1,0,.375.375.375.375,0,0,0-.375-.375h0"/></svg>