<svg xmlns="http://www.w3.org/2000/svg" viewBox="0 0 24 24"><title>love-it-upload</title><path d="M5.813,2.777A4.575,4.575,0,0,1,9.807,4.06l1.531,1.4a1,1,0,0,0,1.348,0l1.561-1.424a4.546,4.546,0,0,1,3.965-1.256A4.5,4.5,0,0,1,21.541,5.2a4.175,4.175,0,0,1-.134,4.056.243.243,0,0,0-.022.2.248.248,0,0,0,.129.151,8.009,8.009,0,0,1,1.24.754.255.255,0,0,0,.2.044.252.252,0,0,0,.166-.12,6.194,6.194,0,0,0,.2-5.986A6.589,6.589,0,0,0,12.87,2.582l-.858.783-.829-.755A6.526,6.526,0,0,0,5.491.8,6.478,6.478,0,0,0,.7,4.293a6.4,6.4,0,0,0,1.2,7.454l7.1,7.686a.25.25,0,0,0,.434-.16L9.5,17.144a.244.244,0,0,0-.066-.178l-6.1-6.609A4.421,4.421,0,0,1,2.483,5.2,4.5,4.5,0,0,1,5.813,2.777Z"/><path d="M17.5,10.286a6.5,6.5,0,1,0,6.5,6.5A6.508,6.508,0,0,0,17.5,10.286Zm2.45,6.217a.5.5,0,0,1-.45.283h-1v3a1,1,0,0,1-2,0v-3h-1a.5.5,0,0,1-.391-.813l2-2.5a.518.518,0,0,1,.781,0l2,2.5A.5.5,0,0,1,19.949,16.5Z"/></svg>