<svg xmlns="http://www.w3.org/2000/svg" viewBox="0 0 24 24"><title>love-it-share</title><path d="M9.256,17.751a4.045,4.045,0,0,1,.113-.912.25.25,0,0,0-.06-.226L3.334,10.142a4.422,4.422,0,0,1-.849-5.16,4.5,4.5,0,0,1,3.329-2.42A4.578,4.578,0,0,1,9.808,3.846l1.531,1.4a1,1,0,0,0,1.347,0l1.562-1.423a4.549,4.549,0,0,1,3.965-1.257,4.5,4.5,0,0,1,3.329,2.42,4.152,4.152,0,0,1,.032,3.752.25.25,0,0,0,0,.223.255.255,0,0,0,.18.132,4.19,4.19,0,0,1,1.331.466.252.252,0,0,0,.2.019.256.256,0,0,0,.149-.136,6.158,6.158,0,0,0-.111-5.36,6.59,6.59,0,0,0-10.455-1.71l-.859.783L11.184,2.4A6.526,6.526,0,0,0,5.492.589,6.472,6.472,0,0,0,.7,4.078a6.4,6.4,0,0,0,1.2,7.454l6.924,7.5a.25.25,0,0,0,.433-.17Z"/><path d="M21.006,18a2.735,2.735,0,0,0-2,.874l-2.753-1.1,0-.022a2.742,2.742,0,0,0-.046-.456l3.125-1.875A2.724,2.724,0,0,0,21.006,16a2.8,2.8,0,1,0-2.7-2.294l-3.125,1.875A2.719,2.719,0,0,0,13.506,15a2.75,2.75,0,1,0,2,4.627l2.753,1.1,0,.022A2.75,2.75,0,1,0,21.006,18Z"/></svg>