<svg xmlns="http://www.w3.org/2000/svg" viewBox="0 0 24 24"><defs><style>.a{fill:none;stroke:currentColor;stroke-linecap:round;stroke-linejoin:round;}</style></defs><title>copy-paste</title><path class="a" d="M9.5,21.5h-8a1,1,0,0,1-1-1V4.5a1,1,0,0,1,1-1h2"/><path class="a" d="M13.5,3.5h2a1,1,0,0,1,1,1V8"/><circle class="a" cx="8.5" cy="1.999" r="1.5"/><path class="a" d="M9.915,2.5H12.5a1,1,0,0,1,1,1v1a1,1,0,0,1-1,1h-8a1,1,0,0,1-1-1v-1a1,1,0,0,1,1-1H7.085"/><path class="a" d="M22.5,22.5a1,1,0,0,1-1,1h-9a1,1,0,0,1-1-1V11a1,1,0,0,1,1-1h7.086a1,1,0,0,1,.707.293l1.914,1.914a1,1,0,0,1,.293.707Z"/><line class="a" x1="14.5" y1="14.499" x2="19.5" y2="14.499"/><line class="a" x1="14.5" y1="17.499" x2="19.5" y2="17.499"/></svg>