<svg xmlns="http://www.w3.org/2000/svg" viewBox="0 0 24 24"><title>cd-player</title><path d="M11,9.5a2,2,0,0,1,2,2,2.036,2.036,0,0,1-.012.222.249.249,0,0,0,.249.278H19a.5.5,0,0,0,.5-.5,8.5,8.5,0,0,0-17,0A.5.5,0,0,0,3,12H8.763a.249.249,0,0,0,.249-.278A2.036,2.036,0,0,1,9,11.5,2,2,0,0,1,11,9.5Z"/><path d="M24,15.5A2.5,2.5,0,0,0,21.5,13H2.5A2.5,2.5,0,0,0,0,15.5v2a2.5,2.5,0,0,0,1.818,2.405A.251.251,0,0,1,2,20.146v.1a.75.75,0,0,0,1.5,0A.25.25,0,0,1,3.75,20h16.5a.25.25,0,0,1,.25.25.75.75,0,0,0,1.5,0v-.1a.251.251,0,0,1,.182-.241A2.5,2.5,0,0,0,24,17.5Zm-3,1A1.5,1.5,0,1,1,19.5,15,1.5,1.5,0,0,1,21,16.5Zm-19,0a1,1,0,0,1,1-1H15a1,1,0,0,1,0,2H3A1,1,0,0,1,2,16.5Z"/></svg>