<svg xmlns="http://www.w3.org/2000/svg" viewBox="0 0 24 24"><defs><style>.a{fill:none;stroke:currentColor;stroke-linecap:round;stroke-linejoin:round;}</style></defs><title>app-window-move-right</title><rect class="a" x="0.5" y="2.004" width="23" height="20" rx="2" ry="2"/><line class="a" x1="0.5" y1="7.004" x2="23.5" y2="7.004"/><path class="a" d="M4,4.254a.25.25,0,1,1-.25.25A.25.25,0,0,1,4,4.254"/><path class="a" d="M7,4.254a.25.25,0,1,1-.25.25A.25.25,0,0,1,7,4.254"/><path class="a" d="M10,4.254a.25.25,0,1,1-.25.25.25.25,0,0,1,.25-.25"/><line class="a" x1="7.5" y1="6.99" x2="7.5" y2="8.504"/><line class="a" x1="7.5" y1="10.99" x2="7.5" y2="13.004"/><line class="a" x1="7.5" y1="15.504" x2="7.5" y2="17.504"/><line class="a" x1="7.5" y1="20.004" x2="7.5" y2="22.004"/><line class="a" x1="19.5" y1="15.004" x2="10.5" y2="15.004"/><polyline class="a" points="16.5 12.004 19.5 15.004 16.5 18.004"/></svg>