<svg xmlns="http://www.w3.org/2000/svg" viewBox="0 0 24 24"><defs><style>.a{fill:none;stroke:currentColor;stroke-linecap:round;stroke-linejoin:round;}</style></defs><title>app-window-rss</title><rect class="a" x="0.5" y="2.004" width="23" height="20" rx="2" ry="2"/><line class="a" x1="0.5" y1="7.004" x2="23.5" y2="7.004"/><path class="a" d="M4,4.254a.25.25,0,1,1-.25.25A.25.25,0,0,1,4,4.254"/><path class="a" d="M7,4.254a.25.25,0,1,1-.25.25A.25.25,0,0,1,7,4.254"/><path class="a" d="M10,4.254a.25.25,0,1,1-.25.25.25.25,0,0,1,.25-.25"/><path class="a" d="M8.511,18.254a.25.25,0,1,1-.25.25.25.25,0,0,1,.25-.25"/><path class="a" d="M7.511,13.648A5.856,5.856,0,0,1,13.367,19.5"/><path class="a" d="M7.511,10.014A9.49,9.49,0,0,1,17,19.5"/></svg>