<svg xmlns="http://www.w3.org/2000/svg" viewBox="0 0 24 24"><defs><style>.a{fill:none;stroke:currentColor;stroke-linecap:round;stroke-linejoin:round;}</style></defs><title>app-window-text</title><rect class="a" x="0.5" y="2.004" width="23" height="20" rx="2" ry="2"/><line class="a" x1="0.5" y1="7.004" x2="23.5" y2="7.004"/><path class="a" d="M4,4.254a.25.25,0,1,1-.25.25A.25.25,0,0,1,4,4.254"/><path class="a" d="M7,4.254a.25.25,0,1,1-.25.25A.25.25,0,0,1,7,4.254"/><path class="a" d="M10,4.254a.25.25,0,1,1-.25.25.25.25,0,0,1,.25-.25"/><line class="a" x1="18.5" y1="11.004" x2="8.5" y2="11.004"/><line class="a" x1="4.5" y1="11.004" x2="5.5" y2="11.004"/><line class="a" x1="18.5" y1="14.004" x2="8.5" y2="14.004"/><line class="a" x1="4.5" y1="14.004" x2="5.5" y2="14.004"/><line class="a" x1="18.5" y1="17.004" x2="8.5" y2="17.004"/><line class="a" x1="4.5" y1="17.004" x2="5.5" y2="17.004"/></svg>