<svg xmlns="http://www.w3.org/2000/svg" viewBox="0 0 24 24"><defs><style>.a{fill:none;stroke:currentColor;stroke-linecap:round;stroke-linejoin:round;}</style></defs><title>app-window-skull</title><rect class="a" x="0.5" y="3.004" width="23" height="18" rx="2" ry="2"/><line class="a" x1="0.5" y1="8.004" x2="23.5" y2="8.004"/><path class="a" d="M4,5.254a.25.25,0,1,1-.25.25A.25.25,0,0,1,4,5.254"/><path class="a" d="M7,5.254a.25.25,0,1,1-.25.25A.25.25,0,0,1,7,5.254"/><path class="a" d="M10,5.254a.25.25,0,1,1-.25.25.25.25,0,0,1,.25-.25"/><line class="a" x1="12" y1="17.504" x2="12" y2="19.004"/><path class="a" d="M9.5,19l0-1.876a4,4,0,1,1,5,0V19"/><path class="a" d="M10.5,13.254a.25.25,0,1,1-.25.25.25.25,0,0,1,.25-.25"/><path class="a" d="M13.5,13.254a.25.25,0,1,1-.25.25.25.25,0,0,1,.25-.25"/></svg>