<svg xmlns="http://www.w3.org/2000/svg" viewBox="0 0 24 24"><defs><style>.a{fill:none;stroke:currentColor;stroke-linecap:round;stroke-linejoin:round;}</style></defs><title>app-window-star</title><rect class="a" x="0.5" y="2.004" width="23" height="20" rx="2" ry="2"/><line class="a" x1="0.5" y1="7.004" x2="23.5" y2="7.004"/><path class="a" d="M4,4.254a.25.25,0,1,1-.25.25A.25.25,0,0,1,4,4.254"/><path class="a" d="M7,4.254a.25.25,0,1,1-.25.25A.25.25,0,0,1,7,4.254"/><path class="a" d="M10,4.254a.25.25,0,1,1-.25.25.25.25,0,0,1,.25-.25"/><path class="a" d="M13.218,9.235,14.5,12H17a.613.613,0,0,1,.431,1.069l-2.166,2.135,1.2,2.761a.654.654,0,0,1-.931.819l-2.9-1.634-2.9,1.634a.654.654,0,0,1-.931-.819L10,15.208,7.833,13.073A.611.611,0,0,1,8.261,12h2.5l1.284-2.769A.662.662,0,0,1,13.218,9.235Z"/></svg>