<svg xmlns="http://www.w3.org/2000/svg" viewBox="0 0 24 24"><defs><style>.a{fill:none;stroke:currentColor;stroke-linecap:round;stroke-linejoin:round;}</style></defs><title>app-window-two</title><line class="a" x1="0.5" y1="6.504" x2="20.5" y2="6.504"/><line class="a" x1="3.5" y1="4.254" x2="3.5" y2="4.254"/><path class="a" d="M3.5,4.254a.25.25,0,1,0,.25.25.25.25,0,0,0-.25-.25"/><line class="a" x1="5.5" y1="4.254" x2="5.5" y2="4.254"/><path class="a" d="M5.5,4.254a.25.25,0,1,0,.25.25.25.25,0,0,0-.25-.25"/><line class="a" x1="7.5" y1="4.254" x2="7.5" y2="4.254"/><path class="a" d="M7.5,4.254a.25.25,0,1,0,.25.25.25.25,0,0,0-.25-.25"/><rect class="a" x="0.5" y="2.504" width="20" height="15" rx="2" ry="2"/><line class="a" x1="20.5" y1="10.504" x2="23.5" y2="10.504"/><path class="a" d="M20.5,6.5h1a2,2,0,0,1,2,2v11a2,2,0,0,1-2,2H5.5a2,2,0,0,1-2-2v-2"/></svg>