<svg xmlns="http://www.w3.org/2000/svg" viewBox="0 0 24 24"><defs><style>.a{fill:none;stroke:currentColor;stroke-linecap:round;stroke-linejoin:round;}</style></defs><title>app-window-layout-1</title><rect class="a" x="0.5" y="3.004" width="23" height="18" rx="2" ry="2"/><line class="a" x1="0.5" y1="8.004" x2="23.5" y2="8.004"/><path class="a" d="M4,5.254a.25.25,0,1,1-.25.25A.25.25,0,0,1,4,5.254"/><path class="a" d="M7,5.254a.25.25,0,1,1-.25.25A.25.25,0,0,1,7,5.254"/><path class="a" d="M10,5.254a.25.25,0,1,1-.25.25.25.25,0,0,1,.25-.25"/><rect class="a" x="3.5" y="11.004" width="3" height="2" rx="0.5" ry="0.5"/><rect class="a" x="3.5" y="16.004" width="3" height="2" rx="0.5" ry="0.5"/><line class="a" x1="9.5" y1="12.004" x2="20.5" y2="12.004"/><line class="a" x1="9.5" y1="17.004" x2="20.5" y2="17.004"/></svg>