<svg xmlns="http://www.w3.org/2000/svg" viewBox="0 0 24 24"><defs><style>.a{fill:none;stroke:currentColor;stroke-linecap:round;stroke-linejoin:round;}</style></defs><title>app-window-multiple</title><line class="a" x1="0.5" y1="7.004" x2="19.5" y2="7.004"/><line class="a" x1="3.5" y1="4.754" x2="3.5" y2="4.754"/><path class="a" d="M3.5,4.754A.25.25,0,1,0,3.75,5a.25.25,0,0,0-.25-.25"/><line class="a" x1="5.5" y1="4.754" x2="5.5" y2="4.754"/><path class="a" d="M5.5,4.754A.25.25,0,1,0,5.75,5a.25.25,0,0,0-.25-.25"/><line class="a" x1="7.5" y1="4.754" x2="7.5" y2="4.754"/><path class="a" d="M7.5,4.754A.25.25,0,1,0,7.75,5a.25.25,0,0,0-.25-.25"/><rect class="a" x="0.5" y="3.004" width="19" height="14" rx="2" ry="2"/><path class="a" d="M19.5,5a2,2,0,0,1,2,2V17a2,2,0,0,1-2,2H4.5a2,2,0,0,1-2-2"/><path class="a" d="M21.5,7a2,2,0,0,1,2,2V19a2,2,0,0,1-2,2H6.5a2,2,0,0,1-2-2"/></svg>