<svg xmlns="http://www.w3.org/2000/svg" viewBox="0 0 24 24"><defs><style>.a,.b{fill:none;stroke:currentColor;stroke-linecap:round;stroke-linejoin:round;}.b{fill-rule:evenodd;}</style></defs><title>app-window-user</title><path class="a" d="M11.5,20.5h-9a2,2,0,0,1-2-2V2.5a2,2,0,0,1,2-2h19a2,2,0,0,1,2,2v7"/><path class="a" d="M4,2.754A.25.25,0,1,1,3.75,3,.25.25,0,0,1,4,2.754"/><line class="a" x1="0.5" y1="5.504" x2="23.5" y2="5.504"/><path class="b" d="M7,2.754A.25.25,0,1,1,6.75,3,.25.25,0,0,1,7,2.754"/><path class="b" d="M10,2.754A.25.25,0,1,1,9.75,3a.25.25,0,0,1,.25-.25"/><path class="a" d="M23.5,23.5a5,5,0,0,0-10,0Z"/><circle class="a" cx="18.5" cy="14.004" r="3"/><line class="a" x1="7" y1="9.504" x2="12" y2="9.504"/><line class="a" x1="7" y1="14.004" x2="10" y2="14.004"/><path class="a" d="M4,9.254a.25.25,0,1,1-.25.25A.25.25,0,0,1,4,9.254"/><path class="a" d="M4,13.754a.25.25,0,1,1-.25.25.25.25,0,0,1,.25-.25"/></svg>