<svg xmlns="http://www.w3.org/2000/svg" viewBox="0 0 24 24"><defs><style>.a{fill:none;stroke:currentColor;stroke-linecap:round;stroke-linejoin:round;}</style></defs><title>app-window-question</title><circle class="a" cx="17.5" cy="17.504" r="6"/><path class="a" d="M15.625,16.045A1.875,1.875,0,1,1,17.5,17.92v1"/><path class="a" d="M17.5,20.92a.25.25,0,1,1-.25.25.25.25,0,0,1,.25-.25"/><line class="a" x1="0.5" y1="4.504" x2="20.5" y2="4.504"/><line class="a" x1="3.5" y1="2.254" x2="3.5" y2="2.254"/><path class="a" d="M3.5,2.254a.25.25,0,1,0,.25.25.249.249,0,0,0-.25-.25"/><line class="a" x1="5.5" y1="2.254" x2="5.5" y2="2.254"/><path class="a" d="M5.5,2.254a.25.25,0,1,0,.25.25.249.249,0,0,0-.25-.25"/><line class="a" x1="7.5" y1="2.254" x2="7.5" y2="2.254"/><path class="a" d="M7.5,2.254a.25.25,0,1,0,.25.25.249.249,0,0,0-.25-.25"/><path class="a" d="M8.5,16.5h-6a2,2,0,0,1-2-2V2.5a2,2,0,0,1,2-2h16a2,2,0,0,1,2,2v6"/></svg>