<svg xmlns="http://www.w3.org/2000/svg" viewBox="0 0 24 24"><defs><style>.a{fill:none;stroke:currentColor;stroke-linecap:round;stroke-linejoin:round;}</style></defs><title>app-window-cash-1</title><path class="a" d="M19.03,14.505H17a1.341,1.341,0,0,0-.5,2.587l2.063.825a1.342,1.342,0,0,1-.5,2.588H16.03"/><line class="a" x1="17.53" y1="21.505" x2="17.53" y2="20.505"/><line class="a" x1="17.53" y1="14.505" x2="17.53" y2="13.505"/><circle class="a" cx="17.53" cy="17.505" r="6"/><line class="a" x1="0.53" y1="4.504" x2="20.53" y2="4.504"/><line class="a" x1="3.53" y1="2.254" x2="3.53" y2="2.254"/><path class="a" d="M3.53,2.254a.25.25,0,1,0,.25.25.25.25,0,0,0-.25-.25"/><line class="a" x1="5.53" y1="2.254" x2="5.53" y2="2.254"/><path class="a" d="M5.53,2.254a.25.25,0,1,0,.25.25.25.25,0,0,0-.25-.25"/><line class="a" x1="7.53" y1="2.254" x2="7.53" y2="2.254"/><path class="a" d="M7.53,2.254a.25.25,0,1,0,.25.25.25.25,0,0,0-.25-.25"/><path class="a" d="M8.53,16.5h-6a2,2,0,0,1-2-2V2.5a2,2,0,0,1,2-2h16a2,2,0,0,1,2,2v6"/></svg>