<svg xmlns="http://www.w3.org/2000/svg" viewBox="0 0 24 24"><defs><style>.a{fill:none;stroke:currentColor;stroke-linecap:round;stroke-linejoin:round;}</style></defs><title>app-window-clock</title><line class="a" x1="0.518" y1="4.504" x2="20.518" y2="4.504"/><line class="a" x1="3.518" y1="2.254" x2="3.518" y2="2.254"/><path class="a" d="M3.518,2.254a.25.25,0,1,0,.25.25.25.25,0,0,0-.25-.25"/><line class="a" x1="5.518" y1="2.254" x2="5.518" y2="2.254"/><path class="a" d="M5.518,2.254a.25.25,0,1,0,.25.25.25.25,0,0,0-.25-.25"/><line class="a" x1="7.518" y1="2.254" x2="7.518" y2="2.254"/><path class="a" d="M7.518,2.254a.25.25,0,1,0,.25.25.25.25,0,0,0-.25-.25"/><path class="a" d="M8.518,16.5h-6a2,2,0,0,1-2-2V2.5a2,2,0,0,1,2-2h16a2,2,0,0,1,2,2V10"/><circle class="a" cx="17.518" cy="17.505" r="6"/><polyline class="a" points="19.518 17.505 17.518 17.505 17.518 14.505"/></svg>