<svg id="Light" xmlns="http://www.w3.org/2000/svg" viewBox="0 0 24 24"><defs><style>.cls-1{fill:none;stroke:currentColor;stroke-linecap:round;stroke-linejoin:round;}</style></defs><title>single-man-actions-setting</title><circle class="cls-1" cx="17.75" cy="17.031" r="1.437"/><path class="cls-1" d="M18.971,11.47l.424,1.392a.951.951,0,0,0,1.124.653l1.412-.327a1.283,1.283,0,0,1,1.221,2.126l-.988,1.065a.96.96,0,0,0,0,1.3l.988,1.065a1.283,1.283,0,0,1-1.221,2.126l-1.412-.328A.953.953,0,0,0,19.4,21.2l-.424,1.392a1.275,1.275,0,0,1-2.442,0L16.105,21.2a.953.953,0,0,0-1.124-.653l-1.412.328a1.283,1.283,0,0,1-1.221-2.126l.988-1.065a.96.96,0,0,0,0-1.3l-.988-1.065a1.283,1.283,0,0,1,1.221-2.126l1.412.327a.951.951,0,0,0,1.124-.653l.424-1.392A1.275,1.275,0,0,1,18.971,11.47Z"/><path class="cls-1" d="M9.5,17.5H.5a7,7,0,0,1,10.783-5.89"/><path class="cls-1" d="M3.838,2.593A7.052,7.052,0,0,0,8.917,4.75a7.047,7.047,0,0,0,2.794-.575"/><circle class="cls-1" cx="7.5" cy="4.75" r="4.25"/></svg>