<svg id="Light" xmlns="http://www.w3.org/2000/svg" viewBox="0 0 24 24"><defs><style>.cls-1{fill:none;stroke:currentColor;stroke-linecap:round;stroke-linejoin:round;}</style></defs><title>single-man-actions-information</title><circle class="cls-1" cx="17.5" cy="17.5" r="6"/><path class="cls-1" d="M17.5,20.5V17a.5.5,0,0,0-.5-.5H16"/><path class="cls-1" d="M16.75,14a.25.25,0,1,1-.25.25.25.25,0,0,1,.25-.25"/><line class="cls-1" x1="16" y1="20.5" x2="19" y2="20.5"/><path class="cls-1" d="M8.5,17.5H.5a7,7,0,0,1,10.783-5.89"/><path class="cls-1" d="M3.838,2.592A7.049,7.049,0,0,0,8.917,4.75a7.047,7.047,0,0,0,2.794-.575"/><circle class="cls-1" cx="7.5" cy="4.75" r="4.25"/></svg>