<svg id="Light" xmlns="http://www.w3.org/2000/svg" viewBox="0 0 24 24"><defs><style>.cls-1{fill:none;stroke:currentColor;stroke-linecap:round;stroke-linejoin:round;}</style></defs><title>single-man-actions-mail</title><path class="cls-1" d="M23.5,16v6.5a1,1,0,0,1-1,1h-10a1,1,0,0,1-1-1V16"/><path class="cls-1" d="M23.5,16v-.5a1,1,0,0,0-1-1h-10a1,1,0,0,0-1,1V16l5.2,3.253a1.5,1.5,0,0,0,1.59,0Z"/><path class="cls-1" d="M8.5,17.5H.5a7,7,0,0,1,10.783-5.89"/><path class="cls-1" d="M3.838,2.592A7.049,7.049,0,0,0,8.917,4.75a7.047,7.047,0,0,0,2.794-.575"/><circle class="cls-1" cx="7.5" cy="4.75" r="4.25"/></svg>