<?xml version="1.0" encoding="utf-8"?>
<!-- Generator: Adobe Illustrator 22.1.0, SVG Export Plug-In . SVG Version: 6.00 Build 0)  -->
<svg version="1.1" id="Layer_1" xmlns="http://www.w3.org/2000/svg" xmlns:xlink="http://www.w3.org/1999/xlink" x="0px" y="0px"
	 viewBox="0 0 24 24" style="enable-background:new 0 0 24 24;" xml:space="preserve">
<title>transfer-pictures-laptop</title>
<g>
	<path d="M2.251,24c-0.603-0.002-1.167-0.237-1.591-0.664c-0.424-0.426-0.656-0.992-0.654-1.593
		c0.001-0.269,0.049-0.533,0.143-0.784l1.125-3c0.132-0.352,0.354-0.665,0.642-0.911C1.648,16.671,1.5,16.216,1.5,15.75v-6
		C1.5,8.509,2.51,7.5,3.75,7.5h6c0.414,0,0.75,0.336,0.75,0.75S10.164,9,9.75,9h-6C3.337,9,3,9.336,3,9.75v6
		c0,0.414,0.336,0.75,0.75,0.75h12c0.414,0,0.75-0.336,0.75-0.75v-3c0-0.414,0.336-0.75,0.75-0.75S18,12.336,18,12.75v3
		c0,0.453-0.133,0.885-0.382,1.253c0.312,0.251,0.553,0.58,0.694,0.956l0.968,3.027c0.422,1.142-0.17,2.437-1.325,2.87
		C17.701,23.952,17.435,24,17.163,24H2.251z M3.376,18c-0.309,0.001-0.589,0.197-0.698,0.487l-1.125,3
		c-0.031,0.084-0.047,0.172-0.048,0.261c-0.001,0.2,0.077,0.389,0.218,0.531c0.141,0.142,0.329,0.22,0.53,0.221h14.91
		c0.091,0,0.179-0.016,0.264-0.048c0.387-0.145,0.584-0.579,0.439-0.966c-0.002-0.006-0.01-0.029-0.012-0.035l-0.958-3
		c-0.097-0.257-0.383-0.45-0.688-0.451H3.376L3.376,18z"/>
	<path d="M8.25,21c-0.414,0-0.75-0.336-0.75-0.75s0.336-0.75,0.75-0.75h3c0.414,0,0.75,0.336,0.75,0.75S11.664,21,11.25,21H8.25z"/>
	<path d="M14.25,10.5C13.01,10.5,12,9.491,12,8.25v-4.5c0-1.241,1.009-2.25,2.25-2.25h2.537l0.542-1.085C17.457,0.159,17.714,0,18,0
		h3c0.286,0,0.543,0.159,0.671,0.415l0.57,1.139C23.257,1.78,24,2.69,24,3.75v4.5c0,1.241-1.009,2.25-2.25,2.25H14.25z M14.25,3
		c-0.414,0-0.75,0.336-0.75,0.75v4.5C13.5,8.664,13.837,9,14.25,9h7.5c0.414,0,0.75-0.336,0.75-0.75v-4.5
		C22.5,3.336,22.164,3,21.75,3c-0.286,0-0.543-0.159-0.671-0.415L20.537,1.5h-2.073l-0.542,1.085C17.793,2.841,17.536,3,17.25,3
		H14.25z"/>
	<circle cx="19.125" cy="5.625" r="1.125"/>
</g>
</svg>
