<?xml version="1.0" encoding="utf-8"?>
<!-- Generator: Adobe Illustrator 22.1.0, SVG Export Plug-In . SVG Version: 6.00 Build 0)  -->
<svg version="1.1" id="Layer_1" xmlns="http://www.w3.org/2000/svg" xmlns:xlink="http://www.w3.org/1999/xlink" x="0px" y="0px"
	 viewBox="0 0 24 24" style="enable-background:new 0 0 24 24;" xml:space="preserve">
<g>
	<title>key-lock-1</title>
	<path d="M5.998,24.03c-1.59,0-3.089-0.616-4.219-1.735c-1.139-1.127-1.771-2.631-1.78-4.234c-0.008-1.603,0.608-3.113,1.735-4.252
		c1.127-1.139,2.631-1.771,4.233-1.78c2.524,0,4.828,1.636,5.672,4h7.349c0.128,0,0.251,0.049,0.344,0.137l1.512,1.435
		c0.097,0.093,0.152,0.217,0.156,0.35c0.003,0.133-0.048,0.263-0.139,0.358l-1.498,1.567c-0.093,0.098-0.224,0.154-0.359,0.155
		l-1.3,0.006l-0.851,0.816c-0.093,0.09-0.216,0.139-0.346,0.139l0,0c-0.128,0-0.25-0.049-0.344-0.137l-0.861-0.817h-0.599
		l-0.854,0.821c-0.094,0.09-0.217,0.14-0.346,0.14c-0.13,0-0.254-0.05-0.348-0.141L12.3,20.035h-0.646
		c-0.837,2.348-3.123,3.982-5.623,3.995c0,0-0.001,0-0.001,0H5.998z M5.972,13.03c-1.335,0.007-2.588,0.534-3.527,1.483
		c-0.939,0.949-1.453,2.208-1.446,3.543c0.007,1.335,0.534,2.588,1.483,3.528c0.942,0.932,2.2,1.445,3.545,1.446
		c2.209-0.011,4.176-1.505,4.781-3.632c0.061-0.214,0.259-0.363,0.481-0.363h1.213c0.131,0,0.254,0.05,0.348,0.141l0.653,0.631
		l0.652-0.627c0.094-0.09,0.217-0.14,0.347-0.14h1c0.128,0,0.251,0.049,0.344,0.137l0.659,0.626l0.651-0.624
		c0.093-0.089,0.215-0.139,0.344-0.139l1.287-0.006l1.005-1.052l-1.004-0.952h-7.513c-0.222,0-0.42-0.149-0.481-0.363
		C10.182,14.526,8.199,13.03,5.972,13.03L5.972,13.03z"/>
	<path d="M3.995,20.03c-1.103,0-2-0.897-2-2s0.897-2,2-2s2,0.897,2,2S5.098,20.03,3.995,20.03z M3.995,17.03c-0.551,0-1,0.448-1,1
		s0.449,1,1,1s1-0.448,1-1S4.546,17.03,3.995,17.03z"/>
	<path d="M22.5,18.005c-0.276,0-0.5-0.224-0.5-0.5s0.224-0.5,0.5-0.5s0.5-0.224,0.5-0.5V8.53c-0.001-0.272-0.226-0.495-0.5-0.495
		l-9.955-0.008c-0.013,0.002-0.027,0.003-0.038,0.003c-0.012,0-0.028-0.001-0.042-0.004l-0.964,0c-0.275,0-0.5,0.224-0.5,0.5v3.029
		c0,0.276-0.224,0.5-0.5,0.5s-0.5-0.224-0.5-0.5V8.526c0-0.827,0.673-1.5,1.5-1.5l0.505,0L12,5.051
		c-0.006-1.335,0.509-2.593,1.449-3.541c0.94-0.948,2.193-1.474,3.529-1.48c2.767,0,5.01,2.233,5.022,4.978l0.009,2.027l0.491,0
		c0.822,0,1.495,0.669,1.5,1.492v7.978C24,17.332,23.327,18.005,22.5,18.005z M21.009,7.034L21,5.012
		c-0.01-2.196-1.804-3.982-4-3.982l-0.019-0.25l0.001,0.25c-1.069,0.005-2.071,0.425-2.823,1.184S12.995,3.979,13,5.048l0.005,1.979
		L21.009,7.034z"/>
	<path d="M17,14.03c-1.103,0-2-0.897-2-2s0.897-2,2-2s2,0.897,2,2S18.103,14.03,17,14.03z M17,11.03c-0.552,0-1,0.449-1,1
		c0,0.552,0.448,1,1,1s1-0.448,1-1C18,11.479,17.552,11.03,17,11.03z"/>
</g>
</svg>
