<?xml version="1.0" encoding="utf-8"?>
<!-- Generator: Adobe Illustrator 22.1.0, SVG Export Plug-In . SVG Version: 6.00 Build 0)  -->
<svg version="1.1" id="Layer_1" xmlns="http://www.w3.org/2000/svg" xmlns:xlink="http://www.w3.org/1999/xlink" x="0px" y="0px"
	 viewBox="0 0 24 24" style="enable-background:new 0 0 24 24;" xml:space="preserve">
<g>
	<title>lock-password-1</title>
	<circle cx="8.5" cy="13.25" r="0.75"/>
	<circle cx="12" cy="13.25" r="0.75"/>
	<circle cx="15.5" cy="13.25" r="0.75"/>
	<circle cx="8.5" cy="16.75" r="0.75"/>
	<circle cx="12" cy="16.75" r="0.75"/>
	<circle cx="15.5" cy="16.75" r="0.75"/>
	<circle cx="8.5" cy="20.25" r="0.75"/>
	<path d="M12,21c-0.414,0-0.75-0.336-0.75-0.75c0-0.385,0.29-0.704,0.674-0.744c0.007-0.001,0.019-0.002,0.026-0.002
		C11.959,19.502,11.979,19.5,12,19.5c0.01,0,0.052,0.004,0.057,0.004c0.383,0.022,0.693,0.35,0.693,0.746
		C12.75,20.664,12.414,21,12,21z"/>
	<circle cx="15.5" cy="20.25" r="0.75"/>
	<path d="M4.5,24C3.673,24,3,23.327,3,22.5v-12C3,9.673,3.673,9,4.5,9H6V6c0-3.308,2.692-6,6-6c3.308,0,6,2.692,6,6v3h1.5
		c0.827,0,1.5,0.673,1.5,1.5v12c0,0.827-0.673,1.5-1.5,1.5H4.5z M4.5,10C4.224,10,4,10.224,4,10.5v12C4,22.776,4.224,23,4.5,23h15
		c0.276,0,0.5-0.224,0.5-0.5v-12c0-0.276-0.224-0.5-0.5-0.5H4.5z M17,9V6c0-2.757-2.243-5-5-5C9.243,1,7,3.243,7,6v3H17z"/>
</g>
</svg>
