<?xml version="1.0" encoding="utf-8"?>
<!-- Generator: Adobe Illustrator 22.1.0, SVG Export Plug-In . SVG Version: 6.00 Build 0)  -->
<svg version="1.1" id="Layer_1" xmlns="http://www.w3.org/2000/svg" xmlns:xlink="http://www.w3.org/1999/xlink" x="0px" y="0px"
	 viewBox="0 0 24 24" style="enable-background:new 0 0 24 24;" xml:space="preserve">
<g>
	<title>lock-circle</title>
	<path d="M8.512,17.042c-0.828,0-1.501-0.673-1.501-1.5L7,10.536c-0.002-0.4,0.152-0.777,0.434-1.062
		C7.716,9.19,8.092,9.032,8.492,9.03H8.51V8.544C8.506,7.611,8.866,6.731,9.524,6.067c0.658-0.664,1.535-1.032,2.47-1.036
		c0.945,0,1.82,0.36,2.479,1.014c0.664,0.658,1.032,1.535,1.036,2.47v0.52c0.821,0.002,1.492,0.671,1.496,1.493v4.983
		c0,0.823-0.669,1.496-1.492,1.5C15.513,17.01,8.512,17.042,8.512,17.042z M8.5,10.03C8.223,10.032,7.999,10.257,8,10.533
		l0.011,5.009c0,0.276,0.224,0.501,0.5,0.501l6.998-0.032c0.274-0.001,0.497-0.226,0.497-0.5v-4.98
		c-0.001-0.272-0.226-0.495-0.5-0.495L8.5,10.03z M14.51,9.034V8.517c-0.003-0.666-0.266-1.292-0.74-1.762
		c-0.471-0.467-1.096-0.724-1.759-0.724l-0.013-0.25l0.001,0.25c-0.668,0.003-1.294,0.266-1.764,0.74
		C9.764,7.245,9.507,7.874,9.51,8.542v0.489L14.51,9.034z"/>
	<path d="M12.014,15.03c-0.275,0-0.499-0.223-0.5-0.498l-0.008-2.187c-0.011-0.01-0.023-0.02-0.033-0.03
		c-0.143-0.141-0.222-0.328-0.224-0.528c0-0.417,0.336-0.756,0.749-0.757c0.223,0.012,0.396,0.084,0.529,0.215
		c0.143,0.141,0.222,0.328,0.224,0.528c0.002,0.213-0.09,0.416-0.245,0.559l0.008,2.196c0,0.134-0.051,0.26-0.145,0.354
		c-0.094,0.095-0.22,0.147-0.353,0.148C12.015,15.03,12.015,15.03,12.014,15.03L12.014,15.03z"/>
	<path d="M12.004,24.03c-6.617,0-12-5.383-12-12s5.383-12,12-12c6.617,0,12,5.383,12,12S18.621,24.03,12.004,24.03z M12.004,1.03
		c-6.065,0-11,4.935-11,11c0,6.066,4.935,11,11,11s11-4.935,11-11C23.004,5.965,18.069,1.03,12.004,1.03z"/>
</g>
</svg>
