<?xml version="1.0" encoding="utf-8"?>
<!-- Generator: Adobe Illustrator 22.1.0, SVG Export Plug-In . SVG Version: 6.00 Build 0)  -->
<svg version="1.1" id="Layer_1" xmlns="http://www.w3.org/2000/svg" xmlns:xlink="http://www.w3.org/1999/xlink" x="0px" y="0px"
	 viewBox="0 0 24 24" style="enable-background:new 0 0 24 24;" xml:space="preserve">
<g>
	<title>lock-1</title>
	<path d="M12,19.5c-0.276,0-0.5-0.224-0.5-0.5v-2.586c-0.59-0.209-1-0.774-1-1.414c0-0.827,0.673-1.5,1.5-1.5s1.5,0.673,1.5,1.5
		c0,0.64-0.41,1.205-1,1.414V19C12.5,19.276,12.276,19.5,12,19.5z M12,14.5c-0.276,0-0.5,0.224-0.5,0.5s0.224,0.5,0.5,0.5
		c0.276,0,0.5-0.224,0.5-0.5S12.276,14.5,12,14.5z"/>
	<path d="M4.5,24C3.673,24,3,23.327,3,22.5v-12C3,9.673,3.673,9,4.5,9H6V6c0-3.308,2.692-6,6-6c3.308,0,6,2.692,6,6v3h1.5
		c0.827,0,1.5,0.673,1.5,1.5v12c0,0.827-0.673,1.5-1.5,1.5H4.5z M4.5,10C4.224,10,4,10.224,4,10.5v12C4,22.776,4.224,23,4.5,23h15
		c0.276,0,0.5-0.224,0.5-0.5v-12c0-0.276-0.224-0.5-0.5-0.5H4.5z M17,9V6c0-2.757-2.243-5-5-5C9.243,1,7,3.243,7,6v3H17z"/>
</g>
</svg>
