<?xml version="1.0" encoding="utf-8"?>
<!-- Generator: Adobe Illustrator 22.1.0, SVG Export Plug-In . SVG Version: 6.00 Build 0)  -->
<svg version="1.1" id="Layer_1" xmlns="http://www.w3.org/2000/svg" xmlns:xlink="http://www.w3.org/1999/xlink" x="0px" y="0px"
	 viewBox="0 0 24 24" style="enable-background:new 0 0 24 24;" xml:space="preserve">
<g>
	<title>lock-unlock-4</title>
	<path d="M12,18.53c-1.379,0-2.5-1.122-2.5-2.5s1.121-2.5,2.5-2.5c1.378,0,2.5,1.122,2.5,2.5S13.378,18.53,12,18.53z M12,14.53
		c-0.827,0-1.5,0.673-1.5,1.5s0.673,1.5,1.5,1.5s1.5-0.673,1.5-1.5S12.827,14.53,12,14.53z"/>
	<path d="M7.5,24.03c-2.481,0-4.5-2.019-4.5-4.5v-6c0-2.481,2.019-4.5,4.5-4.5h9c0.163,0,0.329,0.01,0.5,0.03V6.03
		c0-2.757-2.243-5-5-5c-2.757,0-5,2.243-5,5c0,0.276-0.224,0.5-0.5,0.5S6,6.306,6,6.03c0-3.308,2.692-6,6-6c3.308,0,6,2.692,6,6
		v3.258c1.802,0.636,3,2.318,3,4.243v6c0,2.481-2.019,4.5-4.5,4.5H7.5z M7.5,10.03c-1.93,0-3.5,1.57-3.5,3.5v6
		c0,1.93,1.57,3.5,3.5,3.5h9c1.93,0,3.5-1.57,3.5-3.5v-6c0-1.93-1.57-3.5-3.5-3.5H7.5z"/>
</g>
</svg>
