<?xml version="1.0" encoding="utf-8"?>
<!-- Generator: Adobe Illustrator 22.1.0, SVG Export Plug-In . SVG Version: 6.00 Build 0)  -->
<svg version="1.1" id="Layer_1" xmlns="http://www.w3.org/2000/svg" xmlns:xlink="http://www.w3.org/1999/xlink" x="0px" y="0px"
	 viewBox="0 0 24 24" style="enable-background:new 0 0 24 24;" xml:space="preserve">
<g>
	<title>layout-left</title>
	<path d="M1.5,22.997c-0.827,0-1.5-0.673-1.5-1.5v-20c0-0.827,0.673-1.5,1.5-1.5h20c0.827,0,1.5,0.673,1.5,1.5v20
		c0,0.827-0.673,1.5-1.5,1.5H1.5z M21.5,21.997c0.276,0,0.5-0.224,0.5-0.5v-20c0-0.276-0.224-0.5-0.5-0.5H8v21H21.5z M1.5,0.997
		c-0.276,0-0.5,0.224-0.5,0.5v20c0,0.276,0.224,0.5,0.5,0.5H7v-21H1.5z"/>
</g>
</svg>
