<?xml version="1.0" encoding="utf-8"?>
<!-- Generator: Adobe Illustrator 22.1.0, SVG Export Plug-In . SVG Version: 6.00 Build 0)  -->
<svg version="1.1" id="Layer_1" xmlns="http://www.w3.org/2000/svg" xmlns:xlink="http://www.w3.org/1999/xlink" x="0px" y="0px"
	 viewBox="0 0 24 24" style="enable-background:new 0 0 24 24;" xml:space="preserve">
<g>
	<title>layout-bullets</title>
	<path d="M9.5,7C8.673,7,8,6.327,8,5.5v-3C8,1.673,8.673,1,9.5,1h13C23.327,1,24,1.673,24,2.5v3C24,6.327,23.327,7,22.5,7H9.5z
		 M9.5,2C9.224,2,9,2.224,9,2.5v3C9,5.776,9.224,6,9.5,6h13C22.776,6,23,5.776,23,5.5v-3C23,2.224,22.776,2,22.5,2H9.5z"/>
	<path d="M9.5,15C8.673,15,8,14.327,8,13.5v-3C8,9.673,8.673,9,9.5,9h13c0.827,0,1.5,0.673,1.5,1.5v3c0,0.827-0.673,1.5-1.5,1.5H9.5
		z M9.5,10C9.224,10,9,10.224,9,10.5v3C9,13.776,9.224,14,9.5,14h13c0.276,0,0.5-0.224,0.5-0.5v-3c0-0.276-0.224-0.5-0.5-0.5H9.5z"
		/>
	<path d="M9.5,23C8.673,23,8,22.327,8,21.5v-3C8,17.673,8.673,17,9.5,17h13c0.827,0,1.5,0.673,1.5,1.5v3c0,0.827-0.673,1.5-1.5,1.5
		H9.5z M9.5,18C9.224,18,9,18.224,9,18.5v3C9,21.776,9.224,22,9.5,22h13c0.276,0,0.5-0.224,0.5-0.5v-3c0-0.276-0.224-0.5-0.5-0.5
		H9.5z"/>
	<path d="M1.5,7C0.673,7,0,6.327,0,5.5v-3C0,1.673,0.673,1,1.5,1h3C5.327,1,6,1.673,6,2.5v3C6,6.327,5.327,7,4.5,7H1.5z M1.5,2
		C1.224,2,1,2.224,1,2.5v3C1,5.776,1.224,6,1.5,6h3C4.776,6,5,5.776,5,5.5v-3C5,2.224,4.776,2,4.5,2H1.5z"/>
	<path d="M1.5,15C0.673,15,0,14.327,0,13.5v-3C0,9.673,0.673,9,1.5,9h3C5.327,9,6,9.673,6,10.5v3C6,14.327,1.5,15,1.5,15z M1.5,10
		C1.224,10,1,10.224,1,10.5v3C1,13.776,1.224,14,1.5,14h3C4.776,14,5,13.776,5,13.5v-3C5,10.224,4.776,10,4.5,10H1.5z"/>
	<path d="M1.5,23C0.673,23,0,22.327,0,21.5v-3C0,17.673,0.673,17,1.5,17h3C5.327,17,6,17.673,6,18.5v3C6,22.327,5.327,23,4.5,23H1.5
		z M1.5,18C1.224,18,1,18.224,1,18.5v3C1,21.776,1.224,22,1.5,22h3C4.776,22,5,21.776,5,21.5v-3C5,18.224,4.776,18,4.5,18H1.5z"/>
</g>
</svg>
