<?xml version="1.0" encoding="utf-8"?>
<!-- Generator: Adobe Illustrator 22.1.0, SVG Export Plug-In . SVG Version: 6.00 Build 0)  -->
<svg version="1.1" id="Layer_1" xmlns="http://www.w3.org/2000/svg" xmlns:xlink="http://www.w3.org/1999/xlink" x="0px" y="0px"
	 viewBox="0 0 24 24" style="enable-background:new 0 0 24 24;" xml:space="preserve">
<g>
	<title>button-next</title>
	<path d="M12,23.999c-6.617,0-12-5.383-12-12c0-6.617,5.383-12,12-12c6.617,0,12,5.383,12,12C24,18.616,18.617,23.999,12,23.999z
		 M12,0.999c-6.065,0-11,4.935-11,11s4.935,11,11,11s11-4.935,11-11S18.065,0.999,12,0.999z"/>
	<path d="M15,16.999c-0.552,0-1-0.448-1-1v-8c0-0.551,0.448-1,1-1h1c0.552,0,1,0.449,1,1v8c0,0.552-0.448,1-1,1H15z M15,15.999h1v-8
		l-1,0L15,15.999z"/>
	<path d="M8,16.376c-0.552,0-1-0.448-1-1V8.621c0-0.247,0.091-0.484,0.256-0.667c0.178-0.198,0.423-0.316,0.69-0.33
		c0.018-0.001,0.037-0.001,0.055-0.001c0.246,0,0.483,0.091,0.667,0.256l3.754,3.378c0.024,0.021,0.048,0.046,0.071,0.071
		c0.371,0.412,0.339,1.046-0.071,1.415L8.668,16.12C8.484,16.285,8.247,16.376,8,16.376z M8,15.376l3.753-3.377L8,8.622l0,0
		L8,15.376z"/>
</g>
</svg>
