<?xml version="1.0" encoding="utf-8"?>
<!-- Generator: Adobe Illustrator 22.1.0, SVG Export Plug-In . SVG Version: 6.00 Build 0)  -->
<svg version="1.1" id="Layer_1" xmlns="http://www.w3.org/2000/svg" xmlns:xlink="http://www.w3.org/1999/xlink" x="0px" y="0px"
	 viewBox="0 0 24 24" style="enable-background:new 0 0 24 24;" xml:space="preserve">
<g>
	<title>button-record-1</title>
	<path d="M12,23.999c-6.617,0-12-5.383-12-12c0-6.617,5.383-12,12-12c6.617,0,12,5.383,12,12C24,18.616,18.617,23.999,12,23.999z
		 M12,0.999c-6.065,0-11,4.935-11,11s4.935,11,11,11s11-4.935,11-11S18.065,0.999,12,0.999z"/>
	<path d="M12,16.999c-2.757,0-5-2.243-5-5c0-2.757,2.243-5,5-5c2.757,0,5,2.243,5,5C17,14.756,14.757,16.999,12,16.999z M12,7.999
		c-2.206,0-4,1.794-4,4s1.794,4,4,4s4-1.794,4-4S14.206,7.999,12,7.999z"/>
</g>
</svg>
