<?xml version="1.0" encoding="utf-8"?>
<!-- Generator: Adobe Illustrator 22.1.0, SVG Export Plug-In . SVG Version: 6.00 Build 0)  -->
<svg version="1.1" id="Layer_1" xmlns="http://www.w3.org/2000/svg" xmlns:xlink="http://www.w3.org/1999/xlink" x="0px" y="0px"
	 viewBox="0 0 24 24" style="enable-background:new 0 0 24 24;" xml:space="preserve">
<g>
	<title>button-pause-1</title>
	<path d="M12,23.999c-6.617,0-12-5.383-12-12c0-6.617,5.383-12,12-12c6.617,0,12,5.383,12,12C24,18.616,18.617,23.999,12,23.999z
		 M12,0.999c-6.065,0-11,4.935-11,11s4.935,11,11,11s11-4.935,11-11S18.065,0.999,12,0.999z"/>
	<path d="M8,16.999c-0.551,0-1-0.448-1-1v-8c0-0.551,0.449-1,1-1h2c0.551,0,1,0.449,1,1v8c0,0.552-0.449,1-1,1H8z M8,15.999h2v-8
		l-2,0L8,15.999z"/>
	<path d="M14,16.999c-0.552,0-1-0.448-1-1v-8c0-0.551,0.448-1,1-1h2c0.552,0,1,0.449,1,1v8c0,0.552-0.448,1-1,1H14z M14,15.999h2v-8
		l-2,0L14,15.999z"/>
</g>
</svg>
