<svg xmlns="http://www.w3.org/2000/svg" viewBox="0 0 24 24"><defs><style>.a{fill:none;stroke:currentColor;stroke-linecap:round;stroke-linejoin:round;}</style></defs><title>archive-folder</title><path class="a" d="M17.5,12.5a1,1,0,0,0-1,1,1,1,0,0,1-1,1h-7a1,1,0,0,1-1-1,1,1,0,0,0-1-1h-5a1,1,0,0,0-1,1v6a1,1,0,0,0,1,1h21a1,1,0,0,0,1-1v-6a1,1,0,0,0-1-1Z"/><line class="a" x1="9.5" y1="12.5" x2="14.5" y2="12.5"/><path class="a" d="M2.5,10.5a1,1,0,0,1,1-1h17a1,1,0,0,1,1,1"/><path class="a" d="M2.5,7.5a1,1,0,0,1,1-1h17a1,1,0,0,1,1,1"/><path class="a" d="M2.5,4.5a1,1,0,0,1,1-1h17a1,1,0,0,1,1,1"/></svg>