<svg xmlns="http://www.w3.org/2000/svg" viewBox="0 0 24 24"><defs><style>.a{fill:none;stroke:currentColor;stroke-linecap:round;stroke-linejoin:round;}</style></defs><title>programming-language-html-5</title><path class="a" d="M20.509,19.966a1,1,0,0,1-.657.795l-7.6,2.682a1,1,0,0,1-.665,0l-7.6-2.682a1,1,0,0,1-.656-.795L.592,1.709A1,1,0,0,1,1.581.56H22.258a1,1,0,0,1,.989,1.149Z"/><path class="a" d="M17.419,4.56H7.01a.5.5,0,0,0-.494.583l.834,5a.5.5,0,0,0,.493.417h8a.5.5,0,0,1,.5.571l-.873,6.108a.5.5,0,0,1-.357.411l-3.051.871a.5.5,0,0,1-.275,0l-3.059-.874a.5.5,0,0,1-.356-.4L7.919,14.56"/></svg>