<svg xmlns="http://www.w3.org/2000/svg" viewBox="0 0 24 24"><defs><style>.a{fill:none;stroke:currentColor;stroke-linecap:round;stroke-linejoin:round;}</style></defs><title>programming-language-html</title><rect class="a" x="0.5" y="2.5" width="23" height="19" rx="2" ry="2"/><line class="a" x1="0.5" y1="7.5" x2="23.5" y2="7.5"/><path class="a" d="M4,4.75A.25.25,0,1,1,3.75,5,.25.25,0,0,1,4,4.75"/><path class="a" d="M7,4.75A.25.25,0,1,1,6.75,5,.25.25,0,0,1,7,4.75"/><path class="a" d="M10,4.75A.25.25,0,1,1,9.75,5,.25.25,0,0,1,10,4.75"/><line class="a" x1="9.5" y1="16.5" x2="9.5" y2="11.5"/><line class="a" x1="8.5" y1="11.5" x2="10.5" y2="11.5"/><line class="a" x1="4.5" y1="16.5" x2="4.5" y2="11.5"/><line class="a" x1="6.5" y1="16.5" x2="6.5" y2="11.5"/><line class="a" x1="4.5" y1="14.5" x2="6.5" y2="14.5"/><path class="a" d="M17.5,11.5v4a1,1,0,0,0,1,1h1"/><polyline class="a" points="15.5 16.5 15.5 11.5 14 14 12.5 11.5 12.5 16.5"/></svg>