<svg xmlns="http://www.w3.org/2000/svg" viewBox="0 0 24 24"><defs><style>.a{fill:none;stroke:currentColor;stroke-linecap:round;stroke-linejoin:round;}</style></defs><title>programming-language-monitor-css</title><line class="a" x1="5" y1="22" x2="19" y2="22"/><line class="a" x1="11.5" y1="20" x2="11.5" y2="22"/><line class="a" x1="0.5" y1="16" x2="23.5" y2="16"/><path class="a" d="M8.5,7a2,2,0,0,0-2,2v1a2,2,0,0,0,2,2"/><path class="a" d="M12.5,7h-1a1,1,0,0,0-1,1c0,1.5,2,1.5,2,3a1,1,0,0,1-1,1h-1"/><path class="a" d="M16.5,7h-1a1,1,0,0,0-1,1c0,1.5,2,1.5,2,3a1,1,0,0,1-1,1h-1"/><rect class="a" x="0.5" y="2" width="23" height="18" rx="1.5" ry="1.5"/></svg>