<svg id="Bold" xmlns="http://www.w3.org/2000/svg" viewBox="0 0 24 24"><title>single-man-monitor</title><path d="M24,2.5A1.5,1.5,0,0,0,22.5,1H1.5A1.5,1.5,0,0,0,0,2.5V17a1.5,1.5,0,0,0,1.5,1.5h9a.5.5,0,0,1,.5.5v1.5a.5.5,0,0,1-.5.5H4a1,1,0,0,0,0,2H20a1,1,0,0,0,0-2H13.5a.5.5,0,0,1-.5-.5V19a.5.5,0,0,1,.5-.5h9A1.5,1.5,0,0,0,24,17ZM9.89,4.345a.254.254,0,0,1-.1-.187.25.25,0,0,1,.078-.2,3.5,3.5,0,0,1,5.524.938.25.25,0,0,1-.146.353,5.936,5.936,0,0,1-1.791.277A6.169,6.169,0,0,1,9.89,4.345Zm-1.046,1.4a.233.233,0,0,1,.147-.165.236.236,0,0,1,.22.027,7.362,7.362,0,0,0,4.241,1.337,7.38,7.38,0,0,0,2-.275.238.238,0,0,1,.219.048.233.233,0,0,1,.081.208,3.513,3.513,0,0,1-7-.428A3.213,3.213,0,0,1,8.844,5.748Zm9.1,9.455a.751.751,0,0,1-.689,1.047h-10A.751.751,0,0,1,6.561,15.2,6.305,6.305,0,0,1,12.25,11.25,6.3,6.3,0,0,1,17.939,15.2Z"/></svg>