<svg id="Bold" xmlns="http://www.w3.org/2000/svg" viewBox="0 0 24 24"><title>single-man-circle</title><path d="M12,0A12,12,0,1,0,24,12,12.013,12.013,0,0,0,12,0Zm5.876,17.412a.748.748,0,0,1-.626.338h-10A.751.751,0,0,1,6.561,16.7,6.305,6.305,0,0,1,12.25,12.75,6.3,6.3,0,0,1,17.939,16.7.749.749,0,0,1,17.876,17.412ZM13.452,7.028A6.169,6.169,0,0,1,9.89,5.845a.254.254,0,0,1-.1-.187.25.25,0,0,1,.078-.2,3.5,3.5,0,0,1,5.524.938.25.25,0,0,1-.146.353A5.936,5.936,0,0,1,13.452,7.028Zm1.979,1.149a.249.249,0,0,1,.231.052.253.253,0,0,1,.084.221,3.513,3.513,0,0,1-7-.45,3.21,3.21,0,0,1,.089-.732.25.25,0,0,1,.386-.148,7.367,7.367,0,0,0,4.227,1.327A7.417,7.417,0,0,0,15.431,8.177Z"/></svg>