<svg id="Bold" xmlns="http://www.w3.org/2000/svg" viewBox="0 0 24 24"><title>single-man-shield</title><path d="M23.5,1.957A1.458,1.458,0,0,0,22.043.5H1.957A1.458,1.458,0,0,0,.5,1.957V9.25A14.645,14.645,0,0,0,11.9,23.49a.5.5,0,0,0,.2,0A14.645,14.645,0,0,0,23.5,9.25ZM17.626,16.912A.748.748,0,0,1,17,17.25H7A.751.751,0,0,1,6.311,16.2,6.305,6.305,0,0,1,12,12.25,6.3,6.3,0,0,1,17.689,16.2.749.749,0,0,1,17.626,16.912ZM13.2,7.947a7.38,7.38,0,0,0,2-.275.238.238,0,0,1,.219.048.233.233,0,0,1,.081.208,3.513,3.513,0,0,1-7-.428,3.213,3.213,0,0,1,.094-.752.233.233,0,0,1,.147-.165.236.236,0,0,1,.22.027A7.362,7.362,0,0,0,13.2,7.947ZM9.64,5.345a.254.254,0,0,1-.1-.187.25.25,0,0,1,.078-.2,3.5,3.5,0,0,1,5.524.938.25.25,0,0,1-.146.353,5.936,5.936,0,0,1-1.791.277A6.169,6.169,0,0,1,9.64,5.345Z"/></svg>