<svg xmlns="http://www.w3.org/2000/svg" viewBox="0 0 24 24"><defs><style>.a{fill:none;stroke:currentColor;stroke-linecap:round;stroke-linejoin:round;stroke-width:1.5px;}</style></defs><title>cd-rom</title><path class="a" d="M2.982,17.151A3,3,0,0,1,.75,14.25h0a3,3,0,0,1,3-3h16.5a3,3,0,0,1,3,3h0a3,3,0,0,1-2.227,2.9"/><path class="a" d="M16.19,14.25H7.81A4.932,4.932,0,0,0,6,18c0,2.9,2.686,5.25,6,5.25S18,20.9,18,18A4.932,4.932,0,0,0,16.19,14.25Z"/><line class="a" x1="5.25" y1="14.25" x2="18.75" y2="14.25"/><path class="a" d="M23.175,13.583l-2.394-10.5A3,3,0,0,0,17.856.75H6.144A3,3,0,0,0,3.219,3.083L.825,13.583"/><path class="a" d="M12,17.625a.375.375,0,1,0,.375.375A.375.375,0,0,0,12,17.625h0"/></svg>