<svg xmlns="http://www.w3.org/2000/svg" viewBox="0 0 24 24"><defs><style>.a{fill:none;stroke:currentColor;stroke-linecap:round;stroke-linejoin:round;stroke-width:1.5px;}</style></defs><title>ui-browser-slider-1</title><rect class="a" x="0.75" y="0.75" width="22.5" height="22.5" rx="3" ry="3"/><path class="a" d="M7.5,19.5a.375.375,0,1,1-.375.375A.375.375,0,0,1,7.5,19.5"/><path class="a" d="M12,19.5a.375.375,0,1,1-.375.375A.375.375,0,0,1,12,19.5"/><path class="a" d="M16.5,19.5a.375.375,0,1,1-.375.375A.375.375,0,0,1,16.5,19.5"/><polyline class="a" points="5.707 7.5 3.75 9.75 5.707 12"/><polyline class="a" points="18.293 7.5 20.25 9.75 18.293 12"/></svg>