<svg xmlns="http://www.w3.org/2000/svg" viewBox="0 0 24 24"><defs><style>.a{fill:none;stroke:currentColor;stroke-linecap:round;stroke-linejoin:round;stroke-width:1.5px;}</style></defs><title>ui-page-slider</title><path class="a" d="M17.024,23.25a1.087,1.087,0,0,0,1.063-.724A37.431,37.431,0,0,0,19.5,12,37.431,37.431,0,0,0,18.087,1.474,1.086,1.086,0,0,0,17.024.75H6.976a1.087,1.087,0,0,0-1.063.724A37.431,37.431,0,0,0,4.5,12,37.431,37.431,0,0,0,5.913,22.526a1.086,1.086,0,0,0,1.063.724Z"/><line class="a" x1="5.337" y1="3.75" x2="18.663" y2="3.75"/><line class="a" x1="5.337" y1="20.25" x2="18.663" y2="20.25"/><line class="a" x1="4.742" y1="16.5" x2="19.258" y2="16.5"/><line class="a" x1="4.742" y1="7.5" x2="19.268" y2="7.5"/><path class="a" d="M10.5,9.75h.75a.75.75,0,0,1,.75.75v3.75"/><line class="a" x1="10.5" y1="14.25" x2="13.5" y2="14.25"/></svg>