<svg xmlns="http://www.w3.org/2000/svg" viewBox="0 0 24 24"><defs><style>.a{fill:none;stroke:currentColor;stroke-linecap:round;stroke-linejoin:round;stroke-width:1.5px;}</style></defs><title>ui-webpage-slider</title><path class="a" d="M14.077,18.75H6.75a1.5,1.5,0,0,1-1.5-1.5v-15A1.5,1.5,0,0,1,6.75.75h10.5a1.5,1.5,0,0,1,1.5,1.5V13.456"/><path class="a" d="M5.25,17.25h-3a1.5,1.5,0,0,1-1.5-1.5v-12a1.5,1.5,0,0,1,1.5-1.5h3"/><path class="a" d="M18.75,2.25h3a1.5,1.5,0,0,1,1.5,1.5v12"/><line class="a" x1="8.25" y1="4.5" x2="15.75" y2="4.5"/><line class="a" x1="8.25" y1="8.25" x2="15.75" y2="8.25"/><line class="a" x1="8.25" y1="12" x2="11.25" y2="12"/><polygon class="a" points="16.356 16.356 19.007 23.25 20.598 20.598 23.25 19.007 16.356 16.356"/><line class="a" x1="23.25" y1="23.25" x2="20.598" y2="20.598"/></svg>