<?xml version="1.0" encoding="utf-8"?>
<!-- Generator: Adobe Illustrator 22.1.0, SVG Export Plug-In . SVG Version: 6.00 Build 0)  -->
<svg version="1.1" id="Layer_1" xmlns="http://www.w3.org/2000/svg" xmlns:xlink="http://www.w3.org/1999/xlink" x="0px" y="0px"
	 viewBox="0 0 24 24" style="enable-background:new 0 0 24 24;" xml:space="preserve">
<g>
	<title>light-mode-night-woman</title>
	<path d="M0.502,23.914c-0.135,0-0.267-0.056-0.361-0.154c-0.094-0.099-0.145-0.232-0.139-0.368c0.046-1.074,0.312-2.107,0.791-3.07
		c0.595-1.195,2.576-1.928,5.317-2.942L6.329,17.3c0.102-0.037,0.171-0.131,0.174-0.236l0-0.146
		c-0.053,0.001-0.107,0.002-0.16,0.002c-1.338,0-2.606-0.426-3.669-1.232c-0.115-0.087-0.187-0.22-0.197-0.364
		c-0.01-0.144,0.043-0.286,0.145-0.388l0.032-0.032c0.561-0.562,0.899-0.901,1.05-3.111c0.264-3.969,3.022-5.377,5.303-5.377
		c1.289,0,2.503,0.431,3.42,1.214c1.109,0.947,1.759,2.387,1.879,4.167c0.151,2.213,0.49,2.552,1.052,3.114l0.03,0.03
		c0.102,0.102,0.155,0.243,0.146,0.387c-0.01,0.144-0.082,0.277-0.197,0.365c-1.065,0.809-2.332,1.237-3.664,1.237
		c-0.057,0-0.113-0.001-0.17-0.003v0.15c0.002,0.094,0.072,0.188,0.168,0.222c0.002,0.001,0.223,0.083,0.223,0.083
		c2.741,1.014,4.722,1.747,5.318,2.942c0.479,0.963,0.745,1.995,0.791,3.07c0.006,0.135-0.045,0.269-0.138,0.367
		c-0.094,0.098-0.226,0.154-0.361,0.154H0.502z M16.96,22.914c-0.091-0.746-0.307-1.467-0.645-2.145
		c-0.419-0.841-2.435-1.586-4.769-2.45l-0.217-0.08c-0.482-0.173-0.815-0.636-0.827-1.15l0-1.362
		c0.011-0.36,0.168-0.693,0.429-0.921c0.397-0.336,0.61-0.842,0.573-1.354l-0.001-1.632c-0.948-0.239-1.804-0.72-2.5-1.404
		c-0.696,0.684-1.552,1.165-2.5,1.404v1.595c-0.038,0.542,0.173,1.053,0.566,1.385c0.267,0.234,0.424,0.566,0.434,0.913l0,1.364
		c-0.012,0.525-0.346,0.99-0.831,1.164l-0.213,0.079c-2.334,0.864-4.35,1.61-4.769,2.45c-0.338,0.678-0.554,1.399-0.644,2.145H16.96
		z M11.502,15.922c0.059,0.002,0.117,0.003,0.176,0.003c0.918,0,1.806-0.246,2.587-0.713c-0.461-0.541-0.816-1.283-0.957-3.347
		c-0.146-2.15-1.352-4.448-4.301-4.448c-2.956,0-4.162,2.296-4.305,4.444c-0.14,2.063-0.495,2.805-0.957,3.347
		c0.783,0.468,1.676,0.715,2.599,0.715c0.053,0,0.106-0.001,0.159-0.002v-0.193c-0.002-0.057-0.035-0.125-0.087-0.17
		c-0.63-0.532-0.972-1.348-0.912-2.179l-0.001-1.964c0-0.244,0.175-0.452,0.415-0.493c1.057-0.181,2.016-0.736,2.699-1.563
		C8.71,9.246,8.85,9.181,9.002,9.181s0.292,0.064,0.385,0.177c0.683,0.826,1.642,1.381,2.699,1.563
		c0.241,0.042,0.415,0.249,0.415,0.493v2c0.06,0.8-0.283,1.61-0.919,2.149c-0.047,0.042-0.079,0.11-0.081,0.179V15.922z"/>
	<path d="M17.962,11.896c-0.36,0-0.723-0.033-1.08-0.097c-0.271-0.049-0.452-0.309-0.403-0.581c0.043-0.239,0.25-0.412,0.491-0.412
		c0.03,0,0.061,0.003,0.092,0.009c0.296,0.054,0.599,0.081,0.899,0.081c1.015,0,1.997-0.309,2.839-0.893
		c1.097-0.761,1.833-1.904,2.07-3.219c0.461-2.55-1.072-5.002-3.567-5.703c1.685,2.879,0.712,6.583-2.161,8.261
		c-0.139,0.081-0.285,0.159-0.433,0.23c-0.069,0.033-0.141,0.049-0.216,0.049c-0.191,0-0.368-0.111-0.451-0.284
		c-0.058-0.12-0.065-0.256-0.021-0.382c0.044-0.126,0.135-0.227,0.255-0.285c0.123-0.059,0.245-0.124,0.362-0.192
		c2.397-1.4,3.209-4.488,1.81-6.885c-0.137-0.227-0.177-0.51-0.105-0.773c0.117-0.434,0.514-0.738,0.965-0.738
		c0.088,0,0.176,0.012,0.262,0.035c2.997,0.843,4.838,3.785,4.285,6.845c-0.285,1.577-1.167,2.949-2.484,3.862
		C20.359,11.526,19.181,11.896,17.962,11.896z"/>
</g>
</svg>
