<?xml version="1.0" encoding="utf-8"?>
<!-- Generator: Adobe Illustrator 22.1.0, SVG Export Plug-In . SVG Version: 6.00 Build 0)  -->
<svg version="1.1" id="Layer_1" xmlns="http://www.w3.org/2000/svg" xmlns:xlink="http://www.w3.org/1999/xlink" x="0px" y="0px"
	 viewBox="0 0 24 24" style="enable-background:new 0 0 24 24;" xml:space="preserve">
<g>
	<title>light-mode-cloudy-1</title>
	<path d="M17,17.499c-0.094,0-0.186-0.026-0.265-0.076c-0.113-0.071-0.192-0.181-0.222-0.312c-0.03-0.13-0.008-0.264,0.063-0.377
		l2.5-4c0.092-0.147,0.25-0.235,0.424-0.235c0.094,0,0.186,0.027,0.266,0.077c0.113,0.07,0.191,0.181,0.221,0.311
		c0.03,0.13,0.008,0.264-0.063,0.377l-2.5,4C17.332,17.411,17.174,17.499,17,17.499z"/>
	<path d="M13.5,17.499c-0.094,0-0.186-0.026-0.265-0.076c-0.113-0.071-0.192-0.181-0.222-0.312c-0.03-0.13-0.008-0.264,0.063-0.377
		l2.5-4c0.092-0.147,0.25-0.235,0.424-0.235c0.094,0,0.186,0.027,0.266,0.077c0.113,0.07,0.191,0.181,0.221,0.311
		c0.03,0.13,0.008,0.264-0.063,0.377l-2.5,4C13.832,17.411,13.674,17.499,13.5,17.499z"/>
	<path d="M5,19.499c-0.022,0-0.045-0.001-0.066-0.005C4.886,19.488,0,18.802,0,13.999c0-0.071,0.001-0.141,0.004-0.212
		c0.111-2.923,2.458-5.222,5.368-5.282c1.116-2.125,3.186-3.589,5.569-3.93c0.357-0.051,0.719-0.077,1.076-0.077
		c1.621,0,3.169,0.518,4.477,1.498c1.479,1.108,2.484,2.701,2.848,4.502H19.5c2.481,0,4.5,2.019,4.5,4.5s-2.019,4.5-4.5,4.5H5z
		 M19.5,18.499c1.93,0,3.5-1.57,3.5-3.5s-1.57-3.5-3.5-3.5h-4c-0.276,0-0.5-0.224-0.5-0.5s0.224-0.5,0.5-0.5h2.817
		c-0.347-1.479-1.199-2.785-2.423-3.702c-1.133-0.849-2.474-1.298-3.879-1.298c-0.31,0-0.624,0.022-0.933,0.067
		c-2.166,0.31-4.017,1.677-4.95,3.656C6.049,9.398,5.875,9.508,5.678,9.508C5.602,9.506,5.543,9.504,5.484,9.504
		c-2.421,0-4.389,1.898-4.481,4.321C1.001,13.884,1,13.941,1,13.999c0,3.773,3.547,4.428,4.035,4.5H19.5z"/>
</g>
</svg>
