<?xml version="1.0" encoding="utf-8"?>
<!-- Generator: Adobe Illustrator 22.1.0, SVG Export Plug-In . SVG Version: 6.00 Build 0)  -->
<svg version="1.1" id="Layer_1" xmlns="http://www.w3.org/2000/svg" xmlns:xlink="http://www.w3.org/1999/xlink" x="0px" y="0px"
	 viewBox="0 0 24 24" style="enable-background:new 0 0 24 24;" xml:space="preserve">
<g>
	<title>light-mode-bright-dark-1</title>
	<path d="M12,22.692c-0.401,0-0.778-0.156-1.06-0.439L8.687,20H5.5C4.672,20,4,19.327,4,18.5v-3.185l-2.254-2.253
		c-0.585-0.585-0.585-1.536,0-2.121L4,8.687V5.5C4,4.673,4.672,4,5.5,4h3.185l2.254-2.254c0.283-0.283,0.66-0.439,1.061-0.439l0,0
		c0.401,0,0.777,0.156,1.06,0.438L15.313,4H18.5C19.327,4,20,4.673,20,5.5v3.185l2.253,2.254c0.584,0.585,0.584,1.536,0,2.121
		L20,15.313V18.5c0,0.827-0.673,1.5-1.5,1.5h-3.185l-2.253,2.253C12.778,22.536,12.401,22.692,12,22.692z M5.5,5
		C5.224,5,5,5.224,5,5.5v3.394c0,0.134-0.052,0.259-0.146,0.354l-2.4,2.4c-0.195,0.195-0.195,0.512,0,0.707l2.4,2.4
		C4.948,14.849,5,14.974,5,15.108V18.5C5,18.776,5.224,19,5.5,19h3.394c0.134,0,0.259,0.052,0.354,0.146l2.4,2.4
		c0.094,0.094,0.22,0.146,0.353,0.146c0.134,0,0.259-0.052,0.354-0.146l2.4-2.4C14.848,19.052,14.974,19,15.107,19H18.5
		c0.276,0,0.5-0.224,0.5-0.5v-3.394c0-0.134,0.052-0.259,0.146-0.354l2.4-2.4c0.195-0.195,0.195-0.512,0-0.707l-2.4-2.4
		C19.052,9.151,19,9.026,19,8.892V5.5C19,5.224,18.775,5,18.5,5h-3.394c-0.134,0-0.259-0.052-0.354-0.146l-2.4-2.4
		c-0.094-0.094-0.22-0.146-0.354-0.146c-0.134,0-0.259,0.052-0.353,0.146l-2.4,2.4C9.151,4.948,9.025,5,8.892,5H5.5z"/>
	<path d="M12.023,18.502c-0.745,0-1.482-0.129-2.192-0.383C9.633,18.049,9.5,17.86,9.5,17.649s0.133-0.4,0.332-0.471
		c1.558-0.557,2.771-1.77,3.328-3.328c1.021-2.856-0.472-6.009-3.328-7.03C9.633,6.749,9.5,6.56,9.5,6.349s0.133-0.4,0.332-0.471
		C10.533,5.627,11.269,5.5,12.018,5.5s1.485,0.127,2.188,0.378c3.375,1.206,5.139,4.934,3.933,8.309
		c-0.584,1.635-1.77,2.944-3.339,3.687C13.919,18.291,12.985,18.502,12.023,18.502z M11.485,17.475
		c0.179,0.018,0.359,0.027,0.538,0.027c0.813,0,1.603-0.179,2.349-0.532c1.328-0.629,2.331-1.737,2.826-3.12
		c1.021-2.856-0.473-6.009-3.328-7.03c-0.594-0.212-1.217-0.32-1.851-0.32c-0.177,0-0.354,0.009-0.53,0.026
		c2.523,1.611,3.642,4.779,2.612,7.661C13.611,15.559,12.694,16.705,11.485,17.475z"/>
</g>
</svg>
