<?xml version="1.0" encoding="utf-8"?>
<!-- Generator: Adobe Illustrator 22.1.0, SVG Export Plug-In . SVG Version: 6.00 Build 0)  -->
<svg version="1.1" id="Layer_1" xmlns="http://www.w3.org/2000/svg" xmlns:xlink="http://www.w3.org/1999/xlink" x="0px" y="0px"
	 viewBox="0 0 24 24" style="enable-background:new 0 0 24 24;" xml:space="preserve">
<title>read-email-circle</title>
<g>
	<path d="M12,24C5.383,24,0,18.617,0,12C0,5.383,5.383,0,12,0c6.617,0,12,5.383,12,12C24,18.617,18.617,24,12,24z M12,1.5
		C6.21,1.5,1.5,6.21,1.5,12c0,5.79,4.71,10.5,10.5,10.5c5.79,0,10.5-4.71,10.5-10.5C22.5,6.21,17.79,1.5,12,1.5z"/>
	<path d="M6.75,18c-1.241,0-2.25-1.009-2.25-2.25v-7.5C4.5,7.009,5.509,6,6.75,6h10.5c1.213,0,2.222,0.988,2.248,2.201
		C19.499,8.218,19.5,8.234,19.5,8.25v7.5c0,1.241-1.009,2.25-2.25,2.25H6.75z M6,15.75c0,0.414,0.336,0.75,0.75,0.75h10.5
		c0.414,0,0.75-0.336,0.75-0.75V9.525l-5.636,3.131C12.253,12.717,12.127,12.75,12,12.75s-0.253-0.033-0.364-0.094L6,9.525V15.75z
		 M12,11.142l5.894-3.274C17.762,7.645,17.52,7.5,17.25,7.5H6.75c-0.27,0-0.512,0.145-0.644,0.368L12,11.142z"/>
</g>
</svg>
