<?xml version="1.0" encoding="utf-8"?>
<!-- Generator: Adobe Illustrator 22.1.0, SVG Export Plug-In . SVG Version: 6.00 Build 0)  -->
<svg version="1.1" id="Layer_1" xmlns="http://www.w3.org/2000/svg" xmlns:xlink="http://www.w3.org/1999/xlink" x="0px" y="0px"
	 viewBox="0 0 24 24" style="enable-background:new 0 0 24 24;" xml:space="preserve">
<title>read-email-at</title>
<g>
	<path d="M12,23.999c-3.205,0-6.218-1.248-8.484-3.514c-2.266-2.266-3.515-5.279-3.515-8.484c0-3.205,1.248-6.218,3.514-8.485
		C5.782,1.25,8.795,0.001,12,0.001s6.218,1.248,8.485,3.514C22.752,5.782,24,8.795,24,12v2.25c0,2.068-1.682,3.75-3.75,3.75
		c-1.551,0-2.922-0.971-3.48-2.365C15.643,17.111,13.883,18,12,18c-3.308,0-6-2.692-6-6c0-3.308,2.692-6,6-6c3.308,0,6,2.692,6,6
		v2.25c0,1.241,1.009,2.25,2.25,2.25s2.25-1.009,2.25-2.25V12c0-2.804-1.092-5.441-3.075-7.424C17.441,2.593,14.805,1.501,12,1.501
		c-2.804,0-5.441,1.092-7.424,3.075c-1.983,1.983-3.075,4.62-3.075,7.424c0,2.805,1.092,5.441,3.075,7.424
		c1.983,1.983,4.619,3.074,7.423,3.074c2.257,0,4.494-0.746,6.299-2.1c0.132-0.098,0.287-0.15,0.45-0.15
		c0.235,0,0.459,0.112,0.6,0.299c0.248,0.331,0.181,0.802-0.15,1.05C17.137,23.147,14.58,23.999,12,23.999L12,23.999z M12,7.5
		c-2.481,0-4.5,2.019-4.5,4.5s2.019,4.5,4.5,4.5c2.481,0,4.5-2.019,4.5-4.5S14.481,7.5,12,7.5z"/>
</g>
</svg>
