<svg xmlns="http://www.w3.org/2000/svg" viewBox="0 0 24 24"><defs><style>.a{fill:none;stroke:currentColor;stroke-linecap:round;stroke-linejoin:round;stroke-width:1.5px;}</style></defs><title>reflect-down</title><path class="a" d="M6.97,17.029,2.03,21.968a.75.75,0,0,0,.531,1.28h9.878a.75.75,0,0,0,.531-1.28L8.03,17.029A.749.749,0,0,0,6.97,17.029Z"/><path class="a" d="M6.97,6.968,2.03,2.029A.751.751,0,0,1,2.561.748h9.878a.751.751,0,0,1,.531,1.281L8.03,6.968A.749.749,0,0,1,6.97,6.968Z"/><line class="a" x1="0.75" y1="11.998" x2="14.25" y2="11.998"/><polyline class="a" points="22.5 20.998 17.243 20.301 17.94 15.044"/><path class="a" d="M17.25,4.65a7.5,7.5,0,0,1,6,7.348,9.032,9.032,0,0,1-6.007,8.3"/></svg>