<svg xmlns="http://www.w3.org/2000/svg" viewBox="0 0 24 24"><defs><style>.a{fill:none;stroke:currentColor;stroke-linecap:round;stroke-linejoin:round;stroke-width:1.5px;}</style></defs><title>reflect-up</title><path class="a" d="M17.03,6.968l4.94-4.939A.751.751,0,0,0,21.439.748H11.561a.751.751,0,0,0-.531,1.281l4.94,4.939A.749.749,0,0,0,17.03,6.968Z"/><path class="a" d="M17.03,17.029l4.94,4.939a.75.75,0,0,1-.531,1.28H11.561a.75.75,0,0,1-.531-1.28l4.94-4.939A.749.749,0,0,1,17.03,17.029Z"/><line class="a" x1="23.25" y1="11.998" x2="9.75" y2="11.998"/><polyline class="a" points="1.5 2.998 6.757 3.696 6.06 8.953"/><path class="a" d="M6.75,19.347A7.5,7.5,0,0,1,.75,12,9.031,9.031,0,0,1,6.757,3.7"/></svg>