<svg xmlns="http://www.w3.org/2000/svg" viewBox="0 0 24 24"><title>wifi-heart</title><path d="M14.782,13.041a2.928,2.928,0,0,0-2.557.825l-.146.146a.25.25,0,0,1-.354,0l-.145-.146A2.949,2.949,0,0,0,7.4,18.03l3.777,3.94a1,1,0,0,0,1.445,0h0l3.77-3.934a2.948,2.948,0,0,0-1.613-5Z"/><path d="M20.128,5.088A11.412,11.412,0,0,0,12,1.72h0A11.419,11.419,0,0,0,3.872,5.088,1,1,0,1,0,5.286,6.5,9.437,9.437,0,0,1,12,3.72h0A9.429,9.429,0,0,1,18.714,6.5a1,1,0,0,0,1.414-1.414Z"/><path d="M8.91,9.5a4.375,4.375,0,0,1,6.179,0A1,1,0,0,0,16.5,8.085a6.378,6.378,0,0,0-9.007,0A1,1,0,1,0,8.91,9.5Z"/></svg>