<svg xmlns="http://www.w3.org/2000/svg" viewBox="0 0 24 24"><title>wifi-search</title><path d="M9.735,6.393a7.686,7.686,0,0,1,5.47,2.267,1,1,0,0,0,1.414-1.414A9.669,9.669,0,0,0,9.735,4.393h0A9.671,9.671,0,0,0,2.85,7.246,1,1,0,0,0,4.264,8.66,7.685,7.685,0,0,1,9.733,6.393Z"/><path d="M17.675,5.535a1,1,0,0,0,1.414-1.414,13.252,13.252,0,0,0-18.712,0A1,1,0,0,0,1.792,5.535,11.248,11.248,0,0,1,17.675,5.535Z"/><path d="M5.32,10.392a1,1,0,1,0,1.414,1.414,4.244,4.244,0,0,1,4.8-.832.963.963,0,0,0,.973-.135l.056-.041a.968.968,0,0,0-.12-1.675A6.467,6.467,0,0,0,5.32,10.392Z"/><path d="M21.164,19.581a.251.251,0,0,1-.035-.311,5.406,5.406,0,1,0-1.69,1.69.25.25,0,0,1,.31.035l2.459,2.458a1,1,0,1,0,1.415-1.414Zm-1.2-3.182a3.394,3.394,0,1,1-3.393-3.393A3.4,3.4,0,0,1,19.962,16.4Z"/></svg>