<svg xmlns="http://www.w3.org/2000/svg" viewBox="0 0 24 24"><title>wifi-add</title><path d="M17.633,11.037a6.236,6.236,0,1,0,6.372,6.235A6.313,6.313,0,0,0,17.633,11.037Zm2.447,6.985H18.633a.25.25,0,0,0-.25.25V19.66a.75.75,0,0,1-1.5,0V18.272a.25.25,0,0,0-.25-.25H15.186a.75.75,0,0,1,0-1.5h1.447a.25.25,0,0,0,.25-.25v-1.39a.75.75,0,0,1,1.5,0v1.39a.25.25,0,0,0,.25.25H20.08a.75.75,0,0,1,0,1.5Z"/><path d="M15.159,8.764a1,1,0,1,0,1.4-1.432,9.924,9.924,0,0,0-13.78,0,1,1,0,1,0,1.4,1.432A7.91,7.91,0,0,1,15.159,8.764Z"/><path d="M17.635,5.706a1,1,0,0,0,1.4-1.431A13.5,13.5,0,0,0,.3,4.275a1,1,0,1,0,1.4,1.431A11.479,11.479,0,0,1,17.635,5.706Z"/><path d="M13.433,11.048a1.015,1.015,0,0,0-.286-1.386,6.367,6.367,0,0,0-7.9.751,1,1,0,0,0,1.4,1.432,4.347,4.347,0,0,1,5.4-.511,1.006,1.006,0,0,0,.383.149A1,1,0,0,0,13.433,11.048Z"/></svg>