<svg xmlns="http://www.w3.org/2000/svg" viewBox="0 0 24 24"><title>wifi-star</title><path d="M20.786,23.416a1.257,1.257,0,0,0,1.483-.164,1.236,1.236,0,0,0,.311-1.428l-1.2-2.77a.249.249,0,0,1,.063-.286l2.177-1.94a1.245,1.245,0,0,0,.3-1.357,1.215,1.215,0,0,0-1.151-.75H20.3a.25.25,0,0,1-.23-.151L18.747,11.5l-.012-.026a1.274,1.274,0,0,0-2.282.026L15.129,14.57a.25.25,0,0,1-.23.151H12.438a1.211,1.211,0,0,0-1.148.748,1.252,1.252,0,0,0,.314,1.376l2.159,1.923a.251.251,0,0,1,.063.286l-1.2,2.769a1.235,1.235,0,0,0,.309,1.429,1.269,1.269,0,0,0,1.483.164l3.063-1.725a.249.249,0,0,1,.245,0Z"/><path d="M16.661,8.878a1,1,0,0,0,0-1.414,9.823,9.823,0,0,0-13.875,0A1,1,0,0,0,4.2,8.878a7.821,7.821,0,0,1,11.047,0,.993.993,0,0,0,.707.293,1.055,1.055,0,0,0,.183-.035.972.972,0,0,0,.378-.161A.861.861,0,0,0,16.661,8.878Z"/><path d="M17.738,5.728a1,1,0,0,0,1.414-1.414,13.349,13.349,0,0,0-18.859,0A1,1,0,0,0,1.707,5.728,11.35,11.35,0,0,1,17.738,5.728Z"/><path d="M12.115,11.526a1,1,0,1,0,1.117-1.658,6.3,6.3,0,0,0-7.955.771,1,1,0,1,0,1.414,1.414A4.3,4.3,0,0,1,12.115,11.526Z"/></svg>