<svg xmlns="http://www.w3.org/2000/svg" viewBox="0 0 24 24"><title>wifi-delete</title><path d="M15.212,8.663a1,1,0,0,0,1.414-1.414,9.75,9.75,0,0,0-13.775,0A1,1,0,0,0,4.265,8.663,7.751,7.751,0,0,1,15.212,8.663Z"/><path d="M17.684,5.537A1,1,0,0,0,19.1,4.123a13.255,13.255,0,0,0-18.721,0A1,1,0,0,0,1.792,5.537,11.253,11.253,0,0,1,17.684,5.537Z"/><path d="M5.322,10.4a1,1,0,1,0,1.414,1.414,4.232,4.232,0,0,1,5.14-.668,1.034,1.034,0,0,0,1.067-.115l.012-.009a1,1,0,0,0-.012-1.615A6.407,6.407,0,0,0,5.322,10.4Z"/><path d="M17.554,11.024a6.361,6.361,0,1,0,6.362,6.361A6.368,6.368,0,0,0,17.554,11.024Zm-2.6,4.819a.75.75,0,1,1,1.06-1.061l1.365,1.366a.252.252,0,0,0,.354,0L19.1,14.782a.75.75,0,0,1,1.061,1.061l-1.365,1.365a.25.25,0,0,0,0,.354l1.365,1.365A.75.75,0,0,1,19.1,19.988l-1.365-1.366a.252.252,0,0,0-.354,0l-1.365,1.366a.75.75,0,1,1-1.06-1.061l1.365-1.365a.25.25,0,0,0,0-.354Z"/></svg>