<svg xmlns="http://www.w3.org/2000/svg" viewBox="0 0 24 24"><title>wifi-heart_1</title><path d="M21.039,12.552a3.5,3.5,0,0,0-3.058.987l-.305.3a.25.25,0,0,1-.353,0l-.3-.3a3.525,3.525,0,0,0-4.993,4.977l5.113,5.335a.5.5,0,0,0,.723,0l5.106-5.327a3.524,3.524,0,0,0-1.928-5.972Z"/><path d="M15.478,8.562a1,1,0,0,0,1.414-1.414A9.878,9.878,0,0,0,9.859,4.234h0A9.88,9.88,0,0,0,2.825,7.148,1,1,0,0,0,4.239,8.562,7.96,7.96,0,0,1,15.478,8.562Z"/><path d="M18.008,5.362a1,1,0,0,0,1.415-1.414,13.546,13.546,0,0,0-19.13,0A1,1,0,1,0,1.707,5.362,11.542,11.542,0,0,1,18.008,5.362Z"/><path d="M13.549,11.11a.887.887,0,0,0,.134-.133,1,1,0,0,0-.27-1.387,6.377,6.377,0,0,0-8.059.781,1,1,0,1,0,1.414,1.414,4.376,4.376,0,0,1,5.528-.537,1,1,0,0,0,1.253-.138Z"/></svg>