<?xml version="1.0" encoding="utf-8"?>
<!-- Generator: Adobe Illustrator 22.1.0, SVG Export Plug-In . SVG Version: 6.00 Build 0)  -->
<svg version="1.1" id="Layer_1" xmlns="http://www.w3.org/2000/svg" xmlns:xlink="http://www.w3.org/1999/xlink" x="0px" y="0px"
	 viewBox="0 0 24 24" style="enable-background:new 0 0 24 24;" xml:space="preserve">
<title>retouch-landscape</title>
<g>
	<path d="M23.25,13.875c-0.201,0-0.39-0.079-0.532-0.221l-7.463-7.505c-0.141-0.142-0.219-0.331-0.218-0.531
		c0-0.201,0.079-0.389,0.221-0.53C15.4,4.948,15.588,4.87,15.787,4.87c0.201,0,0.39,0.079,0.532,0.221l7.463,7.505
		C23.923,12.738,24,12.927,24,13.127s-0.079,0.389-0.221,0.53C23.637,13.798,23.449,13.875,23.25,13.875z"/>
	<path d="M13.88,4.463c-0.2,0-0.389-0.078-0.53-0.22L11.967,2.86c-0.142-0.142-0.22-0.33-0.22-0.53c0-0.2,0.078-0.389,0.22-0.53
		c0.141-0.142,0.33-0.22,0.53-0.22s0.389,0.078,0.53,0.22l1.383,1.383c0.142,0.142,0.22,0.33,0.22,0.53c0,0.2-0.078,0.389-0.22,0.53
		S14.08,4.463,13.88,4.463z"/>
	<path d="M16.086,3.794c-0.049,0-0.098-0.005-0.146-0.015c-0.197-0.039-0.366-0.152-0.478-0.319
		c-0.111-0.167-0.151-0.367-0.112-0.563l0.382-1.919c0.07-0.35,0.379-0.603,0.736-0.603c0.048,0,0.096,0.005,0.145,0.014
		c0.197,0.039,0.366,0.152,0.478,0.319c0.111,0.167,0.151,0.367,0.112,0.563l-0.382,1.919C16.752,3.54,16.443,3.794,16.086,3.794z"
		/>
	<path d="M17.868,5.256c-0.305,0-0.577-0.182-0.693-0.464c-0.076-0.185-0.076-0.389,0-0.574c0.077-0.185,0.221-0.329,0.406-0.406
		l1.808-0.748c0.092-0.038,0.188-0.057,0.287-0.057c0.305,0,0.577,0.182,0.693,0.464c0.076,0.184,0.076,0.388,0,0.573
		c-0.077,0.185-0.221,0.329-0.406,0.406l-1.808,0.748C18.063,5.237,17.967,5.256,17.868,5.256z"/>
	<path d="M11.292,7.051c-0.356,0-0.666-0.254-0.735-0.604c-0.039-0.197,0.001-0.396,0.112-0.563c0.111-0.167,0.281-0.28,0.477-0.319
		l1.919-0.382c0.049-0.01,0.098-0.014,0.146-0.014c0.357,0,0.667,0.254,0.736,0.604c0.039,0.196-0.001,0.396-0.112,0.563
		c-0.111,0.167-0.281,0.28-0.477,0.319l-1.919,0.382C11.389,7.047,11.34,7.051,11.292,7.051z"/>
	<path d="M13.925,10.258c-0.099,0-0.195-0.019-0.287-0.057c-0.185-0.077-0.329-0.221-0.406-0.406c-0.077-0.185-0.076-0.389,0-0.574
		l0.749-1.807c0.116-0.281,0.388-0.463,0.693-0.463c0.099,0,0.196,0.019,0.288,0.058c0.185,0.077,0.329,0.221,0.406,0.406
		c0.077,0.185,0.076,0.389,0,0.574l-0.749,1.807C14.501,10.077,14.229,10.258,13.925,10.258z"/>
	<path d="M2.135,23.625c-1.176,0-2.131-0.952-2.135-2.122V7.75c0.002-0.571,0.226-1.106,0.629-1.507
		c0.404-0.401,0.924-0.615,1.505-0.618H8.25C8.664,5.625,9,5.962,9,6.375s-0.336,0.75-0.75,0.75L2.099,7.124
		c-0.188,0-0.328,0.1-0.412,0.184C1.567,7.427,1.501,7.585,1.5,7.753V21.5c0.001,0.344,0.28,0.625,0.622,0.625h15.243
		c0.172,0,0.33-0.065,0.449-0.183C17.933,21.824,18,21.666,18,21.497v-8.372c0-0.414,0.336-0.75,0.75-0.75s0.75,0.336,0.75,0.75
		V21.5c-0.002,0.571-0.226,1.106-0.629,1.507c-0.402,0.399-0.935,0.618-1.5,0.618H2.135z"/>
	<circle cx="4.875" cy="10.5" r="1.125"/>
	<path d="M15.75,20.625c-0.217,0-0.423-0.094-0.565-0.256l-4.871-5.567c-0.021-0.024-0.045-0.048-0.07-0.07
		c-0.14-0.122-0.31-0.186-0.493-0.186c-0.017,0-0.034,0-0.052,0.002c-0.2,0.013-0.383,0.104-0.515,0.255l-4.871,5.567
		c-0.143,0.163-0.349,0.256-0.565,0.256l0,0c-0.182,0-0.357-0.066-0.493-0.185c-0.311-0.272-0.343-0.747-0.071-1.058l4.871-5.567
		C8.452,13.362,9,13.091,9.6,13.051c0.052-0.003,0.104-0.005,0.156-0.005c0.541,0,1.065,0.198,1.476,0.557
		c0.075,0.065,0.146,0.137,0.212,0.212l4.871,5.567c0.132,0.15,0.197,0.344,0.184,0.544c-0.013,0.2-0.104,0.383-0.255,0.514
		C16.107,20.559,15.932,20.625,15.75,20.625z"/>
</g>
</svg>
