<svg xmlns="http://www.w3.org/2000/svg" viewBox="0 0 24 24"><defs><style>.a{fill:none;stroke:currentColor;stroke-linecap:round;stroke-linejoin:round;}</style></defs><title>calendar-2</title><line class="a" x1="7.545" y1="7.501" x2="4.545" y2="23.501"/><line class="a" x1="11.795" y1="7.501" x2="8.795" y2="23.501"/><line class="a" x1="16.045" y1="7.501" x2="13.045" y2="23.501"/><path class="a" d="M16.465,23.5a1,1,0,0,0,.983-.816l2.625-14A1,1,0,0,0,19.09,7.5H4.125a1,1,0,0,0-.983.815l-2.625,14A1,1,0,0,0,1.5,23.5Z"/><path class="a" d="M20.065,8.277l3.407,13.989A1,1,0,0,1,22.5,23.5H16.465"/><line class="a" x1="2.545" y1="11.501" x2="19.545" y2="11.501"/><line class="a" x1="1.795" y1="15.501" x2="18.795" y2="15.501"/><line class="a" x1="1.047" y1="19.501" x2="18.046" y2="19.501"/></svg>