<svg xmlns="http://www.w3.org/2000/svg" viewBox="0 0 24 24"><defs><style>.a{fill:none;stroke:currentColor;stroke-linecap:round;stroke-linejoin:round;}</style></defs><title>calendar-warning</title><path class="a" d="M17.5,20.5a.25.25,0,1,1-.25.25.25.25,0,0,1,.25-.25"/><line class="a" x1="17.5" y1="18.501" x2="17.5" y2="15.501"/><path class="a" d="M18.338,12.5a.95.95,0,0,0-1.676,0l-5.056,9.634a.925.925,0,0,0,.031.915.948.948,0,0,0,.807.448H22.556a.948.948,0,0,0,.807-.448.925.925,0,0,0,.031-.915Z"/><path class="a" d="M9.5,18.5h-8a1,1,0,0,1-1-1V3.5a1,1,0,0,1,1-1h18a1,1,0,0,1,1,1V10"/><line class="a" x1="5.5" y1="0.501" x2="5.5" y2="5.501"/><line class="a" x1="15.5" y1="0.501" x2="15.5" y2="5.501"/><line class="a" x1="0.5" y1="7.501" x2="20.5" y2="7.501"/></svg>