<svg xmlns="http://www.w3.org/2000/svg" viewBox="0 0 24 24"><title>movies-sit-drink</title><path d="M4.078,12.219A.25.25,0,0,0,3.83,12H2.5a.5.5,0,0,1-.5-.5v-9A.5.5,0,0,1,2.5,2h17a.5.5,0,0,1,.5.5V8.524a.251.251,0,0,0,.338.234A4.07,4.07,0,0,1,21.769,8.5.232.232,0,0,0,22,8.269V2a2,2,0,0,0-2-2H2A2,2,0,0,0,0,2V12a2,2,0,0,0,2,2H4.018a.251.251,0,0,0,.248-.281Z"/><circle cx="15.5" cy="7.25" r="2.5"/><path d="M5.594,21.8A1.18,1.18,0,0,0,6.652,23.9l2.623-1.647a.249.249,0,0,0,.1-.291l-.724-2.172a.25.25,0,0,0-.166-.16.248.248,0,0,0-.227.044Z"/><path d="M17.457,12.112a.247.247,0,0,0-.09-.322A3.5,3.5,0,0,0,12.4,13.134a.246.246,0,0,0,.008.245.249.249,0,0,0,.213.121h3.993a.252.252,0,0,0,.224-.138Z"/><path d="M9.279,17a.221.221,0,0,1,.221.221,2.266,2.266,0,0,0,.113.7l1.912,5.735A.5.5,0,0,0,12,24h8a.5.5,0,0,0,.477-.349L23.9,12.907A2.233,2.233,0,0,0,21.769,10a2.542,2.542,0,0,0-2.284,1.411L17.76,14.862a.249.249,0,0,1-.223.138H8.566L9,11.562A.5.5,0,0,0,8.5,11H8.219a.251.251,0,0,1-.243-.311l.009-.037a.53.53,0,0,1,.515-.4h1a.75.75,0,0,0,0-1.5h-1a2.028,2.028,0,0,0-1.97,1.538l-.131.523A.248.248,0,0,1,6.157,11H5.5a.5.5,0,0,0-.5.562L5.434,15H5a1,1,0,0,0,0,2Z"/></svg>