<svg xmlns="http://www.w3.org/2000/svg" viewBox="0 0 24 24"><title>movies-set-equipment</title><path d="M17.737,6.323a.25.25,0,0,0,.177.427H23.75A.25.25,0,0,0,24,6.5v-3A1.5,1.5,0,0,0,22.5,2h-.336a.251.251,0,0,0-.177.073Z"/><path d="M.25,8.25A.25.25,0,0,0,0,8.5v12A1.5,1.5,0,0,0,1.5,22h21A1.5,1.5,0,0,0,24,20.5V8.5a.25.25,0,0,0-.25-.25Zm11,3.25a.75.75,0,0,1,1.5,0v3.25a.75.75,0,0,1-1.5,0ZM3.5,17.25h17a.75.75,0,0,1,0,1.5H3.5a.75.75,0,0,1,0-1.5Z"/><path d="M2.586,6.75a.251.251,0,0,0,.177-.073l4.25-4.25A.25.25,0,0,0,6.836,2H1.5A1.5,1.5,0,0,0,0,3.5v3a.25.25,0,0,0,.25.25Z"/><path d="M5.237,6.323a.25.25,0,0,0,.177.427H8.836a.251.251,0,0,0,.177-.073l4.25-4.25A.25.25,0,0,0,13.086,2H9.664a.251.251,0,0,0-.177.073Z"/><path d="M11.487,6.323a.25.25,0,0,0,.177.427h3.422a.251.251,0,0,0,.177-.073l4.25-4.25A.25.25,0,0,0,19.336,2H15.914a.251.251,0,0,0-.177.073Z"/></svg>