<svg xmlns="http://www.w3.org/2000/svg" viewBox="0 0 24 24"><title>phone-actions-wait-1</title><circle cx="13.75" cy="5.525" r="1.5"/><circle cx="17.75" cy="5.525" r="1.5"/><circle cx="21.75" cy="5.525" r="1.5"/><path d="M16.245,13.649a3.116,3.116,0,0,0-4.4,0l-.827.828a4.249,4.249,0,0,0-1.346,4.5,11.355,11.355,0,0,1-6.032-6.032A4.248,4.248,0,0,0,8.14,11.6l.83-.829a3.117,3.117,0,0,0,0-4.4L5.385,2.788a2.234,2.234,0,0,0-3.649.739A13.322,13.322,0,0,0,11.389,21.6a13.408,13.408,0,0,0,7.7-.716,2.233,2.233,0,0,0,.737-3.648Z"/></svg>