<svg xmlns="http://www.w3.org/2000/svg" viewBox="0 0 24 24"><title>phone-actions-add</title><path d="M17.168,16.163a2.559,2.559,0,0,0-3.537,0l-.384.384a46.7,46.7,0,0,1-5.789-5.79l.385-.384a2.507,2.507,0,0,0,0-3.536L5.721,4.716a2.5,2.5,0,0,0-3.536,0L1.022,5.879A3.514,3.514,0,0,0,.58,10.284,46.942,46.942,0,0,0,13.721,23.425a3.542,3.542,0,0,0,4.4-.442l1.164-1.165a2.5,2.5,0,0,0,0-3.534Z"/><path d="M17.5.005a6.5,6.5,0,1,0,6.5,6.5A6.508,6.508,0,0,0,17.5.005ZM20,7.255H18.5a.25.25,0,0,0-.25.25v1.5a.75.75,0,0,1-1.5,0v-1.5a.25.25,0,0,0-.25-.25H15a.75.75,0,0,1,0-1.5h1.5a.25.25,0,0,0,.25-.25v-1.5a.75.75,0,1,1,1.5,0v1.5a.25.25,0,0,0,.25.25H20a.75.75,0,0,1,0,1.5Z"/></svg>