<svg xmlns="http://www.w3.org/2000/svg" viewBox="0 0 24 24"><title>phone-actions-refresh-1</title><path d="M15.5,15.669a3.116,3.116,0,0,0-4.4,0l-.827.828A4.249,4.249,0,0,0,8.92,21,11.357,11.357,0,0,1,2.888,14.97a4.25,4.25,0,0,0,4.5-1.346l.83-.829a3.117,3.117,0,0,0,0-4.4L4.635,4.808a2.233,2.233,0,0,0-3.649.74A13.313,13.313,0,0,0,18.343,22.9a2.233,2.233,0,0,0,.737-3.648Z"/><path d="M23.691.424a.5.5,0,0,0-.545.108L21.674,2a6.374,6.374,0,1,0-4.528,10.86,6.346,6.346,0,0,0,4.983-2.4,1,1,0,0,0-1.563-1.248,4.376,4.376,0,1,1-.3-5.8L18.689,4.989a.5.5,0,0,0,.354.854H23.5a.5.5,0,0,0,.5-.5V.886A.5.5,0,0,0,23.691.424Z"/></svg>