<svg xmlns="http://www.w3.org/2000/svg" viewBox="0 0 24 24"><title>phone-actions-24-support-1</title><path d="M23,0a5.7,5.7,0,0,0-5.688,5.688v.937a1,1,0,0,0,1,1H22V8.5a1,1,0,0,0,2,0V1A1,1,0,0,0,23,0ZM22,5.629H19.313A3.7,3.7,0,0,1,22,2.142Z"/><path d="M11.344,4.348a1,1,0,0,0,1-1A1.344,1.344,0,0,1,15,3.078c.138.675-.031.893-.953,1.7L10.682,7.754a1,1,0,0,0,.662,1.75H16.5a1,1,0,0,0,0-2H13.988l1.384-1.221c.924-.813,1.972-1.735,1.593-3.6a3.344,3.344,0,0,0-6.621.667A1,1,0,0,0,11.344,4.348Z"/><path d="M15.5,15.788a3.119,3.119,0,0,0-4.4,0l-.826.827a4.252,4.252,0,0,0-1.347,4.5,11.354,11.354,0,0,1-6.03-6.031,4.242,4.242,0,0,0,4.5-1.345l.832-.83a3.119,3.119,0,0,0,0-4.4L4.634,4.928a2.232,2.232,0,0,0-3.648.74A13.322,13.322,0,0,0,9.964,23.582a13.6,13.6,0,0,0,8.378-.559,2.233,2.233,0,0,0,.738-3.649Z"/></svg>