<svg xmlns="http://www.w3.org/2000/svg" viewBox="0 0 24 24"><title>phone-actions-question-1</title><path d="M17.4.01a6.57,6.57,0,0,0-5.863,9.551l-1.415,2.973a1,1,0,0,0,.2,1.137,1.015,1.015,0,0,0,1.137.2l2.972-1.415A6.576,6.576,0,1,0,17.4.01Zm0,11.157a4.558,4.558,0,0,1-2.407-.691,1,1,0,0,0-.528-.151.983.983,0,0,0-.43.1l-.895.426.426-.9A1,1,0,0,0,13.513,9,4.574,4.574,0,1,1,17.4,11.167Z"/><path d="M17.5,3.177a2.252,2.252,0,0,0-2.25,2.25.75.75,0,0,0,1.5,0,.75.75,0,1,1,.75.75.75.75,0,0,0,0,1.5,2.25,2.25,0,0,0,0-4.5Z"/><circle cx="17.503" cy="9.177" r="1"/><path d="M15.515,15.773a3.114,3.114,0,0,0-4.4,0l-.828.828a4.252,4.252,0,0,0-1.346,4.5,11.342,11.342,0,0,1-6.031-6.031,4.247,4.247,0,0,0,4.5-1.346l.83-.829a3.117,3.117,0,0,0,0-4.4L4.655,4.913a2.234,2.234,0,0,0-3.649.739A13.314,13.314,0,0,0,18.364,23.007a2.233,2.233,0,0,0,.736-3.649Z"/></svg>