<svg xmlns="http://www.w3.org/2000/svg" viewBox="0 0 24 24"><defs><style>.a,.b{fill:none;stroke:currentColor;stroke-linecap:round;stroke-linejoin:round;stroke-width:1.5px;}.a{fill-rule:evenodd;}</style></defs><title>time-clock-six</title><path class="a" d="M7,.75v22.5A11.25,11.25,0,0,0,7,.75Z"/><path class="b" d="M14.875,11.625A.375.375,0,1,0,15.25,12a.375.375,0,0,0-.375-.375h0"/><path class="b" d="M12.568,6.057a.37.37,0,0,0-.265.11.375.375,0,1,0,.265-.11h0"/><path class="b" d="M12.568,17.194a.37.37,0,0,0-.265.11.375.375,0,1,0,.265-.11h0"/></svg>