<svg xmlns="http://www.w3.org/2000/svg" viewBox="0 0 24 24"><defs><style>.a{fill:none;stroke:currentColor;stroke-linecap:round;stroke-linejoin:round;stroke-width:1.5px;}</style></defs><title>time-clock-nine</title><path class="a" d="M12,.75c-.253,0-.5.022-.75.038V11.25H.788c-.017.249-.038.5-.038.75A11.25,11.25,0,1,0,12,.75Z"/><path class="a" d="M19.875,11.625A.375.375,0,1,0,20.25,12a.375.375,0,0,0-.375-.375h0"/><path class="a" d="M17.568,6.057a.37.37,0,0,0-.265.11.375.375,0,1,0,.265-.11h0"/><path class="a" d="M17.568,17.194a.37.37,0,0,0-.265.11.375.375,0,1,0,.265-.11h0"/><path class="a" d="M12,19.5a.375.375,0,1,0,.375.375A.375.375,0,0,0,12,19.5h0"/><path class="a" d="M6.7,17.3a.372.372,0,0,0-.265-.11h0a.375.375,0,0,0-.266.64A.375.375,0,0,0,6.7,17.3"/></svg>