<svg xmlns="http://www.w3.org/2000/svg" viewBox="0 0 24 24"><defs><style>.a{fill:none;stroke:currentColor;stroke-linecap:round;stroke-linejoin:round;stroke-width:1.5px;}</style></defs><title>time-stopwatch</title><line class="a" x1="17.978" y1="7.522" x2="19.875" y2="5.625"/><line class="a" x1="19.5" y1="5.25" x2="20.25" y2="6"/><line class="a" x1="12" y1="5.25" x2="12" y2="0.75"/><line class="a" x1="14.25" y1="0.75" x2="9.75" y2="0.75"/><circle class="a" cx="12" cy="14.25" r="9"/><line class="a" x1="12" y1="8.25" x2="12" y2="8.25"/><path class="a" d="M12,8.25a.375.375,0,1,0,.375.375A.375.375,0,0,0,12,8.25"/><path class="a" d="M12,19.5a.375.375,0,1,0,.375.375A.375.375,0,0,0,12,19.5h0"/><path class="a" d="M6.375,13.875a.375.375,0,1,0,.375.375.375.375,0,0,0-.375-.375h0"/><path class="a" d="M17.625,13.875A.375.375,0,1,0,18,14.25a.375.375,0,0,0-.375-.375h0"/><path class="a" d="M8.023,9.9a.375.375,0,0,0-.266.64.375.375,0,1,0,.531-.53.373.373,0,0,0-.265-.11h0"/><path class="a" d="M15.977,17.853a.372.372,0,0,0-.265.11.375.375,0,1,0,.265-.11h0"/><path class="a" d="M8.023,17.853a.375.375,0,0,0-.266.64.375.375,0,1,0,.531-.53.373.373,0,0,0-.265-.11h0"/><path class="a" d="M16.243,10.008a.374.374,0,0,0-.266-.11h0a.372.372,0,0,0-.265.11.375.375,0,1,0,.531,0"/></svg>