<svg id="Bold" xmlns="http://www.w3.org/2000/svg" viewBox="0 0 24 24"><title>single-neutral-news</title><path d="M24,2.5A1.5,1.5,0,0,0,22.5,1H1.5A1.5,1.5,0,0,0,0,2.5V17a1.5,1.5,0,0,0,1.5,1.5h9a.5.5,0,0,1,.5.5v1.5a.5.5,0,0,1-.5.5H4a1,1,0,0,0,0,2H20a1,1,0,0,0,0-2H13.5a.5.5,0,0,1-.5-.5V19a.5.5,0,0,1,.5-.5h9A1.5,1.5,0,0,0,24,17ZM9,9.5a.5.5,0,0,1-.5.5h-5A.5.5,0,0,1,3,9.5v-5A.5.5,0,0,1,3.5,4h5a.5.5,0,0,1,.5.5Zm12.4,6.088a.5.5,0,0,1-.384.18h-11a.5.5,0,0,1-.492-.591,5.326,5.326,0,0,1,.493-1.477c.453-.876,1.59-1.415,3.667-2.159a1.009,1.009,0,0,0-.007-.71,4.978,4.978,0,0,1-1.13-3.511,2.881,2.881,0,0,1,2.969-3.052A2.88,2.88,0,0,1,18.484,7.32a5,5,0,0,1-1.148,3.534.984.984,0,0,0,.026.7c2.062.735,3.2,1.274,3.653,2.151a5.34,5.34,0,0,1,.492,1.476A.5.5,0,0,1,21.4,15.588Z"/></svg>