<svg id="Bold" xmlns="http://www.w3.org/2000/svg" viewBox="0 0 24 24"><title>single-neutral-vintage-tv</title><path d="M24,3.249a1.5,1.5,0,0,0-1.5-1.5H1.5A1.5,1.5,0,0,0,0,3.249v14.5a1.5,1.5,0,0,0,1.5,1.5h.8a.25.25,0,0,1,.2.406l-.775.969a1,1,0,1,0,1.562,1.25l1.95-2.437a.5.5,0,0,1,.39-.188H18.379a.5.5,0,0,1,.39.188l1.95,2.437a1,1,0,0,0,1.562-1.249l-.775-.97a.25.25,0,0,1,.2-.406h.8a1.5,1.5,0,0,0,1.5-1.5ZM6.677,11.58a4.978,4.978,0,0,1-1.13-3.511A2.881,2.881,0,0,1,8.516,5.017a2.88,2.88,0,0,1,2.968,3.052A4.993,4.993,0,0,1,10.335,11.6a.988.988,0,0,0,.027.7c2.062.735,3.2,1.274,3.653,2.151a5.374,5.374,0,0,1,.492,1.476.5.5,0,0,1-.491.591h-11a.5.5,0,0,1-.493-.59,5.325,5.325,0,0,1,.494-1.478c.453-.876,1.59-1.415,3.667-2.159A1.009,1.009,0,0,0,6.677,11.58ZM17.5,17.249a.5.5,0,0,1-.5-.5V4a.5.5,0,1,1,1,0v12.75A.5.5,0,0,1,17.5,17.249Zm2.25-2.5A.75.75,0,0,1,20.5,14h1a.75.75,0,0,1,0,1.5h-1A.75.75,0,0,1,19.75,14.749ZM21.5,12.5h-1a.75.75,0,0,1,0-1.5h1a.75.75,0,0,1,0,1.5ZM21,8.749a1.5,1.5,0,1,1,1.5-1.5A1.5,1.5,0,0,1,21,8.749Z"/></svg>