<svg xmlns="http://www.w3.org/2000/svg" viewBox="0 0 24 24"><defs><style>.a{fill:none;stroke:currentColor;stroke-linecap:round;stroke-linejoin:round;stroke-width:1.5px;}</style></defs><title>focus-flower</title><line class="a" x1="12" y1="13.494" x2="12" y2="23.244"/><path class="a" d="M4.5,15.744a7.5,7.5,0,0,1,7.5,7.5A7.5,7.5,0,0,1,4.5,15.744Z"/><path class="a" d="M19.5,15.744a7.5,7.5,0,0,0-7.5,7.5A7.5,7.5,0,0,0,19.5,15.744Z"/><path class="a" d="M4.5,5.994V2.335A.75.75,0,0,1,5.86,1.9L9,5.244l2.349-4.11a.75.75,0,0,1,1.3,0L15,5.244,18.14,1.9a.75.75,0,0,1,1.36.436V5.994a7.5,7.5,0,0,1-15,0Z"/></svg>