<svg xmlns="http://www.w3.org/2000/svg" viewBox="0 0 24 24"><title>zoom-in-page</title><path d="M20.242,18.827a6.523,6.523,0,1,0-1.414,1.414l3.465,3.465a1.014,1.014,0,0,0,1.414,0,1,1,0,0,0,0-1.414ZM15,10.5A4.5,4.5,0,1,1,10.5,15,4.505,4.505,0,0,1,15,10.5Z"/><path d="M13,15.749h1.25V17a.75.75,0,0,0,1.5,0v-1.25H17a.75.75,0,0,0,0-1.5H15.75V13a.75.75,0,0,0-1.5,0v1.25H13a.75.75,0,0,0,0,1.5Z"/><path d="M3.933,0H1.957A1.959,1.959,0,0,0,0,1.956V3.933a1,1,0,0,0,2,0L1.957,2H3.933a1,1,0,0,0,0-2Z"/><path d="M3.933,22,2,22.042V20.066a1,1,0,0,0-2,0v1.976A1.959,1.959,0,0,0,1.957,24H3.933a1,1,0,0,0,0-2Z"/><path d="M1,11.533a1,1,0,0,0,1-1V7.6a1,1,0,0,0-2,0v2.934A1,1,0,0,0,1,11.533Z"/><path d="M1,17.4a1,1,0,0,0,1-1V13.466a1,1,0,0,0-2,0V16.4A1,1,0,0,0,1,17.4Z"/><path d="M23,6.6a1,1,0,0,0-1,1v2.934a1,1,0,1,0,2,0V7.6A1,1,0,0,0,23,6.6Z"/><path d="M7.6,2H10a1,1,0,0,0,0-2H7.6a1,1,0,0,0,0,2Z"/><path d="M14,2h2.4a1,1,0,0,0,0-2H14a1,1,0,0,0,0,2Z"/><path d="M20.067,2,22,1.956V3.933a1,1,0,0,0,2,0V1.956A1.959,1.959,0,0,0,22.043,0H20.067a1,1,0,0,0,0,2Z"/><path d="M10.533,22H7.6a1,1,0,1,0,0,2h2.933a1,1,0,0,0,0-2Z"/></svg>