<?xml version="1.0" encoding="utf-8"?>
<!-- Generator: Adobe Illustrator 22.1.0, SVG Export Plug-In . SVG Version: 6.00 Build 0)  -->
<svg version="1.1" id="Layer_1" xmlns="http://www.w3.org/2000/svg" xmlns:xlink="http://www.w3.org/1999/xlink" x="0px" y="0px"
	 viewBox="0 0 24 24" style="enable-background:new 0 0 24 24;" xml:space="preserve">
<g>
	<title>playlist-heart</title>
	<path d="M1.501,19c-0.827,0-1.5-0.673-1.5-1.5v-16c0-0.827,0.673-1.5,1.5-1.5h16c0.827,0,1.5,0.673,1.5,1.5v10
		c0,0.276-0.224,0.5-0.5,0.5s-0.5-0.224-0.5-0.5v-10c0-0.276-0.224-0.5-0.5-0.5h-16c-0.276,0-0.5,0.224-0.5,0.5v16
		c0,0.276,0.224,0.5,0.5,0.5h10c0.276,0,0.5,0.224,0.5,0.5s-0.224,0.5-0.5,0.5H1.501z"/>
	<path d="M5.001,15c-1.103,0-2-0.897-2-2s0.897-2,2-2c0.357,0,0.699,0.093,1,0.268V7.255c0-0.666,0.447-1.26,1.088-1.443l5-1.428
		c0.134-0.038,0.273-0.058,0.411-0.058c0.666,0,1.26,0.447,1.443,1.087c0.039,0.135,0.058,0.273,0.058,0.412V12c0,1.103-0.897,2-2,2
		s-2-0.897-2-2s0.897-2,2-2c0.357,0,0.699,0.093,1,0.268V5.826c0-0.046-0.006-0.092-0.019-0.137
		c-0.061-0.213-0.259-0.363-0.481-0.363c-0.046,0-0.092,0.007-0.137,0.019l-5,1.428C7.15,6.835,7.001,7.033,7.001,7.255V13
		C7.001,14.103,6.104,15,5.001,15z M5.001,12c-0.551,0-1,0.448-1,1s0.449,1,1,1s1-0.448,1-1S5.552,12,5.001,12z M12.001,11
		c-0.551,0-1,0.449-1,1c0,0.552,0.449,1,1,1c0.552,0,1-0.448,1-1C13.001,11.449,12.552,11,12.001,11z"/>
	<path d="M18.644,24c-0.135,0-0.267-0.056-0.361-0.154l-4.143-4.318c-0.894-0.893-1.114-2.26-0.545-3.398
		c0.353-0.705,0.958-1.23,1.705-1.479c0.304-0.101,0.619-0.152,0.935-0.152c0.459,0,0.902,0.105,1.317,0.313
		c0.284,0.142,0.542,0.327,0.766,0.552l0.322,0.323l0.323-0.323c0.556-0.556,1.297-0.863,2.085-0.863s1.529,0.306,2.085,0.862
		c0.225,0.225,0.411,0.482,0.552,0.766c0.569,1.137,0.347,2.506-0.552,3.405l-4.128,4.31C18.911,23.944,18.779,24,18.644,24z
		 M16.234,15.5c-0.208,0-0.417,0.034-0.618,0.101c-0.494,0.165-0.894,0.512-1.127,0.977c-0.376,0.752-0.229,1.656,0.365,2.251
		l3.789,3.949l3.775-3.941c0.6-0.601,0.748-1.507,0.372-2.259c-0.094-0.188-0.217-0.358-0.365-0.506
		c-0.367-0.367-0.857-0.57-1.378-0.57c-0.521,0-1.011,0.202-1.378,0.57l-0.676,0.676c-0.094,0.094-0.22,0.146-0.354,0.146
		s-0.259-0.052-0.354-0.146l-0.676-0.676c-0.148-0.148-0.319-0.271-0.506-0.365C16.829,15.569,16.537,15.5,16.234,15.5z"/>
</g>
</svg>
