<?xml version="1.0" encoding="utf-8"?>
<!-- Generator: Adobe Illustrator 22.1.0, SVG Export Plug-In . SVG Version: 6.00 Build 0)  -->
<svg version="1.1" id="Layer_1" xmlns="http://www.w3.org/2000/svg" xmlns:xlink="http://www.w3.org/1999/xlink" x="0px" y="0px"
	 viewBox="0 0 24 24" style="enable-background:new 0 0 24 24;" xml:space="preserve">
<g>
	<title>playlist-edit</title>
	<path d="M1.505,19c-0.827,0-1.5-0.673-1.5-1.5v-16c0-0.827,0.673-1.5,1.5-1.5h16c0.827,0,1.5,0.673,1.5,1.5v10
		c0,0.276-0.224,0.5-0.5,0.5s-0.5-0.224-0.5-0.5v-10c0-0.276-0.224-0.5-0.5-0.5h-16c-0.276,0-0.5,0.224-0.5,0.5v16
		c0,0.276,0.224,0.5,0.5,0.5h10c0.276,0,0.5,0.224,0.5,0.5s-0.224,0.5-0.5,0.5H1.505z"/>
	<path d="M5.005,15c-1.103,0-2-0.897-2-2s0.897-2,2-2c0.357,0,0.699,0.093,1,0.268V7.254c0-0.666,0.448-1.259,1.088-1.442l5-1.429
		c0.135-0.039,0.275-0.058,0.415-0.058c0.252,0,0.503,0.065,0.726,0.189c0.35,0.194,0.604,0.514,0.714,0.899
		c0.038,0.134,0.058,0.273,0.058,0.413V12c0,1.103-0.897,2-2,2s-2-0.897-2-2s0.897-2,2-2c0.357,0,0.699,0.093,1,0.268V5.826
		c0-0.047-0.007-0.094-0.019-0.139c-0.061-0.213-0.259-0.362-0.481-0.362c-0.046,0-0.092,0.006-0.137,0.019l-5,1.429
		C7.155,6.835,7.006,7.032,7.005,7.254V13C7.005,14.103,6.108,15,5.005,15z M5.005,12c-0.551,0-1,0.448-1,1s0.449,1,1,1s1-0.448,1-1
		S5.557,12,5.005,12z M12.005,11c-0.551,0-1,0.449-1,1c0,0.552,0.449,1,1,1c0.552,0,1-0.448,1-1C13.005,11.449,12.557,11,12.005,11z
		"/>
	<path d="M13.505,24c-0.134,0-0.259-0.052-0.354-0.146c-0.128-0.128-0.177-0.316-0.127-0.491l1-3.5
		c0.004-0.014,0.013-0.038,0.02-0.051c-0.001,0.001-0.001,0.002-0.001,0.002s0.004-0.01,0.009-0.021
		c0.028-0.06,0.06-0.108,0.1-0.147l5.982-5.982c0.43-0.417,0.988-0.645,1.573-0.645l0.049,0c0.604,0.01,1.17,0.255,1.591,0.69
		c0.856,0.885,0.856,2.27,0,3.155l-5.988,5.988c-0.04,0.04-0.089,0.073-0.147,0.1c-0.007,0.003-0.033,0.014-0.04,0.017
		c-0.013,0.006-0.014,0.007-0.028,0.011l-3.501,1C13.598,23.994,13.552,24,13.505,24z M14.233,22.772l1.817-0.519l-1.298-1.298
		L14.233,22.772z M17.005,21.793l4.525-4.525l-1.793-1.793L15.212,20L17.005,21.793z M22.237,16.561l0.396-0.396
		c0.475-0.49,0.473-1.264-0.006-1.758c-0.236-0.243-0.552-0.38-0.89-0.386l-0.029,0c-0.326,0-0.636,0.127-0.874,0.357l-0.391,0.391
		L22.237,16.561z"/>
</g>
</svg>
