<?xml version="1.0" encoding="utf-8"?>
<!-- Generator: Adobe Illustrator 22.1.0, SVG Export Plug-In . SVG Version: 6.00 Build 0)  -->
<svg version="1.1" id="Layer_1" xmlns="http://www.w3.org/2000/svg" xmlns:xlink="http://www.w3.org/1999/xlink" x="0px" y="0px"
	 viewBox="0 0 24 24" style="enable-background:new 0 0 24 24;" xml:space="preserve">
<g>
	<title>playlist</title>
	<path d="M3.5,22C2.673,22,2,21.327,2,20.5V20H1.5C0.673,20,0,19.327,0,18.5v-13C0,4.673,0.673,4,1.5,4H2V3.5C2,2.673,2.673,2,3.5,2
		h17C21.327,2,22,2.673,22,3.5V4h0.5C23.327,4,24,4.673,24,5.5v13c0,0.827-0.673,1.5-1.5,1.5H22v0.5c0,0.827-0.673,1.5-1.5,1.5H3.5z
		 M3.5,3C3.224,3,3,3.224,3,3.5v17C3,20.776,3.224,21,3.5,21h17c0.276,0,0.5-0.224,0.5-0.5v-17C21,3.224,20.776,3,20.5,3H3.5z
		 M22.5,19c0.276,0,0.5-0.224,0.5-0.5v-13C23,5.224,22.776,5,22.5,5H22v14H22.5z M1.5,5C1.224,5,1,5.224,1,5.5v13
		C1,18.776,1.224,19,1.5,19H2V5H1.5z"/>
	<path d="M8,17c-1.103,0-2-0.897-2-2s0.897-2,2-2c0.357,0,0.699,0.093,1,0.268V9.254c0-0.666,0.448-1.259,1.088-1.442l5-1.429
		c0.135-0.039,0.275-0.058,0.415-0.058c0.252,0,0.503,0.065,0.726,0.189c0.35,0.194,0.604,0.514,0.714,0.899
		C16.98,7.547,17,7.686,17,7.826V14c0,1.103-0.897,2-2,2s-2-0.897-2-2s0.897-2,2-2c0.357,0,0.699,0.093,1,0.268V7.826
		c0-0.047-0.007-0.094-0.019-0.139C15.92,7.475,15.722,7.325,15.5,7.325c-0.046,0-0.092,0.006-0.137,0.019l-5,1.429
		C10.149,8.835,10,9.032,10,9.254V15C10,16.103,9.103,17,8,17z M8,14c-0.551,0-1,0.448-1,1s0.449,1,1,1s1-0.448,1-1S8.551,14,8,14z
		 M15,13c-0.552,0-1,0.448-1,1s0.448,1,1,1s1-0.448,1-1S15.552,13,15,13z"/>
</g>
</svg>
