<svg xmlns="http://www.w3.org/2000/svg" viewBox="0 0 24 24"><title>network-settings</title><circle cx="17.749" cy="17.03" r="1.5"/><path d="M22.529,17.342a.462.462,0,0,1,0-.625l.987-1.065a1.783,1.783,0,0,0-1.7-2.954l-1.411.328a.456.456,0,0,1-.533-.311l-.424-1.392a1.775,1.775,0,0,0-3.4,0l-.424,1.392a.458.458,0,0,1-.533.311L13.681,12.7a1.784,1.784,0,0,0-1.7,2.954l.989,1.065a.462.462,0,0,1,0,.625l-.987,1.065a1.783,1.783,0,0,0,1.7,2.954l1.411-.328a.451.451,0,0,1,.533.311l.424,1.392a1.775,1.775,0,0,0,3.4,0l.424-1.392a.447.447,0,0,1,.533-.311l1.412.328a1.783,1.783,0,0,0,1.7-2.954Zm-4.78,2.688a3,3,0,1,1,3-3A3,3,0,0,1,17.749,20.03Z"/><path d="M23.171,7.634A11.941,11.941,0,0,0,11.938.028,12.253,12.253,0,0,0,.034,11.106,12.011,12.011,0,0,0,11.248,24a.91.91,0,0,0,.908-.632h0a.925.925,0,0,0-.272-.982,18.993,18.993,0,0,1-3.2-4.576.251.251,0,0,1,.144-.347.988.988,0,0,0,.672-.936,1,1,0,0,0-1-1H8.1a.25.25,0,0,1-.244-.2,15.606,15.606,0,0,1-.1-6.1A.248.248,0,0,1,8,9.025c10.543,0,13.454,0,14.268-.016A.939.939,0,0,0,23.171,7.634ZM2.819,15.525a.25.25,0,0,1-.235-.166A9.886,9.886,0,0,1,2.407,9.2a.249.249,0,0,1,.239-.179H5.453a.251.251,0,0,1,.247.288,17.872,17.872,0,0,0-.2,2.712,17.27,17.27,0,0,0,.295,3.2.248.248,0,0,1-.053.206.25.25,0,0,1-.192.091Zm5.222,5.157a.251.251,0,0,1-.311.372,10.048,10.048,0,0,1-3.8-3.131.25.25,0,0,1,.2-.4H6.224a.25.25,0,0,1,.234.163A12.852,12.852,0,0,0,8.041,20.682ZM6.3,6.853a.249.249,0,0,1-.237.172H3.8a.25.25,0,0,1-.22-.131.247.247,0,0,1,.01-.254A10.035,10.035,0,0,1,7.733,3a.25.25,0,0,1,.311.37A13.15,13.15,0,0,0,6.3,6.853Zm2.425.172a.25.25,0,0,1-.231-.346A10.064,10.064,0,0,1,11.852,2.3a.249.249,0,0,1,.291,0A10.157,10.157,0,0,1,15.5,6.679a.25.25,0,0,1-.231.346Zm9.216,0a.25.25,0,0,1-.237-.171,13.181,13.181,0,0,0-1.776-3.522.249.249,0,0,1,.308-.372,9.892,9.892,0,0,1,4.2,3.681.25.25,0,0,1-.211.384Z"/></svg>