<svg xmlns="http://www.w3.org/2000/svg" viewBox="0 0 24 24"><title>network-clock</title><path d="M10.213,22.677a1,1,0,0,0-.729-1.213,9.848,9.848,0,0,1-5.574-3.74.25.25,0,0,1,.2-.4H6.169a.252.252,0,0,1,.235.164,13.025,13.025,0,0,0,1.151,2.346,1,1,0,1,0,1.7-1.063A10.8,10.8,0,0,1,8.613,17.6a.25.25,0,0,1,.143-.341.987.987,0,0,0,.663-.931,1,1,0,0,0-1-1H8.031a.25.25,0,0,1-.244-.2,15.388,15.388,0,0,1-.1-6.012.252.252,0,0,1,.25-.2c10.8,0,13.4.011,14.115-.02a.939.939,0,0,0,.9-1.341A11.821,11.821,0,0,0,11.822,0C1.755.424,0,9.183,0,11.875a11.86,11.86,0,0,0,9,11.53,1.021,1.021,0,0,0,.243.029A1,1,0,0,0,10.213,22.677ZM5.724,15.03a.252.252,0,0,1-.246.3H2.8a.249.249,0,0,1-.236-.167A9.866,9.866,0,0,1,2.4,9.1a.251.251,0,0,1,.24-.179H5.39a.251.251,0,0,1,.247.288,17.731,17.731,0,0,0-.2,2.669A17.26,17.26,0,0,0,5.724,15.03ZM11.736,2.264a.251.251,0,0,1,.291,0,10,10,0,0,1,3.3,4.308.251.251,0,0,1-.231.346H8.66a.25.25,0,0,1-.231-.346A9.945,9.945,0,0,1,11.736,2.264ZM20.2,6.533a.251.251,0,0,1,.008.255.248.248,0,0,1-.219.13H17.767a.25.25,0,0,1-.237-.171A13.049,13.049,0,0,0,15.8,3.309a.25.25,0,0,1,.31-.371A9.781,9.781,0,0,1,20.2,6.533ZM7.616,2.975a.25.25,0,0,1,.313.369,13.02,13.02,0,0,0-1.7,3.4A.25.25,0,0,1,6,6.918h-2.2a.25.25,0,0,1-.209-.386A9.921,9.921,0,0,1,7.616,2.975Z"/><path d="M17.317,10.628a6.688,6.688,0,1,0,6.688,6.687A6.7,6.7,0,0,0,17.317,10.628Zm-4.688,6.687A4.688,4.688,0,1,1,17.317,22,4.692,4.692,0,0,1,12.629,17.315Z"/><path d="M19.3,16.315h-.728a.25.25,0,0,1-.25-.25V14.843a1,1,0,1,0-2,0v2.472a1,1,0,0,0,1,1H19.3a1,1,0,0,0,0-2Z"/></svg>