<?xml version="1.0" encoding="utf-8"?>
<!-- Generator: Adobe Illustrator 22.1.0, SVG Export Plug-In . SVG Version: 6.00 Build 0)  -->
<svg version="1.1" id="Layer_1" xmlns="http://www.w3.org/2000/svg" xmlns:xlink="http://www.w3.org/1999/xlink" x="0px" y="0px"
	 viewBox="0 0 24 24" style="enable-background:new 0 0 24 24;" xml:space="preserve">
<g>
	<title>server-warning-500</title>
	<circle cx="11.5" cy="9.749" r="0.75"/>
	<path d="M11.5,7.999c-0.276,0-0.5-0.224-0.5-0.5v-3c0-0.276,0.224-0.5,0.5-0.5s0.5,0.224,0.5,0.5v3
		C12,7.775,11.776,7.999,11.5,7.999z"/>
	<path d="M6.444,12.999c-0.499,0-0.971-0.263-1.232-0.686c-0.263-0.426-0.281-0.966-0.048-1.41l5.056-9.637
		c0.137-0.257,0.344-0.464,0.598-0.599c0.21-0.112,0.446-0.172,0.682-0.172c0.143,0,0.285,0.021,0.423,0.063
		c0.37,0.112,0.673,0.362,0.856,0.702c0.001,0.002,5.059,9.644,5.059,9.644c0.233,0.443,0.214,0.982-0.048,1.408
		c-0.267,0.43-0.727,0.686-1.231,0.686H6.444z M11.499,1.496c-0.074,0-0.145,0.018-0.211,0.053
		c-0.079,0.042-0.143,0.106-0.185,0.185l-5.054,9.634c-0.07,0.132-0.064,0.293,0.014,0.419c0.081,0.13,0.226,0.211,0.38,0.211
		h10.113c0.157,0,0.3-0.079,0.382-0.212c0.077-0.125,0.083-0.286,0.013-0.417l-5.056-9.638c-0.056-0.104-0.15-0.181-0.265-0.216
		C11.588,1.503,11.543,1.496,11.499,1.496z"/>
	<path d="M2.5,23.999c-0.276,0-0.5-0.224-0.5-0.5s0.224-0.5,0.5-0.5h3c0.827,0,1.5-0.673,1.5-1.5s-0.673-1.5-1.5-1.5h-2
		c-0.827,0-1.5-0.673-1.5-1.5v-3c0-0.276,0.224-0.5,0.5-0.5h5c0.276,0,0.5,0.224,0.5,0.5s-0.224,0.5-0.5,0.5H3v2.5
		c0,0.276,0.224,0.5,0.5,0.5h2c1.379,0,2.5,1.122,2.5,2.5s-1.121,2.5-2.5,2.5H2.5z"/>
	<path d="M12,23.999c-1.654,0-3-1.346-3-3v-3c0-1.654,1.346-3,3-3c1.654,0,3,1.346,3,3v3C15,22.653,13.654,23.999,12,23.999z
		 M12,15.999c-1.103,0-2,0.897-2,2v3c0,1.103,0.897,2,2,2s2-0.897,2-2v-3C14,16.896,13.103,15.999,12,15.999z"/>
	<path d="M19,23.999c-1.654,0-3-1.346-3-3v-3c0-1.654,1.346-3,3-3s3,1.346,3,3v3C22,22.653,20.654,23.999,19,23.999z M19,15.999
		c-1.103,0-2,0.897-2,2v3c0,1.103,0.897,2,2,2s2-0.897,2-2v-3C21,16.896,20.103,15.999,19,15.999z"/>
</g>
</svg>
