<?xml version="1.0" encoding="utf-8"?>
<!-- Generator: Adobe Illustrator 22.1.0, SVG Export Plug-In . SVG Version: 6.00 Build 0)  -->
<svg version="1.1" id="Layer_1" xmlns="http://www.w3.org/2000/svg" xmlns:xlink="http://www.w3.org/1999/xlink" x="0px" y="0px"
	 viewBox="0 0 24 24" style="enable-background:new 0 0 24 24;" xml:space="preserve">
<g>
	<title>server-check-1</title>
	<path d="M17.5,24c-3.584,0-6.5-2.916-6.5-6.5s2.916-6.5,6.5-6.5s6.5,2.916,6.5,6.5S21.084,24,17.5,24z M17.5,12
		c-3.033,0-5.5,2.467-5.5,5.5s2.467,5.5,5.5,5.5s5.5-2.467,5.5-5.5S20.533,12,17.5,12z"/>
	<path d="M16.667,20.43c-0.271,0-0.531-0.087-0.749-0.25c-0.046-0.035-0.09-0.073-0.131-0.114l-1.502-1.502
		c-0.195-0.195-0.195-0.512,0-0.707c0.094-0.094,0.22-0.146,0.354-0.146l0,0c0.134,0,0.259,0.052,0.354,0.146l1.5,1.5
		c0.007,0.007,0.017,0.016,0.027,0.023c0.043,0.032,0.095,0.05,0.149,0.05c0.012,0,0.024-0.001,0.036-0.002
		c0.066-0.009,0.124-0.044,0.164-0.097l2.905-3.874c0.094-0.125,0.243-0.2,0.4-0.2c0.109,0,0.213,0.035,0.3,0.1
		c0.107,0.08,0.176,0.197,0.195,0.329c0.019,0.132-0.015,0.264-0.095,0.371l-2.905,3.873c-0.2,0.267-0.493,0.44-0.824,0.488
		C16.786,20.426,16.726,20.43,16.667,20.43z"/>
	<circle cx="3.25" cy="20.25" r="0.75"/>
	<circle cx="0.75" cy="20.25" r="0.75"/>
	<circle cx="4.25" cy="13" r="0.75"/>
	<circle cx="6.75" cy="13" r="0.75"/>
	<path d="M5.5,21C5.224,21,5,20.776,5,20.5S5.224,20,5.5,20h2.501v-4H3c-1.654,0-3-1.346-3-3c0-1.011,0.517-1.949,1.348-2.5
		C0.517,9.949,0,9.011,0,8s0.517-1.949,1.348-2.5C0.517,4.949,0,4.011,0,3c0-1.654,1.346-3,3-3h12c1.654,0,3,1.346,3,3
		c0,1.011-0.517,1.949-1.348,2.5C17.483,6.051,18,6.989,18,8c0,0.276-0.224,0.5-0.5,0.5S17,8.276,17,8c0-1.103-0.897-2-2-2H3
		C1.897,6,1,6.897,1,8s0.897,2,2,2h9.5c0.276,0,0.5,0.224,0.5,0.5S12.776,11,12.5,11H3c-1.103,0-2,0.897-2,2s0.897,2,2,2h6.5
		c0.276,0,0.5,0.224,0.5,0.5S9.776,16,9.5,16H9.001v4.5c0,0.276-0.224,0.5-0.5,0.5H5.5z M3,1C1.897,1,1,1.897,1,3s0.897,2,2,2h12
		c1.103,0,2-0.897,2-2s-0.897-2-2-2H3z"/>
	<circle cx="4.25" cy="8" r="0.75"/>
	<circle cx="6.75" cy="8" r="0.75"/>
	<circle cx="4.25" cy="3" r="0.75"/>
	<circle cx="6.75" cy="3" r="0.75"/>
</g>
</svg>
