<?xml version="1.0" encoding="utf-8"?>
<!-- Generator: Adobe Illustrator 22.1.0, SVG Export Plug-In . SVG Version: 6.00 Build 0)  -->
<svg version="1.1" id="Layer_1" xmlns="http://www.w3.org/2000/svg" xmlns:xlink="http://www.w3.org/1999/xlink" x="0px" y="0px"
	 viewBox="0 0 24 24" style="enable-background:new 0 0 24 24;" xml:space="preserve">
<g>
	<title>server-lock</title>
	<circle cx="4.75" cy="3.5" r="0.75"/>
	<circle cx="8.25" cy="3.5" r="0.75"/>
	<circle cx="4.75" cy="9.5" r="0.75"/>
	<circle cx="8.25" cy="9.5" r="0.75"/>
	<path d="M2.5,19C1.121,19,0,17.878,0,16.5v-2c0-0.798,0.376-1.532,1.003-2C0.376,12.032,0,11.298,0,10.5v-2
		c0-0.798,0.376-1.532,1.003-2C0.376,6.032,0,5.298,0,4.5v-2C0,1.121,1.121,0,2.5,0h17C20.878,0,22,1.121,22,2.5v2
		c0,0.798-0.376,1.532-1.003,2C21.624,6.968,22,7.702,22,8.5V10c0,0.276-0.224,0.5-0.5,0.5S21,10.276,21,10V8.5
		C21,7.673,20.327,7,19.5,7h-17C1.673,7,1,7.673,1,8.5v2C1,11.327,1.673,12,2.5,12h11c0.276,0,0.5,0.224,0.5,0.5
		c0,0.276-0.224,0.5-0.5,0.5h-11C1.673,13,1,13.673,1,14.5v2C1,17.327,1.673,18,2.5,18H12c0.276,0,0.5,0.224,0.5,0.5
		S12.276,19,12,19H2.5z M2.5,1C1.673,1,1,1.673,1,2.5v2C1,5.327,1.673,6,2.5,6h17C20.327,6,21,5.327,21,4.5v-2
		C21,1.673,20.327,1,19.5,1H2.5z"/>
	<circle cx="4.75" cy="15.5" r="0.75"/>
	<circle cx="8.25" cy="15.5" r="0.75"/>
	<path d="M15.5,24c-0.827,0-1.5-0.673-1.5-1.5v-6c0-0.827,0.673-1.5,1.5-1.5H16v-1c0-1.654,1.346-3,3-3s3,1.346,3,3v1h0.5
		c0.827,0,1.5,0.673,1.5,1.5v6c0,0.827-0.673,1.5-1.5,1.5H15.5z M15.5,16c-0.276,0-0.5,0.224-0.5,0.5v6c0,0.276,0.224,0.5,0.5,0.5h7
		c0.276,0,0.5-0.224,0.5-0.5v-6c0-0.276-0.224-0.5-0.5-0.5H15.5z M21,15v-1c0-1.103-0.897-2-2-2s-2,0.897-2,2L21,15z"/>
	<path d="M19,21.313c-0.965,0-1.75-0.785-1.75-1.75s0.785-1.75,1.75-1.75s1.75,0.785,1.75,1.75S19.965,21.313,19,21.313z M19,18.813
		c-0.414,0-0.75,0.336-0.75,0.75s0.336,0.75,0.75,0.75s0.75-0.336,0.75-0.75S19.414,18.813,19,18.813z"/>
</g>
</svg>
