<?xml version="1.0" encoding="utf-8"?>
<!-- Generator: Adobe Illustrator 22.1.0, SVG Export Plug-In . SVG Version: 6.00 Build 0)  -->
<svg version="1.1" id="Layer_1" xmlns="http://www.w3.org/2000/svg" xmlns:xlink="http://www.w3.org/1999/xlink" x="0px" y="0px"
	 viewBox="0 0 24 24" style="enable-background:new 0 0 24 24;" xml:space="preserve">
<g>
	<title>server-lock-1</title>
	<path d="M15.5,24c-0.827,0-1.5-0.673-1.5-1.5v-6c0-0.827,0.673-1.5,1.5-1.5H16v-1c0-1.654,1.346-3,3-3s3,1.346,3,3v1h0.5
		c0.827,0,1.5,0.673,1.5,1.5v6c0,0.827-0.673,1.5-1.5,1.5H15.5z M15.5,16c-0.276,0-0.5,0.224-0.5,0.5v6c0,0.276,0.224,0.5,0.5,0.5h7
		c0.276,0,0.5-0.224,0.5-0.5v-6c0-0.276-0.224-0.5-0.5-0.5H15.5z M21,15v-1c0-1.103-0.897-2-2-2s-2,0.897-2,2L21,15z"/>
	<path d="M19,21.313c-0.965,0-1.75-0.785-1.75-1.75s0.785-1.75,1.75-1.75s1.75,0.785,1.75,1.75S19.965,21.313,19,21.313z M19,18.813
		c-0.414,0-0.75,0.336-0.75,0.75s0.336,0.75,0.75,0.75s0.75-0.336,0.75-0.75S19.414,18.813,19,18.813z"/>
	<circle cx="3.25" cy="20.25" r="0.75"/>
	<circle cx="0.75" cy="20.25" r="0.75"/>
	<circle cx="4.25" cy="13" r="0.75"/>
	<circle cx="6.75" cy="13" r="0.75"/>
	<path d="M5.5,21C5.224,21,5,20.776,5,20.5S5.224,20,5.5,20h2.501v-4H3c-1.654,0-3-1.346-3-3c0-1.011,0.517-1.949,1.348-2.5
		C0.517,9.949,0,9.011,0,8s0.517-1.949,1.348-2.5C0.517,4.949,0,4.011,0,3c0-1.654,1.346-3,3-3h12c1.654,0,3,1.346,3,3
		c0,1.011-0.517,1.949-1.348,2.5C17.483,6.051,18,6.989,18,8c0,1.654-1.346,3-3,3H3c-1.103,0-2,0.897-2,2s0.897,2,2,2h9.5
		c0.276,0,0.5,0.224,0.5,0.5S12.776,16,12.5,16H9.001v4H11.5c0.276,0,0.5,0.224,0.5,0.5S11.776,21,11.5,21H5.5z M3,6
		C1.897,6,1,6.897,1,8s0.897,2,2,2h12c1.103,0,2-0.897,2-2s-0.897-2-2-2H3z M3,1C1.897,1,1,1.897,1,3s0.897,2,2,2h12
		c1.103,0,2-0.897,2-2s-0.897-2-2-2H3z"/>
	<circle cx="4.25" cy="3" r="0.75"/>
	<circle cx="6.75" cy="3" r="0.75"/>
	<circle cx="4.25" cy="8" r="0.75"/>
	<circle cx="6.75" cy="8" r="0.75"/>
</g>
</svg>
