<?xml version="1.0" encoding="utf-8"?>
<!-- Generator: Adobe Illustrator 22.1.0, SVG Export Plug-In . SVG Version: 6.00 Build 0)  -->
<svg version="1.1" id="Layer_1" xmlns="http://www.w3.org/2000/svg" xmlns:xlink="http://www.w3.org/1999/xlink" x="0px" y="0px"
	 viewBox="0 0 24 24" style="enable-background:new 0 0 24 24;" xml:space="preserve">
<g>
	<title>server-download</title>
	<circle cx="4.75" cy="3.5" r="0.75"/>
	<circle cx="8.25" cy="3.5" r="0.75"/>
	<circle cx="4.75" cy="9.5" r="0.75"/>
	<circle cx="8.25" cy="9.5" r="0.75"/>
	<path d="M2.5,19C1.121,19,0,17.878,0,16.5v-2c0-0.798,0.376-1.532,1.003-2C0.376,12.032,0,11.298,0,10.5v-2
		c0-0.798,0.376-1.532,1.003-2C0.376,6.032,0,5.298,0,4.5v-2C0,1.121,1.121,0,2.5,0h17C20.878,0,22,1.121,22,2.5v2
		c0,0.798-0.376,1.532-1.003,2C21.624,6.968,22,7.702,22,8.5V10c0,0.276-0.224,0.5-0.5,0.5S21,10.276,21,10V8.5
		C21,7.673,20.327,7,19.5,7h-17C1.673,7,1,7.673,1,8.5v2C1,11.327,1.673,12,2.5,12h8c0.276,0,0.5,0.224,0.5,0.5
		c0,0.276-0.224,0.5-0.5,0.5h-8C1.673,13,1,13.673,1,14.5v2C1,17.327,1.673,18,2.5,18H9c0.276,0,0.5,0.224,0.5,0.5S9.276,19,9,19
		H2.5z M2.5,1C1.673,1,1,1.673,1,2.5v2C1,5.327,1.673,6,2.5,6h17C20.327,6,21,5.327,21,4.5v-2C21,1.673,20.327,1,19.5,1H2.5z"/>
	<circle cx="4.75" cy="15.5" r="0.75"/>
	<circle cx="8.25" cy="15.5" r="0.75"/>
	<path d="M17.5,24c-3.584,0-6.5-2.916-6.5-6.5s2.916-6.5,6.5-6.5s6.5,2.916,6.5,6.5S21.084,24,17.5,24z M17.5,12
		c-3.033,0-5.5,2.467-5.5,5.5s2.467,5.5,5.5,5.5s5.5-2.467,5.5-5.5S20.533,12,17.5,12z"/>
	<path d="M17.5,21c-0.066,0-0.13-0.013-0.191-0.039c-0.062-0.025-0.117-0.062-0.163-0.109l-2.249-2.249
		c-0.094-0.094-0.146-0.22-0.146-0.354s0.052-0.259,0.146-0.354s0.22-0.146,0.354-0.146s0.259,0.052,0.354,0.146L17,19.293V14.5
		c0-0.276,0.224-0.5,0.5-0.5s0.5,0.224,0.5,0.5v4.793l1.396-1.396c0.094-0.094,0.22-0.146,0.354-0.146s0.259,0.052,0.354,0.146
		s0.146,0.22,0.146,0.354s-0.052,0.259-0.146,0.354l-2.25,2.25c-0.045,0.046-0.101,0.083-0.163,0.109
		C17.63,20.987,17.566,21,17.5,21z"/>
</g>
</svg>
