<svg xmlns="http://www.w3.org/2000/svg" viewBox="0 0 24 24"><defs><style>.a{fill:none;stroke:currentColor;stroke-linecap:round;stroke-linejoin:round;}</style></defs><title>sd-card-refresh</title><path class="a" d="M17.5,8.917v-3a1,1,0,0,0-.293-.707L12.794.793A1,1,0,0,0,12.087.5H1.5a1,1,0,0,0-1,1v8h1v3H.5v10a1,1,0,0,0,1,1H9.959"/><line class="a" x1="4.502" y1="3.5" x2="4.502" y2="8.5"/><line class="a" x1="7.502" y1="3.5" x2="7.502" y2="8.5"/><line class="a" x1="10.502" y1="3.5" x2="10.502" y2="8.5"/><line class="a" x1="13.502" y1="5.5" x2="13.502" y2="9.5"/><polyline class="a" points="19 15.5 23.5 15.5 23.5 11"/><path class="a" d="M23.158,15.5a6,6,0,1,0-.968,5.742"/></svg>