<svg xmlns="http://www.w3.org/2000/svg" viewBox="0 0 24 24"><defs><style>.a{fill:none;stroke:currentColor;stroke-linecap:round;stroke-linejoin:round;}</style></defs><title>sd-card-sync</title><path class="a" d="M17.531,8.917v-3a1,1,0,0,0-.293-.707L12.824.793A1,1,0,0,0,12.117.5H1.531a1,1,0,0,0-1,1v8h1v3h-1v10a1,1,0,0,0,1,1H9.988"/><line class="a" x1="4.531" y1="3.5" x2="4.531" y2="8.5"/><line class="a" x1="7.531" y1="3.5" x2="7.531" y2="8.5"/><line class="a" x1="10.531" y1="3.5" x2="10.531" y2="8.5"/><line class="a" x1="13.531" y1="5.5" x2="13.531" y2="9.5"/><polyline class="a" points="15.03 18.5 11.53 18.5 11.53 22"/><path class="a" d="M22.947,19.733A5.572,5.572,0,0,1,12.133,18.5"/><polyline class="a" points="20.03 16.5 23.53 16.5 23.53 13"/><path class="a" d="M12.113,15.267A5.572,5.572,0,0,1,22.927,16.5"/></svg>