<svg xmlns="http://www.w3.org/2000/svg" viewBox="0 0 24 24"><defs><style>.a{fill:none;stroke:currentColor;stroke-linecap:round;stroke-linejoin:round;}</style></defs><title>sd-card-subtract</title><path class="a" d="M17.5,8.917v-3a1,1,0,0,0-.293-.707L12.8.793A1,1,0,0,0,12.089.5H1.5a1,1,0,0,0-1,1v8h1v3H.5v10a1,1,0,0,0,1,1H9.961"/><line class="a" x1="4.504" y1="3.5" x2="4.504" y2="8.5"/><line class="a" x1="7.504" y1="3.5" x2="7.504" y2="8.5"/><line class="a" x1="10.504" y1="3.5" x2="10.504" y2="8.5"/><line class="a" x1="13.504" y1="5.5" x2="13.504" y2="9.5"/><circle class="a" cx="17.5" cy="17.5" r="6"/><line class="a" x1="20.5" y1="17.5" x2="14.5" y2="17.5"/></svg>