<svg xmlns="http://www.w3.org/2000/svg" viewBox="0 0 24 24"><title>computer-chip-64</title><path d="M2.435,11H1a1,1,0,0,0,0,2H2.435a1,1,0,1,0,0-2Z"/><path d="M2.435,16H1a1,1,0,0,0,0,2H2.435a1,1,0,0,0,0-2Z"/><path d="M2.435,6.5H1a1,1,0,1,0,0,2H2.435a1,1,0,1,0,0-2Z"/><path d="M24,12a1,1,0,0,0-1-1H21.565a1,1,0,0,0,0,2H23A1,1,0,0,0,24,12Z"/><path d="M20.565,7.5a1,1,0,0,0,1,1H23a1,1,0,0,0,0-2H21.565A1,1,0,0,0,20.565,7.5Z"/><path d="M23,16H21.565a1,1,0,0,0,0,2H23a1,1,0,0,0,0-2Z"/><path d="M12,3.435a1,1,0,0,0,1-1V1a1,1,0,0,0-2,0V2.435A1,1,0,0,0,12,3.435Z"/><path d="M7.5,3.435a1,1,0,0,0,1-1V1a1,1,0,1,0-2,0V2.435A1,1,0,0,0,7.5,3.435Z"/><path d="M16.5,3.435a1,1,0,0,0,1-1V1a1,1,0,0,0-2,0V2.435A1,1,0,0,0,16.5,3.435Z"/><path d="M12,20.566a1,1,0,0,0-1,1V23a1,1,0,1,0,2,0V21.566A1,1,0,0,0,12,20.566Z"/><path d="M16.5,20.566a1,1,0,0,0-1,1V23a1,1,0,1,0,2,0V21.566A1,1,0,0,0,16.5,20.566Z"/><path d="M7.5,20.566a1,1,0,0,0-1,1V23a1,1,0,0,0,2,0V21.566A1,1,0,0,0,7.5,20.566Z"/><path d="M19.5,5.934A1.436,1.436,0,0,0,18.066,4.5H5.934A1.436,1.436,0,0,0,4.5,5.934V18.067A1.437,1.437,0,0,0,5.934,19.5H18.066A1.437,1.437,0,0,0,19.5,18.067ZM6.75,11.513A2.755,2.755,0,0,1,9.492,8.751h.332a.75.75,0,0,1,0,1.5H9.492a1.181,1.181,0,0,0-.849.359.25.25,0,0,0,.219.422A2.5,2.5,0,1,1,6.75,13.5ZM17.25,15a.75.75,0,0,1-1.5,0v-.329a.25.25,0,0,0-.25-.25h-2a.75.75,0,0,1-.75-.75V13A3.945,3.945,0,0,1,16.5,8.9a.75.75,0,0,1,.75.75Z"/><circle cx="9.25" cy="13.501" r="1"/><path d="M14.271,12.642a.251.251,0,0,0,.248.28H15.5a.25.25,0,0,0,.25-.25v-1.71a.25.25,0,0,0-.391-.206A2.655,2.655,0,0,0,14.271,12.642Z"/></svg>