<svg xmlns="http://www.w3.org/2000/svg" viewBox="0 0 24 24"><title>computer-chip-core-1</title><rect x="9" y="4.501" width="6" height="15" rx="0.25" ry="0.25"/><path d="M21,9.5a1,1,0,1,0,0-2H19.25a.25.25,0,0,1-.25-.25v-1A.25.25,0,0,1,19.25,6H21a1,1,0,0,0,0-2H19.25a.25.25,0,0,1-.25-.25V1.5A1.5,1.5,0,0,0,17.5,0H6.5A1.5,1.5,0,0,0,5,1.5v2.25A.25.25,0,0,1,4.75,4H3A1,1,0,0,0,3,6H4.75a.25.25,0,0,1,.25.25v1a.25.25,0,0,1-.25.25H3a1,1,0,1,0,0,2H4.75a.25.25,0,0,1,.25.25v1a.25.25,0,0,1-.25.25H3a1,1,0,0,0,0,2H4.75a.25.25,0,0,1,.25.25v1a.25.25,0,0,1-.25.25H3a1,1,0,1,0,0,2H4.75a.25.25,0,0,1,.25.25v1a.25.25,0,0,1-.25.25H3a1,1,0,0,0,0,2H4.75a.25.25,0,0,1,.25.25V22.5A1.5,1.5,0,0,0,6.5,24h11A1.5,1.5,0,0,0,19,22.5v-2.25a.25.25,0,0,1,.25-.25H21a1,1,0,0,0,0-2H19.25a.25.25,0,0,1-.25-.25v-1a.25.25,0,0,1,.25-.25H21a1,1,0,0,0,0-2H19.25a.25.25,0,0,1-.25-.25v-1a.25.25,0,0,1,.25-.25H21a1,1,0,0,0,0-2H19.25a.25.25,0,0,1-.25-.25v-1a.25.25,0,0,1,.25-.25Zm-4.5-6v17a.5.5,0,0,1-.5.5H8a.5.5,0,0,1-.5-.5V3.5A.5.5,0,0,1,8,3h8A.5.5,0,0,1,16.5,3.5Z"/></svg>