<svg xmlns="http://www.w3.org/2000/svg" viewBox="0 0 24 24"><title>microchip-board</title><path d="M22.5,0H1.5A1.5,1.5,0,0,0,0,1.5v21A1.5,1.5,0,0,0,1.5,24h21A1.5,1.5,0,0,0,24,22.5V1.5A1.5,1.5,0,0,0,22.5,0ZM18,16a1,1,0,1,1,1-1A1,1,0,0,1,18,16Zm1,2.5a1,1,0,1,1-1-1A1,1,0,0,1,19,18.5Zm-1-6a1,1,0,1,1,1-1A1,1,0,0,1,18,12.5Zm-2-5a.5.5,0,0,1,0-1h4.5a.5.5,0,0,1,0,1ZM20.5,4h-6a.5.5,0,1,1,0-1h6a.5.5,0,0,1,0,1Zm-6.75,9.75h-.5a.5.5,0,0,1,0-1h.5a.5.5,0,0,1,0,1Zm.5,2.5a.5.5,0,0,1-.5.5h-.5a.5.5,0,0,1,0-1h.5A.5.5,0,0,1,14.249,16.251Zm-8.75,2a.5.5,0,0,1-.5-.5v-6a.5.5,0,0,1,.5-.5h6a.5.5,0,0,1,.5.5v6a.5.5,0,0,1-.5.5Zm5,1.25V20a.5.5,0,0,1-1,0v-.5a.5.5,0,0,1,1,0Zm-3,0V20a.5.5,0,0,1-1,0v-.5a.5.5,0,0,1,1,0Zm-3.749-5.75h-.5a.5.5,0,1,1,0-1h.5a.5.5,0,1,1,0,1Zm.5,2.5a.5.5,0,0,1-.5.5h-.5a.5.5,0,0,1,0-1h.5A.5.5,0,0,1,4.251,16.251ZM3.5,4a.5.5,0,0,1,0-1h6a.5.5,0,0,1,0,1Zm7,5.5V10a.5.5,0,0,1-1,0V9.5a.5.5,0,1,1,1,0Zm-3,0V10a.5.5,0,0,1-1,0V9.5a.5.5,0,1,1,1,0Z"/><path d="M6.5,12.35a.4.4,0,0,0-.4.4v4a.4.4,0,0,0,.4.4h4a.4.4,0,0,0,.4-.4v-4a.4.4,0,0,0-.4-.4Zm3.6,3.75a.25.25,0,0,1-.25.25H7.15a.25.25,0,0,1-.25-.25V13.4a.25.25,0,0,1,.25-.25h2.7a.25.25,0,0,1,.25.25Z"/></svg>