<svg xmlns="http://www.w3.org/2000/svg" viewBox="0 0 24 24"><defs><style>.a{fill:none;stroke:currentColor;stroke-linecap:round;stroke-linejoin:round;}</style></defs><title>settings-sound</title><rect class="a" x="6.5" y="0.501" width="11" height="23" rx="2" ry="2"/><line class="a" x1="6.5" y1="7.501" x2="17.5" y2="7.501"/><path class="a" d="M11.094,16.46a.493.493,0,0,1-.2.041H10a.5.5,0,0,0-.5.5v2a.5.5,0,0,0,.5.5h.9a.51.51,0,0,1,.2.04L13.8,20.7a.5.5,0,0,0,.7-.459V15.759a.5.5,0,0,0-.7-.46Z"/></svg>