<?xml version="1.0" encoding="utf-8"?>
<!-- Generator: Adobe Illustrator 22.1.0, SVG Export Plug-In . SVG Version: 6.00 Build 0)  -->
<svg version="1.1" id="Layer_1" xmlns="http://www.w3.org/2000/svg" xmlns:xlink="http://www.w3.org/1999/xlink" x="0px" y="0px"
	 viewBox="0 0 24 24" style="enable-background:new 0 0 24 24;" xml:space="preserve">
<title>gesture-swipe-horizontal-right-2</title>
<g>
	<path d="M17.251,24c-0.414,0-0.75-0.336-0.75-0.75v-4.208c0-1.104-0.791-2.038-1.88-2.219l-1.993-0.333
		c-0.363-0.061-0.626-0.372-0.626-0.74v-4.5c0-0.414-0.336-0.75-0.75-0.75s-0.75,0.336-0.75,0.75V18c0,0.262-0.133,0.5-0.356,0.638
		c-0.119,0.073-0.255,0.112-0.394,0.112c-0.116,0-0.232-0.028-0.336-0.08L8.24,18.082c-0.056-0.028-0.117-0.05-0.179-0.066
		c-0.072-0.018-0.145-0.027-0.218-0.027c-0.159,0-0.316,0.044-0.455,0.127c-0.203,0.122-0.348,0.316-0.405,0.546
		c-0.084,0.335,0.037,0.692,0.307,0.908l3.795,3.097c0.155,0.126,0.252,0.306,0.272,0.505c0.02,0.199-0.038,0.395-0.165,0.55
		c-0.143,0.175-0.355,0.276-0.581,0.276c-0.172,0-0.341-0.06-0.474-0.169l-3.79-3.093c-0.722-0.578-1.045-1.536-0.82-2.439
		c0.155-0.619,0.542-1.141,1.09-1.469c0.372-0.222,0.795-0.34,1.224-0.34c0.196,0,0.393,0.024,0.585,0.073
		c0.168,0.042,0.331,0.103,0.486,0.18l0.09,0.045V11.25c0-1.241,1.009-2.25,2.25-2.25c1.241,0,2.25,1.009,2.25,2.25v3.865
		l1.366,0.229c1.816,0.302,3.134,1.858,3.134,3.699v4.208C18.001,23.664,17.664,24,17.251,24z"/>
	<path d="M17.25,10.498c-0.414,0-0.75-0.336-0.75-0.75s0.336-0.75,0.75-0.75h5.25V8.676c-2.879-2.477-6.54-3.95-10.328-4.153
		c-0.301-0.016-0.607-0.024-0.909-0.024c-3.59,0-7.168,1.15-10.076,3.238C1.059,7.829,0.908,7.878,0.75,7.878
		c-0.241,0-0.469-0.117-0.609-0.313C0.024,7.403-0.023,7.204,0.01,7.007s0.14-0.371,0.303-0.488c3.161-2.27,7.048-3.52,10.947-3.52
		c0.33,0,0.664,0.009,0.992,0.026C15.934,3.223,19.543,4.54,22.5,6.752V3.748c0-0.414,0.336-0.75,0.75-0.75S24,3.334,24,3.748v6
		c0,0.414-0.336,0.75-0.75,0.75H17.25z"/>
</g>
</svg>
