<?xml version="1.0" encoding="utf-8"?>
<!-- Generator: Adobe Illustrator 22.1.0, SVG Export Plug-In . SVG Version: 6.00 Build 0)  -->
<svg version="1.1" id="Layer_1" xmlns="http://www.w3.org/2000/svg" xmlns:xlink="http://www.w3.org/1999/xlink" x="0px" y="0px"
	 viewBox="0 0 24 24" style="enable-background:new 0 0 24 24;" xml:space="preserve">
<title>gesture-swipe-vertical-up</title>
<g>
	<path d="M11.248,14.998c-0.414,0-0.75-0.336-0.75-0.75v-1.5c0-0.414,0.336-0.75,0.75-0.75s0.75,0.336,0.75,0.75v1.5
		C11.998,14.662,11.662,14.998,11.248,14.998z"/>
	<path d="M0.748,17.998c-0.414,0-0.75-0.336-0.75-0.75s0.336-0.75,0.75-0.75h11.251c1.654,0,3-1.346,3-3c0-1.654-1.346-3-3-3H0.748
		c-0.414,0-0.75-0.336-0.75-0.75s0.336-0.75,0.75-0.75h11.251c2.481,0,4.5,2.019,4.5,4.5c0,2.481-2.019,4.5-4.5,4.5H0.748z"/>
	<path d="M19.868,23.998c-0.158,0-0.309-0.049-0.438-0.141c-0.163-0.117-0.27-0.29-0.302-0.488
		c-0.032-0.198,0.014-0.396,0.131-0.559c2.282-3.177,3.424-7.078,3.216-10.984c-0.202-3.788-1.675-7.449-4.15-10.329h-0.326v5.25
		c0,0.414-0.336,0.75-0.75,0.75s-0.75-0.336-0.75-0.75v-6c0-0.414,0.336-0.75,0.75-0.75h6c0.414,0,0.75,0.336,0.75,0.75
		s-0.336,0.75-0.75,0.75H20.25c2.211,2.958,3.528,6.567,3.724,10.249c0.226,4.246-1.015,8.486-3.496,11.938
		C20.337,23.881,20.109,23.998,19.868,23.998z"/>
</g>
</svg>
