<?xml version="1.0" encoding="utf-8"?>
<!-- Generator: Adobe Illustrator 22.1.0, SVG Export Plug-In . SVG Version: 6.00 Build 0)  -->
<svg version="1.1" id="Layer_1" xmlns="http://www.w3.org/2000/svg" xmlns:xlink="http://www.w3.org/1999/xlink" x="0px" y="0px"
	 viewBox="0 0 24 24" style="enable-background:new 0 0 24 24;" xml:space="preserve">
<title>gesture-swipe-vertical-3</title>
<g>
	<path d="M3.25,17.998c-0.414,0-0.75-0.336-0.75-0.75s0.336-0.75,0.75-0.75h4.209c1.104,0,2.037-0.791,2.219-1.88l0.332-1.993
		c0.06-0.363,0.371-0.627,0.74-0.627h4.5c0.414,0,0.75-0.336,0.75-0.75s-0.336-0.75-0.75-0.75H8.5c-0.262,0-0.501-0.133-0.638-0.356
		C7.724,9.92,7.712,9.647,7.829,9.413l0.587-1.174C8.445,8.18,8.468,8.119,8.483,8.057c0.057-0.23,0.022-0.469-0.1-0.672
		C8.261,7.182,8.067,7.038,7.838,6.981C7.768,6.964,7.696,6.955,7.624,6.955c-0.269,0-0.528,0.124-0.695,0.333l-3.099,3.795
		c-0.143,0.175-0.355,0.276-0.581,0.276c-0.172,0-0.341-0.06-0.474-0.169c-0.155-0.127-0.252-0.306-0.272-0.505
		s0.039-0.395,0.165-0.55l3.094-3.789c0.444-0.556,1.142-0.89,1.862-0.89c0.194,0,0.387,0.024,0.575,0.071
		c0.619,0.154,1.14,0.54,1.469,1.087c0.328,0.547,0.424,1.188,0.27,1.807C9.897,8.587,9.836,8.752,9.758,8.909L9.713,8.998h5.536
		c1.241,0,2.25,1.009,2.25,2.25c0,1.241-1.009,2.25-2.25,2.25h-3.865l-0.228,1.367c-0.303,1.815-1.859,3.133-3.699,3.133H3.25z"/>
	<path d="M16.75,6.748c-0.414,0-0.75-0.336-0.75-0.75V2.559l-2.47,2.47C13.389,5.17,13.2,5.248,13,5.248s-0.389-0.078-0.53-0.22
		c-0.142-0.141-0.22-0.33-0.22-0.53s0.078-0.389,0.22-0.53l3.75-3.75c0.07-0.07,0.153-0.125,0.245-0.163
		c0.007-0.003,0.016-0.006,0.024-0.009c0.081-0.031,0.171-0.048,0.262-0.048c0.089,0,0.176,0.016,0.261,0.048
		c0.011,0.004,0.022,0.008,0.032,0.012c0.085,0.035,0.167,0.09,0.238,0.16l3.75,3.75c0.142,0.141,0.22,0.33,0.22,0.53
		s-0.078,0.389-0.22,0.53s-0.33,0.22-0.53,0.22s-0.389-0.078-0.53-0.22l-2.47-2.47v3.439C17.5,6.412,17.163,6.748,16.75,6.748z"/>
	<path d="M16.75,23.998c-0.087,0-0.174-0.016-0.258-0.046c-0.006-0.002-0.011-0.004-0.017-0.006
		c-0.104-0.042-0.186-0.097-0.256-0.167l-3.75-3.75c-0.292-0.292-0.292-0.768,0-1.061c0.142-0.142,0.33-0.22,0.53-0.22
		s0.389,0.078,0.53,0.22l2.47,2.47v-5.689c0-0.414,0.336-0.75,0.75-0.75s0.75,0.336,0.75,0.75v5.689l2.47-2.47
		c0.142-0.142,0.33-0.22,0.53-0.22s0.389,0.078,0.53,0.22c0.292,0.292,0.292,0.768,0,1.061l-3.75,3.75
		c-0.07,0.07-0.152,0.125-0.245,0.163c-0.008,0.003-0.017,0.007-0.026,0.01C16.928,23.982,16.839,23.998,16.75,23.998z"/>
</g>
</svg>
