<?xml version="1.0" encoding="utf-8"?>
<!-- Generator: Adobe Illustrator 22.1.0, SVG Export Plug-In . SVG Version: 6.00 Build 0)  -->
<svg version="1.1" id="Layer_1" xmlns="http://www.w3.org/2000/svg" xmlns:xlink="http://www.w3.org/1999/xlink" x="0px" y="0px"
	 viewBox="0 0 24 24" style="enable-background:new 0 0 24 24;" xml:space="preserve">
<title>gesture-two-finger-flip-right</title>
<g>
	<path d="M20.798,23.995l-4.229-0.313c-0.412-0.031-0.723-0.391-0.693-0.803l0.313-4.231c0.029-0.39,0.358-0.695,0.749-0.695
		c0.018,0,0.036,0.001,0.054,0.002c0.413,0.031,0.723,0.391,0.693,0.803l-0.191,2.577c1.968-1.539,3.697-3.34,5.147-5.363
		c0.141-0.196,0.369-0.313,0.61-0.313c0.158,0,0.309,0.049,0.437,0.141c0.162,0.116,0.27,0.29,0.302,0.487
		c0.033,0.198-0.014,0.396-0.131,0.559c-1.477,2.06-3.225,3.902-5.206,5.486L20.91,22.5c0.412,0.031,0.723,0.391,0.693,0.803
		c-0.029,0.39-0.357,0.695-0.748,0.695C20.836,23.998,20.817,23.997,20.798,23.995z"/>
	<path d="M0.751,7.585c-0.218,0-0.425-0.095-0.568-0.26c-0.27-0.313-0.236-0.787,0.077-1.058C2.177,4.61,4.306,3.228,6.6,2.151
		L4.446,1.462C4.052,1.336,3.834,0.913,3.96,0.519c0.1-0.312,0.387-0.522,0.714-0.522c0.078,0,0.155,0.012,0.229,0.036l4.041,1.292
		C9.338,1.451,9.556,1.874,9.43,2.268L8.139,6.309c-0.1,0.312-0.387,0.522-0.714,0.522c-0.078,0-0.155-0.012-0.229-0.036
		c-0.19-0.061-0.346-0.192-0.438-0.37C6.666,6.246,6.649,6.043,6.71,5.852L7.497,3.39C5.225,4.427,3.123,5.774,1.241,7.402
		C1.105,7.52,0.931,7.585,0.751,7.585z"/>
	<path d="M12.108,21c-0.172,0-0.341-0.06-0.474-0.169l-3.789-3.093c-0.866-0.695-1.135-1.925-0.638-2.923
		c0.284-0.571,0.774-0.997,1.379-1.2c0.247-0.083,0.503-0.125,0.761-0.125c0.37,0,0.728,0.084,1.062,0.251l0.09,0.045V6.748
		c0-1.241,1.009-2.25,2.25-2.25s2.25,1.009,2.25,2.25v5.365l0.211,0.035l2.435-4.402c0.289-0.525,0.766-0.907,1.344-1.075
		c0.206-0.06,0.417-0.09,0.629-0.09c0.376,0,0.75,0.097,1.083,0.28c0.526,0.29,0.909,0.767,1.076,1.345
		c0.167,0.577,0.1,1.185-0.19,1.712l-1.968,3.557c0.232,0.413,0.417,0.851,0.552,1.306c0.057,0.192,0.035,0.395-0.06,0.571
		c-0.096,0.176-0.254,0.304-0.447,0.361c-0.069,0.021-0.141,0.031-0.212,0.031c-0.33,0-0.626-0.221-0.719-0.538
		c-0.136-0.46-0.34-0.897-0.606-1.297c-0.155-0.234-0.167-0.531-0.031-0.778l2.178-3.937c0.096-0.174,0.118-0.377,0.062-0.57
		c-0.056-0.192-0.183-0.352-0.359-0.448c-0.113-0.062-0.234-0.094-0.36-0.094c-0.071,0-0.141,0.01-0.211,0.03
		c-0.193,0.056-0.352,0.183-0.448,0.359l-2.693,4.868c-0.132,0.238-0.383,0.387-0.656,0.387l0,0c-0.041,0-0.081-0.003-0.122-0.01
		l-1.362-0.227c-0.363-0.061-0.626-0.372-0.626-0.74v-6c0-0.414-0.336-0.75-0.75-0.75s-0.75,0.336-0.75,0.75V15
		c0,0.262-0.133,0.5-0.356,0.638c-0.119,0.073-0.255,0.112-0.394,0.112c-0.116,0-0.231-0.027-0.335-0.079l-1.175-0.587
		c-0.124-0.062-0.257-0.093-0.393-0.093c-0.096,0-0.191,0.016-0.283,0.047c-0.225,0.075-0.407,0.234-0.513,0.446
		c-0.185,0.371-0.084,0.829,0.239,1.088l3.794,3.097c0.155,0.127,0.252,0.306,0.272,0.506c0.02,0.199-0.039,0.395-0.166,0.55
		C12.546,20.899,12.334,21,12.108,21z"/>
</g>
</svg>
