<?xml version="1.0" encoding="utf-8"?>
<!-- Generator: Adobe Illustrator 22.1.0, SVG Export Plug-In . SVG Version: 6.00 Build 0)  -->
<svg version="1.1" id="Layer_1" xmlns="http://www.w3.org/2000/svg" xmlns:xlink="http://www.w3.org/1999/xlink" x="0px" y="0px"
	 viewBox="0 0 24 24" style="enable-background:new 0 0 24 24;" xml:space="preserve">
<title>gesture-two-finger-tap</title>
<g>
	<path d="M4.685,15.747c-0.24,0-0.467-0.116-0.608-0.31c-1.199-1.659-1.832-3.617-1.832-5.663C2.243,7.951,2.75,6.17,3.713,4.622
		c1.374-2.21,3.526-3.753,6.06-4.344c0.735-0.172,1.486-0.258,2.232-0.258c1.804,0,3.576,0.509,5.125,1.472
		c4.562,2.836,5.967,8.854,3.131,13.417c-0.138,0.221-0.376,0.354-0.637,0.354l0,0c-0.139,0-0.276-0.039-0.395-0.112
		c-0.352-0.219-0.46-0.682-0.242-1.033c2.399-3.86,1.211-8.952-2.649-11.351c-1.311-0.814-2.81-1.245-4.335-1.245
		c-0.631,0-1.267,0.074-1.889,0.219c-2.144,0.5-3.965,1.806-5.127,3.676C4.173,6.723,3.743,8.231,3.745,9.773
		c0,1.729,0.536,3.384,1.548,4.784c0.117,0.163,0.164,0.361,0.133,0.559c-0.032,0.198-0.139,0.371-0.301,0.489
		C4.995,15.698,4.843,15.747,4.685,15.747z"/>
	<path d="M17.245,10.524c-0.414,0-0.75-0.336-0.75-0.75c0-2.481-2.019-4.5-4.5-4.5s-4.5,2.019-4.5,4.5c0,0.414-0.336,0.75-0.75,0.75
		s-0.75-0.336-0.75-0.75c0-3.308,2.692-6,6-6c3.308,0,6,2.692,6,6C17.995,10.187,17.658,10.524,17.245,10.524z"/>
	<path d="M16.495,23.995c-0.069,0-0.139-0.01-0.206-0.029c-0.398-0.114-0.629-0.53-0.516-0.927l0.816-2.856
		c0.297-1.04-0.19-2.146-1.157-2.63l-0.772-0.385c-0.256-0.128-0.416-0.385-0.416-0.671v-3.75c0-0.414-0.336-0.75-0.75-0.75
		s-0.75,0.337-0.75,0.75v4.498c0,0.414-0.336,0.75-0.75,0.75c-0.414,0-0.75-0.336-0.75-0.75v-5.998c0-0.414-0.336-0.75-0.75-0.75
		s-0.75,0.336-0.75,0.75v6.75c0,0.262-0.133,0.5-0.356,0.638c-0.119,0.073-0.255,0.112-0.394,0.112
		c-0.116,0-0.231-0.027-0.335-0.079l-1.175-0.587c-0.123-0.061-0.255-0.092-0.392-0.092c-0.34,0-0.646,0.188-0.797,0.492
		c-0.185,0.371-0.084,0.829,0.239,1.089l3.794,3.095c0.155,0.126,0.252,0.306,0.272,0.505c0.02,0.199-0.038,0.395-0.165,0.55
		c-0.143,0.175-0.355,0.276-0.581,0.276c-0.172,0-0.341-0.06-0.474-0.169l-3.789-3.091c-0.866-0.695-1.135-1.925-0.639-2.923
		c0.284-0.571,0.774-0.997,1.379-1.2c0.247-0.083,0.503-0.125,0.761-0.125c0.37,0,0.727,0.085,1.062,0.251l0.09,0.045v-5.536
		c0-1.241,1.009-2.25,2.25-2.25c1.036,0,1.91,0.703,2.171,1.658c0.261-0.104,0.541-0.158,0.829-0.158c1.241,0,2.25,1.009,2.25,2.25
		v3.286l0.357,0.178c1.613,0.807,2.425,2.65,1.93,4.384l-0.816,2.856C17.124,23.771,16.828,23.995,16.495,23.995z"/>
</g>
</svg>
