<?xml version="1.0" encoding="utf-8"?>
<!-- Generator: Adobe Illustrator 22.1.0, SVG Export Plug-In . SVG Version: 6.00 Build 0)  -->
<svg version="1.1" id="Layer_1" xmlns="http://www.w3.org/2000/svg" xmlns:xlink="http://www.w3.org/1999/xlink" x="0px" y="0px"
	 viewBox="0 0 24 24" style="enable-background:new 0 0 24 24;" xml:space="preserve">
<title>gesture-tap-clock</title>
<g>
	<path d="M17.378,15.265c-0.141,0-0.278-0.039-0.397-0.114c-0.351-0.219-0.458-0.683-0.239-1.033
		c0.313-0.502,0.575-1.038,0.776-1.595c0.108-0.296,0.391-0.494,0.705-0.494c0.087,0,0.174,0.015,0.256,0.045
		c0.388,0.141,0.59,0.572,0.449,0.961c-0.238,0.656-0.546,1.287-0.914,1.878C17.876,15.133,17.638,15.265,17.378,15.265z"/>
	<path d="M18.75,10.527c-2.895,0-5.25-2.355-5.25-5.25s2.355-5.25,5.25-5.25S24,2.382,24,5.277S21.645,10.527,18.75,10.527z
		 M18.75,1.527c-2.068,0-3.75,1.682-3.75,3.75s1.682,3.75,3.75,3.75s3.75-1.682,3.75-3.75S20.818,1.527,18.75,1.527z"/>
	<path d="M18.75,6.027c-0.414,0-0.75-0.336-0.75-0.75v-1.5c0-0.414,0.336-0.75,0.75-0.75s0.75,0.336,0.75,0.75v1.5
		C19.5,5.69,19.163,6.027,18.75,6.027z"/>
	<path d="M2.44,15.75c-0.241,0-0.469-0.117-0.609-0.312c-1.204-1.673-1.838-3.647-1.833-5.708c0.014-5.35,4.378-9.703,9.728-9.703
		c0.001,0,0.028,0,0.029,0c0.826,0.01,1.648,0.125,2.442,0.343c0.399,0.109,0.635,0.522,0.526,0.921
		C12.634,1.616,12.337,1.843,12,1.843c-0.067,0-0.133-0.009-0.198-0.026c-0.672-0.184-1.365-0.281-2.062-0.29
		c-4.541,0-8.23,3.681-8.242,8.207c-0.005,1.744,0.531,3.413,1.55,4.829c0.242,0.335,0.165,0.805-0.17,1.047
		C2.749,15.701,2.598,15.75,2.44,15.75z"/>
	<path d="M8.25,14.998c-0.414,0-0.75-0.336-0.75-0.75v-1.5c0-0.414,0.336-0.75,0.75-0.75c0.414,0,0.75,0.336,0.75,0.75v0.75h1.5
		v-0.75c0-0.414,0.336-0.75,0.75-0.75S12,12.334,12,12.748v1.5c0,0.414-0.336,0.75-0.75,0.75H8.25z"/>
	<path d="M14.25,23.998c-0.414,0-0.75-0.336-0.75-0.75v-10.5c0-2.068-1.682-3.75-3.75-3.75S6,10.68,6,12.748v10.5
		c0,0.414-0.336,0.75-0.75,0.75s-0.75-0.336-0.75-0.75v-10.5c0-2.895,2.355-5.25,5.25-5.25c2.895,0,5.25,2.355,5.25,5.25v10.5
		C15,23.661,14.663,23.998,14.25,23.998z"/>
</g>
</svg>
