<?xml version="1.0" encoding="utf-8"?>
<!-- Generator: Adobe Illustrator 22.1.0, SVG Export Plug-In . SVG Version: 6.00 Build 0)  -->
<svg version="1.1" id="Layer_1" xmlns="http://www.w3.org/2000/svg" xmlns:xlink="http://www.w3.org/1999/xlink" x="0px" y="0px"
	 viewBox="0 0 24 24" style="enable-background:new 0 0 24 24;" xml:space="preserve">
<title>gesture-tap-swipe-up</title>
<g>
	<path d="M17.25,7.501c-0.414,0-0.75-0.336-0.75-0.75V2.561l-2.47,2.47c-0.142,0.142-0.33,0.22-0.53,0.22s-0.389-0.078-0.53-0.22
		c-0.142-0.141-0.22-0.33-0.22-0.53s0.078-0.389,0.22-0.53l3.75-3.75c0.07-0.07,0.153-0.125,0.245-0.163
		c0.007-0.003,0.016-0.006,0.024-0.009c0.081-0.031,0.171-0.048,0.262-0.048c0.089,0,0.176,0.016,0.261,0.048
		c0.011,0.004,0.022,0.008,0.032,0.012c0.085,0.035,0.167,0.09,0.238,0.16l3.75,3.75c0.142,0.141,0.22,0.33,0.22,0.53
		s-0.078,0.389-0.22,0.53S21.2,5.251,21,5.251s-0.389-0.078-0.53-0.22L18,2.561v4.189C18,7.164,17.664,7.501,17.25,7.501z"/>
	<path d="M11.25,18.001c-0.414,0-0.75-0.336-0.75-0.75v-1.5c0-0.414,0.336-0.75,0.75-0.75S12,15.337,12,15.751v1.5
		C12,17.665,11.664,18.001,11.25,18.001z"/>
	<path d="M0.75,21.001c-0.414,0-0.75-0.336-0.75-0.75s0.336-0.75,0.75-0.75H12c1.654,0,3-1.346,3-3s-1.346-3-3-3H0.75
		c-0.414,0-0.75-0.336-0.75-0.75s0.336-0.75,0.75-0.75H12c2.481,0,4.5,2.019,4.5,4.5s-2.019,4.5-4.5,4.5H0.75z"/>
	<path d="M13.487,24.003c-1.155,0-2.271-0.263-3.319-0.781c-0.371-0.184-0.523-0.635-0.34-1.005
		c0.127-0.257,0.385-0.417,0.673-0.417c0.114,0,0.229,0.027,0.332,0.077c0.839,0.416,1.733,0.626,2.655,0.626
		c0.652,0,1.301-0.107,1.927-0.319c1.518-0.513,2.746-1.587,3.456-3.023c0.711-1.436,0.82-3.064,0.307-4.582
		c-0.513-1.518-1.587-2.746-3.023-3.457c-0.817-0.404-1.737-0.618-2.661-0.618s-1.844,0.214-2.661,0.618
		c-0.103,0.051-0.218,0.078-0.332,0.078c-0.287,0-0.545-0.16-0.673-0.418c-0.183-0.37-0.031-0.821,0.34-1.005
		c1.022-0.506,2.172-0.773,3.326-0.773c1.154,0,2.304,0.267,3.326,0.773c1.796,0.888,3.138,2.423,3.779,4.32
		c0.642,1.898,0.506,3.932-0.383,5.728c-0.888,1.796-2.423,3.138-4.321,3.779C15.113,23.868,14.303,24.003,13.487,24.003z"/>
</g>
</svg>
