<?xml version="1.0" encoding="utf-8"?>
<!-- Generator: Adobe Illustrator 22.1.0, SVG Export Plug-In . SVG Version: 6.00 Build 0)  -->
<svg version="1.1" id="Layer_1" xmlns="http://www.w3.org/2000/svg" xmlns:xlink="http://www.w3.org/1999/xlink" x="0px" y="0px"
	 viewBox="0 0 24 24" style="enable-background:new 0 0 24 24;" xml:space="preserve">
<title>gesture-swipe-vertical-1</title>
<g>
	<path d="M23.249,4.498c-0.2,0-0.389-0.078-0.53-0.22l-2.47-2.47l-2.47,2.47c-0.142,0.142-0.33,0.22-0.53,0.22
		s-0.389-0.078-0.53-0.22c-0.142-0.141-0.22-0.33-0.22-0.53s0.078-0.389,0.22-0.53l3-3c0.142-0.142,0.33-0.22,0.53-0.22
		s0.389,0.078,0.53,0.22l3,3c0.142,0.141,0.22,0.33,0.22,0.53s-0.078,0.389-0.22,0.53S23.45,4.498,23.249,4.498z"/>
	<path d="M20.249,19.498c-0.087,0-0.174-0.016-0.258-0.046c-0.006-0.002-0.011-0.004-0.017-0.006
		c-0.104-0.042-0.186-0.097-0.256-0.167l-3-3c-0.292-0.292-0.292-0.768,0-1.061c0.142-0.142,0.33-0.22,0.53-0.22
		s0.389,0.078,0.53,0.22l1.72,1.72V7.059l-1.72,1.72c-0.142,0.142-0.33,0.22-0.53,0.22s-0.389-0.078-0.53-0.22
		c-0.142-0.141-0.22-0.33-0.22-0.53s0.078-0.389,0.22-0.53l3-3c0.07-0.07,0.153-0.125,0.245-0.163
		c0.007-0.003,0.016-0.006,0.024-0.009c0.081-0.031,0.171-0.048,0.262-0.048c0.089,0,0.176,0.016,0.261,0.048
		c0.011,0.004,0.022,0.008,0.032,0.012c0.085,0.035,0.167,0.09,0.238,0.16l3,3c0.142,0.141,0.22,0.33,0.22,0.53
		s-0.078,0.389-0.22,0.53s-0.33,0.22-0.53,0.22s-0.389-0.078-0.53-0.22l-1.72-1.72v9.879l1.72-1.72c0.142-0.142,0.33-0.22,0.53-0.22
		s0.389,0.078,0.53,0.22c0.292,0.292,0.292,0.768,0,1.061l-3,3c-0.07,0.07-0.152,0.125-0.245,0.163
		c-0.008,0.003-0.017,0.007-0.026,0.01C20.427,19.482,20.338,19.498,20.249,19.498z"/>
	<path d="M20.249,23.998c-0.2,0-0.389-0.078-0.53-0.22l-3-3c-0.292-0.292-0.292-0.768,0-1.061c0.142-0.142,0.33-0.22,0.53-0.22
		s0.389,0.078,0.53,0.22l2.47,2.47l2.47-2.47c0.142-0.142,0.33-0.22,0.53-0.22s0.389,0.078,0.53,0.22
		c0.292,0.292,0.292,0.768,0,1.061l-3,3C20.638,23.92,20.45,23.998,20.249,23.998z"/>
	<path d="M9.748,13.498c-0.414,0-0.75-0.336-0.75-0.75v-1.5c0-0.414,0.336-0.75,0.75-0.75s0.75,0.336,0.75,0.75v1.5
		C10.498,13.162,10.162,13.498,9.748,13.498z"/>
	<path d="M0.748,16.498c-0.414,0-0.75-0.336-0.75-0.75s0.336-0.75,0.75-0.75H10.5c1.654,0,3-1.346,3-3c0-1.654-1.346-3-3-3H0.748
		c-0.414,0-0.75-0.336-0.75-0.75s0.336-0.75,0.75-0.75H10.5c2.481,0,4.5,2.019,4.5,4.5c0,2.481-2.019,4.5-4.5,4.5H0.748z"/>
</g>
</svg>
