<?xml version="1.0" encoding="utf-8"?>
<!-- Generator: Adobe Illustrator 22.1.0, SVG Export Plug-In . SVG Version: 6.00 Build 0)  -->
<svg version="1.1" id="Layer_1" xmlns="http://www.w3.org/2000/svg" xmlns:xlink="http://www.w3.org/1999/xlink" x="0px" y="0px"
	 viewBox="0 0 24 24" style="enable-background:new 0 0 24 24;" xml:space="preserve">
<title>gesture-zoom-out</title>
<g>
	<path d="M3.942,16.465c-0.35,0-0.65-0.238-0.73-0.579c-0.094-0.402,0.156-0.807,0.559-0.901l1.461-0.342
		c0.057-0.013,0.113-0.019,0.17-0.019c0.351,0,0.652,0.238,0.731,0.579c0.094,0.402-0.156,0.806-0.559,0.901l-1.461,0.342
		C4.056,16.458,3.999,16.465,3.942,16.465z"/>
	<path d="M10.323,23.998c-0.35,0-0.65-0.238-0.73-0.58l-2.169-9.287c-0.202-0.756-0.696-1.4-1.389-1.802
		c-0.458-0.266-0.977-0.406-1.499-0.406c-0.26,0-0.522,0.035-0.777,0.103c-1.529,0.407-2.482,1.941-2.169,3.492l1.766,7.559
		c0.046,0.195,0.013,0.396-0.093,0.566s-0.271,0.289-0.466,0.335c-0.057,0.013-0.113,0.019-0.17,0.019
		c-0.351,0-0.651-0.238-0.731-0.579l-1.771-7.582c-0.473-2.344,0.956-4.649,3.249-5.26c0.382-0.102,0.774-0.153,1.164-0.153
		c0.785,0,1.563,0.21,2.25,0.608c1.04,0.603,1.783,1.574,2.092,2.736l2.174,9.309c0.094,0.403-0.157,0.807-0.56,0.901
		C10.437,23.991,10.38,23.998,10.323,23.998z"/>
	<path d="M20.061,16.465c-0.057,0-0.114-0.006-0.169-0.019l-1.462-0.342c-0.403-0.095-0.654-0.499-0.56-0.901
		c0.08-0.341,0.38-0.579,0.731-0.579c0.057,0,0.114,0.007,0.169,0.019l1.462,0.342c0.403,0.095,0.654,0.499,0.56,0.901
		C20.711,16.227,20.411,16.465,20.061,16.465z"/>
	<path d="M13.684,24.003c-0.057,0-0.114-0.007-0.17-0.019c-0.404-0.094-0.655-0.499-0.561-0.901l2.169-9.287
		c0.014-0.075,0.038-0.18,0.066-0.283c0.53-1.958,2.317-3.326,4.346-3.326c0.395,0,0.789,0.053,1.173,0.156
		c1.16,0.314,2.129,1.061,2.728,2.103c0.599,1.042,0.756,2.255,0.442,3.416l-1.764,7.556c-0.08,0.341-0.38,0.58-0.73,0.58
		c0,0,0,0,0,0c-0.057,0-0.114-0.007-0.17-0.02c-0.403-0.094-0.654-0.498-0.56-0.901l1.77-7.582c0.215-0.795,0.111-1.608-0.288-2.302
		c-0.399-0.695-1.045-1.193-1.819-1.402c-0.256-0.069-0.519-0.104-0.781-0.104c-1.353,0-2.545,0.912-2.898,2.217
		c-0.018,0.067-0.034,0.136-0.048,0.205l-2.175,9.314C14.334,23.765,14.034,24.003,13.684,24.003z"/>
	<path d="M19.462,7.399c-0.285,0-0.542-0.158-0.67-0.413c-0.09-0.179-0.105-0.382-0.042-0.573c0.063-0.19,0.196-0.345,0.375-0.435
		l2.309-1.161c-2.33-0.897-4.763-1.455-7.244-1.659c-0.412-0.034-0.72-0.397-0.686-0.809c0.031-0.386,0.359-0.689,0.747-0.689
		c0.021,0,0.042,0.001,0.063,0.003c2.525,0.208,5.002,0.761,7.377,1.646L20.676,1.29c-0.09-0.179-0.105-0.382-0.042-0.572
		c0.063-0.19,0.196-0.345,0.375-0.435c0.104-0.052,0.22-0.08,0.337-0.08c0.285,0,0.542,0.158,0.67,0.413l1.906,3.79
		c0.054,0.107,0.08,0.225,0.078,0.349c0.004,0.1-0.018,0.215-0.066,0.321c-0.093,0.202-0.272,0.351-0.489,0.409l-3.647,1.834
		C19.695,7.371,19.578,7.399,19.462,7.399z"/>
	<path d="M4.543,7.399c-0.116,0-0.232-0.028-0.336-0.08L0.558,5.485C0.342,5.427,0.162,5.278,0.07,5.076
		C0.021,4.97-0.001,4.855,0.004,4.735C0.001,4.633,0.029,4.512,0.082,4.406l1.906-3.79c0.128-0.255,0.385-0.413,0.67-0.413
		c0.116,0,0.233,0.028,0.337,0.08c0.178,0.09,0.312,0.244,0.375,0.434c0.063,0.19,0.048,0.394-0.042,0.573L2.312,3.309
		C4.687,2.425,7.164,1.872,9.69,1.663c0.021-0.002,0.042-0.002,0.062-0.002c0.393,0,0.715,0.296,0.747,0.688
		c0.034,0.412-0.274,0.775-0.686,0.809C7.333,3.363,4.9,3.92,2.57,4.818l2.31,1.161c0.37,0.186,0.519,0.637,0.333,1.007
		C5.085,7.241,4.828,7.399,4.543,7.399z"/>
</g>
</svg>
