<?xml version="1.0" encoding="utf-8"?>
<!-- Generator: Adobe Illustrator 22.1.0, SVG Export Plug-In . SVG Version: 6.00 Build 0)  -->
<svg version="1.1" id="Layer_1" xmlns="http://www.w3.org/2000/svg" xmlns:xlink="http://www.w3.org/1999/xlink" x="0px" y="0px"
	 viewBox="0 0 24 24" style="enable-background:new 0 0 24 24;" xml:space="preserve">
<title>gesture-swipe-vertical-down-3</title>
<g>
	<path d="M14.248,23.998c-0.414,0-0.75-0.336-0.75-0.75v-6c0-0.414,0.336-0.75,0.75-0.75s0.75,0.336,0.75,0.75v5.25h5.25
		c0.414,0,0.75,0.336,0.75,0.75s-0.336,0.75-0.75,0.75H14.248z"/>
	<path d="M17.248,20.998c-0.414,0-0.75-0.336-0.75-0.75v-6c0-0.414,0.336-0.75,0.75-0.75s0.75,0.336,0.75,0.75v5.25h0.389
		c3.271-5.671,3.493-12.54,0.584-18.417c-0.183-0.371-0.031-0.822,0.34-1.005c0.103-0.051,0.218-0.078,0.332-0.078
		c0.288,0,0.545,0.16,0.673,0.417c2.994,6.049,2.904,13.135-0.215,19.083h3.147c0.414,0,0.75,0.336,0.75,0.75s-0.336,0.75-0.75,0.75
		H17.248z"/>
	<path d="M0.748,17.999c-0.414,0-0.75-0.336-0.75-0.75s0.336-0.75,0.75-0.75h4.211c1.104,0,2.038-0.791,2.219-1.88l0.332-1.993
		c0.06-0.363,0.371-0.627,0.74-0.627h4.5c0.414,0,0.75-0.336,0.75-0.75s-0.336-0.75-0.75-0.75H6c-0.261,0-0.5-0.133-0.638-0.355
		c-0.138-0.223-0.15-0.495-0.033-0.73l0.585-1.174c0.029-0.059,0.052-0.12,0.068-0.183c0.057-0.23,0.022-0.469-0.1-0.672
		C5.76,7.183,5.566,7.039,5.336,6.982C5.267,6.964,5.195,6.955,5.123,6.955c-0.269,0-0.529,0.125-0.696,0.333l-3.099,3.795
		c-0.143,0.175-0.355,0.276-0.581,0.276c-0.172,0-0.341-0.06-0.474-0.169c-0.155-0.127-0.252-0.306-0.272-0.506
		s0.039-0.395,0.165-0.55l3.094-3.789c0.445-0.556,1.142-0.89,1.863-0.89c0.194,0,0.387,0.024,0.575,0.071
		C6.318,5.681,6.84,6.067,7.168,6.614c0.328,0.547,0.424,1.189,0.269,1.807c-0.042,0.168-0.103,0.333-0.181,0.49L7.212,8.999h5.538
		c1.241,0,2.25,1.009,2.25,2.25c0,1.241-1.009,2.25-2.25,2.25H8.885l-0.228,1.366c-0.303,1.816-1.858,3.134-3.699,3.134H0.748z"/>
</g>
</svg>
