<?xml version="1.0" encoding="utf-8"?>
<!-- Generator: Adobe Illustrator 22.1.0, SVG Export Plug-In . SVG Version: 6.00 Build 0)  -->
<svg version="1.1" id="Layer_1" xmlns="http://www.w3.org/2000/svg" xmlns:xlink="http://www.w3.org/1999/xlink" x="0px" y="0px"
	 viewBox="0 0 24 24" style="enable-background:new 0 0 24 24;" xml:space="preserve">
<title>gesture-two-fingers-expand-all</title>
<g>
	<path d="M10.608,18c-0.172,0-0.341-0.06-0.474-0.169l-3.789-3.093c-0.866-0.695-1.135-1.925-0.638-2.923
		c0.284-0.571,0.774-0.997,1.379-1.2c0.247-0.083,0.503-0.125,0.761-0.125c0.37,0,0.728,0.084,1.062,0.251l0.09,0.045V6.748
		c0-1.241,1.009-2.25,2.25-2.25c1.036,0,1.91,0.703,2.171,1.658c0.261-0.104,0.541-0.158,0.829-0.158c1.241,0,2.25,1.009,2.25,2.25
		v1.79c0.944,0.708,1.501,1.815,1.5,3.002v4.208c0,0.414-0.336,0.75-0.75,0.75s-0.75-0.336-0.75-0.75V13.04
		c0.001-0.802-0.43-1.549-1.125-1.951c-0.231-0.133-0.375-0.382-0.375-0.649V8.248c0-0.414-0.336-0.75-0.75-0.75
		s-0.75,0.336-0.75,0.75v3c0,0.414-0.336,0.75-0.75,0.75s-0.75-0.336-0.75-0.75v-4.5c0-0.414-0.336-0.75-0.75-0.75
		s-0.75,0.336-0.75,0.75V12c0,0.262-0.133,0.5-0.356,0.638c-0.119,0.073-0.255,0.112-0.394,0.112c-0.116,0-0.232-0.027-0.335-0.079
		l-1.175-0.587c-0.124-0.062-0.256-0.093-0.393-0.093c-0.096,0-0.191,0.016-0.284,0.047c-0.225,0.075-0.407,0.234-0.512,0.446
		c-0.185,0.371-0.084,0.829,0.239,1.088l3.794,3.097c0.32,0.262,0.368,0.735,0.107,1.055C11.046,17.899,10.834,18,10.608,18z"/>
	<path d="M14.248,3.748c-0.2,0-0.389-0.078-0.53-0.22l-1.72-1.72l-1.72,1.72c-0.142,0.142-0.33,0.22-0.53,0.22
		s-0.389-0.078-0.53-0.22c-0.142-0.141-0.22-0.33-0.22-0.53s0.078-0.389,0.22-0.53l2.25-2.25c0.142-0.142,0.33-0.22,0.53-0.22
		s0.389,0.078,0.53,0.22l2.25,2.25c0.142,0.141,0.22,0.33,0.22,0.53s-0.078,0.389-0.22,0.53S14.448,3.748,14.248,3.748z"/>
	<path d="M11.998,23.998c-0.2,0-0.389-0.078-0.53-0.22l-2.25-2.25c-0.292-0.292-0.292-0.768,0-1.061
		c0.142-0.142,0.33-0.22,0.53-0.22s0.389,0.078,0.53,0.22l1.72,1.72l1.72-1.72c0.142-0.142,0.33-0.22,0.53-0.22
		s0.389,0.078,0.53,0.22c0.292,0.292,0.292,0.768,0,1.061l-2.25,2.25C12.387,23.92,12.198,23.998,11.998,23.998z"/>
	<path d="M2.998,14.998c-0.2,0-0.389-0.078-0.53-0.22l-2.25-2.25c-0.142-0.142-0.22-0.33-0.22-0.53s0.078-0.389,0.22-0.53l2.25-2.25
		c0.142-0.142,0.33-0.22,0.53-0.22s0.389,0.078,0.53,0.22c0.142,0.141,0.22,0.33,0.22,0.53s-0.078,0.389-0.22,0.53l-1.72,1.72
		l1.72,1.72c0.292,0.292,0.292,0.768,0,1.061C3.387,14.92,3.198,14.998,2.998,14.998z"/>
	<path d="M20.998,14.998c-0.2,0-0.389-0.078-0.53-0.22c-0.292-0.292-0.292-0.768,0-1.061l1.72-1.72l-1.72-1.72
		c-0.142-0.141-0.22-0.33-0.22-0.53s0.078-0.389,0.22-0.53s0.33-0.22,0.53-0.22s0.389,0.078,0.53,0.22l2.25,2.25
		c0.142,0.141,0.22,0.33,0.22,0.53s-0.078,0.389-0.22,0.531l-2.25,2.25C21.387,14.92,21.198,14.998,20.998,14.998z"/>
</g>
</svg>
