<?xml version="1.0" encoding="utf-8"?>
<!-- Generator: Adobe Illustrator 22.1.0, SVG Export Plug-In . SVG Version: 6.00 Build 0)  -->
<svg version="1.1" id="Layer_1" xmlns="http://www.w3.org/2000/svg" xmlns:xlink="http://www.w3.org/1999/xlink" x="0px" y="0px"
	 viewBox="0 0 24 24" style="enable-background:new 0 0 24 24;" xml:space="preserve">
<title>gesture-zoom-in</title>
<g>
	<path d="M3.939,16.465c-0.35,0-0.65-0.238-0.73-0.579c-0.094-0.403,0.156-0.807,0.559-0.901l1.46-0.342
		c0.057-0.013,0.114-0.02,0.171-0.02c0.35,0,0.651,0.238,0.731,0.579c0.094,0.403-0.156,0.807-0.559,0.901l-1.46,0.342
		C4.053,16.459,3.996,16.465,3.939,16.465z"/>
	<path d="M2.621,23.998c-0.351,0-0.651-0.238-0.731-0.58l-1.77-7.582c-0.472-2.344,0.956-4.649,3.249-5.26
		c0.382-0.102,0.774-0.153,1.164-0.153c0.785,0,1.563,0.21,2.249,0.608c1.04,0.603,1.783,1.574,2.092,2.736l2.174,9.31
		c0.094,0.403-0.157,0.807-0.56,0.901c-0.057,0.013-0.114,0.02-0.171,0.02c-0.35,0-0.65-0.238-0.73-0.58L7.42,14.131
		c-0.202-0.756-0.696-1.4-1.389-1.802c-0.458-0.265-0.976-0.406-1.499-0.406c-0.26,0-0.522,0.034-0.777,0.102
		c-1.529,0.407-2.482,1.94-2.169,3.491l1.765,7.56c0.094,0.403-0.157,0.807-0.56,0.901C2.735,23.991,2.678,23.998,2.621,23.998z"/>
	<path d="M20.057,16.465c-0.057,0-0.114-0.007-0.17-0.019l-1.461-0.342c-0.403-0.095-0.654-0.499-0.56-0.901
		c0.08-0.341,0.381-0.579,0.731-0.579c0.057,0,0.114,0.007,0.17,0.02l1.46,0.342c0.403,0.094,0.654,0.499,0.56,0.901
		C20.707,16.227,20.407,16.465,20.057,16.465z"/>
	<path d="M13.68,24.003c-0.057,0-0.114-0.007-0.17-0.019c-0.196-0.046-0.362-0.165-0.468-0.335c-0.106-0.17-0.139-0.371-0.094-0.566
		l2.169-9.287c0.015-0.077,0.039-0.18,0.066-0.282c0.53-1.959,2.316-3.326,4.345-3.326c0.395,0,0.789,0.053,1.173,0.156
		c2.395,0.648,3.817,3.124,3.169,5.519l-1.764,7.557c-0.08,0.341-0.38,0.579-0.731,0.579l0,0c-0.056,0-0.113-0.006-0.168-0.019
		c-0.197-0.046-0.363-0.165-0.468-0.335c-0.106-0.17-0.139-0.371-0.094-0.566l1.77-7.582c0.437-1.616-0.51-3.273-2.106-3.705
		c-0.256-0.069-0.519-0.104-0.782-0.104c-1.353,0-2.544,0.912-2.897,2.217c-0.019,0.068-0.035,0.137-0.048,0.207l-2.174,9.312
		C14.33,23.765,14.03,24.003,13.68,24.003z"/>
	<path d="M6.56,7.498c-0.169,0-0.335-0.058-0.467-0.163C5.936,7.21,5.838,7.031,5.815,6.832S5.849,6.437,5.974,6.28l1.519-1.905
		c-2.216,0.284-4.402,0.777-6.51,1.47C0.906,5.871,0.827,5.883,0.748,5.883c-0.325,0-0.611-0.207-0.712-0.516
		C-0.093,4.974,0.121,4.55,0.514,4.421c2.204-0.724,4.489-1.239,6.804-1.535L5.42,1.372C5.263,1.248,5.165,1.069,5.142,0.87
		C5.12,0.671,5.176,0.475,5.301,0.318c0.143-0.179,0.357-0.282,0.587-0.282c0.169,0,0.335,0.058,0.467,0.163l3.318,2.645
		c0.156,0.125,0.255,0.303,0.278,0.502c0.001,0.01,0.003,0.042,0.003,0.043c0.001,0.016,0.001,0.045,0,0.06
		c0,0.017,0,0.036-0.002,0.055C9.94,3.681,9.856,3.858,9.721,3.987L7.147,7.216C7.004,7.395,6.79,7.498,6.56,7.498z"/>
	<path d="M17.436,7.498c-0.23,0-0.444-0.103-0.587-0.283l-2.574-3.228c-0.135-0.129-0.219-0.307-0.231-0.495
		c0-0.008-0.001-0.036-0.001-0.044c-0.001-0.018-0.001-0.037,0-0.056c0-0.001,0.001-0.028,0.002-0.042
		c0.022-0.201,0.121-0.38,0.278-0.505L17.641,0.2c0.132-0.105,0.298-0.163,0.467-0.163c0.23,0,0.444,0.103,0.587,0.283
		c0.125,0.156,0.181,0.352,0.159,0.551s-0.121,0.378-0.278,0.502l-1.898,1.513c2.315,0.296,4.6,0.811,6.805,1.535
		c0.393,0.129,0.608,0.554,0.479,0.947c-0.101,0.309-0.387,0.516-0.712,0.516c-0.079,0-0.158-0.013-0.233-0.037
		c-2.11-0.693-4.296-1.186-6.512-1.47l1.519,1.905c0.258,0.323,0.205,0.796-0.119,1.054C17.771,7.44,17.605,7.498,17.436,7.498z"/>
</g>
</svg>
