<svg xmlns="http://www.w3.org/2000/svg" viewBox="0 0 24 24"><defs><style>.a{fill:none;stroke:currentColor;stroke-linecap:round;stroke-linejoin:round;}</style></defs><title>mailbox-post</title><polygon class="a" points="9 18 10.5 15 9 12 16 15 9 18"/><path class="a" d="M7,.5H17a4,4,0,0,1,4,4v16a0,0,0,0,1,0,0H3a0,0,0,0,1,0,0V4.5A4,4,0,0,1,7,.5Z"/><line class="a" x1="3" y1="19.5" x2="3" y2="23.5"/><line class="a" x1="21" y1="19.5" x2="21" y2="23.5"/><polyline class="a" points="6 0.626 6 6.5 18 6.5 18 0.626"/><line class="a" x1="8" y1="9.5" x2="16" y2="9.5"/><line class="a" x1="6" y1="6.5" x2="6" y2="20.5"/><line class="a" x1="18" y1="6.5" x2="18" y2="20.5"/></svg>