<?xml version="1.0" encoding="utf-8"?>
<!-- Generator: Adobe Illustrator 22.1.0, SVG Export Plug-In . SVG Version: 6.00 Build 0)  -->
<svg version="1.1" id="Layer_1" xmlns="http://www.w3.org/2000/svg" xmlns:xlink="http://www.w3.org/1999/xlink" x="0px" y="0px"
	 viewBox="0 0 24 24" style="enable-background:new 0 0 24 24;" xml:space="preserve">
<g>
	<title>picture-landscape</title>
	<path d="M1.5,24C0.673,24,0,23.327,0,22.5v-21C0,0.673,0.673,0,1.5,0h21C23.327,0,24,0.673,24,1.5v21c0,0.827-0.673,1.5-1.5,1.5
		H1.5z M1,22.5C1,22.776,1.224,23,1.5,23h21c0.276,0,0.5-0.224,0.5-0.5V18H1V22.5z M23,17V1.5C23,1.224,22.776,1,22.5,1h-21
		C1.224,1,1,1.224,1,1.5V17h2.169C3.763,15.644,5.588,12,8,12c2.005,0,3.653,1.64,4.446,2.601l2.638-4.521
		c0.389-0.664,1.11-1.077,1.882-1.077c0.385,0,0.764,0.103,1.097,0.298c0.366,0.215,0.659,0.529,0.848,0.908L22.309,17H23z
		 M21.19,17l-3.175-6.344c-0.102-0.206-0.261-0.376-0.459-0.492c-0.18-0.105-0.385-0.161-0.593-0.161
		c-0.418,0-0.808,0.223-1.018,0.582l-3.015,5.167c-0.087,0.15-0.243,0.243-0.417,0.248c0,0-0.001,0-0.001,0
		c-0.183,0-0.336-0.083-0.429-0.222C12.066,15.75,10.19,13,8,13c-1.348,0-2.777,2.005-3.729,4H21.19z"/>
	<path d="M6.5,9C6.254,9,6.013,8.955,5.783,8.867C4.754,8.471,4.239,7.311,4.635,6.282C4.93,5.515,5.681,5,6.503,5
		c0.058,0,0.115,0.003,0.173,0.008C7.091,3.819,8.221,3.004,9.499,3C11.154,3,12.5,4.346,12.5,6s-1.346,3-3,3H6.5z M6.503,6
		C6.091,6,5.716,6.258,5.568,6.641C5.37,7.156,5.628,7.735,6.143,7.933C6.257,7.978,6.377,8,6.5,8h3c1.103,0,2-0.897,2-2
		c0-1.103-0.897-2-1.999-2c-0.982,0.003-1.81,0.71-1.967,1.68C7.509,5.829,7.42,5.958,7.289,6.033C7.213,6.077,7.127,6.1,7.04,6.1
		c-0.062,0-0.122-0.011-0.179-0.033C6.746,6.022,6.625,6,6.503,6z"/>
</g>
</svg>
