<?xml version="1.0" encoding="utf-8"?>
<!-- Generator: Adobe Illustrator 22.1.0, SVG Export Plug-In . SVG Version: 6.00 Build 0)  -->
<svg version="1.1" id="Layer_1" xmlns="http://www.w3.org/2000/svg" xmlns:xlink="http://www.w3.org/1999/xlink" x="0px" y="0px"
	 viewBox="0 0 24 24" style="enable-background:new 0 0 24 24;" xml:space="preserve">
<g>
	<title>picture-polaroid-human</title>
	<path d="M1.5,19C0.673,19,0,18.327,0,17.5v-16C0,0.673,0.673,0,1.5,0h16C18.327,0,19,0.673,19,1.5v16c0,0.827-0.673,1.5-1.5,1.5
		H1.5z M1,17.5C1,17.776,1.224,18,1.5,18h16c0.276,0,0.5-0.224,0.5-0.5V16H1V17.5z M18,15V1.5C18,1.224,17.776,1,17.5,1h-16
		C1.224,1,1,1.224,1,1.5V15h1.523c0.062-0.828,0.257-1.633,0.582-2.396c0.467-0.936,1.912-1.468,3.912-2.203l0.505-0.186
		c0.014-0.02,0.041-0.07,0.066-0.163c0.106-0.403,0.02-0.902-0.032-1.016C6.677,8.075,6.24,6.783,6.353,5.484
		c-0.068-0.84,0.189-1.66,0.726-2.312c0.548-0.665,1.322-1.076,2.18-1.159C9.335,2.007,9.411,2.002,9.488,2C9.49,2,9.498,2,9.5,2
		c0.869,0.021,1.675,0.377,2.269,1.001c0.594,0.624,0.909,1.442,0.888,2.303c-0.001,0.06-0.005,0.12-0.01,0.18
		c0.114,1.299-0.324,2.592-1.204,3.555c-0.052,0.115-0.137,0.613-0.031,1.015c0.024,0.092,0.052,0.143,0.066,0.163l0.489,0.18
		c2.009,0.739,3.461,1.273,3.916,2.18c0.334,0.784,0.532,1.594,0.594,2.423H18z M15.475,15c-0.06-0.689-0.228-1.362-0.5-2.003
		c-0.264-0.526-1.765-1.078-3.354-1.662l-0.513-0.189c-0.23-0.085-0.534-0.306-0.672-0.873c-0.13-0.53-0.096-1.506,0.253-1.892
		c0.711-0.771,1.06-1.808,0.958-2.848c-0.003-0.031-0.003-0.063,0-0.095c0.005-0.054,0.008-0.106,0.01-0.159
		C11.687,4.055,10.718,3.034,9.495,3c-0.041,0.001-0.09,0.005-0.14,0.009C8.763,3.066,8.229,3.35,7.851,3.809
		C7.473,4.267,7.296,4.845,7.353,5.437c0.003,0.033,0.003,0.065,0,0.097C7.251,6.573,7.599,7.609,8.307,8.377
		c0.352,0.389,0.386,1.365,0.256,1.895c-0.139,0.567-0.442,0.788-0.672,0.873L7.362,11.34c-1.581,0.581-3.073,1.129-3.35,1.684
		C3.749,13.645,3.584,14.312,3.524,15H15.475z"/>
	<path d="M19.343,24c-0.099,0-0.2-0.01-0.299-0.03l-14.8-2.98c-0.27-0.055-0.446-0.319-0.392-0.589C3.9,20.169,4.105,20,4.342,20
		c0.034,0,0.068,0.003,0.101,0.01l14.799,2.98c0.033,0.007,0.067,0.01,0.1,0.01c0.098,0,0.193-0.029,0.276-0.084
		c0.111-0.074,0.187-0.187,0.213-0.317c0.001-0.006,0.004-0.019,0.006-0.025L22.99,6.913c0.055-0.27-0.12-0.534-0.39-0.59
		l-2.198-0.441c-0.27-0.054-0.446-0.318-0.392-0.589c0.047-0.233,0.253-0.402,0.49-0.402c0.032,0,0.065,0.003,0.097,0.01
		l2.201,0.442c0.81,0.166,1.335,0.958,1.172,1.767l-3.159,15.684c-0.001,0.006-0.004,0.019-0.006,0.025
		c-0.077,0.374-0.304,0.709-0.635,0.928C19.924,23.913,19.638,24,19.343,24z"/>
</g>
</svg>
