<?xml version="1.0" encoding="utf-8"?>
<!-- Generator: Adobe Illustrator 22.1.0, SVG Export Plug-In . SVG Version: 6.00 Build 0)  -->
<svg version="1.1" id="Layer_1" xmlns="http://www.w3.org/2000/svg" xmlns:xlink="http://www.w3.org/1999/xlink" x="0px" y="0px"
	 viewBox="0 0 24 24" style="enable-background:new 0 0 24 24;" xml:space="preserve">
<g>
	<title>picture-stack-landscape</title>
	<path d="M5.5,24C5.224,24,5,23.776,5,23.5S5.224,23,5.5,23h17c0.276,0,0.5-0.224,0.5-0.5v-17C23,5.224,23.224,5,23.5,5
		S24,5.224,24,5.5v17c0,0.827-0.673,1.5-1.5,1.5H5.5z"/>
	<path d="M2.5,22C2.224,22,2,21.776,2,21.5S2.224,21,2.5,21h18c0.276,0,0.5-0.224,0.5-0.5v-18C21,2.224,21.224,2,21.5,2
		S22,2.224,22,2.5v18c0,0.827-0.673,1.5-1.5,1.5H2.5z"/>
	<path d="M1.5,20C0.673,20,0,19.327,0,18.5v-17C0,0.673,0.673,0,1.5,0h17C19.327,0,20,0.673,20,1.5v17c0,0.827-0.673,1.5-1.5,1.5
		H1.5z M1,18.5C1,18.776,1.224,19,1.5,19h17c0.276,0,0.5-0.224,0.5-0.5V16H1V18.5z M19,15V1.5C19,1.224,18.776,1,18.5,1h-17
		C1.224,1,1,1.224,1,1.5V15h3.217l2.334-3.89c0.08-0.165,0.219-0.323,0.384-0.435c0.193-0.131,0.419-0.2,0.652-0.2
		c0.384,0,0.742,0.187,0.959,0.501l1.348,1.616l2.211-4.422C12.386,7.609,12.787,7.525,13,7.525s0.614,0.084,0.894,0.645L19,15z
		 M16.191,15L13,8.618l-2.553,5.106c-0.076,0.151-0.221,0.253-0.39,0.273C10.04,13.999,10.019,14,9.998,14
		c-0.147,0-0.286-0.065-0.382-0.18l-1.86-2.233c-0.055-0.078-0.112-0.112-0.173-0.112c-0.032,0-0.061,0.009-0.088,0.027
		c-0.024,0.016-0.044,0.04-0.057,0.067L5.383,15H16.191z"/>
	<path d="M6,7C4.897,7,4,6.103,4,5s0.897-2,2-2s2,0.897,2,2S7.103,7,6,7z M6,4C5.449,4,5,4.449,5,5s0.449,1,1,1s1-0.449,1-1
		S6.551,4,6,4z"/>
</g>
</svg>
