<?xml version="1.0" encoding="utf-8"?>
<!-- Generator: Adobe Illustrator 22.1.0, SVG Export Plug-In . SVG Version: 6.00 Build 0)  -->
<svg version="1.1" id="Light" xmlns="http://www.w3.org/2000/svg" xmlns:xlink="http://www.w3.org/1999/xlink" x="0px" y="0px"
	 viewBox="0 0 24 24" style="enable-background:new 0 0 24 24;" xml:space="preserve">
<g>
	<title>multiple-users-3</title>
	<path d="M14.25,16.75c-0.134,0-0.259-0.052-0.354-0.146L12,14.707l-1.896,1.896c-0.094,0.094-0.22,0.146-0.354,0.146
		s-0.259-0.052-0.354-0.146S9.25,16.384,9.25,16.25s0.052-0.259,0.146-0.354l2.104-2.104V11.5c0-0.276,0.224-0.5,0.5-0.5
		c0.276,0,0.5,0.224,0.5,0.5v2.293l2.104,2.104c0.094,0.094,0.146,0.22,0.146,0.354s-0.052,0.259-0.146,0.354
		S14.384,16.75,14.25,16.75z"/>
	<path d="M12,5.5c-1.516,0-2.75-1.234-2.75-2.75S10.484,0,12,0s2.75,1.234,2.75,2.75S13.516,5.5,12,5.5z M12,1
		c-0.965,0-1.75,0.785-1.75,1.75S11.035,4.5,12,4.5c0.965,0,1.75-0.785,1.75-1.75S12.965,1,12,1z"/>
	<path d="M7.5,10c-0.155,0-0.299-0.07-0.395-0.193c-0.096-0.123-0.128-0.28-0.09-0.431c0.465-1.825,1.888-3.248,3.713-3.713
		c0.417-0.106,0.844-0.16,1.271-0.16c2.353,0,4.403,1.593,4.984,3.874c0.038,0.151,0.006,0.308-0.089,0.43
		C16.801,9.928,16.653,10,16.5,10H7.5z M15.803,9c-0.65-1.507-2.138-2.497-3.804-2.497c-0.343,0-0.688,0.043-1.023,0.129
		C9.721,6.952,8.704,7.825,8.197,9H15.803z"/>
	<path d="M5,19.5c-1.516,0-2.75-1.234-2.75-2.75S3.484,14,5,14s2.75,1.234,2.75,2.75S6.516,19.5,5,19.5z M5,15
		c-0.965,0-1.75,0.785-1.75,1.75S4.035,18.5,5,18.5s1.75-0.785,1.75-1.75S5.965,15,5,15z"/>
	<path d="M0.5,24c-0.156,0-0.3-0.071-0.395-0.193c-0.094-0.121-0.128-0.282-0.089-0.43c0.465-1.825,1.888-3.248,3.713-3.713
		c0.42-0.107,0.851-0.162,1.28-0.162c0.916,0,1.821,0.25,2.617,0.722c1.182,0.702,2.019,1.821,2.359,3.153
		c0.038,0.148,0.004,0.309-0.09,0.43C9.8,23.929,9.656,24,9.5,24H0.5z M8.803,23c-0.344-0.796-0.934-1.468-1.688-1.916
		c-0.642-0.381-1.37-0.583-2.108-0.583c-0.345,0-0.693,0.044-1.032,0.13C2.721,20.952,1.704,21.825,1.197,23H8.803z"/>
	<path d="M19,19.5c-1.516,0-2.75-1.234-2.75-2.75S17.484,14,19,14s2.75,1.234,2.75,2.75S20.516,19.5,19,19.5z M19,15
		c-0.965,0-1.75,0.785-1.75,1.75S18.035,18.5,19,18.5s1.75-0.785,1.75-1.75S19.965,15,19,15z"/>
	<path d="M14.5,24c-0.153,0-0.301-0.072-0.395-0.193c-0.094-0.12-0.127-0.281-0.089-0.43c0.465-1.825,1.888-3.248,3.713-3.713
		c0.42-0.107,0.851-0.162,1.279-0.162c0.916,0,1.821,0.25,2.617,0.722c1.182,0.702,2.019,1.821,2.359,3.153
		c0.038,0.149,0.004,0.31-0.09,0.43C23.801,23.928,23.653,24,23.5,24H14.5z M22.803,23c-0.344-0.796-0.934-1.468-1.688-1.916
		c-0.642-0.381-1.371-0.583-2.108-0.583c-0.345,0-0.692,0.044-1.031,0.13c-1.255,0.32-2.272,1.194-2.779,2.368H22.803z"/>
</g>
</svg>
