<?xml version="1.0" encoding="utf-8"?>
<!-- Generator: Adobe Illustrator 22.1.0, SVG Export Plug-In . SVG Version: 6.00 Build 0)  -->
<svg version="1.1" id="Light" xmlns="http://www.w3.org/2000/svg" xmlns:xlink="http://www.w3.org/1999/xlink" x="0px" y="0px"
	 viewBox="0 0 24 24" style="enable-background:new 0 0 24 24;" xml:space="preserve">
<g>
	<title>multiple-man-woman-2</title>
	<path d="M16.507,12.516c-0.76,0-1.523-0.188-2.206-0.545c-0.244-0.128-0.339-0.43-0.212-0.674c0.087-0.166,0.257-0.269,0.443-0.269
		c0.08,0,0.16,0.02,0.231,0.057c0.54,0.282,1.143,0.431,1.743,0.431c1.094,0,2.133-0.484,2.849-1.327
		c0.549-0.646,0.858-1.45,0.886-2.292c-0.739,0.242-1.494,0.364-2.25,0.364l-0.078,0c-1.505,0-2.955-0.442-4.199-1.277
		c-0.229-0.154-0.29-0.465-0.136-0.694c0.093-0.139,0.248-0.222,0.415-0.222c0.1,0,0.196,0.03,0.279,0.085
		c1.078,0.724,2.335,1.107,3.635,1.107c0.004,0,0.023,0,0.027,0c0.747,0,1.491-0.131,2.205-0.389
		c-0.185-0.77-0.603-1.447-1.215-1.967c-0.676-0.574-1.537-0.89-2.425-0.89c-1.105,0-2.147,0.481-2.86,1.32
		C13.546,5.445,13.407,5.51,13.26,5.51l0,0c-0.118,0-0.233-0.042-0.323-0.119c-0.102-0.087-0.164-0.208-0.175-0.341
		c-0.011-0.133,0.031-0.263,0.117-0.365c0.903-1.062,2.223-1.672,3.623-1.672c1.125,0,2.215,0.401,3.071,1.128
		c0.871,0.74,1.445,1.772,1.616,2.906c0.013,0.047,0.02,0.094,0.019,0.142l0.007,0.051c0.007,0.045,0.013,0.089,0.017,0.135
		c0.103,1.265-0.293,2.494-1.115,3.46C19.21,11.904,17.894,12.516,16.507,12.516z"/>
	<path d="M17,21.01c-0.276,0-0.5-0.224-0.5-0.5s0.224-0.5,0.5-0.5h5.98c-0.035-0.456-0.119-0.908-0.25-1.348
		c-0.494-1.666-1.608-3.039-3.136-3.867c-0.952-0.516-2.021-0.789-3.09-0.789c-0.627,0-1.253,0.092-1.862,0.273
		c-0.048,0.014-0.095,0.02-0.143,0.02c-0.223,0-0.415-0.143-0.479-0.357c-0.038-0.129-0.024-0.264,0.04-0.381
		c0.064-0.118,0.169-0.203,0.297-0.241c0.702-0.208,1.424-0.314,2.147-0.314c1.234,0,2.468,0.314,3.566,0.91
		c1.762,0.955,3.048,2.539,3.619,4.461C23.895,19.07,24,19.787,24,20.51c0,0.132-0.053,0.261-0.146,0.354
		c-0.094,0.094-0.22,0.146-0.354,0.146H17z"/>
	<path d="M0.5,21.012c-0.276,0-0.5-0.224-0.5-0.5c0-4.135,3.365-7.5,7.5-7.5s7.5,3.365,7.5,7.5c0,0.276-0.224,0.5-0.5,0.5H0.5z
		 M13.981,20.012c-0.255-3.385-3.054-6-6.481-6s-6.226,2.615-6.481,6H13.981z"/>
	<path d="M7.502,12.611c-0.066,0-0.132-0.001-0.199-0.005c-1.622-0.074-3-1.026-3.665-2.411c-0.122,0.763-0.393,1.502-0.803,2.175
		c-0.091,0.15-0.251,0.24-0.427,0.24c0,0,0,0,0,0c-0.091,0-0.181-0.025-0.26-0.073c-0.236-0.143-0.311-0.452-0.167-0.687
		c0.51-0.837,0.761-1.797,0.727-2.777l0-0.486C2.705,8.573,2.7,8.548,2.7,8.517c0-0.029,0.004-0.053,0.008-0.07v-0.64
		c-0.005-0.116-0.005-0.256,0-0.392C2.82,4.839,4.924,2.821,7.499,2.821c0.07,0,0.141,0.001,0.212,0.005
		c1.281,0.055,2.463,0.606,3.33,1.551c0.867,0.945,1.313,2.171,1.258,3.451l0,1.228c-0.034,0.994,0.217,1.957,0.727,2.794
		c0.144,0.236,0.069,0.544-0.167,0.687c-0.079,0.048-0.169,0.073-0.26,0.073c-0.176,0-0.336-0.09-0.427-0.24
		c-0.413-0.678-0.684-1.423-0.805-2.197C10.675,11.628,9.196,12.611,7.502,12.611z M4.267,8.922c0.274,1.5,1.534,2.614,3.082,2.686
		c0.053,0.003,0.105,0.004,0.158,0.004c1.593,0,2.94-1.141,3.225-2.69C9.516,8.707,8.385,8.131,7.5,7.274
		C6.615,8.131,5.483,8.708,4.267,8.922z M7.5,6.051c0.148,0,0.286,0.062,0.378,0.169C8.747,7.225,9.982,7.862,11.3,7.991V7.807
		c0.044-1.032-0.31-2.006-0.996-2.754C9.618,4.305,8.682,3.869,7.668,3.825c-0.055-0.002-0.11-0.004-0.165-0.004
		c-2.04,0-3.707,1.597-3.795,3.636c-0.005,0.109-0.005,0.219,0,0.328l0,0.205C5.023,7.86,6.255,7.223,7.122,6.22
		C7.214,6.113,7.352,6.051,7.5,6.051z"/>
</g>
</svg>
