<?xml version="1.0" encoding="utf-8"?>
<!-- Generator: Adobe Illustrator 22.1.0, SVG Export Plug-In . SVG Version: 6.00 Build 0)  -->
<svg version="1.1" id="Light" xmlns="http://www.w3.org/2000/svg" xmlns:xlink="http://www.w3.org/1999/xlink" x="0px" y="0px"
	 viewBox="0 0 24 24" style="enable-background:new 0 0 24 24;" xml:space="preserve">
<g>
	<title>multiple-woman</title>
	<path d="M21.6,12.61c-0.176,0-0.336-0.09-0.427-0.24c-0.413-0.679-0.685-1.426-0.805-2.201c-0.236,0.496-0.568,0.945-0.98,1.321
		c-0.792,0.721-1.816,1.118-2.884,1.118c-0.069,0-0.137-0.001-0.206-0.005c-0.669-0.031-1.33-0.222-1.913-0.552
		c-0.116-0.066-0.2-0.173-0.235-0.302c-0.036-0.129-0.019-0.264,0.047-0.38c0.088-0.156,0.255-0.254,0.435-0.254
		c0.086,0,0.171,0.022,0.246,0.065c0.447,0.253,0.955,0.4,1.468,0.424c0.053,0.003,0.107,0.004,0.16,0.004
		c0.818,0,1.602-0.304,2.21-0.857c0.53-0.483,0.886-1.125,1.016-1.828c-1.216-0.214-2.347-0.791-3.232-1.649
		c-0.522,0.502-1.138,0.918-1.794,1.212C14.64,8.514,14.571,8.529,14.5,8.529c-0.197,0-0.376-0.116-0.456-0.296
		c-0.054-0.121-0.059-0.257-0.011-0.382c0.048-0.125,0.141-0.224,0.263-0.278c0.695-0.311,1.327-0.78,1.828-1.354
		c0.094-0.109,0.232-0.172,0.377-0.172c0.146,0,0.284,0.063,0.379,0.173c0.868,1.005,2.103,1.642,3.421,1.771V7.807
		c-0.003-2.091-1.708-3.793-3.8-3.793c-1.005,0.002-1.948,0.388-2.661,1.087c-0.094,0.092-0.219,0.143-0.35,0.143
		c-0.136,0-0.262-0.053-0.357-0.15c-0.093-0.095-0.144-0.221-0.143-0.355c0.001-0.134,0.054-0.259,0.15-0.352
		c0.901-0.883,2.092-1.371,3.353-1.373c2.65,0,4.803,2.15,4.808,4.792v1.25c-0.033,0.994,0.218,1.957,0.727,2.794
		c0.143,0.235,0.068,0.543-0.167,0.687C21.782,12.585,21.692,12.61,21.6,12.61z"/>
	<path d="M17,21.01c-0.276,0-0.5-0.224-0.5-0.5s0.224-0.5,0.5-0.5h5.98c-0.035-0.456-0.119-0.908-0.25-1.347
		c-0.495-1.666-1.608-3.039-3.136-3.867c-0.952-0.516-2.021-0.789-3.09-0.789c-0.627,0-1.253,0.092-1.861,0.273
		c-0.048,0.014-0.095,0.02-0.142,0.02c-0.223,0-0.416-0.143-0.479-0.357c-0.038-0.129-0.024-0.264,0.04-0.381
		c0.064-0.118,0.169-0.203,0.297-0.241c0.696-0.206,1.414-0.311,2.133-0.311c3.299,0,6.26,2.208,7.199,5.368
		C23.895,19.07,24,19.787,24,20.509c0,0.132-0.053,0.261-0.146,0.354c-0.094,0.094-0.22,0.146-0.354,0.146H17z"/>
	<path d="M0.5,21.012c-0.276,0-0.5-0.224-0.5-0.5c0-4.135,3.365-7.5,7.5-7.5s7.5,3.365,7.5,7.5c0,0.276-0.224,0.5-0.5,0.5H0.5z
		 M13.981,20.012c-0.255-3.385-3.054-6-6.481-6s-6.226,2.615-6.481,6H13.981z"/>
	<path d="M12.6,12.61c-0.173,0-0.337-0.092-0.427-0.24c-0.414-0.68-0.686-1.429-0.806-2.206C10.673,11.617,9.194,12.6,7.502,12.6
		c-0.07,0-0.14-0.002-0.211-0.005c-1.614-0.079-2.989-1.03-3.653-2.411c-0.121,0.767-0.392,1.509-0.804,2.186
		c-0.092,0.15-0.251,0.24-0.427,0.24c-0.092,0-0.181-0.025-0.26-0.073c-0.114-0.069-0.194-0.179-0.226-0.309
		C1.89,12.098,1.91,11.964,1.98,11.85c0.509-0.837,0.761-1.798,0.727-2.777l0-0.491C2.704,8.57,2.7,8.545,2.7,8.517
		c0-0.015,0.003-0.04,0.007-0.062V7.807c-0.005-0.108-0.005-0.238,0-0.367c0.104-2.583,2.209-4.606,4.791-4.606
		c0.066,0,0.132,0.001,0.199,0.004c2.644,0.107,4.709,2.345,4.602,4.99l0,1.229c-0.033,0.994,0.218,1.957,0.727,2.794
		c0.069,0.114,0.09,0.248,0.059,0.378c-0.032,0.13-0.112,0.239-0.226,0.309C12.782,12.585,12.692,12.61,12.6,12.61z M4.269,8.921
		c0.277,1.49,1.533,2.6,3.071,2.675C7.396,11.599,7.452,11.6,7.508,11.6c1.587,0,2.932-1.136,3.221-2.679
		C9.515,8.707,8.384,8.13,7.5,7.274C6.615,8.13,5.484,8.707,4.269,8.921z M7.5,6.047c0.146,0,0.283,0.063,0.379,0.173
		C8.747,7.225,9.982,7.862,11.3,7.991V7.807c0.085-2.109-1.55-3.886-3.643-3.97C7.605,3.834,7.554,3.833,7.503,3.833
		c-2.046,0-3.714,1.602-3.797,3.647c-0.004,0.102-0.004,0.204,0,0.307l0,0.203C5.022,7.859,6.255,7.223,7.122,6.22
		C7.217,6.11,7.355,6.047,7.5,6.047z"/>
</g>
</svg>
