<?xml version="1.0" encoding="utf-8"?>
<!-- Generator: Adobe Illustrator 22.1.0, SVG Export Plug-In . SVG Version: 6.00 Build 0)  -->
<svg version="1.1" id="Layer_1" xmlns="http://www.w3.org/2000/svg" xmlns:xlink="http://www.w3.org/1999/xlink" x="0px" y="0px"
	 viewBox="0 0 24 24" style="enable-background:new 0 0 24 24;" xml:space="preserve">
<g>
	<title>navigation-menu-horizontal-2</title>
	<path d="M7,13.75c-0.965,0-1.75-0.785-1.75-1.75c0-0.965,0.785-1.75,1.75-1.75S8.75,11.035,8.75,12
		C8.75,12.965,7.965,13.75,7,13.75z M7,11.25c-0.414,0-0.75,0.336-0.75,0.75S6.586,12.75,7,12.75S7.75,12.414,7.75,12
		S7.414,11.25,7,11.25z"/>
	<path d="M12,13.75c-0.965,0-1.75-0.785-1.75-1.75c0-0.965,0.785-1.75,1.75-1.75c0.965,0,1.75,0.785,1.75,1.75
		C13.75,12.965,12.965,13.75,12,13.75z M12,11.25c-0.414,0-0.75,0.336-0.75,0.75s0.336,0.75,0.75,0.75s0.75-0.336,0.75-0.75
		S12.414,11.25,12,11.25z"/>
	<path d="M17,13.75c-0.965,0-1.75-0.785-1.75-1.75c0-0.965,0.785-1.75,1.75-1.75s1.75,0.785,1.75,1.75
		C18.75,12.965,17.965,13.75,17,13.75z M17,11.25c-0.414,0-0.75,0.336-0.75,0.75s0.336,0.75,0.75,0.75s0.75-0.336,0.75-0.75
		S17.414,11.25,17,11.25z"/>
	<path d="M2.5,24C1.121,24,0,22.878,0,21.5v-19C0,1.121,1.121,0,2.5,0h19C22.878,0,24,1.121,24,2.5v19c0,1.378-1.122,2.5-2.5,2.5
		H2.5z M2.5,1C1.673,1,1,1.673,1,2.5v19C1,22.327,1.673,23,2.5,23h19c0.827,0,1.5-0.673,1.5-1.5v-19C23,1.673,22.327,1,21.5,1H2.5z"
		/>
</g>
</svg>
