<?xml version="1.0" encoding="utf-8"?>
<!-- Generator: Adobe Illustrator 22.1.0, SVG Export Plug-In . SVG Version: 6.00 Build 0)  -->
<svg version="1.1" id="Layer_1" xmlns="http://www.w3.org/2000/svg" xmlns:xlink="http://www.w3.org/1999/xlink" x="0px" y="0px"
	 viewBox="0 0 24 24" style="enable-background:new 0 0 24 24;" xml:space="preserve">
<g>
	<title>navigation-menu</title>
	<path d="M3,7.5C2.724,7.5,2.5,7.276,2.5,7S2.724,6.5,3,6.5h18c0.276,0,0.5,0.224,0.5,0.5S21.276,7.5,21,7.5H3z"/>
	<path d="M3,12.5c-0.276,0-0.5-0.224-0.5-0.5c0-0.276,0.224-0.5,0.5-0.5h18c0.276,0,0.5,0.224,0.5,0.5c0,0.276-0.224,0.5-0.5,0.5H3z
		"/>
	<path d="M3,17.5c-0.276,0-0.5-0.224-0.5-0.5s0.224-0.5,0.5-0.5h18c0.276,0,0.5,0.224,0.5,0.5s-0.224,0.5-0.5,0.5H3z"/>
</g>
</svg>
