<?xml version="1.0" encoding="utf-8"?>
<!-- Generator: Adobe Illustrator 22.1.0, SVG Export Plug-In . SVG Version: 6.00 Build 0)  -->
<svg version="1.1" id="Layer_1" xmlns="http://www.w3.org/2000/svg" xmlns:xlink="http://www.w3.org/1999/xlink" x="0px" y="0px"
	 viewBox="0 0 24 24" style="enable-background:new 0 0 24 24;" xml:space="preserve">
<title>pin-2</title>
<g>
	<path d="M0.75,23.999c-0.2,0-0.389-0.078-0.53-0.22C0.078,23.638,0,23.449,0,23.249s0.078-0.389,0.22-0.53l11.759-11.759
		C11.023,9.764,10.5,8.283,10.5,6.749c0-3.722,3.028-6.75,6.75-6.75S24,3.027,24,6.749s-3.028,6.75-6.75,6.75
		c-1.534,0-3.015-0.523-4.21-1.479L1.28,23.779C1.139,23.921,0.95,23.999,0.75,23.999z M17.25,1.499c-2.895,0-5.25,2.355-5.25,5.25
		s2.355,5.25,5.25,5.25s5.25-2.355,5.25-5.25S20.145,1.499,17.25,1.499z"/>
	<path d="M14.25,8.25c-0.414,0-0.75-0.336-0.75-0.75c0-1.202,0.468-2.332,1.317-3.182c0.849-0.85,1.979-1.319,3.182-1.319
		c0.207,0,0.375,0.168,0.375,0.375l0.001,0.75c0,0.099-0.039,0.195-0.11,0.266c-0.07,0.07-0.166,0.11-0.265,0.11
		c-0.802,0-1.555,0.312-2.122,0.879C15.312,5.945,15,6.698,15,7.5C15,7.913,14.664,8.25,14.25,8.25z"/>
</g>
</svg>
