<?xml version="1.0" encoding="utf-8"?>
<!-- Generator: Adobe Illustrator 22.1.0, SVG Export Plug-In . SVG Version: 6.00 Build 0)  -->
<svg version="1.1" id="Layer_1" xmlns="http://www.w3.org/2000/svg" xmlns:xlink="http://www.w3.org/1999/xlink" x="0px" y="0px"
	 viewBox="0 0 24 24" style="enable-background:new 0 0 24 24;" xml:space="preserve">
<g>
	<title>arduino-circuit</title>
	<path d="M2.5,22C1.673,22,1,21.327,1,20.5v-9.586C0.41,10.705,0,10.14,0,9.5v-3c0-0.64,0.41-1.205,1-1.414V3.5
		C1,2.673,1.673,2,2.5,2h18C21.327,2,22,2.673,22,3.5v4.25l1.4,1.05C23.776,9.082,24,9.53,24,10v6c0,0.469-0.224,0.918-0.6,1.2
		L22,18.25v2.25c0,0.827-0.673,1.5-1.5,1.5H2.5z M2,20.5C2,20.776,2.224,21,2.5,21h18c0.276,0,0.5-0.224,0.5-0.5V18
		c0-0.157,0.075-0.306,0.2-0.4l1.6-1.2c0.125-0.094,0.2-0.244,0.2-0.4v-6c0-0.157-0.075-0.306-0.2-0.4l-1.6-1.2
		C21.075,8.306,21,8.157,21,8V3.5C21,3.224,20.776,3,20.5,3h-18C2.224,3,2,3.224,2,3.5V5h1.5C3.776,5,4,5.224,4,5.5v5
		C4,10.776,3.776,11,3.5,11H2V20.5z M1.5,6C1.224,6,1,6.224,1,6.5v3C1,9.776,1.224,10,1.5,10H3V6H1.5z"/>
	<path d="M16.5,19c-0.276,0-0.5-0.224-0.5-0.5V18h-3v0.5c0,0.276-0.224,0.5-0.5,0.5c-0.276,0-0.5-0.224-0.5-0.5V18H9v0.5
		C9,18.776,8.776,19,8.5,19S8,18.776,8,18.5V18H7c-0.551,0-1-0.448-1-1v-1c0-0.552,0.449-1,1-1h1v-0.5C8,14.224,8.224,14,8.5,14
		S9,14.224,9,14.5V15h3v-0.5c0-0.276,0.224-0.5,0.5-0.5c0.276,0,0.5,0.224,0.5,0.5V15h3v-0.5c0-0.276,0.224-0.5,0.5-0.5
		s0.5,0.224,0.5,0.5V15h1c0.552,0,1,0.448,1,1v1c0,0.552-0.448,1-1,1h-1v0.5C17,18.776,16.776,19,16.5,19z M7,17h11v-1H7L7,17z"/>
	<circle cx="17.75" cy="5.75" r="0.75"/>
	<circle cx="17.75" cy="9" r="0.75"/>
	<circle cx="14.25" cy="5.75" r="0.75"/>
	<circle cx="14.25" cy="9" r="0.75"/>
	<path d="M7,10c-0.551,0-1-0.449-1-1V7c0-0.551,0.449-1,1-1h2c0.551,0,1,0.449,1,1v2c0,0.551-0.449,1-1,1H7z M7,9h2V7H7L7,9z"/>
</g>
</svg>
