<svg id="Regular" xmlns="http://www.w3.org/2000/svg" viewBox="0 0 24 24"><defs><style>.cls-1{fill:none;stroke:currentColor;stroke-linecap:round;stroke-linejoin:round;stroke-width:1.5px;}</style></defs><title>single-neutral-shield</title><circle class="cls-1" cx="5.25" cy="3.75" r="3"/><path class="cls-1" d="M7.5,23.25l.75-7.5h1.5v-3a4.5,4.5,0,0,0-9,0v3h1.5L3,23.25Z"/><path class="cls-1" d="M23.25,5.25a7.669,7.669,0,0,1-6,7.5,7.669,7.669,0,0,1-6-7.5v-3a1.5,1.5,0,0,1,1.5-1.5h9a1.5,1.5,0,0,1,1.5,1.5Z"/><line class="cls-1" x1="17.25" y1="4.5" x2="17.25" y2="9"/><line class="cls-1" x1="15" y1="6.75" x2="19.5" y2="6.75"/></svg>