<svg xmlns="http://www.w3.org/2000/svg" viewBox="0 0 24 24"><title>link-broken-2</title><path d="M12,.5A4.505,4.505,0,0,0,7.5,5V8.134a1,1,0,0,0,2,0V5a2.5,2.5,0,0,1,5,0v5.5A2.5,2.5,0,0,1,12,13a1,1,0,0,0,0,2,4.5,4.5,0,0,0,4.5-4.5V5A4.505,4.505,0,0,0,12,.5Z"/><path d="M15.5,15.634a1,1,0,0,0-1,1V19a2.5,2.5,0,0,1-5,0V14A2.5,2.5,0,0,1,12,11.5a1,1,0,0,0,0-2A4.505,4.505,0,0,0,7.5,14v5a4.5,4.5,0,0,0,9,0V16.634A1,1,0,0,0,15.5,15.634Z"/><path d="M5.237,6.883l-1.3-.75a1,1,0,0,0-1,1.733l1.3.75a1,1,0,1,0,1-1.733Z"/><path d="M4,12.5a1,1,0,0,0,0-2H2.5a1,1,0,0,0,0,2Z"/><path d="M4.237,14.383l-1.3.75a1,1,0,0,0,1,1.733l1.3-.75a1,1,0,1,0-1-1.733Z"/><path d="M19.264,8.749a1,1,0,0,0,.5-.133l1.3-.75a1,1,0,1,0-1-1.733l-1.3.75a1,1,0,0,0,.5,1.866Z"/><path d="M21.5,10.5H20a1,1,0,0,0,0,2h1.5a1,1,0,0,0,0-2Z"/><path d="M21.062,15.133l-1.3-.75a1,1,0,1,0-1,1.733l1.3.75a1,1,0,1,0,1-1.733Z"/></svg>