<svg xmlns="http://www.w3.org/2000/svg" viewBox="0 0 24 24"><defs><style>.a{fill:none;stroke:currentColor;stroke-linecap:round;stroke-linejoin:round;stroke-width:1.5px;}</style></defs><title>cellular-network-4g</title><polyline class="a" points="5.363 4.5 8.363 1.5 11.363 4.5"/><line class="a" x1="8.363" y1="1.5" x2="8.363" y2="11.25"/><polyline class="a" points="18.863 8.25 15.863 11.25 12.863 8.25"/><line class="a" x1="15.863" y1="11.25" x2="15.863" y2="1.5"/><line class="a" x1="9.863" y1="22.5" x2="9.863" y2="21"/><path class="a" d="M9.863,21V15.015A8.26,8.26,0,0,0,5.382,21H9.863"/><path class="a" d="M16.613,15h-1.5a2.251,2.251,0,0,0-2.25,2.25v3a2.25,2.25,0,0,0,2.25,2.25h0a2.25,2.25,0,0,0,2.25-2.25V19.5h-1.5"/></svg>