<svg xmlns="http://www.w3.org/2000/svg" viewBox="0 0 24 24"><defs><style>.a{fill:none;stroke:currentColor;stroke-linecap:round;stroke-linejoin:round;stroke-width:1.5px;}</style></defs><title>cellular-network-wifi-5g</title><path class="a" d="M5.363,23.25H7.988a1.874,1.874,0,0,0,1.875-1.875c0-3.333-4.5-.417-4.5-3.75V15.75h4.5"/><path class="a" d="M7.34,11.727a6.75,6.75,0,0,1,9.546,0"/><path class="a" d="M4.158,8.545a11.251,11.251,0,0,1,15.91,0"/><path class="a" d="M23.25,5.363a15.752,15.752,0,0,0-22.274,0"/><path class="a" d="M18.113,15.75h-1.5A2.251,2.251,0,0,0,14.363,18v3a2.25,2.25,0,0,0,2.25,2.25h0A2.25,2.25,0,0,0,18.863,21v-.75h-1.5"/></svg>