<svg xmlns="http://www.w3.org/2000/svg" viewBox="0 0 24 24"><defs><style>.a{fill:none;stroke:currentColor;stroke-linecap:round;stroke-linejoin:round;stroke-width:1.5px;}</style></defs><title>cellular-network-wifi-3g</title><path class="a" d="M6.113,17.25a1.5,1.5,0,0,1,1.5-1.5l1.135.005A1.873,1.873,0,0,1,8.74,19.5a1.873,1.873,0,0,1,.008,3.746l-1.135,0a1.5,1.5,0,0,1-1.5-1.5"/><path class="a" d="M7.34,11.727a6.75,6.75,0,0,1,9.546,0"/><path class="a" d="M4.158,8.545a11.251,11.251,0,0,1,15.91,0"/><path class="a" d="M23.25,5.363a15.752,15.752,0,0,0-22.274,0"/><path class="a" d="M18.113,15.75h-1.5A2.251,2.251,0,0,0,14.363,18v3a2.25,2.25,0,0,0,2.25,2.25h0A2.25,2.25,0,0,0,18.863,21v-.75h-1.5"/></svg>