<svg xmlns="http://www.w3.org/2000/svg" viewBox="0 0 24 24"><title>voice-id-user</title><path d="M1.028,2.5a1,1,0,0,0-1,1v14a1,1,0,0,0,2,0V3.5A1,1,0,0,0,1.028,2.5Z"/><path d="M4.528,6.5a1,1,0,0,0-1,1v6a1,1,0,0,0,2,0v-6A1,1,0,0,0,4.528,6.5Z"/><path d="M8.028,5a1,1,0,0,0-1,1v9a1,1,0,1,0,2,0V6A1,1,0,0,0,8.028,5Z"/><path d="M12.528,1a1,1,0,0,0-2,0V20a1,1,0,0,0,2,0Z"/><path d="M22.028,10.5a1,1,0,0,0,1-1v-6a1,1,0,0,0-2,0v6A1,1,0,0,0,22.028,10.5Z"/><path d="M18.528,9.5a1,1,0,0,0,1-1v-1a1,1,0,0,0-2,0v1A1,1,0,0,0,18.528,9.5Z"/><path d="M15.028,10.5a1,1,0,0,0,1-1V6a1,1,0,1,0-2,0V9.5A1,1,0,0,0,15.028,10.5Z"/><path d="M23.922,22.983a6.126,6.126,0,0,0-3.829-3.677.25.25,0,0,1-.029-.465,4.253,4.253,0,1,0-3.618-.024.25.25,0,0,1-.034.464,6.121,6.121,0,0,0-3.891,3.7.749.749,0,0,0,.7,1.017h10a.75.75,0,0,0,.7-1.017ZM16.028,15a2.145,2.145,0,0,1,.126-.72.252.252,0,0,1,.366-.131A5.648,5.648,0,0,0,19.464,15a5.215,5.215,0,0,0,.764-.056.25.25,0,0,1,.286.266A2.248,2.248,0,0,1,16.028,15Z"/></svg>