<?xml version="1.0" encoding="utf-8"?>
<!-- Generator: Adobe Illustrator 22.1.0, SVG Export Plug-In . SVG Version: 6.00 Build 0)  -->
<svg version="1.1" id="Layer_1" xmlns="http://www.w3.org/2000/svg" xmlns:xlink="http://www.w3.org/1999/xlink" x="0px" y="0px"
	 viewBox="0 0 24 24" style="enable-background:new 0 0 24 24;" xml:space="preserve">
<title>ranking-winner-medal</title>
<g>
	<path d="M10.5,20.25c-0.414,0-0.75-0.336-0.75-0.75s0.336-0.75,0.75-0.75h0.75v-4.5H10.5c-0.414,0-0.75-0.336-0.75-0.75
		s0.336-0.75,0.75-0.75h0.75c0.827,0,1.5,0.673,1.5,1.5v4.5h0.75c0.414,0,0.75,0.336,0.75,0.75s-0.336,0.75-0.75,0.75H10.5z"/>
	<path d="M12,24c-4.135,0-7.5-3.365-7.5-7.5c0-0.94,0.172-1.856,0.512-2.724L0.108,5.637C-0.041,5.39-0.034,5.074,0.126,4.834l3-4.5
		c0.031-0.047,0.068-0.089,0.112-0.131C3.246,0.196,3.269,0.177,3.277,0.17C3.31,0.143,3.341,0.122,3.374,0.103
		c0.019-0.011,0.037-0.021,0.057-0.03C3.466,0.056,3.506,0.041,3.547,0.03c0.007-0.002,0.035-0.01,0.042-0.012
		C3.644,0.006,3.698,0,3.75,0h16.5c0.034,0,0.067,0.004,0.1,0.008c0.047,0.006,0.093,0.017,0.138,0.032
		c0.025,0.009,0.047,0.016,0.069,0.026c0.032,0.015,0.052,0.026,0.073,0.038c0.032,0.019,0.062,0.04,0.091,0.064
		c0.014,0.011,0.028,0.022,0.041,0.034c0.045,0.043,0.082,0.086,0.113,0.132l3,4.5c0.16,0.24,0.167,0.556,0.019,0.803l-4.905,8.138
		c0.34,0.868,0.512,1.784,0.512,2.724C19.5,20.635,16.136,24,12,24z M12,10.5c-3.308,0-6,2.692-6,6s2.692,6,6,6c3.308,0,6-2.692,6-6
		S15.308,10.5,12,10.5z M15.718,9.99c0.975,0.558,1.808,1.323,2.447,2.246l4.198-6.965l-2.07-3.105L15.718,9.99z M5.836,12.235
		c0.639-0.922,1.472-1.688,2.447-2.245L3.708,2.165L1.638,5.27L5.836,12.235z M12,9c0.799,0,1.585,0.126,2.339,0.375L18.943,1.5
		H5.057l4.603,7.875C10.415,9.126,11.201,9,12,9z"/>
</g>
</svg>
