<?xml version="1.0" encoding="utf-8"?>
<!-- Generator: Adobe Illustrator 22.1.0, SVG Export Plug-In . SVG Version: 6.00 Build 0)  -->
<svg version="1.1" id="Layer_1" xmlns="http://www.w3.org/2000/svg" xmlns:xlink="http://www.w3.org/1999/xlink" x="0px" y="0px"
	 viewBox="0 0 24 24" style="enable-background:new 0 0 24 24;" xml:space="preserve">
<title>ranking-people-first</title>
<g>
	<path d="M0.75,24C0.336,24,0,23.664,0,23.25v-4.5c0-1.241,1.009-2.25,2.25-2.25H7.5v-3.75c0-1.241,1.009-2.25,2.25-2.25h4.5
		c1.241,0,2.25,1.009,2.25,2.25v3.75h5.25c1.241,0,2.25,1.009,2.25,2.25v4.5c0,0.414-0.336,0.75-0.75,0.75H0.75z M22.5,22.5v-3.75
		c0-0.414-0.336-0.75-0.75-0.75H16.5v4.5H22.5z M15,22.5v-9.75c0-0.414-0.336-0.75-0.75-0.75h-4.5C9.336,12,9,12.336,9,12.75v9.75
		H15z M7.5,22.5V18H2.25c-0.414,0-0.75,0.336-0.75,0.75v3.75H7.5z"/>
	<path d="M12,6.75c-1.861,0-3.375-1.514-3.375-3.375S10.139,0,12,0c1.861,0,3.375,1.514,3.375,3.375S13.861,6.75,12,6.75z M12,1.5
		c-1.034,0-1.875,0.841-1.875,1.875S10.966,5.25,12,5.25s1.875-0.841,1.875-1.875S13.034,1.5,12,1.5z"/>
	<path d="M15.25,9c-0.22,0-0.428-0.096-0.571-0.263c-0.669-0.786-1.647-1.236-2.682-1.236c-0.835,0-1.644,0.298-2.279,0.839
		C9.575,8.46,9.442,8.594,9.32,8.736C9.177,8.904,8.969,9,8.749,9C8.571,9,8.398,8.936,8.262,8.821
		C8.11,8.691,8.017,8.51,8.001,8.31c-0.016-0.2,0.047-0.394,0.177-0.546C8.351,7.56,8.542,7.37,8.745,7.197
		c0.907-0.773,2.061-1.198,3.247-1.198c0.135,0,0.271,0.005,0.407,0.016c1.337,0.107,2.552,0.728,3.42,1.749
		c0.13,0.153,0.193,0.346,0.177,0.546c-0.016,0.2-0.109,0.381-0.261,0.511C15.6,8.936,15.427,9,15.25,9z"/>
	<path d="M23.25,15.75c-0.22,0-0.428-0.096-0.571-0.264c-0.668-0.786-1.643-1.237-2.673-1.237c-0.35,0-0.699,0.052-1.035,0.156
		c-0.073,0.022-0.146,0.033-0.22,0.033c0,0,0,0,0,0c-0.331,0-0.619-0.212-0.717-0.529c-0.101-0.327,0.033-0.671,0.306-0.85
		c-1.022-0.581-1.714-1.681-1.714-2.936c0-1.861,1.514-3.375,3.375-3.375s3.375,1.514,3.375,3.375c0,1.243-0.677,2.332-1.681,2.918
		c0.816,0.292,1.551,0.795,2.126,1.471c0.13,0.152,0.192,0.346,0.176,0.546c-0.016,0.199-0.109,0.381-0.261,0.511
		C23.601,15.687,23.428,15.75,23.25,15.75z M20.001,8.25c-1.034,0-1.875,0.841-1.875,1.875S18.967,12,20.001,12
		s1.875-0.841,1.875-1.875S21.035,8.25,20.001,8.25z"/>
	<path d="M3.999,13.5c-1.861,0-3.375-1.514-3.375-3.375S2.138,6.75,3.999,6.75s3.375,1.514,3.375,3.375S5.86,13.5,3.999,13.5z
		 M3.999,8.25c-1.034,0-1.875,0.841-1.875,1.875S2.965,12,3.999,12s1.875-0.841,1.875-1.875S5.033,8.25,3.999,8.25z"/>
	<path d="M0.75,15.75c-0.179,0-0.352-0.064-0.488-0.18c-0.152-0.13-0.244-0.312-0.26-0.511c-0.016-0.2,0.047-0.394,0.178-0.546
		c0.956-1.118,2.348-1.76,3.819-1.762c0.498,0,0.991,0.075,1.467,0.221c0.395,0.122,0.618,0.542,0.496,0.938
		c-0.098,0.317-0.386,0.529-0.717,0.529c-0.074,0-0.148-0.011-0.219-0.032C4.692,14.302,4.347,14.25,4,14.25
		c-1.031,0.001-2.008,0.453-2.68,1.237C1.178,15.654,0.97,15.75,0.75,15.75z"/>
</g>
</svg>
