<?xml version="1.0" encoding="utf-8"?>
<!-- Generator: Adobe Illustrator 22.1.0, SVG Export Plug-In . SVG Version: 6.00 Build 0)  -->
<svg version="1.1" id="Layer_1" xmlns="http://www.w3.org/2000/svg" xmlns:xlink="http://www.w3.org/1999/xlink" x="0px" y="0px"
	 viewBox="0 0 24 24" style="enable-background:new 0 0 24 24;" xml:space="preserve">
<title>ranking-first</title>
<g>
	<path d="M0.75,18.75C0.336,18.75,0,18.414,0,18v-6c0-1.241,1.009-2.25,2.25-2.25H7.5V7.5c0-1.241,1.009-2.25,2.25-2.25h4.5
		c1.241,0,2.25,1.009,2.25,2.25v3.75h5.25c1.241,0,2.25,1.009,2.25,2.25V18c0,0.414-0.336,0.75-0.75,0.75H0.75z M22.5,17.25V13.5
		c0-0.414-0.336-0.75-0.75-0.75H16.5v4.5H22.5z M15,17.25V7.5c0-0.414-0.336-0.75-0.75-0.75h-4.5C9.336,6.75,9,7.086,9,7.5v9.75H15z
		 M7.5,17.25v-6H2.25c-0.414,0-0.75,0.336-0.75,0.75v5.25H7.5z"/>
	<path d="M4.5,15.375c-0.62,0-1.125-0.505-1.125-1.125c0-0.599,0.469-1.091,1.069-1.121c0.018-0.002,0.039-0.004,0.056-0.004
		c0.62,0,1.125,0.505,1.125,1.125S5.12,15.375,4.5,15.375z"/>
	<circle cx="19.5" cy="15" r="1.125"/>
	<path d="M12,12.75c-0.62,0-1.125-0.505-1.125-1.125c0-0.599,0.468-1.09,1.067-1.121c0,0,0.02-0.002,0.03-0.003
		c0,0-0.014,0.001-0.026,0.002C11.963,10.501,11.984,10.5,12,10.5c0.62,0,1.125,0.505,1.125,1.125S12.62,12.75,12,12.75z"/>
</g>
</svg>
