<?xml version="1.0" encoding="utf-8"?>
<!-- Generator: Adobe Illustrator 22.1.0, SVG Export Plug-In . SVG Version: 6.00 Build 0)  -->
<svg version="1.1" id="Layer_1" xmlns="http://www.w3.org/2000/svg" xmlns:xlink="http://www.w3.org/1999/xlink" x="0px" y="0px"
	 viewBox="0 0 24 24" style="enable-background:new 0 0 24 24;" xml:space="preserve">
<g>
	<title>movies-film</title>
	<path d="M3.5,24C2.673,24,2,23.327,2,22.5v-21C2,0.673,2.673,0,3.5,0h17C21.327,0,22,0.673,22,1.5v21c0,0.827-0.673,1.5-1.5,1.5
		H3.5z M3.5,1C3.224,1,3,1.224,3,1.5v21C3,22.776,3.224,23,3.5,23h17c0.276,0,0.5-0.224,0.5-0.5v-21C21,1.224,20.776,1,20.5,1H3.5z"
		/>
	<path d="M8,11.01c-0.551,0-1-0.449-1-1v-6c0-0.551,0.449-1,1-1h8c0.552,0,1,0.449,1,1v6c0,0.551-0.448,1-1,1H8z M8,10.01h8v-6l-8,0
		L8,10.01z"/>
	<path d="M8,21.01c-0.551,0-1-0.448-1-1v-6c0-0.552,0.449-1,1-1h8c0.552,0,1,0.448,1,1v6c0,0.552-0.448,1-1,1H8z M8,20.01h8v-6l-8,0
		L8,20.01z"/>
	<circle cx="5" cy="4" r="0.75"/>
	<circle cx="5" cy="8" r="0.75"/>
	<circle cx="5" cy="12" r="0.75"/>
	<circle cx="5" cy="16" r="0.75"/>
	<circle cx="5" cy="20" r="0.75"/>
	<circle cx="19" cy="4" r="0.75"/>
	<circle cx="19" cy="8" r="0.75"/>
	<circle cx="19" cy="12" r="0.75"/>
	<circle cx="19" cy="16" r="0.75"/>
	<circle cx="19" cy="20" r="0.75"/>
</g>
</svg>
