<?xml version="1.0" encoding="utf-8"?>
<!-- Generator: Adobe Illustrator 22.1.0, SVG Export Plug-In . SVG Version: 6.00 Build 0)  -->
<svg version="1.1" id="Layer_1" xmlns="http://www.w3.org/2000/svg" xmlns:xlink="http://www.w3.org/1999/xlink" x="0px" y="0px"
	 viewBox="0 0 24 24" style="enable-background:new 0 0 24 24;" xml:space="preserve">
<g>
	<title>password-type</title>
	<path d="M2.5,19C1.121,19,0,17.878,0,16.5v-8C0,7.121,1.121,6,2.5,6h19C22.878,6,24,7.121,24,8.5v8c0,1.378-1.122,2.5-2.5,2.5H2.5z
		 M2.5,7C1.673,7,1,7.673,1,8.5v8C1,17.327,1.673,18,2.5,18h19c0.827,0,1.5-0.673,1.5-1.5v-8C23,7.673,22.327,7,21.5,7H2.5z"/>
	<path d="M14.001,15c-0.134,0-0.259-0.052-0.354-0.146l-1.646-1.646l-1.646,1.646C10.26,14.948,10.135,15,10.001,15
		s-0.259-0.052-0.354-0.146s-0.146-0.22-0.146-0.354s0.052-0.259,0.146-0.354l1.646-1.646l-1.646-1.646
		c-0.094-0.094-0.146-0.22-0.146-0.354s0.052-0.259,0.146-0.354S9.867,10,10.001,10s0.259,0.052,0.354,0.146l1.646,1.646
		l1.646-1.646C13.742,10.052,13.867,10,14.001,10s0.259,0.052,0.354,0.146s0.146,0.22,0.146,0.354s-0.052,0.259-0.146,0.354
		L12.708,12.5l1.646,1.646c0.094,0.094,0.146,0.22,0.146,0.354s-0.052,0.259-0.146,0.354S14.135,15,14.001,15z"/>
	<path d="M7.501,15c-0.134,0-0.259-0.052-0.354-0.146l-1.646-1.646l-1.646,1.646C3.76,14.948,3.635,15,3.501,15
		s-0.259-0.052-0.354-0.146s-0.146-0.22-0.146-0.354s0.052-0.259,0.146-0.354L4.794,12.5l-1.646-1.646
		c-0.094-0.094-0.146-0.22-0.146-0.354s0.052-0.259,0.146-0.354S3.367,10,3.501,10s0.259,0.052,0.354,0.146l1.646,1.646l1.646-1.646
		C7.242,10.052,7.367,10,7.501,10s0.259,0.052,0.354,0.146s0.146,0.22,0.146,0.354s-0.052,0.259-0.146,0.354L6.208,12.5l1.646,1.646
		c0.094,0.094,0.146,0.22,0.146,0.354s-0.052,0.259-0.146,0.354S7.635,15,7.501,15z"/>
	<path d="M16.501,15c-0.276,0-0.5-0.224-0.5-0.5s0.224-0.5,0.5-0.5h4c0.276,0,0.5,0.224,0.5,0.5s-0.224,0.5-0.5,0.5H16.501z"/>
</g>
</svg>
