<?xml version="1.0" encoding="utf-8"?>
<!-- Generator: Adobe Illustrator 22.1.0, SVG Export Plug-In . SVG Version: 6.00 Build 0)  -->
<svg version="1.1" id="Layer_1" xmlns="http://www.w3.org/2000/svg" xmlns:xlink="http://www.w3.org/1999/xlink" x="0px" y="0px"
	 viewBox="0 0 24 24" style="enable-background:new 0 0 24 24;" xml:space="preserve">
<g>
	<title>password-desktop-lock-approved</title>
	<path d="M7.5,24C7.224,24,7,23.776,7,23.5S7.224,23,7.5,23h1.369c0.588-0.901,0.96-1.931,1.085-3H1.5C0.673,20,0,19.327,0,18.5v-17
		C0,0.673,0.673,0,1.5,0h13C14.776,0,15,0.224,15,0.5S14.776,1,14.5,1h-13C1.224,1,1,1.224,1,1.5V16h22v-2.5
		c0-0.276,0.224-0.5,0.5-0.5s0.5,0.224,0.5,0.5v5c0,0.827-0.673,1.5-1.5,1.5h-8.454c0.125,1.07,0.498,2.099,1.085,3H16.5
		c0.276,0,0.5,0.224,0.5,0.5S16.776,24,16.5,24H7.5z M13.967,23c-0.502-0.924-0.819-1.949-0.927-3h-2.08
		c-0.108,1.051-0.425,2.076-0.927,3H13.967z M1,18.5C1,18.776,1.224,19,1.5,19h21c0.276,0,0.5-0.224,0.5-0.5V17H1V18.5z"/>
	<path d="M7.539,10.051c-0.134,0-0.259-0.052-0.354-0.146L5.501,8.22C5.407,8.126,5.355,8,5.355,7.867s0.052-0.259,0.146-0.354
		s0.22-0.146,0.354-0.146s0.259,0.052,0.354,0.146l1.33,1.331l3.858-3.857c0.094-0.094,0.22-0.146,0.354-0.146
		s0.259,0.052,0.354,0.146s0.146,0.22,0.146,0.354c0,0.134-0.052,0.259-0.147,0.354l-4.211,4.21
		C7.798,9.999,7.672,10.051,7.539,10.051z"/>
	<path d="M7.535,12.568c-1.146-0.002-2.221-0.45-3.03-1.261c-0.808-0.811-1.252-1.888-1.25-3.034
		c0.004-2.359,1.927-4.279,4.287-4.279C8.204,3.995,8.86,4.15,9.446,4.44c0.247,0.122,0.348,0.423,0.226,0.67
		C9.587,5.281,9.416,5.388,9.224,5.388c-0.077,0-0.154-0.018-0.223-0.052C8.552,5.113,8.05,4.995,7.548,4.994
		c-1.815,0-3.29,1.472-3.293,3.281c-0.002,0.878,0.339,1.704,0.958,2.326c0.62,0.622,1.444,0.966,2.323,0.967
		c0.882,0,1.706-0.34,2.326-0.958c0.622-0.62,0.966-1.444,0.967-2.323c0-0.275,0.225-0.499,0.5-0.499c0.276,0,0.5,0.225,0.5,0.501
		c-0.002,1.145-0.45,2.221-1.261,3.029c-0.809,0.806-1.883,1.25-3.025,1.25H7.535z"/>
	<path d="M15.5,12c-0.827,0-1.5-0.673-1.5-1.5v-5C14,4.673,14.673,4,15.5,4H16V3c0-1.654,1.346-3,3-3s3,1.346,3,3v1h0.5
		C23.327,4,24,4.673,24,5.5v5c0,0.827-0.673,1.5-1.5,1.5H15.5z M15.5,5C15.224,5,15,5.224,15,5.5v5c0,0.276,0.224,0.5,0.5,0.5h7
		c0.276,0,0.5-0.224,0.5-0.5v-5C23,5.224,22.776,5,22.5,5H15.5z M21,4V3c0-1.103-0.897-2-2-2s-2,0.897-2,2v1H21z"/>
	<path d="M19,9.5c-0.827,0-1.5-0.673-1.5-1.5s0.673-1.5,1.5-1.5s1.5,0.673,1.5,1.5S19.827,9.5,19,9.5z M19,7.5
		c-0.276,0-0.5,0.224-0.5,0.5s0.224,0.5,0.5,0.5s0.5-0.224,0.5-0.5S19.276,7.5,19,7.5z"/>
</g>
</svg>
