<?xml version="1.0" encoding="utf-8"?>
<!-- Generator: Adobe Illustrator 22.1.0, SVG Export Plug-In . SVG Version: 6.00 Build 0)  -->
<svg version="1.1" id="Layer_1" xmlns="http://www.w3.org/2000/svg" xmlns:xlink="http://www.w3.org/1999/xlink" x="0px" y="0px"
	 viewBox="0 0 24 24" style="enable-background:new 0 0 24 24;" xml:space="preserve">
<g>
	<title>programming-book</title>
	<path d="M5.5,24C4.121,24,3,22.878,3,21.5v-19C3,1.121,4.121,0,5.5,0h13C19.327,0,20,0.673,20,1.5v2.586
		c0.59,0.209,1,0.774,1,1.414v17c0,0.827-0.673,1.5-1.5,1.5H5.5z M4,21.5C4,22.327,4.673,23,5.5,23h14c0.276,0,0.5-0.224,0.5-0.5
		v-17C20,5.224,19.776,5,19.5,5h-14C4.951,5,4.428,4.822,4,4.5V21.5z M19,4V1.5C19,1.224,18.776,1,18.5,1h-13C4.673,1,4,1.673,4,2.5
		S4.673,4,5.5,4H17V3.5C17,3.224,16.776,3,16.5,3h-11C5.224,3,5,2.776,5,2.5S5.224,2,5.5,2h11C17.327,2,18,2.673,18,3.5V4H19z"/>
	<path d="M7.5,16.004c-0.134,0-0.259-0.052-0.354-0.146S7,15.637,7,15.504s0.052-0.259,0.146-0.354l2.146-2.146l-2.146-2.146
		C7.052,10.763,7,10.638,7,10.504s0.052-0.259,0.146-0.354s0.22-0.146,0.354-0.146s0.259,0.052,0.354,0.146l2.5,2.5
		c0.094,0.094,0.146,0.22,0.146,0.354s-0.052,0.259-0.146,0.354l-2.5,2.5C7.759,15.952,7.634,16.004,7.5,16.004z"/>
	<path d="M12.5,15.004c-0.276,0-0.5-0.224-0.5-0.5s0.224-0.5,0.5-0.5h4c0.276,0,0.5,0.224,0.5,0.5s-0.224,0.5-0.5,0.5H12.5z"/>
</g>
</svg>
