<svg xmlns="http://www.w3.org/2000/svg" viewBox="0 0 24 24"><defs><style>.a{fill:none;stroke:currentColor;stroke-linecap:round;stroke-linejoin:round;stroke-width:1.5px;}</style></defs><title>video-player-adjust-finger</title><path class="a" d="M9.065,18H2.217A1.5,1.5,0,0,1,.75,16.476V2.274A1.5,1.5,0,0,1,2.217.751H21.783A1.5,1.5,0,0,1,23.25,2.274v14.2"/><line class="a" x1="20.25" y1="14.249" x2="18.75" y2="14.249"/><line class="a" x1="3.75" y1="14.249" x2="9" y2="14.249"/><line class="a" x1="5.25" y1="13.468" x2="5.25" y2="14.968"/><path class="a" d="M9,6.749V4.322a.581.581,0,0,1,.273-.5.508.508,0,0,1,.541.008l4.925,2.426a.593.593,0,0,1,0,.983L9.814,9.667a.508.508,0,0,1-.541.007A.578.578,0,0,1,9,9.176Z"/><path class="a" d="M21.636,23.249l.1-1.122a3,3,0,0,0-2.337-3.2l-3.651-.812V12.374a1.875,1.875,0,0,0-3.75,0v9.205l-1.477-1.108a1.533,1.533,0,0,0-2.146,2.145l.475.633"/></svg>