<svg xmlns="http://www.w3.org/2000/svg" viewBox="0 0 24 24"><defs><style>.a{fill:none;stroke:currentColor;stroke-linecap:round;stroke-linejoin:round;stroke-width:1.5px;}</style></defs><title>video-player-laptop</title><path class="a" d="M2.25,16.125V4.875a1.5,1.5,0,0,1,1.5-1.5h16.5a1.5,1.5,0,0,1,1.5,1.5v11.25"/><path class="a" d="M14.584,16.125a2.976,2.976,0,0,1-5.168,0H.75v1.5a3,3,0,0,0,3,3h16.5a3,3,0,0,0,3-3v-1.5Z"/><path class="a" d="M10.924,7.206a.853.853,0,0,0-.789.033.759.759,0,0,0-.385.652v3.718a.76.76,0,0,0,.385.652.853.853,0,0,0,.789.033l3.489-1.647a.979.979,0,0,0,0-1.794Z"/></svg>