<svg xmlns="http://www.w3.org/2000/svg" viewBox="0 0 24 24"><title>bookmarks-document</title><path d="M24,2.5A1.75,1.75,0,0,0,22.25.749H12a1,1,0,0,0-1,1v8.5a.5.5,0,0,1-.9.3L8.2,8.015a.25.25,0,0,0-.4,0L5.9,10.547a.5.5,0,0,1-.9-.3v-8.5a1,1,0,0,0-1-1H1.75A1.75,1.75,0,0,0,0,2.5v19a1.751,1.751,0,0,0,1.75,1.75h20.5A1.751,1.751,0,0,0,24,21.5ZM4.25,17.749A.75.75,0,0,1,5,17H16.5a.75.75,0,0,1,0,1.5H5A.75.75,0,0,1,4.25,17.749ZM19.5,6.5h-5a.75.75,0,0,1,0-1.5h5a.75.75,0,0,1,0,1.5Zm.75,3.25a.75.75,0,0,1-.75.75h-5a.75.75,0,0,1,0-1.5h5A.75.75,0,0,1,20.25,9.749ZM19.5,13a.75.75,0,0,1,0,1.5H5A.75.75,0,0,1,5,13Z"/></svg>