<svg xmlns="http://www.w3.org/2000/svg" viewBox="0 0 24 24"><title>tags-favorite</title><path d="M19.105,8.413A3.985,3.985,0,0,0,20.091,6V2a2,2,0,0,0-2-2h0L13.833.005a3.945,3.945,0,0,0-2.415,1L.592,11.833a2,2,0,0,0,0,2.829L5.428,19.5a1.976,1.976,0,0,0,1.406.581h.011a1.976,1.976,0,0,0,1.411-.6L9.268,18.45a.5.5,0,0,0,.1-.539,5.02,5.02,0,0,1,6.448-6.578.494.494,0,0,0,.535-.108ZM12.591,5.5a2,2,0,1,1,2,2A2,2,0,0,1,12.591,5.5Z"/><path d="M13.46,12.545a3.524,3.524,0,0,0-1.935,5.965l5.113,5.335a.5.5,0,0,0,.722,0l5.107-5.328a3.525,3.525,0,0,0-4.986-4.985l-.305.3a.25.25,0,0,1-.353,0l-.3-.3A3.5,3.5,0,0,0,13.46,12.545Z"/></svg>