<svg xmlns="http://www.w3.org/2000/svg" viewBox="0 0 24 24"><title>tags-favorite-star-alternate</title><circle cx="17.17" cy="5.999" r="1.5"/><path d="M22.146,15h-2.5a.249.249,0,0,1-.229-.151L18.072,11.73l-.013-.027a1.294,1.294,0,0,0-2.318.027L14.4,14.847a.252.252,0,0,1-.23.151h-2.5a1.231,1.231,0,0,0-1.166.759,1.272,1.272,0,0,0,.32,1.4l2.194,1.955a.25.25,0,0,1,.063.286l-1.223,2.814a1.255,1.255,0,0,0,.314,1.452,1.278,1.278,0,0,0,1.506.166l3.112-1.753a.254.254,0,0,1,.245,0l3.113,1.753a1.3,1.3,0,0,0,.641.172,1.286,1.286,0,0,0,.865-.338,1.255,1.255,0,0,0,.315-1.451L20.739,19.4a.25.25,0,0,1,.063-.286l2.213-1.972a1.264,1.264,0,0,0,.3-1.378A1.234,1.234,0,0,0,22.146,15Z"/><path d="M10.477,21.61l.836-1.924a.09.09,0,0,0-.146-.1l-1.29,1.291a1.027,1.027,0,0,1-1.415,0L2.291,14.706a1,1,0,0,1,0-1.414l11-11A.993.993,0,0,1,14,2H20.67a.5.5,0,0,1,.5.5V9.17a1,1,0,0,1-.293.708L19.62,11.134a.252.252,0,0,0-.053.276l.639,1.482a.252.252,0,0,0,.183.147.254.254,0,0,0,.224-.069l1.678-1.678A2.982,2.982,0,0,0,23.17,9.17V2a2,2,0,0,0-2-2H14a2.978,2.978,0,0,0-2.121.879l-11,11a3,3,0,0,0,0,4.242l6.171,6.172a3,3,0,0,0,3.024.738.249.249,0,0,0,.175-.244A2.755,2.755,0,0,1,10.477,21.61Z"/></svg>