<svg xmlns="http://www.w3.org/2000/svg" viewBox="0 0 24 24"><title>tags-edit-alternate</title><circle cx="17.172" cy="5.999" r="1.5"/><path d="M12.782,20.044a.5.5,0,0,0-.835.216l-.886,3.1a.5.5,0,0,0,.481.638.487.487,0,0,0,.137-.019l3.1-.886A.5.5,0,0,0,15,22.259Z"/><path d="M18.814,13.227a.5.5,0,0,0-.707,0L13.1,18.237a.5.5,0,0,0,0,.707l3,3a.5.5,0,0,0,.707,0l5.011-5.01a.5.5,0,0,0,0-.707Z"/><path d="M9.619,22.949l.544-1.9a.17.17,0,0,0-.284-.167,1.025,1.025,0,0,1-1.414,0L2.293,14.706a1,1,0,0,1,0-1.414l11-11A.993.993,0,0,1,14,2h6.672a.5.5,0,0,1,.5.5V9.17q0,.037,0,.075a.25.25,0,0,0,.25.269h.012a4.171,4.171,0,0,1,1.386.234.248.248,0,0,0,.215-.023.251.251,0,0,0,.117-.181,3.091,3.091,0,0,0,.023-.374V2a2,2,0,0,0-2-2H14a2.978,2.978,0,0,0-2.121.879l-11,11a3,3,0,0,0,0,4.242l6.172,6.172a2.99,2.99,0,0,0,2.121.877c.072,0,.144,0,.216-.008a.248.248,0,0,0,.223-.184Z"/><path d="M19.525,11.809a.5.5,0,0,0-.151.354.507.507,0,0,0,.147.357l3,3a.54.54,0,0,0,.377.123.583.583,0,0,0,.377-.169,2.626,2.626,0,0,0,0-3.707A2.658,2.658,0,0,0,19.525,11.809Z"/></svg>