<svg xmlns="http://www.w3.org/2000/svg" viewBox="0 0 24 24"><title>tags-edit</title><path d="M20.016,6.02V2.034A2,2,0,0,0,18.025.042h0l-4.241,0a3.74,3.74,0,0,0-2.407,1L.583,11.836a2,2,0,0,0,0,2.818L5.4,19.474a1.967,1.967,0,0,0,1.4.58h.011a1.968,1.968,0,0,0,1.406-.595L19.033,8.426A3.775,3.775,0,0,0,20.016,6.02Zm-3.488-.5a1.993,1.993,0,1,1-1.993-1.994A1.993,1.993,0,0,1,16.528,5.522Z"/><path d="M12.779,20.018a.5.5,0,0,0-.831.215l-.883,3.09a.5.5,0,0,0,.479.635.458.458,0,0,0,.137-.019l3.09-.883a.5.5,0,0,0,.215-.831Z"/><path d="M18.791,13.224a.5.5,0,0,0-.705,0l-4.993,4.993a.5.5,0,0,0,0,.705l2.989,2.99a.5.5,0,0,0,.7,0l4.994-4.994a.5.5,0,0,0,0-.7Z"/><path d="M19.5,11.811a.5.5,0,0,0,0,.708l2.99,2.99a.538.538,0,0,0,.376.123.576.576,0,0,0,.376-.169,2.617,2.617,0,0,0,0-3.694A2.649,2.649,0,0,0,19.5,11.811Z"/></svg>