<svg xmlns="http://www.w3.org/2000/svg" viewBox="0 0 24 24"><title>tags-add-alternate</title><circle cx="17.17" cy="5.999" r="1.5"/><path d="M9.9,21.191a.249.249,0,0,0-.32-.114,1.029,1.029,0,0,1-1.118-.2L2.291,14.706a1,1,0,0,1,0-1.414l11-11A1,1,0,0,1,14,2H20.67a.5.5,0,0,1,.5.5V9.17a1,1,0,0,1-.293.708l-.166.166a.249.249,0,0,0,.059.4A8.028,8.028,0,0,1,22,11.257a.25.25,0,0,0,.342-.027,2.927,2.927,0,0,0,.825-2.06V2a2,2,0,0,0-2-2H14a2.98,2.98,0,0,0-2.122.879l-11,11a3,3,0,0,0,0,4.242l6.172,6.172a3.005,3.005,0,0,0,3.57.5.25.25,0,0,0,.076-.373A8.073,8.073,0,0,1,9.9,21.191Z"/><path d="M11,17.5A6.5,6.5,0,1,0,17.5,11,6.508,6.508,0,0,0,11,17.5Zm9-.75a.75.75,0,0,1,0,1.5H18.5a.25.25,0,0,0-.25.25V20a.75.75,0,0,1-1.5,0V18.5a.25.25,0,0,0-.25-.25H15a.75.75,0,1,1,0-1.5h1.5a.25.25,0,0,0,.25-.25V15a.75.75,0,0,1,1.5,0v1.5a.25.25,0,0,0,.25.25Z"/></svg>