<?xml version="1.0" encoding="utf-8"?>
<!-- Generator: Adobe Illustrator 22.1.0, SVG Export Plug-In . SVG Version: 6.00 Build 0)  -->
<svg version="1.1" id="Layer_1" xmlns="http://www.w3.org/2000/svg" xmlns:xlink="http://www.w3.org/1999/xlink" x="0px" y="0px"
	 viewBox="0 0 24 24" style="enable-background:new 0 0 24 24;" xml:space="preserve">
<g>
	<title>app-1</title>
	<path d="M1.5,24.004c-0.827,0-1.5-0.673-1.5-1.5v-21c0-0.827,0.673-1.5,1.5-1.5h21c0.827,0,1.5,0.673,1.5,1.5v21
		c0,0.827-0.673,1.5-1.5,1.5H1.5z M1.5,1.004c-0.276,0-0.5,0.224-0.5,0.5v21c0,0.276,0.224,0.5,0.5,0.5h21
		c0.276,0,0.5-0.224,0.5-0.5v-21c0-0.276-0.224-0.5-0.5-0.5H1.5z"/>
	<path d="M8,20c-0.276,0-0.5-0.224-0.5-0.5v-3.496h-3V19.5C4.5,19.776,4.276,20,4,20s-0.5-0.224-0.5-0.5v-6
		C3.5,12.121,4.621,11,6,11s2.5,1.122,2.5,2.5v6C8.5,19.776,8.276,20,8,20z M7.5,15.004V13.5C7.5,12.673,6.827,12,6,12
		s-1.5,0.673-1.5,1.5v1.504H7.5z"/>
	<path d="M16,20.004c-0.276,0-0.5-0.224-0.5-0.5V11.5c0-0.276,0.224-0.5,0.5-0.5h2c1.378,0,2.5,1.122,2.5,2.5
		c0,1.378-1.122,2.5-2.5,2.5h-1.5v3.504C16.5,19.78,16.276,20.004,16,20.004z M18,15c0.827,0,1.5-0.673,1.5-1.5S18.827,12,18,12
		h-1.5L18,15z"/>
	<path d="M10,20.004c-0.276,0-0.5-0.224-0.5-0.5V11.5c0-0.276,0.224-0.5,0.5-0.5h2c1.378,0,2.5,1.122,2.5,2.5
		c0,1.378-1.122,2.5-2.5,2.5h-1.5v3.504C10.5,19.78,10.276,20.004,10,20.004z M12,15c0.827,0,1.5-0.673,1.5-1.5S12.827,12,12,12
		h-1.5v3H12z"/>
</g>
</svg>
