<?xml version="1.0" encoding="utf-8"?>
<!-- Generator: Adobe Illustrator 22.1.0, SVG Export Plug-In . SVG Version: 6.00 Build 0)  -->
<svg version="1.1" id="Layer_1" xmlns="http://www.w3.org/2000/svg" xmlns:xlink="http://www.w3.org/1999/xlink" x="0px" y="0px"
	 viewBox="0 0 24 24" style="enable-background:new 0 0 24 24;" xml:space="preserve">
<g>
	<title>c-plus-plus-1</title>
	<path d="M1.5,24.004c-0.827,0-1.5-0.673-1.5-1.5v-21c0-0.827,0.673-1.5,1.5-1.5h21c0.827,0,1.5,0.673,1.5,1.5v21
		c0,0.827-0.673,1.5-1.5,1.5H1.5z M1.5,1.004c-0.276,0-0.5,0.224-0.5,0.5v21c0,0.276,0.224,0.5,0.5,0.5h21
		c0.276,0,0.5-0.224,0.5-0.5v-21c0-0.276-0.224-0.5-0.5-0.5H1.5z"/>
	<path d="M11.5,18.004c-0.276,0-0.5-0.224-0.5-0.5v-1.5H9.5c-0.276,0-0.5-0.224-0.5-0.5s0.224-0.5,0.5-0.5H11v-1.5
		c0-0.276,0.224-0.5,0.5-0.5s0.5,0.224,0.5,0.5v1.5h1.5c0.276,0,0.5,0.224,0.5,0.5s-0.224,0.5-0.5,0.5H12v1.5
		C12,17.78,11.776,18.004,11.5,18.004z"/>
	<path d="M17.5,18.004c-0.276,0-0.5-0.224-0.5-0.5v-1.5h-1.5c-0.276,0-0.5-0.224-0.5-0.5s0.224-0.5,0.5-0.5H17v-1.5
		c0-0.276,0.224-0.5,0.5-0.5s0.5,0.224,0.5,0.5v1.5h1.5c0.276,0,0.5,0.224,0.5,0.5s-0.224,0.5-0.5,0.5H18v1.5
		C18,17.78,17.776,18.004,17.5,18.004z"/>
	<path d="M7.5,20C5.019,20,3,17.981,3,15.5C3,13.019,5.019,11,7.5,11C7.776,11,8,11.224,8,11.5S7.776,12,7.5,12
		C5.57,12,4,13.57,4,15.5S5.57,19,7.5,19C7.776,19,8,19.224,8,19.5S7.776,20,7.5,20z"/>
</g>
</svg>
