<?xml version="1.0" encoding="utf-8"?>
<!-- Generator: Adobe Illustrator 22.1.0, SVG Export Plug-In . SVG Version: 6.00 Build 0)  -->
<svg version="1.1" id="Layer_1" xmlns="http://www.w3.org/2000/svg" xmlns:xlink="http://www.w3.org/1999/xlink" x="0px" y="0px"
	 viewBox="0 0 24 24" style="enable-background:new 0 0 24 24;" xml:space="preserve">
<g>
	<title>csv</title>
	<path d="M1.531,19.504c-0.827,0-1.5-0.673-1.5-1.5v-12c0-0.827,0.673-1.5,1.5-1.5h21c0.827,0,1.5,0.673,1.5,1.5v12
		c0,0.827-0.673,1.5-1.5,1.5H1.531z M1.531,5.504c-0.276,0-0.5,0.224-0.5,0.5v12c0,0.276,0.224,0.5,0.5,0.5h21
		c0.276,0,0.5-0.224,0.5-0.5v-12c0-0.276-0.224-0.5-0.5-0.5H1.531z"/>
	<path d="M8.531,15.5c-1.93,0-3.5-1.57-3.5-3.5c0-1.93,1.57-3.5,3.5-3.5c0.276,0,0.5,0.224,0.5,0.5s-0.224,0.5-0.5,0.5
		c-1.379,0-2.5,1.121-2.5,2.5s1.121,2.5,2.5,2.5c0.276,0,0.5,0.224,0.5,0.5S8.807,15.5,8.531,15.5z"/>
	<path d="M10.528,15.5c-0.276,0-0.5-0.224-0.5-0.5s0.224-0.5,0.5-0.5h1.7c0.277,0,0.528-0.135,0.676-0.362
		c0.117-0.178,0.158-0.392,0.114-0.601c-0.043-0.209-0.166-0.389-0.344-0.506l-1.843-1.229c-0.509-0.335-0.812-0.901-0.808-1.514
		C10.029,9.302,10.837,8.5,11.824,8.5h1.707c0.276,0,0.5,0.224,0.5,0.5s-0.224,0.5-0.5,0.5h-1.7c-0.446,0-0.806,0.357-0.808,0.795
		c-0.002,0.272,0.133,0.524,0.36,0.674l1.843,1.229c0.4,0.262,0.674,0.666,0.772,1.137c0.098,0.47,0.006,0.951-0.258,1.354
		c-0.334,0.509-0.897,0.813-1.505,0.813H10.528z"/>
	<path d="M17.031,15.5c-0.157,0-0.306-0.075-0.4-0.2c-1.031-1.375-1.6-3.08-1.6-4.8V9c0-0.276,0.224-0.5,0.5-0.5s0.5,0.224,0.5,0.5
		v1.5c0,1.256,0.353,2.521,1,3.604c0.647-1.083,1-2.348,1-3.604V9c0-0.276,0.224-0.5,0.5-0.5s0.5,0.224,0.5,0.5v1.5
		c0,1.719-0.568,3.424-1.6,4.8C17.337,15.425,17.188,15.5,17.031,15.5z"/>
</g>
</svg>
