<?xml version="1.0" encoding="utf-8"?>
<!-- Generator: Adobe Illustrator 22.1.0, SVG Export Plug-In . SVG Version: 6.00 Build 0)  -->
<svg version="1.1" id="Layer_1" xmlns="http://www.w3.org/2000/svg" xmlns:xlink="http://www.w3.org/1999/xlink" x="0px" y="0px"
	 viewBox="0 0 24 24" style="enable-background:new 0 0 24 24;" xml:space="preserve">
<g>
	<title>file-code-warning</title>
	<circle cx="17.53" cy="20.75" r="0.75"/>
	<path d="M17.53,19.004c-0.276,0-0.5-0.224-0.5-0.5v-3c0-0.276,0.224-0.5,0.5-0.5s0.5,0.224,0.5,0.5v3
		C18.03,18.78,17.805,19.004,17.53,19.004z"/>
	<path d="M12.474,24.004c-0.499,0-0.97-0.263-1.232-0.686c-0.264-0.426-0.282-0.966-0.049-1.41l5.056-9.633
		c0.137-0.257,0.344-0.463,0.597-0.599c0.21-0.112,0.446-0.172,0.682-0.172c0.143,0,0.285,0.021,0.423,0.063
		c0.368,0.112,0.671,0.359,0.854,0.698c0.002,0.005,5.061,9.644,5.061,9.644c0.233,0.443,0.214,0.982-0.048,1.409
		c-0.261,0.424-0.733,0.687-1.231,0.687H12.474z M17.529,12.504c-0.073,0-0.145,0.018-0.211,0.054
		c-0.079,0.042-0.143,0.106-0.185,0.185l-5.054,9.631c-0.069,0.132-0.064,0.292,0.014,0.418c0.081,0.131,0.226,0.212,0.379,0.212
		h10.114c0.155,0,0.301-0.081,0.382-0.212c0.078-0.126,0.083-0.287,0.014-0.418l-5.056-9.633c-0.055-0.104-0.15-0.182-0.265-0.217
		C17.617,12.511,17.573,12.504,17.529,12.504z"/>
	<path d="M1.53,24c-0.827,0-1.5-0.673-1.5-1.5v-21c0-0.827,0.673-1.5,1.5-1.5h13.293c0.399,0.003,0.786,0.167,1.064,0.45
		l3.703,3.696c0.284,0.283,0.44,0.66,0.44,1.061V8.5c0,0.276-0.224,0.5-0.5,0.5s-0.5-0.224-0.5-0.5V5.207
		c0-0.134-0.052-0.259-0.146-0.353l-3.707-3.7C15.081,1.056,14.951,1.001,14.819,1H1.53c-0.276,0-0.5,0.224-0.5,0.5v21
		c0,0.276,0.224,0.5,0.5,0.5h7c0.276,0,0.5,0.224,0.5,0.5S8.805,24,8.53,24H1.53z"/>
	<path d="M3.53,10.004c-0.276,0-0.5-0.224-0.5-0.5v-4c0-0.276,0.224-0.5,0.5-0.5s0.5,0.224,0.5,0.5v4
		C4.03,9.78,3.805,10.004,3.53,10.004z"/>
	<path d="M12.53,10.004c-0.276,0-0.5-0.224-0.5-0.5v-4c0-0.276,0.224-0.5,0.5-0.5c0.276,0,0.5,0.224,0.5,0.5v4
		C13.03,9.78,12.805,10.004,12.53,10.004z"/>
	<path d="M9.53,17.004c-0.276,0-0.5-0.224-0.5-0.5v-4c0-0.276,0.224-0.5,0.5-0.5s0.5,0.224,0.5,0.5v4
		C10.03,16.78,9.805,17.004,9.53,17.004z"/>
	<path d="M15.53,10.004c-0.276,0-0.5-0.224-0.5-0.5v-4c0-0.276,0.224-0.5,0.5-0.5s0.5,0.224,0.5,0.5v4
		C16.03,9.78,15.805,10.004,15.53,10.004z"/>
	<path d="M8.03,10c-1.103,0-2-0.897-2-2V7c0-1.103,0.897-2,2-2s2,0.897,2,2v1C10.03,9.103,9.132,10,8.03,10z M8.03,6
		c-0.551,0-1,0.449-1,1v1c0,0.551,0.449,1,1,1s1-0.449,1-1V7C9.03,6.449,8.581,6,8.03,6z"/>
	<path d="M5.03,17c-1.103,0-2-0.897-2-2v-1c0-1.103,0.897-2,2-2s2,0.897,2,2v1C7.03,16.103,6.132,17,5.03,17z M5.03,13
		c-0.551,0-1,0.448-1,1v1c0,0.552,0.449,1,1,1s1-0.448,1-1v-1C6.03,13.448,5.581,13,5.03,13z"/>
</g>
</svg>
