<?xml version="1.0" encoding="utf-8"?>
<!-- Generator: Adobe Illustrator 22.1.0, SVG Export Plug-In . SVG Version: 6.00 Build 0)  -->
<svg version="1.1" id="Layer_1" xmlns="http://www.w3.org/2000/svg" xmlns:xlink="http://www.w3.org/1999/xlink" x="0px" y="0px"
	 viewBox="0 0 24 24" style="enable-background:new 0 0 24 24;" xml:space="preserve">
<g>
	<title>file-code-1</title>
	<path d="M3.5,24C2.673,24,2,23.327,2,22.5v-21C2,0.673,2.673,0,3.5,0h13.293c0.4,0.003,0.787,0.167,1.064,0.45l3.703,3.696
		C21.844,4.43,22,4.807,22,5.207V22.5c0,0.827-0.673,1.5-1.5,1.5H3.5z M3.5,1C3.224,1,3,1.224,3,1.5v21C3,22.776,3.224,23,3.5,23h17
		c0.276,0,0.5-0.224,0.5-0.5V5.207c0-0.133-0.052-0.259-0.146-0.354l-3.707-3.699C17.051,1.056,16.922,1.001,16.789,1H3.5z"/>
	<path d="M9.793,18.004c-0.981,0-1.789-0.804-1.793-1.792V14.97c-0.01-0.259-0.171-0.5-0.418-0.62
		c-0.023-0.011-0.045-0.024-0.066-0.038l-1.3-0.9C6.081,13.318,6,13.164,6,13s0.081-0.318,0.215-0.411l1.3-0.9
		c0.022-0.015,0.045-0.028,0.068-0.04C7.829,11.53,7.99,11.285,8,11.01l0-1.221c0-0.048,0.002-0.094,0.006-0.14
		C8.082,8.722,8.87,7.996,9.799,7.996c0.049,0,0.098,0.002,0.148,0.006L10.5,8C10.776,8,11,8.224,11,8.5S10.776,9,10.5,9H9.906
		C9.862,8.997,9.838,8.996,9.814,8.996c-0.428,0-0.777,0.316-0.812,0.734C9.001,9.75,9,9.771,9,9.791v1.239
		c-0.025,0.644-0.386,1.214-0.944,1.501L7.378,13l0.677,0.469C8.614,13.756,8.975,14.322,9,14.95l0,1.26
		c0.002,0.438,0.361,0.794,0.8,0.794c0.021,0,0.043-0.001,0.065-0.003L10.5,17c0.276,0,0.5,0.224,0.5,0.5S10.776,18,10.5,18H9.919
		c-0.025,0.002-0.06,0.005-0.099,0.005C9.818,18.005,9.796,18.004,9.793,18.004z"/>
	<path d="M14.196,18.004l0.005-0.25l-0.011,0.25c-0.042-0.001-0.094-0.002-0.141-0.006L13.5,18c-0.276,0-0.5-0.224-0.5-0.5
		s0.224-0.5,0.5-0.5h0.592c0.056,0.003,0.079,0.004,0.101,0.004c0,0,0,0,0.001,0c0.219,0,0.419-0.082,0.57-0.232
		c0.151-0.15,0.235-0.351,0.236-0.564V14.97c0.025-0.644,0.386-1.214,0.944-1.501L16.622,13l-0.677-0.469
		c-0.558-0.287-0.919-0.853-0.944-1.481l0-1.261c0-0.018-0.001-0.04-0.003-0.062c-0.034-0.41-0.385-0.731-0.799-0.731
		c-0.021,0-0.043,0.001-0.065,0.003L13.5,9C13.224,9,13,8.776,13,8.5S13.224,8,13.5,8h0.592c0.028-0.003,0.076-0.005,0.124-0.005
		c0.92,0,1.701,0.725,1.778,1.651C15.998,9.693,16,9.739,16,9.786v1.245c0.01,0.259,0.171,0.5,0.418,0.62
		c0.024,0.012,0.046,0.025,0.067,0.039l1.299,0.9C17.919,12.682,18,12.836,18,13s-0.081,0.318-0.215,0.411l-1.3,0.9
		c-0.02,0.014-0.043,0.027-0.066,0.038c-0.248,0.12-0.409,0.365-0.419,0.64l0,1.22c-0.002,0.483-0.191,0.934-0.533,1.273
		c-0.339,0.336-0.789,0.522-1.267,0.522C14.199,18.004,14.197,18.004,14.196,18.004z"/>
</g>
</svg>
