<?xml version="1.0" encoding="utf-8"?>
<!-- Generator: Adobe Illustrator 22.1.0, SVG Export Plug-In . SVG Version: 6.00 Build 0)  -->
<svg version="1.1" id="Layer_1" xmlns="http://www.w3.org/2000/svg" xmlns:xlink="http://www.w3.org/1999/xlink" x="0px" y="0px"
	 viewBox="0 0 24 24" style="enable-background:new 0 0 24 24;" xml:space="preserve">
<g>
	<title>file-pl</title>
	<path d="M3.5,24C2.673,24,2,23.327,2,22.5v-21C2,0.673,2.673,0,3.5,0h12.025C19.097,0.002,22.002,2.908,22,6.478V22.5
		c0,0.827-0.673,1.5-1.5,1.5H3.5z M3.5,1C3.224,1,3,1.224,3,1.5v21C3,22.776,3.224,23,3.5,23h17c0.276,0,0.5-0.224,0.5-0.5V6.478
		C21,6.323,20.993,6.163,20.978,6H17.5C16.673,6,16,5.327,16,4.5V1.022C15.839,1.007,15.683,1,15.528,1H3.5z M17,4.5
		C17,4.776,17.224,5,17.5,5h3.297C20.283,3.164,18.836,1.717,17,1.203V4.5z"/>
	<path d="M8.5,19.004c-0.276,0-0.5-0.224-0.5-0.5V12.5C8,12.224,8.224,12,8.5,12H10c1.103,0,2,0.897,2,2s-0.897,2-2,2H9v2.504
		C9,18.78,8.776,19.004,8.5,19.004z M10,15c0.551,0,1-0.448,1-1s-0.449-1-1-1H9L10,15z"/>
	<path d="M14.5,19c-0.827,0-1.5-0.673-1.5-1.5v-5c0-0.276,0.224-0.5,0.5-0.5s0.5,0.224,0.5,0.5v5c0,0.276,0.224,0.5,0.5,0.5h2
		c0.276,0,0.5,0.224,0.5,0.5S16.776,19,16.5,19H14.5z"/>
</g>
</svg>
