<?xml version="1.0" encoding="utf-8"?>
<!-- Generator: Adobe Illustrator 22.1.0, SVG Export Plug-In . SVG Version: 6.00 Build 0)  -->
<svg version="1.1" id="Layer_1" xmlns="http://www.w3.org/2000/svg" xmlns:xlink="http://www.w3.org/1999/xlink" x="0px" y="0px"
	 viewBox="0 0 24 24" style="enable-background:new 0 0 24 24;" xml:space="preserve">
<g>
	<title>file-code-information-1</title>
	<path d="M1.506,24c-0.827,0-1.5-0.673-1.5-1.5v-21c0-0.827,0.673-1.5,1.5-1.5H14.8c0.399,0.003,0.786,0.167,1.063,0.45l3.703,3.696
		c0.284,0.284,0.44,0.66,0.44,1.061V8.5c0,0.276-0.224,0.5-0.5,0.5s-0.5-0.224-0.5-0.5V5.207c0-0.133-0.052-0.259-0.146-0.353
		l-3.707-3.7C15.057,1.057,14.928,1.001,14.796,1H1.506c-0.276,0-0.5,0.224-0.5,0.5v21c0,0.276,0.224,0.5,0.5,0.5h9
		c0.276,0,0.5,0.224,0.5,0.5s-0.224,0.5-0.5,0.5H1.506z"/>
	<path d="M6.506,13.504c-0.134,0-0.259-0.052-0.354-0.146l-3-3c-0.094-0.094-0.146-0.22-0.146-0.354S3.058,9.745,3.152,9.65l3-3
		c0.094-0.094,0.22-0.146,0.354-0.146S6.765,6.556,6.859,6.65s0.146,0.22,0.146,0.354S6.954,7.263,6.859,7.357l-2.646,2.646
		l2.646,2.646c0.094,0.094,0.146,0.22,0.146,0.354s-0.052,0.259-0.146,0.354S6.639,13.504,6.506,13.504z"/>
	<path d="M9.506,13.504c-0.134,0-0.259-0.052-0.354-0.146s-0.146-0.22-0.146-0.354s0.052-0.259,0.146-0.354l2.646-2.646L9.152,7.357
		c-0.094-0.094-0.146-0.22-0.146-0.354S9.058,6.745,9.152,6.65s0.22-0.146,0.354-0.146S9.765,6.556,9.859,6.65l3,3
		c0.094,0.094,0.146,0.22,0.146,0.354s-0.052,0.259-0.146,0.354l-3,3C9.765,13.452,9.639,13.504,9.506,13.504z"/>
	<path d="M17.506,24.004c-3.584,0-6.5-2.916-6.5-6.5s2.916-6.5,6.5-6.5s6.5,2.916,6.5,6.5S21.09,24.004,17.506,24.004z
		 M17.506,12.004c-3.033,0-5.5,2.467-5.5,5.5s2.467,5.5,5.5,5.5s5.5-2.467,5.5-5.5S20.539,12.004,17.506,12.004z"/>
	<circle cx="16.756" cy="14.25" r="0.75"/>
	<path d="M16.006,21.004c-0.276,0-0.5-0.224-0.5-0.5s0.224-0.5,0.5-0.5h1V17h-1c-0.276,0-0.5-0.224-0.5-0.5s0.224-0.5,0.5-0.5h1
		c0.552,0,1,0.448,1,1v3.004h1c0.276,0,0.5,0.224,0.5,0.5s-0.224,0.5-0.5,0.5H16.006z"/>
</g>
</svg>
