<?xml version="1.0" encoding="utf-8"?>
<!-- Generator: Adobe Illustrator 22.1.0, SVG Export Plug-In . SVG Version: 6.00 Build 0)  -->
<svg version="1.1" id="Layer_1" xmlns="http://www.w3.org/2000/svg" xmlns:xlink="http://www.w3.org/1999/xlink" x="0px" y="0px"
	 viewBox="0 0 24 24" style="enable-background:new 0 0 24 24;" xml:space="preserve">
<g>
	<title>file-code-remove</title>
	<path d="M17.5,24.004c-3.584,0-6.5-2.916-6.5-6.5s2.916-6.5,6.5-6.5s6.5,2.916,6.5,6.5S21.084,24.004,17.5,24.004z M17.5,12.004
		c-3.033,0-5.5,2.467-5.5,5.5s2.467,5.5,5.5,5.5s5.5-2.467,5.5-5.5S20.533,12.004,17.5,12.004z"/>
	<path d="M19.621,20.125c-0.134,0-0.259-0.052-0.354-0.146L17.5,18.211l-1.768,1.768c-0.094,0.094-0.22,0.146-0.354,0.146
		s-0.259-0.052-0.354-0.146c-0.195-0.195-0.195-0.512,0-0.707l1.768-1.768l-1.768-1.767c-0.195-0.195-0.195-0.512,0-0.707
		c0.094-0.094,0.22-0.146,0.354-0.146s0.259,0.052,0.354,0.146l1.768,1.768l1.768-1.768c0.094-0.094,0.22-0.146,0.354-0.146
		s0.259,0.052,0.354,0.146c0.195,0.195,0.195,0.512,0,0.707l-1.768,1.767l1.768,1.768c0.195,0.195,0.195,0.512,0,0.707
		C19.88,20.073,19.755,20.125,19.621,20.125z"/>
	<path d="M1.5,24C0.673,24,0,23.327,0,22.5v-21C0,0.673,0.673,0,1.5,0h13.293c0.399,0.003,0.787,0.167,1.064,0.45l3.703,3.696
		C19.844,4.43,20,4.806,20,5.207V9.5c0,0.276-0.224,0.5-0.5,0.5S19,9.776,19,9.5V5.207c0-0.133-0.052-0.259-0.146-0.353l-3.707-3.7
		C15.051,1.056,14.922,1.001,14.79,1H1.5C1.224,1,1,1.224,1,1.5v21C1,22.776,1.224,23,1.5,23h9c0.276,0,0.5,0.224,0.5,0.5
		S10.776,24,10.5,24H1.5z"/>
	<path d="M3.5,10.004c-0.276,0-0.5-0.224-0.5-0.5v-4c0-0.276,0.224-0.5,0.5-0.5S4,5.228,4,5.504v4C4,9.78,3.776,10.004,3.5,10.004z"
		/>
	<path d="M12.5,10.004c-0.276,0-0.5-0.224-0.5-0.5v-4c0-0.276,0.224-0.5,0.5-0.5c0.276,0,0.5,0.224,0.5,0.5v4
		C13,9.78,12.776,10.004,12.5,10.004z"/>
	<path d="M9.5,17.004c-0.276,0-0.5-0.224-0.5-0.5v-4c0-0.276,0.224-0.5,0.5-0.5s0.5,0.224,0.5,0.5v4
		C10,16.78,9.776,17.004,9.5,17.004z"/>
	<path d="M15.5,10.004c-0.276,0-0.5-0.224-0.5-0.5v-4c0-0.276,0.224-0.5,0.5-0.5s0.5,0.224,0.5,0.5v4
		C16,9.78,15.776,10.004,15.5,10.004z"/>
	<path d="M8,10c-1.103,0-2-0.897-2-2V7c0-1.103,0.897-2,2-2s2,0.897,2,2v1C10,9.103,9.103,10,8,10z M8,6C7.449,6,7,6.449,7,7v1
		c0,0.551,0.449,1,1,1s1-0.449,1-1V7C9,6.449,8.551,6,8,6z"/>
	<path d="M5,17c-1.103,0-2-0.897-2-2v-1c0-1.103,0.897-2,2-2s2,0.897,2,2v1C7,16.103,6.103,17,5,17z M5,13c-0.551,0-1,0.448-1,1v1
		c0,0.552,0.449,1,1,1s1-0.448,1-1v-1C6,13.448,5.551,13,5,13z"/>
</g>
</svg>
