<?xml version="1.0" encoding="utf-8"?>
<!-- Generator: Adobe Illustrator 22.1.0, SVG Export Plug-In . SVG Version: 6.00 Build 0)  -->
<svg version="1.1" id="Layer_1" xmlns="http://www.w3.org/2000/svg" xmlns:xlink="http://www.w3.org/1999/xlink" x="0px" y="0px"
	 viewBox="0 0 24 24" style="enable-background:new 0 0 24 24;" xml:space="preserve">
<g>
	<title>file-code-refresh-1</title>
	<path d="M1.542,24c-0.827,0-1.5-0.673-1.5-1.5v-21c0-0.827,0.673-1.5,1.5-1.5h13.293c0.405,0.003,0.783,0.163,1.064,0.45
		l3.703,3.696c0.284,0.284,0.44,0.661,0.44,1.061V9.5c0,0.276-0.224,0.5-0.5,0.5s-0.5-0.224-0.5-0.5V5.207
		c0-0.133-0.052-0.259-0.146-0.354l-3.707-3.699C15.09,1.054,14.967,1.001,14.831,1H1.542c-0.276,0-0.5,0.224-0.5,0.5v21
		c0,0.276,0.224,0.5,0.5,0.5h9c0.276,0,0.5,0.224,0.5,0.5s-0.224,0.5-0.5,0.5H1.542z"/>
	<path d="M6.542,13.504c-0.134,0-0.259-0.052-0.354-0.146l-3-3c-0.094-0.094-0.146-0.22-0.146-0.354s0.052-0.259,0.146-0.354l3-3
		c0.094-0.094,0.22-0.146,0.354-0.146s0.259,0.052,0.354,0.146s0.146,0.22,0.146,0.354S6.99,7.263,6.896,7.358l-2.646,2.646
		l2.646,2.646c0.094,0.094,0.146,0.22,0.146,0.354s-0.052,0.259-0.146,0.354S6.676,13.504,6.542,13.504z"/>
	<path d="M9.542,13.504c-0.134,0-0.259-0.052-0.354-0.146s-0.146-0.22-0.146-0.354s0.052-0.259,0.146-0.354l2.646-2.646L9.188,7.358
		c-0.094-0.094-0.146-0.22-0.146-0.354s0.052-0.259,0.146-0.354s0.22-0.146,0.354-0.146s0.259,0.052,0.354,0.146l3,3
		c0.094,0.094,0.146,0.22,0.146,0.354s-0.052,0.259-0.146,0.354l-3,3C9.801,13.452,9.676,13.504,9.542,13.504z"/>
	<path d="M17.536,24c-3.306,0-5.998-2.69-6-5.996c-0.001-1.603,0.622-3.11,1.755-4.244c1.132-1.134,2.638-1.759,4.241-1.76
		c2.479,0,4.591,1.446,5.51,3.607v-1.603c0-0.276,0.224-0.5,0.5-0.5s0.5,0.224,0.5,0.5v3.5c0,0.276-0.224,0.5-0.5,0.5h-3.5
		c-0.276,0-0.5-0.224-0.5-0.5s0.224-0.5,0.5-0.5h2.388C21.964,14.667,19.949,13,17.536,13c-1.339,0.001-2.594,0.521-3.538,1.467
		c-0.944,0.945-1.463,2.201-1.462,3.536c0.002,2.753,2.241,4.993,4.993,4.997c0.003,0,0.019,0,0.024,0
		c0.27,0.007,0.487,0.229,0.487,0.5c0,0.276-0.224,0.5-0.5,0.5H17.536z"/>
</g>
</svg>
