<?xml version="1.0" encoding="utf-8"?>
<!-- Generator: Adobe Illustrator 22.1.0, SVG Export Plug-In . SVG Version: 6.00 Build 0)  -->
<svg version="1.1" id="Layer_1" xmlns="http://www.w3.org/2000/svg" xmlns:xlink="http://www.w3.org/1999/xlink" x="0px" y="0px"
	 viewBox="0 0 24 24" style="enable-background:new 0 0 24 24;" xml:space="preserve">
<g>
	<title>file-c-plus-plus</title>
	<path d="M3.5,24C2.673,24,2,23.327,2,22.5v-21C2,0.673,2.673,0,3.5,0h12.025C19.097,0.002,22.002,2.908,22,6.478V22.5
		c0,0.827-0.673,1.5-1.5,1.5H3.5z M3.5,1C3.224,1,3,1.224,3,1.5v21C3,22.776,3.224,23,3.5,23h17c0.276,0,0.5-0.224,0.5-0.5V6.478
		C21,6.323,20.993,6.163,20.978,6H17.5C16.673,6,16,5.327,16,4.5V1.022C15.839,1.007,15.683,1,15.528,1H3.5z M17,4.5
		C17,4.776,17.224,5,17.5,5h3.297C20.283,3.164,18.836,1.717,17,1.203V4.5z"/>
	<path d="M11.5,18.004c-0.276,0-0.5-0.224-0.5-0.5v-1.5H9.5c-0.276,0-0.5-0.224-0.5-0.5s0.224-0.5,0.5-0.5H11v-1.5
		c0-0.276,0.224-0.5,0.5-0.5s0.5,0.224,0.5,0.5v1.5h1.5c0.276,0,0.5,0.224,0.5,0.5s-0.224,0.5-0.5,0.5H12v1.5
		C12,17.78,11.776,18.004,11.5,18.004z"/>
	<path d="M17.5,18.004c-0.276,0-0.5-0.224-0.5-0.5v-1.5h-1.5c-0.276,0-0.5-0.224-0.5-0.5s0.224-0.5,0.5-0.5H17v-1.5
		c0-0.276,0.224-0.5,0.5-0.5s0.5,0.224,0.5,0.5v1.5h1.5c0.276,0,0.5,0.224,0.5,0.5s-0.224,0.5-0.5,0.5H18v1.5
		C18,17.78,17.776,18.004,17.5,18.004z"/>
	<path d="M7.5,19C5.57,19,4,17.43,4,15.5S5.57,12,7.5,12C7.776,12,8,12.224,8,12.5C8,12.776,7.776,13,7.5,13
		C6.121,13,5,14.122,5,15.5S6.121,18,7.5,18C7.776,18,8,18.224,8,18.5S7.776,19,7.5,19z"/>
</g>
</svg>
