<?xml version="1.0" encoding="utf-8"?>
<!-- Generator: Adobe Illustrator 22.1.0, SVG Export Plug-In . SVG Version: 6.00 Build 0)  -->
<svg version="1.1" id="Layer_1" xmlns="http://www.w3.org/2000/svg" xmlns:xlink="http://www.w3.org/1999/xlink" x="0px" y="0px"
	 viewBox="0 0 24 24" style="enable-background:new 0 0 24 24;" xml:space="preserve">
<g>
	<title>file-html-1</title>
	<path d="M19.5,13c-0.276,0-0.5-0.224-0.5-0.5V6.478C19,6.329,18.992,6.173,18.976,6H15.5C14.673,6,14,5.327,14,4.5V1.024
		C13.829,1.008,13.676,1,13.528,1H1.5C1.224,1,1,1.224,1,1.5v11C1,12.776,0.776,13,0.5,13S0,12.776,0,12.5v-11
		C0,0.673,0.673,0,1.5,0h12.025c1.732,0.001,3.359,0.675,4.581,1.899c1.223,1.224,1.895,2.85,1.894,4.579V12.5
		C20,12.776,19.776,13,19.5,13z M15,4.5C15,4.776,15.224,5,15.5,5h3.296c-0.251-0.904-0.73-1.726-1.397-2.395
		c-0.669-0.67-1.493-1.15-2.398-1.402V4.5z"/>
	<path d="M9.5,24.004c-0.276,0-0.5-0.224-0.5-0.5v-7.5H7.5c-0.276,0-0.5-0.224-0.5-0.5s0.224-0.5,0.5-0.5h4
		c0.276,0,0.5,0.224,0.5,0.5s-0.224,0.5-0.5,0.5H10v7.5C10,23.78,9.776,24.004,9.5,24.004z"/>
	<path d="M5.5,24.004c-0.276,0-0.5-0.224-0.5-0.5v-3.5H2v3.5c0,0.276-0.224,0.5-0.5,0.5S1,23.78,1,23.504v-8
		c0-0.276,0.224-0.5,0.5-0.5s0.5,0.224,0.5,0.5v3.5h3v-3.5c0-0.276,0.224-0.5,0.5-0.5s0.5,0.224,0.5,0.5v8
		C6,23.78,5.776,24.004,5.5,24.004z"/>
	<path d="M17.5,24.004c-0.276,0-0.5-0.224-0.5-0.5v-5.882l-1.053,2.105c-0.082,0.164-0.253,0.265-0.447,0.265
		s-0.365-0.102-0.447-0.265L14,17.622v5.882c0,0.276-0.224,0.5-0.5,0.5s-0.5-0.224-0.5-0.5v-8c0-0.233,0.158-0.433,0.385-0.487
		c0.038-0.009,0.076-0.013,0.114-0.013c0.188,0,0.365,0.108,0.448,0.276l1.553,3.105l1.553-3.105
		c0.085-0.17,0.257-0.276,0.448-0.276c0.038,0,0.076,0.004,0.113,0.013C17.842,15.071,18,15.271,18,15.504v8
		C18,23.78,17.776,24.004,17.5,24.004z"/>
	<path d="M21,24c-1.103,0-2-0.897-2-2v-6.5c0-0.276,0.224-0.5,0.5-0.5s0.5,0.224,0.5,0.5V22c0,0.552,0.448,1,1,1h2.5
		c0.276,0,0.5,0.224,0.5,0.5S23.776,24,23.5,24H21z"/>
</g>
</svg>
