<?xml version="1.0" encoding="utf-8"?>
<!-- Generator: Adobe Illustrator 22.1.0, SVG Export Plug-In . SVG Version: 6.00 Build 0)  -->
<svg version="1.1" id="Layer_1" xmlns="http://www.w3.org/2000/svg" xmlns:xlink="http://www.w3.org/1999/xlink" x="0px" y="0px"
	 viewBox="0 0 24 24" style="enable-background:new 0 0 24 24;" xml:space="preserve">
<g>
	<title>file-code-disable-1</title>
	<path d="M1.542,24c-0.827,0-1.5-0.673-1.5-1.5v-21c0-0.827,0.673-1.5,1.5-1.5h13.293c0.399,0.003,0.787,0.167,1.064,0.45
		l3.703,3.696c0.284,0.284,0.44,0.66,0.44,1.061V8.5c0,0.276-0.224,0.5-0.5,0.5s-0.5-0.224-0.5-0.5V5.207
		c0-0.133-0.052-0.259-0.146-0.353l-3.707-3.7C15.093,1.056,14.964,1.001,14.832,1H1.542c-0.276,0-0.5,0.224-0.5,0.5v21
		c0,0.276,0.224,0.5,0.5,0.5h8c0.276,0,0.5,0.224,0.5,0.5S9.818,24,9.542,24H1.542z"/>
	<path d="M6.542,13.504c-0.134,0-0.259-0.052-0.354-0.146l-3-3c-0.094-0.094-0.146-0.22-0.146-0.354S3.094,9.745,3.188,9.65l3-3
		c0.094-0.094,0.22-0.146,0.354-0.146S6.801,6.556,6.896,6.65s0.146,0.22,0.146,0.354S6.99,7.263,6.896,7.357l-2.646,2.646
		l2.646,2.646c0.094,0.094,0.146,0.22,0.146,0.354s-0.052,0.259-0.146,0.354S6.676,13.504,6.542,13.504z"/>
	<path d="M9.542,13.504c-0.134,0-0.259-0.052-0.354-0.146s-0.146-0.22-0.146-0.354s0.052-0.259,0.146-0.354l2.646-2.646L9.188,7.357
		c-0.094-0.094-0.146-0.22-0.146-0.354S9.094,6.745,9.188,6.65s0.22-0.146,0.354-0.146S9.801,6.556,9.896,6.65l3,3
		c0.094,0.094,0.146,0.22,0.146,0.354s-0.052,0.259-0.146,0.354l-3,3C9.801,13.452,9.676,13.504,9.542,13.504z"/>
	<path d="M17.542,24.004c-1.72,0-3.342-0.667-4.568-1.88c-0.01-0.008-0.021-0.016-0.029-0.024c-0.009-0.009-0.018-0.02-0.027-0.031
		c-1.207-1.215-1.877-2.84-1.877-4.564c0-3.584,2.916-6.5,6.5-6.5c1.719,0,3.338,0.666,4.564,1.876
		c0.012,0.009,0.024,0.019,0.032,0.027c0.013,0.013,0.024,0.026,0.032,0.038c1.202,1.213,1.872,2.836,1.872,4.559
		C24.042,21.088,21.126,24.004,17.542,24.004z M14.024,21.728c0.988,0.825,2.227,1.276,3.518,1.276c3.033,0,5.5-2.467,5.5-5.5
		c0-1.29-0.451-2.529-1.276-3.517L14.024,21.728z M17.542,12.004c-3.033,0-5.5,2.467-5.5,5.5c0,1.29,0.451,2.529,1.275,3.517
		l7.742-7.741C20.071,12.455,18.832,12.004,17.542,12.004z"/>
</g>
</svg>
