<?xml version="1.0" encoding="utf-8"?>
<!-- Generator: Adobe Illustrator 22.1.0, SVG Export Plug-In . SVG Version: 6.00 Build 0)  -->
<svg version="1.1" id="Layer_1" xmlns="http://www.w3.org/2000/svg" xmlns:xlink="http://www.w3.org/1999/xlink" x="0px" y="0px"
	 viewBox="0 0 24 24" style="enable-background:new 0 0 24 24;" xml:space="preserve">
<g>
	<title>file-code-settings-1</title>
	<path d="M1.542,24c-0.827,0-1.5-0.673-1.5-1.5v-21c0-0.827,0.673-1.5,1.5-1.5h13.293c0.399,0.003,0.786,0.167,1.064,0.45
		l3.703,3.696c0.284,0.283,0.44,0.66,0.44,1.061V7.5c0,0.276-0.224,0.5-0.5,0.5s-0.5-0.224-0.5-0.5V5.207
		c0-0.134-0.052-0.259-0.146-0.353l-3.707-3.7C15.093,1.056,14.964,1.001,14.832,1H1.542c-0.276,0-0.5,0.224-0.5,0.5v21
		c0,0.276,0.224,0.5,0.5,0.5h10c0.276,0,0.5,0.224,0.5,0.5s-0.224,0.5-0.5,0.5H1.542z"/>
	<path d="M6.542,13.504c-0.134,0-0.259-0.052-0.354-0.146l-3-3c-0.094-0.094-0.146-0.22-0.146-0.354S3.094,9.745,3.189,9.65l3-3
		c0.094-0.094,0.22-0.146,0.354-0.146S6.801,6.556,6.896,6.65s0.146,0.22,0.146,0.354S6.99,7.263,6.896,7.357l-2.646,2.646
		l2.646,2.646c0.094,0.094,0.146,0.22,0.146,0.354s-0.052,0.259-0.146,0.354S6.676,13.504,6.542,13.504z"/>
	<path d="M9.542,13.504c-0.134,0-0.259-0.052-0.354-0.146s-0.146-0.22-0.146-0.354s0.052-0.259,0.146-0.354l2.646-2.646L9.189,7.357
		c-0.094-0.094-0.146-0.22-0.146-0.354S9.094,6.745,9.189,6.65s0.22-0.146,0.354-0.146S9.801,6.556,9.896,6.65l3,3
		c0.094,0.094,0.146,0.22,0.146,0.354s-0.052,0.259-0.146,0.354l-3,3C9.801,13.452,9.676,13.504,9.542,13.504z"/>
	<path d="M17.792,18.972c-1.068,0-1.937-0.869-1.937-1.937s0.869-1.937,1.937-1.937c1.068,0,1.937,0.869,1.937,1.937
		S18.86,18.972,17.792,18.972z M17.792,16.098c-0.517,0-0.937,0.42-0.937,0.937s0.42,0.937,0.937,0.937s0.937-0.42,0.937-0.937
		S18.309,16.098,17.792,16.098z"/>
	<path d="M17.791,24.008c-0.172,0-0.344-0.025-0.51-0.075c-0.573-0.172-1.017-0.616-1.189-1.189l-0.423-1.399
		c-0.057-0.19-0.236-0.322-0.435-0.322c-0.033,0-0.067,0.004-0.1,0.011l-1.41,0.327c-0.132,0.03-0.265,0.045-0.398,0.045
		c-0.335,0-0.664-0.096-0.95-0.277c-0.403-0.254-0.682-0.65-0.787-1.115c-0.13-0.575,0.033-1.176,0.435-1.607l0.986-1.063
		c0.162-0.176,0.162-0.451,0-0.627l-0.986-1.063c-0.324-0.348-0.493-0.802-0.477-1.278c0.017-0.476,0.218-0.917,0.567-1.241
		c0.332-0.309,0.763-0.479,1.215-0.479c0.132,0,0.264,0.015,0.392,0.044l1.414,0.328c0.033,0.008,0.067,0.012,0.101,0.012
		c0.198,0,0.375-0.132,0.433-0.322l0.424-1.393c0.225-0.742,0.924-1.26,1.7-1.26c0.173,0,0.346,0.026,0.513,0.076
		c0.572,0.173,1.015,0.618,1.187,1.19l0.423,1.39c0.057,0.19,0.235,0.323,0.433,0.323c0.033,0,0.067-0.004,0.1-0.011l1.411-0.327
		c0.132-0.03,0.265-0.044,0.397-0.044c0.336,0,0.664,0.095,0.95,0.276c0.403,0.255,0.682,0.651,0.787,1.115
		c0.129,0.575-0.033,1.176-0.434,1.607l-0.987,1.063c-0.162,0.175-0.162,0.451,0,0.626l0.987,1.064
		c0.669,0.719,0.629,1.849-0.09,2.519c-0.332,0.309-0.763,0.478-1.216,0.478h0c-0.131,0-0.263-0.015-0.391-0.043l-1.414-0.328
		c-0.034-0.008-0.068-0.012-0.101-0.012c-0.197,0-0.374,0.132-0.431,0.322l-0.424,1.397C19.268,23.488,18.569,24.008,17.791,24.008z
		 M15.234,20.023c0.636,0,1.208,0.425,1.392,1.033l0.424,1.399c0.075,0.251,0.27,0.445,0.519,0.52
		c0.074,0.022,0.15,0.034,0.225,0.034c0.128,0,0.251-0.031,0.366-0.093c0.182-0.098,0.315-0.261,0.375-0.459l0.424-1.397
		c0.183-0.607,0.755-1.031,1.392-1.031c0.108,0,0.217,0.012,0.322,0.036l1.412,0.327c0.055,0.012,0.112,0.019,0.169,0.019
		c0.198,0,0.388-0.075,0.533-0.21c0.153-0.142,0.241-0.336,0.249-0.545c0.007-0.209-0.067-0.408-0.209-0.562l-0.988-1.065
		c-0.515-0.557-0.515-1.429,0-1.985l0.988-1.064c0.177-0.19,0.249-0.454,0.192-0.707c-0.08-0.354-0.401-0.611-0.763-0.611
		c-0.058,0-0.116,0.006-0.173,0.019l-1.408,0.326c-0.107,0.024-0.215,0.037-0.324,0.037c-0.636,0-1.209-0.425-1.392-1.033
		c0,0-0.425-1.396-0.426-1.398c-0.076-0.247-0.269-0.439-0.517-0.515c-0.073-0.022-0.148-0.033-0.223-0.033
		c-0.339,0-0.645,0.227-0.743,0.551l-0.424,1.393c-0.183,0.607-0.756,1.031-1.393,1.031c-0.108,0-0.216-0.012-0.322-0.036
		l-1.412-0.327c-0.054-0.012-0.112-0.019-0.169-0.019c-0.198,0-0.388,0.075-0.534,0.21c-0.153,0.142-0.241,0.335-0.248,0.545
		c-0.007,0.209,0.067,0.409,0.209,0.562l0.988,1.065c0.515,0.557,0.515,1.429,0,1.985l-0.988,1.064
		c-0.177,0.19-0.249,0.454-0.192,0.707c0.046,0.204,0.168,0.378,0.345,0.49c0.125,0.08,0.27,0.121,0.417,0.121
		c0.058,0,0.117-0.006,0.174-0.019l1.408-0.326C15.017,20.035,15.126,20.023,15.234,20.023z"/>
</g>
</svg>
