<?xml version="1.0" encoding="utf-8"?>
<!-- Generator: Adobe Illustrator 22.1.0, SVG Export Plug-In . SVG Version: 6.00 Build 0)  -->
<svg version="1.1" id="Layer_1" xmlns="http://www.w3.org/2000/svg" xmlns:xlink="http://www.w3.org/1999/xlink" x="0px" y="0px"
	 viewBox="0 0 24 24" style="enable-background:new 0 0 24 24;" xml:space="preserve">
<g>
	<title>file-ym-1</title>
	<path d="M1.5,24C0.673,24,0,23.327,0,22.5v-21C0,0.673,0.673,0,1.5,0h12.025c1.732,0.001,3.359,0.675,4.581,1.899
		c1.223,1.224,1.895,2.85,1.894,4.579V12.5c0,0.276-0.224,0.5-0.5,0.5S19,12.776,19,12.5V6.478C19,6.329,18.992,6.173,18.976,6H15.5
		C14.673,6,14,5.327,14,4.5V1.024C13.829,1.008,13.676,1,13.528,1H1.5C1.224,1,1,1.224,1,1.5v21C1,22.776,1.224,23,1.5,23h9
		c0.276,0,0.5,0.224,0.5,0.5S10.776,24,10.5,24H1.5z M15,4.5C15,4.776,15.224,5,15.5,5h3.296c-0.251-0.904-0.73-1.726-1.397-2.395
		c-0.669-0.67-1.493-1.15-2.398-1.402V4.5z"/>
	<path d="M15.5,24.004c-0.276,0-0.5-0.224-0.5-0.5v-3.555c-1.155-0.234-2-1.25-2-2.449v-2c0-0.276,0.224-0.5,0.5-0.5
		s0.5,0.224,0.5,0.5v2c0,0.827,0.673,1.5,1.5,1.5s1.5-0.673,1.5-1.5v-2c0-0.276,0.224-0.5,0.5-0.5s0.5,0.224,0.5,0.5v2
		c0,1.199-0.845,2.215-2,2.449v3.555C16,23.78,15.776,24.004,15.5,24.004z"/>
	<path d="M23.5,24.004c-0.276,0-0.5-0.224-0.5-0.5v-5.882l-1.053,2.105c-0.082,0.164-0.253,0.265-0.447,0.265
		s-0.365-0.102-0.447-0.265L20,17.622v5.882c0,0.276-0.224,0.5-0.5,0.5s-0.5-0.224-0.5-0.5v-8c0-0.233,0.158-0.433,0.385-0.487
		c0.039-0.009,0.076-0.013,0.114-0.013c0.191,0,0.363,0.106,0.448,0.276l1.553,3.105l1.553-3.105
		c0.085-0.17,0.257-0.276,0.448-0.276c0.038,0,0.076,0.004,0.114,0.013C23.842,15.071,24,15.271,24,15.504v8
		C24,23.78,23.776,24.004,23.5,24.004z"/>
</g>
</svg>
