<?xml version="1.0" encoding="utf-8"?>
<!-- Generator: Adobe Illustrator 22.1.0, SVG Export Plug-In . SVG Version: 6.00 Build 0)  -->
<svg version="1.1" id="Layer_1" xmlns="http://www.w3.org/2000/svg" xmlns:xlink="http://www.w3.org/1999/xlink" x="0px" y="0px"
	 viewBox="0 0 24 24" style="enable-background:new 0 0 24 24;" xml:space="preserve">
<g>
	<title>file-code-star-1</title>
	<path d="M1.542,24c-0.827,0-1.5-0.673-1.5-1.5v-21c0-0.827,0.673-1.5,1.5-1.5h13.293c0.399,0.003,0.786,0.167,1.064,0.45
		l3.703,3.696c0.283,0.283,0.44,0.66,0.44,1.061V8.5c0,0.276-0.224,0.5-0.5,0.5s-0.5-0.224-0.5-0.5V5.207
		c0-0.134-0.052-0.259-0.146-0.353l-3.707-3.7C15.093,1.057,14.964,1.001,14.831,1H1.542c-0.276,0-0.5,0.224-0.5,0.5v21
		c0,0.276,0.224,0.5,0.5,0.5h8c0.276,0,0.5,0.224,0.5,0.5S9.818,24,9.542,24H1.542z"/>
	<path d="M6.542,13.504c-0.134,0-0.259-0.052-0.354-0.146l-3-3c-0.094-0.094-0.146-0.22-0.146-0.354s0.052-0.259,0.146-0.354l3-3
		c0.094-0.094,0.22-0.146,0.354-0.146s0.259,0.052,0.354,0.146s0.146,0.22,0.146,0.354S6.99,7.263,6.895,7.358l-2.646,2.646
		l2.646,2.646c0.094,0.094,0.146,0.22,0.146,0.354s-0.052,0.259-0.146,0.354S6.675,13.504,6.542,13.504z"/>
	<path d="M9.542,13.504c-0.134,0-0.259-0.052-0.354-0.146s-0.146-0.22-0.146-0.354s0.052-0.259,0.146-0.354l2.647-2.646L9.188,7.358
		c-0.094-0.094-0.146-0.22-0.146-0.354s0.052-0.259,0.146-0.354s0.22-0.146,0.354-0.146s0.259,0.052,0.354,0.146l3,3
		c0.094,0.094,0.146,0.22,0.146,0.354s-0.052,0.259-0.146,0.354l-3,3C9.801,13.452,9.675,13.504,9.542,13.504z"/>
	<path d="M13.672,24.006c-0.459,0-0.886-0.246-1.115-0.643c-0.199-0.344-0.226-0.769-0.073-1.137l1.299-2.989l-2.33-2.074
		c-0.511-0.44-0.567-1.22-0.123-1.736C11.564,15.156,11.907,15,12.271,15l0.051,0.001l2.649,0l1.411-3.268
		c0.238-0.454,0.682-0.725,1.166-0.725c0.207,0,0.414,0.051,0.598,0.149c0.235,0.124,0.423,0.313,0.545,0.548
		c0.004,0.007,0.015,0.031,0.018,0.038l1.406,3.262l2.697,0c0.664,0,1.205,0.521,1.231,1.187c0.014,0.371-0.136,0.724-0.412,0.97
		l-2.328,2.072l1.296,2.982c0.275,0.658-0.033,1.414-0.686,1.688c-0.158,0.066-0.324,0.099-0.496,0.099
		c-0.228,0-0.45-0.06-0.645-0.173l-3.229-1.819l-3.235,1.826C14.116,23.946,13.895,24.006,13.672,24.006z M12.273,16
		c-0.077,0-0.14,0.027-0.186,0.081c-0.084,0.098-0.073,0.246,0.025,0.331l2.606,2.32c0.162,0.144,0.212,0.374,0.126,0.573
		l-1.44,3.314c-0.031,0.075-0.024,0.17,0.019,0.245c0.051,0.088,0.146,0.143,0.248,0.143c0.05,0,0.099-0.013,0.142-0.038L17.297,21
		c0.074-0.042,0.159-0.064,0.245-0.064c0.086,0,0.171,0.022,0.246,0.064l3.48,1.961c0.047,0.027,0.098,0.041,0.149,0.041
		c0.038,0,0.075-0.007,0.109-0.021c0.145-0.061,0.213-0.228,0.152-0.373l-1.438-3.308c-0.086-0.198-0.036-0.428,0.126-0.573
		l2.599-2.313c0.052-0.047,0.081-0.114,0.078-0.184c-0.005-0.126-0.11-0.226-0.24-0.226l-3.018,0c-0.2,0-0.38-0.119-0.459-0.302
		l-1.535-3.561c-0.018-0.032-0.06-0.073-0.112-0.101c-0.043-0.023-0.089-0.034-0.136-0.034c-0.11,0-0.21,0.06-0.261,0.157
		l-1.524,3.535C15.68,15.882,15.499,16,15.3,16L12.273,16z"/>
</g>
</svg>
