<?xml version="1.0" encoding="utf-8"?>
<!-- Generator: Adobe Illustrator 22.1.0, SVG Export Plug-In . SVG Version: 6.00 Build 0)  -->
<svg version="1.1" id="Layer_1" xmlns="http://www.w3.org/2000/svg" xmlns:xlink="http://www.w3.org/1999/xlink" x="0px" y="0px"
	 viewBox="0 0 24 24" style="enable-background:new 0 0 24 24;" xml:space="preserve">
<g>
	<title>file-c-plus-plus-1</title>
	<path d="M1.5,24C0.673,24,0,23.327,0,22.5v-21C0,0.673,0.673,0,1.5,0h12.025C17.097,0.002,20.002,2.908,20,6.478V12.5
		c0,0.276-0.224,0.5-0.5,0.5S19,12.776,19,12.5V6.478C19,6.323,18.993,6.163,18.978,6H15.5C14.673,6,14,5.327,14,4.5V1.022
		C13.839,1.007,13.683,1,13.528,1H1.5C1.224,1,1,1.224,1,1.5v21C1,22.776,1.224,23,1.5,23h3C4.776,23,5,23.224,5,23.5
		S4.776,24,4.5,24H1.5z M15,4.5C15,4.776,15.224,5,15.5,5h3.297C18.283,3.164,16.836,1.717,15,1.203V4.5z"/>
	<path d="M15.5,22.004c-0.276,0-0.5-0.224-0.5-0.5v-1.5h-1.5c-0.276,0-0.5-0.224-0.5-0.5s0.224-0.5,0.5-0.5H15v-1.5
		c0-0.276,0.224-0.5,0.5-0.5s0.5,0.224,0.5,0.5v1.5h1.5c0.276,0,0.5,0.224,0.5,0.5s-0.224,0.5-0.5,0.5H16v1.5
		C16,21.78,15.776,22.004,15.5,22.004z"/>
	<path d="M21.5,22.004c-0.276,0-0.5-0.224-0.5-0.5v-1.5h-1.5c-0.276,0-0.5-0.224-0.5-0.5s0.224-0.5,0.5-0.5H21v-1.5
		c0-0.276,0.224-0.5,0.5-0.5s0.5,0.224,0.5,0.5v1.5h1.5c0.276,0,0.5,0.224,0.5,0.5s-0.224,0.5-0.5,0.5H22v1.5
		C22,21.78,21.776,22.004,21.5,22.004z"/>
	<path d="M11.5,24C9.019,24,7,21.981,7,19.5S9.019,15,11.5,15c0.276,0,0.5,0.224,0.5,0.5S11.776,16,11.5,16C9.57,16,8,17.57,8,19.5
		S9.57,23,11.5,23c0.276,0,0.5,0.224,0.5,0.5S11.776,24,11.5,24z"/>
</g>
</svg>
