<?xml version="1.0" encoding="utf-8"?>
<!-- Generator: Adobe Illustrator 22.1.0, SVG Export Plug-In . SVG Version: 6.00 Build 0)  -->
<svg version="1.1" id="Layer_1" xmlns="http://www.w3.org/2000/svg" xmlns:xlink="http://www.w3.org/1999/xlink" x="0px" y="0px"
	 viewBox="0 0 24 24" style="enable-background:new 0 0 24 24;" xml:space="preserve">
<g>
	<title>iso-1</title>
	<path d="M1.5,24.004c-0.827,0-1.5-0.673-1.5-1.5v-21c0-0.827,0.673-1.5,1.5-1.5h21c0.827,0,1.5,0.673,1.5,1.5v21
		c0,0.827-0.673,1.5-1.5,1.5H1.5z M1.5,1.004c-0.276,0-0.5,0.224-0.5,0.5v21c0,0.276,0.224,0.5,0.5,0.5h21
		c0.276,0,0.5-0.224,0.5-0.5v-21c0-0.276-0.224-0.5-0.5-0.5H1.5z"/>
	<path d="M4,20.004c-0.276,0-0.5-0.224-0.5-0.5s0.224-0.5,0.5-0.5h1.5v-7H4c-0.276,0-0.5-0.224-0.5-0.5s0.224-0.5,0.5-0.5h4
		c0.276,0,0.5,0.224,0.5,0.5s-0.224,0.5-0.5,0.5H6.5v7H8c0.276,0,0.5,0.224,0.5,0.5s-0.224,0.5-0.5,0.5H4z"/>
	<path d="M10,20c-0.276,0-0.5-0.224-0.5-0.5S9.724,19,10,19h2.146c0.518,0,0.982-0.287,1.213-0.75
		c0.333-0.668,0.061-1.483-0.607-1.816l-1.951-0.975c-0.802-0.401-1.3-1.208-1.301-2.104c0-0.629,0.244-1.22,0.689-1.665
		c0.445-0.445,1.036-0.69,1.664-0.69H14c0.276,0,0.5,0.224,0.5,0.5S14.276,12,14,12h-2.146c-0.747,0-1.354,0.608-1.353,1.355
		c0,0.516,0.287,0.98,0.748,1.21l1.95,0.975c1.161,0.58,1.634,1.996,1.055,3.157C13.853,19.501,13.046,20,12.147,20H10z"/>
	<path d="M18,20c-1.378,0-2.5-1.122-2.5-2.5v-4c0-1.379,1.122-2.5,2.5-2.5s2.5,1.122,2.5,2.5v4C20.5,18.878,19.378,20,18,20z M18,12
		c-0.827,0-1.5,0.673-1.5,1.5v4c0,0.827,0.673,1.5,1.5,1.5s1.5-0.673,1.5-1.5v-4C19.5,12.673,18.827,12,18,12z"/>
</g>
</svg>
