<?xml version="1.0" encoding="utf-8"?>
<!-- Generator: Adobe Illustrator 22.1.0, SVG Export Plug-In . SVG Version: 6.00 Build 0)  -->
<svg version="1.1" id="Layer_1" xmlns="http://www.w3.org/2000/svg" xmlns:xlink="http://www.w3.org/1999/xlink" x="0px" y="0px"
	 viewBox="0 0 24 24" style="enable-background:new 0 0 24 24;" xml:space="preserve">
<g>
	<title>js</title>
	<path d="M1.563,19.504c-0.827,0-1.5-0.673-1.5-1.5v-12c0-0.827,0.673-1.5,1.5-1.5h21c0.827,0,1.5,0.673,1.5,1.5v12
		c0,0.827-0.673,1.5-1.5,1.5H1.563z M1.563,5.504c-0.276,0-0.5,0.224-0.5,0.5v12c0,0.276,0.224,0.5,0.5,0.5h21
		c0.276,0,0.5-0.224,0.5-0.5v-12c0-0.276-0.224-0.5-0.5-0.5H1.563z"/>
	<path d="M9.062,15.5c-1.103,0-2-0.897-2-2c0-0.276,0.224-0.5,0.5-0.5s0.5,0.224,0.5,0.5c0,0.552,0.449,1,1,1s1-0.448,1-1V9
		c0-0.276,0.224-0.5,0.5-0.5s0.5,0.224,0.5,0.5v4.5C11.062,14.603,10.165,15.5,9.062,15.5z"/>
	<path d="M12.56,15.5c-0.276,0-0.5-0.224-0.5-0.5s0.224-0.5,0.5-0.5h1.7c0.276,0,0.527-0.135,0.675-0.361
		c0.117-0.178,0.158-0.392,0.114-0.601c-0.043-0.209-0.166-0.389-0.344-0.507l-1.842-1.229c-0.509-0.335-0.812-0.901-0.808-1.512
		c0.006-0.987,0.808-1.79,1.788-1.79l1.72,0c0.276,0,0.5,0.224,0.5,0.5s-0.224,0.5-0.5,0.5h-1.7c-0.445,0-0.805,0.357-0.807,0.796
		c-0.001,0.272,0.133,0.523,0.36,0.673l1.841,1.229c0.399,0.262,0.674,0.666,0.772,1.137c0.098,0.47,0.006,0.951-0.258,1.354
		c-0.334,0.509-0.897,0.812-1.505,0.812H12.56z"/>
</g>
</svg>
