<?xml version="1.0" encoding="utf-8"?>
<!-- Generator: Adobe Illustrator 22.1.0, SVG Export Plug-In . SVG Version: 6.00 Build 0)  -->
<svg version="1.1" id="Layer_1" xmlns="http://www.w3.org/2000/svg" xmlns:xlink="http://www.w3.org/1999/xlink" x="0px" y="0px"
	 viewBox="0 0 24 24" style="enable-background:new 0 0 24 24;" xml:space="preserve">
<title>phone-actions-24-support</title>
<g>
	<path d="M14.785,23.271c-0.997,0-1.974-0.287-2.826-0.829l-0.038-0.026c-4.39-2.966-8.128-6.704-11.1-11.102
		c-0.006-0.009-0.023-0.036-0.029-0.047c-1.323-2.077-1.026-4.76,0.728-6.514l0.63-0.629C2.574,3.7,3.139,3.467,3.74,3.467
		c0.602,0,1.167,0.234,1.591,0.658l2.652,2.651c0.425,0.425,0.659,0.99,0.658,1.592c0,0.602-0.234,1.167-0.659,1.591
		c-0.292,0.292-0.292,0.768,0,1.06l4.242,4.243c0.141,0.141,0.33,0.219,0.53,0.219c0.2,0,0.389-0.078,0.53-0.219
		c0.425-0.425,0.99-0.658,1.592-0.658s1.167,0.234,1.591,0.658l2.645,2.644c0.433,0.433,0.667,0.998,0.667,1.599
		c0,0.601-0.235,1.166-0.66,1.591l-0.628,0.629C17.496,22.722,16.179,23.271,14.785,23.271L14.785,23.271z M3.741,4.966
		c-0.201,0-0.389,0.078-0.53,0.219L2.58,5.815c-1.253,1.253-1.463,3.172-0.511,4.667c2.86,4.232,6.463,7.834,10.703,10.699
		c0.002,0.001,0.021,0.015,0.023,0.016c0.586,0.373,1.278,0.575,1.984,0.575c0.996,0,1.938-0.394,2.653-1.108l0.629-0.629
		c0.142-0.142,0.22-0.33,0.22-0.531c0-0.198-0.076-0.385-0.215-0.526l-2.658-2.656c-0.142-0.142-0.33-0.219-0.531-0.219
		s-0.389,0.078-0.53,0.219c-0.425,0.425-0.99,0.658-1.592,0.658c-0.601,0-1.166-0.234-1.591-0.658l-4.242-4.243
		c-0.877-0.877-0.877-2.304,0-3.182c0.142-0.142,0.22-0.33,0.22-0.53c0-0.2-0.078-0.389-0.219-0.531L4.271,5.186
		C4.13,5.044,3.941,4.966,3.741,4.966z"/>
	<path d="M12.732,9.762c-0.304,0-0.576-0.182-0.693-0.463c-0.116-0.281-0.053-0.602,0.162-0.817l3.92-3.921
		c0.232-0.233,0.36-0.542,0.36-0.87c0-0.787-0.642-1.428-1.429-1.428c-0.893,0-1.193,0.473-1.566,1.606l-0.043,0.13
		c-0.103,0.308-0.389,0.514-0.712,0.514l0,0c-0.081,0-0.16-0.013-0.237-0.039c-0.19-0.063-0.344-0.197-0.433-0.376
		c-0.089-0.179-0.104-0.382-0.041-0.572l0.042-0.126c0.303-0.921,0.867-2.637,2.991-2.637c1.615,0.001,2.928,1.315,2.929,2.929
		c-0.001,0.729-0.285,1.415-0.799,1.93l-2.64,2.641h2.69c0.414,0,0.75,0.336,0.75,0.75s-0.336,0.75-0.75,0.75H12.732z"/>
	<path d="M23.232,9.762c-0.414,0-0.75-0.336-0.75-0.75v-0.75h-3c-0.273,0-0.524-0.148-0.656-0.387
		c-0.132-0.238-0.125-0.529,0.02-0.76l3.75-6c0.138-0.221,0.375-0.353,0.636-0.353c0.07,0,0.139,0.01,0.207,0.029
		c0.32,0.092,0.543,0.388,0.543,0.721v7.5C23.982,9.426,23.646,9.762,23.232,9.762z M22.482,6.762V4.127l-1.647,2.635H22.482z"/>
</g>
</svg>
