<?xml version="1.0" encoding="utf-8"?>
<!-- Generator: Adobe Illustrator 22.1.0, SVG Export Plug-In . SVG Version: 6.00 Build 0)  -->
<svg version="1.1" id="Layer_1" xmlns="http://www.w3.org/2000/svg" xmlns:xlink="http://www.w3.org/1999/xlink" x="0px" y="0px"
	 viewBox="0 0 24 24" style="enable-background:new 0 0 24 24;" xml:space="preserve">
<title>phone-actions-restaurant</title>
<g>
	<path d="M14.785,24.021c-0.997,0-1.974-0.287-2.826-0.829l-0.038-0.026c-4.39-2.966-8.128-6.704-11.1-11.102
		c-0.006-0.009-0.023-0.036-0.029-0.047c-1.323-2.077-1.026-4.76,0.728-6.514l0.63-0.629C2.574,4.45,3.139,4.217,3.74,4.217
		c0.602,0,1.167,0.234,1.591,0.658l2.652,2.651c0.425,0.425,0.659,0.99,0.658,1.592c0,0.602-0.234,1.167-0.659,1.591
		c-0.292,0.292-0.292,0.768,0,1.06l4.242,4.243c0.141,0.141,0.329,0.219,0.53,0.219s0.389-0.078,0.53-0.219
		c0.425-0.425,0.99-0.658,1.592-0.658s1.167,0.234,1.591,0.658l2.645,2.644c0.433,0.433,0.667,0.998,0.667,1.599
		c0,0.601-0.235,1.166-0.66,1.591l-0.628,0.629C17.496,23.472,16.179,24.021,14.785,24.021L14.785,24.021z M3.741,5.716
		c-0.201,0-0.389,0.078-0.53,0.219L2.58,6.565c-1.253,1.253-1.463,3.172-0.511,4.667c2.86,4.232,6.463,7.834,10.703,10.699
		c0.002,0.001,0.021,0.015,0.023,0.016c0.586,0.373,1.278,0.575,1.984,0.575c0.996,0,1.938-0.394,2.653-1.108l0.629-0.629
		c0.142-0.142,0.22-0.33,0.22-0.531c0-0.198-0.076-0.385-0.215-0.526l-2.658-2.656c-0.142-0.142-0.33-0.219-0.531-0.219
		s-0.389,0.078-0.53,0.219c-0.425,0.425-0.99,0.658-1.592,0.658c-0.601,0-1.166-0.234-1.59-0.658l-4.242-4.243
		c-0.877-0.877-0.877-2.304,0-3.182c0.142-0.142,0.22-0.33,0.22-0.53c0-0.2-0.078-0.389-0.219-0.531L4.271,5.936
		C4.13,5.794,3.941,5.716,3.741,5.716z"/>
	<path d="M14.232,12.012c-0.414,0-0.75-0.336-0.75-0.75V6.685c-1.732-0.351-3-1.874-3-3.673v-2.25c0-0.414,0.336-0.75,0.75-0.75
		s0.75,0.336,0.75,0.75v2.25c0,0.96,0.621,1.805,1.5,2.118V0.762c0-0.414,0.336-0.75,0.75-0.75s0.75,0.336,0.75,0.75V5.13
		c0.879-0.313,1.5-1.158,1.5-2.118v-2.25c0-0.414,0.336-0.75,0.75-0.75s0.75,0.336,0.75,0.75v2.25c0,1.799-1.268,3.323-3,3.673
		v4.577C14.982,11.676,14.646,12.012,14.232,12.012z"/>
	<path d="M23.232,12.012c-0.414,0-0.75-0.336-0.75-0.75v-2.25h-3c-0.218,0-0.424-0.094-0.566-0.259
		c-0.142-0.164-0.207-0.381-0.176-0.597c0.425-2.982,1.832-5.797,3.962-7.925c0.142-0.142,0.33-0.219,0.531-0.219
		c0.099,0,0.196,0.019,0.287,0.057c0.281,0.117,0.463,0.389,0.463,0.693v10.5C23.982,11.676,23.646,12.012,23.232,12.012z
		 M22.482,7.512V2.794c-1.021,1.409-1.739,3.016-2.104,4.718H22.482z"/>
</g>
</svg>
