<?xml version="1.0" encoding="utf-8"?>
<!-- Generator: Adobe Illustrator 22.1.0, SVG Export Plug-In . SVG Version: 6.00 Build 0)  -->
<svg version="1.1" id="Layer_1" xmlns="http://www.w3.org/2000/svg" xmlns:xlink="http://www.w3.org/1999/xlink" x="0px" y="0px"
	 viewBox="0 0 24 24" style="enable-background:new 0 0 24 24;" xml:space="preserve">
<title>phone-actions-refresh</title>
<g>
	<path d="M14.786,24.021c-0.997,0-1.974-0.287-2.826-0.829l-0.038-0.026c-4.39-2.966-8.128-6.704-11.1-11.102
		c-0.006-0.009-0.023-0.036-0.029-0.047c-1.323-2.077-1.026-4.76,0.728-6.514l0.63-0.629C2.574,4.45,3.139,4.217,3.74,4.217
		c0.602,0,1.167,0.234,1.591,0.658l2.652,2.651c0.426,0.426,0.66,0.991,0.659,1.592c0,0.601-0.234,1.166-0.66,1.591
		c-0.292,0.292-0.292,0.768,0,1.06l4.242,4.243c0.141,0.141,0.33,0.219,0.531,0.219c0.201,0,0.389-0.078,0.531-0.219
		c0.424-0.424,0.989-0.658,1.591-0.658s1.167,0.234,1.591,0.658l2.646,2.643c0.433,0.433,0.667,0.999,0.667,1.6
		c0,0.601-0.234,1.166-0.66,1.591l-0.63,0.629C17.495,23.472,16.179,24.021,14.786,24.021z M3.741,5.716
		c-0.201,0-0.389,0.078-0.53,0.219L2.58,6.565c-1.253,1.253-1.463,3.172-0.511,4.667c2.86,4.232,6.463,7.834,10.703,10.699
		c0.002,0.001,0.021,0.015,0.023,0.016c0.586,0.373,1.278,0.575,1.984,0.575c0.996,0,1.938-0.394,2.653-1.108l0.63-0.63
		c0.142-0.141,0.219-0.33,0.219-0.53c0-0.198-0.076-0.385-0.215-0.526l-2.659-2.656c-0.141-0.142-0.33-0.219-0.53-0.219
		s-0.389,0.078-0.53,0.219c-0.424,0.425-0.99,0.658-1.591,0.658c-0.601,0-1.166-0.233-1.59-0.657l-4.243-4.244
		c-0.877-0.877-0.877-2.304,0-3.182c0.293-0.292,0.293-0.768,0.001-1.061L4.271,5.936C4.13,5.794,3.941,5.716,3.741,5.716z"/>
	<path d="M17.982,12.012c-0.414,0-0.75-0.336-0.75-0.75s0.336-0.75,0.75-0.75c2.481,0,4.5-2.019,4.5-4.5s-2.019-4.5-4.5-4.5
		c-2.373,0-4.323,1.846-4.489,4.178l1.708-1.708c0.142-0.142,0.33-0.22,0.53-0.22s0.389,0.078,0.53,0.22
		c0.142,0.141,0.22,0.33,0.22,0.53s-0.078,0.389-0.22,0.53l-3,3c-0.07,0.07-0.153,0.125-0.245,0.163
		c-0.007,0.003-0.016,0.006-0.024,0.009c-0.081,0.031-0.171,0.048-0.262,0.048c-0.089,0-0.176-0.016-0.261-0.048
		c-0.011-0.004-0.022-0.008-0.032-0.012c-0.085-0.035-0.167-0.09-0.238-0.16l-3-3c-0.142-0.141-0.22-0.33-0.22-0.53
		s0.078-0.389,0.22-0.53c0.141-0.142,0.33-0.22,0.53-0.22s0.389,0.078,0.53,0.22l1.727,1.727c0.158-3.168,2.786-5.697,5.992-5.697
		c3.308,0,6,2.692,6,6S21.29,12.012,17.982,12.012z"/>
</g>
</svg>
