<?xml version="1.0" encoding="utf-8"?>
<!-- Generator: Adobe Illustrator 22.1.0, SVG Export Plug-In . SVG Version: 6.00 Build 0)  -->
<svg version="1.1" id="Layer_1" xmlns="http://www.w3.org/2000/svg" xmlns:xlink="http://www.w3.org/1999/xlink" x="0px" y="0px"
	 viewBox="0 0 24 24" style="enable-background:new 0 0 24 24;" xml:space="preserve">
<title>phone-actions-receive</title>
<g>
	<path d="M15.16,23.646c-0.997,0-1.974-0.287-2.826-0.829l-0.036-0.024c-4.393-2.969-8.13-6.706-11.103-11.104
		c-0.006-0.009-0.023-0.036-0.029-0.047c-1.323-2.077-1.026-4.76,0.728-6.514l0.63-0.629c0.424-0.424,0.989-0.658,1.59-0.658
		c0.602,0,1.167,0.234,1.591,0.658l2.652,2.651c0.425,0.425,0.659,0.99,0.658,1.592c0,0.602-0.234,1.167-0.659,1.591
		c-0.292,0.292-0.292,0.768,0,1.06l4.244,4.243c0.141,0.141,0.33,0.219,0.53,0.219c0.201,0,0.389-0.078,0.53-0.219
		c0.425-0.425,0.99-0.658,1.592-0.658s1.167,0.234,1.591,0.658l2.644,2.644c0.433,0.433,0.667,0.998,0.667,1.599
		c0,0.601-0.235,1.166-0.66,1.591l-0.628,0.629C17.871,23.097,16.554,23.646,15.16,23.646L15.16,23.646z M4.116,5.341
		c-0.201,0-0.389,0.078-0.53,0.219L2.955,6.19c-1.253,1.253-1.463,3.172-0.511,4.667c2.86,4.232,6.463,7.834,10.703,10.699
		c0.002,0.001,0.021,0.015,0.023,0.016c0.586,0.373,1.278,0.575,1.984,0.575c0.996,0,1.938-0.393,2.652-1.108l0.629-0.629
		c0.142-0.142,0.22-0.33,0.22-0.531c0-0.198-0.076-0.385-0.215-0.526l-2.656-2.656c-0.142-0.142-0.33-0.219-0.531-0.219
		s-0.389,0.078-0.53,0.219c-0.425,0.425-0.99,0.658-1.592,0.658c-0.601,0-1.166-0.234-1.591-0.658l-4.244-4.243
		c-0.877-0.877-0.877-2.304,0-3.182c0.142-0.142,0.22-0.33,0.22-0.53c0-0.2-0.078-0.389-0.219-0.531L4.646,5.561
		C4.505,5.419,4.316,5.341,4.116,5.341z"/>
	<path d="M13.107,11.637c-0.089,0-0.176-0.016-0.261-0.048c-0.011-0.004-0.022-0.008-0.032-0.012
		c-0.176-0.072-0.324-0.221-0.4-0.404c-0.003-0.008-0.007-0.017-0.01-0.026c-0.031-0.082-0.047-0.17-0.047-0.259v-6
		c0-0.414,0.336-0.75,0.75-0.75s0.75,0.336,0.75,0.75v4.189l8.47-8.47c0.142-0.142,0.33-0.22,0.53-0.22s0.389,0.078,0.53,0.22
		c0.142,0.141,0.22,0.33,0.22,0.53s-0.078,0.389-0.22,0.53l-8.47,8.47h4.189c0.414,0,0.75,0.336,0.75,0.75s-0.336,0.75-0.75,0.75
		H13.107z"/>
</g>
</svg>
