<?xml version="1.0" encoding="utf-8"?>
<!-- Generator: Adobe Illustrator 22.1.0, SVG Export Plug-In . SVG Version: 6.00 Build 0)  -->
<svg version="1.1" id="Layer_1" xmlns="http://www.w3.org/2000/svg" xmlns:xlink="http://www.w3.org/1999/xlink" x="0px" y="0px"
	 viewBox="0 0 24 24" style="enable-background:new 0 0 24 24;" xml:space="preserve">
<title>phone-actions-receive-1</title>
<g>
	<path d="M13.42,24.014c-2.876,0-5.867-1.533-8.891-4.557C-0.4,14.526-1.361,9.687,1.75,5.463c0.069-0.092,0.142-0.175,0.219-0.251
		c0.423-0.42,0.985-0.651,1.583-0.651C4.163,4.564,4.727,4.8,5.15,5.227l3.091,3.092C8.666,8.745,8.9,9.31,8.9,9.911
		c0,0.601-0.234,1.166-0.66,1.591l-1.591,1.591c-0.707,0.707-1.649,1.096-2.651,1.096c-0.633,0-1.242-0.155-1.783-0.448
		c0.672,1.522,1.803,3.083,3.375,4.655c1.572,1.572,3.132,2.703,4.654,3.375c-0.294-0.542-0.45-1.151-0.45-1.784
		c0-1.001,0.39-1.943,1.099-2.651l1.591-1.591c0.425-0.425,0.99-0.658,1.592-0.658s1.167,0.234,1.591,0.658l3.094,3.094
		c0.072,0.071,0.143,0.151,0.208,0.237c0.75,0.99,0.556,2.404-0.432,3.154C16.926,23.414,15.206,24.014,13.42,24.014z
		 M12.852,22.472c0.198,0.017,0.396,0.026,0.59,0.026c1.458,0,2.87-0.495,4.196-1.471c0.323-0.245,0.386-0.715,0.136-1.044
		c-0.021-0.028-0.045-0.055-0.071-0.081l-3.098-3.098c-0.142-0.142-0.33-0.219-0.531-0.219s-0.389,0.078-0.53,0.219l-1.592,1.592
		c-0.877,0.877-0.877,2.305,0,3.182L12.852,22.472z M2.408,12.032c0.424,0.424,0.989,0.657,1.591,0.657s1.167-0.233,1.591-0.657
		l1.591-1.591c0.142-0.142,0.22-0.33,0.22-0.531S7.322,9.522,7.18,9.38L4.087,6.285C3.944,6.141,3.755,6.062,3.555,6.061l0,0
		c-0.204,0-0.388,0.075-0.531,0.217c-0.026,0.025-0.049,0.052-0.07,0.08c-1.102,1.497-1.587,3.105-1.44,4.78L2.408,12.032z"/>
	<path d="M13.477,11.258c-0.089,0-0.176-0.016-0.261-0.048c-0.011-0.004-0.022-0.008-0.032-0.012
		c-0.176-0.072-0.324-0.221-0.4-0.404c-0.003-0.008-0.007-0.017-0.01-0.026c-0.031-0.081-0.047-0.17-0.047-0.26v-6
		c0-0.414,0.336-0.75,0.75-0.75s0.75,0.336,0.75,0.75v4.189l8.47-8.47c0.142-0.142,0.33-0.22,0.53-0.22s0.389,0.078,0.53,0.22
		c0.142,0.141,0.22,0.33,0.22,0.53s-0.078,0.389-0.22,0.53l-8.47,8.47h4.189c0.414,0,0.75,0.336,0.75,0.75s-0.336,0.75-0.75,0.75
		H13.477z"/>
</g>
</svg>
