<?xml version="1.0" encoding="utf-8"?>
<!-- Generator: Adobe Illustrator 22.1.0, SVG Export Plug-In . SVG Version: 6.00 Build 0)  -->
<svg version="1.1" id="Layer_1" xmlns="http://www.w3.org/2000/svg" xmlns:xlink="http://www.w3.org/1999/xlink" x="0px" y="0px"
	 viewBox="0 0 24 24" style="enable-background:new 0 0 24 24;" xml:space="preserve">
<title>phone-actions-24-support-1</title>
<g>
	<path d="M13.419,23.264c-2.876,0-5.867-1.533-8.891-4.557c-4.93-4.932-5.891-9.771-2.779-13.995
		c0.071-0.094,0.141-0.174,0.219-0.25c0.424-0.418,0.985-0.649,1.58-0.649C4.164,3.816,4.727,4.053,5.15,4.481l3.084,3.078
		C8.665,7.99,8.899,8.556,8.899,9.157c0,0.601-0.234,1.166-0.66,1.591l-1.591,1.591C5.941,13.045,5,13.435,3.997,13.435
		c-0.634,0-1.244-0.156-1.786-0.449c0.672,1.523,1.804,3.086,3.378,4.66c1.573,1.573,3.134,2.704,4.657,3.376
		c-0.768-1.421-0.553-3.238,0.646-4.437l1.59-1.591c0.425-0.425,0.99-0.658,1.592-0.658s1.167,0.234,1.591,0.658l3.094,3.094
		c0.072,0.071,0.143,0.151,0.208,0.237c0.75,0.99,0.556,2.404-0.432,3.154C16.925,22.664,15.205,23.264,13.419,23.264z
		 M12.847,21.721c0.198,0.018,0.397,0.026,0.592,0.026c1.46,0,2.872-0.495,4.198-1.471c0.323-0.245,0.386-0.715,0.136-1.044
		c-0.021-0.028-0.045-0.055-0.071-0.081l-3.098-3.098c-0.142-0.142-0.33-0.219-0.531-0.219s-0.389,0.078-0.53,0.219l-1.59,1.592
		c-0.877,0.877-0.878,2.305,0,3.182L12.847,21.721z M2.406,11.277c0.425,0.424,0.99,0.658,1.592,0.658
		c0.602,0,1.167-0.234,1.591-0.657l1.591-1.591c0.142-0.142,0.22-0.33,0.22-0.531c0-0.199-0.077-0.386-0.217-0.527l-3.096-3.09
		C3.942,5.393,3.754,5.313,3.553,5.312L3.516,5.311c-0.177,0-0.352,0.077-0.494,0.217c-0.025,0.025-0.049,0.052-0.07,0.08
		C1.85,7.104,1.365,8.711,1.512,10.386L2.406,11.277z"/>
	<path d="M12.729,9.758c-0.304,0-0.576-0.182-0.693-0.463c-0.116-0.281-0.053-0.602,0.162-0.817l3.92-3.921
		c0.232-0.232,0.36-0.541,0.36-0.87c0-0.788-0.641-1.429-1.429-1.429c-0.894,0-1.194,0.473-1.566,1.606l-0.043,0.13
		c-0.103,0.308-0.389,0.514-0.712,0.514l0,0c-0.081,0-0.161-0.013-0.238-0.039c-0.189-0.063-0.343-0.197-0.433-0.376
		c-0.089-0.179-0.104-0.382-0.041-0.572l0.042-0.126c0.303-0.921,0.867-2.637,2.991-2.637c1.615,0,2.929,1.314,2.929,2.929
		c0,0.729-0.284,1.415-0.8,1.93l-2.64,2.641h2.69c0.414,0,0.75,0.336,0.75,0.75s-0.336,0.75-0.75,0.75H12.729z"/>
	<path d="M23.226,9.758c-0.414,0-0.75-0.336-0.75-0.75v-0.75h-2.997c-0.273,0-0.524-0.148-0.656-0.387
		c-0.132-0.238-0.125-0.53,0.02-0.761l3.747-6c0.138-0.221,0.376-0.353,0.636-0.353c0.07,0,0.14,0.01,0.207,0.029
		c0.319,0.092,0.543,0.388,0.543,0.721v7.5C23.976,9.422,23.64,9.758,23.226,9.758z M22.476,6.758V4.125l-1.645,2.633H22.476z"/>
</g>
</svg>
