<?xml version="1.0" encoding="utf-8"?>
<!-- Generator: Adobe Illustrator 22.1.0, SVG Export Plug-In . SVG Version: 6.00 Build 0)  -->
<svg version="1.1" id="Layer_1" xmlns="http://www.w3.org/2000/svg" xmlns:xlink="http://www.w3.org/1999/xlink" x="0px" y="0px"
	 viewBox="0 0 24 24" style="enable-background:new 0 0 24 24;" xml:space="preserve">
<title>phone-actions-refresh-1</title>
<g>
	<path d="M13.418,24.015c-2.876,0-5.867-1.534-8.89-4.558C-0.4,14.526-1.361,9.687,1.75,5.464c0.068-0.091,0.141-0.174,0.217-0.25
		c0.424-0.42,0.987-0.652,1.584-0.652C4.162,4.564,4.726,4.801,5.15,5.228L8.241,8.32C8.666,8.745,8.9,9.311,8.9,9.912
		c0,0.601-0.234,1.166-0.66,1.591l-1.591,1.591C5.942,13.8,5.001,14.19,3.998,14.19c-0.633,0-1.242-0.155-1.783-0.448
		c0.672,1.522,1.803,3.083,3.374,4.655c1.573,1.574,3.135,2.705,4.658,3.377c-0.769-1.422-0.554-3.239,0.646-4.438l1.59-1.591
		c0.425-0.425,0.99-0.658,1.592-0.658s1.167,0.234,1.591,0.658l3.094,3.094c0.072,0.07,0.142,0.151,0.208,0.237
		c0.364,0.479,0.518,1.071,0.436,1.667c-0.082,0.596-0.391,1.124-0.869,1.486C16.925,23.415,15.204,24.015,13.418,24.015
		L13.418,24.015z M12.848,22.473c0.197,0.017,0.394,0.026,0.588,0.026c1.462,0,2.876-0.495,4.202-1.471
		c0.153-0.116,0.255-0.291,0.282-0.489c0.027-0.199-0.024-0.396-0.145-0.555c-0.021-0.028-0.045-0.055-0.071-0.081l-3.098-3.098
		c-0.142-0.142-0.33-0.219-0.531-0.219s-0.389,0.078-0.53,0.219l-1.59,1.592c-0.877,0.877-0.878,2.305,0,3.182L12.848,22.473z
		 M2.408,12.033c0.424,0.424,0.989,0.657,1.591,0.657s1.167-0.234,1.591-0.658l1.591-1.591C7.322,10.3,7.4,10.111,7.4,9.911
		S7.322,9.522,7.18,9.381L4.087,6.286C3.944,6.142,3.755,6.063,3.555,6.062l0,0c-0.204,0-0.388,0.075-0.531,0.217
		C2.998,6.304,2.975,6.331,2.953,6.36c-1.102,1.496-1.586,3.104-1.439,4.778L2.408,12.033z"/>
	<path d="M17.977,12.009c-0.414,0-0.75-0.336-0.75-0.75s0.336-0.75,0.75-0.75c2.481,0,4.5-2.019,4.5-4.5s-2.019-4.5-4.5-4.5
		c-2.373,0-4.323,1.846-4.489,4.178l1.708-1.708c0.142-0.142,0.33-0.22,0.53-0.22s0.389,0.078,0.53,0.22
		c0.142,0.141,0.22,0.33,0.22,0.53s-0.078,0.389-0.22,0.53l-3,3c-0.07,0.07-0.153,0.125-0.245,0.163
		c-0.007,0.003-0.016,0.006-0.024,0.009c-0.081,0.031-0.171,0.048-0.262,0.048c-0.089,0-0.176-0.016-0.261-0.048
		c-0.011-0.004-0.022-0.008-0.032-0.012c-0.085-0.035-0.167-0.09-0.238-0.16l-3-3c-0.142-0.141-0.22-0.33-0.22-0.53
		s0.078-0.389,0.22-0.53c0.141-0.142,0.33-0.22,0.53-0.22s0.389,0.078,0.53,0.22l1.727,1.727c0.158-3.168,2.786-5.697,5.992-5.697
		c3.308,0,6,2.692,6,6S21.285,12.009,17.977,12.009z"/>
</g>
</svg>
