<?xml version="1.0" encoding="utf-8"?>
<!-- Generator: Adobe Illustrator 22.1.0, SVG Export Plug-In . SVG Version: 6.00 Build 0)  -->
<svg version="1.1" id="Layer_1" xmlns="http://www.w3.org/2000/svg" xmlns:xlink="http://www.w3.org/1999/xlink" x="0px" y="0px"
	 viewBox="0 0 24 24" style="enable-background:new 0 0 24 24;" xml:space="preserve">
<title>phone-actions-pause-1</title>
<g>
	<path d="M13.42,24.014c-2.876,0-5.867-1.533-8.891-4.557C-0.4,14.526-1.361,9.687,1.75,5.463c0.069-0.092,0.142-0.175,0.219-0.251
		c0.423-0.42,0.985-0.651,1.583-0.651C4.163,4.564,4.727,4.8,5.15,5.227l3.091,3.092C8.666,8.745,8.9,9.31,8.9,9.911
		c0,0.601-0.234,1.166-0.66,1.591l-1.591,1.591c-0.707,0.707-1.649,1.096-2.651,1.096c-0.633,0-1.242-0.155-1.783-0.448
		c0.672,1.522,1.803,3.083,3.375,4.655c1.573,1.573,3.134,2.704,4.657,3.376c-0.768-1.421-0.553-3.238,0.646-4.437l1.59-1.591
		c0.425-0.425,0.99-0.658,1.592-0.658s1.167,0.234,1.591,0.658l3.094,3.094c0.072,0.071,0.143,0.151,0.208,0.237
		c0.75,0.99,0.556,2.404-0.432,3.154C16.926,23.414,15.206,24.014,13.42,24.014z M12.848,22.471
		c0.198,0.017,0.396,0.026,0.591,0.026c1.461,0,2.874-0.495,4.199-1.47c0.323-0.245,0.386-0.715,0.136-1.044
		c-0.021-0.028-0.045-0.055-0.071-0.081l-3.098-3.098c-0.142-0.142-0.33-0.219-0.531-0.219s-0.389,0.078-0.53,0.219l-1.59,1.592
		c-0.877,0.877-0.878,2.305,0,3.182L12.848,22.471z M2.408,12.032c0.424,0.424,0.989,0.657,1.591,0.657s1.167-0.233,1.591-0.657
		l1.591-1.591c0.142-0.142,0.22-0.33,0.22-0.531S7.322,9.522,7.18,9.38L4.087,6.285C3.944,6.141,3.755,6.062,3.555,6.061l0,0
		c-0.204,0-0.388,0.075-0.531,0.217c-0.026,0.025-0.049,0.052-0.07,0.08c-1.102,1.497-1.587,3.105-1.44,4.78L2.408,12.032z"/>
	<path d="M15.727,9.758c-1.241,0-2.25-1.009-2.25-2.25v-5.25c0-1.241,1.009-2.25,2.25-2.25s2.25,1.009,2.25,2.25v5.25
		C17.977,8.749,16.968,9.758,15.727,9.758z M15.727,1.508c-0.414,0-0.75,0.336-0.75,0.75v5.25c0,0.414,0.336,0.75,0.75,0.75
		c0.414,0,0.75-0.336,0.75-0.75v-5.25C16.477,1.845,16.141,1.508,15.727,1.508z"/>
	<path d="M21.727,9.758c-1.241,0-2.25-1.009-2.25-2.25v-5.25c0-1.241,1.009-2.25,2.25-2.25s2.25,1.009,2.25,2.25v5.25
		C23.977,8.749,22.968,9.758,21.727,9.758z M21.727,1.508c-0.414,0-0.75,0.336-0.75,0.75v5.25c0,0.414,0.336,0.75,0.75,0.75
		s0.75-0.336,0.75-0.75v-5.25C22.477,1.845,22.141,1.508,21.727,1.508z"/>
</g>
</svg>
