<?xml version="1.0" encoding="utf-8"?>
<!-- Generator: Adobe Illustrator 22.1.0, SVG Export Plug-In . SVG Version: 6.00 Build 0)  -->
<svg version="1.1" id="Layer_1" xmlns="http://www.w3.org/2000/svg" xmlns:xlink="http://www.w3.org/1999/xlink" x="0px" y="0px"
	 viewBox="0 0 24 24" style="enable-background:new 0 0 24 24;" xml:space="preserve">
<title>phone-actions-off-1</title>
<g>
	<path d="M0.75,24c-0.2,0-0.389-0.078-0.53-0.22c-0.292-0.292-0.292-0.768,0-1.061l22.5-22.5C22.861,0.078,23.05,0,23.25,0
		s0.389,0.078,0.53,0.22C23.922,0.361,24,0.55,24,0.75s-0.078,0.389-0.22,0.53l-22.5,22.5C1.139,23.922,0.95,24,0.75,24z"/>
	<path d="M16.764,23.695c-0.353,0-0.714-0.019-1.073-0.058c-0.02,0.002-0.04,0.002-0.06,0.002c-0.082,0-0.162-0.013-0.239-0.039
		c-2.241-0.305-4.547-1.354-6.854-3.12c-0.328-0.252-0.391-0.723-0.14-1.052c0.143-0.187,0.36-0.294,0.596-0.294
		c0.166,0,0.323,0.053,0.455,0.154c1.299,0.994,2.583,1.741,3.831,2.23c-1.256-1.743-1.101-4.196,0.464-5.764l1.969-1.968
		c0.492-0.492,1.146-0.762,1.843-0.762s1.351,0.271,1.842,0.762l3.829,3.828c0.083,0.082,0.163,0.173,0.237,0.27
		c0.421,0.553,0.603,1.239,0.509,1.93c-0.093,0.691-0.45,1.305-1.003,1.727C21.03,22.972,18.943,23.695,16.764,23.695z
		 M15.981,22.18c0.258,0.024,0.517,0.036,0.772,0.036c1.84,0,3.63-0.63,5.32-1.874c0.479-0.365,0.571-1.061,0.199-1.548
		c-0.03-0.04-0.064-0.078-0.1-0.114l-3.832-3.832c-0.208-0.208-0.487-0.323-0.782-0.323s-0.573,0.115-0.782,0.323l-1.969,1.968
		c-1.154,1.155-1.154,3.034,0,4.189L15.981,22.18z"/>
	<path d="M4.108,15.75c-0.236,0-0.453-0.107-0.596-0.294c-1.783-2.334-2.834-4.666-3.124-6.932c-0.006-0.033-0.01-0.066-0.012-0.099
		C0.067,5.815,0.765,3.33,2.451,1.039C2.531,0.933,2.612,0.841,2.7,0.754c0.491-0.487,1.143-0.755,1.834-0.755
		c0.71,0.004,1.364,0.278,1.854,0.773l3.826,3.826c0.492,0.492,0.763,1.147,0.763,1.843s-0.271,1.351-0.763,1.843l-1.969,1.969
		c-0.843,0.843-1.964,1.307-3.155,1.307c-0.95,0-1.855-0.295-2.61-0.841c0.488,1.247,1.232,2.528,2.224,3.826
		c0.251,0.329,0.188,0.8-0.14,1.052C4.431,15.697,4.273,15.75,4.108,15.75z M2.995,9.193c0.559,0.56,1.303,0.868,2.094,0.868
		c0.791,0,1.535-0.308,2.095-0.867l1.969-1.969c0.209-0.209,0.324-0.487,0.324-0.782S9.363,5.869,9.154,5.66L5.325,1.831
		c-0.21-0.212-0.487-0.329-0.782-0.331c-0.308,0.004-0.58,0.115-0.788,0.32C3.718,1.856,3.683,1.896,3.652,1.937
		C2.244,3.852,1.627,5.898,1.821,8.018L2.995,9.193z"/>
</g>
</svg>
