<?xml version="1.0" encoding="utf-8"?>
<!-- Generator: Adobe Illustrator 22.1.0, SVG Export Plug-In . SVG Version: 6.00 Build 0)  -->
<svg version="1.1" id="Layer_1" xmlns="http://www.w3.org/2000/svg" xmlns:xlink="http://www.w3.org/1999/xlink" x="0px" y="0px"
	 viewBox="0 0 24 24" style="enable-background:new 0 0 24 24;" xml:space="preserve">
<title>audio-file-share</title>
<g>
	<path d="M21,24c-1.654,0-3-1.346-3-3c0-0.125,0.009-0.253,0.026-0.382l-2.111-0.845C15.353,20.537,14.454,21,13.5,21
		c-1.654,0-3-1.346-3-3s1.346-3,3-3c0.794,0,1.544,0.311,2.104,0.863l2.52-1.512C18.041,14.076,18,13.791,18,13.5
		c0-1.654,1.346-3,3-3s3,1.346,3,3c0,1.654-1.346,3-3,3c-0.794,0-1.544-0.311-2.104-0.863l-2.52,1.512
		C16.459,17.424,16.5,17.709,16.5,18c0,0.125-0.009,0.253-0.026,0.382l2.111,0.845C19.147,18.463,20.046,18,21,18
		c1.654,0,3,1.346,3,3S22.654,24,21,24z M21,19.5c-0.615,0-1.161,0.371-1.392,0.944C19.536,20.623,19.5,20.81,19.5,21
		c0,0.827,0.673,1.5,1.5,1.5s1.5-0.673,1.5-1.5S21.827,19.5,21,19.5z M13.5,16.5c-0.827,0-1.5,0.673-1.5,1.5s0.673,1.5,1.5,1.5
		c0.615,0,1.161-0.371,1.392-0.944C14.964,18.377,15,18.19,15,18c0-0.257-0.068-0.511-0.196-0.737
		c-0.008-0.011-0.015-0.021-0.021-0.031c-0.009-0.015-0.016-0.028-0.021-0.04C14.493,16.764,14.019,16.5,13.5,16.5z M19.738,14.306
		C20.006,14.735,20.481,15,21,15c0.827,0,1.5-0.673,1.5-1.5S21.827,12,21,12s-1.5,0.673-1.5,1.5c0,0.256,0.067,0.509,0.195,0.734
		c0.006,0.008,0.017,0.023,0.026,0.04C19.726,14.282,19.732,14.295,19.738,14.306z"/>
	<path d="M2.25,21C1.009,21,0,19.991,0,18.75V2.25C0,1.009,1.009,0,2.25,0h10.629c0.601,0,1.165,0.234,1.59,0.658l2.872,2.872
		C17.766,3.955,18,4.52,18,5.121V8.25C18,8.664,17.664,9,17.25,9S16.5,8.664,16.5,8.25V5.121c0-0.197-0.08-0.39-0.219-0.53
		l-2.872-2.872c-0.142-0.141-0.33-0.219-0.53-0.219H2.25C1.836,1.5,1.5,1.836,1.5,2.25v16.5c0,0.414,0.336,0.75,0.75,0.75h6
		C8.664,19.5,9,19.836,9,20.25S8.664,21,8.25,21H2.25z"/>
	<path d="M6,15c-1.682,0-3-0.988-3-2.25s1.318-2.25,3-2.25c0.495,0,0.974,0.087,1.4,0.252L7.206,6.858
		c-0.02-0.397,0.274-0.741,0.67-0.783l1.062-0.113c0.119-0.012,0.24-0.019,0.359-0.019c1.199,0,2.328,0.636,2.946,1.659
		c0.214,0.354,0.099,0.816-0.254,1.03C11.871,8.703,11.737,8.74,11.6,8.74c0,0,0,0,0,0c-0.261,0-0.507-0.139-0.642-0.363
		C10.61,7.801,9.974,7.443,9.299,7.443c-0.067,0-0.135,0.004-0.203,0.011L8.739,7.492c0,0,0.261,5.253,0.261,5.258
		C9,14.012,7.682,15,6,15z M6,12c-0.845,0-1.5,0.403-1.5,0.75S5.155,13.5,6,13.5c0.843,0,1.498-0.403,1.5-0.749
		C7.493,12.401,6.837,12,6,12z"/>
</g>
</svg>
