<?xml version="1.0" encoding="utf-8"?>
<!-- Generator: Adobe Illustrator 22.1.0, SVG Export Plug-In . SVG Version: 6.00 Build 0)  -->
<svg version="1.1" id="Layer_1" xmlns="http://www.w3.org/2000/svg" xmlns:xlink="http://www.w3.org/1999/xlink" x="0px" y="0px"
	 viewBox="0 0 24 24" style="enable-background:new 0 0 24 24;" xml:space="preserve">
<title>audio-file-mp3</title>
<g>
	<path d="M1.5,24c-0.414,0-0.75-0.336-0.75-0.75v-21C0.75,1.009,1.76,0,3,0h10.629c0.601,0,1.165,0.234,1.59,0.658l5.872,5.872
		c0.425,0.425,0.659,0.99,0.659,1.59v4.629c0,0.414-0.336,0.75-0.75,0.75s-0.75-0.336-0.75-0.75V9H15c-1.241,0-2.25-1.009-2.25-2.25
		V1.5H3c-0.414,0-0.75,0.336-0.75,0.75v21C2.25,23.664,1.914,24,1.5,24z M14.25,6.75c0,0.414,0.336,0.75,0.75,0.75h4.939
		L14.25,1.811V6.75z"/>
	<path d="M9,24c-0.414,0-0.75-0.336-0.75-0.75v-4.792l-0.857,1.428C7.259,20.11,7.012,20.25,6.75,20.25s-0.509-0.14-0.643-0.364
		L5.25,18.458v4.792C5.25,23.664,4.914,24,4.5,24s-0.75-0.336-0.75-0.75v-7.5c0-0.336,0.226-0.633,0.55-0.723
		C4.365,15.009,4.433,15,4.501,15c0.261,0,0.507,0.14,0.642,0.364l1.607,2.678l1.607-2.678C8.492,15.139,8.738,15,9,15
		c0.068,0,0.136,0.01,0.201,0.028c0.323,0.089,0.549,0.386,0.549,0.722v7.5C9.75,23.664,9.414,24,9,24z"/>
	<path d="M12,24c-0.414,0-0.75-0.336-0.75-0.75v-7.5c0-0.414,0.336-0.75,0.75-0.75h0.75c1.654,0,3,1.346,3,3s-1.346,3-3,3v2.25
		C12.75,23.664,12.414,24,12,24z M12.75,19.5c0.827,0,1.5-0.673,1.5-1.5s-0.673-1.5-1.5-1.5V19.5z"/>
	<path d="M19.5,23.995c-1.241,0-2.25-1.009-2.25-2.25c0-0.414,0.336-0.75,0.75-0.75s0.75,0.336,0.75,0.75s0.336,0.75,0.75,0.75
		h1.135c0.586-0.015,1.063-0.498,1.075-1.099c0.007-0.3-0.104-0.584-0.312-0.801c-0.208-0.217-0.487-0.339-0.787-0.345
		c-0.405-0.009-0.734-0.345-0.734-0.75s0.329-0.741,0.734-0.75c0.602-0.012,1.084-0.493,1.099-1.094
		c0.008-0.3-0.102-0.585-0.308-0.802c-0.207-0.218-0.486-0.342-0.786-0.349l-1.12-0.005c-0.411,0-0.747,0.336-0.747,0.75
		S18.414,18,18,18s-0.75-0.336-0.75-0.75c0-1.241,1.009-2.25,2.25-2.25l1.138,0.005c0.713,0.018,1.368,0.307,1.85,0.815
		c0.483,0.508,0.739,1.173,0.721,1.874c-0.018,0.687-0.304,1.334-0.785,1.807c0.019,0.018,0.037,0.037,0.055,0.056
		c0.485,0.505,0.744,1.17,0.73,1.87c-0.03,1.404-1.152,2.532-2.556,2.568c-0.003,0-0.006,0-0.01,0H19.5z"/>
</g>
</svg>
