<?xml version="1.0" encoding="utf-8"?>
<!-- Generator: Adobe Illustrator 22.1.0, SVG Export Plug-In . SVG Version: 6.00 Build 0)  -->
<svg version="1.1" id="Layer_1" xmlns="http://www.w3.org/2000/svg" xmlns:xlink="http://www.w3.org/1999/xlink" x="0px" y="0px"
	 viewBox="0 0 24 24" style="enable-background:new 0 0 24 24;" xml:space="preserve">
<title>audio-document-mp3</title>
<g>
	<path d="M1.5,4.5c-0.414,0-0.75-0.336-0.75-0.75S1.086,3,1.5,3h21c0.414,0,0.75,0.336,0.75,0.75S22.914,4.5,22.5,4.5H1.5z"/>
	<path d="M1.5,21c-0.414,0-0.75-0.336-0.75-0.75S1.086,19.5,1.5,19.5h21c0.414,0,0.75,0.336,0.75,0.75S22.914,21,22.5,21H1.5z"/>
	<path d="M7.5,16.5c-0.414,0-0.75-0.336-0.75-0.75v-4.792l-0.857,1.428C5.758,12.611,5.512,12.75,5.25,12.75
		s-0.508-0.139-0.643-0.364L3.75,10.958v4.792c0,0.414-0.336,0.75-0.75,0.75s-0.75-0.336-0.75-0.75v-7.5
		c0-0.336,0.226-0.633,0.55-0.723C2.866,7.509,2.932,7.5,3,7.5c0.262,0,0.509,0.139,0.643,0.364l1.607,2.678l1.607-2.678
		C6.992,7.64,7.239,7.5,7.501,7.5c0.067,0,0.134,0.009,0.198,0.027C8.024,7.617,8.25,7.914,8.25,8.25v7.5
		C8.25,16.164,7.914,16.5,7.5,16.5z"/>
	<path d="M10.5,16.5c-0.414,0-0.75-0.336-0.75-0.75v-7.5c0-0.414,0.336-0.75,0.75-0.75h0.75c1.654,0,3,1.346,3,3s-1.346,3-3,3v2.25
		C11.25,16.164,10.914,16.5,10.5,16.5z M11.25,12c0.827,0,1.5-0.673,1.5-1.5S12.077,9,11.25,9V12z"/>
	<path d="M18.002,16.5c-1.242,0-2.252-1.009-2.252-2.25c0-0.414,0.336-0.75,0.75-0.75s0.75,0.336,0.75,0.75S17.586,15,18,15
		l1.132-0.005c0.589-0.015,1.066-0.498,1.079-1.099c0.007-0.3-0.104-0.584-0.312-0.801c-0.208-0.217-0.487-0.339-0.787-0.345
		c-0.405-0.009-0.734-0.345-0.734-0.75c0-0.405,0.329-0.741,0.734-0.75c0.601-0.013,1.084-0.493,1.099-1.094
		c0.008-0.3-0.102-0.585-0.309-0.802c-0.207-0.218-0.486-0.341-0.785-0.349L17.997,9c-0.411,0-0.747,0.336-0.747,0.75
		s-0.336,0.75-0.75,0.75s-0.75-0.336-0.75-0.75c0-1.241,1.009-2.25,2.25-2.25l1.138,0.005c0.713,0.018,1.367,0.307,1.85,0.815
		c0.483,0.508,0.739,1.173,0.721,1.874c-0.018,0.688-0.304,1.335-0.785,1.807c0.019,0.018,0.037,0.037,0.055,0.056
		c0.485,0.506,0.744,1.17,0.73,1.871c-0.029,1.404-1.152,2.532-2.556,2.568C19.154,16.495,18.002,16.5,18.002,16.5z"/>
</g>
</svg>
