<?xml version="1.0" encoding="utf-8"?>
<!-- Generator: Adobe Illustrator 22.1.0, SVG Export Plug-In . SVG Version: 6.00 Build 0)  -->
<svg version="1.1" id="Layer_1" xmlns="http://www.w3.org/2000/svg" xmlns:xlink="http://www.w3.org/1999/xlink" x="0px" y="0px"
	 viewBox="0 0 24 24" style="enable-background:new 0 0 24 24;" xml:space="preserve">
<title>audio-file-mid</title>
<g>
	<path d="M2.25,24C1.009,24,0,22.991,0,21.75V2.25C0,1.009,1.009,0,2.25,0h10.629c0.601,0,1.165,0.234,1.59,0.658l5.872,5.872
		C20.766,6.955,21,7.52,21,8.121v4.629c0,0.414-0.336,0.75-0.75,0.75s-0.75-0.336-0.75-0.75V9h-5.25C13.009,9,12,7.991,12,6.75V1.5
		H2.25C1.836,1.5,1.5,1.836,1.5,2.25v19.5c0,0.414,0.336,0.75,0.75,0.75H6c0.414,0,0.75,0.336,0.75,0.75S6.414,24,6,24H2.25z
		 M13.5,6.75c0,0.414,0.336,0.75,0.75,0.75h4.939L13.5,1.811V6.75z"/>
	<path d="M14.25,24c-0.414,0-0.75-0.336-0.75-0.75v-4.792l-0.857,1.428C12.509,20.11,12.262,20.25,12,20.25
		c-0.262,0-0.509-0.14-0.643-0.364L10.5,18.458v4.792c0,0.414-0.336,0.75-0.75,0.75S9,23.664,9,23.25v-7.5
		c0-0.336,0.226-0.633,0.55-0.723C9.614,15.009,9.682,15,9.75,15c0.262,0,0.508,0.14,0.643,0.365L12,18.042l1.607-2.678
		C13.741,15.14,13.988,15,14.25,15c0.068,0,0.136,0.009,0.202,0.028C14.774,15.117,15,15.414,15,15.75v7.5
		C15,23.664,14.664,24,14.25,24z"/>
	<path d="M17.25,24c-0.414,0-0.75-0.336-0.75-0.75v-7.5c0-0.414,0.336-0.75,0.75-0.75S18,15.336,18,15.75v7.5
		C18,23.664,17.664,24,17.25,24z"/>
	<path d="M20.25,24c-0.414,0-0.75-0.336-0.75-0.75v-7.5c0-0.414,0.336-0.75,0.75-0.75c2.068,0,3.75,1.682,3.75,3.75v1.5
		C24,22.318,22.318,24,20.25,24z M21,22.371c0.879-0.313,1.5-1.159,1.5-2.121v-1.5c0-0.962-0.621-1.808-1.5-2.121V22.371z"/>
</g>
</svg>
