<?xml version="1.0" encoding="utf-8"?>
<!-- Generator: Adobe Illustrator 22.1.0, SVG Export Plug-In . SVG Version: 6.00 Build 0)  -->
<svg version="1.1" id="Layer_1" xmlns="http://www.w3.org/2000/svg" xmlns:xlink="http://www.w3.org/1999/xlink" x="0px" y="0px"
	 viewBox="0 0 24 24" style="enable-background:new 0 0 24 24;" xml:space="preserve">
<title>audio-file</title>
<g>
	<path d="M7.5,18.329c-1.241,0-2.25-1.009-2.25-2.25s1.009-2.25,2.25-2.25c0.259,0,0.511,0.044,0.75,0.129V9.75
		c0-1.034,0.701-1.932,1.704-2.182c0.019-0.005,0.04-0.009,0.061-0.013l4.471-0.745C14.654,6.77,14.827,6.75,15,6.75
		c1.241,0,2.25,1.009,2.25,2.25v5.579c0,1.241-1.009,2.25-2.25,2.25s-2.25-1.009-2.25-2.25s1.009-2.25,2.25-2.25
		c0.259,0,0.511,0.044,0.75,0.129V9c0-0.413-0.337-0.75-0.75-0.75c-0.061,0-0.122,0.008-0.182,0.022
		c-0.02,0.005-0.04,0.009-0.06,0.012l-4.464,0.744C9.973,9.121,9.75,9.415,9.75,9.75v6.329C9.75,17.32,8.741,18.329,7.5,18.329z
		 M7.5,15.329c-0.414,0-0.75,0.336-0.75,0.75s0.336,0.75,0.75,0.75s0.75-0.336,0.75-0.75S7.914,15.329,7.5,15.329z M15,13.829
		c-0.414,0-0.75,0.336-0.75,0.75s0.336,0.75,0.75,0.75s0.75-0.336,0.75-0.75S15.414,13.829,15,13.829z"/>
	<path d="M3,24c-1.241,0-2.25-1.009-2.25-2.25V2.25C0.75,1.009,1.759,0,3,0h15c0.59,0,1.147,0.227,1.571,0.639l2.996,2.879
		c0.435,0.424,0.683,1.012,0.683,1.615V21.75c0,1.241-1.009,2.25-2.25,2.25H3z M3,1.5c-0.414,0-0.75,0.336-0.75,0.75v19.5
		c0,0.414,0.336,0.75,0.75,0.75h18c0.414,0,0.75-0.336,0.75-0.75V5.133c0-0.201-0.083-0.397-0.227-0.537l-2.996-2.879
		C18.383,1.576,18.197,1.5,18,1.5H3z"/>
</g>
</svg>
