<?xml version="1.0" encoding="utf-8"?>
<!-- Generator: Adobe Illustrator 22.1.0, SVG Export Plug-In . SVG Version: 6.00 Build 0)  -->
<svg version="1.1" id="Layer_1" xmlns="http://www.w3.org/2000/svg" xmlns:xlink="http://www.w3.org/1999/xlink" x="0px" y="0px"
	 viewBox="0 0 24 24" style="enable-background:new 0 0 24 24;" xml:space="preserve">
<title>controls-movie-pause</title>
<g>
	<path d="M0.75,7.5C0.336,7.5,0,7.164,0,6.75v-4.5C0,1.009,1.009,0,2.25,0h19.5C22.991,0,24,1.009,24,2.25v4.5
		c0,0.414-0.336,0.75-0.75,0.75H0.75z M22.5,6V2.25c0-0.414-0.336-0.75-0.75-0.75h-3.915L16.71,6H22.5z M15.165,6l1.125-4.5H8.836
		L7.711,6H15.165z M6.164,6l1.125-4.5H2.25C1.836,1.5,1.5,1.836,1.5,2.25V6H6.164z"/>
	<path d="M2.25,22.5C1.009,22.5,0,21.491,0,20.25V9.75C0,9.336,0.336,9,0.75,9S1.5,9.336,1.5,9.75v10.5C1.5,20.664,1.836,21,2.25,21
		H7.5c0.414,0,0.75,0.336,0.75,0.75S7.914,22.5,7.5,22.5H2.25z"/>
	<path d="M23.25,12c-0.414,0-0.75-0.336-0.75-0.75v-1.5C22.5,9.336,22.836,9,23.25,9S24,9.336,24,9.75v1.5
		C24,11.664,23.664,12,23.25,12z"/>
	<path d="M13.5,24c-0.827,0-1.5-0.673-1.5-1.5V15c0-0.827,0.673-1.5,1.5-1.5H15c0.827,0,1.5,0.673,1.5,1.5v7.5
		c0,0.827-0.673,1.5-1.5,1.5H13.5z M13.5,22.5H15V15h-1.5V22.5z"/>
	<path d="M19.5,24c-0.827,0-1.5-0.673-1.5-1.5V15c0-0.827,0.673-1.5,1.5-1.5H21c0.827,0,1.5,0.673,1.5,1.5v7.5
		c0,0.827-0.673,1.5-1.5,1.5H19.5z M19.5,22.5H21V15h-1.5V22.5z"/>
</g>
</svg>
