<?xml version="1.0" encoding="utf-8"?>
<!-- Generator: Adobe Illustrator 22.1.0, SVG Export Plug-In . SVG Version: 6.00 Build 0)  -->
<svg version="1.1" id="Layer_1" xmlns="http://www.w3.org/2000/svg" xmlns:xlink="http://www.w3.org/1999/xlink" x="0px" y="0px"
	 viewBox="0 0 24 24" style="enable-background:new 0 0 24 24;" xml:space="preserve">
<g>
	<title>camera-display</title>
	<path d="M2.556,21C0.932,21,0,20.129,0,18.611V8.223c0-1.294,0.69-2.049,2-2.196V5.5C2,4.673,2.673,4,3.5,4h1
		C5.327,4,6,4.673,6,5.5V6h2.5c0.155-0.001,0.304-0.077,0.397-0.204c0.156-0.212,0.3-0.41,0.434-0.595C10.366,3.776,10.93,3,12,3h5
		c1.391,0,2.059,1.413,2.649,2.659l0.026,0.054C19.757,5.888,19.935,6,20.127,6h1.317C23.14,6,24,6.748,24,8.223v10.388
		C24,20.129,23.068,21,21.444,21H2.556z M12,4c-0.56,0-0.964,0.556-1.848,1.773c-0.142,0.196-0.29,0.399-0.449,0.615
		C9.423,6.769,8.975,6.997,8.503,7H2.5C1.116,7,1,7.604,1,8.223v10.388C1,19.572,1.48,20,2.556,20h18.888
		C22.52,20,23,19.572,23,18.611V8.223C23,7.604,22.88,7,21.444,7h-1.316c-0.578,0-1.11-0.337-1.357-0.858l-0.026-0.055
		C18.215,4.967,17.758,4,17,4H12z M5,6V5.5C5,5.224,4.776,5,4.5,5h-1C3.224,5,3,5.224,3,5.5V6H5z"/>
	<path d="M17.5,19c-2.481,0-4.5-2.019-4.5-4.5c0-2.481,2.019-4.5,4.5-4.5s4.5,2.019,4.5,4.5C22,16.981,19.981,19,17.5,19z M17.5,11
		c-1.93,0-3.5,1.57-3.5,3.5s1.57,3.5,3.5,3.5s3.5-1.57,3.5-3.5S19.43,11,17.5,11z"/>
	<path d="M3.5,19C2.673,19,2,18.327,2,17.5v-6C2,10.673,2.673,10,3.5,10h7c0.827,0,1.5,0.673,1.5,1.5v6c0,0.827-0.673,1.5-1.5,1.5
		H3.5z M3.5,11C3.224,11,3,11.224,3,11.5v6C3,17.776,3.224,18,3.5,18h7c0.276,0,0.5-0.224,0.5-0.5v-6c0-0.276-0.224-0.5-0.5-0.5H3.5
		z"/>
	<path d="M17.5,14c-0.276,0-0.5-0.224-0.5-0.5v-1c0-0.276,0.224-0.5,0.5-0.5s0.5,0.224,0.5,0.5v1C18,13.776,17.776,14,17.5,14z"/>
	<path d="M17.5,17c-0.276,0-0.5-0.224-0.5-0.5v-1c0-0.276,0.224-0.5,0.5-0.5s0.5,0.224,0.5,0.5v1C18,16.776,17.776,17,17.5,17z"/>
	<path d="M18.5,15c-0.276,0-0.5-0.224-0.5-0.5s0.224-0.5,0.5-0.5h1c0.276,0,0.5,0.224,0.5,0.5S19.776,15,19.5,15H18.5z"/>
	<path d="M15.5,15c-0.276,0-0.5-0.224-0.5-0.5s0.224-0.5,0.5-0.5h1c0.276,0,0.5,0.224,0.5,0.5S16.776,15,16.5,15H15.5z"/>
	<path d="M4,9.247c-0.414,0-0.75-0.336-0.75-0.75C3.249,8.299,3.326,8.111,3.467,7.968c0.141-0.142,0.328-0.22,0.529-0.221
		c0.418,0,0.754,0.336,0.754,0.75S4.414,9.247,4,9.247z"/>
	<path d="M6,9.247c-0.414,0-0.75-0.336-0.75-0.75C5.249,8.299,5.326,8.111,5.467,7.968c0.141-0.142,0.328-0.22,0.529-0.221
		c0.418,0,0.754,0.336,0.754,0.75S6.414,9.247,6,9.247z"/>
	<path d="M8,9.247c-0.414,0-0.75-0.336-0.75-0.75C7.249,8.299,7.326,8.111,7.467,7.968c0.141-0.142,0.328-0.22,0.529-0.221
		c0.418,0,0.754,0.336,0.754,0.75S8.414,9.247,8,9.247z"/>
</g>
</svg>
