<?xml version="1.0" encoding="utf-8"?>
<!-- Generator: Adobe Illustrator 22.1.0, SVG Export Plug-In . SVG Version: 6.00 Build 0)  -->
<svg version="1.1" id="Layer_1" xmlns="http://www.w3.org/2000/svg" xmlns:xlink="http://www.w3.org/1999/xlink" x="0px" y="0px"
	 viewBox="0 0 24 24" style="enable-background:new 0 0 24 24;" xml:space="preserve">
<g>
	<title>camera-double</title>
	<path d="M2,24c-1.103,0-2-0.897-2-2v-6.818c-0.013-1.125,0.824-2.064,1.949-2.179C1.968,13.001,1.984,13,2,13h1.736l1.215-1.782
		C5.044,11.082,5.199,11,5.364,11h3.272c0.165,0,0.32,0.082,0.413,0.218L10.264,13H14c0.016,0,0.031,0.001,0.047,0.002
		c1.129,0.116,1.967,1.055,1.953,2.186V22c0,1.103-0.897,2-2,2H2z M2.028,14C1.434,14.073,0.993,14.576,1,15.176V22
		c0,0.552,0.449,1,1,1h12c0.552,0,1-0.448,1-1v-6.818c0.007-0.605-0.434-1.109-1.028-1.182H10c-0.165,0-0.32-0.082-0.413-0.218
		L8.372,12H5.628l-1.215,1.782C4.32,13.918,4.165,14,4,14H2.028z"/>
	<path d="M7.5,22C5.57,22,4,20.43,4,18.5S5.57,15,7.5,15s3.5,1.57,3.5,3.5S9.43,22,7.5,22z M7.5,16C6.121,16,5,17.122,5,18.5
		S6.121,21,7.5,21s2.5-1.122,2.5-2.5S8.879,16,7.5,16z"/>
	<path d="M17.5,13c-0.276,0-0.5-0.224-0.5-0.5c0-0.276,0.224-0.5,0.5-0.5H22c0.552,0,1-0.449,1-1V4.182
		C23.007,3.577,22.566,3.073,21.972,3H18c-0.165,0-0.32-0.082-0.413-0.218L16.372,1h-2.744l-1.215,1.782
		c-0.01,0.015-0.026,0.033-0.042,0.048c-0.019,0.021-0.038,0.039-0.06,0.057c-0.027,0.021-0.052,0.038-0.08,0.053
		c-0.027,0.015-0.055,0.026-0.086,0.035c-0.029,0.009-0.056,0.015-0.084,0.018C12.041,2.997,12.017,3,12,3h-1.972
		C9.434,3.073,8.993,3.576,9,4.176V8.5C9,8.776,8.776,9,8.5,9S8,8.776,8,8.5V4.182C7.987,3.056,8.824,2.118,9.949,2.003
		C9.966,2.001,9.983,2,10,2h1.736l1.215-1.782C13.044,0.082,13.199,0,13.364,0h3.272c0.165,0,0.32,0.082,0.413,0.218L18.264,2H22
		c0.017,0,0.034,0.001,0.051,0.003C23.176,2.118,24.013,3.058,24,4.188V11c0,1.103-0.897,2-2,2H17.5z"/>
	<path d="M15.5,11C13.57,11,12,9.43,12,7.5S13.57,4,15.5,4S19,5.57,19,7.5S17.43,11,15.5,11z M15.5,5C14.122,5,13,6.121,13,7.5
		s1.122,2.5,2.5,2.5S18,8.879,18,7.5S16.878,5,15.5,5z"/>
	<circle cx="13.25" cy="15.75" r="0.75"/>
	<circle cx="21.25" cy="4.75" r="0.75"/>
</g>
</svg>
