<?xml version="1.0" encoding="utf-8"?>
<!-- Generator: Adobe Illustrator 22.1.0, SVG Export Plug-In . SVG Version: 6.00 Build 0)  -->
<svg version="1.1" id="Layer_1" xmlns="http://www.w3.org/2000/svg" xmlns:xlink="http://www.w3.org/1999/xlink" x="0px" y="0px"
	 viewBox="0 0 24 24" style="enable-background:new 0 0 24 24;" xml:space="preserve">
<g>
	<title>camera-retro</title>
	<path d="M1.5,21C0.673,21,0,20.327,0,19.5v-13C0,5.673,0.673,5,1.5,5H17V4.5C17,3.673,17.673,3,18.5,3h2C21.327,3,22,3.673,22,4.5
		V5h0.5C23.327,5,24,5.673,24,6.5v13c0,0.827-0.673,1.5-1.5,1.5H1.5z M1,19.5C1,19.776,1.224,20,1.5,20h21
		c0.276,0,0.5-0.224,0.5-0.5V17h-7.008c-0.945,1.255-2.428,2-3.992,2s-3.047-0.745-3.992-2H1V19.5z M8.74,16.31
		C9.492,17.369,10.708,18,12,18c2.206,0,4-1.794,4-4s-1.794-4-4-4s-4,1.794-4,4c0,0.761,0.218,1.502,0.63,2.146
		C8.677,16.193,8.714,16.249,8.74,16.31z M23,16v-4h-6.418C16.856,12.628,17,13.312,17,14s-0.144,1.372-0.418,2H23z M7.418,16
		C7.144,15.372,7,14.688,7,14s0.144-1.372,0.418-2H1v4H7.418z M23,11V6.5C23,6.224,22.776,6,22.5,6h-21C1.224,6,1,6.224,1,6.5V11
		h7.008C8.953,9.745,10.435,9,12,9c1.564,0,3.047,0.745,3.992,2H23z M21,5V4.5C21,4.224,20.776,4,20.5,4h-2
		C18.224,4,18,4.224,18,4.5V5H21z"/>
	<path d="M3,10c-0.551,0-1-0.449-1-1V8c0-0.551,0.449-1,1-1h3c0.551,0,1,0.449,1,1v1c0,0.551-0.449,1-1,1H3z M3,9h3V8H3L3,9z"/>
	<path d="M12,16.5c-1.379,0-2.5-1.122-2.5-2.5s1.121-2.5,2.5-2.5c1.378,0,2.5,1.122,2.5,2.5S13.378,16.5,12,16.5z M12,12.5
		c-0.827,0-1.5,0.673-1.5,1.5s0.673,1.5,1.5,1.5s1.5-0.673,1.5-1.5S12.827,12.5,12,12.5z"/>
	<path d="M20,9.747c-0.414,0-0.75-0.336-0.75-0.75c-0.001-0.411,0.333-0.748,0.746-0.75c0.418,0,0.754,0.336,0.754,0.75
		S20.414,9.747,20,9.747z"/>
</g>
</svg>
