<svg xmlns="http://www.w3.org/2000/svg" viewBox="0 0 24 24"><title>browser-page-layout</title><path d="M24,4.75a3,3,0,0,0-3-3H3a3,3,0,0,0-3,3v14.5a3,3,0,0,0,3,3H21a3,3,0,0,0,3-3Zm-2.25,2A.25.25,0,0,1,22,7v5.5a.25.25,0,0,1-.25.25h-12a.25.25,0,0,1-.25-.25V7a.25.25,0,0,1,.25-.25Zm-12.1-3a.966.966,0,0,1,1.692,0,.969.969,0,0,1,.154.5.969.969,0,0,1-.154.5.966.966,0,0,1-1.692,0,.969.969,0,0,1-.154-.5A.969.969,0,0,1,9.654,3.75Zm-3.5,0a.966.966,0,0,1,1.692,0A.969.969,0,0,1,8,4.25a.969.969,0,0,1-.154.5.966.966,0,0,1-1.692,0A.969.969,0,0,1,6,4.25.969.969,0,0,1,6.154,3.75Zm-3.562.092A1,1,0,0,1,3.5,3.25a.985.985,0,0,1,.846.5.969.969,0,0,1,.154.5.969.969,0,0,1-.154.5.966.966,0,0,1-1.692,0,.969.969,0,0,1-.154-.5A.979.979,0,0,1,2.592,3.842ZM8,20a.25.25,0,0,1-.25.25H3a1,1,0,0,1-1-1V7a.25.25,0,0,1,.25-.25h5.5A.25.25,0,0,1,8,7Zm14-.75a1,1,0,0,1-1,1H9.75A.25.25,0,0,1,9.5,20V14.5a.25.25,0,0,1,.25-.25h12a.25.25,0,0,1,.25.25Z"/></svg>