<svg xmlns="http://www.w3.org/2000/svg" viewBox="0 0 24 24"><title>browser-com</title><circle cx="4.55" cy="15.5" r="1"/><path d="M9.55,16.75a.75.75,0,0,0,0-1.5A1.25,1.25,0,0,1,8.3,14V13a1.251,1.251,0,0,1,1.25-1.25.75.75,0,0,0,0-1.5A2.753,2.753,0,0,0,6.8,13v1A2.752,2.752,0,0,0,9.55,16.75Z"/><path d="M13.05,16.75A1.752,1.752,0,0,0,14.8,15V12a1.75,1.75,0,0,0-3.5,0v3A1.752,1.752,0,0,0,13.05,16.75ZM12.8,12a.25.25,0,0,1,.5,0v3c0,.275-.5.275-.5,0Z"/><path d="M16.55,16.75A.75.75,0,0,0,17.3,16V13.915a.058.058,0,0,1,.042-.055.057.057,0,0,1,.064.026.781.781,0,0,0,1.287,0,.058.058,0,0,1,.065-.026.058.058,0,0,1,.042.055V16a.75.75,0,0,0,1.5,0V11a.751.751,0,0,0-1.394-.386l-.642,1.071a.249.249,0,0,1-.214.121.252.252,0,0,1-.215-.121l-.642-1.071A.75.75,0,0,0,15.8,11v5A.75.75,0,0,0,16.55,16.75Z"/><path d="M24,4.75a3,3,0,0,0-3-3H3a3,3,0,0,0-3,3v14.5a3,3,0,0,0,3,3H21a3,3,0,0,0,3-3Zm-14.346-1a.966.966,0,0,1,1.692,0,.969.969,0,0,1,.154.5.969.969,0,0,1-.154.5.966.966,0,0,1-1.692,0,.969.969,0,0,1-.154-.5A.969.969,0,0,1,9.654,3.75Zm-3.5,0a.966.966,0,0,1,1.692,0A.969.969,0,0,1,8,4.25a.969.969,0,0,1-.154.5.966.966,0,0,1-1.692,0A.969.969,0,0,1,6,4.25.969.969,0,0,1,6.154,3.75Zm-3.562.092A1,1,0,0,1,3.5,3.25a.985.985,0,0,1,.846.5.969.969,0,0,1,.154.5.969.969,0,0,1-.154.5.966.966,0,0,1-1.692,0,.969.969,0,0,1-.154-.5A.979.979,0,0,1,2.592,3.842ZM22,19.25a1,1,0,0,1-1,1H3a1,1,0,0,1-1-1V7a.25.25,0,0,1,.25-.25h19.5A.25.25,0,0,1,22,7Z"/></svg>