<svg xmlns="http://www.w3.org/2000/svg" viewBox="0 0 24 24"><title>browser-page-mail</title><path d="M24,4.5a3,3,0,0,0-3-3H3a3,3,0,0,0-3,3v15a3,3,0,0,0,3,3H21a3,3,0,0,0,3-3ZM3,5A1,1,0,1,1,4,6,1,1,0,0,1,3,5ZM6,5A1,1,0,1,1,7,6,1,1,0,0,1,6,5ZM9,5a1,1,0,1,1,1,1A1,1,0,0,1,9,5ZM22,19.5a1,1,0,0,1-1,1H3a1,1,0,0,1-1-1V9a.5.5,0,0,1,.5-.5h19A.5.5,0,0,1,22,9Z"/><rect x="3.5" y="10.5" width="6" height="8" rx="0.5" ry="0.5"/><path d="M12.5,15.25h7a.75.75,0,0,0,0-1.5h-7a.75.75,0,0,0,0,1.5Z"/><path d="M12.5,12.25h7a.75.75,0,0,0,0-1.5h-7a.75.75,0,0,0,0,1.5Z"/><path d="M12.5,18.25h7a.75.75,0,0,0,0-1.5h-7a.75.75,0,0,0,0,1.5Z"/></svg>