<svg xmlns="http://www.w3.org/2000/svg" viewBox="0 0 24 24"><title>code-write-1</title><path d="M13.6,20.652l-.5,2.5a.5.5,0,0,0,.491.6.457.457,0,0,0,.1-.01l2.5-.5a.489.489,0,0,0,.256-.136l6.5-6.5A1.914,1.914,0,0,0,20.234,13.9l-6.5,6.5A.5.5,0,0,0,13.6,20.652Z"/><path d="M1.5,23.25h9.647a.489.489,0,0,0,.479-.392l.5-2.5a1.991,1.991,0,0,1,.547-1.022l4.68-4.681A.5.5,0,0,0,17.5,14.3V4.664a1,1,0,0,0-.293-.707L13.794.543A1,1,0,0,0,13.087.25H1.5a1,1,0,0,0-1,1v21A1,1,0,0,0,1.5,23.25Zm2-11.5a.5.5,0,0,1,.5-.5H8a.5.5,0,0,1,.5.5v1a.25.25,0,0,0,.25.25H10.5a.251.251,0,0,0,.25-.25v-6a.251.251,0,0,0-.25-.25H8.751a.25.25,0,0,0-.25.25v1a.5.5,0,0,1-.5.5H4a.5.5,0,0,1-.5-.5v-4a.5.5,0,0,1,.5-.5H8a.5.5,0,0,1,.5.5v1a.25.25,0,0,0,.25.25H10.5a1.752,1.752,0,0,1,1.75,1.75v2A.25.25,0,0,0,12.5,9H14a.75.75,0,0,1,0,1.5H12.5a.25.25,0,0,0-.25.25v2A1.752,1.752,0,0,1,10.5,14.5H8.751a.25.25,0,0,0-.25.25v1a.5.5,0,0,1-.5.5H4a.5.5,0,0,1-.5-.5Z"/></svg>