<svg xmlns="http://www.w3.org/2000/svg" viewBox="0 0 24 24"><title>hierarchy</title><path d="M3.25,24h11a1.5,1.5,0,0,0,1.485-1.286.249.249,0,0,1,.247-.214H20.25a2,2,0,0,0,2-2V1a1,1,0,0,0-2,0V6a.5.5,0,0,1-.5.5H15.982a.249.249,0,0,1-.247-.214A1.5,1.5,0,0,0,14.25,5h-11a1.5,1.5,0,0,0-1.5,1.5v2A1.5,1.5,0,0,0,3.25,10h11a1.5,1.5,0,0,0,1.485-1.286.249.249,0,0,1,.247-.214H19.75a.5.5,0,0,1,.5.5v4a.5.5,0,0,1-.5.5H15.982a.249.249,0,0,1-.247-.214A1.5,1.5,0,0,0,14.25,12h-11a1.5,1.5,0,0,0-1.5,1.5v2A1.5,1.5,0,0,0,3.25,17h11a1.5,1.5,0,0,0,1.485-1.286.249.249,0,0,1,.247-.214H19.75a.5.5,0,0,1,.5.5v4a.5.5,0,0,1-.5.5H15.982a.249.249,0,0,1-.247-.214A1.5,1.5,0,0,0,14.25,19h-11a1.5,1.5,0,0,0-1.5,1.5v2A1.5,1.5,0,0,0,3.25,24Z"/></svg>