<svg xmlns="http://www.w3.org/2000/svg" viewBox="0 0 24 24"><title>monitor-www</title><path d="M19,23.75a1,1,0,0,0,0-2H12.75a.25.25,0,0,1-.25-.25V20a.25.25,0,0,1,.25-.25H21a3,3,0,0,0,3-3V2.839A2.548,2.548,0,0,0,21.5.25H2.5A2.548,2.548,0,0,0,0,2.839V16.75a3,3,0,0,0,3,3h7.25a.25.25,0,0,1,.25.25v1.5a.25.25,0,0,1-.25.25H5a1,1,0,0,0,0,2ZM2,2.839a.551.551,0,0,1,.5-.589h19a.551.551,0,0,1,.5.589V14.75a.5.5,0,0,1-.5.5H2.5a.5.5,0,0,1-.5-.5Z"/><path d="M8,6a.75.75,0,0,0-.75.75V8.1A5.279,5.279,0,0,1,7.2,8.84a.125.125,0,0,1-.115.107.126.126,0,0,1-.129-.09l-.232-.813a.75.75,0,0,0-1.442,0l-.232.812A.125.125,0,0,1,4.8,8.84,5.279,5.279,0,0,1,4.75,8.1V6.75a.75.75,0,0,0-1.5,0V8.1A6.73,6.73,0,0,0,3.732,10.6L4.3,12.028a.73.73,0,0,0,.734.471.749.749,0,0,0,.683-.543L5.88,11.4a.125.125,0,0,1,.24,0l.159.556a.749.749,0,0,0,.683.543H7a.747.747,0,0,0,.7-.472L8.268,10.6A6.73,6.73,0,0,0,8.75,8.1V6.75A.75.75,0,0,0,8,6Z"/><path d="M14,6a.75.75,0,0,0-.75.75V8.1a5.279,5.279,0,0,1-.053.745.125.125,0,0,1-.115.107.126.126,0,0,1-.129-.09l-.232-.813a.75.75,0,0,0-1.442,0l-.232.812A.125.125,0,0,1,10.8,8.84,5.279,5.279,0,0,1,10.75,8.1V6.75a.75.75,0,0,0-1.5,0V8.1A6.73,6.73,0,0,0,9.732,10.6l.572,1.426a.729.729,0,0,0,.734.471.749.749,0,0,0,.683-.543l.159-.556a.125.125,0,0,1,.24,0l.159.556a.749.749,0,0,0,.683.543H13a.747.747,0,0,0,.7-.472l.572-1.426A6.73,6.73,0,0,0,14.75,8.1V6.75A.75.75,0,0,0,14,6Z"/><path d="M20,6a.75.75,0,0,0-.75.75V8.1a5.279,5.279,0,0,1-.053.745.125.125,0,0,1-.115.107.126.126,0,0,1-.129-.09l-.232-.813a.75.75,0,0,0-1.442,0l-.232.812A.125.125,0,0,1,16.8,8.84,5.279,5.279,0,0,1,16.75,8.1V6.75a.75.75,0,0,0-1.5,0V8.1a6.73,6.73,0,0,0,.482,2.507l.572,1.426a.729.729,0,0,0,.734.471.749.749,0,0,0,.683-.543l.159-.556a.125.125,0,0,1,.24,0l.159.556a.749.749,0,0,0,.683.543H19a.747.747,0,0,0,.7-.472l.572-1.426A6.73,6.73,0,0,0,20.75,8.1V6.75A.75.75,0,0,0,20,6Z"/></svg>