<svg xmlns="http://www.w3.org/2000/svg" viewBox="0 0 24 24"><title>monitor-touch</title><path d="M23.664,18.164a1.284,1.284,0,0,0-.894-1.521l-3.786-1.1a.249.249,0,0,1-.181-.24V11.76a1,1,0,0,0-2,0V18.1a.25.25,0,0,1-.423.18c-1.451-1.392-3.181-.706-2.077.981l2.316,3.372a.25.25,0,0,0,.206.108h5.78a.249.249,0,0,0,.246-.2Z"/><path d="M11.8,22.26a1,1,0,0,0,0-2h-.25a.25.25,0,0,1-.25-.25V18.485a.25.25,0,0,1,.2-.245,1,1,0,0,0-.2-1.98H2.8a.5.5,0,0,1-.5-.5v-12a.5.5,0,0,1,.5-.5h18a.5.5,0,0,1,.5.5v10.5a1,1,0,1,0,2,0v-11a2,2,0,0,0-2-2H2.3a2,2,0,0,0-2,2v13a2,2,0,0,0,2,2H9.052a.25.25,0,0,1,.25.25v1.5a.25.25,0,0,1-.25.25H6.8a1,1,0,0,0,0,2Z"/></svg>