<?xml version="1.0" encoding="utf-8"?>
<!-- Generator: Adobe Illustrator 22.1.0, SVG Export Plug-In . SVG Version: 6.00 Build 0)  -->
<svg version="1.1" id="Light" xmlns="http://www.w3.org/2000/svg" xmlns:xlink="http://www.w3.org/1999/xlink" x="0px" y="0px"
	 viewBox="0 0 24 24" style="enable-background:new 0 0 24 24;" xml:space="preserve">
<g>
	<title>single-man-actions-location</title>
	<path d="M19,18.11c-1.103,0-2-0.897-2-2s0.897-2,2-2s2,0.897,2,2S20.103,18.11,19,18.11z M19,15.11c-0.552,0-1,0.448-1,1
		s0.448,1,1,1s1-0.448,1-1S19.551,15.11,19,15.11z"/>
	<path d="M18.999,23.887c-0.256,0-0.499-0.097-0.685-0.272c-0.012-0.011-0.028-0.027-0.044-0.043C16.986,22.197,14,18.72,14,16.11
		c0-2.757,2.243-5,5-5s5,2.243,5,5c0,2.61-2.987,6.087-4.271,7.461c-0.183,0.196-0.432,0.307-0.699,0.316
		C19.027,23.887,19.002,23.887,18.999,23.887z M19,12.11c-2.206,0-4,1.794-4,4c0,2.317,3.063,5.774,4.001,6.779
		c-0.001-0.002-0.002-0.002,0-0.002s0.006,0,0.014,0.001C19.938,21.884,23,18.427,23,16.11C23,13.904,21.205,12.11,19,12.11z"/>
	<path d="M0.5,17.11c-0.149,0-0.289-0.066-0.384-0.18c-0.095-0.115-0.134-0.264-0.107-0.411c0.079-0.427,0.141-0.82,0.197-1.178
		c0.252-1.604,0.434-2.762,1.707-3.308L6,10.28V8.878C5.641,8.583,5.144,7.921,5.065,6.502C4.551,6.256,4.319,5.648,4.319,5.11
		c0-0.358,0.094-0.699,0.266-0.961c0.082-0.125,0.182-0.232,0.295-0.317c-0.313-0.605-0.67-1.365-0.263-1.904
		C4.804,1.68,5.103,1.554,5.505,1.554c0.048,0,0.099,0.002,0.151,0.005C6.222,0.494,7.726,0.11,8.888,0.11
		c1.461,0,3.078,0.582,3.396,1.881c0.121,0.646,0.042,1.305-0.22,1.888c0.266,0.245,0.415,0.639,0.415,1.118
		c0,0.54-0.193,1.17-0.621,1.46C11.795,7.91,11.334,8.576,11,8.87v1.41l2.691,1.153c0.123,0.052,0.218,0.15,0.267,0.274
		c0.05,0.124,0.048,0.26-0.005,0.383c-0.079,0.184-0.26,0.303-0.46,0.303l0,0c-0.068,0-0.135-0.014-0.198-0.041l-2.993-1.283
		C10.119,10.991,10,10.81,10,10.61v-2c0-0.197,0.114-0.373,0.292-0.455c0.056-0.039,0.574-0.44,0.574-2.045
		c0-0.257,0.195-0.469,0.444-0.497c0.013-0.016,0.033-0.043,0.054-0.085c0.071-0.139,0.115-0.343,0.115-0.531
		c0-0.187-0.048-0.386-0.12-0.386c-0.188,0-0.358-0.104-0.444-0.271c-0.086-0.167-0.072-0.365,0.036-0.519
		c0.331-0.467,0.461-1.057,0.356-1.619C11.132,1.49,9.957,1.11,8.888,1.11c-1.069,0-2.245,0.384-2.425,1.119
		C6.407,2.453,6.208,2.61,5.977,2.61c-0.034,0-0.068-0.004-0.102-0.01C5.728,2.569,5.602,2.553,5.501,2.553
		c-0.028,0-0.051,0.001-0.069,0.003c0.015,0.109,0.094,0.355,0.38,0.903C5.969,3.759,6.055,3.923,6.055,4.11
		c0,0.276-0.224,0.5-0.5,0.5c-0.041,0-0.081,0.007-0.133,0.086C5.357,4.794,5.319,4.949,5.319,5.11c0,0.157,0.059,0.5,0.236,0.5
		c0.276,0,0.5,0.224,0.5,0.5c0,1.694,0.637,2.038,0.643,2.041C6.875,8.226,7,8.412,7,8.61v2c0,0.2-0.119,0.381-0.303,0.46
		l-4.391,1.882c-0.735,0.315-0.865,0.968-1.113,2.544c-0.031,0.195-0.063,0.4-0.098,0.614H12.5c0.276,0,0.5,0.224,0.5,0.5
		s-0.224,0.5-0.5,0.5H0.5z"/>
</g>
</svg>
