<?xml version="1.0" encoding="utf-8"?>
<!-- Generator: Adobe Illustrator 22.1.0, SVG Export Plug-In . SVG Version: 6.00 Build 0)  -->
<svg version="1.1" id="Light" xmlns="http://www.w3.org/2000/svg" xmlns:xlink="http://www.w3.org/1999/xlink" x="0px" y="0px"
	 viewBox="0 0 24 24" style="enable-background:new 0 0 24 24;" xml:space="preserve">
<g>
	<title>single-man-actions-laptop</title>
	<path d="M0.499,17c-0.149,0-0.289-0.066-0.384-0.18c-0.095-0.115-0.135-0.264-0.107-0.411c0.079-0.426,0.14-0.817,0.197-1.175
		c0.253-1.608,0.435-2.767,1.707-3.312l4.088-1.752V8.768C5.64,8.472,5.143,7.811,5.065,6.391C4.551,6.146,4.319,5.538,4.319,5
		c0-0.358,0.094-0.699,0.266-0.961c0.082-0.125,0.182-0.232,0.295-0.317C4.572,3.131,4.205,2.361,4.616,1.818
		c0.188-0.248,0.486-0.374,0.887-0.374c0.049,0,0.1,0.002,0.153,0.006C6.222,0.384,7.726,0,8.887,0c1.461,0,3.078,0.582,3.396,1.881
		c0.121,0.646,0.042,1.305-0.22,1.888c0.266,0.245,0.415,0.639,0.415,1.118c0,0.54-0.193,1.17-0.621,1.46
		c-0.063,1.453-0.525,2.12-0.859,2.414v1.74c0,0.276-0.224,0.5-0.5,0.5s-0.5-0.224-0.5-0.5v-2c0-0.198,0.115-0.374,0.293-0.455
		C10.34,8.012,10.865,7.615,10.865,6c0-0.258,0.196-0.471,0.448-0.497c0.058-0.069,0.166-0.302,0.166-0.616
		c0-0.187-0.048-0.386-0.12-0.386c-0.188,0-0.358-0.104-0.444-0.27s-0.073-0.366,0.036-0.519c0.331-0.467,0.461-1.057,0.356-1.62
		C11.131,1.38,9.956,1,8.888,1C7.819,1,6.642,1.384,6.462,2.119C6.407,2.343,6.207,2.5,5.975,2.5c-0.033,0-0.066-0.003-0.1-0.01
		C5.726,2.459,5.6,2.443,5.5,2.443c-0.028,0-0.05,0.001-0.068,0.003c0.015,0.11,0.094,0.355,0.381,0.905
		C5.968,3.649,6.054,3.813,6.054,4c0,0.276-0.224,0.5-0.5,0.5c-0.041,0-0.081,0.007-0.133,0.086C5.357,4.684,5.319,4.839,5.319,5
		c0,0.157,0.059,0.5,0.236,0.5c0.276,0,0.5,0.224,0.5,0.5c0,1.694,0.637,2.038,0.644,2.041C6.875,8.116,6.999,8.302,6.999,8.5v2
		c0,0.2-0.119,0.381-0.303,0.46l-4.391,1.882c-0.735,0.315-0.865,0.967-1.113,2.543C1.162,15.58,1.13,15.785,1.094,16h8.405
		c0.276,0,0.5,0.224,0.5,0.5S9.775,17,9.499,17H0.499z"/>
	<path d="M9.999,24c-0.551,0-1-0.448-1-1c0-0.155,0.037-0.31,0.106-0.448l1.894-3.189V13c0-0.552,0.449-1,1-1h9c0.552,0,1,0.448,1,1
		v6.363l1.877,3.158c0.003,0.005,0.015,0.026,0.018,0.032c0.246,0.493,0.046,1.095-0.446,1.342C23.309,23.963,23.154,24,22.999,24
		H9.999z M22.998,23l-1.783-3h-9.431l-1.779,2.993L22.998,23z M20.999,19v-6h-9l0,6H20.999z"/>
	<path d="M15.999,22c-0.276,0-0.5-0.224-0.5-0.5s0.224-0.5,0.5-0.5h1c0.276,0,0.5,0.224,0.5,0.5s-0.224,0.5-0.5,0.5H15.999z"/>
</g>
</svg>
