<?xml version="1.0" encoding="utf-8"?>
<!-- Generator: Adobe Illustrator 22.1.0, SVG Export Plug-In . SVG Version: 6.00 Build 0)  -->
<svg version="1.1" id="Light" xmlns="http://www.w3.org/2000/svg" xmlns:xlink="http://www.w3.org/1999/xlink" x="0px" y="0px"
	 viewBox="0 0 24 24" style="enable-background:new 0 0 24 24;" xml:space="preserve">
<g>
	<title>single-man-actions-address</title>
	<path d="M0.5,16.999c-0.149,0-0.289-0.066-0.384-0.18c-0.095-0.115-0.135-0.264-0.107-0.411c0.079-0.427,0.141-0.82,0.197-1.179
		c0.252-1.604,0.434-2.762,1.707-3.307L6,10.169V8.767C5.641,8.471,5.144,7.81,5.065,6.39C4.552,6.145,4.319,5.537,4.319,4.999
		c0-0.358,0.094-0.699,0.266-0.961C4.667,3.912,4.766,3.806,4.88,3.721C4.573,3.13,4.205,2.36,4.616,1.816
		c0.188-0.248,0.486-0.374,0.888-0.374c0.049,0,0.099,0.002,0.152,0.005c0.566-1.066,2.07-1.449,3.231-1.449
		c1.461,0,3.078,0.582,3.397,1.881c0.121,0.646,0.042,1.305-0.22,1.888c0.266,0.245,0.415,0.639,0.415,1.118
		c0,0.346-0.081,0.705-0.223,0.984c-0.104,0.205-0.24,0.367-0.398,0.475C11.795,7.798,11.334,8.465,11,8.759v1.41l1.197,0.513
		c0.123,0.052,0.218,0.15,0.267,0.274c0.05,0.124,0.048,0.26-0.005,0.383C12.38,11.523,12.2,11.642,12,11.642l0,0
		c-0.068,0-0.135-0.014-0.198-0.041l-1.5-0.643C10.119,10.88,10,10.699,10,10.499v-2c0-0.198,0.114-0.374,0.293-0.455
		c0.051-0.035,0.573-0.433,0.573-2.045c0-0.258,0.196-0.471,0.447-0.497c0.058-0.069,0.166-0.302,0.166-0.616
		c0-0.187-0.048-0.386-0.12-0.386c-0.188,0-0.358-0.104-0.444-0.271c-0.086-0.167-0.072-0.365,0.036-0.519
		c0.331-0.467,0.461-1.057,0.356-1.62c-0.175-0.711-1.351-1.091-2.42-1.091c-1.069,0-2.245,0.384-2.425,1.119
		C6.407,2.342,6.207,2.499,5.977,2.499c-0.034,0-0.068-0.003-0.101-0.01C5.727,2.458,5.601,2.442,5.501,2.442
		c-0.028,0-0.05,0.001-0.068,0.003c0.015,0.11,0.094,0.356,0.381,0.904c0.156,0.298,0.241,0.463,0.241,0.649
		c0,0.276-0.224,0.5-0.5,0.5c-0.041,0-0.081,0.007-0.133,0.086C5.358,4.683,5.319,4.838,5.319,4.999c0,0.157,0.059,0.5,0.236,0.5
		c0.276,0,0.5,0.224,0.5,0.5c0,1.7,0.629,2.035,0.635,2.038C6.869,8.102,7,8.291,7,8.499v2c0,0.2-0.119,0.381-0.303,0.46
		L2.306,12.84c-0.735,0.315-0.865,0.967-1.112,2.543c-0.031,0.196-0.063,0.401-0.099,0.616H9c0.276,0,0.5,0.224,0.5,0.5
		s-0.224,0.5-0.5,0.5H0.5z"/>
	<path d="M17.484,23.997c-0.513,0-1.024-0.059-1.52-0.176c-2.995-0.71-5.096-3.458-4.998-6.534c0.113-3.528,2.966-6.291,6.494-6.291
		c0.071,0,0.141,0.001,0.211,0.003c3.611,0.198,6.388,3.179,6.329,6.786v0.839c-0.001,1.31-1.066,2.375-2.374,2.375
		c-1.007-0.001-1.875-0.619-2.218-1.525c-0.509,0.492-1.194,0.775-1.908,0.775c-1.516,0-2.75-1.234-2.75-2.75s1.234-2.75,2.75-2.75
		s2.75,1.234,2.75,2.75v1.125c0,0.367,0.143,0.712,0.402,0.972c0.259,0.26,0.604,0.403,0.971,0.403c0.759,0,1.376-0.616,1.377-1.374
		v-0.849c0.051-3.074-2.309-5.61-5.372-5.779c-0.05-0.001-0.105-0.002-0.16-0.002c-2.99,0-5.406,2.338-5.502,5.323
		c-0.084,2.602,1.694,4.927,4.228,5.528c0.42,0.099,0.854,0.149,1.29,0.149c0.485,0,0.968-0.062,1.434-0.184
		c0.042-0.011,0.084-0.016,0.127-0.016c0.227,0,0.426,0.154,0.483,0.373c0.034,0.129,0.015,0.264-0.052,0.379
		c-0.067,0.115-0.176,0.198-0.305,0.231C18.622,23.924,18.054,23.997,17.484,23.997z M17.5,15.749c-0.965,0-1.75,0.785-1.75,1.75
		s0.785,1.75,1.75,1.75s1.75-0.785,1.75-1.75S18.465,15.749,17.5,15.749z"/>
</g>
</svg>
