<?xml version="1.0" encoding="utf-8"?>
<!-- Generator: Adobe Illustrator 22.1.0, SVG Export Plug-In . SVG Version: 6.00 Build 0)  -->
<svg version="1.1" id="Light" xmlns="http://www.w3.org/2000/svg" xmlns:xlink="http://www.w3.org/1999/xlink" x="0px" y="0px"
	 viewBox="0 0 24 24" style="enable-background:new 0 0 24 24;" xml:space="preserve">
<g>
	<title>single-man-actions-flag</title>
	<path d="M0.5,17c-0.149,0-0.289-0.066-0.384-0.18c-0.095-0.115-0.134-0.264-0.107-0.411c0.079-0.427,0.141-0.819,0.197-1.178
		c0.252-1.605,0.434-2.763,1.707-3.309L6,10.17V8.768C5.641,8.473,5.144,7.811,5.065,6.392C4.551,6.146,4.319,5.538,4.319,5
		c0-0.358,0.094-0.699,0.266-0.961c0.082-0.125,0.182-0.232,0.295-0.317C4.573,3.131,4.205,2.361,4.617,1.818
		c0.187-0.248,0.486-0.374,0.887-0.374c0.049,0,0.1,0.002,0.153,0.006C6.222,0.384,7.726,0,8.888,0c1.461,0,3.078,0.582,3.396,1.881
		c0.121,0.646,0.042,1.305-0.22,1.888c0.266,0.245,0.415,0.639,0.415,1.118c0,0.54-0.193,1.17-0.621,1.46
		C11.795,7.799,11.334,8.466,11,8.76v1.41l1.686,0.723c0.253,0.109,0.371,0.403,0.262,0.657c-0.078,0.184-0.259,0.303-0.459,0.303
		c-0.068,0-0.134-0.014-0.197-0.04l-1.989-0.853C10.119,10.88,10,10.7,10,10.5v-2c0-0.198,0.114-0.374,0.293-0.455
		C10.341,8.012,10.866,7.615,10.866,6c0-0.257,0.195-0.469,0.444-0.497c0.013-0.016,0.033-0.043,0.054-0.085
		c0.071-0.139,0.115-0.343,0.115-0.531c0-0.187-0.048-0.386-0.12-0.386c-0.188,0-0.358-0.104-0.444-0.271
		c-0.086-0.167-0.072-0.365,0.036-0.519c0.331-0.467,0.461-1.057,0.356-1.62C11.132,1.38,9.956,1,8.888,1S6.643,1.384,6.462,2.119
		C6.407,2.343,6.207,2.5,5.976,2.5c-0.033,0-0.066-0.003-0.1-0.01C5.727,2.459,5.601,2.443,5.5,2.443
		c-0.028,0-0.05,0.001-0.068,0.003c0.015,0.11,0.094,0.355,0.381,0.904C5.969,3.649,6.055,3.813,6.055,4c0,0.276-0.224,0.5-0.5,0.5
		c-0.041,0-0.081,0.007-0.133,0.086C5.357,4.684,5.319,4.839,5.319,5c0,0.157,0.059,0.5,0.236,0.5c0.276,0,0.5,0.224,0.5,0.5
		c0,1.7,0.629,2.035,0.635,2.038C6.869,8.103,7,8.292,7,8.5v2c0,0.2-0.119,0.381-0.303,0.46l-4.391,1.882
		c-0.735,0.315-0.865,0.967-1.113,2.544C1.163,15.58,1.13,15.785,1.095,16H12.5c0.276,0,0.5,0.224,0.5,0.5S12.775,17,12.5,17H0.5z"
		/>
	<path d="M14.5,24c-0.276,0-0.5-0.224-0.5-0.5V12.119c0-0.215,0.137-0.406,0.342-0.474l1.29-0.43
		c0.424-0.141,0.867-0.213,1.317-0.213c0.856,0,1.677,0.253,2.375,0.733c0.509,0.322,1.112,0.495,1.736,0.495
		c0.386,0,0.763-0.066,1.121-0.198l0.502-0.169c0.104-0.034,0.21-0.051,0.316-0.051c0.554,0,1.002,0.449,1.001,1.001v5.946
		c-0.001,0.431-0.276,0.812-0.684,0.948l-0.948,0.316c-0.424,0.141-0.867,0.213-1.318,0.213c-0.855,0-1.677-0.253-2.375-0.733
		c-0.509-0.322-1.111-0.495-1.735-0.495c-0.386,0-0.763,0.067-1.121,0.198L15,19.479V23.5C15,23.776,14.775,24,14.5,24z
		 M16.936,18.008c0.816,0,1.607,0.228,2.289,0.66c0.544,0.373,1.172,0.567,1.826,0.567c0.342,0,0.679-0.054,1-0.161L23,18.759
		l0-5.946l-0.488,0.163c-0.458,0.168-0.947,0.254-1.448,0.254c-0.817,0-1.608-0.229-2.29-0.661
		c-0.544-0.373-1.173-0.568-1.826-0.568c-0.342,0-0.679,0.054-1,0.161L15,12.479v5.946l0.489-0.163
		C15.946,18.095,16.435,18.008,16.936,18.008z"/>
</g>
</svg>
