<?xml version="1.0" encoding="utf-8"?>
<!-- Generator: Adobe Illustrator 22.1.0, SVG Export Plug-In . SVG Version: 6.00 Build 0)  -->
<svg version="1.1" id="Light" xmlns="http://www.w3.org/2000/svg" xmlns:xlink="http://www.w3.org/1999/xlink" x="0px" y="0px"
	 viewBox="0 0 24 24" style="enable-background:new 0 0 24 24;" xml:space="preserve">
<g>
	<title>single-man-actions-edit-2</title>
	<path d="M12.129,24c-0.197,0-0.389-0.058-0.554-0.169c-0.222-0.148-0.373-0.374-0.425-0.636c-0.026-0.13-0.026-0.261,0-0.39
		l0.573-2.867c0.04-0.195,0.134-0.371,0.273-0.51l7.525-7.524c0.493-0.493,1.149-0.765,1.849-0.765s1.356,0.272,1.849,0.765
		c1.023,1.024,1.027,2.687,0.01,3.707l-7.524,7.523c-0.14,0.14-0.316,0.234-0.509,0.273l-2.869,0.573
		C12.261,23.993,12.195,24,12.129,24z M21.367,12.139c-0.431,0-0.835,0.167-1.139,0.471l-7.524,7.523L12.131,23l2.867-0.573
		l7.524-7.523c0.628-0.63,0.628-1.655,0-2.285C22.211,12.31,21.802,12.139,21.367,12.139z"/>
	<path d="M0.493,17.137c-0.149,0-0.289-0.066-0.384-0.18c-0.095-0.115-0.134-0.264-0.107-0.411c0.079-0.427,0.141-0.819,0.197-1.178
		c0.252-1.605,0.434-2.763,1.707-3.309l4.088-1.752V8.905C5.634,8.609,5.137,7.948,5.059,6.528C4.545,6.283,4.313,5.675,4.313,5.137
		c0-0.542,0.214-1.015,0.561-1.277C4.566,3.268,4.199,2.498,4.61,1.954c0.188-0.248,0.486-0.374,0.888-0.374
		c0.049,0,0.099,0.002,0.152,0.005c0.566-1.066,2.07-1.449,3.232-1.449c1.461,0,3.078,0.582,3.397,1.881
		c0.121,0.646,0.042,1.305-0.22,1.888c0.266,0.245,0.415,0.639,0.415,1.118c0,0.54-0.193,1.17-0.621,1.46
		c-0.063,1.453-0.525,2.12-0.859,2.414v1.41l4.088,1.752c0.396,0.159,0.739,0.434,0.986,0.793c0.076,0.11,0.104,0.243,0.08,0.374
		s-0.098,0.246-0.208,0.321c-0.084,0.058-0.182,0.088-0.283,0.088c-0.165,0-0.318-0.081-0.412-0.216
		c-0.136-0.197-0.324-0.348-0.546-0.437l-4.401-1.886c-0.184-0.079-0.303-0.259-0.303-0.459v-2c0-0.198,0.114-0.374,0.293-0.455
		c0.048-0.033,0.573-0.429,0.573-2.045c0-0.257,0.195-0.469,0.444-0.497c0.013-0.016,0.033-0.043,0.054-0.085
		c0.071-0.139,0.115-0.343,0.115-0.531c0-0.187-0.048-0.386-0.12-0.386c-0.188,0-0.358-0.104-0.444-0.271
		c-0.086-0.167-0.072-0.365,0.036-0.519c0.331-0.467,0.461-1.057,0.356-1.62C11.125,1.517,9.95,1.137,8.881,1.137
		S6.636,1.521,6.456,2.256C6.401,2.48,6.201,2.637,5.97,2.637c-0.034,0-0.068-0.004-0.102-0.01C5.721,2.596,5.595,2.58,5.494,2.58
		c-0.028,0-0.05,0.001-0.068,0.003c0.015,0.11,0.094,0.355,0.381,0.904C5.962,3.786,6.048,3.95,6.048,4.137
		c0,0.276-0.224,0.5-0.5,0.5c-0.176,0-0.236,0.343-0.236,0.5s0.059,0.5,0.236,0.5c0.276,0,0.5,0.224,0.5,0.5
		c0,1.694,0.637,2.038,0.644,2.041c0.177,0.075,0.302,0.261,0.302,0.459v2c0,0.2-0.119,0.381-0.303,0.46l-4.391,1.882
		c-0.735,0.315-0.865,0.967-1.113,2.544c-0.031,0.195-0.063,0.4-0.098,0.615h11.405c0.276,0,0.5,0.224,0.5,0.5s-0.224,0.5-0.5,0.5
		H0.493z"/>
</g>
</svg>
