<?xml version="1.0" encoding="utf-8"?>
<!-- Generator: Adobe Illustrator 22.1.0, SVG Export Plug-In . SVG Version: 6.00 Build 0)  -->
<svg version="1.1" id="Light" xmlns="http://www.w3.org/2000/svg" xmlns:xlink="http://www.w3.org/1999/xlink" x="0px" y="0px"
	 viewBox="0 0 24 24" style="enable-background:new 0 0 24 24;" xml:space="preserve">
<g>
	<title>single-man-actions-view</title>
	<path d="M23.5,24c-0.134,0-0.259-0.052-0.354-0.146l-2.938-2.938c-0.9,0.738-2.02,1.142-3.18,1.142
		c-2.773,0-5.029-2.256-5.029-5.029S14.256,12,17.029,12s5.029,2.256,5.029,5.029c0,1.16-0.404,2.28-1.142,3.18l2.938,2.938
		C23.948,23.241,24,23.366,24,23.5s-0.052,0.259-0.146,0.354S23.633,24,23.5,24z M17.029,13C14.807,13,13,14.807,13,17.029
		s1.807,4.029,4.029,4.029s4.029-1.807,4.029-4.029S19.25,13,17.029,13z"/>
	<path d="M0.5,17c-0.149,0-0.289-0.066-0.384-0.18c-0.095-0.115-0.135-0.264-0.107-0.411c0.079-0.427,0.141-0.819,0.197-1.178
		c0.252-1.604,0.434-2.763,1.707-3.308L6,10.17V8.768C5.641,8.473,5.143,7.811,5.065,6.392C4.551,6.146,4.319,5.538,4.319,5
		c0-0.358,0.094-0.699,0.266-0.961c0.082-0.125,0.182-0.232,0.295-0.317C4.573,3.131,4.205,2.361,4.616,1.818
		c0.187-0.248,0.486-0.374,0.887-0.374c0.049,0,0.1,0.002,0.153,0.006C6.222,0.384,7.726,0,8.888,0c1.461,0,3.078,0.582,3.396,1.881
		c0.121,0.646,0.042,1.305-0.22,1.888c0.266,0.245,0.415,0.639,0.415,1.118c0,0.54-0.193,1.17-0.621,1.46
		C11.795,7.799,11.334,8.466,11,8.76v1.41l2.213,0.948c0.123,0.053,0.218,0.15,0.267,0.274c0.05,0.124,0.048,0.26-0.005,0.383
		c-0.079,0.184-0.259,0.303-0.46,0.303c-0.068,0-0.135-0.014-0.198-0.041l-2.515-1.077C10.119,10.881,10,10.7,10,10.5v-2
		c0-0.198,0.114-0.374,0.293-0.455C10.341,8.012,10.866,7.615,10.866,6c0-0.257,0.195-0.469,0.444-0.497
		c0.013-0.016,0.033-0.043,0.054-0.085c0.071-0.139,0.115-0.343,0.115-0.531c0-0.187-0.048-0.386-0.12-0.386
		c-0.188,0-0.358-0.104-0.444-0.271c-0.086-0.167-0.072-0.365,0.036-0.519c0.331-0.467,0.461-1.057,0.356-1.62
		C11.132,1.38,9.957,1,8.888,1C7.819,1,6.643,1.384,6.462,2.119C6.407,2.343,6.207,2.5,5.976,2.5c-0.033,0-0.066-0.003-0.1-0.01
		C5.727,2.459,5.601,2.443,5.5,2.443c-0.028,0-0.05,0.001-0.068,0.003c0.015,0.11,0.094,0.355,0.381,0.904
		C5.969,3.649,6.055,3.813,6.055,4c0,0.276-0.224,0.5-0.5,0.5c-0.041,0-0.081,0.007-0.133,0.086C5.357,4.684,5.319,4.839,5.319,5
		c0,0.157,0.059,0.5,0.236,0.5c0.276,0,0.5,0.224,0.5,0.5c0,1.7,0.629,2.035,0.636,2.038C6.869,8.103,7,8.292,7,8.5v2
		c0,0.2-0.119,0.381-0.303,0.46l-4.391,1.882c-0.735,0.315-0.865,0.967-1.113,2.544C1.162,15.58,1.13,15.785,1.095,16H10.5
		c0.276,0,0.5,0.224,0.5,0.5S10.776,17,10.5,17H0.5z"/>
</g>
</svg>
