<?xml version="1.0" encoding="utf-8"?>
<!-- Generator: Adobe Illustrator 22.1.0, SVG Export Plug-In . SVG Version: 6.00 Build 0)  -->
<svg version="1.1" id="Layer_1" xmlns="http://www.w3.org/2000/svg" xmlns:xlink="http://www.w3.org/1999/xlink" x="0px" y="0px"
	 viewBox="0 0 24 24" style="enable-background:new 0 0 24 24;" xml:space="preserve">
<g>
	<title>taking-pictures-man-1</title>
	<path d="M1.5,16C0.673,16,0,15.327,0,14.5v-6C0,7.673,0.673,7,1.5,7h3.69c0.243-0.477,0.578-1,1.428-1h2.264
		c0.85,0,1.185,0.523,1.428,1h1.19C12.327,7,13,7.673,13,8.5v6c0,0.827-0.673,1.5-1.5,1.5H1.5z M1.5,8C1.224,8,1,8.224,1,8.5v6
		C1,14.776,1.224,15,1.5,15h10c0.276,0,0.5-0.224,0.5-0.5v-6C12,8.224,11.775,8,11.5,8H10C9.809,8,9.638,7.894,9.552,7.724
		L9.498,7.614C9.226,7.063,9.162,7,8.882,7H6.618C6.337,7,6.274,7.063,6.002,7.614L5.947,7.723C5.862,7.894,5.69,8,5.5,8H1.5z"/>
	<path d="M7.5,13.5C6.121,13.5,5,12.379,5,11s1.121-2.5,2.5-2.5S10,9.622,10,11S8.878,13.5,7.5,13.5z M7.5,9.5
		C6.673,9.5,6,10.173,6,11s0.673,1.5,1.5,1.5S9,11.827,9,11S8.327,9.5,7.5,9.5z"/>
	<path d="M0.5,24c-0.135,0-0.266-0.055-0.359-0.152C0.046,23.751-0.005,23.618,0,23.483c0.051-1.486,0.404-2.918,1.049-4.257
		c0.013-0.026,0.028-0.052,0.045-0.076c0.729-1.003,1.736-1.738,2.912-2.125C4.056,17.008,4.109,17,4.163,17
		c0.216,0,0.407,0.138,0.475,0.344c0.042,0.127,0.032,0.262-0.029,0.382c-0.06,0.119-0.163,0.208-0.29,0.25
		c-0.961,0.316-1.787,0.913-2.389,1.726c-0.498,1.044-0.8,2.153-0.9,3.299h21.938c-0.101-1.161-0.41-2.283-0.919-3.34
		c-0.554-1.108-3.152-2.063-6.158-3.169c-0.506-0.186-1.03-0.378-1.567-0.58C14.13,15.838,14,15.65,14,15.443v-3
		c0-0.156,0.075-0.306,0.2-0.4c0.814-0.61,1.3-1.582,1.3-2.6c0-0.233,0.16-0.429,0.375-0.484c0.067-0.109,0.186-0.391,0.201-0.769
		c0.006-0.149,0.002-0.649-0.3-0.8C15.606,7.305,15.5,7.134,15.5,6.943c0-0.172,0.072-0.354,0.247-0.794
		c0.345-0.869,0.987-2.486,0.763-3.608c-0.201-1.002-2.012-1.5-3.611-1.538C12.826,1.001,12.755,1,12.684,1
		c-1.836,0-3.068,0.541-3.199,1.064C9.429,2.287,9.23,2.443,9,2.443c-0.409,0-0.694,0.099-0.872,0.302
		C7.867,3.044,7.787,3.627,7.895,4.433c0.018,0.132-0.017,0.264-0.098,0.37C7.716,4.909,7.599,4.978,7.466,4.996
		C7.443,4.999,7.422,5,7.4,5c-0.25,0-0.463-0.186-0.496-0.433c-0.152-1.132,0.002-1.943,0.471-2.48
		c0.31-0.354,0.74-0.564,1.281-0.625C9.247,0.388,11.1,0,12.684,0c0.079,0,0.159,0.001,0.238,0.003
		c1.9,0.045,4.236,0.686,4.568,2.342c0.281,1.411-0.431,3.207-0.814,4.172c-0.031,0.079-0.064,0.161-0.093,0.237
		c0.532,0.529,0.563,1.408,0.415,2.037c-0.05,0.21-0.193,0.693-0.51,0.962c-0.084,1.136-0.621,2.192-1.489,2.93v2.413
		c0.422,0.157,0.835,0.309,1.236,0.457c3.469,1.276,5.976,2.198,6.711,3.667c0.648,1.345,1.002,2.778,1.052,4.264
		c0.005,0.134-0.046,0.267-0.14,0.365C23.765,23.945,23.634,24,23.5,24H0.5z"/>
</g>
</svg>
