<?xml version="1.0" encoding="utf-8"?>
<!-- Generator: Adobe Illustrator 22.1.0, SVG Export Plug-In . SVG Version: 6.00 Build 0)  -->
<svg version="1.1" id="Layer_1" xmlns="http://www.w3.org/2000/svg" xmlns:xlink="http://www.w3.org/1999/xlink" x="0px" y="0px"
	 viewBox="0 0 24 24" style="enable-background:new 0 0 24 24;" xml:space="preserve">
<g>
	<title>taking-pictures-human_1</title>
	<path d="M1.5,15.5C0.673,15.5,0,14.827,0,14V8c0-0.827,0.673-1.5,1.5-1.5h3.69c0.243-0.477,0.578-1,1.428-1h2.264
		c0.85,0,1.185,0.523,1.428,1h1.19C12.327,6.5,13,7.173,13,8v6c0,0.827-0.673,1.5-1.5,1.5H1.5z M1.5,7.5C1.224,7.5,1,7.724,1,8v6
		c0,0.276,0.224,0.5,0.5,0.5h10c0.276,0,0.5-0.224,0.5-0.5V8c0-0.276-0.224-0.5-0.5-0.5H10c-0.191,0-0.362-0.106-0.447-0.276
		L9.498,7.114C9.226,6.563,9.162,6.5,8.882,6.5H6.618c-0.281,0-0.344,0.063-0.616,0.614L5.947,7.223C5.862,7.394,5.69,7.5,5.5,7.5
		H1.5z"/>
	<path d="M7.5,13C6.121,13,5,11.878,5,10.5S6.121,8,7.5,8S10,9.121,10,10.5S8.878,13,7.5,13z M7.5,9C6.673,9,6,9.673,6,10.5
		S6.673,12,7.5,12S9,11.327,9,10.5S8.327,9,7.5,9z"/>
	<path d="M0.5,23.5c-0.135,0-0.266-0.055-0.359-0.152C0.046,23.25-0.005,23.118,0,22.983c0.051-1.486,0.404-2.918,1.049-4.257
		c0.014-0.028,0.029-0.053,0.047-0.077c0.73-1.001,1.737-1.735,2.914-2.123C4.06,16.508,4.113,16.5,4.167,16.5
		c0.216,0,0.407,0.138,0.475,0.344c0.086,0.262-0.057,0.545-0.318,0.632c-0.963,0.317-1.79,0.914-2.393,1.727
		c-0.497,1.044-0.8,2.152-0.9,3.299h21.938c-0.101-1.161-0.41-2.283-0.919-3.34c-0.55-1.106-3.141-2.059-6.142-3.162l-0.928-0.342
		c-0.321-0.119-0.746-0.438-0.951-1.281c-0.23-0.947-0.122-2.46,0.362-2.992c0.906-0.995,1.79-2.231,1.79-5.382
		c0-2.24-1.292-4.5-4.18-4.5c-0.059-0.002-0.108-0.003-0.157-0.003c-1.688,0-3.183,1.07-3.72,2.663C8.054,4.363,7.864,4.5,7.649,4.5
		c-0.054,0-0.108-0.009-0.16-0.026C7.362,4.431,7.26,4.342,7.201,4.222C7.141,4.102,7.132,3.967,7.175,3.84
		c0.665-1.969,2.58-3.343,4.659-3.343c0.061,0,0.123,0.001,0.185,0.004c0,0,0.001,0,0.001,0c1.353,0,2.612,0.473,3.536,1.332
		C16.618,2.819,17.18,4.26,17.18,6c0,3.509-1.013,4.915-2.05,6.055c-0.141,0.156-0.336,1.232-0.13,2.083
		c0.077,0.316,0.199,0.533,0.327,0.58l0.926,0.341c3.463,1.273,5.966,2.193,6.695,3.661c0.648,1.344,1.001,2.777,1.052,4.262
		c0.005,0.134-0.046,0.267-0.14,0.365c-0.094,0.097-0.225,0.153-0.36,0.153H0.5z"/>
</g>
</svg>
