<?xml version="1.0" encoding="utf-8"?>
<!-- Generator: Adobe Illustrator 22.1.0, SVG Export Plug-In . SVG Version: 6.00 Build 0)  -->
<svg version="1.1" id="Layer_1" xmlns="http://www.w3.org/2000/svg" xmlns:xlink="http://www.w3.org/1999/xlink" x="0px" y="0px"
	 viewBox="0 0 24 24" style="enable-background:new 0 0 24 24;" xml:space="preserve">
<g>
	<title>face-id-5</title>
	<path d="M0.5,7C0.224,7,0,6.776,0,6.5v-3C0,1.57,1.57,0,3.5,0h3C6.776,0,7,0.224,7,0.5S6.776,1,6.5,1h-3C2.121,1,1,2.121,1,3.5v3
		C1,6.776,0.776,7,0.5,7z"/>
	<path d="M23.5,7C23.224,7,23,6.776,23,6.5v-3C23,2.121,21.878,1,20.5,1h-3C17.224,1,17,0.776,17,0.5S17.224,0,17.5,0h3
		C22.43,0,24,1.57,24,3.5v3C24,6.776,23.776,7,23.5,7z"/>
	<path d="M3.5,24C1.57,24,0,22.43,0,20.5v-3C0,17.224,0.224,17,0.5,17S1,17.224,1,17.5v3C1,21.878,2.121,23,3.5,23h3
		C6.776,23,7,23.224,7,23.5S6.776,24,6.5,24H3.5z"/>
	<path d="M17.5,24c-0.276,0-0.5-0.224-0.5-0.5s0.224-0.5,0.5-0.5h3c1.378,0,2.5-1.122,2.5-2.5v-3c0-0.276,0.224-0.5,0.5-0.5
		s0.5,0.224,0.5,0.5v3c0,1.93-1.57,3.5-3.5,3.5H17.5z"/>
	<path d="M3.82,20.044c-0.165,0-0.318-0.081-0.412-0.216c-0.076-0.109-0.104-0.242-0.081-0.374c0.024-0.131,0.098-0.246,0.207-0.322
		c1.091-0.754,2.967-1.435,4.782-2.092l0.037-0.014c0.384-0.139,0.766-0.278,1.141-0.417v-1.846c-0.501-0.306-1.384-1.102-1.49-2.94
		c-0.393-0.23-0.63-0.736-0.63-1.368c0-0.345,0.077-0.675,0.217-0.929C7.676,9.376,7.783,9.25,7.907,9.156
		C7.651,8.243,7.222,6.651,7.969,5.844C8.236,5.556,8.604,5.41,9.065,5.41c0.037,0,0.075,0.001,0.113,0.003
		c0.599-1.071,2.269-1.456,3.567-1.456c1.625,0,3.41,0.581,3.735,1.879c0.295,1.184-0.143,2.572-0.385,3.328
		c0.329,0.256,0.52,0.721,0.52,1.293c0,0.631-0.237,1.137-0.63,1.367c-0.105,1.838-0.989,2.634-1.49,2.94v1.845
		c0.412,0.153,0.821,0.301,1.223,0.446l0.036,0.013c1.888,0.683,3.672,1.329,4.711,2.053c0.11,0.076,0.183,0.191,0.207,0.322
		c0.023,0.132-0.006,0.264-0.082,0.374c-0.093,0.134-0.247,0.214-0.41,0.214l0,0c-0.103,0-0.201-0.031-0.285-0.089
		c-0.93-0.648-2.652-1.271-4.474-1.931c-0.528-0.191-1.064-0.385-1.6-0.586c-0.194-0.073-0.325-0.261-0.325-0.468v-2.5
		c0-0.216,0.137-0.406,0.342-0.474c0.043-0.015,1.158-0.437,1.158-2.526c0-0.276,0.224-0.5,0.5-0.5
		c0.03-0.025,0.119-0.224,0.119-0.5s-0.09-0.475-0.138-0.504c-0.002,0-0.005,0-0.007,0c-0.254,0-0.474-0.223-0.474-0.496
		c0-0.132,0.041-0.266,0.142-0.58c0.21-0.658,0.602-1.883,0.373-2.799c-0.184-0.736-1.53-1.121-2.765-1.121
		c-1.235,0-2.581,0.385-2.765,1.121C9.924,6.301,9.725,6.457,9.495,6.457c-0.032,0-0.065-0.003-0.097-0.01
		C9.274,6.423,9.163,6.41,9.066,6.41c-0.172,0-0.294,0.038-0.363,0.113C8.322,6.935,8.74,8.423,8.877,8.912
		c0.081,0.289,0.118,0.421,0.118,0.545c0,0.276-0.224,0.5-0.5,0.5c-0.03,0.025-0.12,0.223-0.12,0.5s0.09,0.475,0.138,0.504
		c0.002,0,0.005,0,0.007,0c0.255,0,0.475,0.223,0.475,0.496c0,2.078,1.115,2.51,1.163,2.527c0.2,0.066,0.337,0.257,0.337,0.473v2.5
		c0,0.207-0.13,0.395-0.323,0.468c-0.487,0.184-0.994,0.368-1.501,0.552c-1.766,0.64-3.582,1.298-4.567,1.979
		C4.021,20.013,3.922,20.044,3.82,20.044z"/>
</g>
</svg>
