<?xml version="1.0" encoding="utf-8"?>
<!-- Generator: Adobe Illustrator 22.1.0, SVG Export Plug-In . SVG Version: 6.00 Build 0)  -->
<svg version="1.1" id="Layer_1" xmlns="http://www.w3.org/2000/svg" xmlns:xlink="http://www.w3.org/1999/xlink" x="0px" y="0px"
	 viewBox="0 0 24 24" style="enable-background:new 0 0 24 24;" xml:space="preserve">
<g>
	<title>face-id-7</title>
	<path d="M0.5,7C0.224,7,0,6.776,0,6.5v-3C0,1.57,1.57,0,3.5,0h3C6.776,0,7,0.224,7,0.5S6.776,1,6.5,1h-3C2.121,1,1,2.121,1,3.5v3
		C1,6.776,0.776,7,0.5,7z"/>
	<path d="M23.5,7C23.224,7,23,6.776,23,6.5v-3C23,2.121,21.878,1,20.5,1h-3C17.224,1,17,0.776,17,0.5S17.224,0,17.5,0h3
		C22.43,0,24,1.57,24,3.5v3C24,6.776,23.776,7,23.5,7z"/>
	<path d="M3.5,24C1.57,24,0,22.43,0,20.5v-3C0,17.224,0.224,17,0.5,17S1,17.224,1,17.5v3C1,21.878,2.121,23,3.5,23h3
		C6.776,23,7,23.224,7,23.5S6.776,24,6.5,24H3.5z"/>
	<path d="M17.5,24c-0.276,0-0.5-0.224-0.5-0.5s0.224-0.5,0.5-0.5h3c1.378,0,2.5-1.122,2.5-2.5v-3c0-0.276,0.224-0.5,0.5-0.5
		s0.5,0.224,0.5,0.5v3c0,1.93-1.57,3.5-3.5,3.5H17.5z"/>
	<path d="M14.511,21.25c-0.276,0-0.5-0.224-0.5-0.5v-2.5c0-0.276,0.224-0.5,0.5-0.5h0.751c0.077,0.006,0.13,0.009,0.182,0.009
		c0.813,0,1.485-0.603,1.563-1.403c0.003-0.037,0.006-0.076,0.007-0.115V14.25c0-0.276,0.224-0.5,0.5-0.5h1.938
		c-0.137-0.431-0.271-0.866-0.405-1.303L19.03,12.39c-1.177-3.847-2.394-7.825-6.211-8.523c-0.449-0.087-0.903-0.131-1.353-0.131
		c-1.389,0-2.738,0.415-3.902,1.2C6.015,5.983,4.965,7.57,4.609,9.405c-0.034,0.173-0.061,0.35-0.082,0.527
		c-0.228,2.479,0.812,4.883,2.781,6.424C7.43,16.452,7.5,16.595,7.5,16.75v4c0,0.276-0.224,0.5-0.5,0.5s-0.5-0.224-0.5-0.5v-3.761
		c-2.111-1.753-3.219-4.42-2.967-7.16c0.024-0.212,0.056-0.417,0.094-0.615c0.407-2.098,1.606-3.911,3.377-5.107
		c1.329-0.898,2.872-1.372,4.461-1.372c0.513,0,1.03,0.05,1.539,0.148c4.41,0.807,5.718,5.08,6.982,9.212
		c0.157,0.515,0.312,1.018,0.47,1.511c0.029,0.088,0.044,0.181,0.043,0.276c-0.001,0.232-0.093,0.451-0.259,0.615
		c-0.164,0.163-0.382,0.252-0.613,0.252h-1.614v1.5c-0.001,0.074-0.005,0.138-0.011,0.202c-0.066,0.679-0.392,1.292-0.919,1.726
		c-0.463,0.381-1.022,0.582-1.618,0.582l0,0c-0.083,0-0.167-0.004-0.252-0.012l-0.203,0.001v2.001
		C15.011,21.026,14.787,21.25,14.511,21.25z"/>
</g>
</svg>
