<?xml version="1.0" encoding="utf-8"?>
<!-- Generator: Adobe Illustrator 22.1.0, SVG Export Plug-In . SVG Version: 6.00 Build 0)  -->
<svg version="1.1" id="Layer_1" xmlns="http://www.w3.org/2000/svg" xmlns:xlink="http://www.w3.org/1999/xlink" x="0px" y="0px"
	 viewBox="0 0 24 24" style="enable-background:new 0 0 24 24;" xml:space="preserve">
<g>
	<title>face-id-4</title>
	<path d="M0.5,7C0.224,7,0,6.776,0,6.5v-3C0,1.57,1.57,0,3.5,0h3C6.776,0,7,0.224,7,0.5S6.776,1,6.5,1h-3C2.121,1,1,2.121,1,3.5v3
		C1,6.776,0.776,7,0.5,7z"/>
	<path d="M23.5,7C23.224,7,23,6.776,23,6.5v-3C23,2.121,21.878,1,20.5,1h-3C17.224,1,17,0.776,17,0.5S17.224,0,17.5,0h3
		C22.43,0,24,1.57,24,3.5v3C24,6.776,23.776,7,23.5,7z"/>
	<path d="M3.5,24C1.57,24,0,22.43,0,20.5v-3C0,17.224,0.224,17,0.5,17S1,17.224,1,17.5v3C1,21.878,2.121,23,3.5,23h3
		C6.776,23,7,23.224,7,23.5S6.776,24,6.5,24H3.5z"/>
	<path d="M17.5,24c-0.276,0-0.5-0.224-0.5-0.5s0.224-0.5,0.5-0.5h3c1.378,0,2.5-1.122,2.5-2.5v-3c0-0.276,0.224-0.5,0.5-0.5
		s0.5,0.224,0.5,0.5v3c0,1.93-1.57,3.5-3.5,3.5H17.5z"/>
	<path d="M20.041,19.587c-0.088,0-0.175-0.023-0.25-0.068c-1.673-0.97-3.458-1.745-5.307-2.306
		c-0.479-0.176-0.821-0.623-0.977-1.262c-0.189-0.774-0.104-1.861,0.424-2.442c0.744-0.818,1.47-1.834,1.47-4.429
		c0.014-0.178,0.019-0.313,0.015-0.448c-0.049-1.776-1.538-3.221-3.319-3.221l-0.083,0.001l-0.11-0.001
		c-0.11,0-0.214,0.005-0.317,0.014C9.767,5.597,8.427,7.215,8.598,9.033c0.002,2.64,0.728,3.658,1.472,4.475
		c0.528,0.582,0.613,1.669,0.424,2.443c-0.156,0.639-0.493,1.084-0.949,1.253C7.673,17.772,5.882,18.55,4.21,19.52
		c-0.076,0.044-0.162,0.067-0.25,0.067c-0.178,0-0.344-0.095-0.433-0.249c-0.138-0.239-0.057-0.545,0.182-0.684
		c1.74-1.008,3.596-1.815,5.519-2.398c0.079-0.03,0.216-0.216,0.296-0.543c0.15-0.613,0.019-1.3-0.193-1.533
		C8.455,13.219,7.6,12.033,7.6,9.08C7.494,7.969,7.84,6.856,8.576,5.971c0.737-0.886,1.772-1.433,2.916-1.541
		c0.132-0.012,0.268-0.019,0.405-0.019c0.039,0,0.078,0,0.117,0.002c0.029-0.001,0.071-0.002,0.113-0.002
		c2.301,0,4.225,1.881,4.289,4.194c0.005,0.173-0.001,0.348-0.017,0.521c0.002,2.908-0.853,4.093-1.728,5.055
		c-0.211,0.232-0.342,0.919-0.192,1.532c0.086,0.351,0.228,0.517,0.324,0.552c1.898,0.574,3.75,1.379,5.49,2.388
		c0.238,0.138,0.32,0.445,0.182,0.683C20.384,19.492,20.218,19.587,20.041,19.587L20.041,19.587z"/>
</g>
</svg>
