<?xml version="1.0" encoding="utf-8"?>
<!-- Generator: Adobe Illustrator 22.1.0, SVG Export Plug-In . SVG Version: 6.00 Build 0)  -->
<svg version="1.1" id="Layer_1" xmlns="http://www.w3.org/2000/svg" xmlns:xlink="http://www.w3.org/1999/xlink" x="0px" y="0px"
	 viewBox="0 0 24 24" style="enable-background:new 0 0 24 24;" xml:space="preserve">
<g>
	<title>face-id-smartphone</title>
	<path d="M7.5,24C6.121,24,5,22.878,5,21.5v-19C5,1.121,6.121,0,7.5,0h9C17.878,0,19,1.121,19,2.5v19c0,1.378-1.122,2.5-2.5,2.5H7.5
		z M7.5,1C6.673,1,6,1.673,6,2.5v19C6,22.327,6.673,23,7.5,23h9c0.827,0,1.5-0.673,1.5-1.5v-19C18,1.673,17.327,1,16.5,1H15v0.5
		C15,2.327,14.327,3,13.5,3h-3C9.673,3,9,2.327,9,1.5V1H7.5z M10,1.5C10,1.776,10.224,2,10.5,2h3C13.776,2,14,1.776,14,1.5V1h-4V1.5
		z"/>
	<path d="M10.7,13.913c-0.276,0-0.5-0.224-0.5-0.5s0.224-0.5,0.5-0.5h0.322c0.264,0,0.478-0.214,0.478-0.478V9.5
		C11.5,9.224,11.724,9,12,9c0.276,0,0.5,0.224,0.5,0.5v2.935c0,0.815-0.663,1.478-1.478,1.478H10.7z"/>
	<path d="M8.5,11.63c-0.276,0-0.5-0.224-0.5-0.5V9.5C8,9.224,8.224,9,8.5,9S9,9.224,9,9.5v1.63C9,11.406,8.776,11.63,8.5,11.63z"/>
	<path d="M15.5,11.63c-0.276,0-0.5-0.224-0.5-0.5V9.5C15,9.224,15.224,9,15.5,9S16,9.224,16,9.5v1.63
		C16,11.406,15.776,11.63,15.5,11.63z"/>
	<path d="M11.674,16.848c-1.046,0-2.041-0.396-2.801-1.114c-0.2-0.189-0.209-0.507-0.02-0.707c0.094-0.1,0.227-0.156,0.363-0.156
		c0.128,0,0.25,0.049,0.344,0.137c0.573,0.542,1.324,0.841,2.113,0.841c0.79,0,1.54-0.299,2.113-0.841
		c0.094-0.088,0.216-0.136,0.344-0.136c0.136,0,0.269,0.057,0.363,0.156c0.19,0.2,0.181,0.518-0.019,0.707
		C13.715,16.452,12.72,16.848,11.674,16.848z"/>
</g>
</svg>
