<?xml version="1.0" encoding="utf-8"?>
<!-- Generator: Adobe Illustrator 22.1.0, SVG Export Plug-In . SVG Version: 6.00 Build 0)  -->
<svg version="1.1" id="Light" xmlns="http://www.w3.org/2000/svg" xmlns:xlink="http://www.w3.org/1999/xlink" x="0px" y="0px"
	 viewBox="0 0 24 24" style="enable-background:new 0 0 24 24;" xml:space="preserve">
<g>
	<title>single-woman-focus</title>
	<path d="M1.5,24C0.673,24,0,23.327,0,22.5v-6C0,16.224,0.224,16,0.5,16S1,16.224,1,16.5v6C1,22.776,1.224,23,1.5,23h6
		C7.776,23,8,23.224,8,23.5S7.776,24,7.5,24H1.5z"/>
	<path d="M0.5,8C0.224,8,0,7.776,0,7.5v-6C0,0.673,0.673,0,1.5,0h6C7.776,0,8,0.224,8,0.5S7.776,1,7.5,1h-6C1.224,1,1,1.224,1,1.5v6
		C1,7.776,0.776,8,0.5,8z"/>
	<path d="M16.5,24c-0.276,0-0.5-0.224-0.5-0.5s0.224-0.5,0.5-0.5h6c0.276,0,0.5-0.224,0.5-0.5v-6c0-0.276,0.224-0.5,0.5-0.5
		s0.5,0.224,0.5,0.5v6c0,0.827-0.673,1.5-1.5,1.5H16.5z"/>
	<path d="M23.5,8C23.224,8,23,7.776,23,7.5v-6C23,1.224,22.776,1,22.5,1h-6C16.224,1,16,0.776,16,0.5S16.224,0,16.5,0h6
		C23.327,0,24,0.673,24,1.5v6C24,7.776,23.776,8,23.5,8z"/>
	<path d="M16.37,12.873c-0.174,0-0.337-0.092-0.427-0.24c-0.323-0.529-0.546-1.107-0.664-1.708
		c-0.646,1.168-1.887,1.937-3.277,1.937c-0.062,0-0.125-0.001-0.188-0.005c-1.327-0.066-2.481-0.815-3.094-1.926
		c-0.118,0.598-0.342,1.173-0.664,1.702c-0.092,0.15-0.251,0.24-0.427,0.24c-0.092,0-0.181-0.025-0.26-0.073
		c-0.236-0.144-0.31-0.452-0.167-0.687c0.43-0.705,0.642-1.515,0.614-2.34l0-1.088c0-2.307,1.876-4.183,4.183-4.183
		c2.307,0,4.183,1.877,4.183,4.183v1.071c-0.028,0.84,0.184,1.652,0.614,2.357c0.07,0.114,0.091,0.248,0.059,0.378
		c-0.031,0.13-0.112,0.24-0.226,0.309C16.552,12.848,16.462,12.873,16.37,12.873z M9.313,9.693c0.258,1.208,1.295,2.104,2.55,2.166
		c0.047,0.002,0.094,0.004,0.14,0.004c1.298,0,2.411-0.917,2.681-2.17C13.678,9.501,12.74,9.024,12,8.327
		C11.259,9.024,10.321,9.501,9.313,9.693z M12,7.109c0.148,0,0.285,0.062,0.378,0.169C13.089,8.1,14.1,8.63,15.183,8.757V8.685
		c0-1.755-1.428-3.183-3.183-3.183S8.817,6.93,8.817,8.685v0.072C9.901,8.63,10.911,8.1,11.622,7.278
		C11.715,7.171,11.852,7.109,12,7.109z"/>
	<path d="M6.5,20C6.224,20,6,19.776,6,19.5c0-3.308,2.692-6,6-6s6,2.692,6,6c0,0.276-0.224,0.5-0.5,0.5H6.5z M16.975,19
		c-0.251-2.544-2.388-4.5-4.975-4.5S7.276,16.456,7.025,19H16.975z"/>
</g>
</svg>
