<?xml version="1.0" encoding="utf-8"?>
<!-- Generator: Adobe Illustrator 22.1.0, SVG Export Plug-In . SVG Version: 6.00 Build 0)  -->
<svg version="1.1" id="Light" xmlns="http://www.w3.org/2000/svg" xmlns:xlink="http://www.w3.org/1999/xlink" x="0px" y="0px"
	 viewBox="0 0 24 24" style="enable-background:new 0 0 24 24;" xml:space="preserve">
<g>
	<title>single-woman-shield</title>
	<path d="M16.369,12.373c-0.176,0-0.336-0.09-0.427-0.24c-0.322-0.529-0.546-1.107-0.664-1.708
		c-0.646,1.167-1.887,1.937-3.277,1.937c-0.062,0-0.125-0.001-0.188-0.005c-1.327-0.066-2.48-0.814-3.093-1.926
		c-0.118,0.598-0.342,1.173-0.664,1.701c-0.09,0.148-0.254,0.24-0.427,0.24l0,0c-0.092,0-0.182-0.025-0.26-0.073
		c-0.235-0.143-0.31-0.451-0.167-0.687c0.43-0.705,0.642-1.515,0.614-2.34l0-1.088c0-2.307,1.876-4.183,4.183-4.183
		c2.306,0,4.183,1.877,4.183,4.183v0.584c0.001,0.008,0.001,0.016,0.001,0.024s0,0.016-0.001,0.024v0.439
		c-0.028,0.84,0.184,1.652,0.614,2.357c0.144,0.236,0.069,0.544-0.167,0.687C16.551,12.348,16.461,12.373,16.369,12.373z
		 M9.312,9.193c0.258,1.207,1.295,2.103,2.55,2.166c0.045,0.002,0.09,0.003,0.134,0.003c1.302,0,2.418-0.917,2.687-2.17
		C13.678,9,12.74,8.523,12,7.827C11.259,8.524,10.32,9.001,9.312,9.193z M11.999,5.002c-1.755,0-3.183,1.428-3.183,3.183v0.072
		C9.9,8.13,10.911,7.6,11.622,6.778C11.714,6.671,11.852,6.609,12,6.609c0.147,0,0.285,0.062,0.378,0.169
		c0.71,0.822,1.72,1.352,2.804,1.479V8.185C15.182,6.43,13.754,5.002,11.999,5.002z"/>
	<path d="M16.882,17c-0.189,0-0.36-0.105-0.446-0.274C15.585,15.045,13.882,14,11.991,14c-0.782,0-1.535,0.18-2.237,0.536
		c-0.951,0.481-1.709,1.239-2.19,2.19C7.479,16.895,7.307,17,7.118,17c-0.078,0-0.156-0.019-0.225-0.054
		c-0.246-0.125-0.345-0.426-0.22-0.672c0.578-1.142,1.488-2.052,2.631-2.631C10.146,13.217,11.05,13,11.99,13
		c2.27,0,4.315,1.254,5.338,3.273c0.124,0.246,0.025,0.547-0.22,0.672C17.037,16.982,16.96,17,16.882,17L16.882,17z"/>
	<path d="M12,24c-0.038,0-0.075-0.004-0.111-0.012c-3.364-0.75-6.404-2.647-8.558-5.34C1.176,15.955-0.006,12.573,0,9.124V1.5
		C0,0.673,0.673,0,1.5,0h21C23.327,0,24,0.673,24,1.5v7.625c0.006,3.448-1.177,6.831-3.331,9.523s-5.195,4.589-8.56,5.34
		C12.075,23.996,12.038,24,12,24z M1.5,1C1.224,1,1,1.224,1,1.5v7.625c-0.006,3.222,1.099,6.383,3.112,8.898
		C6.1,20.508,8.899,22.27,12,22.987c3.101-0.718,5.9-2.479,7.888-4.964c2.013-2.516,3.118-5.676,3.112-8.897V1.5
		C23,1.224,22.776,1,22.5,1H1.5z"/>
</g>
</svg>
