<?xml version="1.0" encoding="utf-8"?>
<!-- Generator: Adobe Illustrator 22.1.0, SVG Export Plug-In . SVG Version: 6.00 Build 0)  -->
<svg version="1.1" id="Light" xmlns="http://www.w3.org/2000/svg" xmlns:xlink="http://www.w3.org/1999/xlink" x="0px" y="0px"
	 viewBox="0 0 24 24" style="enable-background:new 0 0 24 24;" xml:space="preserve">
<g>
	<title>single-woman-book</title>
	<path d="M5,24c-1.379,0-2.5-1.122-2.5-2.5V2c0-1.103,0.897-2,2-2H20c0.276,0,0.5,0.224,0.5,0.5S20.276,1,20,1H4.5
		c-0.551,0-1,0.449-1,1s0.449,1,1,1h16c0.552,0,1,0.449,1,1v19c0,0.552-0.448,1-1,1H5z M3.5,21.5C3.5,22.327,4.173,23,5,23h15.5V4
		h-16c-0.357,0-0.699-0.093-1-0.267V21.5z"/>
	<path d="M7,20.5c-0.276,0-0.5-0.224-0.5-0.5c0-3.033,2.467-5.5,5.5-5.5s5.5,2.467,5.5,5.5c0,0.276-0.224,0.5-0.5,0.5H7z
		 M16.472,19.5c-0.25-2.263-2.166-4-4.472-4c-2.307,0-4.223,1.737-4.473,4H16.472z"/>
	<path d="M15.642,14.144c-0.174,0-0.337-0.092-0.427-0.24c-0.235-0.385-0.409-0.806-0.517-1.244
		c-0.581,0.901-1.598,1.482-2.696,1.482c-0.051,0-0.101-0.001-0.152-0.003c-1.053-0.05-1.997-0.614-2.548-1.47
		c-0.108,0.434-0.282,0.852-0.516,1.237c-0.092,0.15-0.252,0.24-0.428,0.24l0,0c-0.091,0-0.181-0.025-0.259-0.073
		c-0.236-0.144-0.31-0.452-0.167-0.687c0.35-0.574,0.523-1.233,0.5-1.904l0-0.908c0-1.968,1.601-3.569,3.569-3.569
		c1.968,0,3.569,1.601,3.569,3.569v0.892c-0.023,0.686,0.15,1.347,0.5,1.921c0.07,0.114,0.091,0.248,0.059,0.378
		c-0.031,0.13-0.112,0.24-0.226,0.309C15.824,14.119,15.734,14.144,15.642,14.144z M9.859,11.476
		c0.233,0.932,1.056,1.617,2.037,1.663c0.038,0.002,0.075,0.003,0.112,0.003c1.01,0,1.887-0.701,2.131-1.666
		c-0.806-0.167-1.537-0.54-2.14-1.09C11.402,10.929,10.657,11.309,9.859,11.476z M12,8.002c-1.405,0-2.55,1.134-2.569,2.535
		c0.854-0.121,1.625-0.538,2.19-1.193C11.714,9.237,11.852,9.175,12,9.175c0.148,0,0.285,0.062,0.378,0.169
		c0.566,0.655,1.336,1.072,2.191,1.193C14.551,9.136,13.405,8.002,12,8.002z"/>
</g>
</svg>
