<svg xmlns="http://www.w3.org/2000/svg" viewBox="0 0 24 24"><title>app-window-star</title><path d="M8.83,14.508a.249.249,0,0,1,.086.305l-.837,1.921a1.067,1.067,0,0,0,.268,1.231,1.085,1.085,0,0,0,1.276.141l2.247-1.264a.251.251,0,0,1,.246,0l2.246,1.264a1.108,1.108,0,0,0,.543.145,1.089,1.089,0,0,0,.733-.286,1.065,1.065,0,0,0,.267-1.231l-.837-1.923a.249.249,0,0,1,.085-.3l1.516-1.064a1.069,1.069,0,0,0,.254-1.168,1.049,1.049,0,0,0-.994-.65H14.2a.25.25,0,0,1-.234-.162L12.991,8.9c-.007-.017-.014-.034-.022-.049a1.124,1.124,0,0,0-1.975.048l-.974,2.569a.25.25,0,0,1-.234.162H8.054a1.048,1.048,0,0,0-.993.648A1.094,1.094,0,0,0,7.382,13.5Z"/><path d="M24,4.751a3,3,0,0,0-3-3H3a3,3,0,0,0-3,3v14.5a3,3,0,0,0,3,3H21a3,3,0,0,0,3-3Zm-14.346-1a.966.966,0,0,1,1.692,0,.969.969,0,0,1,.154.5.972.972,0,0,1-.154.5.966.966,0,0,1-1.692,0,.972.972,0,0,1-.154-.5A.969.969,0,0,1,9.654,3.751Zm-3.5,0a.966.966,0,0,1,1.692,0,.969.969,0,0,1,.154.5.972.972,0,0,1-.154.5.966.966,0,0,1-1.692,0A.972.972,0,0,1,6,4.251.969.969,0,0,1,6.154,3.751Zm-3.562.091A1,1,0,0,1,3.5,3.251a.983.983,0,0,1,.846.5.969.969,0,0,1,.154.5.972.972,0,0,1-.154.5.966.966,0,0,1-1.692,0,.972.972,0,0,1-.154-.5A.987.987,0,0,1,2.592,3.842ZM22,19.251a1,1,0,0,1-1,1H3a1,1,0,0,1-1-1V7a.25.25,0,0,1,.25-.25h19.5A.25.25,0,0,1,22,7Z"/></svg>