<svg xmlns="http://www.w3.org/2000/svg" viewBox="0 0 24 24"><title>app-window-link</title><path d="M17.516,11.772l-1.188,1.191a1,1,0,1,0,1.416,1.412l1.187-1.19a1.828,1.828,0,1,1,2.585,2.586L20.327,16.96a1,1,0,1,0,1.414,1.414l1.189-1.189a3.828,3.828,0,1,0-5.414-5.413Z"/><path d="M17.078,20.211l-1.257,1.257a1.828,1.828,0,0,1-2.585-2.586l1.256-1.257a1,1,0,0,0-1.414-1.414l-1.256,1.257a3.828,3.828,0,0,0,5.413,5.414l1.257-1.257a1,1,0,0,0-1.414-1.414Z"/><path d="M19.742,14.961a1,1,0,0,0-1.414,0L14.793,18.5a1,1,0,1,0,1.414,1.414l3.535-3.535A1,1,0,0,0,19.742,14.961Z"/><path d="M7.465,18.5H2.95a1,1,0,0,1-1-1V5.251A.25.25,0,0,1,2.2,5H21.7a.25.25,0,0,1,.25.25V8.516a1,1,0,0,0,2,.017V3a3,3,0,0,0-3-3h-18a3,3,0,0,0-3,3V17.5a3,3,0,0,0,3,3H7.471A1,1,0,0,0,7.465,18.5ZM9.6,2A.967.967,0,0,1,11.3,2a.969.969,0,0,1,.154.5A.972.972,0,0,1,11.3,3,.967.967,0,0,1,9.6,3a.98.98,0,0,1-.153-.5A.977.977,0,0,1,9.6,2ZM6.1,2A.967.967,0,0,1,7.8,2a.969.969,0,0,1,.154.5A.972.972,0,0,1,7.8,3,.967.967,0,0,1,6.1,3a.98.98,0,0,1-.153-.5A.977.977,0,0,1,6.1,2Zm-3.561.091A1,1,0,0,1,3.45,1.5.983.983,0,0,1,4.3,2a.969.969,0,0,1,.154.5A.972.972,0,0,1,4.3,3,.967.967,0,0,1,2.6,3a.98.98,0,0,1-.153-.5A.987.987,0,0,1,2.542,2.092Z"/></svg>