<svg xmlns="http://www.w3.org/2000/svg" viewBox="0 0 24 24"><title>app-window-expand</title><path d="M10.563,10.059a.5.5,0,0,1,.462-.308h4.5a.5.5,0,0,1,.5.5v4.5a.5.5,0,0,1-.854.353l-1.366-1.366a.25.25,0,0,0-.353,0l-3.72,3.72a1,1,0,0,1-1.414-1.414l3.72-3.72a.25.25,0,0,0,0-.353L10.671,10.6A.5.5,0,0,1,10.563,10.059Z"/><rect x="-0.025" y="18.751" width="10" height="4" rx="1" ry="1"/><path d="M15.025,19.751a1,1,0,0,0-1,1h0a1,1,0,0,0,1,1h6a3,3,0,0,0,3-3V4.251a3,3,0,0,0-3-3h-18a3,3,0,0,0-3,3v9.5a1,1,0,0,0,1,1h0a1,1,0,0,0,1-1V6.5a.25.25,0,0,1,.25-.25h19.5a.25.25,0,0,1,.25.25v12.25a1,1,0,0,1-1,1Zm-5.4-16.5a.967.967,0,0,1,1.693,0,.977.977,0,0,1,.153.5.98.98,0,0,1-.153.5.967.967,0,0,1-1.693,0,.972.972,0,0,1-.154-.5A.969.969,0,0,1,9.629,3.251Zm-3.5,0a.967.967,0,0,1,1.693,0,.977.977,0,0,1,.153.5.98.98,0,0,1-.153.5.967.967,0,0,1-1.693,0,.972.972,0,0,1-.154-.5A.969.969,0,0,1,6.129,3.251Zm-3.562.091a1,1,0,0,1,.908-.591.986.986,0,0,1,.847.5.977.977,0,0,1,.153.5.98.98,0,0,1-.153.5.967.967,0,0,1-1.693,0,.972.972,0,0,1-.154-.5A.987.987,0,0,1,2.567,3.342Z"/></svg>