<svg xmlns="http://www.w3.org/2000/svg" viewBox="0 0 24 24"><title>app-window-password-correct</title><path d="M14.251,16a.75.75,0,0,0-.75-.75h-8a.249.249,0,0,1-.25-.25V11a.249.249,0,0,1,.25-.25h13a.25.25,0,0,1,.25.25v.637a.75.75,0,1,0,1.5,0v-.887a1.5,1.5,0,0,0-1.5-1.5H5.251a1.5,1.5,0,0,0-1.5,1.5v4.5a1.5,1.5,0,0,0,1.5,1.5H13.5A.75.75,0,0,0,14.251,16Z"/><circle cx="8.501" cy="13.001" r="1"/><circle cx="12.501" cy="13.001" r="1"/><path d="M15,18.251a4.5,4.5,0,1,0,4.5-4.5A4.505,4.505,0,0,0,15,18.251Zm6.732-1.763a.75.75,0,0,1,.15,1.05l-1.937,2.583a1.238,1.238,0,0,1-.913.5.91.91,0,0,1-.091,0,1.245,1.245,0,0,1-.879-.366l-1-1a.75.75,0,0,1,1.06-1.061l.594.594a.249.249,0,0,0,.377-.027l1.591-2.121A.746.746,0,0,1,21.732,16.488Z"/><path d="M24,4.251a3,3,0,0,0-3-3H3a3,3,0,0,0-3,3v14.5a3,3,0,0,0,3,3h9.5a1,1,0,0,0,1-1h0a1,1,0,0,0-1-1H3a1,1,0,0,1-1-1V6.5a.25.25,0,0,1,.25-.25h19.5A.25.25,0,0,1,22,6.5v5.25a1,1,0,0,0,1,1h0a1,1,0,0,0,1-1Zm-19.654,0a.966.966,0,0,1-1.692,0,.972.972,0,0,1-.154-.5.987.987,0,0,1,.092-.409A1,1,0,0,1,3.5,2.751a.983.983,0,0,1,.846.5.969.969,0,0,1,.154.5A.972.972,0,0,1,4.346,4.251Zm3.5,0a.966.966,0,0,1-1.692,0A.972.972,0,0,1,6,3.751a.969.969,0,0,1,.154-.5.966.966,0,0,1,1.692,0,.969.969,0,0,1,.154.5A.972.972,0,0,1,7.846,4.251Zm3.5,0a.966.966,0,0,1-1.692,0,.972.972,0,0,1-.154-.5.969.969,0,0,1,.154-.5.966.966,0,0,1,1.692,0,.969.969,0,0,1,.154.5A.972.972,0,0,1,11.346,4.251Z"/></svg>