<svg xmlns="http://www.w3.org/2000/svg" viewBox="0 0 24 24"><title>app-window-cloud</title><path d="M7.81,17.251h8.2a2.857,2.857,0,0,0,2.544-2.732,2.774,2.774,0,0,0-2.78-2.728.249.249,0,0,1-.216-.131A3.972,3.972,0,0,0,12.05,9.6a3.906,3.906,0,0,0-3.924,3.371.219.219,0,0,1-.239.191A2.093,2.093,0,0,0,5.55,15.2C5.55,17.283,7.81,17.251,7.81,17.251Z"/><path d="M24,4.751a3,3,0,0,0-3-3H3a3,3,0,0,0-3,3v14.5a3,3,0,0,0,3,3H21a3,3,0,0,0,3-3Zm-14.346-1a.966.966,0,0,1,1.692,0,.969.969,0,0,1,.154.5.972.972,0,0,1-.154.5.966.966,0,0,1-1.692,0,.972.972,0,0,1-.154-.5A.969.969,0,0,1,9.654,3.751Zm-3.5,0a.966.966,0,0,1,1.692,0,.969.969,0,0,1,.154.5.972.972,0,0,1-.154.5.966.966,0,0,1-1.692,0A.972.972,0,0,1,6,4.251.969.969,0,0,1,6.154,3.751Zm-3.562.091A1,1,0,0,1,3.5,3.251a.983.983,0,0,1,.846.5.969.969,0,0,1,.154.5.972.972,0,0,1-.154.5.966.966,0,0,1-1.692,0,.972.972,0,0,1-.154-.5A.987.987,0,0,1,2.592,3.842ZM22,19.251a1,1,0,0,1-1,1H3a1,1,0,0,1-1-1V7a.25.25,0,0,1,.25-.25h19.5A.25.25,0,0,1,22,7Z"/></svg>