<svg xmlns="http://www.w3.org/2000/svg" viewBox="0 0 24 24"><title>app-window-warning</title><path d="M18.806,12.522a1.449,1.449,0,0,0-2.561,0l-5.056,9.633a1.43,1.43,0,0,0,.048,1.409,1.454,1.454,0,0,0,1.233.687H22.581a1.456,1.456,0,0,0,1.233-.686,1.428,1.428,0,0,0,.047-1.409Zm-2.031,3.729a.75.75,0,1,1,1.5,0v3a.75.75,0,0,1-1.5,0Zm.75,6.25a1,1,0,1,1,1-1A1,1,0,0,1,17.525,22.5Z"/><path d="M20.976-.249h-18a3,3,0,0,0-3,3v14.5a3,3,0,0,0,3,3h6a1,1,0,0,0,1-1h0a1,1,0,0,0-1-1h-6a1,1,0,0,1-1-1V5a.25.25,0,0,1,.25-.25h19.5a.25.25,0,0,1,.25.25v6.25a1,1,0,0,0,1,1h0a1,1,0,0,0,1-1v-8.5A3,3,0,0,0,20.976-.249Zm-16.654,3a.967.967,0,0,1-1.693,0,.971.971,0,0,1-.153-.5,1.01,1.01,0,0,1,1-1,.985.985,0,0,1,.846.5.969.969,0,0,1,.154.5A.972.972,0,0,1,4.322,2.751Zm3.5,0a.967.967,0,0,1-1.693,0,.971.971,0,0,1-.153-.5.968.968,0,0,1,.153-.5.967.967,0,0,1,1.693,0,.969.969,0,0,1,.154.5A.972.972,0,0,1,7.822,2.751Zm3.5,0a.967.967,0,0,1-1.693,0,.971.971,0,0,1-.153-.5.968.968,0,0,1,.153-.5.967.967,0,0,1,1.693,0,.969.969,0,0,1,.154.5A.972.972,0,0,1,11.322,2.751Z"/></svg>