<svg xmlns="http://www.w3.org/2000/svg" viewBox="0 0 24 24"><title>app-window-settings</title><circle cx="17.748" cy="17.001" r="1.5"/><path d="M20.4,13a.455.455,0,0,1-.533-.311L19.447,11.3a1.774,1.774,0,0,0-3.4,0l-.424,1.391a.457.457,0,0,1-.533.311L13.68,12.67a1.783,1.783,0,0,0-1.7,2.953l.989,1.065a.462.462,0,0,1,0,.625l-.987,1.066a1.783,1.783,0,0,0,1.7,2.953l1.411-.327a.456.456,0,0,1,.533.31l.424,1.392a1.774,1.774,0,0,0,3.4,0l.424-1.392a.453.453,0,0,1,.533-.31l1.412.327a1.783,1.783,0,0,0,1.7-2.953l-.988-1.066a.462.462,0,0,1,0-.625l.986-1.065a1.782,1.782,0,0,0-1.7-2.953Zm-2.656,7a3,3,0,1,1,3-3A3,3,0,0,1,17.748,20Z"/><path d="M21,.032H3a3,3,0,0,0-3,3v14.5a3,3,0,0,0,3,3H8.5a1,1,0,0,0,1-1h0a1,1,0,0,0-1-1H3a1,1,0,0,1-1-1V5.282a.25.25,0,0,1,.25-.25h19.5a.25.25,0,0,1,.25.25v4.25a1,1,0,0,0,1,1h0a1,1,0,0,0,1-1v-6.5A3,3,0,0,0,21,.032Zm-16.654,3a.966.966,0,0,1-1.692,0,.969.969,0,0,1-.154-.5.979.979,0,0,1,.092-.408A1,1,0,0,1,3.5,1.532a.985.985,0,0,1,.846.5.969.969,0,0,1,.154.5A.969.969,0,0,1,4.346,3.032Zm3.5,0a.966.966,0,0,1-1.692,0A.969.969,0,0,1,6,2.532a.969.969,0,0,1,.154-.5.966.966,0,0,1,1.692,0,.969.969,0,0,1,.154.5A.969.969,0,0,1,7.846,3.032Zm3.5,0a.966.966,0,0,1-1.692,0,.969.969,0,0,1-.154-.5.969.969,0,0,1,.154-.5.966.966,0,0,1,1.692,0,.969.969,0,0,1,.154.5A.969.969,0,0,1,11.346,3.032Z"/></svg>