<svg xmlns="http://www.w3.org/2000/svg" viewBox="0 0 24 24"><title>app-window-graph</title><path d="M24,4.751a3,3,0,0,0-3-3H3a3,3,0,0,0-3,3v14.5a3,3,0,0,0,3,3H21a3,3,0,0,0,3-3Zm-14.346-1a.966.966,0,0,1,1.692,0,.969.969,0,0,1,.154.5.972.972,0,0,1-.154.5.966.966,0,0,1-1.692,0,.972.972,0,0,1-.154-.5A.969.969,0,0,1,9.654,3.751Zm-3.5,0a.966.966,0,0,1,1.692,0,.969.969,0,0,1,.154.5.972.972,0,0,1-.154.5.966.966,0,0,1-1.692,0A.972.972,0,0,1,6,4.251.969.969,0,0,1,6.154,3.751Zm-3.562.091A1,1,0,0,1,3.5,3.251a.983.983,0,0,1,.846.5.969.969,0,0,1,.154.5.972.972,0,0,1-.154.5.966.966,0,0,1-1.692,0,.972.972,0,0,1-.154-.5A.987.987,0,0,1,2.592,3.842ZM2,7a.25.25,0,0,1,.25-.25h19.5A.25.25,0,0,1,22,7v5.255a.5.5,0,0,1-.5.5H16.55a.748.748,0,0,0-.636.353l-1.626,2.6a.251.251,0,0,1-.428-.006L9.7,8.627a.712.712,0,0,0-.655-.371.749.749,0,0,0-.647.386L6.251,12.5a.5.5,0,0,1-.437.257H2.5a.5.5,0,0,1-.5-.5Zm20,12.25a1,1,0,0,1-1,1H3a1,1,0,0,1-1-1v-4.5a.5.5,0,0,1,.5-.5H6.55a.749.749,0,0,0,.655-.385L8.856,10.9a.25.25,0,0,1,.434,0L13.4,17.886a.747.747,0,0,0,.637.37h.01a.744.744,0,0,0,.635-.352l2.134-3.413a.5.5,0,0,1,.424-.235H21.5a.5.5,0,0,1,.5.5Z"/></svg>