<svg xmlns="http://www.w3.org/2000/svg" viewBox="0 0 24 24"><title>app-window-search-1</title><path d="M21.139,19.449a5.515,5.515,0,1,0-1.691,1.69.25.25,0,0,1,.311.035l2.534,2.534a1,1,0,0,0,1.414-1.414L21.173,19.76A.25.25,0,0,1,21.139,19.449ZM16.5,20A3.5,3.5,0,1,1,20,16.5,3.543,3.543,0,0,1,16.5,20Z"/><path d="M21,0H3A3,3,0,0,0,0,3V17.5a3,3,0,0,0,3,3H9a1,1,0,0,0,1-1h0a1,1,0,0,0-1-1H3a1,1,0,0,1-1-1V5.251A.25.25,0,0,1,2.25,5h19.5a.25.25,0,0,1,.25.25V10a1,1,0,0,0,1,1h0a1,1,0,0,0,1-1V3A3,3,0,0,0,21,0ZM4.346,3A.966.966,0,0,1,2.654,3,.972.972,0,0,1,2.5,2.5a.987.987,0,0,1,.092-.409A1,1,0,0,1,3.5,1.5a.983.983,0,0,1,.846.5.969.969,0,0,1,.154.5A.972.972,0,0,1,4.346,3Zm3.5,0A.966.966,0,0,1,6.154,3,.972.972,0,0,1,6,2.5.969.969,0,0,1,6.154,2,.966.966,0,0,1,7.846,2,.969.969,0,0,1,8,2.5.972.972,0,0,1,7.846,3Zm3.5,0A.966.966,0,0,1,9.654,3,.972.972,0,0,1,9.5,2.5.969.969,0,0,1,9.654,2a.966.966,0,0,1,1.692,0,.969.969,0,0,1,.154.5A.972.972,0,0,1,11.346,3Z"/></svg>