<svg xmlns="http://www.w3.org/2000/svg" viewBox="0 0 24 24"><title>app-window-1</title><path d="M21.5,7.251a3,3,0,0,0-3-3H5.5a3,3,0,0,0-3,3v9.5a3,3,0,0,0,3,3h13a3,3,0,0,0,3-3Zm-9.346-1a.966.966,0,0,1,1.692,0,.889.889,0,0,1,0,1,.966.966,0,0,1-1.692,0,.889.889,0,0,1,0-1Zm-3.5,0a.966.966,0,0,1,1.692,0,.889.889,0,0,1,0,1,.966.966,0,0,1-1.692,0,.889.889,0,0,1,0-1Zm-3.562.091A1,1,0,0,1,6,5.751a.983.983,0,0,1,.846.5.889.889,0,0,1,0,1,.966.966,0,0,1-1.692,0A.972.972,0,0,1,5,6.751.987.987,0,0,1,5.092,6.342ZM19.5,16.751a1,1,0,0,1-1,1H5.5a1,1,0,0,1-1-1V9.5a.25.25,0,0,1,.25-.25h14.5a.25.25,0,0,1,.25.25Z"/></svg>