<svg xmlns="http://www.w3.org/2000/svg" viewBox="0 0 24 24"><title>app-window-move-left</title><path d="M0,19.251a3,3,0,0,0,3,3H21a3,3,0,0,0,3-3V4.751a3,3,0,0,0-3-3H3a3,3,0,0,0-3,3Zm10.5-16a1.035,1.035,0,0,1,1,1,1,1,0,1,1-2,0A1.035,1.035,0,0,1,10.5,3.251Zm-3.5,0a1.035,1.035,0,0,1,1,1,1,1,0,1,1-2,0A1.035,1.035,0,0,1,7,3.251Zm-3.5,0a1.035,1.035,0,0,1,1,1,1.035,1.035,0,0,1-1,1,1.035,1.035,0,0,1-1-1A1.008,1.008,0,0,1,3.5,3.251ZM2,7a.25.25,0,0,1,.25-.25h13.5A.25.25,0,0,1,16,7V8.5a.75.75,0,0,0,1.5,0V7a.25.25,0,0,1,.25-.25h4A.25.25,0,0,1,22,7v12.25a1,1,0,0,1-1,1H17.75A.25.25,0,0,1,17.5,20V18.5a.75.75,0,0,0-1.5,0V20a.25.25,0,0,1-.25.25H3a1,1,0,0,1-1-1Z"/><path d="M16.75,11.751a.75.75,0,0,1,.75.75v2a.75.75,0,0,1-1.5,0v-2A.75.75,0,0,1,16.75,11.751Z"/><path d="M8.146,10.646a.505.505,0,0,1,.545-.109A.5.5,0,0,1,9,11v1.25a.25.25,0,0,0,.25.25H13a1,1,0,0,1,0,2H9.25a.25.25,0,0,0-.25.25V16a.5.5,0,0,1-.309.462.5.5,0,0,1-.545-.108l-2.5-2.5a.5.5,0,0,1,0-.707Z"/></svg>