<?xml version="1.0" encoding="utf-8"?>
<!-- Generator: Adobe Illustrator 22.1.0, SVG Export Plug-In . SVG Version: 6.00 Build 0)  -->
<svg version="1.1" id="Layer_1" xmlns="http://www.w3.org/2000/svg" xmlns:xlink="http://www.w3.org/1999/xlink" x="0px" y="0px"
	 viewBox="0 0 24 24" style="enable-background:new 0 0 24 24;" xml:space="preserve">
<title>data-transfer-square-diagonal</title>
<g>
	<path d="M9.75,19.5c-0.088,0-0.175-0.016-0.26-0.047c-0.008-0.003-0.015-0.005-0.022-0.008c-0.188-0.077-0.336-0.226-0.412-0.41
		c-0.003-0.007-0.006-0.015-0.009-0.023C9.017,18.93,9,18.841,9,18.75v-4.5c0-0.414,0.336-0.75,0.75-0.75s0.75,0.336,0.75,0.75
		v2.689l4.72-4.72c0.142-0.142,0.33-0.22,0.53-0.22s0.389,0.078,0.53,0.22c0.142,0.142,0.22,0.33,0.22,0.53s-0.078,0.389-0.22,0.53
		L11.561,18h2.689c0.414,0,0.75,0.336,0.75,0.75s-0.336,0.75-0.75,0.75H9.75z"/>
	<path d="M8.25,12c-0.2,0-0.389-0.078-0.53-0.22c-0.142-0.141-0.22-0.33-0.22-0.53s0.078-0.389,0.22-0.53L12.439,6H9.75
		C9.336,6,9,5.664,9,5.25S9.336,4.5,9.75,4.5h4.5c0.089,0,0.176,0.016,0.261,0.048c0.011,0.004,0.022,0.008,0.032,0.012
		c0.176,0.072,0.324,0.221,0.4,0.404c0.003,0.008,0.007,0.017,0.01,0.026C14.984,5.072,15,5.161,15,5.25v4.5
		c0,0.414-0.336,0.75-0.75,0.75s-0.75-0.336-0.75-0.75V7.061l-4.72,4.72C8.639,11.922,8.45,12,8.25,12z"/>
	<path d="M3.75,24C1.682,24,0,22.318,0,20.25V3.75C0,1.682,1.682,0,3.75,0h16.5C22.318,0,24,1.682,24,3.75v16.5
		c0,2.068-1.682,3.75-3.75,3.75H3.75z M3.75,1.5C2.509,1.5,1.5,2.509,1.5,3.75v16.5c0,1.241,1.009,2.25,2.25,2.25h16.5
		c1.241,0,2.25-1.009,2.25-2.25V3.75c0-1.241-1.009-2.25-2.25-2.25H3.75z"/>
</g>
</svg>
