<svg xmlns="http://www.w3.org/2000/svg" viewBox="0 0 24 24"><defs><style>.a{fill:none;stroke:currentColor;stroke-linecap:round;stroke-linejoin:round;}</style></defs><title>messages-bubble-square-information</title><path class="a" d="M23.522,17.5a1,1,0,0,1-1,1h-11l-4,4v-4h-6a1,1,0,0,1-1-1V2.5a1,1,0,0,1,1-1h21a1,1,0,0,1,1,1Z"/><path class="a" d="M12.522,14.5v-6a1,1,0,0,0-1-1h-1"/><line class="a" x1="10.522" y1="14.5" x2="14.522" y2="14.5"/><path class="a" d="M12.272,5a.25.25,0,1,1-.25.25.25.25,0,0,1,.25-.25"/></svg>