<svg xmlns="http://www.w3.org/2000/svg" viewBox="0 0 24 24"><defs><style>.a{fill:none;stroke:currentColor;stroke-linecap:round;stroke-linejoin:round;}</style></defs><title>messages-bubble-square-settings</title><circle class="a" cx="17.75" cy="17" r="1.437"/><path class="a" d="M18.971,11.439l.424,1.392a.951.951,0,0,0,1.124.653l1.412-.327a1.283,1.283,0,0,1,1.221,2.126l-.988,1.064a.962.962,0,0,0,0,1.306l.988,1.064a1.283,1.283,0,0,1-1.221,2.126l-1.412-.327a.951.951,0,0,0-1.124.653l-.424,1.392a1.275,1.275,0,0,1-2.442,0l-.424-1.392a.951.951,0,0,0-1.124-.653l-1.412.327a1.283,1.283,0,0,1-1.221-2.126l.988-1.064a.962.962,0,0,0,0-1.306l-.988-1.064a1.283,1.283,0,0,1,1.221-2.126l1.412.327a.951.951,0,0,0,1.124-.653l.424-1.392A1.275,1.275,0,0,1,18.971,11.439Z"/><path class="a" d="M9.5,14.531h-1l-4,4v-4h-3a1,1,0,0,1-1-1v-12a1,1,0,0,1,1-1h19a1,1,0,0,1,1,1v8"/></svg>