<svg xmlns="http://www.w3.org/2000/svg" viewBox="0 0 24 24"><defs><style>.a{fill:none;stroke:currentColor;stroke-linecap:round;stroke-linejoin:round;}</style></defs><title>messages-bubble-warning-triangle</title><path class="a" d="M17.5,20.5a.25.25,0,1,1-.25.25.25.25,0,0,1,.25-.25"/><line class="a" x1="17.5" y1="18.5" x2="17.5" y2="15.5"/><path class="a" d="M18.338,12.5a.949.949,0,0,0-1.676,0l-5.056,9.634a.923.923,0,0,0,.031.914.948.948,0,0,0,.807.448H22.556a.948.948,0,0,0,.807-.448.923.923,0,0,0,.031-.914Z"/><path class="a" d="M20.579,12.47A7.122,7.122,0,0,0,21.5,9C21.5,4.307,16.8.5,11,.5S.5,4.307.5,9a7.744,7.744,0,0,0,3.018,5.96L1.5,19.5l5.637-2.6A12.668,12.668,0,0,0,11,17.5c.269,0,.534-.017.8-.033"/></svg>