<svg xmlns="http://www.w3.org/2000/svg" viewBox="0 0 24 24"><defs><style>.a{fill:none;stroke:currentColor;stroke-linecap:round;stroke-linejoin:round;}</style></defs><title>messages-bubble-image</title><path class="a" d="M7.694,14l2.451-3.151a1,1,0,0,1,1.274-.206L13.194,12l1.663-2.14a1,1,0,0,1,1.588.067L19.194,14Z"/><circle class="a" cx="9.194" cy="6.501" r="1.5"/><path class="a" d="M12.194,1C5.843,1,.694,5.253.694,10.5a8.738,8.738,0,0,0,3.4,6.741L1.694,23l6.373-3.641A13.6,13.6,0,0,0,12.194,20c6.352,0,11.5-4.253,11.5-9.5S18.546,1,12.194,1Z"/></svg>