<?xml version="1.0" encoding="utf-8"?>
<!-- Generator: Adobe Illustrator 22.1.0, SVG Export Plug-In . SVG Version: 6.00 Build 0)  -->
<svg version="1.1" id="Layer_1" xmlns="http://www.w3.org/2000/svg" xmlns:xlink="http://www.w3.org/1999/xlink" x="0px" y="0px"
	 viewBox="0 0 24 24" style="enable-background:new 0 0 24 24;" xml:space="preserve">
<g>
	<title>keyboard-return</title>
	<path d="M4.5,23.997c-2.481,0-4.5-2.019-4.5-4.5v-15c0-2.481,2.019-4.5,4.5-4.5h15c2.481,0,4.5,2.019,4.5,4.5v15
		c0,2.481-2.019,4.5-4.5,4.5H4.5z M4.5,0.997c-1.93,0-3.5,1.57-3.5,3.5v15c0,1.93,1.57,3.5,3.5,3.5h15c1.93,0,3.5-1.57,3.5-3.5v-15
		c0-1.93-1.57-3.5-3.5-3.5H4.5z"/>
	<path d="M9.5,15.997c-0.134,0-0.259-0.052-0.354-0.146L6.156,12.86c-0.05-0.046-0.093-0.108-0.12-0.177
		c-0.005-0.011-0.009-0.025-0.012-0.039C6.012,12.607,6,12.558,6,12.5c0-0.004,0-0.008,0-0.012c0.002-0.129,0.054-0.252,0.146-0.344
		l3-3C9.241,9.049,9.366,8.997,9.5,8.997s0.259,0.052,0.354,0.146S10,9.364,10,9.497S9.948,9.756,9.854,9.851L7.704,12H16.5
		c0.276,0,0.5-0.224,0.5-0.5v-3C17,8.224,17.224,8,17.5,8S18,8.224,18,8.5v3c0,0.827-0.673,1.5-1.5,1.5H7.71l2.144,2.144
		C9.948,15.238,10,15.364,10,15.497s-0.052,0.259-0.146,0.354S9.634,15.997,9.5,15.997z"/>
</g>
</svg>
