<?xml version="1.0" encoding="utf-8"?>
<!-- Generator: Adobe Illustrator 22.1.0, SVG Export Plug-In . SVG Version: 6.00 Build 0)  -->
<svg version="1.1" id="Layer_1" xmlns="http://www.w3.org/2000/svg" xmlns:xlink="http://www.w3.org/1999/xlink" x="0px" y="0px"
	 viewBox="0 0 24 24" style="enable-background:new 0 0 24 24;" xml:space="preserve">
<g>
	<title>keyboard-alt</title>
	<path d="M4.5,23.997c-2.481,0-4.5-2.019-4.5-4.5v-15c0-2.481,2.019-4.5,4.5-4.5h15c2.481,0,4.5,2.019,4.5,4.5v15
		c0,2.481-2.019,4.5-4.5,4.5H4.5z M4.5,0.997c-1.93,0-3.5,1.57-3.5,3.5v15c0,1.93,1.57,3.5,3.5,3.5h15c1.93,0,3.5-1.57,3.5-3.5v-15
		c0-1.93-1.57-3.5-3.5-3.5H4.5z"/>
	<path d="M9.5,16C9.224,16,9,15.776,9,15.5v-3.503H6V15.5C6,15.776,5.776,16,5.5,16S5,15.776,5,15.5v-6C5,8.121,6.121,7,7.5,7
		S10,8.121,10,9.5v6C10,15.776,9.776,16,9.5,16z M9,10.997V9.5C9,8.673,8.327,8,7.5,8S6,8.673,6,9.5v1.497H9z"/>
	<path d="M13,16c-1.103,0-2-0.897-2-2V7.5C11,7.224,11.224,7,11.5,7S12,7.224,12,7.5V14c0,0.552,0.448,1,1,1h2.5
		c0.276,0,0.5,0.224,0.5,0.5S15.776,16,15.5,16H13z"/>
	<path d="M17.5,15.997c-0.276,0-0.5-0.224-0.5-0.5v-7.5h-1.5c-0.276,0-0.5-0.224-0.5-0.5s0.224-0.5,0.5-0.5h4
		c0.276,0,0.5,0.224,0.5,0.5s-0.224,0.5-0.5,0.5H18v7.5C18,15.773,17.776,15.997,17.5,15.997z"/>
</g>
</svg>
