<?xml version="1.0" encoding="utf-8"?>
<!-- Generator: Adobe Illustrator 22.1.0, SVG Export Plug-In . SVG Version: 6.00 Build 0)  -->
<svg version="1.1" id="Layer_1" xmlns="http://www.w3.org/2000/svg" xmlns:xlink="http://www.w3.org/1999/xlink" x="0px" y="0px"
	 viewBox="0 0 24 24" style="enable-background:new 0 0 24 24;" xml:space="preserve">
<g>
	<title>keyboard-arrow-top-right</title>
	<path d="M7.499,16.997c-0.134,0-0.259-0.052-0.354-0.146s-0.146-0.22-0.146-0.354s0.052-0.259,0.146-0.354L22.292,0.997h-5.793
		c-0.276,0-0.5-0.224-0.5-0.5s0.224-0.5,0.5-0.5h7c0.066,0,0.13,0.013,0.191,0.038c0.123,0.051,0.219,0.147,0.27,0.27
		c0.025,0.061,0.038,0.126,0.038,0.191v7c0,0.276-0.224,0.5-0.5,0.5s-0.5-0.224-0.5-0.5V1.704L7.853,16.851
		C7.758,16.945,7.633,16.997,7.499,16.997z"/>
</g>
</svg>
