<?xml version="1.0" encoding="utf-8"?>
<!-- Generator: Adobe Illustrator 22.1.0, SVG Export Plug-In . SVG Version: 6.00 Build 0)  -->
<svg version="1.1" id="Layer_1" xmlns="http://www.w3.org/2000/svg" xmlns:xlink="http://www.w3.org/1999/xlink" x="0px" y="0px"
	 viewBox="0 0 24 24" style="enable-background:new 0 0 24 24;" xml:space="preserve">
<g>
	<title>keyboard-arrow-bottom-right</title>
	<path d="M16.5,23.997c-0.276,0-0.5-0.224-0.5-0.5s0.224-0.5,0.5-0.5h5.793L7.146,7.851C7.052,7.756,7,7.631,7,7.497
		s0.052-0.259,0.146-0.354S7.366,6.997,7.5,6.997s0.259,0.052,0.354,0.146L23,22.29v-5.793c0-0.276,0.224-0.5,0.5-0.5
		s0.5,0.224,0.5,0.5v7c0,0.066-0.013,0.13-0.039,0.191c-0.051,0.123-0.147,0.219-0.27,0.27c-0.061,0.025-0.125,0.038-0.191,0.038
		H16.5z"/>
</g>
</svg>
