<?xml version="1.0" encoding="utf-8"?>
<!-- Generator: Adobe Illustrator 22.1.0, SVG Export Plug-In . SVG Version: 6.00 Build 0)  -->
<svg version="1.1" id="Layer_1" xmlns="http://www.w3.org/2000/svg" xmlns:xlink="http://www.w3.org/1999/xlink" x="0px" y="0px"
	 viewBox="0 0 24 24" style="enable-background:new 0 0 24 24;" xml:space="preserve">
<g>
	<title>keyboard-arrow-bottom-left</title>
	<path d="M0.5,23.997c-0.066,0-0.13-0.013-0.192-0.039c-0.123-0.051-0.219-0.147-0.27-0.27C0.013,23.627,0,23.563,0,23.497v-7
		c0-0.276,0.224-0.5,0.5-0.5s0.5,0.224,0.5,0.5v5.793L16.146,7.144c0.094-0.094,0.22-0.146,0.354-0.146s0.259,0.052,0.354,0.146
		S17,7.364,17,7.497s-0.052,0.259-0.146,0.354L1.707,22.997H7.5c0.276,0,0.5,0.224,0.5,0.5s-0.224,0.5-0.5,0.5H0.5z"/>
</g>
</svg>
