<?xml version="1.0" encoding="utf-8"?>
<!-- Generator: Adobe Illustrator 22.1.0, SVG Export Plug-In . SVG Version: 6.00 Build 0)  -->
<svg version="1.1" id="Layer_1" xmlns="http://www.w3.org/2000/svg" xmlns:xlink="http://www.w3.org/1999/xlink" x="0px" y="0px"
	 viewBox="0 0 24 24" style="enable-background:new 0 0 24 24;" xml:space="preserve">
<g>
	<title>antenna-tower</title>
	<path d="M0.5,24C0.224,24,0,23.776,0,23.5V8c0-0.551,0.449-1,1-1h2V6c0-0.551,0.449-1,1-1V1.5C4,1.224,4.224,1,4.5,1S5,1.224,5,1.5
		V5h1c0.551,0,1,0.449,1,1v1h2c0.551,0,1,0.449,1,1v15h1v-9c0-0.552,0.449-1,1-1h3c0.552,0,1,0.448,1,1v9h1v-9c0-0.552,0.448-1,1-1
		h3c0.552,0,1,0.448,1,1v9h1.5c0.276,0,0.5,0.224,0.5,0.5S23.776,24,23.5,24H0.5z M21,23v-9h-3l0,9H21z M15,23v-9h-3l0,9H15z M9,23
		V8H1l0,15H9z M6,7V6H4l0,1H6z"/>
	<path d="M2.5,11C2.224,11,2,10.776,2,10.5S2.224,10,2.5,10h5C7.776,10,8,10.224,8,10.5S7.776,11,7.5,11H2.5z"/>
	<path d="M2.5,14C2.224,14,2,13.776,2,13.5S2.224,13,2.5,13h5C7.776,13,8,13.224,8,13.5S7.776,14,7.5,14H2.5z"/>
	<path d="M2.5,17C2.224,17,2,16.776,2,16.5S2.224,16,2.5,16h5C7.776,16,8,16.224,8,16.5S7.776,17,7.5,17H2.5z"/>
	<path d="M2.5,20C2.224,20,2,19.776,2,19.5S2.224,19,2.5,19h5C7.776,19,8,19.224,8,19.5S7.776,20,7.5,20H2.5z"/>
	<path d="M12.5,7.5C12.224,7.5,12,7.276,12,7c0-1.103-0.897-2-2-2C9.724,5,9.5,4.776,9.5,4.5S9.724,4,10,4c1.654,0,3,1.346,3,3
		C13,7.276,12.776,7.5,12.5,7.5z"/>
	<path d="M14.5,7.5C14.224,7.5,14,7.276,14,7c0-2.206-1.794-4-4-4C9.724,3,9.5,2.776,9.5,2.5S9.724,2,10,2c2.757,0,5,2.243,5,5
		C15,7.276,14.776,7.5,14.5,7.5z"/>
	<path d="M16.5,7.5C16.224,7.5,16,7.276,16,7c0-3.308-2.692-6-6-6C9.724,1,9.5,0.776,9.5,0.5S9.724,0,10,0c3.86,0,7,3.14,7,7
		C17,7.276,16.776,7.5,16.5,7.5z"/>
</g>
</svg>
