<svg xmlns="http://www.w3.org/2000/svg" viewBox="0 0 24 24"><defs><style>.a{fill:none;stroke:currentColor;stroke-linecap:round;stroke-linejoin:round;stroke-width:1.5px;}</style></defs><title>equalizer-stereo-1</title><rect class="a" x="0.75" y="9.75" width="22.5" height="13.5" rx="1.449" ry="1.449"/><path class="a" d="M8.25.75H3.75a1.5,1.5,0,0,0-1.5,1.5v7.5h7.5V2.25A1.5,1.5,0,0,0,8.25.75Z"/><circle class="a" cx="6" cy="5.25" r="1.5"/><path class="a" d="M20.25.75h-4.5a1.5,1.5,0,0,0-1.5,1.5v7.5h7.5V2.25A1.5,1.5,0,0,0,20.25.75Z"/><circle class="a" cx="18" cy="5.25" r="1.5"/><path class="a" d="M4.125,20.25a.375.375,0,1,1-.375.375.375.375,0,0,1,.375-.375"/><path class="a" d="M7.875,20.25a.375.375,0,1,1-.375.375.375.375,0,0,1,.375-.375"/><rect class="a" x="3.75" y="12.75" width="16.5" height="4.5"/><line class="a" x1="15.75" y1="20.25" x2="20.25" y2="20.25"/><line class="a" x1="9.75" y1="12.75" x2="9.75" y2="17.25"/></svg>