<?xml version="1.0" encoding="utf-8"?>
<!-- Generator: Adobe Illustrator 22.1.0, SVG Export Plug-In . SVG Version: 6.00 Build 0)  -->
<svg version="1.1" id="Layer_1" xmlns="http://www.w3.org/2000/svg" xmlns:xlink="http://www.w3.org/1999/xlink" x="0px" y="0px"
	 viewBox="0 0 24 24" style="enable-background:new 0 0 24 24;" xml:space="preserve">
<g>
	<title>photography-equipment-flash-light</title>
	<path d="M11,24c-0.827,0-1.5-0.673-1.5-1.5V20H8c-0.825-0.018-1.498-0.619-1.606-1.428L5.553,11H5c-1.379,0-2.5-1.121-2.5-2.5v-6
		c0-0.659,0.255-1.281,0.718-1.752c0.005-0.006,0.01-0.011,0.015-0.016c0.005-0.005,0.01-0.01,0.015-0.014C3.719,0.255,4.341,0,5,0
		h14c0.659,0,1.281,0.255,1.752,0.718c0.006,0.005,0.011,0.009,0.016,0.014c0.005,0.005,0.01,0.011,0.015,0.016
		C21.245,1.22,21.5,1.841,21.5,2.5v6c0,0.666-0.26,1.292-0.731,1.765c-0.001,0.001-0.002,0.002-0.003,0.003
		C20.294,10.74,19.667,11,19,11h-0.552l-0.84,7.561c-0.109,0.82-0.78,1.42-1.596,1.439H14.5v2.5c0,0.827-0.673,1.5-1.5,1.5H11z
		 M10.5,22.5c0,0.276,0.224,0.5,0.5,0.5h2c0.276,0,0.5-0.224,0.5-0.5V20h-3V22.5z M7.387,18.451C7.428,18.76,7.691,18.993,8.011,19
		H16c0.311-0.007,0.571-0.242,0.614-0.558L17.441,11H6.559L7.387,18.451z M4.355,9.852C4.555,9.95,4.774,10,5,10h14
		c0.226,0,0.445-0.051,0.646-0.148L17.793,8H6.207L4.355,9.852z M3.648,1.855C3.55,2.055,3.5,2.274,3.5,2.5v6
		c0,0.226,0.05,0.445,0.148,0.645L5.5,7.293V3.707L3.648,1.855z M20.353,9.145C20.45,8.944,20.5,8.725,20.5,8.5v-6
		c0-0.226-0.051-0.445-0.147-0.645L18.5,3.707v3.586L20.353,9.145z M17.5,7V4h-11v3H17.5z M17.793,3l1.853-1.852
		C19.445,1.05,19.226,1,19,1H5C4.774,1,4.555,1.05,4.355,1.148L6.207,3H17.793z"/>
	<path d="M13.5,18c-1.103,0-2-0.897-2-2s0.897-2,2-2s2,0.897,2,2S14.603,18,13.5,18z M13.5,15c-0.552,0-1,0.448-1,1s0.448,1,1,1
		s1-0.448,1-1S14.052,15,13.5,15z"/>
</g>
</svg>
