<?xml version="1.0" encoding="utf-8"?>
<!-- Generator: Adobe Illustrator 22.1.0, SVG Export Plug-In . SVG Version: 6.00 Build 0)  -->
<svg version="1.1" id="Layer_1" xmlns="http://www.w3.org/2000/svg" xmlns:xlink="http://www.w3.org/1999/xlink" x="0px" y="0px"
	 viewBox="0 0 24 24" style="enable-background:new 0 0 24 24;" xml:space="preserve">
<g>
	<title>photography-equipment-light-umbrella</title>
	<path d="M19.043,24c-0.168,0-0.323-0.083-0.416-0.223l-1.445-2.168c-0.264-0.35-0.68-0.574-1.139-0.608V23.5
		c0,0.276-0.224,0.5-0.5,0.5s-0.5-0.224-0.5-0.5V21c-0.447,0.026-0.872,0.257-1.154,0.632l-1.43,2.145
		C12.366,23.917,12.21,24,12.042,24c-0.099,0-0.194-0.029-0.277-0.083c-0.23-0.153-0.292-0.464-0.139-0.694l1.446-2.168
		c0.472-0.631,1.177-1.011,1.942-1.054l0.028,0v-6.294l-3.564-3.563c-0.029,0.138-0.048,0.275-0.059,0.41
		c-0.014,0.176-0.014,0.354,0,0.53c0.001,0.013,0.001,0.028,0,0.042c-0.001,0.047-0.01,0.088-0.018,0.12c0,0,0-0.001,0-0.001
		c0.001,0-0.003,0.026-0.014,0.055c-0.02,0.053-0.05,0.102-0.088,0.147c-0.008,0.01-0.016,0.02-0.024,0.029
		c-0.005,0.005-0.011,0.01-0.016,0.015c-0.047,0.043-0.099,0.075-0.158,0.098c-0.019,0.007-0.056,0.016-0.076,0.018
		c-0.013,0.005-0.054,0.016-0.104,0.016c-0.006,0-0.345-0.025-0.345-0.025c-0.074-0.006-0.148-0.008-0.221-0.008
		c-1.49,0-2.746,1.163-2.86,2.648c-0.018,0.231-0.007,0.464,0.031,0.692c0.036,0.214-0.07,0.425-0.263,0.526
		c-0.072,0.037-0.151,0.056-0.23,0.056c-0.132,0-0.257-0.051-0.351-0.144C4.97,13.678,4.017,11.425,4,9.021S4.903,4.35,6.59,2.638
		c1.688-1.712,3.941-2.664,6.345-2.682l0.079,0c2.37,0,4.609,0.92,6.304,2.59l0.091,0.091c0.154,0.156,0.188,0.39,0.088,0.583
		c-0.086,0.166-0.256,0.269-0.444,0.269c-0.027,0-0.054-0.002-0.082-0.007c-0.16-0.027-0.322-0.04-0.481-0.04
		c-0.595,0-1.168,0.185-1.658,0.534c-0.624,0.445-1.036,1.106-1.163,1.861c-0.039,0.23-0.049,0.463-0.031,0.694l0.024,0.309
		c0.001,0.016,0.001,0.033-0.001,0.049c-0.002,0.047-0.01,0.084-0.017,0.113c0,0,0-0.001,0-0.001c0.001,0-0.003,0.028-0.016,0.06
		c-0.024,0.063-0.062,0.122-0.112,0.171c-0.048,0.048-0.104,0.085-0.169,0.11c-0.02,0.008-0.063,0.018-0.084,0.021
		c-0.013,0.003-0.05,0.012-0.095,0.013c-0.009,0.001-0.017,0.001-0.024,0.001c-0.11-0.008-0.199-0.011-0.288-0.011
		c-1.228,0-2.385,0.68-2.994,1.746l1.437,1.436l1.414-1.414c0.181-0.182,0.439-0.286,0.707-0.286s0.526,0.104,0.707,0.286
		l3.536,3.535c0.189,0.189,0.293,0.44,0.293,0.707c0,0.268-0.104,0.519-0.293,0.707l-1.414,1.414
		c-0.188,0.189-0.44,0.292-0.707,0.292s-0.519-0.104-0.707-0.292l-0.793-0.793V20c0.787,0.044,1.495,0.419,1.955,1.032l1.461,2.191
		c0.153,0.229,0.091,0.541-0.139,0.693C19.237,23.971,19.141,24,19.043,24z M17.543,14.792l1.414-1.414l-3.536-3.536l-1.414,1.414
		L17.543,14.792z M6.231,4.69C5.412,5.979,4.989,7.461,5,9.014c0.012,1.697,0.563,3.341,1.561,4.692
		c0.317-1.583,1.618-2.824,3.21-3.072c-1.275-1.401-2.307-2.867-2.93-4.17C6.53,5.814,6.326,5.22,6.231,4.69z M8.082,3.126
		c-0.317,0-0.551,0.073-0.696,0.218c-0.394,0.394-0.26,1.399,0.357,2.69c0.58,1.214,1.55,2.59,2.755,3.915
		c0.063-0.314,0.161-0.619,0.291-0.916c0-0.003,0.01-0.026,0.022-0.05c0.592-1.313,1.784-2.25,3.182-2.527
		C11.473,4.159,9.23,3.126,8.082,3.126z M8.718,2.196c1.629,0.287,3.816,1.577,5.958,3.527c0.003-0.017,0.005-0.034,0.008-0.051
		c0.17-1.019,0.728-1.91,1.568-2.51c0.452-0.323,0.96-0.542,1.494-0.647c-1.367-1.009-3.03-1.559-4.745-1.559l-0.06,0
		C11.424,0.968,9.977,1.394,8.718,2.196z"/>
</g>
</svg>
