<svg xmlns="http://www.w3.org/2000/svg" viewBox="0 0 24 24"><title>navigation-arrows-up</title><path d="M2.291,10.91h1.4a.5.5,0,0,0,.337-.13l6.964-6.333a1.494,1.494,0,0,1,2.018,0l6.965,6.333a.5.5,0,0,0,.336.13h1.4a.986.986,0,0,0,.921-.626.975.975,0,0,0-.254-1.114L12.685.357a.987.987,0,0,0-.679-.272,1.015,1.015,0,0,0-.681.265L1.633,9.163a.971.971,0,0,0-.271,1.1A.994.994,0,0,0,2.291,10.91Z"/><path d="M12.685,6.857a.987.987,0,0,0-.679-.272,1.015,1.015,0,0,0-.681.265L1.633,15.663a.971.971,0,0,0-.271,1.1.994.994,0,0,0,.929.648h1.4a.5.5,0,0,0,.337-.13l6.964-6.333a1.494,1.494,0,0,1,2.018,0l6.965,6.333a.5.5,0,0,0,.336.13h1.4a.986.986,0,0,0,.921-.626.975.975,0,0,0-.254-1.114Z"/><path d="M12.675,13.346a1,1,0,0,0-1.345,0L1.623,22.17A1,1,0,0,0,2.3,23.91H21.708a1,1,0,0,0,.673-1.739Z"/></svg>