<svg xmlns="http://www.w3.org/2000/svg" viewBox="0 0 24 24"><title>desktop-computer-2</title><path d="M21.351,21.357l-1.785-3.733a1.706,1.706,0,0,0-1.064-1.05V19.5a2,2,0,0,1-2,2h-9a2,2,0,0,1-2-2V16.573a1.664,1.664,0,0,0-1.048,1.012L2.635,21.4a2.106,2.106,0,0,0,.106,1.715A1.587,1.587,0,0,0,4.134,24H19.869a1.586,1.586,0,0,0,1.392-.889A2.119,2.119,0,0,0,21.351,21.357Z"/><path d="M7,19.5a.5.5,0,0,0,.5.5H9.25a.5.5,0,0,0,.5-.5L9.7.5A.5.5,0,0,0,9.2,0H8.5A1.5,1.5,0,0,0,7,1.5Z"/><path d="M16.5,7.251h-4.78a.5.5,0,0,0-.5.5L11.252,20v0H16.5a.5.5,0,0,0,.5-.5V7.751A.5.5,0,0,0,16.5,7.251ZM14,12.5a1,1,0,1,1-1,1A1,1,0,0,1,14,12.5Z"/><path d="M11.715,5.751H16.5a.5.5,0,0,0,.5-.5V1.5A1.5,1.5,0,0,0,15.5,0H11.7a.5.5,0,0,0-.5.5l.011,4.75A.5.5,0,0,0,11.715,5.751Z"/></svg>