<svg xmlns="http://www.w3.org/2000/svg" viewBox="0 0 24 24"><title>desktop-monitor-clock</title><path d="M16.289,14.405a.245.245,0,0,0-.2.057.248.248,0,0,0-.088.19v2.1a.25.25,0,0,1-.25.25H2.25a.25.25,0,0,1-.25-.25v-8.5A.25.25,0,0,1,2.25,8h7.1A.251.251,0,0,0,9.6,7.712,7.8,7.8,0,0,1,9.5,6.5c0-.079,0-.158.008-.236A.25.25,0,0,0,9.258,6H2A2,2,0,0,0,0,8V18.5a2,2,0,0,0,2,2H7.75a.25.25,0,0,1,.25.25v1a.25.25,0,0,1-.25.25H5a1,1,0,0,0,0,2h8a1,1,0,1,0,0-2H10.25a.25.25,0,0,1-.25-.25v-1a.25.25,0,0,1,.25-.25H16a2,2,0,0,0,2-2V14.743a.25.25,0,0,0-.078-.182.254.254,0,0,0-.187-.068c-.078,0-.156.008-.235.008A7.926,7.926,0,0,1,16.289,14.405Z"/><path d="M17.5,0A6.5,6.5,0,1,0,24,6.5,6.508,6.508,0,0,0,17.5,0ZM13,6.5A4.5,4.5,0,1,1,17.5,11,4.5,4.5,0,0,1,13,6.5Z"/><path d="M16.75,4V6.5a.75.75,0,0,0,.75.75h2a.75.75,0,0,0,0-1.5h-1a.25.25,0,0,1-.25-.25V4a.75.75,0,0,0-1.5,0Z"/></svg>