<svg xmlns="http://www.w3.org/2000/svg" viewBox="0 0 24 24"><title>airplane-mode</title><path d="M9.5,19.33a.253.253,0,0,1-.076.18L7.961,20.921A1.5,1.5,0,0,0,9,23.5a7.321,7.321,0,0,0,2.855-1.394.246.246,0,0,1,.29,0A7.307,7.307,0,0,0,15,23.5a1.5,1.5,0,0,0,1.039-2.579L14.576,19.51a.253.253,0,0,1-.076-.18V13.035L9.573,17.962a.249.249,0,0,0-.073.177Z"/><path d="M14.5,3a2.5,2.5,0,1,0-5,0V6.656L6.487,9.315,1.177,14a2,2,0,0,0,1.784,3.45.259.259,0,0,0,.121-.067L14.427,6.038a.251.251,0,0,0,.073-.177Z"/><path d="M20,16.907a2.49,2.49,0,0,0,1.5.593A2,2,0,0,0,22.823,14L18.065,9.8a.25.25,0,0,0-.342.011l-3.2,3.2C15.941,14.015,19.376,16.491,20,16.907Z"/><path d="M23.707.293a1,1,0,0,0-1.414,0l-22,22a1,1,0,1,0,1.414,1.414l22-22A1,1,0,0,0,23.707.293Z"/></svg>