<svg xmlns="http://www.w3.org/2000/svg" viewBox="0 0 24 24"><title>antenna-house-connect</title><path d="M6.011,3.676A3.276,3.276,0,0,0,2.738,6.948a1,1,0,1,0,2,0,1.273,1.273,0,0,1,2.545,0,1,1,0,1,0,2,0A3.276,3.276,0,0,0,6.011,3.676Z"/><path d="M2.011,6.017a4,4,0,1,1,8,0,1,1,0,0,0,2,0,6,6,0,0,0-12,0,1,1,0,0,0,2,0Z"/><path d="M23.489,15.483a.5.5,0,0,0,.339-.868l-4.947-4.562a.5.5,0,0,0-.676,0l-4.99,4.563a.5.5,0,0,0,.337.869h1.209a.25.25,0,0,1,.25.25v3.25a1,1,0,0,0,1,1h1.228a.25.25,0,0,1,.25.25v1.5a.25.25,0,0,1-.25.25h-10a.25.25,0,0,1-.25-.25v-2a.25.25,0,0,1,.25-.25H8.556a.25.25,0,0,1,.234.161l.265.7a1,1,0,1,0,1.869-.713L7.011,9.355a.261.261,0,0,1-.017-.1L7.011,8.5a1,1,0,0,0-.979-1.021H6.011a1,1,0,0,0-1,.978l-.017.784a.242.242,0,0,1-.017.084l-3.922,10.3a1,1,0,0,0,1.869.713l.265-.7a.25.25,0,0,1,.233-.161H4.739a.25.25,0,0,1,.25.25v2.25a2,2,0,0,0,2,2h10.5a2,2,0,0,0,2-2v-1.75a.25.25,0,0,1,.25-.25h1.272a1,1,0,0,0,1-1v-3.25a.25.25,0,0,1,.25-.25ZM5.756,12.905a.25.25,0,0,1,.467,0L6.7,14.144a.25.25,0,0,1-.234.339H5.517a.249.249,0,0,1-.233-.339ZM4.331,16.644a.25.25,0,0,1,.234-.161H7.413a.25.25,0,0,1,.234.161l.19.5a.249.249,0,0,1-.233.339H4.374a.25.25,0,0,1-.233-.339Z"/></svg>