<svg xmlns="http://www.w3.org/2000/svg" viewBox="0 0 24 24"><title>antenna-2</title><path d="M12,3.585a4.785,4.785,0,0,0-4.78,4.78,1,1,0,1,0,2,0,2.78,2.78,0,1,1,5.559,0,1,1,0,0,0,2,0A4.784,4.784,0,0,0,12,3.585Z"/><path d="M4.433,9.567a1,1,0,0,0,1-1,6.567,6.567,0,0,1,13.134,0,1,1,0,0,0,2,0,8.567,8.567,0,0,0-17.134,0A1,1,0,0,0,4.433,9.567Z"/><path d="M20.5,11.866c-.127-.323-.417-.316-.868-.4a1,1,0,0,0-1.156.809l-.3,1.693a.25.25,0,0,1-.287.2l-3.195-.533a.247.247,0,0,1-.207-.22,1.494,1.494,0,0,0-1.269-1.355A.249.249,0,0,1,13,11.82V8.567a1,1,0,0,0-2,0V11.82a.25.25,0,0,1-.213.247,1.493,1.493,0,0,0-1.269,1.355.248.248,0,0,1-.207.22l-3.195.533a.25.25,0,0,1-.287-.2l-.3-1.693a1,1,0,0,0-1.156-.809c-.431.077-.739.069-.868.4a6.637,6.637,0,0,0,1.223,6.887c.241.273.558.142.95.073a1,1,0,0,0,.808-1.156l-.219-1.236a.251.251,0,0,1,.205-.291l2.747-.458a.251.251,0,0,1,.291.247v1.987a1.5,1.5,0,0,0,1.28,1.483.249.249,0,0,1,.213.247V23.5a.5.5,0,0,0,.5.5h1a.5.5,0,0,0,.5-.5V19.649a.25.25,0,0,1,.213-.247,1.5,1.5,0,0,0,1.28-1.483V15.932a.251.251,0,0,1,.291-.247l2.747.458a.251.251,0,0,1,.205.291l-.219,1.236a1,1,0,0,0,.808,1.156c.4.07.711.2.95-.073A6.637,6.637,0,0,0,20.5,11.866Z"/></svg>