<svg xmlns="http://www.w3.org/2000/svg" viewBox="0 0 24 24"><defs><style>.a{fill:none;stroke:currentColor;stroke-linecap:round;stroke-linejoin:round;}</style></defs><title>phone-actions-missed-call</title><path class="a" d="M7.505,8.514a2,2,0,0,0,0-2.829L5.384,3.563a2,2,0,0,0-2.829,0L1.392,4.727A3,3,0,0,0,1.014,8.5a46.483,46.483,0,0,0,13,13,3,3,0,0,0,3.773-.378l1.164-1.164a2,2,0,0,0,0-2.828L16.83,15.011a2,2,0,0,0-2.829,0l-.706.707a47.489,47.489,0,0,1-6.5-6.5Z"/><polyline class="a" points="11.514 7.5 11.514 2 17.014 2"/><polyline class="a" points="11.514 2 17.486 8 23.486 2"/></svg>