<svg xmlns="http://www.w3.org/2000/svg" viewBox="0 0 24 24"><defs><style>.a{fill:none;stroke:currentColor;stroke-linecap:round;stroke-linejoin:round;}</style></defs><title>phone-actions-call</title><path class="a" d="M7.492,10.012a2,2,0,0,0,0-2.828L5.37,5.063a2,2,0,0,0-2.829,0L1.378,6.226A3,3,0,0,0,1,10,46.509,46.509,0,0,0,14,23a3,3,0,0,0,3.773-.379l1.164-1.164a2,2,0,0,0,0-2.828L16.816,16.51a2,2,0,0,0-2.828,0l-.707.707a47.432,47.432,0,0,1-6.5-6.5Z"/><line class="a" x1="23.5" y1="0.502" x2="13.5" y2="10.502"/><polyline class="a" points="17 0.501 23.5 0.501 23.5 7.001"/></svg>