<svg xmlns="http://www.w3.org/2000/svg" viewBox="0 0 24 24"><defs><style>.a{fill:none;stroke:currentColor;stroke-linecap:round;stroke-linejoin:round;}</style></defs><title>phone-actions-merge-1</title><path class="a" d="M10.882,23.329c-2.4-2.406-1.549-4.282-.247-5.585l.841-.841a2.146,2.146,0,0,1,3.033,0l3.639,3.64a1.252,1.252,0,0,1-.413,2.046,12.5,12.5,0,0,1-16.3-16.3,1.252,1.252,0,0,1,2.046-.413L7.122,9.517a2.144,2.144,0,0,1,0,3.032l-.842.841c-1.3,1.3-3.178,2.154-5.584-.246"/><polyline class="a" points="16.516 3.51 19.516 0.51 22.516 3.51"/><polyline class="a" points="19.516 0.51 19.516 7.99 15.516 12.01"/><line class="a" x1="21.039" y1="9.5" x2="23.516" y2="12.01"/></svg>