<svg xmlns="http://www.w3.org/2000/svg" viewBox="0 0 24 24"><defs><style>.a{fill:none;stroke:currentColor;stroke-linecap:round;stroke-linejoin:round;}</style></defs><title>phone-actions-next</title><path class="a" d="M7.742,9.763a2,2,0,0,0,0-2.829L5.62,4.813a2,2,0,0,0-2.828,0L1.628,5.976A3,3,0,0,0,1.25,9.751a46.509,46.509,0,0,0,13,13,3,3,0,0,0,3.775-.379l1.163-1.163a2,2,0,0,0,0-2.828l-2.12-2.121a2,2,0,0,0-2.829,0l-.708.707a47.594,47.594,0,0,1-6.5-6.5Z"/><polyline class="a" points="18.749 0.751 23.249 4.251 18.749 7.751"/><path class="a" d="M23.249,4.251h-3.5a6,6,0,0,0-6,6v2"/></svg>