<svg xmlns="http://www.w3.org/2000/svg" viewBox="0 0 24 24"><defs><style>.a{fill:none;stroke:currentColor;stroke-linecap:round;stroke-linejoin:round;}</style></defs><title>phone-actions-subtract-1</title><circle class="a" cx="17.5" cy="6.5" r="6"/><line class="a" x1="20.5" y1="6.5" x2="14.5" y2="6.5"/><path class="a" d="M10.866,23.319c-2.4-2.407-1.549-4.282-.246-5.585l.841-.841a2.144,2.144,0,0,1,3.032,0l3.64,3.64a1.253,1.253,0,0,1-.414,2.046,12.5,12.5,0,0,1-16.3-16.3,1.253,1.253,0,0,1,2.046-.414l3.64,3.64a2.144,2.144,0,0,1,0,3.032l-.841.841c-1.3,1.3-3.178,2.154-5.585-.246"/></svg>