<svg xmlns="http://www.w3.org/2000/svg" viewBox="0 0 24 24"><defs><style>.a{fill:none;stroke:currentColor;stroke-linecap:round;stroke-linejoin:round;}</style></defs><title>playlist-heart</title><path class="a" d="M18.5,11.5V1.5a1,1,0,0,0-1-1H1.5a1,1,0,0,0-1,1v16a1,1,0,0,0,1,1h10"/><circle class="a" cx="12" cy="12" r="1.5"/><circle class="a" cx="5" cy="13" r="1.5"/><path class="a" d="M6.5,13V7.255a1,1,0,0,1,.725-.962l5-1.428a1,1,0,0,1,1.275.961V12"/><path class="a" d="M18.643,23.5,14.5,19.182a2.45,2.45,0,0,1-.459-2.828h0a2.449,2.449,0,0,1,3.922-.636l.676.676.676-.676a2.449,2.449,0,0,1,3.922.636h0a2.45,2.45,0,0,1-.458,2.828Z"/></svg>