<svg xmlns="http://www.w3.org/2000/svg" viewBox="0 0 24 24"><defs><style>.a{fill:none;stroke:currentColor;stroke-linecap:round;stroke-linejoin:round;}</style></defs><title>playlist-menu</title><path class="a" d="M18.5,14V2a1,1,0,0,0-1-1H1.5a1,1,0,0,0-1,1V18a1,1,0,0,0,1,1h10"/><circle class="a" cx="12" cy="12.5" r="1.5"/><circle class="a" cx="5" cy="13.5" r="1.5"/><path class="a" d="M6.5,13.5V7.754a1,1,0,0,1,.725-.961l5-1.429a1,1,0,0,1,1.275.962V12.5"/><line class="a" x1="14.5" y1="17" x2="23.5" y2="17"/><line class="a" x1="14.5" y1="19" x2="23.5" y2="19"/><line class="a" x1="14.5" y1="21" x2="23.5" y2="21"/><line class="a" x1="14.5" y1="23" x2="23.5" y2="23"/></svg>