<svg xmlns="http://www.w3.org/2000/svg" viewBox="0 0 24 24"><defs><style>.a{fill:none;stroke:currentColor;stroke-linecap:round;stroke-linejoin:round;}</style></defs><title>playlist-shuffle</title><path class="a" d="M23.5,16.75h-2c-2.509,0-3.492,5-6,5h-1"/><polyline class="a" points="22 15.25 23.5 16.75 22 18.25"/><path class="a" d="M23.5,21.75h-2c-2.509,0-3.492-5-6-5h-1"/><polyline class="a" points="22 23.25 23.5 21.75 22 20.25"/><path class="a" d="M18.5,13.75v-12a1,1,0,0,0-1-1H1.5a1,1,0,0,0-1,1v16a1,1,0,0,0,1,1h10"/><circle class="a" cx="12" cy="12.25" r="1.5"/><circle class="a" cx="5" cy="13.25" r="1.5"/><path class="a" d="M6.5,13.25V7.5a1,1,0,0,1,.725-.961l5-1.429a1,1,0,0,1,1.275.962V12.25"/></svg>