<svg xmlns="http://www.w3.org/2000/svg" viewBox="0 0 24 24"><defs><style>.a{fill:none;stroke:currentColor;stroke-linecap:round;stroke-linejoin:round;}</style></defs><title>playlist-sync</title><path class="a" d="M18.5,11.5V1.5a1,1,0,0,0-1-1H1.5a1,1,0,0,0-1,1v16a1,1,0,0,0,1,1h10"/><circle class="a" cx="12" cy="12" r="1.5"/><circle class="a" cx="5" cy="13" r="1.5"/><path class="a" d="M6.5,13V7.254a1,1,0,0,1,.725-.961l5-1.429a1,1,0,0,1,1.275.962V12"/><polyline class="a" points="23.5 13.5 23.5 17.5 19.5 17.5"/><path class="a" d="M23.4,17.5a5,5,0,1,0-.9,4"/></svg>