<?xml version="1.0" encoding="utf-8"?>
<!-- Generator: Adobe Illustrator 22.1.0, SVG Export Plug-In . SVG Version: 6.00 Build 0)  -->
<svg version="1.1" id="Layer_1" xmlns="http://www.w3.org/2000/svg" xmlns:xlink="http://www.w3.org/1999/xlink" x="0px" y="0px"
	 viewBox="0 0 24 24" style="enable-background:new 0 0 24 24;" xml:space="preserve">
<g>
	<title>microphone-podcast-international</title>
	<path d="M12.009,19.005c-1.93,0-3.5-1.57-3.5-3.5v-3.5c0-1.93,1.57-3.5,3.5-3.5c1.93,0,3.5,1.57,3.5,3.5v3.5
		C15.509,17.435,13.939,19.005,12.009,19.005z M12.009,9.505c-1.379,0-2.5,1.121-2.5,2.5v3.5c0,1.378,1.121,2.5,2.5,2.5
		s2.5-1.122,2.5-2.5v-3.5C14.509,10.627,13.388,9.505,12.009,9.505z"/>
	<path d="M8.009,24.005c-0.276,0-0.5-0.224-0.5-0.5s0.224-0.5,0.5-0.5h3.5v-2.029c-2.823-0.254-5-2.613-5-5.471v-2.5
		c0-0.276,0.224-0.5,0.5-0.5s0.5,0.224,0.5,0.5v2.5c0,2.481,2.019,4.5,4.5,4.5s4.5-2.019,4.5-4.5v-2.5c0-0.276,0.224-0.5,0.5-0.5
		s0.5,0.224,0.5,0.5v2.5c0,2.858-2.177,5.216-5,5.471v2.029h3.5c0.276,0,0.5,0.224,0.5,0.5s-0.224,0.5-0.5,0.5H8.009z"/>
	<path d="M7.225,10.627c-0.156,0-0.305-0.074-0.399-0.198c-0.402-0.531-0.718-1.117-0.94-1.741C5.391,7.291,5.389,5.753,5.88,4.352
		c0.004-0.014,0.011-0.034,0.02-0.054c0.426-1.186,1.182-2.214,2.187-2.975c0.687-0.52,1.458-0.893,2.29-1.108
		c-0.001,0,0.016-0.005,0.034-0.009c0.513-0.13,1.05-0.197,1.588-0.197c0.532,0,1.064,0.065,1.582,0.194
		c0.032,0.005,0.063,0.013,0.094,0.024c1.418,0.374,2.635,1.189,3.519,2.356c0.398,0.526,0.715,1.112,0.941,1.74
		c0.502,1.4,0.504,2.943,0.005,4.346c-0.006,0.018-0.012,0.034-0.019,0.05c-0.199,0.555-0.481,1.094-0.829,1.579
		c-0.094,0.13-0.246,0.208-0.406,0.208c-0.105,0-0.206-0.032-0.291-0.094c-0.109-0.078-0.181-0.194-0.202-0.325
		c-0.022-0.132,0.009-0.264,0.087-0.373c0.158-0.221,0.302-0.458,0.43-0.708H15.96c-0.276,0-0.5-0.224-0.5-0.5s0.224-0.5,0.5-0.5
		h1.343c0.282-0.984,0.282-2.014-0.001-3h-1.885c0.062,0.514,0.093,1.018,0.091,1.502c0,0.35-0.014,0.702-0.042,1.046
		c-0.022,0.257-0.24,0.459-0.498,0.459c-0.007,0-0.036-0.001-0.043-0.002c-0.273-0.022-0.478-0.264-0.456-0.539
		c0.026-0.314,0.04-0.639,0.04-0.966c0.002-0.482-0.032-0.986-0.1-1.5h-4.8c-0.068,0.515-0.102,1.018-0.1,1.498
		c0,0.336,0.014,0.672,0.042,0.998c0.023,0.275-0.181,0.517-0.455,0.541C9.089,8.043,9.06,8.044,9.053,8.044
		c-0.257,0-0.476-0.201-0.498-0.457c-0.03-0.356-0.046-0.719-0.046-1.082C8.507,6.022,8.538,5.518,8.6,5.005H6.725
		c-0.279,0.986-0.279,2.016-0.001,3h1.334c0.276,0,0.5,0.224,0.5,0.5s-0.224,0.5-0.5,0.5H7.116c0.149,0.295,0.319,0.57,0.508,0.82
		c0.166,0.22,0.123,0.534-0.097,0.7C7.439,10.592,7.335,10.627,7.225,10.627z M16.909,4.005c-0.147-0.286-0.319-0.561-0.515-0.819
		c-0.502-0.663-1.147-1.2-1.887-1.575c0.332,0.772,0.584,1.574,0.752,2.394H16.909z M14.237,4.005c-0.223-1-0.582-1.965-1.069-2.873
		C12.79,1.051,12.402,1.01,12.014,1.01c-0.391,0-0.782,0.042-1.164,0.124c-0.487,0.907-0.845,1.871-1.068,2.871H14.237z
		 M8.759,4.005c0.168-0.822,0.421-1.626,0.755-2.4C9.224,1.752,8.949,1.925,8.69,2.121C8.031,2.619,7.493,3.266,7.117,4.005H8.759z"
		/>
</g>
</svg>
