<?xml version="1.0" encoding="utf-8"?>
<!-- Generator: Adobe Illustrator 22.1.0, SVG Export Plug-In . SVG Version: 6.00 Build 0)  -->
<svg version="1.1" id="Layer_1" xmlns="http://www.w3.org/2000/svg" xmlns:xlink="http://www.w3.org/1999/xlink" x="0px" y="0px"
	 viewBox="0 0 24 24" style="enable-background:new 0 0 24 24;" xml:space="preserve">
<g>
	<title>microphone-podcast-on-air</title>
	<path d="M4.5,21C3.673,21,3,20.327,3,19.5v-1C3,17.673,3.673,17,4.5,17S6,17.673,6,18.5v1C6,20.327,5.327,21,4.5,21z M4.5,18
		C4.224,18,4,18.224,4,18.5v1C4,19.776,4.224,20,4.5,20S5,19.776,5,19.5v-1C5,18.224,4.776,18,4.5,18z"/>
	<path d="M9.5,21c-0.167,0-0.323-0.083-0.416-0.223L8,19.151V20.5C8,20.776,7.776,21,7.5,21S7,20.776,7,20.5v-3
		c0-0.222,0.143-0.414,0.355-0.479C7.401,17.007,7.451,17,7.5,17c0.167,0,0.323,0.083,0.416,0.222L9,18.849V17.5
		C9,17.224,9.224,17,9.5,17s0.5,0.224,0.5,0.5v3c0,0.222-0.143,0.414-0.355,0.479C9.599,20.993,9.55,21,9.5,21z"/>
	<path d="M14.5,21c-0.276,0-0.5-0.224-0.5-0.5V20h-1v0.5c0,0.276-0.224,0.5-0.5,0.5c-0.276,0-0.5-0.224-0.5-0.5v-2
		c0-0.827,0.673-1.5,1.5-1.5s1.5,0.673,1.5,1.5v2C15,20.776,14.776,21,14.5,21z M14,19v-0.5c0-0.276-0.224-0.5-0.5-0.5
		S13,18.224,13,18.5V19H14z"/>
	<path d="M16.5,21c-0.276,0-0.5-0.224-0.5-0.5v-3c0-0.276,0.224-0.5,0.5-0.5s0.5,0.224,0.5,0.5v3C17,20.776,16.776,21,16.5,21z"/>
	<path d="M20.5,21c-0.134,0-0.259-0.052-0.354-0.146L19.293,20H19v0.5c0,0.276-0.224,0.5-0.5,0.5S18,20.776,18,20.5v-3
		c0-0.276,0.224-0.5,0.5-0.5h1c0.827,0,1.5,0.673,1.5,1.5c0,0.476-0.226,0.916-0.597,1.196l0.45,0.45
		C20.948,20.241,21,20.366,21,20.5s-0.052,0.259-0.146,0.354S20.634,21,20.5,21z M19.5,19c0.276,0,0.5-0.224,0.5-0.5
		S19.776,18,19.5,18H19v1H19.5z"/>
	<path d="M2.5,24C1.121,24,0,22.878,0,21.5v-5C0,15.122,1.121,14,2.5,14H11l0.001-2H10c-1.822,0-3-1.374-3-3.5v-5
		C7,1.374,8.178,0,10,0h3c1.823,0,3,1.374,3,3.5v0.97c0.001,0.01,0.002,0.021,0.002,0.03c0,0.011-0.001,0.023-0.003,0.035L16,6.47
		c0.001,0.01,0.002,0.021,0.002,0.03c0,0.011-0.001,0.023-0.003,0.035L16,8.5c0,2.126-1.177,3.5-3,3.5h-0.999L12,14h9.5
		c1.378,0,2.5,1.122,2.5,2.5v5c0,1.378-1.122,2.5-2.5,2.5H2.5z M2.5,15C1.673,15,1,15.673,1,16.5v5C1,22.327,1.673,23,2.5,23h19
		c0.827,0,1.5-0.673,1.5-1.5v-5c0-0.827-0.673-1.5-1.5-1.5H2.5z M13,11c1.856,0,2-1.914,2-2.5V7h-1.498c-0.276,0-0.5-0.224-0.5-0.5
		s0.224-0.5,0.5-0.5H15V5h-1.498c-0.276,0-0.5-0.224-0.5-0.5s0.224-0.5,0.5-0.5H15V3.5C15,2.914,14.856,1,13,1h-3
		C8.144,1,8,2.914,8,3.5V4h2.502c0.276,0,0.5,0.224,0.5,0.5S10.778,5,10.502,5H8v1h2.502c0.276,0,0.5,0.224,0.5,0.5
		S10.778,7,10.502,7H8v1.5C8,9.086,8.144,11,10,11h1.001l0.001-2c0-0.276,0.224-0.5,0.5-0.5s0.5,0.224,0.5,0.5l-0.001,2H13z"/>
</g>
</svg>
