<?xml version="1.0" encoding="utf-8"?>
<!-- Generator: Adobe Illustrator 22.1.0, SVG Export Plug-In . SVG Version: 6.00 Build 0)  -->
<svg version="1.1" id="Layer_1" xmlns="http://www.w3.org/2000/svg" xmlns:xlink="http://www.w3.org/1999/xlink" x="0px" y="0px"
	 viewBox="0 0 24 24" style="enable-background:new 0 0 24 24;" xml:space="preserve">
<g>
	<title>alert-circle</title>
	<path d="M11.832,23.501c-2.961,0-5.763-1.137-7.89-3.201c-2.173-2.109-3.395-4.938-3.441-7.966L0.5,12.195
		C0.482,5.838,5.638,0.592,11.993,0.5c0.059-0.001,0.117-0.001,0.176-0.001c2.96,0,5.762,1.137,7.89,3.202
		c2.173,2.109,3.395,4.938,3.44,7.967l0.001,0.142c0.015,6.355-5.14,11.599-11.493,11.691L11.832,23.501z M12.008,1.5
		C6.197,1.584,1.484,6.38,1.5,12.19l0.001,0.13c0.042,2.76,1.156,5.339,3.137,7.262c1.939,1.882,4.505,2.918,7.224,2.918
		l0.131-0.001c5.808-0.084,10.521-4.879,10.507-10.688l-0.001-0.131c-0.041-2.76-1.155-5.34-3.137-7.263
		c-1.94-1.883-4.495-2.92-7.196-2.92L12.008,1.5z"/>
	<path d="M12,14.505c-0.276,0-0.5-0.224-0.5-0.5v-7c0-0.276,0.224-0.5,0.5-0.5c0.276,0,0.5,0.224,0.5,0.5v7
		C12.5,14.28,12.276,14.505,12,14.505z"/>
	<path d="M12.007,17.005c-0.41-0.001-0.742-0.32-0.757-0.727c-0.003-0.208,0.071-0.399,0.208-0.543
		c0.138-0.145,0.324-0.227,0.524-0.23c0.001,0,0.022,0,0.026,0c0.415,0.027,0.723,0.34,0.735,0.729
		c0.004,0.207-0.07,0.398-0.208,0.542c-0.138,0.143-0.324,0.225-0.523,0.228C12.011,17.005,12.009,17.005,12.007,17.005
		C12.007,17.005,12.007,17.005,12.007,17.005z"/>
</g>
</svg>
