<?xml version="1.0" encoding="utf-8"?>
<!-- Generator: Adobe Illustrator 22.1.0, SVG Export Plug-In . SVG Version: 6.00 Build 0)  -->
<svg version="1.1" id="Layer_1" xmlns="http://www.w3.org/2000/svg" xmlns:xlink="http://www.w3.org/1999/xlink" x="0px" y="0px"
	 viewBox="0 0 24 24" style="enable-background:new 0 0 24 24;" xml:space="preserve">
<g>
	<title>alert-message-laptop</title>
	<path d="M2.999,24c-1.93,0-3.5-1.57-3.5-3.5c0-0.276,0.224-0.5,0.5-0.5h2.5V9.168C2.499,7.973,3.471,7,4.666,7h3.833
		c0.276,0,0.5,0.224,0.5,0.5S8.775,8,8.499,8H4.666C4.023,8,3.499,8.524,3.499,9.167V20h16v-5.999c0-0.276,0.224-0.5,0.5-0.5
		s0.5,0.224,0.5,0.5V20h2.5c0.276,0,0.5,0.224,0.5,0.5c0,1.93-1.57,3.5-3.5,3.5H2.999z M0.549,21c0.235,1.141,1.262,2,2.45,2h17
		c1.188,0,2.215-0.859,2.449-2h-2.428c-0.007,0.001-0.014,0.001-0.021,0.001s-0.014,0-0.021-0.001H0.549z"/>
	<path d="M9.999,14c-0.134,0-0.26-0.052-0.354-0.147c-0.149-0.149-0.189-0.377-0.098-0.568l1.671-3.51
		c-0.516-0.994-0.765-2.107-0.719-3.228l-0.001-0.068c-0.006-1.727,0.66-3.35,1.875-4.573c1.215-1.223,2.833-1.9,4.557-1.906
		c0,0,0.006,0,0.008,0c1.223,0.001,2.417,0.342,3.455,0.985c1.488,0.922,2.528,2.371,2.929,4.08
		c0.401,1.709,0.114,3.469-0.809,4.957c-0.924,1.49-2.372,2.531-4.079,2.932c-0.497,0.117-1.006,0.176-1.511,0.176
		c-1.119,0-2.226-0.292-3.209-0.846l-3.501,1.667C10.146,13.984,10.074,14,9.999,14z M16.933,1c-1.457,0.005-2.824,0.577-3.851,1.61
		c-1.027,1.034-1.589,2.405-1.585,3.862l0.001,0.087c-0.042,1.047,0.206,2.063,0.715,2.952c0.081,0.142,0.088,0.315,0.018,0.463
		l-1.175,2.468l2.469-1.176c0.066-0.032,0.14-0.049,0.215-0.049c0.093,0,0.184,0.026,0.263,0.075
		c0.884,0.548,1.894,0.838,2.921,0.838c0.428,0,0.86-0.05,1.282-0.149c1.447-0.339,2.675-1.222,3.458-2.485
		c1.616-2.608,0.81-6.044-1.798-7.661C18.986,1.289,17.972,1,16.935,1l-0.003-0.25L16.933,1z"/>
	<circle cx="16.999" cy="8.75" r="0.75"/>
	<path d="M16.999,7.501c-0.276,0-0.5-0.224-0.5-0.5v-3c0-0.276,0.224-0.5,0.5-0.5s0.5,0.224,0.5,0.5v3
		C17.499,7.277,17.275,7.501,16.999,7.501z"/>
</g>
</svg>
