<?xml version="1.0" encoding="utf-8"?>
<!-- Generator: Adobe Illustrator 22.1.0, SVG Export Plug-In . SVG Version: 6.00 Build 0)  -->
<svg version="1.1" id="Layer_1" xmlns="http://www.w3.org/2000/svg" xmlns:xlink="http://www.w3.org/1999/xlink" x="0px" y="0px"
	 viewBox="0 0 24 24" style="enable-background:new 0 0 24 24;" xml:space="preserve">
<g>
	<title>image-file-landscape</title>
	<path d="M8.5,12C7.121,12,6,10.879,6,9.5S7.121,7,8.5,7S11,8.121,11,9.5S9.879,12,8.5,12z M8.5,8C7.673,8,7,8.673,7,9.5
		S7.673,11,8.5,11S10,10.327,10,9.5S9.327,8,8.5,8z"/>
	<path d="M5.5,20c-0.182,0-0.349-0.099-0.437-0.258c-0.088-0.158-0.083-0.353,0.013-0.507l3.014-4.822
		c0.08-0.127,0.189-0.237,0.318-0.318c0.16-0.1,0.343-0.152,0.53-0.152c0.075,0,0.151,0.009,0.225,0.026
		c0.261,0.06,0.482,0.218,0.624,0.444l0.651,1.043l2.215-3.543c0.08-0.128,0.19-0.239,0.318-0.318
		c0.159-0.099,0.342-0.151,0.528-0.151c0.348,0,0.665,0.176,0.849,0.47l4.576,7.322c0.096,0.154,0.102,0.348,0.014,0.507
		C18.849,19.901,18.682,20,18.5,20H5.5z M17.598,19L13.5,12.443l-2.639,4.222c-0.092,0.147-0.251,0.235-0.424,0.235
		c-0.174,0-0.332-0.088-0.424-0.235l-1.075-1.721L6.402,19H17.598z"/>
	<path d="M3.5,24C2.673,24,2,23.327,2,22.5v-21C2,0.673,2.673,0,3.5,0h13.293c0.401,0,0.777,0.156,1.061,0.439l3.707,3.707
		C21.844,4.43,22,4.807,22,5.207V22.5c0,0.827-0.673,1.5-1.5,1.5H3.5z M3.5,1C3.224,1,3,1.224,3,1.5v21C3,22.776,3.224,23,3.5,23h17
		c0.276,0,0.5-0.224,0.5-0.5V5.207c0-0.133-0.052-0.259-0.146-0.354l-3.707-3.707C17.053,1.053,16.925,1,16.793,1H3.5z"/>
</g>
</svg>
