<?xml version="1.0" encoding="utf-8"?>
<!-- Generator: Adobe Illustrator 22.1.0, SVG Export Plug-In . SVG Version: 6.00 Build 0)  -->
<svg version="1.1" id="Layer_1" xmlns="http://www.w3.org/2000/svg" xmlns:xlink="http://www.w3.org/1999/xlink" x="0px" y="0px"
	 viewBox="0 0 24 24" style="enable-background:new 0 0 24 24;" xml:space="preserve">
<g>
	<title>image-file-camera</title>
	<path d="M3.5,24C2.673,24,2,23.327,2,22.5v-21C2,0.673,2.673,0,3.5,0h13.293c0.401,0,0.777,0.156,1.061,0.439l3.707,3.707
		C21.844,4.43,22,4.807,22,5.207V22.5c0,0.827-0.673,1.5-1.5,1.5H3.5z M3.5,1C3.224,1,3,1.224,3,1.5v21C3,22.776,3.224,23,3.5,23h17
		c0.276,0,0.5-0.224,0.5-0.5V5.207c0-0.133-0.052-0.259-0.146-0.354l-3.707-3.707C17.053,1.053,16.925,1,16.793,1H3.5z"/>
	<path d="M7.5,20C6.673,20,6,19.327,6,18.5v-6C6,11.673,6.673,11,7.5,11h2.191l0.085-0.17C10.031,10.318,10.545,10,11.117,10h2.765
		c0.572,0,1.086,0.318,1.341,0.83L15.308,11H17.5c0.827,0,1.5,0.673,1.5,1.5v6c0,0.827-0.673,1.5-1.5,1.5H7.5z M7.5,12
		C7.224,12,7,12.224,7,12.5v6C7,18.776,7.224,19,7.5,19h10c0.276,0,0.5-0.224,0.5-0.5v-6c0-0.276-0.224-0.5-0.5-0.5H15
		c-0.19,0-0.361-0.105-0.447-0.275l-0.225-0.447C14.243,11.106,14.071,11,13.881,11h-2.764c-0.19,0-0.362,0.106-0.447,0.276
		l-0.223,0.447C10.362,11.894,10.191,12,10,12H7.5z"/>
	<path d="M12.5,18c-1.379,0-2.5-1.122-2.5-2.5s1.121-2.5,2.5-2.5c1.378,0,2.5,1.122,2.5,2.5S13.878,18,12.5,18z M12.5,14
		c-0.827,0-1.5,0.673-1.5,1.5s0.673,1.5,1.5,1.5s1.5-0.673,1.5-1.5S13.327,14,12.5,14z"/>
</g>
</svg>
