<?xml version="1.0" encoding="utf-8"?>
<!-- Generator: Adobe Illustrator 22.1.0, SVG Export Plug-In . SVG Version: 6.00 Build 0)  -->
<svg version="1.1" id="Layer_1" xmlns="http://www.w3.org/2000/svg" xmlns:xlink="http://www.w3.org/1999/xlink" x="0px" y="0px"
	 viewBox="0 0 24 24" style="enable-background:new 0 0 24 24;" xml:space="preserve">
<g>
	<title>image-document-svg-1</title>
	<path d="M1.5,24C0.673,24,0,23.327,0,22.5v-21C0,0.673,0.673,0,1.5,0h21C23.327,0,24,0.673,24,1.5v21c0,0.827-0.673,1.5-1.5,1.5
		H1.5z M1.5,1C1.224,1,1,1.224,1,1.5v21C1,22.776,1.224,23,1.5,23h21c0.276,0,0.5-0.224,0.5-0.5v-21C23,1.224,22.776,1,22.5,1H1.5z"
		/>
	<path d="M4.5,20C4.224,20,4,19.776,4,19.5S4.224,19,4.5,19h2.146c0.516,0,0.979-0.287,1.21-0.748
		c0.162-0.323,0.188-0.69,0.074-1.033c-0.114-0.344-0.355-0.622-0.679-0.783l-1.95-0.976c-0.802-0.401-1.3-1.208-1.301-2.104
		c0-0.628,0.245-1.219,0.69-1.664C5.135,11.245,5.726,11,6.354,11H8.5C8.776,11,9,11.224,9,11.5S8.776,12,8.5,12H6.354
		c-0.361,0-0.701,0.141-0.957,0.397C5.141,12.654,5,12.994,5.001,13.355c0,0.516,0.287,0.979,0.748,1.21l1.95,0.976
		c0.562,0.281,0.981,0.765,1.18,1.362c0.199,0.596,0.153,1.235-0.128,1.797C8.349,19.501,7.543,20,6.646,20C6.646,20,4.5,20,4.5,20z
		"/>
	<path d="M12.5,20c-0.153,0-0.295-0.068-0.39-0.187c-1.36-1.7-2.11-3.835-2.11-6.013v-2.3c0-0.276,0.224-0.5,0.5-0.5
		s0.5,0.224,0.5,0.5v2.3c0,1.722,0.531,3.434,1.5,4.859c0.969-1.425,1.5-3.137,1.5-4.859v-2.3c0-0.276,0.224-0.5,0.5-0.5
		s0.5,0.224,0.5,0.5v2.3c0,2.177-0.749,4.312-2.109,6.012C12.795,19.932,12.653,20,12.5,20z"/>
	<path d="M18.5,20c-1.378,0-2.5-1.122-2.5-2.5v-4c0-1.379,1.122-2.5,2.5-2.5s2.5,1.121,2.5,2.5c0,0.276-0.224,0.5-0.5,0.5
		S20,13.776,20,13.5c0-0.827-0.673-1.5-1.5-1.5S17,12.673,17,13.5v4c0,0.827,0.673,1.5,1.5,1.5s1.5-0.673,1.5-1.5V17h-1
		c-0.276,0-0.5-0.224-0.5-0.5S18.724,16,19,16h1.5c0.276,0,0.5,0.224,0.5,0.5v1C21,18.878,19.878,20,18.5,20z"/>
</g>
</svg>
