<?xml version="1.0" encoding="utf-8"?>
<!-- Generator: Adobe Illustrator 22.1.0, SVG Export Plug-In . SVG Version: 6.00 Build 0)  -->
<svg version="1.1" id="Layer_1" xmlns="http://www.w3.org/2000/svg" xmlns:xlink="http://www.w3.org/1999/xlink" x="0px" y="0px"
	 viewBox="0 0 24 24" style="enable-background:new 0 0 24 24;" xml:space="preserve">
<g>
	<title>image-file-gif</title>
	<path d="M3.5,24C2.673,24,2,23.327,2,22.5v-21C2,0.673,2.673,0,3.5,0h12.025C19.095,0,22,2.905,22,6.475V22.5
		c0,0.827-0.673,1.5-1.5,1.5H3.5z M3.5,1C3.224,1,3,1.224,3,1.5v21C3,22.776,3.224,23,3.5,23h17c0.276,0,0.5-0.224,0.5-0.5V6.475
		C21,6.321,20.993,6.162,20.978,6H17.5C16.673,6,16,5.327,16,4.5V1.022C15.838,1.007,15.681,1,15.525,1H3.5z M17,4.5
		C17,4.776,17.224,5,17.5,5h3.297C20.282,3.164,18.836,1.717,17,1.203V4.5z"/>
	<path d="M8,19c-1.103,0-2-0.897-2-2v-3c0-1.103,0.897-2,2-2s2,0.897,2,2v0.5c0,0.276-0.224,0.5-0.5,0.5S9,14.776,9,14.5V14
		c0-0.552-0.449-1-1-1s-1,0.448-1,1v3c0,0.552,0.449,1,1,1s1-0.448,1-1H8.5C8.224,17,8,16.776,8,16.5S8.224,16,8.5,16h1
		c0.276,0,0.5,0.224,0.5,0.5V17C10,18.103,9.103,19,8,19z"/>
	<path d="M11.5,19c-0.276,0-0.5-0.224-0.5-0.5s0.224-0.5,0.5-0.5H12v-5h-0.5c-0.276,0-0.5-0.224-0.5-0.5c0-0.276,0.224-0.5,0.5-0.5
		h2c0.276,0,0.5,0.224,0.5,0.5c0,0.276-0.224,0.5-0.5,0.5H13v5h0.5c0.276,0,0.5,0.224,0.5,0.5S13.776,19,13.5,19H11.5z"/>
	<path d="M15.5,19c-0.276,0-0.5-0.224-0.5-0.5v-5c0-0.827,0.673-1.5,1.5-1.5h2c0.276,0,0.5,0.224,0.5,0.5c0,0.276-0.224,0.5-0.5,0.5
		h-2c-0.276,0-0.5,0.224-0.5,0.5V15h1.5c0.276,0,0.5,0.224,0.5,0.5S17.776,16,17.5,16H16v2.5C16,18.776,15.776,19,15.5,19z"/>
</g>
</svg>
