<?xml version="1.0" encoding="utf-8"?>
<!-- Generator: Adobe Illustrator 22.1.0, SVG Export Plug-In . SVG Version: 6.00 Build 0)  -->
<svg version="1.1" id="Layer_1" xmlns="http://www.w3.org/2000/svg" xmlns:xlink="http://www.w3.org/1999/xlink" x="0px" y="0px"
	 viewBox="0 0 24 24" style="enable-background:new 0 0 24 24;" xml:space="preserve">
<g>
	<title>image-file-remove</title>
	<path d="M17.5,24c-3.584,0-6.5-2.916-6.5-6.5s2.916-6.5,6.5-6.5s6.5,2.916,6.5,6.5S21.084,24,17.5,24z M17.5,12
		c-3.033,0-5.5,2.467-5.5,5.5s2.467,5.5,5.5,5.5s5.5-2.467,5.5-5.5S20.533,12,17.5,12z"/>
	<path d="M19.621,20.121c-0.134,0-0.259-0.052-0.354-0.146L17.5,18.207l-1.768,1.768c-0.094,0.094-0.22,0.146-0.354,0.146
		s-0.259-0.052-0.354-0.146c-0.195-0.195-0.195-0.512,0-0.707l1.768-1.768l-1.768-1.768c-0.195-0.195-0.195-0.512,0-0.707
		c0.094-0.094,0.22-0.146,0.354-0.146s0.259,0.052,0.354,0.146l1.768,1.768l1.768-1.768c0.094-0.094,0.22-0.146,0.354-0.146
		s0.259,0.052,0.354,0.146c0.195,0.195,0.195,0.512,0,0.707L18.207,17.5l1.768,1.768c0.195,0.195,0.195,0.512,0,0.707
		C19.88,20.069,19.755,20.121,19.621,20.121z"/>
	<path d="M6.5,10C5.121,10,4,8.879,4,7.5S5.121,5,6.5,5S9,6.121,9,7.5S7.879,10,6.5,10z M6.5,6C5.673,6,5,6.673,5,7.5S5.673,9,6.5,9
		S8,8.327,8,7.5S7.327,6,6.5,6z"/>
	<path d="M3.5,18c-0.182,0-0.349-0.099-0.437-0.258c-0.088-0.158-0.083-0.353,0.013-0.507l3.014-4.822
		c0.08-0.127,0.189-0.237,0.318-0.318c0.16-0.1,0.343-0.152,0.529-0.152c0.076,0,0.152,0.009,0.226,0.026
		c0.261,0.06,0.482,0.218,0.623,0.444l0.652,1.043l2.214-3.543c0.08-0.128,0.19-0.238,0.318-0.318
		c0.159-0.099,0.342-0.151,0.528-0.151c0.348,0,0.665,0.175,0.849,0.469l0.62,0.992c0.146,0.233,0.075,0.542-0.158,0.689
		c-0.08,0.05-0.171,0.076-0.265,0.076c-0.174,0-0.332-0.088-0.424-0.235l-0.62-0.992l-2.638,4.222
		c-0.089,0.142-0.247,0.227-0.424,0.227s-0.335-0.085-0.424-0.227l-1.076-1.722L4.402,17H9c0.276,0,0.5,0.224,0.5,0.5S9.276,18,9,18
		H3.5z"/>
	<path d="M1.5,24C0.673,24,0,23.327,0,22.5v-21C0,0.673,0.673,0,1.5,0h13.293c0.401,0,0.777,0.156,1.061,0.439l3.707,3.707
		C19.844,4.43,20,4.807,20,5.207V9.5c0,0.276-0.224,0.5-0.5,0.5S19,9.776,19,9.5V5.207c0-0.133-0.052-0.259-0.146-0.354
		l-3.707-3.707C15.053,1.053,14.925,1,14.793,1H1.5C1.224,1,1,1.224,1,1.5v21C1,22.776,1.224,23,1.5,23h9c0.276,0,0.5,0.224,0.5,0.5
		S10.776,24,10.5,24H1.5z"/>
</g>
</svg>
