<?xml version="1.0" encoding="utf-8"?>
<!-- Generator: Adobe Illustrator 22.1.0, SVG Export Plug-In . SVG Version: 6.00 Build 0)  -->
<svg version="1.1" id="Layer_1" xmlns="http://www.w3.org/2000/svg" xmlns:xlink="http://www.w3.org/1999/xlink" x="0px" y="0px"
	 viewBox="0 0 24 24" style="enable-background:new 0 0 24 24;" xml:space="preserve">
<g>
	<title>image-file-share</title>
	<path d="M6.5,10C5.121,10,4,8.879,4,7.5S5.121,5,6.5,5S9,6.121,9,7.5S7.879,10,6.5,10z M6.5,6C5.673,6,5,6.673,5,7.5S5.673,9,6.5,9
		S8,8.327,8,7.5S7.327,6,6.5,6z"/>
	<path d="M3.5,18c-0.182,0-0.349-0.099-0.437-0.258c-0.088-0.158-0.083-0.353,0.013-0.507l3.014-4.822
		c0.08-0.127,0.189-0.237,0.318-0.318c0.16-0.1,0.343-0.152,0.529-0.152c0.076,0,0.152,0.009,0.226,0.026
		c0.261,0.06,0.482,0.218,0.623,0.444l0.652,1.043l2.214-3.543c0.08-0.128,0.19-0.238,0.318-0.318
		c0.159-0.099,0.342-0.151,0.528-0.151c0.348,0,0.665,0.175,0.849,0.469l1.505,2.408c0.071,0.113,0.093,0.247,0.063,0.377
		c-0.03,0.13-0.109,0.241-0.222,0.312c-0.079,0.05-0.171,0.076-0.265,0.076c-0.174,0-0.332-0.088-0.424-0.236L11.5,10.443
		l-2.638,4.222c-0.089,0.142-0.247,0.227-0.424,0.227s-0.335-0.085-0.424-0.227l-1.076-1.722L4.402,17H8.5C8.776,17,9,17.224,9,17.5
		S8.776,18,8.5,18H3.5z"/>
	<path d="M1.5,24C0.673,24,0,23.327,0,22.5v-21C0,0.673,0.673,0,1.5,0h13.293c0.401,0,0.777,0.156,1.061,0.439l3.707,3.707
		C19.844,4.43,20,4.807,20,5.207V8.5C20,8.776,19.776,9,19.5,9S19,8.776,19,8.5V5.207c0-0.133-0.052-0.259-0.146-0.354l-3.707-3.707
		C15.053,1.053,14.925,1,14.793,1H1.5C1.224,1,1,1.224,1,1.5v21C1,22.776,1.224,23,1.5,23h8c0.276,0,0.5,0.224,0.5,0.5
		S9.776,24,9.5,24H1.5z"/>
	<path d="M21.25,24c-1.516,0-2.75-1.234-2.75-2.75c0-0.18,0.018-0.36,0.055-0.54l-2.482-0.993C15.57,20.514,14.699,21,13.75,21
		C12.234,21,11,19.766,11,18.25s1.234-2.75,2.75-2.75c0.797,0,1.535,0.337,2.058,0.932l2.868-1.721
		C18.559,14.402,18.5,14.08,18.5,13.75c0-1.516,1.234-2.75,2.75-2.75S24,12.234,24,13.75s-1.234,2.75-2.75,2.75
		c-0.797,0-1.535-0.337-2.058-0.932l-2.868,1.72c0.117,0.309,0.176,0.632,0.176,0.961c0,0.18-0.018,0.36-0.055,0.54l2.482,0.993
		c0.503-0.796,1.374-1.282,2.323-1.282c1.516,0,2.75,1.234,2.75,2.75S22.766,24,21.25,24z M21.25,19.5
		c-0.965,0-1.75,0.785-1.75,1.75S20.285,23,21.25,23S23,22.215,23,21.25S22.215,19.5,21.25,19.5z M13.75,16.5
		c-0.965,0-1.75,0.785-1.75,1.75S12.785,20,13.75,20s1.75-0.785,1.75-1.75c0-0.304-0.081-0.605-0.235-0.871
		c-0.008-0.01-0.015-0.02-0.02-0.028c-0.006-0.01-0.011-0.021-0.016-0.032C14.917,16.813,14.361,16.5,13.75,16.5z M19.77,14.681
		c0.313,0.506,0.869,0.819,1.48,0.819c0.965,0,1.75-0.785,1.75-1.75S22.215,12,21.25,12s-1.75,0.785-1.75,1.75
		c0,0.304,0.081,0.605,0.235,0.872c0.005,0.007,0.01,0.013,0.014,0.02C19.757,14.653,19.764,14.667,19.77,14.681z"/>
</g>
</svg>
