<?xml version="1.0" encoding="utf-8"?>
<!-- Generator: Adobe Illustrator 22.1.0, SVG Export Plug-In . SVG Version: 6.00 Build 0)  -->
<svg version="1.1" id="Layer_1" xmlns="http://www.w3.org/2000/svg" xmlns:xlink="http://www.w3.org/1999/xlink" x="0px" y="0px"
	 viewBox="0 0 24 24" style="enable-background:new 0 0 24 24;" xml:space="preserve">
<g>
	<title>desktop-monitor-smiley</title>
	<path d="M7.499,23c-0.276,0-0.5-0.224-0.5-0.5s0.224-0.5,0.5-0.5h1.249c0.649-0.884,1.061-1.913,1.201-3H1.5
		C0.673,19,0,18.327,0,17.5v-15C0,1.673,0.673,1,1.5,1h21C23.327,1,24,1.673,24,2.5v15c0,0.827-0.673,1.5-1.5,1.5h-8.449
		c0.14,1.086,0.552,2.116,1.201,3h1.247c0.276,0,0.5,0.224,0.5,0.5s-0.224,0.5-0.5,0.5H7.499z M14.051,22
		c-0.544-0.912-0.889-1.937-1.007-3h-2.087c-0.119,1.063-0.463,2.088-1.007,3H14.051z M1,17.5C1,17.776,1.224,18,1.5,18h21
		c0.276,0,0.5-0.224,0.5-0.5V16H1V17.5z M23,15V2.5C23,2.224,22.776,2,22.5,2h-21C1.224,2,1,2.224,1,2.5V15H23z"/>
	<path d="M9.499,9c-0.276,0-0.5-0.224-0.5-0.5v-2c0-0.276,0.224-0.5,0.5-0.5s0.5,0.224,0.5,0.5v2C9.999,8.776,9.775,9,9.499,9z"/>
	<path d="M14.499,9c-0.276,0-0.5-0.224-0.5-0.5v-2c0-0.276,0.224-0.5,0.5-0.5s0.5,0.224,0.5,0.5v2C14.999,8.776,14.775,9,14.499,9z"
		/>
	<path d="M12,12.993c-1.598,0-3.135-0.574-4.329-1.616c-0.101-0.088-0.161-0.21-0.17-0.343s0.034-0.262,0.122-0.363
		C7.719,10.562,7.856,10.5,8,10.5c0.121,0,0.237,0.044,0.328,0.123c1.012,0.884,2.316,1.37,3.672,1.37
		c1.355,0,2.659-0.486,3.671-1.37C15.762,10.544,15.879,10.5,16,10.5c0.145,0,0.282,0.063,0.377,0.172
		c0.087,0.1,0.131,0.229,0.122,0.362s-0.069,0.255-0.17,0.343C15.135,12.419,13.598,12.993,12,12.993z"/>
</g>
</svg>
