<?xml version="1.0" encoding="utf-8"?>
<!-- Generator: Adobe Illustrator 22.1.0, SVG Export Plug-In . SVG Version: 6.00 Build 0)  -->
<svg version="1.1" id="Layer_1" xmlns="http://www.w3.org/2000/svg" xmlns:xlink="http://www.w3.org/1999/xlink" x="0px" y="0px"
	 viewBox="0 0 24 24" style="enable-background:new 0 0 24 24;" xml:space="preserve">
<g>
	<title>desktop-monitor-lock</title>
	<path d="M10,13c-0.827,0-1.5-0.673-1.5-1.5v-3c0-0.64,0.41-1.205,1-1.414V6.5C9.5,5.121,10.621,4,12,4c1.378,0,2.5,1.121,2.5,2.5
		v0.586c0.59,0.209,1,0.774,1,1.414v3c0,0.827-0.673,1.5-1.5,1.5H10z M10,8C9.724,8,9.5,8.224,9.5,8.5v3c0,0.276,0.224,0.5,0.5,0.5
		h4c0.276,0,0.5-0.224,0.5-0.5v-3C14.5,8.224,14.276,8,14,8H10z M13.5,7V6.5C13.5,5.673,12.827,5,12,5s-1.5,0.673-1.5,1.5V7H13.5z"
		/>
	<circle cx="12" cy="10.02" r="0.75"/>
	<path d="M7.499,23c-0.276,0-0.5-0.224-0.5-0.5s0.224-0.5,0.5-0.5h1.249c0.649-0.884,1.061-1.913,1.201-3H1.5
		C0.673,19,0,18.327,0,17.5v-15C0,1.673,0.673,1,1.5,1h21C23.327,1,24,1.673,24,2.5v15c0,0.827-0.673,1.5-1.5,1.5h-8.449
		c0.14,1.086,0.552,2.116,1.201,3h1.247c0.276,0,0.5,0.224,0.5,0.5s-0.224,0.5-0.5,0.5H7.499z M14.051,22
		c-0.544-0.912-0.889-1.937-1.007-3h-2.087c-0.119,1.063-0.463,2.088-1.007,3H14.051z M1,17.5C1,17.776,1.224,18,1.5,18h21
		c0.276,0,0.5-0.224,0.5-0.5V16H1V17.5z M23,15V2.5C23,2.224,22.776,2,22.5,2h-21C1.224,2,1,2.224,1,2.5V15H23z"/>
</g>
</svg>
