<?xml version="1.0" encoding="utf-8"?>
<!-- Generator: Adobe Illustrator 22.1.0, SVG Export Plug-In . SVG Version: 6.00 Build 0)  -->
<svg version="1.1" id="Layer_1" xmlns="http://www.w3.org/2000/svg" xmlns:xlink="http://www.w3.org/1999/xlink" x="0px" y="0px"
	 viewBox="0 0 24 24" style="enable-background:new 0 0 24 24;" xml:space="preserve">
<g>
	<title>desktop-monitor-approve</title>
	<path d="M17.5,13c-3.584,0-6.5-2.916-6.5-6.5S13.916,0,17.5,0S24,2.916,24,6.5S21.084,13,17.5,13z M17.5,1
		C14.467,1,12,3.467,12,6.5s2.467,5.5,5.5,5.5S23,9.533,23,6.5S20.533,1,17.5,1z"/>
	<path d="M16.667,9.429c-0.272,0-0.531-0.087-0.75-0.251c-0.047-0.035-0.091-0.073-0.132-0.114l-1.501-1.501
		c-0.195-0.195-0.195-0.512,0-0.707c0.094-0.094,0.22-0.146,0.354-0.146s0.259,0.052,0.354,0.146l1.5,1.5
		c0.007,0.007,0.016,0.015,0.026,0.022c0.045,0.034,0.096,0.051,0.15,0.051c0.012,0,0.024-0.001,0.036-0.003
		c0.068-0.01,0.125-0.043,0.166-0.098l2.905-3.873c0.094-0.125,0.244-0.2,0.4-0.2c0.109,0,0.213,0.035,0.3,0.1
		c0.107,0.08,0.176,0.197,0.195,0.329c0.019,0.132-0.015,0.264-0.095,0.371l-2.905,3.874c-0.201,0.267-0.494,0.44-0.825,0.487
		C16.785,9.425,16.725,9.429,16.667,9.429z"/>
	<path d="M6.5,24C6.224,24,6,23.776,6,23.5S6.224,23,6.5,23h1.248c0.649-0.884,1.061-1.913,1.201-3H1.5C0.673,20,0,19.327,0,18.5
		v-13C0,4.673,0.673,4,1.5,4h8C9.776,4,10,4.224,10,4.5S9.776,5,9.5,5h-8C1.224,5,1,5.224,1,5.5V16h20v-2.5
		c0-0.276,0.224-0.5,0.5-0.5s0.5,0.224,0.5,0.5v5c0,0.827-0.673,1.5-1.5,1.5h-7.449c0.14,1.086,0.552,2.116,1.201,3H15.5
		c0.276,0,0.5,0.224,0.5,0.5S15.776,24,15.5,24H6.5z M13.051,23c-0.544-0.912-0.889-1.937-1.007-3H9.956
		c-0.119,1.063-0.463,2.088-1.007,3H13.051z M1,18.5C1,18.776,1.224,19,1.5,19h19c0.276,0,0.5-0.224,0.5-0.5V17H1V18.5z"/>
</g>
</svg>
