<?xml version="1.0" encoding="utf-8"?>
<!-- Generator: Adobe Illustrator 22.1.0, SVG Export Plug-In . SVG Version: 6.00 Build 0)  -->
<svg version="1.1" id="Layer_1" xmlns="http://www.w3.org/2000/svg" xmlns:xlink="http://www.w3.org/1999/xlink" x="0px" y="0px"
	 viewBox="0 0 24 24" style="enable-background:new 0 0 24 24;" xml:space="preserve">
<g>
	<title>desktop-monitor-upload</title>
	<path d="M17.5,13c-3.584,0-6.5-2.916-6.5-6.5S13.916,0,17.5,0S24,2.916,24,6.5S21.084,13,17.5,13z M17.5,1
		C14.467,1,12,3.467,12,6.5s2.467,5.5,5.5,5.5S23,9.533,23,6.5S20.533,1,17.5,1z"/>
	<path d="M17.5,10C17.224,10,17,9.776,17,9.5V4.707l-1.396,1.396c-0.094,0.094-0.22,0.146-0.354,0.146s-0.259-0.052-0.354-0.146
		S14.75,5.884,14.75,5.75s0.052-0.259,0.146-0.354l2.25-2.25c0.047-0.047,0.101-0.083,0.163-0.109C17.37,3.013,17.434,3,17.5,3
		s0.13,0.013,0.191,0.038c0.061,0.025,0.116,0.062,0.163,0.108l2.25,2.25c0.094,0.094,0.146,0.22,0.146,0.354
		s-0.052,0.259-0.146,0.354S19.884,6.25,19.75,6.25s-0.259-0.052-0.354-0.146L18,4.707V9.5C18,9.776,17.776,10,17.5,10z"/>
	<path d="M6.5,24C6.224,24,6,23.776,6,23.5S6.224,23,6.5,23h1.248c0.649-0.884,1.061-1.913,1.201-3H1.5C0.673,20,0,19.327,0,18.5
		v-13C0,4.673,0.673,4,1.5,4h8C9.776,4,10,4.224,10,4.5S9.776,5,9.5,5h-8C1.224,5,1,5.224,1,5.5V16h20v-2.5
		c0-0.276,0.224-0.5,0.5-0.5s0.5,0.224,0.5,0.5v5c0,0.827-0.673,1.5-1.5,1.5h-7.449c0.14,1.086,0.552,2.116,1.201,3H15.5
		c0.276,0,0.5,0.224,0.5,0.5S15.776,24,15.5,24H6.5z M13.051,23c-0.544-0.912-0.889-1.937-1.007-3H9.956
		c-0.119,1.063-0.463,2.088-1.007,3H13.051z M1,18.5C1,18.776,1.224,19,1.5,19h19c0.276,0,0.5-0.224,0.5-0.5V17H1V18.5z"/>
</g>
</svg>
