<?xml version="1.0" encoding="utf-8"?>
<!-- Generator: Adobe Illustrator 22.1.0, SVG Export Plug-In . SVG Version: 6.00 Build 0)  -->
<svg version="1.1" id="Layer_1" xmlns="http://www.w3.org/2000/svg" xmlns:xlink="http://www.w3.org/1999/xlink" x="0px" y="0px"
	 viewBox="0 0 24 24" style="enable-background:new 0 0 24 24;" xml:space="preserve">
<g>
	<title>desktop-monitor-settings</title>
	<path d="M17.75,8.906c-1.068,0-1.937-0.869-1.937-1.937s0.869-1.937,1.937-1.937s1.937,0.869,1.937,1.937S18.818,8.906,17.75,8.906
		z M17.75,6.032c-0.517,0-0.937,0.42-0.937,0.937s0.42,0.937,0.937,0.937s0.937-0.42,0.937-0.937S18.267,6.032,17.75,6.032z"/>
	<path d="M17.754,13.938c-0.172,0-0.343-0.025-0.51-0.075c-0.573-0.172-1.017-0.617-1.189-1.189l-0.424-1.39
		c-0.057-0.191-0.235-0.323-0.433-0.323c-0.033,0-0.067,0.004-0.1,0.012l-1.412,0.327c-0.132,0.03-0.265,0.045-0.398,0.045
		c-0.335,0-0.664-0.095-0.95-0.276c-0.403-0.255-0.682-0.651-0.787-1.115c-0.13-0.575,0.033-1.176,0.434-1.607l0.987-1.064
		c0.162-0.175,0.162-0.45,0-0.625l-0.988-1.065c-0.67-0.719-0.629-1.849,0.09-2.519c0.331-0.308,0.763-0.478,1.216-0.478
		c0.131,0,0.263,0.015,0.392,0.044L15.1,2.966c0.029,0.006,0.061,0.01,0.092,0.01c0.199,0,0.377-0.132,0.435-0.321l0.424-1.393
		C16.274,0.519,16.973,0,17.75,0c0.173,0,0.345,0.025,0.511,0.076c0.572,0.172,1.016,0.616,1.188,1.188l0.428,1.389
		c0.058,0.192,0.237,0.324,0.435,0.324c0.033,0,0.067-0.004,0.099-0.011l1.41-0.328c0.132-0.03,0.266-0.045,0.398-0.045
		c0.335,0,0.664,0.096,0.95,0.276c0.403,0.255,0.682,0.651,0.787,1.115c0.13,0.575-0.033,1.176-0.435,1.607l-0.987,1.064
		c-0.162,0.175-0.162,0.45,0,0.625l0.988,1.065C23.848,8.694,24.017,9.148,24,9.624c-0.017,0.476-0.218,0.917-0.567,1.242
		c-0.331,0.308-0.762,0.478-1.214,0.478c0,0,0,0,0,0c-0.132,0-0.264-0.015-0.393-0.044l-1.415-0.328
		c-0.032-0.007-0.066-0.011-0.099-0.011c-0.198,0-0.376,0.132-0.433,0.321l-0.425,1.394C19.231,13.418,18.532,13.938,17.754,13.938
		L17.754,13.938z M15.198,9.961c0.636,0,1.208,0.425,1.391,1.033l0.424,1.391c0.075,0.251,0.269,0.446,0.519,0.521
		c0.073,0.022,0.148,0.033,0.223,0.033c0.339,0,0.644-0.227,0.742-0.552l0.425-1.394c0.183-0.607,0.754-1.032,1.389-1.032
		c0.109,0,0.219,0.012,0.326,0.037l1.412,0.327c0.054,0.012,0.112,0.019,0.169,0.019c0.198,0,0.388-0.075,0.533-0.21
		c0.153-0.143,0.241-0.336,0.249-0.545c0.007-0.209-0.067-0.409-0.209-0.562l-0.989-1.066c-0.516-0.557-0.516-1.429,0-1.985
		l0.988-1.065c0.177-0.19,0.249-0.454,0.192-0.706C22.936,4,22.814,3.826,22.637,3.715c-0.126-0.08-0.27-0.122-0.416-0.122
		c-0.058,0-0.117,0.007-0.174,0.02L20.638,3.94c-0.107,0.024-0.215,0.036-0.323,0.036c-0.636,0-1.209-0.424-1.393-1.032
		c0,0-0.431-1.399-0.432-1.403c-0.087-0.254-0.276-0.436-0.516-0.509C17.901,1.011,17.827,1,17.752,1
		c-0.34,0-0.646,0.227-0.743,0.552l-0.425,1.394c-0.184,0.606-0.757,1.03-1.392,1.03c-0.106,0-0.211-0.012-0.315-0.035l-1.416-0.329
		c-0.054-0.012-0.112-0.019-0.169-0.019c-0.198,0-0.388,0.075-0.533,0.21c-0.316,0.294-0.334,0.791-0.04,1.107l0.989,1.066
		c0.516,0.557,0.516,1.429,0,1.985L12.72,9.026c-0.177,0.19-0.249,0.454-0.192,0.706c0.046,0.204,0.169,0.378,0.345,0.49
		c0.126,0.08,0.27,0.122,0.416,0.122c0.058,0,0.117-0.007,0.174-0.02l1.409-0.326C14.981,9.973,15.09,9.961,15.198,9.961z"/>
	<path d="M6.5,24C6.225,24,6,23.775,6,23.5S6.225,23,6.5,23h1.248c0.649-0.883,1.061-1.913,1.201-3H1.5C0.673,20,0,19.327,0,18.5
		v-13C0,4.673,0.673,4,1.5,4h8C9.776,4,10,4.224,10,4.5S9.776,5,9.5,5h-8C1.225,5,1,5.224,1,5.5V16h20v-2.5
		c0-0.276,0.224-0.5,0.5-0.5s0.5,0.224,0.5,0.5v5c0,0.827-0.673,1.5-1.5,1.5h-7.449c0.14,1.086,0.552,2.116,1.201,3H15.5
		c0.276,0,0.5,0.224,0.5,0.5S15.776,24,15.5,24H6.5z M13.051,23c-0.544-0.912-0.889-1.937-1.007-3H9.957
		c-0.119,1.063-0.463,2.088-1.007,3H13.051z M1,18.5C1,18.775,1.225,19,1.5,19h19c0.276,0,0.5-0.224,0.5-0.5V17H1V18.5z"/>
</g>
</svg>
