<?xml version="1.0" encoding="utf-8"?>
<!-- Generator: Adobe Illustrator 22.1.0, SVG Export Plug-In . SVG Version: 6.00 Build 0)  -->
<svg version="1.1" id="Layer_1" xmlns="http://www.w3.org/2000/svg" xmlns:xlink="http://www.w3.org/1999/xlink" x="0px" y="0px"
	 viewBox="0 0 24 24" style="enable-background:new 0 0 24 24;" xml:space="preserve">
<g>
	<title>answer-machine-paper</title>
	<path d="M4.501,24c-1.199,0-2.215-0.845-2.449-2H1.5C0.673,22,0,21.327,0,20.5v-13C0,6.673,0.673,6,1.5,6h0.501V5.5
		c0-1.199,0.845-2.215,2-2.449V0.5c0-0.276,0.224-0.5,0.5-0.5s0.5,0.224,0.5,0.5V3h2.5c1.379,0,2.5,1.121,2.5,2.5V6H22.5
		C23.327,6,24,6.673,24,7.5v13c0,0.827-0.673,1.5-1.5,1.5H9.95c-0.234,1.155-1.25,2-2.449,2H4.501z M4.501,4
		c-0.827,0-1.5,0.673-1.5,1.5v16c0,0.827,0.673,1.5,1.5,1.5h3c0.821,0,1.49-0.664,1.5-1.483c0-0.006,0-14.996,0-14.996
		C9,6.514,9,6.507,9,6.5s0-0.014,0.001-0.021V5.5c0-0.827-0.673-1.5-1.5-1.5H4.501z M22.5,21c0.276,0,0.5-0.224,0.5-0.5v-13
		C23,7.224,22.776,7,22.5,7H10.001v14H22.5z M1.5,7C1.224,7,1,7.224,1,7.5v13C1,20.776,1.224,21,1.5,21h0.501V7H1.5z"/>
	<path d="M12.501,11c-0.276,0-0.5-0.224-0.5-0.5v-2c0-0.276,0.224-0.5,0.5-0.5H20.5C20.776,8,21,8.224,21,8.5v2
		c0,0.276-0.224,0.5-0.5,0.5H12.501z M20,10V9h-6.999v1H20z"/>
	<circle cx="13.25" cy="13.25" r="0.75"/>
	<circle cx="16.5" cy="13.25" r="0.75"/>
	<circle cx="13.25" cy="16" r="0.75"/>
	<circle cx="16.5" cy="16" r="0.75"/>
	<circle cx="13.25" cy="18.75" r="0.75"/>
	<circle cx="19.75" cy="13.25" r="0.75"/>
	<circle cx="19.75" cy="16" r="0.75"/>
	<circle cx="19.75" cy="18.75" r="0.75"/>
	<circle cx="16.5" cy="18.75" r="0.75"/>
	<path d="M21.5,5C21.224,5,21,4.776,21,4.5V2.981c0-0.153-0.068-0.295-0.188-0.391l-1.851-1.481C18.873,1.039,18.762,1,18.649,1
		H12.5C12.224,1,12,1.224,12,1.5v3C12,4.776,11.776,5,11.5,5S11,4.776,11,4.5v-3C11,0.673,11.673,0,12.5,0h6.149
		c0.34,0,0.673,0.117,0.938,0.329l1.851,1.481C21.795,2.096,22,2.523,22,2.981V4.5C22,4.776,21.776,5,21.5,5z"/>
	<path d="M13.498,3c-0.276,0-0.5-0.224-0.5-0.5s0.224-0.5,0.5-0.5h3.5c0.276,0,0.5,0.224,0.5,0.5S17.274,3,16.998,3H13.498z"/>
	<path d="M13.498,5c-0.276,0-0.5-0.224-0.5-0.5s0.224-0.5,0.5-0.5h6c0.276,0,0.5,0.224,0.5,0.5S19.774,5,19.498,5H13.498z"/>
</g>
</svg>
