<?xml version="1.0" encoding="utf-8"?>
<!-- Generator: Adobe Illustrator 22.1.0, SVG Export Plug-In . SVG Version: 6.00 Build 0)  -->
<svg version="1.1" id="Layer_1" xmlns="http://www.w3.org/2000/svg" xmlns:xlink="http://www.w3.org/1999/xlink" x="0px" y="0px"
	 viewBox="0 0 24 24" style="enable-background:new 0 0 24 24;" xml:space="preserve">
<title>expand-full</title>
<g>
	<path d="M0.75,8.998C0.336,8.998,0,8.662,0,8.248v-6c0-1.241,1.009-2.25,2.25-2.25h6C8.664-0.002,9,0.334,9,0.748
		s-0.336,0.75-0.75,0.75h-6c-0.414,0-0.75,0.336-0.75,0.75v6C1.5,8.662,1.164,8.998,0.75,8.998z"/>
	<path d="M23.25,8.998c-0.414,0-0.75-0.336-0.75-0.75v-6c0-0.414-0.336-0.75-0.75-0.75h-6c-0.414,0-0.75-0.336-0.75-0.75
		s0.336-0.75,0.75-0.75h6c1.241,0,2.25,1.009,2.25,2.25v6C24,8.662,23.664,8.998,23.25,8.998z"/>
	<path d="M2.25,23.998c-1.241,0-2.25-1.009-2.25-2.25v-6c0-0.414,0.336-0.75,0.75-0.75s0.75,0.336,0.75,0.75v6
		c0,0.414,0.336,0.75,0.75,0.75h6c0.414,0,0.75,0.336,0.75,0.75s-0.336,0.75-0.75,0.75H2.25z"/>
	<path d="M15.75,23.998c-0.414,0-0.75-0.336-0.75-0.75s0.336-0.75,0.75-0.75h6c0.414,0,0.75-0.336,0.75-0.75v-6
		c0-0.414,0.336-0.75,0.75-0.75S24,15.334,24,15.748v6c0,1.241-1.009,2.25-2.25,2.25H15.75z"/>
	<path d="M6.75,19.498c-1.241,0-2.25-1.009-2.25-2.25v-10.5c0-1.241,1.009-2.25,2.25-2.25h10.5c1.241,0,2.25,1.009,2.25,2.25v10.5
		c0,1.241-1.009,2.25-2.25,2.25H6.75z M6.75,5.998C6.336,5.998,6,6.334,6,6.748v10.5c0,0.414,0.336,0.75,0.75,0.75h10.5
		c0.414,0,0.75-0.336,0.75-0.75v-10.5c0-0.414-0.336-0.75-0.75-0.75H6.75z"/>
</g>
</svg>
