<?xml version="1.0" encoding="utf-8"?>
<!-- Generator: Adobe Illustrator 22.1.0, SVG Export Plug-In . SVG Version: 6.00 Build 0)  -->
<svg version="1.1" id="Regular" xmlns="http://www.w3.org/2000/svg" xmlns:xlink="http://www.w3.org/1999/xlink" x="0px" y="0px"
	 viewBox="0 0 24 24" style="enable-background:new 0 0 24 24;" xml:space="preserve">
<title>single-neutral-actions-cart</title>
<g>
	<path d="M7.5,9.75c-2.688,0-4.875-2.187-4.875-4.875S4.812,0,7.5,0s4.875,2.187,4.875,4.875S10.188,9.75,7.5,9.75z M7.5,1.5
		c-1.861,0-3.375,1.514-3.375,3.375S5.639,8.25,7.5,8.25s3.375-1.514,3.375-3.375S9.361,1.5,7.5,1.5z"/>
	<path d="M0.75,18C0.337,18,0,17.664,0,17.25c0-4.135,3.365-7.5,7.5-7.5c1.162,0,2.315,0.273,3.345,0.791
		c0.37,0.186,0.519,0.637,0.333,1.007c-0.128,0.255-0.385,0.413-0.671,0.413l0,0c-0.116,0-0.232-0.027-0.336-0.079
		C9.35,11.468,8.43,11.25,7.51,11.25c-3.318,0-6.01,2.692-6.01,6C1.5,17.664,1.164,18,0.75,18z"/>
	<path d="M14.357,21c-0.601-0.001-1.142-0.357-1.379-0.909l-1.624-4.539c-0.142-0.325-0.145-0.736,0.002-1.103
		c0.148-0.372,0.432-0.664,0.8-0.822c0.185-0.08,0.385-0.122,0.577-0.122c0.002,0,9.172,0,9.172,0l0.641-1.761
		c0.107-0.295,0.39-0.494,0.705-0.494c0.087,0,0.174,0.015,0.256,0.045c0.188,0.068,0.339,0.206,0.423,0.388
		c0.084,0.182,0.094,0.385,0.025,0.573l-0.806,2.218c-0.008,0.026-0.017,0.051-0.028,0.075l-1.987,5.463
		c-0.213,0.586-0.775,0.983-1.399,0.988c-0.001,0-0.002,0-0.003,0H14.357z M19.729,19.5l1.631-4.495h-8.612l1.609,4.492L19.729,19.5
		z"/>
	<circle cx="15.375" cy="22.875" r="1.125"/>
	<circle cx="19.125" cy="22.875" r="1.125"/>
</g>
</svg>
