<?xml version="1.0" encoding="utf-8"?>
<!-- Generator: Adobe Illustrator 22.1.0, SVG Export Plug-In . SVG Version: 6.00 Build 0)  -->
<svg version="1.1" id="Regular" xmlns="http://www.w3.org/2000/svg" xmlns:xlink="http://www.w3.org/1999/xlink" x="0px" y="0px"
	 viewBox="0 0 24 24" style="enable-background:new 0 0 24 24;" xml:space="preserve">
<title>single-neutral-actions-heart</title>
<g>
	<path d="M0.751,18c-0.413,0-0.75-0.337-0.75-0.75c0.003-4.134,3.369-7.498,7.503-7.498c1.02,0.001,2.008,0.203,2.941,0.6
		c0.184,0.078,0.327,0.224,0.402,0.41c0.075,0.186,0.073,0.39-0.006,0.574c-0.118,0.277-0.389,0.456-0.69,0.456c0,0,0,0,0,0
		c-0.102,0-0.201-0.02-0.294-0.06c-0.747-0.318-1.537-0.48-2.349-0.48c-1.606,0-3.112,0.623-4.246,1.755
		c-1.135,1.133-1.76,2.64-1.761,4.243C1.501,17.664,1.165,18,0.751,18C0.751,18,0.751,18,0.751,18z"/>
	<path d="M7.501,9.75c-2.688,0-4.875-2.187-4.875-4.875S4.813,0,7.501,0s4.875,2.187,4.875,4.875S10.189,9.75,7.501,9.75z
		 M7.501,1.5c-1.861,0-3.375,1.514-3.375,3.375S5.64,8.25,7.501,8.25s3.375-1.514,3.375-3.375S9.362,1.5,7.501,1.5z"/>
	<path d="M17.251,24c-0.203,0-0.4-0.084-0.541-0.231l-5.114-5.335c-1.142-1.142-1.424-2.891-0.696-4.346
		C11.543,12.8,12.84,12,14.282,12c0.588,0,1.155,0.134,1.683,0.398c0.364,0.182,0.694,0.42,0.981,0.707l0.305,0.305l0.305-0.305
		c0.712-0.712,1.66-1.104,2.669-1.104c1.009,0,1.957,0.392,2.669,1.104c0.288,0.289,0.526,0.619,0.708,0.982
		c0.727,1.455,0.443,3.206-0.706,4.357l-5.103,5.324C17.652,23.916,17.454,24,17.251,24z M14.281,13.5
		c-0.87,0-1.652,0.482-2.04,1.258c-0.439,0.877-0.267,1.933,0.426,2.626l4.584,4.781l4.573-4.77c0.702-0.703,0.875-1.76,0.437-2.637
		c-0.109-0.219-0.253-0.418-0.427-0.593c-0.428-0.429-1-0.665-1.608-0.665c-0.609,0-1.18,0.236-1.609,0.665l-0.835,0.835
		c-0.142,0.142-0.33,0.22-0.53,0.22s-0.389-0.078-0.53-0.22l-0.835-0.835c-0.173-0.173-0.372-0.316-0.591-0.426
		C14.976,13.581,14.635,13.5,14.281,13.5z"/>
</g>
</svg>
