<?xml version="1.0" encoding="utf-8"?>
<!-- Generator: Adobe Illustrator 22.1.0, SVG Export Plug-In . SVG Version: 6.00 Build 0)  -->
<svg version="1.1" id="Regular" xmlns="http://www.w3.org/2000/svg" xmlns:xlink="http://www.w3.org/1999/xlink" x="0px" y="0px"
	 viewBox="0 0 24 24" style="enable-background:new 0 0 24 24;" xml:space="preserve">
<title>single-neutral-actions-flag</title>
<g>
	<path d="M7.5,9.75c-2.688,0-4.875-2.187-4.875-4.875S4.812,0,7.5,0s4.875,2.187,4.875,4.875S10.188,9.75,7.5,9.75z M7.5,1.5
		c-1.861,0-3.375,1.514-3.375,3.375S5.639,8.25,7.5,8.25s3.375-1.514,3.375-3.375S9.361,1.5,7.5,1.5z"/>
	<path d="M0.75,18.004c-0.412,0-0.749-0.335-0.75-0.748c-0.005-1.508,0.438-2.965,1.283-4.215c1.119-1.656,2.815-2.776,4.777-3.156
		c0.474-0.092,0.957-0.138,1.436-0.138c1.487,0,2.93,0.444,4.174,1.285c0.166,0.112,0.278,0.282,0.316,0.479
		c0.038,0.197-0.003,0.396-0.115,0.562c-0.139,0.207-0.372,0.33-0.622,0.33l0,0c-0.15,0-0.295-0.045-0.42-0.129
		c-0.994-0.672-2.148-1.027-3.336-1.027c-0.383,0-0.769,0.037-1.149,0.111c-1.568,0.303-2.925,1.199-3.82,2.523
		c-0.675,0.999-1.03,2.164-1.026,3.37c0.001,0.2-0.077,0.389-0.218,0.531c-0.141,0.142-0.329,0.221-0.529,0.221
		C0.752,18.004,0.75,18.004,0.75,18.004z"/>
	<path d="M14.25,24c-0.414,0-0.75-0.336-0.75-0.75v-10.5c0-0.414,0.336-0.75,0.75-0.75h9c0.414,0,0.75,0.336,0.75,0.75v6
		c0,0.414-0.336,0.75-0.75,0.75H15v3.75C15,23.664,14.664,24,14.25,24z M22.5,18v-4.5H15V18H22.5z"/>
</g>
</svg>
