<?xml version="1.0" encoding="utf-8"?>
<!-- Generator: Adobe Illustrator 22.1.0, SVG Export Plug-In . SVG Version: 6.00 Build 0)  -->
<svg version="1.1" id="Regular" xmlns="http://www.w3.org/2000/svg" xmlns:xlink="http://www.w3.org/1999/xlink" x="0px" y="0px"
	 viewBox="0 0 24 24" style="enable-background:new 0 0 24 24;" xml:space="preserve">
<title>single-neutral-actions-player</title>
<g>
	<path d="M7.5,9.75c-2.688,0-4.875-2.187-4.875-4.875S4.812,0,7.5,0s4.875,2.187,4.875,4.875S10.188,9.75,7.5,9.75z M7.5,1.5
		c-1.861,0-3.375,1.514-3.375,3.375S5.639,8.25,7.5,8.25s3.375-1.514,3.375-3.375S9.361,1.5,7.5,1.5z"/>
	<path d="M0.75,18C0.336,18,0,17.664,0,17.25c0-4.135,3.365-7.5,7.5-7.5c0.277,0,0.557,0.015,0.832,0.045
		c0.411,0.045,0.709,0.417,0.664,0.827c-0.042,0.381-0.363,0.668-0.746,0.668l0,0c-0.027,0-0.054-0.001-0.081-0.004
		C7.947,11.262,7.723,11.25,7.5,11.25c-3.308,0-6,2.692-6,6C1.5,17.664,1.164,18,0.75,18z"/>
	<path d="M12.75,24c-1.241,0-2.25-1.009-2.25-2.25v-9c0-1.241,1.009-2.25,2.25-2.25h9c1.241,0,2.25,1.009,2.25,2.25v9
		c0,1.241-1.009,2.25-2.25,2.25H12.75z M12.75,12C12.336,12,12,12.336,12,12.75v9c0,0.414,0.336,0.75,0.75,0.75h9
		c0.414,0,0.75-0.336,0.75-0.75v-9c0-0.414-0.336-0.75-0.75-0.75H12.75z"/>
	<path d="M16.18,20.25c-0.411,0-0.798-0.218-1.01-0.568c-0.113-0.188-0.171-0.399-0.17-0.614L15,15.43
		c0-0.65,0.529-1.179,1.179-1.18c0.214,0,0.425,0.058,0.608,0.168l3.033,1.82c0.269,0.16,0.46,0.417,0.537,0.723
		c0.077,0.305,0.031,0.622-0.13,0.893c-0.1,0.167-0.241,0.309-0.409,0.409l-3.032,1.819C16.604,20.191,16.394,20.25,16.18,20.25z
		 M16.499,18.504l2.091-1.254l-2.09-1.254L16.499,18.504z"/>
</g>
</svg>
