<svg xmlns="http://www.w3.org/2000/svg" viewBox="0 0 24 24"><defs><style>.a{fill:none;stroke:currentColor;stroke-linecap:round;stroke-linejoin:round;}</style></defs><title>microphone-podcast-laptop</title><path class="a" d="M2.5,10.5V2A1.5,1.5,0,0,1,4,.5H16A1.5,1.5,0,0,1,17.5,2V4.5"/><path class="a" d="M16.5,14.5h1.89a1.113,1.113,0,0,0,1.023-.678"/><path class="a" d="M9.5,10.5h-7L.743,12.7a1.111,1.111,0,0,0,.867,1.8H14.5"/><line class="a" x1="16.5" y1="10.814" x2="16.5" y2="23.5"/><path class="a" d="M21.622,11.378l1.4.465a.692.692,0,0,1,.475.657.81.81,0,0,1-.447.724l-1.106.552a.81.81,0,0,0,0,1.448l1.106.552a.81.81,0,0,1,.447.724,1.207,1.207,0,0,1-.354.854L22.5,18"/><line class="a" x1="11.5" y1="23.5" x2="16.5" y2="17.5"/><line class="a" x1="21.5" y1="23.5" x2="16.5" y2="17.5"/><path class="a" d="M21.108,10a1.086,1.086,0,0,1-.818,2L15.5,10.5l1.133-2.778Z"/><path class="a" d="M16.633,7.722c.378-.926-.573-1.854-1.285-2.144a3,3,0,1,0-2.266,5.555c.711.291,2.04.293,2.418-.633Z"/><line class="a" x1="9.5" y1="12.5" x2="10.5" y2="12.5"/></svg>