<svg xmlns="http://www.w3.org/2000/svg" viewBox="0 0 24 24"><defs><style>.a{fill:none;stroke:currentColor;stroke-linecap:round;stroke-linejoin:round;}</style></defs><title>floppy-disk-2</title><path class="a" d="M23.5,1.5a1,1,0,0,0-1-1H3.914a1,1,0,0,0-.707.293L.793,3.207A1,1,0,0,0,.5,3.914V22.5a1,1,0,0,0,1,1h21a1,1,0,0,0,1-1Z"/><path class="a" d="M19.5,6.5a1,1,0,0,1-1,1H5.5a1,1,0,0,1-1-1V.5h15Z"/><path class="a" d="M4.5,23.5h15v-3a1,1,0,0,0-1-1H5.5a1,1,0,0,0-1,1Z"/><circle class="a" cx="12" cy="13.5" r="3"/></svg>