<svg xmlns="http://www.w3.org/2000/svg" viewBox="0 0 24 24"><defs><style>.a{fill:none;stroke:currentColor;stroke-linecap:round;stroke-linejoin:round;}</style></defs><title>microphone-off</title><path class="a" d="M14.414,18.188A6,6,0,0,1,6.5,12.5V10"/><path class="a" d="M7.044,4A6,6,0,0,1,18.5,6.5v6a5.968,5.968,0,0,1-.545,2.5"/><path class="a" d="M19.46,16.492A8.062,8.062,0,0,0,20.5,12.5v-2"/><path class="a" d="M4.5,10.5v2a7.93,7.93,0,0,0,8,8,8.053,8.053,0,0,0,3.977-1.032"/><line class="a" x1="12.5" y1="20.5" x2="12.5" y2="23.5"/><line class="a" x1="1" y1="1" x2="23" y2="23"/></svg>