<svg xmlns="http://www.w3.org/2000/svg" viewBox="0 0 24 24"><defs><style>.a{fill:none;stroke:currentColor;stroke-linecap:round;stroke-linejoin:round;}</style></defs><title>microphone-2</title><line class="a" x1="8" y1="6.5" x2="8" y2="10.5"/><path class="a" d="M16,4.5v-2a2,2,0,0,0-2-2H10a2,2,0,0,0-2,2v2"/><line class="a" x1="16" y1="10.5" x2="16" y2="6.5"/><path class="a" d="M16,6.5a1,1,0,0,0,0-2H8a1,1,0,0,0,0,2h3v4H8a1,1,0,0,0-1,1v4a1,1,0,0,0,1,1h8a1,1,0,0,0,1-1v-4a1,1,0,0,0-1-1H13v-4Z"/><line class="a" x1="12" y1="21.5" x2="12" y2="23.5"/><path class="a" d="M13.3,18.5l-.2,2a1.106,1.106,0,0,1-2.2,0l-.2-2"/><path class="a" d="M14.8,18.1a1,1,0,0,1-.8.4H10a1,1,0,0,1-.8-.4L8,16.5h8Z"/></svg>