<svg id="Regular" xmlns="http://www.w3.org/2000/svg" viewBox="0 0 24 24"><defs><style>.cls-1{fill:none;stroke:currentColor;stroke-linecap:round;stroke-linejoin:round;stroke-width:1.5px;}</style></defs><title>multiple-actions-alarm</title><path class="cls-1" d="M10.782,10.513A6.052,6.052,0,0,0,6.75,9a6,6,0,0,0-6,5.25"/><circle class="cls-1" cx="6.75" cy="4.125" r="3.375"/><circle class="cls-1" cx="16.5" cy="3.375" r="2.625"/><path class="cls-1" d="M20.4,9a4.5,4.5,0,0,0-7.285-.71"/><path class="cls-1" d="M18,12a3.75,3.75,0,0,1,3.75,3.75v3a1.5,1.5,0,0,0,1.5,1.5H12.75a1.5,1.5,0,0,0,1.5-1.5v-3A3.75,3.75,0,0,1,18,12Z"/><path class="cls-1" d="M18,22.5a.375.375,0,1,1-.375.375A.375.375,0,0,1,18,22.5"/></svg>