<svg id="Regular" xmlns="http://www.w3.org/2000/svg" viewBox="0 0 24 24"><defs><style>.cls-1{fill:none;stroke:currentColor;stroke-linecap:round;stroke-linejoin:round;stroke-width:1.5px;}</style></defs><title>multiple-actions-flight</title><path class="cls-1" d="M10.784,10.513A6.05,6.05,0,0,0,6.752,9a6,6,0,0,0-6,5.25"/><circle class="cls-1" cx="6.752" cy="4.125" r="3.375"/><circle class="cls-1" cx="16.502" cy="3.375" r="2.625"/><path class="cls-1" d="M20.4,9a4.5,4.5,0,0,0-7.285-.71"/><path class="cls-1" d="M21.872,13.623a1.756,1.756,0,0,1,1,.633,1.8,1.8,0,0,1-.447,2.6l-10.142,6.3a.624.624,0,0,1-.688-.02l-3.718-2.61a.343.343,0,0,1-.052-.483c.017-.022,1.619-1.434,1.619-1.434a.342.342,0,0,1,.331-.057l1.956,1.165,2.48-1.73-4.7-2.91a.427.427,0,0,1-.048-.6c.02-.024,1.217-.916,1.217-.916a.425.425,0,0,1,.4-.057l6.477,2.411,3-2.045A1.671,1.671,0,0,1,21.872,13.623Z"/></svg>