<svg xmlns="http://www.w3.org/2000/svg" viewBox="0 0 24 24"><title>loading-2</title><path d="M5.661,20.709a.855.855,0,0,0,.716-.482l2-3.461a1.2,1.2,0,0,0,0-1.116h0L7.026,13.307a1.214,1.214,0,0,0-.966-.559H2.07a.852.852,0,0,0-.776.38.853.853,0,0,0,.058.861l3.592,6.237A.854.854,0,0,0,5.661,20.709Z"/><path d="M4.944,3.77,1.352,10.007a.855.855,0,0,0-.058.862.854.854,0,0,0,.776.379H6.06a1.215,1.215,0,0,0,.966-.558L8.377,8.346a1.2,1.2,0,0,0,0-1.116l-2-3.461A.788.788,0,0,0,4.944,3.77Z"/><path d="M15.6,1.778H8.4a.854.854,0,0,0-.776.379.855.855,0,0,0,.06.862l2,3.461a1.2,1.2,0,0,0,.966.558h2.7a1.2,1.2,0,0,0,.966-.558l2-3.461a.855.855,0,0,0,.06-.862A.854.854,0,0,0,15.6,1.778Z"/><path d="M18.339,3.287a.852.852,0,0,0-.715.482l-2,3.462a1.2,1.2,0,0,0,0,1.115l1.351,2.343a1.214,1.214,0,0,0,.966.559h3.99a.774.774,0,0,0,.717-1.242h0L19.056,3.77A.854.854,0,0,0,18.339,3.287Z"/><path d="M18.339,20.709a.854.854,0,0,0,.717-.483l3.591-6.237a.774.774,0,0,0-.717-1.241H17.94a1.215,1.215,0,0,0-.966.558l-1.35,2.344a1.2,1.2,0,0,0,0,1.116l2,3.461A.852.852,0,0,0,18.339,20.709Z"/><path d="M13.35,16.958h-2.7a1.2,1.2,0,0,0-.966.558l-2,3.461A.773.773,0,0,0,8.4,22.218h7.2a.773.773,0,0,0,.716-1.241l-2-3.461A1.2,1.2,0,0,0,13.35,16.958Z"/></svg>