<?xml version="1.0" encoding="utf-8"?>
<!-- Generator: Adobe Illustrator 22.1.0, SVG Export Plug-In . SVG Version: 6.00 Build 0)  -->
<svg version="1.1" id="Layer_1" xmlns="http://www.w3.org/2000/svg" xmlns:xlink="http://www.w3.org/1999/xlink" x="0px" y="0px"
	 viewBox="0 0 24 24" style="enable-background:new 0 0 24 24;" xml:space="preserve">
<title>face-id-9</title>
<g>
	<path d="M12,15c-2.275,0-4.125-1.851-4.125-4.125C7.875,8.6,9.725,6.75,12,6.75c2.274,0,4.125,1.85,4.125,4.125
		C16.125,13.149,14.274,15,12,15z M12,8.25c-1.447,0-2.625,1.178-2.625,2.625c0,1.448,1.178,2.625,2.625,2.625
		c1.448,0,2.625-1.177,2.625-2.625C14.625,9.428,13.448,8.25,12,8.25z"/>
	<path d="M12,2.25c-0.414,0-0.75-0.336-0.75-0.75V0.75C11.25,0.336,11.586,0,12,0s0.75,0.336,0.75,0.75V1.5
		C12.75,1.914,12.414,2.25,12,2.25z"/>
	<path d="M19.425,5.325c-0.2,0-0.389-0.078-0.53-0.22c-0.142-0.141-0.22-0.33-0.22-0.53s0.078-0.389,0.22-0.53l0.817-0.817
		c0.142-0.142,0.33-0.22,0.53-0.22s0.389,0.078,0.53,0.22c0.142,0.141,0.22,0.33,0.22,0.53s-0.078,0.389-0.22,0.53l-0.817,0.817
		C19.814,5.247,19.625,5.325,19.425,5.325z"/>
	<path d="M22.5,12.75c-0.414,0-0.75-0.336-0.75-0.75s0.336-0.75,0.75-0.75h0.75c0.414,0,0.75,0.336,0.75,0.75s-0.336,0.75-0.75,0.75
		H22.5z"/>
	<path d="M19.955,20.705c-0.2,0-0.389-0.078-0.53-0.22l-0.53-0.53c-0.292-0.292-0.292-0.768,0-1.061
		c0.142-0.142,0.33-0.22,0.53-0.22s0.389,0.078,0.53,0.22l0.53,0.53c0.142,0.142,0.22,0.33,0.22,0.53s-0.078,0.389-0.22,0.53
		S20.155,20.705,19.955,20.705z"/>
	<path d="M12,24c-0.414,0-0.75-0.336-0.75-0.75V22.5c0-0.414,0.336-0.75,0.75-0.75s0.75,0.336,0.75,0.75v0.75
		C12.75,23.664,12.414,24,12,24z"/>
	<path d="M4.045,20.705c-0.2,0-0.389-0.078-0.53-0.22c-0.292-0.292-0.292-0.768,0-1.061l0.53-0.53c0.141-0.142,0.33-0.22,0.53-0.22
		s0.389,0.078,0.53,0.22c0.292,0.292,0.292,0.768,0,1.061l-0.53,0.53C4.434,20.627,4.246,20.705,4.045,20.705z"/>
	<path d="M0.75,12.75C0.336,12.75,0,12.414,0,12s0.336-0.75,0.75-0.75H1.5c0.414,0,0.75,0.336,0.75,0.75s-0.336,0.75-0.75,0.75H0.75
		z"/>
	<path d="M4.575,5.325c-0.2,0-0.389-0.078-0.53-0.22l-0.53-0.53c-0.142-0.141-0.22-0.33-0.22-0.53s0.078-0.389,0.22-0.53
		c0.141-0.142,0.33-0.22,0.53-0.22s0.389,0.078,0.53,0.22l0.53,0.53c0.142,0.141,0.22,0.33,0.22,0.53s-0.078,0.389-0.22,0.53
		C4.964,5.247,4.775,5.325,4.575,5.325z"/>
	<path d="M12,21c-1.995,0-3.886-0.643-5.47-1.86c-0.005-0.003-0.011-0.006-0.015-0.009c-0.044-0.028-0.083-0.06-0.12-0.097
		C4.237,17.311,3,14.749,3,12c0-4.963,4.037-9,9-9s9,4.037,9,9c0,2.749-1.237,5.311-3.394,7.033
		c-0.037,0.037-0.075,0.068-0.116,0.094c-0.006,0.004-0.013,0.008-0.021,0.012C15.885,20.357,13.995,21,12,21z M7.991,18.333
		C9.192,19.098,10.57,19.5,12,19.5c1.432,0,2.812-0.403,4.014-1.169c-1.002-1.152-2.479-1.83-4.024-1.83
		c-1.03,0-2.031,0.298-2.895,0.862C8.687,17.629,8.317,17.955,7.991,18.333z M12,4.5c-4.135,0-7.5,3.365-7.5,7.5
		c0,2.044,0.838,3.993,2.311,5.407c0.428-0.508,0.92-0.944,1.464-1.3c1.108-0.724,2.393-1.106,3.714-1.106
		c2.003,0,3.919,0.891,5.205,2.402C18.664,15.989,19.5,14.041,19.5,12C19.5,7.865,16.135,4.5,12,4.5z"/>
</g>
</svg>
