<?xml version="1.0" encoding="utf-8"?>
<!-- Generator: Adobe Illustrator 22.1.0, SVG Export Plug-In . SVG Version: 6.00 Build 0)  -->
<svg version="1.1" id="Layer_1" xmlns="http://www.w3.org/2000/svg" xmlns:xlink="http://www.w3.org/1999/xlink" x="0px" y="0px"
	 viewBox="0 0 24 24" style="enable-background:new 0 0 24 24;" xml:space="preserve">
<title>face-id-3</title>
<g>
	<path d="M18.75,24C18.336,24,18,23.664,18,23.25s0.336-0.75,0.75-0.75h3c0.414,0,0.75-0.336,0.75-0.75v-3
		c0-0.414,0.336-0.75,0.75-0.75S24,18.336,24,18.75v3c0,1.241-1.009,2.25-2.25,2.25H18.75z"/>
	<path d="M23.25,6c-0.414,0-0.75-0.336-0.75-0.75v-3c0-0.414-0.336-0.75-0.75-0.75h-3C18.336,1.5,18,1.164,18,0.75S18.336,0,18.75,0
		h3C22.991,0,24,1.009,24,2.25v3C24,5.664,23.664,6,23.25,6z"/>
	<path d="M0.75,6C0.336,6,0,5.664,0,5.25v-3C0,1.009,1.009,0,2.25,0h3C5.664,0,6,0.336,6,0.75S5.664,1.5,5.25,1.5h-3
		C1.836,1.5,1.5,1.836,1.5,2.25v3C1.5,5.664,1.164,6,0.75,6z"/>
	<path d="M2.25,24C1.009,24,0,22.991,0,21.75v-3C0,18.336,0.336,18,0.75,18s0.75,0.336,0.75,0.75v3c0,0.414,0.336,0.75,0.75,0.75h3
		C5.664,22.5,6,22.836,6,23.25S5.664,24,5.25,24H2.25z"/>
	<path d="M7.081,21c-2.068,0-3.75-1.682-3.75-3.75l0.008-7.084C3.337,7.857,4.238,5.683,5.874,4.044s3.81-2.542,6.12-2.544
		c4.779,0,8.667,3.885,8.667,8.661l0.008,7.083c0,2.069-1.682,3.751-3.75,3.751H15c-0.414,0-0.75-0.336-0.75-0.75
		s0.336-0.75,0.75-0.75h1.919c1.241,0,2.25-1.009,2.25-2.25l-0.008-7.082C19.161,6.213,15.948,3,12,3
		c-1.912,0.001-3.71,0.749-5.064,2.104c-1.354,1.355-2.098,3.153-2.097,5.063l-0.008,7.084c0,1.24,1.009,2.249,2.25,2.249H9
		c0.414,0,0.75,0.336,0.75,0.75S9.414,21,9,21H7.081z"/>
	<path d="M11.985,18.279c-1.437,0-2.788-0.56-3.804-1.576c-1.016-1.016-1.575-2.367-1.574-3.803v-2.516
		c0-0.36,0.257-0.671,0.612-0.737c2.906-0.546,4.065-3.595,4.076-3.626c0.102-0.283,0.364-0.472,0.682-0.493
		c0.008-0.001,0.026-0.001,0.026-0.001c0.316,0.001,0.599,0.203,0.704,0.5c0.01,0.028,1.148,3.074,4.046,3.619
		c0.354,0.067,0.611,0.377,0.611,0.737V12.9c0,2.938-2.386,5.347-5.321,5.377C12.024,18.278,12.005,18.279,11.985,18.279
		C11.985,18.279,11.985,18.279,11.985,18.279z M8.107,12.9c0,1.036,0.403,2.01,1.135,2.743c0.721,0.721,1.678,1.125,2.697,1.136
		c0.016-0.001,0.032-0.001,0.048-0.001c2.138,0,3.877-1.739,3.878-3.877v-1.925c-1.968-0.576-3.191-1.981-3.869-3.054
		c-0.685,1.073-1.917,2.479-3.889,3.055V12.9z"/>
	<path d="M11.25,15.277c-0.414,0-0.75-0.336-0.75-0.75s0.336-0.75,0.75-0.75h1.5c0.414,0,0.75,0.336,0.75,0.75
		s-0.336,0.75-0.75,0.75H11.25z"/>
</g>
</svg>
