<?xml version="1.0" encoding="utf-8"?>
<!-- Generator: Adobe Illustrator 22.1.0, SVG Export Plug-In . SVG Version: 6.00 Build 0)  -->
<svg version="1.1" id="Layer_1" xmlns="http://www.w3.org/2000/svg" xmlns:xlink="http://www.w3.org/1999/xlink" x="0px" y="0px"
	 viewBox="0 0 24 24" style="enable-background:new 0 0 24 24;" xml:space="preserve">
<title>face-id-scan</title>
<g>
	<path d="M12,24c-2.506,0-4.91-0.771-6.953-2.229c-0.062-0.032-0.119-0.073-0.17-0.122c-2.569-1.901-4.3-4.792-4.753-7.934
		c-0.003-0.017-0.005-0.032-0.006-0.047C0.04,13.106,0,12.545,0,12C0,5.383,5.383,0,12,0c6.617,0,12,5.383,12,12
		c0,0.541-0.039,1.098-0.117,1.655c-0.002,0.032-0.006,0.064-0.013,0.096c-0.46,3.128-2.189,6.004-4.747,7.898
		c-0.05,0.048-0.107,0.089-0.17,0.122C16.91,23.229,14.507,24,12,24z M12.75,22.47c1.786-0.127,3.501-0.707,4.998-1.69
		c-0.682-2.288-2.636-3.937-4.998-4.231V22.47z M6.255,20.782c1.496,0.982,3.21,1.561,4.995,1.688v-5.922
		c-0.165,0.021-0.329,0.049-0.492,0.083C8.623,17.083,6.881,18.698,6.255,20.782z M1.68,13.931c0.424,2.271,1.59,4.336,3.318,5.884
		c0.906-2.364,2.95-4.123,5.45-4.652c0.262-0.055,0.531-0.097,0.802-0.125v-0.101c-1.02-0.158-1.967-0.635-2.697-1.365
		c-0.142-0.141-0.22-0.33-0.22-0.53s0.078-0.389,0.219-0.531c0.142-0.142,0.33-0.22,0.531-0.22c0.2,0,0.389,0.078,0.53,0.22
		c0.449,0.449,1.02,0.761,1.637,0.902v-2.908c-1.054,0.046-2.105,0.19-3.132,0.428c-0.046,0.016-0.094,0.027-0.142,0.033
		C5.691,11.517,3.574,12.514,1.68,13.931z M12.75,15.037c1.185,0.118,2.334,0.522,3.343,1.179c1.329,0.865,2.347,2.129,2.91,3.598
		c1.728-1.549,2.893-3.613,3.317-5.884c-1.894-1.417-4.01-2.413-6.293-2.963c-0.051-0.007-0.1-0.018-0.146-0.034
		c-1.026-0.238-2.077-0.381-3.13-0.427v2.908c0.617-0.14,1.188-0.453,1.637-0.902c0.142-0.142,0.33-0.22,0.53-0.22
		s0.389,0.078,0.53,0.22s0.22,0.33,0.22,0.53c0,0.201-0.078,0.389-0.22,0.531c-0.73,0.73-1.677,1.207-2.697,1.365V15.037z
		 M11.25,1.53C5.752,1.914,1.5,6.441,1.5,12c0,0.07,0.001,0.142,0.003,0.215c1.739-1.179,3.636-2.049,5.653-2.59
		c0.111-1.073,0.575-2.08,1.322-2.861c0.741-0.775,1.715-1.279,2.772-1.442V1.53z M16.844,9.624c2.017,0.541,3.915,1.411,5.654,2.59
		C22.499,12.142,22.5,12.07,22.5,12c0-5.559-4.252-10.086-9.75-10.47v3.789C14.92,5.659,16.613,7.435,16.844,9.624z M11.25,6.845
		c-0.645,0.144-1.223,0.469-1.688,0.956C9.161,8.22,8.881,8.722,8.738,9.272c0.823-0.145,1.664-0.235,2.512-0.269V6.845z
		 M12.75,9.004c0.848,0.034,1.689,0.124,2.51,0.268c-0.319-1.205-1.291-2.149-2.51-2.427V9.004z"/>
</g>
</svg>
