<?xml version="1.0" encoding="utf-8"?>
<!-- Generator: Adobe Illustrator 22.1.0, SVG Export Plug-In . SVG Version: 6.00 Build 0)  -->
<svg version="1.1" id="Layer_1" xmlns="http://www.w3.org/2000/svg" xmlns:xlink="http://www.w3.org/1999/xlink" x="0px" y="0px"
	 viewBox="0 0 24 24" style="enable-background:new 0 0 24 24;" xml:space="preserve">
<title>face-id-scan-1</title>
<g>
	<path d="M10.994,18.012c-0.414,0-0.75-0.336-0.75-0.75v-2.277c0-0.221,0.097-0.43,0.266-0.573c0.135-0.115,0.308-0.177,0.485-0.177
		c0.041,0,0.082,0.003,0.123,0.01l0.765,0.128c0.084,0.014,0.17,0.021,0.254,0.021c0.317,0,0.622-0.098,0.883-0.285
		c0.332-0.237,0.551-0.589,0.618-0.991c0.014-0.083,0.021-0.168,0.021-0.252v-1.866c0-0.345,0.234-0.644,0.568-0.728l0.71-0.177
		c0.1-0.025,0.185-0.088,0.238-0.177c0.053-0.089,0.069-0.193,0.043-0.294c-0.011-0.044-0.029-0.084-0.053-0.12l-1.381-2.071
		c-0.083-0.124-0.126-0.268-0.126-0.416V6.45c0-1.237-0.552-2.422-1.554-3.336c-1.14-1.04-2.698-1.613-4.387-1.613
		c-0.228,0-0.459,0.011-0.688,0.032c-1.615,0.146-3.076,0.913-4.117,2.16S1.377,6.515,1.523,8.128
		c0.177,1.967,1.305,3.731,3.017,4.717c0.232,0.133,0.375,0.382,0.375,0.65v3.767c0,0.414-0.336,0.75-0.75,0.75
		s-0.75-0.336-0.75-0.75v-3.349c-1.919-1.261-3.18-3.358-3.386-5.651c-0.375-4.159,2.704-7.849,6.863-8.224
		c0.273-0.025,0.549-0.038,0.822-0.038c2.065,0,3.983,0.712,5.401,2.004c1.318,1.202,2.044,2.78,2.044,4.445v0.341l1.255,1.881
		c0.12,0.18,0.208,0.379,0.26,0.589c0.122,0.488,0.047,0.995-0.212,1.429c-0.26,0.433-0.672,0.739-1.16,0.862l-0.143,0.036v1.28
		c0,0.167-0.014,0.334-0.041,0.499c-0.133,0.797-0.568,1.495-1.226,1.965c-0.517,0.369-1.123,0.564-1.753,0.564c0,0,0,0,0,0
		c-0.131,0-0.263-0.009-0.394-0.026v1.393C11.744,17.676,11.408,18.012,10.994,18.012z"/>
	<path d="M18.881,24.002c-0.295,0-0.585-0.058-0.861-0.172c-0.555-0.23-0.988-0.662-1.218-1.218c-0.23-0.555-0.23-1.167,0-1.722
		l2.87-6.929c0.231-0.556,0.665-0.988,1.22-1.218c0.275-0.114,0.564-0.171,0.858-0.171c0.297,0,0.588,0.059,0.865,0.174
		c0.555,0.231,0.987,0.664,1.217,1.22c0.229,0.556,0.228,1.167-0.003,1.723l-2.87,6.923c-0.23,0.555-0.662,0.988-1.218,1.218
		C19.467,23.944,19.177,24.002,18.881,24.002z M21.751,14.073c-0.098,0-0.194,0.019-0.286,0.057
		c-0.186,0.076-0.33,0.221-0.407,0.406l-2.87,6.928c-0.077,0.185-0.077,0.389,0,0.574c0.077,0.185,0.221,0.33,0.406,0.406
		c0.092,0.038,0.189,0.057,0.287,0.057c0.098,0,0.195-0.019,0.287-0.058c0.185-0.076,0.329-0.221,0.406-0.406l2.87-6.924
		c0.077-0.186,0.078-0.39,0.001-0.576c-0.076-0.186-0.221-0.33-0.406-0.407C21.947,14.092,21.85,14.073,21.751,14.073z"/>
	<path d="M11.817,22.912c-0.423,0-0.785-0.302-0.861-0.717c-0.087-0.468,0.224-0.925,0.692-1.016
		c0.052-0.011,0.112-0.017,0.171-0.017c0.17,0,0.335,0.05,0.479,0.145c0.195,0.128,0.328,0.325,0.375,0.554
		c0.09,0.492-0.224,0.949-0.697,1.037C11.922,22.907,11.869,22.912,11.817,22.912z"/>
	<path d="M8.878,23.499c-0.422,0-0.784-0.302-0.86-0.717c-0.087-0.468,0.224-0.925,0.692-1.016c0.054-0.011,0.113-0.017,0.171-0.017
		c0.413,0,0.772,0.295,0.854,0.7c0.091,0.492-0.225,0.949-0.699,1.036C8.984,23.494,8.931,23.499,8.878,23.499z"/>
	<path d="M14.752,22.326c-0.162,0-0.321-0.045-0.459-0.131c-0.198-0.123-0.337-0.316-0.391-0.543
		c-0.054-0.228-0.016-0.463,0.107-0.662s0.316-0.338,0.544-0.391c0.013-0.003,0.046-0.01,0.062-0.012
		c0.04-0.008,0.093-0.013,0.146-0.013c0.356,0,0.683,0.226,0.812,0.562c0.015,0.032,0.032,0.086,0.044,0.142
		c0.046,0.232-0.001,0.466-0.132,0.66c-0.129,0.191-0.324,0.322-0.549,0.369C14.878,22.32,14.815,22.326,14.752,22.326z"/>
	<path d="M19.311,8.715c-0.377,0-0.71-0.24-0.83-0.597c-0.152-0.459,0.096-0.956,0.552-1.108c0.09-0.03,0.183-0.045,0.277-0.045
		c0.376,0,0.71,0.24,0.83,0.597c0.152,0.459-0.095,0.956-0.552,1.108C19.498,8.7,19.405,8.715,19.311,8.715z"/>
	<path d="M20.252,11.563c-0.378,0-0.712-0.241-0.832-0.6c-0.147-0.46,0.102-0.955,0.554-1.106c0.01-0.003,0.019-0.006,0.029-0.008
		c0.065-0.022,0.156-0.036,0.248-0.036c0.137,0,0.274,0.033,0.397,0.095c0.209,0.107,0.363,0.288,0.435,0.51
		c0.072,0.219,0.054,0.456-0.052,0.665c-0.106,0.209-0.287,0.364-0.51,0.436C20.435,11.548,20.344,11.563,20.252,11.563z"/>
	<path d="M18.37,5.866c-0.377,0-0.71-0.24-0.83-0.597c-0.152-0.459,0.096-0.955,0.551-1.108c0.001,0,0.003-0.001,0.003-0.001
		c0.09-0.029,0.182-0.044,0.276-0.044c0.136,0,0.267,0.031,0.39,0.092c0.21,0.105,0.366,0.285,0.44,0.507
		c0.074,0.22,0.057,0.457-0.047,0.666c-0.105,0.21-0.284,0.366-0.506,0.44C18.557,5.851,18.464,5.866,18.37,5.866z"/>
</g>
</svg>
