<svg xmlns="http://www.w3.org/2000/svg" viewBox="0 0 24 24"><defs><style>.a{fill:none;stroke:currentColor;stroke-linecap:round;stroke-linejoin:round;stroke-width:1.5px;}</style></defs><title>checklist-pen</title><polyline class="a" points="8.25 4.949 5.55 8.549 3.75 6.749"/><polyline class="a" points="8.25 13.649 5.55 17.249 3.75 15.449"/><line class="a" x1="9.75" y1="8.249" x2="12.75" y2="8.249"/><line class="a" x1="9.75" y1="17.249" x2="12.75" y2="17.249"/><path class="a" d="M12.75.749H2.25a1.5,1.5,0,0,0-1.5,1.5v19.5a1.5,1.5,0,0,0,1.5,1.5h12"/><path class="a" d="M15.75,18.749a1.5,1.5,0,0,0,1.5,1.5h1.5a1.5,1.5,0,0,0,1.5-1.5V7.5h-4.5Z"/><path class="a" d="M20.25,2.249h1.5a1.5,1.5,0,0,1,1.5,1.5V10.5"/><path class="a" d="M20.25,7.5V2.249a1.5,1.5,0,0,0-1.5-1.5h-1.5a1.5,1.5,0,0,0-1.5,1.5V7.5"/><line class="a" x1="18" y1="20.249" x2="18" y2="23.249"/></svg>