<svg xmlns="http://www.w3.org/2000/svg" viewBox="0 0 24 24"><defs><style>.a{fill:none;stroke:currentColor;stroke-linecap:round;stroke-linejoin:round;stroke-width:1.5px;}</style></defs><title>paper-write</title><path class="a" d="M13.045,18.636l-3.712.53.53-3.712,9.546-9.546A2.25,2.25,0,0,1,22.591,9.09Z"/><rect class="a" x="5.25" y="0.749" width="7.5" height="3" rx="0.75" ry="0.75"/><path class="a" d="M12.75,2.249h3a1.5,1.5,0,0,1,1.5,1.5"/><path class="a" d="M17.25,18.749v3a1.5,1.5,0,0,1-1.5,1.5H2.25a1.5,1.5,0,0,1-1.5-1.5v-18a1.5,1.5,0,0,1,1.5-1.5h3"/><line class="a" x1="5.25" y1="8.249" x2="12.75" y2="8.249"/><line class="a" x1="5.25" y1="12.749" x2="8.25" y2="12.749"/></svg>