<svg xmlns="http://www.w3.org/2000/svg" viewBox="0 0 24 24"><defs><style>.a{fill:none;stroke:currentColor;stroke-linecap:round;stroke-linejoin:round;stroke-width:1.5px;}</style></defs><title>task-checklist</title><path class="a" d="M7.75,3.749h-4a1.5,1.5,0,0,0-1.5,1.5v16.5a1.5,1.5,0,0,0,1.5,1.5h16.5a1.5,1.5,0,0,0,1.5-1.5V5.249a1.5,1.5,0,0,0-1.5-1.5h-4"/><path class="a" d="M15.921,4.736a.751.751,0,0,1-.712.513H8.791a.751.751,0,0,1-.712-.513l-1-3A.749.749,0,0,1,7.791.749h8.418a.749.749,0,0,1,.712.987Z"/><path class="a" d="M18.75,6.749v9.878a1.5,1.5,0,0,1-.439,1.061l-2.122,2.121a1.5,1.5,0,0,1-1.06.44H6a.75.75,0,0,1-.75-.75V6.749"/><path class="a" d="M14.25,20.249v-3a1.5,1.5,0,0,1,1.5-1.5h3"/></svg>