<svg xmlns="http://www.w3.org/2000/svg" viewBox="0 0 24 24"><defs><style>.a{fill:none;stroke:currentColor;stroke-linecap:round;stroke-linejoin:round;stroke-width:1.5px;}</style></defs><title>folder-connect</title><path class="a" d="M1.5,18.75A1.5,1.5,0,0,0,3,20.25H4.5"/><line class="a" x1="8.25" y1="6.75" x2="12" y2="6.75"/><line class="a" x1="1.5" y1="6.75" x2="4.5" y2="6.75"/><line class="a" x1="1.5" y1="4.5" x2="1.5" y2="8.25"/><line class="a" x1="1.5" y1="12" x2="1.5" y2="15"/><line class="a" x1="12" y1="20.25" x2="8.25" y2="20.25"/><path class="a" d="M21.75,2.25h-4.5L15.97.97a.749.749,0,0,0-.53-.22H12.75A.75.75,0,0,0,12,1.5V9a.75.75,0,0,0,.75.75h9A.75.75,0,0,0,22.5,9V3A.75.75,0,0,0,21.75,2.25Z"/><path class="a" d="M21.75,15.75h-4.5l-1.28-1.28a.749.749,0,0,0-.53-.22H12.75A.75.75,0,0,0,12,15v7.5a.75.75,0,0,0,.75.75h9a.75.75,0,0,0,.75-.75v-6A.75.75,0,0,0,21.75,15.75Z"/></svg>