<svg xmlns="http://www.w3.org/2000/svg" viewBox="0 0 24 24"><defs><style>.a{fill:none;stroke:currentColor;stroke-linecap:round;stroke-linejoin:round;stroke-width:1.5px;}</style></defs><title>folder-music-1</title><path class="a" d="M21.75,9V6a1.5,1.5,0,0,0-1.5-1.5h-12V3a1.5,1.5,0,0,0-1.5-1.5H2.25A1.5,1.5,0,0,0,.75,3V20.8a1.7,1.7,0,0,0,3.336.438L6.438,10.084A1.5,1.5,0,0,1,7.879,9H21.75a1.5,1.5,0,0,1,1.45,1.886L21,21.386A1.5,1.5,0,0,1,19.55,22.5H2.447"/><circle class="a" cx="10.5" cy="18" r="1.5"/><circle class="a" cx="16.5" cy="17.25" r="1.5"/><path class="a" d="M18,17.25V13.5a1.5,1.5,0,0,0-1.863-1.455l-3,.75A1.5,1.5,0,0,0,12,14.25V18"/></svg>