<svg xmlns="http://www.w3.org/2000/svg" viewBox="0 0 24 24"><defs><style>.a{fill:none;stroke:currentColor;stroke-linecap:round;stroke-linejoin:round;stroke-width:1.5px;}</style></defs><title>folder-file-1</title><path class="a" d="M23.231,12.435a1,1,0,0,0-.979-1.193H10.424a1,1,0,0,1-.978-.8L9.168,9.051a1,1,0,0,0-.978-.8H1.747A1,1,0,0,0,.769,9.444l2.593,13a1,1,0,0,0,.978.8H20.258a1,1,0,0,0,.978-.8C21.647,20.392,22.744,14.869,23.231,12.435Z"/><path class="a" d="M4.5,5.25l.02-3.5a1,1,0,0,1,1-1H18.483a1,1,0,0,1,1,1l.02,6.5"/><line class="a" x1="7.512" y1="3.742" x2="15.75" y2="3.75"/><line class="a" x1="12" y1="6.75" x2="15.75" y2="6.75"/></svg>