<svg xmlns="http://www.w3.org/2000/svg" viewBox="0 0 24 24"><defs><style>.a{fill:none;stroke:currentColor;stroke-linecap:round;stroke-linejoin:round;stroke-width:1.5px;}</style></defs><title>folder-edit-1</title><path class="a" d="M21.75,9V6a1.5,1.5,0,0,0-1.5-1.5h-12V3a1.5,1.5,0,0,0-1.5-1.5H2.25A1.5,1.5,0,0,0,.75,3V20.8a1.7,1.7,0,0,0,3.336.438L6.438,10.084A1.5,1.5,0,0,1,7.879,9H21.75a1.5,1.5,0,0,1,1.45,1.887L21,21.387A1.5,1.5,0,0,1,19.55,22.5H2.447"/><path class="a" d="M12.3,18.994,9.774,19.5l.506-2.529,4.552-4.552a1.43,1.43,0,0,1,2.023,0h0a1.432,1.432,0,0,1,0,2.023Z"/></svg>