<svg xmlns="http://www.w3.org/2000/svg" viewBox="0 0 24 24"><title>touch-id-search</title><path d="M11.425,21.588a.248.248,0,0,0-.231-.06,7.714,7.714,0,0,1-1.919.243.743.743,0,0,0,0,1.486,9.018,9.018,0,0,0,3-.5.248.248,0,0,0,.057-.439A7.249,7.249,0,0,1,11.425,21.588Z"/><path d="M16.954,9.416v.063a.217.217,0,0,0,.189.215,6.675,6.675,0,0,1,.981.207.247.247,0,0,0,.316-.238V9.416a9.072,9.072,0,0,0-1.912-5.6.741.741,0,0,0-1.04-.138.733.733,0,0,0-.129,1.04A7.663,7.663,0,0,1,16.954,9.416Z"/><path d="M6.289,21.169A7.667,7.667,0,0,1,1.6,14.092V12.221a.744.744,0,0,0-1.487,0v1.871a9.151,9.151,0,0,0,5.6,8.445A.722.722,0,0,0,6,22.6a.743.743,0,0,0,.289-1.427Z"/><path d="M.826,9.688H.867a.743.743,0,0,0,.742-.7,7.894,7.894,0,0,1,7.666-7.5,7.952,7.952,0,0,1,3.842,1.277.741.741,0,0,0,1.015-.27,1.069,1.069,0,0,0-.27-1.264A9.161,9.161,0,0,0,9.275,0,9.38,9.38,0,0,0,.124,8.906.743.743,0,0,0,.826,9.688Z"/><path d="M14.246,9.808a.247.247,0,0,0,.213.045,6.7,6.7,0,0,1,1.01-.175.186.186,0,0,0,.167-.185V9.416A6.359,6.359,0,0,0,7.294,3.371a.74.74,0,0,0-.476.942.749.749,0,0,0,.931.475A4.705,4.705,0,0,1,9.275,4.54,4.885,4.885,0,0,1,14.15,9.416v.2A.246.246,0,0,0,14.246,9.808Z"/><path d="M5.639,6.165a.739.739,0,0,0-.049-1.05.749.749,0,0,0-1.051.06A6.334,6.334,0,0,0,2.914,9.416v4.676a6.369,6.369,0,0,0,6.361,6.361,5.817,5.817,0,0,0,.747-.045.248.248,0,0,0,.182-.371,6,6,0,0,1-.441-.918.247.247,0,0,0-.246-.16c-.081,0-.163.008-.242.008A4.884,4.884,0,0,1,4.4,14.092V9.416A4.9,4.9,0,0,1,5.639,6.165Z"/><path d="M7.214,14.092a.743.743,0,0,0-1.486,0,3.543,3.543,0,0,0,3.547,3.547.075.075,0,0,0,.058-.027.073.073,0,0,0,.017-.06,6.352,6.352,0,0,1-.075-.983c0-.079,0-.158,0-.237a.186.186,0,0,0-.17-.2A2.051,2.051,0,0,1,7.214,14.092Z"/><path d="M11.479,11.3a.247.247,0,0,0,.264-.035,7.007,7.007,0,0,1,1.033-.723.094.094,0,0,0,.046-.081V9.416a3.547,3.547,0,1,0-7.094,0v1.4a.743.743,0,0,0,1.486,0v-1.4a2.061,2.061,0,1,1,4.122,0v1.659A.248.248,0,0,0,11.479,11.3Z"/><path d="M9.577,14.3a.251.251,0,0,0,.136-.148,4.532,4.532,0,0,1,.278-.655.256.256,0,0,0,.027-.115V10.812a.743.743,0,1,0-1.486,0v2.815a.749.749,0,0,0,.743.743A.765.765,0,0,0,9.577,14.3Z"/><path d="M23.527,21.886,21.02,19.379a.248.248,0,0,1-.039-.3,5.429,5.429,0,0,0,.737-2.73,5.479,5.479,0,1,0-5.479,5.478,5.426,5.426,0,0,0,2.73-.737.25.25,0,0,1,.3.039l2.507,2.507a1.238,1.238,0,0,0,1.751-1.751Zm-7.288-2.04a3.5,3.5,0,1,1,3.5-3.5A3.5,3.5,0,0,1,16.239,19.846Z"/></svg>