<svg xmlns="http://www.w3.org/2000/svg" viewBox="0 0 24 24"><title>touch-finger</title><path d="M19.073,14.779l-5.079-1.823V7.5a2,2,0,0,0-4,0v8.461l-.826-1.138a1.545,1.545,0,0,0-1.2-.558l-.99.019a1.476,1.476,0,0,0-1.3,2.179l3.735,6.773A1.464,1.464,0,0,0,10.7,24h6.388a1.478,1.478,0,0,0,1.378-.989l1.519-6.68a.461.461,0,0,0,.013-.111A1.434,1.434,0,0,0,19.073,14.779Z"/><path d="M6.1,11.9a1,1,0,0,0,.473-1.333A5.93,5.93,0,0,1,6,8,6,6,0,0,1,18,8a5.93,5.93,0,0,1-.577,2.57A1,1,0,0,0,17.9,11.9a1.023,1.023,0,0,0,1.333-.473A7.928,7.928,0,0,0,20,8,8,8,0,0,0,4,8a7.928,7.928,0,0,0,.771,3.43A1,1,0,0,0,6.1,11.9Z"/></svg>