<svg xmlns="http://www.w3.org/2000/svg" viewBox="0 0 24 24"><title>touch-id-2</title><path d="M10.671,5.112a4.8,4.8,0,0,1,6.287,4.555v4.722a.875.875,0,0,0,1.75,0V9.667A6.546,6.546,0,0,0,10.125,3.45a.875.875,0,1,0,.546,1.662Z"/><path d="M17.042,18.751a.875.875,0,1,0-1.3-1.168,4.791,4.791,0,0,1-8.363-3.194V9.667A4.777,4.777,0,0,1,8.6,6.473a.875.875,0,1,0-1.3-1.168A6.528,6.528,0,0,0,5.625,9.667v4.722a6.542,6.542,0,0,0,11.417,4.362Z"/><path d="M10.208,14.389a.875.875,0,0,0-1.75,0,3.709,3.709,0,1,0,7.417,0V9.667a3.709,3.709,0,1,0-7.417,0v1.416a.875.875,0,0,0,1.75,0V9.667a1.959,1.959,0,1,1,3.917,0v4.722a1.959,1.959,0,1,1-3.917,0Z"/><path d="M13.042,13.917V11.083a.875.875,0,0,0-1.75,0v2.834a.875.875,0,0,0,1.75,0Z"/><path d="M6.5,22H2.25A.25.25,0,0,1,2,21.75V17.5a1,1,0,0,0-2,0V22a2,2,0,0,0,2,2H6.5a1,1,0,0,0,0-2Z"/><path d="M1,7.5a1,1,0,0,0,1-1V2.25A.25.25,0,0,1,2.25,2H6.5a1,1,0,0,0,0-2H2A2,2,0,0,0,0,2V6.5A1,1,0,0,0,1,7.5Z"/><path d="M23,16.5a1,1,0,0,0-1,1v4.25a.25.25,0,0,1-.25.25H17.5a1,1,0,0,0,0,2H22a2,2,0,0,0,2-2V17.5A1,1,0,0,0,23,16.5Z"/><path d="M22,0H17.5a1,1,0,0,0,0,2h4.25a.25.25,0,0,1,.25.25V6.5a1,1,0,0,0,2,0V2A2,2,0,0,0,22,0Z"/></svg>