<svg xmlns="http://www.w3.org/2000/svg" viewBox="0 0 24 24"><title>touch-id-approved-1</title><path d="M12,11a6.5,6.5,0,1,0,6.5,6.5A6.508,6.508,0,0,0,12,11Zm3.474,5.355-2.9,3.874a1.751,1.751,0,0,1-2.64.185l-1.5-1.5A1,1,0,0,1,9.844,17.5L10.938,18.6a.251.251,0,0,0,.377-.027l2.559-3.412a1,1,0,1,1,1.6,1.2Z"/><path d="M10.671,3.988a4.8,4.8,0,0,1,6.287,4.554V11.1a.248.248,0,0,0,.093.194,8.082,8.082,0,0,1,1.212,1.227.25.25,0,0,0,.445-.156V8.542a6.543,6.543,0,0,0-8.583-6.216.875.875,0,1,0,.546,1.662Z"/><path d="M7.273,11.046a.251.251,0,0,0,.1-.2v-2.3A4.779,4.779,0,0,1,8.6,5.348a.875.875,0,0,0-1.3-1.168A6.528,6.528,0,0,0,5.625,8.542v3.432a.25.25,0,0,0,.436.167A8.029,8.029,0,0,1,7.273,11.046Z"/><path d="M10.02,9.748a.25.25,0,0,0,.188-.243V8.542a1.959,1.959,0,1,1,3.917,0V9.6a.25.25,0,0,0,.178.239,8,8,0,0,1,1.212.475.25.25,0,0,0,.36-.224V8.542a3.709,3.709,0,1,0-7.417,0V9.958a.234.234,0,0,0,.328.214A7.877,7.877,0,0,1,10.02,9.748Z"/><path d="M5.459,22.106A.253.253,0,0,0,5.254,22h-3A.249.249,0,0,1,2,21.75V2.25A.25.25,0,0,1,2.25,2H6.5a1,1,0,0,0,0-2H2A2,2,0,0,0,0,2V22a2,2,0,0,0,2,2H6.5a.959.959,0,0,0,.142-.01.249.249,0,0,0,.128-.436A8.018,8.018,0,0,1,5.459,22.106Z"/><path d="M24,2a2,2,0,0,0-2-2H17.5a1,1,0,0,0,0,2h4.25a.25.25,0,0,1,.25.25v19.5a.249.249,0,0,1-.25.25h-3a.253.253,0,0,0-.2.106,8.018,8.018,0,0,1-1.311,1.448.25.25,0,0,0,.128.436A.959.959,0,0,0,17.5,24H22a2,2,0,0,0,2-2Z"/></svg>