<svg xmlns="http://www.w3.org/2000/svg" viewBox="0 0 24 24"><title>touch-id-target</title><path d="M14.037,20.566a7.5,7.5,0,0,1-11.9-5.623,1,1,0,0,0-2,.115,9.5,9.5,0,0,0,15.073,7.125,1,1,0,1,0-1.177-1.617Z"/><path d="M1.125,12a1,1,0,0,0,1-1V9.5A7.5,7.5,0,0,1,9.625,2a6.15,6.15,0,0,1,.883.057.253.253,0,0,0,.236-.1A7.917,7.917,0,0,1,11.932.692a.251.251,0,0,0-.1-.433A9.31,9.31,0,0,0,9.625,0a9.509,9.509,0,0,0-9.5,9.5V11A1,1,0,0,0,1.125,12Z"/><path d="M18.818,14.6a8.213,8.213,0,0,1-1.693.179h0a.007.007,0,0,0-.008.008,7.356,7.356,0,0,1-.65,2.8.991.991,0,0,0,.5,1.32.978.978,0,0,0,.41.09,1,1,0,0,0,.91-.59,9.237,9.237,0,0,0,.835-3.556.251.251,0,0,0-.3-.253Z"/><path d="M8.939,6.572a.249.249,0,0,0,.2-.233,7.6,7.6,0,0,1,.224-1.5.25.25,0,0,0-.265-.31A5.5,5.5,0,0,0,4.125,10v4a5.48,5.48,0,0,0,.93,3.06.986.986,0,0,0,1.38.27,1,1,0,0,0,.28-1.39A3.412,3.412,0,0,1,6.125,14V10A3.5,3.5,0,0,1,8.939,6.572Z"/><path d="M9.015,19.47a6.078,6.078,0,0,0,.61.03,5.506,5.506,0,0,0,5.445-4.762.248.248,0,0,0-.178-.273,7.549,7.549,0,0,1-1.509-.619.175.175,0,0,0-.258.154,3.5,3.5,0,0,1-3.5,3.5c-.13,0-.26-.01-.39-.02a1,1,0,0,0-.22,1.99Z"/><path d="M9.517,9.26a.25.25,0,0,0-.352-.147.994.994,0,0,0-.54.887v4a1,1,0,0,0,2,0V11.524a.249.249,0,0,0-.049-.149A8.182,8.182,0,0,1,9.517,9.26Z"/><path d="M23.125,6.027h-.344a.249.249,0,0,1-.246-.206,5.506,5.506,0,0,0-4.454-4.454.25.25,0,0,1-.206-.246V.777a.75.75,0,0,0-1.5,0v.344a.249.249,0,0,1-.207.246,5.505,5.505,0,0,0-4.453,4.454.249.249,0,0,1-.246.206h-.344a.75.75,0,0,0,0,1.5h.344a.25.25,0,0,1,.246.207,5.505,5.505,0,0,0,4.454,4.454.25.25,0,0,1,.206.246v.343a.75.75,0,1,0,1.5,0v-.343a.249.249,0,0,1,.207-.246,5.507,5.507,0,0,0,4.453-4.454.251.251,0,0,1,.246-.207h.344a.75.75,0,0,0,0-1.5Zm-3,1.5h.088a.251.251,0,0,1,.238.328A3.512,3.512,0,0,1,18.2,10.1a.249.249,0,0,1-.327-.238V9.777a.75.75,0,0,0-1.5,0v.088a.249.249,0,0,1-.327.238A3.508,3.508,0,0,1,13.8,7.855a.251.251,0,0,1,.238-.328h.088a.75.75,0,0,0,0-1.5h-.088a.249.249,0,0,1-.2-.1A.252.252,0,0,1,13.8,5.7a3.508,3.508,0,0,1,2.249-2.248.249.249,0,0,1,.327.238v.087a.75.75,0,1,0,1.5,0V3.69a.249.249,0,0,1,.327-.238A3.512,3.512,0,0,1,20.451,5.7a.252.252,0,0,1-.036.224.249.249,0,0,1-.2.1h-.088a.75.75,0,0,0,0,1.5Z"/><circle cx="17.125" cy="6.778" r="1"/></svg>