<svg xmlns="http://www.w3.org/2000/svg" viewBox="0 0 24 24"><title>touch-id-desktop</title><path d="M14.35,20.681a.5.5,0,0,0-.385-.181h-3.93a.5.5,0,0,0-.385.181l-2.1,2.532A.5.5,0,0,0,7.96,24h8.079a.5.5,0,0,0,.41-.787Z"/><path d="M22.5,0H1.5A1.5,1.5,0,0,0,0,1.5v16A1.5,1.5,0,0,0,1.5,19h21A1.5,1.5,0,0,0,24,17.5V1.5A1.5,1.5,0,0,0,22.5,0ZM22,14.5a.5.5,0,0,1-.5.5H2.5a.5.5,0,0,1-.5-.5V2.5A.5.5,0,0,1,2.5,2h19a.5.5,0,0,1,.5.5Z"/><path d="M12,3.25a4.243,4.243,0,0,0-2.191.608.75.75,0,0,0,.774,1.285A2.75,2.75,0,0,1,14.75,7.5v2a2.727,2.727,0,0,1-.264,1.178.75.75,0,0,0,1.354.645A4.218,4.218,0,0,0,16.25,9.5v-2A4.255,4.255,0,0,0,12,3.25Z"/><path d="M12.787,12.137A2.789,2.789,0,0,1,12,12.25,2.752,2.752,0,0,1,9.25,9.5v-2a2.742,2.742,0,0,1,.114-.786.75.75,0,0,0-1.438-.428A4.249,4.249,0,0,0,7.75,7.5v2a4.255,4.255,0,0,0,5.463,4.075.75.75,0,0,0-.426-1.438Z"/><path d="M13,9.625A.625.625,0,0,0,13.625,9V7.5A1.627,1.627,0,0,0,12,5.875a.625.625,0,0,0,0,1.25.375.375,0,0,1,.375.375V9A.625.625,0,0,0,13,9.625Z"/><path d="M10.375,8V9.5A1.626,1.626,0,0,0,12,11.125a.625.625,0,0,0,0-1.25.375.375,0,0,1-.375-.375V8a.625.625,0,0,0-1.25,0Z"/></svg>