<svg xmlns="http://www.w3.org/2000/svg" viewBox="0 0 24 24"><title>touch-id-1</title><path d="M19.422,3.912a.875.875,0,1,0-1.384,1.071,7.547,7.547,0,0,1,1.587,4.656v4.722A7.633,7.633,0,0,1,12,21.986a.875.875,0,0,0,0,1.75,9.385,9.385,0,0,0,9.375-9.375V9.639A9.281,9.281,0,0,0,19.422,3.912Z"/><path d="M9.035,21.388a7.613,7.613,0,0,1-4.66-7.027V12.472a.875.875,0,0,0-1.75,0v1.889A9.358,9.358,0,0,0,8.354,23a.875.875,0,0,0,.681-1.612Z"/><path d="M3.465,10.041l.049,0a.876.876,0,0,0,.873-.827A7.627,7.627,0,0,1,15.814,3.035a.875.875,0,1,0,.877-1.514A9.376,9.376,0,0,0,2.64,9.12.873.873,0,0,0,3.465,10.041Z"/><path d="M18.542,14.361V9.639A6.547,6.547,0,0,0,9.958,3.422.875.875,0,1,0,10.5,5.085a4.8,4.8,0,0,1,6.289,4.554v4.722a.875.875,0,1,0,1.75,0Z"/><path d="M8.36,5.209a.874.874,0,0,0-1.235.069A6.527,6.527,0,0,0,5.458,9.639v4.722a6.542,6.542,0,0,0,11.417,4.362.875.875,0,1,0-1.3-1.167,4.792,4.792,0,0,1-8.364-3.195V9.639a4.786,4.786,0,0,1,1.22-3.194A.876.876,0,0,0,8.36,5.209Z"/><path d="M10.042,14.361a.875.875,0,0,0-1.75,0,3.708,3.708,0,1,0,7.416,0V9.639a3.708,3.708,0,0,0-7.416,0v1.417a.875.875,0,0,0,1.75,0V9.639a1.958,1.958,0,0,1,3.916,0v4.722a1.958,1.958,0,1,1-3.916,0Z"/><path d="M12.875,13.889V11.056a.875.875,0,1,0-1.75,0v2.833a.875.875,0,0,0,1.75,0Z"/></svg>