<svg xmlns="http://www.w3.org/2000/svg" viewBox="0 0 24 24"><title>keyboard-page-up</title><path d="M16.75,12.06a1.5,1.5,0,0,0,0-3h-3a.25.25,0,0,1-.25-.25V7.06a.25.25,0,0,1,.25-.25h3A1,1,0,0,0,17.457,5.1L12.707.353a1,1,0,0,0-1.414,0L6.543,5.1A1,1,0,0,0,7.25,6.81h3a.25.25,0,0,1,.25.25V8.81a.25.25,0,0,1-.25.25h-3a1.5,1.5,0,0,0,0,3h3a.25.25,0,0,1,.25.25v1.25a.25.25,0,0,1-.25.25h-3a1.5,1.5,0,0,0,0,3h3a.25.25,0,0,1,.25.25v5.375a1.5,1.5,0,1,0,3,0V17.06a.25.25,0,0,1,.25-.25h3a1.5,1.5,0,1,0,0-3h-3a.25.25,0,0,1-.25-.25V12.31a.25.25,0,0,1,.25-.25Z"/></svg>