<svg xmlns="http://www.w3.org/2000/svg" viewBox="0 0 24 24"><title>keyboard-return-alternate</title><path d="M19.174,0H4.826A4.832,4.832,0,0,0,0,4.822V19.17A4.832,4.832,0,0,0,4.826,24H19.174A4.832,4.832,0,0,0,24,19.17V4.822A4.832,4.832,0,0,0,19.174,0ZM22,19.17A2.83,2.83,0,0,1,19.174,22H4.826A2.829,2.829,0,0,1,2,19.17V4.822A2.828,2.828,0,0,1,4.826,2H19.174A2.829,2.829,0,0,1,22,4.822Z"/><path d="M17.5,7.5a1,1,0,0,0-1,1v2.75a.25.25,0,0,1-.25.25h-5.5a.25.25,0,0,1-.25-.25V9.5a1,1,0,0,0-1.707-.707l-3,3a1,1,0,0,0,0,1.414l3,3A1,1,0,0,0,10.5,15.5v-1.75a.25.25,0,0,1,.25-.25H16.5a2,2,0,0,0,2-2v-3A1,1,0,0,0,17.5,7.5Z"/></svg>