<svg xmlns="http://www.w3.org/2000/svg" viewBox="0 0 24 24"><title>keyboard-delete-alternate</title><path d="M18,7.5H8.207a1.491,1.491,0,0,0-1.061.439l-3,3a1.5,1.5,0,0,0,0,2.121l3,3a1.488,1.488,0,0,0,1.061.44H18A1.5,1.5,0,0,0,19.5,15V9A1.5,1.5,0,0,0,18,7.5Zm-7.03,3.53a.75.75,0,1,1,1.061-1.06l.793.792a.25.25,0,0,0,.354,0l.792-.792a.75.75,0,1,1,1.061,1.06l-.793.793a.25.25,0,0,0,0,.354l.793.793a.75.75,0,1,1-1.061,1.06l-.792-.793a.252.252,0,0,0-.354,0l-.793.793a.75.75,0,0,1-1.061-1.06l.793-.793a.25.25,0,0,0,0-.354Z"/><path d="M24,4.822A4.832,4.832,0,0,0,19.174,0H4.826A4.832,4.832,0,0,0,0,4.822V19.17A4.832,4.832,0,0,0,4.826,24H19.174A4.832,4.832,0,0,0,24,19.17ZM22,19.17A2.83,2.83,0,0,1,19.174,22H4.826A2.829,2.829,0,0,1,2,19.17V4.822A2.828,2.828,0,0,1,4.826,2H19.174A2.829,2.829,0,0,1,22,4.822Z"/></svg>