<svg xmlns="http://www.w3.org/2000/svg" viewBox="0 0 24 24"><title>keyboard-power-off</title><path d="M19.5.5H4.5a4.012,4.012,0,0,0-4,4v15a4.011,4.011,0,0,0,4,4h15a4.011,4.011,0,0,0,4-4V4.5A4.012,4.012,0,0,0,19.5.5ZM4.5,5A.5.5,0,0,1,5,4.5H9a.5.5,0,0,1,.353.854L8.238,6.467a.252.252,0,0,0,0,.354l4.469,4.469A1,1,0,1,1,11.293,12.7L6.824,8.235a.25.25,0,0,0-.353,0L5.354,9.351A.5.5,0,0,1,5,9.5a.489.489,0,0,1-.191-.038A.5.5,0,0,1,4.5,9ZM12,20.5a8.538,8.538,0,0,1-8.312-6.719,1,1,0,1,1,1.955-.418,6.5,6.5,0,1,0,7.633-7.738,1,1,0,1,1,.391-1.96A8.5,8.5,0,0,1,12,20.5Z"/></svg>