<?xml version="1.0" encoding="utf-8"?>
<!-- Generator: Adobe Illustrator 22.1.0, SVG Export Plug-In . SVG Version: 6.00 Build 0)  -->
<svg version="1.1" id="Layer_1" xmlns="http://www.w3.org/2000/svg" xmlns:xlink="http://www.w3.org/1999/xlink" x="0px" y="0px"
	 viewBox="0 0 24 24" style="enable-background:new 0 0 24 24;" xml:space="preserve">
<title>smart-watch-circle-microphone</title>
<g>
	<path d="M17.621,7.5c-1.654,0-3-1.346-3-3V3c0-1.654,1.346-3,3-3s3,1.346,3,3v1.5C20.621,6.154,19.275,7.5,17.621,7.5z M17.621,1.5
		c-0.827,0-1.5,0.673-1.5,1.5v1.5c0,0.827,0.673,1.5,1.5,1.5s1.5-0.673,1.5-1.5V3C19.121,2.173,18.448,1.5,17.621,1.5z"/>
	<path d="M17.621,12.75c-0.414,0-0.75-0.336-0.75-0.75v-1.548c-1.341-0.168-2.585-0.781-3.532-1.748
		c-0.14-0.143-0.216-0.332-0.214-0.533c0.002-0.2,0.082-0.388,0.225-0.528c0.141-0.138,0.328-0.214,0.525-0.214
		c0.203,0,0.393,0.08,0.535,0.225C15.248,8.509,16.416,9,17.614,9c1.213,0,2.383-0.492,3.22-1.35
		c0.142-0.146,0.333-0.226,0.537-0.226c0.197,0,0.383,0.076,0.524,0.214c0.143,0.14,0.223,0.327,0.226,0.527
		c0.002,0.2-0.073,0.39-0.213,0.533c-0.948,0.97-2.193,1.585-3.537,1.754V12C18.371,12.414,18.034,12.75,17.621,12.75z"/>
	<path d="M6.375,24c-1.241,0-2.25-1.009-2.25-2.25v-4.4c-0.836-0.82-1.474-1.84-1.851-2.963c-0.638-1.898-0.499-3.931,0.392-5.725
		c0.371-0.747,0.862-1.421,1.46-2.006V2.25C4.125,1.009,5.134,0,6.375,0h6c0.414,0,0.75,0.336,0.75,0.75s-0.336,0.75-0.75,0.75h-6
		c-0.414,0-0.75,0.336-0.75,0.75v3.27c1.145-0.659,2.463-1.016,3.78-1.016c0.973,0,1.923,0.188,2.824,0.557
		c0.185,0.076,0.33,0.22,0.407,0.405c0.077,0.185,0.078,0.389,0.001,0.574c-0.115,0.282-0.388,0.465-0.693,0.465
		c-0.098,0-0.194-0.019-0.286-0.057c-0.72-0.296-1.48-0.446-2.259-0.446c-2.271,0-4.387,1.306-5.391,3.326
		c-0.713,1.435-0.824,3.061-0.313,4.58c0.511,1.519,1.582,2.748,3.017,3.46c0.836,0.416,1.73,0.626,2.658,0.626
		c2.3,0,4.362-1.276,5.382-3.329c0.128-0.257,0.386-0.417,0.672-0.417c0.115,0,0.23,0.027,0.333,0.079
		c0.37,0.184,0.522,0.635,0.338,1.005c-0.376,0.757-0.871,1.437-1.471,2.024v4.393c0,1.241-1.009,2.25-2.25,2.25H6.375z
		 M5.625,21.75c0,0.414,0.336,0.75,0.75,0.75h6c0.414,0,0.75-0.336,0.75-0.75v-3.26c-1.137,0.651-2.447,1.005-3.756,1.005
		c-1.161,0-2.279-0.263-3.324-0.782c-0.142-0.07-0.282-0.146-0.42-0.226V21.75z"/>
</g>
</svg>
