<?xml version="1.0" encoding="utf-8"?>
<!-- Generator: Adobe Illustrator 22.1.0, SVG Export Plug-In . SVG Version: 6.00 Build 0)  -->
<svg version="1.1" id="Layer_1" xmlns="http://www.w3.org/2000/svg" xmlns:xlink="http://www.w3.org/1999/xlink" x="0px" y="0px"
	 viewBox="0 0 24 24" style="enable-background:new 0 0 24 24;" xml:space="preserve">
<title>smart-watch-circle-bell</title>
<g>
	<path d="M5.997,24c-1.241,0-2.25-1.009-2.25-2.25v-4.388c-0.838-0.82-1.479-1.842-1.857-2.966c-0.64-1.898-0.502-3.933,0.388-5.728
		c0.376-0.758,0.87-1.441,1.469-2.03V2.25C3.747,1.009,4.756,0,5.997,0h4.5c0.414,0,0.75,0.336,0.75,0.75S10.91,1.5,10.497,1.5h-4.5
		c-0.414,0-0.75,0.336-0.75,0.75v3.248C6.38,4.843,7.663,4.5,8.997,4.5c0.414,0,0.75,0.336,0.75,0.75S9.41,6,8.997,6
		C7.526,6,6.115,6.534,5.023,7.502C5.011,7.514,4.999,7.524,4.987,7.535C4.421,8.044,3.96,8.651,3.621,9.335
		c-0.712,1.436-0.822,3.063-0.31,4.582c0.512,1.519,1.585,2.748,3.021,3.46c0.834,0.414,1.727,0.624,2.653,0.624c0,0,0,0,0,0
		c1.474,0,2.893-0.538,3.995-1.513c0.588-0.524,1.052-1.133,1.394-1.821c0.127-0.257,0.385-0.417,0.672-0.417
		c0.115,0,0.23,0.027,0.333,0.078c0.37,0.184,0.522,0.635,0.339,1.005c-0.376,0.758-0.87,1.439-1.471,2.026v4.391
		c0,1.241-1.009,2.25-2.25,2.25H5.997z M5.247,21.75c0,0.414,0.336,0.75,0.75,0.75h6c0.414,0,0.75-0.336,0.75-0.75v-3.256
		c-1.139,0.653-2.45,1.007-3.761,1.007c-1.159,0-2.277-0.262-3.321-0.78c-0.141-0.07-0.281-0.145-0.418-0.224V21.75z"/>
	<path d="M11.247,9.75c-0.414,0-0.75-0.336-0.75-0.75s0.336-0.75,0.75-0.75s0.75-0.336,0.75-0.75v-3c0-2.481,2.019-4.5,4.5-4.5
		s4.5,2.019,4.5,4.5v3c0,0.414,0.336,0.75,0.75,0.75s0.75,0.336,0.75,0.75s-0.336,0.75-0.75,0.75H11.247z M19.625,8.25
		c-0.084-0.238-0.128-0.491-0.128-0.75v-3c0-1.654-1.346-3-3-3s-3,1.346-3,3v3c0,0.259-0.043,0.512-0.128,0.75H19.625z"/>
	<circle cx="16.497" cy="11.625" r="1.125"/>
</g>
</svg>
