<?xml version="1.0" encoding="utf-8"?>
<!-- Generator: Adobe Illustrator 22.1.0, SVG Export Plug-In . SVG Version: 6.00 Build 0)  -->
<svg version="1.1" id="Layer_1" xmlns="http://www.w3.org/2000/svg" xmlns:xlink="http://www.w3.org/1999/xlink" x="0px" y="0px"
	 viewBox="0 0 24 24" style="enable-background:new 0 0 24 24;" xml:space="preserve">
<title>smart-watch-square-email</title>
<g>
	<path d="M8.25,24C7.009,24,6,22.991,6,21.75v-0.827c-1.732-0.35-3-1.874-3-3.673V6.75c0-1.799,1.268-3.323,3-3.673V2.25
		C6,1.009,7.009,0,8.25,0h7.5C16.991,0,18,1.009,18,2.25v0.827c1.732,0.351,3,1.874,3,3.673v10.5c0,1.799-1.268,3.323-3,3.673v0.827
		c0,1.241-1.009,2.25-2.25,2.25H8.25z M7.5,21.75c0,0.414,0.336,0.75,0.75,0.75h7.5c0.414,0,0.75-0.336,0.75-0.75V21h-9V21.75z
		 M6.75,4.5C5.509,4.5,4.5,5.509,4.5,6.75v10.5c0,1.241,1.009,2.25,2.25,2.25h10.5c1.241,0,2.25-1.009,2.25-2.25V6.75
		c0-1.241-1.009-2.25-2.25-2.25H6.75z M16.5,3V2.25c0-0.414-0.336-0.75-0.75-0.75h-7.5C7.836,1.5,7.5,1.836,7.5,2.25V3H16.5z"/>
	<path d="M8.25,16.5C7.009,16.5,6,15.491,6,14.25v-4.5C6,8.509,7.009,7.5,8.25,7.5h7.5C16.991,7.5,18,8.509,18,9.75v4.5
		c0,1.241-1.009,2.25-2.25,2.25H8.25z M7.5,14.25C7.5,14.664,7.836,15,8.25,15h7.5c0.414,0,0.75-0.336,0.75-0.75v-3.208
		l-3.384,1.934c-0.338,0.193-0.724,0.295-1.116,0.295c-0.392,0-0.778-0.102-1.116-0.295L7.5,11.042V14.25z M11.628,11.674
		c0.112,0.064,0.241,0.098,0.372,0.098c0.131,0,0.26-0.034,0.372-0.098l4.025-2.3C16.266,9.148,16.023,9,15.75,9h-7.5
		C7.977,9,7.734,9.148,7.603,9.374L11.628,11.674z"/>
</g>
</svg>
