<?xml version="1.0" encoding="utf-8"?>
<!-- Generator: Adobe Illustrator 22.1.0, SVG Export Plug-In . SVG Version: 6.00 Build 0)  -->
<svg version="1.1" id="Layer_1" xmlns="http://www.w3.org/2000/svg" xmlns:xlink="http://www.w3.org/1999/xlink" x="0px" y="0px"
	 viewBox="0 0 24 24" style="enable-background:new 0 0 24 24;" xml:space="preserve">
<title>smart-watch-circle-graph</title>
<g>
	<path d="M12.75,10.5c-1.241,0-2.25-1.009-2.25-2.25v-6C10.5,1.009,11.51,0,12.75,0h9C22.991,0,24,1.009,24,2.25v6
		c0,1.241-1.009,2.25-2.25,2.25H12.75z M21.75,9c0.414,0,0.75-0.336,0.75-0.75v-6c0-0.414-0.336-0.75-0.75-0.75h-9
		C12.337,1.5,12,1.836,12,2.25v6C12,8.664,12.337,9,12.75,9h0.75V5.25c0-0.414,0.336-0.75,0.75-0.75S15,4.836,15,5.25V9h1.5V6.75
		C16.5,6.336,16.837,6,17.25,6S18,6.336,18,6.75V9h1.5V3.75C19.5,3.336,19.837,3,20.25,3S21,3.336,21,3.75V9H21.75z"/>
	<path d="M4.5,24c-1.241,0-2.25-1.009-2.25-2.25v-4.361c-0.038-0.037-0.077-0.074-0.114-0.112c-1.409-1.424-2.18-3.311-2.17-5.315
		s0.8-3.883,2.224-5.292C2.21,6.65,2.23,6.63,2.25,6.611V2.25C2.25,1.009,3.26,0,4.5,0h3.75C8.664,0,9,0.336,9,0.75
		S8.664,1.5,8.25,1.5H4.5c-0.414,0-0.75,0.336-0.75,0.75v3.233C4.876,4.838,6.147,4.5,7.464,4.5l0.04,0
		c0.305,0.013,0.582,0.04,0.862,0.084c0.198,0.031,0.372,0.137,0.49,0.299c0.118,0.162,0.166,0.36,0.135,0.558
		C8.934,5.808,8.623,6.075,8.251,6.075c-0.038,0-0.077-0.003-0.116-0.009C7.915,6.032,7.69,6.009,7.467,5.999
		c-1.409,0-2.78,0.5-3.861,1.409c-0.065,0.09-0.15,0.165-0.246,0.219C3.316,7.668,3.28,7.701,3.245,7.736
		c-1.139,1.128-1.771,2.631-1.779,4.234c-0.008,1.603,0.608,3.113,1.736,4.252c0.051,0.052,0.103,0.102,0.156,0.151
		c0.098,0.054,0.183,0.129,0.249,0.221c1.069,0.901,2.426,1.4,3.829,1.407h0.031c3.059,0,5.622-2.293,5.962-5.333
		C13.471,12.287,13.79,12,14.172,12c0.029,0,0.059,0.002,0.088,0.005c0.197,0.022,0.375,0.12,0.5,0.277
		c0.125,0.157,0.181,0.353,0.159,0.552c-0.19,1.702-0.959,3.292-2.169,4.493v4.424c0,1.241-1.009,2.25-2.25,2.25H4.5z M3.75,21.75
		c0,0.414,0.336,0.75,0.75,0.75h6c0.414,0,0.75-0.336,0.75-0.75v-3.271c-1.145,0.67-2.439,1.021-3.783,1.021H7.43
		c-1.306-0.007-2.565-0.344-3.68-0.984V21.75z"/>
</g>
</svg>
