<?xml version="1.0" encoding="utf-8"?>
<!-- Generator: Adobe Illustrator 22.1.0, SVG Export Plug-In . SVG Version: 6.00 Build 0)  -->
<svg version="1.1" id="Layer_1" xmlns="http://www.w3.org/2000/svg" xmlns:xlink="http://www.w3.org/1999/xlink" x="0px" y="0px"
	 viewBox="0 0 24 24" style="enable-background:new 0 0 24 24;" xml:space="preserve">
<title>smart-watch-circle-home</title>
<g>
	<path d="M15.75,12.001c-0.01,0-0.025-0.001-0.038-0.002H14.25c-1.241,0-2.25-1.009-2.25-2.25V5.601l-0.256,0.224
		c-0.137,0.12-0.312,0.186-0.494,0.186c-0.216,0-0.422-0.093-0.565-0.256c-0.132-0.151-0.197-0.344-0.184-0.544
		c0.013-0.2,0.104-0.383,0.254-0.515l4.518-3.953c0.544-0.477,1.246-0.74,1.975-0.74s1.431,0.263,1.977,0.741l4.517,3.953
		c0.151,0.132,0.241,0.315,0.255,0.514c0.013,0.2-0.052,0.393-0.184,0.544c-0.143,0.163-0.349,0.256-0.565,0.256l0,0
		c-0.182,0-0.357-0.066-0.494-0.186L22.5,5.601v4.148c0,1.241-1.009,2.25-2.25,2.25h-1.462C18.774,12,18.76,12.001,18.75,12.001
		H15.75z M20.25,10.499c0.414,0,0.75-0.336,0.75-0.75v-5.46l-2.761-2.416c-0.272-0.239-0.624-0.37-0.989-0.37
		c-0.365,0-0.716,0.131-0.988,0.37L13.5,4.289v5.46c0,0.414,0.336,0.75,0.75,0.75H15V8.251c0-1.241,1.009-2.25,2.25-2.25
		s2.25,1.009,2.25,2.25v2.248H20.25z M18,10.499V8.251c0-0.414-0.336-0.75-0.75-0.75s-0.75,0.336-0.75,0.75v2.248H18z"/>
	<path d="M4.5,24.001c-1.241,0-2.25-1.009-2.25-2.25v-4.368c-0.034-0.033-0.068-0.066-0.102-0.1
		c-1.411-1.422-2.183-3.308-2.175-5.312s0.796-3.884,2.218-5.295C2.21,6.657,2.23,6.638,2.25,6.619V2.251
		c0-1.241,1.009-2.25,2.25-2.25h6c0.414,0,0.75,0.336,0.75,0.75s-0.336,0.75-0.75,0.75h-6c-0.414,0-0.75,0.336-0.75,0.75v3.238
		C4.878,4.84,6.152,4.501,7.472,4.501h0.029c0.307,0.013,0.585,0.04,0.864,0.084c0.198,0.031,0.372,0.137,0.49,0.299
		c0.118,0.162,0.166,0.36,0.135,0.558C8.934,5.809,8.622,6.076,8.25,6.076c-0.038,0-0.077-0.003-0.115-0.009
		C7.914,6.032,7.69,6.01,7.466,6C6.047,6,4.678,6.505,3.598,7.422c-0.06,0.079-0.135,0.146-0.221,0.196
		c-0.044,0.04-0.087,0.081-0.13,0.123C2.11,8.87,1.479,10.374,1.473,11.977c-0.006,1.603,0.612,3.112,1.74,4.25
		c0.053,0.053,0.106,0.105,0.161,0.155c0.087,0.05,0.163,0.117,0.224,0.198c1.073,0.911,2.439,1.415,3.851,1.421h0.024
		c2.537,0,4.811-1.607,5.657-4c0.106-0.299,0.39-0.5,0.707-0.5c0.085,0,0.169,0.014,0.25,0.043c0.189,0.067,0.34,0.203,0.427,0.384
		c0.086,0.181,0.097,0.384,0.03,0.573c-0.374,1.058-0.993,2.031-1.794,2.825v4.425c0,1.241-1.009,2.25-2.25,2.25H4.5z M3.75,21.751
		c0,0.414,0.336,0.75,0.75,0.75h6c0.414,0,0.75-0.336,0.75-0.75v-3.274c-1.147,0.672-2.439,1.023-3.777,1.023H7.445
		c-1.312-0.005-2.575-0.345-3.695-0.988V21.751z"/>
</g>
</svg>
