<?xml version="1.0" encoding="utf-8"?>
<!-- Generator: Adobe Illustrator 22.1.0, SVG Export Plug-In . SVG Version: 6.00 Build 0)  -->
<svg version="1.1" id="Layer_1" xmlns="http://www.w3.org/2000/svg" xmlns:xlink="http://www.w3.org/1999/xlink" x="0px" y="0px"
	 viewBox="0 0 24 24" style="enable-background:new 0 0 24 24;" xml:space="preserve">
<title>smart-watch-square-heart</title>
<g>
	<path d="M8.25,24C7.009,24,6,22.991,6,21.75v-0.827c-1.732-0.35-3-1.874-3-3.673V6.75c0-1.799,1.268-3.323,3-3.673V2.25
		C6,1.009,7.009,0,8.25,0h7.5C16.991,0,18,1.009,18,2.25v0.827c1.732,0.351,3,1.874,3,3.673v10.5c0,1.799-1.268,3.323-3,3.673v0.827
		c0,1.241-1.009,2.25-2.25,2.25H8.25z M7.5,21.75c0,0.414,0.336,0.75,0.75,0.75h7.5c0.414,0,0.75-0.336,0.75-0.75V21h-9V21.75z
		 M6.75,4.5C5.509,4.5,4.5,5.509,4.5,6.75v10.5c0,1.241,1.009,2.25,2.25,2.25h10.5c1.241,0,2.25-1.009,2.25-2.25V6.75
		c0-1.241-1.009-2.25-2.25-2.25H6.75z M16.5,3V2.25c0-0.414-0.336-0.75-0.75-0.75h-7.5C7.836,1.5,7.5,1.836,7.5,2.25V3H16.5z"/>
	<path d="M11.983,16.686c-0.369-0.009-0.7-0.155-0.945-0.412l-3.507-3.627C6.49,11.557,6.489,9.851,7.527,8.763
		c0.029-0.03,0.059-0.06,0.089-0.089c0.495-0.472,1.144-0.731,1.829-0.731c0.733,0,1.415,0.292,1.919,0.821L12,9.421l0.64-0.662
		c0.024-0.026,0.055-0.057,0.087-0.087c0.494-0.471,1.144-0.731,1.83-0.731l0.06,0.001c0.707,0.017,1.364,0.307,1.851,0.817
		c1.072,1.072,1.074,2.782-0.001,3.889l-3.539,3.659c-0.26,0.248-0.586,0.379-0.929,0.379
		C11.999,16.687,11.985,16.686,11.983,16.686z M9.444,9.442c-0.296,0-0.578,0.113-0.792,0.318c-0.013,0.012-0.026,0.026-0.04,0.04
		c-0.484,0.507-0.484,1.302,0,1.809L12,15.112l3.391-3.507c0.499-0.514,0.503-1.301,0.01-1.792c-0.226-0.236-0.511-0.363-0.818-0.37
		l-0.026,0c-0.302,0-0.577,0.11-0.795,0.317C13.747,9.773,13.733,9.786,13.72,9.8l-1.181,1.222
		c-0.138,0.142-0.334,0.224-0.539,0.224s-0.401-0.082-0.539-0.224l-1.179-1.219c-0.215-0.226-0.502-0.353-0.809-0.36L9.444,9.442z"
		/>
</g>
</svg>
