<?xml version="1.0" encoding="utf-8"?>
<!-- Generator: Adobe Illustrator 22.1.0, SVG Export Plug-In . SVG Version: 6.00 Build 0)  -->
<svg version="1.1" id="Layer_1" xmlns="http://www.w3.org/2000/svg" xmlns:xlink="http://www.w3.org/1999/xlink" x="0px" y="0px"
	 viewBox="0 0 24 24" style="enable-background:new 0 0 24 24;" xml:space="preserve">
<title>smart-watch-circle-missed-call</title>
<g>
	<path d="M4.506,24c-1.241,0-2.25-1.009-2.25-2.25v-4.397c-1.848-1.819-2.638-4.493-2.063-7.018c0.323-1.42,1.035-2.697,2.063-3.704
		V2.25C2.256,1.009,3.266,0,4.506,0h4.5c0.414,0,0.75,0.336,0.75,0.75S9.42,1.5,9.006,1.5h-4.5c-0.414,0-0.75,0.336-0.75,0.75V5.5
		c1.136-0.656,2.419-0.999,3.75-1c0.414,0,0.75,0.336,0.75,0.75S7.92,6,7.506,6C6.046,6,4.641,6.527,3.55,7.484
		C3.516,7.52,3.479,7.553,3.44,7.58c-0.896,0.825-1.512,1.892-1.785,3.088c-0.355,1.56-0.08,3.168,0.774,4.526
		s2.184,2.302,3.745,2.657c0.439,0.1,0.888,0.151,1.334,0.151c2.774,0,5.234-1.964,5.849-4.669c0.079-0.344,0.38-0.583,0.732-0.583
		c0.055,0,0.111,0.006,0.165,0.018c0.405,0.093,0.658,0.495,0.566,0.898c-0.321,1.41-1.034,2.681-2.064,3.689v4.395
		c0,1.241-1.009,2.25-2.25,2.25H4.506z M3.756,21.75c0,0.414,0.336,0.75,0.75,0.75h6c0.414,0,0.75-0.336,0.75-0.75v-3.262
		c-1.145,0.666-2.428,1.015-3.749,1.015c-0.558,0-1.118-0.063-1.666-0.188c-0.739-0.168-1.437-0.442-2.085-0.818V21.75z"/>
	<path d="M19.793,13.5c-0.183,0-0.365-0.022-0.543-0.067l-0.872-0.218c-3.673-0.917-6.526-3.768-7.445-7.44l-0.218-0.874
		c-0.189-0.765,0.041-1.584,0.6-2.138l0.457-0.458c0.425-0.424,0.99-0.658,1.591-0.658c0.601,0,1.166,0.234,1.591,0.658l0.531,0.529
		c0.878,0.877,0.878,2.305,0.002,3.182l-1.988,1.975c0.681,1.066,1.591,1.977,2.657,2.657l1.979-1.979
		c0.424-0.424,0.989-0.658,1.591-0.658c0.601,0,1.167,0.234,1.591,0.658l0.531,0.53c0.877,0.878,0.877,2.305,0,3.182l-0.459,0.46
		C20.969,13.26,20.388,13.5,19.793,13.5z M17.554,11.372c0.386,0.157,0.784,0.287,1.188,0.388l0.873,0.218
		c0.059,0.015,0.119,0.022,0.18,0.022c0.199,0,0.394-0.08,0.532-0.219l0.46-0.461c0.292-0.293,0.292-0.769,0-1.061l-0.53-0.529
		c-0.142-0.141-0.33-0.219-0.531-0.219c-0.2,0-0.389,0.078-0.53,0.219L17.554,11.372z M13.363,3.147
		c-0.201,0-0.389,0.078-0.53,0.219l-0.46,0.46c-0.188,0.186-0.265,0.46-0.202,0.714l0.217,0.871c0.101,0.404,0.231,0.8,0.388,1.184
		l1.65-1.64c0.291-0.292,0.291-0.767-0.001-1.06l-0.531-0.53C13.752,3.225,13.563,3.147,13.363,3.147z"/>
	<path d="M18.756,6c-0.089,0-0.176-0.016-0.261-0.048c-0.011-0.004-0.022-0.008-0.032-0.012c-0.176-0.072-0.324-0.221-0.4-0.404
		c-0.003-0.008-0.007-0.017-0.01-0.026c-0.031-0.082-0.047-0.17-0.047-0.259v-3c0-0.414,0.336-0.75,0.75-0.75s0.75,0.336,0.75,0.75
		v1.189l3.22-3.22C22.868,0.078,23.056,0,23.256,0s0.389,0.078,0.53,0.22c0.142,0.141,0.22,0.33,0.22,0.53s-0.078,0.389-0.22,0.53
		l-3.22,3.22h1.189c0.414,0,0.75,0.336,0.75,0.75S22.17,6,21.756,6H18.756z"/>
</g>
</svg>
