<?xml version="1.0" encoding="utf-8"?>
<!-- Generator: Adobe Illustrator 22.1.0, SVG Export Plug-In . SVG Version: 6.00 Build 0)  -->
<svg version="1.1" id="Layer_1" xmlns="http://www.w3.org/2000/svg" xmlns:xlink="http://www.w3.org/1999/xlink" x="0px" y="0px"
	 viewBox="0 0 24 24" style="enable-background:new 0 0 24 24;" xml:space="preserve">
<title>smart-watch-circle-play</title>
<g>
	<path d="M13.557,13.27c-0.137,0-0.275-0.018-0.409-0.055c-0.402-0.109-0.737-0.368-0.944-0.729
		c-0.135-0.235-0.206-0.503-0.206-0.773V1.559c0-0.417,0.163-0.808,0.458-1.102c0.294-0.293,0.685-0.455,1.1-0.455
		c0.273,0,0.541,0.072,0.776,0.207l8.882,5.074c0.363,0.212,0.621,0.549,0.728,0.953s0.05,0.824-0.159,1.183
		c-0.135,0.233-0.33,0.427-0.563,0.563l-8.888,5.081C14.094,13.198,13.827,13.27,13.557,13.27z M13.555,1.502
		c-0.016,0-0.029,0.005-0.041,0.017c-0.012,0.012-0.017,0.025-0.017,0.042v10.152c0,0.009,0.003,0.02,0.008,0.029
		c0.008,0.013,0.019,0.022,0.035,0.026c0.006,0.001,0.012,0.001,0.016,0.001c0.014,0,0.021-0.002,0.027-0.006l8.884-5.079
		c0.003-0.002,0.011-0.009,0.017-0.019c0.016-0.028,0.006-0.065-0.022-0.082L13.585,1.51C13.576,1.505,13.565,1.502,13.555,1.502
		V1.127V1.502z"/>
	<path d="M4.497,24c-1.241,0-2.25-1.009-2.25-2.25v-4.41c-0.998-0.978-1.698-2.215-2.029-3.587
		c-0.469-1.947-0.153-3.959,0.892-5.667C1.426,7.569,1.808,7.09,2.247,6.66V2.25C2.247,1.009,3.257,0,4.497,0h5.25
		c0.414,0,0.75,0.336,0.75,0.75S10.161,1.5,9.747,1.5h-5.25c-0.414,0-0.75,0.336-0.75,0.75v3.276
		c1.148-0.662,2.47-1.021,3.789-1.021c0.842,0,1.67,0.142,2.462,0.421c0.39,0.137,0.595,0.567,0.458,0.957
		c-0.106,0.299-0.39,0.5-0.708,0.5C9.664,6.384,9.58,6.37,9.5,6.342C8.865,6.118,8.202,6.004,7.527,6.004
		c-2.088,0-4.057,1.098-5.137,2.864c-0.835,1.366-1.089,2.976-0.713,4.533c0.375,1.557,1.335,2.875,2.701,3.71
		c0.945,0.578,2.022,0.883,3.116,0.883c0.474,0,0.951-0.057,1.418-0.17c0.954-0.23,1.843-0.692,2.568-1.335
		c0.008-0.007,0.015-0.014,0.02-0.018c0.435-0.389,0.813-0.843,1.121-1.347c0.137-0.225,0.376-0.359,0.64-0.359
		c0.138,0,0.273,0.038,0.391,0.11c0.171,0.104,0.291,0.269,0.338,0.464c0.047,0.195,0.015,0.396-0.089,0.567
		c-0.323,0.528-0.71,1.015-1.154,1.45v4.394c0,1.241-1.009,2.25-2.25,2.25H4.497z M3.747,21.75c0,0.414,0.336,0.75,0.75,0.75h6
		c0.414,0,0.75-0.336,0.75-0.75v-3.256c-0.617,0.355-1.282,0.62-1.984,0.789c-0.583,0.14-1.178,0.212-1.771,0.212
		c-1.311,0-2.602-0.35-3.745-1.013V21.75z"/>
</g>
</svg>
