<?xml version="1.0" encoding="utf-8"?>
<!-- Generator: Adobe Illustrator 22.1.0, SVG Export Plug-In . SVG Version: 6.00 Build 0)  -->
<svg version="1.1" id="Layer_1" xmlns="http://www.w3.org/2000/svg" xmlns:xlink="http://www.w3.org/1999/xlink" x="0px" y="0px"
	 viewBox="0 0 24 24" style="enable-background:new 0 0 24 24;" xml:space="preserve">
<title>smart-watch-circle-brightness</title>
<g>
	<path d="M22.875,7.122c-0.301,0-0.583-0.117-0.795-0.329c-0.213-0.213-0.33-0.495-0.33-0.795c0-0.62,0.504-1.125,1.125-1.125
		c0.041,0,0.08,0.003,0.117,0.009C23.559,4.94,24,5.428,24,6C23.995,6.62,23.49,7.122,22.875,7.122z"/>
	<path d="M11.625,7.122c-0.301,0-0.583-0.117-0.795-0.329C10.617,6.58,10.5,6.298,10.5,5.997c0-0.62,0.505-1.125,1.125-1.125
		c0.04,0,0.079,0.003,0.118,0.009C12.309,4.94,12.75,5.428,12.75,6C12.745,6.62,12.241,7.122,11.625,7.122z"/>
	<path d="M20.062,2.252c-0.301,0-0.584-0.118-0.796-0.331c-0.212-0.213-0.329-0.496-0.329-0.797c0-0.3,0.117-0.583,0.33-0.795
		C19.48,0.117,19.762,0,20.062,0c0.201,0,0.396,0.053,0.567,0.153c0.344,0.198,0.559,0.571,0.559,0.973
		C21.188,1.747,20.683,2.252,20.062,2.252L20.062,2.252z"/>
	<path d="M14.439,11.991c-0.3,0-0.583-0.117-0.795-0.329c-0.212-0.212-0.33-0.495-0.33-0.795c0-0.62,0.504-1.124,1.123-1.124
		c0.198,0,0.392,0.052,0.562,0.15c0.347,0.2,0.562,0.573,0.562,0.974C15.562,11.486,15.058,11.991,14.439,11.991L14.439,11.991z"/>
	<path d="M14.438,2.246c-0.098,0-0.196-0.013-0.292-0.038c-0.29-0.078-0.532-0.264-0.682-0.523c-0.15-0.26-0.19-0.562-0.113-0.852
		c0.078-0.29,0.264-0.532,0.523-0.682C14.042,0.052,14.237,0,14.435,0c0.402,0,0.775,0.216,0.974,0.562
		c0.149,0.26,0.189,0.562,0.112,0.851c-0.078,0.29-0.264,0.532-0.523,0.682C14.828,2.194,14.634,2.246,14.438,2.246z"/>
	<path d="M20.062,11.993c-0.62,0-1.125-0.505-1.125-1.125c0-0.3,0.117-0.583,0.33-0.795c0.212-0.213,0.495-0.329,0.795-0.329
		c0.402,0,0.775,0.216,0.975,0.564c0.098,0.171,0.15,0.365,0.15,0.561C21.187,11.488,20.682,11.993,20.062,11.993L20.062,11.993z"/>
	<path d="M17.25,8.997c-1.654,0-3-1.346-3-3s1.346-3,3-3s3,1.346,3,3S18.904,8.997,17.25,8.997z M17.25,4.497
		c-0.827,0-1.5,0.673-1.5,1.5s0.673,1.5,1.5,1.5s1.5-0.673,1.5-1.5S18.077,4.497,17.25,4.497z"/>
	<path d="M4.5,24c-1.241,0-2.25-1.009-2.25-2.25v-4.372c-0.032-0.031-0.064-0.062-0.095-0.094c-1.412-1.421-2.185-3.307-2.178-5.311
		C-0.017,9.971,0.77,8.09,2.192,6.678C2.211,6.659,2.23,6.64,2.25,6.622V2.25C2.25,1.009,3.259,0,4.5,0h6
		c0.414,0,0.75,0.336,0.75,0.75S10.914,1.5,10.5,1.5h-6c-0.414,0-0.75,0.336-0.75,0.75v3.242C4.881,4.843,6.164,4.502,7.501,4.5
		c0.32,0.012,0.611,0.041,0.904,0.089C8.602,4.621,8.775,4.728,8.892,4.89C9.01,5.053,9.056,5.251,9.024,5.449
		c-0.059,0.365-0.37,0.63-0.74,0.63c-0.04,0-0.08-0.003-0.12-0.01C7.935,6.032,7.702,6.009,7.47,6C6.046,6,4.673,6.507,3.591,7.43
		c-0.055,0.07-0.123,0.13-0.2,0.178C3.343,7.652,3.295,7.696,3.248,7.743c-1.137,1.129-1.766,2.634-1.772,4.236
		c-0.005,1.602,0.613,3.111,1.743,4.249c0.055,0.056,0.111,0.11,0.168,0.163c0.079,0.047,0.148,0.108,0.204,0.18
		C4.667,17.488,6.037,17.995,7.456,18c2.53,0,4.794-1.583,5.656-3.939c0.108-0.295,0.391-0.493,0.705-0.493
		c0.087,0,0.174,0.015,0.256,0.045c0.389,0.143,0.59,0.574,0.448,0.962c-0.377,1.03-0.987,1.978-1.771,2.752v4.423
		c0,1.241-1.009,2.25-2.25,2.25H4.5z M3.75,21.75c0,0.414,0.336,0.75,0.75,0.75h6c0.414,0,0.75-0.336,0.75-0.75v-3.276
		C10.102,19.147,8.81,19.5,7.476,19.5c0,0-0.025,0-0.026,0c-1.313-0.005-2.579-0.345-3.7-0.99V21.75z"/>
</g>
</svg>
