<svg xmlns="http://www.w3.org/2000/svg" viewBox="0 0 24 24"><defs><style>.a{fill:none;stroke:currentColor;stroke-linecap:round;stroke-linejoin:round;}</style></defs><title>vip-crown-king-1</title><path class="a" d="M20,22.5H4a1.5,1.5,0,0,1,0-3H20A1.5,1.5,0,0,1,20,22.5Z"/><polygon class="a" points="11.998 7.501 10.498 9.501 11.998 11.501 13.498 9.501 11.998 7.501"/><path class="a" d="M19.5,19.5l2.008-6.826a.5.5,0,0,0-.812-.514l-1.714,1.522a1.932,1.932,0,0,1-2.827-.143c-.859-1.23.243-2.136,1.016-2.765a.5.5,0,0,0,.117-.638L12.432,1.749a.5.5,0,0,0-.866,0L6.71,10.137a.5.5,0,0,0,.117.638c.773.63,1.874,1.535,1.016,2.765a1.933,1.933,0,0,1-2.827.143L3.3,12.161a.5.5,0,0,0-.812.514L4.5,19.5"/></svg>