<svg id="Bold" xmlns="http://www.w3.org/2000/svg" viewBox="0 0 24 24"><title>single-woman-chat</title><path d="M24,1.5A1.5,1.5,0,0,0,22.5,0h-10A1.5,1.5,0,0,0,11,1.5v7A1.5,1.5,0,0,0,12.5,10H14v2.5a.5.5,0,0,0,.813.391L18.425,10H22.5A1.5,1.5,0,0,0,24,8.5Zm-10,5a1,1,0,1,1,1-1A1,1,0,0,1,14,6.5Zm3.5,0a1,1,0,1,1,1-1A1,1,0,0,1,17.5,6.5Zm3.5,0a1,1,0,1,1,1-1A1,1,0,0,1,21,6.5Z"/><path d="M11.982,17.868l-1.8-6.285A4.255,4.255,0,0,0,8.944,9.458a.5.5,0,0,0-.764.1L6.425,12.318a.5.5,0,0,1-.846,0L3.839,9.54a.5.5,0,0,0-.358-.23.5.5,0,0,0-.4.128,4.219,4.219,0,0,0-1.254,2.129l-1.8,6.3A.5.5,0,0,0,.5,18.5H2.823a.251.251,0,0,1,.246.2L4,23.6a.5.5,0,0,0,.489.4h3a.5.5,0,0,0,.49-.4l.931-4.9a.249.249,0,0,1,.245-.2H11.5a.5.5,0,0,0,.482-.632Z"/><path d="M5.979,8.531a4.25,4.25,0,1,0-4.25-4.25A4.255,4.255,0,0,0,5.979,8.531Zm0-2a2.249,2.249,0,0,1-2.16-1.64.249.249,0,0,1,.16-.3A4.67,4.67,0,0,0,5.8,3.447a.25.25,0,0,1,.357,0,4.67,4.67,0,0,0,1.821,1.14.249.249,0,0,1,.159.3A2.247,2.247,0,0,1,5.979,6.531Z"/><path d="M24,1.5A1.5,1.5,0,0,0,22.5,0h-10A1.5,1.5,0,0,0,11,1.5v7A1.5,1.5,0,0,0,12.5,10H14v2.5a.5.5,0,0,0,.813.391L18.425,10H22.5A1.5,1.5,0,0,0,24,8.5Zm-10,5a1,1,0,1,1,1-1A1,1,0,0,1,14,6.5Zm3.5,0a1,1,0,1,1,1-1A1,1,0,0,1,17.5,6.5Zm3.5,0a1,1,0,1,1,1-1A1,1,0,0,1,21,6.5Z"/><path d="M11.982,17.868l-1.8-6.285A4.255,4.255,0,0,0,8.944,9.458a.5.5,0,0,0-.764.1L6.425,12.318a.5.5,0,0,1-.846,0L3.839,9.54a.5.5,0,0,0-.358-.23.5.5,0,0,0-.4.128,4.219,4.219,0,0,0-1.254,2.129l-1.8,6.3A.5.5,0,0,0,.5,18.5H2.823a.251.251,0,0,1,.246.2L4,23.6a.5.5,0,0,0,.489.4h3a.5.5,0,0,0,.49-.4l.931-4.9a.249.249,0,0,1,.245-.2H11.5a.5.5,0,0,0,.482-.632Z"/><path d="M5.979,8.531a4.25,4.25,0,1,0-4.25-4.25A4.255,4.255,0,0,0,5.979,8.531Zm0-2a2.249,2.249,0,0,1-2.16-1.64.249.249,0,0,1,.16-.3A4.67,4.67,0,0,0,5.8,3.447a.25.25,0,0,1,.357,0,4.67,4.67,0,0,0,1.821,1.14.249.249,0,0,1,.159.3A2.247,2.247,0,0,1,5.979,6.531Z"/></svg>