<svg id="Bold" xmlns="http://www.w3.org/2000/svg" viewBox="0 0 24 24"><title>single-woman-idea</title><path d="M21.751,10.5a.5.5,0,0,0,.341-.135,6,6,0,1,0-8.18,0,.5.5,0,0,0,.342.134Z"/><path d="M15.5,11.5a.5.5,0,0,0-.5.5,2,2,0,0,0,1.778,1.988.249.249,0,0,1,.222.248V15a1,1,0,0,0,2,0v-.764a.25.25,0,0,1,.222-.248A2,2,0,0,0,21,12a.5.5,0,0,0-.5-.5Z"/><path d="M11.982,17.868l-1.8-6.285A4.255,4.255,0,0,0,8.944,9.458a.5.5,0,0,0-.764.1L6.425,12.318a.5.5,0,0,1-.846,0L3.839,9.54a.5.5,0,0,0-.358-.23.5.5,0,0,0-.4.128,4.219,4.219,0,0,0-1.254,2.129l-1.8,6.3A.5.5,0,0,0,.5,18.5H2.823a.251.251,0,0,1,.246.2L4,23.6a.5.5,0,0,0,.489.4h3a.5.5,0,0,0,.49-.4l.931-4.9a.249.249,0,0,1,.245-.2H11.5a.5.5,0,0,0,.482-.632Z"/><path d="M5.979,8.531a4.25,4.25,0,1,0-4.25-4.25A4.255,4.255,0,0,0,5.979,8.531Zm0-2a2.249,2.249,0,0,1-2.16-1.64.249.249,0,0,1,.16-.3A4.67,4.67,0,0,0,5.8,3.447a.25.25,0,0,1,.357,0,4.67,4.67,0,0,0,1.821,1.14.249.249,0,0,1,.159.3A2.247,2.247,0,0,1,5.979,6.531Z"/><path d="M21.751,10.5a.5.5,0,0,0,.341-.135,6,6,0,1,0-8.18,0,.5.5,0,0,0,.342.134Z"/><path d="M15.5,11.5a.5.5,0,0,0-.5.5,2,2,0,0,0,1.778,1.988.249.249,0,0,1,.222.248V15a1,1,0,0,0,2,0v-.764a.25.25,0,0,1,.222-.248A2,2,0,0,0,21,12a.5.5,0,0,0-.5-.5Z"/><path d="M11.982,17.868l-1.8-6.285A4.255,4.255,0,0,0,8.944,9.458a.5.5,0,0,0-.764.1L6.425,12.318a.5.5,0,0,1-.846,0L3.839,9.54a.5.5,0,0,0-.358-.23.5.5,0,0,0-.4.128,4.219,4.219,0,0,0-1.254,2.129l-1.8,6.3A.5.5,0,0,0,.5,18.5H2.823a.251.251,0,0,1,.246.2L4,23.6a.5.5,0,0,0,.489.4h3a.5.5,0,0,0,.49-.4l.931-4.9a.249.249,0,0,1,.245-.2H11.5a.5.5,0,0,0,.482-.632Z"/><path d="M5.979,8.531a4.25,4.25,0,1,0-4.25-4.25A4.255,4.255,0,0,0,5.979,8.531Zm0-2a2.249,2.249,0,0,1-2.16-1.64.249.249,0,0,1,.16-.3A4.67,4.67,0,0,0,5.8,3.447a.25.25,0,0,1,.357,0,4.67,4.67,0,0,0,1.821,1.14.249.249,0,0,1,.159.3A2.247,2.247,0,0,1,5.979,6.531Z"/></svg>