<svg id="Bold" xmlns="http://www.w3.org/2000/svg" viewBox="0 0 24 24"><title>single-woman-check</title><path d="M23.786,1.657a.735.735,0,0,0-.375-.19,1,1,0,0,0-1.112.2L17.683,6.284a.251.251,0,0,1-.354,0L16.15,5.105a1,1,0,0,0-1.414,1.414L16.313,8.1a1.69,1.69,0,0,0,2.386,0l5.014-5.014a.984.984,0,0,0,.274-.8A.734.734,0,0,0,23.786,1.657Z"/><path d="M23.055,7.19a1,1,0,0,0-1.254.656A4.5,4.5,0,1,1,17.506,2a1,1,0,0,0,0-2,6.5,6.5,0,1,0,6.2,8.443A1,1,0,0,0,23.055,7.19Z"/><path d="M11.988,17.868l-1.8-6.285A4.246,4.246,0,0,0,8.95,9.458a.5.5,0,0,0-.764.1L6.431,12.318a.5.5,0,0,1-.846,0L3.844,9.54a.5.5,0,0,0-.763-.1,4.211,4.211,0,0,0-1.253,2.129l-1.805,6.3a.5.5,0,0,0,.483.632H2.829a.251.251,0,0,1,.246.2l.931,4.9A.5.5,0,0,0,4.5,24h3a.5.5,0,0,0,.489-.4l.931-4.9a.251.251,0,0,1,.246-.2h2.345a.5.5,0,0,0,.482-.632Z"/><path d="M5.984,8.531a4.25,4.25,0,1,0-4.25-4.25A4.255,4.255,0,0,0,5.984,8.531Zm0-2a2.249,2.249,0,0,1-2.159-1.64.249.249,0,0,1,.16-.3,4.67,4.67,0,0,0,1.821-1.14.249.249,0,0,1,.356,0,4.674,4.674,0,0,0,1.822,1.14.25.25,0,0,1,.159.3A2.247,2.247,0,0,1,5.984,6.531Z"/><path d="M23.786,1.657a.735.735,0,0,0-.375-.19,1,1,0,0,0-1.112.2L17.683,6.284a.251.251,0,0,1-.354,0L16.15,5.105a1,1,0,0,0-1.414,1.414L16.313,8.1a1.69,1.69,0,0,0,2.386,0l5.014-5.014a.984.984,0,0,0,.274-.8A.734.734,0,0,0,23.786,1.657Z"/><path d="M23.055,7.19a1,1,0,0,0-1.254.656A4.5,4.5,0,1,1,17.506,2a1,1,0,0,0,0-2,6.5,6.5,0,1,0,6.2,8.443A1,1,0,0,0,23.055,7.19Z"/><path d="M11.988,17.868l-1.8-6.285A4.246,4.246,0,0,0,8.95,9.458a.5.5,0,0,0-.764.1L6.431,12.318a.5.5,0,0,1-.846,0L3.844,9.54a.5.5,0,0,0-.763-.1,4.211,4.211,0,0,0-1.253,2.129l-1.805,6.3a.5.5,0,0,0,.483.632H2.829a.251.251,0,0,1,.246.2l.931,4.9A.5.5,0,0,0,4.5,24h3a.5.5,0,0,0,.489-.4l.931-4.9a.251.251,0,0,1,.246-.2h2.345a.5.5,0,0,0,.482-.632Z"/><path d="M5.984,8.531a4.25,4.25,0,1,0-4.25-4.25A4.255,4.255,0,0,0,5.984,8.531Zm0-2a2.249,2.249,0,0,1-2.159-1.64.249.249,0,0,1,.16-.3,4.67,4.67,0,0,0,1.821-1.14.249.249,0,0,1,.356,0,4.674,4.674,0,0,0,1.822,1.14.25.25,0,0,1,.159.3A2.247,2.247,0,0,1,5.984,6.531Z"/></svg>