<svg id="Bold" xmlns="http://www.w3.org/2000/svg" viewBox="0 0 24 24"><title>single-woman-statics-1</title><path d="M24,2a2,2,0,0,0-2-2H11.5a1,1,0,0,0,0,2h10a.5.5,0,0,1,.5.5v11a.5.5,0,0,1-.5.5H13.75a1,1,0,0,0,0,2H22a2,2,0,0,0,2-2Z"/><path d="M14.348,10.663l1.334-2.134a.249.249,0,0,1,.388-.044l1.056,1.056a1,1,0,0,0,1.556-.178L20.848,5.9a1,1,0,0,0-1.7-1.059L17.818,6.971a.249.249,0,0,1-.388.044L16.374,5.959a1,1,0,0,0-1.556.178L12.652,9.6a1,1,0,0,0,1.7,1.059Z"/><path d="M11.983,17.868l-1.8-6.285A4.248,4.248,0,0,0,8.944,9.458a.5.5,0,0,0-.764.1L6.425,12.318a.5.5,0,0,1-.846,0L3.839,9.54a.5.5,0,0,0-.357-.23.5.5,0,0,0-.406.128,4.219,4.219,0,0,0-1.254,2.129l-1.8,6.3A.5.5,0,0,0,.5,18.5H2.823a.25.25,0,0,1,.246.2L4,23.6a.5.5,0,0,0,.489.4h3a.5.5,0,0,0,.49-.4l.931-4.9a.249.249,0,0,1,.245-.2H11.5a.5.5,0,0,0,.483-.632Z"/><path d="M5.979,8.531a4.25,4.25,0,1,0-4.25-4.25A4.255,4.255,0,0,0,5.979,8.531Zm0-2A2.247,2.247,0,0,1,3.82,4.891a.25.25,0,0,1,.159-.3A4.67,4.67,0,0,0,5.8,3.447a.25.25,0,0,1,.357,0,4.67,4.67,0,0,0,1.821,1.14.25.25,0,0,1,.16.3A2.249,2.249,0,0,1,5.979,6.531Z"/><path d="M24,2a2,2,0,0,0-2-2H11.5a1,1,0,0,0,0,2h10a.5.5,0,0,1,.5.5v11a.5.5,0,0,1-.5.5H13.75a1,1,0,0,0,0,2H22a2,2,0,0,0,2-2Z"/><path d="M14.348,10.663l1.334-2.134a.249.249,0,0,1,.388-.044l1.056,1.056a1,1,0,0,0,1.556-.178L20.848,5.9a1,1,0,0,0-1.7-1.059L17.818,6.971a.249.249,0,0,1-.388.044L16.374,5.959a1,1,0,0,0-1.556.178L12.652,9.6a1,1,0,0,0,1.7,1.059Z"/><path d="M11.983,17.868l-1.8-6.285A4.248,4.248,0,0,0,8.944,9.458a.5.5,0,0,0-.764.1L6.425,12.318a.5.5,0,0,1-.846,0L3.839,9.54a.5.5,0,0,0-.357-.23.5.5,0,0,0-.406.128,4.219,4.219,0,0,0-1.254,2.129l-1.8,6.3A.5.5,0,0,0,.5,18.5H2.823a.25.25,0,0,1,.246.2L4,23.6a.5.5,0,0,0,.489.4h3a.5.5,0,0,0,.49-.4l.931-4.9a.249.249,0,0,1,.245-.2H11.5a.5.5,0,0,0,.483-.632Z"/><path d="M5.979,8.531a4.25,4.25,0,1,0-4.25-4.25A4.255,4.255,0,0,0,5.979,8.531Zm0-2A2.247,2.247,0,0,1,3.82,4.891a.25.25,0,0,1,.159-.3A4.67,4.67,0,0,0,5.8,3.447a.25.25,0,0,1,.357,0,4.67,4.67,0,0,0,1.821,1.14.25.25,0,0,1,.16.3A2.249,2.249,0,0,1,5.979,6.531Z"/></svg>