<svg xmlns="http://www.w3.org/2000/svg" viewBox="0 0 24 24"><defs><style>.a{fill:none;stroke:currentColor;stroke-linecap:round;stroke-linejoin:round;stroke-width:1.5px;}</style></defs><title>time-clock-file-shield</title><path class="a" d="M23.25,15.75a7.669,7.669,0,0,1-6,7.5,7.669,7.669,0,0,1-6-7.5V12.209a1.5,1.5,0,0,1,.915-1.381,12.535,12.535,0,0,1,10.17,0,1.5,1.5,0,0,1,.915,1.381Z"/><line class="a" x1="17.25" y1="12.75" x2="17.25" y2="18.75"/><line class="a" x1="14.25" y1="15.75" x2="20.25" y2="15.75"/><path class="a" d="M8.25,14.25a4.5,4.5,0,1,1,3.957-6.645"/><polyline class="a" points="9.75 9.75 8.25 9.75 8.25 8.25"/><path class="a" d="M7.5,20.25H2.25a1.5,1.5,0,0,1-1.5-1.5V2.25A1.5,1.5,0,0,1,2.25.75H12.879a1.5,1.5,0,0,1,1.06.44l2.872,2.871a1.5,1.5,0,0,1,.439,1.061V6.75"/></svg>