<svg xmlns="http://www.w3.org/2000/svg" viewBox="0 0 24 24"><defs><style>.a{fill:none;stroke:currentColor;stroke-linecap:round;stroke-linejoin:round;stroke-width:1.5px;}</style></defs><title>time-clock-file-favorite</title><path class="a" d="M17.956,11.68,19.5,15.75H22.49a.735.735,0,0,1,.517,1.283l-2.6,1.816,1.44,3.313a.785.785,0,0,1-1.117.982L17.25,21.183l-3.48,1.961a.785.785,0,0,1-1.117-.982l1.44-3.313-2.6-1.816a.734.734,0,0,1,.514-1.283h3l1.541-4.07A.8.8,0,0,1,17.956,11.68Z"/><path class="a" d="M8.25,14.25A4.5,4.5,0,1,1,12.5,8.272"/><polyline class="a" points="9.75 9.75 8.25 9.75 8.25 8.25"/><path class="a" d="M7.5,20.25H2.25a1.5,1.5,0,0,1-1.5-1.5V2.25A1.5,1.5,0,0,1,2.25.75H12.879a1.5,1.5,0,0,1,1.06.44l2.872,2.871a1.5,1.5,0,0,1,.439,1.061V7.5"/></svg>