<svg xmlns="http://www.w3.org/2000/svg" viewBox="0 0 24 24"><defs><style>.a{fill:none;stroke:currentColor;stroke-linecap:round;stroke-linejoin:round;stroke-width:1.5px;}</style></defs><title>time-clock-file-favorite-heart</title><path class="a" d="M17.25,23.25l-5.114-5.334a3.027,3.027,0,0,1-.567-3.493h0a3.026,3.026,0,0,1,4.846-.786l.835.835.835-.835a3.026,3.026,0,0,1,4.846.786h0a3.027,3.027,0,0,1-.567,3.493Z"/><path class="a" d="M8.25,14.25A4.5,4.5,0,1,1,12.5,8.272"/><polyline class="a" points="9.75 9.75 8.25 9.75 8.25 8.25"/><path class="a" d="M7.5,20.25H2.25a1.5,1.5,0,0,1-1.5-1.5V2.25A1.5,1.5,0,0,1,2.25.75H12.879a1.5,1.5,0,0,1,1.06.44l2.872,2.871a1.5,1.5,0,0,1,.439,1.061V9.75"/></svg>