<svg xmlns="http://www.w3.org/2000/svg" viewBox="0 0 24 24"><defs><style>.a{fill:none;stroke:currentColor;stroke-linecap:round;stroke-linejoin:round;stroke-width:1.5px;}</style></defs><title>time-clock-file-upload</title><circle class="a" cx="17.254" cy="17.25" r="5.996"/><line class="a" x1="17.254" y1="20.25" x2="17.254" y2="14.25"/><line class="a" x1="17.254" y1="14.25" x2="15.005" y2="16.5"/><line class="a" x1="17.254" y1="14.25" x2="19.502" y2="16.5"/><path class="a" d="M8.245,14.25a4.5,4.5,0,1,1,4.249-5.978"/><polyline class="a" points="9.744 9.75 8.245 9.75 8.245 8.25"/><path class="a" d="M7.5,20.25H2.249a1.5,1.5,0,0,1-1.5-1.5V2.25a1.5,1.5,0,0,1,1.5-1.5H12.871a1.5,1.5,0,0,1,1.06.44L16.8,4.061a1.5,1.5,0,0,1,.439,1.061V7.5"/></svg>