<svg xmlns="http://www.w3.org/2000/svg" viewBox="0 0 24 24"><defs><style>.a{fill:none;stroke:currentColor;stroke-linecap:round;stroke-linejoin:round;}</style></defs><title>walkman-headphones</title><rect class="a" x="7.5" y="8.5" width="11" height="15" rx="1" ry="1"/><path class="a" d="M5.5,15.5a1,1,0,0,0,1,1h1v-6h-1a1,1,0,0,0-1,1Z"/><line class="a" x1="5.5" y1="13.5" x2="7.5" y2="13.5"/><line class="a" x1="9.5" y1="21.5" x2="16.5" y2="21.5"/><rect class="a" x="9.5" y="10.5" width="7" height="9" rx="0.5" ry="0.5"/><path class="a" d="M13.5,13.25a.25.25,0,1,0,.25.25.249.249,0,0,0-.25-.25h0"/><path class="a" d="M13.5,16.25a.25.25,0,1,0,.25.25.249.249,0,0,0-.25-.25h0"/><path class="a" d="M3.5,16.5a1,1,0,0,1-1,1h0a1,1,0,0,1-1-1v-3a1,1,0,0,1,1-1h0a1,1,0,0,1,1,1Z"/><path class="a" d="M22.5,16.5a1,1,0,0,1-1,1h0a1,1,0,0,1-1-1v-3a1,1,0,0,1,1-1h0a1,1,0,0,1,1,1Z"/><path class="a" d="M22.5,15h1V12a11.5,11.5,0,0,0-23,0v3h1"/></svg>