<svg xmlns="http://www.w3.org/2000/svg" viewBox="0 0 24 24"><title>time-clock-file-timer</title><path d="M23.487,2.928,21.073.514A1.76,1.76,0,0,0,19.836,0H8.25A1.752,1.752,0,0,0,6.5,1.751V9.264c.084,0,.166-.013.25-.013A7.925,7.925,0,0,1,8,9.359V1.751a.25.25,0,0,1,.25-.25H19.836a.257.257,0,0,1,.177.073l2.414,2.414a.251.251,0,0,1,.073.177V18.251a.25.25,0,0,1-.25.25H14.642a8,8,0,0,1-.389,1.5h8A1.752,1.752,0,0,0,24,18.251V4.165A1.736,1.736,0,0,0,23.487,2.928Z"/><path d="M6.75,10.5a6.75,6.75,0,1,0,6.75,6.75A6.758,6.758,0,0,0,6.75,10.5Zm0,11.5a4.75,4.75,0,1,1,4.75-4.75A4.756,4.756,0,0,1,6.75,22Z"/><path d="M8.75,16.251H8A.25.25,0,0,1,7.75,16v-1.25a1,1,0,1,0-2,0v2.5a1,1,0,0,0,1,1h2a1,1,0,0,0,0-2Z"/><path d="M15.75,13A4.75,4.75,0,1,0,11,8.251,4.756,4.756,0,0,0,15.75,13Zm0-8a3.25,3.25,0,1,1-3.25,3.25A3.254,3.254,0,0,1,15.75,5Z"/><path d="M15.75,9h1.768a.75.75,0,1,0,0-1.5h-.767a.252.252,0,0,1-.251-.252V6.483a.75.75,0,0,0-1.5,0V8.251A.75.75,0,0,0,15.75,9Z"/></svg>