<svg xmlns="http://www.w3.org/2000/svg" viewBox="0 0 24 24"><title>time-clock-file-edit</title><path d="M23.413,3,21,.587A2,2,0,0,0,19.585,0H8A2,2,0,0,0,6,2v9.582a.249.249,0,0,0,.421.182c.481-.467,1.235-1.193,1.5-1.426A.241.241,0,0,0,8,10.156V2.5A.5.5,0,0,1,8.5,2H19.378a.5.5,0,0,1,.354.147l2.121,2.121A.5.5,0,0,1,22,4.622V18a.5.5,0,0,1-.5.5H11.431a.25.25,0,0,0-.177.074l-1.5,1.5a.249.249,0,0,0,.177.426H22a2,2,0,0,0,2-2V4.416A2,2,0,0,0,23.413,3Z"/><path d="M13.99,11.675a4.09,4.09,0,0,1,.437,1.3.357.357,0,0,0,.149.18,4.6,4.6,0,0,0,.923.1,4.75,4.75,0,1,0-4.75-4.75,4.616,4.616,0,0,0,.091.887.439.439,0,0,0,.226.189,4.059,4.059,0,0,1,1.284.444c.154.085.245-.051.165-.233a3.25,3.25,0,1,1,1.649,1.676C14,11.389,13.9,11.512,13.99,11.675Z"/><path d="M1.061,20.132a.25.25,0,0,0-.422.128L.011,23.4A.5.5,0,0,0,.5,24a.55.55,0,0,0,.1-.009l3.143-.629a.25.25,0,0,0,.128-.422Z"/><path d="M12.035,11.592a2.71,2.71,0,0,0-3.606.273l-6.58,6.58a.252.252,0,0,0,0,.354L5.2,22.152a.249.249,0,0,0,.353,0l6.679-6.679A2.622,2.622,0,0,0,12.035,11.592Z"/><path d="M15.5,5.984a.75.75,0,0,0-.75.75V8.5a.75.75,0,0,0,.75.75h1.768a.75.75,0,1,0,0-1.5H16.5a.251.251,0,0,1-.252-.251V6.734A.75.75,0,0,0,15.5,5.984Z"/></svg>