<svg xmlns="http://www.w3.org/2000/svg" viewBox="0 0 24 24"><title>time-clock-file-block</title><path d="M23.414,3,21,.586A2,2,0,0,0,19.586,0H8A2,2,0,0,0,6,2V9.276a.244.244,0,0,0,.255.244,8.165,8.165,0,0,1,1.46.086A.245.245,0,0,0,8,9.365V2.5A.5.5,0,0,1,8.5,2H19.379a.5.5,0,0,1,.353.146l2.122,2.121A.5.5,0,0,1,22,4.622V18a.5.5,0,0,1-.5.5H14.635a.242.242,0,0,0-.24.209,8,8,0,0,1-.363,1.459.244.244,0,0,0,.229.331H22a2,2,0,0,0,2-2V4.415A2,2,0,0,0,23.414,3Z"/><path d="M6.5,11A6.5,6.5,0,1,0,13,17.5,6.5,6.5,0,0,0,6.5,11ZM2.533,19.6a4.45,4.45,0,0,1-.367-3.32,4.5,4.5,0,0,1,3.112-3.116,4.444,4.444,0,0,1,3.325.367.252.252,0,0,1,.052.4L2.931,19.655A.252.252,0,0,1,2.533,19.6Zm8.3-.887a4.494,4.494,0,0,1-3.112,3.116A4.438,4.438,0,0,1,4.4,21.467a.252.252,0,0,1-.052-.4l5.724-5.722a.252.252,0,0,1,.4.051A4.448,4.448,0,0,1,10.834,18.717Z"/><path d="M15.5,13.251A4.75,4.75,0,1,0,10.75,8.5,4.756,4.756,0,0,0,15.5,13.251Zm0-8A3.25,3.25,0,1,1,12.25,8.5,3.254,3.254,0,0,1,15.5,5.251Z"/><path d="M15.5,9.251h1.768a.75.75,0,1,0,0-1.5H16.5A.252.252,0,0,1,16.25,7.5V6.733a.75.75,0,0,0-1.5,0V8.5A.75.75,0,0,0,15.5,9.251Z"/></svg>