<svg xmlns="http://www.w3.org/2000/svg" viewBox="0 0 24 24"><title>time-clock-file-warning</title><path d="M23.362,3.053,20.947.638A1.749,1.749,0,0,0,19.71.126H8.124a1.75,1.75,0,0,0-1.75,1.75v7.8a.245.245,0,0,0,.222.248,7.37,7.37,0,0,1,.963.152.249.249,0,0,0,.315-.24V1.876a.251.251,0,0,1,.25-.25H19.71l.177.073L22.3,4.113a.249.249,0,0,1,.073.177V18.376a.251.251,0,0,1-.25.25h-8.9c-.134,0-.151.133-.1.232l.6,1.134a.251.251,0,0,0,.222.134h8.187a1.75,1.75,0,0,0,1.75-1.75V4.29A1.749,1.749,0,0,0,23.362,3.053Z"/><path d="M7.905,12.147a1.449,1.449,0,0,0-2.561,0L.289,21.781a1.426,1.426,0,0,0,.047,1.408,1.454,1.454,0,0,0,1.233.687H11.68a1.456,1.456,0,0,0,1.233-.686,1.428,1.428,0,0,0,.047-1.409ZM5.874,15.876a.75.75,0,0,1,1.5,0v3a.75.75,0,0,1-1.5,0Zm.75,6.25a1,1,0,1,1,1-1A1,1,0,0,1,6.624,22.126Z"/><path d="M20.374,8.376a4.75,4.75,0,1,0-4.75,4.75A4.755,4.755,0,0,0,20.374,8.376Zm-8,0a3.25,3.25,0,1,1,3.25,3.25A3.254,3.254,0,0,1,12.374,8.376Z"/><path d="M17.392,9.126a.75.75,0,1,0,0-1.5h-.766a.252.252,0,0,1-.252-.252V6.608a.75.75,0,0,0-1.5,0V8.376a.75.75,0,0,0,.75.75Z"/></svg>