<svg xmlns="http://www.w3.org/2000/svg" viewBox="0 0 24 24"><title>time-clock-file</title><path d="M23.414,3,21,.585A2,2,0,0,0,19.586,0H8.125a2,2,0,0,0-2,2V9.151a.247.247,0,0,0,.242.249c.366.007,1.038.034,1.485.083a.247.247,0,0,0,.273-.249V2.5a.5.5,0,0,1,.5-.5H19.379a.5.5,0,0,1,.353.146l2.122,2.122A.5.5,0,0,1,22,4.621V17.875a.5.5,0,0,1-.5.5H14.767a.244.244,0,0,0-.241.21,7.935,7.935,0,0,1-.364,1.458.244.244,0,0,0,.228.331H22a2,2,0,0,0,2-2V4.414A2,2,0,0,0,23.414,3Z"/><path d="M6.75,10.5a6.75,6.75,0,1,0,6.75,6.75A6.758,6.758,0,0,0,6.75,10.5Zm0,11.5a4.75,4.75,0,1,1,4.75-4.75A4.756,4.756,0,0,1,6.75,22Z"/><path d="M8.75,16.25H8A.25.25,0,0,1,7.75,16V14.75a1,1,0,0,0-2,0v2.5a1,1,0,0,0,1,1h2a1,1,0,0,0,0-2Z"/></svg>