<svg xmlns="http://www.w3.org/2000/svg" viewBox="0 0 24 24"><title>time-clock-file-lock</title><path d="M23.363,3.053,20.948.638A1.749,1.749,0,0,0,19.711.126H8.125a1.749,1.749,0,0,0-1.75,1.75V9.649a.242.242,0,0,0,.169.228,4.466,4.466,0,0,1,1.078.53c.086.058.253.059.253-.111V1.876a.251.251,0,0,1,.25-.25H19.711l.177.073L22.3,4.113a.249.249,0,0,1,.073.177V18.376a.251.251,0,0,1-.25.25H11.875a.25.25,0,0,0-.25.25v1a.25.25,0,0,0,.25.25h10.25a1.75,1.75,0,0,0,1.75-1.75V4.29A1.749,1.749,0,0,0,23.363,3.053Z"/><path d="M8.736,15.388a.123.123,0,0,1-.111-.12V14.126a3.5,3.5,0,1,0-7,0V15.26a.114.114,0,0,1-.113.128A1.5,1.5,0,0,0,.125,16.876v5.5a1.5,1.5,0,0,0,1.5,1.5h7a1.5,1.5,0,0,0,1.5-1.5v-5.5A1.5,1.5,0,0,0,8.736,15.388ZM5.125,21.126a1,1,0,1,1,1-1A1,1,0,0,1,5.125,21.126Zm1.5-5.866a.121.121,0,0,1-.106.116l-2.782,0a.122.122,0,0,1-.112-.116V14.126a1.5,1.5,0,1,1,3,0Z"/><path d="M15.625,13.126a4.75,4.75,0,1,0-4.75-4.75A4.756,4.756,0,0,0,15.625,13.126Zm0-8a3.25,3.25,0,1,1-3.25,3.25A3.254,3.254,0,0,1,15.625,5.126Z"/><path d="M15.625,9.126h1.768a.75.75,0,1,0,0-1.5h-.767a.252.252,0,0,1-.251-.252V6.608a.75.75,0,0,0-1.5,0V8.376A.75.75,0,0,0,15.625,9.126Z"/></svg>