<?xml version="1.0" encoding="utf-8"?>
<!-- Generator: Adobe Illustrator 22.1.0, SVG Export Plug-In . SVG Version: 6.00 Build 0)  -->
<svg version="1.1" id="Layer_1" xmlns="http://www.w3.org/2000/svg" xmlns:xlink="http://www.w3.org/1999/xlink" x="0px" y="0px"
	 viewBox="0 0 24 24" style="enable-background:new 0 0 24 24;" xml:space="preserve">
<g>
	<title>alarm-clock-1</title>
	<path d="M19.504,24.004c-0.134,0-0.259-0.052-0.354-0.146l-2.546-2.547c-1.405,0.781-2.992,1.193-4.601,1.193
		s-3.196-0.412-4.601-1.193l-2.546,2.547c-0.094,0.094-0.22,0.146-0.354,0.146c-0.134,0-0.259-0.052-0.354-0.146
		c-0.195-0.195-0.195-0.512,0-0.707l2.384-2.385c-2.53-1.786-4.031-4.665-4.031-7.761c0-5.238,4.262-9.5,9.5-9.5s9.5,4.262,9.5,9.5
		c0,3.097-1.501,5.976-4.031,7.761l2.384,2.385c0.195,0.195,0.195,0.512,0,0.707C19.763,23.952,19.637,24.004,19.504,24.004z
		 M12.004,4.504c-4.687,0-8.5,3.813-8.5,8.5c0,4.687,3.813,8.5,8.5,8.5c4.687,0,8.5-3.813,8.5-8.5
		C20.504,8.317,16.691,4.504,12.004,4.504z"/>
	<path d="M12.004,13.504c-0.276,0-0.5-0.224-0.5-0.5v-6.5c0-0.276,0.224-0.5,0.5-0.5c0.276,0,0.5,0.224,0.5,0.5v6h3
		c0.276,0,0.5,0.224,0.5,0.5s-0.224,0.5-0.5,0.5H12.004z"/>
	<path d="M1.948,9.057c-0.116,0-0.229-0.041-0.318-0.114c-0.218-0.18-0.419-0.382-0.599-0.6C-0.546,6.437-0.277,3.605,1.629,2.03
		c0.801-0.661,1.814-1.026,2.853-1.026c1.345,0,2.606,0.592,3.46,1.625c0.099,0.12,0.137,0.282,0.101,0.433
		C8.008,3.214,7.902,3.342,7.759,3.405C5.367,4.466,3.466,6.368,2.405,8.76C2.341,8.902,2.213,9.008,2.062,9.044
		C2.025,9.052,1.986,9.057,1.948,9.057z M4.482,2.004c-0.807,0-1.594,0.283-2.216,0.797C1.55,3.393,1.107,4.229,1.019,5.157
		C0.931,6.084,1.209,6.99,1.8,7.706c0,0.001,0.001,0.001,0.001,0.002c1.09-2.093,2.813-3.816,4.906-4.906
		C6.086,2.285,5.308,2.004,4.482,2.004z"/>
	<path d="M22.059,9.057c-0.039,0-0.077-0.005-0.115-0.013c-0.151-0.036-0.279-0.142-0.342-0.284
		c-1.061-2.392-2.963-4.294-5.354-5.355C16.106,3.342,16,3.214,15.964,3.063c-0.036-0.152,0.002-0.314,0.101-0.433
		c0.854-1.033,2.115-1.625,3.46-1.625c1.039,0,2.052,0.364,2.853,1.026c0.923,0.763,1.494,1.84,1.607,3.032
		c0.113,1.193-0.245,2.358-1.008,3.281c-0.18,0.218-0.382,0.42-0.6,0.599C22.289,9.016,22.175,9.057,22.059,9.057z M17.299,2.802
		c2.093,1.089,3.816,2.812,4.906,4.906c0-0.001,0.001-0.001,0.001-0.002c0.593-0.717,0.871-1.622,0.783-2.549
		c-0.088-0.926-0.531-1.763-1.249-2.356c-0.622-0.514-1.409-0.797-2.217-0.797C18.7,2.004,17.922,2.285,17.299,2.802z"/>
</g>
</svg>
