<?xml version="1.0" encoding="utf-8"?>
<!-- Generator: Adobe Illustrator 22.1.0, SVG Export Plug-In . SVG Version: 6.00 Build 0)  -->
<svg version="1.1" id="Layer_1" xmlns="http://www.w3.org/2000/svg" xmlns:xlink="http://www.w3.org/1999/xlink" x="0px" y="0px"
	 viewBox="0 0 24 24" style="enable-background:new 0 0 24 24;" xml:space="preserve">
<g>
	<title>alarm-bell-disable-1</title>
	<path d="M0.5,21C0.224,21,0,20.775,0,20.5S0.224,20,0.5,20c0.551,0,1-0.448,1-1v-5.5c-0.001-0.596,0.08-1.189,0.241-1.763
		c0.467-1.668,1.556-3.054,3.066-3.903C5.647,7.361,6.552,7.087,7.5,7.018V5.5C7.5,5.225,7.724,5,8,5s0.5,0.224,0.5,0.5v1.521
		c0.419,0.034,0.833,0.108,1.235,0.221C10,7.316,10.156,7.593,10.081,7.858C10.021,8.073,9.823,8.224,9.6,8.224
		c-0.046,0-0.091-0.006-0.135-0.019C8.977,8.068,8.476,7.999,7.976,7.999c-0.931,0-1.857,0.244-2.679,0.707
		c-1.277,0.718-2.198,1.89-2.594,3.301c-0.136,0.486-0.205,0.988-0.203,1.492V19c0,0.357-0.093,0.699-0.267,1h11.535
		c-0.175-0.301-0.267-0.643-0.267-1v-5.314c0-0.276,0.224-0.5,0.5-0.5s0.5,0.224,0.5,0.5V19c0,0.552,0.448,1,1,1
		c0.276,0,0.5,0.224,0.5,0.5S15.776,21,15.5,21H0.5z"/>
	<path d="M7.999,24c-0.226,0-0.449-0.038-0.664-0.114c-0.573-0.202-1.018-0.647-1.22-1.22c-0.045-0.126-0.037-0.262,0.02-0.382
		s0.159-0.211,0.285-0.256C6.474,22.009,6.53,22,6.585,22c0.212,0,0.402,0.134,0.472,0.333c0.101,0.287,0.323,0.509,0.61,0.61
		C7.775,22.981,7.886,23,7.999,23c0.424,0,0.804-0.268,0.944-0.667C9.014,22.134,9.204,22,9.416,22c0.056,0,0.111,0.009,0.164,0.028
		c0.262,0.093,0.398,0.379,0.306,0.639C9.605,23.464,8.846,24,7.999,24z"/>
	<path d="M17.5,13.001c-3.584,0-6.5-2.916-6.5-6.5s2.916-6.5,6.5-6.5s6.5,2.916,6.5,6.5S21.084,13.001,17.5,13.001z M17.5,1.001
		c-3.033,0-5.5,2.467-5.5,5.5s2.467,5.5,5.5,5.5s5.5-2.467,5.5-5.5S20.533,1.001,17.5,1.001z"/>
	<path d="M19.621,9.123c-0.134,0-0.259-0.052-0.354-0.146L17.5,7.208l-1.768,1.768c-0.094,0.094-0.22,0.146-0.354,0.146
		s-0.259-0.052-0.354-0.146c-0.195-0.195-0.195-0.512,0-0.707l1.768-1.768l-1.768-1.767c-0.195-0.195-0.195-0.512,0-0.707
		c0.094-0.094,0.22-0.146,0.354-0.146s0.259,0.052,0.354,0.146L17.5,5.794l1.768-1.767c0.094-0.094,0.22-0.146,0.354-0.146
		s0.259,0.052,0.354,0.146c0.195,0.195,0.195,0.512,0,0.707l-1.768,1.767l1.768,1.768c0.195,0.195,0.195,0.512,0,0.707
		C19.88,9.071,19.755,9.123,19.621,9.123z"/>
</g>
</svg>
