<?xml version="1.0" encoding="utf-8"?>
<!-- Generator: Adobe Illustrator 22.1.0, SVG Export Plug-In . SVG Version: 6.00 Build 0)  -->
<svg version="1.1" id="Layer_1" xmlns="http://www.w3.org/2000/svg" xmlns:xlink="http://www.w3.org/1999/xlink" x="0px" y="0px"
	 viewBox="0 0 24 24" style="enable-background:new 0 0 24 24;" xml:space="preserve">
<g>
	<title>alarm-bell-off</title>
	<path d="M0.5,24.001c-0.134,0-0.259-0.052-0.354-0.146c-0.195-0.195-0.195-0.512,0-0.707l23-23c0.094-0.094,0.22-0.146,0.354-0.146
		s0.259,0.052,0.354,0.146c0.195,0.195,0.195,0.512,0,0.707l-23,23C0.759,23.949,0.634,24.001,0.5,24.001z"/>
	<path d="M5.5,16.172c-0.276,0-0.5-0.224-0.5-0.5V12c0-2.714,1.572-5.183,4.018-6.333C9.186,4.159,10.467,3,12,3
		c1.539,0,2.822,1.166,2.983,2.679c0.018,0.01,0.154,0.082,0.191,0.102c0.246,0.126,0.343,0.428,0.217,0.673
		c-0.086,0.168-0.256,0.272-0.445,0.272c-0.079,0-0.158-0.019-0.229-0.056c-0.047-0.024-0.094-0.05-0.142-0.075
		c-0.092-0.049-0.179-0.097-0.268-0.134C14.12,6.383,14,6.202,14,6c0-1.103-0.897-2-2-2s-2,0.897-2,2
		c0,0.202-0.121,0.384-0.308,0.461C7.449,7.396,6,9.57,6,12v3.672C6,15.948,5.776,16.172,5.5,16.172z"/>
	<path d="M12,21c-1.199,0-2.215-0.845-2.449-2H8.328c-0.276,0-0.5-0.224-0.5-0.5s0.224-0.5,0.5-0.5H18.5
		c-0.323-0.428-0.5-0.951-0.5-1.5V12c-0.001-0.944-0.23-1.886-0.662-2.725c-0.061-0.119-0.073-0.254-0.032-0.381
		c0.041-0.127,0.129-0.231,0.247-0.292c0.07-0.036,0.149-0.056,0.229-0.056c0.188,0,0.358,0.104,0.445,0.271
		C18.732,9.796,18.999,10.897,19,12v4.5c0,0.827,0.673,1.5,1.5,1.5c0.276,0,0.5,0.224,0.5,0.5S20.776,19,20.5,19h-6.051
		C14.215,20.155,13.199,21,12,21z M10.588,19c0.209,0.586,0.772,1,1.412,1s1.203-0.414,1.412-1H10.588z"/>
</g>
</svg>
