<?xml version="1.0" encoding="utf-8"?>
<!-- Generator: Adobe Illustrator 22.1.0, SVG Export Plug-In . SVG Version: 6.00 Build 0)  -->
<svg version="1.1" id="Layer_1" xmlns="http://www.w3.org/2000/svg" xmlns:xlink="http://www.w3.org/1999/xlink" x="0px" y="0px"
	 viewBox="0 0 24 24" style="enable-background:new 0 0 24 24;" xml:space="preserve">
<g>
	<title>wifi-search</title>
	<path d="M18.216,4.669c-0.134,0-0.259-0.052-0.354-0.146C15.591,2.251,12.571,1,9.359,1C6.146,1,3.126,2.251,0.855,4.522
		C0.76,4.616,0.635,4.668,0.501,4.668S0.242,4.616,0.148,4.522s-0.146-0.22-0.146-0.354s0.052-0.259,0.146-0.354
		C2.608,1.355,5.879,0,9.358,0c3.48,0,6.751,1.355,9.211,3.816c0.094,0.094,0.146,0.22,0.146,0.354s-0.052,0.259-0.146,0.354
		S18.349,4.669,18.216,4.669z"/>
	<path d="M15.714,8.123c-0.134,0-0.259-0.052-0.354-0.146c-1.189-1.189-2.68-1.989-4.312-2.312l-0.034-0.006
		c-0.124-0.024-0.249-0.046-0.375-0.065c-0.028-0.004-0.203-0.025-0.203-0.025c-0.07-0.009-0.14-0.019-0.211-0.026
		c-0.034-0.003-0.172-0.012-0.172-0.012L9.99,5.525C9.93,5.52,9.87,5.515,9.809,5.512C9.761,5.51,9.713,5.509,9.665,5.508
		l-0.15-0.004C9.472,5.504,9.43,5.502,9.387,5.502c-0.042,0-0.083,0.001-0.124,0.003L9.118,5.508
		C9.067,5.509,9.016,5.51,8.965,5.512C8.938,5.514,8.761,5.527,8.761,5.527C8.689,5.531,8.618,5.536,8.547,5.543L8.476,5.552
		C8.361,5.564,8.247,5.577,8.133,5.594L8.096,5.6C6.87,5.787,5.729,6.23,4.704,6.916L4.653,6.952
		C4.556,7.018,4.46,7.085,4.365,7.155L4.282,7.221C4.199,7.283,4.117,7.346,4.037,7.411c-0.02,0.017-0.142,0.122-0.142,0.122
		C3.836,7.584,3.777,7.633,3.72,7.685C3.694,7.709,3.54,7.856,3.54,7.856c-0.042,0.04-0.084,0.079-0.126,0.12
		C3.32,8.071,3.194,8.123,3.061,8.123S2.802,8.071,2.707,7.977c-0.094-0.094-0.146-0.22-0.146-0.354
		c0-0.134,0.052-0.259,0.146-0.354c1.329-1.33,2.997-2.224,4.823-2.586l0.107-0.019c0.115-0.022,0.232-0.043,0.349-0.06
		c0.035-0.005,0.231-0.029,0.231-0.029c0.077-0.01,0.154-0.02,0.231-0.028c0.042-0.004,0.085-0.007,0.128-0.01l0.134-0.01
		C8.78,4.522,8.848,4.517,8.916,4.514C8.963,4.511,9.011,4.51,9.059,4.51l0.146-0.004c0.06-0.002,0.12-0.004,0.181-0.004
		c0.053,0,0.103,0.002,0.153,0.003l0.146,0.004C9.744,4.51,9.801,4.511,9.859,4.514c0.043,0.002,0.086,0.006,0.13,0.009l0.142,0.01
		c0.065,0.004,0.131,0.008,0.196,0.015c0.027,0.003,0.167,0.02,0.167,0.02c0.099,0.011,0.198,0.022,0.296,0.037l0.037,0.006
		c0.918,0.142,1.786,0.407,2.6,0.792c0.001,0,0.023,0.011,0.024,0.012c0.129,0.062,0.259,0.127,0.387,0.195
		c0.141,0.076,0.272,0.15,0.401,0.227c0,0,0.024,0.015,0.024,0.015c0.123,0.074,0.245,0.151,0.365,0.232l0.067,0.047
		c0.104,0.071,0.209,0.144,0.312,0.22c0.022,0.016,0.124,0.096,0.124,0.096c0.082,0.062,0.164,0.125,0.243,0.19
		c0.033,0.027,0.064,0.055,0.096,0.082l0.109,0.094c0.05,0.043,0.101,0.085,0.149,0.13c0.039,0.035,0.076,0.071,0.114,0.108
		l0.107,0.102c0.04,0.037,0.08,0.075,0.119,0.114c0.096,0.096,0.148,0.222,0.148,0.355c0,0.134-0.052,0.259-0.146,0.354
		S15.847,8.123,15.714,8.123z"/>
	<path d="M13.212,11.576c-0.133,0-0.259-0.052-0.353-0.146c-0.918-0.918-2.141-1.423-3.444-1.423s-2.525,0.505-3.443,1.423
		c-0.095,0.094-0.22,0.146-0.354,0.146c-0.134,0-0.259-0.052-0.354-0.146c-0.195-0.195-0.195-0.512,0-0.707
		c1.107-1.106,2.581-1.715,4.15-1.715s3.043,0.609,4.151,1.715c0.195,0.195,0.195,0.512,0,0.707
		C13.471,11.524,13.345,11.576,13.212,11.576z"/>
	<path d="M9.316,18c-1.233,0-2.259-1.003-2.288-2.236c-0.015-0.612,0.21-1.192,0.632-1.635c0.422-0.442,0.991-0.694,1.603-0.709
		h0.105c0.281,0.007,0.499,0.238,0.491,0.513c-0.007,0.268-0.227,0.481-0.501,0.487l-0.066,0c-0.349,0.008-0.67,0.15-0.908,0.399
		c-0.238,0.25-0.365,0.576-0.356,0.921c0.008,0.344,0.15,0.665,0.399,0.903c0.241,0.23,0.55,0.357,0.868,0.357L9.343,17
		c0.293,0.003,0.509,0.212,0.516,0.488C9.865,17.763,9.646,17.993,9.371,18L9.316,18z"/>
	<path d="M23.216,24c-0.134,0-0.259-0.052-0.354-0.146l-2.938-2.938c-0.9,0.738-2.02,1.142-3.18,1.142
		c-2.773,0-5.029-2.256-5.029-5.029S13.972,12,16.745,12s5.029,2.256,5.029,5.029c0,1.16-0.404,2.28-1.142,3.179l2.938,2.938
		c0.094,0.094,0.146,0.22,0.146,0.354s-0.052,0.259-0.146,0.354S23.349,24,23.216,24z M16.745,13c-2.222,0-4.029,1.807-4.029,4.029
		s1.807,4.029,4.029,4.029s4.029-1.807,4.029-4.029S18.966,13,16.745,13z"/>
</g>
</svg>
