<?xml version="1.0" encoding="utf-8"?>
<!-- Generator: Adobe Illustrator 22.1.0, SVG Export Plug-In . SVG Version: 6.00 Build 0)  -->
<svg version="1.1" id="Layer_1" xmlns="http://www.w3.org/2000/svg" xmlns:xlink="http://www.w3.org/1999/xlink" x="0px" y="0px"
	 viewBox="0 0 24 24" style="enable-background:new 0 0 24 24;" xml:space="preserve">
<title>tablet-touch</title>
<g>
	<path d="M21,23.25c-0.414,0-0.75-0.336-0.75-0.75v-3.459c0-1.104-0.791-2.038-1.88-2.219l-1.993-0.332
		c-0.363-0.06-0.627-0.371-0.627-0.74v-3c0-0.414-0.336-0.75-0.75-0.75s-0.75,0.336-0.75,0.75V18c0,0.261-0.133,0.5-0.355,0.638
		c-0.119,0.073-0.256,0.112-0.395,0.112c-0.115,0-0.231-0.027-0.335-0.079l-1.178-0.587c-0.059-0.03-0.121-0.052-0.184-0.068
		c-0.069-0.017-0.142-0.026-0.214-0.026c-0.408,0-0.763,0.276-0.862,0.672c-0.083,0.335,0.039,0.691,0.31,0.907l2.931,2.346
		c0.323,0.258,0.375,0.731,0.117,1.054c-0.143,0.179-0.357,0.281-0.586,0.281c-0.169,0-0.336-0.058-0.468-0.164l-2.929-2.344
		c-0.728-0.578-1.055-1.537-0.83-2.442c0.266-1.066,1.219-1.81,2.316-1.81c0.194,0,0.389,0.024,0.579,0.072
		c0.169,0.042,0.334,0.103,0.49,0.182l0.093,0.046V12.75c0-1.241,1.009-2.25,2.25-2.25s2.25,1.009,2.25,2.25v2.365l1.366,0.228
		c1.816,0.302,3.134,1.858,3.134,3.699V22.5C21.75,22.914,21.414,23.25,21,23.25z"/>
	<path d="M5.247,6.75c-0.414,0-0.75-0.336-0.75-0.75s0.336-0.75,0.75-0.75h7.5c0.414,0,0.75,0.336,0.75,0.75s-0.336,0.75-0.75,0.75
		H5.247z"/>
	<path d="M5.247,9.75c-0.414,0-0.75-0.336-0.75-0.75s0.336-0.75,0.75-0.75h7.5c0.414,0,0.75,0.336,0.75,0.75s-0.336,0.75-0.75,0.75
		H5.247z"/>
	<path d="M5.247,12.75c-0.414,0-0.75-0.336-0.75-0.75s0.336-0.75,0.75-0.75h3.75c0.414,0,0.75,0.336,0.75,0.75
		s-0.336,0.75-0.75,0.75H5.247z"/>
	<path d="M2.247,18.75c-1.241,0-2.25-1.009-2.25-2.25V3c0-1.241,1.009-2.25,2.25-2.25h19.5c1.241,0,2.25,1.009,2.25,2.25v12
		c0,0.414-0.336,0.75-0.75,0.75s-0.75-0.336-0.75-0.75V3c0-0.414-0.336-0.75-0.75-0.75h-2.25v8.25c0,0.414-0.336,0.75-0.75,0.75
		s-0.75-0.336-0.75-0.75V2.25H2.247c-0.414,0-0.75,0.336-0.75,0.75v13.5c0,0.414,0.336,0.75,0.75,0.75H7.5
		c0.414,0,0.75,0.336,0.75,0.75s-0.336,0.75-0.75,0.75H2.247z"/>
</g>
</svg>
