<?xml version="1.0" encoding="utf-8"?>
<!-- Generator: Adobe Illustrator 22.1.0, SVG Export Plug-In . SVG Version: 6.00 Build 0)  -->
<svg version="1.1" id="Layer_1" xmlns="http://www.w3.org/2000/svg" xmlns:xlink="http://www.w3.org/1999/xlink" x="0px" y="0px"
	 viewBox="0 0 24 24" style="enable-background:new 0 0 24 24;" xml:space="preserve">
<title>tablet-touch-1</title>
<g>
	<path d="M23.25,24c-0.414,0-0.75-0.336-0.75-0.75v-3.459c0-1.104-0.791-2.038-1.88-2.219l-1.993-0.332
		C18.264,17.179,18,16.868,18,16.5v-3c0-0.414-0.336-0.75-0.75-0.75s-0.75,0.336-0.75,0.75v5.25c0,0.258-0.136,0.502-0.355,0.638
		c-0.119,0.073-0.255,0.112-0.395,0.112c-0.115,0-0.231-0.027-0.335-0.079l-1.175-0.587c-0.059-0.03-0.12-0.052-0.182-0.068
		c-0.07-0.018-0.142-0.026-0.214-0.026c-0.409,0-0.763,0.276-0.862,0.672c-0.084,0.336,0.036,0.692,0.307,0.908l2.93,2.344
		c0.323,0.258,0.375,0.731,0.117,1.054C16.193,23.897,15.979,24,15.75,24c-0.169,0-0.336-0.058-0.468-0.164l-2.929-2.344
		c-0.727-0.581-1.051-1.54-0.825-2.444c0.266-1.065,1.218-1.809,2.315-1.809c0.195,0,0.389,0.024,0.579,0.072
		c0.169,0.042,0.334,0.103,0.49,0.182L15,17.537V13.5c0-1.241,1.009-2.25,2.25-2.25s2.25,1.009,2.25,2.25v2.365l1.366,0.228
		C22.682,16.395,24,17.95,24,19.791v3.459C24,23.664,23.664,24,23.25,24z"/>
	<path d="M2.25,22.5C1.01,22.5,0,21.491,0,20.25V17.3c-0.002-0.012-0.003-0.031-0.003-0.05c0-0.012,0.001-0.032,0.003-0.049V2.25
		C0,1.009,1.01,0,2.25,0h12c1.241,0,2.25,1.009,2.25,2.25V9c0,0.414-0.336,0.75-0.75,0.75S15,9.414,15,9V2.25
		c0-0.414-0.336-0.75-0.75-0.75h-12C1.837,1.5,1.5,1.836,1.5,2.25V16.5h8.25c0.414,0,0.75,0.336,0.75,0.75S10.164,18,9.75,18H1.5
		v2.25C1.5,20.664,1.837,21,2.25,21h7.5c0.414,0,0.75,0.336,0.75,0.75s-0.336,0.75-0.75,0.75H2.25z"/>
	<path d="M3.75,9C3.337,9,3,8.664,3,8.25v-3C3,4.836,3.337,4.5,3.75,4.5h3c0.414,0,0.75,0.336,0.75,0.75v3C7.5,8.664,7.164,9,6.75,9
		H3.75z M6,7.5V6H4.5v1.5H6z"/>
	<path d="M9.75,9C9.337,9,9,8.664,9,8.25v-3C9,4.836,9.337,4.5,9.75,4.5h3c0.414,0,0.75,0.336,0.75,0.75v3
		C13.5,8.664,13.164,9,12.75,9H9.75z M12,7.5V6h-1.5v1.5H12z"/>
	<path d="M3.75,15C3.337,15,3,14.664,3,14.25v-3c0-0.414,0.336-0.75,0.75-0.75h3c0.414,0,0.75,0.336,0.75,0.75v3
		C7.5,14.664,3.75,15,3.75,15z M6,13.5V12H4.5v1.5H6z"/>
</g>
</svg>
