<?xml version="1.0" encoding="utf-8"?>
<!-- Generator: Adobe Illustrator 22.1.0, SVG Export Plug-In . SVG Version: 6.00 Build 0)  -->
<svg version="1.1" id="Layer_1" xmlns="http://www.w3.org/2000/svg" xmlns:xlink="http://www.w3.org/1999/xlink" x="0px" y="0px"
	 viewBox="0 0 24 24" style="enable-background:new 0 0 24 24;" xml:space="preserve">
<title>messages-people-person-bubble-square-1</title>
<g>
	<path d="M15.75,21c-0.099,0-0.196-0.019-0.288-0.057C15.181,20.827,15,20.555,15,20.25V16.5h-2.25c-0.414,0-0.75-0.336-0.75-0.75
		S12.336,15,12.75,15h3c0.414,0,0.75,0.336,0.75,0.75v2.689l3.22-3.22c0.14-0.14,0.333-0.22,0.53-0.22h1.494
		c0.417,0,0.756-0.339,0.756-0.756V2.25c0-0.414-0.336-0.75-0.75-0.75h-12C9.336,1.5,9,1.837,9,2.25v4.5C9,7.164,8.663,7.5,8.25,7.5
		C7.836,7.5,7.5,7.164,7.5,6.75v-4.5C7.5,1.01,8.509,0,9.75,0h12C22.99,0,24,1.01,24,2.25v11.994c0,1.244-1.012,2.256-2.256,2.256
		H20.56l-4.28,4.28C16.138,20.922,15.95,21,15.75,21z"/>
	<circle cx="19.875" cy="8.25" r="1.125"/>
	<path d="M12.375,9.375c-0.62,0-1.125-0.505-1.125-1.125s0.505-1.125,1.125-1.125c0.014,0,0.032,0.001,0.047,0.003
		c0.01,0.001,0.017,0.001,0.024,0.002C13.029,7.158,13.5,7.65,13.5,8.25C13.5,8.871,12.995,9.375,12.375,9.375z"/>
	<path d="M16.125,9.375C15.504,9.375,15,8.871,15,8.25s0.505-1.125,1.125-1.125c0.014,0,0.032,0.001,0.047,0.003
		c0.01,0.001,0.017,0.001,0.024,0.002c0.583,0.027,1.054,0.52,1.054,1.12C17.25,8.871,16.745,9.375,16.125,9.375z"/>
	<path d="M6.75,17.25c-2.275,0-4.125-1.851-4.125-4.125C2.625,10.851,4.475,9,6.75,9s4.125,1.85,4.125,4.125
		C10.875,15.4,9.024,17.25,6.75,17.25z M6.75,10.5c-1.447,0-2.625,1.178-2.625,2.625c0,1.448,1.178,2.625,2.625,2.625
		s2.625-1.177,2.625-2.625C9.375,11.678,8.197,10.5,6.75,10.5z"/>
	<path d="M0.752,24.001c-0.035,0-0.07-0.002-0.105-0.007c-0.196-0.026-0.372-0.129-0.494-0.288
		c-0.121-0.159-0.174-0.356-0.147-0.555c0.407-3.029,2.807-5.429,5.837-5.836c0.305-0.041,0.614-0.062,0.919-0.062
		c1.495,0,2.918,0.482,4.114,1.396c1.445,1.102,2.374,2.701,2.616,4.502c0.055,0.41-0.233,0.788-0.643,0.843
		C12.818,23.998,12.783,24,12.749,24c-0.374,0-0.693-0.28-0.743-0.65c-0.189-1.404-0.913-2.65-2.039-3.51
		c-0.933-0.711-2.042-1.088-3.207-1.088c-0.238,0-0.479,0.016-0.717,0.048c-2.361,0.318-4.232,2.189-4.549,4.55
		C1.443,23.721,1.124,24.001,0.752,24.001z"/>
</g>
</svg>
