<?xml version="1.0" encoding="utf-8"?>
<!-- Generator: Adobe Illustrator 22.1.0, SVG Export Plug-In . SVG Version: 6.00 Build 0)  -->
<svg version="1.1" id="Layer_1" xmlns="http://www.w3.org/2000/svg" xmlns:xlink="http://www.w3.org/1999/xlink" x="0px" y="0px"
	 viewBox="0 0 24 24" style="enable-background:new 0 0 24 24;" xml:space="preserve">
<title>messages-people-user-check</title>
<g>
	<path d="M14.25,21c-0.099,0-0.196-0.019-0.288-0.057c-0.281-0.116-0.462-0.388-0.462-0.693V16.5h-2.25
		c-0.414,0-0.75-0.336-0.75-0.75S10.836,15,11.25,15h3c0.414,0,0.75,0.336,0.75,0.75v2.689l3.22-3.22
		c0.14-0.14,0.333-0.22,0.53-0.22h3c0.414,0,0.75-0.336,0.75-0.75v-12c0-0.414-0.336-0.75-0.75-0.75h-12C9.336,1.5,9,1.836,9,2.25
		S8.664,3,8.25,3S7.5,2.664,7.5,2.25C7.5,1.009,8.509,0,9.75,0h12C22.991,0,24,1.009,24,2.25v12c0,1.241-1.009,2.25-2.25,2.25
		h-2.689l-4.28,4.28C14.639,20.922,14.45,21,14.25,21z"/>
	<path d="M4.5,10.5c-2.068,0-3.75-1.682-3.75-3.75S2.432,3,4.5,3s3.75,1.682,3.75,3.75S6.568,10.5,4.5,10.5z M4.5,4.5
		c-1.241,0-2.25,1.009-2.25,2.25S3.259,9,4.5,9s2.25-1.009,2.25-2.25S5.741,4.5,4.5,4.5z"/>
	<path d="M3,24c-0.377,0-0.697-0.282-0.744-0.657L1.588,18H0.75C0.336,18,0,17.664,0,17.25V15c0-2.481,2.019-4.5,4.5-4.5
		S9,12.519,9,15v2.25C9,17.664,8.664,18,8.25,18H7.412l-0.668,5.343C6.697,23.718,6.377,24,6,24H3z M5.338,22.5l0.668-5.343
		C6.053,16.782,6.373,16.5,6.75,16.5H7.5V15c0-1.654-1.346-3-3-3s-3,1.346-3,3v1.5h0.75c0.377,0,0.697,0.282,0.744,0.657L3.662,22.5
		H5.338z"/>
	<path d="M14.786,10.499c-0.327,0-0.638-0.104-0.899-0.3c-0.057-0.043-0.11-0.089-0.16-0.139l-1.5-1.5
		c-0.142-0.141-0.22-0.33-0.22-0.53s0.078-0.389,0.22-0.53c0.141-0.142,0.33-0.22,0.53-0.22s0.389,0.078,0.53,0.22l1.5,1.5
		l2.899-3.873c0.141-0.188,0.366-0.301,0.601-0.301c0.163,0,0.318,0.052,0.449,0.15c0.331,0.248,0.399,0.719,0.151,1.05l-2.9,3.874
		C15.705,10.275,15.256,10.499,14.786,10.499z"/>
</g>
</svg>
