<?xml version="1.0" encoding="utf-8"?>
<!-- Generator: Adobe Illustrator 22.1.0, SVG Export Plug-In . SVG Version: 6.00 Build 0)  -->
<svg version="1.1" id="Layer_1" xmlns="http://www.w3.org/2000/svg" xmlns:xlink="http://www.w3.org/1999/xlink" x="0px" y="0px"
	 viewBox="0 0 24 24" style="enable-background:new 0 0 24 24;" xml:space="preserve">
<title>messages-people-person-bubble-1</title>
<g>
	<circle cx="16.875" cy="13.125" r="1.125"/>
	<path d="M13.875,16.5c-0.572,0-1.047-0.427-1.114-0.995c-0.007-0.042-0.011-0.086-0.011-0.13s0.004-0.088,0.011-0.131
		c0.06-0.513,0.47-0.923,0.983-0.983c0.042-0.008,0.086-0.011,0.131-0.011s0.088,0.004,0.131,0.011
		c0.513,0.06,0.923,0.47,0.983,0.983C14.996,15.287,15,15.331,15,15.375s-0.004,0.088-0.011,0.13
		C14.922,16.074,14.446,16.5,13.875,16.5z"/>
	<path d="M12.75,10.5c-0.414,0-0.75-0.336-0.75-0.75S12.336,9,12.75,9h6c1.017,0,1.954-0.385,2.661-1.085
		c0.712-0.705,1.107-1.644,1.112-2.646c0.005-1.002-0.38-1.945-1.085-2.657C20.733,1.9,19.793,1.506,18.791,1.5l-0.03,0
		c-1.943,0-3.544,1.464-3.724,3.404c-0.028,0.303-0.234,0.558-0.526,0.648c-0.071,0.022-0.146,0.033-0.221,0.033
		c-0.224,0-0.435-0.099-0.578-0.273C13.333,4.852,12.795,4.567,12.2,4.51c-0.073-0.007-0.146-0.01-0.218-0.01
		c-0.522,0-1.013,0.177-1.419,0.513c-0.52,0.429-0.816,1.061-0.813,1.735C9.751,7.161,9.416,7.499,9.003,7.5
		c-0.415,0-0.751-0.335-0.753-0.747C8.245,5.628,8.74,4.572,9.608,3.855C10.276,3.303,11.119,3,11.982,3
		c0.12,0,0.241,0.006,0.361,0.017c0.526,0.05,1.03,0.209,1.483,0.464C14.558,1.408,16.523,0,18.771,0c0.001,0,0.027,0,0.028,0
		c1.402,0.007,2.718,0.56,3.704,1.557c0.987,0.996,1.526,2.318,1.519,3.72c-0.007,1.402-0.56,2.718-1.556,3.704
		c-0.989,0.979-2.301,1.519-3.693,1.519H12.75z"/>
	<path d="M6.75,17.25c-2.275,0-4.125-1.851-4.125-4.125C2.625,10.851,4.475,9,6.75,9s4.125,1.85,4.125,4.125
		C10.875,15.4,9.024,17.25,6.75,17.25z M6.75,10.5c-1.447,0-2.625,1.178-2.625,2.625c0,1.448,1.178,2.625,2.625,2.625
		s2.625-1.177,2.625-2.625C9.375,11.678,8.197,10.5,6.75,10.5z"/>
	<path d="M0.752,24.001c-0.035,0-0.07-0.002-0.105-0.007c-0.196-0.026-0.372-0.129-0.494-0.288
		c-0.121-0.159-0.174-0.356-0.147-0.555c0.408-3.029,2.808-5.429,5.837-5.836c0.305-0.041,0.615-0.062,0.922-0.062
		c1.493,0,2.915,0.483,4.112,1.396c1.445,1.102,2.374,2.701,2.616,4.502c0.055,0.41-0.233,0.788-0.643,0.843
		C12.818,23.998,12.783,24,12.749,24c-0.374,0-0.693-0.28-0.743-0.65c-0.189-1.404-0.913-2.65-2.039-3.51
		c-0.933-0.711-2.042-1.088-3.207-1.088c-0.238,0-0.479,0.016-0.717,0.048c-2.361,0.317-4.232,2.188-4.55,4.55
		C1.443,23.721,1.124,24.001,0.752,24.001z"/>
</g>
</svg>
