<?xml version="1.0" encoding="utf-8"?>
<!-- Generator: Adobe Illustrator 22.1.0, SVG Export Plug-In . SVG Version: 6.00 Build 0)  -->
<svg version="1.1" id="Layer_1" xmlns="http://www.w3.org/2000/svg" xmlns:xlink="http://www.w3.org/1999/xlink" x="0px" y="0px"
	 viewBox="0 0 24 24" style="enable-background:new 0 0 24 24;" xml:space="preserve">
<title>messages-people-person-bubble-circle-1</title>
<g>
	<path d="M13.406,13.969c-0.15,0-0.296-0.045-0.42-0.129c-0.244-0.165-0.369-0.459-0.318-0.75l0.598-3.439
		C12.442,8.597,11.994,7.288,12,5.946C12.016,2.667,14.696,0,17.975,0l0.032,0c0.453,0,0.906,0.052,1.347,0.153
		c1.558,0.359,2.885,1.305,3.735,2.665c0.85,1.359,1.121,2.966,0.761,4.525c-0.36,1.561-1.306,2.888-2.664,3.737
		c-0.957,0.598-2.053,0.914-3.169,0.914c0,0,0,0,0,0c-0.349,0-0.7-0.031-1.047-0.092L13.8,13.857
		C13.682,13.93,13.546,13.969,13.406,13.969z M17.975,1.5c-2.455,0-4.462,1.998-4.474,4.453c-0.005,1.102,0.394,2.163,1.125,2.989
		c0.152,0.171,0.217,0.399,0.177,0.625l-0.372,2.139l2.005-1.237c0.119-0.073,0.255-0.111,0.394-0.111
		c0.056,0,0.112,0.006,0.166,0.018c0.338,0.078,0.68,0.117,1.021,0.117c0.836,0,1.657-0.237,2.375-0.686
		c1.018-0.637,1.727-1.632,1.997-2.802c0.269-1.168,0.066-2.373-0.571-3.392c-0.638-1.019-1.632-1.729-2.8-1.998
		C18.682,1.538,18.364,1.5,18.047,1.5L17.975,1.5z"/>
	<path d="M6.751,17.25c-2.275,0-4.125-1.851-4.125-4.125C2.626,10.851,4.476,9,6.751,9s4.125,1.85,4.125,4.125
		C10.876,15.4,9.025,17.25,6.751,17.25z M6.751,10.5c-1.447,0-2.625,1.178-2.625,2.625c0,1.448,1.178,2.625,2.625,2.625
		s2.625-1.177,2.625-2.625C9.376,11.678,8.198,10.5,6.751,10.5z"/>
	<path d="M0.753,24c-0.035,0-0.07-0.002-0.105-0.007c-0.196-0.026-0.372-0.129-0.494-0.288c-0.121-0.159-0.174-0.356-0.147-0.555
		c0.407-3.029,2.807-5.429,5.837-5.836c0.305-0.041,0.614-0.062,0.919-0.062c1.495,0,2.918,0.482,4.114,1.396
		c1.445,1.102,2.374,2.701,2.616,4.502c0.055,0.41-0.233,0.788-0.643,0.843C12.819,23.998,12.784,24,12.75,24
		c-0.374,0-0.693-0.28-0.743-0.65c-0.352-2.621-2.61-4.597-5.252-4.597c-0.236,0-0.476,0.016-0.711,0.048
		c-2.361,0.318-4.232,2.189-4.55,4.55C1.444,23.721,1.125,24,0.753,24z"/>
</g>
</svg>
