<?xml version="1.0" encoding="utf-8"?>
<!-- Generator: Adobe Illustrator 22.1.0, SVG Export Plug-In . SVG Version: 6.00 Build 0)  -->
<svg version="1.1" id="Layer_1" xmlns="http://www.w3.org/2000/svg" xmlns:xlink="http://www.w3.org/1999/xlink" x="0px" y="0px"
	 viewBox="0 0 24 24" style="enable-background:new 0 0 24 24;" xml:space="preserve">
<title>help-question-network</title>
<g>
	<path d="M3,24c-1.654,0-3-1.346-3-3s1.346-3,3-3c0.616,0,1.217,0.192,1.72,0.546l1.589-1.153c0.128-0.094,0.281-0.143,0.44-0.143
		c0.24,0,0.467,0.116,0.608,0.31c0.118,0.162,0.165,0.36,0.134,0.558c-0.031,0.198-0.138,0.371-0.3,0.489L5.697,19.69
		C5.896,20.098,6,20.544,6,21C6,22.654,4.654,24,3,24z M3,19.5c-0.827,0-1.5,0.673-1.5,1.5s0.673,1.5,1.5,1.5s1.5-0.673,1.5-1.5
		S3.827,19.5,3,19.5z"/>
	<path d="M6.749,6.75c-0.159,0-0.311-0.049-0.44-0.143L4.719,5.455C4.216,5.808,3.616,6,3,6C1.346,6,0,4.654,0,3s1.346-3,3-3
		s3,1.346,3,3c0,0.456-0.104,0.902-0.304,1.31l1.493,1.083c0.162,0.118,0.269,0.291,0.3,0.489C7.521,6.08,7.474,6.278,7.356,6.44
		C7.216,6.634,6.988,6.75,6.749,6.75z M3,1.5C2.173,1.5,1.5,2.173,1.5,3S2.173,4.5,3,4.5S4.5,3.827,4.5,3S3.827,1.5,3,1.5z"/>
	<path d="M21,24c-1.654,0-3-1.346-3-3c0-0.456,0.104-0.903,0.304-1.31l-1.492-1.083c-0.162-0.117-0.269-0.291-0.3-0.489
		c-0.031-0.198,0.016-0.396,0.134-0.558c0.14-0.194,0.367-0.31,0.607-0.31c0.159,0,0.312,0.05,0.441,0.143l1.588,1.152
		C19.783,18.192,20.384,18,21,18c1.654,0,3,1.346,3,3S22.654,24,21,24z M21,19.5c-0.827,0-1.5,0.673-1.5,1.5s0.673,1.5,1.5,1.5
		s1.5-0.673,1.5-1.5S21.827,19.5,21,19.5z"/>
	<path d="M17.252,6.75c-0.24,0-0.467-0.116-0.607-0.31c-0.243-0.335-0.168-0.805,0.167-1.047l1.492-1.082
		C18.104,3.903,18,3.456,18,3c0-1.654,1.346-3,3-3s3,1.346,3,3s-1.346,3-3,3c-0.616,0-1.216-0.192-1.719-0.545l-1.589,1.152
		C17.563,6.701,17.411,6.75,17.252,6.75z M21,1.5c-0.827,0-1.5,0.673-1.5,1.5s0.673,1.5,1.5,1.5s1.5-0.673,1.5-1.5
		S21.827,1.5,21,1.5z"/>
	<circle cx="12" cy="17.625" r="1.125"/>
	<path d="M12,15.375c-0.414,0-0.75-0.336-0.75-0.75v-0.631c-0.001-0.952,0.602-1.805,1.5-2.122c0.897-0.317,1.5-1.17,1.5-2.121
		c0-0.601-0.234-1.166-0.659-1.591C13.167,7.735,12.602,7.501,12,7.501c-1.241,0-2.25,1.009-2.25,2.25c0,0.413-0.336,0.75-0.75,0.75
		s-0.75-0.337-0.75-0.75c0-2.067,1.683-3.749,3.75-3.749c2.068,0,3.75,1.683,3.75,3.75c0,1.586-1.005,3.006-2.5,3.535
		c-0.299,0.106-0.5,0.39-0.5,0.707v0.632C12.75,15.039,12.414,15.375,12,15.375z"/>
</g>
</svg>
