<?xml version="1.0" encoding="utf-8"?>
<!-- Generator: Adobe Illustrator 22.1.0, SVG Export Plug-In . SVG Version: 6.00 Build 0)  -->
<svg version="1.1" id="Layer_1" xmlns="http://www.w3.org/2000/svg" xmlns:xlink="http://www.w3.org/1999/xlink" x="0px" y="0px"
	 viewBox="0 0 24 24" style="enable-background:new 0 0 24 24;" xml:space="preserve">
<title>laptop-help-message</title>
<g>
	<path d="M3.75,23.998c-2.068,0-3.75-1.682-3.75-3.75v-1.5c0-0.414,0.336-0.75,0.75-0.75H1.5v-9.75c0-1.241,1.009-2.25,2.25-2.25
		H7.5c0.414,0,0.75,0.336,0.75,0.75s-0.336,0.75-0.75,0.75H3.75C3.336,7.498,3,7.834,3,8.248v9.75h6.416
		c0.269,0,0.518,0.145,0.651,0.378c0.197,0.345,0.484,0.631,0.828,0.828c0.335,0.192,0.716,0.293,1.1,0.293
		c0.8,0,1.542-0.43,1.937-1.121c0.134-0.233,0.383-0.378,0.651-0.378H21v-2.25c0-0.414,0.336-0.75,0.75-0.75s0.75,0.336,0.75,0.75
		v2.25h0.75c0.414,0,0.75,0.336,0.75,0.75v1.5c0,2.068-1.682,3.75-3.75,3.75H3.75z M1.5,20.248c0,1.241,1.009,2.25,2.25,2.25h16.5
		c1.241,0,2.25-1.009,2.25-2.25v-0.75h-7.512c-0.701,0.942-1.805,1.499-2.994,1.499c-0.644,0-1.281-0.169-1.843-0.49
		c-0.443-0.253-0.834-0.6-1.139-1.009H1.5V20.248z"/>
	<path d="M9.013,14.748c-0.225,0-0.436-0.1-0.579-0.273C8.247,14.248,8.21,13.93,8.34,13.666l1.91-3.876
		C9.64,8.292,9.558,6.622,10.022,5.069c0.544-1.82,1.764-3.32,3.436-4.222c1.039-0.561,2.204-0.857,3.37-0.857
		c0.689,0,1.377,0.101,2.045,0.301c0.021,0.006,0.042,0.014,0.063,0.022c3.665,1.173,5.732,4.993,4.705,8.705
		c-0.853,3.085-3.684,5.239-6.886,5.239c-0.64,0-1.28-0.087-1.901-0.259c-0.423-0.126-0.828-0.29-1.212-0.487L9.21,14.721
		C9.145,14.739,9.079,14.748,9.013,14.748z M16.829,1.489c-0.919,0-1.838,0.234-2.658,0.677c-1.319,0.712-2.282,1.896-2.712,3.332
		c-0.396,1.323-0.29,2.741,0.297,3.992c0.097,0.207,0.095,0.444-0.006,0.65l-1.328,2.696l3.117-0.851
		c0.065-0.018,0.131-0.026,0.197-0.026c0.13,0,0.259,0.034,0.372,0.098c0.368,0.211,0.758,0.379,1.163,0.5
		c0.481,0.133,0.984,0.201,1.488,0.201c2.528,0,4.764-1.703,5.438-4.14c0.817-2.955-0.837-5.982-3.764-6.891
		c-0.014-0.005-0.028-0.009-0.041-0.014C17.88,1.564,17.354,1.489,16.829,1.489z"/>
	<path d="M16.882,8.28c-0.414,0-0.75-0.336-0.75-0.75s0.336-0.75,0.75-0.75c0.62,0,1.125-0.505,1.125-1.125S17.502,4.53,16.882,4.53
		s-1.125,0.505-1.125,1.125c0,0.414-0.336,0.75-0.75,0.75s-0.75-0.336-0.75-0.75c0-1.447,1.177-2.625,2.625-2.625
		s2.625,1.178,2.625,2.625S18.33,8.28,16.882,8.28z"/>
	<path d="M16.882,11.28c-0.62,0-1.125-0.505-1.125-1.125s0.505-1.125,1.125-1.125c0.304,0.001,0.586,0.118,0.798,0.331
		c0.212,0.213,0.328,0.495,0.327,0.795C18.007,10.775,17.502,11.28,16.882,11.28z"/>
</g>
</svg>
