<?xml version="1.0" encoding="utf-8"?>
<!-- Generator: Adobe Illustrator 22.1.0, SVG Export Plug-In . SVG Version: 6.00 Build 0)  -->
<svg version="1.1" id="Layer_1" xmlns="http://www.w3.org/2000/svg" xmlns:xlink="http://www.w3.org/1999/xlink" x="0px" y="0px"
	 viewBox="0 0 24 24" style="enable-background:new 0 0 24 24;" xml:space="preserve">
<title>question-help-square</title>
<g>
	<path d="M12,14.25c-0.414,0-0.75-0.336-0.75-0.75v-0.256c-0.001-0.952,0.602-1.805,1.5-2.122c0.897-0.317,1.5-1.17,1.5-2.121
		c0-0.6-0.234-1.165-0.66-1.59c-0.425-0.426-0.99-0.66-1.59-0.66c-0.601,0-1.166,0.234-1.591,0.659C9.984,7.834,9.75,8.399,9.75,9
		c0,0.413-0.336,0.75-0.75,0.75S8.25,9.413,8.25,9c0-2.067,1.683-3.749,3.75-3.749c1.002,0,1.944,0.39,2.652,1.099
		C15.36,7.058,15.75,8,15.75,9.001c0,1.586-1.005,3.006-2.5,3.535c-0.299,0.106-0.5,0.39-0.5,0.707V13.5
		C12.75,13.914,12.414,14.25,12,14.25z"/>
	<circle cx="12" cy="16.875" r="1.125"/>
	<path d="M2.25,24C1.009,24,0,22.991,0,21.75V2.25C0,1.009,1.009,0,2.25,0h19.5C22.991,0,24,1.009,24,2.25v19.5
		c0,1.241-1.009,2.25-2.25,2.25H2.25z M2.25,1.5C1.836,1.5,1.5,1.836,1.5,2.25v19.5c0,0.414,0.336,0.75,0.75,0.75h19.5
		c0.414,0,0.75-0.336,0.75-0.75V2.25c0-0.414-0.336-0.75-0.75-0.75H2.25z"/>
</g>
</svg>
