<?xml version="1.0" encoding="utf-8"?>
<!-- Generator: Adobe Illustrator 22.1.0, SVG Export Plug-In . SVG Version: 6.00 Build 0)  -->
<svg version="1.1" id="Layer_1" xmlns="http://www.w3.org/2000/svg" xmlns:xlink="http://www.w3.org/1999/xlink" x="0px" y="0px"
	 viewBox="0 0 24 24" style="enable-background:new 0 0 24 24;" xml:space="preserve">
<g>
	<title>newspaper-read</title>
	<path d="M9.807,11.065c-0.208,0-0.397-0.132-0.469-0.327c-0.046-0.125-0.041-0.261,0.015-0.383c0.056-0.121,0.156-0.213,0.281-0.26
		c0.016-0.01,0.082-0.088,0.133-0.294c0.131-0.535,0.007-1.209-0.065-1.323c-1.066-1.153-1.601-2.725-1.46-4.305
		C8.158,3.166,8.465,2.182,9.109,1.401c0.655-0.794,1.58-1.286,2.605-1.385c0.091-0.009,0.182-0.014,0.274-0.016
		c1.045,0.025,2.006,0.45,2.718,1.196c0.712,0.746,1.09,1.723,1.064,2.751c-0.002,0.075-0.006,0.15-0.012,0.225
		c0.141,1.58-0.394,3.152-1.471,4.318c-0.061,0.101-0.182,0.776-0.052,1.31c0.05,0.206,0.115,0.284,0.135,0.296
		c0.122,0.045,0.221,0.137,0.277,0.259s0.061,0.257,0.014,0.383c-0.072,0.195-0.26,0.326-0.469,0.326
		c-0.06,0-0.118-0.01-0.174-0.031c-0.257-0.095-0.596-0.345-0.755-0.995c-0.173-0.71-0.088-1.811,0.286-2.223
		c0.897-0.972,1.337-2.281,1.209-3.593c-0.003-0.032-0.003-0.066,0-0.099c0.006-0.064,0.01-0.132,0.011-0.2
		c0.019-0.763-0.26-1.486-0.786-2.038C13.459,1.333,12.75,1.019,11.988,1c-0.043,0.002-0.11,0.006-0.178,0.012
		c-0.759,0.073-1.444,0.437-1.929,1.025c-0.485,0.588-0.712,1.33-0.639,2.089c0.003,0.033,0.003,0.065,0,0.097
		c-0.128,1.312,0.311,2.621,1.206,3.59c0.377,0.415,0.464,1.517,0.291,2.226c-0.159,0.649-0.5,0.899-0.758,0.994
		C9.925,11.054,9.866,11.065,9.807,11.065L9.807,11.065z"/>
	<path d="M12,24c-0.048,0-0.095-0.007-0.143-0.021c-0.009-0.002-0.018-0.005-0.026-0.008L3.667,21.09C3.269,20.95,3,20.571,3,20.148
		v-8.941c0-0.268,0.105-0.519,0.294-0.707C3.483,10.311,3.733,10.207,4,10.207c0,0,0,0,0.001,0c0.115,0,0.226,0.02,0.331,0.057
		L12,12.97l7.667-2.706c0.115-0.04,0.22-0.049,0.313-0.056c0.001,0,0.002,0,0.003,0c0.285,0,0.534,0.104,0.722,0.291
		C20.895,10.687,21,10.938,21,11.206v8.941c0,0.424-0.269,0.802-0.668,0.943l-8.166,2.882c-0.009,0.003-0.018,0.006-0.028,0.008
		C12.09,23.994,12.045,24,12,24z M4,20.147l7.5,2.646v-8.94L4,11.207L4,20.147z M12.5,22.794l7.5-2.647l0-8.939l-0.006,0
		L12.5,13.854V22.794z"/>
	<path d="M10.007,15.796c-0.056,0-0.111-0.009-0.165-0.028l-4.5-1.588c-0.26-0.092-0.397-0.379-0.305-0.638
		c0.07-0.199,0.26-0.333,0.472-0.333c0.056,0,0.111,0.009,0.164,0.027l4.5,1.589c0.26,0.092,0.397,0.379,0.305,0.638
		C10.408,15.662,10.218,15.796,10.007,15.796z"/>
	<path d="M10.004,18.295c-0.056,0-0.112-0.01-0.165-0.028l-4.501-1.588c-0.26-0.092-0.397-0.378-0.305-0.638
		c0.07-0.199,0.26-0.333,0.472-0.333c0.056,0,0.111,0.009,0.164,0.028l4.502,1.588c0.26,0.092,0.397,0.378,0.305,0.638
		C10.405,18.161,10.215,18.295,10.004,18.295z"/>
	<path d="M9.973,20.784c-0.056,0-0.111-0.009-0.165-0.028l-2.467-0.87c-0.26-0.092-0.397-0.378-0.305-0.638
		c0.07-0.199,0.26-0.333,0.472-0.333c0.056,0,0.111,0.009,0.164,0.028l2.467,0.87c0.26,0.092,0.397,0.378,0.305,0.638
		C10.374,20.65,10.184,20.784,9.973,20.784z"/>
	<path d="M13.993,15.796c-0.211,0-0.401-0.134-0.471-0.333c-0.092-0.26,0.045-0.546,0.305-0.638l4.497-1.588
		c0.055-0.019,0.11-0.028,0.166-0.028c0.212,0,0.401,0.134,0.472,0.333c0.092,0.26-0.045,0.546-0.305,0.638l-4.497,1.588
		C14.104,15.787,14.049,15.796,13.993,15.796z"/>
	<path d="M13.996,18.295c-0.211,0-0.401-0.134-0.471-0.333c-0.092-0.26,0.045-0.546,0.305-0.638l4.499-1.588
		c0.055-0.019,0.11-0.028,0.166-0.028c0.212,0,0.402,0.134,0.472,0.333c0.092,0.26-0.045,0.546-0.305,0.638l-4.499,1.588
		C14.107,18.286,14.052,18.295,13.996,18.295z"/>
	<path d="M14.027,20.784c-0.211,0-0.401-0.134-0.471-0.333c-0.092-0.26,0.045-0.546,0.305-0.638l2.465-0.87
		c0.055-0.019,0.11-0.028,0.166-0.028c0.212,0,0.402,0.134,0.472,0.333c0.092,0.26-0.045,0.546-0.305,0.638l-2.465,0.87
		C14.138,20.775,14.083,20.784,14.027,20.784z"/>
</g>
</svg>
