<?xml version="1.0" encoding="utf-8"?>
<!-- Generator: Adobe Illustrator 22.1.0, SVG Export Plug-In . SVG Version: 6.00 Build 0)  -->
<svg version="1.1" id="Layer_1" xmlns="http://www.w3.org/2000/svg" xmlns:xlink="http://www.w3.org/1999/xlink" x="0px" y="0px"
	 viewBox="0 0 24 24" style="enable-background:new 0 0 24 24;" xml:space="preserve">
<title>computer-bug-search</title>
<g>
	<path d="M23.25,24c-0.182,0-0.357-0.066-0.494-0.186l-5.551-4.857c-1.711,1.318-3.818,2.041-5.968,2.041
		c-1.133,0-2.252-0.198-3.324-0.588c-2.231-0.812-4.086-2.406-5.224-4.49c-0.096-0.176-0.118-0.379-0.061-0.571
		c0.057-0.192,0.184-0.351,0.36-0.447c0.109-0.06,0.234-0.092,0.359-0.092c0.275,0,0.527,0.15,0.659,0.391
		c0.963,1.763,2.532,3.113,4.42,3.8c0.907,0.33,1.853,0.497,2.811,0.497c3.461,0,6.58-2.182,7.763-5.429
		c1.555-4.275-0.657-9.018-4.932-10.574C13.182,3.171,12.211,3,11.26,3c-0.232,0-0.466,0.01-0.695,0.03
		c-0.022,0.002-0.044,0.003-0.065,0.003c-0.392,0-0.713-0.295-0.747-0.685C9.735,2.148,9.797,1.954,9.926,1.8
		c0.129-0.153,0.31-0.247,0.51-0.265C10.707,1.512,10.985,1.5,11.26,1.5c1.125,0,2.274,0.202,3.322,0.585
		c2.443,0.889,4.395,2.68,5.497,5.042c1.102,2.363,1.219,5.01,0.33,7.453c-0.459,1.263-1.159,2.393-2.083,3.364l5.418,4.741
		c0.151,0.132,0.241,0.315,0.255,0.514c0.013,0.2-0.052,0.393-0.184,0.544C23.672,23.906,23.466,24,23.25,24z"/>
	<path d="M10.5,13.5c-0.2,0-0.389-0.078-0.53-0.22L8.86,12.171C8.151,13.01,7.111,13.5,6,13.5s-2.151-0.49-2.86-1.329L2.03,13.28
		C1.889,13.422,1.7,13.5,1.5,13.5s-0.389-0.078-0.53-0.22c-0.292-0.292-0.292-0.768,0-1.061L2.4,10.789
		c-0.1-0.341-0.15-0.69-0.15-1.039h-1.5C0.336,9.75,0,9.413,0,9s0.336-0.75,0.75-0.75h1.5V7.227L0.433,6.379
		C0.058,6.205-0.104,5.757,0.07,5.383C0.193,5.119,0.46,4.95,0.75,4.95c0.11,0,0.217,0.024,0.317,0.07l1.207,0.563
		c0.131-1.156,0.802-2.197,1.805-2.799l-0.85-1.699c-0.185-0.37-0.034-0.821,0.335-1.006C3.668,0.027,3.784,0,3.899,0
		c0.286,0,0.543,0.159,0.671,0.414l0.935,1.869C5.67,2.261,5.836,2.25,6,2.25s0.33,0.011,0.495,0.034l0.934-1.869
		C7.557,0.159,7.814,0,8.1,0c0.116,0,0.232,0.027,0.335,0.079c0.37,0.185,0.52,0.636,0.335,1.006l-0.849,1.7
		c1.003,0.601,1.674,1.643,1.805,2.798l1.206-0.563c0.101-0.047,0.207-0.07,0.317-0.07c0.29,0,0.557,0.17,0.68,0.432
		c0.175,0.375,0.012,0.822-0.362,0.997L9.75,7.227V8.25h1.5C11.664,8.25,12,8.586,12,9s-0.336,0.75-0.75,0.75h-1.5
		c0,0.349-0.05,0.698-0.15,1.039l1.431,1.431c0.292,0.292,0.292,0.768,0,1.061C10.889,13.422,10.7,13.5,10.5,13.5z M3.75,9.75
		C3.75,10.99,4.759,12,6,12s2.25-1.009,2.25-2.25V7.5h-4.5V9.75z M8.25,6c0-1.241-1.009-2.25-2.25-2.25S3.75,4.759,3.75,6H8.25z"/>
</g>
</svg>
