<?xml version="1.0" encoding="utf-8"?>
<!-- Generator: Adobe Illustrator 22.1.0, SVG Export Plug-In . SVG Version: 6.00 Build 0)  -->
<svg version="1.1" id="Layer_1" xmlns="http://www.w3.org/2000/svg" xmlns:xlink="http://www.w3.org/1999/xlink" x="0px" y="0px"
	 viewBox="0 0 24 24" style="enable-background:new 0 0 24 24;" xml:space="preserve">
<title>shield-bug</title>
<g>
	<path d="M12,24.001c-0.461,0-0.914-0.084-1.346-0.25l-1.041-0.4C4.76,21.484,1.5,16.737,1.5,11.538V3.924
		C1.495,3.048,2.008,2.245,2.806,1.88C5.666,0.631,8.686,0,11.788,0l0.219,0.001L12.193,0c3.115,0,6.14,0.631,8.989,1.875
		c0.809,0.37,1.324,1.175,1.318,2.054v7.609c0,5.199-3.26,9.946-8.113,11.813l-1.041,0.4C12.914,23.917,12.461,24.001,12,24.001z
		 M11.8,1.5c-2.903,0-5.723,0.589-8.382,1.749C3.165,3.365,2.998,3.629,3,3.919v7.619c0,4.583,2.874,8.768,7.151,10.413l1.041,0.4
		c0.26,0.1,0.531,0.151,0.808,0.151s0.548-0.051,0.808-0.15l1.041-0.4C18.126,20.305,21,16.121,21,11.538V3.924
		c0.002-0.293-0.167-0.559-0.43-0.68C17.921,2.087,15.101,1.5,12.194,1.5l-0.187,0.001L11.8,1.5z"/>
	<path d="M12,17.978c-0.2,0-0.389-0.078-0.53-0.22l-1.682-1.682c-0.224-0.224-0.283-0.567-0.147-0.853
		c0.196-0.411,0.196-0.882,0-1.293c-0.248-0.519-0.78-0.854-1.356-0.854c-0.224,0-0.44,0.049-0.643,0.146
		c-0.101,0.048-0.212,0.073-0.323,0.073c-0.201,0-0.389-0.078-0.531-0.22l-1.682-1.682c-0.142-0.141-0.22-0.33-0.22-0.53
		s0.078-0.389,0.22-0.53l1.061-1.061c-0.241-0.241-0.44-0.522-0.586-0.828C5.235,7.722,5.192,6.908,5.459,6.152
		C5.726,5.397,6.272,4.79,6.995,4.445C7.403,4.25,7.838,4.151,8.286,4.151c0.34,0,0.677,0.058,1.002,0.173
		c0.427,0.151,0.808,0.392,1.122,0.706l1.06-1.06C11.607,3.833,11.8,3.755,12,3.755s0.394,0.078,0.53,0.215l1.682,1.682
		c0.225,0.224,0.283,0.568,0.146,0.854c-0.196,0.411-0.196,0.882,0,1.293c0.248,0.518,0.78,0.853,1.357,0.853
		c0.224,0,0.44-0.049,0.643-0.146c0.1-0.048,0.212-0.073,0.323-0.073c0.201,0,0.389,0.078,0.531,0.22l1.679,1.682
		c0.292,0.292,0.292,0.768,0,1.06l-1.061,1.061c0.245,0.243,0.446,0.527,0.595,0.842c0.343,0.724,0.384,1.539,0.115,2.293
		c-0.269,0.755-0.816,1.359-1.541,1.703c-0.405,0.192-0.836,0.289-1.281,0.289c0,0,0,0,0,0c-0.802,0-1.571-0.324-2.129-0.883
		l-1.059,1.059C12.389,17.9,12.2,17.978,12,17.978z M12,16.168l1.152-1.152c0.141-0.142,0.33-0.22,0.53-0.22
		c0.042,0,0.085,0.003,0.128,0.011c0.24,0.042,0.446,0.198,0.55,0.418c0.247,0.521,0.78,0.857,1.358,0.857
		c0.222,0,0.438-0.049,0.64-0.145c0.362-0.172,0.635-0.474,0.77-0.851c0.135-0.377,0.114-0.785-0.057-1.147
		c-0.073-0.155-0.172-0.294-0.293-0.416c-0.003-0.002-0.005-0.005-0.008-0.007c-0.121-0.122-0.26-0.22-0.413-0.292
		c-0.22-0.104-0.376-0.31-0.417-0.55c-0.041-0.24,0.037-0.486,0.209-0.658l1.152-1.152l-0.812-0.814
		c-0.252,0.068-0.51,0.102-0.772,0.102c-1.152,0-2.216-0.67-2.711-1.707c-0.312-0.654-0.378-1.38-0.191-2.07L12,5.561l-1.152,1.152
		c-0.139,0.139-0.333,0.219-0.531,0.219c-0.041,0-0.083-0.003-0.124-0.01C9.952,6.881,9.746,6.725,9.641,6.506
		C9.469,6.144,9.165,5.872,8.788,5.738C8.625,5.68,8.456,5.651,8.286,5.651c-0.223,0-0.44,0.05-0.645,0.147
		C7.28,5.971,7.007,6.274,6.873,6.652C6.74,7.03,6.761,7.437,6.934,7.799c0.147,0.309,0.399,0.56,0.707,0.707
		c0.219,0.105,0.375,0.31,0.416,0.55c0.041,0.24-0.037,0.486-0.209,0.657l-1.152,1.152l0.814,0.814
		c0.253-0.068,0.513-0.103,0.775-0.103c0.34,0,0.677,0.058,1.002,0.173c0.756,0.267,1.362,0.812,1.707,1.535
		c0.312,0.654,0.378,1.38,0.191,2.07L12,16.168z"/>
</g>
</svg>
