<?xml version="1.0" encoding="utf-8"?>
<!-- Generator: Adobe Illustrator 22.1.0, SVG Export Plug-In . SVG Version: 6.00 Build 0)  -->
<svg version="1.1" id="Layer_1" xmlns="http://www.w3.org/2000/svg" xmlns:xlink="http://www.w3.org/1999/xlink" x="0px" y="0px"
	 viewBox="0 0 24 24" style="enable-background:new 0 0 24 24;" xml:space="preserve">
<title>shield-monitor</title>
<g>
	<path d="M12,24.001c-0.461,0-0.914-0.084-1.346-0.25l-1.041-0.4C4.76,21.484,1.5,16.737,1.5,11.538V3.924
		C1.495,3.048,2.008,2.245,2.806,1.88C5.666,0.631,8.686,0,11.788,0l0.219,0.001L12.193,0c3.115,0,6.14,0.631,8.989,1.875
		c0.809,0.37,1.324,1.175,1.318,2.054v7.609c0,5.199-3.26,9.946-8.113,11.813l-1.041,0.4C12.914,23.917,12.461,24.001,12,24.001z
		 M11.8,1.5c-2.903,0-5.723,0.589-8.382,1.749C3.165,3.365,2.998,3.629,3,3.919v7.619c0,4.583,2.874,8.768,7.151,10.413l1.041,0.4
		c0.26,0.1,0.531,0.151,0.808,0.151s0.548-0.051,0.808-0.15l1.041-0.4C18.126,20.305,21,16.121,21,11.538V3.924
		c0.002-0.293-0.167-0.559-0.43-0.68C17.921,2.087,15.101,1.5,12.194,1.5l-0.187,0.001L11.8,1.5z"/>
	<path d="M9.75,16.5C9.336,16.5,9,16.164,9,15.75S9.336,15,9.75,15h1.5v-1.5h-3C7.009,13.5,6,12.491,6,11.251v-4.5
		c0-1.241,1.009-2.25,2.25-2.25h7.5c1.241,0,2.25,1.009,2.25,2.25v4.5c0,1.241-1.009,2.25-2.25,2.25h-3V15h1.5
		c0.414,0,0.75,0.336,0.75,0.75s-0.336,0.75-0.75,0.75H9.75z M8.25,6.001c-0.414,0-0.75,0.336-0.75,0.75v4.5
		C7.5,11.664,7.836,12,8.25,12h7.5c0.414,0,0.75-0.336,0.75-0.75v-4.5c0-0.414-0.336-0.75-0.75-0.75H8.25z"/>
</g>
</svg>
