<?xml version="1.0" encoding="utf-8"?>
<!-- Generator: Adobe Illustrator 22.1.0, SVG Export Plug-In . SVG Version: 6.00 Build 0)  -->
<svg version="1.1" id="Layer_1" xmlns="http://www.w3.org/2000/svg" xmlns:xlink="http://www.w3.org/1999/xlink" x="0px" y="0px"
	 viewBox="0 0 24 24" style="enable-background:new 0 0 24 24;" xml:space="preserve">
<title>shield-unlock</title>
<g>
	<path d="M12,24.001c-0.461,0-0.914-0.084-1.346-0.25l-1.041-0.4C4.76,21.484,1.5,16.737,1.5,11.538V3.924
		C1.495,3.048,2.008,2.245,2.806,1.88C5.666,0.631,8.686,0,11.788,0l0.219,0.001L12.193,0c3.115,0,6.14,0.631,8.989,1.875
		c0.809,0.37,1.324,1.175,1.318,2.054v7.609c0,5.199-3.26,9.946-8.113,11.813l-1.041,0.4C12.914,23.917,12.461,24.001,12,24.001z
		 M11.8,1.5c-2.903,0-5.723,0.589-8.382,1.749C3.165,3.365,2.998,3.629,3,3.919v7.619c0,4.583,2.874,8.768,7.151,10.413l1.041,0.4
		c0.26,0.1,0.531,0.151,0.808,0.151s0.548-0.051,0.808-0.15l1.041-0.4C18.126,20.305,21,16.121,21,11.538V3.924
		c0.002-0.293-0.167-0.559-0.43-0.68C17.921,2.087,15.101,1.5,12.194,1.5l-0.187,0.001L11.8,1.5z"/>
	<path d="M9,18c-1.241,0-2.25-1.009-2.25-2.25v-4.5c0-1.241,1.009-2.25,2.25-2.25h5.25v-2.25c0-1.241-1.009-2.25-2.25-2.25
		c-1.241,0-2.25,1.009-2.25,2.25c0,0.414-0.336,0.75-0.75,0.75s-0.75-0.336-0.75-0.75c0-2.068,1.682-3.75,3.75-3.75
		c2.068,0,3.75,1.682,3.75,3.75v2.379c0.885,0.314,1.5,1.162,1.5,2.121v4.5c0,1.241-1.009,2.25-2.25,2.25H9z M9,10.501
		c-0.414,0-0.75,0.336-0.75,0.75v4.5c0,0.414,0.336,0.75,0.75,0.75h6c0.414,0,0.75-0.336,0.75-0.75v-4.5
		c0-0.414-0.336-0.75-0.75-0.75H9z"/>
	<circle cx="12" cy="13.529" r="1.125"/>
</g>
</svg>
