<?xml version="1.0" encoding="utf-8"?>
<!-- Generator: Adobe Illustrator 22.1.0, SVG Export Plug-In . SVG Version: 6.00 Build 0)  -->
<svg version="1.1" id="Regular" xmlns="http://www.w3.org/2000/svg" xmlns:xlink="http://www.w3.org/1999/xlink" x="0px" y="0px"
	 viewBox="0 0 24 24" style="enable-background:new 0 0 24 24;" xml:space="preserve">
<title>single-man-shopping-bag</title>
<g>
	<path d="M11.25,24c-0.218,0-0.424-0.094-0.567-0.259c-0.142-0.164-0.206-0.382-0.176-0.597l1.5-10.5
		C12.061,12.277,12.38,12,12.75,12h1.5v-1.5c0-1.654,1.346-3,3-3s3,1.346,3,3V12h1.5c0.37,0,0.69,0.277,0.742,0.644l1.5,10.5
		c0.031,0.215-0.034,0.433-0.177,0.598C23.675,23.906,23.468,24,23.25,24H11.25z M22.386,22.5l-1.286-9h-0.85v2.25
		c0,0.414-0.336,0.75-0.75,0.75s-0.75-0.336-0.75-0.75V13.5h-3v2.25c0,0.414-0.336,0.75-0.75,0.75s-0.75-0.336-0.75-0.75V13.5h-0.85
		l-1.286,9H22.386z M18.75,12v-1.5c0-0.827-0.673-1.5-1.5-1.5s-1.5,0.673-1.5,1.5V12H18.75z"/>
	<path d="M5.25,7.5C3.183,7.5,1.5,5.818,1.5,3.75S3.183,0,5.25,0S9,1.682,9,3.75S7.318,7.5,5.25,7.5z M5.25,1.5
		C4.01,1.5,3,2.509,3,3.75S4.01,6,5.25,6S7.5,4.991,7.5,3.75S6.491,1.5,5.25,1.5z"/>
	<path d="M3,24c-0.387,0-0.708-0.29-0.746-0.675L1.572,16.5H0.75C0.337,16.5,0,16.164,0,15.75v-3c0-1.912,1.039-3.674,2.714-4.598
		C3.48,7.73,4.347,7.505,5.222,7.501C5.232,7.5,5.242,7.5,5.25,7.5c0.017,0,0.034,0.001,0.051,0.003
		c1.894,0.021,3.635,1.058,4.546,2.71c0.2,0.362,0.068,0.819-0.294,1.019c-0.111,0.061-0.236,0.093-0.362,0.093l0,0
		c-0.273,0-0.525-0.149-0.657-0.388C8,9.971,7.072,9.296,6,9.077v5.173C6,14.664,5.664,15,5.25,15S4.5,14.664,4.5,14.25V9.076
		c-0.372,0.075-0.728,0.205-1.062,0.39C2.243,10.126,1.5,11.384,1.5,12.75V15h0.75c0.387,0,0.708,0.29,0.746,0.675L3.679,22.5h3.143
		l0.442-4.425c0.039-0.385,0.357-0.676,0.741-0.676c0.028,0,0.057,0.002,0.086,0.005c0.193,0.019,0.373,0.115,0.5,0.271
		c0.127,0.155,0.186,0.35,0.166,0.55l-0.51,5.1C8.208,23.71,7.887,24,7.5,24H3z"/>
</g>
</svg>
