<?xml version="1.0" encoding="utf-8"?>
<!-- Generator: Adobe Illustrator 22.1.0, SVG Export Plug-In . SVG Version: 6.00 Build 0)  -->
<svg version="1.1" id="Regular" xmlns="http://www.w3.org/2000/svg" xmlns:xlink="http://www.w3.org/1999/xlink" x="0px" y="0px"
	 viewBox="0 0 24 24" style="enable-background:new 0 0 24 24;" xml:space="preserve">
<title>single-man-time</title>
<g>
	<path d="M5.25,7.5C3.182,7.5,1.5,5.818,1.5,3.75S3.182,0,5.25,0S9,1.682,9,3.75S7.318,7.5,5.25,7.5z M5.25,1.5
		C4.009,1.5,3,2.509,3,3.75S4.009,6,5.25,6S7.5,4.991,7.5,3.75S6.491,1.5,5.25,1.5z"/>
	<path d="M3,24c-0.387,0-0.708-0.29-0.746-0.675L1.571,16.5H0.75C0.336,16.5,0,16.164,0,15.75v-3C0,9.855,2.355,7.5,5.25,7.5
		s5.25,2.355,5.25,5.25v3c0,0.414-0.336,0.75-0.75,0.75H8.929l-0.682,6.825C8.208,23.71,7.887,24,7.5,24H3z M6.821,22.5l0.682-6.825
		C7.542,15.29,7.863,15,8.25,15H9v-2.25c0-1.781-1.288-3.32-3-3.672v5.172C6,14.664,5.664,15,5.25,15S4.5,14.664,4.5,14.25V9.078
		c-1.712,0.352-3,1.892-3,3.672V15h0.75c0.387,0,0.708,0.29,0.746,0.675L3.679,22.5H6.821z"/>
	<path d="M17.25,13.5c-3.722,0-6.75-3.028-6.75-6.75S13.528,0,17.25,0S24,3.028,24,6.75S20.972,13.5,17.25,13.5z M17.25,1.5
		C14.355,1.5,12,3.855,12,6.75S14.355,12,17.25,12s5.25-2.355,5.25-5.25S20.145,1.5,17.25,1.5z"/>
	<path d="M17.25,7.5c-0.414,0-0.75-0.336-0.75-0.75V4.098c0-0.414,0.336-0.75,0.75-0.75S18,3.684,18,4.098V6h1.902
		c0.414,0,0.75,0.336,0.75,0.75s-0.336,0.75-0.75,0.75H17.25z"/>
</g>
</svg>
