<?xml version="1.0" encoding="utf-8"?>
<!-- Generator: Adobe Illustrator 22.1.0, SVG Export Plug-In . SVG Version: 6.00 Build 0)  -->
<svg version="1.1" id="Regular" xmlns="http://www.w3.org/2000/svg" xmlns:xlink="http://www.w3.org/1999/xlink" x="0px" y="0px"
	 viewBox="0 0 24 24" style="enable-background:new 0 0 24 24;" xml:space="preserve">
<title>single-man-flag-1</title>
<g>
	<path d="M0.75,24C0.336,24,0,23.664,0,23.25V0.75C0,0.336,0.336,0,0.75,0S1.5,0.336,1.5,0.75V1.5h9.75
		c0.305,0,0.577,0.182,0.693,0.463c0.117,0.281,0.053,0.602-0.163,0.817L8.561,6l3.22,3.22c0.215,0.215,0.279,0.536,0.163,0.818
		c-0.116,0.281-0.388,0.463-0.693,0.463H1.5v12.75C1.5,23.664,1.164,24,0.75,24z M9.439,9L6.97,6.53C6.828,6.389,6.75,6.2,6.75,6
		s0.078-0.389,0.22-0.53L9.439,3H1.5v6H9.439z"/>
	<path d="M18.75,7.5C16.682,7.5,15,5.818,15,3.75S16.682,0,18.75,0s3.75,1.682,3.75,3.75S20.818,7.5,18.75,7.5z M18.75,1.5
		c-1.241,0-2.25,1.009-2.25,2.25S17.509,6,18.75,6S21,4.991,21,3.75S19.991,1.5,18.75,1.5z"/>
	<path d="M16.5,24c-0.387,0-0.708-0.291-0.746-0.676L15.071,16.5H14.25c-0.414,0-0.75-0.336-0.75-0.75v-3
		c0-2.895,2.355-5.25,5.25-5.25S24,9.855,24,12.75v3c0,0.414-0.336,0.75-0.75,0.75h-0.821l-0.683,6.825
		C21.708,23.709,21.387,24,21,24H16.5z M20.321,22.5l0.683-6.825C21.042,15.291,21.363,15,21.75,15h0.75v-2.25
		c0-1.781-1.288-3.32-3-3.672v5.172c0,0.414-0.336,0.75-0.75,0.75S18,14.664,18,14.25V9.078c-1.712,0.352-3,1.892-3,3.672V15h0.75
		c0.387,0,0.708,0.291,0.746,0.676l0.683,6.824H20.321z"/>
</g>
</svg>
