<?xml version="1.0" encoding="utf-8"?>
<!-- Generator: Adobe Illustrator 22.1.0, SVG Export Plug-In . SVG Version: 6.00 Build 0)  -->
<svg version="1.1" id="Regular" xmlns="http://www.w3.org/2000/svg" xmlns:xlink="http://www.w3.org/1999/xlink" x="0px" y="0px"
	 viewBox="0 0 24 24" style="enable-background:new 0 0 24 24;" xml:space="preserve">
<title>single-man-money</title>
<g>
	<path d="M5.25,7.5C3.182,7.5,1.5,5.818,1.5,3.75S3.182,0,5.25,0S9,1.682,9,3.75S7.318,7.5,5.25,7.5z M5.25,1.5
		C4.009,1.5,3,2.509,3,3.75S4.009,6,5.25,6S7.5,4.991,7.5,3.75S6.491,1.5,5.25,1.5z"/>
	<path d="M3,24c-0.387,0-0.708-0.29-0.746-0.675L1.571,16.5H0.75C0.336,16.5,0,16.164,0,15.75v-3C0,9.855,2.355,7.5,5.25,7.5
		s5.25,2.355,5.25,5.25v3c0,0.414-0.336,0.75-0.75,0.75H8.929l-0.682,6.825C8.208,23.71,7.887,24,7.5,24H3z M6.821,22.5l0.682-6.825
		C7.542,15.29,7.863,15,8.25,15H9v-2.25c0-1.781-1.288-3.32-3-3.672v5.172C6,14.664,5.664,15,5.25,15S4.5,14.664,4.5,14.25V9.078
		c-1.712,0.352-3,1.892-3,3.672V15h0.75c0.387,0,0.708,0.29,0.746,0.675L3.679,22.5H6.821z"/>
	<path d="M17.25,11.25c-0.414,0-0.75-0.336-0.75-0.75h-0.75c-0.414,0-0.75-0.336-0.75-0.75S15.336,9,15.75,9h2.031
		c0.245,0,0.461-0.146,0.551-0.372c0.059-0.147,0.057-0.308-0.006-0.453c-0.062-0.146-0.177-0.258-0.324-0.317l-2.064-0.825
		c-0.798-0.321-1.312-1.083-1.313-1.94c0-0.559,0.217-1.084,0.612-1.479C15.581,3.27,16.023,3.06,16.5,3.011V3
		c0-0.414,0.336-0.75,0.75-0.75S18,2.586,18,3h0.75c0.414,0,0.75,0.336,0.75,0.75S19.164,4.5,18.75,4.5h-1.437
		c-0.022,0.003-0.042,0.004-0.063,0.004c-0.022,0-0.043-0.002-0.063-0.004h-0.469c-0.158,0-0.306,0.062-0.418,0.174
		c-0.112,0.112-0.173,0.26-0.173,0.418c0,0.243,0.146,0.458,0.371,0.549l2.062,0.824c0.519,0.208,0.926,0.605,1.146,1.119
		c0.22,0.514,0.227,1.082,0.019,1.601C19.432,9.916,18.77,10.41,18,10.489V10.5C18,10.914,17.664,11.25,17.25,11.25z"/>
	<path d="M17.25,13.5c-3.722,0-6.75-3.028-6.75-6.75S13.528,0,17.25,0S24,3.028,24,6.75S20.972,13.5,17.25,13.5z M17.25,1.5
		C14.355,1.5,12,3.855,12,6.75S14.355,12,17.25,12s5.25-2.355,5.25-5.25S20.145,1.5,17.25,1.5z"/>
</g>
</svg>
