<?xml version="1.0" encoding="utf-8"?>
<!-- Generator: Adobe Illustrator 22.1.0, SVG Export Plug-In . SVG Version: 6.00 Build 0)  -->
<svg version="1.1" id="Layer_1" xmlns="http://www.w3.org/2000/svg" xmlns:xlink="http://www.w3.org/1999/xlink" x="0px" y="0px"
	 viewBox="0 0 24 24" style="enable-background:new 0 0 24 24;" xml:space="preserve">
<title>rating-star-square</title>
<g>
	<path d="M8.255,18.495c-0.137,0-0.275-0.019-0.409-0.057c-0.386-0.108-0.707-0.361-0.904-0.711
		c-0.229-0.407-0.254-0.906-0.068-1.335l1.184-2.719l-2.132-2.098c-0.286-0.281-0.446-0.657-0.449-1.059
		c-0.003-0.401,0.15-0.78,0.431-1.066C6.19,9.165,6.58,9.001,6.981,9.001h2.273l1.392-2.746C10.901,5.741,11.421,5.421,12,5.421
		c0.235,0,0.461,0.053,0.672,0.158c0.293,0.146,0.534,0.386,0.68,0.678L14.742,9h2.285c0.401,0,0.777,0.157,1.06,0.44
		c0.282,0.283,0.438,0.66,0.438,1.06c0,0.397-0.162,0.785-0.445,1.064l-2.139,2.109l1.184,2.719c0.331,0.76-0.019,1.647-0.778,1.978
		c-0.189,0.083-0.39,0.124-0.598,0.124h0c-0.258,0-0.512-0.066-0.736-0.191L12,16.608l-3.01,1.693
		C8.764,18.428,8.51,18.495,8.255,18.495z M12,14.998c0.128,0,0.255,0.033,0.367,0.096l3.379,1.9l-1.386-3.195
		c-0.123-0.282-0.058-0.617,0.161-0.834l2.505-2.469L14.281,10.5c-0.284,0-0.54-0.157-0.669-0.411l-1.6-3.157
		c0,0-0.027-0.002-0.027-0.002l-1.601,3.16c-0.128,0.253-0.385,0.411-0.669,0.411H6.981c-0.001,0-0.002,0-0.002,0.001l2.5,2.464
		c0.22,0.216,0.285,0.552,0.162,0.834L8.25,16.99l3.382-1.896C11.745,15.031,11.872,14.998,12,14.998z"/>
	<path d="M3.75,24C1.682,24,0,22.318,0,20.25V3.75C0,1.682,1.682,0,3.75,0h16.5C22.318,0,24,1.682,24,3.75v16.5
		c0,2.068-1.682,3.75-3.75,3.75H3.75z M3.75,1.5C2.509,1.5,1.5,2.509,1.5,3.75v16.5c0,1.241,1.009,2.25,2.25,2.25h16.5
		c1.241,0,2.25-1.009,2.25-2.25V3.75c0-1.241-1.009-2.25-2.25-2.25H3.75z"/>
</g>
</svg>
