<?xml version="1.0" encoding="utf-8"?>
<!-- Generator: Adobe Illustrator 22.1.0, SVG Export Plug-In . SVG Version: 6.00 Build 0)  -->
<svg version="1.1" id="Layer_1" xmlns="http://www.w3.org/2000/svg" xmlns:xlink="http://www.w3.org/1999/xlink" x="0px" y="0px"
	 viewBox="0 0 24 24" style="enable-background:new 0 0 24 24;" xml:space="preserve">
<title>rating-star-winner</title>
<g>
	<path d="M14.608,22.878c-0.125,0-0.25-0.016-0.372-0.049c-0.372-0.099-0.682-0.336-0.875-0.669
		c-0.224-0.386-0.255-0.862-0.083-1.274l1.225-2.812c0.12-0.274,0.39-0.45,0.688-0.45c0.103,0,0.204,0.021,0.299,0.062
		c0.379,0.166,0.553,0.608,0.388,0.988l-1.142,2.62l2.896-1.63c0.113-0.063,0.24-0.096,0.368-0.096s0.255,0.033,0.367,0.096
		l2.897,1.63l-1.184-2.72c-0.118-0.271-0.065-0.587,0.135-0.806l2.192-2.392h-2.331c-0.272,0-0.524-0.148-0.656-0.386l-1.251-2.252
		c-0.201-0.362-0.07-0.819,0.292-1.02c0.111-0.062,0.237-0.094,0.364-0.094c0.272,0,0.524,0.148,0.656,0.385l1.037,1.866h2.04
		c0.381,0.001,0.738,0.144,1.006,0.403c0.274,0.266,0.429,0.623,0.434,1.005c0.006,0.387-0.148,0.765-0.424,1.038l-1.924,2.101
		l1.068,2.453c0.152,0.364,0.153,0.757,0.006,1.112c-0.147,0.355-0.423,0.632-0.778,0.779c-0.174,0.073-0.36,0.11-0.551,0.11l0,0
		c-0.253,0-0.502-0.066-0.72-0.192L18,21.179l-2.682,1.509C15.105,22.811,14.858,22.878,14.608,22.878z"/>
	<path d="M9.393,22.877c-0.251,0-0.5-0.067-0.719-0.194L6,21.179l-2.683,1.51c-0.212,0.122-0.459,0.188-0.711,0.188
		c-0.191,0-0.377-0.037-0.552-0.11c-0.732-0.304-1.08-1.147-0.776-1.879l1.073-2.465l-1.949-2.126
		c-0.254-0.251-0.404-0.625-0.398-1.012c0.006-0.382,0.16-0.739,0.434-1.005c0.262-0.254,0.619-0.397,1.006-0.403h2.039L4.52,12.01
		c0.132-0.238,0.384-0.386,0.656-0.386c0.127,0,0.253,0.033,0.364,0.095c0.361,0.201,0.492,0.658,0.291,1.02L4.579,14.99
		c-0.132,0.238-0.383,0.386-0.656,0.386H1.592l2.193,2.392c0.2,0.219,0.253,0.535,0.135,0.806l-1.184,2.72l2.896-1.63
		c0.113-0.063,0.24-0.096,0.368-0.096c0.128,0,0.255,0.033,0.367,0.096l2.897,1.63l-1.142-2.62
		c-0.165-0.379,0.009-0.822,0.388-0.987c0.095-0.042,0.196-0.062,0.299-0.062c0.299,0,0.569,0.177,0.688,0.45l1.22,2.8
		c0.176,0.421,0.145,0.9-0.079,1.286c-0.192,0.332-0.503,0.57-0.874,0.668C9.643,22.861,9.518,22.877,9.393,22.877z"/>
	<path d="M16.027,16.123c-0.191,0-0.382-0.045-0.553-0.131l-3.539-1.769l-3.54,1.77c-0.173,0.086-0.358,0.13-0.55,0.13
		c-0.472,0-0.896-0.262-1.106-0.684c-0.135-0.271-0.166-0.581-0.087-0.873l1.054-3.864L4.863,7.856
		C4.63,7.624,4.501,7.314,4.5,6.984c0-0.33,0.128-0.64,0.361-0.874c0.2-0.201,0.467-0.328,0.75-0.357l3.415-0.342l1.802-3.606
		c0.144-0.293,0.396-0.513,0.709-0.619c0.129-0.044,0.262-0.066,0.397-0.066c0.187,0,0.376,0.044,0.546,0.128
		c0.241,0.119,0.44,0.317,0.56,0.559l1.803,3.605l3.416,0.342c0.678,0.069,1.174,0.677,1.104,1.354
		c-0.029,0.282-0.155,0.547-0.354,0.746l-2.845,2.845l1.054,3.863c0.087,0.317,0.045,0.65-0.119,0.937s-0.429,0.492-0.747,0.578
		C16.245,16.108,16.136,16.123,16.027,16.123z M11.935,12.634c0.116,0,0.232,0.027,0.335,0.079l3.344,1.671l-1.011-3.709
		c-0.071-0.259,0.003-0.538,0.194-0.728l2.756-2.756l-3.27-0.327c-0.257-0.026-0.48-0.179-0.596-0.411L11.934,2.95l-1.75,3.502
		c-0.116,0.232-0.339,0.385-0.596,0.411L6.318,7.191l2.757,2.757c0.19,0.19,0.264,0.469,0.193,0.728l-1.011,3.709l3.342-1.671
		C11.703,12.662,11.819,12.634,11.935,12.634z"/>
</g>
</svg>
