<?xml version="1.0" encoding="utf-8"?>
<!-- Generator: Adobe Illustrator 22.1.0, SVG Export Plug-In . SVG Version: 6.00 Build 0)  -->
<svg version="1.1" id="Layer_1" xmlns="http://www.w3.org/2000/svg" xmlns:xlink="http://www.w3.org/1999/xlink" x="0px" y="0px"
	 viewBox="0 0 24 24" style="enable-background:new 0 0 24 24;" xml:space="preserve">
<title>rating-star-add</title>
<g>
	<path d="M17.25,23.999c-3.722,0-6.75-3.028-6.75-6.75s3.028-6.75,6.75-6.75S24,13.528,24,17.249S20.972,23.999,17.25,23.999z
		 M17.25,11.999c-2.895,0-5.25,2.355-5.25,5.25c0,2.895,2.355,5.25,5.25,5.25s5.25-2.355,5.25-5.25
		C22.5,14.354,20.145,11.999,17.25,11.999z"/>
	<path d="M17.25,20.999c-0.414,0-0.75-0.336-0.75-0.75v-2.25h-2.25c-0.414,0-0.75-0.336-0.75-0.75s0.336-0.75,0.75-0.75h2.25v-2.25
		c0-0.414,0.336-0.75,0.75-0.75S18,13.836,18,14.249v2.25h2.25c0.414,0,0.75,0.336,0.75,0.75s-0.336,0.75-0.75,0.75H18v2.25
		C18,20.663,17.663,20.999,17.25,20.999z"/>
	<path d="M5.115,23.999c-0.135,0-0.27-0.018-0.401-0.052c-0.404-0.107-0.741-0.365-0.951-0.726
		c-0.209-0.361-0.266-0.782-0.159-1.186l1.842-6.722l-4.989-4.944c-0.263-0.26-0.424-0.607-0.455-0.976
		C-0.033,8.98,0.096,8.577,0.365,8.26c0.268-0.317,0.644-0.51,1.058-0.545l6.018-0.596l3.16-6.257
		c0.153-0.298,0.389-0.534,0.684-0.685c0.221-0.113,0.467-0.173,0.713-0.173c0.163,0,0.326,0.026,0.483,0.076
		c0.399,0.129,0.724,0.405,0.915,0.778l3.157,6.261l6.03,0.597c0.359,0.03,0.703,0.191,0.964,0.454
		C23.84,8.465,24,8.856,23.998,9.272c-0.002,0.415-0.165,0.805-0.46,1.098l-0.279,0.276c-0.141,0.14-0.329,0.217-0.527,0.217
		c-0.202,0-0.392-0.079-0.533-0.223c-0.141-0.142-0.218-0.331-0.217-0.531c0.001-0.2,0.08-0.388,0.223-0.529l0.278-0.275
		c0.01-0.01,0.016-0.023,0.016-0.039c0-0.014-0.005-0.027-0.016-0.038c-0.009-0.009-0.022-0.015-0.035-0.016l-6.451-0.639
		c-0.257-0.026-0.48-0.178-0.596-0.409l-3.341-6.625c-0.007-0.013-0.021-0.024-0.038-0.03c-0.01-0.001-0.017-0.001-0.024-0.001
		c-0.015,0-0.022,0.002-0.029,0.006c-0.013,0.007-0.023,0.016-0.03,0.03L8.594,8.163c-0.116,0.23-0.339,0.383-0.595,0.408
		l-6.44,0.638C1.528,9.211,1.517,9.22,1.509,9.229c-0.01,0.012-0.014,0.025-0.013,0.04c0.001,0.013,0.007,0.026,0.016,0.035
		l5.3,5.253c0.192,0.19,0.267,0.47,0.195,0.731l-1.956,7.138c-0.003,0.011-0.001,0.027,0.008,0.042
		c0.009,0.015,0.021,0.025,0.038,0.029c0.007,0.001,0.012,0.001,0.017,0.001c0.014,0,0.021-0.002,0.028-0.006l3.741-1.853
		c0.103-0.051,0.218-0.078,0.333-0.078c0.287,0,0.544,0.16,0.672,0.417c0.089,0.179,0.103,0.383,0.038,0.573
		c-0.064,0.19-0.198,0.344-0.378,0.432l-3.737,1.851C5.6,23.942,5.358,23.999,5.115,23.999z"/>
</g>
</svg>
