<svg xmlns="http://www.w3.org/2000/svg" viewBox="0 0 24 24"><defs><style>.a{fill:none;stroke:currentColor;stroke-linecap:round;stroke-linejoin:round;stroke-width:1.5px;}</style></defs><title>modern-music-monitor-speaker</title><circle class="a" cx="18" cy="18" r="2.25"/><circle class="a" cx="18" cy="11.25" r="1.5"/><rect class="a" x="12.75" y="6" width="10.5" height="17.25" rx="2" ry="2"/><path class="a" d="M9.75,17.25H2.25a1.5,1.5,0,0,1-1.5-1.5V2.25A1.5,1.5,0,0,1,2.25.75h16.5a1.5,1.5,0,0,1,1.5,1.5h0"/><line class="a" x1="8.25" y1="21" x2="8.25" y2="17.25"/><line class="a" x1="7.5" y1="21" x2="9.75" y2="21"/><circle class="a" cx="6.75" cy="9.75" r="1.5"/><path class="a" d="M13.673,3.739a1.5,1.5,0,0,0-1.287-.273l-3,.75A1.5,1.5,0,0,0,8.25,5.671V9.75"/><line class="a" x1="0.75" y1="14.25" x2="9.75" y2="14.25"/></svg>