<svg xmlns="http://www.w3.org/2000/svg" viewBox="0 0 24 24"><defs><style>.a{fill:none;stroke:currentColor;stroke-linecap:round;stroke-linejoin:round;stroke-width:1.5px;}</style></defs><title>modern-music-cymbal</title><line class="a" x1="13.501" y1="23.25" x2="13.501" y2="15.652"/><line class="a" x1="10.501" y1="15.653" x2="10.501" y2="23.25"/><path class="a" d="M13.5,5.348,13.5,2.767a.519.519,0,0,0-.521-.517l-1.956,0a.519.519,0,0,0-.517.521l.005,2.572"/><line class="a" x1="12.001" y1="0.75" x2="12.001" y2="2.25"/><line class="a" x1="2.25" y1="9" x2="21.75" y2="9"/><path class="a" d="M19.685,9a1.729,1.729,0,0,0-.185-.75c-.75-1.5-4.186-3-7.5-3s-6.75,1.5-7.5,3A1.729,1.729,0,0,0,4.315,9"/><line class="a" x1="2.25" y1="12" x2="21.75" y2="12"/><path class="a" d="M19.685,12a1.729,1.729,0,0,1-.185.75c-.75,1.5-4.186,3-7.5,3s-6.75-1.5-7.5-3A1.729,1.729,0,0,1,4.315,12"/></svg>