<svg xmlns="http://www.w3.org/2000/svg" viewBox="0 0 24 24"><defs><style>.a{fill:none;stroke:currentColor;stroke-linecap:round;stroke-linejoin:round;stroke-width:1.5px;}</style></defs><title>modern-music-electric-guitar</title><path class="a" d="M19.677,6.658A1.051,1.051,0,0,1,18.168,6.6L16.6,4.987a1.118,1.118,0,0,1-.06-1.548l.191-.2A.96.96,0,0,1,17.137,3L21.91,1.54a1.023,1.023,0,0,1,1.022.287,1.036,1.036,0,0,1,.056,1.434Z"/><path class="a" d="M11.022,10.532a2.97,2.97,0,0,1-.8-2.558,6.382,6.382,0,0,1,.715-2,1.179,1.179,0,0,0-.189-1.386,1.113,1.113,0,0,0-1.613,0A6.572,6.572,0,0,0,7.281,8.012c-.211,1.044-.97,2.474-2.046,2.49A4.558,4.558,0,0,0,.75,15.256a6.1,6.1,0,0,0,1.8,4.284l1.087,1.115A5.808,5.808,0,0,0,7.812,22.5a4.554,4.554,0,0,0,4.633-4.6c-.005-1.1,1.2-1.794,2.234-1.755a3.956,3.956,0,0,0,3.254-1.261,1.116,1.116,0,0,0-.713-1.861c-3.245-.272-3.928-.162-4.8-1.06Z"/><line class="a" x1="8.515" y1="12.787" x2="10.586" y2="14.911"/><line class="a" x1="11.889" y1="11.421" x2="17.384" y2="5.791"/><ellipse class="a" cx="6.402" cy="17.057" rx="1.479" ry="1.517"/></svg>