<?xml version="1.0" encoding="utf-8"?>
<!-- Generator: Adobe Illustrator 22.1.0, SVG Export Plug-In . SVG Version: 6.00 Build 0)  -->
<svg version="1.1" id="Layer_1" xmlns="http://www.w3.org/2000/svg" xmlns:xlink="http://www.w3.org/1999/xlink" x="0px" y="0px"
	 viewBox="0 0 24 24" style="enable-background:new 0 0 24 24;" xml:space="preserve">
<title>composition-oval</title>
<g>
	<path d="M12.644,22.509c-0.222,0-0.445-0.003-0.667-0.01c-0.196,0.007-0.416,0.01-0.636,0.01c-3.547,0-7.074-0.901-10.199-2.604
		c-0.704-0.412-1.137-1.159-1.139-1.957V6.049c0.002-0.799,0.431-1.545,1.12-1.948c3.141-1.711,6.673-2.613,10.226-2.613
		c0.225,0,0.451,0.004,0.676,0.011c0.199-0.007,0.421-0.011,0.644-0.011c3.543,0,7.068,0.901,10.193,2.605
		C23.565,4.505,23.998,5.253,24,6.051v11.896c-0.001,0.801-0.431,1.548-1.123,1.951C19.738,21.608,16.202,22.509,12.644,22.509z
		 M12,21c0.208,0.006,0.416,0.01,0.623,0.01c3.322,0,6.613-0.836,9.518-2.419c0.214-0.125,0.359-0.38,0.359-0.645V6.052
		c-0.001-0.267-0.145-0.517-0.376-0.652c-2.89-1.575-6.174-2.41-9.487-2.41c-0.204,0-0.409,0.003-0.613,0.01
		c-0.233-0.007-0.442-0.01-0.651-0.01c-3.319,0-6.609,0.836-9.513,2.419C1.647,5.532,1.503,5.787,1.502,6.051v11.895
		c0.001,0.267,0.145,0.517,0.377,0.653c2.89,1.575,6.178,2.41,9.499,2.41c0.199,0,0.4-0.003,0.599-0.009c0.004,0,0.007,0,0.011,0
		C11.992,21,11.996,21,12,21z"/>
</g>
</svg>
