<?xml version="1.0" encoding="utf-8"?>
<!-- Generator: Adobe Illustrator 22.1.0, SVG Export Plug-In . SVG Version: 6.00 Build 0)  -->
<svg version="1.1" id="Layer_1" xmlns="http://www.w3.org/2000/svg" xmlns:xlink="http://www.w3.org/1999/xlink" x="0px" y="0px"
	 viewBox="0 0 24 24" style="enable-background:new 0 0 24 24;" xml:space="preserve">
<title>composition-layout-2</title>
<g>
	<path d="M1.75,24C0.785,24,0,23.215,0,22.25V1.75C0,0.785,0.785,0,1.75,0h20.5C23.215,0,24,0.785,24,1.75v20.5
		c0,0.965-0.785,1.75-1.75,1.75H1.75z M22.25,22.5c0.138,0,0.25-0.112,0.25-0.25V16.5h-9.75v6H22.25z M1.5,22.25
		c0,0.138,0.112,0.25,0.25,0.25h9.5v-6H1.5V22.25z M22.5,15V9h-21v6H22.5z M22.5,7.5V1.75c0-0.138-0.112-0.25-0.25-0.25h-9.5v6H22.5
		z M11.25,7.5v-6h-9.5C1.612,1.5,1.5,1.612,1.5,1.75V7.5H11.25z"/>
</g>
</svg>
