<?xml version="1.0" encoding="utf-8"?>
<!-- Generator: Adobe Illustrator 22.1.0, SVG Export Plug-In . SVG Version: 6.00 Build 0)  -->
<svg version="1.1" id="Layer_1" xmlns="http://www.w3.org/2000/svg" xmlns:xlink="http://www.w3.org/1999/xlink" x="0px" y="0px"
	 viewBox="0 0 24 24" style="enable-background:new 0 0 24 24;" xml:space="preserve">
<title>composition-window-man-1</title>
<g>
	<path d="M6,24c-2.068,0-3.75-1.682-3.75-3.75V3.75C2.25,1.682,3.932,0,6,0h12c2.068,0,3.75,1.682,3.75,3.75v16.5
		c0,2.068-1.682,3.75-3.75,3.75H6z M6,1.5c-1.241,0-2.25,1.009-2.25,2.25v16.5c0,1.241,1.009,2.25,2.25,2.25h12
		c1.241,0,2.25-1.009,2.25-2.25V3.75c0-1.241-1.009-2.25-2.25-2.25H6z"/>
	<path d="M10.5,21c-0.414,0-0.75-0.336-0.75-0.75v-3H9c-0.414,0-0.75-0.336-0.75-0.75v-3c0-2.068,1.682-3.75,3.75-3.75
		c2.068,0,3.75,1.682,3.75,3.75v3c0,0.414-0.336,0.75-0.75,0.75h-0.75v3c0,0.414-0.336,0.75-0.75,0.75H10.5z M12.75,19.5v-3
		c0-0.414,0.336-0.75,0.75-0.75h0.75V13.5c0-1.241-1.009-2.25-2.25-2.25c-1.241,0-2.25,1.009-2.25,2.25v2.25h0.75
		c0.414,0,0.75,0.336,0.75,0.75v3H12.75z"/>
	<path d="M12,9c-1.654,0-3-1.346-3-3s1.346-3,3-3c1.654,0,3,1.346,3,3S13.654,9,12,9z M12,4.5c-0.827,0-1.5,0.673-1.5,1.5
		s0.673,1.5,1.5,1.5s1.5-0.673,1.5-1.5S12.827,4.5,12,4.5z"/>
</g>
</svg>
