<svg xmlns="http://www.w3.org/2000/svg" viewBox="0 0 24 24"><defs><style>.a{fill:none;stroke:currentColor;stroke-linecap:round;stroke-linejoin:round;}</style></defs><title>composition-frame-man</title><line class="a" x1="23" y1="23" x2="1" y2="23"/><line class="a" x1="23" y1="1" x2="1" y2="1"/><rect class="a" x="1" y="4" width="22" height="16" rx="1" ry="1"/><path class="a" d="M19.457,20a1.991,1.991,0,0,0-1.066-1.118L14,17V15s.866-.35.866-2.5c.684,0,.944-2-.007-2a2.63,2.63,0,0,0,.44-2c-.491-2-5.331-2-5.822,0-2.066-.43-.422,1.712-.422,2-.981,0-.981,2,0,2,0,2.15.945,2.5.945,2.5v2L5.609,18.882A1.991,1.991,0,0,0,4.543,20Z"/></svg>