<svg xmlns="http://www.w3.org/2000/svg" viewBox="0 0 24 24"><defs><style>.a{fill:none;stroke:currentColor;stroke-linecap:round;stroke-linejoin:round;}</style></defs><title>sim-card-2</title><path class="a" d="M20.5,22.5a1,1,0,0,1-1,1H4.5a1,1,0,0,1-1-1V1.5a1,1,0,0,1,1-1H15.027A1,1,0,0,1,15.8.865l4.472,5.442a.992.992,0,0,1,.228.634Z"/><rect class="a" x="6.5" y="11.5" width="11" height="9" rx="2" ry="2"/><line class="a" x1="9.5" y1="20.5" x2="9.5" y2="11.5"/><line class="a" x1="14.5" y1="20.5" x2="14.5" y2="11.5"/><line class="a" x1="14.5" y1="14.5" x2="17.5" y2="14.5"/><line class="a" x1="6.5" y1="14.5" x2="9.5" y2="14.5"/><line class="a" x1="14.5" y1="17.5" x2="17.5" y2="17.5"/><line class="a" x1="6.5" y1="17.5" x2="9.5" y2="17.5"/><path class="a" d="M6.5.5v4"/><path class="a" d="M9.5.5v4"/><path class="a" d="M12.5.5v4"/></svg>