<svg xmlns="http://www.w3.org/2000/svg" viewBox="0 0 24 24"><defs><style>.a{fill:none;stroke:currentColor;stroke-linecap:round;stroke-linejoin:round;}</style></defs><title>phone-action-location</title><path class="a" d="M12,21.25h0a.25.25,0,0,1,.25.25h0a.25.25,0,0,1-.25.25h0a.25.25,0,0,1-.25-.25h0a.25.25,0,0,1,.25-.25"/><rect class="a" x="5.5" y="0.5" width="13" height="23" rx="2" ry="2"/><line class="a" x1="18.5" y1="19.5" x2="5.5" y2="19.5"/><line class="a" x1="18.5" y1="4.5" x2="5.5" y2="4.5"/><line class="a" x1="10.5" y1="2.5" x2="13.5" y2="2.5"/><polygon class="a" points="8.8 16.5 12 8.5 15.2 16.5 12 13.7 8.8 16.5"/></svg>