<svg xmlns="http://www.w3.org/2000/svg" viewBox="0 0 24 24"><defs><style>.a{fill:none;stroke:currentColor;stroke-linecap:round;stroke-linejoin:round;}</style></defs><title>phone-action-credit-card-1</title><line class="a" x1="15.5" y1="19.5" x2="2.5" y2="19.5"/><path class="a" d="M9,21.25a.25.25,0,0,1,.25.25h0a.25.25,0,0,1-.25.25H9a.25.25,0,0,1-.25-.25h0A.25.25,0,0,1,9,21.25"/><line class="a" x1="9" y1="21.25" x2="9" y2="21.25"/><path class="a" d="M15.5,14.5v7a2,2,0,0,1-2,2h-9a2,2,0,0,1-2-2V2.5a2,2,0,0,1,2-2H10"/><line class="a" x1="9.5" y1="5.5" x2="21.5" y2="5.5"/><line class="a" x1="15.5" y1="8.5" x2="18.5" y2="8.5"/><rect class="a" x="9.5" y="2.5" width="12" height="9" rx="1" ry="1"/></svg>