<svg xmlns="http://www.w3.org/2000/svg" viewBox="0 0 24 24"><defs><style>.a{fill:none;stroke:currentColor;stroke-linecap:round;stroke-linejoin:round;}</style></defs><title>phone-action-download-1</title><circle class="a" cx="15" cy="6.5" r="6"/><line class="a" x1="15" y1="3.5" x2="15" y2="9.5"/><line class="a" x1="15" y1="9.5" x2="12.75" y2="7.25"/><line class="a" x1="15" y1="9.5" x2="17.25" y2="7.25"/><line class="a" x1="15" y1="19.5" x2="2" y2="19.5"/><path class="a" d="M8.5,21.25h0a.25.25,0,0,1,.25.25h0a.25.25,0,0,1-.25.25h0a.25.25,0,0,1-.25-.25h0a.25.25,0,0,1,.25-.25"/><path class="a" d="M15,15v6.5a2,2,0,0,1-2,2H4a2,2,0,0,1-2-2V2.5a2,2,0,0,1,2-2H9"/></svg>