<svg xmlns="http://www.w3.org/2000/svg" viewBox="0 0 24 24"><defs><style>.a{fill:none;stroke:currentColor;stroke-linecap:round;stroke-linejoin:round;}</style></defs><title>phone-action-camera</title><path class="a" d="M12,21.25a.25.25,0,0,1,.25.25h0a.25.25,0,0,1-.25.25h0a.25.25,0,0,1-.25-.25h0a.25.25,0,0,1,.25-.25"/><line class="a" x1="12" y1="21.25" x2="12" y2="21.25"/><rect class="a" x="5.5" y="0.5" width="13" height="23" rx="2" ry="2"/><line class="a" x1="18.5" y1="19.5" x2="5.5" y2="19.5"/><line class="a" x1="18.5" y1="4.5" x2="5.5" y2="4.5"/><line class="a" x1="10.5" y1="2.5" x2="13.5" y2="2.5"/><path class="a" d="M16.5,10.5l-2.5.667V10.5a1,1,0,0,0-1-1H8.5a1,1,0,0,0-1,1v4a1,1,0,0,0,1,1H13a1,1,0,0,0,1-1v-.667l2.5.667Z"/></svg>