<svg xmlns="http://www.w3.org/2000/svg" viewBox="0 0 24 24"><defs><style>.a{fill:none;stroke:currentColor;stroke-linecap:round;stroke-linejoin:round;}</style></defs><title>phone-action-heart</title><path class="a" d="M12,21.25h0a.25.25,0,0,1,.25.25h0a.25.25,0,0,1-.25.25h0a.25.25,0,0,1-.25-.25h0a.25.25,0,0,1,.25-.25"/><rect class="a" x="5.5" y="0.5" width="13" height="23" rx="2" ry="2"/><line class="a" x1="18.5" y1="19.5" x2="5.5" y2="19.5"/><line class="a" x1="18.5" y1="4.5" x2="5.5" y2="4.5"/><line class="a" x1="10.5" y1="2.5" x2="13.5" y2="2.5"/><path class="a" d="M12,15.5,8.591,11.944a2.018,2.018,0,0,1-.378-2.329h0a2.017,2.017,0,0,1,3.23-.524L12,9.648l.557-.557a2.017,2.017,0,0,1,3.23.524h0a2.018,2.018,0,0,1-.378,2.329Z"/></svg>