<svg xmlns="http://www.w3.org/2000/svg" viewBox="0 0 24 24"><defs><style>.a{fill:none;stroke:currentColor;stroke-linecap:round;stroke-linejoin:round;}</style></defs><title>phone-action-search-2</title><line class="a" x1="15.25" y1="19.5" x2="2.25" y2="19.5"/><path class="a" d="M8.75,21.25A.25.25,0,0,1,9,21.5H9a.25.25,0,0,1-.25.25h0a.25.25,0,0,1-.25-.25h0a.25.25,0,0,1,.25-.25"/><line class="a" x1="8.75" y1="21.25" x2="8.75" y2="21.25"/><path class="a" d="M15.25,13.5v8a2,2,0,0,1-2,2h-9a2,2,0,0,1-2-2V2.5a2,2,0,0,1,2-2h5"/><line class="a" x1="21.25" y1="12" x2="17.672" y2="8.422"/><circle class="a" cx="14.75" cy="5" r="4.5"/></svg>