<svg xmlns="http://www.w3.org/2000/svg" viewBox="0 0 24 24"><defs><style>.a{fill:none;stroke:currentColor;stroke-linecap:round;stroke-linejoin:round;}</style></defs><title>phone-action-add-user</title><path class="a" d="M12,21.25a.25.25,0,0,1,.25.25h0a.25.25,0,0,1-.25.25h0a.25.25,0,0,1-.25-.25h0a.25.25,0,0,1,.25-.25"/><line class="a" x1="12" y1="21.25" x2="12" y2="21.25"/><rect class="a" x="5.5" y="0.5" width="13" height="23" rx="2" ry="2"/><line class="a" x1="18.5" y1="19.5" x2="5.5" y2="19.5"/><line class="a" x1="18.5" y1="4.5" x2="5.5" y2="4.5"/><line class="a" x1="10.5" y1="2.5" x2="13.5" y2="2.5"/><line class="a" x1="14.5" y1="11.5" x2="14.5" y2="15.5"/><line class="a" x1="12.5" y1="13.5" x2="16.5" y2="13.5"/><circle class="a" cx="11" cy="8.75" r="1.75"/><path class="a" d="M12.491,11.332A3.5,3.5,0,0,0,7.5,14.5v1h5"/></svg>