<svg xmlns="http://www.w3.org/2000/svg" viewBox="0 0 24 24"><defs><style>.a{fill:none;stroke:currentColor;stroke-linecap:round;stroke-linejoin:round;}</style></defs><title>phone-action-home</title><path class="a" d="M9,10.632V14.5a1,1,0,0,0,1,1h4a1,1,0,0,0,1-1V10.632"/><path class="a" d="M8,11.507l3.012-2.636a1.5,1.5,0,0,1,1.976,0L16,11.507"/><path class="a" d="M13,15.5H11v-2a1,1,0,0,1,2,0Z"/><path class="a" d="M12,21.25a.25.25,0,0,1,.25.25h0a.25.25,0,0,1-.25.25h0a.25.25,0,0,1-.25-.25h0a.25.25,0,0,1,.25-.25"/><line class="a" x1="12" y1="21.25" x2="12" y2="21.25"/><rect class="a" x="5.5" y="0.5" width="13" height="23" rx="2" ry="2"/><line class="a" x1="18.5" y1="19.5" x2="5.5" y2="19.5"/><line class="a" x1="18.5" y1="4.5" x2="5.5" y2="4.5"/><line class="a" x1="10.5" y1="2.5" x2="13.5" y2="2.5"/></svg>