<svg xmlns="http://www.w3.org/2000/svg" viewBox="0 0 24 24"><defs><style>.a{fill:none;stroke:currentColor;stroke-linecap:round;stroke-linejoin:round;}</style></defs><title>phone-action-play-1</title><line class="a" x1="15.25" y1="19.5" x2="2.25" y2="19.5"/><path class="a" d="M8.75,21.25A.25.25,0,0,1,9,21.5H9a.25.25,0,0,1-.25.25h0a.25.25,0,0,1-.25-.25h0a.25.25,0,0,1,.25-.25"/><line class="a" x1="8.75" y1="21.25" x2="8.75" y2="21.25"/><path class="a" d="M15.25,15v6.5a2,2,0,0,1-2,2h-9a2,2,0,0,1-2-2V2.5a2,2,0,0,1,2-2h2.5"/><rect class="a" x="9.25" y="0.5" width="12" height="12" rx="1.5" ry="1.5"/><path class="a" d="M13.25,6.5V4.68a.43.43,0,0,1,.651-.369l3.034,1.82a.43.43,0,0,1,0,.738L13.9,8.689a.43.43,0,0,1-.651-.369Z"/></svg>