<svg xmlns="http://www.w3.org/2000/svg" viewBox="0 0 24 24"><defs><style>.a{fill:none;stroke:currentColor;stroke-linecap:round;stroke-linejoin:round;stroke-width:1.5px;}</style></defs><title>image-file-gif</title><path class="a" d="M8.25,23.25h-6a1.5,1.5,0,0,1-1.5-1.5V2.25A1.5,1.5,0,0,1,2.25.75H12.879a1.5,1.5,0,0,1,1.06.439l5.872,5.872a1.5,1.5,0,0,1,.439,1.06V12.75"/><path class="a" d="M20.25,8.25h-6a1.5,1.5,0,0,1-1.5-1.5v-6"/><path class="a" d="M20.25,23.25v-6a1.5,1.5,0,0,1,1.5-1.5h1.5"/><line class="a" x1="20.25" y1="20.25" x2="22.5" y2="20.25"/><line class="a" x1="17.25" y1="23.25" x2="17.25" y2="15.75"/><path class="a" d="M13.5,20.25h.75v1.5a1.5,1.5,0,0,1-3,0v-4.5a1.5,1.5,0,0,1,1.5-1.5h1.5"/></svg>