<svg xmlns="http://www.w3.org/2000/svg" viewBox="0 0 24 24"><defs><style>.a{fill:none;stroke:currentColor;stroke-linecap:round;stroke-linejoin:round;stroke-width:1.5px;}</style></defs><title>image-file-sync</title><polyline class="a" points="15 18.75 11.25 18.75 11.25 22.5"/><path class="a" d="M22.667,19.483a5.572,5.572,0,0,1-10.74-.733"/><polyline class="a" points="19.5 15.75 23.25 15.75 23.25 12"/><path class="a" d="M11.833,15.017a5.572,5.572,0,0,1,10.74.733"/><path class="a" d="M8.25,20.25h-6a1.5,1.5,0,0,1-1.5-1.5V2.25A1.5,1.5,0,0,1,2.25.75H12.879a1.5,1.5,0,0,1,1.06.439l2.872,2.872a1.5,1.5,0,0,1,.439,1.06V8.25"/><path class="a" d="M5.25,5.625A.375.375,0,1,1,4.875,6a.375.375,0,0,1,.375-.375"/><path class="a" d="M12.257,9.861,11.25,8.25a.749.749,0,0,0-1.238-.014l-2,2.851L6.78,10.1a.75.75,0,0,0-1.093.169L3.75,14.25H9"/></svg>