<svg xmlns="http://www.w3.org/2000/svg" viewBox="0 0 24 24"><defs><style>.a{fill:none;stroke:currentColor;stroke-linecap:round;stroke-linejoin:round;stroke-width:1.5px;}</style></defs><title>image-file-bmp</title><path class="a" d="M3.375,23.25h-.75a1.5,1.5,0,0,1-1.5-1.5V2.25a1.5,1.5,0,0,1,1.5-1.5H13.254a1.5,1.5,0,0,1,1.06.439l5.872,5.872a1.5,1.5,0,0,1,.439,1.06V12.75"/><path class="a" d="M20.625,8.25h-6a1.5,1.5,0,0,1-1.5-1.5v-6"/><line class="a" x1="6.375" y1="23.25" x2="6.375" y2="15.75"/><path class="a" d="M6.375,15.75h1.5a1.5,1.5,0,0,1,1.5,1.5V18a1.5,1.5,0,0,1-1.5,1.5h-1.5"/><path class="a" d="M6.375,19.5h1.5a1.5,1.5,0,0,1,1.5,1.5v.75a1.5,1.5,0,0,1-1.5,1.5h-1.5"/><polyline class="a" points="16.875 23.25 16.875 15.75 14.625 19.5 12.375 15.75 12.375 23.25"/><line class="a" x1="19.875" y1="23.25" x2="19.875" y2="15.75"/><path class="a" d="M19.875,15.75h.75a2.25,2.25,0,0,1,0,4.5h-.75"/></svg>