<svg xmlns="http://www.w3.org/2000/svg" viewBox="0 0 24 24"><defs><style>.a{fill:none;stroke:currentColor;stroke-linecap:round;stroke-linejoin:round;stroke-width:1.5px;}</style></defs><title>image-document-eps</title><line class="a" x1="1.5" y1="3.75" x2="22.5" y2="3.75"/><line class="a" x1="1.5" y1="20.25" x2="22.5" y2="20.25"/><path class="a" d="M7.5,15.75H6a1.5,1.5,0,0,1-1.5-1.5V9.75A1.5,1.5,0,0,1,6,8.25H7.5"/><line class="a" x1="4.5" y1="12.75" x2="7.5" y2="12.75"/><line class="a" x1="10.5" y1="15.75" x2="10.5" y2="8.25"/><path class="a" d="M10.5,8.25h.75a2.25,2.25,0,0,1,0,4.5H10.5"/><path class="a" d="M19.5,8.25H18a1.5,1.5,0,0,0-1.5,1.5c0,2.25,3,2.25,3,4.5a1.5,1.5,0,0,1-1.5,1.5H16.5"/></svg>