<svg xmlns="http://www.w3.org/2000/svg" viewBox="0 0 24 24"><defs><style>.a{fill:none;stroke:currentColor;stroke-linecap:round;stroke-linejoin:round;stroke-width:1.5px;}</style></defs><title>image-file-eps</title><path class="a" d="M4.875,23.25H2.625a1.5,1.5,0,0,1-1.5-1.5V2.25a1.5,1.5,0,0,1,1.5-1.5H13.254a1.5,1.5,0,0,1,1.06.439l5.872,5.872a1.5,1.5,0,0,1,.439,1.06V12.75"/><path class="a" d="M20.625,8.25h-6a1.5,1.5,0,0,1-1.5-1.5v-6"/><path class="a" d="M10.875,23.25h-1.5a1.5,1.5,0,0,1-1.5-1.5v-4.5a1.5,1.5,0,0,1,1.5-1.5h1.5"/><line class="a" x1="7.875" y1="20.25" x2="10.875" y2="20.25"/><line class="a" x1="13.875" y1="23.25" x2="13.875" y2="15.75"/><path class="a" d="M13.875,15.75h.75a2.25,2.25,0,0,1,0,4.5h-.75"/><path class="a" d="M22.875,15.75h-1.5a1.5,1.5,0,0,0-1.5,1.5c0,2.25,3,2.25,3,4.5a1.5,1.5,0,0,1-1.5,1.5h-1.5"/></svg>