<?xml version="1.0" encoding="utf-8"?>
<!-- Generator: Adobe Illustrator 22.1.0, SVG Export Plug-In . SVG Version: 6.00 Build 0)  -->
<svg version="1.1" id="Layer_1" xmlns="http://www.w3.org/2000/svg" xmlns:xlink="http://www.w3.org/1999/xlink" x="0px" y="0px"
	 viewBox="0 0 24 24" style="enable-background:new 0 0 24 24;" xml:space="preserve">
<g>
	<title>zip-file-download</title>
	<path d="M1.5,24C0.673,24,0,23.327,0,22.5v-21C0,0.673,0.673,0,1.5,0h13.293c0.401,0,0.777,0.156,1.061,0.439l3.707,3.707
		C19.844,4.43,20,4.807,20,5.207l-0.011,3.295C19.988,8.776,19.764,9,19.489,9c-0.135,0-0.26-0.053-0.355-0.148
		c-0.094-0.095-0.146-0.221-0.145-0.354L19,5.205c0-0.132-0.052-0.257-0.146-0.352l-3.707-3.707C15.053,1.053,14.925,1,14.793,1
		H9.072l0.413,3.049c0.07,0.562-0.104,1.128-0.477,1.554c-0.373,0.425-0.91,0.669-1.475,0.671H7.47
		c-0.566-0.001-1.104-0.246-1.476-0.67C5.621,5.177,5.447,4.611,5.517,4.049L5.818,1H1.5C1.224,1,1,1.224,1,1.5v21
		C1,22.776,1.224,23,1.5,23h7.989c0.276,0,0.5,0.224,0.5,0.5S9.765,24,9.489,24H1.5z M6.51,4.16
		C6.475,4.449,6.561,4.733,6.746,4.945c0.183,0.209,0.447,0.329,0.725,0.329h0.061c0.277-0.001,0.541-0.121,0.724-0.33
		c0.185-0.211,0.271-0.492,0.237-0.771L8.063,1h-1.24L6.51,4.16z"/>
	<path d="M7.503,8.75c-0.198,0-0.385-0.077-0.526-0.217C6.834,8.392,6.756,8.204,6.755,8.004c0-0.417,0.336-0.754,0.75-0.754
		S8.255,7.586,8.255,8s-0.336,0.75-0.75,0.75H7.503z"/>
	<path d="M7.503,11.25c-0.198,0-0.385-0.077-0.526-0.217c-0.142-0.141-0.221-0.329-0.221-0.529c0-0.417,0.336-0.754,0.75-0.754
		s0.75,0.336,0.75,0.75s-0.336,0.75-0.75,0.75H7.503z"/>
	<path d="M7.503,13.75c-0.411,0-0.747-0.335-0.748-0.746c0-0.417,0.336-0.754,0.75-0.754s0.75,0.336,0.75,0.75
		s-0.336,0.75-0.75,0.75H7.503z"/>
	<circle cx="7.495" cy="15.5" r="0.75"/>
	<circle cx="7.495" cy="18.021" r="0.75"/>
	<circle cx="7.495" cy="20.562" r="0.75"/>
	<path d="M17.5,24c-3.584,0-6.5-2.916-6.5-6.5s2.916-6.5,6.5-6.5s6.5,2.916,6.5,6.5S21.084,24,17.5,24z M17.5,12
		c-3.033,0-5.5,2.467-5.5,5.5s2.467,5.5,5.5,5.5s5.5-2.467,5.5-5.5S20.533,12,17.5,12z"/>
	<path d="M17.5,21c-0.066,0-0.13-0.013-0.191-0.039c-0.062-0.025-0.117-0.062-0.163-0.109l-2.249-2.249
		c-0.094-0.094-0.146-0.22-0.146-0.354s0.052-0.259,0.146-0.354s0.22-0.146,0.354-0.146s0.259,0.052,0.354,0.146L17,19.293V14.5
		c0-0.276,0.224-0.5,0.5-0.5s0.5,0.224,0.5,0.5v4.793l1.396-1.396c0.094-0.094,0.22-0.146,0.354-0.146s0.259,0.052,0.354,0.146
		s0.146,0.22,0.146,0.354s-0.052,0.259-0.146,0.354l-2.25,2.25c-0.045,0.046-0.101,0.083-0.163,0.109
		C17.63,20.987,17.566,21,17.5,21z"/>
</g>
</svg>
