<?xml version="1.0" encoding="utf-8"?>
<!-- Generator: Adobe Illustrator 22.1.0, SVG Export Plug-In . SVG Version: 6.00 Build 0)  -->
<svg version="1.1" id="Layer_1" xmlns="http://www.w3.org/2000/svg" xmlns:xlink="http://www.w3.org/1999/xlink" x="0px" y="0px"
	 viewBox="0 0 24 24" style="enable-background:new 0 0 24 24;" xml:space="preserve">
<g>
	<title>zip-file-upload</title>
	<path d="M1.5,24C0.673,24,0,23.327,0,22.5v-21C0,0.673,0.673,0,1.5,0h13.293c0.401,0,0.777,0.156,1.061,0.439l3.707,3.707
		C19.844,4.43,20,4.807,20,5.207V9.5c0,0.276-0.224,0.5-0.5,0.5S19,9.776,19,9.5V5.207c0-0.133-0.052-0.259-0.146-0.354
		l-3.707-3.707C15.053,1.053,14.925,1,14.793,1H9.072l0.413,3.049c0.07,0.562-0.104,1.128-0.477,1.554
		c-0.373,0.425-0.91,0.669-1.475,0.671H7.47c-0.566-0.001-1.104-0.246-1.476-0.67C5.621,5.177,5.447,4.611,5.517,4.049L5.818,1H1.5
		C1.224,1,1,1.224,1,1.5v21C1,22.776,1.224,23,1.5,23h10c0.276,0,0.5,0.224,0.5,0.5S11.776,24,11.5,24H1.5z M6.51,4.16
		C6.475,4.449,6.561,4.733,6.746,4.945c0.183,0.209,0.447,0.329,0.725,0.329h0.061c0.277-0.001,0.541-0.121,0.724-0.33
		c0.185-0.211,0.271-0.492,0.237-0.771L8.063,1h-1.24L6.51,4.16z"/>
	<path d="M7.503,8.75c-0.198,0-0.385-0.077-0.526-0.217C6.834,8.392,6.756,8.204,6.755,8.004c0-0.417,0.336-0.754,0.75-0.754
		S8.255,7.586,8.255,8s-0.336,0.75-0.75,0.75H7.503z"/>
	<path d="M7.503,11.25c-0.198,0-0.385-0.077-0.526-0.217c-0.142-0.141-0.221-0.329-0.221-0.529c0-0.417,0.336-0.754,0.75-0.754
		s0.75,0.336,0.75,0.75s-0.336,0.75-0.75,0.75H7.503z"/>
	<path d="M7.503,13.75c-0.411,0-0.747-0.335-0.748-0.746c0-0.417,0.336-0.754,0.75-0.754s0.75,0.336,0.75,0.75
		s-0.336,0.75-0.75,0.75H7.503z"/>
	<circle cx="7.495" cy="15.5" r="0.75"/>
	<circle cx="7.495" cy="18.021" r="0.75"/>
	<circle cx="7.495" cy="20.562" r="0.75"/>
	<path d="M17.5,24c-3.584,0-6.5-2.916-6.5-6.5s2.916-6.5,6.5-6.5s6.5,2.916,6.5,6.5S21.084,24,17.5,24z M17.5,12
		c-3.033,0-5.5,2.467-5.5,5.5s2.467,5.5,5.5,5.5s5.5-2.467,5.5-5.5S20.533,12,17.5,12z"/>
	<path d="M17.5,21c-0.276,0-0.5-0.224-0.5-0.5v-4.793l-1.396,1.396c-0.094,0.094-0.22,0.146-0.354,0.146s-0.259-0.052-0.354-0.146
		s-0.146-0.22-0.146-0.354s0.052-0.259,0.146-0.354l2.25-2.25c0.045-0.046,0.101-0.083,0.163-0.109C17.369,14.013,17.434,14,17.5,14
		s0.131,0.013,0.191,0.038c0.062,0.025,0.117,0.062,0.163,0.109l2.249,2.249c0.094,0.094,0.146,0.22,0.146,0.354
		s-0.052,0.259-0.146,0.354s-0.22,0.146-0.354,0.146s-0.259-0.052-0.354-0.146L18,15.707V20.5C18,20.776,17.776,21,17.5,21z"/>
</g>
</svg>
