<?xml version="1.0" encoding="utf-8"?>
<!-- Generator: Adobe Illustrator 22.1.0, SVG Export Plug-In . SVG Version: 6.00 Build 0)  -->
<svg version="1.1" id="Layer_1" xmlns="http://www.w3.org/2000/svg" xmlns:xlink="http://www.w3.org/1999/xlink" x="0px" y="0px"
	 viewBox="0 0 24 24" style="enable-background:new 0 0 24 24;" xml:space="preserve">
<g>
	<title>zip-file-2</title>
	<path d="M1.5,24C0.673,24,0,23.327,0,22.5v-21C0,0.673,0.673,0,1.5,0h12.025C17.095,0,20,2.905,20,6.475V12.5
		c0,0.276-0.224,0.5-0.5,0.5S19,12.776,19,12.5V6.475C19,6.321,18.993,6.162,18.978,6H15.5C14.673,6,14,5.327,14,4.5V1.022
		C13.838,1.007,13.681,1,13.525,1H1.5C1.224,1,1,1.224,1,1.5v21C1,22.776,1.224,23,1.5,23h3C4.776,23,5,23.224,5,23.5
		S4.776,24,4.5,24H1.5z M15,4.5C15,4.776,15.224,5,15.5,5h3.297C18.282,3.164,16.836,1.717,15,1.203V4.5z"/>
	<path d="M7.8,24c-0.551,0-1-0.448-1-1c0-0.188,0.053-0.371,0.152-0.53L10.996,16L7.4,16c-0.276,0-0.5-0.224-0.5-0.5
		S7.124,15,7.4,15H11c0.188,0.002,0.369,0.054,0.526,0.152c0.468,0.293,0.611,0.911,0.319,1.378L7.8,23l3.6,0
		c0.276,0,0.5,0.224,0.5,0.5S11.676,24,11.4,24H7.8z"/>
	<path d="M13.5,24c-0.276,0-0.5-0.224-0.5-0.5s0.224-0.5,0.5-0.5H15v-7h-1.5c-0.276,0-0.5-0.224-0.5-0.5s0.224-0.5,0.5-0.5h4
		c0.276,0,0.5,0.224,0.5,0.5S17.776,16,17.5,16H16v7h1.5c0.276,0,0.5,0.224,0.5,0.5S17.776,24,17.5,24H13.5z"/>
	<path d="M19.5,24c-0.276,0-0.5-0.224-0.5-0.5v-8c0-0.276,0.224-0.5,0.5-0.5h2c1.378,0,2.5,1.122,2.5,2.5S22.878,20,21.5,20H20v3.5
		C20,23.776,19.776,24,19.5,24z M21.5,19c0.827,0,1.5-0.673,1.5-1.5S22.327,16,21.5,16H20v3H21.5z"/>
</g>
</svg>
