<svg xmlns="http://www.w3.org/2000/svg" viewBox="0 0 24 24"><defs><style>.a{fill:none;stroke:currentColor;stroke-linecap:round;stroke-linejoin:round;stroke-width:1.5px;}</style></defs><title>cog-double</title><path class="a" d="M5.975,12.151a1.046,1.046,0,0,0,1.551,0l.5-.556a1.045,1.045,0,0,1,1.819.754l-.039.747a1.046,1.046,0,0,0,1.1,1.1l.747-.038a1.045,1.045,0,0,1,.754,1.819l-.556.5a1.046,1.046,0,0,0,0,1.551l.556.5a1.045,1.045,0,0,1-.754,1.819l-.747-.039a1.046,1.046,0,0,0-1.1,1.1l.039.747a1.045,1.045,0,0,1-1.819.754l-.5-.556a1.046,1.046,0,0,0-1.551,0l-.5.556a1.045,1.045,0,0,1-1.819-.754l.038-.747a1.046,1.046,0,0,0-1.1-1.1l-.747.039A1.045,1.045,0,0,1,1.1,18.528l.556-.5a1.046,1.046,0,0,0,0-1.551l-.556-.5a1.045,1.045,0,0,1,.754-1.819l.747.038a1.046,1.046,0,0,0,1.1-1.1l-.038-.747A1.045,1.045,0,0,1,5.474,11.6Z"/><circle class="a" cx="6.751" cy="17.251" r="1.5"/><path class="a" d="M16.475,1.651a1.046,1.046,0,0,0,1.551,0l.5-.556a1.045,1.045,0,0,1,1.819.754l-.039.747a1.046,1.046,0,0,0,1.1,1.1l.747-.038a1.045,1.045,0,0,1,.754,1.819l-.556.5a1.046,1.046,0,0,0,0,1.551l.556.5a1.045,1.045,0,0,1-.754,1.819l-.747-.039a1.046,1.046,0,0,0-1.1,1.1l.039.747a1.045,1.045,0,0,1-1.819.754l-.5-.556a1.046,1.046,0,0,0-1.551,0l-.5.556a1.045,1.045,0,0,1-1.819-.754l.038-.747a1.046,1.046,0,0,0-1.1-1.1l-.747.039A1.045,1.045,0,0,1,11.6,8.028l.556-.5a1.046,1.046,0,0,0,0-1.551l-.556-.5a1.045,1.045,0,0,1,.754-1.819l.747.038a1.046,1.046,0,0,0,1.1-1.1l-.038-.747A1.045,1.045,0,0,1,15.974,1.1Z"/><circle class="a" cx="17.251" cy="6.751" r="1.5"/></svg>