<?xml version="1.0" encoding="utf-8"?>
<!-- Generator: Adobe Illustrator 22.1.0, SVG Export Plug-In . SVG Version: 6.00 Build 0)  -->
<svg version="1.1" id="Layer_1" xmlns="http://www.w3.org/2000/svg" xmlns:xlink="http://www.w3.org/1999/xlink" x="0px" y="0px"
	 viewBox="0 0 24 24" style="enable-background:new 0 0 24 24;" xml:space="preserve">
<g>
	<title>mask-bubble</title>
	<path d="M2,23.5c-0.827,0-1.5-0.673-1.5-1.5V2c0-0.827,0.673-1.5,1.5-1.5h20c0.827,0,1.5,0.673,1.5,1.5v20
		c0,0.827-0.673,1.5-1.5,1.5H2z M2,1.5C1.724,1.5,1.5,1.724,1.5,2v20c0,0.276,0.224,0.5,0.5,0.5h20c0.276,0,0.5-0.224,0.5-0.5V2
		c0-0.276-0.224-0.5-0.5-0.5H2z"/>
	<path d="M12.004,20.5c-1.17,0-2.265-0.637-2.846-1.639c-0.275,0.073-0.558,0.11-0.845,0.11c-0.451,0-0.888-0.09-1.299-0.266
		c-1.495-0.644-2.288-2.31-1.875-3.863c-0.638-0.37-1.133-0.941-1.407-1.629c-0.601-1.512,0.016-3.251,1.407-4.056
		C4.95,8.446,5.003,7.692,5.296,7.013c0.347-0.806,0.987-1.428,1.802-1.753c0.391-0.156,0.8-0.234,1.216-0.234
		c0.285,0,0.569,0.038,0.845,0.112c0.37-0.638,0.941-1.133,1.628-1.406c0.388-0.154,0.795-0.233,1.21-0.233
		c1.17,0,2.265,0.637,2.846,1.64c0.275-0.073,0.559-0.11,0.845-0.11c0.451,0,0.888,0.09,1.299,0.267
		c1.494,0.643,2.288,2.309,1.875,3.861C19.877,9.741,20.5,10.812,20.5,12s-0.623,2.259-1.639,2.843
		c0.189,0.711,0.135,1.465-0.157,2.144c-0.52,1.206-1.705,1.985-3.021,1.986c0,0,0,0,0,0c-0.285,0-0.567-0.037-0.842-0.111
		c-0.369,0.638-0.941,1.133-1.628,1.406C12.825,20.422,12.418,20.5,12.004,20.5z M9.413,17.745c0.066,0,0.13,0.013,0.191,0.038
		c0.124,0.052,0.224,0.153,0.273,0.277c0.348,0.875,1.182,1.44,2.124,1.44c0.288,0,0.572-0.054,0.842-0.162
		c0.581-0.231,1.047-0.697,1.278-1.278c0.05-0.125,0.15-0.226,0.273-0.277c0.061-0.025,0.125-0.038,0.191-0.038
		c0.068,0,0.135,0.014,0.197,0.04c0.288,0.124,0.59,0.187,0.9,0.187c0.916,0,1.74-0.542,2.101-1.381
		c0.247-0.574,0.247-1.232,0-1.806c-0.053-0.124-0.054-0.266-0.002-0.389c0.051-0.123,0.152-0.223,0.277-0.273
		c0.875-0.348,1.44-1.181,1.44-2.122s-0.565-1.775-1.44-2.122c-0.125-0.05-0.226-0.149-0.277-0.273
		c-0.051-0.124-0.051-0.266,0.002-0.389c0.241-0.56,0.249-1.18,0.023-1.748s-0.658-1.013-1.218-1.254
		c-0.285-0.123-0.589-0.185-0.903-0.185s-0.618,0.062-0.903,0.185c-0.062,0.027-0.129,0.041-0.198,0.041
		c-0.066,0-0.13-0.013-0.191-0.038c-0.124-0.051-0.224-0.152-0.273-0.277C13.774,5.065,12.94,4.5,11.997,4.5
		c-0.288,0-0.571,0.054-0.84,0.161c-0.581,0.231-1.047,0.697-1.279,1.279C9.828,6.064,9.729,6.165,9.604,6.217
		C9.544,6.242,9.479,6.255,9.413,6.255c-0.068,0-0.135-0.014-0.198-0.041C8.926,6.09,8.623,6.027,8.313,6.027
		c-0.289,0-0.573,0.055-0.846,0.163C6.901,6.416,6.456,6.849,6.214,7.409c-0.247,0.574-0.247,1.232,0,1.806
		C6.267,9.339,6.268,9.48,6.217,9.604C6.165,9.729,6.064,9.828,5.94,9.878c-0.567,0.225-1.012,0.658-1.253,1.218
		s-0.25,1.181-0.025,1.748c0.231,0.581,0.697,1.047,1.278,1.278c0.125,0.05,0.226,0.15,0.277,0.273
		c0.052,0.124,0.051,0.266-0.003,0.389c-0.498,1.157,0.038,2.503,1.195,3.001c0.285,0.123,0.589,0.186,0.903,0.186
		c0.314,0,0.618-0.062,0.904-0.185C9.279,17.759,9.345,17.745,9.413,17.745z"/>
</g>
</svg>
