<?xml version="1.0" encoding="utf-8"?>
<!-- Generator: Adobe Illustrator 22.1.0, SVG Export Plug-In . SVG Version: 6.00 Build 0)  -->
<svg version="1.1" id="Layer_1" xmlns="http://www.w3.org/2000/svg" xmlns:xlink="http://www.w3.org/1999/xlink" x="0px" y="0px"
	 viewBox="0 0 24 24" style="enable-background:new 0 0 24 24;" xml:space="preserve">
<g>
	<title>mask-heart</title>
	<path d="M2,23.5c-0.827,0-1.5-0.673-1.5-1.5V2c0-0.827,0.673-1.5,1.5-1.5h20c0.827,0,1.5,0.673,1.5,1.5v20
		c0,0.827-0.673,1.5-1.5,1.5H2z M2,1.5C1.724,1.5,1.5,1.724,1.5,2v20c0,0.276,0.224,0.5,0.5,0.5h20c0.276,0,0.5-0.224,0.5-0.5V2
		c0-0.276-0.224-0.5-0.5-0.5H2z"/>
	<path d="M11.961,20.03c-0.139,0-0.273-0.059-0.368-0.161l-6.821-7.394c-1.36-1.436-1.698-3.604-0.839-5.391
		c0.49-1.076,1.375-1.9,2.49-2.317c0.505-0.189,1.031-0.285,1.563-0.285c0.637,0,1.258,0.136,1.845,0.403
		c0.52,0.237,0.984,0.567,1.378,0.98l0.752,0.781l0.754-0.783c0.847-0.887,1.992-1.377,3.223-1.377c1.152,0,2.244,0.437,3.075,1.23
		c0.412,0.393,0.742,0.856,0.979,1.376c0.858,1.782,0.518,3.95-0.848,5.392l-6.815,7.385C12.234,19.971,12.1,20.03,11.961,20.03z
		 M7.986,5.482c-0.413,0-0.821,0.074-1.212,0.221C5.909,6.027,5.222,6.667,4.839,7.507c-0.684,1.424-0.417,3.144,0.664,4.285
		l6.458,7l6.452-6.992c1.086-1.146,1.356-2.866,0.673-4.284c-0.187-0.411-0.444-0.771-0.764-1.077
		c-0.645-0.615-1.491-0.954-2.385-0.954c-0.956,0-1.844,0.38-2.501,1.069l-1.115,1.159c-0.092,0.095-0.223,0.15-0.36,0.15
		c-0.137,0-0.268-0.055-0.36-0.15l-1.114-1.157C10.18,6.235,9.82,5.979,9.417,5.795C8.961,5.588,8.479,5.482,7.986,5.482z"/>
</g>
</svg>
