<svg xmlns="http://www.w3.org/2000/svg" viewBox="0 0 24 24"><defs><style>.a{fill:none;stroke:currentColor;stroke-linecap:round;stroke-linejoin:round;stroke-width:1.5px;}</style></defs><title>search-bar</title><line class="a" x1="4.125" y1="8.625" x2="4.125" y2="8.625"/><path class="a" d="M4.125,8.625A.375.375,0,1,0,4.5,9a.374.374,0,0,0-.375-.375"/><line class="a" x1="7.875" y1="8.625" x2="7.875" y2="8.625"/><path class="a" d="M7.875,8.625A.375.375,0,1,0,8.25,9a.374.374,0,0,0-.375-.375"/><path class="a" d="M21.75,6.75V5.25a1.5,1.5,0,0,0-1.5-1.5h-18a1.5,1.5,0,0,0-1.5,1.5v6a1.5,1.5,0,0,0,1.5,1.5H7.5"/><circle class="a" cx="15.75" cy="12.75" r="5.25"/><line class="a" x1="23.25" y1="20.25" x2="19.462" y2="16.462"/></svg>