<?xml version="1.0" encoding="utf-8"?>
<!-- Generator: Adobe Illustrator 22.1.0, SVG Export Plug-In . SVG Version: 6.00 Build 0)  -->
<svg version="1.1" id="Layer_1" xmlns="http://www.w3.org/2000/svg" xmlns:xlink="http://www.w3.org/1999/xlink" x="0px" y="0px"
	 viewBox="0 0 24 24" style="enable-background:new 0 0 24 24;" xml:space="preserve">
<g>
	<title>settings-slider-desktop-horizontal</title>
	<path d="M8,8.501c-0.913,0-1.709-0.631-1.934-1.5H4.5c-0.276,0-0.5-0.224-0.5-0.5s0.224-0.5,0.5-0.5h1.566
		c0.225-0.869,1.021-1.5,1.934-1.5s1.709,0.631,1.934,1.5H19.5c0.276,0,0.5,0.224,0.5,0.5s-0.224,0.5-0.5,0.5H9.934
		C9.709,7.87,8.913,8.501,8,8.501z M8,5.501c-0.551,0-1,0.449-1,1s0.449,1,1,1s1-0.449,1-1S8.551,5.501,8,5.501z"/>
	<path d="M7.5,24.001c-0.276,0-0.5-0.224-0.5-0.5s0.224-0.5,0.5-0.5h1.368c0.588-0.901,0.96-1.93,1.086-3H1.5
		c-0.827,0-1.5-0.673-1.5-1.5v-17c0-0.827,0.673-1.5,1.5-1.5h21c0.827,0,1.5,0.673,1.5,1.5v17c0,0.827-0.673,1.5-1.5,1.5h-8.454
		c0.126,1.07,0.498,2.099,1.086,3H16.5c0.276,0,0.5,0.224,0.5,0.5s-0.224,0.5-0.5,0.5H7.5z M13.967,23.001
		c-0.502-0.924-0.819-1.949-0.927-3h-2.08c-0.108,1.051-0.425,2.076-0.927,3H13.967z M22.5,19.001c0.276,0,0.5-0.224,0.5-0.5v-1.5H1
		v1.5c0,0.276,0.224,0.5,0.5,0.5c0,0,12.002,0,12.008,0H22.5z M23,16.001v-14.5c0-0.276-0.224-0.5-0.5-0.5h-21
		c-0.276,0-0.5,0.224-0.5,0.5v14.5H23z"/>
	<path d="M16,13.501c-0.913,0-1.709-0.631-1.934-1.5H4.5c-0.276,0-0.5-0.224-0.5-0.5s0.224-0.5,0.5-0.5h9.566
		c0.225-0.869,1.021-1.5,1.934-1.5s1.709,0.631,1.934,1.5H19.5c0.276,0,0.5,0.224,0.5,0.5s-0.224,0.5-0.5,0.5h-1.566
		C17.709,12.87,16.913,13.501,16,13.501z M16,10.501c-0.552,0-1,0.449-1,1s0.448,1,1,1s1-0.449,1-1S16.552,10.501,16,10.501z"/>
</g>
</svg>
