<?xml version="1.0" encoding="utf-8"?>
<!-- Generator: Adobe Illustrator 22.1.0, SVG Export Plug-In . SVG Version: 6.00 Build 0)  -->
<svg version="1.1" id="Layer_1" xmlns="http://www.w3.org/2000/svg" xmlns:xlink="http://www.w3.org/1999/xlink" x="0px" y="0px"
	 viewBox="0 0 24 24" style="enable-background:new 0 0 24 24;" xml:space="preserve">
<g>
	<title>settings-sound</title>
	<path d="M8.5,24.001c-1.379,0-2.5-1.122-2.5-2.5v-19c0-1.379,1.121-2.5,2.5-2.5h7c1.378,0,2.5,1.121,2.5,2.5v19
		c0,1.378-1.122,2.5-2.5,2.5H8.5z M7,21.501c0,0.827,0.673,1.5,1.5,1.5h7c0.827,0,1.5-0.673,1.5-1.5v-13.5H7V21.501z M17,7.001v-4.5
		c0-0.827-0.673-1.5-1.5-1.5h-7c-0.827,0-1.5,0.673-1.5,1.5v4.5H17z"/>
	<path d="M14,21.242c-0.138,0-0.273-0.028-0.4-0.084L10.903,20l-0.903,0c-0.551,0-1-0.448-1-1v-2c0-0.552,0.449-1,1-1h0.894
		l2.709-1.161c0.118-0.052,0.26-0.082,0.399-0.082c0.269,0.001,0.52,0.106,0.708,0.295c0.188,0.19,0.292,0.441,0.291,0.708v4.48
		c0,0.139-0.028,0.274-0.083,0.4c-0.107,0.245-0.302,0.434-0.552,0.531C14.248,21.219,14.125,21.242,14,21.242z M10,19.001h0.9
		c0.137,0,0.269,0.027,0.394,0.079l2.703,1.16L14,15.759c-0.001,0-0.003,0-0.004,0l-2.704,1.16c-0.117,0.051-0.25,0.079-0.394,0.082
		H10L10,19.001z"/>
</g>
</svg>
