<?xml version="1.0" encoding="utf-8"?>
<!-- Generator: Adobe Illustrator 22.1.0, SVG Export Plug-In . SVG Version: 6.00 Build 0)  -->
<svg version="1.1" id="Layer_1" xmlns="http://www.w3.org/2000/svg" xmlns:xlink="http://www.w3.org/1999/xlink" x="0px" y="0px"
	 viewBox="0 0 24 24" style="enable-background:new 0 0 24 24;" xml:space="preserve">
<g>
	<title>setting-slider-horizontal</title>
	<path d="M7.5,18.5C6.121,18.5,5,17.378,5,16V8c0-1.379,1.121-2.5,2.5-2.5S10,6.621,10,8v8C10,17.378,8.879,18.5,7.5,18.5z M7.5,6.5
		C6.673,6.5,6,7.173,6,8v8c0,0.827,0.673,1.5,1.5,1.5S9,16.827,9,16V8C9,7.173,8.327,6.5,7.5,6.5z"/>
	<path d="M11.5,12.501c-0.276,0-0.5-0.224-0.5-0.5c0-0.276,0.224-0.5,0.5-0.5h12c0.276,0,0.5,0.224,0.5,0.5
		c0,0.276-0.224,0.5-0.5,0.5H11.5z"/>
	<path d="M0.5,12.501c-0.276,0-0.5-0.224-0.5-0.5c0-0.276,0.224-0.5,0.5-0.5h3c0.276,0,0.5,0.224,0.5,0.5c0,0.276-0.224,0.5-0.5,0.5
		H0.5z"/>
</g>
</svg>
