<?xml version="1.0" encoding="utf-8"?>
<!-- Generator: Adobe Illustrator 22.1.0, SVG Export Plug-In . SVG Version: 6.00 Build 0)  -->
<svg version="1.1" id="Layer_1" xmlns="http://www.w3.org/2000/svg" xmlns:xlink="http://www.w3.org/1999/xlink" x="0px" y="0px"
	 viewBox="0 0 24 24" style="enable-background:new 0 0 24 24;" xml:space="preserve">
<g>
	<title>settings-brightness</title>
	<path d="M8.5,24.001c-1.379,0-2.5-1.122-2.5-2.5v-19c0-1.379,1.121-2.5,2.5-2.5h7c1.378,0,2.5,1.121,2.5,2.5v19
		c0,1.378-1.122,2.5-2.5,2.5H8.5z M7,21.501c0,0.827,0.673,1.5,1.5,1.5h7c0.827,0,1.5-0.673,1.5-1.5v-13.5H7V21.501z M17,7.001v-4.5
		c0-0.827-0.673-1.5-1.5-1.5h-7c-0.827,0-1.5,0.673-1.5,1.5v4.5H17z"/>
	<path d="M12,20.001c-1.103,0-2-0.897-2-2s0.897-2,2-2s2,0.897,2,2S13.103,20.001,12,20.001z M12,17.001c-0.551,0-1,0.448-1,1
		s0.449,1,1,1c0.552,0,1-0.448,1-1S12.552,17.001,12,17.001z"/>
	<path d="M12,15.501c-0.276,0-0.5-0.224-0.5-0.5v-0.5c0-0.276,0.224-0.5,0.5-0.5c0.276,0,0.5,0.224,0.5,0.5v0.5
		C12.5,15.277,12.276,15.501,12,15.501z"/>
	<path d="M15,18.501c-0.276,0-0.5-0.224-0.5-0.5s0.224-0.5,0.5-0.5h0.5c0.276,0,0.5,0.224,0.5,0.5s-0.224,0.5-0.5,0.5H15z"/>
	<path d="M12,22.001c-0.276,0-0.5-0.224-0.5-0.5v-0.5c0-0.276,0.224-0.5,0.5-0.5c0.276,0,0.5,0.224,0.5,0.5v0.5
		C12.5,21.777,12.276,22.001,12,22.001z"/>
	<path d="M8.5,18.501c-0.276,0-0.5-0.224-0.5-0.5s0.224-0.5,0.5-0.5H9c0.276,0,0.5,0.224,0.5,0.5s-0.224,0.5-0.5,0.5H8.5z"/>
	<path d="M14.121,16.379c-0.134,0-0.26-0.052-0.354-0.147c-0.094-0.094-0.146-0.22-0.146-0.354s0.052-0.259,0.147-0.353l0.354-0.353
		c0.095-0.094,0.22-0.146,0.353-0.146c0.134,0,0.26,0.052,0.354,0.147c0.094,0.094,0.146,0.22,0.146,0.354s-0.052,0.259-0.147,0.353
		l-0.354,0.353C14.379,16.327,14.254,16.379,14.121,16.379z"/>
	<path d="M14.475,20.976c-0.134,0-0.259-0.052-0.354-0.146l-0.354-0.354c-0.195-0.195-0.195-0.512,0-0.707
		c0.094-0.094,0.22-0.146,0.354-0.146s0.259,0.052,0.354,0.146l0.354,0.354c0.195,0.195,0.195,0.512,0,0.707
		C14.734,20.924,14.609,20.976,14.475,20.976z"/>
	<path d="M9.525,20.976c-0.134,0-0.259-0.052-0.354-0.146c-0.195-0.195-0.195-0.512,0-0.707l0.354-0.354
		c0.094-0.094,0.22-0.146,0.354-0.146s0.259,0.052,0.354,0.146c0.195,0.195,0.195,0.512,0,0.707L9.879,20.83
		C9.784,20.924,9.659,20.976,9.525,20.976z"/>
	<path d="M9.879,16.379c-0.133,0-0.258-0.052-0.353-0.146L9.172,15.88c-0.095-0.094-0.147-0.22-0.147-0.354
		c0-0.134,0.052-0.259,0.146-0.354c0.094-0.094,0.22-0.147,0.354-0.147c0.133,0,0.259,0.052,0.353,0.146l0.354,0.353
		c0.095,0.094,0.147,0.22,0.147,0.353c0,0.134-0.052,0.26-0.146,0.354C10.139,16.327,10.013,16.379,9.879,16.379z"/>
</g>
</svg>
