<?xml version="1.0" encoding="utf-8"?>
<!-- Generator: Adobe Illustrator 22.1.0, SVG Export Plug-In . SVG Version: 6.00 Build 0)  -->
<svg version="1.1" id="Layer_1" xmlns="http://www.w3.org/2000/svg" xmlns:xlink="http://www.w3.org/1999/xlink" x="0px" y="0px"
	 viewBox="0 0 24 24" style="enable-background:new 0 0 24 24;" xml:space="preserve">
<g>
	<title>settings-on</title>
	<path d="M5.5,17.5C2.467,17.5,0,15.033,0,12s2.467-5.5,5.5-5.5h13c3.033,0,5.5,2.467,5.5,5.5s-2.467,5.5-5.5,5.5H5.5z M5.5,7.5
		C3.019,7.5,1,9.519,1,12c0,2.481,2.019,4.5,4.5,4.5h13c2.481,0,4.5-2.019,4.5-4.5c0-2.481-2.019-4.5-4.5-4.5H5.5z"/>
	<path d="M18,15.001c-0.276,0-0.5-0.224-0.5-0.5v-5c0-0.276,0.224-0.5,0.5-0.5s0.5,0.224,0.5,0.5v5
		C18.5,14.777,18.276,15.001,18,15.001z"/>
	<path d="M16,15.001c-0.276,0-0.5-0.224-0.5-0.5v-5c0-0.276,0.224-0.5,0.5-0.5s0.5,0.224,0.5,0.5v5
		C16.5,14.777,16.276,15.001,16,15.001z"/>
</g>
</svg>
