<?xml version="1.0" encoding="utf-8"?>
<!-- Generator: Adobe Illustrator 22.1.0, SVG Export Plug-In . SVG Version: 6.00 Build 0)  -->
<svg version="1.1" id="Layer_1" xmlns="http://www.w3.org/2000/svg" xmlns:xlink="http://www.w3.org/1999/xlink" x="0px" y="0px"
	 viewBox="0 0 24 24" style="enable-background:new 0 0 24 24;" xml:space="preserve">
<g>
	<title>setting-slider-vertical</title>
	<path d="M8,19c-1.379,0-2.5-1.122-2.5-2.5S6.621,14,8,14h8c1.378,0,2.5,1.122,2.5,2.5S17.378,19,16,19H8z M8,15
		c-0.827,0-1.5,0.673-1.5,1.5S7.173,18,8,18h8c0.827,0,1.5-0.673,1.5-1.5S16.827,15,16,15H8z"/>
	<path d="M12,13.001c-0.276,0-0.5-0.224-0.5-0.5v-12c0-0.276,0.224-0.5,0.5-0.5c0.276,0,0.5,0.224,0.5,0.5v12
		C12.5,12.777,12.276,13.001,12,13.001z"/>
	<path d="M12,24.001c-0.276,0-0.5-0.224-0.5-0.5v-3c0-0.276,0.224-0.5,0.5-0.5c0.276,0,0.5,0.224,0.5,0.5v3
		C12.5,23.777,12.276,24.001,12,24.001z"/>
</g>
</svg>
