<?xml version="1.0" encoding="utf-8"?>
<!-- Generator: Adobe Illustrator 22.1.0, SVG Export Plug-In . SVG Version: 6.00 Build 0)  -->
<svg version="1.1" id="Layer_1" xmlns="http://www.w3.org/2000/svg" xmlns:xlink="http://www.w3.org/1999/xlink" x="0px" y="0px"
	 viewBox="0 0 24 24" style="enable-background:new 0 0 24 24;" xml:space="preserve">
<g>
	<title>settings-slider</title>
	<path d="M1.5,24.001c-0.827,0-1.5-0.673-1.5-1.5v-21c0-0.827,0.673-1.5,1.5-1.5h21c0.827,0,1.5,0.673,1.5,1.5v21
		c0,0.827-0.673,1.5-1.5,1.5H1.5z M1.5,1.001c-0.276,0-0.5,0.224-0.5,0.5v21c0,0.276,0.224,0.5,0.5,0.5h21
		c0.276,0,0.5-0.224,0.5-0.5v-21c0-0.276-0.224-0.5-0.5-0.5H1.5z"/>
	<path d="M15.5,21.001c-1.738,0-3.216-1.3-3.461-3H3.5c-0.276,0-0.5-0.224-0.5-0.5s0.224-0.5,0.5-0.5h8.539
		c0.245-1.7,1.723-3,3.461-3s3.216,1.3,3.461,3H20.5c0.276,0,0.5,0.224,0.5,0.5s-0.224,0.5-0.5,0.5h-1.539
		C18.716,19.701,17.238,21.001,15.5,21.001z M15.5,15.001c-1.378,0-2.5,1.122-2.5,2.5s1.122,2.5,2.5,2.5s2.5-1.122,2.5-2.5
		S16.878,15.001,15.5,15.001z"/>
	<path d="M9,10.001c-1.738,0-3.216-1.3-3.461-3H3.5c-0.276,0-0.5-0.224-0.5-0.5s0.224-0.5,0.5-0.5h2.039c0.245-1.7,1.723-3,3.461-3
		s3.216,1.3,3.461,3H20.5c0.276,0,0.5,0.224,0.5,0.5s-0.224,0.5-0.5,0.5h-8.039C12.216,8.701,10.738,10.001,9,10.001z M9,4.001
		c-1.379,0-2.5,1.121-2.5,2.5s1.121,2.5,2.5,2.5s2.5-1.121,2.5-2.5S10.379,4.001,9,4.001z"/>
	<circle cx="9" cy="6.501" r="0.75"/>
	<circle cx="15.5" cy="17.501" r="0.75"/>
</g>
</svg>
