<?xml version="1.0" encoding="utf-8"?>
<!-- Generator: Adobe Illustrator 22.1.0, SVG Export Plug-In . SVG Version: 6.00 Build 0)  -->
<svg version="1.1" id="Layer_1" xmlns="http://www.w3.org/2000/svg" xmlns:xlink="http://www.w3.org/1999/xlink" x="0px" y="0px"
	 viewBox="0 0 24 24" style="enable-background:new 0 0 24 24;" xml:space="preserve">
<g>
	<title>switch-off-1</title>
	<path d="M1.5,24.001c-0.827,0-1.5-0.673-1.5-1.5v-21c0-0.827,0.673-1.5,1.5-1.5h21c0.827,0,1.5,0.673,1.5,1.5v21
		c0,0.827-0.673,1.5-1.5,1.5H1.5z M1.5,1.001c-0.276,0-0.5,0.224-0.5,0.5v21c0,0.276,0.224,0.5,0.5,0.5h21
		c0.276,0,0.5-0.224,0.5-0.5v-21c0-0.276-0.224-0.5-0.5-0.5H1.5z"/>
	<path d="M9.5,18.001c-0.827,0-1.5-0.673-1.5-1.5v-9c0-0.827,0.673-1.5,1.5-1.5h5c0.827,0,1.5,0.673,1.5,1.5v9
		c0,0.827-0.673,1.5-1.5,1.5H9.5z M9,16.501c0,0.276,0.224,0.5,0.5,0.5h5c0.276,0,0.5-0.224,0.5-0.5v-2.5H9V16.501z M15,13.001v-5.5
		c0-0.276-0.224-0.5-0.5-0.5h-5c-0.276,0-0.5,0.224-0.5,0.5v5.5H15z"/>
</g>
</svg>
