<?xml version="1.0" encoding="utf-8"?>
<!-- Generator: Adobe Illustrator 22.1.0, SVG Export Plug-In . SVG Version: 6.00 Build 0)  -->
<svg version="1.1" id="Layer_1" xmlns="http://www.w3.org/2000/svg" xmlns:xlink="http://www.w3.org/1999/xlink" x="0px" y="0px"
	 viewBox="0 0 24 24" style="enable-background:new 0 0 24 24;" xml:space="preserve">
<title>bin-paper-1</title>
<g>
	<path d="M12,24c-4.254,0-6.417-1.197-7.484-2.208c-0.008-0.006-0.016-0.013-0.022-0.02c-0.01-0.01-0.02-0.02-0.029-0.031
		c-0.225-0.218-0.428-0.458-0.589-0.701c-0.749-1.123-2.41-12.51-3.091-17.37C0.77,3.604,0.762,3.538,0.757,3.471
		C0.752,3.443,0.75,3.409,0.75,3.375C0.75,0.711,7.822,0,12,0s11.25,0.711,11.25,3.375c0,0.035-0.002,0.07-0.007,0.104
		c-0.004,0.061-0.013,0.127-0.027,0.191c-0.533,3.801-2.32,16.212-3.092,17.37c-0.157,0.237-0.354,0.472-0.585,0.697
		c-0.008,0.009-0.016,0.018-0.024,0.026c-0.011,0.011-0.023,0.022-0.036,0.032C18.418,22.802,16.256,24,12,24z M6.137,21.174
		c0.759,0.504,2.038,1.05,4.131,1.248l0.672-0.672l-2.689-2.69L6.137,21.174z M13.733,22.421c2.093-0.198,3.372-0.744,4.131-1.248
		L15.75,19.06l-2.689,2.689L13.733,22.421z M12.001,20.689L14.69,18L12,15.31l-2.689,2.689L12.001,20.689z M4.152,15.659
		c0.56,3.212,0.822,4.167,0.928,4.451l2.11-2.11l-2.689-2.69L4.152,15.659z M18.92,20.109c0.106-0.285,0.369-1.242,0.928-4.451
		L19.5,15.31L16.811,18L18.92,20.109z M15.75,16.939l2.689-2.689L15.75,11.56l-2.689,2.689L15.75,16.939z M8.251,16.939l2.689-2.689
		L8.251,11.56l-2.689,2.689L8.251,16.939z M19.5,13.189l0.91-0.91c0.311-1.94,0.648-4.153,0.967-6.345L16.811,10.5L19.5,13.189z
		 M12,13.189L14.69,10.5L12,7.81L9.311,10.5L12,13.189z M4.501,13.188L7.19,10.5L2.622,5.932c0.319,2.194,0.656,4.407,0.967,6.345
		L4.501,13.188z M8.251,9.439L10.94,6.75l-0.013-0.013C8.683,6.68,6.568,6.447,4.89,6.079L8.251,9.439z M15.75,9.439l3.36-3.36
		c-1.677,0.368-3.792,0.601-6.036,0.657L13.061,6.75L15.75,9.439z M2.26,3.396C2.495,3.943,5.635,5.25,12,5.25
		c6.362,0,9.503-1.307,9.74-1.854l0.006-0.041C21.578,2.784,18.162,1.5,12,1.5c-6.16,0-9.576,1.283-9.745,1.856L2.26,3.396z"/>
</g>
</svg>
