<?xml version="1.0" encoding="utf-8"?>
<!-- Generator: Adobe Illustrator 22.1.0, SVG Export Plug-In . SVG Version: 6.00 Build 0)  -->
<svg version="1.1" id="Layer_1" xmlns="http://www.w3.org/2000/svg" xmlns:xlink="http://www.w3.org/1999/xlink" x="0px" y="0px"
	 viewBox="0 0 24 24" style="enable-background:new 0 0 24 24;" xml:space="preserve">
<title>skull-1</title>
<g>
	<path d="M16.5,24c-0.863,0-1.685-0.38-2.25-1.019C13.685,23.62,12.863,24,12,24c-0.863,0-1.685-0.38-2.25-1.019
		C9.185,23.62,8.363,24,7.5,24c-1.654,0-3-1.346-3-3v-3.162c-1.911-1.953-3.003-4.626-3-7.36C1.506,4.695,6.217-0.011,12-0.011
		c2.816,0.003,5.452,1.098,7.433,3.083c1.981,1.985,3.07,4.623,3.067,7.428c0.001,2.727-1.09,5.392-3,7.338V21
		C19.5,22.654,18.154,24,16.5,24z M14.25,20.25c0.414,0,0.75,0.336,0.75,0.75c0,0.827,0.673,1.5,1.5,1.5S18,21.827,18,21v-3.475
		c0-0.204,0.084-0.401,0.231-0.542c1.761-1.684,2.77-4.046,2.769-6.483c0.003-2.405-0.931-4.666-2.629-6.368
		c-1.698-1.702-3.957-2.64-6.361-2.643c-4.967,0-9.005,4.033-9.01,8.99c-0.003,2.443,1.007,4.813,2.769,6.505
		C5.916,17.124,6,17.321,6,17.525V21c0,0.827,0.673,1.5,1.5,1.5S9,21.827,9,21c0-0.414,0.336-0.75,0.75-0.75S10.5,20.586,10.5,21
		c0,0.827,0.673,1.5,1.5,1.5s1.5-0.673,1.5-1.5C13.5,20.586,13.836,20.25,14.25,20.25z"/>
	<path d="M7.5,13.5c-1.654,0-3-1.346-3-3s1.346-3,3-3s3,1.346,3,3S9.154,13.5,7.5,13.5z M7.5,9C6.673,9,6,9.673,6,10.5
		C6,11.327,6.673,12,7.5,12S9,11.327,9,10.5C9,9.673,8.327,9,7.5,9z"/>
	<path d="M16.5,13.5c-1.654,0-3-1.346-3-3s1.346-3,3-3s3,1.346,3,3S18.154,13.5,16.5,13.5z M16.5,9C15.673,9,15,9.673,15,10.5
		c0,0.827,0.673,1.5,1.5,1.5s1.5-0.673,1.5-1.5C18,9.673,17.327,9,16.5,9z"/>
	<path d="M12,18c-0.414,0-0.75-0.336-0.75-0.75V15c0-0.414,0.336-0.75,0.75-0.75s0.75,0.336,0.75,0.75v2.25
		C12.75,17.663,12.414,18,12,18z"/>
</g>
</svg>
