<svg xmlns="http://www.w3.org/2000/svg" viewBox="0 0 24 24"><title>gift-heart</title><path d="M16.08,8.49A1.251,1.251,0,0,0,13.945,7.6a7.311,7.311,0,0,0-.875,2.341.25.25,0,0,0,.3.3C15.57,9.7,16.08,9.321,16.08,8.49Z"/><path d="M10.626,10.248a.25.25,0,0,0,.3-.3A7.3,7.3,0,0,0,10.056,7.6,1.251,1.251,0,0,0,8.287,9.372,7.309,7.309,0,0,0,10.626,10.248Z"/><path d="M12.75,6.1a.25.25,0,0,0,.41.192,2.79,2.79,0,0,1,3.614.248A2.732,2.732,0,0,1,17.58,8.49a2.637,2.637,0,0,1-.569,1.67.25.25,0,0,0,.2.406h5.852A.251.251,0,0,0,23.3,10.4a7.32,7.32,0,0,0,.455-2.6A6.18,6.18,0,0,0,19.7,2.508c-.485-.194-3.433-1.6-6.948,1.61Z"/><path d="M14.661,12.066a.25.25,0,0,0-.164.438l2,1.747a.75.75,0,0,1-.988,1.129l-2.341-2.049a.25.25,0,0,0-.415.188v8.2a.25.25,0,0,0,.4.2c3.035-2.188,7.105-5.786,9.212-9.483a.249.249,0,0,0-.218-.373Z"/><path d="M6.8,10.566a.25.25,0,0,0,.2-.406,2.637,2.637,0,0,1-.569-1.67,2.732,2.732,0,0,1,.806-1.946A2.8,2.8,0,0,1,10.841,6.3.25.25,0,0,0,11.25,6.1V4.118C7.736.915,4.838,2.294,4.3,2.508A6.181,6.181,0,0,0,.25,7.792,7.3,7.3,0,0,0,.706,10.4a.25.25,0,0,0,.236.168Z"/><path d="M11.25,13.519a.25.25,0,0,0-.415-.188L8.494,15.38a.75.75,0,0,1-.988-1.129l2-1.747a.25.25,0,0,0-.164-.438H1.86a.249.249,0,0,0-.217.373c2.106,3.7,6.176,7.3,9.211,9.483a.25.25,0,0,0,.4-.2Z"/></svg>