<?xml version="1.0" encoding="utf-8"?>
<!-- Generator: Adobe Illustrator 22.1.0, SVG Export Plug-In . SVG Version: 6.00 Build 0)  -->
<svg version="1.1" id="Layer_1" xmlns="http://www.w3.org/2000/svg" xmlns:xlink="http://www.w3.org/1999/xlink" x="0px" y="0px"
	 viewBox="0 0 24 24" style="enable-background:new 0 0 24 24;" xml:space="preserve">
<title>music-genre-brain</title>
<g>
	<path d="M8.322,15.693c-0.332,0-0.62-0.213-0.717-0.531c-0.226-0.738-0.839-1.282-1.599-1.418C5.599,13.671,5.327,13.28,5.4,12.873
		c0.064-0.358,0.374-0.618,0.738-0.618c0.044,0,0.088,0.004,0.132,0.012c1.317,0.236,2.378,1.177,2.769,2.456
		c0.121,0.396-0.102,0.816-0.498,0.937C8.471,15.682,8.397,15.693,8.322,15.693z"/>
	<path d="M11.248,15.751c-0.414,0-0.75-0.336-0.75-0.75v-8.25c0-0.414,0.336-0.75,0.75-0.75s0.75,0.336,0.75,0.75v8.25
		C11.998,15.414,11.662,15.751,11.248,15.751z"/>
	<path d="M6.138,8.751c-0.363,0-0.673-0.26-0.738-0.618C5.364,7.936,5.408,7.737,5.522,7.572c0.114-0.165,0.286-0.275,0.483-0.31
		C6.767,7.126,7.38,6.581,7.605,5.841c0.097-0.318,0.385-0.532,0.717-0.532c0.074,0,0.148,0.011,0.219,0.033
		c0.395,0.12,0.619,0.54,0.499,0.935C8.65,7.559,7.589,8.502,6.271,8.739C6.226,8.747,6.182,8.751,6.138,8.751z"/>
	<path d="M16.359,8.751c-0.044,0-0.088-0.004-0.133-0.012c-1.319-0.237-2.38-1.18-2.769-2.462c-0.12-0.396,0.104-0.815,0.5-0.936
		c0.071-0.022,0.144-0.033,0.219-0.033c0.332,0,0.621,0.214,0.718,0.532c0.225,0.74,0.837,1.285,1.599,1.422
		c0.197,0.036,0.369,0.146,0.483,0.31c0.114,0.165,0.158,0.364,0.122,0.561C17.032,8.491,16.722,8.751,16.359,8.751z"/>
	<path d="M13.873,24.001c-1.448,0-2.625-1.177-2.625-2.625s1.178-2.625,2.625-2.625c0.392,0,0.776,0.088,1.125,0.255v-4.425
		c0-0.969,0.618-1.827,1.538-2.134l4.537-1.261c0.204-0.069,0.437-0.107,0.674-0.107c0.346,0,0.694,0.083,1.007,0.239
		c0.538,0.269,0.939,0.73,1.129,1.301c0.077,0.229,0.116,0.469,0.116,0.712v5.794c0,1.448-1.177,2.625-2.625,2.625
		s-2.625-1.177-2.625-2.625s1.177-2.625,2.625-2.625c0.392,0,0.776,0.088,1.125,0.255v-3.425c0-0.081-0.013-0.16-0.039-0.237
		c-0.063-0.191-0.197-0.345-0.376-0.434c-0.106-0.053-0.218-0.08-0.334-0.08c-0.081,0-0.161,0.013-0.239,0.039l-4.537,1.261
		c-0.272,0.092-0.476,0.382-0.476,0.7v6.795C16.498,22.823,15.321,24.001,13.873,24.001z M13.873,20.251
		c-0.62,0-1.125,0.505-1.125,1.125s0.505,1.125,1.125,1.125s1.125-0.505,1.125-1.125S14.494,20.251,13.873,20.251z M21.373,18.001
		c-0.62,0-1.125,0.505-1.125,1.125s0.505,1.125,1.125,1.125s1.125-0.505,1.125-1.125S21.994,18.001,21.373,18.001z"/>
	<path d="M8.622,21.001c-1.13,0-2.183-0.569-2.805-1.501c-0.08,0.004-0.165,0.007-0.258,0.007c-2.263-0.021-4.083-1.875-4.062-4.132
		c0.002-0.402,0.064-0.8,0.183-1.185c-0.534-0.39-0.966-0.902-1.259-1.494c-0.485-0.982-0.559-2.094-0.208-3.131
		c0.276-0.816,0.78-1.502,1.467-1.999C1.562,7.181,1.5,6.783,1.498,6.38c0-2.278,1.85-4.129,4.125-4.129
		C5.812,2.252,6,2.267,6.185,2.293c0.17-0.507,0.458-0.966,0.846-1.343c0.63-0.612,1.462-0.949,2.343-0.949
		c0.669,0,1.324,0.2,1.875,0.569c0.498-0.335,1.073-0.529,1.679-0.564c0.065-0.004,0.13-0.006,0.194-0.006
		c1.447,0,2.735,0.945,3.19,2.293c0.184-0.027,0.369-0.041,0.555-0.043c2.277,0,4.129,1.849,4.131,4.121
		c-0.002,0.409-0.064,0.809-0.184,1.195c0.133,0.098,0.261,0.204,0.382,0.317c0.302,0.282,0.318,0.758,0.035,1.06
		c-0.142,0.151-0.342,0.238-0.548,0.238c-0.191,0-0.373-0.072-0.512-0.203c-0.187-0.174-0.397-0.322-0.625-0.437
		c-0.179-0.09-0.312-0.245-0.375-0.436c-0.062-0.191-0.047-0.394,0.044-0.573c0.183-0.358,0.28-0.761,0.282-1.164
		c-0.001-1.443-1.179-2.618-2.625-2.618c-0.298,0.003-0.594,0.058-0.877,0.164c-0.085,0.032-0.173,0.048-0.264,0.048
		c-0.146,0-0.287-0.042-0.409-0.121c-0.199-0.13-0.326-0.348-0.34-0.585c-0.057-0.984-0.876-1.755-1.865-1.755
		c-0.035,0-0.071,0.001-0.106,0.003c-0.465,0.027-0.902,0.227-1.227,0.562c-0.141,0.145-0.337,0.227-0.538,0.227
		c-0.202,0-0.398-0.083-0.538-0.227c-0.347-0.357-0.812-0.557-1.309-0.565l-0.027,0c-0.487,0-0.948,0.187-1.298,0.527
		C7.74,2.353,7.541,2.789,7.514,3.256C7.5,3.493,7.373,3.712,7.174,3.841C7.053,3.92,6.911,3.963,6.765,3.963
		c-0.09,0-0.178-0.016-0.263-0.047C6.218,3.809,5.92,3.753,5.617,3.751c-1.443,0-2.619,1.178-2.619,2.625
		C3,6.775,3.098,7.176,3.281,7.535c0.091,0.177,0.107,0.388,0.044,0.577C3.262,8.3,3.124,8.46,2.946,8.548
		c-0.621,0.307-1.086,0.839-1.309,1.498c-0.223,0.659-0.176,1.364,0.131,1.985c0.251,0.509,0.67,0.927,1.178,1.178
		c0.179,0.088,0.317,0.247,0.38,0.437c0.063,0.189,0.047,0.399-0.044,0.577C3.098,14.581,3,14.983,2.998,15.386
		c-0.013,1.433,1.14,2.608,2.57,2.621c0.185,0,0.355-0.016,0.517-0.047c0.048-0.009,0.096-0.014,0.144-0.014
		c0.296,0,0.565,0.175,0.685,0.445c0.3,0.675,0.971,1.11,1.709,1.11c0.414,0,0.751,0.336,0.751,0.75S9.037,21.001,8.622,21.001
		L8.622,21.001z"/>
</g>
</svg>
