<?xml version="1.0" encoding="utf-8"?>
<!-- Generator: Adobe Illustrator 22.1.0, SVG Export Plug-In . SVG Version: 6.00 Build 0)  -->
<svg version="1.1" id="Layer_1" xmlns="http://www.w3.org/2000/svg" xmlns:xlink="http://www.w3.org/1999/xlink" x="0px" y="0px"
	 viewBox="0 0 24 24" style="enable-background:new 0 0 24 24;" xml:space="preserve">
<title>music-genre-team</title>
<g>
	<path d="M3.375,8.25C1.514,8.25,0,6.736,0,4.875S1.514,1.5,3.375,1.5S6.75,3.014,6.75,4.875S5.236,8.25,3.375,8.25z M3.375,3
		C2.341,3,1.5,3.841,1.5,4.875S2.341,6.75,3.375,6.75S5.25,5.909,5.25,4.875S4.409,3,3.375,3z"/>
	<path d="M20.625,8.25c-1.861,0-3.375-1.514-3.375-3.375S18.764,1.5,20.625,1.5S24,3.014,24,4.875S22.486,8.25,20.625,8.25z
		 M20.625,3c-1.034,0-1.875,0.841-1.875,1.875s0.841,1.875,1.875,1.875S22.5,5.909,22.5,4.875S21.659,3,20.625,3z"/>
	<path d="M16.715,11.999c-0.227,0-0.44-0.101-0.583-0.278c-1.013-1.251-2.521-1.969-4.138-1.969c-1.213,0-2.399,0.42-3.341,1.182
		c-0.288,0.234-0.553,0.498-0.786,0.786c-0.143,0.177-0.356,0.278-0.583,0.278c-0.171,0-0.339-0.059-0.472-0.167
		c-0.285-0.231-0.356-0.629-0.187-0.941C5.963,9.738,4.708,9.004,3.367,9.004c-0.505,0-0.998,0.102-1.466,0.302
		C1.65,9.414,1.409,9.549,1.187,9.709C1.059,9.801,0.908,9.85,0.75,9.85c-0.241,0-0.469-0.117-0.609-0.312
		C0.024,9.375-0.023,9.177,0.009,8.979c0.032-0.198,0.14-0.371,0.303-0.488c0.311-0.223,0.647-0.413,0.999-0.564
		c0.661-0.283,1.355-0.426,2.065-0.426c0.668,0,1.325,0.128,1.953,0.379c0.976,0.391,1.788,1.042,2.372,1.897
		C7.704,9.774,7.707,9.772,7.71,9.769c1.228-0.995,2.707-1.52,4.276-1.52c0.241,0,0.486,0.013,0.727,0.038
		c1.333,0.14,2.564,0.652,3.587,1.488c0.584-0.854,1.396-1.505,2.371-1.896c0.628-0.251,1.285-0.379,1.953-0.379
		c0.71,0,1.404,0.143,2.065,0.426c0.352,0.151,0.688,0.34,0.999,0.564c0.336,0.242,0.412,0.711,0.171,1.047
		C23.718,9.733,23.49,9.85,23.249,9.85l0,0c-0.158,0-0.309-0.049-0.438-0.141c-0.222-0.16-0.462-0.295-0.714-0.403
		c-0.472-0.202-0.968-0.305-1.474-0.305c-0.477,0-0.946,0.091-1.396,0.271c-0.784,0.314-1.436,0.884-1.854,1.617
		c0.073,0.132,0.103,0.284,0.087,0.438c-0.021,0.199-0.118,0.378-0.274,0.504C17.053,11.94,16.886,11.999,16.715,11.999z"/>
	<path d="M12,8.25c-2.275,0-4.125-1.85-4.125-4.125S9.725,0,12,0c2.274,0,4.125,1.85,4.125,4.125S14.274,8.25,12,8.25z M12,1.5
		c-1.447,0-2.625,1.178-2.625,2.625S10.552,6.75,12,6.75c1.448,0,2.625-1.178,2.625-2.625S13.447,1.5,12,1.5z"/>
	<path d="M7.125,24C5.677,24,4.5,22.823,4.5,21.375s1.178-2.625,2.625-2.625c0.392,0,0.776,0.088,1.125,0.255V16.25
		c0-0.97,0.619-1.828,1.539-2.135l4.536-1.261c0.206-0.069,0.439-0.107,0.676-0.107c0.969,0,1.827,0.62,2.134,1.542
		c0.077,0.229,0.115,0.469,0.115,0.711v4.875c0,1.448-1.177,2.625-2.625,2.625S12,21.323,12,19.875s1.177-2.625,2.625-2.625
		c0.392,0,0.776,0.088,1.125,0.255V15c0-0.081-0.013-0.16-0.038-0.236c-0.102-0.308-0.389-0.514-0.713-0.514
		c-0.08,0-0.16,0.013-0.237,0.038l-4.535,1.261c-0.273,0.092-0.477,0.382-0.477,0.7v5.125C9.75,22.823,8.572,24,7.125,24z
		 M7.125,20.25C6.504,20.25,6,20.755,6,21.375S6.504,22.5,7.125,22.5s1.125-0.505,1.125-1.125S7.745,20.25,7.125,20.25z
		 M14.625,18.75c-0.62,0-1.125,0.505-1.125,1.125S14.004,21,14.625,21s1.125-0.505,1.125-1.125S15.245,18.75,14.625,18.75z"/>
</g>
</svg>
