<?xml version="1.0" encoding="utf-8"?>
<!-- Generator: Adobe Illustrator 22.1.0, SVG Export Plug-In . SVG Version: 6.00 Build 0)  -->
<svg version="1.1" id="Layer_1" xmlns="http://www.w3.org/2000/svg" xmlns:xlink="http://www.w3.org/1999/xlink" x="0px" y="0px"
	 viewBox="0 0 24 24" style="enable-background:new 0 0 24 24;" xml:space="preserve">
<title>music-genre-moon-night</title>
<g>
	<path d="M21.75,18.254c-1.241,0-2.25-1.009-2.25-2.25s1.009-2.25,2.25-2.25c0.259,0,0.511,0.044,0.75,0.129v-2.379
		c0-0.414,0.336-0.75,0.75-0.75S24,11.09,24,11.504v4.5C24,17.245,22.991,18.254,21.75,18.254z M21.75,15.254
		c-0.414,0-0.75,0.336-0.75,0.75s0.336,0.75,0.75,0.75s0.75-0.336,0.75-0.75S22.163,15.254,21.75,15.254z"/>
	<path d="M10.824,23.794C7.885,23.74,5.14,22.54,3.096,20.418c-2.045-2.123-3.14-4.91-3.085-7.849
		C0.121,6.606,5.063,1.754,11.026,1.754c0.07,0,0.139,0.001,0.209,0.002c0.329,0.007,0.648,0.147,0.875,0.387
		c0.228,0.24,0.348,0.555,0.339,0.886c-0.009,0.331-0.146,0.639-0.386,0.866c-2.523,2.382-3.55,5.948-2.682,9.306
		c0.868,3.358,3.494,5.978,6.854,6.838c0.324,0.081,0.607,0.296,0.774,0.59c0.337,0.594,0.127,1.352-0.467,1.689
		c-1.67,0.966-3.578,1.478-5.513,1.478C10.961,23.796,10.892,23.796,10.824,23.794z M10.572,3.265
		C5.627,3.503,1.603,7.598,1.51,12.598c-0.047,2.538,0.899,4.946,2.666,6.78s4.137,2.87,6.676,2.917
		c0.063,0.001,0.125,0.002,0.188,0.002c1.456,0,2.897-0.338,4.203-0.983c-3.591-1.148-6.363-4.061-7.313-7.737
		C6.978,9.9,7.99,6.008,10.572,3.265z"/>
	<path d="M16.125,10.754c-1.448,0-2.625-1.178-2.625-2.625s1.177-2.625,2.625-2.625c0.392,0,0.776,0.089,1.125,0.255V1.7
		c0-0.827,0.673-1.5,1.5-1.5c0.322,0,0.642,0.106,0.9,0.3l1.8,1.351c0.16,0.12,0.264,0.296,0.292,0.494
		c0.028,0.198-0.023,0.396-0.143,0.556c-0.14,0.187-0.364,0.3-0.6,0.3l0,0c-0.164,0-0.319-0.052-0.45-0.15L18.75,1.7v6.429
		C18.75,9.576,17.572,10.754,16.125,10.754z M16.125,7.004C15.505,7.004,15,7.509,15,8.129s0.505,1.125,1.125,1.125
		s1.125-0.505,1.125-1.125S16.745,7.004,16.125,7.004z"/>
</g>
</svg>
