<?xml version="1.0" encoding="utf-8"?>
<!-- Generator: Adobe Illustrator 22.1.0, SVG Export Plug-In . SVG Version: 6.00 Build 0)  -->
<svg version="1.1" id="Layer_1" xmlns="http://www.w3.org/2000/svg" xmlns:xlink="http://www.w3.org/1999/xlink" x="0px" y="0px"
	 viewBox="0 0 24 24" style="enable-background:new 0 0 24 24;" xml:space="preserve">
<title>music-genre-dumbbell</title>
<g>
	<path d="M13.878,24c-1.448,0-2.625-1.177-2.625-2.625s1.177-2.625,2.625-2.625c0.392,0,0.776,0.088,1.125,0.255V15
		c0-0.97,0.619-1.828,1.539-2.135l4.536-1.261c0.204-0.069,0.436-0.106,0.673-0.106c0.346,0,0.695,0.083,1.009,0.24
		c0.537,0.269,0.938,0.731,1.128,1.301c0.077,0.229,0.115,0.469,0.115,0.711v5.375c0,1.448-1.177,2.625-2.625,2.625
		s-2.625-1.177-2.625-2.625S19.93,16.5,21.378,16.5c0.392,0,0.776,0.088,1.125,0.255V13.75c0-0.081-0.013-0.16-0.038-0.236
		c-0.063-0.191-0.197-0.345-0.376-0.435C21.982,13.027,21.87,13,21.754,13c-0.08,0-0.161,0.013-0.239,0.039L16.979,14.3
		c-0.273,0.092-0.477,0.382-0.477,0.7v6.375C16.503,22.823,15.325,24,13.878,24z M13.878,20.25c-0.62,0-1.125,0.505-1.125,1.125
		s0.505,1.125,1.125,1.125s1.125-0.505,1.125-1.125S14.498,20.25,13.878,20.25z M21.378,18c-0.62,0-1.125,0.505-1.125,1.125
		s0.505,1.125,1.125,1.125s1.125-0.505,1.125-1.125S21.998,18,21.378,18z"/>
	<path d="M6.623,24.001c-0.601,0-1.166-0.235-1.591-0.66l-4.371-4.371c-0.874-0.873-0.877-2.298-0.007-3.175
		c0.187-0.188,0.399-0.337,0.63-0.447l-0.624-0.625c-0.425-0.448-0.646-1.022-0.629-1.623c0.017-0.601,0.266-1.159,0.703-1.572
		c0.42-0.397,0.969-0.615,1.547-0.615c0.578,0,1.126,0.218,1.546,0.615l2.734,2.734l7.705-7.706l-2.717-2.715
		c-0.425-0.426-0.658-0.991-0.657-1.593c0-0.602,0.235-1.167,0.66-1.591c0.425-0.424,0.99-0.658,1.59-0.658
		c0.604,0.001,1.168,0.235,1.593,0.661l0.619,0.62c0.108-0.228,0.255-0.437,0.438-0.619c0.424-0.424,0.989-0.658,1.591-0.658
		c0.601,0,1.166,0.234,1.591,0.658l4.371,4.371c0.854,0.884,0.856,2.259,0.009,3.135c-0.234,0.242-0.511,0.425-0.819,0.54
		c0.002,0.024,0.003,0.048,0.003,0.072c0,0.2-0.078,0.389-0.22,0.53c-0.142,0.142-0.33,0.219-0.531,0.219
		c-0.201,0-0.389-0.078-0.531-0.22L15.79,3.841c-0.007-0.006-0.025-0.026-0.031-0.034L13.672,1.72
		c-0.142-0.142-0.331-0.221-0.532-0.221c-0.201,0-0.389,0.078-0.531,0.219c-0.142,0.142-0.22,0.33-0.22,0.531
		c0,0.201,0.078,0.389,0.219,0.531l6.725,6.721c0.292,0.292,0.292,0.768,0,1.061c-0.142,0.142-0.33,0.22-0.53,0.22
		s-0.388-0.078-0.53-0.219l-0.825-0.825l-7.707,7.706l1.006,1.006c0.142,0.142,0.22,0.33,0.22,0.53s-0.078,0.389-0.22,0.53
		c-0.142,0.142-0.33,0.22-0.53,0.22s-0.389-0.078-0.53-0.22l-6.907-6.907c-0.128-0.121-0.307-0.191-0.498-0.191
		c-0.194,0-0.378,0.073-0.518,0.206c-0.146,0.138-0.229,0.324-0.234,0.524c-0.005,0.2,0.067,0.391,0.205,0.536l8.186,8.185
		c0.292,0.292,0.292,0.768,0,1.061c-0.142,0.142-0.33,0.22-0.53,0.22s-0.389-0.078-0.53-0.22l-0.205-0.205
		c-0.109,0.229-0.256,0.439-0.44,0.623C7.79,23.767,7.225,24.001,6.623,24.001L6.623,24.001z M2.252,16.63
		c-0.199,0-0.387,0.077-0.528,0.216c-0.295,0.296-0.295,0.772-0.003,1.064l4.371,4.371c0.142,0.142,0.33,0.22,0.531,0.22
		c0.2,0,0.389-0.078,0.53-0.219c0.293-0.292,0.293-0.769,0-1.061l-4.372-4.372C2.641,16.708,2.453,16.63,2.252,16.63z M8.68,16.383
		l7.706-7.705l-1.062-1.061L7.62,15.323L8.68,16.383z M17.381,1.502c-0.201,0-0.389,0.078-0.53,0.219
		c-0.287,0.287-0.29,0.759-0.007,1.051l4.377,4.38c0.133,0.128,0.32,0.201,0.523,0.201c0.202-0.003,0.389-0.085,0.528-0.229
		c0.282-0.292,0.282-0.75,0-1.042l-4.362-4.362C17.77,1.579,17.582,1.502,17.381,1.502z"/>
</g>
</svg>
