<?xml version="1.0" encoding="utf-8"?>
<!-- Generator: Adobe Illustrator 22.1.0, SVG Export Plug-In . SVG Version: 6.00 Build 0)  -->
<svg version="1.1" id="Layer_1" xmlns="http://www.w3.org/2000/svg" xmlns:xlink="http://www.w3.org/1999/xlink" x="0px" y="0px"
	 viewBox="0 0 24 24" style="enable-background:new 0 0 24 24;" xml:space="preserve">
<g>
	<title>messages-people-woman-bubble-circle-1</title>
	<path d="M0.499,24.005c-0.276,0-0.5-0.224-0.5-0.5c0-4.135,3.365-7.5,7.5-7.5s7.5,3.365,7.5,7.5c0,0.276-0.224,0.5-0.5,0.5H0.499z
		 M13.98,23.005c-0.255-3.385-3.054-6-6.481-6s-6.226,2.615-6.481,6H13.98z"/>
	<path d="M7.501,15.603c-0.066,0-0.132-0.001-0.199-0.005c-1.624-0.075-3.005-1.029-3.668-2.418
		c-0.123,0.766-0.396,1.506-0.808,2.18C2.734,15.511,2.575,15.6,2.399,15.6c-0.092,0-0.182-0.025-0.261-0.073
		c-0.235-0.144-0.309-0.452-0.166-0.687c0.511-0.836,0.765-1.795,0.734-2.775l0-0.491c-0.003-0.012-0.007-0.036-0.007-0.065
		c0-0.015,0.003-0.04,0.007-0.062V10.8c-0.005-0.108-0.005-0.238,0-0.367C2.811,7.85,4.918,5.827,7.504,5.827
		c0.064,0,0.128,0.001,0.192,0.004c2.645,0.107,4.709,2.345,4.603,4.99l0,1.226c-0.034,0.994,0.218,1.957,0.727,2.794
		c0.143,0.236,0.068,0.544-0.167,0.688c-0.079,0.048-0.168,0.073-0.26,0.073c-0.176,0-0.336-0.09-0.427-0.24
		c-0.412-0.678-0.684-1.422-0.805-2.196C10.674,14.62,9.195,15.603,7.501,15.603z M4.266,11.914c0.273,1.5,1.534,2.615,3.082,2.686
		c0.05,0.002,0.101,0.003,0.151,0.003c1.597,0,2.946-1.14,3.232-2.689c-1.215-0.214-2.347-0.791-3.232-1.647
		C6.614,11.123,5.482,11.7,4.266,11.914z M7.499,9.039c0.146,0,0.283,0.063,0.379,0.173c0.868,1.005,2.103,1.642,3.422,1.771V10.8
		c0.085-2.109-1.55-3.886-3.643-3.97C7.607,6.828,7.557,6.827,7.508,6.827c-2.049,0-3.719,1.602-3.802,3.647
		c-0.004,0.102-0.004,0.204,0,0.307l0,0.203c1.315-0.131,2.548-0.767,3.415-1.771C7.216,9.102,7.354,9.039,7.499,9.039z"/>
	<path d="M15.499,16c-0.066,0-0.131-0.013-0.192-0.038c-0.187-0.077-0.308-0.258-0.308-0.462v-2.649
		c-0.409-0.083-0.813-0.203-1.202-0.355c-0.257-0.1-0.384-0.391-0.284-0.648c0.076-0.193,0.259-0.318,0.466-0.318
		c0.062,0,0.124,0.012,0.182,0.035c0.452,0.177,0.926,0.302,1.408,0.371c0.245,0.035,0.429,0.247,0.429,0.495v1.952
		c0.501-0.434,1.134-0.972,1.667-1.425c0.637-0.542,1.295-1.102,1.495-1.285c0.049-0.045,0.106-0.08,0.17-0.103
		c2.146-0.763,3.619-2.804,3.668-5.08c-0.129-3.074-2.66-5.494-5.762-5.494c-0.073,0-0.146,0.001-0.219,0.004l-0.136-0.001
		c-2.438,0-4.614,1.449-5.543,3.693C11.262,4.879,11.08,5,10.877,5c-0.066,0-0.13-0.013-0.19-0.038
		c-0.124-0.051-0.22-0.147-0.271-0.271c-0.051-0.123-0.051-0.259,0-0.383c1.084-2.618,3.62-4.31,6.459-4.31L17.009,0
		c0.071-0.003,0.156-0.005,0.24-0.005c3.633,0,6.598,2.848,6.749,6.484c-0.056,2.674-1.757,5.071-4.237,5.997
		c-0.256,0.228-0.804,0.694-1.434,1.23c-0.987,0.839-2.193,1.865-2.475,2.147C15.758,15.948,15.633,16,15.499,16z"/>
	<path d="M14.252,7.237c-0.415,0-0.753-0.336-0.753-0.75c0-0.413,0.336-0.75,0.749-0.75c0.201,0,0.388,0.077,0.529,0.217
		c0.142,0.141,0.221,0.329,0.221,0.529c0.001,0.414-0.333,0.752-0.746,0.754C14.253,7.237,14.253,7.237,14.252,7.237z"/>
	<path d="M16.999,7.237c-0.414,0-0.75-0.336-0.75-0.75c0-0.4,0.314-0.728,0.714-0.747c0.012-0.002,0.023-0.003,0.036-0.003
		c0.414,0,0.75,0.336,0.75,0.75S17.413,7.237,16.999,7.237z"/>
	<path d="M19.749,7.237c-0.414,0-0.75-0.336-0.75-0.75s0.336-0.75,0.75-0.75c0.01,0,0.043,0.003,0.047,0.004
		c0.387,0.016,0.703,0.344,0.703,0.746C20.499,6.901,20.163,7.237,19.749,7.237z"/>
</g>
</svg>
