<?xml version="1.0" encoding="utf-8"?>
<!-- Generator: Adobe Illustrator 22.1.0, SVG Export Plug-In . SVG Version: 6.00 Build 0)  -->
<svg version="1.1" id="Layer_1" xmlns="http://www.w3.org/2000/svg" xmlns:xlink="http://www.w3.org/1999/xlink" x="0px" y="0px"
	 viewBox="0 0 24 24" style="enable-background:new 0 0 24 24;" xml:space="preserve">
<g>
	<title>messages-people-user-check</title>
	<path d="M11.5,16.5c-0.066,0-0.131-0.013-0.192-0.038C11.121,16.385,11,16.203,11,16v-3H9.5C8.673,13,8,12.327,8,11.5v-10
		C8,0.673,8.673,0,9.5,0h13C23.327,0,24,0.673,24,1.5v10c0,0.827-0.673,1.5-1.5,1.5h-7.293l-3.354,3.354
		C11.759,16.448,11.634,16.5,11.5,16.5z M9.5,1C9.224,1,9,1.224,9,1.5v10C9,11.776,9.224,12,9.5,12h2c0.276,0,0.5,0.224,0.5,0.5
		v2.293l2.646-2.646C14.741,12.052,14.866,12,15,12h7.5c0.276,0,0.5-0.224,0.5-0.5v-10C23,1.224,22.776,1,22.5,1H9.5z"/>
	<path d="M3.5,13c-1.516,0-2.75-1.234-2.75-2.75S1.984,7.5,3.5,7.5s2.75,1.234,2.75,2.75S5.016,13,3.5,13z M3.5,8.5
		c-0.965,0-1.75,0.785-1.75,1.75S2.535,12,3.5,12s1.75-0.785,1.75-1.75S4.465,8.5,3.5,8.5z"/>
	<path d="M2.5,24c-0.258,0-0.472-0.194-0.498-0.45L1.548,19H0.5C0.224,19,0,18.776,0,18.5v-2C0,14.57,1.57,13,3.5,13S7,14.57,7,16.5
		v2C7,18.776,6.776,19,6.5,19H5.452l-0.455,4.55C4.972,23.806,4.758,24,4.5,24H2.5z M4.048,23l0.455-4.55
		C4.528,18.194,4.742,18,5,18h1v-1.5C6,15.122,4.879,14,3.5,14S1,15.122,1,16.5V18h1c0.258,0,0.472,0.194,0.498,0.45L2.952,23H4.048
		z"/>
	<path d="M15.136,9.093c-0.27,0-0.527-0.086-0.742-0.248c-0.045-0.034-0.088-0.071-0.128-0.111l-1.476-1.473
		c-0.095-0.094-0.147-0.22-0.147-0.354c0-0.133,0.052-0.259,0.146-0.354c0.094-0.095,0.22-0.147,0.354-0.147
		s0.259,0.052,0.353,0.146l1.475,1.472c0.007,0.007,0.014,0.014,0.023,0.02c0.043,0.032,0.092,0.049,0.144,0.049
		c0.076,0,0.145-0.034,0.19-0.094L18.178,4.2c0.094-0.125,0.243-0.2,0.4-0.2c0.109,0,0.213,0.035,0.3,0.1
		c0.22,0.165,0.265,0.479,0.1,0.7l-2.852,3.8C15.894,8.909,15.523,9.093,15.136,9.093z"/>
</g>
</svg>
