<?xml version="1.0" encoding="utf-8"?>
<!-- Generator: Adobe Illustrator 22.1.0, SVG Export Plug-In . SVG Version: 6.00 Build 0)  -->
<svg version="1.1" id="Layer_1" xmlns="http://www.w3.org/2000/svg" xmlns:xlink="http://www.w3.org/1999/xlink" x="0px" y="0px"
	 viewBox="0 0 24 24" style="enable-background:new 0 0 24 24;" xml:space="preserve">
<g>
	<title>messages-people-man-bubble</title>
	<path d="M15.955,12.5c-1.216,0-2.357-0.696-2.906-1.773c-0.125-0.246-0.027-0.547,0.218-0.672C13.337,10.019,13.416,10,13.494,10
		c0.189,0,0.359,0.104,0.445,0.273c0.381,0.746,1.163,1.228,1.992,1.228l0.052-0.001c0.845-0.057,1.629-0.53,2.086-1.265
		C18.162,10.088,18.32,10,18.494,10c1.433,0,2.613-0.459,3.413-1.326C22.612,7.909,23,6.854,23,5.702C23,2.615,20.683,1,18.394,1
		l-0.049,0c-1.14,0-2.226,0.486-2.977,1.332C15.273,2.439,15.136,2.5,14.994,2.5c-0.075,0-0.151-0.017-0.219-0.05
		c-0.554-0.271-1.146-0.408-1.759-0.408c-1.534,0-2.958,0.888-3.628,2.262C9.266,4.554,9.17,4.817,9.102,5.085
		C9.045,5.308,8.846,5.463,8.617,5.463c-0.041,0-0.081-0.005-0.121-0.015C8.227,5.38,8.065,5.108,8.132,4.841
		c0.085-0.336,0.205-0.664,0.356-0.975c0.837-1.715,2.614-2.824,4.527-2.824c0.641,0,1.266,0.121,1.86,0.359
		C15.797,0.509,17.047,0,18.333,0L18.4,0C22.036,0,24,2.938,24,5.702c0,1.403-0.482,2.699-1.358,3.65
		c-0.941,1.02-2.28,1.587-3.88,1.644c-0.641,0.871-1.653,1.431-2.734,1.504L15.955,12.5z"/>
	<path d="M15.5,24c-0.276,0-0.5-0.224-0.5-0.5v-2.404c-0.282-0.313-2.234-1.452-5.186-2.632C9.623,18.388,9.5,18.206,9.5,18v-2
		c0-0.212,0.135-0.402,0.335-0.472h0c-0.004,0,0.665-0.349,0.665-2.028c0-0.262,0.202-0.477,0.458-0.498
		c0.062-0.063,0.189-0.312,0.189-0.647c0-0.139-0.025-0.262-0.067-0.329c-0.011-0.018-0.018-0.022-0.018-0.022
		c0,0-0.008-0.004-0.03-0.004c-0.174,0-0.338-0.092-0.428-0.241c-0.09-0.149-0.096-0.337-0.015-0.491
		c0.352-0.671,0.496-1.422,0.418-2.175C10.799,8.375,9.593,8,8.5,8C7.39,8,6.169,8.385,5.985,9.121C5.929,9.344,5.73,9.5,5.5,9.5
		c-0.034,0-0.067-0.003-0.1-0.01C5.28,9.465,5.175,9.453,5.087,9.453c-0.104,0-0.153,0.018-0.163,0.026
		c-0.026,0.039-0.097,0.277,0.384,1.409C5.436,11.189,5.5,11.34,5.5,11.5C5.5,11.776,5.276,12,5,12
		c-0.047,0-0.055,0.009-0.072,0.036c-0.044,0.069-0.071,0.194-0.071,0.335c0,0.325,0.124,0.568,0.185,0.631
		C5.298,13.023,5.5,13.239,5.5,13.5c0,1.693,0.68,2.033,0.687,2.037C6.371,15.61,6.5,15.797,6.5,16v2
		c0,0.205-0.123,0.388-0.314,0.464C3.241,19.642,1.291,20.778,1,21.098V23.5C1,23.776,0.776,24,0.5,24S0,23.776,0,23.5V21
		c0-0.885,2.954-2.29,5.5-3.336v-1.386c-0.384-0.297-0.917-0.97-0.991-2.428c-0.446-0.294-0.651-0.949-0.651-1.479
		c0-0.34,0.079-0.642,0.229-0.876c0.074-0.115,0.165-0.212,0.27-0.29c-0.301-0.712-0.712-1.741-0.2-2.367
		c0.209-0.256,0.522-0.385,0.932-0.385c0.03,0,0.06,0.001,0.091,0.002C5.754,7.385,7.303,7,8.5,7c1.501,0,3.161,0.581,3.485,1.879
		c0.005,0.022,0.009,0.043,0.012,0.066c0.088,0.777-0.014,1.565-0.296,2.291c0.087,0.072,0.163,0.159,0.226,0.258
		c0.144,0.229,0.221,0.527,0.221,0.861c0,0.536-0.207,1.198-0.656,1.495c-0.074,1.458-0.607,2.131-0.991,2.428v1.386
		C13.046,18.71,16,20.115,16,21v2.5C16,23.776,15.776,24,15.5,24z"/>
	<path d="M17,16.5c-0.827,0-1.5-0.673-1.5-1.5s0.673-1.5,1.5-1.5s1.5,0.673,1.5,1.5S17.827,16.5,17,16.5z M17,14.5
		c-0.276,0-0.5,0.224-0.5,0.5s0.224,0.5,0.5,0.5s0.5-0.224,0.5-0.5S17.276,14.5,17,14.5z"/>
	<path d="M13.468,6.748C13.442,6.747,13.421,6.744,13.4,6.74C13.04,6.705,12.75,6.385,12.75,6c0-0.393,0.308-0.72,0.701-0.746
		C13.47,5.251,13.485,5.25,13.5,5.25c0.022,0,0.043,0.002,0.064,0.005c0.017,0,0.019,0.001,0.035,0.005
		C13.96,5.296,14.25,5.615,14.25,6c0,0.414-0.336,0.75-0.75,0.75C13.491,6.75,13.478,6.749,13.468,6.748z"/>
	<path d="M16.5,6.75c-0.414,0-0.75-0.336-0.75-0.75c0-0.405,0.318-0.733,0.723-0.748C16.485,5.25,16.488,5.25,16.5,5.25
		c0.413,0,0.75,0.336,0.75,0.75C17.25,6.414,16.914,6.75,16.5,6.75z"/>
	<path d="M19.499,6.75c-0.199,0-0.386-0.077-0.527-0.217c-0.142-0.141-0.221-0.329-0.221-0.529c0-0.001,0-0.011,0-0.016
		c0.006-0.406,0.338-0.736,0.745-0.738c0,0,0.004,0,0.004,0c0.413,0,0.75,0.336,0.75,0.75c0,0.408-0.329,0.742-0.735,0.75
		c-0.005,0-0.009,0-0.014,0H19.499z"/>
	<path d="M13.5,17.25c-0.414,0-0.75-0.336-0.75-0.75c0-0.391,0.307-0.719,0.698-0.746c0.006-0.001,0.045-0.004,0.052-0.004
		c0.02,0,0.04,0.002,0.06,0.005c0.015,0,0.022,0.002,0.037,0.005c0.362,0.034,0.653,0.354,0.654,0.74
		C14.25,16.914,13.914,17.25,13.5,17.25z"/>
</g>
</svg>
