<?xml version="1.0" encoding="utf-8"?>
<!-- Generator: Adobe Illustrator 22.1.0, SVG Export Plug-In . SVG Version: 6.00 Build 0)  -->
<svg version="1.1" id="Layer_1" xmlns="http://www.w3.org/2000/svg" xmlns:xlink="http://www.w3.org/1999/xlink" x="0px" y="0px"
	 viewBox="0 0 24 24" style="enable-background:new 0 0 24 24;" xml:space="preserve">
<g>
	<title>messages-people-person-bubble-circle</title>
	<path d="M0.499,24c-0.132,0-0.262-0.054-0.355-0.148c-0.095-0.096-0.146-0.223-0.145-0.357c0.014-1.215,0.263-2.396,0.74-3.513
		c0.55-1.103,2.317-1.753,4.763-2.652l0.635-0.234c0.015-0.01,0.081-0.088,0.131-0.295c0.13-0.536,0.008-1.209-0.063-1.323
		c-1.066-1.153-1.601-2.725-1.46-4.305C4.57,9.08,6.123,7.218,8.217,7.016C8.307,7.008,8.396,7.002,8.486,7
		c1.046,0.025,2.007,0.45,2.719,1.197c0.712,0.746,1.09,1.723,1.064,2.751c-0.002,0.075-0.006,0.15-0.012,0.225
		c0.141,1.58-0.394,3.152-1.471,4.318c-0.061,0.101-0.182,0.775-0.052,1.309c0.05,0.207,0.116,0.286,0.135,0.297L11.5,17.33
		c2.445,0.899,4.213,1.549,4.75,2.625c0.487,1.139,0.738,2.325,0.753,3.54c0.001,0.135-0.05,0.262-0.145,0.357
		C16.765,23.946,16.636,24,16.503,24H0.499z M15.982,23c-0.066-0.905-0.28-1.787-0.639-2.626c-0.348-0.694-2.127-1.348-4.188-2.106
		l-0.636-0.234c-0.258-0.095-0.598-0.345-0.756-0.997c-0.173-0.709-0.087-1.81,0.286-2.221c0.897-0.971,1.337-2.28,1.208-3.593
		c-0.003-0.032-0.003-0.065,0-0.097c0.006-0.067,0.01-0.135,0.012-0.202C11.308,9.352,10.064,8.042,8.494,8
		C8.44,8.002,8.376,8.006,8.312,8.012C7.555,8.085,6.87,8.449,6.385,9.038c-0.486,0.589-0.713,1.33-0.64,2.088
		c0.003,0.033,0.003,0.065,0,0.097c-0.129,1.312,0.311,2.621,1.206,3.59c0.376,0.413,0.462,1.515,0.289,2.224
		c-0.159,0.651-0.499,0.901-0.756,0.997l-0.636,0.235c-2.061,0.758-3.841,1.412-4.201,2.133C1.298,21.22,1.086,22.096,1.02,23
		H15.982z"/>
	<path d="M15.499,16.004c-0.066,0-0.131-0.013-0.192-0.038c-0.187-0.077-0.308-0.258-0.308-0.462v-2.649
		c-0.41-0.084-0.814-0.203-1.203-0.355c-0.124-0.049-0.222-0.143-0.276-0.265c-0.054-0.122-0.056-0.258-0.008-0.383
		c0.076-0.193,0.258-0.318,0.466-0.318c0.062,0,0.124,0.012,0.182,0.035c0.454,0.177,0.928,0.302,1.409,0.37
		c0.245,0.035,0.43,0.248,0.43,0.495v1.952c0.487-0.421,1.096-0.94,1.65-1.411c0.644-0.548,1.31-1.114,1.511-1.299
		c0.049-0.046,0.107-0.08,0.171-0.103c2.146-0.762,3.619-2.803,3.668-5.079c-0.127-3.076-2.66-5.498-5.767-5.498
		c-0.071,0-0.143,0.001-0.214,0.004c-0.083-0.002-0.148-0.003-0.214-0.003c-2.919,0-5.349,2.09-5.778,4.97
		c-0.036,0.243-0.25,0.426-0.496,0.426c-0.023,0-0.047-0.002-0.07-0.005c-0.275-0.041-0.463-0.296-0.423-0.568
		c0.495-3.32,3.398-5.823,6.754-5.823c0.074,0,0.149,0.001,0.224,0.004c0.07-0.003,0.157-0.005,0.244-0.005
		c3.63,0,6.591,2.85,6.74,6.488c-0.056,2.673-1.757,5.07-4.237,5.996c-0.265,0.236-0.849,0.733-1.465,1.257l-0.021,0.018
		c-0.956,0.813-2.145,1.825-2.424,2.104C15.758,15.952,15.633,16.004,15.499,16.004z"/>
	<path d="M14.252,7.25c-0.415,0-0.753-0.336-0.753-0.75c0-0.413,0.336-0.749,0.749-0.75c0.201,0,0.389,0.077,0.53,0.217
		c0.142,0.141,0.221,0.329,0.221,0.529C15.001,6.91,14.666,7.248,14.252,7.25C14.253,7.25,14.252,7.25,14.252,7.25z"/>
	<path d="M16.999,7.25c-0.414,0-0.75-0.336-0.75-0.75c0-0.403,0.316-0.731,0.719-0.748c0.012-0.002,0.018-0.002,0.031-0.002
		c0.414,0,0.75,0.336,0.75,0.75S17.413,7.25,16.999,7.25z"/>
	<path d="M19.749,7.25c-0.414,0-0.75-0.336-0.75-0.75s0.336-0.75,0.75-0.75c0.012,0,0.032,0.002,0.044,0.003l0.02,0.002
		c0.379,0.025,0.687,0.353,0.687,0.745C20.499,6.913,20.163,7.25,19.749,7.25z"/>
</g>
</svg>
