<?xml version="1.0" encoding="utf-8"?>
<!-- Generator: Adobe Illustrator 22.1.0, SVG Export Plug-In . SVG Version: 6.00 Build 0)  -->
<svg version="1.1" id="Layer_1" xmlns="http://www.w3.org/2000/svg" xmlns:xlink="http://www.w3.org/1999/xlink" x="0px" y="0px"
	 viewBox="0 0 24 24" style="enable-background:new 0 0 24 24;" xml:space="preserve">
<g>
	<title>messages-people-user-bubble-circle</title>
	<path d="M15.5,16.5c-0.066,0-0.131-0.013-0.192-0.038C15.121,16.385,15,16.203,15,16v-3.056C10.993,12.539,8,9.801,8,6.5
		C8,2.916,11.589,0,16,0c4.411,0,8,2.916,8,6.5c0,0.005,0,0.022-0.001,0.027c-0.125,2.411-1.634,4.577-3.85,5.531l-4.296,4.296
		C15.759,16.448,15.634,16.5,15.5,16.5z M16,1c-3.86,0-7,2.467-7,5.5c0,2.879,2.867,5.287,6.526,5.482
		C15.792,11.996,16,12.215,16,12.481v2.312l3.511-3.511c0.047-0.047,0.102-0.084,0.163-0.109C21.586,10.386,22.891,8.544,23,6.48
		C22.996,3.465,19.856,1,16,1z"/>
	<path d="M12.501,5c-0.276,0-0.5-0.224-0.5-0.5s0.224-0.5,0.5-0.5h7c0.276,0,0.5,0.224,0.5,0.5S19.777,5,19.501,5H12.501z"/>
	<path d="M12.501,8c-0.276,0-0.5-0.224-0.5-0.5s0.224-0.5,0.5-0.5h5c0.276,0,0.5,0.224,0.5,0.5S17.777,8,17.501,8H12.501z"/>
	<path d="M3.5,13c-1.516,0-2.75-1.234-2.75-2.75S1.984,7.5,3.5,7.5s2.75,1.234,2.75,2.75S5.016,13,3.5,13z M3.5,8.5
		c-0.965,0-1.75,0.785-1.75,1.75S2.535,12,3.5,12s1.75-0.785,1.75-1.75S4.465,8.5,3.5,8.5z"/>
	<path d="M2.5,24c-0.258,0-0.472-0.194-0.498-0.45L1.548,19H0.5C0.224,19,0,18.776,0,18.5v-2C0,14.57,1.57,13,3.5,13S7,14.57,7,16.5
		v2C7,18.776,6.776,19,6.5,19H5.452l-0.455,4.55C4.972,23.806,4.758,24,4.5,24H2.5z M4.048,23l0.455-4.55
		C4.528,18.194,4.742,18,5,18h1v-1.5C6,15.122,4.879,14,3.5,14S1,15.122,1,16.5V18h1c0.258,0,0.472,0.194,0.498,0.45L2.952,23H4.048
		z"/>
</g>
</svg>
