<?xml version="1.0" encoding="utf-8"?>
<!-- Generator: Adobe Illustrator 22.1.0, SVG Export Plug-In . SVG Version: 6.00 Build 0)  -->
<svg version="1.1" id="Layer_1" xmlns="http://www.w3.org/2000/svg" xmlns:xlink="http://www.w3.org/1999/xlink" x="0px" y="0px"
	 viewBox="0 0 24 24" style="enable-background:new 0 0 24 24;" xml:space="preserve">
<g>
	<title>messages-people-person-bubble-oval</title>
	<path d="M14.5,12c-0.075,0-0.147-0.016-0.216-0.049C14.111,11.868,14,11.691,14,11.5V10h-0.5C13.224,10,13,9.776,13,9.5
		S13.224,9,13.5,9h1C14.776,9,15,9.224,15,9.5v0.96l1.688-1.35C16.776,9.039,16.887,9,17,9h2c2.206,0,4-1.794,4-4s-1.794-4-4-4h-6
		c-2.206,0-4,1.794-4,4c0,0.276-0.224,0.5-0.5,0.5S8,5.276,8,5c0-2.757,2.243-5,5-5h6c2.757,0,5,2.243,5,5s-2.243,5-5,5h-1.825
		l-2.363,1.89C14.724,11.961,14.613,12,14.5,12z"/>
	<path d="M0.5,24c-0.132,0-0.262-0.054-0.355-0.148C0.05,23.755-0.002,23.629,0,23.494c0.014-1.215,0.263-2.396,0.74-3.513
		c0.55-1.103,2.317-1.753,4.763-2.652l0.635-0.234c0.015-0.01,0.081-0.088,0.131-0.296c0.13-0.535,0.008-1.209-0.063-1.322
		c-1.066-1.153-1.601-2.725-1.46-4.305c-0.084-1.007,0.223-1.991,0.867-2.772c0.655-0.794,1.58-1.286,2.605-1.385
		C8.308,7.008,8.397,7.003,8.487,7c1.046,0.025,2.007,0.45,2.719,1.196c0.712,0.746,1.09,1.723,1.064,2.751
		c-0.002,0.075-0.006,0.15-0.012,0.225c0.141,1.58-0.394,3.152-1.471,4.318c-0.061,0.101-0.182,0.775-0.052,1.309
		c0.051,0.207,0.116,0.286,0.135,0.298l0.63,0.232c2.445,0.899,4.213,1.549,4.75,2.625c0.487,1.139,0.738,2.325,0.753,3.54
		c0.001,0.135-0.05,0.262-0.145,0.357C16.766,23.946,16.636,24,16.504,24H0.5z M15.983,23c-0.066-0.905-0.28-1.787-0.639-2.626
		c-0.348-0.694-2.127-1.348-4.188-2.106l-0.636-0.234c-0.258-0.096-0.598-0.346-0.756-0.997c-0.173-0.709-0.087-1.81,0.286-2.221
		c0.897-0.971,1.337-2.28,1.208-3.593c-0.003-0.033-0.003-0.065,0-0.098c0.006-0.067,0.01-0.134,0.012-0.202
		C11.309,9.353,10.065,8.043,8.495,8C8.441,8.002,8.377,8.006,8.313,8.012C7.554,8.085,6.869,8.449,6.384,9.037
		s-0.712,1.33-0.639,2.089c0.003,0.033,0.003,0.065,0,0.097c-0.129,1.312,0.311,2.621,1.206,3.59
		c0.375,0.413,0.462,1.514,0.289,2.224c-0.158,0.651-0.498,0.901-0.755,0.997l-0.637,0.235c-2.061,0.758-3.841,1.412-4.201,2.133
		C1.299,21.22,1.087,22.096,1.021,23H15.983z"/>
	<path d="M19,5.75c-0.414,0-0.75-0.336-0.75-0.75c0-0.394,0.309-0.722,0.704-0.746C18.97,4.251,18.985,4.25,19,4.25
		c0.414,0,0.75,0.336,0.75,0.75S19.414,5.75,19,5.75z"/>
	<path d="M16,5.75c-0.414,0-0.75-0.336-0.75-0.75c0-0.384,0.288-0.702,0.671-0.743c0.01-0.001,0.02-0.002,0.03-0.002
		C15.956,4.252,15.978,4.25,16,4.25c0.414,0,0.75,0.336,0.75,0.75S16.414,5.75,16,5.75z"/>
	<path d="M13,5.75c-0.414,0-0.75-0.336-0.75-0.75c0-0.406,0.319-0.735,0.725-0.748c0.001,0,0.002,0,0.004,0
		c0.437,0,0.771,0.336,0.771,0.748C13.75,5.414,13.414,5.75,13,5.75z"/>
</g>
</svg>
