<?xml version="1.0" encoding="utf-8"?>
<!-- Generator: Adobe Illustrator 22.1.0, SVG Export Plug-In . SVG Version: 6.00 Build 0)  -->
<svg version="1.1" id="Layer_1" xmlns="http://www.w3.org/2000/svg" xmlns:xlink="http://www.w3.org/1999/xlink" x="0px" y="0px"
	 viewBox="0 0 24 24" style="enable-background:new 0 0 24 24;" xml:space="preserve">
<g>
	<title>messages-people-woman-bubble-oval</title>
	<path d="M15.5,12c-0.075,0-0.147-0.016-0.216-0.049C15.111,11.868,15,11.691,15,11.5V10c-0.276,0-0.5-0.224-0.5-0.5S14.724,9,15,9
		h0.5C15.776,9,16,9.224,16,9.5v0.96l1.688-1.35C17.776,9.039,17.887,9,18,9h1c2.206,0,4-1.794,4-4s-1.794-4-4-4h-6
		c-1.067,0-2.069,0.416-2.823,1.171C9.423,2.926,9.007,3.929,9.008,4.996c0,0.137-0.111,0.249-0.248,0.25
		c0,0-0.501,0.004-0.502,0.004c-0.066,0-0.129-0.026-0.176-0.073C8.035,5.131,8.008,5.067,8.008,5
		C8.007,3.664,8.526,2.408,9.469,1.464S11.666,0.001,13,0h6c2.757,0,5,2.243,5,5s-2.243,5-5,5h-0.825l-2.363,1.89
		C15.724,11.961,15.613,12,15.5,12z"/>
	<path d="M0.5,24c-0.135,0-0.267-0.056-0.361-0.154c-0.094-0.098-0.145-0.232-0.139-0.367c0.045-1.074,0.312-2.107,0.791-3.07
		c0.601-1.202,2.167-1.961,5.035-3.023C5.929,17.349,5.998,17.255,6,17.15l0-0.145c-0.054,0.001-0.107,0.002-0.161,0.002
		c-1.337,0-2.606-0.426-3.668-1.232c-0.115-0.087-0.187-0.22-0.197-0.364c-0.01-0.144,0.043-0.286,0.145-0.388l0.032-0.032
		c0.561-0.562,0.9-0.901,1.05-3.111c0.118-1.779,0.767-3.22,1.875-4.166C5.993,6.931,7.209,6.5,8.5,6.5s2.507,0.431,3.424,1.214
		c1.109,0.947,1.758,2.388,1.879,4.169c0.151,2.213,0.49,2.552,1.052,3.113l0.031,0.031c0.102,0.101,0.155,0.243,0.145,0.386
		c-0.01,0.144-0.081,0.277-0.196,0.364c-1.065,0.81-2.332,1.237-3.664,1.237c-0.056,0-0.113-0.001-0.169-0.003v0.15
		c0.002,0.094,0.072,0.187,0.169,0.222c2.872,1.064,4.438,1.823,5.039,3.024c0.48,0.963,0.746,1.996,0.791,3.071
		c0.006,0.135-0.045,0.269-0.138,0.367C16.767,23.944,16.636,24,16.5,24H0.5z M15.958,23c-0.09-0.746-0.307-1.466-0.645-2.145
		c-0.446-0.892-1.982-1.604-4.486-2.531c-0.482-0.174-0.815-0.636-0.827-1.15l0-1.362c0.011-0.36,0.168-0.693,0.429-0.921
		c0.397-0.336,0.61-0.842,0.572-1.354L11,11.905c-0.948-0.238-1.804-0.719-2.5-1.404c-0.696,0.684-1.552,1.165-2.5,1.404V13.5
		c-0.038,0.542,0.174,1.053,0.566,1.385C6.832,15.119,6.989,15.45,7,15.796l0,1.366c-0.012,0.524-0.346,0.99-0.831,1.164
		c-2.5,0.926-4.036,1.637-4.483,2.53C1.349,21.533,1.132,22.254,1.042,23H15.958z M11,16.008c0.058,0.002,0.117,0.003,0.175,0.003
		c0.918,0,1.807-0.246,2.587-0.713c-0.461-0.541-0.816-1.283-0.957-3.346C12.66,9.799,11.452,7.5,8.5,7.5
		c-2.953,0-4.158,2.297-4.301,4.447c-0.14,2.063-0.495,2.805-0.957,3.347c0.783,0.468,1.676,0.715,2.599,0.715
		c0.053,0,0.106-0.001,0.159-0.002v-0.194c-0.002-0.056-0.035-0.124-0.087-0.169c-0.63-0.533-0.973-1.349-0.912-2.179L5,11.5
		c0-0.244,0.175-0.452,0.415-0.493c1.057-0.181,2.016-0.736,2.699-1.563C8.208,9.332,8.348,9.267,8.5,9.267s0.292,0.065,0.385,0.177
		c0.683,0.827,1.642,1.381,2.699,1.563C11.825,11.049,12,11.256,12,11.5v2c0.06,0.8-0.283,1.61-0.919,2.148
		c-0.048,0.042-0.079,0.11-0.082,0.18V16.008z"/>
	<path d="M13.247,5.741c-0.2,0-0.388-0.077-0.529-0.217c-0.142-0.141-0.22-0.328-0.221-0.529c-0.001-0.201,0.076-0.39,0.217-0.532
		c0.14-0.142,0.328-0.221,0.528-0.222c0,0,0,0,0,0c0.012,0,0.039,0.002,0.05,0.004c0.393,0.022,0.704,0.35,0.704,0.746
		c0.001,0.199-0.077,0.387-0.218,0.529S13.45,5.74,13.25,5.741c0,0-0.001,0-0.001,0H13.247z"/>
	<path d="M16.001,5.741c-0.2,0-0.388-0.077-0.529-0.217c-0.142-0.141-0.221-0.329-0.221-0.529c0-0.372,0.273-0.688,0.639-0.743
		c0.008-0.002,0.016-0.004,0.022-0.004c0.011-0.002,0.026-0.003,0.038-0.003C15.961,4.243,15.98,4.241,16,4.241
		c0.021,0,0.04,0.002,0.059,0.004c0,0,0.014,0.001,0.021,0.002c0.173,0.018,0.328,0.091,0.449,0.211
		c0.142,0.141,0.221,0.329,0.222,0.529c0.001,0.414-0.333,0.752-0.746,0.754c0,0-0.001,0-0.001,0H16.001z"/>
	<path d="M18.746,5.741c-0.2,0-0.388-0.077-0.529-0.217c-0.142-0.141-0.22-0.328-0.221-0.529c0-0.416,0.336-0.754,0.75-0.754
		s0.75,0.336,0.75,0.75c0.001,0.412-0.333,0.749-0.746,0.75c0,0-0.001,0-0.001,0H18.746z"/>
</g>
</svg>
