<svg xmlns="http://www.w3.org/2000/svg" viewBox="0 0 24 24"><title>vide-document-mp4</title><path d="M12.006,9.625h-.625a.25.25,0,0,0-.25.25v1.25a.25.25,0,0,0,.25.25h.625a.875.875,0,0,0,0-1.75Z"/><path d="M17.718,10.273a4.908,4.908,0,0,0-1.353,1.946.115.115,0,0,0,.116.156h1.138a.25.25,0,0,0,.25-.25V10.341C17.869,10.22,17.768,10.23,17.718,10.273Z"/><path d="M22.5,4.5H1.5A1.5,1.5,0,0,0,0,6V18a1.5,1.5,0,0,0,1.5,1.5h21A1.5,1.5,0,0,0,24,18V6A1.5,1.5,0,0,0,22.5,4.5ZM9.131,15a.625.625,0,0,1-1.25,0V11.87c0-.07-.084-.055-.111,0l-.2.409a.649.649,0,0,1-1.117,0s-.183-.356-.205-.409-.112-.052-.112,0V15a.625.625,0,0,1-1.25,0V9a.625.625,0,0,1,1.184-.279s.757,1.521.8,1.609a.167.167,0,0,0,.273,0c.05-.1.805-1.609.805-1.609A.624.624,0,0,1,9.131,9Zm2.75-2.375h-.5a.25.25,0,0,0-.25.25V15a.625.625,0,0,1-1.25,0V9a.625.625,0,0,1,.625-.625h1.5a2.127,2.127,0,0,1,2.114,2.347A2.212,2.212,0,0,1,11.881,12.625ZM19.119,13v2a.625.625,0,0,1-1.25,0V13.873a.248.248,0,0,0-.249-.248H15.506a.626.626,0,0,1-.616-.731,6.146,6.146,0,0,1,3.327-4.445.625.625,0,0,1,.9.561Z"/></svg>