<svg xmlns="http://www.w3.org/2000/svg" viewBox="0 0 24 24"><title>vide-document-flv</title><path d="M22.5,4.5H1.5A1.5,1.5,0,0,0,0,6V18a1.5,1.5,0,0,0,1.5,1.5h21A1.5,1.5,0,0,0,24,18V6A1.5,1.5,0,0,0,22.5,4.5ZM8.5,9.625h-2A.375.375,0,0,0,6.125,10v1.125a.25.25,0,0,0,.25.25H7.5a.625.625,0,0,1,0,1.25H6.375a.25.25,0,0,0-.25.25V15a.625.625,0,0,1-1.25,0V10A1.626,1.626,0,0,1,6.5,8.375h2a.625.625,0,0,1,0,1.25Zm5,6h-2A1.627,1.627,0,0,1,9.875,14V9a.625.625,0,0,1,1.25,0v5a.375.375,0,0,0,.375.375h2a.625.625,0,0,1,0,1.25ZM19.125,10.5A8.176,8.176,0,0,1,17.5,15.375a.625.625,0,0,1-1,0A8.176,8.176,0,0,1,14.875,10.5V9a.625.625,0,0,1,1.25,0v1.5a6.917,6.917,0,0,0,.738,3.1c.044.087.237.074.284-.02a6.923,6.923,0,0,0,.728-3.076V9a.625.625,0,0,1,1.25,0Z"/></svg>