<svg xmlns="http://www.w3.org/2000/svg" viewBox="0 0 24 24"><title>video-file-warning</title><path d="M13.254,13.891,19.1,10.655a.735.735,0,0,0,0-1.31L13.254,6.109a.888.888,0,0,0-.835-.01.758.758,0,0,0-.42.665v6.472a.758.758,0,0,0,.42.665A.891.891,0,0,0,13.254,13.891Z"/><path d="M23.414,3,21,.585A2,2,0,0,0,19.585,0H8A2,2,0,0,0,6,2V9.819a.247.247,0,0,0,.234.249,7.423,7.423,0,0,1,1.443.215A.248.248,0,0,0,8,10.046V2.5A.5.5,0,0,1,8.5,2H19.378a.5.5,0,0,1,.354.146l2.121,2.122A.5.5,0,0,1,22,4.621V18a.5.5,0,0,1-.5.5H13.157a.25.25,0,0,0-.222.366l.787,1.5a.25.25,0,0,0,.221.134H22a2,2,0,0,0,2-2V4.414A2,2,0,0,0,23.414,3Z"/><path d="M7.78,12.271a1.449,1.449,0,0,0-2.561,0L.164,21.9a1.428,1.428,0,0,0,.047,1.409A1.457,1.457,0,0,0,1.444,24H11.555a1.458,1.458,0,0,0,1.233-.686,1.428,1.428,0,0,0,.047-1.409ZM5.749,16a.75.75,0,0,1,1.5,0v2.5a.75.75,0,0,1-1.5,0Zm.75,6.25a1,1,0,1,1,1-1A1,1,0,0,1,6.5,22.25Z"/></svg>