<svg xmlns="http://www.w3.org/2000/svg" viewBox="0 0 24 24"><title>video-file-disable</title><path d="M23.415,3,21,.586A2,2,0,0,0,19.585,0H8A2,2,0,0,0,6,2V9.275a.247.247,0,0,0,.242.25c.366.006,1.037.034,1.485.083A.246.246,0,0,0,8,9.36V2.5A.5.5,0,0,1,8.5,2H19.379a.5.5,0,0,1,.353.146l2.122,2.122A.5.5,0,0,1,22,4.621V18a.5.5,0,0,1-.5.5H14.642a.244.244,0,0,0-.241.21,7.956,7.956,0,0,1-.364,1.458.244.244,0,0,0,.229.331H22a2,2,0,0,0,2-2V4.414A2,2,0,0,0,23.415,3Z"/><path d="M19.5,10a.751.751,0,0,0-.4-.655L13.254,6.109A.886.886,0,0,0,12.42,6.1a.755.755,0,0,0-.42.665V11.6a.241.241,0,0,0,.073.173,8.013,8.013,0,0,1,1.359,1.737.245.245,0,0,0,.331.1L19.1,10.655A.751.751,0,0,0,19.5,10Z"/><path d="M6.5,11A6.5,6.5,0,1,0,13,17.5,6.5,6.5,0,0,0,6.5,11ZM2.533,19.6a4.443,4.443,0,0,1-.367-3.319,4.5,4.5,0,0,1,3.112-3.117,4.447,4.447,0,0,1,3.326.367.253.253,0,0,1,.051.4L2.931,19.654A.252.252,0,0,1,2.533,19.6Zm8.3-.887a4.5,4.5,0,0,1-3.112,3.117A4.447,4.447,0,0,1,4.4,21.466a.253.253,0,0,1-.051-.4l5.724-5.722a.252.252,0,0,1,.4.051A4.443,4.443,0,0,1,10.834,18.716Z"/></svg>