<svg xmlns="http://www.w3.org/2000/svg" viewBox="0 0 24 24"><title>video-file-mpg-1</title><path d="M23.707,5.707,18.293.293A1,1,0,0,0,17.586,0H6A2,2,0,0,0,4,2V7.75A.25.25,0,0,0,4.25,8h1.5A.25.25,0,0,0,6,7.75V2.5A.5.5,0,0,1,6.5,2H16.75a.25.25,0,0,1,.25.25V5a2,2,0,0,0,2,2h2.75a.25.25,0,0,1,.25.25V21.5a.5.5,0,0,1-.5.5H6.25A.25.25,0,0,1,6,21.75v-.5A.25.25,0,0,0,5.75,21H4.25a.25.25,0,0,0-.25.25V22a2,2,0,0,0,2,2H22a2,2,0,0,0,2-2V6.414A1,1,0,0,0,23.707,5.707Z"/><path d="M18,19V10a1,1,0,0,0-1-1H1a1,1,0,0,0-1,1v9a1,1,0,0,0,1,1H17A1,1,0,0,0,18,19ZM6.125,17.5a.625.625,0,0,1-1.25,0V14.523c0-.128-.144-.089-.188,0l-.128.256a.65.65,0,0,1-1.118,0S3.346,14.6,3.3,14.5s-.177-.118-.177,0v3a.625.625,0,0,1-1.25,0v-6a.625.625,0,0,1,1.184-.279s.722,1.441.785,1.569a.175.175,0,0,0,.314,0l.783-1.566a.625.625,0,0,1,1.184.279Zm2.75-2.375h-.5a.25.25,0,0,0-.25.25V17.5a.625.625,0,0,1-1.25,0v-6a.625.625,0,0,1,.625-.625H9a2.128,2.128,0,0,1,2.114,2.347A2.213,2.213,0,0,1,8.875,15.125Zm7.25-1.625a.625.625,0,0,1-1.25,0V13a.875.875,0,0,0-1.75,0v3a.875.875,0,0,0,1.694.308c.022-.059.048-.183-.053-.183H14.5a.625.625,0,0,1,0-1.25h1a.625.625,0,0,1,.625.625V16a2.125,2.125,0,0,1-4.25,0V13a2.125,2.125,0,0,1,4.25,0Z"/><path d="M9,12.125H8.375a.25.25,0,0,0-.25.25v1.25a.25.25,0,0,0,.25.25H9a.875.875,0,0,0,0-1.75Z"/></svg>