<svg xmlns="http://www.w3.org/2000/svg" viewBox="0 0 24 24"><title>video-file-upload</title><path d="M6.5,11A6.5,6.5,0,1,0,13,17.5,6.508,6.508,0,0,0,6.5,11Zm2.45,6.217a.5.5,0,0,1-.45.283H7.624a.125.125,0,0,0-.124.121V20.5a1,1,0,0,1-2,0V17.625a.127.127,0,0,0-.124-.125H4.5a.5.5,0,0,1-.391-.812l2-2.5a.517.517,0,0,1,.782,0l2,2.5A.5.5,0,0,1,8.95,17.217Z"/><path d="M23.415,3,21,.586A2,2,0,0,0,19.585,0H8A2,2,0,0,0,6,2V9.275a.247.247,0,0,0,.242.25c.366.006,1.037.034,1.485.083A.246.246,0,0,0,8,9.36V2.5A.5.5,0,0,1,8.5,2H19.379a.5.5,0,0,1,.353.146l2.122,2.122A.5.5,0,0,1,22,4.621V18a.5.5,0,0,1-.5.5H14.642a.244.244,0,0,0-.241.21,7.956,7.956,0,0,1-.364,1.458.244.244,0,0,0,.229.331H22a2,2,0,0,0,2-2V4.414A2,2,0,0,0,23.415,3Z"/><path d="M19.5,10a.751.751,0,0,0-.4-.655L13.254,6.109A.886.886,0,0,0,12.42,6.1a.755.755,0,0,0-.42.665V11.6a.241.241,0,0,0,.073.173,8.013,8.013,0,0,1,1.359,1.737.245.245,0,0,0,.331.1L19.1,10.655A.751.751,0,0,0,19.5,10Z"/></svg>