<svg xmlns="http://www.w3.org/2000/svg" viewBox="0 0 24 24"><title>video-file-check</title><path d="M23.415,3,21,.586A2,2,0,0,0,19.585,0H8A2,2,0,0,0,6,2V9.275a.247.247,0,0,0,.242.25c.366.006,1.037.034,1.485.083A.246.246,0,0,0,8,9.36V2.5A.5.5,0,0,1,8.5,2H19.379a.5.5,0,0,1,.353.146l2.122,2.122A.5.5,0,0,1,22,4.621V18a.5.5,0,0,1-.5.5H14.642a.244.244,0,0,0-.241.21,7.956,7.956,0,0,1-.364,1.458.244.244,0,0,0,.229.331H22a2,2,0,0,0,2-2V4.414A2,2,0,0,0,23.415,3Z"/><path d="M19.5,10a.751.751,0,0,0-.4-.655L13.254,6.109A.886.886,0,0,0,12.42,6.1a.755.755,0,0,0-.42.665V11.6a.241.241,0,0,0,.073.173,8.013,8.013,0,0,1,1.359,1.737.245.245,0,0,0,.331.1L19.1,10.655A.751.751,0,0,0,19.5,10Z"/><path d="M6.5,11A6.5,6.5,0,1,0,13,17.5,6.508,6.508,0,0,0,6.5,11Zm3.273,5.2-2.9,3.874a1.491,1.491,0,0,1-1.1.6c-.036,0-.072,0-.108,0a1.5,1.5,0,0,1-1.058-.442l-1.5-1.5a.75.75,0,0,1,1.061-1.06l1.3,1.3a.25.25,0,0,0,.377-.027l2.732-3.643a.75.75,0,1,1,1.2.9Z"/></svg>