<svg xmlns="http://www.w3.org/2000/svg" viewBox="0 0 24 24"><title>share-3</title><path d="M12.76,10.249a2.642,2.642,0,0,0-2.51,1.833,2,2,0,0,1-3.586.5,7.245,7.245,0,0,1-.988-5.526.251.251,0,0,0-.244-.305H2a2,2,0,0,0-2,2v13a2,2,0,0,0,2,2H15a2,2,0,0,0,2-2V10.5a.25.25,0,0,0-.25-.25Z"/><path d="M19.372.415A.5.5,0,0,0,18.5.749V2.5a.25.25,0,0,1-.25.25H12.88A5.882,5.882,0,0,0,7,8.619a5.738,5.738,0,0,0,.921,3.143.5.5,0,0,0,.9-.125A4.154,4.154,0,0,1,12.76,8.749h5.49A.25.25,0,0,1,18.5,9v1.75a.5.5,0,0,0,.872.335l4.5-5a.5.5,0,0,0,0-.669Z"/></svg>