<svg xmlns="http://www.w3.org/2000/svg" viewBox="0 0 24 24"><title>share-3-alternate</title><path d="M15.25,10.249a.25.25,0,0,0-.25.25v11.25H2v-13H5.253A.25.25,0,0,0,5.5,8.5a6.929,6.929,0,0,1,.173-1.447.251.251,0,0,0-.244-.305H2a2,2,0,0,0-2,2v13a2,2,0,0,0,2,2H15a2,2,0,0,0,2-2V10.5a.25.25,0,0,0-.25-.25Z"/><path d="M19.372.415A.5.5,0,0,0,18.5.749V2.5a.249.249,0,0,1-.25.25H12.88A5.882,5.882,0,0,0,7,8.62a5.737,5.737,0,0,0,.921,3.142.5.5,0,0,0,.9-.124A4.154,4.154,0,0,1,12.76,8.749h5.49A.25.25,0,0,1,18.5,9v1.75a.5.5,0,0,0,.872.335l4.5-5a.5.5,0,0,0,0-.669Z"/></svg>