<svg xmlns="http://www.w3.org/2000/svg" viewBox="0 0 24 24"><title>share-1-alternate</title><path d="M20.5,9a2,2,0,0,0-2-2h-3.25a.25.25,0,0,0-.25.25v1.5a.25.25,0,0,0,.25.25H18a.5.5,0,0,1,.5.5v12a.5.5,0,0,1-.5.5H6a.5.5,0,0,1-.5-.5V9.5A.5.5,0,0,1,6,9h2.75A.25.25,0,0,0,9,8.749v-1.5A.25.25,0,0,0,8.748,7H5.5a2,2,0,0,0-2,2V22a2,2,0,0,0,2,2h13a2,2,0,0,0,2-2Z"/><path d="M10.5,11a1.5,1.5,0,0,0,3,0V5.749a.25.25,0,0,1,.25-.25H15.5A1,1,0,0,0,16.2,3.792l-3.5-3.5a1,1,0,0,0-1.414,0l-3.5,3.5A1,1,0,0,0,8.5,5.5h1.75a.25.25,0,0,1,.25.25Z"/></svg>