<?xml version="1.0" encoding="utf-8"?>
<!-- Generator: Adobe Illustrator 22.1.0, SVG Export Plug-In . SVG Version: 6.00 Build 0)  -->
<svg version="1.1" id="Layer_1" xmlns="http://www.w3.org/2000/svg" xmlns:xlink="http://www.w3.org/1999/xlink" x="0px" y="0px"
	 viewBox="0 0 24 24" style="enable-background:new 0 0 24 24;" xml:space="preserve">
<g>
	<title>common-file-search</title>
	<path d="M23.5,24c-0.134,0-0.259-0.052-0.354-0.146l-2.938-2.938c-0.9,0.738-2.02,1.142-3.18,1.142
		c-2.773,0-5.029-2.256-5.029-5.029S14.256,12,17.029,12s5.029,2.256,5.029,5.029c0,1.16-0.404,2.28-1.142,3.18l2.938,2.938
		C23.948,23.241,24,23.366,24,23.5s-0.052,0.259-0.146,0.354S23.634,24,23.5,24z M17.029,13C14.807,13,13,14.807,13,17.029
		s1.807,4.029,4.029,4.029s4.029-1.807,4.029-4.029S19.251,13,17.029,13z"/>
	<path d="M1.5,24C0.673,24,0,23.327,0,22.5v-21C0,0.673,0.673,0,1.5,0h13.293c0.401,0,0.777,0.156,1.061,0.439l3.707,3.707
		C19.844,4.43,20,4.807,20,5.207V9.5c0,0.276-0.224,0.5-0.5,0.5S19,9.776,19,9.5V5.207c0-0.133-0.052-0.259-0.146-0.354
		l-3.707-3.707C15.053,1.053,14.925,1,14.793,1H1.5C1.224,1,1,1.224,1,1.5v21C1,22.776,1.224,23,1.5,23h10
		c0.276,0,0.5,0.224,0.5,0.5S11.776,24,11.5,24H1.5z"/>
</g>
</svg>
