<?xml version="1.0" encoding="utf-8"?>
<!-- Generator: Adobe Illustrator 22.1.0, SVG Export Plug-In . SVG Version: 6.00 Build 0)  -->
<svg version="1.1" id="Layer_1" xmlns="http://www.w3.org/2000/svg" xmlns:xlink="http://www.w3.org/1999/xlink" x="0px" y="0px"
	 viewBox="0 0 24 24" style="enable-background:new 0 0 24 24;" xml:space="preserve">
<g>
	<title>common-file-horizontal-text</title>
	<path d="M3.5,8C3.224,8,3,7.776,3,7.5S3.224,7,3.5,7h10C13.776,7,14,7.224,14,7.5S13.776,8,13.5,8H3.5z"/>
	<path d="M3.5,11C3.224,11,3,10.776,3,10.5S3.224,10,3.5,10h10c0.276,0,0.5,0.224,0.5,0.5S13.776,11,13.5,11H3.5z"/>
	<path d="M3.5,14C3.224,14,3,13.776,3,13.5S3.224,13,3.5,13h17c0.276,0,0.5,0.224,0.5,0.5S20.776,14,20.5,14H3.5z"/>
	<path d="M3.5,17C3.224,17,3,16.776,3,16.5S3.224,16,3.5,16h17c0.276,0,0.5,0.224,0.5,0.5S20.776,17,20.5,17H3.5z"/>
	<path d="M1.5,21C0.673,21,0,20.327,0,19.5v-15C0,3.673,0.673,3,1.5,3h17.293c0.401,0,0.777,0.156,1.061,0.439l3.707,3.707
		C23.844,7.43,24,7.807,24,8.207V19.5c0,0.827-0.673,1.5-1.5,1.5H1.5z M1.5,4C1.224,4,1,4.224,1,4.5v15C1,19.776,1.224,20,1.5,20h21
		c0.276,0,0.5-0.224,0.5-0.5V8.207c0-0.133-0.052-0.259-0.146-0.354l-3.707-3.707C19.053,4.053,18.925,4,18.793,4H1.5z"/>
</g>
</svg>
