<?xml version="1.0" encoding="utf-8"?>
<!-- Generator: Adobe Illustrator 22.1.0, SVG Export Plug-In . SVG Version: 6.00 Build 0)  -->
<svg version="1.1" id="Layer_1" xmlns="http://www.w3.org/2000/svg" xmlns:xlink="http://www.w3.org/1999/xlink" x="0px" y="0px"
	 viewBox="0 0 24 24" style="enable-background:new 0 0 24 24;" xml:space="preserve">
<g>
	<title>common-file-double-2</title>
	<path d="M2.9,24c-0.772,0-1.4-0.628-1.4-1.4V6.4C1.5,5.628,2.128,5,2.9,5h4.6V1.4C7.5,0.628,8.128,0,8.9,0h9.178
		c0.41,0,0.799,0.164,1.079,0.45l2.923,3.007c0.275,0.283,0.426,0.656,0.425,1.05V17.6c0,0.772-0.628,1.4-1.4,1.4H16.5v3.6
		c0,0.772-0.628,1.4-1.4,1.4H2.9z M2.9,6C2.68,6,2.5,6.179,2.5,6.4v16.2c0,0.22,0.179,0.4,0.4,0.4h12.2c0.22,0,0.4-0.179,0.4-0.4
		V9.506c0-0.133-0.05-0.257-0.141-0.352l-2.922-3.006C12.344,6.054,12.214,6,12.081,6H2.9z M21.105,18c0.221,0,0.4-0.179,0.4-0.4
		V4.506c0-0.133-0.05-0.257-0.141-0.352l-2.922-3.006C18.349,1.054,18.219,1,18.084,1H8.9C8.68,1,8.5,1.179,8.5,1.4V5h3.578
		c0.403,0,0.793,0.164,1.074,0.45l2.923,3.008c0.275,0.283,0.426,0.656,0.425,1.05V18H21.105z"/>
</g>
</svg>
