<?xml version="1.0" encoding="utf-8"?>
<!-- Generator: Adobe Illustrator 22.1.0, SVG Export Plug-In . SVG Version: 6.00 Build 0)  -->
<svg version="1.1" id="Layer_1" xmlns="http://www.w3.org/2000/svg" xmlns:xlink="http://www.w3.org/1999/xlink" x="0px" y="0px"
	 viewBox="0 0 24 24" style="enable-background:new 0 0 24 24;" xml:space="preserve">
<g>
	<title>common-file-give-hand-2</title>
	<path d="M0.5,24C0.224,24,0,23.776,0,23.5v-8C0,15.224,0.224,15,0.5,15S1,15.224,1,15.5V16h5.5c1.738,0,3.216,1.3,3.461,3H13.5
		c1.93,0,3.5,1.57,3.5,3.5c0,0.276-0.224,0.5-0.5,0.5H1v0.5C1,23.776,0.776,24,0.5,24z M15.949,22c-0.235-1.141-1.261-2-2.449-2h-8
		C5.224,20,5,19.776,5,19.5S5.224,19,5.5,19h3.448c-0.235-1.141-1.261-2-2.448-2H1v5H15.949z"/>
	<path d="M19,21c-0.276,0-0.5-0.224-0.5-0.5S18.724,20,19,20h3.5c0.276,0,0.5-0.224,0.5-0.5V4.914c0-0.133-0.052-0.259-0.146-0.353
		l-3.414-3.414C19.346,1.053,19.218,1,19.086,1H8.5C8.224,1,8,1.224,8,1.5v12C8,13.776,7.776,14,7.5,14S7,13.776,7,13.5v-12
		C7,0.673,7.673,0,8.5,0h10.586c0.401,0,0.777,0.156,1.061,0.439l3.414,3.414C23.844,4.137,24,4.513,24,4.914V19.5
		c0,0.827-0.673,1.5-1.5,1.5H19z"/>
</g>
</svg>
