<?xml version="1.0" encoding="utf-8"?>
<!-- Generator: Adobe Illustrator 22.1.0, SVG Export Plug-In . SVG Version: 6.00 Build 0)  -->
<svg version="1.1" id="Layer_1" xmlns="http://www.w3.org/2000/svg" xmlns:xlink="http://www.w3.org/1999/xlink" x="0px" y="0px"
	 viewBox="0 0 24 24" style="enable-background:new 0 0 24 24;" xml:space="preserve">
<g>
	<title>common-file-warning</title>
	<circle cx="17.499" cy="20.75" r="0.75"/>
	<path d="M17.499,19c-0.276,0-0.5-0.224-0.5-0.5v-3c0-0.276,0.224-0.5,0.5-0.5s0.5,0.224,0.5,0.5v3
		C17.999,18.776,17.775,19,17.499,19z"/>
	<path d="M12.443,23.997c-0.506,0-0.966-0.256-1.232-0.684c-0.263-0.427-0.282-0.968-0.049-1.411l5.056-9.635
		c0.137-0.257,0.344-0.464,0.598-0.599c0.21-0.112,0.445-0.172,0.681-0.172c0.143,0,0.285,0.021,0.423,0.063
		c0.368,0.112,0.671,0.359,0.854,0.698c0.003,0.005,5.062,9.645,5.062,9.645c0.233,0.443,0.214,0.982-0.048,1.409
		c-0.267,0.43-0.727,0.686-1.231,0.686H12.443z M17.498,12.497c-0.073,0-0.145,0.018-0.211,0.053
		c-0.079,0.042-0.143,0.106-0.186,0.185l-5.054,9.632c-0.069,0.132-0.064,0.293,0.014,0.419c0.082,0.131,0.224,0.21,0.38,0.21
		h10.114c0.157,0,0.3-0.079,0.382-0.212c0.077-0.125,0.083-0.286,0.013-0.417l-5.056-9.635c-0.056-0.104-0.15-0.181-0.265-0.216
		C17.586,12.504,17.542,12.497,17.498,12.497z"/>
	<path d="M1.499,24c-0.827,0-1.5-0.673-1.5-1.5v-21c0-0.827,0.673-1.5,1.5-1.5h13.293c0.401,0,0.777,0.156,1.061,0.439l3.707,3.707
		c0.283,0.283,0.439,0.66,0.439,1.06V8.5c0,0.276-0.224,0.5-0.5,0.5s-0.5-0.224-0.5-0.5V5.207c0-0.134-0.052-0.259-0.146-0.353
		l-3.707-3.707C15.052,1.053,14.923,1,14.792,1H1.499c-0.276,0-0.5,0.224-0.5,0.5v21c0,0.276,0.224,0.5,0.5,0.5h7
		c0.276,0,0.5,0.224,0.5,0.5S8.775,24,8.499,24H1.499z"/>
</g>
</svg>
