<svg xmlns="http://www.w3.org/2000/svg" viewBox="0 0 24 24"><defs><style>.a{fill:none;stroke:currentColor;stroke-linecap:round;stroke-linejoin:round;stroke-width:1.5px;}</style></defs><title>camera-settings-flip</title><path class="a" d="M15.806,1.492A11.155,11.155,0,0,1,12,23.166"/><polyline class="a" points="16.5 3.75 15.806 1.492 18 0.75"/><path class="a" d="M8.194,22.508A11.155,11.155,0,0,1,12,.834"/><polyline class="a" points="7.5 20.25 8.194 22.508 6 23.25"/><path class="a" d="M8.526,7.5,10.1,6h3.775l1.574,1.5h1.57A1.812,1.812,0,0,1,18.75,9.242v5.7A1.654,1.654,0,0,1,17.019,16.5H6.981A1.654,1.654,0,0,1,5.25,14.946v-5.7A1.812,1.812,0,0,1,6.981,7.5H8.526"/><circle class="a" cx="12" cy="12" r="2.25"/></svg>