<svg xmlns="http://www.w3.org/2000/svg" viewBox="0 0 24 24"><defs><style>.a{fill:none;stroke:currentColor;stroke-linecap:round;stroke-linejoin:round;}</style></defs><title>music-genre-star</title><circle class="a" cx="13.5" cy="21.5" r="2"/><circle class="a" cx="21.5" cy="19.5" r="2"/><path class="a" d="M23.5,19.5V12.705a1,1,0,0,0-1.184-.983l-6,1.125a1,1,0,0,0-.816.983V21.5"/><path class="a" d="M13,17.022,9.627,14.643,4.284,18.417a.429.429,0,0,1-.66-.481L5.77,11.643.65,7.254A.429.429,0,0,1,.929,6.5H7.056L9.226.778a.428.428,0,0,1,.8,0L12.2,6.5h6.127a.429.429,0,0,1,.279.754l-5.121,4.389L13.947,13"/></svg>