<svg xmlns="http://www.w3.org/2000/svg" viewBox="0 0 24 24"><defs><style>.a{fill:none;stroke:currentColor;stroke-linecap:round;stroke-linejoin:round;}</style></defs><title>music-genre-90s</title><rect class="a" x="0.5" y="2.5" width="23" height="21" rx="1" ry="1"/><line class="a" x1="5.5" y1="0.5" x2="5.5" y2="5.5"/><line class="a" x1="18.5" y1="0.5" x2="18.5" y2="5.5"/><line class="a" x1="0.5" y1="7.5" x2="23.5" y2="7.5"/><path class="a" d="M20.5,14.5h-1a1,1,0,0,0-1,1c0,1.5,2,1.5,2,3a1,1,0,0,1-1,1h-1"/><circle class="a" cx="7" cy="14" r="2.5"/><path class="a" d="M9.5,14v2.5a3,3,0,0,1-3,3H6"/><path class="a" d="M16.5,17a2.5,2.5,0,0,1-5,0V14a2.5,2.5,0,0,1,5,0Z"/></svg>