<svg xmlns="http://www.w3.org/2000/svg" viewBox="0 0 24 24"><title>like-ribbon-1</title><path d="M23.366,19.766l-3-5.18a.25.25,0,0,0-.439.011,4.663,4.663,0,0,1-4.317,2.548.249.249,0,0,0-.191.078,4.505,4.505,0,0,1-.963.765.251.251,0,0,0-.086.341l2.942,4.978a1,1,0,0,0,1.8-.17l.832-2.288,2.392.405a1,1,0,0,0,1.031-1.488Z"/><path d="M8.583,17.224a.249.249,0,0,0-.191-.078A4.666,4.666,0,0,1,4.074,14.6a.251.251,0,0,0-.216-.136.247.247,0,0,0-.223.125l-3,5.181a1,1,0,0,0,1.032,1.487l2.391-.405.833,2.289a1,1,0,0,0,1.8.167l2.941-4.976a.251.251,0,0,0-.086-.341A4.551,4.551,0,0,1,8.583,17.224Z"/><path d="M14.813,15.5a3.169,3.169,0,0,0,3.978-3.978,3.169,3.169,0,0,0,0-5.625,3.169,3.169,0,0,0-3.978-3.978,3.17,3.17,0,0,0-5.627,0A3.169,3.169,0,0,0,5.208,5.894a3.169,3.169,0,0,0,0,5.625A3.169,3.169,0,0,0,9.187,15.5a3.169,3.169,0,0,0,5.626,0ZM8.985,10.875a.5.5,0,0,1-.485-.5V8.446a.5.5,0,0,1,.5-.5h.183c1.275,0,1.975-1.5,2.709-3.093.241-.523.82-.806.82.287v2.1H14.8a1,1,0,0,1,.916,1.4l-.87,2a1.4,1.4,0,0,1-1.341.813H12.1C10.731,11.456,11.233,10.939,8.985,10.875Z"/></svg>