<svg xmlns="http://www.w3.org/2000/svg" viewBox="0 0 24 24"><title>like-bubble</title><path d="M23.446,10.593,22.2,9.267l.422-1.773a2.075,2.075,0,0,0-1.408-2.437l-1.746-.519-.52-1.746a2.07,2.07,0,0,0-2.437-1.409L14.733,1.8,13.407.553a2.077,2.077,0,0,0-2.814,0L9.267,1.8,7.494,1.383A2.072,2.072,0,0,0,5.057,2.791L4.538,4.536,2.79,5.057A2.076,2.076,0,0,0,1.383,7.494L1.8,9.268.553,10.594a2.08,2.08,0,0,0,0,2.815L1.8,14.734l-.422,1.774a2.077,2.077,0,0,0,1.409,2.437l1.746.52.519,1.744a2.074,2.074,0,0,0,2.437,1.409L9.267,22.2l1.326,1.251a2.08,2.08,0,0,0,2.815,0l1.325-1.25,1.773.421a2.075,2.075,0,0,0,2.436-1.408l.52-1.745,1.747-.52a2.075,2.075,0,0,0,1.408-2.438L22.2,14.733l1.252-1.327A2.078,2.078,0,0,0,23.446,10.593ZM13.9,7.458,13.555,9a.893.893,0,0,0,.863,1.12h2.188a.892.892,0,0,1,.854,1.152l0,0-.9,2.8,0,.007c-.344,1.122-.937,1.887-2.11,1.887-2.723,0-3.124.306-6.142-1.2a.5.5,0,0,1-.277-.448V10.5a.5.5,0,0,1,.5-.5h1.1a.889.889,0,0,0,.729-.378l2.182-2.8a.764.764,0,0,1,1.364.634Z"/></svg>