<svg xmlns="http://www.w3.org/2000/svg" viewBox="0 0 24 24"><title>like-plus</title><path d="M21,.5H3a3,3,0,0,0-3,3v17a3,3,0,0,0,3,3H21a3,3,0,0,0,3-3V3.5A3,3,0,0,0,21,.5ZM2,3.5a1,1,0,0,1,1-1H7.25a.5.5,0,0,1,.5.5V5a.5.5,0,0,1-.5.5H2.5A.5.5,0,0,1,2,5Zm20,0V5a.5.5,0,0,1-.5.5H16.75a.5.5,0,0,1-.5-.5V3a.5.5,0,0,1,.5-.5H21A1,1,0,0,1,22,3.5ZM14.75,5a.5.5,0,0,1-.5.5H9.75a.5.5,0,0,1-.5-.5V3a.5.5,0,0,1,.5-.5h4.5a.5.5,0,0,1,.5.5ZM8.25,16a.5.5,0,0,1-.5-.5v-2a.5.5,0,0,1,.5-.5H10.5a.25.25,0,0,0,.25-.25V10.5a.5.5,0,0,1,.5-.5h2a.5.5,0,0,1,.5.5v2.25A.25.25,0,0,0,14,13h2.25a.5.5,0,0,1,.5.5v2a.5.5,0,0,1-.5.5H14a.25.25,0,0,0-.25.25V18.5a.5.5,0,0,1-.5.5h-2a.5.5,0,0,1-.5-.5V16.25A.25.25,0,0,0,10.5,16Z"/></svg>