<svg xmlns="http://www.w3.org/2000/svg" viewBox="0 0 24 24"><title>like-chat</title><path d="M22.048,1H1.952A1.954,1.954,0,0,0,0,2.952V17.238A1.954,1.954,0,0,0,1.952,19.19H6.667V22a1,1,0,0,0,1.707.707L11.89,19.19H22.048A1.954,1.954,0,0,0,24,17.238V2.952A1.954,1.954,0,0,0,22.048,1ZM22,16.69a.5.5,0,0,1-.5.5H11.476a1,1,0,0,0-.707.293l-2.1,2.1v-1.4a1,1,0,0,0-1-1L2.5,17.234a.5.5,0,0,1-.505-.5L1.954,3.5a.5.5,0,0,1,.5-.5H21.5a.5.5,0,0,1,.5.5Z"/><path d="M6.452,14h1a.458.458,0,0,0,.5-.4V8.4a.458.458,0,0,0-.5-.4h-1a.458.458,0,0,0-.5.4v5.2A.458.458,0,0,0,6.452,14Z"/><path d="M9.246,13.34,11.6,14.407a3.012,3.012,0,0,0,1.2.247h2.677a1.345,1.345,0,0,0,1.277-.921l1.128-3.384A1.347,1.347,0,0,0,17.7,9.135,1.727,1.727,0,0,0,16.452,8.5h-1.5V5.75a1.25,1.25,0,1,0-2.5,0V6c0,1.59-1.43,2.154-2.654,2.154H9.452a.5.5,0,0,0-.5.5v4.231A.5.5,0,0,0,9.246,13.34Z"/></svg>