<svg xmlns="http://www.w3.org/2000/svg" viewBox="0 0 24 24"><title>like-dislike</title><path d="M12,0A12,12,0,1,0,24,12,12.013,12.013,0,0,0,12,0Zm6.769,13.327a1.18,1.18,0,0,1-.949.477H14.927a1.183,1.183,0,0,0-.934.457,1.169,1.169,0,0,0-.206,1.016l.52,1.963a1,1,0,0,1-.192.888,1.014,1.014,0,0,1-1.611-.054L9.62,13.64a1.181,1.181,0,0,0-.964-.5H6.75a.25.25,0,0,1-.25-.25V8.306a.252.252,0,0,1,.136-.223c.189-.1.377-.193.567-.288,4.329-2.188,4.118-1.761,7.824-1.761,1.553,0,2.335,1.006,2.792,2.482l0,.009,1.125,3.755,0,.007A1.169,1.169,0,0,1,18.769,13.327Z"/></svg>