<?xml version="1.0" encoding="utf-8"?>
<!-- Generator: Adobe Illustrator 22.1.0, SVG Export Plug-In . SVG Version: 6.00 Build 0)  -->
<svg version="1.1" id="Layer_1" xmlns="http://www.w3.org/2000/svg" xmlns:xlink="http://www.w3.org/1999/xlink" x="0px" y="0px"
	 viewBox="0 0 24 24" style="enable-background:new 0 0 24 24;" xml:space="preserve">
<g>
	<title>phone-actions-lock-1</title>
	<path d="M12.98,24.02c-1.726,0-3.418-0.343-5.031-1.02c-3.202-1.344-5.689-3.854-7.002-7.069c-1.296-3.171-1.296-6.665,0-9.836
		C1.124,5.662,1.459,5.323,1.89,5.142C2.108,5.05,2.337,5.003,2.571,5.003c0.227,0,0.449,0.044,0.661,0.13
		C3.449,5.222,3.644,5.351,3.81,5.517l3.64,3.64c0.499,0.499,0.774,1.163,0.774,1.87s-0.275,1.37-0.774,1.87l-0.841,0.841
		c-0.948,0.948-1.943,1.428-2.958,1.428c-0.715,0-1.441-0.239-2.167-0.712c0.112,0.372,0.242,0.74,0.389,1.1
		c1.213,2.967,3.508,5.284,6.464,6.525c0.394,0.165,0.797,0.31,1.205,0.433c-1.138-1.753-0.897-3.513,0.715-5.126l0.841-0.841
		c0.499-0.499,1.162-0.773,1.869-0.773c0.707,0,1.371,0.274,1.87,0.773l3.64,3.64c0.331,0.331,0.513,0.772,0.513,1.24
		c0,0.468-0.183,0.908-0.514,1.239c-0.166,0.166-0.361,0.295-0.578,0.383C16.32,23.693,14.665,24.02,12.98,24.02z M11.114,22.872
		c0.617,0.098,1.244,0.148,1.867,0.148c1.553,0,3.081-0.302,4.541-0.899c0.094-0.038,0.177-0.094,0.248-0.165
		c0.143-0.142,0.221-0.332,0.221-0.532c0-0.201-0.078-0.39-0.22-0.532l-3.64-3.64c-0.31-0.31-0.723-0.48-1.163-0.48
		s-0.853,0.171-1.162,0.48l-0.841,0.841C9.417,19.641,9.463,21.161,11.114,22.872z M1.123,12.882
		C2,13.726,2.849,14.154,3.648,14.154c0.76,0,1.497-0.368,2.254-1.125l0.841-0.841c0.31-0.311,0.481-0.723,0.481-1.162
		s-0.171-0.852-0.481-1.162l-3.64-3.64C3.032,6.153,2.948,6.098,2.855,6.06C2.763,6.022,2.668,6.003,2.571,6.003
		c-0.1,0-0.198,0.02-0.292,0.06c-0.185,0.078-0.329,0.224-0.405,0.41C1.04,8.513,0.781,10.727,1.123,12.882z"/>
	<path d="M15.491,13.005c-0.827,0-1.5-0.673-1.5-1.5V5.506c0-0.827,0.673-1.5,1.5-1.5h0.5V3.005c0-1.654,1.346-3,3-3s3,1.346,3,3
		v1.001h0.5c0.827,0,1.5,0.673,1.5,1.5v5.999c0,0.827-0.673,1.5-1.5,1.5H15.491z M15.491,5.006c-0.276,0-0.5,0.224-0.5,0.5v5.999
		c0,0.276,0.224,0.5,0.5,0.5h7c0.276,0,0.5-0.224,0.5-0.5V5.506c0-0.276-0.224-0.5-0.5-0.5H15.491z M20.991,4.005v-1
		c0-1.103-0.897-2-2-2s-2,0.897-2,2v1H20.991z"/>
	<path d="M18.991,10.318c-0.965,0-1.75-0.785-1.75-1.75s0.785-1.75,1.75-1.75s1.75,0.785,1.75,1.75S19.956,10.318,18.991,10.318z
		 M18.991,7.818c-0.414,0-0.75,0.336-0.75,0.75s0.336,0.75,0.75,0.75s0.75-0.336,0.75-0.75S19.405,7.818,18.991,7.818z"/>
</g>
</svg>
