<?xml version="1.0" encoding="utf-8"?>
<!-- Generator: Adobe Illustrator 22.1.0, SVG Export Plug-In . SVG Version: 6.00 Build 0)  -->
<svg version="1.1" id="Layer_1" xmlns="http://www.w3.org/2000/svg" xmlns:xlink="http://www.w3.org/1999/xlink" x="0px" y="0px"
	 viewBox="0 0 24 24" style="enable-background:new 0 0 24 24;" xml:space="preserve">
<g>
	<title>phone-actions-receive</title>
	<path d="M15.657,23.991c-0.689,0-1.356-0.2-1.928-0.578C8.491,19.931,4.07,15.51,0.589,10.272c-0.913-1.38-0.727-3.232,0.441-4.403
		l1.164-1.164c0.473-0.472,1.1-0.733,1.768-0.733c0.668,0,1.296,0.26,1.768,0.733l2.122,2.121c0.474,0.477,0.733,1.103,0.732,1.769
		c0,0.668-0.26,1.296-0.732,1.768c-0.001,0.001-0.386,0.381-0.386,0.381c1.755,2.091,3.702,4.038,5.791,5.791l0.385-0.384
		c0.471-0.471,1.099-0.731,1.768-0.731s1.296,0.26,1.768,0.731l2.122,2.121c0.974,0.975,0.974,2.561,0,3.535l-1.164,1.164
		C17.476,23.628,16.596,23.991,15.657,23.991z M3.962,4.972c-0.401,0-0.777,0.156-1.06,0.439L1.737,6.576
		C0.903,7.412,0.771,8.734,1.422,9.72c3.407,5.125,7.734,9.452,12.86,12.859c0.407,0.27,0.883,0.413,1.375,0.413
		c0.671,0,1.3-0.259,1.77-0.729l1.164-1.164c0.584-0.585,0.584-1.536,0-2.121l-2.122-2.121c-0.283-0.283-0.659-0.438-1.061-0.438
		s-0.778,0.156-1.061,0.438l-0.707,0.707c-0.094,0.094-0.22,0.146-0.354,0.146c-0.115,0-0.228-0.04-0.318-0.114
		c-2.39-1.967-4.6-4.177-6.568-6.568c-0.166-0.201-0.151-0.49,0.035-0.673l0.709-0.701c0.282-0.282,0.438-0.659,0.438-1.059
		c0-0.401-0.156-0.777-0.439-1.061L5.023,5.412C4.739,5.129,4.363,4.972,3.962,4.972L3.962,4.972z"/>
	<path d="M13.504,10.996c-0.134,0-0.259-0.052-0.354-0.146c-0.099-0.098-0.15-0.231-0.144-0.374l0-6.481c0-0.276,0.224-0.5,0.5-0.5
		s0.5,0.224,0.5,0.5v5.292l9.145-9.145c0.094-0.094,0.22-0.146,0.354-0.146s0.259,0.052,0.354,0.146
		c0.195,0.195,0.195,0.512,0,0.707l-9.146,9.146h5.294c0.276,0,0.5,0.224,0.5,0.5s-0.224,0.5-0.5,0.5h-6.48
		C13.519,10.996,13.511,10.996,13.504,10.996z"/>
</g>
</svg>
