<?xml version="1.0" encoding="utf-8"?>
<!-- Generator: Adobe Illustrator 22.1.0, SVG Export Plug-In . SVG Version: 6.00 Build 0)  -->
<svg version="1.1" id="Layer_1" xmlns="http://www.w3.org/2000/svg" xmlns:xlink="http://www.w3.org/1999/xlink" x="0px" y="0px"
	 viewBox="0 0 24 24" style="enable-background:new 0 0 24 24;" xml:space="preserve">
<g>
	<title>phone-actions-clock</title>
	<path d="M15.656,23.99c-0.689,0-1.355-0.2-1.927-0.577c-5.239-3.482-9.66-7.903-13.141-13.14c-0.912-1.38-0.727-3.231,0.44-4.402
		l1.164-1.165c0.472-0.472,1.1-0.731,1.768-0.731c0.669,0,1.296,0.26,1.768,0.731L7.85,6.828c0.974,0.974,0.974,2.559,0.002,3.533
		c-0.004,0.004-0.389,0.384-0.389,0.384c1.755,2.091,3.701,4.037,5.791,5.791l0.385-0.384c0.472-0.472,1.1-0.731,1.768-0.731
		s1.296,0.26,1.768,0.731l2.116,2.113c0.981,0.982,0.981,2.568,0.006,3.542l-1.164,1.163C17.474,23.628,16.594,23.99,15.656,23.99z
		 M3.961,4.974c-0.401,0-0.778,0.156-1.061,0.438L1.737,6.577C0.904,7.413,0.772,8.734,1.423,9.72
		c3.406,5.126,7.733,9.452,12.859,12.859c0.407,0.269,0.882,0.411,1.374,0.411c0.671,0,1.3-0.259,1.77-0.728L18.59,21.1
		c0.583-0.582,0.585-1.532,0.005-2.117l-2.127-2.124c-0.283-0.283-0.66-0.439-1.061-0.439c-0.401,0-0.777,0.156-1.06,0.438
		l-0.708,0.708c-0.094,0.094-0.22,0.146-0.354,0.146c-0.115,0-0.228-0.04-0.318-0.114c-2.391-1.968-4.601-4.177-6.568-6.569
		c-0.165-0.201-0.15-0.49,0.035-0.673l0.71-0.702c0.583-0.584,0.583-1.535-0.001-2.12L5.022,5.413
		C4.739,5.13,4.362,4.974,3.961,4.974z"/>
	<path d="M17.502,12.995c-3.584,0-6.5-2.916-6.5-6.5c0-3.584,2.916-6.5,6.5-6.5s6.5,2.916,6.5,6.5
		C24.002,10.079,21.087,12.995,17.502,12.995z M17.502,0.995c-3.033,0-5.5,2.467-5.5,5.5c0,3.033,2.467,5.5,5.5,5.5
		s5.5-2.467,5.5-5.5C23.002,3.462,20.535,0.995,17.502,0.995z"/>
	<path d="M17.502,6.995c-0.276,0-0.5-0.224-0.5-0.5v-3c0-0.276,0.224-0.5,0.5-0.5s0.5,0.224,0.5,0.5v2.5h1.5
		c0.276,0,0.5,0.224,0.5,0.5s-0.224,0.5-0.5,0.5H17.502z"/>
</g>
</svg>
