<?xml version="1.0" encoding="utf-8"?>
<!-- Generator: Adobe Illustrator 22.1.0, SVG Export Plug-In . SVG Version: 6.00 Build 0)  -->
<svg version="1.1" id="Layer_1" xmlns="http://www.w3.org/2000/svg" xmlns:xlink="http://www.w3.org/1999/xlink" x="0px" y="0px"
	 viewBox="0 0 24 24" style="enable-background:new 0 0 24 24;" xml:space="preserve">
<g>
	<title>phone-actions-wait-1</title>
	<path d="M14.488,3.743c-0.827,0-1.5-0.673-1.5-1.5s0.673-1.5,1.5-1.5s1.5,0.673,1.5,1.5S15.315,3.743,14.488,3.743z M14.488,1.743
		c-0.276,0-0.5,0.224-0.5,0.5s0.224,0.5,0.5,0.5s0.5-0.224,0.5-0.5S14.764,1.743,14.488,1.743z"/>
	<path d="M18.488,3.743c-0.827,0-1.5-0.673-1.5-1.5s0.673-1.5,1.5-1.5s1.5,0.673,1.5,1.5S19.315,3.743,18.488,3.743z M18.488,1.743
		c-0.276,0-0.5,0.224-0.5,0.5s0.224,0.5,0.5,0.5s0.5-0.224,0.5-0.5S18.764,1.743,18.488,1.743z"/>
	<path d="M22.488,3.743c-0.827,0-1.5-0.673-1.5-1.5s0.673-1.5,1.5-1.5s1.5,0.673,1.5,1.5S23.315,3.743,22.488,3.743z M22.488,1.743
		c-0.276,0-0.5,0.224-0.5,0.5s0.224,0.5,0.5,0.5s0.5-0.224,0.5-0.5S22.764,1.743,22.488,1.743z"/>
	<path d="M12.993,22.751c-5.313,0-10.043-3.173-12.049-8.082c-1.296-3.171-1.296-6.665,0-9.836c0.27-0.663,0.908-1.091,1.625-1.091
		c0.226,0,0.448,0.044,0.659,0.13C3.445,3.959,3.64,4.088,3.806,4.254l3.639,3.642C7.944,8.395,8.219,9.058,8.22,9.764
		c0,0.706-0.274,1.37-0.773,1.869l-0.843,0.843c-0.948,0.948-1.943,1.428-2.958,1.428c-0.714,0-1.44-0.239-2.165-0.711
		c0.112,0.371,0.242,0.738,0.388,1.097c1.37,3.352,4.204,5.907,7.664,6.949c-1.132-1.75-0.889-3.508,0.721-5.117l0.841-0.841
		c0.499-0.498,1.163-0.772,1.87-0.772s1.371,0.274,1.87,0.772l3.639,3.641c0.683,0.681,0.685,1.792,0.004,2.476
		c-0.167,0.168-0.364,0.298-0.584,0.387C16.326,22.426,14.677,22.751,12.993,22.751L12.993,22.751z M11.101,21.6
		c0.625,0.1,1.261,0.151,1.892,0.151c1.553,0,3.075-0.3,4.524-0.892c0.096-0.039,0.18-0.095,0.251-0.167
		c0.293-0.294,0.292-0.77-0.001-1.062l-3.64-3.641c-0.31-0.309-0.723-0.48-1.163-0.48s-0.853,0.171-1.163,0.48l-0.841,0.841
		C9.415,18.376,9.459,19.893,11.101,21.6z M1.12,11.621c0.876,0.844,1.724,1.273,2.523,1.273c0.76,0,1.497-0.368,2.254-1.125
		l0.841-0.841c0.31-0.31,0.481-0.724,0.481-1.163c0-0.439-0.171-0.852-0.481-1.162L3.098,4.961C3.027,4.89,2.944,4.835,2.851,4.797
		C2.76,4.76,2.665,4.741,2.568,4.741c-0.308,0-0.583,0.184-0.699,0.469C1.035,7.251,0.776,9.466,1.12,11.621z"/>
</g>
</svg>
