<?xml version="1.0" encoding="utf-8"?>
<!-- Generator: Adobe Illustrator 22.1.0, SVG Export Plug-In . SVG Version: 6.00 Build 0)  -->
<svg version="1.1" id="Layer_1" xmlns="http://www.w3.org/2000/svg" xmlns:xlink="http://www.w3.org/1999/xlink" x="0px" y="0px"
	 viewBox="0 0 24 24" style="enable-background:new 0 0 24 24;" xml:space="preserve">
<g>
	<title>phone-actions-off-1</title>
	<path d="M0.5,24c-0.134,0-0.259-0.052-0.354-0.146c-0.195-0.195-0.195-0.512,0-0.707l23-23C23.241,0.052,23.367,0,23.5,0
		s0.259,0.052,0.354,0.146c0.195,0.195,0.195,0.512,0,0.707l-23,23C0.759,23.948,0.634,24,0.5,24z"/>
	<path d="M6.636,14.5c-0.167,0-0.322-0.083-0.415-0.221c-2.428-3.605-2.9-8.161-1.263-12.187C5.135,1.659,5.47,1.32,5.901,1.138
		C6.119,1.046,6.348,1,6.582,1C6.808,1,7.03,1.044,7.243,1.13C7.46,1.218,7.654,1.347,7.821,1.513l3.64,3.64
		c1.031,1.031,1.031,2.708,0,3.739L10.62,9.734c-0.948,0.948-1.943,1.429-2.958,1.429c-0.712,0-1.435-0.237-2.158-0.706
		c0.347,1.158,0.866,2.254,1.547,3.265c0.154,0.229,0.093,0.54-0.135,0.694C6.832,14.47,6.736,14.5,6.636,14.5z M5.145,8.889
		c0.873,0.838,1.718,1.263,2.513,1.263c0.76,0,1.497-0.368,2.254-1.125l0.841-0.841c0.641-0.641,0.641-1.684,0-2.325l-3.64-3.64
		C7.043,2.15,6.959,2.094,6.866,2.056C6.775,2.019,6.68,2.001,6.583,2.001C6.275,2.001,6,2.185,5.884,2.47
		C5.056,4.506,4.801,6.724,5.145,8.889z"/>
	<path d="M16.998,20.003c-2.599,0-5.116-0.77-7.278-2.226c-0.111-0.074-0.186-0.188-0.211-0.319s0.001-0.264,0.076-0.375
		c0.093-0.138,0.248-0.221,0.415-0.221c0.1,0,0.197,0.03,0.28,0.086c1.01,0.68,2.106,1.199,3.264,1.547
		c-1.13-1.75-0.886-3.506,0.723-5.115l0.841-0.841c0.499-0.499,1.163-0.774,1.87-0.774c0.706,0,1.37,0.275,1.869,0.774l3.64,3.64
		c0.331,0.331,0.512,0.771,0.512,1.24s-0.183,0.909-0.513,1.239c-0.167,0.166-0.361,0.295-0.578,0.384
		C20.339,19.68,18.687,20.003,16.998,20.003L16.998,20.003z M15.11,18.854c0.623,0.099,1.258,0.149,1.888,0.149
		c1.559,0,3.084-0.298,4.533-0.887c0.093-0.038,0.177-0.093,0.248-0.165c0.142-0.142,0.22-0.331,0.22-0.532s-0.078-0.391-0.22-0.532
		l-3.64-3.64c-0.311-0.311-0.723-0.481-1.162-0.481s-0.852,0.171-1.163,0.481l-0.841,0.841
		C13.429,15.632,13.472,17.148,15.11,18.854z"/>
</g>
</svg>
