<?xml version="1.0" encoding="utf-8"?>
<!-- Generator: Adobe Illustrator 22.1.0, SVG Export Plug-In . SVG Version: 6.00 Build 0)  -->
<svg version="1.1" id="Layer_1" xmlns="http://www.w3.org/2000/svg" xmlns:xlink="http://www.w3.org/1999/xlink" x="0px" y="0px"
	 viewBox="0 0 24 24" style="enable-background:new 0 0 24 24;" xml:space="preserve">
<g>
	<title>phone-actions-voice-mail</title>
	<path d="M16.484,23.997c-0.928,0-1.863-0.08-2.781-0.237c-0.037-0.002-0.074-0.009-0.11-0.019C7.979,22.739,3.348,19,1.204,13.737
		c-1.633-4.008-1.633-8.424,0-12.433C1.413,0.785,1.814,0.379,2.33,0.16c0.262-0.111,0.537-0.167,0.818-0.167
		c0.27,0,0.535,0.052,0.789,0.155c0.262,0.106,0.496,0.261,0.696,0.461l4.651,4.651c0.612,0.612,0.949,1.425,0.949,2.29
		c0,0.865-0.337,1.679-0.948,2.29L8.21,10.915c-1.183,1.181-2.422,1.78-3.684,1.78c-0.986,0-1.99-0.367-2.994-1.091
		c0.164,0.595,0.364,1.183,0.597,1.756c1.815,4.454,5.611,7.804,10.24,9.08c-1.663-2.3-1.431-4.54,0.697-6.667l1.075-1.075
		c0.611-0.611,1.424-0.948,2.291-0.948c0.866,0,1.679,0.336,2.29,0.947l4.651,4.651c0.396,0.396,0.615,0.924,0.615,1.485
		c0,0.561-0.218,1.088-0.615,1.485c-0.199,0.199-0.433,0.354-0.695,0.461C20.696,23.587,18.611,23.997,16.484,23.997z
		 M13.974,22.792c0.828,0.136,1.672,0.206,2.509,0.206c1.998,0,3.957-0.385,5.821-1.144c0.137-0.056,0.26-0.137,0.364-0.242
		c0.208-0.208,0.322-0.484,0.322-0.778c0-0.294-0.115-0.57-0.323-0.778l-4.651-4.651c-0.422-0.422-0.985-0.655-1.584-0.655
		c-0.599,0-1.161,0.233-1.583,0.655l-1.075,1.075C11.725,18.528,11.788,20.535,13.974,22.792z M1.181,9.999
		c1.156,1.122,2.28,1.691,3.342,1.691c1.007,0,1.982-0.485,2.98-1.481l1.075-1.075C9.001,8.71,9.234,8.148,9.234,7.55
		c0-0.598-0.233-1.16-0.656-1.583L3.927,1.315C3.822,1.211,3.699,1.13,3.562,1.074C3.429,1.02,3.29,0.993,3.149,0.993
		c-0.147,0-0.291,0.03-0.429,0.088C2.45,1.195,2.24,1.408,2.13,1.681C1.051,4.329,0.723,7.204,1.181,9.999z"/>
</g>
</svg>
