<?xml version="1.0" encoding="utf-8"?>
<!-- Generator: Adobe Illustrator 22.1.0, SVG Export Plug-In . SVG Version: 6.00 Build 0)  -->
<svg version="1.1" id="Layer_1" xmlns="http://www.w3.org/2000/svg" xmlns:xlink="http://www.w3.org/1999/xlink" x="0px" y="0px"
	 viewBox="0 0 24 24" style="enable-background:new 0 0 24 24;" xml:space="preserve">
<g>
	<title>phone-actions-merge</title>
	<path d="M15.657,23.991c-0.689,0-1.356-0.2-1.927-0.578c-5.24-3.48-9.661-7.901-13.141-13.14c-0.913-1.38-0.727-3.232,0.44-4.403
		l1.165-1.164c0.471-0.471,1.099-0.731,1.767-0.731s1.296,0.26,1.767,0.731l2.123,2.122c0.472,0.472,0.731,1.1,0.731,1.768
		s-0.26,1.296-0.732,1.768c-0.001,0.001-0.387,0.382-0.387,0.382c1.754,2.09,3.701,4.037,5.791,5.791l0.385-0.385
		c0.471-0.471,1.099-0.731,1.768-0.731c0.668,0,1.296,0.26,1.768,0.731l2.122,2.12c0.974,0.975,0.974,2.561,0,3.535l-1.164,1.164
		C17.474,23.629,16.594,23.991,15.657,23.991z M3.961,4.975c-0.401,0-0.778,0.156-1.06,0.438L1.737,6.576
		C0.903,7.412,0.771,8.735,1.422,9.72c3.406,5.127,7.732,9.454,12.86,12.859c0.407,0.269,0.882,0.412,1.375,0.412
		c0.671,0,1.299-0.258,1.77-0.727L18.59,21.1c0.584-0.585,0.584-1.536,0-2.121l-2.122-2.12c-0.283-0.283-0.659-0.438-1.061-0.438
		s-0.778,0.156-1.061,0.438l-0.707,0.707c-0.094,0.094-0.22,0.146-0.354,0.146c-0.115,0-0.228-0.04-0.318-0.114
		c-2.391-1.968-4.601-4.178-6.568-6.569c-0.165-0.201-0.15-0.49,0.035-0.673l0.71-0.702c0.583-0.583,0.583-1.534,0.001-2.119
		c-0.011-0.01-0.023-0.023-0.034-0.037l-2.09-2.086C4.739,5.131,4.362,4.975,3.961,4.975z"/>
	<path d="M15.505,12.496c-0.133,0-0.258-0.052-0.352-0.145c-0.095-0.094-0.147-0.22-0.148-0.353s0.051-0.259,0.146-0.354
		l3.854-3.875V1.703l-2.146,2.146c-0.094,0.094-0.22,0.146-0.354,0.146s-0.259-0.052-0.354-0.146s-0.146-0.22-0.146-0.354
		s0.052-0.259,0.146-0.354l3-3c0.047-0.047,0.101-0.083,0.163-0.109c0.061-0.025,0.125-0.038,0.191-0.038s0.13,0.013,0.191,0.038
		c0.061,0.025,0.116,0.062,0.163,0.108l3,3c0.094,0.094,0.146,0.22,0.146,0.354s-0.052,0.259-0.146,0.354s-0.22,0.146-0.354,0.146
		s-0.259-0.052-0.354-0.146l-2.146-2.146v6.272c0,0.133-0.052,0.259-0.146,0.353l-4,4.021C15.766,12.443,15.64,12.496,15.505,12.496
		z"/>
	<path d="M23.505,12.496c-0.135,0-0.262-0.053-0.356-0.149l-2.477-2.51c-0.194-0.196-0.191-0.513,0.005-0.707
		c0.094-0.093,0.219-0.144,0.351-0.144c0.135,0,0.261,0.053,0.356,0.149l2.477,2.51c0.094,0.095,0.145,0.221,0.144,0.354
		c-0.001,0.134-0.054,0.259-0.149,0.353C23.762,12.445,23.638,12.496,23.505,12.496z"/>
</g>
</svg>
