<svg xmlns="http://www.w3.org/2000/svg" viewBox="0 0 24 24"><title>phone-retro-1</title><circle cx="12" cy="16.501" r="2.25"/><path d="M15,10.642V9a1,1,0,1,0-2,0v1.5H11V9A1,1,0,1,0,9,9v1.641A8.508,8.508,0,0,0,2,19v2a1.5,1.5,0,0,0,1.5,1.5h17A1.5,1.5,0,0,0,22,21V19A8.508,8.508,0,0,0,15,10.642Zm-3,2.109A3.75,3.75,0,1,1,8.25,16.5,3.755,3.755,0,0,1,12,12.751Z"/><path d="M21.1,2.42h0a45.417,45.417,0,0,0-18.2,0A3.7,3.7,0,0,0,0,5.91v2a2.5,2.5,0,0,0,2.5,2.5h3A2.5,2.5,0,0,0,8,7.91V7.1a.253.253,0,0,1,.232-.252,45.366,45.366,0,0,1,7.536,0A.253.253,0,0,1,16,7.1V7.91a2.5,2.5,0,0,0,2.5,2.5h3A2.5,2.5,0,0,0,24,7.91v-2A3.7,3.7,0,0,0,21.1,2.42Z"/></svg>