<?xml version="1.0" encoding="utf-8"?>
<!-- Generator: Adobe Illustrator 22.1.0, SVG Export Plug-In . SVG Version: 6.00 Build 0)  -->
<svg version="1.1" id="Layer_1" xmlns="http://www.w3.org/2000/svg" xmlns:xlink="http://www.w3.org/1999/xlink" x="0px" y="0px"
	 viewBox="0 0 24 24" style="enable-background:new 0 0 24 24;" xml:space="preserve">
<title>newspaper-give</title>
<g>
	<path d="M5.25,24c-0.414,0-0.75-0.336-0.75-0.75V19.5c0-0.3,0.178-0.571,0.455-0.689c0.095-0.04,0.194-0.06,0.296-0.06
		c0.194,0,0.378,0.073,0.518,0.207l2.754,2.625c0.434,0.434,1.002,0.669,1.606,0.669c0.601,0,1.165-0.233,1.589-0.656l2.625-2.625
		c0.293-0.293,0.294-0.77,0.001-1.063c-0.142-0.142-0.331-0.22-0.532-0.22c-0.201,0-0.389,0.078-0.531,0.219l-2.625,2.625
		c-0.142,0.142-0.33,0.22-0.53,0.22c-0.2,0-0.388-0.078-0.53-0.219L6.22,17.16c-0.426-0.423-0.992-0.657-1.594-0.66H0.75
		C0.336,16.5,0,16.164,0,15.75S0.336,15,0.75,15h3.879c1,0.003,1.941,0.393,2.65,1.097l2.846,2.843l2.095-2.095
		c0.425-0.424,0.99-0.657,1.591-0.657c0.603,0,1.168,0.234,1.593,0.66c0.424,0.425,0.657,0.99,0.657,1.593
		c0,0.602-0.235,1.167-0.66,1.591l-2.625,2.625c-0.707,0.707-1.649,1.096-2.651,1.096c-1.003,0-1.944-0.389-2.651-1.096L6,21.251
		v1.999C6,23.664,5.663,24,5.25,24z"/>
	<path d="M1.505,13.501c-0.302,0-0.606-0.031-0.904-0.091c-0.405-0.082-0.668-0.479-0.586-0.884
		c0.071-0.348,0.379-0.601,0.734-0.601c0.051,0,0.102,0.005,0.152,0.016C1.096,11.98,1.297,12,1.496,12
		c1.421,0,2.658-1.011,2.94-2.403C4.765,7.976,3.714,6.389,2.093,6.06C1.896,6.02,1.695,6,1.496,6c-0.199,0-0.4,0.02-0.597,0.06
		c-0.051,0.01-0.1,0.015-0.149,0.015c-0.355,0-0.665-0.253-0.735-0.601C-0.067,5.069,0.195,4.672,0.601,4.59
		C0.897,4.53,1.198,4.5,1.497,4.5c0.299,0,0.6,0.03,0.895,0.09C4.823,5.084,6.4,7.464,5.906,9.895
		c-0.239,1.178-0.923,2.192-1.925,2.856C3.241,13.242,2.385,13.501,1.505,13.501z"/>
	<path d="M15.75,15c-0.06,0-0.12-0.007-0.179-0.022c-0.019-0.005-0.058-0.018-0.076-0.026c-0.029-0.01-0.058-0.021-0.086-0.035
		c-0.026-0.013-0.05-0.029-0.073-0.045c-0.028-0.018-0.05-0.033-0.071-0.051c-0.021-0.018-0.041-0.038-0.059-0.059
		c-0.011-0.011-0.021-0.021-0.031-0.032c-0.251-0.221-1.962-1.562-6.591-1.621c-0.599-0.013-1.08-0.507-1.077-1.1V1.096
		C7.506,0.807,7.618,0.533,7.822,0.325C8.018,0.125,8.283,0.014,8.588,0c4.175,0.055,6.291,1.089,7.162,1.681
		C16.622,1.09,18.736,0.055,22.895,0c0.302,0,0.584,0.118,0.787,0.324c0.205,0.208,0.317,0.483,0.316,0.774v10.915
		c0.004,0.59-0.476,1.082-1.069,1.096c-4.628,0.059-6.335,1.388-6.598,1.621c-0.022,0.027-0.044,0.053-0.071,0.077
		c-0.018,0.016-0.044,0.034-0.068,0.049c-0.036,0.026-0.079,0.052-0.125,0.073c-0.039,0.017-0.07,0.028-0.104,0.038
		c-0.044,0.014-0.095,0.024-0.148,0.028C15.795,14.998,15.775,15,15.757,15H15.75z M16.5,12.853
		c1.151-0.575,3.031-1.151,5.998-1.235V1.509C18.745,1.626,17.026,2.61,16.5,2.99V12.853z M9.007,11.617
		c2.963,0.084,4.842,0.659,5.993,1.233V2.989c-0.526-0.379-2.244-1.365-6.001-1.48L9.007,11.617z"/>
</g>
</svg>
