<?xml version="1.0" encoding="utf-8"?>
<!-- Generator: Adobe Illustrator 22.1.0, SVG Export Plug-In . SVG Version: 6.00 Build 0)  -->
<svg version="1.1" id="Layer_1" xmlns="http://www.w3.org/2000/svg" xmlns:xlink="http://www.w3.org/1999/xlink" x="0px" y="0px"
	 viewBox="0 0 24 24" style="enable-background:new 0 0 24 24;" xml:space="preserve">
<title>newspaper</title>
<g>
	<path d="M2.25,24C1.009,24,0,22.991,0,21.75V2.25C0,1.009,1.009,0,2.25,0h19.5C22.991,0,24,1.009,24,2.25v19.5
		c0,1.241-1.009,2.25-2.25,2.25H2.25z M2.25,1.5C1.836,1.5,1.5,1.836,1.5,2.25v19.5c0,0.414,0.336,0.75,0.75,0.75h19.5
		c0.414,0,0.75-0.336,0.75-0.75V2.25c0-0.414-0.336-0.75-0.75-0.75H2.25z"/>
	<path d="M13.5,14.25c-0.414,0-0.75-0.336-0.75-0.75s0.336-0.75,0.75-0.75h6c0.414,0,0.75,0.336,0.75,0.75s-0.336,0.75-0.75,0.75
		H13.5z"/>
	<path d="M13.5,17.25c-0.414,0-0.75-0.336-0.75-0.75s0.336-0.75,0.75-0.75h6c0.414,0,0.75,0.336,0.75,0.75s-0.336,0.75-0.75,0.75
		H13.5z"/>
	<path d="M13.5,20.25c-0.414,0-0.75-0.336-0.75-0.75s0.336-0.75,0.75-0.75h3.75c0.414,0,0.75,0.336,0.75,0.75s-0.336,0.75-0.75,0.75
		H13.5z"/>
	<path d="M3.75,14.25C3.336,14.25,3,13.914,3,13.5s0.336-0.75,0.75-0.75h6c0.414,0,0.75,0.336,0.75,0.75s-0.336,0.75-0.75,0.75H3.75
		z"/>
	<path d="M3.75,17.25C3.336,17.25,3,16.914,3,16.5s0.336-0.75,0.75-0.75h6c0.414,0,0.75,0.336,0.75,0.75s-0.336,0.75-0.75,0.75H3.75
		z"/>
	<path d="M3.75,20.25C3.336,20.25,3,19.914,3,19.5s0.336-0.75,0.75-0.75H7.5c0.414,0,0.75,0.336,0.75,0.75s-0.336,0.75-0.75,0.75
		H3.75z"/>
	<path d="M4.5,10.5C3.673,10.5,3,9.827,3,9V4.5C3,3.673,3.673,3,4.5,3h15C20.327,3,21,3.673,21,4.5V9c0,0.827-0.673,1.5-1.5,1.5H4.5
		z M4.5,9h15V4.5h-15V9z"/>
</g>
</svg>
