<svg xmlns="http://www.w3.org/2000/svg" viewBox="0 0 24 24"><defs><style>.a{fill:none;stroke:currentColor;stroke-linecap:round;stroke-linejoin:round;}</style></defs><title>smiley-sad-crying</title><circle class="a" cx="12" cy="12" r="11.5"/><path class="a" d="M8.5,7.75A.25.25,0,1,1,8.25,8a.25.25,0,0,1,.25-.25"/><path class="a" d="M15.5,7.75a.25.25,0,1,0,.25.25.25.25,0,0,0-.25-.25"/><path class="a" d="M19,12.5a1.5,1.5,0,0,1-3,0c0-.828,1.5-3,1.5-3S19,11.672,19,12.5Z"/><path class="a" d="M7.5,19a4.5,4.5,0,0,1,9,0"/></svg>