<svg xmlns="http://www.w3.org/2000/svg" viewBox="0 0 24 24"><defs><style>.a{fill:none;stroke:currentColor;stroke-linecap:round;stroke-linejoin:round;}</style></defs><title>smiley-shout</title><circle class="a" cx="12" cy="12" r="11.5"/><path class="a" d="M6.5,10.25A.25.25,0,1,1,6.75,10a.25.25,0,0,1-.25.25"/><path class="a" d="M17.5,10.25a.25.25,0,1,0-.25-.25.25.25,0,0,0,.25.25"/><path class="a" d="M8.5,7.5a2.5,2.5,0,0,0-4,0"/><path class="a" d="M15.5,7.5a2.5,2.5,0,0,1,4,0"/><path class="a" d="M12,14.5A1.5,1.5,0,0,0,10.5,16v3a1.5,1.5,0,0,0,3,0V16A1.5,1.5,0,0,0,12,14.5Z"/><line class="a" x1="10.5" y1="12.5" x2="11" y2="12.5"/><line class="a" x1="13" y1="12.5" x2="13.5" y2="12.5"/></svg>