<svg xmlns="http://www.w3.org/2000/svg" viewBox="0 0 24 24"><defs><style>.a{fill:none;stroke:currentColor;stroke-linecap:round;stroke-linejoin:round;}</style></defs><title>smiley-dizzy</title><circle class="a" cx="12" cy="12" r="11.5"/><line class="a" x1="7.5" y1="15.5" x2="16.5" y2="15.5"/><path class="a" d="M12.5,15.5v3a1.5,1.5,0,0,0,3,0v-3"/><path class="a" d="M7,11A2.5,2.5,0,0,1,7,6,2,2,0,0,1,9,8,1,1,0,0,1,7,8"/><path class="a" d="M17,11a2.5,2.5,0,0,1,0-5,2,2,0,0,1,2,2,1,1,0,0,1-2,0"/></svg>