<svg xmlns="http://www.w3.org/2000/svg" viewBox="0 0 24 24"><defs><style>.a{fill:none;stroke:currentColor;stroke-linecap:round;stroke-linejoin:round;}</style></defs><title>smiley-zipped</title><path class="a" d="M8.5,7.75A.25.25,0,1,1,8.25,8a.25.25,0,0,1,.25-.25"/><path class="a" d="M15.5,7.75a.25.25,0,1,0,.25.25.25.25,0,0,0-.25-.25"/><line class="a" x1="16.5" y1="16.5" x2="16.5" y2="17.5"/><line class="a" x1="6.5" y1="16.5" x2="18.5" y2="16.5"/><line class="a" x1="7.5" y1="15.5" x2="7.5" y2="16.5"/><line class="a" x1="8.5" y1="17.5" x2="8.5" y2="16.5"/><line class="a" x1="10.5" y1="17.5" x2="10.5" y2="16.5"/><line class="a" x1="11.5" y1="16.5" x2="11.5" y2="15.5"/><line class="a" x1="13.5" y1="16.5" x2="13.5" y2="15.5"/><line class="a" x1="9.5" y1="16.5" x2="9.5" y2="15.5"/><line class="a" x1="12.5" y1="17.5" x2="12.5" y2="16.5"/><line class="a" x1="14.5" y1="17.5" x2="14.5" y2="16.5"/><line class="a" x1="15.5" y1="16.5" x2="15.5" y2="15.5"/><path class="a" d="M23.449,13c.029-.33.051-.662.051-1a11.518,11.518,0,1,0-3.249,8"/><path class="a" d="M22,15c-.975,0-3.5.434-3.5,1.5S21.025,18,22,18a1.5,1.5,0,0,0,0-3Z"/></svg>