<svg xmlns="http://www.w3.org/2000/svg" viewBox="0 0 24 24"><defs><style>.a{fill:none;stroke:currentColor;stroke-linecap:round;stroke-linejoin:round;}</style></defs><title>smiley-nose-blow-1</title><path class="a" d="M17.5,17.518l-1.053-2.105a.5.5,0,0,0-.894,0l-1.106,2.211a.5.5,0,0,1-.894,0l-1.106-2.211a.5.5,0,0,0-.894,0l-1.106,2.211A.5.5,0,0,1,10,17.9a.55.55,0,0,1-.091-.008"/><path class="a" d="M1.456,16.6a11.5,11.5,0,1,1,5.479,5.729"/><path class="a" d="M6.5,9.5H8.293a.5.5,0,0,0,.353-.854L7,7"/><path class="a" d="M17.5,9.5H15.707a.5.5,0,0,1-.353-.854L17,7"/><path class="a" d="M9.661,12a1.37,1.37,0,0,0-1.046.485c-.8.944-2.745,2.941-4.991,3.013a2.624,2.624,0,0,0-2.613,2.267A2.5,2.5,0,0,0,3.5,20.5a1.5,1.5,0,0,0-1.461,1.848A1.552,1.552,0,0,0,3.6,23.5c4.693-.071,6.869-5.557,7.326-10.1A1.269,1.269,0,0,0,9.661,12Z"/><path class="a" d="M3.5,20.5a4.189,4.189,0,0,0,4-3"/></svg>