<svg xmlns="http://www.w3.org/2000/svg" viewBox="0 0 24 24"><defs><style>.a{fill:none;stroke:currentColor;stroke-linecap:round;stroke-linejoin:round;}</style></defs><title>smiley-devastated-1</title><path class="a" d="M7.894,19.225a1,1,0,0,1-1.285-1.363,6,6,0,0,1,10.782,0,1,1,0,0,1-1.285,1.363A10.565,10.565,0,0,0,12,18.5,10.565,10.565,0,0,0,7.894,19.225Z"/><circle class="a" cx="12" cy="12" r="11.5"/><path class="a" d="M14.5,9.392a2.359,2.359,0,0,0,4,0"/><path class="a" d="M9.5,9.392a2.359,2.359,0,0,1-4,0"/><path class="a" d="M7,7s2.5,0,3-2"/><path class="a" d="M17,7s-2.5,0-3-2"/></svg>