<svg xmlns="http://www.w3.org/2000/svg" viewBox="0 0 24 24"><defs><style>.a{fill:none;stroke:currentColor;stroke-linecap:round;stroke-linejoin:round;}</style></defs><title>smiley-throw-up</title><line class="a" x1="10.5" y1="18.5" x2="10.5" y2="19.5"/><line class="a" x1="13.5" y1="19.5" x2="13.5" y2="20.5"/><path class="a" d="M7.5,5a3.564,3.564,0,0,1-3,1.5"/><path class="a" d="M16.5,5a3.564,3.564,0,0,0,3,1.5"/><polyline class="a" points="6.5 10.5 9.5 10.5 7 8"/><polyline class="a" points="17.5 10.5 14.5 10.5 17 8"/><path class="a" d="M16,18.5a2.5,2.5,0,0,0,0-5H8a2.5,2.5,0,0,0,0,5"/><path class="a" d="M18,20.5a2,2,0,0,1-2-2,2,2,0,0,0-2-2H10a2,2,0,0,0-2,2,2,2,0,0,1-2,2,1.5,1.5,0,0,0,0,3,4.841,4.841,0,0,0,2.5-.632,1.642,1.642,0,0,1,1.8.09,2.921,2.921,0,0,0,3.39,0,1.642,1.642,0,0,1,1.8-.09A4.841,4.841,0,0,0,18,23.5a1.5,1.5,0,0,0,0-3Z"/><path class="a" d="M20.5,19.746a11.5,11.5,0,1,0-17,0"/></svg>