<svg xmlns="http://www.w3.org/2000/svg" viewBox="0 0 24 24"><defs><style>.a{fill:none;stroke:currentColor;stroke-linecap:round;stroke-linejoin:round;}</style></defs><title>smiley-bright</title><circle class="a" cx="12" cy="12" r="11.5"/><path class="a" d="M7,7A2.5,2.5,0,0,0,9.5,9.5,2.5,2.5,0,0,0,7,12,2.5,2.5,0,0,0,4.5,9.5,2.5,2.5,0,0,0,7,7"/><path class="a" d="M17,7a2.5,2.5,0,0,1-2.5,2.5A2.5,2.5,0,0,1,17,12a2.5,2.5,0,0,1,2.5-2.5A2.5,2.5,0,0,1,17,7"/><path class="a" d="M10,19.5h4a3,3,0,0,0,3-3"/><path class="a" d="M19,17a1.415,1.415,0,0,0,0-2"/></svg>