<svg xmlns="http://www.w3.org/2000/svg" viewBox="0 0 24 24"><defs><style>.a{fill:none;stroke:currentColor;stroke-linecap:round;stroke-linejoin:round;}</style></defs><title>smiley-very-happy</title><circle class="a" cx="12" cy="12" r="11.5"/><path class="a" d="M8.5,7.5a2.5,2.5,0,0,0-4,0"/><path class="a" d="M15.5,7.5a2.5,2.5,0,0,1,4,0"/><path class="a" d="M12,14.5A1.5,1.5,0,0,0,10.5,16v3a1.5,1.5,0,0,0,3,0V16A1.5,1.5,0,0,0,12,14.5Z"/><circle class="a" cx="12" cy="12" r="11.5"/><line class="a" x1="6.5" y1="9" x2="6.5" y2="12"/><line class="a" x1="5" y1="10.5" x2="8" y2="10.5"/><line class="a" x1="17.5" y1="9" x2="17.5" y2="12"/><line class="a" x1="16" y1="10.5" x2="19" y2="10.5"/></svg>