<svg xmlns="http://www.w3.org/2000/svg" viewBox="0 0 24 24"><defs><style>.a{fill:none;stroke:currentColor;stroke-linecap:round;stroke-linejoin:round;}</style></defs><title>smiley-head-sick</title><path class="a" d="M7.5,19a4.5,4.5,0,0,1,9,0"/><path class="a" d="M17.307,6.5A3.563,3.563,0,0,0,20,8.5"/><path class="a" d="M6.5,10.25A.25.25,0,1,1,6.75,10a.25.25,0,0,1-.25.25"/><path class="a" d="M17.5,10.25a.25.25,0,1,0-.25-.25.25.25,0,0,0,.25.25"/><circle class="a" cx="12" cy="12" r="11.5"/><line class="a" x1="12.195" y1="3.5" x2="15.713" y2="1.113"/><line class="a" x1="7.829" y1="3.5" x2="12.246" y2="0.503"/><path class="a" d="M1.9,6.5H22.1a11.558,11.558,0,0,0-2.356-3H4.254A11.558,11.558,0,0,0,1.9,6.5Z"/><line class="a" x1="0.514" y1="11.427" x2="7.774" y2="6.5"/></svg>