<svg xmlns="http://www.w3.org/2000/svg" viewBox="0 0 24 24"><defs><style>.a{fill:none;stroke:currentColor;stroke-linecap:round;stroke-linejoin:round;}</style></defs><title>smiley-tongue-3</title><path class="a" d="M14.5,19.806a5.017,5.017,0,0,0,2.339-3.052,1,1,0,0,0-.968-1.254H8.129a1,1,0,0,0-.968,1.254A5.017,5.017,0,0,0,9.5,19.806"/><path class="a" d="M6.5,9.75a.25.25,0,1,1-.25.25.25.25,0,0,1,.25-.25"/><path class="a" d="M17.5,9.75a.25.25,0,1,0,.25.25.25.25,0,0,0-.25-.25"/><path class="a" d="M16.5,22.585a11.5,11.5,0,1,0-9,0"/><path class="a" d="M14.5,21a2.5,2.5,0,0,1-5,0V18.5a1,1,0,0,1,1-1h3a1,1,0,0,1,1,1Z"/></svg>