<?xml version="1.0" encoding="utf-8"?>
<!-- Generator: Adobe Illustrator 22.1.0, SVG Export Plug-In . SVG Version: 6.00 Build 0)  -->
<svg version="1.1" id="Layer_1" xmlns="http://www.w3.org/2000/svg" xmlns:xlink="http://www.w3.org/1999/xlink" x="0px" y="0px"
	 viewBox="0 0 24 24" style="enable-background:new 0 0 24 24;" xml:space="preserve">
<g>
	<title>envelope-ups</title>
	<path d="M3.5,24C2.673,24,2,23.327,2,22.5v-21C2,0.673,2.673,0,3.5,0h17C21.327,0,22,0.673,22,1.5v21c0,0.827-0.673,1.5-1.5,1.5
		H3.5z M3.5,1C3.224,1,3,1.224,3,1.5v21C3,22.776,3.224,23,3.5,23h17c0.276,0,0.5-0.224,0.5-0.5v-21C21,1.224,20.776,1,20.5,1H3.5z"
		/>
	<path d="M12,12c-1.103,0-2-0.897-2-2s0.897-2,2-2s2,0.897,2,2S13.103,12,12,12z M12,9c-0.551,0-1,0.449-1,1s0.449,1,1,1
		c0.552,0,1-0.449,1-1S12.552,9,12,9z"/>
	<path d="M8.5,4C8.224,4,8,3.776,8,3.5S8.224,3,8.5,3h8C16.776,3,17,3.224,17,3.5S16.776,4,16.5,4H8.5z"/>
	<path d="M8.5,6C8.224,6,8,5.776,8,5.5S8.224,5,8.5,5h8C16.776,5,17,5.224,17,5.5S16.776,6,16.5,6H8.5z"/>
	<path d="M10.5,21c-0.276,0-0.5-0.224-0.5-0.5v-5c0-0.276,0.224-0.5,0.5-0.5H12c1.103,0,2,0.897,2,2s-0.897,2-2,2h-1v1.5
		C11,20.776,10.776,21,10.5,21z M12,18c0.552,0,1-0.448,1-1s-0.448-1-1-1h-1v2H12z"/>
	<path d="M7,21c-1.103,0-2-0.897-2-2v-3.5C5,15.224,5.224,15,5.5,15S6,15.224,6,15.5V19c0,0.552,0.449,1,1,1s1-0.448,1-1v-3.5
		C8,15.224,8.224,15,8.5,15S9,15.224,9,15.5V19C9,20.103,8.103,21,7,21z"/>
	<path d="M15.5,21c-0.276,0-0.5-0.224-0.5-0.5s0.224-0.5,0.5-0.5h1.838c0.287,0,0.54-0.182,0.63-0.454
		c0.115-0.346-0.073-0.722-0.42-0.837l-1.411-0.471c-0.681-0.226-1.139-0.86-1.138-1.579C15,15.745,15.745,15,16.661,15H18.5
		c0.276,0,0.5,0.224,0.5,0.5S18.776,16,18.5,16h-1.838c-0.366,0-0.663,0.297-0.664,0.661c0,0.286,0.182,0.539,0.454,0.629
		l1.411,0.471c0.42,0.139,0.761,0.435,0.961,0.832c0.199,0.397,0.232,0.848,0.093,1.268C18.691,20.542,18.057,21,17.34,21H15.5z"/>
</g>
</svg>
