<?xml version="1.0" encoding="utf-8"?>
<!-- Generator: Adobe Illustrator 22.1.0, SVG Export Plug-In . SVG Version: 6.00 Build 0)  -->
<svg version="1.1" id="Layer_1" xmlns="http://www.w3.org/2000/svg" xmlns:xlink="http://www.w3.org/1999/xlink" x="0px" y="0px"
	 viewBox="0 0 24 24" style="enable-background:new 0 0 24 24;" xml:space="preserve">
<g>
	<title>content-pen</title>
	<path d="M0.509,24.002c-0.065,0-0.129-0.013-0.19-0.038c-0.061-0.024-0.117-0.062-0.164-0.109c-0.04-0.04-0.073-0.088-0.1-0.147
		c-0.003-0.006-0.012-0.028-0.014-0.034c-0.019-0.051-0.03-0.106-0.031-0.162c0-0.009,0.001-0.027,0.001-0.036
		c0-0.02,0.002-0.042,0.005-0.063c0.101-0.549,1.016-5.385,2.259-6.629c0.659-0.658,1.536-1.02,2.471-1.02
		c0.091,0,0.182,0.003,0.272,0.01c-0.299-0.729-0.146-1.59,0.436-2.172L17.65,1.411c-0.279-0.264-0.643-0.409-1.03-0.409
		c-0.401,0-0.778,0.156-1.061,0.438L11.671,5.33c-0.094,0.094-0.22,0.146-0.354,0.146s-0.259-0.052-0.354-0.146
		c-0.195-0.195-0.195-0.512,0-0.707l3.889-3.889c0.471-0.471,1.099-0.731,1.768-0.731c0.667,0,1.295,0.259,1.766,0.729
		c0.609-0.455,1.335-0.694,2.112-0.694l0.033,0c0.937,0.016,1.81,0.396,2.459,1.068c1.317,1.364,1.317,3.5,0,4.863L10.409,18.555
		c-0.377,0.377-0.879,0.585-1.414,0.585c-0.26,0-0.518-0.052-0.757-0.149c0.081,1.016-0.279,2.012-1.011,2.744
		c-1.248,1.247-6.081,2.159-6.628,2.259C0.571,23.999,0.54,24.002,0.509,24.002z M3.691,19.82c0.134,0,0.259,0.052,0.354,0.146
		c0.195,0.195,0.195,0.512,0,0.707l-1.991,1.991c1.913-0.449,3.895-1.067,4.466-1.637c0.958-0.959,0.97-2.531,0.027-3.506
		l-0.06-0.06C6.021,17.01,5.404,16.76,4.752,16.76c-0.669,0-1.297,0.26-1.768,0.731c-0.57,0.571-1.188,2.553-1.637,4.466l1.991-1.99
		C3.432,19.872,3.558,19.82,3.691,19.82z M6.163,14.309c-0.39,0.39-0.39,1.024,0,1.414l1.032,1.032
		c0.012,0.01,0.022,0.019,0.031,0.028c0.005,0.005,0.025,0.026,0.029,0.031l1.033,1.034c0.188,0.188,0.44,0.292,0.707,0.292
		s0.518-0.104,0.707-0.292l8.687-8.689l-3.536-3.536L6.163,14.309z M19.095,8.452l3.181-3.182c0.936-0.969,0.934-2.494-0.006-3.467
		c-0.464-0.48-1.087-0.751-1.755-0.763l-0.045,0c-0.651,0-1.267,0.249-1.736,0.702l-3.176,3.175L19.095,8.452z"/>
</g>
</svg>
