<?xml version="1.0" encoding="utf-8"?>
<!-- Generator: Adobe Illustrator 22.1.0, SVG Export Plug-In . SVG Version: 6.00 Build 0)  -->
<svg version="1.1" id="Regular" xmlns="http://www.w3.org/2000/svg" xmlns:xlink="http://www.w3.org/1999/xlink" x="0px" y="0px"
	 viewBox="0 0 24 24" style="enable-background:new 0 0 24 24;" xml:space="preserve">
<title>single-neutral-actions-credit-card</title>
<g>
	<path d="M12.75,24c-1.241,0-2.25-1.009-2.25-2.25v-6c0-1.241,1.009-2.25,2.25-2.25h9c1.241,0,2.25,1.009,2.25,2.25v6
		c0,1.241-1.009,2.25-2.25,2.25H12.75z M12,21.75c0,0.414,0.336,0.75,0.75,0.75h9c0.414,0,0.75-0.336,0.75-0.75V18H12V21.75z
		 M22.5,16.5v-0.75c0-0.414-0.336-0.75-0.75-0.75h-9C12.336,15,12,15.336,12,15.75v0.75H22.5z"/>
	<path d="M17.25,21c-0.414,0-0.75-0.336-0.75-0.75s0.336-0.75,0.75-0.75h3c0.414,0,0.75,0.336,0.75,0.75S20.664,21,20.25,21H17.25z"
		/>
	<path d="M6,7.5c-2.068,0-3.75-1.682-3.75-3.75S3.932,0,6,0s3.75,1.682,3.75,3.75S8.068,7.5,6,7.5z M6,1.5
		c-1.241,0-2.25,1.009-2.25,2.25S4.759,6,6,6s2.25-1.009,2.25-2.25S7.241,1.5,6,1.5z"/>
	<path d="M3.75,24c-0.387,0-0.708-0.29-0.746-0.675L2.321,16.5H0.75C0.336,16.5,0,16.164,0,15.75V13.5
		c0.001-2.142,1.156-4.136,3.014-5.202C3.92,7.777,4.95,7.502,5.992,7.502c2.149,0,4.147,1.154,5.214,3.013
		c0.1,0.174,0.126,0.376,0.074,0.569s-0.177,0.355-0.351,0.454c-0.113,0.065-0.242,0.1-0.373,0.1c0,0,0,0,0,0
		c-0.268,0-0.517-0.144-0.651-0.377c-0.8-1.394-2.299-2.259-3.912-2.259c-0.781,0-1.553,0.206-2.233,0.597
		c-1.393,0.8-2.259,2.295-2.26,3.902V15H3c0.387,0,0.708,0.29,0.746,0.675L4.429,22.5h3.143l0.255-2.558
		c0.038-0.379,0.364-0.676,0.742-0.676c0.028,0,0.057,0.002,0.086,0.005c0.193,0.019,0.372,0.115,0.499,0.271
		c0.127,0.155,0.186,0.35,0.166,0.549l-0.323,3.233C8.958,23.71,8.637,24,8.25,24H3.75z"/>
</g>
</svg>
