<?xml version="1.0" encoding="utf-8"?>
<!-- Generator: Adobe Illustrator 22.1.0, SVG Export Plug-In . SVG Version: 6.00 Build 0)  -->
<svg version="1.1" id="Layer_1" xmlns="http://www.w3.org/2000/svg" xmlns:xlink="http://www.w3.org/1999/xlink" x="0px" y="0px"
	 viewBox="0 0 24 24" style="enable-background:new 0 0 24 24;" xml:space="preserve">
<title>app-window-refresh</title>
<g>
	<path d="M2.26,21.002c-1.241,0-2.25-1.009-2.25-2.25v-16.5c0-1.241,1.009-2.25,2.25-2.25h18c1.241,0,2.25,1.009,2.25,2.25v6
		c0,0.414-0.336,0.75-0.75,0.75s-0.75-0.336-0.75-0.75v-2.25H1.51v12.75c0,0.414,0.336,0.75,0.75,0.75h6
		c0.414,0,0.75,0.336,0.75,0.75s-0.336,0.75-0.75,0.75H2.26z M21.01,4.502v-2.25c0-0.414-0.336-0.75-0.75-0.75h-18
		c-0.414,0-0.75,0.336-0.75,0.75v2.25H21.01z"/>
	<path d="M17.261,24.005c-3.078,0-5.766-2.081-6.536-5.061c-0.451-1.746-0.196-3.562,0.719-5.116
		c0.915-1.553,2.38-2.657,4.126-3.109c0.553-0.143,1.122-0.215,1.688-0.215c2.065,0,3.982,0.936,5.25,2.505v-1.756
		c0-0.414,0.336-0.75,0.75-0.75s0.75,0.336,0.75,0.75v4.5c0,0.414-0.336,0.75-0.75,0.75h-3.75c-0.414,0-0.75-0.336-0.75-0.75
		s0.336-0.75,0.75-0.75h2.494c-0.446-0.95-1.156-1.729-2.077-2.271c-0.809-0.477-1.728-0.729-2.655-0.729
		c-0.443,0-0.889,0.057-1.323,0.169c-1.358,0.351-2.498,1.21-3.209,2.418c-0.712,1.208-0.91,2.621-0.559,3.979
		c0.599,2.318,2.69,3.937,5.084,3.937c0.441,0,0.883-0.056,1.313-0.168c1.093-0.282,2.083-0.924,2.788-1.806
		c0.143-0.179,0.357-0.282,0.586-0.282c0.169,0,0.335,0.058,0.468,0.164c0.156,0.125,0.255,0.303,0.277,0.502
		c0.022,0.199-0.034,0.395-0.159,0.552c-0.906,1.134-2.179,1.958-3.583,2.322C18.398,23.932,17.83,24.005,17.261,24.005
		C17.261,24.005,17.261,24.005,17.261,24.005z"/>
</g>
</svg>
