<?xml version="1.0" encoding="utf-8"?>
<!-- Generator: Adobe Illustrator 22.1.0, SVG Export Plug-In . SVG Version: 6.00 Build 0)  -->
<svg version="1.1" id="Layer_1" xmlns="http://www.w3.org/2000/svg" xmlns:xlink="http://www.w3.org/1999/xlink" x="0px" y="0px"
	 viewBox="0 0 24 24" style="enable-background:new 0 0 24 24;" xml:space="preserve">
<title>app-window-code</title>
<g>
	<path d="M3.01,22.503c-1.241,0-2.25-1.009-2.25-2.25v-16.5c0-1.241,1.009-2.25,2.25-2.25h18c1.241,0,2.25,1.009,2.25,2.25v16.5
		c0,1.241-1.009,2.25-2.25,2.25H3.01z M2.26,20.253c0,0.414,0.336,0.75,0.75,0.75h18c0.414,0,0.75-0.336,0.75-0.75V7.503H2.26
		V20.253z M21.76,6.003v-2.25c0-0.414-0.336-0.75-0.75-0.75h-18c-0.414,0-0.75,0.336-0.75,0.75v2.25H21.76z"/>
	<path d="M12.01,18.003c-0.414,0-0.75-0.336-0.75-0.75s0.336-0.75,0.75-0.75h4.5c0.414,0,0.75,0.336,0.75,0.75
		s-0.336,0.75-0.75,0.75H12.01z"/>
	<path d="M7.51,18.003c-0.2,0-0.389-0.078-0.53-0.22c-0.292-0.292-0.292-0.768,0-1.061l2.47-2.47l-2.47-2.47
		c-0.142-0.141-0.22-0.33-0.22-0.53s0.078-0.389,0.22-0.53c0.141-0.142,0.33-0.22,0.53-0.22s0.389,0.078,0.53,0.22l3,3
		c0.292,0.292,0.292,0.768,0,1.061l-3,3C7.898,17.925,7.71,18.003,7.51,18.003z"/>
</g>
</svg>
