<?xml version="1.0" encoding="utf-8"?>
<!-- Generator: Adobe Illustrator 22.1.0, SVG Export Plug-In . SVG Version: 6.00 Build 0)  -->
<svg version="1.1" id="Layer_1" xmlns="http://www.w3.org/2000/svg" xmlns:xlink="http://www.w3.org/1999/xlink" x="0px" y="0px"
	 viewBox="0 0 24 24" style="enable-background:new 0 0 24 24;" xml:space="preserve">
<title>app-window-warning</title>
<g>
	<path d="M2.261,21.003c-1.241,0-2.25-1.009-2.25-2.25v-16.5c0-1.241,1.009-2.25,2.25-2.25h18c1.241,0,2.25,1.009,2.25,2.25V10.5
		c0,0.414-0.336,0.75-0.75,0.75s-0.75-0.336-0.75-0.75V6.003h-19.5v12.75c0,0.414,0.336,0.75,0.75,0.75h6
		c0.414,0,0.75,0.336,0.75,0.75s-0.336,0.75-0.75,0.75H2.261z M21.011,4.503v-2.25c0-0.414-0.336-0.75-0.75-0.75h-18
		c-0.414,0-0.75,0.336-0.75,0.75v2.25H21.011z"/>
	<circle cx="17.257" cy="20.628" r="1.125"/>
	<path d="M17.257,18.753c-0.414,0-0.75-0.336-0.75-0.75v-3c0-0.414,0.336-0.75,0.75-0.75s0.75,0.336,0.75,0.75v3
		C18.007,18.417,17.671,18.753,17.257,18.753z"/>
	<path d="M13.031,24.003c-0.674,0-1.308-0.262-1.784-0.738c-0.477-0.476-0.74-1.11-0.74-1.784c0-0.391,0.092-0.782,0.267-1.132
		l4.224-8.451c0.301-0.603,0.819-1.053,1.459-1.266c0.26-0.087,0.53-0.131,0.801-0.131c0.392,0,0.771,0.09,1.126,0.267
		c0.486,0.243,0.887,0.644,1.13,1.13l4.226,8.452c0.301,0.603,0.35,1.288,0.136,1.927c-0.213,0.64-0.663,1.158-1.266,1.459
		c-0.348,0.174-0.739,0.266-1.128,0.266H13.031z M17.258,12.002c-0.11,0-0.219,0.018-0.326,0.053
		c-0.259,0.087-0.469,0.269-0.592,0.514l-4.225,8.452c-0.071,0.142-0.109,0.3-0.109,0.459c0,0.273,0.107,0.531,0.3,0.723
		c0.193,0.193,0.45,0.299,0.723,0.299h8.453c0.158,0,0.316-0.037,0.458-0.108c0.245-0.122,0.427-0.333,0.514-0.592
		c0.086-0.26,0.067-0.537-0.055-0.781l-4.226-8.452c-0.099-0.197-0.261-0.36-0.458-0.459C17.57,12.039,17.417,12.002,17.258,12.002z
		"/>
</g>
</svg>
