<?xml version="1.0" encoding="utf-8"?>
<!-- Generator: Adobe Illustrator 22.1.0, SVG Export Plug-In . SVG Version: 6.00 Build 0)  -->
<svg version="1.1" id="Layer_1" xmlns="http://www.w3.org/2000/svg" xmlns:xlink="http://www.w3.org/1999/xlink" x="0px" y="0px"
	 viewBox="0 0 24 24" style="enable-background:new 0 0 24 24;" xml:space="preserve">
<title>app-window-music</title>
<g>
	<path d="M18.76,22.503c-0.414,0-0.75-0.336-0.75-0.75s0.336-0.75,0.75-0.75h2.25c0.414,0,0.75-0.336,0.75-0.75V7.503H2.26v12.75
		c0,0.414,0.336,0.75,0.75,0.75h1.5c0.414,0,0.75,0.336,0.75,0.75s-0.336,0.75-0.75,0.75h-1.5c-1.241,0-2.25-1.009-2.25-2.25v-16.5
		c0-1.241,1.009-2.25,2.25-2.25h18c1.241,0,2.25,1.009,2.25,2.25v16.5c0,1.241-1.009,2.25-2.25,2.25H18.76z M21.76,6.003v-2.25
		c0-0.414-0.336-0.75-0.75-0.75h-18c-0.414,0-0.75,0.336-0.75,0.75v2.25H21.76z"/>
	<path d="M8.635,21.753c-1.447,0-2.625-1.177-2.625-2.625s1.178-2.625,2.625-2.625c0.392,0,0.776,0.088,1.125,0.255v-4.423
		c0-0.97,0.619-1.828,1.539-2.135l4.536-1.261c0.204-0.069,0.436-0.106,0.673-0.106c0.346,0,0.695,0.083,1.009,0.24
		c0.537,0.269,0.938,0.731,1.128,1.301c0.077,0.23,0.115,0.469,0.115,0.711v5.793c0,1.448-1.177,2.625-2.625,2.625
		s-2.625-1.177-2.625-2.625s1.177-2.625,2.625-2.625c0.392,0,0.776,0.088,1.125,0.255v-3.423c0-0.081-0.013-0.16-0.038-0.236
		c-0.063-0.191-0.197-0.345-0.376-0.434c-0.106-0.053-0.219-0.08-0.334-0.08c-0.08,0-0.16,0.013-0.238,0.039l-4.537,1.261
		c-0.273,0.092-0.477,0.382-0.477,0.7v6.793C11.26,20.575,10.082,21.753,8.635,21.753z M8.635,18.003
		c-0.62,0-1.125,0.505-1.125,1.125s0.505,1.125,1.125,1.125s1.125-0.505,1.125-1.125S9.255,18.003,8.635,18.003z M16.135,15.753
		c-0.62,0-1.125,0.505-1.125,1.125s0.505,1.125,1.125,1.125s1.125-0.505,1.125-1.125S16.755,15.753,16.135,15.753z"/>
</g>
</svg>
