<?xml version="1.0" encoding="utf-8"?>
<!-- Generator: Adobe Illustrator 22.1.0, SVG Export Plug-In . SVG Version: 6.00 Build 0)  -->
<svg version="1.1" id="Layer_1" xmlns="http://www.w3.org/2000/svg" xmlns:xlink="http://www.w3.org/1999/xlink" x="0px" y="0px"
	 viewBox="0 0 24 24" style="enable-background:new 0 0 24 24;" xml:space="preserve">
<title>app-window-graph</title>
<g>
	<path d="M2.26,22.503c-1.241,0-2.25-1.009-2.25-2.25V3.869c0.003-1.301,1.063-2.362,2.363-2.366h19.28
		c1.297,0.004,2.354,1.061,2.357,2.356v16.279c-0.003,1.301-1.063,2.362-2.363,2.365C21.646,22.503,2.26,22.503,2.26,22.503z
		 M1.51,20.253c0,0.414,0.336,0.75,0.75,0.75h19.385c0.475-0.001,0.864-0.39,0.865-0.867v-6.633h-5.069
		c-0.285,0-0.542,0.159-0.67,0.415l-1.781,3.556c-0.18,0.358-0.488,0.625-0.867,0.751c-0.154,0.051-0.313,0.076-0.472,0.076
		c-0.648,0-1.22-0.413-1.424-1.027l-1.855-5.564l-1.776,3.549c-0.384,0.767-1.155,1.244-2.012,1.244H1.51V20.253z M10.373,10.208
		c0.23,0,0.462,0.055,0.669,0.158c0.354,0.177,0.629,0.495,0.754,0.871l1.854,5.563l1.78-3.553c0.382-0.766,1.153-1.243,2.011-1.244
		h5.07v-4.5h-21v7.5h5.073c0.286,0,0.543-0.159,0.671-0.415l1.775-3.551C9.285,10.526,9.799,10.208,10.373,10.208z M22.51,6.003
		V3.861c-0.001-0.471-0.387-0.856-0.859-0.858H18.01v3H22.51z M16.51,6.003v-3h-3v3H16.51z M12.01,6.003v-3H2.375
		C1.899,3.005,1.511,3.394,1.51,3.871v2.132H12.01z"/>
</g>
</svg>
