<?xml version="1.0" encoding="utf-8"?>
<!-- Generator: Adobe Illustrator 22.1.0, SVG Export Plug-In . SVG Version: 6.00 Build 0)  -->
<svg version="1.1" id="Layer_1" xmlns="http://www.w3.org/2000/svg" xmlns:xlink="http://www.w3.org/1999/xlink" x="0px" y="0px"
	 viewBox="0 0 24 24" style="enable-background:new 0 0 24 24;" xml:space="preserve">
<title>app-window-eye</title>
<g>
	<path d="M3.01,22.503c-1.241,0-2.25-1.009-2.25-2.25v-16.5c0-1.241,1.009-2.25,2.25-2.25h18c1.241,0,2.25,1.009,2.25,2.25v16.5
		c0,1.241-1.009,2.25-2.25,2.25H3.01z M2.26,20.253c0,0.414,0.336,0.75,0.75,0.75h18c0.414,0,0.75-0.336,0.75-0.75V7.503H2.26
		V20.253z M21.76,6.003v-2.25c0-0.414-0.336-0.75-0.75-0.75h-18c-0.414,0-0.75,0.336-0.75,0.75v2.25H21.76z"/>
	<path d="M12.01,18.75c-3.357,0-5.626-2.515-6.446-3.597c-0.406-0.529-0.406-1.272,0.003-1.804c0.824-1.08,3.104-3.593,6.443-3.593
		c3.343,0,5.62,2.515,6.444,3.596c0.409,0.531,0.408,1.275-0.002,1.807C17.634,16.237,15.365,18.75,12.01,18.75z M12.01,11.256
		c-2.669,0-4.562,2.101-5.252,3.005c0.685,0.888,2.568,2.989,5.252,2.989c2.677,0,4.557-2.09,5.246-2.996
		C16.562,13.346,14.675,11.256,12.01,11.256z"/>
	<circle cx="12.01" cy="14.253" r="1.125"/>
</g>
</svg>
