<?xml version="1.0" encoding="utf-8"?>
<!-- Generator: Adobe Illustrator 22.1.0, SVG Export Plug-In . SVG Version: 6.00 Build 0)  -->
<svg version="1.1" id="Layer_1" xmlns="http://www.w3.org/2000/svg" xmlns:xlink="http://www.w3.org/1999/xlink" x="0px" y="0px"
	 viewBox="0 0 24 24" style="enable-background:new 0 0 24 24;" xml:space="preserve">
<title>app-window-subtract</title>
<g>
	<path d="M2.26,21.003c-1.241,0-2.25-1.009-2.25-2.25v-16.5c0-1.241,1.009-2.25,2.25-2.25h18c1.241,0,2.25,1.009,2.25,2.25v6
		c0,0.414-0.336,0.75-0.75,0.75s-0.75-0.336-0.75-0.75v-2.25H1.51v12.75c0,0.414,0.336,0.75,0.75,0.75h6
		c0.414,0,0.75,0.336,0.75,0.75s-0.336,0.75-0.75,0.75H2.26z M21.01,4.503v-2.25c0-0.414-0.336-0.75-0.75-0.75h-18
		c-0.414,0-0.75,0.336-0.75,0.75v2.25H21.01z"/>
	<path d="M17.26,24.003c-3.722,0-6.75-3.028-6.75-6.75s3.028-6.75,6.75-6.75s6.75,3.028,6.75,6.75S20.982,24.003,17.26,24.003z
		 M17.26,12.003c-2.895,0-5.25,2.355-5.25,5.25s2.355,5.25,5.25,5.25s5.25-2.355,5.25-5.25S20.155,12.003,17.26,12.003z"/>
	<path d="M14.26,18.003c-0.414,0-0.75-0.336-0.75-0.75s0.336-0.75,0.75-0.75h6c0.414,0,0.75,0.336,0.75,0.75s-0.336,0.75-0.75,0.75
		H14.26z"/>
</g>
</svg>
