<?xml version="1.0" encoding="utf-8"?>
<!-- Generator: Adobe Illustrator 22.1.0, SVG Export Plug-In . SVG Version: 6.00 Build 0)  -->
<svg version="1.1" id="Layer_1" xmlns="http://www.w3.org/2000/svg" xmlns:xlink="http://www.w3.org/1999/xlink" x="0px" y="0px"
	 viewBox="0 0 24 24" style="enable-background:new 0 0 24 24;" xml:space="preserve">
<title>app-window-user</title>
<g>
	<path d="M2.26,21.003c-1.241,0-2.25-1.009-2.25-2.25v-16.5c0-1.241,1.009-2.25,2.25-2.25h18c1.241,0,2.25,1.009,2.25,2.25v6
		c0,0.414-0.336,0.75-0.75,0.75s-0.75-0.336-0.75-0.75v-2.25H1.51v12.75c0,0.414,0.336,0.75,0.75,0.75h7.5
		c0.414,0,0.75,0.336,0.75,0.75s-0.336,0.75-0.75,0.75H2.26z M21.01,4.503v-2.25c0-0.414-0.336-0.75-0.75-0.75h-18
		c-0.414,0-0.75,0.336-0.75,0.75v2.25H21.01z"/>
	<path d="M12.76,24c-0.414,0-0.75-0.336-0.75-0.75v-1.5c0.001-2.692,1.798-4.987,4.255-5.739c-0.975-0.594-1.63-1.668-1.63-2.883
		c0-1.861,1.514-3.375,3.375-3.375s3.375,1.514,3.375,3.375c0,1.215-0.655,2.289-1.63,2.883c2.458,0.751,4.255,3.046,4.255,5.739
		v1.5c0,0.414-0.336,0.75-0.75,0.75H12.76z M22.51,22.5v-0.75c0-2.481-2.019-4.5-4.5-4.5c-2.48,0.001-4.499,2.02-4.5,4.5v0.75H22.51
		z M18.01,11.253c-1.034,0-1.875,0.841-1.875,1.875s0.841,1.875,1.875,1.875s1.875-0.841,1.875-1.875S19.044,11.253,18.01,11.253z"
		/>
	<path d="M3.76,10.503c-0.414,0-0.75-0.336-0.75-0.75s0.336-0.75,0.75-0.75h1.5c0.414,0,0.75,0.336,0.75,0.75s-0.336,0.75-0.75,0.75
		H3.76z"/>
	<path d="M3.76,13.503c-0.414,0-0.75-0.336-0.75-0.75s0.336-0.75,0.75-0.75h1.5c0.414,0,0.75,0.336,0.75,0.75s-0.336,0.75-0.75,0.75
		H3.76z"/>
	<path d="M3.76,16.503c-0.414,0-0.75-0.336-0.75-0.75s0.336-0.75,0.75-0.75h1.5c0.414,0,0.75,0.336,0.75,0.75s-0.336,0.75-0.75,0.75
		H3.76z"/>
	<path d="M8.26,10.503c-0.414,0-0.75-0.336-0.75-0.75s0.336-0.75,0.75-0.75h5.25c0.414,0,0.75,0.336,0.75,0.75
		s-0.336,0.75-0.75,0.75H8.26z"/>
	<path d="M8.26,13.503c-0.414,0-0.75-0.336-0.75-0.75s0.336-0.75,0.75-0.75h4.5c0.414,0,0.75,0.336,0.75,0.75s-0.336,0.75-0.75,0.75
		H8.26z"/>
	<path d="M8.26,16.503c-0.414,0-0.75-0.336-0.75-0.75s0.336-0.75,0.75-0.75h3.75c0.414,0,0.75,0.336,0.75,0.75
		s-0.336,0.75-0.75,0.75H8.26z"/>
</g>
</svg>
