<?xml version="1.0" encoding="utf-8"?>
<!-- Generator: Adobe Illustrator 22.1.0, SVG Export Plug-In . SVG Version: 6.00 Build 0)  -->
<svg version="1.1" id="Layer_1" xmlns="http://www.w3.org/2000/svg" xmlns:xlink="http://www.w3.org/1999/xlink" x="0px" y="0px"
	 viewBox="0 0 24 24" style="enable-background:new 0 0 24 24;" xml:space="preserve">
<title>app-window-skull</title>
<g>
	<path d="M19.51,21.75c-0.414,0-0.75-0.336-0.75-0.75s0.336-0.75,0.75-0.75h1.5c0.414,0,0.75-0.336,0.75-0.75V6.753H2.26V19.5
		c0,0.414,0.336,0.75,0.75,0.75h1.5c0.414,0,0.75,0.336,0.75,0.75s-0.336,0.75-0.75,0.75h-1.5c-1.241,0-2.25-1.009-2.25-2.25V3
		c0-1.241,1.009-2.25,2.25-2.25h18c1.241,0,2.25,1.009,2.25,2.25v16.5c0,1.241-1.009,2.25-2.25,2.25H19.51z M21.76,5.253V3
		c0-0.414-0.336-0.75-0.75-0.75h-18C2.596,2.25,2.26,2.587,2.26,3v2.253H21.76z"/>
	<path d="M11.958,23.25H9.76c-0.827,0-1.5-0.673-1.5-1.5v-1.638c-1.882-0.996-3.053-2.984-3-5.131c0-1.787,0.703-3.479,1.979-4.754
		C8.516,8.953,10.21,8.25,12.01,8.25c3.719,0,6.747,3.026,6.75,6.745c0.052,2.137-1.118,4.125-3,5.12v1.635
		c0,0.827-0.673,1.5-1.5,1.5h-2.196c-0.016,0.002-0.035,0.003-0.054,0.003C11.998,23.253,11.975,23.252,11.958,23.25z M14.26,21.75
		v-2.109c0-0.302,0.18-0.574,0.459-0.691c1.587-0.667,2.584-2.21,2.541-3.931c0-2.914-2.355-5.269-5.25-5.269
		c-2.895,0-5.25,2.355-5.25,5.25c-0.042,1.735,0.955,3.28,2.541,3.947c0.279,0.117,0.459,0.389,0.459,0.691v2.112h1.5v-1.497
		c0-0.414,0.336-0.75,0.75-0.75s0.75,0.336,0.75,0.75v1.497H14.26z"/>
	<circle cx="9.76" cy="15.003" r="1.5"/>
	<circle cx="14.26" cy="15.003" r="1.5"/>
</g>
</svg>
