<?xml version="1.0" encoding="utf-8"?>
<!-- Generator: Adobe Illustrator 22.1.0, SVG Export Plug-In . SVG Version: 6.00 Build 0)  -->
<svg version="1.1" id="Layer_1" xmlns="http://www.w3.org/2000/svg" xmlns:xlink="http://www.w3.org/1999/xlink" x="0px" y="0px"
	 viewBox="0 0 24 24" style="enable-background:new 0 0 24 24;" xml:space="preserve">
<title>app-window-multiple</title>
<g>
	<path d="M2.26,16.503c-1.241,0-2.25-1.009-2.25-2.25v-10.5c0-1.241,1.009-2.25,2.25-2.25h13.5c1.241,0,2.25,1.009,2.25,2.25v10.5
		c0,1.241-1.009,2.25-2.25,2.25H2.26z M1.51,14.253c0,0.414,0.336,0.75,0.75,0.75h13.5c0.414,0,0.75-0.336,0.75-0.75v-6.75h-15
		V14.253z M16.51,6.003v-2.25c0-0.414-0.336-0.75-0.75-0.75H2.26c-0.414,0-0.75,0.336-0.75,0.75v2.25H16.51z"/>
	<path d="M5.26,19.503c-0.414,0-0.75-0.336-0.75-0.75s0.336-0.75,0.75-0.75h13.5c0.414,0,0.75-0.336,0.75-0.75v-10.5
		c0-0.414,0.336-0.75,0.75-0.75s0.75,0.336,0.75,0.75v10.5c0,1.241-1.009,2.25-2.25,2.25H5.26z"/>
	<path d="M8.26,22.503c-0.414,0-0.75-0.336-0.75-0.75s0.336-0.75,0.75-0.75h13.5c0.414,0,0.75-0.336,0.75-0.75v-10.5
		c0-0.414,0.336-0.75,0.75-0.75s0.75,0.336,0.75,0.75v10.5c0,1.241-1.009,2.25-2.25,2.25H8.26z"/>
</g>
</svg>
