<?xml version="1.0" encoding="utf-8"?>
<!-- Generator: Adobe Illustrator 22.1.0, SVG Export Plug-In . SVG Version: 6.00 Build 0)  -->
<svg version="1.1" id="Layer_1" xmlns="http://www.w3.org/2000/svg" xmlns:xlink="http://www.w3.org/1999/xlink" x="0px" y="0px"
	 viewBox="0 0 24 24" style="enable-background:new 0 0 24 24;" xml:space="preserve">
<g>
	<title>music-ticket</title>
	<path d="M1.5,20C0.673,20,0,19.327,0,18.5V15c0-0.276,0.224-0.5,0.5-0.5C1.879,14.5,3,13.378,3,12c0-1.379-1.121-2.5-2.5-2.5
		C0.224,9.5,0,9.276,0,9V5.5C0,4.673,0.673,4,1.5,4h21C23.327,4,24,4.673,24,5.5V9c0,0.276-0.224,0.5-0.5,0.5
		c-1.378,0-2.5,1.121-2.5,2.5c0,1.378,1.122,2.5,2.5,2.5c0.276,0,0.5,0.224,0.5,0.5v3.5c0,0.827-0.673,1.5-1.5,1.5H1.5z M1,18.5
		C1,18.776,1.224,19,1.5,19h21c0.276,0,0.5-0.224,0.5-0.5v-3.036c-1.7-0.245-3-1.724-3-3.464c0-1.74,1.3-3.219,3-3.464V5.5
		C23,5.224,22.776,5,22.5,5h-21C1.224,5,1,5.224,1,5.5v3.036C2.7,8.781,4,10.26,4,12c0,1.74-1.3,3.219-3,3.464V18.5z"/>
	<circle cx="19" cy="7" r="0.75"/>
	<circle cx="19" cy="10" r="0.75"/>
	<circle cx="19" cy="14" r="0.75"/>
	<circle cx="19" cy="17" r="0.75"/>
	<path d="M8.25,16.5c-0.965,0-1.75-0.785-1.75-1.75S7.285,13,8.25,13c0.261,0,0.517,0.059,0.75,0.17v-2.837
		c0.001-0.647,0.413-1.218,1.026-1.422l3.024-0.841c0.137-0.046,0.293-0.072,0.451-0.072c0.646,0,1.217,0.413,1.422,1.028
		C14.974,9.179,15,9.338,15,9.5v3.75c0,0.965-0.785,1.75-1.75,1.75s-1.75-0.785-1.75-1.75s0.785-1.75,1.75-1.75
		c0.261,0,0.517,0.059,0.75,0.17V9.5c0-0.054-0.009-0.107-0.026-0.158C13.906,9.137,13.716,9,13.5,9
		c-0.053,0-0.106,0.009-0.157,0.026l-3.024,0.841C10.136,9.928,10,10.121,10,10.333v4.417C10,15.715,9.215,16.5,8.25,16.5z M8.25,14
		c-0.414,0-0.75,0.336-0.75,0.75s0.336,0.75,0.75,0.75S9,15.164,9,14.75S8.664,14,8.25,14z M13.25,12.5
		c-0.414,0-0.75,0.336-0.75,0.75S12.836,14,13.25,14S14,13.664,14,13.25S13.664,12.5,13.25,12.5z"/>
</g>
</svg>
