<?xml version="1.0" encoding="utf-8"?>
<!-- Generator: Adobe Illustrator 22.1.0, SVG Export Plug-In . SVG Version: 6.00 Build 0)  -->
<svg version="1.1" id="Layer_1" xmlns="http://www.w3.org/2000/svg" xmlns:xlink="http://www.w3.org/1999/xlink" x="0px" y="0px"
	 viewBox="0 0 24 24" style="enable-background:new 0 0 24 24;" xml:space="preserve">
<g>
	<title>music-ear</title>
	<path d="M18.009,22.816c-2.757,0-5-2.243-5-5c0-1.951-0.834-2.867-1.8-3.927c-1.082-1.188-2.2-2.415-2.2-5.073c0-3.86,3.14-7,7-7
		s7,3.14,7,7c0,0.276-0.224,0.5-0.5,0.5s-0.5-0.224-0.5-0.5c0-3.308-2.692-6-6-6s-6,2.692-6,6c0,2.271,0.899,3.257,1.939,4.399
		c1.013,1.112,2.061,2.262,2.061,4.601c0,2.206,1.794,4,4,4s4-1.794,4-4c0-0.276,0.224-0.5,0.5-0.5s0.5,0.224,0.5,0.5
		C23.009,20.573,20.766,22.816,18.009,22.816z"/>
	<path d="M4.876,18.447c-0.134,0-0.259-0.052-0.354-0.146c-4.679-4.679-4.678-12.292,0-16.971c0.094-0.094,0.22-0.146,0.354-0.146
		S5.136,1.236,5.23,1.33s0.146,0.22,0.146,0.354S5.325,1.943,5.23,2.037c-4.289,4.289-4.289,11.267,0,15.557
		c0.094,0.094,0.146,0.22,0.146,0.354s-0.052,0.259-0.146,0.354S5.01,18.447,4.876,18.447z"/>
	<path d="M7.709,15.619c-0.134,0-0.259-0.052-0.354-0.146c-3.119-3.119-3.119-8.194,0-11.313c0.094-0.094,0.22-0.146,0.354-0.146
		s0.259,0.052,0.354,0.146c0.094,0.094,0.146,0.22,0.146,0.354c0,0.134-0.052,0.259-0.146,0.354c-2.729,2.729-2.729,7.17,0,9.899
		c0.195,0.195,0.195,0.512,0,0.707C7.968,15.567,7.842,15.619,7.709,15.619z"/>
	<path d="M17.009,15.316c-1.378,0-2.5-1.122-2.5-2.5c0-0.64-0.296-0.918-0.745-1.339c-0.559-0.525-1.255-1.179-1.255-2.661
		c0-1.93,1.57-3.5,3.5-3.5s3.5,1.57,3.5,3.5c0,0.276-0.224,0.5-0.5,0.5s-0.5-0.224-0.5-0.5c0-1.379-1.122-2.5-2.5-2.5
		s-2.5,1.121-2.5,2.5c0,1.05,0.436,1.458,0.94,1.932c0.497,0.467,1.06,0.996,1.06,2.068c0,0.827,0.673,1.5,1.5,1.5
		s1.5-0.673,1.5-1.5c0-0.276,0.224-0.5,0.5-0.5s0.5,0.224,0.5,0.5C19.509,14.194,18.387,15.316,17.009,15.316z"/>
</g>
</svg>
