<?xml version="1.0" encoding="utf-8"?>
<!-- Generator: Adobe Illustrator 22.1.0, SVG Export Plug-In . SVG Version: 6.00 Build 0)  -->
<svg version="1.1" id="Layer_1" xmlns="http://www.w3.org/2000/svg" xmlns:xlink="http://www.w3.org/1999/xlink" x="0px" y="0px"
	 viewBox="0 0 24 24" style="enable-background:new 0 0 24 24;" xml:space="preserve">
<g>
	<title>camera-studio</title>
	<path d="M4.5,10.5C2.019,10.5,0,8.481,0,6s2.019-4.5,4.5-4.5S9,3.519,9,6S6.981,10.5,4.5,10.5z M4.5,2.5C2.57,2.5,1,4.07,1,6
		s1.57,3.5,3.5,3.5S8,7.93,8,6S6.43,2.5,4.5,2.5z"/>
	<path d="M13,10.5c-1.654,0-3-1.346-3-3s1.346-3,3-3s3,1.346,3,3S14.654,10.5,13,10.5z M13,5.5c-1.103,0-2,0.897-2,2s0.897,2,2,2
		c1.103,0,2-0.897,2-2S14.103,5.5,13,5.5z"/>
	<path d="M2.5,22.5C1.673,22.5,1,21.827,1,21v-8c0-0.827,0.673-1.5,1.5-1.5h14c0.827,0,1.5,0.673,1.5,1.5v1.75l4.36-1.816
		c0.161-0.085,0.343-0.13,0.526-0.13c0.046,0,0.092,0.003,0.137,0.009c0.596,0.074,1.032,0.617,0.977,1.214v5.947
		c0.021,0.228-0.03,0.461-0.143,0.659c-0.148,0.26-0.389,0.446-0.678,0.525c-0.096,0.026-0.196,0.04-0.296,0.04
		c-0.181,0-0.362-0.045-0.523-0.131L18,19.25V21c0,0.827-0.673,1.5-1.5,1.5H2.5z M2.5,12.5C2.224,12.5,2,12.724,2,13v8
		c0,0.276,0.224,0.5,0.5,0.5h14c0.276,0,0.5-0.224,0.5-0.5v-8c0-0.276-0.224-0.5-0.5-0.5H2.5z M22.769,20.154
		c0.018,0.007,0.037,0.017,0.055,0.027c0.02,0.011,0.039,0.017,0.06,0.017c0.011,0,0.021-0.001,0.032-0.004
		c0.031-0.009,0.056-0.028,0.073-0.056c0.013-0.022,0.018-0.049,0.015-0.074C23.001,20.041,23,20.02,23,20v-6
		c0-0.02,0.001-0.04,0.004-0.06c0.008-0.067-0.038-0.127-0.104-0.135l-0.016-0.001c-0.02,0-0.041,0.005-0.058,0.016
		c-0.019,0.011-0.039,0.02-0.058,0.028L18,15.833v2.333L22.769,20.154z"/>
</g>
</svg>
