<svg xmlns="http://www.w3.org/2000/svg" viewBox="0 0 24 24"><defs><style>.a{fill:none;stroke:currentColor;stroke-linecap:round;stroke-linejoin:round;}</style></defs><title>paper-write</title><path class="a" d="M18.5,19v3.5a1,1,0,0,1-1,1H1.5a1,1,0,0,1-1-1V4.5a1,1,0,0,1,1-1h3"/><path class="a" d="M14.5,3.5h3a1,1,0,0,1,1,1V8"/><circle class="a" cx="9.5" cy="1.999" r="1.5"/><path class="a" d="M10.915,2.5H13.5a1,1,0,0,1,1,1v1a1,1,0,0,1-1,1h-8a1,1,0,0,1-1-1v-1a1,1,0,0,1,1-1H8.085"/><line class="a" x1="3.5" y1="9.499" x2="15.5" y2="9.499"/><line class="a" x1="3.5" y1="13.499" x2="12.966" y2="13.499"/><line class="a" x1="3.5" y1="17.499" x2="11.483" y2="17.499"/><path class="a" d="M17,17.5l-3.5,1,1-3.5,5.982-5.982a1.768,1.768,0,0,1,2.5,2.5Z"/></svg>