<svg xmlns="http://www.w3.org/2000/svg" viewBox="0 0 24 24"><defs><style>.a{fill:none;stroke:currentColor;stroke-linecap:round;stroke-linejoin:round;}</style></defs><title>bluetooth-transfer</title><path class="a" d="M8.5,14v4.5a1,1,0,0,1-1,1h-6a1,1,0,0,1-1-1V5.5a1,1,0,0,1,1-1h6a1,1,0,0,1,1,1V9"/><line class="a" x1="8.5" y1="7.5" x2="0.5" y2="7.5"/><line class="a" x1="8.5" y1="15.5" x2="0.5" y2="15.5"/><line class="a" x1="5.5" y1="11.5" x2="16" y2="11.5"/><polyline class="a" points="13 14.515 16 11.515 13 8.515"/><path class="a" d="M4.5,17.25a.25.25,0,0,1,.25.25h0a.25.25,0,0,1-.25.25h0a.25.25,0,0,1-.25-.25h0a.25.25,0,0,1,.25-.25"/><line class="a" x1="4.5" y1="17.25" x2="4.5" y2="17.25"/><polyline class="a" points="17.5 14 23.5 9 20.5 6.5 20.5 16.5 23.5 14 17.5 9"/></svg>