<svg id="Bold" xmlns="http://www.w3.org/2000/svg" viewBox="0 0 24 24"><title>gender-transgender</title><path d="M22,.75a.5.5,0,0,0-.5-.5H18.471a.5.5,0,0,0-.365.842l.739.79a.25.25,0,0,1,0,.346l-2.7,2.744A.25.25,0,0,1,15.816,5,6.455,6.455,0,0,0,8.183,5a.247.247,0,0,1-.325-.027L7.6,4.714a.25.25,0,0,1,0-.352l.671-.673A1,1,0,0,0,6.862,2.275l-.656.657a.247.247,0,0,1-.178.073.25.25,0,0,1-.177-.074l-.692-.7a.25.25,0,0,1,0-.346l.74-.79A.5.5,0,0,0,5.529.25H2.5a.5.5,0,0,0-.5.5V3.985a.5.5,0,0,0,.865.342l.58-.619a.248.248,0,0,1,.18-.079.251.251,0,0,1,.181.074l.634.645a.25.25,0,0,1,0,.352L4,5.143A1,1,0,0,0,5.41,6.557l.427-.427a.249.249,0,0,1,.355,0l.3.308a.251.251,0,0,1,.033.311A6.486,6.486,0,0,0,10.8,16.63a.25.25,0,0,1,.2.245V19a.25.25,0,0,1-.25.25H9.411a1,1,0,0,0,0,2H10.75a.25.25,0,0,1,.25.25v1.25a1,1,0,0,0,2,0V21.5a.25.25,0,0,1,.25-.25h1.338a1,1,0,1,0,0-2H13.25A.25.25,0,0,1,13,19V16.875a.25.25,0,0,1,.2-.245,6.487,6.487,0,0,0,4.268-9.881.249.249,0,0,1,.032-.31L20.194,3.7a.251.251,0,0,1,.181-.074.248.248,0,0,1,.18.079l.58.619A.5.5,0,0,0,22,3.985Zm-10,14a4.5,4.5,0,1,1,4.5-4.5A4.505,4.505,0,0,1,12,14.75Z"/><path d="M22,.75a.5.5,0,0,0-.5-.5H18.471a.5.5,0,0,0-.365.842l.739.79a.25.25,0,0,1,0,.346l-2.7,2.744A.25.25,0,0,1,15.816,5,6.455,6.455,0,0,0,8.183,5a.247.247,0,0,1-.325-.027L7.6,4.714a.25.25,0,0,1,0-.352l.671-.673A1,1,0,0,0,6.862,2.275l-.656.657a.247.247,0,0,1-.178.073.25.25,0,0,1-.177-.074l-.692-.7a.25.25,0,0,1,0-.346l.74-.79A.5.5,0,0,0,5.529.25H2.5a.5.5,0,0,0-.5.5V3.985a.5.5,0,0,0,.865.342l.58-.619a.248.248,0,0,1,.18-.079.251.251,0,0,1,.181.074l.634.645a.25.25,0,0,1,0,.352L4,5.143A1,1,0,0,0,5.41,6.557l.427-.427a.249.249,0,0,1,.355,0l.3.308a.251.251,0,0,1,.033.311A6.486,6.486,0,0,0,10.8,16.63a.25.25,0,0,1,.2.245V19a.25.25,0,0,1-.25.25H9.411a1,1,0,0,0,0,2H10.75a.25.25,0,0,1,.25.25v1.25a1,1,0,0,0,2,0V21.5a.25.25,0,0,1,.25-.25h1.338a1,1,0,1,0,0-2H13.25A.25.25,0,0,1,13,19V16.875a.25.25,0,0,1,.2-.245,6.487,6.487,0,0,0,4.268-9.881.249.249,0,0,1,.032-.31L20.194,3.7a.251.251,0,0,1,.181-.074.248.248,0,0,1,.18.079l.58.619A.5.5,0,0,0,22,3.985Zm-10,14a4.5,4.5,0,1,1,4.5-4.5A4.505,4.505,0,0,1,12,14.75Z"/></svg>