<svg xmlns="http://www.w3.org/2000/svg" viewBox="0 0 24 24"><title>common-file-horizontal-image</title><path d="M24,8.414a1,1,0,0,0-.293-.707L18.293,2.293A1,1,0,0,0,17.586,2H2A2,2,0,0,0,0,4V20a2,2,0,0,0,2,2H22a2,2,0,0,0,2-2ZM22,19.5a.5.5,0,0,1-.5.5H2.5a.5.5,0,0,1-.5-.5V4.5A.5.5,0,0,1,2.5,4H16.965a.5.5,0,0,1,.353.146l4.536,4.536A.5.5,0,0,1,22,9.035Z"/><circle cx="8.299" cy="8" r="2"/><path d="M13.723,10.678a.5.5,0,0,0-.848,0L10.449,14.56a.251.251,0,0,1-.424,0l-.864-1.382a.5.5,0,0,0-.848,0L5.538,17.617A.25.25,0,0,0,5.75,18h12.1a.25.25,0,0,0,.212-.383Z"/></svg>