<svg xmlns="http://www.w3.org/2000/svg" viewBox="0 0 24 24"><title>common-file-text-clock</title><path d="M20.125,7.375a1,1,0,0,0-1-1h-7a1,1,0,0,0,0,2h7A1,1,0,0,0,20.125,7.375Z"/><path d="M23.539,2.875,21.125.46a2,2,0,0,0-1.414-.585H8.125a2,2,0,0,0-2,2V9.15a.248.248,0,0,0,.242.25c.366.006,1.038.034,1.485.083a.246.246,0,0,0,.273-.248V2.375a.5.5,0,0,1,.5-.5H19.5a.5.5,0,0,1,.353.146l2.122,2.122a.5.5,0,0,1,.146.353V17.875a.5.5,0,0,1-.5.5H14.767a.245.245,0,0,0-.241.21,7.956,7.956,0,0,1-.364,1.458.244.244,0,0,0,.228.331h7.735a2,2,0,0,0,2-2V4.29A2,2,0,0,0,23.539,2.875Z"/><path d="M12.625,10.875a.947.947,0,0,0-.634.245.247.247,0,0,0,.019.351,8.062,8.062,0,0,1,1.153,1.3.24.24,0,0,0,.2.1h3.266a1,1,0,0,0,0-2Z"/><path d="M6.625,10.625a6.75,6.75,0,1,0,6.75,6.75A6.758,6.758,0,0,0,6.625,10.625Zm0,11.5a4.75,4.75,0,1,1,4.75-4.75A4.756,4.756,0,0,1,6.625,22.125Z"/><path d="M8.625,16.375H7.807a.176.176,0,0,1-.182-.2v-1.3a1,1,0,0,0-2,0v2.5a1,1,0,0,0,1,1h2a1,1,0,0,0,0-2Z"/></svg>