<svg xmlns="http://www.w3.org/2000/svg" viewBox="0 0 24 24"><title>common-file-stack-alternate</title><path d="M21.482,3.569,18.618.537A1.819,1.819,0,0,0,17.321,0H11A2,2,0,0,0,9,2V3.5H6.5a1,1,0,0,0-1,1V7H3A1,1,0,0,0,2,8V22.167A1.835,1.835,0,0,0,3.833,24H14.5a1,1,0,0,0,1-1V20.5H18a1,1,0,0,0,1-1V17h1.167A1.835,1.835,0,0,0,22,15.167V4.845A1.8,1.8,0,0,0,21.482,3.569ZM13,22H4.5a.5.5,0,0,1-.5-.5V9.5A.5.5,0,0,1,4.5,9h.75a.25.25,0,0,1,.25.25v9.417A1.833,1.833,0,0,0,7.333,20.5H13.25a.25.25,0,0,1,.25.25v.75A.5.5,0,0,1,13,22Zm3.5-3.5H8a.5.5,0,0,1-.5-.5V6A.5.5,0,0,1,8,5.5h.75A.25.25,0,0,1,9,5.75V15a2,2,0,0,0,2,2h5.75a.25.25,0,0,1,.25.25V18A.5.5,0,0,1,16.5,18.5Zm3-3.5h-8a.5.5,0,0,1-.5-.5V2.5a.5.5,0,0,1,.5-.5h5.535a.5.5,0,0,1,.363.157l2.465,2.61A.5.5,0,0,1,20,5.11V14.5A.5.5,0,0,1,19.5,15Z"/></svg>