<svg xmlns="http://www.w3.org/2000/svg" viewBox="0 0 24 24"><title>common-file-rotate</title><path d="M9.25,14.333H2.5a.5.5,0,0,1-.5-.5V2.5A.5.5,0,0,1,2.5,2H8.534a.5.5,0,0,1,.364.157l2.466,2.61a.5.5,0,0,1,.136.343V6.421a.249.249,0,0,0,.251.25l1.5,0a.251.251,0,0,0,.249-.25V4.845a1.8,1.8,0,0,0-.518-1.276L10.118.537A1.819,1.819,0,0,0,8.821,0H2A2,2,0,0,0,0,2V14a2.293,2.293,0,0,0,2,2.333H9.25a.25.25,0,0,0,.25-.25v-1.5A.25.25,0,0,0,9.25,14.333Z"/><path d="M23.482,11.236,20.618,8.2a1.819,1.819,0,0,0-1.3-.537H12.5a2,2,0,0,0-2,2v12A2.294,2.294,0,0,0,12.5,24h9.667A1.835,1.835,0,0,0,24,22.167V12.511A1.8,1.8,0,0,0,23.482,11.236ZM22,21.5a.5.5,0,0,1-.5.5H13a.5.5,0,0,1-.5-.5V10.167a.5.5,0,0,1,.5-.5h6.034a.5.5,0,0,1,.364.156l2.466,2.611a.5.5,0,0,1,.136.343Z"/><path d="M16.646,4.854A.5.5,0,0,0,17.5,4.5V3.621a.124.124,0,0,1,.123-.12H20a.5.5,0,0,1,.5.5V5.5a1,1,0,0,0,2,0V4A2.5,2.5,0,0,0,20,1.5H17.621a.125.125,0,0,1-.121-.122V.5a.5.5,0,0,0-.854-.354l-2,2a.5.5,0,0,0,0,.708Z"/><path d="M5.854,19.146A.5.5,0,0,0,5,19.5v.875a.126.126,0,0,1-.125.125H2.5A.5.5,0,0,1,2,20V18.5a1,1,0,0,0-2,0V20a2.5,2.5,0,0,0,2.5,2.5H5v1a.5.5,0,0,0,.309.462.5.5,0,0,0,.545-.108l2-2a.5.5,0,0,0,0-.708Z"/></svg>