<svg xmlns="http://www.w3.org/2000/svg" viewBox="0 0 24 24"><title>common-file-bookmark-alternate</title><path d="M21.707,5.707,16.293.293A1,1,0,0,0,15.586,0H4A2,2,0,0,0,2,2V22a2,2,0,0,0,2,2H20a2,2,0,0,0,2-2V6.414A1,1,0,0,0,21.707,5.707ZM19.5,22H4.5a.5.5,0,0,1-.5-.5V2.5A.5.5,0,0,1,4.5,2H6.25a.25.25,0,0,1,.25.25V13a.5.5,0,0,0,.854.354l1.969-1.97a.25.25,0,0,1,.354,0l1.969,1.97A.5.5,0,0,0,12.5,13V2.25A.25.25,0,0,1,12.75,2h2.215a.5.5,0,0,1,.353.146l4.536,4.536A.5.5,0,0,1,20,7.035V21.5A.5.5,0,0,1,19.5,22Z"/></svg>