<svg xmlns="http://www.w3.org/2000/svg" viewBox="0 0 24 24"><title>common-file-text-upload</title><path d="M12,8.5h7a1,1,0,0,0,0-2H12a1,1,0,0,0,0,2Z"/><path d="M24,4.415A2,2,0,0,0,23.414,3L21,.585A2,2,0,0,0,19.586,0H8A2,2,0,0,0,6,2V9.275a.248.248,0,0,0,.242.25c.366.006,1.038.034,1.485.083A.246.246,0,0,0,8,9.36V2.5A.5.5,0,0,1,8.5,2H19.379a.5.5,0,0,1,.353.146l2.122,2.122A.5.5,0,0,1,22,4.621V18a.5.5,0,0,1-.5.5H14.642a.245.245,0,0,0-.241.21,7.956,7.956,0,0,1-.364,1.458.244.244,0,0,0,.228.331H22a2,2,0,0,0,2-2Z"/><path d="M17.5,12a1,1,0,0,0-1-1h-4a.955.955,0,0,0-.679.288.172.172,0,0,0,.007.256,8.065,8.065,0,0,1,1.21,1.353.24.24,0,0,0,.2.1H16.5A1,1,0,0,0,17.5,12Z"/><path d="M6.5,11A6.5,6.5,0,1,0,13,17.5,6.508,6.508,0,0,0,6.5,11Zm2.391,5.688A.5.5,0,0,1,8.5,17.5H7.75a.25.25,0,0,0-.25.25V20.5a1,1,0,0,1-2,0V17.75a.25.25,0,0,0-.25-.25H4.5a.5.5,0,0,1-.391-.812l2-2.5a.517.517,0,0,1,.782,0Z"/></svg>