<svg xmlns="http://www.w3.org/2000/svg" viewBox="0 0 24 24"><title>common-file-star</title><path d="M23.414,3,21,.586A2,2,0,0,0,19.585,0H8A2,2,0,0,0,6,2V8.792a.252.252,0,0,0,.232.249,8.446,8.446,0,0,1,1.452.211A.248.248,0,0,0,8,9.012V2.5A.5.5,0,0,1,8.5,2H19.379a.5.5,0,0,1,.353.146l2.122,2.122A.5.5,0,0,1,22,4.621V18a.5.5,0,0,1-.5.5H14.165a.232.232,0,0,0-.163.06c-.276.251-1.329,1.2-1.329,1.2a.455.455,0,0,0-.124.475c.086.265.445.265.445.265H22a2,2,0,0,0,2-2V4.415A2,2,0,0,0,23.414,3Z"/><path d="M10.331,19.4a.25.25,0,0,1,.063-.286l2.213-1.972a1.264,1.264,0,0,0,.3-1.378A1.234,1.234,0,0,0,11.738,15h-2.5a.249.249,0,0,1-.229-.151L7.664,11.731,7.651,11.7a1.293,1.293,0,0,0-2.317.027L3.988,14.848a.252.252,0,0,1-.23.151h-2.5a1.231,1.231,0,0,0-1.166.759,1.272,1.272,0,0,0,.32,1.4L2.6,19.11a.25.25,0,0,1,.063.286L1.444,22.21a1.255,1.255,0,0,0,.314,1.452,1.278,1.278,0,0,0,1.506.166l3.112-1.753a.254.254,0,0,1,.245,0l3.113,1.753a1.277,1.277,0,0,0,1.506-.166,1.255,1.255,0,0,0,.315-1.451Z"/></svg>