<svg xmlns="http://www.w3.org/2000/svg" viewBox="0 0 24 24"><title>common-file-double-horizontal</title><path d="M22.192,6.362,19.2,3.538A1.818,1.818,0,0,0,17.905,3H6.583A1.835,1.835,0,0,0,4.75,4.833V6.5H3.083A1.835,1.835,0,0,0,1.25,8.333V19.167A1.835,1.835,0,0,0,3.083,21H17.417a1.835,1.835,0,0,0,1.833-1.833V17.5h1.667a1.835,1.835,0,0,0,1.833-1.833V7.678A1.856,1.856,0,0,0,22.192,6.362ZM16.75,19h-13a.5.5,0,0,1-.5-.5V9a.5.5,0,0,1,.5-.5H4.5a.25.25,0,0,1,.25.25v6.917A1.833,1.833,0,0,0,6.583,17.5H17a.25.25,0,0,1,.25.25v.75A.5.5,0,0,1,16.75,19Zm3.5-3.5h-13a.5.5,0,0,1-.5-.5V5.5a.5.5,0,0,1,.5-.5H17.639a.5.5,0,0,1,.343.136L20.593,7.6a.5.5,0,0,1,.157.364V15A.5.5,0,0,1,20.25,15.5Z"/></svg>