<svg xmlns="http://www.w3.org/2000/svg" viewBox="0 0 24 24"><title>common-file-double-1-alternate</title><path d="M20.482,4.819,17.619,1.788a1.82,1.82,0,0,0-1.3-.538H8.333A1.835,1.835,0,0,0,6.5,3.083V4.75H4.833A1.835,1.835,0,0,0,3,6.583V20.917A1.835,1.835,0,0,0,4.833,22.75H15.667A1.835,1.835,0,0,0,17.5,20.917V19.25h1.667A1.835,1.835,0,0,0,21,17.417V6.1A1.8,1.8,0,0,0,20.482,4.819ZM15,20.75H5.5a.5.5,0,0,1-.5-.5v-13a.5.5,0,0,1,.5-.5h.75A.25.25,0,0,1,6.5,7V17.417A1.833,1.833,0,0,0,8.333,19.25H15.25a.25.25,0,0,1,.25.25v.75A.5.5,0,0,1,15,20.75Zm3.5-3.5H9a.5.5,0,0,1-.5-.5v-13a.5.5,0,0,1,.5-.5h7.035a.5.5,0,0,1,.363.157l2.465,2.61A.5.5,0,0,1,19,6.36V16.75A.5.5,0,0,1,18.5,17.25Z"/></svg>