<svg xmlns="http://www.w3.org/2000/svg" viewBox="0 0 24 24"><title>common-file-text-refresh</title><path d="M20,7.5a1,1,0,0,0-1-1H12a1,1,0,0,0,0,2h7A1,1,0,0,0,20,7.5Z"/><path d="M23.414,3,21,.585A2,2,0,0,0,19.586,0H8A2,2,0,0,0,6,2V9.8a.245.245,0,0,0,.23.249c.35.02,1.016.069,1.487.14A.247.247,0,0,0,8,9.939V2.5A.5.5,0,0,1,8.5,2H19.379a.5.5,0,0,1,.353.146l2.122,2.122A.5.5,0,0,1,22,4.621V18a.5.5,0,0,1-.5.5H14.126a.243.243,0,0,0-.239.206,7.192,7.192,0,0,1-.408,1.453.244.244,0,0,0,.225.34H22a2,2,0,0,0,2-2V4.415A2,2,0,0,0,23.414,3Z"/><path d="M14.906,13H16.5a1,1,0,0,0,0-2H14.7a.293.293,0,0,0-.31.4,1.917,1.917,0,0,1,.107.625v.525A.422.422,0,0,0,14.906,13Z"/><path d="M12.92,11.56a.5.5,0,0,0-.545.108l-1.3,1.3a.246.246,0,0,1-.343,0,6.31,6.31,0,0,0-4.075-1.716A6.464,6.464,0,0,0,0,17.543,6.374,6.374,0,0,0,11.357,21.6,1,1,0,1,0,9.8,20.354a4.376,4.376,0,1,1-3.42-7.1A4.34,4.34,0,0,1,9.3,14.372a.256.256,0,0,1,0,.367L7.918,16.125a.5.5,0,0,0,.354.854h4.457a.5.5,0,0,0,.5-.5V12.021A.5.5,0,0,0,12.92,11.56Z"/></svg>