<svg xmlns="http://www.w3.org/2000/svg" viewBox="0 0 24 24"><title>common-file-text-sync</title><path d="M20,7.5a1,1,0,0,0-1-1H12a1,1,0,0,0,0,2h7A1,1,0,0,0,20,7.5Z"/><path d="M24,4.415A2,2,0,0,0,23.414,3L21,.585A2,2,0,0,0,19.586,0H8A2,2,0,0,0,6,2V9.277a.247.247,0,0,0,.241.249c.364.009,1.037.041,1.485.093A.247.247,0,0,0,8,9.371V2.5A.5.5,0,0,1,8.5,2H19.379a.5.5,0,0,1,.353.146l2.122,2.122A.5.5,0,0,1,22,4.621V18a.5.5,0,0,1-.5.5H14.642a.245.245,0,0,0-.241.21,7.956,7.956,0,0,1-.364,1.458.244.244,0,0,0,.228.331H22a2,2,0,0,0,2-2Z"/><path d="M14.765,13H16.5a1,1,0,0,0,0-2H14.349a.115.115,0,0,0-.1.173,1.946,1.946,0,0,1,.322,1.061v.578A.188.188,0,0,0,14.765,13Z"/><path d="M11.77,18.6a1,1,0,0,0-1.256.582,4.047,4.047,0,0,1-1.278,1.929,4.162,4.162,0,0,1-5.656-.47.255.255,0,0,1,.014-.349l1.717-1.717a.5.5,0,0,0-.354-.853H.5a.5.5,0,0,0-.5.5V22.68a.5.5,0,0,0,.854.353l.974-.974a.244.244,0,0,1,.353.009,6.086,6.086,0,0,0,10.211-2.2A1,1,0,0,0,11.77,18.6Z"/><path d="M12.691,11.772a.5.5,0,0,0-.545.109l-1.03,1.031a.244.244,0,0,1-.352-.008,6.1,6.1,0,0,0-10.2,2.225,1,1,0,0,0,1.879.686A4.054,4.054,0,0,1,3.719,13.9a4.153,4.153,0,0,1,5.637.435.255.255,0,0,1-.012.35L7.689,16.338a.5.5,0,0,0,.354.853H12.5a.5.5,0,0,0,.5-.5V12.234A.5.5,0,0,0,12.691,11.772Z"/></svg>