<svg xmlns="http://www.w3.org/2000/svg" viewBox="0 0 24 24"><title>common-file-text-share</title><path d="M19,8.5a1,1,0,0,0,0-2H12a1,1,0,0,0,0,2Z"/><path d="M23.414,3,21,.585A2,2,0,0,0,19.586,0H8A2,2,0,0,0,6,2V12.015a.25.25,0,0,0,.469.121A6.722,6.722,0,0,1,7.8,10.3.512.512,0,0,0,8,9.906V2.5A.5.5,0,0,1,8.5,2H19.379a.5.5,0,0,1,.353.146l2.121,2.122A.5.5,0,0,1,22,4.621V18a.5.5,0,0,1-.5.5H13.981a.247.247,0,0,0-.212.379,4.25,4.25,0,0,1,.569,1.233.508.508,0,0,0,.483.387H22a2,2,0,0,0,2-2V4.415A2,2,0,0,0,23.414,3Z"/><path d="M14.384,12.805a.246.246,0,0,0,.238.2H16.5a1,1,0,0,0,0-2H13.967a.247.247,0,0,0-.211.381A4.177,4.177,0,0,1,14.384,12.805Z"/><path d="M8.442,16a.245.245,0,0,1,.266.012,2.74,2.74,0,0,0,4.167-1.425A2.758,2.758,0,0,0,10.25,11a2.808,2.808,0,0,0-2.713,3.059.245.245,0,0,1-.115.221L4.558,16a.245.245,0,0,1-.266-.012,2.71,2.71,0,0,0-2.406-.349A2.706,2.706,0,0,0,.124,17.413,2.759,2.759,0,0,0,2.75,21a2.729,2.729,0,0,0,1.887-.761.244.244,0,0,1,.259-.053s1.924.781,2.465,1A.24.24,0,0,1,7.5,21.4a2.753,2.753,0,1,0,5.361-1.025,2.681,2.681,0,0,0-1.736-1.74,2.74,2.74,0,0,0-2.767.623.24.24,0,0,1-.258.053L5.553,18.3a.114.114,0,0,1-.06-.084l-.03-.353a.118.118,0,0,1,.056-.1Z"/></svg>