<?xml version="1.0" encoding="utf-8"?>
<!-- Generator: Adobe Illustrator 22.1.0, SVG Export Plug-In . SVG Version: 6.00 Build 0)  -->
<svg version="1.1" id="Layer_1" xmlns="http://www.w3.org/2000/svg" xmlns:xlink="http://www.w3.org/1999/xlink" x="0px" y="0px"
	 viewBox="0 0 24 24" style="enable-background:new 0 0 24 24;" xml:space="preserve">
<title>download-button</title>
<g>
	<path d="M12.002,16.501c-0.05,0-0.1-0.005-0.148-0.015c-0.03-0.006-0.059-0.015-0.088-0.025c-0.011-0.003-0.031-0.009-0.05-0.017
		c-0.038-0.016-0.069-0.033-0.099-0.051c-0.017-0.008-0.023-0.012-0.039-0.023c-0.035-0.023-0.073-0.054-0.107-0.089l-4.5-4.5
		c-0.142-0.142-0.22-0.33-0.22-0.53c0-0.2,0.078-0.389,0.22-0.53c0.141-0.142,0.33-0.22,0.53-0.22s0.389,0.078,0.53,0.22l3.22,3.22
		V0.751c0-0.414,0.336-0.75,0.75-0.75s0.75,0.336,0.75,0.75v13.19l3.22-3.22c0.142-0.142,0.33-0.22,0.53-0.22s0.389,0.078,0.53,0.22
		c0.142,0.141,0.22,0.33,0.22,0.53c0,0.2-0.078,0.389-0.22,0.53l-4.5,4.5c-0.035,0.035-0.073,0.066-0.114,0.094
		c-0.013,0.009-0.037,0.022-0.052,0.03c-0.01,0.007-0.041,0.024-0.074,0.038c-0.016,0.007-0.047,0.017-0.063,0.021
		c-0.02,0.007-0.049,0.016-0.079,0.022C12.102,16.496,12.052,16.501,12.002,16.501z"/>
	<path d="M6,24c-2.068,0-3.75-1.682-3.75-3.75V7.5c0-2.068,1.682-3.75,3.75-3.75h2.25C8.664,3.75,9,4.086,9,4.5
		S8.664,5.25,8.25,5.25H6c-1.241,0-2.25,1.009-2.25,2.25v12.75c0,1.241,1.009,2.25,2.25,2.25h12c1.241,0,2.25-1.009,2.25-2.25V7.5
		c0-1.241-1.009-2.25-2.25-2.25h-2.248c-0.414,0-0.75-0.336-0.75-0.75s0.336-0.75,0.75-0.75H18c2.068,0,3.75,1.682,3.75,3.75v12.75
		c0,2.068-1.682,3.75-3.75,3.75H6z"/>
</g>
</svg>
