<?xml version="1.0" encoding="utf-8"?>
<!-- Generator: Adobe Illustrator 22.1.0, SVG Export Plug-In . SVG Version: 6.00 Build 0)  -->
<svg version="1.1" id="Layer_1" xmlns="http://www.w3.org/2000/svg" xmlns:xlink="http://www.w3.org/1999/xlink" x="0px" y="0px"
	 viewBox="0 0 24 24" style="enable-background:new 0 0 24 24;" xml:space="preserve">
<title>upload-square-2</title>
<g>
	<path d="M0.752,3.001c-0.414,0-0.75-0.336-0.75-0.75c0-1.241,1.009-2.25,2.25-2.25c0.414,0,0.75,0.336,0.75,0.75
		s-0.336,0.75-0.75,0.75s-0.75,0.336-0.75,0.75S1.166,3.001,0.752,3.001z"/>
	<path d="M2.252,24.001c-1.241,0-2.25-1.009-2.25-2.25c0-0.414,0.336-0.75,0.75-0.75s0.75,0.336,0.75,0.75s0.336,0.75,0.75,0.75
		s0.75,0.336,0.75,0.75S2.666,24.001,2.252,24.001z"/>
	<path d="M21.752,24.001c-0.414,0-0.75-0.336-0.75-0.75s0.336-0.75,0.75-0.75s0.75-0.336,0.75-0.75s0.336-0.75,0.75-0.75
		s0.75,0.336,0.75,0.75C24.002,22.992,22.993,24.001,21.752,24.001z"/>
	<path d="M23.252,3.001c-0.414,0-0.75-0.336-0.75-0.75s-0.336-0.75-0.75-0.75s-0.75-0.336-0.75-0.75s0.336-0.75,0.75-0.75
		c1.241,0,2.25,1.009,2.25,2.25C24.002,2.665,23.666,3.001,23.252,3.001z"/>
	<path d="M23.252,18.751c-0.414,0-0.75-0.336-0.75-0.75v-1.5c0-0.414,0.336-0.75,0.75-0.75s0.75,0.336,0.75,0.75v1.5
		C24.002,18.415,23.666,18.751,23.252,18.751z"/>
	<path d="M23.252,13.501c-0.414,0-0.75-0.336-0.75-0.75v-1.5c0-0.414,0.336-0.75,0.75-0.75s0.75,0.336,0.75,0.75v1.5
		C24.002,13.165,23.666,13.501,23.252,13.501z"/>
	<path d="M23.252,8.251c-0.414,0-0.75-0.336-0.75-0.75v-1.5c0-0.414,0.336-0.75,0.75-0.75s0.75,0.336,0.75,0.75v1.5
		C24.002,7.915,23.666,8.251,23.252,8.251z"/>
	<path d="M0.752,18.751c-0.414,0-0.75-0.336-0.75-0.75v-1.5c0-0.414,0.336-0.75,0.75-0.75s0.75,0.336,0.75,0.75v1.5
		C1.502,18.415,1.166,18.751,0.752,18.751z"/>
	<path d="M0.752,13.501c-0.414,0-0.75-0.336-0.75-0.75v-1.5c0-0.414,0.336-0.75,0.75-0.75s0.75,0.336,0.75,0.75v1.5
		C1.502,13.165,1.166,13.501,0.752,13.501z"/>
	<path d="M0.752,8.251c-0.414,0-0.75-0.336-0.75-0.75v-1.5c0-0.414,0.336-0.75,0.75-0.75s0.75,0.336,0.75,0.75v1.5
		C1.502,7.915,1.166,8.251,0.752,8.251z"/>
	<path d="M6.002,1.501c-0.414,0-0.75-0.336-0.75-0.75s0.336-0.75,0.75-0.75h1.5c0.414,0,0.75,0.336,0.75,0.75s-0.336,0.75-0.75,0.75
		H6.002z"/>
	<path d="M11.252,1.501c-0.414,0-0.75-0.336-0.75-0.75s0.336-0.75,0.75-0.75h1.5c0.414,0,0.75,0.336,0.75,0.75
		s-0.336,0.75-0.75,0.75H11.252z"/>
	<path d="M16.502,1.501c-0.414,0-0.75-0.336-0.75-0.75s0.336-0.75,0.75-0.75h1.5c0.414,0,0.75,0.336,0.75,0.75
		s-0.336,0.75-0.75,0.75H16.502z"/>
	<path d="M6.002,24.001c-0.414,0-0.75-0.336-0.75-0.75s0.336-0.75,0.75-0.75h1.5c0.414,0,0.75,0.336,0.75,0.75
		s-0.336,0.75-0.75,0.75H6.002z"/>
	<path d="M11.252,24.001c-0.414,0-0.75-0.336-0.75-0.75s0.336-0.75,0.75-0.75h1.5c0.414,0,0.75,0.336,0.75,0.75
		s-0.336,0.75-0.75,0.75H11.252z"/>
	<path d="M16.502,24.001c-0.414,0-0.75-0.336-0.75-0.75s0.336-0.75,0.75-0.75h1.5c0.414,0,0.75,0.336,0.75,0.75
		s-0.336,0.75-0.75,0.75H16.502z"/>
	<path d="M12.002,18.751c-0.414,0-0.75-0.336-0.75-0.75V7.812l-3.22,3.22c-0.142,0.142-0.33,0.22-0.53,0.22s-0.389-0.078-0.53-0.22
		c-0.142-0.141-0.22-0.33-0.22-0.53s0.078-0.389,0.22-0.53l4.499-4.499c0.07-0.07,0.152-0.125,0.245-0.163
		c0.008-0.003,0.016-0.006,0.025-0.009c0.086-0.032,0.172-0.047,0.26-0.047c0.089,0,0.177,0.016,0.261,0.048
		c0.007,0.002,0.014,0.005,0.02,0.007c0.097,0.04,0.179,0.095,0.25,0.166l4.499,4.499c0.142,0.141,0.22,0.33,0.22,0.53
		s-0.078,0.389-0.22,0.53s-0.33,0.22-0.53,0.22s-0.389-0.078-0.53-0.22l-3.22-3.22v10.189
		C12.752,18.415,12.416,18.751,12.002,18.751z"/>
</g>
</svg>
