<?xml version="1.0" encoding="utf-8"?>
<!-- Generator: Adobe Illustrator 22.1.0, SVG Export Plug-In . SVG Version: 6.00 Build 0)  -->
<svg version="1.1" id="Layer_1" xmlns="http://www.w3.org/2000/svg" xmlns:xlink="http://www.w3.org/1999/xlink" x="0px" y="0px"
	 viewBox="0 0 24 24" style="enable-background:new 0 0 24 24;" xml:space="preserve">
<title>upload-menu</title>
<g>
	<path d="M12,24c-0.414,0-0.75-0.336-0.75-0.75v-7.939l-2.47,2.47C8.639,17.922,8.45,18,8.25,18s-0.389-0.078-0.53-0.22
		c-0.292-0.292-0.292-0.768,0-1.061l3.75-3.75c0.07-0.07,0.153-0.125,0.246-0.164c0.008-0.003,0.017-0.007,0.027-0.01
		c0.086-0.031,0.172-0.047,0.258-0.047c0.088,0,0.175,0.016,0.26,0.047c0.008,0.003,0.015,0.005,0.022,0.008
		c0.096,0.039,0.179,0.094,0.249,0.165l3.749,3.749c0.292,0.292,0.292,0.768,0,1.061C16.139,17.922,15.95,18,15.75,18
		s-0.389-0.078-0.53-0.22l-2.47-2.47v7.939C12.75,23.664,12.414,24,12,24z"/>
	<path d="M0.75,1.5C0.336,1.5,0,1.164,0,0.75S0.336,0,0.75,0h22.5C23.664,0,24,0.336,24,0.75S23.664,1.5,23.25,1.5H0.75z"/>
	<path d="M0.75,6C0.336,6,0,5.664,0,5.25S0.336,4.5,0.75,4.5h22.5C23.664,4.5,24,4.836,24,5.25S23.664,6,23.25,6H0.75z"/>
	<path d="M0.75,10.5C0.336,10.5,0,10.164,0,9.75S0.336,9,0.75,9h22.5C23.664,9,24,9.336,24,9.75s-0.336,0.75-0.75,0.75H0.75z"/>
</g>
</svg>
