<?xml version="1.0" encoding="utf-8"?>
<!-- Generator: Adobe Illustrator 22.1.0, SVG Export Plug-In . SVG Version: 6.00 Build 0)  -->
<svg version="1.1" id="Layer_1" xmlns="http://www.w3.org/2000/svg" xmlns:xlink="http://www.w3.org/1999/xlink" x="0px" y="0px"
	 viewBox="0 0 24 24" style="enable-background:new 0 0 24 24;" xml:space="preserve">
<title>upload-thick-bottom</title>
<g>
	<path d="M9.75,16.757c-0.827,0-1.5-0.673-1.5-1.5v-6H5.251c-0.305,0-0.577-0.182-0.693-0.463C4.442,8.513,4.505,8.192,4.721,7.976
		l6.749-6.75C11.607,1.089,11.8,1.011,12,1.011s0.394,0.078,0.53,0.215l6.751,6.75c0.215,0.215,0.279,0.536,0.163,0.818
		c-0.117,0.281-0.389,0.463-0.693,0.463H15.75v6c0,0.827-0.673,1.5-1.5,1.5H9.75z M9,7.757c0.414,0,0.75,0.336,0.75,0.75v6.75h4.5
		v-6.75c0-0.414,0.336-0.75,0.75-0.75h1.94L12,2.817L7.062,7.757H9z"/>
	<path d="M2.251,22.757c-1.241,0-2.25-1.009-2.25-2.25v-3c0-0.414,0.336-0.75,0.75-0.75s0.75,0.336,0.75,0.75v3
		c0,0.414,0.336,0.75,0.75,0.75h19.5c0.414,0,0.75-0.336,0.75-0.75v-3c0-0.414,0.336-0.75,0.75-0.75s0.75,0.336,0.75,0.75v3
		c0,1.241-1.009,2.25-2.25,2.25H2.251z"/>
</g>
</svg>
