<svg xmlns="http://www.w3.org/2000/svg" viewBox="0 0 24 24"><defs><style>.a{fill:none;stroke:currentColor;stroke-linecap:round;stroke-linejoin:round;stroke-width:1.5px;}</style></defs><title>hand-drag</title><path class="a" d="M16.5,6.747v-1.5a1.5,1.5,0,0,0-3,0V4.5a1.5,1.5,0,0,0-3,0v.75a1.5,1.5,0,0,0-3,0V10.5a3,3,0,0,0-3,3,7.017,7.017,0,0,0,1.308,4.081l1.1,1.535A4.5,4.5,0,0,0,10.566,21h3.813A5.121,5.121,0,0,0,19.5,15.876V6.747a1.5,1.5,0,0,0-3,0Z"/><line class="a" x1="7.5" y1="10.497" x2="7.5" y2="12.747"/><line class="a" x1="10.5" y1="8.997" x2="10.5" y2="5.247"/><line class="a" x1="13.5" y1="8.997" x2="13.5" y2="5.247"/><line class="a" x1="16.5" y1="8.997" x2="16.5" y2="6.747"/></svg>