<?xml version="1.0" encoding="utf-8"?>
<!-- Generator: Adobe Illustrator 22.1.0, SVG Export Plug-In . SVG Version: 6.00 Build 0)  -->
<svg version="1.1" id="Layer_1" xmlns="http://www.w3.org/2000/svg" xmlns:xlink="http://www.w3.org/1999/xlink" x="0px" y="0px"
	 viewBox="0 0 24 24" style="enable-background:new 0 0 24 24;" xml:space="preserve">
<g>
	<title>rating-star-circle</title>
	<path d="M12,23.997c-6.617,0-12-5.383-12-12c0-6.617,5.383-12,12-12c6.617,0,12,5.383,12,12C24,18.614,18.617,23.997,12,23.997z
		 M12,0.997c-6.065,0-11,4.935-11,11s4.935,11,11,11s11-4.935,11-11S18.065,0.997,12,0.997z"/>
	<path d="M8.126,18.002c-0.456,0-0.882-0.244-1.112-0.636c-0.203-0.347-0.231-0.776-0.075-1.147l1.301-2.986l-2.329-2.074
		c-0.509-0.45-0.557-1.232-0.106-1.742C6.039,9.152,6.381,9,6.743,9c0.002,0,2.686,0,2.686,0l1.411-3.268
		c0.242-0.452,0.686-0.72,1.167-0.72c0.213,0,0.425,0.054,0.614,0.156c0.223,0.121,0.404,0.302,0.524,0.524
		c0.004,0.007,0.017,0.033,0.02,0.04L14.574,9h2.666c0.007-0.001,0.025-0.001,0.043-0.001c0.648,0,1.194,0.534,1.218,1.191
		c0.014,0.368-0.136,0.72-0.412,0.966l-2.33,2.076l1.295,2.981c0.135,0.322,0.136,0.673,0.005,0.99
		c-0.131,0.318-0.377,0.565-0.694,0.697c-0.156,0.065-0.322,0.098-0.493,0.098l0,0c-0.226,0-0.449-0.059-0.643-0.171L12,16.007
		L8.765,17.83C8.574,17.942,8.352,18.002,8.126,18.002z M6.738,10c-0.074,0-0.138,0.027-0.184,0.079
		c-0.041,0.047-0.062,0.107-0.058,0.17c0.004,0.063,0.032,0.12,0.079,0.162l2.601,2.316c0.162,0.145,0.212,0.375,0.126,0.573
		l-1.443,3.312c-0.032,0.076-0.025,0.173,0.019,0.249c0.051,0.087,0.145,0.141,0.247,0.141c0.05,0,0.1-0.013,0.143-0.039
		l3.487-1.965c0.075-0.042,0.16-0.064,0.245-0.064c0.086,0,0.171,0.022,0.245,0.064l3.479,1.961c0.047,0.027,0.097,0.04,0.148,0.04
		c0.038,0,0.074-0.007,0.108-0.021c0.071-0.029,0.125-0.084,0.154-0.155c0.029-0.07,0.029-0.148,0-0.218l-1.437-3.306
		c-0.086-0.198-0.036-0.428,0.126-0.572l2.6-2.316c0.052-0.047,0.081-0.114,0.078-0.183c-0.002-0.064-0.028-0.12-0.075-0.164
		C17.382,10.021,17.327,10,17.267,10l-3.022,0c-0.2,0-0.38-0.119-0.459-0.302l-1.529-3.545c-0.027-0.045-0.066-0.081-0.112-0.106
		c-0.044-0.024-0.092-0.036-0.142-0.036c-0.111,0-0.212,0.06-0.265,0.157l-1.521,3.53C10.138,9.882,9.958,10,9.758,10L6.738,10z"/>
</g>
</svg>
