<?xml version="1.0" encoding="utf-8"?>
<!-- Generator: Adobe Illustrator 22.1.0, SVG Export Plug-In . SVG Version: 6.00 Build 0)  -->
<svg version="1.1" id="Layer_1" xmlns="http://www.w3.org/2000/svg" xmlns:xlink="http://www.w3.org/1999/xlink" x="0px" y="0px"
	 viewBox="0 0 24 24" style="enable-background:new 0 0 24 24;" xml:space="preserve">
<title>house-4</title>
<g>
	<path d="M1.5,10.494c-0.219,0-0.427-0.095-0.57-0.262C0.8,10.08,0.737,9.886,0.752,9.687s0.108-0.381,0.26-0.512l10.5-9
		C11.648,0.058,11.821-0.006,12-0.006s0.352,0.064,0.488,0.181l10.5,9c0.152,0.13,0.244,0.312,0.26,0.512
		c0.015,0.2-0.048,0.393-0.178,0.545c-0.143,0.167-0.35,0.262-0.57,0.262c-0.179,0-0.352-0.064-0.488-0.181L12,1.732L1.988,10.313
		C1.853,10.43,1.679,10.494,1.5,10.494z"/>
	<path d="M14.25,23.993c-0.414,0-0.75-0.336-0.75-0.75v-6.75h-3v6.75c0,0.414-0.336,0.75-0.75,0.75H3.978
		c-0.95-0.002-1.725-0.777-1.728-1.726V13.41c0.03-0.536,0.249-1.008,0.617-1.349l8.646-7.387c0.135-0.116,0.308-0.18,0.487-0.18
		s0.352,0.064,0.487,0.18l8.623,7.367c0.386,0.358,0.609,0.825,0.638,1.326l0.001,8.899c-0.004,0.95-0.778,1.724-1.726,1.727
		c0,0-0.001,0-0.001,0H14.25z M3.864,13.181c-0.061,0.058-0.109,0.164-0.115,0.273l0.001,8.811c0,0.125,0.104,0.228,0.23,0.228H9
		v-6.26c0.001-0.681,0.556-1.237,1.236-1.24c0.001,0,3.525,0,3.525,0c0.683,0.003,1.238,0.559,1.239,1.239v6.261h5.022
		c0.125,0,0.228-0.104,0.228-0.23v-8.852c-0.005-0.073-0.057-0.176-0.137-0.25L12,6.23L3.864,13.181z"/>
</g>
</svg>
