<?xml version="1.0" encoding="utf-8"?>
<!-- Generator: Adobe Illustrator 22.1.0, SVG Export Plug-In . SVG Version: 6.00 Build 0)  -->
<svg version="1.1" id="Layer_1" xmlns="http://www.w3.org/2000/svg" xmlns:xlink="http://www.w3.org/1999/xlink" x="0px" y="0px"
	 viewBox="0 0 24 24" style="enable-background:new 0 0 24 24;" xml:space="preserve">
<title>house-chimney-1</title>
<g>
	<path d="M15.75,23.998c-0.414,0-0.75-0.336-0.75-0.75v-7.5c0-0.414-0.336-0.75-0.75-0.75h-4.5c-0.414,0-0.75,0.336-0.75,0.75v7.5
		c0,0.414-0.336,0.75-0.75,0.75H1.728C0.776,23.995,0.002,23.22,0,22.271V9.747c0.03-0.536,0.248-1.008,0.617-1.35
		c0.018-0.016,0.037-0.033,0.057-0.048l10.874-8.2c0.129-0.098,0.29-0.151,0.452-0.151l0,0c0.162,0,0.323,0.054,0.452,0.151
		l3.298,2.487V1.5c0-0.414,0.336-0.75,0.75-0.75h3.75C20.664,0.75,21,1.086,21,1.5v5.095l2.325,1.753
		c0.02,0.015,0.04,0.032,0.06,0.05c0.367,0.341,0.586,0.806,0.615,1.307L24,22.269c-0.002,0.951-0.776,1.726-1.726,1.729
		c0,0-0.001,0-0.001,0H15.75z M1.616,9.517c-0.07,0.074-0.112,0.17-0.118,0.273L1.5,22.269c0,0.125,0.104,0.229,0.23,0.229H7.5
		v-6.75c0-1.241,1.009-2.25,2.25-2.25h4.5c1.241,0,2.25,1.009,2.25,2.25v6.75h5.772c0.125,0,0.228-0.104,0.228-0.23V9.748
		c-0.005-0.067-0.048-0.159-0.116-0.231l-2.585-1.949C19.612,7.427,19.5,7.203,19.5,6.969V2.25h-2.25v1.891
		c0,0.287-0.159,0.544-0.416,0.671c-0.103,0.051-0.219,0.079-0.334,0.079c-0.162,0-0.322-0.054-0.452-0.151L12,1.687L1.616,9.517z"
		/>
</g>
</svg>
