<?xml version="1.0" encoding="utf-8"?>
<!-- Generator: Adobe Illustrator 22.1.0, SVG Export Plug-In . SVG Version: 6.00 Build 0)  -->
<svg version="1.1" id="Layer_1" xmlns="http://www.w3.org/2000/svg" xmlns:xlink="http://www.w3.org/1999/xlink" x="0px" y="0px"
	 viewBox="0 0 24 24" style="enable-background:new 0 0 24 24;" xml:space="preserve">
<title>navigation-previous</title>
<g>
	<path d="M15.75,14.247c-0.414,0-0.75-0.336-0.75-0.75c0-1.654-1.346-3-3-3H2.562l1.72,1.72c0.142,0.142,0.22,0.33,0.22,0.53
		s-0.078,0.389-0.22,0.53c-0.142,0.142-0.33,0.22-0.53,0.22s-0.389-0.078-0.53-0.22l-3-3c-0.07-0.07-0.125-0.152-0.163-0.245
		c-0.003-0.008-0.007-0.017-0.01-0.026c-0.032-0.086-0.047-0.172-0.047-0.26c0-0.089,0.016-0.176,0.048-0.261
		c0.002-0.007,0.005-0.014,0.008-0.021c0.04-0.097,0.095-0.179,0.166-0.249l2.999-2.999c0.142-0.142,0.33-0.22,0.53-0.22
		s0.389,0.078,0.53,0.22c0.142,0.141,0.22,0.33,0.22,0.53s-0.078,0.389-0.22,0.53l-1.72,1.72H12c2.481,0,4.5,2.019,4.5,4.5
		C16.5,13.911,16.164,14.247,15.75,14.247z"/>
	<path d="M8.251,20.997c-1.241,0-2.25-1.009-2.25-2.25v-4.5c0-0.414,0.336-0.75,0.75-0.75s0.75,0.336,0.75,0.75v4.5
		c0,0.414,0.336,0.75,0.75,0.75h13.5c0.414,0,0.75-0.336,0.75-0.75v-13.5c0-0.414-0.336-0.75-0.75-0.75h-13.5
		c-0.414,0-0.75,0.336-0.75,0.75s-0.336,0.75-0.75,0.75s-0.75-0.336-0.75-0.75c0-1.241,1.009-2.25,2.25-2.25h13.5
		c1.241,0,2.25,1.009,2.25,2.25v13.5c0,1.241-1.009,2.25-2.25,2.25H8.251z"/>
</g>
</svg>
