<?xml version="1.0" encoding="utf-8"?>
<!-- Generator: Adobe Illustrator 22.1.0, SVG Export Plug-In . SVG Version: 6.00 Build 0)  -->
<svg version="1.1" id="Layer_1" xmlns="http://www.w3.org/2000/svg" xmlns:xlink="http://www.w3.org/1999/xlink" x="0px" y="0px"
	 viewBox="0 0 24 24" style="enable-background:new 0 0 24 24;" xml:space="preserve">
<title>navigation-up</title>
<g>
	<path d="M11.252,23.999c-3.722,0-6.75-3.028-6.75-6.75v-5.25H1.5c-0.402,0-0.777-0.155-1.06-0.436
		c-0.284-0.283-0.441-0.659-0.442-1.06c-0.001-0.418,0.174-0.82,0.48-1.104l10.003-8.813c0.404-0.378,0.946-0.589,1.517-0.589
		c0.574,0,1.121,0.214,1.538,0.604l9.97,8.786c0.306,0.283,0.478,0.656,0.493,1.056c0.015,0.4-0.126,0.782-0.399,1.076
		c-0.282,0.305-0.683,0.48-1.1,0.48h-2.998v9.75c0,1.241-1.009,2.25-2.25,2.25H11.252z M17.252,22.499c0.414,0,0.75-0.336,0.75-0.75
		v-10.5c0-0.414,0.336-0.75,0.75-0.75h3.747l-9.971-8.787c-0.151-0.141-0.336-0.214-0.53-0.214c-0.19,0-0.371,0.071-0.509,0.2
		L1.484,10.511l3.768-0.013c0.414,0,0.75,0.336,0.75,0.75v5.25h3.75c1.241,0,2.25,1.009,2.25,2.25v3.75H17.252z M6.057,17.999
		c0.33,2.293,2.152,4.115,4.445,4.445v-3.695c0-0.414-0.336-0.75-0.75-0.75H6.057z"/>
</g>
</svg>
