<?xml version="1.0" encoding="utf-8"?>
<!-- Generator: Adobe Illustrator 22.1.0, SVG Export Plug-In . SVG Version: 6.00 Build 0)  -->
<svg version="1.1" id="Layer_1" xmlns="http://www.w3.org/2000/svg" xmlns:xlink="http://www.w3.org/1999/xlink" x="0px" y="0px"
	 viewBox="0 0 24 24" style="enable-background:new 0 0 24 24;" xml:space="preserve">
<title>navigation-right-1</title>
<g>
	<path d="M13.498,24c-0.379,0-0.741-0.142-1.019-0.4c-0.306-0.284-0.481-0.686-0.48-1.104v-2.997h-9.75
		c-1.241,0-2.25-1.009-2.25-2.25v-6c0-3.722,3.028-6.75,6.75-6.75h5.25V1.5c-0.001-0.399,0.154-0.776,0.436-1.06
		c0.282-0.284,0.659-0.441,1.06-0.442c0.427,0.006,0.827,0.181,1.104,0.481l8.812,10.002c0.793,0.848,0.79,2.194-0.014,3.054
		l-8.786,9.971c-0.282,0.306-0.655,0.479-1.056,0.493L13.498,24z M1.499,17.249c0,0.414,0.336,0.75,0.75,0.75h10.5
		c0.414,0,0.75,0.336,0.75,0.75v3.749l8.787-9.971c0.279-0.299,0.282-0.753,0.014-1.039l-8.784-9.969l-0.018,3.731
		c0,0.414-0.336,0.75-0.75,0.75h-5.25v3.75c0,1.241-1.009,2.25-2.25,2.25h-3.75V17.249z M5.249,10.499c0.414,0,0.75-0.336,0.75-0.75
		V6.054c-2.293,0.33-4.115,2.152-4.445,4.445H5.249z"/>
</g>
</svg>
