<?xml version="1.0" encoding="utf-8"?>
<!-- Generator: Adobe Illustrator 22.1.0, SVG Export Plug-In . SVG Version: 6.00 Build 0)  -->
<svg version="1.1" id="Layer_1" xmlns="http://www.w3.org/2000/svg" xmlns:xlink="http://www.w3.org/1999/xlink" x="0px" y="0px"
	 viewBox="0 0 24 24" style="enable-background:new 0 0 24 24;" xml:space="preserve">
<title>navigation-next</title>
<g>
	<path d="M8.25,14.247c-0.414,0-0.75-0.336-0.75-0.75c0-2.481,2.019-4.5,4.5-4.5h9.44l-1.72-1.72c-0.142-0.141-0.22-0.33-0.22-0.53
		s0.078-0.389,0.22-0.53s0.33-0.22,0.53-0.22s0.389,0.078,0.53,0.22l3,3c0.07,0.07,0.125,0.152,0.163,0.245
		c0.003,0.008,0.007,0.017,0.01,0.026c0.031,0.081,0.047,0.17,0.047,0.26c0,0.087-0.016,0.174-0.047,0.258
		c-0.002,0.006-0.004,0.011-0.006,0.016c-0.042,0.104-0.098,0.186-0.168,0.257l-2.999,2.999c-0.142,0.142-0.33,0.22-0.53,0.22
		s-0.389-0.078-0.53-0.22s-0.22-0.33-0.22-0.53s0.078-0.389,0.22-0.53l1.72-1.72H12c-1.654,0-3,1.346-3,3
		C9,13.911,8.664,14.247,8.25,14.247z"/>
	<path d="M2.251,20.997c-1.241,0-2.25-1.009-2.25-2.25v-13.5c0-1.241,1.009-2.25,2.25-2.25h13.5c1.241,0,2.25,1.009,2.25,2.25
		c0,0.414-0.336,0.75-0.75,0.75s-0.75-0.336-0.75-0.75s-0.336-0.75-0.75-0.75h-13.5c-0.414,0-0.75,0.336-0.75,0.75v13.5
		c0,0.414,0.336,0.75,0.75,0.75h13.5c0.414,0,0.75-0.336,0.75-0.75v-4.5c0-0.414,0.336-0.75,0.75-0.75s0.75,0.336,0.75,0.75v4.5
		c0,1.241-1.009,2.25-2.25,2.25H2.251z"/>
</g>
</svg>
