<?xml version="1.0" encoding="utf-8"?>
<!-- Generator: Adobe Illustrator 22.1.0, SVG Export Plug-In . SVG Version: 6.00 Build 0)  -->
<svg version="1.1" id="Layer_1" xmlns="http://www.w3.org/2000/svg" xmlns:xlink="http://www.w3.org/1999/xlink" x="0px" y="0px"
	 viewBox="0 0 24 24" style="enable-background:new 0 0 24 24;" xml:space="preserve">
<title>navigation-arrows-up-1</title>
<g>
	<path d="M2.25,23.998c-0.533,0-1.05-0.19-1.456-0.535c-0.946-0.803-1.062-2.226-0.258-3.171L10.29,9.036
		c0.074-0.087,0.16-0.173,0.252-0.251c0.406-0.345,0.923-0.535,1.456-0.535c0.662,0,1.287,0.288,1.714,0.79l9.747,11.246
		c0.349,0.41,0.54,0.928,0.54,1.461c0,1.241-1.009,2.25-2.25,2.251H2.25z M11.999,9.749c-0.178,0-0.35,0.063-0.485,0.178
		c-0.03,0.026-0.06,0.055-0.086,0.085L1.673,21.268c-0.264,0.311-0.224,0.784,0.091,1.051c0.135,0.115,0.308,0.178,0.485,0.178h19.5
		c0.413,0,0.75-0.337,0.75-0.75c0-0.177-0.063-0.35-0.178-0.485l-9.745-11.244C12.429,9.845,12.22,9.749,11.999,9.749z"/>
	<path d="M21.002,15.751c-0.414,0-0.75-0.336-0.75-0.75s0.336-0.75,0.75-0.75h0.75c0.2,0,0.388-0.078,0.53-0.22
		c0.142-0.142,0.22-0.33,0.22-0.53c0-0.178-0.063-0.35-0.178-0.485L12.578,1.771C12.431,1.599,12.222,1.502,12,1.502
		c-0.177,0-0.349,0.063-0.484,0.178c-0.031,0.026-0.06,0.055-0.086,0.086L1.675,13.021c-0.125,0.148-0.187,0.341-0.171,0.541
		c0.016,0.199,0.109,0.381,0.262,0.51c0.135,0.115,0.307,0.178,0.484,0.178h0.751c0.414,0,0.75,0.336,0.75,0.75
		s-0.336,0.75-0.75,0.75H2.25c-0.532,0-1.049-0.191-1.454-0.535c-0.458-0.389-0.737-0.933-0.786-1.532
		c-0.049-0.599,0.139-1.181,0.528-1.639l9.755-11.256c0.074-0.088,0.16-0.173,0.253-0.252C10.95,0.192,11.467,0.002,12,0.002
		c0.663,0,1.288,0.289,1.716,0.792l9.745,11.245c0.349,0.411,0.54,0.929,0.54,1.462c0,0.6-0.234,1.165-0.659,1.59
		c-0.425,0.425-0.99,0.66-1.591,0.66H21.002z"/>
</g>
</svg>
