<?xml version="1.0" encoding="utf-8"?>
<!-- Generator: Adobe Illustrator 22.1.0, SVG Export Plug-In . SVG Version: 6.00 Build 0)  -->
<svg version="1.1" id="Layer_1" xmlns="http://www.w3.org/2000/svg" xmlns:xlink="http://www.w3.org/1999/xlink" x="0px" y="0px"
	 viewBox="0 0 24 24" style="enable-background:new 0 0 24 24;" xml:space="preserve">
<title>navigation-right-4</title>
<g>
	<path d="M2.25,23.25C1.009,23.25,0,22.241,0,21v-5.25c0-1.241,1.009-2.25,2.25-2.25c0,0,6.71,0,6.711,0
		c0.028,0,0.05,0.002,0.073,0.004c0.055,0.005,0.11,0.015,0.163,0.032c0.034,0.01,0.067,0.023,0.101,0.039
		c0.051,0.024,0.101,0.056,0.149,0.095c0.022,0.015,0.044,0.033,0.06,0.05c0.018,0.018,0.032,0.036,0.042,0.052
		c0.045,0.053,0.081,0.112,0.109,0.175c0.004,0.009,0.014,0.034,0.017,0.044c0.027,0.073,0.044,0.152,0.047,0.232
		c0.001,0.01,0.001,0.019,0.001,0.029c0,0.213-0.092,0.417-0.252,0.559l-0.891,0.892c-0.408,0.427-0.406,1.108,0.011,1.544
		c0.214,0.224,0.503,0.347,0.814,0.347c0.291,0,0.567-0.11,0.777-0.311l4.486-4.486c0.217-0.218,0.333-0.5,0.333-0.799
		c0-0.3-0.117-0.582-0.33-0.794l-4.546-4.546C9.912,6.454,9.634,6.343,9.341,6.343C9.018,6.35,8.739,6.473,8.531,6.69
		C8.324,6.907,8.214,7.192,8.22,7.493c0.007,0.301,0.13,0.581,0.347,0.788l0.934,0.934c0.011,0.011,0.023,0.024,0.033,0.038
		C9.586,9.311,9.63,9.38,9.661,9.455c0.004,0.01,0.009,0.024,0.013,0.036C9.702,9.566,9.717,9.645,9.72,9.724
		c0,0.008,0.001,0.016,0.001,0.023c0,0.414-0.336,0.75-0.75,0.75H2.25C1.009,10.497,0,9.487,0,8.247V3c0-1.241,1.009-2.25,2.25-2.25
		h10.059c0.053-0.001,0.113-0.001,0.172-0.001c6.106,0,11.164,4.78,11.513,10.882c0.094,3.02-0.987,5.883-3.045,8.073
		c-2.058,2.19-4.845,3.447-7.849,3.54c-0.116,0.004-0.233,0.006-0.349,0.006H2.25z M2.25,15c-0.414,0-0.75,0.336-0.75,0.75V21
		c0,0.414,0.336,0.75,0.75,0.75h10.5c0.101,0,0.202-0.002,0.303-0.005c2.603-0.081,5.019-1.171,6.802-3.068
		c1.783-1.898,2.721-4.377,2.64-6.98c-0.303-5.294-4.703-9.448-10.015-9.448L12.32,2.25H2.25C1.836,2.25,1.5,2.586,1.5,3v5.247
		c0,0.414,0.336,0.75,0.75,0.75h4.958C6.904,8.575,6.732,8.065,6.72,7.527C6.704,6.826,6.962,6.16,7.447,5.654
		c0.485-0.507,1.137-0.795,1.838-0.81c0.024-0.001,0.05-0.001,0.077-0.001c0.667,0,1.305,0.259,1.796,0.728
		c0.027,0.026,0.055,0.054,0.083,0.083l4.488,4.488c0.496,0.495,0.769,1.153,0.77,1.854c0,0.699-0.27,1.356-0.763,1.852
		c-0.003,0.004-4.507,4.507-4.507,4.507c-0.5,0.478-1.146,0.738-1.828,0.738c-0.724,0-1.397-0.287-1.896-0.81
		C6.637,17.373,6.544,16.007,7.226,15H2.25z"/>
</g>
</svg>
