<?xml version="1.0" encoding="utf-8"?>
<!-- Generator: Adobe Illustrator 22.1.0, SVG Export Plug-In . SVG Version: 6.00 Build 0)  -->
<svg version="1.1" id="Layer_1" xmlns="http://www.w3.org/2000/svg" xmlns:xlink="http://www.w3.org/1999/xlink" x="0px" y="0px"
	 viewBox="0 0 24 24" style="enable-background:new 0 0 24 24;" xml:space="preserve">
<title>navigation-right</title>
<g>
	<path d="M0.75,19.25c-0.413,0-0.749-0.335-0.75-0.748c-0.008-2.637,0.788-5.173,2.301-7.333c1.949-2.783,4.865-4.64,8.211-5.23
		c0.739-0.13,1.49-0.196,2.233-0.196c2.389,0,4.714,0.675,6.744,1.954l1.951-1.951c0.284-0.283,0.66-0.439,1.06-0.439
		c0.402,0,0.778,0.156,1.061,0.44C23.844,6.031,24,6.408,24,6.808v10.188c0,1.241-1.009,2.25-2.25,2.25H11.561
		c-0.395,0-0.781-0.16-1.06-0.438c-0.586-0.585-0.586-1.537-0.002-2.122l2.715-2.712c-1.253-1.397-3.084-2.224-4.965-2.225
		c-3.722,0-6.75,3.028-6.75,6.75C1.5,18.913,1.164,19.249,0.75,19.25C0.751,19.25,0.751,19.25,0.75,19.25z M8.25,10.25
		c2.588,0.002,5.046,1.248,6.577,3.335c0.22,0.301,0.189,0.71-0.075,0.974l-3.192,3.189l10.19-0.001c0.414,0,0.75-0.336,0.75-0.75
		V6.808l-2.385,2.384c-0.141,0.142-0.33,0.22-0.531,0.22c-0.155,0-0.304-0.047-0.43-0.136c-1.898-1.329-4.115-2.032-6.411-2.032
		c-0.656,0-1.319,0.058-1.972,0.173c-2.716,0.479-5.111,1.905-6.816,4.042C5.237,10.676,6.721,10.25,8.25,10.25
		C8.25,10.25,8.25,10.25,8.25,10.25z"/>
</g>
</svg>
