<?xml version="1.0" encoding="utf-8"?>
<!-- Generator: Adobe Illustrator 22.1.0, SVG Export Plug-In . SVG Version: 6.00 Build 0)  -->
<svg version="1.1" id="Layer_1" xmlns="http://www.w3.org/2000/svg" xmlns:xlink="http://www.w3.org/1999/xlink" x="0px" y="0px"
	 viewBox="0 0 24 24" style="enable-background:new 0 0 24 24;" xml:space="preserve">
<title>navigation-button-left</title>
<g>
	<path d="M2.251,18.747c-1.241,0-2.25-1.009-2.25-2.25v-9c0-1.241,1.009-2.25,2.25-2.25h9c1.241,0,2.25,1.009,2.25,2.25v9
		c0,1.241-1.009,2.25-2.25,2.25H2.251z M2.251,6.747c-0.414,0-0.75,0.336-0.75,0.75v9c0,0.414,0.336,0.75,0.75,0.75h9
		c0.414,0,0.75-0.336,0.75-0.75v-9c0-0.414-0.336-0.75-0.75-0.75H2.251z"/>
	<path d="M21.001,14.997c-0.2,0-0.389-0.078-0.53-0.22c-0.292-0.292-0.292-0.768,0-1.061l0.97-0.97h-4.189
		c-0.414,0-0.75-0.336-0.75-0.75s0.336-0.75,0.75-0.75h4.189l-0.97-0.97c-0.142-0.141-0.22-0.33-0.22-0.53s0.078-0.389,0.22-0.53
		s0.33-0.22,0.53-0.22s0.389,0.078,0.53,0.22l2.25,2.25c0.07,0.07,0.125,0.152,0.163,0.245c0.003,0.008,0.007,0.017,0.01,0.026
		c0.031,0.081,0.047,0.17,0.047,0.259c0,0.087-0.016,0.174-0.047,0.258c-0.002,0.006-0.004,0.011-0.006,0.016
		c-0.042,0.104-0.098,0.186-0.168,0.257l-2.249,2.249C21.39,14.919,21.201,14.997,21.001,14.997z"/>
	<path d="M6.001,14.997c-0.2,0-0.389-0.078-0.53-0.22l-2.25-2.25c-0.07-0.07-0.125-0.152-0.163-0.245
		c-0.003-0.008-0.007-0.017-0.01-0.026c-0.032-0.086-0.047-0.172-0.047-0.26c0-0.089,0.016-0.176,0.048-0.261
		c0.002-0.007,0.005-0.014,0.008-0.021c0.04-0.097,0.095-0.179,0.166-0.249l2.249-2.249c0.142-0.142,0.33-0.22,0.53-0.22
		s0.389,0.078,0.53,0.22c0.142,0.141,0.22,0.33,0.22,0.53s-0.078,0.389-0.22,0.53l-0.97,0.97h4.189c0.414,0,0.75,0.336,0.75,0.75
		s-0.336,0.75-0.75,0.75H5.562l0.97,0.97c0.292,0.292,0.292,0.768,0,1.061C6.39,14.919,6.201,14.997,6.001,14.997z"/>
</g>
</svg>
