<svg xmlns="http://www.w3.org/2000/svg" viewBox="0 0 24 24"><defs><style>.a{fill:none;stroke:currentColor;stroke-linecap:round;stroke-linejoin:round;stroke-width:1.5px;}</style></defs><title>server-question-1</title><circle class="a" cx="17.251" cy="17.25" r="6"/><path class="a" d="M15.376,16.125A1.875,1.875,0,1,1,17.251,18"/><path class="a" d="M17.251,20.25a.375.375,0,1,0,.375.375.375.375,0,0,0-.375-.375h0"/><path class="a" d="M4.5,3.375a.375.375,0,1,0,.375.375A.375.375,0,0,0,4.5,3.375h0"/><line class="a" x1="9.751" y1="3.75" x2="11.251" y2="3.75"/><line class="a" x1="14.251" y1="3.75" x2="15.751" y2="3.75"/><path class="a" d="M4.5,9.375a.375.375,0,1,0,.375.375A.375.375,0,0,0,4.5,9.375h0"/><line class="a" x1="9.751" y1="9.75" x2="11.251" y2="9.75"/><polyline class="a" points="4.502 18.75 8.251 18.75 8.251 12.75"/><path class="a" d="M1.126,18a.375.375,0,1,0,.375.375A.375.375,0,0,0,1.126,18h0"/><path class="a" d="M18.751,3.75a3,3,0,0,1-3,3h-12a3,3,0,0,1,0-6h12A3,3,0,0,1,18.751,3.75Z"/><path class="a" d="M9.751,12.75h-6a3,3,0,0,1,0-6h12a3,3,0,0,1,2.632,1.56"/></svg>