<svg xmlns="http://www.w3.org/2000/svg" viewBox="0 0 24 24"><defs><style>.a{fill:none;stroke:currentColor;stroke-linecap:round;stroke-linejoin:round;stroke-width:1.5px;}</style></defs><title>server-3</title><line class="a" x1="12.001" y1="9.75" x2="13.501" y2="9.75"/><line class="a" x1="16.501" y1="9.75" x2="19.501" y2="9.75"/><path class="a" d="M23.251,9.75a4.5,4.5,0,0,1-4.5,4.5H5.251a4.5,4.5,0,0,1,0-9h13.5A4.5,4.5,0,0,1,23.251,9.75Z"/><path class="a" d="M5.626,9.375A.375.375,0,1,0,6,9.75a.375.375,0,0,0-.375-.375h0"/><line class="a" x1="12.001" y1="18.75" x2="13.501" y2="18.75"/><line class="a" x1="16.501" y1="18.75" x2="19.501" y2="18.75"/><path class="a" d="M23.251,18.75a4.5,4.5,0,0,1-4.5,4.5H5.251a4.5,4.5,0,0,1,0-9h13.5A4.5,4.5,0,0,1,23.251,18.75Z"/><path class="a" d="M5.626,18.375A.375.375,0,1,0,6,18.75a.375.375,0,0,0-.375-.375h0"/><path class="a" d="M22.827,7.843,20.31,2.476A3,3,0,0,0,17.594.75H6.408A3,3,0,0,0,3.691,2.476L1.175,7.843"/></svg>