<svg xmlns="http://www.w3.org/2000/svg" viewBox="0 0 24 24"><defs><style>.a{fill:none;stroke:currentColor;stroke-linecap:round;stroke-linejoin:round;stroke-width:1.5px;}</style></defs><title>server-mail</title><path class="a" d="M4.5,3.375a.375.375,0,1,0,.375.375A.375.375,0,0,0,4.5,3.375h0"/><line class="a" x1="9.753" y1="3.75" x2="11.253" y2="3.75"/><line class="a" x1="14.253" y1="3.75" x2="15.753" y2="3.75"/><path class="a" d="M4.5,9.375a.375.375,0,1,0,.375.375A.375.375,0,0,0,4.5,9.375h0"/><line class="a" x1="9.753" y1="9.75" x2="11.253" y2="9.75"/><line class="a" x1="14.253" y1="9.75" x2="15.753" y2="9.75"/><polyline class="a" points="4.501 18.75 8.253 18.75 8.253 12.75"/><path class="a" d="M1.128,18a.375.375,0,1,0,.375.375A.375.375,0,0,0,1.128,18h0"/><path class="a" d="M18.753,3.75a3,3,0,0,1-3,3h-12a3,3,0,0,1,0-6h12A3,3,0,0,1,18.753,3.75Z"/><path class="a" d="M9.751,12.75h-6a3,3,0,0,1,0-6h12a3.032,3.032,0,0,1,2.62,4.528"/><path class="a" d="M23.251,15.75v6a1.5,1.5,0,0,1-1.5,1.5h-9a1.5,1.5,0,0,1-1.5-1.5v-6"/><path class="a" d="M23.251,15.75a1.5,1.5,0,0,0-1.5-1.5h-9a1.5,1.5,0,0,0-1.5,1.5L16.456,19a1.5,1.5,0,0,0,1.59,0Z"/></svg>