<svg xmlns="http://www.w3.org/2000/svg" viewBox="0 0 24 24"><defs><style>.a{fill:none;stroke:currentColor;stroke-linecap:round;stroke-linejoin:round;stroke-width:1.5px;}</style></defs><title>server-refresh</title><path class="a" d="M5.251,4.875a.375.375,0,1,0,.375.375.375.375,0,0,0-.375-.375h0"/><path class="a" d="M5.251,13.875a.375.375,0,1,0,.375.375.375.375,0,0,0-.375-.375h0"/><path class="a" d="M12.714,9.75H5.251a4.5,4.5,0,0,1,0-9h12a4.5,4.5,0,0,1,3.063,7.8"/><path class="a" d="M8.251,18.75h-3a4.5,4.5,0,0,1,0-9h7.5"/><line class="a" x1="10.501" y1="5.25" x2="17.251" y2="5.25"/><polyline class="a" points="19.501 15.75 23.251 15.75 23.251 11.25"/><path class="a" d="M23.062,15.75a6,6,0,1,0-1.121,5.243"/></svg>