<?xml version="1.0" encoding="utf-8"?>
<!-- Generator: Adobe Illustrator 22.1.0, SVG Export Plug-In . SVG Version: 6.00 Build 0)  -->
<svg version="1.1" id="Layer_1" xmlns="http://www.w3.org/2000/svg" xmlns:xlink="http://www.w3.org/1999/xlink" x="0px" y="0px"
	 viewBox="0 0 24 24" style="enable-background:new 0 0 24 24;" xml:space="preserve">
<g>
	<title>mailbox-post</title>
	<path d="M9,18.5c-0.137,0-0.27-0.057-0.364-0.157c-0.143-0.152-0.177-0.379-0.083-0.566L9.941,15l-1.388-2.776
		c-0.093-0.187-0.06-0.415,0.084-0.567C8.73,11.557,8.863,11.5,9,11.5c0.068,0,0.135,0.014,0.198,0.041l6.999,3
		C16.381,14.619,16.5,14.8,16.5,15s-0.119,0.381-0.303,0.46l-7,3C9.134,18.486,9.068,18.5,9,18.5z M10.947,14.776
		c0.07,0.14,0.07,0.307,0,0.447l-0.89,1.779L14.731,15l-4.673-2.003L10.947,14.776z"/>
	<path d="M21,24c-0.276,0-0.5-0.224-0.5-0.5V21h-17v2.5C3.5,23.776,3.276,24,3,24s-0.5-0.224-0.5-0.5v-19
		c0-2.021,1.362-3.802,3.314-4.336c0.041-0.016,0.077-0.022,0.103-0.026C6.27,0.048,6.641,0,7,0h10c0.359,0,0.729,0.048,1.101,0.142
		c0.011,0.001,0.045,0.007,0.085,0.022C20.138,0.699,21.5,2.479,21.5,4.5v19C21.5,23.776,21.276,24,21,24z M20.5,20V4.5
		c0-1.354-0.791-2.582-2-3.157V20H20.5z M17.5,20V7h-11v13H17.5z M5.5,20V1.343c-1.21,0.576-2,1.803-2,3.157V20H5.5z M17.5,6V1.036
		C17.335,1.012,17.167,1,17,1H7C6.833,1,6.665,1.012,6.5,1.036V6H17.5z"/>
	<path d="M8,10c-0.276,0-0.5-0.224-0.5-0.5S7.724,9,8,9h8c0.276,0,0.5,0.224,0.5,0.5S16.276,10,16,10H8z"/>
</g>
</svg>
