<svg xmlns="http://www.w3.org/2000/svg" viewBox="0 0 24 24"><defs><style>.a{fill:none;stroke:currentColor;stroke-linecap:round;stroke-linejoin:round;stroke-width:1.5px;}</style></defs><title>smart-watch-square-dumbbell</title><rect class="a" x="3.75" y="3.75" width="16.5" height="16.5" rx="3" ry="3"/><path class="a" d="M17.25,3.75H6.75V2.25A1.5,1.5,0,0,1,8.25.75h7.5a1.5,1.5,0,0,1,1.5,1.5Z"/><path class="a" d="M15.75,23.25H8.25a1.5,1.5,0,0,1-1.5-1.5v-1.5h10.5v1.5A1.5,1.5,0,0,1,15.75,23.25Z"/><line class="a" x1="10.409" y1="13.591" x2="13.591" y2="10.409"/><rect class="a" x="13.152" y="7.098" width="3" height="4.5" rx="0.75" ry="0.75" transform="translate(-2.319 13.098) rotate(-45)"/><rect class="a" x="7.848" y="12.402" width="3" height="4.5" rx="0.75" ry="0.75" transform="translate(-7.622 10.902) rotate(-45)"/><line class="a" x1="15.712" y1="8.288" x2="16.5" y2="7.5"/><line class="a" x1="8.288" y1="15.712" x2="7.5" y2="16.5"/></svg>