<svg xmlns="http://www.w3.org/2000/svg" viewBox="0 0 24 24"><defs><style>.a{fill:none;stroke:currentColor;stroke-linecap:round;stroke-linejoin:round;stroke-width:1.5px;}</style></defs><title>smart-watch-circle-text</title><path class="a" d="M4.137,6.969V2.25a1.5,1.5,0,0,1,1.5-1.5h3.75"/><path class="a" d="M13.137,17.031V21.75a1.5,1.5,0,0,1-1.5,1.5h-6a1.5,1.5,0,0,1-1.5-1.5V17.03"/><path class="a" d="M22.137,4.5A3.749,3.749,0,0,0,18.387.75h-3a3.75,3.75,0,0,0,0,7.5h1.5l3,1.5V7.933A3.746,3.746,0,0,0,22.137,4.5Z"/><path class="a" d="M15.346,11.251a6.865,6.865,0,0,1,.041.749,6.75,6.75,0,1,1-6.75-6.75"/></svg>