<svg xmlns="http://www.w3.org/2000/svg" viewBox="0 0 24 24"><defs><style>.a{fill:none;stroke:currentColor;stroke-linecap:round;stroke-linejoin:round;stroke-width:1.5px;}</style></defs><title>smart-watch-circle-brightness</title><path class="a" d="M22.875,5.622A.375.375,0,1,0,23.25,6a.375.375,0,0,0-.375-.375h0"/><path class="a" d="M11.625,5.622A.375.375,0,1,0,12,6a.375.375,0,0,0-.375-.375h0"/><path class="a" d="M20.063.75A.376.376,0,1,0,20.25.8.366.366,0,0,0,20.063.75h0"/><path class="a" d="M14.438,10.493a.374.374,0,1,0,.187.05.373.373,0,0,0-.187-.05h0"/><path class="a" d="M14.437.75A.366.366,0,0,0,14.25.8.373.373,0,1,0,14.437.75h0"/><path class="a" d="M20.062,10.493a.375.375,0,1,0,.325.188.375.375,0,0,0-.325-.188h0"/><circle class="a" cx="17.25" cy="5.997" r="2.25"/><path class="a" d="M8.284,5.329A6.525,6.525,0,0,0,7.5,5.25a6.75,6.75,0,1,0,6.316,9.068"/><path class="a" d="M3,17.031V21.75a1.5,1.5,0,0,0,1.5,1.5h6a1.5,1.5,0,0,0,1.5-1.5V17.012"/><path class="a" d="M10.5.75h-6A1.5,1.5,0,0,0,3,2.25V6.969"/></svg>