<svg xmlns="http://www.w3.org/2000/svg" viewBox="0 0 24 24"><defs><style>.a{fill:none;stroke:currentColor;stroke-linecap:round;stroke-linejoin:round;stroke-width:1.5px;}</style></defs><title>smart-watch-circle-wifi</title><path class="a" d="M4.125,6.97V2.25a1.5,1.5,0,0,1,1.5-1.5h4.5"/><path class="a" d="M13.125,17.031V21.75a1.5,1.5,0,0,1-1.5,1.5h-6a1.5,1.5,0,0,1-1.5-1.5V17.031"/><path class="a" d="M9.416,5.33a6.642,6.642,0,0,0-.791-.08,6.75,6.75,0,1,0,6.707,7.17"/><path class="a" d="M17.017,8.984a.375.375,0,1,0,.375.375.375.375,0,0,0-.375-.375h0"/><path class="a" d="M13.732,6.214a6.006,6.006,0,0,1,6.57,0"/><path class="a" d="M22.125,3.844a8.982,8.982,0,0,0-10.216,0"/></svg>