<svg xmlns="http://www.w3.org/2000/svg" viewBox="0 0 24 24"><defs><style>.a{fill:none;stroke:currentColor;stroke-linecap:round;stroke-linejoin:round;stroke-width:1.5px;}</style></defs><title>smart-watch-square-heart</title><rect class="a" x="3.75" y="3.75" width="16.5" height="16.5" rx="3" ry="3"/><path class="a" d="M17.25,3.75H6.75V2.25A1.5,1.5,0,0,1,8.25.75h7.5a1.5,1.5,0,0,1,1.5,1.5Z"/><path class="a" d="M15.75,23.25H8.25a1.5,1.5,0,0,1-1.5-1.5v-1.5h10.5v1.5A1.5,1.5,0,0,1,15.75,23.25Z"/><path class="a" d="M15.93,9.281a1.9,1.9,0,0,0-2.751,0L12,10.5,10.821,9.281a1.9,1.9,0,0,0-2.751,0,2.06,2.06,0,0,0,0,2.845l3.511,3.631a.579.579,0,0,0,.838,0l3.511-3.631A2.06,2.06,0,0,0,15.93,9.281Z"/></svg>