<svg xmlns="http://www.w3.org/2000/svg" viewBox="0 0 24 24"><defs><style>.a{fill:none;stroke:currentColor;stroke-linecap:round;stroke-linejoin:round;stroke-width:1.5px;}</style></defs><title>smart-watch-circle-dumbbell</title><path class="a" d="M15.69,15A6.751,6.751,0,1,1,9.032,5.277"/><path class="a" d="M5.141,6.97V2.25a1.5,1.5,0,0,1,1.5-1.5h4.5"/><path class="a" d="M14.141,17.031V21.75a1.5,1.5,0,0,1-1.5,1.5h-6a1.5,1.5,0,0,1-1.5-1.5V17.031"/><line class="a" x1="14.543" y1="7.334" x2="17.725" y2="4.152"/><rect class="a" x="17.286" y="0.841" width="3" height="4.5" rx="0.75" ry="0.75" transform="translate(3.316 14.188) rotate(-44.996)"/><rect class="a" x="11.982" y="6.144" width="3" height="4.5" rx="0.75" ry="0.75" transform="translate(-1.987 11.992) rotate(-45)"/><line class="a" x1="19.846" y1="2.03" x2="20.907" y2="0.97"/><line class="a" x1="12.422" y1="9.455" x2="11.361" y2="10.516"/></svg>