<svg xmlns="http://www.w3.org/2000/svg" viewBox="0 0 24 24"><defs><style>.a{fill:none;stroke:currentColor;stroke-linecap:round;stroke-linejoin:round;stroke-width:1.5px;}</style></defs><title>smart-watch-circle-play</title><path class="a" d="M13.96,12.412a.808.808,0,0,1-1.21-.7V1.559a.808.808,0,0,1,1.21-.7l8.883,5.075a.81.81,0,0,1,0,1.4Z"/><path class="a" d="M12,17.031V21.75a1.5,1.5,0,0,1-1.5,1.5h-6A1.5,1.5,0,0,1,3,21.75V17.031"/><path class="a" d="M3,6.969V2.25A1.5,1.5,0,0,1,4.5.75H9.75"/><path class="a" d="M13.264,15.515A6.746,6.746,0,1,1,9.752,5.634"/></svg>