<?xml version="1.0" encoding="utf-8"?>
<!-- Generator: Adobe Illustrator 22.1.0, SVG Export Plug-In . SVG Version: 6.00 Build 0)  -->
<svg version="1.1" id="Layer_1" xmlns="http://www.w3.org/2000/svg" xmlns:xlink="http://www.w3.org/1999/xlink" x="0px" y="0px"
	 viewBox="0 0 24 24" style="enable-background:new 0 0 24 24;" xml:space="preserve">
<title>microphone-off</title>
<g>
	<path d="M12,17.25c-2.895,0-5.25-2.355-5.25-5.25v-0.75c0-0.414,0.336-0.75,0.75-0.75s0.75,0.336,0.75,0.75V12
		c0,2.068,1.682,3.75,3.75,3.75c0.156,0,0.314-0.01,0.469-0.029c0.032-0.004,0.063-0.006,0.094-0.006
		c0.377,0,0.696,0.283,0.743,0.657c0.025,0.199-0.029,0.395-0.153,0.553c-0.123,0.158-0.3,0.259-0.499,0.283
		C12.438,17.236,12.218,17.25,12,17.25z"/>
	<path d="M16.5,12.75c-0.414,0-0.75-0.336-0.75-0.75V5.25c0-2.068-1.682-3.75-3.75-3.75c-1.363,0-2.62,0.74-3.28,1.931
		C8.588,3.669,8.337,3.817,8.064,3.817c-0.127,0-0.253-0.033-0.364-0.094C7.525,3.626,7.398,3.466,7.343,3.273
		c-0.055-0.193-0.032-0.395,0.065-0.57C8.333,1.036,10.093,0,11.999,0c2.896,0,5.251,2.355,5.251,5.25V12
		C17.25,12.414,16.914,12.75,16.5,12.75z"/>
	<path d="M12,24c-0.414,0-0.75-0.336-0.75-0.75v-3.024c-4.131-0.308-7.395-3.708-7.5-7.892l0-2.584C3.75,9.336,4.087,9,4.5,9
		s0.75,0.336,0.75,0.75v2.566c0.089,3.544,3.06,6.435,6.624,6.435l0.113-0.001c0.997,0,1.946-0.2,2.837-0.595
		c0.097-0.043,0.198-0.064,0.303-0.064c0.297,0,0.566,0.175,0.687,0.446c0.167,0.378-0.004,0.822-0.382,0.99
		c-0.854,0.378-1.755,0.61-2.682,0.69v3.033C12.75,23.664,12.414,24,12,24z"/>
	<path d="M18.94,15.782c-0.103,0-0.203-0.021-0.298-0.062c-0.379-0.163-0.554-0.605-0.391-0.985
		c0.331-0.769,0.499-1.583,0.499-2.419V9.75C18.75,9.336,19.087,9,19.5,9s0.75,0.336,0.75,0.75v2.566
		c0,1.042-0.208,2.056-0.622,3.013C19.511,15.604,19.24,15.782,18.94,15.782z"/>
	<path d="M21,21.75c-0.203,0-0.4-0.084-0.541-0.23l-18-18.75C2.321,2.625,2.246,2.435,2.251,2.235c0.004-0.2,0.086-0.387,0.23-0.526
		C2.621,1.574,2.806,1.5,3,1.5c0.203,0,0.401,0.084,0.541,0.231l18,18.75c0.139,0.145,0.213,0.334,0.209,0.535
		c-0.004,0.2-0.086,0.387-0.231,0.526C21.379,21.676,21.195,21.75,21,21.75z"/>
</g>
</svg>
