<?xml version="1.0" encoding="utf-8"?>
<!-- Generator: Adobe Illustrator 22.1.0, SVG Export Plug-In . SVG Version: 6.00 Build 0)  -->
<svg version="1.1" id="Layer_1" xmlns="http://www.w3.org/2000/svg" xmlns:xlink="http://www.w3.org/1999/xlink" x="0px" y="0px"
	 viewBox="0 0 24 24" style="enable-background:new 0 0 24 24;" xml:space="preserve">
<title>microphone</title>
<g>
	<path d="M10.5,17.25c-2.068,0-3.75-1.682-3.75-3.75V3.75C6.75,1.682,8.432,0,10.5,0h3c2.068,0,3.75,1.682,3.75,3.75v9.75
		c0,2.068-1.682,3.75-3.75,3.75H10.5z M10.5,1.5c-1.241,0-2.25,1.009-2.25,2.25v9.75c0,1.241,1.009,2.25,2.25,2.25h3
		c1.241,0,2.25-1.009,2.25-2.25V3.75c0-1.241-1.009-2.25-2.25-2.25H10.5z"/>
	<path d="M12,24c-0.414,0-0.75-0.336-0.75-0.75v-3.034c-4.234-0.381-7.5-3.923-7.5-8.216V9.75C3.75,9.336,4.086,9,4.5,9
		s0.75,0.336,0.75,0.75V12c0,3.722,3.028,6.75,6.75,6.75s6.75-3.028,6.75-6.75V9.75C18.75,9.336,19.086,9,19.5,9
		s0.75,0.336,0.75,0.75V12c0,4.293-3.266,7.835-7.5,8.216v3.034C12.75,23.664,12.414,24,12,24z"/>
</g>
</svg>
