<?xml version="1.0" encoding="utf-8"?>
<!-- Generator: Adobe Illustrator 22.1.0, SVG Export Plug-In . SVG Version: 6.00 Build 0)  -->
<svg version="1.1" id="Layer_1" xmlns="http://www.w3.org/2000/svg" xmlns:xlink="http://www.w3.org/1999/xlink" x="0px" y="0px"
	 viewBox="0 0 24 24" style="enable-background:new 0 0 24 24;" xml:space="preserve">
<title>microphone-karaoke</title>
<g>
	<path d="M0.75,24c-0.2,0-0.389-0.078-0.53-0.22C0.078,23.639,0,23.45,0,23.25s0.078-0.389,0.22-0.53l3.391-3.391l-0.105-0.105
		c-0.813-0.816-0.882-2.106-0.161-3.002l8.66-10.441c0.046-1.255,0.488-2.467,1.258-3.458l-0.566-0.566
		c-0.142-0.141-0.22-0.33-0.22-0.53s0.078-0.389,0.22-0.53s0.33-0.22,0.53-0.22s0.389,0.078,0.53,0.22l0.566,0.566
		C15.374,0.446,16.667,0,18,0c3.308,0,6,2.692,6,6c0,1.333-0.446,2.626-1.263,3.676l0.566,0.566c0.142,0.141,0.22,0.33,0.22,0.53
		s-0.078,0.389-0.22,0.53s-0.33,0.22-0.53,0.22s-0.389-0.078-0.53-0.22l-0.566-0.566c-0.991,0.77-2.202,1.212-3.458,1.258
		L7.79,20.648c-0.406,0.327-0.909,0.505-1.421,0.505c-0.599,0-1.162-0.233-1.587-0.657l-0.109-0.108L1.28,23.78
		C1.139,23.922,0.95,24,0.75,24z M4.506,17.172c-0.235,0.292-0.211,0.72,0.06,0.991l1.275,1.271c0.142,0.142,0.33,0.219,0.53,0.219
		c0.173,0,0.335-0.058,0.471-0.167l9.358-7.765c-1.86-0.588-3.332-2.06-3.92-3.92L4.506,17.172z M14.336,3.397
		C13.794,4.156,13.5,5.067,13.5,6c0,2.481,2.019,4.5,4.5,4.5c0.933,0,1.844-0.294,2.604-0.836L14.336,3.397z M21.664,8.603
		C22.206,7.844,22.5,6.933,22.5,6c0-2.481-2.019-4.5-4.5-4.5c-0.933,0-1.844,0.294-2.604,0.836L21.664,8.603z"/>
	<path d="M12.335,12.958c-0.301,0-0.583-0.117-0.795-0.328c-0.212-0.212-0.33-0.495-0.33-0.795c0-0.301,0.117-0.583,0.329-0.796
		c0.214-0.212,0.497-0.328,0.797-0.328c0.299,0,0.58,0.115,0.791,0.324c0.441,0.441,0.442,1.155,0.004,1.594
		C12.919,12.841,12.636,12.958,12.335,12.958z"/>
</g>
</svg>
