<?xml version="1.0" encoding="utf-8"?>
<!-- Generator: Adobe Illustrator 22.1.0, SVG Export Plug-In . SVG Version: 6.00 Build 0)  -->
<svg version="1.1" id="Layer_1" xmlns="http://www.w3.org/2000/svg" xmlns:xlink="http://www.w3.org/1999/xlink" x="0px" y="0px"
	 viewBox="0 0 24 24" style="enable-background:new 0 0 24 24;" xml:space="preserve">
<title>zip-file-share</title>
<g>
	<path d="M21,24c-1.654,0-3-1.346-3-3c0-0.125,0.009-0.253,0.026-0.382l-2.111-0.845C15.353,20.537,14.454,21,13.5,21
		c-1.654,0-3-1.346-3-3s1.346-3,3-3c0.794,0,1.544,0.311,2.104,0.863l2.52-1.512C18.041,14.076,18,13.791,18,13.5
		c0-1.654,1.346-3,3-3s3,1.346,3,3c0,1.654-1.346,3-3,3c-0.794,0-1.544-0.311-2.104-0.863l-2.52,1.512
		C16.459,17.424,16.5,17.709,16.5,18c0,0.125-0.009,0.253-0.026,0.382l2.111,0.845C19.147,18.463,20.046,18,21,18
		c1.654,0,3,1.346,3,3S22.654,24,21,24z M21,19.5c-0.615,0-1.161,0.371-1.392,0.944C19.536,20.623,19.5,20.81,19.5,21
		c0,0.827,0.673,1.5,1.5,1.5s1.5-0.673,1.5-1.5S21.827,19.5,21,19.5z M13.5,16.5c-0.827,0-1.5,0.673-1.5,1.5s0.673,1.5,1.5,1.5
		c0.615,0,1.161-0.371,1.392-0.944C14.964,18.377,15,18.19,15,18c0-0.257-0.068-0.511-0.196-0.737
		c-0.008-0.011-0.015-0.021-0.021-0.031c-0.009-0.015-0.016-0.028-0.021-0.04C14.493,16.764,14.019,16.5,13.5,16.5z M19.738,14.306
		C20.006,14.735,20.481,15,21,15c0.827,0,1.5-0.673,1.5-1.5S21.827,12,21,12s-1.5,0.673-1.5,1.5c0,0.256,0.067,0.509,0.195,0.734
		c0.006,0.008,0.017,0.023,0.026,0.04C19.726,14.282,19.732,14.295,19.738,14.306z"/>
	<path d="M2.25,21C1.009,21,0,19.991,0,18.75V2.25C0,1.009,1.009,0,2.25,0h10.629c0.601,0,1.165,0.234,1.59,0.658l2.872,2.872
		C17.766,3.955,18,4.52,18,5.121V8.25C18,8.664,17.664,9,17.25,9S16.5,8.664,16.5,8.25V5.121c0-0.197-0.08-0.39-0.219-0.53
		l-2.872-2.872c-0.142-0.141-0.33-0.219-0.53-0.219H10.6l0.37,2.964c0.096,0.769-0.143,1.542-0.656,2.123
		C9.801,7.144,9.112,7.465,8.367,7.495C8.327,7.497,8.288,7.498,8.25,7.498c-0.7,0-1.37-0.262-1.887-0.737
		C6.306,6.709,6.252,6.654,6.2,6.598C5.679,6.008,5.438,5.233,5.534,4.464L5.901,1.5H2.25C1.836,1.5,1.5,1.836,1.5,2.25v16.5
		c0,0.414,0.336,0.75,0.75,0.75H7.5c0.414,0,0.75,0.336,0.75,0.75S7.914,21,7.5,21H2.25z M7.022,4.649
		C6.98,4.991,7.086,5.335,7.314,5.593c0.014,0.015,0.039,0.04,0.065,0.063c0.239,0.22,0.55,0.341,0.876,0.341l0.052-0.001
		C8.649,5.983,8.967,5.835,9.2,5.582c0.22-0.249,0.324-0.59,0.281-0.932L9.088,1.5H7.413L7.022,4.649z"/>
	<circle cx="8.25" cy="9.75" r="1.125"/>
	<circle cx="8.25" cy="13.5" r="1.125"/>
	<circle cx="8.25" cy="17.25" r="1.125"/>
</g>
</svg>
