<?xml version="1.0" encoding="utf-8"?>
<!-- Generator: Adobe Illustrator 22.1.0, SVG Export Plug-In . SVG Version: 6.00 Build 0)  -->
<svg version="1.1" id="Layer_1" xmlns="http://www.w3.org/2000/svg" xmlns:xlink="http://www.w3.org/1999/xlink" x="0px" y="0px"
	 viewBox="0 0 24 24" style="enable-background:new 0 0 24 24;" xml:space="preserve">
<title>zip-file-download</title>
<g>
	<path d="M17.25,24c-3.722,0-6.75-3.028-6.75-6.75s3.028-6.75,6.75-6.75S24,13.528,24,17.25S20.972,24,17.25,24z M17.25,12
		C14.355,12,12,14.355,12,17.25s2.355,5.25,5.25,5.25s5.25-2.355,5.25-5.25S20.145,12,17.25,12z"/>
	<path d="M17.25,21c-0.087,0-0.174-0.016-0.258-0.046c-0.006-0.002-0.011-0.004-0.017-0.006c-0.104-0.042-0.186-0.097-0.256-0.167
		l-2.25-2.25c-0.292-0.292-0.292-0.768,0-1.061c0.142-0.142,0.33-0.22,0.53-0.22s0.389,0.078,0.53,0.22l0.97,0.97V14.25
		c0-0.414,0.336-0.75,0.75-0.75S18,13.836,18,14.25v4.189l0.97-0.97c0.142-0.142,0.33-0.22,0.53-0.22s0.389,0.078,0.53,0.22
		c0.292,0.292,0.292,0.768,0,1.061l-2.25,2.25c-0.07,0.07-0.152,0.125-0.245,0.163c-0.008,0.003-0.017,0.007-0.026,0.01
		C17.428,20.984,17.339,21,17.25,21z"/>
	<path d="M2.25,21C1.009,21,0,19.991,0,18.75V2.25C0,1.009,1.009,0,2.25,0h10.629c0.601,0,1.165,0.234,1.59,0.658l2.872,2.872
		C17.766,3.955,18,4.52,18,5.121V8.25C18,8.664,17.664,9,17.25,9S16.5,8.664,16.5,8.25V5.121c0-0.197-0.08-0.39-0.219-0.53
		l-2.872-2.872c-0.142-0.141-0.33-0.219-0.53-0.219H10.6l0.37,2.964c0.096,0.769-0.143,1.542-0.656,2.123
		C9.801,7.144,9.112,7.465,8.367,7.495C8.327,7.497,8.288,7.498,8.25,7.498c-0.7,0-1.37-0.262-1.887-0.737
		C6.306,6.709,6.252,6.654,6.2,6.598C5.679,6.008,5.438,5.233,5.534,4.464L5.901,1.5H2.25C1.836,1.5,1.5,1.836,1.5,2.25v16.5
		c0,0.414,0.336,0.75,0.75,0.75H7.5c0.414,0,0.75,0.336,0.75,0.75S7.914,21,7.5,21H2.25z M7.022,4.649
		C6.98,4.991,7.086,5.335,7.314,5.593c0.014,0.015,0.039,0.04,0.065,0.063c0.239,0.22,0.55,0.341,0.876,0.341l0.052-0.001
		C8.649,5.983,8.967,5.835,9.2,5.582c0.22-0.249,0.324-0.59,0.281-0.932L9.088,1.5H7.413L7.022,4.649z"/>
	<circle cx="8.25" cy="9.75" r="1.125"/>
	<circle cx="8.25" cy="13.5" r="1.125"/>
	<circle cx="8.25" cy="17.25" r="1.125"/>
</g>
</svg>
