<?xml version="1.0" encoding="utf-8"?>
<!-- Generator: Adobe Illustrator 22.1.0, SVG Export Plug-In . SVG Version: 6.00 Build 0)  -->
<svg version="1.1" id="Layer_1" xmlns="http://www.w3.org/2000/svg" xmlns:xlink="http://www.w3.org/1999/xlink" x="0px" y="0px"
	 viewBox="0 0 24 24" style="enable-background:new 0 0 24 24;" xml:space="preserve">
<title>zip-file-home</title>
<g>
	<path d="M15.75,24c-0.011,0-0.027-0.001-0.041-0.002l-1.459,0c-1.241,0-2.25-1.009-2.25-2.25V17.6l-0.256,0.224
		c-0.137,0.12-0.313,0.186-0.494,0.186c-0.217,0-0.422-0.094-0.565-0.257c-0.272-0.31-0.24-0.785,0.071-1.058l4.518-3.953
		c0.545-0.477,1.246-0.74,1.976-0.74s1.431,0.263,1.976,0.741l4.518,3.953c0.151,0.132,0.241,0.315,0.255,0.514
		c0.013,0.2-0.052,0.393-0.184,0.544c-0.143,0.163-0.348,0.256-0.564,0.256c-0.182,0-0.357-0.066-0.494-0.186L22.5,17.6v4.148
		c0,1.241-1.009,2.25-2.25,2.25h-1.462C18.774,23.999,18.76,24,18.75,24H15.75z M20.25,22.498c0.414,0,0.75-0.336,0.75-0.75v-5.46
		l-2.762-2.417c-0.272-0.239-0.624-0.37-0.988-0.37c-0.365,0-0.716,0.131-0.988,0.369L13.5,16.288v5.46
		c0,0.414,0.336,0.75,0.75,0.75H15V20.25c0-1.241,1.009-2.25,2.25-2.25s2.25,1.009,2.25,2.25v2.248H20.25z M18,22.498V20.25
		c0-0.414-0.336-0.75-0.75-0.75s-0.75,0.336-0.75,0.75v2.248H18z"/>
	<path d="M2.25,21C1.009,21,0,19.991,0,18.75V2.25C0,1.009,1.009,0,2.25,0h10.629c0.601,0,1.165,0.234,1.59,0.658l2.872,2.872
		C17.766,3.955,18,4.52,18,5.121V9.75c0,0.414-0.336,0.75-0.75,0.75s-0.75-0.336-0.75-0.75V5.121c0-0.197-0.08-0.39-0.219-0.53
		l-2.872-2.872c-0.142-0.141-0.33-0.219-0.53-0.219H10.6l0.37,2.964c0.096,0.769-0.143,1.542-0.656,2.123
		C9.801,7.144,9.112,7.465,8.367,7.495C8.327,7.497,8.288,7.498,8.25,7.498c-0.7,0-1.37-0.262-1.887-0.737
		C6.306,6.709,6.252,6.654,6.2,6.598C5.679,6.008,5.438,5.233,5.534,4.464L5.901,1.5H2.25C1.836,1.5,1.5,1.836,1.5,2.25v16.5
		c0,0.414,0.336,0.75,0.75,0.75H7.5c0.414,0,0.75,0.336,0.75,0.75S7.914,21,7.5,21H2.25z M7.022,4.649
		C6.98,4.991,7.086,5.335,7.314,5.593c0.014,0.015,0.039,0.04,0.065,0.063c0.239,0.22,0.55,0.341,0.876,0.341l0.052-0.001
		C8.649,5.983,8.967,5.835,9.2,5.582c0.22-0.249,0.324-0.59,0.281-0.932L9.088,1.5H7.413L7.022,4.649z"/>
	<circle cx="8.25" cy="9.75" r="1.125"/>
	<circle cx="8.25" cy="13.5" r="1.125"/>
	<circle cx="8.25" cy="17.25" r="1.125"/>
</g>
</svg>
