<?xml version="1.0" encoding="utf-8"?>
<!-- Generator: Adobe Illustrator 22.1.0, SVG Export Plug-In . SVG Version: 6.00 Build 0)  -->
<svg version="1.1" id="Layer_1" xmlns="http://www.w3.org/2000/svg" xmlns:xlink="http://www.w3.org/1999/xlink" x="0px" y="0px"
	 viewBox="0 0 24 24" style="enable-background:new 0 0 24 24;" xml:space="preserve">
<title>zip-file</title>
<g>
	<circle cx="9.75" cy="10.125" r="1.125"/>
	<circle cx="9.75" cy="14.625" r="1.125"/>
	<circle cx="9.75" cy="19.125" r="1.125"/>
	<path d="M3.75,24c-1.241,0-2.25-1.009-2.25-2.25V2.25C1.5,1.009,2.509,0,3.75,0h13.629c0.601,0,1.165,0.234,1.59,0.658l2.872,2.872
		c0.425,0.425,0.659,0.99,0.659,1.59V21.75c0,1.241-1.009,2.25-2.25,2.25H3.75z M3.75,1.5C3.336,1.5,3,1.836,3,2.25v19.5
		c0,0.414,0.336,0.75,0.75,0.75h16.5c0.414,0,0.75-0.336,0.75-0.75V5.121c0-0.197-0.08-0.39-0.219-0.53l-2.872-2.872
		c-0.142-0.141-0.33-0.219-0.53-0.219H12.1l0.371,2.964c0.096,0.769-0.144,1.542-0.656,2.123c-0.513,0.557-1.202,0.878-1.947,0.909
		C9.827,7.497,9.788,7.498,9.75,7.498c-0.7,0-1.37-0.262-1.887-0.737C7.806,6.709,7.752,6.654,7.7,6.598
		C7.179,6.008,6.938,5.233,7.034,4.464L7.401,1.5H3.75z M8.522,4.649C8.48,4.991,8.586,5.335,8.814,5.593
		c0.014,0.015,0.039,0.04,0.065,0.063c0.239,0.22,0.55,0.341,0.876,0.341l0.052-0.001c0.343-0.014,0.661-0.161,0.894-0.415
		c0.22-0.249,0.324-0.591,0.282-0.932L10.588,1.5H8.913L8.522,4.649z"/>
</g>
</svg>
