<?xml version="1.0" encoding="utf-8"?>
<!-- Generator: Adobe Illustrator 22.1.0, SVG Export Plug-In . SVG Version: 6.00 Build 0)  -->
<svg version="1.1" id="Layer_1" xmlns="http://www.w3.org/2000/svg" xmlns:xlink="http://www.w3.org/1999/xlink" x="0px" y="0px"
	 viewBox="0 0 24 24" style="enable-background:new 0 0 24 24;" xml:space="preserve">
<g>
	<title>pin-1</title>
	<path d="M0.502,23.999c-0.134,0-0.259-0.052-0.354-0.146c-0.195-0.195-0.195-0.512,0-0.707l9.583-9.583l-3.536-3.536
		C6.1,9.932,6.047,9.799,6.049,9.664C6.052,9.528,6.111,9.398,6.21,9.306c0.902-0.832,2.072-1.29,3.293-1.29
		c0.454,0,0.905,0.064,1.343,0.189l5.408-5.408c-0.226-0.301-0.349-0.664-0.35-1.047c-0.001-0.467,0.18-0.907,0.511-1.239
		c0.33-0.331,0.769-0.514,1.236-0.515c0.469,0,0.908,0.181,1.239,0.511l4.601,4.6c0.663,0.687,0.664,1.756,0.005,2.438
		c-0.332,0.344-0.779,0.533-1.259,0.533l0,0c-0.375,0-0.733-0.118-1.03-0.335l-5.411,5.41c0.466,1.625,0.05,3.388-1.103,4.637
		c-0.092,0.099-0.222,0.158-0.357,0.161h0c-0.142,0-0.271-0.053-0.364-0.146l-3.535-3.535l-9.583,9.583
		C0.761,23.947,0.636,23.999,0.502,23.999z M14.288,16.706c0.722-1.027,0.899-2.323,0.469-3.52
		c-0.065-0.181-0.019-0.386,0.117-0.522L20.839,6.7c0.095-0.094,0.22-0.146,0.354-0.146c0.133,0,0.258,0.052,0.353,0.146
		l0.177,0.176c0.136,0.132,0.32,0.205,0.515,0.205c0.206,0,0.398-0.081,0.541-0.229c0.282-0.292,0.282-0.75,0-1.042l-4.594-4.594
		c-0.141-0.141-0.329-0.218-0.529-0.218c-0.202,0-0.39,0.079-0.531,0.221c-0.141,0.142-0.219,0.331-0.219,0.531
		c0,0.2,0.079,0.389,0.221,0.53l0.177,0.178c0.195,0.195,0.195,0.512,0,0.707l-5.965,5.965c-0.094,0.094-0.22,0.146-0.354,0.146
		c-0.057,0-0.114-0.01-0.168-0.029c-0.424-0.152-0.865-0.229-1.312-0.229c-0.788,0-1.562,0.246-2.208,0.697L14.288,16.706z"/>
</g>
</svg>
