<?xml version="1.0" encoding="utf-8"?>
<!-- Generator: Adobe Illustrator 22.1.0, SVG Export Plug-In . SVG Version: 6.00 Build 0)  -->
<svg version="1.1" id="Layer_1" xmlns="http://www.w3.org/2000/svg" xmlns:xlink="http://www.w3.org/1999/xlink" x="0px" y="0px"
	 viewBox="0 0 24 24" style="enable-background:new 0 0 24 24;" xml:space="preserve">
<g>
	<title>pin-2</title>
	<path d="M0.5,23.999c-0.134,0-0.26-0.052-0.354-0.147c-0.194-0.195-0.194-0.512,0.001-0.707L15.148,8.175
		C14.406,7.278,14,6.159,14,4.999c0-2.757,2.243-5,5-5s5,2.243,5,5s-2.243,5-5,5c-1.144,0-2.251-0.396-3.143-1.12L0.854,23.853
		C0.759,23.947,0.633,23.999,0.5,23.999z M19,0.999c-2.206,0-4,1.794-4,4s1.794,4,4,4s4-1.794,4-4S21.206,0.999,19,0.999z"/>
</g>
</svg>
