<svg id="Layer_1" data-name="Layer 1" xmlns="http://www.w3.org/2000/svg" viewBox="0 0 22.5 24"><defs><style>.a{fill:none;stroke:currentColor;stroke-linecap:round;stroke-linejoin:round;stroke-width:1.5px;color:#25abc6;}</style></defs><title>common-file-pdf</title><path d="M22.5,21.75a1.5,1.5,0,0,1-1.5,1.5H3a1.5,1.5,0,0,1-1.5-1.5V2.25A1.5,1.5,0,0,1,3,.75H18.05a1.46,1.46,0,0,1,1,.43l3,2.88a1.49,1.49,0,0,1,.45,1.07Z" transform="translate(-0.75 0)" class="a"/><path d="M22.31,14.42a4.35,4.35,0,0,0-2.81-.66,22.43,22.43,0,0,0-3.38.25,8.77,8.77,0,0,1-1.57-1.09,11.53,11.53,0,0,1-2.83-4.39c0-.16.08-.3.11-.44a28.34,28.34,0,0,0,.5-5.15,1.67,1.67,0,0,0-.09-.37l-.06-.15a1.19,1.19,0,0,0-1.11-.85h-.34a1.25,1.25,0,0,0-1.28.8c-.41,1.52,0,3.78.78,6.71l-.2.48c-.55,1.34-1.24,2.69-1.84,3.88l-.08.16c-.64,1.25-1.22,2.31-1.75,3.21l-.54.29s-1,.51-1.19.64c-1.85,1.11-3.08,2.36-3.28,3.36a.81.81,0,0,0,.31.91l.53.27a1.58,1.58,0,0,0,.71.17c1.32,0,2.85-1.64,5-5.33A49.18,49.18,0,0,1,15.5,15.3a13.19,13.19,0,0,0,5.56,1.77,2.48,2.48,0,0,0,.66-.08,1.12,1.12,0,0,0,.65-.44A2.38,2.38,0,0,0,22.63,15a1,1,0,0,0-.32-.54Z" transform="translate(-0.75 0)" fill="#25abc6"/><path d="M2.61,21.44a9.35,9.35,0,0,1,2.6-3.11c.09-.07.31-.28.51-.47C4.25,20.21,3.26,21.15,2.61,21.44Z" transform="translate(-0.75 0)" fill="#fff"/><path d="M11,2.24c.43,0,.67,1.07.69,2.07a4.23,4.23,0,0,1-.51,2.22,10.86,10.86,0,0,1-.36-2.77s0-1.52.18-1.52Z" transform="translate(-0.75 0)" fill="#fff"/><path d="M8.46,15.92c.3-.53.61-1.08.92-1.67A30.64,30.64,0,0,0,11,10.73,11.6,11.6,0,0,0,13.65,14c.13.11.26.22.41.33a35,35,0,0,0-5.59,1.56h0Z" transform="translate(-0.75 0)" fill="#fff"/><path d="M21.9,15.8a1.93,1.93,0,0,1-.74.13A8.59,8.59,0,0,1,18.1,15c.51,0,1-.05,1.41-.05a5.26,5.26,0,0,1,1.76.19c.75.19.76.58.63.66Z" transform="translate(-0.75 0)" fill="#fff"/></svg>