<svg id="Layer_1" data-name="Layer 1" xmlns="http://www.w3.org/2000/svg" viewBox="0 0 20.14 23.75"><defs><style>.a{fill:none;stroke:currentColor;stroke-linecap:round;stroke-linejoin:round;stroke-width:1.5px;}</style></defs><title>office</title><path d="M19.67,10.31v0Z" transform="translate(-2.99 0)" class="a"/><path d="M22.38,23H4.67c-.51,0-.93-.77-.93-1.71V2.47c0-1,.42-1.72.93-1.72H14.88V9.31" transform="translate(-2.99 0)" class="a"/><path d="M19.67,10.31h0Z" transform="translate(-2.99 0)" class="a"/><path d="M19.67,15.19V23H13.88a.89.89,0,0,1-.76-1V11.29a.89.89,0,0,1,.76-1h5.39" transform="translate(-2.99 0)" class="a"/><line x1="13" y1="23" x2="14.68" y2="23" class="a"/><line x1="11.38" y1="4.25" x2="6.81" y2="4.25" class="a"/><line x1="11.38" y1="7.28" x2="9.01" y2="7.28" class="a"/><line x1="16.38" y1="12.28" x2="14.01" y2="12.28" class="a"/><path d="M10.41,23V20.12c0-1-.62-1.87-1.39-1.87H8.8c-.77,0-1.39.84-1.39,1.87V23" transform="translate(-2.99 0)" class="a"/><path d="M17.67,23V20.79a1.31,1.31,0,0,0-1.11-1.44h-.18a1.31,1.31,0,0,0-1.12,1.44V23" transform="translate(-2.99 0)" class="a"/></svg>