<svg id="Layer_1" data-name="Layer 1" xmlns="http://www.w3.org/2000/svg" viewBox="0 0 32 28.58"><title>windows</title><defs><style>.a{fill:currentColor;stroke:currentColor;stroke-linecap:round;stroke-linejoin:round;stroke-width:0;}</style></defs><path d="M12.88,16a9.43,9.43,0,0,0-4.31-1.16l-.56,0a18.46,18.46,0,0,0-4.37,1c-.27.1-.55.2-.83.32L0,25.88a15.09,15.09,0,0,1,5.2-1.06,10.38,10.38,0,0,1,5.87,1.92c.72-2.44,2.44-8.32,2.95-10.08q-.55-.35-1.14-.66Zm3.63,2.47-2.83,9.82c.84.48,3.66,2,5.82,2a16.05,16.05,0,0,0,6-1.37l2.7-9.44a16.93,16.93,0,0,1-5.24.9,11,11,0,0,1-6.42-1.91ZM9.15,11.52a10.37,10.37,0,0,1,5.67,1.9l2.9-9.92A16.66,16.66,0,0,0,14.35,2a10.5,10.5,0,0,0-2.42-.27A15.57,15.57,0,0,0,6.53,3L3.77,12.66a15.35,15.35,0,0,1,5.38-1.14ZM32,6.19a14.87,14.87,0,0,1-5.34,1.08,11,11,0,0,1-6.35-1.95l-2.87,9.94a11.29,11.29,0,0,0,6.19,1.88,13.18,13.18,0,0,0,5.48-1.28V15.8l.12,0L32,6.19Z" transform="translate(0 -1.71)" class="a"/></svg>