<svg id="Bold" xmlns="http://www.w3.org/2000/svg" viewBox="0 0 24 24"><title>multiple-man-woman-1</title><path d="M24,21a7.508,7.508,0,0,0-7.5-7.5,7.4,7.4,0,0,0-2.377.393.5.5,0,0,0-.2.823A8.957,8.957,0,0,1,16.5,21v.024a.469.469,0,0,0,.469.476H23.5A.5.5,0,0,0,24,21Z"/><path d="M13.675,5.53a6.8,6.8,0,0,1,.279,1.261.5.5,0,0,0,.707.394,5.885,5.885,0,0,0,1.777-1.271.251.251,0,0,1,.362,0,5.882,5.882,0,0,0,2.468,1.542.5.5,0,0,1,.342.552,3.05,3.05,0,0,1-3.01,2.585,3.015,3.015,0,0,1-2.2-.95.5.5,0,0,0-.83.165,6.479,6.479,0,0,1-.417.883.5.5,0,0,0,.1.62,4.987,4.987,0,0,0,6.5.149.25.25,0,0,1,.391.1,5.293,5.293,0,0,0,.482.964,1,1,0,1,0,1.68-1.084,4.744,4.744,0,0,1-.668-2.608V7.546a5.035,5.035,0,0,0-8.365-3.787.5.5,0,0,0-.1.625A5.8,5.8,0,0,1,13.675,5.53Z"/><path d="M12.5,7.5a5,5,0,1,0-5,5A5.006,5.006,0,0,0,12.5,7.5ZM4.6,6.757a.5.5,0,0,1,.741-.3A6.959,6.959,0,0,0,8.96,7.5a6.36,6.36,0,0,0,.929-.07.5.5,0,0,1,.569.564A3,3,0,0,1,4.5,7.5,2.841,2.841,0,0,1,4.6,6.757Z"/><path d="M15,21A7.5,7.5,0,0,0,0,21a.5.5,0,0,0,.5.5h14A.5.5,0,0,0,15,21Z"/></svg>