<svg id="Bold" xmlns="http://www.w3.org/2000/svg" viewBox="0 0 24 24"><title>multiple-users-2</title><path d="M13,13.25v-2a1,1,0,0,0-2,0v2a1,1,0,0,0,2,0Z"/><path d="M8.6,10.45a1,1,0,0,0-1.4.2l-1.5,2a1,1,0,1,0,1.6,1.2l1.5-2A1,1,0,0,0,8.6,10.45Z"/><path d="M18.1,14.05a1,1,0,0,0,.2-1.4l-1.5-2a1,1,0,1,0-1.6,1.2l1.5,2A1,1,0,0,0,18.1,14.05Z"/><path d="M3.5,20.152a2.2,2.2,0,1,0-2.2-2.2A2.2,2.2,0,0,0,3.5,20.152Z"/><path d="M3.5,20.952A3.592,3.592,0,0,0,.09,23.425a.255.255,0,0,0,.246.325h6.33a.254.254,0,0,0,.246-.325A3.592,3.592,0,0,0,3.5,20.952Z"/><circle cx="20.499" cy="17.949" r="2.199"/><path d="M20.5,20.947a3.592,3.592,0,0,0-3.411,2.473.254.254,0,0,0,.246.325h6.33a.255.255,0,0,0,.246-.325A3.592,3.592,0,0,0,20.5,20.947Z"/><circle cx="12" cy="17.949" r="2.199"/><path d="M12,20.947A3.592,3.592,0,0,0,8.589,23.42a.255.255,0,0,0,.246.325h6.33a.255.255,0,0,0,.246-.325A3.592,3.592,0,0,0,12,20.947Z"/><circle cx="12.003" cy="2.449" r="2.199"/><path d="M12,5.447A3.592,3.592,0,0,0,8.592,7.92a.255.255,0,0,0,.246.325h6.33a.254.254,0,0,0,.246-.325A3.591,3.591,0,0,0,12,5.447Z"/></svg>