<svg xmlns="http://www.w3.org/2000/svg" viewBox="0 0 24 24"><title>hand-drag</title><path d="M19,5.248a1.473,1.473,0,0,0-.61.121.249.249,0,0,0-.15.229v5.02a.5.5,0,0,1-1,0V4.882A1.749,1.749,0,0,0,15.5,3.248a1.473,1.473,0,0,0-.61.121.249.249,0,0,0-.15.229v6.52a.5.5,0,0,1-1,0V3.882A1.749,1.749,0,0,0,12,2.248a1.473,1.473,0,0,0-.61.121.249.249,0,0,0-.15.229v7.02a.5.5,0,0,1-1,0V4.882A1.747,1.747,0,0,0,6.75,5l-.01,9.479a.5.5,0,0,1-1,0V10a.25.25,0,0,0-.25-.25H5A1.752,1.752,0,0,0,3.25,11.5v4c0,2.112,3.128,6.25,6.91,6.25H15.5a5.256,5.256,0,0,0,5.25-5.25V7A1.752,1.752,0,0,0,19,5.248Z"/></svg>