<?xml version="1.0" encoding="utf-8"?>
<!-- Generator: Adobe Illustrator 22.1.0, SVG Export Plug-In . SVG Version: 6.00 Build 0)  -->
<svg version="1.1" id="Layer_1" xmlns="http://www.w3.org/2000/svg" xmlns:xlink="http://www.w3.org/1999/xlink" x="0px" y="0px"
	 viewBox="0 0 24 24" style="enable-background:new 0 0 24 24;" xml:space="preserve">
<g>
	<title>camera-settings-rotate-1</title>
	<path d="M15,20.8c-0.25,0-0.464-0.188-0.496-0.436c-0.035-0.273,0.159-0.525,0.432-0.56C19.684,19.191,23,17.216,23,15
		c0-1.172-0.97-2.327-2.732-3.252c-0.118-0.062-0.205-0.166-0.245-0.294c-0.04-0.128-0.027-0.263,0.035-0.381
		c0.087-0.165,0.257-0.267,0.443-0.267c0.08,0,0.161,0.02,0.232,0.057C22.84,11.969,24,13.439,24,15
		c0,2.733-3.675,5.116-8.936,5.796C15.04,20.799,15.02,20.8,15,20.8z"/>
	<path d="M7,13c-1.103,0-2-0.897-2-2V5.182C4.987,4.056,5.824,3.118,6.949,3.003C6.966,3.001,6.983,3,7,3h1.736l1.215-1.782
		C10.044,1.082,10.199,1,10.364,1h3.272c0.165,0,0.32,0.082,0.413,0.218L15.264,3H17c0.017,0,0.034,0.001,0.051,0.003
		C18.176,3.118,19.013,4.058,19,5.188V11c0,1.103-0.897,2-2,2H7z M7.028,4C6.434,4.073,5.993,4.576,6,5.176V11c0,0.551,0.449,1,1,1
		h10c0.552,0,1-0.449,1-1V5.182C18.007,4.577,17.566,4.073,16.972,4H15c-0.165,0-0.32-0.082-0.413-0.218L13.372,2h-2.744
		L9.413,3.782C9.32,3.918,9.165,4,9,4H7.028z"/>
	<path d="M12,11c-1.654,0-3-1.346-3-3s1.346-3,3-3c1.654,0,3,1.346,3,3S13.654,11,12,11z M12,6c-1.103,0-2,0.897-2,2s0.897,2,2,2
		s2-0.897,2-2S13.103,6,12,6z"/>
	<path d="M10,23c-0.134,0-0.259-0.052-0.354-0.146c-0.195-0.195-0.195-0.512,0-0.707l1.17-1.17C4.706,20.679,0,18.11,0,15.005
		c0-1.565,1.16-3.036,3.268-4.142c0.071-0.038,0.152-0.057,0.232-0.057c0.187,0,0.356,0.103,0.443,0.268
		c0.062,0.118,0.074,0.253,0.035,0.381c-0.04,0.128-0.127,0.232-0.245,0.294C1.97,12.673,1,13.83,1,15.005
		c0,2.513,4.325,4.683,9.766,4.968l-1.119-1.119c-0.195-0.195-0.195-0.512,0-0.707C9.741,18.052,9.866,18,10,18
		s0.259,0.052,0.354,0.146l2,2c0.092,0.092,0.143,0.212,0.146,0.341c0,0.006,0,0.011,0,0.017c0,0.143-0.064,0.28-0.175,0.376
		l-1.972,1.973C10.259,22.948,10.134,23,10,23z"/>
</g>
</svg>
