<?xml version="1.0" encoding="utf-8"?>
<!-- Generator: Adobe Illustrator 22.1.0, SVG Export Plug-In . SVG Version: 6.00 Build 0)  -->
<svg version="1.1" id="Layer_1" xmlns="http://www.w3.org/2000/svg" xmlns:xlink="http://www.w3.org/1999/xlink" x="0px" y="0px"
	 viewBox="0 0 24 24" style="enable-background:new 0 0 24 24;" xml:space="preserve">
<g>
	<title>camera-settings-frame</title>
	<path d="M7,17.366c-1.103,0-2-0.897-2-2V9.548C4.987,8.422,5.824,7.484,6.949,7.368C6.966,7.367,6.983,7.366,7,7.366h1.736
		L9.67,5.997c0.29-0.379,0.712-0.605,1.166-0.631l2.301-0.001c0.477,0.026,0.901,0.248,1.177,0.609l0.817,1.197
		c0.084,0.109,0.236,0.186,0.397,0.195L17,7.366c0.017,0,0.034,0.001,0.051,0.003C18.176,7.484,19.013,8.423,19,9.554v5.812
		c0,1.103-0.897,2-2,2H7z M7.028,8.366C6.434,8.439,5.993,8.942,6,9.542v5.824c0,0.552,0.449,1,1,1h10c0.552,0,1-0.448,1-1V9.548
		c0.007-0.605-0.434-1.109-1.028-1.182h-1.473c-0.477-0.026-0.901-0.248-1.178-0.608L13.504,6.56
		c-0.084-0.109-0.236-0.186-0.396-0.195l-2.244,0.001c-0.137,0.009-0.286,0.09-0.384,0.218L9.413,8.148
		C9.32,8.284,9.165,8.366,9,8.366H7.028z"/>
	<path d="M12,15.366c-1.654,0-3-1.346-3-3c0-1.654,1.346-3,3-3c1.654,0,3,1.346,3,3C15,14.02,13.654,15.366,12,15.366z M12,10.366
		c-1.103,0-2,0.897-2,2s0.897,2,2,2s2-0.897,2-2S13.103,10.366,12,10.366z"/>
	<path d="M0.977,19.134c-0.149,0-0.289-0.065-0.384-0.18c-0.176-0.212-0.148-0.528,0.064-0.704l1.039-0.866
		c0.023-0.019,0.044-0.04,0.063-0.063c0.086-0.103,0.127-0.233,0.115-0.366c-0.012-0.133-0.075-0.253-0.178-0.339L0.54,15.652
		c-0.068-0.057-0.133-0.121-0.191-0.191c-0.53-0.635-0.444-1.583,0.191-2.112l1.156-0.964c0.023-0.019,0.044-0.041,0.063-0.063
		c0.086-0.103,0.127-0.233,0.115-0.366c-0.012-0.133-0.075-0.253-0.178-0.339L0.54,10.652c-0.07-0.058-0.134-0.123-0.191-0.191
		C0.092,10.153-0.03,9.764,0.006,9.365c0.036-0.399,0.226-0.76,0.533-1.017l1.156-0.964C1.719,7.364,1.74,7.343,1.759,7.32
		c0.086-0.103,0.126-0.233,0.114-0.366C1.862,6.822,1.798,6.701,1.696,6.616L0.657,5.75C0.554,5.664,0.491,5.544,0.479,5.411
		s0.028-0.263,0.114-0.365c0.095-0.114,0.235-0.18,0.384-0.18c0.117,0,0.23,0.041,0.32,0.116l1.039,0.866
		c0.308,0.256,0.497,0.618,0.533,1.017c0.036,0.399-0.085,0.788-0.342,1.096C2.47,8.029,2.406,8.093,2.336,8.152L1.18,9.116
		C1.078,9.201,1.015,9.322,1.003,9.455C0.991,9.588,1.031,9.718,1.116,9.82c0.019,0.023,0.04,0.044,0.064,0.063l1.156,0.964
		c0.308,0.257,0.497,0.618,0.533,1.017c0.036,0.399-0.085,0.788-0.342,1.096c-0.058,0.07-0.123,0.134-0.192,0.191L1.18,14.116
		c-0.212,0.177-0.24,0.493-0.064,0.704c0.02,0.024,0.041,0.045,0.064,0.064l1.156,0.964c0.308,0.257,0.497,0.618,0.533,1.017
		c0.036,0.399-0.085,0.788-0.342,1.096c-0.058,0.07-0.123,0.134-0.192,0.191l-1.039,0.866C1.207,19.093,1.093,19.134,0.977,19.134z"
		/>
	<path d="M23.023,19.134c-0.116,0-0.229-0.041-0.319-0.115l-1.04-0.866c-0.07-0.058-0.134-0.123-0.192-0.192
		c-0.256-0.307-0.377-0.696-0.341-1.095s0.225-0.76,0.532-1.017l1.156-0.964c0.023-0.02,0.044-0.041,0.063-0.063
		c0.086-0.103,0.126-0.233,0.115-0.366s-0.075-0.253-0.178-0.339l-1.156-0.964c-0.069-0.057-0.134-0.122-0.192-0.192
		c-0.256-0.307-0.377-0.696-0.342-1.095c0.036-0.399,0.226-0.76,0.533-1.017l1.156-0.964c0.024-0.02,0.045-0.041,0.064-0.064
		c0.085-0.102,0.125-0.232,0.114-0.365s-0.075-0.253-0.178-0.339l-1.156-0.964c-0.07-0.058-0.134-0.122-0.191-0.191
		c-0.257-0.308-0.378-0.697-0.342-1.096c0.036-0.399,0.226-0.76,0.533-1.017l1.039-0.866c0.091-0.075,0.204-0.116,0.32-0.116
		c0.149,0,0.289,0.065,0.384,0.18c0.177,0.212,0.148,0.528-0.064,0.704l-1.039,0.866c-0.103,0.086-0.166,0.206-0.178,0.339
		c-0.012,0.133,0.028,0.263,0.114,0.365c0.019,0.023,0.041,0.045,0.064,0.064l1.155,0.964c0.308,0.257,0.497,0.618,0.533,1.017
		c0.036,0.399-0.085,0.788-0.342,1.096c-0.056,0.068-0.121,0.132-0.191,0.191l-1.156,0.964c-0.103,0.086-0.166,0.206-0.178,0.339
		c-0.012,0.133,0.028,0.263,0.114,0.365c0.019,0.023,0.041,0.045,0.063,0.064l1.156,0.964c0.308,0.256,0.497,0.617,0.533,1.017
		c0.036,0.399-0.085,0.788-0.342,1.096c-0.057,0.069-0.122,0.134-0.192,0.192l-1.156,0.963c-0.103,0.086-0.166,0.206-0.178,0.339
		s0.028,0.263,0.114,0.365c0.019,0.023,0.041,0.045,0.063,0.064l1.039,0.866c0.212,0.177,0.24,0.492,0.064,0.704
		C23.312,19.068,23.172,19.134,23.023,19.134z"/>
</g>
</svg>
