<?xml version="1.0" encoding="utf-8"?>
<!-- Generator: Adobe Illustrator 22.1.0, SVG Export Plug-In . SVG Version: 6.00 Build 0)  -->
<svg version="1.1" id="Layer_1" xmlns="http://www.w3.org/2000/svg" xmlns:xlink="http://www.w3.org/1999/xlink" x="0px" y="0px"
	 viewBox="0 0 24 24" style="enable-background:new 0 0 24 24;" xml:space="preserve">
<title>setting-slider-vertical</title>
<g>
	<path d="M12,19.502c-1.202,0-2.332-0.468-3.182-1.318c-0.85-0.85-1.319-1.98-1.319-3.182c0-1.202,0.467-2.332,1.317-3.183
		c0.85-0.85,1.98-1.319,3.182-1.319c1.203,0,2.333,0.468,3.183,1.317c0.85,0.85,1.319,1.98,1.319,3.182
		c0,1.203-0.468,2.333-1.318,3.184c-0.85,0.85-1.98,1.319-3.182,1.319C12.001,19.502,12,19.502,12,19.502z M12,12
		c-0.802,0-1.556,0.312-2.123,0.88c-0.567,0.567-0.879,1.321-0.878,2.122c0,0.802,0.312,1.555,0.88,2.122
		c0.567,0.566,1.32,0.878,2.122,0.878c1.655,0,3.001-1.347,3.001-3.002c0-0.802-0.312-1.555-0.879-2.122
		C13.555,12.312,12.802,12,12,12l0-0.375L12,12z"/>
	<path d="M12.001,24c-0.414,0-0.75-0.336-0.75-0.75v-1.5c0-0.414,0.336-0.75,0.75-0.75s0.75,0.336,0.75,0.75v1.5
		C12.751,23.664,12.415,24,12.001,24z"/>
	<path d="M12.001,9c-0.414,0-0.75-0.336-0.75-0.75v-7.5c0-0.414,0.336-0.75,0.75-0.75s0.75,0.336,0.75,0.75v7.5
		C12.751,8.664,12.415,9,12.001,9z"/>
</g>
</svg>
