<?xml version="1.0" encoding="utf-8"?>
<!-- Generator: Adobe Illustrator 22.1.0, SVG Export Plug-In . SVG Version: 6.00 Build 0)  -->
<svg version="1.1" id="Layer_1" xmlns="http://www.w3.org/2000/svg" xmlns:xlink="http://www.w3.org/1999/xlink" x="0px" y="0px"
	 viewBox="0 0 24 24" style="enable-background:new 0 0 24 24;" xml:space="preserve">
<title>settings-slider</title>
<g>
	<path d="M2.251,24c-1.241,0-2.25-1.009-2.25-2.25V2.25C0.001,1.009,1.01,0,2.251,0h19.5c1.241,0,2.25,1.009,2.25,2.25v19.5
		c0,1.241-1.009,2.25-2.25,2.25H2.251z M2.251,1.5c-0.414,0-0.75,0.336-0.75,0.75v19.5c0,0.414,0.336,0.75,0.75,0.75h19.5
		c0.414,0,0.75-0.336,0.75-0.75V2.25c0-0.414-0.336-0.75-0.75-0.75H2.251z"/>
	<path d="M10.501,18.75c-1.37,0-2.564-0.947-2.902-2.25H5.251c-0.414,0-0.75-0.336-0.75-0.75S4.837,15,5.251,15h2.349
		c0.338-1.303,1.531-2.25,2.9-2.25c1.371,0,2.565,0.947,2.903,2.25h5.348c0.414,0,0.75,0.336,0.75,0.75s-0.336,0.75-0.75,0.75
		h-5.348C13.065,17.803,11.871,18.75,10.501,18.75z M10.5,14.25c-0.827,0-1.499,0.673-1.499,1.5c0,0.827,0.673,1.5,1.5,1.5
		s1.5-0.673,1.5-1.5C12.001,14.923,11.328,14.25,10.5,14.25l0-0.375L10.5,14.25z"/>
	<path d="M16.5,11.25c-1.369-0.001-2.562-0.948-2.9-2.25H5.251c-0.414,0-0.75-0.336-0.75-0.75S4.837,7.5,5.251,7.5h8.348
		c0.338-1.303,1.532-2.25,2.902-2.25c1.654,0,3,1.346,3,3C19.5,9.904,18.154,11.25,16.5,11.25L16.5,11.25z M16.501,6.75
		c-0.827,0-1.5,0.673-1.5,1.5c0,0.827,0.673,1.5,1.5,1.5c0.827,0,1.5-0.673,1.5-1.5C18.001,7.423,17.328,6.75,16.501,6.75z"/>
</g>
</svg>
