<?xml version="1.0" encoding="utf-8"?>
<!-- Generator: Adobe Illustrator 22.1.0, SVG Export Plug-In . SVG Version: 6.00 Build 0)  -->
<svg version="1.1" id="Layer_1" xmlns="http://www.w3.org/2000/svg" xmlns:xlink="http://www.w3.org/1999/xlink" x="0px" y="0px"
	 viewBox="0 0 24 24" style="enable-background:new 0 0 24 24;" xml:space="preserve">
<title>settings-toggle-horizontal</title>
<g>
	<path d="M5.626,11.25c-3.094-0.008-5.617-2.531-5.625-5.623C0.01,2.532,2.532,0.009,5.624,0h12.752
		c3.093,0.009,5.615,2.532,5.625,5.623c-0.009,3.095-2.531,5.618-5.623,5.627c0,0-0.001,0-0.001,0H5.626z M5.626,1.5
		C3.358,1.507,1.507,3.358,1.501,5.627C1.507,7.894,3.358,9.744,5.628,9.75h12.747c2.268-0.006,4.119-1.858,4.126-4.127
		c-0.007-2.265-1.858-4.116-4.127-4.123H5.626L5.626,1.5z"/>
	<path d="M5.626,24c-3.094-0.008-5.617-2.531-5.625-5.623c0.009-3.095,2.531-5.618,5.623-5.627h12.752
		c3.093,0.01,5.615,2.532,5.625,5.623c-0.009,3.095-2.531,5.619-5.623,5.627c0,0-0.001,0-0.001,0H5.626z M5.626,14.25
		c-2.268,0.007-4.119,1.858-4.125,4.127c0.006,2.267,1.857,4.117,4.127,4.123h12.748c2.268-0.007,4.118-1.858,4.125-4.127
		c-0.007-2.266-1.858-4.116-4.127-4.123H5.626L5.626,14.25z"/>
	<path d="M5.626,8.25c-1.447,0-2.625-1.178-2.625-2.625S4.179,3,5.626,3s2.625,1.178,2.625,2.625S7.073,8.25,5.626,8.25z M5.626,4.5
		c-0.62,0-1.125,0.505-1.125,1.125S5.006,6.75,5.626,6.75s1.125-0.505,1.125-1.125S6.246,4.5,5.626,4.5z"/>
	<path d="M18.376,21c-1.448,0-2.625-1.177-2.625-2.625s1.177-2.625,2.625-2.625s2.625,1.177,2.625,2.625S19.823,21,18.376,21z
		 M18.376,17.25c-0.62,0-1.125,0.505-1.125,1.125s0.505,1.125,1.125,1.125s1.125-0.505,1.125-1.125S18.996,17.25,18.376,17.25z"/>
</g>
</svg>
