<?xml version="1.0" encoding="utf-8"?>
<!-- Generator: Adobe Illustrator 22.1.0, SVG Export Plug-In . SVG Version: 6.00 Build 0)  -->
<svg version="1.1" id="Layer_1" xmlns="http://www.w3.org/2000/svg" xmlns:xlink="http://www.w3.org/1999/xlink" x="0px" y="0px"
	 viewBox="0 0 24 24" style="enable-background:new 0 0 24 24;" xml:space="preserve">
<title>floppy-disk-3</title>
<g>
	<path d="M12,23.25C5.797,23.25,0.75,18.203,0.75,12C0.75,5.797,5.797,0.75,12,0.75c6.203,0,11.25,5.047,11.25,11.25
		C23.25,18.203,18.203,23.25,12,23.25z M12,2.25c-5.376,0-9.75,4.374-9.75,9.75s4.374,9.75,9.75,9.75s9.75-4.374,9.75-9.75
		S17.376,2.25,12,2.25z"/>
	<circle cx="12" cy="12" r="1.5"/>
	<path d="M12,8.25c-0.414,0-0.75-0.336-0.75-0.75v-3c0-0.414,0.336-0.75,0.75-0.75s0.75,0.336,0.75,0.75v3
		C12.75,7.914,12.414,8.25,12,8.25z"/>
	<path d="M5.505,16.5c-0.267,0-0.516-0.144-0.65-0.375c-0.1-0.174-0.127-0.376-0.075-0.569c0.052-0.194,0.176-0.355,0.349-0.455
		l2.598-1.5C7.842,13.535,7.972,13.5,8.103,13.5c0.267,0,0.516,0.144,0.65,0.375c0.1,0.174,0.127,0.376,0.075,0.569
		c-0.052,0.194-0.176,0.355-0.349,0.455l-2.598,1.5C5.766,16.465,5.637,16.5,5.505,16.5z"/>
	<path d="M18.495,16.5c-0.132,0-0.261-0.035-0.375-0.101l-2.598-1.5c-0.358-0.207-0.481-0.666-0.274-1.024
		c0.133-0.231,0.382-0.375,0.65-0.375c0.132,0,0.261,0.035,0.375,0.101l2.598,1.5c0.358,0.207,0.481,0.666,0.274,1.024
		C19.011,16.356,18.762,16.5,18.495,16.5z"/>
</g>
</svg>
