<?xml version="1.0" encoding="utf-8"?>
<!-- Generator: Adobe Illustrator 22.1.0, SVG Export Plug-In . SVG Version: 6.00 Build 0)  -->
<svg version="1.1" id="Layer_1" xmlns="http://www.w3.org/2000/svg" xmlns:xlink="http://www.w3.org/1999/xlink" x="0px" y="0px"
	 viewBox="0 0 24 24" style="enable-background:new 0 0 24 24;" xml:space="preserve">
<title>floppy-disk</title>
<g>
	<path d="M2.25,24C1.009,24,0,22.991,0,21.75V7.243C0,6.241,0.39,5.3,1.099,4.592L4.59,1.099C5.299,0.39,6.241,0,7.243,0H21.75
		C22.991,0,24,1.009,24,2.25v19.5c0,1.241-1.009,2.25-2.25,2.25H2.25z M21.75,22.5c0.414,0,0.75-0.336,0.75-0.75V2.25
		c0-0.414-0.336-0.75-0.75-0.75H19.5v5.25C19.5,7.991,18.491,9,17.25,9h-7.5C8.509,9,7.5,7.991,7.5,6.75V1.5H7.243
		c-0.601,0-1.167,0.234-1.592,0.659L2.16,5.652C1.734,6.077,1.5,6.642,1.5,7.243V21.75c0,0.414,0.336,0.75,0.75,0.75H4.5v-8.25
		C4.5,13.009,5.509,12,6.75,12h10.5c1.241,0,2.25,1.009,2.25,2.25v8.25H21.75z M18,22.5v-8.25c0-0.414-0.336-0.75-0.75-0.75H6.75
		C6.336,13.5,6,13.836,6,14.25v8.25H18z M9,6.75C9,7.164,9.336,7.5,9.75,7.5h7.5C17.664,7.5,18,7.164,18,6.75V1.5H9V6.75z"/>
	<path d="M15.75,6C15.336,6,15,5.664,15,5.25v-1.5C15,3.336,15.336,3,15.75,3s0.75,0.336,0.75,0.75v1.5C16.5,5.664,16.164,6,15.75,6
		z"/>
	<path d="M8.25,16.5c-0.414,0-0.75-0.336-0.75-0.75S7.836,15,8.25,15h4.5c0.414,0,0.75,0.336,0.75,0.75s-0.336,0.75-0.75,0.75H8.25z
		"/>
	<path d="M8.25,19.5c-0.414,0-0.75-0.336-0.75-0.75S7.836,18,8.25,18h7.5c0.414,0,0.75,0.336,0.75,0.75s-0.336,0.75-0.75,0.75H8.25z
		"/>
</g>
</svg>
