<svg id="Bold" xmlns="http://www.w3.org/2000/svg" viewBox="0 0 24 24"><title>single-man-actions-alarm</title><path d="M.619,18.062H2.41a.247.247,0,0,1,.247.227L3.1,23.546A.494.494,0,0,0,3.588,24H7.546a.494.494,0,0,0,.493-.454l.439-5.257a.246.246,0,0,1,.246-.227h1.791a.494.494,0,0,0,.495-.5V14.1a5.443,5.443,0,1,0-10.886,0v3.464A.494.494,0,0,0,.619,18.062Z"/><path d="M1.361,4.206A4.206,4.206,0,1,0,5.567,0,4.211,4.211,0,0,0,1.361,4.206ZM5.567,6.433A2.229,2.229,0,0,1,3.34,4.206a2.136,2.136,0,0,1,.157-.8.247.247,0,0,1,.359-.119,5.317,5.317,0,0,0,2.8.793,5.353,5.353,0,0,0,.9-.077.2.2,0,0,1,.237.2A2.229,2.229,0,0,1,5.567,6.433Z"/><path d="M23.539,19.927h0a4.042,4.042,0,0,1-1.147-2.689V15.588a4.454,4.454,0,1,0-8.907,0v1.649a4.046,4.046,0,0,1-1.147,2.689h0l-.238.312a.495.495,0,0,0,.4.792H23.381a.495.495,0,0,0,.4-.792Z"/><path d="M19.6,22.212a.5.5,0,0,0-.391-.191H16.665a.494.494,0,0,0-.479.618,1.808,1.808,0,0,0,3.5,0A.492.492,0,0,0,19.6,22.212Z"/><path d="M.619,18.062H2.41a.247.247,0,0,1,.247.227L3.1,23.546A.494.494,0,0,0,3.588,24H7.546a.494.494,0,0,0,.493-.454l.439-5.257a.246.246,0,0,1,.246-.227h1.791a.494.494,0,0,0,.495-.5V14.1a5.443,5.443,0,1,0-10.886,0v3.464A.494.494,0,0,0,.619,18.062Z"/><path d="M1.361,4.206A4.206,4.206,0,1,0,5.567,0,4.211,4.211,0,0,0,1.361,4.206ZM5.567,6.433A2.229,2.229,0,0,1,3.34,4.206a2.136,2.136,0,0,1,.157-.8.247.247,0,0,1,.359-.119,5.317,5.317,0,0,0,2.8.793,5.353,5.353,0,0,0,.9-.077.2.2,0,0,1,.237.2A2.229,2.229,0,0,1,5.567,6.433Z"/><path d="M23.539,19.927h0a4.042,4.042,0,0,1-1.147-2.689V15.588a4.454,4.454,0,1,0-8.907,0v1.649a4.046,4.046,0,0,1-1.147,2.689h0l-.238.312a.495.495,0,0,0,.4.792H23.381a.495.495,0,0,0,.4-.792Z"/><path d="M19.6,22.212a.5.5,0,0,0-.391-.191H16.665a.494.494,0,0,0-.479.618,1.808,1.808,0,0,0,3.5,0A.492.492,0,0,0,19.6,22.212Z"/></svg>