<svg id="Bold" xmlns="http://www.w3.org/2000/svg" viewBox="0 0 24 24"><title>single-man-actions-video</title><path d="M9.526,15.588a2.959,2.959,0,0,1,1.253-2.414.246.246,0,0,0,.1-.255A5.442,5.442,0,0,0,.124,14.1v3.464a.494.494,0,0,0,.5.5H2.41a.246.246,0,0,1,.246.227L3.1,23.546A.494.494,0,0,0,3.588,24H7.546a.494.494,0,0,0,.493-.454l.439-5.257a.246.246,0,0,1,.246-.227h.554a.248.248,0,0,0,.248-.248Z"/><path d="M5.567,8.412A4.206,4.206,0,1,0,1.361,4.206,4.211,4.211,0,0,0,5.567,8.412Zm0-1.979A2.229,2.229,0,0,1,3.34,4.206a2.136,2.136,0,0,1,.157-.8.247.247,0,0,1,.359-.119,5.317,5.317,0,0,0,2.8.793,5.353,5.353,0,0,0,.9-.077.2.2,0,0,1,.237.2A2.229,2.229,0,0,1,5.567,6.433Z"/><path d="M23.254,15.605l-2.778.74a.248.248,0,0,1-.311-.239v-.518A1.486,1.486,0,0,0,18.68,14.1H12.5a1.486,1.486,0,0,0-1.485,1.485v6.927A1.486,1.486,0,0,0,12.5,24H18.68a1.486,1.486,0,0,0,1.485-1.485V22a.248.248,0,0,1,.311-.239l2.777.74h0a.49.49,0,0,0,.428-.086.5.5,0,0,0,.193-.392V16.082a.5.5,0,0,0-.193-.392A.489.489,0,0,0,23.254,15.605Z"/><path d="M9.526,15.588a2.959,2.959,0,0,1,1.253-2.414.246.246,0,0,0,.1-.255A5.442,5.442,0,0,0,.124,14.1v3.464a.494.494,0,0,0,.5.5H2.41a.246.246,0,0,1,.246.227L3.1,23.546A.494.494,0,0,0,3.588,24H7.546a.494.494,0,0,0,.493-.454l.439-5.257a.246.246,0,0,1,.246-.227h.554a.248.248,0,0,0,.248-.248Z"/><path d="M5.567,8.412A4.206,4.206,0,1,0,1.361,4.206,4.211,4.211,0,0,0,5.567,8.412Zm0-1.979A2.229,2.229,0,0,1,3.34,4.206a2.136,2.136,0,0,1,.157-.8.247.247,0,0,1,.359-.119,5.317,5.317,0,0,0,2.8.793,5.353,5.353,0,0,0,.9-.077.2.2,0,0,1,.237.2A2.229,2.229,0,0,1,5.567,6.433Z"/><path d="M23.254,15.605l-2.778.74a.248.248,0,0,1-.311-.239v-.518A1.486,1.486,0,0,0,18.68,14.1H12.5a1.486,1.486,0,0,0-1.485,1.485v6.927A1.486,1.486,0,0,0,12.5,24H18.68a1.486,1.486,0,0,0,1.485-1.485V22a.248.248,0,0,1,.311-.239l2.777.74h0a.49.49,0,0,0,.428-.086.5.5,0,0,0,.193-.392V16.082a.5.5,0,0,0-.193-.392A.489.489,0,0,0,23.254,15.605Z"/></svg>