<svg id="Bold" xmlns="http://www.w3.org/2000/svg" viewBox="0 0 24 24"><title>single-man-actions-block</title><path d="M.62,18.062H2.411a.246.246,0,0,1,.246.227L3.1,23.546A.494.494,0,0,0,3.589,24H7.547a.494.494,0,0,0,.493-.454l.439-5.257a.246.246,0,0,1,.246-.227H9.3a.248.248,0,0,0,.247-.255A7.911,7.911,0,0,1,10.86,13.2a.247.247,0,0,0,.037-.187A5.441,5.441,0,0,0,.125,14.1v3.464A.494.494,0,0,0,.62,18.062Z"/><path d="M1.362,4.206A4.206,4.206,0,1,0,5.568,0,4.211,4.211,0,0,0,1.362,4.206ZM5.568,6.433A2.229,2.229,0,0,1,3.341,4.206a2.136,2.136,0,0,1,.157-.8.247.247,0,0,1,.359-.119,5.317,5.317,0,0,0,2.8.793,5.353,5.353,0,0,0,.9-.077.2.2,0,0,1,.237.2A2.229,2.229,0,0,1,5.568,6.433Z"/><path d="M15.96,23.833A6.74,6.74,0,0,0,17.433,24a6.438,6.438,0,0,0,6.278-7.914A6.354,6.354,0,0,0,18.926,11.3a6.445,6.445,0,0,0-7.749,7.745A6.357,6.357,0,0,0,15.96,23.833Zm2.532-10.6a4.054,4.054,0,0,1,1.042.4.248.248,0,0,1,.057.393L13.9,19.714a.248.248,0,0,1-.393-.057,4.107,4.107,0,0,1-.4-1.044,4.457,4.457,0,0,1,4.352-5.5A4.679,4.679,0,0,1,18.492,13.232ZM16.4,21.9a4.115,4.115,0,0,1-1.04-.4.248.248,0,0,1-.057-.393l5.693-5.692a.243.243,0,0,1,.211-.07.248.248,0,0,1,.182.127,4.121,4.121,0,0,1,.4,1.041A4.467,4.467,0,0,1,16.4,21.9Z"/><path d="M.62,18.062H2.411a.246.246,0,0,1,.246.227L3.1,23.546A.494.494,0,0,0,3.589,24H7.547a.494.494,0,0,0,.493-.454l.439-5.257a.246.246,0,0,1,.246-.227H9.3a.248.248,0,0,0,.247-.255A7.911,7.911,0,0,1,10.86,13.2a.247.247,0,0,0,.037-.187A5.441,5.441,0,0,0,.125,14.1v3.464A.494.494,0,0,0,.62,18.062Z"/><path d="M1.362,4.206A4.206,4.206,0,1,0,5.568,0,4.211,4.211,0,0,0,1.362,4.206ZM5.568,6.433A2.229,2.229,0,0,1,3.341,4.206a2.136,2.136,0,0,1,.157-.8.247.247,0,0,1,.359-.119,5.317,5.317,0,0,0,2.8.793,5.353,5.353,0,0,0,.9-.077.2.2,0,0,1,.237.2A2.229,2.229,0,0,1,5.568,6.433Z"/><path d="M15.96,23.833A6.74,6.74,0,0,0,17.433,24a6.438,6.438,0,0,0,6.278-7.914A6.354,6.354,0,0,0,18.926,11.3a6.445,6.445,0,0,0-7.749,7.745A6.357,6.357,0,0,0,15.96,23.833Zm2.532-10.6a4.054,4.054,0,0,1,1.042.4.248.248,0,0,1,.057.393L13.9,19.714a.248.248,0,0,1-.393-.057,4.107,4.107,0,0,1-.4-1.044,4.457,4.457,0,0,1,4.352-5.5A4.679,4.679,0,0,1,18.492,13.232ZM16.4,21.9a4.115,4.115,0,0,1-1.04-.4.248.248,0,0,1-.057-.393l5.693-5.692a.243.243,0,0,1,.211-.07.248.248,0,0,1,.182.127,4.121,4.121,0,0,1,.4,1.041A4.467,4.467,0,0,1,16.4,21.9Z"/></svg>