<svg id="Bold" xmlns="http://www.w3.org/2000/svg" viewBox="0 0 24 24"><title>single-man-actions-edit-2</title><path d="M.62,18.062H2.411a.246.246,0,0,1,.246.227L3.1,23.546A.494.494,0,0,0,3.589,24H7.547a.494.494,0,0,0,.493-.454l.439-5.257a.246.246,0,0,1,.246-.227h1.791a.494.494,0,0,0,.495-.5V14.1a5.443,5.443,0,0,0-10.886,0v3.464A.494.494,0,0,0,.62,18.062Z"/><path d="M1.362,4.206A4.206,4.206,0,1,0,5.568,0,4.211,4.211,0,0,0,1.362,4.206ZM5.568,6.433A2.229,2.229,0,0,1,3.341,4.206a2.136,2.136,0,0,1,.157-.8.247.247,0,0,1,.359-.119,5.317,5.317,0,0,0,2.8.793,5.353,5.353,0,0,0,.9-.077.2.2,0,0,1,.237.2A2.229,2.229,0,0,1,5.568,6.433Z"/><path d="M15.985,21.969a.494.494,0,0,0,.7,0l6.436-6.435a2.6,2.6,0,0,0-.2-3.842,2.681,2.681,0,0,0-3.568.271L13.015,18.3a.5.5,0,0,0,0,.7Z"/><path d="M11.6,23.963l2.658-.531a.5.5,0,0,0,.252-.835l-2.125-2.126a.5.5,0,0,0-.835.253l-.532,2.658a.494.494,0,0,0,.485.591A.457.457,0,0,0,11.6,23.963Z"/><path d="M.62,18.062H2.411a.246.246,0,0,1,.246.227L3.1,23.546A.494.494,0,0,0,3.589,24H7.547a.494.494,0,0,0,.493-.454l.439-5.257a.246.246,0,0,1,.246-.227h1.791a.494.494,0,0,0,.495-.5V14.1a5.443,5.443,0,0,0-10.886,0v3.464A.494.494,0,0,0,.62,18.062Z"/><path d="M1.362,4.206A4.206,4.206,0,1,0,5.568,0,4.211,4.211,0,0,0,1.362,4.206ZM5.568,6.433A2.229,2.229,0,0,1,3.341,4.206a2.136,2.136,0,0,1,.157-.8.247.247,0,0,1,.359-.119,5.317,5.317,0,0,0,2.8.793,5.353,5.353,0,0,0,.9-.077.2.2,0,0,1,.237.2A2.229,2.229,0,0,1,5.568,6.433Z"/><path d="M15.985,21.969a.494.494,0,0,0,.7,0l6.436-6.435a2.6,2.6,0,0,0-.2-3.842,2.681,2.681,0,0,0-3.568.271L13.015,18.3a.5.5,0,0,0,0,.7Z"/><path d="M11.6,23.963l2.658-.531a.5.5,0,0,0,.252-.835l-2.125-2.126a.5.5,0,0,0-.835.253l-.532,2.658a.494.494,0,0,0,.485.591A.457.457,0,0,0,11.6,23.963Z"/></svg>