<svg id="Bold" xmlns="http://www.w3.org/2000/svg" viewBox="0 0 24 24"><title>single-man-actions-monitor</title><path d="M.619,18.062H2.41a.246.246,0,0,1,.246.227L3.1,23.546A.494.494,0,0,0,3.588,24H7.546a.494.494,0,0,0,.493-.454l.439-5.257a.246.246,0,0,1,.246-.227h.554a.248.248,0,0,0,.248-.248V13.031a3.439,3.439,0,0,1,.5-1.787.247.247,0,0,0-.01-.271A5.44,5.44,0,0,0,.124,14.1v3.464A.494.494,0,0,0,.619,18.062Z"/><path d="M1.361,4.206A4.206,4.206,0,1,0,5.567,0,4.211,4.211,0,0,0,1.361,4.206ZM5.567,6.433A2.229,2.229,0,0,1,3.34,4.206a2.136,2.136,0,0,1,.157-.8.247.247,0,0,1,.359-.119,5.317,5.317,0,0,0,2.8.793,5.353,5.353,0,0,0,.9-.077.2.2,0,0,1,.237.2A2.229,2.229,0,0,1,5.567,6.433Z"/><path d="M19.918,21.938H18.68a.248.248,0,0,1-.247-.247V21.2a.248.248,0,0,1,.247-.248H21.9a1.98,1.98,0,0,0,1.979-1.979V13.031a1.981,1.981,0,0,0-1.979-1.98H12.99a1.982,1.982,0,0,0-1.98,1.98v5.938a1.981,1.981,0,0,0,1.98,1.979h3.216a.248.248,0,0,1,.248.248v.495a.248.248,0,0,1-.248.247H14.969a.976.976,0,0,0-.838.5.961.961,0,0,0-.152.5.99.99,0,0,0,.99.989h4.949a.989.989,0,0,0,.989-.989.961.961,0,0,0-.152-.5A.973.973,0,0,0,19.918,21.938Zm1.98-3.217a.248.248,0,0,1-.247.248H13.237a.247.247,0,0,1-.247-.248V13.278a.247.247,0,0,1,.247-.247H21.65a.248.248,0,0,1,.247.247Z"/><path d="M.619,18.062H2.41a.246.246,0,0,1,.246.227L3.1,23.546A.494.494,0,0,0,3.588,24H7.546a.494.494,0,0,0,.493-.454l.439-5.257a.246.246,0,0,1,.246-.227h.554a.248.248,0,0,0,.248-.248V13.031a3.439,3.439,0,0,1,.5-1.787.247.247,0,0,0-.01-.271A5.44,5.44,0,0,0,.124,14.1v3.464A.494.494,0,0,0,.619,18.062Z"/><path d="M1.361,4.206A4.206,4.206,0,1,0,5.567,0,4.211,4.211,0,0,0,1.361,4.206ZM5.567,6.433A2.229,2.229,0,0,1,3.34,4.206a2.136,2.136,0,0,1,.157-.8.247.247,0,0,1,.359-.119,5.317,5.317,0,0,0,2.8.793,5.353,5.353,0,0,0,.9-.077.2.2,0,0,1,.237.2A2.229,2.229,0,0,1,5.567,6.433Z"/><path d="M19.918,21.938H18.68a.248.248,0,0,1-.247-.247V21.2a.248.248,0,0,1,.247-.248H21.9a1.98,1.98,0,0,0,1.979-1.979V13.031a1.981,1.981,0,0,0-1.979-1.98H12.99a1.982,1.982,0,0,0-1.98,1.98v5.938a1.981,1.981,0,0,0,1.98,1.979h3.216a.248.248,0,0,1,.248.248v.495a.248.248,0,0,1-.248.247H14.969a.976.976,0,0,0-.838.5.961.961,0,0,0-.152.5.99.99,0,0,0,.99.989h4.949a.989.989,0,0,0,.989-.989.961.961,0,0,0-.152-.5A.973.973,0,0,0,19.918,21.938Zm1.98-3.217a.248.248,0,0,1-.247.248H13.237a.247.247,0,0,1-.247-.248V13.278a.247.247,0,0,1,.247-.247H21.65a.248.248,0,0,1,.247.247Z"/></svg>