<svg id="Bold" xmlns="http://www.w3.org/2000/svg" viewBox="0 0 24 24"><title>single-man-actions-chat</title><path d="M.619,18.062H2.41a.246.246,0,0,1,.246.227L3.1,23.546A.494.494,0,0,0,3.588,24H7.546a.494.494,0,0,0,.493-.454l.439-5.257a.246.246,0,0,1,.246-.227h.554a.248.248,0,0,0,.248-.248v-5.69a3.423,3.423,0,0,1,.245-1.267.247.247,0,0,0-.041-.251A5.438,5.438,0,0,0,.124,14.1v3.464A.494.494,0,0,0,.619,18.062Z"/><path d="M1.361,4.206A4.206,4.206,0,1,0,5.567,0,4.211,4.211,0,0,0,1.361,4.206ZM5.567,6.433A2.229,2.229,0,0,1,3.34,4.206a2.136,2.136,0,0,1,.157-.8.247.247,0,0,1,.359-.119,5.317,5.317,0,0,0,2.8.793,5.353,5.353,0,0,0,.9-.077.2.2,0,0,1,.237.2A2.229,2.229,0,0,1,5.567,6.433Z"/><path d="M11.01,19.052a1.982,1.982,0,0,0,1.98,1.979h.742a.247.247,0,0,1,.247.247V23.01a.99.99,0,0,0,1.608.773l3.373-2.7a.245.245,0,0,1,.154-.054H21.9a1.981,1.981,0,0,0,1.979-1.979V12.124a1.981,1.981,0,0,0-1.979-1.98H12.99a1.982,1.982,0,0,0-1.98,1.98Zm7.052.217-1.7,1.361a.248.248,0,0,1-.4-.194v-.395a.989.989,0,0,0-.99-.989H13.237a.247.247,0,0,1-.247-.248V12.371a.246.246,0,0,1,.247-.247H21.65a.247.247,0,0,1,.247.247V18.8a.247.247,0,0,1-.072.175.25.25,0,0,1-.175.073H18.68A.988.988,0,0,0,18.062,19.269Z"/><path d="M14.969,15.093h4.949a.743.743,0,0,0,0-1.485H14.969a.743.743,0,0,0,0,1.485Z"/><path d="M18.68,16.825a.743.743,0,0,0-.742-.743H14.969a.743.743,0,0,0,0,1.485h2.969A.742.742,0,0,0,18.68,16.825Z"/><path d="M.619,18.062H2.41a.246.246,0,0,1,.246.227L3.1,23.546A.494.494,0,0,0,3.588,24H7.546a.494.494,0,0,0,.493-.454l.439-5.257a.246.246,0,0,1,.246-.227h.554a.248.248,0,0,0,.248-.248v-5.69a3.423,3.423,0,0,1,.245-1.267.247.247,0,0,0-.041-.251A5.438,5.438,0,0,0,.124,14.1v3.464A.494.494,0,0,0,.619,18.062Z"/><path d="M1.361,4.206A4.206,4.206,0,1,0,5.567,0,4.211,4.211,0,0,0,1.361,4.206ZM5.567,6.433A2.229,2.229,0,0,1,3.34,4.206a2.136,2.136,0,0,1,.157-.8.247.247,0,0,1,.359-.119,5.317,5.317,0,0,0,2.8.793,5.353,5.353,0,0,0,.9-.077.2.2,0,0,1,.237.2A2.229,2.229,0,0,1,5.567,6.433Z"/><path d="M11.01,19.052a1.982,1.982,0,0,0,1.98,1.979h.742a.247.247,0,0,1,.247.247V23.01a.99.99,0,0,0,1.608.773l3.373-2.7a.245.245,0,0,1,.154-.054H21.9a1.981,1.981,0,0,0,1.979-1.979V12.124a1.981,1.981,0,0,0-1.979-1.98H12.99a1.982,1.982,0,0,0-1.98,1.98Zm7.052.217-1.7,1.361a.248.248,0,0,1-.4-.194v-.395a.989.989,0,0,0-.99-.989H13.237a.247.247,0,0,1-.247-.248V12.371a.246.246,0,0,1,.247-.247H21.65a.247.247,0,0,1,.247.247V18.8a.247.247,0,0,1-.072.175.25.25,0,0,1-.175.073H18.68A.988.988,0,0,0,18.062,19.269Z"/><path d="M14.969,15.093h4.949a.743.743,0,0,0,0-1.485H14.969a.743.743,0,0,0,0,1.485Z"/><path d="M18.68,16.825a.743.743,0,0,0-.742-.743H14.969a.743.743,0,0,0,0,1.485h2.969A.742.742,0,0,0,18.68,16.825Z"/></svg>