<svg id="Bold" xmlns="http://www.w3.org/2000/svg" viewBox="0 0 24 24"><title>single-man-actions-cart</title><path d="M.661,18.062H2.452a.247.247,0,0,1,.247.227l.438,5.257A.5.5,0,0,0,3.63,24H7.589a.5.5,0,0,0,.493-.454l.438-5.257a.247.247,0,0,1,.247-.227h1.791a.5.5,0,0,0,.5-.5V14.1a5.444,5.444,0,0,0-10.887,0v3.464A.5.5,0,0,0,.661,18.062Z"/><path d="M5.609,0A4.206,4.206,0,1,0,9.816,4.206,4.211,4.211,0,0,0,5.609,0Zm0,6.433A2.229,2.229,0,0,1,3.383,4.206a2.135,2.135,0,0,1,.156-.8A.248.248,0,0,1,3.9,3.29a5.314,5.314,0,0,0,2.8.793,5.344,5.344,0,0,0,.9-.077.2.2,0,0,1,.165.045.2.2,0,0,1,.072.155A2.229,2.229,0,0,1,5.609,6.433Z"/><path d="M15.615,21.155a1.423,1.423,0,1,0,1.423,1.423A1.435,1.435,0,0,0,15.615,21.155Z"/><path d="M19.308,21.155a1.423,1.423,0,1,0,1.423,1.423A1.429,1.429,0,0,0,19.308,21.155Z"/><path d="M12.846,14a.5.5,0,0,0-.474.659l1.846,5.5a.5.5,0,0,0,.473.341h6.232a.5.5,0,0,0,.481-.365c1.69-6.042.852-3.242,2.544-8.318a1,1,0,1,0-1.9-.633L21.17,13.83a.25.25,0,0,1-.237.171Z"/><path d="M.661,18.062H2.452a.247.247,0,0,1,.247.227l.438,5.257A.5.5,0,0,0,3.63,24H7.589a.5.5,0,0,0,.493-.454l.438-5.257a.247.247,0,0,1,.247-.227h1.791a.5.5,0,0,0,.5-.5V14.1a5.444,5.444,0,0,0-10.887,0v3.464A.5.5,0,0,0,.661,18.062Z"/><path d="M5.609,0A4.206,4.206,0,1,0,9.816,4.206,4.211,4.211,0,0,0,5.609,0Zm0,6.433A2.229,2.229,0,0,1,3.383,4.206a2.135,2.135,0,0,1,.156-.8A.248.248,0,0,1,3.9,3.29a5.314,5.314,0,0,0,2.8.793,5.344,5.344,0,0,0,.9-.077.2.2,0,0,1,.165.045.2.2,0,0,1,.072.155A2.229,2.229,0,0,1,5.609,6.433Z"/><path d="M15.615,21.155a1.423,1.423,0,1,0,1.423,1.423A1.435,1.435,0,0,0,15.615,21.155Z"/><path d="M19.308,21.155a1.423,1.423,0,1,0,1.423,1.423A1.429,1.429,0,0,0,19.308,21.155Z"/><path d="M12.846,14a.5.5,0,0,0-.474.659l1.846,5.5a.5.5,0,0,0,.473.341h6.232a.5.5,0,0,0,.481-.365c1.69-6.042.852-3.242,2.544-8.318a1,1,0,1,0-1.9-.633L21.17,13.83a.25.25,0,0,1-.237.171Z"/></svg>