<svg xmlns="http://www.w3.org/2000/svg" viewBox="0 0 24 24"><defs><style>.a{fill:none;stroke:currentColor;stroke-linecap:round;stroke-linejoin:round;}</style></defs><title>electronics-resistor_1</title><rect class="a" x="6.875" y="10.125" width="11" height="3" rx="1" ry="1" transform="translate(29.345 11.095) rotate(135)"/><line class="a" x1="11.668" y1="14.454" x2="9.546" y2="12.332"/><line class="a" x1="15.203" y1="10.918" x2="13.082" y2="8.797"/><line class="a" x1="23.5" y1="0.5" x2="16.264" y2="7.736"/><line class="a" x1="8.486" y1="15.514" x2="0.5" y2="23.5"/><rect class="a" x="11.13" y="14.37" width="11" height="3" rx="1" ry="1" transform="translate(39.611 15.333) rotate(135)"/><line class="a" x1="15.923" y1="18.698" x2="13.802" y2="16.577"/><line class="a" x1="18.044" y1="16.577" x2="15.923" y2="14.456"/><line class="a" x1="23.5" y1="9" x2="20.519" y2="11.981"/><line class="a" x1="12.741" y1="19.759" x2="9" y2="23.5"/><rect class="a" x="2.63" y="5.87" width="11" height="3" rx="1" ry="1" transform="translate(19.09 6.833) rotate(135)"/><line class="a" x1="15" y1="0.5" x2="12.019" y2="3.481"/><line class="a" x1="4.241" y1="11.259" x2="0.5" y2="15"/><line class="a" x1="7.418" y1="10.204" x2="5.296" y2="8.082"/><line class="a" x1="8.832" y1="8.789" x2="6.711" y2="6.668"/></svg>