<svg xmlns="http://www.w3.org/2000/svg" viewBox="0 0 24 24"><defs><style>.a{fill:none;stroke:currentColor;stroke-linecap:round;stroke-linejoin:round;}</style></defs><title>electronics-motor</title><path class="a" d="M11.5.5h1a1,1,0,0,1,1,1v3a0,0,0,0,1,0,0h-3a0,0,0,0,1,0,0v-3A1,1,0,0,1,11.5.5Z"/><rect class="a" x="5.5" y="4.5" width="13" height="14" rx="2" ry="2"/><polyline class="a" points="9.5 10.5 8.5 12 8.5 15.5 9.5 15.5"/><polyline class="a" points="14.5 10.5 15.5 12 15.5 15.5 14.5 15.5"/><line class="a" x1="5.5" y1="7.5" x2="18.5" y2="7.5"/><rect class="a" x="9.5" y="18.5" width="5" height="2"/><line class="a" x1="12" y1="20.5" x2="12" y2="23.5"/></svg>