<?xml version="1.0" encoding="utf-8"?>
<!-- Generator: Adobe Illustrator 22.1.0, SVG Export Plug-In . SVG Version: 6.00 Build 0)  -->
<svg version="1.1" id="Layer_1" xmlns="http://www.w3.org/2000/svg" xmlns:xlink="http://www.w3.org/1999/xlink" x="0px" y="0px"
	 viewBox="0 0 24 24" style="enable-background:new 0 0 24 24;" xml:space="preserve">
<title>arduino-plus-minus-1</title>
<g>
	<path d="M15.601,15.9c-1.681,0-2.895-1.309-3.601-2.365c-0.705,1.056-1.919,2.365-3.6,2.365c-1.042,0-2.021-0.406-2.758-1.142
		C4.906,14.021,4.5,13.042,4.5,12c0-2.15,1.75-3.9,3.9-3.9c1.681,0,2.895,1.309,3.6,2.365C12.705,9.409,13.919,8.1,15.6,8.1
		c1.042,0,2.021,0.406,2.758,1.142C19.095,9.979,19.5,10.958,19.5,12c0,1.042-0.406,2.021-1.142,2.758
		C17.621,15.494,16.642,15.9,15.601,15.9z M12.834,11.999c0.341,0.649,1.389,2.401,2.766,2.401c0.641,0,1.244-0.25,1.697-0.703
		C17.75,13.244,18,12.641,18,12c0-0.641-0.25-1.244-0.703-1.697C16.844,9.85,16.241,9.6,15.6,9.6
		C14.22,9.6,13.175,11.35,12.834,11.999z M8.4,9.6C7.077,9.6,6,10.677,6,12c0,0.641,0.25,1.244,0.703,1.697
		C7.156,14.15,7.759,14.4,8.4,14.4c1.376,0,2.424-1.75,2.766-2.4C10.824,11.35,9.776,9.6,8.4,9.6L8.4,9.6z"/>
	<path d="M2.25,19.5C1.009,19.5,0,18.491,0,17.25V6.75C0,5.509,1.009,4.5,2.25,4.5h18c1.241,0,2.25,1.009,2.25,2.25v1.036
		l1.085,0.543C23.841,8.457,24,8.714,24,9v6c0,0.286-0.159,0.543-0.415,0.671L22.5,16.213v1.037c0,1.241-1.009,2.25-2.25,2.25H2.25z
		 M2.25,6C1.836,6,1.5,6.336,1.5,6.75v10.5C1.5,17.664,1.836,18,2.25,18h18c0.414,0,0.75-0.336,0.75-0.75v-1.5
		c0-0.286,0.159-0.543,0.415-0.671l1.085-0.542V9.464l-1.085-0.543C21.159,8.793,21,8.536,21,8.25v-1.5C21,6.336,20.664,6,20.25,6
		H2.25z"/>
</g>
</svg>
