<?xml version="1.0" encoding="utf-8"?>
<!-- Generator: Adobe Illustrator 22.1.0, SVG Export Plug-In . SVG Version: 6.00 Build 0)  -->
<svg version="1.1" id="Layer_1" xmlns="http://www.w3.org/2000/svg" xmlns:xlink="http://www.w3.org/1999/xlink" x="0px" y="0px"
	 viewBox="0 0 24 24" style="enable-background:new 0 0 24 24;" xml:space="preserve">
<title>arduino-circuit</title>
<g>
	<path d="M5.25,9C4.836,9,4.5,8.664,4.5,8.25V6c0-0.414,0.336-0.75,0.75-0.75S6,5.586,6,6v2.25C6,8.664,5.664,9,5.25,9z"/>
	<path d="M3.75,24c-1.241,0-2.25-1.009-2.25-2.25V10.371C0.615,10.058,0,9.21,0,8.25v-3c0-0.96,0.615-1.808,1.5-2.121V2.25
		C1.5,1.009,2.509,0,3.75,0h15C19.991,0,21,1.009,21,2.25v7.036l1.756,0.878C23.524,10.548,24,11.319,24,12.177v4.146
		c0,0.858-0.476,1.629-1.244,2.013L21,19.214v2.536c0,1.241-1.009,2.25-2.25,2.25H3.75z M3.75,1.5C3.336,1.5,3,1.836,3,2.25v1.5
		C3,4.164,2.664,4.5,2.25,4.5S1.5,4.836,1.5,5.25v3C1.5,8.664,1.836,9,2.25,9S3,9.336,3,9.75v12c0,0.414,0.336,0.75,0.75,0.75h15
		c0.414,0,0.75-0.336,0.75-0.75v-3c0-0.286,0.159-0.543,0.415-0.671l2.171-1.085c0.256-0.128,0.415-0.385,0.415-0.671v-4.146
		c0-0.286-0.159-0.543-0.415-0.671l-2.171-1.085C19.659,10.293,19.5,10.036,19.5,9.75v-7.5c0-0.414-0.336-0.75-0.75-0.75H3.75z"/>
	<path d="M9,10.5c-0.827,0-1.5-0.673-1.5-1.5V6c0-0.827,0.673-1.5,1.5-1.5h3c0.827,0,1.5,0.673,1.5,1.5v3c0,0.827-0.673,1.5-1.5,1.5
		H9z M9,9h3V6H9V9z"/>
	<circle cx="16.5" cy="5.25" r="1.125"/>
	<circle cx="16.5" cy="9.75" r="1.125"/>
	<path d="M5.25,21c-0.414,0-0.75-0.336-0.75-0.75v-3c0-0.414,0.336-0.75,0.75-0.75H6v-0.75C6,15.336,6.336,15,6.75,15
		s0.75,0.336,0.75,0.75v0.75h3v-0.75c0-0.414,0.336-0.75,0.75-0.75S12,15.336,12,15.75v0.75h3v-0.75c0-0.414,0.336-0.75,0.75-0.75
		s0.75,0.336,0.75,0.75v0.75h0.75c0.414,0,0.75,0.336,0.75,0.75v3c0,0.414-0.336,0.75-0.75,0.75H5.25z M16.5,19.5V18H6v1.5H16.5z"/>
</g>
</svg>
