<svg xmlns="http://www.w3.org/2000/svg" viewBox="0 0 24 24"><defs><style>.a{fill:none;stroke:currentColor;stroke-linecap:round;stroke-linejoin:round;stroke-width:1.5px;}</style></defs><title>sd-card</title><path class="a" d="M19.5,23.25H4.5A1.5,1.5,0,0,1,3,21.75V11.25H4.5v-3H3v-6A1.5,1.5,0,0,1,4.5.75H15.06a1.5,1.5,0,0,1,1.139.524l4.44,4.305A1.5,1.5,0,0,1,21,6.555v15.2A1.5,1.5,0,0,1,19.5,23.25Z"/><line class="a" x1="9" y1="3.75" x2="9" y2="6.75"/><line class="a" x1="13.5" y1="3.75" x2="13.5" y2="6.75"/><polyline class="a" points="9.75 19.5 12 17.25 14.25 19.5"/></svg>