<svg xmlns="http://www.w3.org/2000/svg" viewBox="0 0 24 24"><defs><style>.a{fill:none;stroke:currentColor;stroke-linecap:round;stroke-linejoin:round;}</style></defs><title>rating-star-bubble-1</title><path class="a" d="M12.59,6.981,13.872,9.5h2.5a.613.613,0,0,1,.431,1.069l-2.166,2.263,1.2,2.761a.654.654,0,0,1-.931.818L12,14.774,9.1,16.408a.654.654,0,0,1-.931-.818l1.2-2.761L7.205,10.566A.612.612,0,0,1,7.634,9.5h2.5l1.285-2.516A.661.661,0,0,1,12.59,6.981Z"/><path class="a" d="M23.177,11.654a.5.5,0,0,1,0,.686l-2,2.117.672,2.832a.5.5,0,0,1-.344.595l-2.79.831-.831,2.79a.5.5,0,0,1-.595.344l-2.831-.673-2.117,2a.5.5,0,0,1-.686,0l-2.117-2-2.832.672a.5.5,0,0,1-.595-.344l-.831-2.79-2.79-.831a.5.5,0,0,1-.344-.595l.673-2.831-2-2.117a.5.5,0,0,1,0-.686l2-2.117L2.149,6.705a.5.5,0,0,1,.344-.595l2.79-.831.831-2.79a.5.5,0,0,1,.595-.344l2.831.673,2.117-2a.5.5,0,0,1,.686,0l2.117,2,2.832-.672a.5.5,0,0,1,.595.344l.831,2.79,2.79.831a.5.5,0,0,1,.344.6l-.673,2.831Z"/></svg>