<svg xmlns="http://www.w3.org/2000/svg" viewBox="0 0 24 24"><defs><style>.a{fill:none;stroke:currentColor;stroke-linecap:round;stroke-linejoin:round;}</style></defs><title>rating-star-add</title><path class="a" d="M16.784,13.812l-.885.77,2.5,7.51a.5.5,0,0,1-.77.561L11.4,18.082,5.166,22.653a.5.5,0,0,1-.77-.561l2.5-7.51L.925,9.13a.5.5,0,0,1,.325-.88H8.4l2.534-6.676a.5.5,0,0,1,.935,0l.474,1.252"/><path class="a" d="M23.25,5.75a.5.5,0,0,0-.5-.5h-2.5V2.75a.5.5,0,0,0-.5-.5h-2a.5.5,0,0,0-.5.5v2.5h-2.5a.5.5,0,0,0-.5.5v2a.5.5,0,0,0,.5.5h2.5v2.5a.5.5,0,0,0,.5.5h2a.5.5,0,0,0,.5-.5V8.25h2.5a.5.5,0,0,0,.5-.5Z"/></svg>