<svg xmlns="http://www.w3.org/2000/svg" viewBox="0 0 24 24"><defs><style>.a{fill:none;stroke:currentColor;stroke-linecap:round;stroke-linejoin:round;}</style></defs><title>rating-star-top</title><path class="a" d="M17.3,12.451a5.5,5.5,0,1,1-10.583-.037"/><path class="a" d="M18.383,6.9A9.5,9.5,0,1,1,5.57,6.944"/><path class="a" d="M12.588.921,13.87,3.437h2.495A.612.612,0,0,1,16.8,4.506L14.63,6.769l1.2,2.761a.654.654,0,0,1-.931.819L12,8.715,9.1,10.349a.654.654,0,0,1-.931-.819l1.2-2.761L7.2,4.506a.612.612,0,0,1,.429-1.069h2.495L11.411.921A.662.662,0,0,1,12.588.921Z"/></svg>