<?xml version="1.0" encoding="utf-8"?>
<!-- Generator: Adobe Illustrator 22.1.0, SVG Export Plug-In . SVG Version: 6.00 Build 0)  -->
<svg version="1.1" id="Layer_1" xmlns="http://www.w3.org/2000/svg" xmlns:xlink="http://www.w3.org/1999/xlink" x="0px" y="0px"
	 viewBox="0 0 24 24" style="enable-background:new 0 0 24 24;" xml:space="preserve">
<g>
	<title>ui-columns</title>
	<path d="M1.5,11C0.673,11,0,10.327,0,9.5v-6C0,2.673,0.673,2,1.5,2h21C23.327,2,24,2.673,24,3.5v6c0,0.827-0.673,1.5-1.5,1.5H1.5z
		 M22.5,10c0.276,0,0.5-0.224,0.5-0.5v-6C23,3.224,22.776,3,22.5,3H16v7H22.5z M1.5,3C1.224,3,1,3.224,1,3.5v6
		C1,9.776,1.224,10,1.5,10H15V3H1.5z"/>
	<path d="M3,5C2.724,5,2.5,4.776,2.5,4.5S2.724,4,3,4h8c0.276,0,0.5,0.224,0.5,0.5S11.276,5,11,5H3z"/>
	<path d="M3,7C2.724,7,2.5,6.776,2.5,6.5S2.724,6,3,6h5c0.276,0,0.5,0.224,0.5,0.5S8.276,7,8,7H3z"/>
	<path d="M3,9C2.724,9,2.5,8.776,2.5,8.5S2.724,8,3,8h3.5C6.776,8,7,8.224,7,8.5S6.776,9,6.5,9H3z"/>
	<path d="M20.499,8.459c-0.228,0-0.443-0.076-0.623-0.219l-1.2-0.96c-0.058-0.047-0.11-0.099-0.156-0.156
		c-0.166-0.207-0.242-0.468-0.213-0.734c0.029-0.266,0.16-0.504,0.368-0.671l1.2-0.96c0.176-0.141,0.397-0.219,0.623-0.219
		c0.268,0,0.518,0.104,0.707,0.292c0.189,0.189,0.294,0.44,0.294,0.707V7.46c-0.001,0.227-0.079,0.449-0.219,0.624
		c-0.166,0.208-0.404,0.339-0.669,0.369C20.574,8.457,20.536,8.459,20.499,8.459z M19.301,6.5l1.2,0.959l0-1.919L19.301,6.5z"/>
	<path d="M1.5,22C0.673,22,0,21.327,0,20.5v-6C0,13.673,0.673,13,1.5,13h21c0.827,0,1.5,0.673,1.5,1.5v6c0,0.827-0.673,1.5-1.5,1.5
		H1.5z M22.5,21c0.276,0,0.5-0.224,0.5-0.5v-6c0-0.276-0.224-0.5-0.5-0.5H16v7H22.5z M1.5,14C1.224,14,1,14.224,1,14.5v6
		C1,20.776,1.224,21,1.5,21H15v-7H1.5z"/>
	<path d="M3,16c-0.276,0-0.5-0.224-0.5-0.5S2.724,15,3,15h8c0.276,0,0.5,0.224,0.5,0.5S11.276,16,11,16H3z"/>
	<path d="M3,18c-0.276,0-0.5-0.224-0.5-0.5S2.724,17,3,17h5c0.276,0,0.5,0.224,0.5,0.5S8.276,18,8,18H3z"/>
	<path d="M3,20c-0.276,0-0.5-0.224-0.5-0.5S2.724,19,3,19h3.5C6.776,19,7,19.224,7,19.5S6.776,20,6.5,20H3z"/>
	<path d="M20.499,19.459c-0.225,0-0.447-0.077-0.623-0.218l-1.201-0.961c-0.057-0.045-0.109-0.098-0.155-0.155
		c-0.167-0.209-0.243-0.47-0.214-0.735c0.029-0.266,0.16-0.504,0.369-0.671l1.2-0.96c0.161-0.128,0.372-0.204,0.61-0.218
		c0.001,0,0.001,0,0.002,0c0.281,0,0.531,0.104,0.719,0.292c0.189,0.188,0.294,0.439,0.294,0.707v1.921
		c-0.001,0.227-0.079,0.448-0.219,0.624C21.091,19.322,20.806,19.459,20.499,19.459z M19.301,17.5l1.2,0.959l0-1.919L19.301,17.5z"
		/>
</g>
</svg>
