<?xml version="1.0" encoding="utf-8"?>
<!-- Generator: Adobe Illustrator 22.1.0, SVG Export Plug-In . SVG Version: 6.00 Build 0)  -->
<svg version="1.1" id="Layer_1" xmlns="http://www.w3.org/2000/svg" xmlns:xlink="http://www.w3.org/1999/xlink" x="0px" y="0px"
	 viewBox="0 0 24 24" style="enable-background:new 0 0 24 24;" xml:space="preserve">
<g>
	<title>ui-screen-split</title>
	<path d="M7.5,23.5C6.121,23.5,5,22.378,5,21v-1.5H1.5C0.673,19.5,0,18.827,0,18V2c0-0.827,0.673-1.5,1.5-1.5h21
		C23.327,0.5,24,1.173,24,2v16c0,0.827-0.673,1.5-1.5,1.5H19V21c0,1.378-1.122,2.5-2.5,2.5H7.5z M6,21c0,0.827,0.673,1.5,1.5,1.5h9
		c0.827,0,1.5-0.673,1.5-1.5v-1.5H6V21z M1,18c0,0.276,0.224,0.5,0.5,0.5h21c0.276,0,0.5-0.224,0.5-0.5v-4.5H1V18z M23,12.5v-5H1v5
		H23z M23,6.5V2c0-0.276-0.224-0.5-0.5-0.5h-21C1.224,1.5,1,1.724,1,2v4.5H23z"/>
	<path d="M12,22c-0.099,0-0.195-0.029-0.278-0.084l-1.5-1c-0.229-0.153-0.291-0.464-0.139-0.693C10.177,20.083,10.332,20,10.5,20
		c0.099,0,0.195,0.029,0.277,0.084L12,20.899l1.223-0.815C13.305,20.029,13.401,20,13.5,20c0.168,0,0.323,0.083,0.416,0.223
		c0.153,0.229,0.091,0.54-0.139,0.693l-1.5,1C12.195,21.971,12.099,22,12,22z"/>
</g>
</svg>
