<?xml version="1.0" encoding="utf-8"?>
<!-- Generator: Adobe Illustrator 22.1.0, SVG Export Plug-In . SVG Version: 6.00 Build 0)  -->
<svg version="1.1" id="Layer_1" xmlns="http://www.w3.org/2000/svg" xmlns:xlink="http://www.w3.org/1999/xlink" x="0px" y="0px"
	 viewBox="0 0 24 24" style="enable-background:new 0 0 24 24;" xml:space="preserve">
<g>
	<title>ui-webpage-slider</title>
	<path d="M6,20.5c-0.551,0-1-0.448-1-1v-1H2c-0.551,0-1-0.448-1-1v-13c0-0.551,0.449-1,1-1h3v-1c0-0.551,0.449-1,1-1h12
		c0.552,0,1,0.449,1,1v1h3c0.552,0,1,0.449,1,1V18c0,0.276-0.224,0.5-0.5,0.5S22,18.276,22,18V4.5h-3v10c0,0.276-0.224,0.5-0.5,0.5
		S18,14.776,18,14.5v-12H6v17h8c0.276,0,0.5,0.224,0.5,0.5s-0.224,0.5-0.5,0.5H6z M2,17.5h3v-13l-3,0L2,17.5z"/>
	<path d="M21.01,22c-0.134,0-0.259-0.052-0.354-0.146l-1.767-1.767l-0.866,0.865c-0.099,0.099-0.221,0.178-0.354,0.229
		c-0.113,0.042-0.231,0.064-0.351,0.064c-0.415,0-0.791-0.26-0.937-0.648l-1.463-3.9c-0.085-0.227-0.085-0.477,0-0.704
		c0.146-0.387,0.522-0.647,0.938-0.647c0.12,0,0.237,0.021,0.35,0.063l3.9,1.463c0.131,0.049,0.255,0.128,0.356,0.229
		c0.189,0.189,0.293,0.44,0.293,0.707s-0.104,0.518-0.294,0.707l-0.865,0.864l1.767,1.767c0.195,0.195,0.195,0.512,0,0.707
		C21.269,21.948,21.144,22,21.01,22z M17.317,20.244l2.437-2.437l-3.899-1.463L17.317,20.244z"/>
	<path d="M8,6.5C7.724,6.5,7.5,6.276,7.5,6S7.724,5.5,8,5.5h8c0.276,0,0.5,0.224,0.5,0.5S16.276,6.5,16,6.5H8z"/>
	<path d="M8,9.5C7.724,9.5,7.5,9.276,7.5,9S7.724,8.5,8,8.5h8c0.276,0,0.5,0.224,0.5,0.5S16.276,9.5,16,9.5H8z"/>
	<path d="M8,12.5c-0.276,0-0.5-0.224-0.5-0.5c0-0.276,0.224-0.5,0.5-0.5h5c0.276,0,0.5,0.224,0.5,0.5c0,0.276-0.224,0.5-0.5,0.5H8z"
		/>
</g>
</svg>
