<?xml version="1.0" encoding="utf-8"?>
<!-- Generator: Adobe Illustrator 22.1.0, SVG Export Plug-In . SVG Version: 6.00 Build 0)  -->
<svg version="1.1" id="Layer_1" xmlns="http://www.w3.org/2000/svg" xmlns:xlink="http://www.w3.org/1999/xlink" x="0px" y="0px"
	 viewBox="0 0 24 24" style="enable-background:new 0 0 24 24;" xml:space="preserve">
<g>
	<title>webpage-live</title>
	<path d="M10,8.042c-0.276,0-0.5-0.224-0.5-0.5v-5c0-0.276,0.224-0.5,0.5-0.5s0.5,0.224,0.5,0.5v5C10.5,7.818,10.276,8.042,10,8.042
		z"/>
	<path d="M13,8.042c-0.167,0-0.323-0.083-0.416-0.223c-0.708-1.063-1.083-2.3-1.084-3.577v-1.7c0-0.276,0.224-0.5,0.5-0.5
		c0.276,0,0.5,0.224,0.5,0.5v1.7c0,0.788,0.172,1.567,0.5,2.279c0.328-0.712,0.5-1.491,0.5-2.279v-1.7c0-0.276,0.224-0.5,0.5-0.5
		s0.5,0.224,0.5,0.5v1.7c-0.001,1.278-0.375,2.515-1.084,3.577C13.323,7.959,13.167,8.042,13,8.042z"/>
	<path d="M7,8.042c-0.827,0-1.5-0.673-1.5-1.5v-4c0-0.276,0.224-0.5,0.5-0.5s0.5,0.224,0.5,0.5v4c0,0.276,0.224,0.5,0.5,0.5h1
		c0.276,0,0.5,0.224,0.5,0.5s-0.224,0.5-0.5,0.5H7z"/>
	<path d="M17,8.042c-0.827,0-1.5-0.673-1.5-1.5v-3c0-0.827,0.673-1.5,1.5-1.5h1c0.276,0,0.5,0.224,0.5,0.5s-0.224,0.5-0.5,0.5h-1
		c-0.276,0-0.5,0.224-0.5,0.5v1.5H18c0.276,0,0.5,0.224,0.5,0.5s-0.224,0.5-0.5,0.5h-1.5v0.5c0,0.276,0.224,0.5,0.5,0.5h1
		c0.276,0,0.5,0.224,0.5,0.5s-0.224,0.5-0.5,0.5H17z"/>
	<path d="M4,24.042c-0.827,0-1.5-0.673-1.5-1.5v-21c0-0.827,0.673-1.5,1.5-1.5h16c0.827,0,1.5,0.673,1.5,1.5v21
		c0,0.827-0.673,1.5-1.5,1.5H4z M20,23.042c0.276,0,0.5-0.224,0.5-0.5v-1.5h-2v2H20z M3.5,22.542c0,0.276,0.224,0.5,0.5,0.5h13.5v-2
		h-14V22.542z M20.5,20.042v-18.5c0-0.276-0.224-0.5-0.5-0.5H4c-0.276,0-0.5,0.224-0.5,0.5v18.5H20.5z"/>
	<path d="M6.5,13.042c-0.827,0-1.5-0.673-1.5-1.5s0.673-1.5,1.5-1.5s1.5,0.673,1.5,1.5S7.327,13.042,6.5,13.042z M6.5,11.042
		c-0.276,0-0.5,0.224-0.5,0.5s0.224,0.5,0.5,0.5s0.5-0.224,0.5-0.5S6.776,11.042,6.5,11.042z"/>
	<path d="M9.5,11.042c-0.276,0-0.5-0.224-0.5-0.5s0.224-0.5,0.5-0.5H17c0.276,0,0.5,0.224,0.5,0.5s-0.224,0.5-0.5,0.5H9.5z"/>
	<path d="M9.5,13.042c-0.276,0-0.5-0.224-0.5-0.5c0-0.276,0.224-0.5,0.5-0.5h4c0.276,0,0.5,0.224,0.5,0.5c0,0.276-0.224,0.5-0.5,0.5
		H9.5z"/>
	<path d="M6.5,18.042c-0.827,0-1.5-0.673-1.5-1.5s0.673-1.5,1.5-1.5s1.5,0.673,1.5,1.5S7.327,18.042,6.5,18.042z M6.5,16.042
		c-0.276,0-0.5,0.224-0.5,0.5s0.224,0.5,0.5,0.5s0.5-0.224,0.5-0.5S6.776,16.042,6.5,16.042z"/>
	<path d="M9.5,16.042c-0.276,0-0.5-0.224-0.5-0.5s0.224-0.5,0.5-0.5H15c0.276,0,0.5,0.224,0.5,0.5s-0.224,0.5-0.5,0.5H9.5z"/>
	<path d="M9.5,18.042c-0.276,0-0.5-0.224-0.5-0.5s0.224-0.5,0.5-0.5H16c0.276,0,0.5,0.224,0.5,0.5s-0.224,0.5-0.5,0.5H9.5z"/>
</g>
</svg>
