<svg id="Light" xmlns="http://www.w3.org/2000/svg" viewBox="0 0 24 24"><defs><style>.cls-1{fill:none;stroke:currentColor;stroke-linecap:round;stroke-linejoin:round;}</style></defs><title>multiple-woman</title><path class="cls-1" d="M21.6,12.11a5.515,5.515,0,0,1-.8-3.054V7.807a4.3,4.3,0,0,0-7.311-3.063"/><path class="cls-1" d="M14.5,8.029a5.793,5.793,0,0,0,2-1.482,5.685,5.685,0,0,0,4.3,1.97"/><path class="cls-1" d="M20.286,8.494a3.791,3.791,0,0,1-5.655,3.121"/><path class="cls-1" d="M14.5,13.8a7.005,7.005,0,0,1,9,6.71H17"/><path class="cls-1" d="M.5,20.512a7,7,0,0,1,14,0Z"/><path class="cls-1" d="M12.6,12.11a5.515,5.515,0,0,1-.8-3.054V7.807a4.3,4.3,0,1,0-8.593,0V9.056a5.515,5.515,0,0,1-.8,3.054"/><path class="cls-1" d="M3.2,8.517a5.689,5.689,0,0,0,4.3-1.97,5.685,5.685,0,0,0,4.3,1.97"/><path class="cls-1" d="M11.286,8.494a3.791,3.791,0,0,1-7.573,0"/></svg>