<?xml version="1.0" encoding="utf-8"?>
<!-- Generator: Adobe Illustrator 22.1.0, SVG Export Plug-In . SVG Version: 6.00 Build 0)  -->
<svg version="1.1" id="Layer_1" xmlns="http://www.w3.org/2000/svg" xmlns:xlink="http://www.w3.org/1999/xlink" x="0px" y="0px"
	 viewBox="0 0 24 24" style="enable-background:new 0 0 24 24;" xml:space="preserve">
<title>music-ticket</title>
<g>
	<path d="M6.75,17.25c-1.241,0-2.25-1.009-2.25-2.25s1.009-2.25,2.25-2.25c0.259,0,0.511,0.044,0.75,0.129V9.75
		c0-1.034,0.701-1.932,1.704-2.182l3-0.75c0.178-0.045,0.362-0.067,0.546-0.067C13.99,6.75,15,7.759,15,9v4.5
		c0,1.241-1.009,2.25-2.25,2.25c-1.241,0-2.25-1.009-2.25-2.25s1.009-2.25,2.25-2.25c0.259,0,0.511,0.044,0.75,0.129V9
		c0-0.413-0.337-0.75-0.75-0.75c-0.061,0-0.122,0.008-0.182,0.022l-3,0.75C9.234,9.106,9,9.406,9,9.75V15
		C9,16.241,7.991,17.25,6.75,17.25z M6.75,14.25C6.336,14.25,6,14.586,6,15s0.336,0.75,0.75,0.75S7.5,15.414,7.5,15
		S7.164,14.25,6.75,14.25z M12.75,12.75c-0.414,0-0.75,0.336-0.75,0.75s0.336,0.75,0.75,0.75s0.75-0.336,0.75-0.75
		S13.164,12.75,12.75,12.75z"/>
	<circle cx="17.625" cy="16.125" r="1.125"/>
	<circle cx="17.625" cy="12.375" r="1.125"/>
	<circle cx="17.625" cy="8.625" r="1.125"/>
	<path d="M2.25,20.25C1.009,20.25,0,19.241,0,18v-3.75c0-0.414,0.336-0.75,0.75-0.75c0.827,0,1.5-0.673,1.5-1.5s-0.673-1.5-1.5-1.5
		C0.336,10.5,0,10.164,0,9.75V6c0-1.241,1.009-2.25,2.25-2.25h19.5C22.991,3.75,24,4.759,24,6v3.75c0,0.414-0.336,0.75-0.75,0.75
		c-0.827,0-1.5,0.673-1.5,1.5s0.673,1.5,1.5,1.5c0.414,0,0.75,0.336,0.75,0.75V18c0,1.241-1.009,2.25-2.25,2.25H2.25z M1.5,18
		c0,0.414,0.336,0.75,0.75,0.75h19.5c0.414,0,0.75-0.336,0.75-0.75v-3.095c-1.303-0.338-2.25-1.533-2.25-2.905
		c0-1.372,0.947-2.567,2.25-2.905V6c0-0.414-0.336-0.75-0.75-0.75H2.25C1.836,5.25,1.5,5.586,1.5,6v3.095
		C2.803,9.433,3.75,10.628,3.75,12c0,1.372-0.947,2.567-2.25,2.905V18z"/>
</g>
</svg>
