<?xml version="1.0" encoding="utf-8"?>
<!-- Generator: Adobe Illustrator 22.1.0, SVG Export Plug-In . SVG Version: 6.00 Build 0)  -->
<svg version="1.1" id="Layer_1" xmlns="http://www.w3.org/2000/svg" xmlns:xlink="http://www.w3.org/1999/xlink" x="0px" y="0px"
	 viewBox="0 0 24 24" style="enable-background:new 0 0 24 24;" xml:space="preserve">
<title>music-metronome</title>
<g>
	<path d="M17.251,24c-0.414,0-0.75-0.336-0.75-0.75V22.5h-12v0.75c0,0.414-0.336,0.75-0.75,0.75s-0.75-0.336-0.75-0.75V22.5h-0.75
		c-0.272,0-0.539-0.049-0.795-0.146c-1.161-0.44-1.747-1.742-1.307-2.902l1.496-3.946c0.002-0.01,0.012-0.035,0.023-0.062
		l1.117-2.946c0.003-0.01,0.01-0.028,0.018-0.048l1.116-2.944c0.003-0.011,0.012-0.036,0.023-0.062L5.061,6.5
		c0.003-0.01,0.01-0.03,0.019-0.05l1.116-2.944c0.003-0.011,0.012-0.035,0.023-0.06l0.756-1.994C7.303,0.585,8.147,0.001,9.074,0
		h3.926c0.969,0.003,1.825,0.621,2.13,1.539l1.138,3.413c0.131,0.393-0.082,0.818-0.474,0.949c-0.076,0.026-0.156,0.039-0.237,0.039
		c-0.323,0-0.609-0.206-0.711-0.513l-1.138-3.413c-0.102-0.306-0.387-0.512-0.709-0.513H9.076c-0.308,0-0.589,0.195-0.699,0.484
		L7.992,3h1.086c0.414,0,0.75,0.336,0.75,0.75S9.491,4.5,9.078,4.5H7.423L6.854,6h2.224c0.414,0,0.75,0.336,0.75,0.75
		S9.491,7.5,9.078,7.5H6.286L5.717,9h3.286c0.414,0,0.75,0.336,0.75,0.75s-0.336,0.75-0.75,0.75H5.148L4.579,12h4.424
		c0.414,0,0.75,0.336,0.75,0.75s-0.336,0.75-0.75,0.75H4.01L3.442,15h6.699l8.321-10.408C18.159,4.114,18.001,3.57,18.001,3
		c0-1.654,1.346-3,3-3s3,1.346,3,3s-1.346,3-3,3c-0.51,0-1.003-0.128-1.446-0.374L12.061,15h5.981l-1.16-3.48
		c-0.131-0.392,0.082-0.818,0.474-0.948c0.076-0.026,0.156-0.039,0.238-0.039c0.323,0,0.61,0.206,0.711,0.514l2.831,8.492
		c0.077,0.23,0.115,0.469,0.115,0.711c0,0.601-0.234,1.166-0.659,1.591c-0.425,0.425-0.99,0.659-1.591,0.659h-1v0.75
		C18.001,23.664,17.664,24,17.251,24z M1.552,19.984c-0.147,0.386,0.049,0.821,0.436,0.967C2.072,20.983,2.161,21,2.252,21h16.749
		c0.2,0,0.389-0.078,0.53-0.219c0.142-0.142,0.22-0.33,0.22-0.531c0-0.081-0.013-0.16-0.038-0.236L18.541,16.5H2.873L1.552,19.984z
		 M21.001,1.5c-0.827,0-1.5,0.673-1.5,1.5s0.673,1.5,1.5,1.5s1.5-0.673,1.5-1.5S21.828,1.5,21.001,1.5z"/>
</g>
</svg>
