<svg xmlns="http://www.w3.org/2000/svg" viewBox="0 0 24 24"><title>playlist-clock</title><path d="M16.778,14.611V17.5a.722.722,0,0,0,.722.722h1.926a.722.722,0,1,0,0-1.444h-.963a.241.241,0,0,1-.241-.241V14.611a.722.722,0,0,0-1.444,0Z"/><path d="M17.5,11A6.5,6.5,0,1,0,24,17.5,6.508,6.508,0,0,0,17.5,11Zm0,11.074A4.574,4.574,0,1,1,22.074,17.5,4.579,4.579,0,0,1,17.5,22.074Z"/><path d="M16.315,9.533a.247.247,0,0,0,.222-.248V2.5A2.47,2.47,0,0,0,14.105,0H2.432A2.47,2.47,0,0,0,0,2.5v12A2.47,2.47,0,0,0,2.432,17h6.6a.246.246,0,0,0,.242-.227A7.906,7.906,0,0,1,16.315,9.533ZM11.187,8a.987.987,0,0,1-.973-1A1.784,1.784,0,0,0,9,5.233a.183.183,0,0,0-.248.175V11c0,.018,0,.035,0,.052A2.467,2.467,0,0,1,6.323,13.5a2.5,2.5,0,0,1,0-5c.074,0,.148,0,.221.01a.237.237,0,0,0,.186-.064.253.253,0,0,0,.079-.185V4a.987.987,0,0,1,.973-1c1.514,0,4.377.836,4.377,4A.986.986,0,0,1,11.187,8Z"/></svg>