<svg xmlns="http://www.w3.org/2000/svg" viewBox="0 0 24 24"><title>playlist</title><path d="M18,4H6A2,2,0,0,0,4,6V18a2,2,0,0,0,2,2H18a2,2,0,0,0,2-2V6A2,2,0,0,0,18,4ZM14.455,8.958l-3.409,1.1c-.21.044-.3.148-.3.268V15.25A1.75,1.75,0,1,1,9,13.5c.05,0,.1,0,.148.006a.092.092,0,0,0,.072-.024.1.1,0,0,0,.03-.069V10.329a1.753,1.753,0,0,1,1.428-1.72l3.409-1.1A1.746,1.746,0,0,1,16.25,9.2V13.25A1.75,1.75,0,1,1,14.5,11.5a.249.249,0,0,0,.25-.25V9.2A.25.25,0,0,0,14.455,8.958Z"/><path d="M1,6A1,1,0,0,0,0,7V17.5a1,1,0,0,0,2,0V7A1,1,0,0,0,1,6Z"/><path d="M23,6a1,1,0,0,0-1,1V17.5a1,1,0,0,0,2,0V7A1,1,0,0,0,23,6Z"/></svg>