<svg xmlns="http://www.w3.org/2000/svg" viewBox="0 0 24 24"><title>playlist-songs</title><path d="M7,3H17a1,1,0,0,0,0-2H7A1,1,0,0,0,7,3Z"/><circle cx="2" cy="2" r="2"/><path d="M6,8A1,1,0,0,0,7,9H17a1,1,0,0,0,0-2H7A1,1,0,0,0,6,8Z"/><circle cx="2" cy="8" r="2"/><path d="M10,13H7a1,1,0,0,0,0,2h3a1,1,0,0,0,0-2Z"/><circle cx="2" cy="14" r="2"/><path d="M24,19.552c0-.018,0-.034,0-.052V12.705a2,2,0,0,0-2.368-1.966l-6,1.125A2,2,0,0,0,14,13.83v4.931a.255.255,0,0,1-.081.185.251.251,0,0,1-.192.064C13.652,19,13.577,19,13.5,19A2.5,2.5,0,1,0,16,21.552c0-.018,0-.034,0-.052V14.245a.5.5,0,0,1,.408-.491l5-.938a.5.5,0,0,1,.592.492v3.453a.255.255,0,0,1-.081.185.251.251,0,0,1-.192.064C21.652,17,21.577,17,21.5,17A2.5,2.5,0,1,0,24,19.552Z"/></svg>