<svg id="Light" xmlns="http://www.w3.org/2000/svg" viewBox="0 0 24 24"><defs><style>.cls-1{fill:none;stroke:currentColor;stroke-linecap:round;stroke-linejoin:round;}</style></defs><title>single-man-hierachy</title><line class="cls-1" x1="13.5" y1="12.5" x2="19.5" y2="12.5"/><path class="cls-1" d="M19.5,3.5h-2a2,2,0,0,0-2,2v13a2,2,0,0,0,2,2h2"/><circle class="cls-1" cx="21.5" cy="3.5" r="2"/><circle class="cls-1" cx="21.5" cy="12.5" r="2"/><circle class="cls-1" cx="21.5" cy="20.5" r="2"/><line class="cls-1" x1="5.5" y1="11" x2="5.5" y2="14"/><path class="cls-1" d="M7.5,23.5l.5-6h2.5V14a5,5,0,0,0-10,0v3.5H3l.5,6Z"/><path class="cls-1" d="M2.484,2.223A5.809,5.809,0,0,0,6.667,4a5.822,5.822,0,0,0,2.3-.473"/><circle class="cls-1" cx="5.5" cy="4" r="3.5"/></svg>