<svg id="Light" xmlns="http://www.w3.org/2000/svg" viewBox="0 0 24 24"><defs><style>.cls-1{fill:none;stroke:currentColor;stroke-linecap:round;stroke-linejoin:round;}</style></defs><title>single-man-idea</title><g id="New_Symbol_38" data-name="New Symbol 38"><path class="cls-1" d="M23.5,5.5a5,5,0,1,0-7,4.578V11.5a1,1,0,0,0,1,1h2a1,1,0,0,0,1-1V10.078A5,5,0,0,0,23.5,5.5Z"/><line class="cls-1" x1="16.5" y1="10" x2="20.5" y2="10"/><line class="cls-1" x1="18.5" y1="12.5" x2="18.5" y2="14"/></g><line class="cls-1" x1="5.5" y1="11" x2="5.5" y2="14"/><path class="cls-1" d="M7.5,23.5l.5-6h2.5V14a5,5,0,0,0-10,0v3.5H3l.5,6Z"/><path class="cls-1" d="M2.484,2.223A5.809,5.809,0,0,0,6.667,4a5.822,5.822,0,0,0,2.3-.473"/><circle class="cls-1" cx="5.5" cy="4" r="3.5"/></svg>