<svg id="Light" xmlns="http://www.w3.org/2000/svg" viewBox="0 0 24 24"><defs><style>.cls-1{fill:none;stroke:currentColor;stroke-linecap:round;stroke-linejoin:round;}</style></defs><title>single-man-shield</title><line class="cls-1" x1="17.5" y1="2.5" x2="17.5" y2="8.5"/><line class="cls-1" x1="20.5" y1="5.5" x2="14.5" y2="5.5"/><path class="cls-1" d="M18.035,12.4l.553-.21c2.63-1,4.912-3.524,4.912-6.338V2.456a1.044,1.044,0,0,0-.628-.958,15.814,15.814,0,0,0-5.394-1,15.521,15.521,0,0,0-5.35,1,1.044,1.044,0,0,0-.628.958V5.849c0,2.814,2.238,5.336,4.868,6.338l.553.21A1.561,1.561,0,0,0,18.035,12.4Z"/><line class="cls-1" x1="5.5" y1="11" x2="5.5" y2="14"/><path class="cls-1" d="M7.5,23.5l.5-6h2.5V14a5,5,0,0,0-10,0v3.5H3l.5,6Z"/><path class="cls-1" d="M2.484,2.223A5.809,5.809,0,0,0,6.667,4a5.822,5.822,0,0,0,2.3-.473"/><circle class="cls-1" cx="5.5" cy="4" r="3.5"/></svg>