<svg id="Light" xmlns="http://www.w3.org/2000/svg" viewBox="0 0 24 24"><defs><style>.cls-1{fill:none;stroke:currentColor;stroke-linecap:round;stroke-linejoin:round;}</style></defs><title>single-man-statics-2</title><path class="cls-1" d="M13.5,14.5h9a1,1,0,0,0,1-1V1.5a1,1,0,0,0-1-1h-12"/><rect class="cls-1" x="14.5" y="6.5" width="2" height="5" rx="0.5" ry="0.5"/><rect class="cls-1" x="18.5" y="4.5" width="2" height="7" rx="0.5" ry="0.5"/><line class="cls-1" x1="5.5" y1="11" x2="5.5" y2="14"/><path class="cls-1" d="M7.5,23.5l.5-6h2.5V14a5,5,0,0,0-10,0v3.5H3l.5,6Z"/><path class="cls-1" d="M2.484,2.223A5.809,5.809,0,0,0,6.667,4a5.822,5.822,0,0,0,2.3-.473"/><circle class="cls-1" cx="5.5" cy="4" r="3.5"/></svg>