<svg id="Light" xmlns="http://www.w3.org/2000/svg" viewBox="0 0 24 24"><defs><style>.cls-1{fill:none;stroke:currentColor;stroke-linecap:round;stroke-linejoin:round;}</style></defs><title>single-man-actions-video</title><path class="cls-1" d="M22.842,16.219,20.5,17V16A1.5,1.5,0,0,0,19,14.5H13A1.5,1.5,0,0,0,11.5,16v6A1.5,1.5,0,0,0,13,23.5h6A1.5,1.5,0,0,0,20.5,22V21l2.342.781a.5.5,0,0,0,.658-.475V16.694A.5.5,0,0,0,22.842,16.219Z"/><path class="cls-1" d="M2.484,2.223A5.809,5.809,0,0,0,6.667,4a5.822,5.822,0,0,0,2.3-.473"/><circle class="cls-1" cx="5.5" cy="4" r="3.5"/><path class="cls-1" d="M10.013,11.845A5,5,0,0,0,.5,14v3.5H3l.5,6h4l.5-6H9.482"/></svg>