<svg id="Light" xmlns="http://www.w3.org/2000/svg" viewBox="0 0 24 24"><defs><style>.cls-1{fill:none;stroke:currentColor;stroke-linecap:round;stroke-linejoin:round;}</style></defs><title>single-man-actions-player</title><rect class="cls-1" x="11.5" y="11.5" width="12" height="12" rx="1.5" ry="1.5"/><path class="cls-1" d="M15.5,17.5V15.68a.43.43,0,0,1,.651-.369l3.034,1.82a.43.43,0,0,1,0,.738l-3.034,1.82a.43.43,0,0,1-.651-.369Z"/><path class="cls-1" d="M2.484,2.223A5.809,5.809,0,0,0,6.667,4a5.822,5.822,0,0,0,2.3-.473"/><circle class="cls-1" cx="5.5" cy="4" r="3.5"/><path class="cls-1" d="M10.013,11.845A5,5,0,0,0,.5,14v3.5H3l.5,6h4l.5-6H9.482"/></svg>