<svg id="Light" xmlns="http://www.w3.org/2000/svg" viewBox="0 0 24 24"><defs><style>.cls-1{fill:none;stroke:currentColor;stroke-linecap:round;stroke-linejoin:round;}</style></defs><title>single-man-actions-share-1</title><line class="cls-1" x1="0.5" y1="15.5" x2="0.5" y2="23.5"/><path class="cls-1" d="M15.5,22.5a3,3,0,0,0-3-3H8.75a3,3,0,0,0-3-3H.5v6Z"/><line class="cls-1" x1="5.75" y1="19.5" x2="9.5" y2="19.5"/><path class="cls-1" d="M15.484,2.223A5.809,5.809,0,0,0,19.667,4a5.822,5.822,0,0,0,2.3-.473"/><circle class="cls-1" cx="18.5" cy="4" r="3.5"/><path class="cls-1" d="M17.5,23.5h3l.5-6h2.5V14a5,5,0,0,0-10,0v2.5"/></svg>