<svg id="Light" xmlns="http://www.w3.org/2000/svg" viewBox="0 0 24 24"><defs><style>.cls-1{fill:none;stroke:currentColor;stroke-linecap:round;stroke-linejoin:round;}</style></defs><title>single-man-actions-key</title><path class="cls-1" d="M16.405,20.231a1.25,1.25,0,1,1,0-1.768A1.251,1.251,0,0,1,16.405,20.231Z"/><path class="cls-1" d="M19.048,17.942l4.305-4.295a.5.5,0,0,0,.147-.354V12a.5.5,0,0,0-.5-.5H21.7a.5.5,0,0,0-.344.137l-4.429,4.184a4,4,0,1,0,2.122,2.121Z"/><path class="cls-1" d="M2.484,2.223A5.809,5.809,0,0,0,6.667,4a5.822,5.822,0,0,0,2.3-.473"/><circle class="cls-1" cx="5.5" cy="4" r="3.5"/><path class="cls-1" d="M10.5,14.5V14a5,5,0,0,0-10,0v3.5H3l.5,6h4l.5-6H9"/></svg>