<svg id="Light" xmlns="http://www.w3.org/2000/svg" viewBox="0 0 24 24"><defs><style>.cls-1{fill:none;stroke:currentColor;stroke-linecap:round;stroke-linejoin:round;}</style></defs><title>single-man-actions-star</title><path class="cls-1" d="M18.206,11.93l1.539,3.323H22.74a.735.735,0,0,1,.517,1.283l-2.6,2.563,1.44,3.313a.785.785,0,0,1-1.117.982L17.5,21.433l-3.48,1.961a.785.785,0,0,1-1.117-.982l1.44-3.313-2.6-2.563a.734.734,0,0,1,.514-1.283h3l1.541-3.323A.8.8,0,0,1,18.206,11.93Z"/><path class="cls-1" d="M2.484,2.223A5.809,5.809,0,0,0,6.667,4a5.822,5.822,0,0,0,2.3-.473"/><circle class="cls-1" cx="5.5" cy="4" r="3.5"/><path class="cls-1" d="M10.013,11.845A5,5,0,0,0,.5,14v3.5H3l.5,6h4l.5-6H9.482"/></svg>