<svg id="Light" xmlns="http://www.w3.org/2000/svg" viewBox="0 0 24 24"><defs><style>.cls-1{fill:none;stroke:currentColor;stroke-linecap:round;stroke-linejoin:round;}</style></defs><title>single-man-actions-graduate</title><path class="cls-1" d="M16.324,14.7,9.693,17.337,16.36,19.69a1,1,0,0,0,.666,0l6.038-2.131a.25.25,0,0,0,.009-.468L17.062,14.7A1,1,0,0,0,16.324,14.7Z"/><line class="cls-1" x1="9.693" y1="17.337" x2="9.693" y2="21"/><path class="cls-1" d="M12.693,18.4V21.55a.749.749,0,0,0,.472.7l3.25,1.2a.745.745,0,0,0,.557,0l3.25-1.2a.75.75,0,0,0,.471-.7V18.4"/><path class="cls-1" d="M2.484,2.223A5.809,5.809,0,0,0,6.667,4a5.822,5.822,0,0,0,2.3-.473"/><circle class="cls-1" cx="5.5" cy="4" r="3.5"/><path class="cls-1" d="M10.5,14a5,5,0,0,0-10,0v3.5H3l.5,6h4L7.625,22"/></svg>