<svg xmlns="http://www.w3.org/2000/svg" viewBox="0 0 24 24"><defs><style>.a{fill:none;stroke:currentColor;stroke-linecap:round;stroke-linejoin:round;}</style></defs><title>mood-moody</title><line class="a" x1="12" y1="0.5" x2="12" y2="23.5"/><path class="a" d="M22.542,8.5A10.007,10.007,0,0,0,14,1.55"/><path class="a" d="M14,21.45a9.94,9.94,0,0,0,5-1.95"/><path class="a" d="M10,1.55a10,10,0,0,0,0,19.9"/><path class="a" d="M12,18.5a6,6,0,0,1-5.2-3"/><path class="a" d="M17.2,17.5a6,6,0,0,0-5.2-3"/><path class="a" d="M5.5,9.5a2.5,2.5,0,0,0,4,0"/><path class="a" d="M18.5,9.5a2.5,2.5,0,0,1-4,0"/><path class="a" d="M23,14.5a2.13,2.13,0,0,1-2,2,2.13,2.13,0,0,1-2-2c0-1.5,2-4,2-4S23,13,23,14.5Z"/></svg>