<svg xmlns="http://www.w3.org/2000/svg" viewBox="0 0 24 24"><defs><style>.a{fill:none;stroke:currentColor;stroke-linecap:round;stroke-linejoin:round;}</style></defs><title>mood-happy</title><path class="a" d="M12.767.5A10.717,10.717,0,0,0,3.652,16.881L.5,23.5l6.619-3.152A10.729,10.729,0,1,0,12.767.5Z"/><path class="a" d="M8.75,9.5a.25.25,0,1,1-.25.25.25.25,0,0,1,.25-.25"/><path class="a" d="M16.75,9.5a.25.25,0,1,1-.25.25.25.25,0,0,1,.25-.25"/><path class="a" d="M15.25,13a2.5,2.5,0,0,1-5,0Z"/></svg>