<svg xmlns="http://www.w3.org/2000/svg" viewBox="0 0 24 24"><defs><style>.a{fill:none;stroke:currentColor;stroke-linecap:round;stroke-linejoin:round;}</style></defs><title>mood-rock</title><path class="a" d="M10.546,14.927A2,2,0,0,1,8,13V9.5a2,2,0,1,1,4,0v3.063"/><path class="a" d="M12,12.5v-3a2,2,0,1,1,4,0v3"/><path class="a" d="M20,16.178V2.5a2,2,0,0,0-4,0v7"/><path class="a" d="M12,20.5a4,4,0,0,1,4-4H12.5a2,2,0,0,1,0-4h3.528a4.056,4.056,0,0,1,2.373.768A3.677,3.677,0,0,1,20,16.178c0,3.133-3.155,7.322-8,7.322a8,8,0,0,1-8-8V4.5a2,2,0,0,1,4,0v5"/></svg>