<svg xmlns="http://www.w3.org/2000/svg" viewBox="0 0 24 24"><defs><style>.a{fill:none;stroke:currentColor;stroke-linecap:round;stroke-linejoin:round;}</style></defs><title>mood-happy-laptop</title><path class="a" d="M9,7.5H5.167A1.667,1.667,0,0,0,3.5,9.167V20.5"/><line class="a" x1="20.5" y1="20.5" x2="20.5" y2="14"/><path class="a" d="M23.5,20.5a3,3,0,0,1-3,3H3.5a3,3,0,0,1-3-3Z"/><path class="a" d="M15.25,4.5a.25.25,0,1,1-.25.25.25.25,0,0,1,.25-.25"/><path class="a" d="M19.75,4.5a.25.25,0,1,1-.25.25.25.25,0,0,1,.25-.25"/><path class="a" d="M19.5,8a2,2,0,0,1-4,0Z"/><path class="a" d="M17.433.5A5.954,5.954,0,0,0,11.5,6.567a5.94,5.94,0,0,0,.781,3.192L10.5,13.5l3.741-1.782A6.064,6.064,0,1,0,17.433.5Z"/></svg>