<svg xmlns="http://www.w3.org/2000/svg" viewBox="0 0 24 24"><defs><style>.a{fill:none;stroke:currentColor;stroke-linecap:round;stroke-linejoin:round;stroke-width:1.5px;}</style></defs><title>video-edit-magic-wand</title><path class="a" d="M17.729,23.25,22.4,14.487a.827.827,0,0,0-.34-1.12L20.6,12.588a.829.829,0,0,0-1.12.341l-5.5,10.321"/><line class="a" x1="20.845" y1="17.408" x2="17.924" y2="15.85"/><line class="a" x1="14.25" y1="12" x2="14.25" y2="15"/><line class="a" x1="15.75" y1="13.5" x2="12.75" y2="13.5"/><line class="a" x1="21.75" y1="6" x2="21.75" y2="9"/><line class="a" x1="23.25" y1="7.5" x2="20.25" y2="7.5"/><line class="a" x1="0.75" y1="5.25" x2="5.25" y2="5.25"/><line class="a" x1="18.75" y1="5.25" x2="14.25" y2="5.25"/><path class="a" d="M9.75,23.25H2.25a1.5,1.5,0,0,1-1.5-1.5V2.25A1.5,1.5,0,0,1,2.25.75h15a1.5,1.5,0,0,1,1.5,1.5v3"/><line class="a" x1="5.25" y1="23.25" x2="5.25" y2="14.25"/><line class="a" x1="14.25" y1="9.75" x2="14.25" y2="0.75"/><line class="a" x1="5.25" y1="9.75" x2="5.25" y2="0.75"/><line class="a" x1="0.75" y1="18.75" x2="5.25" y2="18.75"/><line class="a" x1="0.75" y1="14.25" x2="9.75" y2="14.25"/><line class="a" x1="0.75" y1="9.75" x2="18.75" y2="9.75"/></svg>