<svg id="Light" xmlns="http://www.w3.org/2000/svg" viewBox="0 0 24 24"><defs><style>.cls-1{fill:none;stroke:currentColor;stroke-linecap:round;stroke-linejoin:round;}</style></defs><title>single-woman-actions-flight</title><path class="cls-1" d="M22.255,14.8a1.61,1.61,0,0,1,1.155,1.037,1.522,1.522,0,0,1,.09.513,1.591,1.591,0,0,1-.743,1.378L13.6,23.415a.561.561,0,0,1-.621-.018L9.616,21.04a.31.31,0,0,1-.047-.437.29.29,0,0,1,.053-.052l1.409-1.243a.31.31,0,0,1,.3-.051L13.1,20.309l2.24-1.563-4.245-2.628a.385.385,0,0,1-.044-.544.378.378,0,0,1,.062-.058l1.038-.769a.386.386,0,0,1,.364-.052l5.85,2.178,2.706-1.847A1.5,1.5,0,0,1,22.255,14.8Z"/><path class="cls-1" d="M12.6,9.1a5.506,5.506,0,0,1-.8-3.054V4.8A4.3,4.3,0,1,0,3.2,4.8V6.046A5.506,5.506,0,0,1,2.4,9.1"/><path class="cls-1" d="M3.2,5.506A5.687,5.687,0,0,0,7.5,3.537a5.687,5.687,0,0,0,4.3,1.969"/><path class="cls-1" d="M11.287,5.484a3.791,3.791,0,0,1-7.574,0"/><path class="cls-1" d="M8.5,17.5H.5A7,7,0,0,1,12,12.138"/></svg>