<svg id="Light" xmlns="http://www.w3.org/2000/svg" viewBox="0 0 24 24"><defs><style>.cls-1{fill:none;stroke:currentColor;stroke-linecap:round;stroke-linejoin:round;}</style></defs><title>single-woman-actions-key</title><path class="cls-1" d="M16.405,20.231a1.25,1.25,0,1,1,0-1.768A1.251,1.251,0,0,1,16.405,20.231Z"/><path class="cls-1" d="M19.048,17.942l4.305-4.295a.5.5,0,0,0,.147-.354V12a.5.5,0,0,0-.5-.5H21.7a.5.5,0,0,0-.344.137l-4.429,4.184a4,4,0,1,0,2.122,2.121Z"/><path class="cls-1" d="M12.6,9.1a5.506,5.506,0,0,1-.8-3.054V4.8A4.3,4.3,0,1,0,3.2,4.8V6.045A5.515,5.515,0,0,1,2.4,9.1"/><path class="cls-1" d="M3.2,5.506a5.689,5.689,0,0,0,4.3-1.97,5.688,5.688,0,0,0,4.3,1.97"/><path class="cls-1" d="M11.288,5.483a3.791,3.791,0,0,1-7.574,0"/><path class="cls-1" d="M8.5,17.5H.5A7,7,0,0,1,12.862,13"/></svg>