<svg id="Light" xmlns="http://www.w3.org/2000/svg" viewBox="0 0 24 24"><defs><style>.cls-1{fill:none;stroke:currentColor;stroke-linecap:round;stroke-linejoin:round;}</style></defs><title>single-woman-actions-coding</title><circle class="cls-1" cx="17.5" cy="17.502" r="6"/><polyline class="cls-1" points="16 16.002 14.5 17.502 16 19.002"/><polyline class="cls-1" points="19 16.002 20.5 17.502 19 19.002"/><path class="cls-1" d="M12.6,9.1a5.515,5.515,0,0,1-.8-3.054V4.8a4.3,4.3,0,1,0-8.593,0V6.048A5.515,5.515,0,0,1,2.4,9.1"/><path class="cls-1" d="M3.206,5.509a5.688,5.688,0,0,0,4.3-1.97,5.692,5.692,0,0,0,4.3,1.97"/><path class="cls-1" d="M11.289,5.486a3.791,3.791,0,0,1-7.574,0"/><path class="cls-1" d="M8.5,17.5H.5a7,7,0,0,1,10.783-5.89"/></svg>