<svg id="Light" xmlns="http://www.w3.org/2000/svg" viewBox="0 0 24 24"><defs><style>.cls-1{fill:none;stroke:currentColor;stroke-linecap:round;stroke-linejoin:round;}</style></defs><title>single-woman-actions-remove</title><circle class="cls-1" cx="17.5" cy="17.504" r="6"/><line class="cls-1" x1="19.621" y1="15.382" x2="15.379" y2="19.625"/><line class="cls-1" x1="19.621" y1="19.625" x2="15.379" y2="15.382"/><path class="cls-1" d="M12.6,9.1a5.506,5.506,0,0,1-.8-3.054V4.8A4.3,4.3,0,1,0,3.2,4.8V6.048A5.506,5.506,0,0,1,2.4,9.1"/><path class="cls-1" d="M3.2,5.509a5.691,5.691,0,0,0,4.3-1.97,5.691,5.691,0,0,0,4.3,1.97"/><path class="cls-1" d="M11.287,5.486a3.791,3.791,0,0,1-7.574,0"/><path class="cls-1" d="M8.5,17.5H.5a7,7,0,0,1,10.783-5.89"/></svg>