<svg id="Light" xmlns="http://www.w3.org/2000/svg" viewBox="0 0 24 24"><defs><style>.cls-1{fill:none;stroke:currentColor;stroke-linecap:round;stroke-linejoin:round;}</style></defs><title>single-woman-actions-cart</title><circle class="cls-1" cx="15.5" cy="22.502" r="1"/><circle class="cls-1" cx="19.5" cy="22.502" r="1"/><path class="cls-1" d="M23.5,10.5l-2.4,8.634a.5.5,0,0,1-.482.366H14.86a.5.5,0,0,1-.474-.342l-1.667-5a.5.5,0,0,1,.475-.658h9.473"/><path class="cls-1" d="M12.6,9.1a5.506,5.506,0,0,1-.8-3.054V4.8A4.3,4.3,0,1,0,3.2,4.8V6.048A5.515,5.515,0,0,1,2.4,9.1"/><path class="cls-1" d="M3.2,5.509a5.692,5.692,0,0,0,4.3-1.97,5.691,5.691,0,0,0,4.3,1.97"/><path class="cls-1" d="M11.288,5.486a3.791,3.791,0,0,1-7.574,0"/><path class="cls-1" d="M10.5,17.5H.5a7,7,0,0,1,10.783-5.89"/></svg>