<svg id="Light" xmlns="http://www.w3.org/2000/svg" viewBox="0 0 24 24"><defs><style>.cls-1{fill:none;stroke:currentColor;stroke-linecap:round;stroke-linejoin:round;}</style></defs><title>single-woman-actions-check-2</title><path class="cls-1" d="M23.5,17.5a6,6,0,1,1-6-6"/><path class="cls-1" d="M23.5,13l-5.47,5.47a.749.749,0,0,1-1.06,0l-1.72-1.72"/><path class="cls-1" d="M12.6,9.1a5.506,5.506,0,0,1-.8-3.054V4.8A4.3,4.3,0,1,0,3.2,4.8V6.048A5.506,5.506,0,0,1,2.4,9.1"/><path class="cls-1" d="M3.2,5.509a5.691,5.691,0,0,0,4.3-1.97,5.691,5.691,0,0,0,4.3,1.97"/><path class="cls-1" d="M11.287,5.486a3.791,3.791,0,0,1-7.574,0"/><path class="cls-1" d="M8.5,17.5H.5a7,7,0,0,1,10.783-5.89"/></svg>