<svg id="Light" xmlns="http://www.w3.org/2000/svg" viewBox="0 0 24 24"><defs><style>.cls-1{fill:none;stroke:currentColor;stroke-linecap:round;stroke-linejoin:round;}</style></defs><title>single-woman-actions-information</title><circle class="cls-1" cx="17.5" cy="17.5" r="6"/><path class="cls-1" d="M17.5,20.5V17a.5.5,0,0,0-.5-.5H16"/><path class="cls-1" d="M16.75,14a.25.25,0,1,1-.25.25.25.25,0,0,1,.25-.25"/><line class="cls-1" x1="16" y1="20.5" x2="19" y2="20.5"/><path class="cls-1" d="M12.6,9.1a5.515,5.515,0,0,1-.8-3.054V4.8A4.3,4.3,0,1,0,3.2,4.8V6.045A5.515,5.515,0,0,1,2.4,9.1"/><path class="cls-1" d="M3.2,5.505A5.688,5.688,0,0,0,7.5,3.536a5.684,5.684,0,0,0,4.3,1.969"/><path class="cls-1" d="M11.287,5.483a3.791,3.791,0,0,1-7.573,0"/><path class="cls-1" d="M8.5,17.5H.5a7,7,0,0,1,10.783-5.891"/></svg>