<svg id="Light" xmlns="http://www.w3.org/2000/svg" viewBox="0 0 24 24"><defs><style>.cls-1{fill:none;stroke:currentColor;stroke-linecap:round;stroke-linejoin:round;}</style></defs><title>single-woman-actions-share-1</title><line class="cls-1" x1="0.5" y1="15.5" x2="0.5" y2="23.5"/><path class="cls-1" d="M15.5,22.5a3,3,0,0,0-3-3H8.75a3,3,0,0,0-3-3H.5v6Z"/><line class="cls-1" x1="5.75" y1="19.5" x2="8.75" y2="19.5"/><path class="cls-1" d="M21.6,9.1a5.508,5.508,0,0,1-.8-3.054V4.8a4.3,4.3,0,1,0-8.592,0V6.045A5.508,5.508,0,0,1,11.4,9.1"/><path class="cls-1" d="M12.2,5.505a5.691,5.691,0,0,0,4.3-1.969,5.691,5.691,0,0,0,4.3,1.969"/><path class="cls-1" d="M20.287,5.482a3.791,3.791,0,0,1-7.574,0"/><path class="cls-1" d="M9.984,14.938A7,7,0,0,1,23.5,17.5h-8"/></svg>