<?xml version="1.0" encoding="utf-8"?>
<!-- Generator: Adobe Illustrator 22.1.0, SVG Export Plug-In . SVG Version: 6.00 Build 0)  -->
<svg version="1.1" id="Layer_1" xmlns="http://www.w3.org/2000/svg" xmlns:xlink="http://www.w3.org/1999/xlink" x="0px" y="0px"
	 viewBox="0 0 24 24" style="enable-background:new 0 0 24 24;" xml:space="preserve">
<title>bin</title>
<g>
	<path d="M1.488,4.504c-0.414,0-0.75-0.336-0.75-0.75s0.336-0.75,0.75-0.75h21c0.414,0,0.75,0.336,0.75,0.75s-0.336,0.75-0.75,0.75
		H1.488z"/>
	<path d="M1.488,21.004c-0.414,0-0.75-0.336-0.75-0.75s0.336-0.75,0.75-0.75h21c0.414,0,0.75,0.336,0.75,0.75s-0.336,0.75-0.75,0.75
		H1.488z"/>
	<path d="M5.988,16.504c-0.414,0-0.75-0.336-0.75-0.75v-7.5c0-0.414,0.336-0.75,0.75-0.75h1.5c1.241,0,2.25,1.009,2.25,2.25v0.75
		c0,0.562-0.205,1.089-0.574,1.498c0.369,0.409,0.574,0.936,0.574,1.498v0.75c0,1.241-1.009,2.25-2.25,2.25H6.05
		C6.029,16.502,6.009,16.504,5.988,16.504z M7.488,15c0.414,0,0.75-0.336,0.75-0.75V13.5c0-0.397-0.321-0.73-0.717-0.747
		c-0.011,0-0.022,0.001-0.033,0.001h-0.75V15H7.488z M7.488,11.25c0.009,0,0.032,0.001,0.041,0.002
		c0.38-0.01,0.709-0.345,0.709-0.748v-0.75c0-0.414-0.336-0.75-0.75-0.75h-0.75v2.246H7.488z"/>
	<path d="M11.988,16.504c-0.414,0-0.75-0.336-0.75-0.75v-7.5c0-0.414,0.336-0.75,0.75-0.75c0.414,0,0.75,0.336,0.75,0.75v7.5
		C12.738,16.167,12.402,16.504,11.988,16.504z"/>
	<path d="M17.988,16.504c-0.309,0-0.582-0.185-0.696-0.472l-1.553-3.884v3.606c0,0.414-0.336,0.75-0.75,0.75s-0.75-0.336-0.75-0.75
		v-7.5c0-0.359,0.256-0.668,0.608-0.736c0.048-0.009,0.094-0.013,0.141-0.013c0.304,0,0.585,0.189,0.698,0.472l1.553,3.884V8.254
		c0-0.414,0.336-0.75,0.75-0.75s0.75,0.336,0.75,0.75v7.5c0,0.359-0.256,0.669-0.608,0.736C18.083,16.5,18.035,16.504,17.988,16.504
		z"/>
</g>
</svg>
