<?xml version="1.0" encoding="utf-8"?>
<!-- Generator: Adobe Illustrator 22.1.0, SVG Export Plug-In . SVG Version: 6.00 Build 0)  -->
<svg version="1.1" id="Layer_1" xmlns="http://www.w3.org/2000/svg" xmlns:xlink="http://www.w3.org/1999/xlink" x="0px" y="0px"
	 viewBox="0 0 24 24" style="enable-background:new 0 0 24 24;" xml:space="preserve">
<title>c-plus-plus-1</title>
<g>
	<path d="M2.238,24c-1.241,0-2.25-1.009-2.25-2.25V21c0-0.414,0.336-0.75,0.75-0.75s0.75,0.336,0.75,0.75v0.75
		c0,0.414,0.336,0.75,0.75,0.75h19.5c0.414,0,0.75-0.336,0.75-0.75V21c0-0.414,0.336-0.75,0.75-0.75s0.75,0.336,0.75,0.75v0.75
		c0,1.241-1.009,2.25-2.25,2.25H2.238z"/>
	<path d="M23.238,8.25c-0.414,0-0.75-0.336-0.75-0.75V2.254c0-0.414-0.336-0.75-0.75-0.75h-19.5c-0.414,0-0.75,0.336-0.75,0.75V7.5
		c0,0.414-0.336,0.75-0.75,0.75s-0.75-0.336-0.75-0.75V2.254c0-1.241,1.009-2.25,2.25-2.25h19.5c1.241,0,2.25,1.009,2.25,2.25V7.5
		C23.988,7.914,23.652,8.25,23.238,8.25z"/>
	<path d="M4.488,18.75c-2.068,0-3.75-1.682-3.75-3.75v-1.5c0-2.068,1.682-3.75,3.75-3.75c0.414,0,0.75,0.336,0.75,0.75
		s-0.336,0.75-0.75,0.75c-1.241,0-2.25,1.009-2.25,2.25V15c0,1.241,1.009,2.25,2.25,2.25c0.414,0,0.75,0.336,0.75,0.75
		S4.902,18.75,4.488,18.75z"/>
	<path d="M10.488,18.754c-0.414,0-0.75-0.336-0.75-0.75v-2.25h-2.25c-0.414,0-0.75-0.336-0.75-0.75s0.336-0.75,0.75-0.75h2.25v-2.25
		c0-0.414,0.336-0.75,0.75-0.75s0.75,0.336,0.75,0.75v2.25h2.25c0.414,0,0.75,0.336,0.75,0.75s-0.336,0.75-0.75,0.75h-2.25v2.25
		C11.238,18.417,10.902,18.754,10.488,18.754z"/>
	<path d="M19.488,18.754c-0.414,0-0.75-0.336-0.75-0.75v-2.25h-2.25c-0.414,0-0.75-0.336-0.75-0.75s0.336-0.75,0.75-0.75h2.25v-2.25
		c0-0.414,0.336-0.75,0.75-0.75s0.75,0.336,0.75,0.75v2.25h2.25c0.414,0,0.75,0.336,0.75,0.75s-0.336,0.75-0.75,0.75h-2.25v2.25
		C20.238,18.417,19.902,18.754,19.488,18.754z"/>
</g>
</svg>
