<?xml version="1.0" encoding="utf-8"?>
<!-- Generator: Adobe Illustrator 22.1.0, SVG Export Plug-In . SVG Version: 6.00 Build 0)  -->
<svg version="1.1" id="Layer_1" xmlns="http://www.w3.org/2000/svg" xmlns:xlink="http://www.w3.org/1999/xlink" x="0px" y="0px"
	 viewBox="0 0 24 24" style="enable-background:new 0 0 24 24;" xml:space="preserve">
<title>file-code-refresh-1</title>
<g>
	<path d="M17.253,24.005c-3.078,0-5.766-2.082-6.536-5.062c-0.451-1.743-0.194-3.559,0.722-5.114s2.381-2.66,4.124-3.11
		c0.552-0.143,1.12-0.215,1.686-0.215c2.065,0,3.983,0.936,5.251,2.506v-1.757c0-0.414,0.336-0.75,0.75-0.75S24,10.839,24,11.253
		v4.5c0,0.414-0.336,0.75-0.75,0.75H19.5c-0.414,0-0.75-0.336-0.75-0.75s0.336-0.75,0.75-0.75h2.494
		c-0.86-1.814-2.704-2.999-4.742-2.999c-0.441,0-0.883,0.057-1.313,0.168c-2.803,0.724-4.494,3.594-3.769,6.397
		c0.599,2.318,2.69,3.937,5.083,3.937c0,0,0,0,0,0c0.441,0,0.883-0.056,1.314-0.168c1.093-0.283,2.083-0.924,2.788-1.807
		c0.143-0.179,0.356-0.282,0.586-0.282c0.169,0,0.335,0.058,0.468,0.164c0.156,0.125,0.255,0.303,0.278,0.502
		c0.022,0.199-0.034,0.395-0.159,0.552c-0.906,1.134-2.179,1.959-3.585,2.323C18.388,23.933,17.82,24.005,17.253,24.005z"/>
	<path d="M2.25,21.003c-1.241,0-2.25-1.009-2.25-2.25v-16.5c0-1.241,1.009-2.25,2.25-2.25h10.629c0.601,0,1.166,0.234,1.591,0.659
		l2.871,2.871C17.766,3.958,18,4.523,18,5.125v3.128c0,0.414-0.336,0.75-0.75,0.75s-0.75-0.336-0.75-0.75V5.124
		c0-0.201-0.078-0.389-0.219-0.531L13.41,1.722c-0.142-0.141-0.33-0.219-0.53-0.219H2.25c-0.414,0-0.75,0.336-0.75,0.75v16.5
		c0,0.414,0.336,0.75,0.75,0.75h6c0.414,0,0.75,0.336,0.75,0.75s-0.336,0.75-0.75,0.75H2.25z"/>
	<path d="M9,11.253c-0.2,0-0.389-0.078-0.53-0.22c-0.142-0.141-0.22-0.33-0.22-0.53s0.078-0.389,0.22-0.53l1.72-1.72l-1.72-1.72
		c-0.142-0.141-0.22-0.33-0.22-0.53s0.078-0.389,0.22-0.53C8.611,5.331,8.8,5.253,9,5.253s0.389,0.078,0.53,0.22l2.25,2.25
		C11.922,7.864,12,8.053,12,8.253s-0.078,0.389-0.22,0.53l-2.25,2.25C9.389,11.175,9.2,11.253,9,11.253z"/>
	<path d="M6,11.253c-0.2,0-0.389-0.078-0.53-0.22l-2.25-2.25C3.078,8.642,3,8.453,3,8.253s0.078-0.389,0.22-0.53l2.25-2.25
		C5.611,5.331,5.8,5.253,6,5.253s0.389,0.078,0.53,0.22c0.142,0.141,0.22,0.33,0.22,0.53s-0.078,0.389-0.22,0.53l-1.72,1.72
		l1.72,1.72c0.142,0.141,0.22,0.33,0.22,0.53s-0.078,0.389-0.22,0.53C6.389,11.175,6.2,11.253,6,11.253z"/>
</g>
</svg>
