<?xml version="1.0" encoding="utf-8"?>
<!-- Generator: Adobe Illustrator 22.1.0, SVG Export Plug-In . SVG Version: 6.00 Build 0)  -->
<svg version="1.1" id="Layer_1" xmlns="http://www.w3.org/2000/svg" xmlns:xlink="http://www.w3.org/1999/xlink" x="0px" y="0px"
	 viewBox="0 0 24 24" style="enable-background:new 0 0 24 24;" xml:space="preserve">
<title>file-code-remove</title>
<g>
	<path d="M17.249,24.004c-3.722,0-6.75-3.028-6.75-6.75s3.028-6.75,6.75-6.75s6.75,3.028,6.75,6.75S20.971,24.004,17.249,24.004z
		 M17.249,12.004c-2.895,0-5.25,2.355-5.25,5.25s2.355,5.25,5.25,5.25s5.25-2.355,5.25-5.25S20.144,12.004,17.249,12.004z"/>
	<path d="M19.499,20.253c-0.2,0-0.389-0.078-0.53-0.22l-1.72-1.72l-1.72,1.72c-0.142,0.142-0.33,0.22-0.53,0.22
		s-0.389-0.078-0.53-0.22c-0.292-0.292-0.292-0.768,0-1.061l1.72-1.72l-1.72-1.72c-0.292-0.292-0.292-0.768,0-1.061
		c0.142-0.142,0.33-0.22,0.53-0.22s0.389,0.078,0.53,0.22l1.72,1.72l1.72-1.72c0.142-0.142,0.33-0.22,0.53-0.22
		s0.389,0.078,0.53,0.22c0.292,0.292,0.292,0.768,0,1.061l-1.72,1.72l1.72,1.72c0.292,0.292,0.292,0.768,0,1.061
		C19.888,20.175,19.699,20.253,19.499,20.253z"/>
	<path d="M2.249,21.004c-1.241,0-2.25-1.009-2.25-2.25v-16.5c0-1.241,1.009-2.25,2.25-2.25h10.629c0.601,0,1.165,0.234,1.59,0.658
		l2.872,2.871c0.425,0.425,0.659,0.991,0.659,1.592v3.129c0,0.414-0.336,0.75-0.75,0.75s-0.75-0.336-0.75-0.75V5.125
		c0-0.198-0.08-0.391-0.219-0.531l-2.872-2.871c-0.142-0.141-0.33-0.219-0.53-0.219H2.249c-0.414,0-0.75,0.336-0.75,0.75v16.5
		c0,0.414,0.336,0.75,0.75,0.75h6c0.414,0,0.75,0.336,0.75,0.75s-0.336,0.75-0.75,0.75H2.249z"/>
	<path d="M7.499,10.504c-0.827,0-1.5-0.673-1.5-1.5v-3c0-0.827,0.673-1.5,1.5-1.5h1.5c0.827,0,1.5,0.673,1.5,1.5v3
		c0,0.827-0.673,1.5-1.5,1.5H7.499z M7.499,9.004h1.5v-3h-1.5V9.004z"/>
	<path d="M3.749,10.504c-0.414,0-0.75-0.336-0.75-0.75v-4.5c0-0.414,0.336-0.75,0.75-0.75s0.75,0.336,0.75,0.75v4.5
		C4.499,10.167,4.163,10.504,3.749,10.504z"/>
	<path d="M12.749,10.504c-0.414,0-0.75-0.336-0.75-0.75v-4.5c0-0.414,0.336-0.75,0.75-0.75s0.75,0.336,0.75,0.75v4.5
		C13.499,10.167,13.163,10.504,12.749,10.504z"/>
	<path d="M4.499,18.004c-0.827,0-1.5-0.673-1.5-1.5v-3c0-0.827,0.673-1.5,1.5-1.5h1.5c0.827,0,1.5,0.673,1.5,1.5v3
		c0,0.827-0.673,1.5-1.5,1.5H4.499z M4.499,16.504h1.5v-3h-1.5V16.504z"/>
</g>
</svg>
