<?xml version="1.0" encoding="utf-8"?>
<!-- Generator: Adobe Illustrator 22.1.0, SVG Export Plug-In . SVG Version: 6.00 Build 0)  -->
<svg version="1.1" id="Layer_1" xmlns="http://www.w3.org/2000/svg" xmlns:xlink="http://www.w3.org/1999/xlink" x="0px" y="0px"
	 viewBox="0 0 24 24" style="enable-background:new 0 0 24 24;" xml:space="preserve">
<title>file-code-settings-1</title>
<g>
	<path d="M17.252,18.754c-1.241,0-2.25-1.009-2.25-2.25s1.009-2.25,2.25-2.25s2.25,1.009,2.25,2.25S18.493,18.754,17.252,18.754z
		 M17.252,15.754c-0.414,0-0.75,0.336-0.75,0.75s0.336,0.75,0.75,0.75s0.75-0.336,0.75-0.75S17.666,15.754,17.252,15.754z"/>
	<path d="M17.255,24.01c-0.202,0-0.404-0.03-0.6-0.089c-0.672-0.201-1.194-0.723-1.395-1.395l-0.441-1.449
		c-0.031-0.103-0.127-0.175-0.233-0.175c-0.018,0-0.036,0.002-0.054,0.006l-1.472,0.341c-0.154,0.035-0.309,0.052-0.463,0.052
		c-0.968,0-1.825-0.685-2.038-1.629c-0.152-0.673,0.038-1.377,0.508-1.882l1.031-1.11c0.09-0.096,0.09-0.246,0.001-0.341
		l-1.032-1.112c-0.38-0.408-0.578-0.94-0.557-1.498c0.02-0.558,0.257-1.074,0.665-1.454c0.388-0.361,0.893-0.559,1.422-0.559
		c0.154,0,0.309,0.017,0.46,0.051l1.477,0.342c0.017,0.004,0.034,0.006,0.052,0.006c0.107,0,0.204-0.071,0.234-0.173l0.443-1.454
		c0.259-0.872,1.079-1.483,1.992-1.483c0.2,0,0.4,0.029,0.593,0.087c0.672,0.2,1.195,0.72,1.397,1.392l0.443,1.45
		c0.031,0.104,0.127,0.175,0.233,0.175c0.018,0,0.036-0.002,0.053-0.006l1.473-0.341c0.155-0.035,0.312-0.053,0.467-0.053
		c0.393,0,0.778,0.112,1.113,0.324c0.472,0.298,0.799,0.762,0.921,1.306c0.152,0.673-0.038,1.377-0.508,1.882l-1.031,1.11
		c-0.09,0.096-0.09,0.246-0.001,0.342l1.033,1.118c0.379,0.407,0.577,0.939,0.556,1.497c-0.02,0.558-0.257,1.074-0.665,1.454
		c-0.388,0.361-0.893,0.559-1.422,0.559l0,0c-0.155,0-0.309-0.017-0.46-0.052l-1.476-0.342c-0.017-0.004-0.035-0.006-0.053-0.006
		c-0.106,0-0.202,0.071-0.232,0.172l-0.444,1.455c-0.158,0.529-0.515,0.967-1.004,1.23C17.935,23.923,17.595,24.01,17.255,24.01z
		 M14.584,19.402c0.763,0,1.45,0.51,1.671,1.24l0.441,1.45c0.057,0.19,0.203,0.336,0.39,0.392c0.054,0.016,0.111,0.024,0.168,0.024
		c0.096,0,0.188-0.023,0.274-0.07c0.136-0.073,0.236-0.196,0.28-0.344l0.444-1.455c0.219-0.728,0.906-1.237,1.67-1.237
		c0.13,0,0.26,0.015,0.388,0.044l1.474,0.342c0.039,0.009,0.082,0.013,0.125,0.013c0.149,0,0.291-0.056,0.401-0.158
		c0.115-0.107,0.182-0.253,0.188-0.41c0.006-0.157-0.05-0.307-0.157-0.422l-1.033-1.118c-0.621-0.667-0.62-1.714,0.002-2.383
		l1.03-1.11c0.133-0.143,0.187-0.341,0.144-0.531c-0.034-0.153-0.127-0.284-0.26-0.368c-0.095-0.06-0.203-0.091-0.314-0.091
		c-0.044,0-0.088,0.005-0.131,0.015l-1.467,0.34c-0.128,0.03-0.26,0.045-0.391,0.045c-0.763,0-1.45-0.51-1.67-1.24
		c0,0-0.442-1.448-0.443-1.451c-0.056-0.187-0.202-0.332-0.389-0.388c-0.053-0.016-0.109-0.024-0.165-0.024
		c-0.255,0-0.484,0.17-0.557,0.414l-0.444,1.457c-0.219,0.728-0.907,1.238-1.671,1.238c-0.13,0-0.26-0.015-0.388-0.044l-1.474-0.342
		c-0.039-0.009-0.082-0.013-0.125-0.013c-0.149,0-0.291,0.056-0.401,0.158c-0.115,0.107-0.182,0.253-0.188,0.41
		c-0.006,0.157,0.05,0.307,0.157,0.422l1.032,1.112c0.622,0.668,0.622,1.716-0.001,2.385l-1.03,1.11
		c-0.133,0.143-0.187,0.341-0.144,0.531c0.06,0.266,0.302,0.459,0.575,0.459c0.043,0,0.087-0.005,0.13-0.014l1.467-0.34
		C14.321,19.417,14.452,19.402,14.584,19.402z"/>
	<path d="M2.252,21.004c-1.241,0-2.25-1.009-2.25-2.25v-16.5c0-1.241,1.009-2.25,2.25-2.25h10.629
		c0.602,0.001,1.166,0.235,1.591,0.66l2.872,2.87c0.425,0.426,0.659,0.991,0.659,1.592v1.628c0,0.414-0.336,0.75-0.75,0.75
		s-0.75-0.336-0.75-0.75V5.126c0-0.201-0.078-0.389-0.219-0.531l-2.872-2.871c-0.142-0.142-0.33-0.22-0.53-0.221H2.252
		c-0.414,0-0.75,0.336-0.75,0.75v16.5c0,0.414,0.336,0.75,0.75,0.75h6c0.414,0,0.75,0.336,0.75,0.75s-0.336,0.75-0.75,0.75H2.252z"
		/>
	<path d="M9.002,11.254c-0.2,0-0.389-0.078-0.53-0.22c-0.142-0.141-0.22-0.33-0.22-0.53s0.078-0.389,0.22-0.53l1.72-1.72l-1.72-1.72
		c-0.142-0.141-0.22-0.33-0.22-0.53s0.078-0.389,0.22-0.53c0.141-0.142,0.33-0.22,0.53-0.22s0.389,0.078,0.53,0.22l2.25,2.25
		c0.142,0.141,0.22,0.33,0.22,0.53s-0.078,0.389-0.22,0.53l-2.25,2.25C9.391,11.176,9.202,11.254,9.002,11.254z"/>
	<path d="M6.002,11.254c-0.2,0-0.389-0.078-0.53-0.22l-2.25-2.25c-0.142-0.141-0.22-0.33-0.22-0.53s0.078-0.389,0.22-0.53l2.25-2.25
		c0.142-0.142,0.33-0.22,0.53-0.22s0.389,0.078,0.53,0.22c0.142,0.141,0.22,0.33,0.22,0.53s-0.078,0.389-0.22,0.53l-1.72,1.72
		l1.72,1.72c0.142,0.141,0.22,0.33,0.22,0.53s-0.078,0.389-0.22,0.53C6.391,11.176,6.202,11.254,6.002,11.254z"/>
</g>
</svg>
