<?xml version="1.0" encoding="utf-8"?>
<!-- Generator: Adobe Illustrator 22.1.0, SVG Export Plug-In . SVG Version: 6.00 Build 0)  -->
<svg version="1.1" id="Layer_1" xmlns="http://www.w3.org/2000/svg" xmlns:xlink="http://www.w3.org/1999/xlink" x="0px" y="0px"
	 viewBox="0 0 24 24" style="enable-background:new 0 0 24 24;" xml:space="preserve">
<title>file-code-download</title>
<g>
	<path d="M17.238,24.004c-3.722,0-6.75-3.028-6.75-6.75s3.028-6.75,6.75-6.75s6.75,3.028,6.75,6.75S20.96,24.004,17.238,24.004z
		 M17.238,12.004c-2.895,0-5.25,2.355-5.25,5.25s2.355,5.25,5.25,5.25c2.895,0,5.25-2.355,5.25-5.25S20.133,12.004,17.238,12.004z"
		/>
	<path d="M17.238,21.004c-0.087,0-0.174-0.016-0.258-0.046c-0.006-0.002-0.011-0.004-0.017-0.006
		c-0.104-0.042-0.186-0.097-0.256-0.167l-2.25-2.25c-0.292-0.292-0.292-0.768,0-1.061c0.142-0.142,0.33-0.22,0.53-0.22
		s0.389,0.078,0.53,0.22l0.97,0.97v-4.189c0-0.414,0.336-0.75,0.75-0.75s0.75,0.336,0.75,0.75v4.189l0.97-0.97
		c0.142-0.142,0.33-0.22,0.53-0.22s0.389,0.078,0.53,0.22c0.292,0.292,0.292,0.768,0,1.061l-2.25,2.25
		c-0.07,0.07-0.152,0.125-0.245,0.163c-0.008,0.003-0.017,0.007-0.026,0.01C17.416,20.988,17.327,21.004,17.238,21.004z"/>
	<path d="M2.238,21.004c-1.241,0-2.25-1.009-2.25-2.25v-16.5c0-1.241,1.009-2.25,2.25-2.25h10.628c0.601,0,1.166,0.234,1.591,0.658
		l2.873,2.871c0.419,0.419,0.66,0.999,0.66,1.591v3.129c0,0.414-0.336,0.75-0.75,0.75s-0.75-0.336-0.75-0.75V5.125
		c0-0.197-0.08-0.391-0.22-0.53l-2.873-2.871c-0.142-0.142-0.33-0.219-0.53-0.219H2.238c-0.414,0-0.75,0.336-0.75,0.75v16.5
		c0,0.414,0.336,0.75,0.75,0.75h6c0.414,0,0.75,0.336,0.75,0.75s-0.336,0.75-0.75,0.75H2.238z"/>
	<path d="M7.488,10.504c-0.827,0-1.5-0.673-1.5-1.5v-3c0-0.827,0.673-1.5,1.5-1.5h1.5c0.827,0,1.5,0.673,1.5,1.5v3
		c0,0.827-0.673,1.5-1.5,1.5H7.488z M7.488,9.004h1.5v-3h-1.5V9.004z"/>
	<path d="M3.738,10.504c-0.414,0-0.75-0.336-0.75-0.75v-4.5c0-0.414,0.336-0.75,0.75-0.75s0.75,0.336,0.75,0.75v4.5
		C4.488,10.167,4.152,10.504,3.738,10.504z"/>
	<path d="M12.738,10.504c-0.414,0-0.75-0.336-0.75-0.75v-4.5c0-0.414,0.336-0.75,0.75-0.75s0.75,0.336,0.75,0.75v4.5
		C13.488,10.167,13.152,10.504,12.738,10.504z"/>
	<path d="M4.488,18.004c-0.827,0-1.5-0.673-1.5-1.5v-3c0-0.827,0.673-1.5,1.5-1.5h1.5c0.827,0,1.5,0.673,1.5,1.5v3
		c0,0.827-0.673,1.5-1.5,1.5H4.488z M4.488,16.504h1.5v-3h-1.5V16.504z"/>
</g>
</svg>
