<?xml version="1.0" encoding="utf-8"?>
<!-- Generator: Adobe Illustrator 22.1.0, SVG Export Plug-In . SVG Version: 6.00 Build 0)  -->
<svg version="1.1" id="Layer_1" xmlns="http://www.w3.org/2000/svg" xmlns:xlink="http://www.w3.org/1999/xlink" x="0px" y="0px"
	 viewBox="0 0 24 24" style="enable-background:new 0 0 24 24;" xml:space="preserve">
<title>iso</title>
<g>
	<path d="M1.502,4.503c-0.414,0-0.75-0.336-0.75-0.75s0.336-0.75,0.75-0.75h21c0.414,0,0.75,0.336,0.75,0.75s-0.336,0.75-0.75,0.75
		H1.502z"/>
	<path d="M1.502,21.003c-0.414,0-0.75-0.336-0.75-0.75s0.336-0.75,0.75-0.75h21c0.414,0,0.75,0.336,0.75,0.75s-0.336,0.75-0.75,0.75
		H1.502z"/>
	<path d="M6.002,16.503c-0.414,0-0.75-0.336-0.75-0.75v-7.5c0-0.414,0.336-0.75,0.75-0.75s0.75,0.336,0.75,0.75v7.5
		C6.752,16.167,6.416,16.503,6.002,16.503z"/>
	<path d="M9,16.503c-0.414,0-0.75-0.336-0.75-0.75s0.336-0.75,0.75-0.75h1.5c0.414,0,0.75-0.336,0.75-0.75
		c0-0.715-0.434-1.075-1.2-1.65c-0.802-0.602-1.8-1.35-1.8-2.85c0-1.241,1.009-2.25,2.25-2.25H12c0.414,0,0.75,0.336,0.75,0.75
		s-0.336,0.75-0.75,0.75h-1.5c-0.414,0-0.75,0.336-0.75,0.75c0,0.715,0.434,1.075,1.2,1.65c0.802,0.602,1.8,1.35,1.8,2.85
		c0,1.241-1.009,2.25-2.25,2.25H9z"/>
	<path d="M16.5,16.503c-1.241,0-2.25-1.009-2.25-2.25v-4.5c0-1.241,1.009-2.25,2.25-2.25s2.25,1.009,2.25,2.25v4.5
		C18.75,15.494,17.741,16.503,16.5,16.503z M16.5,9.003c-0.414,0-0.75,0.336-0.75,0.75v4.5c0,0.414,0.336,0.75,0.75,0.75
		s0.75-0.336,0.75-0.75v-4.5C17.25,9.339,16.914,9.003,16.5,9.003z"/>
</g>
</svg>
