<?xml version="1.0" encoding="utf-8"?>
<!-- Generator: Adobe Illustrator 22.1.0, SVG Export Plug-In . SVG Version: 6.00 Build 0)  -->
<svg version="1.1" id="Layer_1" xmlns="http://www.w3.org/2000/svg" xmlns:xlink="http://www.w3.org/1999/xlink" x="0px" y="0px"
	 viewBox="0 0 24 24" style="enable-background:new 0 0 24 24;" xml:space="preserve">
<title>java-1</title>
<g>
	<path d="M2.238,24c-1.241,0-2.25-1.009-2.25-2.25V21c0-0.414,0.336-0.75,0.75-0.75s0.75,0.336,0.75,0.75v0.75
		c0,0.414,0.336,0.75,0.75,0.75h19.5c0.414,0,0.75-0.336,0.75-0.75V21c0-0.414,0.336-0.75,0.75-0.75s0.75,0.336,0.75,0.75v0.75
		c0,1.241-1.009,2.25-2.25,2.25H2.238z"/>
	<path d="M23.238,8.25c-0.414,0-0.75-0.336-0.75-0.75V2.254c0-0.414-0.336-0.75-0.75-0.75h-19.5c-0.414,0-0.75,0.336-0.75,0.75V7.5
		c0,0.414-0.336,0.75-0.75,0.75s-0.75-0.336-0.75-0.75V2.254c0-1.241,1.009-2.25,2.25-2.25h19.5c1.241,0,2.25,1.009,2.25,2.25V7.5
		C23.988,7.914,23.652,8.25,23.238,8.25z"/>
	<path d="M1.488,18.75c-0.414,0-0.75-0.336-0.75-0.75s0.336-0.75,0.75-0.75h1.5c0.414,0,0.75-0.336,0.75-0.75v-6
		c0-0.414,0.336-0.75,0.75-0.75s0.75,0.336,0.75,0.75v6c0,1.241-1.009,2.25-2.25,2.25H1.488z"/>
	<path d="M10.488,18.75c-0.414,0-0.75-0.336-0.75-0.75v-2.246h-1.5V18c0,0.414-0.336,0.75-0.75,0.75s-0.75-0.336-0.75-0.75v-6
		c0-1.241,1.009-2.25,2.25-2.25s2.25,1.009,2.25,2.25v6C11.238,18.414,10.902,18.75,10.488,18.75z M9.738,14.254V12
		c0-0.414-0.336-0.75-0.75-0.75s-0.75,0.336-0.75,0.75v2.254H9.738z"/>
	<path d="M22.488,18.75c-0.414,0-0.75-0.336-0.75-0.75v-2.246h-1.5V18c0,0.414-0.336,0.75-0.75,0.75s-0.75-0.336-0.75-0.75v-6
		c0-1.241,1.009-2.25,2.25-2.25s2.25,1.009,2.25,2.25v6C23.238,18.414,22.902,18.75,22.488,18.75z M21.738,14.254V12
		c0-0.414-0.336-0.75-0.75-0.75s-0.75,0.336-0.75,0.75v2.254H21.738z"/>
	<path d="M14.988,18.75c-0.251,0-0.485-0.125-0.624-0.334c-1.063-1.594-1.626-3.449-1.626-5.366V10.5c0-0.414,0.336-0.75,0.75-0.75
		s0.75,0.336,0.75,0.75v2.55c0,1.182,0.258,2.351,0.75,3.419c0.492-1.069,0.75-2.239,0.75-3.423V10.5c0-0.414,0.336-0.75,0.75-0.75
		s0.75,0.336,0.75,0.75v2.546c0,1.918-0.562,3.775-1.626,5.37C15.472,18.625,15.239,18.75,14.988,18.75z"/>
</g>
</svg>
