<?xml version="1.0" encoding="utf-8"?>
<!-- Generator: Adobe Illustrator 22.1.0, SVG Export Plug-In . SVG Version: 6.00 Build 0)  -->
<svg version="1.1" id="Layer_1" xmlns="http://www.w3.org/2000/svg" xmlns:xlink="http://www.w3.org/1999/xlink" x="0px" y="0px"
	 viewBox="0 0 24 24" style="enable-background:new 0 0 24 24;" xml:space="preserve">
<title>js-1</title>
<g>
	<path d="M2.249,24.004c-1.241,0-2.25-1.009-2.25-2.25v-19.5c0-1.241,1.009-2.25,2.25-2.25h19.5c1.241,0,2.25,1.009,2.25,2.25v19.5
		c0,1.241-1.009,2.25-2.25,2.25H2.249z M2.249,1.504c-0.414,0-0.75,0.336-0.75,0.75v19.5c0,0.414,0.336,0.75,0.75,0.75h19.5
		c0.414,0,0.75-0.336,0.75-0.75v-19.5c0-0.414-0.336-0.75-0.75-0.75H2.249z"/>
	<path d="M7.5,18.75c-0.414,0-0.75-0.336-0.75-0.75s0.336-0.75,0.75-0.75H9c0.414,0,0.75-0.336,0.75-0.75v-6
		c0-0.414,0.336-0.75,0.75-0.75s0.75,0.336,0.75,0.75v6c0,1.241-1.009,2.25-2.25,2.25H7.5z"/>
	<path d="M13.5,18.75c-0.414,0-0.75-0.336-0.75-0.75s0.336-0.75,0.75-0.75H15c0.414,0,0.75-0.336,0.75-0.75
		c0-0.715-0.434-1.075-1.2-1.65c-0.802-0.602-1.8-1.35-1.8-2.85c0-1.241,1.009-2.25,2.25-2.25h1.5c0.414,0,0.75,0.336,0.75,0.75
		s-0.336,0.75-0.75,0.75H15c-0.414,0-0.75,0.336-0.75,0.75c0,0.715,0.434,1.075,1.2,1.65c0.802,0.602,1.8,1.35,1.8,2.85
		c0,1.241-1.009,2.25-2.25,2.25H13.5z"/>
</g>
</svg>
