<?xml version="1.0" encoding="utf-8"?>
<!-- Generator: Adobe Illustrator 22.1.0, SVG Export Plug-In . SVG Version: 6.00 Build 0)  -->
<svg version="1.1" id="Layer_1" xmlns="http://www.w3.org/2000/svg" xmlns:xlink="http://www.w3.org/1999/xlink" x="0px" y="0px"
	 viewBox="0 0 24 24" style="enable-background:new 0 0 24 24;" xml:space="preserve">
<title>pl-1</title>
<g>
	<path d="M1.499,4.504c-0.414,0-0.75-0.336-0.75-0.75s0.336-0.75,0.75-0.75h21c0.414,0,0.75,0.336,0.75,0.75s-0.336,0.75-0.75,0.75
		H1.499z"/>
	<path d="M1.499,21.004c-0.414,0-0.75-0.336-0.75-0.75s0.336-0.75,0.75-0.75h21c0.414,0,0.75,0.336,0.75,0.75s-0.336,0.75-0.75,0.75
		H1.499z"/>
	<path d="M14.999,16.504c-0.414,0-0.75-0.336-0.75-0.75v-3.133c-0.885-0.314-1.499-1.162-1.499-2.121V8.254
		c0-0.414,0.336-0.75,0.75-0.75s0.75,0.336,0.75,0.75V10.5c0,0.414,0.336,0.75,0.75,0.75s0.75-0.336,0.75-0.75V8.254
		c0-0.414,0.336-0.75,0.75-0.75s0.75,0.336,0.75,0.75V10.5c0,0.96-0.615,1.808-1.501,2.122v3.132
		C15.749,16.167,15.413,16.504,14.999,16.504z"/>
	<path d="M7.499,16.504c-0.414,0-0.75-0.336-0.75-0.75v-7.5c0-0.414,0.336-0.75,0.75-0.75H8.25c1.654,0,3,1.346,3,3s-1.346,3-3,3
		H8.249v2.25C8.249,16.167,7.913,16.504,7.499,16.504z M8.25,12.004c0.827,0,1.5-0.673,1.5-1.5s-0.673-1.5-1.5-1.5H8.249
		L8.25,12.004L8.25,12.004z"/>
</g>
</svg>
