<?xml version="1.0" encoding="utf-8"?>
<!-- Generator: Adobe Illustrator 22.1.0, SVG Export Plug-In . SVG Version: 6.00 Build 0)  -->
<svg version="1.1" id="Layer_1" xmlns="http://www.w3.org/2000/svg" xmlns:xlink="http://www.w3.org/1999/xlink" x="0px" y="0px"
	 viewBox="0 0 24 24" style="enable-background:new 0 0 24 24;" xml:space="preserve">
<title>pl</title>
<g>
	<path d="M1.491,4.504c-0.414,0-0.75-0.336-0.75-0.75s0.336-0.75,0.75-0.75h21c0.414,0,0.75,0.336,0.75,0.75s-0.336,0.75-0.75,0.75
		H1.491z"/>
	<path d="M1.491,21.004c-0.414,0-0.75-0.336-0.75-0.75s0.336-0.75,0.75-0.75h21c0.414,0,0.75,0.336,0.75,0.75s-0.336,0.75-0.75,0.75
		H1.491z"/>
	<path d="M7.491,16.504c-0.414,0-0.75-0.336-0.75-0.75v-7.5c0-0.414,0.336-0.75,0.75-0.75h0.75c1.654,0,3,1.346,3,3s-1.346,3-3,3
		v2.25C8.241,16.167,7.905,16.504,7.491,16.504z M8.241,12.004c0.827,0,1.5-0.673,1.5-1.5s-0.673-1.5-1.5-1.5V12.004z"/>
	<path d="M14.991,16.504c-1.241,0-2.25-1.009-2.25-2.25v-6c0-0.414,0.336-0.75,0.75-0.75s0.75,0.336,0.75,0.75v6
		c0,0.414,0.336,0.75,0.75,0.75h1.5c0.414,0,0.75,0.336,0.75,0.75s-0.336,0.75-0.75,0.75H14.991z"/>
</g>
</svg>
