<?xml version="1.0" encoding="utf-8"?>
<!-- Generator: Adobe Illustrator 22.1.0, SVG Export Plug-In . SVG Version: 6.00 Build 0)  -->
<svg version="1.1" id="Layer_1" xmlns="http://www.w3.org/2000/svg" xmlns:xlink="http://www.w3.org/1999/xlink" x="0px" y="0px"
	 viewBox="0 0 24 24" style="enable-background:new 0 0 24 24;" xml:space="preserve">
<title>rb-1</title>
<g>
	<path d="M2.252,24.003c-1.241,0-2.25-1.009-2.25-2.25v-19.5c0-1.241,1.009-2.25,2.25-2.25h19.5c1.241,0,2.25,1.009,2.25,2.25v19.5
		c0,1.241-1.009,2.25-2.25,2.25H2.252z M2.252,1.503c-0.414,0-0.75,0.336-0.75,0.75v19.5c0,0.414,0.336,0.75,0.75,0.75h19.5
		c0.414,0,0.75-0.336,0.75-0.75v-19.5c0-0.414-0.336-0.75-0.75-0.75H2.252z"/>
	<path d="M10.502,18.754c-0.262,0-0.509-0.14-0.643-0.364l-1.607-2.678v2.292c0,0.414-0.336,0.75-0.75,0.75s-0.75-0.336-0.75-0.75
		v-3.716C6.751,14.274,6.75,14.26,6.75,14.25c0-0.013,0.001-0.027,0.002-0.04v-3.672C6.751,10.524,6.75,10.51,6.75,10.5
		c0-0.414,0.336-0.75,0.75-0.75h1.127c1.447,0,2.625,1.178,2.625,2.625c0,1.135-0.729,2.12-1.765,2.479l1.658,2.764
		c0.103,0.172,0.133,0.373,0.084,0.568s-0.17,0.358-0.342,0.461C10.772,18.717,10.638,18.754,10.502,18.754z M8.627,13.5
		c0.62,0,1.125-0.505,1.125-1.125S9.247,11.25,8.627,11.25H8.252v2.25H8.627z"/>
	<path d="M13.502,18.754c-0.303,0-0.574-0.18-0.691-0.46c-0.04-0.09-0.061-0.191-0.061-0.294c0-0.011,0.001-0.027,0.002-0.041
		l0-3.667c-0.001-0.013-0.002-0.041-0.002-0.042c0-0.014,0.001-0.029,0.002-0.042l0-3.67c-0.001-0.013-0.002-0.027-0.002-0.038
		c0-0.414,0.336-0.75,0.75-0.75H15c1.241,0,2.25,1.009,2.25,2.25v0.75c0,0.555-0.211,1.092-0.579,1.502
		c0.368,0.41,0.579,0.947,0.579,1.502v0.75c-0.003,1.239-1.012,2.246-2.25,2.246h-1.437C13.544,18.752,13.523,18.754,13.502,18.754z
		 M15,17.25c0.412,0,0.749-0.336,0.75-0.748v-0.748c0-0.414-0.336-0.75-0.75-0.75h-0.748v2.246H15z M15,13.5
		c0.414,0,0.75-0.336,0.75-0.75V12c0-0.414-0.336-0.75-0.75-0.75h-0.748v2.25H15z"/>
</g>
</svg>
