<?xml version="1.0" encoding="utf-8"?>
<!-- Generator: Adobe Illustrator 22.1.0, SVG Export Plug-In . SVG Version: 6.00 Build 0)  -->
<svg version="1.1" id="Layer_1" xmlns="http://www.w3.org/2000/svg" xmlns:xlink="http://www.w3.org/1999/xlink" x="0px" y="0px"
	 viewBox="0 0 24 24" style="enable-background:new 0 0 24 24;" xml:space="preserve">
<title>rb</title>
<g>
	<path d="M1.502,4.503c-0.414,0-0.75-0.336-0.75-0.75s0.336-0.75,0.75-0.75h21c0.414,0,0.75,0.336,0.75,0.75s-0.336,0.75-0.75,0.75
		H1.502z"/>
	<path d="M1.502,21.003c-0.414,0-0.75-0.336-0.75-0.75s0.336-0.75,0.75-0.75h21c0.414,0,0.75,0.336,0.75,0.75s-0.336,0.75-0.75,0.75
		H1.502z"/>
	<path d="M10.502,16.503c-0.262,0-0.509-0.14-0.643-0.364l-1.607-2.678v2.292c0,0.414-0.336,0.75-0.75,0.75s-0.75-0.336-0.75-0.75
		v-3.712c-0.001-0.014-0.002-0.028-0.002-0.038c0-0.014,0.001-0.027,0.002-0.04V8.291C6.751,8.277,6.75,8.263,6.75,8.253
		c0-0.414,0.336-0.75,0.75-0.75h1.127c1.447,0,2.625,1.178,2.625,2.625c0,1.134-0.728,2.119-1.763,2.478l1.656,2.761
		c0.103,0.172,0.133,0.373,0.084,0.568s-0.17,0.358-0.342,0.461C10.772,16.466,10.638,16.503,10.502,16.503z M8.627,11.253
		c0.62,0,1.125-0.505,1.125-1.125S9.247,9.003,8.627,9.003H8.252v2.25H8.627z"/>
	<path d="M13.502,16.503c-0.251,0-0.484-0.125-0.624-0.334c-0.083-0.122-0.128-0.268-0.128-0.419c0-0.011,0.001-0.027,0.002-0.041
		l0-3.671C12.751,12.024,12.75,12.01,12.75,12c0-0.014,0.001-0.029,0.002-0.043l0-3.667c-0.001-0.013-0.002-0.027-0.002-0.038
		c0-0.414,0.336-0.75,0.75-0.75H15c1.241,0,2.25,1.009,2.25,2.25v0.75c-0.001,0.562-0.207,1.089-0.576,1.497
		c0.37,0.409,0.576,0.937,0.576,1.5v0.75c0,1.241-1.009,2.25-2.25,2.25h-1.448C13.54,16.501,13.521,16.503,13.502,16.503z M15,15
		c0.414,0,0.75-0.336,0.75-0.75V13.5c0-0.414-0.336-0.75-0.75-0.75h-0.748L15,15z M15,11.25c0.413,0,0.749-0.336,0.75-0.749V9.753
		c0-0.414-0.336-0.75-0.75-0.75h-0.748v2.247H15z"/>
</g>
</svg>
