<?xml version="1.0" encoding="utf-8"?>
<!-- Generator: Adobe Illustrator 22.1.0, SVG Export Plug-In . SVG Version: 6.00 Build 0)  -->
<svg version="1.1" id="Layer_1" xmlns="http://www.w3.org/2000/svg" xmlns:xlink="http://www.w3.org/1999/xlink" x="0px" y="0px"
	 viewBox="0 0 24 24" style="enable-background:new 0 0 24 24;" xml:space="preserve">
<title>sql-1</title>
<g>
	<path d="M2.25,24.004c-1.241,0-2.25-1.009-2.25-2.25v-19.5c0-1.241,1.009-2.25,2.25-2.25h19.5c1.241,0,2.25,1.009,2.25,2.25v19.5
		c0,1.241-1.009,2.25-2.25,2.25H2.25z M2.25,1.504c-0.414,0-0.75,0.336-0.75,0.75v19.5c0,0.414,0.336,0.75,0.75,0.75h19.5
		c0.414,0,0.75-0.336,0.75-0.75v-19.5c0-0.414-0.336-0.75-0.75-0.75H2.25z"/>
	<path d="M18,18.75c-1.241,0-2.25-1.009-2.25-2.25v-6c0-0.414,0.336-0.75,0.75-0.75s0.75,0.336,0.75,0.75v6
		c0,0.414,0.336,0.75,0.75,0.75h1.5c0.414,0,0.75,0.336,0.75,0.75s-0.336,0.75-0.75,0.75H18z"/>
	<path d="M4.5,18.75c-0.414,0-0.75-0.336-0.75-0.75s0.336-0.75,0.75-0.75H6c0.414,0,0.75-0.336,0.75-0.75
		c0-0.715-0.434-1.075-1.2-1.65c-0.802-0.602-1.8-1.35-1.8-2.85c0-1.241,1.009-2.25,2.25-2.25h1.5c0.414,0,0.75,0.336,0.75,0.75
		s-0.336,0.75-0.75,0.75H6c-0.414,0-0.75,0.336-0.75,0.75c0,0.715,0.434,1.075,1.2,1.65c0.802,0.602,1.8,1.35,1.8,2.85
		c0,1.241-1.009,2.25-2.25,2.25H4.5z"/>
	<path d="M13.5,20.254c-0.2,0-0.389-0.078-0.53-0.22l-1.311-1.311C10.578,18.556,9.75,17.606,9.75,16.5V12
		c0-1.241,1.009-2.25,2.25-2.25c1.241,0,2.25,1.009,2.25,2.25v4.5c0,0.716-0.34,1.377-0.897,1.796l0.677,0.677
		c0.142,0.142,0.22,0.33,0.22,0.53s-0.078,0.389-0.22,0.53S13.7,20.254,13.5,20.254z M12,11.25c-0.414,0-0.75,0.336-0.75,0.75v4.5
		c0,0.414,0.336,0.75,0.75,0.75s0.75-0.336,0.75-0.75V12C12.75,11.586,12.414,11.25,12,11.25z"/>
</g>
</svg>
