<svg xmlns="http://www.w3.org/2000/svg" viewBox="0 0 24 24"><defs><style>.a{fill:none;stroke:currentColor;stroke-linecap:round;stroke-linejoin:round;}</style></defs><title>award-oscar</title><path class="a" d="M18,22.5a1.485,1.485,0,0,0-.948-1.316l-4.1-1.368a3.509,3.509,0,0,0-1.9,0l-4.1,1.368A1.485,1.485,0,0,0,6,22.5a1,1,0,0,0,1,1H17A1,1,0,0,0,18,22.5Z"/><path class="a" d="M16,20.833V17.5a1,1,0,0,0-1-1H9a1,1,0,0,0-1,1v3.333"/><path class="a" d="M15.7,7.412a1,1,0,0,0-.615-1.259,7.86,7.86,0,0,0-6.149.008,1,1,0,0,0-.624,1.262L9,10.92h.923l.888,4.6a1.212,1.212,0,0,0,2.38,0l.888-4.6H15Z"/><path class="a" d="M10,1.5a1,1,0,0,1,1-1h2a1,1,0,0,1,1,1v1a2,2,0,0,1-4,0Z"/></svg>