<svg xmlns="http://www.w3.org/2000/svg" viewBox="0 0 24 24"><defs><style>.a{fill:none;stroke:currentColor;stroke-linecap:round;stroke-linejoin:round;}</style></defs><title>award-ribbon-star-1</title><path class="a" d="M4.238,14.416,1.067,19.891a.5.5,0,0,0,.516.744l2.8-.474.975,2.679a.5.5,0,0,0,.9.085l2.723-4.607"/><path class="a" d="M19.762,14.416l3.171,5.475a.5.5,0,0,1-.516.744l-2.8-.474-.975,2.679a.5.5,0,0,1-.9.085l-2.723-4.607"/><circle class="a" cx="11.984" cy="9.83" r="9"/><path class="a" d="M12.572,5.189l1.282,2.644h2.5A.613.613,0,0,1,16.781,8.9l-2.166,2.135,1.2,2.761a.654.654,0,0,1-.931.818l-2.9-1.634-2.9,1.634a.654.654,0,0,1-.931-.818l1.2-2.761L7.187,8.9a.612.612,0,0,1,.429-1.069h2.5L11.4,5.189A.661.661,0,0,1,12.572,5.189Z"/></svg>