<?xml version="1.0" encoding="utf-8"?>
<!-- Generator: Adobe Illustrator 22.1.0, SVG Export Plug-In . SVG Version: 6.00 Build 0)  -->
<svg version="1.1" id="Layer_1" xmlns="http://www.w3.org/2000/svg" xmlns:xlink="http://www.w3.org/1999/xlink" x="0px" y="0px"
	 viewBox="0 0 24 24" style="enable-background:new 0 0 24 24;" xml:space="preserve">
<title>filter-1</title>
<g>
	<path d="M10.475,23.649c-0.827,0-1.501-0.673-1.501-1.5V12.87C4.041,11.591,0.37,7.208,0.004,2.108C0.002,2.071,0,2.038,0,2.005
		c0-0.4,0.156-0.777,0.439-1.061c0.283-0.283,0.66-0.44,1.061-0.44h20.952c0.033,0,0.067,0.001,0.1,0.003
		c0.398,0.026,0.763,0.207,1.027,0.508c0.264,0.301,0.396,0.687,0.37,1.088c0,0.003,0,0.007-0.001,0.01
		c-0.369,5.099-4.041,9.481-8.974,10.757v6.779c0.001,0.447-0.197,0.867-0.541,1.153l-2.999,2.499
		C11.165,23.525,10.825,23.649,10.475,23.649C10.475,23.649,10.475,23.649,10.475,23.649z M1.501,2.004
		c0.347,4.679,3.787,8.598,8.373,9.535c0.348,0.071,0.6,0.38,0.6,0.735v9.875l3-2.5v-7.375c0-0.355,0.252-0.664,0.6-0.735
		c4.596-0.937,8.041-4.859,8.378-9.537L1.501,2.004z"/>
</g>
</svg>
