<?xml version="1.0" encoding="utf-8"?>
<!-- Generator: Adobe Illustrator 22.1.0, SVG Export Plug-In . SVG Version: 6.00 Build 0)  -->
<svg version="1.1" id="Layer_1" xmlns="http://www.w3.org/2000/svg" xmlns:xlink="http://www.w3.org/1999/xlink" x="0px" y="0px"
	 viewBox="0 0 24 24" style="enable-background:new 0 0 24 24;" xml:space="preserve">
<title>filter</title>
<g>
	<path d="M12,24c-1.654,0-3-1.346-3-3v-5.695C4.572,13.989,1.503,9.896,1.5,5.25C1.5,2.257,6.014,0,12,0
		c5.986,0,10.5,2.257,10.5,5.25c-0.002,4.646-3.072,8.739-7.5,10.055V21C15,22.654,13.654,24,12,24z M3.585,8.451
		c1.044,2.77,3.386,4.849,6.338,5.548c0.34,0.081,0.577,0.381,0.577,0.73V21c0,0.827,0.673,1.5,1.5,1.5s1.5-0.673,1.5-1.5v-6.271
		c0-0.349,0.237-0.649,0.577-0.73c2.953-0.7,5.295-2.778,6.339-5.549C18.482,9.733,15.401,10.5,12,10.5
		C8.599,10.5,5.517,9.733,3.585,8.451z M12,1.5c-4.794,0-9,1.752-9,3.75C3,7.248,7.206,9,12,9s9-1.752,9-3.75
		C21,3.252,16.794,1.5,12,1.5z"/>
</g>
</svg>
