<?xml version="1.0" encoding="utf-8"?>
<!-- Generator: Adobe Illustrator 22.1.0, SVG Export Plug-In . SVG Version: 6.00 Build 0)  -->
<svg version="1.1" id="Layer_1" xmlns="http://www.w3.org/2000/svg" xmlns:xlink="http://www.w3.org/1999/xlink" x="0px" y="0px"
	 viewBox="0 0 24 24" style="enable-background:new 0 0 24 24;" xml:space="preserve">
<title>hierarchy-5</title>
<g>
	<path d="M19.75,23.998c-1.654,0-3-1.346-3-3c0-1.37,0.947-2.564,2.25-2.902v-3.848c0-0.414-0.336-0.75-0.75-0.75H13v4.598
		c1.303,0.338,2.25,1.532,2.25,2.902c0,1.654-1.346,3-3,3c-1.654,0-3-1.346-3-3c0-1.37,0.947-2.564,2.25-2.902v-4.598H6.25
		c-0.414,0-0.75,0.336-0.75,0.75v3.848c1.303,0.338,2.25,1.532,2.25,2.902c0,1.654-1.346,3-3,3s-3-1.346-3-3
		c0-1.37,0.947-2.564,2.25-2.902v-3.848c0-1.241,1.009-2.25,2.25-2.25h5.25v-6h-6c-0.827,0-1.5-0.673-1.5-1.5v-3
		c0-0.827,0.673-1.5,1.5-1.5H19c0.827,0,1.5,0.673,1.5,1.5v3c0,0.827-0.673,1.5-1.5,1.5h-6v6h5.25c1.241,0,2.25,1.009,2.25,2.25
		v3.848c1.303,0.338,2.25,1.532,2.25,2.902C22.75,22.652,21.404,23.998,19.75,23.998z M19.75,19.498c-0.827,0-1.5,0.673-1.5,1.5
		s0.673,1.5,1.5,1.5s1.5-0.673,1.5-1.5S20.577,19.498,19.75,19.498z M12.25,19.498c-0.827,0-1.5,0.673-1.5,1.5s0.673,1.5,1.5,1.5
		s1.5-0.673,1.5-1.5S13.077,19.498,12.25,19.498z M4.75,19.498c-0.827,0-1.5,0.673-1.5,1.5s0.673,1.5,1.5,1.5s1.5-0.673,1.5-1.5
		S5.577,19.498,4.75,19.498z M5.5,4.498H19v-3H5.5V4.498z"/>
</g>
</svg>
