<?xml version="1.0" encoding="utf-8"?>
<!-- Generator: Adobe Illustrator 22.1.0, SVG Export Plug-In . SVG Version: 6.00 Build 0)  -->
<svg version="1.1" id="Layer_1" xmlns="http://www.w3.org/2000/svg" xmlns:xlink="http://www.w3.org/1999/xlink" x="0px" y="0px"
	 viewBox="0 0 24 24" style="enable-background:new 0 0 24 24;" xml:space="preserve">
<title>hierarchy-6</title>
<g>
	<path d="M17.25,23.998c-1.241,0-2.25-1.009-2.25-2.25v-4.5c0-1.241,1.009-2.25,2.25-2.25h1.5v-0.75c0-0.414-0.336-0.75-0.75-0.75H6
		c-0.414,0-0.75,0.336-0.75,0.75v0.75h1.5c1.241,0,2.25,1.009,2.25,2.25v4.5c0,1.241-1.009,2.25-2.25,2.25h-4.5
		c-1.241,0-2.25-1.009-2.25-2.25v-4.5c0-1.241,1.009-2.25,2.25-2.25h1.5v-0.75c0-1.241,1.009-2.25,2.25-2.25h5.25v-3h-1.5
		c-1.241,0-2.25-1.009-2.25-2.25v-4.5c0-1.241,1.009-2.25,2.25-2.25h4.5c1.241,0,2.25,1.009,2.25,2.25v4.5
		c0,1.241-1.009,2.25-2.25,2.25h-1.5v3H18c1.241,0,2.25,1.009,2.25,2.25v0.75h1.5c1.241,0,2.25,1.009,2.25,2.25v4.5
		c0,1.241-1.009,2.25-2.25,2.25H17.25z M17.25,16.498c-0.414,0-0.75,0.336-0.75,0.75v4.5c0,0.414,0.336,0.75,0.75,0.75h4.5
		c0.414,0,0.75-0.336,0.75-0.75v-4.5c0-0.414-0.336-0.75-0.75-0.75H17.25z M2.25,16.498c-0.414,0-0.75,0.336-0.75,0.75v4.5
		c0,0.414,0.336,0.75,0.75,0.75h4.5c0.414,0,0.75-0.336,0.75-0.75v-4.5c0-0.414-0.336-0.75-0.75-0.75H2.25z M9.75,1.498
		C9.336,1.498,9,1.834,9,2.248v4.5c0,0.414,0.336,0.75,0.75,0.75h4.5c0.414,0,0.75-0.336,0.75-0.75v-4.5
		c0-0.414-0.336-0.75-0.75-0.75H9.75z"/>
</g>
</svg>
