<?xml version="1.0" encoding="utf-8"?>
<!-- Generator: Adobe Illustrator 22.1.0, SVG Export Plug-In . SVG Version: 6.00 Build 0)  -->
<svg version="1.1" id="Light" xmlns="http://www.w3.org/2000/svg" xmlns:xlink="http://www.w3.org/1999/xlink" x="0px" y="0px"
	 viewBox="0 0 24 24" style="enable-background:new 0 0 24 24;" xml:space="preserve">
<g>
	<title>single-woman-actions-warning</title>
	<circle cx="17.499" cy="20.75" r="0.75"/>
	<path d="M17.499,19c-0.276,0-0.5-0.224-0.5-0.5v-3c0-0.276,0.224-0.5,0.5-0.5s0.5,0.224,0.5,0.5v3
		C17.999,18.776,17.775,19,17.499,19z"/>
	<path d="M12.443,23.997c-0.506,0-0.966-0.256-1.232-0.684c-0.263-0.427-0.282-0.968-0.049-1.411l5.056-9.635
		c0.137-0.257,0.344-0.464,0.598-0.599c0.21-0.112,0.445-0.172,0.681-0.172c0.143,0,0.285,0.021,0.423,0.063
		c0.368,0.112,0.671,0.359,0.854,0.698c0.003,0.005,5.062,9.645,5.062,9.645c0.233,0.443,0.214,0.982-0.048,1.409
		c-0.267,0.43-0.727,0.686-1.231,0.686H12.443z M17.498,12.497c-0.073,0-0.145,0.018-0.211,0.053
		c-0.079,0.042-0.143,0.106-0.186,0.185l-5.054,9.632c-0.069,0.132-0.064,0.293,0.014,0.419c0.082,0.131,0.224,0.21,0.38,0.21
		h10.114c0.157,0,0.3-0.079,0.382-0.212c0.077-0.125,0.083-0.286,0.013-0.417l-5.056-9.635c-0.056-0.104-0.15-0.181-0.265-0.216
		C17.587,12.504,17.542,12.497,17.498,12.497z"/>
	<path d="M5.999,8c-1.958,0-3.615-1.403-3.94-3.336C2.056,4.66,2.047,4.627,2.046,4.584c0-0.001,0-0.001,0-0.002
		C2.014,4.37,1.999,4.179,1.999,4c0-2.206,1.794-4,4-4s4,1.794,4,4c0,0.179-0.015,0.37-0.047,0.582
		c-0.001,0.041-0.01,0.072-0.014,0.085C9.621,6.592,7.963,8,5.999,8z M3.183,5.025C3.611,6.201,4.73,7,5.999,7
		c1.27,0,2.39-0.8,2.817-1.978C7.759,4.88,6.775,4.417,5.999,3.694C5.224,4.418,4.241,4.882,3.183,5.025z M5.999,1
		c-1.654,0-3,1.346-3,3c0,0.013,0,0.026,0,0.04c1.013-0.126,1.957-0.625,2.621-1.393c0.095-0.11,0.233-0.173,0.378-0.173
		c0.145,0,0.283,0.063,0.378,0.173c0.665,0.767,1.609,1.265,2.622,1.39c0-0.012,0-0.025,0-0.037C8.999,2.346,7.653,1,5.999,1z"/>
	<path d="M4.488,24c-0.235,0-0.441-0.167-0.489-0.397L3.029,19h-2.53c-0.155,0-0.304-0.073-0.398-0.197
		c-0.094-0.123-0.126-0.286-0.085-0.436l1.805-6.582c0.463-1.929,2.181-3.281,4.176-3.281c0.337,0,0.675,0.04,1.005,0.12
		c1.58,0.379,2.798,1.597,3.177,3.177l1.219,4.446c0.073,0.266-0.084,0.542-0.35,0.615c-0.045,0.012-0.088,0.017-0.131,0.017l0,0
		c-0.225,0-0.424-0.151-0.483-0.367L9.212,12.05c-0.295-1.225-1.23-2.162-2.442-2.454C6.517,9.536,6.258,9.505,6,9.505
		c-1.532,0-2.852,1.04-3.21,2.53L1.155,18h2.28c0.235,0,0.441,0.167,0.489,0.397L4.894,23h2.189l0.97-4.603
		C8.101,18.167,8.307,18,8.542,18h0.892c0.276,0,0.5,0.224,0.5,0.5S9.71,19,9.434,19H8.948l-0.97,4.603
		C7.929,23.833,7.723,24,7.488,24H4.488z"/>
</g>
</svg>
