<?xml version="1.0" encoding="utf-8"?>
<!-- Generator: Adobe Illustrator 22.1.0, SVG Export Plug-In . SVG Version: 6.00 Build 0)  -->
<svg version="1.1" id="Light" xmlns="http://www.w3.org/2000/svg" xmlns:xlink="http://www.w3.org/1999/xlink" x="0px" y="0px"
	 viewBox="0 0 24 24" style="enable-background:new 0 0 24 24;" xml:space="preserve">
<g>
	<title>single-woman-actions-shield</title>
	<path d="M17.5,20c-0.276,0-0.5-0.224-0.5-0.5V17h-2.5c-0.276,0-0.5-0.224-0.5-0.5s0.224-0.5,0.5-0.5H17v-2.5
		c0-0.276,0.224-0.5,0.5-0.5s0.5,0.224,0.5,0.5V16h2.5c0.276,0,0.5,0.224,0.5,0.5S20.776,17,20.5,17H18v2.5
		C18,19.776,17.776,20,17.5,20z"/>
	<path d="M17.482,24.002c-0.253,0-0.502-0.046-0.74-0.138l-0.551-0.209C13.135,22.49,11,19.692,11,16.849v-3.393
		c0-0.615,0.364-1.171,0.929-1.417c1.789-0.676,3.651-1.025,5.545-1.042c1.914,0.017,3.788,0.364,5.573,1.032
		c0.584,0.253,0.953,0.811,0.953,1.427v3.396c0,2.835-2.152,5.633-5.234,6.805l-0.553,0.21
		C17.978,23.957,17.733,24.002,17.482,24.002z M17.476,11.998c-1.771,0.015-3.511,0.341-5.171,0.968
		C12.127,13.044,12,13.243,12,13.456v3.394c0,2.717,2.287,5.01,4.546,5.871l0.552,0.21c0.124,0.048,0.253,0.072,0.384,0.072
		c0.128,0,0.255-0.023,0.375-0.069l0.553-0.21C20.691,21.855,23,19.561,23,16.852v-3.396c0-0.217-0.128-0.413-0.327-0.5
		C21.017,12.339,19.264,12.015,17.476,11.998z"/>
	<path d="M6,8C4.042,8,2.385,6.597,2.06,4.665C2.058,4.661,2.048,4.626,2.047,4.582v0C2.016,4.37,2,4.179,2,4c0-2.206,1.794-4,4-4
		s4,1.794,4,4c0,0.181-0.015,0.367-0.047,0.583c-0.001,0.041-0.01,0.071-0.014,0.084C9.622,6.592,7.964,8,6,8z M3.185,5.025
		C3.612,6.201,4.731,7,6,7c1.27,0,2.39-0.8,2.817-1.978C7.76,4.881,6.777,4.417,6.001,3.694C5.225,4.418,4.242,4.882,3.185,5.025z
		 M6,1C4.346,1,3,2.346,3,4c0,0.013,0,0.026,0,0.04c1.013-0.126,1.957-0.625,2.621-1.393C5.717,2.537,5.855,2.474,6,2.474
		c0.145,0,0.283,0.063,0.378,0.173C7.043,3.414,7.988,3.912,9,4.037C9,4.025,9,4.013,9,4C9,2.346,7.654,1,6,1z"/>
	<path d="M4.489,24C4.254,24,4.049,23.833,4,23.603L3.03,19H0.5c-0.155,0-0.304-0.073-0.398-0.197
		c-0.094-0.123-0.126-0.286-0.085-0.436l1.805-6.582c0.265-1.104,0.951-2.047,1.93-2.647c0.678-0.416,1.453-0.635,2.24-0.635
		c0.338,0,0.678,0.041,1.011,0.12c1.581,0.379,2.798,1.597,3.177,3.177l0.156,0.571c0.073,0.266-0.085,0.542-0.35,0.614
		c-0.045,0.012-0.088,0.017-0.131,0.017l0,0c-0.225,0-0.424-0.151-0.483-0.368l-0.16-0.586c-0.294-1.225-1.229-2.162-2.442-2.454
		C6.515,9.535,6.253,9.504,5.994,9.504c-0.603,0-1.197,0.169-1.718,0.488c-0.751,0.461-1.279,1.186-1.485,2.043L1.156,18h2.28
		c0.235,0,0.441,0.167,0.489,0.397L4.895,23h2.189l0.97-4.603C8.103,18.167,8.308,18,8.543,18h0.892c0.276,0,0.5,0.224,0.5,0.5
		S9.711,19,9.435,19H8.949l-0.97,4.603C7.93,23.833,7.724,24,7.489,24H4.489z"/>
</g>
</svg>
