<?xml version="1.0" encoding="utf-8"?>
<!-- Generator: Adobe Illustrator 22.1.0, SVG Export Plug-In . SVG Version: 6.00 Build 0)  -->
<svg version="1.1" id="Light" xmlns="http://www.w3.org/2000/svg" xmlns:xlink="http://www.w3.org/1999/xlink" x="0px" y="0px"
	 viewBox="0 0 24 24" style="enable-background:new 0 0 24 24;" xml:space="preserve">
<g>
	<title>single-woman-actions-image</title>
	<path d="M12.5,24c-0.827,0-1.5-0.673-1.5-1.5v-10c0-0.827,0.673-1.5,1.5-1.5h10c0.827,0,1.5,0.673,1.5,1.5v10
		c0,0.827-0.673,1.5-1.5,1.5H12.5z M22.5,23c0.276,0,0.5-0.224,0.5-0.5v-1.099l-2.307-3.461c-0.038-0.057-0.093-0.094-0.159-0.107
		c-0.016-0.003-0.033-0.005-0.049-0.005c-0.049,0-0.097,0.015-0.139,0.042c-0.025,0.017-0.047,0.039-0.065,0.064l-2.001,2.852
		c-0.078,0.113-0.202,0.188-0.338,0.208C17.918,20.999,17.894,21,17.87,21c-0.113,0-0.224-0.039-0.312-0.11l-1.236-0.989
		c-0.045-0.036-0.098-0.055-0.155-0.055c-0.01,0-0.02,0-0.029,0.002c-0.066,0.007-0.126,0.04-0.167,0.093L13.934,23H22.5z M12.5,12
		c-0.276,0-0.5,0.224-0.5,0.5v10c0,0.276,0.224,0.5,0.5,0.5h0.232l2.393-3.596c0.021-0.03,0.041-0.059,0.063-0.086
		c0.208-0.261,0.506-0.426,0.838-0.463c0.047-0.005,0.096-0.008,0.143-0.008c0.284,0,0.552,0.094,0.777,0.274l0.821,0.656
		l1.694-2.415c0.088-0.127,0.199-0.236,0.33-0.323c0.207-0.137,0.446-0.21,0.692-0.21c0.083,0,0.166,0.008,0.247,0.024
		c0.327,0.065,0.61,0.255,0.795,0.533L23,19.599V12.5c0-0.276-0.224-0.5-0.5-0.5H12.5z"/>
	<path d="M15.625,17.5c-1.103,0-2-0.897-2-2s0.897-2,2-2s2,0.897,2,2S16.728,17.5,15.625,17.5z M15.625,14.5c-0.552,0-1,0.448-1,1
		s0.448,1,1,1c0.552,0,1-0.448,1-1S16.177,14.5,15.625,14.5z"/>
	<path d="M6,8C4.042,8,2.385,6.597,2.06,4.664C2.058,4.66,2.048,4.626,2.047,4.582v0C2.016,4.37,2,4.179,2,4c0-2.206,1.794-4,4-4
		s4,1.794,4,4c0,0.181-0.015,0.367-0.047,0.583c-0.001,0.041-0.01,0.071-0.014,0.084C9.622,6.592,7.964,8,6,8z M3.185,5.025
		C3.612,6.201,4.731,7,6,7c1.27,0,2.39-0.8,2.817-1.978C7.76,4.88,6.777,4.417,6.001,3.694C5.225,4.418,4.242,4.882,3.185,5.025z
		 M6,1C4.346,1,3,2.346,3,4c0,0.013,0,0.026,0,0.04c1.013-0.126,1.957-0.625,2.621-1.393C5.717,2.537,5.855,2.474,6,2.474
		c0.145,0,0.283,0.063,0.378,0.173C7.043,3.414,7.988,3.912,9,4.037C9,4.025,9,4.012,9,4C9,2.346,7.654,1,6,1z"/>
	<path d="M4.489,24C4.254,24,4.049,23.833,4,23.603L3.03,19H0.5c-0.155,0-0.304-0.073-0.398-0.197
		c-0.094-0.123-0.126-0.286-0.085-0.436l1.805-6.582C2.285,9.856,4.004,8.503,6,8.503c0.336,0,0.673,0.04,1.002,0.119
		c1.339,0.321,2.451,1.273,2.975,2.547c0.051,0.124,0.05,0.259-0.001,0.383s-0.148,0.219-0.271,0.27
		c-0.06,0.025-0.125,0.038-0.19,0.038l0,0c-0.204,0-0.385-0.122-0.462-0.31C8.651,10.571,7.797,9.84,6.769,9.594
		C6.517,9.533,6.258,9.503,6.001,9.503c-1.532,0-2.852,1.041-3.209,2.532L1.156,18h2.28c0.235,0,0.441,0.167,0.489,0.397L4.895,23
		h2.189l0.97-4.603C8.103,18.167,8.308,18,8.543,18h0.892c0.276,0,0.5,0.224,0.5,0.5S9.711,19,9.435,19H8.949l-0.97,4.603
		C7.93,23.833,7.724,24,7.489,24H4.489z"/>
</g>
</svg>
