<?xml version="1.0" encoding="utf-8"?>
<!-- Generator: Adobe Illustrator 22.1.0, SVG Export Plug-In . SVG Version: 6.00 Build 0)  -->
<svg version="1.1" id="Light" xmlns="http://www.w3.org/2000/svg" xmlns:xlink="http://www.w3.org/1999/xlink" x="0px" y="0px"
	 viewBox="0 0 24 24" style="enable-background:new 0 0 24 24;" xml:space="preserve">
<g>
	<title>single-woman-actions-home</title>
	<path d="M13.435,24c-0.827,0-1.5-0.673-1.5-1.5v-5.114l-1.177,0.996c-0.091,0.076-0.205,0.118-0.323,0.118
		c-0.148,0-0.287-0.065-0.382-0.177c-0.178-0.21-0.152-0.526,0.059-0.704l5.855-4.953c0.271-0.229,0.615-0.356,0.969-0.356
		c0.354,0,0.698,0.127,0.969,0.356l5.854,4.953c0.211,0.178,0.237,0.495,0.059,0.705c-0.095,0.112-0.234,0.177-0.382,0.177
		c-0.118,0-0.232-0.042-0.322-0.118l-1.177-0.996V22.5c0,0.827-0.673,1.5-1.5,1.5H13.435z M20.435,23c0.276,0,0.5-0.224,0.5-0.5
		v-5.96l-3.677-3.111c-0.091-0.077-0.206-0.119-0.323-0.119c-0.117,0-0.232,0.042-0.323,0.119l-3.677,3.111v5.96
		c0,0.276,0.224,0.5,0.5,0.5h1.5v-2.5c0-1.103,0.897-2,2-2s2,0.897,2,2V23H20.435z M17.935,23v-2.5c0-0.552-0.448-1-1-1
		s-1,0.448-1,1V23H17.935z"/>
	<path d="M6,8C4.042,8,2.385,6.597,2.06,4.664C2.057,4.66,2.048,4.626,2.047,4.582v0C2.016,4.37,2,4.179,2,4c0-2.206,1.794-4,4-4
		s4,1.794,4,4c0,0.181-0.015,0.367-0.047,0.583c-0.001,0.041-0.01,0.071-0.014,0.084C9.622,6.592,7.964,8,6,8z M3.185,5.025
		C3.612,6.201,4.731,7,6,7c1.27,0,2.39-0.8,2.817-1.978C7.76,4.88,6.777,4.417,6,3.694C5.225,4.418,4.242,4.882,3.185,5.025z M6,1
		C4.346,1,3,2.346,3,4c0,0.013,0,0.026,0,0.04c1.013-0.126,1.957-0.625,2.621-1.393C5.717,2.537,5.855,2.474,6,2.474
		c0.145,0,0.283,0.063,0.378,0.173C7.043,3.414,7.988,3.912,9,4.037C9,4.025,9,4.012,9,4C9,2.346,7.654,1,6,1z"/>
	<path d="M4.489,24C4.254,24,4.049,23.833,4,23.603L3.03,19H0.5c-0.155,0-0.304-0.073-0.398-0.197
		c-0.094-0.123-0.126-0.286-0.085-0.436l1.805-6.582C2.286,9.857,4.004,8.505,6,8.505c0.337,0,0.674,0.04,1.004,0.119
		c1.58,0.379,2.798,1.597,3.177,3.177l0.156,0.571c0.073,0.266-0.085,0.542-0.35,0.614c-0.045,0.012-0.088,0.017-0.131,0.017h0
		c-0.225,0-0.424-0.151-0.483-0.368l-0.16-0.586c-0.294-1.225-1.229-2.162-2.442-2.454c-0.253-0.061-0.512-0.091-0.77-0.091
		c-1.532,0-2.852,1.04-3.21,2.53L1.156,18h2.279c0.235,0,0.441,0.167,0.489,0.397L4.895,23h2.189l0.97-4.603
		C8.102,18.167,8.308,18,8.543,18c0.035,0,0.07,0.004,0.104,0.011c0.269,0.057,0.442,0.323,0.386,0.592l-1.054,5
		C7.93,23.833,7.724,24,7.489,24H4.489z"/>
</g>
</svg>
