<?xml version="1.0" encoding="utf-8"?>
<!-- Generator: Adobe Illustrator 22.1.0, SVG Export Plug-In . SVG Version: 6.00 Build 0)  -->
<svg version="1.1" id="Light" xmlns="http://www.w3.org/2000/svg" xmlns:xlink="http://www.w3.org/1999/xlink" x="0px" y="0px"
	 viewBox="0 0 24 24" style="enable-background:new 0 0 24 24;" xml:space="preserve">
<g>
	<title>single-woman-actions-cart</title>
	<path d="M15.5,24c-0.827,0-1.5-0.673-1.5-1.5s0.673-1.5,1.5-1.5c0.827,0,1.5,0.673,1.5,1.5S16.328,24,15.5,24z M15.5,22
		c-0.276,0-0.5,0.224-0.5,0.5s0.224,0.5,0.5,0.5s0.5-0.224,0.5-0.5S15.776,22,15.5,22z"/>
	<path d="M19.5,24c-0.827,0-1.5-0.673-1.5-1.5s0.673-1.5,1.5-1.5s1.5,0.673,1.5,1.5S20.328,24,19.5,24z M19.5,22
		c-0.276,0-0.5,0.224-0.5,0.5s0.224,0.5,0.5,0.5s0.5-0.224,0.5-0.5S19.776,22,19.5,22z"/>
	<path d="M14.861,20c-0.432-0.001-0.813-0.276-0.949-0.684l-1.667-5c-0.084-0.253-0.065-0.524,0.054-0.764
		c0.12-0.239,0.325-0.417,0.579-0.501C12.979,13.017,13.086,13,13.195,13h9.092l0.732-2.634C23.079,10.151,23.277,10,23.5,10
		c0.045,0,0.09,0.006,0.133,0.018c0.266,0.074,0.422,0.35,0.349,0.616l-0.828,2.98c0,0.006-0.008,0.035-0.018,0.062l-1.553,5.593
		C21.462,19.699,21.066,20,20.619,20H14.861z M13.193,14l1.667,5l5.758,0l1.39-5h-8.814H13.193z"/>
	<path d="M6,8C4.042,8,2.385,6.597,2.06,4.664C2.058,4.66,2.048,4.626,2.047,4.582v0C2.016,4.37,2,4.179,2,4c0-2.206,1.794-4,4-4
		s4,1.794,4,4c0,0.181-0.015,0.367-0.047,0.583C9.952,4.624,9.943,4.654,9.94,4.667C9.622,6.592,7.964,8,6,8z M3.185,5.025
		C3.612,6.201,4.731,7,6,7c1.27,0,2.39-0.8,2.817-1.978C7.76,4.88,6.777,4.417,6.001,3.694C5.225,4.418,4.242,4.882,3.185,5.025z
		 M6,1C4.346,1,3,2.346,3,4c0,0.013,0,0.026,0,0.04c1.013-0.126,1.957-0.625,2.621-1.393C5.718,2.537,5.855,2.474,6,2.474
		c0.145,0,0.283,0.063,0.378,0.173C7.043,3.414,7.988,3.912,9,4.037C9,4.025,9,4.012,9,4C9,2.346,7.655,1,6,1z"/>
	<path d="M4.489,24C4.255,24,4.049,23.833,4,23.603L3.03,19H0.5c-0.155,0-0.304-0.073-0.398-0.197
		c-0.094-0.123-0.126-0.286-0.085-0.436l1.805-6.582c0.265-1.104,0.951-2.047,1.93-2.647c0.678-0.416,1.453-0.635,2.239-0.635
		c0.338,0,0.679,0.041,1.011,0.12c1.581,0.379,2.798,1.597,3.177,3.177l0.156,0.571c0.073,0.266-0.085,0.542-0.35,0.614
		c-0.045,0.012-0.088,0.017-0.131,0.017h0c-0.225,0-0.424-0.151-0.483-0.368l-0.16-0.586c-0.294-1.225-1.229-2.162-2.442-2.454
		C6.515,9.535,6.254,9.504,5.994,9.504c-0.603,0-1.197,0.169-1.717,0.488c-0.751,0.461-1.279,1.186-1.485,2.043L1.156,18h2.28
		c0.235,0,0.441,0.167,0.489,0.397L4.895,23h2.189l0.97-4.603C8.103,18.167,8.308,18,8.543,18h0.892c0.276,0,0.5,0.224,0.5,0.5
		S9.711,19,9.436,19H8.949l-0.97,4.603C7.93,23.833,7.724,24,7.489,24H4.489z"/>
</g>
</svg>
