<?xml version="1.0" encoding="utf-8"?>
<!-- Generator: Adobe Illustrator 22.1.0, SVG Export Plug-In . SVG Version: 6.00 Build 0)  -->
<svg version="1.1" id="Light" xmlns="http://www.w3.org/2000/svg" xmlns:xlink="http://www.w3.org/1999/xlink" x="0px" y="0px"
	 viewBox="0 0 24 24" style="enable-background:new 0 0 24 24;" xml:space="preserve">
<g>
	<title>single-woman-actions-flag</title>
	<path d="M14.5,24c-0.276,0-0.5-0.224-0.5-0.5V12.119c0-0.215,0.137-0.406,0.342-0.474l1.29-0.43
		c0.424-0.141,0.867-0.213,1.317-0.213c0.856,0,1.677,0.253,2.375,0.733c0.509,0.322,1.112,0.495,1.736,0.495
		c0.386,0,0.763-0.066,1.121-0.198l0.502-0.169c0.104-0.034,0.21-0.051,0.316-0.051c0.554,0,1.002,0.449,1.001,1.001v5.946
		c-0.001,0.431-0.276,0.812-0.684,0.948l-0.948,0.316c-0.424,0.141-0.867,0.213-1.318,0.213c-0.855,0-1.677-0.253-2.375-0.733
		c-0.509-0.322-1.111-0.495-1.735-0.495c-0.386,0-0.763,0.067-1.121,0.198L15,19.479V23.5C15,23.776,14.776,24,14.5,24z
		 M16.937,18.008c0.816,0,1.607,0.228,2.289,0.66c0.544,0.373,1.172,0.567,1.826,0.567c0.342,0,0.679-0.054,1-0.161L23,18.759
		l0-5.946l-0.488,0.163c-0.458,0.168-0.947,0.254-1.448,0.254c-0.817,0-1.608-0.229-2.29-0.661
		c-0.544-0.373-1.173-0.568-1.826-0.568c-0.342,0-0.679,0.054-1,0.161L15,12.479v5.946l0.489-0.163
		C15.947,18.095,16.436,18.008,16.937,18.008z"/>
	<path d="M6,8C4.042,8,2.385,6.597,2.06,4.664C2.058,4.66,2.048,4.626,2.047,4.582v0C2.016,4.37,2,4.179,2,4c0-2.206,1.794-4,4-4
		s4,1.794,4,4c0,0.181-0.015,0.367-0.047,0.583c-0.001,0.041-0.01,0.071-0.014,0.084C9.622,6.592,7.964,8,6,8z M3.185,5.025
		C3.612,6.201,4.731,7,6,7c1.27,0,2.39-0.8,2.817-1.978C7.76,4.88,6.777,4.417,6.001,3.694C5.225,4.418,4.242,4.882,3.185,5.025z
		 M6,1C4.346,1,3,2.346,3,4c0,0.013,0,0.026,0,0.04c1.013-0.126,1.957-0.625,2.621-1.393C5.717,2.537,5.855,2.474,6,2.474
		c0.145,0,0.283,0.063,0.378,0.173C7.043,3.414,7.988,3.912,9,4.037C9,4.025,9,4.012,9,4C9,2.346,7.654,1,6,1z"/>
	<path d="M4.489,24C4.254,24,4.049,23.833,4,23.603L3.03,19H0.5c-0.155,0-0.304-0.073-0.398-0.197
		c-0.094-0.123-0.126-0.286-0.085-0.436l1.805-6.582C2.283,9.855,4.002,8.501,6,8.5c2.003,0,3.723,1.358,4.187,3.302l1.796,6.566
		c0.041,0.149,0.009,0.312-0.085,0.435S11.655,19,11.5,19H8.949l-0.97,4.603C7.93,23.833,7.724,24,7.489,24H4.489z M7.084,23
		l0.97-4.603C8.103,18.167,8.308,18,8.543,18h2.302l-1.627-5.95C8.859,10.545,7.538,9.5,6.004,9.5L6.001,9.25V9.5
		c-1.533,0.001-2.853,1.043-3.209,2.534L1.156,18h2.28c0.235,0,0.441,0.167,0.489,0.397L4.895,23H7.084z"/>
</g>
</svg>
