<?xml version="1.0" encoding="utf-8"?>
<!-- Generator: Adobe Illustrator 22.1.0, SVG Export Plug-In . SVG Version: 6.00 Build 0)  -->
<svg version="1.1" id="Light" xmlns="http://www.w3.org/2000/svg" xmlns:xlink="http://www.w3.org/1999/xlink" x="0px" y="0px"
	 viewBox="0 0 24 24" style="enable-background:new 0 0 24 24;" xml:space="preserve">
<g>
	<title>single-woman-actions-edit-1</title>
	<path d="M12.229,23.785c-0.445,0-0.84-0.299-0.962-0.726c-0.051-0.179-0.051-0.369,0-0.549l0.953-3.335
		c0.004-0.014,0.013-0.038,0.02-0.051c-0.001,0.001-0.001,0.002-0.001,0.002c0,0,0.004-0.01,0.009-0.021
		c0.028-0.06,0.06-0.108,0.1-0.147l7.093-7.093c0.501-0.525,1.211-0.828,1.944-0.828c0.595,0,1.161,0.191,1.636,0.552
		c0.554,0.45,0.895,1.078,0.967,1.775c0.072,0.697-0.132,1.379-0.573,1.923c-0.056,0.069-0.116,0.136-0.181,0.2l-7.179,7.178
		c-0.04,0.04-0.089,0.073-0.147,0.1c-0.007,0.003-0.033,0.014-0.04,0.017c-0.013,0.006-0.015,0.007-0.028,0.011l-3.336,0.954
		C12.412,23.772,12.321,23.785,12.229,23.785z M12.228,22.785l2.518-0.719l-1.798-1.798L12.228,22.785z M15.701,21.606l5.572-5.571
		l-2.293-2.293l-5.572,5.572L15.701,21.606z M21.98,15.328l0.546-0.546c0.039-0.039,0.076-0.079,0.11-0.122
		c0.274-0.337,0.4-0.76,0.356-1.191c-0.044-0.431-0.254-0.819-0.591-1.092c-0.289-0.22-0.642-0.338-1.014-0.338
		c-0.463,0-0.912,0.192-1.232,0.528l-0.469,0.469L21.98,15.328z"/>
	<path d="M6.001,8C4.043,8,2.386,6.597,2.06,4.664C2.058,4.66,2.048,4.626,2.048,4.582v0C2.016,4.37,2.001,4.179,2.001,4
		c0-2.206,1.794-4,4-4s4,1.794,4,4c0,0.181-0.015,0.367-0.047,0.583C9.952,4.624,9.944,4.654,9.94,4.667
		C9.623,6.592,7.965,8,6.001,8z M3.185,5.025C3.612,6.201,4.732,7,6.001,7c1.27,0,2.39-0.8,2.817-1.978
		C7.76,4.88,6.777,4.417,6.001,3.694C5.226,4.418,4.243,4.882,3.185,5.025z M6.001,1c-1.654,0-3,1.346-3,3c0,0.013,0,0.026,0,0.04
		c1.013-0.126,1.957-0.625,2.621-1.393c0.095-0.11,0.233-0.173,0.378-0.173c0.145,0,0.283,0.063,0.378,0.173
		c0.665,0.767,1.609,1.265,2.622,1.39c0-0.012,0-0.025,0-0.037C9.001,2.346,7.655,1,6.001,1z"/>
	<path d="M4.49,24c-0.235,0-0.441-0.167-0.489-0.397L3.03,19H0.501c-0.155,0-0.304-0.073-0.398-0.197
		c-0.094-0.123-0.126-0.286-0.085-0.436l1.805-6.582C2.284,9.855,4.003,8.501,6.001,8.5c2.003,0,3.723,1.358,4.187,3.302
		l1.796,6.566c0.041,0.149,0.009,0.312-0.085,0.435S11.656,19,11.501,19H8.949l-0.97,4.603C7.93,23.833,7.725,24,7.49,24H4.49z
		 M7.084,23l0.97-4.603C8.103,18.167,8.309,18,8.544,18h2.302l-1.627-5.95C8.859,10.545,7.538,9.5,6.005,9.5L6.001,9.25V9.5
		c-1.533,0.001-2.853,1.043-3.209,2.534L1.156,18h2.279c0.235,0,0.441,0.167,0.489,0.397L4.895,23H7.084z"/>
</g>
</svg>
