<?xml version="1.0" encoding="utf-8"?>
<!-- Generator: Adobe Illustrator 22.1.0, SVG Export Plug-In . SVG Version: 6.00 Build 0)  -->
<svg version="1.1" id="Light" xmlns="http://www.w3.org/2000/svg" xmlns:xlink="http://www.w3.org/1999/xlink" x="0px" y="0px"
	 viewBox="0 0 24 24" style="enable-background:new 0 0 24 24;" xml:space="preserve">
<g>
	<title>single-woman-actions-key</title>
	<path d="M15.522,21.099c-0.468,0-0.907-0.182-1.238-0.513c-0.331-0.33-0.512-0.77-0.512-1.237s0.182-0.907,0.513-1.237
		c0.33-0.33,0.77-0.512,1.237-0.512s0.907,0.182,1.237,0.512c0.682,0.682,0.682,1.792,0,2.475
		C16.429,20.917,15.989,21.099,15.522,21.099z M15.522,18.599c-0.2,0-0.389,0.078-0.53,0.219s-0.22,0.33-0.22,0.53
		c0,0.2,0.078,0.389,0.219,0.53c0.142,0.142,0.33,0.22,0.53,0.22c0.2,0,0.389-0.078,0.531-0.219c0.292-0.292,0.292-0.768,0-1.061
		C15.91,18.677,15.722,18.599,15.522,18.599z"/>
	<path d="M15.367,24.009c-0.602,0-1.193-0.121-1.755-0.359c-2.285-0.968-3.356-3.614-2.388-5.899
		c0.706-1.667,2.335-2.745,4.149-2.745c0.491,0,0.974,0.08,1.439,0.238l4.201-3.969c0.187-0.176,0.431-0.274,0.687-0.274H23
		c0.552,0,1,0.449,1,1v1.293c0,0.264-0.107,0.522-0.294,0.708l-4.075,4.066c0.347,1.034,0.305,2.188-0.121,3.192
		c-0.469,1.107-1.341,1.965-2.455,2.416C16.513,23.897,15.945,24.009,15.367,24.009z M15.372,16.006
		c-1.411,0-2.678,0.838-3.228,2.135c-0.753,1.777,0.08,3.835,1.857,4.588c0.438,0.186,0.897,0.28,1.365,0.28
		c0.449,0,0.891-0.087,1.314-0.258c0.867-0.351,1.545-1.018,1.909-1.879c0.366-0.864,0.367-1.855,0.005-2.72
		c-0.085-0.204-0.043-0.418,0.101-0.562L23,13.295v-1.293h-1.3l-4.43,4.184c-0.093,0.088-0.215,0.136-0.344,0.136
		c-0.067,0-0.132-0.013-0.194-0.039C16.298,16.099,15.84,16.006,15.372,16.006z"/>
	<path d="M6,8.002c-1.958,0-3.615-1.403-3.94-3.336C2.058,4.662,2.048,4.628,2.047,4.584v0C2.016,4.372,2,4.181,2,4.002
		c0-2.206,1.794-4,4-4s4,1.794,4,4c0,0.181-0.015,0.367-0.047,0.583C9.952,4.626,9.943,4.656,9.939,4.67
		C9.622,6.594,7.964,8.002,6,8.002z M3.185,5.027C3.612,6.203,4.731,7.002,6,7.002c1.27,0,2.39-0.8,2.817-1.978
		C7.76,4.882,6.776,4.419,6.001,3.696C5.225,4.42,4.242,4.884,3.185,5.027z M6,1.002c-1.654,0-3,1.346-3,3c0,0.013,0,0.026,0,0.04
		c1.013-0.126,1.957-0.625,2.621-1.393C5.717,2.539,5.855,2.476,6,2.476c0.145,0,0.283,0.063,0.378,0.173
		C7.043,3.416,7.988,3.914,9,4.039c0-0.012,0-0.025,0-0.037C9,2.348,7.654,1.002,6,1.002z"/>
	<path d="M4.489,24.002c-0.235,0-0.441-0.167-0.489-0.397l-0.97-4.603H0.5c-0.155,0-0.304-0.073-0.398-0.197
		c-0.094-0.123-0.126-0.286-0.085-0.436l1.805-6.582c0.265-1.104,0.951-2.047,1.93-2.647c0.678-0.415,1.453-0.635,2.24-0.635
		c0.338,0,0.678,0.04,1.011,0.12c1.581,0.379,2.798,1.597,3.177,3.177l0.696,2.544c0.073,0.265-0.084,0.541-0.35,0.614
		c-0.044,0.012-0.088,0.018-0.131,0.018h0c-0.225,0-0.424-0.151-0.483-0.368l-0.7-2.559C8.919,10.827,7.984,9.89,6.771,9.598
		C6.517,9.537,6.258,9.507,6,9.507c-1.531,0-2.85,1.04-3.208,2.53l-1.636,5.965h2.28c0.235,0,0.441,0.167,0.489,0.397l0.97,4.603
		h2.189l0.97-4.603c0.049-0.23,0.254-0.397,0.489-0.397h0.892c0.276,0,0.5,0.224,0.5,0.5s-0.224,0.5-0.5,0.5H8.949l-0.97,4.603
		c-0.049,0.23-0.254,0.397-0.489,0.397H4.489z"/>
</g>
</svg>
