<?xml version="1.0" encoding="utf-8"?>
<!-- Generator: Adobe Illustrator 22.1.0, SVG Export Plug-In . SVG Version: 6.00 Build 0)  -->
<svg version="1.1" id="Light" xmlns="http://www.w3.org/2000/svg" xmlns:xlink="http://www.w3.org/1999/xlink" x="0px" y="0px"
	 viewBox="0 0 24 24" style="enable-background:new 0 0 24 24;" xml:space="preserve">
<g>
	<title>single-woman-actions-check-1</title>
	<path d="M17.5,24c-3.584,0-6.5-2.916-6.5-6.5s2.916-6.5,6.5-6.5s6.5,2.916,6.5,6.5S21.085,24,17.5,24z M17.5,12
		c-3.033,0-5.5,2.467-5.5,5.5s2.467,5.5,5.5,5.5s5.5-2.467,5.5-5.5S20.533,12,17.5,12z"/>
	<path d="M16.667,20.428c-0.273,0-0.533-0.087-0.751-0.251c-0.047-0.035-0.09-0.073-0.131-0.114l-1.5-1.5
		c-0.195-0.195-0.195-0.512,0-0.707c0.094-0.094,0.22-0.146,0.354-0.146s0.259,0.052,0.354,0.146l1.5,1.5
		c0.008,0.008,0.017,0.016,0.027,0.023c0.042,0.032,0.094,0.049,0.149,0.049c0.081,0,0.154-0.037,0.202-0.1l2.905-3.872
		c0.093-0.125,0.243-0.2,0.4-0.2c0.109,0,0.213,0.035,0.3,0.1c0.107,0.08,0.176,0.197,0.195,0.329
		c0.019,0.132-0.015,0.264-0.095,0.371l-2.905,3.872C17.434,20.242,17.059,20.428,16.667,20.428z"/>
	<path d="M6,8C4.042,8,2.385,6.597,2.06,4.664C2.058,4.66,2.048,4.626,2.047,4.582v0C2.016,4.37,2,4.179,2,4c0-2.206,1.794-4,4-4
		s4,1.794,4,4c0,0.181-0.015,0.367-0.047,0.583c-0.001,0.041-0.01,0.071-0.014,0.084C9.622,6.592,7.964,8,6,8z M3.185,5.025
		C3.612,6.201,4.731,7,6,7c1.27,0,2.39-0.8,2.817-1.978C7.76,4.88,6.777,4.417,6.001,3.694C5.225,4.418,4.242,4.882,3.185,5.025z
		 M6,1C4.346,1,3,2.346,3,4c0,0.013,0,0.026,0,0.04c1.013-0.126,1.957-0.625,2.621-1.393C5.717,2.537,5.855,2.474,6,2.474
		c0.145,0,0.283,0.063,0.378,0.173C7.043,3.414,7.988,3.912,9,4.037C9,4.025,9,4.012,9,4C9,2.346,7.654,1,6,1z"/>
	<path d="M4.489,24C4.254,24,4.049,23.833,4,23.603L3.03,19H0.5c-0.155,0-0.304-0.073-0.398-0.197
		c-0.094-0.123-0.126-0.286-0.085-0.436l1.805-6.582c0.265-1.104,0.951-2.047,1.93-2.647c0.678-0.416,1.453-0.635,2.239-0.635
		c0.338,0,0.679,0.041,1.011,0.12c1.581,0.379,2.798,1.597,3.177,3.177l0.156,0.571c0.073,0.266-0.085,0.542-0.35,0.614
		c-0.045,0.012-0.088,0.017-0.131,0.017h0c-0.225,0-0.424-0.151-0.483-0.368l-0.16-0.586c-0.294-1.225-1.229-2.162-2.442-2.454
		C6.515,9.535,6.253,9.504,5.993,9.504c-0.603,0-1.197,0.169-1.717,0.488c-0.751,0.461-1.279,1.186-1.485,2.043L1.156,18h2.28
		c0.235,0,0.441,0.167,0.489,0.397L4.895,23h2.189l0.97-4.603C8.103,18.167,8.308,18,8.543,18h0.892c0.276,0,0.5,0.224,0.5,0.5
		S9.711,19,9.435,19H8.949l-0.97,4.603C7.93,23.833,7.724,24,7.489,24H4.489z"/>
</g>
</svg>
