<svg xmlns="http://www.w3.org/2000/svg" viewBox="0 0 24 24"><defs><style>.a{fill:none;stroke:currentColor;stroke-linecap:round;stroke-linejoin:round;stroke-width:1.5px;}</style></defs><title>gaming-first-place</title><path class="a" d="M12.729,1.2l3.346,6.629,6.44.638a.805.805,0,0,1,.5,1.374l-5.3,5.253,1.965,7.138a.813.813,0,0,1-1.151.935L12,19.933,5.48,23.162a.813.813,0,0,1-1.151-.935l1.965-7.138L.99,9.836a.805.805,0,0,1,.5-1.374l6.44-.638L11.271,1.2A.819.819,0,0,1,12.729,1.2Z"/><line class="a" x1="13.5" y1="16.499" x2="13.5" y2="10.499"/><path class="a" d="M8.25,10.5H9a.75.75,0,0,1,.75.75V16.5"/><line class="a" x1="8.25" y1="16.499" x2="11.25" y2="16.499"/><path class="a" d="M13.5,10.5H15a1.5,1.5,0,0,1,0,3H13.5"/></svg>