<svg xmlns="http://www.w3.org/2000/svg" viewBox="0 0 24 24"><defs><style>.a{fill:none;stroke:currentColor;stroke-linecap:round;stroke-linejoin:round;stroke-width:1.5px;}</style></defs><title>bluetooth-transfer</title><path class="a" d="M12.75,4.5a3,3,0,0,0-3-3h-6a3,3,0,0,0-3,3v15a3,3,0,0,0,3,3h6a3,3,0,0,0,3-3V15"/><line class="a" x1="0.75" y1="18" x2="12.75" y2="18"/><line class="a" x1="6.75" y1="9.75" x2="14.25" y2="9.75"/><polyline class="a" points="12 7.5 14.25 9.75 12 12"/><polyline class="a" points="15.75 12.75 23.25 6.75 19.5 3.75 19.5 15.75 23.25 12.75 15.75 6.75"/></svg>