<svg xmlns="http://www.w3.org/2000/svg" viewBox="0 0 24 24"><title>bluetooth-transfer</title><path d="M13.992,12.179a.25.25,0,0,1-.08-.184.248.248,0,0,1,.081-.184l4.6-4.221a1.518,1.518,0,0,0,.484-1.08,1.5,1.5,0,0,0-.444-1.089L13.807.635A1.5,1.5,0,0,0,11.25,1.7V9.088a.251.251,0,0,1-.419.185l-4.9-4.51A1,1,0,0,0,4.573,6.236l6.063,5.574a.25.25,0,0,1,.08.184.248.248,0,0,1-.081.184L4.548,17.762A1,1,0,1,0,5.9,19.237l4.932-4.525a.25.25,0,0,1,.419.185v7.4a1.5,1.5,0,0,0,2.556,1.065l4.828-4.786a1.5,1.5,0,0,0-.04-2.17ZM13.25,3.5a.25.25,0,0,1,.426-.178l2.991,2.965a.245.245,0,0,1,.074.182.248.248,0,0,1-.081.18L13.669,9.394a.25.25,0,0,1-.419-.185Zm.426,17.177a.25.25,0,0,1-.426-.177V14.782a.25.25,0,0,1,.419-.184l2.993,2.752a.249.249,0,0,1,.08.179.244.244,0,0,1-.074.182Z"/><rect x="18.592" y="10.166" width="3.667" height="3.667" rx="0.648" ry="0.648" transform="translate(-2.502 17.958) rotate(-45.001)"/><rect x="1.741" y="10.166" width="3.667" height="3.667" rx="0.648" ry="0.648" transform="translate(-7.438 6.042) rotate(-45.001)"/></svg>