<svg xmlns="http://www.w3.org/2000/svg" viewBox="0 0 24 24"><title>bluetooth</title><path d="M18.712,8.215a2.174,2.174,0,0,0,.062-3.156L14.253.577A1.68,1.68,0,0,0,12.4.115a1.681,1.681,0,0,0-.972,1.64V8.521a.25.25,0,0,1-.419.184L6.7,4.739A1.25,1.25,0,1,0,5.005,6.578L10.7,11.81a.249.249,0,0,1,0,.368L4.982,17.421a1.25,1.25,0,1,0,1.69,1.842l4.34-3.982a.25.25,0,0,1,.419.184v6.78a1.682,1.682,0,0,0,.973,1.641,1.468,1.468,0,0,0,.57.114,1.835,1.835,0,0,0,1.28-.579l4.52-4.479a2.177,2.177,0,0,0-.059-3.156L14.793,12.18a.251.251,0,0,1,0-.369Zm-2.127,9.008a.253.253,0,0,1,.08.18.245.245,0,0,1-.074.182L14.357,19.8a.25.25,0,0,1-.426-.178V15.354a.25.25,0,0,1,.419-.184Zm-2.235-8.4a.251.251,0,0,1-.419-.184V4.377a.25.25,0,0,1,.426-.177L16.59,6.413a.25.25,0,0,1-.007.362Z"/></svg>