<svg xmlns="http://www.w3.org/2000/svg" viewBox="0 0 24 24"><title>search-bar-1</title><path d="M21.239,20.146a.249.249,0,0,1-.03-.316,5.05,5.05,0,1,0-1.381,1.381.25.25,0,0,1,.316.03l2.535,2.534a.784.784,0,0,0,1.1,0,.774.774,0,0,0,0-1.094Zm-4.206.373a3.484,3.484,0,1,1,3.484-3.484A3.488,3.488,0,0,1,17.033,20.519Z"/><path d="M10.5,17.241A.249.249,0,0,0,10.255,17H6.5a4.5,4.5,0,0,1,0-9h10a4.506,4.506,0,0,1,4.436,3.744.25.25,0,0,0,.092.154,6.564,6.564,0,0,1,1.451,1.6.25.25,0,0,0,.458-.1A6.4,6.4,0,0,0,23,12.5,6.508,6.508,0,0,0,16.5,6H6.5a6.5,6.5,0,0,0,0,13h3.979a.25.25,0,0,0,.242-.315A6.538,6.538,0,0,1,10.5,17.241Z"/></svg>