<svg id="Regular" xmlns="http://www.w3.org/2000/svg" viewBox="0 0 24 24"><defs><style>.cls-1{fill:none;stroke:currentColor;stroke-linecap:round;stroke-linejoin:round;stroke-width:1.5px;}</style></defs><title>single-neutral-id-card-double</title><circle class="cls-1" cx="8.25" cy="10.875" r="2.625"/><path class="cls-1" d="M3.75,18.75a4.5,4.5,0,0,1,9,0Z"/><line class="cls-1" x1="14.25" y1="11.25" x2="18.75" y2="11.25"/><line class="cls-1" x1="14.25" y1="14.25" x2="20.25" y2="14.25"/><path class="cls-1" d="M21.75,5.25H2.25a1.5,1.5,0,0,0-1.5,1.5v15a1.5,1.5,0,0,0,1.5,1.5h3a1.5,1.5,0,0,1,3,0h7.5a1.5,1.5,0,0,1,3,0h3a1.5,1.5,0,0,0,1.5-1.5v-15A1.5,1.5,0,0,0,21.75,5.25Z"/><path class="cls-1" d="M23.25,2.25a1.5,1.5,0,0,0-1.5-1.5H2.25a1.5,1.5,0,0,0-1.5,1.5"/></svg>