<?xml version="1.0" encoding="utf-8"?>
<!-- Generator: Adobe Illustrator 22.1.0, SVG Export Plug-In . SVG Version: 6.00 Build 0)  -->
<svg version="1.1" id="Layer_1" xmlns="http://www.w3.org/2000/svg" xmlns:xlink="http://www.w3.org/1999/xlink" x="0px" y="0px"
	 viewBox="0 0 24 24" style="enable-background:new 0 0 24 24;" xml:space="preserve">
<title>hourglass-1</title>
<g>
	<path d="M7.53,21c-0.606,0-1.168-0.231-1.592-0.65c-0.427-0.423-0.665-0.987-0.668-1.588c-0.001-0.117,0.008-0.235,0.026-0.352
		c0.508-2.93,2.098-5.081,4.733-6.41c-2.635-1.328-4.224-3.475-4.73-6.394C5.279,5.474,5.27,5.354,5.271,5.237
		C5.274,4.636,5.511,4.073,5.939,3.65C6.362,3.231,6.928,3,7.53,3l8.966,0c0.102,0,0.211,0.009,0.325,0.026
		c0.594,0.091,1.117,0.408,1.472,0.893c0.355,0.484,0.501,1.078,0.409,1.673c-0.507,2.93-2.097,5.08-4.732,6.408
		c2.635,1.328,4.224,3.476,4.73,6.395c0.093,0.605-0.052,1.202-0.408,1.687c-0.355,0.484-0.879,0.801-1.473,0.892
		C16.708,20.991,16.593,21,16.48,21H7.53z M12,12.791c-3.011,1.039-4.72,2.957-5.223,5.86c-0.004,0.025-0.006,0.064-0.006,0.103
		c0.001,0.201,0.08,0.389,0.223,0.53c0.141,0.14,0.328,0.217,0.527,0.217c0,0,8.956,0,8.958,0c0.053,0,0.083-0.004,0.114-0.009
		c0.199-0.03,0.373-0.136,0.492-0.298c0.119-0.161,0.167-0.359,0.137-0.557C16.72,15.745,15.011,13.829,12,12.791z M7.53,4.5
		C7.327,4.501,7.131,4.58,6.993,4.717C6.851,4.858,6.772,5.045,6.771,5.246c0,0.039,0.003,0.078,0.008,0.117
		C7.282,8.256,8.99,10.172,12,11.209c3.011-1.038,4.72-2.956,5.223-5.859c0.028-0.186-0.021-0.382-0.139-0.544
		c-0.118-0.161-0.293-0.267-0.49-0.297C16.562,4.504,16.532,4.5,16.499,4.5C16.495,4.5,7.53,4.5,7.53,4.5z"/>
	<path d="M3.75,1.5C3.336,1.5,3,1.164,3,0.75S3.336,0,3.75,0h16.5C20.664,0,21,0.336,21,0.75S20.664,1.5,20.25,1.5H3.75z"/>
	<path d="M3.75,24C3.336,24,3,23.664,3,23.25s0.336-0.75,0.75-0.75h16.5c0.414,0,0.75,0.336,0.75,0.75S20.664,24,20.25,24H3.75z"/>
</g>
</svg>
