<?xml version="1.0" encoding="utf-8"?>
<!-- Generator: Adobe Illustrator 22.1.0, SVG Export Plug-In . SVG Version: 6.00 Build 0)  -->
<svg version="1.1" id="Layer_1" xmlns="http://www.w3.org/2000/svg" xmlns:xlink="http://www.w3.org/1999/xlink" x="0px" y="0px"
	 viewBox="0 0 24 24" style="enable-background:new 0 0 24 24;" xml:space="preserve">
<title>time-clock-midnight</title>
<g>
	<path d="M12,24C5.383,24,0,18.617,0,12C0,5.383,5.383,0,12,0c6.617,0,12,5.383,12,12C24,18.617,18.617,24,12,24z M12,1.5
		C6.21,1.5,1.5,6.21,1.5,12c0,5.79,4.71,10.5,10.5,10.5c5.79,0,10.5-4.71,10.5-10.5C22.5,6.21,17.79,1.5,12,1.5z"/>
	<circle cx="4.125" cy="12" r="1.125"/>
	<path d="M6.431,7.557c-0.301,0-0.583-0.118-0.796-0.33C5.423,7.014,5.306,6.731,5.306,6.43c0.001-0.62,0.506-1.123,1.125-1.123
		c0.298,0,0.588,0.121,0.797,0.331C7.44,5.85,7.557,6.133,7.557,6.433c0,0.3-0.118,0.583-0.33,0.795
		C7.014,7.44,6.732,7.557,6.431,7.557L6.431,7.557z"/>
	<circle cx="12" cy="4.125" r="1.125"/>
	<path d="M17.568,7.556c-0.3,0-0.582-0.116-0.794-0.328c-0.439-0.438-0.439-1.152-0.001-1.591c0.207-0.209,0.497-0.33,0.794-0.33
		c0.306,0.006,0.594,0.126,0.797,0.329c0.212,0.211,0.329,0.494,0.329,0.794c0,0.301-0.116,0.583-0.329,0.796
		C18.152,7.439,17.869,7.556,17.568,7.556L17.568,7.556z"/>
	<circle cx="19.875" cy="12" r="1.125"/>
	<path d="M17.568,18.694c-0.301,0-0.583-0.117-0.795-0.329c-0.213-0.212-0.33-0.495-0.33-0.795c0-0.3,0.117-0.583,0.329-0.795
		c0.207-0.209,0.497-0.33,0.794-0.33c0.299,0,0.588,0.12,0.797,0.33c0.212,0.211,0.329,0.494,0.33,0.794s-0.116,0.583-0.329,0.796
		C18.152,18.576,17.87,18.693,17.568,18.694C17.569,18.694,17.569,18.694,17.568,18.694z"/>
	<circle cx="12" cy="19.875" r="1.125"/>
	<path d="M6.433,18.694c-0.301,0-0.585-0.117-0.797-0.33c-0.213-0.213-0.33-0.496-0.329-0.797c0-0.301,0.118-0.583,0.331-0.795
		c0.181-0.18,0.419-0.294,0.671-0.322c0.041-0.007,0.084-0.011,0.127-0.011c0.297,0,0.588,0.121,0.797,0.332
		c0.211,0.211,0.328,0.494,0.328,0.795c0,0.302-0.117,0.585-0.33,0.798C7.018,18.577,6.734,18.694,6.433,18.694z"/>
</g>
</svg>
