<?xml version="1.0" encoding="utf-8"?>
<!-- Generator: Adobe Illustrator 22.1.0, SVG Export Plug-In . SVG Version: 6.00 Build 0)  -->
<svg version="1.1" id="Layer_1" xmlns="http://www.w3.org/2000/svg" xmlns:xlink="http://www.w3.org/1999/xlink" x="0px" y="0px"
	 viewBox="0 0 24 24" style="enable-background:new 0 0 24 24;" xml:space="preserve">
<title>time-clock-hand-1</title>
<g>
	<path d="M0.75,24.004c-0.414,0-0.75-0.336-0.75-0.75v-9c0-0.414,0.336-0.75,0.75-0.75s0.75,0.336,0.75,0.75v0.75H6
		c1.8,0,3.324,1.268,3.675,3h3.075c2.068,0,3.75,1.682,3.75,3.75c0,0.414-0.336,0.75-0.75,0.75H1.5v0.75
		C1.5,23.668,1.164,24.004,0.75,24.004z M14.871,21.004c-0.313-0.879-1.159-1.5-2.121-1.5H6c-0.414,0-0.75-0.336-0.75-0.75
		s0.336-0.75,0.75-0.75h2.118c-0.313-0.879-1.158-1.5-2.118-1.5H1.5v4.5H14.871z"/>
	<path d="M17.021,17.754c-0.344,0-0.643-0.233-0.727-0.566c-0.049-0.194-0.02-0.396,0.083-0.568c0.103-0.172,0.266-0.294,0.46-0.343
		c0.564-0.143,1.113-0.352,1.629-0.621c3.667-1.912,5.094-6.451,3.183-10.118c-1.297-2.487-3.85-4.031-6.663-4.031
		c-1.195,0-2.39,0.294-3.455,0.849C7.865,4.268,6.437,8.806,8.349,12.474c0.093,0.177,0.11,0.381,0.05,0.572
		c-0.06,0.191-0.191,0.347-0.369,0.44c-0.107,0.056-0.226,0.085-0.346,0.085c-0.281,0-0.536-0.155-0.666-0.404
		c-2.294-4.4-0.581-9.847,3.819-12.141c1.278-0.666,2.712-1.019,4.147-1.019c3.375,0,6.439,1.854,7.995,4.838
		c1.11,2.128,1.323,4.565,0.601,6.861s-2.292,4.171-4.42,5.281c-0.62,0.323-1.278,0.574-1.956,0.745
		C17.145,17.746,17.083,17.754,17.021,17.754z"/>
	<path d="M14.25,10.504c-0.414,0-0.75-0.336-0.75-0.75v-6c0-0.414,0.336-0.75,0.75-0.75S15,3.34,15,3.754v5.25h3
		c0.414,0,0.75,0.336,0.75,0.75s-0.336,0.75-0.75,0.75H14.25z"/>
</g>
</svg>
