<?xml version="1.0" encoding="utf-8"?>
<!-- Generator: Adobe Illustrator 22.1.0, SVG Export Plug-In . SVG Version: 6.00 Build 0)  -->
<svg version="1.1" id="Layer_1" xmlns="http://www.w3.org/2000/svg" xmlns:xlink="http://www.w3.org/1999/xlink" x="0px" y="0px"
	 viewBox="0 0 24 24" style="enable-background:new 0 0 24 24;" xml:space="preserve">
<title>time-stopwatch-half-1</title>
<g>
	<path d="M13.25,24c-5.376,0-9.75-4.374-9.75-9.75c0-2.532,0.958-4.908,2.707-6.733L5.352,6.663C5.245,6.72,5.125,6.75,5,6.75
		c-0.2,0-0.389-0.078-0.53-0.22C4.328,6.389,4.25,6.2,4.25,6s0.078-0.389,0.22-0.53l0.75-0.75C5.361,4.578,5.55,4.5,5.75,4.5
		s0.389,0.078,0.53,0.22C6.422,4.861,6.5,5.05,6.5,5.25c0,0.125-0.03,0.245-0.087,0.352l0.911,0.911
		C8.83,5.354,10.607,4.674,12.5,4.531V1.5H11c-0.414,0-0.75-0.336-0.75-0.75S10.586,0,11,0h4.5c0.414,0,0.75,0.336,0.75,0.75
		S15.914,1.5,15.5,1.5H14v21.75C14,23.664,13.664,24,13.25,24z M12.5,6.034C8.264,6.413,5,9.95,5,14.25c0,4.3,3.264,7.837,7.5,8.216
		V6.034z"/>
	<circle cx="19.625" cy="14.25" r="1.125"/>
	<path d="M17.756,10.869c-0.302-0.001-0.584-0.118-0.796-0.331c-0.212-0.213-0.329-0.496-0.328-0.797
		c0-0.301,0.118-0.583,0.332-0.796c0.212-0.211,0.494-0.328,0.794-0.328c0.298,0,0.588,0.121,0.797,0.331
		c0.209,0.209,0.329,0.5,0.329,0.798c-0.001,0.619-0.507,1.123-1.126,1.123H17.756z"/>
	<path d="M17.758,19.883c-0.302,0-0.584-0.117-0.797-0.331c-0.208-0.208-0.328-0.498-0.328-0.793c0-0.3,0.116-0.583,0.329-0.795
		c0.212-0.212,0.494-0.33,0.795-0.33c0.3,0,0.583,0.117,0.795,0.328c0.213,0.213,0.331,0.496,0.331,0.796
		c0,0.293-0.112,0.571-0.316,0.782C18.339,19.767,18.058,19.883,17.758,19.883z"/>
	<circle cx="7.625" cy="14.25" r="1.125"/>
	<path d="M9.272,11.4c-0.301,0-0.583-0.117-0.795-0.329c-0.212-0.212-0.329-0.494-0.329-0.794c0-0.301,0.116-0.583,0.329-0.796
		c0.212-0.213,0.495-0.33,0.795-0.33c0.298,0,0.589,0.121,0.798,0.331c0.212,0.212,0.328,0.494,0.328,0.795
		c0,0.301-0.117,0.583-0.33,0.795C9.855,11.283,9.573,11.4,9.272,11.4L9.272,11.4z"/>
	<path d="M9.272,19.353c-0.301,0-0.584-0.117-0.796-0.33c-0.212-0.212-0.328-0.494-0.329-0.793c0-0.3,0.116-0.583,0.329-0.796
		s0.495-0.33,0.795-0.331c0.301,0,0.584,0.117,0.797,0.329c0.438,0.44,0.438,1.154,0,1.592C9.855,19.236,9.573,19.353,9.272,19.353z
		"/>
</g>
</svg>
