<?xml version="1.0" encoding="utf-8"?>
<!-- Generator: Adobe Illustrator 22.1.0, SVG Export Plug-In . SVG Version: 6.00 Build 0)  -->
<svg version="1.1" id="Layer_1" xmlns="http://www.w3.org/2000/svg" xmlns:xlink="http://www.w3.org/1999/xlink" x="0px" y="0px"
	 viewBox="0 0 24 24" style="enable-background:new 0 0 24 24;" xml:space="preserve">
<title>time-clock-circle-2</title>
<g>
	<path d="M2.25,24C1.009,24,0,22.991,0,21.75V2.25C0,1.009,1.009,0,2.25,0h19.5C22.991,0,24,1.009,24,2.25v19.5
		c0,1.241-1.009,2.25-2.25,2.25H2.25z M2.25,1.5C1.836,1.5,1.5,1.836,1.5,2.25v19.5c0,0.414,0.336,0.75,0.75,0.75h19.5
		c0.414,0,0.75-0.336,0.75-0.75V2.25c0-0.414-0.336-0.75-0.75-0.75H2.25z"/>
	<path d="M12,20.25c-4.549,0-8.25-3.701-8.25-8.25S7.451,3.75,12,3.75s8.25,3.701,8.25,8.25S16.549,20.25,12,20.25z M12,5.25
		c-3.722,0-6.75,3.028-6.75,6.75s3.028,6.75,6.75,6.75s6.75-3.028,6.75-6.75S15.722,5.25,12,5.25z"/>
	<path d="M12,12.75c-0.414,0-0.75-0.336-0.75-0.75V7.5c0-0.414,0.336-0.75,0.75-0.75s0.75,0.336,0.75,0.75v3.75h3.75
		c0.414,0,0.75,0.336,0.75,0.75s-0.336,0.75-0.75,0.75H12z"/>
</g>
</svg>
