<?xml version="1.0" encoding="utf-8"?>
<!-- Generator: Adobe Illustrator 22.1.0, SVG Export Plug-In . SVG Version: 6.00 Build 0)  -->
<svg version="1.1" id="Layer_1" xmlns="http://www.w3.org/2000/svg" xmlns:xlink="http://www.w3.org/1999/xlink" x="0px" y="0px"
	 viewBox="0 0 24 24" style="enable-background:new 0 0 24 24;" xml:space="preserve">
<title>time-clock-three</title>
<g>
	<path d="M10.523,14.25c-0.414,0-0.75-0.336-0.75-0.75V2.25c0-0.414,0.336-0.75,0.75-0.75c6.617,0,12,5.383,12,12
		c0,0.414-0.336,0.75-0.75,0.75H10.523z M20.997,12.75c-0.368-5.186-4.538-9.355-9.724-9.724v9.724H20.997z"/>
	<circle cx="10.523" cy="21.375" r="1.125"/>
	<path d="M16.092,20.194c-0.301,0-0.583-0.117-0.796-0.33c-0.212-0.212-0.329-0.494-0.33-0.795c0-0.302,0.117-0.584,0.33-0.796
		c0.192-0.195,0.468-0.312,0.775-0.329c0.001,0,0.001,0,0.002,0c0.316,0,0.605,0.12,0.813,0.329
		c0.212,0.212,0.329,0.494,0.329,0.795c0,0.301-0.117,0.583-0.33,0.796C16.675,20.076,16.393,20.194,16.092,20.194
		C16.092,20.194,16.092,20.194,16.092,20.194z"/>
	<path d="M4.954,20.194c-0.3,0-0.583-0.117-0.796-0.33c-0.213-0.213-0.329-0.496-0.329-0.797c0.001-0.3,0.118-0.582,0.331-0.794
		c0.212-0.212,0.494-0.328,0.794-0.328c0.298,0,0.589,0.121,0.798,0.331C5.964,18.487,6.08,18.77,6.08,19.07
		c0,0.301-0.118,0.583-0.331,0.795C5.537,20.077,5.255,20.194,4.954,20.194L4.954,20.194z"/>
	<circle cx="2.648" cy="13.5" r="1.125"/>
	<path d="M4.954,9.057c-0.301,0-0.583-0.118-0.796-0.33C3.946,8.514,3.829,8.23,3.83,7.929c0.001-0.619,0.506-1.122,1.125-1.122
		c0.298,0,0.588,0.121,0.797,0.331C5.964,7.35,6.08,7.633,6.08,7.933c0,0.3-0.118,0.583-0.33,0.795
		C5.537,8.94,5.255,9.057,4.954,9.057L4.954,9.057z"/>
	<path d="M16.092,9.057c-0.301,0-0.583-0.117-0.795-0.328c-0.213-0.212-0.33-0.495-0.33-0.795c0-0.301,0.117-0.584,0.329-0.796
		c0.207-0.209,0.489-0.33,0.774-0.33c0.005,0,0.033,0.001,0.038,0.001c0.286,0,0.568,0.117,0.78,0.329
		c0.212,0.212,0.33,0.495,0.33,0.795c0,0.3-0.116,0.583-0.329,0.796C16.675,8.94,16.393,9.057,16.092,9.057z"/>
</g>
</svg>
