<svg xmlns="http://www.w3.org/2000/svg" viewBox="0 0 24 24"><defs><style>.a{fill:none;stroke:currentColor;stroke-linecap:round;stroke-linejoin:round;}</style></defs><title>answer-machine</title><rect class="a" x="3.5" y="3.5" width="7" height="20" rx="2" ry="2"/><path class="a" d="M10.5,6.5h12a1,1,0,0,1,1,1v13a1,1,0,0,1-1,1h-12"/><path class="a" d="M3.5,21.5h-2a1,1,0,0,1-1-1V7.5a1,1,0,0,1,1-1h2"/><rect class="a" x="13.5" y="8.5" width="7" height="2"/><line class="a" x1="5.5" y1="3.5" x2="5.5" y2="0.5"/><path class="a" d="M13.749,13.5a.25.25,0,1,1-.25.25.25.25,0,0,1,.25-.25"/><path class="a" d="M17,13.5a.25.25,0,1,1-.25.25A.25.25,0,0,1,17,13.5"/><path class="a" d="M13.749,16a.25.25,0,1,1-.25.25.25.25,0,0,1,.25-.25"/><path class="a" d="M17,16a.25.25,0,1,1-.25.25A.25.25,0,0,1,17,16"/><path class="a" d="M13.749,18.5a.25.25,0,1,1-.25.25.25.25,0,0,1,.25-.25"/><path class="a" d="M20.251,13.5a.25.25,0,1,0,.25.25.25.25,0,0,0-.25-.25"/><path class="a" d="M20.251,16a.25.25,0,1,0,.25.25.25.25,0,0,0-.25-.25"/><path class="a" d="M20.251,18.5a.25.25,0,1,0,.25.25.25.25,0,0,0-.25-.25"/><path class="a" d="M17,18.5a.25.25,0,1,1-.25.25A.25.25,0,0,1,17,18.5"/></svg>