<svg xmlns="http://www.w3.org/2000/svg" viewBox="0 0 24 24"><defs><style>.a{fill:none;stroke:currentColor;stroke-linecap:round;stroke-linejoin:round;stroke-width:1.5px;}</style></defs><title>mailbox-in</title><line class="a" x1="12.75" y1="18.75" x2="12.75" y2="23.25"/><path class="a" d="M3.75,8.25h16.5a3,3,0,0,1,3,3V18a.75.75,0,0,1-.75.75H6.75v-7.5A3,3,0,0,0,3.75,8.25Z"/><path class="a" d="M6.75,18.75H1.5A.75.75,0,0,1,.75,18V11.25a3,3,0,0,1,6,0Z"/><line class="a" x1="11.25" y1="11.25" x2="11.25" y2="0.75"/><path class="a" d="M11.25,5.25H16.5a2.25,2.25,0,0,0,0-4.5H11.25Z"/></svg>