<svg id="Light" xmlns="http://www.w3.org/2000/svg" viewBox="0 0 24 24"><defs><style>.cls-1{fill:none;stroke:currentColor;stroke-linecap:round;stroke-linejoin:round;}</style></defs><title>multiple-actions-up-down</title><path class="cls-1" d="M.5,13.508a7.089,7.089,0,0,1,.565-2.7c.4-.8,2.063-1.35,4.153-2.124.565-.209.472-1.684.222-1.96A4.167,4.167,0,0,1,4.355,3.493,2.725,2.725,0,0,1,7,.508,2.725,2.725,0,0,1,9.645,3.493,4.167,4.167,0,0,1,8.56,6.725c-.25.276-.343,1.751.222,1.96,2.09.774,3.754,1.327,4.153,2.124a7.089,7.089,0,0,1,.565,2.7Z"/><path class="cls-1" d="M10.912.745A2.573,2.573,0,0,1,12,.508a2.725,2.725,0,0,1,2.645,2.985A4.167,4.167,0,0,1,13.56,6.725c-.25.276-.343,1.751.222,1.96,2.09.774,3.754,1.327,4.153,2.124a7.089,7.089,0,0,1,.565,2.7h-3"/><line class="cls-1" x1="21.5" y1="23.508" x2="21.5" y2="16.508"/><polyline class="cls-1" points="23.5 21.508 21.5 23.508 19.5 21.508"/><line class="cls-1" x1="15.5" y1="16.508" x2="15.5" y2="23.508"/><polyline class="cls-1" points="17.5 18.508 15.5 16.508 13.5 18.508"/></svg>