<svg id="Light" xmlns="http://www.w3.org/2000/svg" viewBox="0 0 24 24"><defs><style>.cls-1{fill:none;stroke:currentColor;stroke-linecap:round;stroke-linejoin:round;}</style></defs><title>multiple-actions-graduate</title><path class="cls-1" d="M21.5,18.833v2.486a1,1,0,0,1-.634.93l-3.015,1.187a1,1,0,0,1-.7,0l-3.015-1.187a1,1,0,0,1-.634-.93V18.833"/><polygon class="cls-1" points="17.5 15.5 11.5 18 17.5 20.5 23.5 18 17.5 15.5"/><line class="cls-1" x1="11.5" y1="18" x2="11.5" y2="21.5"/><path class="cls-1" d="M.5,13.5a7.089,7.089,0,0,1,.565-2.7c.4-.8,2.063-1.35,4.153-2.124.565-.209.472-1.684.222-1.96A4.167,4.167,0,0,1,4.355,3.485,2.725,2.725,0,0,1,7,.5,2.725,2.725,0,0,1,9.645,3.485,4.167,4.167,0,0,1,8.56,6.717c-.25.276-.343,1.751.222,1.96,2.09.774,3.754,1.327,4.153,2.124a7.089,7.089,0,0,1,.565,2.7Z"/><path class="cls-1" d="M10.912.737A2.573,2.573,0,0,1,12,.5a2.725,2.725,0,0,1,2.645,2.985A4.167,4.167,0,0,1,13.56,6.717c-.25.276-.343,1.751.222,1.96,2.09.774,3.754,1.327,4.153,2.124a5.737,5.737,0,0,1,.485,1.7"/></svg>