<svg xmlns="http://www.w3.org/2000/svg" viewBox="0 0 24 24"><defs><style>.a{fill:none;stroke:currentColor;stroke-linecap:round;stroke-linejoin:round;stroke-width:1.5px;}</style></defs><title>camera-holder</title><path class="a" d="M17.25,11.25h-12v-9A1.5,1.5,0,0,1,6.75.75h10.5a1.5,1.5,0,0,1,1.5,1.5v7.5A1.5,1.5,0,0,1,17.25,11.25Z"/><path class="a" d="M5.25,11.25V21a2.25,2.25,0,0,0,4.5,0V17.25a1.5,1.5,0,0,1,1.5-1.5h1.5a1.5,1.5,0,0,0,1.5-1.5v-3Z"/><rect class="a" x="0.75" y="3.75" width="4.5" height="4.5"/><polygon class="a" points="20.25 4.5 18.75 4.5 18.75 9 20.25 9 23.25 10.5 23.25 3 20.25 4.5"/><line class="a" x1="12" y1="8.25" x2="15.75" y2="8.25"/><path class="a" d="M9,4.125a.375.375,0,1,1-.375.375A.375.375,0,0,1,9,4.125"/><line class="a" x1="0.75" y1="2.25" x2="0.75" y2="9.75"/></svg>