<?xml version="1.0" encoding="utf-8"?>
<!-- Generator: Adobe Illustrator 22.1.0, SVG Export Plug-In . SVG Version: 6.00 Build 0)  -->
<svg version="1.1" id="Layer_1" xmlns="http://www.w3.org/2000/svg" xmlns:xlink="http://www.w3.org/1999/xlink" x="0px" y="0px"
	 viewBox="0 0 24 24" style="enable-background:new 0 0 24 24;" xml:space="preserve">
<g>
	<title>expand-corner</title>
	<path d="M5.5,23.999c-0.066,0-0.13-0.013-0.192-0.039c-0.061-0.025-0.116-0.062-0.163-0.109l-4.999-4.999
		c-0.195-0.195-0.195-0.512,0-0.707c0.094-0.094,0.22-0.146,0.354-0.146s0.259,0.052,0.354,0.146L5,22.292V5.499
		c0-0.276,0.224-0.5,0.5-0.5h16.793l-4.146-4.146C18.052,0.758,18,0.633,18,0.499s0.052-0.259,0.146-0.354s0.22-0.146,0.354-0.146
		s0.259,0.052,0.354,0.146l5,5c0.046,0.046,0.083,0.101,0.109,0.163c0.05,0.121,0.05,0.261,0,0.382
		c-0.025,0.061-0.062,0.116-0.109,0.163l-4.999,4.999c-0.094,0.094-0.22,0.146-0.354,0.146s-0.259-0.052-0.354-0.146
		S18,10.633,18,10.499s0.052-0.259,0.146-0.354l4.146-4.146H6v16.293l4.146-4.146c0.094-0.094,0.22-0.146,0.354-0.146
		s0.259,0.052,0.354,0.146S11,18.365,11,18.499s-0.052,0.259-0.146,0.354l-5,5c-0.046,0.046-0.101,0.083-0.163,0.109
		C5.63,23.986,5.565,23.999,5.5,23.999z"/>
</g>
</svg>
