<?xml version="1.0" encoding="utf-8"?>
<!-- Generator: Adobe Illustrator 22.1.0, SVG Export Plug-In . SVG Version: 6.00 Build 0)  -->
<svg version="1.1" id="Layer_1" xmlns="http://www.w3.org/2000/svg" xmlns:xlink="http://www.w3.org/1999/xlink" x="0px" y="0px"
	 viewBox="0 0 24 24" style="enable-background:new 0 0 24 24;" xml:space="preserve">
<g>
	<title>expand-diagonal-2</title>
	<path d="M15.5,15.499c-0.134,0-0.259-0.052-0.354-0.146l-6.5-6.5C8.552,8.758,8.5,8.633,8.5,8.499S8.552,8.24,8.646,8.146
		S8.866,7.999,9,7.999s0.259,0.052,0.354,0.146l6.5,6.5C15.948,14.74,16,14.865,16,14.999s-0.052,0.259-0.146,0.354
		S15.634,15.499,15.5,15.499z"/>
	<path d="M0.5,23.999c-0.066,0-0.13-0.013-0.192-0.039c-0.123-0.051-0.219-0.147-0.27-0.27C0.013,23.629,0,23.565,0,23.499v-4
		c0-0.276,0.224-0.5,0.5-0.5s0.5,0.224,0.5,0.5v2.793l7.646-7.646c0.094-0.094,0.22-0.146,0.354-0.146s0.259,0.052,0.354,0.146
		S9.5,14.865,9.5,14.999s-0.052,0.259-0.146,0.354l-7.646,7.646H4.5c0.276,0,0.5,0.224,0.5,0.5s-0.224,0.5-0.5,0.5H0.5z"/>
	<path d="M15.5,8.999c-0.134,0-0.259-0.052-0.354-0.146S15,8.633,15,8.499s0.052-0.259,0.146-0.354l7.146-7.146H19.5
		c-0.276,0-0.5-0.224-0.5-0.5s0.224-0.5,0.5-0.5h4c0.066,0,0.13,0.013,0.191,0.038c0.123,0.051,0.219,0.147,0.27,0.27
		C23.987,0.369,24,0.433,24,0.499v4c0,0.276-0.224,0.5-0.5,0.5S23,4.775,23,4.499V1.706l-7.146,7.146
		C15.759,8.947,15.634,8.999,15.5,8.999z"/>
</g>
</svg>
