<?xml version="1.0" encoding="utf-8"?>
<!-- Generator: Adobe Illustrator 22.1.0, SVG Export Plug-In . SVG Version: 6.00 Build 0)  -->
<svg version="1.1" id="Layer_1" xmlns="http://www.w3.org/2000/svg" xmlns:xlink="http://www.w3.org/1999/xlink" x="0px" y="0px"
	 viewBox="0 0 24 24" style="enable-background:new 0 0 24 24;" xml:space="preserve">
<g>
	<title>expand-vertical-1</title>
	<path d="M12,24c-0.066,0-0.13-0.013-0.192-0.039c-0.061-0.025-0.116-0.062-0.163-0.109l-4.999-4.999
		c-0.195-0.195-0.195-0.512,0-0.707C6.741,18.052,6.867,18,7,18s0.259,0.052,0.354,0.146l4.146,4.146V1.707L7.354,5.853
		C7.259,5.948,7.134,6,7,6S6.741,5.948,6.647,5.853c-0.195-0.195-0.195-0.512,0-0.707l5-5c0.046-0.046,0.101-0.083,0.162-0.108
		C11.87,0.013,11.934,0,12,0s0.13,0.013,0.191,0.038c0.062,0.026,0.116,0.062,0.163,0.108l5,5c0.195,0.195,0.195,0.512,0,0.707
		C17.259,5.948,17.134,6,17,6s-0.259-0.052-0.354-0.146L12.5,1.707v20.586l4.146-4.146C16.741,18.052,16.867,18,17,18
		s0.259,0.052,0.354,0.146c0.195,0.195,0.195,0.512,0,0.707l-5,5c-0.046,0.046-0.101,0.083-0.163,0.109
		C12.13,23.987,12.066,24,12,24z"/>
</g>
</svg>
