<?xml version="1.0" encoding="utf-8"?>
<!-- Generator: Adobe Illustrator 22.1.0, SVG Export Plug-In . SVG Version: 6.00 Build 0)  -->
<svg version="1.1" id="Layer_1" xmlns="http://www.w3.org/2000/svg" xmlns:xlink="http://www.w3.org/1999/xlink" x="0px" y="0px"
	 viewBox="0 0 24 24" style="enable-background:new 0 0 24 24;" xml:space="preserve">
<g>
	<title>expand-vertical-3</title>
	<path d="M7.5,13C7.224,13,7,12.775,7,12.5C7,12.224,7.224,12,7.5,12H17c0.276,0,0.5,0.224,0.5,0.5c0,0.276-0.224,0.5-0.5,0.5H7.5z"
		/>
	<path d="M12,24c-0.066,0-0.13-0.013-0.192-0.039c-0.061-0.025-0.116-0.062-0.163-0.109l-2.999-2.999
		C8.552,20.759,8.5,20.633,8.5,20.5s0.052-0.259,0.146-0.354S8.866,20,9,20s0.259,0.052,0.354,0.146l2.146,2.146V15.5
		c0-0.276,0.224-0.5,0.5-0.5s0.5,0.224,0.5,0.5v6.793l2.146-2.146C14.741,20.052,14.866,20,15,20s0.259,0.052,0.354,0.146
		S15.5,20.366,15.5,20.5s-0.052,0.259-0.146,0.354l-3,3c-0.046,0.046-0.101,0.083-0.163,0.109C12.13,23.987,12.066,24,12,24z"/>
	<path d="M12,9c-0.276,0-0.5-0.224-0.5-0.5V1.707L9.354,3.853C9.259,3.948,9.134,4,9,4S8.741,3.948,8.646,3.853S8.5,3.633,8.5,3.5
		s0.052-0.259,0.146-0.354l3-3c0.046-0.046,0.101-0.083,0.162-0.108C11.87,0.013,11.934,0,12,0s0.13,0.013,0.191,0.038
		c0.062,0.026,0.116,0.062,0.163,0.108l3,3C15.448,3.241,15.5,3.366,15.5,3.5s-0.052,0.259-0.146,0.354S15.134,4,15,4
		s-0.259-0.052-0.354-0.146L12.5,1.707V8.5C12.5,8.775,12.276,9,12,9z"/>
</g>
</svg>
