<svg xmlns="http://www.w3.org/2000/svg" viewBox="0 0 24 24"><defs><style>.a{fill:none;stroke:currentColor;stroke-linecap:round;stroke-linejoin:round;}</style></defs><title>database-share</title><ellipse class="a" cx="12" cy="2.501" rx="4" ry="2"/><path class="a" d="M8,5.5c0,1.1,1.791,2,4,2s4-.9,4-2"/><path class="a" d="M16,2.5v6c0,1.1-1.791,2-4,2s-4-.9-4-2v-6"/><line class="a" x1="3.5" y1="23.501" x2="8.5" y2="23.501"/><line class="a" x1="6" y1="21.501" x2="6" y2="23.501"/><line class="a" x1="1" y1="19.501" x2="11" y2="19.501"/><path class="a" d="M9.5,14.5A1.5,1.5,0,0,1,11,16v3.912A1.545,1.545,0,0,1,9.5,21.5h-7A1.546,1.546,0,0,1,1,19.913V16a1.5,1.5,0,0,1,1.5-1.5Z"/><line class="a" x1="15.5" y1="23.501" x2="20.5" y2="23.501"/><line class="a" x1="18" y1="21.501" x2="18" y2="23.501"/><line class="a" x1="13" y1="19.501" x2="23" y2="19.501"/><path class="a" d="M21.5,14.5A1.5,1.5,0,0,1,23,16v3.912A1.545,1.545,0,0,1,21.5,21.5h-7A1.546,1.546,0,0,1,13,19.913V16a1.5,1.5,0,0,1,1.5-1.5Z"/><polyline class="a" points="18 6.501 21 6.501 21 11.501"/><polyline class="a" points="6 6.501 3 6.501 3 11.501"/></svg>