<svg xmlns="http://www.w3.org/2000/svg" viewBox="0 0 24 24"><defs><style>.a{fill:none;stroke:currentColor;stroke-linecap:round;stroke-linejoin:round;}</style></defs><title>database-1</title><ellipse class="a" cx="12.503" cy="3.501" rx="8.5" ry="3"/><path class="a" d="M21,7.5c0,1.657-3.806,3-8.5,3S4,9.158,4,7.5"/><path class="a" d="M21,11.5c0,1.657-3.806,3-8.5,3S4,13.158,4,11.5"/><path class="a" d="M21,3.5v12c0,1.657-3.806,3-8.5,3S4,17.158,4,15.5V3.5"/><line class="a" x1="6" y1="23.501" x2="18" y2="23.501"/><line class="a" x1="12.003" y1="18.501" x2="12.003" y2="23.501"/><line class="a" x1="1.25" y1="23.001" x2="1.25" y2="23.001"/><path class="a" d="M1.25,23a.25.25,0,1,0,.25.25A.25.25,0,0,0,1.25,23"/><line class="a" x1="3.75" y1="23.001" x2="3.75" y2="23.001"/><path class="a" d="M3.75,23a.25.25,0,1,0,.25.25A.25.25,0,0,0,3.75,23"/><line class="a" x1="20.25" y1="23.001" x2="20.25" y2="23.001"/><path class="a" d="M20.25,23a.25.25,0,1,0,.25.25.25.25,0,0,0-.25-.25"/><line class="a" x1="22.75" y1="23.001" x2="22.75" y2="23.001"/><path class="a" d="M22.75,23a.25.25,0,1,0,.25.25.25.25,0,0,0-.25-.25"/></svg>