<svg xmlns="http://www.w3.org/2000/svg" viewBox="0 0 24 24"><defs><style>.a{fill:none;stroke:currentColor;stroke-linecap:round;stroke-linejoin:round;}</style></defs><title>database-lock</title><ellipse class="a" cx="10.022" cy="4.501" rx="9.5" ry="4"/><path class="a" d="M11.021,12.479c-.33.015-.662.022-1,.022-5.246,0-9.5-1.79-9.5-4"/><path class="a" d="M11.021,16.979c-.33.015-.662.022-1,.022-5.246,0-9.5-1.79-9.5-4"/><line class="a" x1="19.521" y1="9.001" x2="19.521" y2="4.501"/><path class="a" d="M.521,4.5v13c0,2.21,4.254,4,9.5,4,.338,0,.672-.007,1-.022"/><path class="a" d="M23.521,22.5a1,1,0,0,1-1,1h-7a1,1,0,0,1-1-1v-6a1,1,0,0,1,1-1h7a1,1,0,0,1,1,1Z"/><circle class="a" cx="19.021" cy="19.564" r="1.25"/><path class="a" d="M21.521,14a2.5,2.5,0,1,0-5,0v1.5h5Z"/></svg>