<svg xmlns="http://www.w3.org/2000/svg" viewBox="0 0 24 24"><defs><style>.a{fill:none;stroke:currentColor;stroke-linecap:round;stroke-linejoin:round;stroke-width:1.5px;}</style></defs><title>phone-action-location</title><path class="a" d="M14.625,15v5.518a2.732,2.732,0,0,1-2.733,2.732H5.358a2.732,2.732,0,0,1-2.733-2.732V4.983A2.733,2.733,0,0,1,5.358,2.25H9.375"/><line class="a" x1="2.625" y1="18.75" x2="14.625" y2="18.75"/><path class="a" d="M20.042.83,9.954,5.154A.954.954,0,0,0,9.9,6.885l3.558,1.779,1.779,3.559a.955.955,0,0,0,1.731-.051L21.3,2.084A.955.955,0,0,0,20.042.83Z"/></svg>