<svg xmlns="http://www.w3.org/2000/svg" viewBox="0 0 24 24"><defs><style>.a{fill:none;stroke:currentColor;stroke-linecap:round;stroke-linejoin:round;stroke-width:1.5px;}</style></defs><title>phone-action-wifi</title><path class="a" d="M15,13.5v7.018a2.732,2.732,0,0,1-2.733,2.732H5.733A2.732,2.732,0,0,1,3,20.518V4.983A2.733,2.733,0,0,1,5.733,2.25"/><line class="a" x1="3" y1="18.75" x2="15" y2="18.75"/><line class="a" x1="15" y1="9.675" x2="15" y2="9.675"/><path class="a" d="M15,9.675a.375.375,0,1,0,.375.375A.375.375,0,0,0,15,9.675"/><path class="a" d="M21,2.873a9.542,9.542,0,0,0-12,0"/><path class="a" d="M11.5,6.488a5.568,5.568,0,0,1,7,0"/></svg>