<?xml version="1.0" encoding="utf-8"?>
<!-- Generator: Adobe Illustrator 22.1.0, SVG Export Plug-In . SVG Version: 6.00 Build 0)  -->
<svg version="1.1" id="Layer_1" xmlns="http://www.w3.org/2000/svg" xmlns:xlink="http://www.w3.org/1999/xlink" x="0px" y="0px"
	 viewBox="0 0 24 24" style="enable-background:new 0 0 24 24;" xml:space="preserve">
<g>
	<title>kindle-hold</title>
	<path d="M7.5,20C7.225,20,7,19.776,7,19.5S7.225,19,7.5,19h2c0.276,0,0.5,0.224,0.5,0.5S9.776,20,9.5,20H7.5z"/>
	<path d="M23.501,24c-0.157,0-0.307-0.075-0.4-0.2l-3-4c-0.064-0.086-0.1-0.192-0.1-0.3v-4.559c0-1.229-1.473-2.56-3-3.86v4.212
		l0.854,0.854c0.195,0.195,0.195,0.512,0,0.707C17.759,16.948,17.634,17,17.5,17s-0.259-0.052-0.354-0.146l-2.25-2.25
		c-0.106-0.105-0.246-0.164-0.396-0.164c-0.138,0-0.269,0.05-0.372,0.14c-0.177,0.262-0.169,0.616,0.021,0.87l2.732,3.227
		C16.958,18.767,17,18.882,17,19v1c0,0.568,1.105,2.206,1.891,3.188c0.172,0.215,0.137,0.531-0.078,0.703
		C18.724,23.961,18.614,24,18.501,24c-0.153,0-0.295-0.068-0.391-0.187C17.757,23.372,16,21.117,16,20v-0.817L14.999,18H3
		c-0.551,0-1-0.448-1-1V3c0-0.551,0.449-1,1-1h11c0.552,0,1,0.449,1,1v10.522c0.226,0.076,0.432,0.203,0.604,0.374L16,14.293V2
		c0-0.551-0.448-1-1-1H2C1.451,1.002,1.002,1.451,1,2.002V20c0.003,0.549,0.453,1,1.004,1.005H14c0.276,0,0.5,0.224,0.5,0.5
		s-0.224,0.5-0.5,0.5H2c-1.099-0.008-1.995-0.907-2-2.002V2c0.004-1.099,0.9-1.996,1.998-2H15c1.103,0,2,0.897,2,2v7.769
		l0.315,0.268C19.21,11.643,21,13.16,21,14.941v4.393l2.9,3.867c0.08,0.106,0.114,0.238,0.095,0.37
		c-0.019,0.132-0.088,0.25-0.195,0.33C23.713,23.965,23.609,24,23.501,24z M3,17h11.153l-0.784-0.927
		c-0.479-0.636-0.483-1.504-0.018-2.123c0.014-0.018,0.03-0.036,0.046-0.053c0.171-0.171,0.377-0.298,0.604-0.375V3l-11,0L3,17z"/>
	<path d="M5.5,13C5.225,13,5,12.776,5,12.5C5,12.224,5.225,12,5.5,12h6c0.276,0,0.5,0.224,0.5,0.5c0,0.276-0.224,0.5-0.5,0.5H5.5z"
		/>
	<path d="M5.5,10C5.225,10,5,9.776,5,9.5S5.225,9,5.5,9h6C11.776,9,12,9.224,12,9.5S11.776,10,11.5,10H5.5z"/>
	<path d="M5.5,7C5.225,7,5,6.776,5,6.5S5.225,6,5.5,6h4C9.776,6,10,6.224,10,6.5S9.776,7,9.5,7H5.5z"/>
</g>
</svg>
