<?xml version="1.0" encoding="utf-8"?>
<!-- Generator: Adobe Illustrator 22.1.0, SVG Export Plug-In . SVG Version: 6.00 Build 0)  -->
<svg version="1.1" id="Layer_1" xmlns="http://www.w3.org/2000/svg" xmlns:xlink="http://www.w3.org/1999/xlink" x="0px" y="0px"
	 viewBox="0 0 24 24" style="enable-background:new 0 0 24 24;" xml:space="preserve">
<g>
	<title>kindle-1</title>
	<path d="M8.5,7C8.224,7,8,6.776,8,6.5S8.224,6,8.5,6h7C15.776,6,16,6.224,16,6.5S15.776,7,15.5,7H8.5z"/>
	<path d="M10.5,22c-0.276,0-0.5-0.224-0.5-0.5s0.224-0.5,0.5-0.5H13c0.276,0,0.5,0.224,0.5,0.5S13.276,22,13,22H10.5z"/>
	<path d="M8.5,10C8.224,10,8,9.776,8,9.5S8.224,9,8.5,9h7C15.776,9,16,9.224,16,9.5S15.776,10,15.5,10H8.5z"/>
	<path d="M8.5,13C8.224,13,8,12.776,8,12.5C8,12.224,8.224,12,8.5,12h7c0.276,0,0.5,0.224,0.5,0.5c0,0.276-0.224,0.5-0.5,0.5H8.5z"
		/>
	<path d="M8.5,16C8.224,16,8,15.776,8,15.5S8.224,15,8.5,15H14c0.276,0,0.5,0.224,0.5,0.5S14.276,16,14,16H8.5z"/>
	<path d="M4.5,24C3.673,24,3,23.327,3,22.5v-21C3,0.673,3.673,0,4.5,0h15C20.327,0,21,0.673,21,1.5v21c0,0.827-0.673,1.5-1.5,1.5
		H4.5z M4.5,1C4.224,1,4,1.224,4,1.5v21C4,22.776,4.224,23,4.5,23h15c0.276,0,0.5-0.224,0.5-0.5v-21C20,1.224,19.776,1,19.5,1H4.5z"
		/>
	<path d="M6,20c-0.551,0-1-0.448-1-1V3c0-0.551,0.449-1,1-1h12c0.552,0,1,0.449,1,1v16c0,0.552-0.448,1-1,1H6z M6,19h12V3L6,3L6,19z
		"/>
</g>
</svg>
