<?xml version="1.0" encoding="utf-8"?>
<!-- Generator: Adobe Illustrator 22.1.0, SVG Export Plug-In . SVG Version: 6.00 Build 0)  -->
<svg version="1.1" id="Layer_1" xmlns="http://www.w3.org/2000/svg" xmlns:xlink="http://www.w3.org/1999/xlink" x="0px" y="0px"
	 viewBox="0 0 24 24" style="enable-background:new 0 0 24 24;" xml:space="preserve">
<g>
	<title>tablet-touch</title>
	<path d="M2.5,18C1.121,18,0,16.879,0,15.5v-13C0,1.122,1.121,0,2.5,0h1.979C4.486,0,4.493-0.001,4.5-0.001
		c0.007,0,0.014,0,0.021,0.001H21.5C22.878,0,24,1.122,24,2.5V15c0,0.276-0.224,0.5-0.5,0.5S23,15.276,23,15V2.5
		C23,1.673,22.327,1,21.5,1H5v16h1.5C6.776,17,7,17.225,7,17.5S6.776,18,6.5,18H2.5z M2.5,1C1.673,1,1,1.673,1,2.5v13
		C1,16.327,1.673,17,2.5,17H4V1H2.5z"/>
	<path d="M2.75,9.75C2.336,9.75,2,9.414,2,9C1.999,8.802,2.076,8.614,2.217,8.472c0.13-0.131,0.304-0.21,0.488-0.22
		c0.001-0.001,0.019-0.002,0.04-0.002c0.417,0,0.753,0.335,0.755,0.746C3.5,9.412,3.164,9.75,2.75,9.75z"/>
	<path d="M23.5,24c-0.276,0-0.5-0.224-0.5-0.5v-3c0-1.93-1.57-3.5-3.5-3.5h-3c-0.276,0-0.5-0.224-0.5-0.5V10c0-0.551-0.448-1-1-1
		s-1,0.449-1,1v9.826c0,0.21-0.133,0.399-0.33,0.47c-0.055,0.02-0.112,0.03-0.17,0.03c-0.148,0-0.289-0.066-0.384-0.18l-2.346-2.826
		c-0.171-0.205-0.411-0.332-0.678-0.356c-0.033-0.003-0.065-0.005-0.097-0.005c-0.233,0-0.452,0.08-0.635,0.232
		c-0.206,0.171-0.332,0.412-0.357,0.678c-0.024,0.266,0.057,0.526,0.228,0.732l3.806,4.579c0.085,0.103,0.126,0.232,0.114,0.366
		c-0.012,0.133-0.075,0.253-0.178,0.338C12.883,23.959,12.769,24,12.653,24c-0.149,0-0.289-0.066-0.385-0.18l-3.806-4.579
		c-0.342-0.411-0.503-0.93-0.455-1.462c0.049-0.532,0.302-1.014,0.712-1.356c0.359-0.299,0.813-0.463,1.279-0.463
		c0.061,0,0.122,0.003,0.183,0.008c0.533,0.049,1.014,0.302,1.356,0.713L13,18.441V10c0-1.103,0.897-2,2-2s2,0.897,2,2v6h2.5
		c2.481,0,4.5,2.019,4.5,4.5v3C24,23.776,23.776,24,23.5,24z"/>
	<path d="M21.5,10.999c-0.276,0-0.5-0.224-0.5-0.5v-3c0-0.276,0.224-0.5,0.5-0.5s0.5,0.224,0.5,0.5v3
		C22,10.775,21.776,10.999,21.5,10.999z"/>
</g>
</svg>
