<?xml version="1.0" encoding="utf-8"?>
<!-- Generator: Adobe Illustrator 22.1.0, SVG Export Plug-In . SVG Version: 6.00 Build 0)  -->
<svg version="1.1" id="Layer_1" xmlns="http://www.w3.org/2000/svg" xmlns:xlink="http://www.w3.org/1999/xlink" x="0px" y="0px"
	 viewBox="0 0 24 24" style="enable-background:new 0 0 24 24;" xml:space="preserve">
<g>
	<title>tablet</title>
	<path d="M4.5,24C3.121,24,2,22.878,2,21.5v-19C2,1.121,3.121,0,4.5,0h15C20.878,0,22,1.121,22,2.5v19c0,1.378-1.122,2.5-2.5,2.5
		H4.5z M4.5,1C3.673,1,3,1.673,3,2.5v19C3,22.327,3.673,23,4.5,23h15c0.827,0,1.5-0.673,1.5-1.5v-19C21,1.673,20.327,1,19.5,1H4.5z"
		/>
	<path d="M5,20c-0.551,0-1-0.448-1-1V4c0-0.551,0.449-1,1-1h14c0.552,0,1,0.449,1,1v15c0,0.552-0.448,1-1,1H5z M5,19h14V4H5l0,0
		L5,19z"/>
	<path d="M7,9C6.449,9,6,8.551,6,8V7c0-0.551,0.449-1,1-1h1c0.551,0,1,0.449,1,1v1c0,0.551-0.449,1-1,1H7z M7,8h1V7H7L7,8z"/>
	<path d="M11.5,9c-0.551,0-1-0.449-1-1V7c0-0.551,0.449-1,1-1h1c0.552,0,1,0.449,1,1v1c0,0.551-0.448,1-1,1H11.5z M11.5,8h1V7h-1
		L11.5,8z"/>
	<path d="M16,9c-0.552,0-1-0.449-1-1V7c0-0.551,0.448-1,1-1h1c0.552,0,1,0.449,1,1v1c0,0.551-0.448,1-1,1H16z M16,8h1V7h-1L16,8z"/>
	<path d="M7,13c-0.551,0-1-0.448-1-1v-1c0-0.551,0.449-1,1-1h1c0.551,0,1,0.449,1,1v1c0,0.552-0.449,1-1,1H7z M7,12h1v-1H7L7,12z"/>
	<path d="M11.5,13c-0.551,0-1-0.448-1-1v-1c0-0.551,0.449-1,1-1h1c0.552,0,1,0.449,1,1v1c0,0.552-0.448,1-1,1H11.5z M11.5,12h1v-1
		h-1L11.5,12z"/>
	<path d="M7,17c-0.551,0-1-0.448-1-1v-1c0-0.552,0.449-1,1-1h1c0.551,0,1,0.448,1,1v1c0,0.552-0.449,1-1,1H7z M7,16h1v-1H7L7,16z"/>
	<path d="M11.5,17c-0.551,0-1-0.448-1-1v-1c0-0.552,0.449-1,1-1h1c0.552,0,1,0.448,1,1v1c0,0.552-0.448,1-1,1H11.5z M11.5,16h1v-1
		h-1L11.5,16z"/>
	<path d="M16,13c-0.552,0-1-0.448-1-1v-1c0-0.551,0.448-1,1-1h1c0.552,0,1,0.449,1,1v1c0,0.552-0.448,1-1,1H16z M16,12h1v-1h-1
		L16,12z"/>
</g>
</svg>
