<svg xmlns="http://www.w3.org/2000/svg" viewBox="0 0 24 24"><title>data-transfer</title><path d="M17.854.276A.5.5,0,0,0,17,.629v1.75a.25.25,0,0,1-.25.25H7.88A5.882,5.882,0,0,0,2,8.5a5.74,5.74,0,0,0,.921,3.142.5.5,0,0,0,.419.228.534.534,0,0,0,.069,0,.5.5,0,0,0,.408-.347A4.154,4.154,0,0,1,7.76,8.629h8.99a.25.25,0,0,1,.25.25v1.75a.5.5,0,0,0,.854.354l5-5a.5.5,0,0,0,0-.707Z"/><path d="M16.24,15.37H7.25A.25.25,0,0,1,7,15.12V13.37a.5.5,0,0,0-.854-.354l-5,5a.5.5,0,0,0,0,.707l5,5a.5.5,0,0,0,.354.147.512.512,0,0,0,.191-.038A.5.5,0,0,0,7,23.37V21.62a.25.25,0,0,1,.25-.25h8.87A5.882,5.882,0,0,0,22,15.5a5.741,5.741,0,0,0-.921-3.143.508.508,0,0,0-.488-.223.5.5,0,0,0-.408.347A4.154,4.154,0,0,1,16.24,15.37Z"/></svg>