<svg xmlns="http://www.w3.org/2000/svg" viewBox="0 0 24 24"><title>data-transfer-square-vertical-alternate</title><path d="M18.251,14.5h-1a.25.25,0,0,1-.25-.25V9.5a1.5,1.5,0,1,0-3,0v4.75a.25.25,0,0,1-.25.25h-1a.749.749,0,0,0-.6,1.2L14.9,19.367a.75.75,0,0,0,1.2,0L18.848,15.7a.749.749,0,0,0-.6-1.2Z"/><path d="M24,1.955A1.959,1.959,0,0,0,22.044,0H1.957A1.959,1.959,0,0,0,0,1.955V22.043A1.959,1.959,0,0,0,1.957,24H22.044A1.959,1.959,0,0,0,24,22.043ZM2,21.041V3A1,1,0,0,1,3,2l18-.04a1,1,0,0,1,1,1L22.041,21a1,1,0,0,1-1,1L3,22.041A1,1,0,0,1,2,21.041Z"/><path d="M9.1,4.631a.781.781,0,0,0-1.2,0L5.152,8.3a.749.749,0,0,0,.6,1.2h1a.25.25,0,0,1,.25.25V14.5a1.5,1.5,0,1,0,3,0V9.749a.25.25,0,0,1,.25-.25h1a.749.749,0,0,0,.6-1.2Z"/></svg>