<svg xmlns="http://www.w3.org/2000/svg" viewBox="0 0 24 24"><title>data-transfer-square-diagonal-alternate</title><path d="M15.182,11.646,11.824,15a.25.25,0,0,1-.353,0l-.71-.71a.75.75,0,0,0-1.271.428l-.648,4.536a.749.749,0,0,0,.746.856.889.889,0,0,0,.1-.006l4.539-.649a.749.749,0,0,0,.422-1.272l-.707-.708a.249.249,0,0,1,0-.353L17.3,13.767a1.5,1.5,0,0,0-2.121-2.121Z"/><path d="M22.044,0H1.957A1.959,1.959,0,0,0,0,1.955V22.043A1.959,1.959,0,0,0,1.957,24H22.044A1.959,1.959,0,0,0,24,22.043V1.955A1.959,1.959,0,0,0,22.044,0ZM2,21.041V3A1,1,0,0,1,3,2l18-.04a1,1,0,0,1,1,1L22.041,21a1,1,0,0,1-1,1L3,22.041A1,1,0,0,1,2,21.041Z"/><path d="M13.239,9.7a.75.75,0,0,0,.528.216.765.765,0,0,0,.239-.038.746.746,0,0,0,.5-.606l.648-4.536a.751.751,0,0,0-.849-.849l-4.538.648a.751.751,0,0,0-.423,1.273l.708.707a.252.252,0,0,1,0,.354L6.7,10.232a1.5,1.5,0,0,0,2.121,2.121l3.358-3.359a.251.251,0,0,1,.354,0Z"/></svg>