<svg xmlns="http://www.w3.org/2000/svg" viewBox="0 0 24 24"><title>data-transfer-square-vertical</title><path d="M22.043,0H1.957A1.959,1.959,0,0,0,0,1.956V22.044A1.959,1.959,0,0,0,1.957,24H22.043A1.959,1.959,0,0,0,24,22.044V1.956A1.959,1.959,0,0,0,22.043,0ZM5.75,9.5a.749.749,0,0,1-.6-1.2L7.9,4.634a.78.78,0,0,1,1.2,0L11.85,8.3a.75.75,0,0,1-.6,1.2H9.75a.25.25,0,0,0-.25.25V16.5a1,1,0,0,1-2,0V9.75a.25.25,0,0,0-.25-.25Zm12.5,5a.749.749,0,0,1,.6,1.2L16.1,19.366a.75.75,0,0,1-1.2,0L12.15,15.7a.75.75,0,0,1,.6-1.2h1.5a.25.25,0,0,0,.25-.25V7.5a1,1,0,0,1,2,0v6.75a.25.25,0,0,0,.25.25Z"/></svg>