<?xml version="1.0" encoding="utf-8"?>
<!-- Generator: Adobe Illustrator 22.1.0, SVG Export Plug-In . SVG Version: 6.00 Build 0)  -->
<svg version="1.1" id="Layer_1" xmlns="http://www.w3.org/2000/svg" xmlns:xlink="http://www.w3.org/1999/xlink" x="0px" y="0px"
	 viewBox="0 0 24 24" style="enable-background:new 0 0 24 24;" xml:space="preserve">
<title>book-sound</title>
<g>
	<path d="M3,22.5c-1.654,0-3-1.346-3-3V5.25C0,3.182,1.682,1.5,3.75,1.5H15c0.827,0,1.5,0.673,1.5,1.5v13.5
		c0,0.827-0.673,1.5-1.5,1.5v3h0.75c0.414,0,0.75,0.336,0.75,0.75s-0.336,0.75-0.75,0.75H3z M3,18c-0.827,0-1.5,0.673-1.5,1.5
		S2.173,21,3,21h10.5v-3H3z M3.75,3C2.509,3,1.5,4.009,1.5,5.25v11.651C1.951,16.639,2.464,16.5,3,16.5h12V3H3.75z"/>
	<path d="M11.25,15c-0.136,0-0.269-0.037-0.386-0.107L7.292,12.75H6c-1.654,0-3-1.346-3-3s1.346-3,3-3h1.292l3.572-2.143
		C10.98,4.537,11.114,4.5,11.25,4.5c0.129,0,0.257,0.034,0.37,0.097C11.854,4.73,12,4.98,12,5.25v9c0,0.27-0.146,0.52-0.38,0.653
		C11.507,14.966,11.379,15,11.25,15z M6,8.25c-0.827,0-1.5,0.673-1.5,1.5s0.673,1.5,1.5,1.5h1.5c0.136,0,0.269,0.037,0.386,0.107
		l2.614,1.568V6.575L7.886,8.143C7.77,8.213,7.636,8.25,7.5,8.25H6z"/>
	<path d="M21.273,16.296c-0.2,0-0.389-0.078-0.53-0.22c-0.292-0.292-0.292-0.768,0-1.061c1.133-1.133,1.757-2.64,1.757-4.243
		c0-1.603-0.624-3.109-1.757-4.243c-0.142-0.141-0.22-0.33-0.22-0.53s0.078-0.389,0.22-0.53s0.33-0.22,0.53-0.22
		s0.389,0.078,0.53,0.22C23.22,6.886,24,8.77,24,10.773c0,2.003-0.78,3.887-2.197,5.303C21.662,16.218,21.473,16.296,21.273,16.296z
		"/>
	<path d="M19.152,14.171c-0.2,0-0.388-0.078-0.53-0.219c-0.142-0.141-0.22-0.329-0.22-0.53c0-0.2,0.078-0.389,0.219-0.531
		c1.166-1.169,1.166-3.071,0-4.24c-0.141-0.142-0.219-0.33-0.219-0.531c0-0.2,0.078-0.388,0.22-0.53s0.33-0.219,0.53-0.219
		c0.201,0,0.389,0.078,0.531,0.22c1.749,1.753,1.749,4.606,0,6.359C19.542,14.093,19.353,14.171,19.152,14.171z"/>
</g>
</svg>
