<?xml version="1.0" encoding="utf-8"?>
<!-- Generator: Adobe Illustrator 22.1.0, SVG Export Plug-In . SVG Version: 6.00 Build 0)  -->
<svg version="1.1" id="Layer_1" xmlns="http://www.w3.org/2000/svg" xmlns:xlink="http://www.w3.org/1999/xlink" x="0px" y="0px"
	 viewBox="0 0 24 24" style="enable-background:new 0 0 24 24;" xml:space="preserve">
<title>book-address</title>
<g>
	<path d="M5.25,24c-1.654,0-3-1.346-3-3V3.75C2.25,1.682,3.932,0,6,0h14.25c0.827,0,1.5,0.673,1.5,1.5V18c0,0.827-0.673,1.5-1.5,1.5
		v3H21c0.414,0,0.75,0.336,0.75,0.75S21.414,24,21,24H5.25z M5.25,19.5c-0.827,0-1.5,0.673-1.5,1.5s0.673,1.5,1.5,1.5h13.5v-3H5.25z
		 M6,1.5c-1.241,0-2.25,1.009-2.25,2.25v14.651C4.201,18.139,4.714,18,5.25,18h15V1.5H6z"/>
	<path d="M7.5,16.5c-0.414,0-0.75-0.336-0.75-0.75c0-1.959,1.11-3.75,2.822-4.648C8.744,10.396,8.25,9.354,8.25,8.25
		C8.25,6.182,9.932,4.5,12,4.5c2.068,0,3.75,1.682,3.75,3.75c0,1.104-0.494,2.146-1.322,2.852C16.14,12,17.25,13.791,17.25,15.75
		c0,0.414-0.336,0.75-0.75,0.75H7.5z M15.674,15c-0.352-1.712-1.892-3-3.674-3c-1.782,0-3.322,1.288-3.674,3H15.674z M12,6
		c-1.241,0-2.25,1.009-2.25,2.25S10.759,10.5,12,10.5c1.241,0,2.25-1.009,2.25-2.25S13.241,6,12,6z"/>
</g>
</svg>
