<?xml version="1.0" encoding="utf-8"?>
<!-- Generator: Adobe Illustrator 22.1.0, SVG Export Plug-In . SVG Version: 6.00 Build 0)  -->
<svg version="1.1" id="Layer_1" xmlns="http://www.w3.org/2000/svg" xmlns:xlink="http://www.w3.org/1999/xlink" x="0px" y="0px"
	 viewBox="0 0 24 24" style="enable-background:new 0 0 24 24;" xml:space="preserve">
<title>book-bookmark</title>
<g>
	<path d="M11.995,22.491c-0.272,0-0.539-0.047-0.794-0.138c-1.526-0.602-3.129-0.906-4.773-0.906c-1.18,0-2.348,0.16-3.47,0.474
		c-0.204,0.052-0.403,0.078-0.599,0.078c-0.641-0.002-1.231-0.25-1.675-0.698C0.241,20.854-0.003,20.262,0,19.633V5.299
		C-0.002,4.266,0.659,3.362,1.644,3.05C3.166,2.526,4.766,2.258,6.39,2.258c1.837,0,3.634,0.339,5.342,1.008
		c0.065,0.023,0.148,0.038,0.237,0.041C11.98,3.306,11.991,3.306,12,3.306c0.011,0,0.023,0,0.034,0.001
		c0.09-0.004,0.176-0.02,0.257-0.049c0.866-0.318,1.779-0.569,2.714-0.747c0.416-0.622,1.117-1.002,1.87-1.002h1.5
		c0.758,0,1.462,0.383,1.877,1.011c0.721,0.137,1.429,0.316,2.106,0.534c0.979,0.313,1.638,1.215,1.638,2.244V19.64
		c0,0.197-0.024,0.394-0.073,0.585c-0.156,0.61-0.54,1.123-1.082,1.444C22.477,21.885,22.063,22,21.643,22l0,0
		c-0.197,0-0.395-0.025-0.588-0.074c-1.136-0.318-2.309-0.478-3.492-0.478c-1.641,0-3.239,0.302-4.747,0.897
		C12.544,22.443,12.271,22.491,11.995,22.491z M6.429,19.946c1.659,0,3.278,0.276,4.82,0.822V4.686
		c-0.015-0.005-0.03-0.01-0.045-0.016C9.657,4.064,8.04,3.759,6.389,3.759c-1.459,0-2.897,0.241-4.274,0.715
		C1.743,4.592,1.499,4.922,1.5,5.298v14.338c-0.002,0.475,0.381,0.861,0.854,0.863c0.001,0,0.003,0,0.004,0
		c0.077,0,0.145-0.01,0.212-0.027C3.812,20.124,5.114,19.946,6.429,19.946z M12.75,20.768c1.533-0.544,3.152-0.821,4.813-0.821
		c1.319,0,2.625,0.178,3.88,0.53c0.059,0.015,0.128,0.023,0.197,0.023c0.152,0,0.303-0.042,0.437-0.121
		c0.197-0.117,0.337-0.304,0.394-0.526c0.018-0.07,0.027-0.141,0.027-0.212V5.299c0-0.374-0.24-0.702-0.596-0.816
		c-0.417-0.134-0.844-0.252-1.276-0.352v7.129c0,0.305-0.182,0.577-0.463,0.693c-0.091,0.038-0.188,0.057-0.287,0.057
		c-0.2,0-0.389-0.078-0.53-0.22l-1.72-1.72l-1.72,1.72c-0.142,0.142-0.33,0.22-0.531,0.22c-0.099,0-0.196-0.019-0.288-0.058
		c-0.28-0.116-0.462-0.388-0.462-0.693V4.125c-0.628,0.147-1.24,0.329-1.824,0.544c-0.017,0.006-0.034,0.012-0.052,0.018V20.768z
		 M16.875,3.01c-0.414,0-0.75,0.336-0.75,0.75v5.689l0.97-0.97c0.142-0.142,0.33-0.22,0.53-0.22s0.389,0.078,0.53,0.22l0.97,0.97
		V3.76c0-0.414-0.336-0.75-0.75-0.75H16.875z"/>
</g>
</svg>
