<?xml version="1.0" encoding="utf-8"?>
<!-- Generator: Adobe Illustrator 22.1.0, SVG Export Plug-In . SVG Version: 6.00 Build 0)  -->
<svg version="1.1" id="Layer_1" xmlns="http://www.w3.org/2000/svg" xmlns:xlink="http://www.w3.org/1999/xlink" x="0px" y="0px"
	 viewBox="0 0 24 24" style="enable-background:new 0 0 24 24;" xml:space="preserve">
<title>book-edit</title>
<g>
	<path d="M2.994,24c-1.654,0-2.999-1.346-2.999-3V3.75c0-2.068,1.682-3.75,3.75-3.75h14.249c0.828,0,1.501,0.673,1.501,1.5V9
		c0,0.414-0.336,0.75-0.75,0.75s-0.75-0.336-0.75-0.75V1.5H3.745c-1.241,0-2.25,1.009-2.25,2.25v14.651
		C1.946,18.14,2.459,18,2.994,18h6c0.414,0,0.75,0.336,0.75,0.75s-0.336,0.75-0.75,0.75h-6c-0.827,0-1.499,0.673-1.499,1.5
		s0.673,1.5,1.499,1.5h5.249c0.414,0,0.75,0.336,0.75,0.75S8.657,24,8.243,24H2.994z"/>
	<path d="M11.244,24c-0.2,0-0.389-0.078-0.53-0.22c-0.178-0.177-0.255-0.431-0.205-0.677l0.75-3.75
		c0.029-0.146,0.1-0.279,0.205-0.384l7.63-7.63c0.54-0.541,1.26-0.839,2.026-0.839c0.763,0,1.48,0.296,2.02,0.832
		c1.13,1.131,1.131,2.95,0.014,4.067l-7.629,7.63c-0.104,0.105-0.238,0.176-0.384,0.205l-3.749,0.75
		C11.342,23.995,11.293,24,11.244,24z M12.2,22.294l2.424-0.485l7.468-7.469c0.532-0.532,0.533-1.399,0-1.932
		c-0.002-0.002-0.019-0.02-0.021-0.022C21.825,12.14,21.484,12,21.12,12l-0.001-0.375l0,0.375c-0.364,0-0.707,0.142-0.964,0.4
		l-7.47,7.47L12.2,22.294z"/>
</g>
</svg>
