<?xml version="1.0" encoding="utf-8"?>
<!-- Generator: Adobe Illustrator 22.1.0, SVG Export Plug-In . SVG Version: 6.00 Build 0)  -->
<svg version="1.1" id="Layer_1" xmlns="http://www.w3.org/2000/svg" xmlns:xlink="http://www.w3.org/1999/xlink" x="0px" y="0px"
	 viewBox="0 0 24 24" style="enable-background:new 0 0 24 24;" xml:space="preserve">
<title>book-library-shelf</title>
<g>
	<path d="M19.5,24c-1.517,0-2.924-0.775-3.75-2.022C14.924,23.225,13.517,24,12,24s-2.924-0.775-3.75-2.022
		C7.424,23.225,6.017,24,4.5,24C2.019,24,0,21.981,0,19.5V0.75C0,0.336,0.336,0,0.75,0S1.5,0.336,1.5,0.75v6c0,1.654,1.346,3,3,3
		s3-1.346,3-3v-6C7.5,0.336,7.836,0,8.25,0S9,0.336,9,0.75v6c0,1.654,1.346,3,3,3c1.654,0,3-1.346,3-3v-6C15,0.336,15.336,0,15.75,0
		s0.75,0.336,0.75,0.75v6c0,1.654,1.346,3,3,3s3-1.346,3-3v-6C22.5,0.336,22.836,0,23.25,0S24,0.336,24,0.75V19.5
		C24,21.981,21.981,24,19.5,24z M16.5,19.5c0,1.654,1.346,3,3,3s3-1.346,3-3v-9.402c-0.818,0.734-1.885,1.152-3,1.152
		s-2.182-0.419-3-1.152V19.5z M9,19.5c0,1.654,1.346,3,3,3c1.654,0,3-1.346,3-3v-9.402c-0.818,0.734-1.885,1.152-3,1.152
		c-1.116,0-2.182-0.419-3-1.152V19.5z M1.5,19.5c0,1.654,1.346,3,3,3s3-1.346,3-3v-9.402c-0.818,0.734-1.884,1.152-3,1.152
		s-2.182-0.419-3-1.152V19.5z"/>
	<path d="M4.5,8.25c-0.414,0-0.75-0.336-0.75-0.75V0.75C3.75,0.336,4.086,0,4.5,0s0.75,0.336,0.75,0.75V7.5
		C5.25,7.914,4.914,8.25,4.5,8.25z"/>
	<path d="M12,8.25c-0.414,0-0.75-0.336-0.75-0.75V0.75C11.25,0.336,11.586,0,12,0s0.75,0.336,0.75,0.75V7.5
		C12.75,7.914,12.414,8.25,12,8.25z"/>
	<path d="M19.5,8.25c-0.414,0-0.75-0.336-0.75-0.75V0.75C18.75,0.336,19.086,0,19.5,0s0.75,0.336,0.75,0.75V7.5
		C20.25,7.914,19.914,8.25,19.5,8.25z"/>
</g>
</svg>
