<?xml version="1.0" encoding="utf-8"?>
<!-- Generator: Adobe Illustrator 22.1.0, SVG Export Plug-In . SVG Version: 6.00 Build 0)  -->
<svg version="1.1" id="Layer_1" xmlns="http://www.w3.org/2000/svg" xmlns:xlink="http://www.w3.org/1999/xlink" x="0px" y="0px"
	 viewBox="0 0 24 24" style="enable-background:new 0 0 24 24;" xml:space="preserve">
<title>book-close-1</title>
<g>
	<path d="M6.753,23.523c-1.656,0-3.003-1.346-3.003-3V5.947c-0.104-0.737,0.068-1.481,0.486-2.1c0.449-0.664,1.13-1.113,1.917-1.265
		L17.84,0.489c0.045-0.008,0.089-0.012,0.133-0.012c0.363,0,0.673,0.26,0.738,0.618c0.035,0.197-0.008,0.396-0.123,0.561
		s-0.286,0.275-0.483,0.31l-0.615,0.11l1.557,3.112c0.726,0.317,1.204,1.036,1.204,1.836v10.5c0,2.101-1.501,3.896-3.57,4.266
		l-9.406,1.682c-0.166,0.032-0.342,0.049-0.517,0.051C6.756,23.523,6.755,23.523,6.753,23.523z M5.25,20.523
		c0,0.827,0.673,1.5,1.5,1.5c0.079-0.001,0.167-0.01,0.251-0.026l9.415-1.683c1.352-0.242,2.334-1.416,2.334-2.79v-10.5
		c0-0.279-0.227-0.505-0.506-0.505c-0.029,0-0.059,0.003-0.089,0.008L7.279,8.476C7.097,8.511,6.907,8.529,6.718,8.529
		c-0.521,0-1.024-0.134-1.469-0.385V20.523z M5.25,5.822c0.15,0.708,0.763,1.207,1.471,1.207c0.095,0,0.19-0.009,0.284-0.027
		l10.343-1.854L15.95,2.351L6.432,4.057c-0.389,0.075-0.729,0.3-0.954,0.631c-0.135,0.2-0.22,0.428-0.248,0.664
		c0.013,0.056,0.02,0.113,0.02,0.171V5.822z"/>
</g>
</svg>
