<svg xmlns="http://www.w3.org/2000/svg" viewBox="0 0 24 24"><title>hourglass-1-alternate</title><path d="M12,11.5a.5.5,0,0,0,.455-.293l2.5-5.5A.5.5,0,0,0,14.5,5h-5a.5.5,0,0,0-.455.707l2.5,5.5A.5.5,0,0,0,12,11.5Z"/><path d="M21,22h-.651l-4.268-8.8a2.734,2.734,0,0,1,0-2.4L20.349,2H21a1,1,0,0,0,0-2H3A1,1,0,0,0,3,2h.651l4.268,8.8a2.734,2.734,0,0,1,0,2.4L3.651,22H3a1,1,0,0,0,0,2H21a1,1,0,0,0,0-2ZM9.269,13.854a4.221,4.221,0,0,0,0-3.7L5.318,2H18.682l-3.951,8.148a4.221,4.221,0,0,0,0,3.705L18.682,22H5.318Z"/><path d="M15.511,20.289l-3.059-6.5a.52.52,0,0,0-.9,0l-3.059,6.5A.5.5,0,0,0,8.941,21h6.118a.5.5,0,0,0,.452-.712Z"/></svg>