<svg xmlns="http://www.w3.org/2000/svg" viewBox="0 0 24 24"><title>watch-time-alternate</title><path d="M12,7a5,5,0,1,0,5,5A5.006,5.006,0,0,0,12,7Zm2.53,7.531a.755.755,0,0,1-1.06,0l-2-2A.751.751,0,0,1,11.25,12V10a.75.75,0,1,1,1.5,0v1.69l1.78,1.78A.75.75,0,0,1,14.53,14.532Z"/><path d="M20,12a8,8,0,0,0-3.5-6.61V2a2,2,0,0,0-2-2h-5a2,2,0,0,0-2,2v3.39a7.993,7.993,0,0,0,0,13.221V22a2,2,0,0,0,2,2h5a2,2,0,0,0,2-2V18.612A8,8,0,0,0,20,12Zm-8,6a6,6,0,1,1,6-6A6.006,6.006,0,0,1,12,18ZM9.5,2h5V4.4a7.994,7.994,0,0,0-5,0Zm5,20h-5V19.6a8.012,8.012,0,0,0,5,0Z"/></svg>