<?xml version="1.0" encoding="utf-8"?>
<!-- Generator: Adobe Illustrator 22.1.0, SVG Export Plug-In . SVG Version: 6.00 Build 0)  -->
<svg version="1.1" id="Layer_1" xmlns="http://www.w3.org/2000/svg" xmlns:xlink="http://www.w3.org/1999/xlink" x="0px" y="0px"
	 viewBox="0 0 24 24" style="enable-background:new 0 0 24 24;" xml:space="preserve">
<g>
	<title>like-2</title>
	<path d="M13.552,23.13c-3.243,0-4.379-0.335-9.551-2.943v1.187c0,0.827-0.673,1.5-1.5,1.5h-2c-0.276,0-0.5-0.224-0.5-0.5
		s0.224-0.5,0.5-0.5h2c0.276,0,0.5-0.224,0.5-0.5v-12c0-0.276-0.224-0.5-0.5-0.5h-2c-0.276,0-0.5-0.224-0.5-0.5s0.224-0.5,0.5-0.5h2
		c0.827,0,1.5,0.673,1.5,1.5h1.966c0.487,0,0.945-0.238,1.225-0.635l4.888-6.925c0.412-0.589,1.091-0.942,1.816-0.942
		c0.189,0,0.377,0.024,0.559,0.072c1.18,0.31,1.888,1.523,1.577,2.703L15.15,6.991c-0.033,0.125-0.05,0.254-0.05,0.383
		c0,0.827,0.673,1.5,1.5,1.5h4.9c0.243,0.001,0.483,0.037,0.714,0.107c0.639,0.193,1.165,0.624,1.48,1.213
		c0.307,0.574,0.379,1.234,0.202,1.86c-0.003,0.021-0.008,0.04-0.013,0.056l-1.893,6.353c-0.004,0.023-0.009,0.045-0.014,0.062
		c-0.963,3.128-2.619,4.583-5.21,4.583c-0.692,0-1.302,0.006-1.852,0.011l-0.071,0.001C14.372,23.125,13.945,23.13,13.552,23.13z
		 M4.001,19.066c5.422,2.747,6.432,3.063,9.59,3.063c0.379,0,0.79-0.004,1.242-0.009c0.58-0.006,1.213-0.012,1.933-0.012
		c2.105,0,3.414-1.182,4.24-3.831c0.004-0.023,0.009-0.044,0.014-0.061l1.894-6.355c0.003-0.02,0.008-0.039,0.013-0.055
		c0.116-0.383,0.075-0.789-0.114-1.142c-0.189-0.353-0.504-0.612-0.888-0.728c-0.138-0.042-0.281-0.063-0.426-0.064h-4.897
		c-1.379,0-2.5-1.121-2.5-2.5c0-0.215,0.028-0.429,0.083-0.638l0.882-3.344c0.082-0.313,0.038-0.64-0.126-0.92
		c-0.163-0.28-0.426-0.479-0.739-0.562c-0.1-0.026-0.204-0.04-0.307-0.04c-0.397,0-0.769,0.193-0.995,0.517L8.009,9.315
		c-0.467,0.663-1.231,1.059-2.042,1.059H4.001V19.066z"/>
</g>
</svg>
