<?xml version="1.0" encoding="utf-8"?>
<!-- Generator: Adobe Illustrator 22.1.0, SVG Export Plug-In . SVG Version: 6.00 Build 0)  -->
<svg version="1.1" id="Layer_1" xmlns="http://www.w3.org/2000/svg" xmlns:xlink="http://www.w3.org/1999/xlink" x="0px" y="0px"
	 viewBox="0 0 24 24" style="enable-background:new 0 0 24 24;" xml:space="preserve">
<g>
	<title>like-plus</title>
	<path d="M2.5,24C1.121,24,0,22.878,0,21.5v-19C0,1.121,1.121,0,2.5,0h19C22.878,0,24,1.121,24,2.5v19c0,1.378-1.122,2.5-2.5,2.5
		H2.5z M1,21.5C1,22.327,1.673,23,2.5,23h19c0.827,0,1.5-0.673,1.5-1.5V6H1V21.5z M23,5V2.5C23,1.673,22.327,1,21.5,1H17v4H23z
		 M16,5V1H8v4H16z M7,5V1H2.5C1.673,1,1,1.673,1,2.5V5H7z"/>
	<path d="M10.5,20c-0.276,0-0.5-0.224-0.5-0.5V17H7.5C7.224,17,7,16.776,7,16.5v-3C7,13.224,7.224,13,7.5,13H10v-2.5
		c0-0.276,0.224-0.5,0.5-0.5h3c0.276,0,0.5,0.224,0.5,0.5V13h2.5c0.276,0,0.5,0.224,0.5,0.5v3c0,0.276-0.224,0.5-0.5,0.5H14v2.5
		c0,0.276-0.224,0.5-0.5,0.5H10.5z M13,19v-2.5c0-0.276,0.224-0.5,0.5-0.5H16v-2h-2.5c-0.276,0-0.5-0.224-0.5-0.5V11h-2v2.5
		c0,0.276-0.224,0.5-0.5,0.5H8v2h2.5c0.276,0,0.5,0.224,0.5,0.5V19H13z"/>
</g>
</svg>
