<?xml version="1.0" encoding="utf-8"?>
<!-- Generator: Adobe Illustrator 22.1.0, SVG Export Plug-In . SVG Version: 6.00 Build 0)  -->
<svg version="1.1" id="Layer_1" xmlns="http://www.w3.org/2000/svg" xmlns:xlink="http://www.w3.org/1999/xlink" x="0px" y="0px"
	 viewBox="0 0 24 24" style="enable-background:new 0 0 24 24;" xml:space="preserve">
<g>
	<title>like-shine</title>
	<path d="M10.5,24c-1.785,0-2.501-0.392-3.259-0.806C6.269,22.662,5.059,22,0.5,22C0.224,22,0,21.776,0,21.5S0.224,21,0.5,21
		c4.813,0,6.148,0.729,7.22,1.316C8.447,22.713,8.971,23,10.5,23H17c0.552,0,1-0.448,1-1s-0.448-1-1-1c-0.276,0-0.5-0.224-0.5-0.5
		S16.724,20,17,20h1c0.552,0,1-0.448,1-1s-0.448-1-1-1c-0.276,0-0.5-0.224-0.5-0.5S17.724,17,18,17h1c0.552,0,1-0.448,1-1
		s-0.448-1-1-1c-0.276,0-0.5-0.224-0.5-0.5S18.724,14,19,14h1c0.552,0,1-0.448,1-1s-0.448-1-1-1h-8
		c-0.155,0-0.303-0.073-0.397-0.196c-0.094-0.123-0.126-0.285-0.086-0.434c0.503-1.858,0.834-3.772,0.984-5.69
		c-0.001-0.594-0.159-1.109-0.444-1.43c-0.217-0.245-0.506-0.38-0.813-0.38c-0.359,0-0.745,0.197-0.745,0.63
		c0.036,4.51-3.465,8.244-7.972,8.499L0.5,13C0.224,13,0,12.776,0,12.5C0,12.224,0.224,12,0.5,12h2c3.951-0.224,7.032-3.517,7-7.496
		c0-0.932,0.75-1.634,1.745-1.634c0.588,0,1.157,0.261,1.561,0.716C13.26,4.098,13.5,4.836,13.5,5.719
		C13.361,7.511,13.074,9.28,12.646,11H20c1.103,0,2,0.897,2,2c0,0.864-0.552,1.612-1.338,1.888C20.882,15.214,21,15.597,21,16
		c0,0.864-0.552,1.612-1.34,1.887C19.882,18.214,20,18.597,20,19c0,0.864-0.552,1.612-1.338,1.888C18.882,21.214,19,21.597,19,22
		c0,1.103-0.897,2-2,2H10.5z"/>
	<path d="M3.5,8C3.224,8,3,7.776,3,7.5V7H2.5C2.224,7,2,6.776,2,6.5S2.224,6,2.5,6H3V5.5C3,5.224,3.224,5,3.5,5S4,5.224,4,5.5V6h0.5
		C4.776,6,5,6.224,5,6.5S4.776,7,4.5,7H4v0.5C4,7.776,3.776,8,3.5,8z"/>
	<path d="M7.5,3C7.224,3,7,2.776,7,2.5V2H6.5C6.224,2,6,1.776,6,1.5S6.224,1,6.5,1H7V0.5C7,0.224,7.224,0,7.5,0S8,0.224,8,0.5V1h0.5
		C8.776,1,9,1.224,9,1.5S8.776,2,8.5,2H8v0.5C8,2.776,7.776,3,7.5,3z"/>
	<path d="M17.5,5C17.224,5,17,4.776,17,4.5V4h-0.5C16.224,4,16,3.776,16,3.5S16.224,3,16.5,3H17V2.5C17,2.224,17.224,2,17.5,2
		S18,2.224,18,2.5V3h0.5C18.776,3,19,3.224,19,3.5S18.776,4,18.5,4H18v0.5C18,4.776,17.776,5,17.5,5z"/>
	<path d="M22.5,10C22.224,10,22,9.776,22,9.5V9h-0.5C21.224,9,21,8.776,21,8.5S21.224,8,21.5,8H22V7.5C22,7.224,22.224,7,22.5,7
		S23,7.224,23,7.5V8h0.5C23.776,8,24,8.224,24,8.5S23.776,9,23.5,9H23v0.5C23,9.776,22.776,10,22.5,10z"/>
</g>
</svg>
