<?xml version="1.0" encoding="utf-8"?>
<!-- Generator: Adobe Illustrator 22.1.0, SVG Export Plug-In . SVG Version: 6.00 Build 0)  -->
<svg version="1.1" id="Layer_1" xmlns="http://www.w3.org/2000/svg" xmlns:xlink="http://www.w3.org/1999/xlink" x="0px" y="0px"
	 viewBox="0 0 24 24" style="enable-background:new 0 0 24 24;" xml:space="preserve">
<g>
	<title>time-clock-file-edit</title>
	<path d="M1.5,24C0.673,24,0,23.327,0,22.5v-21C0,0.673,0.673,0,1.5,0h13.293c0.401,0.001,0.778,0.157,1.061,0.441l3.706,3.706
		C19.844,4.429,20,4.806,20,5.207V8.5C20,8.776,19.776,9,19.5,9S19,8.776,19,8.5V5.207c0-0.133-0.052-0.259-0.147-0.353
		l-3.707-3.706C15.052,1.053,14.926,1,14.793,1H1.5C1.224,1,1,1.224,1,1.5v21C1,22.776,1.224,23,1.5,23h7C8.776,23,9,23.224,9,23.5
		S8.776,24,8.5,24H1.5z"/>
	<path d="M9.5,16.001c-3.033,0-5.5-2.467-5.5-5.5c0-3.033,2.467-5.5,5.5-5.5c3.033,0,5.5,2.467,5.5,5.5
		C15,13.534,12.533,16.001,9.5,16.001z M9.5,6.001c-2.481,0-4.5,2.019-4.5,4.5s2.019,4.5,4.5,4.5s4.5-2.019,4.5-4.5
		S11.981,6.001,9.5,6.001z"/>
	<path d="M9.5,11.001c-0.276,0-0.5-0.224-0.5-0.5v-3c0-0.276,0.224-0.5,0.5-0.5s0.5,0.224,0.5,0.5v2.5h1.5
		c0.276,0,0.5,0.224,0.5,0.5s-0.224,0.5-0.5,0.5H9.5z"/>
	<path d="M11.5,24.001c-0.134,0-0.259-0.052-0.354-0.146c-0.119-0.119-0.17-0.288-0.137-0.452l0.75-3.75
		c0.019-0.097,0.067-0.185,0.137-0.255l7.63-7.631c0.493-0.493,1.15-0.765,1.849-0.765c0.699,0,1.356,0.272,1.85,0.765
		c0.002,0.002,0.02,0.021,0.026,0.028C23.731,12.272,24,12.924,24,13.622c0,0.698-0.271,1.354-0.764,1.848l-7.633,7.634
		c-0.07,0.07-0.158,0.117-0.255,0.137l-3.751,0.75C11.565,23.998,11.532,24.001,11.5,24.001z M12.138,22.864l2.866-0.573
		l7.523-7.524c0.307-0.307,0.474-0.713,0.474-1.143c0-0.431-0.169-0.836-0.474-1.14c-0.003-0.003-0.019-0.02-0.021-0.023
		C22.21,12.165,21.809,12,21.38,12c-0.434,0-0.841,0.168-1.147,0.473l-7.523,7.524L12.138,22.864z"/>
</g>
</svg>
