<?xml version="1.0" encoding="utf-8"?>
<!-- Generator: Adobe Illustrator 22.1.0, SVG Export Plug-In . SVG Version: 6.00 Build 0)  -->
<svg version="1.1" id="Layer_1" xmlns="http://www.w3.org/2000/svg" xmlns:xlink="http://www.w3.org/1999/xlink" x="0px" y="0px"
	 viewBox="0 0 24 24" style="enable-background:new 0 0 24 24;" xml:space="preserve">
<g>
	<title>time-clock-file-favorite-heart</title>
	<path d="M1.502,24c-0.827,0-1.5-0.673-1.5-1.5v-21c0-0.827,0.673-1.5,1.5-1.5h13.293c0.396,0.001,0.782,0.161,1.061,0.441
		l3.707,3.705c0.28,0.279,0.44,0.667,0.439,1.062V10.5c0,0.276-0.224,0.5-0.5,0.5s-0.5-0.224-0.5-0.5V5.208
		c0-0.132-0.053-0.261-0.146-0.354l-3.707-3.706C15.055,1.054,14.926,1,14.794,1H1.502c-0.276,0-0.5,0.224-0.5,0.5v21
		c0,0.276,0.224,0.5,0.5,0.5h11c0.276,0,0.5,0.224,0.5,0.5s-0.224,0.5-0.5,0.5H1.502z"/>
	<path d="M8.971,15.976c-1.464-0.142-2.783-0.845-3.717-1.98c-0.933-1.135-1.369-2.565-1.227-4.027
		c0.142-1.462,0.845-2.781,1.98-3.715c0.997-0.82,2.202-1.253,3.485-1.253c0.18,0,0.362,0.009,0.542,0.026
		c2.826,0.275,4.961,2.623,4.968,5.461c0,0.276-0.223,0.5-0.499,0.501c-0.276,0-0.501-0.224-0.501-0.499
		c-0.005-2.323-1.753-4.244-4.064-4.469C9.79,6.008,9.642,6.001,9.495,6.001c-1.051,0-2.037,0.354-2.852,1.025
		C5.714,7.79,5.139,8.87,5.023,10.066c-0.116,1.196,0.24,2.367,1.004,3.295c0.764,0.928,1.843,1.504,3.039,1.62
		c0.133,0.013,0.253,0.077,0.338,0.18s0.125,0.233,0.111,0.366c-0.025,0.257-0.239,0.451-0.497,0.451
		C9.01,15.978,8.979,15.977,8.971,15.976z"/>
	<path d="M9.502,11.001c-0.276,0-0.5-0.224-0.5-0.5v-3c0-0.276,0.224-0.5,0.5-0.5s0.5,0.224,0.5,0.5v2.5h1.5
		c0.276,0,0.5,0.224,0.5,0.5s-0.224,0.5-0.5,0.5H9.502z"/>
	<path d="M17.501,23.778c-0.26,0-0.505-0.098-0.692-0.277l-0.035-0.035l-4.749-4.953c-1.069-1.069-1.333-2.702-0.653-4.062
		c0.601-1.202,1.812-1.948,3.159-1.948c0.549,0,1.078,0.125,1.572,0.372c0.339,0.17,0.647,0.392,0.916,0.66l0.481,0.481l0.482-0.481
		c0.666-0.666,1.551-1.033,2.493-1.033s1.827,0.367,2.493,1.033c0.268,0.268,0.49,0.576,0.66,0.916
		c0.68,1.36,0.414,2.995-0.661,4.069l-4.746,4.951C18.036,23.666,17.773,23.778,17.501,23.778z M14.532,13.502
		c-0.966,0-1.833,0.535-2.264,1.396c-0.487,0.974-0.297,2.145,0.473,2.915l4.76,4.965l4.753-4.958
		c0.776-0.776,0.968-1.948,0.481-2.922c-0.122-0.243-0.281-0.464-0.473-0.656c-0.476-0.476-1.111-0.739-1.786-0.739
		s-1.31,0.262-1.786,0.739l-0.835,0.835c-0.094,0.094-0.22,0.146-0.354,0.146s-0.259-0.052-0.354-0.146l-0.835-0.835
		c-0.192-0.192-0.413-0.352-0.656-0.473C15.304,13.592,14.925,13.502,14.532,13.502z"/>
</g>
</svg>
