<?xml version="1.0" encoding="utf-8"?>
<!-- Generator: Adobe Illustrator 22.1.0, SVG Export Plug-In . SVG Version: 6.00 Build 0)  -->
<svg version="1.1" id="Layer_1" xmlns="http://www.w3.org/2000/svg" xmlns:xlink="http://www.w3.org/1999/xlink" x="0px" y="0px"
	 viewBox="0 0 24 24" style="enable-background:new 0 0 24 24;" xml:space="preserve">
<g>
	<title>time-clock-file-sync</title>
	<path d="M1.5,24C0.673,24,0,23.327,0,22.5v-21C0,0.673,0.673,0,1.5,0h13.293c0.402,0.001,0.778,0.157,1.061,0.441l3.707,3.706
		C19.844,4.43,20,4.807,20,5.207V9.5c0,0.276-0.224,0.5-0.5,0.5S19,9.776,19,9.5V5.207c0-0.133-0.052-0.259-0.146-0.354
		l-3.707-3.706C15.052,1.052,14.926,1,14.792,1H1.5C1.224,1,1,1.224,1,1.5v21C1,22.776,1.224,23,1.5,23h9c0.276,0,0.5,0.224,0.5,0.5
		S10.776,24,10.5,24H1.5z"/>
	<path d="M8.189,15.827c-0.045,0-0.09-0.006-0.133-0.018c-1.416-0.385-2.599-1.3-3.328-2.575c-0.73-1.275-0.919-2.758-0.533-4.176
		c0.386-1.418,1.3-2.6,2.575-3.33C7.603,5.252,8.544,5,9.493,5c0.488,0,0.976,0.066,1.453,0.195c1.732,0.471,3.127,1.761,3.733,3.45
		c0.093,0.26-0.042,0.546-0.302,0.64c-0.054,0.019-0.111,0.029-0.169,0.029c-0.21,0-0.4-0.133-0.471-0.331
		C13.242,7.601,12.1,6.546,10.683,6.16C10.293,6.054,9.893,6,9.494,6C8.719,6,7.948,6.207,7.267,6.597
		C6.224,7.194,5.475,8.161,5.16,9.321c-0.316,1.16-0.161,2.373,0.436,3.416c0.597,1.043,1.565,1.792,2.724,2.107
		c0.129,0.035,0.236,0.118,0.303,0.234s0.083,0.251,0.048,0.38C8.612,15.675,8.414,15.827,8.189,15.827z"/>
	<path d="M9.5,11.001c-0.276,0-0.5-0.224-0.5-0.5v-3c0-0.276,0.224-0.5,0.5-0.5s0.5,0.224,0.5,0.5v2.5h1.5
		c0.276,0,0.5,0.224,0.5,0.5s-0.224,0.5-0.5,0.5H9.5z"/>
	<path d="M17.498,24c-3.307,0-5.999-2.691-6-5.998c-0.001-1.6,0.624-3.106,1.758-4.241c1.134-1.135,2.64-1.76,4.24-1.761
		c2.472,0,4.583,1.442,5.504,3.598v-1.603c0-0.276,0.224-0.5,0.5-0.5s0.5,0.224,0.5,0.5v3.5c0,0.276-0.224,0.5-0.5,0.5h-0.459
		c-0.006,0.001-0.012,0.002-0.017,0.002c-0.009,0.001-0.022,0.002-0.031,0.002c-0.017,0-0.034-0.002-0.051-0.004H20
		c-0.276,0-0.5-0.224-0.5-0.5s0.224-0.5,0.5-0.5h2.391C21.921,14.663,19.907,13,17.498,13c-1.336,0-2.59,0.522-3.535,1.468
		c-0.945,0.946-1.465,2.201-1.465,3.535c0.001,2.756,2.244,4.998,5,4.998C17.776,23,18,23.224,18,23.5S17.776,24,17.5,24H17.498z"/>
</g>
</svg>
