<svg xmlns="http://www.w3.org/2000/svg" viewBox="0 0 24 24"><defs><style>.a{fill:none;stroke:currentColor;stroke-linecap:round;stroke-linejoin:round;}</style></defs><title>light-mode-hdr-off</title><path class="a" d="M21.741,18.913A3.988,3.988,0,0,0,23,16V10a4,4,0,0,0-4-4H8.828"/><path class="a" d="M3.474,6.3A4,4,0,0,0,1,10v6a4,4,0,0,0,4,4H17.172"/><line class="a" x1="1" y1="1" x2="23" y2="23"/><line class="a" x1="8" y1="10.991" x2="8" y2="17"/><line class="a" x1="4" y1="17" x2="4" y2="9"/><line class="a" x1="4" y1="13" x2="8" y2="13"/><path class="a" d="M20,11a2,2,0,0,1-2,2H16V9h2A2,2,0,0,1,20,11Z"/><line class="a" x1="20" y1="17" x2="16" y2="13"/><path class="a" d="M11.55,9.311A4.014,4.014,0,0,1,13.708,11.5"/><path class="a" d="M13.129,15.492A3.993,3.993,0,0,1,10,17V12.486"/></svg>