<svg xmlns="http://www.w3.org/2000/svg" viewBox="0 0 24 24"><defs><style>.a{fill:none;stroke:currentColor;stroke-linecap:round;stroke-linejoin:round;}</style></defs><title>light-mode-night-woman</title><path class="a" d="M11.041,16.394a5.568,5.568,0,0,0,3.99-1.1c-.629-.629-1.061-1.024-1.227-3.463-.246-3.635-2.7-4.914-4.8-4.914S4.442,8.193,4.2,11.828c-.166,2.439-.6,2.834-1.227,3.463a5.591,5.591,0,0,0,4.014,1.1"/><path class="a" d="M11.5,17.769a.755.755,0,0,1-.5-.693v-1.35a.757.757,0,0,1,.258-.545A2.113,2.113,0,0,0,12,13.414v-2A4.986,4.986,0,0,1,9,9.677a4.986,4.986,0,0,1-3,1.737v2a2.113,2.113,0,0,0,.743,1.767A.757.757,0,0,1,7,15.727v1.349a.755.755,0,0,1-.5.693C3.767,18.781,1.76,19.5,1.239,20.546A7.11,7.11,0,0,0,.5,23.414h17a7.11,7.11,0,0,0-.739-2.868C16.24,19.5,14.233,18.781,11.5,17.769Z"/><path class="a" d="M16.969,11.307A5.5,5.5,0,0,0,19.436.6a.5.5,0,0,0-.559.741,5.534,5.534,0,0,1-2.387,7.78"/></svg>