<?xml version="1.0" encoding="utf-8"?>
<!-- Generator: Adobe Illustrator 22.1.0, SVG Export Plug-In . SVG Version: 6.00 Build 0)  -->
<svg version="1.1" id="Layer_1" xmlns="http://www.w3.org/2000/svg" xmlns:xlink="http://www.w3.org/1999/xlink" x="0px" y="0px"
	 viewBox="0 0 24 24" style="enable-background:new 0 0 24 24;" xml:space="preserve">
<title>paginate-filter-8</title>
<g>
	<path d="M5.25,20.996c-1.241,0-2.25-1.009-2.25-2.25v-16.5c0-1.241,1.009-2.25,2.25-2.25h16.5c1.241,0,2.25,1.009,2.25,2.25v16.5
		c0,1.241-1.009,2.25-2.25,2.25H5.25z M5.25,1.496c-0.414,0-0.75,0.336-0.75,0.75v16.5c0,0.414,0.336,0.75,0.75,0.75h16.5
		c0.414,0,0.75-0.336,0.75-0.75v-16.5c0-0.414-0.336-0.75-0.75-0.75H5.25z"/>
	<path d="M2.25,23.996c-1.241,0-2.25-1.009-2.25-2.25v-18c0-0.414,0.336-0.75,0.75-0.75S1.5,3.333,1.5,3.746v18
		c0,0.414,0.336,0.75,0.75,0.75h18c0.414,0,0.75,0.336,0.75,0.75s-0.336,0.75-0.75,0.75H2.25z"/>
	<path d="M13.5,15.371c-1.654,0-3-1.346-3-3c0-0.928,0.429-1.793,1.146-2.357c-0.375-0.437-0.584-0.992-0.584-1.58
		c0-1.344,1.094-2.438,2.438-2.438c1.344,0,2.438,1.094,2.438,2.438c0,0.588-0.208,1.143-0.584,1.58
		c0.717,0.564,1.146,1.429,1.146,2.357C16.5,14.025,15.154,15.371,13.5,15.371z M13.483,10.872C12.664,10.881,12,11.552,12,12.371
		c0,0.827,0.673,1.5,1.5,1.5s1.5-0.673,1.5-1.5c0-0.82-0.664-1.49-1.483-1.499C13.511,10.872,13.489,10.872,13.483,10.872z
		 M13.514,9.371c0.509-0.007,0.924-0.426,0.924-0.937c0-0.517-0.421-0.938-0.938-0.938s-0.938,0.421-0.938,0.938
		c0,0.511,0.414,0.93,0.924,0.937c0.005,0,0.01,0,0.014,0C13.504,9.371,13.509,9.371,13.514,9.371z"/>
</g>
</svg>
