<?xml version="1.0" encoding="utf-8"?>
<!-- Generator: Adobe Illustrator 22.1.0, SVG Export Plug-In . SVG Version: 6.00 Build 0)  -->
<svg version="1.1" id="Layer_1" xmlns="http://www.w3.org/2000/svg" xmlns:xlink="http://www.w3.org/1999/xlink" x="0px" y="0px"
	 viewBox="0 0 24 24" style="enable-background:new 0 0 24 24;" xml:space="preserve">
<title>paginate-filter-5</title>
<g>
	<path d="M5.25,20.996c-1.241,0-2.25-1.009-2.25-2.25v-16.5c0-1.241,1.009-2.25,2.25-2.25h16.5c1.241,0,2.25,1.009,2.25,2.25v16.5
		c0,1.241-1.009,2.25-2.25,2.25H5.25z M5.25,1.496c-0.414,0-0.75,0.336-0.75,0.75v16.5c0,0.414,0.336,0.75,0.75,0.75h16.5
		c0.414,0,0.75-0.336,0.75-0.75v-16.5c0-0.414-0.336-0.75-0.75-0.75H5.25z"/>
	<path d="M2.25,23.996c-1.241,0-2.25-1.009-2.25-2.25v-18c0-0.414,0.336-0.75,0.75-0.75S1.5,3.333,1.5,3.746v18
		c0,0.414,0.336,0.75,0.75,0.75h18c0.414,0,0.75,0.336,0.75,0.75s-0.336,0.75-0.75,0.75H2.25z"/>
	<path d="M11.25,14.996c-0.414,0-0.75-0.336-0.75-0.75s0.336-0.75,0.75-0.75h2.625c0.62,0,1.125-0.505,1.125-1.125
		c0-0.898-0.277-1.009-1.569-1.128c-1.096-0.102-2.931-0.272-2.931-2.622V6.746c0-0.414,0.336-0.75,0.75-0.75h4.5
		c0.414,0,0.75,0.336,0.75,0.75s-0.336,0.75-0.75,0.75H12v1.125c0,0.898,0.277,1.009,1.569,1.128
		c1.096,0.102,2.931,0.272,2.931,2.622c0,1.448-1.177,2.625-2.625,2.625H11.25z"/>
</g>
</svg>
