<?xml version="1.0" encoding="utf-8"?>
<!-- Generator: Adobe Illustrator 22.1.0, SVG Export Plug-In . SVG Version: 6.00 Build 0)  -->
<svg version="1.1" id="Layer_1" xmlns="http://www.w3.org/2000/svg" xmlns:xlink="http://www.w3.org/1999/xlink" x="0px" y="0px"
	 viewBox="0 0 24 24" style="enable-background:new 0 0 24 24;" xml:space="preserve">
<title>paginate-filter-6</title>
<g>
	<path d="M5.25,20.996c-1.241,0-2.25-1.009-2.25-2.25v-16.5c0-1.241,1.009-2.25,2.25-2.25h16.5c1.241,0,2.25,1.009,2.25,2.25v16.5
		c0,1.241-1.009,2.25-2.25,2.25H5.25z M5.25,1.496c-0.414,0-0.75,0.336-0.75,0.75v16.5c0,0.414,0.336,0.75,0.75,0.75h16.5
		c0.414,0,0.75-0.336,0.75-0.75v-16.5c0-0.414-0.336-0.75-0.75-0.75H5.25z"/>
	<path d="M2.25,23.996c-1.241,0-2.25-1.009-2.25-2.25v-18c0-0.414,0.336-0.75,0.75-0.75S1.5,3.333,1.5,3.746v18
		c0,0.414,0.336,0.75,0.75,0.75h18c0.414,0,0.75,0.336,0.75,0.75s-0.336,0.75-0.75,0.75H2.25z"/>
	<path d="M13.5,14.996c-1.645,0-2.988-1.335-3-2.979c0-0.006,0-2.271,0-2.271c0-2.068,1.682-3.75,3.75-3.75
		c0.414,0,0.75,0.336,0.75,0.75s-0.336,0.75-0.75,0.75c-1.116,0-2.046,0.818-2.22,1.885c0.444-0.252,0.947-0.385,1.47-0.385
		c1.654,0,3,1.346,3,3C16.5,13.65,15.154,14.996,13.5,14.996z M13.5,10.496c-0.827,0-1.5,0.673-1.5,1.5s0.673,1.5,1.5,1.5
		s1.5-0.673,1.5-1.5S14.327,10.496,13.5,10.496z"/>
</g>
</svg>
