<?xml version="1.0" encoding="utf-8"?>
<!-- Generator: Adobe Illustrator 22.1.0, SVG Export Plug-In . SVG Version: 6.00 Build 0)  -->
<svg version="1.1" id="Layer_1" xmlns="http://www.w3.org/2000/svg" xmlns:xlink="http://www.w3.org/1999/xlink" x="0px" y="0px"
	 viewBox="0 0 24 24" style="enable-background:new 0 0 24 24;" xml:space="preserve">
<title>paginate-filter-4</title>
<g>
	<path d="M5.25,20.996c-1.241,0-2.25-1.009-2.25-2.25v-16.5c0-1.241,1.009-2.25,2.25-2.25h16.5c1.241,0,2.25,1.009,2.25,2.25v16.5
		c0,1.241-1.009,2.25-2.25,2.25H5.25z M5.25,1.496c-0.414,0-0.75,0.336-0.75,0.75v16.5c0,0.414,0.336,0.75,0.75,0.75h16.5
		c0.414,0,0.75-0.336,0.75-0.75v-16.5c0-0.414-0.336-0.75-0.75-0.75H5.25z"/>
	<path d="M2.25,23.996c-1.241,0-2.25-1.009-2.25-2.25v-18c0-0.414,0.336-0.75,0.75-0.75S1.5,3.333,1.5,3.746v18
		c0,0.414,0.336,0.75,0.75,0.75h18c0.414,0,0.75,0.336,0.75,0.75s-0.336,0.75-0.75,0.75H2.25z"/>
	<path d="M15.75,14.996c-0.414,0-0.75-0.336-0.75-0.75v-0.75h-3.731c-0.222,0-0.431-0.097-0.574-0.267
		c-0.143-0.17-0.203-0.393-0.165-0.612c0.493-2.821,2.32-5.261,4.888-6.528c0.103-0.051,0.218-0.078,0.332-0.078
		c0.14,0,0.277,0.039,0.396,0.113C16.368,6.262,16.5,6.5,16.5,6.761v7.485C16.5,14.66,16.164,14.996,15.75,14.996z M15,11.996V8.088
		c-1.322,0.962-2.307,2.343-2.783,3.908H15z"/>
</g>
</svg>
