<svg id="Light" xmlns="http://www.w3.org/2000/svg" viewBox="0 0 24 24"><defs><style>.cls-1{fill:none;stroke:currentColor;stroke-linecap:round;stroke-linejoin:round;}</style></defs><title>single-man-phone-book</title><path class="cls-1" d="M20.5,22.5a1,1,0,0,1-1,1H3.5V.5h16a1,1,0,0,1,1,1Z"/><path class="cls-1" d="M3.5.5h-2a1,1,0,0,0-1,1v21a1,1,0,0,0,1,1h2"/><path class="cls-1" d="M20.5,2h1a2.006,2.006,0,0,1,2,2V7h-3"/><polyline class="cls-1" points="20.5 7 23.5 7 23.5 12 20.5 12"/><polyline class="cls-1" points="20.5 12 23.5 12 23.5 17 20.5 17"/><path class="cls-1" d="M20.5,17h3v3a2.006,2.006,0,0,1-2,2h-1"/><g id="_Group_" data-name="&lt;Group&gt;"><path class="cls-1" d="M16.5,18.5a5,5,0,0,0-10,0Z"/><path class="cls-1" d="M8.915,7.477a4.986,4.986,0,0,0,5.558,1.117"/><circle class="cls-1" cx="11.5" cy="9" r="3"/></g></svg>