<svg xmlns="http://www.w3.org/2000/svg" viewBox="0 0 24 24"><title>send-email-fly</title><path d="M12,13.685a1,1,0,0,0-1,1v7.5a1,1,0,1,0,2,0v-7.5A1,1,0,0,0,12,13.685Z"/><path d="M7.5,12.177a1,1,0,0,0-1,1v5.5a1,1,0,0,0,2,0v-5.5A1,1,0,0,0,7.5,12.177Z"/><path d="M16.5,12.177a1,1,0,0,0-1,1v5.5a1,1,0,0,0,2,0v-5.5A1,1,0,0,0,16.5,12.177Z"/><path d="M2.171.974A1.5,1.5,0,0,0,0,2.316v.705A1.493,1.493,0,0,0,.943,4.414l1,.4a1.5,1.5,0,0,0-.21,2.031l.765,1a1.5,1.5,0,0,0,1.2.589,1.435,1.435,0,0,0,.992-.391l.707-.9A.505.505,0,0,0,5.5,6.837V3.2a.5.5,0,0,0-.248-.432Z"/><path d="M17.391,3.827a.21.21,0,0,0-.215.006L13.009,6.449a1.906,1.906,0,0,1-2.018,0L6.824,3.833a.211.211,0,0,0-.324.18V9.041a1.273,1.273,0,0,0,1.269,1.275h8.462A1.273,1.273,0,0,0,17.5,9.041V4.012A.212.212,0,0,0,17.391,3.827Z"/><path d="M16.231.816H7.769A1.273,1.273,0,0,0,6.5,2.091a.062.062,0,0,0,.03.054l5.134,3.223a.636.636,0,0,0,.672,0l5.135-3.224a.062.062,0,0,0,.029-.053A1.273,1.273,0,0,0,16.231.816Z"/><path d="M23.288,1.04A1.5,1.5,0,0,0,21.8.989L18.748,2.766A.5.5,0,0,0,18.5,3.2V6.837a.505.505,0,0,0,.105.308l.707.9a1.412,1.412,0,0,0,.992.391,1.5,1.5,0,0,0,1.2-.59l.768-1.007a1.5,1.5,0,0,0-.213-2.028l1-.4A1.493,1.493,0,0,0,24,3.021v-.7A1.493,1.493,0,0,0,23.288,1.04Z"/></svg>