<svg xmlns="http://www.w3.org/2000/svg" viewBox="0 0 24 24"><title>send-email-envelope</title><path d="M4,7H1A1,1,0,0,0,1,9H4A1,1,0,0,0,4,7Z"/><path d="M3,11H1a1,1,0,0,0,0,2H3a1,1,0,0,0,0-2Z"/><path d="M2.247,15H1a1,1,0,0,0,0,2H2.247a1,1,0,0,0,0-2Z"/><path d="M23.934,7.375a.145.145,0,0,0-.152.029l-8.327,7.308a2.363,2.363,0,0,1-1.547.6,1.743,1.743,0,0,1-1.362-.6L6.416,7.4a.123.123,0,0,0-.143-.029.169.169,0,0,0-.1.125l-1.43,9A1.247,1.247,0,0,0,6,18H20.967a1.8,1.8,0,0,0,1.718-1.5L24,7.5A.115.115,0,0,0,23.934,7.375Z"/><path d="M13.461,13.917a.931.931,0,0,0,1.322,0l8.275-7.264A.421.421,0,0,0,23.2,6.27c-.053-.288-.377-.27-.474-.27H7.894a.563.563,0,0,0-.556.27.355.355,0,0,0,.029.383Z"/></svg>