<svg xmlns="http://www.w3.org/2000/svg" viewBox="0 0 24 24"><defs><style>.a{fill:none;stroke:currentColor;stroke-linecap:round;stroke-linejoin:round;}</style></defs><title>monitor-upload</title><line class="a" x1="5.5" y1="17.5" x2="9.5" y2="17.5"/><line class="a" x1="0.5" y1="11.5" x2="11.5" y2="11.5"/><path class="a" d="M8.5,14.5V16A1.5,1.5,0,0,1,7,17.5"/><path class="a" d="M20.5,9.5v-8a1,1,0,0,0-1-1H1.5a1,1,0,0,0-1,1v12a1,1,0,0,0,1,1h8"/><circle class="a" cx="17.5" cy="17.5" r="6"/><line class="a" x1="17.5" y1="20.5" x2="17.5" y2="14.5"/><line class="a" x1="17.5" y1="14.5" x2="15.25" y2="16.75"/><line class="a" x1="17.5" y1="14.5" x2="19.75" y2="16.75"/></svg>