<svg xmlns="http://www.w3.org/2000/svg" viewBox="0 0 24 24"><defs><style>.a{fill:none;stroke:currentColor;stroke-linecap:round;stroke-linejoin:round;}</style></defs><title>usb-type-c</title><path class="a" d="M15.5,1.5a1,1,0,0,0-1-1h-4a1,1,0,0,0-1,1v4h6Z"/><line class="a" x1="11.5" y1="13.5" x2="11.5" y2="16.5"/><line class="a" x1="13.5" y1="13.542" x2="13.5" y2="16.5"/><rect class="a" x="8.5" y="5.5" width="8" height="8" rx="1" ry="1"/><line class="a" x1="2.5" y1="23.5" x2="2.5" y2="18.5"/><line class="a" x1="1.5" y1="18.5" x2="3.5" y2="18.5"/><path class="a" d="M22.5,18.5a2,2,0,0,0-2,2v1a2,2,0,0,0,2,2"/><line class="a" x1="9.5" y1="23.5" x2="9.5" y2="18.5"/><path class="a" d="M9.5,18.5H10a1.5,1.5,0,0,1,0,3H9.5"/><path class="a" d="M15.5,23.5h-1a1,1,0,0,1-1-1v-3a1,1,0,0,1,1-1h1"/><line class="a" x1="13.5" y1="21.5" x2="15.5" y2="21.5"/><path class="a" d="M5.5,18.5V20a1,1,0,0,0,2,0V18.5"/><line class="a" x1="6.5" y1="21" x2="6.5" y2="23.5"/><line class="a" x1="17.5" y1="21.5" x2="18.5" y2="21.5"/><line class="a" x1="11.5" y1="0.5" x2="11.5" y2="2.5"/><line class="a" x1="13.5" y1="0.5" x2="13.5" y2="2.5"/></svg>