<svg xmlns="http://www.w3.org/2000/svg" viewBox="0 0 24 24"><defs><style>.a{fill:none;stroke:currentColor;stroke-linecap:round;stroke-linejoin:round;stroke-width:1.5px;}</style></defs><title>composition-4-to-3</title><rect class="a" x="0.75" y="5.25" width="22.5" height="13.5" rx="3" ry="3"/><path class="a" d="M15.75,9.75a1.5,1.5,0,0,1,1.5-1.5l1.135.005A1.873,1.873,0,0,1,18.377,12a1.873,1.873,0,0,1,.008,3.745l-1.135.005a1.5,1.5,0,0,1-1.5-1.5"/><line class="a" x1="8.25" y1="15.735" x2="8.25" y2="14.235"/><path class="a" d="M8.25,14.235V8.25a8.26,8.26,0,0,0-4.481,5.985H8.25"/><path class="a" d="M12,9.375a.375.375,0,1,1-.375.375A.375.375,0,0,1,12,9.375"/><path class="a" d="M12,13.875a.375.375,0,1,1-.375.375A.375.375,0,0,1,12,13.875"/></svg>