<svg xmlns="http://www.w3.org/2000/svg" viewBox="0 0 24 24"><defs><style>.a{fill:none;stroke:currentColor;stroke-linecap:round;stroke-linejoin:round;stroke-width:1.5px;}</style></defs><title>common-file-star</title><path class="a" d="M17.956,11.68,19.5,15H22.49a.735.735,0,0,1,.517,1.283l-2.6,2.563,1.44,3.313a.785.785,0,0,1-1.117.982L17.25,21.183l-3.48,1.961a.785.785,0,0,1-1.117-.982l1.44-3.313-2.6-2.563A.734.734,0,0,1,12.008,15h3l1.541-3.323A.8.8,0,0,1,17.956,11.68Z"/><path class="a" d="M8.25,20.25h-6a1.5,1.5,0,0,1-1.5-1.5V2.25A1.5,1.5,0,0,1,2.25.75H12.879a1.5,1.5,0,0,1,1.06.439l2.872,2.872a1.5,1.5,0,0,1,.439,1.06V8.25"/></svg>