<svg xmlns="http://www.w3.org/2000/svg" viewBox="0 0 24 24"><defs><style>.a{fill:none;stroke:currentColor;stroke-linecap:round;stroke-linejoin:round;stroke-width:1.5px;}</style></defs><title>common-file-double-2</title><path class="a" d="M16.5,21.75a1.5,1.5,0,0,1-1.5,1.5H4.5A1.5,1.5,0,0,1,3,21.75V8.25a1.5,1.5,0,0,1,1.5-1.5h7.629a1.5,1.5,0,0,1,1.06.439l2.872,2.872a1.5,1.5,0,0,1,.439,1.06Z"/><path class="a" d="M7.5,6.75V2.25A1.5,1.5,0,0,1,9,.75h7.629a1.5,1.5,0,0,1,1.06.439l2.872,2.872A1.5,1.5,0,0,1,21,5.121V15.75a1.5,1.5,0,0,1-1.5,1.5h-3"/></svg>