<svg xmlns="http://www.w3.org/2000/svg" viewBox="0 0 24 24"><defs><style>.a{fill:none;stroke:currentColor;stroke-linecap:round;stroke-linejoin:round;stroke-width:1.5px;}</style></defs><title>common-file-quill</title><line class="a" x1="11" y1="23.25" x2="16.834" y2="17.416"/><path class="a" d="M23.178,11.052a10.471,10.471,0,0,0-2.24,0l-2,3.18-1.229-2.289c-4.459,2.189-6.2,7.478-4.551,9.13C15.37,23.289,24.128,19.408,23.178,11.052Z"/><path class="a" d="M8.25,20.25h-6a1.5,1.5,0,0,1-1.5-1.5V2.25A1.5,1.5,0,0,1,2.25.75H12.879a1.5,1.5,0,0,1,1.06.439l2.872,2.872a1.5,1.5,0,0,1,.439,1.06V8.25"/></svg>