<?xml version="1.0" encoding="utf-8"?>
<!-- Generator: Adobe Illustrator 22.1.0, SVG Export Plug-In . SVG Version: 6.00 Build 0)  -->
<svg version="1.1" id="Layer_1" xmlns="http://www.w3.org/2000/svg" xmlns:xlink="http://www.w3.org/1999/xlink" x="0px" y="0px"
	 viewBox="0 0 24 24" style="enable-background:new 0 0 24 24;" xml:space="preserve">
<g>
	<title>hierarchy-3</title>
	<path d="M1.5,23.999c-0.827,0-1.5-0.673-1.5-1.5v-1c0-0.827,0.673-1.5,1.5-1.5h11c0.64,0,1.206,0.41,1.415,1.001H17
		c0.552,0,1-0.448,1-1v-5.001h-6.5c-0.827,0-1.5-0.673-1.5-1.5v-1c0-0.827,0.673-1.5,1.5-1.5H13V10c0-0.551-0.448-1-1-1H9
		C7.897,9,7,8.103,7,7V3.999H1.5c-0.827,0-1.5-0.673-1.5-1.5v-1c0-0.827,0.673-1.5,1.5-1.5h11c0.827,0,1.5,0.673,1.5,1.5v1
		c0,0.827-0.673,1.5-1.5,1.5H8V7c0,0.551,0.449,1,1,1h3c1.103,0,2,0.897,2,2v0.999h8.5c0.827,0,1.5,0.673,1.5,1.5v1
		c0,0.827-0.673,1.5-1.5,1.5H19V20c0,1.103-0.897,2-2,2h-3v0.499c0,0.827-0.673,1.5-1.5,1.5H1.5z M1.5,20.999
		c-0.276,0-0.5,0.224-0.5,0.5v1c0,0.276,0.224,0.5,0.5,0.5h11c0.276,0,0.5-0.224,0.5-0.5v-1c0-0.276-0.224-0.5-0.5-0.5H1.5z
		 M11.5,11.999c-0.276,0-0.5,0.224-0.5,0.5v1c0,0.276,0.224,0.5,0.5,0.5h11c0.276,0,0.5-0.224,0.5-0.5v-1c0-0.276-0.224-0.5-0.5-0.5
		h-8.979C13.514,12,13.507,12,13.5,12s-0.014,0-0.021-0.001H11.5z M1.5,0.999c-0.276,0-0.5,0.224-0.5,0.5v1
		c0,0.276,0.224,0.5,0.5,0.5h11c0.276,0,0.5-0.224,0.5-0.5v-1c0-0.276-0.224-0.5-0.5-0.5H1.5z"/>
</g>
</svg>
