<?xml version="1.0" encoding="utf-8"?>
<!-- Generator: Adobe Illustrator 22.1.0, SVG Export Plug-In . SVG Version: 6.00 Build 0)  -->
<svg version="1.1" id="Layer_1" xmlns="http://www.w3.org/2000/svg" xmlns:xlink="http://www.w3.org/1999/xlink" x="0px" y="0px"
	 viewBox="0 0 24 24" style="enable-background:new 0 0 24 24;" xml:space="preserve">
<title>laptop-1</title>
<g>
	<path d="M9.75,15C9.336,15,9,14.664,9,14.25s0.336-0.75,0.75-0.75h3c0.414,0,0.75,0.336,0.75,0.75S13.164,15,12.75,15H9.75z"/>
	<path d="M0.75,22.5C0.336,22.5,0,22.164,0,21.75S0.336,21,0.75,21h9.75v-3H3.751c-1.242-0.004-2.249-1.017-2.245-2.257
		c0.001-0.268,0.049-0.531,0.143-0.782l1.125-3c0.132-0.352,0.354-0.666,0.643-0.911C3.148,10.671,3,10.216,3,9.75v-6
		C3,2.509,4.009,1.5,5.25,1.5h12c1.241,0,2.25,1.009,2.25,2.25v6c0,0.453-0.133,0.885-0.382,1.253
		c0.313,0.251,0.554,0.581,0.695,0.958l0.966,3.027c0.421,1.142-0.172,2.437-1.327,2.869C19.199,17.952,18.934,18,18.663,18H12v3
		h11.25c0.414,0,0.75,0.336,0.75,0.75s-0.336,0.75-0.75,0.75H0.75z M4.876,12c-0.309,0.001-0.589,0.197-0.698,0.487l-1.125,3
		c-0.031,0.083-0.047,0.171-0.047,0.261c-0.001,0.199,0.077,0.388,0.218,0.53s0.329,0.221,0.529,0.222h14.91
		c0.09,0,0.179-0.016,0.263-0.047c0.387-0.145,0.585-0.578,0.439-0.966c-0.003-0.009-0.969-3.035-0.969-3.035
		c-0.097-0.258-0.383-0.451-0.688-0.452H4.876z M5.25,3C4.836,3,4.5,3.336,4.5,3.75v6c0,0.414,0.336,0.75,0.75,0.75h12
		c0.414,0,0.75-0.336,0.75-0.75v-6C18,3.336,17.664,3,17.25,3H5.25z"/>
</g>
</svg>
