<?xml version="1.0" encoding="utf-8"?>
<!-- Generator: Adobe Illustrator 22.1.0, SVG Export Plug-In . SVG Version: 6.00 Build 0)  -->
<svg version="1.1" id="Layer_1" xmlns="http://www.w3.org/2000/svg" xmlns:xlink="http://www.w3.org/1999/xlink" x="0px" y="0px"
	 viewBox="0 0 24 24" style="enable-background:new 0 0 24 24;" xml:space="preserve">
<title>monitor-network</title>
<g>
	<path d="M3,24c-0.414,0-0.75-0.336-0.75-0.75S2.586,22.5,3,22.5h1.875V21H2.25C1.009,21,0,19.991,0,18.75V15
		c0-1.241,1.009-2.25,2.25-2.25H9c1.241,0,2.25,1.009,2.25,2.25v3.75C11.25,19.991,10.241,21,9,21H6.375v1.5H8.25
		C8.664,22.5,9,22.836,9,23.25S8.664,24,8.25,24H3z M2.25,14.25c-0.414,0-0.75,0.336-0.75,0.75v3.75c0,0.414,0.336,0.75,0.75,0.75H9
		c0.414,0,0.75-0.336,0.75-0.75V15c0-0.414-0.336-0.75-0.75-0.75H2.25z"/>
	<path d="M15.75,24C15.336,24,15,23.664,15,23.25s0.336-0.75,0.75-0.75h1.875V21H15c-1.241,0-2.25-1.009-2.25-2.25V15
		c0-1.241,1.009-2.25,2.25-2.25h6.75c1.241,0,2.25,1.009,2.25,2.25v3.75c0,1.241-1.009,2.25-2.25,2.25h-2.625v1.5H21
		c0.414,0,0.75,0.336,0.75,0.75S21.414,24,21,24H15.75z M15,14.25c-0.414,0-0.75,0.336-0.75,0.75v3.75c0,0.414,0.336,0.75,0.75,0.75
		h6.75c0.414,0,0.75-0.336,0.75-0.75V15c0-0.414-0.336-0.75-0.75-0.75H15z"/>
	<path d="M9.375,11.25c-0.414,0-0.75-0.336-0.75-0.75s0.336-0.75,0.75-0.75h1.875v-1.5H8.625c-1.241,0-2.25-1.009-2.25-2.25V2.25
		C6.375,1.009,7.384,0,8.625,0h6.75c1.241,0,2.25,1.009,2.25,2.25V6c0,1.241-1.009,2.25-2.25,2.25H12.75v1.5h1.875
		c0.414,0,0.75,0.336,0.75,0.75s-0.336,0.75-0.75,0.75H9.375z M8.625,1.5c-0.414,0-0.75,0.336-0.75,0.75V6
		c0,0.414,0.336,0.75,0.75,0.75h6.75c0.414,0,0.75-0.336,0.75-0.75V2.25c0-0.414-0.336-0.75-0.75-0.75H8.625z"/>
</g>
</svg>
