<?xml version="1.0" encoding="utf-8"?>
<!-- Generator: Adobe Illustrator 22.1.0, SVG Export Plug-In . SVG Version: 6.00 Build 0)  -->
<svg version="1.1" id="Layer_1" xmlns="http://www.w3.org/2000/svg" xmlns:xlink="http://www.w3.org/1999/xlink" x="0px" y="0px"
	 viewBox="0 0 24 24" style="enable-background:new 0 0 24 24;" xml:space="preserve">
<title>monitor-users</title>
<g>
	<path d="M0.75,9.75C0.336,9.75,0,9.414,0,9V8.25c0-1.248,0.635-2.414,1.656-3.105C1.081,4.586,0.75,3.817,0.75,3
		c0-1.654,1.346-3,3-3s3,1.346,3,3c0,0.817-0.331,1.586-0.906,2.145C6.865,5.836,7.5,7.002,7.5,8.25V9c0,0.414-0.336,0.75-0.75,0.75
		H0.75z M6,8.25C6,7.009,4.991,6,3.75,6S1.5,7.009,1.5,8.25H6z M3.75,1.5c-0.827,0-1.5,0.673-1.5,1.5s0.673,1.5,1.5,1.5
		s1.5-0.673,1.5-1.5S4.577,1.5,3.75,1.5z"/>
	<path d="M17.25,9.75c-0.414,0-0.75-0.336-0.75-0.75V8.25c0-1.249,0.635-2.414,1.656-3.105C17.581,4.586,17.25,3.817,17.25,3
		c0-1.654,1.346-3,3-3s3,1.346,3,3c0,0.817-0.331,1.586-0.906,2.145C23.365,5.836,24,7.001,24,8.25V9c0,0.414-0.336,0.75-0.75,0.75
		H17.25z M22.5,8.25C22.5,7.009,21.491,6,20.25,6S18,7.009,18,8.25H22.5z M20.25,1.5c-0.827,0-1.5,0.673-1.5,1.5s0.673,1.5,1.5,1.5
		s1.5-0.673,1.5-1.5S21.077,1.5,20.25,1.5z"/>
	<path d="M6.75,24C6.336,24,6,23.664,6,23.25s0.336-0.75,0.75-0.75h1.615l0.5-3H5.25C4.009,19.5,3,18.491,3,17.25V12
		c0-0.414,0.336-0.75,0.75-0.75S4.5,11.586,4.5,12v3h15v-3c0-0.414,0.336-0.75,0.75-0.75S21,11.586,21,12v5.25
		c0,1.241-1.009,2.25-2.25,2.25h-3.615l0.5,3h1.615c0.414,0,0.75,0.336,0.75,0.75S17.664,24,17.25,24H6.75z M14.115,22.5l-0.5-3
		h-3.229l-0.5,3H14.115z M4.5,17.25C4.5,17.664,4.836,18,5.25,18h13.5c0.414,0,0.75-0.336,0.75-0.75V16.5h-15V17.25z"/>
	<path d="M9.75,7.5C9.336,7.5,9,7.164,9,6.75S9.336,6,9.75,6h4.5C14.664,6,15,6.336,15,6.75S14.664,7.5,14.25,7.5H9.75z"/>
</g>
</svg>
