<?xml version="1.0" encoding="utf-8"?>
<!-- Generator: Adobe Illustrator 22.1.0, SVG Export Plug-In . SVG Version: 6.00 Build 0)  -->
<svg version="1.1" id="Layer_1" xmlns="http://www.w3.org/2000/svg" xmlns:xlink="http://www.w3.org/1999/xlink" x="0px" y="0px"
	 viewBox="0 0 24 24" style="enable-background:new 0 0 24 24;" xml:space="preserve">
<title>phone-monitor-exchange</title>
<g>
	<path d="M4.5,12c-0.414,0-0.75-0.336-0.75-0.75S4.086,10.5,4.5,10.5H6V9H2.25C1.009,9,0,7.991,0,6.75v-4.5C0,1.009,1.009,0,2.25,0
		h9c1.241,0,2.25,1.009,2.25,2.25v4.5C13.5,7.991,12.491,9,11.25,9H7.5v1.5H9c0.414,0,0.75,0.336,0.75,0.75S9.414,12,9,12H4.5z
		 M2.25,1.5C1.836,1.5,1.5,1.836,1.5,2.25v4.5c0,0.414,0.336,0.75,0.75,0.75h9C11.664,7.5,12,7.164,12,6.75v-4.5
		c0-0.414-0.336-0.75-0.75-0.75H2.25z"/>
	<path d="M17.25,24C16.009,24,15,22.991,15,21.75v-9c0-1.241,1.009-2.25,2.25-2.25h4.5c1.241,0,2.25,1.009,2.25,2.25v9
		c0,1.241-1.009,2.25-2.25,2.25H17.25z M16.5,21.75c0,0.414,0.336,0.75,0.75,0.75h4.5c0.414,0,0.75-0.336,0.75-0.75V21h-6V21.75z
		 M22.5,19.5v-6.75c0-0.414-0.336-0.75-0.75-0.75h-4.5c-0.414,0-0.75,0.336-0.75,0.75v6.75H22.5z"/>
	<path d="M10.5,24c-0.2,0-0.389-0.078-0.53-0.22c-0.292-0.292-0.292-0.768,0-1.061l0.22-0.22H9.75C6.028,22.5,3,19.472,3,15.75
		C3,15.336,3.336,15,3.75,15s0.75,0.336,0.75,0.75C4.5,18.645,6.855,21,9.75,21h0.439l-0.22-0.22c-0.292-0.292-0.292-0.768,0-1.061
		c0.142-0.142,0.33-0.22,0.53-0.22s0.389,0.078,0.53,0.22l1.5,1.5c0.07,0.07,0.125,0.153,0.163,0.245
		c0.003,0.008,0.007,0.017,0.01,0.026c0.031,0.081,0.047,0.17,0.047,0.259c0,0.087-0.016,0.174-0.046,0.258
		c-0.002,0.006-0.004,0.011-0.006,0.017c-0.042,0.104-0.097,0.186-0.168,0.256l-1.5,1.5C10.889,23.922,10.7,24,10.5,24z"/>
	<path d="M23.25,9c-0.414,0-0.75-0.336-0.75-0.75c0-2.787-2.184-5.074-4.93-5.24l0.21,0.21C17.922,3.361,18,3.55,18,3.75
		s-0.078,0.389-0.22,0.53S17.45,4.5,17.25,4.5s-0.389-0.078-0.53-0.22l-1.5-1.5c-0.07-0.07-0.125-0.152-0.163-0.245
		c-0.003-0.008-0.007-0.017-0.01-0.026C15.016,2.428,15,2.339,15,2.25c0-0.087,0.016-0.174,0.046-0.258
		c0.002-0.006,0.004-0.011,0.006-0.016c0.042-0.104,0.098-0.186,0.168-0.257L16.72,0.22C16.861,0.078,17.05,0,17.25,0
		s0.389,0.078,0.53,0.22C17.922,0.361,18,0.55,18,0.75s-0.078,0.389-0.22,0.53l-0.226,0.226C21.135,1.666,24,4.63,24,8.25
		C24,8.664,23.664,9,23.25,9z"/>
</g>
</svg>
