<?xml version="1.0" encoding="utf-8"?>
<!-- Generator: Adobe Illustrator 22.1.0, SVG Export Plug-In . SVG Version: 6.00 Build 0)  -->
<svg version="1.1" id="Layer_1" xmlns="http://www.w3.org/2000/svg" xmlns:xlink="http://www.w3.org/1999/xlink" x="0px" y="0px"
	 viewBox="0 0 24 24" style="enable-background:new 0 0 24 24;" xml:space="preserve">
<title>phone-antenna</title>
<g>
	<path d="M17.25,24C16.009,24,15,22.991,15,21.75v-9c0-1.241,1.009-2.25,2.25-2.25h4.5c1.241,0,2.25,1.009,2.25,2.25v9
		c0,1.241-1.009,2.25-2.25,2.25H17.25z M16.5,21.75c0,0.414,0.336,0.75,0.75,0.75h4.5c0.414,0,0.75-0.336,0.75-0.75V21h-6V21.75z
		 M22.5,19.5v-6.75c0-0.414-0.336-0.75-0.75-0.75h-4.5c-0.414,0-0.75,0.336-0.75,0.75v6.75H22.5z"/>
	<path d="M0.75,11.25c-0.12,0-0.241-0.03-0.348-0.086c-0.366-0.192-0.508-0.646-0.317-1.012l1.428-2.728
		C-0.322,5.366-0.251,2.191,1.72,0.22C1.862,0.078,2.05,0,2.25,0s0.389,0.078,0.53,0.22l2.652,2.652l0.97-0.97
		c0.142-0.142,0.33-0.22,0.53-0.22s0.389,0.078,0.53,0.22c0.142,0.141,0.22,0.33,0.22,0.53s-0.078,0.389-0.22,0.53l-0.97,0.97
		l2.652,2.652c0.142,0.141,0.22,0.33,0.22,0.53s-0.078,0.389-0.22,0.53C8.154,8.635,6.836,9.18,5.432,9.18
		c-0.318,0-0.634-0.029-0.945-0.085l0.643,1c0.224,0.348,0.123,0.813-0.225,1.036c-0.121,0.078-0.261,0.119-0.405,0.119l0,0
		c-0.256,0-0.492-0.129-0.631-0.344l-1.37-2.13l-1.084,2.072C1.285,11.096,1.03,11.25,0.75,11.25z M2.304,1.864
		C1.342,3.324,1.52,5.324,2.78,6.584C3.488,7.291,4.429,7.68,5.432,7.68c0.739,0,1.459-0.218,2.068-0.62L2.304,1.864z"/>
	<path d="M19.5,9c-0.414,0-0.75-0.336-0.75-0.75v-3c0-0.414-0.336-0.75-0.75-0.75h-6c-0.414,0-0.75-0.336-0.75-0.75S11.587,3,12,3h6
		c1.241,0,2.25,1.009,2.25,2.25v3C20.25,8.664,19.914,9,19.5,9z"/>
	<path d="M5.25,21C4.01,21,3,19.991,3,18.75V13.5c0-0.414,0.336-0.75,0.75-0.75S4.5,13.086,4.5,13.5v5.25
		c0,0.414,0.336,0.75,0.75,0.75h7.5c0.414,0,0.75,0.336,0.75,0.75S13.164,21,12.75,21H5.25z"/>
</g>
</svg>
