<?xml version="1.0" encoding="utf-8"?>
<!-- Generator: Adobe Illustrator 22.1.0, SVG Export Plug-In . SVG Version: 6.00 Build 0)  -->
<svg version="1.1" id="Layer_1" xmlns="http://www.w3.org/2000/svg" xmlns:xlink="http://www.w3.org/1999/xlink" x="0px" y="0px"
	 viewBox="0 0 24 24" style="enable-background:new 0 0 24 24;" xml:space="preserve">
<title>router-signal</title>
<g>
	<path d="M8.25,7.501c-0.414,0-0.75-0.336-0.75-0.75v-3c0-0.414,0.336-0.75,0.75-0.75S9,3.337,9,3.751v3
		C9,7.165,8.664,7.501,8.25,7.501z"/>
	<path d="M4.5,9.001c-0.414,0-0.75-0.336-0.75-0.75v-6c0-0.414,0.336-0.75,0.75-0.75s0.75,0.336,0.75,0.75v6
		C5.25,8.665,4.914,9.001,4.5,9.001z"/>
	<path d="M0.75,10.501c-0.414,0-0.75-0.336-0.75-0.75v-9c0-0.414,0.336-0.75,0.75-0.75S1.5,0.337,1.5,0.751v9
		C1.5,10.165,1.164,10.501,0.75,10.501z"/>
	<path d="M15.75,7.501c-0.414,0-0.75-0.336-0.75-0.75v-3c0-0.414,0.336-0.75,0.75-0.75s0.75,0.336,0.75,0.75v3
		C16.5,7.165,16.164,7.501,15.75,7.501z"/>
	<path d="M19.5,9.001c-0.414,0-0.75-0.336-0.75-0.75v-6c0-0.414,0.336-0.75,0.75-0.75s0.75,0.336,0.75,0.75v6
		C20.25,8.665,19.914,9.001,19.5,9.001z"/>
	<path d="M23.25,10.501c-0.414,0-0.75-0.336-0.75-0.75v-9c0-0.414,0.336-0.75,0.75-0.75S24,0.337,24,0.751v9
		C24,10.165,23.664,10.501,23.25,10.501z"/>
	<circle cx="14.25" cy="18.375" r="1.125"/>
	<circle cx="18.75" cy="18.375" r="1.125"/>
	<path d="M19.875,24.001c-0.414,0-0.75-0.336-0.75-0.75v-0.75H4.875v0.75c0,0.414-0.336,0.75-0.75,0.75s-0.75-0.336-0.75-0.75
		v-0.818C1.429,22.078,0,20.39,0,18.376c0-2.274,1.85-4.125,4.125-4.125h7.125v-9c0-0.414,0.336-0.75,0.75-0.75
		s0.75,0.336,0.75,0.75v9h7.125c2.274,0,4.125,1.851,4.125,4.125c0,2.014-1.429,3.702-3.375,4.057v0.818
		C20.625,23.665,20.289,24.001,19.875,24.001z M19.875,21.001c1.448,0,2.625-1.177,2.625-2.625s-1.177-2.625-2.625-2.625H10.5v5.25
		H19.875z M4.125,15.751c-1.447,0-2.625,1.177-2.625,2.625s1.178,2.625,2.625,2.625H9v-5.25H4.125z"/>
</g>
</svg>
