<svg xmlns="http://www.w3.org/2000/svg" viewBox="0 0 24 24"><defs><style>.a{fill:none;stroke:currentColor;stroke-linecap:round;stroke-linejoin:round;stroke-width:1.5px;}</style></defs><title>cloud-phone-exchange</title><path class="a" d="M19.5,19.876a.375.375,0,1,0,.375.375.375.375,0,0,0-.375-.375h0"/><rect class="a" x="15.75" y="11.251" width="7.5" height="12" rx="1.5" ry="1.5"/><polyline class="a" points="3 15.001 5.25 12.751 7.5 15.001"/><polyline class="a" points="9 18.001 11.25 20.251 9 22.501"/><path class="a" d="M12,3.751A2.981,2.981,0,0,0,9.708,4.836,4.489,4.489,0,1,0,5.25,9.751H12a3,3,0,0,0,0-6Z"/><path class="a" d="M5.25,12.751v4.5a3,3,0,0,0,3,3h3"/></svg>