<svg xmlns="http://www.w3.org/2000/svg" viewBox="0 0 24 24"><defs><style>.a{fill:none;stroke:currentColor;stroke-linecap:round;stroke-linejoin:round;stroke-width:1.5px;}</style></defs><title>flag-question</title><line class="a" x1="0.75" y1="23.25" x2="0.75" y2="0.75"/><path class="a" d="M.75,20.293l3.154-.97a9.61,9.61,0,0,1,7.864,1,9.615,9.615,0,0,0,7.679,1.056l2.987-.853a1.126,1.126,0,0,0,.816-1.082V3.637a1.126,1.126,0,0,0-1.434-1.082l-2.369.677a9.615,9.615,0,0,1-7.679-1.056,9.61,9.61,0,0,0-7.864-1L.75,2.145"/><path class="a" d="M10.125,9.375A1.875,1.875,0,1,1,12,11.25v1.5"/><line class="a" x1="12" y1="15.75" x2="12" y2="15.75"/><path class="a" d="M12,15.75a.375.375,0,1,0,.375.375A.375.375,0,0,0,12,15.75"/></svg>