<svg xmlns="http://www.w3.org/2000/svg" viewBox="0 0 24 24"><defs><style>.a{fill:none;stroke:currentColor;stroke-linecap:round;stroke-linejoin:round;stroke-width:1.5px;}</style></defs><title>flag-flash</title><line class="a" x1="0.75" y1="23.25" x2="0.75" y2="0.75"/><path class="a" d="M.75,20.293l3.154-.97a9.61,9.61,0,0,1,7.864,1,9.615,9.615,0,0,0,7.679,1.056l2.987-.853a1.126,1.126,0,0,0,.816-1.082V3.637a1.126,1.126,0,0,0-1.434-1.082l-2.369.677a9.615,9.615,0,0,1-7.679-1.056,9.61,9.61,0,0,0-7.864-1L.75,2.145"/><path class="a" d="M13.5,6,8.14,11.36A.375.375,0,0,0,8.4,12h2.1v4.5l5.36-5.36a.375.375,0,0,0-.265-.64H13.5Z"/></svg>