<?xml version="1.0" encoding="utf-8"?>
<!-- Generator: Adobe Illustrator 22.1.0, SVG Export Plug-In . SVG Version: 6.00 Build 0)  -->
<svg version="1.1" id="Layer_1" xmlns="http://www.w3.org/2000/svg" xmlns:xlink="http://www.w3.org/1999/xlink" x="0px" y="0px"
	 viewBox="0 0 24 24" style="enable-background:new 0 0 24 24;" xml:space="preserve">
<g>
	<title>webcam-1</title>
	<path d="M12,12c-1.93,0-3.5-1.57-3.5-3.5S10.07,5,12,5s3.5,1.57,3.5,3.5S13.93,12,12,12z M12,6c-1.379,0-2.5,1.121-2.5,2.5
		S10.621,11,12,11c1.378,0,2.5-1.121,2.5-2.5S13.378,6,12,6z"/>
	<path d="M7.5,21C7.224,21,7,20.776,7,20.5S7.224,20,7.5,20h1.066l0.857-6H5.5C2.467,14,0,11.533,0,8.5S2.467,3,5.5,3h13
		C21.533,3,24,5.467,24,8.5S21.533,14,18.5,14h-3.923l0.857,6H16.5c0.276,0,0.5,0.224,0.5,0.5S16.776,21,16.5,21H7.5z M14.423,20
		l-0.857-6h-3.133l-0.857,6H14.423z M5.5,4C3.019,4,1,6.019,1,8.5S3.019,13,5.5,13h13c2.481,0,4.5-2.019,4.5-4.5S20.981,4,18.5,4
		H5.5z"/>
	<path d="M11,9c-0.276,0-0.5-0.224-0.5-0.5C10.5,7.673,11.173,7,12,7c0.276,0,0.5,0.224,0.5,0.5S12.276,8,12,8
		c-0.276,0-0.5,0.224-0.5,0.5S11.276,9,11,9z"/>
</g>
</svg>
