<svg xmlns="http://www.w3.org/2000/svg" viewBox="0 0 24 24"><defs><style>.a{fill:none;stroke:currentColor;stroke-linecap:round;stroke-linejoin:round;stroke-width:1.5px;}</style></defs><title>programming-language-monitor-css</title><polygon class="a" points="15 23.25 9 23.25 9.75 18.75 14.25 18.75 15 23.25"/><line class="a" x1="6.75" y1="23.25" x2="17.25" y2="23.25"/><rect class="a" x="0.75" y="0.75" width="22.5" height="18" rx="3" ry="3"/><path class="a" d="M6.75,5.25a3,3,0,0,0-3,3v1.5a3,3,0,0,0,3,3"/><path class="a" d="M18.75,5.25h-1.5a1.5,1.5,0,0,0-1.5,1.5c0,2.25,3,2.25,3,4.5a1.5,1.5,0,0,1-1.5,1.5h-1.5"/><path class="a" d="M12.75,5.25h-1.5a1.5,1.5,0,0,0-1.5,1.5c0,2.25,3,2.25,3,4.5a1.5,1.5,0,0,1-1.5,1.5H9.75"/><line class="a" x1="0.75" y1="15.75" x2="23.25" y2="15.75"/></svg>