<svg xmlns="http://www.w3.org/2000/svg" viewBox="0 0 24 24"><defs><style>.a{fill:none;stroke:currentColor;stroke-linecap:round;stroke-linejoin:round;stroke-width:1.5px;}</style></defs><title>programming-language-monitor-html</title><polygon class="a" points="15 23.25 9 23.25 9.75 18.75 14.25 18.75 15 23.25"/><line class="a" x1="6.75" y1="23.25" x2="17.25" y2="23.25"/><path class="a" d="M23.25,15.75v1.5a1.5,1.5,0,0,1-1.5,1.5H2.25a1.5,1.5,0,0,1-1.5-1.5v-1.5Z"/><path class="a" d="M.75,2.25A1.5,1.5,0,0,1,2.25.75h19.5a1.5,1.5,0,0,1,1.5,1.5"/><line class="a" x1="8.25" y1="12.75" x2="8.25" y2="5.25"/><line class="a" x1="6.75" y1="5.25" x2="9.75" y2="5.25"/><line class="a" x1="0.75" y1="12.75" x2="0.75" y2="5.25"/><line class="a" x1="3.75" y1="12.75" x2="3.75" y2="5.25"/><line class="a" x1="0.75" y1="9.75" x2="3.75" y2="9.75"/><path class="a" d="M20.25,5.25v6a1.5,1.5,0,0,0,1.5,1.5h1.5"/><polyline class="a" points="17.25 12.75 17.25 5.25 15 9 12.75 5.25 12.75 12.75"/></svg>