<svg xmlns="http://www.w3.org/2000/svg" viewBox="0 0 24 24"><defs><style>.a{fill:none;stroke:currentColor;stroke-linecap:round;stroke-linejoin:round;}</style></defs><title>photography-equipment-light-3</title><line class="a" x1="10.25" y1="16.5" x2="10.25" y2="23"/><line class="a" x1="4.25" y1="23" x2="10.25" y2="17"/><line class="a" x1="16.25" y1="23" x2="10.25" y2="17"/><path class="a" d="M11.25,13v3a.5.5,0,0,1-.5.5h-1a.5.5,0,0,1-.5-.5V12.5"/><path class="a" d="M4.224,4.816A1.322,1.322,0,0,0,3.25,6.041V8.449a1.233,1.233,0,0,0,.985,1.17L11.5,10.874a.989.989,0,0,1,.447.2c.351.275,1.117.865,1.8,1.314,1.5.98,5.5.491,5.5.491S20.75,11.9,20.75,7s-1.5-5.878-1.5-5.878-4-.489-5.5.49c-.7.46-1.487,1.065-1.827,1.333a1,1,0,0,1-.394.188Z"/></svg>