<svg xmlns="http://www.w3.org/2000/svg" viewBox="0 0 24 24"><defs><style>.a{fill:none;stroke:currentColor;stroke-linecap:round;stroke-linejoin:round;}</style></defs><title>photography-equipment-flash-light</title><path class="a" d="M17.11,18.506A1.145,1.145,0,0,1,16,19.5H8a1.145,1.145,0,0,1-1.11-.994L6,10.5H18Z"/><rect class="a" x="3" y="0.5" width="18" height="10" rx="2" ry="2"/><path class="a" d="M14,19.5H10v3a1,1,0,0,0,1,1h2a1,1,0,0,0,1-1Z"/><rect class="a" x="6" y="3.5" width="12" height="4"/><line class="a" x1="18" y1="3.5" x2="20.414" y2="1.086"/><line class="a" x1="18" y1="7.5" x2="20.414" y2="9.913"/><line class="a" x1="6" y1="3.5" x2="3.586" y2="1.086"/><line class="a" x1="6" y1="7.5" x2="3.587" y2="9.913"/><circle class="a" cx="13.5" cy="16" r="1.5"/></svg>