<svg xmlns="http://www.w3.org/2000/svg" viewBox="0 0 24 24"><defs><style>.a{fill:none;stroke:currentColor;stroke-linecap:round;stroke-linejoin:round;}</style></defs><title>controls-camera-pause</title><circle class="a" cx="17" cy="18" r="5.5"/><path class="a" d="M11,13.5H1.5a1,1,0,0,1-1-1V1.5a1,1,0,0,1,1-1h13a1,1,0,0,1,1,1V9.962"/><path class="a" d="M23.5,10.882a1,1,0,0,1-1.447.894l-4-2a1,1,0,0,1-.553-.894V5.118a1,1,0,0,1,.553-.894l4-2a1,1,0,0,1,1.447.894Z"/><line class="a" x1="15.5" y1="16" x2="15.5" y2="20"/><line class="a" x1="18.5" y1="16" x2="18.5" y2="20"/></svg>