<svg xmlns="http://www.w3.org/2000/svg" viewBox="0 0 24 24"><title>vinyl-record-album</title><path d="M24,12a9,9,0,0,0-7.247-8.829.249.249,0,0,0-.222.065.252.252,0,0,0-.074.219A3.505,3.505,0,0,1,16.5,4V9.616a.25.25,0,0,0,.175.238,2.25,2.25,0,0,1,0,4.292.25.25,0,0,0-.175.238V20a3.505,3.505,0,0,1-.043.545.25.25,0,0,0,.3.284A9,9,0,0,0,24,12Z"/><path d="M15,20V4a2,2,0,0,0-2-2H2A2,2,0,0,0,0,4V20a2,2,0,0,0,2,2H13A2,2,0,0,0,15,20ZM4.25,13.3h.028a.221.221,0,0,0,.157-.063.217.217,0,0,0,.065-.156V10.125A1.753,1.753,0,0,1,5.928,8.4L9.337,7.3a1.778,1.778,0,0,1,1.531.35A1.743,1.743,0,0,1,11.5,9v4.046A1.75,1.75,0,1,1,9.75,11.3h.028a.221.221,0,0,0,.157-.063A.217.217,0,0,0,10,11.077V9a.25.25,0,0,0-.295-.246L6.3,9.856c-.21.045-.3.149-.3.269v4.921A1.75,1.75,0,1,1,4.25,13.3Z"/></svg>