<svg xmlns="http://www.w3.org/2000/svg" viewBox="0 0 24 24"><defs><style>.a{fill:none;stroke:currentColor;stroke-linecap:round;stroke-linejoin:round;}</style></defs><title>volume-control-up-3</title><circle class="a" cx="17.485" cy="17.514" r="6"/><line class="a" x1="17.485" y1="14.514" x2="17.485" y2="20.514"/><line class="a" x1="20.485" y1="17.514" x2="14.485" y2="17.514"/><path class="a" d="M13.494,10.587V1.014a.5.5,0,0,0-.5-.5,8.5,8.5,0,0,0-7.74,5H2.994a2.5,2.5,0,0,0-2.5,2.5v2a2.5,2.5,0,0,0,2.5,2.5h2.26a8.534,8.534,0,0,0,4.269,4.248"/><path class="a" d="M16.426,9.592a2.987,2.987,0,0,0-2.941-3.578"/></svg>