<svg xmlns="http://www.w3.org/2000/svg" viewBox="0 0 24 24"><defs><style>.a{fill:none;stroke:currentColor;stroke-linecap:round;stroke-linejoin:round;}</style></defs><title>volume-control-off-1_1</title><path class="a" d="M18.252,11.5a2.5,2.5,0,0,1-2.5,2.5"/><line class="a" x1="3.752" y1="20.5" x2="21.252" y2="3.5"/><path class="a" d="M9.231,17.966A8.434,8.434,0,0,0,15.248,20.5a.5.5,0,0,0,.5-.5V11.5"/><path class="a" d="M15.748,6.059V4a.5.5,0,0,0-.5-.5,8.494,8.494,0,0,0-7.74,5H5.248a2.5,2.5,0,0,0-2.5,2.5v2a2.5,2.5,0,0,0,2.5,2.5h.781"/></svg>