<svg xmlns="http://www.w3.org/2000/svg" viewBox="0 0 24 24"><defs><style>.a{fill:none;stroke:currentColor;stroke-linecap:round;stroke-linejoin:round;}</style></defs><title>volume-control-remove-1</title><path class="a" d="M13.505,10.573V1a.5.5,0,0,0-.5-.5,8.5,8.5,0,0,0-7.74,5H3.005A2.5,2.5,0,0,0,.505,8v2a2.5,2.5,0,0,0,2.5,2.5h2.26a8.534,8.534,0,0,0,4.268,4.249"/><path class="a" d="M16.437,9.578A2.992,2.992,0,0,0,13.5,6"/><circle class="a" cx="17.495" cy="17.5" r="6"/><line class="a" x1="19.616" y1="15.379" x2="15.374" y2="19.621"/><line class="a" x1="19.616" y1="19.621" x2="15.374" y2="15.379"/></svg>