<svg xmlns="http://www.w3.org/2000/svg" viewBox="0 0 24 24"><defs><style>.a{fill:none;stroke:currentColor;stroke-linecap:round;stroke-linejoin:round;}</style></defs><title>volume-control-settings-1</title><path class="a" d="M13.505,10.573V1a.5.5,0,0,0-.5-.5,8.5,8.5,0,0,0-7.74,5H3.005A2.5,2.5,0,0,0,.505,8v2a2.5,2.5,0,0,0,2.5,2.5h2.26a8.534,8.534,0,0,0,4.268,4.249"/><path class="a" d="M16.45,8.481A3,3,0,0,0,13.5,6"/><circle class="a" cx="17.745" cy="17.031" r="1.437"/><path class="a" d="M18.966,11.47l.424,1.392a.952.952,0,0,0,1.125.653l1.411-.327a1.283,1.283,0,0,1,1.221,2.126l-.987,1.065a.96.96,0,0,0,0,1.3l.987,1.065a1.283,1.283,0,0,1-1.221,2.126l-1.411-.328a.954.954,0,0,0-1.125.653l-.424,1.392a1.275,1.275,0,0,1-2.442,0L16.1,21.2a.953.953,0,0,0-1.124-.653l-1.411.328a1.283,1.283,0,0,1-1.221-2.126l.987-1.065a.96.96,0,0,0,0-1.3l-.987-1.065a1.283,1.283,0,0,1,1.221-2.126l1.411.327a.951.951,0,0,0,1.124-.653l.424-1.392A1.275,1.275,0,0,1,18.966,11.47Z"/></svg>