<?xml version="1.0" encoding="utf-8"?>
<!-- Generator: Adobe Illustrator 22.1.0, SVG Export Plug-In . SVG Version: 6.00 Build 0)  -->
<svg version="1.1" id="Layer_1" xmlns="http://www.w3.org/2000/svg" xmlns:xlink="http://www.w3.org/1999/xlink" x="0px" y="0px"
	 viewBox="0 0 24 24" style="enable-background:new 0 0 24 24;" xml:space="preserve">
<title>send-email-envelope</title>
<g>
	<path d="M2.558,18.75c-1.241,0-2.25-1.009-2.251-2.249c0-0.139,0.013-0.279,0.038-0.415l1.688-9
		c0.001-0.008,0.012-0.055,0.014-0.062C2.278,5.989,3.195,5.25,4.245,5.25h17.2c0.6,0,1.165,0.235,1.59,0.66
		c0.425,0.426,0.659,0.99,0.659,1.591c0,0.139-0.013,0.278-0.038,0.414l-1.689,9c-0.199,1.064-1.129,1.836-2.212,1.836H2.558z
		 M1.82,16.362c-0.008,0.045-0.013,0.092-0.013,0.138c0,0.413,0.337,0.75,0.75,0.75h17.197c0.361,0,0.672-0.257,0.738-0.612
		l1.441-7.677L12.271,12.7c-0.087,0.033-0.178,0.05-0.271,0.05c-0.119,0-0.238-0.029-0.345-0.084L3.322,8.354L1.82,16.362z
		 M12.044,11.178l10.113-3.913c-0.036-0.11-0.098-0.211-0.182-0.296c-0.142-0.142-0.33-0.22-0.53-0.22h-17.2h0
		c-0.167,0-0.326,0.057-0.455,0.157L12.044,11.178z"/>
</g>
</svg>
