<?xml version="1.0" encoding="utf-8"?>
<!-- Generator: Adobe Illustrator 22.1.0, SVG Export Plug-In . SVG Version: 6.00 Build 0)  -->
<svg version="1.1" id="Layer_1" xmlns="http://www.w3.org/2000/svg" xmlns:xlink="http://www.w3.org/1999/xlink" x="0px" y="0px"
	 viewBox="0 0 24 24" style="enable-background:new 0 0 24 24;" xml:space="preserve">
<title>send-email-fly</title>
<g>
	<path d="M6.75,12C5.509,12,4.5,10.991,4.5,9.75V8.988C3.939,8.917,3.126,8.692,2.345,8.031C0.789,6.712,0,4.263,0,0.75
		c0-0.262,0.133-0.5,0.356-0.638C0.474,0.039,0.61,0,0.75,0c0.115,0,0.231,0.027,0.335,0.079l3.459,1.729
		C4.749,0.778,5.661,0,6.75,0h10.5c1.08,0,1.997,0.782,2.205,1.809l3.46-1.73C23.019,0.027,23.135,0,23.25,0
		c0.139,0,0.276,0.039,0.394,0.112C23.867,0.25,24,0.488,24,0.75c0,3.513-0.789,5.962-2.345,7.281
		c-0.781,0.661-1.594,0.887-2.155,0.957V9.75c0,1.241-1.009,2.25-2.25,2.25H6.75z M6,9.75c0,0.414,0.336,0.75,0.75,0.75h10.5
		c0.414,0,0.75-0.336,0.75-0.75V3.525l-5.636,3.131C12.253,6.717,12.127,6.75,12,6.75s-0.253-0.033-0.364-0.094L6,3.525V9.75z
		 M19.5,7.471c0.335-0.068,0.77-0.229,1.198-0.596c1.005-0.862,1.61-2.546,1.763-4.892L19.5,3.464V7.471z M1.539,1.983
		c0.153,2.347,0.758,4.031,1.763,4.892C3.73,7.242,4.165,7.403,4.5,7.471V3.464L1.539,1.983z M12,5.142l5.894-3.274
		C17.762,1.645,17.52,1.5,17.25,1.5H6.75c-0.27,0-0.512,0.145-0.644,0.368L12,5.142z"/>
	<path d="M12,24c-0.414,0-0.75-0.336-0.75-0.75v-7.5c0-0.414,0.336-0.75,0.75-0.75s0.75,0.336,0.75,0.75v7.5
		C12.75,23.664,12.414,24,12,24z"/>
	<path d="M15.75,19.5c-0.414,0-0.75-0.336-0.75-0.75v-4.5c0-0.414,0.336-0.75,0.75-0.75s0.75,0.336,0.75,0.75v4.5
		C16.5,19.164,16.164,19.5,15.75,19.5z"/>
	<path d="M8.25,19.5c-0.414,0-0.75-0.336-0.75-0.75v-4.5c0-0.414,0.336-0.75,0.75-0.75S9,13.836,9,14.25v4.5
		C9,19.164,8.664,19.5,8.25,19.5z"/>
</g>
</svg>
