<?xml version="1.0" encoding="utf-8"?>
<!-- Generator: Adobe Illustrator 22.1.0, SVG Export Plug-In . SVG Version: 6.00 Build 0)  -->
<svg version="1.1" id="Layer_1" xmlns="http://www.w3.org/2000/svg" xmlns:xlink="http://www.w3.org/1999/xlink" x="0px" y="0px"
	 viewBox="0 0 24 24" style="enable-background:new 0 0 24 24;" xml:space="preserve">
<title>send-email-1</title>
<g>
	<path d="M15.051,23.793c-0.24,0-0.479-0.039-0.709-0.116c-0.706-0.235-1.246-0.803-1.446-1.52l-2.145-8.91
		c0,0-8.899-2.135-8.904-2.136c-0.575-0.162-1.053-0.539-1.345-1.06C0.21,9.529,0.138,8.926,0.301,8.35
		c0.201-0.712,0.74-1.278,1.442-1.514l20.077-6.548c0.149-0.049,0.303-0.073,0.459-0.073c0.366,0,0.717,0.134,0.995,0.378
		c0.022,0.014,0.048,0.033,0.074,0.059c0.014,0.015,0.031,0.035,0.045,0.056c0.141,0.15,0.253,0.337,0.319,0.542
		c0.098,0.302,0.099,0.621,0.003,0.923l-6.542,20.085c-0.19,0.571-0.589,1.031-1.123,1.298
		C15.735,23.713,15.399,23.793,15.051,23.793z M14.347,21.781c0.06,0.211,0.241,0.397,0.469,0.474
		c0.076,0.025,0.155,0.038,0.234,0.038c0.114,0,0.225-0.026,0.329-0.078c0.176-0.088,0.307-0.239,0.369-0.426l6.029-18.507
		l-9.577,9.576L14.347,21.781z M2.214,8.261C1.987,8.337,1.811,8.523,1.744,8.758c-0.11,0.389,0.117,0.796,0.505,0.908l8.89,2.132
		l9.568-9.568L2.214,8.261z"/>
</g>
</svg>
