<svg xmlns="http://www.w3.org/2000/svg" viewBox="0 0 24 24"><title>modern-tv-8k</title><path d="M22.5,0H1.5A1.5,1.5,0,0,0,0,1.5v16A1.5,1.5,0,0,0,1.5,19h21A1.5,1.5,0,0,0,24,17.5V1.5A1.5,1.5,0,0,0,22.5,0ZM22,14.5a.5.5,0,0,1-.5.5H2.5a.5.5,0,0,1-.5-.5V2.5A.5.5,0,0,1,2.5,2h19a.5.5,0,0,1,.5.5Z"/><path d="M14.35,20.681a.5.5,0,0,0-.385-.181h-3.93a.5.5,0,0,0-.385.181l-2.1,2.532A.5.5,0,0,0,7.96,24h8.079a.5.5,0,0,0,.41-.787Z"/><path d="M18.53,3.97a.749.749,0,0,0-1.06,0L15.177,6.263a.25.25,0,0,1-.427-.177V4.5a.75.75,0,0,0-1.5,0v8a.75.75,0,0,0,1.5,0V10.914a.25.25,0,0,1,.427-.177L17.47,13.03a.75.75,0,0,0,1.06-1.06L15.237,8.677a.252.252,0,0,1,0-.354L18.53,5.03A.749.749,0,0,0,18.53,3.97Z"/><path d="M10.509,7.447a.25.25,0,0,1-.062-.322A2.228,2.228,0,0,0,10.75,6a2.25,2.25,0,0,0-4.5,0,2.228,2.228,0,0,0,.3,1.125.25.25,0,0,1-.062.322,3.25,3.25,0,1,0,4.018,0ZM7.75,6a.75.75,0,1,1,.75.75A.751.751,0,0,1,7.75,6Zm.75,5.75A1.75,1.75,0,1,1,10.25,10,1.752,1.752,0,0,1,8.5,11.75Z"/></svg>