<svg xmlns="http://www.w3.org/2000/svg" viewBox="0 0 24 24"><title>modern-tv-remote</title><path d="M21.565.5H2.435A2.447,2.447,0,0,0,0,2.953V15.547A2.447,2.447,0,0,0,2.435,18H8a1,1,0,0,0,0-2H2.435A.45.45,0,0,1,2,15.547V2.953A.45.45,0,0,1,2.435,2.5h19.13A.45.45,0,0,1,22,2.953V15.547a.45.45,0,0,1-.435.453H21a1,1,0,0,0,0,2h.565A2.447,2.447,0,0,0,24,15.547V2.953A2.447,2.447,0,0,0,21.565.5Z"/><path d="M17.5,12.5h-6a1,1,0,0,0-1,1v9a1,1,0,0,0,1,1h6a1,1,0,0,0,1-1v-9A1,1,0,0,0,17.5,12.5ZM16,17a1,1,0,1,1,1-1A1,1,0,0,1,16,17Zm1,2.5a1,1,0,1,1-1-1A1,1,0,0,1,17,19.5ZM13,17a1,1,0,1,1,1-1A1,1,0,0,1,13,17Zm1,2.5a1,1,0,1,1-1-1A1,1,0,0,1,14,19.5Z"/><path d="M18.328,7.5A1,1,0,0,0,18,6.123a6.739,6.739,0,0,0-6.789-.146,1,1,0,1,0,.973,1.748,4.735,4.735,0,0,1,4.771.1A1,1,0,0,0,18.328,7.5Z"/><path d="M16.664,9.31a4.175,4.175,0,0,0-4.21-.085,1,1,0,1,0,.971,1.748,2.175,2.175,0,0,1,2.192.041,1,1,0,1,0,1.047-1.7Z"/></svg>