<svg xmlns="http://www.w3.org/2000/svg" viewBox="0 0 24 24"><title>modern-tv-hd</title><path d="M24,1.5A1.5,1.5,0,0,0,22.5,0H1.5A1.5,1.5,0,0,0,0,1.5v16A1.5,1.5,0,0,0,1.5,19h21A1.5,1.5,0,0,0,24,17.5Zm-2,13a.5.5,0,0,1-.5.5H2.5a.5.5,0,0,1-.5-.5V2.5A.5.5,0,0,1,2.5,2h19a.5.5,0,0,1,.5.5Z"/><path d="M14.35,20.681a.5.5,0,0,0-.385-.181h-3.93a.5.5,0,0,0-.385.181l-2.1,2.532A.5.5,0,0,0,7.96,24h8.079a.5.5,0,0,0,.41-.787Z"/><path d="M13.5,3.75a.75.75,0,0,0-.75.75v8a.75.75,0,0,0,.75.75,4.75,4.75,0,0,0,0-9.5Zm1.084,7.814a.25.25,0,0,1-.228-.032.247.247,0,0,1-.106-.2V5.672a.217.217,0,0,1,.106-.2.25.25,0,0,1,.228-.032,3.25,3.25,0,0,1,0,6.128Z"/><path d="M10.5,3.75a.75.75,0,0,0-.75.75v3a.25.25,0,0,1-.25.25h-2a.25.25,0,0,1-.25-.25v-3a.75.75,0,0,0-1.5,0v8a.75.75,0,0,0,1.5,0v-3a.25.25,0,0,1,.25-.25h2a.25.25,0,0,1,.25.25v3a.75.75,0,0,0,1.5,0v-8A.75.75,0,0,0,10.5,3.75Z"/></svg>