<?xml version="1.0" encoding="utf-8"?>
<!-- Generator: Adobe Illustrator 22.1.0, SVG Export Plug-In . SVG Version: 6.00 Build 0)  -->
<svg version="1.1" id="Layer_1" xmlns="http://www.w3.org/2000/svg" xmlns:xlink="http://www.w3.org/1999/xlink" x="0px" y="0px"
	 viewBox="0 0 24 24" style="enable-background:new 0 0 24 24;" xml:space="preserve">
<g>
	<title>phone-vibrate</title>
	<path d="M12,22.25c-0.414,0-0.75-0.336-0.75-0.75c0-0.391,0.305-0.718,0.696-0.746c0.003,0,0.006-0.001,0.008-0.001
		c0.017-0.002,0.031-0.003,0.046-0.003c0.414,0,0.75,0.336,0.75,0.75S12.414,22.25,12,22.25z"/>
	<path d="M7.5,24C6.121,24,5,22.878,5,21.5v-19C5,1.121,6.121,0,7.5,0h9C17.878,0,19,1.121,19,2.5v19c0,1.378-1.122,2.5-2.5,2.5H7.5
		z M6,21.5C6,22.327,6.673,23,7.5,23h9c0.827,0,1.5-0.673,1.5-1.5V20H6V21.5z M18,19V2.5C18,1.673,17.327,1,16.5,1h-9
		C6.673,1,6,1.673,6,2.5V19H18z"/>
	<path d="M0.5,19c-0.134,0-0.259-0.052-0.354-0.146S0,18.634,0,18.5s0.052-0.259,0.146-0.354L1.293,17l-1.146-1.146
		C0.052,15.759,0,15.634,0,15.5s0.052-0.259,0.146-0.354L1.293,14l-1.146-1.146C0.052,12.759,0,12.634,0,12.5
		s0.052-0.259,0.146-0.354L1.293,11L0.146,9.854C0.052,9.759,0,9.634,0,9.5s0.052-0.259,0.146-0.354L1.293,8L0.146,6.854
		C0.052,6.759,0,6.634,0,6.5s0.052-0.259,0.146-0.354L1.293,5L0.146,3.854C0.052,3.759,0,3.634,0,3.5s0.052-0.259,0.146-0.354
		S0.366,3,0.5,3s0.259,0.052,0.354,0.146l1.5,1.5C2.448,4.741,2.5,4.866,2.5,5S2.448,5.259,2.354,5.354L1.207,6.5l1.146,1.146
		C2.448,7.741,2.5,7.866,2.5,8S2.448,8.259,2.354,8.354L1.207,9.5l1.146,1.146C2.448,10.741,2.5,10.866,2.5,11
		s-0.052,0.259-0.146,0.354L1.207,12.5l1.146,1.146C2.448,13.741,2.5,13.866,2.5,14s-0.052,0.259-0.146,0.354L1.207,15.5
		l1.146,1.146C2.448,16.741,2.5,16.866,2.5,17s-0.052,0.259-0.146,0.354l-1.5,1.5C0.759,18.948,0.634,19,0.5,19z"/>
	<path d="M23.5,19c-0.134,0-0.259-0.052-0.354-0.146l-1.5-1.5C21.552,17.259,21.5,17.134,21.5,17s0.052-0.259,0.146-0.354
		l1.146-1.146l-1.146-1.146C21.552,14.259,21.5,14.134,21.5,14s0.052-0.259,0.146-0.354l1.146-1.146l-1.146-1.146
		C21.552,11.259,21.5,11.134,21.5,11s0.052-0.259,0.146-0.354L22.793,9.5l-1.146-1.146C21.552,8.259,21.5,8.134,21.5,8
		s0.052-0.259,0.146-0.354L22.793,6.5l-1.146-1.146C21.552,5.259,21.5,5.134,21.5,5s0.052-0.259,0.146-0.354l1.5-1.5
		C23.241,3.052,23.366,3,23.5,3s0.259,0.052,0.354,0.146S24,3.366,24,3.5s-0.052,0.259-0.146,0.354L22.707,5l1.146,1.146
		C23.948,6.241,24,6.366,24,6.5s-0.052,0.259-0.146,0.354L22.707,8l1.146,1.146C23.948,9.241,24,9.366,24,9.5
		s-0.052,0.259-0.146,0.354L22.707,11l1.146,1.146C23.948,12.241,24,12.366,24,12.5s-0.052,0.259-0.146,0.354L22.707,14l1.146,1.146
		C23.948,15.241,24,15.366,24,15.5s-0.052,0.259-0.146,0.354L22.707,17l1.146,1.146C23.948,18.241,24,18.366,24,18.5
		s-0.052,0.259-0.146,0.354S23.634,19,23.5,19z"/>
</g>
</svg>
