<?xml version="1.0" encoding="utf-8"?>
<!-- Generator: Adobe Illustrator 22.1.0, SVG Export Plug-In . SVG Version: 6.00 Build 0)  -->
<svg version="1.1" id="Light" xmlns="http://www.w3.org/2000/svg" xmlns:xlink="http://www.w3.org/1999/xlink" x="0px" y="0px"
	 viewBox="0 0 24 24" style="enable-background:new 0 0 24 24;" xml:space="preserve">
<g>
	<title>single-woman-actions-flag</title>
	<path d="M14.5,24c-0.276,0-0.5-0.224-0.5-0.5V12.119c0-0.215,0.137-0.406,0.342-0.474l1.29-0.43
		c0.424-0.141,0.867-0.213,1.317-0.213c0.856,0,1.677,0.253,2.375,0.733c0.509,0.322,1.112,0.495,1.736,0.495
		c0.386,0,0.763-0.066,1.121-0.198l0.502-0.169c0.104-0.034,0.21-0.051,0.316-0.051c0.554,0,1.002,0.449,1.001,1.001v5.946
		c-0.001,0.431-0.276,0.812-0.684,0.948l-0.948,0.316c-0.424,0.141-0.867,0.213-1.318,0.213c-0.855,0-1.677-0.253-2.375-0.733
		c-0.509-0.322-1.111-0.495-1.735-0.495c-0.386,0-0.763,0.067-1.121,0.198L15,19.479V23.5C15,23.776,14.776,24,14.5,24z
		 M16.937,18.008c0.816,0,1.607,0.228,2.289,0.66c0.544,0.373,1.172,0.567,1.826,0.567c0.342,0,0.679-0.054,1-0.161L23,18.759
		l0-5.946l-0.488,0.163c-0.458,0.168-0.947,0.254-1.448,0.254c-0.817,0-1.608-0.229-2.29-0.661
		c-0.544-0.373-1.173-0.568-1.826-0.568c-0.342,0-0.679,0.054-1,0.161L15,12.479v5.946l0.489-0.163
		C15.946,18.095,16.436,18.008,16.937,18.008z"/>
	<path d="M0.5,17c-0.135,0-0.267-0.056-0.361-0.154c-0.094-0.098-0.145-0.232-0.139-0.367c0.044-1.044,0.303-2.049,0.769-2.985
		c0.581-1.165,2.512-1.879,5.184-2.868l0.209-0.077c0.082-0.03,0.14-0.113,0.14-0.201v-0.127c-0.034,0-0.068,0.001-0.102,0.001
		c-1.084,0-2.143-0.29-3.062-0.838c-0.04-0.024-0.08-0.051-0.117-0.082C2.601,8.959,2.537,8.338,2.879,7.917
		C3.232,7.5,3.472,6.908,3.585,5.231c0.117-1.73,0.748-3.131,1.826-4.051C6.303,0.419,7.486,0,8.742,0s2.439,0.419,3.331,1.18
		c1.078,0.92,1.71,2.321,1.827,4.051c0.113,1.676,0.352,2.267,0.699,2.677c0.038,0.047,0.065,0.086,0.089,0.126
		c0.134,0.225,0.173,0.49,0.108,0.745c-0.064,0.255-0.224,0.469-0.45,0.603c-0.923,0.551-1.983,0.843-3.066,0.843
		c-0.034,0-0.068,0-0.102-0.001v0.134c0.001,0.085,0.059,0.167,0.141,0.198c0.474,0.171,0.928,0.339,1.357,0.501
		c0.258,0.098,0.388,0.387,0.291,0.645c-0.073,0.193-0.261,0.323-0.468,0.323c-0.061,0-0.12-0.011-0.177-0.033
		c-0.424-0.16-0.873-0.326-1.347-0.497c-0.474-0.176-0.793-0.631-0.797-1.132V9.045c-0.002-0.328,0.137-0.645,0.38-0.868
		c0.413-0.336,0.632-0.834,0.595-1.341l-0.001-1.568c-0.912-0.232-1.738-0.695-2.41-1.352C8.07,4.573,7.245,5.036,6.333,5.268V6.8
		C6.296,7.335,6.508,7.834,6.901,8.154C7.166,8.396,7.305,8.71,7.303,9.045v1.306c-0.004,0.505-0.323,0.96-0.793,1.135L6.3,11.563
		c-2.271,0.841-4.232,1.567-4.636,2.377C1.34,14.592,1.131,15.283,1.043,16H12.5c0.276,0,0.5,0.224,0.5,0.5S12.776,17,12.5,17H0.5z
		 M11.285,9.221c0.897,0,1.772-0.238,2.533-0.688c-0.48-0.574-0.785-1.296-0.916-3.234C12.687,2.129,10.612,1,8.742,1
		C5.89,1,4.723,3.221,4.583,5.299C4.452,7.232,4.148,7.957,3.667,8.533C4.426,8.982,5.303,9.22,6.202,9.22
		c0.034,0,0.068,0,0.101-0.001V9.042c0-0.051-0.02-0.099-0.056-0.132C5.62,8.401,5.274,7.595,5.334,6.764l-0.001-1.9
		c0-0.244,0.175-0.451,0.415-0.493C6.77,4.196,7.696,3.659,8.357,2.86C8.45,2.748,8.59,2.683,8.742,2.683
		c0.152,0,0.292,0.064,0.385,0.177c0.661,0.799,1.588,1.335,2.609,1.511c0.241,0.041,0.415,0.249,0.415,0.493V6.8
		c0.059,0.803-0.292,1.607-0.941,2.133c-0.01,0.01-0.033,0.056-0.033,0.109V9.22C11.214,9.221,11.249,9.221,11.285,9.221z"/>
</g>
</svg>
