<?xml version="1.0" encoding="utf-8"?>
<!-- Generator: Adobe Illustrator 22.1.0, SVG Export Plug-In . SVG Version: 6.00 Build 0)  -->
<svg version="1.1" id="Light" xmlns="http://www.w3.org/2000/svg" xmlns:xlink="http://www.w3.org/1999/xlink" x="0px" y="0px"
	 viewBox="0 0 24 24" style="enable-background:new 0 0 24 24;" xml:space="preserve">
<g>
	<title>single-woman-actions-address</title>
	<path d="M16.984,23.997c-0.513,0-1.024-0.059-1.52-0.176c-2.995-0.71-5.096-3.458-4.998-6.534c0.111-3.469,3.028-6.291,6.502-6.291
		c0.067,0,0.135,0.001,0.203,0.003c3.611,0.198,6.389,3.179,6.329,6.786v0.839c-0.001,1.31-1.066,2.375-2.374,2.375
		c-1.007-0.001-1.875-0.619-2.218-1.525c-0.509,0.492-1.194,0.775-1.908,0.775c-1.516,0-2.75-1.234-2.75-2.75s1.234-2.75,2.75-2.75
		s2.75,1.234,2.75,2.75v1.125c0,0.367,0.143,0.712,0.402,0.972c0.259,0.26,0.604,0.403,0.971,0.403c0.759,0,1.376-0.616,1.377-1.374
		v-0.849c0.051-3.074-2.309-5.61-5.372-5.779c-0.05-0.001-0.105-0.002-0.16-0.002c-2.99,0-5.406,2.338-5.502,5.323
		c-0.084,2.602,1.694,4.927,4.228,5.528c0.42,0.099,0.854,0.149,1.29,0.149c0.485,0,0.968-0.062,1.434-0.184
		c0.042-0.011,0.084-0.017,0.127-0.017c0.227,0,0.426,0.154,0.483,0.373c0.034,0.129,0.015,0.264-0.052,0.379
		c-0.067,0.115-0.176,0.198-0.305,0.231C18.122,23.924,17.555,23.997,16.984,23.997z M17,15.749c-0.965,0-1.75,0.785-1.75,1.75
		s0.785,1.75,1.75,1.75s1.75-0.785,1.75-1.75S17.965,15.749,17,15.749z"/>
	<path d="M0,16.999c-0.135,0-0.267-0.056-0.361-0.154c-0.094-0.098-0.145-0.232-0.139-0.367c0.044-1.045,0.303-2.049,0.769-2.985
		c0.581-1.164,2.511-1.879,5.183-2.868l0.21-0.078c0.082-0.03,0.14-0.113,0.141-0.201v-0.127c-0.034,0.001-0.068,0.001-0.103,0.001
		c-1.084,0-2.143-0.29-3.061-0.838C2.599,9.357,2.559,9.33,2.522,9.3C2.319,9.134,2.191,8.899,2.164,8.638
		C2.137,8.376,2.214,8.12,2.379,7.916C2.732,7.499,2.972,6.907,3.085,5.23C3.202,3.5,3.834,2.1,4.912,1.179
		c0.892-0.761,2.075-1.18,3.331-1.18s2.439,0.419,3.331,1.18c1.078,0.92,1.71,2.321,1.827,4.051
		c0.113,1.677,0.352,2.267,0.699,2.677c0.039,0.048,0.065,0.086,0.089,0.126c0.134,0.224,0.172,0.489,0.108,0.744
		c-0.064,0.255-0.224,0.469-0.45,0.604c-0.923,0.551-1.983,0.842-3.066,0.842c-0.033,0-0.065,0-0.098-0.001v0.13
		c0.001,0.085,0.059,0.167,0.141,0.197l0.843,0.313c0.258,0.095,0.391,0.383,0.296,0.641c-0.072,0.196-0.261,0.328-0.469,0.328l0,0
		c-0.059,0-0.117-0.01-0.172-0.031l-0.845-0.313c-0.47-0.175-0.789-0.629-0.794-1.13V9.044c-0.002-0.328,0.137-0.645,0.38-0.868
		c0.411-0.336,0.629-0.834,0.591-1.34l-0.001-1.568C9.74,5.035,8.915,4.572,8.242,3.915C7.57,4.572,6.745,5.035,5.833,5.267v1.532
		C5.796,7.334,6.008,7.833,6.401,8.153c0.265,0.242,0.404,0.555,0.402,0.891v1.306c-0.004,0.505-0.323,0.96-0.793,1.135L5.8,11.563
		c-2.27,0.84-4.231,1.567-4.635,2.376c-0.325,0.651-0.533,1.343-0.622,2.06H8.5c0.276,0,0.5,0.224,0.5,0.5s-0.224,0.5-0.5,0.5H0z
		 M10.785,9.22c0.898,0,1.773-0.238,2.534-0.688c-0.48-0.573-0.785-1.295-0.916-3.234c-0.141-2.078-1.308-4.299-4.16-4.299
		c-1.87,0-3.945,1.129-4.159,4.299C3.952,7.231,3.648,7.956,3.167,8.532C3.927,8.982,4.803,9.22,5.702,9.22
		c0.034,0,0.068,0,0.102-0.001V9.041c0-0.051-0.02-0.099-0.056-0.132C5.12,8.4,4.775,7.594,4.834,6.763l-0.001-1.9
		c0-0.244,0.175-0.451,0.415-0.493C6.27,4.195,7.196,3.658,7.857,2.859C7.95,2.747,8.09,2.683,8.242,2.683
		c0.152,0,0.292,0.064,0.385,0.177c0.661,0.799,1.588,1.335,2.609,1.511c0.241,0.041,0.415,0.249,0.415,0.493v1.936
		c0.06,0.802-0.289,1.606-0.936,2.133c-0.01,0.01-0.034,0.056-0.034,0.109v0.178C10.716,9.22,10.75,9.22,10.785,9.22z"/>
</g>
</svg>
