<?xml version="1.0" encoding="utf-8"?>
<!-- Generator: Adobe Illustrator 22.1.0, SVG Export Plug-In . SVG Version: 6.00 Build 0)  -->
<svg version="1.1" id="Light" xmlns="http://www.w3.org/2000/svg" xmlns:xlink="http://www.w3.org/1999/xlink" x="0px" y="0px"
	 viewBox="0 0 24 24" style="enable-background:new 0 0 24 24;" xml:space="preserve">
<g>
	<title>single-woman-actions-edit-2</title>
	<path d="M12.13,23.931c-0.197,0-0.389-0.058-0.554-0.168c-0.222-0.148-0.373-0.375-0.425-0.636c-0.026-0.13-0.026-0.261,0-0.39
		l0.573-2.867c0.039-0.194,0.134-0.371,0.274-0.511l7.523-7.524c0.493-0.493,1.15-0.765,1.849-0.765s1.356,0.271,1.849,0.765
		c1.023,1.025,1.027,2.687,0.01,3.707l-7.524,7.524c-0.141,0.14-0.318,0.234-0.511,0.273l-2.866,0.573
		C12.261,23.924,12.195,23.931,12.13,23.931z M21.367,12.071c-0.43,0-0.835,0.167-1.139,0.471l-7.524,7.524l-0.573,2.865
		l2.866-0.573l7.524-7.523c0.628-0.63,0.628-1.654,0-2.284C22.212,12.241,21.802,12.071,21.367,12.071z"/>
	<path d="M0.533,17.069c-0.143,0-0.279-0.061-0.374-0.168c-0.095-0.106-0.139-0.249-0.123-0.39c0.104-0.882,0.356-1.734,0.748-2.531
		c0.598-1.197,2.588-1.933,5.341-2.952l0.195-0.072c0.102-0.037,0.171-0.131,0.174-0.236l0-0.143
		c-0.039,0.001-0.078,0.001-0.117,0.001c-1.117,0-2.207-0.299-3.153-0.864C3.177,9.685,3.135,9.654,3.095,9.62
		C2.891,9.449,2.766,9.207,2.743,8.941c-0.023-0.266,0.06-0.525,0.232-0.729c0.357-0.423,0.602-1.032,0.72-2.763
		C3.813,3.67,4.462,2.229,5.57,1.282C6.486,0.5,7.702,0.069,8.994,0.069s2.508,0.431,3.424,1.213
		c1.108,0.946,1.758,2.387,1.879,4.167c0.118,1.732,0.353,2.325,0.721,2.764c0.032,0.038,0.062,0.081,0.09,0.126
		c0.138,0.228,0.179,0.497,0.115,0.756c-0.063,0.26-0.224,0.479-0.453,0.617c-0.952,0.57-2.044,0.871-3.158,0.871
		c-0.039,0-0.079,0-0.118-0.001v0.15c0.002,0.094,0.072,0.188,0.169,0.222c1.376,0.461,2.74,1.026,4.048,1.676
		c0.247,0.123,0.348,0.424,0.225,0.67c-0.085,0.171-0.257,0.278-0.448,0.278c-0.077,0-0.154-0.018-0.223-0.053
		c-1.266-0.629-2.588-1.177-3.93-1.626c-0.493-0.177-0.829-0.64-0.841-1.155l0-1.362c0.011-0.36,0.167-0.693,0.428-0.922
		c0.398-0.337,0.611-0.841,0.573-1.354l-0.001-1.632c-0.948-0.239-1.804-0.72-2.5-1.405c-0.696,0.684-1.552,1.165-2.5,1.404v1.595
		C6.455,7.611,6.667,8.122,7.059,8.453c0.266,0.235,0.423,0.566,0.434,0.912l0,1.366c-0.012,0.525-0.346,0.99-0.831,1.164
		l-0.189,0.07C4.127,12.833,2.1,13.583,1.68,14.424c-0.257,0.522-0.445,1.075-0.561,1.645h11.375c0.276,0,0.5,0.224,0.5,0.5
		s-0.224,0.5-0.5,0.5H0.533z M11.617,9.578c0.934,0,1.846-0.25,2.637-0.723c-0.503-0.597-0.819-1.335-0.955-3.338
		c-0.222-3.28-2.369-4.448-4.305-4.448c-2.953,0-4.158,2.297-4.301,4.447C4.556,7.528,4.24,8.265,3.74,8.857
		c0.789,0.471,1.701,0.721,2.635,0.721c0.04,0,0.079,0,0.119-0.001V9.381C6.492,9.325,6.458,9.256,6.406,9.21
		c-0.63-0.532-0.972-1.347-0.911-2.177L5.494,5.069c0-0.244,0.175-0.451,0.415-0.493c1.057-0.182,2.016-0.737,2.699-1.564
		C8.701,2.9,8.842,2.835,8.994,2.835S9.286,2.9,9.379,3.013c0.684,0.827,1.642,1.382,2.699,1.564
		c0.241,0.041,0.415,0.249,0.415,0.493v2c0.06,0.8-0.283,1.61-0.919,2.148c-0.047,0.042-0.079,0.11-0.081,0.18v0.179
		C11.535,9.578,11.576,9.578,11.617,9.578z"/>
</g>
</svg>
