<?xml version="1.0" encoding="utf-8"?>
<!-- Generator: Adobe Illustrator 22.1.0, SVG Export Plug-In . SVG Version: 6.00 Build 0)  -->
<svg version="1.1" id="Light" xmlns="http://www.w3.org/2000/svg" xmlns:xlink="http://www.w3.org/1999/xlink" x="0px" y="0px"
	 viewBox="0 0 24 24" style="enable-background:new 0 0 24 24;" xml:space="preserve">
<g>
	<title>single-woman-actions-player</title>
	<path d="M13,24c-1.103,0-2-0.897-2-2v-9c0-1.103,0.897-2,2-2h9c1.103,0,2,0.897,2,2v9c0,1.103-0.897,2-2,2H13z M13,12
		c-0.552,0-1,0.448-1,1v9c0,0.552,0.448,1,1,1h9c0.552,0,1-0.448,1-1v-9c0-0.552-0.448-1-1-1H13z"/>
	<path d="M15.931,20.25c-0.076,0-0.153-0.01-0.228-0.028c-0.241-0.06-0.444-0.211-0.571-0.424C15.046,19.654,15,19.488,15,19.32
		v-3.64c0-0.512,0.417-0.929,0.929-0.93c0.169,0,0.335,0.046,0.479,0.133l3.034,1.82c0.213,0.127,0.363,0.33,0.424,0.571
		c0.061,0.241,0.024,0.491-0.104,0.704c-0.079,0.131-0.189,0.242-0.321,0.32l-3.034,1.82C16.263,20.205,16.098,20.25,15.931,20.25z
		 M16,19.196l2.828-1.696L16,15.804V19.196z"/>
	<path d="M0.5,17c-0.135,0-0.267-0.056-0.361-0.154c-0.094-0.098-0.145-0.232-0.139-0.367c0.044-1.044,0.303-2.049,0.769-2.985
		c0.581-1.165,2.512-1.879,5.184-2.868l0.209-0.077c0.082-0.03,0.14-0.113,0.14-0.201v-0.127c-0.034,0-0.068,0.001-0.102,0.001
		c-1.084,0-2.143-0.29-3.062-0.838c-0.04-0.024-0.08-0.051-0.117-0.082C2.601,8.959,2.537,8.338,2.879,7.917
		C3.232,7.5,3.472,6.908,3.585,5.231c0.117-1.73,0.748-3.131,1.826-4.051C6.303,0.419,7.486,0,8.742,0s2.439,0.419,3.331,1.18
		c1.078,0.92,1.71,2.321,1.827,4.051c0.113,1.676,0.352,2.267,0.699,2.677c0.038,0.047,0.065,0.086,0.089,0.126
		c0.134,0.225,0.173,0.49,0.108,0.745c-0.064,0.255-0.224,0.469-0.45,0.603c-0.923,0.551-1.983,0.843-3.066,0.843
		c-0.218,0-0.438-0.012-0.653-0.036c-0.023-0.002-0.065-0.014-0.087-0.023c-0.009-0.001-0.041-0.009-0.078-0.028
		c-0.027-0.013-0.051-0.03-0.076-0.049c-0.032-0.024-0.055-0.044-0.076-0.067c-0.02-0.022-0.037-0.047-0.052-0.074
		c-0.019-0.031-0.033-0.058-0.044-0.088c-0.013-0.036-0.018-0.068-0.021-0.089c-0.002-0.005-0.011-0.038-0.011-0.079V9.045
		c-0.002-0.328,0.136-0.645,0.38-0.869c0.411-0.336,0.628-0.834,0.591-1.34l-0.001-1.568c-0.912-0.232-1.738-0.695-2.41-1.352
		C8.07,4.573,7.245,5.036,6.333,5.268V6.8C6.296,7.335,6.508,7.834,6.901,8.154C7.166,8.396,7.305,8.71,7.303,9.045v1.306
		c-0.004,0.505-0.323,0.96-0.793,1.135L6.3,11.563c-2.271,0.841-4.232,1.567-4.636,2.377C1.34,14.592,1.131,15.283,1.043,16H9.5
		c0.276,0,0.5,0.224,0.5,0.5S9.776,17,9.5,17H0.5z M11.285,9.221c0.897,0,1.772-0.238,2.532-0.688
		c-0.48-0.574-0.785-1.296-0.916-3.234C12.687,2.129,10.612,1,8.742,1C5.89,1,4.723,3.221,4.583,5.299
		C4.452,7.232,4.148,7.957,3.667,8.533C4.426,8.982,5.303,9.22,6.202,9.22c0.034,0,0.068,0,0.101-0.001V9.042
		c0-0.051-0.02-0.099-0.056-0.132C5.62,8.401,5.274,7.595,5.334,6.764l-0.001-1.9c0-0.244,0.175-0.451,0.415-0.493
		C6.77,4.196,7.696,3.659,8.357,2.86C8.45,2.748,8.59,2.683,8.742,2.683c0.152,0,0.292,0.064,0.385,0.176
		c0.661,0.799,1.588,1.336,2.61,1.511c0.241,0.041,0.415,0.249,0.415,0.493V6.8c0.06,0.801-0.289,1.605-0.936,2.133
		c-0.01,0.01-0.034,0.056-0.034,0.109V9.22C11.216,9.221,11.251,9.221,11.285,9.221z"/>
</g>
</svg>
