<?xml version="1.0" encoding="utf-8"?>
<!-- Generator: Adobe Illustrator 22.1.0, SVG Export Plug-In . SVG Version: 6.00 Build 0)  -->
<svg version="1.1" id="Light" xmlns="http://www.w3.org/2000/svg" xmlns:xlink="http://www.w3.org/1999/xlink" x="0px" y="0px"
	 viewBox="0 0 24 24" style="enable-background:new 0 0 24 24;" xml:space="preserve">
<g>
	<title>single-woman-actions-money</title>
	<path d="M17.5,22c-0.276,0-0.5-0.224-0.5-0.5V21h-1c-0.276,0-0.5-0.224-0.5-0.5S15.724,20,16,20h2.031
		c0.348,0,0.655-0.208,0.783-0.529c0.084-0.209,0.081-0.438-0.008-0.645c-0.089-0.207-0.252-0.367-0.461-0.45l-2.064-0.825
		c-0.702-0.283-1.155-0.953-1.156-1.708c0-0.491,0.191-0.954,0.539-1.302C16.013,14.192,16.475,14,16.967,14H17v-0.5
		c0-0.276,0.224-0.5,0.5-0.5s0.5,0.224,0.5,0.5V14h1c0.276,0,0.5,0.224,0.5,0.5S19.276,15,19,15h-2.033
		c-0.225,0-0.436,0.088-0.595,0.247c-0.159,0.159-0.247,0.371-0.246,0.595c0,0.345,0.207,0.652,0.528,0.781l2.063,0.825
		c0.457,0.183,0.815,0.532,1.009,0.985c0.194,0.452,0.2,0.953,0.017,1.409C19.461,20.545,18.79,21,18.033,21H18v0.5
		C18,21.776,17.776,22,17.5,22z"/>
	<path d="M17.5,24c-3.584,0-6.5-2.916-6.5-6.5s2.916-6.5,6.5-6.5s6.5,2.916,6.5,6.5S21.084,24,17.5,24z M17.5,12
		c-3.033,0-5.5,2.467-5.5,5.5s2.467,5.5,5.5,5.5s5.5-2.467,5.5-5.5S20.533,12,17.5,12z"/>
	<path d="M0.5,17c-0.135,0-0.267-0.056-0.361-0.154c-0.094-0.098-0.145-0.232-0.139-0.367c0.044-1.044,0.303-2.049,0.769-2.985
		c0.582-1.167,2.518-1.883,5.198-2.874l0.195-0.072c0.082-0.03,0.14-0.113,0.141-0.201V10.22c-0.034,0.001-0.069,0.001-0.103,0.001
		c-1.084,0-2.143-0.29-3.061-0.84C3.099,9.357,3.059,9.33,3.022,9.3C2.818,9.134,2.691,8.899,2.664,8.637
		C2.637,8.376,2.713,8.12,2.879,7.917c0.353-0.417,0.593-1.01,0.706-2.685c0.117-1.73,0.748-3.131,1.826-4.051
		C6.303,0.419,7.486,0,8.742,0s2.439,0.419,3.331,1.18c1.078,0.92,1.71,2.321,1.827,4.051c0.113,1.675,0.352,2.266,0.7,2.678
		c0.036,0.044,0.062,0.083,0.087,0.123c0.278,0.469,0.125,1.073-0.341,1.35c-0.922,0.552-1.983,0.843-3.065,0.843
		c-0.033,0-0.065,0-0.098-0.001v0.13c0.001,0.085,0.059,0.167,0.141,0.197l0.843,0.313c0.125,0.046,0.225,0.138,0.281,0.259
		c0.056,0.121,0.061,0.257,0.015,0.382c-0.072,0.196-0.26,0.327-0.469,0.327c0,0,0,0,0,0c-0.059,0-0.117-0.01-0.172-0.031
		l-0.845-0.313c-0.471-0.175-0.789-0.629-0.794-1.131V9.045c-0.002-0.328,0.136-0.645,0.38-0.869
		c0.411-0.336,0.628-0.834,0.591-1.34l-0.001-1.569c-0.912-0.232-1.738-0.695-2.41-1.352C8.07,4.573,7.245,5.036,6.333,5.267V6.8
		C6.296,7.335,6.508,7.834,6.901,8.155C7.166,8.396,7.305,8.71,7.303,9.045v1.306c-0.004,0.505-0.323,0.96-0.793,1.135l-0.195,0.072
		C4.037,12.4,2.07,13.128,1.665,13.94C1.34,14.592,1.131,15.283,1.043,16H9.5c0.276,0,0.5,0.224,0.5,0.5S9.776,17,9.5,17H0.5z
		 M11.286,9.221c0.897,0,1.772-0.238,2.532-0.689c-0.48-0.575-0.784-1.298-0.916-3.234C12.687,2.129,10.612,1,8.742,1
		C5.89,1,4.723,3.221,4.583,5.299C4.452,7.23,4.148,7.956,3.668,8.533c0.76,0.45,1.636,0.688,2.534,0.688
		c0.034,0,0.068,0,0.102-0.001V9.042c0-0.051-0.02-0.099-0.056-0.132C5.62,8.4,5.275,7.594,5.334,6.764L5.333,4.863
		c0-0.244,0.175-0.452,0.415-0.493C6.77,4.195,7.696,3.659,8.357,2.86C8.45,2.748,8.59,2.683,8.742,2.683
		c0.152,0,0.292,0.064,0.385,0.177c0.661,0.798,1.588,1.335,2.61,1.51c0.24,0.041,0.415,0.248,0.415,0.493V6.8
		c0.06,0.801-0.29,1.605-0.936,2.132c-0.01,0.01-0.034,0.057-0.034,0.109V9.22C11.217,9.221,11.251,9.221,11.286,9.221z"/>
</g>
</svg>
