<?xml version="1.0" encoding="utf-8"?>
<!-- Generator: Adobe Illustrator 22.1.0, SVG Export Plug-In . SVG Version: 6.00 Build 0)  -->
<svg version="1.1" id="Light" xmlns="http://www.w3.org/2000/svg" xmlns:xlink="http://www.w3.org/1999/xlink" x="0px" y="0px"
	 viewBox="0 0 24 24" style="enable-background:new 0 0 24 24;" xml:space="preserve">
<g>
	<title>single-woman-actions-home</title>
	<path d="M13.5,24c-0.827,0-1.5-0.673-1.5-1.5v-5.114l-1.177,0.996C10.732,18.458,10.617,18.5,10.5,18.5
		c-0.147,0-0.286-0.064-0.381-0.176c-0.178-0.211-0.152-0.527,0.058-0.705l5.854-4.954c0.271-0.229,0.615-0.356,0.969-0.356
		s0.698,0.126,0.969,0.356l5.854,4.954c0.21,0.178,0.237,0.495,0.059,0.705c-0.096,0.113-0.235,0.177-0.382,0.177
		c-0.117,0-0.232-0.042-0.322-0.118L22,17.386V22.5c0,0.827-0.673,1.5-1.5,1.5H13.5z M20.5,23c0.276,0,0.5-0.224,0.5-0.5v-5.96
		l-3.677-3.112c-0.091-0.077-0.205-0.119-0.323-0.119s-0.232,0.042-0.323,0.119L13,16.539V22.5c0,0.276,0.224,0.5,0.5,0.5H15v-2.5
		c0-1.103,0.897-2,2-2s2,0.897,2,2V23H20.5z M18,23v-2.5c0-0.552-0.448-1-1-1s-1,0.448-1,1V23H18z"/>
	<path d="M0.5,17c-0.135,0-0.267-0.056-0.361-0.154C0.045,16.748-0.006,16.614,0,16.479c0.044-1.044,0.303-2.049,0.769-2.985
		c0.582-1.167,2.518-1.883,5.198-2.874l0.195-0.072c0.082-0.03,0.14-0.113,0.141-0.201V10.22c-0.034,0.001-0.069,0.001-0.103,0.001
		c-1.084,0-2.143-0.29-3.061-0.84C3.098,9.357,3.058,9.33,3.021,9.3C2.817,9.134,2.69,8.899,2.663,8.637
		C2.636,8.376,2.713,8.12,2.879,7.917c0.353-0.417,0.593-1.01,0.706-2.685c0.117-1.73,0.748-3.131,1.826-4.051
		C6.303,0.419,7.485,0,8.741,0s2.439,0.419,3.331,1.18c1.078,0.92,1.71,2.321,1.827,4.051c0.113,1.675,0.352,2.266,0.7,2.678
		c0.036,0.044,0.062,0.083,0.087,0.123c0.278,0.469,0.125,1.073-0.341,1.35c-0.922,0.552-1.983,0.843-3.065,0.843
		c-0.033,0-0.065,0-0.098-0.001v0.13c0.001,0.085,0.059,0.167,0.141,0.197l0.124,0.046c1.039,0.384,1.937,0.716,2.71,1.05
		c0.253,0.109,0.37,0.404,0.261,0.657c-0.079,0.183-0.26,0.302-0.46,0.302c-0.068,0-0.135-0.014-0.197-0.041
		c-0.747-0.323-1.631-0.649-2.655-1.028l-0.13-0.048c-0.471-0.175-0.79-0.629-0.794-1.131V9.045
		c-0.002-0.328,0.136-0.645,0.38-0.869c0.411-0.336,0.628-0.834,0.591-1.34l-0.001-1.569c-0.912-0.232-1.738-0.695-2.41-1.352
		c-0.672,0.657-1.497,1.12-2.409,1.352V6.8C6.295,7.335,6.508,7.834,6.901,8.155C7.166,8.396,7.305,8.71,7.302,9.045v1.306
		c-0.004,0.505-0.323,0.96-0.793,1.135l-0.195,0.072c-2.278,0.843-4.245,1.57-4.651,2.382C1.339,14.592,1.131,15.283,1.042,16H9
		c0.276,0,0.5,0.224,0.5,0.5S9.275,17,9,17H0.5z M11.285,9.221c0.897,0,1.772-0.238,2.532-0.689
		c-0.48-0.575-0.784-1.298-0.916-3.234C12.687,2.129,10.612,1,8.741,1C5.889,1,4.723,3.221,4.582,5.299
		C4.452,7.23,4.147,7.956,3.667,8.533c0.759,0.45,1.636,0.688,2.534,0.688c0.034,0,0.068,0,0.102-0.001V9.042
		c0-0.051-0.02-0.099-0.056-0.132C5.62,8.4,5.274,7.594,5.334,6.764L5.333,4.863c0-0.244,0.175-0.452,0.415-0.493
		c1.021-0.175,1.948-0.712,2.608-1.51c0.093-0.112,0.233-0.177,0.385-0.177c0.152,0,0.292,0.064,0.385,0.177
		c0.661,0.798,1.588,1.335,2.61,1.51c0.24,0.041,0.415,0.248,0.415,0.493V6.8c0.06,0.801-0.29,1.605-0.936,2.132
		c-0.01,0.01-0.034,0.057-0.034,0.109V9.22C11.216,9.221,11.251,9.221,11.285,9.221z"/>
</g>
</svg>
