<?xml version="1.0" encoding="utf-8"?>
<!-- Generator: Adobe Illustrator 22.1.0, SVG Export Plug-In . SVG Version: 6.00 Build 0)  -->
<svg version="1.1" id="Light" xmlns="http://www.w3.org/2000/svg" xmlns:xlink="http://www.w3.org/1999/xlink" x="0px" y="0px"
	 viewBox="0 0 24 24" style="enable-background:new 0 0 24 24;" xml:space="preserve">
<g>
	<title>single-woman-actions-heart</title>
	<path d="M17.501,23.887c-0.26,0-0.505-0.098-0.692-0.277l-0.035-0.035l-4.749-4.953c-1.069-1.069-1.333-2.702-0.653-4.062
		c0.422-0.843,1.146-1.47,2.04-1.767c0.363-0.121,0.738-0.182,1.116-0.182c0.549,0,1.079,0.126,1.576,0.375
		c0.34,0.17,0.647,0.393,0.915,0.66l0.481,0.482l0.482-0.482c0.666-0.666,1.551-1.033,2.493-1.033s1.827,0.367,2.493,1.033
		c0.268,0.268,0.49,0.576,0.66,0.916c0.679,1.36,0.414,2.995-0.661,4.069l-4.746,4.949C18.036,23.775,17.773,23.887,17.501,23.887z
		 M14.529,13.611c-0.271,0-0.54,0.044-0.8,0.13c-0.64,0.213-1.159,0.662-1.462,1.266c-0.487,0.973-0.296,2.145,0.473,2.915
		l4.76,4.965l4.753-4.956c0.776-0.776,0.968-1.948,0.481-2.922c-0.121-0.243-0.281-0.464-0.473-0.656
		c-0.477-0.477-1.112-0.74-1.786-0.74s-1.309,0.263-1.786,0.74l-0.835,0.835c-0.094,0.094-0.22,0.146-0.354,0.146
		s-0.259-0.052-0.354-0.146l-0.835-0.835c-0.192-0.192-0.413-0.351-0.656-0.473C15.301,13.701,14.921,13.611,14.529,13.611z"/>
	<path d="M0.501,17.11c-0.135,0-0.267-0.056-0.361-0.154c-0.094-0.099-0.145-0.232-0.139-0.368c0.044-1.043,0.303-2.046,0.769-2.982
		c0.581-1.165,2.512-1.879,5.184-2.869l0.208-0.077c0.082-0.03,0.14-0.113,0.141-0.201v-0.129c-0.034,0.001-0.068,0.001-0.102,0.001
		c-1.081,0-2.139-0.29-3.062-0.84C3.1,9.469,3.06,9.441,3.022,9.41c-0.203-0.165-0.33-0.4-0.357-0.661
		C2.638,8.487,2.715,8.231,2.88,8.027C3.233,7.61,3.473,7.018,3.587,5.342c0.117-1.73,0.748-3.131,1.826-4.051
		c0.892-0.761,2.074-1.18,3.33-1.18c1.256,0,2.439,0.419,3.331,1.18c1.078,0.92,1.71,2.32,1.828,4.048
		c0.113,1.677,0.352,2.268,0.699,2.677c0.037,0.045,0.064,0.084,0.089,0.126c0.277,0.466,0.124,1.071-0.342,1.348
		c-0.918,0.548-1.977,0.838-3.062,0.838c-0.034,0-0.068,0-0.102-0.001v0.137c0.001,0.085,0.059,0.167,0.141,0.197l0.842,0.312
		c0.258,0.096,0.391,0.384,0.295,0.642c-0.072,0.195-0.261,0.326-0.469,0.326c0,0,0,0,0,0c-0.059,0-0.118-0.011-0.174-0.031
		l-0.842-0.312c-0.47-0.175-0.789-0.629-0.793-1.131V9.155c-0.002-0.328,0.136-0.645,0.38-0.869
		c0.411-0.336,0.628-0.832,0.591-1.338l-0.001-1.571c-0.912-0.232-1.737-0.695-2.41-1.352c-0.672,0.657-1.497,1.12-2.409,1.352
		v1.535C6.297,7.448,6.509,7.948,6.902,8.268C7.167,8.51,7.306,8.823,7.304,9.158v1.306c-0.004,0.505-0.323,0.96-0.793,1.135
		l-0.209,0.078c-2.271,0.841-4.232,1.567-4.637,2.377c-0.324,0.651-0.533,1.342-0.621,2.057h8.457c0.276,0,0.5,0.224,0.5,0.5
		s-0.224,0.5-0.5,0.5H0.501z M11.287,9.328c0.896,0,1.772-0.238,2.532-0.688c-0.481-0.574-0.785-1.297-0.916-3.234
		c-0.215-3.167-2.29-4.296-4.16-4.296c-2.852,0-4.019,2.221-4.159,4.299C4.453,7.342,4.149,8.067,3.668,8.643
		c0.758,0.448,1.633,0.685,2.529,0.685c0.036,0,0.071,0,0.107-0.001V9.155c0-0.051-0.02-0.099-0.056-0.132
		c-0.627-0.51-0.973-1.316-0.913-2.146L5.334,4.974c0-0.244,0.175-0.451,0.415-0.493c1.022-0.176,1.948-0.712,2.608-1.511
		c0.093-0.112,0.233-0.177,0.385-0.177c0.152,0,0.292,0.064,0.385,0.176c0.661,0.799,1.588,1.336,2.61,1.511
		c0.241,0.041,0.415,0.249,0.415,0.493v1.939c0.059,0.801-0.291,1.604-0.936,2.13c-0.01,0.01-0.034,0.056-0.034,0.109v0.175
		C11.218,9.328,11.252,9.328,11.287,9.328z M3.65,8.666L3.65,8.666z"/>
</g>
</svg>
