<?xml version="1.0" encoding="utf-8"?>
<!-- Generator: Adobe Illustrator 22.1.0, SVG Export Plug-In . SVG Version: 6.00 Build 0)  -->
<svg version="1.1" id="Light" xmlns="http://www.w3.org/2000/svg" xmlns:xlink="http://www.w3.org/1999/xlink" x="0px" y="0px"
	 viewBox="0 0 24 24" style="enable-background:new 0 0 24 24;" xml:space="preserve">
<g>
	<title>single-woman-actions-lock</title>
	<path d="M15.5,24c-0.827,0-1.5-0.673-1.5-1.5v-5.999c0-0.827,0.673-1.5,1.5-1.5V14.5c0-1.93,1.57-3.5,3.5-3.5s3.5,1.57,3.5,3.5
		v0.501c0.827,0,1.5,0.673,1.5,1.5V22.5c0,0.827-0.673,1.5-1.5,1.5H15.5z M15.5,16.001c-0.276,0-0.5,0.224-0.5,0.5V22.5
		c0,0.276,0.224,0.5,0.5,0.5h7c0.276,0,0.5-0.224,0.5-0.5v-5.999c0-0.276-0.224-0.5-0.5-0.5H15.5z M21.5,15v-0.5
		c0-1.378-1.122-2.5-2.5-2.5s-2.5,1.122-2.5,2.5L21.5,15z"/>
	<path d="M19,21.313c-0.965,0-1.75-0.785-1.75-1.75s0.785-1.75,1.75-1.75s1.75,0.785,1.75,1.75S19.965,21.313,19,21.313z M19,18.813
		c-0.414,0-0.75,0.336-0.75,0.75s0.336,0.75,0.75,0.75s0.75-0.336,0.75-0.75S19.414,18.813,19,18.813z"/>
	<path d="M0.5,17c-0.135,0-0.267-0.056-0.361-0.154c-0.094-0.098-0.145-0.232-0.139-0.367c0.044-1.044,0.303-2.049,0.769-2.985
		c0.581-1.165,2.512-1.879,5.184-2.868l0.209-0.077c0.082-0.03,0.14-0.113,0.14-0.201v-0.127c-0.034,0-0.068,0.001-0.102,0.001
		c-1.084,0-2.143-0.29-3.062-0.838c-0.04-0.024-0.08-0.051-0.117-0.082C2.601,8.959,2.537,8.338,2.879,7.917
		C3.232,7.5,3.472,6.908,3.585,5.231c0.117-1.73,0.748-3.131,1.826-4.051C6.303,0.419,7.486,0,8.742,0s2.439,0.419,3.331,1.18
		c1.078,0.92,1.71,2.321,1.827,4.051c0.113,1.676,0.352,2.267,0.699,2.677c0.038,0.047,0.065,0.086,0.089,0.126
		c0.134,0.225,0.173,0.49,0.108,0.745c-0.064,0.255-0.224,0.469-0.45,0.603c-0.923,0.551-1.983,0.843-3.066,0.843
		c-0.031,0-0.063,0-0.094-0.001v0.132c0.001,0.085,0.059,0.167,0.141,0.197l0.171,0.063c1.035,0.382,1.929,0.712,2.701,1.047
		c0.123,0.053,0.217,0.151,0.266,0.275c0.049,0.124,0.047,0.26-0.006,0.383c-0.079,0.183-0.26,0.301-0.459,0.301l0,0
		c-0.069,0-0.136-0.014-0.199-0.042c-0.747-0.324-1.628-0.649-2.649-1.026l-0.172-0.063c-0.471-0.175-0.79-0.629-0.794-1.131V9.707
		c-0.003-0.02-0.004-0.043-0.001-0.071c0-0.002,0-0.004,0.001-0.006V9.045c-0.002-0.328,0.136-0.645,0.38-0.869
		c0.41-0.336,0.625-0.833,0.587-1.339l-0.001-1.569c-0.912-0.232-1.738-0.695-2.41-1.352C8.07,4.573,7.245,5.036,6.333,5.268V6.8
		C6.296,7.335,6.508,7.834,6.901,8.154C7.166,8.396,7.305,8.71,7.303,9.045v1.306c-0.004,0.505-0.323,0.96-0.793,1.135L6.3,11.563
		c-2.271,0.841-4.232,1.567-4.636,2.377C1.34,14.592,1.131,15.283,1.043,16H12.5c0.276,0,0.5,0.224,0.5,0.5S12.776,17,12.5,17H0.5z
		 M11.285,9.221c0.897,0,1.772-0.238,2.533-0.688c-0.48-0.574-0.785-1.296-0.916-3.234C12.687,2.129,10.612,1,8.742,1
		C5.89,1,4.723,3.221,4.583,5.299C4.452,7.232,4.148,7.957,3.667,8.533C4.426,8.982,5.303,9.22,6.202,9.22
		c0.034,0,0.068,0,0.101-0.001V9.042c0-0.051-0.02-0.099-0.056-0.132C5.62,8.401,5.274,7.595,5.334,6.764l-0.001-1.9
		c0-0.244,0.175-0.451,0.415-0.493C6.77,4.196,7.696,3.659,8.357,2.86C8.45,2.748,8.59,2.683,8.742,2.683
		c0.152,0,0.292,0.064,0.385,0.177c0.661,0.799,1.588,1.335,2.609,1.511c0.241,0.041,0.415,0.249,0.415,0.493V6.8
		c0.062,0.8-0.286,1.604-0.931,2.132c-0.011,0.011-0.035,0.057-0.035,0.11V9.22C11.219,9.221,11.252,9.221,11.285,9.221z"/>
</g>
</svg>
