<svg xmlns="http://www.w3.org/2000/svg" viewBox="0 0 24 24"><defs><style>.a{fill:none;stroke:currentColor;stroke-linecap:round;stroke-linejoin:round;}</style></defs><title>door-password-lock</title><path class="a" d="M2.75,7.5a.25.25,0,1,1-.25.25.25.25,0,0,1,.25-.25"/><path class="a" d="M9.25,7.5A.25.25,0,1,1,9,7.75a.25.25,0,0,1,.25-.25"/><path class="a" d="M6,7.5a.25.25,0,1,1-.25.25A.25.25,0,0,1,6,7.5"/><path class="a" d="M2.75,10a.25.25,0,1,1-.25.25A.25.25,0,0,1,2.75,10"/><path class="a" d="M9.25,10a.25.25,0,1,1-.25.25A.25.25,0,0,1,9.25,10"/><path class="a" d="M6,10a.25.25,0,1,1-.25.25A.25.25,0,0,1,6,10"/><line class="a" x1="0.5" y1="5.5" x2="11.5" y2="5.5"/><line class="a" x1="0.5" y1="12.5" x2="11.5" y2="12.5"/><path class="a" d="M21.5,18a.662.662,0,0,1-.481.637l-1.037.3a14.7,14.7,0,0,1-4.043.566H6a1.5,1.5,0,0,1,0-3h9.939a14.74,14.74,0,0,1,4.043.566l1.037.3A.662.662,0,0,1,21.5,18Z"/><path class="a" d="M9.163,19.5a3.5,3.5,0,1,1,0-3"/><path class="a" d="M11.5,19.5a4,4,0,0,1-4,4h-3a4,4,0,0,1-4-4V4.5a4,4,0,0,1,4-4h3a4,4,0,0,1,4,4v12"/></svg>