<svg xmlns="http://www.w3.org/2000/svg" viewBox="0 0 24 24"><defs><style>.a{fill:none;stroke:currentColor;stroke-linecap:round;stroke-linejoin:round;}</style></defs><title>key-lock</title><path class="a" d="M5.979,12.53a5.5,5.5,0,1,0,5.32,7.005l1.213,0,1,.966,1-.961,1,0,1,.954,1-.954,1.5-.007,1.493-1.558L19,16.53H11.284A5.515,5.515,0,0,0,5.979,12.53Z"/><circle class="a" cx="4.005" cy="18.03" r="1.5"/><path class="a" d="M17,10.03a.25.25,0,1,1-.249.251A.251.251,0,0,1,17,10.03"/><line class="a" x1="17" y1="10.53" x2="17.005" y2="13.03"/><path class="a" d="M22.505,17.505a1,1,0,0,0,1-1l.009-7.97a1,1,0,0,0-1-.995l-11-.009a1,1,0,0,0-.995,1v3.029"/><path class="a" d="M12.516,7.53l-.011-2.48a4.5,4.5,0,1,1,9-.04l.011,2.52"/></svg>