<?xml version="1.0" encoding="utf-8"?>
<!-- Generator: Adobe Illustrator 22.1.0, SVG Export Plug-In . SVG Version: 6.00 Build 0)  -->
<svg version="1.1" id="Layer_1" xmlns="http://www.w3.org/2000/svg" xmlns:xlink="http://www.w3.org/1999/xlink" x="0px" y="0px"
	 viewBox="0 0 24 24" style="enable-background:new 0 0 24 24;" xml:space="preserve">
<g>
	<title>microphone-sing-man</title>
	<path d="M17.5,20.997c-0.648,0-1.287-0.212-1.8-0.596c-0.107-0.08-0.176-0.197-0.195-0.329c-0.019-0.132,0.015-0.264,0.095-0.371
		c0.094-0.125,0.243-0.2,0.4-0.2c0.109,0,0.213,0.035,0.3,0.1c0.341,0.256,0.768,0.397,1.2,0.397s0.859-0.141,1.2-0.397
		c0.087-0.065,0.19-0.1,0.3-0.1c0.157,0,0.307,0.075,0.4,0.201c0.08,0.106,0.114,0.238,0.095,0.37
		c-0.019,0.132-0.088,0.25-0.195,0.33C18.787,20.785,18.148,20.997,17.5,20.997z"/>
	<circle cx="19.5" cy="17.5" r="0.75"/>
	<circle cx="15.5" cy="17.5" r="0.75"/>
	<path d="M17.5,24c-3.584,0-6.5-2.916-6.5-6.5V16c0-3.584,2.243-6.5,5-6.5c0.959,0,0.999-0.457,1-0.51
		c0.007-0.271,0.232-0.49,0.5-0.49c4.069,0,6.5,3.813,6.5,7.5v1.5C24,21.085,21.084,24,17.5,24z M12,17.5c0,3.033,2.467,5.5,5.5,5.5
		s5.5-2.467,5.5-5.5v-0.578c-1.048-0.177-1.645-0.647-2.592-1.754c-0.869,0.541-1.87,0.825-2.908,0.825s-2.039-0.285-2.908-0.825
		c-0.947,1.107-1.543,1.578-2.592,1.754V17.5z M17.875,9.513C17.698,9.909,17.226,10.5,16,10.5c-2.182,0-3.961,2.414-3.999,5.402
		c0.735-0.167,1.17-0.581,2.114-1.721C14.21,14.067,14.35,14,14.5,14c0.109,0,0.213,0.035,0.3,0.1
		c0.768,0.576,1.727,0.894,2.7,0.894s1.931-0.318,2.7-0.894c0.086-0.065,0.19-0.1,0.299-0.1c0.15,0,0.29,0.066,0.385,0.181
		c0.944,1.14,1.379,1.554,2.114,1.721C22.959,13.331,21.364,9.752,17.875,9.513z"/>
	<path d="M5.5,17.5C3.57,17.5,2,15.93,2,14V8c0-1.93,1.57-3.5,3.5-3.5S9,6.07,9,8v6C9,15.93,7.43,17.5,5.5,17.5z M3,14
		c0,1.378,1.121,2.5,2.5,2.5S8,15.379,8,14v-0.5H6.5C6.224,13.5,6,13.276,6,13s0.224-0.5,0.5-0.5H8v-1H6.5C6.224,11.5,6,11.276,6,11
		s0.224-0.5,0.5-0.5H8v-1H6.5C6.224,9.5,6,9.276,6,9s0.224-0.5,0.5-0.5H8V8c0-1.379-1.121-2.5-2.5-2.5S3,6.622,3,8v0.5h1.5
		C4.776,8.5,5,8.725,5,9S4.776,9.5,4.5,9.5H3v1h1.5C4.776,10.5,5,10.725,5,11s-0.224,0.5-0.5,0.5H3v1h1.5C4.776,12.5,5,12.725,5,13
		s-0.224,0.5-0.5,0.5H3V14z"/>
	<path d="M10.5,9.5C10.224,9.5,10,9.276,10,9V8c0-2.481-2.019-4.5-4.5-4.5S1,5.519,1,8v1c0,0.276-0.224,0.5-0.5,0.5S0,9.276,0,9V8
		C0,5.143,2.177,2.784,5,2.53V0.5C5,0.225,5.224,0,5.5,0S6,0.225,6,0.5V2.53C8.823,2.784,11,5.143,11,8v1
		C11,9.276,10.776,9.5,10.5,9.5z"/>
	<path d="M22.25,8.613c-0.965,0-1.75-0.785-1.75-1.75s0.785-1.75,1.75-1.75c0.261,0,0.517,0.059,0.75,0.17v-2.95
		c0-0.215-0.138-0.406-0.342-0.474l-2.976-0.827c-0.067-0.022-0.124-0.031-0.18-0.031c-0.217,0-0.409,0.137-0.476,0.34
		C19.009,1.393,19,1.446,19,1.5v3.863c0,0.965-0.785,1.75-1.75,1.75s-1.75-0.785-1.75-1.75s0.785-1.75,1.75-1.75
		c0.261,0,0.517,0.059,0.75,0.17V1.5c0-0.162,0.026-0.321,0.077-0.474C18.281,0.412,18.854,0,19.501,0
		c0.16,0,0.32,0.026,0.473,0.077l2.976,0.827C23.583,1.114,24,1.687,24,2.333v4.53C24,7.828,23.215,8.613,22.25,8.613z M22.25,6.113
		c-0.414,0-0.75,0.336-0.75,0.75s0.336,0.75,0.75,0.75S23,7.277,23,6.863S22.664,6.113,22.25,6.113z M17.25,4.613
		c-0.414,0-0.75,0.336-0.75,0.75s0.336,0.75,0.75,0.75S18,5.777,18,5.363S17.664,4.613,17.25,4.613z"/>
</g>
</svg>
