<?xml version="1.0" encoding="utf-8"?>
<!-- Generator: Adobe Illustrator 22.1.0, SVG Export Plug-In . SVG Version: 6.00 Build 0)  -->
<svg version="1.1" id="Layer_1" xmlns="http://www.w3.org/2000/svg" xmlns:xlink="http://www.w3.org/1999/xlink" x="0px" y="0px"
	 viewBox="0 0 24 24" style="enable-background:new 0 0 24 24;" xml:space="preserve">
<g>
	<title>microphone-sing-woman</title>
	<circle cx="14.505" cy="8.5" r="0.75"/>
	<path d="M16.505,12c-0.644-0.002-1.283-0.214-1.799-0.599c-0.107-0.08-0.177-0.197-0.196-0.329s0.014-0.264,0.094-0.371
		c0.094-0.126,0.244-0.201,0.401-0.201c0.109,0,0.212,0.034,0.299,0.099c0.345,0.257,0.772,0.4,1.203,0.401
		c0.271-0.001,0.536-0.055,0.789-0.161c0.062-0.026,0.127-0.039,0.194-0.039c0.202,0,0.383,0.12,0.461,0.306
		c0.107,0.254-0.013,0.548-0.267,0.655c-0.375,0.158-0.771,0.238-1.177,0.239C16.506,12,16.506,12,16.505,12z"/>
	<path d="M5.505,24c-0.276,0-0.5-0.224-0.5-0.5V21h-0.5c-2.481,0-4.5-2.019-4.5-4.5v-2c0-0.276,0.224-0.5,0.5-0.5s0.5,0.224,0.5,0.5
		V15h1v-4.5c0-1.379,1.121-2.5,2.5-2.5h2c1.379,0,2.5,1.121,2.5,2.5V15h1v-0.5c0-0.276,0.224-0.5,0.5-0.5s0.5,0.224,0.5,0.5v2
		c0,2.481-2.019,4.5-4.5,4.5h-0.5v2.5C6.005,23.776,5.781,24,5.505,24z M1.005,16.5c0,1.93,1.57,3.5,3.5,3.5h2
		c1.93,0,3.5-1.57,3.5-3.5V16h-1v0.5c0,1.378-1.121,2.5-2.5,2.5h-2c-1.379,0-2.5-1.122-2.5-2.5V16h-1V16.5z M3.005,16.5
		c0,0.827,0.673,1.5,1.5,1.5h2c0.827,0,1.5-0.673,1.5-1.5V16h-1.5c-0.276,0-0.5-0.224-0.5-0.5s0.224-0.5,0.5-0.5h1.5v-1h-1.5
		c-0.276,0-0.5-0.224-0.5-0.5s0.224-0.5,0.5-0.5h1.5v-1h-1.5c-0.276,0-0.5-0.224-0.5-0.5s0.224-0.5,0.5-0.5h1.5v-0.5
		c0-0.827-0.673-1.5-1.5-1.5h-0.5v1c0,0.276-0.224,0.5-0.5,0.5s-0.5-0.224-0.5-0.5V9h-0.5c-0.827,0-1.5,0.673-1.5,1.5V11h1.5
		c0.276,0,0.5,0.224,0.5,0.5S4.781,12,4.505,12h-1.5v1h1.5c0.276,0,0.5,0.224,0.5,0.5S4.781,14,4.505,14h-1.5v1h1.5
		c0.276,0,0.5,0.224,0.5,0.5S4.781,16,4.505,16h-1.5V16.5z"/>
	<path d="M18.795,23.154c-0.065,0-0.131-0.007-0.196-0.02c-0.261-0.052-0.487-0.204-0.635-0.426
		c-0.148-0.222-0.201-0.489-0.148-0.751c0.59-2.968,0.93-5.394,1.034-7.399C18.103,14.84,17.302,14.991,16.51,15
		c-3.588,0-6.505-2.916-6.505-6.5c0,0,0-2.007,0-2.011c0.005-2.724,1.729-5.175,4.292-6.103c0.026-0.012,0.053-0.021,0.081-0.029
		C15.062,0.12,15.777,0,16.505,0c3.095,0,5.357,1.386,6.543,4.009c2.526,5.589-0.382,15.261-3.501,18.805
		C19.357,23.03,19.083,23.154,18.795,23.154z M15.01,1.207c0.076,2.939,1.079,3.91,2.14,4.936c1.992,1.927,4.051,3.92,1.646,16.011
		c2.963-3.366,5.639-12.65,3.341-17.732C21.111,2.151,19.216,1,16.505,1C15.997,1,15.494,1.069,15.01,1.207z M11.005,8.5
		c0,3.033,2.467,5.5,5.5,5.5c0.813-0.009,1.633-0.195,2.377-0.538c0.031-4.221-1.219-5.43-2.428-6.6
		c-0.457-0.442-0.967-0.936-1.393-1.599c-1.11,1.043-2.531,1.649-4.057,1.729V8.5z M14.024,1.592
		c-1.675,0.851-2.816,2.524-2.991,4.396c1.355-0.089,2.6-0.67,3.545-1.656C14.263,3.562,14.081,2.66,14.024,1.592z"/>
</g>
</svg>
