<?xml version="1.0" encoding="utf-8"?>
<!-- Generator: Adobe Illustrator 22.1.0, SVG Export Plug-In . SVG Version: 6.00 Build 0)  -->
<svg version="1.1" id="Layer_1" xmlns="http://www.w3.org/2000/svg" xmlns:xlink="http://www.w3.org/1999/xlink" x="0px" y="0px"
	 viewBox="0 0 24 24" style="enable-background:new 0 0 24 24;" xml:space="preserve">
<g>
	<title>microphone-2</title>
	<path d="M12,24c-0.276,0-0.5-0.224-0.5-0.5v-1.595c-0.592-0.196-1.032-0.727-1.097-1.353L10.247,19H10c-0.47,0-0.918-0.224-1.2-0.6
		l-1.073-1.432C7.02,16.838,6.5,16.226,6.5,15.5v-4c0-0.64,0.41-1.205,1-1.414V6.914c-0.59-0.209-1-0.774-1-1.414
		s0.41-1.205,1-1.414V2.5C7.5,1.121,8.621,0,10,0h4c1.378,0,2.5,1.121,2.5,2.5v1.586c0.59,0.209,1,0.774,1,1.414
		s-0.41,1.205-1,1.414v3.172c0.59,0.209,1,0.774,1,1.414v4c0,0.726-0.52,1.338-1.226,1.469L15.2,18.4C14.918,18.776,14.47,19,14,19
		h-0.247l-0.155,1.55c-0.045,0.428-0.253,0.813-0.586,1.083c-0.152,0.123-0.325,0.217-0.511,0.278v1.59C12.5,23.776,12.276,24,12,24
		z M11.398,20.45c0.029,0.281,0.256,0.508,0.539,0.538c0.017,0.001,0.037,0.002,0.057,0.002c0.315,0,0.577-0.233,0.609-0.542
		L12.748,19h-1.495L11.398,20.45z M9.6,17.8C9.694,17.925,9.843,18,10,18h4c0.156,0,0.306-0.075,0.4-0.2L15,17H9L9.6,17.8z M8,11
		c-0.276,0-0.5,0.224-0.5,0.5v4C7.5,15.776,7.724,16,8,16h8c0.276,0,0.5-0.224,0.5-0.5v-4c0-0.276-0.224-0.5-0.5-0.5h-3
		c-0.276,0-0.5-0.224-0.5-0.5v-4C12.5,6.224,12.724,6,13,6h3c0.276,0,0.5-0.224,0.5-0.5S16.276,5,16,5H8C7.724,5,7.5,5.224,7.5,5.5
		S7.724,6,8,6h3c0.276,0,0.5,0.224,0.5,0.5v4c0,0.276-0.224,0.5-0.5,0.5H8z M15.5,10V7h-2v3H15.5z M10.5,10V7h-2v3H10.5z M15.5,4
		V2.5C15.5,1.673,14.827,1,14,1h-4C9.173,1,8.5,1.673,8.5,2.5V4H15.5z"/>
</g>
</svg>
