<?xml version="1.0" encoding="utf-8"?>
<!-- Generator: Adobe Illustrator 22.1.0, SVG Export Plug-In . SVG Version: 6.00 Build 0)  -->
<svg version="1.1" id="Layer_1" xmlns="http://www.w3.org/2000/svg" xmlns:xlink="http://www.w3.org/1999/xlink" x="0px" y="0px"
	 viewBox="0 0 24 24" style="enable-background:new 0 0 24 24;" xml:space="preserve">
<g>
	<title>microphone-podcast</title>
	<path d="M9.035,24c-0.268,0-0.519-0.105-0.708-0.294c-0.188-0.189-0.292-0.44-0.292-0.708c0-0.048,0.004-0.094,0.01-0.139
		c0.171-1.19,0.795-2.242,1.756-2.963c0.647-0.485,1.403-0.784,2.198-0.872V18h-1.5C7.467,18,5,15.533,5,12.5v-7
		C5,2.467,7.467,0,10.5,0h3C16.533,0,19,2.467,19,5.5v7c0,3.033-2.467,5.5-5.5,5.5H13v1.025c0.046,0.005,0.093,0.01,0.139,0.017
		c1.965,0.282,3.534,1.851,3.816,3.816c0.038,0.264-0.03,0.528-0.189,0.741c-0.161,0.214-0.395,0.353-0.659,0.39
		C16.06,23.997,16.012,24,15.965,24H9.035z M12.492,19.996c-0.756,0-1.479,0.242-2.09,0.699C9.654,21.256,9.169,22.074,9.036,23
		l6.924,0c-0.214-1.528-1.435-2.749-2.962-2.968C12.83,20.008,12.66,19.996,12.492,19.996z M13.5,17c2.481,0,4.5-2.019,4.5-4.5V10
		h-1.5C16.224,10,16,9.776,16,9.5S16.224,9,16.5,9H18V8h-1.5C16.224,8,16,7.776,16,7.5S16.224,7,16.5,7H18V6h-1.5
		C16.224,6,16,5.776,16,5.5S16.224,5,16.5,5h1.466c-0.25-2.263-2.164-4-4.466-4h-3C8.197,1,6.284,2.737,6.034,5H11.5
		C11.776,5,12,5.224,12,5.5S11.776,6,11.5,6H6v1h5.5C11.776,7,12,7.224,12,7.5S11.776,8,11.5,8H6v1h5.5C11.776,9,12,9.224,12,9.5
		S11.776,10,11.5,10H6v2.5c0,2.481,2.019,4.5,4.5,4.5H12v-1.051c-1.155-0.234-2-1.25-2-2.449c0-1.379,1.121-2.5,2.5-2.5
		c1.378,0,2.5,1.121,2.5,2.5c0,1.199-0.845,2.215-2,2.449V17H13.5z M12.5,12c-0.827,0-1.5,0.673-1.5,1.5s0.673,1.5,1.5,1.5
		s1.5-0.673,1.5-1.5S13.327,12,12.5,12z"/>
</g>
</svg>
