<svg xmlns="http://www.w3.org/2000/svg" viewBox="0 0 24 24"><title>expand-full</title><path d="M23.75,2.453a2.206,2.206,0,0,0-2.2-2.2H15.818a1.25,1.25,0,0,0,0,2.5H21a.25.25,0,0,1,.25.25V6.271a1.25,1.25,0,1,0,2.5,0Z"/><path d="M.25,6.271a1.25,1.25,0,0,0,2.5,0V3A.25.25,0,0,1,3,2.749H8.182a1.25,1.25,0,0,0,0-2.5H2.455a2.206,2.206,0,0,0-2.2,2.2Z"/><path d="M23.75,21.545V17.726a1.25,1.25,0,0,0-2.5,0V21a.25.25,0,0,1-.25.25H15.818a1.25,1.25,0,0,0,0,2.5h5.727A2.206,2.206,0,0,0,23.75,21.545Z"/><path d="M.25,21.545a2.206,2.206,0,0,0,2.205,2.2H8.182a1.25,1.25,0,0,0,0-2.5H3A.25.25,0,0,1,2.75,21V17.726a1.25,1.25,0,0,0-2.5,0Z"/><rect x="5.273" y="8.136" width="13.454" height="7.727" rx="1.954" ry="1.954"/></svg>