<svg xmlns="http://www.w3.org/2000/svg" viewBox="0 0 24 24"><title>shrink-2</title><path d="M.616,23.383a1.251,1.251,0,0,0,1.768,0L6.5,19.267a.25.25,0,0,1,.354,0l1.439,1.439A1,1,0,0,0,9,21a.987.987,0,0,0,.383-.076A1,1,0,0,0,10,20V15a1,1,0,0,0-1-1H4a1,1,0,0,0-.707,1.707l1.439,1.439a.25.25,0,0,1,0,.354L.616,21.615A1.251,1.251,0,0,0,.616,23.383Z"/><path d="M23.384.615a1.251,1.251,0,0,0-1.768,0L17.5,4.731a.25.25,0,0,1-.354,0L15.707,3.292A1,1,0,0,0,14,4V9a1,1,0,0,0,1,1h5a1,1,0,0,0,.707-1.707l-1.439-1.44a.249.249,0,0,1,0-.353l4.116-4.116A1.251,1.251,0,0,0,23.384.615Z"/></svg>