<svg xmlns="http://www.w3.org/2000/svg" viewBox="0 0 24 24"><title>face-id-2</title><path d="M13.041,14.906a1.863,1.863,0,0,1-2.082,0,.751.751,0,0,0-.918,1.188,3.253,3.253,0,0,0,3.918,0,.751.751,0,0,0-.918-1.188Z"/><circle cx="14" cy="12.5" r="1"/><circle cx="10" cy="12.5" r="1"/><path d="M19,13V10.5a7,7,0,0,0-14,0V13a7,7,0,0,0,14,0Zm-7,5a5.006,5.006,0,0,1-5-5V10.75a.25.25,0,0,1,.25-.25H8c1.291,0,3.908.318,5.838-1.813A.22.22,0,0,1,14,8.615a.217.217,0,0,1,.162.072,5.281,5.281,0,0,0,2.673,1.6A.219.219,0,0,1,17,10.5V13A5.006,5.006,0,0,1,12,18Z"/><path d="M6.5,22H2.25A.25.25,0,0,1,2,21.75V17.5a1,1,0,0,0-2,0V22a2,2,0,0,0,2,2H6.5a1,1,0,0,0,0-2Z"/><path d="M1,7.5a1,1,0,0,0,1-1V2.25A.25.25,0,0,1,2.25,2H6.5a1,1,0,0,0,0-2H2A2,2,0,0,0,0,2V6.5A1,1,0,0,0,1,7.5Z"/><path d="M23,16.5a1,1,0,0,0-1,1v4.25a.25.25,0,0,1-.25.25H17.5a1,1,0,0,0,0,2H22a2,2,0,0,0,2-2V17.5A1,1,0,0,0,23,16.5Z"/><path d="M22,0H17.5a1,1,0,0,0,0,2h4.25a.25.25,0,0,1,.25.25V6.5a1,1,0,0,0,2,0V2A2,2,0,0,0,22,0Z"/></svg>