<svg xmlns="http://www.w3.org/2000/svg" viewBox="0 0 24 24"><title>face-id-9</title><path d="M17.7,17.232a6.129,6.129,0,0,0-3.83-3.676.25.25,0,0,1-.028-.465,4.253,4.253,0,1,0-3.619-.025.251.251,0,0,1-.033.465,6.123,6.123,0,0,0-3.892,3.7A.75.75,0,0,0,7,18.25H17a.751.751,0,0,0,.7-1.018ZM9.807,9.25a2.145,2.145,0,0,1,.126-.72.249.249,0,0,1,.151-.153A.252.252,0,0,1,10.3,8.4a5.648,5.648,0,0,0,2.944.851,5.382,5.382,0,0,0,.765-.056.249.249,0,0,1,.285.266,2.247,2.247,0,0,1-4.485-.21Z"/><path d="M18.364,18.364a1,1,0,0,1,1.414,0l.707.707a1,1,0,0,1-1.414,1.414l-.707-.707A1,1,0,0,1,18.364,18.364Z"/><path d="M12,21.5a1,1,0,0,1,1,1V23a1,1,0,0,1-2,0v-.5A1,1,0,0,1,12,21.5Z"/><path d="M17.3,6.7a1,1,0,0,1,0-1.415l1.768-1.767a1,1,0,0,1,1.414,1.414L18.718,6.7A1,1,0,0,1,17.3,6.7Z"/><path d="M12,3.5a1,1,0,0,1-1-1V1a1,1,0,0,1,2,0V2.5A1,1,0,0,1,12,3.5Z"/><path d="M20.5,12a1,1,0,0,1,1-1H23a1,1,0,0,1,0,2H21.5A1,1,0,0,1,20.5,12Z"/><path d="M5.636,5.636a1,1,0,0,1-1.414,0l-.707-.707A1,1,0,0,1,4.929,3.515l.707.707A1,1,0,0,1,5.636,5.636Z"/><path d="M5.282,18.717a1,1,0,0,1,0,1.415l-.353.353a1,1,0,0,1-1.414-1.414l.353-.354A1,1,0,0,1,5.282,18.717Z"/><path d="M2.5,12a1,1,0,0,1-1,1H1a1,1,0,0,1,0-2h.5A1,1,0,0,1,2.5,12Z"/></svg>