<svg id="Bold" xmlns="http://www.w3.org/2000/svg" viewBox="0 0 24 24"><title>multiple-actions-flag</title><circle cx="14.388" cy="3.473" r="2.977"/><path d="M14.388,7.442a4.5,4.5,0,0,0-3.566,1.743.249.249,0,0,0,.011.316,5.612,5.612,0,0,1,1.587,2.757.249.249,0,0,0,.24.187h.4a.252.252,0,0,0,.2-.1c.658-.884,3.072-1.778,5.136-1.37a.248.248,0,0,0,.287-.31A4.444,4.444,0,0,0,14.388,7.442Z"/><path d="M10.915,14.078h0A5.458,5.458,0,1,0,0,14.078V17.55a.5.5,0,0,0,.5.5h1.8a.247.247,0,0,1,.247.227l.44,5.271A.5.5,0,0,0,3.473,24H7.442a.5.5,0,0,0,.494-.455l.439-5.271a.248.248,0,0,1,.248-.227h1.8a.5.5,0,0,0,.5-.5Z"/><circle cx="5.457" cy="3.473" r="3.473"/><path d="M23.771,13.034A.493.493,0,0,0,23.3,13l-.865.4-.025.011a3.034,3.034,0,0,1-2.682-.372,4.074,4.074,0,0,0-3.571-.486l-1.259.427a.5.5,0,0,0-.337.47l.008,9.556a.993.993,0,0,0,1.985,0V19.124a.247.247,0,0,1,.189-.241,3.019,3.019,0,0,1,2.428.437,4.041,4.041,0,0,0,2.268.692,4.171,4.171,0,0,0,1.338-.222l.025-.01.914-.421a.5.5,0,0,0,.288-.45V13.452A.494.494,0,0,0,23.771,13.034Z"/><circle cx="14.388" cy="3.473" r="2.977"/><path d="M14.388,7.442a4.5,4.5,0,0,0-3.566,1.743.249.249,0,0,0,.011.316,5.612,5.612,0,0,1,1.587,2.757.249.249,0,0,0,.24.187h.4a.252.252,0,0,0,.2-.1c.658-.884,3.072-1.778,5.136-1.37a.248.248,0,0,0,.287-.31A4.444,4.444,0,0,0,14.388,7.442Z"/><path d="M10.915,14.078h0A5.458,5.458,0,1,0,0,14.078V17.55a.5.5,0,0,0,.5.5h1.8a.247.247,0,0,1,.247.227l.44,5.271A.5.5,0,0,0,3.473,24H7.442a.5.5,0,0,0,.494-.455l.439-5.271a.248.248,0,0,1,.248-.227h1.8a.5.5,0,0,0,.5-.5Z"/><circle cx="5.457" cy="3.473" r="3.473"/><path d="M23.771,13.034A.493.493,0,0,0,23.3,13l-.865.4-.025.011a3.034,3.034,0,0,1-2.682-.372,4.074,4.074,0,0,0-3.571-.486l-1.259.427a.5.5,0,0,0-.337.47l.008,9.556a.993.993,0,0,0,1.985,0V19.124a.247.247,0,0,1,.189-.241,3.019,3.019,0,0,1,2.428.437,4.041,4.041,0,0,0,2.268.692,4.171,4.171,0,0,0,1.338-.222l.025-.01.914-.421a.5.5,0,0,0,.288-.45V13.452A.494.494,0,0,0,23.771,13.034Z"/></svg>