<svg id="Bold" xmlns="http://www.w3.org/2000/svg" viewBox="0 0 24 24"><title>multiple-actions-home</title><circle cx="14.5" cy="3.5" r="3"/><path d="M12.353,12.609a.25.25,0,0,0,.406.142l2.626-2.222h0a2.31,2.31,0,0,1,2.765-.283.25.25,0,0,0,.341-.335A4.529,4.529,0,0,0,10.9,9.26a.25.25,0,0,0,.005.311A6.973,6.973,0,0,1,12.353,12.609Z"/><path d="M0,17.5a.5.5,0,0,0,.5.5H2.31a.25.25,0,0,1,.249.229L3,23.542A.5.5,0,0,0,3.5,24h4a.5.5,0,0,0,.5-.458l.356-4.268a.249.249,0,0,0-.035-.148,1.988,1.988,0,0,1-.166-.329,2.508,2.508,0,0,1,.731-2.767l2.027-1.715A.253.253,0,0,0,11,14.124V14h0A5.5,5.5,0,0,0,0,14Z"/><circle cx="5.5" cy="3.5" r="3.5"/><path d="M10.177,17.618a.5.5,0,0,0,.323.882h1.25a.25.25,0,0,1,.25.25V23.5a.5.5,0,0,0,.5.5H15a.5.5,0,0,0,.5-.5V21.25a1.5,1.5,0,0,1,3,0V23.5a.5.5,0,0,0,.5.5h2.5a.5.5,0,0,0,.5-.5V18.75a.25.25,0,0,1,.25-.25H23.5a.5.5,0,0,0,.323-.882l-6.5-5.5a.5.5,0,0,0-.646,0Z"/><circle cx="14.5" cy="3.5" r="3"/><path d="M12.353,12.609a.25.25,0,0,0,.406.142l2.626-2.222h0a2.31,2.31,0,0,1,2.765-.283.25.25,0,0,0,.341-.335A4.529,4.529,0,0,0,10.9,9.26a.25.25,0,0,0,.005.311A6.973,6.973,0,0,1,12.353,12.609Z"/><path d="M0,17.5a.5.5,0,0,0,.5.5H2.31a.25.25,0,0,1,.249.229L3,23.542A.5.5,0,0,0,3.5,24h4a.5.5,0,0,0,.5-.458l.356-4.268a.249.249,0,0,0-.035-.148,1.988,1.988,0,0,1-.166-.329,2.508,2.508,0,0,1,.731-2.767l2.027-1.715A.253.253,0,0,0,11,14.124V14h0A5.5,5.5,0,0,0,0,14Z"/><circle cx="5.5" cy="3.5" r="3.5"/><path d="M10.177,17.618a.5.5,0,0,0,.323.882h1.25a.25.25,0,0,1,.25.25V23.5a.5.5,0,0,0,.5.5H15a.5.5,0,0,0,.5-.5V21.25a1.5,1.5,0,0,1,3,0V23.5a.5.5,0,0,0,.5.5h2.5a.5.5,0,0,0,.5-.5V18.75a.25.25,0,0,1,.25-.25H23.5a.5.5,0,0,0,.323-.882l-6.5-5.5a.5.5,0,0,0-.646,0Z"/></svg>