<svg id="Bold" xmlns="http://www.w3.org/2000/svg" viewBox="0 0 24 24"><title>multiple-actions-flight</title><circle cx="14.499" cy="3.5" r="3"/><path d="M12.493,13.939a.251.251,0,0,0,.37.21,2.328,2.328,0,0,1,1.908-.137h0l2.61.972a.258.258,0,0,0,.087.016H18.5a.5.5,0,0,0,.5-.5V11.9a4.456,4.456,0,0,0-4.5-4.4,4.528,4.528,0,0,0-3.6,1.761.25.25,0,0,0,.005.311A6.813,6.813,0,0,1,12.493,13.939Z"/><circle cx="5.5" cy="3.5" r="3.5"/><path d="M22.553,15.556l-.008,0-.01,0a1.8,1.8,0,0,0-1.4.271l-2,1.365a.252.252,0,0,1-.229.027l-4.652-1.732a.835.835,0,0,0-.782.112,8.271,8.271,0,0,0-1.026.787.842.842,0,0,0,.139,1.2.243.243,0,0,0,.032.024l2.683,1.66a.251.251,0,0,1,.119.2.255.255,0,0,1-.1.212l-.958.709a.25.25,0,0,1-.276.015l-1.148-.677a.283.283,0,0,0-.053-.023.778.778,0,0,0-.713.139l-.005.005a10.072,10.072,0,0,0-.995.853.758.758,0,0,0-.165.563.772.772,0,0,0,.3.528l.013.01,2.87,2.015a.979.979,0,0,0,1.085.033l7.854-4.877h0a1.882,1.882,0,0,0-.576-3.418Z"/><path d="M11,14h0A5.5,5.5,0,0,0,0,14v3.5a.5.5,0,0,0,.5.5H2.31a.25.25,0,0,1,.249.229L3,23.542A.5.5,0,0,0,3.5,24h4a.5.5,0,0,0,.5-.458l.443-5.313A.25.25,0,0,1,8.69,18H10.5a.5.5,0,0,0,.5-.5Z"/><circle cx="14.499" cy="3.5" r="3"/><path d="M12.493,13.939a.251.251,0,0,0,.37.21,2.328,2.328,0,0,1,1.908-.137h0l2.61.972a.258.258,0,0,0,.087.016H18.5a.5.5,0,0,0,.5-.5V11.9a4.456,4.456,0,0,0-4.5-4.4,4.528,4.528,0,0,0-3.6,1.761.25.25,0,0,0,.005.311A6.813,6.813,0,0,1,12.493,13.939Z"/><circle cx="5.5" cy="3.5" r="3.5"/><path d="M22.553,15.556l-.008,0-.01,0a1.8,1.8,0,0,0-1.4.271l-2,1.365a.252.252,0,0,1-.229.027l-4.652-1.732a.835.835,0,0,0-.782.112,8.271,8.271,0,0,0-1.026.787.842.842,0,0,0,.139,1.2.243.243,0,0,0,.032.024l2.683,1.66a.251.251,0,0,1,.119.2.255.255,0,0,1-.1.212l-.958.709a.25.25,0,0,1-.276.015l-1.148-.677a.283.283,0,0,0-.053-.023.778.778,0,0,0-.713.139l-.005.005a10.072,10.072,0,0,0-.995.853.758.758,0,0,0-.165.563.772.772,0,0,0,.3.528l.013.01,2.87,2.015a.979.979,0,0,0,1.085.033l7.854-4.877h0a1.882,1.882,0,0,0-.576-3.418Z"/><path d="M11,14h0A5.5,5.5,0,0,0,0,14v3.5a.5.5,0,0,0,.5.5H2.31a.25.25,0,0,1,.249.229L3,23.542A.5.5,0,0,0,3.5,24h4a.5.5,0,0,0,.5-.458l.443-5.313A.25.25,0,0,1,8.69,18H10.5a.5.5,0,0,0,.5-.5Z"/></svg>