<svg id="Bold" xmlns="http://www.w3.org/2000/svg" viewBox="0 0 24 24"><title>multiple-actions-mail</title><circle cx="14.5" cy="3.5" r="3"/><path d="M12.381,12.761a.251.251,0,0,0,.284.2A2.174,2.174,0,0,1,13,12.938h5.75a.25.25,0,0,0,.25-.25V11.9a4.456,4.456,0,0,0-4.5-4.4,4.53,4.53,0,0,0-3.6,1.76.25.25,0,0,0,.005.311A6.955,6.955,0,0,1,12.381,12.761Z"/><path d="M10.952,14.02A.25.25,0,0,0,11,13.872,5.5,5.5,0,0,0,0,14v3.5a.5.5,0,0,0,.5.5H2.31a.25.25,0,0,1,.249.229L3,23.542A.5.5,0,0,0,3.5,24h4a.5.5,0,0,0,.5-.458l.443-5.313A.25.25,0,0,1,8.69,18H10.5V15.438A2.474,2.474,0,0,1,10.952,14.02Z"/><circle cx="5.5" cy="3.5" r="3.5"/><path d="M23.872,18.042a.252.252,0,0,0-.234-.005l-.027.016L19.2,21.123l-.011.008a2.263,2.263,0,0,1-2.373,0l-.011-.008-4.411-3.067a.248.248,0,0,0-.263-.014.251.251,0,0,0-.129.219V22.5A1.5,1.5,0,0,0,13.5,24h9A1.5,1.5,0,0,0,24,22.5V18.261A.251.251,0,0,0,23.872,18.042Z"/><path d="M22.5,14.5h-9A1.5,1.5,0,0,0,12,16a.077.077,0,0,0,.034.063l0,0,5.56,3.787.011.007a.753.753,0,0,0,.782,0l.012-.007,5.56-3.787,0,0A.074.074,0,0,0,24,16,1.5,1.5,0,0,0,22.5,14.5Z"/><circle cx="14.5" cy="3.5" r="3"/><path d="M12.381,12.761a.251.251,0,0,0,.284.2A2.174,2.174,0,0,1,13,12.938h5.75a.25.25,0,0,0,.25-.25V11.9a4.456,4.456,0,0,0-4.5-4.4,4.53,4.53,0,0,0-3.6,1.76.25.25,0,0,0,.005.311A6.955,6.955,0,0,1,12.381,12.761Z"/><path d="M10.952,14.02A.25.25,0,0,0,11,13.872,5.5,5.5,0,0,0,0,14v3.5a.5.5,0,0,0,.5.5H2.31a.25.25,0,0,1,.249.229L3,23.542A.5.5,0,0,0,3.5,24h4a.5.5,0,0,0,.5-.458l.443-5.313A.25.25,0,0,1,8.69,18H10.5V15.438A2.474,2.474,0,0,1,10.952,14.02Z"/><circle cx="5.5" cy="3.5" r="3.5"/><path d="M23.872,18.042a.252.252,0,0,0-.234-.005l-.027.016L19.2,21.123l-.011.008a2.263,2.263,0,0,1-2.373,0l-.011-.008-4.411-3.067a.248.248,0,0,0-.263-.014.251.251,0,0,0-.129.219V22.5A1.5,1.5,0,0,0,13.5,24h9A1.5,1.5,0,0,0,24,22.5V18.261A.251.251,0,0,0,23.872,18.042Z"/><path d="M22.5,14.5h-9A1.5,1.5,0,0,0,12,16a.077.077,0,0,0,.034.063l0,0,5.56,3.787.011.007a.753.753,0,0,0,.782,0l.012-.007,5.56-3.787,0,0A.074.074,0,0,0,24,16,1.5,1.5,0,0,0,22.5,14.5Z"/></svg>