<svg id="Bold" xmlns="http://www.w3.org/2000/svg" viewBox="0 0 24 24"><title>multiple-actions-sync</title><circle cx="14.5" cy="3.5" r="3"/><path d="M12.028,11.485a.25.25,0,0,0,.385.108,7.878,7.878,0,0,1,4.816-1.632,7.418,7.418,0,0,1,.874.053.25.25,0,0,0,.24-.114.252.252,0,0,0,0-.266,4.541,4.541,0,0,0-7.44-.374.25.25,0,0,0,0,.311A7.011,7.011,0,0,1,12.028,11.485Z"/><path d="M.5,18H2.31a.25.25,0,0,1,.249.229L3,23.542A.5.5,0,0,0,3.5,24h4a.5.5,0,0,0,.5-.458l.443-5.313A.25.25,0,0,1,8.69,18h.549a.254.254,0,0,0,.183-.079.251.251,0,0,0,.067-.186c-.006-.1-.01-.2-.01-.3a7.246,7.246,0,0,1,1.381-4.244A.249.249,0,0,0,10.9,13,5.5,5.5,0,0,0,0,14v3.5A.5.5,0,0,0,.5,18Z"/><circle cx="5.5" cy="3.5" r="3.5"/><path d="M10.771,17.625A6.375,6.375,0,0,0,22.129,21.6a1,1,0,1,0-1.562-1.249,4.376,4.376,0,1,1-.5-5.981.25.25,0,0,1,.009.362l-1.391,1.391a.5.5,0,0,0,.354.854H23.5a.5.5,0,0,0,.5-.5V12.021a.5.5,0,0,0-.854-.353l-1.3,1.3a.251.251,0,0,1-.348.005,6.374,6.374,0,0,0-10.73,4.654Z"/><circle cx="14.5" cy="3.5" r="3"/><path d="M12.028,11.485a.25.25,0,0,0,.385.108,7.878,7.878,0,0,1,4.816-1.632,7.418,7.418,0,0,1,.874.053.25.25,0,0,0,.24-.114.252.252,0,0,0,0-.266,4.541,4.541,0,0,0-7.44-.374.25.25,0,0,0,0,.311A7.011,7.011,0,0,1,12.028,11.485Z"/><path d="M.5,18H2.31a.25.25,0,0,1,.249.229L3,23.542A.5.5,0,0,0,3.5,24h4a.5.5,0,0,0,.5-.458l.443-5.313A.25.25,0,0,1,8.69,18h.549a.254.254,0,0,0,.183-.079.251.251,0,0,0,.067-.186c-.006-.1-.01-.2-.01-.3a7.246,7.246,0,0,1,1.381-4.244A.249.249,0,0,0,10.9,13,5.5,5.5,0,0,0,0,14v3.5A.5.5,0,0,0,.5,18Z"/><circle cx="5.5" cy="3.5" r="3.5"/><path d="M10.771,17.625A6.375,6.375,0,0,0,22.129,21.6a1,1,0,1,0-1.562-1.249,4.376,4.376,0,1,1-.5-5.981.25.25,0,0,1,.009.362l-1.391,1.391a.5.5,0,0,0,.354.854H23.5a.5.5,0,0,0,.5-.5V12.021a.5.5,0,0,0-.854-.353l-1.3,1.3a.251.251,0,0,1-.348.005,6.374,6.374,0,0,0-10.73,4.654Z"/></svg>