<svg id="Bold" xmlns="http://www.w3.org/2000/svg" viewBox="0 0 24 24"><title>multiple-actions-image</title><circle cx="14.5" cy="3.5" r="3"/><path d="M17.167,8.938a.25.25,0,0,0,.156-.446,4.514,4.514,0,0,0-5.647,0,.251.251,0,0,0,.157.446Z"/><path d="M9,10.938a1.951,1.951,0,0,1,.171-.79.247.247,0,0,0-.064-.289A5.491,5.491,0,0,0,0,14v3.5a.5.5,0,0,0,.5.5H2.31a.25.25,0,0,1,.249.229L3,23.542A.5.5,0,0,0,3.5,24h4a.5.5,0,0,0,.5-.458l.443-5.313A.25.25,0,0,1,8.69,18h.06A.25.25,0,0,0,9,17.75Z"/><circle cx="5.5" cy="3.5" r="3.5"/><path d="M24,22V12.5a2,2,0,0,0-2-2H12.5a2,2,0,0,0-2,2V22a2,2,0,0,0,2,2H22A2,2,0,0,0,24,22Zm-2.725-5.113a1.245,1.245,0,0,0-1.02-.557h-.011a1.254,1.254,0,0,0-1.033.533l-1.537,2.2a.254.254,0,0,1-.169.1.25.25,0,0,1-.192-.053l-.612-.489a1.249,1.249,0,0,0-1.821.282l-2,3.005a.2.2,0,0,1-.171.092.206.206,0,0,1-.206-.206V12.75a.25.25,0,0,1,.25-.25h9a.25.25,0,0,1,.25.25v4.4a.25.25,0,0,1-.458.139Z"/><circle cx="15.5" cy="15" r="1.75"/><circle cx="14.5" cy="3.5" r="3"/><path d="M17.167,8.938a.25.25,0,0,0,.156-.446,4.514,4.514,0,0,0-5.647,0,.251.251,0,0,0,.157.446Z"/><path d="M9,10.938a1.951,1.951,0,0,1,.171-.79.247.247,0,0,0-.064-.289A5.491,5.491,0,0,0,0,14v3.5a.5.5,0,0,0,.5.5H2.31a.25.25,0,0,1,.249.229L3,23.542A.5.5,0,0,0,3.5,24h4a.5.5,0,0,0,.5-.458l.443-5.313A.25.25,0,0,1,8.69,18h.06A.25.25,0,0,0,9,17.75Z"/><circle cx="5.5" cy="3.5" r="3.5"/><path d="M24,22V12.5a2,2,0,0,0-2-2H12.5a2,2,0,0,0-2,2V22a2,2,0,0,0,2,2H22A2,2,0,0,0,24,22Zm-2.725-5.113a1.245,1.245,0,0,0-1.02-.557h-.011a1.254,1.254,0,0,0-1.033.533l-1.537,2.2a.254.254,0,0,1-.169.1.25.25,0,0,1-.192-.053l-.612-.489a1.249,1.249,0,0,0-1.821.282l-2,3.005a.2.2,0,0,1-.171.092.206.206,0,0,1-.206-.206V12.75a.25.25,0,0,1,.25-.25h9a.25.25,0,0,1,.25.25v4.4a.25.25,0,0,1-.458.139Z"/><circle cx="15.5" cy="15" r="1.75"/></svg>