<svg id="Bold" xmlns="http://www.w3.org/2000/svg" viewBox="0 0 24 24"><title>multiple-actions-money</title><circle cx="14.5" cy="3.5" r="3"/><path d="M11.933,11.261a.25.25,0,0,0,.392.092A7.948,7.948,0,0,1,17.5,9.438q.1,0,.2,0a.25.25,0,0,0,.2-.416,4.552,4.552,0,0,0-7,.235.25.25,0,0,0,.005.311A7.015,7.015,0,0,1,11.933,11.261Z"/><path d="M0,17.5a.5.5,0,0,0,.5.5H2.31a.25.25,0,0,1,.249.229L3,23.542A.5.5,0,0,0,3.5,24h4a.5.5,0,0,0,.5-.458l.443-5.313A.25.25,0,0,1,8.69,18h.571a.248.248,0,0,0,.182-.079.246.246,0,0,0,.067-.186c0-.1-.01-.2-.01-.3a7.948,7.948,0,0,1,1.336-4.418.247.247,0,0,0,.036-.192A5.5,5.5,0,0,0,0,14Z"/><circle cx="5.5" cy="3.5" r="3.5"/><path d="M11,17.5A6.5,6.5,0,1,0,17.5,11,6.508,6.508,0,0,0,11,17.5Zm7.25-4.25v.25a.25.25,0,0,0,.25.25H19a.75.75,0,0,1,0,1.5H16.967a.592.592,0,0,0-.22,1.141l2.063.825a2.084,2.084,0,0,1-.36,3.981.25.25,0,0,0-.2.245v.308a.75.75,0,0,1-1.5,0V21.5a.25.25,0,0,0-.25-.25H16a.75.75,0,0,1,0-1.5h2.034a.592.592,0,0,0,.22-1.141l-2.064-.825a2.084,2.084,0,0,1,.36-3.981.249.249,0,0,0,.2-.245V13.25a.75.75,0,0,1,1.5,0Z"/><circle cx="14.5" cy="3.5" r="3"/><path d="M11.933,11.261a.25.25,0,0,0,.392.092A7.948,7.948,0,0,1,17.5,9.438q.1,0,.2,0a.25.25,0,0,0,.2-.416,4.552,4.552,0,0,0-7,.235.25.25,0,0,0,.005.311A7.015,7.015,0,0,1,11.933,11.261Z"/><path d="M0,17.5a.5.5,0,0,0,.5.5H2.31a.25.25,0,0,1,.249.229L3,23.542A.5.5,0,0,0,3.5,24h4a.5.5,0,0,0,.5-.458l.443-5.313A.25.25,0,0,1,8.69,18h.571a.248.248,0,0,0,.182-.079.246.246,0,0,0,.067-.186c0-.1-.01-.2-.01-.3a7.948,7.948,0,0,1,1.336-4.418.247.247,0,0,0,.036-.192A5.5,5.5,0,0,0,0,14Z"/><circle cx="5.5" cy="3.5" r="3.5"/><path d="M11,17.5A6.5,6.5,0,1,0,17.5,11,6.508,6.508,0,0,0,11,17.5Zm7.25-4.25v.25a.25.25,0,0,0,.25.25H19a.75.75,0,0,1,0,1.5H16.967a.592.592,0,0,0-.22,1.141l2.063.825a2.084,2.084,0,0,1-.36,3.981.25.25,0,0,0-.2.245v.308a.75.75,0,0,1-1.5,0V21.5a.25.25,0,0,0-.25-.25H16a.75.75,0,0,1,0-1.5h2.034a.592.592,0,0,0,.22-1.141l-2.064-.825a2.084,2.084,0,0,1,.36-3.981.249.249,0,0,0,.2-.245V13.25a.75.75,0,0,1,1.5,0Z"/></svg>