<svg xmlns="http://www.w3.org/2000/svg" viewBox="0 0 24 24"><defs><style>.a{fill:none;stroke:currentColor;stroke-linecap:round;stroke-linejoin:round;}</style></defs><title>mobile-qr-code</title><rect class="a" x="5.5" y="0.5" width="13" height="23" rx="2" ry="2"/><line class="a" x1="18.5" y1="4.5" x2="5.5" y2="4.5"/><line class="a" x1="18.5" y1="19.5" x2="5.5" y2="19.5"/><line class="a" x1="9.5" y1="2.5" x2="14.5" y2="2.5"/><path class="a" d="M12,21.25h0a.25.25,0,0,1,.25.25h0a.25.25,0,0,1-.25.25h0a.25.25,0,0,1-.25-.25h0a.25.25,0,0,1,.25-.25"/><rect class="a" x="7.496" y="7.5" width="2" height="2"/><rect class="a" x="7.496" y="14.5" width="2" height="2"/><rect class="a" x="14.496" y="7.5" width="2" height="2"/><polyline class="a" points="7.496 12.5 11.496 12.5 11.496 13.5"/><polyline class="a" points="13.496 13.5 13.496 16.5 16.496 16.5 16.496 13.5 15.496 13.5"/><line class="a" x1="11.496" y1="15.5" x2="11.496" y2="16.5"/><polyline class="a" points="11.496 7.5 11.496 10.5 12.496 10.5"/><line class="a" x1="14.496" y1="11.5" x2="16.496" y2="11.5"/></svg>