<?xml version="1.0" encoding="utf-8"?>
<!-- Generator: Adobe Illustrator 22.1.0, SVG Export Plug-In . SVG Version: 6.00 Build 0)  -->
<svg version="1.1" id="Regular" xmlns="http://www.w3.org/2000/svg" xmlns:xlink="http://www.w3.org/1999/xlink" x="0px" y="0px"
	 viewBox="0 0 24 24" style="enable-background:new 0 0 24 24;" xml:space="preserve">
<title>multiple-neutral-circle</title>
<g>
	<path d="M12,24C5.383,24,0,18.617,0,12C0,5.383,5.383,0,12,0c6.617,0,12,5.383,12,12C24,18.617,18.617,24,12,24z M12,1.5
		C6.21,1.5,1.5,6.21,1.5,12c0,5.79,4.71,10.5,10.5,10.5c5.79,0,10.5-4.71,10.5-10.5C22.5,6.21,17.79,1.5,12,1.5z"/>
	<path d="M9,15.75c-2.688,0-4.875-2.187-4.875-4.875C4.125,8.187,6.312,6,9,6s4.875,2.187,4.875,4.875
		C13.875,13.563,11.688,15.75,9,15.75z M9,7.5c-1.861,0-3.375,1.514-3.375,3.375c0,1.861,1.514,3.375,3.375,3.375
		s3.375-1.514,3.375-3.375C12.375,9.014,10.861,7.5,9,7.5z"/>
	<path d="M15.049,20.998c-0.287,0-0.544-0.159-0.672-0.416c-1.021-2.055-3.087-3.332-5.391-3.332c-0.926,0-1.819,0.209-2.654,0.622
		C6.23,17.923,6.115,17.95,6,17.95c-0.287,0-0.545-0.16-0.672-0.417c-0.089-0.179-0.103-0.383-0.038-0.573
		c0.064-0.19,0.198-0.344,0.378-0.432c1.043-0.517,2.159-0.779,3.318-0.779c2.878,0,5.458,1.596,6.735,4.165
		c0.184,0.371,0.032,0.822-0.338,1.006C15.28,20.971,15.165,20.998,15.049,20.998z"/>
	<path d="M17.812,16.125c-1.965,0-3.563-1.598-3.563-3.563s1.598-3.563,3.563-3.563s3.563,1.598,3.563,3.563
		S19.777,16.125,17.812,16.125z M17.812,10.499c-1.137,0-2.063,0.925-2.063,2.063c0,1.137,0.926,2.063,2.063,2.063
		s2.063-0.926,2.063-2.063C19.875,11.424,18.949,10.499,17.812,10.499z"/>
</g>
</svg>
