<svg xmlns="http://www.w3.org/2000/svg" viewBox="0 0 24 24"><defs><style>.a{fill:none;stroke:currentColor;stroke-linecap:round;stroke-linejoin:round;}</style></defs><title>taking-pictures-square</title><path class="a" d="M7.682,7.5a1.488,1.488,0,0,0,.868-.338L10,5.838a1.485,1.485,0,0,1,.868-.338h2.272A1.485,1.485,0,0,1,14,5.838L15.45,7.162a1.488,1.488,0,0,0,.868.338H19a1.671,1.671,0,0,1,1.5,1.682V16A1.5,1.5,0,0,1,19,17.5H5A1.5,1.5,0,0,1,3.5,16V9.182A1.671,1.671,0,0,1,5,7.5Z"/><rect class="a" x="0.5" y="0.5" width="23" height="23" rx="4" ry="4"/><circle class="a" cx="12" cy="11.75" r="2.75"/><path class="a" d="M18,9.75a.25.25,0,1,1-.25.25A.25.25,0,0,1,18,9.75"/></svg>