<svg xmlns="http://www.w3.org/2000/svg" viewBox="0 0 24 24"><defs><style>.a{fill:none;stroke:currentColor;stroke-linecap:round;stroke-linejoin:round;}</style></defs><title>taking-pictures-woman</title><path class="a" d="M12.5,14.75a1,1,0,0,1-1,1H1.5a1,1,0,0,1-1-1v-6a1,1,0,0,1,1-1h4c.28-.56.451-1,1.118-1H8.882c.667,0,.838.44,1.118,1h1.5a1,1,0,0,1,1,1Z"/><circle class="a" cx="7.5" cy="11.25" r="2"/><path class="a" d="M21,12.217a7.033,7.033,0,0,1-1.023-3.894V6.731A5.474,5.474,0,0,0,9.4,4.75"/><path class="a" d="M19.977,7.635A7.25,7.25,0,0,1,14.5,5.124a7.4,7.4,0,0,1-1.294,1.162"/><path class="a" d="M19.328,7.606A4.835,4.835,0,0,1,14.5,12.212"/><path class="a" d="M7.018,17.75a8.952,8.952,0,0,0-1.518,5h18a9,9,0,0,0-9-9"/></svg>