<svg xmlns="http://www.w3.org/2000/svg" viewBox="0 0 24 24"><defs><style>.a{fill:none;stroke:currentColor;stroke-linecap:round;stroke-linejoin:round;}</style></defs><title>taking-pictures-man</title><path class="a" d="M12.5,14.75a1,1,0,0,1-1,1H1.5a1,1,0,0,1-1-1v-6a1,1,0,0,1,1-1h4c.28-.56.451-1,1.118-1H8.882c.667,0,.838.44,1.118,1h1.5a1,1,0,0,1,1,1Z"/><circle class="a" cx="7.5" cy="11.25" r="2"/><line class="a" x1="2" y1="5.75" x2="2.5" y2="5.75"/><path class="a" d="M9.777,3.974A9.127,9.127,0,0,0,16.333,6.75a9.131,9.131,0,0,0,3.593-.734"/><path class="a" d="M14.5,12.25a5.5,5.5,0,1,0-5.119-7.5"/><path class="a" d="M7.018,17.75a8.952,8.952,0,0,0-1.518,5h18a9,9,0,0,0-9-9"/></svg>