<svg xmlns="http://www.w3.org/2000/svg" viewBox="0 0 24 24"><title>graph-stats-circle-alternate</title><path d="M12,0A12,12,0,1,0,24,12,12.013,12.013,0,0,0,12,0Zm0,2A10.011,10.011,0,0,1,22,12H19.354c-.849,0-1.018-.276-1.6-1.448-.09-.182-.184-.371-.285-.565a1.519,1.519,0,0,0-1.443-.773,1.479,1.479,0,0,0-1.348.99l-1.6,5.1L10.452,5.548A1.476,1.476,0,0,0,9,4.5H9a1.479,1.479,0,0,0-1.455,1.04c-.307,1.124-.549,2.082-.755,2.9C5.886,12,5.809,12,4.874,12H2A10.011,10.011,0,0,1,12,2Zm0,20a10.017,10.017,0,0,1-9.8-8H4.874c2.568,0,2.944-1.485,3.852-5.074L9,7.851l2.583,9.6A1.477,1.477,0,0,0,13.017,18.5h.022a1.472,1.472,0,0,0,1.44-.992l1.746-5.552A3.244,3.244,0,0,0,19.354,14H21.8A10.017,10.017,0,0,1,12,22Z"/></svg>