<?xml version="1.0" encoding="utf-8"?>
<!-- Generator: Adobe Illustrator 22.1.0, SVG Export Plug-In . SVG Version: 6.00 Build 0)  -->
<svg version="1.1" id="Light" xmlns="http://www.w3.org/2000/svg" xmlns:xlink="http://www.w3.org/1999/xlink" x="0px" y="0px"
	 viewBox="0 0 24 24" style="enable-background:new 0 0 24 24;" xml:space="preserve">
<g>
	<title>single-woman</title>
	<path d="M0.5,23.75c-0.135,0-0.266-0.055-0.359-0.152C0.046,23.5-0.005,23.368,0,23.233c0.051-1.485,0.404-2.918,1.049-4.257
		c0.733-1.475,3.241-2.396,6.712-3.672l0.91-0.335C8.868,14.897,9,14.708,9,14.5V14.11c-0.114,0.004-0.229,0.007-0.342,0.007
		c-1.608,0-3.181-0.434-4.548-1.255c-0.061-0.036-0.12-0.08-0.174-0.131c-0.194-0.182-0.307-0.429-0.316-0.696
		c-0.009-0.267,0.086-0.522,0.269-0.717c0.498-0.549,0.928-1.227,1.112-3.952c0.16-2.36,1.017-4.268,2.48-5.517
		C8.69,0.818,10.294,0.25,12,0.25c1.705,0,3.31,0.568,4.519,1.599c1.463,1.249,2.321,3.156,2.48,5.516
		c0.184,2.726,0.615,3.405,1.117,3.958c0.047,0.05,0.09,0.109,0.127,0.172c0.135,0.231,0.172,0.5,0.104,0.759
		c-0.068,0.259-0.232,0.475-0.463,0.61c-1.363,0.82-2.935,1.255-4.542,1.255c-0.109,0-0.221-0.003-0.343-0.008v0.39
		c0,0.207,0.131,0.395,0.326,0.467c0.001,0,0.918,0.338,0.918,0.338c3.468,1.275,5.974,2.196,6.704,3.665
		c0.648,1.344,1.001,2.777,1.052,4.262c0.005,0.134-0.046,0.267-0.14,0.365c-0.094,0.097-0.225,0.153-0.36,0.153H0.5z M22.969,22.75
		c-0.101-1.161-0.41-2.283-0.919-3.34c-0.55-1.107-3.145-2.061-6.15-3.166l-0.918-0.338c-0.586-0.216-0.98-0.781-0.982-1.405v-1.828
		c0-0.422,0.179-0.826,0.49-1.11c0.647-0.591,1.015-1.433,1.01-2.31V7.55c0.002-0.22-0.142-0.414-0.351-0.473
		c-1.184-0.321-2.269-0.953-3.136-1.829c-0.004,0-0.012-0.003-0.019-0.006c-0.875,0.882-1.963,1.518-3.149,1.841
		C8.641,7.14,8.498,7.332,8.5,7.549v1.703c-0.006,0.88,0.362,1.723,1.01,2.314C9.821,11.849,10,12.253,10,12.675V14.5
		c0,0.626-0.395,1.191-0.983,1.407l-0.911,0.335c-3.008,1.105-5.606,2.06-6.159,3.173c-0.507,1.052-0.816,2.173-0.917,3.334H22.969z
		 M15,13.105c0.118,0.005,0.236,0.008,0.353,0.008c1.425,0,2.816-0.384,4.022-1.11c-0.746-0.829-1.187-1.801-1.374-4.571
		C17.799,4.444,16.116,1.25,12,1.25c-4.116,0-5.799,3.194-6.001,6.184c-0.187,2.77-0.628,3.74-1.375,4.562
		c1.206,0.733,2.598,1.116,4.024,1.116c0.117,0,0.234-0.003,0.352-0.008v-0.43c0-0.141-0.06-0.275-0.164-0.37
		C7.979,11.522,7.492,10.408,7.5,9.249V7.552C7.495,6.891,7.938,6.301,8.577,6.119c1.024-0.278,1.956-0.823,2.698-1.574L11.474,4.7
		l-0.173-0.181c0.189-0.181,0.435-0.281,0.693-0.281c0.002,0,0.027,0,0.03,0c0.268,0.006,0.52,0.116,0.707,0.312
		c0.738,0.745,1.667,1.287,2.687,1.563c0.645,0.183,1.089,0.776,1.083,1.441V9.25c0.008,1.157-0.479,2.27-1.336,3.052
		C15.059,12.397,15,12.532,15,12.673V13.105z"/>
</g>
</svg>
