<?xml version="1.0" encoding="utf-8"?>
<!-- Generator: Adobe Illustrator 22.1.0, SVG Export Plug-In . SVG Version: 6.00 Build 0)  -->
<svg version="1.1" id="Layer_1" xmlns="http://www.w3.org/2000/svg" xmlns:xlink="http://www.w3.org/1999/xlink" x="0px" y="0px"
	 viewBox="0 0 24 24" style="enable-background:new 0 0 24 24;" xml:space="preserve">
<title>password-type</title>
<g>
	<path d="M17.25,15c-0.414,0-0.75-0.336-0.75-0.75s0.336-0.75,0.75-0.75h3c0.414,0,0.75,0.336,0.75,0.75S20.664,15,20.25,15H17.25z"
		/>
	<path d="M2.25,18C1.009,18,0,16.991,0,15.75v-7.5C0,7.009,1.009,6,2.25,6h19.5C22.991,6,24,7.009,24,8.25v7.5
		c0,1.241-1.009,2.25-2.25,2.25H2.25z M2.25,7.5C1.836,7.5,1.5,7.836,1.5,8.25v7.5c0,0.414,0.336,0.75,0.75,0.75h19.5
		c0.414,0,0.75-0.336,0.75-0.75v-7.5c0-0.414-0.336-0.75-0.75-0.75H2.25z"/>
	<path d="M7.5,15c-0.2,0-0.389-0.078-0.53-0.22l-1.345-1.345L4.28,14.78C4.139,14.922,3.95,15,3.75,15s-0.389-0.078-0.53-0.22
		c-0.292-0.292-0.292-0.768,0-1.061l1.345-1.345L3.22,11.03C3.078,10.889,3,10.7,3,10.5s0.078-0.389,0.22-0.53
		c0.141-0.142,0.33-0.22,0.53-0.22l0,0c0.2,0,0.389,0.078,0.53,0.22l1.345,1.345L6.97,9.97C7.111,9.828,7.3,9.75,7.5,9.75l0,0
		c0.2,0,0.389,0.078,0.53,0.22c0.142,0.141,0.22,0.33,0.22,0.53s-0.078,0.389-0.22,0.53l-1.345,1.345L8.03,13.72
		c0.292,0.292,0.292,0.768,0,1.061C7.889,14.922,7.7,15,7.5,15z"/>
	<path d="M14.25,15c-0.2,0-0.389-0.078-0.53-0.22l-1.345-1.345L11.03,14.78C10.889,14.922,10.7,15,10.5,15s-0.389-0.078-0.53-0.22
		c-0.292-0.292-0.292-0.768,0-1.061l1.345-1.345L9.97,11.03c-0.142-0.141-0.22-0.33-0.22-0.53s0.078-0.389,0.22-0.53
		c0.141-0.142,0.33-0.22,0.53-0.22l0,0c0.2,0,0.389,0.078,0.53,0.22l1.345,1.345L13.72,9.97c0.142-0.142,0.33-0.22,0.53-0.22l0,0
		c0.2,0,0.389,0.078,0.53,0.22C14.922,10.111,15,10.3,15,10.5s-0.078,0.389-0.22,0.53l-1.345,1.345l1.345,1.345
		c0.292,0.292,0.292,0.768,0,1.061C14.639,14.922,14.45,15,14.25,15z"/>
</g>
</svg>
