<?xml version="1.0" encoding="utf-8"?>
<!-- Generator: Adobe Illustrator 22.1.0, SVG Export Plug-In . SVG Version: 6.00 Build 0)  -->
<svg version="1.1" id="Layer_1" xmlns="http://www.w3.org/2000/svg" xmlns:xlink="http://www.w3.org/1999/xlink" x="0px" y="0px"
	 viewBox="0 0 24 24" style="enable-background:new 0 0 24 24;" xml:space="preserve">
<title>password-desktop-approved</title>
<g>
	<path d="M6.75,24C6.336,24,6,23.664,6,23.25s0.336-0.75,0.75-0.75h1.833c0.552-0.917,0.922-1.943,1.083-3H2.25
		C1.009,19.5,0,18.491,0,17.25v-15C0,1.009,1.009,0,2.25,0h19.5C22.991,0,24,1.009,24,2.25v15c0,1.241-1.009,2.25-2.25,2.25h-7.416
		c0.161,1.058,0.531,2.084,1.083,3h1.833c0.414,0,0.75,0.336,0.75,0.75S17.664,24,17.25,24H6.75z M13.707,22.5
		c-0.458-0.944-0.756-1.949-0.889-3h-1.637c-0.133,1.051-0.431,2.056-0.889,3H13.707z M1.5,17.25C1.5,17.664,1.836,18,2.25,18h19.5
		c0.414,0,0.75-0.336,0.75-0.75V15h-21V17.25z M22.5,13.5V2.25c0-0.414-0.336-0.75-0.75-0.75H2.25C1.836,1.5,1.5,1.836,1.5,2.25
		V13.5H22.5z"/>
	<path d="M12,12c-0.2,0-0.388-0.078-0.529-0.218l-3.75-3.734C7.428,7.756,7.427,7.28,7.718,6.987C7.86,6.844,8.049,6.766,8.25,6.766
		c0.2,0,0.388,0.078,0.529,0.218l3.186,3.173l5.429-6.138c0.142-0.161,0.347-0.253,0.562-0.253c0.183,0,0.359,0.067,0.497,0.188
		c0.31,0.274,0.339,0.749,0.065,1.059l-5.956,6.734c-0.137,0.154-0.333,0.246-0.539,0.253C12.02,12,12.004,12,12,12z"/>
</g>
</svg>
