<svg xmlns="http://www.w3.org/2000/svg" viewBox="0 0 24 24"><defs><style>.a{fill:none;stroke:currentColor;stroke-linecap:round;stroke-linejoin:round;stroke-width:1.5px;}</style></defs><title>cd-player</title><path class="a" d="M5.808,9.471a4.961,4.961,0,0,1,3.374-3.46"/><rect class="a" x="0.75" y="12.75" width="22.5" height="7.5" rx="1.5" ry="1.5"/><line class="a" x1="3.75" y1="21.75" x2="3.75" y2="20.25"/><line class="a" x1="20.25" y1="21.75" x2="20.25" y2="20.25"/><path class="a" d="M18.712,9.75a8.246,8.246,0,0,0-16.424,0"/><path class="a" d="M11.948,9.75a1.615,1.615,0,0,0-2.9,0"/><path class="a" d="M19.125,15.75a.375.375,0,1,1-.375.375.375.375,0,0,1,.375-.375"/><line class="a" x1="5.25" y1="17.25" x2="13.5" y2="17.25"/></svg>