<?xml version="1.0" encoding="utf-8"?>
<!-- Generator: Adobe Illustrator 22.1.0, SVG Export Plug-In . SVG Version: 6.00 Build 0)  -->
<svg version="1.1" id="Layer_1" xmlns="http://www.w3.org/2000/svg" xmlns:xlink="http://www.w3.org/1999/xlink" x="0px" y="0px"
	 viewBox="0 0 24 24" style="enable-background:new 0 0 24 24;" xml:space="preserve">
<g>
	<title>align-portrait</title>
	<path d="M10,22c-0.276,0-0.5-0.224-0.5-0.5S9.724,21,10,21h12.5c0.276,0,0.5-0.224,0.5-0.5v-17C23,3.224,22.776,3,22.5,3H10
		C9.724,3,9.5,2.776,9.5,2.5S9.724,2,10,2h12.5C23.327,2,24,2.673,24,3.5v17c0,0.827-0.673,1.5-1.5,1.5H10z"/>
	<path d="M4.5,20.998c-0.276,0-0.5-0.224-0.5-0.5V4.705L1.354,7.352C1.259,7.446,1.134,7.498,1,7.498S0.741,7.446,0.646,7.352
		S0.5,7.132,0.5,6.998s0.052-0.259,0.146-0.354l3.5-3.5c0.046-0.046,0.101-0.083,0.162-0.108C4.37,3.011,4.434,2.998,4.5,2.998
		s0.13,0.013,0.191,0.038c0.062,0.026,0.116,0.062,0.163,0.108l3.5,3.5C8.448,6.739,8.5,6.865,8.5,6.998S8.448,7.257,8.354,7.352
		S8.134,7.498,8,7.498S7.741,7.446,7.646,7.352L5,4.705v15.793C5,20.774,4.776,20.998,4.5,20.998z"/>
	<path d="M12.5,17c-0.276,0-0.5-0.224-0.5-0.5c0-1.883,0.906-3.454,2.343-4.136c-0.528-0.471-0.842-1.151-0.842-1.866
		c0-1.379,1.122-2.5,2.5-2.5s2.5,1.121,2.5,2.5c0,0.715-0.314,1.396-0.843,1.867C19.095,13.047,20,14.618,20,16.5
		c0,0.276-0.224,0.5-0.5,0.5H12.5z M18.974,16c-0.189-1.78-1.383-3-2.974-3s-2.785,1.22-2.974,3H18.974z M16.001,8.998
		c-0.827,0-1.5,0.673-1.5,1.5s0.673,1.5,1.5,1.5s1.5-0.673,1.5-1.5S16.828,8.998,16.001,8.998z"/>
</g>
</svg>
