<?xml version="1.0" encoding="utf-8"?>
<!-- Generator: Adobe Illustrator 22.1.0, SVG Export Plug-In . SVG Version: 6.00 Build 0)  -->
<svg version="1.1" id="Layer_1" xmlns="http://www.w3.org/2000/svg" xmlns:xlink="http://www.w3.org/1999/xlink" x="0px" y="0px"
	 viewBox="0 0 24 24" style="enable-background:new 0 0 24 24;" xml:space="preserve">
<g>
	<title>paragraph</title>
	<path d="M17.5,23.998c-0.276,0-0.5-0.224-0.5-0.5V1h-6v22.498c0,0.276-0.224,0.5-0.5,0.5s-0.5-0.224-0.5-0.5V13H6.5
		C2.916,13,0,10.084,0,6.5S2.916,0,6.5,0h3.97c0.01-0.001,0.021-0.002,0.03-0.002c0.01,0,0.021,0.001,0.031,0.002l6.939,0
		c0.01-0.001,0.021-0.002,0.03-0.002c0.01,0,0.021,0.001,0.031,0.002L23.5,0C23.776,0,24,0.224,24,0.5S23.776,1,23.5,1H18v22.498
		C18,23.774,17.776,23.998,17.5,23.998z M6.5,1C3.467,1,1,3.467,1,6.5S3.467,12,6.5,12H10V1H6.5z"/>
</g>
</svg>
