<?xml version="1.0" encoding="utf-8"?>
<!-- Generator: Adobe Illustrator 22.1.0, SVG Export Plug-In . SVG Version: 6.00 Build 0)  -->
<svg version="1.1" id="Layer_1" xmlns="http://www.w3.org/2000/svg" xmlns:xlink="http://www.w3.org/1999/xlink" x="0px" y="0px"
	 viewBox="0 0 24 24" style="enable-background:new 0 0 24 24;" xml:space="preserve">
<title>answer-machine-paper</title>
<g>
	<path d="M6.75,24c-1.183,0-2.289-0.557-2.998-1.5h0c-2.068,0-3.75-1.682-3.75-3.75V8.25c0-2.068,1.682-3.75,3.75-3.75h0
		C4.461,3.557,5.567,3,6.75,3h1.5c0.823,0,1.607,0.267,2.25,0.752V2.25C10.5,1.009,11.509,0,12.75,0h5.379
		c0.601,0.001,1.166,0.235,1.591,0.66l0.621,0.62C20.766,1.706,21,2.271,21,2.872v1.705c1.731,0.351,2.998,1.875,2.998,3.673v10.5
		c0,2.068-1.682,3.75-3.75,3.75h-9C10.539,23.443,9.433,24,8.25,24H6.75z M6.75,4.5C5.509,4.5,4.5,5.509,4.5,6.75v13.5
		c0,1.241,1.009,2.25,2.25,2.25h1.5c1.241,0,2.25-1.009,2.25-2.25V6.75c0-1.241-1.009-2.25-2.25-2.25H6.75z M20.248,21
		c1.241,0,2.25-1.009,2.25-2.25V8.25c0-1.241-1.009-2.25-2.25-2.25h-8.326C11.974,6.248,12,6.499,12,6.75v13.5
		c0,0.251-0.026,0.502-0.078,0.75H20.248z M3.056,6.113C2.152,6.409,1.502,7.262,1.502,8.25v10.5c0,0.988,0.65,1.841,1.554,2.137
		C3.019,20.676,3,20.463,3,20.25V6.75C3,6.537,3.019,6.324,3.056,6.113z M19.5,4.5V2.872c0-0.198-0.08-0.391-0.219-0.531
		l-0.621-0.62C18.517,1.578,18.329,1.5,18.128,1.5H12.75C12.336,1.5,12,1.836,12,2.25V4.5H19.5z"/>
	<path d="M15,9c-0.414,0-0.75-0.336-0.75-0.75S14.586,7.5,15,7.5h4.5c0.414,0,0.75,0.336,0.75,0.75S19.914,9,19.5,9H15z"/>
	<path d="M19.125,14.25c-0.62,0-1.125-0.505-1.125-1.125S18.505,12,19.125,12c0.014,0,0.031,0.001,0.046,0.003
		c0.009,0.001,0.017,0.001,0.024,0.002c0.584,0.027,1.055,0.519,1.055,1.12C20.25,13.745,19.745,14.25,19.125,14.25z"/>
	<path d="M19.125,18C18.505,18,18,17.495,18,16.875s0.505-1.125,1.125-1.125c0.014,0,0.032,0.001,0.049,0.003
		c0.002,0,0.008,0.001,0.008,0.001c0.607,0.036,1.068,0.523,1.068,1.121C20.25,17.495,19.745,18,19.125,18z"/>
	<path d="M15.375,14.25c-0.62,0-1.125-0.505-1.125-1.125c0-0.599,0.469-1.091,1.069-1.121C15.337,12.002,15.358,12,15.375,12
		c0.62,0,1.125,0.505,1.125,1.125S15.995,14.25,15.375,14.25z"/>
	<circle cx="15.375" cy="16.875" r="1.125"/>
</g>
</svg>
