<svg xmlns="http://www.w3.org/2000/svg" viewBox="0 0 24 24"><defs><style>.a{fill:none;stroke:currentColor;stroke-linecap:round;stroke-linejoin:round;}</style></defs><title>messages-people-man-bubble</title><path class="a" d="M13.494,10.5a2.75,2.75,0,0,0,2.5,1.5,3.2,3.2,0,0,0,2.5-1.5c7,0,6.373-10-.1-10a4.465,4.465,0,0,0-3.4,1.5A4.529,4.529,0,0,0,8.617,4.963"/><path class="a" d="M15.5,23.5V21c0-.5-3-2-5.5-3V16s1-.35,1-2.5c.7,0,1-2,.032-2A4.329,4.329,0,0,0,11.5,9C11,7,6,7,5.5,9,3.394,8.57,5,11.211,5,11.5c-1,0-.7,2,0,2C5,15.65,6,16,6,16v2C3.5,19,.5,20.5.5,21v2.5"/><circle class="a" cx="17" cy="15" r="1"/><line class="a" x1="13.75" y1="6" x2="13.75" y2="6"/><path class="a" d="M13.5,5.75a.25.25,0,0,1,.25.25"/><line class="a" x1="13.5" y1="5.75" x2="13.5" y2="5.75"/><path class="a" d="M13.25,6a.25.25,0,0,1,.25-.25"/><line class="a" x1="13.25" y1="6" x2="13.25" y2="6"/><path class="a" d="M13.5,6.25A.25.25,0,0,1,13.25,6"/><line class="a" x1="13.5" y1="6.25" x2="13.5" y2="6.25"/><path class="a" d="M13.75,6a.25.25,0,0,1-.25.25"/><line class="a" x1="16.75" y1="6" x2="16.75" y2="6"/><path class="a" d="M16.5,5.75a.25.25,0,0,1,.25.25"/><line class="a" x1="16.5" y1="5.75" x2="16.5" y2="5.75"/><path class="a" d="M16.25,6a.25.25,0,0,1,.25-.25"/><line class="a" x1="16.25" y1="6" x2="16.25" y2="6"/><path class="a" d="M16.5,6.25A.25.25,0,0,1,16.25,6"/><line class="a" x1="16.5" y1="6.25" x2="16.5" y2="6.25"/><path class="a" d="M16.75,6a.25.25,0,0,1-.25.25"/><line class="a" x1="19.75" y1="6" x2="19.75" y2="6"/><path class="a" d="M19.5,5.75a.25.25,0,0,1,.25.25"/><line class="a" x1="19.5" y1="5.75" x2="19.5" y2="5.75"/><path class="a" d="M19.25,6a.249.249,0,0,1,.25-.25"/><line class="a" x1="19.25" y1="6" x2="19.25" y2="6"/><path class="a" d="M19.5,6.25A.249.249,0,0,1,19.25,6"/><line class="a" x1="19.5" y1="6.25" x2="19.5" y2="6.25"/><path class="a" d="M19.75,6a.25.25,0,0,1-.25.25"/><line class="a" x1="13.75" y1="16.5" x2="13.75" y2="16.5"/><path class="a" d="M13.5,16.25a.25.25,0,0,1,.25.25"/><line class="a" x1="13.5" y1="16.25" x2="13.5" y2="16.25"/><path class="a" d="M13.25,16.5a.25.25,0,0,1,.25-.25"/><line class="a" x1="13.25" y1="16.5" x2="13.25" y2="16.5"/><path class="a" d="M13.5,16.75a.25.25,0,0,1-.25-.25"/><line class="a" x1="13.5" y1="16.75" x2="13.5" y2="16.75"/><path class="a" d="M13.75,16.5a.25.25,0,0,1-.25.25"/></svg>