<svg xmlns="http://www.w3.org/2000/svg" viewBox="0 0 24 24"><defs><style>.a{fill:none;stroke:currentColor;stroke-linecap:round;stroke-linejoin:round;}</style></defs><title>messages-people-person-bubble-square</title><polyline class="a" points="14 9.5 15.5 9.5 15.5 13.5 20 9.5 23.5 9.5 23.5 0.5 8.5 0.5 8.5 4.5"/><path class="a" d="M.5,23.5a8.719,8.719,0,0,1,.7-3.322c.49-.981,2.539-1.661,5.111-2.613.695-.258.581-2.074.273-2.413a5.127,5.127,0,0,1-1.336-3.978A3.354,3.354,0,0,1,8.5,7.5a3.354,3.354,0,0,1,3.256,3.674,5.127,5.127,0,0,1-1.336,3.978c-.308.339-.422,2.155.273,2.413,2.572.952,4.621,1.632,5.111,2.613a8.719,8.719,0,0,1,.7,3.322Z"/><path class="a" d="M16,4.75a.25.25,0,0,1,.25.25h0a.25.25,0,0,1-.25.25h0A.25.25,0,0,1,15.75,5h0A.25.25,0,0,1,16,4.75"/><line class="a" x1="16" y1="4.75" x2="16" y2="4.75"/><path class="a" d="M19.5,4.75a.25.25,0,0,1,.25.25h0a.25.25,0,0,1-.25.25h0A.25.25,0,0,1,19.25,5h0a.25.25,0,0,1,.25-.25"/><line class="a" x1="19.5" y1="4.75" x2="19.5" y2="4.75"/><path class="a" d="M12.5,4.75a.25.25,0,0,0-.25.25h0a.25.25,0,0,0,.25.25h0A.25.25,0,0,0,12.75,5h0a.25.25,0,0,0-.25-.25"/><line class="a" x1="12.5" y1="4.75" x2="12.5" y2="4.75"/></svg>