<svg xmlns="http://www.w3.org/2000/svg" viewBox="0 0 24 24"><defs><style>.a{fill:none;stroke:currentColor;stroke-linecap:round;stroke-linejoin:round;}</style></defs><title>messages-people-man-bubble-circle-1</title><path class="a" d="M3.85,8.605a7.064,7.064,0,0,0,7.843,1.578"/><circle class="a" cx="7.5" cy="10.75" r="4.25"/><path class="a" d="M.5,23.5a7,7,0,0,1,14,0Z"/><path class="a" d="M13.98,12.034a6.805,6.805,0,0,0,1.52.4c0,.57,0,2.57,0,3.07.5-.5,3.5-3,4-3.461a6.015,6.015,0,0,0,4-5.539A6.265,6.265,0,0,0,17,.5a6.48,6.48,0,0,0-6.122,4"/><path class="a" d="M14.251,6.241a.25.25,0,0,1,.25.25h0a.249.249,0,0,1-.25.25h0a.249.249,0,0,1-.25-.25h0a.25.25,0,0,1,.25-.25"/><line class="a" x1="14.251" y1="6.241" x2="14.251" y2="6.241"/><path class="a" d="M17,6.241a.25.25,0,0,1,.25.25h0a.249.249,0,0,1-.25.25h0a.249.249,0,0,1-.25-.25h0a.249.249,0,0,1,.25-.25"/><line class="a" x1="17.001" y1="6.241" x2="17.001" y2="6.241"/><path class="a" d="M19.75,6.241a.249.249,0,0,1,.25.25h0a.249.249,0,0,1-.25.25h0a.249.249,0,0,1-.25-.25h0a.25.25,0,0,1,.25-.25"/><line class="a" x1="19.75" y1="6.241" x2="19.75" y2="6.241"/></svg>