<svg xmlns="http://www.w3.org/2000/svg" viewBox="0 0 24 24"><defs><style>.a{fill:none;stroke:currentColor;stroke-linecap:round;stroke-linejoin:round;}</style></defs><title>messages-people-man-bubble-oval</title><path class="a" d="M15.5,23.5V21c0-.5-3-2-5.5-3V16s1-.35,1-2.5c.7,0,1-2,.032-2A4.329,4.329,0,0,0,11.5,9C11,7,6,7,5.5,9,3.394,8.57,5,11.211,5,11.5c-1,0-.7,2,0,2C5,15.65,6,16,6,16v2C3.5,19,.5,20.5.5,21v2.5"/><path class="a" d="M13.5,9.5h1v2l2.5-2h2a4.5,4.5,0,0,0,0-9H13A4.5,4.5,0,0,0,8.5,5"/><path class="a" d="M13.25,4.75A.249.249,0,0,1,13.5,5h0a.249.249,0,0,1-.25.25h0A.25.25,0,0,1,13,5h0a.25.25,0,0,1,.25-.25"/><line class="a" x1="13.25" y1="4.75" x2="13.25" y2="4.75"/><path class="a" d="M16,4.75a.25.25,0,0,1,.25.25h0a.25.25,0,0,1-.25.25h0A.25.25,0,0,1,15.75,5h0A.25.25,0,0,1,16,4.75"/><line class="a" x1="16" y1="4.75" x2="16" y2="4.75"/><path class="a" d="M18.75,4.75A.25.25,0,0,1,19,5h0a.25.25,0,0,1-.25.25h0A.25.25,0,0,1,18.5,5h0a.25.25,0,0,1,.25-.25"/><line class="a" x1="18.75" y1="4.75" x2="18.75" y2="4.75"/></svg>