<svg xmlns="http://www.w3.org/2000/svg" viewBox="0 0 24 24"><defs><style>.a{fill:none;stroke:currentColor;stroke-linecap:round;stroke-linejoin:round;}</style></defs><title>messages-people-woman-bubble-square</title><polyline class="a" points="15.001 9.5 15.501 9.5 15.501 13.5 20.001 9.5 23.501 9.5 23.501 0.5 8.501 0.5 8.501 4.5"/><path class="a" d="M10.541,16.48a5.565,5.565,0,0,0,3.99-1.1c-.628-.629-1.061-1.024-1.226-3.463C13.059,8.279,10.607,7,8.5,7S3.943,8.279,3.7,11.914c-.165,2.439-.6,2.834-1.226,3.463a5.589,5.589,0,0,0,4.013,1.1"/><path class="a" d="M11,17.855a.755.755,0,0,1-.5-.693v-1.35a.756.756,0,0,1,.257-.545A2.115,2.115,0,0,0,11.5,13.5v-2a4.983,4.983,0,0,1-3-1.737,4.989,4.989,0,0,1-3,1.737v2a2.113,2.113,0,0,0,.742,1.767.757.757,0,0,1,.258.545v1.35a.755.755,0,0,1-.5.693C3.268,18.867,1.76,19.59,1.24,20.632A7.11,7.11,0,0,0,.5,23.5h16a7.11,7.11,0,0,0-.739-2.868C15.24,19.59,13.734,18.867,11,17.855Z"/><path class="a" d="M16,4.75a.25.25,0,0,1,.25.25h0a.25.25,0,0,1-.25.25h0A.25.25,0,0,1,15.75,5h0A.25.25,0,0,1,16,4.75"/><line class="a" x1="16" y1="4.75" x2="16" y2="4.75"/><path class="a" d="M19.5,4.75a.25.25,0,0,1,.25.25h0a.25.25,0,0,1-.25.25h0A.25.25,0,0,1,19.25,5h0a.25.25,0,0,1,.25-.25"/><line class="a" x1="19.5" y1="4.75" x2="19.5" y2="4.75"/><path class="a" d="M12.5,4.75a.25.25,0,0,0-.25.25h0a.25.25,0,0,0,.25.25h0A.25.25,0,0,0,12.75,5h0a.25.25,0,0,0-.25-.25"/><line class="a" x1="12.5" y1="4.75" x2="12.5" y2="4.75"/></svg>