<?xml version="1.0" encoding="utf-8"?>
<!-- Generator: Adobe Illustrator 22.1.0, SVG Export Plug-In . SVG Version: 6.00 Build 0)  -->
<svg version="1.1" id="Layer_1" xmlns="http://www.w3.org/2000/svg" xmlns:xlink="http://www.w3.org/1999/xlink" x="0px" y="0px"
	 viewBox="0 0 24 24" style="enable-background:new 0 0 24 24;" xml:space="preserve">
<g>
	<title>vip-crown</title>
	<path d="M3.016,23.5c-1.103,0-2-0.897-2-2c0-0.743,0.418-1.418,1.056-1.761c-2.086-1.96-2.655-5.134-1.332-7.708
		c0.793-1.544,2.141-2.687,3.794-3.218C5.182,8.605,5.852,8.5,6.524,8.5c0.951,0,1.872,0.206,2.741,0.612
		c0.716-0.334,1.472-0.533,2.25-0.593V7.461c-1.7-0.245-3-1.723-3-3.461c0-1.93,1.57-3.5,3.5-3.5s3.5,1.57,3.5,3.5
		c0,1.738-1.3,3.216-3,3.461V8.52c0.578,0.045,1.148,0.168,1.697,0.365c0.183,0.066,0.369,0.143,0.554,0.229
		c0.868-0.406,1.792-0.611,2.748-0.611c2.18,0,4.202,1.085,5.409,2.902c0.961,1.446,1.301,3.18,0.958,4.882
		c-0.271,1.345-0.932,2.531-1.92,3.453c0.636,0.344,1.054,1.018,1.054,1.76c0,1.103-0.897,2-2,2H3.016z M3.016,20.5
		c-0.551,0-1,0.448-1,1s0.449,1,1,1h18c0.552,0,1-0.448,1-1s-0.448-1-1-1H3.016z M20.676,19.5c1.156-0.813,1.946-2.021,2.226-3.41
		c0.291-1.44,0.003-2.907-0.81-4.131c-1.022-1.538-2.733-2.456-4.578-2.456c-0.566,0-1.121,0.086-1.657,0.256
		c2.293,1.682,3.25,4.731,2.277,7.441c-0.071,0.198-0.26,0.331-0.471,0.331c-0.058,0-0.115-0.01-0.169-0.029
		c-0.259-0.094-0.395-0.381-0.302-0.64c1.025-2.854-0.462-6.01-3.316-7.036c-0.604-0.217-1.231-0.327-1.864-0.327
		c-0.81,0-1.598,0.178-2.341,0.528c-1.329,0.626-2.334,1.733-2.831,3.115c-0.426,1.187-0.431,2.495-0.013,3.684
		c0.091,0.26-0.046,0.546-0.306,0.638c-0.053,0.019-0.109,0.029-0.166,0.029c-0.212,0-0.401-0.134-0.471-0.334
		c-0.494-1.405-0.489-2.951,0.015-4.353c0.444-1.238,1.227-2.281,2.277-3.045C7.638,9.588,7.082,9.501,6.519,9.501
		c-0.567,0-1.132,0.089-1.679,0.264c-1.399,0.449-2.539,1.416-3.21,2.723c-1.254,2.439-0.51,5.439,1.726,7.012H20.676z M9.568,4.5
		c0.235,1.141,1.261,2,2.448,2s2.213-0.859,2.448-2H9.568z M14.464,3.5c-0.235-1.141-1.261-2-2.448-2s-2.213,0.859-2.448,2H14.464z"
		/>
</g>
</svg>
