<?xml version="1.0" encoding="utf-8"?>
<!-- Generator: Adobe Illustrator 22.1.0, SVG Export Plug-In . SVG Version: 6.00 Build 0)  -->
<svg version="1.1" id="Layer_1" xmlns="http://www.w3.org/2000/svg" xmlns:xlink="http://www.w3.org/1999/xlink" x="0px" y="0px"
	 viewBox="0 0 24 24" style="enable-background:new 0 0 24 24;" xml:space="preserve">
<g>
	<title>vip</title>
	<path d="M11,16c-0.276,0-0.5-0.224-0.5-0.5S10.724,15,11,15h0.5v-5H11c-0.276,0-0.5-0.224-0.5-0.5S10.724,9,11,9h2
		c0.276,0,0.5,0.224,0.5,0.5S13.276,10,13,10h-0.5v5H13c0.276,0,0.5,0.224,0.5,0.5S13.276,16,13,16H11z"/>
	<path d="M15,16c-0.276,0-0.5-0.224-0.5-0.5v-6C14.5,9.224,14.724,9,15,9h1.5c1.103,0,2,0.897,2,2s-0.897,2-2,2h-1v2.5
		C15.5,15.776,15.276,16,15,16z M16.5,12c0.552,0,1-0.449,1-1s-0.448-1-1-1h-1v2H16.5z"/>
	<path d="M7.5,16c-0.157,0-0.306-0.075-0.4-0.2c-1.032-1.375-1.6-3.08-1.6-4.8V9.5C5.5,9.224,5.724,9,6,9s0.5,0.224,0.5,0.5V11
		c0,1.256,0.353,2.521,1,3.604c0.647-1.083,1-2.348,1-3.604V9.5C8.5,9.224,8.724,9,9,9s0.5,0.224,0.5,0.5V11
		c0,1.72-0.568,3.424-1.6,4.8C7.806,15.925,7.657,16,7.5,16z"/>
	<path d="M3,19c-1.379,0-2.5-1.122-2.5-2.5v-9C0.5,6.121,1.621,5,3,5h18c1.378,0,2.5,1.121,2.5,2.5v9c0,1.378-1.122,2.5-2.5,2.5H3z
		 M3,6C2.173,6,1.5,6.673,1.5,7.5v9C1.5,17.327,2.173,18,3,18h18c0.827,0,1.5-0.673,1.5-1.5v-9C22.5,6.673,21.827,6,21,6H3z"/>
</g>
</svg>
