<svg id="Regular" xmlns="http://www.w3.org/2000/svg" viewBox="0 0 24 24"><defs><style>.cls-1{fill:none;stroke:currentColor;stroke-linecap:round;stroke-linejoin:round;stroke-width:1.5px;}</style></defs><title>single-woman-actions-email</title><path class="cls-1" d="M3.376,4.986v1a5.918,5.918,0,0,1-.859,3.273"/><path class="cls-1" d="M11.623,4.986v1a5.909,5.909,0,0,0,.86,3.273"/><path class="cls-1" d="M3.387,5.205A5.489,5.489,0,0,0,7.5,3.305a5.486,5.486,0,0,0,4.112,1.9"/><circle class="cls-1" cx="7.5" cy="4.875" r="4.125"/><path class="cls-1" d="M.75,17.25a6.753,6.753,0,0,1,9.4-6.208"/><path class="cls-1" d="M23.25,15.75v6a1.5,1.5,0,0,1-1.5,1.5h-9a1.5,1.5,0,0,1-1.5-1.5v-6"/><path class="cls-1" d="M23.25,15.75a1.5,1.5,0,0,0-1.5-1.5h-9a1.5,1.5,0,0,0-1.5,1.5L16.455,19a1.5,1.5,0,0,0,1.59,0Z"/></svg>