<svg id="Regular" xmlns="http://www.w3.org/2000/svg" viewBox="0 0 24 24"><defs><style>.cls-1{fill:none;stroke:currentColor;stroke-linecap:round;stroke-linejoin:round;stroke-width:1.5px;}</style></defs><title>single-woman-actions-image</title><path class="cls-1" d="M.75,17.25A6.75,6.75,0,0,1,7.5,10.5a6.9,6.9,0,0,1,.75.041"/><path class="cls-1" d="M3.376,4.986v1a5.912,5.912,0,0,1-.859,3.272"/><path class="cls-1" d="M11.623,4.986v1a5.9,5.9,0,0,0,.86,3.272"/><path class="cls-1" d="M3.387,5.2A5.485,5.485,0,0,0,7.5,3.305a5.481,5.481,0,0,0,4.112,1.9"/><circle class="cls-1" cx="7.5" cy="4.875" r="4.125"/><rect class="cls-1" x="11.25" y="11.25" width="12" height="12" rx="1.5" ry="1.5"/><path class="cls-1" d="M15.375,14.25a.375.375,0,1,1-.375.375.375.375,0,0,1,.375-.375"/><path class="cls-1" d="M23.25,21l-2.391-3.587A.75.75,0,0,0,19.62,17.4l-2,2.851-1.237-.989a.749.749,0,0,0-1.092.169L12.75,23.25"/></svg>