<svg id="Regular" xmlns="http://www.w3.org/2000/svg" viewBox="0 0 24 24"><defs><style>.cls-1{fill:none;stroke:currentColor;stroke-linecap:round;stroke-linejoin:round;stroke-width:1.5px;}</style></defs><title>single-woman-actions-share-1</title><path class="cls-1" d="M10.886,13.5A6.751,6.751,0,0,1,23.25,17.25"/><path class="cls-1" d="M12.376,4.986v1a5.912,5.912,0,0,1-.859,3.272"/><path class="cls-1" d="M20.623,4.986v1a5.9,5.9,0,0,0,.86,3.272"/><path class="cls-1" d="M12.387,5.2a5.485,5.485,0,0,0,4.113-1.9,5.481,5.481,0,0,0,4.112,1.9"/><circle class="cls-1" cx="16.5" cy="4.875" r="4.125"/><line class="cls-1" x1="0.75" y1="14.25" x2="0.75" y2="23.25"/><path class="cls-1" d="M.75,21.75h15a3,3,0,0,0-3-3H9a3,3,0,0,0-3-3H.75"/><line class="cls-1" x1="6" y1="18.75" x2="9" y2="18.75"/></svg>