<svg id="Regular" xmlns="http://www.w3.org/2000/svg" viewBox="0 0 24 24"><defs><style>.cls-1{fill:none;stroke:currentColor;stroke-linecap:round;stroke-linejoin:round;stroke-width:1.5px;}</style></defs><title>single-woman-actions-block</title><path class="cls-1" d="M11.241,17.249a6,6,0,1,1,6,6A6,6,0,0,1,11.241,17.249Z"/><line class="cls-1" x1="13" y1="21.49" x2="21.483" y2="13.006"/><path class="cls-1" d="M3.376,4.987v1a5.91,5.91,0,0,1-.859,3.273"/><path class="cls-1" d="M11.623,4.987v1a5.909,5.909,0,0,0,.86,3.273"/><path class="cls-1" d="M3.388,5.206A5.487,5.487,0,0,0,7.5,3.306a5.487,5.487,0,0,0,4.112,1.9"/><circle class="cls-1" cx="7.5" cy="4.876" r="4.125"/><path class="cls-1" d="M.75,17.251a6.753,6.753,0,0,1,9.4-6.208"/></svg>