<svg id="Regular" xmlns="http://www.w3.org/2000/svg" viewBox="0 0 24 24"><defs><style>.cls-1{fill:none;stroke:currentColor;stroke-linecap:round;stroke-linejoin:round;stroke-width:1.5px;}</style></defs><title>single-woman-actions-money</title><path class="cls-1" d="M3.376,4.986v1a5.912,5.912,0,0,1-.859,3.272"/><path class="cls-1" d="M11.623,4.986v1a5.9,5.9,0,0,0,.86,3.272"/><path class="cls-1" d="M3.387,5.2A5.485,5.485,0,0,0,7.5,3.305a5.481,5.481,0,0,0,4.112,1.9"/><circle class="cls-1" cx="7.5" cy="4.875" r="4.125"/><path class="cls-1" d="M.75,17.25a6.753,6.753,0,0,1,9.4-6.208"/><path class="cls-1" d="M18.75,14.25H16.716a1.342,1.342,0,0,0-.5,2.587l2.063.825a1.342,1.342,0,0,1-.5,2.588H15.75"/><line class="cls-1" x1="17.25" y1="14.035" x2="17.25" y2="13.5"/><line class="cls-1" x1="17.25" y1="21" x2="17.25" y2="20.464"/><circle class="cls-1" cx="17.25" cy="17.25" r="6"/></svg>