<svg id="Regular" xmlns="http://www.w3.org/2000/svg" viewBox="0 0 24 24"><defs><style>.cls-1{fill:none;stroke:currentColor;stroke-linecap:round;stroke-linejoin:round;stroke-width:1.5px;}</style></defs><title>single-woman-actions-check-2</title><path class="cls-1" d="M23.25,17.25a6,6,0,1,1-6-6"/><path class="cls-1" d="M23.25,12.749l-5.47,5.47a.749.749,0,0,1-1.06,0L15,16.5"/><path class="cls-1" d="M3.376,4.986v1a5.9,5.9,0,0,1-.859,3.272"/><path class="cls-1" d="M11.623,4.986v1a5.9,5.9,0,0,0,.86,3.272"/><path class="cls-1" d="M3.388,5.2A5.483,5.483,0,0,0,7.5,3.305a5.483,5.483,0,0,0,4.112,1.9"/><circle class="cls-1" cx="7.5" cy="4.875" r="4.125"/><path class="cls-1" d="M.75,17.25a6.753,6.753,0,0,1,9.4-6.208"/></svg>