<?xml version="1.0" encoding="utf-8"?>
<!-- Generator: Adobe Illustrator 22.1.0, SVG Export Plug-In . SVG Version: 6.00 Build 0)  -->
<svg version="1.1" id="Layer_1" xmlns="http://www.w3.org/2000/svg" xmlns:xlink="http://www.w3.org/1999/xlink" x="0px" y="0px"
	 viewBox="0 0 24 24" style="enable-background:new 0 0 24 24;" xml:space="preserve">
<title>mask-diamond</title>
<g>
	<path d="M1.75,24C0.785,24,0,23.215,0,22.25V1.75C0,0.785,0.785,0,1.75,0h20.5C23.215,0,24,0.785,24,1.75v20.5
		c0,0.965-0.785,1.75-1.75,1.75H1.75z M1.75,1.5C1.612,1.5,1.5,1.612,1.5,1.75v20.5c0,0.138,0.112,0.25,0.25,0.25h20.5
		c0.138,0,0.25-0.112,0.25-0.25V1.75c0-0.138-0.112-0.25-0.25-0.25H1.75z"/>
	<path d="M12.001,20.252c-0.033,0-0.067-0.001-0.1-0.004c-0.305-0.026-0.583-0.17-0.781-0.405l-6.302-7.001
		c-0.421-0.491-0.424-1.191-0.012-1.671l6.33-7.033c0.023-0.028,0.071-0.077,0.124-0.121c0.206-0.174,0.468-0.27,0.738-0.27
		c0.034,0,0.067,0.001,0.101,0.005c0.302,0.026,0.577,0.167,0.774,0.397l6.309,7.009c0.421,0.49,0.424,1.19,0.012,1.67l-6.33,7.034
		c-0.022,0.027-0.069,0.075-0.121,0.119C12.534,20.156,12.271,20.252,12.001,20.252z M12,18.579L17.921,12L12,5.421L6.079,12
		L12,18.579z"/>
</g>
</svg>
