<?xml version="1.0" encoding="utf-8"?>
<!-- Generator: Adobe Illustrator 22.1.0, SVG Export Plug-In . SVG Version: 6.00 Build 0)  -->
<svg version="1.1" id="Layer_1" xmlns="http://www.w3.org/2000/svg" xmlns:xlink="http://www.w3.org/1999/xlink" x="0px" y="0px"
	 viewBox="0 0 24 24" style="enable-background:new 0 0 24 24;" xml:space="preserve">
<title>mask-triangle</title>
<g>
	<path d="M4.828,20.25c-0.398,0-0.737-0.179-0.929-0.49c-0.194-0.314-0.201-0.702-0.019-1.064l7.214-14.34
		C11.285,3.977,11.624,3.75,12,3.75s0.715,0.227,0.905,0.606c0,0,7.214,14.34,7.214,14.34c0.181,0.361,0.174,0.749-0.021,1.063
		c-0.192,0.312-0.53,0.491-0.927,0.491H4.828z M18.468,18.75L12,5.895L5.533,18.748L18.468,18.75z"/>
	<path d="M1.75,24C0.785,24,0,23.215,0,22.25V1.75C0,0.785,0.785,0,1.75,0h20.5C23.215,0,24,0.785,24,1.75v20.5
		c0,0.965-0.785,1.75-1.75,1.75H1.75z M1.75,1.5C1.612,1.5,1.5,1.612,1.5,1.75v20.5c0,0.138,0.112,0.25,0.25,0.25h20.5
		c0.138,0,0.25-0.112,0.25-0.25V1.75c0-0.138-0.112-0.25-0.25-0.25H1.75z"/>
</g>
</svg>
