<svg xmlns="http://www.w3.org/2000/svg" viewBox="0 0 24 24"><title>zip-file-clock</title><path d="M17.25,10.5A6.75,6.75,0,1,0,24,17.25,6.758,6.758,0,0,0,17.25,10.5Zm0,11.5A4.75,4.75,0,1,1,22,17.25,4.756,4.756,0,0,1,17.25,22Z"/><path d="M20.25,17.25a1,1,0,0,0-1-1H18.5a.25.25,0,0,1-.25-.25V14.75a1,1,0,0,0-2,0v2.5a1,1,0,0,0,1,1h2A1,1,0,0,0,20.25,17.25Z"/><path d="M9,17.25A8.259,8.259,0,0,1,17.25,9c.163,0,.325.005.485.015a.254.254,0,0,0,.187-.068A.25.25,0,0,0,18,8.765V5.207a1.5,1.5,0,0,0-.439-1.06L13.853.439A1.5,1.5,0,0,0,12.793,0H1.5A1.5,1.5,0,0,0,0,1.5v19A1.5,1.5,0,0,0,1.5,22h8.542a.251.251,0,0,0,.212-.383A8.2,8.2,0,0,1,9,17.25ZM6,18.5a1,1,0,1,1,1-1A1,1,0,0,1,6,18.5Zm0-3.5a1,1,0,1,1,1-1A1,1,0,0,1,6.005,15Zm0-3.5a1,1,0,1,1,1-1A1,1,0,0,1,6.005,11.5Zm1.5-4.9a1.968,1.968,0,0,1-1.479.67A1.975,1.975,0,0,1,4.016,5.049l.49-3.127A.5.5,0,0,1,5,1.5H7a.5.5,0,0,1,.494.423l.485,3.111,0,.015A1.985,1.985,0,0,1,7.508,6.6Z"/></svg>