<svg xmlns="http://www.w3.org/2000/svg" viewBox="0 0 24 24"><title>zip-file-rar</title><path d="M16,4.5A1.5,1.5,0,0,0,17.5,6h3.9a.25.25,0,0,0,.177-.427L16.427.427A.25.25,0,0,0,16,.6Z"/><path d="M12,13.125a.877.877,0,0,0-.875.875v.623a.252.252,0,0,0,.252.252h1.249a.249.249,0,0,0,.249-.249V14A.877.877,0,0,0,12,13.125Z"/><path d="M7.875,14A.877.877,0,0,0,7,13.125H6.374a.249.249,0,0,0-.249.249v1.252a.249.249,0,0,0,.249.249H7A.877.877,0,0,0,7.875,14Z"/><path d="M17.5,7A2.5,2.5,0,0,1,15,4.5V.25A.25.25,0,0,0,14.75,0H4A2,2,0,0,0,2,2V22a2,2,0,0,0,2,2H20a2,2,0,0,0,2-2V7.25A.25.25,0,0,0,21.75,7ZM7.118,16.233l1.824,1.826a.624.624,0,1,1-.884.882S6.242,17.133,6.213,17.1s-.088-.037-.088.02V18.5a.625.625,0,0,1-1.25,0v-6a.625.625,0,0,1,.625-.625H7a2.124,2.124,0,0,1,.206,4.239C7.109,16.114,7.076,16.192,7.118,16.233ZM14.125,18.5a.625.625,0,0,1-1.25,0V16.374a.249.249,0,0,0-.249-.249h-1.25a.251.251,0,0,0-.251.251V18.5a.625.625,0,0,1-1.25,0V14a2.125,2.125,0,0,1,4.25,0ZM17,11.875a2.124,2.124,0,0,1,.206,4.239c-.1,0-.13.078-.088.119l1.824,1.826a.624.624,0,1,1-.884.882s-1.816-1.808-1.845-1.843-.088-.037-.088.02V18.5a.625.625,0,0,1-1.25,0v-6a.625.625,0,0,1,.625-.625Z"/><path d="M16.374,13.125a.249.249,0,0,0-.249.249v1.252a.249.249,0,0,0,.249.249H17a.875.875,0,0,0,0-1.75Z"/></svg>