<svg xmlns="http://www.w3.org/2000/svg" viewBox="0 0 24 24"><title>zip-file-home</title><path d="M10,20.637a.244.244,0,0,0-.183-.233A2.5,2.5,0,0,1,8,18.033a2.624,2.624,0,0,1,.978-2.019l6.408-5.423a2.481,2.481,0,0,1,2.283-.492A.251.251,0,0,0,18,9.866V5.207a1.5,1.5,0,0,0-.439-1.06L13.854.439A1.5,1.5,0,0,0,12.793,0H1.5A1.5,1.5,0,0,0,0,1.5v19A1.5,1.5,0,0,0,1.5,22H9.75a.25.25,0,0,0,.25-.25ZM6,18.5a1,1,0,1,1,1-1A1,1,0,0,1,6,18.5Zm0-3.5a1,1,0,1,1,1-1A1,1,0,0,1,6.005,15Zm0-3.5a1,1,0,1,1,1-1A1,1,0,0,1,6.005,11.5Zm1.5-4.9a1.968,1.968,0,0,1-1.479.67A1.975,1.975,0,0,1,4.016,5.049l.49-3.127A.5.5,0,0,1,5,1.5H7a.5.5,0,0,1,.494.423l.485,3.111,0,.015A1.985,1.985,0,0,1,7.508,6.6Z"/><path d="M23.5,18.5a.5.5,0,0,0,.323-.882l-6.5-5.5a.5.5,0,0,0-.647,0l-6.5,5.5a.5.5,0,0,0,.324.882h1.25a.25.25,0,0,1,.25.25V23.5a.5.5,0,0,0,.5.5h9a.5.5,0,0,0,.5-.5V18.75a.25.25,0,0,1,.25-.25Z"/></svg>