<svg xmlns="http://www.w3.org/2000/svg" viewBox="0 0 24 24"><title>zip-file-settings</title><path d="M10.977,16.776a3.4,3.4,0,0,1-.718-3.606,3.218,3.218,0,0,1,3.762-1.93c.389.082.5.015.595-.352a3.151,3.151,0,0,1,3.1-2.345A.248.248,0,0,0,18,8.3V5.208a1.5,1.5,0,0,0-.439-1.062L13.853.439A1.5,1.5,0,0,0,12.793,0H1.5A1.5,1.5,0,0,0,0,1.5v19A1.5,1.5,0,0,0,1.5,22h8.974a.246.246,0,0,0,.2-.4,3,3,0,0,1-.617-1.957,3.835,3.835,0,0,1,1.057-2.5C11.25,16.994,10.977,16.776,10.977,16.776ZM6,18.5a1,1,0,1,1,1-1A1,1,0,0,1,6,18.5Zm0-3.5a1,1,0,1,1,1-1A1,1,0,0,1,6.005,15Zm0-3.5a1,1,0,1,1,1-1A1,1,0,0,1,6.005,11.5Zm1.5-4.9a1.968,1.968,0,0,1-1.479.67A1.975,1.975,0,0,1,4.016,5.049l.49-3.127A.5.5,0,0,1,5,1.5H7a.5.5,0,0,1,.494.423l.485,3.111,0,.015A1.985,1.985,0,0,1,7.508,6.6Z"/><circle cx="17.748" cy="17.031" r="1.5"/><path d="M22.528,17.344a.464.464,0,0,1,0-.626l.988-1.064a1.783,1.783,0,0,0-1.7-2.953l-1.41.327a.45.45,0,0,1-.534-.311l-.424-1.392a1.774,1.774,0,0,0-3.4,0l-.424,1.391a.456.456,0,0,1-.533.312L13.681,12.7a1.783,1.783,0,0,0-1.7,2.953l.988,1.064a.464.464,0,0,1,0,.626l-.988,1.065a1.783,1.783,0,0,0,1.7,2.953l1.41-.327a.451.451,0,0,1,.534.311l.424,1.392a1.775,1.775,0,0,0,3.4,0l.424-1.392a.451.451,0,0,1,.533-.311l1.411.327a1.783,1.783,0,0,0,1.7-2.953Zm-4.78,2.687a3,3,0,1,1,3-3A3,3,0,0,1,17.748,20.031Z"/></svg>