<svg xmlns="http://www.w3.org/2000/svg" viewBox="0 0 24 24"><title>zip-file-cash</title><path d="M9.5,17.5c0-4.346,2.791-7.87,8.253-7.972A.249.249,0,0,0,18,9.283V5.207a1.5,1.5,0,0,0-.439-1.06L13.851.439A1.5,1.5,0,0,0,12.791,0H1.5A1.5,1.5,0,0,0,0,1.5v19A1.5,1.5,0,0,0,1.5,22h8.94a.246.246,0,0,0,.207-.379A7.948,7.948,0,0,1,9.5,17.5ZM6,18.5a1,1,0,1,1,1-1A1,1,0,0,1,6,18.5ZM6,15a1,1,0,1,1,1-1A1,1,0,0,1,6,15Zm0-3.5a1,1,0,1,1,1-1A1,1,0,0,1,6,11.5Zm1.5-4.9a1.97,1.97,0,0,1-1.479.67A1.977,1.977,0,0,1,4.013,5.049L4.5,1.922A.5.5,0,0,1,5,1.5H7a.5.5,0,0,1,.494.423L7.98,5.034l0,.015A1.989,1.989,0,0,1,7.506,6.6Z"/><path d="M17.5,11A6.5,6.5,0,1,0,24,17.5,6.508,6.508,0,0,0,17.5,11Zm1.039,10.177c-.094.023-.289.109-.289.293v.28a.75.75,0,0,1-1.5,0V21.5a.248.248,0,0,0-.247-.248H16a.75.75,0,1,1,0-1.5h2.033a.592.592,0,0,0,.22-1.141l-2.062-.825a2.084,2.084,0,0,1,.343-3.978.331.331,0,0,0,.216-.328V13.25a.75.75,0,0,1,1.5,0v.25a.25.25,0,0,0,.25.25H19a.75.75,0,0,1,0,1.5H16.969a.592.592,0,0,0-.22,1.141l2.063.825a2.084,2.084,0,0,1-.271,3.961Z"/></svg>