<svg id="Light" xmlns="http://www.w3.org/2000/svg" viewBox="0 0 24 24"><defs><style>.cls-1{fill:none;stroke:currentColor;stroke-linecap:round;stroke-linejoin:round;}</style></defs><title>multiple-actions-shield</title><g id="_10_23" data-name="10*23"><path class="cls-1" d="M7.5,23.5l.5-6h2.5V14a5,5,0,0,0-10,0v3.5H3l.5,6Z"/><circle class="cls-1" cx="5.5" cy="4" r="3.5"/></g><g id="_10_23_-_cut" data-name="10*23 - cut"><g id="_Group_" data-name="&lt;Group&gt;"><path class="cls-1" d="M17.439,10.37a5.006,5.006,0,0,0-5.561-.9"/><circle class="cls-1" cx="14" cy="4.5" r="3"/></g></g><line class="cls-1" x1="18.5" y1="15.5" x2="18.5" y2="19.5"/><line class="cls-1" x1="20.5" y1="17.5" x2="16.5" y2="17.5"/><path class="cls-1" d="M18.946,23.415l.461-.176C21.6,22.4,23.5,20.3,23.5,17.957V15.13a.87.87,0,0,0-.523-.8,13.178,13.178,0,0,0-4.5-.832,12.929,12.929,0,0,0-4.459.832.87.87,0,0,0-.523.8v2.827a6.059,6.059,0,0,0,4.057,5.282l.461.176A1.3,1.3,0,0,0,18.946,23.415Z"/></svg>