<svg id="Light" xmlns="http://www.w3.org/2000/svg" viewBox="0 0 24 24"><defs><style>.cls-1{fill:none;stroke:currentColor;stroke-linecap:round;stroke-linejoin:round;}</style></defs><title>multiple-actions-flash</title><path class="cls-1" d="M17,19.5h1.5v3.64a.125.125,0,0,0,.223.078l4.657-5.893A.5.5,0,0,0,23,16.5H21.5V12.86a.125.125,0,0,0-.223-.078l-4.657,5.893A.5.5,0,0,0,17,19.5Z"/><path class="cls-1" d="M8,23.5l.5-6H11V14A5,5,0,0,0,1,14v3.5H3.5l.5,6Z"/><circle class="cls-1" cx="5.499" cy="4" r="3.5"/><g id="_Group_" data-name="&lt;Group&gt;"><circle class="cls-1" cx="13.999" cy="4.5" r="3"/></g><path class="cls-1" d="M18.7,12.485a5,5,0,0,0-7.262-2.819"/></svg>