<svg id="Light" xmlns="http://www.w3.org/2000/svg" viewBox="0 0 24 24"><defs><style>.cls-1{fill:none;stroke:currentColor;stroke-linecap:round;stroke-linejoin:round;}</style></defs><title>multiple-actions-home</title><path class="cls-1" d="M16.5,23.5V21a1.5,1.5,0,0,1,3,0v2.5"/><path class="cls-1" d="M14.5,17.682V23a.5.5,0,0,0,.5.5h6a.5.5,0,0,0,.5-.5V17.682"/><path class="cls-1" d="M12.5,19.5l5.164-4.694a.5.5,0,0,1,.672,0L23.5,19.5"/><path class="cls-1" d="M7.5,23.5l.5-6h2.5V14a5,5,0,0,0-10,0v3.5H3l.5,6Z"/><circle class="cls-1" cx="5.5" cy="4" r="3.5"/><g id="_Group_" data-name="&lt;Group&gt;"><circle class="cls-1" cx="14" cy="4.5" r="3"/></g><path class="cls-1" d="M18.7,12.485a5,5,0,0,0-7.262-2.819"/></svg>