<svg id="Light" xmlns="http://www.w3.org/2000/svg" viewBox="0 0 24 24"><defs><style>.cls-1{fill:none;stroke:currentColor;stroke-linecap:round;stroke-linejoin:round;}</style></defs><title>multiple-actions-laptop</title><g id="_10_23" data-name="10*23"><path class="cls-1" d="M7.5,23.5l.5-6h2.5V14a5,5,0,0,0-10,0v3.5H3l.5,6Z"/><circle class="cls-1" cx="5.5" cy="4" r="3.5"/></g><g id="_10_23_-_cut" data-name="10*23 - cut"><g id="_Group_" data-name="&lt;Group&gt;"><path class="cls-1" d="M17.439,10.37a5.006,5.006,0,0,0-5.561-.9"/><circle class="cls-1" cx="14" cy="4.5" r="3"/></g></g><path class="cls-1" d="M14.5,19.5h8l.985,3.379A.5.5,0,0,1,23,23.5H14a.5.5,0,0,1-.485-.621Z"/><path class="cls-1" d="M22,14.5H15a.5.5,0,0,0-.5.5v4.5h8V15A.5.5,0,0,0,22,14.5Z"/><line class="cls-1" x1="18" y1="21.5" x2="19" y2="21.5"/></svg>