<svg id="Light" xmlns="http://www.w3.org/2000/svg" viewBox="0 0 24 24"><defs><style>.cls-1{fill:none;stroke:currentColor;stroke-linecap:round;stroke-linejoin:round;}</style></defs><title>multiple-actions-graduate</title><path class="cls-1" d="M21.9,18.833v2.486a1,1,0,0,1-.634.93l-3.015,1.187a1,1,0,0,1-.7,0l-3.015-1.187a1,1,0,0,1-.634-.93V18.833"/><path class="cls-1" d="M17.708,15.58,11.9,18l5.808,2.42a.5.5,0,0,0,.384,0l5.254-2.189a.25.25,0,0,0,0-.462L18.092,15.58A.5.5,0,0,0,17.708,15.58Z"/><line class="cls-1" x1="11.9" y1="18" x2="11.9" y2="21.5"/><path class="cls-1" d="M10.5,15V14a5,5,0,0,0-10,0v3.5H3l.5,6h4l.5-6H9"/><circle class="cls-1" cx="5.5" cy="4" r="3.5"/><g id="_Group_" data-name="&lt;Group&gt;"><circle class="cls-1" cx="14" cy="4.5" r="3"/></g><path class="cls-1" d="M18.7,12.485a5,5,0,0,0-7.262-2.819"/></svg>