<?xml version="1.0" encoding="utf-8"?>
<!-- Generator: Adobe Illustrator 22.1.0, SVG Export Plug-In . SVG Version: 6.00 Build 0)  -->
<svg version="1.1" id="Layer_1" xmlns="http://www.w3.org/2000/svg" xmlns:xlink="http://www.w3.org/1999/xlink" x="0px" y="0px"
	 viewBox="0 0 24 24" style="enable-background:new 0 0 24 24;" xml:space="preserve">
<title>playlist-upload</title>
<g>
	<path d="M2.25,19.5C1.009,19.5,0,18.491,0,17.25v-15C0,1.009,1.009,0,2.25,0h16.5C19.991,0,21,1.009,21,2.25v6
		C21,8.664,20.664,9,20.25,9S19.5,8.664,19.5,8.25v-6c0-0.414-0.336-0.75-0.75-0.75H2.25C1.836,1.5,1.5,1.836,1.5,2.25v15
		C1.5,17.664,1.836,18,2.25,18h6C8.664,18,9,18.336,9,18.75S8.664,19.5,8.25,19.5H2.25z"/>
	<path d="M6.375,15.75c-1.447,0-2.625-1.177-2.625-2.625c0-1.447,1.178-2.625,2.625-2.625c0.392,0,0.776,0.089,1.125,0.255V6.331
		c0-0.97,0.618-1.828,1.539-2.135l4.536-1.261c0.206-0.069,0.44-0.107,0.676-0.107c0.969,0,1.826,0.62,2.133,1.542
		C16.461,4.599,16.5,4.839,16.5,5.081V8.25C16.5,8.664,16.164,9,15.75,9S15,8.664,15,8.25V5.081c0-0.081-0.013-0.16-0.038-0.236
		c-0.103-0.308-0.389-0.514-0.713-0.514c-0.08,0-0.16,0.013-0.236,0.039L9.477,5.631C9.204,5.722,9,6.013,9,6.331v6.794
		C9,14.573,7.822,15.75,6.375,15.75z M6.375,12c-0.62,0-1.125,0.505-1.125,1.125s0.505,1.125,1.125,1.125S7.5,13.745,7.5,13.125
		S6.995,12,6.375,12z"/>
	<path d="M17.25,24c-3.722,0-6.75-3.028-6.75-6.75s3.028-6.75,6.75-6.75S24,13.528,24,17.25S20.972,24,17.25,24z M17.25,12
		C14.355,12,12,14.355,12,17.25s2.355,5.25,5.25,5.25s5.25-2.355,5.25-5.25S20.145,12,17.25,12z"/>
	<path d="M17.25,21c-0.414,0-0.75-0.336-0.75-0.75v-4.189l-0.97,0.97c-0.142,0.142-0.33,0.22-0.53,0.22s-0.389-0.078-0.53-0.22
		c-0.292-0.292-0.292-0.768,0-1.061l2.25-2.25c0.07-0.07,0.152-0.125,0.245-0.163c0.008-0.003,0.017-0.007,0.026-0.01
		c0.082-0.031,0.17-0.047,0.259-0.047c0.087,0,0.174,0.016,0.258,0.046c0.006,0.002,0.011,0.004,0.017,0.006
		c0.104,0.042,0.186,0.097,0.256,0.167l2.25,2.25c0.292,0.292,0.292,0.768,0,1.061c-0.142,0.142-0.33,0.22-0.53,0.22
		s-0.389-0.078-0.53-0.22L18,16.061v4.189C18,20.664,17.664,21,17.25,21z"/>
</g>
</svg>
