<?xml version="1.0" encoding="utf-8"?>
<!-- Generator: Adobe Illustrator 22.1.0, SVG Export Plug-In . SVG Version: 6.00 Build 0)  -->
<svg version="1.1" id="Layer_1" xmlns="http://www.w3.org/2000/svg" xmlns:xlink="http://www.w3.org/1999/xlink" x="0px" y="0px"
	 viewBox="0 0 24 24" style="enable-background:new 0 0 24 24;" xml:space="preserve">
<title>playlist-songs</title>
<g>
	<path d="M10.552,24c-1.625,0-2.948-1.323-2.948-2.948s1.323-2.948,2.948-2.948c0.515,0,1.011,0.132,1.448,0.38V11.4
		c0-1.216,0.775-2.291,1.928-2.675l6.402-1.739c0.262-0.088,0.555-0.136,0.852-0.136c1.213,0,2.286,0.775,2.672,1.928
		C23.951,9.067,24,9.368,24,9.672v8.38C24,19.677,22.677,21,21.052,21s-2.948-1.323-2.948-2.948s1.323-2.948,2.948-2.948
		c0.515,0,1.011,0.132,1.448,0.38V9.672c0-0.143-0.023-0.283-0.068-0.418c-0.18-0.539-0.683-0.901-1.251-0.901
		c-0.141,0-0.281,0.023-0.416,0.068l-6.403,1.74c-0.507,0.17-0.862,0.67-0.862,1.239v9.652C13.5,22.677,12.177,24,10.552,24z
		 M10.552,19.604c-0.798,0-1.448,0.65-1.448,1.448s0.65,1.448,1.448,1.448S12,21.85,12,21.052S11.35,19.604,10.552,19.604z
		 M21.052,16.604c-0.798,0-1.448,0.65-1.448,1.448s0.65,1.448,1.448,1.448s1.448-0.65,1.448-1.448S21.85,16.604,21.052,16.604z"/>
	<path d="M5.25,1.5C4.836,1.5,4.5,1.164,4.5,0.75S4.836,0,5.25,0h15C20.664,0,21,0.336,21,0.75S20.664,1.5,20.25,1.5H5.25z"/>
	<path d="M5.25,7.5C4.836,7.5,4.5,7.164,4.5,6.75S4.836,6,5.25,6h6C11.664,6,12,6.336,12,6.75S11.664,7.5,11.25,7.5H5.25z"/>
	<path d="M5.25,13.5c-0.414,0-0.75-0.336-0.75-0.75S4.836,12,5.25,12h3C8.664,12,9,12.336,9,12.75S8.664,13.5,8.25,13.5H5.25z"/>
	<circle cx="1.125" cy="1.125" r="1.125"/>
	<circle cx="1.125" cy="6.375" r="1.125"/>
	<circle cx="1.125" cy="12.375" r="1.125"/>
</g>
</svg>
