<?xml version="1.0" encoding="utf-8"?>
<!-- Generator: Adobe Illustrator 22.1.0, SVG Export Plug-In . SVG Version: 6.00 Build 0)  -->
<svg version="1.1" id="Layer_1" xmlns="http://www.w3.org/2000/svg" xmlns:xlink="http://www.w3.org/1999/xlink" x="0px" y="0px"
	 viewBox="0 0 24 24" style="enable-background:new 0 0 24 24;" xml:space="preserve">
<title>playlist</title>
<g>
	<path d="M0.75,21C0.336,21,0,20.664,0,20.25v-15C0,4.836,0.336,4.5,0.75,4.5S1.5,4.836,1.5,5.25v15C1.5,20.664,1.164,21,0.75,21z"
		/>
	<path d="M23.25,21c-0.414,0-0.75-0.336-0.75-0.75v-15c0-0.414,0.336-0.75,0.75-0.75S24,4.836,24,5.25v15
		C24,20.664,23.664,21,23.25,21z"/>
	<path d="M5.25,22.5C4.009,22.5,3,21.491,3,20.25V3.75C3,2.509,4.009,1.5,5.25,1.5h13.5C19.991,1.5,21,2.509,21,3.75v16.5
		c0,1.241-1.009,2.25-2.25,2.25H5.25z M5.25,3C4.836,3,4.5,3.336,4.5,3.75v16.5C4.5,20.664,4.836,21,5.25,21h13.5
		c0.414,0,0.75-0.336,0.75-0.75V3.75C19.5,3.336,19.164,3,18.75,3H5.25z"/>
	<path d="M7.875,18.75c-1.447,0-2.625-1.177-2.625-2.625S6.428,13.5,7.875,13.5c0.392,0,0.776,0.088,1.125,0.255V9.5
		c0-0.97,0.619-1.828,1.539-2.135l4.536-1.261c0.203-0.069,0.436-0.106,0.673-0.106c0.346,0,0.695,0.083,1.009,0.24
		c0.537,0.269,0.938,0.731,1.128,1.301C17.961,7.769,18,8.008,18,8.25v5.625c0,1.448-1.177,2.625-2.625,2.625
		s-2.625-1.177-2.625-2.625s1.177-2.625,2.625-2.625c0.392,0,0.776,0.088,1.125,0.255V8.25c0-0.081-0.013-0.16-0.038-0.236
		c-0.063-0.191-0.197-0.345-0.376-0.434C15.98,7.526,15.867,7.5,15.751,7.5c-0.08,0-0.161,0.013-0.238,0.039L10.977,8.8
		C10.704,8.891,10.5,9.182,10.5,9.5v6.625C10.5,17.573,9.322,18.75,7.875,18.75z M7.875,15c-0.62,0-1.125,0.505-1.125,1.125
		s0.505,1.125,1.125,1.125S9,16.745,9,16.125S8.495,15,7.875,15z M15.375,12.75c-0.62,0-1.125,0.505-1.125,1.125
		S14.755,15,15.375,15s1.125-0.505,1.125-1.125S15.995,12.75,15.375,12.75z"/>
</g>
</svg>
