<?xml version="1.0" encoding="utf-8"?>
<!-- Generator: Adobe Illustrator 22.1.0, SVG Export Plug-In . SVG Version: 6.00 Build 0)  -->
<svg version="1.1" id="Layer_1" xmlns="http://www.w3.org/2000/svg" xmlns:xlink="http://www.w3.org/1999/xlink" x="0px" y="0px"
	 viewBox="0 0 24 24" style="enable-background:new 0 0 24 24;" xml:space="preserve">
<title>playlist-star-favorite</title>
<g>
	<path d="M2.25,19.501c-1.241,0-2.25-1.009-2.25-2.25v-15c0-1.241,1.009-2.25,2.25-2.25h16.5c1.241,0,2.25,1.009,2.25,2.25v6
		c0,0.414-0.336,0.75-0.75,0.75s-0.75-0.336-0.75-0.75v-6c0-0.414-0.336-0.75-0.75-0.75H2.25c-0.414,0-0.75,0.336-0.75,0.75v15
		c0,0.414,0.336,0.75,0.75,0.75H9c0.414,0,0.75,0.336,0.75,0.75s-0.336,0.75-0.75,0.75H2.25z"/>
	<path d="M6.375,15.751c-1.447,0-2.625-1.177-2.625-2.625c0-1.447,1.178-2.625,2.625-2.625c0.392,0,0.776,0.089,1.125,0.255V6.332
		c0-0.97,0.619-1.828,1.539-2.135l4.536-1.261c0.204-0.069,0.436-0.106,0.673-0.106c0.346,0,0.695,0.083,1.009,0.24
		c0.537,0.269,0.938,0.731,1.128,1.301C16.461,4.6,16.5,4.839,16.5,5.082v3.919c0,0.414-0.336,0.75-0.75,0.75
		c-0.414,0-0.75-0.336-0.75-0.75V5.082c0-0.081-0.013-0.16-0.038-0.236c-0.063-0.191-0.197-0.345-0.376-0.435
		c-0.106-0.053-0.218-0.08-0.334-0.08c-0.08,0-0.16,0.013-0.238,0.039L9.477,5.631C9.204,5.723,9,6.013,9,6.332v6.794
		C9,14.573,7.822,15.751,6.375,15.751z M6.375,12.001c-0.62,0-1.125,0.505-1.125,1.125s0.505,1.125,1.125,1.125
		S7.5,13.746,7.5,13.126S6.995,12.001,6.375,12.001z"/>
	<path d="M13.363,24c-0.549,0-1.059-0.294-1.333-0.768c-0.238-0.411-0.271-0.918-0.089-1.357l1.203-2.762l-2.097-1.464
		c-0.024-0.017-0.047-0.034-0.068-0.053c-0.612-0.542-0.669-1.482-0.127-2.095c0.281-0.318,0.69-0.5,1.122-0.5l2.5,0l1.361-3.586
		c0.011-0.029,0.024-0.058,0.04-0.087c0.195-0.365,0.521-0.632,0.917-0.753c0.147-0.045,0.299-0.067,0.451-0.067
		c0.252,0,0.504,0.064,0.729,0.184c0.271,0.145,0.491,0.365,0.636,0.636c0.015,0.029,0.029,0.058,0.04,0.089l1.357,3.584l2.514,0
		c0.373,0,0.729,0.14,1.005,0.395c0.291,0.269,0.46,0.635,0.476,1.032c0.018,0.445-0.163,0.87-0.495,1.167
		c-0.025,0.021-0.047,0.039-0.07,0.055l-2.097,1.465l1.197,2.75c0.328,0.792-0.043,1.695-0.825,2.02
		c-0.187,0.077-0.385,0.116-0.588,0.116l0,0c-0.271,0-0.537-0.071-0.769-0.205l-3.114-1.75l-3.119,1.755
		C13.893,23.93,13.63,24,13.363,24z M13.322,22.462c0.001,0,0.002,0.012,0.007,0.021c0.01,0.016,0.027,0.018,0.032,0.018l3.511-1.97
		c0.113-0.063,0.24-0.096,0.368-0.096s0.255,0.033,0.367,0.096l3.49,1.961l0.026,0.009c0.031-0.01,0.04-0.031,0.032-0.05
		l-1.437-3.301c-0.142-0.326-0.033-0.711,0.259-0.914L22.46,16.5l-2.972,0c-0.31,0-0.592-0.195-0.701-0.484l-1.513-3.997
		c-0.002-0.002-0.005-0.004-0.008-0.005l-0.147-0.363l0.096,0.317l0.013,0.005l-0.006,0.017l0.006,0.02
		c-0.007,0.002-0.012,0.005-0.017,0.009l-1.517,3.998c-0.11,0.289-0.392,0.484-0.701,0.484h-2.968l2.483,1.734
		c0.292,0.203,0.4,0.588,0.258,0.914L13.322,22.462C13.322,22.462,13.322,22.462,13.322,22.462z"/>
</g>
</svg>
