<?xml version="1.0" encoding="utf-8"?>
<!-- Generator: Adobe Illustrator 22.1.0, SVG Export Plug-In . SVG Version: 6.00 Build 0)  -->
<svg version="1.1" id="Layer_1" xmlns="http://www.w3.org/2000/svg" xmlns:xlink="http://www.w3.org/1999/xlink" x="0px" y="0px"
	 viewBox="0 0 24 24" style="enable-background:new 0 0 24 24;" xml:space="preserve">
<title>content-typing-machine-1</title>
<g>
	<path d="M2.671,24c-0.134,0-0.269-0.013-0.401-0.037c-0.592-0.109-1.105-0.441-1.446-0.936c-0.341-0.495-0.469-1.093-0.361-1.684
		l1.034-5.661V13.5h-0.75c-0.414,0-0.75-0.336-0.75-0.75S0.333,12,0.746,12h0.879c0.314-0.885,1.162-1.5,2.121-1.5h0.75v-9
		c0-0.827,0.673-1.5,1.5-1.5H15c0.198,0,0.391,0.08,0.53,0.22l3.75,3.75C19.422,4.111,19.5,4.3,19.5,4.5v6h0.746
		c0.96,0,1.808,0.615,2.121,1.5h0.879c0.414,0,0.75,0.336,0.75,0.75s-0.336,0.75-0.75,0.75h-0.75v2.181l1.042,5.662
		c0.025,0.135,0.037,0.273,0.037,0.411c-0.001,0.601-0.236,1.165-0.662,1.589C22.488,23.767,21.924,24,21.325,24H2.671z
		 M1.938,21.614c-0.036,0.198,0.006,0.397,0.12,0.562c0.114,0.165,0.285,0.276,0.482,0.312C2.584,22.496,2.628,22.5,2.673,22.5
		h18.649c0.415,0,0.752-0.336,0.753-0.749c0-0.046-0.004-0.091-0.012-0.137L21.122,16.5H2.872L1.938,21.614z M20.996,15v-2.25
		c0-0.414-0.336-0.75-0.75-0.75h-16.5c-0.414,0-0.75,0.336-0.75,0.75V15H20.996z M18,10.5V4.811L14.689,1.5H6
		c-0.003,0-0.004,0-0.005,0.001l0,8.999H18z"/>
	<path d="M16.871,20.625c-0.62,0-1.125-0.505-1.125-1.125c0-0.598,0.468-1.089,1.066-1.121c0.019-0.003,0.041-0.004,0.059-0.004
		c0.62,0,1.125,0.505,1.125,1.125S17.491,20.625,16.871,20.625z"/>
	<path d="M12,20.625c-0.62,0-1.125-0.505-1.125-1.125S11.38,18.375,12,18.375c0.62,0,1.125,0.505,1.125,1.125
		S12.62,20.625,12,20.625z"/>
	<path d="M7.125,20.625c-0.296,0-0.575-0.114-0.787-0.321C6.124,20.094,6.003,19.812,6,19.512c-0.003-0.301,0.111-0.584,0.321-0.799
		c0.182-0.186,0.418-0.299,0.682-0.328c0.003,0,0.006-0.001,0.009-0.001c0.039-0.005,0.069-0.009,0.1-0.009c0.001,0,0.002,0,0.003,0
		c0.018,0,0.045,0.001,0.064,0.004l0.007,0C7.773,18.398,8.25,18.891,8.25,19.5c0,0.614-0.5,1.118-1.113,1.125
		c-0.001,0-0.003,0-0.004,0H7.125z"/>
	<path d="M8.246,9c-0.414,0-0.75-0.336-0.75-0.75S7.833,7.5,8.246,7.5h6.75c0.414,0,0.75,0.336,0.75,0.75S15.41,9,14.996,9H8.246z"
		/>
	<path d="M8.246,5.25c-0.414,0-0.75-0.336-0.75-0.75s0.336-0.75,0.75-0.75h3.75c0.414,0,0.75,0.336,0.75,0.75s-0.336,0.75-0.75,0.75
		H8.246z"/>
</g>
</svg>
