<?xml version="1.0" encoding="utf-8"?>
<!-- Generator: Adobe Illustrator 22.1.0, SVG Export Plug-In . SVG Version: 6.00 Build 0)  -->
<svg version="1.1" id="Layer_1" xmlns="http://www.w3.org/2000/svg" xmlns:xlink="http://www.w3.org/1999/xlink" x="0px" y="0px"
	 viewBox="0 0 24 24" style="enable-background:new 0 0 24 24;" xml:space="preserve">
<title>content-pen-2</title>
<g>
	<path d="M0.737,24.003c-0.2,0-0.389-0.078-0.53-0.22c-0.142-0.141-0.22-0.33-0.22-0.53s0.078-0.389,0.219-0.531l1.414-1.415
		l-0.53-0.53c-0.14-0.14-0.22-0.333-0.22-0.53s0.08-0.391,0.22-0.53l1.682-1.682c-0.404-0.848-0.239-1.882,0.439-2.56l13.75-13.75
		c-0.3-0.144-0.63-0.218-0.971-0.218c-0.6,0-1.164,0.233-1.587,0.656l-3.237,3.236c-0.142,0.142-0.33,0.219-0.53,0.219
		c-0.2,0-0.389-0.078-0.53-0.22c-0.292-0.293-0.292-0.768,0-1.061l3.237-3.236c0.708-0.707,1.649-1.096,2.651-1.096
		c0.76,0,1.505,0.232,2.125,0.659c0.616-0.416,1.352-0.642,2.101-0.642c1.013,0,1.962,0.397,2.672,1.117
		c1.427,1.45,1.427,3.81,0,5.26L8.52,20.778c-0.425,0.424-0.99,0.658-1.591,0.658c-0.34,0-0.672-0.076-0.974-0.221l-1.683,1.683
		c-0.142,0.142-0.33,0.22-0.53,0.22s-0.389-0.078-0.53-0.22l-0.53-0.53l-1.414,1.415C1.125,23.925,0.937,24.003,0.737,24.003z
		 M3.742,21.308l1.061-1.061l-1.061-1.061l-1.061,1.061L3.742,21.308z M4.272,16.535c-0.292,0.292-0.292,0.768,0,1.06l2.127,2.122
		c0.141,0.141,0.33,0.219,0.531,0.219c0.201,0,0.389-0.078,0.53-0.219l8.481-8.484l-3.183-3.184L4.272,16.535z M17.001,10.172
		l4.827-4.829c0.852-0.867,0.851-2.281-0.005-3.151c-0.426-0.432-0.995-0.671-1.604-0.671c-0.595,0-1.156,0.229-1.578,0.645
		l-4.822,4.822L17.001,10.172z"/>
</g>
</svg>
