<?xml version="1.0" encoding="utf-8"?>
<!-- Generator: Adobe Illustrator 22.1.0, SVG Export Plug-In . SVG Version: 6.00 Build 0)  -->
<svg version="1.1" id="Layer_1" xmlns="http://www.w3.org/2000/svg" xmlns:xlink="http://www.w3.org/1999/xlink" x="0px" y="0px"
	 viewBox="0 0 24 24" style="enable-background:new 0 0 24 24;" xml:space="preserve">
<title>content-pen-3</title>
<g>
	<path d="M0.747,24.004c-0.2,0-0.388-0.078-0.53-0.219c-0.217-0.216-0.281-0.538-0.163-0.82l3.06-7.327
		c0.004-0.01,0.009-0.02,0.014-0.03c0.012-0.028,0.036-0.071,0.067-0.115c0.006-0.009,0.025-0.032,0.031-0.04
		c0.017-0.022,0.031-0.039,0.047-0.054L13.852,4.826c0.009-0.011,0.018-0.022,0.027-0.031c0.013-0.013,0.028-0.026,0.044-0.039
		l3.035-3.035C16.661,1.581,16.337,1.509,16,1.509c-0.601,0-1.164,0.232-1.587,0.655l-3.186,3.182
		c-0.142,0.141-0.33,0.219-0.53,0.219c-0.201,0-0.389-0.078-0.531-0.22c-0.292-0.292-0.292-0.768,0.001-1.061l3.186-3.182
		c0.706-0.706,1.647-1.095,2.651-1.095c0.759,0,1.501,0.231,2.121,0.655c0.629-0.419,1.378-0.647,2.138-0.647
		c0.761,0,1.5,0.223,2.135,0.646c0.829,0.589,1.373,1.454,1.542,2.443c0.168,0.989-0.058,1.983-0.638,2.799
		c-0.12,0.17-0.256,0.33-0.403,0.477L8.58,20.7c-0.013,0.013-0.029,0.026-0.045,0.038c-0.062,0.054-0.125,0.094-0.194,0.123
		l-7.301,3.085C0.945,23.985,0.848,24.004,0.747,24.004z M2.147,21.849l4.584-1.937l-2.663-2.663L2.147,21.849z M8.049,19.109
		l9.546-9.546l-3.18-3.18l-9.547,9.544L8.049,19.109z M18.656,8.503l3.182-3.182c0.088-0.089,0.169-0.185,0.241-0.286
		c0.719-1.011,0.481-2.419-0.531-3.138c-0.375-0.249-0.822-0.384-1.284-0.384c-0.642,0-1.265,0.267-1.71,0.732l-3.078,3.077
		L18.656,8.503z"/>
</g>
</svg>
