<?xml version="1.0" encoding="utf-8"?>
<!-- Generator: Adobe Illustrator 22.1.0, SVG Export Plug-In . SVG Version: 6.00 Build 0)  -->
<svg version="1.1" id="Layer_1" xmlns="http://www.w3.org/2000/svg" xmlns:xlink="http://www.w3.org/1999/xlink" x="0px" y="0px"
	 viewBox="0 0 24 24" style="enable-background:new 0 0 24 24;" xml:space="preserve">
<title>content-pen-4</title>
<g>
	<path d="M0.921,23.826c-0.2,0-0.389-0.078-0.53-0.22c-0.142-0.142-0.22-0.33-0.22-0.53s0.078-0.389,0.22-0.53l1.415-1.415
		L1.275,20.6c-0.14-0.14-0.22-0.333-0.22-0.53s0.08-0.391,0.22-0.53l1.682-1.682c-0.404-0.847-0.239-1.881,0.439-2.56l12.69-12.69
		c-0.301-0.144-0.631-0.219-0.972-0.219c-0.6,0-1.164,0.233-1.587,0.656L10.29,6.281c-0.142,0.142-0.33,0.22-0.53,0.22
		s-0.389-0.078-0.53-0.22c-0.142-0.141-0.22-0.33-0.22-0.53s0.078-0.389,0.22-0.53l3.236-3.236c0.708-0.707,1.65-1.097,2.652-1.097
		s1.944,0.39,2.651,1.097l0.53-0.53c0.424-0.424,0.989-0.658,1.591-0.658c0.601,0,1.166,0.234,1.591,0.658l1.061-1.061
		c0.142-0.142,0.33-0.22,0.53-0.22s0.389,0.078,0.53,0.22c0.142,0.141,0.22,0.33,0.22,0.53s-0.078,0.389-0.22,0.53l-1.061,1.061
		l0.001,0.001c0.877,0.877,0.877,2.304,0,3.182l-0.53,0.531c0.142,0.142,0.22,0.33,0.22,0.53s-0.078,0.389-0.22,0.53L8.699,20.6
		c-0.425,0.424-0.99,0.658-1.591,0.658c-0.339,0-0.669-0.075-0.97-0.219l-1.682,1.682c-0.142,0.142-0.33,0.22-0.53,0.22
		s-0.389-0.078-0.53-0.22l-0.53-0.53l-1.415,1.415C1.31,23.748,1.121,23.826,0.921,23.826z M3.926,21.13l1.061-1.061l-1.061-1.061
		l-1.06,1.061L3.926,21.13z M4.456,16.358c-0.292,0.292-0.292,0.768,0,1.06l2.122,2.122c0.141,0.141,0.33,0.219,0.53,0.219
		c0.201,0,0.389-0.078,0.53-0.219l7.425-7.424l-3.183-3.182L4.456,16.358z M16.124,11.055l4.297-4.296
		c-0.005-0.005-3.177-3.177-3.182-3.182l-4.297,4.297L16.124,11.055z M20.952,5.167l0.53-0.53c0.292-0.292,0.292-0.768,0-1.061
		l-1.061-1.061c-0.141-0.141-0.33-0.219-0.53-0.219s-0.389,0.078-0.53,0.219l-0.53,0.53L20.952,5.167z"/>
</g>
</svg>
