<?xml version="1.0" encoding="utf-8"?>
<!-- Generator: Adobe Illustrator 22.1.0, SVG Export Plug-In . SVG Version: 6.00 Build 0)  -->
<svg version="1.1" id="Layer_1" xmlns="http://www.w3.org/2000/svg" xmlns:xlink="http://www.w3.org/1999/xlink" x="0px" y="0px"
	 viewBox="0 0 24 24" style="enable-background:new 0 0 24 24;" xml:space="preserve">
<title>earpods-double-tap-1</title>
<g>
	<circle cx="6" cy="6" r="1.125"/>
	<path d="M9.75,24c-0.827,0-1.5-0.673-1.5-1.5V11.81c-0.487,0.126-0.988,0.189-1.495,0.189c-1.605,0-3.169-0.656-4.291-1.8
		C2.326,10.058,2.25,9.871,2.25,9.674V2.326c0-0.198,0.076-0.384,0.215-0.525C3.586,0.657,5.15,0.001,6.754,0.001
		c0.895,0,1.758,0.194,2.567,0.578c0.181,0.086,0.318,0.237,0.385,0.425c0.067,0.189,0.057,0.392-0.029,0.573
		C9.555,1.838,9.289,2.007,9,2.007c-0.112,0-0.22-0.024-0.321-0.073C8.072,1.647,7.424,1.501,6.754,1.501
		c-1.117,0-2.177,0.405-3.004,1.145v6.708c0.825,0.739,1.884,1.143,3,1.143c0.514,0,1.018-0.086,1.5-0.257V9
		c0-0.414,0.336-0.75,0.75-0.75S9.75,8.586,9.75,9v13.5h1.5v-9c0-0.414,0.336-0.75,0.75-0.75s0.75,0.336,0.75,0.75v9
		c0,0.827-0.673,1.5-1.5,1.5H9.75z"/>
	<path d="M15.75,12.001c-3.308,0-6-2.692-6-6s2.692-6,6-6s6,2.692,6,6S19.058,12.001,15.75,12.001z M15.75,1.501
		c-2.481,0-4.5,2.019-4.5,4.5s2.019,4.5,4.5,4.5s4.5-2.019,4.5-4.5S18.231,1.501,15.75,1.501z"/>
	<path d="M15.75,9.001c-1.654,0-3-1.346-3-3s1.346-3,3-3s3,1.346,3,3S17.404,9.001,15.75,9.001z M15.75,4.501
		c-0.827,0-1.5,0.673-1.5,1.5s0.673,1.5,1.5,1.5s1.5-0.673,1.5-1.5S16.577,4.501,15.75,4.501z"/>
</g>
</svg>
