<?xml version="1.0" encoding="utf-8"?>
<!-- Generator: Adobe Illustrator 22.1.0, SVG Export Plug-In . SVG Version: 6.00 Build 0)  -->
<svg version="1.1" id="Layer_1" xmlns="http://www.w3.org/2000/svg" xmlns:xlink="http://www.w3.org/1999/xlink" x="0px" y="0px"
	 viewBox="0 0 24 24" style="enable-background:new 0 0 24 24;" xml:space="preserve">
<title>earpods-charge</title>
<g>
	<circle cx="3.75" cy="6" r="1.125"/>
	<circle cx="20.25" cy="6" r="1.125"/>
	<path d="M6.75,24c-2.895,0-5.25-2.355-5.25-5.25v-4.5c0-0.414,0.336-0.75,0.75-0.75H6v-1.69C5.512,11.936,5.011,12,4.504,12
		c-1.605,0-3.168-0.656-4.29-1.801C0.076,10.058,0,9.872,0,9.674V2.326c0-0.197,0.076-0.383,0.214-0.524
		C1.261,0.73,2.661,0.093,4.158,0.009c0.057-0.001,0.101-0.002,0.145-0.002c1.612,0,3.138,0.615,4.298,1.732
		c1.193,1.148,1.867,2.692,1.898,4.347c0.001,0.07,0.002,0.141,0.001,0.211V13.5h3V6.292c-0.001-0.065-0.001-0.135,0-0.206
		c0.064-3.352,2.843-6.079,6.195-6.079l0.12,0.001c1.519,0.084,2.925,0.721,3.972,1.794C23.924,1.943,24,2.129,24,2.326v7.348
		c0,0.197-0.076,0.384-0.214,0.525c-1.122,1.144-2.685,1.801-4.29,1.801l0,0c-0.507,0-1.008-0.064-1.496-0.19v1.69h3.75
		c0.414,0,0.75,0.336,0.75,0.75v4.5c0,2.895-2.355,5.25-5.25,5.25H6.75z M3,18.75c0,2.068,1.682,3.75,3.75,3.75h10.5
		c2.068,0,3.75-1.682,3.75-3.75V15H3V18.75z M16.5,13.5V9c0-0.414,0.336-0.75,0.75-0.75S18,8.586,18,9v1.24
		c0.483,0.171,0.986,0.258,1.501,0.258c1.115,0,2.174-0.405,2.999-1.143V2.645c-0.756-0.679-1.724-1.081-2.742-1.139l-0.075,0
		c-2.533,0-4.634,2.067-4.682,4.608c-0.001,0.054-0.001,0.108,0,0.162V13.5H16.5z M9,13.5V6.289c0.001-0.066,0.001-0.12,0-0.174
		C8.976,4.86,8.465,3.69,7.561,2.82C6.681,1.973,5.527,1.507,4.31,1.507L4.214,1.508C3.218,1.564,2.255,1.967,1.5,2.645v6.708
		c0.825,0.739,1.884,1.143,2.999,1.143c0.515,0,1.019-0.087,1.501-0.258V9c0-0.414,0.336-0.75,0.75-0.75S7.5,8.586,7.5,9v4.5H9z"/>
	<path d="M11.25,21.75c-0.2,0-0.389-0.078-0.53-0.22c-0.292-0.292-0.292-0.768,0-1.061l0.853-0.853l-1.489-0.993
		c-0.188-0.125-0.308-0.325-0.33-0.55s0.057-0.445,0.216-0.604l1.5-1.5c0.142-0.142,0.33-0.22,0.53-0.22s0.389,0.078,0.53,0.22
		c0.292,0.292,0.292,0.768,0,1.061l-0.853,0.853l1.489,0.993c0.187,0.125,0.308,0.325,0.33,0.55
		c0.022,0.225-0.057,0.446-0.217,0.605l-1.5,1.5C11.639,21.672,11.45,21.75,11.25,21.75z"/>
</g>
</svg>
