<svg xmlns="http://www.w3.org/2000/svg" viewBox="0 0 24 24"><title>wifi-signal-4</title><path d="M13.041,11.933a3,3,0,1,0-2.082,0L7.06,22.656A1,1,0,0,0,8,24h8a1,1,0,0,0,.94-1.342Z"/><path d="M20.339.291a1,1,0,1,0-1.414,1.414,10.515,10.515,0,0,1,0,14.85,1,1,0,1,0,1.414,1.414A12.516,12.516,0,0,0,20.339.291Z"/><path d="M5.075,1.705A1,1,0,0,0,3.661.291a12.516,12.516,0,0,0,0,17.678,1,1,0,1,0,1.414-1.414A10.515,10.515,0,0,1,5.075,1.705Z"/><path d="M17.053,3.827a1,1,0,0,0-1.414,1.414,5.5,5.5,0,0,1,0,7.778,1,1,0,0,0,1.414,1.414,7.5,7.5,0,0,0,0-10.606Z"/><path d="M8.361,14.433a1,1,0,0,0,0-1.414,5.5,5.5,0,0,1,0-7.778A1,1,0,0,0,6.947,3.827a7.5,7.5,0,0,0,0,10.606A1,1,0,0,0,8.361,14.433Z"/></svg>