<svg xmlns="http://www.w3.org/2000/svg" viewBox="0 0 24 24"><defs><style>.a{fill:none;stroke:currentColor;stroke-linecap:round;stroke-linejoin:round;}</style></defs><title>radio-stereo-1</title><polyline class="a" points="5.094 10 9 18 6.5 22"/><polyline class="a" points="18.906 10 15 18 17.5 22"/><line class="a" x1="9" y1="18" x2="15" y2="18"/><path class="a" d="M23.5,16a6,6,0,0,1-6,6H6.5a6,6,0,0,1-6-6V14a4,4,0,0,1,4-4h15a4,4,0,0,1,4,4Z"/><path class="a" d="M18.5,15.741a.25.25,0,1,0,.25.25.25.25,0,0,0-.25-.25"/><path class="a" d="M8.4,16.768a3,3,0,1,1-1.728-3.54"/><path class="a" d="M15.6,16.768a3,3,0,1,0,1.728-3.54"/><path class="a" d="M5.5,15.741a.25.25,0,1,1-.25.25.25.25,0,0,1,.25-.25"/><path class="a" d="M10.25,15.5a.25.25,0,1,1-.25.25.25.25,0,0,1,.25-.25"/><path class="a" d="M13.75,15.5a.25.25,0,1,0,.25.25.25.25,0,0,0-.25-.25"/><path class="a" d="M17,10,15.743,6.649A1,1,0,0,0,14.807,6H9.193a1,1,0,0,0-.936.649L7,10"/><rect class="a" x="9.5" y="11.991" width="5" height="2" rx="0.5" ry="0.5"/><path class="a" d="M2.5,6a2,2,0,0,1,2-2"/><path class="a" d="M.5,6a4,4,0,0,1,4-4"/><path class="a" d="M21.5,6a2,2,0,0,0-2-2"/><path class="a" d="M23.5,6a4,4,0,0,0-4-4"/></svg>