<svg xmlns="http://www.w3.org/2000/svg" viewBox="0 0 24 24"><defs><style>.a{fill:none;stroke:currentColor;stroke-linecap:round;stroke-linejoin:round;}</style></defs><title>radio-antenna-2</title><path class="a" d="M.5,13.5h23a0,0,0,0,1,0,0v9a1,1,0,0,1-1,1H1.5a1,1,0,0,1-1-1v-9A0,0,0,0,1,.5,13.5Z"/><circle class="a" cx="5.5" cy="18.5" r="3"/><circle class="a" cx="18.5" cy="18.5" r="3"/><path class="a" d="M13.6,19.5a4.967,4.967,0,0,1,.321-3H10.078a4.967,4.967,0,0,1,.321,3Z"/><path class="a" d="M23.5,10.5a1,1,0,0,0-1-1H1.5a1,1,0,0,0-1,1v3h23Z"/><line class="a" x1="2.5" y1="11.5" x2="15.5" y2="11.5"/><line class="a" x1="17.5" y1="11.5" x2="17.5" y2="13.5"/><line class="a" x1="21.5" y1="11.5" x2="19.5" y2="11.5"/><line class="a" x1="3.5" y1="9.5" x2="3.5" y2="8.5"/><line class="a" x1="5.5" y1="9.5" x2="5.5" y2="8.5"/><line class="a" x1="7.5" y1="9.5" x2="7.5" y2="8.5"/><path class="a" d="M21.5,8.5a1,1,0,0,0-2,0v1h2Z"/><line class="a" x1="19.571" y1="8.128" x2="0.5" y2="0.5"/></svg>