<?xml version="1.0" encoding="utf-8"?>
<!-- Generator: Adobe Illustrator 22.1.0, SVG Export Plug-In . SVG Version: 6.00 Build 0)  -->
<svg version="1.1" id="Layer_1" xmlns="http://www.w3.org/2000/svg" xmlns:xlink="http://www.w3.org/1999/xlink" x="0px" y="0px"
	 viewBox="0 0 24 24" style="enable-background:new 0 0 24 24;" xml:space="preserve">
<g>
	<title>music-genre-baby</title>
	<path d="M13.5,24c-1.379,0-2.5-1.122-2.5-2.5s1.121-2.5,2.5-2.5c0.549,0,1.072,0.178,1.5,0.501V13.83
		c0-0.722,0.515-1.342,1.224-1.475l6-1.125c0.092-0.017,0.185-0.026,0.276-0.026c0.827,0,1.5,0.673,1.5,1.5V19.5
		c0,1.378-1.122,2.5-2.5,2.5S19,20.879,19,19.5s1.122-2.5,2.5-2.5c0.549,0,1.072,0.178,1.5,0.501v-4.796c0-0.276-0.224-0.5-0.5-0.5
		c-0.031,0-0.062,0.003-0.092,0.009l-6,1.125C16.172,13.383,16,13.59,16,13.83v7.67C16,22.879,14.878,24,13.5,24z M13.5,20
		c-0.827,0-1.5,0.673-1.5,1.5s0.673,1.5,1.5,1.5s1.5-0.673,1.5-1.5S14.327,20,13.5,20z M21.5,18c-0.827,0-1.5,0.673-1.5,1.5
		s0.673,1.5,1.5,1.5s1.5-0.673,1.5-1.5S22.327,18,21.5,18z"/>
	<path d="M15.25,10c-0.965,0-1.75-0.785-1.75-1.75s0.785-1.75,1.75-1.75c0.261,0,0.517,0.059,0.75,0.17V3.721
		c0-0.647,0.412-1.219,1.026-1.423l3.024-0.84c0.137-0.046,0.293-0.071,0.45-0.071c0.646,0,1.218,0.413,1.423,1.028
		C21.974,2.567,22,2.726,22,2.887V6.75c0,0.965-0.785,1.75-1.75,1.75S18.5,7.715,18.5,6.75S19.285,5,20.25,5
		c0.261,0,0.517,0.059,0.75,0.17V2.887c0-0.053-0.009-0.106-0.026-0.157c-0.068-0.204-0.259-0.342-0.475-0.342
		c-0.053,0-0.106,0.009-0.157,0.026l-3.024,0.84C17.136,3.315,17,3.509,17,3.721V8.25C17,9.215,16.215,10,15.25,10z M15.25,7.5
		c-0.414,0-0.75,0.336-0.75,0.75S14.836,9,15.25,9S16,8.664,16,8.25S15.664,7.5,15.25,7.5z M20.25,6c-0.414,0-0.75,0.336-0.75,0.75
		s0.336,0.75,0.75,0.75S21,7.164,21,6.75S20.664,6,20.25,6z"/>
	<circle cx="6.5" cy="10" r="0.75"/>
	<circle cx="12" cy="10" r="0.75"/>
	<path d="M9.262,15.302c-1.172,0-2.256-0.633-2.829-1.651c-0.135-0.24-0.05-0.546,0.191-0.681c0.074-0.042,0.159-0.064,0.245-0.064
		c0.18,0,0.348,0.098,0.436,0.255c0.396,0.704,1.146,1.141,1.957,1.141c0.382,0,0.76-0.099,1.094-0.287
		c0.358-0.201,0.653-0.497,0.854-0.854c0.088-0.157,0.255-0.255,0.436-0.255c0.086,0,0.171,0.022,0.246,0.065
		c0.115,0.065,0.199,0.172,0.235,0.3c0.036,0.129,0.02,0.263-0.046,0.38c-0.291,0.517-0.718,0.944-1.235,1.235
		C10.362,15.158,9.815,15.302,9.262,15.302z"/>
	<path d="M9.237,19.004c-1.557,0-3.075-0.455-4.391-1.316c-1.679-1.098-2.874-2.759-3.38-4.691c-0.838-0.113-1.47-0.819-1.471-1.683
		c0-0.791,0.545-1.47,1.297-1.653c0.613-3.871,3.874-6.661,7.821-6.661c0.051,0,0.102,0,0.153,0.001
		c0.916,0.003,1.814,0.151,2.674,0.442c0-0.008,0-0.016,0-0.024c0.004-0.998-0.481-1.935-1.297-2.509
		c-0.225-0.159-0.28-0.471-0.122-0.697C10.616,0.08,10.769,0,10.931,0c0.103,0,0.202,0.031,0.287,0.09
		c1.084,0.762,1.728,2.006,1.723,3.33c0,0.136-0.009,0.273-0.027,0.417c0.298,0.145,0.586,0.307,0.858,0.483
		c0.232,0.15,0.298,0.46,0.148,0.691c-0.093,0.143-0.25,0.229-0.42,0.229c-0.096,0-0.19-0.028-0.271-0.08
		c-0.183-0.118-0.374-0.229-0.578-0.335c-0.181,0.426-0.439,0.808-0.77,1.137C11.202,6.64,10.3,7.012,9.341,7.012L9.246,7.011
		C9.225,7.012,9.192,7.012,9.16,7.012c-1.432,0-2.753-0.896-3.307-2.21c-2.023,1.07-3.369,3.056-3.62,5.365
		c-0.028,0.254-0.241,0.446-0.497,0.446H1.694c-0.187,0-0.362,0.073-0.495,0.205c-0.132,0.132-0.205,0.308-0.205,0.495
		c0,0.385,0.314,0.699,0.699,0.699c0.02-0.001,0.051-0.004,0.081-0.009c0.03-0.005,0.058-0.007,0.085-0.007
		c0.236,0,0.442,0.167,0.49,0.397c0.386,1.844,1.466,3.427,3.043,4.458c1.153,0.754,2.482,1.153,3.845,1.153
		c0.486,0,0.977-0.051,1.459-0.152c0.726-0.152,1.42-0.416,2.064-0.785C12.837,17.023,12.923,17,13.01,17
		c0.179,0,0.345,0.096,0.434,0.251c0.067,0.116,0.084,0.25,0.049,0.379c-0.035,0.129-0.118,0.237-0.234,0.303
		c-0.735,0.422-1.528,0.723-2.357,0.896C10.352,18.945,9.792,19.004,9.237,19.004z M9.337,6.012c0.696,0,1.348-0.269,1.838-0.757
		c0.242-0.241,0.43-0.519,0.56-0.828C10.948,4.143,10.129,4,9.296,4c0,0-0.141-0.001-0.19-0.001c-0.803,0-1.588,0.135-2.336,0.402
		c0.398,0.96,1.359,1.612,2.414,1.612c0,0,0.064-0.001,0.066-0.001C9.251,6.011,9.337,6.012,9.337,6.012z"/>
</g>
</svg>
