<?xml version="1.0" encoding="utf-8"?>
<!-- Generator: Adobe Illustrator 22.1.0, SVG Export Plug-In . SVG Version: 6.00 Build 0)  -->
<svg version="1.1" id="Layer_1" xmlns="http://www.w3.org/2000/svg" xmlns:xlink="http://www.w3.org/1999/xlink" x="0px" y="0px"
	 viewBox="0 0 24 24" style="enable-background:new 0 0 24 24;" xml:space="preserve">
<g>
	<title>music-genre-star</title>
	<path d="M13.5,24c-1.378,0-2.5-1.122-2.5-2.5s1.121-2.5,2.5-2.5c0.549,0,1.072,0.178,1.5,0.501V13.83
		c0-0.721,0.515-1.342,1.224-1.474l6-1.125c0.09-0.017,0.182-0.025,0.274-0.025c0.396,0,0.783,0.16,1.063,0.439
		C23.844,11.928,24,12.304,24,12.705V19.5c0,1.378-1.122,2.5-2.5,2.5S19,20.878,19,19.5s1.122-2.5,2.5-2.5
		c0.549,0,1.072,0.178,1.5,0.501v-4.797c0-0.134-0.052-0.259-0.146-0.354c-0.093-0.093-0.222-0.146-0.355-0.146
		c-0.03,0-0.06,0.003-0.09,0.008l-6,1.125C16.171,13.383,16,13.589,16,13.83v7.67C16,22.878,14.878,24,13.5,24z M13.5,20
		c-0.827,0-1.5,0.673-1.5,1.5s0.673,1.5,1.5,1.5s1.5-0.673,1.5-1.5S14.327,20,13.5,20z M21.5,18c-0.827,0-1.5,0.673-1.5,1.5
		s0.673,1.5,1.5,1.5s1.5-0.673,1.5-1.5S22.327,18,21.5,18z"/>
	<path d="M4.033,18.999c-0.297,0-0.578-0.143-0.753-0.382c-0.176-0.241-0.225-0.555-0.131-0.838l2.038-5.977L0.324,7.633
		C0.136,7.471,0.022,7.245,0.003,6.998C-0.015,6.75,0.064,6.51,0.226,6.322C0.402,6.118,0.657,6.001,0.927,6h5.783l2.048-5.399
		C8.847,0.368,9.02,0.185,9.246,0.083c0.12-0.054,0.248-0.082,0.379-0.082c0.113,0,0.224,0.021,0.331,0.061
		c0.248,0.094,0.443,0.29,0.537,0.537L12.545,6h5.782c0.513,0.001,0.929,0.419,0.928,0.931c-0.001,0.27-0.118,0.526-0.322,0.702
		l-4.865,4.17l0.353,1.036c0.043,0.126,0.034,0.262-0.024,0.382s-0.161,0.21-0.288,0.253c-0.051,0.018-0.106,0.027-0.162,0.027
		c-0.213,0-0.403-0.136-0.473-0.339l-0.462-1.357c-0.066-0.195-0.008-0.407,0.148-0.541L18.134,7H12.2
		c-0.206,0-0.394-0.13-0.467-0.323L9.626,1.133L7.523,6.677C7.45,6.87,7.262,7,7.056,7H1.122l4.973,4.263
		c0.156,0.134,0.214,0.346,0.148,0.541l-2.074,6.081l5.169-3.651c0.085-0.06,0.185-0.092,0.289-0.092
		c0.104,0,0.204,0.032,0.288,0.092l3.372,2.379c0.109,0.077,0.182,0.192,0.205,0.323s-0.007,0.264-0.084,0.373
		c-0.094,0.133-0.247,0.212-0.409,0.212l0,0c-0.104,0-0.203-0.031-0.288-0.091l-3.085-2.176l-5.055,3.571
		C4.417,18.938,4.23,18.999,4.033,18.999z"/>
</g>
</svg>
