<?xml version="1.0" encoding="utf-8"?>
<!-- Generator: Adobe Illustrator 22.1.0, SVG Export Plug-In . SVG Version: 6.00 Build 0)  -->
<svg version="1.1" id="Layer_1" xmlns="http://www.w3.org/2000/svg" xmlns:xlink="http://www.w3.org/1999/xlink" x="0px" y="0px"
	 viewBox="0 0 24 24" style="enable-background:new 0 0 24 24;" xml:space="preserve">
<g>
	<title>music-genre-idea</title>
	<path d="M14.5,12.674c-1.103,0-2-0.897-2-2s0.897-2,2-2c0.357,0,0.699,0.093,1,0.268V4.929c0-0.666,0.447-1.259,1.087-1.443
		l5-1.429C21.722,2.019,21.861,1.999,22,1.999c0.666,0,1.26,0.447,1.443,1.088C23.48,3.221,23.5,3.36,23.5,3.5v6.174
		c0,1.103-0.897,2-2,2s-2-0.897-2-2s0.897-2,2-2c0.357,0,0.699,0.093,1,0.268V3.5c0-0.047-0.007-0.093-0.019-0.139
		C22.42,3.149,22.222,3,22,3c-0.046,0-0.092,0.006-0.137,0.019l-5,1.429C16.649,4.509,16.5,4.707,16.5,4.929v5.745
		C16.5,11.777,15.603,12.674,14.5,12.674z M14.5,9.674c-0.552,0-1,0.449-1,1s0.448,1,1,1s1-0.449,1-1S15.052,9.674,14.5,9.674z
		 M21.5,8.674c-0.552,0-1,0.449-1,1s0.448,1,1,1s1-0.449,1-1S22.052,8.674,21.5,8.674z"/>
	<path d="M11.5,23.5c-0.276,0-0.5-0.224-0.5-0.5v-0.551C9.845,22.215,9,21.199,9,20v-1.5H8.989c-0.062,0-0.123-0.011-0.181-0.034
		c-3.61-1.399-5.574-5.403-4.469-9.114c0.938-3.151,3.889-5.351,7.178-5.351c0.719,0,1.436,0.105,2.131,0.312
		c0.128,0.038,0.234,0.124,0.297,0.241c0.064,0.118,0.078,0.253,0.039,0.381c-0.062,0.21-0.259,0.357-0.479,0.357
		c-0.048,0-0.096-0.007-0.143-0.021c-0.608-0.181-1.233-0.273-1.859-0.273c-1.065,0-2.129,0.271-3.078,0.785
		C6.902,6.608,5.791,7.977,5.297,9.637c-0.946,3.178,0.716,6.622,3.787,7.863h4.831c1.985-0.799,3.447-2.519,3.915-4.609
		c0.051-0.23,0.252-0.391,0.488-0.391c0.037,0,0.073,0.004,0.109,0.012c0.131,0.029,0.242,0.107,0.313,0.22
		c0.072,0.113,0.095,0.247,0.066,0.377c-0.548,2.449-2.273,4.452-4.615,5.357c-0.057,0.022-0.118,0.034-0.18,0.034H14V20
		c0,1.199-0.845,2.215-2,2.449V23C12,23.276,11.776,23.5,11.5,23.5z M10.088,20.5c0.209,0.586,0.772,1,1.412,1
		c0.64,0,1.203-0.414,1.412-1H10.088z M13,19.5v-1h-3v1H13z"/>
	<path d="M11.5,3C11.224,3,11,2.776,11,2.5V1c0-0.276,0.224-0.5,0.5-0.5S12,0.724,12,1v1.5C12,2.776,11.776,3,11.5,3z"/>
	<path d="M5.136,5.636c-0.134,0-0.259-0.052-0.354-0.146L3.721,4.428c-0.094-0.094-0.146-0.22-0.146-0.354s0.052-0.259,0.146-0.354
		s0.22-0.146,0.354-0.146s0.259,0.052,0.354,0.146L5.49,4.782c0.094,0.094,0.146,0.22,0.146,0.354S5.584,5.395,5.49,5.49
		S5.27,5.636,5.136,5.636z"/>
	<path d="M1,11.5c-0.276,0-0.5-0.224-0.5-0.5s0.224-0.5,0.5-0.5h1.5C2.776,10.5,3,10.724,3,11s-0.224,0.5-0.5,0.5H1z"/>
</g>
</svg>
