<svg id="Light" xmlns="http://www.w3.org/2000/svg" viewBox="0 0 24 24"><defs><style>.cls-1{fill:none;stroke:currentColor;stroke-linecap:round;stroke-linejoin:round;}</style></defs><title>multiple-man-woman-4</title><path class="cls-1" d="M14.466,20.759l.228,2.741h4l.5-6h2.5V14a5,5,0,0,0-8-4"/><path class="cls-1" d="M7.694,9a3.8,3.8,0,0,1,3.695,2.918L13.194,18.5H10.237l-1.054,5h-3l-1.054-5H2.194L4,11.918A3.8,3.8,0,0,1,7.694,9Z"/><path class="cls-1" d="M13.678,2.223A5.809,5.809,0,0,0,17.861,4a5.822,5.822,0,0,0,2.3-.473"/><circle class="cls-1" cx="16.694" cy="4" r="3.5"/><path class="cls-1" d="M4.241,4.577a4.637,4.637,0,0,0,3.453-1.6,4.637,4.637,0,0,0,3.453,1.6"/><circle class="cls-1" cx="7.694" cy="4" r="3.5"/></svg>