<?xml version="1.0" encoding="utf-8"?>
<!-- Generator: Adobe Illustrator 22.1.0, SVG Export Plug-In . SVG Version: 6.00 Build 0)  -->
<svg version="1.1" id="Layer_1" xmlns="http://www.w3.org/2000/svg" xmlns:xlink="http://www.w3.org/1999/xlink" x="0px" y="0px"
	 viewBox="0 0 24 24" style="enable-background:new 0 0 24 24;" xml:space="preserve">
<g>
	<title>drawer-envelope</title>
	<path d="M3.5,24C2.121,24,1,22.878,1,21.5V18H0.5C0.224,18,0,17.776,0,17.5S0.224,17,0.5,17H3V0.5c0-0.065,0.013-0.129,0.038-0.191
		c0.051-0.122,0.149-0.221,0.27-0.271C3.37,0.013,3.434,0,3.5,0h14c0.066,0,0.13,0.013,0.191,0.038
		c0.123,0.051,0.219,0.147,0.27,0.27C17.987,0.37,18,0.434,18,0.5V6c0,0.276-0.224,0.5-0.5,0.5S17,6.276,17,6V1.707l-1.638,1.638
		C14.87,3.933,13.689,3.994,13.457,4L11,4v5c0,0.276-0.224,0.5-0.5,0.5S10,9.276,10,9V4H7.556C7.317,3.994,6.13,3.933,5.623,3.329
		L4,1.707V17h6.294l-1.6-3.841c-0.332-0.795,0.044-1.713,0.84-2.046l9.838-4.101c0.192-0.08,0.393-0.12,0.6-0.12
		c0.635,0,1.204,0.378,1.448,0.963l2.459,5.9c0.331,0.797-0.047,1.715-0.843,2.047L20.166,17H23.5c0.276,0,0.5,0.224,0.5,0.5
		S23.776,18,23.5,18H23v3.5c0,1.378-1.122,2.5-2.5,2.5H3.5z M2,21.5C2,22.327,2.673,23,3.5,23h17c0.827,0,1.5-0.673,1.5-1.5V18H2
		V21.5z M17.569,17l5.083-2.12c0.288-0.12,0.424-0.452,0.304-0.74l-1.953-4.687l-3.449,3.741c-0.471,0.617-1.247,0.995-2.062,0.995
		c-0.111,0-0.222-0.007-0.33-0.021l-5.04-0.181L11.377,17H17.569z M15.243,13.173c0.094,0.01,0.165,0.015,0.236,0.015
		c0.522,0,0.999-0.232,1.31-0.637l3.79-4.113L20.498,8.24c-0.088-0.211-0.294-0.348-0.525-0.348c-0.074,0-0.147,0.015-0.216,0.043
		l-9.835,4.1c-0.287,0.12-0.424,0.452-0.304,0.739l0.082,0.197L15.243,13.173z M6.354,2.646c0.011,0.011,0.024,0.025,0.036,0.04
		C6.534,2.865,7.174,2.99,7.569,3l5.875,0c0.437-0.012,1.034-0.15,1.167-0.315c0.012-0.015,0.023-0.027,0.035-0.039L16.293,1H4.707
		L6.354,2.646z"/>
</g>
</svg>
