<?xml version="1.0" encoding="utf-8"?>
<!-- Generator: Adobe Illustrator 22.1.0, SVG Export Plug-In . SVG Version: 6.00 Build 0)  -->
<svg version="1.1" id="Layer_1" xmlns="http://www.w3.org/2000/svg" xmlns:xlink="http://www.w3.org/1999/xlink" x="0px" y="0px"
	 viewBox="0 0 24 24" style="enable-background:new 0 0 24 24;" xml:space="preserve">
<g>
	<title>drawer-upload</title>
	<path d="M1.5,24.001c-0.827,0-1.5-0.673-1.5-1.5v-6c0-0.015,0.002-0.034,0.005-0.051c0.003-0.03,0.01-0.057,0.016-0.075
		c0.007-0.024,0.014-0.05,0.026-0.078c0.006-0.017,0.013-0.034,0.021-0.047l3.211-5.501c0.265-0.459,0.761-0.746,1.293-0.748H7.5
		c0.276,0,0.5,0.224,0.5,0.5s-0.224,0.5-0.5,0.5H4.574c-0.176,0.001-0.341,0.096-0.43,0.25l-2.773,4.75H7.5
		c0.276,0,0.5,0.224,0.5,0.5v1c0.003,0.824,0.676,1.498,1.501,1.5H14.5c0.824-0.002,1.498-0.676,1.5-1.501v-0.999
		c0-0.276,0.224-0.5,0.5-0.5h6.129l-2.772-4.748c-0.09-0.155-0.255-0.252-0.433-0.252H16.5c-0.276,0-0.5-0.224-0.5-0.5
		s0.224-0.5,0.5-0.5h2.926c0.533,0.002,1.03,0.289,1.296,0.75l3.209,5.498c0.008,0.014,0.016,0.031,0.022,0.049
		c0.012,0.029,0.019,0.053,0.024,0.07c0.008,0.031,0.013,0.055,0.017,0.078C23.998,16.464,24,16.484,24,16.501v6
		c0,0.827-0.673,1.5-1.5,1.5H1.5z M1,22.501c0,0.276,0.224,0.5,0.5,0.5h21c0.276,0,0.5-0.224,0.5-0.5v-5.5h-6v0.5
		c-0.004,1.375-1.125,2.496-2.499,2.5H9.5c-1.375-0.004-2.496-1.125-2.5-2.499v-0.501H1V22.501z"/>
	<path d="M12,12.001c-0.276,0-0.5-0.224-0.5-0.5V1.708L8.354,4.854C8.259,4.949,8.134,5.001,8,5.001S7.741,4.949,7.646,4.854
		S7.5,4.634,7.5,4.501s0.052-0.259,0.146-0.354l4-4c0.046-0.046,0.101-0.083,0.162-0.108C11.87,0.014,11.934,0.001,12,0.001
		s0.13,0.013,0.191,0.038c0.062,0.026,0.116,0.062,0.163,0.108l4,4c0.094,0.094,0.146,0.22,0.146,0.354s-0.052,0.259-0.146,0.354
		S16.134,5.001,16,5.001s-0.259-0.052-0.354-0.146L12.5,1.708v9.793C12.5,11.776,12.276,12.001,12,12.001z"/>
</g>
</svg>
