<svg xmlns="http://www.w3.org/2000/svg" viewBox="0 0 24 24"><defs><style>.a{fill:none;stroke:currentColor;stroke-linecap:round;stroke-linejoin:round;stroke-width:1.5px;}</style></defs><title>monitor-star</title><line class="a" x1="8.25" y1="20.25" x2="9" y2="15.75"/><line class="a" x1="6" y1="20.25" x2="9.75" y2="20.25"/><line class="a" x1="0.75" y1="12.75" x2="12.75" y2="12.75"/><path class="a" d="M9,15.75H3.75a3,3,0,0,1-3-3v-9a3,3,0,0,1,3-3h16.5a3,3,0,0,1,3,3v9"/><path class="a" d="M17.952,11.68l1.538,4.073h3A.735.735,0,0,1,23,17.036l-2.6,1.813,1.44,3.313a.785.785,0,0,1-1.117.982l-3.48-1.961-3.481,1.961a.785.785,0,0,1-1.117-.982l1.44-3.313-2.6-1.813A.734.734,0,0,1,12,15.753H15L16.54,11.68A.8.8,0,0,1,17.952,11.68Z"/></svg>