<svg xmlns="http://www.w3.org/2000/svg" viewBox="0 0 24 24"><defs><style>.a{fill:none;stroke:currentColor;stroke-linecap:round;stroke-linejoin:round;stroke-width:1.5px;}</style></defs><title>monitor-cash</title><line class="a" x1="8.25" y1="20.25" x2="9" y2="15.75"/><line class="a" x1="6" y1="20.25" x2="8.25" y2="20.25"/><line class="a" x1="0.75" y1="12.75" x2="9.883" y2="12.75"/><path class="a" d="M9,15.75H3.75a3,3,0,0,1-3-3v-9a3,3,0,0,1,3-3h16.5a3,3,0,0,1,3,3v7.5"/><path class="a" d="M18.75,14.25H16.717a1.342,1.342,0,0,0-.5,2.587l2.064.826a1.342,1.342,0,0,1-.5,2.587H15.75"/><line class="a" x1="17.25" y1="14.25" x2="17.25" y2="13.5"/><line class="a" x1="17.25" y1="21" x2="17.25" y2="20.25"/><circle class="a" cx="17.25" cy="17.25" r="6"/></svg>