<svg xmlns="http://www.w3.org/2000/svg" viewBox="0 0 24 24"><title>archive-locker</title><path d="M21.5,8a.5.5,0,0,0,.5-.5V2a2,2,0,0,0-2-2H4A2,2,0,0,0,2,2V7.5a.5.5,0,0,0,.5.5ZM14.255,4.816l-.167.5A1,1,0,0,1,13.14,6H10.86a1,1,0,0,1-.948-.684l-.167-.5A1,1,0,0,1,10.694,3.5h2.612a1,1,0,0,1,.949,1.316Z"/><path d="M21.5,15.5A.5.5,0,0,0,22,15V9.5a.5.5,0,0,0-.5-.5H2.5a.5.5,0,0,0-.5.5V15a.5.5,0,0,0,.5.5ZM9.882,11.416A1,1,0,0,1,10.694,11h2.612a1,1,0,0,1,.949,1.316l-.167.5a1,1,0,0,1-.948.684H10.86a1,1,0,0,1-.948-.684l-.167-.5A1,1,0,0,1,9.882,11.416Z"/><path d="M2.5,16.5A.5.5,0,0,0,2,17v5a2,2,0,0,0,2,2H20a2,2,0,0,0,2-2V17a.5.5,0,0,0-.5-.5Zm7.382,2.416a1,1,0,0,1,.812-.416h2.612a1,1,0,0,1,.949,1.316l-.167.5A1,1,0,0,1,13.14,21H10.86a1,1,0,0,1-.948-.684l-.167-.5A1,1,0,0,1,9.882,18.916Z"/></svg>