<svg xmlns="http://www.w3.org/2000/svg" viewBox="0 0 24 24"><defs><style>.a{fill:none;stroke:currentColor;stroke-linecap:round;stroke-linejoin:round;stroke-width:1.5px;}</style></defs><title>desktop-monitor-lock-1</title><rect class="a" x="14.25" y="5.25" width="9" height="7.5" rx="1.5" ry="1.5"/><path class="a" d="M18.75.75h0a3,3,0,0,0-3,3v1.5h6V3.75A3,3,0,0,0,18.75.75Z"/><path class="a" d="M18.75,8.654a.375.375,0,1,0,.375.375.375.375,0,0,0-.375-.375h0"/><polygon class="a" points="15.75 23.25 8.25 23.25 9 20.25 15 20.25 15.75 23.25"/><line class="a" x1="6" y1="23.25" x2="18" y2="23.25"/><line class="a" x1="0.75" y1="17.25" x2="23.25" y2="17.25"/><path class="a" d="M23.25,15.75v1.5a3,3,0,0,1-3,3H3.75a3,3,0,0,1-3-3V6.75a3,3,0,0,1,3-3h7.5"/></svg>