<?xml version="1.0" encoding="utf-8"?>
<!-- Generator: Adobe Illustrator 22.1.0, SVG Export Plug-In . SVG Version: 6.00 Build 0)  -->
<svg version="1.1" id="Layer_1" xmlns="http://www.w3.org/2000/svg" xmlns:xlink="http://www.w3.org/1999/xlink" x="0px" y="0px"
	 viewBox="0 0 24 24" style="enable-background:new 0 0 24 24;" xml:space="preserve">
<g>
	<title>download-square-1</title>
	<path d="M12,19.585c-0.401,0-0.778-0.156-1.06-0.439l-4.586-4.586c-0.477-0.476-0.378-0.889-0.314-1.044
		C6.104,13.361,6.326,13,7,13h2V9.5C9,9.224,9.224,9,9.5,9S10,9.224,10,9.5v4c0,0.276-0.224,0.5-0.5,0.5H7.207l4.439,4.439
		c0.094,0.094,0.22,0.146,0.353,0.146c0.134,0,0.259-0.052,0.354-0.146L16.793,14H14.5c-0.276,0-0.5-0.224-0.5-0.5v-4
		C14,9.224,14.224,9,14.5,9S15,9.224,15,9.5V13h2c0.674,0,0.896,0.361,0.96,0.517c0.064,0.155,0.163,0.567-0.314,1.044l-4.586,4.586
		C12.778,19.429,12.401,19.585,12,19.585z"/>
	<path d="M14.5,8C14.224,8,14,7.776,14,7.5v-3C14,4.224,14.224,4,14.5,4S15,4.224,15,4.5v3C15,7.776,14.776,8,14.5,8z"/>
	<path d="M9.5,8C9.224,8,9,7.776,9,7.5v-3C9,4.224,9.224,4,9.5,4S10,4.224,10,4.5v3C10,7.776,9.776,8,9.5,8z"/>
	<path d="M1.5,24C0.673,24,0,23.327,0,22.5v-21C0,0.673,0.673,0,1.5,0h21C23.327,0,24,0.673,24,1.5v21c0,0.827-0.673,1.5-1.5,1.5
		H1.5z M1.5,1C1.224,1,1,1.224,1,1.5v21C1,22.776,1.224,23,1.5,23h21c0.276,0,0.5-0.224,0.5-0.5v-21C23,1.224,22.776,1,22.5,1H1.5z"
		/>
</g>
</svg>
