<?xml version="1.0" encoding="utf-8"?>
<!-- Generator: Adobe Illustrator 22.1.0, SVG Export Plug-In . SVG Version: 6.00 Build 0)  -->
<svg version="1.1" id="Layer_1" xmlns="http://www.w3.org/2000/svg" xmlns:xlink="http://www.w3.org/1999/xlink" x="0px" y="0px"
	 viewBox="0 0 24 24" style="enable-background:new 0 0 24 24;" xml:space="preserve">
<g>
	<title>download-square-2</title>
	<path d="M1,23.5c-0.276,0-0.5-0.224-0.5-0.5v-0.956c0-0.276,0.224-0.5,0.5-0.5s0.5,0.224,0.5,0.5V22.5h0.457
		c0.276,0,0.5,0.224,0.5,0.5s-0.224,0.5-0.5,0.5H1z"/>
	<path d="M1,2.457c-0.276,0-0.5-0.224-0.5-0.5V1c0-0.276,0.224-0.5,0.5-0.5h0.957c0.276,0,0.5,0.224,0.5,0.5s-0.224,0.5-0.5,0.5H1.5
		v0.457C1.5,2.233,1.276,2.457,1,2.457z"/>
	<path d="M12,19c-0.066,0-0.13-0.013-0.192-0.039c-0.061-0.025-0.116-0.062-0.163-0.109l-5.499-5.499C6.052,13.259,6,13.134,6,13
		s0.052-0.259,0.146-0.354S6.366,12.5,6.5,12.5s0.259,0.052,0.354,0.146l4.646,4.646V5.5C11.5,5.224,11.724,5,12,5
		c0.276,0,0.5,0.224,0.5,0.5v11.793l4.646-4.646c0.094-0.094,0.22-0.146,0.354-0.146s0.259,0.052,0.354,0.146S18,12.866,18,13
		s-0.052,0.259-0.146,0.354l-5.5,5.5c-0.046,0.046-0.101,0.083-0.163,0.109C12.13,18.987,12.066,19,12,19z"/>
	<path d="M22.043,23.5c-0.276,0-0.5-0.224-0.5-0.5s0.224-0.5,0.5-0.5H22.5v-0.456c0-0.276,0.224-0.5,0.5-0.5s0.5,0.224,0.5,0.5V23
		c0,0.276-0.224,0.5-0.5,0.5H22.043z"/>
	<path d="M23,2.457c-0.276,0-0.5-0.224-0.5-0.5V1.5h-0.457c-0.276,0-0.5-0.224-0.5-0.5s0.224-0.5,0.5-0.5H23
		c0.276,0,0.5,0.224,0.5,0.5v0.957C23.5,2.233,23.276,2.457,23,2.457z"/>
	<path d="M3.869,23.5c-0.276,0-0.5-0.224-0.5-0.5s0.224-0.5,0.5-0.5h0.957c0.276,0,0.5,0.224,0.5,0.5s-0.224,0.5-0.5,0.5H3.869z"/>
	<path d="M11.521,23.5c-0.276,0-0.5-0.224-0.5-0.5s0.224-0.5,0.5-0.5h0.958c0.276,0,0.5,0.224,0.5,0.5s-0.224,0.5-0.5,0.5H11.521z"
		/>
	<path d="M7.695,23.5c-0.276,0-0.5-0.224-0.5-0.5s0.224-0.5,0.5-0.5h0.957c0.276,0,0.5,0.224,0.5,0.5s-0.224,0.5-0.5,0.5H7.695z"/>
	<path d="M15.348,23.5c-0.276,0-0.5-0.224-0.5-0.5s0.224-0.5,0.5-0.5h0.957c0.276,0,0.5,0.224,0.5,0.5s-0.224,0.5-0.5,0.5H15.348z"
		/>
	<path d="M19.174,23.5c-0.276,0-0.5-0.224-0.5-0.5s0.224-0.5,0.5-0.5h0.957c0.276,0,0.5,0.224,0.5,0.5s-0.224,0.5-0.5,0.5H19.174z"
		/>
	<path d="M3.869,1.5c-0.276,0-0.5-0.224-0.5-0.5s0.224-0.5,0.5-0.5h0.957c0.276,0,0.5,0.224,0.5,0.5s-0.224,0.5-0.5,0.5H3.869z"/>
	<path d="M11.521,1.5c-0.276,0-0.5-0.224-0.5-0.5s0.224-0.5,0.5-0.5h0.958c0.276,0,0.5,0.224,0.5,0.5s-0.224,0.5-0.5,0.5H11.521z"/>
	<path d="M7.695,1.5c-0.276,0-0.5-0.224-0.5-0.5s0.224-0.5,0.5-0.5h0.957c0.276,0,0.5,0.224,0.5,0.5s-0.224,0.5-0.5,0.5H7.695z"/>
	<path d="M15.348,1.5c-0.276,0-0.5-0.224-0.5-0.5s0.224-0.5,0.5-0.5h0.957c0.276,0,0.5,0.224,0.5,0.5s-0.224,0.5-0.5,0.5H15.348z"/>
	<path d="M19.174,1.5c-0.276,0-0.5-0.224-0.5-0.5s0.224-0.5,0.5-0.5h0.957c0.276,0,0.5,0.224,0.5,0.5s-0.224,0.5-0.5,0.5H19.174z"/>
	<path d="M23,20.631c-0.276,0-0.5-0.224-0.5-0.5v-0.957c0-0.276,0.224-0.5,0.5-0.5s0.5,0.224,0.5,0.5v0.957
		C23.5,20.407,23.276,20.631,23,20.631z"/>
	<path d="M23,12.979c-0.276,0-0.5-0.224-0.5-0.5v-0.958c0-0.276,0.224-0.5,0.5-0.5s0.5,0.224,0.5,0.5v0.958
		C23.5,12.755,23.276,12.979,23,12.979z"/>
	<path d="M23,16.805c-0.276,0-0.5-0.224-0.5-0.5v-0.957c0-0.276,0.224-0.5,0.5-0.5s0.5,0.224,0.5,0.5v0.957
		C23.5,16.581,23.276,16.805,23,16.805z"/>
	<path d="M23,9.152c-0.276,0-0.5-0.224-0.5-0.5V7.695c0-0.276,0.224-0.5,0.5-0.5s0.5,0.224,0.5,0.5v0.957
		C23.5,8.928,23.276,9.152,23,9.152z"/>
	<path d="M23,5.326c-0.276,0-0.5-0.224-0.5-0.5V3.869c0-0.276,0.224-0.5,0.5-0.5s0.5,0.224,0.5,0.5v0.957
		C23.5,5.102,23.276,5.326,23,5.326z"/>
	<path d="M1,20.631c-0.276,0-0.5-0.224-0.5-0.5v-0.957c0-0.276,0.224-0.5,0.5-0.5s0.5,0.224,0.5,0.5v0.957
		C1.5,20.407,1.276,20.631,1,20.631z"/>
	<path d="M1,12.979c-0.276,0-0.5-0.224-0.5-0.5v-0.958c0-0.276,0.224-0.5,0.5-0.5s0.5,0.224,0.5,0.5v0.958
		C1.5,12.755,1.276,12.979,1,12.979z"/>
	<path d="M1,16.805c-0.276,0-0.5-0.224-0.5-0.5v-0.957c0-0.276,0.224-0.5,0.5-0.5s0.5,0.224,0.5,0.5v0.957
		C1.5,16.581,1.276,16.805,1,16.805z"/>
	<path d="M1,9.152c-0.276,0-0.5-0.224-0.5-0.5V7.695c0-0.276,0.224-0.5,0.5-0.5s0.5,0.224,0.5,0.5v0.957
		C1.5,8.928,1.276,9.152,1,9.152z"/>
	<path d="M1,5.326c-0.276,0-0.5-0.224-0.5-0.5V3.869c0-0.276,0.224-0.5,0.5-0.5s0.5,0.224,0.5,0.5v0.957
		C1.5,5.102,1.276,5.326,1,5.326z"/>
</g>
</svg>
