<?xml version="1.0" encoding="utf-8"?>
<!-- Generator: Adobe Illustrator 22.1.0, SVG Export Plug-In . SVG Version: 6.00 Build 0)  -->
<svg version="1.1" id="Layer_1" xmlns="http://www.w3.org/2000/svg" xmlns:xlink="http://www.w3.org/1999/xlink" x="0px" y="0px"
	 viewBox="0 0 24 24" style="enable-background:new 0 0 24 24;" xml:space="preserve">
<g>
	<title>external-upload</title>
	<path d="M12.001,13.001c-0.276,0-0.5-0.224-0.5-0.5V1.708L8.354,4.854C8.26,4.949,8.135,5.001,8.001,5.001S7.742,4.949,7.647,4.854
		s-0.146-0.22-0.146-0.354s0.052-0.259,0.146-0.354l4-4c0.046-0.046,0.101-0.083,0.162-0.108c0.061-0.025,0.126-0.038,0.192-0.038
		s0.13,0.013,0.191,0.038c0.062,0.026,0.116,0.062,0.163,0.108l4,4c0.094,0.094,0.146,0.22,0.146,0.354s-0.052,0.259-0.146,0.354
		s-0.22,0.146-0.354,0.146s-0.259-0.052-0.354-0.146l-3.146-3.146v10.793C12.501,12.776,12.277,13.001,12.001,13.001z"/>
	<path d="M4,24.001c-1.93,0-3.5-1.57-3.5-3.5c0-0.552,0.127-1.082,0.379-1.577l2.257-9.029c0.279-1.115,1.276-1.894,2.425-1.894
		c0.276,0,0.5,0.224,0.5,0.5s-0.224,0.5-0.5,0.5c-0.689,0-1.288,0.467-1.455,1.136l-1.831,7.322C2.799,17.16,3.393,17.001,4,17.001
		h16c0.607,0,1.201,0.16,1.724,0.458l-1.83-7.322c-0.167-0.669-0.766-1.136-1.455-1.136c-0.276,0-0.5-0.224-0.5-0.5
		s0.224-0.5,0.5-0.5c1.149,0,2.146,0.779,2.425,1.894l2.257,9.027c0.252,0.496,0.379,1.027,0.379,1.579c0,1.93-1.57,3.5-3.5,3.5H4z
		 M4,18.001c-1.379,0-2.5,1.122-2.5,2.5s1.121,2.5,2.5,2.5h16c1.378,0,2.5-1.122,2.5-2.5s-1.122-2.5-2.5-2.5H4z"/>
	<path d="M4,21.001c-0.276,0-0.5-0.224-0.5-0.5s0.224-0.5,0.5-0.5h6c0.276,0,0.5,0.224,0.5,0.5s-0.224,0.5-0.5,0.5H4z"/>
	<path d="M18,22.001c-0.827,0-1.5-0.673-1.5-1.5s0.673-1.5,1.5-1.5s1.5,0.673,1.5,1.5S18.827,22.001,18,22.001z M18,20.001
		c-0.276,0-0.5,0.224-0.5,0.5s0.224,0.5,0.5,0.5s0.5-0.224,0.5-0.5S18.276,20.001,18,20.001z"/>
</g>
</svg>
