<?xml version="1.0" encoding="utf-8"?>
<!-- Generator: Adobe Illustrator 22.1.0, SVG Export Plug-In . SVG Version: 6.00 Build 0)  -->
<svg version="1.1" id="Layer_1" xmlns="http://www.w3.org/2000/svg" xmlns:xlink="http://www.w3.org/1999/xlink" x="0px" y="0px"
	 viewBox="0 0 24 24" style="enable-background:new 0 0 24 24;" xml:space="preserve">
<g>
	<title>harddrive-download</title>
	<path d="M11.5,13c-0.066,0-0.13-0.013-0.192-0.039c-0.061-0.025-0.116-0.062-0.163-0.109L7.146,8.854C7.052,8.759,7,8.634,7,8.5
		s0.052-0.259,0.146-0.354S7.366,8,7.5,8s0.259,0.052,0.354,0.146L11,11.293V0.5C11,0.224,11.224,0,11.5,0S12,0.224,12,0.5v10.793
		l3.146-3.146C15.241,8.052,15.366,8,15.5,8s0.259,0.052,0.354,0.146S16,8.366,16,8.5s-0.052,0.259-0.146,0.354l-4,4
		c-0.046,0.046-0.101,0.083-0.163,0.109C11.63,12.987,11.566,13,11.5,13z"/>
	<path d="M18.5,21c-0.276,0-0.5-0.224-0.5-0.5s0.224-0.5,0.5-0.5H20c0.276,0,0.5,0.224,0.5,0.5S20.276,21,20,21H18.5z"/>
	<path d="M2.5,24c-1.375-0.004-2.496-1.125-2.5-2.499V18.5c0.02-0.411,0.103-0.802,0.247-1.174c0.002-0.006,0.014-0.035,0.017-0.041
		c0.116-0.297,0.279-0.59,0.476-0.853l4.376-5.252C5.211,11.066,5.351,11,5.5,11h1C6.776,11,7,11.224,7,11.5S6.776,12,6.5,12H5.734
		l-4.167,5h20.866l-4.168-5H17c-0.276,0-0.5-0.224-0.5-0.5S16.724,11,17,11h1.5c0.149,0,0.289,0.066,0.384,0.18l4.36,5.232
		c0.208,0.277,0.374,0.573,0.498,0.888c0.001,0,0.008,0.017,0.014,0.035c0.14,0.362,0.223,0.748,0.243,1.139l0,3.025
		c-0.004,1.375-1.125,2.496-2.499,2.5C21.501,24,2.5,24,2.5,24z M1.079,18c-0.044,0.175-0.071,0.351-0.08,0.525L1,21.5
		c0.003,0.824,0.676,1.498,1.501,1.5H21.5c0.824-0.002,1.498-0.676,1.5-1.501V18.5c-0.009-0.16-0.035-0.33-0.079-0.5H1.079z"/>
</g>
</svg>
