<?xml version="1.0" encoding="utf-8"?>
<!-- Generator: Adobe Illustrator 22.1.0, SVG Export Plug-In . SVG Version: 6.00 Build 0)  -->
<svg version="1.1" id="Layer_1" xmlns="http://www.w3.org/2000/svg" xmlns:xlink="http://www.w3.org/1999/xlink" x="0px" y="0px"
	 viewBox="0 0 24 24" style="enable-background:new 0 0 24 24;" xml:space="preserve">
<g>
	<title>harddrive-download-2</title>
	<path d="M12.002,13c-0.066,0-0.13-0.013-0.192-0.039c-0.061-0.025-0.116-0.062-0.163-0.109L6.148,7.354
		C6.054,7.259,6.002,7.134,6.002,7s0.052-0.259,0.146-0.354S6.368,6.5,6.502,6.5s0.259,0.052,0.354,0.146l4.646,4.646V0.5
		c0-0.276,0.224-0.5,0.5-0.5c0.276,0,0.5,0.224,0.5,0.5v10.793l4.646-4.646c0.094-0.094,0.22-0.146,0.354-0.146
		s0.259,0.052,0.354,0.146S18.002,6.866,18.002,7s-0.052,0.259-0.146,0.354l-5.5,5.5c-0.046,0.046-0.101,0.083-0.163,0.109
		C12.132,12.987,12.068,13,12.002,13z"/>
	<path d="M5,24c-2.481,0-4.5-2.019-4.5-4.5S2.519,15,5,15h14c2.481,0,4.5,2.019,4.5,4.5S21.481,24,19,24H5z M5,16
		c-1.93,0-3.5,1.57-3.5,3.5S3.07,23,5,23h14c1.93,0,3.5-1.57,3.5-3.5S20.93,16,19,16H5z"/>
	<path d="M4,20c-0.276,0-0.5-0.224-0.5-0.5S3.724,19,4,19h7c0.276,0,0.5,0.224,0.5,0.5S11.276,20,11,20H4z"/>
	<path d="M15,21c-0.827,0-1.5-0.673-1.5-1.5S14.173,18,15,18s1.5,0.673,1.5,1.5S15.827,21,15,21z M15,19c-0.276,0-0.5,0.224-0.5,0.5
		S14.724,20,15,20s0.5-0.224,0.5-0.5S15.276,19,15,19z"/>
	<path d="M19,21c-0.827,0-1.5-0.673-1.5-1.5S18.173,18,19,18s1.5,0.673,1.5,1.5S19.827,21,19,21z M19,19c-0.276,0-0.5,0.224-0.5,0.5
		S18.724,20,19,20s0.5-0.224,0.5-0.5S19.276,19,19,19z"/>
</g>
</svg>
