<?xml version="1.0" encoding="utf-8"?>
<!-- Generator: Adobe Illustrator 22.1.0, SVG Export Plug-In . SVG Version: 6.00 Build 0)  -->
<svg version="1.1" id="Layer_1" xmlns="http://www.w3.org/2000/svg" xmlns:xlink="http://www.w3.org/1999/xlink" x="0px" y="0px"
	 viewBox="0 0 24 24" style="enable-background:new 0 0 24 24;" xml:space="preserve">
<g>
	<title>monitor-download</title>
	<path d="M12,12c-0.066,0-0.13-0.013-0.191-0.038c-0.062-0.026-0.116-0.062-0.162-0.108l-4-4C7.552,7.759,7.5,7.634,7.5,7.5
		s0.052-0.259,0.146-0.354S7.866,7,8,7s0.259,0.052,0.354,0.146l3.146,3.146V0.5C11.5,0.224,11.724,0,12,0
		c0.276,0,0.5,0.224,0.5,0.5v9.793l3.146-3.146C15.741,7.052,15.866,7,16,7s0.259,0.052,0.354,0.146S16.5,7.366,16.5,7.5
		s-0.052,0.259-0.146,0.354l-4,4c-0.046,0.046-0.101,0.083-0.162,0.108C12.13,11.987,12.066,12,12,12z"/>
	<path d="M9,24c-0.276,0-0.5-0.224-0.5-0.5S8.724,23,9,23h2.5v-1h-6c-1.103,0-2-0.897-2-2v-7c0-1.103,0.897-2,2-2H6
		c0.276,0,0.5,0.224,0.5,0.5S6.276,12,6,12H5.5c-0.551,0-1,0.448-1,1v6h15v-6c0-0.552-0.448-1-1-1H18c-0.276,0-0.5-0.224-0.5-0.5
		S17.724,11,18,11h0.5c1.103,0,2,0.897,2,2v7c0,1.103-0.897,2-2,2h-6v1H15c0.276,0,0.5,0.224,0.5,0.5S15.276,24,15,24H9z M4.5,20
		c0,0.552,0.449,1,1,1h13c0.552,0,1-0.448,1-1H4.5z"/>
</g>
</svg>
