<?xml version="1.0" encoding="utf-8"?>
<!-- Generator: Adobe Illustrator 22.1.0, SVG Export Plug-In . SVG Version: 6.00 Build 0)  -->
<svg version="1.1" id="Layer_1" xmlns="http://www.w3.org/2000/svg" xmlns:xlink="http://www.w3.org/1999/xlink" x="0px" y="0px"
	 viewBox="0 0 24 24" style="enable-background:new 0 0 24 24;" xml:space="preserve">
<g>
	<title>monitor-upload</title>
	<path d="M12,14.001c-0.276,0-0.5-0.224-0.5-0.5V2.708L8.354,5.854C8.259,5.949,8.134,6.001,8,6.001S7.741,5.949,7.646,5.854
		S7.5,5.634,7.5,5.501s0.052-0.259,0.146-0.354l4-4c0.046-0.046,0.101-0.083,0.162-0.108C11.87,1.014,11.934,1.001,12,1.001
		s0.13,0.013,0.191,0.038c0.062,0.026,0.116,0.062,0.163,0.108l4,4c0.094,0.094,0.146,0.22,0.146,0.354s-0.052,0.259-0.146,0.354
		S16.134,6.001,16,6.001s-0.259-0.052-0.354-0.146L12.5,2.708v10.793C12.5,13.776,12.276,14.001,12,14.001z"/>
	<path d="M9,23.001c-0.276,0-0.5-0.224-0.5-0.5s0.224-0.5,0.5-0.5h2.5v-1h-6c-1.103,0-2-0.897-2-2v-7c0-1.103,0.897-2,2-2H9
		c0.276,0,0.5,0.224,0.5,0.5s-0.224,0.5-0.5,0.5H5.5c-0.551,0-1,0.449-1,1v6h15v-6c0-0.551-0.448-1-1-1H15
		c-0.276,0-0.5-0.224-0.5-0.5s0.224-0.5,0.5-0.5h3.5c1.103,0,2,0.897,2,2v7c0,1.103-0.897,2-2,2h-6v1H15c0.276,0,0.5,0.224,0.5,0.5
		s-0.224,0.5-0.5,0.5H9z M4.5,19.001c0,0.552,0.449,1,1,1h13c0.552,0,1-0.448,1-1H4.5z"/>
</g>
</svg>
