<?xml version="1.0" encoding="utf-8"?>
<!-- Generator: Adobe Illustrator 22.1.0, SVG Export Plug-In . SVG Version: 6.00 Build 0)  -->
<svg version="1.1" id="Layer_1" xmlns="http://www.w3.org/2000/svg" xmlns:xlink="http://www.w3.org/1999/xlink" x="0px" y="0px"
	 viewBox="0 0 24 24" style="enable-background:new 0 0 24 24;" xml:space="preserve">
<g>
	<title>upload-button</title>
	<path d="M12,24c-0.276,0-0.5-0.224-0.5-0.5V8.31l-3.11,3.887C8.295,12.316,8.153,12.385,8,12.385c-0.113,0-0.224-0.039-0.312-0.11
		c-0.104-0.083-0.17-0.202-0.184-0.335s0.023-0.263,0.107-0.368l4-5c0.01-0.012,0.021-0.024,0.034-0.035
		C11.738,6.441,11.867,6.385,12,6.385c0.133,0,0.262,0.056,0.356,0.153c0.012,0.011,0.024,0.022,0.033,0.034l4.001,5.001
		c0.172,0.215,0.137,0.53-0.078,0.703c-0.089,0.071-0.199,0.11-0.312,0.11c-0.153,0-0.295-0.068-0.391-0.187L12.5,8.31V23.5
		C12.5,23.776,12.276,24,12,24z"/>
	<path d="M14.5,17c-0.276,0-0.5-0.224-0.5-0.5s0.224-0.5,0.5-0.5H19c0.276,0,0.5-0.224,0.5-0.5v-14C19.5,1.224,19.276,1,19,1H5
		C4.724,1,4.5,1.224,4.5,1.5v14C4.5,15.776,4.724,16,5,16h4.5c0.276,0,0.5,0.224,0.5,0.5S9.776,17,9.5,17H5
		c-0.827,0-1.5-0.673-1.5-1.5v-14C3.5,0.673,4.173,0,5,0h14c0.827,0,1.5,0.673,1.5,1.5v14c0,0.827-0.673,1.5-1.5,1.5H14.5z"/>
</g>
</svg>
