<?xml version="1.0" encoding="utf-8"?>
<!-- Generator: Adobe Illustrator 22.1.0, SVG Export Plug-In . SVG Version: 6.00 Build 0)  -->
<svg version="1.1" id="Layer_1" xmlns="http://www.w3.org/2000/svg" xmlns:xlink="http://www.w3.org/1999/xlink" x="0px" y="0px"
	 viewBox="0 0 24 24" style="enable-background:new 0 0 24 24;" xml:space="preserve">
<g>
	<title>upload-box</title>
	<path d="M12,20c-0.276,0-0.5-0.224-0.5-0.5v-9.293l-4.146,4.146C7.259,14.448,7.134,14.5,7,14.5s-0.259-0.052-0.354-0.146
		S6.5,14.134,6.5,14s0.052-0.259,0.146-0.354l5-5c0.046-0.046,0.101-0.083,0.162-0.108C11.87,8.513,11.934,8.5,12,8.5
		s0.13,0.013,0.191,0.038c0.062,0.026,0.116,0.062,0.163,0.108l5,5C17.448,13.741,17.5,13.866,17.5,14s-0.052,0.259-0.146,0.354
		S17.134,14.5,17,14.5s-0.259-0.052-0.354-0.146L12.5,10.207V19.5C12.5,19.776,12.276,20,12,20z"/>
	<path d="M2,24c-0.827,0-1.5-0.673-1.5-1.5v-16c0.005-0.165,0.016-0.331,0.034-0.499c0,0,0-0.001,0-0.001
		c0-0.018,0.002-0.038,0.006-0.057c0.061-0.538,0.182-1.05,0.36-1.542l1.264-3.159c0.336-0.73,1.027-1.201,1.809-1.241L20,0
		c0.803,0.041,1.497,0.507,1.825,1.219l1.268,3.168c0.003,0.007,0.008,0.021,0.01,0.029c0.177,0.486,0.299,1.007,0.358,1.537
		C23.464,5.968,23.466,5.985,23.466,6c0,0,0,0,0,0.001c0.018,0.17,0.029,0.328,0.033,0.484l0,16.016c0,0.827-0.673,1.5-1.5,1.5H2z
		 M1.5,22.5C1.5,22.776,1.724,23,2,23h20c0.276,0,0.5-0.224,0.5-0.5v-16h-21C1.5,6.505,1.5,22.5,1.5,22.5z M22.373,5.5
		c-0.055-0.264-0.127-0.516-0.213-0.754l-1.253-3.133C20.744,1.262,20.387,1.023,19.98,1L12.5,1v4.5H22.373z M11.5,5.5V1L4,1
		C3.611,1.021,3.255,1.265,3.083,1.637l-1.248,3.12C1.752,4.988,1.682,5.237,1.627,5.5H11.5z"/>
</g>
</svg>
