<?xml version="1.0" encoding="utf-8"?>
<!-- Generator: Adobe Illustrator 22.1.0, SVG Export Plug-In . SVG Version: 6.00 Build 0)  -->
<svg version="1.1" id="Layer_1" xmlns="http://www.w3.org/2000/svg" xmlns:xlink="http://www.w3.org/1999/xlink" x="0px" y="0px"
	 viewBox="0 0 24 24" style="enable-background:new 0 0 24 24;" xml:space="preserve">
<g>
	<title>upload-dash-arrow-1</title>
	<path d="M14.527,13c-0.276,0-0.5-0.224-0.5-0.5V8c0-0.276,0.224-0.5,0.5-0.5h3.35l-5.533-5.928
		c-0.013-0.014-0.022-0.024-0.033-0.033c-0.077-0.07-0.178-0.109-0.283-0.109c-0.119,0-0.233,0.05-0.312,0.138L6.177,7.5h3.35
		c0.276,0,0.5,0.224,0.5,0.5v4.5c0,0.276-0.224,0.5-0.5,0.5s-0.5-0.224-0.5-0.5v-4h-3c-0.668,0-0.897-0.36-0.964-0.515
		S4.888,7.417,5.343,6.928L10.98,0.89c0.265-0.292,0.648-0.46,1.047-0.46c0.355,0,0.695,0.131,0.957,0.37
		c0.033,0.03,0.065,0.062,0.095,0.095l5.632,6.033c0.456,0.486,0.348,0.9,0.281,1.055C18.925,8.139,18.696,8.5,18.027,8.5h-3v4
		C15.027,12.776,14.803,13,14.527,13z"/>
	<path d="M9.527,17.5c-0.276,0-0.5-0.224-0.5-0.5v-2.5c0-0.276,0.224-0.5,0.5-0.5s0.5,0.224,0.5,0.5V17
		C10.027,17.276,9.803,17.5,9.527,17.5z"/>
	<path d="M14.527,17.5c-0.276,0-0.5-0.224-0.5-0.5v-2.5c0-0.276,0.224-0.5,0.5-0.5s0.5,0.224,0.5,0.5V17
		C15.027,17.276,14.803,17.5,14.527,17.5z"/>
	<path d="M9.527,21c-0.276,0-0.5-0.224-0.5-0.5V19c0-0.276,0.224-0.5,0.5-0.5s0.5,0.224,0.5,0.5v1.5
		C10.027,20.776,9.803,21,9.527,21z"/>
	<path d="M14.527,21c-0.276,0-0.5-0.224-0.5-0.5V19c0-0.276,0.224-0.5,0.5-0.5s0.5,0.224,0.5,0.5v1.5
		C15.027,20.776,14.803,21,14.527,21z"/>
	<path d="M9.527,23.5c-0.276,0-0.5-0.224-0.5-0.5v-0.5c0-0.276,0.224-0.5,0.5-0.5s0.5,0.224,0.5,0.5V23
		C10.027,23.276,9.803,23.5,9.527,23.5z"/>
	<path d="M14.527,23.5c-0.276,0-0.5-0.224-0.5-0.5v-0.5c0-0.276,0.224-0.5,0.5-0.5s0.5,0.224,0.5,0.5V23
		C15.027,23.276,14.803,23.5,14.527,23.5z"/>
</g>
</svg>
