<?xml version="1.0" encoding="utf-8"?>
<!-- Generator: Adobe Illustrator 22.1.0, SVG Export Plug-In . SVG Version: 6.00 Build 0)  -->
<svg version="1.1" id="Layer_1" xmlns="http://www.w3.org/2000/svg" xmlns:xlink="http://www.w3.org/1999/xlink" x="0px" y="0px"
	 viewBox="0 0 24 24" style="enable-background:new 0 0 24 24;" xml:space="preserve">
<g>
	<title>upload-thick-bottom</title>
	<path d="M9.5,19.002c-0.827,0-1.5-0.673-1.5-1.5v-9.5H5.5c-0.506,0-0.675-0.319-0.715-0.417c-0.04-0.098-0.141-0.443,0.22-0.795
		l6.284-6.285C11.482,0.311,11.733,0.208,12,0.208c0.268,0,0.519,0.104,0.708,0.294L19,6.793c0.355,0.355,0.252,0.698,0.212,0.795
		c-0.04,0.097-0.21,0.412-0.711,0.412H16v9.501c0,0.827-0.673,1.5-1.5,1.5H9.5z M8.5,7.002c0.276,0,0.5,0.224,0.5,0.5v10
		c0,0.276,0.224,0.5,0.5,0.5h5c0.276,0,0.5-0.224,0.5-0.5V7.501c0-0.276,0.224-0.5,0.5-0.5h2.293l-5.794-5.793L6.207,7.002H8.5z"/>
	<path d="M1.5,24.001c-0.827,0-1.5-0.673-1.5-1.5v-4c0-0.276,0.224-0.5,0.5-0.5s0.5,0.224,0.5,0.5v4c0,0.276,0.224,0.5,0.5,0.5h21
		c0.276,0,0.5-0.224,0.5-0.5v-4c0-0.276,0.224-0.5,0.5-0.5s0.5,0.224,0.5,0.5v4c0,0.827-0.673,1.5-1.5,1.5H1.5z"/>
</g>
</svg>
