<?xml version="1.0" encoding="utf-8"?>
<!-- Generator: Adobe Illustrator 22.1.0, SVG Export Plug-In . SVG Version: 6.00 Build 0)  -->
<svg version="1.1" id="Layer_1" xmlns="http://www.w3.org/2000/svg" xmlns:xlink="http://www.w3.org/1999/xlink" x="0px" y="0px"
	 viewBox="0 0 24 24" style="enable-background:new 0 0 24 24;" xml:space="preserve">
<g>
	<title>upload-circle</title>
	<path d="M12,23.5C5.659,23.5,0.5,18.341,0.5,12S5.659,0.5,12,0.5S23.5,5.659,23.5,12S18.341,23.5,12,23.5z M12,1.5
		C6.21,1.5,1.5,6.21,1.5,12c0,5.79,4.71,10.5,10.5,10.5c5.79,0,10.5-4.71,10.5-10.5C22.5,6.21,17.79,1.5,12,1.5z"/>
	<path d="M12,19c-0.276,0-0.5-0.224-0.5-0.5V6.707l-4.646,4.646C6.759,11.448,6.634,11.5,6.5,11.5s-0.259-0.052-0.354-0.146
		S6,11.134,6,11s0.052-0.259,0.146-0.354l5.5-5.5c0.046-0.046,0.101-0.083,0.162-0.108C11.87,5.013,11.934,5,12,5
		s0.13,0.013,0.191,0.038c0.062,0.026,0.116,0.062,0.163,0.108l5.5,5.5C17.948,10.741,18,10.866,18,11s-0.052,0.259-0.146,0.354
		S17.634,11.5,17.5,11.5s-0.259-0.052-0.354-0.146L12.5,6.707V18.5C12.5,18.776,12.276,19,12,19z"/>
</g>
</svg>
