<?xml version="1.0" encoding="utf-8"?>
<!-- Generator: Adobe Illustrator 22.1.0, SVG Export Plug-In . SVG Version: 6.00 Build 0)  -->
<svg version="1.1" id="Regular" xmlns="http://www.w3.org/2000/svg" xmlns:xlink="http://www.w3.org/1999/xlink" x="0px" y="0px"
	 viewBox="0 0 24 24" style="enable-background:new 0 0 24 24;" xml:space="preserve">
<title>single-woman-actions-home</title>
<g>
	<path d="M15.75,24c-0.011,0-0.027-0.001-0.041-0.002l-1.459,0c-1.241,0-2.25-1.009-2.25-2.25V17.6l-0.256,0.224
		c-0.137,0.12-0.312,0.186-0.494,0.186c-0.216,0-0.422-0.093-0.564-0.256c-0.272-0.312-0.241-0.786,0.07-1.059l4.518-3.954
		c0.545-0.477,1.247-0.739,1.976-0.739c0.729,0,1.43,0.263,1.975,0.739l4.519,3.954c0.151,0.132,0.241,0.315,0.255,0.514
		c0.013,0.2-0.052,0.393-0.184,0.544c-0.143,0.163-0.348,0.256-0.564,0.256c-0.182,0-0.357-0.066-0.494-0.186L22.5,17.6v4.148
		c0,1.241-1.009,2.25-2.25,2.25h-1.462C18.774,23.999,18.76,24,18.75,24H15.75z M20.25,22.498c0.414,0,0.75-0.336,0.75-0.75v-5.46
		l-2.763-2.417c-0.272-0.238-0.623-0.369-0.988-0.369s-0.716,0.131-0.988,0.369L13.5,16.288v5.46c0,0.414,0.336,0.75,0.75,0.75H15
		V20.25c0-1.241,1.009-2.25,2.25-2.25s2.25,1.009,2.25,2.25v2.248H20.25z M18,22.498V20.25c0-0.414-0.336-0.75-0.75-0.75
		s-0.75,0.336-0.75,0.75v2.248H18z"/>
	<path d="M0.75,18c-0.2,0-0.389-0.078-0.531-0.22C0.078,17.638,0,17.45,0,17.25c0.002-4.135,3.367-7.498,7.501-7.498
		c1.848,0.001,3.622,0.678,4.999,1.909c0.149,0.133,0.238,0.317,0.249,0.517c0.011,0.2-0.056,0.393-0.19,0.542
		c-0.142,0.159-0.346,0.25-0.559,0.25c-0.185,0-0.362-0.068-0.5-0.191c-1.101-0.984-2.52-1.526-3.997-1.527
		c-3.31,0-6.002,2.691-6.003,5.999C1.5,17.664,1.163,18,0.75,18z"/>
	<path d="M12.483,10.008c-0.264,0-0.503-0.134-0.641-0.359c-0.297-0.488-0.529-1.007-0.691-1.552C10.234,9.144,8.919,9.75,7.5,9.75
		c-1.419,0-2.734-0.606-3.652-1.654C3.685,8.641,3.455,9.16,3.158,9.648c-0.137,0.225-0.377,0.36-0.641,0.36
		c-0.137,0-0.272-0.038-0.39-0.109c-0.353-0.215-0.466-0.677-0.25-1.031c0.524-0.861,0.784-1.849,0.75-2.857l0-1.025
		c0-0.01,0.001-0.025,0.002-0.04C2.626,4.915,2.625,4.895,2.625,4.875C2.625,2.187,4.812,0,7.5,0s4.875,2.187,4.875,4.875
		c0,0.025-0.001,0.05-0.003,0.074c0,0,0.001,0.028,0.001,0.037v1c-0.034,1.029,0.225,2.021,0.75,2.881
		c0.215,0.353,0.104,0.815-0.25,1.031C12.755,9.97,12.621,10.008,12.483,10.008z M4.28,5.879C4.713,7.274,6.009,8.25,7.5,8.25
		c1.489,0,2.784-0.974,3.219-2.367C9.521,5.703,8.401,5.177,7.499,4.372C6.596,5.175,5.477,5.699,4.28,5.879z M7.5,2.555
		c0.218,0,0.425,0.095,0.568,0.26c0.721,0.836,1.692,1.383,2.768,1.568C10.596,2.759,9.181,1.5,7.5,1.5
		c-1.679,0-3.093,1.256-3.335,2.879C5.24,4.194,6.211,3.648,6.933,2.814C7.076,2.649,7.282,2.555,7.5,2.555
		C7.5,2.555,7.5,2.555,7.5,2.555z"/>
</g>
</svg>
