<?xml version="1.0" encoding="utf-8"?>
<!-- Generator: Adobe Illustrator 22.1.0, SVG Export Plug-In . SVG Version: 6.00 Build 0)  -->
<svg version="1.1" id="Regular" xmlns="http://www.w3.org/2000/svg" xmlns:xlink="http://www.w3.org/1999/xlink" x="0px" y="0px"
	 viewBox="0 0 24 24" style="enable-background:new 0 0 24 24;" xml:space="preserve">
<title>single-woman-actions-music</title>
<g>
	<path d="M13.875,24c-1.448,0-2.625-1.177-2.625-2.625s1.177-2.625,2.625-2.625c0.392,0,0.776,0.088,1.125,0.255v-4.424
		c0-0.97,0.618-1.827,1.538-2.135l4.537-1.261c0.206-0.069,0.44-0.108,0.677-0.108c0.968,0,1.825,0.619,2.133,1.54
		C23.961,12.85,24,13.089,24,13.331v5.794c0,1.448-1.177,2.625-2.625,2.625s-2.625-1.177-2.625-2.625s1.177-2.625,2.625-2.625
		c0.392,0,0.776,0.088,1.125,0.255v-3.424c0-0.081-0.013-0.161-0.039-0.239c-0.102-0.306-0.388-0.512-0.712-0.512
		c-0.08,0-0.16,0.013-0.237,0.039l-4.537,1.261c-0.272,0.092-0.476,0.382-0.476,0.7v6.794C16.5,22.823,15.323,24,13.875,24z
		 M13.875,20.25c-0.62,0-1.125,0.505-1.125,1.125s0.505,1.125,1.125,1.125S15,21.995,15,21.375S14.495,20.25,13.875,20.25z
		 M21.375,18c-0.62,0-1.125,0.505-1.125,1.125s0.505,1.125,1.125,1.125s1.125-0.505,1.125-1.125S21.995,18,21.375,18z"/>
	<path d="M0.75,18C0.336,18,0,17.664,0,17.25c0-2,0.781-3.883,2.199-5.301S5.499,9.75,7.5,9.75c2.136,0,4.176,0.914,5.597,2.508
		c0.134,0.149,0.201,0.342,0.189,0.542c-0.011,0.2-0.1,0.384-0.25,0.517c-0.137,0.122-0.315,0.19-0.499,0.19l0,0
		c-0.214,0-0.418-0.092-0.56-0.251C10.84,11.981,9.208,11.25,7.5,11.25c-1.601,0-3.107,0.625-4.241,1.76
		C2.125,14.144,1.5,15.65,1.5,17.25C1.5,17.664,1.164,18,0.75,18z"/>
	<path d="M12.483,10.008c-0.264,0-0.503-0.134-0.641-0.359c-0.297-0.488-0.529-1.007-0.691-1.552C10.234,9.144,8.919,9.75,7.5,9.75
		c-1.419,0-2.734-0.606-3.652-1.654C3.685,8.641,3.455,9.16,3.158,9.648c-0.137,0.225-0.377,0.36-0.641,0.36
		c-0.137,0-0.272-0.038-0.39-0.109c-0.353-0.215-0.466-0.677-0.25-1.031c0.524-0.861,0.784-1.849,0.75-2.857l0-1.025
		c0-0.01,0.001-0.025,0.002-0.04C2.626,4.915,2.625,4.895,2.625,4.875C2.625,2.187,4.812,0,7.5,0s4.875,2.187,4.875,4.875
		c0,0.025-0.001,0.05-0.003,0.074c0,0,0.001,0.028,0.001,0.037v1c-0.034,1.029,0.225,2.021,0.75,2.881
		c0.215,0.353,0.104,0.815-0.25,1.031C12.755,9.97,12.621,10.008,12.483,10.008z M4.28,5.879C4.713,7.274,6.009,8.25,7.5,8.25
		c1.489,0,2.784-0.974,3.219-2.367C9.521,5.703,8.401,5.177,7.499,4.372C6.596,5.175,5.477,5.699,4.28,5.879z M7.5,2.555
		c0.218,0,0.425,0.095,0.568,0.26c0.721,0.836,1.692,1.383,2.768,1.568C10.596,2.759,9.181,1.5,7.5,1.5
		c-1.679,0-3.093,1.256-3.335,2.879C5.24,4.194,6.211,3.648,6.933,2.814C7.076,2.649,7.282,2.555,7.5,2.555
		C7.5,2.555,7.5,2.555,7.5,2.555z"/>
</g>
</svg>
