<?xml version="1.0" encoding="utf-8"?>
<!-- Generator: Adobe Illustrator 22.1.0, SVG Export Plug-In . SVG Version: 6.00 Build 0)  -->
<svg version="1.1" id="Regular" xmlns="http://www.w3.org/2000/svg" xmlns:xlink="http://www.w3.org/1999/xlink" x="0px" y="0px"
	 viewBox="0 0 24 24" style="enable-background:new 0 0 24 24;" xml:space="preserve">
<title>single-woman-actions-laptop</title>
<g>
	<path d="M0.899,18c-0.414,0-0.75-0.336-0.75-0.75c0-4.135,3.365-7.5,7.5-7.5c0.277,0,0.557,0.015,0.832,0.045
		c0.411,0.045,0.709,0.417,0.664,0.827c-0.042,0.381-0.363,0.668-0.746,0.668l0,0c-0.027,0-0.054-0.001-0.081-0.004
		c-0.222-0.024-0.446-0.037-0.669-0.037c-3.308,0-6,2.692-6,6C1.649,17.664,1.313,18,0.899,18z"/>
	<path d="M12.627,10.008c-0.26,0-0.505-0.138-0.641-0.36c-0.297-0.487-0.528-1.007-0.691-1.552C10.378,9.144,9.063,9.75,7.644,9.75
		c-1.419,0-2.734-0.606-3.652-1.654C3.83,8.641,3.599,9.16,3.302,9.648c-0.137,0.225-0.377,0.36-0.641,0.36
		c-0.137,0-0.272-0.038-0.39-0.109C2.1,9.795,1.98,9.63,1.932,9.435C1.885,9.241,1.916,9.039,2.02,8.868
		c0.524-0.862,0.784-1.849,0.75-2.857l0-1.025c0-0.01,0.001-0.025,0.002-0.039C2.77,4.916,2.769,4.896,2.769,4.875
		C2.769,2.187,4.956,0,7.644,0s4.875,2.187,4.875,4.875c0,0.025-0.001,0.05-0.003,0.074c0,0,0.001,0.028,0.001,0.037v1
		c-0.034,1.028,0.225,2.021,0.75,2.882c0.215,0.353,0.104,0.815-0.25,1.031C12.9,9.97,12.765,10.008,12.627,10.008z M4.424,5.878
		C4.857,7.274,6.153,8.25,7.644,8.25s2.787-0.976,3.22-2.371c-1.197-0.181-2.318-0.706-3.22-1.511
		C6.741,5.172,5.621,5.698,4.424,5.878z M7.644,2.55c0.218,0,0.425,0.095,0.568,0.26c0.721,0.835,1.691,1.382,2.768,1.568
		C10.736,2.756,9.323,1.5,7.644,1.5c-1.679,0-3.092,1.256-3.335,2.878C5.385,4.192,6.355,3.645,7.076,2.81
		C7.219,2.645,7.426,2.55,7.644,2.55z"/>
	<path d="M10.934,24c-0.401,0-0.778-0.156-1.061-0.44c-0.283-0.283-0.439-0.66-0.439-1.061c0-0.16,0.026-0.319,0.077-0.472
		l1.138-3.399V12.75c0-1.241,1.009-2.25,2.25-2.25h7.5c1.241,0,2.25,1.009,2.25,2.25v5.878l1.133,3.397
		c0.26,0.787-0.167,1.638-0.953,1.898C22.676,23.974,22.518,24,22.358,24H10.934z M10.934,22.501L22.358,22.5l-1-3h-9.42
		L10.934,22.501z M21.149,18v-5.25c0-0.414-0.336-0.75-0.75-0.75h-7.5c-0.414,0-0.75,0.336-0.75,0.75V18H21.149z"/>
</g>
</svg>
