<?xml version="1.0" encoding="utf-8"?>
<!-- Generator: Adobe Illustrator 22.1.0, SVG Export Plug-In . SVG Version: 6.00 Build 0)  -->
<svg version="1.1" id="Regular" xmlns="http://www.w3.org/2000/svg" xmlns:xlink="http://www.w3.org/1999/xlink" x="0px" y="0px"
	 viewBox="0 0 24 24" style="enable-background:new 0 0 24 24;" xml:space="preserve">
<title>single-woman-actions-share-1</title>
<g>
	<path d="M23.25,18c-0.414,0-0.75-0.336-0.75-0.75c0-2.008-0.997-3.873-2.667-4.988c-0.992-0.663-2.141-1.014-3.321-1.014
		c-0.394,0-0.792,0.039-1.183,0.117c-1.572,0.313-2.929,1.219-3.819,2.551c-0.139,0.209-0.372,0.333-0.624,0.333
		c-0.148,0-0.292-0.044-0.416-0.126c-0.167-0.112-0.28-0.281-0.319-0.478s0.001-0.396,0.112-0.563
		c1.113-1.666,2.808-2.798,4.773-3.189c0.488-0.097,0.986-0.146,1.478-0.146c1.477,0,2.913,0.438,4.153,1.267
		C22.754,12.409,24,14.74,24,17.25C24,17.664,23.664,18,23.25,18z"/>
	<path d="M21.483,10.008c-0.26,0-0.505-0.138-0.641-0.36c-0.297-0.488-0.529-1.007-0.691-1.552C19.234,9.144,17.919,9.75,16.5,9.75
		c-1.419,0-2.734-0.606-3.652-1.654c-0.162,0.544-0.393,1.064-0.69,1.552c-0.137,0.225-0.377,0.36-0.641,0.36
		c-0.137,0-0.272-0.038-0.39-0.109c-0.353-0.215-0.466-0.677-0.25-1.031c0.524-0.861,0.784-1.849,0.75-2.857l0-1.025
		c0-0.01,0.001-0.025,0.002-0.04c-0.002-0.031-0.003-0.051-0.003-0.071C11.625,2.187,13.812,0,16.5,0s4.875,2.187,4.875,4.875
		c0,0.025-0.001,0.049-0.003,0.073c0,0,0.001,0.025,0.001,0.037v1c-0.034,1.029,0.225,2.021,0.75,2.881
		c0.215,0.353,0.104,0.815-0.25,1.031C21.755,9.97,21.621,10.008,21.483,10.008z M13.28,5.878c0.433,1.396,1.729,2.372,3.22,2.372
		s2.787-0.976,3.22-2.371c-1.197-0.181-2.317-0.706-3.22-1.511C15.597,5.172,14.477,5.698,13.28,5.878z M16.5,2.55
		c0.218,0,0.425,0.095,0.568,0.26c0.721,0.835,1.692,1.383,2.768,1.568C19.593,2.756,18.179,1.5,16.5,1.5
		c-1.678,0-3.092,1.256-3.335,2.878c1.076-0.186,2.046-0.733,2.767-1.568C16.075,2.645,16.282,2.55,16.5,2.55z"/>
	<path d="M0.75,24C0.336,24,0,23.664,0,23.25v-9c0-0.414,0.336-0.75,0.75-0.75s0.75,0.336,0.75,0.75V15H6c1.8,0,3.324,1.268,3.675,3
		h3.075c2.068,0,3.75,1.682,3.75,3.75c0,0.414-0.336,0.75-0.75,0.75H1.5v0.75C1.5,23.664,1.164,24,0.75,24z M14.871,21
		c-0.313-0.879-1.159-1.5-2.121-1.5H6c-0.414,0-0.75-0.336-0.75-0.75S5.586,18,6,18h2.118C7.805,17.121,6.96,16.5,6,16.5H1.5V21
		H14.871z"/>
</g>
</svg>
