<?xml version="1.0" encoding="utf-8"?>
<!-- Generator: Adobe Illustrator 22.1.0, SVG Export Plug-In . SVG Version: 6.00 Build 0)  -->
<svg version="1.1" id="Regular" xmlns="http://www.w3.org/2000/svg" xmlns:xlink="http://www.w3.org/1999/xlink" x="0px" y="0px"
	 viewBox="0 0 24 24" style="enable-background:new 0 0 24 24;" xml:space="preserve">
<title>single-woman-actions-location</title>
<g>
	<circle cx="18.75" cy="15.817" r="1.125"/>
	<path d="M18.749,23.993c-0.337,0-0.656-0.11-0.922-0.317c-0.097-0.076-0.184-0.163-0.26-0.26c-1.855-2.374-4.067-5.619-4.067-7.599
		c0-2.895,2.355-5.25,5.25-5.25S24,12.922,24,15.817c0,1.979-2.212,5.225-4.068,7.6C19.646,23.783,19.215,23.993,18.749,23.993z
		 M18.75,12.067c-2.068,0-3.75,1.682-3.75,3.75c0,1.159,1.437,3.717,3.75,6.676c2.313-2.959,3.75-5.517,3.75-6.676
		C22.5,13.749,20.818,12.067,18.75,12.067z"/>
	<path d="M0.75,18.005c-0.413,0-0.75-0.336-0.75-0.749c-0.002-1.976,0.758-3.841,2.14-5.252c1.4-1.43,3.274-2.228,5.275-2.249
		l0.087,0c1.966,0,3.824,0.76,5.233,2.14c0.143,0.14,0.223,0.328,0.225,0.528c0.002,0.2-0.074,0.389-0.214,0.532
		c-0.142,0.145-0.333,0.225-0.536,0.225c0,0,0,0,0,0c-0.197,0-0.384-0.076-0.525-0.214c-1.127-1.104-2.614-1.712-4.188-1.712
		l-0.067,0c-1.601,0.016-3.099,0.655-4.219,1.799c-1.106,1.128-1.713,2.62-1.712,4.2C1.5,17.668,1.164,18.005,0.75,18.005
		C0.751,18.005,0.751,18.005,0.75,18.005z"/>
	<path d="M12.483,10.013c-0.264,0-0.503-0.134-0.641-0.359c-0.297-0.488-0.529-1.007-0.691-1.552
		C10.234,9.149,8.919,9.755,7.5,9.755c-1.42,0-2.735-0.606-3.653-1.655C3.685,8.644,3.454,9.162,3.158,9.649
		c-0.137,0.225-0.377,0.36-0.641,0.36c-0.137,0-0.272-0.038-0.39-0.109C1.956,9.796,1.836,9.631,1.788,9.436
		C1.741,9.242,1.772,9.04,1.876,8.869c0.524-0.86,0.783-1.847,0.75-2.853l0-1.025c0-0.01,0.001-0.025,0.002-0.04
		C2.626,4.921,2.625,4.901,2.625,4.88c0-2.688,2.187-4.875,4.875-4.875s4.875,2.187,4.875,4.875c0,0.025-0.001,0.049-0.003,0.074
		c0,0,0.001,0.028,0.001,0.037v1c-0.034,1.029,0.225,2.021,0.75,2.881c0.215,0.353,0.104,0.815-0.25,1.031
		C12.755,9.975,12.621,10.013,12.483,10.013z M4.281,5.888C4.715,7.281,6.011,8.255,7.5,8.255c1.489,0,2.784-0.974,3.219-2.366
		C9.522,5.708,8.402,5.182,7.5,4.377C6.597,5.182,5.478,5.707,4.281,5.888z M7.5,2.56c0.218,0,0.425,0.095,0.568,0.26
		c0.721,0.836,1.692,1.383,2.769,1.569C10.596,2.764,9.182,1.505,7.5,1.505c-1.681,0-3.095,1.258-3.336,2.882
		C5.24,4.202,6.211,3.655,6.932,2.82C7.075,2.655,7.282,2.56,7.5,2.56z"/>
</g>
</svg>
