<?xml version="1.0" encoding="utf-8"?>
<!-- Generator: Adobe Illustrator 22.1.0, SVG Export Plug-In . SVG Version: 6.00 Build 0)  -->
<svg version="1.1" id="Regular" xmlns="http://www.w3.org/2000/svg" xmlns:xlink="http://www.w3.org/1999/xlink" x="0px" y="0px"
	 viewBox="0 0 24 24" style="enable-background:new 0 0 24 24;" xml:space="preserve">
<title>single-woman-actions-refresh</title>
<g>
	<path d="M12.483,10.01c-0.264,0-0.503-0.134-0.641-0.359c-0.297-0.488-0.529-1.007-0.691-1.552C10.234,9.147,8.919,9.752,7.5,9.752
		c-1.419,0-2.734-0.606-3.652-1.654C3.685,8.643,3.455,9.163,3.158,9.65c-0.137,0.225-0.377,0.36-0.641,0.36
		c-0.137,0-0.272-0.038-0.39-0.109C1.774,9.686,1.661,9.224,1.876,8.87c0.524-0.861,0.784-1.849,0.75-2.857l0-1.025
		c0-0.01,0.001-0.025,0.002-0.04C2.626,4.918,2.625,4.898,2.625,4.877c0-2.688,2.187-4.875,4.875-4.875s4.875,2.187,4.875,4.875
		c0,0.025-0.001,0.049-0.003,0.074c0,0,0.001,0.028,0.001,0.037v1c-0.034,1.029,0.225,2.021,0.75,2.881
		c0.215,0.353,0.104,0.815-0.25,1.031C12.755,9.973,12.621,10.01,12.483,10.01z M4.28,5.881C4.714,7.276,6.009,8.252,7.5,8.252
		c1.489,0,2.784-0.974,3.219-2.366C9.521,5.705,8.401,5.179,7.499,4.374C6.596,5.177,5.476,5.702,4.28,5.881z M7.5,2.557
		c0.218,0,0.425,0.095,0.568,0.26C8.789,3.653,9.76,4.2,10.836,4.386C10.596,2.761,9.182,1.502,7.5,1.502
		c-1.679,0-3.093,1.256-3.335,2.879C5.241,4.196,6.211,3.65,6.933,2.817C7.076,2.652,7.282,2.557,7.5,2.557
		C7.5,2.557,7.5,2.557,7.5,2.557z"/>
	<path d="M0.75,18.002c-0.413,0-0.75-0.337-0.75-0.75c0.003-4.134,3.369-7.498,7.503-7.498c1.02,0.001,2.007,0.203,2.941,0.6
		c0.184,0.078,0.327,0.224,0.402,0.41c0.075,0.186,0.073,0.39-0.006,0.574c-0.118,0.277-0.388,0.456-0.69,0.456c0,0,0,0,0,0
		c-0.101,0-0.2-0.02-0.294-0.06c-0.747-0.318-1.537-0.48-2.349-0.48c-3.312,0-6.005,2.691-6.007,5.999
		C1.5,17.666,1.163,18.002,0.75,18.002C0.75,18.002,0.75,18.002,0.75,18.002z"/>
	<path d="M17.4,24.006c-0.695,0-1.385-0.116-2.052-0.344c-1.419-0.486-2.592-1.442-3.348-2.686v1.525c0,0.414-0.336,0.75-0.75,0.75
		s-0.75-0.336-0.75-0.75v-3.75c0-0.414,0.336-0.75,0.75-0.75H15c0.414,0,0.75,0.336,0.75,0.75s-0.336,0.75-0.75,0.75h-2.067
		c0.524,1.283,1.579,2.289,2.9,2.741c0.509,0.174,1.036,0.262,1.566,0.262c0.735,0,1.448-0.167,2.117-0.495
		c1.157-0.567,2.023-1.551,2.44-2.769c0.104-0.303,0.389-0.508,0.709-0.508c0.083,0,0.166,0.014,0.245,0.041
		c0.188,0.064,0.341,0.199,0.429,0.379c0.088,0.18,0.101,0.384,0.036,0.573c-0.547,1.598-1.683,2.887-3.199,3.63
		C19.3,23.788,18.365,24.006,17.4,24.006z"/>
	<path d="M19.5,16.502c-0.414,0-0.75-0.336-0.75-0.75s0.336-0.75,0.75-0.75h2.066c-0.524-1.283-1.579-2.289-2.9-2.741
		c-0.505-0.172-1.028-0.26-1.557-0.26c-2.064,0-3.899,1.311-4.566,3.261c-0.104,0.304-0.389,0.508-0.709,0.508
		c-0.083,0-0.165-0.014-0.244-0.041c-0.188-0.064-0.341-0.199-0.43-0.379c-0.088-0.18-0.101-0.383-0.036-0.573
		c0.875-2.557,3.281-4.276,5.987-4.276c0.693,0,1.38,0.115,2.041,0.341c1.42,0.486,2.593,1.443,3.349,2.688v-1.527
		c0-0.414,0.336-0.75,0.75-0.75S24,11.589,24,12.002v3.75c0,0.414-0.336,0.75-0.75,0.75H19.5z"/>
</g>
</svg>
