<?xml version="1.0" encoding="utf-8"?>
<!-- Generator: Adobe Illustrator 22.1.0, SVG Export Plug-In . SVG Version: 6.00 Build 0)  -->
<svg version="1.1" id="Regular" xmlns="http://www.w3.org/2000/svg" xmlns:xlink="http://www.w3.org/1999/xlink" x="0px" y="0px"
	 viewBox="0 0 24 24" style="enable-background:new 0 0 24 24;" xml:space="preserve">
<title>single-woman-actions-view</title>
<g>
	<path d="M12.483,10.008c-0.264,0-0.503-0.134-0.641-0.359c-0.297-0.488-0.529-1.007-0.691-1.552
		C10.233,9.144,8.919,9.75,7.499,9.75c-1.419,0-2.734-0.606-3.652-1.654C3.685,8.641,3.454,9.16,3.157,9.648
		c-0.137,0.225-0.377,0.36-0.641,0.36c-0.137,0-0.272-0.038-0.39-0.109c-0.353-0.215-0.466-0.677-0.25-1.031
		C2.4,8.007,2.66,7.019,2.626,6.011l0-1.025c0-0.01,0.001-0.025,0.002-0.04C2.625,4.915,2.624,4.895,2.624,4.875
		C2.624,2.187,4.811,0,7.499,0s4.875,2.187,4.875,4.875c0,0.025-0.001,0.05-0.003,0.074c0,0,0.001,0.028,0.001,0.037v1
		c-0.034,1.029,0.225,2.021,0.75,2.881c0.215,0.353,0.104,0.815-0.25,1.031C12.755,9.97,12.62,10.008,12.483,10.008z M4.28,5.879
		C4.713,7.274,6.009,8.25,7.499,8.25c1.489,0,2.784-0.974,3.219-2.367C9.521,5.703,8.401,5.177,7.499,4.372
		C6.596,5.175,5.476,5.699,4.28,5.879z M7.5,2.555c0.218,0,0.425,0.095,0.568,0.26c0.721,0.836,1.692,1.383,2.768,1.568
		C10.595,2.759,9.181,1.5,7.499,1.5c-1.679,0-3.093,1.256-3.335,2.879C5.24,4.194,6.211,3.648,6.932,2.814
		C7.075,2.649,7.282,2.555,7.5,2.555C7.5,2.555,7.5,2.555,7.5,2.555z"/>
	<path d="M0.749,18c-0.2,0-0.389-0.078-0.53-0.22c-0.142-0.142-0.219-0.33-0.219-0.531c0.002-2.005,0.785-3.889,2.204-5.306
		C3.621,10.529,5.492,9.75,7.471,9.75l0.045,0c0.556,0,1.115,0.064,1.659,0.188C9.371,9.982,9.537,10.1,9.643,10.27
		c0.107,0.17,0.141,0.371,0.096,0.566c-0.078,0.344-0.378,0.584-0.73,0.584c0,0,0,0,0,0c-0.057,0-0.114-0.007-0.17-0.02
		c-0.434-0.099-0.881-0.149-1.327-0.15c-1.609,0-3.115,0.623-4.249,1.755c-1.136,1.134-1.762,2.642-1.764,4.246
		C1.499,17.664,1.163,18,0.749,18C0.749,18,0.749,18,0.749,18z"/>
	<path d="M23.249,24c-0.2,0-0.389-0.078-0.53-0.22l-3.293-3.293c-1.051,0.817-2.343,1.263-3.677,1.263c-3.308,0-6-2.692-6-6
		s2.692-6,6-6s6,2.692,6,6c0,1.333-0.446,2.626-1.263,3.677l3.293,3.293c0.292,0.292,0.292,0.768,0,1.061
		C23.638,23.922,23.45,24,23.249,24z M15.749,11.25c-2.481,0-4.5,2.019-4.5,4.5s2.019,4.5,4.5,4.5s4.5-2.019,4.5-4.5
		S18.231,11.25,15.749,11.25z"/>
</g>
</svg>
