<?xml version="1.0" encoding="utf-8"?>
<!-- Generator: Adobe Illustrator 22.1.0, SVG Export Plug-In . SVG Version: 6.00 Build 0)  -->
<svg version="1.1" id="Regular" xmlns="http://www.w3.org/2000/svg" xmlns:xlink="http://www.w3.org/1999/xlink" x="0px" y="0px"
	 viewBox="0 0 24 24" style="enable-background:new 0 0 24 24;" xml:space="preserve">
<title>single-woman-actions-share-2</title>
<g>
	<path d="M12.483,10.008c-0.264,0-0.503-0.134-0.641-0.359c-0.297-0.488-0.529-1.007-0.691-1.552C10.234,9.144,8.919,9.75,7.5,9.75
		c-1.419,0-2.734-0.606-3.652-1.654C3.685,8.641,3.455,9.16,3.158,9.648c-0.137,0.225-0.377,0.36-0.641,0.36
		c-0.137,0-0.272-0.038-0.39-0.109c-0.353-0.215-0.466-0.677-0.25-1.031c0.524-0.861,0.784-1.849,0.75-2.857l0-1.025
		c0-0.01,0.001-0.025,0.002-0.04C2.626,4.915,2.625,4.895,2.625,4.875C2.625,2.187,4.812,0,7.5,0s4.875,2.187,4.875,4.875
		c0,0.025-0.001,0.05-0.003,0.074c0,0,0.001,0.028,0.001,0.037v1c-0.034,1.029,0.225,2.021,0.75,2.881
		c0.215,0.353,0.104,0.815-0.25,1.031C12.755,9.97,12.621,10.008,12.483,10.008z M4.28,5.879C4.713,7.274,6.009,8.25,7.5,8.25
		c1.489,0,2.784-0.974,3.219-2.367C9.521,5.703,8.401,5.177,7.499,4.372C6.596,5.175,5.477,5.699,4.28,5.879z M7.5,2.555
		c0.218,0,0.425,0.095,0.568,0.26c0.721,0.836,1.692,1.383,2.768,1.568C10.596,2.759,9.181,1.5,7.5,1.5
		c-1.679,0-3.093,1.256-3.335,2.879C5.24,4.194,6.211,3.648,6.933,2.814C7.076,2.649,7.282,2.555,7.5,2.555
		C7.5,2.555,7.5,2.555,7.5,2.555z"/>
	<path d="M0.75,18C0.336,18,0,17.664,0,17.25c0-4.135,3.365-7.5,7.5-7.5c1.847,0,3.623,0.678,5,1.91
		c0.308,0.276,0.335,0.751,0.059,1.059c-0.142,0.159-0.346,0.25-0.559,0.25c-0.185,0-0.362-0.068-0.5-0.191
		c-1.102-0.985-2.522-1.528-4-1.528c-3.308,0-6,2.692-6,6C1.5,17.664,1.164,18,0.75,18z"/>
	<path d="M21,24c-1.654,0-3-1.346-3-3c0-0.125,0.009-0.253,0.026-0.382l-2.111-0.845C15.353,20.537,14.454,21,13.5,21
		c-1.654,0-3-1.346-3-3s1.346-3,3-3c0.793,0,1.544,0.311,2.103,0.863l2.52-1.512C18.041,14.076,18,13.791,18,13.5
		c0-1.654,1.346-3,3-3s3,1.346,3,3c0,1.654-1.346,3-3,3c-0.794,0-1.544-0.311-2.104-0.864l-2.52,1.511
		C16.458,17.424,16.5,17.709,16.5,18c0,0.125-0.009,0.253-0.026,0.382l2.111,0.845C19.147,18.463,20.046,18,21,18
		c1.654,0,3,1.346,3,3S22.654,24,21,24z M21,19.5c-0.615,0-1.161,0.371-1.392,0.944C19.536,20.623,19.5,20.81,19.5,21
		c0,0.827,0.673,1.5,1.5,1.5s1.5-0.673,1.5-1.5S21.827,19.5,21,19.5z M13.5,16.5c-0.827,0-1.5,0.673-1.5,1.5s0.673,1.5,1.5,1.5
		c0.615,0,1.161-0.371,1.392-0.944C14.964,18.377,15,18.19,15,18c0-0.253-0.066-0.505-0.191-0.729
		c-0.009-0.012-0.018-0.024-0.026-0.037c-0.006-0.01-0.015-0.028-0.023-0.043C14.481,16.758,14.011,16.5,13.5,16.5z M19.733,14.299
		C20.002,14.733,20.478,15,21,15c0.827,0,1.5-0.673,1.5-1.5S21.827,12,21,12s-1.5,0.673-1.5,1.5c0,0.259,0.069,0.516,0.2,0.743
		c0.006,0.009,0.013,0.018,0.017,0.026C19.722,14.278,19.728,14.289,19.733,14.299z"/>
</g>
</svg>
