<?xml version="1.0" encoding="utf-8"?>
<!-- Generator: Adobe Illustrator 22.1.0, SVG Export Plug-In . SVG Version: 6.00 Build 0)  -->
<svg version="1.1" id="Regular" xmlns="http://www.w3.org/2000/svg" xmlns:xlink="http://www.w3.org/1999/xlink" x="0px" y="0px"
	 viewBox="0 0 24 24" style="enable-background:new 0 0 24 24;" xml:space="preserve">
<title>single-woman-actions-shield</title>
<g>
	<path d="M12.483,10.008c-0.264,0-0.503-0.134-0.641-0.359c-0.297-0.488-0.529-1.007-0.691-1.552C10.234,9.144,8.919,9.75,7.5,9.75
		c-1.419,0-2.734-0.606-3.652-1.654C3.685,8.641,3.455,9.16,3.158,9.648c-0.137,0.225-0.377,0.36-0.641,0.36
		c-0.137,0-0.272-0.038-0.39-0.109c-0.353-0.215-0.466-0.677-0.25-1.031c0.524-0.861,0.784-1.849,0.75-2.857l0-1.025
		c0-0.01,0.001-0.025,0.002-0.04C2.626,4.915,2.625,4.895,2.625,4.875C2.625,2.187,4.812,0,7.5,0s4.875,2.187,4.875,4.875
		c0,0.025-0.001,0.05-0.003,0.074c0,0,0.001,0.028,0.001,0.037v1c-0.034,1.029,0.225,2.021,0.75,2.881
		c0.215,0.353,0.104,0.815-0.25,1.031C12.755,9.97,12.621,10.008,12.483,10.008z M4.28,5.879C4.713,7.274,6.009,8.25,7.5,8.25
		c1.489,0,2.784-0.974,3.219-2.367C9.522,5.703,8.401,5.177,7.499,4.372C6.596,5.175,5.477,5.699,4.28,5.879z M7.5,2.555
		c0.218,0,0.425,0.095,0.568,0.26c0.721,0.836,1.692,1.383,2.768,1.568C10.596,2.758,9.182,1.5,7.5,1.5
		c-1.679,0-3.093,1.256-3.335,2.879C5.24,4.194,6.211,3.648,6.933,2.814C7.076,2.649,7.282,2.555,7.5,2.555
		C7.5,2.555,7.5,2.555,7.5,2.555z"/>
	<path d="M0.75,18C0.336,18,0,17.664,0,17.25c0-4.135,3.365-7.5,7.5-7.5c0.309,0.013,0.588,0.041,0.868,0.085
		c0.198,0.031,0.372,0.138,0.489,0.3s0.165,0.36,0.134,0.558c-0.058,0.366-0.37,0.632-0.741,0.632c0,0,0,0,0,0
		c-0.038,0-0.077-0.003-0.116-0.009c-0.22-0.035-0.444-0.058-0.667-0.068C4.184,11.25,1.5,13.942,1.5,17.25
		C1.5,17.664,1.164,18,0.75,18z"/>
	<path d="M17.25,24c-0.056,0-0.111-0.006-0.165-0.018c-3.823-0.852-6.593-4.315-6.585-8.233V12.75c0-1.241,1.009-2.25,2.25-2.25h9
		c1.241,0,2.25,1.009,2.25,2.25v3c0.007,3.98-2.701,7.366-6.587,8.232C17.361,23.994,17.306,24,17.25,24z M12.75,12
		C12.336,12,12,12.336,12,12.75v3c-0.006,3.154,2.196,5.969,5.25,6.729c3.102-0.768,5.256-3.522,5.25-6.728V12.75
		c0-0.414-0.336-0.75-0.75-0.75H12.75z"/>
	<path d="M17.25,20.25c-0.414,0-0.75-0.336-0.75-0.75V18H15c-0.414,0-0.75-0.336-0.75-0.75S14.586,16.5,15,16.5h1.5V15
		c0-0.414,0.336-0.75,0.75-0.75S18,14.586,18,15v1.5h1.5c0.414,0,0.75,0.336,0.75,0.75S19.914,18,19.5,18H18v1.5
		C18,19.914,17.664,20.25,17.25,20.25z"/>
</g>
</svg>
