<?xml version="1.0" encoding="utf-8"?>
<!-- Generator: Adobe Illustrator 22.1.0, SVG Export Plug-In . SVG Version: 6.00 Build 0)  -->
<svg version="1.1" id="Regular" xmlns="http://www.w3.org/2000/svg" xmlns:xlink="http://www.w3.org/1999/xlink" x="0px" y="0px"
	 viewBox="0 0 24 24" style="enable-background:new 0 0 24 24;" xml:space="preserve">
<title>single-woman-actions-email</title>
<g>
	<path d="M12.483,10.009c-0.264,0-0.504-0.135-0.641-0.36c-0.297-0.488-0.528-1.007-0.691-1.552C10.234,9.144,8.919,9.75,7.5,9.75
		c-1.419,0-2.734-0.606-3.652-1.654c-0.162,0.545-0.393,1.065-0.69,1.553c-0.137,0.225-0.377,0.36-0.641,0.36
		c-0.137,0-0.272-0.038-0.39-0.109C1.774,9.685,1.661,9.222,1.876,8.869c0.524-0.862,0.784-1.85,0.75-2.858l0-1.025
		c0-0.01,0.001-0.025,0.002-0.04C2.626,4.915,2.625,4.895,2.625,4.875C2.625,2.187,4.812,0,7.5,0s4.875,2.187,4.875,4.875
		c0,0.025-0.001,0.05-0.003,0.074c0,0,0.001,0.028,0.001,0.037v1c-0.034,1.029,0.226,2.021,0.75,2.883
		c0.104,0.171,0.135,0.372,0.088,0.567c-0.047,0.195-0.167,0.359-0.339,0.464C12.756,9.971,12.621,10.009,12.483,10.009z
		 M4.281,5.883C4.716,7.276,6.011,8.25,7.5,8.25c1.489,0,2.784-0.974,3.219-2.367C9.522,5.702,8.402,5.177,7.5,4.372
		C6.598,5.176,5.478,5.702,4.281,5.883z M7.5,2.555c0.218,0,0.425,0.095,0.568,0.26C8.789,3.65,9.76,4.197,10.836,4.383
		C10.595,2.758,9.181,1.5,7.5,1.5c-1.681,0-3.095,1.258-3.336,2.883C5.24,4.197,6.211,3.65,6.933,2.815
		C7.075,2.65,7.282,2.555,7.5,2.555z"/>
	<path d="M0.75,18C0.336,18,0,17.663,0,17.25c0.003-4.134,3.369-7.498,7.503-7.498c1.02,0.001,2.008,0.203,2.941,0.6
		c0.184,0.078,0.327,0.224,0.402,0.41c0.075,0.186,0.073,0.39-0.006,0.574c-0.118,0.277-0.388,0.456-0.69,0.456c0,0,0,0,0,0
		c-0.101,0-0.2-0.02-0.294-0.06c-0.747-0.318-1.537-0.48-2.349-0.48c-1.606,0-3.112,0.623-4.246,1.755
		c-1.135,1.133-1.76,2.64-1.761,4.243C1.5,17.664,1.163,18,0.75,18C0.75,18,0.75,18,0.75,18z"/>
	<path d="M12.75,24c-1.241,0-2.25-1.009-2.25-2.25v-6c0-1.241,1.009-2.25,2.25-2.25h9c1.241,0,2.25,1.009,2.25,2.25v6
		c0,1.241-1.009,2.25-2.25,2.25H12.75z M12,21.75c0,0.414,0.336,0.75,0.75,0.75h9c0.414,0,0.75-0.336,0.75-0.75v-4.647l-4.058,2.534
		c-0.356,0.222-0.768,0.34-1.192,0.34s-0.836-0.117-1.192-0.34L12,17.103V21.75z M16.853,18.364
		c0.118,0.074,0.255,0.113,0.397,0.113c0.142,0,0.28-0.039,0.398-0.113l4.761-2.973C22.281,15.155,22.031,15,21.75,15h-9
		c-0.281,0-0.531,0.155-0.659,0.391L16.853,18.364z"/>
</g>
</svg>
