<?xml version="1.0" encoding="utf-8"?>
<!-- Generator: Adobe Illustrator 22.1.0, SVG Export Plug-In . SVG Version: 6.00 Build 0)  -->
<svg version="1.1" id="Regular" xmlns="http://www.w3.org/2000/svg" xmlns:xlink="http://www.w3.org/1999/xlink" x="0px" y="0px"
	 viewBox="0 0 24 24" style="enable-background:new 0 0 24 24;" xml:space="preserve">
<title>single-woman-actions-sync</title>
<g>
	<path d="M0.75,17.999c-0.413,0-0.75-0.337-0.75-0.75C0.003,13.114,3.369,9.75,7.503,9.75c1.02,0.001,2.007,0.203,2.941,0.6
		c0.38,0.162,0.558,0.603,0.396,0.984c-0.118,0.277-0.388,0.456-0.69,0.456l0,0c-0.102,0-0.201-0.02-0.294-0.06
		c-0.747-0.318-1.537-0.48-2.349-0.48c-3.312,0-6.005,2.691-6.007,5.999C1.5,17.663,1.163,17.999,0.75,17.999
		C0.75,17.999,0.75,17.999,0.75,17.999z"/>
	<path d="M12.483,10.007c-0.264,0-0.503-0.134-0.641-0.359c-0.297-0.488-0.529-1.007-0.691-1.552
		C10.234,9.143,8.919,9.749,7.5,9.749c-1.419,0-2.734-0.606-3.652-1.654c-0.162,0.544-0.393,1.064-0.69,1.552
		c-0.137,0.225-0.377,0.36-0.641,0.36c-0.137,0-0.272-0.038-0.39-0.109C1.774,9.682,1.661,9.22,1.876,8.867
		C2.401,8.006,2.66,7.018,2.626,6.01l0-1.025c0-0.01,0.001-0.025,0.002-0.04C2.626,4.914,2.625,4.894,2.625,4.874
		c0-2.688,2.187-4.875,4.875-4.875s4.875,2.187,4.875,4.875c0,0.025-0.001,0.049-0.003,0.074c0,0,0.001,0.028,0.001,0.037v1
		c-0.034,1.029,0.225,2.021,0.75,2.881c0.215,0.353,0.104,0.815-0.25,1.031C12.755,9.969,12.621,10.007,12.483,10.007z M4.28,5.878
		C4.714,7.273,6.009,8.249,7.5,8.249c1.489,0,2.784-0.974,3.219-2.366C9.521,5.701,8.401,5.176,7.499,4.37
		C6.596,5.174,5.476,5.698,4.28,5.878z M7.5,2.554c0.218,0,0.425,0.095,0.568,0.26c0.721,0.836,1.692,1.383,2.768,1.568
		C10.596,2.757,9.182,1.499,7.5,1.499c-1.679,0-3.093,1.256-3.335,2.879C5.24,4.192,6.211,3.647,6.933,2.813
		C7.076,2.648,7.282,2.554,7.5,2.554C7.5,2.554,7.5,2.554,7.5,2.554z"/>
	<path d="M17.251,23.997c-3.08,0-5.768-2.083-6.537-5.066c-0.929-3.604,1.248-7.292,4.852-8.221
		c0.551-0.142,1.117-0.214,1.683-0.214c2.065,0,3.984,0.937,5.251,2.507v-1.754c0-0.414,0.336-0.75,0.75-0.75S24,10.835,24,11.249
		v4.5c0,0.414-0.336,0.75-0.75,0.75H19.5c-0.414,0-0.75-0.336-0.75-0.75s0.336-0.75,0.75-0.75h2.494
		c-0.859-1.816-2.703-3.004-4.744-3.004c-0.44,0-0.88,0.056-1.31,0.167c-1.356,0.349-2.495,1.208-3.209,2.417
		c-0.714,1.209-0.914,2.622-0.565,3.977c0.598,2.32,2.689,3.94,5.085,3.94c0,0,0,0,0,0c0.439,0,0.88-0.056,1.309-0.167
		c1.095-0.282,2.086-0.924,2.792-1.807c0.143-0.179,0.357-0.282,0.586-0.282c0.169,0,0.335,0.058,0.468,0.163
		c0.157,0.125,0.256,0.304,0.278,0.503c0.022,0.199-0.034,0.395-0.159,0.552c-0.907,1.135-2.182,1.961-3.589,2.323
		C18.384,23.925,17.817,23.997,17.251,23.997L17.251,23.997z"/>
</g>
</svg>
