<svg xmlns="http://www.w3.org/2000/svg" viewBox="0 0 24 24"><defs><style>.a{fill:none;stroke:currentColor;stroke-linecap:round;stroke-linejoin:round;stroke-width:1.5px;}</style></defs><title>battery-charge</title><path class="a" d="M6.75,3H2.25A1.5,1.5,0,0,0,.75,4.5v9A1.5,1.5,0,0,0,2.25,15h4.5"/><path class="a" d="M15.75,3h3a1.5,1.5,0,0,1,1.5,1.5V6h1.5a1.5,1.5,0,0,1,1.5,1.5v3a1.5,1.5,0,0,1-1.5,1.5h-1.5v1.5a1.5,1.5,0,0,1-1.5,1.5h-3"/><path class="a" d="M11.25,13.5h0a3,3,0,0,1-3-3V9a1.5,1.5,0,0,1,1.5-1.5h3A1.5,1.5,0,0,1,14.25,9v1.5A3,3,0,0,1,11.25,13.5Z"/><line class="a" x1="9.75" y1="7.5" x2="9.75" y2="4.5"/><line class="a" x1="12.75" y1="7.5" x2="12.75" y2="4.5"/><line class="a" x1="11.25" y1="13.5" x2="11.25" y2="21"/></svg>