<svg xmlns="http://www.w3.org/2000/svg" viewBox="0 0 24 24"><defs><style>.a{fill:none;stroke:currentColor;stroke-linecap:round;stroke-linejoin:round;stroke-width:1.5px;}</style></defs><title>wall-socket-1</title><path class="a" d="M14.244,17.25h-4.5V15a2.25,2.25,0,0,1,2.25-2.25h0A2.25,2.25,0,0,1,14.244,15Z"/><line class="a" x1="15.744" y1="7.5" x2="15.744" y2="10.5"/><line class="a" x1="8.244" y1="7.5" x2="8.244" y2="10.5"/><path class="a" d="M1.345,16.215A5.665,5.665,0,0,0,6.762,20.25H17.226a5.668,5.668,0,0,0,5.416-4.035,15.215,15.215,0,0,0,0-8.43A5.664,5.664,0,0,0,17.226,3.75H6.762A5.668,5.668,0,0,0,1.345,7.785,15.233,15.233,0,0,0,1.345,16.215Z"/></svg>