<svg id="Bold" xmlns="http://www.w3.org/2000/svg" viewBox="0 0 24 24"><title>multiple-actions-share-2</title><path d="M18.26,10.744a.25.25,0,0,0,.034-.314C17.8,9.664,16.652,9.2,14.471,8.4l-.485-.172a1.8,1.8,0,0,1-.056-1.172,4.647,4.647,0,0,0,1.216-3.569A3.219,3.219,0,0,0,12,0a2.986,2.986,0,0,0-1.341.314.25.25,0,0,0-.1.363A5,5,0,0,1,11.4,3.485a6.259,6.259,0,0,1-.922,3.624.254.254,0,0,0-.029.216.249.249,0,0,0,.151.156c1.917.716,3.3,1.328,3.9,2.537a8.734,8.734,0,0,1,.75,3.482,1.487,1.487,0,0,1-.025.269.2.2,0,0,0,.043.161.2.2,0,0,0,.151.07.24.24,0,0,0,.128-.036l1.411-.846a.252.252,0,0,0,.117-.167A4.232,4.232,0,0,1,18.26,10.744Z"/><path d="M14,13.5a7.522,7.522,0,0,0-.618-2.923c-.454-.907-1.9-1.44-3.911-2.179l-.485-.172A1.8,1.8,0,0,1,8.93,7.054a4.647,4.647,0,0,0,1.216-3.569A3.219,3.219,0,0,0,7,0,3.219,3.219,0,0,0,3.855,3.485,4.609,4.609,0,0,0,5.047,7.023a1.877,1.877,0,0,1,0,1.185L4.53,8.4C2.523,9.137,1.073,9.67.619,10.577A7.531,7.531,0,0,0,0,13.5a.5.5,0,0,0,.5.5h13A.5.5,0,0,0,14,13.5Z"/><path d="M24,21.25a2.742,2.742,0,0,0-4.651-1.977.218.218,0,0,1-.233.046l-2.465-.985a.25.25,0,0,1-.156-.218c0-.044-.008-.095-.017-.161a.25.25,0,0,1,.119-.247L19.436,16a.251.251,0,0,1,.271.009,2.709,2.709,0,0,0,1.543.487,2.75,2.75,0,1,0-2.75-2.75,2.214,2.214,0,0,0,.021.295.25.25,0,0,1-.119.247L15.563,16a.251.251,0,0,1-.271-.009A2.708,2.708,0,0,0,13.75,15.5a2.75,2.75,0,1,0,1.887,4.739.251.251,0,0,1,.265-.051l2.445.978a.249.249,0,0,1,.157.223A2.75,2.75,0,0,0,24,21.25Z"/></svg>