<svg id="Bold" xmlns="http://www.w3.org/2000/svg" viewBox="0 0 24 24"><title>multiple-actions-warning</title><path d="M17.151,10.021a.25.25,0,0,0,.092-.466A20.736,20.736,0,0,0,14.471,8.4l-.485-.172a1.8,1.8,0,0,1-.056-1.172,4.647,4.647,0,0,0,1.216-3.569A3.219,3.219,0,0,0,12,0a2.991,2.991,0,0,0-1.342.314.25.25,0,0,0-.1.363A4.989,4.989,0,0,1,11.4,3.485a6.259,6.259,0,0,1-.922,3.624.249.249,0,0,0,.122.372c1.917.716,3.3,1.328,3.9,2.537a5.908,5.908,0,0,1,.358.916.249.249,0,0,0,.188.172.253.253,0,0,0,.241-.082A2.911,2.911,0,0,1,17.151,10.021Z"/><path d="M13.382,10.577c-.454-.907-1.9-1.44-3.911-2.179l-.485-.172A1.8,1.8,0,0,1,8.93,7.054a4.647,4.647,0,0,0,1.216-3.569A3.219,3.219,0,0,0,7,0,3.219,3.219,0,0,0,3.855,3.485,4.609,4.609,0,0,0,5.047,7.023a1.884,1.884,0,0,1,0,1.185L4.53,8.4C2.523,9.137,1.073,9.67.619,10.577A7.522,7.522,0,0,0,0,13.5a.5.5,0,0,0,.5.5h13a.2.2,0,0,0,.173-.105l.289-.55a.251.251,0,0,0,.028-.129A7.124,7.124,0,0,0,13.382,10.577Z"/><path d="M18.781,12.271a1.449,1.449,0,0,0-2.561,0l-5.055,9.634a1.426,1.426,0,0,0,.047,1.408A1.454,1.454,0,0,0,12.445,24H22.556a1.456,1.456,0,0,0,1.233-.686,1.428,1.428,0,0,0,.047-1.409ZM17.5,22.25a1,1,0,1,1,1-1A1,1,0,0,1,17.5,22.25Zm0-7a.75.75,0,0,1,.75.75v3a.75.75,0,0,1-1.5,0V16A.75.75,0,0,1,17.5,15.25Z"/></svg>