<svg id="Bold" xmlns="http://www.w3.org/2000/svg" viewBox="0 0 24 24"><title>multiple-actions-view</title><path d="M16.5,9.5a.148.148,0,0,0,.06-.283c-.59-.265-1.294-.526-2.089-.819l-.485-.172a1.8,1.8,0,0,1-.056-1.172,4.647,4.647,0,0,0,1.216-3.569A3.219,3.219,0,0,0,12,0a2.986,2.986,0,0,0-1.341.314.25.25,0,0,0-.1.363A5,5,0,0,1,11.4,3.485a6.265,6.265,0,0,1-.922,3.625.249.249,0,0,0,.122.371c1.723.645,3.007,1.21,3.689,2.2a.249.249,0,0,0,.275.1A6.98,6.98,0,0,1,16.5,9.5Z"/><path d="M12.944,10.474a.246.246,0,0,0,.121-.187.251.251,0,0,0-.077-.21A11.373,11.373,0,0,0,9.471,8.4l-.485-.172A1.8,1.8,0,0,1,8.93,7.054a4.647,4.647,0,0,0,1.216-3.569A3.219,3.219,0,0,0,7,0,3.219,3.219,0,0,0,3.855,3.485,4.609,4.609,0,0,0,5.047,7.023a1.877,1.877,0,0,1,0,1.185L4.53,8.4C2.523,9.137,1.073,9.67.619,10.577A7.531,7.531,0,0,0,0,13.5a.5.5,0,0,0,.5.5H9.8a.251.251,0,0,0,.232-.155A7.04,7.04,0,0,1,12.944,10.474Z"/><path d="M21.172,19.758a.251.251,0,0,1-.033-.311,5.511,5.511,0,1,0-1.692,1.692.251.251,0,0,1,.312.034l2.533,2.534a1,1,0,0,0,1.415-1.414ZM13,16.5A3.5,3.5,0,1,1,16.5,20,3.5,3.5,0,0,1,13,16.5Z"/></svg>