<svg id="Bold" xmlns="http://www.w3.org/2000/svg" viewBox="0 0 24 24"><title>multiple-actions-alarm</title><path d="M14.471,8.4l-.486-.172a1.8,1.8,0,0,1-.055-1.172,4.651,4.651,0,0,0,1.215-3.569A3.219,3.219,0,0,0,12,0a2.991,2.991,0,0,0-1.342.314.248.248,0,0,0-.1.363A5,5,0,0,1,11.4,3.485a6.267,6.267,0,0,1-.921,3.624.25.25,0,0,0,.121.372c1.918.716,3.3,1.328,3.9,2.537.033.067.065.135.094.2a.251.251,0,0,0,.153.139.248.248,0,0,0,.2-.023,5.969,5.969,0,0,1,1.572-.648.25.25,0,0,0,.041-.47C15.973,8.953,15.268,8.692,14.471,8.4Z"/><path d="M13.579,11.454a.249.249,0,0,0,.054-.246,4.457,4.457,0,0,0-.251-.631c-.454-.907-1.9-1.44-3.911-2.179l-.486-.172A1.8,1.8,0,0,1,8.93,7.054a4.651,4.651,0,0,0,1.215-3.569A3.219,3.219,0,0,0,7,0,3.22,3.22,0,0,0,3.854,3.485,4.605,4.605,0,0,0,5.047,7.023a1.877,1.877,0,0,1,0,1.185l-.515.19C2.522,9.137,1.072,9.67.618,10.577A7.542,7.542,0,0,0,0,13.5a.5.5,0,0,0,.5.5H12.007a.25.25,0,0,0,.24-.18A6,6,0,0,1,13.579,11.454Z"/><path d="M23.658,19.882A4.08,4.08,0,0,1,22.5,17.167V15.5a4.5,4.5,0,0,0-9,0v1.667a4.08,4.08,0,0,1-1.158,2.715L12.1,20.2a.5.5,0,0,0,.4.8h11a.5.5,0,0,0,.4-.8Z"/><path d="M19.682,22.194a.5.5,0,0,0-.4-.194H16.714a.5.5,0,0,0-.4.194.5.5,0,0,0-.089.431,1.827,1.827,0,0,0,3.541,0A.5.5,0,0,0,19.682,22.194Z"/></svg>