<svg id="Bold" xmlns="http://www.w3.org/2000/svg" viewBox="0 0 24 24"><title>multiple-actions-up-down</title><path d="M14.471,8.523l-.485-.172a1.8,1.8,0,0,1-.056-1.172A4.647,4.647,0,0,0,15.146,3.61,3.219,3.219,0,0,0,12,.125a2.987,2.987,0,0,0-1.342.314.25.25,0,0,0-.1.363A5,5,0,0,1,11.4,3.61a6.259,6.259,0,0,1-.922,3.624.254.254,0,0,0-.029.216.249.249,0,0,0,.151.156c1.917.716,3.3,1.328,3.9,2.537.069.139.13.281.186.424a.244.244,0,0,0,.134.139.249.249,0,0,0,.193,0,7.913,7.913,0,0,1,2.178-.539.25.25,0,0,0,.1-.466A20.415,20.415,0,0,0,14.471,8.523Z"/><path d="M13.5,11.518a.251.251,0,0,0,.1-.287,4.286,4.286,0,0,0-.217-.529c-.454-.907-1.9-1.44-3.911-2.179l-.485-.172A1.8,1.8,0,0,1,8.93,7.179,4.647,4.647,0,0,0,10.146,3.61,3.219,3.219,0,0,0,7,.125,3.219,3.219,0,0,0,3.855,3.61,4.609,4.609,0,0,0,5.047,7.148a1.877,1.877,0,0,1,0,1.185l-.514.19C2.523,9.262,1.073,9.8.619,10.7A7.522,7.522,0,0,0,0,13.625a.5.5,0,0,0,.5.5H10.94A.252.252,0,0,0,11.154,14,8.039,8.039,0,0,1,13.5,11.518Z"/><path d="M17.944,19.4a.5.5,0,0,0-.444-.271h-1a.249.249,0,0,1-.25-.25v-5.25a1.25,1.25,0,0,0-2.5,0v5.25a.25.25,0,0,1-.25.25h-1a.5.5,0,0,0-.408.791l2.5,3.5a.5.5,0,0,0,.815,0c1.351-1.892.782-1.1,2.5-3.5A.5.5,0,0,0,17.944,19.4Z"/><path d="M22.25,17.375a.249.249,0,0,1,.25-.25h1a.5.5,0,0,0,.407-.791l-2.5-3.5a.52.52,0,0,0-.815,0c-1.351,1.892-.782,1.1-2.5,3.5a.5.5,0,0,0,.408.791h1a.25.25,0,0,1,.25.25v5.25a1.25,1.25,0,0,0,2.5,0Z"/></svg>