<svg id="Bold" xmlns="http://www.w3.org/2000/svg" viewBox="0 0 24 24"><title>multiple-actions-star</title><path d="M15.947,9.4a.251.251,0,0,0-.026-.453c-.441-.175-.927-.353-1.45-.546l-.486-.173a1.8,1.8,0,0,1-.055-1.172,4.647,4.647,0,0,0,1.215-3.568A3.219,3.219,0,0,0,12,0a2.994,2.994,0,0,0-1.342.314.25.25,0,0,0-.1.363A5,5,0,0,1,11.4,3.485a6.271,6.271,0,0,1-.922,3.624.248.248,0,0,0-.029.215.251.251,0,0,0,.15.157c1.918.716,3.3,1.327,3.9,2.536q.03.06.057.12a.25.25,0,0,0,.419.055A3.3,3.3,0,0,1,15.947,9.4Z"/><path d="M12.259,13h1.187a.248.248,0,0,0,.229-.151l.194-.448a.246.246,0,0,0,.017-.139,5.945,5.945,0,0,0-.5-1.684c-.454-.908-1.9-1.441-3.911-2.179l-.485-.173A1.791,1.791,0,0,1,8.93,7.053a4.643,4.643,0,0,0,1.216-3.568A3.22,3.22,0,0,0,7,0,3.219,3.219,0,0,0,3.855,3.485,4.609,4.609,0,0,0,5.047,7.023a1.877,1.877,0,0,1,0,1.185L4.53,8.4C2.523,9.136,1.073,9.669.619,10.577A7.538,7.538,0,0,0,0,13.5a.5.5,0,0,0,.5.5H9.8a.248.248,0,0,0,.175-.071A3.26,3.26,0,0,1,12.259,13Z"/><path d="M20.736,23.828a1.277,1.277,0,0,0,1.506-.166,1.254,1.254,0,0,0,.315-1.45L21.333,19.4a.251.251,0,0,1,.063-.286l2.213-1.971a1.264,1.264,0,0,0,.3-1.378A1.234,1.234,0,0,0,22.74,15h-2.5a.249.249,0,0,1-.229-.151l-1.344-3.116-.013-.028a1.293,1.293,0,0,0-2.317.028L14.99,14.848a.25.25,0,0,1-.23.151h-2.5a1.229,1.229,0,0,0-1.166.76,1.271,1.271,0,0,0,.319,1.4l2.194,1.955a.249.249,0,0,1,.063.286l-1.223,2.815a1.255,1.255,0,0,0,.315,1.451,1.278,1.278,0,0,0,1.506.166l3.111-1.752a.249.249,0,0,1,.245,0Z"/></svg>