<svg id="Bold" xmlns="http://www.w3.org/2000/svg" viewBox="0 0 24 24"><title>multiple-actions-question</title><path d="M14.471,8.4l-.486-.172a1.8,1.8,0,0,1-.055-1.172,4.647,4.647,0,0,0,1.216-3.569A3.22,3.22,0,0,0,12,0a2.989,2.989,0,0,0-1.035.182.5.5,0,0,0-.258.725A5.029,5.029,0,0,1,11.4,3.485a6.491,6.491,0,0,1-.772,3.382.5.5,0,0,0,.258.72,6.88,6.88,0,0,1,3.45,2.153.5.5,0,0,0,.578.2c.2-.067.4-.127.6-.179a.5.5,0,0,0,.056-.951C15.223,8.676,14.858,8.541,14.471,8.4Z"/><path d="M12.989,10.908a.5.5,0,0,0,.079-.758c-.58-.609-1.675-1.044-3.6-1.752l-.486-.172A1.8,1.8,0,0,1,8.93,7.054a4.647,4.647,0,0,0,1.216-3.569A3.22,3.22,0,0,0,7,0,3.22,3.22,0,0,0,3.854,3.485,4.605,4.605,0,0,0,5.047,7.023a1.877,1.877,0,0,1,0,1.185l-.515.19C2.522,9.137,1.072,9.67.618,10.577A7.542,7.542,0,0,0,0,13.5a.5.5,0,0,0,.5.5h9.511a.5.5,0,0,0,.442-.264A8.034,8.034,0,0,1,12.989,10.908Z"/><path d="M17.5,11A6.5,6.5,0,1,0,24,17.5,6.508,6.508,0,0,0,17.5,11Zm0,2.25a2.625,2.625,0,0,1,.894,5.093.22.22,0,0,0-.144.206v.2a.75.75,0,0,1-1.5,0V18.2a1.256,1.256,0,0,1,.988-1.221,1.125,1.125,0,1,0-1.363-1.1.75.75,0,0,1-1.5,0A2.629,2.629,0,0,1,17.5,13.25Zm0,7.25a1,1,0,1,1-1,1A1,1,0,0,1,17.5,20.5Z"/></svg>