<svg id="Bold" xmlns="http://www.w3.org/2000/svg" viewBox="0 0 24 24"><title>multiple-users-add</title><path d="M14.471,8.4l-.4-.141a.25.25,0,0,1-.155-.162,2.28,2.28,0,0,1-.013-.975.246.246,0,0,1,.055-.1,4.652,4.652,0,0,0,1.186-3.535A3.22,3.22,0,0,0,12,0a2.994,2.994,0,0,0-1.342.314.25.25,0,0,0-.1.363A5,5,0,0,1,11.4,3.485a6.266,6.266,0,0,1-.922,3.624.25.25,0,0,0,.121.372c3,1.121,3.653,2,3.84,2.388a.25.25,0,0,0,.311.126A7.866,7.866,0,0,1,16.287,9.6a.25.25,0,0,0,.061-.477C15.8,8.89,15.173,8.657,14.471,8.4Z"/><path d="M13.22,10.774a.248.248,0,0,0,.1-.164.251.251,0,0,0-.045-.19c-.886-1.2-4.463-2.254-4.207-2.163A.25.25,0,0,1,8.918,8.1,2.28,2.28,0,0,1,8.9,7.12a.246.246,0,0,1,.055-.1,4.652,4.652,0,0,0,1.186-3.535A3.22,3.22,0,0,0,7,0,3.22,3.22,0,0,0,3.854,3.485,4.619,4.619,0,0,0,5.021,7a.247.247,0,0,1,.05.084,2.329,2.329,0,0,1,.032.987.249.249,0,0,1-.157.179L4.529,8.4C2.522,9.137,1.072,9.67.618,10.577A7.542,7.542,0,0,0,0,13.5a.5.5,0,0,0,.5.5h9.663a.252.252,0,0,0,.223-.136A7.989,7.989,0,0,1,13.22,10.774Z"/><path d="M17.5,11A6.5,6.5,0,1,0,24,17.5,6.508,6.508,0,0,0,17.5,11ZM22,17.5a1,1,0,0,1-1,1H18.75a.25.25,0,0,0-.25.25V21a1,1,0,0,1-2,0V18.75a.25.25,0,0,0-.25-.25H14a1,1,0,0,1,0-2h2.25a.25.25,0,0,0,.25-.25V14a1,1,0,0,1,2,0v2.25a.25.25,0,0,0,.25.25H21A1,1,0,0,1,22,17.5Z"/></svg>