<svg id="Bold" xmlns="http://www.w3.org/2000/svg" viewBox="0 0 24 24"><title>multiple-actions-video</title><path d="M18.75,12.5a.149.149,0,0,0,.114-.053.151.151,0,0,0,.035-.121,6.07,6.07,0,0,0-.517-1.749c-.454-.907-1.9-1.44-3.911-2.179l-.485-.172a1.8,1.8,0,0,1-.056-1.172,4.647,4.647,0,0,0,1.216-3.569A3.219,3.219,0,0,0,12,0a2.986,2.986,0,0,0-1.341.314.25.25,0,0,0-.1.363A5,5,0,0,1,11.4,3.485a6.259,6.259,0,0,1-.922,3.624.254.254,0,0,0-.029.216.249.249,0,0,0,.151.156c1.917.716,3.3,1.328,3.9,2.537a7.459,7.459,0,0,1,.654,2.267.25.25,0,0,0,.248.215Z"/><path d="M12.5,12.5h1.133a.251.251,0,0,0,.247-.292,5.9,5.9,0,0,0-.5-1.631c-.454-.907-1.9-1.44-3.911-2.179l-.485-.172A1.8,1.8,0,0,1,8.93,7.054a4.647,4.647,0,0,0,1.216-3.569A3.219,3.219,0,0,0,7,0,3.219,3.219,0,0,0,3.855,3.485,4.609,4.609,0,0,0,5.047,7.023a1.877,1.877,0,0,1,0,1.185L4.53,8.4C2.523,9.137,1.073,9.67.619,10.577A7.531,7.531,0,0,0,0,13.5a.5.5,0,0,0,.5.5H9.777a.249.249,0,0,0,.21-.115A2.986,2.986,0,0,1,12.5,12.5Z"/><path d="M23.371,15.517l-2.807.748a.249.249,0,0,1-.314-.241V15.5a1.5,1.5,0,0,0-1.5-1.5H12.5A1.5,1.5,0,0,0,11,15.5v7A1.5,1.5,0,0,0,12.5,24h6.25a1.5,1.5,0,0,0,1.5-1.5v-.524a.249.249,0,0,1,.314-.241l2.807.748A.5.5,0,0,0,24,22V16a.5.5,0,0,0-.629-.483Z"/></svg>