<svg id="Bold" xmlns="http://www.w3.org/2000/svg" viewBox="0 0 24 24"><title>multiple-actions-key</title><path d="M16.33,13.655a.253.253,0,0,0,.207-.066l2.077-1.962a.249.249,0,0,0,.069-.252,4.855,4.855,0,0,0-.308-.8c-.454-.906-1.9-1.439-3.91-2.177l-.485-.173a1.8,1.8,0,0,1-.055-1.172A4.646,4.646,0,0,0,15.14,3.488,3.218,3.218,0,0,0,12,0a2.991,2.991,0,0,0-1.342.314.25.25,0,0,0-.1.363,5,5,0,0,1,.833,2.807,6.268,6.268,0,0,1-.921,3.623.248.248,0,0,0-.029.215.254.254,0,0,0,.15.157c1.917.715,3.3,1.327,3.9,2.536a8.185,8.185,0,0,1,.737,3.337.243.243,0,0,0,.075.176.245.245,0,0,0,.177.072A5.719,5.719,0,0,1,16.33,13.655Z"/><path d="M13.72,13.848A.359.359,0,0,0,14,13.5a7.538,7.538,0,0,0-.618-2.922c-.454-.906-1.9-1.439-3.91-2.177l-.485-.173a1.8,1.8,0,0,1-.056-1.172,4.642,4.642,0,0,0,1.216-3.567A3.218,3.218,0,0,0,7,0,3.218,3.218,0,0,0,3.853,3.488,4.608,4.608,0,0,0,5.045,7.025a1.877,1.877,0,0,1,0,1.185l-.514.19c-2.006.738-3.456,1.271-3.91,2.177A7.538,7.538,0,0,0,0,13.5a.5.5,0,0,0,.5.5H12.459A5.363,5.363,0,0,0,13.72,13.848Z"/><path d="M24,11.63a.5.5,0,0,0-.5-.5H21.522a.5.5,0,0,0-.343.137l-4.187,3.955a.249.249,0,0,1-.244.058,4.454,4.454,0,1,0-1.792,8.687,4.355,4.355,0,0,0,.509.029,4.452,4.452,0,0,0,4.259-5.729.252.252,0,0,1,.063-.249l4.067-4.056A.505.505,0,0,0,24,13.608Zm-7.162,8.986h0a1.736,1.736,0,0,1-2.455-2.455,1.778,1.778,0,0,1,2.455,0,1.736,1.736,0,0,1,0,2.454Z"/></svg>