<svg xmlns="http://www.w3.org/2000/svg" viewBox="0 0 24 24"><title>mailbox-house</title><path d="M10.715,5a.5.5,0,0,0,.416-.223L14.057.389A.25.25,0,0,0,13.849,0H5.25A1.525,1.525,0,0,0,4.1.439L.4,4.146A.5.5,0,0,0,.75,5Z"/><path d="M12.75,4.977a.25.25,0,0,0-.458-.139l-.329.494A1.5,1.5,0,0,1,10.715,6H1.5a.25.25,0,0,0-.25.25V10.5A1.5,1.5,0,0,0,2.75,12H9.5a.25.25,0,0,1,.25.25V23.5a.5.5,0,0,0,.5.5h2a.5.5,0,0,0,.5-.5Z"/><path d="M23.65,4.2,20.95.6a1.506,1.506,0,0,0-1.2-.6h-4.1a.253.253,0,0,0-.208.111L13.792,2.588a.255.255,0,0,0-.042.139V11.75A.25.25,0,0,0,14,12h5.75a1.5,1.5,0,0,0,1.5-1.5V3.417a.25.25,0,0,1,.45-.15L22.85,4.8a.5.5,0,1,0,.8-.6Zm-7.4-.45h3a.75.75,0,0,1,0,1.5h-3a.75.75,0,0,1,0-1.5Z"/></svg>