<svg xmlns="http://www.w3.org/2000/svg" viewBox="0 0 24 24"><defs><style>.a{fill:none;stroke:currentColor;stroke-linecap:round;stroke-linejoin:round;}</style></defs><title>cd-player</title><line class="a" x1="20.5" y1="22.5" x2="20.5" y2="23.5"/><line class="a" x1="3.5" y1="22.5" x2="3.5" y2="23.5"/><rect class="a" x="3.5" y="17.491" width="11" height="3.009" rx="0.5" ry="0.5"/><circle class="a" cx="10.5" cy="9.5" r="1"/><rect class="a" x="0.5" y="15.5" width="23" height="7" rx="2" ry="2"/><circle class="a" cx="10.5" cy="9.5" r="3"/><path class="a" d="M20.75,18.25a.25.25,0,1,1-.25.25.25.25,0,0,1,.25-.25"/><path class="a" d="M17.75,18.25a.25.25,0,1,1-.25.25.25.25,0,0,1,.25-.25"/><circle class="a" cx="17.25" cy="6.863" r="1.25"/><circle class="a" cx="22.25" cy="5.363" r="1.25"/><path class="a" d="M18.5,6.863V2.333a1,1,0,0,1,.684-.948l3-.834A1,1,0,0,1,23.5,1.5V5.363"/><path class="a" d="M18.553,13.5A8.97,8.97,0,0,0,19.47,10"/><path class="a" d="M16.5,2.805A8.987,8.987,0,0,0,2.447,13.5"/></svg>