<svg xmlns="http://www.w3.org/2000/svg" viewBox="0 0 24 24"><defs><style>.a{fill:none;stroke:currentColor;stroke-linecap:round;stroke-linejoin:round;}</style></defs><title>cd-playing</title><path class="a" d="M12,11.75a.25.25,0,1,1-.25.25.25.25,0,0,1,.25-.25"/><circle class="a" cx="12" cy="12" r="11.5"/><circle class="a" cx="12" cy="12" r="3.5"/><path class="a" d="M3.868,3.868A11.467,11.467,0,0,0,1.489,7.356l7.317,3.233a3.38,3.38,0,0,1,1.783-1.783L7.356,1.489A11.467,11.467,0,0,0,3.868,3.868Z"/><path class="a" d="M20.132,20.132a11.467,11.467,0,0,0,2.379-3.488l-7.317-3.233a3.38,3.38,0,0,1-1.783,1.783l3.233,7.317A11.467,11.467,0,0,0,20.132,20.132Z"/></svg>