<svg xmlns="http://www.w3.org/2000/svg" viewBox="0 0 24 24"><defs><style>.a{fill:none;stroke:currentColor;stroke-linecap:round;stroke-linejoin:round;}</style></defs><title>browser-com</title><rect class="a" x="0.5" y="3" width="23" height="18" rx="2" ry="2"/><line class="a" x1="0.5" y1="8" x2="23.5" y2="8"/><path class="a" d="M4,5.25a.25.25,0,1,1-.25.25A.25.25,0,0,1,4,5.25"/><path class="a" d="M7,5.25a.25.25,0,1,1-.25.25A.25.25,0,0,1,7,5.25"/><path class="a" d="M10,5.25a.25.25,0,1,1-.25.25A.25.25,0,0,1,10,5.25"/><path class="a" d="M5,16.25a.25.25,0,1,1-.25.25A.25.25,0,0,1,5,16.25"/><path class="a" d="M9.5,12a2,2,0,0,0-2,2v1a2,2,0,0,0,2,2"/><path class="a" d="M12.5,12a1,1,0,0,0-1,1v3a1,1,0,0,0,2,0V13A1,1,0,0,0,12.5,12Z"/><polyline class="a" points="18.5 17 18.5 12 17 14.5 15.5 12 15.5 17"/></svg>