<svg xmlns="http://www.w3.org/2000/svg" viewBox="0 0 24 24"><defs><style>.a{fill:none;stroke:currentColor;stroke-linecap:round;stroke-linejoin:round;}</style></defs><title>code-write-1</title><path class="a" d="M10.5,22.5h-9a1,1,0,0,1-1-1V1.5a1,1,0,0,1,1-1H13.086a1,1,0,0,1,.707.293l3.414,3.414a1,1,0,0,1,.293.707V13"/><path class="a" d="M12.5.5v4a1,1,0,0,0,1,1h4"/><rect class="a" x="3.5" y="6.5" width="4" height="4" rx="0.5" ry="0.5"/><rect class="a" x="3.5" y="13.5" width="4" height="4" rx="0.5" ry="0.5"/><path class="a" d="M7.5,8.5h2a1,1,0,0,1,1,1v5a1,1,0,0,1-1,1h-2"/><line class="a" x1="14" y1="11.5" x2="11" y2="11.5"/><path class="a" d="M16.206,22.5l-3.5,1,1-3.5,7.148-7.148a.5.5,0,0,1,.707,0l1.793,1.792a.5.5,0,0,1,0,.708Z"/><line class="a" x1="19.207" y1="14.499" x2="21.707" y2="16.999"/><line class="a" x1="13.706" y1="20.001" x2="16.206" y2="22.501"/></svg>