<svg xmlns="http://www.w3.org/2000/svg" viewBox="0 0 24 24"><defs><style>.a{fill:none;stroke:currentColor;stroke-linecap:round;stroke-linejoin:round;}</style></defs><title>monitor-www</title><line class="a" x1="5" y1="22" x2="19" y2="22"/><line class="a" x1="11.5" y1="20" x2="11.5" y2="22"/><line class="a" x1="0.5" y1="16" x2="23.5" y2="16"/><rect class="a" x="0.5" y="2" width="23" height="18" rx="1.5" ry="1.5"/><path class="a" d="M4.5,7.5V8.845a6.01,6.01,0,0,0,.429,2.228L5.5,12.5,6.5,9l1,3.5.571-1.427A5.99,5.99,0,0,0,8.5,8.845V7.5"/><path class="a" d="M10.5,7.5V8.845a6.01,6.01,0,0,0,.429,2.228L11.5,12.5l1-3.5,1,3.5.571-1.427A5.99,5.99,0,0,0,14.5,8.845V7.5"/><path class="a" d="M16.5,7.5V8.845a6.01,6.01,0,0,0,.429,2.228L17.5,12.5l1-3.5,1,3.5.571-1.427A5.99,5.99,0,0,0,20.5,8.845V7.5"/></svg>