<svg xmlns="http://www.w3.org/2000/svg" viewBox="0 0 24 24"><defs><style>.a{fill:none;stroke:currentColor;stroke-linecap:round;stroke-linejoin:round;}</style></defs><title>monitor-code-send</title><line class="a" x1="3.5" y1="5" x2="23.5" y2="5"/><path class="a" d="M6.5,2.75A.25.25,0,1,0,6.75,3a.25.25,0,0,0-.25-.25h0"/><path class="a" d="M8.5,2.75A.25.25,0,1,0,8.75,3a.25.25,0,0,0-.25-.25h0"/><path class="a" d="M10.5,2.75a.25.25,0,1,0,.25.25.25.25,0,0,0-.25-.25h0"/><path class="a" d="M3.5,10V3a2,2,0,0,1,2-2h16a2,2,0,0,1,2,2V14a2,2,0,0,1-2,2h-8"/><rect class="a" x="0.5" y="13" width="10" height="10" rx="1" ry="1"/><polyline class="a" points="4.5 15 7 17.5 4.5 20"/><path class="a" d="M13,23h3.187c.829,0,1.313-1.047,1.313-1.875V18"/><polyline class="a" points="19.5 20 17.5 18 15.5 20"/></svg>