<?xml version="1.0" encoding="utf-8"?>
<!-- Generator: Adobe Illustrator 22.1.0, SVG Export Plug-In . SVG Version: 6.00 Build 0)  -->
<svg version="1.1" id="Layer_1" xmlns="http://www.w3.org/2000/svg" xmlns:xlink="http://www.w3.org/1999/xlink" x="0px" y="0px"
	 viewBox="0 0 24 24" style="enable-background:new 0 0 24 24;" xml:space="preserve">
<title>electronics-NPN-bipolar-transistor</title>
<g>
	<path d="M18,24c-0.414,0-0.75-0.336-0.75-0.75v-1.766c-1.4,0.666-2.944,1.016-4.5,1.016c-5.553,0-10.085-4.254-10.471-9.75H1.5
		c-0.414,0-0.75-0.336-0.75-0.75s0.336-0.75,0.75-0.75h0.779C2.665,5.754,7.197,1.5,12.75,1.5c1.556,0,3.1,0.35,4.5,1.016V0.75
		C17.25,0.336,17.586,0,18,0s0.75,0.336,0.75,0.75v2.638c2.822,1.971,4.5,5.175,4.5,8.612s-1.678,6.641-4.5,8.612v2.638
		C18.75,23.664,18.414,24,18,24z M3.783,12.75C4.165,17.407,8.031,21,12.75,21c1.584,0,3.135-0.417,4.5-1.208V15.75
		c0-0.414,0.336-0.75,0.75-0.75s0.75,0.336,0.75,0.75v2.953c1.916-1.709,3-4.112,3-6.703c0-2.591-1.084-4.994-3-6.703V8.25
		c0,0.309-0.185,0.582-0.472,0.696l-7.028,2.811v0.484l3.563,1.425l-0.518-1.409c-0.142-0.388,0.057-0.82,0.445-0.963
		c0.084-0.031,0.17-0.046,0.259-0.046c0.313,0,0.596,0.197,0.704,0.491l1.098,2.989c0.005,0.015,0.01,0.031,0.014,0.047
		c0.021,0.069,0.031,0.139,0.032,0.207c0,0.011,0,0.025-0.002,0.037c-0.003,0.07-0.015,0.134-0.036,0.197
		c-0.003,0.012-0.008,0.026-0.011,0.037c-0.031,0.078-0.069,0.143-0.116,0.202c-0.002,0.003-0.007,0.009-0.007,0.009
		c-0.044,0.053-0.097,0.1-0.157,0.141c-0.013,0.01-0.027,0.02-0.041,0.028l-2.573,1.51c-0.116,0.068-0.247,0.103-0.38,0.103
		c-0.265,0-0.513-0.142-0.647-0.37c-0.209-0.357-0.089-0.817,0.267-1.027l1.255-0.736l-3.148-1.259v1.892
		c0,0.414-0.336,0.75-0.75,0.75s-0.75-0.336-0.75-0.75v-3H3.783z M9.75,11.25v-3c0-0.414,0.336-0.75,0.75-0.75s0.75,0.336,0.75,0.75
		v1.892l6-2.4V4.208C15.885,3.417,14.334,3,12.75,3c-4.719,0-8.585,3.593-8.967,8.25H9.75z"/>
</g>
</svg>
