<?xml version="1.0" encoding="utf-8"?>
<!-- Generator: Adobe Illustrator 22.1.0, SVG Export Plug-In . SVG Version: 6.00 Build 0)  -->
<svg version="1.1" id="Layer_1" xmlns="http://www.w3.org/2000/svg" xmlns:xlink="http://www.w3.org/1999/xlink" x="0px" y="0px"
	 viewBox="0 0 24 24" style="enable-background:new 0 0 24 24;" xml:space="preserve">
<title>electronics-ground</title>
<g>
	<path d="M3.75,18C3.336,18,3,17.664,3,17.25s0.336-0.75,0.75-0.75h16.5c0.414,0,0.75,0.336,0.75,0.75S20.664,18,20.25,18H3.75z"/>
	<path d="M6.75,21C6.336,21,6,20.664,6,20.25s0.336-0.75,0.75-0.75h10.5c0.414,0,0.75,0.336,0.75,0.75S17.664,21,17.25,21H6.75z"/>
	<path d="M9.75,24C9.336,24,9,23.664,9,23.25s0.336-0.75,0.75-0.75h4.5c0.414,0,0.75,0.336,0.75,0.75S14.664,24,14.25,24H9.75z"/>
	<path d="M0.75,15C0.336,15,0,14.664,0,14.25s0.336-0.75,0.75-0.75h10.5V0.75C11.25,0.336,11.586,0,12,0s0.75,0.336,0.75,0.75V13.5
		h10.5c0.414,0,0.75,0.336,0.75,0.75S23.664,15,23.25,15H0.75z"/>
</g>
</svg>
