<?xml version="1.0" encoding="utf-8"?>
<!-- Generator: Adobe Illustrator 22.1.0, SVG Export Plug-In . SVG Version: 6.00 Build 0)  -->
<svg version="1.1" id="Layer_1" xmlns="http://www.w3.org/2000/svg" xmlns:xlink="http://www.w3.org/1999/xlink" x="0px" y="0px"
	 viewBox="0 0 24 24" style="enable-background:new 0 0 24 24;" xml:space="preserve">
<title>electronics-integrated-circuit</title>
<g>
	<path d="M14.25,24c-0.414,0-0.75-0.336-0.75-0.75V21h-3v2.25c0,0.414-0.336,0.75-0.75,0.75S9,23.664,9,23.25V21H8.25
		C7.009,21,6,19.991,6,18.75V16.5H3.75C3.336,16.5,3,16.164,3,15.75S3.336,15,3.75,15H6v-2.25H3.75C3.336,12.75,3,12.414,3,12
		s0.336-0.75,0.75-0.75H6V9H3.75C3.336,9,3,8.664,3,8.25S3.336,7.5,3.75,7.5H6V5.25C6,4.009,7.009,3,8.25,3H9V0.75
		C9,0.336,9.336,0,9.75,0s0.75,0.336,0.75,0.75V3h3V0.75C13.5,0.336,13.836,0,14.25,0S15,0.336,15,0.75V3h0.75
		C16.991,3,18,4.009,18,5.25V7.5h2.25C20.664,7.5,21,7.836,21,8.25S20.664,9,20.25,9H18v2.25h2.25c0.414,0,0.75,0.336,0.75,0.75
		s-0.336,0.75-0.75,0.75H18V15h2.25c0.414,0,0.75,0.336,0.75,0.75s-0.336,0.75-0.75,0.75H18v2.25c0,1.241-1.009,2.25-2.25,2.25H15
		v2.25C15,23.664,14.664,24,14.25,24z M8.25,4.5C7.836,4.5,7.5,4.836,7.5,5.25v13.5c0,0.414,0.336,0.75,0.75,0.75h7.5
		c0.414,0,0.75-0.336,0.75-0.75V5.25c0-0.414-0.336-0.75-0.75-0.75H8.25z"/>
</g>
</svg>
