<?xml version="1.0" encoding="utf-8"?>
<!-- Generator: Adobe Illustrator 22.1.0, SVG Export Plug-In . SVG Version: 6.00 Build 0)  -->
<svg version="1.1" id="Layer_1" xmlns="http://www.w3.org/2000/svg" xmlns:xlink="http://www.w3.org/1999/xlink" x="0px" y="0px"
	 viewBox="0 0 24 24" style="enable-background:new 0 0 24 24;" xml:space="preserve">
<title>electronics-tunnel-diode</title>
<g>
	<path d="M15.75,21C15.336,21,15,20.664,15,20.25s0.336-0.75,0.75-0.75H18v-6.163L6.782,20.193c-0.236,0.144-0.506,0.22-0.78,0.22
		c-0.118,0-0.237-0.014-0.354-0.042c-0.39-0.094-0.719-0.334-0.928-0.676c-0.144-0.236-0.22-0.506-0.22-0.782V12.75H0.75
		C0.336,12.75,0,12.414,0,12s0.336-0.75,0.75-0.75H4.5V5.087c0-0.827,0.673-1.5,1.5-1.5c0.276,0,0.547,0.076,0.782,0.22L18,10.663
		V4.5h-2.25C15.336,4.5,15,4.164,15,3.75S15.336,3,15.75,3h3c0.414,0,0.75,0.336,0.75,0.75v7.5h3.75c0.414,0,0.75,0.336,0.75,0.75
		s-0.336,0.75-0.75,0.75H19.5v7.5c0,0.414-0.336,0.75-0.75,0.75H15.75z M6,18.913L17.312,12L6,5.087L6,18.913z"/>
</g>
</svg>
