<?xml version="1.0" encoding="utf-8"?>
<!-- Generator: Adobe Illustrator 22.1.0, SVG Export Plug-In . SVG Version: 6.00 Build 0)  -->
<svg version="1.1" id="Layer_1" xmlns="http://www.w3.org/2000/svg" xmlns:xlink="http://www.w3.org/1999/xlink" x="0px" y="0px"
	 viewBox="0 0 24 24" style="enable-background:new 0 0 24 24;" xml:space="preserve">
<title>electronics-fuse</title>
<g>
	<path d="M8.925,23.998c-0.401,0-0.777-0.156-1.061-0.439L0.44,16.134C0.156,15.852,0,15.475,0,15.074
		c0-0.401,0.156-0.777,0.439-1.061L1.5,12.952c0.283-0.283,0.66-0.439,1.061-0.439c0.401,0,0.778,0.156,1.061,0.439l9.333-9.332
		c-0.283-0.283-0.439-0.659-0.439-1.06c0-0.401,0.156-0.778,0.44-1.061l1.06-1.061C14.298,0.156,14.675,0,15.076,0
		c0.401,0,0.778,0.156,1.061,0.439l7.425,7.425C23.844,8.147,24,8.524,24,8.924s-0.156,0.777-0.439,1.061l-1.061,1.06
		c-0.283,0.283-0.66,0.439-1.061,0.439c-0.4,0-0.777-0.156-1.06-0.439l-0.001-0.001l-9.332,9.332
		c0.283,0.283,0.439,0.66,0.439,1.061s-0.156,0.778-0.439,1.061l-1.061,1.061C9.702,23.842,9.326,23.998,8.925,23.998z M1.5,15.074
		l7.425,7.425l1.061-1.061l-6.895-6.894c-0.006-0.006-0.012-0.012-0.018-0.019l-0.512-0.512L1.5,15.074z M9.985,19.317l9.332-9.332
		l-2.121-2.121l-1.91,1.91L14.8,12.203c-0.07,0.349-0.379,0.603-0.735,0.603h-3.628l-0.41,2.048c-0.029,0.146-0.1,0.279-0.205,0.384
		l-1.958,1.958L9.985,19.317z M6.804,16.135l1.797-1.798l0.485-2.428c0.07-0.349,0.379-0.603,0.735-0.603h3.628l0.409-2.049
		c0.029-0.146,0.1-0.278,0.205-0.384l2.071-2.071l-2.122-2.122l-9.332,9.332L6.804,16.135z M21.44,9.985L22.5,8.924L15.075,1.5
		l-1.06,1.061c0,0,3.723,3.723,3.729,3.729L21.44,9.985z"/>
</g>
</svg>
