<?xml version="1.0" encoding="utf-8"?>
<!-- Generator: Adobe Illustrator 22.1.0, SVG Export Plug-In . SVG Version: 6.00 Build 0)  -->
<svg version="1.1" id="Layer_1" xmlns="http://www.w3.org/2000/svg" xmlns:xlink="http://www.w3.org/1999/xlink" x="0px" y="0px"
	 viewBox="0 0 24 24" style="enable-background:new 0 0 24 24;" xml:space="preserve">
<title>electronics-variable-capacitor</title>
<g>
	<path d="M12,24c-0.414,0-0.75-0.336-0.75-0.75V15h-9c-0.414,0-0.75-0.336-0.75-0.75s0.336-0.75,0.75-0.75h10.189l-3-3H2.25
		c-0.414,0-0.75-0.336-0.75-0.75S1.836,9,2.25,9h5.689L3,4.061V6c0,0.414-0.336,0.75-0.75,0.75S1.5,6.414,1.5,6V2.25
		c0-0.089,0.016-0.176,0.048-0.261C1.55,1.982,1.553,1.975,1.555,1.968c0.077-0.187,0.226-0.336,0.41-0.412
		C1.972,1.553,1.981,1.55,1.99,1.547C2.075,1.516,2.162,1.5,2.25,1.5H6c0.414,0,0.75,0.336,0.75,0.75S6.414,3,6,3H4.061l6,6h1.189
		V0.75C11.25,0.336,11.586,0,12,0s0.75,0.336,0.75,0.75V9h9c0.414,0,0.75,0.336,0.75,0.75s-0.336,0.75-0.75,0.75H11.561l3,3h7.189
		c0.414,0,0.75,0.336,0.75,0.75S22.164,15,21.75,15h-5.689l4.72,4.72c0.142,0.142,0.22,0.33,0.22,0.53s-0.078,0.389-0.22,0.53
		S20.45,21,20.25,21s-0.389-0.078-0.53-0.22L13.939,15H12.75v8.25C12.75,23.664,12.414,24,12,24z"/>
</g>
</svg>
