<?xml version="1.0" encoding="utf-8"?>
<!-- Generator: Adobe Illustrator 22.1.0, SVG Export Plug-In . SVG Version: 6.00 Build 0)  -->
<svg version="1.1" id="Layer_1" xmlns="http://www.w3.org/2000/svg" xmlns:xlink="http://www.w3.org/1999/xlink" x="0px" y="0px"
	 viewBox="0 0 24 24" style="enable-background:new 0 0 24 24;" xml:space="preserve">
<title>electronics-LED-light</title>
<g>
	<path d="M15.75,24C15.336,24,15,23.664,15,23.25V16.5H9v6.75C9,23.664,8.664,24,8.25,24S7.5,23.664,7.5,23.25V16.5H3.75
		C3.336,16.5,3,16.164,3,15.75S3.336,15,3.75,15H4.5V7.5C4.5,3.365,7.865,0,12,0s7.5,3.365,7.5,7.5V15h0.75
		c0.414,0,0.75,0.336,0.75,0.75s-0.336,0.75-0.75,0.75H16.5v6.75C16.5,23.664,16.164,24,15.75,24z M18,15V7.5c0-3.308-2.692-6-6-6
		c-3.308,0-6,2.692-6,6V15h5.25v-3.439L9.22,9.53C9.078,9.389,9,9.2,9,9s0.078-0.389,0.22-0.53c0.141-0.142,0.33-0.22,0.53-0.22
		s0.389,0.078,0.53,0.22l1.72,1.72l1.72-1.72c0.142-0.142,0.33-0.22,0.53-0.22s0.389,0.078,0.53,0.22C14.922,8.611,15,8.8,15,9
		s-0.078,0.389-0.22,0.53l-2.03,2.03L18,15z"/>
</g>
</svg>
