<svg xmlns="http://www.w3.org/2000/svg" viewBox="0 0 24 24"><title>cog-square</title><path d="M19.5,0H4.5A4.505,4.505,0,0,0,0,4.5v15A4.5,4.5,0,0,0,4.5,24h15A4.5,4.5,0,0,0,24,19.5V4.5A4.505,4.505,0,0,0,19.5,0ZM18.149,13.255l.78.451a1.141,1.141,0,0,1,.418,1.559l-.856,1.483a1.141,1.141,0,0,1-1.559.418l-.782-.452A6.237,6.237,0,0,1,14,17.954v.905A1.142,1.142,0,0,1,12.855,20H11.144A1.142,1.142,0,0,1,10,18.859v-.9a6.321,6.321,0,0,1-2.153-1.247l-.781.451a1.14,1.14,0,0,1-1.558-.418l-.857-1.483a1.141,1.141,0,0,1,.418-1.559l.782-.452a6.23,6.23,0,0,1,0-2.486l-.78-.451a1.141,1.141,0,0,1-.418-1.559l.856-1.483a1.142,1.142,0,0,1,1.559-.417l.783.451A6.235,6.235,0,0,1,10,6.069V5.164a1.142,1.142,0,0,1,1.142-1.142h1.711A1.142,1.142,0,0,1,14,5.164v.9a6.267,6.267,0,0,1,2.154,1.247l.781-.451a1.142,1.142,0,0,1,1.559.417l.856,1.483a1.141,1.141,0,0,1-.418,1.559l-.781.452A6.212,6.212,0,0,1,18.149,13.255Z"/><circle cx="12" cy="12.012" r="3"/></svg>