<svg xmlns="http://www.w3.org/2000/svg" viewBox="0 0 24 24"><title>cog-circle</title><path d="M12,0A12,12,0,1,0,24,12,12.013,12.013,0,0,0,12,0ZM17.357,12.43l1.116,1.2a1.95,1.95,0,0,1-1.86,3.23l-1.595-.37a.578.578,0,0,0-.68.4l-.479,1.573a1.942,1.942,0,0,1-3.718,0l-.479-1.573a.578.578,0,0,0-.68-.4l-1.595.37a1.95,1.95,0,0,1-1.86-3.23l1.116-1.2a.588.588,0,0,0,0-.8l-1.116-1.2A1.95,1.95,0,0,1,7.387,7.2l1.595.369a.574.574,0,0,0,.68-.4L10.141,5.6a1.942,1.942,0,0,1,3.718,0l.479,1.573a.575.575,0,0,0,.68.4L16.613,7.2a1.95,1.95,0,0,1,1.86,3.23l-1.116,1.2A.587.587,0,0,0,17.357,12.43Z"/><path d="M15,12.032a3,3,0,1,0-3,3A3,3,0,0,0,15,12.032Zm-3,1.5a1.5,1.5,0,1,1,1.5-1.5A1.5,1.5,0,0,1,12,13.532Z"/></svg>