<svg xmlns="http://www.w3.org/2000/svg" viewBox="0 0 24 24"><title>cog-play-1</title><path d="M22.5,9.5H20.638a9.007,9.007,0,0,0-.762-1.84l1.316-1.316a1.5,1.5,0,0,0,0-2.122L19.777,2.809a1.5,1.5,0,0,0-2.121,0L16.339,4.126A8.937,8.937,0,0,0,14.5,3.363V1.5A1.5,1.5,0,0,0,13,0H11A1.5,1.5,0,0,0,9.5,1.5V3.363a8.946,8.946,0,0,0-1.839.763L6.343,2.809a1.5,1.5,0,0,0-2.121,0L2.807,4.223a1.5,1.5,0,0,0,0,2.122L4.124,7.662A8.988,8.988,0,0,0,3.361,9.5H1.5A1.5,1.5,0,0,0,0,11v2a1.5,1.5,0,0,0,1.5,1.5H3.361a8.988,8.988,0,0,0,.763,1.839L2.807,17.658a1.5,1.5,0,0,0,0,2.121l1.415,1.414a1.543,1.543,0,0,0,2.121,0l1.316-1.317A8.985,8.985,0,0,0,9.5,20.64V22.5A1.5,1.5,0,0,0,11,24h2a1.5,1.5,0,0,0,1.5-1.5V20.64a8.942,8.942,0,0,0,1.839-.763l1.318,1.317a1.5,1.5,0,0,0,2.121,0l1.414-1.414a1.5,1.5,0,0,0,0-2.121l-1.316-1.317a9.077,9.077,0,0,0,.763-1.84H22.5A1.5,1.5,0,0,0,24,13V11A1.5,1.5,0,0,0,22.5,9.5ZM12,18a6,6,0,1,1,6-6A6,6,0,0,1,12,18Z"/><path d="M15.293,11.582,10.772,8.645a.5.5,0,0,0-.51-.021.5.5,0,0,0-.262.44V15a.5.5,0,0,0,.264.441.508.508,0,0,0,.512-.024l4.521-3a.5.5,0,0,0,0-.836Z"/></svg>