<svg xmlns="http://www.w3.org/2000/svg" viewBox="0 0 24 24"><title>cog-approved-1</title><path d="M13.261,16.234a2.989,2.989,0,0,1-2.287-.844L7.337,11.754A3,3,0,0,1,11.58,7.511l1.263,1.263,3.288-4.121a1.873,1.873,0,0,1-2.382-1.142L13.3,2.245a1.875,1.875,0,0,0-3.533,0l-.45,1.266A1.875,1.875,0,0,1,6.744,4.576L5.531,4a1.875,1.875,0,0,0-2.5,2.5L3.609,7.71a1.875,1.875,0,0,1-1.065,2.572l-1.265.45a1.876,1.876,0,0,0,0,3.533l1.265.45a1.874,1.874,0,0,1,1.065,2.571L3.033,18.5a1.875,1.875,0,0,0,2.5,2.5l1.213-.577a1.875,1.875,0,0,1,2.572,1.065l.45,1.266a1.875,1.875,0,0,0,3.533,0l.45-1.266a1.874,1.874,0,0,1,2.571-1.065L17.533,21a1.875,1.875,0,0,0,2.5-2.5l-.576-1.213a1.874,1.874,0,0,1,1.065-2.571l1.265-.45a1.875,1.875,0,0,0,0-3.533l-1.265-.45a1.862,1.862,0,0,1-.781-.531l-4.3,5.388A2.986,2.986,0,0,1,13.261,16.234Z"/><path d="M23.4.33a1.5,1.5,0,0,0-2.108.239L12.968,11.021,10.519,8.572A1.5,1.5,0,1,0,8.4,10.694l3.637,3.635a1.515,1.515,0,0,0,2.233-.126L23.639,2.438A1.5,1.5,0,0,0,23.4.33Z"/></svg>