<svg xmlns="http://www.w3.org/2000/svg" viewBox="0 0 24 24"><title>expand-vertical-3</title><path d="M17.75,12a1.25,1.25,0,0,0-1.25-1.25h-9a1.25,1.25,0,0,0,0,2.5h9A1.25,1.25,0,0,0,17.75,12Z"/><path d="M12,15.249a1.25,1.25,0,0,0-1.25,1.25v2.25a.25.25,0,0,1-.25.25H9a1,1,0,0,0-.707,1.707l3,3a1,1,0,0,0,1.414,0l3-3A1,1,0,0,0,15,19H13.5a.25.25,0,0,1-.25-.25V16.5A1.25,1.25,0,0,0,12,15.249Z"/><path d="M12.707.292a1,1,0,0,0-1.414,0l-3,3A1,1,0,0,0,9,5h1.5a.25.25,0,0,1,.25.25V7.5a1.25,1.25,0,0,0,2.5,0V5.249A.25.25,0,0,1,13.5,5H15a1,1,0,0,0,.707-1.707Z"/></svg>