<svg xmlns="http://www.w3.org/2000/svg" viewBox="0 0 24 24"><title>shrink-horizontal</title><path d="M18.714,9.618a1,1,0,0,0-1.707-.707L14.15,11.768a1,1,0,0,0,0,1.415l2.857,2.856a1,1,0,0,0,.707.293.987.987,0,0,0,.383-.076,1,1,0,0,0,.617-.924V13.975a.25.25,0,0,1,.25-.25h2.012a.25.25,0,0,1,.25.25V22a1.25,1.25,0,0,0,2.5,0V2a1.25,1.25,0,1,0-2.5,0v8.976a.249.249,0,0,1-.25.25H18.964a.249.249,0,0,1-.25-.25Z"/><path d="M6.855,16.256a.987.987,0,0,0,.383.076,1,1,0,0,0,.707-.293L10.8,13.183a1,1,0,0,0,0-1.415L7.945,8.911a1,1,0,0,0-1.707.707v1.357a.249.249,0,0,1-.25.25H3.024a.249.249,0,0,1-.25-.25V2a1.25,1.25,0,0,0-2.5,0V22a1.25,1.25,0,0,0,2.5,0V13.975a.25.25,0,0,1,.25-.25H5.988a.25.25,0,0,1,.25.25v1.357A1,1,0,0,0,6.855,16.256Z"/></svg>