<svg xmlns="http://www.w3.org/2000/svg" viewBox="0 0 24 24"><title>disable</title><path d="M16.481,5.751a.257.257,0,0,0-.034-.392,7.981,7.981,0,0,0-10.1.984h0a8.005,8.005,0,0,0-.984,10.1.258.258,0,0,0,.393.036Z"/><path d="M20.485,3.515a12,12,0,1,0,0,16.971A12,12,0,0,0,20.485,3.515ZM19.071,19.072a10.121,10.121,0,0,1-14.142,0,10.012,10.012,0,0,1,0-14.143,10.1,10.1,0,0,1,14.142,0A10.2,10.2,0,0,1,19.071,19.072Z"/><path d="M18.249,7.517,7.519,18.248a.257.257,0,0,0,.036.392A7.989,7.989,0,0,0,18.641,7.552.258.258,0,0,0,18.249,7.517Z"/></svg>