<svg xmlns="http://www.w3.org/2000/svg" viewBox="0 0 24 24"><title>skull-2</title><path d="M18.5,11a6.5,6.5,0,1,0-11,4.689v2.816a1.5,1.5,0,1,0,3,0,1.5,1.5,0,0,0,3,0,1.5,1.5,0,1,0,3,0V15.69A6.477,6.477,0,0,0,18.5,11ZM9.12,12.5a1.5,1.5,0,1,1,1.5-1.5A1.5,1.5,0,0,1,9.12,12.5Zm6,0a1.5,1.5,0,1,1,1.5-1.5A1.5,1.5,0,0,1,15.119,12.5Z"/><path d="M2.8,4.919,4.627,6.746a.5.5,0,0,0,.406.144A.5.5,0,0,0,5.4,6.666,8.028,8.028,0,0,1,6.607,5.211a.5.5,0,0,0,.155-.356.5.5,0,0,0-.146-.36L4.92,2.8A1.751,1.751,0,0,0,2.759.173,1,1,0,0,0,2.21.889l-.146.775a.5.5,0,0,1-.4.4L.89,2.21a1,1,0,0,0-.716.548A1.751,1.751,0,0,0,2.8,4.919Z"/><path d="M18.6,6.666a.5.5,0,0,0,.367.224.5.5,0,0,0,.406-.144L21.2,4.919a1.751,1.751,0,0,0,2.626-2.161,1,1,0,0,0-.716-.548l-.775-.147a.5.5,0,0,1-.4-.4L21.79.889a1,1,0,0,0-.549-.716A1.751,1.751,0,0,0,19.08,2.8l-1.7,1.7a.5.5,0,0,0-.146.36.5.5,0,0,0,.155.356A8.028,8.028,0,0,1,18.6,6.666Z"/><path d="M5.4,17.336a.5.5,0,0,0-.773-.082L2.8,19.082a1.75,1.75,0,0,0-2.626,2.16,1,1,0,0,0,.716.55l.775.145a.5.5,0,0,1,.4.4l.146.775a1,1,0,0,0,.549.716A1.751,1.751,0,0,0,4.92,21.2l1.7-1.7a.5.5,0,0,0,.146-.36.5.5,0,0,0-.155-.356A8.084,8.084,0,0,1,5.4,17.336Z"/><path d="M21.2,19.082l-1.827-1.828a.5.5,0,0,0-.773.082,8.084,8.084,0,0,1-1.207,1.453.5.5,0,0,0-.155.356.5.5,0,0,0,.146.36l1.7,1.7a1.751,1.751,0,0,0,2.161,2.626,1,1,0,0,0,.549-.716l.146-.775a.5.5,0,0,1,.4-.4l.775-.145a1,1,0,0,0,.716-.55,1.75,1.75,0,0,0-2.626-2.16Z"/></svg>