<?xml version="1.0" encoding="utf-8"?>
<!-- Generator: Adobe Illustrator 22.1.0, SVG Export Plug-In . SVG Version: 6.00 Build 0)  -->
<svg version="1.1" id="Layer_1" xmlns="http://www.w3.org/2000/svg" xmlns:xlink="http://www.w3.org/1999/xlink" x="0px" y="0px"
	 viewBox="0 0 24 24" style="enable-background:new 0 0 24 24;" xml:space="preserve">
<title>camera</title>
<g>
	<path d="M15.75,24c-0.2,0-0.389-0.078-0.53-0.22l-2.47-2.47l-2.47,2.47C10.139,23.922,9.95,24,9.75,24s-0.389-0.078-0.53-0.22
		c-0.292-0.292-0.292-0.768,0-1.061l1.72-1.72H9c-1.241,0-2.25-1.009-2.25-2.25v-4.5C6.75,13.009,7.759,12,9,12h7.5
		c1.089,0,2,0.778,2.207,1.808l1.958-0.979c0.104-0.052,0.22-0.079,0.335-0.079c0.139,0,0.275,0.039,0.394,0.112
		c0.22,0.136,0.356,0.381,0.356,0.638v6c0,0.258-0.136,0.502-0.355,0.638c-0.12,0.073-0.256,0.112-0.395,0.112
		c-0.115,0-0.231-0.027-0.335-0.079l-1.959-0.979C18.5,20.222,17.589,21,16.5,21h-1.939l1.72,1.72c0.292,0.292,0.292,0.768,0,1.061
		C16.139,23.922,15.95,24,15.75,24z M9,13.5c-0.414,0-0.75,0.336-0.75,0.75v4.5c0,0.414,0.336,0.75,0.75,0.75h7.5
		c0.414,0,0.75-0.336,0.75-0.75v-4.5c0-0.414-0.336-0.75-0.75-0.75H9z M20.25,18.287v-3.573l-1.5,0.75v2.073L20.25,18.287z"/>
	<path d="M7.5,10.5c-2.895,0-5.25-2.355-5.25-5.25S4.605,0,7.5,0s5.25,2.355,5.25,5.25S10.395,10.5,7.5,10.5z M7.5,1.5
		c-2.068,0-3.75,1.682-3.75,3.75S5.432,9,7.5,9s3.75-1.682,3.75-3.75S9.568,1.5,7.5,1.5z"/>
	<path d="M18,10.5c-2.068,0-3.75-1.682-3.75-3.75S15.932,3,18,3s3.75,1.682,3.75,3.75S20.068,10.5,18,10.5z M18,4.5
		c-1.241,0-2.25,1.009-2.25,2.25S16.759,9,18,9s2.25-1.009,2.25-2.25S19.241,4.5,18,4.5z"/>
</g>
</svg>
