<?xml version="1.0" encoding="utf-8"?>
<!-- Generator: Adobe Illustrator 22.1.0, SVG Export Plug-In . SVG Version: 6.00 Build 0)  -->
<svg version="1.1" id="Layer_1" xmlns="http://www.w3.org/2000/svg" xmlns:xlink="http://www.w3.org/1999/xlink" x="0px" y="0px"
	 viewBox="0 0 24 24" style="enable-background:new 0 0 24 24;" xml:space="preserve">
<title>camera-small</title>
<g>
	<path d="M3.75,24C1.682,24,0,22.318,0,20.25V3.75C0,1.682,1.682,0,3.75,0h4.5C10.318,0,12,1.682,12,3.75V6h1.5V2.25
		c0-0.414,0.336-0.75,0.75-0.75h6C22.318,1.5,24,3.182,24,5.25v1.5c0,2.068-1.682,3.75-3.75,3.75h-6c-0.414,0-0.75-0.336-0.75-0.75
		V7.5H12V12c0,0.827-0.673,1.5-1.5,1.5H9v9C9,23.327,8.327,24,7.5,24H3.75z M3.75,1.5C2.509,1.5,1.5,2.509,1.5,3.75v16.5
		c0,1.241,1.009,2.25,2.25,2.25H7.5v-9.75C7.5,12.336,7.836,12,8.25,12h2.25V3.75c0-1.241-1.009-2.25-2.25-2.25H3.75z M20.25,9
		c1.241,0,2.25-1.009,2.25-2.25v-1.5C22.5,4.009,21.491,3,20.25,3H15v6H20.25z"/>
	<path d="M6,9C4.346,9,3,7.654,3,6s1.346-3,3-3s3,1.346,3,3S7.654,9,6,9z M6,4.5C5.173,4.5,4.5,5.173,4.5,6S5.173,7.5,6,7.5
		S7.5,6.827,7.5,6S6.827,4.5,6,4.5z"/>
	<path d="M5.25,19.5c-0.414,0-0.75-0.336-0.75-0.75V12c0-0.414,0.336-0.75,0.75-0.75S6,11.586,6,12v6.75
		C6,19.164,5.664,19.5,5.25,19.5z"/>
</g>
</svg>
