<?xml version="1.0" encoding="utf-8"?>
<!-- Generator: Adobe Illustrator 22.1.0, SVG Export Plug-In . SVG Version: 6.00 Build 0)  -->
<svg version="1.1" id="Layer_1" xmlns="http://www.w3.org/2000/svg" xmlns:xlink="http://www.w3.org/1999/xlink" x="0px" y="0px"
	 viewBox="0 0 24 24" style="enable-background:new 0 0 24 24;" xml:space="preserve">
<title>camera-studio</title>
<g>
	<path d="M2.25,23.25C1.009,23.25,0,22.241,0,21v-7.5c0-1.241,1.009-2.25,2.25-2.25h13.5c1.241,0,2.25,1.009,2.25,2.25v0.752
		l3.974-1.49c0.168-0.063,0.345-0.096,0.526-0.096c0.401,0,0.777,0.155,1.06,0.438c0.284,0.283,0.44,0.659,0.44,1.06V21
		c0,0.18-0.032,0.357-0.095,0.526c-0.218,0.582-0.783,0.974-1.406,0.974c-0.18,0-0.356-0.032-0.525-0.095L18,20.914V21
		c0,1.241-1.009,2.25-2.25,2.25H2.25z M2.25,12.75c-0.414,0-0.75,0.336-0.75,0.75V21c0,0.414,0.336,0.75,0.75,0.75h13.5
		c0.414,0,0.75-0.336,0.75-0.75v-7.5c0-0.414-0.336-0.75-0.75-0.75H2.25z M22.5,21l0-6.833L18,15.854v3.458L22.5,21z"/>
	<path d="M4.5,15.75c-0.414,0-0.75-0.336-0.75-0.75s0.336-0.75,0.75-0.75h8.25c0.414,0,0.75,0.336,0.75,0.75s-0.336,0.75-0.75,0.75
		H4.5z"/>
	<path d="M4.5,9.75C2.019,9.75,0,7.731,0,5.25s2.019-4.5,4.5-4.5S9,2.769,9,5.25S6.981,9.75,4.5,9.75z M4.5,2.25
		c-1.654,0-3,1.346-3,3s1.346,3,3,3s3-1.346,3-3S6.154,2.25,4.5,2.25z"/>
	<path d="M14.25,9.75c-2.068,0-3.75-1.682-3.75-3.75s1.682-3.75,3.75-3.75C16.318,2.25,18,3.932,18,6S16.318,9.75,14.25,9.75z
		 M14.25,3.75C13.009,3.75,12,4.759,12,6s1.009,2.25,2.25,2.25S16.5,7.241,16.5,6S15.491,3.75,14.25,3.75z"/>
</g>
</svg>
