<?xml version="1.0" encoding="utf-8"?>
<!-- Generator: Adobe Illustrator 22.1.0, SVG Export Plug-In . SVG Version: 6.00 Build 0)  -->
<svg version="1.1" id="Layer_1" xmlns="http://www.w3.org/2000/svg" xmlns:xlink="http://www.w3.org/1999/xlink" x="0px" y="0px"
	 viewBox="0 0 24 24" style="enable-background:new 0 0 24 24;" xml:space="preserve">
<g>
	<title>audio-file-refresh</title>
	<path d="M1.5,24C0.673,24,0,23.327,0,22.5v-21C0,0.673,0.673,0,1.5,0h13.293c0.401,0,0.777,0.156,1.061,0.439l3.707,3.707
		C19.844,4.43,20,4.807,20,5.207V8.5C20,8.776,19.776,9,19.5,9S19,8.776,19,8.5V5.207c0-0.133-0.052-0.259-0.146-0.354l-3.707-3.707
		C15.053,1.053,14.925,1,14.793,1H1.5C1.224,1,1,1.224,1,1.5v21C1,22.776,1.224,23,1.5,23h8c0.276,0,0.5,0.224,0.5,0.5
		S9.776,24,9.5,24H1.5z"/>
	<path d="M7,16.187c-1.682,0-3-0.961-3-2.187c0-1.226,1.318-2.186,3-2.186c0.743,0,1.455,0.202,2,0.556V7.223
		c-0.001-0.4,0.155-0.777,0.437-1.061c0.283-0.284,0.659-0.441,1.06-0.441c0.266,0,0.525,0.069,0.753,0.201l1.998,1.144
		c0.239,0.137,0.323,0.443,0.186,0.682C13.345,7.904,13.179,8,13,8l0,0c-0.087,0-0.173-0.023-0.248-0.066l-2-1.145
		c-0.077-0.044-0.164-0.068-0.251-0.068c-0.135,0-0.26,0.052-0.354,0.147S10,7.089,10,7.222V14C10,15.226,8.682,16.187,7,16.187z
		 M7,12.814c-1.084,0-2,0.543-2,1.186c0,0.643,0.916,1.187,2,1.187S9,14.643,9,14C9,13.357,8.084,12.814,7,12.814z"/>
	<path d="M17.498,24c-3.307,0-5.999-2.691-6-5.998c-0.001-1.6,0.624-3.106,1.758-4.241c1.134-1.135,2.64-1.76,4.24-1.761
		c2.473,0,4.583,1.441,5.504,3.598V14c0-0.276,0.224-0.5,0.5-0.5S24,13.724,24,14v3.5c0,0.276-0.224,0.5-0.5,0.5H20
		c-0.276,0-0.5-0.224-0.5-0.5S19.724,17,20,17h2.392c-0.468-2.334-2.482-4-4.894-4c-1.336,0-2.59,0.522-3.535,1.468
		c-0.945,0.946-1.465,2.201-1.465,3.535c0.001,2.756,2.244,4.998,5,4.998C17.776,23,18,23.224,18,23.5S17.776,24,17.5,24H17.498z"/>
</g>
</svg>
