<?xml version="1.0" encoding="utf-8"?>
<!-- Generator: Adobe Illustrator 22.1.0, SVG Export Plug-In . SVG Version: 6.00 Build 0)  -->
<svg version="1.1" id="Layer_1" xmlns="http://www.w3.org/2000/svg" xmlns:xlink="http://www.w3.org/1999/xlink" x="0px" y="0px"
	 viewBox="0 0 24 24" style="enable-background:new 0 0 24 24;" xml:space="preserve">
<g>
	<title>audio-file-share</title>
	<path d="M1.5,24C0.673,24,0,23.327,0,22.5v-21C0,0.673,0.673,0,1.5,0h13.293c0.401,0,0.777,0.156,1.061,0.439l3.707,3.707
		C19.844,4.43,20,4.807,20,5.207V8.5C20,8.776,19.776,9,19.5,9S19,8.776,19,8.5V5.207c0-0.133-0.052-0.259-0.146-0.354l-3.707-3.707
		C15.053,1.053,14.925,1,14.793,1H1.5C1.224,1,1,1.224,1,1.5v21C1,22.776,1.224,23,1.5,23h8c0.276,0,0.5,0.224,0.5,0.5
		S9.776,24,9.5,24H1.5z"/>
	<path d="M7,16.187c-1.682,0-3-0.961-3-2.187c0-1.226,1.318-2.186,3-2.186c0.743,0,1.455,0.202,2,0.556V7.223
		c-0.001-0.4,0.155-0.777,0.437-1.061c0.283-0.284,0.659-0.441,1.06-0.441c0.266,0,0.525,0.069,0.753,0.201l1.998,1.144
		c0.239,0.137,0.323,0.443,0.186,0.682C13.345,7.904,13.179,8,13,8l0,0c-0.087,0-0.173-0.023-0.248-0.066l-2-1.145
		c-0.077-0.044-0.164-0.068-0.251-0.068c-0.135,0-0.26,0.052-0.354,0.147S10,7.089,10,7.222V14C10,15.226,8.682,16.187,7,16.187z
		 M7,12.814c-1.084,0-2,0.543-2,1.186c0,0.643,0.916,1.187,2,1.187S9,14.643,9,14C9,13.357,8.084,12.814,7,12.814z"/>
	<path d="M21.25,24c-1.516,0-2.75-1.234-2.75-2.75c0-0.18,0.018-0.36,0.055-0.54l-2.482-0.993C15.57,20.514,14.699,21,13.75,21
		C12.234,21,11,19.766,11,18.25s1.234-2.75,2.75-2.75c0.797,0,1.535,0.337,2.058,0.932l2.868-1.721
		C18.559,14.402,18.5,14.08,18.5,13.75c0-1.516,1.234-2.75,2.75-2.75S24,12.234,24,13.75s-1.234,2.75-2.75,2.75
		c-0.797,0-1.535-0.337-2.058-0.932l-2.868,1.72c0.117,0.309,0.176,0.632,0.176,0.961c0,0.18-0.018,0.36-0.055,0.54l2.482,0.993
		c0.503-0.796,1.374-1.282,2.323-1.282c1.516,0,2.75,1.234,2.75,2.75S22.766,24,21.25,24z M21.25,19.5
		c-0.965,0-1.75,0.785-1.75,1.75S20.285,23,21.25,23S23,22.215,23,21.25S22.215,19.5,21.25,19.5z M13.75,16.5
		c-0.965,0-1.75,0.785-1.75,1.75S12.785,20,13.75,20s1.75-0.785,1.75-1.75c0-0.304-0.081-0.605-0.235-0.871
		c-0.008-0.01-0.015-0.02-0.02-0.028c-0.006-0.01-0.011-0.021-0.016-0.032C14.917,16.813,14.361,16.5,13.75,16.5z M19.77,14.681
		c0.313,0.506,0.869,0.819,1.48,0.819c0.965,0,1.75-0.785,1.75-1.75S22.215,12,21.25,12s-1.75,0.785-1.75,1.75
		c0,0.304,0.081,0.605,0.235,0.872c0.005,0.007,0.01,0.013,0.014,0.02C19.757,14.653,19.764,14.667,19.77,14.681z"/>
</g>
</svg>
