<?xml version="1.0" encoding="utf-8"?>
<!-- Generator: Adobe Illustrator 22.1.0, SVG Export Plug-In . SVG Version: 6.00 Build 0)  -->
<svg version="1.1" id="Layer_1" xmlns="http://www.w3.org/2000/svg" xmlns:xlink="http://www.w3.org/1999/xlink" x="0px" y="0px"
	 viewBox="0 0 24 24" style="enable-background:new 0 0 24 24;" xml:space="preserve">
<g>
	<title>audio-file-shield</title>
	<path d="M1.5,24C0.673,24,0,23.327,0,22.5v-21C0,0.673,0.673,0,1.5,0h13.293c0.401,0,0.777,0.156,1.061,0.439l3.707,3.707
		C19.844,4.43,20,4.807,20,5.207V8.5C20,8.776,19.776,9,19.5,9S19,8.776,19,8.5V5.207c0-0.133-0.052-0.259-0.146-0.354l-3.707-3.707
		C15.052,1.052,14.927,1,14.793,1H1.5C1.224,1,1,1.224,1,1.5v21C1,22.776,1.224,23,1.5,23h8c0.276,0,0.5,0.224,0.5,0.5
		S9.776,24,9.5,24H1.5z"/>
	<path d="M7,16.187c-1.682,0-3-0.961-3-2.187c0-1.226,1.318-2.186,3-2.186c0.743,0,1.455,0.202,2,0.556V7.223
		c-0.001-0.4,0.155-0.777,0.437-1.061c0.283-0.284,0.659-0.441,1.06-0.441c0.266,0,0.525,0.069,0.753,0.201l1.999,1.144
		c0.239,0.137,0.323,0.443,0.186,0.682C13.345,7.904,13.179,8,13,8l0,0c-0.087,0-0.173-0.023-0.249-0.066l-2-1.145
		c-0.077-0.044-0.164-0.068-0.251-0.068c-0.135,0-0.26,0.052-0.354,0.147S10,7.089,10,7.222V14C10,15.227,8.682,16.187,7,16.187z
		 M7,12.814c-1.084,0-2,0.543-2,1.186c0,0.643,0.916,1.187,2,1.187S9,14.644,9,14C9,13.357,8.084,12.814,7,12.814z"/>
	<path d="M17.5,20c-0.276,0-0.5-0.224-0.5-0.5V17h-2.5c-0.276,0-0.5-0.224-0.5-0.5s0.224-0.5,0.5-0.5H17v-2.5
		c0-0.276,0.224-0.5,0.5-0.5s0.5,0.224,0.5,0.5V16h2.5c0.276,0,0.5,0.224,0.5,0.5S20.776,17,20.5,17H18v2.5
		C18,19.776,17.776,20,17.5,20z"/>
	<path d="M17.482,24.002c-0.253,0-0.502-0.046-0.74-0.138l-0.551-0.209C13.134,22.49,11,19.692,11,16.849v-3.393
		c0-0.615,0.364-1.171,0.929-1.417c1.789-0.676,3.651-1.025,5.545-1.042c1.914,0.017,3.788,0.364,5.573,1.032
		C23.631,12.283,24,12.841,24,13.457v3.396c0,2.835-2.152,5.633-5.234,6.805l-0.553,0.21C17.978,23.957,17.732,24.002,17.482,24.002
		z M17.476,11.998c-1.771,0.015-3.511,0.341-5.171,0.968C12.127,13.044,12,13.243,12,13.456v3.394c0,2.717,2.287,5.01,4.546,5.871
		l0.552,0.21c0.124,0.048,0.253,0.072,0.384,0.072c0.128,0,0.255-0.023,0.375-0.069l0.553-0.21C20.691,21.855,23,19.561,23,16.852
		v-3.396c0-0.217-0.128-0.413-0.327-0.5C21.017,12.339,19.264,12.015,17.476,11.998z"/>
</g>
</svg>
