<?xml version="1.0" encoding="utf-8"?>
<!-- Generator: Adobe Illustrator 22.1.0, SVG Export Plug-In . SVG Version: 6.00 Build 0)  -->
<svg version="1.1" id="Layer_1" xmlns="http://www.w3.org/2000/svg" xmlns:xlink="http://www.w3.org/1999/xlink" x="0px" y="0px"
	 viewBox="0 0 24 24" style="enable-background:new 0 0 24 24;" xml:space="preserve">
<g>
	<title>audio-file-edit</title>
	<path d="M1.496,24c-0.827,0-1.5-0.673-1.5-1.5v-21c0-0.827,0.673-1.5,1.5-1.5H14.79c0.401,0,0.777,0.156,1.06,0.439l3.707,3.707
		c0.283,0.283,0.439,0.66,0.439,1.061V8.5c0,0.276-0.224,0.5-0.5,0.5s-0.5-0.224-0.5-0.5V5.207c0-0.134-0.052-0.259-0.146-0.353
		l-3.707-3.707C15.048,1.052,14.923,1,14.79,1H1.496c-0.276,0-0.5,0.224-0.5,0.5v21c0,0.276,0.224,0.5,0.5,0.5h7
		c0.276,0,0.5,0.224,0.5,0.5S8.772,24,8.496,24H1.496z"/>
	<path d="M6.996,16.187c-1.682,0-3-0.961-3-2.187c0-1.226,1.318-2.186,3-2.186c0.743,0,1.455,0.202,2,0.556V7.223
		c-0.001-0.4,0.155-0.777,0.437-1.061c0.283-0.284,0.659-0.441,1.06-0.441c0.266,0,0.525,0.069,0.753,0.201l1.998,1.144
		c0.239,0.137,0.323,0.443,0.186,0.682C13.341,7.904,13.175,8,12.996,8l0,0c-0.087,0-0.172-0.023-0.248-0.066l-2-1.145
		c-0.077-0.044-0.164-0.068-0.251-0.068c-0.135,0-0.26,0.052-0.354,0.147s-0.146,0.22-0.146,0.354V14
		C9.996,15.226,8.679,16.187,6.996,16.187z M6.996,12.814c-1.084,0-2,0.543-2,1.186c0,0.643,0.916,1.187,2,1.187s2-0.544,2-1.187
		C8.996,13.357,8.081,12.814,6.996,12.814z"/>
	<path d="M11.496,24c-0.134,0-0.259-0.052-0.354-0.146c-0.119-0.119-0.17-0.288-0.137-0.452l0.75-3.75
		c0.019-0.097,0.067-0.185,0.137-0.255l7.63-7.63c0.493-0.494,1.15-0.766,1.849-0.766c0.698,0,1.354,0.271,1.847,0.763
		c0.498,0.497,0.773,1.156,0.775,1.856c0.002,0.699-0.268,1.357-0.761,1.851L15.6,23.104c-0.07,0.07-0.158,0.117-0.255,0.137
		l-3.75,0.75C11.561,23.997,11.529,24,11.496,24z M12.134,22.863L15,22.29l7.523-7.523c0.631-0.632,0.63-1.656,0-2.285
		c-0.31-0.31-0.72-0.48-1.155-0.48c-0.431,0-0.835,0.167-1.138,0.471l-7.523,7.523L12.134,22.863z"/>
</g>
</svg>
