<?xml version="1.0" encoding="utf-8"?>
<!-- Generator: Adobe Illustrator 22.1.0, SVG Export Plug-In . SVG Version: 6.00 Build 0)  -->
<svg version="1.1" id="Layer_1" xmlns="http://www.w3.org/2000/svg" xmlns:xlink="http://www.w3.org/1999/xlink" x="0px" y="0px"
	 viewBox="0 0 24 24" style="enable-background:new 0 0 24 24;" xml:space="preserve">
<g>
	<title>audio-file-aac</title>
	<path d="M3.5,24C2.673,24,2,23.327,2,22.5v-21C2,0.673,2.673,0,3.5,0h12.025C19.095,0,22,2.905,22,6.475V22.5
		c0,0.827-0.673,1.5-1.5,1.5H3.5z M3.5,1C3.224,1,3,1.224,3,1.5v21C3,22.776,3.224,23,3.5,23h17c0.276,0,0.5-0.224,0.5-0.5V6.475
		C21,6.321,20.993,6.162,20.978,6H17.5C16.673,6,16,5.327,16,4.5V1.022C15.838,1.007,15.681,1,15.525,1H3.5z M17,4.5
		C17,4.776,17.224,5,17.5,5h3.297C20.282,3.164,18.836,1.717,17,1.203V4.5z"/>
	<path d="M8.5,19C8.224,19,8,18.776,8,18.5V16H6v2.5C6,18.776,5.776,19,5.5,19S5,18.776,5,18.5V14c0-1.103,0.897-2,2-2s2,0.897,2,2
		v4.5C9,18.776,8.776,19,8.5,19z M8,15v-1c0-0.552-0.449-1-1-1s-1,0.448-1,1v1H8z"/>
	<path d="M13.5,19c-0.276,0-0.5-0.224-0.5-0.5V16h-2v2.5c0,0.276-0.224,0.5-0.5,0.5S10,18.776,10,18.5V14c0-1.103,0.897-2,2-2
		s2,0.897,2,2v4.5C14,18.776,13.776,19,13.5,19z M13,15v-1c0-0.552-0.448-1-1-1c-0.551,0-1,0.448-1,1L13,15z"/>
	<path d="M18.5,19c-1.93,0-3.5-1.57-3.5-3.5s1.57-3.5,3.5-3.5c0.276,0,0.5,0.224,0.5,0.5c0,0.276-0.224,0.5-0.5,0.5
		c-1.378,0-2.5,1.122-2.5,2.5s1.122,2.5,2.5,2.5c0.276,0,0.5,0.224,0.5,0.5S18.776,19,18.5,19z"/>
</g>
</svg>
