<?xml version="1.0" encoding="utf-8"?>
<!-- Generator: Adobe Illustrator 22.1.0, SVG Export Plug-In . SVG Version: 6.00 Build 0)  -->
<svg version="1.1" id="Layer_1" xmlns="http://www.w3.org/2000/svg" xmlns:xlink="http://www.w3.org/1999/xlink" x="0px" y="0px"
	 viewBox="0 0 24 24" style="enable-background:new 0 0 24 24;" xml:space="preserve">
<g>
	<title>audio-file-equalizer</title>
	<path d="M3.5,24C2.673,24,2,23.327,2,22.5v-21C2,0.673,2.673,0,3.5,0h13.293c0.401,0,0.777,0.156,1.061,0.439l3.707,3.707
		C21.844,4.43,22,4.807,22,5.207V22.5c0,0.827-0.673,1.5-1.5,1.5H3.5z M3.5,1C3.224,1,3,1.224,3,1.5v21C3,22.776,3.224,23,3.5,23h17
		c0.276,0,0.5-0.224,0.5-0.5V5.207c0-0.133-0.052-0.259-0.146-0.354l-3.707-3.707C17.053,1.053,16.925,1,16.793,1H3.5z"/>
	<path d="M5.5,20C5.224,20,5,19.776,5,19.5S5.224,19,5.5,19h3C8.776,19,9,19.224,9,19.5S8.776,20,8.5,20H5.5z"/>
	<path d="M5.5,18C5.224,18,5,17.776,5,17.5S5.224,17,5.5,17h3C8.776,17,9,17.224,9,17.5S8.776,18,8.5,18H5.5z"/>
	<path d="M5.5,16C5.224,16,5,15.776,5,15.5S5.224,15,5.5,15h3C8.776,15,9,15.224,9,15.5S8.776,16,8.5,16H5.5z"/>
	<path d="M5.5,14C5.224,14,5,13.776,5,13.5S5.224,13,5.5,13h3C8.776,13,9,13.224,9,13.5S8.776,14,8.5,14H5.5z"/>
	<path d="M5.5,12C5.224,12,5,11.776,5,11.5S5.224,11,5.5,11h3C8.776,11,9,11.224,9,11.5S8.776,12,8.5,12H5.5z"/>
	<path d="M5.5,10C5.224,10,5,9.776,5,9.5S5.224,9,5.5,9h3C8.776,9,9,9.224,9,9.5S8.776,10,8.5,10H5.5z"/>
	<path d="M5.5,8C5.224,8,5,7.776,5,7.5S5.224,7,5.5,7h3C8.776,7,9,7.224,9,7.5S8.776,8,8.5,8H5.5z"/>
	<path d="M15.5,20c-0.276,0-0.5-0.224-0.5-0.5s0.224-0.5,0.5-0.5h3c0.276,0,0.5,0.224,0.5,0.5S18.776,20,18.5,20H15.5z"/>
	<path d="M15.5,18c-0.276,0-0.5-0.224-0.5-0.5s0.224-0.5,0.5-0.5h3c0.276,0,0.5,0.224,0.5,0.5S18.776,18,18.5,18H15.5z"/>
	<path d="M15.5,16c-0.276,0-0.5-0.224-0.5-0.5s0.224-0.5,0.5-0.5h3c0.276,0,0.5,0.224,0.5,0.5S18.776,16,18.5,16H15.5z"/>
	<path d="M15.5,14c-0.276,0-0.5-0.224-0.5-0.5s0.224-0.5,0.5-0.5h3c0.276,0,0.5,0.224,0.5,0.5S18.776,14,18.5,14H15.5z"/>
	<path d="M15.5,12c-0.276,0-0.5-0.224-0.5-0.5s0.224-0.5,0.5-0.5h3c0.276,0,0.5,0.224,0.5,0.5S18.776,12,18.5,12H15.5z"/>
	<path d="M10.5,20c-0.276,0-0.5-0.224-0.5-0.5s0.224-0.5,0.5-0.5h3c0.276,0,0.5,0.224,0.5,0.5S13.776,20,13.5,20H10.5z"/>
	<path d="M10.5,18c-0.276,0-0.5-0.224-0.5-0.5s0.224-0.5,0.5-0.5h3c0.276,0,0.5,0.224,0.5,0.5S13.776,18,13.5,18H10.5z"/>
	<path d="M10.5,16c-0.276,0-0.5-0.224-0.5-0.5s0.224-0.5,0.5-0.5h3c0.276,0,0.5,0.224,0.5,0.5S13.776,16,13.5,16H10.5z"/>
</g>
</svg>
