<?xml version="1.0" encoding="utf-8"?>
<!-- Generator: Adobe Illustrator 22.1.0, SVG Export Plug-In . SVG Version: 6.00 Build 0)  -->
<svg version="1.1" id="Layer_1" xmlns="http://www.w3.org/2000/svg" xmlns:xlink="http://www.w3.org/1999/xlink" x="0px" y="0px"
	 viewBox="0 0 24 24" style="enable-background:new 0 0 24 24;" xml:space="preserve">
<g>
	<title>audio-document-wav-1</title>
	<path d="M1.5,24C0.673,24,0,23.327,0,22.5v-21C0,0.673,0.673,0,1.5,0h21C23.327,0,24,0.673,24,1.5v21c0,0.827-0.673,1.5-1.5,1.5
		H1.5z M1.5,1C1.224,1,1,1.224,1,1.5v21C1,22.776,1.224,23,1.5,23h21c0.276,0,0.5-0.224,0.5-0.5v-21C23,1.224,22.776,1,22.5,1H1.5z"
		/>
	<path d="M5,20c-0.134,0-0.259-0.052-0.354-0.147C3.585,18.792,3,16.743,3,14.085V11.5C3,11.224,3.224,11,3.5,11S4,11.224,4,11.5
		v2.585c0,1.782,0.28,3.269,0.795,4.268l1.223-4.484C6.077,13.652,6.275,13.5,6.5,13.5s0.423,0.152,0.482,0.369l1.223,4.484
		C8.72,17.354,9,15.867,9,14.085V11.5C9,11.224,9.224,11,9.5,11s0.5,0.224,0.5,0.5v2.585c0,2.658-0.585,4.707-1.646,5.769
		C8.259,19.948,8.134,20,8,20c-0.043,0-0.086-0.006-0.128-0.017c-0.172-0.046-0.308-0.181-0.354-0.352L6.5,15.9l-1.018,3.731
		c-0.047,0.171-0.182,0.306-0.354,0.352C5.086,19.994,5.043,20,5,20z"/>
	<path d="M15.5,20c-0.276,0-0.5-0.224-0.5-0.5V16h-3v3.5c0,0.276-0.224,0.5-0.5,0.5S11,19.776,11,19.5v-6c0-1.379,1.121-2.5,2.5-2.5
		c1.378,0,2.5,1.121,2.5,2.5v6C16,19.776,15.776,20,15.5,20z M15,15v-1.5c0-0.827-0.673-1.5-1.5-1.5S12,12.673,12,13.5L15,15z"/>
	<path d="M19.5,20c-0.153,0-0.295-0.068-0.39-0.187c-1.36-1.7-2.11-3.836-2.11-6.013v-2.3c0-0.276,0.224-0.5,0.5-0.5
		s0.5,0.224,0.5,0.5v2.3c0,1.722,0.531,3.434,1.5,4.859c0.969-1.425,1.5-3.137,1.5-4.859v-2.3c0-0.276,0.224-0.5,0.5-0.5
		s0.5,0.224,0.5,0.5v2.3c0,2.177-0.749,4.312-2.109,6.012C19.795,19.932,19.653,20,19.5,20z"/>
</g>
</svg>
