<?xml version="1.0" encoding="utf-8"?>
<!-- Generator: Adobe Illustrator 22.1.0, SVG Export Plug-In . SVG Version: 6.00 Build 0)  -->
<svg version="1.1" id="Layer_1" xmlns="http://www.w3.org/2000/svg" xmlns:xlink="http://www.w3.org/1999/xlink" x="0px" y="0px"
	 viewBox="0 0 24 24" style="enable-background:new 0 0 24 24;" xml:space="preserve">
<g>
	<title>audio-file-warning</title>
	<path d="M1.499,24c-0.827,0-1.5-0.673-1.5-1.5v-21c0-0.827,0.673-1.5,1.5-1.5h13.293c0.401,0,0.777,0.156,1.061,0.439l3.707,3.707
		c0.283,0.283,0.439,0.66,0.439,1.06V8.5c0,0.276-0.224,0.5-0.5,0.5s-0.5-0.224-0.5-0.5V5.207c0-0.134-0.052-0.259-0.146-0.353
		l-3.707-3.707C15.052,1.053,14.923,1,14.792,1H1.499c-0.276,0-0.5,0.224-0.5,0.5v21c0,0.276,0.224,0.5,0.5,0.5h8
		c0.276,0,0.5,0.224,0.5,0.5S9.775,24,9.499,24H1.499z"/>
	<path d="M6.999,16.187c-1.682,0-3-0.961-3-2.187c0-1.226,1.318-2.186,3-2.186c0.743,0,1.455,0.202,2,0.556V7.223
		c-0.001-0.4,0.155-0.777,0.437-1.061c0.283-0.284,0.659-0.441,1.06-0.441c0.266,0,0.525,0.069,0.753,0.201l1.999,1.144
		c0.239,0.137,0.323,0.443,0.186,0.682C13.344,7.904,13.178,8,12.999,8l0,0c-0.087,0-0.173-0.023-0.248-0.066l-2-1.145
		c-0.077-0.044-0.164-0.068-0.251-0.068c-0.135,0-0.26,0.052-0.354,0.147s-0.146,0.22-0.146,0.354V14
		C9.999,15.226,8.681,16.187,6.999,16.187z M6.999,12.814c-1.084,0-2,0.543-2,1.186c0,0.643,0.916,1.187,2,1.187s2-0.544,2-1.187
		C8.999,13.357,8.083,12.814,6.999,12.814z"/>
	<circle cx="17.499" cy="20.75" r="0.75"/>
	<path d="M17.499,19c-0.276,0-0.5-0.224-0.5-0.5v-3c0-0.276,0.224-0.5,0.5-0.5s0.5,0.224,0.5,0.5v3
		C17.999,18.776,17.775,19,17.499,19z"/>
	<path d="M12.443,23.997c-0.506,0-0.966-0.256-1.232-0.684c-0.263-0.427-0.282-0.968-0.049-1.411l5.056-9.635
		c0.137-0.257,0.344-0.464,0.598-0.599c0.21-0.112,0.445-0.172,0.681-0.172c0.143,0,0.285,0.021,0.423,0.063
		c0.368,0.112,0.671,0.359,0.854,0.698c0.003,0.005,5.062,9.645,5.062,9.645c0.233,0.443,0.214,0.982-0.048,1.409
		c-0.267,0.43-0.727,0.686-1.231,0.686H12.443z M17.498,12.497c-0.073,0-0.145,0.018-0.211,0.053
		c-0.079,0.042-0.143,0.106-0.186,0.185l-5.054,9.632c-0.069,0.132-0.064,0.293,0.014,0.419c0.082,0.131,0.224,0.21,0.38,0.21
		h10.114c0.157,0,0.3-0.079,0.382-0.212c0.077-0.125,0.083-0.286,0.013-0.417l-5.056-9.635c-0.056-0.104-0.15-0.181-0.265-0.216
		C17.586,12.504,17.542,12.497,17.498,12.497z"/>
</g>
</svg>
