<?xml version="1.0" encoding="utf-8"?>
<!-- Generator: Adobe Illustrator 22.1.0, SVG Export Plug-In . SVG Version: 6.00 Build 0)  -->
<svg version="1.1" id="Layer_1" xmlns="http://www.w3.org/2000/svg" xmlns:xlink="http://www.w3.org/1999/xlink" x="0px" y="0px"
	 viewBox="0 0 24 24" style="enable-background:new 0 0 24 24;" xml:space="preserve">
<g>
	<title>audio-file-check</title>
	<path d="M1.5,24C0.673,24,0,23.327,0,22.5v-21C0,0.673,0.673,0,1.5,0h13.293c0.401,0,0.777,0.156,1.061,0.439l3.707,3.707
		C19.844,4.43,20,4.807,20,5.207V8.5C20,8.776,19.776,9,19.5,9S19,8.776,19,8.5V5.207c0-0.133-0.052-0.259-0.146-0.354l-3.707-3.707
		C15.053,1.053,14.925,1,14.793,1H1.5C1.224,1,1,1.224,1,1.5v21C1,22.776,1.224,23,1.5,23h8c0.276,0,0.5,0.224,0.5,0.5
		S9.776,24,9.5,24H1.5z"/>
	<path d="M7,16.187c-1.682,0-3-0.961-3-2.187s1.318-2.187,3-2.187c0.743,0,1.455,0.203,2,0.556V7.223
		c-0.001-0.4,0.155-0.777,0.437-1.061c0.283-0.284,0.659-0.441,1.06-0.441c0.266,0,0.525,0.069,0.753,0.201l1.998,1.144
		c0.239,0.137,0.323,0.443,0.186,0.682C13.345,7.904,13.179,8,13,8l0,0c-0.087,0-0.173-0.023-0.248-0.066l-2-1.145
		c-0.077-0.044-0.164-0.068-0.251-0.068c-0.135,0-0.26,0.052-0.354,0.147S10,7.089,10,7.222V14C10,15.226,8.682,16.187,7,16.187z
		 M7,12.813c-1.084,0-2,0.544-2,1.187s0.916,1.187,2,1.187S9,14.643,9,14S8.084,12.813,7,12.813z"/>
	<path d="M17.5,24c-3.584,0-6.5-2.916-6.5-6.5s2.916-6.5,6.5-6.5s6.5,2.916,6.5,6.5S21.084,24,17.5,24z M17.5,12
		c-3.033,0-5.5,2.467-5.5,5.5s2.467,5.5,5.5,5.5s5.5-2.467,5.5-5.5S20.533,12,17.5,12z"/>
	<path d="M16.667,20.428c-0.273,0-0.533-0.087-0.751-0.251c-0.047-0.035-0.09-0.073-0.131-0.114l-1.5-1.5
		c-0.195-0.195-0.195-0.512,0-0.707c0.094-0.094,0.22-0.146,0.354-0.146s0.259,0.052,0.354,0.146l1.5,1.5
		c0.008,0.008,0.017,0.016,0.027,0.023c0.042,0.032,0.094,0.049,0.149,0.049c0.081,0,0.154-0.037,0.202-0.1l2.905-3.872
		c0.093-0.125,0.243-0.2,0.4-0.2c0.109,0,0.213,0.035,0.3,0.1c0.107,0.08,0.176,0.197,0.195,0.329
		c0.019,0.132-0.015,0.264-0.095,0.371l-2.905,3.872C17.434,20.242,17.059,20.428,16.667,20.428z"/>
</g>
</svg>
