<svg xmlns="http://www.w3.org/2000/svg" viewBox="0 0 24 24"><defs><style>.a{fill:none;stroke:currentColor;stroke-linecap:round;stroke-linejoin:round;}</style></defs><title>camera-settings-frame-1</title><path class="a" d="M9,7.746l1.083-1.587a1.061,1.061,0,0,1,.781-.413h2.272a1.061,1.061,0,0,1,.781.413l.8,1.174a1.063,1.063,0,0,0,.782.413H17a1.671,1.671,0,0,1,1.5,1.682v5.818a1.5,1.5,0,0,1-1.5,1.5H7a1.5,1.5,0,0,1-1.5-1.5V9.428A1.671,1.671,0,0,1,7,7.746H9"/><circle class="a" cx="12" cy="12.246" r="2.5"/><path class="a" d="M20.5,7.754a1.85,1.85,0,0,1,1,1.5,1.85,1.85,0,0,1-1,1.5"/><path class="a" d="M20.5,13.754a1.85,1.85,0,0,1,1,1.5,1.85,1.85,0,0,1-1,1.5"/><path class="a" d="M22,6.254a3.75,3.75,0,0,1,0,6,3.75,3.75,0,0,1,0,6"/><path class="a" d="M3.5,7.754a1.85,1.85,0,0,0-1,1.5,1.85,1.85,0,0,0,1,1.5"/><path class="a" d="M3.5,13.754a1.85,1.85,0,0,0-1,1.5,1.85,1.85,0,0,0,1,1.5"/><path class="a" d="M2,6.254a3.75,3.75,0,0,0,0,6,3.75,3.75,0,0,0,0,6"/></svg>