<svg xmlns="http://www.w3.org/2000/svg" viewBox="0 0 24 24"><defs><style>.a{fill:none;stroke:currentColor;stroke-linecap:round;stroke-linejoin:round;}</style></defs><title>camera-settings-rotate</title><polyline class="a" points="6.516 16.186 8.997 19.354 5.5 21.492"/><path class="a" d="M15.818,4.508H19a1.672,1.672,0,0,1,1.5,1.681v6.819a1.5,1.5,0,0,1-1.5,1.5H5a1.5,1.5,0,0,1-1.5-1.5V6.189A1.672,1.672,0,0,1,5,4.508H8.182"/><path class="a" d="M8.182,4.508,9.995,2.846a1.485,1.485,0,0,1,.868-.338h2.274a1.485,1.485,0,0,1,.868.338l1.813,1.662"/><path class="a" d="M22.305,13.008a2.643,2.643,0,0,1,1.2,2c0,2.353-4.618,4.3-10.5,4.5"/><path class="a" d="M9,19.353C4.1,18.837.5,17.087.5,15.008A2.63,2.63,0,0,1,1.681,13.02"/><circle class="a" cx="12" cy="9.008" r="2.5"/><path class="a" d="M17.5,7.258a.25.25,0,1,1-.25.25.25.25,0,0,1,.25-.25"/></svg>