<svg xmlns="http://www.w3.org/2000/svg" viewBox="0 0 24 24"><defs><style>.a{fill:none;stroke:currentColor;stroke-linecap:round;stroke-linejoin:round;}</style></defs><title>camera-settings-focus</title><path class="a" d="M8.5,7a1.063,1.063,0,0,0,.782-.413l.8-1.174A1.061,1.061,0,0,1,10.864,5h2.272a1.061,1.061,0,0,1,.781.413l.8,1.174A1.063,1.063,0,0,0,15.5,7H17a1.671,1.671,0,0,1,1.5,1.682V14.5A1.5,1.5,0,0,1,17,16H7a1.5,1.5,0,0,1-1.5-1.5V8.682A1.671,1.671,0,0,1,7,7Z"/><circle class="a" cx="12" cy="11.5" r="2.5"/><path class="a" d="M.5,8a3,3,0,0,1,3-3"/><path class="a" d="M2.5,8a1,1,0,0,1,1-1"/><path class="a" d="M.5,16a3,3,0,0,0,3,3"/><path class="a" d="M2.5,16a1,1,0,0,0,1,1"/><path class="a" d="M23.5,8a3,3,0,0,0-3-3"/><path class="a" d="M21.5,8a1,1,0,0,0-1-1"/><path class="a" d="M23.5,16a3,3,0,0,1-3,3"/><path class="a" d="M21.5,16a1,1,0,0,1-1,1"/></svg>