<svg xmlns="http://www.w3.org/2000/svg" viewBox="0 0 24 24"><defs><style>.a{fill:none;stroke:currentColor;stroke-linecap:round;stroke-linejoin:round;}</style></defs><title>camera-settings-pin</title><path class="a" d="M11.293,20.3a.777.777,0,0,0,1.414,0L15,15.25h4a1.5,1.5,0,0,0,1.5-1.5V6.932A1.671,1.671,0,0,0,19,5.25H16L14.707,3.957A2.414,2.414,0,0,0,13,3.25H11a2.414,2.414,0,0,0-1.707.707L8,5.25H5A1.671,1.671,0,0,0,3.5,6.932V13.75A1.5,1.5,0,0,0,5,15.25H9Z"/><circle class="a" cx="12" cy="9.75" r="3"/></svg>