<svg xmlns="http://www.w3.org/2000/svg" viewBox="0 0 24 24"><defs><style>.a{fill:none;stroke:currentColor;stroke-linecap:round;stroke-linejoin:round;stroke-width:1.5px;}</style></defs><title>camera-tripod-1</title><line class="a" x1="12" y1="14.982" x2="12" y2="23.25"/><line class="a" x1="9.75" y1="14.982" x2="14.25" y2="14.982"/><polyline class="a" points="15.75 23.25 12 19.5 8.25 23.25"/><line class="a" x1="12" y1="17.982" x2="7.5" y2="17.982"/><path class="a" d="M8.526,2.25,10.1.75h3.775l1.574,1.5h1.57A1.812,1.812,0,0,1,18.75,3.992v6.437a1.654,1.654,0,0,1-1.731,1.553H6.981A1.654,1.654,0,0,1,5.25,10.429V3.992A1.812,1.812,0,0,1,6.981,2.25H8.526"/><circle class="a" cx="12" cy="6.732" r="2.25"/><line class="a" x1="7.5" y1="17.232" x2="7.5" y2="18.732"/></svg>