<svg xmlns="http://www.w3.org/2000/svg" viewBox="0 0 24 24"><title>connect-device-exchange</title><path d="M9.5,14.25V16.5a1,1,0,0,1-1,1h-6a1,1,0,0,1-1-1V5a1,1,0,0,1,1-1h6a1,1,0,0,1,1,1V8.75A.25.25,0,0,0,9.75,9h1A.25.25,0,0,0,11,8.75V4.5A2.5,2.5,0,0,0,8.5,2h-6A2.5,2.5,0,0,0,0,4.5v15A2.5,2.5,0,0,0,2.5,22h6A2.5,2.5,0,0,0,11,19.5V14.25a.25.25,0,0,0-.25-.25h-1A.25.25,0,0,0,9.5,14.25Z"/><path d="M21.5,2h-6A2.5,2.5,0,0,0,13,4.5V8.75a.25.25,0,0,0,.25.25h1a.25.25,0,0,0,.25-.25V5a1,1,0,0,1,1-1h6a1,1,0,0,1,1,1V16.5a1,1,0,0,1-1,1h-6a1,1,0,0,1-1-1V14.25a.25.25,0,0,0-.25-.25h-1a.25.25,0,0,0-.25.25V19.5A2.5,2.5,0,0,0,15.5,22h6A2.5,2.5,0,0,0,24,19.5V4.5A2.5,2.5,0,0,0,21.5,2Z"/><path d="M16,12.5v.808a1,1,0,0,0,.617.923,1.007,1.007,0,0,0,1.09-.216L19.5,12.222a1,1,0,0,0,0-1.414L17.707,9.015A1,1,0,0,0,16,9.722V10.5H8V9.722a1,1,0,0,0-1.707-.707L4.5,10.808a1,1,0,0,0,0,1.414l1.793,1.793a1.053,1.053,0,0,0,1.09.216A1,1,0,0,0,8,13.308V12.5Z"/></svg>