<?xml version="1.0" encoding="utf-8"?>
<!-- Generator: Adobe Illustrator 22.1.0, SVG Export Plug-In . SVG Version: 6.00 Build 0)  -->
<svg version="1.1" id="Layer_1" xmlns="http://www.w3.org/2000/svg" xmlns:xlink="http://www.w3.org/1999/xlink" x="0px" y="0px"
	 viewBox="0 0 24 24" style="enable-background:new 0 0 24 24;" xml:space="preserve">
<g>
	<title>keyboard-wireless-gaming</title>
	<path d="M18,3.808c-0.099,0-0.195-0.029-0.278-0.084C16.017,2.586,14.038,1.985,12,1.985c-2.038,0-4.017,0.601-5.723,1.739
		C6.195,3.779,6.099,3.808,6,3.808c0,0,0,0,0,0c-0.168,0-0.323-0.083-0.416-0.223c-0.153-0.229-0.091-0.54,0.138-0.693
		C7.594,1.644,9.765,0.985,12,0.985c2.236,0,4.406,0.659,6.277,1.907c0.111,0.074,0.187,0.187,0.213,0.318
		c0.026,0.131,0,0.264-0.074,0.375C18.323,3.725,18.168,3.808,18,3.808z"/>
	<path d="M16.588,5.926c-0.099,0-0.195-0.029-0.278-0.084c-1.285-0.857-2.775-1.31-4.31-1.31c-1.535,0-3.025,0.453-4.31,1.31
		C7.607,5.897,7.511,5.926,7.412,5.926c-0.167,0-0.323-0.083-0.416-0.222C6.843,5.474,6.905,5.163,7.134,5.01
		C8.584,4.043,10.267,3.531,12,3.531c1.733,0,3.415,0.511,4.865,1.479c0.111,0.074,0.187,0.187,0.213,0.318
		c0.026,0.131,0,0.264-0.074,0.375C16.91,5.843,16.755,5.926,16.588,5.926z"/>
	<path d="M15.177,8.044c-0.099,0-0.195-0.029-0.277-0.084c-0.865-0.576-1.867-0.881-2.9-0.881c-1.033,0-2.035,0.305-2.9,0.881
		C9.018,8.015,8.922,8.044,8.823,8.044c-0.168,0-0.323-0.083-0.416-0.223C8.254,7.592,8.316,7.281,8.546,7.128
		C9.575,6.442,10.77,6.079,12,6.079c1.23,0,2.425,0.363,3.454,1.049c0.111,0.074,0.187,0.187,0.213,0.318
		c0.026,0.131,0,0.264-0.074,0.376C15.5,7.961,15.345,8.044,15.177,8.044z"/>
	<path d="M7.5,22.991c-0.134,0-0.259-0.052-0.354-0.146l-0.854-0.854H2.5c-1.379,0-2.5-1.122-2.5-2.5v-5c0-1.378,1.121-2.5,2.5-2.5
		h3.793l0.854-0.854c0.094-0.094,0.22-0.146,0.354-0.146h9c0.134,0,0.259,0.052,0.354,0.146l0.854,0.854H21.5
		c1.378,0,2.5,1.122,2.5,2.5v5c0,1.378-1.122,2.5-2.5,2.5h-3.793l-0.854,0.854c-0.094,0.094-0.22,0.146-0.354,0.146H7.5z
		 M16.293,21.991l0.854-0.854c0.094-0.094,0.22-0.146,0.354-0.146h4c0.827,0,1.5-0.673,1.5-1.5v-0.5h-1.5
		c-0.276,0-0.5-0.224-0.5-0.5v-4c0-0.276,0.224-0.5,0.5-0.5h1.412c-0.209-0.586-0.772-1-1.412-1h-4
		c-0.134,0-0.259-0.052-0.354-0.146l-0.854-0.854H7.707l-0.854,0.854c-0.094,0.094-0.22,0.146-0.354,0.146h-4
		c-0.64,0-1.203,0.414-1.412,1H2.5c0.276,0,0.5,0.224,0.5,0.5v4c0,0.276-0.224,0.5-0.5,0.5H1v0.5c0,0.827,0.673,1.5,1.5,1.5h4
		c0.134,0,0.259,0.052,0.354,0.146l0.854,0.854H16.293z M23,17.991v-3h-1v3H23z M2,17.991v-3H1v3H2z"/>
	<path d="M7.5,19.991c-0.276,0-0.5-0.224-0.5-0.5s0.224-0.5,0.5-0.5h9c0.276,0,0.5,0.224,0.5,0.5s-0.224,0.5-0.5,0.5H7.5z"/>
	<path d="M11.5,14.991c-0.276,0-0.5-0.224-0.5-0.5s0.224-0.5,0.5-0.5h1c0.276,0,0.5,0.224,0.5,0.5s-0.224,0.5-0.5,0.5H11.5z"/>
	<path d="M8.5,14.991c-0.276,0-0.5-0.224-0.5-0.5s0.224-0.5,0.5-0.5h1c0.276,0,0.5,0.224,0.5,0.5s-0.224,0.5-0.5,0.5H8.5z"/>
	<path d="M14.5,14.991c-0.276,0-0.5-0.224-0.5-0.5s0.224-0.5,0.5-0.5h1c0.276,0,0.5,0.224,0.5,0.5s-0.224,0.5-0.5,0.5H14.5z"/>
	<path d="M17.5,14.991c-0.276,0-0.5-0.224-0.5-0.5s0.224-0.5,0.5-0.5h1c0.276,0,0.5,0.224,0.5,0.5s-0.224,0.5-0.5,0.5H17.5z"/>
	<path d="M5.5,14.991c-0.276,0-0.5-0.224-0.5-0.5s0.224-0.5,0.5-0.5h1c0.276,0,0.5,0.224,0.5,0.5S5.5,14.991,5.5,14.991z"/>
	<path d="M11.5,16.991c-0.276,0-0.5-0.224-0.5-0.5s0.224-0.5,0.5-0.5h1c0.276,0,0.5,0.224,0.5,0.5s-0.224,0.5-0.5,0.5H11.5z"/>
	<path d="M8.5,16.991c-0.276,0-0.5-0.224-0.5-0.5s0.224-0.5,0.5-0.5h1c0.276,0,0.5,0.224,0.5,0.5s-0.224,0.5-0.5,0.5H8.5z"/>
	<path d="M14.5,16.991c-0.276,0-0.5-0.224-0.5-0.5s0.224-0.5,0.5-0.5h1c0.276,0,0.5,0.224,0.5,0.5s-0.224,0.5-0.5,0.5H14.5z"/>
	<path d="M17.5,16.991c-0.276,0-0.5-0.224-0.5-0.5s0.224-0.5,0.5-0.5h1c0.276,0,0.5,0.224,0.5,0.5s-0.224,0.5-0.5,0.5H17.5z"/>
	<path d="M5.5,16.991c-0.276,0-0.5-0.224-0.5-0.5s0.224-0.5,0.5-0.5h1c0.276,0,0.5,0.224,0.5,0.5s-0.224,0.5-0.5,0.5H5.5z"/>
</g>
</svg>
