<?xml version="1.0" encoding="utf-8"?>
<!-- Generator: Adobe Illustrator 22.1.0, SVG Export Plug-In . SVG Version: 6.00 Build 0)  -->
<svg version="1.1" id="Layer_1" xmlns="http://www.w3.org/2000/svg" xmlns:xlink="http://www.w3.org/1999/xlink" x="0px" y="0px"
	 viewBox="0 0 24 24" style="enable-background:new 0 0 24 24;" xml:space="preserve">
<g>
	<title>keyboard</title>
	<path d="M2.5,24C1.121,24,0,22.878,0,21.5v-6C0,14.122,1.121,13,2.5,13H3v-0.5C3,10.57,4.57,9,6.5,9H20c1.654,0,3-1.346,3-3
		s-1.346-3-3-3h-6.5c-1.103,0-2-0.897-2-2V0.5C11.5,0.224,11.724,0,12,0c0.276,0,0.5,0.224,0.5,0.5V1c0,0.551,0.448,1,1,1H20
		c2.206,0,4,1.794,4,4s-1.794,4-4,4H6.5C5.121,10,4,11.121,4,12.5V13h17.5c1.378,0,2.5,1.122,2.5,2.5v6c0,1.378-1.122,2.5-2.5,2.5
		H2.5z M2.5,14C1.673,14,1,14.673,1,15.5v6C1,22.327,1.673,23,2.5,23h19c0.827,0,1.5-0.673,1.5-1.5v-6c0-0.827-0.673-1.5-1.5-1.5
		H2.5z"/>
	<path d="M4,21c-0.276,0-0.5-0.224-0.5-0.5S3.724,20,4,20h1c0.276,0,0.5,0.224,0.5,0.5S5.276,21,5,21H4z"/>
	<path d="M4,19c-0.276,0-0.5-0.224-0.5-0.5S3.724,18,4,18h1c0.276,0,0.5,0.224,0.5,0.5S5.276,19,5,19H4z"/>
	<path d="M7,19c-0.276,0-0.5-0.224-0.5-0.5S6.724,18,7,18h1c0.276,0,0.5,0.224,0.5,0.5S8.276,19,8,19H7z"/>
	<path d="M10,19c-0.276,0-0.5-0.224-0.5-0.5S9.724,18,10,18h1c0.276,0,0.5,0.224,0.5,0.5S11.276,19,11,19H10z"/>
	<path d="M13,19c-0.276,0-0.5-0.224-0.5-0.5S12.724,18,13,18h1c0.276,0,0.5,0.224,0.5,0.5S14.276,19,14,19H13z"/>
	<path d="M16,19c-0.276,0-0.5-0.224-0.5-0.5S15.724,18,16,18h1c0.276,0,0.5,0.224,0.5,0.5S17.276,19,17,19H16z"/>
	<path d="M19,19c-0.276,0-0.5-0.224-0.5-0.5S18.724,18,19,18h1c0.276,0,0.5,0.224,0.5,0.5S20.276,19,20,19H19z"/>
	<path d="M4,17c-0.276,0-0.5-0.224-0.5-0.5S3.724,16,4,16h1c0.276,0,0.5,0.224,0.5,0.5S5.276,17,5,17H4z"/>
	<path d="M7,17c-0.276,0-0.5-0.224-0.5-0.5S6.724,16,7,16h1c0.276,0,0.5,0.224,0.5,0.5S8.276,17,8,17H7z"/>
	<path d="M10,17c-0.276,0-0.5-0.224-0.5-0.5S9.724,16,10,16h1c0.276,0,0.5,0.224,0.5,0.5S11.276,17,11,17H10z"/>
	<path d="M13,17c-0.276,0-0.5-0.224-0.5-0.5S12.724,16,13,16h1c0.276,0,0.5,0.224,0.5,0.5S14.276,17,14,17H13z"/>
	<path d="M16,17c-0.276,0-0.5-0.224-0.5-0.5S15.724,16,16,16h1c0.276,0,0.5,0.224,0.5,0.5S17.276,17,17,17H16z"/>
	<path d="M19,17c-0.276,0-0.5-0.224-0.5-0.5S18.724,16,19,16h1c0.276,0,0.5,0.224,0.5,0.5S20.276,17,20,17H19z"/>
	<path d="M7,21c-0.276,0-0.5-0.224-0.5-0.5S6.724,20,7,20h10c0.276,0,0.5,0.224,0.5,0.5S17.276,21,17,21H7z"/>
	<path d="M19,21c-0.276,0-0.5-0.224-0.5-0.5S18.724,20,19,20h1c0.276,0,0.5,0.224,0.5,0.5S20.276,21,20,21H19z"/>
</g>
</svg>
