<?xml version="1.0" encoding="utf-8"?>
<!-- Generator: Adobe Illustrator 22.1.0, SVG Export Plug-In . SVG Version: 6.00 Build 0)  -->
<svg version="1.1" id="Layer_1" xmlns="http://www.w3.org/2000/svg" xmlns:xlink="http://www.w3.org/1999/xlink" x="0px" y="0px"
	 viewBox="0 0 24 24" style="enable-background:new 0 0 24 24;" xml:space="preserve">
<g>
	<title>keyboard-2</title>
	<path d="M1.5,24C0.673,24,0,23.327,0,22.5v-8C0,13.673,0.673,13,1.5,13H4v-1.5C4,9.57,5.57,8,7.5,8h13C21.878,8,23,6.879,23,5.5
		S21.878,3,20.5,3H14c-1.378,0-2.5-1.121-2.5-2.5C11.5,0.224,11.724,0,12,0c0.276,0,0.5,0.224,0.5,0.5C12.5,1.327,13.173,2,14,2h6.5
		C22.43,2,24,3.57,24,5.5S22.43,9,20.5,9h-13C6.121,9,5,10.121,5,11.5V13h17.5c0.827,0,1.5,0.673,1.5,1.5v8
		c0,0.827-0.673,1.5-1.5,1.5H1.5z M22.5,23c0.276,0,0.5-0.224,0.5-0.5v-8c0-0.276-0.224-0.5-0.5-0.5h-21C1.224,14,1,14.224,1,14.5v8
		C1,22.776,1.224,23,1.5,23H4v-1.5C4,21.224,4.224,21,4.5,21h15c0.276,0,0.5,0.224,0.5,0.5V23H22.5z M19,23v-1H5v1H19z"/>
	<path d="M2.5,16C2.224,16,2,15.776,2,15.5S2.224,15,2.5,15h19c0.276,0,0.5,0.224,0.5,0.5S21.776,16,21.5,16H2.5z"/>
	<path d="M2.5,18C2.224,18,2,17.776,2,17.5S2.224,17,2.5,17h19c0.276,0,0.5,0.224,0.5,0.5S21.776,18,21.5,18H2.5z"/>
	<path d="M2.5,20C2.224,20,2,19.776,2,19.5S2.224,19,2.5,19h19c0.276,0,0.5,0.224,0.5,0.5S21.776,20,21.5,20H2.5z"/>
</g>
</svg>
