<?xml version="1.0" encoding="utf-8"?>
<!-- Generator: Adobe Illustrator 22.1.0, SVG Export Plug-In . SVG Version: 6.00 Build 0)  -->
<svg version="1.1" id="Layer_1" xmlns="http://www.w3.org/2000/svg" xmlns:xlink="http://www.w3.org/1999/xlink" x="0px" y="0px"
	 viewBox="0 0 24 24" style="enable-background:new 0 0 24 24;" xml:space="preserve">
<g>
	<title>touchpad</title>
	<path d="M7.173,19.152c-1.186,0-2.16-0.963-2.173-2.146V7.234C5.005,6.029,5.951,5.049,7.153,5L19.5,5
		c1.219,0.051,2.159,1.034,2.15,2.238V15c0,0.276-0.224,0.5-0.5,0.5s-0.5-0.224-0.5-0.5V9H6v8c0.007,0.634,0.533,1.152,1.171,1.152
		H11c0.276,0,0.5,0.224,0.5,0.5s-0.224,0.5-0.5,0.5H7.173z M20.65,8V7.234C20.655,6.571,20.143,6.03,19.484,6L7.173,6
		C6.522,6.026,6.003,6.57,6,7.236V8H20.65z"/>
	<path d="M22.5,24c-0.034,0-0.067-0.003-0.1-0.01c-0.269-0.054-0.445-0.318-0.391-0.588l0.983-4.914
		C22.998,18.463,23,18.436,23,18.41c0-0.171-0.112-0.321-0.278-0.371l-4.366-1.31C18.146,16.666,18,16.469,18,16.25V11.5
		c0-0.276-0.224-0.5-0.5-0.5S17,11.224,17,11.5v8.021c0,0.235-0.167,0.44-0.396,0.489c-0.032,0.007-0.07,0.011-0.106,0.011
		c-0.195,0-0.373-0.116-0.454-0.296c-0.594-1.33-1.475-1.835-2.049-1.864l-0.045-0.001c-0.181,0-0.328,0.054-0.376,0.137
		c-0.052,0.091-0.038,0.313,0.176,0.638l3.059,4.588c0.074,0.111,0.101,0.244,0.074,0.375c-0.026,0.131-0.102,0.244-0.213,0.318
		C16.585,23.971,16.49,24,16.391,24c-0.168,0-0.323-0.083-0.416-0.222l-3.061-4.591c-0.546-0.833-0.365-1.415-0.208-1.687
		c0.233-0.406,0.688-0.639,1.25-0.639c0.029,0,0.058,0.001,0.088,0.002c0.679,0.034,1.378,0.397,1.957,0.997V11.5
		c0-0.827,0.673-1.5,1.5-1.5s1.5,0.673,1.5,1.5v4.378l4.01,1.203c0.592,0.178,0.99,0.713,0.99,1.331c0,0.092-0.009,0.182-0.026,0.27
		l-0.983,4.916C22.944,23.831,22.738,24,22.5,24z"/>
	<path d="M3,6.5C2.724,6.5,2.5,6.276,2.5,6c0-1.93,1.57-3.5,3.5-3.5c0.276,0,0.5,0.224,0.5,0.5S6.276,3.5,6,3.5
		C4.621,3.5,3.5,4.621,3.5,6C3.5,6.276,3.276,6.5,3,6.5z"/>
	<path d="M0.5,6.5C0.224,6.5,0,6.276,0,6c0-3.308,2.692-6,6-6c0.276,0,0.5,0.224,0.5,0.5S6.276,1,6,1C3.243,1,1,3.243,1,6
		C1,6.276,0.776,6.5,0.5,6.5z"/>
</g>
</svg>
