<?xml version="1.0" encoding="utf-8"?>
<!-- Generator: Adobe Illustrator 22.1.0, SVG Export Plug-In . SVG Version: 6.00 Build 0)  -->
<svg version="1.1" id="Layer_1" xmlns="http://www.w3.org/2000/svg" xmlns:xlink="http://www.w3.org/1999/xlink" x="0px" y="0px"
	 viewBox="0 0 24 24" style="enable-background:new 0 0 24 24;" xml:space="preserve">
<title>remove-tab</title>
<g>
	<path d="M2.247,18.75c-1.241,0-2.25-1.009-2.25-2.25v-9c0-1.241,1.009-2.25,2.25-2.25h16.688c0.781,0,1.494,0.395,1.908,1.057
		l2.812,4.5c0.453,0.724,0.453,1.661,0,2.385l-2.812,4.505c-0.416,0.66-1.128,1.053-1.905,1.053H2.247z M2.247,6.75
		c-0.414,0-0.75,0.336-0.75,0.75v9c0,0.414,0.336,0.75,0.75,0.75h16.688c0.262,0,0.499-0.131,0.638-0.35l2.81-4.502
		c0.151-0.242,0.151-0.554,0-0.795l-2.812-4.5c-0.138-0.221-0.375-0.352-0.636-0.352H2.247z"/>
	<path d="M8.337,14.341c-0.2,0-0.389-0.078-0.53-0.22l-1.061-1.061l-1.06,1.061c-0.142,0.142-0.33,0.22-0.531,0.22
		s-0.389-0.078-0.53-0.22c-0.142-0.141-0.22-0.33-0.22-0.53s0.078-0.389,0.219-0.531L5.686,12l-1.061-1.061
		c-0.292-0.293-0.292-0.768,0-1.061c0.142-0.142,0.33-0.22,0.53-0.22s0.389,0.078,0.53,0.22l1.061,1.061l1.06-1.061
		c0.142-0.142,0.33-0.22,0.53-0.22s0.389,0.078,0.53,0.219c0.293,0.293,0.293,0.768,0,1.061L7.807,12l1.061,1.061
		c0.142,0.142,0.219,0.33,0.219,0.531s-0.078,0.389-0.22,0.53C8.726,14.263,8.538,14.341,8.337,14.341z"/>
</g>
</svg>
