<?xml version="1.0" encoding="utf-8"?>
<!-- Generator: Adobe Illustrator 22.1.0, SVG Export Plug-In . SVG Version: 6.00 Build 0)  -->
<svg version="1.1" id="Layer_1" xmlns="http://www.w3.org/2000/svg" xmlns:xlink="http://www.w3.org/1999/xlink" x="0px" y="0px"
	 viewBox="0 0 24 24" style="enable-background:new 0 0 24 24;" xml:space="preserve">
<title>remove-square-1</title>
<g>
	<path d="M15.182,15.931c-0.2,0-0.389-0.078-0.53-0.22L12,13.06l-2.652,2.651c-0.142,0.142-0.33,0.22-0.53,0.22
		c-0.201,0-0.389-0.078-0.531-0.22c-0.292-0.292-0.292-0.768,0-1.06L10.939,12L8.288,9.348c-0.142-0.141-0.22-0.33-0.22-0.53
		c0-0.2,0.078-0.389,0.22-0.53c0.141-0.142,0.33-0.22,0.53-0.22s0.389,0.078,0.53,0.22L12,10.939l2.652-2.651
		c0.142-0.142,0.33-0.22,0.53-0.22s0.389,0.078,0.53,0.22c0.142,0.142,0.22,0.33,0.22,0.53c0,0.2-0.078,0.389-0.22,0.53L13.061,12
		l2.652,2.651c0.292,0.292,0.292,0.768,0,1.061C15.571,15.853,15.382,15.931,15.182,15.931z"/>
	<path d="M3.75,24C1.682,24,0,22.318,0,20.25V3.75C0,1.682,1.682,0,3.75,0h16.5C22.318,0,24,1.682,24,3.75v16.5
		c0,2.068-1.682,3.75-3.75,3.75H3.75z M3.75,1.5C2.509,1.5,1.5,2.509,1.5,3.75v16.5c0,1.241,1.009,2.25,2.25,2.25h16.5
		c1.241,0,2.25-1.009,2.25-2.25V3.75c0-1.241-1.009-2.25-2.25-2.25H3.75z"/>
</g>
</svg>
