<?xml version="1.0" encoding="utf-8"?>
<!-- Generator: Adobe Illustrator 22.1.0, SVG Export Plug-In . SVG Version: 6.00 Build 0)  -->
<svg version="1.1" id="Layer_1" xmlns="http://www.w3.org/2000/svg" xmlns:xlink="http://www.w3.org/1999/xlink" x="0px" y="0px"
	 viewBox="0 0 24 24" style="enable-background:new 0 0 24 24;" xml:space="preserve">
<title>remove-bold</title>
<g>
	<path d="M18.372,24.004c-1.163,0-2.257-0.454-3.079-1.277L12,19.435c0,0-3.294,3.296-3.296,3.298
		c-0.822,0.82-1.914,1.271-3.074,1.271c-1.165,0-2.258-0.454-3.081-1.277l-1.273-1.271c-1.699-1.705-1.698-4.469,0-6.162
		l3.292-3.291L1.276,8.712C0.453,7.886,0,6.79,0,5.626C0.001,4.462,0.454,3.37,1.277,2.551l1.266-1.269
		C3.37,0.455,4.463,0.003,5.627,0.003c1.165,0,2.259,0.453,3.081,1.275L12,4.57l3.293-3.293c0.821-0.821,1.915-1.273,3.079-1.273
		s2.258,0.452,3.079,1.273l1.273,1.271c0.827,0.83,1.281,1.927,1.279,3.089c-0.002,1.162-0.456,2.253-1.28,3.074l-3.29,3.292
		l3.294,3.29c0.824,0.827,1.277,1.923,1.276,3.087c-0.001,1.164-0.454,2.256-1.277,3.075l-1.271,1.271
		c-0.83,0.827-1.922,1.279-3.083,1.279H18.372z M12,17.624c0.2,0,0.388,0.078,0.53,0.219l3.823,3.823
		c0.54,0.54,1.256,0.837,2.019,0.837c0.762,0,1.479-0.296,2.018-0.834c0.001-0.001,1.277-1.277,1.277-1.277
		c1.114-1.11,1.117-2.918,0.008-4.032l-3.833-3.827c-0.14-0.139-0.22-0.333-0.22-0.531c0-0.2,0.078-0.388,0.219-0.53l3.822-3.824
		c0.54-0.538,0.838-1.254,0.839-2.015c0.001-0.761-0.294-1.478-0.831-2.017L20.39,2.339c-0.539-0.538-1.255-0.835-2.019-0.835
		s-1.48,0.296-2.018,0.834l-3.823,3.823C12.393,6.298,12.2,6.377,12,6.377c-0.2,0-0.393-0.078-0.53-0.215L7.647,2.338
		c-0.538-0.539-1.256-0.836-2.02-0.836c-0.761,0-1.477,0.295-2.015,0.831L2.337,3.612C1.797,4.15,1.499,4.866,1.497,5.627
		s0.294,1.477,0.831,2.017l3.831,3.829c0.142,0.142,0.22,0.33,0.22,0.531c0,0.2-0.078,0.388-0.219,0.53l-3.823,3.822
		c-1.114,1.11-1.117,2.918-0.008,4.032l1.281,1.279c0.54,0.54,1.257,0.837,2.019,0.838c0.761,0,1.476-0.295,2.015-0.831
		c0.005-0.005,3.826-3.829,3.826-3.829C11.611,17.702,11.8,17.624,12,17.624z"/>
</g>
</svg>
