<?xml version="1.0" encoding="utf-8"?>
<!-- Generator: Adobe Illustrator 22.1.0, SVG Export Plug-In . SVG Version: 6.00 Build 0)  -->
<svg version="1.1" id="Layer_1" xmlns="http://www.w3.org/2000/svg" xmlns:xlink="http://www.w3.org/1999/xlink" x="0px" y="0px"
	 viewBox="0 0 24 24" style="enable-background:new 0 0 24 24;" xml:space="preserve">
<title>remove</title>
<g>
	<path d="M19.5,20.25c-0.2,0-0.389-0.078-0.53-0.22L12,13.061l-6.97,6.97c-0.142,0.142-0.33,0.22-0.53,0.22s-0.389-0.078-0.53-0.22
		c-0.292-0.292-0.292-0.768,0-1.061l6.97-6.97L3.97,5.03C3.828,4.889,3.75,4.7,3.75,4.5s0.078-0.389,0.22-0.53
		C4.111,3.828,4.3,3.75,4.5,3.75s0.389,0.078,0.53,0.22l6.97,6.97l6.97-6.97c0.142-0.142,0.33-0.22,0.53-0.22s0.389,0.078,0.53,0.22
		c0.142,0.141,0.22,0.33,0.22,0.53s-0.078,0.389-0.22,0.53L13.061,12l6.97,6.97c0.292,0.292,0.292,0.768,0,1.061
		C19.889,20.172,19.7,20.25,19.5,20.25z"/>
</g>
</svg>
