<?xml version="1.0" encoding="utf-8"?>
<!-- Generator: Adobe Illustrator 22.1.0, SVG Export Plug-In . SVG Version: 6.00 Build 0)  -->
<svg version="1.1" id="Layer_1" xmlns="http://www.w3.org/2000/svg" xmlns:xlink="http://www.w3.org/1999/xlink" x="0px" y="0px"
	 viewBox="0 0 24 24" style="enable-background:new 0 0 24 24;" xml:space="preserve">
<title>subtract-bold</title>
<g>
	<path d="M3.75,16.5C1.682,16.5,0,14.818,0,12.75v-1.5C0,9.182,1.682,7.5,3.75,7.5h16.5c2.068,0,3.75,1.682,3.75,3.75v1.5
		c0,2.068-1.682,3.75-3.75,3.75H3.75z M3.75,9C2.509,9,1.5,10.009,1.5,11.25v1.5C1.5,13.991,2.509,15,3.75,15h16.5
		c1.241,0,2.25-1.009,2.25-2.25v-1.5c0-1.241-1.009-2.25-2.25-2.25H3.75z"/>
</g>
</svg>
