<svg xmlns="http://www.w3.org/2000/svg" viewBox="0 0 24 24"><title>programming-keyboard-type</title><path d="M22.93,11.42a1.071,1.071,0,0,0,1.038-1.329l-1.6-6.418a1.07,1.07,0,0,0-1.038-.81H2.674a1.07,1.07,0,0,0-1.038.81l-1.6,6.418A1.071,1.071,0,0,0,1.07,11.42H3.133a.5.5,0,0,0,.305-.1,1.717,1.717,0,0,1,1.051-.371.466.466,0,0,0,.4-.219A1.76,1.76,0,0,1,6.578,9.9a.5.5,0,0,0,.387-.123,1.764,1.764,0,0,1,2.869.822.5.5,0,0,0,.254.3,1.724,1.724,0,0,1,.47.358.5.5,0,0,0,.363.156h2.908a.5.5,0,0,0,.363-.156,1.74,1.74,0,0,1,.469-.358.5.5,0,0,0,.254-.3,1.764,1.764,0,0,1,2.869-.822.5.5,0,0,0,.387.123,1.8,1.8,0,0,1,.194-.011,1.778,1.778,0,0,1,1.5.835.467.467,0,0,0,.4.219,1.717,1.717,0,0,1,1.051.371.5.5,0,0,0,.3.1ZM4,7.891H3a.75.75,0,0,1,0-1.5H4a.75.75,0,0,1,0,1.5Zm1.5-2.5h-1a.75.75,0,0,1,0-1.5h1a.75.75,0,0,1,0,1.5ZM8,7.891H7a.75.75,0,0,1,0-1.5H8a.75.75,0,0,1,0,1.5Zm2.75-3.25a.75.75,0,0,1-.75.75H9a.75.75,0,0,1,0-1.5h1A.75.75,0,0,1,10.75,4.641Zm2.5,2.5a.75.75,0,0,1-.75.75h-1a.75.75,0,0,1,0-1.5h1A.75.75,0,0,1,13.25,7.141Zm.25-1.75a.75.75,0,0,1,0-1.5h1a.75.75,0,0,1,0,1.5Zm3.75,1.75a.75.75,0,0,1-.75.75h-1a.75.75,0,0,1,0-1.5h1A.75.75,0,0,1,17.25,7.141Zm.5-2.5a.75.75,0,0,1,.75-.75h1a.75.75,0,0,1,0,1.5h-1A.75.75,0,0,1,17.75,4.641Zm3.5,2.5a.75.75,0,0,1-.75.75h-1a.75.75,0,0,1,0-1.5h1A.75.75,0,0,1,21.25,7.141Z"/><path d="M19.523,12.922h0l-.42-1.474a.767.767,0,1,0-1.475.421h0l-.28-.984a.793.793,0,0,0-.95-.526.77.77,0,0,0-.525.948l.281.982h0a.791.791,0,0,0-.948-.526.767.767,0,0,0-.526.948l1.259,4.409a.251.251,0,0,1-.339.3l-.73-.312h0a.613.613,0,0,0-.638,1.036s1.15,1.262,2.376,2.352h0a2.616,2.616,0,0,0,2.4.548l1.639-.469A2.553,2.553,0,0,0,22.4,17.416L21,12.5a.79.79,0,0,0-.948-.527A.768.768,0,0,0,19.523,12.922Z"/><path d="M5.247,12.905h0l.42-1.475a.768.768,0,0,1,1.476.422h0l.28-.984a.792.792,0,0,1,.949-.526.769.769,0,0,1,.526.948l-.282.982h0a.792.792,0,0,1,.948-.526.767.767,0,0,1,.527.948L8.832,17.1a.25.25,0,0,0,.338.3L9.9,17.09h0a.613.613,0,0,1,.638,1.035s-1.149,1.263-2.376,2.353h0a2.617,2.617,0,0,1-2.4.548l-1.64-.469A2.553,2.553,0,0,1,2.37,17.4l1.4-4.914a.79.79,0,0,1,.948-.527A.767.767,0,0,1,5.247,12.905Z"/></svg>