<svg xmlns="http://www.w3.org/2000/svg" viewBox="0 0 24 24"><title>programming-user-chat</title><path d="M24,1.75A1.752,1.752,0,0,0,22.25,0h-10A1.752,1.752,0,0,0,10.5,1.75v8a1.752,1.752,0,0,0,1.75,1.75.25.25,0,0,1,.25.25v2a.749.749,0,0,0,.75.75.742.742,0,0,0,.488-.181l3.219-2.759a.249.249,0,0,1,.163-.06h5.13A1.752,1.752,0,0,0,24,9.75ZM16.78,5.78l-2,2a.75.75,0,0,1-1.06-1.06l1.293-1.293a.252.252,0,0,0,0-.354L13.72,3.78a.75.75,0,1,1,1.06-1.06l2,2A.749.749,0,0,1,16.78,5.78ZM20.75,8h-2.5a.75.75,0,0,1,0-1.5h2.5a.75.75,0,0,1,0,1.5Z"/><path d="M5.08,9.77A5.086,5.086,0,0,0,0,14.85V17.9a.5.5,0,0,0,.5.5H2.135a.25.25,0,0,1,.248.216l.676,4.948A.5.5,0,0,0,3.554,24H6.606a.5.5,0,0,0,.5-.433l.675-4.948a.25.25,0,0,1,.248-.216H9.66a.5.5,0,0,0,.5-.5V14.85A5.086,5.086,0,0,0,5.08,9.77Z"/><path d="M5.242,8.941a3.3,3.3,0,1,0-3.295-3.3A3.295,3.295,0,0,0,5.242,8.941Z"/></svg>