<svg xmlns="http://www.w3.org/2000/svg" viewBox="0 0 24 24"><title>programming-user-head</title><path d="M12,23.375a7.009,7.009,0,0,0,7-7v-2a7,7,0,0,0-14,0v2A7.009,7.009,0,0,0,12,23.375ZM7.268,17.916l-.015-.048c.009-.3.6-.743,1.5-.743s1.5.451,1.5.75-.6.75-1.5.75C7.886,18.625,7.315,18.213,7.268,17.916ZM12,21.375a4.907,4.907,0,0,1-2.744-.844.251.251,0,0,1,.1-.455,2.865,2.865,0,0,0,2.149-1.322.251.251,0,0,1,.219-.129h.548a.251.251,0,0,1,.219.129,2.865,2.865,0,0,0,2.149,1.322.251.251,0,0,1,.1.455A4.907,4.907,0,0,1,12,21.375Zm4.732-3.459c-.047.3-.618.709-1.482.709-.9,0-1.5-.451-1.5-.75s.6-.75,1.5-.75,1.488.444,1.5.743ZM7,15.061a.25.25,0,0,1,.159-.233A5.372,5.372,0,0,0,9.63,12.861a.251.251,0,0,1,.187-.112.247.247,0,0,1,.2.078A7.628,7.628,0,0,0,16,15.125h.75a.25.25,0,0,1,.25.25v.277a.249.249,0,0,1-.342.232,3.849,3.849,0,0,0-1.408-.259A3.087,3.087,0,0,0,12.493,17a.251.251,0,0,1-.219.129h-.548A.249.249,0,0,1,11.507,17,3.087,3.087,0,0,0,8.75,15.625a3.849,3.849,0,0,0-1.408.259A.249.249,0,0,1,7,15.652Z"/><path d="M22.5,4.625a.25.25,0,0,1-.25-.25v-2.5A1.252,1.252,0,0,0,21,.625h-.5a.75.75,0,0,0,0,1.5.25.25,0,0,1,.25.25v2a.25.25,0,0,1-.25.25.75.75,0,0,0,0,1.5h2a.75.75,0,0,0,0-1.5Z"/><path d="M22.5,11.625a.25.25,0,0,1-.25-.25v-2.5A1.252,1.252,0,0,0,21,7.625h-.5a.75.75,0,0,0,0,1.5.25.25,0,0,1,.25.25v2a.25.25,0,0,1-.25.25.75.75,0,0,0,0,1.5h2a.75.75,0,0,0,0-1.5Z"/><path d="M3.5,4.625a.25.25,0,0,1-.25-.25v-2.5A1.252,1.252,0,0,0,2,.625H1.5a.75.75,0,0,0,0,1.5.25.25,0,0,1,.25.25v2a.25.25,0,0,1-.25.25.75.75,0,0,0,0,1.5h2a.75.75,0,0,0,0-1.5Z"/><path d="M1.5,19.625a.75.75,0,0,0,0,1.5h2a.75.75,0,0,0,0-1.5.25.25,0,0,1-.25-.25v-2.5A1.252,1.252,0,0,0,2,15.625H1.5a.75.75,0,0,0,0,1.5.25.25,0,0,1,.25.25v2A.25.25,0,0,1,1.5,19.625Z"/><path d="M15.5,6.125a1.752,1.752,0,0,0,1.75-1.75v-2a1.75,1.75,0,0,0-3.5,0v2A1.752,1.752,0,0,0,15.5,6.125Zm-.25-1.75v-2a.25.25,0,0,1,.5,0v2C15.75,4.65,15.25,4.65,15.25,4.375Z"/><path d="M21.5,21.125a1.752,1.752,0,0,0,1.75-1.75v-2a1.75,1.75,0,0,0-3.5,0v2A1.752,1.752,0,0,0,21.5,21.125Zm-.25-3.75a.25.25,0,0,1,.5,0v2c0,.275-.5.275-.5,0Z"/><path d="M6.75,2.375v2a1.75,1.75,0,0,0,3.5,0v-2a1.75,1.75,0,0,0-3.5,0Zm2,0v2c0,.275-.5.275-.5,0v-2a.25.25,0,0,1,.5,0Z"/><path d="M4.25,9.375a1.75,1.75,0,0,0-3.5,0v2a1.75,1.75,0,0,0,3.5,0Zm-1.5,2c0,.275-.5.275-.5,0v-2a.25.25,0,0,1,.5,0Z"/></svg>