<svg xmlns="http://www.w3.org/2000/svg" viewBox="0 0 24 24"><title>programming-team-chat</title><circle cx="19.12" cy="16.25" r="3.25"/><path d="M12.213,14.443a.738.738,0,0,0,.287.057.746.746,0,0,0,.53-.22l2.634-2.636a.5.5,0,0,1,.354-.147H19.5a1.752,1.752,0,0,0,1.75-1.75v-8A1.752,1.752,0,0,0,19.5,0H5.5A1.752,1.752,0,0,0,3.75,1.75v8A1.752,1.752,0,0,0,5.5,11.5h5.75a.5.5,0,0,1,.5.5V13.75A.75.75,0,0,0,12.213,14.443ZM15.47,4.28a.75.75,0,1,1,1.06-1.06l2,2a.749.749,0,0,1,0,1.06l-2,2a.75.75,0,1,1-1.06-1.06l1.293-1.293a.252.252,0,0,0,0-.354ZM9.53,7.22A.75.75,0,1,1,8.47,8.28l-2-2a.749.749,0,0,1,0-1.06l2-2A.75.75,0,1,1,9.53,4.28L8.237,5.573a.252.252,0,0,0,0,.354ZM11.5,8.5a.741.741,0,0,1-.334-.079.75.75,0,0,1-.336-1.006l2-4a.75.75,0,1,1,1.342.67l-2,4A.75.75,0,0,1,11.5,8.5Z"/><circle cx="4.88" cy="16.25" r="3.25"/><path d="M.5,24H9.26a.5.5,0,0,0,.487-.611,4.99,4.99,0,0,0-9.734,0A.5.5,0,0,0,.5,24Z"/><path d="M14.253,23.389A.5.5,0,0,0,14.74,24H23.5a.5.5,0,0,0,.487-.611,4.99,4.99,0,0,0-9.734,0Z"/></svg>