<svg xmlns="http://www.w3.org/2000/svg" viewBox="0 0 24 24"><title>programming-search-browser</title><path d="M0,19.628a3,3,0,0,0,3,3H16.5a3,3,0,0,0,3-3v-5.5a1,1,0,0,0-2,0v5.5a1,1,0,0,1-1,1H3a1,1,0,0,1-1-1v-9a.5.5,0,0,1,.5-.5h8a.5.5,0,0,0,.442-.733,6.423,6.423,0,0,1-.623-1.767,6.517,6.517,0,0,1-.123-1.25c0-.077,0-.153.005-.229a.5.5,0,0,0-.5-.521H3a3,3,0,0,0-3,3Zm3.5-10.5a1,1,0,0,1-1-1,.979.979,0,0,1,.092-.408A1,1,0,0,1,3.5,7.128a.985.985,0,0,1,.846.5.969.969,0,0,1,.154.5A1,1,0,0,1,3.5,9.128Zm3.5,0a1,1,0,0,1-1-1,.969.969,0,0,1,.154-.5.966.966,0,0,1,1.692,0,.969.969,0,0,1,.154.5A1,1,0,0,1,7,9.128Z"/><path d="M12.97,18.158a.748.748,0,0,0,1.06,0l2-2a.749.749,0,0,0,0-1.06l-2-2a.75.75,0,0,0-1.06,1.06l1.293,1.293a.252.252,0,0,1,0,.354L12.97,17.1A.749.749,0,0,0,12.97,18.158Z"/><path d="M7.03,13.1a.749.749,0,0,0-1.06,0l-2,2a.749.749,0,0,0,0,1.06l2,2A.75.75,0,0,0,7.03,17.1L5.737,15.805a.252.252,0,0,1,0-.354L7.03,14.158A.749.749,0,0,0,7.03,13.1Z"/><path d="M10.329,13.293l-2,4A.75.75,0,0,0,8.665,18.3.741.741,0,0,0,9,18.378a.75.75,0,0,0,.672-.415l2-4a.75.75,0,1,0-1.342-.67Z"/><path d="M23.563,12.686a1.5,1.5,0,0,0,0-2.121L22.465,9.477,21.783,8.8a.5.5,0,0,1-.113-.537,4.963,4.963,0,0,0,.35-1.817,5.073,5.073,0,1,0-5.074,5.074,4.964,4.964,0,0,0,2.268-.557.5.5,0,0,1,.581.091l.663.66.984.98a1.5,1.5,0,0,0,2.121-.006ZM16.946,9.518A3.073,3.073,0,1,1,20.02,6.444,3.076,3.076,0,0,1,16.946,9.518Z"/></svg>