<svg xmlns="http://www.w3.org/2000/svg" viewBox="0 0 24 24"><defs><style>.a{fill:none;stroke:currentColor;stroke-linecap:round;stroke-linejoin:round;stroke-width:1.5px;}</style></defs><title>video-file-m4v</title><path class="a" d="M2.25,23.25a1.5,1.5,0,0,1-1.5-1.5V2.25A1.5,1.5,0,0,1,2.25.75H12.879a1.5,1.5,0,0,1,1.06.439l5.872,5.872a1.5,1.5,0,0,1,.439,1.06V12.75"/><path class="a" d="M20.25,8.25h-6a1.5,1.5,0,0,1-1.5-1.5v-6"/><polyline class="a" points="9.75 23.25 9.75 15.75 7.5 19.5 5.25 15.75 5.25 23.25"/><line class="a" x1="17.231" y1="23.235" x2="17.231" y2="21.735"/><path class="a" d="M17.231,21.735V15.75a8.26,8.26,0,0,0-4.481,5.985h4.481"/><path class="a" d="M20.25,15.75V18.3a8.932,8.932,0,0,0,1.5,4.954,8.932,8.932,0,0,0,1.5-4.954V15.75"/></svg>