<svg xmlns="http://www.w3.org/2000/svg" viewBox="0 0 24 24"><defs><style>.a{fill:none;stroke:currentColor;stroke-linecap:round;stroke-linejoin:round;stroke-width:1.5px;}</style></defs><title>video-file-play</title><path class="a" d="M22.5,21.75a1.5,1.5,0,0,1-1.5,1.5H3a1.5,1.5,0,0,1-1.5-1.5V2.25A1.5,1.5,0,0,1,3,.75H18a1.5,1.5,0,0,1,1.047.426l3,2.883A1.5,1.5,0,0,1,22.5,5.133Z"/><path class="a" d="M10.238,16.41A.856.856,0,0,1,9,15.644V9.856a.856.856,0,0,1,1.238-.766l5.789,2.895a.855.855,0,0,1,0,1.53Z"/></svg>