<svg xmlns="http://www.w3.org/2000/svg" viewBox="0 0 24 24"><defs><style>.a{fill:none;stroke:currentColor;stroke-linecap:round;stroke-linejoin:round;stroke-width:1.5px;}</style></defs><title>video-file-search</title><path class="a" d="M8.25,20.25h-6a1.5,1.5,0,0,1-1.5-1.5V2.25A1.5,1.5,0,0,1,2.25.75H12.879a1.5,1.5,0,0,1,1.06.439l2.872,2.872a1.5,1.5,0,0,1,.439,1.06V6.75"/><path class="a" d="M6.241,12.678a.685.685,0,0,1-.991-.613V7.435a.685.685,0,0,1,.991-.613l4.631,2.316a.684.684,0,0,1,0,1.224Z"/><circle class="a" cx="15.75" cy="15.75" r="5.25"/><line class="a" x1="23.25" y1="23.25" x2="19.462" y2="19.462"/></svg>