<svg xmlns="http://www.w3.org/2000/svg" viewBox="0 0 24 24"><defs><style>.a{fill:none;stroke:currentColor;stroke-linecap:round;stroke-linejoin:round;stroke-width:1.5px;}</style></defs><title>vide-document-mpg-1</title><path class="a" d="M23.25,21v.75a1.5,1.5,0,0,1-1.5,1.5H2.25a1.5,1.5,0,0,1-1.5-1.5V21"/><path class="a" d="M.75,7.5V2.25A1.5,1.5,0,0,1,2.25.75h19.5a1.5,1.5,0,0,1,1.5,1.5V7.5"/><polyline class="a" points="7.5 18 7.5 10.5 5.25 14.25 3 10.5 3 18"/><line class="a" x1="14.981" y1="17.985" x2="14.981" y2="16.485"/><path class="a" d="M14.981,16.485V10.5A8.26,8.26,0,0,0,10.5,16.485h4.481"/><path class="a" d="M18,10.5v2.546A8.932,8.932,0,0,0,19.5,18,8.932,8.932,0,0,0,21,13.046V10.5"/></svg>