<svg xmlns="http://www.w3.org/2000/svg" viewBox="0 0 24 24"><title>database-2-alternate</title><path d="M12,.628C6.916.628,1.513,2.376,1.5,5.618l0,.01v12.75c0,3.248,5.409,5,10.5,5s10.5-1.752,10.5-5V5.628C22.5,2.38,17.091.628,12,.628Zm8.5,17.75c0,1.223-3.312,3-8.5,3s-8.5-1.777-8.5-3v-.789a.249.249,0,0,1,.372-.217A17.587,17.587,0,0,0,12,19.128a17.585,17.585,0,0,0,8.127-1.756.249.249,0,0,1,.249,0,.252.252,0,0,1,.124.215Zm0-4.25c0,1.223-3.312,3-8.5,3s-8.5-1.777-8.5-3v-.789a.249.249,0,0,1,.372-.217A17.587,17.587,0,0,0,12,14.878a17.585,17.585,0,0,0,8.127-1.756.249.249,0,0,1,.249,0,.252.252,0,0,1,.124.215Zm0-4.25c0,1.223-3.312,3-8.5,3s-8.5-1.777-8.5-3V9.089a.249.249,0,0,1,.372-.218A17.574,17.574,0,0,0,12,10.628a17.582,17.582,0,0,0,8.127-1.756.25.25,0,0,1,.373.218Zm0-4.25v0c-.011,1.224-3.319,3-8.5,3s-8.5-1.777-8.5-3,3.312-3,8.5-3,8.5,1.773,8.5,3Z"/></svg>