<svg xmlns="http://www.w3.org/2000/svg" viewBox="0 0 24 24"><title>database-monitor-sync</title><path d="M10.9,1.312a.5.5,0,0,0-.8.4v.25a.25.25,0,0,1-.25.25H8.1a3,3,0,0,0-3,3v1.5a.25.25,0,0,1-.25.25H4.6a.5.5,0,0,0-.4.8l1.5,2a.5.5,0,0,0,.8,0l1.5-2a.5.5,0,0,0-.4-.8h-.25a.25.25,0,0,1-.25-.25v-1.5a1,1,0,0,1,1-1h1.75a.249.249,0,0,1,.25.25v.25a.5.5,0,0,0,.5.5.507.507,0,0,0,.3-.1l2-1.5a.5.5,0,0,0,0-.8Z"/><path d="M.442,13.269v5.694a1.492,1.492,0,0,0,.485,1.1,1.987,1.987,0,0,0,1.515.709h2.75a.25.25,0,0,1,.25.25v.5a.25.25,0,0,1-.25.25H3.942a1,1,0,0,0,0,2h5a1,1,0,0,0,0-2H7.692a.25.25,0,0,1-.25-.25v-.5a.25.25,0,0,1,.25-.25h2.75a1.987,1.987,0,0,0,1.514-.709,1.489,1.489,0,0,0,.486-1.1V13.269a2,2,0,0,0-2-2h-8A2,2,0,0,0,.442,13.269Zm9.75,4.5h-7.5a.25.25,0,0,1-.25-.25v-4a.25.25,0,0,1,.25-.25h7.5a.25.25,0,0,1,.25.25v4A.25.25,0,0,1,10.192,17.769Z"/><path d="M23.558,8.017a.249.249,0,0,0-.383-.211,6.631,6.631,0,0,1-3.5.9,6.631,6.631,0,0,1-3.5-.9.249.249,0,0,0-.383.211V9.229c0,.939,1.594,1.984,3.883,1.984s3.883-1.045,3.883-1.984Z"/><path d="M15.792,5.722c0,.939,1.594,1.984,3.883,1.984s3.883-1.045,3.883-1.984V4.51a.249.249,0,0,0-.383-.211,6.631,6.631,0,0,1-3.5.9,6.631,6.631,0,0,1-3.5-.9.251.251,0,0,0-.254-.007.248.248,0,0,0-.129.218Z"/><path d="M15.792,2.215c0,.939,1.594,1.984,3.883,1.984s3.883-1.045,3.883-1.984S21.964.231,19.675.231,15.792,1.277,15.792,2.215Z"/></svg>