<svg xmlns="http://www.w3.org/2000/svg" viewBox="0 0 24 24"><title>database-edit-alternate</title><path d="M8.01,22.288A1,1,0,0,0,9.149,21.5V21.5a.986.986,0,0,0-.822-1.17c-3.41-.5-5.47-1.8-5.47-2.753v-.761A.249.249,0,0,1,3.23,16.6a16.176,16.176,0,0,0,6.531,1.678,1,1,0,0,0,.767-.292l.008-.008a.99.99,0,0,0-.647-1.686c-4.407-.272-7.031-1.869-7.031-2.92v-.761a.249.249,0,0,1,.372-.218,17.445,17.445,0,0,0,8.032,1.731,21.99,21.99,0,0,0,3.064-.218,1,1,0,0,0,.569-.288h0a.99.99,0,0,0-.852-1.678,20.406,20.406,0,0,1-2.781.184c-5.13,0-8.4-1.753-8.4-2.959V8.4A.25.25,0,0,1,3.23,8.18a17.437,17.437,0,0,0,8.033,1.732A17.425,17.425,0,0,0,19.3,8.179a.25.25,0,0,1,.372.215c0,.109,0,.207,0,.3a.963.963,0,0,0,.928.964h.022a.994.994,0,0,0,1.042-.981V4.953c0-3.222-5.36-4.96-10.4-4.96S.871,1.728.86,4.943l0,.01V17.574C.858,20.1,4.155,21.709,8.01,22.288Zm3.253-20.3c5.126,0,8.4,1.75,8.4,2.957v.009c-.011,1.206-3.281,2.953-8.4,2.953s-8.4-1.753-8.4-2.959S6.133,1.993,11.263,1.993Z"/><path d="M14.187,22.282,12,20.09a.5.5,0,0,0-.834.215l-.877,3.07a.5.5,0,0,0,.618.618l3.069-.877a.5.5,0,0,0,.216-.834Z"/><path d="M17.966,13.341a.5.5,0,0,0-.707,0L12.3,18.3a.5.5,0,0,0,0,.707l2.97,2.97a.5.5,0,0,0,.707,0l4.96-4.96a.5.5,0,0,0,0-.707Z"/><path d="M18.661,11.939a.5.5,0,0,0,0,.709l2.97,2.97a.536.536,0,0,0,.377.124.582.582,0,0,0,.376-.17,2.6,2.6,0,0,0,0-3.677A2.636,2.636,0,0,0,18.661,11.939Z"/></svg>