<svg xmlns="http://www.w3.org/2000/svg" viewBox="0 0 24 24"><title>database-add-alternate</title><path d="M9.768,20.893a.951.951,0,0,0-.746-.455c-3.968-.376-6.413-1.822-6.413-2.864v-.76a.25.25,0,0,1,.124-.216.247.247,0,0,1,.248,0A14.558,14.558,0,0,0,7.9,18.105a.991.991,0,0,0,1.127-.933V17.15a.97.97,0,0,0-.832-1.013c-3.477-.485-5.582-1.8-5.582-2.771v-.76a.25.25,0,0,1,.124-.216.247.247,0,0,1,.248,0,15.9,15.9,0,0,0,6.245,1.655.957.957,0,0,0,.891-.491l.036-.061a.937.937,0,0,0-.734-1.431c-4.394-.318-6.81-1.909-6.81-2.9V8.4a.247.247,0,0,1,.124-.215.249.249,0,0,1,.248,0,17.43,17.43,0,0,0,8.035,1.732,17.434,17.434,0,0,0,8.036-1.733.251.251,0,0,1,.373.214,6.778,6.778,0,0,1-.013.826.945.945,0,0,0,.559,1.02l.178.075a.915.915,0,0,0,1.272-.85V4.95c0-3.221-5.361-4.96-10.406-4.96S.622,1.725.611,4.94c0,.79,0,12.41,0,12.634,0,2.708,3.975,4.365,8.232,4.826a.981.981,0,0,0,.94-1.486Zm1.248-18.9c5.127,0,8.4,1.751,8.406,2.958v.008c-.011,1.207-3.282,2.955-8.4,2.955S2.61,6.157,2.61,4.95,5.884,1.99,11.016,1.99Z"/><path d="M16.951,11.134a6.441,6.441,0,1,0,6.44,6.44A6.448,6.448,0,0,0,16.951,11.134Zm-.75,7.44a.25.25,0,0,0-.25-.25H14.475a.75.75,0,1,1,0-1.5h1.476a.25.25,0,0,0,.25-.25V15.1a.75.75,0,0,1,1.5,0v1.474a.25.25,0,0,0,.25.25h1.475a.75.75,0,0,1,0,1.5H17.951a.25.25,0,0,0-.25.25V20.05a.75.75,0,1,1-1.5,0Z"/></svg>