<svg xmlns="http://www.w3.org/2000/svg" viewBox="0 0 24 24"><title>database-connect</title><path d="M7.049,21.213A.25.25,0,0,0,6.67,21a6.182,6.182,0,0,1-3.146.781A6.187,6.187,0,0,1,.378,21,.25.25,0,0,0,0,21.213V22.22C0,23.062,1.447,24,3.524,24s3.525-.938,3.525-1.78Z"/><path d="M0,19c0,.842,1.447,1.78,3.524,1.78S7.049,19.842,7.049,19V17.993a.25.25,0,0,0-.379-.214,6.182,6.182,0,0,1-3.146.782,6.187,6.187,0,0,1-3.146-.782A.25.25,0,0,0,0,17.993Z"/><ellipse cx="3.524" cy="15.78" rx="3.524" ry="1.78"/><path d="M24,21.213A.25.25,0,0,0,23.622,21a6.187,6.187,0,0,1-3.146.781A6.182,6.182,0,0,1,17.33,21a.25.25,0,0,0-.379.214V22.22c0,.842,1.447,1.78,3.525,1.78S24,23.062,24,22.22Z"/><path d="M16.951,19c0,.842,1.447,1.78,3.525,1.78S24,19.842,24,19V17.993a.25.25,0,0,0-.378-.214,6.187,6.187,0,0,1-3.146.782,6.182,6.182,0,0,1-3.146-.782.25.25,0,0,0-.379.214Z"/><ellipse cx="20.476" cy="15.78" rx="3.524" ry="1.78"/><path d="M24,7.213A.25.25,0,0,0,23.622,7a6.187,6.187,0,0,1-3.146.781A6.182,6.182,0,0,1,17.33,7a.25.25,0,0,0-.379.214V8.22c0,.842,1.447,1.78,3.525,1.78S24,9.062,24,8.22Z"/><path d="M16.951,5c0,.842,1.447,1.78,3.525,1.78S24,5.842,24,5V3.993a.25.25,0,0,0-.378-.214,6.187,6.187,0,0,1-3.146.782,6.182,6.182,0,0,1-3.146-.782.25.25,0,0,0-.379.214Z"/><ellipse cx="20.476" cy="1.78" rx="3.524" ry="1.78"/><path d="M7.049,7.213A.25.25,0,0,0,6.67,7a6.182,6.182,0,0,1-3.146.781A6.187,6.187,0,0,1,.378,7,.25.25,0,0,0,0,7.213V8.22C0,9.062,1.447,10,3.524,10s3.525-.938,3.525-1.78Z"/><path d="M0,5c0,.842,1.447,1.78,3.524,1.78S7.049,5.842,7.049,5V3.993a.25.25,0,0,0-.379-.214,6.182,6.182,0,0,1-3.146.782A6.187,6.187,0,0,1,.378,3.779.25.25,0,0,0,0,3.993Z"/><ellipse cx="3.524" cy="1.78" rx="3.524" ry="1.78"/><path d="M7.72,15.56a.749.749,0,0,0,0,1.06.734.734,0,0,0,.329.181.777.777,0,0,0,.2.039.744.744,0,0,0,.53-.22l3.005-3a.249.249,0,0,1,.353,0L15.22,16.7a.682.682,0,0,0,.731.181.725.725,0,0,0,.329-.181.749.749,0,0,0,0-1.06l-.264-.264L13.2,12.555a.249.249,0,0,1,0-.353l2.939-2.939a.783.783,0,0,0,.08-.12A.744.744,0,0,0,15.077,8.2l-2.939,2.939a.249.249,0,0,1-.353,0l-2.9-2.9A.755.755,0,0,0,7.825,9.3l2.9,2.9a.249.249,0,0,1,0,.353L7.973,15.306Z"/></svg>