<svg xmlns="http://www.w3.org/2000/svg" viewBox="0 0 24 24"><title>database-download</title><path d="M8.847,21.529a.25.25,0,0,0,.243-.368,7.928,7.928,0,0,1-.918-3.006.248.248,0,0,0-.216-.223,12.826,12.826,0,0,1-6.174-2.217.25.25,0,0,0-.408.194v1.716C1.374,19.542,4.576,21.138,8.847,21.529Z"/><path d="M1.782,11.215a.25.25,0,0,0-.408.194v1.716c0,1.769,2.728,3.268,6.507,3.8a.251.251,0,0,0,.284-.227,7.939,7.939,0,0,1,.768-2.816.25.25,0,0,0-.2-.358A13.6,13.6,0,0,1,1.782,11.215Z"/><path d="M16.126,9.375a7.927,7.927,0,0,1,3.333.738.25.25,0,0,0,.29-.059,2.129,2.129,0,0,0,.625-1.429V6.91a.25.25,0,0,0-.408-.194c-1.937,1.577-5.587,2.409-9.091,2.409S3.719,8.292,1.782,6.714a.25.25,0,0,0-.408.194V8.625c0,2.027,3.581,3.7,8.221,3.961a.25.25,0,0,0,.212-.1A7.978,7.978,0,0,1,16.126,9.375Z"/><ellipse cx="10.875" cy="4.125" rx="9.5" ry="4"/><path d="M16.126,10.875a6.5,6.5,0,1,0,6.5,6.5A6.508,6.508,0,0,0,16.126,10.875Zm0,10a.5.5,0,0,1-.391-.187l-2-2.5a.5.5,0,0,1,.391-.813h.75a.25.25,0,0,0,.25-.25v-2.75a1,1,0,0,1,2,0v2.75a.25.25,0,0,0,.25.25h.75a.5.5,0,0,1,.391.813l-2,2.5A.5.5,0,0,1,16.126,20.875Z"/></svg>