<svg xmlns="http://www.w3.org/2000/svg" viewBox="0 0 24 24"><title>database-clock-alternate</title><path d="M.723,4.907V17.385c0,2.557,3.4,4.169,7.323,4.71a.96.96,0,0,0,1-1.359L9.03,20.7a.982.982,0,0,0-.766-.588c-3.448-.475-5.541-1.774-5.541-2.729v-.729a.251.251,0,0,1,.372-.218A13.581,13.581,0,0,0,7.188,17.8a.984.984,0,0,0,1.159-.908v-.024a.974.974,0,0,0-.8-1.021c-3.023-.545-4.828-1.731-4.828-2.619V12.5a.247.247,0,0,1,.124-.215.249.249,0,0,1,.248,0A15,15,0,0,0,8.454,13.83a.974.974,0,0,0,.952-.517l.036-.064a.957.957,0,0,0-.762-1.4c-3.7-.423-5.957-1.788-5.957-2.781v-.73A.251.251,0,0,1,3.1,8.118a17.268,17.268,0,0,0,7.927,1.7c.4,0,4.908-.024,7.927-1.7a.25.25,0,0,1,.371.217c0,.214,0,.376,0,.5a.967.967,0,0,0,.587.9l.022.009a.986.986,0,0,0,1.387-.9V4.907c0-3.192-5.306-4.915-10.3-4.915S.737,1.711.725,4.9Zm10.3-2.915c5.062,0,8.293,1.724,8.3,2.912v.009c-.01,1.188-3.24,2.909-8.3,2.909s-8.3-1.727-8.3-2.915S5.957,1.992,11.022,1.992Z"/><path d="M16.649,10.757a6.628,6.628,0,1,0,6.628,6.628A6.636,6.636,0,0,0,16.649,10.757Zm-4.628,6.628a4.628,4.628,0,1,1,4.628,4.628A4.634,4.634,0,0,1,12.021,17.385Z"/><path d="M19.606,17.385a1,1,0,0,0-1-1H17.9a.25.25,0,0,1-.25-.25v-1.2a1,1,0,0,0-2,0v2.446a1,1,0,0,0,1,1h1.957A1,1,0,0,0,19.606,17.385Z"/></svg>