<svg xmlns="http://www.w3.org/2000/svg" viewBox="0 0 24 24"><title>modern-music-dj-tape</title><path d="M9.921,17.953a.07.07,0,0,0,.042-.119h0a3.016,3.016,0,0,1-.389-3.786.252.252,0,0,0,.038-.183,3.009,3.009,0,0,1,3.515-3.514.256.256,0,0,0,.183-.037,3.024,3.024,0,0,1,2.979-.188.248.248,0,0,0,.219,0,3.021,3.021,0,0,1,1.231-.3.249.249,0,0,0,.241-.233Q18,9.3,18,9a9,9,0,1,0-8.079,8.953ZM3.5,9a.5.5,0,0,1-1,0A6.508,6.508,0,0,1,9,2.5a.5.5,0,0,1,0,1A5.506,5.506,0,0,0,3.5,9ZM7,9a2,2,0,1,1,2,2A2,2,0,0,1,7,9Z"/><path d="M22.865,21.268a3.886,3.886,0,0,0,0-5.489L18.9,11.811a1.519,1.519,0,0,0-2.143,0,1.576,1.576,0,0,0-.148.171.25.25,0,0,1-.378.028l-.2-.2h0a1.518,1.518,0,0,0-2.141,0,1.46,1.46,0,0,0-.169.2.25.25,0,0,1-.339.068,1.515,1.515,0,0,0-2.091,2.09.249.249,0,0,1-.067.338,1.542,1.542,0,0,0-.2.17,1.516,1.516,0,0,0,0,2.142l2.537,2.537a.25.25,0,0,1-.2.426l-.814-.061a1.324,1.324,0,0,0-1.211,1.31A1.281,1.281,0,0,0,12.344,22.3c.13.046,3.213,1.13,5.336,1.6a3.929,3.929,0,0,0,.852.094,3.863,3.863,0,0,0,2.739-1.139Z"/></svg>