<svg xmlns="http://www.w3.org/2000/svg" viewBox="0 0 24 24"><title>modern-music-monitor-speaker</title><path d="M10.25,16.5a.25.25,0,0,1-.25-.25v-1a.25.25,0,0,1,.25-.25h2a.25.25,0,0,0,.25-.25v-3a.25.25,0,0,0-.25-.25H2.5A.5.5,0,0,1,2,11V2.5A.5.5,0,0,1,2.5,2h13a.5.5,0,0,1,.5.5V5.25a.25.25,0,0,0,.25.25h1.5A.25.25,0,0,0,18,5.25V2a2,2,0,0,0-2-2H2A2,2,0,0,0,0,2V13a2,2,0,0,0,2,2H7.75a.25.25,0,0,1,.25.25v1a.25.25,0,0,1-.25.25H5.25a1,1,0,0,0,0,2h7a.25.25,0,0,0,.25-.25v-1.5a.25.25,0,0,0-.25-.25Z"/><path d="M24,9a2,2,0,0,0-2-2H16a2,2,0,0,0-2,2V22a2,2,0,0,0,2,2h6a2,2,0,0,0,2-2ZM19,21.5a3,3,0,1,1,3-3A3,3,0,0,1,19,21.5Zm0-12a2,2,0,1,1-2,2A2,2,0,0,1,19,9.5Z"/><path d="M11.806,4.538A1.531,1.531,0,0,0,9.9,3.06l-2.633.852a1.529,1.529,0,0,0-1.245,1.5V7.629a.083.083,0,0,1-.083.083,1.528,1.528,0,0,0,0,3.056A1.673,1.673,0,0,0,7.527,9.24V5.6A.25.25,0,0,1,7.7,5.358L9.981,4.64a.251.251,0,0,1,.325.239v1.2a.083.083,0,0,1-.083.083,1.528,1.528,0,1,0,0,3.055,1.676,1.676,0,0,0,1.583-1.527Z"/></svg>