<svg xmlns="http://www.w3.org/2000/svg" viewBox="0 0 24 24"><title>modern-music-guitar</title><path d="M23.707,10.705a1,1,0,0,0,0-1.414L22.914,8.5a1,1,0,0,0-1.414,0l-4.712,4.713a.251.251,0,0,1-.267.056,3.251,3.251,0,0,0-2.656.1,2.91,2.91,0,0,0-1.429,1.661.249.249,0,0,1-.256.168,3.474,3.474,0,0,0-3.509,1.735,4.736,4.736,0,0,0,1.1,5.5A5.176,5.176,0,0,0,13.377,24a3.52,3.52,0,0,0,3.636-3.975.249.249,0,0,1,.168-.258,2.91,2.91,0,0,0,1.663-1.432,3.2,3.2,0,0,0,.1-2.653A.251.251,0,0,1,19,15.416Zm-12.53,8.323a.75.75,0,0,1,1.061-1.061l2,2a.75.75,0,0,1-1.061,1.061ZM14.4,17.811a1.251,1.251,0,1,1,1.768,0A1.252,1.252,0,0,1,14.4,17.811Z"/><path d="M9,15a1,1,0,0,0,1-1v-1.75a.249.249,0,0,1,.25-.25H16a2,2,0,0,0,2-2V2a2,2,0,0,0-2-2H2A2,2,0,0,0,0,2v8a2,2,0,0,0,2,2H7.75a.249.249,0,0,1,.25.25v.5a.25.25,0,0,1-.25.25H6.043a1,1,0,0,0,0,2ZM2,2.248A.249.249,0,0,1,2.25,2h13.5a.249.249,0,0,1,.25.25v7.5a.25.25,0,0,1-.25.25H2.25A.25.25,0,0,1,2,9.748Z"/><path d="M10.139,7.491V5.164l.411.309a.751.751,0,0,0,.9-1.2L9.839,3.064a.75.75,0,0,0-1.2.6V5.753a1.681,1.681,0,0,0-.257-.019,1.757,1.757,0,1,0,1.757,1.757Z"/></svg>