<?xml version="1.0" encoding="utf-8"?>
<!-- Generator: Adobe Illustrator 22.1.0, SVG Export Plug-In . SVG Version: 6.00 Build 0)  -->
<svg version="1.1" id="Light" xmlns="http://www.w3.org/2000/svg" xmlns:xlink="http://www.w3.org/1999/xlink" x="0px" y="0px"
	 viewBox="0 0 24 24" style="enable-background:new 0 0 24 24;" xml:space="preserve">
<g>
	<title>single-man-news</title>
	<path d="M3.5,10.5c-0.551,0-1-0.449-1-1v-4c0-0.551,0.449-1,1-1h4c0.551,0,1,0.449,1,1v4c0,0.551-0.449,1-1,1H3.5z M3.5,9.5h4v-4
		h-4L3.5,9.5z"/>
	<path d="M20.556,17c-0.209,0-0.398-0.132-0.47-0.329c-0.44-1.21-1.326-2.176-2.493-2.72c-0.647-0.302-1.331-0.454-2.034-0.454
		c-0.561,0-1.117,0.099-1.652,0.293c-1.342,0.489-2.392,1.539-2.881,2.881C10.954,16.868,10.766,17,10.556,17
		c-0.058,0-0.116-0.01-0.171-0.03c-0.126-0.046-0.226-0.138-0.282-0.259s-0.062-0.257-0.017-0.382
		c0.59-1.621,1.858-2.888,3.479-3.479c0.645-0.235,1.316-0.354,1.994-0.354c0.85,0,1.677,0.184,2.457,0.548
		c1.409,0.657,2.478,1.824,3.01,3.285c0.046,0.125,0.04,0.261-0.017,0.382c-0.056,0.121-0.157,0.213-0.282,0.259
		C20.672,16.99,20.615,17,20.556,17z"/>
	<path d="M15.5,12c-2.068,0-3.75-1.682-3.75-3.75c0-0.648,0.172-1.29,0.496-1.857c0.012-0.024,0.024-0.042,0.032-0.053
		C12.951,5.206,14.187,4.5,15.5,4.5c1.854,0,3.449,1.386,3.709,3.223c0.003,0.012,0.01,0.041,0.011,0.077
		c0.02,0.165,0.03,0.312,0.03,0.45C19.25,10.318,17.568,12,15.5,12z M12.877,7.429C12.793,7.696,12.75,7.97,12.75,8.25
		c0,1.516,1.234,2.75,2.75,2.75c1.428,0,2.605-1.094,2.738-2.487c-0.532,0.155-1.082,0.233-1.638,0.233
		C15.237,8.746,13.929,8.281,12.877,7.429z M13.356,6.53c0.893,0.783,2.035,1.212,3.241,1.212c0.53,0,1.049-0.084,1.546-0.251
		C17.809,6.326,16.73,5.5,15.5,5.5C14.664,5.5,13.877,5.881,13.356,6.53z"/>
	<path d="M4.5,22.5C4.224,22.5,4,22.276,4,22s0.224-0.5,0.5-0.5h7v-3H2c-0.827,0-1.5-0.673-1.5-1.5V3c0-0.827,0.673-1.5,1.5-1.5h20
		c0.827,0,1.5,0.673,1.5,1.5v14c0,0.827-0.673,1.5-1.5,1.5h-9.5v3h7c0.276,0,0.5,0.224,0.5,0.5s-0.224,0.5-0.5,0.5H4.5z M2,2.5
		C1.724,2.5,1.5,2.724,1.5,3v14c0,0.276,0.224,0.5,0.5,0.5h20c0.276,0,0.5-0.224,0.5-0.5V3c0-0.276-0.224-0.5-0.5-0.5H2z"/>
</g>
</svg>
