<?xml version="1.0" encoding="utf-8"?>
<!-- Generator: Adobe Illustrator 22.1.0, SVG Export Plug-In . SVG Version: 6.00 Build 0)  -->
<svg version="1.1" id="Light" xmlns="http://www.w3.org/2000/svg" xmlns:xlink="http://www.w3.org/1999/xlink" x="0px" y="0px"
	 viewBox="0 0 24 24" style="enable-background:new 0 0 24 24;" xml:space="preserve">
<g>
	<title>single-man-vintage-tv</title>
	<path d="M14.056,17.292c-0.209,0-0.398-0.132-0.47-0.329c-0.44-1.21-1.326-2.176-2.493-2.72c-0.647-0.301-1.331-0.454-2.034-0.454
		c-0.561,0-1.117,0.099-1.652,0.293c-1.342,0.489-2.392,1.539-2.881,2.881c-0.071,0.197-0.26,0.329-0.47,0.329
		c-0.058,0-0.116-0.01-0.171-0.03c-0.126-0.046-0.226-0.138-0.282-0.259s-0.062-0.257-0.017-0.382
		c0.59-1.621,1.858-2.888,3.478-3.479c0.646-0.235,1.317-0.354,1.995-0.354c0.85,0,1.676,0.184,2.457,0.548
		c1.41,0.657,2.478,1.824,3.01,3.285c0.046,0.125,0.04,0.261-0.017,0.382c-0.056,0.121-0.157,0.213-0.282,0.259
		C14.172,17.282,14.115,17.292,14.056,17.292z"/>
	<path d="M9,12.292c-2.068,0-3.75-1.682-3.75-3.75c0-0.648,0.172-1.29,0.496-1.856C5.758,6.662,5.77,6.644,5.777,6.634
		C6.451,5.498,7.686,4.792,9,4.792c1.859,0,3.454,1.39,3.71,3.232c0.003,0.011,0.007,0.033,0.009,0.061
		c0.021,0.168,0.031,0.317,0.031,0.457C12.75,10.61,11.068,12.292,9,12.292z M6.377,7.721C6.293,7.987,6.25,8.262,6.25,8.542
		c0,1.516,1.234,2.75,2.75,2.75c1.428,0,2.606-1.095,2.738-2.49c-0.533,0.155-1.083,0.234-1.64,0.234
		C8.736,9.036,7.429,8.572,6.377,7.721z M6.857,6.822c0.893,0.782,2.035,1.211,3.239,1.211c0.53,0,1.05-0.084,1.547-0.251
		C11.308,6.617,10.229,5.792,9,5.792C8.164,5.792,7.378,6.173,6.857,6.822z"/>
	<path d="M19.5,16.792c-0.276,0-0.5-0.224-0.5-0.5s0.224-0.5,0.5-0.5h2c0.276,0,0.5,0.224,0.5,0.5s-0.224,0.5-0.5,0.5H19.5z"/>
	<path d="M19.5,14.792c-0.276,0-0.5-0.224-0.5-0.5s0.224-0.5,0.5-0.5h2c0.276,0,0.5,0.224,0.5,0.5s-0.224,0.5-0.5,0.5H19.5z"/>
	<path d="M19.5,12.792c-0.276,0-0.5-0.224-0.5-0.5c0-0.276,0.224-0.5,0.5-0.5h2c0.276,0,0.5,0.224,0.5,0.5
		c0,0.276-0.224,0.5-0.5,0.5H19.5z"/>
	<path d="M20.5,8.792c-0.827,0-1.5-0.673-1.5-1.5s0.673-1.5,1.5-1.5s1.5,0.673,1.5,1.5S21.327,8.792,20.5,8.792z M20.5,6.792
		c-0.276,0-0.5,0.224-0.5,0.5s0.224,0.5,0.5,0.5s0.5-0.224,0.5-0.5S20.776,6.792,20.5,6.792z"/>
	<path d="M21.5,22.292c-0.153,0-0.295-0.068-0.391-0.187l-1.85-2.313H4.74l-1.85,2.312c-0.096,0.119-0.238,0.188-0.391,0.188
		c-0.113,0-0.224-0.039-0.312-0.11c-0.215-0.172-0.25-0.488-0.078-0.703l1.35-1.688H1.5c-0.827,0-1.5-0.673-1.5-1.5v-15
		c0-0.827,0.673-1.5,1.5-1.5h21c0.827,0,1.5,0.673,1.5,1.5v15c0,0.827-0.673,1.5-1.5,1.5h-1.959l1.35,1.688
		c0.172,0.215,0.137,0.531-0.078,0.703C21.724,22.253,21.613,22.292,21.5,22.292z M22.5,18.792c0.276,0,0.5-0.224,0.5-0.5v-15
		c0-0.276-0.224-0.5-0.5-0.5H18v16H22.5z M1.5,2.792c-0.276,0-0.5,0.224-0.5,0.5v15c0,0.276,0.224,0.5,0.5,0.5H17v-16H1.5z"/>
</g>
</svg>
