<svg xmlns="http://www.w3.org/2000/svg" viewBox="0 0 24 24"><title>cellular-network-wifi-3g</title><path d="M15.205,11.853a1,1,0,1,0,1.58-1.225,6.058,6.058,0,0,0-9.58,0,1,1,0,1,0,1.58,1.225,4.06,4.06,0,0,1,6.42,0Z"/><path d="M12,4.142A9.309,9.309,0,0,0,4.714,7.627,1,1,0,1,0,6.27,8.882a7.352,7.352,0,0,1,11.445-.007,1,1,0,1,0,1.554-1.257A9.311,9.311,0,0,0,12,4.142Z"/><path d="M21.8,4.747A12.505,12.505,0,0,0,2.2,4.734,1,1,0,1,0,3.765,5.977a10.5,10.5,0,0,1,16.469.011A1,1,0,0,0,21.8,4.747Z"/><path d="M8.016,14h-3a1,1,0,1,0,0,2h3a1,1,0,0,1,0,2h-1.5a1,1,0,1,0,0,2h1.5a1,1,0,0,1,0,2h-3a1,1,0,1,0,0,2h3a3,3,0,0,0,2.234-5,3,3,0,0,0-2.234-5Z"/><path d="M16.016,16a1,1,0,0,1,1,1,1,1,0,0,0,2,0,3,3,0,0,0-6,0v4a3,3,0,0,0,6,0V20a1,1,0,0,0-1-1h-1.5a1,1,0,1,0,0,2h.5a1,1,0,0,1-2,0V17A1,1,0,0,1,16.016,16Z"/></svg>