<svg xmlns="http://www.w3.org/2000/svg" viewBox="0 0 24 24"><title>headphones-woman</title><path d="M21.114,8.313a.25.25,0,0,1-.159-.209,9,9,0,0,0-17.91,0,.25.25,0,0,1-.159.209A4.5,4.5,0,0,0,4.121,17,.814.814,0,0,0,5,16.188V9A7,7,0,0,1,19,9v7.188a.815.815,0,0,0,.881.809,4.5,4.5,0,0,0,1.233-8.684Z"/><path d="M12,18.5a9.055,9.055,0,0,0-7.933,4.749A.5.5,0,0,0,4.5,24h15a.5.5,0,0,0,.433-.751A9.055,9.055,0,0,0,12,18.5Z"/><path d="M7.022,14.077a2.549,2.549,0,0,1-.552,1.934c-.1.138-.2.283-.31.447a1,1,0,1,0,1.68,1.084c.085-.132.169-.247.25-.358a4.818,4.818,0,0,0,.6-1.026.251.251,0,0,1,.379-.108,4.987,4.987,0,0,0,5.856,0,.251.251,0,0,1,.379.108,4.818,4.818,0,0,0,.6,1.026c.081.111.165.226.25.358a1,1,0,0,0,1.68-1.084c-.106-.164-.209-.309-.31-.447a2.549,2.549,0,0,1-.552-1.934S17,12.16,17,12A5,5,0,0,0,7,12C7,12.16,7.022,14.077,7.022,14.077ZM12,15a3,3,0,0,1-2.9-2.24.251.251,0,0,1,.146-.295,7.334,7.334,0,0,0,2.573-1.775A.25.25,0,0,1,12,10.612a.247.247,0,0,1,.182.079,7.344,7.344,0,0,0,2.573,1.774.25.25,0,0,1,.146.295A3,3,0,0,1,12,15Z"/></svg>