<svg id="Light" xmlns="http://www.w3.org/2000/svg" viewBox="0 0 24 24"><defs><style>.cls-1{fill:none;stroke:currentColor;stroke-linecap:round;stroke-linejoin:round;}</style></defs><title>single-neutral-shopping-bag</title><g id="New_Symbol_42" data-name="New Symbol 42"><path class="cls-1" d="M15.059,17.5V13a2.5,2.5,0,0,1,5,0v4.5"/></g><path class="cls-1" d="M22.935,22.39a1,1,0,0,1-.994,1.11H13.176a1,1,0,0,1-.994-1.11l.778-7a1,1,0,0,1,.994-.89h7.21a1,1,0,0,1,.993.89Z"/><circle class="cls-1" cx="6.059" cy="4" r="3.5"/><path class="cls-1" d="M10.829,12.5A5,5,0,0,0,1.059,14v3.5h2.5l.5,6h4l.5-6h1"/></svg>