<svg id="Light" xmlns="http://www.w3.org/2000/svg" viewBox="0 0 24 24"><defs><style>.cls-1{fill:none;stroke:currentColor;stroke-linecap:round;stroke-linejoin:round;}</style></defs><title>single-neutral-home</title><circle class="cls-1" cx="12" cy="8.25" r="2.75"/><path class="cls-1" d="M15.5,15.5a3.5,3.5,0,0,0-7,0v3h1.583l.417,5h3l.417-5H15.5Z"/><path class="cls-1" d="M7.5,23.5h-6a1,1,0,0,1-1-1V8.8a1,1,0,0,1,.429-.821l10.5-7.3a1,1,0,0,1,1.142,0l10.5,7.3A1,1,0,0,1,23.5,8.8V22.5a1,1,0,0,1-1,1h-6"/></svg>