<svg id="Light" xmlns="http://www.w3.org/2000/svg" viewBox="0 0 24 24"><defs><style>.cls-1{fill:none;stroke:currentColor;stroke-linecap:round;stroke-linejoin:round;}</style></defs><title>single-neutral-protect</title><path class="cls-1" d="M13.068,23.3l1.06-.4A13,13,0,0,0,22.5,10.751v-6.5a2,2,0,0,0-1.2-1.835,23.536,23.536,0,0,0-18.594,0A2,2,0,0,0,1.5,4.249v6.5A13,13,0,0,0,9.872,22.9l1.06.4A2.99,2.99,0,0,0,13.068,23.3Z"/><circle class="cls-1" cx="12" cy="6.5" r="2"/><path class="cls-1" d="M13.111,19l.389-3.5H15v-3a3,3,0,0,0-6,0v3h1.5l.389,3.5"/></svg>