<svg xmlns="http://www.w3.org/2000/svg" viewBox="0 0 24 24"><defs><style>.a{fill:none;stroke:currentColor;stroke-linecap:round;stroke-linejoin:round;}</style></defs><title>email-action-home</title><path class="a" d="M19.5,8.75l4,2.75V22A1.5,1.5,0,0,1,22,23.5H2A1.5,1.5,0,0,1,.5,22V11.5l4-2.75"/><polyline class="a" points="3.5 20.5 8.5 16.5 15.5 16.5 20.5 20.5"/><line class="a" x1="23.5" y1="11.5" x2="17.5" y2="15.5"/><line class="a" x1="0.5" y1="11.5" x2="6.5" y2="15.5"/><path class="a" d="M19.5,14.167V1.5a1,1,0,0,0-1-1H5.5a1,1,0,0,0-1,1V14.167"/><path class="a" d="M9,6.632V10.5a1,1,0,0,0,1,1h4a1,1,0,0,0,1-1V6.632"/><path class="a" d="M8,7.507l3.012-2.636a1.5,1.5,0,0,1,1.976,0L16,7.507"/><path class="a" d="M13,11.5H11v-2a1,1,0,0,1,2,0Z"/></svg>