<?xml version="1.0" encoding="utf-8"?>
<!-- Generator: Adobe Illustrator 22.1.0, SVG Export Plug-In . SVG Version: 6.00 Build 0)  -->
<svg version="1.1" id="Layer_1" xmlns="http://www.w3.org/2000/svg" xmlns:xlink="http://www.w3.org/1999/xlink" x="0px" y="0px"
	 viewBox="0 0 24 24" style="enable-background:new 0 0 24 24;" xml:space="preserve">
<title>browser-page-account</title>
<g>
	<path d="M2.999,22.5c-1.241,0-2.25-1.009-2.25-2.25V3.75c0-1.241,1.009-2.25,2.25-2.25h18c1.241,0,2.25,1.009,2.25,2.25v16.5
		c0,1.241-1.009,2.25-2.25,2.25H2.999z M2.249,20.25c0,0.414,0.336,0.75,0.75,0.75h18c0.414,0,0.75-0.336,0.75-0.75V7.5h-19.5V20.25
		z M21.749,6V3.75c0-0.414-0.336-0.75-0.75-0.75h-18c-0.414,0-0.75,0.336-0.75,0.75V6H21.749z"/>
	<path d="M5.249,16.5c-0.827,0-1.5-0.673-1.5-1.5v-4.5c0-0.827,0.673-1.5,1.5-1.5h4.5c0.827,0,1.5,0.673,1.5,1.5V15
		c0,0.827-0.673,1.5-1.5,1.5H5.249z M5.249,15h4.5v-4.5h-4.5V15z"/>
	<path d="M4.499,19.5c-0.414,0-0.75-0.336-0.75-0.75S4.085,18,4.499,18H10.5c0.414,0,0.75,0.336,0.75,0.75s-0.336,0.75-0.75,0.75
		H4.499z"/>
	<path d="M14.249,19.5c-0.827,0-1.5-0.673-1.5-1.5v-7.5c0-0.827,0.673-1.5,1.5-1.5h4.5c0.827,0,1.5,0.673,1.5,1.5V18
		c0,0.827-0.673,1.5-1.5,1.5H14.249z M14.249,18h4.5v-3h-4.5V18z M18.749,13.5v-3h-4.5l0,3H18.749z"/>
</g>
</svg>
