<?xml version="1.0" encoding="utf-8"?>
<!-- Generator: Adobe Illustrator 22.1.0, SVG Export Plug-In . SVG Version: 6.00 Build 0)  -->
<svg version="1.1" id="Layer_1" xmlns="http://www.w3.org/2000/svg" xmlns:xlink="http://www.w3.org/1999/xlink" x="0px" y="0px"
	 viewBox="0 0 24 24" style="enable-background:new 0 0 24 24;" xml:space="preserve">
<title>browser-page-mail</title>
<g>
	<path d="M3,22.5c-1.241,0-2.25-1.009-2.25-2.25V3.75C0.75,2.509,1.759,1.5,3,1.5h18c1.241,0,2.25,1.009,2.25,2.25v16.5
		c0,1.241-1.009,2.25-2.25,2.25H3z M2.25,20.25C2.25,20.664,2.586,21,3,21h18c0.414,0,0.75-0.336,0.75-0.75V7.5H2.25V20.25z
		 M21.75,6V3.75C21.75,3.336,21.414,3,21,3H3C2.586,3,2.25,3.336,2.25,3.75V6H21.75z"/>
	<path d="M5.25,13.5c-0.827,0-1.5-0.673-1.5-1.5v-1.5c0-0.827,0.673-1.5,1.5-1.5h13.5c0.827,0,1.5,0.673,1.5,1.5V12
		c0,0.827-0.673,1.5-1.5,1.5H5.25z M5.25,12h13.5v-1.5H5.25V12z"/>
	<path d="M5.25,19.5c-0.827,0-1.5-0.673-1.5-1.5v-1.5c0-0.827,0.673-1.5,1.5-1.5h3c0.827,0,1.5,0.673,1.5,1.5V18
		c0,0.827-0.673,1.5-1.5,1.5H5.25z M5.25,18h3v-1.5h-3V18z"/>
	<path d="M12,16.5c-0.414,0-0.75-0.336-0.75-0.75S11.586,15,12,15h7.5c0.414,0,0.75,0.336,0.75,0.75s-0.336,0.75-0.75,0.75H12z"/>
	<path d="M12,19.5c-0.414,0-0.75-0.336-0.75-0.75S11.586,18,12,18h7.5c0.414,0,0.75,0.336,0.75,0.75s-0.336,0.75-0.75,0.75H12z"/>
</g>
</svg>
