<svg xmlns="http://www.w3.org/2000/svg" viewBox="0 0 24 24"><defs><style>.a{fill:none;stroke:currentColor;stroke-linecap:round;stroke-linejoin:round;}</style></defs><title>focus-auto</title><path class="a" d="M21.9,11.293l-2.4-2.4V5.5a1,1,0,0,0-1-1H15.107l-2.4-2.4a1,1,0,0,0-1.414,0l-2.4,2.4H5.5a1,1,0,0,0-1,1V8.894l-2.4,2.4a1,1,0,0,0,0,1.414l2.4,2.4V18.5a1,1,0,0,0,1,1H8.893l2.4,2.4a1,1,0,0,0,1.414,0l2.4-2.4H18.5a1,1,0,0,0,1-1V15.106l2.4-2.4A1,1,0,0,0,21.9,11.293Z"/><path class="a" d="M9.5,16.5V9a2.5,2.5,0,0,1,5,0v7.5"/><line class="a" x1="9.5" y1="11.5" x2="14.5" y2="11.5"/></svg>