<svg xmlns="http://www.w3.org/2000/svg" viewBox="0 0 24 24"><defs><style>.a{fill:none;stroke:currentColor;stroke-linecap:round;stroke-linejoin:round;}</style></defs><title>focus-landscape</title><path class="a" d="M.5,18.5v2a1,1,0,0,0,1,1h2"/><path class="a" d="M3.5,2.5h-2a1,1,0,0,0-1,1v2"/><path class="a" d="M23.5,5.5v-2a1,1,0,0,0-1-1h-2"/><path class="a" d="M20.5,21.5h2a1,1,0,0,0,1-1v-2"/><path class="a" d="M19,17.5l-2.649-7.064c-.193-.515-.6-.562-.906-.1L12,15.5l-1.86-2.232a.666.666,0,0,0-1.154.089L6.5,17.5"/><circle class="a" cx="8" cy="7" r="1.5"/><line class="a" x1="20.5" y1="17.5" x2="3.5" y2="17.5"/></svg>