<svg xmlns="http://www.w3.org/2000/svg" viewBox="0 0 24 24"><defs><style>.a{fill:none;stroke:currentColor;stroke-linecap:round;stroke-linejoin:round;}</style></defs><title>focus-flower</title><line class="a" x1="11.75" y1="23.292" x2="11.75" y2="13.792"/><path class="a" d="M20.25,14.792a8.5,8.5,0,0,0-8.5,8.5A8.5,8.5,0,0,0,20.25,14.792Z"/><path class="a" d="M3.75,15.292a8,8,0,0,1,8,8A8,8,0,0,1,3.75,15.292Z"/><path class="a" d="M18.75,6.792a7,7,0,0,1-14,0v-5.5c0-.55.318-.682.707-.293L8.25,3.792,11.043,1a1,1,0,0,1,1.414,0L15.25,3.792,18.043,1c.389-.389.707-.257.707.293Z"/></svg>