<svg xmlns="http://www.w3.org/2000/svg" viewBox="0 0 24 24"><defs><style>.a{fill:none;stroke:currentColor;stroke-linecap:round;stroke-linejoin:round;}</style></defs><title>focus-camera-auto</title><path class="a" d="M21.5,6H18a1,1,0,0,1-.806-.408C15.905,3.834,15.431,3,14.5,3h-5c-.931,0-1.4.834-2.7,2.592A1,1,0,0,1,6,6H2.5C1,6,.5,6.679.5,7.723V19.111C.5,20.154,1,21,2.556,21H21.444C23,21,23.5,20.154,23.5,19.111V7.723C23.5,6.679,23,6,21.5,6Z"/><path class="a" d="M10.5,16V11.5a1.5,1.5,0,0,1,3,0V16"/><line class="a" x1="10.5" y1="13" x2="13.5" y2="13"/><circle class="a" cx="12" cy="13" r="6"/></svg>