<svg id="Bold" xmlns="http://www.w3.org/2000/svg" viewBox="0 0 24 24"><title>single-woman-actions-alarm</title><path d="M12,15.5a5.951,5.951,0,0,1,.942-3.215.25.25,0,0,0-.124-.37l-1.344-.492a.779.779,0,0,1-.513-.73v-.467a.25.25,0,0,1,.249-.25A6.377,6.377,0,0,0,15,9.081a.388.388,0,0,0,.084-.593c-.494-.537-.836-1.185-.981-3.317C13.838,1.346,11.236,0,9,0S4.161,1.346,3.9,5.171c-.146,2.132-.487,2.78-.981,3.317A.388.388,0,0,0,3,9.081a6.347,6.347,0,0,0,3.781.9.249.249,0,0,1,.254.25v.462a.778.778,0,0,1-.512.73c-2.9,1.065-5.212,1.825-5.764,2.922A7.822,7.822,0,0,0,0,17.076a.386.386,0,0,0,.1.3.4.4,0,0,0,.29.126H11.747A.249.249,0,0,0,12,17.268c0-.033,0-.066,0-.1Z"/><path d="M23.658,19.883h0A4.076,4.076,0,0,1,22.5,17.167V15.5a4.5,4.5,0,0,0-9,0v1.667a4.076,4.076,0,0,1-1.158,2.714h0L12.1,20.2a.5.5,0,0,0,.4.8h11a.5.5,0,0,0,.4-.8v0Z"/><path d="M19.682,22.194a.5.5,0,0,0-.4-.194H16.714a.5.5,0,0,0-.4.194.5.5,0,0,0-.089.431,1.827,1.827,0,0,0,3.541,0A.5.5,0,0,0,19.682,22.194Z"/></svg>