<svg id="Bold" xmlns="http://www.w3.org/2000/svg" viewBox="0 0 24 24"><title>single-woman-actions-email</title><path d="M10.25,17.5a.25.25,0,0,0,.25-.25V15.5A2.5,2.5,0,0,1,13,13h1.3a.25.25,0,0,0,.094-.482c-.852-.345-1.843-.7-2.922-1.1a.779.779,0,0,1-.513-.73v-.467a.25.25,0,0,1,.25-.25A6.374,6.374,0,0,0,15,9.081a.388.388,0,0,0,.084-.593c-.494-.537-.835-1.185-.981-3.317C13.838,1.346,11.236,0,9,0S4.161,1.346,3.9,5.171c-.145,2.132-.487,2.78-.981,3.317A.388.388,0,0,0,3,9.081a6.348,6.348,0,0,0,3.782.9.249.249,0,0,1,.253.25v.462a.778.778,0,0,1-.512.73c-2.9,1.065-5.212,1.825-5.764,2.922A7.822,7.822,0,0,0,0,17.076a.386.386,0,0,0,.1.3.4.4,0,0,0,.29.126Z"/><path d="M24,18.261a.25.25,0,0,0-.383-.212l-4.425,3.078a2.26,2.26,0,0,1-2.384,0l-4.426-3.078a.247.247,0,0,0-.253-.007.249.249,0,0,0-.129.219V22.5A1.5,1.5,0,0,0,13.5,24h9A1.5,1.5,0,0,0,24,22.5Z"/><path d="M24,16a1.5,1.5,0,0,0-1.5-1.5h-9A1.5,1.5,0,0,0,12,16a.073.073,0,0,0,.035.063L17.6,19.855a.752.752,0,0,0,.794,0l5.568-3.792A.075.075,0,0,0,24,16Z"/></svg>