<svg id="Bold" xmlns="http://www.w3.org/2000/svg" viewBox="0 0 24 24"><title>single-woman-actions-music</title><path d="M12.25,17.5a.25.25,0,0,0,.25-.25V13.83a3.451,3.451,0,0,1,.39-1.589.252.252,0,0,0,.01-.205.247.247,0,0,0-.146-.144l-1.28-.469a.779.779,0,0,1-.513-.729v-.468a.25.25,0,0,1,.25-.25A6.374,6.374,0,0,0,15,9.081a.387.387,0,0,0,.084-.592c-.494-.538-.835-1.186-.981-3.318C13.838,1.346,11.236,0,9,0S4.161,1.346,3.9,5.171c-.146,2.132-.487,2.78-.981,3.318A.387.387,0,0,0,3,9.081a6.348,6.348,0,0,0,3.782.9.251.251,0,0,1,.254.25v.463a.779.779,0,0,1-.513.729c-2.9,1.065-5.212,1.825-5.764,2.922A7.822,7.822,0,0,0,0,17.076a.386.386,0,0,0,.1.3.4.4,0,0,0,.29.126Z"/><path d="M13.5,24A2.5,2.5,0,0,0,16,21.5V14.037a.251.251,0,0,1,.2-.246l5.5-1.031a.252.252,0,0,1,.206.054.249.249,0,0,1,.09.192v3.755a.255.255,0,0,1-.081.185.251.251,0,0,1-.192.064C21.652,17,21.577,17,21.5,17A2.5,2.5,0,1,0,24,19.5V12.705a2,2,0,0,0-2.368-1.966l-6,1.125A2,2,0,0,0,14,13.83v4.931a.255.255,0,0,1-.081.185.251.251,0,0,1-.192.064C13.652,19,13.577,19,13.5,19a2.5,2.5,0,0,0,0,5Z"/></svg>