<svg id="Bold" xmlns="http://www.w3.org/2000/svg" viewBox="0 0 24 24"><title>single-woman-actions-address</title><path d="M11.915,12.039a.251.251,0,0,0-.092-.41l-.224-.082a.778.778,0,0,1-.513-.729V10.35a.251.251,0,0,1,.25-.25,6.374,6.374,0,0,0,3.786-.895.387.387,0,0,0,.084-.592c-.494-.538-.835-1.186-.981-3.318-.262-3.825-2.864-5.17-5.1-5.17S4.286,1.47,4.025,5.3c-.145,2.132-.487,2.78-.981,3.318a.387.387,0,0,0,.084.592,6.355,6.355,0,0,0,3.782.9.248.248,0,0,1,.253.25v.462a.776.776,0,0,1-.512.729c-2.9,1.065-5.212,1.826-5.764,2.922A7.828,7.828,0,0,0,.127,17.2a.386.386,0,0,0,.1.3.392.392,0,0,0,.29.127H9.379a.251.251,0,0,0,.25-.243A7.961,7.961,0,0,1,11.915,12.039Z"/><path d="M17.543,10.876A6.5,6.5,0,0,0,15.849,23.7a6.838,6.838,0,0,0,1.528.175,6.485,6.485,0,0,0,1.671-.218,1,1,0,1,0-.514-1.933,4.6,4.6,0,0,1-2.238.026A4.472,4.472,0,0,1,13,18.44a4.544,4.544,0,0,1,.9-3.916,4.482,4.482,0,0,1,3.6-1.648,4.664,4.664,0,0,1,4.383,4.753v.777a.709.709,0,0,1-.536.681.663.663,0,0,1-.183.038.72.72,0,0,1-.719-.719V17.375a3.063,3.063,0,1,0-3.062,3.062,3.005,3.005,0,0,0,1.4-.349.248.248,0,0,1,.307.06,2.734,2.734,0,0,0,.9.7,2.687,2.687,0,0,0,1.179.281,2.722,2.722,0,0,0,2.719-2.719v-.777A6.677,6.677,0,0,0,17.543,10.876Zm-.168,7.561a1.063,1.063,0,1,1,1.062-1.062A1.064,1.064,0,0,1,17.375,18.437Z"/></svg>