<svg id="Bold" xmlns="http://www.w3.org/2000/svg" viewBox="0 0 24 24"><title>single-woman-actions-flag</title><path d="M12.635,12.314a.254.254,0,0,0,0-.2.249.249,0,0,0-.143-.133L11.97,11.8a.778.778,0,0,1-.512-.73V10.6a.249.249,0,0,1,.249-.25,6.378,6.378,0,0,0,3.787-.895.389.389,0,0,0,.083-.593c-.494-.537-.835-1.185-.981-3.317C14.335,1.72,11.732.374,9.5.374S4.658,1.72,4.4,5.545c-.145,2.132-.487,2.78-.981,3.317a.388.388,0,0,0,.084.593,6.35,6.35,0,0,0,3.782.9.251.251,0,0,1,.254.25v.462a.779.779,0,0,1-.513.73c-2.9,1.065-5.212,1.825-5.764,2.922A7.822,7.822,0,0,0,.5,17.45a.386.386,0,0,0,.1.3.4.4,0,0,0,.29.126H12.246a.25.25,0,0,0,.25-.25V13A1.828,1.828,0,0,1,12.635,12.314Z"/><path d="M14,22.626a1,1,0,0,0,2,0V18.712a.25.25,0,0,1,.191-.243,3.048,3.048,0,0,1,2.447.44,4.064,4.064,0,0,0,2.285.7,4.213,4.213,0,0,0,1.363-.227l.932-.43a.5.5,0,0,0,.29-.454V13a.5.5,0,0,0-.71-.454l-.882.41a3.054,3.054,0,0,1-2.718-.37,4.046,4.046,0,0,0-3.6-.489l-1.269.429a.5.5,0,0,0-.34.474Z"/></svg>