<svg id="Bold" xmlns="http://www.w3.org/2000/svg" viewBox="0 0 24 24"><title>single-woman-actions-chat</title><path d="M13,8.5h1.571a.25.25,0,0,0,.22-.131.253.253,0,0,0-.011-.256,6.064,6.064,0,0,1-.68-2.942C13.838,1.346,11.236,0,9,0S4.161,1.346,3.9,5.171c-.145,2.132-.487,2.78-.981,3.317A.388.388,0,0,0,3,9.081a6.348,6.348,0,0,0,3.782.9.249.249,0,0,1,.253.25v.462a.778.778,0,0,1-.512.73c-2.9,1.065-5.212,1.825-5.764,2.922A7.822,7.822,0,0,0,0,17.076a.386.386,0,0,0,.1.3.4.4,0,0,0,.29.126H9.25a.25.25,0,0,0,.25-.25V12A3.5,3.5,0,0,1,13,8.5Z"/><path d="M22,10H13a2,2,0,0,0-2,2v7a2,2,0,0,0,2,2h.75a.25.25,0,0,1,.25.25V23a1,1,0,0,0,1.625.781l3.407-2.726A.247.247,0,0,1,19.188,21H22a2,2,0,0,0,2-2V12A2,2,0,0,0,22,10Zm-3.875,9.219-1.719,1.375A.249.249,0,0,1,16,20.4V20a1,1,0,0,0-1-1H13.25a.25.25,0,0,1-.25-.25v-6.5a.25.25,0,0,1,.25-.25h8.5a.25.25,0,0,1,.25.25v6.5a.249.249,0,0,1-.25.25h-3A1,1,0,0,0,18.125,19.219Z"/><path d="M14.25,14.25A.75.75,0,0,0,15,15h5a.75.75,0,0,0,0-1.5H15A.75.75,0,0,0,14.25,14.25Z"/><path d="M18,17.5A.75.75,0,0,0,18,16H15a.75.75,0,0,0,0,1.5h3Z"/></svg>