<svg id="Bold" xmlns="http://www.w3.org/2000/svg" viewBox="0 0 24 24"><title>single-woman-actions-edit-2</title><path d="M11.57,17.5a.248.248,0,0,0,.176-.073l3.961-3.96a.25.25,0,0,0-.065-.4c-1.054-.529-2.514-1.037-4.168-1.644a.778.778,0,0,1-.513-.729v-.468a.251.251,0,0,1,.25-.25A6.37,6.37,0,0,0,15,9.081a.387.387,0,0,0,.084-.592c-.494-.538-.835-1.186-.981-3.318C13.838,1.346,11.236,0,9,0S4.161,1.346,3.9,5.171c-.146,2.132-.487,2.78-.981,3.318A.387.387,0,0,0,3,9.081a6.355,6.355,0,0,0,3.782.9.249.249,0,0,1,.254.25v.462a.777.777,0,0,1-.513.729c-2.9,1.065-5.212,1.826-5.764,2.922A7.828,7.828,0,0,0,0,17.076a.386.386,0,0,0,.1.3.391.391,0,0,0,.29.126Z"/><path d="M12.062,20.131a.251.251,0,0,0-.422.128L11.012,23.4a.5.5,0,0,0,.49.6.473.473,0,0,0,.1-.01l3.143-.629a.251.251,0,0,0,.128-.422Z"/><path d="M23.228,11.765a2.62,2.62,0,0,0-3.7,0L12.85,18.444a.251.251,0,0,0,0,.354L16.2,22.151a.249.249,0,0,0,.353,0l6.679-6.679A2.621,2.621,0,0,0,23.228,11.765Z"/></svg>