<svg xmlns="http://www.w3.org/2000/svg" viewBox="0 0 24 24"><defs><style>.a{fill:none;stroke:currentColor;stroke-linecap:round;stroke-linejoin:round;stroke-width:1.5px;}</style></defs><title>skull-2</title><path class="a" d="M18.75,10.5a6.75,6.75,0,1,0-10.5,5.613V18.75a1.5,1.5,0,0,0,1.5,1.5h4.5a1.5,1.5,0,0,0,1.5-1.5V16.113A6.743,6.743,0,0,0,18.75,10.5Z"/><line class="a" x1="9" y1="10.125" x2="9" y2="10.125"/><path class="a" d="M9,10.125a.375.375,0,1,0,.375.375A.374.374,0,0,0,9,10.125"/><line class="a" x1="15" y1="10.125" x2="15" y2="10.125"/><path class="a" d="M15,10.125a.375.375,0,1,0,.375.375A.374.374,0,0,0,15,10.125"/><circle class="a" cx="3" cy="3" r="2.25"/><circle class="a" cx="21" cy="3" r="2.25"/><circle class="a" cx="3" cy="21" r="2.25"/><circle class="a" cx="21" cy="21" r="2.25"/><line class="a" x1="8.037" y1="15.962" x2="4.591" y2="19.409"/><line class="a" x1="19.411" y1="4.589" x2="17.464" y2="6.536"/><line class="a" x1="15.963" y1="15.963" x2="19.409" y2="19.409"/><line class="a" x1="4.59" y1="4.589" x2="6.537" y2="6.536"/></svg>