<svg xmlns="http://www.w3.org/2000/svg" viewBox="0 0 24 24"><title>responsive-design-hand</title><path d="M16.5,12a.25.25,0,0,0-.25.25V16a1,1,0,0,0,1,1h.5a3,3,0,0,0,3-3V12.25A.25.25,0,0,0,20.5,12Z"/><path d="M13.243,13.5a1.5,1.5,0,0,0-3,0V21a.25.25,0,0,1-.442.161l-1.278-1.53a1.042,1.042,0,0,0-.8-.367l-1,.017a.976.976,0,0,0-.861,1.438L7.6,23.87A.249.249,0,0,0,7.822,24H18.528a.249.249,0,0,0,.247-.212l.468-3.067a.95.95,0,0,0-.59-.971l-5.245-1.882a.25.25,0,0,1-.165-.235Z"/><path d="M23.25,2a2,2,0,0,0-2-2h-3a2,2,0,0,0-2,2V8.5a2,2,0,0,0,2,2h3a2,2,0,0,0,2-2Zm-5,.25A.25.25,0,0,1,18.5,2H21a.25.25,0,0,1,.25.25v4.5A.25.25,0,0,1,21,7H18.5a.25.25,0,0,1-.25-.25Z"/><path d="M7.25,17a1,1,0,0,0,0-2H5.75a.5.5,0,0,1-.5-.5v-9a.5.5,0,0,1,.5-.5h7.5a1,1,0,0,0,0-2H3.75a3,3,0,0,0-3,3v8a3,3,0,0,0,3,3Z"/></svg>