<?xml version="1.0" encoding="utf-8"?>
<!-- Generator: Adobe Illustrator 22.1.0, SVG Export Plug-In . SVG Version: 6.00 Build 0)  -->
<svg version="1.1" id="Layer_1" xmlns="http://www.w3.org/2000/svg" xmlns:xlink="http://www.w3.org/1999/xlink" x="0px" y="0px"
	 viewBox="0 0 24 24" style="enable-background:new 0 0 24 24;" xml:space="preserve">
<title>button-fast-forward-1</title>
<g>
	<path d="M12,23.998c-6.617,0-12-5.383-12-12c0-6.617,5.383-12,12-12c6.617,0,12,5.383,12,12C24,18.615,18.617,23.998,12,23.998z
		 M12,1.498c-5.79,0-10.5,4.71-10.5,10.5c0,5.79,4.71,10.5,10.5,10.5c5.79,0,10.5-4.71,10.5-10.5C22.5,6.208,17.79,1.498,12,1.498z"
		/>
	<path d="M13.592,17.25c-0.624,0-1.211-0.243-1.653-0.684c-0.354-0.353-0.582-0.8-0.659-1.285l-1.283,1.282
		c-0.442,0.441-1.028,0.684-1.651,0.684c-0.628,0-1.215-0.243-1.657-0.683C6.245,16.123,6.001,15.535,6,14.909v-5.82
		c0-0.625,0.243-1.213,0.685-1.655c0.442-0.442,1.03-0.685,1.656-0.685s1.214,0.243,1.655,0.685l1.283,1.284
		c0.077-0.484,0.303-0.931,0.657-1.284c0.442-0.441,1.03-0.685,1.655-0.685c0.626,0,1.214,0.243,1.655,0.685l4.034,4.036
		c0.142,0.142,0.22,0.33,0.22,0.53s-0.078,0.389-0.22,0.53l-4.034,4.035c-0.442,0.441-1.028,0.684-1.651,0.684H13.592z M12,12.75
		c0.099,0,0.196,0.019,0.287,0.057c0.281,0.116,0.462,0.388,0.462,0.693v1.41c0,0.224,0.088,0.435,0.247,0.594
		c0.159,0.158,0.37,0.246,0.594,0.246c0.226,0,0.436-0.088,0.595-0.246L17.689,12l-3.504-3.506c-0.158-0.158-0.37-0.246-0.595-0.246
		s-0.436,0.087-0.595,0.246c-0.159,0.159-0.246,0.37-0.246,0.595V10.5c0,0.305-0.182,0.577-0.463,0.693
		C12.195,11.231,12.099,11.25,12,11.25c-0.201,0-0.389-0.078-0.531-0.22L8.935,8.494C8.777,8.336,8.566,8.249,8.341,8.249
		c-0.225,0-0.436,0.087-0.595,0.246C7.588,8.653,7.5,8.864,7.5,9.089v5.819c0,0.224,0.088,0.435,0.248,0.594
		c0.159,0.158,0.37,0.246,0.594,0.246c0.225,0,0.436-0.088,0.595-0.246l2.533-2.532C11.611,12.828,11.8,12.75,12,12.75z"/>
</g>
</svg>
