<?xml version="1.0" encoding="utf-8"?>
<!-- Generator: Adobe Illustrator 22.1.0, SVG Export Plug-In . SVG Version: 6.00 Build 0)  -->
<svg version="1.1" id="Layer_1" xmlns="http://www.w3.org/2000/svg" xmlns:xlink="http://www.w3.org/1999/xlink" x="0px" y="0px"
	 viewBox="0 0 24 24" style="enable-background:new 0 0 24 24;" xml:space="preserve">
<title>button-zigzag-2</title>
<g>
	<path d="M3.5,23.998c-0.414,0-0.75-0.336-0.75-0.75V11.255c0-0.601,0.234-1.166,0.659-1.591s0.99-0.659,1.591-0.659
		c0.615,0,1.21,0.255,1.633,0.701l8.346,9.577c0.118,0.123,0.305,0.204,0.502,0.208c0.001,0,0.001,0,0.002,0
		c0.214,0,0.395-0.073,0.535-0.206c0.148-0.141,0.233-0.339,0.233-0.543V2.559l-2.47,2.47c-0.142,0.142-0.33,0.22-0.53,0.22
		s-0.389-0.078-0.53-0.22c-0.142-0.141-0.22-0.33-0.22-0.53s0.078-0.389,0.22-0.53l3.75-3.75c0.07-0.07,0.153-0.125,0.245-0.163
		c0.007-0.003,0.016-0.006,0.024-0.009C16.82,0.015,16.909-0.002,17-0.002c0.089,0,0.176,0.016,0.261,0.048
		c0.011,0.004,0.022,0.008,0.032,0.012c0.085,0.035,0.168,0.09,0.238,0.16l3.75,3.75c0.142,0.141,0.22,0.33,0.22,0.53
		s-0.078,0.389-0.22,0.53s-0.33,0.22-0.53,0.22s-0.389-0.078-0.53-0.22l-2.47-2.47v16.183c0,0.614-0.255,1.208-0.7,1.63
		c-0.42,0.4-0.968,0.62-1.543,0.62l-0.065-0.001c-0.6-0.015-1.159-0.263-1.573-0.699l-8.347-9.577
		c-0.121-0.127-0.321-0.21-0.522-0.21c-0.2,0-0.389,0.078-0.531,0.22c-0.141,0.142-0.219,0.33-0.219,0.53v11.993
		C4.25,23.662,3.914,23.998,3.5,23.998z"/>
</g>
</svg>
