<?xml version="1.0" encoding="utf-8"?>
<!-- Generator: Adobe Illustrator 22.1.0, SVG Export Plug-In . SVG Version: 6.00 Build 0)  -->
<svg version="1.1" id="Layer_1" xmlns="http://www.w3.org/2000/svg" xmlns:xlink="http://www.w3.org/1999/xlink" x="0px" y="0px"
	 viewBox="0 0 24 24" style="enable-background:new 0 0 24 24;" xml:space="preserve">
<title>button-syncing</title>
<g>
	<path d="M7.501,23.246c-0.467,0-0.898-0.21-1.184-0.578C6.112,22.407,6,22.079,6,21.746v-3.008c-3.392-0.375-6-3.257-6-6.708
		c0-3.722,3.028-6.75,6.75-6.75c0.414,0,0.75,0.336,0.75,0.75s-0.336,0.75-0.75,0.75c-2.895,0-5.25,2.355-5.25,5.25
		c0,2.895,2.355,5.25,5.25,5.25h6.75c0.32,0,0.605,0.203,0.709,0.506c0.104,0.303,0.004,0.639-0.249,0.835L8.422,22.93
		C8.156,23.137,7.838,23.246,7.501,23.246z M7.5,21.746l3.814-2.967H7.5V21.746z"/>
	<path d="M17.25,18.779c-0.414,0-0.75-0.336-0.75-0.75s0.336-0.75,0.75-0.75c2.895,0,5.25-2.355,5.25-5.25
		c0-2.895-2.355-5.25-5.25-5.25H10.5c-0.32,0-0.605-0.204-0.709-0.507C9.687,5.97,9.787,5.634,10.04,5.437l5.54-4.308
		c0.261-0.203,0.588-0.316,0.919-0.316C17.326,0.814,18,1.486,18,2.313v3.008c3.392,0.376,6,3.257,6,6.709
		C24,15.751,20.972,18.779,17.25,18.779z M16.5,5.279V2.314l-3.814,2.965H16.5z"/>
</g>
</svg>
