<?xml version="1.0" encoding="utf-8"?>
<!-- Generator: Adobe Illustrator 22.1.0, SVG Export Plug-In . SVG Version: 6.00 Build 0)  -->
<svg version="1.1" id="Layer_1" xmlns="http://www.w3.org/2000/svg" xmlns:xlink="http://www.w3.org/1999/xlink" x="0px" y="0px"
	 viewBox="0 0 24 24" style="enable-background:new 0 0 24 24;" xml:space="preserve">
<title>button-zigzag</title>
<g>
	<path d="M0.75,23.998c-0.414,0-0.75-0.336-0.75-0.75s0.336-0.75,0.75-0.75h18c2.068,0,3.75-1.682,3.75-3.75s-1.682-3.75-3.75-3.75
		H5.25c-2.895,0-5.25-2.355-5.25-5.25c0-2.895,2.355-5.25,5.25-5.25h16.189l-3.22-3.22C18.078,1.137,18,0.948,18,0.748
		s0.078-0.389,0.22-0.53s0.33-0.22,0.53-0.22s0.389,0.078,0.53,0.22l4.5,4.5c0.07,0.07,0.125,0.152,0.163,0.245
		c0.003,0.008,0.007,0.017,0.01,0.026C23.984,5.07,24,5.159,24,5.248c0,0.087-0.016,0.174-0.047,0.258
		c-0.002,0.006-0.004,0.011-0.006,0.016c-0.042,0.104-0.098,0.186-0.168,0.257l-4.499,4.499c-0.142,0.142-0.33,0.22-0.53,0.22
		s-0.389-0.078-0.53-0.22C18.078,10.137,18,9.948,18,9.748s0.078-0.389,0.22-0.53l3.22-3.22H5.25c-2.068,0-3.75,1.682-3.75,3.75
		s1.682,3.75,3.75,3.75h13.5c2.895,0,5.25,2.355,5.25,5.25s-2.355,5.25-5.25,5.25H0.75z"/>
</g>
</svg>
