<svg xmlns="http://www.w3.org/2000/svg" viewBox="0 0 24 24"><defs><style>.a{fill:none;stroke:currentColor;stroke-linecap:round;stroke-linejoin:round;stroke-width:1.5px;}</style></defs><title>music-basket-buy</title><path class="a" d="M9,17.25H4.314a1.441,1.441,0,0,1-1.383-1.136l-2.138-9A1.484,1.484,0,0,1,2.176,5.25H20.324a1.484,1.484,0,0,1,1.383,1.864l-.3,1.256"/><line class="a" x1="3.75" y1="5.25" x2="8.25" y2="0.75"/><line class="a" x1="18.75" y1="5.25" x2="14.25" y2="0.752"/><circle class="a" cx="13.875" cy="21.375" r="1.875"/><circle class="a" cx="21.375" cy="19.125" r="1.875"/><path class="a" d="M15.75,21.375V14.581a1.5,1.5,0,0,1,1.026-1.423l4.5-1.25a1.5,1.5,0,0,1,1.974,1.423v5.794"/></svg>