<svg xmlns="http://www.w3.org/2000/svg" viewBox="0 0 24 24"><defs><style>.a{fill:none;stroke:currentColor;stroke-linecap:round;stroke-linejoin:round;stroke-width:1.5px;}</style></defs><title>music-metronome</title><path class="a" d="M15.557,5.189,14.419,1.776A1.5,1.5,0,0,0,13,.75H9.075a1.5,1.5,0,0,0-1.4.968l-6.825,18a1.5,1.5,0,0,0,1.4,2.032H19a1.5,1.5,0,0,0,1.423-1.974l-2.831-8.493"/><line class="a" x1="3.75" y1="21.75" x2="3.75" y2="23.25"/><line class="a" x1="17.25" y1="21.75" x2="17.25" y2="23.25"/><line class="a" x1="2.352" y1="15.75" x2="19.077" y2="15.75"/><line class="a" x1="6.902" y1="3.75" x2="9.077" y2="3.75"/><line class="a" x1="5.765" y1="6.75" x2="9.077" y2="6.75"/><line class="a" x1="4.627" y1="9.75" x2="9.002" y2="9.75"/><line class="a" x1="3.49" y1="12.75" x2="9.002" y2="12.75"/><circle class="a" cx="21" cy="3" r="2.25"/><line class="a" x1="19.416" y1="4.598" x2="10.5" y2="15.75"/></svg>