<?xml version="1.0" encoding="utf-8"?>
<!-- Generator: Adobe Illustrator 22.1.0, SVG Export Plug-In . SVG Version: 6.00 Build 0)  -->
<svg version="1.1" id="Layer_1" xmlns="http://www.w3.org/2000/svg" xmlns:xlink="http://www.w3.org/1999/xlink" x="0px" y="0px"
	 viewBox="0 0 24 24" style="enable-background:new 0 0 24 24;" xml:space="preserve">
<g>
	<title>headphones-customer-support-human-1</title>
	<path d="M19.31,24c-0.276,0-0.5-0.224-0.5-0.5v-4.388c0-0.159,0.077-0.31,0.205-0.404c2.376-1.73,3.795-4.518,3.795-7.457
		c0-4.316-3.491-8.253-8-9.086v6.258c2.388,1.04,3.583,3.731,2.727,6.209c-0.696,2.014-2.597,3.367-4.73,3.368
		c-0.553,0-1.101-0.092-1.629-0.274c-0.236-0.082-0.471-0.184-0.701-0.306c-1.51,1.343-3.216,2.173-4.734,2.307
		c-0.209,0.75-0.888,1.275-1.683,1.275h-0.5c-0.965,0-1.75-0.785-1.75-1.75s0.785-1.75,1.75-1.75h0.5
		c0.772,0,1.44,0.502,1.667,1.222c1.209-0.129,2.599-0.805,3.879-1.885c-1.595-1.329-2.207-3.489-1.522-5.472
		c0.456-1.32,1.444-2.383,2.725-2.942V2.221c-5.144,1.072-6.678,5.98-8.3,11.17C2.342,13.928,2.174,14.466,2.002,15H4.31
		c0.276,0,0.5,0.224,0.5,0.5V16c0,0.276-0.224,0.5-0.5,0.5s-0.5-0.224-0.5-0.5H2c-0.268-0.001-0.519-0.105-0.708-0.295
		c-0.188-0.189-0.291-0.441-0.291-0.708c0-0.104,0.017-0.207,0.049-0.305c0.17-0.527,0.336-1.059,0.502-1.589
		c1.664-5.325,3.381-10.82,9.295-11.907c0.143-0.684,0.751-1.194,1.463-1.194h1c0.695,0,1.288,0.478,1.45,1.141
		c5.089,0.827,9.05,5.234,9.05,10.109c0,3.164-1.493,6.186-4,8.111V23.5C19.81,23.775,19.586,24,19.31,24z M3.56,18.501
		c-0.414,0-0.75,0.336-0.75,0.75s0.336,0.75,0.75,0.75h0.5c0.414,0,0.75-0.336,0.75-0.75s-0.336-0.75-0.75-0.75H3.56z
		 M11.241,16.676c0.09,0.04,0.176,0.074,0.263,0.104c0.422,0.146,0.86,0.22,1.303,0.22c1.707,0,3.227-1.083,3.784-2.694
		c0.669-1.938-0.24-4.056-2.077-4.92c-0.281,0.384-0.724,0.615-1.204,0.615h-1c-0.48,0-0.923-0.23-1.203-0.614
		c-0.974,0.458-1.725,1.288-2.077,2.306c-0.557,1.611-0.013,3.413,1.322,4.457c0.469-0.474,0.898-0.989,1.278-1.535
		c-0.511-0.374-0.82-0.971-0.82-1.614c0-1.103,0.897-2,2-2s2,0.897,2,2c0,1.103-0.897,2-2,2c-0.074,0-0.149-0.004-0.224-0.013
		C12.187,15.587,11.737,16.153,11.241,16.676z M12.81,12.001c-0.551,0-1,0.449-1,1s0.449,1,1,1c0.552,0,1-0.448,1-1
		S13.361,12.001,12.81,12.001z M12.31,1.001c-0.276,0-0.5,0.224-0.5,0.5v7c0,0.276,0.224,0.5,0.5,0.5h1c0.276,0,0.5-0.224,0.5-0.5
		v-7c0-0.276-0.224-0.5-0.5-0.5H12.31z"/>
	<path d="M9.31,24c-0.276,0-0.5-0.224-0.5-0.5V22h-1.5c-0.361,0-0.717-0.055-1.06-0.163c-0.263-0.083-0.41-0.364-0.327-0.627
		C5.989,21,6.181,20.86,6.4,20.86c0.05,0,0.1,0.008,0.149,0.023C6.796,20.96,7.051,21,7.308,21H9.31c0.276,0,0.5,0.224,0.5,0.5v2
		C9.81,23.775,9.586,24,9.31,24z"/>
</g>
</svg>
