<?xml version="1.0" encoding="utf-8"?>
<!-- Generator: Adobe Illustrator 22.1.0, SVG Export Plug-In . SVG Version: 6.00 Build 0)  -->
<svg version="1.1" id="Layer_1" xmlns="http://www.w3.org/2000/svg" xmlns:xlink="http://www.w3.org/1999/xlink" x="0px" y="0px"
	 viewBox="0 0 24 24" style="enable-background:new 0 0 24 24;" xml:space="preserve">
<g>
	<title>headphones-customer-support</title>
	<path d="M11.5,23c-0.827,0-1.5-0.673-1.5-1.5s0.673-1.5,1.5-1.5h4c0.552,0,1,0.448,1,1H17c1.493,0,3-0.773,3-2.5v-1.757
		c-0.05-0.017-0.098-0.037-0.145-0.06c-0.362-0.172-0.635-0.475-0.769-0.853C19.029,15.669,19,15.5,19,15.33V8c0-3.86-3.14-7-7-7
		S5,4.14,5,8v7.33c0,0.171-0.029,0.339-0.086,0.5c-0.134,0.378-0.407,0.681-0.769,0.853c-0.204,0.097-0.421,0.147-0.644,0.147
		c-0.171,0-0.34-0.029-0.502-0.087c-1.796-0.634-3.003-2.341-3.001-4.247C-0.001,10.199,1.739,8.282,4,8.033V8c0-4.411,3.589-8,8-8
		c4.411,0,8,3.589,8,8v0.033c2.261,0.25,4.001,2.167,4.003,4.464c0.001,1.906-1.205,3.613-3.002,4.247c0,0,0,1.756,0,1.756
		c0,2.094-1.607,3.5-4,3.5h-0.5c0,0.552-0.448,1-1,1H11.5z M11.5,21c-0.276,0-0.5,0.224-0.5,0.5s0.224,0.5,0.5,0.5h4v-1H11.5z
		 M4,9.035c-1.703,0.243-3.001,1.715-3.003,3.462c-0.001,1.482,0.937,2.81,2.335,3.303c0.055,0.02,0.112,0.03,0.168,0.03
		c0.074,0,0.146-0.017,0.215-0.049c0.12-0.057,0.211-0.159,0.256-0.284C3.99,15.443,4,15.387,4,15.33V9.035z M20,15.33
		c0,0.057,0.01,0.113,0.029,0.166c0.045,0.126,0.136,0.227,0.256,0.285c0.068,0.032,0.14,0.049,0.214,0.049
		c0.057,0,0.113-0.01,0.168-0.029c1.398-0.493,2.337-1.821,2.336-3.303c-0.001-1.747-1.3-3.219-3.003-3.462V15.33z"/>
</g>
</svg>
