<?xml version="1.0" encoding="utf-8"?>
<!-- Generator: Adobe Illustrator 22.1.0, SVG Export Plug-In . SVG Version: 6.00 Build 0)  -->
<svg version="1.1" id="Layer_1" xmlns="http://www.w3.org/2000/svg" xmlns:xlink="http://www.w3.org/1999/xlink" x="0px" y="0px"
	 viewBox="0 0 24 24" style="enable-background:new 0 0 24 24;" xml:space="preserve">
<g>
	<title>help-wheel</title>
	<path d="M12,24.001c-2.442,0-4.795-0.734-6.806-2.124c-0.054-0.025-0.102-0.058-0.143-0.099c-0.002-0.002-0.004-0.004-0.007-0.007
		c-1.09-0.778-2.037-1.725-2.815-2.815c-0.001-0.001-0.002-0.002-0.004-0.003c-0.044-0.044-0.077-0.092-0.102-0.146
		C0.734,16.796,0,14.444,0,12.001C0,9.556,0.736,7.2,2.13,5.188c0.025-0.054,0.058-0.102,0.099-0.142
		c0.002-0.002,0.004-0.004,0.006-0.006C3.013,3.95,3.96,3.005,5.05,2.228c0.003-0.003,0.006-0.006,0.009-0.009
		c0.042-0.042,0.09-0.075,0.146-0.1C7.212,0.733,9.562,0.001,12,0.001c2.423,0,4.76,0.723,6.76,2.092
		c0.079,0.024,0.146,0.064,0.201,0.118c0.02,0.02,0.035,0.039,0.046,0.057c1.069,0.771,1.998,1.706,2.763,2.778
		c0.002,0.002,0.005,0.004,0.007,0.006c0.041,0.041,0.074,0.089,0.099,0.143C23.266,7.206,24,9.559,24,12.001
		c0,2.44-0.733,4.79-2.119,6.799c-0.025,0.053-0.058,0.101-0.099,0.142c-0.002,0.002-0.004,0.004-0.007,0.006
		c-0.777,1.091-1.723,2.038-2.813,2.817c0,0,0,0,0,0c-0.046,0.046-0.095,0.08-0.148,0.105C16.801,23.265,14.446,24.001,12,24.001z
		 M6.196,21.34C7.94,22.428,9.94,23.001,12,23.001c2.064,0,4.066-0.575,5.811-1.666l-3.329-3.329
		c-0.79,0.328-1.624,0.495-2.482,0.495c-0.855,0-1.686-0.165-2.474-0.491L6.196,21.34z M3.239,18.641
		c0.608,0.801,1.32,1.513,2.121,2.121l3.23-3.23c-0.863-0.533-1.588-1.258-2.121-2.121L3.239,18.641z M18.647,20.757
		c0.8-0.609,1.511-1.322,2.119-2.123l-3.231-3.23c-0.532,0.863-1.256,1.589-2.118,2.124L18.647,20.757z M2.666,6.19
		C1.575,7.935,1,9.937,1,12.001c0,2.06,0.573,4.06,1.661,5.804l3.33-3.33C5.665,13.688,5.5,12.856,5.5,12.001
		c0-0.858,0.166-1.692,0.494-2.482L2.666,6.19z M21.343,17.797C22.428,16.055,23,14.058,23,12.001c0-2.06-0.573-4.06-1.661-5.804
		l-3.33,3.33c0.326,0.788,0.491,1.619,0.491,2.474c0,0.852-0.164,1.681-0.487,2.466L21.343,17.797z M12,6.501
		c-3.033,0-5.5,2.467-5.5,5.5s2.467,5.5,5.5,5.5s5.5-2.467,5.5-5.5S15.033,6.501,12,6.501z M15.409,6.469
		c0.863,0.533,1.588,1.258,2.122,2.121l3.23-3.23c-0.608-0.801-1.321-1.513-2.122-2.121L15.409,6.469z M6.473,8.584
		c0.535-0.863,1.261-1.587,2.125-2.119l-3.231-3.23c-0.801,0.608-1.514,1.319-2.123,2.12L6.473,8.584z M12,5.501
		c0.855,0,1.686,0.165,2.473,0.491l3.33-3.33C16.06,1.574,14.06,1.001,12,1.001c-2.057,0-4.054,0.572-5.796,1.656l3.331,3.331
		C10.32,5.665,11.148,5.501,12,5.501z"/>
</g>
</svg>
