<svg xmlns="http://www.w3.org/2000/svg" viewBox="0 0 24 24"><defs><style>.a{fill:none;stroke:currentColor;stroke-linecap:round;stroke-linejoin:round;stroke-width:1.5px;}</style></defs><title>face-id-6</title><path class="a" d="M23.25,18.75v3a1.5,1.5,0,0,1-1.5,1.5h-3"/><path class="a" d="M18.75.75h3a1.5,1.5,0,0,1,1.5,1.5v3"/><path class="a" d="M.75,5.25v-3A1.5,1.5,0,0,1,2.25.75h3"/><path class="a" d="M5.25,23.25h-3a1.5,1.5,0,0,1-1.5-1.5v-3"/><path class="a" d="M5.291,19.5a6.751,6.751,0,0,1,13.418,0"/><path class="a" d="M7.876,7.986v1a5.91,5.91,0,0,1-.859,3.273"/><path class="a" d="M16.124,7.986v1a5.91,5.91,0,0,0,.859,3.273"/><path class="a" d="M7.888,8.205A5.484,5.484,0,0,0,12,6.305a5.484,5.484,0,0,0,4.112,1.9"/><circle class="a" cx="12" cy="7.875" r="4.125"/></svg>