<?xml version="1.0" encoding="utf-8"?>
<!-- Generator: Adobe Illustrator 22.1.0, SVG Export Plug-In . SVG Version: 6.00 Build 0)  -->
<svg version="1.1" id="Layer_1" xmlns="http://www.w3.org/2000/svg" xmlns:xlink="http://www.w3.org/1999/xlink" x="0px" y="0px"
	 viewBox="0 0 24 24" style="enable-background:new 0 0 24 24;" xml:space="preserve">
<title>computer-chip-fire</title>
<g>
	<path d="M12.751,24c-0.414,0-0.75-0.336-0.75-0.75V21h-1.5v2.25c0,0.414-0.336,0.75-0.75,0.75s-0.75-0.336-0.75-0.75V21h-1.5v2.25
		c0,0.414-0.336,0.75-0.75,0.75s-0.75-0.336-0.75-0.75V21h-0.75c-1.241,0-2.25-1.009-2.25-2.25V18h-2.25
		c-0.414,0-0.75-0.336-0.75-0.75s0.336-0.75,0.75-0.75h2.25V15h-2.25c-0.414,0-0.75-0.336-0.75-0.75s0.336-0.75,0.75-0.75h2.25V12
		h-2.25c-0.414,0-0.75-0.336-0.75-0.75s0.336-0.75,0.75-0.75h2.25V9.75c0-1.241,1.009-2.25,2.25-2.25h0.75V5.25
		c0-0.414,0.336-0.75,0.75-0.75s0.75,0.336,0.75,0.75V7.5h1.5V5.25c0-0.414,0.336-0.75,0.75-0.75s0.75,0.336,0.75,0.75V7.5h1.5
		c0.414,0,0.75,0.336,0.75,0.75S12.414,9,12.001,9h-6.75c-0.414,0-0.75,0.336-0.75,0.75v9c0,0.414,0.336,0.75,0.75,0.75h9
		c0.414,0,0.75-0.336,0.75-0.75v-4.5c0-0.414,0.336-0.75,0.75-0.75s0.75,0.336,0.75,0.75v2.25h2.25c0.414,0,0.75,0.336,0.75,0.75
		S19.164,18,18.751,18h-2.25v0.75c0,1.241-1.009,2.25-2.25,2.25h-0.75v2.25C13.501,23.663,13.164,24,12.751,24z"/>
	<path d="M7.501,18c-0.827,0-1.5-0.673-1.5-1.5V12c0-0.827,0.673-1.5,1.5-1.5h4.5c0.827,0,1.5,0.673,1.5,1.5v4.5
		c0,0.827-0.673,1.5-1.5,1.5H7.501z M7.501,16.5h4.5l0-4.5h-4.5V16.5z"/>
	<path d="M19.26,12.47c-2.616,0-4.744-2.126-4.744-4.739c-0.107-1.615,0.764-3.187,2.219-3.982c0.11-0.06,0.234-0.092,0.359-0.092
		c0.115,0,0.231,0.027,0.335,0.079c0.219,0.109,0.372,0.32,0.407,0.562c0.041,0.281,0.23,0.517,0.482,0.626
		c0.502-1.237,0.287-2.658-0.581-3.693c-0.21-0.251-0.234-0.606-0.059-0.883C17.817,0.13,18.054,0,18.312,0
		c0.064,0,0.128,0.008,0.191,0.025c3.477,0.908,5.784,4.164,5.49,7.744c-0.05,2.602-2.124,4.666-4.728,4.702
		C19.263,12.47,19.262,12.47,19.26,12.47z M16.793,5.569c-0.543,0.559-0.83,1.323-0.778,2.113c0.001,1.824,1.455,3.288,3.24,3.288
		c1.79-0.024,3.215-1.451,3.239-3.249c0.001-0.024,0.002-0.044,0.004-0.062c0.183-2.144-0.828-4.199-2.575-5.374
		c0.33,1.283,0.156,2.654-0.514,3.824c-0.124,0.216-0.345,0.356-0.593,0.375c-0.06,0.005-0.12,0.007-0.179,0.007
		C17.905,6.491,17.224,6.14,16.793,5.569z"/>
</g>
</svg>
