<?xml version="1.0" encoding="utf-8"?>
<!-- Generator: Adobe Illustrator 22.1.0, SVG Export Plug-In . SVG Version: 6.00 Build 0)  -->
<svg version="1.1" id="Layer_1" xmlns="http://www.w3.org/2000/svg" xmlns:xlink="http://www.w3.org/1999/xlink" x="0px" y="0px"
	 viewBox="0 0 24 24" style="enable-background:new 0 0 24 24;" xml:space="preserve">
<title>computer-chip-64</title>
<g>
	<path d="M12.75,23.25c-0.414,0-0.75-0.336-0.75-0.75v-2.25h-1.5v2.25c0,0.414-0.336,0.75-0.75,0.75S9,22.914,9,22.5v-2.25H7.5v2.25
		c0,0.414-0.336,0.75-0.75,0.75S6,22.914,6,22.5v-2.25H5.25C4.009,20.25,3,19.241,3,18v-0.75H0.75C0.336,17.25,0,16.914,0,16.5
		s0.336-0.75,0.75-0.75H3v-1.5H0.75C0.336,14.25,0,13.914,0,13.5s0.336-0.75,0.75-0.75H3v-1.5H0.75C0.336,11.25,0,10.914,0,10.5
		s0.336-0.75,0.75-0.75H3V9c0-1.241,1.009-2.25,2.25-2.25H6V4.5c0-0.414,0.336-0.75,0.75-0.75S7.5,4.086,7.5,4.5v2.25H9V4.5
		c0-0.414,0.336-0.75,0.75-0.75S10.5,4.086,10.5,4.5v2.25h0.75C11.664,6.75,12,7.086,12,7.5s-0.336,0.75-0.75,0.75h-6
		C4.836,8.25,4.5,8.586,4.5,9v9c0,0.414,0.336,0.75,0.75,0.75h9c0.414,0,0.75-0.336,0.75-0.75v-4.5c0-0.414,0.336-0.75,0.75-0.75
		s0.75,0.336,0.75,0.75v2.25h2.25c0.414,0,0.75,0.336,0.75,0.75s-0.336,0.75-0.75,0.75H16.5V18c0,1.241-1.009,2.25-2.25,2.25H13.5
		v2.25C13.5,22.914,13.164,23.25,12.75,23.25z"/>
	<path d="M7.5,17.25c-0.827,0-1.5-0.673-1.5-1.5v-4.5c0-0.827,0.673-1.5,1.5-1.5H12c0.827,0,1.5,0.673,1.5,1.5v4.5
		c0,0.827-0.673,1.5-1.5,1.5H7.5z M7.5,15.75H12v-4.5H7.5V15.75z"/>
	<path d="M16.5,8.25c-1.241,0-2.25-1.009-2.25-2.25V3.75c0-1.654,1.346-3,3-3C17.664,0.75,18,1.086,18,1.5s-0.336,0.75-0.75,0.75
		c-0.827,0-1.5,0.673-1.5,1.5v0.129c0.239-0.085,0.491-0.129,0.75-0.129c1.241,0,2.25,1.009,2.25,2.25S17.741,8.25,16.5,8.25z
		 M16.5,5.25c-0.414,0-0.75,0.336-0.75,0.75s0.336,0.75,0.75,0.75S17.25,6.414,17.25,6S16.914,5.25,16.5,5.25z"/>
	<path d="M23.25,8.25c-0.414,0-0.75-0.336-0.75-0.75V6h-2.25c-0.414,0-0.75-0.336-0.75-0.75V4.5c0-2.068,1.682-3.75,3.75-3.75
		C23.664,0.75,24,1.086,24,1.5v6C24,7.914,23.664,8.25,23.25,8.25z M22.5,4.5V2.379C21.621,2.692,21,3.538,21,4.5H22.5z"/>
</g>
</svg>
