<svg xmlns="http://www.w3.org/2000/svg" viewBox="0 0 24 24"><defs><style>.a{fill:none;stroke:currentColor;stroke-linecap:round;stroke-linejoin:round;}</style></defs><title>paginate-filter-plus</title><path class="a" d="M23.5,1.5a1,1,0,0,0-1-1H4.5a1,1,0,0,0-1,1v18a1,1,0,0,0,1,1h18a1,1,0,0,0,1-1Z"/><path class="a" d="M20.5,9.5a1,1,0,0,0-1-1h-4v-4a1,1,0,0,0-1-1h-2a1,1,0,0,0-1,1v4h-4a1,1,0,0,0-1,1v2a1,1,0,0,0,1,1h4v4a1,1,0,0,0,1,1h2a1,1,0,0,0,1-1v-4h4a1,1,0,0,0,1-1Z"/><path class="a" d="M3.5,4.5h-2a1,1,0,0,0-1,1v17a1,1,0,0,0,1,1h17a1,1,0,0,0,1-1v-2"/></svg>