<svg xmlns="http://www.w3.org/2000/svg" viewBox="0 0 24 24"><defs><style>.a{fill:none;stroke:currentColor;stroke-linecap:round;stroke-linejoin:round;}</style></defs><title>paginate-filter-audio</title><path class="a" d="M23.5,1.5a1,1,0,0,0-1-1H4.5a1,1,0,0,0-1,1v18a1,1,0,0,0,1,1h18a1,1,0,0,0,1-1Z"/><path class="a" d="M13.5,15.247a2.329,2.329,0,0,1-2.25,2.25,2.514,2.514,0,0,1,0-5H13.5Z"/><path class="a" d="M13.5,12.5l.021-9.328c0,2.73,5.122,1.661,2.765,8.328l-.43,1.125"/><path class="a" d="M3.5,4.5h-2a1,1,0,0,0-1,1v17a1,1,0,0,0,1,1h17a1,1,0,0,0,1-1v-2"/></svg>