<svg xmlns="http://www.w3.org/2000/svg" viewBox="0 0 24 24"><defs><style>.a{fill:none;stroke:currentColor;stroke-linecap:round;stroke-linejoin:round;}</style></defs><title>programming-laptop-type</title><path class="a" d="M8.345,15.959l.282-.982a.767.767,0,0,0-1.475-.422l-.28.984"/><path class="a" d="M6.029,18.489l.843-2.95A.767.767,0,0,0,5.4,15.118l-.42,1.474"/><path class="a" d="M8.6,23.5c1.077-1.057,2.2-2.32,2.2-2.32a.613.613,0,0,0-.641-1.035L8.417,21.3l1.4-4.914a.767.767,0,0,0-1.475-.422L7.5,18.909"/><path class="a" d="M4.345,18.8l.631-2.212a.766.766,0,1,0-1.474-.42L2.1,21.086a2.55,2.55,0,0,0,.5,2.35"/><path class="a" d="M15.71,15.959l-.281-.982a.767.767,0,0,1,1.474-.422l.28.984"/><path class="a" d="M18.026,18.489l-.843-2.95a.767.767,0,0,1,1.476-.421l.42,1.474"/><path class="a" d="M15.451,23.5c-1.077-1.057-2.194-2.32-2.194-2.32a.613.613,0,0,1,.64-1.035L15.639,21.3l-1.4-4.914a.767.767,0,0,1,1.475-.422l.842,2.95"/><path class="a" d="M19.71,18.8l-.631-2.212a.767.767,0,0,1,1.475-.42l1.4,4.914a2.55,2.55,0,0,1-.5,2.35"/><path class="a" d="M6.528.5h11a1,1,0,0,1,1,1V8a0,0,0,0,1,0,0h-13a0,0,0,0,1,0,0V1.5A1,1,0,0,1,6.528.5Z"/><path class="a" d="M5.528,8,4.281,11.324A.5.5,0,0,0,4.749,12H19.306a.5.5,0,0,0,.468-.676L18.528,8"/><line class="a" x1="11.278" y1="10" x2="12.778" y2="10"/></svg>