<svg xmlns="http://www.w3.org/2000/svg" viewBox="0 0 24 24"><defs><style>.a{fill:none;stroke:currentColor;stroke-linecap:round;stroke-linejoin:round;}</style></defs><title>programming-team-chat-2</title><path class="a" d="M19.542,8.5a1,1,0,0,1-1,1h-4l-3,3v-3h-7a1,1,0,0,1-1-1v-7a1,1,0,0,1,1-1h14a1,1,0,0,1,1,1Z"/><path class="a" d="M8.784,19.674a3.953,3.953,0,0,1-.576-2.191v-.9a3.082,3.082,0,1,0-6.164,0v.9a3.962,3.962,0,0,1-.575,2.191"/><path class="a" d="M2.044,17.1a4.081,4.081,0,0,0,3.082-1.413A4.082,4.082,0,0,0,8.208,17.1"/><path class="a" d="M7.843,17.079a2.719,2.719,0,0,1-5.433,0"/><path class="a" d="M22.613,19.674a3.953,3.953,0,0,1-.576-2.191v-.9a3.082,3.082,0,1,0-6.164,0v.9a3.962,3.962,0,0,1-.575,2.191"/><path class="a" d="M15.873,17.1a4.081,4.081,0,0,0,3.082-1.413A4.082,4.082,0,0,0,22.037,17.1"/><path class="a" d="M21.672,17.079a2.719,2.719,0,0,1-5.433,0"/><path class="a" d="M9.213,23.5a4.588,4.588,0,0,0-8.171,0"/><path class="a" d="M23.042,23.5a4.588,4.588,0,0,0-8.171,0"/><polyline class="a" points="14.042 3.003 16.042 5.003 14.042 7.003"/><polyline class="a" points="9.042 3.003 7.042 5.003 9.042 7.003"/><line class="a" x1="12.542" y1="3.003" x2="10.542" y2="7.003"/></svg>