<svg xmlns="http://www.w3.org/2000/svg" viewBox="0 0 24 24"><defs><style>.a{fill:none;stroke:currentColor;stroke-linecap:round;stroke-linejoin:round;}</style></defs><title>programming-user-1</title><path class="a" d="M13,14.5h9.5a1,1,0,0,0,1-1V1.5a1,1,0,0,0-1-1h-12"/><line class="a" x1="5.5" y1="11" x2="5.5" y2="14"/><path class="a" d="M7.5,23.5l.5-6h2.5V14a5,5,0,0,0-10,0v3.5H3l.5,6Z"/><path class="a" d="M6.667,4a5.805,5.805,0,0,0,2.286-.467,3.478,3.478,0,0,0-6.459-1.3A5.809,5.809,0,0,0,6.667,4Z"/><circle class="a" cx="5.5" cy="4" r="3.5"/><polyline class="a" points="12.5 4.5 15 7 12.5 9.5"/><line class="a" x1="17.5" y1="7.5" x2="21.5" y2="7.5"/></svg>