<svg xmlns="http://www.w3.org/2000/svg" viewBox="0 0 24 24"><defs><style>.a{fill:none;stroke:currentColor;stroke-linecap:round;stroke-linejoin:round;}</style></defs><title>programming-user-head</title><line class="a" x1="11.5" y1="20.5" x2="12.5" y2="20.5"/><path class="a" d="M18,14.5a6,6,0,0,0-12,0v2a6,6,0,0,0,12,0Z"/><path class="a" d="M6,14.481C7.288,14.37,9.5,13,9.5,11,11,13.5,13,14.5,16,14.5h2"/><path class="a" d="M6,16.786C6,17.732,7.766,18.5,8.917,18.5A1.926,1.926,0,0,0,11,16.786c0-.947-.933-1.286-2.083-1.286S6,15.839,6,16.786Z"/><path class="a" d="M18,16.786c0,.946-1.766,1.714-2.917,1.714A1.926,1.926,0,0,1,13,16.786c0-.947.933-1.286,2.083-1.286S18,15.839,18,16.786Z"/><line class="a" x1="13" y1="16.5" x2="11" y2="16.5"/><path class="a" d="M20.5,1.5H21a.5.5,0,0,1,.5.5V5.5"/><line class="a" x1="20.5" y1="5.5" x2="22.5" y2="5.5"/><path class="a" d="M20.5,8.5H21a.5.5,0,0,1,.5.5v3.5"/><line class="a" x1="20.5" y1="12.5" x2="22.5" y2="12.5"/><path class="a" d="M1.5,1.5H2a.5.5,0,0,1,.5.5V5.5"/><line class="a" x1="1.5" y1="5.5" x2="3.5" y2="5.5"/><path class="a" d="M1.5,16.5H2a.5.5,0,0,1,.5.5v3.5"/><line class="a" x1="1.5" y1="20.5" x2="3.5" y2="20.5"/><path class="a" d="M16.5,4.5a1,1,0,0,1-2,0v-2a1,1,0,0,1,2,0Z"/><path class="a" d="M22.5,19.5a1,1,0,0,1-2,0v-2a1,1,0,0,1,2,0Z"/><path class="a" d="M9.5,4.5a1,1,0,0,1-2,0v-2a1,1,0,0,1,2,0Z"/><path class="a" d="M3.5,11.5a1,1,0,0,1-2,0v-2a1,1,0,0,1,2,0Z"/></svg>