<svg xmlns="http://www.w3.org/2000/svg" viewBox="0 0 24 24"><defs><style>.a{fill:none;stroke:currentColor;stroke-linecap:round;stroke-linejoin:round;}</style></defs><title>turntable-1</title><rect class="a" x="2.5" y="0.5" width="19" height="23" rx="1" ry="1"/><path class="a" d="M7.072,15.739a6.5,6.5,0,1,1,1.256,1.125"/><path class="a" d="M5,2.75A.25.25,0,1,1,4.75,3,.25.25,0,0,1,5,2.75"/><path class="a" d="M19,2.75a.25.25,0,1,1-.25.25A.25.25,0,0,1,19,2.75"/><path class="a" d="M12,11.25a.25.25,0,1,1-.25.25.25.25,0,0,1,.25-.25"/><line class="a" x1="17.5" y1="20.5" x2="17.5" y2="21.5"/><line class="a" x1="19.5" y1="20.5" x2="19.5" y2="21.5"/><path class="a" d="M4.805,17.3a.659.659,0,0,0-.1,1.014l.984.984A.659.659,0,0,0,6.7,19.2L10.5,13.5Z"/></svg>