<svg xmlns="http://www.w3.org/2000/svg" viewBox="0 0 24 24"><title>gesture-two-finger-flip-left</title><path d="M15.039,12.069a.25.25,0,0,1-.14-.293l1.247-4.657a.93.93,0,0,0-1.8-.454l-1.43,4.592a.25.25,0,0,1-.3.168l-.584-.143a.25.25,0,0,1-.19-.243V6.482a1,1,0,0,0-2,0v7.062a.25.25,0,0,1-.456.143c-1.489-2.138-3.855-1.449-2.761.223l2.912,4.367a.5.5,0,0,0,.416.223h5.434a.5.5,0,0,0,.492-.411c.2-1.1.665-3.683.776-4.165C16.907,12.83,15.993,12.5,15.039,12.069Z"/><path d="M8.038,19.471a.75.75,0,0,0-1.348-.094l-.233.408a.249.249,0,0,1-.415.029A9.533,9.533,0,0,1,4.61,16.951a1,1,0,1,0-1.9.617,10.452,10.452,0,0,0,2.4,4.211.25.25,0,0,1,.041.3l-.455.8a.751.751,0,0,0,.889,1.083l3-1a.75.75,0,0,0,.459-.989Z"/><path d="M21.28,5.908a10,10,0,0,0-2.219-3.681.25.25,0,0,1-.041-.3l.458-.8a.751.751,0,0,0-.89-1.083l-2.985,1a.751.751,0,0,0-.459.986l.985,2.5a.75.75,0,0,0,1.349.1l.236-.414a.251.251,0,0,1,.416-.028A9.18,9.18,0,0,1,19.4,6.6a1,1,0,0,0,1.878-.687Z"/></svg>