<svg xmlns="http://www.w3.org/2000/svg" viewBox="0 0 24 24"><title>gesture-swipe-horizontal-1</title><path d="M23.835,7.654l-2-2.5A.751.751,0,0,0,21,4.915a.722.722,0,0,0-.233.136.25.25,0,0,0-.03.345l1.432,1.79a1.5,1.5,0,0,1,0,1.874l-1.432,1.79a.251.251,0,0,0,.03.345.722.722,0,0,0,.233.136.749.749,0,0,0,.833-.239l2-2.5A.752.752,0,0,0,23.835,7.654Z"/><path d="M1.829,7.186,3.261,5.4a.251.251,0,0,0-.03-.345A.722.722,0,0,0,3,4.915a.75.75,0,0,0-.833.239l-2,2.5a.752.752,0,0,0,0,.938l2,2.5A.749.749,0,0,0,3,11.331a.722.722,0,0,0,.233-.136.25.25,0,0,0,.03-.345L1.829,9.06A1.5,1.5,0,0,1,1.829,7.186Z"/><path d="M4.415,5.154l-2,2.5a.752.752,0,0,0,0,.938l2,2.5a.75.75,0,0,0,1.335-.469v-5A.75.75,0,0,0,4.415,5.154Z"/><path d="M19.585,5.154a.751.751,0,0,0-1.335.469v5a.75.75,0,0,0,1.335.469l2-2.5a.752.752,0,0,0,0-.938Z"/><path d="M12,5.125a3.5,3.5,0,0,0-3.5,3.5v10a.5.5,0,0,0,.5.5h6a.5.5,0,0,0,.5-.5v-10A3.5,3.5,0,0,0,12,5.125ZM13.5,9.75a.374.374,0,0,1-.375.375h-2.25A.375.375,0,0,1,10.5,9.75V8.625a1.5,1.5,0,0,1,3,0Z"/></svg>