<svg xmlns="http://www.w3.org/2000/svg" viewBox="0 0 24 24"><title>gesture-swipe-horizontal-2</title><path d="M16.428,12.525l-3.741-1.117a.25.25,0,0,1-.179-.239V6.6a1,1,0,1,0-2,0v7.064a.25.25,0,0,1-.455.142c-1.49-2.138-3.855-1.449-2.761.224L10.2,18.4a.5.5,0,0,0,.416.223h5.434a.5.5,0,0,0,.493-.411c.2-1.1.664-3.683.775-4.165A1.282,1.282,0,0,0,16.428,12.525Z"/><path d="M23.835,9.1a.752.752,0,0,0,0-.938l-2-2.5A.747.747,0,0,0,21,5.421a.688.688,0,0,0-.233.136.25.25,0,0,0-.03.344l1.432,1.79a1.5,1.5,0,0,1,0,1.874l-1.432,1.79a.251.251,0,0,0,.03.345.722.722,0,0,0,.233.136.749.749,0,0,0,.833-.239Z"/><path d="M1.829,9.565a1.5,1.5,0,0,1,0-1.874L3.261,5.9a.25.25,0,0,0-.03-.344A.688.688,0,0,0,3,5.421a.747.747,0,0,0-.833.238l-2,2.5a.752.752,0,0,0,0,.938l2,2.5a.75.75,0,0,0,.585.281.735.735,0,0,0,.481-.178.25.25,0,0,0,.031-.344Z"/><path d="M5.75,6.128a.75.75,0,0,0-1.335-.469l-2,2.5a.752.752,0,0,0,0,.938l2,2.5a.75.75,0,0,0,1.335-.469Z"/><path d="M21.585,9.1a.752.752,0,0,0,0-.938l-2-2.5a.751.751,0,0,0-1.335.469v5a.75.75,0,0,0,1.335.469Z"/></svg>