<svg xmlns="http://www.w3.org/2000/svg" viewBox="0 0 24 24"><title>gesture-swipe-vertical-up</title><path d="M13.588,4.362l.576-.411a.248.248,0,0,1,.211-.038.251.251,0,0,1,.163.14,15.154,15.154,0,0,1,.9,2.767,1,1,0,0,0,1.95-.443,16.63,16.63,0,0,0-1.234-3.592.251.251,0,0,1,.079-.313l.7-.5a.75.75,0,0,0-.313-1.35L13.754.143a.751.751,0,0,0-.863.616l-.479,2.869A.751.751,0,0,0,13.588,4.362Z"/><path d="M16.636,16.187a1,1,0,0,0-1.2.754,10.586,10.586,0,0,1-2.473,5.194A1,1,0,0,0,14.333,23.6a12.344,12.344,0,0,0,3.057-6.213A1,1,0,0,0,16.636,16.187Z"/><path d="M16.5,8.365H4.5a.5.5,0,0,0-.5.5v6a.5.5,0,0,0,.5.5h12a3.5,3.5,0,0,0,0-7Zm0,5H15.375A.375.375,0,0,1,15,12.99V10.74a.375.375,0,0,1,.375-.375H16.5a1.5,1.5,0,0,1,0,3Z"/></svg>