<svg xmlns="http://www.w3.org/2000/svg" viewBox="0 0 24 24"><title>gesture-zoom-in</title><path d="M21.9,5.905c-1.233-1.621-3.778-2.946-6.774-3.58a.25.25,0,0,1-.2-.279l.068-.476a.5.5,0,0,0-.848-.424l-1.5,1.5a.5.5,0,0,0-.094.577l1,2a.5.5,0,0,0,.942-.153l.078-.546a.251.251,0,0,1,.3-.208c2.415.543,4.524,1.611,5.429,2.8A1,1,0,0,0,21.9,5.905Z"/><path d="M9.853,1.146A.5.5,0,0,0,9,1.57l.066.466a.249.249,0,0,1-.2.28C5.9,2.94,3.343,4.278,2.105,5.9A1,1,0,1,0,3.7,7.113C4.619,5.9,6.7,4.84,9.123,4.307a.25.25,0,0,1,.3.209L9.5,5.07a.5.5,0,0,0,.942.153l1-2a.5.5,0,0,0-.093-.577Z"/><path d="M5.432,9.52a3.077,3.077,0,0,0-2.06,3.3l1.052,9.734a.5.5,0,0,0,.5.447H9.945a.5.5,0,0,0,.5-.554L9.322,12.06A3,3,0,0,0,5.432,9.52ZM7.5,13.769l-1.988.214a.5.5,0,0,1-.551-.444l-.107-.994a1.5,1.5,0,0,1,2.983-.321l.107.994A.5.5,0,0,1,7.5,13.769Z"/><path d="M17.422,9.41a3.05,3.05,0,0,0-2.72,2.77L13.564,22.444a.5.5,0,0,0,.5.556h5.024a.5.5,0,0,0,.5-.445l1.09-9.836A3,3,0,0,0,17.422,9.41Zm1.761,3.15-.11.994a.5.5,0,0,1-.552.442l-1.988-.22a.5.5,0,0,1-.442-.551l.11-.994a1.5,1.5,0,1,1,2.982.329Z"/></svg>