<svg xmlns="http://www.w3.org/2000/svg" viewBox="0 0 24 24"><title>gesture-two-fingers-swipe-right</title><path d="M14.583,14.294a.249.249,0,0,1-.14-.293L15.69,9.343a.93.93,0,0,0-1.8-.454l-1.43,4.592a.249.249,0,0,1-.3.168l-.585-.143a.25.25,0,0,1-.19-.243V8.705a1,1,0,0,0-2,0v7.063a.25.25,0,0,1-.455.143c-1.49-2.138-3.856-1.449-2.762.224L9.08,20.5a.5.5,0,0,0,.416.223h5.435a.5.5,0,0,0,.492-.411c.2-1.1.664-3.684.775-4.166C16.451,15.055,15.537,14.719,14.583,14.294Z"/><path d="M23.389,4.153a.751.751,0,0,0-1.411-.215l-.486.972a.25.25,0,0,1-.322.117,23.949,23.949,0,0,0-9.283-1.754A20.178,20.178,0,0,0,.565,6.32,1,1,0,1,0,1.684,7.978a18.2,18.2,0,0,1,10.2-2.7,22.012,22.012,0,0,1,8.357,1.535.254.254,0,0,1,.138.144.251.251,0,0,1-.011.2l-.35.7a.751.751,0,0,0,.951,1.031L23.405,7.9a.75.75,0,0,0,.461-.816Z"/></svg>