<svg xmlns="http://www.w3.org/2000/svg" viewBox="0 0 24 24"><title>gesture-swipe-vertical-down-two-fingers</title><path d="M20.1,23.373a.751.751,0,0,0,.212-1.411l-.97-.485a.249.249,0,0,1-.118-.321,24.015,24.015,0,0,0,1.753-9.283A20.159,20.159,0,0,0,17.934.565a1,1,0,1,0-1.658,1.118,18.192,18.192,0,0,1,2.7,10.19,22.088,22.088,0,0,1-1.531,8.357.246.246,0,0,1-.143.138.249.249,0,0,1-.2-.01l-.7-.352a.751.751,0,0,0-1.032.949l.978,2.446a.753.753,0,0,0,.819.461Z"/><path d="M16.061,15.372a3,3,0,0,0-3-3H3.449a.429.429,0,0,0-.429.428v5.143a.429.429,0,0,0,.429.428h9.612A3,3,0,0,0,16.061,15.372Zm-3,1.5h-1a.5.5,0,0,1-.5-.5v-2a.5.5,0,0,1,.5-.5h1a1.5,1.5,0,0,1,0,3Z"/><path d="M3.02,10.944a.429.429,0,0,0,.429.428H13.02a3,3,0,1,0,0-6H3.449A.429.429,0,0,0,3.02,5.8Zm8.5-3.572a.5.5,0,0,1,.5-.5h1a1.5,1.5,0,0,1,0,3h-1a.5.5,0,0,1-.5-.5Z"/></svg>