<svg xmlns="http://www.w3.org/2000/svg" viewBox="0 0 24 24"><title>gesture-swipe-vertical-down</title><path d="M15.44,7.057a1,1,0,0,0,1.95-.443A12.344,12.344,0,0,0,14.333.4a1,1,0,0,0-1.366,1.461A10.585,10.585,0,0,1,15.44,7.057Z"/><path d="M16.636,16.424a1,1,0,0,0-1.2.754,15.31,15.31,0,0,1-.9,2.767.251.251,0,0,1-.374.1l-.578-.413a.751.751,0,0,0-1.176.734l.479,2.87a.75.75,0,0,0,.739.626c.082,0-.167.038,2.994-.489a.75.75,0,0,0,.312-1.35l-.7-.5a.249.249,0,0,1-.079-.312,16.838,16.838,0,0,0,1.228-3.6A1,1,0,0,0,16.636,16.424Z"/><path d="M16.5,8.632H4.5a.5.5,0,0,0-.5.5v6a.5.5,0,0,0,.5.5h12a3.5,3.5,0,0,0,0-7Zm0,5H15.375A.375.375,0,0,1,15,13.257v-2.25a.375.375,0,0,1,.375-.375H16.5a1.5,1.5,0,0,1,0,3Z"/></svg>