<svg xmlns="http://www.w3.org/2000/svg" viewBox="0 0 24 24"><title>gesture-two-fingers-scroll</title><path d="M15.524,12.059a.249.249,0,0,1-.137-.3l1.239-4.132a.93.93,0,0,0-1.8-.454L13.4,11.254a.25.25,0,0,1-.295.161l-.593-.144a.25.25,0,0,1-.191-.243V6.99a1,1,0,0,0-2,0v6.544a.25.25,0,0,1-.455.143c-1.49-2.139-3.856-1.45-2.762.221l2.911,3.434a.5.5,0,0,0,.383.177l5.085-.018a.5.5,0,0,0,.465-.319c.333-.861,1.074-2.766,1.187-3.258C17.386,12.823,16.477,12.485,15.524,12.059Z"/><path d="M11.314,3.749h5a.751.751,0,0,0,.468-1.336l-2.5-2a.75.75,0,0,0-.937,0l-2.5,2A.751.751,0,0,0,11.314,3.749Z"/><path d="M16.314,20.249h-5a.75.75,0,0,0-.469,1.335l2.5,2a.75.75,0,0,0,.937,0l2.5-2A.75.75,0,0,0,16.314,20.249Z"/></svg>