<svg xmlns="http://www.w3.org/2000/svg" viewBox="0 0 24 24"><title>gesture-swipe-vertical-down-3</title><path d="M17.343,12.256a1,1,0,0,0,0-2H10.28a.25.25,0,0,1-.143-.455c2.138-1.49,1.449-3.855-.224-2.761L5.546,9.952a.5.5,0,0,0-.223.416V15.8a.5.5,0,0,0,.411.493c1.1.2,3.684.664,4.166.775a1.281,1.281,0,0,0,1.519-.894l1.117-3.741a.25.25,0,0,1,.239-.179Z"/><path d="M15.094,22.2A1.748,1.748,0,0,1,13.433,21l-.423-1.272a.249.249,0,0,0-.2-.168.731.731,0,0,0-.6.169.748.748,0,0,0-.221.8l.945,2.834a.755.755,0,0,0,.95.474l2.834-.944a.748.748,0,0,0,.51-.659.738.738,0,0,0-.091-.412.251.251,0,0,0-.3-.116l-1.192.4A1.722,1.722,0,0,1,15.094,22.2Z"/><path d="M15.742,8.031a1.011,1.011,0,0,0,1.134.845,1,1,0,0,0,.844-1.134c-.475-3.255-1.6-5.731-3.34-7.361a1,1,0,0,0-1.368,1.46A10.3,10.3,0,0,1,15.742,8.031Z"/><path d="M14.485,16.945a.751.751,0,0,0-1.048.908l.945,2.834a.75.75,0,0,0,.949.475l2.834-.945a.751.751,0,0,0,.1-1.382l-1.032-.517a.249.249,0,0,1-.129-.292c.074-.256.143-.518.209-.786.171-.7.323-1.432.435-2.2a1,1,0,0,0-1.979-.29c-.079.544-.181,1.063-.293,1.569-.052.237-.106.47-.164.7a.245.245,0,0,1-.138.166.248.248,0,0,1-.216,0Z"/></svg>