<svg xmlns="http://www.w3.org/2000/svg" viewBox="0 0 24 24"><title>gesture-swipe-horizontal-left</title><path d="M23.6,9.742a12.341,12.341,0,0,0-6.213-3.058,1,1,0,0,0-.442,1.951,10.59,10.59,0,0,1,5.2,2.473A1,1,0,1,0,23.6,9.742Z"/><path d="M6.378,6.685a16.918,16.918,0,0,0-3.6,1.225.25.25,0,0,1-.312-.08l-.494-.691a.75.75,0,0,0-1.35.313L.144,10.321a.75.75,0,0,0,.616.863l2.87.478a.751.751,0,0,0,.733-1.176L3.95,9.907a.249.249,0,0,1,.1-.374,15.234,15.234,0,0,1,2.767-.9,1,1,0,0,0-.442-1.951Z"/><path d="M11.739,4a3.5,3.5,0,0,0-3.5,3.5v12a.5.5,0,0,0,.5.5h6a.5.5,0,0,0,.5-.5V7.5A3.5,3.5,0,0,0,11.739,4Zm1.5,4.625A.375.375,0,0,1,12.864,9h-2.25a.374.374,0,0,1-.375-.375V7.5a1.5,1.5,0,1,1,3,0Z"/></svg>