<svg xmlns="http://www.w3.org/2000/svg" viewBox="0 0 24 24"><title>gesture-tap-two-fingers</title><path d="M8.25,9.124a3,3,0,0,0-3,3V19.7a.428.428,0,0,0,.428.428h5.143a.428.428,0,0,0,.428-.428V12.123A3,3,0,0,0,8.25,9.124Zm1.5,4a.5.5,0,0,1-.5.5h-2a.5.5,0,0,1-.5-.5v-1a1.5,1.5,0,0,1,3,0Z"/><path d="M15.75,6.624a3,3,0,0,0-3,3V19.7a.428.428,0,0,0,.428.428h5.143a.428.428,0,0,0,.428-.428V9.623A3,3,0,0,0,15.75,6.624Zm1.5,4a.5.5,0,0,1-.5.5h-2a.5.5,0,0,1-.5-.5v-1a1.5,1.5,0,0,1,3,0Z"/><path d="M15.75,3.874a5.727,5.727,0,0,0-3.159.945.75.75,0,0,0,.825,1.253,4.252,4.252,0,0,1,6.528,4.243.75.75,0,0,0,1.481.241A5.756,5.756,0,0,0,15.75,3.874Z"/><path d="M8.25,7.874a4.255,4.255,0,0,1,1.007.12.75.75,0,1,0,.352-1.458,5.752,5.752,0,0,0-6.927,7.025.75.75,0,1,0,1.452-.374A4.254,4.254,0,0,1,8.25,7.874Z"/></svg>