<svg xmlns="http://www.w3.org/2000/svg" viewBox="0 0 24 24"><title>gesture-tap-two-fingers-clock</title><path d="M7,13a3,3,0,0,0-3,3v7.573A.429.429,0,0,0,4.429,24H9.571A.429.429,0,0,0,10,23.571V16A3,3,0,0,0,7,13Zm1.5,4a.5.5,0,0,1-.5.5H6a.5.5,0,0,1-.5-.5V16a1.5,1.5,0,0,1,3,0Z"/><path d="M14.5,10.5a3,3,0,0,0-3,3V23.571a.429.429,0,0,0,.429.428h5.142a.429.429,0,0,0,.429-.428V13.5A3,3,0,0,0,14.5,10.5Zm1.5,4a.5.5,0,0,1-.5.5h-2a.5.5,0,0,1-.5-.5v-1a1.5,1.5,0,0,1,3,0Z"/><path d="M18,10.749a.138.138,0,0,0-.11.219,4.186,4.186,0,0,1,.86,2.531,4.245,4.245,0,0,1-.056.69.75.75,0,1,0,1.48.243,5.708,5.708,0,0,0-.642-3.7.25.25,0,0,0-.272-.123A5.876,5.876,0,0,1,18,10.749Z"/><path d="M13.045,8.12a.25.25,0,0,0-.281-.1,5.682,5.682,0,0,0-1.423.672.75.75,0,1,0,.824,1.253,4.146,4.146,0,0,1,1.422-.591.249.249,0,0,0,.127-.419A6.035,6.035,0,0,1,13.045,8.12Z"/><path d="M7,11.749a4.247,4.247,0,0,1,1.006.12.75.75,0,1,0,.353-1.458,5.755,5.755,0,0,0-6.928,7.025.75.75,0,1,0,1.453-.373A4.255,4.255,0,0,1,7,11.749Z"/><path d="M18,0a4.75,4.75,0,1,0,4.75,4.75A4.756,4.756,0,0,0,18,0Zm0,8a3.25,3.25,0,1,1,3.25-3.25A3.254,3.254,0,0,1,18,8Z"/><path d="M19.768,4H19a.25.25,0,0,1-.25-.25V2.981a.75.75,0,0,0-1.5,0V4.749A.75.75,0,0,0,18,5.5h1.768a.75.75,0,1,0,0-1.5Z"/></svg>