<svg xmlns="http://www.w3.org/2000/svg" viewBox="0 0 24 24"><title>gesture-tap-swipe-right</title><path d="M23.836,8.9l-2-2.5a.751.751,0,0,0-1.336.468v1.25a.249.249,0,0,1-.25.25H15.5a1,1,0,0,0,0,2h4.75a.25.25,0,0,1,.25.25v1.25a.751.751,0,0,0,1.336.469l2-2.5A.75.75,0,0,0,23.836,8.9Z"/><path d="M7.25,3.623A7.252,7.252,0,0,0,1.1,14.716a.75.75,0,1,0,1.272-.795,5.75,5.75,0,1,1,9.746.013.749.749,0,1,0,1.268.8A7.25,7.25,0,0,0,7.25,3.623Z"/><path d="M7.254,7.374a3.5,3.5,0,0,0-3.5,3.5v9a.5.5,0,0,0,.5.5h6a.5.5,0,0,0,.5-.5v-9A3.5,3.5,0,0,0,7.254,7.374ZM8.754,12a.375.375,0,0,1-.375.375H6.129A.375.375,0,0,1,5.754,12V10.874a1.5,1.5,0,0,1,3,0Z"/></svg>