<svg xmlns="http://www.w3.org/2000/svg" viewBox="0 0 24 24"><title>volume-control-off-1</title><path d="M14.927,6.2A.249.249,0,0,0,15,6.027v-.82A1,1,0,0,0,13.293,4.5L9.366,8.427a.249.249,0,0,1-.177.073H7a2,2,0,0,0-2,2v3a2,2,0,0,0,.754,1.562.25.25,0,0,0,.333-.018Z"/><path d="M12,0A12,12,0,1,0,24,12,12.013,12.013,0,0,0,12,0ZM2,12A9.995,9.995,0,0,1,18.388,4.312a.254.254,0,0,1,.09.181.252.252,0,0,1-.074.189L4.681,18.4a.25.25,0,0,1-.369-.017A9.965,9.965,0,0,1,2,12ZM12,22a9.942,9.942,0,0,1-5.809-1.866.247.247,0,0,1-.1-.182.254.254,0,0,1,.072-.2l3.522-3.521a.25.25,0,0,1,.353,0l3.258,3.259A1,1,0,0,0,15,18.785V11.018a.249.249,0,0,1,.073-.177L19.755,6.16a.249.249,0,0,1,.2-.072.253.253,0,0,1,.183.1A9.995,9.995,0,0,1,12,22Z"/></svg>