<svg xmlns="http://www.w3.org/2000/svg" viewBox="0 0 24 24"><title>volume-control-up-2</title><path d="M9.5,17.5a7.977,7.977,0,0,1,2.424-5.731A.248.248,0,0,0,12,11.591V1A1,1,0,0,0,10.293.294L4.366,6.221a.249.249,0,0,1-.177.073H2a2,2,0,0,0-2,2v3.414a2,2,0,0,0,2,2H4.189a.253.253,0,0,1,.177.073l4.751,4.752a.25.25,0,0,0,.426-.2A8.1,8.1,0,0,1,9.5,17.5Z"/><path d="M17.5,11A6.5,6.5,0,1,0,24,17.5,6.508,6.508,0,0,0,17.5,11Zm.75,9a.75.75,0,0,1-1.5,0V18.5a.25.25,0,0,0-.25-.25H15a.75.75,0,0,1,0-1.5h1.5a.25.25,0,0,0,.25-.25V15a.75.75,0,0,1,1.5,0v1.5a.25.25,0,0,0,.25.25H20a.75.75,0,0,1,0,1.5H18.5a.25.25,0,0,0-.25.25Z"/></svg>