<?xml version="1.0" encoding="utf-8"?>
<!-- Generator: Adobe Illustrator 22.1.0, SVG Export Plug-In . SVG Version: 6.00 Build 0)  -->
<svg version="1.1" id="Layer_1" xmlns="http://www.w3.org/2000/svg" xmlns:xlink="http://www.w3.org/1999/xlink" x="0px" y="0px"
	 viewBox="0 0 24 24" style="enable-background:new 0 0 24 24;" xml:space="preserve">
<g>
	<title>phone-action-email</title>
	<path d="M12,22.25c-0.414,0-0.75-0.336-0.75-0.75c0-0.391,0.305-0.718,0.696-0.746c0.003,0,0.006-0.001,0.008-0.001
		c0.017-0.002,0.031-0.003,0.046-0.003c0.414,0,0.75,0.336,0.75,0.75S12.414,22.25,12,22.25z"/>
	<path d="M7.5,24C6.121,24,5,22.878,5,21.5v-19C5,1.121,6.121,0,7.5,0h9C17.878,0,19,1.121,19,2.5v19c0,1.378-1.122,2.5-2.5,2.5H7.5
		z M6,21.5C6,22.327,6.673,23,7.5,23h9c0.827,0,1.5-0.673,1.5-1.5V20H6V21.5z M18,19V5H6v14H18z M18,4V2.5C18,1.673,17.327,1,16.5,1
		h-9C6.673,1,6,1.673,6,2.5V4H18z"/>
	<path d="M10.5,3C10.224,3,10,2.776,10,2.5S10.224,2,10.5,2h3C13.776,2,14,2.224,14,2.5S13.776,3,13.5,3H10.5z"/>
	<path d="M9.5,15C8.673,15,8,14.327,8,13.5v-4C8,8.673,8.673,8,9.5,8h5C15.327,8,16,8.673,16,9.5v4c0,0.827-0.673,1.5-1.5,1.5H9.5z
		 M9,13.5C9,13.776,9.224,14,9.5,14h5c0.276,0,0.5-0.224,0.5-0.5v-3.016l-2.175,1.588c-0.261,0.164-0.542,0.246-0.83,0.246
		c-0.281,0-0.554-0.078-0.79-0.225L9,10.484V13.5z M11.765,11.265c0.055,0.033,0.14,0.056,0.23,0.056c0.097,0,0.19-0.026,0.27-0.077
		l2.685-1.962C14.868,9.115,14.694,9,14.5,9h-5C9.307,9,9.132,9.115,9.05,9.283L11.765,11.265z"/>
</g>
</svg>
