<?xml version="1.0" encoding="utf-8"?>
<!-- Generator: Adobe Illustrator 22.1.0, SVG Export Plug-In . SVG Version: 6.00 Build 0)  -->
<svg version="1.1" id="Layer_1" xmlns="http://www.w3.org/2000/svg" xmlns:xlink="http://www.w3.org/1999/xlink" x="0px" y="0px"
	 viewBox="0 0 24 24" style="enable-background:new 0 0 24 24;" xml:space="preserve">
<g>
	<title>phone-action-music</title>
	<path d="M12,22.25c-0.414,0-0.75-0.336-0.75-0.75c0-0.391,0.305-0.718,0.696-0.746c0.003,0,0.006-0.001,0.008-0.001
		c0.017-0.002,0.031-0.003,0.046-0.003c0.414,0,0.75,0.336,0.75,0.75S12.414,22.25,12,22.25z"/>
	<path d="M7.5,24C6.121,24,5,22.878,5,21.5v-19C5,1.121,6.121,0,7.5,0h9C17.878,0,19,1.121,19,2.5v19c0,1.378-1.122,2.5-2.5,2.5H7.5
		z M6,21.5C6,22.327,6.673,23,7.5,23h9c0.827,0,1.5-0.673,1.5-1.5V20H6V21.5z M18,19V5H6v14H18z M18,4V2.5C18,1.673,17.327,1,16.5,1
		h-9C6.673,1,6,1.673,6,2.5V4H18z"/>
	<path d="M10.5,3C10.224,3,10,2.776,10,2.5S10.224,2,10.5,2h3C13.776,2,14,2.224,14,2.5S13.776,3,13.5,3H10.5z"/>
	<path d="M9.25,16c-0.965,0-1.75-0.785-1.75-1.75s0.785-1.75,1.75-1.75c0.261,0,0.517,0.059,0.75,0.17V9.721
		c0-0.647,0.412-1.219,1.026-1.423l3.024-0.84c0.137-0.046,0.293-0.071,0.45-0.071c0.646,0,1.218,0.413,1.422,1.028
		C15.974,8.566,16,8.726,16,8.887V12.5c0,0.032-0.004,0.059-0.009,0.082C15.997,12.637,16,12.693,16,12.75
		c0,0.965-0.785,1.75-1.75,1.75s-1.75-0.785-1.75-1.75c0-0.965,0.785-1.75,1.75-1.75c0.261,0,0.517,0.059,0.75,0.17V8.887
		c0-0.053-0.009-0.106-0.026-0.157c-0.068-0.204-0.259-0.342-0.475-0.342c-0.053,0-0.106,0.009-0.157,0.026l-3.024,0.84
		C11.136,9.315,11,9.509,11,9.721v4.529C11,15.215,10.215,16,9.25,16z M9.25,13.5c-0.414,0-0.75,0.336-0.75,0.75S8.836,15,9.25,15
		S10,14.664,10,14.25S9.664,13.5,9.25,13.5z M14.25,12c-0.414,0-0.75,0.336-0.75,0.75s0.336,0.75,0.75,0.75S15,13.164,15,12.75
		S14.664,12,14.25,12z"/>
</g>
</svg>
