<?xml version="1.0" encoding="utf-8"?>
<!-- Generator: Adobe Illustrator 22.1.0, SVG Export Plug-In . SVG Version: 6.00 Build 0)  -->
<svg version="1.1" id="Layer_1" xmlns="http://www.w3.org/2000/svg" xmlns:xlink="http://www.w3.org/1999/xlink" x="0px" y="0px"
	 viewBox="0 0 24 24" style="enable-background:new 0 0 24 24;" xml:space="preserve">
<g>
	<title>phone-action-information-1</title>
	<circle cx="9" cy="21.5" r="0.75"/>
	<path d="M4.5,24C3.121,24,2,22.878,2,21.5v-19C2,1.121,3.121,0,4.5,0h5C9.776,0,10,0.224,10,0.5S9.776,1,9.5,1h-5
		C3.673,1,3,1.673,3,2.5V19h12v-3.5c0-0.276,0.224-0.5,0.5-0.5s0.5,0.224,0.5,0.5v6c0,1.378-1.122,2.5-2.5,2.5H4.5z M3,21.5
		C3,22.327,3.673,23,4.5,23h9c0.827,0,1.5-0.673,1.5-1.5V20H3V21.5z"/>
	<path d="M15.5,13C11.916,13,9,10.084,9,6.5S11.916,0,15.5,0C19.084,0,22,2.916,22,6.5S19.084,13,15.5,13z M15.5,1
		C12.467,1,10,3.467,10,6.5s2.467,5.5,5.5,5.5S21,9.533,21,6.5S18.533,1,15.5,1z"/>
	<circle cx="14.75" cy="3.25" r="0.75"/>
	<path d="M14,10c-0.276,0-0.5-0.224-0.5-0.5S13.724,9,14,9h1V6h-1c-0.276,0-0.5-0.224-0.5-0.5S13.724,5,14,5h1c0.552,0,1,0.449,1,1
		v3h1c0.276,0,0.5,0.224,0.5,0.5S17.276,10,17,10H14z"/>
</g>
</svg>
