<?xml version="1.0" encoding="utf-8"?>
<!-- Generator: Adobe Illustrator 22.1.0, SVG Export Plug-In . SVG Version: 6.00 Build 0)  -->
<svg version="1.1" id="Layer_1" xmlns="http://www.w3.org/2000/svg" xmlns:xlink="http://www.w3.org/1999/xlink" x="0px" y="0px"
	 viewBox="0 0 24 24" style="enable-background:new 0 0 24 24;" xml:space="preserve">
<g>
	<title>phone-action-credit-card-1</title>
	<circle cx="9" cy="21.5" r="0.75"/>
	<path d="M4.5,24C3.121,24,2,22.878,2,21.5v-19C2,1.121,3.121,0,4.5,0H10c0.276,0,0.5,0.224,0.5,0.5S10.276,1,10,1H4.5
		C3.673,1,3,1.673,3,2.5V19h12v-4.5c0-0.276,0.224-0.5,0.5-0.5s0.5,0.224,0.5,0.5v7c0,1.378-1.122,2.5-2.5,2.5H4.5z M3,21.5
		C3,22.327,3.673,23,4.5,23h9c0.827,0,1.5-0.673,1.5-1.5V20H3V21.5z"/>
	<path d="M15.5,9C15.224,9,15,8.776,15,8.5S15.224,8,15.5,8h3C18.776,8,19,8.224,19,8.5S18.776,9,18.5,9H15.5z"/>
	<path d="M10.5,12C9.673,12,9,11.327,9,10.5v-7C9,2.673,9.673,2,10.5,2h10C21.327,2,22,2.673,22,3.5v7c0,0.827-0.673,1.5-1.5,1.5
		H10.5z M10,10.5c0,0.276,0.224,0.5,0.5,0.5h10c0.276,0,0.5-0.224,0.5-0.5V6H10V10.5z M21,5V3.5C21,3.224,20.776,3,20.5,3h-10
		C10.224,3,10,3.224,10,3.5V5H21z"/>
</g>
</svg>
