<?xml version="1.0" encoding="utf-8"?>
<!-- Generator: Adobe Illustrator 22.1.0, SVG Export Plug-In . SVG Version: 6.00 Build 0)  -->
<svg version="1.1" id="Layer_1" xmlns="http://www.w3.org/2000/svg" xmlns:xlink="http://www.w3.org/1999/xlink" x="0px" y="0px"
	 viewBox="0 0 24 24" style="enable-background:new 0 0 24 24;" xml:space="preserve">
<g>
	<title>phone-action-share</title>
	<path d="M12,22.25c-0.414,0-0.75-0.336-0.75-0.75c0-0.391,0.305-0.718,0.696-0.746c0.003,0,0.006-0.001,0.008-0.001
		c0.017-0.002,0.031-0.003,0.046-0.003c0.414,0,0.75,0.336,0.75,0.75S12.414,22.25,12,22.25z"/>
	<path d="M7.5,24C6.121,24,5,22.878,5,21.5v-19C5,1.121,6.121,0,7.5,0h9C17.878,0,19,1.121,19,2.5v19c0,1.378-1.122,2.5-2.5,2.5H7.5
		z M6,21.5C6,22.327,6.673,23,7.5,23h9c0.827,0,1.5-0.673,1.5-1.5V20H6V21.5z M18,19V5H6v14H18z M18,4V2.5C18,1.673,17.327,1,16.5,1
		h-9C6.673,1,6,1.673,6,2.5V4H18z"/>
	<path d="M10.5,3C10.224,3,10,2.776,10,2.5S10.224,2,10.5,2h3C13.776,2,14,2.224,14,2.5S13.776,3,13.5,3H10.5z"/>
	<path d="M14.5,16c-1.103,0-2-0.897-2-2c0-0.083,0.006-0.169,0.017-0.254l-1.407-0.563C10.735,13.692,10.136,14,9.5,14
		c-1.103,0-2-0.897-2-2s0.897-2,2-2c0.529,0,1.029,0.207,1.402,0.575l1.68-1.008C12.528,9.384,12.5,9.194,12.5,9
		c0-1.103,0.897-2,2-2s2,0.897,2,2s-0.897,2-2,2c-0.529,0-1.03-0.208-1.403-0.576l-1.68,1.008C11.472,11.616,11.5,11.806,11.5,12
		c0,0.084-0.006,0.169-0.017,0.254l1.407,0.563C13.265,12.308,13.864,12,14.5,12c1.103,0,2,0.897,2,2S15.603,16,14.5,16z M14.5,13
		c-0.552,0-1,0.448-1,1s0.448,1,1,1s1-0.448,1-1S15.052,13,14.5,13z M9.5,11c-0.551,0-1,0.449-1,1c0,0.552,0.449,1,1,1s1-0.448,1-1
		C10.5,11.449,10.051,11,9.5,11z M14.5,8c-0.552,0-1,0.449-1,1s0.448,1,1,1s1-0.449,1-1S15.052,8,14.5,8z"/>
</g>
</svg>
