<?xml version="1.0" encoding="utf-8"?>
<!-- Generator: Adobe Illustrator 22.1.0, SVG Export Plug-In . SVG Version: 6.00 Build 0)  -->
<svg version="1.1" id="Layer_1" xmlns="http://www.w3.org/2000/svg" xmlns:xlink="http://www.w3.org/1999/xlink" x="0px" y="0px"
	 viewBox="0 0 24 24" style="enable-background:new 0 0 24 24;" xml:space="preserve">
<g>
	<title>phone-action-lock-1</title>
	<circle cx="9.25" cy="21.5" r="0.75"/>
	<path d="M4.75,24c-1.379,0-2.5-1.122-2.5-2.5v-19c0-1.379,1.121-2.5,2.5-2.5h6.5c0.276,0,0.5,0.224,0.5,0.5S11.526,1,11.25,1h-6.5
		c-0.827,0-1.5,0.673-1.5,1.5V19h12v-4.5c0-0.276,0.224-0.5,0.5-0.5s0.5,0.224,0.5,0.5v7c0,1.378-1.122,2.5-2.5,2.5H4.75z
		 M3.25,21.5c0,0.827,0.673,1.5,1.5,1.5h9c0.827,0,1.5-0.673,1.5-1.5V20h-12V21.5z"/>
	<path d="M12.25,13c-0.827,0-1.5-0.673-1.5-1.5V5.626c0-0.827,0.673-1.5,1.5-1.5V3.5c0-1.93,1.57-3.5,3.5-3.5s3.5,1.57,3.5,3.5
		v0.626c0.827,0,1.5,0.673,1.5,1.5V11.5c0,0.827-0.673,1.5-1.5,1.5H12.25z M12.25,5.126c-0.276,0-0.5,0.224-0.5,0.5V11.5
		c0,0.276,0.224,0.5,0.5,0.5h7c0.276,0,0.5-0.224,0.5-0.5V5.626c0-0.276-0.224-0.5-0.5-0.5H12.25z M18.25,4.126V3.5
		c0-1.379-1.122-2.5-2.5-2.5s-2.5,1.121-2.5,2.5v0.626H18.25z"/>
	<path d="M15.75,10.313c-0.965,0-1.75-0.785-1.75-1.75s0.785-1.75,1.75-1.75s1.75,0.785,1.75,1.75S16.715,10.313,15.75,10.313z
		 M15.75,7.813c-0.414,0-0.75,0.336-0.75,0.75s0.336,0.75,0.75,0.75s0.75-0.336,0.75-0.75S16.164,7.813,15.75,7.813z"/>
</g>
</svg>
