<?xml version="1.0" encoding="utf-8"?>
<!-- Generator: Adobe Illustrator 22.1.0, SVG Export Plug-In . SVG Version: 6.00 Build 0)  -->
<svg version="1.1" id="Layer_1" xmlns="http://www.w3.org/2000/svg" xmlns:xlink="http://www.w3.org/1999/xlink" x="0px" y="0px"
	 viewBox="0 0 24 24" style="enable-background:new 0 0 24 24;" xml:space="preserve">
<g>
	<title>phone-action-at</title>
	<path d="M12,22.25c-0.414,0-0.75-0.336-0.75-0.75c0-0.391,0.305-0.718,0.696-0.746c0.003,0,0.006-0.001,0.008-0.001
		c0.017-0.002,0.031-0.003,0.046-0.003c0.414,0,0.75,0.336,0.75,0.75S12.414,22.25,12,22.25z"/>
	<path d="M7.5,24C6.121,24,5,22.878,5,21.5v-19C5,1.121,6.121,0,7.5,0h9C17.878,0,19,1.121,19,2.5v19c0,1.378-1.122,2.5-2.5,2.5H7.5
		z M6,21.5C6,22.327,6.673,23,7.5,23h9c0.827,0,1.5-0.673,1.5-1.5V20H6V21.5z M18,19V5H6v14H18z M18,4V2.5C18,1.673,17.327,1,16.5,1
		h-9C6.673,1,6,1.673,6,2.5V4H18z"/>
	<path d="M10.5,3C10.224,3,10,2.776,10,2.5S10.224,2,10.5,2h3C13.776,2,14,2.224,14,2.5S13.776,3,13.5,3H10.5z"/>
	<path d="M11.986,16.499c-0.355,0-0.71-0.041-1.053-0.122c-2.074-0.492-3.529-2.394-3.46-4.524c0.079-2.442,2.054-4.355,4.496-4.355
		c0.049,0,0.098,0.001,0.147,0.002c2.502,0.136,4.425,2.197,4.384,4.694v0.556c0,0.965-0.785,1.75-1.75,1.75
		c-0.646,0-1.233-0.362-1.535-0.914C12.868,13.852,12.441,14,12,14c-1.103,0-2-0.897-2-2s0.897-2,2-2s2,0.897,2,2v0.75
		c0,0.414,0.336,0.75,0.75,0.75s0.75-0.336,0.75-0.75v-0.564c0.032-1.963-1.473-3.581-3.427-3.687
		c-0.033-0.001-0.072-0.002-0.11-0.002c-1.864,0-3.429,1.52-3.49,3.387c-0.054,1.656,1.078,3.136,2.691,3.519
		c0.268,0.063,0.545,0.095,0.823,0.095c0.309,0,0.615-0.04,0.912-0.117c0.042-0.011,0.084-0.016,0.127-0.016
		c0.227,0,0.426,0.154,0.483,0.373c0.034,0.129,0.015,0.264-0.052,0.379c-0.067,0.115-0.176,0.198-0.305,0.231
		C12.773,16.448,12.381,16.499,11.986,16.499z M12,11c-0.551,0-1,0.449-1,1c0,0.552,0.449,1,1,1c0.552,0,1-0.448,1-1
		C13,11.449,12.552,11,12,11z"/>
</g>
</svg>
