<?xml version="1.0" encoding="utf-8"?>
<!-- Generator: Adobe Illustrator 22.1.0, SVG Export Plug-In . SVG Version: 6.00 Build 0)  -->
<svg version="1.1" id="Layer_1" xmlns="http://www.w3.org/2000/svg" xmlns:xlink="http://www.w3.org/1999/xlink" x="0px" y="0px"
	 viewBox="0 0 24 24" style="enable-background:new 0 0 24 24;" xml:space="preserve">
<g>
	<title>phone-action-text-1</title>
	<circle cx="9" cy="21.5" r="0.75"/>
	<path d="M4.5,24C3.121,24,2,22.878,2,21.5v-19C2,1.121,3.121,0,4.5,0h3C7.776,0,8,0.224,8,0.5S7.776,1,7.5,1h-3
		C3.673,1,3,1.673,3,2.5V19h12v-3.5c0-0.276,0.224-0.5,0.5-0.5s0.5,0.224,0.5,0.5v6c0,1.378-1.122,2.5-2.5,2.5H4.5z M3,21.5
		C3,22.327,3.673,23,4.5,23h9c0.827,0,1.5-0.673,1.5-1.5V20H3V21.5z"/>
	<path d="M10.5,13C9.673,13,9,12.327,9,11.5v-10C9,0.673,9.673,0,10.5,0h10C21.327,0,22,0.673,22,1.5v10c0,0.827-0.673,1.5-1.5,1.5
		H10.5z M10.5,1C10.224,1,10,1.224,10,1.5v10c0,0.276,0.224,0.5,0.5,0.5h10c0.276,0,0.5-0.224,0.5-0.5v-10C21,1.224,20.776,1,20.5,1
		H10.5z"/>
	<path d="M12.5,4C12.224,4,12,3.776,12,3.5S12.224,3,12.5,3h6C18.776,3,19,3.224,19,3.5S18.776,4,18.5,4H12.5z"/>
	<path d="M12.5,7C12.224,7,12,6.776,12,6.5S12.224,6,12.5,6h6C18.776,6,19,6.224,19,6.5S18.776,7,18.5,7H12.5z"/>
	<path d="M12.5,10C12.224,10,12,9.776,12,9.5S12.224,9,12.5,9h2.25c0.276,0,0.5,0.224,0.5,0.5s-0.224,0.5-0.5,0.5H12.5z"/>
</g>
</svg>
