<?xml version="1.0" encoding="utf-8"?>
<!-- Generator: Adobe Illustrator 22.1.0, SVG Export Plug-In . SVG Version: 6.00 Build 0)  -->
<svg version="1.1" id="Layer_1" xmlns="http://www.w3.org/2000/svg" xmlns:xlink="http://www.w3.org/1999/xlink" x="0px" y="0px"
	 viewBox="0 0 24 24" style="enable-background:new 0 0 24 24;" xml:space="preserve">
<g>
	<title>phone-action-star-1</title>
	<path d="M9,22.25c-0.414,0-0.75-0.336-0.75-0.75S8.586,20.75,9,20.75c0.011,0,0.032,0.002,0.044,0.003l0.005,0.001
		C9.442,20.78,9.75,21.107,9.75,21.5C9.75,21.914,9.413,22.25,9,22.25z"/>
	<path d="M4.5,24C3.121,24,2,22.878,2,21.5v-19C2,1.121,3.121,0,4.5,0H10c0.276,0,0.5,0.224,0.5,0.5S10.275,1,10,1H4.5
		C3.673,1,3,1.673,3,2.5V19h12v-3.5c0-0.276,0.224-0.5,0.5-0.5s0.5,0.224,0.5,0.5v6c0,1.378-1.122,2.5-2.5,2.5H4.5z M3,21.5
		C3,22.327,3.673,23,4.5,23h9c0.827,0,1.5-0.673,1.5-1.5V20H3V21.5z"/>
	<path d="M11.629,13c-0.112,0-0.225-0.015-0.335-0.044c-0.332-0.089-0.609-0.301-0.78-0.599c-0.199-0.345-0.226-0.77-0.073-1.137
		l1.299-2.987L9.41,6.157c-0.509-0.449-0.558-1.23-0.108-1.74C9.536,4.152,9.874,4,10.229,4L10.277,4l2.651,0l1.406-3.267
		c0.18-0.342,0.449-0.567,0.787-0.67c0.124-0.038,0.252-0.057,0.381-0.057c0.211,0,0.422,0.053,0.61,0.154
		c0.228,0.122,0.414,0.307,0.535,0.536c0.004,0.007,0.016,0.032,0.019,0.039L18.074,4h2.666l0.041-0.001
		c0.304,0,0.597,0.117,0.826,0.33c0.242,0.224,0.382,0.529,0.395,0.859c0.014,0.37-0.136,0.723-0.412,0.969L19.26,8.233l1.296,2.981
		c0.134,0.321,0.135,0.671,0.005,0.989c-0.13,0.318-0.377,0.566-0.693,0.698C19.712,12.967,19.546,13,19.374,13l0,0
		c-0.227,0-0.449-0.059-0.644-0.171L15.5,11.007l-3.235,1.823C12.073,12.94,11.853,13,11.629,13z M15.5,9.933
		c0.086,0,0.171,0.022,0.246,0.064l3.481,1.962c0.046,0.027,0.097,0.04,0.148,0.04c0.038,0,0.074-0.007,0.109-0.022
		c0.145-0.061,0.214-0.228,0.153-0.373l-1.437-3.306c-0.086-0.198-0.036-0.428,0.126-0.572l2.599-2.317
		c0.052-0.047,0.081-0.114,0.078-0.184C21,5.162,20.974,5.105,20.927,5.062c-0.043-0.04-0.099-0.063-0.156-0.063L17.745,5
		c-0.2,0-0.38-0.119-0.459-0.302l-1.534-3.559c-0.017-0.029-0.059-0.07-0.11-0.097c-0.044-0.024-0.091-0.035-0.14-0.035
		c-0.03,0-0.059,0.004-0.088,0.013c-0.076,0.023-0.139,0.075-0.177,0.146l-1.518,3.532C13.638,4.881,13.458,5,13.258,5
		c0,0-3.002,0-3.003,0c-0.096,0-0.156,0.026-0.202,0.078c-0.086,0.097-0.076,0.245,0.021,0.331l2.602,2.318
		c0.162,0.144,0.212,0.374,0.126,0.573l-1.44,3.312c-0.031,0.075-0.024,0.17,0.019,0.245c0.038,0.066,0.099,0.113,0.173,0.133
		c0.024,0.006,0.05,0.01,0.074,0.01c0.05,0,0.098-0.013,0.142-0.038l3.484-1.964C15.329,9.955,15.414,9.933,15.5,9.933z"/>
</g>
</svg>
