<?xml version="1.0" encoding="utf-8"?>
<!-- Generator: Adobe Illustrator 22.1.0, SVG Export Plug-In . SVG Version: 6.00 Build 0)  -->
<svg version="1.1" id="Layer_1" xmlns="http://www.w3.org/2000/svg" xmlns:xlink="http://www.w3.org/1999/xlink" x="0px" y="0px"
	 viewBox="0 0 24 24" style="enable-background:new 0 0 24 24;" xml:space="preserve">
<g>
	<title>phone-action-remove-user</title>
	<path d="M12,22.25c-0.414,0-0.75-0.336-0.75-0.75c0-0.391,0.305-0.718,0.696-0.746c0.003,0,0.006-0.001,0.008-0.001
		c0.017-0.002,0.031-0.003,0.046-0.003c0.414,0,0.75,0.336,0.75,0.75S12.414,22.25,12,22.25z"/>
	<path d="M7.5,24C6.121,24,5,22.878,5,21.5v-19C5,1.121,6.121,0,7.5,0h9C17.878,0,19,1.121,19,2.5v19c0,1.378-1.122,2.5-2.5,2.5H7.5
		z M6,21.5C6,22.327,6.673,23,7.5,23h9c0.827,0,1.5-0.673,1.5-1.5V20H6V21.5z M18,19V5H6v14H18z M18,4V2.5C18,1.673,17.327,1,16.5,1
		h-9C6.673,1,6,1.673,6,2.5V4H18z"/>
	<path d="M10.5,3C10.224,3,10,2.776,10,2.5S10.224,2,10.5,2h3C13.776,2,14,2.224,14,2.5S13.776,3,13.5,3H10.5z"/>
	<path d="M13,14c-0.276,0-0.5-0.224-0.5-0.5S12.724,13,13,13h2.5c0.276,0,0.5,0.224,0.5,0.5S15.776,14,15.5,14H13z"/>
	<path d="M12,11c-1.241,0-2.25-1.009-2.25-2.25S10.759,6.5,12,6.5c1.241,0,2.25,1.009,2.25,2.25S13.241,11,12,11z M12,7.5
		c-0.689,0-1.25,0.561-1.25,1.25S11.311,10,12,10s1.25-0.561,1.25-1.25S12.689,7.5,12,7.5z"/>
	<path d="M8.5,16C8.224,16,8,15.776,8,15.5v-1c0-0.568,0.118-1.12,0.35-1.638c0.644-1.435,2.079-2.362,3.655-2.362
		c0.565,0,1.114,0.118,1.632,0.351c0.122,0.055,0.215,0.153,0.263,0.278c0.048,0.125,0.043,0.261-0.011,0.383
		c-0.08,0.179-0.259,0.295-0.456,0.295c-0.072,0-0.141-0.015-0.206-0.045c-0.387-0.174-0.799-0.262-1.222-0.262
		c-1.183,0-2.259,0.695-2.742,1.771C9.088,13.66,9,14.073,9,14.5V15h4.5c0.276,0,0.5,0.224,0.5,0.5S13.776,16,13.5,16H8.5z"/>
</g>
</svg>
