<?xml version="1.0" encoding="utf-8"?>
<!-- Generator: Adobe Illustrator 22.1.0, SVG Export Plug-In . SVG Version: 6.00 Build 0)  -->
<svg version="1.1" id="Layer_1" xmlns="http://www.w3.org/2000/svg" xmlns:xlink="http://www.w3.org/1999/xlink" x="0px" y="0px"
	 viewBox="0 0 24 24" style="enable-background:new 0 0 24 24;" xml:space="preserve">
<g>
	<title>phone-action-cash</title>
	<path d="M12,22.25c-0.414,0-0.75-0.336-0.75-0.75c0-0.391,0.305-0.718,0.696-0.746c0.003,0,0.006-0.001,0.008-0.001
		c0.017-0.002,0.031-0.003,0.046-0.003c0.414,0,0.75,0.336,0.75,0.75S12.414,22.25,12,22.25z"/>
	<path d="M7.5,24C6.121,24,5,22.878,5,21.5v-19C5,1.121,6.121,0,7.5,0h9C17.878,0,19,1.121,19,2.5v19c0,1.378-1.122,2.5-2.5,2.5H7.5
		z M6,21.5C6,22.327,6.673,23,7.5,23h9c0.827,0,1.5-0.673,1.5-1.5V20H6V21.5z M18,19V5H6v14H18z M18,4V2.5C18,1.673,17.327,1,16.5,1
		h-9C6.673,1,6,1.673,6,2.5V4H18z"/>
	<path d="M10.5,3C10.224,3,10,2.776,10,2.5S10.224,2,10.5,2h3C13.776,2,14,2.224,14,2.5S13.776,3,13.5,3H10.5z"/>
	<path d="M12,18c-0.276,0-0.5-0.224-0.5-0.5v-1H10c-0.276,0-0.5-0.224-0.5-0.5s0.224-0.5,0.5-0.5h2.146
		c0.516,0,0.979-0.287,1.21-0.748c0.162-0.323,0.188-0.69,0.074-1.034s-0.355-0.621-0.678-0.783l-1.95-0.976
		c-0.802-0.401-1.3-1.207-1.301-2.104c0-1.175,0.86-2.154,1.999-2.326V6.5C11.5,6.224,11.724,6,12,6c0.276,0,0.5,0.224,0.5,0.5v1H14
		c0.276,0,0.5,0.224,0.5,0.5S14.276,8.5,14,8.5h-2.146c-0.361,0-0.701,0.141-0.957,0.397S10.5,9.493,10.501,9.854
		c0,0.516,0.287,0.98,0.748,1.21l1.95,0.976c0.562,0.282,0.981,0.765,1.18,1.362c0.198,0.596,0.153,1.235-0.128,1.797
		c-0.343,0.685-1,1.156-1.75,1.27V17.5C12.5,17.776,12.276,18,12,18z"/>
</g>
</svg>
