<?xml version="1.0" encoding="utf-8"?>
<!-- Generator: Adobe Illustrator 22.1.0, SVG Export Plug-In . SVG Version: 6.00 Build 0)  -->
<svg version="1.1" id="Layer_1" xmlns="http://www.w3.org/2000/svg" xmlns:xlink="http://www.w3.org/1999/xlink" x="0px" y="0px"
	 viewBox="0 0 24 24" style="enable-background:new 0 0 24 24;" xml:space="preserve">
<g>
	<title>phone-action-data-transfer-1</title>
	<circle cx="9" cy="21.5" r="0.75"/>
	<path d="M4.5,24C3.121,24,2,22.878,2,21.5v-19C2,1.121,3.121,0,4.5,0H9c0.276,0,0.5,0.224,0.5,0.5S9.276,1,9,1H4.5
		C3.673,1,3,1.673,3,2.5V19h12v-7c0-0.276,0.224-0.5,0.5-0.5S16,11.724,16,12v9.5c0,1.378-1.122,2.5-2.5,2.5H4.5z M3,21.5
		C3,22.327,3.673,23,4.5,23h9c0.827,0,1.5-0.673,1.5-1.5V20H3V21.5z"/>
	<path d="M12.5,10c-0.066,0-0.13-0.013-0.191-0.038c-0.061-0.025-0.116-0.062-0.162-0.108l-3-3C9.052,6.759,9,6.634,9,6.5
		s0.052-0.259,0.146-0.354S9.366,6,9.5,6s0.259,0.052,0.354,0.146L12,8.293V0.5C12,0.224,12.224,0,12.5,0C12.776,0,13,0.224,13,0.5
		v7.793l2.146-2.146C15.241,6.052,15.366,6,15.5,6s0.259,0.052,0.354,0.146S16,6.366,16,6.5s-0.052,0.259-0.146,0.354l-3,3
		c-0.047,0.047-0.101,0.083-0.163,0.109C12.63,9.987,12.566,10,12.5,10z"/>
	<path d="M18.5,10C18.224,10,18,9.776,18,9.5V1.707l-2.146,2.146C15.759,3.948,15.634,4,15.5,4s-0.259-0.052-0.354-0.146
		S15,3.634,15,3.5s0.052-0.259,0.146-0.354l3-3c0.047-0.047,0.101-0.083,0.163-0.109C18.37,0.013,18.434,0,18.5,0
		s0.13,0.013,0.191,0.038c0.061,0.025,0.116,0.062,0.163,0.108l3,3C21.948,3.241,22,3.366,22,3.5s-0.052,0.259-0.146,0.354
		S21.634,4,21.5,4s-0.259-0.052-0.354-0.146L19,1.707V9.5C19,9.776,18.776,10,18.5,10z"/>
</g>
</svg>
