<?xml version="1.0" encoding="utf-8"?>
<!-- Generator: Adobe Illustrator 22.1.0, SVG Export Plug-In . SVG Version: 6.00 Build 0)  -->
<svg version="1.1" id="Layer_1" xmlns="http://www.w3.org/2000/svg" xmlns:xlink="http://www.w3.org/1999/xlink" x="0px" y="0px"
	 viewBox="0 0 24 24" style="enable-background:new 0 0 24 24;" xml:space="preserve">
<g>
	<title>phone-action-wifi-1</title>
	<circle cx="9" cy="21.5" r="0.75"/>
	<path d="M4.5,24C3.122,24,2,22.878,2,21.5v-19C2,1.121,3.122,0,4.5,0H10c0.276,0,0.5,0.224,0.5,0.5S10.276,1,10,1H4.5
		C3.673,1,3,1.673,3,2.5V19h12v-4.5c0-0.276,0.224-0.5,0.5-0.5s0.5,0.224,0.5,0.5v7c0,1.378-1.122,2.5-2.5,2.5H4.5z M3,21.5
		C3,22.327,3.673,23,4.5,23h9c0.827,0,1.5-0.673,1.5-1.5V20H3V21.5z"/>
	<path d="M15.5,12.5c-0.965,0-1.75-0.785-1.75-1.75S14.535,9,15.5,9s1.75,0.785,1.75,1.75S16.465,12.5,15.5,12.5z M15.5,10
		c-0.414,0-0.75,0.336-0.75,0.75s0.336,0.75,0.75,0.75s0.75-0.336,0.75-0.75S15.914,10,15.5,10z"/>
	<path d="M21.5,4.623c-0.114,0-0.226-0.04-0.315-0.112c-1.593-1.289-3.612-1.999-5.685-1.999c-2.073,0-4.093,0.71-5.686,1.999
		C9.726,4.583,9.614,4.623,9.5,4.623c-0.152,0-0.293-0.068-0.389-0.185C9.027,4.334,8.989,4.203,9.003,4.071
		c0.014-0.133,0.079-0.252,0.183-0.336c1.77-1.432,4.012-2.221,6.314-2.221c2.302,0,4.544,0.789,6.314,2.221
		c0.104,0.084,0.169,0.203,0.183,0.336c0.014,0.133-0.025,0.263-0.109,0.367C21.794,4.555,21.652,4.623,21.5,4.623z"/>
	<path d="M12,7.738c-0.152,0-0.294-0.068-0.389-0.186c-0.084-0.104-0.122-0.234-0.108-0.367c0.014-0.133,0.079-0.252,0.183-0.336
		c1.069-0.865,2.424-1.341,3.814-1.341s2.745,0.476,3.814,1.341c0.104,0.084,0.169,0.203,0.183,0.336
		c0.014,0.133-0.025,0.263-0.109,0.367C19.294,7.67,19.152,7.738,19,7.738c-0.114,0-0.225-0.039-0.314-0.111
		c-0.892-0.722-2.024-1.119-3.186-1.119s-2.293,0.397-3.186,1.119C12.226,7.698,12.115,7.738,12,7.738z"/>
</g>
</svg>
