<?xml version="1.0" encoding="utf-8"?>
<!-- Generator: Adobe Illustrator 22.1.0, SVG Export Plug-In . SVG Version: 6.00 Build 0)  -->
<svg version="1.1" id="Layer_1" xmlns="http://www.w3.org/2000/svg" xmlns:xlink="http://www.w3.org/1999/xlink" x="0px" y="0px"
	 viewBox="0 0 24 24" style="enable-background:new 0 0 24 24;" xml:space="preserve">
<g>
	<title>phone-action-refresh</title>
	<path d="M12,22.25c-0.414,0-0.75-0.336-0.75-0.75c0-0.391,0.305-0.718,0.696-0.746c0.003,0,0.006-0.001,0.008-0.001
		c0.017-0.002,0.031-0.003,0.046-0.003c0.414,0,0.75,0.336,0.75,0.75S12.414,22.25,12,22.25z"/>
	<path d="M7.5,24C6.121,24,5,22.878,5,21.5v-19C5,1.121,6.121,0,7.5,0h9C17.878,0,19,1.121,19,2.5v19c0,1.378-1.122,2.5-2.5,2.5H7.5
		z M6,21.5C6,22.327,6.673,23,7.5,23h9c0.827,0,1.5-0.673,1.5-1.5V20H6V21.5z M18,19V5H6v14H18z M18,4V2.5C18,1.673,17.327,1,16.5,1
		h-9C6.673,1,6,1.673,6,2.5V4H18z"/>
	<path d="M10.5,3C10.224,3,10,2.776,10,2.5S10.224,2,10.5,2h3C13.776,2,14,2.224,14,2.5S13.776,3,13.5,3H10.5z"/>
	<path d="M12.003,17.004c-2.051,0-3.843-1.386-4.357-3.372C7.024,11.23,8.471,8.77,10.873,8.147
		c0.369-0.096,0.748-0.144,1.126-0.144c1.378,0,2.656,0.626,3.501,1.675V8.5C15.5,8.224,15.724,8,16,8s0.5,0.224,0.5,0.5v3
		c0,0.276-0.224,0.5-0.5,0.5h-3c-0.276,0-0.5-0.224-0.5-0.5S12.724,11,13,11h2.16c-0.574-1.208-1.802-1.997-3.16-1.997
		c-0.294,0-0.589,0.038-0.877,0.112c-0.903,0.234-1.662,0.807-2.137,1.614c-0.475,0.807-0.607,1.749-0.373,2.652
		c0.4,1.544,1.793,2.623,3.389,2.623c0.294,0,0.589-0.038,0.877-0.112c0.728-0.189,1.387-0.616,1.856-1.204
		c0.095-0.119,0.238-0.188,0.391-0.188c0.113,0,0.224,0.039,0.312,0.11c0.104,0.083,0.17,0.202,0.185,0.335
		c0.015,0.133-0.023,0.263-0.106,0.368c-0.603,0.755-1.451,1.305-2.387,1.547C12.762,16.955,12.382,17.004,12.003,17.004
		L12.003,17.004z"/>
</g>
</svg>
