<?xml version="1.0" encoding="utf-8"?>
<!-- Generator: Adobe Illustrator 22.1.0, SVG Export Plug-In . SVG Version: 6.00 Build 0)  -->
<svg version="1.1" id="Layer_1" xmlns="http://www.w3.org/2000/svg" xmlns:xlink="http://www.w3.org/1999/xlink" x="0px" y="0px"
	 viewBox="0 0 24 24" style="enable-background:new 0 0 24 24;" xml:space="preserve">
<title>envelope-sealed</title>
<g>
	<path d="M6,24c-1.241,0-2.25-1.009-2.25-2.25V2.25C3.75,1.009,4.759,0,6,0h12c1.241,0,2.25,1.009,2.25,2.25v19.5
		c0,1.241-1.009,2.25-2.25,2.25H6z M7.5,19.5c-1.241,0-2.25,1.009-2.25,2.25c0,0.414,0.336,0.75,0.75,0.75h12
		c0.414,0,0.75-0.336,0.75-0.75c0-1.241-1.009-2.25-2.25-2.25H7.5z M5.25,18.752C5.893,18.267,6.677,18,7.5,18h3.75V6H7.5
		C6.677,6,5.893,5.733,5.25,5.248V18.752z M16.5,18c0.823,0,1.607,0.267,2.25,0.752V5.248C18.107,5.733,17.323,6,16.5,6h-3.75v12
		H16.5z M6,1.5c-0.414,0-0.75,0.336-0.75,0.75c0,1.241,1.009,2.25,2.25,2.25h9c1.241,0,2.25-1.009,2.25-2.25
		c0-0.414-0.336-0.75-0.75-0.75H6z"/>
</g>
</svg>
