<?xml version="1.0" encoding="utf-8"?>
<!-- Generator: Adobe Illustrator 22.1.0, SVG Export Plug-In . SVG Version: 6.00 Build 0)  -->
<svg version="1.1" id="Layer_1" xmlns="http://www.w3.org/2000/svg" xmlns:xlink="http://www.w3.org/1999/xlink" x="0px" y="0px"
	 viewBox="0 0 24 24" style="enable-background:new 0 0 24 24;" xml:space="preserve">
<title>envelope-back-front</title>
<g>
	<path d="M2.25,13.5C1.009,13.5,0,12.491,0,11.25v-9c0-0.009,0.002-0.048,0.002-0.049C0.028,0.987,1.036,0,2.25,0h13.5
		c1.212,0,2.218,0.984,2.248,2.195C17.998,2.199,18,2.235,18,2.25v6C18,8.664,17.664,9,17.25,9S16.5,8.664,16.5,8.25V3.514
		L9.359,7.408C9.249,7.468,9.125,7.5,9,7.5S8.751,7.468,8.641,7.408L1.5,3.513v7.737C1.5,11.664,1.836,12,2.25,12h1.5
		c0.414,0,0.75,0.336,0.75,0.75S4.164,13.5,3.75,13.5H2.25z M9,5.896l7.392-4.032C16.259,1.644,16.018,1.5,15.75,1.5H2.25
		c-0.269,0-0.509,0.144-0.642,0.364L9,5.896z"/>
	<path d="M8.25,24C7.009,24,6,22.991,6,21.75v-9c0-0.009,0.001-0.031,0.002-0.04c0.022-1.219,1.03-2.21,2.248-2.21h13.5
		c1.215,0,2.222,0.987,2.248,2.201c0,0.008,0.002,0.036,0.002,0.049v9c0,1.241-1.009,2.25-2.25,2.25H8.25z M7.5,21.75
		c0,0.414,0.336,0.75,0.75,0.75h13.5c0.414,0,0.75-0.336,0.75-0.75v-7.439l-2.531,2.025C19.836,16.442,19.669,16.5,19.5,16.5h-9
		c-0.17,0-0.336-0.058-0.469-0.165L7.5,14.31V21.75z M19.237,15l3.194-2.555C22.312,12.182,22.047,12,21.75,12H8.25
		c-0.297,0-0.562,0.182-0.68,0.445L19.237,15z"/>
</g>
</svg>
