<?xml version="1.0" encoding="utf-8"?>
<!-- Generator: Adobe Illustrator 22.1.0, SVG Export Plug-In . SVG Version: 6.00 Build 0)  -->
<svg version="1.1" id="Layer_1" xmlns="http://www.w3.org/2000/svg" xmlns:xlink="http://www.w3.org/1999/xlink" x="0px" y="0px"
	 viewBox="0 0 24 24" style="enable-background:new 0 0 24 24;" xml:space="preserve">
<title>envelope-letter</title>
<g>
	<path d="M2.25,20.25C1.009,20.25,0,19.241,0,18V6c0-1.241,1.009-2.25,2.25-2.25h19.5C22.991,3.75,24,4.759,24,6v12
		c0,1.241-1.009,2.25-2.25,2.25H2.25z M2.25,5.25C1.836,5.25,1.5,5.586,1.5,6v12c0,0.414,0.336,0.75,0.75,0.75h19.5
		c0.414,0,0.75-0.336,0.75-0.75V6c0-0.414-0.336-0.75-0.75-0.75H2.25z"/>
	<path d="M4.5,14.25c-0.414,0-0.75-0.336-0.75-0.75s0.336-0.75,0.75-0.75h3.75C8.664,12.75,9,13.086,9,13.5s-0.336,0.75-0.75,0.75
		H4.5z"/>
	<path d="M4.5,17.25c-0.414,0-0.75-0.336-0.75-0.75s0.336-0.75,0.75-0.75h8.25c0.414,0,0.75,0.336,0.75,0.75s-0.336,0.75-0.75,0.75
		H4.5z"/>
	<path d="M16.5,12.75c-0.827,0-1.5-0.673-1.5-1.5v-3c0-0.827,0.673-1.5,1.5-1.5h3c0.827,0,1.5,0.673,1.5,1.5v3
		c0,0.827-0.673,1.5-1.5,1.5H16.5z M16.5,11.25h3v-3h-3V11.25z"/>
</g>
</svg>
