<?xml version="1.0" encoding="utf-8"?>
<!-- Generator: Adobe Illustrator 22.1.0, SVG Export Plug-In . SVG Version: 6.00 Build 0)  -->
<svg version="1.1" id="Layer_1" xmlns="http://www.w3.org/2000/svg" xmlns:xlink="http://www.w3.org/1999/xlink" x="0px" y="0px"
	 viewBox="0 0 24 24" style="enable-background:new 0 0 24 24;" xml:space="preserve">
<g>
	<title>rss-feed</title>
	<path d="M3,23.998c-1.654,0-3-1.346-3-3s1.346-3,3-3s3,1.346,3,3S4.654,23.998,3,23.998z M3,18.998c-1.103,0-2,0.897-2,2
		s0.897,2,2,2s2-0.897,2-2S4.103,18.998,3,18.998z"/>
	<path d="M23.5,24c-0.276,0-0.5-0.224-0.5-0.5C23,11.094,12.906,1,0.5,1C0.224,1,0,0.776,0,0.5S0.224,0,0.5,0
		C13.458,0,24,10.542,24,23.5C24,23.776,23.776,24,23.5,24z"/>
	<path d="M14.5,24c-0.276,0-0.5-0.224-0.5-0.5C14,16.056,7.944,10,0.5,10C0.224,10,0,9.776,0,9.5S0.224,9,0.5,9
		C8.495,9,15,15.505,15,23.5C15,23.776,14.776,24,14.5,24z"/>
</g>
</svg>
