<svg xmlns="http://www.w3.org/2000/svg" viewBox="0 0 24 24"><defs><style>.a{fill:none;stroke:currentColor;stroke-linecap:round;stroke-linejoin:round;}</style></defs><title>photo-frame-landscape</title><path class="a" d="M17.369.5a2,2,0,0,1,1.959,1.6l4.153,20.211A1,1,0,0,1,22.5,23.5H6.631a2,2,0,0,1-1.959-1.6L.519,1.692A1,1,0,0,1,1.5.5Z"/><path class="a" d="M3.027,13.9l-2.5,8.635a.771.771,0,0,0,.746.967H2.5"/><path class="a" d="M16.991,3.99a.642.642,0,0,0-.6-.49H4.116a.392.392,0,0,0-.4.49L7.009,20.01a.642.642,0,0,0,.6.49H19.884a.392.392,0,0,0,.4-.49Z"/><polygon class="a" points="9.405 16.494 16.5 16.494 14.242 11.011 12.308 14.558 11.018 13.269 9.405 16.494"/><path class="a" d="M11.34,9.721a.968.968,0,1,1-.968-.966A.968.968,0,0,1,11.34,9.721Z"/></svg>