<?xml version="1.0" encoding="utf-8"?>
<!-- Generator: Adobe Illustrator 22.1.0, SVG Export Plug-In . SVG Version: 6.00 Build 0)  -->
<svg version="1.1" id="Regular" xmlns="http://www.w3.org/2000/svg" xmlns:xlink="http://www.w3.org/1999/xlink" x="0px" y="0px"
	 viewBox="0 0 24 24" style="enable-background:new 0 0 24 24;" xml:space="preserve">
<title>single-neutral-home</title>
<g>
	<path d="M23.25,24c-0.414,0-0.75-0.336-0.75-0.75V12.311L12,1.811l-10.5,10.5V23.25C1.5,23.664,1.164,24,0.75,24S0,23.664,0,23.25
		V12c0-0.2,0.078-0.389,0.22-0.53L11.47,0.22C11.611,0.078,11.8,0,12,0s0.389,0.078,0.53,0.22l11.25,11.25
		C23.922,11.612,24,11.8,24,12v11.25C24,23.664,23.664,24,23.25,24z"/>
	<path d="M12,18c-2.688,0-4.875-2.187-4.875-4.875c0-2.688,2.187-4.875,4.875-4.875c2.688,0,4.875,2.187,4.875,4.875
		C16.875,15.813,14.688,18,12,18z M12,9.75c-1.861,0-3.375,1.514-3.375,3.375c0,1.861,1.514,3.375,3.375,3.375
		c1.861,0,3.375-1.514,3.375-3.375C15.375,11.264,13.861,9.75,12,9.75z"/>
	<path d="M5.635,24.001c-0.085,0-0.17-0.015-0.25-0.043C4.995,23.819,4.79,23.39,4.928,23c0.759-2.147,2.425-3.813,4.572-4.572
		c0.812-0.287,1.655-0.433,2.505-0.433c1.119,0,2.205,0.248,3.228,0.736c1.808,0.864,3.172,2.379,3.839,4.269
		c0.138,0.39-0.067,0.819-0.457,0.957C18.535,23.986,18.451,24,18.365,24c-0.317,0-0.601-0.201-0.707-0.5
		c-0.534-1.511-1.625-2.724-3.072-3.415c-0.819-0.391-1.688-0.589-2.582-0.589c-0.68,0-1.354,0.116-2.005,0.346
		c-1.717,0.607-3.051,1.94-3.658,3.658C6.236,23.799,5.952,24.001,5.635,24.001z"/>
</g>
</svg>
