<?xml version="1.0" encoding="utf-8"?>
<!-- Generator: Adobe Illustrator 22.1.0, SVG Export Plug-In . SVG Version: 6.00 Build 0)  -->
<svg version="1.1" id="Regular" xmlns="http://www.w3.org/2000/svg" xmlns:xlink="http://www.w3.org/1999/xlink" x="0px" y="0px"
	 viewBox="0 0 24 24" style="enable-background:new 0 0 24 24;" xml:space="preserve">
<title>single-neutral-aim</title>
<g>
	<path d="M12,23.25c-0.414,0-0.75-0.336-0.75-0.75v-2.284c-3.983-0.356-7.109-3.482-7.466-7.466H1.5c-0.414,0-0.75-0.336-0.75-0.75
		s0.336-0.75,0.75-0.75h2.284c0.357-3.983,3.483-7.109,7.466-7.466V1.5c0-0.414,0.336-0.75,0.75-0.75s0.75,0.336,0.75,0.75v2.284
		c3.983,0.357,7.109,3.483,7.466,7.466H22.5c0.414,0,0.75,0.336,0.75,0.75s-0.336,0.75-0.75,0.75h-2.284
		c-0.356,3.983-3.482,7.109-7.466,7.466V22.5C12.75,22.914,12.414,23.25,12,23.25z M12,17.25c0.414,0,0.75,0.336,0.75,0.75v0.708
		c3.141-0.345,5.613-2.817,5.958-5.958H18c-0.414,0-0.75-0.336-0.75-0.75s0.336-0.75,0.75-0.75h0.708
		c-0.345-3.141-2.817-5.613-5.958-5.959V6c0,0.414-0.336,0.75-0.75,0.75S11.25,6.414,11.25,6V5.291
		C8.109,5.637,5.637,8.109,5.291,11.25H6c0.414,0,0.75,0.336,0.75,0.75S6.414,12.75,6,12.75H5.291
		c0.346,3.141,2.817,5.613,5.959,5.958V18C11.25,17.586,11.586,17.25,12,17.25z"/>
	<path d="M15.08,16.233c-0.194,0-0.378-0.074-0.518-0.208c-0.695-0.663-1.605-1.028-2.562-1.028c-0.957,0-1.867,0.365-2.562,1.028
		c-0.14,0.134-0.324,0.208-0.518,0.208c-0.204,0-0.402-0.085-0.543-0.233c-0.138-0.144-0.212-0.334-0.207-0.535
		s0.087-0.387,0.232-0.525c0.549-0.523,1.194-0.915,1.893-1.157c-0.998-0.588-1.671-1.674-1.671-2.909
		c0-1.861,1.514-3.375,3.375-3.375c1.861,0,3.375,1.514,3.375,3.375c0,1.235-0.672,2.321-1.671,2.909
		c0.699,0.242,1.345,0.634,1.893,1.157c0.145,0.138,0.228,0.324,0.232,0.525s-0.069,0.391-0.208,0.535
		C15.482,16.148,15.284,16.233,15.08,16.233z M12,8.999c-1.034,0-1.875,0.841-1.875,1.875s0.841,1.875,1.875,1.875
		s1.875-0.841,1.875-1.875S13.034,8.999,12,8.999z"/>
</g>
</svg>
