<?xml version="1.0" encoding="utf-8"?>
<!-- Generator: Adobe Illustrator 22.1.0, SVG Export Plug-In . SVG Version: 6.00 Build 0)  -->
<svg version="1.1" id="Regular" xmlns="http://www.w3.org/2000/svg" xmlns:xlink="http://www.w3.org/1999/xlink" x="0px" y="0px"
	 viewBox="0 0 24 24" style="enable-background:new 0 0 24 24;" xml:space="preserve">
<title>single-neutral-id-card-4</title>
<g>
	<path d="M8.25,12c-1.861,0-3.375-1.514-3.375-3.375S6.389,5.25,8.25,5.25s3.375,1.514,3.375,3.375S10.111,12,8.25,12z M8.25,6.75
		c-1.034,0-1.875,0.841-1.875,1.875S7.216,10.5,8.25,10.5s1.875-0.841,1.875-1.875S9.284,6.75,8.25,6.75z"/>
	<path d="M3.75,17.25C3.336,17.25,3,16.914,3,16.5c0-2.895,2.355-5.25,5.25-5.25s5.25,2.355,5.25,5.25c0,0.414-0.336,0.75-0.75,0.75
		H3.75z M11.924,15.75c-0.352-1.712-1.892-3-3.674-3s-3.322,1.288-3.674,3H11.924z"/>
	<path d="M14.25,9.75c-0.414,0-0.75-0.336-0.75-0.75s0.336-0.75,0.75-0.75h4.5c0.414,0,0.75,0.336,0.75,0.75s-0.336,0.75-0.75,0.75
		H14.25z"/>
	<path d="M14.25,12.75c-0.414,0-0.75-0.336-0.75-0.75s0.336-0.75,0.75-0.75h6c0.414,0,0.75,0.336,0.75,0.75s-0.336,0.75-0.75,0.75
		H14.25z"/>
	<path d="M18.75,21.75C18.336,21.75,18,21.414,18,21s-0.336-0.75-0.75-0.75S16.5,20.586,16.5,21s-0.336,0.75-0.75,0.75h-7.5
		c-0.414,0-0.75-0.336-0.75-0.75s-0.336-0.75-0.75-0.75S6,20.586,6,21s-0.336,0.75-0.75,0.75h-3C1.009,21.75,0,20.741,0,19.5v-15
		c0-1.241,1.009-2.25,2.25-2.25h19.5C22.991,2.25,24,3.259,24,4.5v15c0,1.241-1.009,2.25-2.25,2.25H18.75z M21.75,20.25
		c0.414,0,0.75-0.336,0.75-0.75v-15c0-0.414-0.336-0.75-0.75-0.75H2.25C1.836,3.75,1.5,4.086,1.5,4.5v15
		c0,0.414,0.336,0.75,0.75,0.75h2.379c0.314-0.885,1.162-1.5,2.121-1.5s1.808,0.615,2.121,1.5h6.257
		c0.314-0.885,1.162-1.5,2.122-1.5s1.808,0.615,2.122,1.5H21.75z"/>
</g>
</svg>
