<?xml version="1.0" encoding="utf-8"?>
<!-- Generator: Adobe Illustrator 22.1.0, SVG Export Plug-In . SVG Version: 6.00 Build 0)  -->
<svg version="1.1" id="Layer_1" xmlns="http://www.w3.org/2000/svg" xmlns:xlink="http://www.w3.org/1999/xlink" x="0px" y="0px"
	 viewBox="0 0 24 24" style="enable-background:new 0 0 24 24;" xml:space="preserve">
<g>
	<title>synchronize-arrows-square-2</title>
	<path d="M6.5,21C4.57,21,3,19.43,3,17.5v-7.068l-2.223,1.482c-0.083,0.055-0.178,0.084-0.277,0.084
		c-0.168,0-0.323-0.083-0.416-0.223c-0.074-0.111-0.1-0.244-0.074-0.375c0.026-0.131,0.102-0.244,0.213-0.318l3-2
		c0.029-0.019,0.056-0.03,0.07-0.036C3.372,9.013,3.435,9,3.5,9s0.128,0.012,0.188,0.037c0.034,0.014,0.061,0.025,0.09,0.045l3,2
		c0.111,0.074,0.187,0.187,0.213,0.318c0.026,0.131,0,0.264-0.074,0.375c-0.093,0.139-0.249,0.223-0.416,0.223
		c-0.099,0-0.195-0.029-0.277-0.084L4,10.432V17.5C4,18.878,5.121,20,6.5,20h11c1.378,0,2.5-1.122,2.5-2.5
		c0-0.276,0.224-0.5,0.5-0.5s0.5,0.224,0.5,0.5c0,1.93-1.57,3.5-3.5,3.5H6.5z"/>
	<path d="M20.5,15c-0.023,0-0.067-0.007-0.089-0.013c-0.014-0.001-0.043-0.007-0.071-0.016c-0.027-0.009-0.055-0.022-0.083-0.038
		c-0.016-0.007-0.023-0.011-0.037-0.021l-2.998-1.999c-0.111-0.074-0.187-0.187-0.213-0.318c-0.026-0.131,0-0.264,0.074-0.375
		c0.093-0.139,0.248-0.223,0.416-0.223c0.098,0,0.194,0.029,0.277,0.083L20,13.564V6.5C20,5.121,18.878,4,17.5,4h-11
		C5.121,4,4,5.121,4,6.5C4,6.776,3.775,7,3.5,7S3,6.776,3,6.5C3,4.57,4.57,3,6.5,3h11c1.93,0,3.5,1.57,3.5,3.5v7.064l2.223-1.482
		c0.083-0.055,0.179-0.084,0.277-0.084c0.168,0,0.323,0.083,0.416,0.223c0.153,0.229,0.091,0.54-0.139,0.693l-3,2
		c-0.014,0.009-0.038,0.022-0.054,0.028c-0.009,0.006-0.037,0.02-0.068,0.03c-0.024,0.008-0.052,0.014-0.081,0.018
		C20.574,14.991,20.541,15,20.5,15z"/>
</g>
</svg>
