<?xml version="1.0" encoding="utf-8"?>
<!-- Generator: Adobe Illustrator 22.1.0, SVG Export Plug-In . SVG Version: 6.00 Build 0)  -->
<svg version="1.1" id="Layer_1" xmlns="http://www.w3.org/2000/svg" xmlns:xlink="http://www.w3.org/1999/xlink" x="0px" y="0px"
	 viewBox="0 0 24 24" style="enable-background:new 0 0 24 24;" xml:space="preserve">
<g>
	<title>synchronize-arrows-search</title>
	<path d="M5.257,20.877c-0.016,0-0.043-0.003-0.058-0.006c-0.013-0.001-0.021-0.001-0.033-0.004
		c-0.005-0.001-4.763-0.938-4.763-0.938c-0.271-0.054-0.447-0.317-0.394-0.587c0.046-0.234,0.252-0.403,0.491-0.403
		c0.031,0,0.063,0.003,0.095,0.009l2.702,0.532c-3.343-3.229-4.041-8.415-1.554-12.44c1.808-2.926,5.07-4.744,8.514-4.744
		c0.709,0,1.421,0.077,2.115,0.227c0.131,0.028,0.242,0.106,0.314,0.218c0.073,0.112,0.097,0.246,0.068,0.377
		c-0.05,0.228-0.255,0.394-0.489,0.394c-0.036,0-0.071-0.004-0.106-0.011c-0.624-0.135-1.264-0.204-1.902-0.204
		c-3.1,0-6.037,1.636-7.664,4.269c-2.417,3.913-1.487,8.985,2.078,11.793L4.319,15.44c-0.025-0.275,0.179-0.518,0.453-0.543
		c0.014-0.001,0.031-0.002,0.048-0.002c0.254,0,0.472,0.2,0.495,0.456l0.448,4.982c0.014,0.156-0.047,0.312-0.163,0.416
		c-0.055,0.05-0.123,0.086-0.205,0.108c-0.023,0.007-0.048,0.011-0.075,0.015c-0.018,0.003-0.04,0.006-0.055,0.006
		C5.264,20.877,5.259,20.877,5.257,20.877z"/>
	<path d="M23.499,23.999c-0.133,0-0.258-0.052-0.352-0.145l-5.195-5.159c-1.886,2.264-4.74,3.608-7.691,3.608
		c-0.717,0-1.436-0.078-2.137-0.232c-0.13-0.029-0.242-0.106-0.314-0.219s-0.096-0.246-0.067-0.377
		c0.05-0.228,0.255-0.393,0.488-0.393c0.036,0,0.072,0.004,0.107,0.012c0.631,0.138,1.278,0.208,1.922,0.208
		c2.82,0,5.511-1.344,7.203-3.597c0.018-0.034,0.044-0.076,0.084-0.117c0.003-0.003,0.007-0.007,0.011-0.01
		c0.131-0.181,0.253-0.364,0.365-0.544c1.264-2.045,1.655-4.46,1.103-6.8c-0.473-2.005-1.607-3.77-3.217-5.024l0.354,3.946
		c0.024,0.275-0.179,0.518-0.453,0.543c-0.007,0.001-0.037,0.002-0.045,0.002c-0.26,0-0.474-0.196-0.498-0.455l-0.447-4.98
		c-0.014-0.156,0.047-0.311,0.164-0.416c0.075-0.068,0.17-0.109,0.284-0.119c0.027-0.005,0.055-0.008,0.083-0.008
		c0.053,0,0.108,0.009,0.162,0.027l4.807,0.945c0.271,0.053,0.448,0.317,0.395,0.587c-0.046,0.234-0.252,0.404-0.491,0.404
		c-0.032,0-0.064-0.003-0.097-0.01l-2.794-0.549c1.371,1.322,2.32,2.991,2.766,4.878c0.614,2.6,0.179,5.283-1.226,7.555
		c-0.066,0.107-0.137,0.216-0.213,0.329l5.291,5.255c0.195,0.194,0.196,0.511,0.003,0.707
		C23.759,23.947,23.633,23.999,23.499,23.999z"/>
</g>
</svg>
