<?xml version="1.0" encoding="utf-8"?>
<!-- Generator: Adobe Illustrator 22.1.0, SVG Export Plug-In . SVG Version: 6.00 Build 0)  -->
<svg version="1.1" id="Layer_1" xmlns="http://www.w3.org/2000/svg" xmlns:xlink="http://www.w3.org/1999/xlink" x="0px" y="0px"
	 viewBox="0 0 24 24" style="enable-background:new 0 0 24 24;" xml:space="preserve">
<g>
	<title>synchronize-arrows-square</title>
	<path d="M6.5,21C4.57,21,3,19.43,3,17.5v-11C3,4.57,4.57,3,6.5,3h7.067l-1.483-2.225c-0.153-0.229-0.091-0.541,0.139-0.693
		c0.082-0.055,0.178-0.084,0.277-0.084c0.168,0,0.323,0.083,0.416,0.223l2,3c0.019,0.028,0.029,0.054,0.035,0.068
		c0.003,0.006,0.009,0.018,0.014,0.03c0.022,0.06,0.034,0.114,0.035,0.167c0,0.005,0,0.009,0,0.014c0,0.013-0.001,0.027-0.003,0.04
		c-0.004,0.046-0.013,0.088-0.028,0.128c-0.009,0.024-0.019,0.045-0.03,0.066c-0.007,0.016-0.014,0.029-0.023,0.043l-1.999,2.998
		c-0.093,0.139-0.248,0.223-0.416,0.223c-0.099,0-0.195-0.029-0.277-0.084c-0.111-0.074-0.187-0.187-0.213-0.318
		c-0.026-0.131,0-0.264,0.074-0.375L13.564,4H6.5C5.121,4,4,5.121,4,6.5v11C4,18.878,5.121,20,6.5,20C6.776,20,7,20.224,7,20.5
		S6.776,21,6.5,21z"/>
	<path d="M11.5,23.998c-0.168,0-0.323-0.083-0.416-0.223l-2-3c-0.009-0.014-0.023-0.041-0.03-0.057
		C9.05,20.711,9.04,20.69,9.031,20.667c-0.016-0.044-0.026-0.09-0.029-0.136C9.001,20.52,9,20.51,9,20.5
		c0-0.059,0.011-0.117,0.034-0.178c0.003-0.008,0.012-0.027,0.016-0.035c0.005-0.013,0.016-0.039,0.035-0.067l1.999-2.999
		c0.093-0.139,0.248-0.223,0.416-0.223c0.099,0,0.194,0.029,0.277,0.084c0.23,0.153,0.292,0.464,0.139,0.693L10.433,20H17.5
		c1.378,0,2.5-1.122,2.5-2.5v-11C20,5.121,18.878,4,17.5,4C17.224,4,17,3.776,17,3.5S17.224,3,17.5,3C19.43,3,21,4.57,21,6.5v11
		c0,1.93-1.57,3.5-3.5,3.5h-7.064l1.48,2.221c0.153,0.229,0.091,0.54-0.139,0.693C11.695,23.969,11.599,23.998,11.5,23.998z"/>
</g>
</svg>
