<?xml version="1.0" encoding="utf-8"?>
<!-- Generator: Adobe Illustrator 22.1.0, SVG Export Plug-In . SVG Version: 6.00 Build 0)  -->
<svg version="1.1" id="Layer_1" xmlns="http://www.w3.org/2000/svg" xmlns:xlink="http://www.w3.org/1999/xlink" x="0px" y="0px"
	 viewBox="0 0 24 24" style="enable-background:new 0 0 24 24;" xml:space="preserve">
<g>
	<title>synchronize-arrow</title>
	<path d="M13.221,21.991c-3.923,0-7.571-2.269-9.295-5.781c-0.059-0.12-0.067-0.256-0.024-0.382
		c0.043-0.126,0.133-0.229,0.253-0.287c0.068-0.034,0.144-0.051,0.22-0.051c0.192,0,0.364,0.107,0.449,0.28
		c1.557,3.172,4.852,5.222,8.394,5.222c0,0,0,0,0,0c0.56,0,1.122-0.051,1.673-0.152c5.063-0.93,8.426-5.806,7.496-10.869
		c-0.814-4.433-4.675-7.65-9.178-7.65c-0.563,0-1.132,0.052-1.691,0.155C9.066,2.924,6.936,4.303,5.52,6.356
		c-1.205,1.748-1.775,3.835-1.629,5.935l2.734-3.124c0.095-0.108,0.232-0.171,0.376-0.171c0.121,0,0.238,0.044,0.329,0.123
		c0.208,0.182,0.229,0.498,0.047,0.706l-3.5,4c-0.095,0.109-0.232,0.171-0.376,0.171c-0.004,0-0.024,0-0.027-0.001
		c-0.159-0.01-0.303-0.093-0.388-0.222l-3-4.5C0.01,9.162-0.016,9.029,0.01,8.898C0.036,8.767,0.112,8.654,0.223,8.58
		C0.305,8.525,0.401,8.496,0.5,8.496c0.168,0,0.323,0.083,0.416,0.223l1.951,2.926c-0.005-2.093,0.619-4.101,1.83-5.856
		c1.568-2.273,3.926-3.799,6.641-4.298c0.618-0.113,1.247-0.171,1.871-0.171c4.987,0,9.261,3.562,10.162,8.469
		c0.498,2.711-0.092,5.457-1.661,7.733c-1.569,2.275-3.927,3.803-6.638,4.301C14.464,21.933,13.841,21.99,13.221,21.991
		L13.221,21.991z"/>
</g>
</svg>
