<?xml version="1.0" encoding="utf-8"?>
<!-- Generator: Adobe Illustrator 22.1.0, SVG Export Plug-In . SVG Version: 6.00 Build 0)  -->
<svg version="1.1" id="Layer_1" xmlns="http://www.w3.org/2000/svg" xmlns:xlink="http://www.w3.org/1999/xlink" x="0px" y="0px"
	 viewBox="0 0 24 24" style="enable-background:new 0 0 24 24;" xml:space="preserve">
<g>
	<title>synchronize-arrows-lock</title>
	<path d="M3.473,15.013c-0.156-0.008-0.301-0.091-0.388-0.221l-2.788-4.15c-0.074-0.111-0.101-0.244-0.076-0.375
		c0.026-0.131,0.101-0.244,0.212-0.319c0.083-0.056,0.179-0.085,0.279-0.085c0.167,0,0.322,0.083,0.415,0.221l1.616,2.406
		c-0.069-4.29,2.841-8.156,7.081-9.215l0.1-0.024c0.686-0.163,1.387-0.245,2.087-0.245c2.571,0,5.025,1.108,6.731,3.04
		c0.088,0.1,0.132,0.229,0.124,0.362c-0.008,0.133-0.068,0.255-0.168,0.344c-0.091,0.081-0.208,0.125-0.331,0.125
		c-0.143,0-0.28-0.062-0.375-0.169c-1.517-1.718-3.697-2.703-5.981-2.703c-0.622,0-1.246,0.073-1.854,0.218l-0.092,0.022
		c-4.115,1.027-6.78,4.97-6.262,9.123l2.516-3.014c0.095-0.114,0.235-0.18,0.384-0.18c0.117,0,0.231,0.041,0.32,0.116
		c0.103,0.086,0.166,0.206,0.178,0.339c0.012,0.133-0.029,0.263-0.114,0.365l-3.204,3.838C3.789,14.948,3.478,15.013,3.473,15.013z"
		/>
	<path d="M11.974,21.013c-2.367,0-4.605-0.924-6.302-2.602c-0.095-0.094-0.148-0.219-0.148-0.353s0.051-0.26,0.145-0.354
		c0.094-0.096,0.22-0.148,0.355-0.148c0.133,0,0.257,0.051,0.352,0.144c1.509,1.492,3.497,2.313,5.6,2.313
		c0.624,0,1.251-0.074,1.864-0.219c3.673-0.879,6.256-4.244,6.225-7.977l-2.387,2.858c-0.096,0.114-0.236,0.18-0.384,0.18
		c-0.117,0-0.231-0.041-0.321-0.116c-0.211-0.177-0.24-0.492-0.063-0.704l3.146-3.767c0.012-0.016,0.025-0.031,0.038-0.046
		l0.023-0.027c0.095-0.114,0.233-0.18,0.378-0.18c0.007,0,0.032,0.001,0.038,0.001c0.15,0.008,0.295,0.091,0.383,0.221l2.784,4.149
		c0.154,0.229,0.092,0.54-0.136,0.694c-0.083,0.056-0.179,0.085-0.279,0.085c-0.167,0-0.323-0.083-0.416-0.221l-1.811-2.699
		c-0.154,4.053-2.983,7.563-6.989,8.522C13.38,20.93,12.675,21.013,11.974,21.013z"/>
	<path d="M10.499,16.01c-0.827,0-1.5-0.673-1.5-1.5v-3c0-0.64,0.41-1.205,1-1.414V9.51c0-1.379,1.122-2.5,2.5-2.5
		c1.378,0,2.5,1.121,2.5,2.5v0.586c0.59,0.209,1,0.774,1,1.414v3c0,0.827-0.673,1.5-1.5,1.5H10.499z M10.499,11.01
		c-0.276,0-0.5,0.224-0.5,0.5v3c0,0.276,0.224,0.5,0.5,0.5h4c0.276,0,0.5-0.224,0.5-0.5v-3c0-0.276-0.224-0.5-0.5-0.5H10.499z
		 M13.999,10.01v-0.5c0-0.827-0.673-1.5-1.5-1.5s-1.5,0.673-1.5,1.5v0.5H13.999z"/>
	<circle cx="12.499" cy="13.03" r="0.75"/>
</g>
</svg>
