<svg xmlns="http://www.w3.org/2000/svg" viewBox="0 0 24 24"><title>monitor-play</title><path d="M24,2.84A2.548,2.548,0,0,0,21.5.251H2.5A2.548,2.548,0,0,0,0,2.84V16.751a3,3,0,0,0,3,3h7.25a.25.25,0,0,1,.25.25v1.5a.25.25,0,0,1-.25.25H5a1,1,0,0,0,0,2H19a1,1,0,0,0,0-2H12.75a.25.25,0,0,1-.25-.25V20a.25.25,0,0,1,.25-.25H21a3,3,0,0,0,3-3Zm-22,0a.551.551,0,0,1,.5-.589h19a.551.551,0,0,1,.5.589V14.751a.5.5,0,0,1-.5.5H2.5a.5.5,0,0,1-.5-.5Z"/><path d="M9.3,11.356a.645.645,0,0,0,.977.553l5.91-2.73a.645.645,0,0,0,0-1.106l-5.91-2.73A.644.644,0,0,0,9.3,5.9Z"/></svg>