<?xml version="1.0" encoding="utf-8"?>
<!-- Generator: Adobe Illustrator 22.1.0, SVG Export Plug-In . SVG Version: 6.00 Build 0)  -->
<svg version="1.1" id="Layer_1" xmlns="http://www.w3.org/2000/svg" xmlns:xlink="http://www.w3.org/1999/xlink" x="0px" y="0px"
	 viewBox="0 0 24 24" style="enable-background:new 0 0 24 24;" xml:space="preserve">
<title>voice-id</title>
<g>
	<path d="M15.75,24C15.336,24,15,23.664,15,23.25s0.336-0.75,0.75-0.75h6c0.414,0,0.75-0.336,0.75-0.75v-6
		c0-0.414,0.336-0.75,0.75-0.75S24,15.336,24,15.75v6c0,1.241-1.009,2.25-2.25,2.25H15.75z"/>
	<path d="M23.25,9c-0.414,0-0.75-0.336-0.75-0.75v-6c0-0.414-0.336-0.75-0.75-0.75h-6C15.336,1.5,15,1.164,15,0.75S15.336,0,15.75,0
		h6C22.991,0,24,1.009,24,2.25v6C24,8.664,23.664,9,23.25,9z"/>
	<path d="M0.75,9C0.336,9,0,8.664,0,8.25v-6C0,1.009,1.009,0,2.25,0h6C8.664,0,9,0.336,9,0.75S8.664,1.5,8.25,1.5h-6
		C1.836,1.5,1.5,1.836,1.5,2.25v6C1.5,8.664,1.164,9,0.75,9z"/>
	<path d="M2.25,24C1.009,24,0,22.991,0,21.75v-6C0,15.336,0.336,15,0.75,15s0.75,0.336,0.75,0.75v6c0,0.414,0.336,0.75,0.75,0.75h6
		C8.664,22.5,9,22.836,9,23.25S8.664,24,8.25,24H2.25z"/>
	<path d="M12,18c-0.414,0-0.75-0.336-0.75-0.75V6.75C11.25,6.336,11.586,6,12,6s0.75,0.336,0.75,0.75v10.5
		C12.75,17.664,12.414,18,12,18z"/>
	<path d="M8.25,15.75c-0.414,0-0.75-0.336-0.75-0.75V9c0-0.414,0.336-0.75,0.75-0.75S9,8.586,9,9v6C9,15.414,8.664,15.75,8.25,15.75
		z"/>
	<path d="M15.75,15.75C15.336,15.75,15,15.414,15,15V9c0-0.414,0.336-0.75,0.75-0.75S16.5,8.586,16.5,9v6
		C16.5,15.414,16.164,15.75,15.75,15.75z"/>
	<path d="M4.5,14.25c-0.414,0-0.75-0.336-0.75-0.75v-3c0-0.414,0.336-0.75,0.75-0.75s0.75,0.336,0.75,0.75v3
		C5.25,13.914,4.914,14.25,4.5,14.25z"/>
	<path d="M19.5,14.25c-0.414,0-0.75-0.336-0.75-0.75v-3c0-0.414,0.336-0.75,0.75-0.75s0.75,0.336,0.75,0.75v3
		C20.25,13.914,19.914,14.25,19.5,14.25z"/>
</g>
</svg>
