<?xml version="1.0" encoding="utf-8"?>
<!-- Generator: Adobe Illustrator 22.1.0, SVG Export Plug-In . SVG Version: 6.00 Build 0)  -->
<svg version="1.1" id="Layer_1" xmlns="http://www.w3.org/2000/svg" xmlns:xlink="http://www.w3.org/1999/xlink" x="0px" y="0px"
	 viewBox="0 0 24 24" style="enable-background:new 0 0 24 24;" xml:space="preserve">
<title>picture-double-shapes</title>
<g>
	<path d="M2.748,16.5c-0.74-0.004-1.431-0.295-1.95-0.819S-0.004,14.461,0,13.724V4.272C-0.004,3.538,0.28,2.844,0.799,2.32
		C1.318,1.795,2.009,1.504,2.746,1.5H16.75c0.739,0.004,1.431,0.295,1.951,0.82C19.22,2.845,19.504,3.54,19.5,4.276V5.25
		C19.5,5.664,19.164,6,18.75,6S18,5.664,18,5.25V4.272c0.002-0.34-0.128-0.658-0.365-0.898C17.399,3.135,17.083,3.002,16.746,3H2.75
		C2.058,3.004,1.496,3.573,1.5,4.268v9.46c-0.002,0.34,0.128,0.658,0.364,0.898c0.237,0.24,0.553,0.372,0.89,0.374
		c0.413,0.002,0.748,0.341,0.746,0.754C3.498,16.165,3.161,16.5,2.75,16.5H2.748z"/>
	<path d="M10,19.5c-0.965,0-1.75-0.785-1.75-1.75V14.5c0-0.965,0.785-1.75,1.75-1.75h3.25c0.965,0,1.75,0.785,1.75,1.75v3.25
		c0,0.965-0.785,1.75-1.75,1.75H10z M10,14.25c-0.138,0-0.25,0.112-0.25,0.25v3.25C9.75,17.888,9.862,18,10,18h3.25
		c0.138,0,0.25-0.112,0.25-0.25V14.5c0-0.138-0.112-0.25-0.25-0.25H10z"/>
	<path d="M16.75,19.5c-0.414,0-0.75-0.336-0.75-0.75S16.336,18,16.75,18h2.625c0.069,0,0.125-0.056,0.125-0.125
		c0-0.016-0.004-0.033-0.012-0.048l-3.178-6.17c-0.056,0.116-0.134,0.267-0.218,0.432c-0.128,0.252-0.385,0.409-0.668,0.409
		c-0.118,0-0.236-0.028-0.341-0.082c-0.178-0.091-0.311-0.246-0.372-0.437c-0.062-0.191-0.046-0.394,0.045-0.572
		c0.096-0.188,0.184-0.359,0.254-0.493c0.138-0.269,0.357-0.487,0.631-0.628c0.207-0.107,0.439-0.163,0.67-0.163
		c0.152,0,0.303,0.024,0.449,0.07c0.373,0.12,0.677,0.377,0.857,0.726l3.2,6.213C20.935,17.355,21,17.613,21,17.874
		c0,0.897-0.729,1.626-1.625,1.626H16.75z"/>
	<path d="M7,22.5c-0.965,0-1.75-0.785-1.75-1.75V9.25C5.25,8.285,6.035,7.5,7,7.5h15.25C23.215,7.5,24,8.285,24,9.25v11.5
		c0,0.965-0.785,1.75-1.75,1.75H7z M7,9C6.862,9,6.75,9.112,6.75,9.25v11.5C6.75,20.888,6.862,21,7,21h15.25
		c0.138,0,0.25-0.112,0.25-0.25V9.25C22.5,9.112,22.388,9,22.25,9H7z"/>
</g>
</svg>
