<?xml version="1.0" encoding="utf-8"?>
<!-- Generator: Adobe Illustrator 22.1.0, SVG Export Plug-In . SVG Version: 6.00 Build 0)  -->
<svg version="1.1" id="Layer_1" xmlns="http://www.w3.org/2000/svg" xmlns:xlink="http://www.w3.org/1999/xlink" x="0px" y="0px"
	 viewBox="0 0 24 24" style="enable-background:new 0 0 24 24;" xml:space="preserve">
<title>picture-polaroid-landscape</title>
<g>
	<path d="M1.501,18c-0.827,0-1.5-0.673-1.5-1.5v-15c0-0.827,0.673-1.5,1.5-1.5h13.5c0.827,0,1.5,0.673,1.5,1.5v15
		c0,0.827-0.673,1.5-1.5,1.5H1.501z M1.501,16.5h13.5v-3h-13.5V16.5z M15.001,12v-0.468l-3.804-4.348
		c-0.041-0.047-0.086-0.087-0.136-0.122c-0.127-0.089-0.274-0.135-0.427-0.135c-0.044,0-0.089,0.004-0.133,0.012
		c-0.198,0.035-0.37,0.145-0.484,0.309L6.691,12H15.001z M4.861,12l3.926-5.612c0.343-0.492,0.859-0.822,1.451-0.927
		c0.131-0.023,0.265-0.035,0.398-0.035c0.46,0,0.904,0.14,1.284,0.406c0.15,0.105,0.287,0.228,0.407,0.365l2.675,3.057V1.5h-13.5
		l0,10.5H4.861z"/>
	<path d="M17.757,24c-0.161,0-0.321-0.026-0.474-0.077L6.519,20.334c-0.197-0.065-0.303-0.278-0.237-0.474l0.237-0.711
		c0.031-0.094,0.099-0.172,0.188-0.217c0.053-0.026,0.11-0.04,0.168-0.04c0.04,0,0.08,0.006,0.119,0.019L17.757,22.5l4.743-14.23
		l-3.982-1.328c-0.392-0.131-0.605-0.556-0.474-0.948c0.102-0.307,0.387-0.513,0.71-0.513c0.081,0,0.161,0.013,0.239,0.039
		l3.982,1.327c0.38,0.127,0.688,0.394,0.867,0.752c0.179,0.359,0.208,0.766,0.081,1.146l-4.743,14.23
		C18.976,23.587,18.404,24,17.757,24z"/>
	<path d="M5.064,7.501c-1.344,0-2.438-1.094-2.438-2.438S3.72,2.625,5.064,2.625s2.438,1.094,2.438,2.438S6.409,7.501,5.064,7.501z
		 M5.064,4.125c-0.517,0-0.938,0.421-0.938,0.938s0.421,0.938,0.938,0.938S6.002,5.58,6.002,5.063S5.581,4.125,5.064,4.125z"/>
</g>
</svg>
