<?xml version="1.0" encoding="utf-8"?>
<!-- Generator: Adobe Illustrator 22.1.0, SVG Export Plug-In . SVG Version: 6.00 Build 0)  -->
<svg version="1.1" id="Layer_1" xmlns="http://www.w3.org/2000/svg" xmlns:xlink="http://www.w3.org/1999/xlink" x="0px" y="0px"
	 viewBox="0 0 24 24" style="enable-background:new 0 0 24 24;" xml:space="preserve">
<title>picture-flower</title>
<g>
	<path d="M2.25,24C1.009,24,0,22.991,0,21.75V2.25C0,1.009,1.009,0,2.25,0h19.5C22.991,0,24,1.009,24,2.25v19.5
		c0,1.241-1.009,2.25-2.25,2.25H2.25z M1.5,21.75c0,0.414,0.336,0.75,0.75,0.75h19.5c0.414,0,0.75-0.336,0.75-0.75V19.5h-21V21.75z
		 M22.5,18V2.25c0-0.414-0.336-0.75-0.75-0.75H2.25C1.836,1.5,1.5,1.836,1.5,2.25V18h9.75v-3.635c-0.03,0.038-0.06,0.075-0.09,0.112
		c-0.016,0.019-0.032,0.036-0.049,0.053c-1.229,1.229-2.669,1.963-3.852,1.963c-0.592,0-1.094-0.189-1.454-0.546
		c-0.364-0.362-0.557-0.866-0.557-1.458c-0.001-1.158,0.754-2.633,1.971-3.85c0.015-0.016,0.033-0.032,0.052-0.048
		c0.399-0.328,0.83-0.609,1.288-0.841C8.103,9.519,7.672,9.238,7.274,8.91c-0.02-0.017-0.038-0.033-0.056-0.051
		c-1.215-1.215-1.97-2.69-1.969-3.847c0-0.592,0.193-1.096,0.557-1.459C6.165,3.196,6.668,3.007,7.26,3.007
		c1.182,0,2.622,0.734,3.852,1.963c0.016,0.015,0.032,0.033,0.048,0.052C11.487,5.42,11.768,5.851,12,6.308
		c0.232-0.458,0.513-0.888,0.84-1.285c0.015-0.018,0.032-0.037,0.05-0.055c1.227-1.227,2.667-1.961,3.85-1.961
		c0.592,0,1.095,0.189,1.454,0.547c0.364,0.362,0.556,0.867,0.557,1.459c0.001,1.157-0.754,2.632-1.971,3.849
		c-0.015,0.015-0.032,0.031-0.051,0.046c-0.401,0.33-0.833,0.612-1.292,0.843c0.457,0.231,0.887,0.511,1.285,0.839
		c0.02,0.017,0.038,0.033,0.056,0.051c1.215,1.215,1.971,2.691,1.969,3.848c-0.001,0.592-0.194,1.096-0.558,1.458
		c-0.359,0.357-0.861,0.546-1.452,0.546c-1.182,0-2.621-0.733-3.849-1.962c-0.018-0.018-0.034-0.036-0.05-0.055
		c-0.03-0.036-0.06-0.073-0.089-0.11V18H22.5z M8.254,11.725c-0.902,0.911-1.507,2.019-1.506,2.762c0,0.129,0.02,0.302,0.115,0.396
		c0.073,0.073,0.216,0.113,0.401,0.113c0.575,0,1.642-0.394,2.76-1.501c0.696-0.856,1.11-1.88,1.206-2.976
		C10.146,10.616,9.103,11.037,8.254,11.725z M13.975,13.495c1.117,1.107,2.183,1.5,2.757,1.5c0.185,0,0.327-0.04,0.4-0.112
		c0.094-0.094,0.115-0.268,0.115-0.396c0.001-0.742-0.604-1.85-1.506-2.761c-0.848-0.688-1.891-1.108-2.974-1.206
		C12.86,11.605,13.275,12.635,13.975,13.495z M13.975,6.005c-0.697,0.856-1.11,1.88-1.206,2.976
		c1.078-0.095,2.126-0.516,2.977-1.206c0.902-0.912,1.506-2.019,1.506-2.761c0-0.129-0.02-0.303-0.115-0.398
		c-0.073-0.073-0.215-0.113-0.401-0.113C16.159,4.504,15.093,4.897,13.975,6.005z M8.254,7.775c0.848,0.688,1.892,1.108,2.977,1.205
		c-0.094-1.092-0.508-2.117-1.206-2.975C8.907,4.897,7.84,4.504,7.265,4.504c-0.186,0-0.328,0.04-0.401,0.113
		C6.769,4.711,6.749,4.885,6.749,5.014C6.748,5.756,7.352,6.863,8.254,7.775z"/>
</g>
</svg>
