<?xml version="1.0" encoding="utf-8"?>
<!-- Generator: Adobe Illustrator 22.1.0, SVG Export Plug-In . SVG Version: 6.00 Build 0)  -->
<svg version="1.1" id="Layer_1" xmlns="http://www.w3.org/2000/svg" xmlns:xlink="http://www.w3.org/1999/xlink" x="0px" y="0px"
	 viewBox="0 0 24 24" style="enable-background:new 0 0 24 24;" xml:space="preserve">
<g>
	<title>lens-shade-1</title>
	<path d="M10,24c-0.827,0-1.5-0.673-1.5-1.5v-0.586c-0.59-0.209-1-0.774-1-1.414v-1.586c-0.59-0.209-1-0.774-1-1.414v-5.586
		c-0.59-0.209-1-0.774-1-1.414V9C4.675,9,3.978,8.409,3.843,7.596L3.174,3.582c-0.06-0.357,0.023-0.717,0.233-1.013
		c0.211-0.296,0.524-0.493,0.882-0.553c0.076-0.013,0.153-0.019,0.23-0.019c0.478,0,0.912,0.246,1.161,0.657L6.8,4.5
		c0.048,0.08,0.125,0.136,0.216,0.158c0.028,0.007,0.056,0.01,0.084,0.01c0.063,0,0.126-0.018,0.182-0.052
		C7.361,4.568,7.417,4.492,7.44,4.402l0.763-3.053C8.401,0.555,9.112,0,9.93,0h4.14c0.819,0,1.529,0.555,1.728,1.349l0.763,3.054
		c0.039,0.155,0.179,0.264,0.34,0.264c0.029,0,0.058-0.004,0.086-0.011c0.09-0.023,0.166-0.078,0.214-0.157l1.121-1.845
		c0.187-0.31,0.485-0.529,0.838-0.616c0.108-0.027,0.218-0.04,0.328-0.04c0.246,0,0.489,0.068,0.702,0.197
		c0.481,0.291,0.731,0.836,0.637,1.39l-0.669,4.011C20.023,8.41,19.326,9,18.501,9H18.5v1.5c0,0.64-0.41,1.205-1,1.414V17.5
		c0,0.64-0.41,1.205-1,1.414V20.5c0,0.64-0.41,1.205-1,1.414V22.5c0,0.827-0.673,1.5-1.5,1.5H10z M9.5,22.5
		c0,0.276,0.224,0.5,0.5,0.5h4c0.276,0,0.5-0.224,0.5-0.5V22h-5V22.5z M15,21c0.276,0,0.5-0.224,0.5-0.5V19H14v2H15z M13,21v-2h-2v2
		H13z M8.5,20.5C8.5,20.776,8.725,21,9,21h1v-2H8.5V20.5z M7.5,17.5C7.5,17.776,7.725,18,8,18h8c0.276,0,0.5-0.224,0.5-0.5V12h-9
		V17.5z M17,11c0.276,0,0.5-0.224,0.5-0.5V9h-2v2H17z M14.5,11V9h-2v2H14.5z M11.5,11V9h-2v2H11.5z M6.5,10.5
		C6.5,10.776,6.725,11,7,11h1.5V9h-2V10.5z M4.517,2.997c-0.02,0-0.041,0.002-0.062,0.005C4.361,3.018,4.278,3.07,4.222,3.148
		C4.166,3.227,4.144,3.322,4.16,3.417L4.83,7.432C4.884,7.761,5.166,8,5.499,8H18.5c0.334,0,0.616-0.239,0.671-0.568L19.84,3.42
		c0.025-0.147-0.041-0.292-0.168-0.369c-0.057-0.034-0.121-0.052-0.186-0.052c-0.029,0-0.058,0.004-0.087,0.011
		c-0.093,0.023-0.172,0.081-0.222,0.163l-1.122,1.846c-0.186,0.305-0.478,0.521-0.824,0.608c-0.108,0.027-0.219,0.041-0.33,0.041
		c-0.62,0-1.159-0.42-1.311-1.021l-0.763-3.055C14.741,1.243,14.43,1,14.071,1H9.93C9.571,1,9.26,1.243,9.172,1.591L8.41,4.645
		C8.322,4.992,8.106,5.285,7.802,5.47C7.59,5.599,7.348,5.667,7.101,5.667c-0.476,0-0.908-0.242-1.155-0.648L4.824,3.172
		C4.758,3.062,4.643,2.997,4.517,2.997z"/>
</g>
</svg>
