<?xml version="1.0" encoding="utf-8"?>
<!-- Generator: Adobe Illustrator 22.1.0, SVG Export Plug-In . SVG Version: 6.00 Build 0)  -->
<svg version="1.1" id="Layer_1" xmlns="http://www.w3.org/2000/svg" xmlns:xlink="http://www.w3.org/1999/xlink" x="0px" y="0px"
	 viewBox="0 0 24 24" style="enable-background:new 0 0 24 24;" xml:space="preserve">
<title>touch-id-user</title>
<g>
	<path d="M0.75,9.004C0.337,9.004,0,8.668,0,8.254C0,6.807,0.382,5.38,1.105,4.127c1.468-2.544,4.211-4.124,7.158-4.124
		c1.439,0,2.861,0.382,4.112,1.104c0.174,0.1,0.298,0.262,0.349,0.455c0.052,0.193,0.025,0.396-0.075,0.569
		C12.516,2.363,12.267,2.507,12,2.507c-0.131,0-0.261-0.035-0.375-0.101c-1.023-0.59-2.186-0.903-3.363-0.903
		c-2.412,0-4.656,1.293-5.858,3.374C1.812,5.903,1.5,7.07,1.5,8.254C1.5,8.667,1.164,9.004,0.75,9.004z"/>
	<path d="M15.75,9.004c-0.414,0-0.75-0.337-0.75-0.751c0.001-0.934-0.188-1.843-0.562-2.699c-0.165-0.379,0.009-0.822,0.388-0.987
		c0.095-0.042,0.196-0.063,0.3-0.063c0.298,0,0.568,0.177,0.688,0.45c0.457,1.047,0.688,2.158,0.687,3.301
		C16.5,8.668,16.163,9.004,15.75,9.004C15.75,9.004,15.75,9.004,15.75,9.004z"/>
	<path d="M8.25,24.004c-0.414,0-0.75-0.336-0.75-0.75s0.336-0.75,0.75-0.75c0.453,0,0.907-0.046,1.351-0.135
		c0.052-0.01,0.1-0.014,0.147-0.014c0.356,0,0.666,0.253,0.736,0.601c0.082,0.405-0.181,0.801-0.586,0.884
		C9.357,23.949,8.802,24.004,8.25,24.004z"/>
	<path d="M5.25,23.38c-0.104,0-0.204-0.021-0.299-0.062C1.942,22.005-0.001,19.036,0,15.754v-3c0-0.414,0.336-0.75,0.75-0.75
		s0.75,0.336,0.75,0.75v3c-0.001,2.686,1.589,5.115,4.05,6.188c0.379,0.166,0.553,0.609,0.387,0.987
		C5.818,23.203,5.548,23.38,5.25,23.38z"/>
	<path d="M12.75,11.254c-0.414,0-0.75-0.336-0.75-0.75v-2.25c0-1.002-0.39-1.943-1.098-2.652c-0.708-0.708-1.65-1.099-2.651-1.099
		c-0.658,0-1.306,0.174-1.876,0.502C6.261,5.071,6.132,5.106,6,5.106c-0.267,0-0.516-0.144-0.65-0.375
		c-0.1-0.173-0.127-0.375-0.075-0.569c0.052-0.193,0.176-0.355,0.349-0.455C6.422,3.246,7.33,3.003,8.25,3.003
		c1.403,0,2.722,0.547,3.713,1.538c0.991,0.992,1.537,2.31,1.537,3.713v2.25C13.5,10.918,13.164,11.254,12.75,11.254z"/>
	<path d="M8.249,21.005c-1.403,0-2.721-0.547-3.712-1.539S3,17.156,3,15.754v-7.5c0-0.414,0.336-0.75,0.75-0.75S4.5,7.84,4.5,8.254
		v7.5c0,1.002,0.389,1.944,1.098,2.652s1.65,1.099,2.651,1.099c0.428,0,0.849-0.072,1.251-0.214c0.08-0.029,0.165-0.043,0.25-0.043
		c0.317,0,0.601,0.201,0.707,0.5c0.067,0.189,0.056,0.392-0.03,0.573c-0.086,0.181-0.238,0.317-0.427,0.384
		c-0.563,0.199-1.152,0.3-1.749,0.3H8.249z"/>
	<path d="M8.25,18.004c-1.241,0-2.25-1.009-2.25-2.25c0-0.414,0.336-0.75,0.75-0.75s0.75,0.336,0.75,0.75s0.336,0.75,0.75,0.75
		c0.414,0,0.75-0.336,0.75-0.75v-7.5c0-0.414-0.336-0.75-0.75-0.75c-0.414,0-0.75,0.336-0.75,0.75v3c0,0.414-0.336,0.75-0.75,0.75
		S6,11.668,6,11.254v-3c0-1.241,1.009-2.25,2.25-2.25s2.25,1.009,2.25,2.25v7.5C10.5,16.995,9.491,18.004,8.25,18.004z"/>
	<path d="M18,16.504c-1.861,0-3.375-1.514-3.375-3.375S16.139,9.754,18,9.754s3.375,1.514,3.375,3.375S19.861,16.504,18,16.504z
		 M18,11.254c-1.034,0-1.875,0.841-1.875,1.875s0.841,1.875,1.875,1.875s1.875-0.841,1.875-1.875S19.034,11.254,18,11.254z"/>
	<path d="M12.75,24.004c-0.414,0-0.75-0.336-0.75-0.75v-1.5c0-3.308,2.692-6,6-6c1.602,0,3.108,0.625,4.242,1.76
		c1.134,1.134,1.759,2.64,1.758,4.24v1.5c0,0.414-0.336,0.75-0.75,0.75H12.75z M22.5,22.504v-0.75c0-1.2-0.468-2.329-1.319-3.18
		c-0.851-0.851-1.98-1.32-3.179-1.32c0,0-0.002,0-0.002,0c-2.481,0-4.5,2.019-4.5,4.5v0.75H22.5z"/>
</g>
</svg>
