<?xml version="1.0" encoding="utf-8"?>
<!-- Generator: Adobe Illustrator 22.1.0, SVG Export Plug-In . SVG Version: 6.00 Build 0)  -->
<svg version="1.1" id="Layer_1" xmlns="http://www.w3.org/2000/svg" xmlns:xlink="http://www.w3.org/1999/xlink" x="0px" y="0px"
	 viewBox="0 0 24 24" style="enable-background:new 0 0 24 24;" xml:space="preserve">
<title>touch-id-target</title>
<g>
	<path d="M8.263,24.007c-0.721,0-1.444-0.096-2.148-0.284c-2.129-0.571-3.908-1.936-5.009-3.844C0.382,18.626,0,17.2,0,15.753
		c0-0.414,0.336-0.75,0.75-0.75s0.75,0.336,0.75,0.75c0,1.184,0.313,2.351,0.904,3.376c0.901,1.561,2.357,2.678,4.099,3.145
		c0.577,0.154,1.168,0.233,1.758,0.233c1.173,0,2.336-0.314,3.365-0.907c0.114-0.066,0.243-0.101,0.375-0.101
		c0.267,0,0.516,0.144,0.65,0.375c0.1,0.173,0.126,0.375,0.075,0.569c-0.052,0.194-0.176,0.355-0.349,0.455
		C11.119,23.624,9.697,24.007,8.263,24.007z"/>
	<path d="M15.126,19.503c-0.104,0-0.204-0.021-0.299-0.062c-0.184-0.08-0.325-0.227-0.399-0.414
		c-0.073-0.187-0.069-0.39,0.011-0.574c0.374-0.857,0.563-1.765,0.562-2.699c0-0.414,0.335-0.75,0.749-0.751
		c0.414,0,0.75,0.336,0.751,0.749c0.001,1.143-0.23,2.254-0.687,3.301C15.694,19.326,15.424,19.503,15.126,19.503z"/>
	<path d="M9.75,1.653c-0.049,0-0.099-0.005-0.148-0.015C9.16,1.549,8.709,1.503,8.259,1.503c-0.003,0-0.009,0-0.009,0
		c-0.413,0-0.75-0.336-0.75-0.749c0-0.2,0.078-0.388,0.219-0.53c0.143-0.143,0.332-0.222,0.533-0.222
		c0.556,0,1.108,0.056,1.647,0.165c0.405,0.082,0.668,0.479,0.586,0.884C10.414,1.4,10.105,1.653,9.75,1.653
		C9.75,1.653,9.75,1.653,9.75,1.653z"/>
	<path d="M0.75,12.003c-0.414,0-0.75-0.336-0.75-0.75v-3C-0.001,4.971,1.942,2.003,4.95,0.69c0.096-0.042,0.197-0.063,0.3-0.063
		c0.298,0,0.568,0.177,0.688,0.45C6.103,1.456,5.929,1.899,5.55,2.064C3.089,3.139,1.499,5.568,1.5,8.253v3
		C1.5,11.667,1.164,12.003,0.75,12.003z"/>
	<path d="M8.249,21.004c-0.92,0-1.827-0.243-2.624-0.703c-0.358-0.207-0.481-0.666-0.275-1.024c0.134-0.231,0.383-0.375,0.65-0.375
		c0.131,0,0.26,0.035,0.374,0.1c0.57,0.329,1.218,0.502,1.875,0.502c1.001,0,1.942-0.391,2.651-1.1
		C11.61,17.694,12,16.753,12,15.753v-2.25c0-0.414,0.336-0.75,0.75-0.75s0.75,0.336,0.75,0.75v2.25c0,1.402-0.546,2.721-1.537,3.712
		c-0.992,0.992-2.31,1.538-3.712,1.538C8.251,21.004,8.249,21.004,8.249,21.004z"/>
	<path d="M3.75,16.503c-0.414,0-0.75-0.336-0.75-0.75v-7.5c0-1.4,0.546-2.718,1.538-3.711s2.31-1.54,3.71-1.54
		c0.6,0,1.188,0.101,1.752,0.3c0.189,0.067,0.34,0.203,0.427,0.384c0.086,0.181,0.097,0.384,0.03,0.573
		c-0.106,0.299-0.39,0.5-0.707,0.5l0,0c-0.085,0-0.17-0.015-0.25-0.043C9.098,4.574,8.677,4.502,8.251,4.502
		c-1.002,0-1.943,0.391-2.652,1.1C4.89,6.312,4.5,7.253,4.5,8.253v7.5C4.5,16.167,4.164,16.503,3.75,16.503z"/>
	<path d="M8.25,18.003c-1.241,0-2.25-1.009-2.25-2.25v-3c0-0.414,0.336-0.75,0.75-0.75s0.75,0.336,0.75,0.75v3
		c0,0.414,0.336,0.75,0.75,0.75c0.414,0,0.75-0.336,0.75-0.75v-6c0-0.414,0.336-0.75,0.75-0.75s0.75,0.336,0.75,0.75v6
		C10.5,16.994,9.491,18.003,8.25,18.003z"/>
	<path d="M6.75,9.003C6.336,9.003,6,8.667,6,8.253c0-1.241,1.009-2.25,2.25-2.25C8.664,6.003,9,6.34,9,6.753s-0.336,0.75-0.75,0.75
		c-0.414,0-0.75,0.336-0.75,0.75S7.164,9.003,6.75,9.003z"/>
	<path d="M17.25,13.503c-0.414,0-0.75-0.336-0.75-0.75v-0.808c-2.28-0.331-4.11-2.161-4.442-4.442H11.25
		c-0.414,0-0.75-0.336-0.75-0.75s0.336-0.75,0.75-0.75h0.808c0.331-2.28,2.161-4.11,4.442-4.442V0.753c0-0.414,0.336-0.75,0.75-0.75
		S18,0.34,18,0.753v0.808c2.28,0.331,4.11,2.161,4.441,4.442h0.809c0.414,0,0.75,0.336,0.75,0.75s-0.336,0.75-0.75,0.75h-0.809
		c-0.331,2.28-2.161,4.11-4.441,4.442v0.808C18,13.167,17.664,13.503,17.25,13.503z M17.25,9.003c0.414,0,0.75,0.336,0.75,0.75
		v0.673c1.471-0.298,2.625-1.452,2.923-2.923H20.25c-0.414,0-0.75-0.336-0.75-0.75s0.336-0.75,0.75-0.75h0.673
		C20.625,4.532,19.471,3.379,18,3.08v0.673c0,0.414-0.336,0.75-0.75,0.75s-0.75-0.336-0.75-0.75V3.08
		c-1.471,0.298-2.625,1.452-2.923,2.923h0.673c0.414,0,0.75,0.336,0.75,0.75s-0.336,0.75-0.75,0.75h-0.673
		c0.298,1.471,1.452,2.625,2.923,2.923V9.753C16.5,9.34,16.836,9.003,17.25,9.003z"/>
	<circle cx="17.25" cy="6.753" r="1.125"/>
</g>
</svg>
