<?xml version="1.0" encoding="utf-8"?>
<!-- Generator: Adobe Illustrator 22.1.0, SVG Export Plug-In . SVG Version: 6.00 Build 0)  -->
<svg version="1.1" id="Layer_1" xmlns="http://www.w3.org/2000/svg" xmlns:xlink="http://www.w3.org/1999/xlink" x="0px" y="0px"
	 viewBox="0 0 24 24" style="enable-background:new 0 0 24 24;" xml:space="preserve">
<title>touch-id-smartphone-1</title>
<g>
	<path d="M4.5,24c-2.068,0-3.75-1.682-3.75-3.75V3.75C0.75,1.682,2.432,0,4.5,0H12c0.414,0,0.75,0.336,0.75,0.75S12.414,1.5,12,1.5
		H4.5c-1.241,0-2.25,1.009-2.25,2.25V18h12v-3c0-0.414,0.336-0.75,0.75-0.75s0.75,0.336,0.75,0.75v3.724
		c0.001,0.009,0.001,0.018,0.001,0.026s0,0.017-0.001,0.026v1.474c0,2.068-1.682,3.75-3.75,3.75H4.5z M2.25,20.25
		c0,1.241,1.009,2.25,2.25,2.25H12c1.241,0,2.25-1.009,2.25-2.25V19.5h-12V20.25z"/>
	<path d="M22.5,12.75c-0.414,0-0.75-0.336-0.75-0.75V6.75c0.001-0.658-0.171-1.307-0.5-1.875c-0.1-0.174-0.127-0.376-0.075-0.569
		c0.052-0.194,0.176-0.355,0.349-0.456C21.639,3.785,21.768,3.75,21.9,3.75c0.268,0,0.517,0.144,0.65,0.375
		c0.46,0.797,0.703,1.706,0.7,2.627V12C23.25,12.414,22.914,12.75,22.5,12.75z"/>
	<path d="M13.501,12.75c-0.414,0-0.75-0.336-0.75-0.75V6.75c0-0.414,0.336-0.75,0.75-0.75s0.75,0.336,0.75,0.75V12
		C14.251,12.414,13.915,12.75,13.501,12.75z"/>
	<path d="M14.272,4.988c-0.15,0-0.295-0.045-0.42-0.129c-0.166-0.112-0.278-0.282-0.316-0.479c-0.038-0.197,0.003-0.396,0.115-0.562
		c0.979-1.448,2.609-2.312,4.361-2.312c0.581,0,1.155,0.096,1.705,0.285c0.391,0.135,0.6,0.562,0.465,0.953
		c-0.104,0.303-0.389,0.506-0.708,0.506c-0.083,0-0.166-0.014-0.245-0.041c-0.393-0.135-0.802-0.204-1.217-0.204
		c-1.252,0-2.418,0.618-3.117,1.653C14.754,4.865,14.522,4.988,14.272,4.988z"/>
	<path d="M19.5,12.75c-0.414,0-0.75-0.336-0.75-0.75V6.75C18.75,6.336,18.414,6,18,6s-0.75,0.336-0.75,0.75V7.5
		c0,0.414-0.336,0.75-0.75,0.75s-0.75-0.336-0.75-0.75V6.75c0-1.241,1.009-2.25,2.25-2.25s2.25,1.009,2.25,2.25V12
		C20.25,12.414,19.914,12.75,19.5,12.75z"/>
	<path d="M16.501,12.75c-0.414,0-0.75-0.336-0.75-0.75v-1.5c0-0.414,0.336-0.75,0.75-0.75s0.75,0.336,0.75,0.75V12
		C17.251,12.414,16.915,12.75,16.501,12.75z"/>
</g>
</svg>
