<?xml version="1.0" encoding="utf-8"?>
<!-- Generator: Adobe Illustrator 22.1.0, SVG Export Plug-In . SVG Version: 6.00 Build 0)  -->
<svg version="1.1" id="Layer_1" xmlns="http://www.w3.org/2000/svg" xmlns:xlink="http://www.w3.org/1999/xlink" x="0px" y="0px"
	 viewBox="0 0 24 24" style="enable-background:new 0 0 24 24;" xml:space="preserve">
<title>database-warning</title>
<g>
	<path d="M8.259,22.246c-0.034,0-0.069-0.002-0.104-0.007c-5.031-0.71-8.155-2.621-8.155-4.988v-12c0-2.993,5.159-5.25,12-5.25
		c6.841,0,12,2.257,12,5.25v6c0,0.414-0.336,0.75-0.75,0.75s-0.75-0.336-0.75-0.75V7.878c-0.684,0.54-1.59,1.015-2.703,1.417
		c-0.083,0.03-0.168,0.045-0.255,0.045c-0.315,0-0.598-0.199-0.705-0.495c-0.141-0.388,0.061-0.819,0.449-0.96
		c2.012-0.728,3.214-1.713,3.214-2.634c0-1.533-3.739-3.75-10.5-3.75s-10.5,2.217-10.5,3.75c0,0.392,0.217,0.797,0.645,1.203
		C3.75,7.977,7.723,9,12.031,9c0.487,0,0.979-0.013,1.463-0.039C13.505,8.96,13.522,8.96,13.54,8.96
		c0.395,0,0.721,0.312,0.743,0.711c0.022,0.413-0.296,0.767-0.709,0.789c-0.524,0.028-1.054,0.042-1.575,0.042
		c-4.491,0-8.438-0.996-10.499-2.624v3.375c0,1.552,3.455,3.413,9.038,3.711c0.413,0.022,0.731,0.376,0.709,0.789
		c-0.021,0.398-0.35,0.71-0.749,0.71c-0.005,0-0.029,0-0.033-0.001c-3.911-0.209-7.163-1.162-8.965-2.593v3.384
		c0,1.259,2.358,2.867,6.864,3.502c0.41,0.058,0.696,0.438,0.638,0.848C8.949,21.969,8.63,22.246,8.259,22.246z"/>
	<circle cx="17.249" cy="20.626" r="1.125"/>
	<path d="M17.249,18.751c-0.414,0-0.75-0.336-0.75-0.75v-3c0-0.414,0.336-0.75,0.75-0.75s0.75,0.336,0.75,0.75v3
		C17.999,18.415,17.663,18.751,17.249,18.751z"/>
	<path d="M13.023,24.001c-0.675,0-1.309-0.263-1.786-0.741c-0.477-0.477-0.739-1.111-0.739-1.786c0-0.388,0.092-0.778,0.266-1.126
		l4.226-8.452c0.431-0.86,1.298-1.394,2.262-1.394c0.394,0,0.773,0.09,1.127,0.267c0.484,0.243,0.884,0.643,1.126,1.127l4.226,8.452
		c0.622,1.246,0.115,2.766-1.131,3.387c-0.347,0.174-0.737,0.266-1.126,0.266H13.023z M17.252,12.001
		c-0.392,0-0.744,0.217-0.919,0.566l-4.225,8.451c-0.07,0.141-0.108,0.299-0.108,0.457c0,0.274,0.106,0.531,0.3,0.725
		c0.194,0.194,0.451,0.3,0.725,0.301h8.451c0.157,0,0.316-0.038,0.457-0.108c0.505-0.252,0.711-0.869,0.459-1.375l-4.226-8.451
		c-0.098-0.196-0.26-0.358-0.457-0.457C17.565,12.038,17.411,12.001,17.252,12.001z"/>
</g>
</svg>
