<?xml version="1.0" encoding="utf-8"?>
<!-- Generator: Adobe Illustrator 22.1.0, SVG Export Plug-In . SVG Version: 6.00 Build 0)  -->
<svg version="1.1" id="Layer_1" xmlns="http://www.w3.org/2000/svg" xmlns:xlink="http://www.w3.org/1999/xlink" x="0px" y="0px"
	 viewBox="0 0 24 24" style="enable-background:new 0 0 24 24;" xml:space="preserve">
<title>database-bug</title>
<g>
	<path d="M9.694,22.408C3.894,21.937,0,19.865,0,17.251v-12c0-2.993,5.159-5.25,12-5.25s12,2.257,12,5.25v3.03
		c0,0.414-0.336,0.75-0.75,0.75s-0.75-0.336-0.75-0.75V7.879c-0.691,0.544-1.607,1.023-2.735,1.427
		c-0.082,0.029-0.167,0.044-0.253,0.044c-0.315,0-0.599-0.2-0.706-0.497c-0.14-0.39,0.063-0.82,0.452-0.959
		c2.03-0.728,3.241-1.716,3.241-2.643c0-1.533-3.739-3.75-10.5-3.75c-6.761,0-10.5,2.217-10.5,3.75s3.739,3.75,10.5,3.75
		c0.414,0,0.75,0.336,0.75,0.75s-0.336,0.75-0.75,0.75c-4.477,0-8.446-1.016-10.5-2.637v3.387c0,1.253,2.342,2.855,6.817,3.495
		c0.409,0.059,0.695,0.44,0.636,0.849c-0.052,0.367-0.371,0.644-0.742,0.644c-0.034,0-0.069-0.002-0.104-0.007
		c-2.903-0.415-5.202-1.241-6.608-2.358v3.377c0,1.468,3.109,3.239,8.311,3.661c0.412,0.034,0.72,0.396,0.687,0.808
		c-0.031,0.387-0.359,0.689-0.747,0.689C9.732,22.41,9.713,22.409,9.694,22.408z"/>
	<path d="M23.25,24.001c-0.165,0-0.328-0.056-0.459-0.157l-1.817-1.408c-0.696,0.933-1.767,1.509-2.938,1.564
		c-0.006,0-0.029,0.001-0.035,0.001L17.967,24c-1.173-0.055-2.244-0.632-2.94-1.564l-1.817,1.408
		c-0.131,0.101-0.294,0.157-0.459,0.157c-0.233,0-0.449-0.106-0.593-0.29c-0.123-0.159-0.177-0.355-0.151-0.554
		s0.126-0.376,0.285-0.498l2.077-1.609c-0.094-0.368-0.133-0.741-0.117-1.115v-0.683h-1.5c-0.414,0-0.75-0.336-0.75-0.75
		s0.336-0.75,0.75-0.75h1.5v-1.217c-0.02-0.444,0.043-0.894,0.186-1.332l-2.135-1.601c-0.16-0.12-0.264-0.296-0.293-0.494
		c-0.028-0.198,0.022-0.396,0.142-0.556c0.141-0.188,0.365-0.3,0.6-0.3c0.163,0,0.319,0.052,0.45,0.15l1.974,1.479
		c0.701-0.831,1.699-1.328,2.792-1.378c0.006,0,0.029-0.001,0.035-0.001l0.033,0.001c1.094,0.051,2.092,0.549,2.792,1.38l1.975-1.48
		c0.131-0.098,0.287-0.15,0.45-0.15c0.235,0,0.459,0.112,0.6,0.301c0.12,0.16,0.17,0.357,0.142,0.556
		c-0.028,0.198-0.132,0.374-0.293,0.494l-2.138,1.603c0.145,0.443,0.208,0.9,0.188,1.363l0,1.184h1.5c0.414,0,0.75,0.336,0.75,0.75
		s-0.336,0.75-0.75,0.75h-1.5v0.708c0.015,0.358-0.024,0.726-0.117,1.09l2.077,1.609c0.158,0.123,0.259,0.3,0.285,0.498
		c0.025,0.199-0.029,0.396-0.151,0.554C23.7,23.895,23.483,24.001,23.25,24.001z M15.992,21.147
		c0.381,0.784,1.145,1.299,2.008,1.352c0.86-0.053,1.622-0.563,2.005-1.34c0.02-0.101,0.06-0.197,0.119-0.281
		c0.097-0.282,0.14-0.577,0.126-0.878c0-0.005,0-2.249,0-2.249h-4.5l0,2.216c-0.014,0.325,0.031,0.629,0.132,0.919
		C15.934,20.963,15.972,21.052,15.992,21.147z M20.247,16.251c-0.019-0.292-0.088-0.568-0.206-0.83
		c-0.002-0.003-0.004-0.005-0.006-0.008c-0.051-0.067-0.089-0.141-0.114-0.221c-0.408-0.698-1.121-1.141-1.921-1.19
		c-0.797,0.049-1.51,0.489-1.918,1.182c-0.025,0.083-0.064,0.159-0.116,0.228c-0.003,0.004-0.007,0.008-0.011,0.013
		c-0.118,0.264-0.186,0.541-0.203,0.825H20.247z"/>
</g>
</svg>
