<?xml version="1.0" encoding="utf-8"?>
<!-- Generator: Adobe Illustrator 22.1.0, SVG Export Plug-In . SVG Version: 6.00 Build 0)  -->
<svg version="1.1" id="Layer_1" xmlns="http://www.w3.org/2000/svg" xmlns:xlink="http://www.w3.org/1999/xlink" x="0px" y="0px"
	 viewBox="0 0 24 24" style="enable-background:new 0 0 24 24;" xml:space="preserve">
<title>database-check</title>
<g>
	<path d="M8.985,22.337c-0.027,0-0.054-0.001-0.081-0.004C3.494,21.732,0,19.738,0,17.251v-12c0-2.993,5.159-5.25,12-5.25
		s12,2.257,12,5.25v5.201c0,0.414-0.336,0.75-0.75,0.75s-0.75-0.336-0.75-0.75V7.87c-0.517,0.41-1.159,0.783-1.918,1.113
		c-0.094,0.041-0.195,0.062-0.299,0.062c-0.299,0-0.569-0.177-0.688-0.451c-0.08-0.183-0.083-0.387-0.01-0.574
		c0.073-0.186,0.215-0.333,0.398-0.413C21.583,6.912,22.5,6.053,22.5,5.251c0-1.533-3.739-3.75-10.5-3.75
		c-6.761,0-10.5,2.217-10.5,3.75s3.739,3.75,10.5,3.75c0.414,0,0.75,0.336,0.75,0.75s-0.336,0.75-0.75,0.75
		c-4.477,0-8.446-1.016-10.5-2.637v3.387c0,1.257,2.353,2.863,6.849,3.5c0.198,0.028,0.374,0.132,0.494,0.292
		c0.12,0.16,0.171,0.358,0.143,0.556c-0.052,0.368-0.371,0.645-0.742,0.645c-0.034,0-0.069-0.002-0.104-0.007
		c-2.918-0.414-5.23-1.241-6.641-2.362v3.376c0,1.334,2.652,3.045,7.568,3.59c0.411,0.046,0.708,0.417,0.663,0.828
		C9.688,22.05,9.368,22.337,8.985,22.337z"/>
	<path d="M17.25,24.001c-3.722,0-6.75-3.028-6.75-6.75s3.028-6.75,6.75-6.75S24,13.529,24,17.251S20.972,24.001,17.25,24.001z
		 M17.25,12.001c-2.895,0-5.25,2.355-5.25,5.25s2.355,5.25,5.25,5.25s5.25-2.355,5.25-5.25S20.145,12.001,17.25,12.001z"/>
	<path d="M16.416,20.43c-0.326,0-0.638-0.104-0.9-0.302c-0.054-0.04-0.108-0.087-0.159-0.138l-1.5-1.5
		c-0.142-0.142-0.22-0.33-0.22-0.53s0.078-0.389,0.22-0.53s0.33-0.22,0.53-0.22s0.389,0.078,0.53,0.22l1.5,1.5l2.906-3.874
		c0.141-0.188,0.365-0.3,0.6-0.3c0.163,0,0.318,0.052,0.449,0.149c0.331,0.249,0.399,0.72,0.151,1.051l-2.905,3.874
		c-0.242,0.321-0.593,0.528-0.99,0.585C16.558,20.425,16.487,20.43,16.416,20.43z"/>
</g>
</svg>
