<?xml version="1.0" encoding="utf-8"?>
<!-- Generator: Adobe Illustrator 22.1.0, SVG Export Plug-In . SVG Version: 6.00 Build 0)  -->
<svg version="1.1" id="Layer_1" xmlns="http://www.w3.org/2000/svg" xmlns:xlink="http://www.w3.org/1999/xlink" x="0px" y="0px"
	 viewBox="0 0 24 24" style="enable-background:new 0 0 24 24;" xml:space="preserve">
<title>database</title>
<g>
	<path d="M6,24.001c-0.414,0-0.75-0.336-0.75-0.75s0.336-0.75,0.75-0.75h5.25V19.49C4.811,19.328,0,17.103,0,14.251v-9
		c0-2.993,5.159-5.25,12-5.25s12,2.257,12,5.25v9c0,2.852-4.811,5.077-11.25,5.239v3.011H18c0.414,0,0.75,0.336,0.75,0.75
		s-0.336,0.75-0.75,0.75H6z M1.5,14.251c0,1.533,3.739,3.75,10.5,3.75c6.761,0,10.5-2.217,10.5-3.75v-1.887
		c-2.053,1.622-6.023,2.637-10.5,2.637c-4.477,0-8.446-1.016-10.5-2.637V14.251z M1.5,9.751c0,1.533,3.739,3.75,10.5,3.75
		c6.761,0,10.5-2.217,10.5-3.75V7.864c-2.053,1.621-6.023,2.637-10.5,2.637c-4.477,0-8.446-1.016-10.5-2.637V9.751z M12,1.501
		c-6.761,0-10.5,2.217-10.5,3.75s3.739,3.75,10.5,3.75c6.761,0,10.5-2.217,10.5-3.75S18.761,1.501,12,1.501z"/>
	<circle cx="21.375" cy="22.875" r="1.125"/>
	<path d="M2.625,24C2.005,24,1.5,23.495,1.5,22.875c0-0.603,0.47-1.093,1.072-1.122c0.017-0.002,0.035-0.003,0.053-0.003
		c0.025,0,0.05,0.001,0.074,0.004c0.582,0.029,1.051,0.522,1.051,1.122C3.748,23.496,3.244,24,2.625,24z"/>
</g>
</svg>
