<?xml version="1.0" encoding="utf-8"?>
<!-- Generator: Adobe Illustrator 22.1.0, SVG Export Plug-In . SVG Version: 6.00 Build 0)  -->
<svg version="1.1" id="Layer_1" xmlns="http://www.w3.org/2000/svg" xmlns:xlink="http://www.w3.org/1999/xlink" x="0px" y="0px"
	 viewBox="0 0 24 24" style="enable-background:new 0 0 24 24;" xml:space="preserve">
<title>database-disable</title>
<g>
	<path d="M8.201,22.238c-0.036,0-0.072-0.002-0.109-0.008C3.101,21.513,0,19.605,0,17.251v-12c0-2.993,5.159-5.25,12-5.25
		c6.841,0,12,2.257,12,5.25v5.25c0,0.414-0.336,0.75-0.75,0.75s-0.75-0.336-0.75-0.75v-2.63c-0.525,0.416-1.179,0.794-1.953,1.128
		C20.452,9.039,20.353,9.06,20.25,9.06c-0.3,0-0.571-0.178-0.689-0.453c-0.079-0.183-0.082-0.387-0.008-0.574
		c0.074-0.186,0.216-0.332,0.4-0.412c1.619-0.698,2.547-1.562,2.547-2.37c0-1.533-3.739-3.75-10.5-3.75S1.5,3.718,1.5,5.251
		s3.739,3.75,10.5,3.75c0.413,0,0.75,0.336,0.75,0.75s-0.336,0.75-0.75,0.75c-4.477,0-8.446-1.016-10.5-2.637v3.387
		c0,1.26,2.36,2.869,6.87,3.503c0.198,0.028,0.374,0.131,0.495,0.292c0.12,0.16,0.172,0.357,0.144,0.556
		c-0.052,0.368-0.371,0.646-0.742,0.646c-0.034,0-0.069-0.002-0.104-0.007C5.233,15.828,2.914,15,1.5,13.876v3.375
		c0,1.251,2.338,2.853,6.807,3.495c0.198,0.028,0.374,0.132,0.494,0.293c0.12,0.16,0.171,0.358,0.142,0.556
		C8.89,21.961,8.571,22.238,8.201,22.238z"/>
	<path d="M17.251,24.001c-1.789,0-3.474-0.694-4.747-1.956c-0.009-0.007-0.017-0.015-0.025-0.023s-0.016-0.016-0.023-0.025
		c-1.261-1.274-1.955-2.958-1.955-4.746c0-3.722,3.028-6.75,6.75-6.75c1.785,0,3.467,0.692,4.74,1.949
		c0.011,0.009,0.022,0.019,0.032,0.028c0.009,0.009,0.018,0.02,0.027,0.03c1.259,1.274,1.952,2.957,1.952,4.743
		C24.001,20.973,20.973,24.001,17.251,24.001z M14.109,21.452c0.906,0.679,2.007,1.049,3.142,1.049c2.895,0,5.25-2.355,5.25-5.25
		c0-1.135-0.37-2.237-1.049-3.142L14.109,21.452z M17.251,12.001c-2.895,0-5.25,2.355-5.25,5.25c0,1.135,0.37,2.235,1.048,3.141
		l7.343-7.343C19.486,12.37,18.386,12.001,17.251,12.001z"/>
</g>
</svg>
