<?xml version="1.0" encoding="utf-8"?>
<!-- Generator: Adobe Illustrator 22.1.0, SVG Export Plug-In . SVG Version: 6.00 Build 0)  -->
<svg version="1.1" id="Layer_1" xmlns="http://www.w3.org/2000/svg" xmlns:xlink="http://www.w3.org/1999/xlink" x="0px" y="0px"
	 viewBox="0 0 24 24" style="enable-background:new 0 0 24 24;" xml:space="preserve">
<title>database-upload</title>
<g>
	<path d="M9.675,22.407C3.886,21.932,0,19.861,0,17.251v-12c0-2.993,5.159-5.25,12-5.25s12,2.257,12,5.25v5.228
		c0,0.414-0.336,0.75-0.75,0.75s-0.75-0.336-0.75-0.75V7.877c-0.676,0.532-1.566,1.002-2.66,1.402
		c-0.083,0.03-0.169,0.046-0.257,0.046c-0.313,0-0.596-0.198-0.704-0.492c-0.069-0.189-0.06-0.392,0.024-0.574
		s0.235-0.32,0.423-0.388c1.988-0.727,3.174-1.706,3.174-2.62c0-1.533-3.739-3.75-10.5-3.75c-6.761,0-10.5,2.217-10.5,3.75
		s3.739,3.75,10.5,3.75c0.414,0,0.75,0.336,0.75,0.75s-0.336,0.75-0.75,0.75c-4.477,0-8.446-1.016-10.5-2.637v3.387
		c0,1.259,2.357,2.865,6.861,3.501C8.77,14.81,9.056,15.19,8.999,15.6c-0.052,0.368-0.371,0.645-0.742,0.645
		c-0.034,0-0.069-0.002-0.104-0.007c-2.924-0.413-5.24-1.24-6.652-2.363v3.376c0,1.465,3.102,3.235,8.293,3.66
		c0.2,0.016,0.381,0.109,0.511,0.262c0.13,0.153,0.192,0.347,0.176,0.546c-0.032,0.386-0.36,0.689-0.747,0.689
		C9.714,22.409,9.695,22.408,9.675,22.407z"/>
	<path d="M17.25,24.001c-3.722,0-6.75-3.028-6.75-6.75s3.028-6.75,6.75-6.75S24,13.529,24,17.251S20.972,24.001,17.25,24.001z
		 M17.25,12.001c-2.895,0-5.25,2.355-5.25,5.25s2.355,5.25,5.25,5.25s5.25-2.355,5.25-5.25S20.145,12.001,17.25,12.001z"/>
	<path d="M17.25,21.001c-0.414,0-0.75-0.336-0.75-0.75v-4.189l-0.97,0.97c-0.142,0.142-0.33,0.22-0.53,0.22s-0.389-0.078-0.53-0.22
		c-0.292-0.292-0.292-0.768,0-1.061l2.25-2.25c0.07-0.07,0.152-0.125,0.245-0.163c0.008-0.003,0.017-0.007,0.026-0.01
		c0.082-0.031,0.17-0.047,0.259-0.047c0.087,0,0.174,0.016,0.258,0.046c0.006,0.002,0.011,0.004,0.017,0.006
		c0.104,0.042,0.186,0.097,0.256,0.167l2.25,2.25c0.292,0.292,0.292,0.768,0,1.061c-0.142,0.142-0.33,0.22-0.53,0.22
		s-0.389-0.078-0.53-0.22L18,16.062v4.189C18,20.665,17.664,21.001,17.25,21.001z"/>
</g>
</svg>
