<?xml version="1.0" encoding="utf-8"?>
<!-- Generator: Adobe Illustrator 22.1.0, SVG Export Plug-In . SVG Version: 6.00 Build 0)  -->
<svg version="1.1" id="Layer_1" xmlns="http://www.w3.org/2000/svg" xmlns:xlink="http://www.w3.org/1999/xlink" x="0px" y="0px"
	 viewBox="0 0 24 24" style="enable-background:new 0 0 24 24;" xml:space="preserve">
<title>database-hierarchy</title>
<g>
	<path d="M19.5,24c-2.523,0-4.5-1.318-4.5-3v-0.438L12.339,17.9c-1.231,1.008-3.283,1.601-5.589,1.601
		c-3.848,0-6.75-1.612-6.75-3.75v-9c0-2.138,2.902-3.75,6.75-3.75s6.75,1.612,6.75,3.75V7.94l1.5-1.5c0,0,0-3.45,0-3.455
		c0.013-1.675,1.986-2.984,4.5-2.984c2.514,0,4.488,1.31,4.5,2.985C24,2.99,24,7.5,24,7.5c0,1.682-1.977,3-4.5,3
		c-2.061,0-3.764-0.877-4.311-2.128L13.5,10.061v5.689c0,0.333-0.073,0.659-0.216,0.973L15,18.44c0,0,0-1.954,0-1.961
		c0.018-1.672,1.99-2.978,4.5-2.978c2.51,0,4.482,1.307,4.5,2.978C24,16.486,24,21,24,21C24,22.682,22.023,24,19.5,24z M16.5,21
		c0,0.708,1.283,1.5,3,1.5s3-0.792,3-1.5v-2.24c-0.808,0.476-1.861,0.741-3,0.741s-2.192-0.264-3-0.741V21z M19.5,15.001
		c-1.717,0-3,0.792-3,1.5s1.283,1.5,3,1.5s3-0.792,3-1.5S21.217,15.001,19.5,15.001z M1.5,15.751c0,1.062,2.245,2.25,5.25,2.25
		c2.235,0,4.297-0.674,5.018-1.638c0.004-0.006,0.009-0.012,0.013-0.018c0.145-0.2,0.219-0.4,0.219-0.594v-2.098
		c-1.25,0.854-3.142,1.348-5.25,1.348s-4-0.494-5.25-1.348V15.751z M1.5,11.251c0,1.062,2.245,2.25,5.25,2.25S12,12.313,12,11.251
		V9.153c-1.25,0.854-3.142,1.348-5.25,1.348s-4-0.494-5.25-1.348V11.251z M6.75,4.501c-3.005,0-5.25,1.188-5.25,2.25
		s2.245,2.25,5.25,2.25S12,7.813,12,6.751S9.755,4.501,6.75,4.501z M16.5,7.5c0,0.708,1.283,1.5,3,1.5s3-0.792,3-1.5V5.26
		c-0.808,0.476-1.861,0.741-3,0.741s-2.192-0.264-3-0.741V7.5z M19.5,1.501c-1.717,0-3,0.792-3,1.5s1.283,1.5,3,1.5s3-0.792,3-1.5
		S21.217,1.501,19.5,1.501z"/>
</g>
</svg>
