<?xml version="1.0" encoding="utf-8"?>
<!-- Generator: Adobe Illustrator 22.1.0, SVG Export Plug-In . SVG Version: 6.00 Build 0)  -->
<svg version="1.1" id="Layer_1" xmlns="http://www.w3.org/2000/svg" xmlns:xlink="http://www.w3.org/1999/xlink" x="0px" y="0px"
	 viewBox="0 0 24 24" style="enable-background:new 0 0 24 24;" xml:space="preserve">
<title>database-share_1</title>
<g>
	<path d="M9.638,22.399C3.871,21.925,0,19.856,0,17.251v-12c0-2.993,5.159-5.25,12-5.25s12,2.257,12,5.25s-5.159,5.25-12,5.25
		c-4.477,0-8.446-1.016-10.5-2.637v3.387c0,1.257,2.35,2.862,6.842,3.499c0.409,0.058,0.695,0.438,0.637,0.848
		c-0.052,0.368-0.371,0.645-0.742,0.645c-0.034,0-0.069-0.002-0.104-0.007c-2.915-0.414-5.224-1.24-6.634-2.36v3.375
		c0,1.462,3.088,3.228,8.256,3.652c0.412,0.034,0.72,0.397,0.686,0.809c-0.032,0.386-0.36,0.688-0.747,0.688
		C9.677,22.401,9.657,22.4,9.638,22.399z M12,1.501c-6.761,0-10.5,2.217-10.5,3.75s3.739,3.75,10.5,3.75
		c6.761,0,10.5-2.217,10.5-3.75S18.761,1.501,12,1.501z"/>
	<path d="M20.999,24.001c-1.654,0-3-1.346-3-3c0-0.125,0.009-0.253,0.026-0.382l-2.111-0.845c-0.562,0.763-1.461,1.226-2.415,1.226
		c-1.654,0-3-1.346-3-3s1.346-3,3-3c0.793,0,1.544,0.311,2.103,0.863l2.52-1.512c-0.082-0.275-0.123-0.56-0.123-0.851
		c0-1.654,1.346-3,3-3s3,1.346,3,3c0,1.654-1.346,3-3,3c-0.794,0-1.544-0.311-2.104-0.864l-2.52,1.511
		c0.082,0.276,0.123,0.561,0.123,0.852c0,0.125-0.009,0.253-0.026,0.382l2.111,0.845c0.562-0.763,1.461-1.226,2.415-1.226
		c1.654,0,3,1.346,3,3S22.653,24.001,20.999,24.001z M20.999,19.501c-0.827,0-1.5,0.673-1.5,1.5s0.673,1.5,1.5,1.5
		s1.5-0.673,1.5-1.5S21.826,19.501,20.999,19.501z M13.499,16.501c-0.827,0-1.5,0.673-1.5,1.5s0.673,1.5,1.5,1.5
		c0.615,0,1.161-0.371,1.392-0.944c0.072-0.179,0.108-0.366,0.108-0.556c0-0.253-0.066-0.505-0.191-0.729
		c-0.009-0.012-0.018-0.024-0.026-0.037c-0.006-0.01-0.015-0.028-0.023-0.043C14.48,16.759,14.01,16.501,13.499,16.501z
		 M19.732,14.3c0.269,0.434,0.745,0.701,1.267,0.701c0.827,0,1.5-0.673,1.5-1.5s-0.673-1.5-1.5-1.5s-1.5,0.673-1.5,1.5
		c0,0.259,0.069,0.515,0.199,0.743c0.007,0.009,0.013,0.019,0.018,0.027C19.721,14.279,19.727,14.29,19.732,14.3z"/>
</g>
</svg>
