<?xml version="1.0" encoding="utf-8"?>
<!-- Generator: Adobe Illustrator 22.1.0, SVG Export Plug-In . SVG Version: 6.00 Build 0)  -->
<svg version="1.1" id="Layer_1" xmlns="http://www.w3.org/2000/svg" xmlns:xlink="http://www.w3.org/1999/xlink" x="0px" y="0px"
	 viewBox="0 0 24 24" style="enable-background:new 0 0 24 24;" xml:space="preserve">
<title>webcam</title>
<g>
	<path d="M21,24c-0.223,0-0.434-0.098-0.576-0.27l-3.363-4.034C15.514,20.55,13.771,21,12,21c-1.771,0-3.514-0.45-5.061-1.305
		L3.576,23.73C3.433,23.902,3.223,24,3,24c-0.175,0-0.345-0.062-0.48-0.174c-0.154-0.128-0.249-0.309-0.267-0.509
		c-0.018-0.2,0.043-0.394,0.171-0.548l3.249-3.898C3.052,16.887,1.5,13.787,1.5,10.5C1.5,4.71,6.21,0,12,0
		c5.79,0,10.5,4.71,10.5,10.5c0,3.287-1.552,6.387-4.173,8.372l3.249,3.898c0.128,0.154,0.189,0.348,0.171,0.548
		c-0.018,0.2-0.113,0.38-0.267,0.508C21.345,23.938,21.175,24,21,24z M12,1.5c-4.963,0-9,4.037-9,9s4.037,9,9,9s9-4.037,9-9
		S16.963,1.5,12,1.5z"/>
	<path d="M12,15c-2.481,0-4.5-2.019-4.5-4.5C7.5,8.019,9.519,6,12,6c2.481,0,4.5,2.019,4.5,4.5C16.5,12.981,14.481,15,12,15z
		 M12,7.5c-1.654,0-3,1.346-3,3s1.346,3,3,3c1.654,0,3-1.346,3-3S13.654,7.5,12,7.5z"/>
	<circle cx="12" cy="3.75" r="1.125"/>
</g>
</svg>
