<svg xmlns="http://www.w3.org/2000/svg" viewBox="0 0 24 24"><defs><style>.a{fill:none;stroke:currentColor;stroke-linecap:round;stroke-linejoin:round;stroke-width:1.5px;}</style></defs><title>mask-star</title><rect class="a" x="0.75" y="0.75" width="22.5" height="22.5" rx="1" ry="1"/><path class="a" d="M12.971,4.367,15.087,9H19.2a1.059,1.059,0,0,1,.712,1.839l-3.574,3.1,1.98,4.749A1.1,1.1,0,0,1,16.786,20.1L12,17.287,7.215,20.1A1.1,1.1,0,0,1,5.679,18.69l1.98-4.749-3.574-3.1A1.058,1.058,0,0,1,4.793,9H8.91l2.12-4.633A1.072,1.072,0,0,1,12.971,4.367Z"/></svg>