<?xml version="1.0" encoding="utf-8"?>
<!-- Generator: Adobe Illustrator 22.1.0, SVG Export Plug-In . SVG Version: 6.00 Build 0)  -->
<svg version="1.1" id="Light" xmlns="http://www.w3.org/2000/svg" xmlns:xlink="http://www.w3.org/1999/xlink" x="0px" y="0px"
	 viewBox="0 0 24 24" style="enable-background:new 0 0 24 24;" xml:space="preserve">
<g>
	<title>single-man-shield</title>
	<path d="M12,24.011c-0.427,0-0.847-0.078-1.247-0.231l-1.058-0.399C4.493,21.399,0.999,16.328,1,10.762v-6.5
		C1.001,3.266,1.593,2.366,2.508,1.97c3.004-1.292,6.198-1.946,9.495-1.946s6.491,0.655,9.494,1.946
		C22.412,2.369,23.001,3.27,23,4.265v6.5c0,5.565-3.494,10.635-8.694,12.616l-1.061,0.4C12.846,23.934,12.427,24.011,12,24.011z
		 M12.003,1.024c-3.16,0-6.222,0.627-9.1,1.865C2.356,3.126,2.001,3.665,2,4.263v6.499c-0.001,5.154,3.234,9.849,8.05,11.684
		l1.059,0.399c0.287,0.11,0.587,0.165,0.892,0.165c0.303,0,0.6-0.055,0.883-0.162c0.002-0.001,0.005-0.002,0.008-0.003l1.06-0.4
		C18.765,20.612,22,15.917,22,10.765v-6.5c0.001-0.598-0.353-1.138-0.9-1.377C18.224,1.651,15.163,1.024,12.003,1.024z"/>
	<path d="M6.5,16.514c-0.2,0-0.381-0.119-0.459-0.304c-0.052-0.122-0.054-0.258-0.005-0.382c0.05-0.124,0.144-0.221,0.267-0.274
		l3.197-1.37v-1.402c-0.359-0.296-0.856-0.957-0.934-2.376C8.052,10.16,7.819,9.552,7.819,9.013c0-0.358,0.094-0.699,0.266-0.961
		C8.167,7.927,8.267,7.82,8.38,7.736C8.073,7.145,7.705,6.375,8.117,5.831c0.188-0.248,0.486-0.374,0.888-0.374
		c0.049,0,0.1,0.002,0.152,0.005c0.566-1.066,2.07-1.449,3.232-1.449c1.461,0,3.077,0.582,3.396,1.881
		c0.121,0.646,0.042,1.305-0.22,1.888c0.266,0.245,0.415,0.639,0.415,1.118c0,0.54-0.193,1.17-0.621,1.459
		c-0.063,1.454-0.525,2.12-0.859,2.414v1.41l3.197,1.37c0.123,0.052,0.218,0.15,0.267,0.274c0.05,0.124,0.048,0.26-0.005,0.383
		c-0.078,0.184-0.259,0.303-0.459,0.303c-0.069,0-0.135-0.014-0.198-0.041l-3.499-1.5c-0.184-0.079-0.303-0.259-0.303-0.459v-2
		c0-0.198,0.114-0.374,0.293-0.455c0.049-0.034,0.573-0.432,0.573-2.045c0-0.258,0.196-0.471,0.448-0.497
		c0.058-0.069,0.166-0.302,0.166-0.616c0-0.187-0.048-0.386-0.12-0.386c-0.188,0-0.358-0.104-0.444-0.27
		c-0.086-0.168-0.072-0.366,0.036-0.519c0.331-0.467,0.46-1.057,0.356-1.62c-0.175-0.711-1.351-1.091-2.419-1.091
		c-1.069,0-2.245,0.384-2.426,1.119C9.907,6.357,9.708,6.513,9.477,6.513c-0.034,0-0.068-0.004-0.102-0.01
		C9.227,6.472,9.101,6.457,9.001,6.457c-0.028,0-0.05,0.001-0.068,0.003c0.015,0.11,0.094,0.355,0.381,0.904
		c0.156,0.298,0.241,0.463,0.241,0.649c0,0.276-0.224,0.5-0.5,0.5c-0.041,0-0.081,0.007-0.133,0.086
		C8.858,8.698,8.819,8.852,8.819,9.013c0,0.157,0.059,0.5,0.236,0.5c0.276,0,0.5,0.224,0.5,0.5c0,1.7,0.629,2.035,0.636,2.038
		c0.178,0.065,0.309,0.254,0.309,0.462v2c0,0.2-0.119,0.381-0.303,0.46l-3.5,1.5C6.635,16.5,6.568,16.514,6.5,16.514z"/>
</g>
</svg>
