<?xml version="1.0" encoding="utf-8"?>
<!-- Generator: Adobe Illustrator 22.1.0, SVG Export Plug-In . SVG Version: 6.00 Build 0)  -->
<svg version="1.1" id="Light" xmlns="http://www.w3.org/2000/svg" xmlns:xlink="http://www.w3.org/1999/xlink" x="0px" y="0px"
	 viewBox="0 0 24 24" style="enable-background:new 0 0 24 24;" xml:space="preserve">
<g>
	<title>single-man-book</title>
	<path d="M5,24c-1.379,0-2.5-1.122-2.5-2.5V2c0-1.103,0.897-2,2-2H20c0.276,0,0.5,0.224,0.5,0.5S20.276,1,20,1H4.5
		c-0.551,0-1,0.449-1,1s0.449,1,1,1h16c0.552,0,1,0.449,1,1v19c0,0.552-0.448,1-1,1H5z M3.5,21.5C3.5,22.327,4.173,23,5,23h15.5V4
		h-16c-0.357,0-0.699-0.093-1-0.267V21.5z"/>
	<path d="M6.5,19c-0.2,0-0.381-0.119-0.459-0.304c-0.052-0.122-0.054-0.258-0.005-0.382c0.05-0.124,0.144-0.221,0.267-0.274
		L9.5,16.67v-1.402c-0.359-0.296-0.856-0.957-0.934-2.376c-0.514-0.245-0.746-0.854-0.746-1.392c0-0.358,0.094-0.699,0.266-0.961
		c0.082-0.125,0.182-0.232,0.295-0.317C8.073,9.631,7.706,8.861,8.117,8.318c0.188-0.248,0.486-0.374,0.886-0.374
		c0.049,0,0.1,0.002,0.153,0.006C9.723,6.884,11.226,6.5,12.388,6.5c1.461,0,3.077,0.582,3.396,1.881
		c0.121,0.646,0.042,1.305-0.22,1.888c0.266,0.245,0.415,0.639,0.415,1.118c0,0.54-0.193,1.17-0.621,1.459
		c-0.063,1.454-0.525,2.12-0.859,2.414v1.41l3.197,1.37c0.123,0.052,0.218,0.15,0.267,0.274c0.05,0.124,0.048,0.26-0.005,0.383
		C17.881,18.881,17.701,19,17.5,19c-0.069,0-0.135-0.014-0.198-0.041l-3.499-1.5C13.619,17.381,13.5,17.2,13.5,17v-2
		c0-0.198,0.114-0.374,0.293-0.455c0.049-0.034,0.573-0.432,0.573-2.045c0-0.258,0.196-0.471,0.448-0.497
		c0.058-0.069,0.166-0.302,0.166-0.616c0-0.187-0.048-0.386-0.12-0.386c-0.188,0-0.358-0.104-0.444-0.27
		c-0.086-0.168-0.072-0.366,0.036-0.519c0.331-0.467,0.46-1.057,0.356-1.62C14.632,7.88,13.457,7.5,12.388,7.5
		c-1.069,0-2.245,0.384-2.426,1.119C9.907,8.843,9.707,9,9.476,9c-0.034,0-0.067-0.003-0.1-0.01
		C9.227,8.959,9.101,8.943,9.001,8.943c-0.028,0-0.05,0.001-0.068,0.003c0.015,0.11,0.094,0.355,0.381,0.904
		c0.156,0.299,0.242,0.463,0.242,0.65c0,0.276-0.224,0.5-0.5,0.5c-0.041,0-0.081,0.007-0.133,0.086
		c-0.064,0.098-0.102,0.253-0.102,0.414c0,0.157,0.059,0.5,0.236,0.5c0.276,0,0.5,0.224,0.5,0.5c0,1.694,0.637,2.038,0.644,2.042
		C10.375,14.616,10.5,14.802,10.5,15v2c0,0.2-0.119,0.381-0.303,0.46l-3.5,1.5C6.635,18.987,6.568,19,6.5,19z"/>
</g>
</svg>
