<?xml version="1.0" encoding="utf-8"?>
<!-- Generator: Adobe Illustrator 22.1.0, SVG Export Plug-In . SVG Version: 6.00 Build 0)  -->
<svg version="1.1" id="Layer_1" xmlns="http://www.w3.org/2000/svg" xmlns:xlink="http://www.w3.org/1999/xlink" x="0px" y="0px"
	 viewBox="0 0 24 24" style="enable-background:new 0 0 24 24;" xml:space="preserve">
<g>
	<title>turntable</title>
	<path d="M4.5,24C3.121,24,2,22.878,2,21.5v-19C2,1.121,3.121,0,4.5,0h15C20.878,0,22,1.121,22,2.5v19c0,1.378-1.122,2.5-2.5,2.5
		H4.5z M4.5,1C3.673,1,3,1.673,3,2.5v19C3,22.327,3.673,23,4.5,23h15c0.827,0,1.5-0.673,1.5-1.5v-19C21,1.673,20.327,1,19.5,1H4.5z"
		/>
	<path d="M6.5,22C5.673,22,5,21.327,5,20.5v-3c0-0.055,0.01-0.11,0.031-0.168c0.002-0.007,0.012-0.031,0.015-0.038
		c0.02-0.046,0.048-0.089,0.082-0.127c0.003-0.004,0.007-0.008,0.01-0.012l2.065-2.065C5.8,13.768,5,11.927,5,10c0-3.86,3.14-7,7-7
		s7,3.14,7,7s-3.14,7-7,7c-1.453,0-2.838-0.439-4.02-1.273l-1.598,1.598l4.757,1.982C11.662,19.525,12,20.033,12,20.6
		c0,0.772-0.628,1.4-1.4,1.4H6.5z M6,20.5C6,20.776,6.224,21,6.5,21h4.1c0.221,0,0.4-0.179,0.4-0.4c0-0.162-0.097-0.307-0.246-0.37
		L6,18.25V20.5z M8.7,15.007C9.681,15.658,10.816,16,12,16c3.308,0,6-2.692,6-6s-2.692-6-6-6s-6,2.692-6,6
		c0,1.663,0.693,3.248,1.91,4.383l0.737-0.737C8.741,13.552,8.866,13.5,9,13.5s0.259,0.052,0.354,0.146S9.5,13.866,9.5,14
		s-0.052,0.259-0.146,0.354L8.7,15.007z"/>
	<path d="M18.25,21c-0.414,0-0.75-0.336-0.75-0.75c0-0.391,0.305-0.718,0.696-0.746c0.003,0,0.006-0.001,0.008-0.001
		c0.017-0.002,0.031-0.003,0.046-0.003c0.414,0,0.75,0.336,0.75,0.75S18.664,21,18.25,21z"/>
	<path d="M12,12c-1.103,0-2-0.897-2-2s0.897-2,2-2s2,0.897,2,2S13.103,12,12,12z M12,9c-0.551,0-1,0.449-1,1s0.449,1,1,1
		c0.552,0,1-0.449,1-1S12.552,9,12,9z"/>
</g>
</svg>
