<?xml version="1.0" encoding="utf-8"?>
<!-- Generator: Adobe Illustrator 22.1.0, SVG Export Plug-In . SVG Version: 6.00 Build 0)  -->
<svg version="1.1" id="Layer_1" xmlns="http://www.w3.org/2000/svg" xmlns:xlink="http://www.w3.org/1999/xlink" x="0px" y="0px"
	 viewBox="0 0 24 24" style="enable-background:new 0 0 24 24;" xml:space="preserve">
<g>
	<title>hash</title>
	<path d="M13.521,23.998c-0.028,0-0.056-0.002-0.084-0.007c-0.273-0.048-0.456-0.307-0.409-0.579l1.293-7.414H8.336l-1.323,7.586
		c-0.042,0.24-0.249,0.414-0.492,0.414c-0.028,0-0.056-0.002-0.085-0.007c-0.133-0.023-0.248-0.096-0.325-0.205
		s-0.106-0.242-0.084-0.374l1.293-7.414H0.5c-0.276,0-0.5-0.224-0.5-0.5s0.224-0.5,0.5-0.5h6.995l1.046-6H2.5
		c-0.276,0-0.5-0.224-0.5-0.5s0.224-0.5,0.5-0.5h6.216l1.323-7.586c0.042-0.24,0.25-0.414,0.494-0.414
		c0.027,0,0.055,0.002,0.082,0.007c0.274,0.048,0.457,0.307,0.409,0.579L9.731,7.998h5.985l1.323-7.586
		c0.042-0.24,0.249-0.414,0.493-0.414c0.028,0,0.056,0.002,0.084,0.007c0.273,0.048,0.455,0.307,0.408,0.579l-1.293,7.414H23.5
		c0.276,0,0.5,0.224,0.5,0.5s-0.224,0.5-0.5,0.5h-6.943l-1.046,6h5.99c0.276,0,0.5,0.224,0.5,0.5s-0.224,0.5-0.5,0.5h-6.164
		l-1.323,7.586C13.972,23.824,13.765,23.998,13.521,23.998z M14.495,14.998l1.046-6H9.557l-1.046,6H14.495z"/>
</g>
</svg>
