<?xml version="1.0" encoding="utf-8"?>
<!-- Generator: Adobe Illustrator 22.1.0, SVG Export Plug-In . SVG Version: 6.00 Build 0)  -->
<svg version="1.1" id="Layer_1" xmlns="http://www.w3.org/2000/svg" xmlns:xlink="http://www.w3.org/1999/xlink" x="0px" y="0px"
	 viewBox="0 0 24 24" style="enable-background:new 0 0 24 24;" xml:space="preserve">
<g>
	<title>text-input-area</title>
	<path d="M16,24c-1.694,0-3.235-0.96-4-2.439C11.235,23.04,9.693,24,8,24H6.5C6.224,24,6,23.776,6,23.5S6.224,23,6.5,23H8
		c1.93,0,3.5-1.57,3.5-3.5c0,0,0-3.502,0-3.502h-2c-0.276,0-0.5-0.224-0.5-0.5s0.224-0.5,0.5-0.5h2V4.5C11.5,2.57,9.93,1,8,1H6.5
		C6.224,1,6,0.776,6,0.5S6.224,0,6.5,0H8c1.693,0,3.235,0.96,4,2.439C12.765,0.96,14.306,0,16,0h1.5C17.776,0,18,0.224,18,0.5
		S17.776,1,17.5,1H16c-1.93,0-3.5,1.57-3.5,3.5v10.498h2c0.276,0,0.5,0.224,0.5,0.5s-0.224,0.5-0.5,0.5h-2c0,0,0,3.502,0,3.502
		c0,1.93,1.57,3.5,3.5,3.5h1.5c0.276,0,0.5,0.224,0.5,0.5S17.776,24,17.5,24H16z"/>
	<path d="M1,14.998c-0.276,0-0.5-0.224-0.5-0.5v-2c0-0.276,0.224-0.5,0.5-0.5s0.5,0.224,0.5,0.5v2C1.5,14.774,1.276,14.998,1,14.998
		z"/>
	<path d="M1,10c-0.276,0-0.5-0.224-0.5-0.5C0.5,8.673,1.173,8,2,8c0.276,0,0.5,0.224,0.5,0.5S2.276,9,2,9S1.5,9.224,1.5,9.5
		S1.276,10,1,10z"/>
	<path d="M4,8.998c-0.276,0-0.5-0.224-0.5-0.5s0.224-0.5,0.5-0.5h2c0.276,0,0.5,0.224,0.5,0.5s-0.224,0.5-0.5,0.5H4z"/>
	<path d="M8,8.998c-0.276,0-0.5-0.224-0.5-0.5s0.224-0.5,0.5-0.5h2c0.276,0,0.5,0.224,0.5,0.5s-0.224,0.5-0.5,0.5H8z"/>
	<path d="M2,19c-0.827,0-1.5-0.673-1.5-1.5C0.5,17.224,0.724,17,1,17s0.5,0.224,0.5,0.5S1.724,18,2,18s0.5,0.224,0.5,0.5
		S2.276,19,2,19z"/>
	<path d="M4,18.998c-0.276,0-0.5-0.224-0.5-0.5s0.224-0.5,0.5-0.5h2c0.276,0,0.5,0.224,0.5,0.5s-0.224,0.5-0.5,0.5H4z"/>
	<path d="M8,18.998c-0.276,0-0.5-0.224-0.5-0.5s0.224-0.5,0.5-0.5h2c0.276,0,0.5,0.224,0.5,0.5s-0.224,0.5-0.5,0.5H8z"/>
	<path d="M23,14.998c-0.276,0-0.5-0.224-0.5-0.5v-2c0-0.276,0.224-0.5,0.5-0.5s0.5,0.224,0.5,0.5v2
		C23.5,14.774,23.276,14.998,23,14.998z"/>
	<path d="M23,10c-0.276,0-0.5-0.224-0.5-0.5S22.276,9,22,9s-0.5-0.224-0.5-0.5S21.724,8,22,8c0.827,0,1.5,0.673,1.5,1.5
		C23.5,9.776,23.276,10,23,10z"/>
	<path d="M18,8.998c-0.276,0-0.5-0.224-0.5-0.5s0.224-0.5,0.5-0.5h2c0.276,0,0.5,0.224,0.5,0.5s-0.224,0.5-0.5,0.5H18z"/>
	<path d="M14,8.998c-0.276,0-0.5-0.224-0.5-0.5s0.224-0.5,0.5-0.5h2c0.276,0,0.5,0.224,0.5,0.5s-0.224,0.5-0.5,0.5H14z"/>
	<path d="M22,19c-0.276,0-0.5-0.224-0.5-0.5S21.724,18,22,18s0.5-0.224,0.5-0.5S22.724,17,23,17s0.5,0.224,0.5,0.5
		C23.5,18.327,22.827,19,22,19z"/>
	<path d="M18,18.998c-0.276,0-0.5-0.224-0.5-0.5s0.224-0.5,0.5-0.5h2c0.276,0,0.5,0.224,0.5,0.5s-0.224,0.5-0.5,0.5H18z"/>
	<path d="M14,18.998c-0.276,0-0.5-0.224-0.5-0.5s0.224-0.5,0.5-0.5h2c0.276,0,0.5,0.224,0.5,0.5s-0.224,0.5-0.5,0.5H14z"/>
</g>
</svg>
