<?xml version="1.0" encoding="utf-8"?>
<!-- Generator: Adobe Illustrator 22.1.0, SVG Export Plug-In . SVG Version: 6.00 Build 0)  -->
<svg version="1.1" id="Layer_1" xmlns="http://www.w3.org/2000/svg" xmlns:xlink="http://www.w3.org/1999/xlink" x="0px" y="0px"
	 viewBox="0 0 24 24" style="enable-background:new 0 0 24 24;" xml:space="preserve">
<g>
	<title>hand-drag-1</title>
	<path d="M11.165,21C5.509,21,4,16.286,4,13.5v-1C4,11.258,4.687,10,6,10h1V9c0-1.103,0.897-2,2-2c0.403,0,0.786,0.119,1.113,0.339
		C10.388,6.552,11.136,6,12,6c0.864,0,1.612,0.552,1.887,1.339C14.214,7.119,14.597,7,15,7c0.864,0,1.612,0.552,1.887,1.339
		C17.214,8.119,17.597,8,18,8c1.103,0,2,0.897,2,2v5.5c0,3.033-2.467,5.5-5.5,5.5H11.165z M6,11c-0.656,0-1,0.755-1,1.5v1
		c0,0.265,0.07,6.5,6.165,6.5H14.5c2.481,0,4.5-2.019,4.5-4.5V10c0-0.551-0.448-1-1-1s-1,0.449-1,1v1.5c0,0.276-0.224,0.5-0.5,0.5
		S16,11.776,16,11.5V9c0-0.551-0.448-1-1-1s-1,0.449-1,1v1c0,0.276-0.224,0.5-0.5,0.5S13,10.276,13,10V8c0-0.551-0.448-1-1-1
		c-0.551,0-1,0.449-1,1v2c0,0.276-0.224,0.5-0.5,0.5S10,10.276,10,10V9c0-0.551-0.449-1-1-1S8,8.449,8,9v3.5
		C8,12.776,7.776,13,7.5,13S7,12.776,7,12.5V11H6z"/>
</g>
</svg>
