<?xml version="1.0" encoding="utf-8"?>
<!-- Generator: Adobe Illustrator 22.1.0, SVG Export Plug-In . SVG Version: 6.00 Build 0)  -->
<svg version="1.1" id="Layer_1" xmlns="http://www.w3.org/2000/svg" xmlns:xlink="http://www.w3.org/1999/xlink" x="0px" y="0px"
	 viewBox="0 0 24 24" style="enable-background:new 0 0 24 24;" xml:space="preserve">
<g>
	<title>touch-finger-1</title>
	<path d="M15.501,7.997c-0.276,0-0.5-0.224-0.5-0.5s0.224-0.5,0.5-0.5h3c0.276,0,0.5,0.224,0.5,0.5s-0.224,0.5-0.5,0.5H15.501z"/>
	<path d="M14.501,4.997c-0.134,0-0.259-0.052-0.354-0.146s-0.146-0.22-0.146-0.354s0.052-0.259,0.146-0.354l2-2
		c0.094-0.094,0.22-0.146,0.354-0.146s0.259,0.052,0.354,0.146s0.146,0.22,0.146,0.354s-0.052,0.259-0.146,0.354l-2,2
		C14.76,4.945,14.634,4.997,14.501,4.997z"/>
	<path d="M11.501,3.997c-0.276,0-0.5-0.224-0.5-0.5V0.498c0-0.276,0.224-0.5,0.5-0.5s0.5,0.224,0.5,0.5v2.999
		C12.001,3.773,11.777,3.997,11.501,3.997z"/>
	<path d="M7.501,4.997c-0.134,0-0.259-0.052-0.354-0.146l-2-2c-0.094-0.094-0.146-0.22-0.146-0.354s0.052-0.259,0.146-0.354
		s0.22-0.146,0.354-0.146S5.76,2.049,5.854,2.144l2,2c0.094,0.094,0.146,0.22,0.146,0.354S7.949,4.756,7.854,4.851
		S7.634,4.997,7.501,4.997z"/>
	<path d="M3.501,7.997c-0.276,0-0.5-0.224-0.5-0.5s0.224-0.5,0.5-0.5h3c0.276,0,0.5,0.224,0.5,0.5s-0.224,0.5-0.5,0.5H3.501z"/>
	<path d="M19.5,24c-0.276,0-0.5-0.224-0.5-0.5v-3c0-1.93-1.57-3.5-3.5-3.5h-3c-0.276,0-0.5-0.224-0.5-0.5V10c0-0.551-0.448-1-1-1
		s-1,0.449-1,1v9.825c0,0.21-0.133,0.399-0.33,0.47c-0.054,0.02-0.112,0.03-0.169,0.03c-0.149,0-0.29-0.066-0.385-0.18l-2.346-2.825
		c-0.19-0.228-0.471-0.36-0.77-0.36c-0.233,0-0.46,0.082-0.639,0.231c-0.205,0.171-0.332,0.411-0.356,0.678
		c-0.024,0.266,0.056,0.526,0.227,0.731l3.807,4.582c0.085,0.102,0.126,0.232,0.113,0.365c-0.012,0.133-0.076,0.253-0.178,0.339
		C8.883,23.959,8.77,24,8.654,24c-0.149,0-0.289-0.066-0.385-0.181l-3.807-4.581c-0.342-0.41-0.503-0.929-0.454-1.462
		c0.049-0.532,0.302-1.013,0.713-1.355c0.358-0.298,0.812-0.462,1.278-0.462c0.597,0,1.159,0.262,1.539,0.72L9,18.44V10
		c0-1.103,0.897-2,2-2c1.103,0,2,0.897,2,2v6h2.5c2.481,0,4.5,2.019,4.5,4.5v3C20,23.776,19.775,24,19.5,24z"/>
</g>
</svg>
