<?xml version="1.0" encoding="utf-8"?>
<!-- Generator: Adobe Illustrator 22.1.0, SVG Export Plug-In . SVG Version: 6.00 Build 0)  -->
<svg version="1.1" id="Layer_1" xmlns="http://www.w3.org/2000/svg" xmlns:xlink="http://www.w3.org/1999/xlink" x="0px" y="0px"
	 viewBox="0 0 24 24" style="enable-background:new 0 0 24 24;" xml:space="preserve">
<title>dislike</title>
<g>
	<path d="M12,24c-1.654,0-3-1.346-3-3v-3.75c0-0.414-0.336-0.75-0.75-0.75h-3c-1.402,0-2.721-0.546-3.712-1.538
		C0.546,13.97,0,12.652,0,11.25c0-0.175,0.009-0.351,0.026-0.525l0.465-4.649C0.839,2.612,3.727,0,7.208,0h6.2
		c0.627,0,1.251,0.088,1.854,0.26l3.634,1.038C19.365,1.432,19.85,1.5,20.338,1.5h2.91C23.663,1.5,24,1.836,24,2.25v10.5
		c0,0.414-0.336,0.75-0.75,0.75h-1.5c-3.722,0-6.75,3.028-6.75,6.75V21C15,22.654,13.654,24,12,24z M7.208,1.5
		C4.5,1.5,2.254,3.532,1.984,6.226l-0.465,4.649C1.507,10.999,1.5,11.125,1.5,11.25c0,1.002,0.39,1.944,1.098,2.652
		C3.307,14.61,4.248,15,5.25,15h3c1.241,0,2.25,1.009,2.25,2.25V21c0,0.827,0.673,1.5,1.5,1.5c0.827,0,1.5-0.673,1.5-1.5v-0.75
		c0-4.549,3.701-8.25,8.25-8.25h0.75V3h-2.162c-0.627,0-1.251-0.088-1.854-0.26L14.85,1.702C14.381,1.568,13.895,1.5,13.408,1.5
		H7.208z"/>
</g>
</svg>
