<?xml version="1.0" encoding="utf-8"?>
<!-- Generator: Adobe Illustrator 22.1.0, SVG Export Plug-In . SVG Version: 6.00 Build 0)  -->
<svg version="1.1" id="Layer_1" xmlns="http://www.w3.org/2000/svg" xmlns:xlink="http://www.w3.org/1999/xlink" x="0px" y="0px"
	 viewBox="0 0 24 24" style="enable-background:new 0 0 24 24;" xml:space="preserve">
<title>like-shine</title>
<g>
	<path d="M19.5,7.5c-0.414,0-0.75-0.336-0.75-0.75V6H18c-0.414,0-0.75-0.336-0.75-0.75S17.586,4.5,18,4.5h0.75V3.75
		C18.75,3.336,19.086,3,19.5,3s0.75,0.336,0.75,0.75V4.5H21c0.414,0,0.75,0.336,0.75,0.75S21.414,6,21,6h-0.75v0.75
		C20.25,7.164,19.914,7.5,19.5,7.5z"/>
	<path d="M6.75,4.5C6.337,4.5,6,4.164,6,3.75V3H5.25C4.837,3,4.5,2.664,4.5,2.25S4.837,1.5,5.25,1.5H6V0.75C6,0.336,6.337,0,6.75,0
		S7.5,0.336,7.5,0.75V1.5h0.75C8.664,1.5,9,1.836,9,2.25S8.664,3,8.25,3H7.5v0.75C7.5,4.164,7.164,4.5,6.75,4.5z"/>
	<path d="M2.25,9.75C1.837,9.75,1.5,9.414,1.5,9V8.25H0.75C0.337,8.25,0,7.914,0,7.5s0.336-0.75,0.75-0.75H1.5V6
		c0-0.414,0.336-0.75,0.75-0.75S3,5.586,3,6v0.75h0.75c0.414,0,0.75,0.336,0.75,0.75S4.164,8.25,3.75,8.25H3V9
		C3,9.414,2.664,9.75,2.25,9.75z"/>
	<path d="M11.464,24c-1.975,0-2.805-0.477-3.608-0.938C6.838,22.478,5.571,21.75,0.75,21.75C0.337,21.75,0,21.414,0,21
		s0.336-0.75,0.75-0.75c5.221,0,6.68,0.838,7.853,1.511C9.35,22.19,9.889,22.5,11.464,22.5h7.286c0.414,0,0.75-0.336,0.75-0.75
		S19.164,21,18.75,21S18,20.664,18,20.25s0.336-0.75,0.75-0.75h0.75c0.414,0,0.75-0.336,0.75-0.75S19.914,18,19.5,18
		s-0.75-0.336-0.75-0.75s0.336-0.75,0.75-0.75h0.751c0.414,0,0.75-0.336,0.75-0.75S20.665,15,20.251,15s-0.75-0.336-0.75-0.75
		s0.336-0.75,0.75-0.75h1.5c0.414,0,0.75-0.336,0.75-0.75S22.165,12,21.751,12h-8.7c-0.235,0-0.46-0.113-0.601-0.301
		s-0.185-0.436-0.119-0.661l0.021-0.071c0.528-1.832,0.878-3.728,1.04-5.633c-0.005-0.554-0.145-0.992-0.404-1.267
		c-0.193-0.204-0.451-0.316-0.727-0.316c-0.235,0-0.584,0.103-0.584,0.387C11.582,8.89,7.649,12.75,2.91,12.75H0.75
		C0.337,12.75,0,12.414,0,12s0.336-0.75,0.75-0.75h2.143c3.943,0,7.206-3.198,7.285-7.128c0-0.515,0.219-0.996,0.616-1.346
		C11.179,2.437,11.7,2.25,12.263,2.25c0.682,0,1.345,0.287,1.817,0.786c0.371,0.393,0.814,1.116,0.814,2.327
		c0,0.019-0.001,0.038-0.002,0.058c-0.143,1.712-0.431,3.417-0.857,5.079h7.717c1.241,0,2.25,1.009,2.25,2.25
		c0,1.036-0.703,1.91-1.658,2.171c0.104,0.261,0.158,0.541,0.158,0.829c0,0.774-0.404,1.488-1.041,1.897
		c0.189,0.334,0.29,0.714,0.29,1.103c0,0.774-0.404,1.488-1.04,1.896C20.899,20.981,21,21.36,21,21.75c0,1.241-1.009,2.25-2.25,2.25
		H11.464z"/>
</g>
</svg>
