<?xml version="1.0" encoding="utf-8"?>
<!-- Generator: Adobe Illustrator 22.1.0, SVG Export Plug-In . SVG Version: 6.00 Build 0)  -->
<svg version="1.1" id="Layer_1" xmlns="http://www.w3.org/2000/svg" xmlns:xlink="http://www.w3.org/1999/xlink" x="0px" y="0px"
	 viewBox="0 0 24 24" style="enable-background:new 0 0 24 24;" xml:space="preserve">
<title>like-plus-one</title>
<g>
	<path d="M2.25,23.25C1.009,23.25,0,22.241,0,21V3c0-1.241,1.009-2.25,2.25-2.25h19.5C22.991,0.75,24,1.759,24,3v18
		c0,1.241-1.009,2.25-2.25,2.25H2.25z M1.5,21c0,0.414,0.336,0.75,0.75,0.75h19.5c0.414,0,0.75-0.336,0.75-0.75V6.75h-21V21z
		 M22.5,5.25V3c0-0.414-0.336-0.75-0.75-0.75H2.25C1.836,2.25,1.5,2.586,1.5,3v2.25H22.5z"/>
	<path d="M9,18c-0.414,0-0.75-0.336-0.75-0.75V15H6c-0.414,0-0.75-0.336-0.75-0.75S5.586,13.5,6,13.5h2.25v-2.25
		c0-0.414,0.336-0.75,0.75-0.75s0.75,0.336,0.75,0.75v2.25H12c0.414,0,0.75,0.336,0.75,0.75S12.414,15,12,15H9.75v2.25
		C9.75,17.664,9.414,18,9,18z"/>
	<path d="M16.5,19.5c-0.414,0-0.75-0.336-0.75-0.75V10.5H15c-0.414,0-0.75-0.336-0.75-0.75S14.586,9,15,9h1.5
		c0.414,0,0.75,0.336,0.75,0.75v9C17.25,19.164,16.914,19.5,16.5,19.5z"/>
</g>
</svg>
