<svg xmlns="http://www.w3.org/2000/svg" viewBox="0 0 24 24"><title>monitor-sync</title><path d="M11.619,11.656a.25.25,0,0,0-.232-.156H2.5A.5.5,0,0,1,2,11V2.5A.5.5,0,0,1,2.5,2h13a.5.5,0,0,1,.5.5V9.347a.25.25,0,0,0,.287.247A8.226,8.226,0,0,1,17.5,9.5c.079,0,.157,0,.235.008a.25.25,0,0,0,.186-.067A.252.252,0,0,0,18,9.259V2a2,2,0,0,0-2-2H2A2,2,0,0,0,0,2V12.5a2,2,0,0,0,2,2H7.5A.5.5,0,0,1,8,15v.5a.5.5,0,0,1-.5.5H5a1,1,0,0,0,0,2H8.754A.25.25,0,0,0,9,17.757a8.468,8.468,0,0,1,2.558-5.828A.25.25,0,0,0,11.619,11.656Z"/><path d="M22.769,18.6a1,1,0,0,0-1.27.622,4.091,4.091,0,0,1-6.918,1.42.25.25,0,0,1,.008-.345l1.722-1.722a.5.5,0,0,0-.354-.853H11.5a.5.5,0,0,0-.5.5V22.68a.5.5,0,0,0,.854.353l.969-.969a.251.251,0,0,1,.359,0,6.086,6.086,0,0,0,10.21-2.2A1,1,0,0,0,22.769,18.6Z"/><path d="M23.692,11.773a.5.5,0,0,0-.545.108l-1.026,1.026a.252.252,0,0,1-.18.073.255.255,0,0,1-.178-.077,6.1,6.1,0,0,0-10.2,2.226,1,1,0,0,0,1.893.649,4.091,4.091,0,0,1,6.9-1.446.251.251,0,0,1-.007.347L18.69,16.338a.5.5,0,0,0,.353.854H23.5a.5.5,0,0,0,.5-.5V12.235A.5.5,0,0,0,23.692,11.773Z"/></svg>