<svg xmlns="http://www.w3.org/2000/svg" viewBox="0 0 24 24"><title>monitor-approve</title><path d="M11.779,11.925A.249.249,0,0,0,11.6,11.5H2.5A.5.5,0,0,1,2,11V2.5A.5.5,0,0,1,2.5,2h13a.5.5,0,0,1,.5.5V9.35a.249.249,0,0,0,.289.247A7.8,7.8,0,0,1,17.5,9.5c.079,0,.157,0,.235.008A.251.251,0,0,0,18,9.259V2a2,2,0,0,0-2-2H2A2,2,0,0,0,0,2V12.5a2,2,0,0,0,2,2H7.5A.5.5,0,0,1,8,15v.5a.5.5,0,0,1-.5.5H5a1,1,0,0,0,0,2H9.258a.25.25,0,0,0,.182-.079.247.247,0,0,0,.068-.186c0-.078-.008-.156-.008-.235A7.961,7.961,0,0,1,11.779,11.925Z"/><path d="M17.5,11A6.5,6.5,0,1,0,24,17.5,6.508,6.508,0,0,0,17.5,11Zm3.474,5.354-2.9,3.874a1.749,1.749,0,0,1-1.28.7c-.043,0-.087,0-.13,0a1.736,1.736,0,0,1-1.231-.516l-1.5-1.5A1,1,0,1,1,15.344,17.5L16.438,18.6a.251.251,0,0,0,.377-.027l2.559-3.412a1,1,0,0,1,1.6,1.2Z"/></svg>