<svg xmlns="http://www.w3.org/2000/svg" viewBox="0 0 24 24"><title>monitor-settings</title><path d="M10.757,11.532H2.509a.5.5,0,0,1-.5-.5v-8.5a.5.5,0,0,1,.5-.5h13a.5.5,0,0,1,.5.5V8.4a.25.25,0,0,0,.293.246,8.426,8.426,0,0,1,1.457-.127.25.25,0,0,0,.25-.25V2.032a2,2,0,0,0-2-2h-14a2,2,0,0,0-2,2v10.5a2,2,0,0,0,2,2h5.5a.5.5,0,0,1,.5.5v.5a.5.5,0,0,1-.5.5h-2.5a1,1,0,0,0,0,2H9.046a.252.252,0,0,0,.25-.274c-.023-.244-.037-.49-.037-.741a8.45,8.45,0,0,1,1.7-5.085.25.25,0,0,0-.2-.4Z"/><circle cx="17.739" cy="17.001" r="1.5"/><path d="M22.52,17.314a.464.464,0,0,1,0-.626l.988-1.064a1.783,1.783,0,0,0-1.7-2.953L20.4,13a.455.455,0,0,1-.533-.312L19.439,11.3a1.776,1.776,0,0,0-3.4,0l-.423,1.391a.456.456,0,0,1-.534.312l-1.41-.327a1.783,1.783,0,0,0-1.7,2.953l.987,1.064a.462.462,0,0,1,0,.626l-.987,1.065a1.783,1.783,0,0,0,1.7,2.953l1.412-.327a.454.454,0,0,1,.533.31l.423,1.393a1.776,1.776,0,0,0,3.4,0l.424-1.393a.449.449,0,0,1,.533-.31l1.411.327a1.783,1.783,0,0,0,1.7-2.953ZM17.739,20a3,3,0,1,1,3-3A3,3,0,0,1,17.739,20Z"/></svg>