<svg xmlns="http://www.w3.org/2000/svg" viewBox="0 0 24 24"><title>monitor-question</title><path d="M11.627,11.652a.25.25,0,0,0-.23-.151H2.5A.5.5,0,0,1,2,11V2.5A.5.5,0,0,1,2.5,2h13a.5.5,0,0,1,.5.5V9.13a.25.25,0,0,0,.293.246,8.477,8.477,0,0,1,1.452-.125h0A.251.251,0,0,0,18,9V2a2,2,0,0,0-2-2H2A2,2,0,0,0,0,2V12.5a2,2,0,0,0,2,2H7.5A.5.5,0,0,1,8,15v.5a.5.5,0,0,1-.5.5H5a1,1,0,0,0,0,2H9a.25.25,0,0,0,.25-.25,8.451,8.451,0,0,1,2.33-5.828A.251.251,0,0,0,11.627,11.652Z"/><path d="M17.747,11.5A6.25,6.25,0,1,0,24,17.751,6.257,6.257,0,0,0,17.747,11.5Zm0,11.25a1,1,0,1,1,1-1A1,1,0,0,1,17.748,22.751Zm.912-4.164a.25.25,0,0,0-.163.234V19A.75.75,0,1,1,17,19v-.554a1.258,1.258,0,0,1,.988-1.222,1.125,1.125,0,1,0-1.363-1.1.75.75,0,0,1-1.5,0,2.625,2.625,0,1,1,3.538,2.461Z"/></svg>