<svg xmlns="http://www.w3.org/2000/svg" viewBox="0 0 24 24"><title>monitor-lock</title><path d="M14.5,11.86a.25.25,0,0,0-.225-.359H2.5A.5.5,0,0,1,2,11V2.5A.5.5,0,0,1,2.5,2h13a.5.5,0,0,1,.5.5V9.548a.249.249,0,0,0,.383.211,4.893,4.893,0,0,1,1.427-.614A.25.25,0,0,0,18,8.9V2a2,2,0,0,0-2-2H2A2,2,0,0,0,0,2V12.5a2,2,0,0,0,2,2H7.5A.5.5,0,0,1,8,15v.5a.5.5,0,0,1-.5.5H5a1,1,0,0,0,0,2h7.25a.25.25,0,0,0,.25-.25v-1.5a.25.25,0,0,0-.25-.25H10.5a.5.5,0,0,1-.5-.5V15a.5.5,0,0,1,.5-.5h2.6a.247.247,0,0,0,.156-.055,2,2,0,0,1,.678-.357A.092.092,0,0,0,14,14,4.87,4.87,0,0,1,14.5,11.86Z"/><path d="M22.714,15.516a.25.25,0,0,1-.214-.248V14.251a3.5,3.5,0,1,0-7,0v1.017a.25.25,0,0,1-.214.248A1.5,1.5,0,0,0,14,17v5.5A1.5,1.5,0,0,0,15.5,24h7A1.5,1.5,0,0,0,24,22.5V17A1.5,1.5,0,0,0,22.714,15.516ZM19,21.251a1,1,0,1,1,1-1A1,1,0,0,1,19,21.251Zm1.5-6a.25.25,0,0,1-.25.25h-2.5a.25.25,0,0,1-.25-.25v-1a1.5,1.5,0,1,1,3,0Z"/></svg>