<svg xmlns="http://www.w3.org/2000/svg" viewBox="0 0 24 24"><title>monitor-add</title><path d="M11.1,11.915a.25.25,0,0,0-.189-.414H2.5A.5.5,0,0,1,2,11V2.5A.5.5,0,0,1,2.5,2h13a.5.5,0,0,1,.5.5V8.847a.25.25,0,0,0,.287.247A8.226,8.226,0,0,1,17.5,9c.079,0,.157,0,.235.008A.251.251,0,0,0,18,8.759V2a2,2,0,0,0-2-2H2A2,2,0,0,0,0,2V12.5a2,2,0,0,0,2,2H7.5A.5.5,0,0,1,8,15v.5a.5.5,0,0,1-.5.5H5a1,1,0,0,0,0,2H8.759a.25.25,0,0,0,.181-.079.247.247,0,0,0,.068-.186C9,17.658,9,17.58,9,17.5A8.464,8.464,0,0,1,11.1,11.915Z"/><path d="M17.5,11A6.5,6.5,0,1,0,24,17.5,6.508,6.508,0,0,0,17.5,11ZM20,18.5H18.75a.25.25,0,0,0-.25.25V20a1,1,0,1,1-2,0v-1.25a.25.25,0,0,0-.25-.25H15a1,1,0,0,1,0-2h1.25a.25.25,0,0,0,.25-.25V15a1,1,0,1,1,2,0v1.25a.25.25,0,0,0,.25.25H20a1,1,0,0,1,0,2Z"/></svg>