<svg xmlns="http://www.w3.org/2000/svg" viewBox="0 0 24 24"><defs><style>.a{fill:none;stroke:currentColor;stroke-linecap:round;stroke-linejoin:round;stroke-width:1.5px;}</style></defs><title>newspaper-read-man</title><path class="a" d="M18.781,6.5c-4.428.731-5.417-.257-6.406-1.251C11.386,6.24,10.4,7.228,5.968,6.5"/><path class="a" d="M18.057,9.679l.718-3.225A4.5,4.5,0,0,0,15.555,1.1,12.9,12.9,0,0,0,12.375.75,12.9,12.9,0,0,0,9.2,1.1a4.5,4.5,0,0,0-3.22,5.356l.718,3.225"/><path class="a" d="M4.875,19.241v1.011a.9.9,0,0,0,.589.886l6.911,2.112V14.417L5.9,12.043a.818.818,0,0,0-1.027.874v1.836"/><path class="a" d="M19.888,19.094v1.158a.9.9,0,0,1-.588.886L12.375,23.25V14.417l6.486-2.374a.818.818,0,0,1,1.027.874v1.99"/><path class="a" d="M6.362,18.356c0,.5-.563.9-1.251.894-1.378-.006-2.491-.817-2.486-1.81l0-.9c0-.994,1.125-1.794,2.5-1.788.689,0,1.245.409,1.243.906Z"/><path class="a" d="M17.632,18.356c0,.5.563.9,1.253.894,1.38-.006,2.495-.817,2.49-1.81l0-.9c0-.994-1.127-1.794-2.507-1.788-.689,0-1.247.409-1.244.906Z"/><line class="a" x1="10.125" y1="9.75" x2="10.125" y2="10.5"/><line class="a" x1="14.625" y1="9.75" x2="14.625" y2="10.5"/></svg>