<svg xmlns="http://www.w3.org/2000/svg" viewBox="0 0 24 24"><defs><style>.a{fill:none;stroke:currentColor;stroke-linecap:round;stroke-linejoin:round;}</style></defs><title>drawer-play</title><rect class="a" x="7.497" y="4.5" width="9" height="8" rx="1" ry="1"/><path class="a" d="M10.5,8.5V7.287a.287.287,0,0,1,.434-.246l2.927,1.213a.287.287,0,0,1,0,.492L10.931,9.959a.287.287,0,0,1-.434-.246Z"/><path class="a" d="M19.5,14.5V1.5a1,1,0,0,0-1-1H5.5a1,1,0,0,0-1,1v13"/><path class="a" d="M23.5,22.5a1,1,0,0,1-1,1H1.5a1,1,0,0,1-1-1v-6h7v1a2.006,2.006,0,0,0,2,2h5a2.006,2.006,0,0,0,2-2v-1h7Z"/><line class="a" x1="0.5" y1="16.5" x2="4.5" y2="10.5"/><line class="a" x1="19.5" y1="10.5" x2="23.5" y2="16.5"/></svg>