<svg xmlns="http://www.w3.org/2000/svg" viewBox="0 0 24 24"><defs><style>.a{fill:none;stroke:currentColor;stroke-linecap:round;stroke-linejoin:round;}</style></defs><title>drawer-upload</title><path class="a" d="M23.5,22.5a1,1,0,0,1-1,1H1.5a1,1,0,0,1-1-1v-6h7v1a2.006,2.006,0,0,0,2,2h5a2.006,2.006,0,0,0,2-2v-1h7Z"/><path class="a" d="M.5,16.5,3.711,11a1,1,0,0,1,.863-.5H7.5"/><path class="a" d="M16.5,10.5h2.926a1,1,0,0,1,.863.5L23.5,16.5"/><line class="a" x1="12" y1="0.5" x2="12" y2="11.5"/><polyline class="a" points="8 4.5 12 0.5 16 4.5"/></svg>