<?xml version="1.0" encoding="utf-8"?>
<!-- Generator: Adobe Illustrator 22.1.0, SVG Export Plug-In . SVG Version: 6.00 Build 0)  -->
<svg version="1.1" id="Layer_1" xmlns="http://www.w3.org/2000/svg" xmlns:xlink="http://www.w3.org/1999/xlink" x="0px" y="0px"
	 viewBox="0 0 24 24" style="enable-background:new 0 0 24 24;" xml:space="preserve">
<g>
	<title>cd-playing</title>
	<circle cx="12" cy="12" r="0.75"/>
	<path d="M12,24C5.383,24,0,18.617,0,12c0-2.228,0.62-4.406,1.792-6.299C1.817,5.661,1.91,5.517,1.91,5.517l0.046-0.072
		c0.037-0.059,0.075-0.117,0.114-0.174c0.424-0.629,0.91-1.22,1.444-1.756c0,0,0.001-0.001,0.001-0.001
		c0.536-0.534,1.127-1.02,1.757-1.445c0.056-0.038,0.115-0.076,0.173-0.113c0,0,0.216-0.139,0.257-0.165C7.594,0.62,9.772,0,12,0
		c6.617,0,12,5.383,12,12c0,2.228-0.619,4.406-1.791,6.298c-0.026,0.041-0.164,0.256-0.164,0.256
		c-0.038,0.058-0.075,0.117-0.114,0.174c-0.424,0.63-0.911,1.221-1.445,1.757c-0.537,0.535-1.128,1.022-1.759,1.447
		c-0.056,0.038-0.115,0.076-0.173,0.113c0,0-0.215,0.138-0.256,0.164C16.406,23.381,14.228,24,12,24z M1.747,8.017
		C1.251,9.288,1,10.627,1,12c0,6.065,4.935,11,11,11c1.374,0,2.712-0.251,3.983-0.748l-2.839-6.424C12.769,15.943,12.385,16,12,16
		c-2.206,0-4-1.794-4-4c0-0.385,0.057-0.769,0.171-1.145L1.747,8.017z M16.895,21.843c0.207-0.102,0.411-0.211,0.609-0.325
		c0.126-0.073,0.232-0.138,0.338-0.204c0.064-0.041,0.13-0.082,0.195-0.125c0.057-0.037,0.113-0.074,0.168-0.112
		c0.123-0.084,0.246-0.171,0.366-0.26c0.855-0.64,1.605-1.39,2.239-2.237c0.096-0.128,0.182-0.251,0.267-0.375
		c0.037-0.054,0.074-0.11,0.111-0.167c0.043-0.065,0.085-0.131,0.126-0.197c0.065-0.104,0.131-0.211,0.193-0.319
		c0.122-0.212,0.233-0.419,0.335-0.627l-6.419-2.836c0,0-0.042,0.071-0.065,0.106c-0.028,0.042-0.054,0.082-0.081,0.121
		c-0.059,0.085-0.121,0.168-0.187,0.249c-0.002,0.002-0.004,0.005-0.006,0.007c-0.162,0.198-0.344,0.381-0.543,0.543
		c-0.002,0.002-0.005,0.004-0.008,0.006c-0.081,0.066-0.164,0.128-0.25,0.187c-0.038,0.026-0.077,0.052-0.117,0.078
		c-0.038,0.024-0.073,0.045-0.109,0.066c0,0,0,0,0,0L16.895,21.843z M22.252,15.983C22.749,14.712,23,13.374,23,12
		c0-6.065-4.935-11-11-11c-1.373,0-2.712,0.251-3.983,0.747l2.838,6.424C11.231,8.057,11.615,8,12,8c2.206,0,4,1.794,4,4
		c0,0.385-0.057,0.769-0.171,1.145L22.252,15.983z M9.234,10.842C9.078,11.21,9,11.6,9,12c0,1.654,1.346,3,3,3
		c0.4,0,0.789-0.078,1.156-0.233c0.01-0.008,0.031-0.021,0.058-0.033c0.166-0.071,0.326-0.158,0.478-0.259
		C14,14.264,14.264,14,14.477,13.69c0.1-0.149,0.187-0.31,0.258-0.475c0.006-0.014,0.02-0.037,0.032-0.056
		C14.921,12.79,15,12.4,15,12c0-1.654-1.346-3-3-3c-0.399,0-0.788,0.078-1.156,0.232c-0.011,0.009-0.033,0.022-0.06,0.034
		c-0.164,0.07-0.324,0.157-0.476,0.259C10,9.736,9.736,10,9.524,10.31c-0.1,0.15-0.187,0.31-0.258,0.475
		C9.26,10.799,9.246,10.823,9.234,10.842z M8.577,9.941c0.022-0.038,0.044-0.074,0.067-0.11C8.67,9.791,8.694,9.753,8.72,9.717
		c0.269-0.392,0.605-0.728,0.998-0.998c0.035-0.025,0.073-0.049,0.11-0.074c0.039-0.025,0.076-0.047,0.113-0.069L7.105,2.158
		c-0.205,0.101-0.409,0.21-0.608,0.324C6.369,2.556,6.263,2.621,6.158,2.686c-0.065,0.041-0.13,0.082-0.195,0.125
		C5.906,2.849,5.85,2.886,5.794,2.924C5.672,3.007,5.551,3.093,5.432,3.182C4.574,3.824,3.824,4.574,3.191,5.42
		C3.093,5.551,3.007,5.672,2.923,5.795C2.886,5.85,2.849,5.906,2.812,5.962C2.769,6.028,2.727,6.093,2.686,6.159
		c-0.065,0.104-0.13,0.21-0.192,0.318C2.371,6.69,2.26,6.898,2.158,7.105L8.577,9.941z"/>
</g>
</svg>
