<svg xmlns="http://www.w3.org/2000/svg" viewBox="0 0 24 24"><defs><style>.a{fill:none;stroke:currentColor;stroke-linecap:round;stroke-linejoin:round;}</style></defs><title>ipod-play</title><path class="a" d="M2.5,4.5a2,2,0,0,1,2-2"/><path class="a" d="M.5,4.5a4,4,0,0,1,4-4"/><path class="a" d="M21.5,4.5a2,2,0,0,0-2-2"/><path class="a" d="M23.5,4.5a4,4,0,0,0-4-4"/><rect class="a" x="5.5" y="4.505" width="13" height="19" rx="1" ry="1"/><path class="a" d="M10.257,8.46a.5.5,0,0,0-.757.428v4.234a.5.5,0,0,0,.757.429l3.528-2.117a.5.5,0,0,0,0-.858Z"/><line class="a" x1="5.5" y1="16.505" x2="18.5" y2="16.505"/><circle class="a" cx="12" cy="20.005" r="1.5"/></svg>