<?xml version="1.0" encoding="utf-8"?>
<!-- Generator: Adobe Illustrator 22.1.0, SVG Export Plug-In . SVG Version: 6.00 Build 0)  -->
<svg version="1.1" id="Layer_1" xmlns="http://www.w3.org/2000/svg" xmlns:xlink="http://www.w3.org/1999/xlink" x="0px" y="0px"
	 viewBox="0 0 24 24" style="enable-background:new 0 0 24 24;" xml:space="preserve">
<g>
	<title>award-ribbon-star-3</title>
	<path d="M8.212,23.774c-0.138,0-0.245-0.032-0.309-0.058C7.654,23.612,7.5,23.393,7.5,23.144v-5c0-0.276,0.224-0.5,0.5-0.5
		s0.5,0.224,0.5,0.5v4.372l3.146-3.146c0.094-0.094,0.22-0.146,0.354-0.146s0.259,0.052,0.354,0.146l3.146,3.146v-4.373
		c0-0.276,0.224-0.5,0.5-0.5s0.5,0.224,0.5,0.5v4.58c0,0.674-0.361,0.896-0.517,0.96c-0.089,0.037-0.185,0.056-0.284,0.056
		c0,0,0,0,0,0c-0.259,0-0.514-0.125-0.76-0.37L12,20.43L9.061,23.37C8.727,23.704,8.415,23.774,8.212,23.774z"/>
	<path d="M14.097,12.13c-0.148,0-0.302-0.05-0.457-0.149l-1.645-1.05l-1.643,1.016c-0.153,0.095-0.304,0.143-0.45,0.143
		c-0.175,0-0.3-0.068-0.375-0.125c-0.107-0.082-0.341-0.324-0.199-0.802l0.536-1.8l-1.263-0.94c-0.411-0.305-0.355-0.64-0.313-0.77
		C8.332,7.524,8.487,7.222,9,7.222h1.524l0.805-1.609C11.473,5.325,11.724,5.153,12,5.153c0.276,0,0.526,0.172,0.671,0.461
		l0.804,1.61H15c0.51,0,0.666,0.299,0.709,0.428c0.043,0.129,0.1,0.462-0.307,0.771L14.132,9.36l0.539,1.849
		c0.14,0.479-0.097,0.719-0.205,0.8C14.359,12.089,14.232,12.13,14.097,12.13z M12,9.841c0.096,0,0.189,0.027,0.269,0.079
		l1.209,0.772l-0.404-1.386c-0.058-0.2,0.015-0.418,0.183-0.542l0.731-0.54h-0.823c-0.191,0-0.362-0.106-0.447-0.277l-0.718-1.438
		L11.28,7.946c-0.085,0.17-0.257,0.276-0.447,0.276h-0.827l0.736,0.548c0.168,0.125,0.24,0.343,0.181,0.544l-0.404,1.355
		l1.217-0.753C11.816,9.867,11.907,9.841,12,9.841z"/>
	<path d="M12,17.223c-4.687,0-8.5-3.813-8.5-8.5s3.813-8.5,8.5-8.5c4.687,0,8.5,3.813,8.5,8.5S16.687,17.223,12,17.223z M12,1.223
		c-4.135,0-7.5,3.365-7.5,7.5c0,4.136,3.365,7.5,7.5,7.5s7.5-3.365,7.5-7.5C19.5,4.587,16.135,1.223,12,1.223z"/>
	<path d="M12,14.723c-3.308,0-6-2.692-6-6c0-3.308,2.692-6,6-6s6,2.692,6,6C18,12.031,15.308,14.723,12,14.723z M12,3.723
		c-2.757,0-5,2.243-5,5c0,2.757,2.243,5,5,5c2.757,0,5-2.243,5-5C17,5.966,14.757,3.723,12,3.723z"/>
</g>
</svg>
