<?xml version="1.0" encoding="utf-8"?>
<!-- Generator: Adobe Illustrator 22.1.0, SVG Export Plug-In . SVG Version: 6.00 Build 0)  -->
<svg version="1.1" id="Layer_1" xmlns="http://www.w3.org/2000/svg" xmlns:xlink="http://www.w3.org/1999/xlink" x="0px" y="0px"
	 viewBox="0 0 24 24" style="enable-background:new 0 0 24 24;" xml:space="preserve">
<g>
	<title>award-ribbon-star</title>
	<path d="M15.498,23.801c-0.188,0-0.372-0.053-0.531-0.153l-2.969-1.857l-2.97,1.857C8.87,23.747,8.687,23.8,8.5,23.8
		c-0.348,0-0.665-0.176-0.849-0.47c-0.099-0.159-0.152-0.342-0.152-0.529v-5.6c0-0.276,0.224-0.5,0.5-0.5s0.5,0.224,0.5,0.5v5.6
		l3.235-2.024c0.079-0.05,0.171-0.076,0.265-0.076s0.186,0.026,0.265,0.076l3.235,2.024l0-5.6c0-0.276,0.224-0.5,0.5-0.5
		c0.276,0,0.5,0.224,0.5,0.5v5.6C16.498,23.352,16.05,23.801,15.498,23.801z"/>
	<path d="M11.991,17.206c-0.501,0-1.004-0.123-1.454-0.357c-0.591-0.306-1.056-0.771-1.355-1.353
		c-0.312,0.1-0.635,0.151-0.965,0.151c-0.509,0-1.016-0.125-1.467-0.36c-1.384-0.723-2.023-2.313-1.551-3.775
		c-0.744-0.385-1.306-1.05-1.561-1.855C3.382,8.851,3.456,7.993,3.846,7.243c0.307-0.591,0.772-1.055,1.353-1.354
		C4.942,5.085,5.015,4.211,5.408,3.457C5.8,2.707,6.46,2.154,7.268,1.901c0.31-0.097,0.631-0.147,0.952-0.147
		c0.328,0,0.651,0.051,0.963,0.152c0.385-0.743,1.05-1.305,1.853-1.56c0.311-0.099,0.633-0.149,0.956-0.149
		c1.193,0,2.273,0.663,2.814,1.709c0.312-0.1,0.636-0.151,0.966-0.151c0.509,0,1.016,0.125,1.466,0.36
		c0.75,0.392,1.303,1.052,1.556,1.859c0.199,0.635,0.197,1.292-0.004,1.914c1.045,0.54,1.708,1.619,1.708,2.811
		c0,1.193-0.663,2.273-1.708,2.813c0.257,0.804,0.185,1.678-0.209,2.432c-0.548,1.049-1.626,1.701-2.813,1.701c0,0,0,0,0,0
		c-0.328,0-0.651-0.051-0.961-0.15c-0.386,0.743-1.05,1.305-1.853,1.56C12.639,17.156,12.316,17.206,11.991,17.206z M9.452,14.344
		c0.065,0,0.129,0.012,0.189,0.037c0.138,0.058,0.242,0.171,0.287,0.312c0.175,0.552,0.555,1.002,1.069,1.269
		c0.312,0.162,0.647,0.244,0.994,0.244c0.222,0,0.444-0.035,0.659-0.103c0.67-0.213,1.198-0.74,1.41-1.411
		c0.045-0.141,0.149-0.254,0.286-0.311c0.062-0.025,0.126-0.038,0.191-0.038c0.08,0,0.16,0.02,0.231,0.057
		c0.314,0.164,0.651,0.248,1.001,0.248c0.22,0,0.439-0.034,0.652-0.101c0.552-0.173,1.004-0.552,1.272-1.065
		c0.328-0.628,0.328-1.379,0-2.007c-0.068-0.131-0.075-0.285-0.019-0.422c0.057-0.137,0.17-0.242,0.311-0.286
		c0.905-0.287,1.513-1.117,1.512-2.066c0-0.949-0.607-1.779-1.512-2.066c-0.141-0.044-0.254-0.148-0.311-0.286
		c-0.057-0.137-0.05-0.291,0.019-0.422c0.268-0.513,0.32-1.1,0.147-1.653c-0.173-0.552-0.552-1.004-1.065-1.273
		c-0.308-0.161-0.655-0.246-1.003-0.246c-0.348,0-0.696,0.085-1.004,0.246c-0.072,0.037-0.151,0.057-0.232,0.057
		c-0.066,0-0.13-0.013-0.191-0.038c-0.136-0.056-0.24-0.169-0.285-0.31c-0.287-0.905-1.118-1.513-2.068-1.513
		c-0.221,0-0.441,0.034-0.654,0.102c-0.671,0.213-1.198,0.74-1.411,1.411C9.883,2.851,9.779,2.965,9.642,3.021
		c-0.06,0.025-0.125,0.038-0.191,0.038c-0.08,0-0.161-0.02-0.232-0.057c-0.314-0.164-0.65-0.247-1-0.247
		C8,2.754,7.78,2.788,7.567,2.855C7.015,3.029,6.563,3.407,6.295,3.92c-0.328,0.628-0.328,1.379,0,2.007
		C6.363,6.059,6.37,6.213,6.314,6.35c-0.057,0.137-0.17,0.241-0.312,0.286C5.451,6.81,5,7.19,4.733,7.703
		C4.467,8.217,4.416,8.804,4.591,9.356c0.213,0.671,0.74,1.199,1.412,1.411c0.141,0.045,0.255,0.149,0.311,0.286
		c0.057,0.137,0.05,0.291-0.019,0.422c-0.268,0.513-0.32,1.1-0.147,1.653c0.173,0.553,0.552,1.005,1.065,1.272
		c0.308,0.161,0.655,0.246,1.004,0.246s0.695-0.085,1.004-0.246C9.292,14.363,9.372,14.344,9.452,14.344z"/>
	<path d="M9.422,12.701c-0.365,0-0.706-0.196-0.888-0.512c-0.159-0.274-0.181-0.613-0.059-0.906l0.828-1.901L7.812,7.915
		C7.634,7.763,7.515,7.52,7.496,7.26C7.477,6.997,7.562,6.741,7.735,6.542C7.924,6.325,8.195,6.2,8.481,6.2
		c0.017,0,0.033,0,0.05,0.001l1.656-0.001l0.895-1.926c0.185-0.358,0.539-0.574,0.927-0.574c0.163,0,0.327,0.04,0.472,0.116
		c0.191,0.099,0.344,0.253,0.442,0.445l0.902,1.939L15.537,6.2c0.242,0,0.475,0.092,0.658,0.26c0.195,0.179,0.308,0.422,0.32,0.686
		c0.013,0.3-0.108,0.585-0.333,0.784L14.71,9.382l0.825,1.894c0.219,0.527-0.028,1.129-0.549,1.346
		c-0.125,0.052-0.257,0.078-0.393,0.078l0,0c-0.181,0-0.359-0.048-0.513-0.137l-2.073-1.166l-2.079,1.169
		C9.776,12.654,9.6,12.701,9.422,12.701z M8.484,7.201l1.765,1.709c0.146,0.144,0.19,0.367,0.108,0.556l-0.962,2.209l0.026,0.026
		l2.341-1.313c0.075-0.042,0.16-0.064,0.245-0.064s0.17,0.022,0.245,0.064l2.324,1.307l0.027,0.004
		c0.01-0.004,0.017-0.021,0.013-0.031l-0.959-2.201c-0.082-0.188-0.039-0.412,0.107-0.556l1.754-1.729l-2.012,0.02
		c-0.194,0-0.372-0.114-0.454-0.289l-1.026-2.207c-0.007-0.001-0.014-0.002-0.02-0.002c-0.013,0-0.022,0.004-0.027,0.014
		L10.96,6.912c-0.081,0.176-0.259,0.289-0.453,0.289l-2.014,0C8.487,7.201,8.485,7.201,8.484,7.201z"/>
</g>
</svg>
