<?xml version="1.0" encoding="utf-8"?>
<!-- Generator: Adobe Illustrator 22.1.0, SVG Export Plug-In . SVG Version: 6.00 Build 0)  -->
<svg version="1.1" id="Layer_1" xmlns="http://www.w3.org/2000/svg" xmlns:xlink="http://www.w3.org/1999/xlink" x="0px" y="0px"
	 viewBox="0 0 24 24" style="enable-background:new 0 0 24 24;" xml:space="preserve">
<g>
	<title>award-medal</title>
	<path d="M12,24c-4.411,0-8-3.589-8-8c0-4.411,3.589-8,8-8c4.411,0,8,3.589,8,8C20,20.411,16.411,24,12,24z M12,9
		c-3.86,0-7,3.14-7,7s3.14,7,7,7s7-3.14,7-7S15.86,9,12,9z"/>
	<path d="M15.138,7.01c-0.073,0-0.148-0.017-0.215-0.048c-0.249-0.119-0.355-0.417-0.237-0.667l2.862-6.01
		C17.631,0.112,17.809,0,18,0c0.075,0,0.147,0.016,0.215,0.048c0.249,0.119,0.355,0.417,0.237,0.667l-2.862,6.01
		C15.507,6.898,15.329,7.01,15.138,7.01z"/>
	<path d="M17.198,7.97c-0.075,0-0.147-0.016-0.214-0.048c-0.121-0.057-0.212-0.158-0.257-0.284
		c-0.045-0.126-0.038-0.262,0.019-0.382l3.302-6.97C20.131,0.112,20.308,0,20.5,0c0.075,0,0.146,0.016,0.214,0.048
		c0.12,0.057,0.212,0.158,0.257,0.284c0.045,0.126,0.038,0.262-0.019,0.382l-3.302,6.97C17.567,7.858,17.39,7.97,17.198,7.97z"/>
	<path d="M18.988,9.355c-0.074,0-0.149-0.017-0.216-0.049c-0.121-0.058-0.211-0.159-0.256-0.285
		c-0.044-0.126-0.037-0.262,0.021-0.382l4.012-8.355C22.632,0.111,22.809,0,23,0c0.075,0,0.148,0.017,0.217,0.049
		c0.12,0.058,0.211,0.159,0.255,0.285c0.044,0.126,0.037,0.262-0.021,0.382l-4.012,8.355C19.356,9.243,19.179,9.355,18.988,9.355z"
		/>
	<path d="M8.862,7.01c-0.192,0-0.369-0.112-0.452-0.285l-2.862-6.01C5.43,0.466,5.536,0.167,5.785,0.048C5.853,0.016,5.925,0,6,0
		c0.192,0,0.369,0.112,0.451,0.285l2.862,6.01c0.119,0.249,0.012,0.548-0.236,0.667C9.009,6.994,8.937,7.01,8.862,7.01z"/>
	<path d="M6.801,7.97c-0.192,0-0.37-0.112-0.452-0.286l-3.301-6.97C2.93,0.465,3.037,0.166,3.286,0.048C3.354,0.016,3.426,0,3.5,0
		c0.193,0,0.37,0.112,0.452,0.286l3.301,6.97c0.118,0.249,0.011,0.548-0.238,0.666C6.948,7.954,6.876,7.97,6.801,7.97z"/>
	<path d="M5.01,9.355c-0.191,0-0.368-0.111-0.451-0.284l-4.01-8.355C0.492,0.596,0.484,0.46,0.528,0.334
		c0.044-0.126,0.135-0.227,0.255-0.285C0.852,0.016,0.925,0,1,0c0.191,0,0.368,0.111,0.451,0.284l4.01,8.355
		c0.058,0.12,0.065,0.256,0.021,0.382C5.438,9.147,5.347,9.248,5.226,9.306C5.158,9.338,5.085,9.355,5.01,9.355z"/>
	<path d="M9.417,20.499c-0.365,0-0.706-0.196-0.888-0.511c-0.159-0.275-0.181-0.614-0.059-0.906l0.828-1.902l-1.491-1.467
		c-0.183-0.159-0.3-0.397-0.316-0.661c-0.016-0.263,0.07-0.517,0.242-0.714c0.188-0.215,0.46-0.339,0.745-0.339L8.522,14l1.659,0
		l0.895-1.926c0.184-0.359,0.538-0.576,0.927-0.576c0.162,0,0.325,0.039,0.47,0.114c0.193,0.1,0.347,0.255,0.445,0.448L13.819,14
		l1.711-0.001c0.243,0,0.478,0.094,0.661,0.263c0.194,0.179,0.307,0.424,0.317,0.688c0.012,0.296-0.108,0.58-0.33,0.778l-1.473,1.45
		l0.825,1.894c0.107,0.258,0.108,0.537,0.004,0.79c-0.104,0.254-0.3,0.451-0.553,0.556c-0.125,0.052-0.257,0.078-0.393,0.078l0,0
		c-0.181,0-0.358-0.047-0.513-0.137L12,19.195l-2.078,1.169C9.77,20.452,9.595,20.499,9.417,20.499z M12,18.122
		c0.085,0,0.17,0.022,0.244,0.064l2.326,1.305l0.123,0.235l-0.095-0.231l0.243-0.127l-0.229,0.1l-0.96-2.205
		c-0.082-0.189-0.039-0.412,0.108-0.556l1.736-1.708L13.5,15c-0.194,0-0.372-0.114-0.454-0.29l-1.026-2.208
		C12.013,12.501,12.006,12.5,12,12.5c-0.012,0-0.021,0.004-0.027,0.014l-1.02,2.196C10.872,14.886,10.694,15,10.5,15
		c0,0-2.021,0-2.021,0l1.764,1.708c0.146,0.144,0.19,0.367,0.108,0.556L9.39,19.473l0.026,0.026l2.34-1.313
		C11.829,18.144,11.914,18.122,12,18.122z"/>
</g>
</svg>
