<?xml version="1.0" encoding="utf-8"?>
<!-- Generator: Adobe Illustrator 22.1.0, SVG Export Plug-In . SVG Version: 6.00 Build 0)  -->
<svg version="1.1" id="Layer_1" xmlns="http://www.w3.org/2000/svg" xmlns:xlink="http://www.w3.org/1999/xlink" x="0px" y="0px"
	 viewBox="0 0 24 24" style="enable-background:new 0 0 24 24;" xml:space="preserve">
<g>
	<title>award-medal-3</title>
	<path d="M15.498,12.249c-0.03,0-0.06-0.003-0.09-0.008c-0.132-0.024-0.246-0.098-0.322-0.208c-0.076-0.11-0.104-0.243-0.08-0.374
		l1.786-9.821c0.005-0.03,0.008-0.06,0.008-0.09c0-0.133-0.052-0.259-0.146-0.354c-0.094-0.094-0.22-0.146-0.353-0.146h-2.295v6.5
		c0,0.276-0.224,0.5-0.5,0.5s-0.5-0.224-0.5-0.5v-6.5h-2v6.5c0,0.276-0.224,0.5-0.5,0.5s-0.5-0.224-0.5-0.5v-6.5H7.7
		c-0.029,0-0.058,0.003-0.088,0.008c-0.13,0.024-0.244,0.097-0.32,0.207c-0.076,0.11-0.105,0.243-0.081,0.374l1.786,9.821
		c0.024,0.131-0.005,0.264-0.081,0.374c-0.076,0.11-0.19,0.184-0.322,0.208c-0.03,0.005-0.06,0.008-0.09,0.008
		c-0.242,0-0.448-0.173-0.492-0.411L6.227,2.018C6.155,1.624,6.242,1.226,6.47,0.896c0.228-0.33,0.571-0.551,0.964-0.622
		c0.089-0.016,0.178-0.024,0.265-0.024H16.3c0.401,0,0.777,0.156,1.061,0.439c0.283,0.283,0.439,0.66,0.439,1.061
		c0,0.09-0.008,0.18-0.024,0.269l-1.786,9.821C15.947,12.076,15.74,12.249,15.498,12.249z"/>
	<path d="M8.126,23.253c-0.11,0-0.221-0.014-0.328-0.042c-0.332-0.087-0.61-0.298-0.784-0.594c-0.203-0.347-0.231-0.776-0.075-1.147
		l1.298-2.986l-2.33-2.074c-0.246-0.219-0.393-0.521-0.412-0.85c-0.02-0.33,0.09-0.647,0.31-0.893
		c0.234-0.263,0.569-0.415,0.919-0.415l0.049,0.001l2.652,0l1.411-3.268c0.241-0.454,0.685-0.724,1.169-0.724
		c0.211,0,0.421,0.053,0.608,0.153c0.227,0.122,0.412,0.306,0.533,0.533c0.004,0.007,0.016,0.034,0.02,0.041l1.407,3.265
		l2.701-0.001c0.308,0,0.604,0.117,0.833,0.331c0.242,0.225,0.381,0.53,0.393,0.86c0.014,0.368-0.136,0.721-0.412,0.967l-2.33,2.076
		l1.295,2.981c0.135,0.322,0.136,0.673,0.005,0.99c-0.131,0.318-0.377,0.565-0.694,0.697c-0.157,0.065-0.323,0.098-0.494,0.098l0,0
		c-0.227,0-0.449-0.059-0.643-0.172L12,21.258l-3.235,1.823C8.574,23.193,8.352,23.253,8.126,23.253z M6.735,15.251
		c-0.074,0-0.137,0.027-0.182,0.079C6.51,15.377,6.49,15.436,6.493,15.5c0.004,0.063,0.032,0.12,0.078,0.162l2.6,2.315
		c0.162,0.144,0.212,0.374,0.126,0.573l-1.44,3.313c-0.032,0.077-0.025,0.173,0.019,0.249c0.038,0.066,0.1,0.113,0.174,0.132
		c0.024,0.006,0.048,0.01,0.073,0.01c0.05,0,0.1-0.014,0.144-0.039l3.487-1.965c0.075-0.042,0.16-0.064,0.245-0.064
		c0.086,0,0.171,0.022,0.245,0.064l3.479,1.961c0.047,0.027,0.097,0.041,0.147,0.041c0.038,0,0.074-0.007,0.109-0.022
		c0.071-0.029,0.125-0.084,0.154-0.155c0.029-0.07,0.029-0.148,0-0.218l-1.437-3.306c-0.086-0.198-0.036-0.428,0.126-0.572
		l2.6-2.316c0.052-0.047,0.081-0.113,0.078-0.183c-0.002-0.064-0.029-0.121-0.075-0.164c-0.044-0.041-0.098-0.063-0.155-0.063
		l-3.026,0.001c-0.2,0-0.381-0.119-0.459-0.303l-1.529-3.545c-0.028-0.046-0.068-0.084-0.115-0.109
		c-0.043-0.023-0.091-0.035-0.14-0.035c-0.112,0-0.214,0.061-0.266,0.158l-1.523,3.532c-0.079,0.183-0.259,0.302-0.459,0.302
		L6.735,15.251z"/>
</g>
</svg>
