<?xml version="1.0" encoding="utf-8"?>
<!-- Generator: Adobe Illustrator 22.1.0, SVG Export Plug-In . SVG Version: 6.00 Build 0)  -->
<svg version="1.1" id="Layer_1" xmlns="http://www.w3.org/2000/svg" xmlns:xlink="http://www.w3.org/1999/xlink" x="0px" y="0px"
	 viewBox="0 0 24 24" style="enable-background:new 0 0 24 24;" xml:space="preserve">
<g>
	<title>award-star</title>
	<path d="M6.283,24.033c-0.276,0-0.5-0.224-0.5-0.5v-2c0-0.827,0.673-1.5,1.5-1.5h0.5v-3.5c0.032-0.811,0.566-1.499,1.33-1.722
		l3.049-0.763c0.039-0.01,0.08-0.015,0.121-0.015c0.041,0,0.083,0.005,0.123,0.015l3.029,0.758c0.778,0.227,1.316,0.912,1.348,1.707
		l0,3.52h0.5c0.827,0,1.5,0.673,1.5,1.5v2c0,0.276-0.224,0.5-0.5,0.5H6.283z M17.783,23.033v-1.5c0-0.276-0.224-0.5-0.5-0.5h-10
		c-0.276,0-0.5,0.224-0.5,0.5v1.5H17.783z M15.783,20.033v-3.5c-0.014-0.349-0.26-0.66-0.61-0.762l-2.89-0.722l-2.909,0.727
		c-0.336,0.098-0.577,0.411-0.592,0.777l0,3.48H15.783z"/>
	<path d="M12.019,14.036c-0.109,0-0.218-0.014-0.324-0.042c-0.389-0.101-0.712-0.383-0.864-0.755l-1.195-3.035l-3.113,0.179
		c-0.025,0.002-0.051,0.002-0.078,0.002c-0.299,0-0.588-0.11-0.814-0.311c-0.247-0.219-0.394-0.521-0.414-0.85
		c-0.023-0.37,0.12-0.727,0.392-0.979l1.872-1.868L6.168,3.067C6.054,2.7,6.085,2.35,6.25,2.039
		c0.163-0.307,0.435-0.531,0.768-0.633c0.124-0.038,0.252-0.057,0.38-0.057c0.129,0,0.257,0.019,0.38,0.057
		c0.007,0.002,0.033,0.011,0.04,0.014l3.305,1.314l1.885-1.887c0.222-0.24,0.549-0.382,0.891-0.382c0.313,0,0.612,0.117,0.841,0.329
		c0.271,0.252,0.415,0.608,0.394,0.976l-0.179,3.115l3.028,1.194c0.66,0.271,0.975,1.023,0.707,1.678
		c-0.152,0.372-0.475,0.654-0.864,0.755l-3.567,0.994l-0.998,3.578C13.114,13.643,12.604,14.036,12.019,14.036z M9.969,9.185
		c0.207,0,0.389,0.124,0.465,0.317l1.325,3.365c0.031,0.075,0.104,0.138,0.188,0.16c0.024,0.006,0.048,0.009,0.072,0.009
		c0.129,0,0.242-0.087,0.275-0.212l1.076-3.858c0.046-0.167,0.179-0.3,0.347-0.347l3.847-1.072c0.093-0.024,0.166-0.087,0.199-0.169
		c0.029-0.07,0.029-0.147-0.001-0.218s-0.084-0.125-0.154-0.153l-3.358-1.325c-0.201-0.079-0.328-0.278-0.315-0.494l0.2-3.476
		c0.004-0.07-0.023-0.137-0.075-0.185c-0.043-0.04-0.1-0.062-0.16-0.062c-0.066,0-0.128,0.027-0.172,0.075l-2.131,2.134
		c-0.095,0.095-0.22,0.147-0.354,0.147c-0.063,0-0.125-0.012-0.184-0.035c0,0-3.602-1.432-3.602-1.432
		c-0.004,0-0.032-0.004-0.059-0.004c-0.03,0-0.059,0.004-0.088,0.013C7.152,2.41,7.063,2.578,7.111,2.737l1.422,3.579
		c0.074,0.186,0.03,0.397-0.112,0.539L6.303,8.967C6.239,9.026,6.212,9.093,6.216,9.165c0.007,0.122,0.111,0.221,0.232,0.221
		L9.94,9.186C9.945,9.185,9.964,9.185,9.969,9.185z"/>
</g>
</svg>
