<?xml version="1.0" encoding="utf-8"?>
<!-- Generator: Adobe Illustrator 22.1.0, SVG Export Plug-In . SVG Version: 6.00 Build 0)  -->
<svg version="1.1" id="Layer_1" xmlns="http://www.w3.org/2000/svg" xmlns:xlink="http://www.w3.org/1999/xlink" x="0px" y="0px"
	 viewBox="0 0 24 24" style="enable-background:new 0 0 24 24;" xml:space="preserve">
<g>
	<title>award-wall-star</title>
	<path d="M11.997,23.996c-0.381,0-0.756-0.103-1.084-0.298l-5.858-3.905c-0.631-0.473-1.011-1.178-1.054-1.943L4,5.497H3.414
		c-0.209,0.59-0.774,1-1.414,1c-0.827,0-1.5-0.673-1.5-1.5s0.673-1.5,1.5-1.5c0.64,0,1.205,0.41,1.414,1h1.43l6.05-4.176
		c0.344-0.214,0.724-0.324,1.109-0.324c0.381,0,0.755,0.108,1.083,0.311l6.07,4.19h1.43c0.209-0.59,0.774-1,1.414-1
		c0.827,0,1.5,0.673,1.5,1.5s-0.673,1.5-1.5,1.5c-0.64,0-1.205-0.41-1.414-1H20v12.325c-0.043,0.787-0.419,1.495-1.032,1.955
		c-0.004,0.003-5.859,3.907-5.859,3.907C12.763,23.891,12.382,23.996,11.997,23.996z M5,17.822c0.026,0.447,0.257,0.873,0.632,1.155
		l5.813,3.875c0.157,0.093,0.352,0.146,0.551,0.146c0.204,0,0.405-0.055,0.58-0.16l5.808-3.873c0.361-0.274,0.59-0.704,0.616-1.171
		L19,5.497H5V17.822z M22,4.497c-0.276,0-0.5,0.224-0.5,0.5s0.224,0.5,0.5,0.5s0.5-0.224,0.5-0.5S22.276,4.497,22,4.497z M2,4.497
		c-0.276,0-0.5,0.224-0.5,0.5s0.224,0.5,0.5,0.5s0.5-0.224,0.5-0.5S2.276,4.497,2,4.497z M17.396,4.497l-4.858-3.354
		c-0.153-0.095-0.342-0.149-0.535-0.149c-0.197,0-0.391,0.056-0.561,0.162l-4.838,3.34H17.396z"/>
	<path d="M9.418,17.322c-0.366,0-0.706-0.196-0.888-0.512c-0.159-0.274-0.181-0.613-0.059-0.906l0.82-1.883l-1.464-1.294
		c-0.408-0.361-0.447-0.988-0.086-1.396c0.188-0.212,0.46-0.334,0.746-0.334c0.002,0,1.683,0,1.683,0l0.899-2.086
		c0.188-0.37,0.544-0.59,0.934-0.59c0.161,0,0.323,0.039,0.467,0.113c0.193,0.099,0.347,0.254,0.446,0.446
		c0.003,0.005,0.012,0.025,0.015,0.031l0.898,2.085c0,0,1.672,0,1.673,0c0.27,0,0.506,0.093,0.689,0.262
		c0.194,0.179,0.307,0.424,0.317,0.688c0.012,0.296-0.108,0.579-0.329,0.777l-1.466,1.296l0.817,1.875
		c0.107,0.258,0.108,0.537,0.004,0.791s-0.301,0.451-0.553,0.556c-0.125,0.052-0.257,0.078-0.393,0.078l0,0
		c-0.181,0-0.358-0.047-0.513-0.137L12,16.018l-2.077,1.169C9.772,17.275,9.596,17.322,9.418,17.322z M8.484,11.997l1.742,1.515
		c0.163,0.144,0.214,0.375,0.127,0.574l-0.962,2.209l0.026,0.026l2.339-1.313c0.074-0.042,0.159-0.064,0.245-0.064
		c0.086,0,0.17,0.022,0.245,0.064l2.327,1.307c0.001,0,0.027,0.004,0.027,0.004c0.01-0.004,0.017-0.021,0.013-0.031l-0.959-2.201
		c-0.087-0.2-0.036-0.43,0.127-0.574l1.736-1.535l-2.015,0.02c-0.2,0-0.38-0.119-0.459-0.302l-1.024-2.379
		c0,0-0.025,0.007-0.025,0.007l-1.032,2.372c-0.079,0.184-0.259,0.302-0.459,0.302l-2.011,0C8.485,11.997,8.484,11.997,8.484,11.997
		z"/>
</g>
</svg>
