<?xml version="1.0" encoding="utf-8"?>
<!-- Generator: Adobe Illustrator 22.1.0, SVG Export Plug-In . SVG Version: 6.00 Build 0)  -->
<svg version="1.1" id="Layer_1" xmlns="http://www.w3.org/2000/svg" xmlns:xlink="http://www.w3.org/1999/xlink" x="0px" y="0px"
	 viewBox="0 0 24 24" style="enable-background:new 0 0 24 24;" xml:space="preserve">
<g>
	<title>award-medal-1</title>
	<path d="M12,24c-4.411,0-8-3.589-8-8c0-4.411,3.589-8,8-8c4.411,0,8,3.589,8,8C20,20.411,16.411,24,12,24z M12,9
		c-3.86,0-7,3.14-7,7s3.14,7,7,7s7-3.14,7-7S15.86,9,12,9z"/>
	<path d="M17.063,8c-0.052,0-0.104-0.008-0.154-0.025c-0.262-0.085-0.406-0.367-0.321-0.63l1.409-4.35
		c0.017-0.051,0.025-0.1,0.025-0.153V1.5c0-0.276-0.224-0.5-0.5-0.5H16v5.5C16,6.776,15.776,7,15.5,7S15,6.776,15,6.5V1h-2v5.5
		C13,6.776,12.776,7,12.5,7C12.224,7,12,6.776,12,6.5V1h-2v5.5C10,6.776,9.776,7,9.5,7S9,6.776,9,6.5V1H7.5C7.224,1,7,1.224,7,1.5
		v1.333c0,0.055,0.009,0.109,0.027,0.161l1.488,4.344C8.558,7.464,8.55,7.6,8.491,7.72S8.33,7.93,8.204,7.973
		C8.152,7.991,8.097,8,8.042,8C7.828,8,7.638,7.864,7.569,7.662L6.081,3.319C6.027,3.163,6,2.999,6,2.833V1.5C6,0.673,6.673,0,7.5,0
		h10.021c0.827,0,1.5,0.673,1.5,1.5v1.342c0,0.159-0.025,0.315-0.074,0.465l-1.408,4.347C17.472,7.861,17.281,8,17.063,8z"/>
	<path d="M9.418,20.5c-0.366,0-0.706-0.196-0.888-0.512c-0.159-0.274-0.181-0.613-0.059-0.906l0.828-1.902l-1.491-1.467
		c-0.178-0.154-0.297-0.397-0.315-0.657c-0.018-0.264,0.068-0.519,0.242-0.718C7.922,14.123,8.193,14,8.476,14L8.521,14l1.659,0
		l0.895-1.926c0.184-0.359,0.538-0.576,0.927-0.576c0.162,0,0.325,0.039,0.47,0.114c0.193,0.1,0.347,0.255,0.445,0.448L13.819,14
		l1.711-0.001c0.243,0,0.478,0.094,0.661,0.263c0.194,0.179,0.307,0.424,0.317,0.688c0.012,0.296-0.108,0.58-0.33,0.778
		l-1.473,1.452l0.825,1.894c0.219,0.527-0.028,1.13-0.549,1.346c-0.125,0.052-0.257,0.078-0.393,0.078l0,0
		c-0.181,0-0.359-0.048-0.514-0.138L12,19.196l-2.077,1.169C9.772,20.452,9.596,20.5,9.418,20.5z M8.481,15l1.764,1.708
		c0.146,0.144,0.19,0.367,0.108,0.556l-0.962,2.209l0.026,0.026l2.339-1.313c0.074-0.042,0.159-0.064,0.245-0.064
		c0.086,0,0.17,0.022,0.245,0.064l2.327,1.307c0.001,0,0.027,0.004,0.027,0.004c0.01-0.004,0.017-0.021,0.013-0.031l-0.959-2.201
		c-0.082-0.188-0.039-0.412,0.107-0.556l1.736-1.71L13.5,15c-0.194,0-0.372-0.114-0.454-0.29l-1.026-2.208
		C12.013,12.501,12.006,12.5,12,12.5c-0.012,0-0.021,0.004-0.027,0.014l-1.02,2.196C10.872,14.886,10.694,15,10.5,15L8.481,15z"/>
</g>
</svg>
