<?xml version="1.0" encoding="utf-8"?>
<!-- Generator: Adobe Illustrator 22.1.0, SVG Export Plug-In . SVG Version: 6.00 Build 0)  -->
<svg version="1.1" id="Layer_1" xmlns="http://www.w3.org/2000/svg" xmlns:xlink="http://www.w3.org/1999/xlink" x="0px" y="0px"
	 viewBox="0 0 24 24" style="enable-background:new 0 0 24 24;" xml:space="preserve">
<title>mood-skull-chat</title>
<g>
	<path d="M5.25,24c-0.116,0-0.232-0.027-0.336-0.079C4.659,23.793,4.5,23.536,4.5,23.25V19.5H2.25C1.009,19.5,0,18.491,0,17.25v-15
		C0,1.009,1.009,0,2.25,0h19.5C22.991,0,24,1.009,24,2.25v15c0,1.241-1.009,2.25-2.25,2.25H11.5l-5.8,4.35
		C5.571,23.947,5.411,24,5.25,24z M2.25,1.5C1.836,1.5,1.5,1.836,1.5,2.25v15C1.5,17.664,1.836,18,2.25,18h3
		C5.664,18,6,18.336,6,18.75v3l4.8-3.6c0.129-0.097,0.289-0.15,0.45-0.15h10.5c0.414,0,0.75-0.336,0.75-0.75v-15
		c0-0.414-0.336-0.75-0.75-0.75H2.25z"/>
	<path d="M15,15c-0.414,0-0.75-0.336-0.75-0.75V12c0-0.286,0.159-0.543,0.414-0.671l0.158-0.079c0.572-0.286,0.928-0.86,0.927-1.5
		C15.75,7.682,14.068,6,12,6C9.932,6,8.25,7.682,8.25,9.75c0,0.64,0.355,1.214,0.927,1.5l0.158,0.079
		C9.591,11.457,9.75,11.714,9.75,12v2.25C9.75,14.664,9.414,15,9,15s-0.75-0.336-0.75-0.75v-1.801c-0.931-0.577-1.5-1.591-1.5-2.699
		C6.75,6.855,9.105,4.5,12,4.5c2.895,0,5.25,2.355,5.25,5.25c0,1.108-0.569,2.122-1.5,2.699v1.801C15.75,14.664,15.414,15,15,15z"/>
	<path d="M12,15c-0.414,0-0.75-0.336-0.75-0.75v-1.5c0-0.414,0.336-0.75,0.75-0.75s0.75,0.336,0.75,0.75v1.5
		C12.75,14.664,12.414,15,12,15z"/>
	<path d="M10.125,10.5C9.505,10.5,9,9.995,9,9.375S9.505,8.25,10.125,8.25c0.013,0,0.064,0.004,0.075,0.006
		c0.581,0.029,1.05,0.521,1.05,1.119C11.25,9.995,10.745,10.5,10.125,10.5z"/>
	<path d="M13.875,10.5c-0.62,0-1.125-0.505-1.125-1.125c0-0.597,0.468-1.089,1.066-1.121c0.001,0,0.047-0.004,0.059-0.004
		C14.495,8.25,15,8.755,15,9.375S14.495,10.5,13.875,10.5z"/>
</g>
</svg>
