<?xml version="1.0" encoding="utf-8"?>
<!-- Generator: Adobe Illustrator 22.1.0, SVG Export Plug-In . SVG Version: 6.00 Build 0)  -->
<svg version="1.1" id="Layer_1" xmlns="http://www.w3.org/2000/svg" xmlns:xlink="http://www.w3.org/1999/xlink" x="0px" y="0px"
	 viewBox="0 0 24 24" style="enable-background:new 0 0 24 24;" xml:space="preserve">
<title>mood-happy</title>
<g>
	<path d="M0.749,24c-0.201,0-0.389-0.078-0.531-0.22c-0.224-0.224-0.283-0.566-0.147-0.852l2.911-6.113
		c-0.974-1.702-1.486-3.632-1.484-5.596C1.507,5.033,6.547,0,12.733,0l0.034,0.375V0c2.101,0,4.155,0.587,5.94,1.696
		c2.548,1.584,4.328,4.07,5.011,7c0.683,2.93,0.187,5.946-1.397,8.495c-2.066,3.323-5.644,5.307-9.571,5.307c0,0,0,0,0,0
		c-1.952,0-3.872-0.511-5.566-1.481l-6.113,2.911C0.97,23.975,0.859,24,0.749,24z M12.733,1.5c-5.36,0-9.727,4.361-9.735,9.721
		c-0.003,1.825,0.506,3.609,1.47,5.158c0.136,0.219,0.151,0.487,0.04,0.719l-2.174,4.567l4.567-2.175
		C7,19.442,7.112,19.417,7.223,19.417c0.14,0,0.277,0.039,0.396,0.114c1.544,0.96,3.318,1.467,5.131,1.467
		c3.405,0,6.506-1.719,8.297-4.599c2.838-4.566,1.433-10.59-3.132-13.428c-1.547-0.962-3.327-1.47-5.148-1.47
		C12.763,1.5,12.733,1.5,12.733,1.5z"/>
	<path d="M12.749,17.25c-2.068,0-3.75-1.682-3.75-3.75c0-0.414,0.336-0.75,0.75-0.75h6c0.414,0,0.75,0.336,0.75,0.75
		C16.499,15.568,14.816,17.25,12.749,17.25z M10.627,14.25c0.313,0.879,1.159,1.5,2.121,1.5s1.808-0.621,2.121-1.5H10.627z"/>
	<circle cx="8.248" cy="9.75" r="1.125"/>
	<path d="M17.249,10.875c-0.62,0-1.125-0.505-1.125-1.125s0.505-1.125,1.125-1.125c0.013,0,0.064,0.004,0.074,0.005
		c0.582,0.029,1.051,0.522,1.051,1.12C18.374,10.37,17.869,10.875,17.249,10.875z"/>
</g>
</svg>
