<?xml version="1.0" encoding="utf-8"?>
<!-- Generator: Adobe Illustrator 22.1.0, SVG Export Plug-In . SVG Version: 6.00 Build 0)  -->
<svg version="1.1" id="Layer_1" xmlns="http://www.w3.org/2000/svg" xmlns:xlink="http://www.w3.org/1999/xlink" x="0px" y="0px"
	 viewBox="0 0 24 24" style="enable-background:new 0 0 24 24;" xml:space="preserve">
<title>mood-peace</title>
<g>
	<path d="M15.077,24c-0.414,0-0.75-0.336-0.75-0.75c0-1.465,0.735-2.813,1.967-3.606c0.347-0.223,0.625-0.542,0.805-0.915
		c-0.446-0.27-0.795-0.669-1.002-1.142c-0.375,0.212-0.799,0.326-1.235,0.326c-1.292,0-2.36-0.977-2.504-2.231
		C11.966,15.89,11.527,16,11.075,16h-0.038c0.819,0.872,1.288,2.03,1.288,3.25c0,0.414-0.336,0.75-0.75,0.75s-0.75-0.336-0.75-0.75
		c0-1.792-1.458-3.25-3.25-3.25c-0.414,0-0.75-0.336-0.75-0.75s0.336-0.75,0.75-0.75h3.5c0.689,0,1.25-0.561,1.25-1.25
		S11.764,12,11.075,12h-4.75c-0.689,0-1.25,0.561-1.25,1.25v5c0,0.84,0.462,1.604,1.206,1.993c1.106,0.58,1.793,1.716,1.794,2.964
		v0.042c0,0.414-0.336,0.75-0.75,0.75s-0.75-0.336-0.75-0.75v-0.041c-0.001-0.689-0.38-1.316-0.99-1.636
		c-1.24-0.649-2.01-1.922-2.01-3.322v-5c0-1.256,0.855-2.339,2.04-2.655L4.754,2.709C4.691,2.046,4.886,1.404,5.305,0.896
		c0.419-0.508,1.01-0.822,1.666-0.885C7.05,0.004,7.129,0,7.207,0c1.276,0,2.33,0.958,2.452,2.229l0.232,2.173l0.248-2.186
		c0.122-1.26,1.176-2.214,2.45-2.214c0.079,0,0.159,0.004,0.239,0.012c1.352,0.131,2.346,1.338,2.215,2.69l-0.671,6.674
		c0.16-0.032,0.323-0.048,0.488-0.048c1.014,0,1.913,0.608,2.308,1.506c0.375-0.212,0.799-0.325,1.235-0.325
		c1.39,0.001,2.521,1.131,2.521,2.521v3.542c0,0.674-0.263,1.307-0.739,1.782c-0.435,0.435-1,0.691-1.608,0.732
		c-0.285,0.745-0.8,1.384-1.472,1.817c-0.801,0.516-1.279,1.393-1.279,2.346C15.827,23.664,15.49,24,15.077,24z M18.209,17.575
		c0.064,0.012,0.13,0.019,0.194,0.019c0.273,0,0.53-0.106,0.722-0.299c0.193-0.193,0.299-0.449,0.299-0.721v-3.542
		c0-0.562-0.458-1.02-1.021-1.021v-0.375l0,0.375c-0.272,0-0.529,0.106-0.721,0.299c-0.193,0.193-0.299,0.449-0.299,0.722v3.542
		c0,0.469,0.333,0.886,0.79,0.993C18.173,17.566,18.198,17.572,18.209,17.575z M14.861,10.83c-0.272,0-0.529,0.106-0.722,0.299
		c-0.193,0.193-0.299,0.449-0.299,0.722v3.541c0,0.562,0.458,1.02,1.02,1.021c0.563,0,1.021-0.458,1.022-1.021v-3.54
		C15.883,11.288,15.425,10.83,14.861,10.83l0-0.375L14.861,10.83z M11.075,10.5c0.519,0,1.017,0.144,1.448,0.413
		c0.062-0.156,0.14-0.305,0.232-0.445l0.795-7.912c0.051-0.527-0.338-0.999-0.867-1.05c-0.033-0.003-0.065-0.005-0.096-0.005
		c-0.489,0-0.909,0.383-0.956,0.871L10.709,10.5H11.075z M9.035,10.5L8.167,2.38C8.12,1.885,7.698,1.5,7.208,1.5
		c-0.031,0-0.062,0.001-0.093,0.005c-0.53,0.051-0.919,0.523-0.868,1.052L7.114,10.5H9.035z"/>
</g>
</svg>
