<?xml version="1.0" encoding="utf-8"?>
<!-- Generator: Adobe Illustrator 22.1.0, SVG Export Plug-In . SVG Version: 6.00 Build 0)  -->
<svg version="1.1" id="Layer_1" xmlns="http://www.w3.org/2000/svg" xmlns:xlink="http://www.w3.org/1999/xlink" x="0px" y="0px"
	 viewBox="0 0 24 24" style="enable-background:new 0 0 24 24;" xml:space="preserve">
<title>mood-rock</title>
<g>
	<path d="M12,23.999c-4.729,0-8.576-3.847-8.576-8.576V4.663c-0.016-0.709,0.25-1.392,0.75-1.915c0.5-0.523,1.173-0.82,1.896-0.836
		C6.093,1.912,6.12,1.911,6.147,1.911c0.689,0,1.347,0.267,1.853,0.751c0.523,0.5,0.82,1.173,0.836,1.896
		c0.001,0.041,0.001,0.081,0,0.121l0,2.493C9.204,6.987,9.61,6.89,10.026,6.89l0.081,0.001c0.724,0.016,1.403,0.322,1.895,0.838
		c0.506-0.532,1.207-0.839,1.953-0.839l0.063,0.001c0.4,0.009,0.79,0.107,1.144,0.284c0,0-0.001-4.531,0-4.573
		c0.033-1.459,1.247-2.646,2.706-2.646l0.063,0.001c1.491,0.034,2.677,1.275,2.644,2.767v13.363c0,0.009,0,0.018-0.001,0.028
		c-0.014,1.745-0.876,3.683-2.308,5.188C16.613,23.041,14.388,23.999,12,23.999z M6.102,3.412c-0.321,0.007-0.621,0.14-0.844,0.373
		C5.035,4.018,4.916,4.324,4.924,4.646l0,10.777c0,3.902,3.174,7.076,7.076,7.076c4.384,0,7.076-3.735,7.076-6.413
		c-0.03-0.881-0.493-1.719-1.238-2.229c-0.564-0.406-1.217-0.619-1.897-0.62c-0.009,0.001-0.018,0.001-0.028,0.001
		c-0.008,0-0.017,0-0.026-0.001h-3.398c-0.633,0.014-1.148,0.532-1.162,1.179c-0.007,0.322,0.111,0.628,0.334,0.861
		s0.523,0.365,0.845,0.373h3.401c0.419,0,0.756,0.336,0.756,0.75s-0.336,0.75-0.75,0.75c-0.845,0.001-1.639,0.331-2.237,0.929
		c-0.598,0.598-0.927,1.392-0.926,2.235c0,0.2-0.078,0.389-0.219,0.531c-0.142,0.142-0.33,0.22-0.53,0.22
		c-0.414,0-0.75-0.336-0.751-0.75c-0.001-1.185,0.449-2.311,1.238-3.165c-0.736-0.017-1.412-0.313-1.912-0.836
		c-0.181-0.189-0.332-0.4-0.45-0.628c-0.027,0.001-0.055,0.001-0.082,0.001c-0.46,0-0.918-0.12-1.324-0.348
		c-0.632-0.355-1.087-0.934-1.283-1.631c-0.067-0.238-0.101-0.483-0.101-0.73c0,0,0.001-8.368,0-8.387
		C7.322,3.93,6.79,3.412,6.126,3.412L6.102,3.412z M10.047,8.39c-0.664,0-1.195,0.518-1.21,1.18l0,3.407
		c0,0.11,0.015,0.219,0.045,0.325c0.087,0.312,0.291,0.571,0.573,0.729c0.12,0.067,0.251,0.114,0.385,0.137
		c0.091-0.893,0.622-1.684,1.41-2.108V9.553c-0.015-0.633-0.532-1.148-1.179-1.162L10.047,8.39z M16.663,11.793
		c0.733,0.113,1.431,0.399,2.038,0.837c0.13,0.089,0.255,0.186,0.375,0.29V2.707c0.015-0.678-0.514-1.236-1.179-1.251l-0.023,0
		c-0.653,0-1.196,0.529-1.21,1.18C16.662,2.654,16.663,11.793,16.663,11.793z M13.96,8.39c-0.653,0-1.196,0.529-1.21,1.18v2.167
		l2.413,0V9.553c-0.014-0.633-0.532-1.148-1.179-1.162L13.96,8.39z"/>
</g>
</svg>
