<?xml version="1.0" encoding="utf-8"?>
<!-- Generator: Adobe Illustrator 22.1.0, SVG Export Plug-In . SVG Version: 6.00 Build 0)  -->
<svg version="1.1" id="Layer_1" xmlns="http://www.w3.org/2000/svg" xmlns:xlink="http://www.w3.org/1999/xlink" x="0px" y="0px"
	 viewBox="0 0 24 24" style="enable-background:new 0 0 24 24;" xml:space="preserve">
<g>
	<title>cd-box-1</title>
	<path d="M1.5,24C0.673,24,0,23.327,0,22.5v-21C0,0.673,0.673,0,1.5,0h21C23.327,0,24,0.673,24,1.5v21c0,0.827-0.673,1.5-1.5,1.5
		H1.5z M1.5,1C1.224,1,1,1.224,1,1.5v21C1,22.776,1.224,23,1.5,23h21c0.276,0,0.5-0.224,0.5-0.5v-21C23,1.224,22.776,1,22.5,1H1.5z"
		/>
	<path d="M12,21c-4.963,0-9-4.037-9-9s4.037-9,9-9s9,4.037,9,9S16.963,21,12,21z M12,4c-4.411,0-8,3.589-8,8c0,4.411,3.589,8,8,8
		c4.411,0,8-3.589,8-8C20,7.589,16.411,4,12,4z"/>
	<path d="M12,14c-1.103,0-2-0.897-2-2s0.897-2,2-2s2,0.897,2,2S13.103,14,12,14z M12,11c-0.551,0-1,0.449-1,1c0,0.552,0.449,1,1,1
		c0.552,0,1-0.448,1-1C13,11.449,12.552,11,12,11z"/>
	<path d="M10,16.533c-0.077,0-0.154-0.018-0.223-0.052C8.064,15.63,6.999,13.913,7,12c0-0.276,0.224-0.5,0.5-0.5S8,11.724,8,12
		c-0.001,1.531,0.851,2.905,2.222,3.585c0.247,0.122,0.348,0.423,0.226,0.67C10.363,16.427,10.191,16.533,10,16.533z"/>
	<path d="M16.5,12.5c-0.276,0-0.5-0.224-0.5-0.5c0.001-1.531-0.851-2.905-2.222-3.585c-0.12-0.059-0.209-0.162-0.252-0.289
		C13.483,8,13.493,7.864,13.552,7.745C13.636,7.574,13.808,7.467,14,7.467c0.076,0,0.153,0.018,0.222,0.052
		C15.936,8.37,17.001,10.087,17,12C17,12.276,16.776,12.5,16.5,12.5z"/>
</g>
</svg>
