<?xml version="1.0" encoding="utf-8"?>
<!-- Generator: Adobe Illustrator 22.1.0, SVG Export Plug-In . SVG Version: 6.00 Build 0)  -->
<svg version="1.1" id="Layer_1" xmlns="http://www.w3.org/2000/svg" xmlns:xlink="http://www.w3.org/1999/xlink" x="0px" y="0px"
	 viewBox="0 0 24 24" style="enable-background:new 0 0 24 24;" xml:space="preserve">
<g>
	<title>cd-rom</title>
	<path d="M12,24c-3.86,0-7-2.692-7-6c0.012-1.088,0.332-2.115,0.928-3H4.516c-0.276,0-0.5-0.224-0.5-0.5S4.24,14,4.516,14H19.5
		c0.276,0,0.5,0.224,0.5,0.5S19.776,15,19.5,15h-1.428c0.596,0.885,0.916,1.91,0.928,2.994C19,21.307,15.86,24,12,24z M7.203,15
		C6.439,15.822,6.013,16.885,6,18.006C6,20.758,8.692,23,12,23c3.308,0,6-2.243,6-5c-0.013-1.116-0.439-2.178-1.203-3H7.203z"/>
	<path d="M20.5,19c-0.275,0-0.499-0.224-0.5-0.498c-0.001-0.276,0.223-0.501,0.498-0.502c0.826-0.002,1.5-0.676,1.502-1.501V13.5
		c-0.002-0.824-0.676-1.497-1.501-1.5H3.5c-0.824,0.003-1.497,0.676-1.5,1.501V16.5c0.003,0.824,0.676,1.498,1.501,1.5
		C3.777,18.001,4.001,18.226,4,18.501C3.999,18.776,3.775,19,3.5,19c-1.375-0.004-2.496-1.125-2.5-2.499V13.5
		c0-0.176,0.021-0.355,0.061-0.534c0.001-0.01,0.002-0.02,0.004-0.029L3.556,2.333C3.878,0.959,5.089,0,6.5,0h11
		c1.41,0,2.62,0.957,2.944,2.328l2.49,10.601c0.003,0.012,0.005,0.026,0.006,0.04c0.039,0.172,0.06,0.353,0.06,0.53V16.5
		c-0.004,1.375-1.125,2.496-2.499,2.5C20.501,19,20.5,19,20.5,19z M20.5,11c0.351,0.001,0.69,0.074,1.004,0.214L19.47,2.557
		C19.254,1.641,18.444,1,17.502,1H6.5C5.555,1,4.745,1.642,4.53,2.561l-2.032,8.652C2.81,11.074,3.149,11.001,3.499,11
		C3.499,11,20.5,11,20.5,11z"/>
	<path d="M12,19.5c-0.965,0-1.75-0.673-1.75-1.5s0.785-1.5,1.75-1.5c0.965,0,1.75,0.673,1.75,1.5S12.965,19.5,12,19.5z M12,17.5
		c-0.406,0-0.75,0.229-0.75,0.5s0.344,0.5,0.75,0.5s0.75-0.229,0.75-0.5S12.406,17.5,12,17.5z"/>
</g>
</svg>
