<svg xmlns="http://www.w3.org/2000/svg" viewBox="0 0 24 24"><defs><style>.a,.b{fill:none;stroke:currentColor;stroke-linejoin:round;stroke-width:1.5px;}.a{stroke-linecap:round;}</style></defs><title>calendar-home</title><path class="a" d="M12.75,15.948v5.8a1.5,1.5,0,0,0,1.5,1.5h6a1.5,1.5,0,0,0,1.5-1.5v-5.8"/><path class="a" d="M11.25,17.261l4.518-3.954a2.252,2.252,0,0,1,2.964,0l4.518,3.954"/><path class="a" d="M18.75,23.25h-3v-3a1.5,1.5,0,0,1,3,0Z"/><path class="a" d="M8.25,17.25h-6a1.5,1.5,0,0,1-1.5-1.5V3.765a1.5,1.5,0,0,1,1.5-1.5h13.5a1.5,1.5,0,0,1,1.5,1.5V8.25"/><line class="b" x1="0.75" y1="6.75" x2="17.25" y2="6.75"/><line class="a" x1="5.243" y1="3.75" x2="5.243" y2="0.75"/><line class="a" x1="12.743" y1="3.75" x2="12.743" y2="0.75"/></svg>