<svg xmlns="http://www.w3.org/2000/svg" viewBox="0 0 24 24"><defs><style>.a,.b{fill:none;stroke:currentColor;stroke-linejoin:round;stroke-width:1.5px;}.a{stroke-linecap:round;}</style></defs><title>calendar-skull</title><path class="a" d="M11.25,17.25h-9a1.5,1.5,0,0,1-1.5-1.5V3.765a1.5,1.5,0,0,1,1.5-1.5h13.5a1.5,1.5,0,0,1,1.5,1.5V10.5"/><line class="b" x1="0.75" y1="6.75" x2="17.25" y2="6.75"/><line class="a" x1="5.243" y1="3.75" x2="5.243" y2="0.75"/><line class="a" x1="12.743" y1="3.75" x2="12.743" y2="0.75"/><path class="a" d="M15.75,23.25V21l-.158-.079A2.425,2.425,0,0,1,14.25,18.75a4.5,4.5,0,0,1,9,0,2.425,2.425,0,0,1-1.342,2.171L21.75,21v2.25"/><line class="a" x1="18.75" y1="21.75" x2="18.75" y2="23.25"/><line class="a" x1="16.875" y1="18" x2="16.875" y2="18"/><path class="a" d="M16.875,18a.375.375,0,1,0,.375.375A.375.375,0,0,0,16.875,18"/><line class="a" x1="20.625" y1="18" x2="20.625" y2="18"/><path class="a" d="M20.625,18a.375.375,0,1,0,.375.375A.375.375,0,0,0,20.625,18"/></svg>