<svg xmlns="http://www.w3.org/2000/svg" viewBox="0 0 24 24"><defs><style>.a{fill:none;stroke:currentColor;stroke-linecap:round;stroke-linejoin:round;stroke-width:1.5px;}</style></defs><title>calendar-favorite-heart</title><rect class="a" x="0.75" y="3.75" width="22.5" height="19.5" rx="1.5" ry="1.5"/><line class="a" x1="0.75" y1="9.75" x2="23.25" y2="9.75"/><line class="a" x1="6.75" y1="6" x2="6.75" y2="0.75"/><line class="a" x1="17.25" y1="6" x2="17.25" y2="0.75"/><path class="a" d="M15.93,13.6a1.9,1.9,0,0,0-2.751,0L12,14.814,10.821,13.6a1.9,1.9,0,0,0-2.751,0,2.059,2.059,0,0,0,0,2.844l3.511,3.631a.579.579,0,0,0,.838,0L15.93,16.44A2.059,2.059,0,0,0,15.93,13.6Z"/></svg>