<svg xmlns="http://www.w3.org/2000/svg" viewBox="0 0 24 24"><defs><style>.a,.b{fill:none;stroke:currentColor;stroke-linejoin:round;stroke-width:1.5px;}.a{stroke-linecap:round;}</style></defs><title>calendar-favorite-heart-1</title><path class="a" d="M17.25,23.25l-5.114-5.334a3.025,3.025,0,0,1-.566-3.493h0a3.025,3.025,0,0,1,4.845-.786l.835.835.835-.835a3.026,3.026,0,0,1,4.846.786h0a3.027,3.027,0,0,1-.567,3.493Z"/><path class="a" d="M8.25,17.25h-6a1.5,1.5,0,0,1-1.5-1.5V3.765a1.5,1.5,0,0,1,1.5-1.5h13.5a1.5,1.5,0,0,1,1.5,1.5V8.25"/><line class="b" x1="0.75" y1="6.75" x2="17.25" y2="6.75"/><line class="a" x1="5.243" y1="3.75" x2="5.243" y2="0.75"/><line class="a" x1="12.743" y1="3.75" x2="12.743" y2="0.75"/></svg>