<?xml version="1.0" encoding="utf-8"?>
<!-- Generator: Adobe Illustrator 22.1.0, SVG Export Plug-In . SVG Version: 6.00 Build 0)  -->
<svg version="1.1" id="Layer_1" xmlns="http://www.w3.org/2000/svg" xmlns:xlink="http://www.w3.org/1999/xlink" x="0px" y="0px"
	 viewBox="0 0 24 24" style="enable-background:new 0 0 24 24;" xml:space="preserve">
<title>equalizer</title>
<g>
	<path d="M2.25,24C1.009,24,0,22.991,0,21.75V2.25C0,1.009,1.009,0,2.25,0h19.5C22.991,0,24,1.009,24,2.25v19.5
		c0,1.241-1.009,2.25-2.25,2.25H2.25z M2.25,1.5C1.836,1.5,1.5,1.836,1.5,2.25v19.5c0,0.414,0.336,0.75,0.75,0.75h19.5
		c0.414,0,0.75-0.336,0.75-0.75V2.25c0-0.414-0.336-0.75-0.75-0.75H2.25z"/>
	<path d="M6,21c-0.414,0-0.75-0.336-0.75-0.75v-3.129C4.365,16.808,3.75,15.96,3.75,15s0.615-1.808,1.5-2.121V7.5
		c0-0.414,0.336-0.75,0.75-0.75S6.75,7.086,6.75,7.5v5.379c0.885,0.313,1.5,1.161,1.5,2.121s-0.615,1.808-1.5,2.121v3.129
		C6.75,20.664,6.414,21,6,21z M6,14.25c-0.414,0-0.75,0.336-0.75,0.75S5.586,15.75,6,15.75S6.75,15.414,6.75,15S6.414,14.25,6,14.25
		z"/>
	<path d="M12,21c-0.414,0-0.75-0.336-0.75-0.75v-6.129c-0.885-0.313-1.5-1.161-1.5-2.121c0-0.96,0.615-1.808,1.5-2.121V7.5
		c0-0.414,0.336-0.75,0.75-0.75s0.75,0.336,0.75,0.75v2.379c0.885,0.314,1.5,1.162,1.5,2.121s-0.615,1.808-1.5,2.121v6.129
		C12.75,20.664,12.414,21,12,21z M12,11.25c-0.414,0-0.75,0.336-0.75,0.75s0.336,0.75,0.75,0.75s0.75-0.336,0.75-0.75
		S12.414,11.25,12,11.25z"/>
	<path d="M18,21c-0.414,0-0.75-0.336-0.75-0.75v-3.129c-0.885-0.314-1.5-1.162-1.5-2.121s0.615-1.808,1.5-2.121V7.5
		c0-0.414,0.336-0.75,0.75-0.75s0.75,0.336,0.75,0.75v5.379c0.885,0.314,1.5,1.162,1.5,2.121s-0.615,1.808-1.5,2.121v3.129
		C18.75,20.664,18.414,21,18,21z M18,14.25c-0.414,0-0.75,0.336-0.75,0.75s0.336,0.75,0.75,0.75s0.75-0.336,0.75-0.75
		S18.414,14.25,18,14.25z"/>
	<path d="M3.75,5.25C3.336,5.25,3,4.914,3,4.5s0.336-0.75,0.75-0.75h16.5C20.664,3.75,21,4.086,21,4.5s-0.336,0.75-0.75,0.75H3.75z"
		/>
</g>
</svg>
