<?xml version="1.0" encoding="utf-8"?>
<!-- Generator: Adobe Illustrator 22.1.0, SVG Export Plug-In . SVG Version: 6.00 Build 0)  -->
<svg version="1.1" id="Layer_1" xmlns="http://www.w3.org/2000/svg" xmlns:xlink="http://www.w3.org/1999/xlink" x="0px" y="0px"
	 viewBox="0 0 24 24" style="enable-background:new 0 0 24 24;" xml:space="preserve">
<g>
	<title>flash-1</title>
	<path d="M10,23.998c-0.07,0-0.139-0.015-0.203-0.043c-0.216-0.096-0.336-0.334-0.284-0.565l1.865-8.392H4
		c-0.188,0-0.359-0.104-0.445-0.271s-0.072-0.366,0.038-0.52l10-14C13.687,0.076,13.839-0.002,14-0.002
		c0.071,0,0.139,0.015,0.204,0.044c0.216,0.096,0.335,0.333,0.284,0.565l-1.865,8.392H20c0.188,0,0.358,0.104,0.445,0.271
		c0.086,0.168,0.072,0.367-0.038,0.52l-10,14C10.313,23.92,10.161,23.998,10,23.998z M12,13.998c0.152,0,0.294,0.068,0.39,0.187
		c0.096,0.12,0.131,0.273,0.098,0.422l-1.467,6.602l8.007-11.21H12c-0.152,0-0.295-0.068-0.39-0.187
		c-0.095-0.119-0.131-0.272-0.098-0.421l1.467-6.602l-8.007,11.21H12z"/>
</g>
</svg>
