<svg xmlns="http://www.w3.org/2000/svg" viewBox="0 0 24 24"><title>music-genre-moon-night</title><path d="M15.923,20.018A9.146,9.146,0,0,1,11.916,4.509,1.221,1.221,0,0,0,11.1,2.4a10.645,10.645,0,1,0,5.132,19.856,1.221,1.221,0,0,0-.308-2.24Z"/><path d="M23.089.733A1.839,1.839,0,0,0,21.575.341l-5.041.945a1.842,1.842,0,0,0-1.5,1.809V7.368c-.069-.006-.139-.01-.21-.01a2.18,2.18,0,1,0,0,4.36,2.268,2.268,0,0,0,2.21-2.18v-5.9a.5.5,0,0,1,.408-.491l3.719-.7a.5.5,0,0,1,.593.491V5.688c-.07-.007-.14-.01-.21-.01a2.18,2.18,0,1,0,0,4.36,2.266,2.266,0,0,0,2.21-2.18V2.15A1.838,1.838,0,0,0,23.089.733Z"/></svg>