<svg xmlns="http://www.w3.org/2000/svg" viewBox="0 0 24 24"><title>music-genre-smoke</title><path d="M22.477,9.324a.5.5,0,0,1-.275-.385,10.291,10.291,0,0,0-20.4,0,.5.5,0,0,1-.275.384,2.709,2.709,0,0,0-1.517,2.43v2.933a2.709,2.709,0,0,0,2.705,2.7h.664a.5.5,0,0,1,.439.261,9.326,9.326,0,0,0,10.407,4.61,1,1,0,0,0-.477-1.942,7.31,7.31,0,1,1,5.568-7.1,1,1,0,0,0,.166.553.5.5,0,0,1,.084.276v2.593a.75.75,0,0,0,.75.75h.977a2.709,2.709,0,0,0,2.7-2.7V11.753A2.707,2.707,0,0,0,22.477,9.324ZM12,3.91A9.3,9.3,0,0,0,4.764,7.368a.25.25,0,0,1-.425-.254,8.3,8.3,0,0,1,15.322,0,.25.25,0,0,1-.425.254A9.3,9.3,0,0,0,12,3.91Z"/><circle cx="8.333" cy="11.753" r="1.222"/><circle cx="15.471" cy="12.286" r="1.222"/><path d="M21.9,22.491a1.976,1.976,0,0,0-.427-2.871l-4.184-2.853a.5.5,0,0,1-.155-.658,5.772,5.772,0,0,0,.266-.534,1,1,0,1,0-1.832-.8,3.89,3.89,0,0,1-7.13,0,1,1,0,1,0-1.832.8,5.891,5.891,0,0,0,6.863,3.347.5.5,0,0,1,.477.13l4.4,4.374a1.978,1.978,0,0,0,2.938-.168Z"/></svg>