<svg xmlns="http://www.w3.org/2000/svg" viewBox="0 0 24 24"><title>music-genre-team</title><circle cx="3.535" cy="5.491" r="2.5"/><path d="M4.928,9.241a4,4,0,0,0-4.593,1.35.25.25,0,0,0,.2.4H5.15a.252.252,0,0,0,.161-.059q.38-.321.784-.6a.247.247,0,0,0,.107-.193.25.25,0,0,0-.088-.2A3.992,3.992,0,0,0,4.928,9.241Z"/><circle cx="20.465" cy="5.491" r="2.5"/><path d="M21.857,9.241a4,4,0,0,0-3.971.693.25.25,0,0,0,.019.4q.4.282.785.6a.25.25,0,0,0,.161.059h4.614a.25.25,0,0,0,.2-.4A4.017,4.017,0,0,0,21.857,9.241Z"/><path d="M13.452,14.238c-.041.008-3.572,1.14-3.572,1.14A2,2,0,0,0,8.321,17.33v2.984a.25.25,0,0,1-.188.242,1.75,1.75,0,1,0,2.188,1.694V17.513a.251.251,0,0,1,.175-.238c.554-.175,2.273-.726,3-.958a.251.251,0,0,1,.327.238v1.759a.25.25,0,0,1-.188.242,1.75,1.75,0,1,0,2.188,1.694V16.2A2,2,0,0,0,13.452,14.238Z"/><path d="M10.242,10.171A9.183,9.183,0,0,0,4.068,14.75a.5.5,0,0,0,.432.75H7.635a3.251,3.251,0,0,1,1.978-1.343s3.444-1.109,3.5-1.121A3.271,3.271,0,0,1,15.9,13.7h0a3.237,3.237,0,0,1,1.1,1.8H19.5a.5.5,0,0,0,.433-.75,9.187,9.187,0,0,0-6.175-4.58.252.252,0,0,1-.2-.224.247.247,0,0,1,.161-.252,5,5,0,1,0-3.432,0,.247.247,0,0,1,.161.252A.254.254,0,0,1,10.242,10.171ZM9,5a3.014,3.014,0,0,1,.156-.954.25.25,0,0,1,.356-.14,9.084,9.084,0,0,0,4.321,1.088,9.094,9.094,0,0,0,1.088-.065.07.07,0,0,1,.055.018A.068.068,0,0,1,15,5,3,3,0,0,1,9,5Z"/></svg>