<svg xmlns="http://www.w3.org/2000/svg" viewBox="0 0 24 24"><title>music-genre-80s</title><path d="M22,3H19.25A.25.25,0,0,1,19,2.75V1a1,1,0,0,0-2,0V4.75a.75.75,0,0,1-1.5,0V3.5A.5.5,0,0,0,15,3H7.75a.25.25,0,0,1-.25-.25V1a1,1,0,0,0-2,0V4.75a.75.75,0,0,1-1.5,0V3.5A.5.5,0,0,0,3.5,3H2A2,2,0,0,0,0,5V22a2,2,0,0,0,2,2H22a2,2,0,0,0,2-2V5A2,2,0,0,0,22,3Zm0,18.5a.5.5,0,0,1-.5.5H2.5a.5.5,0,0,1-.5-.5V8.5A.5.5,0,0,1,2.5,8h19a.5.5,0,0,1,.5.5Z"/><path d="M19,14.75h1a.75.75,0,0,0,0-1.5H19A1.752,1.752,0,0,0,17.25,15a2.553,2.553,0,0,0,1.3,2.1c.508.381.7.557.7.9a.25.25,0,0,1-.25.25H18a.75.75,0,0,0,0,1.5h1A1.752,1.752,0,0,0,20.75,18a2.553,2.553,0,0,0-1.3-2.1c-.508-.381-.7-.557-.7-.9A.25.25,0,0,1,19,14.75Z"/><path d="M13.5,10.25a3.254,3.254,0,0,0-3.25,3.25v3a3.25,3.25,0,0,0,6.5,0v-3A3.254,3.254,0,0,0,13.5,10.25Zm1.75,6.25a1.75,1.75,0,0,1-3.5,0v-3a1.75,1.75,0,0,1,3.5,0Z"/><path d="M8.326,13.812a2.25,2.25,0,1,0-3.652,0,3.25,3.25,0,1,0,3.652,0ZM5.75,12.5a.75.75,0,1,1,.75.75A.751.751,0,0,1,5.75,12.5Zm.75,5.75A1.75,1.75,0,1,1,8.25,16.5,1.752,1.752,0,0,1,6.5,18.25Z"/></svg>