<?xml version="1.0" encoding="utf-8"?>
<!-- Generator: Adobe Illustrator 22.1.0, SVG Export Plug-In . SVG Version: 6.00 Build 0)  -->
<svg version="1.1" id="Layer_1" xmlns="http://www.w3.org/2000/svg" xmlns:xlink="http://www.w3.org/1999/xlink" x="0px" y="0px"
	 viewBox="0 0 24 24" style="enable-background:new 0 0 24 24;" xml:space="preserve">
<g>
	<title>phone-selfie-front</title>
	<circle cx="13" cy="21.5" r="0.75"/>
	<path d="M22,24c-0.134,0-0.259-0.052-0.354-0.146l-1.729-1.729C19.637,23.199,18.652,24,17.5,24h-9C7.121,24,6,22.878,6,21.5v-17
		C6,3.121,7.121,2,8.5,2h9C18.878,2,20,3.121,20,4.5v7.293l2.146,2.146C22.697,14.49,23,15.222,23,16v2
		c0,0.511,0.199,0.992,0.561,1.354l0.293,0.293C23.948,19.741,24,19.866,24,20s-0.052,0.259-0.146,0.354S23.634,20.5,23.5,20.5
		s-0.259-0.052-0.354-0.146l-0.293-0.293C22.303,19.51,22,18.778,22,18v-2c0-0.511-0.199-0.992-0.561-1.354L20,13.207v1.672
		l1.061,1.061c0.195,0.195,0.195,0.512,0,0.707c-0.094,0.094-0.22,0.146-0.354,0.146s-0.259-0.052-0.354-0.146l-1.5-1.5
		c-0.089-0.085-0.21-0.134-0.34-0.134c-0.138,0-0.266,0.054-0.361,0.153c-0.188,0.195-0.188,0.5,0,0.695l1.701,1.7
		C19.948,17.654,20,17.78,20,17.913V20c0,0.511,0.199,0.992,0.561,1.354l1.793,1.793c0.094,0.094,0.146,0.22,0.146,0.354
		s-0.052,0.259-0.146,0.354S22.134,24,22,24z M7,21.5C7,22.327,7.673,23,8.5,23h9c0.827,0,1.5-0.673,1.5-1.5V20H7V21.5z M19,19
		v-0.88l-1.561-1.56c-0.569-0.589-0.571-1.506-0.006-2.09c0.283-0.293,0.664-0.454,1.072-0.454c0.171,0,0.337,0.028,0.494,0.083V4.5
		C19,3.673,18.327,3,17.5,3h-9C7.673,3,7,3.673,7,4.5v11.585c0.672-0.637,1.913-1.093,3.508-1.679l0.514-0.189
		c0.014-0.02,0.041-0.07,0.066-0.163c0.106-0.403,0.02-0.901-0.032-1.015c-0.879-0.962-1.316-2.255-1.203-3.555
		c-0.005-0.06-0.008-0.119-0.009-0.179c-0.021-0.86,0.294-1.678,0.889-2.303c0.594-0.625,1.396-0.98,2.255-1.002
		c0.1,0.002,0.176,0.006,0.251,0.014c1.749,0.168,3.048,1.722,2.906,3.47c0.114,1.299-0.324,2.593-1.204,3.556
		c-0.052,0.115-0.137,0.612-0.031,1.014c0.024,0.092,0.052,0.143,0.066,0.163l0.282,0.103c0.171,0.062,0.339,0.122,0.503,0.186
		c0.257,0.099,0.385,0.39,0.286,0.647c-0.075,0.194-0.258,0.32-0.466,0.32c-0.062,0-0.123-0.011-0.18-0.034
		c-0.157-0.061-0.318-0.119-0.482-0.178l-0.312-0.114c-0.23-0.085-0.534-0.306-0.672-0.874c-0.129-0.53-0.095-1.506,0.254-1.89
		c0.71-0.77,1.059-1.808,0.958-2.848c-0.003-0.031-0.003-0.065,0-0.099c0.117-1.219-0.781-2.308-2.002-2.425
		c-0.05-0.005-0.1-0.008-0.15-0.009c-1.217,0.034-2.181,1.055-2.151,2.279c0.001,0.052,0.005,0.105,0.01,0.158
		c0.003,0.032,0.003,0.064,0,0.096c-0.101,1.04,0.247,2.077,0.955,2.845c0.351,0.386,0.386,1.362,0.257,1.892
		c-0.139,0.568-0.442,0.789-0.673,0.874l-0.537,0.198c-1.577,0.58-3.066,1.127-3.342,1.679C7.249,17.644,7.084,18.311,7.024,19H19z"
		/>
	<path d="M0.5,3C0.224,3,0,2.776,0,2.5S0.224,2,0.5,2h1C1.776,2,2,2.224,2,2.5S1.776,3,1.5,3H0.5z"/>
	<path d="M2.5,2C2.224,2,2,1.776,2,1.5v-1C2,0.224,2.224,0,2.5,0S3,0.224,3,0.5v1C3,1.776,2.776,2,2.5,2z"/>
	<path d="M3.5,3C3.224,3,3,2.776,3,2.5S3.224,2,3.5,2h1C4.776,2,5,2.224,5,2.5S4.776,3,4.5,3H3.5z"/>
	<path d="M2.5,5C2.224,5,2,4.776,2,4.5v-1C2,3.224,2.224,3,2.5,3S3,3.224,3,3.5v1C3,4.776,2.776,5,2.5,5z"/>
</g>
</svg>
