<svg xmlns="http://www.w3.org/2000/svg" viewBox="0 0 24 24"><title>server-lock-1</title><path d="M10,20a.25.25,0,0,1-.25-.25v-2.5A.25.25,0,0,1,10,17h2a.5.5,0,0,0,.5-.5V16a1.994,1.994,0,0,1,1.207-1.83.5.5,0,0,0,.3-.432,4.9,4.9,0,0,1,.182-1.1.5.5,0,0,0-.48-.638H2.5a2.5,2.5,0,0,0,0,5H8a.25.25,0,0,1,.25.25v2.5A.25.25,0,0,1,8,20H5a.75.75,0,0,0,0,1.5h7a.5.5,0,0,0,.5-.5v-.5A.5.5,0,0,0,12,20ZM3,14.5a1.25,1.25,0,1,1,1.25,1.25A1.249,1.249,0,0,1,3,14.5Zm5,1.25A1.25,1.25,0,1,1,9.25,14.5,1.25,1.25,0,0,1,8,15.75Z"/><path d="M1,20a.75.75,0,0,0,0,1.5H2A.75.75,0,0,0,2,20Z"/><path d="M2.5,5h13a2.5,2.5,0,0,0,0-5H2.5a2.5,2.5,0,0,0,0,5ZM3,2.5A1.25,1.25,0,1,1,4.25,3.75,1.249,1.249,0,0,1,3,2.5Zm3.75,0A1.25,1.25,0,1,1,8,3.75,1.249,1.249,0,0,1,6.75,2.5Z"/><path d="M17.622,9.2a.5.5,0,0,0,.358-.412A2.1,2.1,0,0,0,18,8.5,2.5,2.5,0,0,0,15.5,6H2.5a2.5,2.5,0,0,0,0,5H14.782a.5.5,0,0,0,.385-.181A4.989,4.989,0,0,1,17.622,9.2ZM3,8.5A1.25,1.25,0,1,1,4.25,9.75,1.249,1.249,0,0,1,3,8.5ZM8,9.75A1.25,1.25,0,1,1,9.25,8.5,1.25,1.25,0,0,1,8,9.75Z"/><path d="M19,10.75a3.5,3.5,0,0,0-3.5,3.5v1.018a.25.25,0,0,1-.214.247A1.5,1.5,0,0,0,14,17v5.5A1.5,1.5,0,0,0,15.5,24h7A1.5,1.5,0,0,0,24,22.5V17a1.5,1.5,0,0,0-1.286-1.485.25.25,0,0,1-.214-.247V14.25A3.5,3.5,0,0,0,19,10.75Zm1,9.5a1,1,0,1,1-1-1A1,1,0,0,1,20,20.25Zm-1-7.5a1.5,1.5,0,0,1,1.5,1.5v1a.25.25,0,0,1-.25.25h-2.5a.25.25,0,0,1-.25-.25v-1A1.5,1.5,0,0,1,19,12.75Z"/></svg>