<svg xmlns="http://www.w3.org/2000/svg" viewBox="0 0 24 24"><title>server</title><path d="M24,6a1.5,1.5,0,0,0-1.5-1.5H1.5A1.5,1.5,0,0,0,0,6V8.5A1.5,1.5,0,0,0,1.5,10h21A1.5,1.5,0,0,0,24,8.5ZM3.25,7.248A1.25,1.25,0,1,1,4.5,8.5,1.251,1.251,0,0,1,3.25,7.248ZM8.5,8.5a1.25,1.25,0,1,1,1.25-1.25A1.252,1.252,0,0,1,8.5,8.5Z"/><path d="M22.735,2.054,18.841.107a1,1,0,0,0-.447-.1H5.63a1.007,1.007,0,0,0-.448.105L1.288,2.054A.5.5,0,0,0,1.512,3h21a.5.5,0,0,0,.223-.948Z"/><path d="M24,13a1.5,1.5,0,0,0-1.5-1.5H1.5A1.5,1.5,0,0,0,0,13v2.5A1.5,1.5,0,0,0,1.5,17h9.25a.25.25,0,0,1,.25.25v4.5a.25.25,0,0,1-.25.25H5.5a1,1,0,0,0,0,2h13a1,1,0,0,0,0-2H13.25a.25.25,0,0,1-.25-.25v-4.5a.25.25,0,0,1,.25-.25H22.5A1.5,1.5,0,0,0,24,15.5ZM3.25,14.248A1.25,1.25,0,1,1,4.5,15.5,1.251,1.251,0,0,1,3.25,14.248ZM8.5,15.5a1.25,1.25,0,1,1,1.25-1.25A1.252,1.252,0,0,1,8.5,15.5Z"/><path d="M23,24a1,1,0,0,0,0-2H22a1,1,0,0,0,0,2Z"/><path d="M1,24H2a1,1,0,0,0,0-2H1a1,1,0,0,0,0,2Z"/></svg>