<svg xmlns="http://www.w3.org/2000/svg" viewBox="0 0 24 24"><title>server-clock</title><path d="M0,3.5A2.5,2.5,0,0,0,2.5,6h17A2.5,2.5,0,0,0,22,3.5v-1A2.5,2.5,0,0,0,19.5,0H2.5A2.5,2.5,0,0,0,0,2.5ZM3.635,3A1.115,1.115,0,1,1,4.75,4.114,1.115,1.115,0,0,1,3.635,3ZM7.5,3A1.115,1.115,0,1,1,8.615,4.114,1.114,1.114,0,0,1,7.5,3Z"/><path d="M17.25,9a8.169,8.169,0,0,1,4.006,1.046A.5.5,0,0,0,22,9.611V9.5A2.5,2.5,0,0,0,19.5,7H2.5A2.5,2.5,0,0,0,0,9.5v1A2.5,2.5,0,0,0,2.5,13H9.924a.488.488,0,0,0,.411-.228A8.24,8.24,0,0,1,17.25,9ZM9.729,10A1.115,1.115,0,1,1,8.615,8.885,1.115,1.115,0,0,1,9.729,10ZM5.865,10A1.115,1.115,0,1,1,4.75,8.885,1.115,1.115,0,0,1,5.865,10Z"/><path d="M0,17.5A2.5,2.5,0,0,0,2.5,20H8.8a.5.5,0,0,0,.477-.648,8.152,8.152,0,0,1,.146-4.711A.5.5,0,0,0,8.946,14H2.5A2.5,2.5,0,0,0,0,16.5ZM3.635,17A1.115,1.115,0,1,1,4.75,18.114,1.115,1.115,0,0,1,3.635,17Z"/><path d="M10.5,17.25a6.75,6.75,0,1,0,6.75-6.75A6.758,6.758,0,0,0,10.5,17.25ZM17.25,22A4.75,4.75,0,1,1,22,17.25,4.756,4.756,0,0,1,17.25,22Z"/><path d="M16.25,17.25a1,1,0,0,0,1,1h2a1,1,0,0,0,0-2H18.5a.25.25,0,0,1-.25-.25V14.75a1,1,0,0,0-2,0Z"/></svg>