<svg xmlns="http://www.w3.org/2000/svg" viewBox="0 0 24 24"><title>server-server-exchange</title><path d="M9.276,3.947A.508.508,0,0,0,9.5,4a.5.5,0,0,0,.3-.1l2-1.5a.5.5,0,0,0,0-.8L9.8.1A.505.505,0,0,0,9.276.052.5.5,0,0,0,9,.5V.75A.25.25,0,0,1,8.75,1H7A3,3,0,0,0,4,4V5.5a.25.25,0,0,1-.25.25H3.5a.5.5,0,0,0-.4.8l1.5,2a.5.5,0,0,0,.8,0l1.5-2a.5.5,0,0,0-.4-.8H6.25A.25.25,0,0,1,6,5.5V4A1,1,0,0,1,7,3H8.75A.25.25,0,0,1,9,3.25V3.5A.5.5,0,0,0,9.276,3.947Z"/><path d="M2,14H8a2,2,0,0,0,0-4H2a2,2,0,0,0,0,4Zm2-2a1,1,0,1,1-1-1A1,1,0,0,1,4,12Z"/><path d="M2,19H8a2,2,0,0,0,0-4H2a2,2,0,0,0,0,4Zm2-2a1,1,0,1,1-1-1A1,1,0,0,1,4,17Z"/><path d="M2,24H8a2,2,0,0,0,0-4H2a2,2,0,0,0,0,4Zm2-2a1,1,0,1,1-1-1A1,1,0,0,1,4,22Z"/><path d="M22,0H16a2,2,0,0,0,0,4h6a2,2,0,0,0,0-4ZM16,2a1,1,0,1,1,1,1A1,1,0,0,1,16,2Z"/><path d="M22,5H16a2,2,0,0,0,0,4h6a2,2,0,0,0,0-4ZM16,7a1,1,0,1,1,1,1A1,1,0,0,1,16,7Z"/><path d="M22,10H16a2,2,0,0,0,0,4h6a2,2,0,0,0,0-4Zm-6,2a1,1,0,1,1,1,1A1,1,0,0,1,16,12Z"/></svg>