<svg xmlns="http://www.w3.org/2000/svg" viewBox="0 0 24 24"><title>server-refresh</title><path d="M2.511,6.125h17a2.5,2.5,0,0,0,2.5-2.5v-1a2.5,2.5,0,0,0-2.5-2.5h-17a2.5,2.5,0,0,0-2.5,2.5v1A2.5,2.5,0,0,0,2.511,6.125Zm1.135-3A1.115,1.115,0,1,1,4.761,4.239,1.115,1.115,0,0,1,3.646,3.125Zm3.865,0A1.115,1.115,0,1,1,8.625,4.239,1.114,1.114,0,0,1,7.511,3.125Z"/><path d="M17.011,9.625a7.7,7.7,0,0,1,4.238,1.267.493.493,0,0,0,.763-.411c0-.2,0-.47,0-.85a2.509,2.509,0,0,0-2.5-2.506h-17a2.5,2.5,0,0,0-2.5,2.5v1a2.5,2.5,0,0,0,2.5,2.5h7.77a.492.492,0,0,0,.4-.212A7.741,7.741,0,0,1,17.011,9.625Zm-7.271.5A1.115,1.115,0,1,1,8.625,9.01,1.115,1.115,0,0,1,9.74,10.124Zm-3.865,0A1.115,1.115,0,1,1,4.761,9.01,1.115,1.115,0,0,1,5.875,10.124Z"/><path d="M2.511,20.125h6.57a.5.5,0,0,0,.474-.658,7.614,7.614,0,0,1,.162-4.692.5.5,0,0,0-.476-.65H2.511a2.5,2.5,0,0,0-2.5,2.5v1A2.5,2.5,0,0,0,2.511,20.125Zm1.135-3a1.115,1.115,0,1,1,1.115,1.115A1.115,1.115,0,0,1,3.646,17.124Z"/><path d="M21.838,12.84a.25.25,0,0,1-.348.006A6.373,6.373,0,0,0,10.761,17.5a6.374,6.374,0,0,0,11.357,3.976,1,1,0,0,0-1.562-1.248,4.374,4.374,0,1,1-.5-5.982.251.251,0,0,1,.009.363L18.679,16a.5.5,0,0,0,.353.853h4.457a.5.5,0,0,0,.5-.5V11.9a.5.5,0,0,0-.853-.353l-.508.508Z"/></svg>