<svg xmlns="http://www.w3.org/2000/svg" viewBox="0 0 24 24"><title>server-choose</title><path d="M4.938,8.941a.246.246,0,0,0,.089-.191.25.25,0,0,0-.089-.192A3.992,3.992,0,0,1,3.861,7.146.251.251,0,0,0,3.633,7H2a2,2,0,0,0,0,4H3.453a.25.25,0,0,0,.239-.177A4.009,4.009,0,0,1,4.938,8.941Z"/><path d="M4.941,15.441a.249.249,0,0,0,0-.382,3.986,3.986,0,0,1-1.432-2.824A.25.25,0,0,0,3.258,12H2a2,2,0,0,0,0,4H4.285a.25.25,0,0,0,.191-.089A4.3,4.3,0,0,1,4.941,15.441Z"/><path d="M3.5,18.5a3.941,3.941,0,0,1,.181-1.176.248.248,0,0,0-.037-.222.251.251,0,0,0-.2-.1H2a2,2,0,0,0,0,4H3.915a.251.251,0,0,0,.211-.385A3.91,3.91,0,0,1,3.5,18.5Z"/><path d="M18.562,8.558a.25.25,0,0,0-.089.192.246.246,0,0,0,.089.191,4.009,4.009,0,0,1,1.246,1.882.25.25,0,0,0,.239.177H22a2,2,0,0,0,0-4H19.867a.251.251,0,0,0-.228.146A3.992,3.992,0,0,1,18.562,8.558Z"/><path d="M18.561,15.059a.251.251,0,0,0,0,.382,4.3,4.3,0,0,1,.465.47.25.25,0,0,0,.191.089H22a2,2,0,0,0,0-4H20.242a.25.25,0,0,0-.249.235A3.986,3.986,0,0,1,18.561,15.059Z"/><path d="M20,18.5a3.91,3.91,0,0,1-.626,2.115.251.251,0,0,0,.211.385H22a2,2,0,0,0,0-4H20.058a.251.251,0,0,0-.2.1.248.248,0,0,0-.037.222A3.941,3.941,0,0,1,20,18.5Z"/><path d="M7.5,8H16a2.5,2.5,0,0,0,0-5H7.5a2.5,2.5,0,0,0,0,5ZM11,4.5a1,1,0,1,1-1,1A1,1,0,0,1,11,4.5Zm-3.25,0a1,1,0,1,1-1,1A1,1,0,0,1,7.75,4.5Z"/><path d="M7.5,14.5H16a2.5,2.5,0,0,0,0-5H7.5a2.5,2.5,0,0,0,0,5ZM11,11a1,1,0,1,1-1,1A1,1,0,0,1,11,11ZM7.75,11a1,1,0,1,1-1,1A1,1,0,0,1,7.75,11Z"/><path d="M16,21a2.5,2.5,0,0,0,0-5H7.5a2.5,2.5,0,0,0,0,5Zm-5-3.5a1,1,0,1,1-1,1A1,1,0,0,1,11,17.5Zm-3.25,0a1,1,0,1,1-1,1A1,1,0,0,1,7.75,17.5Z"/></svg>