<svg xmlns="http://www.w3.org/2000/svg" viewBox="0 0 24 24"><title>server-star</title><path d="M0,3.484a2.5,2.5,0,0,0,2.5,2.5h17a2.5,2.5,0,0,0,2.5-2.5v-1a2.5,2.5,0,0,0-2.5-2.5H2.5A2.5,2.5,0,0,0,0,2.484Zm3.636-.5A1.115,1.115,0,1,1,4.751,4.1,1.114,1.114,0,0,1,3.637,2.984Zm3.864,0A1.115,1.115,0,1,1,8.616,4.1,1.114,1.114,0,0,1,7.5,2.984Z"/><path d="M14.976,11.111a2.833,2.833,0,0,1,2.524-1.6c2.067,0,2.671,1.81,3.082,2.871a.248.248,0,0,0,.368.122A2.48,2.48,0,0,0,22,10.484v-1a2.5,2.5,0,0,0-2.5-2.5H2.5A2.5,2.5,0,0,0,0,9.484v1a2.5,2.5,0,0,0,2.5,2.5H13.838a.494.494,0,0,0,.457-.3ZM9.73,9.984A1.115,1.115,0,1,1,8.616,8.869,1.114,1.114,0,0,1,9.73,9.984Zm-3.864,0A1.115,1.115,0,1,1,4.751,8.869,1.115,1.115,0,0,1,5.866,9.984Z"/><path d="M0,17.484a2.5,2.5,0,0,0,2.5,2.5h8.407a.5.5,0,0,0,.332-.872C10.21,18.224,9.01,16.893,9.7,15.2a2.706,2.706,0,0,1,.509-.8.25.25,0,0,0-.184-.419H2.5a2.5,2.5,0,0,0-2.5,2.5Zm3.636-.5A1.115,1.115,0,1,1,4.751,18.1,1.114,1.114,0,0,1,3.637,16.984Z"/><path d="M14.989,14.863a.252.252,0,0,1-.229.151h-2.5a1.228,1.228,0,0,0-1.166.76,1.27,1.27,0,0,0,.319,1.4l2.194,1.955a.249.249,0,0,1,.063.286l-1.223,2.815a1.255,1.255,0,0,0,.315,1.451,1.287,1.287,0,0,0,.864.338,1.3,1.3,0,0,0,.642-.172l3.111-1.752a.251.251,0,0,1,.246,0l3.112,1.752a1.278,1.278,0,0,0,1.506-.166,1.256,1.256,0,0,0,.316-1.45l-1.224-2.816a.249.249,0,0,1,.063-.286l2.212-1.972a1.262,1.262,0,0,0,.3-1.378,1.232,1.232,0,0,0-1.169-.761h-2.5a.252.252,0,0,1-.23-.151l-1.344-3.117-.013-.027a1.293,1.293,0,0,0-2.317.027Z"/></svg>