<svg xmlns="http://www.w3.org/2000/svg" viewBox="0 0 24 24"><title>server-1</title><path d="M22.5,2.25H1.5A1.5,1.5,0,0,0,0,3.75v2.5a1.5,1.5,0,0,0,1.5,1.5h21A1.5,1.5,0,0,0,24,6.25V3.75A1.5,1.5,0,0,0,22.5,2.25ZM3.25,5A1.25,1.25,0,1,1,4.5,6.25,1.251,1.251,0,0,1,3.25,5ZM8.5,6.25A1.25,1.25,0,1,1,9.75,5,1.252,1.252,0,0,1,8.5,6.25Zm-7.458-2.7-.005.014Z"/><path d="M22.5,9.25H1.5A1.5,1.5,0,0,0,0,10.75v2.5a1.5,1.5,0,0,0,1.5,1.5h9.25A.25.25,0,0,1,11,15v4.5a.25.25,0,0,1-.25.25H5.5a1,1,0,0,0,0,2h13a1,1,0,0,0,0-2H13.25A.25.25,0,0,1,13,19.5V15a.25.25,0,0,1,.25-.25H22.5a1.5,1.5,0,0,0,1.5-1.5v-2.5A1.5,1.5,0,0,0,22.5,9.25ZM3.25,12A1.25,1.25,0,1,1,4.5,13.25,1.251,1.251,0,0,1,3.25,12ZM8.5,13.25A1.25,1.25,0,1,1,9.75,12,1.252,1.252,0,0,1,8.5,13.25Z"/><path d="M23,21.75a1,1,0,0,0,0-2H22a1,1,0,0,0,0,2Z"/><path d="M1,21.75H2a1,1,0,0,0,0-2H1a1,1,0,0,0,0,2Z"/></svg>