<svg id="Light" xmlns="http://www.w3.org/2000/svg" viewBox="0 0 24 24"><defs><style>.cls-1{fill:none;stroke:currentColor;stroke-linecap:round;stroke-linejoin:round;}</style></defs><title>multiple-man-2</title><path class="cls-1" d="M15.116,6.612C16.573,5.565,19.9,5.86,20.3,7.5a2.63,2.63,0,0,1-.44,2c.951,0,.691,2,.007,2C19.866,13.65,19,14,19,14v2l3.312,1.472A2,2,0,0,1,23.5,19.3V22H20"/><path class="cls-1" d="M17.5,19.114a3,3,0,0,0-1.9-2.79L11,14.5V12s1.5-.5,1.5-3c.826,0,.826-2,0-2,0-.245.847-2.112.5-3.5-.5-2-6-2-6.5,0C4,3,5.5,6.665,5.5,7c-.826,0-.826,2,0,2,0,2.5,1.5,3,1.5,3v2.5L2.391,16.335A3,3,0,0,0,.5,19.122V22h17Z"/></svg>