<svg xmlns="http://www.w3.org/2000/svg" viewBox="0 0 24 24"><defs><style>.a{fill:none;stroke:currentColor;stroke-linecap:round;stroke-linejoin:round;}</style></defs><title>pen-write-paper</title><polygon class="a" points="12.54 13.581 9.004 14.996 10.419 11.46 19.611 2.268 21.732 4.389 12.54 13.581"/><path class="a" d="M21.732,4.389,19.611,2.268l1.061-1.061a1.5,1.5,0,1,1,2.121,2.121Z"/><line class="a" x1="10.419" y1="11.46" x2="12.54" y2="13.581"/><path class="a" d="M19.611,2.268a2.036,2.036,0,0,0-2.879,0L14.5,4.5h-1"/><line class="a" x1="22.793" y1="1.207" x2="23.5" y2="0.5"/><line class="a" x1="9.004" y1="14.996" x2="8" y2="16"/><path class="a" d="M13.5,2.5H2.5a2,2,0,0,0-2,2v17a2,2,0,0,0,2,2H12L17.5,18V12"/><path class="a" d="M12,23.5V19a1,1,0,0,1,1-1h4.5"/></svg>