<svg xmlns="http://www.w3.org/2000/svg" viewBox="0 0 24 24"><defs><style>.a{fill:none;stroke:currentColor;stroke-linecap:round;stroke-linejoin:round;}</style></defs><title>quill-write-1</title><path class="a" d="M16.5,2.273,17,5l-2.965-.988c-.18.161-.368.31-.54.483A14.2,14.2,0,0,0,9.5,14.5a14.2,14.2,0,0,0,10-3.995A14.2,14.2,0,0,0,23.5.5,14.736,14.736,0,0,0,16.5,2.273Z"/><path class="a" d="M20.5,14v8.5a1,1,0,0,1-1,1H1.5a1,1,0,0,1-1-1V4.5a1,1,0,0,1,1-1H10"/><line class="a" x1="16.22" y1="7.78" x2="5.5" y2="18.5"/></svg>