<svg xmlns="http://www.w3.org/2000/svg" viewBox="0 0 24 24"><title>force-touch-double-tap</title><path d="M6.251,19.5H2.489a.5.5,0,0,1-.5-.5V3.5a.5.5,0,0,1,.5-.5h11a.5.5,0,0,1,.5.5V6.52a.253.253,0,0,0,.113.209,7.576,7.576,0,0,1,1.452,1.245.25.25,0,0,0,.435-.167V3a3,3,0,0,0-3-3h-10a3,3,0,0,0-3,3V21a3,3,0,0,0,3,3h6.75a.25.25,0,0,0,.25-.25v-3a.25.25,0,0,0-.242-.25A7.451,7.451,0,0,1,6.251,19.5Z"/><path d="M8.788,18.881a1,1,0,1,0,.4-1.958A4,4,0,1,1,13.657,11.4a1,1,0,1,0,1.832-.8,6,6,0,1,0-6.7,8.284Z"/><path d="M15.7,14.233l-.295.295a.249.249,0,0,1-.353,0l-2.3-2.3A2.5,2.5,0,0,0,8.489,14a2.477,2.477,0,0,0,.733,1.767l3.428,3.429a2.25,2.25,0,0,0,.233,4.447L16.745,24a1,1,0,1,0,.184-1.991l-3.863-.356a.252.252,0,0,1-.225-.271.235.235,0,0,1,.271-.227A16.59,16.59,0,0,0,14.966,21a1,1,0,0,0,.619-1.7l-4.949-4.95a.5.5,0,0,1,.707-.707l3.181,3.182a1,1,0,0,0,1.414,0l1.179-1.178a2.389,2.389,0,0,1,3.3,0L22.3,17.533h0a1,1,0,0,0,1.414-1.415l-1.887-1.885a4.326,4.326,0,0,0-6.128,0Z"/></svg>