<svg xmlns="http://www.w3.org/2000/svg" viewBox="0 0 24 24"><title>slide-right</title><path d="M18.58,11.868a.5.5,0,0,0,0-.707l-3-3a.5.5,0,0,0-.853.354V10.5H13.25a.25.25,0,0,1-.25-.25V4.5A2.5,2.5,0,0,0,10.5,2h-8A2.5,2.5,0,0,0,0,4.5v15A2.5,2.5,0,0,0,2.5,22h8A2.5,2.5,0,0,0,13,19.5V14.25a.25.25,0,0,0-.25-.25h-1.5a.25.25,0,0,0-.25.25V16.5a1,1,0,0,1-1,1H3a1,1,0,0,1-1-1V5.5a1,1,0,0,1,1-1h7a1,1,0,0,1,1,1v4.75a.25.25,0,0,1-.25.25H7.727a1,1,0,0,0,0,2h7v2.015a.5.5,0,0,0,.853.353Z"/><path d="M20,7.445a3.974,3.974,0,0,0-1.532.3A1,1,0,0,0,19.235,9.6,1.974,1.974,0,0,1,20,9.445a2,2,0,0,1,0,4,1.973,1.973,0,0,1-.765-.151,1,1,0,0,0-.767,1.848A4,4,0,1,0,20,7.445Z"/></svg>