<?xml version="1.0" encoding="utf-8"?>
<!-- Generator: Adobe Illustrator 22.1.0, SVG Export Plug-In . SVG Version: 6.00 Build 0)  -->
<svg version="1.1" id="Layer_1" xmlns="http://www.w3.org/2000/svg" xmlns:xlink="http://www.w3.org/1999/xlink" x="0px" y="0px"
	 viewBox="0 0 24 24" style="enable-background:new 0 0 24 24;" xml:space="preserve">
<title>vintage-camera-flash-1</title>
<g>
	<path d="M2.25,24C1.009,24,0,22.991,0,21.75v-9c0-1.241,1.009-2.25,2.25-2.25h3C5.664,10.5,6,10.836,6,11.25S5.664,12,5.25,12h-3
		c-0.414,0-0.75,0.336-0.75,0.75v9c0,0.414,0.336,0.75,0.75,0.75h7.5c0.414,0,0.75-0.336,0.75-0.75v-3c0-0.414,0.336-0.75,0.75-0.75
		S12,18.336,12,18.75v1.037l2.585-1.292C14.841,18.366,15,18.109,15,17.823v-1.358c-1.898-0.172-3.677-0.998-5.044-2.348
		c-0.013-0.01-0.025-0.02-0.036-0.03c-0.016-0.016-0.029-0.031-0.04-0.046C8.349,12.495,7.5,10.435,7.5,8.25
		c0-2.182,0.846-4.239,2.383-5.794c0.011-0.014,0.022-0.028,0.034-0.039C9.931,2.402,9.946,2.39,9.959,2.38
		C11.505,0.849,13.565,0,15.75,0c2.182,0,4.239,0.846,5.795,2.384c0.015,0.012,0.03,0.024,0.042,0.037
		c0.012,0.013,0.023,0.026,0.032,0.037C23.152,4.007,24,6.066,24,8.25c0,2.182-0.846,4.239-2.383,5.794
		c-0.011,0.014-0.022,0.028-0.033,0.039c-0.015,0.015-0.03,0.028-0.044,0.038c-1.355,1.343-3.137,2.172-5.04,2.344v1.358
		c0,0.858-0.476,1.629-1.244,2.013L12,21.464v0.286C12,22.991,10.991,24,9.75,24H2.25z M11.54,13.521
		C12.734,14.478,14.215,15,15.75,15s3.016-0.522,4.21-1.479l-2.145-2.145C17.202,11.785,16.494,12,15.75,12
		s-1.452-0.214-2.066-0.624L11.54,13.521z M21.021,12.46c0.957-1.195,1.479-2.675,1.479-4.21s-0.522-3.016-1.479-4.21l-2.144,2.145
		C19.285,6.798,19.5,7.506,19.5,8.25s-0.215,1.452-0.623,2.066L21.021,12.46z M10.479,4.04C9.522,5.234,9,6.714,9,8.25
		s0.522,3.016,1.479,4.21l2.144-2.145C12.214,9.702,12,8.994,12,8.25s0.214-1.452,0.623-2.066L10.479,4.04z M15.75,6
		c-1.241,0-2.25,1.009-2.25,2.25s1.009,2.25,2.25,2.25S18,9.491,18,8.25S16.991,6,15.75,6z M15.75,4.5
		c0.744,0,1.452,0.215,2.066,0.624l2.145-2.145C18.766,2.022,17.285,1.5,15.75,1.5s-3.016,0.522-4.21,1.479l2.145,2.145
		C14.298,4.715,15.006,4.5,15.75,4.5z"/>
	<path d="M6,20.25c-1.654,0-3-1.346-3-3s1.346-3,3-3s3,1.346,3,3S7.654,20.25,6,20.25z M6,15.75c-0.827,0-1.5,0.673-1.5,1.5
		s0.673,1.5,1.5,1.5s1.5-0.673,1.5-1.5S6.827,15.75,6,15.75z"/>
</g>
</svg>
