<svg id="Regular" xmlns="http://www.w3.org/2000/svg" viewBox="0 0 24 24"><defs><style>.cls-1{fill:none;stroke:currentColor;stroke-linecap:round;stroke-linejoin:round;stroke-width:1.5px;}</style></defs><title>single-man-actions-video</title><path class="cls-1" d="M23.25,15.75l-3,1v-1a1.5,1.5,0,0,0-1.5-1.5h-6a1.5,1.5,0,0,0-1.5,1.5v6a1.5,1.5,0,0,0,1.5,1.5h6a1.5,1.5,0,0,0,1.5-1.5v-1l3,1Z"/><circle class="cls-1" cx="6" cy="3.75" r="3"/><path class="cls-1" d="M10.555,10.888A5.251,5.251,0,0,0,.75,13.5v2.25H3l.75,7.5h4.5l.323-3.233"/><line class="cls-1" x1="6" y1="8.25" x2="6" y2="14.25"/></svg>