<svg id="Regular" xmlns="http://www.w3.org/2000/svg" viewBox="0 0 24 24"><defs><style>.cls-1{fill:none;stroke:currentColor;stroke-linecap:round;stroke-linejoin:round;stroke-width:1.5px;}</style></defs><title>single-man-actions-address</title><circle class="cls-1" cx="17.25" cy="17.25" r="2.25"/><path class="cls-1" d="M19.5,17.25v1.125a1.874,1.874,0,0,0,1.875,1.875h0a1.874,1.874,0,0,0,1.875-1.875v-.847a6.185,6.185,0,0,0-5.845-6.276,6,6,0,0,0-1.577,11.835,6.14,6.14,0,0,0,2.966-.038"/><circle class="cls-1" cx="6" cy="3.75" r="3"/><path class="cls-1" d="M10.555,10.888A5.251,5.251,0,0,0,.75,13.5v2.25H3l.75,7.5h4.5l.323-3.232"/><line class="cls-1" x1="6" y1="8.25" x2="6" y2="14.25"/></svg>