<svg id="Regular" xmlns="http://www.w3.org/2000/svg" viewBox="0 0 24 24"><defs><style>.cls-1{fill:none;stroke:currentColor;stroke-linecap:round;stroke-linejoin:round;stroke-width:1.5px;}</style></defs><title>single-man-actions-lock</title><rect class="cls-1" x="14.25" y="15.75" width="9" height="7.5" rx="1.5" ry="1.5"/><path class="cls-1" d="M18.75,11.25h0a3,3,0,0,0-3,3v1.5h6v-1.5A3,3,0,0,0,18.75,11.25Z"/><path class="cls-1" d="M18.75,19.154a.375.375,0,1,0,.375.375.374.374,0,0,0-.375-.375"/><circle class="cls-1" cx="6" cy="3.75" r="3"/><path class="cls-1" d="M11.25,13.5a5.25,5.25,0,0,0-10.5,0v2.25H3l.75,7.5h4.5L9,15.75h2.25Z"/><line class="cls-1" x1="6" y1="8.25" x2="6" y2="14.25"/></svg>