<svg id="Regular" xmlns="http://www.w3.org/2000/svg" viewBox="0 0 24 24"><defs><style>.cls-1{fill:none;stroke:currentColor;stroke-linecap:round;stroke-linejoin:round;stroke-width:1.5px;}</style></defs><title>single-man-actions-graduate</title><polygon class="cls-1" points="16.5 14.308 9.75 17.087 16.5 19.558 23.25 17.087 16.5 14.308"/><line class="cls-1" x1="9.75" y1="17.066" x2="9.75" y2="20.837"/><path class="cls-1" d="M12.75,18.185V21.3a.75.75,0,0,0,.471.7l3,1.2a.748.748,0,0,0,.558,0l3-1.2a.75.75,0,0,0,.471-.7V18.185"/><circle class="cls-1" cx="6" cy="3.75" r="3"/><path class="cls-1" d="M11.25,13.5a5.25,5.25,0,0,0-10.5,0v2.25H3l.75,7.5h4.5"/><line class="cls-1" x1="6" y1="8.25" x2="6" y2="14.25"/></svg>