<?xml version="1.0" encoding="utf-8"?>
<!-- Generator: Adobe Illustrator 22.1.0, SVG Export Plug-In . SVG Version: 6.00 Build 0)  -->
<svg version="1.1" id="Layer_1" xmlns="http://www.w3.org/2000/svg" xmlns:xlink="http://www.w3.org/1999/xlink" x="0px" y="0px"
	 viewBox="0 0 24 24" style="enable-background:new 0 0 24 24;" xml:space="preserve">
<title>notes-disable</title>
<g>
	<path d="M17.249,24c-1.789,0-3.474-0.694-4.747-1.956c-0.009-0.008-0.018-0.015-0.025-0.023c-0.008-0.008-0.015-0.016-0.023-0.025
		c-1.261-1.274-1.955-2.958-1.955-4.746c0-3.722,3.028-6.75,6.75-6.75c1.785,0,3.468,0.692,4.741,1.95
		c0.011,0.009,0.022,0.019,0.031,0.028c0.01,0.01,0.02,0.021,0.029,0.033c1.253,1.264,1.948,2.95,1.948,4.739
		C23.999,20.972,20.971,24,17.249,24z M14.107,21.451c0.906,0.679,2.007,1.049,3.142,1.049c2.895,0,5.25-2.355,5.25-5.25
		c0-1.135-0.37-2.236-1.048-3.141L14.107,21.451z M17.249,12c-2.895,0-5.25,2.355-5.25,5.25c0,1.135,0.37,2.235,1.048,3.141
		l7.344-7.342C19.485,12.37,18.384,12,17.249,12z"/>
	<path d="M2.204,21C1.018,21,0.029,20.032,0,18.842c-0.001-0.037-0.001-0.073,0-0.11l0-14.875C-0.042,2.609,0.955,1.546,2.222,1.5
		l2.277,0V0.75C4.499,0.336,4.836,0,5.249,0s0.75,0.336,0.75,0.75V1.5l3,0V0.75C8.999,0.336,9.336,0,9.749,0s0.75,0.336,0.75,0.75
		V1.5l3,0V0.75c0-0.414,0.336-0.75,0.75-0.75s0.75,0.336,0.75,0.75V1.5h2.25c1.288,0.046,2.291,1.114,2.25,2.382l0,4.368
		c0,0.414-0.336,0.75-0.75,0.75s-0.75-0.336-0.75-0.75V3.857C18.014,3.395,17.665,3.016,17.222,3l-2.223,0v2.25
		c0,0.414-0.336,0.75-0.75,0.75s-0.75-0.336-0.75-0.75V3l-3,0v2.25c0,0.414-0.336,0.75-0.75,0.75s-0.75-0.336-0.75-0.75V3l-3,0v2.25
		C5.999,5.664,5.663,6,5.249,6s-0.75-0.336-0.75-0.75V3h-2.25c-0.422,0.016-0.765,0.389-0.75,0.832l0,14.971
		c0.01,0.391,0.328,0.697,0.723,0.697l6.027,0c0.414,0,0.75,0.336,0.75,0.75S8.663,21,8.249,21L2.204,21z"/>
</g>
</svg>
