<?xml version="1.0" encoding="utf-8"?>
<!-- Generator: Adobe Illustrator 22.1.0, SVG Export Plug-In . SVG Version: 6.00 Build 0)  -->
<svg version="1.1" id="Layer_1" xmlns="http://www.w3.org/2000/svg" xmlns:xlink="http://www.w3.org/1999/xlink" x="0px" y="0px"
	 viewBox="0 0 24 24" style="enable-background:new 0 0 24 24;" xml:space="preserve">
<title>notes-check</title>
<g>
	<path d="M17.249,24c-3.722,0-6.75-3.028-6.75-6.75s3.028-6.75,6.75-6.75s6.75,3.028,6.75,6.75S20.971,24,17.249,24z M17.249,12
		c-2.895,0-5.25,2.355-5.25,5.25s2.355,5.25,5.25,5.25s5.25-2.355,5.25-5.25S20.144,12,17.249,12z"/>
	<path d="M16.415,20.429c-0.327,0-0.638-0.104-0.901-0.302c-0.055-0.042-0.108-0.087-0.157-0.136l-1.5-1.5
		c-0.292-0.292-0.292-0.768,0-1.061c0.142-0.142,0.33-0.22,0.53-0.22s0.389,0.078,0.53,0.22l1.5,1.5l2.906-3.874
		c0.141-0.188,0.366-0.3,0.6-0.3c0.163,0,0.318,0.052,0.449,0.149c0.332,0.249,0.399,0.72,0.151,1.051l-2.905,3.873
		c-0.242,0.321-0.594,0.529-0.991,0.585C16.556,20.424,16.485,20.429,16.415,20.429z"/>
	<path d="M2.204,21C1.018,21,0.029,20.032,0,18.842c-0.001-0.037-0.001-0.073,0-0.11l0-14.875C-0.042,2.609,0.955,1.546,2.222,1.5
		l2.277,0V0.75C4.499,0.336,4.836,0,5.249,0s0.75,0.336,0.75,0.75V1.5l3,0V0.75C8.999,0.336,9.336,0,9.749,0s0.75,0.336,0.75,0.75
		V1.5l3,0V0.75c0-0.414,0.336-0.75,0.75-0.75s0.75,0.336,0.75,0.75V1.5h2.25c1.288,0.046,2.291,1.114,2.25,2.382l0,4.368
		c0,0.414-0.336,0.75-0.75,0.75s-0.75-0.336-0.75-0.75V3.857C18.014,3.395,17.665,3.016,17.222,3l-2.223,0v2.25
		c0,0.414-0.336,0.75-0.75,0.75s-0.75-0.336-0.75-0.75V3l-3,0v2.25c0,0.414-0.336,0.75-0.75,0.75s-0.75-0.336-0.75-0.75V3l-3,0v2.25
		C5.999,5.664,5.663,6,5.249,6s-0.75-0.336-0.75-0.75V3h-2.25c-0.422,0.016-0.765,0.389-0.75,0.832l0,14.971
		c0.01,0.391,0.328,0.697,0.723,0.697l6.027,0c0.414,0,0.75,0.336,0.75,0.75S8.663,21,8.249,21L2.204,21z"/>
</g>
</svg>
