<?xml version="1.0" encoding="utf-8"?>
<!-- Generator: Adobe Illustrator 22.1.0, SVG Export Plug-In . SVG Version: 6.00 Build 0)  -->
<svg version="1.1" id="Layer_1" xmlns="http://www.w3.org/2000/svg" xmlns:xlink="http://www.w3.org/1999/xlink" x="0px" y="0px"
	 viewBox="0 0 24 24" style="enable-background:new 0 0 24 24;" xml:space="preserve">
<title>flag-plain-3</title>
<g>
	<path d="M0.75,24C0.336,24,0,23.664,0,23.25V0.75C0,0.336,0.336,0,0.75,0S1.5,0.336,1.5,0.75v1.88l2.184-0.671
		c0.988-0.304,2.014-0.458,3.047-0.458c1.919,0,3.797,0.531,5.43,1.537c1.396,0.859,3.005,1.313,4.651,1.313
		c0.823,0,1.64-0.114,2.428-0.339l2.369-0.677c0.167-0.047,0.339-0.072,0.512-0.072c0.502,0,0.973,0.195,1.327,0.548
		C23.804,4.164,24,4.635,24,5.136v11.728c0,0.833-0.559,1.574-1.36,1.803l-2.987,0.854c-0.921,0.262-1.874,0.395-2.833,0.395
		c-1.928,0-3.811-0.532-5.445-1.54c-1.397-0.86-3.003-1.314-4.644-1.314c-0.884,0-1.761,0.132-2.606,0.392L1.5,18.262v4.988
		C1.5,23.664,1.164,24,0.75,24z M6.731,15.562c1.919,0,3.796,0.531,5.43,1.537c1.399,0.862,3.01,1.317,4.659,1.317
		c0.821,0,1.635-0.114,2.421-0.337l2.987-0.854c0.16-0.046,0.272-0.194,0.272-0.361V5.137c0-0.1-0.039-0.194-0.11-0.265
		c-0.071-0.071-0.165-0.11-0.266-0.11c-0.035,0-0.07,0.005-0.104,0.014l-2.368,0.677c-0.922,0.263-1.878,0.397-2.84,0.397
		c-1.925,0-3.806-0.531-5.438-1.535c-1.397-0.86-3.003-1.314-4.644-1.314c-0.884,0-1.761,0.132-2.606,0.392L1.5,4.199v12.494
		l2.184-0.672C4.672,15.717,5.697,15.562,6.731,15.562z"/>
</g>
</svg>
