<svg xmlns="http://www.w3.org/2000/svg" viewBox="0 0 24 24"><title>photo-frame-hang</title><path d="M24,7.5A2.5,2.5,0,0,0,21.5,5H17.762a.25.25,0,0,1-.172-.069L12.688.275a1,1,0,0,0-1.376,0L6.41,4.931A.25.25,0,0,1,6.238,5H2.5A2.5,2.5,0,0,0,0,7.5v14A2.5,2.5,0,0,0,2.5,24h19A2.5,2.5,0,0,0,24,21.5ZM11.828,2.543a.249.249,0,0,1,.344,0l2.133,2.026A.25.25,0,0,1,14.133,5H9.867A.25.25,0,0,1,9.7,4.569ZM9.009,21.5a.25.25,0,0,1-.206-.393c.26-.374.539-.79.824-1.241a.252.252,0,0,1,.212-.116h4.322a.252.252,0,0,1,.212.116c.285.451.564.867.824,1.241a.25.25,0,0,1-.206.393Zm2-3.25a.25.25,0,0,1-.221-.368c.35-.654.685-1.346.984-2.059a.25.25,0,0,1,.462,0c.3.713.635,1.405.984,2.059a.251.251,0,0,1-.221.368ZM21.5,20.5a1,1,0,0,1-1,1H18.1a.255.255,0,0,1-.2-.1C16.713,19.879,13,14.775,13,10.5a1,1,0,0,0-2,0c0,4.275-3.713,9.379-4.9,10.9a.252.252,0,0,1-.2.1H3.5a1,1,0,0,1-1-1V8.5a1,1,0,0,1,1-1h17a1,1,0,0,1,1,1Z"/></svg>