<svg id="Bold" xmlns="http://www.w3.org/2000/svg" viewBox="0 0 24 24"><title>single-woman-actions-star</title><path d="M9.271,15.09A3.153,3.153,0,0,1,10.6,13.567a.246.246,0,0,0,.114-.278c-.533-1.943-.509-1.854-.51-1.86a4.212,4.212,0,0,0-1.224-2.1.5.5,0,0,0-.756.1L6.484,12.16a.5.5,0,0,1-.837,0L3.924,9.411a.5.5,0,0,0-.755-.1,4.177,4.177,0,0,0-1.24,2.1c0,.007-1.624,5.925-1.787,6.518a.5.5,0,0,0,.478.626h2.3a.247.247,0,0,1,.243.2l.921,4.847,0,.007A.5.5,0,0,0,4.568,24H7.537a.5.5,0,0,0,.483-.388l0-.007.921-4.847a.247.247,0,0,1,.243-.2h.267a.248.248,0,0,0,.2-.39A3.187,3.187,0,0,1,9.271,15.09Z"/><path d="M6.042,8.412A4.206,4.206,0,1,0,1.836,4.206,4.211,4.211,0,0,0,6.042,8.412Zm0-1.979A2.224,2.224,0,0,1,3.905,4.81a.248.248,0,0,1,.158-.3,4.623,4.623,0,0,0,1.8-1.128.247.247,0,0,1,.353,0,4.615,4.615,0,0,0,1.8,1.128.249.249,0,0,1,.158.3A2.224,2.224,0,0,1,6.042,6.433Z"/><path d="M20.645,23.829h0a1.263,1.263,0,0,0,1.49-.165,1.243,1.243,0,0,0,.312-1.435l-1.211-2.787a.246.246,0,0,1,.062-.283l2.185-1.947.01-.009a1.25,1.25,0,0,0,.291-1.359,1.22,1.22,0,0,0-1.157-.754H20.154a.248.248,0,0,1-.228-.149L18.6,11.857l-.011-.023,0-.009a1.28,1.28,0,0,0-2.287.025l-.007.015-1.329,3.077a.246.246,0,0,1-.227.149H12.255a1.216,1.216,0,0,0-1.154.752,1.256,1.256,0,0,0,.311,1.377l.01.01,2.166,1.93a.248.248,0,0,1,.063.283l-1.21,2.786a1.24,1.24,0,0,0,.311,1.436,1.261,1.261,0,0,0,1.49.164l3.08-1.734a.25.25,0,0,1,.243,0Z"/><path d="M9.271,15.09A3.153,3.153,0,0,1,10.6,13.567a.246.246,0,0,0,.114-.278c-.533-1.943-.509-1.854-.51-1.86a4.212,4.212,0,0,0-1.224-2.1.5.5,0,0,0-.756.1L6.484,12.16a.5.5,0,0,1-.837,0L3.924,9.411a.5.5,0,0,0-.755-.1,4.177,4.177,0,0,0-1.24,2.1c0,.007-1.624,5.925-1.787,6.518a.5.5,0,0,0,.478.626h2.3a.247.247,0,0,1,.243.2l.921,4.847,0,.007A.5.5,0,0,0,4.568,24H7.537a.5.5,0,0,0,.483-.388l0-.007.921-4.847a.247.247,0,0,1,.243-.2h.267a.248.248,0,0,0,.2-.39A3.187,3.187,0,0,1,9.271,15.09Z"/><path d="M6.042,8.412A4.206,4.206,0,1,0,1.836,4.206,4.211,4.211,0,0,0,6.042,8.412Zm0-1.979A2.224,2.224,0,0,1,3.905,4.81a.248.248,0,0,1,.158-.3,4.623,4.623,0,0,0,1.8-1.128.247.247,0,0,1,.353,0,4.615,4.615,0,0,0,1.8,1.128.249.249,0,0,1,.158.3A2.224,2.224,0,0,1,6.042,6.433Z"/><path d="M20.645,23.829h0a1.263,1.263,0,0,0,1.49-.165,1.243,1.243,0,0,0,.312-1.435l-1.211-2.787a.246.246,0,0,1,.062-.283l2.185-1.947.01-.009a1.25,1.25,0,0,0,.291-1.359,1.22,1.22,0,0,0-1.157-.754H20.154a.248.248,0,0,1-.228-.149L18.6,11.857l-.011-.023,0-.009a1.28,1.28,0,0,0-2.287.025l-.007.015-1.329,3.077a.246.246,0,0,1-.227.149H12.255a1.216,1.216,0,0,0-1.154.752,1.256,1.256,0,0,0,.311,1.377l.01.01,2.166,1.93a.248.248,0,0,1,.063.283l-1.21,2.786a1.24,1.24,0,0,0,.311,1.436,1.261,1.261,0,0,0,1.49.164l3.08-1.734a.25.25,0,0,1,.243,0Z"/></svg>