<svg id="Bold" xmlns="http://www.w3.org/2000/svg" viewBox="0 0 24 24"><title>single-woman-actions-block</title><path d="M.226,18.362a.5.5,0,0,0,.394.2h2.3a.247.247,0,0,1,.243.2l.921,4.847v.007A.5.5,0,0,0,4.568,24H7.537a.5.5,0,0,0,.483-.388l0-.007.921-4.847a.247.247,0,0,1,.243-.2h.171a.218.218,0,0,0,.216-.237,7.936,7.936,0,0,1,1.107-4.849.251.251,0,0,0,.028-.193c-.526-1.935-.654-2.941-1.731-3.948a.5.5,0,0,0-.757.1L6.483,12.16a.5.5,0,0,1-.837,0L3.924,9.411a.5.5,0,0,0-.755-.1C2.015,10.373,2.1,10.78.142,17.931A.5.5,0,0,0,.226,18.362Z"/><path d="M6.042,8.412A4.206,4.206,0,1,0,1.835,4.206,4.211,4.211,0,0,0,6.042,8.412Zm0-1.979A2.223,2.223,0,0,1,3.905,4.81a.247.247,0,0,1,.158-.3,4.63,4.63,0,0,0,1.8-1.128.247.247,0,0,1,.353,0,4.615,4.615,0,0,0,1.8,1.128.248.248,0,0,1,.157.3A2.223,2.223,0,0,1,6.042,6.433Z"/><path d="M11.177,19.046a6.357,6.357,0,0,0,4.783,4.787,6.447,6.447,0,0,0,7.751-7.749A6.354,6.354,0,0,0,18.926,11.3a6.445,6.445,0,0,0-7.749,7.745Zm8.357-5.418a.248.248,0,0,1,.057.393L13.9,19.714a.248.248,0,0,1-.393-.057,4.461,4.461,0,0,1,6.029-6.029Zm-4.179,7.878a.248.248,0,0,1-.057-.393l5.693-5.692a.243.243,0,0,1,.211-.07.246.246,0,0,1,.182.127,4.461,4.461,0,0,1-6.029,6.028Z"/><path d="M.226,18.362a.5.5,0,0,0,.394.2h2.3a.247.247,0,0,1,.243.2l.921,4.847v.007A.5.5,0,0,0,4.568,24H7.537a.5.5,0,0,0,.483-.388l0-.007.921-4.847a.247.247,0,0,1,.243-.2h.171a.218.218,0,0,0,.216-.237,7.936,7.936,0,0,1,1.107-4.849.251.251,0,0,0,.028-.193c-.526-1.935-.654-2.941-1.731-3.948a.5.5,0,0,0-.757.1L6.483,12.16a.5.5,0,0,1-.837,0L3.924,9.411a.5.5,0,0,0-.755-.1C2.015,10.373,2.1,10.78.142,17.931A.5.5,0,0,0,.226,18.362Z"/><path d="M6.042,8.412A4.206,4.206,0,1,0,1.835,4.206,4.211,4.211,0,0,0,6.042,8.412Zm0-1.979A2.223,2.223,0,0,1,3.905,4.81a.247.247,0,0,1,.158-.3,4.63,4.63,0,0,0,1.8-1.128.247.247,0,0,1,.353,0,4.615,4.615,0,0,0,1.8,1.128.248.248,0,0,1,.157.3A2.223,2.223,0,0,1,6.042,6.433Z"/><path d="M11.177,19.046a6.357,6.357,0,0,0,4.783,4.787,6.447,6.447,0,0,0,7.751-7.749A6.354,6.354,0,0,0,18.926,11.3a6.445,6.445,0,0,0-7.749,7.745Zm8.357-5.418a.248.248,0,0,1,.057.393L13.9,19.714a.248.248,0,0,1-.393-.057,4.461,4.461,0,0,1,6.029-6.029Zm-4.179,7.878a.248.248,0,0,1-.057-.393l5.693-5.692a.243.243,0,0,1,.211-.07.246.246,0,0,1,.182.127,4.461,4.461,0,0,1-6.029,6.028Z"/></svg>