<svg id="Bold" xmlns="http://www.w3.org/2000/svg" viewBox="0 0 24 24"><title>single-woman-actions-credit-card</title><path d="M6.164,8.412A4.206,4.206,0,1,0,1.958,4.206,4.212,4.212,0,0,0,6.164,8.412Zm0-1.979A2.222,2.222,0,0,1,4.028,4.81a.247.247,0,0,1,.157-.3,4.627,4.627,0,0,0,1.8-1.128.247.247,0,0,1,.353,0,4.6,4.6,0,0,0,1.8,1.128.247.247,0,0,1,.158.3A2.224,2.224,0,0,1,6.164,6.433Z"/><path d="M22.021,13.361h-9.9a1.734,1.734,0,0,0-1.732,1.732v6.928a1.734,1.734,0,0,0,1.732,1.732h9.9a1.734,1.734,0,0,0,1.732-1.732V15.093A1.734,1.734,0,0,0,22.021,13.361Zm0,8.907h-9.9a.248.248,0,0,1-.248-.247V19.052a.248.248,0,0,1,.248-.248h9.9a.248.248,0,0,1,.247.248v2.969A.248.248,0,0,1,22.021,22.268Zm-9.9-7.423h9.9a.248.248,0,0,1,.247.248v.989a.248.248,0,0,1-.247.248h-9.9a.248.248,0,0,1-.248-.248v-.989A.249.249,0,0,1,12.124,14.845Z"/><path d="M20.784,20.536a.743.743,0,0,0-.743-.742H18.8a.742.742,0,0,0,0,1.484h1.237A.743.743,0,0,0,20.784,20.536Z"/><path d="M9.155,15.093a2.951,2.951,0,0,1,1.325-2.457.248.248,0,0,0,.1-.268A5.486,5.486,0,0,0,9.1,9.33a.5.5,0,0,0-.757.1L6.606,12.16a.5.5,0,0,1-.837,0L4.047,9.411a.5.5,0,0,0-.756-.1C2.138,10.373,2.226,10.78.265,17.931a.5.5,0,0,0,.477.626h2.3a.247.247,0,0,1,.243.2l.921,4.847v.007A.5.5,0,0,0,4.69,24H7.66a.5.5,0,0,0,.483-.39v0l.993-5.225a.979.979,0,0,0,.018-.187Z"/><path d="M6.164,8.412A4.206,4.206,0,1,0,1.958,4.206,4.212,4.212,0,0,0,6.164,8.412Zm0-1.979A2.222,2.222,0,0,1,4.028,4.81a.247.247,0,0,1,.157-.3,4.627,4.627,0,0,0,1.8-1.128.247.247,0,0,1,.353,0,4.6,4.6,0,0,0,1.8,1.128.247.247,0,0,1,.158.3A2.224,2.224,0,0,1,6.164,6.433Z"/><path d="M22.021,13.361h-9.9a1.734,1.734,0,0,0-1.732,1.732v6.928a1.734,1.734,0,0,0,1.732,1.732h9.9a1.734,1.734,0,0,0,1.732-1.732V15.093A1.734,1.734,0,0,0,22.021,13.361Zm0,8.907h-9.9a.248.248,0,0,1-.248-.247V19.052a.248.248,0,0,1,.248-.248h9.9a.248.248,0,0,1,.247.248v2.969A.248.248,0,0,1,22.021,22.268Zm-9.9-7.423h9.9a.248.248,0,0,1,.247.248v.989a.248.248,0,0,1-.247.248h-9.9a.248.248,0,0,1-.248-.248v-.989A.249.249,0,0,1,12.124,14.845Z"/><path d="M20.784,20.536a.743.743,0,0,0-.743-.742H18.8a.742.742,0,0,0,0,1.484h1.237A.743.743,0,0,0,20.784,20.536Z"/><path d="M9.155,15.093a2.951,2.951,0,0,1,1.325-2.457.248.248,0,0,0,.1-.268A5.486,5.486,0,0,0,9.1,9.33a.5.5,0,0,0-.757.1L6.606,12.16a.5.5,0,0,1-.837,0L4.047,9.411a.5.5,0,0,0-.756-.1C2.138,10.373,2.226,10.78.265,17.931a.5.5,0,0,0,.477.626h2.3a.247.247,0,0,1,.243.2l.921,4.847v.007A.5.5,0,0,0,4.69,24H7.66a.5.5,0,0,0,.483-.39v0l.993-5.225a.979.979,0,0,0,.018-.187Z"/></svg>