<svg id="Bold" xmlns="http://www.w3.org/2000/svg" viewBox="0 0 24 24"><title>single-woman-actions-question</title><path d="M10.679,13.472a.249.249,0,0,0,.028-.194c-.526-1.935-.655-2.941-1.731-3.948a.5.5,0,0,0-.757.1L6.482,12.16a.5.5,0,0,1-.837,0L3.923,9.411a.5.5,0,0,0-.755-.1C2.014,10.373,2.1,10.78.141,17.931a.5.5,0,0,0,.478.626h2.3a.247.247,0,0,1,.243.2l.921,4.847v.007A.5.5,0,0,0,4.567,24H7.536a.5.5,0,0,0,.483-.388l0-.007.921-4.847a.247.247,0,0,1,.243-.2h.132a.249.249,0,0,0,.184-.082.245.245,0,0,0,.063-.19,7.085,7.085,0,0,1-.038-.718A7.857,7.857,0,0,1,10.679,13.472Z"/><path d="M6.041,8.412A4.206,4.206,0,1,0,1.834,4.206,4.211,4.211,0,0,0,6.041,8.412Zm0-1.979A2.223,2.223,0,0,1,3.9,4.81a.247.247,0,0,1,.158-.3,4.63,4.63,0,0,0,1.8-1.128.247.247,0,0,1,.353,0,4.615,4.615,0,0,0,1.8,1.128.248.248,0,0,1,.157.3A2.223,2.223,0,0,1,6.041,6.433Z"/><path d="M17.443,11.134a6.433,6.433,0,1,0,6.433,6.433A6.441,6.441,0,0,0,17.443,11.134Zm2.6,4.825A2.614,2.614,0,0,1,18.328,18.4a.216.216,0,0,0-.142.2v.2a.743.743,0,0,1-1.485,0v-.547a1.243,1.243,0,0,1,.978-1.209,1.114,1.114,0,1,0-1.349-1.089.743.743,0,0,1-1.485,0,2.6,2.6,0,1,1,5.2,0Zm-2.6,4.577a.99.99,0,1,1-.989.99A.99.99,0,0,1,17.443,20.536Z"/><path d="M10.679,13.472a.249.249,0,0,0,.028-.194c-.526-1.935-.655-2.941-1.731-3.948a.5.5,0,0,0-.757.1L6.482,12.16a.5.5,0,0,1-.837,0L3.923,9.411a.5.5,0,0,0-.755-.1C2.014,10.373,2.1,10.78.141,17.931a.5.5,0,0,0,.478.626h2.3a.247.247,0,0,1,.243.2l.921,4.847v.007A.5.5,0,0,0,4.567,24H7.536a.5.5,0,0,0,.483-.388l0-.007.921-4.847a.247.247,0,0,1,.243-.2h.132a.249.249,0,0,0,.184-.082.245.245,0,0,0,.063-.19,7.085,7.085,0,0,1-.038-.718A7.857,7.857,0,0,1,10.679,13.472Z"/><path d="M6.041,8.412A4.206,4.206,0,1,0,1.834,4.206,4.211,4.211,0,0,0,6.041,8.412Zm0-1.979A2.223,2.223,0,0,1,3.9,4.81a.247.247,0,0,1,.158-.3,4.63,4.63,0,0,0,1.8-1.128.247.247,0,0,1,.353,0,4.615,4.615,0,0,0,1.8,1.128.248.248,0,0,1,.157.3A2.223,2.223,0,0,1,6.041,6.433Z"/><path d="M17.443,11.134a6.433,6.433,0,1,0,6.433,6.433A6.441,6.441,0,0,0,17.443,11.134Zm2.6,4.825A2.614,2.614,0,0,1,18.328,18.4a.216.216,0,0,0-.142.2v.2a.743.743,0,0,1-1.485,0v-.547a1.243,1.243,0,0,1,.978-1.209,1.114,1.114,0,1,0-1.349-1.089.743.743,0,0,1-1.485,0,2.6,2.6,0,1,1,5.2,0Zm-2.6,4.577a.99.99,0,1,1-.989.99A.99.99,0,0,1,17.443,20.536Z"/></svg>