<svg id="Bold" xmlns="http://www.w3.org/2000/svg" viewBox="0 0 24 24"><title>single-woman-actions-up-down</title><path d="M10.936,14.37a.243.243,0,0,0,.02-.181c-.838-3.066-.919-3.866-1.98-4.859a.5.5,0,0,0-.757.1L6.482,12.16a.5.5,0,0,1-.837,0L3.923,9.411a.5.5,0,0,0-.755-.1C2.015,10.373,2.1,10.78.141,17.931a.5.5,0,0,0,.478.626h2.3a.247.247,0,0,1,.243.2l.921,4.847v.007A.5.5,0,0,0,4.567,24H7.536a.5.5,0,0,0,.483-.388l0-.007.921-4.847a.247.247,0,0,1,.243-.2h.6a.246.246,0,0,0,.247-.262c0-.077-.007-.155-.007-.233A7.863,7.863,0,0,1,10.936,14.37Z"/><path d="M1.834,4.206A4.207,4.207,0,1,0,6.041,0,4.212,4.212,0,0,0,1.834,4.206ZM6.041,6.433A2.224,2.224,0,0,1,3.9,4.81a.248.248,0,0,1,.158-.3,4.623,4.623,0,0,0,1.8-1.128.247.247,0,0,1,.353,0,4.627,4.627,0,0,0,1.8,1.128.247.247,0,0,1,.157.3A2.222,2.222,0,0,1,6.041,6.433Z"/><path d="M15.867,23.3l2.474-3.464a.495.495,0,0,0-.4-.782h-.989A.248.248,0,0,1,16.7,18.8v-5.2a1.237,1.237,0,1,0-2.474,0v5.2a.248.248,0,0,1-.248.248H12.99a.495.495,0,0,0-.4.782L15.061,23.3a.5.5,0,0,0,.806,0Z"/><path d="M22.144,17.32a.248.248,0,0,1,.248-.248h.99a.495.495,0,0,0,.4-.782L21.31,12.826a.513.513,0,0,0-.8,0L18.031,16.29a.494.494,0,0,0,.4.782h.99a.248.248,0,0,1,.247.248v5.2a1.237,1.237,0,1,0,2.474,0Z"/><path d="M10.936,14.37a.243.243,0,0,0,.02-.181c-.838-3.066-.919-3.866-1.98-4.859a.5.5,0,0,0-.757.1L6.482,12.16a.5.5,0,0,1-.837,0L3.923,9.411a.5.5,0,0,0-.755-.1C2.015,10.373,2.1,10.78.141,17.931a.5.5,0,0,0,.478.626h2.3a.247.247,0,0,1,.243.2l.921,4.847v.007A.5.5,0,0,0,4.567,24H7.536a.5.5,0,0,0,.483-.388l0-.007.921-4.847a.247.247,0,0,1,.243-.2h.6a.246.246,0,0,0,.247-.262c0-.077-.007-.155-.007-.233A7.863,7.863,0,0,1,10.936,14.37Z"/><path d="M1.834,4.206A4.207,4.207,0,1,0,6.041,0,4.212,4.212,0,0,0,1.834,4.206ZM6.041,6.433A2.224,2.224,0,0,1,3.9,4.81a.248.248,0,0,1,.158-.3,4.623,4.623,0,0,0,1.8-1.128.247.247,0,0,1,.353,0,4.627,4.627,0,0,0,1.8,1.128.247.247,0,0,1,.157.3A2.222,2.222,0,0,1,6.041,6.433Z"/><path d="M15.867,23.3l2.474-3.464a.495.495,0,0,0-.4-.782h-.989A.248.248,0,0,1,16.7,18.8v-5.2a1.237,1.237,0,1,0-2.474,0v5.2a.248.248,0,0,1-.248.248H12.99a.495.495,0,0,0-.4.782L15.061,23.3a.5.5,0,0,0,.806,0Z"/><path d="M22.144,17.32a.248.248,0,0,1,.248-.248h.99a.495.495,0,0,0,.4-.782L21.31,12.826a.513.513,0,0,0-.8,0L18.031,16.29a.494.494,0,0,0,.4.782h.99a.248.248,0,0,1,.247.248v5.2a1.237,1.237,0,1,0,2.474,0Z"/></svg>