<svg id="Bold" xmlns="http://www.w3.org/2000/svg" viewBox="0 0 24 24"><title>single-woman-actions-home</title><path d="M.141,17.931a.5.5,0,0,0,.478.626h2.3a.247.247,0,0,1,.243.2l.921,4.847v.007A.5.5,0,0,0,4.567,24H7.536a.5.5,0,0,0,.483-.388l0-.007.705-3.714a.245.245,0,0,0-.059-.212,2.362,2.362,0,0,1-.475-.766,2.483,2.483,0,0,1,.723-2.739L10.893,14.5a.247.247,0,0,0,.079-.254c-.872-3.2-.94-3.928-2-4.916a.5.5,0,0,0-.757.1L6.482,12.16a.5.5,0,0,1-.837,0L3.923,9.411a.5.5,0,0,0-.755-.1C2.014,10.373,2.1,10.78.141,17.931Z"/><path d="M1.834,4.206A4.207,4.207,0,1,0,6.041,0,4.212,4.212,0,0,0,1.834,4.206ZM6.041,6.433A2.223,2.223,0,0,1,3.9,4.81a.247.247,0,0,1,.158-.3,4.63,4.63,0,0,0,1.8-1.128.247.247,0,0,1,.353,0,4.627,4.627,0,0,0,1.8,1.128.247.247,0,0,1,.157.3A2.222,2.222,0,0,1,6.041,6.433Z"/><path d="M10.2,17.684a.5.5,0,0,0,.32.873h1.237A.247.247,0,0,1,12,18.8v4.7a.494.494,0,0,0,.495.5H21.4a.5.5,0,0,0,.495-.5V18.8a.246.246,0,0,1,.247-.247h1.237a.5.5,0,0,0,.32-.873l-6.433-5.443a.494.494,0,0,0-.64,0Z"/><path d="M.141,17.931a.5.5,0,0,0,.478.626h2.3a.247.247,0,0,1,.243.2l.921,4.847v.007A.5.5,0,0,0,4.567,24H7.536a.5.5,0,0,0,.483-.388l0-.007.705-3.714a.245.245,0,0,0-.059-.212,2.362,2.362,0,0,1-.475-.766,2.483,2.483,0,0,1,.723-2.739L10.893,14.5a.247.247,0,0,0,.079-.254c-.872-3.2-.94-3.928-2-4.916a.5.5,0,0,0-.757.1L6.482,12.16a.5.5,0,0,1-.837,0L3.923,9.411a.5.5,0,0,0-.755-.1C2.014,10.373,2.1,10.78.141,17.931Z"/><path d="M1.834,4.206A4.207,4.207,0,1,0,6.041,0,4.212,4.212,0,0,0,1.834,4.206ZM6.041,6.433A2.223,2.223,0,0,1,3.9,4.81a.247.247,0,0,1,.158-.3,4.63,4.63,0,0,0,1.8-1.128.247.247,0,0,1,.353,0,4.627,4.627,0,0,0,1.8,1.128.247.247,0,0,1,.157.3A2.222,2.222,0,0,1,6.041,6.433Z"/><path d="M10.2,17.684a.5.5,0,0,0,.32.873h1.237A.247.247,0,0,1,12,18.8v4.7a.494.494,0,0,0,.495.5H21.4a.5.5,0,0,0,.495-.5V18.8a.246.246,0,0,1,.247-.247h1.237a.5.5,0,0,0,.32-.873l-6.433-5.443a.494.494,0,0,0-.64,0Z"/></svg>