<svg id="Bold" xmlns="http://www.w3.org/2000/svg" viewBox="0 0 24 24"><title>single-woman-actions-wifi</title><path d="M.141,17.931a.5.5,0,0,0,.478.626h2.3a.247.247,0,0,1,.243.2l.921,4.847v.007A.5.5,0,0,0,4.567,24H7.536a.5.5,0,0,0,.483-.388l0-.007.92-4.847a.248.248,0,0,1,.244-.2h.793a.248.248,0,0,0,.182-.415c-.034-.037-.067-.076-.1-.116a2.474,2.474,0,0,1,.4-3.476c.115-.091.233-.175.352-.258a.247.247,0,0,0,.1-.268c-.806-2.958-.889-3.715-1.935-4.694a.5.5,0,0,0-.757.1L6.482,12.16a.5.5,0,0,1-.837,0L3.923,9.411a.5.5,0,0,0-.755-.1C2.014,10.373,2.1,10.78.141,17.931Z"/><path d="M6.041,8.412A4.206,4.206,0,1,0,1.834,4.206,4.211,4.211,0,0,0,6.041,8.412Zm0-1.979A2.223,2.223,0,0,1,3.9,4.81a.247.247,0,0,1,.158-.3,4.63,4.63,0,0,0,1.8-1.128.247.247,0,0,1,.353,0,4.615,4.615,0,0,0,1.8,1.128.248.248,0,0,1,.157.3A2.223,2.223,0,0,1,6.041,6.433Z"/><circle cx="17.443" cy="22.268" r="1.732"/><path d="M11.224,17.1a.991.991,0,0,0,1.391.16,7.746,7.746,0,0,1,9.657,0A.989.989,0,1,0,23.5,15.713a9.715,9.715,0,0,0-12.116,0A.991.991,0,0,0,11.224,17.1Z"/><path d="M13.834,18.509a.99.99,0,0,0,1.28,1.51,3.549,3.549,0,0,1,4.659,0,.989.989,0,0,0,1.279-1.51A5.562,5.562,0,0,0,13.834,18.509Z"/><path d="M.141,17.931a.5.5,0,0,0,.478.626h2.3a.247.247,0,0,1,.243.2l.921,4.847v.007A.5.5,0,0,0,4.567,24H7.536a.5.5,0,0,0,.483-.388l0-.007.92-4.847a.248.248,0,0,1,.244-.2h.793a.248.248,0,0,0,.182-.415c-.034-.037-.067-.076-.1-.116a2.474,2.474,0,0,1,.4-3.476c.115-.091.233-.175.352-.258a.247.247,0,0,0,.1-.268c-.806-2.958-.889-3.715-1.935-4.694a.5.5,0,0,0-.757.1L6.482,12.16a.5.5,0,0,1-.837,0L3.923,9.411a.5.5,0,0,0-.755-.1C2.014,10.373,2.1,10.78.141,17.931Z"/><path d="M6.041,8.412A4.206,4.206,0,1,0,1.834,4.206,4.211,4.211,0,0,0,6.041,8.412Zm0-1.979A2.223,2.223,0,0,1,3.9,4.81a.247.247,0,0,1,.158-.3,4.63,4.63,0,0,0,1.8-1.128.247.247,0,0,1,.353,0,4.615,4.615,0,0,0,1.8,1.128.248.248,0,0,1,.157.3A2.223,2.223,0,0,1,6.041,6.433Z"/><circle cx="17.443" cy="22.268" r="1.732"/><path d="M11.224,17.1a.991.991,0,0,0,1.391.16,7.746,7.746,0,0,1,9.657,0A.989.989,0,1,0,23.5,15.713a9.715,9.715,0,0,0-12.116,0A.991.991,0,0,0,11.224,17.1Z"/><path d="M13.834,18.509a.99.99,0,0,0,1.28,1.51,3.549,3.549,0,0,1,4.659,0,.989.989,0,0,0,1.279-1.51A5.562,5.562,0,0,0,13.834,18.509Z"/></svg>