<svg id="Bold" xmlns="http://www.w3.org/2000/svg" viewBox="0 0 24 24"><title>single-woman-actions-mobilephone</title><path d="M11.9,18.359a.5.5,0,0,0,.084-.431c-1.964-7.161-1.879-7.545-3.007-8.6a.494.494,0,0,0-.756.1L6.483,12.158a.495.495,0,0,1-.837,0L3.924,9.41a.5.5,0,0,0-.755-.1C2.016,10.371,2.1,10.779.143,17.928a.494.494,0,0,0,.478.625h2.3a.249.249,0,0,1,.243.2L4.084,23.6A.5.5,0,0,0,4.568,24H7.537a.5.5,0,0,0,.484-.393l.921-4.848a.248.248,0,0,1,.243-.2h2.32A.5.5,0,0,0,11.9,18.359Z"/><path d="M6.042,8.411A4.206,4.206,0,1,0,1.836,4.205,4.211,4.211,0,0,0,6.042,8.411Zm0-1.979A2.224,2.224,0,0,1,3.905,4.809a.248.248,0,0,1,.158-.3,4.611,4.611,0,0,0,1.8-1.128.247.247,0,0,1,.353,0,4.632,4.632,0,0,0,1.8,1.129.246.246,0,0,1,.158.3A2.223,2.223,0,0,1,6.042,6.432Z"/><path d="M22.416,11.136H16.427a1.478,1.478,0,0,0-1.458,1.493v9.878h0A1.478,1.478,0,0,0,16.427,24h5.989a1.478,1.478,0,0,0,1.458-1.493h0V12.629A1.478,1.478,0,0,0,22.416,11.136Zm-5.468,10.39V13.61a.5.5,0,0,1,.494-.495H21.4a.5.5,0,0,1,.5.495v7.916a.5.5,0,0,1-.5.5H17.442A.5.5,0,0,1,16.948,21.526Z"/><path d="M11.9,18.359a.5.5,0,0,0,.084-.431c-1.964-7.161-1.879-7.545-3.007-8.6a.494.494,0,0,0-.756.1L6.483,12.158a.495.495,0,0,1-.837,0L3.924,9.41a.5.5,0,0,0-.755-.1C2.016,10.371,2.1,10.779.143,17.928a.494.494,0,0,0,.478.625h2.3a.249.249,0,0,1,.243.2L4.084,23.6A.5.5,0,0,0,4.568,24H7.537a.5.5,0,0,0,.484-.393l.921-4.848a.248.248,0,0,1,.243-.2h2.32A.5.5,0,0,0,11.9,18.359Z"/><path d="M6.042,8.411A4.206,4.206,0,1,0,1.836,4.205,4.211,4.211,0,0,0,6.042,8.411Zm0-1.979A2.224,2.224,0,0,1,3.905,4.809a.248.248,0,0,1,.158-.3,4.611,4.611,0,0,0,1.8-1.128.247.247,0,0,1,.353,0,4.632,4.632,0,0,0,1.8,1.129.246.246,0,0,1,.158.3A2.223,2.223,0,0,1,6.042,6.432Z"/><path d="M22.416,11.136H16.427a1.478,1.478,0,0,0-1.458,1.493v9.878h0A1.478,1.478,0,0,0,16.427,24h5.989a1.478,1.478,0,0,0,1.458-1.493h0V12.629A1.478,1.478,0,0,0,22.416,11.136Zm-5.468,10.39V13.61a.5.5,0,0,1,.494-.495H21.4a.5.5,0,0,1,.5.495v7.916a.5.5,0,0,1-.5.5H17.442A.5.5,0,0,1,16.948,21.526Z"/></svg>