<svg xmlns="http://www.w3.org/2000/svg" viewBox="0 0 24 24"><title>mood-rock</title><path d="M19.081,13.673A3.543,3.543,0,0,0,17,13H12.5a1.5,1.5,0,0,0,0,3H16a.5.5,0,0,1,0,1,3.5,3.5,0,0,0-3.5,3.5.5.5,0,0,1-1,0,4.484,4.484,0,0,1,1.221-3.079A.25.25,0,0,0,12.539,17H12.5a2.5,2.5,0,0,1-2.3-1.526c-.066,0-.132.025-.2.025A2.5,2.5,0,0,1,7.5,13V10a.5.5,0,0,1,1,0v3a1.492,1.492,0,0,0,.586,1.19,1.452,1.452,0,0,0,.634.28.248.248,0,0,0,.195-.046.252.252,0,0,0,.1-.175,2.5,2.5,0,0,1,1.351-1.972.252.252,0,0,0,.136-.223V10a.5.5,0,0,1,1,0v1.749a.25.25,0,0,0,.25.25h2a.25.25,0,0,0,.25-.25V9.938a.5.5,0,0,1,1,0v1.811a.25.25,0,0,0,.25.25H17a4.551,4.551,0,0,1,3.081,1.2.25.25,0,0,0,.419-.184V2.5a2.5,2.5,0,0,0-5,0V7.512a2.466,2.466,0,0,0-3.5.5,2.466,2.466,0,0,0-3.5-.5V4.5a2.5,2.5,0,0,0-5,0v11A8.509,8.509,0,0,0,12,24c4.933,0,8.472-4.173,8.472-7.822A3.2,3.2,0,0,0,19.081,13.673Z"/></svg>