<svg id="Regular" xmlns="http://www.w3.org/2000/svg" viewBox="0 0 24 24"><defs><style>.cls-1{fill:none;stroke:currentColor;stroke-linecap:round;stroke-linejoin:round;stroke-width:1.5px;}</style></defs><title>single-woman-book</title><path class="cls-1" d="M21,23.25H5.25A2.25,2.25,0,0,1,3,21"/><path class="cls-1" d="M6,.75a3,3,0,0,0-3,3V21a2.25,2.25,0,0,1,2.25-2.25H19.5a1.5,1.5,0,0,0,1.5-1.5v-15A1.5,1.5,0,0,0,19.5.75Z"/><line class="cls-1" x1="19.5" y1="23.25" x2="19.5" y2="18.75"/><path class="cls-1" d="M16.224,15a4.513,4.513,0,0,0-2.383-2.591L12,15.75l-1.841-3.341A4.518,4.518,0,0,0,7.775,15"/><circle class="cls-1" cx="12" cy="7.5" r="3"/><path class="cls-1" d="M9,7.5s0,3.75-2.25,3.75"/><path class="cls-1" d="M15,7.5s0,3.75,2.25,3.75"/></svg>