<svg id="Bold" xmlns="http://www.w3.org/2000/svg" viewBox="0 0 24 24"><title>single-man-actions-edit-2</title><path d="M7,10A5,5,0,1,0,2,5,5.006,5.006,0,0,0,7,10ZM4.1,4.258a.5.5,0,0,1,.741-.3A6.959,6.959,0,0,0,8.46,5a6.224,6.224,0,0,0,.929-.071.5.5,0,0,1,.568.565A3,3,0,0,1,4,5,2.841,2.841,0,0,1,4.1,4.258Z"/><path d="M13.845,15.329a.5.5,0,0,0,.1-.572A7.532,7.532,0,0,0,7.206,10.5,7.543,7.543,0,0,0,.021,15.858.5.5,0,0,0,.5,16.5H12.466a.5.5,0,0,0,.353-.147Z"/><path d="M23.228,11.765a2.62,2.62,0,0,0-3.7,0l-6.5,6.5a.5.5,0,0,0,0,.707l3,3a.5.5,0,0,0,.707,0l6.5-6.5A2.621,2.621,0,0,0,23.228,11.765Z"/><path d="M12.393,20.462a.5.5,0,0,0-.844.255L11.012,23.4a.5.5,0,0,0,.588.588l2.685-.537a.5.5,0,0,0,.255-.844Z"/></svg>