<svg id="Bold" xmlns="http://www.w3.org/2000/svg" viewBox="0 0 24 24"><title>single-man-actions-subtract</title><path d="M7,10A5,5,0,1,0,2,5,5.006,5.006,0,0,0,7,10ZM4.1,4.257a.5.5,0,0,1,.741-.3A6.959,6.959,0,0,0,8.46,5a6.36,6.36,0,0,0,.929-.07.5.5,0,0,1,.426.139.5.5,0,0,1,.142.425A3,3,0,0,1,4,5,2.841,2.841,0,0,1,4.1,4.257Z"/><path d="M11.335,12.419a.5.5,0,0,0-.117-.741,7.475,7.475,0,0,0-11.2,4.179A.5.5,0,0,0,.5,16.5H9.14a.5.5,0,0,0,.492-.411A7.96,7.96,0,0,1,11.335,12.419Z"/><path d="M17.5,11A6.5,6.5,0,1,0,24,17.5,6.508,6.508,0,0,0,17.5,11ZM21,18.5H14a1,1,0,0,1,0-2h7a1,1,0,0,1,0,2Z"/></svg>