<svg id="Bold" xmlns="http://www.w3.org/2000/svg" viewBox="0 0 24 24"><title>single-man-actions-coding</title><path d="M17.5,11.006A6.464,6.464,0,1,0,24,17.469,6.489,6.489,0,0,0,17.5,11.006Zm-2.513,6.639,1.293,1.286a.742.742,0,0,1,0,1.054.751.751,0,0,1-1.06,0L13.22,18a.743.743,0,0,1,0-1.055l2-1.989a.753.753,0,0,1,1.06,0,.743.743,0,0,1,0,1.055l-1.293,1.285A.249.249,0,0,0,14.987,17.645ZM21.78,18l-2,1.988a.751.751,0,0,1-1.06,0,.742.742,0,0,1,0-1.054l1.293-1.286a.249.249,0,0,0,0-.352L18.72,16.008a.743.743,0,0,1,0-1.055.753.753,0,0,1,1.06,0l2,1.989A.743.743,0,0,1,21.78,18Z"/><path d="M7,10.011A4.972,4.972,0,1,0,2,5.039,4.991,4.991,0,0,0,7,10.011ZM4.1,4.3a.5.5,0,0,1,.3-.332.506.506,0,0,1,.445.036A6.991,6.991,0,0,0,8.46,5.039a6.36,6.36,0,0,0,.929-.07.5.5,0,0,1,.569.562A3,3,0,0,1,4,5.039,2.8,2.8,0,0,1,4.1,4.3Z"/><path d="M11.443,12.022a.5.5,0,0,0-.225-.342,7.493,7.493,0,0,0-11.2,4.156.5.5,0,0,0,.479.639H9.14a.5.5,0,0,0,.492-.409,7.894,7.894,0,0,1,1.7-3.649A.5.5,0,0,0,11.443,12.022Z"/></svg>