<svg id="Bold" xmlns="http://www.w3.org/2000/svg" viewBox="0 0 24 24"><title>single-man-actions-shield</title><path d="M7.044,10a5,5,0,1,0-5-5A5.006,5.006,0,0,0,7.044,10Zm-2.9-5.743a.5.5,0,0,1,.741-.3A6.958,6.958,0,0,0,8.5,5a6.35,6.35,0,0,0,.929-.07A.5.5,0,0,1,10,5.494,3,3,0,0,1,4.044,5,2.8,2.8,0,0,1,4.144,4.257Z"/><path d="M9.456,13.456a3.009,3.009,0,0,1,.553-1.738.5.5,0,0,0-.237-.757A7.265,7.265,0,0,0,7.25,10.5,7.543,7.543,0,0,0,.065,15.857a.5.5,0,0,0,.479.643H8.956a.5.5,0,0,0,.5-.5Z"/><path d="M23.956,13.456a1.546,1.546,0,0,0-.927-1.416A16.4,16.4,0,0,0,17.434,11a15.98,15.98,0,0,0-5.549,1.04,1.546,1.546,0,0,0-.929,1.416v3.393a7.718,7.718,0,0,0,5.19,6.805l.553.211a2.071,2.071,0,0,0,1.471,0l.553-.211c3.081-1.174,5.233-3.972,5.233-6.8Zm-5.75,1.794a.5.5,0,0,0,.5.5h1.75a.75.75,0,1,1,0,1.5h-1.75a.5.5,0,0,0-.5.5V19.5a.75.75,0,0,1-1.5,0V17.75a.5.5,0,0,0-.5-.5h-1.75a.75.75,0,0,1,0-1.5h1.75a.5.5,0,0,0,.5-.5V13.5a.75.75,0,0,1,1.5,0Z"/></svg>