<svg id="Bold" xmlns="http://www.w3.org/2000/svg" viewBox="0 0 24 24"><title>single-man-actions-image</title><path d="M7.066,10a5,5,0,1,0-5-5A5.006,5.006,0,0,0,7.066,10Zm-2.9-5.743a.5.5,0,0,1,.741-.3A6.959,6.959,0,0,0,8.526,5a6.343,6.343,0,0,0,.927-.07.5.5,0,0,1,.568.565A3,3,0,0,1,4.066,5,2.841,2.841,0,0,1,4.166,4.257Z"/><path d="M8.934,11a.355.355,0,0,0-.286-.349A6.831,6.831,0,0,0,7.272,10.5,7.544,7.544,0,0,0,.087,15.857a.5.5,0,0,0,.479.643H8.434a.5.5,0,0,0,.5-.5Z"/><path d="M12.5,10.5a2,2,0,0,0-2,2V22a2,2,0,0,0,2,2H22a2,2,0,0,0,2-2V12.5a2,2,0,0,0-2-2Zm8.775,6.387a1.25,1.25,0,0,0-2.064-.024l-1.537,2.2a.254.254,0,0,1-.169.1.25.25,0,0,1-.192-.053l-.612-.489a1.249,1.249,0,0,0-1.821.282l-2,3.005a.2.2,0,0,1-.171.092.206.206,0,0,1-.206-.206V12.75a.25.25,0,0,1,.25-.25h9a.25.25,0,0,1,.25.25v4.4a.25.25,0,0,1-.458.139Z"/><circle cx="15.5" cy="15" r="1.75"/></svg>