<svg id="Bold" xmlns="http://www.w3.org/2000/svg" viewBox="0 0 24 24"><title>single-man-actions-check-1</title><path d="M17.5,11A6.5,6.5,0,1,0,24,17.5,6.508,6.508,0,0,0,17.5,11Zm3.7,5.181-3.148,4.2a1.8,1.8,0,0,1-1.323.721c-.044,0-.088,0-.132,0a1.8,1.8,0,0,1-1.279-.535L13.7,18.945a1,1,0,0,1,1.414-1.415L16.384,18.8a.247.247,0,0,0,.194.073.253.253,0,0,0,.182-.1l2.845-3.794a1,1,0,1,1,1.6,1.2Z"/><path d="M7,10A5,5,0,1,0,2,5,5.006,5.006,0,0,0,7,10ZM4.1,4.258a.5.5,0,0,1,.741-.3A6.959,6.959,0,0,0,8.46,5a6.36,6.36,0,0,0,.929-.07.5.5,0,0,1,.425.139.5.5,0,0,1,.144.425A3,3,0,0,1,4,5,2.828,2.828,0,0,1,4.1,4.258Z"/><path d="M11.443,12.021a.5.5,0,0,0-.225-.343,7.475,7.475,0,0,0-11.2,4.179A.5.5,0,0,0,.5,16.5H9.14a.5.5,0,0,0,.492-.411,7.96,7.96,0,0,1,1.7-3.67A.5.5,0,0,0,11.443,12.021Z"/></svg>