<svg xmlns="http://www.w3.org/2000/svg" viewBox="0 0 24 24"><defs><style>.a{fill:none;stroke:currentColor;stroke-linecap:round;stroke-linejoin:round;stroke-width:1.5px;}</style></defs><title>network-lock</title><rect class="a" x="14.25" y="15.75" width="9" height="7.5" rx="1.5" ry="1.5"/><path class="a" d="M18.75,11.25h0a3,3,0,0,0-3,3v1.5h6v-1.5A3,3,0,0,0,18.75,11.25Z"/><path class="a" d="M18.75,19.155a.375.375,0,1,1-.375.375.375.375,0,0,1,.375-.375"/><path class="a" d="M11.236,23.225A11.251,11.251,0,1,1,23.149,10.486"/><path class="a" d="M9.289,22.921C7.768,20.689,6.75,16.633,6.75,12S7.768,3.312,9.289,1.079"/><line class="a" x1="0.774" y1="11.25" x2="13.5" y2="11.25"/><line class="a" x1="2.999" y1="5.25" x2="21" y2="5.25"/><line class="a" x1="2.048" y1="17.25" x2="11.25" y2="17.25"/><path class="a" d="M14.711,1.079a17.046,17.046,0,0,1,2.311,7.192"/></svg>