<svg xmlns="http://www.w3.org/2000/svg" viewBox="0 0 24 24"><defs><style>.a{fill:none;stroke:currentColor;stroke-linecap:round;stroke-linejoin:round;stroke-width:1.5px;}</style></defs><title>network-arrow</title><path class="a" d="M13.588,23.141A11.565,11.565,0,0,1,12,23.25a11.257,11.257,0,1,1,11.137-9.658"/><path class="a" d="M9.289,22.921C7.767,20.689,6.749,16.633,6.749,12S7.767,3.312,9.289,1.079"/><line class="a" x1="0.774" y1="11.25" x2="11.249" y2="11.25"/><line class="a" x1="16.499" y1="11.25" x2="23.225" y2="11.25"/><line class="a" x1="2.999" y1="5.25" x2="21" y2="5.25"/><line class="a" x1="2.047" y1="17.25" x2="10.499" y2="17.25"/><path class="a" d="M14.71,1.079c1.348,1.978,2.3,5.386,2.5,9.359q.021.408.031.813"/><path class="a" d="M13.013,13.846l2.158,7.191a.667.667,0,0,0,1.112.281l1.1-1.1,2.835,2.836a.67.67,0,0,0,.945,0l1.891-1.891a.668.668,0,0,0,0-.945l-2.836-2.836,1.1-1.1a.668.668,0,0,0-.28-1.112l-7.192-2.158A.668.668,0,0,0,13.013,13.846Z"/></svg>