<svg xmlns="http://www.w3.org/2000/svg" viewBox="0 0 24 24"><defs><style>.a{fill:none;stroke:currentColor;stroke-linecap:round;stroke-linejoin:round;stroke-width:1.5px;}</style></defs><title>network-refresh</title><path class="a" d="M9.952,23.25s5.8-.75,7.3-6h-3l5.452-4.5,3.548,4.5H21S20.452,23.25,9.952,23.25Z"/><path class="a" d="M5.994,21.514A11.251,11.251,0,1,1,23.146,10.466"/><path class="a" d="M7.755,19.5a26.6,26.6,0,0,1-1-7.5c0-4.633,1.018-8.688,2.539-10.921"/><line class="a" x1="0.775" y1="11.25" x2="14.25" y2="11.25"/><line class="a" x1="2.999" y1="5.25" x2="21" y2="5.25"/><line class="a" x1="2.048" y1="17.25" x2="11.25" y2="17.25"/><path class="a" d="M14.711,1.079c1.348,1.978,2.3,5.386,2.5,9.359"/></svg>