<?xml version="1.0" encoding="utf-8"?>
<!-- Generator: Adobe Illustrator 22.1.0, SVG Export Plug-In . SVG Version: 6.00 Build 0)  -->
<svg version="1.1" id="Light" xmlns="http://www.w3.org/2000/svg" xmlns:xlink="http://www.w3.org/1999/xlink" x="0px" y="0px"
	 viewBox="0 0 24 24" style="enable-background:new 0 0 24 24;" xml:space="preserve">
<g>
	<title>single-man</title>
	<path d="M12,14.5c-0.276,0-0.5-0.224-0.5-0.5v-3c0-0.276,0.224-0.5,0.5-0.5c0.276,0,0.5,0.224,0.5,0.5v3
		C12.5,14.276,12.276,14.5,12,14.5z"/>
	<path d="M10,24c-0.258,0-0.477-0.201-0.498-0.458L9.04,18H7c-0.276,0-0.5-0.224-0.5-0.5V14c0-3.033,2.467-5.5,5.5-5.5
		s5.5,2.467,5.5,5.5v3.5c0,0.276-0.224,0.5-0.5,0.5h-2.04l-0.462,5.542C14.477,23.799,14.258,24,14,24H10z M13.54,23l0.462-5.542
		C14.023,17.201,14.242,17,14.5,17h2v-3c0-2.481-2.019-4.5-4.5-4.5c-2.481,0-4.5,2.019-4.5,4.5v3h2c0.258,0,0.477,0.201,0.498,0.458
		L10.46,23H13.54z"/>
	<path d="M12,8C9.794,8,8,6.206,8,4c0-0.691,0.183-1.375,0.529-1.979c0.015-0.032,0.033-0.057,0.044-0.073C9.29,0.749,10.604,0,12,0
		c2.001,0,3.705,1.498,3.963,3.484c0,0.003,0.001,0.007,0.001,0.012l0,0C15.989,3.684,16,3.844,16,4C16,6.206,14.206,8,12,8z
		 M9.154,3.058C9.052,3.363,9,3.678,9,4c0,1.654,1.346,3,3,3c1.576,0,2.873-1.222,2.991-2.769C14.4,4.41,13.789,4.5,13.168,4.5
		C11.718,4.5,10.276,3.978,9.154,3.058z M13.175,3.5c0.587-0.001,1.164-0.098,1.719-0.289C14.542,1.918,13.357,1,12,1
		c-0.927,0-1.796,0.428-2.364,1.155c0.964,0.856,2.235,1.344,3.522,1.345c0.003,0,0.005,0,0.008,0C13.169,3.5,13.172,3.5,13.175,3.5
		z"/>
</g>
</svg>
