<?xml version="1.0" encoding="utf-8"?>
<!-- Generator: Adobe Illustrator 22.1.0, SVG Export Plug-In . SVG Version: 6.00 Build 0)  -->
<svg version="1.1" id="Light" xmlns="http://www.w3.org/2000/svg" xmlns:xlink="http://www.w3.org/1999/xlink" x="0px" y="0px"
	 viewBox="0 0 24 24" style="enable-background:new 0 0 24 24;" xml:space="preserve">
<g>
	<title>single-man-chat</title>
	<circle cx="14.75" cy="5.25" r="0.75"/>
	<circle cx="17.5" cy="5.25" r="0.75"/>
	<circle cx="20.25" cy="5.25" r="0.75"/>
	<path d="M14.75,12.729c-0.23,0-0.444-0.103-0.586-0.282c-0.109-0.136-0.167-0.307-0.164-0.481V10h-1.5C11.673,10,11,9.327,11,8.5
		v-7C11,0.673,11.673,0,12.5,0h10C23.327,0,24,0.673,24,1.5v7c0,0.827-0.673,1.5-1.5,1.5h-4.075l-3.207,2.566
		C15.086,12.671,14.92,12.729,14.75,12.729z M12.5,1C12.224,1,12,1.224,12,1.5v7C12,8.776,12.224,9,12.5,9h2
		C14.776,9,15,9.224,15,9.5v1.955l2.938-2.346C18.026,9.039,18.137,9,18.25,9h4.25C22.776,9,23,8.776,23,8.5v-7
		C23,1.224,22.776,1,22.5,1H12.5z"/>
	<path d="M5.5,14.5C5.224,14.5,5,14.276,5,14v-3c0-0.276,0.224-0.5,0.5-0.5S6,10.724,6,11v3C6,14.276,5.776,14.5,5.5,14.5z"/>
	<path d="M3.5,24c-0.258,0-0.477-0.201-0.498-0.458L2.54,18H0.5C0.224,18,0,17.776,0,17.5V14c0-3.033,2.467-5.5,5.5-5.5
		S11,10.967,11,14v3.5c0,0.276-0.224,0.5-0.5,0.5H8.46l-0.462,5.542C7.977,23.799,7.758,24,7.5,24H3.5z M7.04,23l0.462-5.542
		C7.523,17.201,7.742,17,8,17h2v-3c0-2.481-2.019-4.5-4.5-4.5S1,11.519,1,14v3h2c0.258,0,0.477,0.201,0.498,0.458L3.96,23H7.04z"/>
	<path d="M5.5,8c-2.206,0-4-1.794-4-4c0-0.691,0.183-1.375,0.529-1.979c0.015-0.032,0.033-0.057,0.044-0.073
		C2.79,0.749,4.104,0,5.5,0c2.001,0,3.705,1.498,3.963,3.484c0,0.003,0.002,0.012,0.002,0.012C9.489,3.685,9.5,3.846,9.5,4
		C9.5,6.206,7.706,8,5.5,8z M2.654,3.058C2.552,3.363,2.5,3.678,2.5,4c0,1.654,1.346,3,3,3c1.576,0,2.873-1.222,2.991-2.769
		C7.9,4.41,7.289,4.5,6.668,4.5c-0.002,0-0.004,0-0.005,0C5.215,4.499,3.775,3.977,2.654,3.058z M6.675,3.5
		c0.587-0.001,1.164-0.098,1.719-0.289C8.042,1.918,6.857,1,5.5,1C4.573,1,3.704,1.428,3.136,2.155
		C4.101,3.01,5.372,3.498,6.659,3.5c0.003,0,0.005,0,0.008,0S6.672,3.5,6.675,3.5z"/>
</g>
</svg>
