<?xml version="1.0" encoding="utf-8"?>
<!-- Generator: Adobe Illustrator 22.1.0, SVG Export Plug-In . SVG Version: 6.00 Build 0)  -->
<svg version="1.1" id="Light" xmlns="http://www.w3.org/2000/svg" xmlns:xlink="http://www.w3.org/1999/xlink" x="0px" y="0px"
	 viewBox="0 0 24 24" style="enable-background:new 0 0 24 24;" xml:space="preserve">
<g>
	<title>single-man-decrease</title>
	<path d="M18.5,11c-0.276,0-0.5-0.224-0.5-0.5s0.224-0.5,0.5-0.5h3.922l-4.228-4.996c-0.095-0.113-0.235-0.178-0.382-0.178
		c-0.098,0-0.194,0.029-0.276,0.084L16.041,5.91c-0.25,0.167-0.539,0.255-0.835,0.255c-0.456,0-0.882-0.206-1.169-0.565
		l-3.427-4.287c-0.172-0.215-0.137-0.531,0.078-0.703C10.776,0.539,10.887,0.5,11,0.5c0.153,0,0.295,0.068,0.391,0.188l3.427,4.287
		c0.096,0.12,0.238,0.189,0.389,0.189c0.099,0,0.195-0.03,0.279-0.086l1.495-1c0.248-0.165,0.535-0.252,0.832-0.252
		c0.443,0,0.86,0.194,1.146,0.532L23,9.135V5.5C23,5.224,23.224,5,23.5,5S24,5.224,24,5.5v5c0,0.016-0.002,0.033-0.005,0.05
		c-0.004,0.031-0.01,0.052-0.013,0.067c-0.006,0.028-0.013,0.059-0.03,0.094c-0.014,0.032-0.033,0.057-0.044,0.07
		c-0.015,0.021-0.031,0.045-0.055,0.07c-0.01,0.012-0.022,0.024-0.033,0.033c-0.028,0.023-0.056,0.038-0.072,0.045
		c-0.015,0.01-0.051,0.029-0.067,0.035C23.622,10.988,23.561,11,23.5,11H18.5z"/>
	<path d="M5.5,14.5C5.224,14.5,5,14.276,5,14v-3c0-0.276,0.224-0.5,0.5-0.5S6,10.724,6,11v3C6,14.276,5.776,14.5,5.5,14.5z"/>
	<path d="M3.5,24c-0.258,0-0.477-0.201-0.498-0.458L2.54,18H0.5C0.224,18,0,17.776,0,17.5V14c0-3.033,2.467-5.5,5.5-5.5
		S11,10.967,11,14v3.5c0,0.276-0.224,0.5-0.5,0.5H8.46l-0.462,5.542C7.977,23.799,7.758,24,7.5,24H3.5z M7.04,23l0.462-5.542
		C7.523,17.201,7.742,17,8,17h2v-3c0-2.481-2.019-4.5-4.5-4.5S1,11.519,1,14v3h2c0.258,0,0.477,0.201,0.498,0.458L3.96,23H7.04z"/>
	<path d="M5.5,8c-2.206,0-4-1.794-4-4c0-0.691,0.183-1.375,0.529-1.979c0.015-0.032,0.033-0.057,0.044-0.073
		C2.79,0.749,4.104,0,5.5,0c2.001,0,3.705,1.498,3.963,3.484c0,0.003,0.002,0.012,0.002,0.012C9.489,3.685,9.5,3.846,9.5,4
		C9.5,6.206,7.706,8,5.5,8z M2.654,3.058C2.552,3.363,2.5,3.678,2.5,4c0,1.654,1.346,3,3,3c1.576,0,2.873-1.222,2.991-2.769
		C7.9,4.41,7.289,4.5,6.668,4.5c-0.002,0-0.004,0-0.005,0C5.215,4.499,3.775,3.977,2.654,3.058z M6.675,3.5
		c0.587-0.001,1.164-0.098,1.719-0.289C8.042,1.918,6.857,1,5.5,1C4.573,1,3.704,1.428,3.136,2.155
		C4.101,3.01,5.372,3.498,6.659,3.5c0.003,0,0.005,0,0.008,0S6.672,3.5,6.675,3.5z"/>
</g>
</svg>
