<?xml version="1.0" encoding="utf-8"?>
<!-- Generator: Adobe Illustrator 22.1.0, SVG Export Plug-In . SVG Version: 6.00 Build 0)  -->
<svg version="1.1" id="Light" xmlns="http://www.w3.org/2000/svg" xmlns:xlink="http://www.w3.org/1999/xlink" x="0px" y="0px"
	 viewBox="0 0 24 24" style="enable-background:new 0 0 24 24;" xml:space="preserve">
<g>
	<title>single-man-shield</title>
	<path d="M17.5,9C17.224,9,17,8.776,17,8.5V6h-2.5C14.224,6,14,5.776,14,5.5S14.224,5,14.5,5H17V2.5C17,2.224,17.224,2,17.5,2
		S18,2.224,18,2.5V5h2.5C20.776,5,21,5.224,21,5.5S20.776,6,20.5,6H18v2.5C18,8.776,17.776,9,17.5,9z"/>
	<path d="M17.482,13.001c-0.253,0-0.502-0.046-0.74-0.138l-0.551-0.209C13.134,11.49,11,8.692,11,5.849V2.456
		c0-0.615,0.364-1.171,0.929-1.417c1.789-0.676,3.651-1.025,5.545-1.041c1.914,0.017,3.788,0.364,5.573,1.032
		C23.631,1.282,24,1.84,24,2.456v3.396c0,2.835-2.152,5.634-5.234,6.805l-0.553,0.21C17.978,12.956,17.732,13.001,17.482,13.001z
		 M17.476,0.998c-1.771,0.015-3.511,0.341-5.171,0.968C12.127,2.044,12,2.242,12,2.456v3.393c0,2.717,2.287,5.01,4.546,5.871
		l0.552,0.21c0.124,0.048,0.253,0.072,0.384,0.072c0.128,0,0.255-0.023,0.375-0.069l0.553-0.21C20.691,10.855,23,8.56,23,5.852
		V2.456c0-0.217-0.128-0.413-0.327-0.5C21.017,1.338,19.264,1.014,17.476,0.998z"/>
	<path d="M5.5,14.5C5.224,14.5,5,14.276,5,14v-3c0-0.276,0.224-0.5,0.5-0.5S6,10.724,6,11v3C6,14.276,5.776,14.5,5.5,14.5z"/>
	<path d="M3.5,24c-0.258,0-0.477-0.201-0.498-0.458L2.54,18H0.5C0.224,18,0,17.776,0,17.5V14c0-3.033,2.467-5.5,5.5-5.5
		S11,10.967,11,14v3.5c0,0.276-0.224,0.5-0.5,0.5H8.46l-0.462,5.542C7.977,23.799,7.758,24,7.5,24H3.5z M7.04,23l0.462-5.542
		C7.523,17.201,7.742,17,8,17h2v-3c0-2.481-2.019-4.5-4.5-4.5S1,11.519,1,14v3h2c0.258,0,0.477,0.201,0.498,0.458L3.96,23H7.04z"/>
	<path d="M5.5,8c-2.206,0-4-1.794-4-4c0-0.691,0.183-1.375,0.529-1.979c0.015-0.032,0.033-0.057,0.044-0.073
		C2.79,0.749,4.104,0,5.5,0c2.001,0,3.705,1.498,3.963,3.484c0,0.003,0.002,0.012,0.002,0.012C9.489,3.685,9.5,3.846,9.5,4
		C9.5,6.206,7.706,8,5.5,8z M2.654,3.058C2.552,3.363,2.5,3.678,2.5,4c0,1.654,1.346,3,3,3c1.576,0,2.873-1.222,2.991-2.769
		C7.9,4.41,7.289,4.5,6.669,4.5C5.219,4.5,3.776,3.978,2.654,3.058z M3.136,2.155C4.103,3.012,5.376,3.5,6.666,3.5
		c0.591,0,1.171-0.097,1.728-0.289C8.042,1.918,6.857,1,5.5,1C4.573,1,3.704,1.428,3.136,2.155z"/>
</g>
</svg>
