<?xml version="1.0" encoding="utf-8"?>
<!-- Generator: Adobe Illustrator 22.1.0, SVG Export Plug-In . SVG Version: 6.00 Build 0)  -->
<svg version="1.1" id="Light" xmlns="http://www.w3.org/2000/svg" xmlns:xlink="http://www.w3.org/1999/xlink" x="0px" y="0px"
	 viewBox="0 0 24 24" style="enable-background:new 0 0 24 24;" xml:space="preserve">
<g>
	<title>single-man-aim</title>
	<path d="M17.5,13c-0.276,0-0.5-0.224-0.5-0.5v-0.529C14.349,11.733,12.268,9.651,12.029,7H11.5C11.224,7,11,6.776,11,6.5
		S11.224,6,11.5,6h0.529C12.268,3.349,14.349,1.267,17,1.029V0.5C17,0.224,17.224,0,17.5,0S18,0.224,18,0.5v0.529
		C20.651,1.267,22.732,3.349,22.971,6H23.5C23.776,6,24,6.224,24,6.5S23.776,7,23.5,7h-0.529c-0.238,2.651-2.319,4.733-4.971,4.971
		V12.5C18,12.776,17.776,13,17.5,13z M17.5,9C17.776,9,18,9.224,18,9.5v1.466C20.09,10.735,21.735,9.09,21.966,7H20.5
		C20.224,7,20,6.776,20,6.5S20.224,6,20.5,6h1.466C21.735,3.91,20.09,2.265,18,2.034V3.5C18,3.776,17.776,4,17.5,4S17,3.776,17,3.5
		V2.034C14.91,2.265,13.265,3.91,13.034,6H14.5C14.776,6,15,6.224,15,6.5S14.776,7,14.5,7h-1.466
		c0.231,2.09,1.876,3.735,3.966,3.966V9.5C17,9.224,17.224,9,17.5,9z"/>
	<circle cx="17.5" cy="6.5" r="0.75"/>
	<path d="M5.5,14.5C5.224,14.5,5,14.276,5,14v-3c0-0.276,0.224-0.5,0.5-0.5S6,10.724,6,11v3C6,14.276,5.776,14.5,5.5,14.5z"/>
	<path d="M3.5,24c-0.258,0-0.477-0.201-0.498-0.458L2.54,18H0.5C0.224,18,0,17.776,0,17.5V14c0-3.033,2.467-5.5,5.5-5.5
		S11,10.967,11,14v3.5c0,0.276-0.224,0.5-0.5,0.5H8.46l-0.462,5.542C7.977,23.799,7.758,24,7.5,24H3.5z M7.04,23l0.462-5.542
		C7.523,17.201,7.742,17,8,17h2v-3c0-2.481-2.019-4.5-4.5-4.5S1,11.519,1,14v3h2c0.258,0,0.477,0.201,0.498,0.458L3.96,23H7.04z"/>
	<path d="M5.5,8c-2.206,0-4-1.794-4-4c0-0.691,0.183-1.375,0.529-1.979c0.015-0.032,0.033-0.057,0.044-0.073
		C2.79,0.749,4.104,0,5.5,0c2.001,0,3.705,1.498,3.963,3.484c0,0.003,0.002,0.012,0.002,0.012C9.489,3.685,9.5,3.846,9.5,4
		C9.5,6.206,7.706,8,5.5,8z M2.654,3.058C2.552,3.363,2.5,3.678,2.5,4c0,1.654,1.346,3,3,3c1.576,0,2.873-1.222,2.991-2.769
		C7.9,4.41,7.289,4.5,6.668,4.5c-0.002,0-0.004,0-0.005,0C5.215,4.499,3.775,3.977,2.654,3.058z M6.675,3.5
		c0.587-0.001,1.164-0.098,1.719-0.289C8.042,1.918,6.857,1,5.5,1C4.573,1,3.704,1.428,3.136,2.155
		C4.101,3.01,5.372,3.498,6.659,3.5c0.003,0,0.005,0,0.008,0S6.672,3.5,6.675,3.5z"/>
</g>
</svg>
