<?xml version="1.0" encoding="utf-8"?>
<!-- Generator: Adobe Illustrator 22.1.0, SVG Export Plug-In . SVG Version: 6.00 Build 0)  -->
<svg version="1.1" id="Light" xmlns="http://www.w3.org/2000/svg" xmlns:xlink="http://www.w3.org/1999/xlink" x="0px" y="0px"
	 viewBox="0 0 24 24" style="enable-background:new 0 0 24 24;" xml:space="preserve">
<g>
	<title>single-man-money</title>
	<path d="M17.5,11c-0.276,0-0.5-0.224-0.5-0.5V10h-1c-0.276,0-0.5-0.224-0.5-0.5S15.724,9,16,9h2.031
		c0.345,0,0.651-0.207,0.78-0.528c0.173-0.431-0.036-0.922-0.467-1.095l-2.063-0.826c-0.702-0.282-1.155-0.953-1.156-1.708
		c0-0.492,0.191-0.955,0.539-1.303C16.012,3.192,16.475,3,16.967,3H17V2.5C17,2.224,17.224,2,17.5,2S18,2.224,18,2.5V3h1
		c0.276,0,0.5,0.224,0.5,0.5S19.276,4,19,4h-2.033c-0.225,0-0.436,0.088-0.595,0.247c-0.159,0.159-0.247,0.371-0.246,0.596
		c0,0.345,0.207,0.652,0.528,0.781l2.063,0.826c0.457,0.184,0.814,0.534,1.007,0.987c0.193,0.453,0.198,0.954,0.015,1.409
		C19.457,9.546,18.787,9.999,18.031,10H18v0.5C18,10.776,17.776,11,17.5,11z"/>
	<path d="M17.5,13c-3.584,0-6.5-2.916-6.5-6.5S13.916,0,17.5,0S24,2.916,24,6.5S21.084,13,17.5,13z M17.5,1
		C14.467,1,12,3.467,12,6.5s2.467,5.5,5.5,5.5S23,9.533,23,6.5S20.533,1,17.5,1z"/>
	<path d="M5.5,14.5C5.224,14.5,5,14.276,5,14v-3c0-0.276,0.224-0.5,0.5-0.5S6,10.724,6,11v3C6,14.276,5.776,14.5,5.5,14.5z"/>
	<path d="M3.5,24c-0.258,0-0.477-0.201-0.498-0.458L2.54,18H0.5C0.224,18,0,17.776,0,17.5V14c0-3.033,2.467-5.5,5.5-5.5
		S11,10.967,11,14v3.5c0,0.276-0.224,0.5-0.5,0.5H8.46l-0.462,5.542C7.977,23.799,7.758,24,7.5,24H3.5z M7.04,23l0.462-5.542
		C7.523,17.201,7.742,17,8,17h2v-3c0-2.481-2.019-4.5-4.5-4.5S1,11.519,1,14v3h2c0.258,0,0.477,0.201,0.498,0.458L3.96,23H7.04z"/>
	<path d="M5.5,8c-2.206,0-4-1.794-4-4c0-0.691,0.183-1.375,0.529-1.979c0.015-0.032,0.033-0.057,0.044-0.073
		C2.79,0.749,4.104,0,5.5,0c2.001,0,3.705,1.498,3.963,3.484c0,0.003,0.002,0.012,0.002,0.012C9.489,3.685,9.5,3.846,9.5,4
		C9.5,6.206,7.706,8,5.5,8z M2.654,3.058C2.552,3.363,2.5,3.678,2.5,4c0,1.654,1.346,3,3,3c1.576,0,2.873-1.222,2.991-2.769
		C7.9,4.41,7.289,4.5,6.668,4.5c-0.002,0-0.004,0-0.005,0C5.215,4.499,3.775,3.977,2.654,3.058z M6.675,3.5
		c0.587-0.001,1.164-0.098,1.719-0.289C8.042,1.918,6.857,1,5.5,1C4.573,1,3.704,1.428,3.136,2.155
		C4.101,3.01,5.372,3.498,6.659,3.5c0.003,0,0.005,0,0.008,0S6.672,3.5,6.675,3.5z"/>
</g>
</svg>
