<?xml version="1.0" encoding="utf-8"?>
<!-- Generator: Adobe Illustrator 22.1.0, SVG Export Plug-In . SVG Version: 6.00 Build 0)  -->
<svg version="1.1" id="Light" xmlns="http://www.w3.org/2000/svg" xmlns:xlink="http://www.w3.org/1999/xlink" x="0px" y="0px"
	 viewBox="0 0 24 24" style="enable-background:new 0 0 24 24;" xml:space="preserve">
<g>
	<title>single-man-statics-3</title>
	<path d="M13,15c-0.276,0-0.5-0.224-0.5-0.5S12.724,14,13,14h9.5c0.276,0,0.5-0.224,0.5-0.5v-12C23,1.224,22.776,1,22.5,1h-12
		C10.224,1,10,0.776,10,0.5S10.224,0,10.5,0h12C23.327,0,24,0.673,24,1.5v12c0,0.827-0.673,1.5-1.5,1.5H13z"/>
	<path d="M14.564,11.015c-0.06,0-0.119-0.011-0.176-0.032c-0.257-0.096-0.389-0.385-0.292-0.643l0.71-1.898
		c0.009-0.074,0.036-0.146,0.079-0.212l1.337-3.572c0.146-0.388,0.522-0.649,0.937-0.649c0.12,0,0.239,0.021,0.352,0.064
		c0.27,0.101,0.482,0.314,0.584,0.584l2.127,5.682c0.097,0.258-0.035,0.547-0.293,0.644c-0.056,0.021-0.115,0.032-0.175,0.032
		c-0.207,0-0.396-0.13-0.468-0.325L18.653,9h-2.988l-0.633,1.69C14.959,10.885,14.771,11.015,14.564,11.015L14.564,11.015z
		 M18.278,8l-1.119-2.99c0,0-1.119,2.99-1.119,2.99H18.278z"/>
	<path d="M5.5,14.5C5.224,14.5,5,14.276,5,14v-3c0-0.276,0.224-0.5,0.5-0.5S6,10.724,6,11v3C6,14.276,5.776,14.5,5.5,14.5z"/>
	<path d="M3.5,24c-0.258,0-0.477-0.201-0.498-0.458L2.54,18H0.5C0.224,18,0,17.776,0,17.5V14c0-3.033,2.467-5.5,5.5-5.5
		S11,10.967,11,14v3.5c0,0.276-0.224,0.5-0.5,0.5H8.46l-0.462,5.542C7.977,23.799,7.758,24,7.5,24H3.5z M7.04,23l0.462-5.542
		C7.523,17.201,7.742,17,8,17h2v-3c0-2.481-2.019-4.5-4.5-4.5S1,11.519,1,14v3h2c0.258,0,0.477,0.201,0.498,0.458L3.96,23H7.04z"/>
	<path d="M5.5,8c-2.206,0-4-1.794-4-4c0-0.691,0.183-1.375,0.529-1.979c0.015-0.032,0.033-0.057,0.044-0.073
		C2.79,0.749,4.104,0,5.5,0c2.001,0,3.705,1.498,3.963,3.484c0,0.003,0.002,0.012,0.002,0.012C9.489,3.685,9.5,3.846,9.5,4
		C9.5,6.206,7.706,8,5.5,8z M2.654,3.058C2.552,3.363,2.5,3.678,2.5,4c0,1.654,1.346,3,3,3c1.576,0,2.873-1.222,2.991-2.769
		C7.9,4.41,7.289,4.5,6.668,4.5c-0.002,0-0.004,0-0.005,0C5.215,4.499,3.775,3.977,2.654,3.058z M6.675,3.5
		c0.587-0.001,1.164-0.098,1.719-0.289C8.042,1.918,6.857,1,5.5,1C4.573,1,3.704,1.428,3.136,2.155
		C4.101,3.01,5.372,3.498,6.659,3.5c0.003,0,0.005,0,0.008,0S6.672,3.5,6.675,3.5z"/>
</g>
</svg>
