<?xml version="1.0" encoding="utf-8"?>
<!-- Generator: Adobe Illustrator 22.1.0, SVG Export Plug-In . SVG Version: 6.00 Build 0)  -->
<svg version="1.1" id="Layer_1" xmlns="http://www.w3.org/2000/svg" xmlns:xlink="http://www.w3.org/1999/xlink" x="0px" y="0px"
	 viewBox="0 0 24 24" style="enable-background:new 0 0 24 24;" xml:space="preserve">
<title>charging-battery-eco</title>
<g>
	<path d="M13.5,18.75c-0.414,0-0.75-0.336-0.75-0.75s0.336-0.75,0.75-0.75H18c0.414,0,0.75-0.336,0.75-0.75V15
		c0-0.414,0.336-0.75,0.75-0.75H21c0.414,0,0.75-0.336,0.75-0.75V12c0-0.414-0.336-0.75-0.75-0.75h-1.5
		c-0.414,0-0.75-0.336-0.75-0.75V9c0-0.414-0.336-0.75-0.75-0.75h-1.5c-0.414,0-0.75-0.336-0.75-0.75s0.336-0.75,0.75-0.75H18
		c1.241,0,2.25,1.009,2.25,2.25v0.75H21c1.241,0,2.25,1.009,2.25,2.25v1.5c0,1.241-1.009,2.25-2.25,2.25h-0.75v0.75
		c0,1.241-1.009,2.25-2.25,2.25H13.5z"/>
	<path d="M3,18.75c-1.241,0-2.25-1.009-2.25-2.25V9c0-1.241,1.009-2.25,2.25-2.25h2.25C5.664,6.75,6,7.086,6,7.5
		S5.664,8.25,5.25,8.25H3C2.586,8.25,2.25,8.586,2.25,9v7.5c0,0.414,0.336,0.75,0.75,0.75h2.25C5.664,17.25,6,17.586,6,18
		s-0.336,0.75-0.75,0.75H3z"/>
	<path d="M8.25,18.75c-0.332,0-0.628-0.222-0.72-0.541c-0.324-1.115-0.399-2.301-0.22-3.446c-0.489-0.341-0.869-0.755-1.133-1.235
		c-0.523-0.952-0.588-2.146-0.182-3.364C7.01,7.132,10.174,5.25,14.25,5.25c0.304,0,0.576,0.182,0.693,0.463
		c0.117,0.281,0.053,0.602-0.163,0.818c-0.554,0.555-0.523,1.993-0.496,3.262c0.033,1.508,0.067,3.066-0.667,4.167
		c-0.934,1.401-2.375,1.695-3.419,1.695c-0.637,0-1.108-0.113-1.159-0.126c-0.101-0.025-0.203-0.054-0.305-0.086
		c-0.068,0.788,0.011,1.576,0.236,2.349c0.115,0.397-0.114,0.814-0.511,0.929C8.392,18.74,8.322,18.75,8.25,18.75z M9.039,13.967
		c0.117,0.039,0.238,0.074,0.363,0.106c0.012,0.003,0.346,0.083,0.796,0.083c0.677,0,1.603-0.178,2.17-1.028
		c0.472-0.708,0.444-2.027,0.416-3.302c-0.022-1.038-0.045-2.104,0.198-3.003c-2.805,0.324-4.864,1.726-5.565,3.817
		c-0.275,0.827-0.25,1.577,0.074,2.167c0.068,0.123,0.149,0.24,0.245,0.349c0.336-0.879,0.822-1.683,1.449-2.399
		C9.329,10.593,9.534,10.5,9.75,10.5c0.182,0,0.357,0.066,0.494,0.186c0.311,0.273,0.342,0.748,0.07,1.059
		C9.738,12.401,9.31,13.147,9.039,13.967z"/>
</g>
</svg>
