<?xml version="1.0" encoding="utf-8"?>
<!-- Generator: Adobe Illustrator 22.1.0, SVG Export Plug-In . SVG Version: 6.00 Build 0)  -->
<svg version="1.1" id="Layer_1" xmlns="http://www.w3.org/2000/svg" xmlns:xlink="http://www.w3.org/1999/xlink" x="0px" y="0px"
	 viewBox="0 0 24 24" style="enable-background:new 0 0 24 24;" xml:space="preserve">
<title>charging-battery-almost-full</title>
<g>
	<path d="M3.75,18c-1.654,0-3-1.346-3-3V9c0-1.654,1.346-3,3-3h13.5c1.654,0,3,1.346,3,3H21c1.241,0,2.25,1.009,2.25,2.25v1.5
		c0,1.241-1.009,2.25-2.25,2.25h-0.75c0,1.654-1.346,3-3,3H3.75z M3.75,7.5c-0.827,0-1.5,0.673-1.5,1.5v6c0,0.827,0.673,1.5,1.5,1.5
		h13.5c0.827,0,1.5-0.673,1.5-1.5v-0.75c0-0.414,0.336-0.75,0.75-0.75H21c0.414,0,0.75-0.336,0.75-0.75v-1.5
		c0-0.414-0.336-0.75-0.75-0.75h-1.5c-0.414,0-0.75-0.336-0.75-0.75V9c0-0.827-0.673-1.5-1.5-1.5H3.75z"/>
	<path d="M6,15c-0.414,0-0.75-0.336-0.75-0.75v-4.5C5.25,9.336,5.586,9,6,9s0.75,0.336,0.75,0.75v4.5C6.75,14.664,6.414,15,6,15z"/>
	<path d="M10.5,15c-0.414,0-0.75-0.336-0.75-0.75v-4.5C9.75,9.336,10.086,9,10.5,9s0.75,0.336,0.75,0.75v4.5
		C11.25,14.664,10.914,15,10.5,15z"/>
	<path d="M15,15c-0.414,0-0.75-0.336-0.75-0.75v-4.5C14.25,9.336,14.586,9,15,9s0.75,0.336,0.75,0.75v4.5
		C15.75,14.664,15.414,15,15,15z"/>
</g>
</svg>
