<?xml version="1.0" encoding="utf-8"?>
<!-- Generator: Adobe Illustrator 22.1.0, SVG Export Plug-In . SVG Version: 6.00 Build 0)  -->
<svg version="1.1" id="Layer_1" xmlns="http://www.w3.org/2000/svg" xmlns:xlink="http://www.w3.org/1999/xlink" x="0px" y="0px"
	 viewBox="0 0 24 24" style="enable-background:new 0 0 24 24;" xml:space="preserve">
<title>charging-flash-sync</title>
<g>
	<path d="M11.25,18.743c-0.083,0-0.165-0.014-0.243-0.041c-0.303-0.104-0.507-0.389-0.507-0.709v-4.5h-3
		c-0.284,0-0.549-0.165-0.674-0.42c-0.125-0.256-0.093-0.566,0.082-0.79l5.25-6.75c0.14-0.181,0.362-0.29,0.592-0.29
		c0.083,0,0.165,0.014,0.243,0.041C13.296,5.388,13.5,5.673,13.5,5.993v4.5h3c0.284,0,0.549,0.165,0.674,0.42
		c0.125,0.256,0.093,0.566-0.082,0.791l-5.25,6.75C11.701,18.635,11.48,18.743,11.25,18.743z M11.25,11.993
		c0.414,0,0.75,0.336,0.75,0.75v3.064l2.966-3.814H12.75c-0.414,0-0.75-0.336-0.75-0.75V8.179l-2.967,3.814H11.25z"/>
	<path d="M3,13.493c-0.088,0-0.175-0.016-0.26-0.047c-0.008-0.003-0.015-0.005-0.022-0.008c-0.096-0.039-0.179-0.094-0.249-0.165
		L0.22,11.023C0.078,10.882,0,10.693,0,10.493s0.078-0.389,0.22-0.53c0.141-0.142,0.33-0.22,0.53-0.22l0,0
		c0.2,0,0.389,0.078,0.53,0.22l1.025,1.025c0.25-2.398,1.387-4.643,3.193-6.259c1.79-1.602,4.095-2.484,6.49-2.484
		c0.183,0,0.368,0.005,0.552,0.015c2.6,0.144,4.989,1.293,6.726,3.234c0.276,0.308,0.249,0.783-0.059,1.059
		c-0.138,0.123-0.315,0.191-0.5,0.191c-0.213,0-0.417-0.091-0.559-0.25c-1.561-1.744-3.803-2.745-6.152-2.745
		c-2.033,0-3.985,0.745-5.497,2.098c-1.453,1.301-2.395,3.085-2.666,5.003L4.72,9.963c0.142-0.142,0.33-0.22,0.53-0.22l0,0
		c0.2,0,0.389,0.078,0.53,0.22C5.922,10.104,6,10.293,6,10.493s-0.078,0.389-0.22,0.53l-2.25,2.25
		c-0.07,0.07-0.153,0.125-0.246,0.164c-0.008,0.003-0.017,0.007-0.027,0.01C3.173,13.478,3.087,13.493,3,13.493z"/>
	<path d="M12.005,21.737c-2.776,0-5.426-1.183-7.271-3.244c-0.134-0.149-0.201-0.342-0.19-0.542c0.011-0.2,0.099-0.384,0.249-0.518
		c0.138-0.123,0.315-0.191,0.5-0.191c0.213,0,0.417,0.091,0.559,0.25c1.561,1.744,3.803,2.745,6.153,2.745
		c2.033,0,3.985-0.745,5.497-2.098c1.453-1.3,2.395-3.084,2.665-5.003l-0.886,0.886c-0.142,0.142-0.33,0.22-0.53,0.22
		s-0.389-0.078-0.53-0.22c-0.292-0.292-0.292-0.768,0-1.061l2.25-2.25c0.07-0.07,0.153-0.125,0.245-0.163
		c0.007-0.003,0.016-0.006,0.024-0.009c0.081-0.031,0.171-0.048,0.262-0.048c0.089,0,0.176,0.016,0.261,0.048
		c0.011,0.004,0.022,0.008,0.032,0.012c0.085,0.035,0.168,0.09,0.238,0.16l2.25,2.25c0.142,0.142,0.22,0.33,0.22,0.53
		s-0.078,0.389-0.22,0.53s-0.33,0.22-0.53,0.22s-0.389-0.078-0.53-0.22l-1.025-1.025c-0.25,2.398-1.387,4.643-3.193,6.259
		C16.714,20.857,14.407,21.737,12.005,21.737z"/>
</g>
</svg>
