<svg xmlns="http://www.w3.org/2000/svg" viewBox="0 0 24 24"><defs><style>.a{fill:none;stroke:currentColor;stroke-linecap:round;stroke-linejoin:round;stroke-width:1.5px;}</style></defs><title>wifi-heart_1</title><path class="a" d="M5.96,11.284a5.253,5.253,0,0,1,5.877-1.066"/><path class="a" d="M3.07,7.822a9.75,9.75,0,0,1,13.165-.029"/><path class="a" d="M.75,3.885A14.252,14.252,0,0,1,18.6,3.892"/><path class="a" d="M17.25,23.25l-5.114-5.334a3.027,3.027,0,0,1-.567-3.493h0a3.026,3.026,0,0,1,4.846-.786l.835.835.835-.835a3.026,3.026,0,0,1,4.846.786h0a3.027,3.027,0,0,1-.567,3.493Z"/></svg>