<?xml version="1.0" encoding="utf-8"?>
<!-- Generator: Adobe Illustrator 22.1.0, SVG Export Plug-In . SVG Version: 6.00 Build 0)  -->
<svg version="1.1" id="Layer_1" xmlns="http://www.w3.org/2000/svg" xmlns:xlink="http://www.w3.org/1999/xlink" x="0px" y="0px"
	 viewBox="0 0 24 24" style="enable-background:new 0 0 24 24;" xml:space="preserve">
<g>
	<title>touch-finger-1</title>
	<path d="M8.004,12.976c-0.095,0-0.188-0.027-0.269-0.079c-0.85-0.543-1.586-1.28-2.13-2.129C3.527,7.515,4.482,3.178,7.735,1.1
		C8.86,0.38,10.16,0,11.493,0c2.408,0,4.617,1.207,5.91,3.229c1.007,1.576,1.34,3.449,0.938,5.275
		c-0.402,1.826-1.491,3.386-3.067,4.393c-0.08,0.051-0.173,0.079-0.269,0.079c-0.172,0-0.329-0.086-0.422-0.231
		c-0.148-0.232-0.08-0.542,0.152-0.691c1.351-0.863,2.284-2.2,2.629-3.766c0.345-1.565,0.059-3.171-0.804-4.521
		C15.452,2.035,13.559,1,11.494,1c-1.142,0-2.256,0.326-3.221,0.943c-2.788,1.781-3.607,5.499-1.825,8.287
		c0.465,0.729,1.097,1.36,1.825,1.825c0.232,0.149,0.3,0.458,0.152,0.691C8.333,12.889,8.175,12.976,8.004,12.976z"/>
	<path d="M20.004,24.003c-0.276,0-0.5-0.224-0.5-0.5v-3c0-1.93-1.57-3.5-3.5-3.5h-3c-0.276,0-0.5-0.224-0.5-0.5v-6.5
		c0-0.551-0.449-1-1-1s-1,0.449-1,1v9.826c0,0.21-0.133,0.399-0.331,0.47c-0.054,0.02-0.112,0.03-0.17,0.03
		c-0.149,0-0.29-0.066-0.385-0.181l-2.344-2.826c-0.171-0.205-0.411-0.331-0.678-0.355c-0.033-0.003-0.065-0.005-0.096-0.005
		c-0.233,0-0.453,0.08-0.635,0.232c-0.424,0.353-0.482,0.986-0.129,1.41l3.807,4.579c0.085,0.103,0.126,0.233,0.113,0.366
		c-0.012,0.133-0.076,0.253-0.178,0.339c-0.089,0.074-0.203,0.115-0.319,0.115c-0.149,0-0.289-0.066-0.384-0.18l-3.807-4.579
		c-0.706-0.848-0.59-2.112,0.258-2.818c0.364-0.303,0.805-0.464,1.276-0.464c0.062,0,0.124,0.003,0.186,0.009
		c0.532,0.049,1.014,0.302,1.356,0.712l1.46,1.76v-8.44c0-1.103,0.897-2,2-2s2,0.897,2,2v6h2.5c2.481,0,4.5,2.019,4.5,4.5v3
		C20.504,23.779,20.28,24.003,20.004,24.003z"/>
</g>
</svg>
