<?xml version="1.0" encoding="utf-8"?>
<!-- Generator: Adobe Illustrator 22.1.0, SVG Export Plug-In . SVG Version: 6.00 Build 0)  -->
<svg version="1.1" id="Layer_1" xmlns="http://www.w3.org/2000/svg" xmlns:xlink="http://www.w3.org/1999/xlink" x="0px" y="0px"
	 viewBox="0 0 24 24" style="enable-background:new 0 0 24 24;" xml:space="preserve">
<g>
	<title>touch-id-search</title>
	<path d="M18.5,10.005c-0.134,0-0.259-0.052-0.354-0.147C18.052,9.764,18,9.638,18,9.505c0.003-2.094-0.766-4.106-2.165-5.665
		C15.746,3.74,15.7,3.612,15.708,3.478c0.007-0.133,0.066-0.256,0.165-0.345c0.092-0.082,0.211-0.128,0.334-0.128
		c0.142,0,0.278,0.061,0.372,0.166C18.143,4.914,19.003,7.164,19,9.506C19,9.781,18.775,10.005,18.5,10.005L18.5,10.005z"/>
	<path d="M6,23.299c-0.067,0-0.132-0.013-0.194-0.04C2.278,21.771-0.001,18.334,0,14.505v-3c0-0.276,0.224-0.5,0.5-0.5
		s0.5,0.224,0.5,0.5v3c-0.001,3.426,2.038,6.501,5.194,7.833c0.123,0.052,0.219,0.148,0.269,0.272s0.049,0.26-0.003,0.383
		C6.382,23.179,6.201,23.299,6,23.299z"/>
	<path d="M0.487,9.505C0.211,9.489-0.001,9.253,0.015,8.977c0.082-1.479,0.517-2.939,1.258-4.222
		c1.691-2.929,4.849-4.748,8.243-4.748c1.657,0,3.294,0.439,4.734,1.271c0.116,0.067,0.198,0.175,0.233,0.304
		c0.035,0.129,0.017,0.264-0.05,0.38c-0.089,0.154-0.255,0.25-0.434,0.25c-0.087,0-0.174-0.023-0.25-0.067
		C12.462,1.4,10.997,1.007,9.515,1.007c-3.037,0-5.863,1.628-7.376,4.248C1.476,6.403,1.087,7.71,1.013,9.033
		C0.998,9.298,0.779,9.505,0.514,9.505C0.51,9.505,0.492,9.505,0.487,9.505z"/>
	<path d="M15.5,9.969c-0.274,0-0.499-0.223-0.5-0.497c-0.004-0.785-0.173-1.546-0.5-2.26c-0.612-1.335-1.708-2.353-3.085-2.864
		C10.795,4.117,10.149,4,9.497,4c-0.79,0-1.56,0.169-2.289,0.503C7.142,4.534,7.073,4.549,7,4.549c-0.195,0-0.374-0.115-0.455-0.292
		C6.431,4.007,6.541,3.71,6.792,3.595C7.652,3.2,8.562,3,9.497,3c0.771,0,1.534,0.138,2.266,0.41
		c1.628,0.604,2.922,1.807,3.646,3.385C15.796,7.639,15.995,8.538,16,9.466c0.001,0.276-0.221,0.501-0.497,0.503
		c0,0-0.001,0-0.001,0H15.5z"/>
	<path d="M9.508,21.006c-2.988,0-5.583-2.024-6.312-4.922C3.067,15.569,3.001,15.038,3,14.506v-5
		C2.998,7.903,3.586,6.364,4.656,5.171c0.094-0.105,0.23-0.166,0.372-0.166c0.124,0,0.242,0.045,0.334,0.128
		C5.461,5.222,5.52,5.345,5.527,5.478S5.489,5.74,5.4,5.839C4.495,6.848,3.998,8.149,4,9.505v5.001
		c0.001,0.45,0.056,0.899,0.166,1.335c0.616,2.453,2.813,4.166,5.341,4.166c0.45,0,0.902-0.056,1.342-0.167
		c0.04-0.01,0.081-0.015,0.122-0.015c0.23,0,0.429,0.156,0.485,0.378c0.067,0.267-0.096,0.54-0.363,0.607
		C10.572,20.94,10.039,21.006,9.508,21.006z"/>
	<path d="M6.5,13.005c-0.276,0-0.5-0.224-0.5-0.5v-3c0-1.93,1.57-3.5,3.5-3.5s3.5,1.57,3.5,3.5v2.526c0,0.276-0.224,0.5-0.5,0.5
		c-0.276,0-0.5-0.224-0.5-0.5V9.505c0-1.379-1.121-2.5-2.5-2.5S7,8.127,7,9.505v3C7,12.781,6.776,13.005,6.5,13.005z"/>
	<path d="M9.5,18.005c-1.93,0-3.5-1.57-3.5-3.5c0-0.276,0.224-0.5,0.5-0.5S7,14.23,7,14.505c0,1.378,1.121,2.5,2.5,2.5
		c0.276,0,0.5,0.224,0.5,0.5S9.776,18.005,9.5,18.005z"/>
	<path d="M9.5,13.005c-0.276,0-0.5-0.224-0.5-0.5v-3c0-0.276,0.224-0.5,0.5-0.5s0.5,0.224,0.5,0.5v3
		C10,12.781,9.776,13.005,9.5,13.005z"/>
	<path d="M9.5,16.005c-0.276,0-0.5-0.224-0.5-0.5v-1c0-0.276,0.224-0.5,0.5-0.5s0.5,0.224,0.5,0.5v1
		C10,15.781,9.776,16.005,9.5,16.005z"/>
	<path d="M9.507,24.005c-0.136,0-0.263-0.051-0.357-0.143C9.053,23.768,9,23.641,9,23.505c0-0.271,0.217-0.492,0.487-0.499
		c0.005,0,0.018,0,0.019,0c0.808,0,1.607-0.114,2.378-0.338c0.045-0.013,0.092-0.02,0.14-0.02c0.221,0,0.418,0.148,0.48,0.361
		c0.037,0.128,0.022,0.263-0.042,0.38s-0.171,0.202-0.299,0.239C11.299,23.878,10.406,24.005,9.507,24.005L9.507,24.005z"/>
	<path d="M23.5,24.005c-0.134,0-0.259-0.052-0.354-0.146l-2.937-2.937c-0.9,0.739-2.02,1.143-3.18,1.143
		c-2.773,0-5.029-2.256-5.029-5.029s2.256-5.029,5.029-5.029s5.029,2.256,5.029,5.029c0,1.159-0.404,2.279-1.142,3.179l2.937,2.937
		C23.948,23.246,24,23.372,24,23.505s-0.052,0.259-0.146,0.354S23.634,24.005,23.5,24.005z M17.029,13.006
		c-2.222,0-4.029,1.807-4.029,4.029s1.807,4.029,4.029,4.029s4.029-1.807,4.029-4.029S19.251,13.006,17.029,13.006z"/>
</g>
</svg>
