<svg xmlns="http://www.w3.org/2000/svg" viewBox="0 0 24 24"><defs><style>.a{fill:none;stroke:currentColor;stroke-linecap:round;stroke-linejoin:round;}</style></defs><title>satellite-1</title><path class="a" d="M17.935,10.307a3,3,0,0,0-4.243-4.243l-4.6,4.6a1,1,0,0,0,0,1.415L11.925,14.9a1,1,0,0,0,1.414,0Z"/><path class="a" d="M10.51,19.146a4,4,0,0,0-5.656-5.657.5.5,0,0,0,0,.707L9.8,19.146A.5.5,0,0,0,10.51,19.146Z"/><circle class="a" cx="20.41" cy="3.589" r="1"/><line class="a" x1="19.703" y1="4.296" x2="17.935" y2="6.064"/><path class="a" d="M5.561,20.56a1.5,1.5,0,0,1-2.122-2.121"/><path class="a" d="M7.328,22.328a4,4,0,0,1-5.656-5.657"/><rect class="a" x="2.621" y="2.328" width="8" height="4" rx="1" ry="1" transform="translate(4.999 -3.414) rotate(45)"/><line class="a" x1="9.45" y1="7.156" x2="11.025" y2="8.731"/><rect class="a" x="15.672" y="15.378" width="8" height="4" rx="1" ry="1" transform="translate(21.293 43.576) rotate(-135)"/><line class="a" x1="16.843" y1="14.55" x2="15.268" y2="12.974"/></svg>