<svg xmlns="http://www.w3.org/2000/svg" viewBox="0 0 24 24"><defs><style>.a{fill:none;stroke:currentColor;stroke-linecap:round;stroke-linejoin:round;}</style></defs><title>phone-broken-1</title><line class="a" x1="3" y1="10.5" x2="0.5" y2="10.5"/><line class="a" x1="2.5" y1="7.5" x2="0.5" y2="5.5"/><line class="a" x1="2.5" y1="13.5" x2="0.5" y2="15.5"/><line class="a" x1="21" y1="10.5" x2="23.5" y2="10.5"/><line class="a" x1="21.5" y1="7.5" x2="23.5" y2="5.5"/><line class="a" x1="21.5" y1="13.5" x2="23.5" y2="15.5"/><line class="a" x1="18.496" y1="19.5" x2="5.496" y2="19.5"/><path class="a" d="M12,21.25a.249.249,0,0,1,.25.25h0a.249.249,0,0,1-.25.25h0a.25.25,0,0,1-.25-.25h0a.25.25,0,0,1,.25-.25"/><line class="a" x1="11.996" y1="21.25" x2="11.996" y2="21.25"/><path class="a" d="M18.5,9V2.5a2,2,0,0,0-2-2h-9a2,2,0,0,0-2,2v7h4l4-3Z"/><path class="a" d="M5.5,12.5v9a2,2,0,0,0,2,2h9a2,2,0,0,0,2-2V12l-5-2.5-4,3Z"/></svg>