<?xml version="1.0" encoding="utf-8"?>
<!-- Generator: Adobe Illustrator 22.1.0, SVG Export Plug-In . SVG Version: 6.00 Build 0)  -->
<svg version="1.1" id="Layer_1" xmlns="http://www.w3.org/2000/svg" xmlns:xlink="http://www.w3.org/1999/xlink" x="0px" y="0px"
	 viewBox="0 0 24 24" style="enable-background:new 0 0 24 24;" xml:space="preserve">
<title>task-checklist-add</title>
<g>
	<path d="M2.252,23.999c-1.241,0-2.25-1.009-2.25-2.25v-16.5c0-1.241,1.009-2.25,2.25-2.25h2.959L4.87,1.973
		C4.607,1.19,5.031,0.339,5.815,0.077C5.966,0.026,6.131,0,6.293-0.001h8.419c0.827,0,1.499,0.672,1.5,1.497
		c0,0.163-0.026,0.323-0.077,0.477l-0.342,1.026h2.959c1.241,0,2.25,1.009,2.25,2.25V9c0,0.414-0.336,0.75-0.75,0.75
		s-0.75-0.336-0.75-0.75V5.249c0-0.414-0.336-0.75-0.75-0.75h-3.459l-0.158,0.474c-0.205,0.613-0.776,1.025-1.421,1.026h-6.42
		c-0.646,0-1.218-0.412-1.423-1.025L5.711,4.499H2.252c-0.414,0-0.75,0.336-0.75,0.75v16.5c0,0.414,0.336,0.75,0.75,0.75H10.5
		c0.414,0,0.75,0.336,0.75,0.75s-0.336,0.75-0.75,0.75H2.252z M6.29,1.499l1.002,3l6.42,0l1-3l-8.42,0
		C6.291,1.499,6.291,1.499,6.29,1.499z"/>
	<path d="M4.5,20.999c-0.827,0-1.5-0.673-1.5-1.5V6.749c0-0.414,0.336-0.75,0.75-0.75S4.5,6.335,4.5,6.749v12.75h3.752
		c0.414,0,0.75,0.336,0.75,0.75s-0.336,0.75-0.75,0.75H4.5z"/>
	<path d="M17.252,8.999c-0.414,0-0.75-0.336-0.75-0.75v-1.5c0-0.414,0.336-0.75,0.75-0.75s0.75,0.336,0.75,0.75v1.5
		C18.002,8.663,17.666,8.999,17.252,8.999z"/>
	<path d="M17.25,23.999c-3.722,0-6.75-3.028-6.75-6.75s3.028-6.75,6.75-6.75S24,13.527,24,17.249S20.972,23.999,17.25,23.999z
		 M17.25,11.999c-2.895,0-5.25,2.355-5.25,5.25s2.355,5.25,5.25,5.25s5.25-2.355,5.25-5.25S20.145,11.999,17.25,11.999z"/>
	<path d="M17.25,20.999c-0.414,0-0.75-0.336-0.75-0.75v-2.25h-2.25c-0.414,0-0.75-0.336-0.75-0.75s0.336-0.75,0.75-0.75h2.25v-2.25
		c0-0.414,0.336-0.75,0.75-0.75S18,13.835,18,14.249v2.25h2.25c0.414,0,0.75,0.336,0.75,0.75s-0.336,0.75-0.75,0.75H18v2.25
		C18,20.663,17.664,20.999,17.25,20.999z"/>
	<path d="M6.752,10.499c-0.414,0-0.75-0.336-0.75-0.75s0.336-0.75,0.75-0.75h4.5c0.414,0,0.75,0.336,0.75,0.75
		s-0.336,0.75-0.75,0.75H6.752z"/>
	<path d="M6.752,14.999c-0.414,0-0.75-0.336-0.75-0.75s0.336-0.75,0.75-0.75h1.5c0.414,0,0.75,0.336,0.75,0.75
		S6.752,14.999,6.752,14.999z"/>
</g>
</svg>
