<svg xmlns="http://www.w3.org/2000/svg" viewBox="0 0 24 24"><defs><style>.a{fill:none;stroke:currentColor;stroke-linecap:round;stroke-linejoin:round;stroke-width:1.5px;}</style></defs><title>email-action-warning</title><line class="a" x1="17.25" y1="20.25" x2="17.25" y2="20.25"/><path class="a" d="M17.25,20.25a.375.375,0,1,0,.375.375.375.375,0,0,0-.375-.375"/><line class="a" x1="17.25" y1="18" x2="17.25" y2="15"/><path class="a" d="M23.063,20.682a1.774,1.774,0,0,1-1.587,2.568H13.024a1.774,1.774,0,0,1-1.587-2.568l4.226-8.451a1.774,1.774,0,0,1,3.174,0Z"/><path class="a" d="M9.75,15.75H2.25a1.5,1.5,0,0,1-1.5-1.5v-12A1.5,1.5,0,0,1,2.25.75h18a1.5,1.5,0,0,1,1.5,1.5V10.5"/><path class="a" d="M21.411,1.3,13.267,7.564a3.308,3.308,0,0,1-4.034,0L1.089,1.3"/></svg>