<svg xmlns="http://www.w3.org/2000/svg" viewBox="0 0 24 24"><defs><style>.a{fill:none;stroke:currentColor;stroke-linecap:round;stroke-linejoin:round;stroke-width:1.5px;}</style></defs><title>email-action-lock</title><rect class="a" x="14.25" y="15.75" width="9" height="7.5" rx="1.5" ry="1.5"/><path class="a" d="M18.75,11.25h0a3,3,0,0,0-3,3v1.5h6v-1.5A3,3,0,0,0,18.75,11.25Z"/><path class="a" d="M18.75,19.154a.375.375,0,1,0,.375.375.375.375,0,0,0-.375-.375h0"/><path class="a" d="M11.25,15.75h-9a1.5,1.5,0,0,1-1.5-1.5v-12A1.5,1.5,0,0,1,2.25.75h18a1.5,1.5,0,0,1,1.5,1.5v6"/><path class="a" d="M21.411,1.3,13.267,7.564a3.308,3.308,0,0,1-4.034,0L1.089,1.3"/></svg>