<svg xmlns="http://www.w3.org/2000/svg" viewBox="0 0 24 24"><defs><style>.a{fill:none;stroke:currentColor;stroke-linecap:round;stroke-linejoin:round;stroke-width:1.5px;}</style></defs><title>email-action-heart_1</title><path class="a" d="M17.25,23.25l-5.114-5.335a3.023,3.023,0,0,1-.566-3.492h0a3.025,3.025,0,0,1,4.845-.786l.835.835.835-.835a3.026,3.026,0,0,1,4.846.786h0a3.025,3.025,0,0,1-.567,3.492Z"/><path class="a" d="M8.25,15.75h-6a1.5,1.5,0,0,1-1.5-1.5v-12A1.5,1.5,0,0,1,2.25.75h18a1.5,1.5,0,0,1,1.5,1.5v7.5"/><path class="a" d="M21.411,1.3,13.267,7.564a3.308,3.308,0,0,1-4.034,0L1.089,1.3"/></svg>