<svg xmlns="http://www.w3.org/2000/svg" viewBox="0 0 24 24"><defs><style>.a{fill:none;stroke:currentColor;stroke-linecap:round;stroke-linejoin:round;stroke-width:1.5px;}</style></defs><title>email-action-edit</title><path class="a" d="M22.63,14.87,15,22.5l-3.75.75L12,19.5l7.63-7.63a2.114,2.114,0,0,1,2.992,0l.008.008A2.114,2.114,0,0,1,22.63,14.87Z"/><path class="a" d="M11.25,15.75h-9a1.5,1.5,0,0,1-1.5-1.5v-12A1.5,1.5,0,0,1,2.25.75h18a1.5,1.5,0,0,1,1.5,1.5v6"/><path class="a" d="M21.411,1.3,13.267,7.564a3.308,3.308,0,0,1-4.034,0L1.089,1.3"/></svg>