<svg xmlns="http://www.w3.org/2000/svg" viewBox="0 0 24 24"><defs><style>.a{fill:none;stroke:currentColor;stroke-linecap:round;stroke-linejoin:round;stroke-width:1.5px;}</style></defs><title>email-action-play</title><path class="a" d="M19.5,12.88V2.25A1.5,1.5,0,0,0,18,.75H6a1.5,1.5,0,0,0-1.5,1.5V12.88"/><path class="a" d="M21.284,11.465a.75.75,0,0,1,1.216.587v9.7a1.5,1.5,0,0,1-1.5,1.5H3a1.5,1.5,0,0,1-1.5-1.5v-9.7a.75.75,0,0,1,1.216-.587l7.431,5.894a3,3,0,0,0,3.706,0Z"/><path class="a" d="M10.239,12.66A.857.857,0,0,1,9,11.894V6.106a.857.857,0,0,1,1.239-.766l5.788,2.895a.855.855,0,0,1,0,1.53Z"/></svg>