<?xml version="1.0" encoding="utf-8"?>
<!-- Generator: Adobe Illustrator 22.1.0, SVG Export Plug-In . SVG Version: 6.00 Build 0)  -->
<svg version="1.1" id="Layer_1" xmlns="http://www.w3.org/2000/svg" xmlns:xlink="http://www.w3.org/1999/xlink" x="0px" y="0px"
	 viewBox="0 0 24 24" style="enable-background:new 0 0 24 24;" xml:space="preserve">
<title>programming-user-head</title>
<g>
	<path d="M12,17.25c-2.275,0-4.125-1.851-4.125-4.125C7.875,10.85,9.725,9,12,9c2.274,0,4.125,1.85,4.125,4.125
		C16.125,15.399,14.274,17.25,12,17.25z M12,10.5c-1.447,0-2.625,1.178-2.625,2.625c0,1.448,1.178,2.625,2.625,2.625
		c1.448,0,2.625-1.177,2.625-2.625C14.625,11.678,13.448,10.5,12,10.5z"/>
	<path d="M6,24c-0.217,0-0.422-0.094-0.565-0.257c-0.142-0.162-0.208-0.379-0.179-0.594c0.407-3.029,2.807-5.429,5.837-5.836
		c0.305-0.041,0.614-0.062,0.919-0.062c1.495,0,2.917,0.482,4.114,1.396c1.445,1.102,2.374,2.701,2.616,4.502
		c0.029,0.215-0.036,0.431-0.179,0.594C18.423,23.906,18.217,24,18,24H6z M17.072,22.5c-0.323-1.053-0.969-1.985-1.854-2.66
		c-0.933-0.712-2.042-1.088-3.206-1.088c-0.238,0-0.479,0.016-0.718,0.048c-2.059,0.277-3.76,1.739-4.363,3.7H17.072z"/>
	<path d="M1.5,7.5c-0.414,0-0.75-0.336-0.75-0.75S1.086,6,1.5,6h0.75V1.5H1.5c-0.414,0-0.75-0.336-0.75-0.75S1.086,0,1.5,0h0.75
		c0.827,0,1.5,0.673,1.5,1.5V6H4.5c0.414,0,0.75,0.336,0.75,0.75S4.914,7.5,4.5,7.5H1.5z"/>
	<path d="M3,24c-0.414,0-0.75-0.336-0.75-0.75V19.5H1.5c-0.414,0-0.75-0.336-0.75-0.75S1.086,18,1.5,18h0.75
		c0.827,0,1.5,0.673,1.5,1.5v3.75C3.75,23.664,3.414,24,3,24z"/>
	<path d="M21,24c-0.414,0-0.75-0.336-0.75-0.75V19.5H19.5c-0.414,0-0.75-0.336-0.75-0.75S19.086,18,19.5,18h0.75
		c0.827,0,1.5,0.673,1.5,1.5v3.75C21.75,23.664,21.414,24,21,24z"/>
	<path d="M9,7.5c-1.241,0-2.25-1.009-2.25-2.25v-3C6.75,1.009,7.759,0,9,0s2.25,1.009,2.25,2.25v3C11.25,6.491,10.241,7.5,9,7.5z
		 M9,1.5c-0.414,0-0.75,0.336-0.75,0.75v3C8.25,5.664,8.586,6,9,6s0.75-0.336,0.75-0.75v-3C9.75,1.836,9.414,1.5,9,1.5z"/>
	<path d="M3,16.5c-1.241,0-2.25-1.009-2.25-2.25v-3C0.75,10.009,1.759,9,3,9s2.25,1.009,2.25,2.25v3C5.25,15.491,4.241,16.5,3,16.5z
		 M3,10.5c-0.414,0-0.75,0.336-0.75,0.75v3C2.25,14.664,2.586,15,3,15s0.75-0.336,0.75-0.75v-3C3.75,10.836,3.414,10.5,3,10.5z"/>
	<path d="M19.5,7.5c-0.414,0-0.75-0.336-0.75-0.75S19.086,6,19.5,6h0.75V1.5H19.5c-0.414,0-0.75-0.336-0.75-0.75S19.086,0,19.5,0
		h0.75c0.827,0,1.5,0.673,1.5,1.5V6h0.75c0.414,0,0.75,0.336,0.75,0.75S22.914,7.5,22.5,7.5H19.5z"/>
	<path d="M15,7.5c-1.241,0-2.25-1.009-2.25-2.25v-3C12.75,1.009,13.759,0,15,0s2.25,1.009,2.25,2.25v3
		C17.25,6.491,16.241,7.5,15,7.5z M15,1.5c-0.414,0-0.75,0.336-0.75,0.75v3C14.25,5.664,14.586,6,15,6s0.75-0.336,0.75-0.75v-3
		C15.75,1.836,15.414,1.5,15,1.5z"/>
	<path d="M21,16.5c-1.241,0-2.25-1.009-2.25-2.25v-3C18.75,10.009,19.759,9,21,9s2.25,1.009,2.25,2.25v3
		C23.25,15.491,22.241,16.5,21,16.5z M21,10.5c-0.414,0-0.75,0.336-0.75,0.75v3c0,0.414,0.336,0.75,0.75,0.75s0.75-0.336,0.75-0.75
		v-3C21.75,10.836,21.414,10.5,21,10.5z"/>
</g>
</svg>
