<?xml version="1.0" encoding="utf-8"?>
<!-- Generator: Adobe Illustrator 22.1.0, SVG Export Plug-In . SVG Version: 6.00 Build 0)  -->
<svg version="1.1" id="Layer_1" xmlns="http://www.w3.org/2000/svg" xmlns:xlink="http://www.w3.org/1999/xlink" x="0px" y="0px"
	 viewBox="0 0 24 24" style="enable-background:new 0 0 24 24;" xml:space="preserve">
<title>programming-user</title>
<g>
	<path d="M15,15c-0.414,0-0.75-0.336-0.75-0.75S14.586,13.5,15,13.5h7.286c0.118,0,0.214-0.096,0.214-0.215V1.714
		c0-0.118-0.096-0.214-0.215-0.214H12c-0.414,0-0.75-0.336-0.75-0.75S11.586,0,12,0h10.286C23.23,0.001,23.999,0.77,24,1.713v11.573
		c-0.001,0.944-0.77,1.713-1.713,1.714C22.286,15,15,15,15,15z"/>
	<path d="M12.75,9.75c-0.2,0-0.389-0.078-0.53-0.22C12.078,9.389,12,9.2,12,9s0.078-0.389,0.22-0.53l1.72-1.72l-1.72-1.72
		C12.078,4.889,12,4.7,12,4.5s0.078-0.389,0.22-0.53c0.141-0.142,0.33-0.22,0.53-0.22s0.389,0.078,0.53,0.22l2.25,2.25
		c0.142,0.141,0.22,0.33,0.22,0.53s-0.078,0.389-0.22,0.53l-2.25,2.25C13.139,9.672,12.95,9.75,12.75,9.75z"/>
	<path d="M18,7.5c-0.414,0-0.75-0.336-0.75-0.75S17.586,6,18,6h2.25C20.664,6,21,6.336,21,6.75S20.664,7.5,20.25,7.5H18z"/>
	<path d="M6,7.5c-2.068,0-3.75-1.682-3.75-3.75S3.932,0,6,0s3.75,1.682,3.75,3.75S8.068,7.5,6,7.5z M6,1.5
		c-1.241,0-2.25,1.009-2.25,2.25S4.759,6,6,6s2.25-1.009,2.25-2.25S7.241,1.5,6,1.5z"/>
	<path d="M3.75,24c-0.387,0-0.708-0.29-0.746-0.675L2.321,16.5H0.75C0.336,16.5,0,16.164,0,15.75V13.5c0-3.308,2.692-6,6-6
		s6,2.692,6,6v2.25c0,0.414-0.336,0.75-0.75,0.75H9.679l-0.682,6.825C8.958,23.71,8.637,24,8.25,24H3.75z M7.571,22.5l0.682-6.825
		C8.292,15.29,8.613,15,9,15h1.5v-1.5C10.5,11.019,8.481,9,6,9s-4.5,2.019-4.5,4.5V15H3c0.387,0,0.708,0.29,0.746,0.675L4.429,22.5
		H7.571z"/>
</g>
</svg>
