<?xml version="1.0" encoding="utf-8"?>
<!-- Generator: Adobe Illustrator 22.1.0, SVG Export Plug-In . SVG Version: 6.00 Build 0)  -->
<svg version="1.1" id="Layer_1" xmlns="http://www.w3.org/2000/svg" xmlns:xlink="http://www.w3.org/1999/xlink" x="0px" y="0px"
	 viewBox="0 0 24 24" style="enable-background:new 0 0 24 24;" xml:space="preserve">
<title>programming-keyboard-type</title>
<g>
	<path d="M2.994,11.25c-1.241,0-2.25-1.009-2.25-2.25V3c0-1.241,1.009-2.25,2.25-2.25h18c1.241,0,2.25,1.009,2.25,2.25v6
		c0,1.241-1.009,2.25-2.25,2.25H2.994z M2.994,2.25c-0.414,0-0.75,0.336-0.75,0.75v6c0,0.414,0.336,0.75,0.75,0.75h18
		c0.414,0,0.75-0.336,0.75-0.75V3c0-0.414-0.336-0.75-0.75-0.75H2.994z"/>
	<path d="M4.494,5.25c-0.414,0-0.75-0.336-0.75-0.75s0.336-0.75,0.75-0.75h1.5c0.414,0,0.75,0.336,0.75,0.75s-0.336,0.75-0.75,0.75
		H4.494z"/>
	<path d="M4.494,8.25c-0.414,0-0.75-0.336-0.75-0.75s0.336-0.75,0.75-0.75h1.5c0.414,0,0.75,0.336,0.75,0.75s-0.336,0.75-0.75,0.75
		H4.494z"/>
	<path d="M8.994,5.25c-0.414,0-0.75-0.336-0.75-0.75s0.336-0.75,0.75-0.75h1.5c0.414,0,0.75,0.336,0.75,0.75s-0.336,0.75-0.75,0.75
		H8.994z"/>
	<path d="M8.994,8.25c-0.414,0-0.75-0.336-0.75-0.75s0.336-0.75,0.75-0.75h6c0.414,0,0.75,0.336,0.75,0.75s-0.336,0.75-0.75,0.75
		H8.994z"/>
	<path d="M13.494,5.25c-0.414,0-0.75-0.336-0.75-0.75s0.336-0.75,0.75-0.75h1.5c0.414,0,0.75,0.336,0.75,0.75s-0.336,0.75-0.75,0.75
		H13.494z"/>
	<path d="M17.994,5.25c-0.414,0-0.75-0.336-0.75-0.75s0.336-0.75,0.75-0.75h1.5c0.414,0,0.75,0.336,0.75,0.75s-0.336,0.75-0.75,0.75
		H17.994z"/>
	<path d="M17.994,8.25c-0.414,0-0.75-0.336-0.75-0.75s0.336-0.75,0.75-0.75h1.5c0.414,0,0.75,0.336,0.75,0.75s-0.336,0.75-0.75,0.75
		H17.994z"/>
	<path d="M8.994,23.25c-0.163,0-0.319-0.052-0.45-0.15c-0.331-0.248-0.398-0.719-0.15-1.05c1.145-1.526,1.378-2.419,1.392-2.712
		c-0.179,0.009-0.735,0.103-1.906,0.805c-0.117,0.07-0.25,0.107-0.386,0.107c-0.148,0-0.291-0.043-0.414-0.124
		c-0.241-0.16-0.369-0.447-0.328-0.732L7.38,15H4.747c-0.805,0.001-1.552,0.435-1.952,1.134c-1.295,2.262-1.301,6.323-1.301,6.364
		c0.001,0.413-0.334,0.751-0.747,0.752c-0.415,0-0.751-0.335-0.753-0.748c-0.001-0.182,0.002-4.497,1.499-7.113
		c0.665-1.165,1.912-1.889,3.253-1.889h2.633c0.402,0,0.779,0.157,1.062,0.441c0.283,0.284,0.439,0.661,0.439,1.062
		c0,0.072-0.005,0.14-0.015,0.208l-0.422,2.954c0.534-0.223,0.988-0.333,1.377-0.333c0.46,0,0.83,0.153,1.101,0.453
		c0.443,0.491,0.859,1.75-1.326,4.665C9.453,23.138,9.229,23.25,8.994,23.25z"/>
	<path d="M23.243,23.25c-0.202-0.001-0.39-0.079-0.531-0.221c-0.141-0.142-0.219-0.331-0.218-0.531c0-0.041-0.003-4.096-1.301-6.363
		c-0.399-0.699-1.146-1.133-1.95-1.135h-2.634l0.628,4.394c0.04,0.285-0.088,0.572-0.327,0.731
		c-0.125,0.082-0.268,0.125-0.415,0.125c-0.136,0-0.269-0.037-0.386-0.107c-1.17-0.702-1.727-0.796-1.906-0.805
		c0.013,0.293,0.247,1.186,1.392,2.712c0.248,0.331,0.181,0.802-0.15,1.05c-0.132,0.098-0.287,0.15-0.45,0.15
		c-0.235,0-0.459-0.112-0.6-0.3c-2.186-2.916-1.77-4.174-1.327-4.665c0.271-0.301,0.641-0.453,1.101-0.453
		c0.389,0,0.843,0.109,1.377,0.333l-0.422-2.953c-0.01-0.071-0.015-0.14-0.015-0.21c0-0.401,0.156-0.778,0.439-1.061
		c0.283-0.284,0.66-0.44,1.061-0.441h2.635c1.341,0.002,2.586,0.726,3.251,1.89c1.5,2.621,1.5,6.931,1.499,7.113
		c-0.001,0.412-0.338,0.747-0.75,0.747H23.243z"/>
</g>
</svg>
