<svg xmlns="http://www.w3.org/2000/svg" viewBox="0 0 24 24"><defs><style>.a{fill:none;stroke:currentColor;stroke-linecap:round;stroke-linejoin:round;stroke-width:1.5px;}</style></defs><title>controls-camera-record</title><path class="a" d="M9,12.75H2.25a1.5,1.5,0,0,1-1.5-1.5v-9A1.5,1.5,0,0,1,2.25.75h12a1.5,1.5,0,0,1,1.5,1.5V9"/><path class="a" d="M19.579,10.165l2.586,1.292a.75.75,0,0,0,1.085-.671V2.714a.75.75,0,0,0-1.085-.671L19.579,3.335a1.5,1.5,0,0,0-.829,1.342V8.823A1.5,1.5,0,0,0,19.579,10.165Z"/><circle class="a" cx="15.75" cy="18.75" r="4.5"/><path class="a" d="M15.75,18.375a.375.375,0,1,0,.375.375.375.375,0,0,0-.375-.375h0"/></svg>