<svg xmlns="http://www.w3.org/2000/svg" viewBox="0 0 24 24"><title>sd-card-refresh</title><path d="M9.011,17.5A8.006,8.006,0,0,1,15.8,9.6a.251.251,0,0,0,.213-.247V4.915a1.508,1.508,0,0,0-.44-1.061L12.157.44A1.49,1.49,0,0,0,11.1,0H1.511a1.5,1.5,0,0,0-1.5,1.5V9a.5.5,0,0,0,.5.5h.75a.25.25,0,0,1,.25.25v2a.25.25,0,0,1-.25.25H.511a.5.5,0,0,0-.5.5V20a1.5,1.5,0,0,0,1.5,1.5H9.672a.251.251,0,0,0,.222-.365A7.912,7.912,0,0,1,9.011,17.5Zm-.75-14v4a.75.75,0,0,1-1.5,0v-4a.75.75,0,0,1,1.5,0Zm-3.5,0v4a.75.75,0,0,1-1.5,0v-4a.75.75,0,0,1,1.5,0Zm7,4a.75.75,0,1,1-1.5,0v-4a.75.75,0,1,1,1.5,0Z"/><path d="M17.136,11.251A6.375,6.375,0,1,0,22.118,21.6a1,1,0,0,0-1.562-1.248,4.375,4.375,0,1,1-.306-5.8l-1.571,1.572a.5.5,0,0,0,.353.853h4.457a.5.5,0,0,0,.5-.5V12.022a.5.5,0,0,0-.853-.353l-1.472,1.472A6.327,6.327,0,0,0,17.136,11.251Z"/></svg>