<svg xmlns="http://www.w3.org/2000/svg" viewBox="0 0 24 24"><defs><style>.a{fill:none;stroke:currentColor;stroke-linecap:round;stroke-linejoin:round;}</style></defs><title>equalizer-stereo-play</title><path class="a" d="M1.5,8.293h4a1,1,0,0,1,1,1v13a0,0,0,0,1,0,0h-5a1,1,0,0,1-1-1v-12A1,1,0,0,1,1.5,8.293Z"/><rect class="a" x="6.5" y="12.293" width="11" height="10"/><circle class="a" cx="3.5" cy="18.293" r="1"/><circle class="a" cx="3.5" cy="13.293" r="1"/><path class="a" d="M18.5,8.293h5a0,0,0,0,1,0,0v13a1,1,0,0,1-1,1h-4a1,1,0,0,1-1-1v-12a1,1,0,0,1,1-1Z" transform="translate(41 30.586) rotate(180)"/><circle class="a" cx="20.5" cy="18.293" r="1"/><circle class="a" cx="20.5" cy="13.293" r="1"/><path class="a" d="M14.5,14.293h-5a1,1,0,0,0,0,2h5a1,1,0,0,0,0-2Z"/><path class="a" d="M8.75,19.793a.25.25,0,1,1-.25.25.25.25,0,0,1,.25-.25"/><path class="a" d="M15.25,19.793a.25.25,0,1,1-.25.25.25.25,0,0,1,.25-.25"/><line class="a" x1="10.5" y1="18.293" x2="13.5" y2="18.293"/><path class="a" d="M1.914,4.293a2,2,0,0,1,2.829,0"/><path class="a" d="M.5,2.879a4,4,0,0,1,5.657,0"/><path class="a" d="M22.086,4.293a2,2,0,0,0-2.829,0"/><path class="a" d="M23.5,2.879a4,4,0,0,0-5.657,0"/></svg>