<svg xmlns="http://www.w3.org/2000/svg" viewBox="0 0 24 24"><defs><style>.a{fill:none;stroke:currentColor;stroke-linecap:round;stroke-linejoin:round;}</style></defs><title>equalizer-stereo-1</title><path class="a" d="M2.75,16.5a.25.25,0,1,1-.25.25.25.25,0,0,1,.25-.25"/><path class="a" d="M2.75,20a.25.25,0,1,1-.25.25A.25.25,0,0,1,2.75,20"/><rect class="a" x="0.5" y="14.5" width="23" height="8" rx="1" ry="1"/><rect class="a" x="5.5" y="16.5" width="11" height="2" rx="0.5" ry="0.5"/><circle class="a" cx="20" cy="18" r="1.5"/><line class="a" x1="5.5" y1="20.5" x2="7.5" y2="20.5"/><line class="a" x1="14.5" y1="20.5" x2="16.5" y2="20.5"/><path class="a" d="M5,12a.25.25,0,1,1-.25.25A.25.25,0,0,1,5,12"/><path class="a" d="M3.5,1.5h3a1,1,0,0,1,1,1v12a0,0,0,0,1,0,0h-5a0,0,0,0,1,0,0V2.5A1,1,0,0,1,3.5,1.5Z"/><line class="a" x1="2.5" y1="10" x2="7.5" y2="10"/><path class="a" d="M19,12a.25.25,0,1,1-.25.25A.25.25,0,0,1,19,12"/><path class="a" d="M17.5,1.5h3a1,1,0,0,1,1,1v12a0,0,0,0,1,0,0h-5a0,0,0,0,1,0,0V2.5A1,1,0,0,1,17.5,1.5Z"/><line class="a" x1="16.5" y1="10" x2="21.5" y2="10"/></svg>