<svg xmlns="http://www.w3.org/2000/svg" viewBox="0 0 24 24"><defs><style>.a{fill:none;stroke:currentColor;stroke-linecap:round;stroke-linejoin:round;}</style></defs><title>equalizer-1</title><rect class="a" x="0.5" y="1" width="23" height="22" rx="1" ry="1"/><line class="a" x1="4.5" y1="9" x2="4.5" y2="15"/><rect class="a" x="3.5" y="15" width="2" height="3" rx="0.5" ry="0.5"/><line class="a" x1="4.5" y1="18" x2="4.5" y2="21"/><line class="a" x1="9.5" y1="9" x2="9.5" y2="13"/><rect class="a" x="8.5" y="13" width="2" height="3" rx="0.5" ry="0.5"/><line class="a" x1="9.5" y1="16" x2="9.5" y2="21"/><line class="a" x1="14.5" y1="9" x2="14.5" y2="11"/><rect class="a" x="13.5" y="11" width="2" height="3" rx="0.5" ry="0.5"/><line class="a" x1="14.5" y1="14" x2="14.5" y2="21"/><line class="a" x1="19.5" y1="9" x2="19.5" y2="16"/><rect class="a" x="18.5" y="16" width="2" height="3" rx="0.5" ry="0.5"/><line class="a" x1="19.5" y1="19" x2="19.5" y2="21"/><path class="a" d="M21.5,5a1,1,0,0,0-1-1H3.5a1,1,0,0,0,0,2h17A1,1,0,0,0,21.5,5Z"/></svg>