<svg xmlns="http://www.w3.org/2000/svg" viewBox="0 0 24 24"><defs><style>.a{fill:none;stroke:currentColor;stroke-linecap:round;stroke-linejoin:round;}</style></defs><title>equalizer</title><path class="a" d="M2,2.5a1,1,0,0,0-1,1v17a1,1,0,0,0,2,0V3.5A1,1,0,0,0,2,2.5Z"/><path class="a" d="M22,2.5a1,1,0,0,0-1,1v17a1,1,0,0,0,2,0V3.5A1,1,0,0,0,22,2.5Z"/><rect class="a" x="3" y="3.5" width="18" height="17"/><line class="a" x1="7" y1="10" x2="7" y2="18"/><line class="a" x1="12" y1="10" x2="12" y2="18"/><line class="a" x1="17" y1="10" x2="17" y2="18"/><line class="a" x1="5" y1="15.5" x2="9" y2="15.5"/><line class="a" x1="10" y1="12.5" x2="14" y2="12.5"/><line class="a" x1="15" y1="15.5" x2="19" y2="15.5"/><line class="a" x1="12" y1="6.5" x2="19" y2="6.5"/><rect class="a" x="5" y="5.5" width="5" height="2" rx="0.5" ry="0.5"/></svg>