<svg xmlns="http://www.w3.org/2000/svg" viewBox="0 0 24 24"><title>module-three-1</title><path d="M11.871,6.936a.254.254,0,0,0,.258,0l4.514-2.709a.249.249,0,0,0,.121-.214.252.252,0,0,0-.121-.215L12.515,1.321a1,1,0,0,0-1.029,0L7.357,3.8a.252.252,0,0,0-.121.215.249.249,0,0,0,.121.214Z"/><path d="M12.5,8.154v4.417a.249.249,0,0,0,.127.218.252.252,0,0,0,.252,0l4.5-2.7a.252.252,0,0,0,.121-.215V5.454a.248.248,0,0,0-.127-.217.252.252,0,0,0-.252,0l-4.5,2.7A.25.25,0,0,0,12.5,8.154Z"/><path d="M11.121,12.786a.252.252,0,0,0,.252,0,.249.249,0,0,0,.127-.218V8.154a.25.25,0,0,0-.121-.214l-4.5-2.7a.252.252,0,0,0-.252,0,.248.248,0,0,0-.127.217V9.871a.252.252,0,0,0,.121.215Z"/><path d="M13.236,14.013a.249.249,0,0,0,.121.214l4.514,2.709a.254.254,0,0,0,.258,0l4.514-2.709a.249.249,0,0,0,.121-.214.252.252,0,0,0-.121-.215L18.129,11.09a.254.254,0,0,0-.258,0L13.357,13.8A.252.252,0,0,0,13.236,14.013Z"/><path d="M18.5,18.154v4.417a.249.249,0,0,0,.127.218.252.252,0,0,0,.252,0L23.015,20.3a1,1,0,0,0,.485-.857V15.454a.248.248,0,0,0-.127-.217.252.252,0,0,0-.252,0l-4.5,2.7A.25.25,0,0,0,18.5,18.154Z"/><path d="M12.627,15.237a.248.248,0,0,0-.127.217v4.417a.252.252,0,0,0,.121.215l4.5,2.7a.252.252,0,0,0,.252,0,.249.249,0,0,0,.127-.218V18.154a.25.25,0,0,0-.121-.214l-4.5-2.7A.252.252,0,0,0,12.627,15.237Z"/><path d="M5.871,16.936a.254.254,0,0,0,.258,0l4.514-2.709a.249.249,0,0,0,.121-.214.252.252,0,0,0-.121-.215L6.129,11.09a.254.254,0,0,0-.258,0L1.357,13.8a.252.252,0,0,0-.121.215.249.249,0,0,0,.121.214Z"/><path d="M11.373,15.237a.252.252,0,0,0-.252,0l-4.5,2.7a.25.25,0,0,0-.121.214v4.417a.249.249,0,0,0,.127.218.252.252,0,0,0,.252,0l4.5-2.7a.252.252,0,0,0,.121-.215V15.454A.248.248,0,0,0,11.373,15.237Z"/><path d="M.986,20.3l4.135,2.482a.252.252,0,0,0,.252,0,.249.249,0,0,0,.127-.218V18.154a.25.25,0,0,0-.121-.214l-4.5-2.7a.252.252,0,0,0-.252,0,.248.248,0,0,0-.127.217v3.993A1,1,0,0,0,.986,20.3Z"/></svg>