<svg xmlns="http://www.w3.org/2000/svg" viewBox="0 0 24 24"><title>module-phone-puzzle</title><path d="M14.74,3a3,3,0,0,0-3-3h-8a3,3,0,0,0-3,3V21a3,3,0,0,0,3,3h8a2.922,2.922,0,0,0,.926-.15.5.5,0,0,0,.2-.828L8.987,19.147A.5.5,0,0,0,8.633,19H3.24a.5.5,0,0,1-.5-.5V5.5a.5.5,0,0,1,.5-.5h9a.5.5,0,0,1,.5.5V8a1,1,0,0,0,2,0Z"/><path d="M22.967,16.864a1,1,0,0,0,0-1.414l-1.328-1.329a.25.25,0,0,1,.069-.4,1.966,1.966,0,0,0,.552-.391,2,2,0,1,0-3.219-2.276.251.251,0,0,1-.183.139.247.247,0,0,1-.219-.07L17.311,9.793a1,1,0,0,0-1.415,0l-1.449,1.449a.5.5,0,0,0,.077.771c.02.013.3.238.312.255a2,2,0,1,1-3.083,2.517.507.507,0,0,0-.768-.079l0,0-1.45,1.449a1,1,0,0,0,0,1.414l5.657,5.657a1,1,0,0,0,1.415,0l1.561-1.562a.5.5,0,0,0-.171-.819,2.006,2.006,0,0,1-1.123-1.109,2,2,0,0,1,3.268-2.167,2,2,0,0,1,.448.683.5.5,0,0,0,.819.171Z"/></svg>