<svg xmlns="http://www.w3.org/2000/svg" viewBox="0 0 24 24"><title>module-four</title><ellipse cx="12" cy="9.272" rx="3" ry="1.5"/><ellipse cx="12" cy="3.772" rx="3" ry="1.5"/><ellipse cx="18.5" cy="6.272" rx="3" ry="1.5"/><ellipse cx="6" cy="6.272" rx="3" ry="1.5"/><path d="M.9,17.492l9.649,4.2a.5.5,0,0,0,.7-.458v-8a.5.5,0,0,0-.3-.459L.7,8.313a.5.5,0,0,0-.7.459v7.344A1.5,1.5,0,0,0,.9,17.492Z"/><path d="M12.75,13.228v8a.5.5,0,0,0,.7.458l9.65-4.2a1.5,1.5,0,0,0,.9-1.375V8.772a.5.5,0,0,0-.7-.459l-10.25,4.456A.5.5,0,0,0,12.75,13.228Z"/></svg>