<svg xmlns="http://www.w3.org/2000/svg" viewBox="0 0 24 24"><title>module</title><path d="M22.523,3.345,12.785.705a3.029,3.029,0,0,0-1.57,0L1.477,3.345A2.028,2.028,0,0,0,0,5.276V17.818a2,2,0,0,0,1.343,1.889l10.141,3.528a2.957,2.957,0,0,0,1.01.164,2.838,2.838,0,0,0,1.043-.194l9.175-3.5A2.083,2.083,0,0,0,24,17.84h0V5.276A2.022,2.022,0,0,0,22.523,3.345ZM11.738,2.636a1.012,1.012,0,0,1,.524,0l6.157,1.669a.25.25,0,0,1,0,.482L12.555,6.473a.25.25,0,0,1-.133,0L5.786,4.732a.25.25,0,0,1,0-.483Zm-9.57,15.24A.25.25,0,0,1,2,17.64V6.131a.251.251,0,0,1,.1-.2.254.254,0,0,1,.216-.044l9,2.362a.25.25,0,0,1,.187.242V20.771a.247.247,0,0,1-.105.2.252.252,0,0,1-.227.033Z"/></svg>