<svg id="Bold" xmlns="http://www.w3.org/2000/svg" viewBox="0 0 24 24"><title>multiple-actions-cart</title><path d="M19.631,12.49a.5.5,0,0,0,.464-.684,6.015,6.015,0,0,0-8.072-3.272.5.5,0,0,0-.182.771,7.441,7.441,0,0,1,1.422,2.811.5.5,0,0,0,.484.374Z"/><ellipse cx="14.013" cy="3.5" rx="3.513" ry="3.5"/><path d="M11.377,13.321a1.745,1.745,0,0,1,.283-.3.5.5,0,0,0,.159-.5A6.024,6.024,0,0,0,0,13.333.6.6,0,0,0,.6,14H10.713a.5.5,0,0,0,.463-.312A1.8,1.8,0,0,1,11.377,13.321Z"/><ellipse cx="5.513" cy="3.5" rx="3.513" ry="3.5"/><path d="M15.769,23.989a1.423,1.423,0,1,0-1.423-1.423A1.424,1.424,0,0,0,15.769,23.989Z"/><path d="M20.9,22.577A1.423,1.423,0,1,0,19.472,24,1.425,1.425,0,0,0,20.9,22.577Z"/><path d="M23.487,10.789a.749.749,0,0,0-.949.474l-.794,2.384a.5.5,0,0,1-.475.342H13a.5.5,0,0,0-.474.659l1.846,5.5a.5.5,0,0,0,.474.341h6.231a.5.5,0,0,0,.481-.365l2.4-8.387A.749.749,0,0,0,23.487,10.789Z"/></svg>