<svg id="Bold" xmlns="http://www.w3.org/2000/svg" viewBox="0 0 24 24"><title>multiple-actions-home</title><path d="M15.384,10.591a2.5,2.5,0,0,1,3.228,0,.333.333,0,0,0,.469-.47,6.01,6.01,0,0,0-7.058-1.586.5.5,0,0,0-.182.771,7.459,7.459,0,0,1,1.273,2.311.5.5,0,0,0,.8.222Z"/><ellipse cx="14.013" cy="3.5" rx="3.513" ry="3.5"/><path d="M5.989,8A6.014,6.014,0,0,0,0,13.333.6.6,0,0,0,.6,14H11.173a.5.5,0,0,0,.323-.118l.284-.241a.5.5,0,0,0,.173-.449A6.012,6.012,0,0,0,5.989,8Z"/><path d="M7.123,6.594A3.448,3.448,0,1,0,5.513,7,3.485,3.485,0,0,0,7.123,6.594Z"/><path d="M17.323,12.118a.5.5,0,0,0-.647,0l-6.5,5.5a.5.5,0,0,0,.324.882h1.25a.25.25,0,0,1,.25.25V23.5a.5.5,0,0,0,.5.5h9a.5.5,0,0,0,.5-.5V18.75a.25.25,0,0,1,.25-.25H23.5a.5.5,0,0,0,.323-.882Z"/></svg>