<svg id="Bold" xmlns="http://www.w3.org/2000/svg" viewBox="0 0 24 24"><title>multiple-actions-lock</title><path d="M17.226,9.594a.5.5,0,0,0,.054-.91,6,6,0,0,0-5.256-.15.5.5,0,0,0-.182.771A7.393,7.393,0,0,1,13.5,13.527a.278.278,0,0,0,.552.024A4.87,4.87,0,0,1,17.226,9.594Z"/><ellipse cx="14.013" cy="3.5" rx="3.513" ry="3.5"/><path d="M12,13.6A6.025,6.025,0,0,0,0,13.333.6.6,0,0,0,.6,14H11.623a.377.377,0,0,0,.275-.119A.372.372,0,0,0,12,13.6Z"/><ellipse cx="5.513" cy="3.5" rx="3.513" ry="3.5"/><path d="M22.5,14.25a3.5,3.5,0,0,0-7,0v1.018a.249.249,0,0,1-.214.247A1.5,1.5,0,0,0,14,17v5.5A1.5,1.5,0,0,0,15.5,24h7A1.5,1.5,0,0,0,24,22.5V17a1.5,1.5,0,0,0-1.286-1.485.249.249,0,0,1-.214-.247Zm-2.5,6a1,1,0,1,1-1-1A1,1,0,0,1,20,20.25ZM17.75,15.5a.25.25,0,0,1-.25-.25v-1a1.5,1.5,0,0,1,3,0v1a.25.25,0,0,1-.25.25Z"/></svg>