<svg id="Bold" xmlns="http://www.w3.org/2000/svg" viewBox="0 0 24 24"><title>multiple-actions-share-1</title><path d="M17.989,8.6a5.95,5.95,0,0,0-2.465.534.5.5,0,0,0-.182.771A7.414,7.414,0,0,1,17,14.1v.025a.5.5,0,0,0,.5.473h6.127A.376.376,0,0,0,24,14.2,6.014,6.014,0,0,0,17.989,8.6Z"/><ellipse cx="17.513" cy="4.097" rx="3.513" ry="3.5"/><path d="M15.5,14.2A6.025,6.025,0,0,0,3.5,13.93a.6.6,0,0,0,.6.667H15.123a.376.376,0,0,0,.376-.4Z"/><ellipse cx="9.013" cy="4.097" rx="3.513" ry="3.5"/><path d="M2,22.4V16.79a1,1,0,0,0-2,0V22.4a1,1,0,0,0,2,0Z"/><path d="M12.5,19.6h-7a.355.355,0,0,1-.323-.388.371.371,0,0,1,.371-.37H7.5A.887.887,0,0,0,8.319,17.6,1.905,1.905,0,0,0,6.505,16.6l-3-.033a.557.557,0,0,0-.357.145A.5.5,0,0,0,3,17.064V22.1a.5.5,0,0,0,.5.5h8a2.041,2.041,0,0,0,2-1.925v-.2A.97.97,0,0,0,12.5,19.6Z"/></svg>