<svg id="Bold" xmlns="http://www.w3.org/2000/svg" viewBox="0 0 24 24"><title>multiple-actions-check-2</title><path d="M23.781,12.657a1.14,1.14,0,0,0-1.487.01l-4.617,4.617a.25.25,0,0,1-.353,0l-1.179-1.179a1,1,0,1,0-1.414,1.414L16.307,19.1a1.691,1.691,0,0,0,2.387,0l5.014-5.014A1.133,1.133,0,0,0,23.781,12.657Z"/><path d="M23.049,18.19a1,1,0,0,0-1.253.656A4.5,4.5,0,1,1,17.5,13a1,1,0,0,0,0-2,6.5,6.5,0,1,0,6.2,8.443A1,1,0,0,0,23.049,18.19Z"/><path d="M12.024,8.534a.5.5,0,0,0-.183.771,7.411,7.411,0,0,1,.788,1.187.5.5,0,0,0,.7.19A7.933,7.933,0,0,1,17.5,9.5a.321.321,0,0,0,.169-.593,6,6,0,0,0-5.646-.373Z"/><ellipse cx="14.014" cy="3.5" rx="3.513" ry="3.5"/><path d="M11.564,11.733a6.026,6.026,0,0,0-11.559,1.6A.6.6,0,0,0,.6,14h9.41a.5.5,0,0,0,.441-.264,8.015,8.015,0,0,1,1.025-1.484A.5.5,0,0,0,11.564,11.733Z"/><ellipse cx="5.514" cy="3.5" rx="3.513" ry="3.5"/></svg>