<svg id="Bold" xmlns="http://www.w3.org/2000/svg" viewBox="0 0 24 24"><title>multiple-actions-address</title><path d="M15.91,9.153a.5.5,0,0,0,.03-.977A6.031,6.031,0,0,0,14.489,8a5.958,5.958,0,0,0-2.466.534.5.5,0,0,0-.182.77,7.507,7.507,0,0,1,.553.779.5.5,0,0,0,.687.163A8.292,8.292,0,0,1,15.91,9.153Z"/><ellipse cx="14.013" cy="3.5" rx="3.513" ry="3.5"/><path d="M5.989,8A6.014,6.014,0,0,0,0,13.332.6.6,0,0,0,.6,14H9.447a.5.5,0,0,0,.448-.277,8.521,8.521,0,0,1,1.34-1.959.5.5,0,0,0,.072-.573A6.019,6.019,0,0,0,5.989,8Z"/><ellipse cx="5.513" cy="3.5" rx="3.513" ry="3.5"/><path d="M17.424,10.5a6.717,6.717,0,0,0-5.4,2.471,6.786,6.786,0,0,0-1.35,5.843,6.672,6.672,0,0,0,4.987,5A7.081,7.081,0,0,0,17.251,24a6.7,6.7,0,0,0,1.735-.227,1,1,0,0,0-.512-1.933,4.877,4.877,0,0,1-2.363.028,4.728,4.728,0,0,1-3.484-3.495,4.8,4.8,0,0,1,.947-4.132,4.7,4.7,0,0,1,3.8-1.74A4.921,4.921,0,0,1,22,17.516v.811a.8.8,0,0,1-1.594,0V17.249a3.156,3.156,0,1,0-3.156,3.156,3.094,3.094,0,0,0,1.476-.377.25.25,0,0,1,.312.063A2.793,2.793,0,0,0,24,18.327v-.811A6.932,6.932,0,0,0,17.424,10.5Zm-.174,7.9a1.157,1.157,0,1,1,1.156-1.157A1.157,1.157,0,0,1,17.25,18.406Z"/></svg>