<svg id="Bold" xmlns="http://www.w3.org/2000/svg" viewBox="0 0 24 24"><title>multiple-actions-credit-card</title><path d="M19.407,12a.5.5,0,0,0,.444-.728A6.021,6.021,0,0,0,14.489,8a5.95,5.95,0,0,0-2.465.534.5.5,0,0,0-.182.771,7.47,7.47,0,0,1,1.291,2.352.5.5,0,0,0,.475.343Z"/><ellipse cx="14.013" cy="3.5" rx="3.513" ry="3.5"/><path d="M8.935,14a.5.5,0,0,0,.442-.266,3.26,3.26,0,0,1,1.8-1.544.5.5,0,0,0,.289-.681A6.026,6.026,0,0,0,0,13.333.6.6,0,0,0,.6,14Z"/><ellipse cx="5.513" cy="3.5" rx="3.513" ry="3.5"/><path d="M22.25,13.5h-10a1.752,1.752,0,0,0-1.75,1.75v7A1.752,1.752,0,0,0,12.25,24h10A1.752,1.752,0,0,0,24,22.25v-7A1.752,1.752,0,0,0,22.25,13.5Zm0,9h-10a.25.25,0,0,1-.25-.25v-3a.25.25,0,0,1,.25-.25h10a.25.25,0,0,1,.25.25v3A.25.25,0,0,1,22.25,22.5Zm.25-7.25v1a.25.25,0,0,1-.25.25h-10a.25.25,0,0,1-.25-.25v-1a.25.25,0,0,1,.25-.25h10A.25.25,0,0,1,22.5,15.25Z"/><path d="M20.25,20H19a.75.75,0,0,0,0,1.5h1.25a.75.75,0,0,0,0-1.5Z"/></svg>