<svg id="Bold" xmlns="http://www.w3.org/2000/svg" viewBox="0 0 24 24"><title>multiple-actions-graduate</title><path d="M13.5,13.527A.5.5,0,0,0,14,14h.49a.492.492,0,0,0,.2-.04l2.029-.87a2.006,2.006,0,0,1,1.576,0l1.828.784A.276.276,0,0,0,20.5,13.6a6.013,6.013,0,0,0-8.476-5.067.5.5,0,0,0-.181.771A7.42,7.42,0,0,1,13.5,13.5Z"/><ellipse cx="14.013" cy="3.5" rx="3.513" ry="3.5"/><path d="M11.623,14A.376.376,0,0,0,12,13.6,6.025,6.025,0,0,0,0,13.333.6.6,0,0,0,.6,14Z"/><ellipse cx="5.513" cy="3.5" rx="3.513" ry="3.5"/><path d="M23.684,17.111l-6-2.383a.5.5,0,0,0-.369,0l-6,2.383a.5.5,0,0,0-.315.474v3.38a.75.75,0,1,0,1.5,0V18.812a.251.251,0,0,1,.333-.236l4.5,1.589a.532.532,0,0,0,.167.028.521.521,0,0,0,.166-.028l6-2.119a.5.5,0,0,0,.018-.935Z"/><path d="M21.1,22.917a.5.5,0,0,0,.334-.471V20.3a.5.5,0,0,0-.667-.471l-3.179,1.122a.249.249,0,0,1-.166,0l-3.179-1.122a.5.5,0,0,0-.667.471v2.146a.5.5,0,0,0,.334.471l2.572.908a3.075,3.075,0,0,0,2.045,0Z"/></svg>