<?xml version="1.0" encoding="utf-8"?>
<!-- Generator: Adobe Illustrator 22.1.0, SVG Export Plug-In . SVG Version: 6.00 Build 0)  -->
<svg version="1.1" id="Layer_1" xmlns="http://www.w3.org/2000/svg" xmlns:xlink="http://www.w3.org/1999/xlink" x="0px" y="0px"
	 viewBox="0 0 24 24" style="enable-background:new 0 0 24 24;" xml:space="preserve">
<g>
	<title>signal-no</title>
	<path d="M0.5,12.5C0.224,12.5,0,12.276,0,12c0-0.276,0.224-0.5,0.5-0.5h3C3.776,11.5,4,11.724,4,12c0,0.276-0.224,0.5-0.5,0.5H0.5z
		"/>
	<path d="M5.5,12.5C5.224,12.5,5,12.276,5,12c0-0.276,0.224-0.5,0.5-0.5h3C8.776,11.5,9,11.724,9,12c0,0.276-0.224,0.5-0.5,0.5H5.5z
		"/>
	<path d="M10.5,12.5c-0.276,0-0.5-0.224-0.5-0.5c0-0.276,0.224-0.5,0.5-0.5h3c0.276,0,0.5,0.224,0.5,0.5c0,0.276-0.224,0.5-0.5,0.5
		H10.5z"/>
	<path d="M15.5,12.5c-0.276,0-0.5-0.224-0.5-0.5c0-0.276,0.224-0.5,0.5-0.5h3c0.276,0,0.5,0.224,0.5,0.5c0,0.276-0.224,0.5-0.5,0.5
		H15.5z"/>
	<path d="M20.5,12.5c-0.276,0-0.5-0.224-0.5-0.5c0-0.276,0.224-0.5,0.5-0.5h3c0.276,0,0.5,0.224,0.5,0.5c0,0.276-0.224,0.5-0.5,0.5
		H20.5z"/>
</g>
</svg>
