<?xml version="1.0" encoding="utf-8"?>
<!-- Generator: Adobe Illustrator 22.1.0, SVG Export Plug-In . SVG Version: 6.00 Build 0)  -->
<svg version="1.1" id="Layer_1" xmlns="http://www.w3.org/2000/svg" xmlns:xlink="http://www.w3.org/1999/xlink" x="0px" y="0px"
	 viewBox="0 0 24 24" style="enable-background:new 0 0 24 24;" xml:space="preserve">
<g>
	<title>signal-medium</title>
	<path d="M1,18.5c-0.551,0-1-0.448-1-1v-5c0-0.551,0.449-1,1-1h2c0.551,0,1,0.449,1,1v5c0,0.552-0.449,1-1,1H1z M1,17.5h2v-5H1
		L1,17.5z"/>
	<path d="M6,18.5c-0.551,0-1-0.448-1-1v-8c0-0.551,0.449-1,1-1h2c0.551,0,1,0.449,1,1v8c0,0.552-0.449,1-1,1H6z M6,17.5h2v-8l-2,0
		L6,17.5z"/>
	<path d="M11,18.5c-0.551,0-1-0.448-1-1v-11c0-0.551,0.449-1,1-1h2c0.552,0,1,0.449,1,1v11c0,0.552-0.448,1-1,1H11z M11,17.5h2v-11
		l-2,0L11,17.5z"/>
	<path d="M15.5,18.5c-0.276,0-0.5-0.224-0.5-0.5s0.224-0.5,0.5-0.5h3c0.276,0,0.5,0.224,0.5,0.5s-0.224,0.5-0.5,0.5H15.5z"/>
	<path d="M20.5,18.5c-0.276,0-0.5-0.224-0.5-0.5s0.224-0.5,0.5-0.5h3c0.276,0,0.5,0.224,0.5,0.5s-0.224,0.5-0.5,0.5H20.5z"/>
</g>
</svg>
