<?xml version="1.0" encoding="utf-8"?>
<!-- Generator: Adobe Illustrator 22.1.0, SVG Export Plug-In . SVG Version: 6.00 Build 0)  -->
<svg version="1.1" id="Layer_1" xmlns="http://www.w3.org/2000/svg" xmlns:xlink="http://www.w3.org/1999/xlink" x="0px" y="0px"
	 viewBox="0 0 24 24" style="enable-background:new 0 0 24 24;" xml:space="preserve">
<title>photography-equipment-retro-film</title>
<g>
	<path d="M0.75,21C0.336,21,0,20.664,0,20.25s0.336-0.75,0.75-0.75H1.5v-15H0.75C0.336,4.5,0,4.164,0,3.75S0.336,3,0.75,3h12
		c0.414,0,0.75,0.336,0.75,0.75S13.164,4.5,12.75,4.5H12V6h10.5C23.327,6,24,6.673,24,7.5v6c0,0.414-0.336,0.75-0.75,0.75H22.5
		c-1.241,0-2.25,1.009-2.25,2.25v0.75c0,0.414-0.336,0.75-0.75,0.75H12v1.5h0.75c0.414,0,0.75,0.336,0.75,0.75S13.164,21,12.75,21
		H0.75z M10.5,19.5v-15H3v15H10.5z M18.75,16.5c0-2.068,1.682-3.75,3.75-3.75V7.5H12v9H18.75z"/>
</g>
</svg>
