<svg xmlns="http://www.w3.org/2000/svg" viewBox="0 0 24 24"><title>messages-people-person-bubble-oval-1</title><path d="M7.5,16A7.508,7.508,0,0,0,0,23.5a.5.5,0,0,0,.5.5h14a.5.5,0,0,0,.5-.5A7.508,7.508,0,0,0,7.5,16Z"/><circle cx="7.5" cy="10.75" r="4.75"/><circle cx="13.116" cy="5.5" r="1"/><circle cx="16.366" cy="5.5" r="1"/><circle cx="19.616" cy="5.5" r="1"/><path d="M18.5,0h-6A5.465,5.465,0,0,0,7.584,3.043a1,1,0,1,0,1.79.893A3.475,3.475,0,0,1,12.5,2h6a3.5,3.5,0,0,1,0,7h-1a1,1,0,0,0-.625.219l-.878.7A1,1,0,0,0,15,9H14a1,1,0,0,0,0,2v1a1,1,0,0,0,1.625.781L17.851,11H18.5a5.5,5.5,0,0,0,0-11Z"/></svg>