<svg xmlns="http://www.w3.org/2000/svg" viewBox="0 0 24 24"><title>messages-people-man-bubble-circle-alternate</title><path d="M16.5,0a7.678,7.678,0,0,0-6.162,3.007,1,1,0,0,0,1.6,1.195A5.67,5.67,0,0,1,16.5,2,5.274,5.274,0,0,1,22,7a5.005,5.005,0,0,1-3.359,4.605,1.008,1.008,0,0,0-.319.2c-.2.184-2.068,1.773-2.324,1.991,0-.366,0-.681,0-.858a1,1,0,0,0-.861-1,5.81,5.81,0,0,1-.789-.166A1,1,0,0,0,13.8,13.7l.2.054c0,.511,0,2.25,0,2.25a1,1,0,0,0,1.707.707c.267-.267,3.543-3.054,3.828-3.305A6.973,6.973,0,0,0,24,7,7.271,7.271,0,0,0,16.5,0Z"/><circle cx="13.116" cy="6.5" r="1"/><circle cx="16.366" cy="6.5" r="1"/><circle cx="19.616" cy="6.5" r="1"/><path d="M10.5,17.663V16.28a3.072,3.072,0,0,0,.991-2.43,1.826,1.826,0,0,0,.655-1.5,1.612,1.612,0,0,0-.22-.859,1.092,1.092,0,0,0-.245-.276,3.7,3.7,0,0,0,.3-2.338C11.638,7.492,9.891,7,8.5,7c-1.239,0-2.761.39-3.323,1.456a1.155,1.155,0,0,0-1.02.382c-.511.626-.1,1.654.2,2.367a1.093,1.093,0,0,0-.268.289,1.611,1.611,0,0,0-.229.875,1.807,1.807,0,0,0,.65,1.481A3.072,3.072,0,0,0,5.5,16.28v1.383C3.624,18.427,0,20.03,0,21v2.5a.5.5,0,0,0,.5.5H6.731l1.025-4.444a.25.25,0,0,1,.488,0L9.269,24H15.5a.5.5,0,0,0,.5-.5V21C16,20.03,12.376,18.427,10.5,17.663Z"/></svg>