<svg xmlns="http://www.w3.org/2000/svg" viewBox="0 0 24 24"><title>messages-people-woman-bubble-square</title><path d="M11.174,17.385h0A.255.255,0,0,1,11,17.161v-.678a5.244,5.244,0,0,0,3.015-.768.5.5,0,0,0,.132-.743c-.421-.5-.713-1.154-.842-3.06C13.059,8.277,10.607,7,8.5,7S3.943,8.277,3.7,11.912c-.129,1.9-.421,2.563-.842,3.06a.5.5,0,0,0,.131.743A5.259,5.259,0,0,0,6,16.483v.679a.254.254,0,0,1-.174.224C2.958,18.448,1.392,19.207.792,20.408A7.584,7.584,0,0,0,0,23.5a.5.5,0,0,0,.5.5H7.4a.25.25,0,0,0,.231-.346L6.14,20.049A.248.248,0,0,1,6.2,19.77a.251.251,0,0,1,.284-.039,4.679,4.679,0,0,0,4.21.037.25.25,0,0,1,.338.327L9.441,23.648A.251.251,0,0,0,9.67,24H16.5a.5.5,0,0,0,.5-.5,7.578,7.578,0,0,0-.792-3.091C15.607,19.2,14.042,18.446,11.174,17.385Z"/><path d="M22,0H9A2,2,0,0,0,7,2V5A1,1,0,0,0,9,5V2.25A.25.25,0,0,1,9.25,2h12.5a.25.25,0,0,1,.25.25v6.5a.25.25,0,0,1-.25.25H20.5a1,1,0,0,0-.707.293l-1.866,1.866a.25.25,0,0,1-.427-.177V10a1,1,0,0,0-1-1H15a1,1,0,0,0,0,2h.5v3a1,1,0,0,0,1.707.707L20.914,11H22a2,2,0,0,0,2-2V2A2,2,0,0,0,22,0Z"/><circle cx="12.502" cy="5.75" r="1"/><circle cx="15.752" cy="5.75" r="1"/><circle cx="19.003" cy="5.75" r="1"/></svg>