<svg xmlns="http://www.w3.org/2000/svg" viewBox="0 0 24 24"><title>messages-people-woman-bubble-oval</title><path d="M11.173,17.386h0A.255.255,0,0,1,11,17.162v-.678a5.251,5.251,0,0,0,3.015-.768.5.5,0,0,0,.132-.744c-.421-.5-.713-1.153-.842-3.059C13.059,8.278,10.607,7,8.5,7S3.943,8.278,3.7,11.913c-.129,1.9-.421,2.563-.842,3.059a.5.5,0,0,0,.131.744A5.267,5.267,0,0,0,6,16.484v.679a.257.257,0,0,1-.174.224c-2.868,1.062-4.434,1.82-5.034,3.021A7.587,7.587,0,0,0,0,23.5a.5.5,0,0,0,.5.5H7.4a.25.25,0,0,0,.231-.346L6.14,20.049A.248.248,0,0,1,6.2,19.77a.251.251,0,0,1,.284-.039,4.679,4.679,0,0,0,4.21.037.25.25,0,0,1,.338.327L9.441,23.648A.251.251,0,0,0,9.669,24H16.5a.5.5,0,0,0,.5-.5,7.581,7.581,0,0,0-.792-3.091C15.607,19.2,14.041,18.446,11.173,17.386Z"/><circle cx="13.116" cy="5.5" r="1"/><circle cx="16.366" cy="5.5" r="1"/><circle cx="19.616" cy="5.5" r="1"/><path d="M18.5,0h-6A5.524,5.524,0,0,0,7.137,4.31a1,1,0,1,0,1.953.429A3.512,3.512,0,0,1,12.5,2h6a3.5,3.5,0,1,1,0,7,1,1,0,0,0-.625.219l-.878.7A1,1,0,0,0,16,9H15a1,1,0,0,0,0,2v1a1,1,0,0,0,1.625.781l2.241-1.793A5.5,5.5,0,0,0,18.5,0Z"/></svg>