<svg xmlns="http://www.w3.org/2000/svg" viewBox="0 0 24 24"><title>messages-people-woman-bubble-1</title><circle cx="12.868" cy="6.249" r="1"/><circle cx="16.118" cy="6.249" r="1"/><circle cx="19.368" cy="6.249" r="1"/><path d="M17.892,0A5.314,5.314,0,0,0,14.28,1.327,5.489,5.489,0,0,0,8.489,2.775a1,1,0,0,0,1.45,1.377,3.5,3.5,0,0,1,4.105-.758,1,1,0,0,0,1.165-.2A3.469,3.469,0,0,1,17.892,2,4.026,4.026,0,0,1,22,6.2a3.853,3.853,0,0,1-.961,2.632A4.005,4.005,0,0,1,17.992,10a1,1,0,0,0-.826.436A2.267,2.267,0,0,1,15.492,11.5a1.98,1.98,0,0,1-.475-.058,1,1,0,0,0-.486,1.94,3.784,3.784,0,0,0,3.967-1.4,5.8,5.8,0,0,0,4.009-1.793A5.844,5.844,0,0,0,24,6.2,6.03,6.03,0,0,0,17.892,0Z"/><circle cx="16.252" cy="16.247" r="1.5"/><path d="M1.566,16.943a1,1,0,0,0,1.383-.3,5.649,5.649,0,0,0,.594-1.283,4.733,4.733,0,0,0,7.33,0,5.649,5.649,0,0,0,.594,1.283,1,1,0,1,0,1.68-1.084,4.563,4.563,0,0,1-.642-2.51h0V11.8a5.3,5.3,0,1,0-10.594,0V13.05a4.567,4.567,0,0,1-.642,2.511A1,1,0,0,0,1.566,16.943ZM7.208,15.1c-2.629,0-2.794-2.7-2.814-2.8a5.711,5.711,0,0,0,2.823-1.758,5.709,5.709,0,0,0,2.806,1.757C10,12.394,9.836,15.1,7.208,15.1Z"/><path d="M7.208,18A7.543,7.543,0,0,0,.023,23.358.5.5,0,0,0,.5,24H13.915a.5.5,0,0,0,.479-.642A7.545,7.545,0,0,0,7.208,18Z"/></svg>