<?xml version="1.0" encoding="utf-8"?>
<!-- Generator: Adobe Illustrator 22.1.0, SVG Export Plug-In . SVG Version: 6.00 Build 0)  -->
<svg version="1.1" id="Light" xmlns="http://www.w3.org/2000/svg" xmlns:xlink="http://www.w3.org/1999/xlink" x="0px" y="0px"
	 viewBox="0 0 24 24" style="enable-background:new 0 0 24 24;" xml:space="preserve">
<g>
	<title>single-woman-briefcase</title>
	<path d="M12.5,24c-0.827,0-1.5-0.673-1.5-1.5v-7c0-0.827,0.673-1.5,1.5-1.5h2.191l0.586-1.171C15.533,12.318,16.047,12,16.618,12
		h1.765c0.572,0,1.085,0.318,1.341,0.829L20.309,14H22.5c0.827,0,1.5,0.673,1.5,1.5v7c0,0.827-0.673,1.5-1.5,1.5H12.5z M12,22.5
		c0,0.276,0.224,0.5,0.5,0.5h10c0.276,0,0.5-0.224,0.5-0.5V19h-5v1c0,0.276-0.224,0.5-0.5,0.5S17,20.276,17,20v-1h-5V22.5z M23,18
		v-2.5c0-0.276-0.224-0.5-0.5-0.5h-10c-0.276,0-0.5,0.224-0.5,0.5V18H23z M19.191,14l-0.362-0.723
		C18.744,13.106,18.573,13,18.382,13h-1.763c-0.19,0-0.362,0.106-0.447,0.277L15.81,14H19.191z"/>
	<path d="M4.489,24C4.254,24,4.049,23.833,4,23.603L3.03,19H0.5c-0.155,0-0.303-0.073-0.398-0.197
		c-0.094-0.124-0.125-0.286-0.085-0.436l1.81-6.582c0.236-0.986,0.823-1.861,1.649-2.46C3.491,9.312,3.51,9.294,3.536,9.278
		c0.01-0.006,0.023-0.013,0.036-0.019C4.009,8.96,4.49,8.747,5.002,8.624c0.333-0.08,0.673-0.12,1.011-0.12
		c0.787,0,1.561,0.22,2.239,0.635c0.064,0.039,0.124,0.082,0.185,0.125l0.02,0.014c0.01,0.005,0.019,0.009,0.026,0.014
		c0.022,0.014,0.038,0.028,0.05,0.039c0.825,0.596,1.415,1.474,1.654,2.471l0.426,1.568c0.035,0.129,0.018,0.264-0.049,0.38
		c-0.066,0.116-0.174,0.199-0.303,0.234C10.219,13.994,10.174,14,10.128,14l0,0c-0.224,0-0.422-0.152-0.481-0.369l-0.429-1.582
		c-0.147-0.61-0.45-1.15-0.886-1.581l-1.909,3.006C6.33,13.619,6.172,13.706,6,13.706c-0.174,0-0.332-0.088-0.424-0.235
		l-1.891-3.015c-0.438,0.431-0.744,0.971-0.889,1.578L1.156,18h2.279c0.235,0,0.441,0.167,0.489,0.397L4.895,23h2.189l0.97-4.603
		C8.103,18.167,8.308,18,8.543,18H9.5c0.276,0,0.5,0.224,0.5,0.5S9.776,19,9.5,19H8.949l-0.97,4.603C7.93,23.833,7.724,24,7.489,24
		H4.489z M6.003,12.269l1.521-2.395C7.059,9.632,6.539,9.504,6.012,9.504c-0.26,0-0.521,0.031-0.777,0.093
		C4.98,9.657,4.733,9.749,4.498,9.87L6.003,12.269z"/>
	<path d="M6,8C3.813,8,2.02,6.22,2.002,4.033L2,4.008c0-1.899,1.344-3.547,3.195-3.927C5.458,0.027,5.729,0,6,0c2.206,0,4,1.794,4,4
		S8.206,8,6,8z M3.185,5.025C3.612,6.201,4.731,7,6,7s2.388-0.799,2.816-1.975C7.759,4.882,6.776,4.417,6,3.694
		C5.225,4.417,4.242,4.882,3.185,5.025z M6,1C4.346,1,3,2.346,3,4c0,0.015,0.001,0.03,0.001,0.046
		C4.011,3.92,4.955,3.418,5.622,2.647C5.715,2.54,5.853,2.478,6,2.478S6.286,2.54,6.379,2.647c0.667,0.771,1.611,1.272,2.62,1.399
		C9,4.028,9,4.01,9,3.993C8.999,2.454,7.841,1.172,6.307,1.016C6.205,1.005,6.102,1,6,1z"/>
</g>
</svg>
