<?xml version="1.0" encoding="utf-8"?>
<!-- Generator: Adobe Illustrator 22.1.0, SVG Export Plug-In . SVG Version: 6.00 Build 0)  -->
<svg version="1.1" id="Light" xmlns="http://www.w3.org/2000/svg" xmlns:xlink="http://www.w3.org/1999/xlink" x="0px" y="0px"
	 viewBox="0 0 24 24" style="enable-background:new 0 0 24 24;" xml:space="preserve">
<g>
	<title>single-woman-money</title>
	<path d="M17.5,11c-0.276,0-0.5-0.224-0.5-0.5V10h-1c-0.276,0-0.5-0.224-0.5-0.5S15.725,9,16,9h2.031
		c0.345,0,0.651-0.207,0.78-0.528c0.173-0.431-0.036-0.922-0.467-1.095l-2.063-0.826c-0.702-0.282-1.155-0.953-1.156-1.708
		c0-0.492,0.191-0.955,0.539-1.303C16.013,3.192,16.475,3,16.967,3H17V2.5C17,2.224,17.225,2,17.5,2S18,2.224,18,2.5V3h1
		c0.276,0,0.5,0.224,0.5,0.5S19.276,4,19,4h-2.033c-0.225,0-0.436,0.088-0.595,0.247c-0.159,0.159-0.247,0.371-0.246,0.596
		c0,0.345,0.207,0.652,0.528,0.781l2.063,0.826c0.457,0.184,0.814,0.534,1.007,0.987c0.193,0.453,0.198,0.954,0.015,1.409
		C19.457,9.546,18.787,9.999,18.032,10H18v0.5C18,10.776,17.776,11,17.5,11z"/>
	<path d="M17.5,13c-3.584,0-6.5-2.916-6.5-6.5S13.916,0,17.5,0S24,2.916,24,6.5S21.085,13,17.5,13z M17.5,1
		C14.468,1,12,3.467,12,6.5s2.467,5.5,5.5,5.5S23,9.533,23,6.5S20.533,1,17.5,1z"/>
	<path d="M6,8C4.042,8,2.385,6.597,2.06,4.664C2.058,4.66,2.048,4.626,2.047,4.582C2.016,4.37,2,4.179,2,4c0-2.206,1.794-4,4-4
		s4,1.794,4,4c0,0.183-0.016,0.377-0.049,0.593C9.95,4.612,9.947,4.633,9.942,4.65C9.615,6.599,7.963,8,6,8z M3.185,5.025
		C3.612,6.201,4.731,7,6,7c1.27,0,2.39-0.8,2.817-1.977C7.759,4.881,6.776,4.417,6.001,3.694C5.225,4.418,4.242,4.883,3.185,5.025z
		 M6,1C4.346,1,3,2.346,3,4c0,0.013,0,0.027,0,0.04c1.013-0.125,1.957-0.625,2.621-1.393C5.717,2.537,5.855,2.474,6,2.474
		c0.145,0,0.283,0.063,0.378,0.173C7.043,3.414,7.987,3.913,9,4.037C9,4.025,9,4.012,9,4C9,2.346,7.654,1,6,1z"/>
	<path d="M4.489,24C4.254,24,4.049,23.833,4,23.603L3.03,19H0.5c-0.155,0-0.304-0.073-0.398-0.197
		c-0.094-0.123-0.126-0.286-0.085-0.436l1.805-6.582C2.283,9.855,4.002,8.501,6,8.5c2.003,0,3.723,1.358,4.187,3.302l1.796,6.566
		c0.041,0.149,0.009,0.312-0.085,0.435S11.655,19,11.5,19H8.949l-0.97,4.603C7.93,23.833,7.724,24,7.489,24H4.489z M7.084,23
		l0.97-4.603C8.103,18.167,8.308,18,8.543,18h2.302l-1.627-5.95c-0.146-0.612-0.449-1.154-0.884-1.586l-1.912,3.011
		C6.33,13.619,6.172,13.706,6,13.706c-0.174,0-0.332-0.088-0.424-0.235l-1.894-3.021c-0.44,0.433-0.746,0.975-0.891,1.583L1.156,18
		h2.28c0.235,0,0.441,0.167,0.489,0.397L4.895,23H7.084z M6.003,12.269l1.523-2.397C7.056,9.628,6.535,9.5,6.004,9.5L6.001,9.25V9.5
		c-0.525,0-1.04,0.125-1.506,0.364L6.003,12.269z"/>
</g>
</svg>
