<?xml version="1.0" encoding="utf-8"?>
<!-- Generator: Adobe Illustrator 22.1.0, SVG Export Plug-In . SVG Version: 6.00 Build 0)  -->
<svg version="1.1" id="Light" xmlns="http://www.w3.org/2000/svg" xmlns:xlink="http://www.w3.org/1999/xlink" x="0px" y="0px"
	 viewBox="0 0 24 24" style="enable-background:new 0 0 24 24;" xml:space="preserve">
<g>
	<title>single-woman-shopping-bag</title>
	<path d="M13.118,24c-0.827,0-1.5-0.673-1.5-1.5c0-0.055,0.003-0.111,0.009-0.167l0.778-6.999C12.489,14.574,13.13,14,13.895,14
		H14.5v-1c0-1.654,1.346-3,3-3s3,1.346,3,3v1h0.605c0.766,0,1.406,0.574,1.491,1.335l0.778,7c0.091,0.822-0.504,1.565-1.326,1.656
		C21.995,23.997,21.939,24,21.884,24H13.118z M13.895,15c-0.255,0-0.469,0.191-0.497,0.445l-0.778,7
		c-0.002,0.019-0.003,0.037-0.003,0.055c0,0.276,0.224,0.5,0.5,0.5h8.766c0.019,0,0.037-0.001,0.055-0.003
		c0.132-0.015,0.251-0.08,0.335-0.185s0.122-0.235,0.107-0.367l-0.778-7C21.574,15.191,21.361,15,21.106,15H20.5v2.5
		c0,0.276-0.224,0.5-0.5,0.5s-0.5-0.224-0.5-0.5V15h-4v2.5c0,0.276-0.224,0.5-0.5,0.5s-0.5-0.224-0.5-0.5V15H13.895z M19.5,14v-1
		c0-1.103-0.897-2-2-2s-2,0.897-2,2v1H19.5z"/>
	<path d="M4.99,24c-0.235,0-0.441-0.167-0.489-0.397L3.53,19H1.001c-0.155,0-0.303-0.073-0.398-0.197
		c-0.094-0.124-0.126-0.286-0.085-0.436l1.81-6.582c0.237-0.986,0.823-1.861,1.65-2.46c0.013-0.014,0.033-0.032,0.06-0.049
		c0.01-0.006,0.022-0.012,0.035-0.018C4.509,8.96,4.99,8.747,5.502,8.624c0.333-0.08,0.673-0.12,1.011-0.12
		c0.787,0,1.561,0.22,2.239,0.635c0.065,0.04,0.126,0.083,0.187,0.126l0.017,0.012c0.01,0.005,0.019,0.009,0.026,0.014
		c0.022,0.014,0.038,0.028,0.05,0.039c0.825,0.596,1.415,1.474,1.654,2.471l0.426,1.568c0.035,0.129,0.018,0.264-0.049,0.38
		c-0.066,0.116-0.174,0.199-0.303,0.234C10.719,13.994,10.674,14,10.629,14c0,0,0,0,0,0c-0.224,0-0.422-0.152-0.481-0.369
		l-0.429-1.582c-0.147-0.61-0.451-1.15-0.886-1.581l-1.909,3.006c-0.091,0.143-0.245,0.229-0.415,0.232
		c-0.011,0-0.024,0.001-0.029,0.001c-0.162,0-0.308-0.086-0.402-0.236l-1.891-3.015c-0.438,0.431-0.744,0.971-0.889,1.578L1.657,18
		h2.279c0.235,0,0.441,0.167,0.489,0.397L5.395,23h2.189l0.97-4.603C8.603,18.167,8.809,18,9.044,18h0.957
		c0.276,0,0.5,0.224,0.5,0.5s-0.224,0.5-0.5,0.5H9.449l-0.97,4.603C8.43,23.833,8.225,24,7.99,24H4.99z M6.503,12.269l1.521-2.395
		C7.559,9.632,7.039,9.504,6.512,9.504c-0.26,0-0.521,0.031-0.777,0.093C5.48,9.657,5.233,9.749,4.998,9.87L6.503,12.269z"/>
	<path d="M6.501,8C4.314,8,2.52,6.22,2.502,4.033L2.501,4.008c0-1.899,1.344-3.547,3.195-3.927C5.959,0.027,6.23,0,6.501,0
		c2.206,0,4,1.794,4,4S8.706,8,6.501,8z M3.685,5.025C4.112,6.201,5.232,7,6.501,7s2.388-0.799,2.816-1.975
		c-1.057-0.143-2.04-0.608-2.816-1.331C5.725,4.417,4.742,4.882,3.685,5.025z M6.501,1c-1.654,0-3,1.346-3,3
		c0,0.015,0.001,0.03,0.001,0.046C4.511,3.92,5.455,3.418,6.122,2.647C6.215,2.54,6.353,2.478,6.501,2.478S6.786,2.54,6.879,2.647
		c0.667,0.771,1.611,1.272,2.62,1.399C9.5,4.028,9.5,4.01,9.5,3.993C9.499,2.454,8.341,1.172,6.807,1.016
		C6.706,1.005,6.603,1,6.501,1z"/>
</g>
</svg>
