<?xml version="1.0" encoding="utf-8"?>
<!-- Generator: Adobe Illustrator 22.1.0, SVG Export Plug-In . SVG Version: 6.00 Build 0)  -->
<svg version="1.1" id="Light" xmlns="http://www.w3.org/2000/svg" xmlns:xlink="http://www.w3.org/1999/xlink" x="0px" y="0px"
	 viewBox="0 0 24 24" style="enable-background:new 0 0 24 24;" xml:space="preserve">
<g>
	<title>single-woman-idea</title>
	<path d="M18.5,14.5c-0.276,0-0.5-0.224-0.5-0.5v-1h-0.5c-0.827,0-1.5-0.673-1.5-1.5v-1.106c-1.829-0.934-3.002-2.841-3-4.904
		c0.001-1.469,0.575-2.849,1.615-3.887c1.039-1.037,2.418-1.607,3.885-1.607c3.038,0.003,5.503,2.472,5.5,5.505
		c-0.002,2.058-1.174,3.961-3,4.894V11.5c0,0.827-0.673,1.5-1.5,1.5H19v1C19,14.276,18.776,14.5,18.5,14.5z M17,11.5
		c0,0.276,0.224,0.5,0.5,0.5h2c0.276,0,0.5-0.224,0.5-0.5v-1h-3V11.5z M18.504,0.996c-1.205,0-2.334,0.467-3.183,1.315
		C14.471,3.16,14.002,4.289,14,5.491c-0.001,1.683,0.961,3.247,2.459,4.011C16.472,9.501,16.486,9.5,16.5,9.5h4
		c0.014,0,0.028,0.001,0.041,0.002C22.036,8.74,22.999,7.179,23,5.5C23.003,3.018,20.986,0.998,18.504,0.996z"/>
	<path d="M6,8C4.042,8,2.385,6.597,2.06,4.664C2.058,4.66,2.048,4.626,2.047,4.582C2.016,4.37,2,4.179,2,4c0-2.206,1.794-4,4-4
		s4,1.794,4,4c0,0.183-0.016,0.377-0.049,0.593C9.95,4.613,9.946,4.635,9.942,4.652C9.614,6.6,7.962,8,6,8z M3.185,5.025
		C3.612,6.201,4.731,7,6,7c1.27,0,2.39-0.8,2.817-1.977C7.759,4.881,6.776,4.417,6.001,3.694C5.225,4.418,4.242,4.883,3.185,5.025z
		 M6,1C4.346,1,3,2.346,3,4c0,0.013,0,0.027,0,0.04c1.013-0.125,1.957-0.625,2.621-1.393C5.717,2.537,5.855,2.474,6,2.474
		c0.145,0,0.283,0.063,0.378,0.173C7.043,3.414,7.987,3.913,9,4.037C9,4.025,9,4.013,9,4C9,2.346,7.654,1,6,1z"/>
	<path d="M4.489,24C4.254,24,4.049,23.833,4,23.603L3.03,19H0.5c-0.155,0-0.304-0.073-0.398-0.197
		c-0.094-0.123-0.126-0.286-0.085-0.436l1.805-6.582C2.283,9.855,4.002,8.501,6,8.5c2.003,0,3.723,1.358,4.187,3.302l1.796,6.566
		c0.041,0.149,0.009,0.312-0.085,0.435S11.655,19,11.5,19H8.949l-0.97,4.603C7.93,23.833,7.724,24,7.489,24H4.489z M7.084,23
		l0.97-4.603C8.103,18.167,8.308,18,8.543,18h2.302l-1.627-5.95c-0.146-0.612-0.449-1.154-0.884-1.586l-1.912,3.011
		C6.33,13.619,6.172,13.706,6,13.706c-0.174,0-0.332-0.088-0.424-0.235l-1.894-3.021c-0.44,0.433-0.746,0.975-0.891,1.583L1.156,18
		h2.28c0.235,0,0.441,0.167,0.489,0.397L4.895,23H7.084z M6.003,12.269l1.523-2.397C7.056,9.628,6.535,9.5,6.004,9.5L6.001,9.25V9.5
		c-0.525,0-1.04,0.125-1.506,0.364L6.003,12.269z"/>
</g>
</svg>
