<svg xmlns="http://www.w3.org/2000/svg" viewBox="0 0 24 24"><title>laptop-settings</title><path d="M9.277,15.132a2.244,2.244,0,0,1-1.218-1.25.492.492,0,0,0-.47-.36H.509a.478.478,0,0,0-.41.22.467.467,0,0,0-.05.47,5.431,5.431,0,0,0,5,3.31H9.011a.251.251,0,0,0,.25-.254c0-.081,0-.162,0-.246A8.909,8.909,0,0,1,9.412,15.4.25.25,0,0,0,9.277,15.132Z"/><path d="M3.509,12.032a1,1,0,0,0,1-1v-8a1,1,0,0,1,1-1h12a1,1,0,0,1,1,1V8.326a.249.249,0,0,0,.222.248,8.216,8.216,0,0,1,1.455.3.25.25,0,0,0,.323-.239v-5.6a3.009,3.009,0,0,0-3-3h-12a3.009,3.009,0,0,0-3,3v8A1,1,0,0,0,3.509,12.032Z"/><circle cx="17.74" cy="17.001" r="1.5"/><path d="M22.521,17.314a.462.462,0,0,1,0-.626l.987-1.064a1.782,1.782,0,0,0-1.7-2.953L20.4,13a.457.457,0,0,1-.534-.312L19.44,11.3a1.775,1.775,0,0,0-3.4,0l-.425,1.391a.452.452,0,0,1-.533.312l-1.411-.327a1.783,1.783,0,0,0-1.7,2.953l.988,1.064a.462.462,0,0,1,0,.626l-.988,1.065a1.783,1.783,0,0,0,1.7,2.953l1.412-.327a.453.453,0,0,1,.532.31l.425,1.393a1.745,1.745,0,0,0,1.7,1.261h0a1.747,1.747,0,0,0,1.7-1.261l.423-1.393a.449.449,0,0,1,.534-.31l1.411.327a1.783,1.783,0,0,0,1.7-2.953ZM17.74,20a3,3,0,1,1,3-3A3,3,0,0,1,17.74,20Z"/></svg>