<svg xmlns="http://www.w3.org/2000/svg" viewBox="0 0 24 24"><title>laptop-star</title><path d="M9.6,15.485a.25.25,0,0,0-.144-.3,2.368,2.368,0,0,1-1.407-1.337.492.492,0,0,0-.47-.36H.5a.478.478,0,0,0-.41.22.467.467,0,0,0-.05.47,5.43,5.43,0,0,0,5,3.31H9.437a.249.249,0,0,0,.205-.107.251.251,0,0,0,.03-.23A2.727,2.727,0,0,1,9.6,15.485Z"/><path d="M3.5,12a1,1,0,0,0,1-1V3a1,1,0,0,1,1-1h12a1,1,0,0,1,1,1V9.543a.221.221,0,0,0,.131.2,2.726,2.726,0,0,1,1.409,1.4.239.239,0,0,0,.458-.081c0-.02,0-.039,0-.059V3a3.009,3.009,0,0,0-3-3H5.5a3.009,3.009,0,0,0-3,3v8A1,1,0,0,0,3.5,12Z"/><path d="M23.609,17.139a1.264,1.264,0,0,0,.3-1.378A1.233,1.233,0,0,0,22.74,15h-2.5a.249.249,0,0,1-.229-.151l-1.344-3.116-.013-.028a1.294,1.294,0,0,0-2.318.028L14.99,14.848a.25.25,0,0,1-.23.151h-2.5a1.228,1.228,0,0,0-1.166.76,1.268,1.268,0,0,0,.319,1.4l2.194,1.955a.252.252,0,0,1,.063.287l-1.223,2.814a1.253,1.253,0,0,0,.314,1.451,1.278,1.278,0,0,0,1.506.166l3.112-1.752a.249.249,0,0,1,.245,0l3.113,1.752a1.273,1.273,0,0,0,1.506-.166,1.254,1.254,0,0,0,.315-1.45L21.334,19.4a.251.251,0,0,1,.063-.287Z"/></svg>