<svg xmlns="http://www.w3.org/2000/svg" viewBox="0 0 24 24"><title>laptop-clock</title><path d="M9.594,15.238a2.428,2.428,0,0,1-1.543-1.387.492.492,0,0,0-.47-.36H.5a.478.478,0,0,0-.41.22.467.467,0,0,0-.05.47,5.43,5.43,0,0,0,5,3.31H9.255a.249.249,0,0,0,.249-.242,7.839,7.839,0,0,1,.245-1.714A.25.25,0,0,0,9.594,15.238Z"/><path d="M3.5,12a1,1,0,0,0,1-1V3a1,1,0,0,1,1-1h12a1,1,0,0,1,1,1V9.344a.249.249,0,0,0,.211.247,7.828,7.828,0,0,1,1.454.371.251.251,0,0,0,.335-.236V3a3.009,3.009,0,0,0-3-3H5.5a3.009,3.009,0,0,0-3,3v8A1,1,0,0,0,3.5,12Z"/><path d="M17.5,11A6.5,6.5,0,1,0,24,17.5,6.508,6.508,0,0,0,17.5,11Zm0,11A4.5,4.5,0,1,1,22,17.5,4.5,4.5,0,0,1,17.5,22Z"/><path d="M19.5,16.751h-1a.25.25,0,0,1-.25-.25v-2a.75.75,0,0,0-1.5,0v3a.75.75,0,0,0,.75.75h2a.75.75,0,0,0,0-1.5Z"/></svg>