<svg xmlns="http://www.w3.org/2000/svg" viewBox="0 0 24 24"><title>laptop-lock-2</title><path d="M12.221,15.3a3.981,3.981,0,0,1-1.22.2,3.082,3.082,0,0,1-2.95-1.65.492.492,0,0,0-.47-.36H.5a.478.478,0,0,0-.41.22.467.467,0,0,0-.05.47,5.43,5.43,0,0,0,5,3.31l7.209.009a.251.251,0,0,0,.251-.25V16a1.95,1.95,0,0,1,.042-.409.25.25,0,0,0-.322-.289Z"/><path d="M3.5,12a1,1,0,0,0,1-1V3a1,1,0,0,1,1-1h12a1,1,0,0,1,1,1V8.757a.25.25,0,0,0,.264.25C18.843,9,18.922,9,19,9a5.227,5.227,0,0,1,1.193.139A.251.251,0,0,0,20.5,8.9V3a3.009,3.009,0,0,0-3-3H5.5a3.009,3.009,0,0,0-3,3v8A1,1,0,0,0,3.5,12Z"/><path d="M22.715,15.516a.25.25,0,0,1-.214-.248V14.251a3.5,3.5,0,0,0-7,0v1.017a.251.251,0,0,1-.214.248A1.5,1.5,0,0,0,14,17v5.5A1.5,1.5,0,0,0,15.5,24h7A1.5,1.5,0,0,0,24,22.5V17A1.5,1.5,0,0,0,22.715,15.516ZM19,21.251a1,1,0,1,1,1-1A1,1,0,0,1,19,21.251Zm1.5-6a.25.25,0,0,1-.25.25h-2.5a.25.25,0,0,1-.25-.25v-1a1.5,1.5,0,0,1,3,0Z"/></svg>