<?xml version="1.0" encoding="utf-8"?>
<!-- Generator: Adobe Illustrator 22.1.0, SVG Export Plug-In . SVG Version: 6.00 Build 0)  -->
<svg version="1.1" id="Light" xmlns="http://www.w3.org/2000/svg" xmlns:xlink="http://www.w3.org/1999/xlink" x="0px" y="0px"
	 viewBox="0 0 24 24" style="enable-background:new 0 0 24 24;" xml:space="preserve">
<g>
	<title>single-neutral-actions-alarm</title>
	<path d="M13.5,21.001c-0.211-0.003-0.41-0.068-0.578-0.188c-0.217-0.156-0.36-0.387-0.403-0.65
		c-0.043-0.264,0.02-0.529,0.176-0.745c0.523-0.646,0.806-1.441,0.806-2.248v-1.667c0-0.147,0.007-0.298,0.022-0.447
		c0.118-1.197,0.695-2.275,1.625-3.038c0.814-0.668,1.798-1.021,2.845-1.021c0.149,0,0.301,0.008,0.451,0.022
		c2.355,0.293,4.097,2.296,4.058,4.659v1.492c0,0.808,0.28,1.599,0.788,2.226c0.137,0.189,0.203,0.385,0.206,0.595
		c0.003,0.268-0.098,0.52-0.284,0.711c-0.187,0.191-0.437,0.298-0.704,0.301c-0.001,0-0.002,0-0.003,0H13.5z M22.498,20.001
		c-0.643-0.786-0.999-1.796-0.998-2.833v-1.5c0.031-1.858-1.331-3.428-3.168-3.657c-0.108-0.01-0.224-0.016-0.338-0.016
		c-1.804,0-3.299,1.357-3.476,3.157C14.505,15.268,14.5,15.385,14.5,15.5v1.668c0,1.025-0.351,2.028-0.99,2.829L22.498,20.001z"/>
	<path d="M17.998,24.001c-0.326,0-0.648-0.089-0.931-0.257c-0.42-0.249-0.717-0.647-0.837-1.12
		c-0.033-0.129-0.014-0.264,0.054-0.379c0.068-0.115,0.177-0.196,0.307-0.229C16.63,22.006,16.672,22,16.715,22
		c0.229,0,0.427,0.155,0.484,0.377C17.292,22.744,17.622,23,18.001,23c0.068,0,0.137-0.009,0.204-0.025
		c0.293-0.075,0.522-0.304,0.597-0.598C18.858,22.156,19.056,22,19.285,22c0.043,0,0.085,0.006,0.127,0.017
		c0.127,0.032,0.236,0.114,0.304,0.229c0.068,0.115,0.088,0.25,0.054,0.379c-0.165,0.649-0.671,1.155-1.319,1.32
		C18.303,23.982,18.15,24.001,17.998,24.001z"/>
	<path d="M1,17.001c-0.132,0-0.262-0.054-0.355-0.148C0.55,16.756,0.499,16.629,0.5,16.495c0.014-1.215,0.263-2.396,0.74-3.513
		c0.55-1.103,2.317-1.753,4.764-2.652l0.634-0.234c0.015-0.01,0.081-0.089,0.131-0.295c0.13-0.536,0.008-1.209-0.063-1.323
		C5.638,7.327,5.102,5.755,5.242,4.174C5.158,3.167,5.465,2.183,6.109,1.402c0.655-0.794,1.58-1.286,2.605-1.385
		c0.091-0.009,0.182-0.014,0.274-0.016c1.049,0.025,2.011,0.45,2.721,1.195c0.71,0.746,1.087,1.723,1.062,2.752
		c-0.002,0.075-0.006,0.15-0.012,0.225c0.141,1.58-0.394,3.153-1.471,4.318c-0.061,0.101-0.182,0.775-0.052,1.309
		c0.05,0.207,0.116,0.286,0.135,0.297l0.571,0.21c0.616,0.226,1.198,0.44,1.733,0.649c0.125,0.048,0.223,0.143,0.276,0.265
		c0.054,0.122,0.056,0.258,0.008,0.383c-0.075,0.193-0.258,0.318-0.466,0.318c-0.062,0-0.123-0.011-0.181-0.034
		c-0.522-0.204-1.096-0.415-1.704-0.638l-0.587-0.216c-0.258-0.096-0.598-0.346-0.757-0.997c-0.173-0.709-0.087-1.81,0.286-2.221
		c0.897-0.971,1.337-2.281,1.209-3.593c-0.003-0.031-0.003-0.063,0-0.095c0.007-0.069,0.01-0.136,0.012-0.204
		c0.019-0.762-0.26-1.486-0.786-2.038C10.459,1.334,9.75,1.019,8.988,1C8.945,1.002,8.877,1.006,8.81,1.013
		C8.051,1.086,7.366,1.45,6.881,2.038c-0.485,0.588-0.712,1.33-0.639,2.089c0.003,0.033,0.003,0.065,0,0.097
		c-0.127,1.313,0.313,2.621,1.209,3.59c0.376,0.414,0.462,1.515,0.29,2.225c-0.159,0.651-0.498,0.901-0.755,0.996L6.35,11.268
		c-2.062,0.758-3.842,1.412-4.203,2.134c-0.349,0.818-0.56,1.695-0.626,2.598H12c0.276,0,0.5,0.224,0.5,0.5s-0.224,0.5-0.5,0.5H1z"
		/>
</g>
</svg>
