<?xml version="1.0" encoding="utf-8"?>
<!-- Generator: Adobe Illustrator 22.1.0, SVG Export Plug-In . SVG Version: 6.00 Build 0)  -->
<svg version="1.1" id="Light" xmlns="http://www.w3.org/2000/svg" xmlns:xlink="http://www.w3.org/1999/xlink" x="0px" y="0px"
	 viewBox="0 0 24 24" style="enable-background:new 0 0 24 24;" xml:space="preserve">
<g>
	<title>single-neutral-actions-graduate</title>
	<path d="M16.501,24.006c-0.16,0-0.317-0.031-0.467-0.091l-3.237-1.195c-0.49-0.196-0.8-0.655-0.798-1.172v-2.798l-2-0.706v2.956
		c0,0.276-0.224,0.5-0.5,0.5S9,21.277,9,21.001v-3.663c0-0.013,0.001-0.027,0.004-0.042c0.004-0.045,0.014-0.089,0.029-0.131
		c0.007-0.02,0.015-0.035,0.023-0.051c0.018-0.036,0.041-0.071,0.069-0.102c0.013-0.015,0.024-0.028,0.037-0.04
		c0.033-0.031,0.071-0.057,0.112-0.078c0.001-0.001,0.03-0.016,0.03-0.016c0.004-0.002,6.643-2.643,6.643-2.643
		c0.178-0.07,0.364-0.106,0.554-0.106s0.376,0.036,0.553,0.106l6.011,2.392c0.201,0.08,0.358,0.242,0.43,0.447
		c0.138,0.39-0.067,0.819-0.457,0.957L21,18.751v2.8c0.003,0.514-0.305,0.972-0.785,1.164l-3.263,1.205
		C16.813,23.977,16.659,24.006,16.501,24.006z M13,21.552c0,0.107,0.06,0.197,0.157,0.236l3.237,1.195
		c0.04,0.016,0.074,0.023,0.107,0.023c0.031,0,0.062-0.006,0.091-0.018l3.263-1.205C19.941,21.748,20,21.657,20,21.554v-2.45
		l-3,1.059c-0.161,0.056-0.329,0.085-0.5,0.085s-0.339-0.029-0.5-0.085l-3-1.059V21.552z M16.333,19.22
		c0.053,0.019,0.11,0.029,0.167,0.029s0.113-0.01,0.166-0.028l5.41-1.909l-5.392-2.145c-0.059-0.023-0.121-0.035-0.184-0.035
		s-0.125,0.012-0.185,0.035l-5.392,2.144L16.333,19.22z"/>
	<path d="M0.5,17.001c-0.132,0-0.262-0.054-0.355-0.148C0.049,16.757-0.002,16.63,0,16.496c0.014-1.215,0.263-2.396,0.74-3.513
		c0.55-1.104,2.318-1.753,4.765-2.653l0.633-0.233c0.015-0.01,0.081-0.089,0.131-0.295c0.13-0.536,0.008-1.209-0.063-1.323
		C5.138,7.327,4.602,5.755,4.742,4.175C4.567,2.081,6.12,0.219,8.213,0.018c0.091-0.009,0.182-0.014,0.274-0.016
		c1.049,0.025,2.011,0.45,2.721,1.195c0.71,0.746,1.087,1.723,1.061,2.752c-0.002,0.075-0.006,0.15-0.012,0.225
		c0.141,1.58-0.394,3.152-1.471,4.318c-0.061,0.101-0.182,0.775-0.052,1.309c0.05,0.207,0.116,0.286,0.135,0.297l0.656,0.242
		c1.981,0.729,3.545,1.305,4.326,2.078c0.095,0.094,0.148,0.219,0.148,0.353c0.001,0.134-0.051,0.259-0.145,0.354
		c-0.094,0.096-0.22,0.148-0.355,0.148l0,0c-0.133,0-0.258-0.051-0.352-0.145c-0.627-0.621-2.175-1.19-3.968-1.85l-0.662-0.244
		c-0.258-0.095-0.597-0.346-0.756-0.997C9.59,9.329,9.676,8.228,10.05,7.817c0.897-0.971,1.337-2.281,1.208-3.593
		c-0.003-0.033-0.003-0.065,0-0.098c0.006-0.067,0.01-0.135,0.012-0.202c0.019-0.762-0.26-1.486-0.786-2.038
		C9.958,1.334,9.249,1.02,8.487,1.001c-0.043,0.002-0.11,0.006-0.178,0.012C7.55,1.086,6.865,1.451,6.38,2.039
		c-0.485,0.588-0.712,1.33-0.639,2.089c0.003,0.033,0.003,0.065,0,0.097c-0.127,1.313,0.313,2.621,1.209,3.59
		c0.376,0.414,0.462,1.515,0.29,2.225c-0.159,0.651-0.498,0.901-0.755,0.996L5.85,11.269c-2.062,0.758-3.842,1.412-4.203,2.134
		c-0.349,0.818-0.561,1.695-0.626,2.598H7.5c0.276,0,0.5,0.224,0.5,0.5s-0.224,0.5-0.5,0.5H0.5z"/>
</g>
</svg>
