<?xml version="1.0" encoding="utf-8"?>
<!-- Generator: Adobe Illustrator 22.1.0, SVG Export Plug-In . SVG Version: 6.00 Build 0)  -->
<svg version="1.1" id="Light" xmlns="http://www.w3.org/2000/svg" xmlns:xlink="http://www.w3.org/1999/xlink" x="0px" y="0px"
	 viewBox="0 0 24 24" style="enable-background:new 0 0 24 24;" xml:space="preserve">
<g>
	<title>single-neutral-actions-heart</title>
	<path d="M17.501,23.889c-0.259,0-0.504-0.099-0.691-0.278l-4.783-4.988c-1.069-1.069-1.333-2.703-0.654-4.063
		c0.422-0.843,1.147-1.47,2.04-1.767c0.362-0.121,0.738-0.182,1.115-0.182c0.549,0,1.079,0.126,1.576,0.375
		c0.34,0.17,0.648,0.393,0.915,0.66l0.481,0.481l0.481-0.482c0.666-0.666,1.551-1.033,2.493-1.033c0.942,0,1.828,0.367,2.493,1.033
		c0.268,0.268,0.49,0.576,0.66,0.916c0.679,1.36,0.414,2.995-0.661,4.07l-4.746,4.949c-0.185,0.193-0.434,0.302-0.701,0.308
		C17.521,23.889,17.503,23.889,17.501,23.889z M14.528,13.612c-0.271,0-0.54,0.044-0.8,0.13c-0.64,0.213-1.159,0.663-1.462,1.266
		c-0.486,0.974-0.296,2.145,0.474,2.915l4.76,4.965l4.753-4.956c0.775-0.776,0.967-1.949,0.48-2.923
		c-0.121-0.243-0.281-0.464-0.473-0.656c-0.477-0.477-1.112-0.74-1.786-0.74s-1.309,0.263-1.786,0.74l-0.835,0.835
		c-0.091,0.091-0.22,0.144-0.354,0.144s-0.262-0.052-0.354-0.144l-0.835-0.835c-0.192-0.192-0.412-0.351-0.656-0.473
		C15.301,13.703,14.921,13.612,14.528,13.612z"/>
	<path d="M0.501,17.112c-0.132,0-0.262-0.054-0.355-0.148C0.051,16.868,0,16.741,0.001,16.607c0.014-1.215,0.263-2.396,0.74-3.513
		c0.55-1.103,2.315-1.752,4.758-2.651l0.639-0.236c0.013-0.009,0.078-0.089,0.128-0.296c0.129-0.535,0.008-1.207-0.063-1.32
		C5.137,7.437,4.602,5.865,4.743,4.284C4.568,2.192,6.121,0.33,8.214,0.129C8.306,0.12,8.397,0.115,8.489,0.113
		c1.049,0.025,2.01,0.449,2.72,1.194c0.71,0.745,1.087,1.722,1.062,2.751c-0.002,0.075-0.006,0.151-0.012,0.226
		c0.141,1.58-0.394,3.153-1.471,4.319c-0.061,0.102-0.183,0.776-0.052,1.31c0.05,0.206,0.116,0.284,0.135,0.296l1.303,0.48
		c0.259,0.096,0.391,0.384,0.296,0.642c-0.073,0.196-0.261,0.327-0.469,0.327c0,0,0,0,0,0c-0.059,0-0.117-0.01-0.173-0.031
		l-1.307-0.482c-0.257-0.095-0.597-0.345-0.756-0.995c-0.173-0.71-0.088-1.811,0.286-2.223c0.897-0.972,1.337-2.281,1.208-3.594
		c-0.003-0.032-0.003-0.064,0-0.095c0.007-0.069,0.011-0.137,0.013-0.205c0.018-0.762-0.261-1.485-0.786-2.037
		C9.96,1.445,9.251,1.131,8.489,1.112c-0.043,0.002-0.112,0.006-0.18,0.012C6.744,1.275,5.592,2.672,5.743,4.237
		c0.003,0.033,0.003,0.065,0,0.097C5.614,5.647,6.054,6.956,6.949,7.925c0.374,0.408,0.461,1.508,0.29,2.22
		c-0.157,0.653-0.495,0.904-0.752,1l-0.642,0.237c-2.059,0.758-3.837,1.411-4.197,2.132c-0.349,0.818-0.561,1.695-0.626,2.598h7.979
		c0.276,0,0.5,0.224,0.5,0.5s-0.224,0.5-0.5,0.5H0.501z"/>
</g>
</svg>
