<?xml version="1.0" encoding="utf-8"?>
<!-- Generator: Adobe Illustrator 22.1.0, SVG Export Plug-In . SVG Version: 6.00 Build 0)  -->
<svg version="1.1" id="Light" xmlns="http://www.w3.org/2000/svg" xmlns:xlink="http://www.w3.org/1999/xlink" x="0px" y="0px"
	 viewBox="0 0 24 24" style="enable-background:new 0 0 24 24;" xml:space="preserve">
<g>
	<title>single-neutral-actions-text</title>
	<path d="M12.5,24c-0.827,0-1.5-0.673-1.5-1.5v-10c0-0.827,0.673-1.5,1.5-1.5h10c0.827,0,1.5,0.673,1.5,1.5v10
		c0,0.827-0.673,1.5-1.5,1.5H12.5z M12.5,12c-0.276,0-0.5,0.224-0.5,0.5v10c0,0.276,0.224,0.5,0.5,0.5h10c0.276,0,0.5-0.224,0.5-0.5
		v-10c0-0.276-0.224-0.5-0.5-0.5H12.5z"/>
	<path d="M14.5,15c-0.276,0-0.5-0.224-0.5-0.5s0.224-0.5,0.5-0.5h6c0.276,0,0.5,0.224,0.5,0.5S20.776,15,20.5,15H14.5z"/>
	<path d="M14.5,18c-0.276,0-0.5-0.224-0.5-0.5s0.224-0.5,0.5-0.5h6c0.276,0,0.5,0.224,0.5,0.5S20.776,18,20.5,18H14.5z"/>
	<path d="M14.5,21c-0.276,0-0.5-0.224-0.5-0.5s0.224-0.5,0.5-0.5h2.25c0.276,0,0.5,0.224,0.5,0.5s-0.224,0.5-0.5,0.5H14.5z"/>
	<path d="M0.5,17c-0.132,0-0.262-0.054-0.355-0.148C0.05,16.756-0.002,16.629,0,16.495c0.014-1.215,0.263-2.396,0.74-3.513
		c0.55-1.103,2.317-1.753,4.764-2.652l0.634-0.234c0.015-0.01,0.081-0.089,0.131-0.295c0.13-0.536,0.008-1.209-0.063-1.323
		C5.138,7.326,4.602,5.754,4.742,4.174C4.658,3.166,4.965,2.182,5.609,1.401c0.655-0.794,1.58-1.286,2.605-1.385
		c0.091-0.009,0.182-0.014,0.274-0.016c1.049,0.025,2.011,0.45,2.721,1.195s1.087,1.723,1.061,2.752
		c-0.002,0.075-0.006,0.15-0.012,0.225c0.139,1.553-0.378,3.104-1.421,4.263c-0.146,0.312-0.2,0.657-0.156,1
		c0.017,0.132-0.018,0.264-0.1,0.369C10.5,9.911,10.383,9.979,10.25,9.996C10.228,9.999,10.207,10,10.186,10
		C9.935,10,9.722,9.813,9.69,9.564c-0.073-0.565,0.025-1.132,0.285-1.64c0.02-0.04,0.047-0.078,0.077-0.111
		c0.895-0.969,1.335-2.278,1.206-3.59c-0.003-0.033-0.003-0.065,0-0.098c0.006-0.067,0.01-0.134,0.012-0.202
		C11.309,2.35,10.061,1.039,8.488,1C8.445,1.002,8.377,1.006,8.31,1.012C7.551,1.085,6.866,1.449,6.381,2.038
		c-0.485,0.588-0.712,1.33-0.639,2.089c0.003,0.033,0.003,0.065,0,0.097c-0.127,1.313,0.313,2.621,1.209,3.59
		c0.376,0.414,0.462,1.515,0.29,2.225c-0.159,0.651-0.498,0.901-0.755,0.996L5.85,11.268c-2.062,0.758-3.842,1.412-4.203,2.134
		C1.299,14.22,1.087,15.097,1.021,16H8.5C8.776,16,9,16.225,9,16.5S8.776,17,8.5,17H0.5z"/>
</g>
</svg>
