<?xml version="1.0" encoding="utf-8"?>
<!-- Generator: Adobe Illustrator 22.1.0, SVG Export Plug-In . SVG Version: 6.00 Build 0)  -->
<svg version="1.1" id="Light" xmlns="http://www.w3.org/2000/svg" xmlns:xlink="http://www.w3.org/1999/xlink" x="0px" y="0px"
	 viewBox="0 0 24 24" style="enable-background:new 0 0 24 24;" xml:space="preserve">
<g>
	<title>single-neutral-actions-add</title>
	<path d="M17.5,24c-3.584,0-6.5-2.916-6.5-6.5s2.916-6.5,6.5-6.5s6.5,2.916,6.5,6.5S21.084,24,17.5,24z M17.5,12
		c-3.033,0-5.5,2.467-5.5,5.5s2.467,5.5,5.5,5.5s5.5-2.467,5.5-5.5S20.533,12,17.5,12z"/>
	<path d="M17.5,21c-0.276,0-0.5-0.224-0.5-0.5V18h-2.5c-0.276,0-0.5-0.224-0.5-0.5s0.224-0.5,0.5-0.5H17v-2.5
		c0-0.276,0.224-0.5,0.5-0.5s0.5,0.224,0.5,0.5V17h2.5c0.276,0,0.5,0.224,0.5,0.5S20.776,18,20.5,18H18v2.5
		C18,20.776,17.776,21,17.5,21z"/>
	<path d="M0.5,17c-0.132,0-0.262-0.054-0.355-0.148C0.05,16.756-0.002,16.629,0,16.495c0.014-1.215,0.263-2.396,0.74-3.513
		c0.55-1.103,2.317-1.753,4.764-2.652l0.634-0.234c0.015-0.01,0.081-0.089,0.131-0.295c0.13-0.536,0.008-1.209-0.063-1.323
		C5.138,7.326,4.602,5.754,4.742,4.174C4.658,3.166,4.965,2.182,5.609,1.401c0.655-0.794,1.58-1.286,2.605-1.385
		c0.091-0.009,0.182-0.014,0.274-0.016c1.045,0.025,2.006,0.45,2.718,1.196c0.712,0.746,1.09,1.723,1.064,2.751
		c-0.002,0.075-0.006,0.15-0.012,0.225c0.141,1.58-0.394,3.152-1.471,4.318c-0.061,0.101-0.182,0.775-0.052,1.309
		c0.05,0.207,0.116,0.286,0.135,0.297l1.302,0.479c0.259,0.095,0.392,0.383,0.297,0.642c-0.072,0.196-0.261,0.327-0.469,0.327
		c-0.059,0-0.117-0.01-0.172-0.031l-1.307-0.481c-0.258-0.096-0.598-0.346-0.757-0.997c-0.173-0.709-0.087-1.81,0.286-2.221
		c0.897-0.971,1.337-2.281,1.208-3.593c-0.003-0.033-0.003-0.065,0-0.098c0.006-0.067,0.01-0.134,0.012-0.202
		C11.309,2.35,10.061,1.039,8.488,1C8.445,1.002,8.377,1.006,8.31,1.012C7.551,1.085,6.866,1.449,6.381,2.038
		c-0.485,0.588-0.712,1.33-0.639,2.089c0.003,0.033,0.003,0.065,0,0.097c-0.127,1.313,0.313,2.621,1.209,3.59
		c0.376,0.414,0.462,1.515,0.29,2.225c-0.159,0.651-0.498,0.901-0.755,0.996L5.85,11.268c-2.062,0.758-3.842,1.412-4.203,2.134
		C1.299,14.22,1.087,15.097,1.021,16H9c0.276,0,0.5,0.224,0.5,0.5S9.276,17,9,17H0.5z"/>
</g>
</svg>
