<?xml version="1.0" encoding="utf-8"?>
<!-- Generator: Adobe Illustrator 22.1.0, SVG Export Plug-In . SVG Version: 6.00 Build 0)  -->
<svg version="1.1" id="Light" xmlns="http://www.w3.org/2000/svg" xmlns:xlink="http://www.w3.org/1999/xlink" x="0px" y="0px"
	 viewBox="0 0 24 24" style="enable-background:new 0 0 24 24;" xml:space="preserve">
<g>
	<title>single-neutral-actions</title>
	<path d="M4,20.75c-0.132,0-0.262-0.054-0.355-0.148C3.55,20.506,3.499,20.379,3.5,20.245c0.014-1.215,0.263-2.396,0.74-3.513
		c0.55-1.103,2.317-1.753,4.763-2.652l0.635-0.234c0.016-0.01,0.082-0.087,0.133-0.294c0.131-0.536,0.007-1.21-0.065-1.324
		c-1.068-1.152-1.604-2.724-1.464-4.305C8.158,6.916,8.465,5.932,9.109,5.151c0.655-0.794,1.58-1.286,2.605-1.385
		c0.091-0.009,0.182-0.014,0.274-0.016c1.045,0.025,2.006,0.45,2.718,1.196c0.712,0.746,1.09,1.723,1.064,2.751
		c-0.002,0.075-0.006,0.15-0.012,0.225c0.141,1.579-0.395,3.151-1.471,4.316c-0.061,0.101-0.182,0.775-0.052,1.309
		c0.05,0.207,0.116,0.286,0.135,0.298l0.628,0.231c2.447,0.899,4.215,1.549,4.753,2.625c0.486,1.139,0.736,2.327,0.749,3.542
		c0.001,0.133-0.051,0.263-0.145,0.357C20.263,20.696,20.133,20.75,20,20.75H4z M19.479,19.75c-0.065-0.906-0.278-1.789-0.635-2.628
		c-0.347-0.694-2.127-1.348-4.187-2.105l-0.637-0.235c-0.258-0.096-0.598-0.346-0.756-0.997c-0.173-0.709-0.087-1.81,0.286-2.221
		c0.896-0.971,1.336-2.279,1.209-3.591c-0.003-0.031-0.003-0.065,0-0.099c0.006-0.064,0.01-0.132,0.011-0.2
		c0.019-0.763-0.26-1.486-0.786-2.038c-0.524-0.551-1.23-0.865-1.99-0.885c-0.055,0.002-0.12,0.006-0.185,0.012
		c-0.759,0.073-1.444,0.437-1.929,1.025c-0.485,0.588-0.712,1.33-0.639,2.089c0.003,0.033,0.003,0.065,0,0.097
		c-0.127,1.313,0.313,2.621,1.209,3.59c0.378,0.416,0.465,1.518,0.291,2.227c-0.159,0.649-0.5,0.899-0.758,0.994l-0.635,0.234
		c-2.061,0.758-3.841,1.412-4.201,2.133c-0.349,0.818-0.56,1.695-0.626,2.598H19.479z"/>
</g>
</svg>
