<?xml version="1.0" encoding="utf-8"?>
<!-- Generator: Adobe Illustrator 22.1.0, SVG Export Plug-In . SVG Version: 6.00 Build 0)  -->
<svg version="1.1" id="Light" xmlns="http://www.w3.org/2000/svg" xmlns:xlink="http://www.w3.org/1999/xlink" x="0px" y="0px"
	 viewBox="0 0 24 24" style="enable-background:new 0 0 24 24;" xml:space="preserve">
<g>
	<title>single-neutral-actions-home</title>
	<path d="M13.5,24c-0.827,0-1.5-0.673-1.5-1.5v-5.114l-1.177,0.996C10.732,18.458,10.617,18.5,10.5,18.5
		c-0.148,0-0.287-0.065-0.382-0.177c-0.178-0.209-0.152-0.526,0.059-0.704l5.854-4.953c0.271-0.23,0.615-0.356,0.969-0.356
		s0.698,0.127,0.969,0.357l5.854,4.952c0.211,0.178,0.237,0.495,0.059,0.705c-0.095,0.112-0.234,0.177-0.382,0.177
		c-0.118,0-0.232-0.042-0.322-0.118L22,17.386V22.5c0,0.827-0.673,1.5-1.5,1.5H13.5z M20.5,23c0.276,0,0.5-0.224,0.5-0.5v-5.96
		l-3.677-3.111C17.232,13.352,17.117,13.31,17,13.31c-0.118,0-0.232,0.042-0.323,0.119L13,16.54v5.96c0,0.276,0.224,0.5,0.5,0.5H15
		v-2.5c0-1.103,0.897-2,2-2s2,0.897,2,2V23H20.5z M18,23v-2.5c0-0.552-0.448-1-1-1s-1,0.448-1,1V23H18z"/>
	<path d="M0.5,17c-0.132,0-0.262-0.054-0.355-0.148C0.049,16.756-0.002,16.629,0,16.495c0.014-1.215,0.263-2.396,0.74-3.513
		c0.55-1.103,2.318-1.753,4.764-2.652l0.634-0.234c0.015-0.01,0.081-0.089,0.131-0.295c0.13-0.535,0.008-1.208-0.063-1.322
		C5.138,7.327,4.602,5.754,4.742,4.174C4.657,3.166,4.965,2.182,5.609,1.401c0.655-0.794,1.58-1.286,2.605-1.385
		c0.091-0.009,0.182-0.014,0.274-0.016c1.049,0.025,2.011,0.45,2.721,1.195s1.087,1.723,1.061,2.752
		c-0.002,0.075-0.006,0.15-0.012,0.225c0.141,1.58-0.394,3.153-1.471,4.319c-0.061,0.101-0.182,0.775-0.052,1.308
		c0.05,0.207,0.116,0.286,0.135,0.297l0.642,0.236c1.041,0.383,1.94,0.713,2.695,1.058c0.251,0.115,0.362,0.412,0.247,0.663
		c-0.081,0.178-0.26,0.292-0.455,0.292l0,0c-0.072,0-0.142-0.015-0.207-0.045c-0.721-0.33-1.604-0.654-2.625-1.029l-0.648-0.239
		c-0.258-0.096-0.598-0.346-0.756-0.997C9.59,9.328,9.676,8.228,10.05,7.817c0.897-0.972,1.337-2.281,1.208-3.594
		c-0.003-0.032-0.003-0.065,0-0.097c0.006-0.067,0.01-0.134,0.012-0.202C11.309,2.35,10.061,1.039,8.487,1
		c-0.043,0.002-0.11,0.006-0.178,0.012C7.55,1.085,6.865,1.449,6.38,2.038c-0.485,0.588-0.712,1.33-0.639,2.089
		c0.003,0.033,0.003,0.065,0,0.097C5.614,5.536,6.055,6.845,6.951,7.814c0.376,0.414,0.462,1.515,0.289,2.224
		c-0.159,0.651-0.498,0.901-0.755,0.996L5.85,11.268c-2.062,0.758-3.842,1.412-4.203,2.134C1.298,14.22,1.087,15.097,1.021,16H8.5
		C8.775,16,9,16.225,9,16.5S8.775,17,8.5,17H0.5z"/>
</g>
</svg>
