<?xml version="1.0" encoding="utf-8"?>
<!-- Generator: Adobe Illustrator 22.1.0, SVG Export Plug-In . SVG Version: 6.00 Build 0)  -->
<svg version="1.1" id="Layer_1" xmlns="http://www.w3.org/2000/svg" xmlns:xlink="http://www.w3.org/1999/xlink" x="0px" y="0px"
	 viewBox="0 0 24 24" style="enable-background:new 0 0 24 24;" xml:space="preserve">
<g>
	<title>send-email-envelope</title>
	<path d="M5.96,18.5c-0.4,0-0.777-0.157-1.06-0.441c-0.283-0.284-0.439-0.66-0.439-1.061c0-0.101,0.01-0.202,0.031-0.299
		L6.574,6.698C6.641,6.37,6.821,6.07,7.08,5.852c0.003-0.003,0.006-0.006,0.009-0.009c0.013-0.012,0.036-0.028,0.055-0.039
		C7.403,5.607,7.716,5.5,8.042,5.5H22.5c0.401,0,0.777,0.158,1.061,0.444c0.032,0.025,0.069,0.057,0.101,0.104
		c0.008,0.011,0.018,0.03,0.026,0.047c0.204,0.266,0.311,0.579,0.311,0.906c0,0.1-0.01,0.2-0.031,0.299L21.89,17.302
		c-0.142,0.694-0.76,1.198-1.468,1.198H5.96z M5.47,16.902c-0.006,0.031-0.01,0.064-0.01,0.098c0,0.133,0.052,0.258,0.146,0.353
		S5.827,17.5,5.96,17.5h14.461c0.234,0,0.438-0.166,0.488-0.394c0-0.002,2.073-9.973,2.073-9.973l-7.539,5.276
		c-0.419,0.294-0.914,0.449-1.431,0.449c-0.697,0-1.365-0.29-1.835-0.796L7.523,7.05L5.47,16.902z M12.91,11.383
		c0.282,0.303,0.684,0.477,1.102,0.477c0.31,0,0.606-0.093,0.857-0.269L22.143,6.5H8.377L12.91,11.383z"/>
	<path d="M0.5,7.5C0.224,7.5,0,7.276,0,7s0.224-0.5,0.5-0.5h4C4.776,6.5,5,6.724,5,7S4.776,7.5,4.5,7.5H0.5z"/>
	<path d="M0.5,10.5C0.224,10.5,0,10.276,0,10s0.224-0.5,0.5-0.5h3C3.776,9.5,4,9.724,4,10s-0.224,0.5-0.5,0.5H0.5z"/>
	<path d="M0.5,13.5C0.224,13.5,0,13.276,0,13s0.224-0.5,0.5-0.5h2C2.776,12.5,3,12.724,3,13s-0.224,0.5-0.5,0.5H0.5z"/>
</g>
</svg>
