<?xml version="1.0" encoding="utf-8"?>
<!-- Generator: Adobe Illustrator 22.1.0, SVG Export Plug-In . SVG Version: 6.00 Build 0)  -->
<svg version="1.1" id="Layer_1" xmlns="http://www.w3.org/2000/svg" xmlns:xlink="http://www.w3.org/1999/xlink" x="0px" y="0px"
	 viewBox="0 0 24 24" style="enable-background:new 0 0 24 24;" xml:space="preserve">
<g>
	<title>send-email-fly</title>
	<path d="M12,24c-0.276,0-0.5-0.224-0.5-0.5v-9c0-0.276,0.224-0.5,0.5-0.5c0.276,0,0.5,0.224,0.5,0.5v9C12.5,23.776,12.276,24,12,24
		z"/>
	<path d="M9,20c-0.276,0-0.5-0.224-0.5-0.5v-7C8.5,12.224,8.724,12,9,12s0.5,0.224,0.5,0.5v7C9.5,19.776,9.276,20,9,20z"/>
	<path d="M15,20c-0.276,0-0.5-0.224-0.5-0.5v-7c0-0.276,0.224-0.5,0.5-0.5s0.5,0.224,0.5,0.5v7C15.5,19.776,15.276,20,15,20z"/>
	<path d="M7,10c-0.827,0-1.5-0.673-1.5-1.5V3.309L2.223,1.671C2.153,1.636,2.078,1.618,2.001,1.618
		c-0.054,0-0.107,0.009-0.159,0.026c-0.127,0.042-0.23,0.131-0.289,0.251C1.518,1.964,1.5,2.041,1.5,2.119v0.704
		c0,0.205,0.124,0.387,0.314,0.464l1.871,0.749c0.173,0.069,0.292,0.227,0.312,0.412c0.019,0.185-0.065,0.364-0.22,0.468L3.158,5.33
		C3.046,5.404,2.97,5.517,2.944,5.648s0,0.264,0.074,0.375L3.6,6.8C3.694,6.925,3.843,7,4,7c0.276,0,0.5,0.224,0.5,0.5S4.276,8,4,8
		C3.53,8,3.082,7.776,2.8,7.4L2.234,6.646C2.218,6.624,2.201,6.601,2.186,6.578C1.964,6.244,1.885,5.844,1.964,5.451
		c0.066-0.328,0.235-0.618,0.483-0.834L1.443,4.215C0.871,3.987,0.5,3.44,0.5,2.823V2.118c0-0.232,0.055-0.463,0.158-0.67
		c0.256-0.511,0.771-0.829,1.344-0.829c0.234,0,0.458,0.053,0.668,0.158L5.5,2.191V1.5c0-0.416,0.179-0.818,0.491-1.103
		C6.006,0.38,6.035,0.353,6.074,0.328C6.345,0.113,6.664,0,7,0h10c0.332,0,0.649,0.111,0.918,0.321
		c0.052,0.031,0.097,0.068,0.134,0.113C18.341,0.719,18.5,1.097,18.5,1.5v0.691l2.829-1.414c0.21-0.105,0.435-0.158,0.669-0.158
		c0.573,0,1.088,0.318,1.344,0.829c0.104,0.207,0.158,0.439,0.158,0.67v0.705c0,0.617-0.371,1.163-0.943,1.392l-1.003,0.402
		c0.558,0.487,0.683,1.328,0.261,1.961c-0.019,0.028-0.035,0.05-0.051,0.072L21.2,7.4C20.918,7.776,20.469,8,20,8
		c-0.276,0-0.5-0.224-0.5-0.5S19.724,7,20,7c0.156,0,0.306-0.075,0.4-0.2l0.591-0.79c0.144-0.217,0.081-0.527-0.149-0.68
		l-0.62-0.414c-0.155-0.103-0.239-0.283-0.219-0.468c0.019-0.185,0.138-0.343,0.311-0.412l1.871-0.749
		C22.376,3.21,22.5,3.028,22.5,2.823V2.118c0-0.077-0.018-0.154-0.053-0.223c-0.085-0.171-0.257-0.277-0.448-0.277
		c-0.078,0-0.152,0.018-0.222,0.053L18.5,3.309V8.5c0,0.827-0.673,1.5-1.5,1.5H7z M6.5,8.5C6.5,8.776,6.724,9,7,9h10
		c0.276,0,0.5-0.224,0.5-0.5c0,0,0-7.001,0-7.002L12.9,4.95c-0.257,0.192-0.577,0.298-0.9,0.298s-0.643-0.106-0.9-0.298L6.5,1.5V8.5
		z M11.7,4.15c0.085,0.064,0.192,0.099,0.3,0.099c0.108,0,0.215-0.035,0.3-0.099L16.498,1H7.5L11.7,4.15z"/>
</g>
</svg>
