<?xml version="1.0" encoding="utf-8"?>
<!-- Generator: Adobe Illustrator 22.1.0, SVG Export Plug-In . SVG Version: 6.00 Build 0)  -->
<svg version="1.1" id="Layer_1" xmlns="http://www.w3.org/2000/svg" xmlns:xlink="http://www.w3.org/1999/xlink" x="0px" y="0px"
	 viewBox="0 0 24 24" style="enable-background:new 0 0 24 24;" xml:space="preserve">
<g>
	<title>send-email</title>
	<path d="M10.015,22.501c-0.561,0-1.018-0.456-1.019-1.017v-6.101l-8.123-2.257c-0.354-0.101-0.637-0.352-0.779-0.688
		c-0.257-0.61,0.029-1.315,0.639-1.572l22.573-9.325c0.015-0.006,0.041-0.013,0.06-0.017c0.024-0.007,0.055-0.015,0.093-0.018
		c0.006,0,0.021-0.001,0.027-0.001c0.013,0,0.027,0.001,0.04,0.002c0.034,0.002,0.065,0.006,0.096,0.014
		c0.021,0.005,0.042,0.013,0.062,0.022c0.006,0.002,0.03,0.009,0.057,0.024c0.013,0.007,0.029,0.019,0.042,0.03
		c0.014,0.01,0.029,0.022,0.044,0.036c0.021,0.019,0.041,0.039,0.058,0.061c0.011,0.013,0.023,0.027,0.031,0.039
		c0.012,0.019,0.02,0.035,0.025,0.048c0.012,0.025,0.022,0.05,0.031,0.078c0.007,0.02,0.013,0.042,0.016,0.064
		c0.005,0.029,0.006,0.061,0.005,0.094c0,0.017-0.001,0.033-0.002,0.048c-0.001,0.013-0.002,0.027-0.005,0.039l-3.85,18.289
		c-0.138,0.643-0.714,1.108-1.369,1.108c-0.097,0-0.196-0.01-0.294-0.031c-0.171-0.036-0.332-0.104-0.478-0.2l-4.806-3.204
		l-2.293,3.931c-0.182,0.311-0.518,0.504-0.877,0.505C10.017,22.501,10.015,22.501,10.015,22.501z M9.996,21.483
		c0,0.01,0.009,0.018,0.019,0.018l2.339-3.992l-2.358-1.572V21.483z M18.548,20.435c0.04,0.026,0.086,0.046,0.135,0.056
		c0.027,0.006,0.055,0.009,0.083,0.009c0.188,0,0.353-0.133,0.392-0.316l3.525-16.743L10.301,14.938L18.548,20.435z M1.118,11.788
		c-0.099,0.042-0.146,0.159-0.103,0.261c0.024,0.056,0.071,0.098,0.13,0.115l8.216,2.283L21.123,3.524L1.118,11.788z"/>
</g>
</svg>
