<?xml version="1.0" encoding="utf-8"?>
<!-- Generator: Adobe Illustrator 22.1.0, SVG Export Plug-In . SVG Version: 6.00 Build 0)  -->
<svg version="1.1" id="Layer_1" xmlns="http://www.w3.org/2000/svg" xmlns:xlink="http://www.w3.org/1999/xlink" x="0px" y="0px"
	 viewBox="0 0 24 24" style="enable-background:new 0 0 24 24;" xml:space="preserve">
<title>image-document-svg</title>
<g>
	<path d="M1.5,4.5c-0.414,0-0.75-0.336-0.75-0.75S1.086,3,1.5,3h21c0.414,0,0.75,0.336,0.75,0.75S22.914,4.5,22.5,4.5H1.5z"/>
	<path d="M1.5,21c-0.414,0-0.75-0.336-0.75-0.75S1.086,19.5,1.5,19.5h21c0.414,0,0.75,0.336,0.75,0.75S22.914,21,22.5,21H1.5z"/>
	<path d="M12,16.5c-0.251,0-0.484-0.125-0.624-0.334c-1.063-1.594-1.625-3.45-1.626-5.366V8.25c0-0.414,0.336-0.75,0.75-0.75
		s0.75,0.336,0.75,0.75v2.55c0.001,1.182,0.258,2.351,0.75,3.418c0.492-1.068,0.75-2.237,0.75-3.419V8.25
		c0-0.414,0.336-0.75,0.75-0.75s0.75,0.336,0.75,0.75v2.55c-0.001,1.916-0.563,3.772-1.626,5.366C12.484,16.375,12.251,16.5,12,16.5
		z"/>
	<path d="M4.5,16.5c-0.414,0-0.75-0.336-0.75-0.75S4.086,15,4.5,15H6c0.414,0,0.75-0.336,0.75-0.75c0-0.715-0.434-1.075-1.2-1.65
		c-0.802-0.602-1.8-1.35-1.8-2.85C3.75,8.509,4.759,7.5,6,7.5h1.5c0.414,0,0.75,0.336,0.75,0.75S7.914,9,7.5,9H6
		C5.586,9,5.25,9.336,5.25,9.75c0,0.715,0.434,1.075,1.2,1.65c0.802,0.602,1.8,1.35,1.8,2.85c0,1.241-1.009,2.25-2.25,2.25H4.5z"/>
	<path d="M18,16.5c-1.241,0-2.25-1.009-2.25-2.25v-4.5c0-1.241,1.009-2.25,2.25-2.25h1.5c0.414,0,0.75,0.336,0.75,0.75
		S19.914,9,19.5,9H18c-0.414,0-0.75,0.336-0.75,0.75v4.5c0,0.414,0.336,0.75,0.75,0.75s0.75-0.336,0.75-0.75V13.5
		c-0.414,0-0.75-0.336-0.75-0.75S18.336,12,18.75,12h0.75c0.414,0,0.75,0.336,0.75,0.75v1.5C20.25,15.491,19.241,16.5,18,16.5z"/>
</g>
</svg>
