<?xml version="1.0" encoding="utf-8"?>
<!-- Generator: Adobe Illustrator 22.1.0, SVG Export Plug-In . SVG Version: 6.00 Build 0)  -->
<svg version="1.1" id="Layer_1" xmlns="http://www.w3.org/2000/svg" xmlns:xlink="http://www.w3.org/1999/xlink" x="0px" y="0px"
	 viewBox="0 0 24 24" style="enable-background:new 0 0 24 24;" xml:space="preserve">
<title>image-document-png</title>
<g>
	<path d="M1.5,4.5c-0.414,0-0.75-0.336-0.75-0.75S1.086,3,1.5,3h21c0.414,0,0.75,0.336,0.75,0.75S22.914,4.5,22.5,4.5H1.5z"/>
	<path d="M1.5,21c-0.414,0-0.75-0.336-0.75-0.75S1.086,19.5,1.5,19.5h21c0.414,0,0.75,0.336,0.75,0.75S22.914,21,22.5,21H1.5z"/>
	<path d="M4.5,16.5c-0.414,0-0.75-0.336-0.75-0.75v-7.5c0-0.414,0.336-0.75,0.75-0.75h0.75c1.654,0,3,1.346,3,3s-1.346,3-3,3v2.25
		C5.25,16.164,4.914,16.5,4.5,16.5z M5.25,12c0.827,0,1.5-0.673,1.5-1.5S6.077,9,5.25,9V12z"/>
	<path d="M13.5,16.5c-0.309,0-0.582-0.185-0.696-0.472l-1.553-3.884v3.606c0,0.414-0.336,0.75-0.75,0.75s-0.75-0.336-0.75-0.75v-7.5
		c0-0.359,0.256-0.668,0.608-0.736C10.407,7.504,10.453,7.5,10.499,7.5c0.309,0,0.583,0.185,0.698,0.471l1.554,3.884V8.25
		c0-0.414,0.336-0.75,0.75-0.75s0.75,0.336,0.75,0.75v7.5c0,0.359-0.256,0.669-0.608,0.736C13.595,16.496,13.547,16.5,13.5,16.5z"/>
	<path d="M18,16.5c-1.241,0-2.25-1.009-2.25-2.25v-4.5c0-1.241,1.009-2.25,2.25-2.25h1.5c0.414,0,0.75,0.336,0.75,0.75
		S19.914,9,19.5,9H18c-0.414,0-0.75,0.336-0.75,0.75v4.5c0,0.414,0.336,0.75,0.75,0.75s0.75-0.336,0.75-0.75V13.5
		c-0.414,0-0.75-0.336-0.75-0.75S18.336,12,18.75,12h0.75c0.414,0,0.75,0.336,0.75,0.75v1.5C20.25,15.491,19.241,16.5,18,16.5z"/>
</g>
</svg>
