<svg xmlns="http://www.w3.org/2000/svg" viewBox="0 0 24 24"><defs><style>.a{fill:none;stroke:currentColor;stroke-linecap:round;stroke-linejoin:round;stroke-width:1.5px;}</style></defs><title>gesture-double-tap</title><path class="a" d="M10.608,23.248l-3.79-3.093a1.636,1.636,0,0,1-.565-1.676h0a1.638,1.638,0,0,1,2.321-1.068L9.748,18v-6.75a1.5,1.5,0,0,1,1.5-1.5h0a1.5,1.5,0,0,1,1.5,1.5v4.5l1.993.333a3,3,0,0,1,2.507,2.959v4.208"/><path class="a" d="M18.876,14.486A8.991,8.991,0,1,0,2.248,9.748a8.922,8.922,0,0,0,1.69,5.222"/><path class="a" d="M15.548,12.748a5.25,5.25,0,1,0-8.6,0"/></svg>