<svg xmlns="http://www.w3.org/2000/svg" viewBox="0 0 24 24"><defs><style>.a{fill:none;stroke:currentColor;stroke-linecap:round;stroke-linejoin:round;stroke-width:1.5px;}</style></defs><title>gesture-zoom-in</title><line class="a" x1="3.94" y1="15.715" x2="5.4" y2="15.373"/><path class="a" d="M10.32,23.248,8.151,13.961a3.75,3.75,0,0,0-7.3,1.705l1.77,7.582"/><line class="a" x1="20.057" y1="15.715" x2="18.597" y2="15.373"/><path class="a" d="M21.379,23.248l1.77-7.582a3.75,3.75,0,1,0-7.3-1.7l-2.169,9.287"/><polyline class="a" points="6.561 6.748 9.206 3.431 5.888 0.786"/><path class="a" d="M9.206,3.444A35.959,35.959,0,0,0,.749,5.133"/><polyline class="a" points="17.436 6.748 14.791 3.431 18.109 0.786"/><path class="a" d="M14.791,3.444a35.977,35.977,0,0,1,8.458,1.689"/></svg>