<svg xmlns="http://www.w3.org/2000/svg" viewBox="0 0 24 24"><defs><style>.a{fill:none;stroke:currentColor;stroke-linecap:round;stroke-linejoin:round;stroke-width:1.5px;}</style></defs><title>gesture-two-finger-flip-left</title><polyline class="a" points="7.064 18.704 7.377 22.935 3.146 23.248"/><path class="a" d="M7.38,22.914a26.951,26.951,0,0,1-6.63-6.5"/><polyline class="a" points="16.576 6.081 15.285 2.04 19.326 0.748"/><path class="a" d="M15.287,2.061A26.944,26.944,0,0,1,23.25,6.835"/><path class="a" d="M13.293,7.533l-2.181,3.942-1.361-.227v-6a1.5,1.5,0,0,0-3,0V13.5l-1.174-.587a1.638,1.638,0,0,0-1.755,2.744"/><path class="a" d="M14.251,18.748l.645-1.934A5.534,5.534,0,0,0,14.251,12h0L15.7,9.376"/></svg>