<svg xmlns="http://www.w3.org/2000/svg" viewBox="0 0 24 24"><defs><style>.a{fill:none;stroke:currentColor;stroke-linecap:round;stroke-linejoin:round;stroke-width:1.5px;}</style></defs><title>gesture-swipe-vertical-2</title><path class="a" d="M.75,12.109,3.843,8.32a1.639,1.639,0,0,1,1.676-.566h0a1.638,1.638,0,0,1,1.068,2.321L6,11.249h6.75a1.5,1.5,0,0,1,1.5,1.5h0a1.5,1.5,0,0,1-1.5,1.5H8.25l-.332,1.993a3,3,0,0,1-2.96,2.507H.75"/><polyline class="a" points="23.249 3.748 20.249 0.748 17.249 3.748"/><polyline class="a" points="23.249 8.248 20.249 5.248 17.249 8.248"/><polyline class="a" points="23.249 20.248 20.249 23.248 17.249 20.248"/><polyline class="a" points="23.249 15.748 20.249 18.748 17.249 15.748"/><line class="a" x1="20.249" y1="5.248" x2="20.249" y2="18.748"/></svg>