<svg xmlns="http://www.w3.org/2000/svg" viewBox="0 0 24 24"><defs><style>.a{fill:none;stroke:currentColor;stroke-linecap:round;stroke-linejoin:round;stroke-width:1.5px;}</style></defs><title>gesture-tap-swipe-down-1</title><path class="a" d="M.75,6.108,3.844,2.319a1.637,1.637,0,0,1,1.675-.566h0A1.637,1.637,0,0,1,6.587,4.074L6,5.248h6.75a1.5,1.5,0,0,1,1.5,1.5h0a1.5,1.5,0,0,1-1.5,1.5H8.25l-.332,1.994a3,3,0,0,1-2.959,2.506H.75"/><line class="a" x1="15.75" y1="23.248" x2="15.75" y2="15.748"/><polyline class="a" points="19.5 19.498 15.75 23.248 12 19.498"/><path class="a" d="M11.507,10.991a6,6,0,1,0,0-8.485"/></svg>