<svg xmlns="http://www.w3.org/2000/svg" viewBox="0 0 24 24"><defs><style>.a{fill:none;stroke:currentColor;stroke-linecap:round;stroke-linejoin:round;stroke-width:1.5px;}</style></defs><title>gesture-swipe-horizontal-2</title><path class="a" d="M12.11,23.248,8.321,20.155a1.639,1.639,0,0,1-.566-1.676h0a1.638,1.638,0,0,1,2.321-1.068L11.25,18v-6.75a1.5,1.5,0,0,1,1.5-1.5h0a1.5,1.5,0,0,1,1.5,1.5v4.5l1.993.333A3,3,0,0,1,18.75,19.04v4.208"/><polyline class="a" points="3.75 0.748 0.75 3.748 3.75 6.748"/><polyline class="a" points="8.25 0.748 5.25 3.748 8.25 6.748"/><polyline class="a" points="20.25 0.748 23.25 3.748 20.25 6.748"/><polyline class="a" points="15.75 0.748 18.75 3.748 15.75 6.748"/><line class="a" x1="5.25" y1="3.748" x2="18.75" y2="3.748"/></svg>