<svg xmlns="http://www.w3.org/2000/svg" viewBox="0 0 24 24"><defs><style>.a{fill:none;stroke:currentColor;stroke-linecap:round;stroke-linejoin:round;stroke-width:1.5px;}</style></defs><title>gesture-tap-vertical-expand</title><path class="a" d="M12.109,22.5l-3.79-3.093a1.639,1.639,0,0,1-.566-1.676h0a1.639,1.639,0,0,1,2.321-1.068l1.175.587V10.5a1.5,1.5,0,0,1,1.5-1.5h0a1.5,1.5,0,0,1,1.5,1.5V15l1.993.333a3,3,0,0,1,2.507,2.959V22.5"/><polyline class="a" points="3.748 3.748 0.748 6.748 3.748 9.748"/><polyline class="a" points="20.248 3.748 23.249 6.748 20.248 9.748"/><path class="a" d="M16.724,9a5.243,5.243,0,1,0-8.476,1.417"/></svg>