<svg xmlns="http://www.w3.org/2000/svg" viewBox="0 0 24 24"><defs><style>.a{fill:none;stroke:currentColor;stroke-linecap:round;stroke-linejoin:round;stroke-width:1.5px;}</style></defs><title>gesture-tap-2</title><path class="a" d="M10.608,23.248,6.819,20.155a1.639,1.639,0,0,1-.566-1.676h0a1.638,1.638,0,0,1,2.321-1.068L9.748,18v-6.75a1.5,1.5,0,0,1,1.5-1.5h0a1.5,1.5,0,0,1,1.5,1.5v4.5l1.993.333a3,3,0,0,1,2.507,2.959v4.208"/><path class="a" d="M18.877,14.486A8.992,8.992,0,1,0,2.248,9.748a8.922,8.922,0,0,0,1.69,5.222"/></svg>