<svg xmlns="http://www.w3.org/2000/svg" viewBox="0 0 24 24"><title>tablet</title><path d="M19,0H5A2.5,2.5,0,0,0,2.5,2.5v19A2.5,2.5,0,0,0,5,24H19a2.5,2.5,0,0,0,2.5-2.5V2.5A2.5,2.5,0,0,0,19,0ZM5,4.5a1,1,0,0,1,1-1H18a1,1,0,0,1,1,1v14a1,1,0,0,1-1,1H6a1,1,0,0,1-1-1Z"/><rect x="6.75" y="6.251" width="2.5" height="2.5" rx="0.75" ry="0.75"/><rect x="10.75" y="6.251" width="2.5" height="2.5" rx="0.75" ry="0.75"/><rect x="14.75" y="6.251" width="2.5" height="2.5" rx="0.75" ry="0.75"/><rect x="6.75" y="10.251" width="2.5" height="2.5" rx="0.75" ry="0.75"/><rect x="10.75" y="10.251" width="2.5" height="2.5" rx="0.75" ry="0.75"/><rect x="6.75" y="14.251" width="2.5" height="2.5" rx="0.75" ry="0.75"/><rect x="10.75" y="14.251" width="2.5" height="2.5" rx="0.75" ry="0.75"/><rect x="14.75" y="10.251" width="2.5" height="2.5" rx="0.75" ry="0.75"/></svg>