<svg xmlns="http://www.w3.org/2000/svg" viewBox="0 0 24 24"><defs><style>.a{fill:none;stroke:currentColor;stroke-linecap:round;stroke-linejoin:round;stroke-width:1.5px;}</style></defs><title>laptop-smiley-1</title><path class="a" d="M8.25,10.524a5.568,5.568,0,0,0,7.5,0"/><line class="a" x1="9.75" y1="6" x2="9.75" y2="7.5"/><line class="a" x1="14.25" y1="6" x2="14.25" y2="7.5"/><path class="a" d="M21,15V3.75a1.5,1.5,0,0,0-1.5-1.5H4.5A1.5,1.5,0,0,0,3,3.75V15Z"/><path class="a" d="M23.121,19.641A1.5,1.5,0,0,1,21.75,21.75H2.25A1.5,1.5,0,0,1,.879,19.641L3,15H21Z"/><line class="a" x1="10.5" y1="18.75" x2="13.5" y2="18.75"/></svg>