<?xml version="1.0" encoding="utf-8"?>
<!-- Generator: Adobe Illustrator 22.1.0, SVG Export Plug-In . SVG Version: 6.00 Build 0)  -->
<svg version="1.1" id="Layer_1" xmlns="http://www.w3.org/2000/svg" xmlns:xlink="http://www.w3.org/1999/xlink" x="0px" y="0px"
	 viewBox="0 0 24 24" style="enable-background:new 0 0 24 24;" xml:space="preserve">
<title>loading-half</title>
<g>
	<path d="M19.5,16.497c-2.481,0-4.5-2.019-4.5-4.5s2.019-4.5,4.5-4.5s4.5,2.019,4.5,4.5S21.981,16.497,19.5,16.497z M19.5,8.997
		c-1.654,0-3,1.346-3,3s1.346,3,3,3s3-1.346,3-3S21.154,8.997,19.5,8.997z"/>
	<path d="M8.625,24C8.005,24,7.5,23.496,7.5,22.875c0-0.571,0.441-1.059,1.006-1.119c0.039-0.006,0.078-0.01,0.119-0.01
		c0.62,0,1.125,0.505,1.125,1.125C9.75,23.494,9.245,24,8.625,24z"/>
	<path d="M2.25,18.747c-1.241,0-2.25-1.009-2.25-2.25s1.009-2.25,2.25-2.25s2.25,1.009,2.25,2.25S3.491,18.747,2.25,18.747z
		 M2.25,15.747c-0.414,0-0.75,0.336-0.75,0.75s0.336,0.75,0.75,0.75S3,16.911,3,16.497S2.664,15.747,2.25,15.747z"/>
	<path d="M4.125,10.497C2.678,10.497,1.5,9.32,1.5,7.872s1.178-2.625,2.625-2.625S6.75,6.425,6.75,7.872S5.572,10.497,4.125,10.497z
		 M4.125,6.747C3.505,6.747,3,7.252,3,7.872s0.505,1.125,1.125,1.125S5.25,8.493,5.25,7.872S4.745,6.747,4.125,6.747z"/>
	<path d="M12.375,6.747C10.514,6.747,9,5.233,9,3.372s1.514-3.375,3.375-3.375c1.861,0,3.375,1.514,3.375,3.375
		S14.236,6.747,12.375,6.747z M12.375,1.497c-1.034,0-1.875,0.841-1.875,1.875s0.841,1.875,1.875,1.875s1.875-0.841,1.875-1.875
		S13.409,1.497,12.375,1.497z"/>
</g>
</svg>
