<?xml version="1.0" encoding="utf-8"?>
<!-- Generator: Adobe Illustrator 22.1.0, SVG Export Plug-In . SVG Version: 6.00 Build 0)  -->
<svg version="1.1" id="Layer_1" xmlns="http://www.w3.org/2000/svg" xmlns:xlink="http://www.w3.org/1999/xlink" x="0px" y="0px"
	 viewBox="0 0 24 24" style="enable-background:new 0 0 24 24;" xml:space="preserve">
<title>loading-line</title>
<g>
	<path d="M13.876,15.747c-2.068,0-3.75-1.682-3.75-3.75c0-2.068,1.682-3.75,3.75-3.75s3.75,1.682,3.75,3.75
		C17.626,14.065,15.944,15.747,13.876,15.747z M13.876,9.747c-1.241,0-2.25,1.009-2.25,2.25c0,1.241,1.009,2.25,2.25,2.25
		s2.25-1.009,2.25-2.25C16.126,10.756,15.117,9.747,13.876,9.747z"/>
	<circle cx="1.5" cy="12.375" r="1.125"/>
	<path d="M6.376,14.247c-1.241,0-2.25-1.009-2.25-2.25c0-1.241,1.009-2.25,2.25-2.25s2.25,1.009,2.25,2.25
		C8.626,13.238,7.617,14.247,6.376,14.247z M6.376,11.247c-0.414,0-0.75,0.336-0.75,0.75s0.336,0.75,0.75,0.75s0.75-0.336,0.75-0.75
		S6.79,11.247,6.376,11.247z"/>
	<path d="M21.376,14.247c-1.241,0-2.25-1.009-2.25-2.25c0-1.241,1.009-2.25,2.25-2.25s2.25,1.009,2.25,2.25
		C23.626,13.238,22.617,14.247,21.376,14.247z M21.376,11.247c-0.414,0-0.75,0.336-0.75,0.75s0.336,0.75,0.75,0.75
		s0.75-0.336,0.75-0.75S21.79,11.247,21.376,11.247z"/>
</g>
</svg>
