<svg xmlns="http://www.w3.org/2000/svg" viewBox="0 0 24 24"><defs><style>.a{fill:none;stroke:currentColor;stroke-linecap:round;stroke-linejoin:round;}</style></defs><title>flag-settings</title><line class="a" x1="0.5" y1="23.5" x2="0.5" y2="0.5"/><path class="a" d="M.5,19.5a21.794,21.794,0,0,1,6-1c3,0,7.5,2,10.5,2a18.515,18.515,0,0,0,5.849-1.244,1,1,0,0,0,.651-.938V4.44a1,1,0,0,0-1.32-.947A17.367,17.367,0,0,1,17,4.5c-3,0-7.5-2-10.5-2a21.794,21.794,0,0,0-6,1v16Z"/><line class="a" x1="12" y1="11.25" x2="12" y2="11.25"/><path class="a" d="M12,11.25a.25.25,0,1,0,.25.25.25.25,0,0,0-.25-.25"/><path class="a" d="M12.849,7.631l.295.969a.663.663,0,0,0,.782.454l.982-.228a.892.892,0,0,1,.849,1.479l-.687.741a.669.669,0,0,0,0,.908l.687.741a.893.893,0,0,1-.849,1.479l-.982-.228a.661.661,0,0,0-.782.454l-.295.969a.887.887,0,0,1-1.7,0l-.295-.969a.663.663,0,0,0-.782-.454l-.982.228A.892.892,0,0,1,8.242,12.7l.687-.741a.669.669,0,0,0,0-.908l-.687-.741a.893.893,0,0,1,.849-1.479l.982.228a.661.661,0,0,0,.782-.454l.295-.969A.887.887,0,0,1,12.849,7.631Z"/></svg>