<svg xmlns="http://www.w3.org/2000/svg" viewBox="0 0 24 24"><defs><style>.a{fill:none;stroke:currentColor;stroke-linecap:round;stroke-linejoin:round;}</style></defs><title>flag-skull</title><line class="a" x1="0.5" y1="23.5" x2="0.5" y2="0.5"/><path class="a" d="M.5,19.5a21.794,21.794,0,0,1,6-1c3,0,7.5,2,10.5,2a18.515,18.515,0,0,0,5.849-1.244,1,1,0,0,0,.651-.938V4.44a1,1,0,0,0-1.32-.947A17.367,17.367,0,0,1,17,4.5c-3,0-7.5-2-10.5-2a21.794,21.794,0,0,0-6,1v16Z"/><line class="a" x1="12" y1="14" x2="12" y2="15.5"/><path class="a" d="M9.5,15.5l0-1.876a4,4,0,1,1,5,0V15.5"/><path class="a" d="M10.25,10a.25.25,0,1,1-.25.25.25.25,0,0,1,.25-.25"/><path class="a" d="M13.75,10a.25.25,0,1,1-.25.25.25.25,0,0,1,.25-.25"/></svg>