<svg xmlns="http://www.w3.org/2000/svg" viewBox="0 0 24 24"><defs><style>.a{fill:none;stroke:currentColor;stroke-linecap:round;stroke-linejoin:round;}</style></defs><title>flag-flash</title><line class="a" x1="0.5" y1="23.5" x2="0.5" y2="0.5"/><path class="a" d="M.5,19.5a21.794,21.794,0,0,1,6-1c3,0,7.5,2,10.5,2a18.515,18.515,0,0,0,5.849-1.244,1,1,0,0,0,.651-.938V4.44a1,1,0,0,0-1.321-.947A17.367,17.367,0,0,1,17,4.5c-3,0-7.5-2-10.5-2a21.794,21.794,0,0,0-6,1Z"/><path class="a" d="M13.5,6.5,9.56,11.088a.25.25,0,0,0,.191.412H11.5v4l3.94-4.588a.25.25,0,0,0-.191-.412H13.5Z"/></svg>