<?xml version="1.0" encoding="utf-8"?>
<!-- Generator: Adobe Illustrator 22.1.0, SVG Export Plug-In . SVG Version: 6.00 Build 0)  -->
<svg version="1.1" id="Layer_1" xmlns="http://www.w3.org/2000/svg" xmlns:xlink="http://www.w3.org/1999/xlink" x="0px" y="0px"
	 viewBox="0 0 24 24" style="enable-background:new 0 0 24 24;" xml:space="preserve">
<title>messages-bubble-settings</title>
<g>
	<path d="M17.251,18.749c-1.241,0-2.25-1.009-2.25-2.25s1.009-2.25,2.25-2.25s2.25,1.009,2.25,2.25S18.491,18.749,17.251,18.749z
		 M17.251,15.749c-0.414,0-0.75,0.336-0.75,0.75s0.336,0.75,0.75,0.75s0.75-0.336,0.75-0.75S17.664,15.749,17.251,15.749z"/>
	<path d="M17.25,23.997c-0.202,0-0.403-0.03-0.597-0.088c-0.672-0.201-1.194-0.723-1.395-1.395l-0.442-1.45
		c-0.031-0.103-0.127-0.175-0.235-0.175c-0.018,0-0.036,0.002-0.054,0.006l-1.471,0.34c-0.154,0.035-0.31,0.053-0.465,0.053
		c-0.966,0-1.822-0.684-2.036-1.626c-0.153-0.676,0.037-1.381,0.51-1.887l1.028-1.109c0.089-0.096,0.089-0.246,0.001-0.342
		l-1.031-1.112c-0.379-0.406-0.578-0.937-0.559-1.494c0.019-0.558,0.254-1.074,0.662-1.455c0.388-0.362,0.894-0.562,1.424-0.562
		c0.155,0,0.311,0.017,0.462,0.052l1.476,0.342c0.017,0.004,0.035,0.006,0.053,0.006c0.106,0,0.202-0.071,0.233-0.173l0.444-1.455
		c0.16-0.53,0.518-0.967,1.008-1.23c0.302-0.162,0.641-0.247,0.98-0.247c0.204,0,0.407,0.03,0.605,0.09
		c0.671,0.203,1.191,0.725,1.391,1.397l0.441,1.45c0.031,0.103,0.128,0.174,0.236,0.174c0.018,0,0.036-0.002,0.054-0.006l1.469-0.34
		c0.154-0.035,0.309-0.052,0.464-0.052c0.967,0,1.824,0.684,2.038,1.626c0.153,0.675-0.037,1.381-0.51,1.887l-1.029,1.109
		c-0.089,0.096-0.089,0.246,0,0.342l1.031,1.112c0.379,0.406,0.578,0.937,0.559,1.494c-0.019,0.558-0.254,1.074-0.662,1.455
		c-0.388,0.362-0.893,0.562-1.424,0.562l0,0c-0.155,0-0.311-0.018-0.463-0.052l-1.476-0.342c-0.017-0.004-0.034-0.006-0.052-0.006
		c-0.107,0-0.204,0.072-0.235,0.174l-0.443,1.449C18.981,23.388,18.161,23.997,17.25,23.997z M14.581,19.39
		c0.763,0,1.45,0.51,1.67,1.239l0.442,1.451c0.057,0.19,0.203,0.336,0.39,0.393c0.055,0.016,0.112,0.025,0.168,0.025
		c0.096,0,0.188-0.023,0.274-0.07c0.136-0.073,0.236-0.196,0.281-0.344l0.443-1.451c0.22-0.728,0.907-1.237,1.671-1.237
		c0.13,0,0.261,0.015,0.388,0.044l1.474,0.342c0.041,0.009,0.084,0.014,0.127,0.014c0.149,0,0.291-0.056,0.4-0.158
		c0.115-0.107,0.181-0.253,0.187-0.41c0.005-0.157-0.051-0.307-0.158-0.422l-1.031-1.113c-0.621-0.667-0.621-1.714,0-2.383
		l1.03-1.11c0.134-0.144,0.188-0.344,0.145-0.533c-0.06-0.265-0.301-0.458-0.573-0.458c-0.044,0-0.088,0.005-0.131,0.015
		l-1.468,0.34c-0.129,0.03-0.26,0.045-0.392,0.045c-0.762,0-1.449-0.51-1.669-1.24l-0.442-1.452
		c-0.057-0.192-0.202-0.338-0.389-0.394c-0.056-0.017-0.113-0.026-0.17-0.026c-0.095,0-0.187,0.023-0.272,0.069
		c-0.137,0.073-0.237,0.195-0.281,0.343l-0.444,1.455c-0.219,0.728-0.906,1.237-1.669,1.237c-0.131,0-0.262-0.015-0.389-0.044
		l-1.474-0.341c-0.04-0.009-0.083-0.014-0.126-0.014c-0.15,0-0.293,0.056-0.402,0.158c-0.115,0.107-0.181,0.253-0.186,0.409
		c-0.005,0.157,0.051,0.307,0.158,0.422l1.031,1.113c0.621,0.667,0.621,1.714,0,2.383l-1.029,1.11
		c-0.135,0.144-0.189,0.343-0.146,0.533c0.06,0.265,0.302,0.458,0.574,0.458c0.043,0,0.087-0.005,0.13-0.015l1.47-0.34
		C14.32,19.405,14.451,19.39,14.581,19.39z"/>
	<path d="M0.751,23.999c-0.201,0-0.389-0.078-0.531-0.22c-0.224-0.224-0.283-0.567-0.146-0.853l2.913-6.114
		c-0.705-1.228-1.166-2.562-1.372-3.968C1.181,9.875,1.932,6.911,3.729,4.499s4.422-3.98,7.391-4.414
		c0.546-0.08,1.101-0.12,1.649-0.12c2.424,0,4.74,0.771,6.699,2.231c2.41,1.795,3.976,4.422,4.411,7.395
		c0.06,0.409-0.224,0.791-0.634,0.851c-0.036,0.005-0.073,0.008-0.109,0.008c-0.369,0-0.688-0.276-0.742-0.642
		c-0.376-2.577-1.734-4.853-3.823-6.409c-1.698-1.265-3.704-1.933-5.803-1.933c-0.475,0-0.957,0.035-1.432,0.105
		c-5.32,0.777-9.015,5.738-8.238,11.057c0.196,1.339,0.658,2.6,1.374,3.748c0.136,0.219,0.151,0.488,0.041,0.72l-2.176,4.568
		l4.565-2.175c0.1-0.048,0.211-0.073,0.322-0.073c0.14,0,0.277,0.039,0.396,0.114c0.315,0.196,0.646,0.376,0.982,0.536
		c0.181,0.086,0.318,0.237,0.385,0.426s0.057,0.392-0.029,0.573c-0.124,0.26-0.39,0.428-0.678,0.428l0,0
		c-0.112,0-0.22-0.024-0.321-0.073c-0.262-0.124-0.521-0.26-0.774-0.405l-6.112,2.912C0.972,23.974,0.861,23.999,0.751,23.999z"/>
</g>
</svg>
