<?xml version="1.0" encoding="utf-8"?>
<!-- Generator: Adobe Illustrator 22.1.0, SVG Export Plug-In . SVG Version: 6.00 Build 0)  -->
<svg version="1.1" id="Layer_1" xmlns="http://www.w3.org/2000/svg" xmlns:xlink="http://www.w3.org/1999/xlink" x="0px" y="0px"
	 viewBox="0 0 24 24" style="enable-background:new 0 0 24 24;" xml:space="preserve">
<title>messages-bubble-sync</title>
<g>
	<path d="M17.4,24.004c-0.695,0-1.385-0.116-2.052-0.344c-1.419-0.486-2.592-1.442-3.348-2.686V22.5c0,0.414-0.336,0.75-0.75,0.75
		s-0.75-0.336-0.75-0.75v-3.75c0-0.414,0.336-0.75,0.75-0.75H15c0.414,0,0.75,0.336,0.75,0.75S15.414,19.5,15,19.5h-2.067
		c0.524,1.283,1.579,2.289,2.9,2.741c0.509,0.174,1.036,0.262,1.566,0.262c0.735,0,1.448-0.167,2.117-0.495
		c1.157-0.567,2.023-1.55,2.44-2.769c0.104-0.303,0.389-0.508,0.709-0.508c0.083,0,0.166,0.014,0.244,0.041
		c0.188,0.064,0.341,0.199,0.429,0.379c0.088,0.18,0.101,0.384,0.036,0.573c-0.547,1.598-1.683,2.887-3.199,3.63
		C19.3,23.786,18.366,24.004,17.4,24.004z"/>
	<path d="M19.5,16.5c-0.414,0-0.75-0.336-0.75-0.75S19.087,15,19.5,15h2.065c-0.524-1.281-1.578-2.287-2.898-2.739
		c-0.509-0.174-1.037-0.263-1.567-0.263c-0.735,0-1.447,0.166-2.116,0.494c-1.156,0.566-2.023,1.549-2.441,2.768
		c-0.104,0.303-0.389,0.507-0.709,0.507c-0.083,0-0.165-0.014-0.244-0.041c-0.391-0.134-0.6-0.561-0.466-0.952
		c0.547-1.597,1.684-2.886,3.201-3.629c0.877-0.429,1.811-0.647,2.775-0.647c0.696,0,1.387,0.116,2.054,0.344
		c1.418,0.486,2.59,1.443,3.347,2.686V12c0-0.414,0.336-0.75,0.75-0.75S24,11.586,24,12v3.75c0,0.414-0.336,0.75-0.75,0.75H19.5z"/>
	<path d="M0.75,24c-0.201,0-0.389-0.078-0.531-0.22c-0.224-0.224-0.283-0.566-0.147-0.852l2.911-6.113
		c-0.574-1.002-0.989-2.083-1.233-3.214C1.115,10.664,1.662,7.656,3.29,5.13s4.142-4.266,7.079-4.901
		c0.791-0.171,1.598-0.258,2.399-0.258c2.148,0,4.248,0.622,6.073,1.798c2.526,1.628,4.267,4.142,4.901,7.079
		c0.042,0.196,0.006,0.396-0.102,0.565c-0.109,0.168-0.276,0.284-0.472,0.327c-0.053,0.011-0.106,0.017-0.159,0.017
		c-0.351,0-0.659-0.249-0.733-0.592c-0.551-2.545-2.059-4.724-4.248-6.135c-1.582-1.019-3.401-1.558-5.261-1.558
		c-0.694,0-1.394,0.075-2.081,0.224c-2.546,0.55-4.724,2.059-6.135,4.248c-1.411,2.189-1.885,4.797-1.334,7.342
		c0.237,1.098,0.659,2.139,1.253,3.094c0.136,0.219,0.151,0.487,0.04,0.719l-2.174,4.566l4.566-2.175
		c0.099-0.048,0.211-0.073,0.322-0.073c0.14,0,0.276,0.039,0.396,0.112c0.306,0.19,0.625,0.365,0.949,0.521
		c0.373,0.179,0.531,0.628,0.352,1c-0.124,0.259-0.39,0.426-0.677,0.426c-0.113,0-0.222-0.025-0.324-0.074
		c-0.248-0.119-0.494-0.248-0.735-0.385l-6.112,2.912C0.972,23.975,0.861,24,0.75,24z"/>
</g>
</svg>
