<?xml version="1.0" encoding="utf-8"?>
<!-- Generator: Adobe Illustrator 22.1.0, SVG Export Plug-In . SVG Version: 6.00 Build 0)  -->
<svg version="1.1" id="Layer_1" xmlns="http://www.w3.org/2000/svg" xmlns:xlink="http://www.w3.org/1999/xlink" x="0px" y="0px"
	 viewBox="0 0 24 24" style="enable-background:new 0 0 24 24;" xml:space="preserve">
<title>messages-bubble-square-disable</title>
<g>
	<path d="M17.248,24c-1.789,0-3.475-0.695-4.749-1.957c-0.008-0.007-0.016-0.014-0.024-0.022c-0.01-0.01-0.019-0.02-0.028-0.031
		c-1.252-1.257-1.95-2.946-1.95-4.74c0-3.722,3.028-6.75,6.75-6.75c1.786,0,3.469,0.693,4.742,1.951
		c0.011,0.009,0.021,0.018,0.03,0.027c0.01,0.01,0.02,0.021,0.029,0.032c1.253,1.263,1.949,2.949,1.949,4.74
		C23.998,20.972,20.97,24,17.248,24z M14.106,21.451c0.906,0.679,2.007,1.049,3.142,1.049c2.895,0,5.25-2.355,5.25-5.25
		c0-1.135-0.37-2.236-1.048-3.141L14.106,21.451z M17.248,12c-2.895,0-5.25,2.355-5.25,5.25c0,1.135,0.37,2.236,1.048,3.141
		l7.344-7.343C19.484,12.37,18.383,12,17.248,12z"/>
	<path d="M3.75,24c-0.115,0-0.231-0.027-0.335-0.079C3.159,23.792,3,23.535,3,23.25V19.5H2.25C1.009,19.5,0,18.491,0,17.25v-15
		C0,1.009,1.009,0,2.25,0h19.5C22.991,0,24,1.009,24,2.25v7.5c0,0.414-0.336,0.75-0.75,0.75s-0.75-0.336-0.75-0.75v-7.5
		c0-0.414-0.336-0.75-0.75-0.75H2.25C1.836,1.5,1.5,1.836,1.5,2.25v15C1.5,17.664,1.836,18,2.25,18h1.5
		c0.414,0,0.75,0.336,0.75,0.75v3.001L7.773,19.3c0.131-0.098,0.287-0.15,0.45-0.15c0.235,0,0.459,0.112,0.6,0.3
		c0.12,0.161,0.171,0.358,0.142,0.556C8.937,20.205,8.833,20.38,8.672,20.5L4.2,23.85C4.071,23.947,3.911,24,3.75,24z"/>
</g>
</svg>
