<?xml version="1.0" encoding="utf-8"?>
<!-- Generator: Adobe Illustrator 22.1.0, SVG Export Plug-In . SVG Version: 6.00 Build 0)  -->
<svg version="1.1" id="Layer_1" xmlns="http://www.w3.org/2000/svg" xmlns:xlink="http://www.w3.org/1999/xlink" x="0px" y="0px"
	 viewBox="0 0 24 24" style="enable-background:new 0 0 24 24;" xml:space="preserve">
<title>messages-bubble-upload</title>
<g>
	<path d="M17.25,24c-3.722,0-6.75-3.028-6.75-6.75s3.028-6.75,6.75-6.75S24,13.528,24,17.25S20.972,24,17.25,24z M17.25,12
		C14.356,12,12,14.355,12,17.25s2.355,5.25,5.25,5.25s5.25-2.355,5.25-5.25S20.145,12,17.25,12z"/>
	<path d="M17.25,21c-0.414,0-0.75-0.336-0.75-0.75V16.06l-0.97,0.97c-0.142,0.142-0.33,0.22-0.53,0.22s-0.389-0.078-0.53-0.22
		c-0.292-0.292-0.292-0.768,0-1.061l2.25-2.25c0.07-0.07,0.152-0.125,0.245-0.163c0.008-0.003,0.017-0.007,0.026-0.01
		c0.082-0.031,0.17-0.047,0.259-0.047c0.087,0,0.174,0.016,0.258,0.046c0.006,0.002,0.011,0.004,0.017,0.006
		c0.104,0.042,0.186,0.097,0.256,0.167l2.25,2.25c0.292,0.292,0.292,0.768,0,1.061c-0.142,0.142-0.33,0.22-0.53,0.22
		s-0.389-0.078-0.53-0.22L18,16.06v4.189C18,20.663,17.664,21,17.25,21z"/>
	<path d="M0.75,24c-0.201,0-0.389-0.078-0.531-0.22c-0.224-0.224-0.283-0.566-0.147-0.852l2.911-6.113
		c-0.838-1.467-1.341-3.124-1.458-4.806C1.096,5.82,5.78,0.435,11.968,0.005c0.264-0.018,0.532-0.028,0.796-0.028
		c2.703,0,5.32,0.981,7.368,2.763c2.267,1.972,3.63,4.71,3.839,7.707c0.029,0.412-0.283,0.771-0.696,0.8
		c-0.018,0.001-0.035,0.002-0.052,0.002c-0.392,0-0.721-0.307-0.748-0.698c-0.354-5.089-4.623-9.074-9.718-9.074
		c-0.227,0-0.457,0.008-0.685,0.024c-5.363,0.373-9.423,5.039-9.05,10.403c0.11,1.581,0.61,3.128,1.448,4.475
		c0.136,0.218,0.151,0.487,0.04,0.719l-2.174,4.566l4.566-2.175c0.1-0.048,0.211-0.073,0.322-0.073c0.14,0,0.277,0.039,0.396,0.113
		c0.522,0.323,1.077,0.6,1.651,0.822c0.386,0.149,0.578,0.584,0.429,0.97C9.589,21.607,9.308,21.8,9,21.8c0,0,0,0,0,0
		c-0.093,0-0.183-0.017-0.27-0.051c-0.531-0.205-1.05-0.452-1.545-0.734l-6.112,2.912C0.972,23.974,0.861,24,0.75,24z"/>
</g>
</svg>
