<?xml version="1.0" encoding="utf-8"?>
<!-- Generator: Adobe Illustrator 22.1.0, SVG Export Plug-In . SVG Version: 6.00 Build 0)  -->
<svg version="1.1" id="Layer_1" xmlns="http://www.w3.org/2000/svg" xmlns:xlink="http://www.w3.org/1999/xlink" x="0px" y="0px"
	 viewBox="0 0 24 24" style="enable-background:new 0 0 24 24;" xml:space="preserve">
<title>messages-bubble-square-lock</title>
<g>
	<path d="M15.75,24c-1.241,0-2.25-1.009-2.25-2.25v-4.5c0-0.96,0.615-1.808,1.5-2.121V14.25c0-2.068,1.682-3.75,3.75-3.75
		s3.75,1.682,3.75,3.75v0.879c0.885,0.314,1.5,1.162,1.5,2.121v4.5c0,1.241-1.009,2.25-2.25,2.25H15.75z M15.75,16.5
		c-0.414,0-0.75,0.336-0.75,0.75v4.5c0,0.414,0.336,0.75,0.75,0.75h6c0.414,0,0.75-0.336,0.75-0.75v-4.5
		c0-0.414-0.336-0.75-0.75-0.75H15.75z M21,15v-0.75c0-1.241-1.009-2.25-2.25-2.25s-2.25,1.009-2.25,2.25L21,15z"/>
	<path d="M18.75,20.654c-0.62,0-1.125-0.505-1.125-1.125c0-0.605,0.471-1.095,1.074-1.122c0.017-0.002,0.037-0.003,0.051-0.003
		c0.62,0,1.125,0.505,1.125,1.125S19.37,20.654,18.75,20.654z"/>
	<path d="M3.75,24c-0.116,0-0.232-0.027-0.336-0.079C3.159,23.793,3,23.536,3,23.25V19.5H2.25C1.009,19.5,0,18.491,0,17.25v-15
		C0,1.009,1.009,0,2.25,0h19.5C22.991,0,24,1.009,24,2.25v7.5c0,0.414-0.336,0.75-0.75,0.75s-0.75-0.336-0.75-0.75v-7.5
		c0-0.414-0.336-0.75-0.75-0.75H2.25C1.836,1.5,1.5,1.836,1.5,2.25v15C1.5,17.664,1.836,18,2.25,18h1.5
		c0.414,0,0.75,0.336,0.75,0.75v3l4.8-3.6C9.429,18.053,9.589,18,9.75,18h1.5c0.414,0,0.75,0.336,0.75,0.75s-0.336,0.75-0.75,0.75
		H10l-5.8,4.35C4.071,23.947,3.911,24,3.75,24z"/>
</g>
</svg>
