<?xml version="1.0" encoding="utf-8"?>
<!-- Generator: Adobe Illustrator 22.1.0, SVG Export Plug-In . SVG Version: 6.00 Build 0)  -->
<svg version="1.1" id="Layer_1" xmlns="http://www.w3.org/2000/svg" xmlns:xlink="http://www.w3.org/1999/xlink" x="0px" y="0px"
	 viewBox="0 0 24 24" style="enable-background:new 0 0 24 24;" xml:space="preserve">
<title>messages-bubble-check</title>
<g>
	<path d="M0.708,24.002c-0.201,0-0.389-0.078-0.531-0.22c-0.224-0.224-0.283-0.566-0.147-0.852l2.911-6.113
		c-0.573-1-0.987-2.079-1.231-3.208c-0.635-2.937-0.089-5.946,1.538-8.472c1.627-2.526,4.141-4.268,7.078-4.903
		c0.784-0.17,1.586-0.256,2.382-0.256c5.257,0,9.881,3.731,10.993,8.871c0.042,0.196,0.006,0.396-0.102,0.565
		c-0.109,0.168-0.276,0.285-0.472,0.327c-0.053,0.011-0.106,0.017-0.159,0.017c-0.351,0-0.659-0.249-0.733-0.592
		c-0.964-4.455-4.971-7.688-9.527-7.688c-0.69,0-1.384,0.075-2.064,0.222C8.098,2.25,5.92,3.759,4.509,5.949
		c-1.41,2.189-1.884,4.797-1.333,7.342c0.237,1.097,0.658,2.136,1.251,3.089c0.136,0.219,0.151,0.487,0.04,0.719l-2.174,4.567
		l4.567-2.175c0.1-0.048,0.211-0.073,0.322-0.073c0.14,0,0.278,0.039,0.397,0.114c0.52,0.323,1.074,0.599,1.646,0.821
		c0.187,0.072,0.334,0.213,0.415,0.396c0.081,0.183,0.086,0.387,0.014,0.574c-0.111,0.287-0.392,0.48-0.7,0.48
		c-0.093,0-0.183-0.017-0.27-0.051c-0.53-0.205-1.047-0.451-1.541-0.734l-6.113,2.912C0.93,23.977,0.819,24.002,0.708,24.002z"/>
	<path d="M17.208,23.999c-3.722,0-6.75-3.028-6.75-6.75s3.028-6.75,6.75-6.75c0.414,0,0.75,0.336,0.75,0.75S17.622,12,17.208,12
		c-2.895,0-5.25,2.355-5.25,5.25s2.355,5.25,5.25,5.25s5.25-2.355,5.25-5.25c0-0.414,0.336-0.75,0.75-0.75s0.75,0.336,0.75,0.75
		C23.958,20.971,20.93,23.999,17.208,23.999z"/>
	<path d="M17.208,19.188c-0.4,0-0.777-0.155-1.059-0.437l-1.721-1.721c-0.292-0.292-0.292-0.768,0-1.061
		c0.142-0.142,0.33-0.22,0.53-0.22s0.389,0.078,0.53,0.22l1.72,1.72l5.469-5.47c0.142-0.142,0.33-0.22,0.53-0.22
		s0.389,0.078,0.53,0.22c0.292,0.292,0.292,0.768,0,1.061l-5.47,5.47C17.985,19.032,17.608,19.188,17.208,19.188z"/>
</g>
</svg>
