<?xml version="1.0" encoding="utf-8"?>
<!-- Generator: Adobe Illustrator 22.1.0, SVG Export Plug-In . SVG Version: 6.00 Build 0)  -->
<svg version="1.1" id="Layer_1" xmlns="http://www.w3.org/2000/svg" xmlns:xlink="http://www.w3.org/1999/xlink" x="0px" y="0px"
	 viewBox="0 0 24 24" style="enable-background:new 0 0 24 24;" xml:space="preserve">
<title>messages-bubble-edit</title>
<g>
	<path d="M11.321,23.997c-0.2,0-0.389-0.078-0.53-0.22c-0.178-0.177-0.255-0.431-0.205-0.677l0.75-3.75
		c0.029-0.143,0.098-0.274,0.2-0.378l7.487-7.631c0.544-0.544,1.265-0.843,2.031-0.843c0.766,0,1.485,0.297,2.025,0.838
		c1.119,1.121,1.124,2.94,0.011,4.057l-7.484,7.63c-0.106,0.108-0.241,0.181-0.389,0.21l-3.749,0.75
		C11.419,23.992,11.37,23.997,11.321,23.997z M12.277,22.29l2.42-0.484c0,0,7.332-7.475,7.335-7.478
		c0.526-0.532,0.524-1.394-0.005-1.924c-0.262-0.262-0.609-0.406-0.977-0.406c-0.364,0-0.705,0.141-0.962,0.398l-7.325,7.466
		L12.277,22.29z"/>
	<path d="M0.808,23.997c-0.201,0-0.389-0.078-0.531-0.22c-0.224-0.224-0.283-0.567-0.146-0.853l2.912-6.112
		c-0.467-0.814-0.831-1.684-1.082-2.589C1.158,11.327,1.53,8.292,3.009,5.676s3.888-4.499,6.784-5.303
		c0.991-0.275,2.009-0.415,3.026-0.415c1.92,0,3.829,0.506,5.521,1.462c2.616,1.479,4.499,3.888,5.302,6.784
		c0.111,0.398-0.124,0.813-0.522,0.923c-0.067,0.018-0.134,0.027-0.201,0.027c-0.335,0-0.633-0.226-0.722-0.549
		c-0.696-2.51-2.328-4.598-4.595-5.879c-1.467-0.829-3.121-1.268-4.784-1.268c-0.881,0-1.763,0.121-2.623,0.36
		c-2.51,0.696-4.598,2.328-5.88,4.596c-1.282,2.267-1.604,4.898-0.908,7.407c0.25,0.901,0.628,1.76,1.123,2.553
		c0.136,0.218,0.151,0.487,0.041,0.719L2.395,21.66l4.566-2.175c0.099-0.048,0.211-0.073,0.322-0.073
		c0.14,0,0.277,0.039,0.397,0.114c0.37,0.23,0.758,0.437,1.155,0.616c0.183,0.082,0.322,0.231,0.393,0.418
		c0.071,0.188,0.064,0.391-0.018,0.574c-0.121,0.268-0.39,0.442-0.684,0.442c-0.107,0-0.211-0.022-0.309-0.067
		c-0.33-0.149-0.657-0.316-0.973-0.497l-6.113,2.912C1.03,23.971,0.919,23.997,0.808,23.997z"/>
</g>
</svg>
