<?xml version="1.0" encoding="utf-8"?>
<!-- Generator: Adobe Illustrator 22.1.0, SVG Export Plug-In . SVG Version: 6.00 Build 0)  -->
<svg version="1.1" id="Layer_1" xmlns="http://www.w3.org/2000/svg" xmlns:xlink="http://www.w3.org/1999/xlink" x="0px" y="0px"
	 viewBox="0 0 24 24" style="enable-background:new 0 0 24 24;" xml:space="preserve">
<title>messages-bubble-square-sync</title>
<g>
	<path d="M3.75,24.002c-0.115,0-0.231-0.027-0.335-0.079C3.159,23.795,3,23.538,3,23.252v-3.75H2.25c-1.241,0-2.25-1.009-2.25-2.25
		v-15c0-1.241,1.009-2.25,2.25-2.25h19.5c1.241,0,2.25,1.009,2.25,2.25v6c0,0.414-0.336,0.75-0.75,0.75s-0.75-0.336-0.75-0.75v-6
		c0-0.414-0.336-0.75-0.75-0.75H2.25c-0.414,0-0.75,0.336-0.75,0.75v15c0,0.414,0.336,0.75,0.75,0.75h1.5
		c0.414,0,0.75,0.336,0.75,0.75v3.001l3.273-2.452c0.131-0.098,0.286-0.15,0.45-0.15c0.235,0,0.459,0.112,0.6,0.3
		c0.12,0.161,0.171,0.358,0.142,0.556c-0.028,0.198-0.132,0.374-0.293,0.494L4.2,23.852C4.071,23.949,3.911,24.002,3.75,24.002z"/>
	<path d="M17.399,24.006c-0.695,0-1.385-0.116-2.052-0.344c-1.419-0.486-2.592-1.442-3.348-2.686v1.525
		c0,0.414-0.336,0.75-0.75,0.75s-0.75-0.336-0.75-0.75v-3.75c0-0.414,0.336-0.75,0.75-0.75h3.75c0.414,0,0.75,0.336,0.75,0.75
		s-0.336,0.75-0.75,0.75h-2.067c0.524,1.283,1.579,2.289,2.9,2.741c0.509,0.174,1.036,0.262,1.566,0.262
		c0.735,0,1.448-0.167,2.117-0.495c1.157-0.567,2.023-1.551,2.44-2.769c0.104-0.303,0.388-0.508,0.709-0.508
		c0.083,0,0.166,0.014,0.245,0.041c0.188,0.064,0.341,0.199,0.429,0.379c0.088,0.18,0.101,0.384,0.036,0.573
		c-0.547,1.598-1.683,2.887-3.199,3.63C19.299,23.788,18.364,24.006,17.399,24.006z"/>
	<path d="M19.499,16.502c-0.414,0-0.75-0.336-0.75-0.75s0.336-0.75,0.75-0.75h2.067c-0.524-1.283-1.579-2.289-2.9-2.741
		c-0.505-0.172-1.028-0.26-1.557-0.26c-2.064,0-3.899,1.311-4.566,3.261c-0.104,0.304-0.389,0.508-0.709,0.508
		c-0.083,0-0.165-0.014-0.244-0.041c-0.188-0.064-0.341-0.199-0.43-0.379c-0.088-0.18-0.101-0.383-0.036-0.573
		c0.875-2.557,3.281-4.276,5.987-4.276c0.693,0,1.38,0.115,2.041,0.341c1.419,0.486,2.592,1.442,3.348,2.686v-1.525
		c0-0.414,0.336-0.75,0.75-0.75s0.75,0.336,0.75,0.75v3.75c0,0.414-0.336,0.75-0.75,0.75H19.499z"/>
</g>
</svg>
