<?xml version="1.0" encoding="utf-8"?>
<!-- Generator: Adobe Illustrator 22.1.0, SVG Export Plug-In . SVG Version: 6.00 Build 0)  -->
<svg version="1.1" id="Layer_1" xmlns="http://www.w3.org/2000/svg" xmlns:xlink="http://www.w3.org/1999/xlink" x="0px" y="0px"
	 viewBox="0 0 24 24" style="enable-background:new 0 0 24 24;" xml:space="preserve">
<title>messages-bubble-square-quote</title>
<g>
	<path d="M5.25,24c-0.116,0-0.232-0.027-0.336-0.079C4.659,23.793,4.5,23.536,4.5,23.25V19.5H2.25C1.009,19.5,0,18.491,0,17.25v-15
		C0,1.009,1.009,0,2.25,0h19.5C22.991,0,24,1.009,24,2.25v15c0,1.241-1.009,2.25-2.25,2.25H11.5l-5.8,4.35
		C5.571,23.947,5.411,24,5.25,24z M2.25,1.5C1.836,1.5,1.5,1.836,1.5,2.25v15C1.5,17.664,1.836,18,2.25,18h3
		C5.664,18,6,18.336,6,18.75v3l4.8-3.6c0.129-0.097,0.289-0.15,0.45-0.15h10.5c0.414,0,0.75-0.336,0.75-0.75v-15
		c0-0.414-0.336-0.75-0.75-0.75H2.25z"/>
	<path d="M8.134,16.756c-0.292,0-0.559-0.171-0.681-0.436c-0.173-0.376-0.009-0.822,0.367-0.995c0.687-0.317,1.14-0.983,1.181-1.738
		c0-0.127-0.016-0.288-0.052-0.459C8.682,13.361,8.336,13.5,7.968,13.5c-0.827,0-1.5-0.673-1.5-1.5c0-0.725,0.537-1.355,1.252-1.475
		C7.784,10.508,7.845,10.5,7.906,10.5c0.006,0,0.019,0,0.031,0.001C7.947,10.5,7.958,10.5,7.968,10.5
		c0.038,0,0.075,0.004,0.112,0.009c1.594,0.122,2.42,1.661,2.42,3.119c-0.073,1.344-0.859,2.509-2.052,3.059
		C8.349,16.733,8.243,16.756,8.134,16.756z"/>
	<path d="M8.25,7.762c-0.414,0-0.75-0.336-0.75-0.75V4.5c0-0.414,0.336-0.75,0.75-0.75S9,4.086,9,4.5v2.512
		C9,7.426,8.664,7.762,8.25,7.762z"/>
	<path d="M15,14.125c-0.188,0-0.367-0.07-0.505-0.196c-0.306-0.279-0.327-0.754-0.049-1.06c1.75-1.919,1.75-4.814,0-6.733
		c-0.135-0.148-0.204-0.34-0.195-0.54c0.009-0.2,0.096-0.385,0.244-0.52C14.633,4.95,14.813,4.881,15,4.881
		c0.21,0,0.413,0.089,0.554,0.245c2.275,2.495,2.275,6.259,0,8.755C15.412,14.036,15.21,14.125,15,14.125z"/>
</g>
</svg>
