<?xml version="1.0" encoding="utf-8"?>
<!-- Generator: Adobe Illustrator 22.1.0, SVG Export Plug-In . SVG Version: 6.00 Build 0)  -->
<svg version="1.1" id="Layer_1" xmlns="http://www.w3.org/2000/svg" xmlns:xlink="http://www.w3.org/1999/xlink" x="0px" y="0px"
	 viewBox="0 0 24 24" style="enable-background:new 0 0 24 24;" xml:space="preserve">
<title>messages-bubble-information</title>
<g>
	<path d="M0.755,24c-0.201,0-0.389-0.078-0.531-0.22C0,23.556-0.059,23.214,0.077,22.928l2.911-6.113
		c-0.974-1.702-1.486-3.632-1.484-5.596C1.513,5.033,6.553,0,12.739,0h0.035c2.102,0,4.157,0.587,5.942,1.697
		c2.552,1.587,4.333,4.073,5.015,7c0.682,2.927,0.183,5.944-1.404,8.495c-1.587,2.552-4.073,4.333-6.999,5.015
		c-0.847,0.198-1.713,0.298-2.574,0.298l0,0c-1.944,0-3.864-0.514-5.565-1.489l-6.112,2.912C0.976,23.975,0.865,24,0.755,24z
		 M12.739,1.5c-5.36,0-9.727,4.361-9.735,9.721c-0.003,1.825,0.506,3.609,1.47,5.158c0.136,0.219,0.151,0.487,0.04,0.719
		L2.34,21.664l4.566-2.175c0.099-0.048,0.211-0.073,0.322-0.073c0.14,0,0.278,0.039,0.397,0.114c1.551,0.965,3.325,1.474,5.13,1.474
		c0.746,0,1.497-0.087,2.232-0.258c2.536-0.591,4.69-2.135,6.066-4.346c1.375-2.212,1.807-4.827,1.216-7.363
		c-0.591-2.536-2.135-4.691-4.346-6.066C16.377,2.009,14.596,1.5,12.774,1.5C12.77,1.5,12.739,1.5,12.739,1.5z"/>
	<path d="M14.255,16.5c-1.241,0-2.25-1.009-2.25-2.25V10.5h-0.75c-0.414,0-0.75-0.336-0.75-0.75S10.841,9,11.254,9h0.75
		c0.827,0,1.5,0.673,1.5,1.5v3.75c0,0.414,0.336,0.75,0.75,0.75h0.75c0.414,0,0.75,0.336,0.75,0.75s-0.336,0.75-0.75,0.75H14.255z"
		/>
	<path d="M12.38,7.5c-0.62,0-1.125-0.505-1.125-1.125c0-0.571,0.426-1.047,0.994-1.114c0.043-0.008,0.087-0.011,0.131-0.011
		c0.012,0,0.027,0.001,0.041,0.002c0.008,0,0.021,0.002,0.033,0.003c0.017,0.001,0.035,0.003,0.052,0.005
		c0.515,0.059,0.927,0.469,0.987,0.984c0.007,0.042,0.011,0.086,0.011,0.13s-0.004,0.088-0.011,0.13
		C13.427,7.074,12.951,7.5,12.38,7.5z"/>
</g>
</svg>
