<svg xmlns="http://www.w3.org/2000/svg" viewBox="0 0 24 24"><title>laptop</title><path d="M23.3,20.691l-2.1-6.83a1.486,1.486,0,0,0-.339-.56,2.639,2.639,0,0,0,.643-1.717V2.918A2.669,2.669,0,0,0,18.831.251H5.164A2.67,2.67,0,0,0,2.5,2.918v8.666A2.64,2.64,0,0,0,3.141,13.3a1.486,1.486,0,0,0-.339.56L.728,20.615a2.167,2.167,0,0,0,1.938,3.136H21.328a2.153,2.153,0,0,0,1.844-1.028A2.1,2.1,0,0,0,23.3,20.691Zm-7.793.457a.5.5,0,0,1-.4.208H8.9a.5.5,0,0,1-.474-.658l.6-1.8a.5.5,0,0,1,.474-.342h5a.5.5,0,0,1,.475.342l.6,1.8A.5.5,0,0,1,15.5,21.148ZM4.5,2.918a.667.667,0,0,1,.667-.667H18.831a.667.667,0,0,1,.666.667v8.666a.667.667,0,0,1-.666.667H5.164a.667.667,0,0,1-.667-.667Z"/></svg>