<svg xmlns="http://www.w3.org/2000/svg" viewBox="0 0 24 24"><defs><style>.a{fill:none;stroke:currentColor;stroke-linecap:round;stroke-linejoin:round;stroke-width:1.5px;}</style></defs><title>taking-pictures-man</title><path class="a" d="M15.75,6c.083,0,.166,0,.25,0a8.725,8.725,0,0,0,3.452-.71"/><path class="a" d="M13.5.8a5.251,5.251,0,0,1,3,9.942"/><path class="a" d="M5.25,23.25a9,9,0,0,1,18,0"/><path class="a" d="M9.75,3.75,9,2.25H4.5l-.75,1.5H2.25a1.5,1.5,0,0,0-1.5,1.5v4.5a1.5,1.5,0,0,0,1.5,1.5h9a1.5,1.5,0,0,0,1.5-1.5V5.25a1.5,1.5,0,0,0-1.5-1.5Z"/><circle class="a" cx="6.75" cy="7.125" r="1.875"/></svg>