<svg xmlns="http://www.w3.org/2000/svg" viewBox="0 0 24 24"><defs><style>.a{fill:none;stroke:currentColor;stroke-linecap:round;stroke-linejoin:round;stroke-width:1.5px;}</style></defs><title>taking-pictures-cameras</title><path class="a" d="M15.75,12.75H13.5l-1.5-3H6l-1.5,3H2.25a1.5,1.5,0,0,0-1.5,1.5v7.5a1.5,1.5,0,0,0,1.5,1.5h13.5a1.5,1.5,0,0,0,1.5-1.5v-7.5A1.5,1.5,0,0,0,15.75,12.75Z"/><circle class="a" cx="9" cy="17.25" r="3"/><path class="a" d="M20.25,14.25h1.5a1.5,1.5,0,0,0,1.5-1.5V5.25a1.5,1.5,0,0,0-1.5-1.5H19.5L18,.75H12l-1.5,3H8.25a1.5,1.5,0,0,0-1.5,1.5v1.5"/><path class="a" d="M12.435,6.693A3,3,0,1,1,16.984,10.5"/></svg>