<?xml version="1.0" encoding="utf-8"?>
<!-- Generator: Adobe Illustrator 22.1.0, SVG Export Plug-In . SVG Version: 6.00 Build 0)  -->
<svg version="1.1" id="Layer_1" xmlns="http://www.w3.org/2000/svg" xmlns:xlink="http://www.w3.org/1999/xlink" x="0px" y="0px"
	 viewBox="0 0 24 24" style="enable-background:new 0 0 24 24;" xml:space="preserve">
<g>
	<title>direction-button-1</title>
	<path d="M13.5,6.5c-0.175,0-0.339-0.093-0.429-0.243L12,4.472l-1.072,1.785C10.839,6.407,10.674,6.5,10.5,6.5
		c-0.09,0-0.179-0.025-0.257-0.071c-0.236-0.142-0.313-0.45-0.172-0.686l1.071-1.785c0.137-0.229,0.355-0.391,0.614-0.456
		c0.08-0.02,0.163-0.031,0.245-0.031c0.18,0,0.357,0.049,0.512,0.143c0.141,0.084,0.26,0.203,0.344,0.344l1.071,1.784
		c0.142,0.236,0.065,0.544-0.171,0.686C13.68,6.475,13.591,6.5,13.5,6.5z"/>
	<path d="M18,14c-0.175,0-0.339-0.093-0.429-0.243c-0.142-0.237-0.065-0.544,0.171-0.686L19.528,12l-1.785-1.072
		c-0.115-0.069-0.195-0.178-0.228-0.307c-0.032-0.13-0.012-0.264,0.056-0.379C17.661,10.093,17.825,10,18,10
		c0.091,0,0.179,0.025,0.257,0.072l1.785,1.071c0.229,0.137,0.391,0.355,0.456,0.614c0.065,0.259,0.025,0.528-0.112,0.757
		c-0.085,0.142-0.205,0.261-0.345,0.345l-1.784,1.07C18.18,13.975,18.091,14,18,14z"/>
	<path d="M11.999,20.529c-0.18,0-0.357-0.049-0.512-0.142c-0.142-0.085-0.261-0.205-0.345-0.345l-1.07-1.784
		c-0.142-0.237-0.065-0.544,0.171-0.686C10.32,17.525,10.409,17.5,10.5,17.5c0.175,0,0.339,0.093,0.429,0.243L12,19.528l1.072-1.785
		c0.09-0.15,0.254-0.243,0.429-0.243c0.09,0,0.179,0.025,0.257,0.071c0.237,0.142,0.313,0.45,0.172,0.686l-1.071,1.785
		c-0.137,0.229-0.355,0.391-0.614,0.456C12.164,20.518,12.081,20.529,11.999,20.529z"/>
	<path d="M6,14c-0.091,0-0.179-0.025-0.257-0.071l-1.785-1.073c-0.229-0.137-0.391-0.355-0.456-0.614
		c-0.065-0.259-0.025-0.528,0.112-0.757c0.084-0.141,0.203-0.26,0.344-0.344l1.785-1.069C5.821,10.025,5.909,10,6,10
		c0.175,0,0.34,0.093,0.429,0.243c0.068,0.114,0.088,0.249,0.056,0.378c-0.032,0.13-0.114,0.239-0.228,0.307l-1.785,1.069
		l1.786,1.073c0.236,0.142,0.313,0.45,0.171,0.687C6.339,13.907,6.174,14,6,14z"/>
	<path d="M9.5,24C8.121,24,7,22.878,7,21.5V17H2.5C1.121,17,0,15.878,0,14.5v-5C0,8.121,1.121,7,2.5,7H7V2.5C7,1.121,8.121,0,9.5,0
		h5C15.878,0,17,1.121,17,2.5V7h4.5C22.878,7,24,8.121,24,9.5v5c0,1.378-1.122,2.5-2.5,2.5H17v4.5c0,1.378-1.122,2.5-2.5,2.5H9.5z
		 M2.5,8C1.673,8,1,8.673,1,9.5v5C1,15.327,1.673,16,2.5,16h5C7.776,16,8,16.224,8,16.5v5C8,22.327,8.673,23,9.5,23h5
		c0.827,0,1.5-0.673,1.5-1.5v-5c0-0.276,0.224-0.5,0.5-0.5h5c0.827,0,1.5-0.673,1.5-1.5v-5C23,8.673,22.327,8,21.5,8h-5
		C16.224,8,16,7.776,16,7.5v-5C16,1.673,15.327,1,14.5,1h-5C8.673,1,8,1.673,8,2.5v5C8,7.776,7.776,8,7.5,8H2.5z"/>
</g>
</svg>
