<?xml version="1.0" encoding="utf-8"?>
<!-- Generator: Adobe Illustrator 22.1.0, SVG Export Plug-In . SVG Version: 6.00 Build 0)  -->
<svg version="1.1" id="Layer_1" xmlns="http://www.w3.org/2000/svg" xmlns:xlink="http://www.w3.org/1999/xlink" x="0px" y="0px"
	 viewBox="0 0 24 24" style="enable-background:new 0 0 24 24;" xml:space="preserve">
<g>
	<title>scroll-horizontal</title>
	<path d="M12,14.498c-1.379,0-2.5-1.122-2.5-2.5c0-1.379,1.121-2.5,2.5-2.5c1.378,0,2.5,1.121,2.5,2.5
		C14.5,13.376,13.378,14.498,12,14.498z M12,10.498c-0.827,0-1.5,0.673-1.5,1.5s0.673,1.5,1.5,1.5s1.5-0.673,1.5-1.5
		S12.827,10.498,12,10.498z"/>
	<path d="M17.914,18c-0.134,0-0.259-0.052-0.354-0.146c-0.195-0.195-0.195-0.512,0-0.707l4.793-4.793
		c0.195-0.195,0.195-0.512,0-0.707L17.56,6.854c-0.195-0.195-0.195-0.512,0-0.707C17.655,6.052,17.78,6,17.914,6
		s0.259,0.052,0.354,0.146l4.793,4.793c0.584,0.585,0.584,1.536,0,2.121l-4.793,4.793C18.173,17.948,18.047,18,17.914,18z"/>
	<path d="M6.086,18c-0.134,0-0.259-0.052-0.354-0.146l-4.793-4.795c-0.585-0.585-0.585-1.536,0-2.121l4.793-4.791
		C5.827,6.052,5.952,6,6.086,6S6.345,6.052,6.44,6.147C6.534,6.241,6.586,6.366,6.586,6.5c0,0.134-0.052,0.259-0.147,0.354
		l-4.793,4.791c-0.195,0.195-0.195,0.512,0,0.707l4.793,4.795c0.195,0.195,0.195,0.512,0,0.707C6.345,17.948,6.219,18,6.086,18z"/>
</g>
</svg>
