<svg xmlns="http://www.w3.org/2000/svg" viewBox="0 0 24 24"><title>battery-charge</title><path d="M23.5,9.628a1.5,1.5,0,0,0-1.5-1.5h-.25a.25.25,0,0,1-.25-.25V6.628a1.5,1.5,0,0,0-1.5-1.5H15.75a.25.25,0,0,0-.25.25v.389a.251.251,0,0,0,.111.208A1.987,1.987,0,0,1,16.5,7.628v4.5a3.493,3.493,0,0,1-2.8,3.415.249.249,0,0,0-.2.244v1.091a.25.25,0,0,0,.25.25H20a1.5,1.5,0,0,0,1.5-1.5v-1.25a.25.25,0,0,1,.25-.25H22a1.5,1.5,0,0,0,1.5-1.5Z"/><path d="M9.5,15.787a.248.248,0,0,0-.2-.244,3.493,3.493,0,0,1-2.8-3.415v-4.5a1.987,1.987,0,0,1,.889-1.653A.251.251,0,0,0,7.5,5.767V5.378a.25.25,0,0,0-.25-.25H2a1.5,1.5,0,0,0-1.5,1.5v9a1.5,1.5,0,0,0,1.5,1.5H9.25a.25.25,0,0,0,.25-.25Z"/><path d="M8.745,5.878a.25.25,0,0,0,.25.25h1.01a.25.25,0,0,0,.25-.25V3.628a.755.755,0,1,0-1.51,0Z"/><path d="M12.745,5.878a.25.25,0,0,0,.25.25h1.01a.25.25,0,0,0,.25-.25V3.628a.755.755,0,0,0-1.51,0Z"/><path d="M12.5,14.378a.25.25,0,0,1,.25-.25H13a2,2,0,0,0,2-2v-4a.5.5,0,0,0-.5-.5h-6a.5.5,0,0,0-.5.5v4a2,2,0,0,0,2,2h.25a.25.25,0,0,1,.25.25v5.75a1,1,0,0,0,2,0Z"/></svg>