<svg xmlns="http://www.w3.org/2000/svg" viewBox="0 0 24 24"><title>socket-box</title><path d="M24,3.5A2.5,2.5,0,0,0,21.5,1H7.5A2.5,2.5,0,0,0,5,3.5V18.313a.188.188,0,0,1-.188.188,1,1,0,0,1-1-1v-8A2.846,2.846,0,0,0,1,6.5a1,1,0,1,0,0,2c.6,0,.812.539.812,1v8a3,3,0,0,0,3,3h.036A.156.156,0,0,1,5,20.648,2.5,2.5,0,0,0,7.5,23h14A2.5,2.5,0,0,0,24,20.5ZM18.5,14a3,3,0,1,1-3,3A3,3,0,0,1,18.5,14Zm-3-7a3,3,0,1,1,3,3A3,3,0,0,1,15.5,7Zm-5,3a3,3,0,1,1,3-3A3,3,0,0,1,10.5,10Zm3,7a3,3,0,1,1-3-3A3,3,0,0,1,13.5,17Z"/><path d="M17.5,8a.5.5,0,0,0,.5-.5V6.548a.5.5,0,0,0-1,0V7.5A.5.5,0,0,0,17.5,8Z"/><path d="M19.5,8a.5.5,0,0,0,.5-.5V6.548a.5.5,0,0,0-1,0V7.5A.5.5,0,0,0,19.5,8Z"/><path d="M9.5,6.048a.5.5,0,0,0-.5.5V7.5a.5.5,0,0,0,1,0V6.548A.5.5,0,0,0,9.5,6.048Z"/><path d="M11.5,6.048a.5.5,0,0,0-.5.5V7.5a.5.5,0,1,0,1,0V6.548A.5.5,0,0,0,11.5,6.048Z"/><path d="M17.5,18a.5.5,0,0,0,.5-.5v-.953a.5.5,0,0,0-1,0V17.5A.5.5,0,0,0,17.5,18Z"/><path d="M19.5,18a.5.5,0,0,0,.5-.5v-.953a.5.5,0,0,0-1,0V17.5A.5.5,0,0,0,19.5,18Z"/><path d="M9.5,16.048a.5.5,0,0,0-.5.5V17.5a.5.5,0,0,0,1,0v-.953A.5.5,0,0,0,9.5,16.048Z"/><path d="M11.5,16.048a.5.5,0,0,0-.5.5V17.5a.5.5,0,0,0,1,0v-.953A.5.5,0,0,0,11.5,16.048Z"/></svg>