<svg xmlns="http://www.w3.org/2000/svg" viewBox="0 0 24 24"><defs><style>.a{fill:none;stroke:currentColor;stroke-linecap:round;stroke-linejoin:round;}</style></defs><title>touch-id-4</title><line class="a" x1="6" y1="13" x2="6" y2="13.667"/><path class="a" d="M15.317,6A6,6,0,0,0,6,11"/><path class="a" d="M18,12.167V11a5.972,5.972,0,0,0-1.01-3.333"/><line class="a" x1="18" y1="16" x2="18" y2="14.167"/><path class="a" d="M16,13.167V11a4,4,0,0,0-8,0v6"/><line class="a" x1="16" y1="17" x2="16" y2="15.167"/><line class="a" x1="10" y1="14.667" x2="10" y2="18"/><path class="a" d="M14,18V11a2,2,0,0,0-4,0v1.667"/><line class="a" x1="12" y1="11.334" x2="12" y2="19"/><line class="a" x1="6" y1="15.5" x2="6" y2="16"/><circle class="a" cx="12" cy="12" r="11.5"/></svg>