<svg xmlns="http://www.w3.org/2000/svg" viewBox="0 0 24 24"><defs><style>.a{fill:none;stroke:currentColor;stroke-linecap:round;stroke-linejoin:round;}</style></defs><title>touch-id-desktop</title><path class="a" d="M9.138,23.5a7.486,7.486,0,0,0,1.362-4"/><path class="a" d="M14.862,23.5a7.486,7.486,0,0,1-1.362-4"/><line class="a" x1="7.5" y1="23.5" x2="16.5" y2="23.5"/><line class="a" x1="0.5" y1="16.5" x2="23.5" y2="16.5"/><rect class="a" x="0.5" y="0.5" width="23" height="19" rx="1" ry="1"/><line class="a" x1="6" y1="11.5" x2="6" y2="12.167"/><path class="a" d="M15.317,4.5A6,6,0,0,0,6,9.5"/><path class="a" d="M18,10.667V9.5a5.972,5.972,0,0,0-1.01-3.333"/><line class="a" x1="18" y1="14.5" x2="18" y2="12.667"/><path class="a" d="M16,11.667V9.5a4,4,0,0,0-8,0v5"/><line class="a" x1="16" y1="14.5" x2="16" y2="13.667"/><line class="a" x1="10" y1="13.167" x2="10" y2="14.5"/><path class="a" d="M14,14.5v-5a2,2,0,0,0-4,0v1.667"/><line class="a" x1="12" y1="9.834" x2="12" y2="14.5"/><line class="a" x1="6" y1="14" x2="6" y2="14.5"/></svg>