<svg xmlns="http://www.w3.org/2000/svg" viewBox="0 0 24 24"><defs><style>.a{fill:none;stroke:currentColor;stroke-linecap:round;stroke-linejoin:round;}</style></defs><title>touch-id-target</title><path class="a" d="M9.5,23.5a9,9,0,0,0,9-9"/><path class="a" d="M.5,11.5v3A9,9,0,0,0,6,22.794"/><path class="a" d="M12.479,1A9.006,9.006,0,0,0,.514,9"/><path class="a" d="M15.5,13.982V14.5a6.026,6.026,0,0,1-.189,1.5"/><path class="a" d="M7,4.044a6.076,6.076,0,0,1,4-.361"/><path class="a" d="M13.972,18.5A6,6,0,0,1,3.5,14.5v-5a5.977,5.977,0,0,1,1.528-4"/><path class="a" d="M9.5,6.5a3,3,0,0,0-3,3v3"/><path class="a" d="M6.5,14.5a3,3,0,0,0,6,0V11.574"/><line class="a" x1="9.5" y1="9.5" x2="9.5" y2="12.5"/><line class="a" x1="9.5" y1="14.5" x2="9.5" y2="15.5"/><circle class="a" cx="17.5" cy="6.5" r="5"/><line class="a" x1="17.5" y1="0.5" x2="17.5" y2="3.5"/><line class="a" x1="17.5" y1="9.5" x2="17.5" y2="12.5"/><line class="a" x1="11.5" y1="6.5" x2="14.5" y2="6.5"/><line class="a" x1="20.5" y1="6.5" x2="23.5" y2="6.5"/><path class="a" d="M17.5,6.25a.25.25,0,1,1-.25.25.25.25,0,0,1,.25-.25"/></svg>