<svg xmlns="http://www.w3.org/2000/svg" viewBox="0 0 24 24"><defs><style>.a{fill:none;stroke:currentColor;stroke-linecap:round;stroke-linejoin:round;}</style></defs><title>touch-id-user</title><path class="a" d="M14.5,23.5a4.5,4.5,0,0,1,9,0Z"/><path class="a" d="M16.638,13.862a4.571,4.571,0,0,0,5.075,1.021"/><circle class="a" cx="19" cy="15.25" r="2.75"/><path class="a" d="M18.5,9.5a8.967,8.967,0,0,0-2.293-6"/><path class="a" d="M.5,11.5v3A9,9,0,0,0,6,22.794"/><path class="a" d="M14,1.706A9,9,0,0,0,.514,9"/><path class="a" d="M7,4.044A6,6,0,0,1,15.5,9.5v1.426"/><path class="a" d="M13.972,18.5A6,6,0,0,1,3.5,14.5v-5a5.977,5.977,0,0,1,1.528-4"/><path class="a" d="M6.5,14.5a3,3,0,0,0,6,0v-5a3,3,0,0,0-6,0v3"/><line class="a" x1="9.5" y1="9.5" x2="9.5" y2="12.5"/><line class="a" x1="9.5" y1="14.5" x2="9.5" y2="15.5"/><path class="a" d="M9.5,23.5a9.017,9.017,0,0,0,2.523-.358"/></svg>