<?xml version="1.0" encoding="utf-8"?>
<!-- Generator: Adobe Illustrator 22.1.0, SVG Export Plug-In . SVG Version: 6.00 Build 0)  -->
<svg version="1.1" id="Layer_1" xmlns="http://www.w3.org/2000/svg" xmlns:xlink="http://www.w3.org/1999/xlink" x="0px" y="0px"
	 viewBox="0 0 24 24" style="enable-background:new 0 0 24 24;" xml:space="preserve">
<title>alert-diamond</title>
<g>
	<circle cx="12" cy="16.873" r="1.125"/>
	<path d="M12,14.248c-0.414,0-0.75-0.336-0.75-0.75v-7.5c0-0.414,0.336-0.75,0.75-0.75s0.75,0.336,0.75,0.75v7.5
		C12.75,13.912,12.413,14.248,12,14.248z"/>
	<path d="M12,23.997c-0.684,0-1.327-0.266-1.81-0.748l-9.44-9.439c-0.998-0.998-0.998-2.623,0-3.621l9.44-9.439
		c0.482-0.483,1.124-0.75,1.807-0.751c0.685,0,1.327,0.265,1.81,0.747c0.007,0.007,9.444,9.443,9.444,9.443
		c0.997,0.999,0.997,2.623,0,3.621l-9.44,9.439C13.327,23.731,12.684,23.997,12,23.997z M11.25,22.188
		c0.2,0.199,0.466,0.309,0.75,0.309c0.284,0,0.55-0.11,0.75-0.31l9.44-9.439c0.413-0.414,0.413-1.087,0-1.501L12.749,1.81
		c-0.01-0.009-0.024-0.025-0.033-0.035c-0.172-0.169-0.437-0.276-0.713-0.276c-0.288,0-0.553,0.111-0.753,0.311l-9.441,9.44
		c-0.413,0.414-0.413,1.087,0,1.5h0L11.25,22.188z"/>
</g>
</svg>
