<svg xmlns="http://www.w3.org/2000/svg" viewBox="0 0 24 24"><defs><style>.a{fill:none;stroke:currentColor;stroke-linecap:round;stroke-linejoin:round;stroke-width:1.5px;}</style></defs><title>keyboard-gaming</title><path class="a" d="M23.25,18.75a3,3,0,0,1-3,3H18l-2.25,1.5H8.25L6,21.75H3.75a3,3,0,0,1-3-3v-4.5a3,3,0,0,1,3-3H6l2.25-1.5h7.5L18,11.25h2.25a3,3,0,0,1,3,3Z"/><line class="a" x1="6.75" y1="14.25" x2="8.25" y2="14.25"/><line class="a" x1="15.75" y1="14.25" x2="17.25" y2="14.25"/><line class="a" x1="11.25" y1="14.25" x2="12.75" y2="14.25"/><line class="a" x1="4.5" y1="17.25" x2="6" y2="17.25"/><line class="a" x1="9" y1="17.25" x2="10.5" y2="17.25"/><line class="a" x1="13.5" y1="17.25" x2="15" y2="17.25"/><line class="a" x1="18" y1="17.25" x2="19.5" y2="17.25"/><line class="a" x1="9" y1="20.25" x2="15" y2="20.25"/><path class="a" d="M5.25,11.25V9.75a4.5,4.5,0,0,1,4.5-4.5H13.5A4.5,4.5,0,0,0,18,.75h0"/></svg>