<svg xmlns="http://www.w3.org/2000/svg" viewBox="0 0 24 24"><defs><style>.a{fill:none;stroke:currentColor;stroke-linecap:round;stroke-linejoin:round;stroke-width:1.5px;}</style></defs><title>mouse-remote</title><path class="a" d="M15.167,7.572a6.5,6.5,0,0,0-6.329,0"/><path class="a" d="M16.747,4.986a9.724,9.724,0,0,0-9.489,0"/><path class="a" d="M18.31,2.429a12.687,12.687,0,0,0-12.615,0"/><path class="a" d="M12,23.25h0A5.249,5.249,0,0,1,6.753,18V15A5.25,5.25,0,0,1,12,9.75h0A5.251,5.251,0,0,1,17.253,15v3A5.25,5.25,0,0,1,12,23.25Z"/><line class="a" x1="12.003" y1="12.75" x2="12.003" y2="14.25"/></svg>