<?xml version="1.0" encoding="utf-8"?>
<!-- Generator: Adobe Illustrator 22.1.0, SVG Export Plug-In . SVG Version: 6.00 Build 0)  -->
<svg version="1.1" id="Layer_1" xmlns="http://www.w3.org/2000/svg" xmlns:xlink="http://www.w3.org/1999/xlink" x="0px" y="0px"
	 viewBox="0 0 24 24" style="enable-background:new 0 0 24 24;" xml:space="preserve">
<g>
	<title>login-1</title>
	<path d="M1.5,24C0.673,24,0,23.327,0,22.5v-21C0,0.673,0.673,0,1.5,0h11C13.327,0,14,0.673,14,1.5V5c0,0.276-0.224,0.5-0.5,0.5
		S13,5.276,13,5V1.5C13,1.224,12.776,1,12.5,1h-11C1.224,1,1,1.224,1,1.5v21C1,22.776,1.224,23,1.5,23h11c0.276,0,0.5-0.224,0.5-0.5
		V19c0-0.276,0.224-0.5,0.5-0.5S14,18.724,14,19v3.5c0,0.827-0.673,1.5-1.5,1.5H1.5z"/>
	<path d="M9.5,17.5c-0.134,0-0.259-0.052-0.354-0.146l-5-5c-0.046-0.046-0.083-0.101-0.108-0.162c-0.05-0.122-0.05-0.261,0-0.383
		c0.026-0.062,0.062-0.116,0.108-0.163l5-5C9.241,6.552,9.366,6.5,9.5,6.5s0.259,0.052,0.354,0.146S10,6.866,10,7
		S9.948,7.259,9.854,7.354L5.707,11.5H23.5c0.276,0,0.5,0.224,0.5,0.5c0,0.276-0.224,0.5-0.5,0.5H5.707l4.146,4.146
		C9.948,16.741,10,16.866,10,17s-0.052,0.259-0.146,0.354S9.634,17.5,9.5,17.5z"/>
</g>
</svg>
