<?xml version="1.0" encoding="utf-8"?>
<!-- Generator: Adobe Illustrator 22.1.0, SVG Export Plug-In . SVG Version: 6.00 Build 0)  -->
<svg version="1.1" id="Layer_1" xmlns="http://www.w3.org/2000/svg" xmlns:xlink="http://www.w3.org/1999/xlink" x="0px" y="0px"
	 viewBox="0 0 24 24" style="enable-background:new 0 0 24 24;" xml:space="preserve">
<g>
	<title>login-key</title>
	<path d="M5.5,20.497c-1.103,0-2-0.897-2-2s0.897-2,2-2s2,0.897,2,2S6.603,20.497,5.5,20.497z M5.5,17.497c-0.551,0-1,0.448-1,1
		s0.449,1,1,1s1-0.448,1-1S6.051,17.497,5.5,17.497z"/>
	<path d="M7.489,23.996c-1.188,0-2.375-0.29-3.435-0.838c-1.776-0.919-3.09-2.478-3.697-4.389c-0.608-1.911-0.436-3.942,0.483-5.719
		c0.921-1.779,2.479-3.093,4.388-3.7c0.744-0.236,1.511-0.356,2.281-0.356c1.077,0,2.122,0.229,3.107,0.681l9.53-9.531
		c0.094-0.094,0.22-0.146,0.354-0.146h3c0.276,0,0.5,0.224,0.5,0.5v3c0,0.134-0.052,0.259-0.146,0.354L23,4.704v1.293
		c0,0.276-0.224,0.5-0.5,0.5h-1.293L21,6.704v1.293c0,0.276-0.224,0.5-0.5,0.5h-1.293L19,8.704v1.293c0,0.276-0.224,0.5-0.5,0.5
		h-1.293l-2.884,2.885c0.951,2.084,0.894,4.523-0.161,6.562C12.869,22.443,10.312,23.996,7.489,23.996z M7.509,9.993
		c-0.667,0-1.333,0.104-1.977,0.309c-1.655,0.526-3.005,1.665-3.803,3.207c-1.647,3.183-0.397,7.113,2.786,8.76
		c0.932,0.482,1.933,0.726,2.976,0.726c2.447,0,4.663-1.346,5.784-3.512c0.968-1.87,0.968-4.104,0-5.974
		c-0.101-0.194-0.064-0.429,0.09-0.583l3.282-3.283c0.094-0.094,0.22-0.146,0.354-0.146h1v-1c0-0.134,0.052-0.259,0.146-0.354
		l0.5-0.5c0.094-0.094,0.22-0.146,0.354-0.146h1v-1c0-0.134,0.052-0.259,0.146-0.354l0.5-0.5c0.094-0.094,0.22-0.146,0.354-0.146h1
		v-1c0-0.134,0.052-0.259,0.146-0.354L23,3.29V0.997h-2.293l-9.636,9.636c-0.094,0.094-0.22,0.146-0.354,0.146
		c-0.079,0-0.159-0.019-0.23-0.056C9.565,10.246,8.535,9.993,7.509,9.993z"/>
</g>
</svg>
