<?xml version="1.0" encoding="utf-8"?>
<!-- Generator: Adobe Illustrator 22.1.0, SVG Export Plug-In . SVG Version: 6.00 Build 0)  -->
<svg version="1.1" id="Light" xmlns="http://www.w3.org/2000/svg" xmlns:xlink="http://www.w3.org/1999/xlink" x="0px" y="0px"
	 viewBox="0 0 24 24" style="enable-background:new 0 0 24 24;" xml:space="preserve">
<g>
	<title>single-man-actions-warning</title>
	<circle cx="17.499" cy="20.75" r="0.75"/>
	<path d="M17.499,19c-0.276,0-0.5-0.224-0.5-0.5v-3c0-0.276,0.224-0.5,0.5-0.5s0.5,0.224,0.5,0.5v3
		C17.999,18.776,17.775,19,17.499,19z"/>
	<path d="M12.443,23.997c-0.506,0-0.966-0.256-1.232-0.684c-0.263-0.427-0.282-0.968-0.049-1.411l5.056-9.635
		c0.137-0.257,0.344-0.464,0.598-0.599c0.21-0.112,0.445-0.172,0.681-0.172c0.143,0,0.285,0.021,0.423,0.063
		c0.368,0.112,0.671,0.359,0.854,0.698c0.003,0.005,5.062,9.645,5.062,9.645c0.233,0.443,0.214,0.982-0.048,1.409
		c-0.267,0.43-0.727,0.686-1.231,0.686H12.443z M17.498,12.497c-0.073,0-0.145,0.018-0.211,0.053
		c-0.079,0.042-0.143,0.106-0.186,0.185l-5.054,9.632c-0.069,0.132-0.064,0.293,0.014,0.419c0.082,0.131,0.224,0.21,0.38,0.21
		h10.114c0.157,0,0.3-0.079,0.382-0.212c0.077-0.125,0.083-0.286,0.013-0.417l-5.056-9.635c-0.056-0.104-0.15-0.181-0.265-0.216
		C17.586,12.504,17.542,12.497,17.498,12.497z"/>
	<path d="M5.499,8c-2.206,0-4-1.794-4-4c0-0.691,0.183-1.375,0.529-1.979c0.016-0.034,0.034-0.06,0.046-0.077
		C2.789,0.749,4.104,0,5.499,0C7.5,0,9.204,1.498,9.462,3.484c0,0.003,0.002,0.012,0.002,0.012C9.488,3.685,9.499,3.846,9.499,4
		C9.499,6.206,7.704,8,5.499,8z M2.653,3.058C2.551,3.363,2.499,3.678,2.499,4c0,1.654,1.346,3,3,3C7.075,7,8.372,5.778,8.49,4.231
		C7.899,4.41,7.287,4.5,6.667,4.5c-0.002,0-0.004,0-0.005,0C5.214,4.499,3.774,3.977,2.653,3.058z M6.674,3.5
		C7.26,3.499,7.837,3.402,8.392,3.211C8.04,1.918,6.856,1,5.499,1C4.572,1,3.703,1.428,3.135,2.155C4.1,3.01,5.371,3.498,6.657,3.5
		c0.003,0,0.005,0,0.008,0S6.671,3.5,6.674,3.5z"/>
	<path d="M3.499,24C3.241,24,3.022,23.799,3,23.542L2.539,18h-2.04c-0.276,0-0.5-0.224-0.5-0.5V14
		c-0.001-2.109,1.229-4.059,3.132-4.967c0.75-0.357,1.545-0.538,2.364-0.538c0.625,0,1.243,0.107,1.84,0.318
		c1.385,0.49,2.496,1.491,3.128,2.817c0.119,0.249,0.013,0.548-0.236,0.667c-0.068,0.032-0.141,0.049-0.215,0.049h0
		c-0.192,0-0.369-0.112-0.451-0.284c-0.743-1.557-2.34-2.563-4.069-2.563c-0.671,0-1.32,0.147-1.93,0.438
		C2.004,10.679,0.998,12.274,0.999,14v3h2c0.258,0,0.477,0.201,0.498,0.458L3.959,23h3.08L7.5,17.458
		C7.522,17.201,7.741,17,7.999,17h1.482c0.276,0,0.5,0.224,0.5,0.5S9.757,18,9.481,18H8.459l-0.462,5.542
		C7.975,23.799,7.757,24,7.499,24H3.499z"/>
</g>
</svg>
