<?xml version="1.0" encoding="utf-8"?>
<!-- Generator: Adobe Illustrator 22.1.0, SVG Export Plug-In . SVG Version: 6.00 Build 0)  -->
<svg version="1.1" id="Light" xmlns="http://www.w3.org/2000/svg" xmlns:xlink="http://www.w3.org/1999/xlink" x="0px" y="0px"
	 viewBox="0 0 24 24" style="enable-background:new 0 0 24 24;" xml:space="preserve">
<g>
	<title>single-man-actions-refresh</title>
	<path d="M17.638,24.005c-0.664,0-1.322-0.109-1.955-0.325c-1.689-0.576-3.034-1.893-3.683-3.526v1.844c0,0.276-0.224,0.5-0.5,0.5
		s-0.5-0.224-0.5-0.5v-3.5c0-0.276,0.224-0.5,0.5-0.5H15c0.276,0,0.5,0.224,0.5,0.5s-0.224,0.5-0.5,0.5h-2.313
		c0.373,1.741,1.623,3.157,3.319,3.735c0.529,0.18,1.078,0.272,1.633,0.272c2.173,0,4.104-1.381,4.805-3.435
		c0.069-0.203,0.259-0.339,0.473-0.339c0.055,0,0.11,0.009,0.162,0.028c0.125,0.042,0.227,0.132,0.286,0.252
		c0.059,0.12,0.068,0.256,0.024,0.382C22.552,22.352,20.24,24.005,17.638,24.005z"/>
	<path d="M20,16.998c-0.276,0-0.5-0.224-0.5-0.5s0.224-0.5,0.5-0.5h2.312c-0.373-1.741-1.622-3.157-3.318-3.735
		c-0.533-0.182-1.086-0.274-1.642-0.274c-0.776,0-1.527,0.176-2.233,0.522c-1.216,0.597-2.126,1.633-2.563,2.915
		c-0.069,0.203-0.259,0.339-0.473,0.339c-0.055,0-0.11-0.009-0.163-0.027c-0.125-0.042-0.227-0.132-0.286-0.252
		s-0.068-0.255-0.025-0.382c0.524-1.535,1.614-2.775,3.069-3.49c0.845-0.415,1.744-0.626,2.673-0.626
		c0.666,0,1.327,0.11,1.965,0.328c1.688,0.576,3.034,1.893,3.683,3.526v-1.844c0-0.276,0.224-0.5,0.5-0.5s0.5,0.224,0.5,0.5v3.5
		c0,0.276-0.224,0.5-0.5,0.5H20z"/>
	<path d="M5.5,7.998c-2.206,0-4-1.794-4-4c0-0.691,0.183-1.375,0.529-1.98c0.015-0.032,0.032-0.057,0.044-0.073
		C2.79,0.747,4.104-0.002,5.5-0.002c2.002,0,3.706,1.498,3.963,3.484c0,0.003,0.002,0.011,0.002,0.011
		C9.489,3.684,9.5,3.844,9.5,3.998C9.5,6.204,7.706,7.998,5.5,7.998z M2.654,3.056C2.552,3.361,2.5,3.677,2.5,3.998
		c0,1.654,1.346,3,3,3c1.576,0,2.873-1.222,2.991-2.769C7.9,4.408,7.289,4.498,6.669,4.498c0,0-0.003,0-0.003,0
		C5.218,4.498,3.776,3.976,2.654,3.056z M3.136,2.153c0.966,0.857,2.24,1.345,3.529,1.345c0.592,0,1.171-0.097,1.728-0.289
		C8.042,1.916,6.857,0.998,5.5,0.998C4.573,0.998,3.704,1.426,3.136,2.153z"/>
	<path d="M3.5,23.998c-0.258,0-0.477-0.201-0.498-0.458L2.54,17.998H0.5c-0.276,0-0.5-0.224-0.5-0.5v-3.5
		c-0.001-2.109,1.229-4.059,3.132-4.967c0.749-0.357,1.545-0.538,2.364-0.538c0.624,0,1.243,0.107,1.84,0.318
		c1.385,0.49,2.496,1.491,3.128,2.817c0.119,0.249,0.013,0.548-0.236,0.667c-0.069,0.032-0.141,0.048-0.215,0.048c0,0,0,0,0,0
		c-0.192,0-0.369-0.112-0.451-0.284c-0.517-1.085-1.426-1.904-2.559-2.305c-0.488-0.173-0.995-0.26-1.505-0.26
		c-0.67,0-1.321,0.148-1.934,0.441C2.005,10.677,0.999,12.272,1,13.998v3h2c0.258,0,0.477,0.201,0.498,0.458l0.462,5.542h3.08
		l0.462-5.542C7.523,17.2,7.742,16.998,8,16.998h1.482c0.276,0,0.5,0.224,0.5,0.5s-0.224,0.5-0.5,0.5H8.46L7.998,23.54
		c-0.022,0.257-0.24,0.458-0.498,0.458H3.5z"/>
</g>
</svg>
