<?xml version="1.0" encoding="utf-8"?>
<!-- Generator: Adobe Illustrator 22.1.0, SVG Export Plug-In . SVG Version: 6.00 Build 0)  -->
<svg version="1.1" id="Light" xmlns="http://www.w3.org/2000/svg" xmlns:xlink="http://www.w3.org/1999/xlink" x="0px" y="0px"
	 viewBox="0 0 24 24" style="enable-background:new 0 0 24 24;" xml:space="preserve">
<g>
	<title>single-man-actions-heart</title>
	<path d="M17.501,23.791c-0.259,0-0.504-0.099-0.691-0.278l-4.783-4.988c-1.069-1.069-1.333-2.703-0.654-4.063
		c0.601-1.202,1.812-1.948,3.159-1.948c0.549,0,1.078,0.125,1.572,0.372c0.339,0.17,0.647,0.392,0.916,0.66l0.482,0.482l0.481-0.482
		c0.666-0.666,1.551-1.033,2.493-1.033c0.942,0,1.828,0.367,2.493,1.033c0.268,0.268,0.49,0.576,0.66,0.916
		c0.679,1.36,0.414,2.995-0.661,4.07l-4.746,4.951c-0.185,0.193-0.434,0.302-0.701,0.308C17.521,23.791,17.503,23.791,17.501,23.791
		z M14.531,13.514c-0.966,0-1.833,0.535-2.264,1.396c-0.487,0.974-0.296,2.146,0.473,2.916l4.76,4.965l4.753-4.958
		c0.775-0.776,0.967-1.949,0.48-2.923c-0.121-0.243-0.281-0.464-0.473-0.656c-0.477-0.477-1.112-0.74-1.786-0.74
		s-1.309,0.263-1.786,0.74l-0.835,0.835c-0.091,0.091-0.22,0.144-0.354,0.144s-0.262-0.052-0.354-0.144l-0.835-0.835
		c-0.193-0.192-0.413-0.352-0.656-0.473C15.303,13.604,14.925,13.514,14.531,13.514z"/>
	<path d="M5.501,8c-2.206,0-4-1.794-4-4c0-0.691,0.183-1.375,0.529-1.979c0.016-0.033,0.033-0.058,0.045-0.074
		C2.791,0.749,4.106,0,5.501,0c2.001,0,3.705,1.498,3.963,3.484c0,0.003,0.002,0.012,0.002,0.012C9.49,3.685,9.501,3.846,9.501,4
		C9.501,6.206,7.707,8,5.501,8z M2.655,3.058C2.553,3.363,2.501,3.678,2.501,4c0,1.654,1.346,3,3,3c1.576,0,2.873-1.222,2.991-2.769
		C7.901,4.41,7.29,4.5,6.669,4.5c-0.002,0-0.004,0-0.005,0C5.217,4.499,3.776,3.977,2.655,3.058z M6.676,3.5
		C7.263,3.499,7.84,3.402,8.395,3.211C8.043,1.918,6.858,1,5.501,1C4.574,1,3.706,1.428,3.138,2.155
		C4.102,3.01,5.373,3.498,6.66,3.5c0.003,0,0.005,0,0.008,0S6.673,3.5,6.676,3.5z"/>
	<path d="M3.501,24c-0.258,0-0.477-0.201-0.498-0.458L2.541,18h-2.04c-0.276,0-0.5-0.224-0.5-0.5V14
		C0,11.891,1.23,9.941,3.134,9.033c0.745-0.355,1.538-0.535,2.359-0.535c2.114,0,4.065,1.229,4.973,3.132
		c0.057,0.121,0.065,0.256,0.02,0.382c-0.045,0.126-0.135,0.227-0.256,0.285c-0.068,0.032-0.14,0.049-0.215,0.049
		c-0.192,0-0.369-0.112-0.451-0.285c-0.743-1.557-2.34-2.562-4.069-2.562c-0.671,0-1.32,0.147-1.929,0.438
		C2.006,10.679,1,12.274,1.001,14v3h2c0.258,0,0.477,0.201,0.498,0.458L3.961,23h3.08l0.462-5.542C7.525,17.201,7.743,17,8.001,17
		h1.482c0.276,0,0.5,0.224,0.5,0.5S9.759,18,9.483,18H8.461L8,23.542C7.978,23.799,7.759,24,7.501,24H3.501z"/>
</g>
</svg>
