<?xml version="1.0" encoding="utf-8"?>
<!-- Generator: Adobe Illustrator 22.1.0, SVG Export Plug-In . SVG Version: 6.00 Build 0)  -->
<svg version="1.1" id="Light" xmlns="http://www.w3.org/2000/svg" xmlns:xlink="http://www.w3.org/1999/xlink" x="0px" y="0px"
	 viewBox="0 0 24 24" style="enable-background:new 0 0 24 24;" xml:space="preserve">
<g>
	<title>single-man-actions-monitor</title>
	<path d="M14.5,24c-0.276,0-0.5-0.224-0.5-0.5s0.224-0.5,0.5-0.5H17v-2h-4.5c-0.827,0-1.5-0.673-1.5-1.5v-7
		c0-0.827,0.673-1.5,1.5-1.5h10c0.827,0,1.5,0.673,1.5,1.5v7c0,0.827-0.673,1.5-1.5,1.5H18v2h2.5c0.276,0,0.5,0.224,0.5,0.5
		S20.776,24,20.5,24H14.5z M12.5,12c-0.276,0-0.5,0.224-0.5,0.5v7c0,0.276,0.224,0.5,0.5,0.5h10c0.276,0,0.5-0.224,0.5-0.5v-7
		c0-0.276-0.224-0.5-0.5-0.5H12.5z"/>
	<path d="M5.5,8c-2.206,0-4-1.794-4-4c0-0.691,0.183-1.375,0.529-1.979c0.015-0.032,0.033-0.057,0.044-0.073
		C2.79,0.749,4.104,0,5.5,0c2.001,0,3.705,1.498,3.963,3.484c0,0.003,0.002,0.012,0.002,0.012C9.489,3.685,9.5,3.846,9.5,4
		C9.5,6.206,7.706,8,5.5,8z M2.654,3.058C2.552,3.363,2.5,3.678,2.5,4c0,1.654,1.346,3,3,3c1.576,0,2.873-1.222,2.991-2.769
		C7.9,4.41,7.289,4.5,6.668,4.5c-0.002,0-0.004,0-0.005,0C5.215,4.499,3.775,3.977,2.654,3.058z M6.675,3.5
		c0.587-0.001,1.164-0.098,1.719-0.289C8.042,1.918,6.857,1,5.5,1C4.573,1,3.704,1.428,3.136,2.155
		C4.101,3.01,5.372,3.498,6.659,3.5c0.003,0,0.005,0,0.008,0S6.672,3.5,6.675,3.5z"/>
	<path d="M3.5,24c-0.258,0-0.477-0.201-0.498-0.458L2.54,18H0.5C0.224,18,0,17.776,0,17.5V14c0-1.722,0.822-3.367,2.2-4.4
		c0.96-0.72,2.098-1.101,3.29-1.101c0.262,0,0.527,0.019,0.788,0.056C7.732,8.763,9.019,9.525,9.9,10.7
		c0.08,0.107,0.114,0.239,0.095,0.371C9.976,11.203,9.907,11.32,9.8,11.4c-0.087,0.065-0.191,0.1-0.3,0.1
		c-0.157,0-0.306-0.075-0.4-0.2c-0.721-0.962-1.774-1.585-2.964-1.755C5.922,9.515,5.704,9.499,5.489,9.499
		c-0.974,0-1.904,0.312-2.689,0.901C1.673,11.245,1,12.591,1,14v3h2c0.258,0,0.477,0.201,0.498,0.458L3.96,23h3.08l0.462-5.542
		C7.523,17.201,7.742,17,8,17h1.482c0.276,0,0.5,0.224,0.5,0.5S9.758,18,9.482,18H8.46l-0.462,5.542C7.977,23.799,7.758,24,7.5,24
		H3.5z"/>
</g>
</svg>
