<?xml version="1.0" encoding="utf-8"?>
<!-- Generator: Adobe Illustrator 22.1.0, SVG Export Plug-In . SVG Version: 6.00 Build 0)  -->
<svg version="1.1" id="Layer_1" xmlns="http://www.w3.org/2000/svg" xmlns:xlink="http://www.w3.org/1999/xlink" x="0px" y="0px"
	 viewBox="0 0 24 24" style="enable-background:new 0 0 24 24;" xml:space="preserve">
<g>
	<title>archive-drawer-table</title>
	<path d="M5.5,10.5C4.673,10.5,4,9.827,4,9V5c0-0.827,0.673-1.5,1.5-1.5h13C19.327,3.5,20,4.173,20,5v4c0,0.827-0.673,1.5-1.5,1.5
		H5.5z M5.5,4.5C5.224,4.5,5,4.724,5,5v4c0,0.276,0.224,0.5,0.5,0.5h13C18.776,9.5,19,9.276,19,9V5c0-0.276-0.224-0.5-0.5-0.5H5.5z"
		/>
	<path d="M5.5,19.5C4.673,19.5,4,18.827,4,18v-4c0-0.827,0.673-1.5,1.5-1.5h13c0.827,0,1.5,0.673,1.5,1.5v4
		c0,0.827-0.673,1.5-1.5,1.5H5.5z M5.5,13.5C5.224,13.5,5,13.724,5,14v4c0,0.276,0.224,0.5,0.5,0.5h13c0.276,0,0.5-0.224,0.5-0.5v-4
		c0-0.276-0.224-0.5-0.5-0.5H5.5z"/>
	<path d="M10.5,7.5C10.224,7.5,10,7.276,10,7s0.224-0.5,0.5-0.5h3C13.776,6.5,14,6.724,14,7s-0.224,0.5-0.5,0.5H10.5z"/>
	<path d="M10.5,16.5c-0.276,0-0.5-0.224-0.5-0.5s0.224-0.5,0.5-0.5h3c0.276,0,0.5,0.224,0.5,0.5s-0.224,0.5-0.5,0.5H10.5z"/>
	<path d="M19,23.5c-0.276,0-0.5-0.224-0.5-0.5v-0.5h-12V23c0,0.276-0.224,0.5-0.5,0.5S5.5,23.276,5.5,23v-0.5h-2
		c-1.374-0.005-2.495-1.125-2.5-2.498V1.5H0.5C0.224,1.5,0,1.276,0,1s0.224-0.5,0.5-0.5h23C23.776,0.5,24,0.724,24,1
		s-0.224,0.5-0.5,0.5H23V20c-0.004,1.375-1.125,2.496-2.499,2.5H19.5V23C19.5,23.276,19.276,23.5,19,23.5z M2,20
		c0.003,0.824,0.677,1.497,1.502,1.5H20.5c0.824-0.002,1.498-0.676,1.5-1.501V1.5H2V20z"/>
</g>
</svg>
