<svg xmlns="http://www.w3.org/2000/svg" viewBox="0 0 24 24"><defs><style>.a{fill:none;stroke:currentColor;stroke-linecap:round;stroke-linejoin:round;}</style></defs><title>read-email-laptop</title><rect class="a" x="6.5" y="4" width="11" height="7" rx="1" ry="1"/><path class="a" d="M6.5,5.5,11,7.8A2,2,0,0,0,13,7.8l4.5-2.3"/><rect class="a" x="3.5" y="1" width="17" height="13" rx="1.667" ry="1.667"/><path class="a" d="M23.4,20.722l-1.56-4.368A3.547,3.547,0,0,0,18.5,14H5.5a3.547,3.547,0,0,0-3.341,2.354L.6,20.722a1.722,1.722,0,0,0-.1.573A1.7,1.7,0,0,0,2.205,23H21.8a1.7,1.7,0,0,0,1.7-1.7A1.722,1.722,0,0,0,23.4,20.722Z"/><line class="a" x1="8" y1="20" x2="16" y2="20"/></svg>