<?xml version="1.0" encoding="utf-8"?>
<!-- Generator: Adobe Illustrator 22.1.0, SVG Export Plug-In . SVG Version: 6.00 Build 0)  -->
<svg version="1.1" id="Layer_1" xmlns="http://www.w3.org/2000/svg" xmlns:xlink="http://www.w3.org/1999/xlink" x="0px" y="0px"
	 viewBox="0 0 24 24" style="enable-background:new 0 0 24 24;" xml:space="preserve">
<g>
	<title>programming-team-chat</title>
	<path d="M12.5,13c-0.066,0-0.131-0.013-0.192-0.038C12.121,12.885,12,12.703,12,12.5V10H5.5C4.673,10,4,9.327,4,8.5v-7
		C4,0.673,4.673,0,5.5,0h14C20.327,0,21,0.673,21,1.5v7c0,0.827-0.673,1.5-1.5,1.5h-3.793l-2.854,2.854
		C12.759,12.948,12.634,13,12.5,13z M5.5,1C5.224,1,5,1.224,5,1.5v7C5,8.776,5.224,9,5.5,9h7C12.776,9,13,9.224,13,9.5v1.793
		l2.146-2.146C15.241,9.052,15.367,9,15.5,9h4C19.776,9,20,8.776,20,8.5v-7C20,1.224,19.776,1,19.5,1H5.5z"/>
	<path d="M4.88,19.5c-1.792,0-3.25-1.458-3.25-3.25S3.088,13,4.88,13s3.25,1.458,3.25,3.25S6.672,19.5,4.88,19.5z M4.88,14
		c-1.241,0-2.25,1.009-2.25,2.25S3.64,18.5,4.88,18.5s2.25-1.009,2.25-2.25S6.121,14,4.88,14z"/>
	<path d="M9.259,24c-0.235,0-0.436-0.16-0.487-0.39c-0.235-1.04-0.861-1.926-1.762-2.494c-0.64-0.404-1.374-0.618-2.122-0.618
		c-0.297,0-0.595,0.034-0.888,0.1c-1.493,0.337-2.675,1.52-3.012,3.012C0.936,23.84,0.735,24,0.499,24
		c-0.036,0-0.073-0.004-0.108-0.012c-0.27-0.061-0.44-0.329-0.379-0.598c0.422-1.867,1.901-3.345,3.767-3.767
		c0.365-0.082,0.739-0.124,1.109-0.124c0.937,0,1.855,0.267,2.655,0.772c1.127,0.712,1.91,1.82,2.204,3.119
		c0.061,0.269-0.109,0.537-0.377,0.598C9.333,23.996,9.296,24,9.259,24z"/>
	<path d="M19.12,19.5c-1.792,0-3.25-1.458-3.25-3.25S17.328,13,19.12,13s3.25,1.458,3.25,3.25S20.912,19.5,19.12,19.5z M19.12,14
		c-1.241,0-2.25,1.009-2.25,2.25s1.009,2.25,2.25,2.25s2.25-1.009,2.25-2.25S20.361,14,19.12,14z"/>
	<path d="M23.5,24c-0.235,0-0.435-0.16-0.488-0.389c-0.407-1.803-2.043-3.111-3.89-3.111c-0.295,0-0.591,0.033-0.882,0.099
		c-1.493,0.337-2.675,1.519-3.012,3.012C15.176,23.84,14.975,24,14.74,24c-0.036,0-0.073-0.004-0.108-0.012
		c-0.27-0.061-0.439-0.329-0.379-0.598c0.422-1.867,1.901-3.345,3.767-3.767c0.362-0.082,0.731-0.123,1.099-0.123
		c2.311,0,4.358,1.636,4.868,3.89c0.061,0.269-0.108,0.537-0.377,0.598C23.574,23.996,23.537,24,23.5,24z"/>
	<path d="M15,7.5c-0.134,0-0.259-0.052-0.354-0.146S14.5,7.134,14.5,7s0.052-0.259,0.146-0.354L16.293,5l-1.646-1.646
		C14.552,3.259,14.5,3.134,14.5,3s0.052-0.259,0.146-0.354S14.867,2.5,15,2.5s0.259,0.052,0.354,0.146l2,2
		C17.448,4.741,17.5,4.866,17.5,5s-0.052,0.259-0.146,0.354l-2,2C15.259,7.448,15.134,7.5,15,7.5z"/>
	<path d="M10,7.5c-0.134,0-0.259-0.052-0.354-0.146l-2-2C7.552,5.259,7.5,5.134,7.5,5s0.052-0.259,0.146-0.354l2-2
		C9.741,2.552,9.867,2.5,10,2.5s0.259,0.052,0.354,0.146S10.5,2.866,10.5,3s-0.052,0.259-0.146,0.354L8.707,5l1.646,1.646
		C10.448,6.741,10.5,6.866,10.5,7s-0.052,0.259-0.146,0.354S10.134,7.5,10,7.5z"/>
	<path d="M11.5,7.5c-0.077,0-0.154-0.018-0.223-0.053c-0.247-0.123-0.347-0.424-0.224-0.671l2-4C13.139,2.606,13.31,2.5,13.5,2.5
		c0.077,0,0.154,0.018,0.223,0.053c0.247,0.123,0.347,0.424,0.224,0.671l-2,4C11.862,7.394,11.691,7.5,11.5,7.5z"/>
</g>
</svg>
