<?xml version="1.0" encoding="utf-8"?>
<!-- Generator: Adobe Illustrator 22.1.0, SVG Export Plug-In . SVG Version: 6.00 Build 0)  -->
<svg version="1.1" id="Layer_1" xmlns="http://www.w3.org/2000/svg" xmlns:xlink="http://www.w3.org/1999/xlink" x="0px" y="0px"
	 viewBox="0 0 24 24" style="enable-background:new 0 0 24 24;" xml:space="preserve">
<g>
	<title>programming-team-chat-2</title>
	<path d="M11.542,13c-0.066,0-0.131-0.013-0.192-0.038c-0.187-0.077-0.308-0.259-0.308-0.462V10h-6.5c-0.827,0-1.5-0.673-1.5-1.5v-7
		c0-0.827,0.673-1.5,1.5-1.5h14c0.827,0,1.5,0.673,1.5,1.5v7c0,0.827-0.673,1.5-1.5,1.5h-3.793l-2.854,2.854
		C11.801,12.948,11.675,13,11.542,13z M4.542,1c-0.276,0-0.5,0.224-0.5,0.5v7c0,0.276,0.224,0.5,0.5,0.5h7
		c0.276,0,0.5,0.224,0.5,0.5v1.793l2.146-2.146C14.283,9.052,14.408,9,14.542,9h4c0.276,0,0.5-0.224,0.5-0.5v-7
		c0-0.276-0.224-0.5-0.5-0.5H4.542z"/>
	<path d="M5.128,20.182c-0.047,0-0.093-0.001-0.14-0.003c-1.067-0.046-2.022-0.615-2.576-1.482
		c-0.109,0.435-0.282,0.853-0.516,1.238c-0.092,0.15-0.251,0.24-0.427,0.24c-0.092,0-0.181-0.025-0.26-0.073
		c-0.114-0.069-0.194-0.179-0.226-0.309c-0.032-0.13-0.011-0.264,0.059-0.378c0.351-0.577,0.525-1.24,0.502-1.915l0-0.917
		c0-1.975,1.607-3.582,3.582-3.582s3.582,1.607,3.582,3.582v0.9c-0.023,0.689,0.151,1.354,0.503,1.931
		c0.069,0.114,0.09,0.248,0.059,0.378c-0.031,0.13-0.112,0.24-0.226,0.309c-0.078,0.048-0.168,0.073-0.26,0.073
		c-0.176,0-0.336-0.09-0.427-0.24c-0.235-0.386-0.41-0.807-0.519-1.246C7.255,19.596,6.234,20.182,5.128,20.182z M2.972,17.499
		c0.232,0.946,1.063,1.638,2.059,1.681c0.029,0.001,0.059,0.002,0.089,0.002c1.026,0,1.915-0.708,2.158-1.683
		c-0.802-0.168-1.552-0.549-2.153-1.096C4.525,16.95,3.775,17.331,2.972,17.499z M5.126,14.001c-1.417,0-2.571,1.148-2.582,2.562
		c0.846-0.117,1.631-0.541,2.203-1.203c0.093-0.108,0.23-0.169,0.378-0.169c0.147,0,0.285,0.062,0.378,0.169
		c0.568,0.657,1.345,1.08,2.204,1.202C7.696,15.148,6.543,14.001,5.126,14.001z"/>
	<path d="M18.959,20.182c-0.047,0-0.094-0.001-0.142-0.003c-1.067-0.046-2.022-0.615-2.575-1.482
		c-0.109,0.435-0.282,0.853-0.516,1.238c-0.092,0.15-0.251,0.24-0.427,0.24c-0.092,0-0.181-0.025-0.26-0.073
		c-0.114-0.07-0.194-0.179-0.226-0.309c-0.031-0.13-0.011-0.264,0.059-0.378c0.351-0.577,0.525-1.24,0.503-1.915l0-0.917
		c0-1.976,1.607-3.583,3.582-3.583c1.976,0.001,3.583,1.608,3.582,3.583v0.9c-0.023,0.689,0.151,1.354,0.503,1.931
		c0.07,0.114,0.091,0.248,0.059,0.378c-0.031,0.13-0.112,0.24-0.226,0.309c-0.078,0.048-0.168,0.073-0.26,0.073c0,0,0,0,0,0
		c-0.176,0-0.335-0.09-0.427-0.24c-0.235-0.385-0.409-0.804-0.518-1.241c-0.15,0.235-0.33,0.451-0.537,0.641
		C20.536,19.881,19.765,20.182,18.959,20.182z M16.801,17.499c0.232,0.946,1.063,1.638,2.059,1.681
		c0.029,0.001,0.059,0.002,0.09,0.002c0.561,0,1.096-0.207,1.506-0.584c0.327-0.3,0.55-0.677,0.654-1.099
		c-0.802-0.167-1.552-0.549-2.154-1.096C18.354,16.95,17.604,17.331,16.801,17.499z M18.956,14c-0.69,0-1.339,0.268-1.826,0.756
		c-0.484,0.483-0.752,1.125-0.757,1.808c0.846-0.117,1.631-0.541,2.204-1.203c0.093-0.107,0.231-0.169,0.378-0.169
		c0.147,0,0.285,0.062,0.378,0.169c0.568,0.657,1.345,1.08,2.204,1.202C21.526,15.148,20.373,14.001,18.956,14z"/>
	<path d="M1.042,24c-0.078,0-0.157-0.019-0.227-0.054c-0.246-0.125-0.344-0.427-0.218-0.673c0.49-0.959,1.256-1.726,2.216-2.216
		c0.727-0.371,1.504-0.56,2.31-0.56c0.531,0,1.06,0.084,1.572,0.25c1.293,0.418,2.346,1.315,2.964,2.526
		c0.125,0.245,0.027,0.547-0.218,0.673C9.37,23.982,9.292,24,9.213,24l0,0c-0.189,0-0.36-0.104-0.446-0.272
		c-0.497-0.973-1.343-1.693-2.382-2.03c-0.412-0.133-0.837-0.201-1.263-0.201c-0.647,0-1.271,0.151-1.856,0.45
		c-0.771,0.394-1.386,1.01-1.78,1.78C1.401,23.896,1.231,24,1.042,24z"/>
	<path d="M23.042,24.001c-0.189,0-0.359-0.104-0.446-0.272c-0.497-0.973-1.343-1.693-2.382-2.03
		c-0.412-0.133-0.837-0.201-1.263-0.201c-0.647,0-1.271,0.151-1.855,0.45c-0.771,0.394-1.386,1.009-1.78,1.78
		C15.23,23.896,15.06,24,14.871,24c-0.079,0-0.157-0.019-0.227-0.055c-0.119-0.061-0.207-0.164-0.249-0.291
		c-0.041-0.127-0.03-0.262,0.031-0.381c0.49-0.959,1.256-1.726,2.216-2.216c0.723-0.369,1.499-0.557,2.307-0.557
		c1.926,0,3.665,1.062,4.539,2.772c0.125,0.246,0.028,0.547-0.218,0.673C23.2,23.982,23.121,24.001,23.042,24.001L23.042,24.001z"/>
	<path d="M14.042,7.503c-0.134,0-0.259-0.052-0.354-0.146s-0.146-0.22-0.146-0.354s0.052-0.259,0.146-0.354l1.646-1.646
		l-1.646-1.646c-0.094-0.094-0.146-0.22-0.146-0.354s0.052-0.259,0.146-0.354s0.22-0.146,0.354-0.146s0.259,0.052,0.354,0.146l2,2
		c0.094,0.094,0.146,0.22,0.146,0.354s-0.052,0.259-0.146,0.354l-2,2C14.301,7.451,14.175,7.503,14.042,7.503z"/>
	<path d="M9.042,7.503c-0.134,0-0.259-0.052-0.354-0.146l-2-2c-0.094-0.094-0.146-0.22-0.146-0.354S6.594,4.744,6.688,4.65l2-2
		c0.094-0.094,0.22-0.146,0.354-0.146S9.301,2.555,9.395,2.65s0.146,0.22,0.146,0.354S9.49,3.262,9.395,3.357L7.749,5.003
		L9.395,6.65C9.49,6.744,9.542,6.87,9.542,7.003S9.49,7.262,9.395,7.357S9.175,7.503,9.042,7.503z"/>
	<path d="M10.542,7.503c-0.077,0-0.154-0.018-0.223-0.053c-0.247-0.123-0.347-0.424-0.224-0.671l2-4
		c0.086-0.171,0.257-0.276,0.448-0.276c0.077,0,0.154,0.018,0.223,0.053c0.119,0.06,0.208,0.162,0.251,0.289
		s0.033,0.262-0.027,0.382l-2,4C10.904,7.397,10.732,7.503,10.542,7.503z"/>
</g>
</svg>
