<?xml version="1.0" encoding="utf-8"?>
<!-- Generator: Adobe Illustrator 22.1.0, SVG Export Plug-In . SVG Version: 6.00 Build 0)  -->
<svg version="1.1" id="Layer_1" xmlns="http://www.w3.org/2000/svg" xmlns:xlink="http://www.w3.org/1999/xlink" x="0px" y="0px"
	 viewBox="0 0 24 24" style="enable-background:new 0 0 24 24;" xml:space="preserve">
<g>
	<title>programming-user-chat-2</title>
	<path d="M13.5,14.28c-0.073,0-0.143-0.015-0.209-0.046C13.114,14.153,13,13.975,13,13.78v-2.5h-0.5c-0.827,0-1.5-0.673-1.5-1.5v-8
		c0-0.827,0.673-1.5,1.5-1.5h10c0.827,0,1.5,0.673,1.5,1.5v8c0,0.827-0.673,1.5-1.5,1.5h-5.315l-3.36,2.88
		C13.735,14.237,13.62,14.28,13.5,14.28z M12.5,1.28c-0.276,0-0.5,0.224-0.5,0.5v8c0,0.276,0.224,0.5,0.5,0.5h1
		c0.276,0,0.5,0.224,0.5,0.5v1.913l2.675-2.293c0.09-0.078,0.206-0.12,0.325-0.12h5.5c0.276,0,0.5-0.224,0.5-0.5v-8
		c0-0.276-0.224-0.5-0.5-0.5H12.5z"/>
	<path d="M12,24c-0.07,0-0.137-0.014-0.201-0.042c-0.021-0.009-2.023-0.893-3.404-1.404c-0.473-0.176-0.807-0.577-0.941-1.129
		c-0.181-0.75,0.024-1.663,0.487-2.17c0.851-0.836,1.26-1.976,1.131-3.139c-0.004-0.034-0.004-0.068-0.001-0.102
		c0.129-1.373-0.882-2.594-2.255-2.724c-0.077-0.007-0.155-0.011-0.232-0.011l-0.07,0.001l-0.089-0.001
		c-1.345,0-2.47,1.091-2.507,2.431c-0.003,0.101,0.001,0.203,0.01,0.303c0.003,0.034,0.003,0.068-0.001,0.102
		c-0.129,1.163,0.276,2.3,1.112,3.119c0.479,0.523,0.687,1.44,0.506,2.19c-0.134,0.552-0.467,0.953-0.939,1.129
		c-1.381,0.51-3.384,1.395-3.404,1.404C1.137,23.986,1.07,24,1,24c-0.198,0-0.378-0.117-0.458-0.298
		c-0.111-0.252,0.003-0.548,0.255-0.659c0.358-0.158,2.164-0.948,3.461-1.427c0.155-0.057,0.261-0.201,0.315-0.427
		c0.1-0.415-0.018-1.004-0.253-1.261c-1.028-1.007-1.538-2.421-1.392-3.873c-0.01-0.123-0.013-0.248-0.01-0.372
		c0.051-1.877,1.624-3.404,3.506-3.404l0.088,0.001l0.069-0.001c0.103,0,0.216,0.005,0.327,0.015
		c0.932,0.088,1.773,0.533,2.369,1.253c0.584,0.706,0.866,1.596,0.793,2.509c0.146,1.452-0.368,2.87-1.411,3.893
		c-0.22,0.242-0.334,0.827-0.234,1.241c0.054,0.225,0.161,0.369,0.316,0.427c1.295,0.479,3.101,1.269,3.45,1.422
		c0.262,0.116,0.376,0.412,0.265,0.664C12.377,23.883,12.198,24,12,24z"/>
	<path d="M14.5,7.78c-0.134,0-0.259-0.052-0.354-0.146S14,7.414,14,7.28s0.052-0.259,0.146-0.354l1.646-1.646l-1.646-1.646
		C14.052,3.539,14,3.414,14,3.28s0.052-0.259,0.146-0.354S14.366,2.78,14.5,2.78s0.259,0.052,0.354,0.146l2,2
		C16.948,5.021,17,5.147,17,5.28s-0.052,0.259-0.146,0.354l-2,2C14.759,7.728,14.634,7.78,14.5,7.78z"/>
	<path d="M17.5,7.28c-0.276,0-0.5-0.224-0.5-0.5s0.224-0.5,0.5-0.5h4c0.276,0,0.5,0.224,0.5,0.5s-0.224,0.5-0.5,0.5H17.5z"/>
</g>
</svg>
