<?xml version="1.0" encoding="utf-8"?>
<!-- Generator: Adobe Illustrator 22.1.0, SVG Export Plug-In . SVG Version: 6.00 Build 0)  -->
<svg version="1.1" id="Layer_1" xmlns="http://www.w3.org/2000/svg" xmlns:xlink="http://www.w3.org/1999/xlink" x="0px" y="0px"
	 viewBox="0 0 24 24" style="enable-background:new 0 0 24 24;" xml:space="preserve">
<g>
	<title>programming-search-browser</title>
	<path d="M23.5,14c-0.134,0-0.259-0.052-0.353-0.146l-3.018-3.006C19.008,11.915,17.551,12.5,16,12.5c-3.308,0-6-2.692-6-6
		s2.692-6,6-6s6,2.692,6,6c0,1.296-0.426,2.565-1.204,3.6l3.057,3.046c0.195,0.195,0.196,0.512,0.001,0.707
		C23.759,13.948,23.633,14,23.5,14z M16,1.5c-2.757,0-5,2.243-5,5s2.243,5,5,5s5-2.243,5-5S18.757,1.5,16,1.5z"/>
	<path d="M2.5,23.5C1.121,23.5,0,22.378,0,21V9c0-1.379,1.121-2.5,2.5-2.5h6C8.775,6.5,9,6.724,9,7S8.775,7.5,8.5,7.5h-6
		C1.672,7.5,1,8.173,1,9v1.499h9c0.276,0,0.5,0.224,0.5,0.5s-0.224,0.5-0.5,0.5H1V21c0,0.827,0.673,1.5,1.5,1.5h16
		c0.827,0,1.5-0.673,1.5-1.5v-8c0-0.276,0.224-0.5,0.5-0.5S21,12.724,21,13v8c0,1.378-1.122,2.5-2.5,2.5H2.5z"/>
	<path d="M13.5,19.5c-0.134,0-0.259-0.052-0.354-0.146S13,19.134,13,19s0.052-0.259,0.146-0.354L14.793,17l-1.646-1.646
		C13.052,15.259,13,15.134,13,15s0.052-0.259,0.146-0.354S13.366,14.5,13.5,14.5s0.259,0.052,0.354,0.146l2,2
		C15.948,16.741,16,16.866,16,17s-0.052,0.259-0.146,0.354l-2,2C13.759,19.448,13.633,19.5,13.5,19.5z"/>
	<path d="M7.5,19.5c-0.134,0-0.259-0.052-0.354-0.146l-2-2C5.052,17.259,5,17.134,5,17s0.052-0.259,0.146-0.354l2-2
		C7.241,14.552,7.366,14.5,7.5,14.5s0.259,0.052,0.354,0.146S8,14.866,8,15s-0.052,0.259-0.146,0.354L6.207,17l1.646,1.646
		C7.948,18.741,8,18.866,8,19s-0.052,0.259-0.146,0.354S7.633,19.5,7.5,19.5z"/>
	<path d="M9.499,19.5c-0.077,0-0.154-0.018-0.223-0.052c-0.247-0.124-0.348-0.425-0.224-0.671l2-4
		c0.085-0.17,0.257-0.276,0.447-0.276c0.077,0,0.153,0.018,0.222,0.052c0.248,0.124,0.348,0.425,0.225,0.671l-2,4
		C9.862,19.394,9.69,19.5,9.499,19.5z"/>
</g>
</svg>
