<?xml version="1.0" encoding="utf-8"?>
<!-- Generator: Adobe Illustrator 22.1.0, SVG Export Plug-In . SVG Version: 6.00 Build 0)  -->
<svg version="1.1" id="Layer_1" xmlns="http://www.w3.org/2000/svg" xmlns:xlink="http://www.w3.org/1999/xlink" x="0px" y="0px"
	 viewBox="0 0 24 24" style="enable-background:new 0 0 24 24;" xml:space="preserve">
<g>
	<title>programming-user-chat-woman</title>
	<path d="M13.5,14c-0.073,0-0.143-0.015-0.209-0.046C13.114,13.873,13,13.695,13,13.5V11h-0.5c-0.827,0-1.5-0.673-1.5-1.5v-8
		C11,0.673,11.673,0,12.5,0h10C23.327,0,24,0.673,24,1.5v8c0,0.827-0.673,1.5-1.5,1.5h-5.315l-3.36,2.88
		C13.735,13.957,13.62,14,13.5,14z M12.5,1C12.224,1,12,1.225,12,1.5v8c0,0.276,0.224,0.5,0.5,0.5h1c0.276,0,0.5,0.224,0.5,0.5
		v1.913l2.675-2.293C16.765,10.043,16.881,10,17,10h5.5c0.276,0,0.5-0.224,0.5-0.5v-8C23,1.225,22.776,1,22.5,1H12.5z"/>
	<path d="M1.822,24.001c-0.203,0-0.384-0.121-0.462-0.309c-0.051-0.124-0.051-0.26,0-0.383s0.147-0.219,0.271-0.27
		c0.689-0.285,1.476-0.574,2.308-0.881l0.669-0.247c0.1-0.037,0.167-0.133,0.167-0.239v-0.164c-0.057,0.002-0.114,0.003-0.171,0.003
		c-1.406,0-2.754-0.435-3.897-1.258c-0.119-0.085-0.194-0.219-0.206-0.365c-0.012-0.146,0.04-0.289,0.143-0.393l0.036-0.037
		c0.574-0.577,0.92-0.925,1.074-3.185c0.123-1.816,0.785-3.286,1.917-4.251c0.935-0.798,2.176-1.238,3.493-1.238
		c1.317,0,2.558,0.44,3.493,1.238c1.131,0.965,1.794,2.435,1.917,4.251c0.154,2.266,0.501,2.614,1.077,3.189l0.031,0.031
		c0.104,0.104,0.157,0.247,0.145,0.394c-0.012,0.146-0.087,0.279-0.206,0.365c-1.136,0.818-2.481,1.251-3.888,1.251c0,0,0,0,0,0
		c-0.06,0-0.121-0.001-0.181-0.002v0.171c0,0.106,0.067,0.202,0.167,0.239l0.75,0.277c0.814,0.3,1.568,0.577,2.228,0.85
		c0.124,0.051,0.22,0.147,0.271,0.27c0.051,0.124,0.051,0.259,0,0.383C12.893,23.879,12.711,24,12.508,24
		c-0.066,0-0.13-0.013-0.191-0.038c-0.643-0.266-1.39-0.541-2.181-0.832l-0.763-0.281c-0.49-0.181-0.819-0.654-0.819-1.177v-1.38
		c0-0.351,0.148-0.688,0.406-0.926c0.466-0.425,0.731-1.028,0.727-1.657v-1.481c-0.956-0.225-1.82-0.7-2.522-1.385
		c-0.702,0.685-1.566,1.16-2.522,1.385v1.478c-0.004,0.631,0.26,1.235,0.724,1.658c0.26,0.238,0.409,0.576,0.409,0.927v1.38
		c0,0.524-0.331,0.997-0.821,1.177l-0.67,0.247c-0.824,0.303-1.603,0.59-2.272,0.866C1.953,23.988,1.888,24.001,1.822,24.001z
		 M1.778,19.755c0.856,0.492,1.825,0.751,2.821,0.751c0.059,0,0.118-0.001,0.177-0.003v-0.211c0-0.072-0.031-0.141-0.084-0.189
		c-0.673-0.613-1.056-1.488-1.049-2.4v-1.886c0-0.249,0.178-0.456,0.424-0.494c1.062-0.163,2.026-0.708,2.714-1.535
		c0.093-0.112,0.233-0.176,0.384-0.176s0.292,0.064,0.384,0.176c0.687,0.826,1.651,1.371,2.714,1.535
		c0.246,0.038,0.424,0.246,0.424,0.494v1.889c0.006,0.909-0.377,1.784-1.051,2.397c-0.051,0.047-0.082,0.117-0.082,0.189v0.209
		c0.06,0.002,0.12,0.003,0.18,0.003c0.996,0,1.964-0.258,2.818-0.75c-0.47-0.552-0.832-1.308-0.975-3.414
		c-0.15-2.203-1.387-4.557-4.412-4.557c-3.026,0-4.263,2.354-4.412,4.557C2.61,18.456,2.26,19.192,1.778,19.755z"/>
	<path d="M14.5,7.5c-0.134,0-0.259-0.052-0.354-0.146S14,7.134,14,7s0.052-0.259,0.146-0.354L15.793,5l-1.646-1.646
		C14.052,3.259,14,3.134,14,3s0.052-0.259,0.146-0.354S14.366,2.5,14.5,2.5s0.259,0.052,0.354,0.146l2,2C16.948,4.741,17,4.867,17,5
		s-0.052,0.259-0.146,0.354l-2,2C14.759,7.448,14.634,7.5,14.5,7.5z"/>
	<path d="M17.5,7C17.224,7,17,6.776,17,6.5S17.224,6,17.5,6h4C21.776,6,22,6.225,22,6.5S21.776,7,21.5,7H17.5z"/>
</g>
</svg>
