<?xml version="1.0" encoding="utf-8"?>
<!-- Generator: Adobe Illustrator 22.1.0, SVG Export Plug-In . SVG Version: 6.00 Build 0)  -->
<svg version="1.1" id="Layer_1" xmlns="http://www.w3.org/2000/svg" xmlns:xlink="http://www.w3.org/1999/xlink" x="0px" y="0px"
	 viewBox="0 0 24 24" style="enable-background:new 0 0 24 24;" xml:space="preserve">
<g>
	<title>navigation-down-2</title>
	<path d="M12,23.998c-0.059,0-0.119-0.012-0.178-0.034c-0.012-0.005-0.044-0.021-0.055-0.027c-0.011-0.005-0.038-0.017-0.067-0.039
		l-6-4.5c-0.107-0.08-0.176-0.197-0.195-0.329C5.486,18.937,5.52,18.805,5.6,18.698c0.094-0.125,0.243-0.2,0.4-0.2
		c0.109,0,0.212,0.034,0.3,0.1l5.2,3.9v-18.5H8c-0.276,0-0.5-0.224-0.5-0.5s0.224-0.5,0.5-0.5h8c0.276,0,0.5,0.224,0.5,0.5
		s-0.224,0.5-0.5,0.5h-3.5v18.5l5.2-3.9c0.087-0.065,0.19-0.1,0.3-0.1c0.157,0,0.307,0.075,0.401,0.201
		c0.08,0.106,0.114,0.238,0.095,0.37c-0.019,0.132-0.088,0.25-0.195,0.33l-6,4.5c-0.029,0.022-0.055,0.034-0.07,0.04
		c-0.014,0.009-0.032,0.018-0.051,0.025C12.119,23.986,12.059,23.998,12,23.998z"/>
	<path d="M8,0.998c-0.276,0-0.5-0.224-0.5-0.5s0.224-0.5,0.5-0.5h8c0.276,0,0.5,0.224,0.5,0.5s-0.224,0.5-0.5,0.5H8z"/>
</g>
</svg>
