<?xml version="1.0" encoding="utf-8"?>
<!-- Generator: Adobe Illustrator 22.1.0, SVG Export Plug-In . SVG Version: 6.00 Build 0)  -->
<svg version="1.1" id="Layer_1" xmlns="http://www.w3.org/2000/svg" xmlns:xlink="http://www.w3.org/1999/xlink" x="0px" y="0px"
	 viewBox="0 0 24 24" style="enable-background:new 0 0 24 24;" xml:space="preserve">
<g>
	<title>navigation-arrows-up-1</title>
	<path d="M19.501,15c-0.276,0-0.5-0.224-0.5-0.5s0.224-0.5,0.5-0.5h2.474L12.001,1.309L2.03,13.998h2.471c0.276,0,0.5,0.224,0.5,0.5
		s-0.224,0.5-0.5,0.5H2.03c-0.223,0-0.443-0.076-0.618-0.214c-0.433-0.34-0.508-0.97-0.168-1.403l9.971-12.689
		c0.049-0.062,0.105-0.119,0.168-0.168C11.558,0.386,11.777,0.31,12,0.31c0.31,0,0.596,0.139,0.787,0.381l9.974,12.691
		c0.138,0.175,0.214,0.394,0.214,0.617c0,0.552-0.448,1.001-1,1.001H19.501z"/>
	<path d="M2.03,22.998c-0.223,0-0.443-0.076-0.618-0.214c-0.433-0.34-0.508-0.97-0.168-1.403l9.971-12.689
		c0.049-0.062,0.105-0.119,0.168-0.168C11.558,8.386,11.777,8.31,12,8.31c0.31,0,0.596,0.139,0.787,0.382l9.971,12.691
		c0.138,0.175,0.214,0.395,0.214,0.618c0,0.552-0.448,1-1,1L2.03,22.998z M2.03,21.998L21.972,22L12.001,9.31L2.03,21.998z"/>
</g>
</svg>
