<?xml version="1.0" encoding="utf-8"?>
<!-- Generator: Adobe Illustrator 22.1.0, SVG Export Plug-In . SVG Version: 6.00 Build 0)  -->
<svg version="1.1" id="Layer_1" xmlns="http://www.w3.org/2000/svg" xmlns:xlink="http://www.w3.org/1999/xlink" x="0px" y="0px"
	 viewBox="0 0 24 24" style="enable-background:new 0 0 24 24;" xml:space="preserve">
<g>
	<title>navigation-right</title>
	<path d="M11.709,20c-0.552,0-1-0.448-1.001-0.998c0-0.265,0.107-0.523,0.294-0.71l2.572-2.572
		c-2.332-1.131-4.732-1.751-6.791-1.751c-1.403,0-2.629,0.292-3.543,0.844C1.753,15.711,1,17.288,1,19.5C1,19.776,0.776,20,0.5,20
		S0,19.776,0,19.5c0-4.206,1.374-7.35,4.083-9.344c2.013-1.482,4.804-2.266,8.07-2.266c2.46,0,5.133,0.431,7.946,1.28l2.196-2.181
		c0.179-0.177,0.42-0.277,0.696-0.29c0.28,0.001,0.531,0.106,0.719,0.296c0.187,0.188,0.291,0.439,0.29,0.706V19
		c0,0.552-0.448,1-1,1H11.709z M6.779,12.976c2.416,0,5.21,0.77,7.868,2.167c0.14,0.073,0.239,0.211,0.262,0.368
		c0.024,0.156-0.029,0.316-0.141,0.428L11.708,19L23,19V7.7l-2.408,2.391c-0.095,0.094-0.22,0.145-0.353,0.145
		c-0.05,0-0.1-0.007-0.148-0.022c-2.828-0.88-5.5-1.326-7.943-1.326c-3.046,0-5.629,0.717-7.472,2.073
		c-1.259,0.927-2.203,2.149-2.817,3.644c0.262-0.242,0.55-0.458,0.863-0.647C3.786,13.315,5.189,12.976,6.779,12.976z"/>
</g>
</svg>
