<?xml version="1.0" encoding="utf-8"?>
<!-- Generator: Adobe Illustrator 22.1.0, SVG Export Plug-In . SVG Version: 6.00 Build 0)  -->
<svg version="1.1" id="Layer_1" xmlns="http://www.w3.org/2000/svg" xmlns:xlink="http://www.w3.org/1999/xlink" x="0px" y="0px"
	 viewBox="0 0 24 24" style="enable-background:new 0 0 24 24;" xml:space="preserve">
<g>
	<title>navigation-left-circle</title>
	<path d="M12,23.498c-6.341,0-11.5-5.159-11.5-11.5s5.159-11.5,11.5-11.5s11.5,5.159,11.5,11.5S18.341,23.498,12,23.498z M12,1.498
		c-5.79,0-10.5,4.71-10.5,10.5c0,5.79,4.71,10.5,10.5,10.5c5.79,0,10.5-4.71,10.5-10.5C22.5,6.208,17.79,1.498,12,1.498z"/>
	<path d="M16.5,17.5c-0.276,0-0.5-0.224-0.5-0.5c0-0.26,0.199-0.474,0.453-0.498c0.225-0.175,0.94-1.455,0.94-2.923
		c0-0.628-0.142-1.142-0.411-1.487C16.676,11.699,16.177,11.5,15.5,11.5H7.209l2.145,2.145c0.195,0.195,0.195,0.512,0,0.707
		C9.259,14.446,9.134,14.498,9,14.498s-0.259-0.052-0.354-0.146l-2.994-2.994c-0.048-0.045-0.089-0.105-0.116-0.172
		c-0.015-0.037-0.019-0.069-0.021-0.085C5.51,11.083,5.5,11.047,5.5,11c0-0.004,0-0.009,0-0.013
		c0.002-0.129,0.054-0.251,0.146-0.343l3-3C8.741,7.55,8.866,7.498,9,7.498S9.259,7.55,9.354,7.645c0.195,0.195,0.195,0.512,0,0.707
		L7.205,10.5H15.5c1,0,1.764,0.329,2.27,0.977c0.407,0.522,0.623,1.249,0.623,2.102C18.393,15.121,17.58,17.5,16.5,17.5z"/>
</g>
</svg>
