<?xml version="1.0" encoding="utf-8"?>
<!-- Generator: Adobe Illustrator 22.1.0, SVG Export Plug-In . SVG Version: 6.00 Build 0)  -->
<svg version="1.1" id="Layer_1" xmlns="http://www.w3.org/2000/svg" xmlns:xlink="http://www.w3.org/1999/xlink" x="0px" y="0px"
	 viewBox="0 0 24 24" style="enable-background:new 0 0 24 24;" xml:space="preserve">
<g>
	<title>navigation-left-circle-1</title>
	<path d="M12,23.498c-6.341,0-11.5-5.159-11.5-11.5s5.159-11.5,11.5-11.5s11.5,5.159,11.5,11.5S18.341,23.498,12,23.498z M12,1.498
		c-5.79,0-10.5,4.71-10.5,10.5c0,5.79,4.71,10.5,10.5,10.5c5.79,0,10.5-4.71,10.5-10.5C22.5,6.208,17.79,1.498,12,1.498z"/>
	<path d="M13.5,16.5c-0.276,0-0.5-0.224-0.5-0.5s0.224-0.5,0.5-0.5H15c1.378,0,2.5-1.122,2.5-2.5c0-1.379-1.122-2.5-2.5-2.5H7.209
		l2.145,2.145c0.094,0.094,0.146,0.22,0.146,0.354s-0.052,0.259-0.146,0.354S9.134,13.498,9,13.498s-0.259-0.052-0.354-0.146
		l-2.994-2.994c-0.048-0.045-0.089-0.105-0.116-0.172c-0.015-0.037-0.019-0.069-0.021-0.085C5.51,10.083,5.5,10.047,5.5,10
		c0-0.004,0-0.009,0-0.013c0.003-0.129,0.054-0.251,0.146-0.343l3-3C8.741,6.55,8.866,6.498,9,6.498S9.259,6.55,9.354,6.645
		S9.5,6.865,9.5,6.998S9.448,7.257,9.354,7.352L7.205,9.5H15c1.93,0,3.5,1.57,3.5,3.5s-1.57,3.5-3.5,3.5H13.5z"/>
</g>
</svg>
