<?xml version="1.0" encoding="utf-8"?>
<!-- Generator: Adobe Illustrator 22.1.0, SVG Export Plug-In . SVG Version: 6.00 Build 0)  -->
<svg version="1.1" id="Layer_1" xmlns="http://www.w3.org/2000/svg" xmlns:xlink="http://www.w3.org/1999/xlink" x="0px" y="0px"
	 viewBox="0 0 24 24" style="enable-background:new 0 0 24 24;" xml:space="preserve">
<g>
	<title>navigation-right-circle-2</title>
	<path d="M12,23.498c-6.341,0-11.5-5.159-11.5-11.5s5.159-11.5,11.5-11.5s11.5,5.159,11.5,11.5S18.341,23.498,12,23.498z M12,1.498
		c-5.79,0-10.5,4.71-10.5,10.5c0,5.79,4.71,10.5,10.5,10.5c5.79,0,10.5-4.71,10.5-10.5C22.5,6.208,17.79,1.498,12,1.498z"/>
	<path d="M6,17.5c-0.154,0-0.297-0.069-0.392-0.19C4.633,16.077,4.077,14.594,4,13.024c0-0.805,0.123-2.328,0.954-3.622
		C5.753,8.158,6.979,7.5,8.5,7.5h5V6.29c0-0.281,0.119-0.55,0.327-0.739c0.185-0.168,0.424-0.26,0.673-0.26
		c0.281,0,0.552,0.119,0.74,0.327l3.824,4.209c0.349,0.383,0.349,0.962,0,1.346l-3.823,4.207c-0.189,0.208-0.458,0.327-0.739,0.327
		c-0.552,0-1.001-0.448-1.001-0.999V13.5h-5c-2,0-2,0.508-2,1V17c0,0.213-0.135,0.403-0.336,0.472C6.113,17.49,6.057,17.5,6,17.5z
		 M8.5,8.5C5.917,8.5,5,10.924,5,13c0.037,0.747,0.208,1.489,0.5,2.183V14.5c0-1.758,1.442-2,3-2H14c0.276,0,0.5,0.224,0.5,0.5
		v1.707l3.824-4.207L14.5,6.29V8c0,0.276-0.224,0.5-0.5,0.5H8.5z"/>
</g>
</svg>
