<?xml version="1.0" encoding="utf-8"?>
<!-- Generator: Adobe Illustrator 22.1.0, SVG Export Plug-In . SVG Version: 6.00 Build 0)  -->
<svg version="1.1" id="Layer_1" xmlns="http://www.w3.org/2000/svg" xmlns:xlink="http://www.w3.org/1999/xlink" x="0px" y="0px"
	 viewBox="0 0 24 24" style="enable-background:new 0 0 24 24;" xml:space="preserve">
<g>
	<title>navigation-right-1</title>
	<path d="M14.999,23.001c-0.552-0.001-1-0.449-1-1.001v-2H6.707c-0.274-0.002-0.518-0.103-0.707-0.292l-5.707-5.708
		C0.103,13.812-0.001,13.56,0,13.293V5.001c0-0.551,0.449-1,1-1h13v-2c0-0.31,0.14-0.597,0.384-0.788
		c0.178-0.139,0.391-0.212,0.615-0.212c0.31,0,0.598,0.14,0.789,0.384l7.997,9.996c0.286,0.366,0.287,0.873,0.003,1.236
		l-8.003,10.005C15.596,22.862,15.309,23.001,14.999,23.001L14.999,23.001z M14.5,19.001c0.276,0,0.5,0.224,0.5,0.5v2.5
		l8.003-10.004l-8-9.992L15,4.001c0,0.551-0.448,1-1,1H1l0,8h5c0.551,0,1,0.448,1,1v5H14.5z M6,18.295v-4.294H1.706L6,18.295z"/>
</g>
</svg>
