<?xml version="1.0" encoding="utf-8"?>
<!-- Generator: Adobe Illustrator 22.1.0, SVG Export Plug-In . SVG Version: 6.00 Build 0)  -->
<svg version="1.1" id="Layer_1" xmlns="http://www.w3.org/2000/svg" xmlns:xlink="http://www.w3.org/1999/xlink" x="0px" y="0px"
	 viewBox="0 0 24 24" style="enable-background:new 0 0 24 24;" xml:space="preserve">
<g>
	<title>arrange-letter</title>
	<path d="M5.5,19.998c-0.066,0-0.13-0.013-0.192-0.039c-0.061-0.025-0.116-0.062-0.163-0.109l-2.999-2.999
		C2.052,16.757,2,16.632,2,16.498s0.052-0.259,0.146-0.354s0.22-0.146,0.354-0.146s0.259,0.052,0.354,0.146L5,18.291V4.498
		c0-0.276,0.224-0.5,0.5-0.5S6,4.222,6,4.498v13.793l2.146-2.146c0.094-0.094,0.22-0.146,0.354-0.146s0.259,0.052,0.354,0.146
		S9,16.365,9,16.498s-0.052,0.259-0.146,0.354l-3,3c-0.046,0.046-0.101,0.083-0.163,0.109C5.63,19.985,5.566,19.998,5.5,19.998z"/>
	<path d="M16.8,24c-0.552,0-1-0.448-1-1c0-0.188,0.053-0.371,0.152-0.53L19.996,16L16.4,16c-0.276,0-0.5-0.224-0.5-0.5
		s0.224-0.5,0.5-0.5H20c0.188,0.002,0.369,0.054,0.525,0.152c0.227,0.142,0.385,0.363,0.445,0.623
		c0.06,0.261,0.015,0.529-0.127,0.755L16.8,23l3.6,0c0.276,0,0.5,0.224,0.5,0.5S20.676,24,20.4,24H16.8z"/>
	<path d="M20.5,10C20.224,10,20,9.776,20,9.5V5.998h-3V9.5c0,0.276-0.224,0.5-0.5,0.5S16,9.776,16,9.5v-6C16,2.121,17.122,1,18.5,1
		S21,2.121,21,3.5v6C21,9.776,20.776,10,20.5,10z M20,4.998V3.5C20,2.673,19.327,2,18.5,2S17,2.673,17,3.5v1.498H20z"/>
</g>
</svg>
