<?xml version="1.0" encoding="utf-8"?>
<!-- Generator: Adobe Illustrator 22.1.0, SVG Export Plug-In . SVG Version: 6.00 Build 0)  -->
<svg version="1.1" id="Layer_1" xmlns="http://www.w3.org/2000/svg" xmlns:xlink="http://www.w3.org/1999/xlink" x="0px" y="0px"
	 viewBox="0 0 24 24" style="enable-background:new 0 0 24 24;" xml:space="preserve">
<g>
	<title>printer-view</title>
	<path d="M6,22c-0.551,0-1-0.448-1-1v-4H2.5c-1.375-0.004-2.496-1.125-2.5-2.499V8.5C0.005,7.126,1.125,6.005,2.498,6H21.5
		c1.374,0.005,2.495,1.126,2.5,2.498V11.5c0,0.276-0.224,0.5-0.5,0.5S23,11.776,23,11.5v-3c-0.003-0.824-0.677-1.497-1.502-1.5H2.5
		C1.676,7.003,1.003,7.677,1,8.502V14.5c0.003,0.824,0.676,1.498,1.501,1.5H5v-2.5C5,13.224,5.224,13,5.5,13h6
		c0.276,0,0.5,0.224,0.5,0.5S11.776,14,11.5,14H6v7h5.5c0.276,0,0.5,0.224,0.5,0.5S11.776,22,11.5,22H6z"/>
	<path d="M18.5,5C18.224,5,18,4.776,18,4.5V4h-2c-0.552,0-1-0.449-1-1V1H6v3.5C6,4.776,5.776,5,5.5,5S5,4.776,5,4.5V1
		c0-0.551,0.449-1,1-1h9.5c0.066,0,0.131,0.013,0.193,0.039c0.06,0.025,0.115,0.061,0.161,0.108l3,3
		c0.046,0.046,0.083,0.1,0.108,0.161C18.987,3.37,19,3.434,19,3.5v1C19,4.776,18.776,5,18.5,5z M16,3h1.293L16,1.707V3z"/>
	<circle cx="3.5" cy="9.498" r="0.75"/>
	<path d="M23.5,23.998c-0.134,0-0.259-0.052-0.354-0.146l-2.842-2.842c-0.798,0.639-1.785,0.989-2.804,0.989
		c-2.481,0-4.5-2.019-4.5-4.5s2.019-4.5,4.5-4.5s4.5,2.019,4.5,4.5c0,1.019-0.349,2.006-0.989,2.804l2.842,2.842
		C23.948,23.239,24,23.365,24,23.498s-0.052,0.259-0.146,0.354S23.634,23.998,23.5,23.998z M17.5,13.998c-1.93,0-3.5,1.57-3.5,3.5
		s1.57,3.5,3.5,3.5s3.5-1.57,3.5-3.5S19.43,13.998,17.5,13.998z"/>
</g>
</svg>
