<?xml version="1.0" encoding="utf-8"?>
<!-- Generator: Adobe Illustrator 22.1.0, SVG Export Plug-In . SVG Version: 6.00 Build 0)  -->
<svg version="1.1" id="Layer_1" xmlns="http://www.w3.org/2000/svg" xmlns:xlink="http://www.w3.org/1999/xlink" x="0px" y="0px"
	 viewBox="0 0 24 24" style="enable-background:new 0 0 24 24;" xml:space="preserve">
<g>
	<title>task-text</title>
	<path d="M23.5,24c-0.276,0-0.5-0.224-0.5-0.5v-7.586c0-0.132-0.053-0.26-0.146-0.354l-1.414-1.414
		C21.346,14.053,21.218,14,21.086,14H13.5c-0.276,0-0.5,0.224-0.5,0.5v9c0,0.276-0.224,0.5-0.5,0.5c-0.276,0-0.5-0.224-0.5-0.5v-9
		c0-0.827,0.673-1.5,1.5-1.5h7.586c0.401,0,0.777,0.156,1.061,0.439l1.414,1.414C23.844,15.137,24,15.513,24,15.914V23.5
		C24,23.776,23.776,24,23.5,24z"/>
	<path d="M1.5,24C0.673,24,0,23.327,0,22.5v-18C0,3.673,0.673,3,1.5,3H4c0-0.551,0.449-1,1-1h1.05C6.284,0.845,7.3,0,8.5,0
		s2.216,0.845,2.45,2H12c0.552,0,1,0.449,1,1h2.5C16.327,3,17,3.673,17,4.5v6c0,0.276-0.224,0.5-0.5,0.5S16,10.776,16,10.5v-6
		C16,4.224,15.776,4,15.5,4H13v2c0,0.551-0.448,1-1,1H5C4.449,7,4,6.551,4,6V4H1.5C1.224,4,1,4.224,1,4.5v18
		C1,22.776,1.224,23,1.5,23h8c0.276,0,0.5,0.224,0.5,0.5S9.776,24,9.5,24H1.5z M5,6h7V3h-1.5C10.224,3,10,2.776,10,2.5
		C10,1.673,9.327,1,8.5,1S7,1.673,7,2.5C7,2.776,6.776,3,6.5,3H5L5,6z"/>
	<path d="M14.5,10.998c-0.276,0-0.5-0.224-0.5-0.5v-4c0-0.276,0.224-0.5,0.5-0.5s0.5,0.224,0.5,0.5v4
		C15,10.774,14.776,10.998,14.5,10.998z"/>
	<path d="M3,21c-0.551,0-1-0.448-1-1V6.5C2,6.224,2.224,6,2.5,6S3,6.224,3,6.5V20h6.5c0.276,0,0.5,0.224,0.5,0.5S9.776,21,9.5,21H3z
		"/>
	<path d="M14.5,19.998c-0.276,0-0.5-0.224-0.5-0.5s0.224-0.5,0.5-0.5h7c0.276,0,0.5,0.224,0.5,0.5s-0.224,0.5-0.5,0.5H14.5z"/>
	<path d="M14.5,16.998c-0.276,0-0.5-0.224-0.5-0.5s0.224-0.5,0.5-0.5h5c0.276,0,0.5,0.224,0.5,0.5s-0.224,0.5-0.5,0.5H14.5z"/>
</g>
</svg>
