<svg xmlns="http://www.w3.org/2000/svg" viewBox="0 0 24 24"><title>camera-settings-frame-1</title><path d="M17,7.806H16a.913.913,0,0,1-.5-.207L14.207,6.306A1.877,1.877,0,0,0,13,5.806H11a1.877,1.877,0,0,0-1.207.5L8.5,7.6a.913.913,0,0,1-.5.207H7a2,2,0,0,0-2,2v5a2,2,0,0,0,2,2H17a2,2,0,0,0,2-2v-5A2,2,0,0,0,17,7.806Zm-7.5,4.5a2.5,2.5,0,1,1,2.5,2.5A2.5,2.5,0,0,1,9.5,12.306Z"/><path d="M3.749,11a.5.5,0,0,0,.228-.946A1.3,1.3,0,0,1,3.25,9c0-.8.817-.974.959-1.3a.5.5,0,0,0-.683-.646A2.348,2.348,0,0,0,2.25,9,2.331,2.331,0,0,0,3.5,10.932.507.507,0,0,0,3.749,11Z"/><path d="M4.194,16.724a.5.5,0,0,0-.217-.672A1.3,1.3,0,0,1,3.25,15a1.337,1.337,0,0,1,.727-1.054.5.5,0,0,0-.451-.893l-.026.014A2.327,2.327,0,0,0,2.25,15a2.35,2.35,0,0,0,1.276,1.948A.5.5,0,0,0,4.194,16.724Z"/><path d="M2.874,18.414a.75.75,0,0,0-.208-1.04,3,3,0,0,1,0-4.752.75.75,0,0,0-.006-1.251A3,3,0,0,1,2.67,6.619a.75.75,0,0,0-.836-1.245A4.5,4.5,0,0,0,0,9a4.445,4.445,0,0,0,1.013,2.843.25.25,0,0,1,0,.315A4.445,4.445,0,0,0,0,15a4.5,4.5,0,0,0,1.834,3.624A.75.75,0,0,0,2.874,18.414Z"/><path d="M20.251,11a.5.5,0,0,1-.228-.946A1.3,1.3,0,0,0,20.75,9c0-.8-.817-.974-.959-1.3a.5.5,0,0,1,.683-.646A2.348,2.348,0,0,1,21.75,9a2.331,2.331,0,0,1-1.25,1.934A.507.507,0,0,1,20.251,11Z"/><path d="M20.023,16.052A1.3,1.3,0,0,0,20.75,15a1.337,1.337,0,0,0-.727-1.054.5.5,0,0,1,.451-.893l.026.014A2.327,2.327,0,0,1,21.75,15a2.35,2.35,0,0,1-1.276,1.948.5.5,0,0,1-.451-.894Z"/><path d="M21.334,17.374a3,3,0,0,0,0-4.752.75.75,0,0,1,.006-1.251,3,3,0,0,0-.009-4.752.75.75,0,0,1,.836-1.245A4.5,4.5,0,0,1,24,9a4.445,4.445,0,0,1-1.013,2.843.25.25,0,0,0,0,.315A4.445,4.445,0,0,1,24,15a4.5,4.5,0,0,1-1.834,3.624.75.75,0,0,1-.832-1.248Z"/></svg>