<svg xmlns="http://www.w3.org/2000/svg" viewBox="0 0 24 24"><defs><style>.a{fill:none;stroke:currentColor;stroke-linecap:round;stroke-linejoin:round;}</style></defs><title>laptop-lock</title><path class="a" d="M20.093,13.5V3.167A1.667,1.667,0,0,0,18.426,1.5H5.76A1.667,1.667,0,0,0,4.093,3.167V13.5"/><path class="a" d="M15.593,13.5c0,1.1-1.567,2-3.5,2s-3.5-.9-3.5-2H1.779a.5.5,0,0,0-.464.686,5.28,5.28,0,0,0,4.9,3.314H17.97a5.28,5.28,0,0,0,4.9-3.314.5.5,0,0,0-.464-.686Z"/><path class="a" d="M10.093,11.5h4a1,1,0,0,0,1-1v-3a1,1,0,0,0-1-1h-4a1,1,0,0,0-1,1v3A1,1,0,0,0,10.093,11.5Z"/><path class="a" d="M12.093,3.5h0a2,2,0,0,0-2,2v1h4v-1A2,2,0,0,0,12.093,3.5Z"/><path class="a" d="M12.093,8.77a.25.25,0,1,0,.25.25.25.25,0,0,0-.25-.25h0"/><line class="a" x1="12.093" y1="17.5" x2="12.093" y2="22.5"/><line class="a" x1="3.593" y1="22.5" x2="20.593" y2="22.5"/></svg>