<svg xmlns="http://www.w3.org/2000/svg" viewBox="0 0 24 24"><defs><style>.a{fill:none;stroke:currentColor;stroke-linecap:round;stroke-linejoin:round;}</style></defs><title>monitor-network</title><path class="a" d="M11,19.5a1,1,0,0,1-1,1H2a1,1,0,0,1-1-1v-5a1,1,0,0,1,1-1h8a1,1,0,0,1,1,1Z"/><line class="a" x1="6" y1="20.5" x2="6" y2="23.5"/><line class="a" x1="3" y1="23.5" x2="9" y2="23.5"/><path class="a" d="M23,19.5a1,1,0,0,1-1,1H14a1,1,0,0,1-1-1v-5a1,1,0,0,1,1-1h8a1,1,0,0,1,1,1Z"/><line class="a" x1="18" y1="20.5" x2="18" y2="23.5"/><line class="a" x1="15" y1="23.5" x2="21" y2="23.5"/><path class="a" d="M18,7.5a1,1,0,0,1-1,1H7a1,1,0,0,1-1-1v-6a1,1,0,0,1,1-1H17a1,1,0,0,1,1,1Z"/><line class="a" x1="12" y1="8.5" x2="12" y2="11.5"/><line class="a" x1="9" y1="11.5" x2="15" y2="11.5"/></svg>