<svg xmlns="http://www.w3.org/2000/svg" viewBox="0 0 24 24"><defs><style>.a{fill:none;stroke:currentColor;stroke-linecap:round;stroke-linejoin:round;}</style></defs><title>monitor-transfer-folder</title><line class="a" x1="5" y1="23.5" x2="11" y2="23.5"/><line class="a" x1="8" y1="21.5" x2="8" y2="23.5"/><line class="a" x1="0.5" y1="19.5" x2="15.5" y2="19.5"/><path class="a" d="M8,10.5V9c0-2.762.736-5,3.5-5"/><polyline class="a" points="10 8.5 8 10.5 6 8.5"/><path class="a" d="M12.5,11.5H14A1.5,1.5,0,0,1,15.5,13v7A1.5,1.5,0,0,1,14,21.5H2A1.5,1.5,0,0,1,.5,20V13A1.5,1.5,0,0,1,2,11.5H4"/><path class="a" d="M14.5,8.5H22A1.5,1.5,0,0,0,23.5,7V3.5h-8v4a1,1,0,0,1-2,0V.5h2v1h7v2"/></svg>