<svg xmlns="http://www.w3.org/2000/svg" viewBox="0 0 24 24"><defs><style>.a{fill:none;stroke:currentColor;stroke-linecap:round;stroke-linejoin:round;}</style></defs><title>monitor-team</title><line class="a" x1="9" y1="23.5" x2="15" y2="23.5"/><line class="a" x1="12" y1="21.5" x2="12" y2="23.5"/><line class="a" x1="4" y1="19.5" x2="20" y2="19.5"/><path class="a" d="M20,14v6a1.5,1.5,0,0,1-1.5,1.5H5.5A1.5,1.5,0,0,1,4,20V14"/><polyline class="a" points="4 11 4 8.5 6.5 8.5"/><circle class="a" cx="3.5" cy="2" r="1.5"/><path class="a" d="M6,6.5H1a2.784,2.784,0,0,1,2.5-3A2.784,2.784,0,0,1,6,6.5Z"/><circle class="a" cx="20.5" cy="2" r="1.5"/><path class="a" d="M23,6.5H18a2.784,2.784,0,0,1,2.5-3A2.784,2.784,0,0,1,23,6.5Z"/><circle class="a" cx="12" cy="2" r="1.5"/><path class="a" d="M14.5,6.5h-5a2.784,2.784,0,0,1,2.5-3A2.784,2.784,0,0,1,14.5,6.5Z"/><line class="a" x1="4" y1="8.5" x2="8.969" y2="13.489"/><polyline class="a" points="20 11 20 8.5 17.5 8.5"/><line class="a" x1="20" y1="8.5" x2="15.031" y2="13.489"/><line class="a" x1="12" y1="13.484" x2="12" y2="8.5"/><polyline class="a" points="10.016 9.984 12 8.5 14.016 10"/></svg>