<svg xmlns="http://www.w3.org/2000/svg" viewBox="0 0 24 24"><defs><style>.a{fill:none;stroke:currentColor;stroke-linecap:round;stroke-linejoin:round;}</style></defs><title>network-arrow-sync</title><circle class="a" cx="11.996" cy="12.001" r="6.5"/><path class="a" d="M16.8,7.623A3.227,3.227,0,0,1,15.388,9.74c-2.621-.655-1.63.828-1.413,1.7.283.283.848,0,.848,0,1.264,2.488-.848,3.109-.848,3.109-1.538,1.538-1.037,1.978-2.543,1.978-.283,0-.849-1.13-.849-1.413,0-2.153-1.079-2.543-1.978-2.543-.848,0-.848-1.131-.848-1.131s0-1.979,1.412-2.261,1.413.282,1.413.282c.584.584,2.655-.561.763-2.033-.7-.545,2.552-1.641,2.552-1.641"/><polyline class="a" points="21.459 3.844 17.54 3.073 17.844 6.449"/><polyline class="a" points="2.008 19.996 6.473 20.929 6.114 17.563"/><path class="a" d="M17.529,3.073A10.5,10.5,0,0,1,9.762,22.261"/><path class="a" d="M6.473,20.929A10.5,10.5,0,0,1,14.219,1.736"/></svg>