<svg xmlns="http://www.w3.org/2000/svg" viewBox="0 0 24 24"><defs><style>.a{fill:none;stroke:currentColor;stroke-linecap:round;stroke-linejoin:round;}</style></defs><title>phone-antenna</title><path class="a" d="M14,11.5a1,1,0,0,1,1-1h6a1,1,0,0,1,1,1v11a1,1,0,0,1-1,1H15a1,1,0,0,1-1-1Z"/><line class="a" x1="14" y1="19.5" x2="22" y2="19.5"/><path class="a" d="M18,21.25a.25.25,0,1,0,.25.25.25.25,0,0,0-.25-.25h0"/><path class="a" d="M5.846,7.832a5.224,5.224,0,0,0,7.333-1.055L4.791.5A5.224,5.224,0,0,0,5.846,7.832Z"/><line class="a" x1="10.424" y1="1.715" x2="8.984" y2="3.639"/><path class="a" d="M5.351,7.412l-3.029,3.7c-.174.213-.092.387.183.387H8.2c.275,0,.358-.174.183-.387Z"/><polyline class="a" points="13.5 3.5 20 3.5 20 8.5"/><polyline class="a" points="11.5 20.5 5 20.5 5 13.956"/></svg>