<?xml version="1.0" encoding="utf-8"?>
<!-- Generator: Adobe Illustrator 22.1.0, SVG Export Plug-In . SVG Version: 6.00 Build 0)  -->
<svg version="1.1" id="Layer_1" xmlns="http://www.w3.org/2000/svg" xmlns:xlink="http://www.w3.org/1999/xlink" x="0px" y="0px"
	 viewBox="0 0 24 24" style="enable-background:new 0 0 24 24;" xml:space="preserve">
<title>flash-1</title>
<g>
	<path d="M10.5,23.997c-0.069,0-0.137-0.01-0.203-0.028c-0.322-0.091-0.547-0.388-0.547-0.722v-8.25H7.023
		c-0.329,0-0.65-0.091-0.93-0.263c-0.832-0.512-1.092-1.606-0.58-2.438l7.348-11.942c0.135-0.22,0.38-0.357,0.639-0.357
		c0.069,0,0.138,0.01,0.204,0.028c0.321,0.091,0.546,0.388,0.546,0.722v8.25h2.727c0.328,0,0.649,0.091,0.928,0.263
		c0.833,0.512,1.094,1.606,0.581,2.439L11.139,23.64C11.003,23.86,10.759,23.997,10.5,23.997z M6.791,13.082
		c-0.079,0.128-0.039,0.296,0.089,0.375c0.043,0.027,0.092,0.041,0.142,0.041H10.5c0.414,0,0.75,0.336,0.75,0.75v6.35l5.959-9.684
		c0.079-0.128,0.039-0.297-0.09-0.375c-0.043-0.027-0.093-0.041-0.143-0.041H13.5c-0.414,0-0.75-0.336-0.75-0.75v-6.35L6.791,13.082
		z"/>
</g>
</svg>
