<svg id="Regular" xmlns="http://www.w3.org/2000/svg" viewBox="0 0 24 24"><defs><style>.cls-1{fill:none;stroke:currentColor;stroke-linecap:round;stroke-linejoin:round;stroke-width:1.5px;}</style></defs><title>multiple-woman-1</title><circle class="cls-1" cx="6" cy="3.75" r="3"/><path class="cls-1" d="M8.25,23.25,9,15.75h2.25V13.5A5.246,5.246,0,0,0,8.886,9.114L6,13.5,3.114,9.114A5.246,5.246,0,0,0,.75,13.5v2.25H3l.75,7.5Z"/><path class="cls-1" d="M3,3.75S3,7.5.75,7.5"/><path class="cls-1" d="M9,3.75S9,7.5,11.25,7.5"/><circle class="cls-1" cx="18" cy="3.75" r="3"/><path class="cls-1" d="M13.5,15.75H15l.75,7.5h4.5l.75-7.5h2.25V13.5a5.246,5.246,0,0,0-2.364-4.386L18,13.5,15.114,9.114A5.292,5.292,0,0,0,13.5,10.8"/><path class="cls-1" d="M15,3.75a6.123,6.123,0,0,1-.75,2.908"/><path class="cls-1" d="M21,3.75S21,7.5,23.25,7.5"/></svg>