<?xml version="1.0" encoding="utf-8"?>
<!-- Generator: Adobe Illustrator 22.1.0, SVG Export Plug-In . SVG Version: 6.00 Build 0)  -->
<svg version="1.1" id="Layer_1" xmlns="http://www.w3.org/2000/svg" xmlns:xlink="http://www.w3.org/1999/xlink" x="0px" y="0px"
	 viewBox="0 0 24 24" style="enable-background:new 0 0 24 24;" xml:space="preserve">
<title>video-player-monitor</title>
<g>
	<path d="M3.75,15c-1.241,0-2.25-1.009-2.25-2.25V2.25C1.5,1.01,2.509,0,3.75,0h3C7.164,0,7.5,0.337,7.5,0.75S7.164,1.5,6.75,1.5h-3
		C3.336,1.5,3,1.837,3,2.25v8.25h18V2.25c0-0.414-0.336-0.75-0.75-0.75h-4.5C15.336,1.5,15,1.164,15,0.75S15.336,0,15.75,0h4.5
		c1.241,0,2.25,1.009,2.25,2.25v10.5c0,1.241-1.009,2.25-2.25,2.25H3.75z M3,12.75c0,0.414,0.336,0.75,0.75,0.75h16.5
		c0.414,0,0.75-0.336,0.75-0.75V12H3V12.75z"/>
	<path d="M3.936,24.001c-0.384,0-0.751-0.155-1.034-0.437c-0.284-0.283-0.441-0.659-0.441-1.059c0-0.125,0.015-0.25,0.046-0.37
		l1.125-4.498C3.797,16.968,4.395,16.5,5.085,16.5h13.829c0.691,0,1.289,0.468,1.456,1.137l1.125,4.499
		c0.098,0.387,0.039,0.791-0.167,1.135c-0.206,0.344-0.533,0.587-0.921,0.685C20.287,23.985,20.164,24,20.042,24L3.936,24.001z
		 M3.961,22.501l16.079,0l-1.125-4.5L5.086,18C5.085,18,3.961,22.501,3.961,22.501z"/>
	<path d="M6.75,21C6.336,21,6,20.664,6,20.25s0.336-0.75,0.75-0.75h1.5C8.664,19.5,9,19.837,9,20.25S8.664,21,8.25,21H6.75z"/>
	<path d="M15.75,21C15.336,21,15,20.664,15,20.25s0.336-0.75,0.75-0.75h1.5c0.414,0,0.75,0.336,0.75,0.75S17.664,21,17.25,21H15.75z
		"/>
	<path d="M11.25,21c-0.414,0-0.75-0.336-0.75-0.75s0.336-0.75,0.75-0.75h1.5c0.414,0,0.75,0.336,0.75,0.75S13.164,21,12.75,21H11.25
		z"/>
	<path d="M10.561,8.25c-0.281,0-0.558-0.074-0.801-0.214C9.299,7.774,9.006,7.278,9,6.743V3.016
		c0.006-0.543,0.299-1.041,0.766-1.305C10.005,1.574,10.28,1.5,10.561,1.5c0.235,0,0.471,0.053,0.683,0.152l3.49,1.647
		c0.384,0.167,0.697,0.482,0.872,0.883c0.185,0.423,0.194,0.893,0.026,1.323c-0.168,0.43-0.494,0.769-0.917,0.954l-3.469,1.638
		C11.032,8.198,10.796,8.25,10.561,8.25z M10.561,3c-0.018,0-0.036,0.005-0.051,0.014l-0.01,3.72
		c0.025,0.011,0.043,0.016,0.062,0.016c0.015,0,0.029-0.003,0.043-0.01l3.488-1.646c0.075-0.033,0.118-0.076,0.141-0.135
		c0.022-0.058,0.021-0.118-0.003-0.175c-0.023-0.053-0.065-0.095-0.118-0.118L10.604,3.01C10.591,3.004,10.576,3,10.561,3z"/>
</g>
</svg>
