<?xml version="1.0" encoding="utf-8"?>
<!-- Generator: Adobe Illustrator 22.1.0, SVG Export Plug-In . SVG Version: 6.00 Build 0)  -->
<svg version="1.1" id="Layer_1" xmlns="http://www.w3.org/2000/svg" xmlns:xlink="http://www.w3.org/1999/xlink" x="0px" y="0px"
	 viewBox="0 0 24 24" style="enable-background:new 0 0 24 24;" xml:space="preserve">
<g>
	<title>database-hand</title>
	<path d="M18.5,14c-3.135,0-5.5-1.075-5.5-2.5v-9c0-0.015,0.002-0.036,0.006-0.055c0.043-1.387,2.403-2.444,5.496-2.444
		c3.135,0,5.5,1.075,5.5,2.5c0,0.009-0.001,0.02-0.002,0.031V11.5C24,12.925,21.635,14,18.5,14z M14,11.5c0,0.612,1.753,1.5,4.5,1.5
		s4.5-0.888,4.5-1.5V9.972C22,10.614,20.342,11,18.5,11S15,10.614,14,9.972V11.5z M14,8.5c0,0.612,1.753,1.5,4.5,1.5
		S23,9.112,23,8.5V6.972C22,7.614,20.342,8,18.5,8S15,7.614,14,6.972V8.5z M14,5.5C14,6.112,15.753,7,18.5,7S23,6.112,23,5.5V3.974
		c-1,0.641-2.658,1.027-4.498,1.027C16.659,5.001,15,4.615,14,3.972V5.5z M18.502,1.001c-2.747,0-4.5,0.888-4.5,1.5
		s1.753,1.5,4.5,1.5c2.723,0,4.483-0.884,4.498-1.493c0-0.005,0-0.01,0.001-0.017C22.988,1.884,21.233,1.001,18.502,1.001z"/>
	<path d="M0.5,24.001c-0.276,0-0.5-0.224-0.5-0.5v-10c0-0.276,0.224-0.5,0.5-0.5s0.5,0.224,0.5,0.5V15h6.5c1.74,0,3.219,1.3,3.464,3
		H16.5c1.93,0,3.5,1.57,3.5,3.5c0,0.276-0.224,0.5-0.5,0.5H1v1.501C1,23.777,0.776,24.001,0.5,24.001z M18.949,21
		c-0.235-1.141-1.261-2-2.449-2h-5.979c-0.007,0.001-0.015,0.001-0.021,0.001h-3c-0.276,0-0.5-0.224-0.5-0.5s0.224-0.5,0.5-0.5
		h2.448C9.714,16.859,8.688,16,7.5,16H1v5H18.949z"/>
</g>
</svg>
