<?xml version="1.0" encoding="utf-8"?>
<!-- Generator: Adobe Illustrator 22.1.0, SVG Export Plug-In . SVG Version: 6.00 Build 0)  -->
<svg version="1.1" id="Layer_1" xmlns="http://www.w3.org/2000/svg" xmlns:xlink="http://www.w3.org/1999/xlink" x="0px" y="0px"
	 viewBox="0 0 24 24" style="enable-background:new 0 0 24 24;" xml:space="preserve">
<g>
	<title>database-lock</title>
	<path d="M10.021,22c-5.701,0-10-1.935-10-4.5v-13c0-0.009,0.001-0.019,0.002-0.029c0.022-2.544,4.317-4.47,9.999-4.47
		c5.701,0,10,1.935,10,4.5c0,0.007-0.001,0.023-0.001,0.03l0,4.47c0,0.276-0.224,0.5-0.5,0.5s-0.5-0.224-0.5-0.5V6.516
		c-1.627,1.526-5.042,2.485-8.999,2.485c-3.96,0-7.375-0.96-9.001-2.487v1.987c0,1.865,4.206,3.5,9,3.5
		c0.339,0,0.659-0.007,0.977-0.022c0,0,0.001,0,0.001,0c0.289,0,0.509,0.209,0.522,0.477c0.006,0.133-0.04,0.261-0.13,0.36
		c-0.09,0.099-0.213,0.156-0.346,0.163c-0.333,0.015-0.668,0.023-1.023,0.023c-3.958,0-7.374-0.96-9-2.486v2.486
		c0,1.865,4.206,3.5,9,3.5c0.342,0,0.661-0.007,0.977-0.022c0.004,0,0.025-0.001,0.029-0.001c0.265,0,0.481,0.21,0.494,0.478
		c0.006,0.133-0.04,0.261-0.13,0.36c-0.09,0.099-0.213,0.156-0.346,0.163c-0.333,0.015-0.668,0.023-1.023,0.023
		c-3.958,0-7.374-0.96-9-2.486V17.5c0,1.865,4.206,3.5,9,3.5c0.34,0,0.668-0.007,0.977-0.021c0.004,0,0.026-0.001,0.03-0.001
		c0.259,0,0.48,0.214,0.492,0.477c0.006,0.134-0.04,0.261-0.13,0.36c-0.09,0.099-0.213,0.156-0.346,0.163
		C10.719,21.992,10.374,22,10.021,22z M10.022,1.001c-4.794,0-9,1.635-9,3.5s4.206,3.5,9,3.5c4.775,0,8.98-1.63,8.999-3.488
		c0-0.005,0-0.011,0.001-0.018C19.015,2.634,14.81,1.001,10.022,1.001z"/>
	<path d="M15.521,24c-0.827,0-1.5-0.673-1.5-1.5v-6c0-0.827,0.673-1.5,1.5-1.5h0.5v-1c0-1.654,1.346-3,3-3s3,1.346,3,3v1h0.5
		c0.827,0,1.5,0.673,1.5,1.5v6c0,0.827-0.673,1.5-1.5,1.5H15.521z M15.521,16c-0.276,0-0.5,0.224-0.5,0.5v6
		c0,0.276,0.224,0.5,0.5,0.5h7c0.276,0,0.5-0.224,0.5-0.5v-6c0-0.276-0.224-0.5-0.5-0.5H15.521z M21.021,15v-1c0-1.103-0.897-2-2-2
		s-2,0.897-2,2L21.021,15z"/>
	<path d="M19.021,21.314c-0.965,0-1.75-0.785-1.75-1.75s0.785-1.75,1.75-1.75s1.75,0.785,1.75,1.75S19.986,21.314,19.021,21.314z
		 M19.021,18.814c-0.414,0-0.75,0.336-0.75,0.75s0.336,0.75,0.75,0.75s0.75-0.336,0.75-0.75S19.435,18.814,19.021,18.814z"/>
</g>
</svg>
