<?xml version="1.0" encoding="utf-8"?>
<!-- Generator: Adobe Illustrator 22.1.0, SVG Export Plug-In . SVG Version: 6.00 Build 0)  -->
<svg version="1.1" id="Layer_1" xmlns="http://www.w3.org/2000/svg" xmlns:xlink="http://www.w3.org/1999/xlink" x="0px" y="0px"
	 viewBox="0 0 24 24" style="enable-background:new 0 0 24 24;" xml:space="preserve">
<g>
	<title>database-2</title>
	<path d="M12,23c-5.701,0-10-1.935-10-4.5v-13C2,5.49,2.001,5.481,2.002,5.471c0.022-2.544,4.317-4.47,9.999-4.47
		c5.701,0,10,1.935,10,4.5C22.001,5.508,22,5.526,22,5.533L22,18.5C22,21.065,17.701,23,12,23z M3,18.5c0,1.865,4.206,3.5,9,3.5
		c4.794,0,9-1.635,9-3.5v-2.486c-1.626,1.526-5.042,2.486-9,2.486c-3.958,0-7.374-0.96-9-2.486V18.5z M3,14c0,1.865,4.206,3.5,9,3.5
		c4.794,0,9-1.635,9-3.5v-2.486C19.374,13.04,15.959,14,12,14s-7.374-0.96-9-2.486V14z M3,9.5c0,1.864,4.206,3.5,9,3.5
		c4.794,0,9-1.635,9-3.5V7.516c-1.627,1.526-5.042,2.485-8.999,2.485c-3.96,0-7.375-0.96-9.001-2.487V9.5z M12.001,2.001
		c-4.794,0-9,1.635-9,3.5s4.206,3.5,9,3.5c4.77,0,8.975-1.628,8.999-3.484c0-0.006,0-0.013,0.001-0.021
		C20.992,3.633,16.787,2.001,12.001,2.001z"/>
</g>
</svg>
