<?xml version="1.0" encoding="utf-8"?>
<!-- Generator: Adobe Illustrator 22.1.0, SVG Export Plug-In . SVG Version: 6.00 Build 0)  -->
<svg version="1.1" id="Layer_1" xmlns="http://www.w3.org/2000/svg" xmlns:xlink="http://www.w3.org/1999/xlink" x="0px" y="0px"
	 viewBox="0 0 24 24" style="enable-background:new 0 0 24 24;" xml:space="preserve">
<g>
	<title>database-share_1</title>
	<path d="M8.994,21.979c-5.197-0.229-8.972-2.113-8.972-4.478V4.5c0.002-2.565,4.301-4.499,10-4.499c5.701,0,10,1.935,10,4.5v4.5
		c0,0.276-0.224,0.5-0.5,0.5s-0.5-0.224-0.5-0.5V6.515c-1.626,1.526-5.042,2.486-9,2.486c-3.958,0-7.374-0.96-9-2.486V8.5
		c0,1.865,4.206,3.5,9,3.5c0.276,0,0.5,0.224,0.5,0.5c0,0.276-0.224,0.5-0.5,0.5c-3.958,0-7.374-0.96-9-2.486v2.487
		c0,1.655,3.309,3.17,7.533,3.45c0.275,0.019,0.484,0.257,0.466,0.532c-0.017,0.262-0.237,0.467-0.499,0.467
		c-0.004,0-0.024,0-0.028-0.001c-3.299-0.219-6.068-1.137-7.473-2.445v2.497c0,1.723,3.599,3.284,8.022,3.479
		c0.276,0.012,0.49,0.246,0.478,0.521C9.509,21.77,9.29,21.98,9.022,21.98C9.016,21.98,9,21.979,8.994,21.979z M10.022,1.001
		c-4.794,0-9,1.635-9,3.5s4.206,3.5,9,3.5c4.795,0,9-1.635,9-3.5S14.816,1.001,10.022,1.001z"/>
	<path d="M21.27,24.001c-1.516,0-2.75-1.234-2.75-2.75c0-0.18,0.018-0.36,0.055-0.54l-2.482-0.993
		c-0.503,0.796-1.374,1.282-2.323,1.282c-1.516,0-2.75-1.234-2.75-2.75s1.234-2.75,2.75-2.75c0.797,0,1.535,0.337,2.058,0.932
		l2.868-1.72c-0.117-0.309-0.176-0.632-0.176-0.961c0-1.516,1.234-2.75,2.75-2.75s2.75,1.234,2.75,2.75s-1.234,2.75-2.75,2.75
		c-0.797,0-1.535-0.337-2.058-0.932l-2.868,1.721c0.117,0.309,0.176,0.632,0.176,0.961c0,0.179-0.018,0.36-0.055,0.539l2.482,0.993
		c0.503-0.796,1.374-1.282,2.323-1.282c1.516,0,2.75,1.234,2.75,2.75S22.786,24.001,21.27,24.001z M21.27,19.501
		c-0.965,0-1.75,0.785-1.75,1.75s0.785,1.75,1.75,1.75s1.75-0.785,1.75-1.75S22.235,19.501,21.27,19.501z M13.77,16.501
		c-0.965,0-1.75,0.785-1.75,1.75s0.785,1.75,1.75,1.75s1.75-0.785,1.75-1.75c0-0.304-0.081-0.605-0.235-0.871
		c-0.008-0.01-0.015-0.02-0.02-0.028c-0.006-0.01-0.011-0.021-0.016-0.032C14.937,16.814,14.38,16.501,13.77,16.501z M19.789,14.68
		c0.316,0.51,0.871,0.821,1.48,0.821c0.965,0,1.75-0.785,1.75-1.75s-0.785-1.75-1.75-1.75s-1.75,0.785-1.75,1.75
		c0,0.304,0.081,0.604,0.235,0.871c0.009,0.011,0.017,0.022,0.023,0.033C19.781,14.662,19.786,14.671,19.789,14.68z"/>
</g>
</svg>
