<?xml version="1.0" encoding="utf-8"?>
<!-- Generator: Adobe Illustrator 22.1.0, SVG Export Plug-In . SVG Version: 6.00 Build 0)  -->
<svg version="1.1" id="Layer_1" xmlns="http://www.w3.org/2000/svg" xmlns:xlink="http://www.w3.org/1999/xlink" x="0px" y="0px"
	 viewBox="0 0 24 24" style="enable-background:new 0 0 24 24;" xml:space="preserve">
<g>
	<title>database-warning</title>
	<path d="M8.709,21.964C3.58,21.679-0.001,19.843-0.001,17.5v-13c0.002-2.565,4.301-4.499,10-4.499c5.701,0,10,1.935,10,4.5v5.5
		c0,0.276-0.224,0.5-0.5,0.5s-0.5-0.224-0.5-0.5V6.515c-1.626,1.526-5.042,2.486-9,2.486c-3.958,0-7.374-0.96-9-2.486V8.5
		c0,0.443,0.243,0.886,0.721,1.318C3.211,11.164,6.381,12,9.992,12c0,0,0,0,0.001,0c0.781,0,1.569-0.04,2.343-0.119
		c0.015-0.002,0.034-0.003,0.053-0.003c0.251,0,0.469,0.197,0.495,0.449c0.028,0.274-0.173,0.52-0.447,0.549
		c-0.799,0.082-1.613,0.123-2.42,0.123c-3.866,0-7.302-0.934-8.968-2.438c-0.017-0.016-0.034-0.031-0.051-0.047V13
		c0,1.865,4.206,3.5,9,3.5c0.276,0,0.5,0.224,0.5,0.5s-0.224,0.5-0.5,0.5c-3.958,0-7.374-0.96-9-2.486V17.5
		c0,1.673,3.483,3.227,7.765,3.466c0.133,0.007,0.256,0.066,0.345,0.166c0.089,0.1,0.134,0.228,0.127,0.361
		c-0.015,0.265-0.234,0.472-0.499,0.472C8.732,21.965,8.714,21.965,8.709,21.964z M9.999,1.001c-4.794,0-9,1.635-9,3.5
		s4.206,3.5,9,3.5c4.795,0,9-1.635,9-3.5S14.793,1.001,9.999,1.001z"/>
	<circle cx="17.499" cy="20.75" r="0.75"/>
	<path d="M17.499,19.001c-0.276,0-0.5-0.224-0.5-0.5v-3c0-0.276,0.224-0.5,0.5-0.5s0.5,0.224,0.5,0.5v3
		C17.999,18.777,17.775,19.001,17.499,19.001z"/>
	<path d="M12.443,23.997c-0.507,0-0.967-0.256-1.232-0.686c-0.263-0.427-0.281-0.967-0.048-1.41l5.056-9.634
		c0.137-0.257,0.344-0.464,0.598-0.599c0.21-0.112,0.445-0.171,0.681-0.171c0.143,0,0.285,0.021,0.423,0.063
		c0.368,0.112,0.671,0.36,0.854,0.698c0.003,0.005,5.062,9.645,5.062,9.645c0.233,0.443,0.214,0.982-0.048,1.409
		c-0.267,0.43-0.727,0.686-1.231,0.686H12.443z M17.498,12.497c-0.073,0-0.145,0.018-0.211,0.053
		c-0.079,0.042-0.143,0.106-0.185,0.185l-5.054,9.631c-0.069,0.132-0.064,0.293,0.014,0.419c0.08,0.13,0.226,0.211,0.38,0.211
		h10.114c0.157,0,0.3-0.079,0.382-0.212c0.077-0.125,0.083-0.286,0.013-0.417l-5.056-9.635c-0.056-0.104-0.15-0.181-0.265-0.216
		C17.586,12.504,17.542,12.497,17.498,12.497z"/>
</g>
</svg>
