<?xml version="1.0" encoding="utf-8"?>
<!-- Generator: Adobe Illustrator 22.1.0, SVG Export Plug-In . SVG Version: 6.00 Build 0)  -->
<svg version="1.1" id="Layer_1" xmlns="http://www.w3.org/2000/svg" xmlns:xlink="http://www.w3.org/1999/xlink" x="0px" y="0px"
	 viewBox="0 0 24 24" style="enable-background:new 0 0 24 24;" xml:space="preserve">
<g>
	<title>database-monitor-sync</title>
	<path d="M6,10.501c-0.134,0-0.259-0.052-0.354-0.146l-2-2C3.552,8.26,3.5,8.135,3.5,8.001s0.052-0.259,0.146-0.354
		S3.867,7.501,4,7.501s0.259,0.052,0.354,0.146L5.5,8.794V7.751C5.5,6.618,5.941,5.551,6.744,4.747
		C7.547,3.944,8.614,3.501,9.747,3.5h0.545L9.647,2.854C9.552,2.76,9.5,2.635,9.5,2.501s0.052-0.259,0.146-0.354
		S9.867,2.001,10,2.001s0.259,0.052,0.354,0.146l1.497,1.497c0.047,0.046,0.086,0.103,0.112,0.167
		c0.019,0.046,0.026,0.089,0.029,0.12C11.996,3.95,12,3.972,12,4c0,0.066-0.013,0.131-0.039,0.193
		c-0.006,0.015-0.016,0.033-0.027,0.049c-0.014,0.027-0.04,0.071-0.081,0.112l-1.5,1.5C10.259,5.949,10.134,6.001,10,6.001
		S9.741,5.949,9.647,5.854S9.5,5.635,9.5,5.501s0.052-0.259,0.146-0.354L10.294,4.5H9.75c-0.867,0-1.684,0.339-2.298,0.954
		C6.838,6.069,6.5,6.884,6.5,7.751v1.043l1.146-1.146C7.741,7.553,7.867,7.501,8,7.501s0.259,0.052,0.354,0.146
		c0.195,0.195,0.195,0.512,0,0.707l-2,2C6.259,10.449,6.134,10.501,6,10.501z"/>
	<path d="M3,24.001c-0.276,0-0.5-0.224-0.5-0.5s0.224-0.5,0.5-0.5h3V22H2c-1.136-0.033-2.03-0.976-2-2.101L0,15c0-1.103,0.897-2,2-2
		h9c1.103,0,2,0.897,2,2v4.912c0.032,1.116-0.859,2.056-1.986,2.088H7v1.001h3c0.276,0,0.5,0.224,0.5,0.5s-0.224,0.5-0.5,0.5H3z
		 M1,19.913C0.985,20.499,1.44,20.983,2.015,21H11c0.565-0.016,1.016-0.498,1-1.074l0-0.925H1V19.913z M12,18.001V15
		c0-0.552-0.449-1-1-1H2c-0.551,0-1,0.448-1,1v3.001H12z"/>
	<path d="M19.5,12.5c-2.565,0-4.5-1.075-4.5-2.5c0,0,0-7.508,0-7.512c0.012-1.419,1.943-2.487,4.5-2.487
		c2.557,0,4.488,1.068,4.5,2.487C24,2.492,24,10,24,10C24,11.425,22.066,12.5,19.5,12.5z M16,10c0,0.708,1.497,1.5,3.5,1.5
		S23,10.708,23,10V9.101C22.167,9.67,20.906,10,19.5,10S16.833,9.67,16,9.101V10z M16,7.5C16,8.208,17.497,9,19.5,9S23,8.208,23,7.5
		V6.601C22.167,7.17,20.906,7.5,19.5,7.5S16.833,7.17,16,6.601V7.5z M16,5c0,0.708,1.497,1.5,3.5,1.5S23,5.708,23,5V4.102
		c-0.833,0.569-2.094,0.899-3.5,0.899s-2.667-0.33-3.5-0.899V5z M19.5,1.001c-2.003,0-3.5,0.792-3.5,1.5s1.497,1.5,3.5,1.5
		s3.5-0.792,3.5-1.5S21.503,1.001,19.5,1.001z"/>
</g>
</svg>
