<?xml version="1.0" encoding="utf-8"?>
<!-- Generator: Adobe Illustrator 22.1.0, SVG Export Plug-In . SVG Version: 6.00 Build 0)  -->
<svg version="1.1" id="Layer_1" xmlns="http://www.w3.org/2000/svg" xmlns:xlink="http://www.w3.org/1999/xlink" x="0px" y="0px"
	 viewBox="0 0 24 24" style="enable-background:new 0 0 24 24;" xml:space="preserve">
<g>
	<title>database-sync</title>
	<path d="M8.973,21.977C3.776,21.748,0,19.865,0,17.499v-13C0.002,1.934,4.301,0,10,0c5.701,0,10,1.935,10,4.5v5
		c0,0.276-0.224,0.5-0.5,0.5S19,9.775,19,9.5V6.514C17.374,8.04,13.958,9,10,9S2.626,8.04,1,6.514v1.985c0,1.865,4.206,3.5,9,3.5
		c0.276,0,0.5,0.224,0.5,0.5c0,0.276-0.224,0.5-0.5,0.5c-3.958,0-7.374-0.96-9-2.486v2.486c0,1.724,3.599,3.285,8.022,3.479
		c0.133,0.006,0.257,0.063,0.347,0.162S9.505,16.866,9.5,17C9.488,17.268,9.269,17.478,9,17.478c-0.005,0-0.022,0-0.027-0.001
		C5.447,17.322,2.485,16.388,1,14.997v2.501c0,1.724,3.599,3.285,8.022,3.479c0.133,0.006,0.257,0.063,0.347,0.162
		S9.505,21.366,9.5,21.5C9.488,21.768,9.269,21.978,9,21.978C8.995,21.978,8.978,21.977,8.973,21.977z M10,1C5.206,1,1,2.635,1,4.5
		S5.206,8,10,8s9-1.635,9-3.5S14.794,1,10,1z"/>
	<path d="M17.638,24.006c-0.664,0-1.322-0.11-1.955-0.326c-1.689-0.576-3.034-1.894-3.683-3.526V22c0,0.276-0.224,0.5-0.5,0.5
		S11,22.275,11,22v-3.5c0-0.276,0.224-0.5,0.5-0.5H15c0.276,0,0.5,0.224,0.5,0.5S15.276,19,15,19h-2.313
		c0.374,1.74,1.623,3.156,3.319,3.735c0.529,0.18,1.079,0.272,1.633,0.272c2.173,0,4.104-1.381,4.805-3.436
		c0.069-0.203,0.259-0.339,0.473-0.339c0.055,0,0.11,0.009,0.163,0.027c0.125,0.043,0.228,0.132,0.286,0.252
		c0.059,0.12,0.068,0.256,0.024,0.382C22.551,22.354,20.24,24.006,17.638,24.006z"/>
	<path d="M20,17c-0.276,0-0.5-0.224-0.5-0.5S19.724,16,20,16h2.313c-0.373-1.741-1.623-3.157-3.319-3.735
		c-0.534-0.182-1.086-0.274-1.642-0.274c-0.776,0-1.527,0.176-2.232,0.523c-1.216,0.597-2.126,1.633-2.564,2.915
		c-0.069,0.203-0.259,0.339-0.473,0.339c-0.056,0-0.11-0.009-0.163-0.028c-0.125-0.042-0.227-0.132-0.286-0.252
		c-0.059-0.12-0.068-0.256-0.024-0.382c0.523-1.535,1.613-2.774,3.069-3.49c0.844-0.415,1.744-0.626,2.673-0.626
		c0.666,0,1.327,0.11,1.965,0.328c1.689,0.576,3.034,1.893,3.684,3.526V13c0-0.276,0.224-0.5,0.5-0.5S24,12.724,24,13v3.5
		c0,0.276-0.224,0.5-0.5,0.5H20z"/>
</g>
</svg>
