<?xml version="1.0" encoding="utf-8"?>
<!-- Generator: Adobe Illustrator 22.1.0, SVG Export Plug-In . SVG Version: 6.00 Build 0)  -->
<svg version="1.1" id="Layer_1" xmlns="http://www.w3.org/2000/svg" xmlns:xlink="http://www.w3.org/1999/xlink" x="0px" y="0px"
	 viewBox="0 0 24 24" style="enable-background:new 0 0 24 24;" xml:space="preserve">
<g>
	<title>database-disable</title>
	<path d="M8.994,21.978c-5.197-0.229-8.973-2.112-8.973-4.477V4.5c0.002-2.565,4.301-4.499,10-4.499c5.701,0,10,1.935,10,4.5v4.5
		c0,0.276-0.224,0.5-0.5,0.5s-0.5-0.224-0.5-0.5V6.515c-1.626,1.526-5.042,2.486-9,2.486s-7.374-0.96-9-2.486V8.5
		c0,1.865,4.206,3.5,9,3.5c0.276,0,0.5,0.224,0.5,0.5c0,0.276-0.224,0.5-0.5,0.5c-3.958,0-7.374-0.96-9-2.486v2.487
		c0,1.655,3.309,3.17,7.533,3.45c0.275,0.019,0.484,0.257,0.466,0.532c-0.017,0.262-0.237,0.467-0.499,0.467
		c-0.004,0-0.024,0-0.028-0.001c-3.299-0.219-6.068-1.137-7.473-2.445v2.497c0,1.724,3.599,3.284,8.022,3.479
		c0.133,0.006,0.257,0.063,0.347,0.162s0.137,0.226,0.131,0.36c-0.012,0.268-0.231,0.478-0.499,0.478
		C9.016,21.979,8.999,21.979,8.994,21.978z M10.021,1.001c-4.794,0-9,1.635-9,3.5s4.206,3.5,9,3.5s9-1.635,9-3.5
		S14.815,1.001,10.021,1.001z"/>
	<path d="M17.52,24.001c-1.722,0-3.345-0.669-4.572-1.884c-0.009-0.007-0.017-0.014-0.024-0.021
		c-0.007-0.007-0.014-0.015-0.021-0.024c-1.215-1.227-1.884-2.849-1.884-4.572c0-3.584,2.916-6.5,6.5-6.5
		c1.719,0,3.338,0.666,4.564,1.876c0.012,0.009,0.024,0.019,0.032,0.027c0.013,0.013,0.024,0.026,0.032,0.038
		c1.202,1.213,1.872,2.836,1.872,4.559C24.02,21.085,21.104,24.001,17.52,24.001z M14.003,21.725
		c0.988,0.824,2.227,1.276,3.517,1.276c3.033,0,5.5-2.467,5.5-5.5c0-1.29-0.451-2.529-1.276-3.517L14.003,21.725z M17.52,12.001
		c-3.033,0-5.5,2.467-5.5,5.5c0,1.29,0.451,2.529,1.276,3.517l7.742-7.742C20.049,12.452,18.81,12.001,17.52,12.001z"/>
</g>
</svg>
