<?xml version="1.0" encoding="utf-8"?>
<!-- Generator: Adobe Illustrator 22.1.0, SVG Export Plug-In . SVG Version: 6.00 Build 0)  -->
<svg version="1.1" id="Layer_1" xmlns="http://www.w3.org/2000/svg" xmlns:xlink="http://www.w3.org/1999/xlink" x="0px" y="0px"
	 viewBox="0 0 24 24" style="enable-background:new 0 0 24 24;" xml:space="preserve">
<g>
	<title>database-1</title>
	<path d="M6,24.001c-0.276,0-0.5-0.224-0.5-0.5s0.224-0.5,0.5-0.5h5.503v-4.022C6.851,18.794,3.5,17.345,3.5,15.5v-12
		c0-0.015,0.002-0.036,0.006-0.055c0.047-1.957,3.911-3.444,8.997-3.444c5.131,0,9,1.505,9,3.5c0,0.008-0.002,0.04-0.002,0.048
		l0,11.951c0,1.995-3.868,3.5-8.997,3.5v4.001H18c0.276,0,0.5,0.224,0.5,0.5s-0.224,0.5-0.5,0.5H6z M4.5,15.5
		c0,1.044,3.043,2.5,8,2.5c2.258,0,4.35-0.306,5.891-0.862c1.301-0.469,2.109-1.097,2.109-1.638v-2.342
		C19.004,14.289,15.97,15,12.5,15c-3.471,0-6.504-0.711-8-1.842V15.5z M4.5,11.5c0,1.044,3.043,2.5,8,2.5
		c2.258,0,4.35-0.306,5.891-0.862c1.301-0.469,2.109-1.097,2.109-1.638V9.158C19.004,10.289,15.971,11,12.5,11
		c-3.471,0-6.504-0.711-8-1.842V11.5z M4.5,7.5c0,1.044,3.043,2.5,8,2.5c2.258,0,4.35-0.306,5.891-0.862
		C19.692,8.668,20.5,8.041,20.5,7.5V5.161c-1.498,1.13-4.53,1.84-7.997,1.84c-3.474,0-6.508-0.712-8.003-1.844V7.5z M12.503,1.001
		c-2.257,0-4.349,0.306-5.891,0.862C5.311,2.333,4.503,2.96,4.503,3.501c0,1.044,3.043,2.5,8,2.5c5.074,0,7.95-1.463,7.997-2.474
		l0-0.027c0-0.008,0-0.017,0.001-0.026C20.458,2.459,17.604,1.001,12.503,1.001z"/>
	<path d="M1.25,24c-0.414,0-0.75-0.336-0.75-0.75c0-0.396,0.311-0.724,0.708-0.747C1.218,22.501,1.234,22.5,1.25,22.5
		C1.664,22.5,2,22.836,2,23.25S1.664,24,1.25,24z"/>
	<path d="M3.75,24C3.336,24,3,23.664,3,23.25c0-0.396,0.311-0.724,0.708-0.747C3.718,22.501,3.734,22.5,3.75,22.5
		c0.414,0,0.75,0.336,0.75,0.75S4.164,24,3.75,24z"/>
	<path d="M20.25,24c-0.414,0-0.75-0.336-0.75-0.75c0-0.404,0.317-0.733,0.722-0.748C20.234,22.5,20.237,22.5,20.25,22.5
		c0.414,0,0.75,0.336,0.75,0.75S20.664,24,20.25,24z"/>
	<path d="M22.75,24C22.336,24,22,23.664,22,23.25c0-0.404,0.317-0.733,0.722-0.748C22.734,22.5,22.737,22.5,22.75,22.5
		c0.414,0,0.75,0.336,0.75,0.75S23.164,24,22.75,24z"/>
</g>
</svg>
