<svg xmlns="http://www.w3.org/2000/svg" viewBox="0 0 24 24"><title>email-action-read-document</title><path d="M18.409,15.131a.754.754,0,0,1-.4.119H6a.754.754,0,0,1-.4-.119L.385,11.781a.25.25,0,0,0-.385.21V22a2,2,0,0,0,2,2H22a2,2,0,0,0,2-2V11.993a.25.25,0,0,0-.385-.211Z"/><path d="M5.115,13.041a.25.25,0,0,0,.385-.21V2.25A.25.25,0,0,1,5.75,2h12.5a.25.25,0,0,1,.25.25V12.825a.25.25,0,0,0,.385.211l4.063-2.608a.25.25,0,0,0,.008-.416L20.5,8.3l0-6.094a2.114,2.114,0,0,0-2-2.208H5.5a2.115,2.115,0,0,0-2,2.209L3.5,8.3l-2.458,1.71a.25.25,0,0,0,.007.416Z"/><path d="M11.243,5a.75.75,0,0,0-.75-.75h-2a.75.75,0,0,0,0,1.5h2A.75.75,0,0,0,11.243,5Z"/><path d="M7.75,8.5a.75.75,0,0,0,.75.75h7a.75.75,0,1,0,0-1.5h-7A.75.75,0,0,0,7.75,8.5Z"/><path d="M8.5,12.75h7a.75.75,0,1,0,0-1.5h-7a.75.75,0,0,0,0,1.5Z"/></svg>