<svg xmlns="http://www.w3.org/2000/svg" viewBox="0 0 24 24"><title>email-action-send-1</title><path d="M13.073,13.25H17.6v-.078a2.135,2.135,0,0,1,1.369-2.043A2.074,2.074,0,0,1,21,11.5V3.25a.158.158,0,0,0-.1-.147.161.161,0,0,0-.173.034L12.2,11.664a2.407,2.407,0,0,1-3.4,0L.273,3.137A.158.158,0,0,0,.1,3.1.16.16,0,0,0,0,3.25v10.5a1.749,1.749,0,0,0,1.75,1.75h8.787A2.6,2.6,0,0,1,13.073,13.25Z"/><path d="M9.728,10.737a1.1,1.1,0,0,0,1.547,0L19.75,2.261a.437.437,0,0,0-.246-.742,1.751,1.751,0,0,0-.253-.019H1.751a1.748,1.748,0,0,0-.252.019.437.437,0,0,0-.246.742Z"/><path d="M20.182,12.748a.61.61,0,0,0-.69-.213.629.629,0,0,0-.391.637V14.75H13.073A1.124,1.124,0,0,0,12,15.916v3.168a1.124,1.124,0,0,0,1.074,1.166H19.1v1.578a.609.609,0,0,0,.59.672.637.637,0,0,0,.492-.248l3.611-4.189a.875.875,0,0,0,0-1.124Z"/></svg>