<svg xmlns="http://www.w3.org/2000/svg" viewBox="0 0 24 24"><title>email-action-music</title><path d="M18.409,15.131A.758.758,0,0,1,18,15.25H6a.757.757,0,0,1-.405-.119L.385,11.781a.25.25,0,0,0-.385.21V22a2,2,0,0,0,2,2H22a2,2,0,0,0,2-2V11.993a.25.25,0,0,0-.385-.21Z"/><path d="M5.12,13.041a.25.25,0,0,0,.385-.21L5.5,2.25A.249.249,0,0,1,5.75,2h12.5a.25.25,0,0,1,.25.25l.01,10.575a.25.25,0,0,0,.385.21l4.053-2.607a.248.248,0,0,0,.115-.206.251.251,0,0,0-.107-.21L20.5,8.3l0-6.093a2.114,2.114,0,0,0-2-2.208H5.5a2.115,2.115,0,0,0-2,2.209L3.5,8.3l-2.458,1.71a.249.249,0,0,0,.007.415Z"/><path d="M10.677,4.859A1.753,1.753,0,0,0,9.25,6.58v3.2A1.708,1.708,0,0,0,9,9.75a1.75,1.75,0,1,0,1.75,1.75V6.58c0-.121.086-.225.295-.27l3.409-1.1a.25.25,0,0,1,.3.247v2.32a1.708,1.708,0,0,0-.25-.025A1.75,1.75,0,1,0,16.25,9.5V5.455a1.745,1.745,0,0,0-.632-1.348,1.776,1.776,0,0,0-1.532-.35Z"/></svg>