<svg xmlns="http://www.w3.org/2000/svg" viewBox="0 0 24 24"><title>email-action-skull</title><path d="M18.409,15.131a.754.754,0,0,1-.4.119H6a.754.754,0,0,1-.4-.119L.385,11.781a.25.25,0,0,0-.385.21V22a2,2,0,0,0,2,2H22a2,2,0,0,0,2-2V11.993a.25.25,0,0,0-.385-.211Z"/><path d="M5.12,13.041a.25.25,0,0,0,.385-.21L5.5,2.25A.249.249,0,0,1,5.75,2h12.5a.25.25,0,0,1,.25.25V12.825a.25.25,0,0,0,.385.211l4.063-2.608a.25.25,0,0,0,.008-.416L20.5,8.3l0-6.094a2.114,2.114,0,0,0-2-2.208H5.5a2.115,2.115,0,0,0-2,2.209L3.5,8.3l-2.458,1.71a.251.251,0,0,0,.007.416Z"/><path d="M8.825,9.619a1.428,1.428,0,0,1,.3.919v.95a.75.75,0,0,0,1.5,0,.188.188,0,0,1,.375,0,.75.75,0,0,0,1.5,0,.188.188,0,0,1,.375,0,.75.75,0,0,0,1.5,0v-.95a1.428,1.428,0,0,1,.3-.919,3.7,3.7,0,0,0,.825-2.4A3.647,3.647,0,0,0,14.578,4.8,3.861,3.861,0,0,0,11.75,3.551a3.806,3.806,0,0,0-2.872,1.3,3.757,3.757,0,0,0-.053,4.764ZM10.5,8.232a1,1,0,1,1,1-1A1,1,0,0,1,10.5,8.232Zm2.5,0a1,1,0,1,1,1-1A1,1,0,0,1,13,8.232Z"/></svg>