<svg xmlns="http://www.w3.org/2000/svg" viewBox="0 0 24 24"><title>email-action-download</title><path d="M19.6,16.25a.3.3,0,0,0-.3.008l-5.872,3.694a2.682,2.682,0,0,1-2.844,0L4.706,16.259a.3.3,0,0,0-.3-.009.3.3,0,0,0-.154.263V22.2A1.8,1.8,0,0,0,6.038,24H17.962a1.8,1.8,0,0,0,1.788-1.8V16.513A.3.3,0,0,0,19.6,16.25Z"/><path d="M11.526,18.427a.9.9,0,0,0,.948,0l7.234-4.552a.088.088,0,0,0,.042-.075A1.8,1.8,0,0,0,17.962,12H6.038A1.8,1.8,0,0,0,4.25,13.8a.089.089,0,0,0,.042.076Z"/><path d="M11.45,10.1a1,1,0,0,0,1.6,0l3-4a1,1,0,0,0-.8-1.6H14a.25.25,0,0,1-.25-.25V1.5a1.5,1.5,0,0,0-3,0V4.25a.25.25,0,0,1-.25.25H9.25a1,1,0,0,0-.8,1.6Z"/></svg>