<svg xmlns="http://www.w3.org/2000/svg" viewBox="0 0 24 24"><title>email-action-download_1</title><path d="M17.5,9.5a7.908,7.908,0,0,1,3.151.657A.251.251,0,0,0,21,9.927V1.75a.158.158,0,0,0-.1-.147.16.16,0,0,0-.173.034L12.2,10.164a2.407,2.407,0,0,1-3.4,0L.271,1.637A.159.159,0,0,0,0,1.75v10.5A1.749,1.749,0,0,0,1.75,14h8.432a.219.219,0,0,0,.2-.119A8,8,0,0,1,17.5,9.5Z"/><path d="M9.726,9.236a1.094,1.094,0,0,0,1.547,0L19.748.761A.437.437,0,0,0,19.5.019,1.62,1.62,0,0,0,19.249,0H1.749A1.62,1.62,0,0,0,1.5.019a.437.437,0,0,0-.352.3A.441.441,0,0,0,1.25.761Z"/><path d="M17.5,11A6.5,6.5,0,1,0,24,17.5,6.508,6.508,0,0,0,17.5,11Zm2.391,7.312-2,2.5a.5.5,0,0,1-.782,0l-2-2.5A.5.5,0,0,1,15.5,17.5h1a.25.25,0,0,0,.25-.25V14.5a.75.75,0,0,1,1.5,0v2.75a.25.25,0,0,0,.25.25h1a.5.5,0,0,1,.391.812Z"/></svg>