<svg xmlns="http://www.w3.org/2000/svg" viewBox="0 0 24 24"><title>email-action-heart</title><path d="M5.12,13.041a.25.25,0,0,0,.385-.21L5.5,2.25A.249.249,0,0,1,5.75,2h12.5a.25.25,0,0,1,.25.25l.009,10.575a.251.251,0,0,0,.131.219.248.248,0,0,0,.255-.009l4.053-2.607a.25.25,0,0,0,.008-.415L20.5,8.3l0-6.094a2.114,2.114,0,0,0-2-2.208H5.5a2.115,2.115,0,0,0-2,2.209L3.5,8.3l-2.458,1.71a.251.251,0,0,0,.007.416Z"/><path d="M18.409,15.131a.754.754,0,0,1-.4.119H6a.754.754,0,0,1-.4-.119L.385,11.781a.25.25,0,0,0-.385.21V22a2,2,0,0,0,2,2H22a2,2,0,0,0,2-2V11.993a.25.25,0,0,0-.385-.211Z"/><path d="M8.229,9.29l3.41,3.556a.5.5,0,0,0,.722,0l3.4-3.549a2.515,2.515,0,0,0,.471-2.9A2.517,2.517,0,0,0,12.2,5.738l-.2.2-.2-.2A2.517,2.517,0,0,0,8.229,9.29Z"/></svg>