<svg xmlns="http://www.w3.org/2000/svg" viewBox="0 0 24 24"><defs><style>.a{fill:none;stroke:currentColor;stroke-linecap:round;stroke-linejoin:round;}</style></defs><title>book-open-2</title><path class="a" d="M12.016,20.5c0-2,.984-3,2.984-3h5a1,1,0,0,0,1-1V2.5a1,1,0,0,0-1-1H15a2.652,2.652,0,0,0-3,3,2.652,2.652,0,0,0-3-3H4a1,1,0,0,0-1,1v14a1,1,0,0,0,1,1H9C11,17.5,12.016,18.5,12.016,20.5Z"/><path class="a" d="M21,3.5h1a1,1,0,0,1,1,1v14a1,1,0,0,1-1,1H17c-2,0-3.5,1-3.5,3h-3c0-2-1.5-3-3.5-3H2a1,1,0,0,1-1-1V4.5a1,1,0,0,1,1-1H3"/><line class="a" x1="12" y1="4.5" x2="12" y2="20"/></svg>