<svg xmlns="http://www.w3.org/2000/svg" viewBox="0 0 24 24"><defs><style>.a{fill:none;stroke:currentColor;stroke-linecap:round;stroke-linejoin:round;}</style></defs><title>book-bookmark</title><path class="a" d="M20.959,10.5l-2-2-2,2v-8a.5.5,0,0,1,.5-.5h3a.5.5,0,0,1,.5.5Z"/><path class="a" d="M15,3c-2,0-3,1.5-3,3.5C12,4.5,11,3,9,3H2A1,1,0,0,0,1,4V18a1,1,0,0,0,1,1H9a2.652,2.652,0,0,1,3,3,2.652,2.652,0,0,1,3-3h7a1,1,0,0,0,1-1V4a1,1,0,0,0-1-1H21"/><line class="a" x1="12" y1="6.5" x2="12" y2="21.5"/></svg>