<svg xmlns="http://www.w3.org/2000/svg" viewBox="0 0 24 24"><defs><style>.a{fill:none;stroke:currentColor;stroke-linecap:round;stroke-linejoin:round;}</style></defs><title>book-address</title><path class="a" d="M5.5,2.5h11a1,1,0,0,1,1,1v1"/><path class="a" d="M19.5,4.5v-3a1,1,0,0,0-1-1H5.5a2,2,0,0,0,0,4h14a1,1,0,0,1,1,1v17a1,1,0,0,1-1,1H5.5a2,2,0,0,1-2-2V2.5"/><path class="a" d="M17.5,18.719s-2.02-.893-3.432-1.415c-.926-.344-.794-1.907-.258-2.494a4.283,4.283,0,0,0,1.259-3.531A3,3,0,0,0,12,8,3,3,0,0,0,8.93,11.279a4.283,4.283,0,0,0,1.259,3.531c.536.587.668,2.15-.258,2.494C8.519,17.827,6.5,18.719,6.5,18.719"/></svg>