<svg xmlns="http://www.w3.org/2000/svg" viewBox="0 0 24 24"><defs><style>.a{fill:none;stroke:currentColor;stroke-linecap:round;stroke-linejoin:round;}</style></defs><title>book-star</title><path class="a" d="M5.5,2.5h11a1,1,0,0,1,1,1v1"/><path class="a" d="M19.5,4.5v-3a1,1,0,0,0-1-1H5.5a2,2,0,0,0,0,4h14a1,1,0,0,1,1,1v17a1,1,0,0,1-1,1H5.5a2,2,0,0,1-2-2V2.5"/><path class="a" d="M12.7,7.93l1.539,3.57h2.995a.735.735,0,0,1,.517,1.283l-2.6,2.316,1.44,3.313a.785.785,0,0,1-1.117.982L12,17.433l-3.48,1.961A.785.785,0,0,1,7.4,18.412L8.841,15.1l-2.6-2.315A.735.735,0,0,1,6.756,11.5H9.751l1.541-3.57A.8.8,0,0,1,12.7,7.93Z"/></svg>