<svg xmlns="http://www.w3.org/2000/svg" viewBox="0 0 24 24"><defs><style>.a{fill:none;stroke:currentColor;stroke-linecap:round;stroke-linejoin:round;}</style></defs><title>upload-square-2</title><line class="a" x1="12" y1="5.5" x2="12" y2="18.5"/><polyline class="a" points="17.5 11 12 5.5 6.5 11"/><polyline class="a" points="1 22.044 1 23 1.957 23"/><polyline class="a" points="22.043 23 23 23 23 22.044"/><polyline class="a" points="1 1.957 1 1 1.957 1"/><polyline class="a" points="22.043 1 23 1 23 1.957"/><line class="a" x1="3.869" y1="23" x2="4.826" y2="23"/><line class="a" x1="11.522" y1="23" x2="12.478" y2="23"/><line class="a" x1="7.695" y1="23" x2="8.652" y2="23"/><line class="a" x1="15.348" y1="23" x2="16.305" y2="23"/><line class="a" x1="19.174" y1="23" x2="20.131" y2="23"/><line class="a" x1="3.869" y1="1" x2="4.826" y2="1"/><line class="a" x1="11.522" y1="1" x2="12.478" y2="1"/><line class="a" x1="7.695" y1="1" x2="8.652" y2="1"/><line class="a" x1="15.348" y1="1" x2="16.305" y2="1"/><line class="a" x1="19.174" y1="1" x2="20.131" y2="1"/><line class="a" x1="23" y1="20.131" x2="23" y2="19.174"/><line class="a" x1="23" y1="12.479" x2="23" y2="11.521"/><line class="a" x1="23" y1="16.305" x2="23" y2="15.348"/><line class="a" x1="23" y1="8.652" x2="23" y2="7.695"/><line class="a" x1="23" y1="4.826" x2="23" y2="3.869"/><line class="a" x1="1" y1="20.131" x2="1" y2="19.174"/><line class="a" x1="1" y1="12.479" x2="1" y2="11.521"/><line class="a" x1="1" y1="16.305" x2="1" y2="15.348"/><line class="a" x1="1" y1="8.652" x2="1" y2="7.695"/><line class="a" x1="1" y1="4.826" x2="1" y2="3.869"/></svg>