<svg xmlns="http://www.w3.org/2000/svg" viewBox="0 0 24 24"><defs><style>.a{fill:none;stroke:currentColor;stroke-linecap:round;stroke-linejoin:round;stroke-width:1.5px;}</style></defs><title>playlist-share</title><path class="a" d="M20.25,8.25v-6a1.5,1.5,0,0,0-1.5-1.5H2.25a1.5,1.5,0,0,0-1.5,1.5v15a1.5,1.5,0,0,0,1.5,1.5h6"/><circle class="a" cx="6.375" cy="13.125" r="1.875"/><path class="a" d="M8.25,13.125V6.331A1.5,1.5,0,0,1,9.276,4.908l4.5-1.25A1.5,1.5,0,0,1,15.75,5.081V10.5"/><circle class="a" cx="13.5" cy="18" r="2.25"/><circle class="a" cx="21" cy="21" r="2.25"/><circle class="a" cx="21" cy="13.5" r="2.25"/><line class="a" x1="15.425" y1="16.845" x2="19.075" y2="14.655"/><line class="a" x1="15.588" y1="18.835" x2="18.912" y2="20.165"/></svg>