<svg xmlns="http://www.w3.org/2000/svg" viewBox="0 0 24 24"><defs><style>.a{fill:none;stroke:currentColor;stroke-linecap:round;stroke-linejoin:round;stroke-width:1.5px;}</style></defs><title>playlist-edit</title><path class="a" d="M20.25,8.25v-6a1.5,1.5,0,0,0-1.5-1.5H2.25a1.5,1.5,0,0,0-1.5,1.5v15a1.5,1.5,0,0,0,1.5,1.5h6"/><circle class="a" cx="6.375" cy="13.125" r="1.875"/><path class="a" d="M8.25,13.125V6.331A1.5,1.5,0,0,1,9.276,4.908l4.5-1.25A1.5,1.5,0,0,1,15.75,5.081V8.25"/><path class="a" d="M22.63,14.87,15,22.5l-3.75.75L12,19.5l7.63-7.63a2.114,2.114,0,0,1,2.992,0l.008.008A2.114,2.114,0,0,1,22.63,14.87Z"/></svg>