<svg xmlns="http://www.w3.org/2000/svg" viewBox="0 0 24 24"><defs><style>.a{fill:none;stroke:currentColor;stroke-linecap:round;stroke-linejoin:round;stroke-width:1.5px;}</style></defs><title>playlist-buy</title><path class="a" d="M20.25,8.25v-6a1.5,1.5,0,0,0-1.5-1.5H2.25a1.5,1.5,0,0,0-1.5,1.5v15a1.5,1.5,0,0,0,1.5,1.5h6"/><circle class="a" cx="6.375" cy="13.125" r="1.875"/><path class="a" d="M8.25,13.125V6.331A1.5,1.5,0,0,1,9.276,4.908l4.5-1.25A1.5,1.5,0,0,1,15.75,5.081V8.25"/><path class="a" d="M18.75,14.25H16.717a1.342,1.342,0,0,0-.5,2.587l2.064.826a1.342,1.342,0,0,1-.5,2.587H15.75"/><line class="a" x1="17.25" y1="14.25" x2="17.25" y2="13.5"/><line class="a" x1="17.25" y1="21" x2="17.25" y2="20.25"/><circle class="a" cx="17.25" cy="17.25" r="6"/></svg>