<svg xmlns="http://www.w3.org/2000/svg" viewBox="0 0 24 24"><defs><style>.a{fill:none;stroke:currentColor;stroke-linecap:round;stroke-linejoin:round;stroke-width:1.5px;}</style></defs><title>direction-button-1</title><path class="a" d="M21.75,6.748h-3a1.5,1.5,0,0,1-1.5-1.5v-3a1.5,1.5,0,0,0-1.5-1.5H8.25a1.5,1.5,0,0,0-1.5,1.5v3a1.5,1.5,0,0,1-1.5,1.5h-3a1.5,1.5,0,0,0-1.5,1.5v7.5a1.5,1.5,0,0,0,1.5,1.5h3a1.5,1.5,0,0,1,1.5,1.5v3a1.5,1.5,0,0,0,1.5,1.5h7.5a1.5,1.5,0,0,0,1.5-1.5v-3a1.5,1.5,0,0,1,1.5-1.5h3a1.5,1.5,0,0,0,1.5-1.5v-7.5A1.5,1.5,0,0,0,21.75,6.748Z"/><polyline class="a" points="9.75 5.998 12 3.748 14.25 5.998"/><polyline class="a" points="14.25 17.998 12 20.248 9.75 17.998"/><polyline class="a" points="6 14.248 3.75 11.998 6 9.748"/><polyline class="a" points="18 9.748 20.25 11.998 18 14.248"/></svg>