<?xml version="1.0" encoding="utf-8"?>
<!-- Generator: Adobe Illustrator 22.1.0, SVG Export Plug-In . SVG Version: 6.00 Build 0)  -->
<svg version="1.1" id="Layer_1" xmlns="http://www.w3.org/2000/svg" xmlns:xlink="http://www.w3.org/1999/xlink" x="0px" y="0px"
	 viewBox="0 0 24 24" style="enable-background:new 0 0 24 24;" xml:space="preserve">
<g>
	<title>move-left-right</title>
	<path d="M0.5,9.999c-0.207,0-0.39-0.125-0.466-0.318c-0.076-0.193-0.026-0.409,0.126-0.55l6.5-6C6.754,3.046,6.874,3,7,3
		c0.139,0,0.273,0.058,0.367,0.16c0.187,0.203,0.175,0.52-0.028,0.707l-5.56,5.133H18.5c0.276,0,0.5,0.224,0.5,0.5
		s-0.224,0.5-0.5,0.5H0.5z"/>
	<path d="M17,20.999c-0.139,0-0.273-0.059-0.367-0.161c-0.091-0.098-0.137-0.226-0.132-0.359c0.005-0.134,0.062-0.257,0.16-0.348
		l5.56-5.133H5.5c-0.276,0-0.5-0.224-0.5-0.5s0.224-0.5,0.5-0.5h18c0.207,0,0.39,0.125,0.466,0.318
		c0.075,0.193,0.026,0.409-0.126,0.549l-6.5,6C17.247,20.952,17.126,20.999,17,20.999z"/>
</g>
</svg>
