<?xml version="1.0" encoding="utf-8"?>
<!-- Generator: Adobe Illustrator 22.1.0, SVG Export Plug-In . SVG Version: 6.00 Build 0)  -->
<svg version="1.1" id="Layer_1" xmlns="http://www.w3.org/2000/svg" xmlns:xlink="http://www.w3.org/1999/xlink" x="0px" y="0px"
	 viewBox="0 0 24 24" style="enable-background:new 0 0 24 24;" xml:space="preserve">
<g>
	<title>move-expand-vertical</title>
	<path d="M20.5,9.499c-0.134,0-0.259-0.052-0.354-0.146L12,1.206L3.854,9.353C3.759,9.447,3.634,9.499,3.5,9.499
		S3.241,9.447,3.146,9.353S3,9.133,3,8.999S3.052,8.74,3.146,8.646l8.5-8.5c0.094-0.094,0.22-0.146,0.354-0.146
		s0.259,0.052,0.354,0.146l8.5,8.5C20.948,8.74,21,8.865,21,8.999s-0.052,0.259-0.146,0.354S20.634,9.499,20.5,9.499z"/>
	<path d="M12,23.999c-0.134,0-0.259-0.052-0.354-0.146l-8.5-8.5C3.052,15.258,3,15.133,3,14.999s0.052-0.259,0.146-0.354
		s0.22-0.146,0.354-0.146s0.259,0.052,0.354,0.146L12,22.792l8.146-8.146c0.094-0.094,0.22-0.146,0.354-0.146
		s0.259,0.052,0.354,0.146S21,14.865,21,14.999s-0.052,0.259-0.146,0.354l-8.5,8.5C12.259,23.947,12.134,23.999,12,23.999z"/>
</g>
</svg>
