<?xml version="1.0" encoding="utf-8"?>
<!-- Generator: Adobe Illustrator 22.1.0, SVG Export Plug-In . SVG Version: 6.00 Build 0)  -->
<svg version="1.1" id="Layer_1" xmlns="http://www.w3.org/2000/svg" xmlns:xlink="http://www.w3.org/1999/xlink" x="0px" y="0px"
	 viewBox="0 0 24 24" style="enable-background:new 0 0 24 24;" xml:space="preserve">
<g>
	<title>move-left-1</title>
	<path d="M10.5,15.999c-0.134,0-0.259-0.052-0.354-0.146l-4-4c-0.046-0.046-0.083-0.101-0.108-0.162c-0.05-0.122-0.05-0.261,0-0.383
		c0.026-0.062,0.062-0.116,0.108-0.163l4-4c0.094-0.094,0.22-0.146,0.354-0.146s0.259,0.052,0.354,0.146S11,7.365,11,7.499
		s-0.052,0.259-0.146,0.354l-3.146,3.146H23.5c0.276,0,0.5,0.224,0.5,0.5s-0.224,0.5-0.5,0.5H7.707l3.146,3.146
		C10.948,15.24,11,15.365,11,15.499s-0.052,0.259-0.146,0.354S10.634,15.999,10.5,15.999z"/>
	<path d="M0.5,23.999c-0.276,0-0.5-0.224-0.5-0.5v-23c0-0.276,0.224-0.5,0.5-0.5S1,0.223,1,0.499v23
		C1,23.775,0.776,23.999,0.5,23.999z"/>
</g>
</svg>
