<svg xmlns="http://www.w3.org/2000/svg" viewBox="0 0 24 24"><title>iris-scan-1</title><path d="M6.5,22H2.25A.25.25,0,0,1,2,21.75V17.5a1,1,0,0,0-2,0V22a2,2,0,0,0,2,2H6.5a1,1,0,0,0,0-2Z"/><path d="M1,7.5a1,1,0,0,0,1-1V2.25A.25.25,0,0,1,2.25,2H6.5a1,1,0,0,0,0-2H2A2,2,0,0,0,0,2V6.5A1,1,0,0,0,1,7.5Z"/><path d="M23,16.5a1,1,0,0,0-1,1v4.25a.25.25,0,0,1-.25.25H17.5a1,1,0,0,0,0,2H22a2,2,0,0,0,2-2V17.5A1,1,0,0,0,23,16.5Z"/><path d="M22,0H17.5a1,1,0,0,0,0,2h4.25a.25.25,0,0,1,.25.25V6.5a1,1,0,0,0,2,0V2A2,2,0,0,0,22,0Z"/><circle cx="12" cy="12" r="1.5"/><path d="M4.842,11.257a1.113,1.113,0,0,0,0,1.484c1.7,1.882,4.463,3.8,7.189,3.758,2.724.046,5.484-1.876,7.188-3.758a1.112,1.112,0,0,0,0-1.484c-1.74-1.922-4.509-3.8-7.186-3.756C9.352,7.456,6.582,9.335,4.842,11.257ZM14.5,12A2.5,2.5,0,1,1,12,9.5,2.5,2.5,0,0,1,14.5,12Z"/><path d="M12,4.5a1,1,0,0,0,1-1V2a1,1,0,0,0-2,0V3.5A1,1,0,0,0,12,4.5Z"/><path d="M12,19.5a1,1,0,0,0-1,1V22a1,1,0,0,0,2,0V20.5A1,1,0,0,0,12,19.5Z"/><path d="M23,11H21.5a1,1,0,0,0,0,2H23a1,1,0,0,0,0-2Z"/><path d="M1,13H2.5a1,1,0,0,0,0-2H1a1,1,0,0,0,0,2Z"/></svg>