<svg xmlns="http://www.w3.org/2000/svg" viewBox="0 0 24 24"><title>iris-scan-2</title><circle cx="11.875" cy="16.825" r="1.485"/><path d="M21.474,13.849a.25.25,0,0,0-.28-.025,7.836,7.836,0,0,1-5.53.844.25.25,0,0,0-.249.092.246.246,0,0,0-.022.264,3.9,3.9,0,0,1,.441,1.8,3.959,3.959,0,1,1-3.959-3.959.085.085,0,0,0,.078-.053.083.083,0,0,0-.021-.092A7.925,7.925,0,0,1,10.109,10.2a.246.246,0,0,0-.268-.141A18.243,18.243,0,0,0,.571,15.42a2.015,2.015,0,0,0,0,2.807c2.589,2.685,6.866,5.527,11.149,5.527.1,0,.2,0,.3,0,4.3,0,8.573-2.842,11.161-5.526a2.012,2.012,0,0,0,0-2.808A20.51,20.51,0,0,0,21.474,13.849Z"/><path d="M24,6.927a.743.743,0,0,0-.742-.742h-.341a.247.247,0,0,1-.243-.2,5.451,5.451,0,0,0-4.409-4.409.246.246,0,0,1-.2-.243V.989a.742.742,0,1,0-1.484,0v.34a.246.246,0,0,1-.205.243,5.449,5.449,0,0,0-4.408,4.409.247.247,0,0,1-.244.2h-.34a.743.743,0,0,0,0,1.485h.341a.247.247,0,0,1,.243.2,5.449,5.449,0,0,0,4.408,4.408.248.248,0,0,1,.205.244v.34a.742.742,0,0,0,1.484,0v-.34a.248.248,0,0,1,.2-.244,5.449,5.449,0,0,0,4.408-4.408.247.247,0,0,1,.244-.2h.34A.743.743,0,0,0,24,6.927Zm-5.615,3.292a.247.247,0,0,1-.324-.235V9.9a.742.742,0,1,0-1.484,0v.087a.247.247,0,0,1-.324.235,3.475,3.475,0,0,1-2.226-2.225.247.247,0,0,1,.236-.324h.087a.743.743,0,0,0,0-1.485h-.087a.247.247,0,0,1-.236-.324,3.472,3.472,0,0,1,2.226-2.225.247.247,0,0,1,.324.235v.087a.742.742,0,1,0,1.484,0V3.871a.247.247,0,0,1,.324-.235,3.472,3.472,0,0,1,2.226,2.225.248.248,0,0,1-.236.324h-.087a.743.743,0,0,0,0,1.485h.087a.248.248,0,0,1,.236.324A3.475,3.475,0,0,1,18.385,10.219Z"/><circle cx="17.319" cy="6.927" r="0.99"/></svg>