<svg xmlns="http://www.w3.org/2000/svg" viewBox="0 0 24 24"><defs><style>.a{fill:none;stroke:currentColor;stroke-linecap:round;stroke-linejoin:round;}</style></defs><title>video-file-m4v-1</title><path class="a" d="M19.5,12.5V6.475A5.975,5.975,0,0,0,13.525.5H1.5a1,1,0,0,0-1,1v21a1,1,0,0,0,1,1h2"/><path class="a" d="M14.5.58V4.5a1,1,0,0,0,1,1h3.92"/><polyline class="a" points="6.5 23.5 6.5 15.5 8.5 19.5 10.5 15.5 10.5 23.5"/><path class="a" d="M17.5,23.5v-8a5,5,0,0,0-5,5v1h5"/><path class="a" d="M23.5,15.5v2.3a9.124,9.124,0,0,1-2,5.7,9.124,9.124,0,0,1-2-5.7V15.5"/></svg>