<svg xmlns="http://www.w3.org/2000/svg" viewBox="0 0 24 24"><defs><style>.a{fill:none;stroke:currentColor;stroke-linecap:round;stroke-linejoin:round;}</style></defs><title>video-file-mp4</title><path class="a" d="M20.5,23.486a1,1,0,0,0,1-1V6.461A5.975,5.975,0,0,0,15.525.486H3.5a1,1,0,0,0-1,1v21a1,1,0,0,0,1,1Z"/><path class="a" d="M16.5.566v3.92a1,1,0,0,0,1,1h3.92"/><polyline class="a" points="5.513 18.486 5.513 12.486 7.013 15.486 8.513 12.486 8.513 18.486"/><path class="a" d="M13.513,13.986a1.5,1.5,0,0,1-1.5,1.5h-1.5v-3h1.5A1.5,1.5,0,0,1,13.513,13.986Z"/><line class="a" x1="10.513" y1="18.486" x2="10.513" y2="15.486"/><line class="a" x1="18.5" y1="18.486" x2="18.5" y2="16.486"/><path class="a" d="M18.5,16.486V12.5a5.5,5.5,0,0,0-2.987,3.99H18.5"/></svg>