<svg xmlns="http://www.w3.org/2000/svg" viewBox="0 0 24 24"><defs><style>.a{fill:none;stroke:currentColor;stroke-linecap:round;stroke-linejoin:round;}</style></defs><title>video-file-avi-1</title><path class="a" d="M19.5,12.541V6.515A5.973,5.973,0,0,0,13.525.541H1.5a1,1,0,0,0-1,1v21a1,1,0,0,0,1,1h3"/><path class="a" d="M14.5.621v3.92a1,1,0,0,0,1,1h3.92"/><path class="a" d="M7.5,23.541v-6a2,2,0,0,1,4,0v6"/><line class="a" x1="7.5" y1="19.541" x2="11.5" y2="19.541"/><path class="a" d="M17.5,15.541v2.3a9.129,9.129,0,0,1-2,5.7,9.129,9.129,0,0,1-2-5.7v-2.3"/><line class="a" x1="21.5" y1="15.541" x2="21.5" y2="23.541"/><line class="a" x1="19.5" y1="23.541" x2="23.5" y2="23.541"/><line class="a" x1="19.5" y1="15.541" x2="23.5" y2="15.541"/></svg>