<svg xmlns="http://www.w3.org/2000/svg" viewBox="0 0 24 24"><defs><style>.a{fill:none;stroke:currentColor;stroke-linecap:round;stroke-linejoin:round;}</style></defs><title>video-file-information</title><path class="a" d="M9.5,23.5h-8a1,1,0,0,1-1-1V1.5a1,1,0,0,1,1-1H14.793A1,1,0,0,1,15.5.793L19.207,4.5a1,1,0,0,1,.293.707V8.5"/><path class="a" d="M12.607,10.89,7.636,8.214A.764.764,0,0,0,6.5,8.882v5.736a.764.764,0,0,0,1.136.668l2.175-1.338"/><circle class="a" cx="17.5" cy="17.5" r="6"/><path class="a" d="M17.5,20.5V17a.5.5,0,0,0-.5-.5H16"/><path class="a" d="M16.75,14a.25.25,0,1,1-.25.25.25.25,0,0,1,.25-.25"/><line class="a" x1="16" y1="20.5" x2="19" y2="20.5"/></svg>