<svg xmlns="http://www.w3.org/2000/svg" viewBox="0 0 24 24"><defs><style>.a{fill:none;stroke:currentColor;stroke-linecap:round;stroke-linejoin:round;stroke-width:1.5px;}</style></defs><title>file-copyright-tm</title><line class="a" x1="6.75" y1="18.75" x2="6.75" y2="14.25"/><line class="a" x1="5.25" y1="14.25" x2="8.25" y2="14.25"/><polyline class="a" points="15.75 18.75 15.75 14.25 13.5 16.5 11.25 14.25 11.25 18.75"/><path class="a" d="M3.75,6.75V2.25A1.5,1.5,0,0,1,5.25.75H15.879a1.5,1.5,0,0,1,1.06.439l5.872,5.872a1.5,1.5,0,0,1,.439,1.06V21.75a1.5,1.5,0,0,1-1.5,1.5h-4.5"/><path class="a" d="M23.25,8.25h-6a1.5,1.5,0,0,1-1.5-1.5v-6"/><path class="a" d="M12,22.246a7.5,7.5,0,1,1,.746-12.5"/></svg>