<?xml version="1.0" encoding="utf-8"?>
<!-- Generator: Adobe Illustrator 22.1.0, SVG Export Plug-In . SVG Version: 6.00 Build 0)  -->
<svg version="1.1" id="Layer_1" xmlns="http://www.w3.org/2000/svg" xmlns:xlink="http://www.w3.org/1999/xlink" x="0px" y="0px"
	 viewBox="0 0 24 24" style="enable-background:new 0 0 24 24;" xml:space="preserve">
<title>love-it-flag</title>
<g>
	<path d="M0.75,24C0.336,24,0,23.664,0,23.25V0.75C0,0.336,0.336,0,0.75,0S1.5,0.336,1.5,0.75v0.38l2.184-0.671
		c0.988-0.304,2.013-0.458,3.047-0.458c1.919,0,3.797,0.531,5.43,1.537c1.396,0.859,3.005,1.313,4.651,1.313
		c0.823,0,1.64-0.114,2.428-0.339l2.369-0.677c0.167-0.047,0.339-0.072,0.512-0.072c0.502,0,0.973,0.195,1.327,0.548
		C23.804,2.664,24,3.135,24,3.636v15.808c0,0.833-0.559,1.574-1.359,1.803L19.653,22.1c-0.922,0.263-1.878,0.397-2.84,0.397
		c-1.925,0-3.805-0.531-5.438-1.535c-1.397-0.86-3.003-1.314-4.644-1.314c-0.884,0-1.761,0.132-2.606,0.392L1.5,20.847v2.403
		C1.5,23.664,1.164,24,0.75,24z M6.731,18.147c1.919,0,3.796,0.531,5.43,1.537c1.396,0.859,3.005,1.313,4.652,1.313
		c0.823,0,1.64-0.114,2.428-0.339l2.987-0.853c0.16-0.046,0.272-0.194,0.272-0.361V3.637c0-0.1-0.039-0.194-0.11-0.265
		c-0.071-0.071-0.165-0.11-0.266-0.11c-0.035,0-0.07,0.005-0.104,0.014l-2.368,0.677c-0.922,0.263-1.877,0.397-2.84,0.397
		c-1.925,0-3.805-0.531-5.438-1.535c-1.397-0.86-3.003-1.314-4.644-1.314c-0.884,0-1.761,0.132-2.606,0.392L1.5,2.699v16.579
		l2.184-0.672C4.672,18.302,5.697,18.147,6.731,18.147z"/>
	<path d="M12,16.125c-0.203,0-0.4-0.084-0.541-0.231l-3.835-4c-0.912-0.911-1.138-2.31-0.554-3.475
		C7.584,7.39,8.62,6.751,9.774,6.751c0.47,0,0.923,0.107,1.346,0.318c0.291,0.145,0.555,0.336,0.785,0.566L12,7.73l0.096-0.096
		c0.569-0.569,1.327-0.883,2.135-0.883s1.565,0.314,2.135,0.883c0.229,0.229,0.42,0.494,0.566,0.785
		c0.582,1.164,0.355,2.565-0.566,3.485l-3.824,3.99C12.4,16.041,12.203,16.125,12,16.125z M9.771,8.25
		c-0.163,0-0.325,0.027-0.482,0.079C8.904,8.457,8.592,8.727,8.411,9.09c-0.294,0.586-0.179,1.291,0.284,1.754L12,14.291
		l3.293-3.436c0.472-0.472,0.589-1.179,0.296-1.764c-0.073-0.147-0.169-0.28-0.285-0.396c-0.286-0.286-0.667-0.444-1.074-0.444
		s-0.788,0.158-1.074,0.444L12.53,9.321c-0.142,0.142-0.33,0.22-0.53,0.22s-0.389-0.078-0.53-0.22l-0.626-0.626
		c-0.116-0.116-0.249-0.211-0.395-0.285C10.235,8.304,10.007,8.25,9.771,8.25z"/>
</g>
</svg>
