<?xml version="1.0" encoding="utf-8"?>
<!-- Generator: Adobe Illustrator 22.1.0, SVG Export Plug-In . SVG Version: 6.00 Build 0)  -->
<svg version="1.1" id="Layer_1" xmlns="http://www.w3.org/2000/svg" xmlns:xlink="http://www.w3.org/1999/xlink" x="0px" y="0px"
	 viewBox="0 0 24 24" style="enable-background:new 0 0 24 24;" xml:space="preserve">
<title>love-it-lock</title>
<g>
	<path d="M10.456,19.586c-0.203,0-0.401-0.084-0.541-0.231l-8.051-8.4c-1.949-1.949-2.43-4.926-1.192-7.402
		c1.095-2.19,3.299-3.55,5.754-3.55c1,0,1.963,0.228,2.863,0.678c0.619,0.31,1.181,0.715,1.67,1.204l1.035,1.035l1.036-1.035
		c1.211-1.212,2.824-1.879,4.542-1.879c1.717,0,3.329,0.667,4.54,1.877c0.49,0.49,0.895,1.052,1.204,1.671
		c0.904,1.81,0.898,3.969-0.017,5.774c-0.128,0.254-0.385,0.411-0.669,0.411c-0.117,0-0.235-0.028-0.339-0.081
		c-0.178-0.09-0.311-0.245-0.374-0.435c-0.062-0.19-0.047-0.394,0.044-0.572c0.701-1.383,0.706-3.038,0.013-4.426
		c-0.237-0.474-0.547-0.905-0.923-1.28c-0.928-0.927-2.164-1.438-3.479-1.438c-1.317,0-2.553,0.511-3.481,1.44l-1.566,1.565
		c-0.142,0.141-0.33,0.219-0.53,0.219c-0.2,0-0.388-0.078-0.53-0.219L9.897,2.946C9.521,2.57,9.091,2.26,8.616,2.023
		C7.928,1.678,7.19,1.503,6.424,1.503c-1.882,0-3.572,1.042-4.411,2.72C1.064,6.122,1.435,8.405,2.935,9.906l8.062,8.411
		c0.286,0.299,0.276,0.774-0.022,1.061C10.834,19.512,10.65,19.586,10.456,19.586z"/>
	<path d="M15.74,24.002c-1.241,0-2.25-1.009-2.25-2.25v-4.5c0-0.96,0.615-1.808,1.5-2.121v-0.879c0-2.068,1.682-3.75,3.75-3.75
		s3.75,1.682,3.75,3.75v0.879c0.885,0.314,1.5,1.162,1.5,2.121v4.5c0,1.241-1.009,2.25-2.25,2.25H15.74z M15.74,16.502
		c-0.414,0-0.75,0.336-0.75,0.75v4.5c0,0.414,0.336,0.75,0.75,0.75h6c0.414,0,0.75-0.336,0.75-0.75v-4.5
		c0-0.414-0.336-0.75-0.75-0.75H15.74z M20.99,15.002v-0.75c0-1.241-1.009-2.25-2.25-2.25s-2.25,1.009-2.25,2.25L20.99,15.002z"/>
	<path d="M18.74,20.656c-0.62,0-1.125-0.505-1.125-1.125c0-0.602,0.469-1.092,1.069-1.121c0,0,0.001,0,0.001,0
		c0.018-0.002,0.036-0.004,0.054-0.004c0.62,0,1.125,0.505,1.125,1.125S19.36,20.656,18.74,20.656z"/>
</g>
</svg>
