<?xml version="1.0" encoding="utf-8"?>
<!-- Generator: Adobe Illustrator 22.1.0, SVG Export Plug-In . SVG Version: 6.00 Build 0)  -->
<svg version="1.1" id="Layer_1" xmlns="http://www.w3.org/2000/svg" xmlns:xlink="http://www.w3.org/1999/xlink" x="0px" y="0px"
	 viewBox="0 0 24 24" style="enable-background:new 0 0 24 24;" xml:space="preserve">
<title>love-it-phone</title>
<g>
	<path d="M3.483,24C1.563,24,0.001,22.439,0,20.52V4.983C0,4.055,0.362,3.18,1.02,2.522S2.552,1.5,3.481,1.5H9
		c0.414,0,0.75,0.336,0.75,0.75S9.414,3,9,3H3.483C2.954,3,2.456,3.207,2.081,3.582C1.706,3.957,1.5,4.454,1.5,4.983V18h0.058
		c0.368-2.55,2.584-4.5,5.192-4.5s4.824,1.95,5.192,4.5H12v-3.75c0-0.414,0.336-0.75,0.75-0.75s0.75,0.336,0.75,0.75v6.267
		c0,0.93-0.362,1.804-1.019,2.462C11.824,23.637,10.949,24,10.019,24H3.483z M1.5,20.517c0,1.093,0.89,1.983,1.982,1.983h6.535
		c0.529,0,1.027-0.207,1.402-0.582C11.794,21.543,12,21.046,12,20.517V19.5H1.5V20.517z M10.422,18c-0.352-1.712-1.892-3-3.672-3
		s-3.32,1.288-3.672,3H10.422z"/>
	<path d="M17.25,10.406c-0.203,0-0.4-0.084-0.541-0.231l-2.557-2.667c-0.68-0.681-0.848-1.728-0.413-2.6
		c0.269-0.54,0.733-0.943,1.306-1.135c0.234-0.078,0.476-0.118,0.72-0.118c0.351,0,0.69,0.08,1.007,0.239
		c0.173,0.086,0.333,0.194,0.479,0.321c0.411-0.36,0.934-0.557,1.488-0.557c0.604,0,1.171,0.234,1.597,0.659
		c0.174,0.174,0.317,0.373,0.427,0.592c0.435,0.872,0.265,1.921-0.424,2.61l-2.546,2.656C17.65,10.322,17.453,10.406,17.25,10.406z
		 M15.764,5.156c-0.292,0-0.553,0.161-0.683,0.422c-0.147,0.295-0.09,0.649,0.143,0.881l2.026,2.113l2.015-2.102
		c0.241-0.241,0.301-0.598,0.154-0.892c-0.037-0.074-0.085-0.141-0.144-0.2c-0.143-0.143-0.334-0.222-0.537-0.222
		c-0.204,0-0.395,0.08-0.539,0.224L17.78,5.798c-0.142,0.141-0.33,0.219-0.53,0.219s-0.388-0.078-0.53-0.219l-0.418-0.417
		c-0.059-0.06-0.126-0.108-0.201-0.145C15.996,5.183,15.882,5.156,15.764,5.156z"/>
	<path d="M17.25,13.5c-3.722,0-6.75-3.028-6.75-6.75S13.528,0,17.25,0S24,3.028,24,6.75S20.972,13.5,17.25,13.5z M17.25,1.5
		C14.355,1.5,12,3.855,12,6.75S14.355,12,17.25,12s5.25-2.355,5.25-5.25S20.145,1.5,17.25,1.5z"/>
	<path d="M6.75,14.25c-1.861,0-3.375-1.514-3.375-3.375C3.375,9.014,4.889,7.5,6.75,7.5s3.375,1.514,3.375,3.375
		C10.125,12.736,8.611,14.25,6.75,14.25z M6.75,9c-1.034,0-1.875,0.841-1.875,1.875S5.716,12.75,6.75,12.75s1.875-0.841,1.875-1.875
		S7.784,9,6.75,9z"/>
</g>
</svg>
