<?xml version="1.0" encoding="utf-8"?>
<!-- Generator: Adobe Illustrator 22.1.0, SVG Export Plug-In . SVG Version: 6.00 Build 0)  -->
<svg version="1.1" id="Layer_1" xmlns="http://www.w3.org/2000/svg" xmlns:xlink="http://www.w3.org/1999/xlink" x="0px" y="0px"
	 viewBox="0 0 24 24" style="enable-background:new 0 0 24 24;" xml:space="preserve">
<title>love-it-download</title>
<g>
	<path d="M17.238,24.001c-3.722,0-6.75-3.028-6.75-6.75s3.028-6.75,6.75-6.75s6.75,3.028,6.75,6.75S20.96,24.001,17.238,24.001z
		 M17.238,12.002c-2.895,0-5.25,2.355-5.25,5.25s2.355,5.25,5.25,5.25s5.25-2.355,5.25-5.25S20.133,12.002,17.238,12.002z"/>
	<path d="M17.238,21.001c-0.087,0-0.174-0.016-0.258-0.046c-0.006-0.002-0.011-0.004-0.017-0.006
		c-0.104-0.042-0.186-0.097-0.256-0.167l-2.25-2.25c-0.292-0.292-0.292-0.768,0-1.061c0.142-0.142,0.33-0.22,0.53-0.22
		s0.389,0.078,0.53,0.22l0.97,0.97v-4.189c0-0.414,0.336-0.75,0.75-0.75s0.75,0.336,0.75,0.75v4.189l0.97-0.97
		c0.142-0.142,0.33-0.22,0.53-0.22s0.389,0.078,0.53,0.22c0.292,0.292,0.292,0.768,0,1.061l-2.25,2.25
		c-0.07,0.07-0.152,0.125-0.245,0.163c-0.008,0.003-0.017,0.007-0.026,0.01C17.416,20.985,17.328,21.001,17.238,21.001z"/>
	<path d="M8.214,17.251c-0.204,0-0.401-0.084-0.542-0.231l-5.811-6.065C-0.087,9.007-0.569,6.03,0.669,3.553
		c1.095-2.19,3.3-3.55,5.755-3.55c1,0,1.963,0.228,2.861,0.677c0.619,0.309,1.181,0.714,1.671,1.204l1.036,1.035l1.036-1.035
		c1.213-1.213,2.825-1.881,4.541-1.882c1.716,0,3.328,0.668,4.541,1.88c0.489,0.489,0.895,1.051,1.204,1.67
		c0.907,1.816,0.899,3.98-0.021,5.789c-0.129,0.253-0.385,0.41-0.669,0.41c-0.117,0-0.235-0.028-0.34-0.082
		c-0.369-0.188-0.516-0.64-0.328-1.009c0.706-1.387,0.712-3.046,0.017-4.437c-0.237-0.475-0.548-0.906-0.923-1.28
		c-0.929-0.929-2.165-1.441-3.479-1.441c-1.316,0-2.552,0.513-3.481,1.442L12.522,4.51c-0.142,0.142-0.33,0.219-0.53,0.219
		s-0.388-0.078-0.53-0.219L9.895,2.945C9.52,2.57,9.089,2.259,8.615,2.022C7.926,1.677,7.188,1.503,6.422,1.503
		c-1.882,0-3.572,1.043-4.411,2.721C1.062,6.122,1.433,8.406,2.934,9.906l5.822,6.076c0.286,0.299,0.276,0.774-0.023,1.061
		C8.593,17.177,8.409,17.251,8.214,17.251z"/>
</g>
</svg>
