<svg xmlns="http://www.w3.org/2000/svg" viewBox="0 0 24 24"><defs><style>.a{fill:none;stroke:currentColor;stroke-linecap:round;stroke-linejoin:round;}</style></defs><title>slide-right-1</title><path class="a" d="M10.5,15.5V20a2,2,0,0,1-2,2h-6a2,2,0,0,1-2-2V4a2,2,0,0,1,2-2h6a2,2,0,0,1,2,2V8.5"/><line class="a" x1="10.5" y1="18" x2="0.5" y2="18"/><path class="a" d="M5.5,19.75a.25.25,0,0,1,.25.25h0a.25.25,0,0,1-.25.25h0A.25.25,0,0,1,5.25,20h0a.25.25,0,0,1,.25-.25"/><line class="a" x1="5.5" y1="19.75" x2="5.5" y2="19.75"/><line class="a" x1="6.5" y1="12" x2="17" y2="12"/><polyline class="a" points="14 15.015 17 12.015 14 9.015"/><circle class="a" cx="21.5" cy="12" r="2"/></svg>