<?xml version="1.0" encoding="utf-8"?>
<!-- Generator: Adobe Illustrator 22.1.0, SVG Export Plug-In . SVG Version: 6.00 Build 0)  -->
<svg version="1.1" id="Light" xmlns="http://www.w3.org/2000/svg" xmlns:xlink="http://www.w3.org/1999/xlink" x="0px" y="0px"
	 viewBox="0 0 24 24" style="enable-background:new 0 0 24 24;" xml:space="preserve">
<g>
	<title>single-neutral-actions-share-1</title>
	<path d="M18,24c-0.276,0-0.5-0.224-0.5-0.5S17.724,23,18,23h2.04l0.462-5.542C20.523,17.201,20.742,17,21,17h2v-3
		c0-2.481-2.019-4.5-4.5-4.5S14,11.519,14,14v3h2c0.276,0,0.5,0.224,0.5,0.5S16.276,18,16,18h-2.5c-0.276,0-0.5-0.224-0.5-0.5V14
		c0-3.033,2.467-5.5,5.5-5.5S24,10.967,24,14v3.5c0,0.276-0.224,0.5-0.5,0.5h-2.04l-0.462,5.542C20.977,23.799,20.758,24,20.5,24H18
		z"/>
	<path d="M18.5,8c-2.206,0-4-1.794-4-4s1.794-4,4-4s4,1.794,4,4S20.706,8,18.5,8z M18.5,1c-1.654,0-3,1.346-3,3s1.346,3,3,3
		s3-1.346,3-3S20.154,1,18.5,1z"/>
	<path d="M0.5,24C0.224,24,0,23.776,0,23.5v-8C0,15.224,0.224,15,0.5,15S1,15.224,1,15.5V16h4.75c1.74,0,3.219,1.3,3.464,3H12.5
		c1.93,0,3.5,1.57,3.5,3.5c0,0.276-0.224,0.5-0.5,0.5H1v0.5C1,23.776,0.776,24,0.5,24z M14.949,22c-0.235-1.141-1.261-2-2.449-2
		H5.75c-0.276,0-0.5-0.224-0.5-0.5S5.474,19,5.75,19h2.448c-0.235-1.141-1.261-2-2.448-2H1v5H14.949z"/>
</g>
</svg>
