<?xml version="1.0" encoding="utf-8"?>
<!-- Generator: Adobe Illustrator 22.1.0, SVG Export Plug-In . SVG Version: 6.00 Build 0)  -->
<svg version="1.1" id="Light" xmlns="http://www.w3.org/2000/svg" xmlns:xlink="http://www.w3.org/1999/xlink" x="0px" y="0px"
	 viewBox="0 0 24 24" style="enable-background:new 0 0 24 24;" xml:space="preserve">
<g>
	<title>single-neutral-actions-flash</title>
	<path d="M3.5,24c-0.258,0-0.477-0.201-0.498-0.458L2.54,18H0.5C0.225,18,0,17.776,0,17.5V14c0-3.033,2.467-5.5,5.5-5.5
		S11,10.967,11,14v3.5c0,0.276-0.224,0.5-0.5,0.5H8.46l-0.462,5.542C7.977,23.799,7.758,24,7.5,24H3.5z M7.04,23l0.462-5.542
		C7.524,17.201,7.743,17,8,17h2v-3c0-2.481-2.019-4.5-4.5-4.5S1,11.519,1,14v3h2c0.258,0,0.477,0.201,0.498,0.458L3.96,23H7.04z"/>
	<path d="M5.5,8c-2.206,0-4-1.794-4-4s1.794-4,4-4s4,1.794,4,4S7.706,8,5.5,8z M5.5,1c-1.654,0-3,1.346-3,3s1.346,3,3,3s3-1.346,3-3
		S7.155,1,5.5,1z"/>
	<path d="M17.749,23.526C17.335,23.524,17,23.187,17,22.774v-4.786h-2.125c-0.206-0.001-0.406-0.074-0.562-0.206
		c-0.179-0.151-0.289-0.363-0.309-0.596c-0.02-0.233,0.052-0.46,0.203-0.639l5.458-6.817c0.143-0.178,0.356-0.281,0.584-0.281
		c0.201,0,0.389,0.078,0.531,0.219c0.142,0.141,0.22,0.33,0.22,0.53v4.789h2.125c0.209,0,0.41,0.074,0.568,0.209
		c0.177,0.151,0.286,0.363,0.305,0.595c0.019,0.233-0.054,0.46-0.206,0.638l-5.457,6.814C18.192,23.423,17.979,23.526,17.749,23.526
		C17.75,23.526,17.749,23.526,17.749,23.526z M17.5,16.988c0.276,0,0.5,0.224,0.5,0.5v4.575l4.865-6.075H20.5
		c-0.276,0-0.5-0.224-0.5-0.5v-4.576l-4.865,6.076H17.5z"/>
</g>
</svg>
