<?xml version="1.0" encoding="utf-8"?>
<!-- Generator: Adobe Illustrator 22.1.0, SVG Export Plug-In . SVG Version: 6.00 Build 0)  -->
<svg version="1.1" id="Light" xmlns="http://www.w3.org/2000/svg" xmlns:xlink="http://www.w3.org/1999/xlink" x="0px" y="0px"
	 viewBox="0 0 24 24" style="enable-background:new 0 0 24 24;" xml:space="preserve">
<g>
	<title>single-neutral-actions-mail</title>
	<path d="M3.5,24c-0.258,0-0.477-0.201-0.498-0.458L2.54,18H0.5C0.224,18,0,17.776,0,17.5V14c-0.002-2.354,1.495-4.448,3.724-5.208
		c0.578-0.197,1.178-0.297,1.781-0.297c0.841,0,1.655,0.19,2.42,0.566c1.319,0.648,2.306,1.77,2.781,3.16
		c0.043,0.126,0.035,0.262-0.024,0.382c-0.059,0.12-0.161,0.21-0.287,0.253c-0.052,0.018-0.106,0.027-0.162,0.027l0,0
		c-0.214,0-0.404-0.136-0.473-0.339c-0.388-1.137-1.196-2.056-2.275-2.586C6.857,9.65,6.191,9.495,5.504,9.495
		c-0.493,0-0.984,0.082-1.457,0.244C2.223,10.36,0.999,12.073,1,14v3h2c0.258,0,0.477,0.201,0.498,0.458L3.96,23h3.08l0.462-5.542
		C7.523,17.201,7.742,17,8,17h1c0.276,0,0.5,0.224,0.5,0.5S9.276,18,9,18H8.46l-0.462,5.542C7.977,23.799,7.758,24,7.5,24H3.5z"/>
	<path d="M5.5,8c-2.206,0-4-1.794-4-4s1.794-4,4-4s4,1.794,4,4S7.706,8,5.5,8z M5.5,1c-1.654,0-3,1.346-3,3s1.346,3,3,3s3-1.346,3-3
		S7.154,1,5.5,1z"/>
	<path d="M12.5,24c-0.827,0-1.5-0.673-1.5-1.5v-7c0-0.827,0.673-1.5,1.5-1.5h10c0.827,0,1.5,0.673,1.5,1.5v7
		c0,0.827-0.673,1.5-1.5,1.5H12.5z M12,22.5c0,0.276,0.224,0.5,0.5,0.5h10c0.276,0,0.5-0.224,0.5-0.5v-5.598l-4.445,2.775
		c-0.316,0.197-0.683,0.302-1.06,0.302c-0.377,0-0.744-0.104-1.06-0.302L12,16.902V22.5z M16.965,18.829
		c0.157,0.098,0.341,0.15,0.53,0.151c0.189,0,0.373-0.052,0.53-0.151L23,15.723V15.5c0-0.276-0.224-0.5-0.5-0.5h-10
		c-0.276,0-0.5,0.224-0.5,0.5v0.223L16.965,18.829z"/>
</g>
</svg>
