<?xml version="1.0" encoding="utf-8"?>
<!-- Generator: Adobe Illustrator 22.1.0, SVG Export Plug-In . SVG Version: 6.00 Build 0)  -->
<svg version="1.1" id="Light" xmlns="http://www.w3.org/2000/svg" xmlns:xlink="http://www.w3.org/1999/xlink" x="0px" y="0px"
	 viewBox="0 0 24 24" style="enable-background:new 0 0 24 24;" xml:space="preserve">
<g>
	<title>single-neutral-actions-laptop</title>
	<path d="M5.5,8c-2.206,0-4-1.794-4-4s1.794-4,4-4s4,1.794,4,4S7.705,8,5.5,8z M5.5,1c-1.654,0-3,1.346-3,3s1.346,3,3,3s3-1.346,3-3
		S7.154,1,5.5,1z"/>
	<path d="M3.5,24c-0.258,0-0.477-0.201-0.498-0.458L2.54,18H0.5C0.224,18,0,17.776,0,17.5V14c0-1.448,0.558-2.815,1.572-3.849
		C2.6,9.102,3.976,8.516,5.445,8.501l0.055,0c1.448,0,2.816,0.558,3.85,1.572c0.197,0.193,0.2,0.51,0.007,0.707
		C9.262,10.877,9.135,10.93,9,10.93c-0.131,0-0.256-0.051-0.35-0.143C7.803,9.958,6.691,9.5,5.517,9.5l-0.061,0
		c-1.203,0.012-2.328,0.491-3.169,1.35C1.457,11.697,1,12.815,1,14v3h2c0.258,0,0.477,0.201,0.498,0.458L3.96,23h3.08l0.462-5.542
		C7.523,17.201,7.742,17,8,17h1c0.276,0,0.5,0.224,0.5,0.5S9.276,18,9,18H8.46l-0.462,5.542C7.976,23.799,7.758,24,7.5,24H3.5z"/>
	<path d="M9.988,24c-0.551,0-1-0.448-1-1c0-0.155,0.037-0.309,0.106-0.448l1.894-3.189V13c0-0.552,0.449-1,1-1h9
		c0.552,0,1,0.448,1,1v6.363l1.877,3.158c0.003,0.005,0.015,0.026,0.018,0.031c0.247,0.493,0.047,1.095-0.446,1.342
		C23.298,23.963,23.143,24,22.988,24H9.988z M22.986,23l-1.783-3h-9.431l-1.778,2.992L22.986,23z M20.988,19v-6h-9l0,6H20.988z"/>
	<path d="M15.988,22c-0.276,0-0.5-0.224-0.5-0.5s0.224-0.5,0.5-0.5h1c0.276,0,0.5,0.224,0.5,0.5s-0.224,0.5-0.5,0.5H15.988z"/>
</g>
</svg>
