<?xml version="1.0" encoding="utf-8"?>
<!-- Generator: Adobe Illustrator 22.1.0, SVG Export Plug-In . SVG Version: 6.00 Build 0)  -->
<svg version="1.1" id="Light" xmlns="http://www.w3.org/2000/svg" xmlns:xlink="http://www.w3.org/1999/xlink" x="0px" y="0px"
	 viewBox="0 0 24 24" style="enable-background:new 0 0 24 24;" xml:space="preserve">
<g>
	<title>single-neutral-actions-location</title>
	<path d="M3.5,24c-0.258,0-0.477-0.201-0.498-0.458L2.54,18H0.5C0.224,18,0,17.776,0,17.5V14c0-3.033,2.467-5.5,5.5-5.5
		S11,10.967,11,14v3.5c0,0.276-0.224,0.5-0.5,0.5H8.46l-0.462,5.542C7.977,23.799,7.758,24,7.5,24H3.5z M7.04,23l0.462-5.542
		C7.523,17.201,7.742,17,8,17h2v-3c0-2.481-2.019-4.5-4.5-4.5S1,11.519,1,14v3h2c0.258,0,0.477,0.201,0.498,0.458L3.96,23H7.04z"/>
	<path d="M5.5,8c-2.206,0-4-1.794-4-4s1.794-4,4-4s4,1.794,4,4S7.706,8,5.5,8z M5.5,1c-1.654,0-3,1.346-3,3s1.346,3,3,3s3-1.346,3-3
		S7.154,1,5.5,1z"/>
	<path d="M19,18.221c-1.103,0-2-0.897-2-2s0.897-2,2-2s2,0.897,2,2S20.103,18.221,19,18.221z M19,15.221c-0.552,0-1,0.448-1,1
		s0.448,1,1,1s1-0.448,1-1S19.552,15.221,19,15.221z"/>
	<path d="M19,23.998c-0.256,0-0.499-0.097-0.685-0.272c-0.012-0.011-0.028-0.027-0.044-0.043C16.986,22.307,14,18.827,14,16.221
		c0-2.757,2.243-5,5-5s5,2.243,5,5c0,2.607-2.987,6.086-4.271,7.461c-0.184,0.196-0.432,0.308-0.699,0.315
		C19.027,23.998,19.002,23.998,19,23.998z M19,12.221c-2.206,0-4,1.794-4,4c0,2.313,3.063,5.773,4.001,6.779
		C19.938,21.994,23,18.534,23,16.221C23,14.015,21.206,12.221,19,12.221z"/>
</g>
</svg>
