<?xml version="1.0" encoding="utf-8"?>
<!-- Generator: Adobe Illustrator 22.1.0, SVG Export Plug-In . SVG Version: 6.00 Build 0)  -->
<svg version="1.1" id="Light" xmlns="http://www.w3.org/2000/svg" xmlns:xlink="http://www.w3.org/1999/xlink" x="0px" y="0px"
	 viewBox="0 0 24 24" style="enable-background:new 0 0 24 24;" xml:space="preserve">
<g>
	<title>single-neutral-actions-home</title>
	<path d="M3.5,24c-0.258,0-0.477-0.201-0.498-0.458L2.54,18H0.5C0.224,18,0,17.776,0,17.5V14c0-3.033,2.467-5.5,5.5-5.5
		S11,10.967,11,14v0.5c0,0.276-0.224,0.5-0.5,0.5S10,14.776,10,14.5V14c0-2.481-2.019-4.5-4.5-4.5S1,11.519,1,14v3h2
		c0.258,0,0.477,0.201,0.498,0.458L3.96,23h3.08l0.462-5.542C7.523,17.201,7.742,17,8,17h0.5C8.775,17,9,17.224,9,17.5
		S8.775,18,8.5,18H8.46l-0.462,5.542C7.976,23.799,7.757,24,7.5,24H3.5z"/>
	<path d="M5.5,8c-2.206,0-4-1.794-4-4s1.794-4,4-4s4,1.794,4,4S7.705,8,5.5,8z M5.5,1c-1.654,0-3,1.346-3,3s1.346,3,3,3s3-1.346,3-3
		S7.154,1,5.5,1z"/>
	<path d="M13.5,24c-0.827,0-1.5-0.673-1.5-1.5v-5.114l-1.177,0.996C10.732,18.458,10.617,18.5,10.5,18.5
		c-0.148,0-0.287-0.065-0.382-0.177c-0.178-0.209-0.152-0.526,0.059-0.704l5.854-4.953c0.271-0.23,0.615-0.356,0.969-0.356
		s0.698,0.127,0.969,0.357l5.854,4.952c0.211,0.178,0.237,0.495,0.059,0.705c-0.095,0.112-0.234,0.177-0.382,0.177
		c-0.118,0-0.232-0.042-0.322-0.118L22,17.386V22.5c0,0.827-0.673,1.5-1.5,1.5H13.5z M20.5,23c0.276,0,0.5-0.224,0.5-0.5v-5.96
		l-3.677-3.111C17.232,13.352,17.117,13.31,17,13.31c-0.118,0-0.232,0.042-0.323,0.119L13,16.54v5.96c0,0.276,0.224,0.5,0.5,0.5H15
		v-2.5c0-1.103,0.897-2,2-2s2,0.897,2,2V23H20.5z M18,23v-2.5c0-0.552-0.448-1-1-1s-1,0.448-1,1V23H18z"/>
</g>
</svg>
