<svg xmlns="http://www.w3.org/2000/svg" viewBox="0 0 24 24"><defs><style>.a{fill:none;stroke:currentColor;stroke-linecap:round;stroke-linejoin:round;}</style></defs><title>computer-chip-32</title><path class="a" d="M6,8H9a2,2,0,1,1,0,4H9a2,2,0,1,1,0,4H6"/><path class="a" d="M18,16H13l3.5-3.089c.987-.87,1.741-1.479,1.45-2.911a2.5,2.5,0,0,0-4.95.5"/><rect class="a" x="2.5" y="3.5" width="18.998" height="17" rx="1" ry="1"/><line class="a" x1="12" y1="1.5" x2="12" y2="3.5"/><line class="a" x1="6.502" y1="1.5" x2="6.502" y2="3.5"/><line class="a" x1="0.5" y1="12" x2="2.5" y2="12"/><line class="a" x1="0.5" y1="16.5" x2="2.5" y2="16.5"/><line class="a" x1="0.5" y1="7.5" x2="2.5" y2="7.5"/><line class="a" x1="23.5" y1="12" x2="21.5" y2="12"/><line class="a" x1="23.5" y1="16.5" x2="21.5" y2="16.5"/><line class="a" x1="23.5" y1="7.5" x2="21.5" y2="7.5"/><line class="a" x1="12" y1="22.5" x2="12" y2="20.5"/><line class="a" x1="6.502" y1="22.5" x2="6.502" y2="20.5"/><line class="a" x1="17.498" y1="1.5" x2="17.498" y2="3.5"/><line class="a" x1="17.498" y1="22.5" x2="17.498" y2="20.5"/></svg>