<svg xmlns="http://www.w3.org/2000/svg" viewBox="0 0 24 24"><defs><style>.a{fill:none;stroke:currentColor;stroke-linecap:round;stroke-linejoin:round;}</style></defs><title>computer-chip-flash</title><polygon class="a" points="23 0.5 19.337 4.5 23.5 4.5 16.5 10.5 18.225 6.5 15.5 6.5 18 0.5 23 0.5"/><path class="a" d="M15.5,12.5v7a1,1,0,0,1-1,1H4.5a1,1,0,0,1-1-1V9.5a1,1,0,0,1,1-1h9"/><line class="a" x1="9.5" y1="20.5" x2="9.5" y2="23.5"/><line class="a" x1="13.5" y1="20.5" x2="13.5" y2="23.5"/><line class="a" x1="9.5" y1="5.5" x2="9.5" y2="8.5"/><line class="a" x1="5.5" y1="20.5" x2="5.5" y2="23.5"/><line class="a" x1="5.5" y1="5.5" x2="5.5" y2="8.5"/><line class="a" x1="15.5" y1="18.5" x2="18.5" y2="18.5"/><line class="a" x1="3.5" y1="14.5" x2="0.5" y2="14.5"/><line class="a" x1="18.5" y1="14.5" x2="15.5" y2="14.5"/><line class="a" x1="3.5" y1="10.5" x2="0.5" y2="10.5"/><line class="a" x1="3.5" y1="18.5" x2="0.5" y2="18.5"/><rect class="a" x="5.5" y="10.5" width="8" height="8" rx="2" ry="2"/></svg>