<svg xmlns="http://www.w3.org/2000/svg" viewBox="0 0 24 24"><defs><style>.a{fill:none;stroke:currentColor;stroke-linecap:round;stroke-linejoin:round;}</style></defs><title>computer-chip-fire</title><path class="a" d="M15.5,12.5v7a1,1,0,0,1-1,1H4.5a1,1,0,0,1-1-1V9.5a1,1,0,0,1,1-1h9"/><line class="a" x1="9.5" y1="20.5" x2="9.5" y2="23.5"/><line class="a" x1="13.5" y1="20.5" x2="13.5" y2="23.5"/><line class="a" x1="9.5" y1="5.5" x2="9.5" y2="8.5"/><line class="a" x1="5.5" y1="20.5" x2="5.5" y2="23.5"/><line class="a" x1="5.5" y1="5.5" x2="5.5" y2="8.5"/><line class="a" x1="15.5" y1="18.5" x2="18.5" y2="18.5"/><line class="a" x1="3.5" y1="14.5" x2="0.5" y2="14.5"/><line class="a" x1="18.5" y1="14.5" x2="15.5" y2="14.5"/><line class="a" x1="3.5" y1="10.5" x2="0.5" y2="10.5"/><line class="a" x1="3.5" y1="18.5" x2="0.5" y2="18.5"/><rect class="a" x="5.5" y="10.5" width="8" height="8" rx="2" ry="2"/><path class="a" d="M18,.5a3.994,3.994,0,0,1,1,5A2.308,2.308,0,0,1,18,4a3.653,3.653,0,0,0-2.5,3.5,4,4,0,0,0,8,0A7.3,7.3,0,0,0,18,.5Z"/></svg>