<svg xmlns="http://www.w3.org/2000/svg" viewBox="0 0 24 24"><defs><style>.a{fill:none;stroke:currentColor;stroke-linecap:round;stroke-linejoin:round;}</style></defs><title>microchip-board</title><rect class="a" x="0.5" y="0.5" width="23" height="23" rx="1" ry="1"/><line class="a" x1="14.5" y1="3.5" x2="20.499" y2="3.5"/><line class="a" x1="14.5" y1="5.5" x2="20.499" y2="5.5"/><line class="a" x1="14.5" y1="7.5" x2="20.499" y2="7.5"/><rect class="a" x="5.5" y="12.5" width="6" height="6"/><line class="a" x1="6.5" y1="12.5" x2="6.5" y2="10.5"/><line class="a" x1="8.5" y1="12.5" x2="8.5" y2="10.5"/><line class="a" x1="8.5" y1="20.5" x2="8.5" y2="18.5"/><line class="a" x1="10.5" y1="12.5" x2="10.5" y2="10.5"/><line class="a" x1="6.5" y1="20.5" x2="6.5" y2="18.5"/><line class="a" x1="10.5" y1="20.5" x2="10.5" y2="18.5"/><line class="a" x1="11.5" y1="13.5" x2="13.5" y2="13.5"/><line class="a" x1="11.5" y1="15.5" x2="13.5" y2="15.5"/><line class="a" x1="11.5" y1="17.5" x2="13.5" y2="17.5"/><line class="a" x1="3.5" y1="13.5" x2="5.5" y2="13.5"/><line class="a" x1="3.5" y1="15.5" x2="5.5" y2="15.5"/><line class="a" x1="3.5" y1="17.5" x2="5.5" y2="17.5"/><path class="a" d="M16.749,11.5a.25.25,0,1,1-.25.25.25.25,0,0,1,.25-.25"/><path class="a" d="M16.749,15a.25.25,0,1,1-.25.25.25.25,0,0,1,.25-.25"/><path class="a" d="M16.749,18.5a.25.25,0,1,1-.25.25.25.25,0,0,1,.25-.25"/><line class="a" x1="20.5" y1="10.5" x2="20.5" y2="20.5"/><circle class="a" cx="5" cy="6" r="1.5"/><circle class="a" cx="10" cy="6" r="1.5"/></svg>