<svg xmlns="http://www.w3.org/2000/svg" viewBox="0 0 24 24"><defs><style>.a{fill:none;stroke:currentColor;stroke-linecap:round;stroke-linejoin:round;}</style></defs><title>certified-diploma-2</title><path class="a" d="M7.5,17h-6a1,1,0,0,1-1-1V2a1,1,0,0,1,1-1h21a1,1,0,0,1,1,1V16a1,1,0,0,1-1,1h-6"/><line class="a" x1="0.5" y1="6.5" x2="6" y2="1"/><line class="a" x1="18" y1="17" x2="23.5" y2="11.5"/><path class="a" d="M12,18a3.487,3.487,0,0,1-2.5-1.051V23L12,20l2.5,3V16.949A3.487,3.487,0,0,1,12,18Z"/><circle class="a" cx="12" cy="14.5" r="3.5"/><circle class="a" cx="12" cy="14.5" r="1.5"/><line class="a" x1="9.5" y1="4" x2="14.5" y2="4"/><line class="a" x1="7" y1="7" x2="17" y2="7"/></svg>