<svg xmlns="http://www.w3.org/2000/svg" viewBox="0 0 24 24"><title>earpod-listen</title><path d="M11.5,6A5.744,5.744,0,0,0,7.437,7.652,1.489,1.489,0,0,0,7,8.709v4.582a1.489,1.489,0,0,0,.437,1.057A5.96,5.96,0,0,0,13.346,15.7a.5.5,0,0,1,.654.476V22.5a1.5,1.5,0,0,0,3,0V11A5.274,5.274,0,0,0,11.5,6ZM10,12a1,1,0,1,1,1-1A1,1,0,0,1,10,12Z"/><path d="M16.5,0a1,1,0,0,0,0,2A5.506,5.506,0,0,1,22,7.5a1,1,0,0,0,2,0A7.508,7.508,0,0,0,16.5,0Z"/><path d="M15.249,3.25a1,1,0,0,0,0,2,3.5,3.5,0,0,1,3.5,3.5,1,1,0,0,0,2,0A5.506,5.506,0,0,0,15.249,3.25Z"/><path d="M7.5,2a1,1,0,0,0,0-2A7.508,7.508,0,0,0,0,7.5a1,1,0,0,0,2,0A5.506,5.506,0,0,1,7.5,2Z"/><path d="M9.75,4.25a1,1,0,0,0-1-1,5.506,5.506,0,0,0-5.5,5.5,1,1,0,0,0,2,0,3.5,3.5,0,0,1,3.5-3.5A1,1,0,0,0,9.75,4.25Z"/></svg>