<svg xmlns="http://www.w3.org/2000/svg" viewBox="0 0 24 24"><defs><style>.a{fill:none;stroke:currentColor;stroke-linecap:round;stroke-linejoin:round;}</style></defs><title>bin-paper-2</title><line class="a" x1="2.5" y1="7.5" x2="21.5" y2="7.5"/><path class="a" d="M18.559,22.562a1,1,0,0,1-1,.938H6.439a1,1,0,0,1-1-.938L4.5,7.5h15Z"/><line class="a" x1="12" y1="7.5" x2="19.094" y2="13.995"/><line class="a" x1="4.501" y1="7.512" x2="18.617" y2="21.628"/><line class="a" x1="4.906" y1="13.995" x2="14.411" y2="23.5"/><line class="a" x1="12" y1="7.5" x2="4.906" y2="13.995"/><line class="a" x1="19.499" y1="7.512" x2="5.383" y2="21.628"/><line class="a" x1="19.094" y1="13.995" x2="9.589" y2="23.5"/><path class="a" d="M15.969,4A4,4,0,0,0,8.031,4"/><path class="a" d="M8.715,2.217A3.5,3.5,0,0,0,4,5.5"/><path class="a" d="M15.285,2.217A3.5,3.5,0,0,1,20,5.5"/></svg>