<?xml version="1.0" encoding="utf-8"?>
<!-- Generator: Adobe Illustrator 22.1.0, SVG Export Plug-In . SVG Version: 6.00 Build 0)  -->
<svg version="1.1" id="Layer_1" xmlns="http://www.w3.org/2000/svg" xmlns:xlink="http://www.w3.org/1999/xlink" x="0px" y="0px"
	 viewBox="0 0 24 24" style="enable-background:new 0 0 24 24;" xml:space="preserve">
<g>
	<title>email-action-read</title>
	<path d="M2,22.954c-1.103,0-2-0.897-2-2v-11c0-0.018,0.003-0.041,0.008-0.062C0.012,9.856,0.022,9.82,0.036,9.781
		c0.007-0.02,0.014-0.037,0.022-0.053C0.065,9.709,0.075,9.69,0.085,9.676c0.025-0.037,0.053-0.063,0.072-0.08
		c0.015-0.017,0.032-0.034,0.047-0.045l11.499-8.499C11.789,0.988,11.892,0.954,12,0.954s0.211,0.034,0.297,0.098l11.5,8.5
		c0.015,0.011,0.032,0.028,0.047,0.045c0.023,0.02,0.048,0.044,0.071,0.079c0.009,0.014,0.019,0.033,0.026,0.05
		c0.007,0.015,0.013,0.031,0.019,0.047c0.017,0.046,0.027,0.083,0.031,0.12C23.997,9.914,24,9.936,24,9.954v11c0,1.103-0.897,2-2,2
		H2z M1,20.954c0,0.552,0.449,1,1,1h20c0.552,0,1-0.448,1-1V10.888l-5.223,3.482c-0.083,0.055-0.179,0.084-0.277,0.084
		c-0.168,0-0.323-0.083-0.416-0.223c-0.153-0.229-0.091-0.54,0.139-0.693l5.408-3.605L12,2.076L1.37,9.933l5.408,3.605
		c0.229,0.153,0.291,0.464,0.139,0.693c-0.093,0.14-0.249,0.223-0.416,0.223c-0.099,0-0.194-0.029-0.277-0.084L1,10.888V20.954z"/>
	<path d="M3.5,19.454c-0.163,0-0.316-0.08-0.41-0.214c-0.077-0.109-0.106-0.242-0.083-0.374c0.023-0.132,0.096-0.246,0.206-0.323
		l5-3.5c0.085-0.059,0.184-0.09,0.287-0.09h7c0.103,0,0.202,0.031,0.286,0.09l5,3.5c0.109,0.076,0.182,0.191,0.206,0.322
		c0.023,0.132-0.006,0.265-0.083,0.374c-0.093,0.134-0.247,0.213-0.41,0.213c-0.103,0-0.202-0.031-0.286-0.09l-4.871-3.41H8.658
		l-4.871,3.41C3.703,19.423,3.604,19.454,3.5,19.454z"/>
</g>
</svg>
