<?xml version="1.0" encoding="utf-8"?>
<!-- Generator: Adobe Illustrator 22.1.0, SVG Export Plug-In . SVG Version: 6.00 Build 0)  -->
<svg version="1.1" id="Layer_1" xmlns="http://www.w3.org/2000/svg" xmlns:xlink="http://www.w3.org/1999/xlink" x="0px" y="0px"
	 viewBox="0 0 24 24" style="enable-background:new 0 0 24 24;" xml:space="preserve">
<g>
	<title>email-action-send-2</title>
	<path d="M2,15c-1.103,0-2-0.897-2-2V2c0-0.509,0.193-0.994,0.543-1.367C0.544,0.632,0.545,0.631,0.545,0.63
		c0.009-0.011,0.021-0.023,0.033-0.033C0.968,0.208,1.467,0,2,0h18c0.539,0,1.044,0.212,1.423,0.598
		c0.012,0.011,0.025,0.023,0.034,0.034c0.002,0.003,0.005,0.006,0.007,0.01C21.81,1.014,22,1.495,22,2v9.5
		c0,0.276-0.224,0.5-0.5,0.5S21,11.776,21,11.5V2c0-0.109-0.018-0.216-0.052-0.318L11.312,9.39C11.224,9.461,11.113,9.5,11,9.5
		s-0.224-0.039-0.312-0.109L1.052,1.682C1.018,1.784,1,1.891,1,2v11c0,0.552,0.449,1,1,1h10.5c0.276,0,0.5,0.224,0.5,0.5
		S12.776,15,12.5,15H2z M11,8.36l9.179-7.343C20.12,1.006,20.06,1,20,1H2C1.94,1,1.88,1.006,1.822,1.017L11,8.36z"/>
	<path d="M18.5,24c-3.033,0-5.5-2.467-5.5-5.5s2.467-5.5,5.5-5.5s5.5,2.467,5.5,5.5S21.533,24,18.5,24z M18.5,14
		c-2.481,0-4.5,2.019-4.5,4.5s2.019,4.5,4.5,4.5s4.5-2.019,4.5-4.5S20.981,14,18.5,14z"/>
	<path d="M18.5,21c-0.134,0-0.259-0.052-0.354-0.146c-0.195-0.195-0.195-0.512,0-0.707L19.293,19H16.5c-0.276,0-0.5-0.224-0.5-0.5
		s0.224-0.5,0.5-0.5h2.793l-1.146-1.146c-0.195-0.195-0.195-0.512,0-0.707C18.241,16.052,18.366,16,18.5,16s0.259,0.052,0.354,0.146
		l2,2c0.046,0.045,0.083,0.101,0.109,0.163c0.05,0.121,0.05,0.261,0,0.382c-0.025,0.062-0.062,0.117-0.109,0.163l-1.999,1.999
		C18.759,20.948,18.634,21,18.5,21z"/>
</g>
</svg>
