<?xml version="1.0" encoding="utf-8"?>
<!-- Generator: Adobe Illustrator 22.1.0, SVG Export Plug-In . SVG Version: 6.00 Build 0)  -->
<svg version="1.1" id="Layer_1" xmlns="http://www.w3.org/2000/svg" xmlns:xlink="http://www.w3.org/1999/xlink" x="0px" y="0px"
	 viewBox="0 0 24 24" style="enable-background:new 0 0 24 24;" xml:space="preserve">
<g>
	<title>email-action-send</title>
	<path d="M14.5,20.954c-0.069,0-0.136-0.014-0.199-0.042C14.119,20.835,14,20.654,14,20.454v-4.5H0.5c-0.276,0-0.5-0.224-0.5-0.5v-7
		c0-0.276,0.224-0.5,0.5-0.5H14v-4.5c0-0.2,0.119-0.38,0.302-0.459c0.063-0.027,0.129-0.041,0.198-0.041
		c0.128,0,0.25,0.048,0.344,0.136l9,8.5c0.1,0.094,0.157,0.227,0.157,0.364s-0.057,0.27-0.157,0.364l-9,8.5
		C14.75,20.906,14.628,20.954,14.5,20.954z M14.5,14.954c0.276,0,0.5,0.224,0.5,0.5v3.84l7.772-7.34L15,4.614v3.84
		c0,0.276-0.224,0.5-0.5,0.5H1v6H14.5z"/>
</g>
</svg>
