<?xml version="1.0" encoding="utf-8"?>
<!-- Generator: Adobe Illustrator 22.1.0, SVG Export Plug-In . SVG Version: 6.00 Build 0)  -->
<svg version="1.1" id="Layer_1" xmlns="http://www.w3.org/2000/svg" xmlns:xlink="http://www.w3.org/1999/xlink" x="0px" y="0px"
	 viewBox="0 0 24 24" style="enable-background:new 0 0 24 24;" xml:space="preserve">
<g>
	<title>email-action-music</title>
	<path d="M2,24c-1.103,0-2-0.897-2-2V11.5c0-0.023,0.003-0.045,0.006-0.067c0.001-0.011,0.003-0.024,0.006-0.036
		c0.01-0.048,0.028-0.096,0.054-0.142c0.005-0.01,0.01-0.02,0.016-0.029c0.007-0.011,0.016-0.022,0.026-0.033
		c0.032-0.042,0.068-0.076,0.108-0.104L4,8.487V1.5C4,0.673,4.673,0,5.5,0h13C19.327,0,20,0.673,20,1.5v6.987l3.778,2.598
		c0.045,0.031,0.081,0.065,0.114,0.107c0.008,0.009,0.015,0.018,0.021,0.027c0.008,0.011,0.015,0.024,0.021,0.036
		c0.026,0.046,0.043,0.092,0.054,0.141c0.002,0.01,0.005,0.031,0.006,0.041C23.997,11.455,24,11.477,24,11.5V22c0,1.103-0.897,2-2,2
		H2z M1,22c0,0.552,0.449,1,1,1h20c0.552,0,1-0.448,1-1v-9.566l-5.223,3.482C17.694,15.971,17.599,16,17.5,16
		c-0.168,0-0.323-0.083-0.416-0.223c-0.153-0.229-0.091-0.54,0.139-0.693L19,13.899V1.5C19,1.224,18.776,1,18.5,1h-13
		C5.224,1,5,1.224,5,1.5v12.399l1.777,1.185c0.229,0.153,0.291,0.464,0.139,0.693C6.823,15.917,6.667,16,6.5,16
		c-0.099,0-0.194-0.029-0.277-0.084L1,12.434V22z M20,13.232l2.608-1.739L20,9.701V13.232z M4,13.232V9.701l-2.608,1.793L4,13.232z"
		/>
	<path d="M3.5,21c-0.153,0-0.295-0.069-0.391-0.188c-0.172-0.215-0.137-0.53,0.078-0.703l5-4C8.276,16.039,8.387,16,8.5,16h7
		c0.113,0,0.224,0.039,0.312,0.109l5,4c0.215,0.173,0.25,0.488,0.078,0.703C20.794,20.932,20.652,21,20.5,21
		c-0.113,0-0.224-0.039-0.312-0.109L15.325,17H8.675l-4.863,3.891C3.724,20.961,3.613,21,3.5,21z"/>
	<path d="M9.247,12.613c-0.965,0-1.75-0.785-1.75-1.75s0.785-1.75,1.75-1.75c0.263,0,0.519,0.059,0.753,0.172V6.334
		c0-0.647,0.412-1.219,1.026-1.423l3.024-0.84c0.135-0.046,0.291-0.071,0.448-0.071c0.231,0,0.463,0.055,0.673,0.16
		c0.358,0.179,0.625,0.487,0.752,0.868C15.974,5.179,16,5.339,16,5.5v3.613c0,0.035-0.005,0.067-0.011,0.093
		c0.005,0.052,0.008,0.104,0.008,0.157c0,0.965-0.785,1.75-1.75,1.75s-1.75-0.785-1.75-1.75s0.785-1.75,1.75-1.75
		c0.263,0,0.519,0.059,0.753,0.172V5.5c0-0.053-0.009-0.106-0.025-0.157c-0.042-0.127-0.132-0.23-0.251-0.29
		C14.653,5.018,14.578,5,14.501,5c-0.053,0-0.107,0.009-0.159,0.026l-3.024,0.84C11.136,5.928,11,6.122,11,6.334v4.279
		c0,0.036-0.005,0.067-0.011,0.093c0.005,0.052,0.008,0.104,0.008,0.157C10.997,11.828,10.212,12.613,9.247,12.613z M9.247,10.113
		c-0.414,0-0.75,0.336-0.75,0.75s0.336,0.75,0.75,0.75s0.75-0.336,0.75-0.75S9.661,10.113,9.247,10.113z M14.247,8.613
		c-0.414,0-0.75,0.336-0.75,0.75s0.336,0.75,0.75,0.75s0.75-0.336,0.75-0.75S14.661,8.613,14.247,8.613z"/>
</g>
</svg>
