<?xml version="1.0" encoding="utf-8"?>
<!-- Generator: Adobe Illustrator 22.1.0, SVG Export Plug-In . SVG Version: 6.00 Build 0)  -->
<svg version="1.1" id="Layer_1" xmlns="http://www.w3.org/2000/svg" xmlns:xlink="http://www.w3.org/1999/xlink" x="0px" y="0px"
	 viewBox="0 0 24 24" style="enable-background:new 0 0 24 24;" xml:space="preserve">
<g>
	<title>flash-drive-lock</title>
	<path d="M4.5,24C3.121,24,2,22.878,2,21.5v-12C2,8.673,2.673,8,3.5,8H4V1.5C4,0.673,4.673,0,5.5,0h9C15.327,0,16,0.673,16,1.5V8
		h0.5C17.327,8,18,8.673,18,9.5c0,0.276-0.224,0.5-0.5,0.5S17,9.776,17,9.5S16.776,9,16.5,9h-13C3.224,9,3,9.224,3,9.5v12
		C3,22.327,3.673,23,4.5,23H10c0.276,0,0.5,0.224,0.5,0.5S10.276,24,10,24H4.5z M15,8V1.5C15,1.224,14.776,1,14.5,1h-9
		C5.224,1,5,1.224,5,1.5V8H15z"/>
	<path d="M6.5,5C6.224,5,6,4.776,6,4.5v-2C6,2.224,6.224,2,6.5,2h2C8.776,2,9,2.224,9,2.5v2C9,4.776,8.776,5,8.5,5H6.5z M8,4V3H7v1
		H8z"/>
	<path d="M11.5,5C11.224,5,11,4.776,11,4.5v-2C11,2.224,11.224,2,11.5,2h2C13.776,2,14,2.224,14,2.5v2C14,4.776,13.776,5,13.5,5
		H11.5z M13,4V3h-1v1H13z"/>
	<path d="M13.5,24c-0.827,0-1.5-0.673-1.5-1.5v-5.999c0-0.827,0.673-1.5,1.5-1.5H14V14c0-1.654,1.346-3,3-3s3,1.346,3,3v1.001h0.5
		c0.827,0,1.5,0.673,1.5,1.5V22.5c0,0.827-0.673,1.5-1.5,1.5H13.5z M13.5,16.001c-0.276,0-0.5,0.224-0.5,0.5V22.5
		c0,0.276,0.224,0.5,0.5,0.5h7c0.276,0,0.5-0.224,0.5-0.5v-5.999c0-0.276-0.224-0.5-0.5-0.5H13.5z M19,15v-1c0-1.103-0.897-2-2-2
		s-2,0.897-2,2L19,15z"/>
	<path d="M17,21.313c-0.965,0-1.75-0.785-1.75-1.75s0.785-1.75,1.75-1.75s1.75,0.785,1.75,1.75S17.965,21.313,17,21.313z M17,18.813
		c-0.414,0-0.75,0.336-0.75,0.75s0.336,0.75,0.75,0.75s0.75-0.336,0.75-0.75S17.414,18.813,17,18.813z"/>
</g>
</svg>
