<?xml version="1.0" encoding="utf-8"?>
<!-- Generator: Adobe Illustrator 22.1.0, SVG Export Plug-In . SVG Version: 6.00 Build 0)  -->
<svg version="1.1" id="Layer_1" xmlns="http://www.w3.org/2000/svg" xmlns:xlink="http://www.w3.org/1999/xlink" x="0px" y="0px"
	 viewBox="0 0 24 24" style="enable-background:new 0 0 24 24;" xml:space="preserve">
<g>
	<title>sd-card-settings</title>
	<path d="M1.5,24C0.673,24,0,23.327,0,22.5v-10C0,12.224,0.224,12,0.5,12H1v-2H0.5C0.224,10,0,9.776,0,9.5v-8C0,0.673,0.673,0,1.5,0
		h10.587c0.401,0,0.777,0.156,1.06,0.439l4.413,4.414C17.844,5.137,18,5.513,18,5.914V8.5C18,8.776,17.776,9,17.5,9S17,8.776,17,8.5
		V5.914c0-0.133-0.052-0.259-0.146-0.353l-4.413-4.414C12.346,1.052,12.22,1,12.087,1H1.5C1.224,1,1,1.224,1,1.5V9h0.5
		C1.776,9,2,9.224,2,9.5v3C2,12.776,1.776,13,1.5,13H1v9.5C1,22.776,1.224,23,1.5,23H11c0.276,0,0.5,0.224,0.5,0.5S11.276,24,11,24
		H1.5z"/>
	<path d="M4.501,9c-0.276,0-0.5-0.224-0.5-0.5v-5c0-0.276,0.224-0.5,0.5-0.5s0.5,0.224,0.5,0.5v5C5.001,8.776,4.777,9,4.501,9z"/>
	<path d="M7.501,9c-0.276,0-0.5-0.224-0.5-0.5v-5c0-0.276,0.224-0.5,0.5-0.5s0.5,0.224,0.5,0.5v5C8.001,8.776,7.777,9,7.501,9z"/>
	<path d="M10.501,9c-0.276,0-0.5-0.224-0.5-0.5v-5c0-0.276,0.224-0.5,0.5-0.5s0.5,0.224,0.5,0.5v5C11.001,8.776,10.777,9,10.501,9z"
		/>
	<path d="M13.501,10c-0.276,0-0.5-0.224-0.5-0.5v-4c0-0.276,0.224-0.5,0.5-0.5s0.5,0.224,0.5,0.5v4
		C14.001,9.776,13.777,10,13.501,10z"/>
	<path d="M17.749,18.969c-1.068,0-1.937-0.869-1.937-1.937s0.869-1.937,1.937-1.937s1.937,0.869,1.937,1.937
		S18.817,18.969,17.749,18.969z M17.749,16.095c-0.517,0-0.937,0.42-0.937,0.937s0.42,0.937,0.937,0.937s0.937-0.42,0.937-0.937
		S18.266,16.095,17.749,16.095z"/>
	<path d="M17.748,23.995c-0.172,0-0.344-0.025-0.51-0.075c-0.572-0.172-1.017-0.617-1.189-1.189l-0.427-1.384
		c-0.058-0.191-0.236-0.323-0.434-0.323c-0.034,0-0.067,0.004-0.1,0.011l-1.411,0.327c-0.13,0.029-0.262,0.044-0.394,0.044
		c-0.827,0-1.559-0.585-1.741-1.391c-0.13-0.575,0.033-1.176,0.435-1.607l0.986-1.064c0.16-0.174,0.159-0.447-0.001-0.622
		l-0.986-1.063c-0.324-0.348-0.493-0.802-0.476-1.278c0.017-0.476,0.218-0.917,0.567-1.241c0.331-0.308,0.763-0.478,1.215-0.478
		c0.131,0,0.263,0.015,0.392,0.044l1.414,0.327c0.034,0.008,0.068,0.012,0.102,0.012c0.197,0,0.375-0.132,0.432-0.322l0.424-1.393
		c0.219-0.748,0.92-1.272,1.703-1.272c0.168,0,0.335,0.024,0.497,0.071c0.581,0.17,1.031,0.618,1.203,1.197l0.424,1.39
		c0.057,0.19,0.235,0.322,0.432,0.322c0.034,0,0.068-0.004,0.101-0.012l1.41-0.327c0.133-0.03,0.266-0.045,0.399-0.045
		c0.335,0,0.663,0.095,0.948,0.275c0.403,0.254,0.682,0.65,0.788,1.115c0.13,0.576-0.032,1.177-0.435,1.609l-0.987,1.064
		c-0.16,0.174-0.159,0.447,0.001,0.622l0.987,1.063c0.669,0.719,0.629,1.849-0.09,2.519c-0.331,0.309-0.763,0.479-1.216,0.479l0,0
		c-0.132,0-0.264-0.015-0.393-0.044l-1.414-0.328c-0.034-0.008-0.068-0.012-0.102-0.012c-0.197,0-0.374,0.132-0.431,0.321
		l-0.424,1.393C19.225,23.475,18.526,23.995,17.748,23.995L17.748,23.995z M15.188,20.024c0.635,0,1.208,0.424,1.391,1.031
		l0.427,1.384c0.076,0.253,0.271,0.448,0.52,0.522c0.073,0.022,0.149,0.033,0.225,0.033c0.126,0,0.253-0.032,0.365-0.093
		c0.182-0.098,0.316-0.261,0.375-0.459l0.425-1.394c0.183-0.606,0.755-1.03,1.391-1.03c0.108,0,0.217,0.012,0.323,0.036l1.412,0.327
		c0.055,0.013,0.114,0.019,0.171,0.019c0.198,0,0.388-0.075,0.533-0.21c0.316-0.294,0.333-0.791,0.039-1.107l-0.989-1.066
		c-0.511-0.555-0.511-1.424-0.001-1.979l0.989-1.066c0.177-0.19,0.249-0.455,0.191-0.708c-0.046-0.204-0.169-0.378-0.346-0.489
		c-0.125-0.079-0.269-0.121-0.416-0.121c-0.058,0-0.117,0.007-0.175,0.02l-1.408,0.326c-0.107,0.024-0.215,0.036-0.323,0.036
		c-0.636,0-1.209-0.424-1.392-1.031c0,0-0.425-1.394-0.425-1.396c-0.075-0.253-0.271-0.448-0.525-0.522
		c-0.071-0.021-0.144-0.031-0.217-0.031c-0.342,0-0.649,0.229-0.745,0.557l-0.425,1.397c-0.184,0.607-0.755,1.031-1.391,1.031
		c-0.109,0-0.219-0.012-0.325-0.037l-1.412-0.327c-0.055-0.013-0.113-0.019-0.171-0.019c-0.198,0-0.387,0.075-0.532,0.21
		c-0.153,0.142-0.241,0.336-0.249,0.545c-0.007,0.209,0.067,0.409,0.209,0.562l0.988,1.066c0.51,0.555,0.511,1.424,0.001,1.978
		l-0.989,1.066c-0.177,0.19-0.249,0.454-0.192,0.707c0.08,0.354,0.401,0.611,0.764,0.611c0.058,0,0.115-0.006,0.172-0.019
		l1.408-0.326C14.97,20.036,15.079,20.024,15.188,20.024z"/>
</g>
</svg>
