<?xml version="1.0" encoding="utf-8"?>
<!-- Generator: Adobe Illustrator 22.1.0, SVG Export Plug-In . SVG Version: 6.00 Build 0)  -->
<svg version="1.1" id="Layer_1" xmlns="http://www.w3.org/2000/svg" xmlns:xlink="http://www.w3.org/1999/xlink" x="0px" y="0px"
	 viewBox="0 0 24 24" style="enable-background:new 0 0 24 24;" xml:space="preserve">
<g>
	<title>sd-card</title>
	<path d="M4.5,24C3.673,24,3,23.327,3,22.5v-10C3,12.224,3.224,12,3.5,12H4v-2H3.5C3.224,10,3,9.776,3,9.5v-8C3,0.673,3.673,0,4.5,0
		h10.586c0.401,0,0.777,0.156,1.061,0.439l4.414,4.414C20.844,5.137,21,5.513,21,5.914V22.5c0,0.827-0.673,1.5-1.5,1.5H4.5z M4,22.5
		C4,22.776,4.224,23,4.5,23h15c0.276,0,0.5-0.224,0.5-0.5V5.914c0-0.133-0.052-0.259-0.146-0.353l-4.414-4.414
		C15.346,1.053,15.218,1,15.086,1H4.5C4.224,1,4,1.224,4,1.5V9h0.5C4.776,9,5,9.224,5,9.5v3C5,12.776,4.776,13,4.5,13H4V22.5z"/>
	<path d="M7.5,9C7.224,9,7,8.776,7,8.5v-5C7,3.224,7.224,3,7.5,3S8,3.224,8,3.5v5C8,8.776,7.776,9,7.5,9z"/>
	<path d="M10.5,9C10.224,9,10,8.776,10,8.5v-5C10,3.224,10.224,3,10.5,3S11,3.224,11,3.5v5C11,8.776,10.776,9,10.5,9z"/>
	<path d="M13.5,9C13.224,9,13,8.776,13,8.5v-5C13,3.224,13.224,3,13.5,3S14,3.224,14,3.5v5C14,8.776,13.776,9,13.5,9z"/>
	<path d="M16.5,10C16.224,10,16,9.776,16,9.5v-4C16,5.224,16.224,5,16.5,5S17,5.224,17,5.5v4C17,9.776,16.776,10,16.5,10z"/>
	<path d="M10,21c-0.185,0-0.354-0.101-0.441-0.264c-0.087-0.163-0.078-0.36,0.025-0.513l2-3c0.09-0.135,0.246-0.216,0.416-0.216
		s0.326,0.081,0.416,0.216l2,3c0.102,0.154,0.112,0.35,0.025,0.513C14.354,20.899,14.185,21,14,21H10z M13.066,20L12,18.401
		L10.934,20H13.066z"/>
</g>
</svg>
