<?xml version="1.0" encoding="utf-8"?>
<!-- Generator: Adobe Illustrator 22.1.0, SVG Export Plug-In . SVG Version: 6.00 Build 0)  -->
<svg version="1.1" id="Layer_1" xmlns="http://www.w3.org/2000/svg" xmlns:xlink="http://www.w3.org/1999/xlink" x="0px" y="0px"
	 viewBox="0 0 24 24" style="enable-background:new 0 0 24 24;" xml:space="preserve">
<title>mailbox-post</title>
<g>
	<path d="M21,24c-0.414,0-0.75-0.336-0.75-0.75V21H3.75v2.25C3.75,23.664,3.414,24,3,24s-0.75-0.336-0.75-0.75v-18
		c0-2.535,1.807-4.701,4.3-5.159c0.062-0.018,0.122-0.027,0.182-0.029C7.016,0.02,7.261,0,7.5,0h9c0.239,0,0.484,0.02,0.768,0.062
		c0.06,0.002,0.12,0.011,0.182,0.029c2.493,0.458,4.3,2.624,4.3,5.159v18C21.75,23.664,21.414,24,21,24z M20.25,19.5V5.25
		c0-1.495-0.904-2.842-2.25-3.433V19.5H20.25z M16.5,19.5v-12h-9v12H16.5z M6,19.5V1.817C4.654,2.408,3.75,3.755,3.75,5.25V19.5H6z
		 M16.5,6V1.5h-9V6H16.5z"/>
	<path d="M10.5,16.5c-0.262,0-0.509-0.14-0.643-0.364c-0.103-0.172-0.133-0.373-0.084-0.568s0.17-0.358,0.342-0.461l2.678-1.607
		l-2.678-1.607c-0.355-0.213-0.47-0.674-0.257-1.029C9.992,10.639,10.238,10.5,10.5,10.5c0.136,0,0.269,0.037,0.385,0.107l3.75,2.25
		C14.86,12.991,15,13.238,15,13.5s-0.14,0.509-0.365,0.643l-3.75,2.25C10.77,16.463,10.636,16.5,10.5,16.5z"/>
</g>
</svg>
