<svg xmlns="http://www.w3.org/2000/svg" viewBox="0 0 24 24"><defs><style>.a{fill:none;stroke:currentColor;stroke-linecap:round;stroke-linejoin:round;stroke-width:1.5px;}</style></defs><title>app-window-lock</title><path class="a" d="M22.51,9.753v-7.5a1.5,1.5,0,0,0-1.5-1.5h-18a1.5,1.5,0,0,0-1.5,1.5v16.5a1.5,1.5,0,0,0,1.5,1.5h7.5"/><line class="a" x1="1.51" y1="5.253" x2="22.51" y2="5.253"/><rect class="a" x="13.509" y="15.753" width="9" height="7.5" rx="1.5" ry="1.5"/><path class="a" d="M18.009,11.253h0a3,3,0,0,0-3,3v1.5h6v-1.5A3,3,0,0,0,18.009,11.253Z"/><path class="a" d="M18.009,19.158a.375.375,0,1,1-.375.375.375.375,0,0,1,.375-.375"/></svg>