<svg xmlns="http://www.w3.org/2000/svg" viewBox="0 0 24 24"><defs><style>.a{fill:none;stroke:currentColor;stroke-linecap:round;stroke-linejoin:round;stroke-width:1.5px;}</style></defs><title>app-window-text</title><path class="a" d="M2.26,21.753a1.5,1.5,0,0,1-1.5-1.5V3.869A1.62,1.62,0,0,1,2.375,2.253H21.653A1.612,1.612,0,0,1,23.26,3.861V20.138a1.619,1.619,0,0,1-1.615,1.615Z"/><line class="a" x1="23.26" y1="6.753" x2="0.76" y2="6.753"/><line class="a" x1="17.26" y1="2.253" x2="17.26" y2="6.753"/><line class="a" x1="12.76" y1="2.253" x2="12.76" y2="6.753"/><line class="a" x1="6.01" y1="10.503" x2="7.51" y2="10.503"/><line class="a" x1="6.01" y1="13.503" x2="7.51" y2="13.503"/><line class="a" x1="6.01" y1="16.503" x2="7.51" y2="16.503"/><line class="a" x1="10.51" y1="10.503" x2="18.01" y2="10.503"/><line class="a" x1="10.51" y1="13.503" x2="18.01" y2="13.503"/><line class="a" x1="10.51" y1="16.503" x2="18.01" y2="16.503"/></svg>