<svg xmlns="http://www.w3.org/2000/svg" viewBox="0 0 24 24"><defs><style>.a{fill:none;stroke:currentColor;stroke-linecap:round;stroke-linejoin:round;stroke-width:1.5px;}</style></defs><title>app-window-star</title><rect class="a" x="1.51" y="2.253" width="21" height="19.5" rx="1.5" ry="1.5"/><line class="a" x1="1.51" y1="6.753" x2="22.51" y2="6.753"/><path class="a" d="M12.539,10.094l1.151,2.659h2.24a.549.549,0,0,1,.387.959l-1.944,1.735,1.077,2.475a.587.587,0,0,1-.836.734l-2.6-1.465-2.6,1.465a.587.587,0,0,1-.836-.734l1.078-2.475L7.7,13.712a.549.549,0,0,1,.385-.959h2.241l1.153-2.659A.6.6,0,0,1,12.539,10.094Z"/></svg>