<?xml version="1.0" encoding="utf-8"?>
<!-- Generator: Adobe Illustrator 22.1.0, SVG Export Plug-In . SVG Version: 6.00 Build 0)  -->
<svg version="1.1" id="Layer_1" xmlns="http://www.w3.org/2000/svg" xmlns:xlink="http://www.w3.org/1999/xlink" x="0px" y="0px"
	 viewBox="0 0 24 24" style="enable-background:new 0 0 24 24;" xml:space="preserve">
<g>
	<title>bin-paper-2</title>
	<path d="M6.439,24c-0.793,0-1.45-0.618-1.499-1.407L4.03,8H2.5C2.224,8,2,7.776,2,7.5S2.224,7,2.5,7h19C21.776,7,22,7.224,22,7.5
		S21.776,8,21.5,8h-1.53l-0.912,14.593C19.009,23.382,18.351,24,17.561,24H6.439z M17.559,23c0.265,0,0.485-0.206,0.501-0.469
		l0.044-0.708l-3.065-3.065l-2.332,2.332L14.618,23H17.559z M13.204,23L12,21.796L10.796,23H13.204z M5.938,22.531
		C5.954,22.794,6.174,23,6.437,23h2.945l1.911-1.911l-2.332-2.332l-3.067,3.067L5.938,22.531z M5.811,20.493l2.443-2.443
		l-2.768-2.768L5.811,20.493z M18.187,20.491l0.325-5.208l-2.767,2.767L18.187,20.491z M12,20.382l2.332-2.332L12,15.718
		L9.668,18.05L12,20.382z M8.961,17.343l2.332-2.332l-3.229-3.229l-2.435,2.229L8.961,17.343z M15.039,17.343l3.332-3.332
		l-2.435-2.229l-3.229,3.229L15.039,17.343z M12,14.304l3.198-3.198L12,8.178l-3.198,2.928L12,14.304z M5.339,12.921l2.017-1.847
		L5.082,8.8L5.339,12.921z M18.66,12.92l0.257-4.12l-2.274,2.274L18.66,12.92z M15.906,10.398L18.304,8h-5.018L15.906,10.398z
		 M8.094,10.398L10.713,8H5.696L8.094,10.398z"/>
	<path d="M20,6c-0.276,0-0.5-0.224-0.5-0.5c0-0.357-0.063-0.707-0.187-1.042c-0.278-0.751-0.832-1.35-1.561-1.684
		c-0.398-0.183-0.819-0.276-1.25-0.276c-0.152,0-0.303,0.012-0.454,0.035c0.215,0.442,0.354,0.913,0.416,1.405
		c0.017,0.133-0.02,0.264-0.102,0.369c-0.082,0.105-0.2,0.173-0.333,0.189C16.01,4.499,15.99,4.5,15.969,4.5
		c-0.251,0-0.465-0.188-0.496-0.438c-0.116-0.928-0.587-1.755-1.324-2.328c-0.62-0.482-1.361-0.737-2.142-0.737
		c-0.146,0-0.295,0.009-0.442,0.027C9.975,1.223,8.726,2.472,8.527,4.062C8.496,4.312,8.283,4.5,8.032,4.5
		c-0.021,0-0.042-0.001-0.063-0.004c-0.132-0.016-0.25-0.084-0.332-0.189S7.518,4.07,7.535,3.938
		c0.061-0.491,0.201-0.962,0.417-1.405C7.801,2.51,7.649,2.498,7.497,2.498c-0.432,0-0.852,0.093-1.25,0.276
		c-0.728,0.335-1.282,0.933-1.56,1.684C4.563,4.792,4.5,5.143,4.5,5.5C4.5,5.775,4.276,6,4,6C3.724,6,3.5,5.776,3.5,5.5
		c0-0.475,0.083-0.943,0.249-1.389c0.371-1.002,1.11-1.8,2.081-2.246C6.356,1.623,6.914,1.5,7.488,1.5
		c0.35,0,0.698,0.046,1.04,0.138c0.734-0.894,1.762-1.462,2.913-1.606c0.188-0.023,0.379-0.035,0.567-0.035
		c1.005,0,1.957,0.328,2.755,0.948c0.256,0.199,0.494,0.432,0.709,0.694c0.341-0.092,0.69-0.138,1.04-0.138
		c0.574,0,1.133,0.123,1.659,0.365c0.971,0.446,1.709,1.244,2.08,2.246C20.416,4.557,20.5,5.024,20.5,5.5C20.5,5.776,20.276,6,20,6z
		"/>
</g>
</svg>
