<?xml version="1.0" encoding="utf-8"?>
<!-- Generator: Adobe Illustrator 22.1.0, SVG Export Plug-In . SVG Version: 6.00 Build 0)  -->
<svg version="1.1" id="Layer_1" xmlns="http://www.w3.org/2000/svg" xmlns:xlink="http://www.w3.org/1999/xlink" x="0px" y="0px"
	 viewBox="0 0 24 24" style="enable-background:new 0 0 24 24;" xml:space="preserve">
<g>
	<title>delete</title>
	<path d="M12,24c-3.181,0-6.178-1.236-8.442-3.481c-0.013-0.009-0.027-0.02-0.042-0.035c-0.011-0.011-0.025-0.028-0.036-0.045
		C1.241,18.191,0,15.188,0,12C0,5.383,5.383,0,12,0c3.181,0,6.178,1.236,8.443,3.481c0.012,0.008,0.027,0.02,0.042,0.034
		c0.01,0.01,0.022,0.025,0.032,0.04C22.763,5.82,24,8.818,24,12C24,18.617,18.617,24,12,24z M4.589,20.118
		C6.624,21.979,9.246,23,12,23c6.065,0,11-4.935,11-11c0-2.754-1.021-5.376-2.882-7.411L4.589,20.118z M12,1C5.935,1,1,5.935,1,12
		c0,2.754,1.021,5.376,2.882,7.411L19.411,3.882C17.376,2.021,14.754,1,12,1z"/>
</g>
</svg>
