<?xml version="1.0" encoding="utf-8"?>
<!-- Generator: Adobe Illustrator 22.1.0, SVG Export Plug-In . SVG Version: 6.00 Build 0)  -->
<svg version="1.1" id="Layer_1" xmlns="http://www.w3.org/2000/svg" xmlns:xlink="http://www.w3.org/1999/xlink" x="0px" y="0px"
	 viewBox="0 0 24 24" style="enable-background:new 0 0 24 24;" xml:space="preserve">
<g>
	<title>disable</title>
	<path d="M12,24C5.383,24,0,18.617,0,12C0,5.383,5.383,0,12,0c6.617,0,12,5.383,12,12C24,18.617,18.617,24,12,24z M12,1
		C5.935,1,1,5.935,1,12s4.935,11,11,11s11-4.935,11-11S18.065,1,12,1z"/>
	<path d="M5.613,16.806c-0.149-0.014-0.283-0.093-0.367-0.217c-0.924-1.36-1.412-2.947-1.412-4.591c0-2.181,0.85-4.232,2.392-5.774
		c1.542-1.542,3.593-2.391,5.774-2.391c0.004,0,0.008,0,0.012,0c1.645,0.001,3.226,0.49,4.58,1.413
		c0.123,0.084,0.202,0.217,0.216,0.366c0.014,0.15-0.039,0.295-0.145,0.401L6.013,16.662c-0.094,0.094-0.22,0.146-0.354,0.146
		C5.651,16.808,5.62,16.807,5.613,16.806z M11.981,4.833c-1.907,0.005-3.699,0.749-5.049,2.098
		c-1.354,1.354-2.099,3.153-2.099,5.067c0,1.234,0.316,2.441,0.918,3.51l9.759-9.758c-1.062-0.599-2.259-0.915-3.484-0.918
		c-0.008,0.001-0.015,0.001-0.023,0.001C11.996,4.834,11.989,4.834,11.981,4.833z"/>
	<path d="M11.985,20.17c-1.631,0-3.214-0.49-4.576-1.416c-0.124-0.084-0.203-0.218-0.217-0.367c-0.014-0.149,0.039-0.295,0.144-0.4
		l10.65-10.65c0.093-0.093,0.222-0.146,0.354-0.146c0.008,0,0.038,0.001,0.046,0.002c0.149,0.014,0.282,0.093,0.367,0.216
		c1.897,2.79,1.897,6.395,0,9.185c-1.227,1.804-3.083,3.022-5.225,3.43C13.019,20.121,12.499,20.17,11.985,20.17z M8.49,18.249
		c1.07,0.604,2.272,0.921,3.496,0.921c0.452,0,0.908-0.043,1.356-0.129c1.881-0.358,3.509-1.427,4.585-3.01
		c1.535-2.257,1.651-5.183,0.322-7.542L8.49,18.249z"/>
</g>
</svg>
