<?xml version="1.0" encoding="utf-8"?>
<!-- Generator: Adobe Illustrator 22.1.0, SVG Export Plug-In . SVG Version: 6.00 Build 0)  -->
<svg version="1.1" id="Regular" xmlns="http://www.w3.org/2000/svg" xmlns:xlink="http://www.w3.org/1999/xlink" x="0px" y="0px"
	 viewBox="0 0 24 24" style="enable-background:new 0 0 24 24;" xml:space="preserve">
<title>single-man-actions-location</title>
<g>
	<circle cx="18.75" cy="15.812" r="1.125"/>
	<path d="M18.749,23.986c-0.338,0-0.658-0.11-0.925-0.319c-0.095-0.075-0.181-0.161-0.255-0.255
		c-1.856-2.375-4.069-5.621-4.069-7.601c0-2.894,2.356-5.249,5.25-5.249c2.895,0,5.25,2.355,5.25,5.25
		c0,1.981-2.212,5.226-4.068,7.599C19.645,23.777,19.214,23.986,18.749,23.986z M18.75,12.062c-2.067,0-3.75,1.682-3.75,3.749
		c0,1.159,1.437,3.717,3.75,6.676c2.314-2.958,3.75-5.515,3.75-6.675C22.5,13.744,20.818,12.062,18.75,12.062z"/>
	<path d="M6,7.5c-2.068,0-3.75-1.682-3.75-3.75S3.932,0,6,0s3.75,1.682,3.75,3.75S8.068,7.5,6,7.5z M6,1.5
		c-1.241,0-2.25,1.009-2.25,2.25S4.759,6,6,6s2.25-1.009,2.25-2.25S7.241,1.5,6,1.5z"/>
	<path d="M3.75,24c-0.387,0-0.708-0.29-0.746-0.675L2.321,16.5H0.75C0.336,16.5,0,16.164,0,15.75V13.5c0-3.308,2.692-6,6-6
		s6,2.692,6,6v2.25c0,0.414-0.336,0.75-0.75,0.75H9.679l-0.682,6.825C8.958,23.71,8.637,24,8.25,24H3.75z M7.571,22.5l0.682-6.825
		C8.292,15.29,8.613,15,9,15h1.5v-1.5c0-2.198-1.617-4.072-3.75-4.433v5.183C6.75,14.664,6.414,15,6,15s-0.75-0.336-0.75-0.75V9.067
		C3.117,9.428,1.5,11.302,1.5,13.5V15H3c0.387,0,0.708,0.29,0.746,0.675L4.429,22.5H7.571z"/>
</g>
</svg>
