<?xml version="1.0" encoding="utf-8"?>
<!-- Generator: Adobe Illustrator 22.1.0, SVG Export Plug-In . SVG Version: 6.00 Build 0)  -->
<svg version="1.1" id="Regular" xmlns="http://www.w3.org/2000/svg" xmlns:xlink="http://www.w3.org/1999/xlink" x="0px" y="0px"
	 viewBox="0 0 24 24" style="enable-background:new 0 0 24 24;" xml:space="preserve">
<title>single-man-actions-sync</title>
<g>
	<path d="M17.252,23.998c-3.08,0-5.769-2.083-6.537-5.066c-0.45-1.746-0.193-3.562,0.723-5.115c0.916-1.552,2.383-2.656,4.129-3.106
		c0.551-0.142,1.117-0.214,1.682-0.214c2.066,0,3.984,0.936,5.251,2.508V11.25c0-0.414,0.336-0.75,0.75-0.75S24,10.836,24,11.25v4.5
		c0,0.414-0.336,0.75-0.75,0.75H19.5c-0.414,0-0.75-0.336-0.75-0.75S19.086,15,19.5,15h2.494c-0.86-1.816-2.703-3.003-4.744-3.003
		c-0.44,0-0.88,0.056-1.31,0.167c-1.358,0.35-2.499,1.208-3.211,2.416c-0.713,1.208-0.912,2.62-0.562,3.979
		c0.598,2.32,2.689,3.94,5.085,3.94c0.439,0,0.88-0.056,1.309-0.167c1.094-0.282,2.086-0.924,2.792-1.808
		c0.143-0.179,0.356-0.281,0.586-0.281c0.169,0,0.335,0.058,0.468,0.163c0.157,0.125,0.256,0.304,0.278,0.503
		c0.022,0.199-0.034,0.395-0.159,0.552c-0.907,1.135-2.182,1.961-3.59,2.323C18.383,23.926,17.817,23.998,17.252,23.998z"/>
	<path d="M6,7.5c-2.068,0-3.75-1.682-3.75-3.75S3.932,0,6,0s3.75,1.682,3.75,3.75S8.068,7.5,6,7.5z M6,1.5
		c-1.241,0-2.25,1.009-2.25,2.25S4.759,6,6,6s2.25-1.009,2.25-2.25S7.241,1.5,6,1.5z"/>
	<path d="M3.75,24c-0.387,0-0.708-0.29-0.746-0.675L2.321,16.5H0.75C0.336,16.5,0,16.164,0,15.75V13.5
		c0.001-2.142,1.156-4.136,3.014-5.202c0.889-0.511,1.9-0.785,2.926-0.794C5.959,7.501,5.979,7.5,6,7.5
		c0.013,0,0.041,0.002,0.061,0.004c2.122,0.024,4.092,1.177,5.145,3.011c0.1,0.174,0.126,0.376,0.074,0.569
		s-0.177,0.355-0.351,0.454c-0.113,0.065-0.242,0.1-0.373,0.1c0,0,0,0,0,0c-0.268,0-0.517-0.144-0.651-0.377
		c-0.672-1.171-1.832-1.97-3.155-2.194v5.183C6.75,14.664,6.414,15,6,15s-0.75-0.336-0.75-0.75V9.069
		c-0.528,0.087-1.027,0.264-1.49,0.53c-1.393,0.8-2.259,2.295-2.26,3.902V15H3c0.387,0,0.708,0.29,0.746,0.675L4.429,22.5h3.143
		l0.255-2.558c0.038-0.379,0.364-0.676,0.742-0.676c0.028,0,0.057,0.002,0.086,0.005c0.193,0.019,0.372,0.115,0.499,0.271
		c0.127,0.155,0.186,0.35,0.166,0.549l-0.323,3.233C8.958,23.71,8.637,24,8.25,24H3.75z"/>
</g>
</svg>
