<?xml version="1.0" encoding="utf-8"?>
<!-- Generator: Adobe Illustrator 22.1.0, SVG Export Plug-In . SVG Version: 6.00 Build 0)  -->
<svg version="1.1" id="Regular" xmlns="http://www.w3.org/2000/svg" xmlns:xlink="http://www.w3.org/1999/xlink" x="0px" y="0px"
	 viewBox="0 0 24 24" style="enable-background:new 0 0 24 24;" xml:space="preserve">
<title>single-man-actions-image</title>
<g>
	<circle cx="15.375" cy="14.625" r="1.125"/>
	<path d="M12.75,24c-1.241,0-2.25-1.01-2.25-2.25v-9c0-1.241,1.009-2.25,2.25-2.25h9c1.241,0,2.25,1.009,2.25,2.25v9
		c0,1.241-1.009,2.25-2.25,2.25H12.75z M21.75,22.5c0.414,0,0.75-0.336,0.75-0.75v-0.523l-2.266-3.398l-2,2.853
		c-0.118,0.169-0.303,0.282-0.508,0.312c-0.034,0.005-0.071,0.008-0.108,0.008c-0.168,0-0.334-0.058-0.466-0.165l-1.238-0.989
		L14.15,22.5H21.75z M12.75,12C12.336,12,12,12.336,12,12.75v9c0,0.286,0.161,0.538,0.406,0.664l2.261-3.398
		c0.026-0.039,0.053-0.076,0.082-0.111c0.283-0.353,0.709-0.556,1.167-0.556c0.34,0,0.673,0.117,0.937,0.329l0.613,0.49l1.542-2.197
		c0.105-0.152,0.239-0.283,0.396-0.388c0.249-0.166,0.536-0.252,0.831-0.252c0.099,0,0.198,0.01,0.296,0.03
		c0.393,0.079,0.731,0.306,0.953,0.639l1.018,1.526V12.75c0-0.414-0.336-0.75-0.75-0.75H12.75z"/>
	<path d="M6,7.5c-2.068,0-3.75-1.682-3.75-3.75S3.932,0,6,0s3.75,1.682,3.75,3.75S8.068,7.5,6,7.5z M6,1.5
		c-1.241,0-2.25,1.009-2.25,2.25S4.759,6,6,6s2.25-1.009,2.25-2.25S7.241,1.5,6,1.5z"/>
	<path d="M3.75,24c-0.387,0-0.708-0.29-0.746-0.675L2.321,16.5H0.75C0.336,16.5,0,16.164,0,15.75V13.5
		c0-1.602,0.656-3.164,1.801-4.285C2.926,8.112,4.411,7.504,5.985,7.5c0.005,0,0.075,0,0.075,0c1.604,0.016,3.104,0.656,4.226,1.801
		c0.14,0.143,0.216,0.332,0.214,0.533c-0.002,0.2-0.082,0.388-0.225,0.528c-0.141,0.138-0.327,0.214-0.525,0.214c0,0,0,0,0,0
		c-0.203,0-0.394-0.08-0.536-0.225C8.548,9.671,7.685,9.224,6.75,9.068v5.182C6.75,14.664,6.414,15,6,15s-0.75-0.336-0.75-0.75
		V9.062C4.344,9.21,3.521,9.629,2.851,10.286C1.992,11.127,1.5,12.298,1.5,13.5V15H3c0.387,0,0.708,0.29,0.746,0.675L4.429,22.5
		h3.143l0.255-2.558c0.038-0.379,0.364-0.676,0.742-0.676c0.028,0,0.057,0.002,0.086,0.005c0.193,0.019,0.373,0.115,0.5,0.271
		c0.127,0.155,0.186,0.35,0.166,0.549l-0.323,3.233C8.958,23.71,8.637,24,8.25,24H3.75z"/>
</g>
</svg>
