<?xml version="1.0" encoding="utf-8"?>
<!-- Generator: Adobe Illustrator 22.1.0, SVG Export Plug-In . SVG Version: 6.00 Build 0)  -->
<svg version="1.1" id="Regular" xmlns="http://www.w3.org/2000/svg" xmlns:xlink="http://www.w3.org/1999/xlink" x="0px" y="0px"
	 viewBox="0 0 24 24" style="enable-background:new 0 0 24 24;" xml:space="preserve">
<title>single-man-actions-video</title>
<g>
	<path d="M12.75,24c-1.241,0-2.25-1.009-2.25-2.25v-6c0-1.241,1.009-2.25,2.25-2.25h6c1.227,0,2.228,0.988,2.25,2.209l2.013-0.671
		C23.09,15.013,23.17,15,23.25,15c0.158,0,0.31,0.049,0.438,0.142C23.884,15.282,24,15.51,24,15.75v6
		c0,0.24-0.116,0.468-0.312,0.608c-0.129,0.093-0.281,0.142-0.438,0.142l0,0c-0.081,0-0.16-0.013-0.237-0.038L21,21.791
		C20.978,23.012,19.977,24,18.75,24H12.75z M12.75,15C12.336,15,12,15.336,12,15.75v6c0,0.414,0.336,0.75,0.75,0.75h6
		c0.414,0,0.75-0.336,0.75-0.75v-1c0-0.24,0.116-0.468,0.312-0.608C19.94,20.049,20.092,20,20.25,20
		c0.081,0,0.161,0.013,0.238,0.039l2.012,0.671v-3.919l-2.013,0.671c-0.076,0.026-0.156,0.039-0.237,0.039
		c-0.158,0-0.31-0.049-0.438-0.142C19.616,17.218,19.5,16.99,19.5,16.75v-1c0-0.414-0.336-0.75-0.75-0.75H12.75z"/>
	<path d="M6,7.5c-2.068,0-3.75-1.682-3.75-3.75S3.932,0,6,0s3.75,1.682,3.75,3.75S8.068,7.5,6,7.5z M6,1.5
		c-1.241,0-2.25,1.009-2.25,2.25S4.759,6,6,6s2.25-1.009,2.25-2.25S7.241,1.5,6,1.5z"/>
	<path d="M3.75,24c-0.387,0-0.708-0.29-0.746-0.675L2.321,16.5H0.75C0.336,16.5,0,16.164,0,15.75V13.5
		c0.001-2.142,1.156-4.136,3.014-5.202c0.889-0.511,1.9-0.785,2.926-0.794C5.959,7.501,5.979,7.5,6,7.5
		c0.013,0,0.041,0.002,0.061,0.004c2.122,0.024,4.092,1.177,5.145,3.011c0.1,0.174,0.126,0.376,0.074,0.569
		s-0.177,0.355-0.351,0.454c-0.113,0.065-0.242,0.1-0.373,0.1c0,0,0,0,0,0c-0.268,0-0.517-0.144-0.651-0.377
		c-0.672-1.171-1.832-1.97-3.155-2.194v5.183C6.75,14.664,6.414,15,6,15s-0.75-0.336-0.75-0.75V9.069
		c-0.528,0.087-1.027,0.264-1.49,0.53c-1.393,0.8-2.259,2.295-2.26,3.902V15H3c0.387,0,0.708,0.29,0.746,0.675L4.429,22.5h3.143
		l0.255-2.558c0.038-0.379,0.364-0.676,0.742-0.676c0.028,0,0.057,0.002,0.086,0.005c0.193,0.019,0.372,0.115,0.499,0.271
		c0.127,0.155,0.186,0.35,0.166,0.549l-0.323,3.233C8.958,23.71,8.637,24,8.25,24H3.75z"/>
</g>
</svg>
