<?xml version="1.0" encoding="utf-8"?>
<!-- Generator: Adobe Illustrator 22.1.0, SVG Export Plug-In . SVG Version: 6.00 Build 0)  -->
<svg version="1.1" id="Regular" xmlns="http://www.w3.org/2000/svg" xmlns:xlink="http://www.w3.org/1999/xlink" x="0px" y="0px"
	 viewBox="0 0 24 24" style="enable-background:new 0 0 24 24;" xml:space="preserve">
<title>single-man-actions-chat</title>
<g>
	<path d="M14.25,24c-0.124,0-0.246-0.031-0.354-0.089c-0.244-0.13-0.396-0.384-0.396-0.661V21h-0.75c-1.241,0-2.25-1.009-2.25-2.25
		v-6c0-1.241,1.009-2.25,2.25-2.25h9c1.241,0,2.25,1.009,2.25,2.25v6c0,1.241-1.009,2.25-2.25,2.25h-2.773l-4.311,2.874
		C14.542,23.957,14.398,24,14.25,24z M12.75,12C12.336,12,12,12.336,12,12.75v6c0,0.414,0.336,0.75,0.75,0.75h1.5
		c0.414,0,0.75,0.336,0.75,0.75v1.599l3.334-2.223c0.124-0.083,0.268-0.126,0.416-0.126h3c0.414,0,0.75-0.336,0.75-0.75v-6
		c0-0.414-0.336-0.75-0.75-0.75H12.75z"/>
	<path d="M14.25,15c-0.414,0-0.75-0.336-0.75-0.75s0.336-0.75,0.75-0.75h6c0.414,0,0.75,0.336,0.75,0.75S20.664,15,20.25,15H14.25z"
		/>
	<path d="M14.25,18c-0.414,0-0.75-0.336-0.75-0.75s0.336-0.75,0.75-0.75h6c0.414,0,0.75,0.336,0.75,0.75S20.664,18,20.25,18H14.25z"
		/>
	<path d="M6,7.5c-2.068,0-3.75-1.682-3.75-3.75S3.932,0,6,0s3.75,1.682,3.75,3.75S8.068,7.5,6,7.5z M6,1.5
		c-1.241,0-2.25,1.009-2.25,2.25S4.759,6,6,6s2.25-1.009,2.25-2.25S7.241,1.5,6,1.5z"/>
	<path d="M3.75,24c-0.387,0-0.708-0.29-0.746-0.675L2.321,16.5H0.75C0.336,16.5,0,16.164,0,15.75V13.5
		c0-1.282,0.401-2.507,1.158-3.542c1.109-1.516,2.827-2.406,4.718-2.447C5.918,7.504,5.959,7.5,6,7.5
		c0.038,0,0.076,0.003,0.115,0.009c1.245,0.022,2.43,0.419,3.428,1.15c0.334,0.244,0.407,0.714,0.162,1.048
		C9.564,9.899,9.338,10.014,9.1,10.014c0,0,0,0,0,0c-0.16,0-0.313-0.05-0.443-0.145C8.094,9.457,7.441,9.184,6.75,9.07v5.18
		C6.75,14.664,6.414,15,6,15s-0.75-0.336-0.75-0.75V9.07c-1.154,0.194-2.189,0.827-2.882,1.774C1.8,11.62,1.5,12.538,1.5,13.5V15H3
		c0.387,0,0.708,0.29,0.746,0.675L4.429,22.5h3.142l0.192-1.919c0.038-0.385,0.357-0.676,0.74-0.676
		c0.029,0,0.058,0.002,0.088,0.005c0.192,0.019,0.371,0.115,0.498,0.271c0.127,0.155,0.186,0.35,0.166,0.549l-0.259,2.594
		C8.958,23.71,8.637,24,8.25,24H3.75z"/>
</g>
</svg>
