<?xml version="1.0" encoding="utf-8"?>
<!-- Generator: Adobe Illustrator 22.1.0, SVG Export Plug-In . SVG Version: 6.00 Build 0)  -->
<svg version="1.1" id="Regular" xmlns="http://www.w3.org/2000/svg" xmlns:xlink="http://www.w3.org/1999/xlink" x="0px" y="0px"
	 viewBox="0 0 24 24" style="enable-background:new 0 0 24 24;" xml:space="preserve">
<title>single-man-actions-flash</title>
<g>
	<path d="M17.249,24c-0.089,0-0.177-0.016-0.261-0.047c-0.292-0.108-0.489-0.391-0.489-0.703V18h-1.875
		c-0.268,0-0.527-0.095-0.73-0.269c-0.472-0.401-0.529-1.113-0.127-1.585l5.914-6.885C19.823,9.095,20.03,9,20.249,9
		c0.089,0,0.176,0.016,0.26,0.046c0.294,0.109,0.49,0.392,0.49,0.704V15h1.875c0.268,0.001,0.527,0.096,0.729,0.269
		c0.472,0.402,0.529,1.113,0.127,1.585l-5.912,6.885C17.676,23.905,17.468,24,17.249,24z M17.249,16.5c0.414,0,0.75,0.336,0.75,0.75
		v3.976l4.059-4.727L20.25,16.5c-0.414,0-0.75-0.336-0.75-0.75v-3.976l-4.06,4.727L17.249,16.5z"/>
	<path d="M5.999,7.5c-2.068,0-3.75-1.682-3.75-3.75S3.932,0,5.999,0s3.75,1.682,3.75,3.75S8.067,7.5,5.999,7.5z M5.999,1.5
		c-1.241,0-2.25,1.009-2.25,2.25S4.759,6,5.999,6s2.25-1.009,2.25-2.25S7.24,1.5,5.999,1.5z"/>
	<path d="M3.749,24c-0.387,0-0.708-0.29-0.746-0.675L2.321,16.5H0.749c-0.414,0-0.75-0.336-0.75-0.75V13.5c0-3.308,2.692-6,6-6
		s6,2.692,6,6v2.25c0,0.414-0.336,0.75-0.75,0.75H9.678l-0.682,6.825C8.957,23.71,8.636,24,8.249,24H3.749z M7.571,22.5l0.682-6.825
		C8.292,15.29,8.612,15,8.999,15h1.5v-1.5c0-2.198-1.617-4.072-3.75-4.433v5.183c0,0.414-0.336,0.75-0.75,0.75
		s-0.75-0.336-0.75-0.75V9.067c-2.133,0.361-3.75,2.234-3.75,4.433V15h1.5c0.387,0,0.708,0.29,0.746,0.675L4.428,22.5H7.571z"/>
</g>
</svg>
