<?xml version="1.0" encoding="utf-8"?>
<!-- Generator: Adobe Illustrator 22.1.0, SVG Export Plug-In . SVG Version: 6.00 Build 0)  -->
<svg version="1.1" id="Regular" xmlns="http://www.w3.org/2000/svg" xmlns:xlink="http://www.w3.org/1999/xlink" x="0px" y="0px"
	 viewBox="0 0 24 24" style="enable-background:new 0 0 24 24;" xml:space="preserve">
<title>single-man-actions-graduate</title>
<g>
	<path d="M16.5,24.005c-0.192,0-0.38-0.037-0.559-0.109l-2.998-1.199c-0.576-0.231-0.946-0.78-0.943-1.4V18.71l-1.5-0.549v2.677
		c0,0.414-0.336,0.75-0.75,0.75S9,21.251,9,20.838v-3.771c0-0.364,0.268-0.675,0.621-0.737l6.593-2.715
		c0.092-0.038,0.188-0.056,0.286-0.056s0.194,0.019,0.285,0.056l6.751,2.779c0.288,0.118,0.47,0.396,0.464,0.708
		c-0.007,0.312-0.2,0.583-0.493,0.69L21,18.71v2.591c0.003,0.617-0.367,1.165-0.942,1.396l-3.001,1.2
		C16.88,23.969,16.692,24.005,16.5,24.005z M13.5,21.301l3,1.204l3.001-1.2l0-2.045l-2.742,1.004
		c-0.082,0.03-0.169,0.046-0.258,0.046s-0.176-0.016-0.259-0.046L13.5,19.259V21.301z M16.5,18.76l4.68-1.713L16.5,15.12
		l-4.68,1.927L16.5,18.76z"/>
	<path d="M6,7.501c-2.068,0-3.75-1.682-3.75-3.75S3.932,0.001,6,0.001s3.75,1.682,3.75,3.75S8.068,7.501,6,7.501z M6,1.501
		c-1.241,0-2.25,1.009-2.25,2.25S4.76,6.001,6,6.001s2.25-1.009,2.25-2.25S7.241,1.501,6,1.501z"/>
	<path d="M3.75,24.001c-0.387,0-0.708-0.29-0.746-0.675l-0.682-6.825H0.75c-0.414,0-0.75-0.336-0.75-0.75v-2.25c0-3.308,2.692-6,6-6
		s6,2.692,6,6c0,0.414-0.336,0.75-0.75,0.75s-0.75-0.336-0.75-0.75c0-2.198-1.617-4.072-3.75-4.433v5.183
		c0,0.414-0.336,0.75-0.75,0.75s-0.75-0.336-0.75-0.75V9.068C3.117,9.429,1.5,11.303,1.5,13.501v1.5H3
		c0.387,0,0.708,0.29,0.746,0.675l0.682,6.825H8.25c0.414,0,0.75,0.336,0.75,0.75s-0.336,0.75-0.75,0.75H3.75z"/>
</g>
</svg>
