<?xml version="1.0" encoding="utf-8"?>
<!-- Generator: Adobe Illustrator 22.1.0, SVG Export Plug-In . SVG Version: 6.00 Build 0)  -->
<svg version="1.1" id="Regular" xmlns="http://www.w3.org/2000/svg" xmlns:xlink="http://www.w3.org/1999/xlink" x="0px" y="0px"
	 viewBox="0 0 24 24" style="enable-background:new 0 0 24 24;" xml:space="preserve">
<title>single-man-actions-star</title>
<g>
	<path d="M6,7.5c-2.068,0-3.75-1.682-3.75-3.75S3.932,0,6,0s3.75,1.682,3.75,3.75S8.068,7.5,6,7.5z M6,1.5
		c-1.241,0-2.25,1.009-2.25,2.25S4.759,6,6,6s2.25-1.009,2.25-2.25S7.241,1.5,6,1.5z"/>
	<path d="M3.75,24c-0.387,0-0.708-0.29-0.746-0.675L2.321,16.5H0.75C0.336,16.5,0,16.164,0,15.75V13.5
		c0.001-2.301,1.344-4.427,3.421-5.416c0.782-0.372,1.622-0.567,2.497-0.578C5.945,7.502,5.972,7.5,6,7.5
		c0.027,0,0.053,0.002,0.079,0.005c0.667,0.009,1.316,0.124,1.929,0.342c1.511,0.536,2.722,1.628,3.411,3.076
		c0.178,0.373,0.019,0.822-0.355,1c-0.101,0.048-0.21,0.073-0.322,0.073c-0.288,0-0.553-0.168-0.677-0.427
		c-0.517-1.086-1.425-1.905-2.558-2.307C7.265,9.175,7.011,9.11,6.75,9.067v5.183C6.75,14.664,6.414,15,6,15s-0.75-0.336-0.75-0.75
		V9.066C4.838,9.135,4.441,9.26,4.066,9.439C2.508,10.18,1.501,11.775,1.5,13.5V15H3c0.387,0,0.708,0.29,0.746,0.675L4.429,22.5
		h3.142l0.453-4.541c0.038-0.385,0.357-0.676,0.741-0.676c0.029,0,0.057,0.002,0.086,0.005c0.193,0.019,0.373,0.115,0.5,0.271
		c0.127,0.155,0.186,0.35,0.166,0.549l-0.521,5.216C8.958,23.71,8.637,24,8.25,24H3.75z"/>
	<path d="M13.365,23.998c-0.547,0-1.057-0.293-1.331-0.766c-0.239-0.412-0.273-0.921-0.089-1.361l1.242-2.853l-2.233-2.201
		c-0.269-0.236-0.445-0.604-0.468-0.994c-0.024-0.396,0.108-0.777,0.371-1.073c0.282-0.318,0.681-0.5,1.095-0.5
		c0.021,0,0.043,0,0.064,0.001l2.494-0.001l1.342-2.889c0.284-0.536,0.814-0.858,1.392-0.858c0.251,0,0.501,0.063,0.723,0.181
		c0.275,0.146,0.498,0.37,0.643,0.646c0.002,0.004,0.013,0.025,0.015,0.03l1.342,2.89l2.552,0c0.8,0,1.451,0.627,1.482,1.427
		c0.018,0.445-0.163,0.87-0.496,1.167l-2.206,2.175l1.238,2.842c0.329,0.791-0.042,1.695-0.824,2.019
		c-0.186,0.078-0.384,0.117-0.588,0.117c0,0,0,0,0,0c-0.271,0-0.537-0.071-0.769-0.205l-3.112-1.75l-3.118,1.755
		C13.897,23.927,13.633,23.998,13.365,23.998L13.365,23.998z M13.325,22.458c0.001,0,0.001,0.012,0.007,0.021
		c0.01,0.017,0.027,0.018,0.032,0.018l3.512-1.971c0.113-0.063,0.24-0.096,0.368-0.096s0.255,0.033,0.367,0.096l3.488,1.961
		l0.026,0.009c0.031-0.01,0.04-0.032,0.032-0.05l-1.438-3.302c-0.123-0.282-0.059-0.617,0.161-0.834l2.599-2.561l-2.991,0.001
		c-0.291,0-0.558-0.17-0.68-0.434l-1.529-3.293c-0.004-0.006-0.01-0.01-0.017-0.014c-0.009-0.001-0.017-0.002-0.023-0.002
		c-0.023,0-0.036,0.008-0.044,0.023l-1.526,3.286c-0.123,0.264-0.39,0.434-0.68,0.434h-2.981l2.599,2.561
		c0.22,0.216,0.284,0.551,0.161,0.834L13.325,22.458C13.325,22.458,13.325,22.458,13.325,22.458z M11.97,15.75c0,0,0.003,0,0.004,0
		C11.971,15.75,11.97,15.75,11.97,15.75z"/>
</g>
</svg>
