<svg xmlns="http://www.w3.org/2000/svg" viewBox="0 0 24 24"><defs><style>.a{fill:none;stroke:currentColor;stroke-linecap:round;stroke-linejoin:round;}</style></defs><title>module-hands-puzzle</title><path class="a" d="M3.5,23.5,1.486,20.983A4.5,4.5,0,0,1,.5,18.171V13A1.5,1.5,0,0,1,2,11.5H2A1.5,1.5,0,0,1,3.5,13v3.75"/><path class="a" d="M8,23.5V20.364a4.493,4.493,0,0,0-.757-2.5L6.1,16.154a1.4,1.4,0,0,0-1.977-.445h0A1.4,1.4,0,0,0,3.648,17.5L5,19.75"/><path class="a" d="M20.5,23.5l2.014-2.517a4.5,4.5,0,0,0,.986-2.812V13A1.5,1.5,0,0,0,22,11.5h0A1.5,1.5,0,0,0,20.5,13v3.75"/><path class="a" d="M16,23.5V20.364a4.493,4.493,0,0,1,.757-2.5L17.9,16.154a1.4,1.4,0,0,1,1.977-.445h0a1.4,1.4,0,0,1,.476,1.791L19,19.75"/><path class="a" d="M13.55,11.4a2,2,0,1,1,3.277-2.145.5.5,0,0,0,.819.171l1.561-1.561a1,1,0,0,0,0-1.414l-1.6-1.6A2,2,0,1,0,15.154,2.4l-1.6-1.6a1,1,0,0,0-1.414,0L10.687,2.242a.5.5,0,0,0,.077.771A2,2,0,1,1,8.247,6.1a1.953,1.953,0,0,1-.254-.311.5.5,0,0,0-.772-.078L5.772,7.157a1,1,0,0,0,0,1.414l5.657,5.657a1,1,0,0,0,1.414,0l1.562-1.562a.5.5,0,0,0-.171-.819A1.973,1.973,0,0,1,13.55,11.4Z"/></svg>