<svg xmlns="http://www.w3.org/2000/svg" viewBox="0 0 24 24"><defs><style>.a{fill:none;stroke:currentColor;stroke-linecap:round;stroke-linejoin:round;}</style></defs><title>module-phone-puzzle</title><path class="a" d="M7.5,21.229h0a.25.25,0,0,1,.25.25h0a.25.25,0,0,1-.25.25h0a.25.25,0,0,1-.25-.25h0a.25.25,0,0,1,.25-.25"/><path class="a" d="M11,23.479H3a2,2,0,0,1-2-2V2.5a2,2,0,0,1,2-2h9a2,2,0,0,1,2,2V8.479"/><line class="a" x1="8" y1="19.479" x2="1" y2="19.479"/><line class="a" x1="14" y1="4.479" x2="1" y2="4.479"/><line class="a" x1="6" y1="2.479" x2="9" y2="2.479"/><path class="a" d="M17.05,20.379a2,2,0,1,1,3.277-2.145.5.5,0,0,0,.819.171l1.561-1.562a1,1,0,0,0,0-1.414l-1.6-1.6a2,2,0,1,0-2.449-2.449l-1.6-1.6a1,1,0,0,0-1.414,0l-1.449,1.449a.5.5,0,0,0,.077.772,1.953,1.953,0,0,1,.311.254,2,2,0,0,1-2.828,2.828,1.953,1.953,0,0,1-.254-.311.5.5,0,0,0-.772-.077L9.272,16.136a1,1,0,0,0,0,1.414l5.657,5.657a1,1,0,0,0,1.414,0l1.562-1.561a.5.5,0,0,0-.171-.82A1.985,1.985,0,0,1,17.05,20.379Z"/></svg>