<svg xmlns="http://www.w3.org/2000/svg" viewBox="0 0 24 24"><defs><style>.a{fill:none;stroke:currentColor;stroke-linecap:round;stroke-linejoin:round;}</style></defs><title>module-three-1</title><path class="a" d="M16.966,4.787a1.1,1.1,0,0,1,.534.944V10.37L12,13.908,6.5,10.37V5.731a1.1,1.1,0,0,1,.534-.944l4.4-2.64a1.1,1.1,0,0,1,1.132,0Z"/><line class="a" x1="12" y1="8.408" x2="12" y2="13.908"/><path class="a" d="M17.5,17.208l-5.5-3.3,5.5-3.538,5,3.213a1.1,1.1,0,0,1,.5.925V18.57a1.1,1.1,0,0,1-.5.925l-4.4,2.83a1.1,1.1,0,0,1-1.19,0L12,19.17V13.908"/><line class="a" x1="17.5" y1="17.208" x2="17.5" y2="22.5"/><path class="a" d="M12,13.908V19.17L7.1,22.325a1.1,1.1,0,0,1-1.19,0l-4.4-2.83A1.1,1.1,0,0,1,1,18.57V14.508a1.1,1.1,0,0,1,.5-.925l5-3.213L12,13.908l-5.5,3.3"/><line class="a" x1="6.5" y1="17.208" x2="1.131" y2="13.987"/><line class="a" x1="6.5" y1="17.208" x2="6.5" y2="22.5"/><line class="a" x1="12" y1="8.408" x2="6.641" y2="5.192"/><line class="a" x1="17.359" y1="5.192" x2="12" y2="8.408"/><line class="a" x1="22.869" y1="13.987" x2="17.5" y2="17.208"/></svg>