<svg xmlns="http://www.w3.org/2000/svg" viewBox="0 0 24 24"><defs><style>.a{fill:none;stroke:currentColor;stroke-linecap:round;stroke-linejoin:round;}</style></defs><title>module-three-2</title><path class="a" d="M18,2.781a1,1,0,0,0-.713-.958l-4-1.2a1,1,0,0,0-.575,0l-4,1.2A1,1,0,0,0,8,2.781V7.86a1,1,0,0,0,.629.928l4,1.6a1,1,0,0,0,.743,0l4-1.6A1,1,0,0,0,18,7.86V2.781Z"/><polyline class="a" points="17.745 2.114 13 3.537 8.255 2.114"/><line class="a" x1="13" y1="3.5" x2="13" y2="10.5"/><path class="a" d="M23,12.884a.5.5,0,0,0-.324-.468l-3.5-1.312a.5.5,0,0,0-.351,0l-3.5,1.312a.5.5,0,0,0-.324.468v3.844a.5.5,0,0,0,.276.447l3.5,1.75a.5.5,0,0,0,.447,0l3.5-1.75A.5.5,0,0,0,23,16.728V12.884Z"/><polyline class="a" points="22.894 12.577 19 14.037 15.107 12.577"/><line class="a" x1="19" y1="14" x2="19" y2="19"/><path class="a" d="M13,14.258a1,1,0,0,0-.684-.949l-5-1.667a1,1,0,0,0-.632,0l-5,1.667A1,1,0,0,0,1,14.258v6.559a1,1,0,0,0,.684.949l5,1.667a1,1,0,0,0,.632,0l5-1.667A1,1,0,0,0,13,20.817Z"/><polyline class="a" points="12.766 13.615 7 15.537 1.234 13.615"/><line class="a" x1="7" y1="15.5" x2="7" y2="23.5"/></svg>