<?xml version="1.0" encoding="utf-8"?>
<!-- Generator: Adobe Illustrator 22.1.0, SVG Export Plug-In . SVG Version: 6.00 Build 0)  -->
<svg version="1.1" id="Layer_1" xmlns="http://www.w3.org/2000/svg" xmlns:xlink="http://www.w3.org/1999/xlink" x="0px" y="0px"
	 viewBox="0 0 24 24" style="enable-background:new 0 0 24 24;" xml:space="preserve">
<title>view-square</title>
<g>
	<path d="M2.25,24C1.009,24,0,22.991,0,21.75V2.25C0,1.009,1.009,0,2.25,0h19.5C22.991,0,24,1.009,24,2.25v19.5
		c0,1.241-1.009,2.25-2.25,2.25H2.25z M2.25,1.5C1.836,1.5,1.5,1.836,1.5,2.25v19.5c0,0.414,0.336,0.75,0.75,0.75h19.5
		c0.414,0,0.75-0.336,0.75-0.75V2.25c0-0.414-0.336-0.75-0.75-0.75H2.25z"/>
	<path d="M12,18c-2.739,0-5.442-1.375-8.264-4.204c-0.983-1.012-0.985-2.59-0.007-3.597C6.557,7.364,9.26,5.989,12,5.989
		c2.736,0,5.44,1.375,8.266,4.204c0.984,1.012,0.985,2.59,0.007,3.597C17.444,16.624,14.739,18,12,18z M12,7.489
		c-2.32,0-4.676,1.23-7.2,3.761c-0.403,0.416-0.403,1.074,0.005,1.494C7.325,15.27,9.68,16.5,12,16.5
		c2.321,0,4.677-1.231,7.204-3.763c0.403-0.415,0.401-1.071-0.007-1.492C16.673,8.719,14.318,7.489,12,7.489z"/>
	<path d="M12,14.991c-1.654,0-3-1.346-3-3c0-1.654,1.346-3,3-3c1.654,0,3,1.346,3,3C15,13.645,13.654,14.991,12,14.991z M12,10.491
		c-0.827,0-1.5,0.673-1.5,1.5s0.673,1.5,1.5,1.5s1.5-0.673,1.5-1.5S12.827,10.491,12,10.491z"/>
</g>
</svg>
