<?xml version="1.0" encoding="utf-8"?>
<!-- Generator: Adobe Illustrator 22.1.0, SVG Export Plug-In . SVG Version: 6.00 Build 0)  -->
<svg version="1.1" id="Layer_1" xmlns="http://www.w3.org/2000/svg" xmlns:xlink="http://www.w3.org/1999/xlink" x="0px" y="0px"
	 viewBox="0 0 24 24" style="enable-background:new 0 0 24 24;" xml:space="preserve">
<title>modern-tv-3d-glasses</title>
<g>
	<path d="M5.25,18.001c-2.895,0-5.25-2.355-5.25-5.25v-3c0-0.444,0.13-0.874,0.375-1.243l3.02-5.335
		C4.241,1.245,6.144,0.001,8.25,0.001C8.664,0.001,9,0.337,9,0.751s-0.336,0.75-0.75,0.75c-1.522,0-2.893,0.904-3.493,2.303
		c-0.01,0.025-0.023,0.05-0.037,0.075L2.669,7.501h18.662l-2.052-3.623c-0.014-0.026-0.025-0.047-0.034-0.069
		c-0.602-1.404-1.973-2.308-3.495-2.308c-0.414,0-0.75-0.336-0.75-0.75s0.336-0.75,0.75-0.75c2.106,0,4.009,1.245,4.854,3.172
		l3.022,5.338C23.871,8.879,24,9.308,24,9.751v3c0.001,0.783-0.178,1.572-0.519,2.279c-0.125,0.258-0.39,0.424-0.677,0.424
		c0,0,0,0,0,0c-0.113,0-0.221-0.025-0.323-0.073c-0.374-0.18-0.531-0.63-0.351-1.002c0.244-0.505,0.372-1.067,0.371-1.626V9.751
		c0-0.122-0.032-0.242-0.096-0.357c-0.005-0.008-0.047-0.082-0.047-0.082c-0.142-0.195-0.367-0.311-0.606-0.311H2.25
		c-0.239,0-0.465,0.116-0.607,0.312L1.611,9.37C1.606,9.378,1.601,9.386,1.596,9.394C1.532,9.509,1.5,9.629,1.5,9.751v3
		c0,2.068,1.682,3.75,3.75,3.75h3.129c0.165,0,0.329-0.057,0.46-0.158l1.175-2.206c0.211-0.396,0.532-0.718,0.929-0.928
		c0.324-0.172,0.689-0.263,1.054-0.263c0.835,0,1.598,0.457,1.989,1.192l0.133,0.248c0.195,0.365,0.058,0.82-0.307,1.015
		c-0.108,0.058-0.231,0.089-0.354,0.089c-0.277,0-0.53-0.152-0.661-0.396l-0.134-0.25c-0.131-0.247-0.385-0.399-0.665-0.399
		c-0.123,0-0.241,0.03-0.351,0.088c-0.132,0.071-0.239,0.177-0.31,0.309l-1.237,2.323c-0.035,0.065-0.079,0.126-0.132,0.178
		c-0.424,0.424-0.989,0.658-1.59,0.658H5.25z"/>
	<path d="M15.7,24.001c-1.008,0-1.899-0.678-2.168-1.65c-0.054-0.193-0.029-0.396,0.07-0.57s0.26-0.3,0.452-0.353
		c0.065-0.018,0.132-0.028,0.2-0.028c0.336,0,0.633,0.226,0.722,0.55c0.09,0.324,0.387,0.55,0.723,0.55
		c0.201,0,0.389-0.078,0.531-0.22c0.142-0.142,0.22-0.33,0.219-0.53c0-0.414-0.337-0.75-0.75-0.75c-0.414,0-0.75-0.336-0.75-0.75
		c0-0.413,0.336-0.75,0.749-0.75c0.339,0,0.637-0.229,0.724-0.556c0.052-0.193,0.025-0.395-0.075-0.569
		c-0.1-0.174-0.262-0.298-0.455-0.35C15.829,18.009,15.763,18,15.698,18c-0.338,0-0.635,0.229-0.723,0.556
		c-0.087,0.327-0.385,0.556-0.725,0.556c-0.064,0-0.129-0.008-0.192-0.025c-0.401-0.108-0.639-0.52-0.532-0.919
		c0.263-0.982,1.157-1.668,2.174-1.668c0.196,0,0.391,0.026,0.581,0.077c1.198,0.321,1.913,1.557,1.592,2.756
		c-0.091,0.341-0.263,0.656-0.497,0.917c0.365,0.409,0.575,0.945,0.575,1.5c0,0.601-0.233,1.166-0.658,1.591
		c-0.425,0.425-0.99,0.659-1.591,0.66H15.7z"/>
	<path d="M20.48,24.014c-0.117,0-0.237-0.006-0.354-0.017c-0.386-0.038-0.677-0.359-0.677-0.747v-6c0-0.387,0.291-0.708,0.677-0.747
		c0.118-0.011,0.238-0.018,0.355-0.018c1.757,0,3.246,1.321,3.462,3.073c0.004,0.029,0.006,0.06,0.006,0.092v1.2
		c0,0.031-0.002,0.063-0.006,0.094C23.728,22.694,22.239,24.014,20.48,24.014z M20.95,22.458c0.778-0.189,1.381-0.835,1.5-1.657
		v-1.1c-0.119-0.822-0.722-1.469-1.5-1.657V22.458z"/>
</g>
</svg>
