<?xml version="1.0" encoding="utf-8"?>
<!-- Generator: Adobe Illustrator 22.1.0, SVG Export Plug-In . SVG Version: 6.00 Build 0)  -->
<svg version="1.1" id="Layer_1" xmlns="http://www.w3.org/2000/svg" xmlns:xlink="http://www.w3.org/1999/xlink" x="0px" y="0px"
	 viewBox="0 0 24 24" style="enable-background:new 0 0 24 24;" xml:space="preserve">
<title>modern-tv-remote</title>
<g>
	<path d="M20.25,16.5c-0.414,0-0.75-0.336-0.75-0.75S19.836,15,20.25,15c1.241,0,2.25-1.009,2.25-2.25v-9
		c0-1.241-1.009-2.25-2.25-2.25H3.75C2.509,1.5,1.5,2.509,1.5,3.75v9C1.5,13.991,2.509,15,3.75,15h4.5C8.664,15,9,15.336,9,15.75
		S8.664,16.5,8.25,16.5h-4.5C1.682,16.5,0,14.818,0,12.75v-9C0,1.682,1.682,0,3.75,0h16.5C22.318,0,24,1.682,24,3.75v9
		C24,14.818,22.318,16.5,20.25,16.5z"/>
	<path d="M12.75,24c-1.241,0-2.25-1.009-2.25-2.25v-7.5c0-1.241,1.009-2.25,2.25-2.25h3c1.241,0,2.25,1.009,2.25,2.25v7.5
		c0,1.241-1.009,2.25-2.25,2.25H12.75z M12.75,13.5c-0.414,0-0.75,0.336-0.75,0.75v7.5c0,0.414,0.336,0.75,0.75,0.75h3
		c0.414,0,0.75-0.336,0.75-0.75v-7.5c0-0.414-0.336-0.75-0.75-0.75H12.75z"/>
	<path d="M14.25,17.25c-0.62,0-1.125-0.505-1.125-1.125c0-0.409,0.206-0.771,0.551-0.968c0.252-0.144,0.499-0.159,0.593-0.159
		c0.052,0,0.104,0.005,0.155,0.016c0.543,0.085,0.951,0.56,0.951,1.112C15.375,16.745,14.87,17.25,14.25,17.25z"/>
	<path d="M14.25,21c-0.62,0-1.125-0.505-1.125-1.125c0-0.409,0.206-0.771,0.551-0.968c0.252-0.144,0.499-0.159,0.593-0.159
		c0.052,0,0.104,0.005,0.155,0.016c0.543,0.085,0.951,0.56,0.951,1.112C15.375,20.495,14.87,21,14.25,21z"/>
	<path d="M8.25,7.635c-0.227,0-0.44-0.101-0.583-0.278c-0.26-0.322-0.21-0.795,0.111-1.055c1.814-1.467,4.112-2.275,6.472-2.275
		c2.359,0,4.657,0.808,6.472,2.275c0.322,0.26,0.371,0.734,0.111,1.055c-0.143,0.177-0.355,0.278-0.583,0.278
		c-0.171,0-0.339-0.059-0.472-0.167c-1.549-1.252-3.512-1.942-5.528-1.942c-2.016,0-3.98,0.69-5.528,1.942
		C8.589,7.576,8.421,7.635,8.25,7.635L8.25,7.635z"/>
	<path d="M10.75,10.238c-0.228,0-0.44-0.101-0.583-0.278c-0.26-0.322-0.21-0.795,0.111-1.055c1.114-0.901,2.524-1.396,3.972-1.396
		c1.448,0,2.858,0.496,3.972,1.396c0.156,0.126,0.253,0.305,0.274,0.504c0.021,0.199-0.037,0.395-0.163,0.551
		c-0.143,0.177-0.355,0.278-0.583,0.278c-0.171,0-0.338-0.059-0.471-0.167c-0.848-0.686-1.924-1.064-3.029-1.064
		c-1.104,0-2.18,0.378-3.028,1.064C11.089,10.179,10.921,10.238,10.75,10.238z"/>
</g>
</svg>
