<?xml version="1.0" encoding="utf-8"?>
<!-- Generator: Adobe Illustrator 22.1.0, SVG Export Plug-In . SVG Version: 6.00 Build 0)  -->
<svg version="1.1" id="Layer_1" xmlns="http://www.w3.org/2000/svg" xmlns:xlink="http://www.w3.org/1999/xlink" x="0px" y="0px"
	 viewBox="0 0 24 24" style="enable-background:new 0 0 24 24;" xml:space="preserve">
<title>modern-tv-curvy-edge</title>
<g>
	<path d="M7.5,22.026c-0.414,0-0.75-0.336-0.75-0.75s0.336-0.75,0.75-0.75h3.75v-2.994c-2.926,0.026-5.866,0.206-8.744,0.533
		c-0.086,0.01-0.172,0.015-0.258,0.015c-1.143,0-2.103-0.857-2.234-1.994C0.005,16.002,0,15.916,0,15.83V4.222
		c0-1.241,1.01-2.25,2.25-2.25c0.086,0,0.171,0.005,0.256,0.015C5.641,2.344,8.835,2.525,12,2.525c3.165,0,6.359-0.181,9.494-0.538
		c0.087-0.01,0.174-0.015,0.26-0.015c1.141,0,2.1,0.857,2.231,1.994C23.995,4.05,24,4.136,24,4.222v11.605
		c0.001,0.6-0.232,1.165-0.656,1.591c-0.424,0.426-0.989,0.661-1.59,0.662c-0.086,0-0.171-0.005-0.256-0.014
		c-2.88-0.328-5.821-0.508-8.748-0.534v2.994h3.75c0.414,0,0.75,0.336,0.75,0.75s-0.336,0.75-0.75,0.75H7.5z M2.25,3.473
		c-0.414,0-0.75,0.336-0.75,0.75V15.83c0,0.028,0.001,0.057,0.005,0.084c0.044,0.38,0.365,0.666,0.747,0.666
		c0.028,0,0.057-0.001,0.085-0.005c3.18-0.363,6.422-0.547,9.633-0.548c0.007-0.001,0.025-0.001,0.031-0.001
		c0.008,0,0.017,0,0.026,0.001c3.213,0.001,6.456,0.185,9.64,0.548c0.027,0.003,0.057,0.005,0.086,0.005
		c0.199,0,0.387-0.079,0.529-0.22s0.219-0.331,0.219-0.531V4.222c0-0.028-0.002-0.056-0.005-0.084
		c-0.043-0.38-0.363-0.666-0.743-0.666c-0.029,0-0.058,0.002-0.087,0.005C18.473,3.841,15.221,4.025,12,4.025
		S5.527,3.841,2.336,3.477C2.307,3.474,2.279,3.473,2.25,3.473L2.25,3.473z"/>
</g>
</svg>
