<?xml version="1.0" encoding="utf-8"?>
<!-- Generator: Adobe Illustrator 22.1.0, SVG Export Plug-In . SVG Version: 6.00 Build 0)  -->
<svg version="1.1" id="Layer_1" xmlns="http://www.w3.org/2000/svg" xmlns:xlink="http://www.w3.org/1999/xlink" x="0px" y="0px"
	 viewBox="0 0 24 24" style="enable-background:new 0 0 24 24;" xml:space="preserve">
<title>modern-tv-3d</title>
<g>
	<path d="M13.5,14.25c-0.414,0-0.75-0.336-0.75-0.75V6c0-0.414,0.336-0.75,0.75-0.75H15c2.068,0,3.75,1.682,3.75,3.75v1.5
		c0,2.068-1.682,3.75-3.75,3.75H13.5z M15,12.75c1.241,0,2.25-1.009,2.25-2.25V9c0-1.241-1.009-2.25-2.25-2.25h-0.75v6H15z"/>
	<path d="M7.5,14.25c-1.241,0-2.25-1.009-2.25-2.25c0-0.414,0.336-0.75,0.75-0.75S6.75,11.586,6.75,12s0.336,0.75,0.75,0.75h1.135
		c0.619-0.001,1.122-0.507,1.121-1.127c-0.001-0.617-0.505-1.121-1.122-1.123c-0.004,0-0.008,0-0.012,0
		c-0.414-0.005-0.745-0.34-0.745-0.75c0-0.413,0.336-0.749,0.748-0.75c0,0,0.021,0,0.026,0c0.6-0.002,1.104-0.505,1.105-1.123
		c0.001-0.62-0.502-1.126-1.123-1.127H7.5c-0.414,0-0.75,0.336-0.75,0.75S6.414,8.25,6,8.25S5.25,7.914,5.25,7.5
		c0-1.241,1.009-2.25,2.25-2.25h1.135c0.702,0.001,1.361,0.276,1.856,0.773c0.495,0.497,0.766,1.156,0.765,1.858
		c-0.002,0.711-0.29,1.381-0.789,1.869c0.499,0.488,0.787,1.158,0.789,1.869c0.001,0.701-0.27,1.361-0.765,1.858
		c-0.495,0.497-1.154,0.771-1.854,0.773C8.636,14.25,7.5,14.25,7.5,14.25z"/>
	<path d="M6.75,23.25C6.336,23.25,6,22.914,6,22.5s0.336-0.75,0.75-0.75h2.365l0.5-3H1.75C0.785,18.75,0,17.965,0,17V2.5
		c0-0.965,0.785-1.75,1.75-1.75h20.5C23.215,0.75,24,1.535,24,2.5V17c0,0.965-0.785,1.75-1.75,1.75h-7.865l0.5,3h2.365
		c0.414,0,0.75,0.336,0.75,0.75s-0.336,0.75-0.75,0.75H6.75z M13.365,21.75l-0.5-3h-1.729l-0.5,3H13.365z M1.75,2.25
		C1.612,2.25,1.5,2.362,1.5,2.5V17c0,0.138,0.112,0.25,0.25,0.25h20.5c0.138,0,0.25-0.112,0.25-0.25V2.5
		c0-0.138-0.112-0.25-0.25-0.25H1.75z"/>
</g>
</svg>
