<svg xmlns="http://www.w3.org/2000/svg" viewBox="0 0 24 24"><defs><style>.a{fill:none;stroke:currentColor;stroke-linecap:round;stroke-linejoin:round;}</style></defs><title>camera-tripod</title><line class="a" x1="12" y1="17.5" x2="12" y2="23.5"/><line class="a" x1="6" y1="23.5" x2="12" y2="18"/><line class="a" x1="18" y1="23.5" x2="12" y2="18"/><path class="a" d="M13,12.5V17a.5.5,0,0,1-.5.5h-1A.5.5,0,0,1,11,17V12.5"/><line class="a" x1="9" y1="12.5" x2="15" y2="12.5"/><path class="a" d="M18,9.5a1,1,0,0,1-1,1H7a1,1,0,0,1-1-1v-6a1,1,0,0,1,1-1h4c.281-.562.451-1,1.118-1h2.264c.667,0,.837.438,1.118,1H17a1,1,0,0,1,1,1Z"/><circle class="a" cx="13" cy="6.5" r="2"/><line class="a" x1="7.5" y1="0.5" x2="8.5" y2="0.5"/></svg>