<?xml version="1.0" encoding="utf-8"?>
<!-- Generator: Adobe Illustrator 22.1.0, SVG Export Plug-In . SVG Version: 6.00 Build 0)  -->
<svg version="1.1" id="Layer_1" xmlns="http://www.w3.org/2000/svg" xmlns:xlink="http://www.w3.org/1999/xlink" x="0px" y="0px"
	 viewBox="0 0 24 24" style="enable-background:new 0 0 24 24;" xml:space="preserve">
<title>file-copyright-dollar</title>
<g>
	<path d="M8.25,24C3.701,24,0,20.299,0,15.75c0-2.249,0.939-4.427,2.577-5.982C2.588,9.754,2.599,9.74,2.611,9.729
		C2.63,9.71,2.649,9.695,2.667,9.683C4.187,8.279,6.172,7.5,8.25,7.5c4.549,0,8.25,3.701,8.25,8.25c0,2.074-0.776,4.056-2.185,5.585
		c-0.012,0.018-0.028,0.037-0.047,0.057c-0.01,0.01-0.022,0.021-0.036,0.031C12.677,23.061,10.499,24,8.25,24z M3.15,11.336
		C2.083,12.564,1.5,14.117,1.5,15.75c0,3.722,3.028,6.75,6.75,6.75c1.632,0,3.186-0.583,4.415-1.65l-1.039-1.039
		c-0.142-0.142-0.22-0.33-0.22-0.53s0.078-0.389,0.22-0.53c0.142-0.142,0.33-0.22,0.53-0.22c0.2,0,0.389,0.078,0.53,0.22
		l0.998,0.998C14.535,18.593,15,17.188,15,15.75C15,12.028,11.972,9,8.25,9c-1.439,0-2.843,0.465-3.998,1.316l0.826,0.826
		c0.142,0.141,0.22,0.33,0.22,0.53s-0.078,0.389-0.22,0.53c-0.141,0.142-0.33,0.22-0.53,0.22s-0.389-0.078-0.53-0.22L3.15,11.336z"
		/>
	<path d="M17.25,24c-0.414,0-0.75-0.336-0.75-0.75s0.336-0.75,0.75-0.75h4.5c0.414,0,0.75-0.336,0.75-0.75V9h-5.25
		C16.009,9,15,7.991,15,6.75V1.5H5.25C4.836,1.5,4.5,1.836,4.5,2.25v4.5c0,0.414-0.336,0.75-0.75,0.75S3,7.164,3,6.75v-4.5
		C3,1.009,4.009,0,5.25,0h10.629c0.601,0,1.165,0.234,1.59,0.658l5.872,5.872C23.766,6.955,24,7.52,24,8.121V21.75
		c0,1.241-1.009,2.25-2.25,2.25H17.25z M16.5,6.75c0,0.414,0.336,0.75,0.75,0.75h4.939L16.5,1.811V6.75z"/>
	<path d="M8.25,20.25c-0.414,0-0.75-0.336-0.75-0.75H6.75C6.336,19.5,6,19.164,6,18.75S6.336,18,6.75,18h2.031
		c0.242,0,0.458-0.146,0.548-0.371c0.059-0.147,0.057-0.308-0.005-0.453c-0.062-0.146-0.177-0.258-0.324-0.317l-2.063-0.826
		c-0.797-0.321-1.312-1.082-1.312-1.94c0-0.559,0.217-1.084,0.612-1.48C6.581,12.27,7.023,12.06,7.5,12.011V12
		c0-0.414,0.336-0.75,0.75-0.75S9,11.586,9,12h0.75c0.414,0,0.75,0.336,0.75,0.75s-0.336,0.75-0.75,0.75H7.717
		c-0.158,0-0.306,0.062-0.418,0.174c-0.112,0.112-0.173,0.261-0.173,0.419c0,0.243,0.146,0.458,0.371,0.549l2.063,0.826
		c0.519,0.209,0.926,0.607,1.145,1.121s0.225,1.083,0.016,1.601c-0.293,0.727-0.954,1.22-1.721,1.3V19.5
		C9,19.914,8.664,20.25,8.25,20.25z"/>
</g>
</svg>
