<?xml version="1.0" encoding="utf-8"?>
<!-- Generator: Adobe Illustrator 22.1.0, SVG Export Plug-In . SVG Version: 6.00 Build 0)  -->
<svg version="1.1" id="Layer_1" xmlns="http://www.w3.org/2000/svg" xmlns:xlink="http://www.w3.org/1999/xlink" x="0px" y="0px"
	 viewBox="0 0 24 24" style="enable-background:new 0 0 24 24;" xml:space="preserve">
<title>file-copyright-c-1</title>
<g>
	<path d="M8.25,24C3.701,24,0,20.299,0,15.75c0-2.249,0.939-4.427,2.577-5.982C2.588,9.754,2.599,9.74,2.611,9.729
		C2.63,9.71,2.649,9.695,2.667,9.683C4.187,8.279,6.172,7.5,8.25,7.5c4.549,0,8.25,3.701,8.25,8.25c0,2.074-0.776,4.056-2.185,5.585
		c-0.012,0.018-0.028,0.037-0.047,0.057c-0.01,0.01-0.022,0.021-0.036,0.031C12.677,23.061,10.499,24,8.25,24z M3.15,11.336
		C2.083,12.564,1.5,14.117,1.5,15.75c0,3.722,3.028,6.75,6.75,6.75c1.632,0,3.186-0.583,4.415-1.65l-1.039-1.039
		c-0.142-0.142-0.22-0.33-0.22-0.53s0.078-0.389,0.22-0.53c0.142-0.142,0.33-0.22,0.53-0.22c0.2,0,0.389,0.078,0.53,0.22
		l0.998,0.998C14.535,18.593,15,17.188,15,15.75C15,12.028,11.972,9,8.25,9c-1.439,0-2.843,0.465-3.998,1.316l0.826,0.826
		c0.142,0.141,0.22,0.33,0.22,0.53s-0.078,0.389-0.22,0.53c-0.141,0.142-0.33,0.22-0.53,0.22s-0.389-0.078-0.53-0.22L3.15,11.336z"
		/>
	<path d="M17.25,24c-0.414,0-0.75-0.336-0.75-0.75s0.336-0.75,0.75-0.75h4.5c0.414,0,0.75-0.336,0.75-0.75V9h-5.25
		C16.009,9,15,7.991,15,6.75V1.5H5.25C4.836,1.5,4.5,1.836,4.5,2.25v4.5c0,0.414-0.336,0.75-0.75,0.75S3,7.164,3,6.75v-4.5
		C3,1.009,4.009,0,5.25,0h10.629c0.601,0,1.165,0.234,1.59,0.658l5.872,5.872C23.766,6.955,24,7.52,24,8.121V21.75
		c0,1.241-1.009,2.25-2.25,2.25H17.25z M16.5,6.75c0,0.414,0.336,0.75,0.75,0.75h4.939L16.5,1.811V6.75z"/>
	<path d="M8.25,19.5c-2.062-0.006-3.744-1.687-3.75-3.748C4.506,13.688,6.187,12.006,8.248,12H9c0.414,0,0.75,0.336,0.75,0.75
		S9.414,13.5,9,13.5H8.25C7.014,13.504,6.004,14.514,6,15.752C6.004,16.987,7.014,17.996,8.252,18H9c0.414,0,0.75,0.336,0.75,0.75
		S9.414,19.5,9,19.5H8.25z"/>
</g>
</svg>
