<?xml version="1.0" encoding="utf-8"?>
<!-- Generator: Adobe Illustrator 22.1.0, SVG Export Plug-In . SVG Version: 6.00 Build 0)  -->
<svg version="1.1" id="Layer_1" xmlns="http://www.w3.org/2000/svg" xmlns:xlink="http://www.w3.org/1999/xlink" x="0px" y="0px"
	 viewBox="0 0 24 24" style="enable-background:new 0 0 24 24;" xml:space="preserve">
<title>desktop-monitor-download</title>
<g>
	<path d="M17.25,13.5c-3.722,0-6.75-3.028-6.75-6.75S13.528,0,17.25,0S24,3.028,24,6.75S20.972,13.5,17.25,13.5z M17.25,1.5
		C14.355,1.5,12,3.855,12,6.75S14.355,12,17.25,12s5.25-2.355,5.25-5.25S20.145,1.5,17.25,1.5z"/>
	<path d="M17.25,10.5c-0.089,0-0.176-0.016-0.261-0.048c-0.011-0.004-0.022-0.008-0.032-0.012c-0.085-0.035-0.167-0.09-0.238-0.16
		l-2.25-2.25c-0.142-0.141-0.22-0.33-0.22-0.53s0.078-0.389,0.22-0.53S14.8,6.75,15,6.75s0.389,0.078,0.53,0.22l0.97,0.97V3.75
		C16.5,3.336,16.836,3,17.25,3S18,3.336,18,3.75v4.189l0.97-0.97c0.142-0.142,0.33-0.22,0.53-0.22s0.389,0.078,0.53,0.22
		c0.142,0.141,0.22,0.33,0.22,0.53s-0.078,0.389-0.22,0.53l-2.25,2.25c-0.07,0.07-0.153,0.125-0.245,0.163
		c-0.007,0.003-0.016,0.006-0.024,0.009C17.43,10.483,17.341,10.5,17.25,10.5z"/>
	<path d="M6,24c-0.414,0-0.75-0.336-0.75-0.75S5.586,22.5,6,22.5h1.664L8.039,21H3.75C1.682,21,0,19.318,0,17.25V6.75
		C0,4.682,1.682,3,3.75,3h4.5C8.664,3,9,3.336,9,3.75S8.664,4.5,8.25,4.5h-4.5C2.509,4.5,1.5,5.509,1.5,6.75v9.75h21v-2.25
		c0-0.414,0.336-0.75,0.75-0.75S24,13.836,24,14.25v3c0,2.068-1.682,3.75-3.75,3.75h-4.29l0.375,1.5H18
		c0.414,0,0.75,0.336,0.75,0.75S18.414,24,18,24H6z M14.79,22.5L14.415,21H9.586l-0.375,1.5H14.79z M1.632,18
		c0.313,0.879,1.158,1.5,2.118,1.5h16.5c0.96,0,1.805-0.621,2.118-1.5H1.632z"/>
</g>
</svg>
