<?xml version="1.0" encoding="utf-8"?>
<!-- Generator: Adobe Illustrator 22.1.0, SVG Export Plug-In . SVG Version: 6.00 Build 0)  -->
<svg version="1.1" id="Layer_1" xmlns="http://www.w3.org/2000/svg" xmlns:xlink="http://www.w3.org/1999/xlink" x="0px" y="0px"
	 viewBox="0 0 24 24" style="enable-background:new 0 0 24 24;" xml:space="preserve">
<title>desktop-computer-pc</title>
<g>
	<circle cx="19.875" cy="16.125" r="1.125"/>
	<path d="M5.25,20.25c-0.414,0-0.75-0.336-0.75-0.75s0.336-0.75,0.75-0.75H7.5v-1.5H2.25C1.009,17.25,0,16.241,0,15V6
		c0-1.241,1.009-2.25,2.25-2.25h12c1.241,0,2.25,1.009,2.25,2.25v9c0,1.241-1.009,2.25-2.25,2.25H9v1.5h2.25
		c0.414,0,0.75,0.336,0.75,0.75s-0.336,0.75-0.75,0.75H5.25z M2.25,5.25C1.836,5.25,1.5,5.586,1.5,6v9c0,0.414,0.336,0.75,0.75,0.75
		h12c0.414,0,0.75-0.336,0.75-0.75V6c0-0.414-0.336-0.75-0.75-0.75H2.25z"/>
	<path d="M17.25,20.25c-0.414,0-0.75-0.336-0.75-0.75s0.336-0.75,0.75-0.75h4.5c0.414,0,0.75-0.336,0.75-0.75v-4.5h-3.75
		c-0.414,0-0.75-0.336-0.75-0.75S18.336,12,18.75,12h3.75v-1.5h-3.75c-0.414,0-0.75-0.336-0.75-0.75S18.336,9,18.75,9h3.75V8.25
		c0-0.414-0.336-0.75-0.75-0.75h-3C18.336,7.5,18,7.164,18,6.75S18.336,6,18.75,6h3C22.991,6,24,7.009,24,8.25V18
		c0,1.241-1.009,2.25-2.25,2.25H17.25z"/>
</g>
</svg>
