<svg xmlns="http://www.w3.org/2000/svg" viewBox="0 0 24 24"><title>checklist</title><path d="M21.5,0H2.5A2.5,2.5,0,0,0,0,2.5v19A2.5,2.5,0,0,0,2.5,24h19A2.5,2.5,0,0,0,24,21.5V2.5A2.5,2.5,0,0,0,21.5,0Zm-3,9.5H14a1,1,0,0,1,0-2h4.5a1,1,0,0,1,0,2Zm1,8a1,1,0,0,1-1,1H14a1,1,0,0,1,0-2h4.5A1,1,0,0,1,19.5,17.5ZM11.3,5.6l-3,4a1,1,0,0,1-.729.4L7.5,10a1,1,0,0,1-.707-.293l-1.5-1.5A1,1,0,0,1,6.707,6.792l.685.685L9.7,4.4a1,1,0,0,1,1.6,1.2Zm0,10-3,4a1.018,1.018,0,0,1-1.507.107l-1.5-1.5a1,1,0,0,1,1.414-1.414l.685.685L9.7,14.4a1,1,0,0,1,1.6,1.2Z"/></svg>