<svg xmlns="http://www.w3.org/2000/svg" viewBox="0 0 24 24"><title>task-checklist-write</title><path d="M5,10.249h6.5a.75.75,0,0,0,0-1.5H5a.75.75,0,0,0,0,1.5Z"/><path d="M5,13.749H8a.75.75,0,0,0,0-1.5H5a.75.75,0,0,0,0,1.5Z"/><path d="M5,17.25H7.75a.75.75,0,0,0,0-1.5H5a.75.75,0,0,0,0,1.5Z"/><path d="M5.25,6.249h8.5A.25.25,0,0,0,14,6V3a.251.251,0,0,0-.25-.25H12V2.5A2.509,2.509,0,0,0,8.821.09,2.558,2.558,0,0,0,7,2.587v.162H5.25A.251.251,0,0,0,5,3V6A.25.25,0,0,0,5.25,6.249Zm5-4A.75.75,0,1,1,9.5,1.5.75.75,0,0,1,10.25,2.249Z"/><path d="M9.052,23l.14-.7a.249.249,0,0,0-.051-.207A.252.252,0,0,0,8.947,22H2.5a.5.5,0,0,1-.5-.5V5.249a.5.5,0,0,1,.5-.5h.75A.25.25,0,0,0,3.5,4.5V3a.251.251,0,0,0-.25-.25H2a2,2,0,0,0-2,2V22a2,2,0,0,0,2,2H8.776a.249.249,0,0,0,.249-.277A2.333,2.333,0,0,1,9.052,23Z"/><path d="M18.884,9.747A.252.252,0,0,0,19,9.535V4.749a2,2,0,0,0-2-2H15.75A.251.251,0,0,0,15.5,3V4.5a.25.25,0,0,0,.25.25h.75a.5.5,0,0,1,.5.5v5.612a.25.25,0,0,0,.427.177l.688-.688A4.383,4.383,0,0,1,18.884,9.747Z"/><path d="M12.739,20.044a.5.5,0,0,0-.834.217l-.886,3.1a.5.5,0,0,0,.618.618l3.1-.886a.5.5,0,0,0,.217-.835Z"/><path d="M18.771,13.228a.5.5,0,0,0-.707,0l-5.01,5.009a.5.5,0,0,0,0,.708l3,3a.5.5,0,0,0,.707,0l5.01-5.01a.5.5,0,0,0,0-.707Z"/><path d="M19.478,11.814a.5.5,0,0,0,0,.707l3,3a.454.454,0,0,0,.327.125.617.617,0,0,0,.426-.172,2.621,2.621,0,0,0,0-3.707A2.654,2.654,0,0,0,19.478,11.814Z"/></svg>