<svg xmlns="http://www.w3.org/2000/svg" viewBox="0 0 24 24"><title>task-checklist-remove</title><path d="M17.5,11A6.5,6.5,0,1,0,24,17.5,6.508,6.508,0,0,0,17.5,11Zm2.5,7.25H15a.75.75,0,1,1,0-1.5h5a.75.75,0,0,1,0,1.5Z"/><path d="M5,10.249h6.5a.75.75,0,0,0,0-1.5H5a.75.75,0,0,0,0,1.5Z"/><path d="M5,13.749H8a.75.75,0,0,0,0-1.5H5a.75.75,0,0,0,0,1.5Z"/><path d="M5,17.25H7.75a.75.75,0,0,0,0-1.5H5a.75.75,0,0,0,0,1.5Z"/><path d="M5.25,6.249h8.5A.25.25,0,0,0,14,6V3a.251.251,0,0,0-.25-.25H12V2.5A2.509,2.509,0,0,0,8.821.09,2.559,2.559,0,0,0,7,2.587v.162H5.25A.251.251,0,0,0,5,3V6A.25.25,0,0,0,5.25,6.249ZM9.5,1.5a.75.75,0,1,1-.75.75A.75.75,0,0,1,9.5,1.5Z"/><path d="M10.96,22.105a.249.249,0,0,0-.2-.106H2.5a.5.5,0,0,1-.5-.5V5.249a.5.5,0,0,1,.5-.5h.75A.25.25,0,0,0,3.5,4.5V3a.251.251,0,0,0-.25-.25H2a2,2,0,0,0-2,2V22a2,2,0,0,0,2,2H12.125a.25.25,0,0,0,.234-.163.247.247,0,0,0-.072-.276A8.044,8.044,0,0,1,10.96,22.105Z"/><path d="M15.75,4.749h.75a.5.5,0,0,1,.5.5V9.257a.25.25,0,0,0,.265.25c.078,0,.156-.008.235-.008a7.926,7.926,0,0,1,1.211.1.249.249,0,0,0,.2-.058A.245.245,0,0,0,19,9.348v-4.6a2,2,0,0,0-2-2H15.75A.251.251,0,0,0,15.5,3V4.5A.25.25,0,0,0,15.75,4.749Z"/></svg>