<svg xmlns="http://www.w3.org/2000/svg" viewBox="0 0 24 24"><defs><style>.a{fill:none;stroke:currentColor;stroke-linecap:round;stroke-linejoin:round;stroke-width:1.5px;}</style></defs><title>loading-2</title><polygon class="a" points="8.172 1.497 9.762 5.247 14.262 5.247 15.851 1.497 8.172 1.497"/><polygon class="a" points="19.178 3.416 16.728 6.67 18.981 10.565 23.023 10.064 19.178 3.416"/><polygon class="a" points="23.014 13.984 18.974 13.463 16.702 17.347 19.137 20.613 23.014 13.984"/><polygon class="a" points="4.845 3.416 7.295 6.67 5.042 10.565 1 10.064 4.845 3.416"/><polygon class="a" points="1.009 13.984 5.049 13.463 7.321 17.347 4.886 20.613 1.009 13.984"/><polygon class="a" points="15.851 22.497 14.262 18.747 9.762 18.747 8.172 22.497 15.851 22.497"/></svg>