<svg xmlns="http://www.w3.org/2000/svg" viewBox="0 0 24 24"><defs><style>.a{fill:none;stroke:currentColor;stroke-linecap:round;stroke-linejoin:round;}</style></defs><title>battery-charge</title><path class="a" d="M16.5,4.5h4a1,1,0,0,1,1,1v2h2v5h-2v2a1,1,0,0,1-1,1h-5"/><path class="a" d="M7.5,15.5h-6a1,1,0,0,1-1-1v-9a1,1,0,0,1,1-1h5"/><path class="a" d="M13,13.5H10A1.5,1.5,0,0,1,8.5,12V7.5h6V12A1.5,1.5,0,0,1,13,13.5Z"/><line class="a" x1="11.5" y1="13.5" x2="11.5" y2="19.5"/><line class="a" x1="9.5" y1="7.5" x2="9.5" y2="4.5"/><line class="a" x1="13.5" y1="7.5" x2="13.5" y2="4.5"/></svg>