<?xml version="1.0" encoding="utf-8"?>
<!-- Generator: Adobe Illustrator 22.1.0, SVG Export Plug-In . SVG Version: 6.00 Build 0)  -->
<svg version="1.1" id="Light" xmlns="http://www.w3.org/2000/svg" xmlns:xlink="http://www.w3.org/1999/xlink" x="0px" y="0px"
	 viewBox="0 0 24 24" style="enable-background:new 0 0 24 24;" xml:space="preserve">
<g>
	<title>single-woman-actions-music</title>
	<path d="M13.5,24.002c-1.379,0-2.5-1.122-2.5-2.5s1.121-2.5,2.5-2.5c0.549,0,1.072,0.178,1.5,0.501v-5.672
		c0-0.721,0.515-1.342,1.224-1.474l6-1.125c0.092-0.017,0.185-0.026,0.276-0.026c0.827,0,1.5,0.673,1.5,1.5V19.5
		c0,1.38-1.122,2.502-2.5,2.502s-2.5-1.122-2.5-2.5s1.122-2.5,2.5-2.5c0.549,0,1.072,0.178,1.5,0.501v-4.797
		c0-0.276-0.224-0.5-0.5-0.5c-0.031,0-0.062,0.003-0.092,0.009l-6,1.125C16.172,13.385,16,13.592,16,13.832V21.5
		C16,22.881,14.878,24.002,13.5,24.002z M13.5,20.002c-0.827,0-1.5,0.673-1.5,1.5s0.673,1.5,1.5,1.5s1.5-0.673,1.5-1.5
		S14.327,20.002,13.5,20.002z M21.5,18.002c-0.827,0-1.5,0.673-1.5,1.5s0.673,1.5,1.5,1.5s1.5-0.673,1.5-1.5
		S22.327,18.002,21.5,18.002z"/>
	<path d="M7.505,9.603c-0.067,0-0.134-0.002-0.202-0.005C5.676,9.524,4.294,8.566,3.631,7.174C3.51,7.941,3.239,8.684,2.827,9.36
		C2.737,9.508,2.573,9.6,2.4,9.6l0,0c-0.092,0-0.182-0.025-0.26-0.073C2.026,9.458,1.946,9.348,1.914,9.218
		C1.883,9.088,1.904,8.954,1.973,8.84C2.482,8.004,2.734,7.044,2.7,6.065l0-1.265c0-1.284,0.5-2.49,1.407-3.396
		C5.013,0.498,6.218-0.001,7.5-0.001c1.283,0,2.489,0.5,3.395,1.407S12.3,3.518,12.3,4.8v1.246
		c-0.034,0.994,0.217,1.957,0.727,2.794c0.07,0.114,0.091,0.248,0.059,0.378c-0.031,0.13-0.112,0.24-0.226,0.309
		C12.782,9.575,12.692,9.6,12.6,9.6c-0.176,0-0.336-0.09-0.427-0.24c-0.412-0.677-0.684-1.422-0.805-2.195
		c-0.236,0.495-0.566,0.943-0.977,1.317C9.599,9.205,8.574,9.603,7.505,9.603z M4.267,5.914c0.273,1.5,1.534,2.615,3.082,2.686
		c0.052,0.002,0.103,0.004,0.155,0.004c0.82,0,1.606-0.305,2.214-0.859c0.53-0.483,0.885-1.126,1.014-1.83
		C9.517,5.699,8.385,5.123,7.5,4.266C6.615,5.123,5.483,5.7,4.267,5.914z M7.501,0.999c-1.016,0-1.97,0.395-2.687,1.112
		C4.096,2.829,3.7,3.783,3.7,4.798v0.185c1.318-0.13,2.553-0.766,3.422-1.771C7.214,3.105,7.352,3.043,7.5,3.043
		s0.286,0.062,0.378,0.169C8.747,4.217,9.982,4.854,11.3,4.983V4.8c0-1.015-0.395-1.969-1.112-2.687
		C9.47,1.395,8.516,0.999,7.501,0.999z"/>
	<path d="M0.5,18C0.224,18,0,17.776,0,17.5c0-2.003,0.82-3.957,2.251-5.358c1.408-1.38,3.271-2.139,5.248-2.139
		c2.035,0,3.938,0.798,5.358,2.248c0.094,0.095,0.145,0.222,0.143,0.355s-0.055,0.259-0.15,0.352
		c-0.094,0.092-0.218,0.143-0.35,0.143c-0.135,0-0.262-0.053-0.357-0.15c-1.231-1.256-2.88-1.948-4.644-1.948
		c-1.713,0-3.328,0.658-4.548,1.854C1.838,13.947,1.142,15.445,1.02,17H12.5c0.276,0,0.5,0.224,0.5,0.5S12.776,18,12.5,18H0.5z"/>
</g>
</svg>
