<?xml version="1.0" encoding="utf-8"?>
<!-- Generator: Adobe Illustrator 22.1.0, SVG Export Plug-In . SVG Version: 6.00 Build 0)  -->
<svg version="1.1" id="Light" xmlns="http://www.w3.org/2000/svg" xmlns:xlink="http://www.w3.org/1999/xlink" x="0px" y="0px"
	 viewBox="0 0 24 24" style="enable-background:new 0 0 24 24;" xml:space="preserve">
<g>
	<title>single-woman-actions-add</title>
	<path d="M17.5,24c-3.584,0-6.5-2.916-6.5-6.5s2.916-6.5,6.5-6.5s6.5,2.916,6.5,6.5S21.084,24,17.5,24z M17.5,12
		c-3.033,0-5.5,2.467-5.5,5.5s2.467,5.5,5.5,5.5s5.5-2.467,5.5-5.5S20.533,12,17.5,12z"/>
	<path d="M17.5,21c-0.276,0-0.5-0.224-0.5-0.5V18h-2.5c-0.276,0-0.5-0.224-0.5-0.5s0.224-0.5,0.5-0.5H17v-2.5
		c0-0.276,0.224-0.5,0.5-0.5s0.5,0.224,0.5,0.5V17h2.5c0.276,0,0.5,0.224,0.5,0.5S20.776,18,20.5,18H18v2.5
		C18,20.776,17.776,21,17.5,21z"/>
	<path d="M7.505,9.603c-0.067,0-0.134-0.002-0.202-0.005C5.676,9.524,4.294,8.566,3.631,7.174C3.51,7.941,3.239,8.684,2.827,9.36
		C2.737,9.508,2.573,9.6,2.4,9.6l0,0c-0.092,0-0.182-0.025-0.26-0.073C2.026,9.458,1.946,9.348,1.914,9.218
		C1.883,9.088,1.904,8.954,1.973,8.84C2.482,8.004,2.734,7.044,2.7,6.065l0-1.265c0-1.284,0.5-2.49,1.407-3.396
		C5.013,0.498,6.218-0.001,7.5-0.001c1.283,0,2.489,0.5,3.395,1.407S12.3,3.518,12.3,4.8v1.246
		c-0.034,0.994,0.217,1.957,0.727,2.794c0.07,0.114,0.091,0.248,0.059,0.378c-0.031,0.13-0.112,0.24-0.226,0.309
		C12.782,9.575,12.692,9.6,12.6,9.6c-0.176,0-0.336-0.09-0.427-0.24c-0.412-0.677-0.684-1.422-0.805-2.195
		c-0.236,0.495-0.566,0.943-0.977,1.317C9.599,9.205,8.574,9.603,7.505,9.603z M4.267,5.914c0.273,1.5,1.534,2.615,3.082,2.686
		c0.053,0.003,0.106,0.004,0.159,0.004c0.818,0,1.602-0.305,2.21-0.86c0.53-0.483,0.885-1.126,1.014-1.83
		C9.517,5.699,8.385,5.123,7.5,4.266C6.614,5.123,5.483,5.7,4.267,5.914z M7.5,3.043c0.148,0,0.286,0.062,0.378,0.169
		C8.747,4.217,9.982,4.854,11.3,4.983V4.8c0-1.015-0.395-1.969-1.112-2.687C9.47,1.395,8.516,0.999,7.501,0.999
		c-1.016,0-1.97,0.395-2.687,1.112C4.096,2.829,3.7,3.783,3.7,4.798v0.185c1.318-0.13,2.553-0.766,3.422-1.771
		C7.214,3.105,7.352,3.043,7.5,3.043z"/>
	<path d="M0.5,18C0.224,18,0,17.776,0,17.5C0,13.365,3.364,10,7.5,10c1.44,0,2.842,0.411,4.053,1.19
		c0.232,0.149,0.299,0.459,0.151,0.691c-0.093,0.144-0.25,0.23-0.421,0.23l0,0c-0.096,0-0.189-0.027-0.27-0.079
		C9.963,11.356,8.748,11,7.5,11c-3.427,0-6.226,2.615-6.481,6H8.5C8.776,17,9,17.225,9,17.5S8.776,18,8.5,18H0.5z"/>
</g>
</svg>
