<?xml version="1.0" encoding="utf-8"?>
<!-- Generator: Adobe Illustrator 22.1.0, SVG Export Plug-In . SVG Version: 6.00 Build 0)  -->
<svg version="1.1" id="Light" xmlns="http://www.w3.org/2000/svg" xmlns:xlink="http://www.w3.org/1999/xlink" x="0px" y="0px"
	 viewBox="0 0 24 24" style="enable-background:new 0 0 24 24;" xml:space="preserve">
<g>
	<title>single-woman-actions-video</title>
	<path d="M13,24c-1.103,0-2-0.897-2-2v-6c0-1.103,0.897-2,2-2h6c1.103,0,2,0.897,2,2v0.306l1.684-0.561
		c0.102-0.034,0.208-0.052,0.315-0.052c0.271,0,0.521,0.105,0.709,0.294C23.897,16.177,24,16.428,24,16.695v4.612
		c0,0.108-0.017,0.215-0.052,0.317c-0.084,0.253-0.262,0.458-0.501,0.578c-0.139,0.069-0.293,0.106-0.447,0.106l0,0
		c-0.107,0-0.214-0.017-0.316-0.051L21,21.694V22c0,1.103-0.897,2-2,2H13z M13,15c-0.552,0-1,0.448-1,1v6c0,0.552,0.448,1,1,1h6
		c0.552,0,1-0.448,1-1v-1c0-0.16,0.077-0.312,0.207-0.406c0.086-0.062,0.187-0.095,0.292-0.095c0.055,0,0.109,0.009,0.16,0.027
		L23,21.307l0-4.613l-2.342,0.78C20.607,17.492,20.554,17.5,20.5,17.5c-0.105,0-0.206-0.032-0.292-0.094
		C20.077,17.312,20,17.16,20,17v-1c0-0.552-0.448-1-1-1H13z"/>
	<path d="M12.6,9.6c-0.174,0-0.337-0.092-0.427-0.24c-0.414-0.68-0.686-1.428-0.806-2.205c-0.237,0.497-0.57,0.947-0.984,1.322
		C9.592,9.195,8.57,9.59,7.505,9.59c-0.071,0-0.142-0.002-0.214-0.005C5.673,9.506,4.295,8.548,3.633,7.16
		C3.513,7.932,3.241,8.679,2.827,9.36C2.736,9.51,2.576,9.6,2.4,9.6c-0.092,0-0.181-0.025-0.26-0.073
		C1.905,9.384,1.83,9.076,1.973,8.84C2.482,8.003,2.734,7.043,2.7,6.063l0-1.263c0-1.284,0.5-2.49,1.407-3.396
		C5.013,0.498,6.218-0.001,7.5-0.001c1.283,0,2.489,0.5,3.395,1.407S12.3,3.518,12.3,4.8v1.246
		c-0.033,0.994,0.218,1.957,0.727,2.794c0.143,0.235,0.068,0.544-0.167,0.687C12.782,9.575,12.692,9.6,12.6,9.6z M4.27,5.911
		c0.277,1.49,1.533,2.6,3.071,2.675C7.396,8.588,7.452,8.59,7.507,8.59c0.815,0,1.598-0.303,2.204-0.854
		c0.531-0.482,0.888-1.123,1.019-1.826C9.516,5.696,8.385,5.12,7.5,4.264C6.615,5.12,5.484,5.697,4.27,5.911z M7.501,0.999
		c-1.016,0-1.97,0.395-2.687,1.112C4.096,2.829,3.7,3.783,3.7,4.798v0.182c1.318-0.129,2.553-0.765,3.422-1.77
		C7.214,3.103,7.352,3.041,7.5,3.041c0.148,0,0.285,0.062,0.378,0.169c0.869,1.005,2.104,1.641,3.422,1.77V4.8
		c0-1.015-0.395-1.969-1.112-2.687C9.47,1.395,8.516,0.999,7.501,0.999z"/>
	<path d="M0.5,18C0.224,18,0,17.776,0,17.5C0,13.365,3.364,10,7.5,10c1.761,0,3.473,0.623,4.822,1.755
		c0.211,0.177,0.239,0.493,0.062,0.704c-0.095,0.114-0.234,0.179-0.383,0.179c-0.117,0-0.232-0.042-0.322-0.117
		C10.51,11.54,9.026,11,7.5,11c-3.427,0-6.226,2.615-6.481,6H8.5C8.776,17,9,17.225,9,17.5S8.776,18,8.5,18H0.5z"/>
</g>
</svg>
