<?xml version="1.0" encoding="utf-8"?>
<!-- Generator: Adobe Illustrator 22.1.0, SVG Export Plug-In . SVG Version: 6.00 Build 0)  -->
<svg version="1.1" id="Light" xmlns="http://www.w3.org/2000/svg" xmlns:xlink="http://www.w3.org/1999/xlink" x="0px" y="0px"
	 viewBox="0 0 24 24" style="enable-background:new 0 0 24 24;" xml:space="preserve">
<g>
	<title>single-woman-actions-money</title>
	<path d="M17.5,22c-0.276,0-0.5-0.224-0.5-0.5V21h-1c-0.276,0-0.5-0.224-0.5-0.5S15.724,20,16,20h2.031
		c0.345,0,0.651-0.208,0.78-0.528c0.173-0.431-0.036-0.922-0.467-1.095l-2.063-0.825c-0.702-0.283-1.155-0.953-1.156-1.708
		c0-0.492,0.191-0.955,0.539-1.302c0.347-0.348,0.81-0.54,1.302-0.54H17v-0.5c0-0.276,0.224-0.5,0.5-0.5s0.5,0.224,0.5,0.5V14h1
		c0.276,0,0.5,0.224,0.5,0.5S19.276,15,19,15h-1.479c-0.007,0.001-0.014,0.001-0.021,0.001s-0.014,0-0.021-0.001h-0.511
		c-0.224,0-0.436,0.088-0.594,0.247c-0.159,0.159-0.247,0.371-0.247,0.595c0,0.345,0.207,0.652,0.528,0.781l2.063,0.825
		c0.943,0.379,1.402,1.455,1.022,2.397C19.457,20.547,18.787,21,18.031,21H18v0.5C18,21.776,17.776,22,17.5,22z"/>
	<path d="M17.5,24c-3.584,0-6.5-2.916-6.5-6.5s2.916-6.5,6.5-6.5s6.5,2.916,6.5,6.5S21.084,24,17.5,24z M17.5,12
		c-3.033,0-5.5,2.467-5.5,5.5s2.467,5.5,5.5,5.5s5.5-2.467,5.5-5.5S20.533,12,17.5,12z"/>
	<path d="M2.4,9.6c-0.092,0-0.182-0.026-0.261-0.074C1.904,9.383,1.83,9.075,1.974,8.839c0.512-0.837,0.765-1.798,0.734-2.778
		l0-0.524C2.706,5.526,2.705,5.516,2.705,5.505s0.001-0.021,0.002-0.032l0-0.673c-0.005-0.108-0.005-0.238,0-0.367
		c0.104-2.583,2.21-4.606,4.794-4.606c0.065,0,0.13,0.001,0.195,0.004c2.645,0.107,4.709,2.345,4.602,4.99l0,1.226
		c-0.033,0.994,0.218,1.957,0.727,2.794c0.143,0.235,0.068,0.544-0.167,0.687C12.782,9.575,12.692,9.6,12.6,9.6
		c-0.176,0-0.336-0.09-0.427-0.24c-0.412-0.678-0.684-1.423-0.804-2.197C10.675,8.617,9.196,9.6,7.503,9.6
		c-0.066,0-0.132-0.001-0.199-0.005C5.679,9.521,4.299,8.567,3.635,7.177C3.513,7.944,3.24,8.686,2.827,9.361
		C2.735,9.511,2.575,9.6,2.4,9.6L2.4,9.6z M4.268,5.91C4.541,7.411,5.802,8.526,7.35,8.597C7.403,8.599,7.455,8.6,7.507,8.6
		c1.594,0,2.941-1.141,3.226-2.69C9.517,5.696,8.385,5.12,7.5,4.264C6.615,5.12,5.484,5.697,4.268,5.91z M7.5,3.04
		c0.148,0,0.286,0.062,0.378,0.169C8.747,4.214,9.982,4.85,11.3,4.98V4.8c0.085-2.109-1.55-3.886-3.643-3.97
		c-0.05-0.002-0.099-0.003-0.149-0.003c-2.049,0-3.718,1.602-3.801,3.647c-0.004,0.102-0.004,0.204,0,0.307l0,0.199
		c1.315-0.13,2.548-0.766,3.415-1.77C7.214,3.102,7.352,3.04,7.5,3.04z"/>
	<path d="M0.5,18C0.224,18,0,17.776,0,17.5C0,13.365,3.364,10,7.5,10c1.44,0,2.842,0.411,4.053,1.19
		c0.232,0.149,0.299,0.459,0.151,0.691c-0.092,0.144-0.25,0.23-0.421,0.23c0,0,0,0,0,0c-0.096,0-0.189-0.027-0.27-0.079
		C9.963,11.356,8.748,11,7.5,11c-3.428,0-6.226,2.615-6.482,6H8.5C8.776,17,9,17.225,9,17.5S8.776,18,8.5,18H0.5z"/>
</g>
</svg>
