<?xml version="1.0" encoding="utf-8"?>
<!-- Generator: Adobe Illustrator 22.1.0, SVG Export Plug-In . SVG Version: 6.00 Build 0)  -->
<svg version="1.1" id="Light" xmlns="http://www.w3.org/2000/svg" xmlns:xlink="http://www.w3.org/1999/xlink" x="0px" y="0px"
	 viewBox="0 0 24 24" style="enable-background:new 0 0 24 24;" xml:space="preserve">
<g>
	<title>single-woman-actions-home</title>
	<path d="M13.5,24c-0.827,0-1.5-0.673-1.5-1.5v-5.114l-1.177,0.996C10.732,18.458,10.617,18.5,10.5,18.5
		c-0.148,0-0.287-0.065-0.382-0.177c-0.178-0.209-0.152-0.526,0.059-0.704l5.854-4.953c0.271-0.229,0.615-0.356,0.969-0.356
		s0.698,0.126,0.969,0.356l5.854,4.953c0.211,0.178,0.237,0.495,0.059,0.705c-0.095,0.112-0.234,0.177-0.382,0.177
		c-0.118,0-0.232-0.042-0.322-0.118L22,17.386V22.5c0,0.827-0.673,1.5-1.5,1.5H13.5z M20.5,23c0.276,0,0.5-0.224,0.5-0.5v-5.96
		l-3.677-3.111C17.232,13.352,17.117,13.31,17,13.31s-0.232,0.042-0.323,0.119L13,16.54v5.96c0,0.276,0.224,0.5,0.5,0.5H15v-2.5
		c0-1.103,0.897-2,2-2s2,0.897,2,2V23H20.5z M18,23v-2.5c0-0.552-0.448-1-1-1s-1,0.448-1,1V23H18z"/>
	<path d="M2.399,9.6c-0.092,0-0.182-0.026-0.261-0.074C1.904,9.383,1.829,9.075,1.973,8.839c0.512-0.837,0.765-1.798,0.734-2.778
		l0-0.533C2.706,5.521,2.706,5.513,2.706,5.506c0-0.007,0-0.014,0.001-0.021V4.8c-0.005-0.108-0.005-0.238,0-0.367
		c0.104-2.583,2.21-4.606,4.794-4.606c0.065,0,0.13,0.001,0.195,0.004c2.645,0.107,4.709,2.345,4.602,4.99l0,1.226
		c-0.033,0.994,0.218,1.957,0.727,2.794c0.143,0.235,0.068,0.544-0.167,0.687C12.781,9.575,12.692,9.6,12.6,9.6
		c-0.176,0-0.336-0.09-0.427-0.24c-0.413-0.679-0.685-1.426-0.805-2.202c-0.237,0.495-0.569,0.944-0.982,1.319
		C9.594,9.195,8.572,9.59,7.507,9.59c-0.071,0-0.142-0.002-0.214-0.005C5.676,9.506,4.3,8.551,3.637,7.165
		C3.515,7.937,3.241,8.682,2.826,9.361C2.735,9.511,2.575,9.6,2.399,9.6L2.399,9.6z M4.271,5.909
		c0.277,1.491,1.533,2.601,3.071,2.676C7.398,8.588,7.453,8.59,7.508,8.59c0.815,0,1.598-0.303,2.205-0.853
		c0.531-0.482,0.887-1.123,1.019-1.826C9.517,5.697,8.385,5.12,7.5,4.264C6.615,5.119,5.485,5.695,4.271,5.909z M7.5,3.036
		c0.145,0,0.283,0.063,0.378,0.173C8.746,4.215,9.982,4.851,11.3,4.98V4.8c0.085-2.109-1.55-3.886-3.643-3.97
		c-0.05-0.002-0.099-0.003-0.149-0.003c-2.049,0-3.718,1.602-3.801,3.647c-0.004,0.102-0.004,0.204,0,0.307l0,0.198
		c1.315-0.131,2.548-0.767,3.415-1.77C7.216,3.099,7.354,3.036,7.5,3.036z"/>
	<path d="M0.5,18C0.224,18,0,17.776,0,17.5c0-2,0.781-3.883,2.199-5.301C3.617,10.781,5.499,10,7.5,10
		c2.223,0,4.317,0.976,5.745,2.679c0.086,0.102,0.127,0.232,0.115,0.365s-0.074,0.254-0.177,0.34
		c-0.09,0.075-0.204,0.117-0.321,0.117c-0.148,0-0.288-0.065-0.383-0.179C11.24,11.846,9.426,11,7.5,11
		c-3.427,0-6.226,2.615-6.481,6H8.5C8.775,17,9,17.225,9,17.5S8.775,18,8.5,18H0.5z"/>
</g>
</svg>
