<?xml version="1.0" encoding="utf-8"?>
<!-- Generator: Adobe Illustrator 22.1.0, SVG Export Plug-In . SVG Version: 6.00 Build 0)  -->
<svg version="1.1" id="Light" xmlns="http://www.w3.org/2000/svg" xmlns:xlink="http://www.w3.org/1999/xlink" x="0px" y="0px"
	 viewBox="0 0 24 24" style="enable-background:new 0 0 24 24;" xml:space="preserve">
<g>
	<title>single-woman-actions</title>
	<path d="M4.5,21C4.224,21,4,20.775,4,20.5c0-4.135,3.365-7.5,7.5-7.5s7.5,3.365,7.5,7.5c0,0.276-0.224,0.5-0.5,0.5H4.5z M17.981,20
		c-0.255-3.385-3.054-6-6.481-6s-6.226,2.615-6.481,6H17.981z"/>
	<path d="M11.502,12.603c-0.066,0-0.132-0.001-0.199-0.005c-1.627-0.075-3.009-1.032-3.672-2.425
		c-0.121,0.767-0.392,1.51-0.804,2.186c-0.09,0.148-0.254,0.24-0.428,0.24c-0.091,0-0.181-0.025-0.259-0.073
		c-0.236-0.144-0.31-0.452-0.167-0.687c0.509-0.837,0.761-1.796,0.727-2.775l0-1.265c0-1.282,0.5-2.488,1.406-3.394
		C9.013,3.499,10.218,3,11.5,3c2.647,0,4.8,2.153,4.8,4.8v1.246c-0.034,0.994,0.218,1.957,0.727,2.794
		c0.143,0.235,0.068,0.544-0.167,0.687c-0.079,0.048-0.169,0.073-0.26,0.073c-0.176,0-0.336-0.09-0.427-0.24
		c-0.413-0.677-0.684-1.422-0.805-2.195C14.675,11.619,13.196,12.603,11.502,12.603z M8.267,8.913
		c0.273,1.5,1.534,2.615,3.082,2.686c0.054,0.003,0.106,0.004,0.159,0.004c1.592,0,2.939-1.141,3.224-2.69
		c-1.216-0.214-2.347-0.791-3.232-1.647C10.614,8.122,9.482,8.699,8.267,8.913z M11.5,6.039c0.145,0,0.283,0.063,0.378,0.173
		c0.868,1.005,2.104,1.641,3.422,1.771V7.8c0-2.095-1.705-3.8-3.8-3.8c-1.015,0-1.969,0.395-2.687,1.113
		C8.095,5.83,7.7,6.784,7.7,7.799v0.184c1.318-0.13,2.553-0.766,3.422-1.771C11.217,6.102,11.355,6.039,11.5,6.039z"/>
</g>
</svg>
