<?xml version="1.0" encoding="utf-8"?>
<!-- Generator: Adobe Illustrator 22.1.0, SVG Export Plug-In . SVG Version: 6.00 Build 0)  -->
<svg version="1.1" id="Light" xmlns="http://www.w3.org/2000/svg" xmlns:xlink="http://www.w3.org/1999/xlink" x="0px" y="0px"
	 viewBox="0 0 24 24" style="enable-background:new 0 0 24 24;" xml:space="preserve">
<g>
	<title>single-woman-actions-sync</title>
	<path d="M17.506,23.997c-2.753,0-5.218-1.742-6.134-4.335c-0.578-1.637-0.485-3.401,0.264-4.968c0.749-1.567,2.063-2.748,3.7-3.326
		c0.698-0.247,1.425-0.372,2.159-0.372c2.264,0,4.329,1.164,5.505,3.036v-3.034c0-0.276,0.224-0.5,0.5-0.5s0.5,0.224,0.5,0.5v4.5
		c0,0.276-0.224,0.5-0.5,0.5H19c-0.276,0-0.5-0.224-0.5-0.5s0.224-0.5,0.5-0.5h3.399c-0.933-1.835-2.819-3.001-4.904-3.001
		c-0.621,0-1.236,0.106-1.827,0.314c-1.385,0.489-2.497,1.489-3.13,2.815c-0.633,1.325-0.713,2.818-0.223,4.204
		c0.775,2.194,2.862,3.668,5.191,3.668c0,0,0,0,0,0c0.622,0,1.236-0.106,1.827-0.314c0.971-0.343,1.824-0.95,2.466-1.755
		c0.096-0.12,0.238-0.188,0.391-0.188c0.113,0,0.224,0.039,0.312,0.11c0.104,0.083,0.17,0.202,0.185,0.334
		c0.015,0.133-0.023,0.264-0.106,0.368c-0.759,0.951-1.767,1.668-2.915,2.074C18.967,23.872,18.241,23.997,17.506,23.997
		L17.506,23.997z"/>
	<path d="M12.6,9.599c-0.176,0-0.336-0.09-0.427-0.24C11.76,8.68,11.488,7.935,11.368,7.16c-0.236,0.494-0.566,0.942-0.976,1.316
		C9.599,9.199,8.574,9.597,7.505,9.597c-0.067,0-0.134-0.002-0.202-0.005C5.677,9.518,4.294,8.561,3.632,7.169
		C3.511,7.937,3.24,8.681,2.827,9.358c-0.09,0.148-0.254,0.24-0.427,0.24c-0.092,0-0.182-0.025-0.26-0.073
		C2.026,9.456,1.946,9.346,1.914,9.216c-0.032-0.13-0.011-0.264,0.059-0.378C2.483,8.001,2.734,7.04,2.7,6.06l0-1.262
		c0-1.284,0.5-2.49,1.407-3.396C5.013,0.496,6.218-0.003,7.5-0.003c2.648,0.001,4.801,2.154,4.8,4.801v1.246
		c-0.034,0.994,0.218,1.957,0.727,2.794c0.069,0.114,0.09,0.248,0.059,0.378c-0.031,0.13-0.112,0.24-0.226,0.309
		C12.782,9.573,12.692,9.599,12.6,9.599z M4.267,5.908c0.273,1.5,1.534,2.615,3.082,2.686c0.053,0.003,0.106,0.004,0.159,0.004
		c0.818,0,1.602-0.305,2.21-0.86c0.53-0.483,0.885-1.126,1.014-1.83C9.517,5.694,8.385,5.117,7.5,4.261
		C6.615,5.117,5.483,5.694,4.267,5.908z M7.5,3.033c0.145,0,0.283,0.063,0.378,0.173C8.747,4.211,9.982,4.848,11.3,4.978V4.798
		c0-2.095-1.704-3.8-3.799-3.801c-1.015,0-1.969,0.395-2.687,1.112C4.096,2.827,3.7,3.781,3.7,4.796v0.181
		c1.318-0.13,2.553-0.766,3.422-1.771C7.217,3.096,7.355,3.033,7.5,3.033z"/>
	<path d="M0.5,17.998c-0.276,0-0.5-0.224-0.5-0.5c0-4.135,3.364-7.5,7.5-7.5c1.44,0,2.842,0.411,4.053,1.19
		c0.232,0.149,0.299,0.459,0.151,0.691c-0.092,0.144-0.25,0.23-0.421,0.23c0,0,0,0,0,0c-0.096,0-0.189-0.027-0.27-0.079
		c-1.05-0.674-2.265-1.031-3.513-1.031c-3.427,0-6.226,2.615-6.481,6H8.5c0.276,0,0.5,0.224,0.5,0.5s-0.224,0.5-0.5,0.5H0.5z"/>
</g>
</svg>
