<?xml version="1.0" encoding="utf-8"?>
<!-- Generator: Adobe Illustrator 22.1.0, SVG Export Plug-In . SVG Version: 6.00 Build 0)  -->
<svg version="1.1" id="Light" xmlns="http://www.w3.org/2000/svg" xmlns:xlink="http://www.w3.org/1999/xlink" x="0px" y="0px"
	 viewBox="0 0 24 24" style="enable-background:new 0 0 24 24;" xml:space="preserve">
<g>
	<title>single-woman-actions-flash</title>
	<path d="M17.75,23.54c-0.413,0-0.75-0.336-0.75-0.749v-4.789h-2.125c-0.206,0-0.406-0.073-0.564-0.207
		c-0.178-0.151-0.287-0.362-0.307-0.594c-0.02-0.234,0.053-0.46,0.204-0.639l5.457-6.817c0.143-0.179,0.356-0.281,0.585-0.281
		c0.415,0.001,0.751,0.338,0.75,0.752v4.786h2.125c0.206,0.001,0.405,0.074,0.562,0.205c0.37,0.311,0.418,0.865,0.107,1.235
		l-5.459,6.817c-0.143,0.178-0.356,0.28-0.583,0.281C17.751,23.54,17.751,23.54,17.75,23.54L17.75,23.54z M17.499,17.002
		c0.276,0,0.5,0.224,0.5,0.5v4.576l4.865-6.076h-2.365c-0.276,0-0.5-0.224-0.5-0.5v-4.576l-4.864,6.076H17.499z"/>
	<path d="M12.599,9.6c-0.176,0-0.336-0.09-0.427-0.24c-0.413-0.679-0.685-1.426-0.805-2.201c-0.237,0.496-0.57,0.946-0.983,1.321
		C9.592,9.197,8.57,9.593,7.505,9.593c-0.071,0-0.142-0.002-0.214-0.005C5.675,9.508,4.299,8.554,3.636,7.169
		c-0.122,0.77-0.396,1.514-0.81,2.192C2.734,9.511,2.575,9.6,2.399,9.6l0,0c-0.092,0-0.182-0.025-0.261-0.073
		C1.903,9.383,1.829,9.074,1.973,8.839c0.511-0.836,0.765-1.796,0.734-2.775l0-0.524C2.705,5.53,2.704,5.519,2.704,5.509
		c0-0.01,0.001-0.021,0.002-0.031l0-0.678c-0.005-0.108-0.005-0.238,0-0.367C2.811,1.85,4.916-0.173,7.5-0.173
		c0.065,0,0.131,0.001,0.197,0.004c1.279,0.052,2.463,0.6,3.333,1.543s1.321,2.167,1.269,3.447l0,0.635
		c0.003,0.015,0.005,0.033,0.005,0.054c0,0.014-0.002,0.033-0.005,0.05v0.486c-0.033,0.994,0.218,1.957,0.727,2.794
		c0.069,0.114,0.09,0.248,0.059,0.378c-0.032,0.13-0.112,0.239-0.226,0.309C12.781,9.575,12.691,9.6,12.599,9.6z M4.27,5.914
		c0.277,1.49,1.533,2.6,3.071,2.675c0.057,0.003,0.112,0.004,0.168,0.004c1.587,0,2.933-1.136,3.222-2.68
		C9.517,5.698,8.388,5.121,7.504,4.266C6.618,5.123,5.486,5.7,4.27,5.914z M7.507,0.827c-2.049,0-3.718,1.602-3.801,3.647
		c-0.004,0.102-0.004,0.204,0,0.307l0,0.203c1.317-0.13,2.552-0.767,3.42-1.771c0.095-0.11,0.233-0.173,0.378-0.173
		c0.145,0,0.283,0.063,0.378,0.173c0.867,1.004,2.101,1.64,3.417,1.771V4.8c0.041-1.031-0.315-2.004-1.003-2.75
		C9.608,1.304,8.67,0.871,7.656,0.83C7.606,0.828,7.556,0.827,7.507,0.827z"/>
	<path d="M0.499,18c-0.276,0-0.5-0.224-0.5-0.5c0-4.135,3.364-7.5,7.499-7.501c2.453,0,4.754,1.202,6.156,3.215
		c0.076,0.109,0.105,0.242,0.082,0.373c-0.023,0.132-0.097,0.246-0.207,0.323C13.446,13.969,13.347,14,13.244,14l0,0
		c-0.164,0-0.317-0.08-0.41-0.214c-1.215-1.745-3.209-2.786-5.336-2.786c-1.736,0-3.368,0.676-4.596,1.904
		C1.799,14.008,1.135,15.454,1.018,17h10.481c0.276,0,0.5,0.224,0.5,0.5s-0.224,0.5-0.5,0.5H0.499z"/>
</g>
</svg>
