<?xml version="1.0" encoding="utf-8"?>
<!-- Generator: Adobe Illustrator 22.1.0, SVG Export Plug-In . SVG Version: 6.00 Build 0)  -->
<svg version="1.1" id="Light" xmlns="http://www.w3.org/2000/svg" xmlns:xlink="http://www.w3.org/1999/xlink" x="0px" y="0px"
	 viewBox="0 0 24 24" style="enable-background:new 0 0 24 24;" xml:space="preserve">
<g>
	<title>single-woman-actions-player</title>
	<path d="M13,24c-1.103,0-2-0.897-2-2v-9c0-1.103,0.897-2,2-2h9c1.103,0,2,0.897,2,2v9c0,1.103-0.897,2-2,2H13z M13,12
		c-0.552,0-1,0.449-1,1v9c0,0.552,0.448,1,1,1h9c0.552,0,1-0.448,1-1v-9c0-0.552-0.448-1-1-1H13z"/>
	<path d="M15.931,20.251c-0.076,0-0.153-0.01-0.228-0.028c-0.241-0.06-0.444-0.211-0.572-0.424C15.046,19.654,15,19.488,15,19.32
		v-3.64c0-0.513,0.417-0.93,0.93-0.93c0.169,0,0.334,0.046,0.478,0.132l3.034,1.82c0.439,0.263,0.583,0.835,0.32,1.275
		c-0.078,0.131-0.189,0.242-0.321,0.321l-3.034,1.82C16.263,20.205,16.098,20.251,15.931,20.251z M16,19.197l2.828-1.697L16,15.804
		V19.197z"/>
	<path d="M12.6,9.6c-0.174,0-0.337-0.092-0.427-0.24c-0.414-0.68-0.686-1.428-0.806-2.205c-0.237,0.497-0.57,0.947-0.984,1.322
		C9.592,9.195,8.57,9.59,7.505,9.59c-0.071,0-0.142-0.002-0.214-0.005C5.673,9.506,4.295,8.548,3.633,7.16
		C3.513,7.932,3.241,8.679,2.827,9.36C2.736,9.51,2.576,9.6,2.4,9.6c-0.092,0-0.181-0.025-0.26-0.073
		C1.905,9.384,1.83,9.076,1.973,8.84C2.482,8.003,2.734,7.043,2.7,6.063l0-1.263c0-1.284,0.5-2.49,1.407-3.396
		C5.013,0.498,6.218-0.001,7.5-0.001c1.283,0,2.489,0.5,3.395,1.407S12.3,3.518,12.3,4.8v1.246
		c-0.033,0.994,0.218,1.957,0.727,2.794c0.143,0.235,0.068,0.544-0.167,0.687C12.782,9.575,12.692,9.6,12.6,9.6L12.6,9.6z
		 M4.27,5.91c0.277,1.491,1.533,2.6,3.071,2.675C7.396,8.588,7.452,8.59,7.507,8.59c0.815,0,1.598-0.303,2.204-0.854
		c0.531-0.481,0.887-1.123,1.019-1.826C9.516,5.697,8.385,5.12,7.5,4.264C6.615,5.12,5.484,5.696,4.27,5.91z M7.5,3.037
		c0.145,0,0.283,0.063,0.378,0.173c0.868,1.005,2.104,1.641,3.422,1.77V4.8c0-1.015-0.395-1.969-1.112-2.687
		C9.47,1.395,8.516,0.999,7.501,0.999c-1.016,0-1.97,0.395-2.687,1.112C4.096,2.829,3.7,3.783,3.7,4.798v0.182
		c1.318-0.13,2.553-0.766,3.422-1.77C7.217,3.1,7.355,3.037,7.5,3.037z"/>
	<path d="M0.5,18c-0.132,0-0.261-0.053-0.354-0.146C0.052,17.76,0,17.634,0,17.5c0-0.354,0.026-0.711,0.076-1.061
		C0.603,12.768,3.795,10,7.502,10c0.355,0,0.715,0.026,1.069,0.077c0.132,0.019,0.249,0.088,0.329,0.195
		c0.08,0.107,0.114,0.239,0.095,0.371c-0.035,0.244-0.248,0.429-0.496,0.429c-0.022,0-0.045-0.001-0.068-0.005
		C8.121,11.022,7.809,11,7.501,11c-3.212,0-5.978,2.4-6.435,5.581C1.046,16.72,1.031,16.86,1.02,17H8.5C8.776,17,9,17.225,9,17.5
		S8.776,18,8.5,18H0.5z"/>
</g>
</svg>
