<?xml version="1.0" encoding="utf-8"?>
<!-- Generator: Adobe Illustrator 22.1.0, SVG Export Plug-In . SVG Version: 6.00 Build 0)  -->
<svg version="1.1" id="Light" xmlns="http://www.w3.org/2000/svg" xmlns:xlink="http://www.w3.org/1999/xlink" x="0px" y="0px"
	 viewBox="0 0 24 24" style="enable-background:new 0 0 24 24;" xml:space="preserve">
<g>
	<title>single-woman-actions-graduate</title>
	<path d="M16.729,24.006c-0.16,0-0.317-0.031-0.467-0.091l-3.237-1.195c-0.49-0.196-0.8-0.655-0.798-1.172v-2.798l-2-0.706v2.956
		c0,0.276-0.224,0.5-0.5,0.5s-0.5-0.224-0.5-0.5v-3.663c0-0.013,0.001-0.027,0.004-0.042c0.004-0.046,0.014-0.09,0.03-0.132
		c0.006-0.017,0.014-0.034,0.023-0.051c0.018-0.036,0.042-0.071,0.069-0.103c0.011-0.013,0.023-0.026,0.036-0.039
		c0.034-0.031,0.073-0.058,0.115-0.079c0.006-0.004,0.012-0.007,0.017-0.01c0.006-0.003,0.01-0.004,0.021-0.009l6.632-2.638
		c0.178-0.071,0.365-0.107,0.556-0.107c0.191,0,0.378,0.036,0.556,0.107l6.008,2.391c0.201,0.079,0.358,0.242,0.43,0.447
		c0.067,0.188,0.056,0.391-0.031,0.572c-0.086,0.181-0.238,0.317-0.426,0.384l-2.04,0.72v2.8c0.003,0.515-0.306,0.973-0.787,1.164
		l-3.262,1.205C17.04,23.976,16.887,24.006,16.729,24.006z M13.227,21.551c0,0.107,0.06,0.197,0.157,0.236l3.238,1.195
		c0.04,0.016,0.074,0.023,0.106,0.023c0.031,0,0.061-0.006,0.09-0.018l3.263-1.206c0.087-0.034,0.146-0.125,0.145-0.228v-2.45
		l-3,1.059c-0.161,0.056-0.329,0.085-0.5,0.085c-0.17,0-0.338-0.029-0.499-0.085l-3.001-1.059V21.551z M16.561,19.22
		c0.053,0.019,0.109,0.029,0.166,0.029c0.057,0,0.113-0.01,0.167-0.028l5.412-1.91l-5.39-2.145c-0.06-0.024-0.123-0.036-0.186-0.036
		c-0.062,0-0.123,0.011-0.181,0.034c-0.001,0.001-5.397,2.146-5.397,2.146L16.561,19.22z"/>
	<path d="M12.829,9.601c-0.176,0-0.336-0.09-0.427-0.24c-0.413-0.679-0.685-1.427-0.805-2.203c-0.237,0.496-0.57,0.945-0.983,1.321
		C9.822,9.197,8.8,9.592,7.735,9.592c-0.071,0-0.142-0.002-0.213-0.005C5.906,9.508,4.531,8.555,3.867,7.172
		C3.746,7.94,3.475,8.684,3.063,9.361c-0.09,0.148-0.254,0.24-0.428,0.24l0,0c-0.091,0-0.181-0.025-0.259-0.073
		C2.262,9.459,2.181,9.349,2.15,9.22C2.118,9.09,2.139,8.956,2.208,8.841c0.509-0.837,0.761-1.797,0.727-2.777l0-0.525
		C2.934,5.528,2.933,5.517,2.933,5.507c0-0.011,0.001-0.024,0.003-0.036l-0.001-0.67c-0.005-0.108-0.005-0.238,0-0.367
		C3.04,1.851,5.147-0.172,7.732-0.172c0.064,0,0.129,0.001,0.193,0.004c2.645,0.107,4.709,2.345,4.603,4.99l0,0.634
		c0.003,0.014,0.005,0.032,0.005,0.052c0,0.015-0.002,0.036-0.006,0.054l0.001,0.486c-0.034,0.994,0.218,1.957,0.727,2.794
		c0.069,0.114,0.09,0.248,0.059,0.378c-0.032,0.13-0.112,0.239-0.226,0.309C13.01,9.576,12.92,9.601,12.829,9.601z M4.499,5.913
		c0.277,1.491,1.533,2.6,3.071,2.675c0.057,0.003,0.112,0.004,0.168,0.004c0.814,0,1.596-0.303,2.203-0.854
		c0.531-0.482,0.888-1.124,1.019-1.827C9.747,5.697,8.618,5.12,7.734,4.266C6.848,5.123,5.716,5.699,4.499,5.913z M7.737,0.828
		c-2.049,0-3.719,1.602-3.802,3.647c-0.004,0.102-0.004,0.204,0,0.307l0,0.2c1.317-0.129,2.552-0.765,3.42-1.77
		c0.093-0.107,0.231-0.169,0.378-0.169s0.286,0.062,0.378,0.169c0.867,1.004,2.101,1.64,3.417,1.77v-0.18
		c0.085-2.109-1.55-3.886-3.643-3.97C7.836,0.829,7.786,0.828,7.737,0.828z"/>
	<path d="M0.728,18.001c-0.276,0-0.5-0.224-0.5-0.5c0-2.003,0.78-3.886,2.197-5.303c1.417-1.417,3.3-2.197,5.303-2.197
		c2.223,0,4.317,0.976,5.745,2.679c0.086,0.102,0.127,0.232,0.115,0.365s-0.074,0.254-0.177,0.34
		c-0.09,0.075-0.204,0.117-0.321,0.117c-0.148,0-0.288-0.065-0.383-0.179c-1.238-1.475-3.053-2.321-4.979-2.321
		c-1.736,0-3.369,0.676-4.596,1.904c-1.104,1.104-1.767,2.55-1.885,4.096h5.481c0.276,0,0.5,0.224,0.5,0.5s-0.224,0.5-0.5,0.5H0.728
		z"/>
</g>
</svg>
