<?xml version="1.0" encoding="utf-8"?>
<!-- Generator: Adobe Illustrator 22.1.0, SVG Export Plug-In . SVG Version: 6.00 Build 0)  -->
<svg version="1.1" id="Light" xmlns="http://www.w3.org/2000/svg" xmlns:xlink="http://www.w3.org/1999/xlink" x="0px" y="0px"
	 viewBox="0 0 24 24" style="enable-background:new 0 0 24 24;" xml:space="preserve">
<g>
	<title>single-woman-actions-image</title>
	<path d="M12.5,24c-0.827,0-1.5-0.673-1.5-1.5v-10c0-0.827,0.673-1.5,1.5-1.5h10c0.827,0,1.5,0.673,1.5,1.5v10
		c0,0.827-0.673,1.5-1.5,1.5H12.5z M22.5,23c0.276,0,0.5-0.224,0.5-0.5v-1.099l-2.307-3.461c-0.037-0.056-0.094-0.094-0.159-0.107
		c-0.018-0.004-0.035-0.005-0.051-0.005c-0.048,0-0.095,0.015-0.136,0.042c-0.027,0.018-0.049,0.039-0.066,0.065l-2.001,2.852
		c-0.078,0.113-0.202,0.188-0.338,0.208c-0.022,0.003-0.047,0.005-0.072,0.005c-0.113,0-0.223-0.039-0.312-0.11l-1.236-0.989
		c-0.045-0.036-0.098-0.055-0.154-0.055c-0.01,0-0.019,0.001-0.029,0.002c-0.069,0.008-0.127,0.04-0.169,0.093L13.934,23H22.5z
		 M12.5,12c-0.276,0-0.5,0.224-0.5,0.5v10c0,0.276,0.224,0.5,0.5,0.5h0.232l2.393-3.596c0.021-0.03,0.041-0.058,0.062-0.085
		c0.209-0.263,0.507-0.427,0.839-0.465c0.047-0.005,0.094-0.007,0.139-0.007c0.287,0,0.557,0.094,0.781,0.273l0.821,0.656
		l1.694-2.415c0.089-0.128,0.2-0.237,0.331-0.324c0.206-0.137,0.444-0.21,0.689-0.21c0.083,0,0.167,0.009,0.25,0.025
		c0.326,0.065,0.609,0.255,0.794,0.533L23,19.599V12.5c0-0.276-0.224-0.5-0.5-0.5H12.5z"/>
	<path d="M15.625,17.5c-1.103,0-2-0.897-2-2s0.897-2,2-2s2,0.897,2,2S16.728,17.5,15.625,17.5z M15.625,14.5c-0.552,0-1,0.448-1,1
		s0.448,1,1,1s1-0.448,1-1S16.177,14.5,15.625,14.5z"/>
	<path d="M12.6,9.6c-0.176,0-0.336-0.09-0.427-0.24c-0.412-0.677-0.684-1.422-0.804-2.196C10.675,8.618,9.196,9.6,7.503,9.6
		c-0.066,0-0.132-0.001-0.199-0.005c-1.627-0.075-3.01-1.033-3.672-2.426C3.511,7.938,3.24,8.682,2.827,9.36
		C2.736,9.51,2.576,9.6,2.4,9.6c-0.092,0-0.181-0.025-0.26-0.073C1.905,9.384,1.83,9.076,1.973,8.84
		C2.482,8.003,2.734,7.043,2.7,6.063l0-1.263c0-1.284,0.5-2.49,1.407-3.396C5.013,0.498,6.218-0.001,7.5-0.001
		c1.283,0,2.489,0.5,3.395,1.407S12.3,3.518,12.3,4.8v1.246c-0.034,0.994,0.218,1.957,0.727,2.794
		c0.143,0.235,0.068,0.544-0.167,0.687C12.782,9.575,12.692,9.6,12.6,9.6L12.6,9.6z M4.268,5.911c0.273,1.5,1.534,2.615,3.082,2.686
		C7.402,8.599,7.454,8.6,7.506,8.6c1.594,0,2.941-1.14,3.227-2.69C9.517,5.697,8.385,5.12,7.5,4.264
		C6.615,5.12,5.483,5.697,4.268,5.911z M7.5,3.041c0.148,0,0.285,0.062,0.378,0.169c0.869,1.005,2.104,1.641,3.422,1.77V4.8
		c0-1.015-0.395-1.969-1.112-2.687C9.47,1.395,8.516,0.999,7.501,0.999c-1.016,0-1.97,0.395-2.687,1.112
		C4.096,2.829,3.7,3.783,3.7,4.798v0.182c1.318-0.13,2.553-0.766,3.422-1.77C7.215,3.103,7.352,3.041,7.5,3.041z"/>
	<path d="M0.5,18c-0.132,0-0.261-0.053-0.354-0.146C0.052,17.76,0,17.634,0,17.5c0-0.354,0.026-0.711,0.076-1.061
		C0.603,12.768,3.795,10,7.502,10c0.355,0,0.715,0.026,1.069,0.077c0.132,0.019,0.249,0.088,0.329,0.195
		c0.08,0.107,0.114,0.239,0.095,0.371c-0.035,0.244-0.248,0.429-0.496,0.429c-0.022,0-0.045-0.001-0.068-0.005
		C8.121,11.022,7.809,11,7.501,11c-3.212,0-5.978,2.4-6.435,5.581C1.046,16.72,1.031,16.86,1.02,17H8.5C8.776,17,9,17.225,9,17.5
		S8.776,18,8.5,18H0.5z"/>
</g>
</svg>
