<?xml version="1.0" encoding="utf-8"?>
<!-- Generator: Adobe Illustrator 22.1.0, SVG Export Plug-In . SVG Version: 6.00 Build 0)  -->
<svg version="1.1" id="Light" xmlns="http://www.w3.org/2000/svg" xmlns:xlink="http://www.w3.org/1999/xlink" x="0px" y="0px"
	 viewBox="0 0 24 24" style="enable-background:new 0 0 24 24;" xml:space="preserve">
<g>
	<title>single-woman-actions-share-2</title>
	<path d="M21.25,24.003c-1.516,0-2.75-1.234-2.75-2.75c0-0.18,0.018-0.36,0.055-0.54l-2.482-0.993
		c-0.503,0.796-1.374,1.282-2.323,1.282c-1.516,0-2.75-1.234-2.75-2.75s1.234-2.75,2.75-2.75c0.797,0,1.535,0.337,2.058,0.932
		l2.868-1.721c-0.117-0.309-0.176-0.632-0.176-0.961c0-1.516,1.234-2.75,2.75-2.75S24,12.237,24,13.753
		c0,1.516-1.234,2.75-2.75,2.75c-0.797,0-1.535-0.337-2.058-0.932l-2.868,1.721c0.117,0.309,0.176,0.632,0.176,0.961
		c0,0.18-0.018,0.36-0.055,0.54l2.482,0.993c0.503-0.796,1.374-1.282,2.323-1.282c1.516,0,2.75,1.234,2.75,2.75
		S22.766,24.003,21.25,24.003z M21.25,19.503c-0.965,0-1.75,0.785-1.75,1.75s0.785,1.75,1.75,1.75S23,22.218,23,21.253
		S22.215,19.503,21.25,19.503z M13.75,16.503c-0.965,0-1.75,0.785-1.75,1.75s0.785,1.75,1.75,1.75s1.75-0.785,1.75-1.75
		c0-0.304-0.081-0.605-0.235-0.871c-0.008-0.01-0.015-0.02-0.02-0.028c-0.006-0.01-0.011-0.021-0.016-0.032
		C14.917,16.816,14.361,16.503,13.75,16.503z M19.77,14.684c0.313,0.506,0.869,0.819,1.48,0.819c0.965,0,1.75-0.785,1.75-1.75
		s-0.785-1.75-1.75-1.75s-1.75,0.785-1.75,1.75c0,0.304,0.081,0.605,0.235,0.872c0.005,0.007,0.01,0.013,0.014,0.02
		C19.757,14.656,19.764,14.67,19.77,14.684z"/>
	<path d="M7.505,9.603c-0.067,0-0.134-0.002-0.202-0.005C5.676,9.524,4.294,8.566,3.631,7.174C3.51,7.941,3.239,8.683,2.827,9.36
		C2.737,9.508,2.573,9.6,2.4,9.6l0,0c-0.092,0-0.182-0.025-0.26-0.073C2.026,9.458,1.946,9.348,1.914,9.218
		C1.883,9.088,1.904,8.954,1.973,8.84C2.482,8.003,2.734,7.044,2.7,6.065l0-1.265c0-1.284,0.5-2.49,1.407-3.396
		C5.013,0.498,6.218-0.001,7.5-0.001c1.283,0,2.489,0.5,3.395,1.407S12.3,3.518,12.3,4.8v1.246
		c-0.034,0.994,0.217,1.957,0.727,2.794c0.07,0.114,0.091,0.248,0.059,0.378c-0.031,0.13-0.112,0.24-0.226,0.309
		C12.782,9.575,12.692,9.6,12.6,9.6c-0.176,0-0.336-0.09-0.427-0.24c-0.412-0.677-0.684-1.422-0.805-2.195
		c-0.236,0.495-0.566,0.943-0.977,1.317C9.599,9.205,8.574,9.603,7.505,9.603z M4.267,5.914c0.273,1.5,1.534,2.615,3.082,2.686
		c0.052,0.002,0.104,0.004,0.156,0.004c0.819,0,1.605-0.305,2.213-0.86c0.53-0.483,0.885-1.126,1.014-1.83
		C9.517,5.699,8.385,5.122,7.5,4.266C6.615,5.123,5.483,5.699,4.267,5.914z M7.5,3.039c0.145,0,0.283,0.063,0.378,0.173
		C8.747,4.217,9.982,4.853,11.3,4.983V4.8c0-1.015-0.395-1.969-1.112-2.687C9.47,1.395,8.516,0.999,7.501,0.999
		c-1.016,0-1.97,0.395-2.687,1.112C4.096,2.829,3.7,3.783,3.7,4.798v0.185c1.318-0.13,2.553-0.766,3.422-1.771
		C7.217,3.102,7.355,3.039,7.5,3.039z"/>
	<path d="M0.5,18C0.224,18,0,17.776,0,17.5c0-2,0.781-3.883,2.199-5.301S5.499,10,7.499,9.999c2.453,0,4.755,1.202,6.156,3.215
		c0.076,0.109,0.105,0.242,0.082,0.373c-0.023,0.132-0.097,0.246-0.207,0.323C13.447,13.969,13.348,14,13.245,14
		c-0.164,0-0.317-0.08-0.41-0.215c-1.215-1.744-3.209-2.786-5.335-2.786c-1.737,0-3.369,0.676-4.597,1.904
		C1.799,14.008,1.136,15.454,1.019,17H8.5C8.776,17,9,17.224,9,17.5S8.776,18,8.5,18H0.5z"/>
</g>
</svg>
