<?xml version="1.0" encoding="utf-8"?>
<!-- Generator: Adobe Illustrator 22.1.0, SVG Export Plug-In . SVG Version: 6.00 Build 0)  -->
<svg version="1.1" id="Light" xmlns="http://www.w3.org/2000/svg" xmlns:xlink="http://www.w3.org/1999/xlink" x="0px" y="0px"
	 viewBox="0 0 24 24" style="enable-background:new 0 0 24 24;" xml:space="preserve">
<g>
	<title>single-woman-actions-text</title>
	<path d="M12.5,24c-0.827,0-1.5-0.673-1.5-1.5v-10c0-0.827,0.673-1.5,1.5-1.5h10c0.827,0,1.5,0.673,1.5,1.5v10
		c0,0.827-0.673,1.5-1.5,1.5H12.5z M12.5,12c-0.276,0-0.5,0.224-0.5,0.5v10c0,0.276,0.224,0.5,0.5,0.5h10c0.276,0,0.5-0.224,0.5-0.5
		v-10c0-0.276-0.224-0.5-0.5-0.5H12.5z"/>
	<path d="M14.5,15c-0.276,0-0.5-0.224-0.5-0.5s0.224-0.5,0.5-0.5h6c0.276,0,0.5,0.224,0.5,0.5S20.776,15,20.5,15H14.5z"/>
	<path d="M14.5,18c-0.276,0-0.5-0.224-0.5-0.5s0.224-0.5,0.5-0.5h6c0.276,0,0.5,0.224,0.5,0.5S20.776,18,20.5,18H14.5z"/>
	<path d="M14.5,21c-0.276,0-0.5-0.224-0.5-0.5s0.224-0.5,0.5-0.5h2.25c0.276,0,0.5,0.224,0.5,0.5s-0.224,0.5-0.5,0.5H14.5z"/>
	<path d="M2.4,9.6c-0.092,0-0.182-0.026-0.261-0.074C2.025,9.457,1.945,9.347,1.914,9.218c-0.031-0.13-0.01-0.264,0.06-0.378
		c0.511-0.837,0.765-1.797,0.734-2.777l0-0.524C2.706,5.528,2.705,5.517,2.705,5.507s0.001-0.021,0.002-0.032l0-0.674
		c-0.005-0.108-0.005-0.238,0-0.367c0.104-2.583,2.21-4.606,4.794-4.606c0.065,0,0.13,0.001,0.195,0.004
		c2.645,0.107,4.709,2.345,4.602,4.99l0,1.226c-0.034,0.994,0.218,1.957,0.727,2.794c0.069,0.114,0.09,0.248,0.059,0.378
		c-0.031,0.13-0.112,0.24-0.226,0.309C12.782,9.575,12.692,9.6,12.6,9.6c-0.176,0-0.336-0.09-0.427-0.24
		c-0.412-0.677-0.684-1.421-0.804-2.194C10.675,8.618,9.197,9.6,7.504,9.6c-0.066,0-0.132-0.001-0.199-0.005
		c-1.625-0.075-3.006-1.03-3.669-2.42C3.513,7.943,3.24,8.685,2.827,9.361C2.735,9.511,2.575,9.6,2.4,9.6z M4.269,5.911
		c0.273,1.501,1.534,2.615,3.082,2.686C7.403,8.599,7.456,8.6,7.508,8.6c1.594,0,2.941-1.14,3.226-2.689
		C9.518,5.697,8.386,5.121,7.5,4.264C6.615,5.12,5.484,5.696,4.269,5.911z M7.5,3.041c0.148,0,0.285,0.062,0.378,0.169
		c0.869,1.005,2.104,1.641,3.422,1.77V4.8c0.085-2.109-1.55-3.886-3.643-3.97c-0.05-0.002-0.099-0.003-0.149-0.003
		c-2.049,0-3.718,1.602-3.801,3.647c-0.004,0.102-0.004,0.204,0,0.307l0,0.199c1.315-0.131,2.548-0.767,3.415-1.77
		C7.215,3.103,7.352,3.041,7.5,3.041z"/>
	<path d="M0.5,18c-0.132,0-0.261-0.053-0.354-0.146C0.052,17.76,0,17.634,0,17.5c0-0.354,0.026-0.711,0.076-1.061
		C0.603,12.768,3.796,10,7.502,10c0.355,0,0.715,0.026,1.069,0.076c0.132,0.019,0.249,0.088,0.329,0.195
		c0.08,0.107,0.114,0.239,0.095,0.371c-0.035,0.245-0.248,0.429-0.496,0.429c-0.023,0-0.046-0.002-0.069-0.005
		C8.122,11.022,7.81,11,7.501,11c-3.212,0-5.979,2.399-6.436,5.581C1.046,16.72,1.031,16.86,1.02,17H8.5C8.776,17,9,17.225,9,17.5
		S8.776,18,8.5,18H0.5z"/>
</g>
</svg>
