<?xml version="1.0" encoding="utf-8"?>
<!-- Generator: Adobe Illustrator 22.1.0, SVG Export Plug-In . SVG Version: 6.00 Build 0)  -->
<svg version="1.1" id="Layer_1" xmlns="http://www.w3.org/2000/svg" xmlns:xlink="http://www.w3.org/1999/xlink" x="0px" y="0px"
	 viewBox="0 0 24 24" style="enable-background:new 0 0 24 24;" xml:space="preserve">
<title>synchronize-arrows-square</title>
<g>
	<path d="M14.25,24.247c-0.2,0-0.389-0.078-0.53-0.22l-3.75-3.75c-0.07-0.07-0.125-0.153-0.163-0.245
		c-0.003-0.007-0.006-0.016-0.009-0.024c-0.031-0.081-0.048-0.171-0.048-0.262c0-0.089,0.016-0.176,0.048-0.261
		c0.004-0.011,0.008-0.022,0.012-0.032c0.035-0.085,0.09-0.167,0.16-0.238l3.75-3.75c0.142-0.142,0.33-0.22,0.53-0.22
		s0.389,0.078,0.53,0.22c0.292,0.292,0.292,0.768,0,1.061l-2.47,2.47h4.939c1.241,0,2.25-1.009,2.25-2.25v-9
		c0-1.241-1.009-2.25-2.25-2.25H16.5c-0.414,0-0.75-0.336-0.75-0.75s0.336-0.75,0.75-0.75h0.75c2.068,0,3.75,1.682,3.75,3.75v9
		c0,2.068-1.682,3.75-3.75,3.75h-4.939l2.47,2.47c0.292,0.292,0.292,0.768,0,1.061C14.639,24.169,14.45,24.247,14.25,24.247z"/>
	<path d="M6.75,20.497c-2.068,0-3.75-1.682-3.75-3.75v-9c0-2.068,1.682-3.75,3.75-3.75h4.939l-2.47-2.47
		C9.078,1.386,9,1.198,9,0.997s0.078-0.389,0.22-0.53c0.141-0.142,0.33-0.22,0.53-0.22s0.389,0.078,0.53,0.22l3.75,3.75
		c0.07,0.07,0.125,0.152,0.163,0.245c0.003,0.008,0.007,0.017,0.01,0.026c0.031,0.081,0.047,0.17,0.047,0.259
		c0,0.087-0.016,0.174-0.047,0.258c-0.002,0.006-0.004,0.011-0.006,0.016C14.155,5.125,14.1,5.208,14.03,5.278L10.28,9.027
		c-0.142,0.142-0.33,0.22-0.53,0.22s-0.389-0.078-0.53-0.22C9.078,8.886,9,8.698,9,8.497s0.078-0.389,0.22-0.53l2.47-2.47H6.75
		c-1.241,0-2.25,1.009-2.25,2.25v9c0,1.241,1.009,2.25,2.25,2.25H7.5c0.414,0,0.75,0.336,0.75,0.75s-0.336,0.75-0.75,0.75H6.75z"/>
</g>
</svg>
