<?xml version="1.0" encoding="utf-8"?>
<!-- Generator: Adobe Illustrator 22.1.0, SVG Export Plug-In . SVG Version: 6.00 Build 0)  -->
<svg version="1.1" id="Layer_1" xmlns="http://www.w3.org/2000/svg" xmlns:xlink="http://www.w3.org/1999/xlink" x="0px" y="0px"
	 viewBox="0 0 24 24" style="enable-background:new 0 0 24 24;" xml:space="preserve">
<title>synchronize-arrows-square-warning</title>
<g>
	<path d="M6.75,21.25C4.682,21.25,3,19.568,3,17.5v-4.942l-1.72,1.72c-0.142,0.142-0.33,0.22-0.53,0.22s-0.389-0.078-0.53-0.22
		C0.078,14.136,0,13.947,0,13.747s0.078-0.389,0.22-0.53l3-3c0.141-0.142,0.33-0.22,0.531-0.22s0.39,0.078,0.531,0.221l2.999,2.999
		c0.292,0.292,0.292,0.768,0,1.061c-0.142,0.142-0.33,0.22-0.53,0.22s-0.389-0.078-0.53-0.22l-1.72-1.72V17.5
		c0,1.241,1.009,2.25,2.25,2.25h10.5c1.241,0,2.25-1.009,2.25-2.25v-0.75c0-0.414,0.336-0.75,0.75-0.75S21,16.336,21,16.75v0.75
		c0,2.068-1.682,3.75-3.75,3.75H6.75z"/>
	<path d="M20.25,14.497c-0.05,0-0.099-0.005-0.148-0.015c-0.03-0.006-0.059-0.015-0.087-0.024c-0.014-0.004-0.034-0.01-0.054-0.019
		c-0.033-0.014-0.062-0.03-0.091-0.047c-0.004-0.002-0.027-0.015-0.031-0.017c-0.048-0.032-0.085-0.063-0.119-0.097l-3-3
		c-0.142-0.142-0.22-0.33-0.22-0.53c0-0.2,0.078-0.389,0.22-0.53s0.33-0.22,0.53-0.22s0.389,0.078,0.53,0.22l1.72,1.72V7
		c0-1.241-1.009-2.25-2.25-2.25H6.75C5.509,4.75,4.5,5.759,4.5,7v0.75c0,0.414-0.336,0.75-0.75,0.75S3,8.164,3,7.75V7
		c0-2.068,1.682-3.75,3.75-3.75h10.5C19.318,3.25,21,4.932,21,7v4.936l1.72-1.72c0.142-0.142,0.33-0.22,0.53-0.22
		s0.389,0.078,0.53,0.22c0.142,0.141,0.22,0.33,0.22,0.53c0,0.2-0.078,0.389-0.22,0.53l-3,3c-0.035,0.035-0.073,0.066-0.114,0.093
		c-0.011,0.007-0.028,0.017-0.042,0.025c-0.027,0.016-0.056,0.031-0.086,0.044c-0.015,0.006-0.043,0.016-0.059,0.02
		c-0.025,0.009-0.053,0.017-0.083,0.023C20.349,14.492,20.3,14.497,20.25,14.497z"/>
	<path d="M12,13.771c-0.414,0-0.75-0.336-0.75-0.75v-6c0-0.414,0.336-0.75,0.75-0.75s0.75,0.336,0.75,0.75v6
		C12.75,13.435,12.414,13.771,12,13.771z"/>
	<circle cx="12" cy="16.775" r="1.125"/>
</g>
</svg>
