<?xml version="1.0" encoding="utf-8"?>
<!-- Generator: Adobe Illustrator 22.1.0, SVG Export Plug-In . SVG Version: 6.00 Build 0)  -->
<svg version="1.1" id="Layer_1" xmlns="http://www.w3.org/2000/svg" xmlns:xlink="http://www.w3.org/1999/xlink" x="0px" y="0px"
	 viewBox="0 0 24 24" style="enable-background:new 0 0 24 24;" xml:space="preserve">
<title>time-clock-file-cash</title>
<g>
	<path d="M17.25,21.75c-0.414,0-0.75-0.336-0.75-0.75h-0.75C15.336,21,15,20.664,15,20.25s0.336-0.75,0.75-0.75h2.031
		c0.242,0,0.458-0.146,0.548-0.371c0.059-0.146,0.057-0.307-0.005-0.453c-0.062-0.146-0.177-0.259-0.323-0.317l-2.062-0.825
		c-0.8-0.32-1.316-1.083-1.315-1.945c0-0.559,0.219-1.084,0.614-1.478c0.344-0.343,0.786-0.552,1.262-0.6V13.5
		c0-0.414,0.336-0.75,0.75-0.75S18,13.086,18,13.5h0.75c0.414,0,0.75,0.336,0.75,0.75S19.164,15,18.75,15h-2.033
		c-0.159,0-0.308,0.062-0.42,0.173c-0.112,0.112-0.174,0.26-0.174,0.418c0,0.244,0.146,0.46,0.372,0.551l2.064,0.825
		c0.52,0.209,0.926,0.607,1.145,1.121s0.225,1.083,0.016,1.601c-0.292,0.728-0.954,1.22-1.721,1.3V21
		C18,21.414,17.664,21.75,17.25,21.75z"/>
	<path d="M17.25,24c-3.722,0-6.75-3.028-6.75-6.75s3.028-6.75,6.75-6.75S24,13.528,24,17.25S20.972,24,17.25,24z M17.25,12
		C14.355,12,12,14.355,12,17.25s2.355,5.25,5.25,5.25s5.25-2.355,5.25-5.25S20.145,12,17.25,12z"/>
	<path d="M8.25,15c-1.402,0-2.721-0.546-3.712-1.537C3.546,12.471,3,11.153,3,9.75c0-2.895,2.355-5.25,5.25-5.25
		c2.233,0,4.226,1.417,4.959,3.526c0.135,0.391-0.072,0.819-0.462,0.955c-0.08,0.028-0.163,0.042-0.246,0.042
		c-0.319,0-0.604-0.203-0.708-0.504C11.268,7.012,9.844,6,8.249,6C6.182,6,4.499,7.683,4.5,9.75c0,2.068,1.682,3.75,3.75,3.75
		C8.663,13.5,9,13.836,9,14.25S8.664,15,8.25,15z"/>
	<path d="M8.25,10.5c-0.414,0-0.75-0.336-0.75-0.75v-1.5c0-0.414,0.336-0.75,0.75-0.75S9,7.836,9,8.25V9h0.75
		c0.414,0,0.75,0.336,0.75,0.75s-0.336,0.75-0.75,0.75H8.25z"/>
	<path d="M2.25,21C1.009,21,0,19.991,0,18.75V2.25C0,1.009,1.009,0,2.25,0h10.629c0.601,0.001,1.166,0.235,1.591,0.66l2.872,2.871
		C17.766,3.956,18,4.521,18,5.122V7.5c0,0.414-0.336,0.75-0.75,0.75S16.5,7.914,16.5,7.5V5.122c0-0.198-0.08-0.391-0.219-0.531
		L13.409,1.72c-0.142-0.142-0.33-0.22-0.53-0.22H2.25C1.836,1.5,1.5,1.836,1.5,2.25v16.5c0,0.414,0.336,0.75,0.75,0.75H7.5
		c0.414,0,0.75,0.336,0.75,0.75S7.914,21,7.5,21H2.25z"/>
</g>
</svg>
