<?xml version="1.0" encoding="utf-8"?>
<!-- Generator: Adobe Illustrator 22.1.0, SVG Export Plug-In . SVG Version: 6.00 Build 0)  -->
<svg version="1.1" id="Layer_1" xmlns="http://www.w3.org/2000/svg" xmlns:xlink="http://www.w3.org/1999/xlink" x="0px" y="0px"
	 viewBox="0 0 24 24" style="enable-background:new 0 0 24 24;" xml:space="preserve">
<title>time-clock-file-check</title>
<g>
	<path d="M17.25,24c-3.722,0-6.75-3.028-6.75-6.75s3.028-6.75,6.75-6.75S24,13.528,24,17.25S20.972,24,17.25,24z M17.25,12
		C14.355,12,12,14.355,12,17.25s2.355,5.25,5.25,5.25s5.25-2.355,5.25-5.25S20.145,12,17.25,12z"/>
	<path d="M16.417,20.428c-0.328,0-0.64-0.104-0.902-0.302c-0.057-0.043-0.109-0.088-0.158-0.137l-1.499-1.499
		c-0.292-0.292-0.292-0.768,0-1.061c0.142-0.142,0.33-0.22,0.53-0.22s0.389,0.078,0.53,0.22l1.5,1.5l2.906-3.874
		c0.141-0.188,0.365-0.3,0.6-0.3c0.163,0,0.318,0.052,0.449,0.149c0.332,0.249,0.399,0.72,0.151,1.051l-2.905,3.873
		C17.336,20.204,16.887,20.428,16.417,20.428z"/>
	<path d="M8.25,15c-1.402,0-2.721-0.546-3.712-1.537C3.546,12.471,3,11.153,3,9.75c0-2.895,2.355-5.25,5.25-5.25
		c2.233,0,4.226,1.417,4.959,3.526c0.135,0.391-0.072,0.819-0.462,0.955c-0.08,0.028-0.163,0.042-0.246,0.042
		c-0.319,0-0.604-0.203-0.708-0.504C11.268,7.012,9.844,6,8.249,6C6.182,6,4.499,7.683,4.5,9.75c0,2.068,1.682,3.75,3.75,3.75
		C8.663,13.5,9,13.836,9,14.25S8.664,15,8.25,15z"/>
	<path d="M8.25,10.5c-0.414,0-0.75-0.336-0.75-0.75v-1.5c0-0.414,0.336-0.75,0.75-0.75S9,7.836,9,8.25V9h0.75
		c0.414,0,0.75,0.336,0.75,0.75s-0.336,0.75-0.75,0.75H8.25z"/>
	<path d="M2.25,21C1.009,21,0,19.991,0,18.75V2.25C0,1.009,1.009,0,2.25,0h10.629c0.601,0.001,1.166,0.235,1.591,0.66l2.872,2.871
		C17.766,3.956,18,4.521,18,5.122V7.5c0,0.414-0.336,0.75-0.75,0.75S16.5,7.914,16.5,7.5V5.122c0-0.198-0.08-0.391-0.219-0.531
		L13.409,1.72c-0.142-0.142-0.33-0.22-0.53-0.22H2.25C1.836,1.5,1.5,1.836,1.5,2.25v16.5c0,0.414,0.336,0.75,0.75,0.75H7.5
		c0.414,0,0.75,0.336,0.75,0.75S7.914,21,7.5,21H2.25z"/>
</g>
</svg>
