<?xml version="1.0" encoding="utf-8"?>
<!-- Generator: Adobe Illustrator 22.1.0, SVG Export Plug-In . SVG Version: 6.00 Build 0)  -->
<svg version="1.1" id="Layer_1" xmlns="http://www.w3.org/2000/svg" xmlns:xlink="http://www.w3.org/1999/xlink" x="0px" y="0px"
	 viewBox="0 0 24 24" style="enable-background:new 0 0 24 24;" xml:space="preserve">
<title>time-clock-file-home</title>
<g>
	<path d="M15.75,24c-0.011,0-0.027-0.001-0.041-0.002l-1.459,0c-1.241,0-2.25-1.009-2.25-2.25v-4.147l-0.256,0.224
		c-0.137,0.12-0.312,0.186-0.494,0.186c-0.216,0-0.422-0.093-0.564-0.256c-0.272-0.312-0.241-0.786,0.07-1.059l4.518-3.954
		c0.545-0.477,1.247-0.739,1.976-0.739c0.729,0,1.43,0.262,1.976,0.739l4.519,3.955c0.311,0.273,0.343,0.747,0.07,1.058
		c-0.143,0.163-0.348,0.256-0.565,0.256c-0.181,0-0.357-0.066-0.493-0.185L22.5,17.601v4.147c0,1.241-1.009,2.25-2.25,2.25h-1.462
		C18.774,23.999,18.76,24,18.75,24H15.75z M20.25,22.498c0.414,0,0.75-0.336,0.75-0.75v-5.459l-2.762-2.417
		c-0.272-0.238-0.623-0.369-0.988-0.369s-0.716,0.131-0.988,0.369L13.5,16.289v5.459c0,0.414,0.336,0.75,0.75,0.75H15V20.25
		c0-1.241,1.009-2.25,2.25-2.25s2.25,1.009,2.25,2.25v2.248H20.25z M18,22.498V20.25c0-0.414-0.336-0.75-0.75-0.75
		s-0.75,0.336-0.75,0.75v2.248H18z"/>
	<path d="M2.25,21C1.009,21,0,19.991,0,18.75V2.25C0,1.009,1.009,0,2.25,0h10.629c0.601,0.001,1.166,0.235,1.591,0.66l2.872,2.871
		C17.766,3.956,18,4.521,18,5.122V9.75c0,0.414-0.336,0.75-0.75,0.75s-0.75-0.336-0.75-0.75V5.122c0-0.198-0.08-0.391-0.219-0.531
		L13.408,1.72c-0.142-0.142-0.33-0.22-0.53-0.22H2.25C1.836,1.5,1.5,1.836,1.5,2.25v16.5c0,0.414,0.336,0.75,0.75,0.75h6
		C8.663,19.5,9,19.836,9,20.25S8.663,21,8.25,21H2.25z"/>
	<path d="M8.25,15C5.355,15,3,12.645,3,9.75C3,6.855,5.355,4.5,8.25,4.5s5.25,2.355,5.25,5.25C13.5,12.645,11.144,15,8.25,15z
		 M8.25,6C6.182,6,4.5,7.682,4.5,9.75s1.682,3.75,3.75,3.75S12,11.818,12,9.75S10.317,6,8.25,6z"/>
	<path d="M8.25,10.5c-0.414,0-0.75-0.336-0.75-0.75v-1.5c0-0.414,0.336-0.75,0.75-0.75S9,7.836,9,8.25V9h0.75
		c0.414,0,0.75,0.336,0.75,0.75s-0.336,0.75-0.75,0.75H8.25z"/>
</g>
</svg>
