<svg xmlns="http://www.w3.org/2000/svg" viewBox="0 0 24 24"><defs><style>.a{fill:none;stroke:currentColor;stroke-linecap:round;stroke-linejoin:round;}</style></defs><title>synchronize-arrows-square-warning</title><path class="a" d="M20,17.494a3,3,0,0,1-3,3H7a3,3,0,0,1-3-3v-8"/><path class="a" d="M4,6.494a3,3,0,0,1,3-3H17a3,3,0,0,1,3,3v8"/><polyline class="a" points="1.004 11.494 4.004 9.494 7.004 11.494"/><polyline class="a" points="17.004 12.494 20.004 14.494 23.004 12.494"/><line class="a" x1="12.004" y1="6.494" x2="12.004" y2="13.475"/><path class="a" d="M12,15.725a.25.25,0,1,1-.25.25.25.25,0,0,1,.25-.25"/></svg>