<svg xmlns="http://www.w3.org/2000/svg" viewBox="0 0 24 24"><defs><style>.a{fill:none;stroke:currentColor;stroke-linecap:round;stroke-linejoin:round;stroke-width:1.5px;}</style></defs><title>help-question-network</title><circle class="a" cx="3" cy="21" r="2.25"/><line class="a" x1="4.679" y1="19.502" x2="6.749" y2="18"/><circle class="a" cx="3" cy="3" r="2.25"/><line class="a" x1="4.679" y1="4.499" x2="6.749" y2="6"/><circle class="a" cx="21" cy="21" r="2.25"/><line class="a" x1="19.322" y1="19.502" x2="17.252" y2="18"/><circle class="a" cx="21" cy="3" r="2.25"/><line class="a" x1="19.322" y1="4.499" x2="17.252" y2="6"/><path class="a" d="M12,17.25a.375.375,0,1,1-.375.375A.375.375,0,0,1,12,17.25"/><path class="a" d="M9,9.75a3,3,0,1,1,4,2.829,1.5,1.5,0,0,0-1,1.415v.631"/></svg>