<svg xmlns="http://www.w3.org/2000/svg" viewBox="0 0 24 24"><defs><style>.a{fill:none;stroke:currentColor;stroke-linecap:round;stroke-linejoin:round;stroke-width:1.5px;}</style></defs><title>retouch-select</title><path class="a" d="M19.5,7.5c-.009,2.355,1.14,3.694,3.75,3.75-2.423-.009-3.627,1.291-3.75,3.75-.021-2.32-1.06-3.753-3.75-3.75C18.157,11.216,19.491,10.055,19.5,7.5Z"/><path class="a" d="M11.283.75c-.013,3.318,1.605,5.2,5.282,5.283-3.413-.013-5.109,1.818-5.282,5.282C11.254,8.047,9.789,6.028,6,6.033,9.39,5.985,11.27,4.349,11.283.75Z"/><path class="a" d="M.75,19.728v2.348A1.177,1.177,0,0,0,1.924,23.25H4.272"/><path class="a" d="M4.272.75H1.924A1.177,1.177,0,0,0,.75,1.924V4.272"/><path class="a" d="M23.25,4.272V1.924A1.177,1.177,0,0,0,22.076.75H19.728"/><path class="a" d="M19.728,23.25h2.348a1.177,1.177,0,0,0,1.174-1.174V19.728"/><path class="a" d="M16.6,17.364A7.125,7.125,0,0,1,3.75,13.207,6.963,6.963,0,0,1,4.94,9.3"/></svg>