<svg xmlns="http://www.w3.org/2000/svg" viewBox="0 0 24 24"><defs><style>.a{fill:none;stroke:currentColor;stroke-linecap:round;stroke-linejoin:round;stroke-width:1.5px;}</style></defs><title>retouch-sticker</title><path class="a" d="M7.125,9a.375.375,0,1,1-.375.375A.375.375,0,0,1,7.125,9"/><path class="a" d="M5.513,15.424A7.334,7.334,0,0,0,12,19.337c.168,0,.334-.006.5-.017q.207-.014.411-.039"/><path class="a" d="M23.239,11.523A11.25,11.25,0,1,0,12,23.25c.168,0,.334,0,.5-.012"/><path class="a" d="M14.446,9.66a2.308,2.308,0,0,1,3.913,0"/><line class="a" x1="23.239" y1="11.523" x2="12.5" y2="23.238"/><path class="a" d="M12.489,23.25v-.978A10.761,10.761,0,0,1,23.25,11.511"/></svg>