<?xml version="1.0" encoding="utf-8"?>
<!-- Generator: Adobe Illustrator 22.1.0, SVG Export Plug-In . SVG Version: 6.00 Build 0)  -->
<svg version="1.1" id="Layer_1" xmlns="http://www.w3.org/2000/svg" xmlns:xlink="http://www.w3.org/1999/xlink" x="0px" y="0px"
	 viewBox="0 0 24 24" style="enable-background:new 0 0 24 24;" xml:space="preserve">
<g>
	<title>network-warning</title>
	<path d="M8.501,23.457c-0.051,0-0.102-0.008-0.152-0.024c-2.921-0.936-5.344-2.928-6.829-5.61c-0.039-0.047-0.069-0.102-0.09-0.165
		l-0.029-0.052c-0.02-0.037-0.041-0.073-0.06-0.11c-0.945-1.836-1.402-3.887-1.323-5.934c-0.003-0.014-0.007-0.037-0.007-0.064
		c0-0.041,0.007-0.075,0.014-0.098c0.054-1.04,0.243-2.068,0.56-3.057c0.346-1.08,0.841-2.103,1.471-3.041
		c0.024-0.056,0.057-0.107,0.099-0.15c1.108-1.597,2.617-2.916,4.367-3.816C8,0.576,9.583,0.136,11.228,0.029
		c0.007-0.001,0.025-0.002,0.043-0.002c0.249-0.016,0.51-0.024,0.763-0.024c0.241,0,0.483,0.007,0.718,0.022
		c0.989,0.063,1.973,0.249,2.925,0.555c2.472,0.793,4.66,2.411,6.162,4.559c0.052,0.049,0.092,0.108,0.119,0.174
		c1.24,1.839,1.946,3.971,2.043,6.165c0.012,0.275-0.202,0.509-0.478,0.521c0,0,0,0-0.001,0c-0.289,0-0.509-0.21-0.521-0.478
		c-0.087-1.96-0.704-3.866-1.788-5.523h-4.49c0.399,1.105,0.681,2.259,0.84,3.434c0.037,0.273-0.156,0.526-0.429,0.562
		c-0.023,0.003-0.045,0.004-0.067,0.004c-0.249,0-0.462-0.186-0.495-0.433c-0.164-1.222-0.473-2.421-0.919-3.568h-7.29
		c-0.628,1.597-0.967,3.277-1.008,5l5.146,0c0.276,0,0.5,0.224,0.5,0.5s-0.224,0.5-0.5,0.5l-5.137,0
		c0.07,1.645,0.407,3.325,1.005,4.999h2.632c0.276,0,0.5,0.224,0.5,0.5s-0.224,0.5-0.5,0.5H8.757
		c0.388,0.927,0.853,1.849,1.385,2.746c0.068,0.115,0.087,0.249,0.054,0.379c-0.033,0.13-0.115,0.238-0.23,0.306
		c-0.077,0.046-0.165,0.07-0.255,0.07c-0.176,0-0.341-0.094-0.43-0.245c-0.633-1.068-1.174-2.163-1.608-3.256H2.789
		c1.375,2.123,3.442,3.706,5.865,4.483c0.263,0.084,0.408,0.366,0.323,0.629C8.911,23.317,8.719,23.457,8.501,23.457z M7.308,16.998
		c-0.566-1.673-0.885-3.352-0.951-4.999l-5.348,0c-0.003,1.724,0.411,3.447,1.201,5H7.308z M6.348,10.998
		c0.038-1.717,0.354-3.397,0.94-5H2.796C2.26,6.822,1.837,7.712,1.537,8.647c-0.245,0.765-0.407,1.555-0.482,2.35L6.348,10.998z
		 M20.477,4.998c-1.345-1.63-3.101-2.824-5.106-3.467c-0.451-0.145-0.915-0.261-1.385-0.347c0.952,1.162,1.736,2.442,2.337,3.814
		H20.477z M15.224,4.998c-0.688-1.456-1.601-2.794-2.719-3.983c-0.162-0.007-0.326-0.011-0.489-0.011
		c-0.17,0-0.342,0.004-0.515,0.012c-1.122,1.243-2.03,2.58-2.703,3.983H15.224z M7.695,4.998c0.595-1.336,1.384-2.617,2.351-3.818
		C8.982,1.374,7.953,1.724,6.98,2.224C5.635,2.917,4.476,3.848,3.528,4.998H7.695z"/>
	<circle cx="17.501" cy="20.749" r="0.75"/>
	<path d="M17.501,18.999c-0.276,0-0.5-0.224-0.5-0.5v-3c0-0.276,0.224-0.5,0.5-0.5s0.5,0.224,0.5,0.5v3
		C18.001,18.774,17.777,18.999,17.501,18.999z"/>
	<path d="M12.445,23.996c-0.506,0-0.966-0.256-1.232-0.684c-0.263-0.427-0.282-0.968-0.049-1.411l5.056-9.635
		c0.137-0.257,0.344-0.463,0.597-0.599c0.21-0.112,0.445-0.171,0.681-0.171c0.537,0,1.027,0.292,1.28,0.764
		c0.002,0.003,5.059,9.641,5.059,9.641c0.233,0.443,0.214,0.982-0.048,1.409c-0.267,0.43-0.727,0.686-1.231,0.686H12.445z
		 M17.5,12.496c-0.074,0-0.145,0.018-0.211,0.053c-0.079,0.042-0.143,0.106-0.185,0.185l-5.054,9.632
		c-0.069,0.132-0.064,0.293,0.014,0.419c0.082,0.131,0.224,0.21,0.38,0.21h10.114c0.157,0,0.3-0.079,0.382-0.212
		c0.077-0.125,0.083-0.286,0.013-0.418l-5.056-9.635C17.819,12.587,17.667,12.496,17.5,12.496z"/>
</g>
</svg>
