<?xml version="1.0" encoding="utf-8"?>
<!-- Generator: Adobe Illustrator 22.1.0, SVG Export Plug-In . SVG Version: 6.00 Build 0)  -->
<svg version="1.1" id="Layer_1" xmlns="http://www.w3.org/2000/svg" xmlns:xlink="http://www.w3.org/1999/xlink" x="0px" y="0px"
	 viewBox="0 0 24 24" style="enable-background:new 0 0 24 24;" xml:space="preserve">
<g>
	<title>network-phone</title>
	<path d="M15,24c-0.827,0-1.5-0.673-1.5-1.5v-13C13.5,8.673,14.173,8,15,8h7c0.827,0,1.5,0.673,1.5,1.5v13
		c0,0.827-0.673,1.5-1.5,1.5H15z M14.5,22.5c0,0.276,0.224,0.5,0.5,0.5h7c0.276,0,0.5-0.224,0.5-0.5V21h-8V22.5z M22.5,20v-9h-8v9
		H22.5z M22.5,10V9.5C22.5,9.224,22.276,9,22,9h-7c-0.276,0-0.5,0.224-0.5,0.5V10H22.5z"/>
	<path d="M18,22.5c-0.276,0-0.5-0.224-0.5-0.5s0.224-0.5,0.5-0.5h1c0.276,0,0.5,0.224,0.5,0.5s-0.224,0.5-0.5,0.5H18z"/>
	<path d="M11,21c-2.805-0.001-5.441-1.095-7.423-3.079c-0.648-0.649-1.21-1.381-1.67-2.177c-0.008-0.013-0.016-0.025-0.022-0.039
		c-0.904-1.578-1.381-3.379-1.38-5.211C0.505,8.686,0.978,6.9,1.873,5.327c0.021-0.059,0.052-0.112,0.09-0.156
		C3.846,1.988,7.3,0.008,10.983,0c0,0,0.026,0,0.026,0c4.356,0.002,8.306,2.745,9.831,6.825c0.047,0.125,0.042,0.261-0.013,0.383
		s-0.155,0.214-0.28,0.261C20.491,7.489,20.432,7.5,20.372,7.5c-0.207,0-0.396-0.131-0.468-0.325C19.754,6.775,19.575,6.381,19.37,6
		h-3.522c0.094,0.305,0.172,0.606,0.233,0.897c0.027,0.131,0.002,0.264-0.071,0.376c-0.073,0.112-0.185,0.188-0.316,0.216
		C15.66,7.496,15.625,7.5,15.591,7.5c-0.235,0-0.441-0.167-0.489-0.398C15.026,6.74,14.923,6.37,14.797,6H7.242
		C6.75,7.364,6.5,8.877,6.5,10.5c0,1.621,0.248,3.134,0.737,4.5H11c0.276,0,0.5,0.224,0.5,0.5S11.276,16,11,16H7.651
		c0.341,0.722,0.751,1.387,1.223,1.98c1.156,1.453,2.339,2.068,2.351,2.074c0.02,0.01,0.055,0.035,0.071,0.05
		c0.008,0.004,0.04,0.025,0.07,0.059c0.026,0.028,0.041,0.054,0.05,0.069c0.016,0.024,0.035,0.054,0.05,0.094
		c0.014,0.038,0.019,0.071,0.022,0.091c0.006,0.022,0.012,0.06,0.012,0.083c0,0.015-0.001,0.03-0.004,0.045
		c-0.003,0.025-0.008,0.046-0.012,0.06c-0.006,0.027-0.011,0.054-0.023,0.084c-0.004,0.012-0.009,0.025-0.015,0.036
		c-0.022,0.045-0.052,0.086-0.089,0.124c-0.009,0.01-0.026,0.024-0.037,0.032c-0.022,0.02-0.06,0.046-0.102,0.067
		c-0.008,0.004-0.038,0.017-0.046,0.02C11.113,20.989,11.058,21,11.003,21C11.002,21,11.001,21,11,21L11,21z M3.266,16
		c1.438,2.024,3.566,3.385,5.978,3.835c-0.401-0.363-0.78-0.768-1.134-1.21C7.49,17.85,6.967,16.968,6.556,16H3.266z M6.182,15
		C5.729,13.614,5.5,12.102,5.5,10.5c0-1.602,0.229-3.114,0.682-4.5h-3.54c-0.744,1.377-1.137,2.928-1.137,4.496
		C1.504,12.066,1.897,13.62,2.642,15H6.182z M18.744,5c-1.43-2-3.609-3.385-6.011-3.838C13.925,2.214,14.866,3.524,15.486,5H18.744z
		 M14.392,5c-0.755-1.601-1.925-2.946-3.405-3.913C10.349,1.49,8.77,2.667,7.659,5H14.392z M6.556,5
		C6.968,4.032,7.49,3.15,8.11,2.375c0.354-0.442,0.733-0.847,1.134-1.211C6.831,1.615,4.704,2.976,3.266,5H6.556z"/>
</g>
</svg>
