<?xml version="1.0" encoding="utf-8"?>
<!-- Generator: Adobe Illustrator 22.1.0, SVG Export Plug-In . SVG Version: 6.00 Build 0)  -->
<svg version="1.1" id="Layer_1" xmlns="http://www.w3.org/2000/svg" xmlns:xlink="http://www.w3.org/1999/xlink" x="0px" y="0px"
	 viewBox="0 0 24 24" style="enable-background:new 0 0 24 24;" xml:space="preserve">
<g>
	<title>network-heart</title>
	<path d="M11.339,23.984c-3.189-0.176-6.129-1.588-8.267-3.976c-0.593-0.663-1.116-1.397-1.554-2.183
		c-0.037-0.044-0.066-0.096-0.086-0.155c-0.996-1.852-1.483-3.952-1.41-6.077c-0.006-0.026-0.012-0.057-0.012-0.092
		c0-0.043,0.006-0.086,0.019-0.13l0.001-0.03C0.149,9.189,0.847,7.107,2.05,5.32C2.077,5.25,2.12,5.187,2.176,5.136
		c2.108-3.01,5.407-4.87,9.056-5.105c0.005,0,0.03-0.002,0.035-0.002c0.253-0.016,0.52-0.025,0.778-0.025
		c0.211,0,0.422,0.006,0.627,0.017c5.758,0.318,10.483,4.698,11.236,10.415c0.018,0.132-0.018,0.264-0.099,0.37
		c-0.081,0.106-0.199,0.174-0.332,0.191c-0.023,0.003-0.045,0.004-0.066,0.004c-0.254,0-0.462-0.183-0.495-0.435
		c-0.217-1.643-0.785-3.178-1.691-4.565h-4.509c0.521,1.443,0.835,2.944,0.936,4.467c0.018,0.275-0.191,0.514-0.466,0.532
		c-0.006,0-0.028,0.001-0.033,0.001c-0.262,0-0.481-0.205-0.499-0.467c-0.102-1.551-0.44-3.075-1.006-4.533H8.332
		C7.693,7.601,7.35,9.281,7.311,11.003l3.191,0c0.276,0,0.5,0.224,0.5,0.5s-0.224,0.5-0.5,0.5l-3.179,0
		c0.073,1.645,0.418,3.324,1.025,5l1.153,0c0.276,0,0.5,0.224,0.5,0.5s-0.224,0.5-0.5,0.5l-0.757,0
		c0.74,1.742,1.759,3.484,3.034,5.184c0.014,0.018,0.034,0.056,0.042,0.077c0.005,0.007,0.022,0.037,0.035,0.078
		c0.013,0.042,0.015,0.078,0.017,0.102c0,0,0,0,0,0c0.001,0,0.007,0.031,0.005,0.07c-0.001,0.014-0.003,0.031-0.007,0.046
		c-0.005,0.027-0.011,0.049-0.016,0.063c-0.01,0.033-0.019,0.064-0.037,0.098c-0.012,0.022-0.026,0.043-0.043,0.063
		c-0.015,0.02-0.034,0.044-0.061,0.07c-0.013,0.014-0.028,0.028-0.042,0.038c-0.024,0.018-0.05,0.03-0.064,0.036
		c-0.011,0.007-0.044,0.022-0.056,0.027c-0.061,0.022-0.118,0.033-0.175,0.033C11.37,23.986,11.348,23.985,11.339,23.984z
		 M2.79,18.002c0.308,0.471,0.652,0.921,1.027,1.34c1.706,1.906,4.001,3.147,6.509,3.532c-1.103-1.596-1.992-3.231-2.646-4.871
		L2.79,18.002z M7.31,17.003c-0.574-1.683-0.899-3.362-0.968-5l-5.328-0.001c-0.002,1.745,0.409,3.466,1.194,5L7.31,17.003z
		 M6.331,11.003c0.037-1.708,0.357-3.387,0.952-5.001H2.798c-0.977,1.496-1.575,3.216-1.738,5L6.331,11.003z M20.491,5.002
		c-1.65-1.993-3.972-3.354-6.508-3.818c0.948,1.156,1.731,2.437,2.334,3.818H20.491z M15.222,5.002
		c-0.691-1.467-1.605-2.806-2.72-3.987c-0.16-0.007-0.318-0.01-0.477-0.01c-0.172,0-0.347,0.004-0.522,0.012
		c-1.131,1.251-2.047,2.59-2.727,3.985H15.222z M7.692,5.002c0.599-1.338,1.389-2.619,2.356-3.819
		c-2.536,0.462-4.86,1.824-6.514,3.819H7.692z"/>
	<path d="M17.501,24.002c-0.135,0-0.267-0.056-0.361-0.154l-5.114-5.335c-1.069-1.069-1.333-2.702-0.654-4.062
		c0.601-1.202,1.812-1.948,3.159-1.948c0.55,0,1.078,0.125,1.572,0.372c0.339,0.17,0.647,0.392,0.916,0.66l0.482,0.482l0.481-0.482
		c0.666-0.666,1.551-1.033,2.493-1.033s1.827,0.367,2.493,1.033c0.268,0.268,0.49,0.576,0.66,0.916
		c0.679,1.36,0.414,2.995-0.661,4.069l-5.107,5.328C17.768,23.946,17.637,24.002,17.501,24.002z M14.531,13.503
		c-0.966,0-1.833,0.535-2.264,1.396c-0.487,0.974-0.297,2.145,0.473,2.915l4.76,4.966l4.753-4.958
		c0.776-0.776,0.967-1.948,0.48-2.922c-0.121-0.243-0.281-0.464-0.473-0.656c-0.477-0.477-1.112-0.74-1.786-0.74
		s-1.309,0.263-1.786,0.74l-0.835,0.835c-0.091,0.091-0.22,0.144-0.354,0.144s-0.262-0.052-0.354-0.144l-0.835-0.835
		c-0.193-0.192-0.413-0.352-0.656-0.473C15.303,13.593,14.925,13.503,14.531,13.503z"/>
</g>
</svg>
