<?xml version="1.0" encoding="utf-8"?>
<!-- Generator: Adobe Illustrator 22.1.0, SVG Export Plug-In . SVG Version: 6.00 Build 0)  -->
<svg version="1.1" id="Layer_1" xmlns="http://www.w3.org/2000/svg" xmlns:xlink="http://www.w3.org/1999/xlink" x="0px" y="0px"
	 viewBox="0 0 24 24" style="enable-background:new 0 0 24 24;" xml:space="preserve">
<g>
	<title>network-browser</title>
	<circle cx="3.5" cy="2.5" r="0.75"/>
	<circle cx="5.5" cy="2.5" r="0.75"/>
	<circle cx="7.5" cy="2.5" r="0.75"/>
	<path d="M2.5,17C1.121,17,0,15.878,0,14.5v-12C0,1.121,1.121,0,2.5,0h16C19.878,0,21,1.121,21,2.5v6C21,8.776,20.776,9,20.5,9
		S20,8.776,20,8.5V5H1v9.5C1,15.327,1.673,16,2.5,16h5C7.776,16,8,16.224,8,16.5S7.776,17,7.5,17H2.5z M20,4V2.5
		C20,1.673,19.327,1,18.5,1h-16C1.673,1,1,1.673,1,2.5V4H20z"/>
	<path d="M16.5,24c-2.874,0-5.532-1.681-6.773-4.281c-0.008-0.017-0.015-0.031-0.021-0.047C9.241,18.688,9,17.614,9,16.5
		s0.241-2.188,0.715-3.192c0-0.001,0.011-0.024,0.011-0.025C10.968,10.681,13.626,9,16.5,9c2.874,0,5.532,1.681,6.773,4.282
		c0.008,0.015,0.014,0.03,0.02,0.045C23.759,14.312,24,15.386,24,16.5s-0.241,2.188-0.715,3.193c0,0.001-0.011,0.024-0.011,0.025
		C22.032,22.319,19.374,24,16.5,24z M11.026,20c0.937,1.461,2.413,2.486,4.094,2.852c-0.641-0.778-1.164-1.749-1.534-2.852H11.026z
		 M19.414,20c-0.37,1.103-0.893,2.074-1.534,2.852c1.681-0.365,3.157-1.391,4.094-2.852H19.414z M14.641,20
		c0.443,1.187,1.08,2.163,1.859,2.849c0.779-0.686,1.416-1.662,1.859-2.849H14.641z M22.498,19c0.267-0.638,0.428-1.309,0.481-2
		h-2.995c-0.033,0.655-0.131,1.337-0.286,2H22.498z M18.673,19c0.168-0.655,0.274-1.338,0.31-2h-4.967
		c0.036,0.662,0.142,1.345,0.31,2H18.673z M13.302,19c-0.156-0.663-0.253-1.345-0.286-2h-2.995c0.053,0.691,0.214,1.362,0.481,2
		H13.302z M22.979,16c-0.053-0.691-0.214-1.362-0.481-2h-2.8c0.156,0.663,0.253,1.345,0.286,2H22.979z M18.983,16
		c-0.036-0.662-0.142-1.345-0.31-2h-4.346c-0.168,0.655-0.274,1.338-0.31,2H18.983z M13.016,16c0.033-0.655,0.131-1.337,0.286-2
		h-2.8c-0.267,0.638-0.429,1.309-0.481,2H13.016z M21.974,13c-0.937-1.461-2.414-2.487-4.094-2.852
		c0.641,0.778,1.164,1.749,1.534,2.852H21.974z M18.359,13c-0.443-1.187-1.08-2.163-1.859-2.849
		c-0.779,0.686-1.416,1.662-1.859,2.849H18.359z M13.586,13c0.37-1.103,0.893-2.074,1.534-2.852
		c-1.681,0.365-3.157,1.391-4.094,2.852H13.586z"/>
</g>
</svg>
