<?xml version="1.0" encoding="utf-8"?>
<!-- Generator: Adobe Illustrator 22.1.0, SVG Export Plug-In . SVG Version: 6.00 Build 0)  -->
<svg version="1.1" id="Layer_1" xmlns="http://www.w3.org/2000/svg" xmlns:xlink="http://www.w3.org/1999/xlink" x="0px" y="0px"
	 viewBox="0 0 24 24" style="enable-background:new 0 0 24 24;" xml:space="preserve">
<g>
	<title>network-share</title>
	<path d="M11.338,23.984c-4.112-0.227-7.778-2.522-9.802-6.141c-0.053-0.057-0.092-0.126-0.114-0.203
		c-0.988-1.849-1.471-3.937-1.4-6.044c-0.006-0.027-0.012-0.058-0.012-0.094c0-0.044,0.006-0.087,0.019-0.132l0.001-0.029
		c0.12-2.175,0.822-4.266,2.029-6.05C2.084,5.24,2.117,5.193,2.159,5.152c0.534-0.766,1.157-1.468,1.85-2.089
		c2.026-1.814,4.526-2.862,7.228-3.032c0.281-0.017,0.547-0.026,0.804-0.026c0.214,0,0.427,0.006,0.634,0.017
		c5.179,0.286,9.568,3.843,10.922,8.85c0.072,0.266-0.086,0.541-0.352,0.613c-0.042,0.011-0.086,0.017-0.13,0.017
		c-0.225,0-0.424-0.152-0.483-0.369c-0.301-1.114-0.771-2.166-1.398-3.131H16.72c0.346,0.95,0.606,1.929,0.773,2.916
		c0.046,0.272-0.138,0.531-0.41,0.577C17.056,9.5,17.028,9.502,17,9.502c-0.245,0-0.452-0.175-0.493-0.416
		c-0.178-1.051-0.466-2.088-0.855-3.084h-7.32C7.693,7.601,7.35,9.281,7.31,11.003l4.69,0c0.276,0,0.5,0.224,0.5,0.5
		s-0.224,0.5-0.5,0.5l-4.678,0c0.073,1.645,0.418,3.325,1.026,5l1.152,0c0.276,0,0.5,0.224,0.5,0.5s-0.224,0.5-0.5,0.5l-0.756,0
		c0.74,1.741,1.759,3.483,3.034,5.183c0.014,0.018,0.034,0.056,0.042,0.077c0.004,0.004,0.021,0.035,0.034,0.077
		c0.013,0.042,0.016,0.078,0.017,0.099l0,0c0.001,0,0.008,0.032,0.006,0.073c-0.001,0.014-0.003,0.031-0.007,0.046
		c-0.004,0.027-0.011,0.048-0.015,0.062c-0.01,0.033-0.018,0.064-0.036,0.098c-0.013,0.023-0.027,0.044-0.044,0.065
		c-0.014,0.019-0.034,0.044-0.061,0.069c-0.012,0.013-0.026,0.026-0.038,0.035c-0.027,0.021-0.055,0.033-0.069,0.039
		c-0.016,0.009-0.034,0.019-0.055,0.026c-0.06,0.022-0.117,0.033-0.174,0.033C11.369,23.986,11.347,23.985,11.338,23.984z
		 M2.798,18.002c1.706,2.611,4.463,4.393,7.527,4.87c-1.102-1.595-1.991-3.23-2.645-4.87L2.798,18.002z M7.31,17.003
		c-0.574-1.683-0.899-3.362-0.968-5l-5.326,0c-0.001,1.739,0.413,3.459,1.202,5L7.31,17.003z M6.33,11.003
		c0.037-1.708,0.357-3.387,0.952-5H2.79c-0.972,1.489-1.566,3.209-1.729,5L6.33,11.003z M20.499,5.002
		c-1.647-1.996-3.975-3.357-6.522-3.82c0.951,1.162,1.736,2.444,2.342,3.82H20.499z M15.219,5.002
		c-0.692-1.461-1.605-2.8-2.719-3.987c-0.159-0.007-0.318-0.01-0.477-0.01c-0.171,0-0.346,0.004-0.521,0.012
		c-1.131,1.251-2.047,2.59-2.727,3.986H15.219z M7.691,5.002C8.29,3.663,9.082,2.38,10.051,1.179
		c-1.997,0.357-3.844,1.259-5.375,2.63c-0.413,0.37-0.798,0.77-1.15,1.194H7.691z"/>
	<path d="M21.25,24.003c-1.516,0-2.75-1.234-2.75-2.75c0-0.18,0.018-0.36,0.055-0.54l-2.482-0.993
		c-0.503,0.796-1.374,1.282-2.323,1.282c-1.516,0-2.75-1.234-2.75-2.75s1.234-2.75,2.75-2.75c0.797,0,1.535,0.337,2.058,0.932
		l2.868-1.721c-0.117-0.309-0.176-0.632-0.176-0.961c0-1.516,1.234-2.75,2.75-2.75S24,12.237,24,13.753
		c0,1.516-1.234,2.75-2.75,2.75c-0.797,0-1.535-0.337-2.058-0.932l-2.868,1.721c0.117,0.309,0.176,0.632,0.176,0.961
		c0,0.179-0.018,0.36-0.055,0.539l2.482,0.993c0.503-0.796,1.374-1.282,2.323-1.282c1.516,0,2.75,1.234,2.75,2.75
		S22.766,24.003,21.25,24.003z M21.25,19.503c-0.965,0-1.75,0.785-1.75,1.75s0.785,1.75,1.75,1.75S23,22.218,23,21.253
		S22.215,19.503,21.25,19.503z M13.75,16.503c-0.965,0-1.75,0.785-1.75,1.75s0.785,1.75,1.75,1.75s1.75-0.785,1.75-1.75
		c0-0.304-0.081-0.605-0.235-0.871c-0.008-0.01-0.015-0.02-0.02-0.028c-0.006-0.01-0.011-0.021-0.016-0.032
		C14.917,16.816,14.36,16.503,13.75,16.503z M19.77,14.684c0.313,0.506,0.869,0.819,1.48,0.819c0.965,0,1.75-0.785,1.75-1.75
		c0-0.965-0.785-1.75-1.75-1.75s-1.75,0.785-1.75,1.75c0,0.304,0.081,0.605,0.235,0.872c0.005,0.007,0.01,0.013,0.014,0.02
		C19.757,14.656,19.764,14.67,19.77,14.684z"/>
</g>
</svg>
