<svg xmlns="http://www.w3.org/2000/svg" viewBox="0 0 24 24"><defs><style>.a{fill:none;stroke:currentColor;stroke-linecap:round;stroke-linejoin:round;}</style></defs><title>task-text</title><path class="a" d="M12.5,23.5v-9a1,1,0,0,1,1-1h7.586a1,1,0,0,1,.707.293l1.414,1.414a1,1,0,0,1,.293.707V23.5"/><path class="a" d="M9.5,23.5h-8a1,1,0,0,1-1-1V4.5a1,1,0,0,1,1-1h3"/><path class="a" d="M12.5,3.5h3a1,1,0,0,1,1,1v6"/><path class="a" d="M10.5,2.5a2,2,0,0,0-4,0H5a.5.5,0,0,0-.5.5V6a.5.5,0,0,0,.5.5h7a.5.5,0,0,0,.5-.5V3a.5.5,0,0,0-.5-.5Z"/><line class="a" x1="14.5" y1="10.498" x2="14.5" y2="6.498"/><path class="a" d="M2.5,6.5V20a.5.5,0,0,0,.5.5H9.5"/><line class="a" x1="14.5" y1="19.498" x2="21.5" y2="19.498"/><line class="a" x1="14.5" y1="16.498" x2="19.5" y2="16.498"/></svg>