<svg xmlns="http://www.w3.org/2000/svg" viewBox="0 0 24 24"><title>programming-language-code</title><path d="M.929,24h13.5a4,4,0,0,0,4-4V5.5a.5.5,0,0,1,.5-.5h4.142a1,1,0,0,0,1-1V3.571A3.576,3.576,0,0,0,20.5,0H6.929a4,4,0,0,0-4,4V20a2,2,0,0,1-2,2,1,1,0,1,0,0,2Zm3.645-2.353A3.977,3.977,0,0,0,4.929,20V4a2,2,0,0,1,2-2h9.627a.25.25,0,0,1,.228.353A3.981,3.981,0,0,0,16.429,4V20a2,2,0,0,1-2,2H4.8a.25.25,0,0,1-.227-.353Z"/><path d="M7.429,7.25h6.5a.75.75,0,1,0,0-1.5h-6.5a.75.75,0,0,0,0,1.5Z"/><path d="M7.429,11.25h6.5a.75.75,0,1,0,0-1.5h-6.5a.75.75,0,0,0,0,1.5Z"/><path d="M7.429,15.25h6.5a.75.75,0,1,0,0-1.5h-6.5a.75.75,0,0,0,0,1.5Z"/><path d="M7.429,19.25h4a.75.75,0,1,0,0-1.5h-4a.75.75,0,0,0,0,1.5Z"/></svg>