<?xml version="1.0" encoding="utf-8"?>
<!-- Generator: Adobe Illustrator 22.1.0, SVG Export Plug-In . SVG Version: 6.00 Build 0)  -->
<svg version="1.1" id="Layer_1" xmlns="http://www.w3.org/2000/svg" xmlns:xlink="http://www.w3.org/1999/xlink" x="0px" y="0px"
	 viewBox="0 0 24 24" style="enable-background:new 0 0 24 24;" xml:space="preserve">
<g>
	<title>love-it-subtract</title>
	<path d="M9.578,19.266c-0.135,0-0.265-0.055-0.359-0.152L1.833,11.51c-1.921-1.884-2.395-4.772-1.175-7.181
		C1.75,2.207,3.914,0.89,6.305,0.89c0.999,0,1.999,0.243,2.892,0.702c0.569,0.293,1.089,0.67,1.546,1.119l1.249,1.139l1.263-1.152
		c1.181-1.162,2.757-1.806,4.43-1.806c1.716,0,3.322,0.672,4.522,1.891c0.448,0.456,0.824,0.975,1.116,1.542
		c0.811,1.597,0.888,3.462,0.211,5.118c-0.077,0.189-0.259,0.311-0.463,0.311c-0.065,0-0.128-0.012-0.188-0.037
		c-0.256-0.105-0.378-0.397-0.274-0.652c0.567-1.387,0.503-2.948-0.175-4.284c-0.245-0.476-0.561-0.912-0.939-1.296
		c-1.01-1.026-2.362-1.592-3.807-1.592c-1.411,0-2.741,0.544-3.745,1.531l-1.614,1.472c-0.092,0.084-0.212,0.131-0.337,0.131
		s-0.245-0.047-0.337-0.131l-1.6-1.459C9.659,3.047,9.218,2.728,8.739,2.481C7.972,2.086,7.152,1.886,6.301,1.886
		c-0.552,0-1.101,0.086-1.634,0.257c-1.358,0.435-2.466,1.373-3.119,2.64C0.527,6.799,0.927,9.22,2.542,10.804l7.395,7.614
		c0.093,0.095,0.143,0.222,0.141,0.355c-0.002,0.134-0.056,0.258-0.151,0.351C9.832,19.216,9.708,19.266,9.578,19.266z"/>
	<path d="M17.493,22.252c-3.584,0-6.5-2.916-6.5-6.5c0-3.584,2.916-6.5,6.5-6.5c3.584,0,6.5,2.916,6.5,6.5
		C23.993,19.336,21.077,22.252,17.493,22.252z M17.493,10.252c-3.033,0-5.5,2.467-5.5,5.5s2.467,5.5,5.5,5.5s5.5-2.467,5.5-5.5
		S20.525,10.252,17.493,10.252z"/>
	<path d="M14.493,16.252c-0.276,0-0.5-0.224-0.5-0.5s0.224-0.5,0.5-0.5h6c0.276,0,0.5,0.224,0.5,0.5s-0.224,0.5-0.5,0.5H14.493z"/>
</g>
</svg>
