<?xml version="1.0" encoding="utf-8"?>
<!-- Generator: Adobe Illustrator 22.1.0, SVG Export Plug-In . SVG Version: 6.00 Build 0)  -->
<svg version="1.1" id="Layer_1" xmlns="http://www.w3.org/2000/svg" xmlns:xlink="http://www.w3.org/1999/xlink" x="0px" y="0px"
	 viewBox="0 0 24 24" style="enable-background:new 0 0 24 24;" xml:space="preserve">
<g>
	<title>love-it-bubble</title>
	<path d="M12.001,16.583c-0.373,0-0.727-0.141-0.998-0.398c-0.019-0.018-0.037-0.036-0.055-0.055l-3.446-3.599
		c-0.89-0.892-1.111-2.256-0.545-3.392C7.46,8.134,8.472,7.51,9.599,7.51c0.459,0,0.902,0.105,1.314,0.311
		c0.284,0.142,0.542,0.328,0.766,0.552l0.324,0.323l0.323-0.323c0.557-0.557,1.298-0.864,2.085-0.864
		c0.788,0,1.528,0.307,2.085,0.864c0.224,0.224,0.41,0.482,0.552,0.766c0.569,1.137,0.346,2.505-0.553,3.404l-3.441,3.588
		c-0.266,0.28-0.626,0.441-1.014,0.452L12.001,16.583z M9.598,8.509c-0.745,0-1.414,0.413-1.747,1.077
		c-0.373,0.75-0.226,1.653,0.366,2.246l3.483,3.636c0.077,0.073,0.181,0.115,0.294,0.115c0.142-0.004,0.254-0.054,0.337-0.142
		l3.451-3.599c0.6-0.6,0.748-1.506,0.373-2.257c-0.094-0.188-0.217-0.358-0.365-0.506c-0.368-0.368-0.857-0.571-1.378-0.571
		c-0.521,0-1.01,0.203-1.378,0.571l-0.676,0.676c-0.094,0.094-0.22,0.146-0.354,0.146c-0.133,0-0.259-0.052-0.353-0.146
		l-0.678-0.676c-0.149-0.149-0.319-0.272-0.507-0.366C10.193,8.579,9.901,8.509,9.598,8.509z"/>
	<path d="M12.003,23.605c-0.393,0-0.771-0.148-1.064-0.417l-1.542-1.453L7.34,22.224c-0.115,0.026-0.23,0.039-0.346,0.039
		c-0.684,0-1.303-0.455-1.505-1.106l-0.604-2.03l-2.023-0.601c-0.781-0.244-1.25-1.055-1.073-1.848l0.49-2.062L0.829,13.08
		c-0.56-0.612-0.562-1.529-0.005-2.136l1.455-1.542L1.789,7.345C1.609,6.534,2.068,5.74,2.855,5.493l2.032-0.605l0.602-2.022
		c0.205-0.655,0.825-1.109,1.509-1.109c0.113,0,0.227,0.012,0.337,0.037l2.062,0.49l1.537-1.45c0.293-0.269,0.672-0.416,1.071-0.416
		c0.397,0,0.775,0.146,1.064,0.412l1.541,1.452l2.057-0.489c0.115-0.026,0.229-0.038,0.343-0.038c0.686,0,1.306,0.454,1.508,1.105
		l0.604,2.031l2.023,0.601c0.78,0.244,1.249,1.054,1.073,1.846l-0.49,2.062l1.451,1.537c0.006,0.007,0.012,0.014,0.018,0.022
		c0.543,0.591,0.543,1.507-0.013,2.115l-1.455,1.542l0.489,2.056c0.178,0.798-0.29,1.61-1.065,1.852l-2.032,0.604l-0.602,2.023
		c-0.204,0.655-0.823,1.11-1.506,1.11c0,0,0,0,0,0c-0.114,0-0.229-0.013-0.34-0.038l-2.062-0.49l-1.537,1.45
		C12.777,23.456,12.398,23.604,12.003,23.605C12.003,23.605,12.003,23.605,12.003,23.605z M9.544,20.686
		c0.128,0,0.25,0.048,0.343,0.136l1.733,1.633c0.104,0.095,0.241,0.148,0.383,0.148c0.144,0,0.282-0.054,0.39-0.153l1.728-1.63
		c0.094-0.088,0.215-0.136,0.343-0.136c0.039,0,0.078,0.005,0.116,0.014l2.318,0.551c0.036,0.008,0.076,0.012,0.116,0.012
		c0.249,0,0.475-0.165,0.549-0.402l0.677-2.275c0.048-0.163,0.174-0.289,0.337-0.337l2.284-0.68
		c0.278-0.087,0.447-0.382,0.383-0.671l-0.55-2.312c-0.039-0.164,0.007-0.335,0.122-0.458l1.635-1.733
		c0.199-0.217,0.199-0.551-0.004-0.773l-1.632-1.728c-0.116-0.123-0.162-0.295-0.123-0.459l0.551-2.318
		c0.063-0.283-0.108-0.577-0.39-0.665l-2.276-0.676c-0.163-0.048-0.289-0.174-0.337-0.337l-0.68-2.285
		c-0.073-0.233-0.298-0.397-0.548-0.397c-0.041,0-0.082,0.005-0.122,0.014l-2.313,0.55c-0.039,0.009-0.077,0.013-0.115,0.013
		c-0.128,0-0.25-0.048-0.343-0.136l-1.733-1.633c-0.102-0.093-0.238-0.146-0.383-0.146c-0.146,0-0.284,0.053-0.39,0.15L9.887,3.196
		C9.794,3.284,9.672,3.333,9.545,3.333c-0.04,0-0.079-0.005-0.118-0.014L7.11,2.768C7.075,2.76,7.034,2.756,6.994,2.756
		c-0.249,0-0.475,0.165-0.549,0.402L5.768,5.433C5.72,5.596,5.594,5.721,5.432,5.77L3.147,6.45C2.865,6.538,2.699,6.827,2.764,7.121
		l0.55,2.312c0.039,0.165-0.007,0.336-0.123,0.459l-1.635,1.733c-0.2,0.218-0.199,0.552,0.005,0.774l1.631,1.728
		c0.116,0.123,0.162,0.294,0.123,0.459l-0.551,2.318c-0.064,0.284,0.107,0.578,0.39,0.666l2.276,0.676
		c0.163,0.049,0.288,0.175,0.337,0.337l0.68,2.284c0.072,0.233,0.298,0.397,0.547,0.397c0.041,0,0.082-0.005,0.122-0.013l2.313-0.55
		C9.465,20.691,9.505,20.686,9.544,20.686z"/>
</g>
</svg>
