<?xml version="1.0" encoding="utf-8"?>
<!-- Generator: Adobe Illustrator 22.1.0, SVG Export Plug-In . SVG Version: 6.00 Build 0)  -->
<svg version="1.1" id="Layer_1" xmlns="http://www.w3.org/2000/svg" xmlns:xlink="http://www.w3.org/1999/xlink" x="0px" y="0px"
	 viewBox="0 0 24 24" style="enable-background:new 0 0 24 24;" xml:space="preserve">
<g>
	<title>love-it-star</title>
	<path d="M13.622,22.866c-0.112,0-0.225-0.015-0.335-0.044c-0.332-0.089-0.609-0.302-0.781-0.599
		c-0.199-0.344-0.226-0.769-0.073-1.137l1.299-2.988l-2.33-2.074c-0.246-0.219-0.393-0.521-0.412-0.85
		c-0.02-0.33,0.09-0.647,0.31-0.893c0.234-0.263,0.571-0.415,0.922-0.415l0.044,0.001l2.654,0l1.41-3.268
		c0.244-0.45,0.687-0.717,1.166-0.717c0.215,0,0.43,0.055,0.62,0.16c0.218,0.119,0.396,0.297,0.515,0.515
		c0.005,0.008,0.019,0.038,0.023,0.047l1.407,3.263h2.671c0.006,0,0.025-0.001,0.043-0.001c0.302,0,0.595,0.117,0.824,0.33
		c0.242,0.224,0.382,0.529,0.395,0.859c0.014,0.369-0.136,0.722-0.412,0.969l-2.329,2.076l1.295,2.981
		c0.275,0.659-0.035,1.415-0.688,1.687c-0.156,0.065-0.322,0.098-0.493,0.098l0,0c-0.227,0-0.449-0.059-0.644-0.171l-3.229-1.816
		l-3.235,1.819C14.066,22.807,13.845,22.866,13.622,22.866z M12.231,14.866c-0.074,0-0.137,0.027-0.183,0.079
		c-0.042,0.047-0.062,0.106-0.059,0.169c0.004,0.063,0.032,0.12,0.078,0.162l2.601,2.316c0.162,0.144,0.212,0.374,0.126,0.573
		l-1.44,3.313c-0.031,0.075-0.024,0.17,0.019,0.245c0.051,0.088,0.146,0.143,0.248,0.143c0.049,0,0.098-0.013,0.141-0.038
		l3.485-1.96c0.075-0.042,0.16-0.064,0.245-0.064c0.086,0,0.171,0.022,0.245,0.064l3.479,1.957c0.047,0.027,0.098,0.041,0.149,0.041
		c0.038,0,0.074-0.007,0.107-0.021c0.146-0.061,0.214-0.228,0.154-0.373l-1.437-3.306c-0.086-0.198-0.036-0.428,0.126-0.572
		l2.6-2.317c0.052-0.047,0.081-0.114,0.078-0.184c-0.002-0.062-0.029-0.121-0.075-0.163c-0.044-0.042-0.099-0.063-0.159-0.063
		l-3.028,0c-0.2,0-0.38-0.119-0.459-0.302l-1.527-3.543c-0.027-0.043-0.065-0.079-0.11-0.104c-0.045-0.024-0.093-0.037-0.143-0.037
		c-0.11,0-0.211,0.06-0.264,0.156l-1.52,3.528c-0.079,0.184-0.259,0.302-0.459,0.302L12.231,14.866z"/>
	<path d="M10.536,20.367c-0.135,0-0.265-0.055-0.359-0.152l-8.343-8.591C-0.087,9.74-0.561,6.852,0.66,4.442
		c1.093-2.121,3.256-3.438,5.647-3.438c1,0,2,0.243,2.893,0.703C9.768,2,10.287,2.376,10.744,2.825l1.249,1.139l1.263-1.152
		c1.181-1.162,2.756-1.806,4.43-1.806c1.716,0,3.322,0.672,4.522,1.891c0.448,0.455,0.824,0.974,1.116,1.542
		c1.221,2.412,0.746,5.302-1.181,7.193c-0.094,0.092-0.218,0.143-0.35,0.143c-0.135,0-0.262-0.053-0.357-0.15
		c-0.094-0.095-0.145-0.221-0.143-0.355c0.001-0.134,0.054-0.259,0.15-0.352c1.615-1.584,2.013-4.005,0.991-6.024
		c-0.245-0.475-0.561-0.911-0.938-1.295c-1.01-1.027-2.362-1.592-3.807-1.592c-1.411,0-2.741,0.544-3.745,1.531L12.33,5.01
		c-0.092,0.084-0.212,0.131-0.337,0.131s-0.245-0.046-0.337-0.131l-1.6-1.459C9.66,3.162,9.22,2.843,8.741,2.596
		C7.979,2.203,7.159,2.004,6.306,2.004c-2.014,0-3.836,1.109-4.755,2.893c-1.022,2.016-0.623,4.437,0.993,6.021l8.352,8.601
		c0.093,0.095,0.143,0.222,0.141,0.355s-0.056,0.258-0.151,0.351C10.79,20.317,10.667,20.367,10.536,20.367z"/>
</g>
</svg>
