<?xml version="1.0" encoding="utf-8"?>
<!-- Generator: Adobe Illustrator 22.1.0, SVG Export Plug-In . SVG Version: 6.00 Build 0)  -->
<svg version="1.1" id="Layer_1" xmlns="http://www.w3.org/2000/svg" xmlns:xlink="http://www.w3.org/1999/xlink" x="0px" y="0px"
	 viewBox="0 0 24 24" style="enable-background:new 0 0 24 24;" xml:space="preserve">
<g>
	<title>love-it-warning</title>
	<path d="M9.492,18.924c-0.135,0-0.265-0.055-0.359-0.152l-7.3-7.519C-0.089,9.37-0.563,6.481,0.658,4.071
		C1.434,2.564,2.75,1.45,4.362,0.934C4.994,0.732,5.646,0.63,6.301,0.63c0.997,0,1.999,0.244,2.896,0.707
		c0.569,0.293,1.089,0.67,1.545,1.119l1.249,1.139l1.263-1.152c1.181-1.162,2.757-1.806,4.431-1.806
		c1.716,0,3.322,0.672,4.521,1.891c0.448,0.456,0.824,0.974,1.116,1.542c1.119,2.207,0.816,4.856-0.772,6.75
		c-0.095,0.114-0.235,0.179-0.384,0.179c-0.117,0-0.231-0.042-0.321-0.117c-0.211-0.177-0.239-0.493-0.062-0.704
		c1.33-1.587,1.585-3.806,0.648-5.653c-0.245-0.476-0.562-0.912-0.939-1.295c-1.01-1.027-2.362-1.592-3.807-1.592
		c-1.412,0-2.742,0.544-3.745,1.531L12.329,4.64c-0.092,0.084-0.212,0.131-0.337,0.131s-0.245-0.046-0.337-0.131l-1.6-1.459
		C9.659,2.791,9.219,2.472,8.739,2.225C7.972,1.83,7.152,1.63,6.301,1.63c-0.551,0-1.101,0.086-1.633,0.257
		c-1.358,0.435-2.466,1.372-3.119,2.64c-1.022,2.017-0.623,4.437,0.994,6.022l7.308,7.528c0.093,0.095,0.143,0.222,0.141,0.355
		S9.936,18.69,9.84,18.783C9.746,18.874,9.622,18.924,9.492,18.924z"/>
	<circle cx="17.492" cy="19.247" r="0.75"/>
	<path d="M17.492,17.496c-0.276,0-0.5-0.224-0.5-0.5v-3c0-0.276,0.224-0.5,0.5-0.5s0.5,0.224,0.5,0.5v3
		C17.992,17.272,17.767,17.496,17.492,17.496z"/>
	<path d="M12.436,22.495c-0.507,0-0.967-0.256-1.232-0.686c-0.263-0.427-0.281-0.967-0.048-1.41l5.056-9.634
		c0.137-0.257,0.344-0.464,0.598-0.599c0.21-0.112,0.446-0.172,0.681-0.172c0.143,0,0.285,0.021,0.423,0.063
		c0.369,0.112,0.672,0.36,0.855,0.699c0.002,0.004,5.06,9.643,5.06,9.643c0.233,0.443,0.215,0.982-0.048,1.409
		c-0.267,0.43-0.727,0.686-1.231,0.686H12.436z M17.491,10.995c-0.074,0-0.145,0.018-0.211,0.053
		c-0.079,0.042-0.143,0.106-0.186,0.185l-5.054,9.631c-0.069,0.132-0.064,0.293,0.014,0.419c0.08,0.13,0.226,0.211,0.38,0.211
		h10.114c0.157,0,0.3-0.079,0.382-0.212c0.077-0.125,0.083-0.285,0.013-0.417l-5.056-9.635c-0.056-0.104-0.15-0.181-0.265-0.216
		C17.579,11.001,17.535,10.995,17.491,10.995z"/>
</g>
</svg>
