<?xml version="1.0" encoding="utf-8"?>
<!-- Generator: Adobe Illustrator 22.1.0, SVG Export Plug-In . SVG Version: 6.00 Build 0)  -->
<svg version="1.1" id="Layer_1" xmlns="http://www.w3.org/2000/svg" xmlns:xlink="http://www.w3.org/1999/xlink" x="0px" y="0px"
	 viewBox="0 0 24 24" style="enable-background:new 0 0 24 24;" xml:space="preserve">
<g>
	<title>love-it-edit</title>
	<path d="M9.992,19.649c-0.135,0-0.265-0.055-0.359-0.152l-7.8-8.03c-1.921-1.884-2.395-4.772-1.175-7.181
		C1.434,2.777,2.75,1.663,4.362,1.147c0.632-0.202,1.284-0.305,1.939-0.305c0.997,0,1.998,0.244,2.896,0.707
		c0.569,0.293,1.089,0.67,1.545,1.119l1.249,1.139l1.263-1.152c1.181-1.163,2.757-1.807,4.43-1.807c1.715,0,3.32,0.671,4.52,1.89
		c0.449,0.456,0.825,0.976,1.117,1.544c0.549,1.079,0.766,2.284,0.628,3.486c-0.029,0.253-0.243,0.443-0.497,0.443
		c-0.018,0-0.036-0.001-0.054-0.003c-0.134-0.015-0.253-0.081-0.336-0.186c-0.083-0.105-0.12-0.235-0.105-0.368
		c0.115-1.006-0.067-2.014-0.525-2.917c-0.246-0.477-0.562-0.914-0.94-1.298c-1.01-1.026-2.361-1.591-3.805-1.591
		c-1.412,0-2.742,0.544-3.745,1.532l-1.614,1.472c-0.092,0.084-0.212,0.131-0.337,0.131s-0.245-0.046-0.337-0.131l-1.6-1.459
		C9.659,3.004,9.219,2.685,8.739,2.438C7.973,2.043,7.152,1.842,6.301,1.842c-0.552,0-1.101,0.086-1.634,0.257
		C3.309,2.534,2.201,3.472,1.549,4.74c-1.021,2.016-0.622,4.437,0.994,6.021l7.809,8.04c0.093,0.095,0.143,0.222,0.141,0.355
		s-0.056,0.258-0.151,0.351C10.246,19.599,10.123,19.649,9.992,19.649z"/>
	<path d="M11.492,22.648c-0.134,0-0.259-0.052-0.354-0.147c-0.128-0.128-0.177-0.316-0.127-0.491l1.2-4.199
		c0.004-0.014,0.013-0.038,0.02-0.051c-0.001,0.001-0.001,0.002-0.001,0.002c0,0,0.004-0.01,0.009-0.021
		c0.028-0.06,0.06-0.108,0.1-0.147l7.179-7.179c0.495-0.495,1.153-0.768,1.854-0.768s1.358,0.273,1.854,0.768
		c0.495,0.495,0.768,1.153,0.768,1.854c0,0.7-0.273,1.358-0.768,1.854l-7.179,7.179c-0.04,0.04-0.089,0.073-0.147,0.1
		c-0.007,0.003-0.033,0.014-0.04,0.017c-0.013,0.006-0.014,0.007-0.028,0.011l-4.201,1.2C11.584,22.641,11.538,22.648,11.492,22.648
		z M12.22,21.42l2.517-0.719l-1.798-1.798L12.22,21.42z M15.692,20.241l5.572-5.572l-2.293-2.293l-5.572,5.572L15.692,20.241z
		 M21.971,13.962l0.547-0.546c0.632-0.632,0.632-1.661,0-2.293c-0.306-0.306-0.714-0.475-1.146-0.475
		c-0.433,0-0.84,0.169-1.146,0.475l-0.547,0.547L21.971,13.962z"/>
</g>
</svg>
