<?xml version="1.0" encoding="utf-8"?>
<!-- Generator: Adobe Illustrator 22.1.0, SVG Export Plug-In . SVG Version: 6.00 Build 0)  -->
<svg version="1.1" id="Layer_1" xmlns="http://www.w3.org/2000/svg" xmlns:xlink="http://www.w3.org/1999/xlink" x="0px" y="0px"
	 viewBox="0 0 24 24" style="enable-background:new 0 0 24 24;" xml:space="preserve">
<g>
	<title>love-it-hand-give</title>
	<path d="M1.001,23.498c-0.276,0-0.5-0.224-0.5-0.5v-10c0-0.276,0.224-0.5,0.5-0.5s0.5,0.224,0.5,0.5v1.5h6.5
		c1.74,0,3.219,1.3,3.464,3h5.536c1.93,0,3.5,1.57,3.5,3.5c0,0.276-0.224,0.5-0.5,0.5h-18.5v1.5
		C1.501,23.274,1.277,23.498,1.001,23.498z M19.451,20.498c-0.235-1.141-1.261-2-2.449-2h-9c-0.276,0-0.5-0.224-0.5-0.5
		s0.224-0.5,0.5-0.5h2.448c-0.235-1.141-1.261-2-2.448-2h-6.5v5H19.451z"/>
	<path d="M17.002,11.785c-0.251,0-0.49-0.095-0.672-0.268l-0.032-0.032l-4.77-4.976c-1.069-1.069-1.333-2.703-0.653-4.062
		c0.421-0.842,1.146-1.47,2.039-1.768c0.364-0.121,0.74-0.182,1.118-0.182c0.548,0,1.078,0.126,1.574,0.374
		c0.339,0.17,0.647,0.392,0.916,0.66l0.481,0.482l0.481-0.481c0.664-0.665,1.55-1.031,2.492-1.031c0.942,0,1.827,0.366,2.491,1.03
		c0.269,0.269,0.491,0.578,0.661,0.918c0.679,1.359,0.414,2.995-0.661,4.07l-4.757,4.965C17.527,11.675,17.269,11.785,17.002,11.785
		z M17.017,10.791C17.017,10.791,17.017,10.791,17.017,10.791z M14.03,1.496c-0.271,0-0.541,0.044-0.802,0.131
		c-0.64,0.213-1.159,0.663-1.46,1.266c-0.487,0.974-0.297,2.146,0.473,2.916l4.76,4.966l4.75-4.957
		c0.776-0.776,0.968-1.95,0.481-2.924c-0.121-0.243-0.281-0.464-0.474-0.657C21.283,1.762,20.65,1.5,19.975,1.5
		c-0.675,0-1.31,0.262-1.786,0.739l-0.835,0.835c-0.094,0.094-0.22,0.146-0.354,0.146c-0.132,0-0.261-0.054-0.354-0.147
		l-0.834-0.836c-0.192-0.192-0.413-0.351-0.656-0.473C14.802,1.587,14.422,1.496,14.03,1.496z"/>
</g>
</svg>
