<?xml version="1.0" encoding="utf-8"?>
<!-- Generator: Adobe Illustrator 22.1.0, SVG Export Plug-In . SVG Version: 6.00 Build 0)  -->
<svg version="1.1" id="Layer_1" xmlns="http://www.w3.org/2000/svg" xmlns:xlink="http://www.w3.org/1999/xlink" x="0px" y="0px"
	 viewBox="0 0 24 24" style="enable-background:new 0 0 24 24;" xml:space="preserve">
<g>
	<title>love-it-lock</title>
	<path d="M11.992,21.861c-0.135,0-0.265-0.055-0.359-0.152l-9.8-10.091c-1.921-1.884-2.395-4.772-1.174-7.182
		c0.777-1.508,2.092-2.621,3.705-3.137c0.631-0.202,1.284-0.305,1.938-0.305c0.997,0,1.999,0.244,2.897,0.707
		c0.568,0.293,1.088,0.669,1.544,1.118l1.249,1.139l1.263-1.152C14.436,1.644,16.011,1,17.685,1c1.716,0,3.322,0.672,4.522,1.891
		c0.447,0.454,0.823,0.973,1.116,1.542c0.811,1.598,0.887,3.463,0.21,5.118c-0.077,0.189-0.259,0.311-0.463,0.311
		c-0.065,0-0.129-0.013-0.19-0.037c-0.123-0.05-0.22-0.146-0.271-0.269c-0.052-0.123-0.052-0.259-0.002-0.383
		c0.566-1.387,0.503-2.949-0.175-4.285c-0.246-0.476-0.562-0.913-0.939-1.296C20.484,2.566,19.132,2,17.687,2
		c-1.412,0-2.742,0.544-3.745,1.531l-1.614,1.472c-0.092,0.084-0.212,0.131-0.337,0.131s-0.245-0.047-0.337-0.131l-1.6-1.459
		C9.659,3.156,9.219,2.837,8.74,2.59C7.973,2.195,7.153,1.995,6.302,1.995c-0.551,0-1.101,0.086-1.634,0.257
		C3.31,2.686,2.202,3.623,1.549,4.891c-1.022,2.016-0.623,4.437,0.992,6.021l9.809,10.101c0.093,0.095,0.143,0.222,0.141,0.355
		c-0.002,0.134-0.056,0.259-0.152,0.352C12.246,21.811,12.122,21.861,11.992,21.861z"/>
	<path d="M15.491,22.86c-0.827,0-1.5-0.673-1.5-1.5v-6c0-0.827,0.673-1.5,1.5-1.5h0.5v-1c0-1.654,1.346-3,3-3s3,1.346,3,3v1h0.5
		c0.827,0,1.5,0.673,1.5,1.5v6c0,0.827-0.673,1.5-1.5,1.5H15.491z M15.491,14.86c-0.276,0-0.5,0.224-0.5,0.5v6
		c0,0.276,0.224,0.5,0.5,0.5h7c0.276,0,0.5-0.224,0.5-0.5v-6c0-0.276-0.224-0.5-0.5-0.5H15.491z M20.991,13.86v-1
		c0-1.103-0.897-2-2-2s-2,0.897-2,2v1H20.991z"/>
	<path d="M18.991,20.173c-0.965,0-1.75-0.785-1.75-1.75s0.785-1.75,1.75-1.75s1.75,0.785,1.75,1.75S19.956,20.173,18.991,20.173z
		 M18.991,17.673c-0.414,0-0.75,0.336-0.75,0.75s0.336,0.75,0.75,0.75s0.75-0.336,0.75-0.75S19.405,17.673,18.991,17.673z"/>
</g>
</svg>
