<?xml version="1.0" encoding="utf-8"?>
<!-- Generator: Adobe Illustrator 22.1.0, SVG Export Plug-In . SVG Version: 6.00 Build 0)  -->
<svg version="1.1" id="Layer_1" xmlns="http://www.w3.org/2000/svg" xmlns:xlink="http://www.w3.org/1999/xlink" x="0px" y="0px"
	 viewBox="0 0 24 24" style="enable-background:new 0 0 24 24;" xml:space="preserve">
<g>
	<title>love-it-break</title>
	<path d="M11.687,22.525c-0.053,0-0.105-0.009-0.156-0.025c-0.018-0.006-0.041-0.017-0.059-0.028
		c-0.006-0.003-0.012-0.007-0.017-0.01c-0.04-0.018-0.09-0.055-0.132-0.1L1.831,12.085c-1.914-1.877-2.385-4.763-1.165-7.172
		c0.777-1.508,2.092-2.621,3.705-3.137C5.003,1.573,5.655,1.47,6.31,1.47c0.997,0,1.999,0.244,2.896,0.707
		c0.568,0.293,1.088,0.669,1.544,1.118l1.249,1.139l1.263-1.152c1.182-1.166,2.745-1.812,4.393-1.812l0.091,0.001
		c1.692,0.012,3.279,0.683,4.468,1.889c0.451,0.458,0.829,0.979,1.123,1.551c1.258,2.534,0.632,5.577-1.521,7.404l-9.765,10.06
		c-0.016,0.017-0.052,0.043-0.072,0.055c0.001,0-0.015,0.011-0.031,0.021c-0.026,0.015-0.056,0.032-0.095,0.046
		c-0.039,0.014-0.077,0.02-0.105,0.023c-0.019,0.004-0.039,0.006-0.056,0.006C11.692,22.525,11.688,22.525,11.687,22.525z
		 M6.309,2.471c-0.552,0-1.101,0.086-1.633,0.257C3.317,3.162,2.21,4.1,1.557,5.367c-1.022,2.016-0.624,4.436,0.991,6.021
		l8.932,9.671l2.826-8.533H8.499c-0.175,0-0.334-0.089-0.426-0.238c-0.09-0.147-0.098-0.334-0.02-0.488l3.328-6.576l-1.319-1.203
		C9.667,3.632,9.227,3.313,8.748,3.066C7.981,2.671,7.16,2.471,6.309,2.471z M14.999,11.525c0.16,0,0.312,0.078,0.406,0.208
		c0.094,0.129,0.119,0.297,0.069,0.449l-2.629,7.938l8.289-8.536c1.83-1.555,2.361-4.107,1.311-6.223
		c-0.245-0.476-0.563-0.915-0.942-1.3c-1.001-1.016-2.338-1.581-3.765-1.591l-0.039,0c-1.411,0-2.742,0.546-3.748,1.537
		l-1.546,1.411l-3.091,6.107H14.999z"/>
</g>
</svg>
