<?xml version="1.0" encoding="utf-8"?>
<!-- Generator: Adobe Illustrator 22.1.0, SVG Export Plug-In . SVG Version: 6.00 Build 0)  -->
<svg version="1.1" id="Layer_1" xmlns="http://www.w3.org/2000/svg" xmlns:xlink="http://www.w3.org/1999/xlink" x="0px" y="0px"
	 viewBox="0 0 24 24" style="enable-background:new 0 0 24 24;" xml:space="preserve">
<g>
	<title>love-it-flag</title>
	<path d="M0.5,24C0.224,24,0,23.776,0,23.5v-23C0,0.224,0.224,0,0.5,0S1,0.224,1,0.5v2.333C2.793,2.327,4.638,2.047,6.487,2
		c1.578,0,3.516,0.517,5.39,1.016C13.691,3.5,15.565,4,17,4c1.702-0.068,3.391-0.397,5.01-0.978c0.163-0.055,0.326-0.082,0.49-0.082
		c0.827,0,1.5,0.673,1.5,1.5v13.878c0,0.623-0.392,1.189-0.976,1.406c-1.918,0.748-3.938,1.177-6,1.275c0,0-0.001,0-0.001,0
		c-1.591,0-3.528-0.517-5.401-1.017C9.807,19.499,7.934,19,6.5,19c-1.852,0.047-3.703,0.34-5.5,0.873V23.5C1,23.776,0.776,24,0.5,24
		z M6.494,18c1.572,0,3.51,0.517,5.385,1.017C13.694,19.501,15.567,20,17,20c1.934-0.092,3.845-0.499,5.667-1.21
		C22.868,18.715,23,18.526,23,18.319V4.44c0-0.276-0.224-0.5-0.5-0.5c-0.054,0-0.109,0.009-0.161,0.027
		C20.631,4.58,18.84,4.928,17.02,5c0,0,0,0-0.001,0c-1.586,0-3.524-0.517-5.398-1.016C9.809,3.5,7.935,3,6.5,3
		C4.642,3.047,2.791,3.34,1,3.87v14.959C2.787,18.326,4.631,18.047,6.487,18C6.49,18,6.492,18,6.494,18z"/>
	<path d="M12.5,15.787c-0.251,0-0.49-0.095-0.672-0.268l-0.036-0.036L8.73,12.29c-0.761-0.761-0.949-1.927-0.464-2.898
		C8.567,8.791,9.083,8.343,9.721,8.13C9.981,8.044,10.249,8,10.519,8c0.391,0,0.77,0.09,1.124,0.267
		c0.243,0.122,0.462,0.28,0.654,0.471L12.5,8.942l0.203-0.203c0.475-0.475,1.107-0.736,1.78-0.736s1.305,0.261,1.78,0.736
		c0.192,0.192,0.351,0.412,0.471,0.654c0.485,0.971,0.295,2.138-0.472,2.905l-3.055,3.187C13.025,15.677,12.767,15.787,12.5,15.787z
		 M10.519,9c-0.163,0-0.325,0.026-0.481,0.079C9.653,9.207,9.341,9.477,9.16,9.84c-0.292,0.585-0.178,1.289,0.284,1.751l3.056,3.187
		l3.048-3.179c0.468-0.469,0.584-1.174,0.292-1.759c-0.073-0.146-0.168-0.278-0.284-0.394c-0.286-0.286-0.667-0.443-1.073-0.443
		S13.696,9.16,13.41,9.446l-0.557,0.557c-0.091,0.091-0.22,0.144-0.354,0.144s-0.262-0.052-0.354-0.144l-0.557-0.557
		c-0.115-0.115-0.248-0.211-0.394-0.284C10.982,9.055,10.754,9,10.519,9z"/>
</g>
</svg>
