<?xml version="1.0" encoding="utf-8"?>
<!-- Generator: Adobe Illustrator 22.1.0, SVG Export Plug-In . SVG Version: 6.00 Build 0)  -->
<svg version="1.1" id="Layer_1" xmlns="http://www.w3.org/2000/svg" xmlns:xlink="http://www.w3.org/1999/xlink" x="0px" y="0px"
	 viewBox="0 0 24 24" style="enable-background:new 0 0 24 24;" xml:space="preserve">
<g>
	<title>love-it-download</title>
	<path d="M8.628,18.039c-0.135,0-0.265-0.055-0.359-0.152L1.833,11.26c-1.922-1.885-2.396-4.773-1.174-7.182
		C1.752,1.956,3.915,0.64,6.305,0.64c1,0,2,0.243,2.893,0.703c0.569,0.293,1.088,0.669,1.544,1.118L11.992,3.6l1.263-1.152
		c1.181-1.163,2.757-1.807,4.431-1.807c1.715,0,3.321,0.671,4.521,1.89c0.448,0.455,0.824,0.975,1.117,1.543
		c0.81,1.597,0.887,3.462,0.21,5.118c-0.077,0.189-0.259,0.311-0.463,0.311c-0.065,0-0.128-0.012-0.188-0.037
		c-0.125-0.051-0.221-0.146-0.273-0.27c-0.052-0.123-0.052-0.259-0.002-0.383c0.567-1.387,0.503-2.949-0.175-4.285
		c-0.246-0.477-0.562-0.914-0.94-1.297c-1.01-1.026-2.361-1.591-3.806-1.591c-1.412,0-2.742,0.544-3.746,1.532l-1.614,1.472
		c-0.092,0.084-0.212,0.131-0.337,0.131s-0.245-0.047-0.337-0.131l-1.6-1.459C9.659,2.798,9.219,2.479,8.741,2.232
		C7.974,1.837,7.153,1.636,6.301,1.636c-0.551,0-1.101,0.086-1.633,0.256C3.31,2.327,2.202,3.265,1.549,4.532
		c-1.022,2.017-0.623,4.437,0.993,6.022l6.444,6.637c0.093,0.095,0.143,0.222,0.141,0.355s-0.056,0.258-0.151,0.351
		C8.882,17.989,8.758,18.039,8.628,18.039z"/>
	<path d="M17.492,22.502c-3.584,0-6.5-2.916-6.5-6.5s2.916-6.5,6.5-6.5s6.5,2.916,6.5,6.5S21.076,22.502,17.492,22.502z
		 M17.492,10.502c-3.033,0-5.5,2.467-5.5,5.5s2.467,5.5,5.5,5.5s5.5-2.467,5.5-5.5S20.524,10.502,17.492,10.502z"/>
	<path d="M17.492,19.502c-0.066,0-0.13-0.013-0.191-0.039c-0.062-0.025-0.117-0.062-0.163-0.109l-2.249-2.249
		c-0.094-0.094-0.146-0.22-0.146-0.354s0.052-0.259,0.146-0.354s0.22-0.146,0.354-0.146s0.259,0.052,0.354,0.146l1.396,1.396v-4.793
		c0-0.276,0.224-0.5,0.5-0.5s0.5,0.224,0.5,0.5v4.793l1.396-1.396c0.094-0.094,0.22-0.146,0.354-0.146s0.259,0.052,0.354,0.146
		s0.146,0.22,0.146,0.354s-0.052,0.259-0.146,0.354l-2.25,2.25c-0.045,0.046-0.101,0.083-0.163,0.109
		C17.622,19.489,17.557,19.502,17.492,19.502z"/>
</g>
</svg>
