<?xml version="1.0" encoding="utf-8"?>
<!-- Generator: Adobe Illustrator 22.1.0, SVG Export Plug-In . SVG Version: 6.00 Build 0)  -->
<svg version="1.1" id="Layer_1" xmlns="http://www.w3.org/2000/svg" xmlns:xlink="http://www.w3.org/1999/xlink" x="0px" y="0px"
	 viewBox="0 0 24 24" style="enable-background:new 0 0 24 24;" xml:space="preserve">
<g>
	<title>love-it-remove</title>
	<path d="M9.415,19.032c-0.135,0-0.265-0.055-0.359-0.152l-7.223-7.439C-0.088,9.557-0.563,6.67,0.657,4.26
		C1.75,2.139,3.913,0.823,6.303,0.823c1,0,2.001,0.243,2.894,0.704c0.569,0.293,1.089,0.67,1.546,1.12l1.249,1.135l1.263-1.149
		c1.18-1.162,2.756-1.805,4.43-1.805c1.716,0,3.322,0.672,4.522,1.891c0.448,0.455,0.824,0.974,1.116,1.542
		c0.811,1.597,0.887,3.462,0.21,5.118C23.456,9.568,23.275,9.69,23.07,9.69c-0.065,0-0.128-0.013-0.189-0.037
		c-0.256-0.105-0.378-0.397-0.274-0.652c0.567-1.387,0.503-2.948-0.175-4.284c-0.245-0.476-0.561-0.912-0.939-1.296
		c-1.01-1.027-2.362-1.592-3.807-1.592c-1.412,0-2.741,0.544-3.745,1.531l-1.614,1.469c-0.092,0.084-0.212,0.13-0.336,0.13
		s-0.244-0.046-0.336-0.13l-1.6-1.455c-0.396-0.39-0.837-0.71-1.316-0.957C7.976,2.022,7.156,1.823,6.302,1.823
		c-2.013,0-3.835,1.108-4.755,2.892c-1.02,2.016-0.621,4.437,0.995,6.021l7.232,7.448c0.093,0.095,0.143,0.222,0.141,0.355
		s-0.056,0.258-0.151,0.351C9.669,18.982,9.546,19.032,9.415,19.032z"/>
	<path d="M17.492,22.685c-3.584,0-6.5-2.916-6.5-6.5s2.916-6.5,6.5-6.5s6.5,2.916,6.5,6.5S21.076,22.685,17.492,22.685z
		 M17.492,10.685c-3.033,0-5.5,2.467-5.5,5.5s2.467,5.5,5.5,5.5s5.5-2.467,5.5-5.5S20.525,10.685,17.492,10.685z"/>
	<path d="M19.613,18.806c-0.134,0-0.259-0.052-0.354-0.146l-1.767-1.767l-1.768,1.767c-0.094,0.094-0.22,0.146-0.354,0.146
		s-0.259-0.052-0.354-0.146c-0.195-0.195-0.195-0.512,0-0.707l1.768-1.767l-1.768-1.768c-0.195-0.195-0.195-0.512,0-0.707
		c0.094-0.094,0.22-0.146,0.354-0.146s0.259,0.052,0.354,0.146l1.768,1.768l1.767-1.768c0.094-0.094,0.22-0.146,0.354-0.146l0,0
		c0.134,0,0.259,0.052,0.354,0.146c0.195,0.195,0.195,0.512,0,0.707l-1.767,1.768l1.767,1.767c0.195,0.195,0.195,0.512,0,0.707
		C19.872,18.754,19.746,18.806,19.613,18.806z"/>
</g>
</svg>
