<?xml version="1.0" encoding="utf-8"?>
<!-- Generator: Adobe Illustrator 22.1.0, SVG Export Plug-In . SVG Version: 6.00 Build 0)  -->
<svg version="1.1" id="Layer_1" xmlns="http://www.w3.org/2000/svg" xmlns:xlink="http://www.w3.org/1999/xlink" x="0px" y="0px"
	 viewBox="0 0 24 24" style="enable-background:new 0 0 24 24;" xml:space="preserve">
<g>
	<title>force-touch-tap</title>
	<path d="M2.5,22.5c-1.375-0.004-2.496-1.125-2.5-2.499C0,19.173,0.673,18.5,1.5,18.5h21c0.827,0,1.5,0.673,1.5,1.5
		c-0.004,1.375-1.125,2.496-2.499,2.5C21.501,22.5,2.5,22.5,2.5,22.5z M21.5,21.5c0.824-0.002,1.498-0.676,1.5-1.501
		c0-0.275-0.224-0.499-0.5-0.499H19v2H21.5z M1.5,19.5C1.225,19.5,1,19.724,1,20c0.003,0.824,0.676,1.498,1.501,1.5H18v-2H1.5z"/>
	<path d="M6,15.5c-0.134,0-0.259-0.052-0.354-0.146l-1-1C4.552,14.259,4.5,14.134,4.5,14s0.052-0.259,0.146-0.354S4.867,13.5,5,13.5
		s0.259,0.052,0.354,0.146l1,1C6.448,14.741,6.5,14.866,6.5,15s-0.052,0.259-0.146,0.354S6.134,15.5,6,15.5z"/>
	<path d="M13,15.5c-0.134,0-0.259-0.052-0.354-0.146S12.5,15.134,12.5,15s0.052-0.259,0.146-0.354l1-1
		C13.741,13.552,13.867,13.5,14,13.5s0.259,0.052,0.354,0.146S14.5,13.866,14.5,14s-0.052,0.259-0.146,0.354l-1,1
		C13.259,15.448,13.134,15.5,13,15.5z"/>
	<path d="M4,17.5c-0.276,0-0.5-0.224-0.5-0.5s0.224-0.5,0.5-0.5h1.5C5.776,16.5,6,16.724,6,17s-0.224,0.5-0.5,0.5H4z"/>
	<path d="M13.5,17.5c-0.276,0-0.5-0.224-0.5-0.5s0.224-0.5,0.5-0.5H15c0.276,0,0.5,0.224,0.5,0.5s-0.224,0.5-0.5,0.5H13.5z"/>
	<path d="M9.705,14.91c-0.335,0-0.653-0.109-0.917-0.316c-0.35-0.271-0.856-0.895-0.309-2.014l3.156-6.444
		c0.952-1.945,2.457-3.526,4.352-4.574C16.062,1.521,16.145,1.5,16.229,1.5c0.182,0,0.35,0.099,0.438,0.258
		c0.065,0.117,0.08,0.252,0.043,0.38c-0.037,0.128-0.122,0.234-0.239,0.299c-1.715,0.948-3.076,2.378-3.938,4.138L9.377,13.02
		c-0.271,0.555-0.078,0.705,0.026,0.785c0.089,0.07,0.196,0.107,0.309,0.107c0.155,0,0.298-0.069,0.392-0.189l3.853-5.799
		c0.283-0.427,0.715-0.719,1.218-0.822c0.128-0.026,0.258-0.039,0.387-0.039c0.375,0,0.74,0.11,1.056,0.319
		c0.706,0.467,1.021,1.326,0.785,2.138l-0.379,1.312c-0.017,0.161,0.026,0.321,0.123,0.451c0.103,0.139,0.253,0.229,0.424,0.255
		c0.032,0.005,0.064,0.007,0.096,0.007c0.237,0,0.453-0.129,0.566-0.336l0.962-2.777c0.661-1.912,2.221-3.37,4.174-3.899
		c0.044-0.011,0.087-0.017,0.13-0.017c0.226,0,0.425,0.152,0.483,0.369c0.035,0.128,0.018,0.263-0.049,0.379
		c-0.066,0.116-0.174,0.199-0.303,0.234c-1.633,0.443-2.938,1.661-3.49,3.261l-0.974,2.811c-0.007,0.02-0.015,0.039-0.024,0.058
		c-0.279,0.566-0.844,0.918-1.473,0.918c-0.082,0-0.165-0.006-0.247-0.018c-0.435-0.065-0.818-0.296-1.079-0.649
		c-0.261-0.354-0.37-0.788-0.305-1.222c0.003-0.022,0.008-0.042,0.013-0.062l0.391-1.352c0.114-0.39-0.038-0.802-0.376-1.026
		c-0.151-0.1-0.326-0.153-0.505-0.153c-0.062,0-0.125,0.006-0.187,0.019c-0.241,0.049-0.449,0.189-0.584,0.394l-3.878,5.834
		C10.608,14.697,10.172,14.91,9.705,14.91z"/>
</g>
</svg>
