<?xml version="1.0" encoding="utf-8"?>
<!-- Generator: Adobe Illustrator 22.1.0, SVG Export Plug-In . SVG Version: 6.00 Build 0)  -->
<svg version="1.1" id="Layer_1" xmlns="http://www.w3.org/2000/svg" xmlns:xlink="http://www.w3.org/1999/xlink" x="0px" y="0px"
	 viewBox="0 0 24 24" style="enable-background:new 0 0 24 24;" xml:space="preserve">
<g>
	<title>force-touch-press</title>
	<path d="M9.5,24c-0.066,0-0.13-0.013-0.192-0.039c-0.061-0.025-0.116-0.062-0.163-0.109l-1.999-1.999C7.052,21.759,7,21.633,7,21.5
		s0.052-0.259,0.146-0.354S7.367,21,7.5,21s0.259,0.052,0.354,0.146L9,22.293V19.5C9,19.224,9.224,19,9.5,19s0.5,0.224,0.5,0.5
		v2.793l1.146-1.146C11.241,21.052,11.367,21,11.5,21s0.259,0.052,0.354,0.146S12,21.366,12,21.5s-0.052,0.259-0.146,0.354l-2,2
		c-0.046,0.046-0.101,0.083-0.163,0.109C9.63,23.987,9.566,24,9.5,24z"/>
	<path d="M6,14c-0.134,0-0.259-0.052-0.354-0.146l-1-1C4.552,12.759,4.5,12.633,4.5,12.5s0.052-0.259,0.146-0.354S4.867,12,5,12
		s0.259,0.052,0.354,0.146l1,1C6.448,13.241,6.5,13.366,6.5,13.5s-0.052,0.259-0.146,0.354S6.134,14,6,14z"/>
	<path d="M13,14c-0.134,0-0.259-0.052-0.354-0.146S12.5,13.633,12.5,13.5s0.052-0.259,0.146-0.354l1-1
		C13.741,12.052,13.867,12,14,12s0.259,0.052,0.354,0.146S14.5,12.366,14.5,12.5s-0.052,0.259-0.146,0.354l-1,1
		C13.259,13.948,13.134,14,13,14z"/>
	<path d="M4,16c-0.276,0-0.5-0.224-0.5-0.5S3.724,15,4,15h1.5C5.776,15,6,15.224,6,15.5S5.776,16,5.5,16H4z"/>
	<path d="M13.5,16c-0.276,0-0.5-0.224-0.5-0.5s0.224-0.5,0.5-0.5H15c0.276,0,0.5,0.224,0.5,0.5S15.276,16,15,16H13.5z"/>
	<path d="M9.705,13.41c-0.335,0-0.653-0.109-0.917-0.316c-0.35-0.271-0.856-0.895-0.309-2.013l3.156-6.445
		c0.952-1.945,2.457-3.526,4.352-4.574C16.062,0.021,16.145,0,16.229,0c0.182,0,0.35,0.099,0.438,0.258
		c0.065,0.117,0.08,0.252,0.043,0.38c-0.037,0.128-0.122,0.234-0.239,0.299c-1.715,0.948-3.076,2.378-3.938,4.138L9.377,11.52
		c-0.271,0.555-0.078,0.704,0.026,0.785c0.089,0.07,0.196,0.107,0.309,0.107c0.155,0,0.298-0.069,0.392-0.189l3.853-5.799
		c0.283-0.427,0.715-0.719,1.218-0.822c0.128-0.026,0.258-0.039,0.387-0.039c0.375,0,0.74,0.11,1.056,0.319
		c0.706,0.467,1.021,1.326,0.785,2.138l-0.379,1.312c-0.017,0.161,0.026,0.321,0.123,0.451c0.103,0.139,0.253,0.229,0.424,0.255
		c0.032,0.005,0.064,0.007,0.096,0.007c0.238,0,0.454-0.128,0.567-0.336l0.962-2.777c0.661-1.912,2.221-3.37,4.174-3.899
		c0.044-0.011,0.087-0.017,0.13-0.017c0.226,0,0.425,0.152,0.483,0.369c0.072,0.266-0.086,0.541-0.352,0.613
		c-1.633,0.443-2.938,1.661-3.49,3.261l-0.974,2.811c-0.007,0.02-0.015,0.039-0.024,0.058c-0.279,0.566-0.843,0.918-1.472,0.918
		c-0.083,0-0.166-0.006-0.248-0.019c-0.434-0.065-0.818-0.296-1.079-0.649c-0.261-0.354-0.37-0.788-0.305-1.222
		c0.003-0.022,0.008-0.042,0.013-0.062l0.391-1.352c0.114-0.39-0.038-0.802-0.376-1.026c-0.151-0.1-0.326-0.153-0.505-0.153
		c-0.062,0-0.125,0.006-0.187,0.019C15.133,6.63,14.926,6.77,14.79,6.975l-3.878,5.834C10.608,13.197,10.172,13.41,9.705,13.41z"/>
	<path d="M13.5,21.012c-0.276,0-0.5-0.224-0.5-0.5s0.224-0.5,0.5-0.5H18v-2H1.5c-0.276,0-0.5,0.224-0.5,0.5
		c0.003,0.824,0.676,1.498,1.501,1.5H5.5c0.276,0,0.5,0.224,0.5,0.5s-0.224,0.5-0.5,0.5h-3c-1.375-0.004-2.496-1.125-2.5-2.499
		c0-0.828,0.673-1.501,1.5-1.501h16.908C18.434,17.005,18.464,17,18.5,17c0.038,0,0.069,0.006,0.092,0.012H22.5
		c0.827,0,1.5,0.673,1.5,1.5c-0.004,1.375-1.125,2.496-2.499,2.5C21.501,21.012,13.5,21.012,13.5,21.012z M21.5,20.012
		c0.824-0.002,1.498-0.676,1.5-1.501c0-0.275-0.224-0.499-0.5-0.499H19v2H21.5z"/>
</g>
</svg>
