<?xml version="1.0" encoding="utf-8"?>
<!-- Generator: Adobe Illustrator 22.1.0, SVG Export Plug-In . SVG Version: 6.00 Build 0)  -->
<svg version="1.1" id="Layer_1" xmlns="http://www.w3.org/2000/svg" xmlns:xlink="http://www.w3.org/1999/xlink" x="0px" y="0px"
	 viewBox="0 0 24 24" style="enable-background:new 0 0 24 24;" xml:space="preserve">
<g>
	<title>slide-right</title>
	<path d="M2.5,22.5C1.121,22.5,0,21.378,0,20V4c0-1.379,1.121-2.5,2.5-2.5h6C9.879,1.5,11,2.621,11,4v4.5C11,8.776,10.776,9,10.5,9
		S10,8.776,10,8.5v-2H1v11h9v-2c0-0.276,0.224-0.5,0.5-0.5s0.5,0.224,0.5,0.5V20c0,1.378-1.121,2.5-2.5,2.5H2.5z M1,20
		c0,0.827,0.673,1.5,1.5,1.5h6c0.827,0,1.5-0.673,1.5-1.5v-1.5H1V20z M10,5.5V4c0-0.827-0.673-1.5-1.5-1.5h-6C1.673,2.5,1,3.173,1,4
		v1.5H10z"/>
	<path d="M4,4.5C3.724,4.5,3.5,4.276,3.5,4S3.724,3.5,4,3.5h3c0.276,0,0.5,0.224,0.5,0.5S7.276,4.5,7,4.5H4z"/>
	<path d="M14,15.515c-0.134,0-0.259-0.052-0.354-0.146s-0.146-0.22-0.146-0.354s0.052-0.259,0.146-0.354l2.161-2.161H6.5
		C6.224,12.5,6,12.276,6,12c0-0.276,0.224-0.5,0.5-0.5h9.278l-2.131-2.131C13.552,9.274,13.5,9.149,13.5,9.015
		s0.052-0.259,0.146-0.354S13.866,8.515,14,8.515s0.259,0.052,0.354,0.146l2.937,2.937c0.132,0.094,0.21,0.242,0.21,0.401
		c0,0.002,0,0.013,0,0.015c0,0.134-0.052,0.259-0.146,0.354l-3,3C14.259,15.463,14.134,15.515,14,15.515z"/>
	<circle cx="5.5" cy="20" r="0.75"/>
	<path d="M21.5,14.5c-1.378,0-2.5-1.122-2.5-2.5c0-1.379,1.122-2.5,2.5-2.5S24,10.621,24,12C24,13.378,22.878,14.5,21.5,14.5z
		 M21.5,10.5c-0.827,0-1.5,0.673-1.5,1.5s0.673,1.5,1.5,1.5S23,12.827,23,12S22.327,10.5,21.5,10.5z"/>
</g>
</svg>
