<?xml version="1.0" encoding="utf-8"?>
<!-- Generator: Adobe Illustrator 22.1.0, SVG Export Plug-In . SVG Version: 6.00 Build 0)  -->
<svg version="1.1" id="Layer_1" xmlns="http://www.w3.org/2000/svg" xmlns:xlink="http://www.w3.org/1999/xlink" x="0px" y="0px"
	 viewBox="0 0 24 24" style="enable-background:new 0 0 24 24;" xml:space="preserve">
<g>
	<title>squeeze-sides</title>
	<path d="M23.5,23c-0.028,0-0.056-0.002-0.084-0.007l-5.923-0.987C17.02,22.632,16.288,23,15.5,23l-1.003-0.006H8.494
		c-1.196,0-2.209-0.843-2.443-1.994H6c-1.103,0-2-0.897-2-2c0-0.403,0.119-0.786,0.339-1.113C3.553,17.612,3,16.864,3,16
		c0-0.575,0.255-1.123,0.682-1.5C3.255,14.123,3,13.575,3,13c0-0.864,0.552-1.612,1.339-1.887C4.119,10.786,4,10.403,4,10
		c0-1.103,0.897-2,2-2h2c1.103,0,2,0.897,2,2c0,0.575-0.255,1.123-0.682,1.5C9.745,11.877,10,12.425,10,13s-0.255,1.123-0.682,1.5
		C9.745,14.877,10,15.425,10,16c0,0.575-0.254,1.123-0.681,1.5c0.167,0.146,0.307,0.319,0.418,0.512H17V3c0-0.551-0.448-1-1-1H8
		C7.451,2.002,7.002,2.451,7,3.002V6.5C7,6.776,6.776,7,6.5,7S6,6.776,6,6.5V3c0.004-1.099,0.9-1.996,1.998-2H16
		c1.103,0,2,0.897,2,2v4.768C18.301,7.593,18.643,7.5,19,7.5c1.103,0,2,0.897,2,2v2c0,1.378,1.122,2.5,2.5,2.5
		c0.276,0,0.5,0.224,0.5,0.5S23.776,15,23.5,15c-1.93,0-3.5-1.57-3.5-3.5v-2c0-0.551-0.448-1-1-1s-1,0.449-1,1v11
		c0,0.19-0.022,0.379-0.066,0.565l5.648,0.941c0.132,0.022,0.247,0.094,0.325,0.203s0.108,0.241,0.086,0.373
		C23.953,22.824,23.746,23,23.5,23z M7.089,21c0.208,0.583,0.769,0.994,1.406,0.994L15.49,22c0.833,0,1.51-0.673,1.51-1.5v-1.488h-7
		C9.994,20.109,9.099,21,8,21H7.089z M6,18c-0.551,0-1,0.448-1,1s0.449,1,1,1h2c0.551,0,1-0.448,1-1s-0.449-1-1-1H6z M5,15
		c-0.551,0-1,0.448-1,1s0.449,1,1,1h3c0.551,0,1-0.448,1-1s-0.449-1-1-1H5z M5,12c-0.551,0-1,0.448-1,1s0.449,1,1,1h3
		c0.551,0,1-0.448,1-1s-0.449-1-1-1H5z M6,9c-0.551,0-1,0.449-1,1s0.449,1,1,1h2c0.551,0,1-0.449,1-1S8.552,9,8,9H6z"/>
	<circle cx="12" cy="20.512" r="0.75"/>
	<path d="M2.5,6C2.367,6,2.241,5.948,2.147,5.854c-0.195-0.195-0.195-0.512,0-0.707L3.293,4H0.5C0.224,4,0,3.776,0,3.5
		S0.224,3,0.5,3h2.793L2.147,1.854c-0.195-0.195-0.195-0.512,0-0.707C2.241,1.052,2.367,1,2.5,1s0.259,0.052,0.354,0.146l2,2
		C4.9,3.193,4.936,3.247,4.962,3.308c0.05,0.122,0.05,0.261,0,0.383C4.936,3.753,4.9,3.807,4.854,3.854l-2,2
		C2.759,5.948,2.634,6,2.5,6z"/>
	<path d="M21.5,6c-0.134,0-0.259-0.052-0.354-0.146l-2-2c-0.046-0.046-0.083-0.101-0.109-0.163c-0.05-0.121-0.05-0.261,0-0.382
		c0.025-0.061,0.062-0.116,0.109-0.163l1.999-1.999C21.241,1.052,21.367,1,21.5,1s0.259,0.052,0.354,0.146S22,1.366,22,1.5
		s-0.052,0.259-0.146,0.354L20.707,3H23.5C23.776,3,24,3.224,24,3.5S23.776,4,23.5,4h-2.793l1.146,1.146
		C21.948,5.241,22,5.366,22,5.5s-0.052,0.259-0.146,0.354S21.634,6,21.5,6z"/>
</g>
</svg>
