<svg xmlns="http://www.w3.org/2000/svg" viewBox="0 0 24 24"><defs><style>.a{fill:none;stroke:currentColor;stroke-linecap:round;stroke-linejoin:round;}</style></defs><title>phone</title><path class="a" d="M9.086,7.4a2.315,2.315,0,0,0,0-3.271L6.632,1.678a2.313,2.313,0,0,0-3.271,0L2.016,3.024a3.463,3.463,0,0,0-.439,4.365A53.778,53.778,0,0,0,16.611,22.423a3.469,3.469,0,0,0,4.366-.437l1.345-1.346a2.312,2.312,0,0,0,0-3.271l-2.453-2.453a2.312,2.312,0,0,0-3.271,0l-.818.818A54.879,54.879,0,0,1,8.268,8.22Z"/></svg>