<svg xmlns="http://www.w3.org/2000/svg" viewBox="0 0 24 24"><defs><style>.a{fill:none;stroke:currentColor;stroke-linecap:round;stroke-linejoin:round;}</style></defs><title>phone-landline</title><path class="a" d="M21,2.909a3.087,3.087,0,0,1,2.5,2.91v2A2.179,2.179,0,0,1,21.5,10h-3a2.179,2.179,0,0,1-2-2.181v-1.5a46.029,46.029,0,0,0-9,0v1.5A2.179,2.179,0,0,1,5.5,10h-3a2.179,2.179,0,0,1-2-2.181v-2A3.087,3.087,0,0,1,3,2.909,45,45,0,0,1,21,2.909Z"/><path class="a" d="M19.5,12v8a2.005,2.005,0,0,1-2,2H6.5a2.005,2.005,0,0,1-2-2V12"/><path class="a" d="M8.25,13a.25.25,0,1,1-.25.25A.25.25,0,0,1,8.25,13"/><path class="a" d="M12,13a.25.25,0,1,1-.25.25A.25.25,0,0,1,12,13"/><path class="a" d="M8.25,16a.25.25,0,1,1-.25.25A.25.25,0,0,1,8.25,16"/><path class="a" d="M12,16a.25.25,0,1,1-.25.25A.25.25,0,0,1,12,16"/><path class="a" d="M8.25,19a.25.25,0,1,1-.25.25A.25.25,0,0,1,8.25,19"/><path class="a" d="M15.75,13a.25.25,0,1,0,.25.25.25.25,0,0,0-.25-.25"/><path class="a" d="M15.75,16a.25.25,0,1,0,.25.25.25.25,0,0,0-.25-.25"/><path class="a" d="M15.75,19a.25.25,0,1,0,.25.25.25.25,0,0,0-.25-.25"/><path class="a" d="M12,19a.25.25,0,1,1-.25.25A.25.25,0,0,1,12,19"/></svg>