<svg xmlns="http://www.w3.org/2000/svg" viewBox="0 0 24 24"><defs><style>.a{fill:none;stroke:currentColor;stroke-linecap:round;stroke-linejoin:round;}</style></defs><title>phone-off</title><circle class="a" cx="12" cy="12" r="11.5"/><line class="a" x1="20.132" y1="3.869" x2="3.869" y2="20.132"/><path class="a" d="M11.029,10.143q-.453-.516-.876-1.041l.575-.574a1.55,1.55,0,0,0,.114-2.181L9.292,4.8a1.548,1.548,0,0,0-2.181.115l-.944.943a2.384,2.384,0,0,0-.444,2.926A30.318,30.318,0,0,0,8.576,12.6"/><path class="a" d="M11.4,15.424a30.16,30.16,0,0,0,3.815,2.853,2.385,2.385,0,0,0,2.926-.443l.943-.944a1.549,1.549,0,0,0,.115-2.182l-1.55-1.549a1.549,1.549,0,0,0-2.18.114l-.574.574q-.525-.42-1.042-.876"/></svg>