<svg xmlns="http://www.w3.org/2000/svg" viewBox="0 0 24 24"><title>light-mode-exposure-1</title><path d="M24,3a3,3,0,0,0-3-3H3A3,3,0,0,0,0,3V21a3,3,0,0,0,3,3H21a3,3,0,0,0,3-3ZM20.5,16a1,1,0,0,1,0,2H18.25a.25.25,0,0,0-.25.25V20.5a1,1,0,0,1-2,0V18.25a.25.25,0,0,0-.25-.25H13.5a1,1,0,0,1,0-2h2.25a.25.25,0,0,0,.25-.25V13.5a1,1,0,0,1,2,0v2.25a.25.25,0,0,0,.25.25ZM2,3A1,1,0,0,1,3,2H21a.988.988,0,0,1,.431.1.249.249,0,0,1,.069.4l-19,19a.253.253,0,0,1-.219.07.249.249,0,0,1-.183-.139A.988.988,0,0,1,2,21Z"/><path d="M5.5,7.5H11a1,1,0,0,0,0-2H5.5a1,1,0,0,0,0,2Z"/></svg>