<svg xmlns="http://www.w3.org/2000/svg" viewBox="0 0 24 24"><title>light-mode-sunny-woman</title><path d="M17.25,2.5A.75.75,0,0,0,18,1.75v-1a.75.75,0,0,0-1.5,0v1A.75.75,0,0,0,17.25,2.5Z"/><path d="M21.316,3.745l.707-.707a.75.75,0,1,0-1.06-1.061l-.707.707a.75.75,0,0,0,1.06,1.061Z"/><path d="M23.25,6h-1a.75.75,0,0,0,0,1.5h1a.75.75,0,0,0,0-1.5Z"/><path d="M21.316,9.755a.75.75,0,0,0-1.06,1.061l.707.707a.75.75,0,1,0,1.06-1.061Z"/><path d="M17.25,11a.75.75,0,0,0-.75.75v1a.75.75,0,0,0,1.5,0v-1A.75.75,0,0,0,17.25,11Z"/><path d="M13.185,9.755l-.707.707a.75.75,0,1,0,1.06,1.061l.707-.707a.75.75,0,0,0-1.06-1.061Z"/><path d="M13,6.75A.75.75,0,0,0,12.25,6h-1a.75.75,0,0,0,0,1.5h1A.75.75,0,0,0,13,6.75Z"/><path d="M13.185,3.745a.75.75,0,0,0,1.06-1.061l-.707-.707a.75.75,0,1,0-1.06,1.061Z"/><circle cx="17.25" cy="6.75" r="3.5"/><path d="M.863,16.76a1,1,0,1,0,1.68,1.085,5.559,5.559,0,0,0,.522-1.033.249.249,0,0,1,.376-.116,4.49,4.49,0,0,0,5.128,0,.251.251,0,0,1,.376.116,5.5,5.5,0,0,0,.522,1.033,1,1,0,1,0,1.679-1.085,4.57,4.57,0,0,1-.641-2.511V13a4.5,4.5,0,0,0-9,0v1.249A4.562,4.562,0,0,1,.863,16.76ZM6.005,15.5A2.5,2.5,0,0,1,3.54,13.415a.251.251,0,0,1,.159-.276,5.718,5.718,0,0,0,2.134-1.407.252.252,0,0,1,.181-.077.247.247,0,0,1,.18.078,5.73,5.73,0,0,0,2.118,1.4.249.249,0,0,1,.158.275A2.5,2.5,0,0,1,6.005,15.5Z"/><path d="M6,18.5c-3.309,0-6,2.243-6,5a.5.5,0,0,0,.5.5h11a.5.5,0,0,0,.5-.5C12,20.743,9.309,18.5,6,18.5Z"/></svg>