<svg xmlns="http://www.w3.org/2000/svg" viewBox="0 0 24 24"><title>light-mode-bright-dark-2</title><path d="M21.25,2H2.75A2.752,2.752,0,0,0,0,4.75v14.5A2.752,2.752,0,0,0,2.75,22h18.5A2.752,2.752,0,0,0,24,19.25V4.75A2.752,2.752,0,0,0,21.25,2ZM5.623,12.723a1,1,0,0,1,0-1.414l1.3-1.3A.251.251,0,0,0,7,9.828V8A1,1,0,0,1,8,7H9.812a.249.249,0,0,0,.177-.073l1.3-1.3a1,1,0,0,1,1.414,0l1.3,1.3A.249.249,0,0,0,14.188,7H16a1,1,0,0,1,1,1V9.828a.251.251,0,0,0,.073.177l1.3,1.3a1,1,0,0,1,0,1.414l-1.3,1.3A.251.251,0,0,0,17,14.2V16a1,1,0,0,1-1,1H14.187a.249.249,0,0,0-.177.073l-1.3,1.3a1,1,0,0,1-1.414,0l-1.3-1.3A.249.249,0,0,0,9.812,17H8a1,1,0,0,1-1-1V14.2a.251.251,0,0,0-.073-.177Z"/><path d="M15.5,12a3.5,3.5,0,0,0-3.231-3.49A.25.25,0,0,0,12,8.76v6.481a.25.25,0,0,0,.08.183.253.253,0,0,0,.189.066A3.5,3.5,0,0,0,15.5,12Z"/></svg>