<svg xmlns="http://www.w3.org/2000/svg" viewBox="0 0 24 24"><title>light-mode-brightness</title><path d="M22.783,12.884a1.25,1.25,0,0,0,0-1.768l-2.46-2.46a.249.249,0,0,1-.074-.176V5A1.251,1.251,0,0,0,19,3.75H15.52a.251.251,0,0,1-.177-.073l-2.46-2.46a1.251,1.251,0,0,0-1.767,0l-2.46,2.46a.251.251,0,0,1-.177.073H5A1.252,1.252,0,0,0,3.749,5V8.48a.248.248,0,0,1-.073.176l-2.46,2.46a1.252,1.252,0,0,0,0,1.768l2.46,2.46a.249.249,0,0,1,.073.177V19A1.251,1.251,0,0,0,5,20.25h3.48a.251.251,0,0,1,.177.073l2.46,2.46a1.25,1.25,0,0,0,1.767,0l2.46-2.46a.251.251,0,0,1,.177-.073H19A1.25,1.25,0,0,0,20.249,19V15.521a.25.25,0,0,1,.074-.177ZM7,12a5,5,0,1,1,5,5A5,5,0,0,1,7,12Z"/></svg>