<svg xmlns="http://www.w3.org/2000/svg" viewBox="0 0 24 24"><title>light-mode-hdr-off</title><path d="M20,10a1.252,1.252,0,0,0-1.25-1.25h-1A.25.25,0,0,0,17.5,9v2a.249.249,0,0,0,.25.25h1A1.251,1.251,0,0,0,20,10Z"/><path d="M24,16.25V7.75A3.755,3.755,0,0,0,20.25,4H5.164a.251.251,0,0,1-.177-.073L1.28.22A.758.758,0,0,0,.22.22a.75.75,0,0,0,0,1.061l22.5,22.5a.75.75,0,1,0,1.06-1.061L21.3,20.236a.25.25,0,0,1,.1-.415A3.756,3.756,0,0,0,24,16.25Zm-7.927-1.237A.249.249,0,0,1,16,14.836V8a.75.75,0,0,1,.75-.75h2a2.751,2.751,0,0,1,.357,5.478.249.249,0,0,0-.145.424L21.28,15.47a.75.75,0,0,1-1.06,1.061l-2.293-2.293a.25.25,0,0,0-.427.177V16a.182.182,0,0,1-.311.129ZM11.334,8.936A.251.251,0,0,0,11,9.172v.164a.25.25,0,0,1-.427.177l-1-1A.249.249,0,0,1,9.5,8.336V8a.75.75,0,0,1,.75-.75,4.75,4.75,0,0,1,4.584,5.995.246.246,0,0,1-.177.176.25.25,0,0,1-.241-.065l-.857-.858a.246.246,0,0,1-.073-.2c.009-.1.014-.2.014-.3A3.256,3.256,0,0,0,11.334,8.936Z"/><path d="M13.057,16.075a.251.251,0,0,0-.309-.036,4.718,4.718,0,0,1-2.5.711A.75.75,0,0,1,9.5,16V12.622a.249.249,0,0,0-.073-.177l-1-1A.25.25,0,0,0,8,11.622V16a.75.75,0,0,1-1.5,0V13a.25.25,0,0,0-.25-.25h-2A.25.25,0,0,0,4,13v3a.75.75,0,0,1-1.5,0V8A.75.75,0,0,1,4,8v3a.249.249,0,0,0,.25.25h2A.249.249,0,0,0,6.5,11V9.622a.249.249,0,0,0-.073-.177L1.788,4.806a.25.25,0,0,0-.33-.021A3.744,3.744,0,0,0,0,7.75v8.5A3.755,3.755,0,0,0,3.75,20H16.379a.25.25,0,0,0,.177-.426Z"/></svg>