<svg id="Light" xmlns="http://www.w3.org/2000/svg" viewBox="0 0 24 24"><defs><style>.cls-1{fill:none;stroke:currentColor;stroke-linecap:round;stroke-linejoin:round;}</style></defs><title>single-woman-focus</title><path class="cls-1" d="M7.5,23.5h-6a1,1,0,0,1-1-1v-6"/><path class="cls-1" d="M7.5.5h-6a1,1,0,0,0-1,1v6"/><path class="cls-1" d="M16.5,23.5h6a1,1,0,0,0,1-1v-6"/><path class="cls-1" d="M16.5.5h6a1,1,0,0,1,1,1v6"/><path class="cls-1" d="M13.969,14.76a6.857,6.857,0,0,0,4.038-.847.5.5,0,0,0,.144-.752c-.47-.541-.8-1.241-.938-3.342C16.947,5.884,14.249,4.5,11.969,4.5S7.08,5.884,6.813,9.819c-.142,2.1-.468,2.8-.939,3.344a.5.5,0,0,0,.137.747,6.538,6.538,0,0,0,3.958.85"/><path class="cls-1" d="M21,20.268c-.572-1.553-1.275-2.1-6.515-4.037a.789.789,0,0,1-.516-.732V14.038a.847.847,0,0,1,.3-.59,2.88,2.88,0,0,0,.94-2.148V10.092a.986.986,0,0,0-.7-.949,5.291,5.291,0,0,1-2.184-1.256.5.5,0,0,0-.716,0,5.049,5.049,0,0,1-2.1,1.254.984.984,0,0,0-.7.946V11.3A2.877,2.877,0,0,0,9.7,13.4a1.021,1.021,0,0,1,.272.643V15.5a.834.834,0,0,1-.546.775C4.319,18.166,3.581,18.64,3,20.268"/></svg>