<svg id="Light" xmlns="http://www.w3.org/2000/svg" viewBox="0 0 24 24"><defs><style>.cls-1{fill:none;stroke:currentColor;stroke-linecap:round;stroke-linejoin:round;}</style></defs><title>single-woman-shield</title><path class="cls-1" d="M13.068,23.3l1.06-.4A13,13,0,0,0,22.5,10.751v-6.5a2,2,0,0,0-1.2-1.835,23.536,23.536,0,0,0-18.594,0A2,2,0,0,0,1.5,4.249v6.5A13,13,0,0,0,9.872,22.9l1.06.4A2.99,2.99,0,0,0,13.068,23.3Z"/><g id="_Group_" data-name="&lt;Group&gt;"><path class="cls-1" d="M13.889,14.19a6.335,6.335,0,0,0,3.745-.783.5.5,0,0,0,.143-.751c-.433-.508-.734-1.178-.866-3.133C16.659,5.807,14.153,4.5,12,4.5S7.341,5.807,7.089,9.523c-.132,1.955-.433,2.625-.866,3.133a.5.5,0,0,0,.143.751,6.343,6.343,0,0,0,3.745.783"/><path class="cls-1" d="M17.343,16.716c-.853-.352-1.862-.713-2.959-1.119a.759.759,0,0,1-.5-.709v-1.38a.754.754,0,0,1,.247-.559,2.72,2.72,0,0,0,.886-2.027v-1.1a.988.988,0,0,0-.7-.946A4.89,4.89,0,0,1,12.34,7.692a.5.5,0,0,0-.68,0A4.89,4.89,0,0,1,9.674,8.873a.988.988,0,0,0-.7.946v1.1a2.719,2.719,0,0,0,.886,2.027.754.754,0,0,1,.247.559v1.38a.759.759,0,0,1-.5.709c-1.1.406-2.106.767-2.959,1.119"/></g></svg>