<?xml version="1.0" encoding="utf-8"?>
<!-- Generator: Adobe Illustrator 22.1.0, SVG Export Plug-In . SVG Version: 6.00 Build 0)  -->
<svg version="1.1" id="Layer_1" xmlns="http://www.w3.org/2000/svg" xmlns:xlink="http://www.w3.org/1999/xlink" x="0px" y="0px"
	 viewBox="0 0 24 24" style="enable-background:new 0 0 24 24;" xml:space="preserve">
<title>keyboard</title>
<g>
	<path d="M3.75,24C1.682,24,0,22.318,0,20.25v-6c0-2.068,1.682-3.75,3.75-3.75H6V9.75C6,6.855,8.355,4.5,11.25,4.5H15
		c2.068,0,3.75-1.682,3.75-3.75C18.75,0.336,19.086,0,19.5,0s0.75,0.336,0.75,0.75C20.25,3.645,17.895,6,15,6h-3.75
		C9.182,6,7.5,7.682,7.5,9.75v0.75h12.75c2.068,0,3.75,1.682,3.75,3.75v6c0,2.068-1.682,3.75-3.75,3.75H3.75z M3.75,12
		c-1.241,0-2.25,1.009-2.25,2.25v6c0,1.241,1.009,2.25,2.25,2.25h16.5c1.241,0,2.25-1.009,2.25-2.25v-6
		c0-1.241-1.009-2.25-2.25-2.25H3.75z"/>
	<path d="M6.75,15C6.336,15,6,14.664,6,14.25s0.336-0.75,0.75-0.75h1.5C8.664,13.5,9,13.836,9,14.25S6.75,15,6.75,15z"/>
	<path d="M15.75,15C15.336,15,15,14.664,15,14.25s0.336-0.75,0.75-0.75h1.5c0.414,0,0.75,0.336,0.75,0.75S17.664,15,17.25,15H15.75z
		"/>
	<path d="M11.25,15c-0.414,0-0.75-0.336-0.75-0.75s0.336-0.75,0.75-0.75h1.5c0.414,0,0.75,0.336,0.75,0.75S13.164,15,12.75,15H11.25
		z"/>
	<path d="M4.5,18c-0.414,0-0.75-0.336-0.75-0.75S4.086,16.5,4.5,16.5H6c0.414,0,0.75,0.336,0.75,0.75S6.414,18,6,18H4.5z"/>
	<path d="M9,18c-0.414,0-0.75-0.336-0.75-0.75S8.586,16.5,9,16.5h1.5c0.414,0,0.75,0.336,0.75,0.75S10.914,18,10.5,18H9z"/>
	<path d="M13.5,18c-0.414,0-0.75-0.336-0.75-0.75s0.336-0.75,0.75-0.75H15c0.414,0,0.75,0.336,0.75,0.75S15.414,18,15,18H13.5z"/>
	<path d="M18,18c-0.414,0-0.75-0.336-0.75-0.75S17.586,16.5,18,16.5h1.5c0.414,0,0.75,0.336,0.75,0.75S19.914,18,19.5,18H18z"/>
	<path d="M6.75,21C6.336,21,6,20.664,6,20.25s0.336-0.75,0.75-0.75h10.5c0.414,0,0.75,0.336,0.75,0.75S17.664,21,17.25,21H6.75z"/>
</g>
</svg>
