<?xml version="1.0" encoding="utf-8"?>
<!-- Generator: Adobe Illustrator 22.1.0, SVG Export Plug-In . SVG Version: 6.00 Build 0)  -->
<svg version="1.1" id="Layer_1" xmlns="http://www.w3.org/2000/svg" xmlns:xlink="http://www.w3.org/1999/xlink" x="0px" y="0px"
	 viewBox="0 0 24 24" style="enable-background:new 0 0 24 24;" xml:space="preserve">
<title>keyboard-2</title>
<g>
	<path d="M1.5,24C0.673,24,0,23.327,0,22.5V12c0-0.827,0.673-1.5,1.5-1.5H6V9.75C6,6.855,8.355,4.5,11.25,4.5H15
		c2.068,0,3.75-1.682,3.75-3.75C18.75,0.336,19.086,0,19.5,0s0.75,0.336,0.75,0.75C20.25,3.645,17.895,6,15,6h-3.75
		C9.182,6,7.5,7.682,7.5,9.75v0.75h15c0.827,0,1.5,0.673,1.5,1.5v10.5c0,0.827-0.673,1.5-1.5,1.5H1.5z M22.5,22.5V12h-21v10.5h3
		v-2.25c0-0.414,0.336-0.75,0.75-0.75h13.5c0.414,0,0.75,0.336,0.75,0.75v2.25H22.5z M18,22.5V21H6v1.5H18z"/>
	<path d="M4.5,18c-0.414,0-0.75-0.336-0.75-0.75S4.086,16.5,4.5,16.5h15c0.414,0,0.75,0.336,0.75,0.75S19.914,18,19.5,18H4.5z"/>
	<path d="M4.5,15c-0.414,0-0.75-0.336-0.75-0.75S4.086,13.5,4.5,13.5h15c0.414,0,0.75,0.336,0.75,0.75S19.914,15,19.5,15H4.5z"/>
</g>
</svg>
