<?xml version="1.0" encoding="utf-8"?>
<!-- Generator: Adobe Illustrator 22.1.0, SVG Export Plug-In . SVG Version: 6.00 Build 0)  -->
<svg version="1.1" id="Layer_1" xmlns="http://www.w3.org/2000/svg" xmlns:xlink="http://www.w3.org/1999/xlink" x="0px" y="0px"
	 viewBox="0 0 24 24" style="enable-background:new 0 0 24 24;" xml:space="preserve">
<title>keyboard-wireless-2</title>
<g>
	<path d="M8.838,8.333c-0.272,0-0.523-0.147-0.655-0.385c-0.201-0.361-0.071-0.819,0.29-1.02c1.084-0.604,2.305-0.924,3.53-0.924
		c1.225,0,2.446,0.319,3.53,0.924c0.175,0.098,0.302,0.257,0.356,0.45c0.055,0.193,0.031,0.395-0.066,0.57
		c-0.133,0.237-0.384,0.385-0.656,0.385l0,0c-0.127,0-0.253-0.033-0.365-0.094c-0.861-0.48-1.829-0.733-2.8-0.733
		s-1.939,0.253-2.799,0.733C9.092,8.3,8.965,8.333,8.838,8.333z"/>
	<path d="M16.747,5.747c-0.128,0-0.254-0.033-0.366-0.095c-1.325-0.74-2.839-1.132-4.379-1.132c-1.54,0-3.054,0.391-4.379,1.132
		C7.512,5.714,7.386,5.747,7.258,5.747c-0.272,0-0.523-0.147-0.655-0.384C6.402,5.002,6.531,4.544,6.892,4.342
		c1.547-0.865,3.314-1.322,5.111-1.322c1.796,0,3.563,0.457,5.11,1.322c0.175,0.098,0.301,0.258,0.356,0.451
		c0.055,0.193,0.031,0.395-0.067,0.57C17.27,5.6,17.018,5.747,16.747,5.747L16.747,5.747z"/>
	<path d="M5.695,3.19c-0.268,0-0.518-0.145-0.651-0.377c-0.1-0.174-0.125-0.376-0.073-0.569s0.177-0.355,0.351-0.454
		c2.022-1.159,4.332-1.771,6.68-1.771c2.348,0,4.658,0.612,6.681,1.771c0.358,0.205,0.483,0.664,0.278,1.023
		C18.828,3.045,18.578,3.19,18.31,3.19c-0.13,0-0.259-0.034-0.373-0.099c-1.796-1.029-3.848-1.573-5.935-1.573
		S7.864,2.062,6.068,3.091C5.955,3.155,5.826,3.19,5.695,3.19C5.696,3.19,5.696,3.19,5.695,3.19z"/>
	<path d="M1.502,24.011c-0.827,0-1.5-0.673-1.5-1.5v-10.5c0-0.827,0.673-1.5,1.5-1.5h21c0.827,0,1.5,0.673,1.5,1.5v10.5
		c0,0.827-0.673,1.5-1.5,1.5H1.502z M22.502,22.511v-10.5h-21v10.5h3v-2.25c0-0.414,0.336-0.75,0.75-0.75h13.5
		c0.414,0,0.75,0.336,0.75,0.75v2.25H22.502z M18.002,22.511v-1.5h-12v1.5H18.002z"/>
	<path d="M4.502,18.011c-0.414,0-0.75-0.336-0.75-0.75s0.336-0.75,0.75-0.75h15c0.414,0,0.75,0.336,0.75,0.75s-0.336,0.75-0.75,0.75
		H4.502z"/>
	<path d="M4.502,15.011c-0.414,0-0.75-0.336-0.75-0.75s0.336-0.75,0.75-0.75h15c0.414,0,0.75,0.336,0.75,0.75s-0.336,0.75-0.75,0.75
		H4.502z"/>
</g>
</svg>
