<?xml version="1.0" encoding="utf-8"?>
<!-- Generator: Adobe Illustrator 22.1.0, SVG Export Plug-In . SVG Version: 6.00 Build 0)  -->
<svg version="1.1" id="Layer_1" xmlns="http://www.w3.org/2000/svg" xmlns:xlink="http://www.w3.org/1999/xlink" x="0px" y="0px"
	 viewBox="0 0 24 24" style="enable-background:new 0 0 24 24;" xml:space="preserve">
<title>keyboard-usb</title>
<g>
	<path d="M11.992,23.982c-2.956,0-5.794-1.084-7.994-3.052c-4.93-4.412-5.352-12.012-0.94-16.942
		c1.852-2.069,4.383-3.44,7.128-3.859c0.107-0.015,0.21-0.021,0.311-0.021c1.123,0,2.083,0.838,2.232,1.949
		c0.014,0.103,0.021,0.209,0.02,0.314v0.664c3.392,0.376,6,3.256,6,6.708v4.5c0,3.722-3.028,6.75-6.75,6.75
		c-3.722,0-6.75-3.028-6.75-6.75v-4.5c0-3.452,2.608-6.332,6-6.708V2.367c0-0.038-0.002-0.074-0.007-0.109
		c-0.05-0.371-0.369-0.651-0.743-0.651c-0.033,0-0.067,0.002-0.101,0.007C8.009,1.98,5.797,3.179,4.176,4.989
		c-1.867,2.086-2.809,4.779-2.654,7.582c0.156,2.803,1.39,5.375,3.476,7.242c1.924,1.722,4.408,2.67,6.995,2.67
		c2.989,0,5.843-1.273,7.828-3.492C23.682,14.677,23.313,8.027,19,4.167c-0.308-0.276-0.334-0.75-0.059-1.059
		c0.143-0.159,0.347-0.25,0.56-0.25c0.185,0,0.362,0.068,0.5,0.191c4.93,4.411,5.352,12.011,0.94,16.941
		c-2.27,2.537-5.531,3.992-8.947,3.992H11.992z M6.75,14.243c0,2.895,2.355,5.25,5.25,5.25s5.25-2.355,5.25-5.25v-2.25H6.75V14.243z
		 M17.25,10.493v-0.75c0-2.62-1.947-4.828-4.5-5.195v5.945H17.25z M11.25,10.493V4.548c-2.554,0.367-4.5,2.576-4.5,5.195v0.75H11.25
		z"/>
</g>
</svg>
