<svg xmlns="http://www.w3.org/2000/svg" viewBox="0 0 24 24"><title>ranking-ribbon-1</title><path d="M7.859,10.506a.25.25,0,0,0,.177-.16l.106-.3a.249.249,0,0,0-.069-.27A2.362,2.362,0,0,1,9.414,5.47h.235l.107-.335a2.357,2.357,0,0,1,4.489,0l.107.332h.234a2.362,2.362,0,0,1,1.341,4.3.252.252,0,0,0-.07.27c.034.095.075.213.107.3a.248.248,0,0,0,.177.16,18.341,18.341,0,0,1,2.56.826.256.256,0,0,0,.216-.013A3.148,3.148,0,0,0,20.5,8.5a3.152,3.152,0,0,0-1.709-2.813,3.17,3.17,0,0,0-3.978-3.978,3.169,3.169,0,0,0-5.626,0A3.17,3.17,0,0,0,5.208,5.688,3.152,3.152,0,0,0,3.5,8.5a3.16,3.16,0,0,0,1.584,2.817.245.245,0,0,0,.216.014A18.464,18.464,0,0,1,7.859,10.506Z"/><path d="M5.494,22.023a1.993,1.993,0,0,1-1.873-1.338l-.554-1.522a.248.248,0,0,0-.343-.139A5.866,5.866,0,0,1,.5,19.5a.5.5,0,0,0-.257.929l2.1,1.261-.793,1.586A.5.5,0,0,0,2,24c.482,0,4.157,0,4.878-1.959a.251.251,0,0,0-.076-.279.249.249,0,0,0-.288-.021A1.965,1.965,0,0,1,5.494,22.023Z"/><path d="M23.982,19.867A.5.5,0,0,0,23.5,19.5a5.866,5.866,0,0,1-2.224-.476.25.25,0,0,0-.343.139l-.554,1.522A2,2,0,0,1,18.615,22a1.921,1.921,0,0,1-1.133-.28.25.25,0,0,0-.365.3C17.824,24.005,21.519,24,22,24a.5.5,0,0,0,.447-.724l-.793-1.586,2.1-1.261A.5.5,0,0,0,23.982,19.867Z"/><path d="M18.053,20.225a.5.5,0,0,0,.917-.053l1.722-4.736a1.493,1.493,0,0,0-.671-1.818,16.708,16.708,0,0,0-3.868-1.562.25.25,0,0,0-.289.131,2.349,2.349,0,0,1-3.483.871l-.236-.168a.249.249,0,0,0-.29,0l-.239.171a2.351,2.351,0,0,1-3.481-.874.248.248,0,0,0-.288-.131,16.708,16.708,0,0,0-3.868,1.562,1.5,1.5,0,0,0-.671,1.818L5.03,20.172a.5.5,0,0,0,.916.055C6,20.116,7.4,17.5,12,17.5S18,20.116,18.053,20.225Z"/><path d="M9.442,10.841a.858.858,0,0,0,1.3,1l1.111-.794a.249.249,0,0,1,.29,0l1.11.793a.858.858,0,0,0,1.3-1h0l-.474-1.262a.252.252,0,0,1,.074-.28l.976-.813a.857.857,0,0,0-.548-1.516H13.44A.249.249,0,0,1,13.2,6.8l-.386-1.2a.857.857,0,0,0-1.632,0L10.8,6.8a.249.249,0,0,1-.238.174H9.414a.857.857,0,0,0-.549,1.516l.977.813a.252.252,0,0,1,.074.28Z"/></svg>