<svg xmlns="http://www.w3.org/2000/svg" viewBox="0 0 24 24"><title>ranking-winner</title><path d="M5.5,9.5h-4A1.5,1.5,0,0,0,0,11v9a1.5,1.5,0,0,0,1.5,1.5h4A.5.5,0,0,0,6,21V10A.5.5,0,0,0,5.5,9.5Z"/><path d="M22.5,13.5h-4a.5.5,0,0,0-.5.5v7a.5.5,0,0,0,.5.5h4A1.5,1.5,0,0,0,24,20V15A1.5,1.5,0,0,0,22.5,13.5Z"/><path d="M15,2.5H9A1.5,1.5,0,0,0,7.5,4V21a.5.5,0,0,0,.5.5h8a.5.5,0,0,0,.5-.5V4A1.5,1.5,0,0,0,15,2.5Zm-2,8.25H11a.75.75,0,0,1,0-1.5A.25.25,0,0,0,11.25,9V7A.25.25,0,0,0,11,6.75a.75.75,0,0,1,0-1.5h.5A1.252,1.252,0,0,1,12.75,6.5V9a.25.25,0,0,0,.25.25.75.75,0,0,1,0,1.5Z"/></svg>