<?xml version="1.0" encoding="utf-8"?>
<!-- Generator: Adobe Illustrator 22.1.0, SVG Export Plug-In . SVG Version: 6.00 Build 0)  -->
<svg version="1.1" id="Layer_1" xmlns="http://www.w3.org/2000/svg" xmlns:xlink="http://www.w3.org/1999/xlink" x="0px" y="0px"
	 viewBox="0 0 24 24" style="enable-background:new 0 0 24 24;" xml:space="preserve">
<g>
	<title>graph-stats-descend</title>
	<path d="M15.812,18.75c-0.276,0-0.5-0.224-0.5-0.5s0.224-0.5,0.5-0.5h5.833l-6.108-6.922c-0.1-0.111-0.245-0.176-0.397-0.176
		c-0.125,0-0.243,0.042-0.341,0.122l-4.461,3.717c-0.277,0.227-0.625,0.352-0.98,0.352c-0.434,0-0.851-0.185-1.143-0.507
		L0.876,6.082c-0.089-0.1-0.133-0.228-0.126-0.361c0.008-0.133,0.067-0.256,0.167-0.344C1.009,5.295,1.127,5.25,1.25,5.25
		c0.143,0,0.279,0.061,0.374,0.168l7.336,8.25c0.1,0.111,0.246,0.175,0.398,0.175c0.126,0,0.245-0.042,0.343-0.123l4.46-3.717
		c0.277-0.227,0.624-0.351,0.978-0.351c0.436,0,0.853,0.186,1.144,0.511l5.966,6.762v-4.654c0-0.276,0.224-0.5,0.5-0.5
		s0.5,0.224,0.5,0.5v5.979c0,0.015-0.001,0.03-0.004,0.045c-0.003,0.024-0.008,0.042-0.01,0.052
		c-0.006,0.031-0.014,0.07-0.033,0.112c-0.004,0.009-0.01,0.018-0.015,0.028c-0.089,0.163-0.255,0.263-0.437,0.263H15.812z"/>
</g>
</svg>
