<?xml version="1.0" encoding="utf-8"?>
<!-- Generator: Adobe Illustrator 22.1.0, SVG Export Plug-In . SVG Version: 6.00 Build 0)  -->
<svg version="1.1" id="Layer_1" xmlns="http://www.w3.org/2000/svg" xmlns:xlink="http://www.w3.org/1999/xlink" x="0px" y="0px"
	 viewBox="0 0 24 24" style="enable-background:new 0 0 24 24;" xml:space="preserve">
<title>photography-equipment-light-2</title>
<g>
	<path d="M12,12.75c-1.241,0-2.25-1.009-2.25-2.25S10.759,8.25,12,8.25c1.241,0,2.25,1.009,2.25,2.25S13.241,12.75,12,12.75z
		 M12,9.75c-0.414,0-0.75,0.336-0.75,0.75s0.336,0.75,0.75,0.75s0.75-0.336,0.75-0.75S12.414,9.75,12,9.75z"/>
	<path d="M13.5,24c-0.414,0-0.75-0.336-0.75-0.75V21h-1.5v2.25c0,0.414-0.336,0.75-0.75,0.75s-0.75-0.336-0.75-0.75V21H8.165
		c-0.603-0.002-1.167-0.237-1.591-0.664c-0.424-0.426-0.656-0.992-0.654-1.593c0.001-0.269,0.049-0.533,0.143-0.784l0.908-2.428
		l-2.43,0.911c-0.254,0.095-0.519,0.144-0.788,0.144c-0.934,0-1.781-0.586-2.109-1.459c-0.094-0.252-0.143-0.516-0.143-0.784V6.665
		c0-0.601,0.234-1.166,0.658-1.591c0.425-0.425,0.99-0.66,1.591-0.66c0.272,0,0.538,0.048,0.792,0.143l2.428,0.911L6.058,3.04
		C5.622,1.879,6.212,0.579,7.374,0.143C7.628,0.048,7.894,0,8.164,0h7.671c1.242,0.004,2.249,1.016,2.246,2.257
		c-0.001,0.268-0.049,0.531-0.143,0.783l-0.908,2.43l2.43-0.911c0.254-0.095,0.519-0.144,0.788-0.144
		c0.934,0,1.781,0.587,2.108,1.46C22.452,6.127,22.5,6.393,22.5,6.665v7.671c-0.003,1.239-1.013,2.246-2.25,2.246
		c-0.276-0.001-0.54-0.049-0.791-0.143l-2.428-0.908l0.911,2.43c0.211,0.562,0.19,1.173-0.059,1.72
		c-0.249,0.548-0.695,0.966-1.257,1.176c-0.251,0.094-0.514,0.143-0.784,0.144H14.25v2.25C14.25,23.664,13.914,24,13.5,24z
		 M7.468,18.486c-0.032,0.085-0.048,0.173-0.048,0.262c-0.001,0.2,0.077,0.389,0.218,0.531c0.141,0.142,0.329,0.22,0.53,0.221h7.673
		c0.088,0,0.175-0.016,0.259-0.048c0.388-0.146,0.584-0.579,0.439-0.966L15.23,15H8.77L7.468,18.486z M3.75,5.914
		c-0.2,0-0.389,0.078-0.53,0.22C3.078,6.276,3,6.464,3,6.665v7.675c0,0.088,0.016,0.175,0.048,0.26
		c0.109,0.291,0.392,0.486,0.704,0.486c0.089,0,0.177-0.016,0.262-0.048L7.5,13.73V7.27L4.014,5.962
		C3.929,5.93,3.841,5.914,3.75,5.914l0-0.375L3.75,5.914z M19.986,15.033c0.084,0.032,0.172,0.048,0.262,0.048
		c0.201,0,0.389-0.077,0.531-0.218s0.22-0.329,0.221-0.53V6.665c0-0.091-0.016-0.179-0.048-0.263
		c-0.11-0.292-0.392-0.487-0.704-0.487c-0.089,0-0.177,0.016-0.262,0.048L16.5,7.27v6.46L19.986,15.033z M15,13.5v-6H9v6H15z
		 M15.229,6l1.303-3.486c0.032-0.085,0.048-0.172,0.048-0.262c0.001-0.414-0.334-0.751-0.748-0.753H8.164
		c-0.09,0-0.179,0.016-0.264,0.048C7.514,1.693,7.317,2.126,7.462,2.514L8.77,6H15.229z"/>
</g>
</svg>
