<svg xmlns="http://www.w3.org/2000/svg" viewBox="0 0 24 24"><defs><style>.a{fill:none;stroke:currentColor;stroke-linecap:round;stroke-linejoin:round;}</style></defs><title>phone-write</title><path class="a" d="M17,12v9.5a2,2,0,0,1-2,2H4a2,2,0,0,1-2-2V2.5a2,2,0,0,1,2-2H15A1.985,1.985,0,0,1,16,.765"/><line class="a" x1="17" y1="19.5" x2="2" y2="19.5"/><line class="a" x1="7" y1="2.5" x2="12" y2="2.5"/><path class="a" d="M9.5,21a.25.25,0,0,1,.25.25h0a.25.25,0,0,1-.25.25h0a.25.25,0,0,1-.25-.25h0A.25.25,0,0,1,9.5,21"/><line class="a" x1="9.5" y1="21" x2="9.5" y2="21"/><path class="a" d="M21.377,4.12l-7.63,7.63L10,12.5l.75-3.75,7.63-7.63a2.113,2.113,0,0,1,2.991,0l.009.008A2.116,2.116,0,0,1,21.377,4.12Z"/></svg>