<svg xmlns="http://www.w3.org/2000/svg" viewBox="0 0 24 24"><defs><style>.a{fill:none;stroke:currentColor;stroke-linecap:round;stroke-linejoin:round;}</style></defs><title>phone-hand-typing</title><path class="a" d="M21.5,10V21.5a2,2,0,0,1-2,2h-9a2,2,0,0,1-2-2V16"/><path class="a" d="M8.5,12V4.5A2,2,0,0,1,9.72,2.658"/><line class="a" x1="21.5" y1="19.5" x2="8.5" y2="19.5"/><path class="a" d="M15,21.251h0a.25.25,0,0,1,.25.25h0a.25.25,0,0,1-.25.25h0a.249.249,0,0,1-.25-.25h0a.249.249,0,0,1,.25-.25"/><path class="a" d="M8.5,16h3a2,2,0,0,0,0-4H6"/><path class="a" d="M6.5,18.967A3.2,3.2,0,0,0,8.5,16"/><path class="a" d="M8.5,7h-2a6,6,0,0,0-6,6v5.546c0,1.513.672,2.23,2,2.954v2"/><path class="a" d="M15,4.25a.25.25,0,1,1-.25.25A.25.25,0,0,1,15,4.25"/><path class="a" d="M18,4.25a.25.25,0,1,1-.25.25A.25.25,0,0,1,18,4.25"/><path class="a" d="M21,4.25a.25.25,0,1,1-.25.25A.25.25,0,0,1,21,4.25"/><path class="a" d="M19.75.5h-4.5a3.75,3.75,0,0,0,0,7.5H16.5v2l3-2h.25a3.75,3.75,0,0,0,0-7.5Z"/></svg>