<svg xmlns="http://www.w3.org/2000/svg" viewBox="0 0 24 24"><defs><style>.a{fill:none;stroke:currentColor;stroke-linecap:round;stroke-linejoin:round;}</style></defs><title>keyboard-gaming</title><path class="a" d="M11.5.5V1A1.5,1.5,0,0,0,13,2.5h5a3.5,3.5,0,0,1,0,7H5.5a3,3,0,0,0-3,3v1"/><line class="a" x1="7.5" y1="20.5" x2="16.5" y2="20.5"/><polyline class="a" points="23.5 19.5 21.5 19.5 21.5 15.5 23.5 15.5"/><line class="a" x1="11.5" y1="15.5" x2="12.5" y2="15.5"/><line class="a" x1="8.5" y1="15.5" x2="9.5" y2="15.5"/><line class="a" x1="14.5" y1="15.5" x2="15.5" y2="15.5"/><line class="a" x1="17.5" y1="15.5" x2="18.5" y2="15.5"/><line class="a" x1="5.5" y1="15.5" x2="6.5" y2="15.5"/><line class="a" x1="11.5" y1="17.5" x2="12.5" y2="17.5"/><line class="a" x1="8.5" y1="17.5" x2="9.5" y2="17.5"/><line class="a" x1="14.5" y1="17.5" x2="15.5" y2="17.5"/><line class="a" x1="17.5" y1="17.5" x2="18.5" y2="17.5"/><line class="a" x1="5.5" y1="17.5" x2="6.5" y2="17.5"/><polyline class="a" points="0.5 19.5 2.5 19.5 2.5 15.5 0.5 15.5"/><path class="a" d="M.5,15.5a2,2,0,0,1,2-2h4l1-1h9l1,1h4a2,2,0,0,1,2,2v5a2,2,0,0,1-2,2h-4l-1,1h-9l-1-1h-4a2,2,0,0,1-2-2Z"/></svg>