<svg xmlns="http://www.w3.org/2000/svg" viewBox="0 0 24 24"><defs><style>.a{fill:none;stroke:currentColor;stroke-linecap:round;stroke-linejoin:round;}</style></defs><title>keyboard-wireless</title><rect class="a" x="0.5" y="12.5" width="23" height="10" rx="2" ry="2"/><path class="a" d="M18,3.317a10.815,10.815,0,0,0-12,0"/><path class="a" d="M16.588,5.435a8.267,8.267,0,0,0-9.176,0"/><path class="a" d="M15.177,7.553a5.727,5.727,0,0,0-6.354,0"/><line class="a" x1="4" y1="19.5" x2="5" y2="19.5"/><line class="a" x1="4" y1="17.5" x2="5" y2="17.5"/><line class="a" x1="7" y1="17.5" x2="8" y2="17.5"/><line class="a" x1="10" y1="17.5" x2="11" y2="17.5"/><line class="a" x1="13" y1="17.5" x2="14" y2="17.5"/><line class="a" x1="16" y1="17.5" x2="17" y2="17.5"/><line class="a" x1="19" y1="17.5" x2="20" y2="17.5"/><line class="a" x1="4" y1="15.5" x2="5" y2="15.5"/><line class="a" x1="7" y1="15.5" x2="8" y2="15.5"/><line class="a" x1="10" y1="15.5" x2="11" y2="15.5"/><line class="a" x1="13" y1="15.5" x2="14" y2="15.5"/><line class="a" x1="16" y1="15.5" x2="17" y2="15.5"/><line class="a" x1="19" y1="15.5" x2="20" y2="15.5"/><line class="a" x1="7" y1="19.5" x2="17" y2="19.5"/><line class="a" x1="19" y1="19.5" x2="20" y2="19.5"/></svg>