<svg xmlns="http://www.w3.org/2000/svg" viewBox="0 0 24 24"><defs><style>.a{fill:none;stroke:currentColor;stroke-linecap:round;stroke-linejoin:round;}</style></defs><title>keyboard-wireless-gaming</title><path class="a" d="M18,3.317a10.815,10.815,0,0,0-12,0"/><path class="a" d="M16.588,5.435a8.267,8.267,0,0,0-9.176,0"/><path class="a" d="M15.177,7.553a5.727,5.727,0,0,0-6.354,0"/><polyline class="a" points="23.5 18.5 21.5 18.5 21.5 14.5 23.5 14.5"/><polyline class="a" points="0.5 18.5 2.5 18.5 2.5 14.5 0.5 14.5"/><path class="a" d="M.5,14.5a2,2,0,0,1,2-2h4l1-1h9l1,1h4a2,2,0,0,1,2,2v5a2,2,0,0,1-2,2h-4l-1,1h-9l-1-1h-4a2,2,0,0,1-2-2Z"/><line class="a" x1="7.5" y1="19.5" x2="16.5" y2="19.5"/><line class="a" x1="11.5" y1="14.5" x2="12.5" y2="14.5"/><line class="a" x1="8.5" y1="14.5" x2="9.5" y2="14.5"/><line class="a" x1="14.5" y1="14.5" x2="15.5" y2="14.5"/><line class="a" x1="17.5" y1="14.5" x2="18.5" y2="14.5"/><line class="a" x1="5.5" y1="14.5" x2="6.5" y2="14.5"/><line class="a" x1="11.5" y1="16.5" x2="12.5" y2="16.5"/><line class="a" x1="8.5" y1="16.5" x2="9.5" y2="16.5"/><line class="a" x1="14.5" y1="16.5" x2="15.5" y2="16.5"/><line class="a" x1="17.5" y1="16.5" x2="18.5" y2="16.5"/><line class="a" x1="5.5" y1="16.5" x2="6.5" y2="16.5"/></svg>