<svg xmlns="http://www.w3.org/2000/svg" viewBox="0 0 24 24"><title>drawer-cash</title><path d="M4.51,12.5h0a1,1,0,0,0,1-1L5.5,2.25a.251.251,0,0,1,.073-.177A.255.255,0,0,1,5.753,2H18.247a.25.25,0,0,1,.25.25L18.5,11.5a1,1,0,0,0,1,1h0a1,1,0,0,0,1-1L20.5,2a2,2,0,0,0-2-2H5.5a2,2,0,0,0-2,2l.006,9.5A1,1,0,0,0,4.51,12.5Z"/><path d="M12.125,13.75a.75.75,0,0,0,.75-.75v-.522a2.084,2.084,0,0,0,.56-4.011l-2.063-.826a.592.592,0,0,1,.22-1.141h2.033a.75.75,0,0,0,0-1.5h-.75V4.5a.75.75,0,0,0-1.5,0v.522a2.085,2.085,0,0,0-.56,4.012l2.063.825A.592.592,0,0,1,12.658,11H10.625a.75.75,0,0,0,0,1.5h.75V13A.75.75,0,0,0,12.125,13.75Z"/><path d="M23.868,16l-1.75-3A1,1,0,1,0,20.39,14l1.164,2H17.5A1.5,1.5,0,0,0,16,17.5,1.5,1.5,0,0,1,14.5,19h-5A1.5,1.5,0,0,1,8,17.5,1.5,1.5,0,0,0,6.5,16H2.454l1.164-2A1,1,0,1,0,1.89,13L.14,16a1.414,1.414,0,0,0-.14.5v6A1.5,1.5,0,0,0,1.5,24h21A1.5,1.5,0,0,0,24,22.5v-6A1.255,1.255,0,0,0,23.868,16Z"/></svg>