<svg xmlns="http://www.w3.org/2000/svg" viewBox="0 0 24 24"><title>drawer-file</title><path d="M8.5,5.75h2a.75.75,0,0,0,0-1.5h-2a.75.75,0,0,0,0,1.5Z"/><path d="M7.753,8.5a.75.75,0,0,0,.75.75h7a.75.75,0,0,0,0-1.5h-7A.75.75,0,0,0,7.753,8.5Z"/><path d="M8.5,12.75h7a.75.75,0,0,0,0-1.5h-7a.75.75,0,0,0,0,1.5Z"/><path d="M23.867,16,20.5,10.227,20.5,2a2,2,0,0,0-2-2H5.5a2,2,0,0,0-2,2l0,8.222L.14,16a1.4,1.4,0,0,0-.14.5v6A1.5,1.5,0,0,0,1.5,24h21A1.5,1.5,0,0,0,24,22.5v-6A1.249,1.249,0,0,0,23.867,16ZM18.247,2a.25.25,0,0,1,.25.25L18.5,13a1,1,0,0,0,1,1h0a1,1,0,0,0,.71-.3l1.34,2.3H17.5A1.5,1.5,0,0,0,16,17.5,1.5,1.5,0,0,1,14.5,19h-5A1.5,1.5,0,0,1,8,17.5,1.5,1.5,0,0,0,6.5,16H2.453L3.8,13.7a.994.994,0,0,0,.714.3h0a1,1,0,0,0,1-1L5.5,2.25A.249.249,0,0,1,5.753,2Z"/></svg>