<svg xmlns="http://www.w3.org/2000/svg" viewBox="0 0 24 24"><defs><style>.a{fill:none;stroke:currentColor;stroke-linecap:round;stroke-linejoin:round;stroke-width:1.5px;}</style></defs><title>phone-double-camera</title><path class="a" d="M2.25,23.25V3.75a3,3,0,0,1,3-3h13.5a3,3,0,0,1,3,3v19.5"/><path class="a" d="M2.25,6.75h7.5a3,3,0,0,0,3-3v-3"/><line class="a" x1="5.25" y1="3.375" x2="5.25" y2="3.375"/><path class="a" d="M5.25,3.375a.375.375,0,1,0,.375.375.375.375,0,0,0-.375-.375"/><line class="a" x1="9" y1="3.375" x2="9" y2="3.375"/><path class="a" d="M9,3.375a.375.375,0,1,0,.375.375A.375.375,0,0,0,9,3.375"/></svg>