<svg xmlns="http://www.w3.org/2000/svg" viewBox="0 0 24 24"><defs><style>.a{fill:none;stroke:currentColor;stroke-linecap:round;stroke-linejoin:round;stroke-width:1.5px;}</style></defs><title>phone-camera-shoot</title><path class="a" d="M18,2.25a3,3,0,0,1,3,3v15a3,3,0,0,1-3,3H10.5a3,3,0,0,1-3-3V10.5"/><line class="a" x1="12.75" y1="20.25" x2="15.75" y2="20.25"/><line class="a" x1="10.5" y1="0.75" x2="10.5" y2="3"/><line class="a" x1="5.288" y1="2.25" x2="6.75" y2="3.75"/><line class="a" x1="3" y1="6.75" x2="5.25" y2="6.75"/><line class="a" x1="15.712" y1="2.25" x2="14.25" y2="3.75"/><line class="a" x1="18" y1="6.75" x2="15.75" y2="6.75"/><line class="a" x1="9" y1="6.375" x2="9" y2="6.375"/><path class="a" d="M9,6.375a.375.375,0,1,0,.375.375A.375.375,0,0,0,9,6.375"/><line class="a" x1="12" y1="6.375" x2="12" y2="6.375"/><path class="a" d="M12,6.375a.375.375,0,1,0,.375.375A.375.375,0,0,0,12,6.375"/></svg>