<svg xmlns="http://www.w3.org/2000/svg" viewBox="0 0 24 24"><defs><style>.a{fill:none;stroke:currentColor;stroke-linecap:round;stroke-linejoin:round;stroke-width:1.5px;}</style></defs><title>phone-selfie-shoot</title><line class="a" x1="14.25" y1="2.25" x2="15" y2="1.5"/><line class="a" x1="9.75" y1="2.25" x2="9" y2="1.5"/><line class="a" x1="12" y1="1.5" x2="12" y2="0.75"/><path class="a" d="M12,4.875a.375.375,0,1,1-.375.375A.375.375,0,0,1,12,4.875"/><path class="a" d="M15.75,4.5a3,3,0,0,1,3,3V20.25a3,3,0,0,1-3,3H8.25a3,3,0,0,1-3-3V7.5a3,3,0,0,1,3-3"/><line class="a" x1="12.75" y1="20.25" x2="15.75" y2="20.25"/></svg>