<svg xmlns="http://www.w3.org/2000/svg" viewBox="0 0 24 24"><defs><style>.a{fill:none;stroke:currentColor;stroke-linecap:round;stroke-linejoin:round;stroke-width:1.5px;}</style></defs><title>phone-selfie-man</title><path class="a" d="M16.5,8.25a3,3,0,0,1,3,3V23.24H4.5V11.25a3,3,0,0,1,3-3"/><path class="a" d="M12,7.5a.375.375,0,1,1-.375.375A.375.375,0,0,1,12,7.5"/><line class="a" x1="9" y1="4.5" x2="6.75" y2="2.25"/><line class="a" x1="15" y1="4.5" x2="17.25" y2="2.25"/><line class="a" x1="12" y1="3.75" x2="12" y2="0.75"/><circle class="a" cx="12" cy="15.859" r="3.109"/><path class="a" d="M16.917,23.245a5.565,5.565,0,0,0-9.836,0"/><path class="a" d="M15.109,15.961a6.229,6.229,0,0,1-5.935-1.4"/></svg>