<?xml version="1.0" encoding="utf-8"?>
<!-- Generator: Adobe Illustrator 22.1.0, SVG Export Plug-In . SVG Version: 6.00 Build 0)  -->
<svg version="1.1" id="Layer_1" xmlns="http://www.w3.org/2000/svg" xmlns:xlink="http://www.w3.org/1999/xlink" x="0px" y="0px"
	 viewBox="0 0 24 24" style="enable-background:new 0 0 24 24;" xml:space="preserve">
<g>
	<title>cellular-network-4g</title>
	<path d="M7.5,11.75c-0.276,0-0.5-0.224-0.5-0.5V2.457L4.854,4.604C4.759,4.698,4.634,4.75,4.5,4.75S4.241,4.698,4.146,4.604
		S4,4.384,4,4.25s0.052-0.259,0.146-0.354l3-3C7.193,0.85,7.247,0.814,7.308,0.788C7.37,0.763,7.434,0.75,7.5,0.75
		s0.13,0.013,0.191,0.038C7.753,0.814,7.807,0.85,7.854,0.897l3,3C10.948,3.991,11,4.116,11,4.25s-0.052,0.259-0.146,0.354
		S10.634,4.75,10.5,4.75s-0.259-0.052-0.354-0.146L8,2.457v8.793C8,11.526,7.776,11.75,7.5,11.75z"/>
	<path d="M16.5,11.75c-0.066,0-0.13-0.013-0.191-0.038c-0.061-0.025-0.116-0.062-0.162-0.108l-3-3C13.052,8.509,13,8.384,13,8.25
		s0.052-0.259,0.146-0.354S13.366,7.75,13.5,7.75s0.259,0.052,0.354,0.146L16,10.043V1.25c0-0.276,0.224-0.5,0.5-0.5
		S17,0.974,17,1.25v8.793l2.146-2.146c0.094-0.094,0.22-0.146,0.354-0.146s0.259,0.052,0.354,0.146S20,8.116,20,8.25
		s-0.052,0.259-0.146,0.354l-3,3c-0.047,0.047-0.101,0.083-0.163,0.109C16.63,11.737,16.566,11.75,16.5,11.75z"/>
	<path d="M10.5,23.25c-0.276,0-0.5-0.224-0.5-0.5v-1.5H5.5c-0.276,0-0.5-0.224-0.5-0.5v-1c0-3.033,2.467-5.5,5.5-5.5
		c0.276,0,0.5,0.224,0.5,0.5v8C11,23.026,10.776,23.25,10.5,23.25z M10,20.25v-4.972c-2.263,0.25-4,2.166-4,4.472v0.5H10z"/>
	<path d="M16.5,23.25c-1.378,0-2.5-1.122-2.5-2.5v-4c0-1.378,1.122-2.5,2.5-2.5s2.5,1.122,2.5,2.5c0,0.276-0.224,0.5-0.5,0.5
		s-0.5-0.224-0.5-0.5c0-0.827-0.673-1.5-1.5-1.5s-1.5,0.673-1.5,1.5v4c0,0.827,0.673,1.5,1.5,1.5s1.5-0.673,1.5-1.5v-0.5h-1
		c-0.276,0-0.5-0.224-0.5-0.5s0.224-0.5,0.5-0.5h1.5c0.276,0,0.5,0.224,0.5,0.5v1C19,22.128,17.878,23.25,16.5,23.25z"/>
</g>
</svg>
