<svg xmlns="http://www.w3.org/2000/svg" viewBox="0 0 24 24"><title>messages-bubble-disable-alternate</title><path d="M9.52,17.747a.249.249,0,0,0-.2-.236c-.243-.054-.485-.114-.724-.183a1,1,0,0,0-.662.038l-3.648,1.52a.25.25,0,0,1-.331-.316l.851-2.339a1,1,0,0,0-.275-1.089A7.038,7.038,0,0,1,2,9.9C2,5.546,6.486,2,12,2S22,5.546,22,9.9a6.171,6.171,0,0,1-.047.735.25.25,0,0,0,.106.236,7.925,7.925,0,0,1,1.27,1.091.25.25,0,0,0,.424-.111A8.06,8.06,0,0,0,24,9.9C24,4.443,18.617,0,12,0S0,4.443,0,9.9a8.876,8.876,0,0,0,2.707,6.26l-1.6,4.4a1,1,0,0,0,1.325,1.265l5.959-2.483c.343.09.689.163,1.037.225a.239.239,0,0,0,.215-.071.236.236,0,0,0,.061-.218A8.114,8.114,0,0,1,9.52,17.747Z"/><path d="M12.9,12.905A6.5,6.5,0,1,0,23.831,16,6.535,6.535,0,0,0,12.9,12.905Zm2.483,8.578a.252.252,0,0,1-.057-.4l5.754-5.753a.25.25,0,0,1,.4.058,4.508,4.508,0,0,1-6.093,6.092Zm4.222-7.96a.25.25,0,0,1,.059.4l-5.745,5.745a.25.25,0,0,1-.4-.066,4.442,4.442,0,0,1,.8-5.281A4.524,4.524,0,0,1,19.609,13.523Z"/></svg>