<svg xmlns="http://www.w3.org/2000/svg" viewBox="0 0 24 24"><title>messages-bubble-square-upload</title><path d="M17.5,9.5a7.932,7.932,0,0,1,3.636.883.25.25,0,0,0,.364-.222V1.5A1.5,1.5,0,0,0,20,0H1.5A1.5,1.5,0,0,0,0,1.5V13.553A1.459,1.459,0,0,0,1.5,15H3v3.5a.5.5,0,0,0,.832.374L8.19,15H9.727a.252.252,0,0,0,.236-.166A8.008,8.008,0,0,1,17.5,9.5Z"/><path d="M17.5,11A6.5,6.5,0,1,0,24,17.5,6.508,6.508,0,0,0,17.5,11Zm-2,6.5a.5.5,0,0,1-.391-.812l2-2.5a.517.517,0,0,1,.782,0l2,2.5a.5.5,0,0,1-.391.812h-1a.25.25,0,0,0-.25.25V20.5a.75.75,0,0,1-1.5,0V17.75a.25.25,0,0,0-.25-.25Z"/></svg>