<svg xmlns="http://www.w3.org/2000/svg" viewBox="0 0 24 24"><title>messages-bubble-square-quote-alternate</title><path d="M10.5,8.5a1,1,0,0,0,1-1V5a1,1,0,0,0-2,0V7.5A1,1,0,0,0,10.5,8.5Z"/><path d="M9.5,12.724V13a1,1,0,0,0,0,2,2,2,0,0,0,2-2V11a1.75,1.75,0,1,0-2,1.725Z"/><path d="M14,12a1,1,0,0,0,0,2c1.963,0,3.5-1.976,3.5-4.5S15.963,5,14,5a1,1,0,0,0,0,2c.71,0,1.5,1.027,1.5,2.5S14.71,12,14,12Z"/><path d="M22,1H2A2,2,0,0,0,0,3V16.552A1.953,1.953,0,0,0,2,18.5H4.5V22a1,1,0,0,0,1.569.822L12.312,18.5H22a2,2,0,0,0,2-2V3A2,2,0,0,0,22,1Zm0,15.25a.25.25,0,0,1-.25.25H12a1,1,0,0,0-.569.178L6.5,20.09V17.5a1,1,0,0,0-1-1l-3.25,0a.25.25,0,0,1-.25-.25v-13A.25.25,0,0,1,2.25,3h19.5a.25.25,0,0,1,.25.25Z"/></svg>