<svg xmlns="http://www.w3.org/2000/svg" viewBox="0 0 24 24"><title>messages-bubble-lock-1-alternate</title><path d="M10,15a1,1,0,0,0-.707.293L7,17.586V15.56a1,1,0,0,0-.664-.942A6.493,6.493,0,0,1,8.5,2h7A6.508,6.508,0,0,1,22,8.5a6.421,6.421,0,0,1-.168,1.437.251.251,0,0,0,.1.263,5.162,5.162,0,0,1,1.179,1.094.25.25,0,0,0,.434-.073A8.488,8.488,0,0,0,15.5,0h-7A8.492,8.492,0,0,0,5,16.232V20a1,1,0,0,0,1.707.707L10.414,17H12.26a.249.249,0,0,0,.249-.23,2.941,2.941,0,0,1,.479-1.383A.25.25,0,0,0,12.779,15Z"/><path d="M22.5,15.5V14.25a3.5,3.5,0,0,0-7,0V15.5A1.5,1.5,0,0,0,14,17v5.5A1.5,1.5,0,0,0,15.5,24h7A1.5,1.5,0,0,0,24,22.5V17A1.5,1.5,0,0,0,22.5,15.5ZM19,12.75a1.5,1.5,0,0,1,1.5,1.5V15.5h-3V14.25A1.5,1.5,0,0,1,19,12.75Zm0,6.5a1,1,0,1,1-1,1A1,1,0,0,1,19,19.25Z"/></svg>