<svg xmlns="http://www.w3.org/2000/svg" viewBox="0 0 24 24"><title>messages-bubble-share-1</title><path d="M13.75,14A4.182,4.182,0,0,1,15,14.193a.253.253,0,0,0,.2-.024l1.753-1.051a.252.252,0,0,0,.117-.167A4.257,4.257,0,0,1,21.25,9.5a4.114,4.114,0,0,1,1.71.38.252.252,0,0,0,.348-.174A7.859,7.859,0,0,0,23.5,8a8.009,8.009,0,0,0-8-8H8A7.992,7.992,0,0,0,5,15.4v4.1a.5.5,0,0,0,.854.354L9.707,16h.316a.25.25,0,0,0,.208-.111A4.237,4.237,0,0,1,13.75,14Z"/><path d="M21.25,18.5a2.736,2.736,0,0,0-2,.873l-2.753-1.1,0-.021a2.765,2.765,0,0,0-.046-.457l3.125-1.874a2.724,2.724,0,0,0,1.671.581,2.8,2.8,0,1,0-2.7-2.294l-3.125,1.875A2.724,2.724,0,0,0,13.75,15.5a2.75,2.75,0,1,0,2,4.627l2.753,1.1,0,.021a2.75,2.75,0,1,0,2.75-2.75Z"/></svg>