<svg xmlns="http://www.w3.org/2000/svg" viewBox="0 0 24 24"><title>messages-bubble-heart-2</title><path d="M10.03,13.779a5.024,5.024,0,0,1,7.329-1.9.249.249,0,0,0,.281,0,5.068,5.068,0,0,1,3.638-.811,4.908,4.908,0,0,1,1.175.352.251.251,0,0,0,.328-.126A7.927,7.927,0,0,0,23.5,8a8.008,8.008,0,0,0-8-8H8A7.992,7.992,0,0,0,5,15.4v4.1a.5.5,0,0,0,.853.354l3.58-3.58a.253.253,0,0,0,.073-.18A5.015,5.015,0,0,1,10.03,13.779Z"/><path d="M23.627,14.449a3.526,3.526,0,0,0-5.646-.916l-.482.482-.481-.482a3.525,3.525,0,0,0-4.993,4.978l5.114,5.335a.5.5,0,0,0,.721,0l5.107-5.327A3.524,3.524,0,0,0,23.627,14.449Z"/></svg>