<svg xmlns="http://www.w3.org/2000/svg" viewBox="0 0 24 24"><title>messages-bubble-add-alternate</title><path d="M9.314,17.509q-.359-.08-.713-.181a1,1,0,0,0-.661.038l-3.648,1.52a.25.25,0,0,1-.331-.316l.851-2.339a1,1,0,0,0-.276-1.089A7.043,7.043,0,0,1,2,9.9C2,5.546,6.486,2,12,2S22,5.546,22,9.9a6.1,6.1,0,0,1-.048.743.249.249,0,0,0,.1.236,7.985,7.985,0,0,1,1.268,1.1.251.251,0,0,0,.245.07.249.249,0,0,0,.18-.181A8.063,8.063,0,0,0,24,9.9C24,4.443,18.617,0,12,0S0,4.443,0,9.9a8.877,8.877,0,0,0,2.708,6.26l-1.6,4.4a1,1,0,0,0,1.325,1.265l5.959-2.483c.343.09.688.163,1.035.224a.25.25,0,0,0,.288-.3,7.869,7.869,0,0,1-.205-1.522A.25.25,0,0,0,9.314,17.509Z"/><path d="M17.5,11A6.5,6.5,0,1,0,24,17.5,6.508,6.508,0,0,0,17.5,11ZM20,18.25H18.5a.25.25,0,0,0-.25.25V20a.75.75,0,0,1-1.5,0V18.5a.25.25,0,0,0-.25-.25H15a.75.75,0,0,1,0-1.5h1.5a.25.25,0,0,0,.25-.25V15a.75.75,0,0,1,1.5,0v1.5a.25.25,0,0,0,.25.25H20a.75.75,0,0,1,0,1.5Z"/></svg>