<svg xmlns="http://www.w3.org/2000/svg" viewBox="0 0 24 24"><title>messages-bubble-subtract-1-alternate</title><path d="M9.76,15.49a.25.25,0,0,0-.4-.258.78.78,0,0,0-.068.061L7,17.586V15.56a1,1,0,0,0-.664-.942A6.493,6.493,0,0,1,8.5,2h7A6.508,6.508,0,0,1,22,8.5a6.419,6.419,0,0,1-.314,1.974.249.249,0,0,0,.1.287A8.171,8.171,0,0,1,23,11.7a.248.248,0,0,0,.225.062.252.252,0,0,0,.179-.152A8.417,8.417,0,0,0,24,8.5,8.51,8.51,0,0,0,15.5,0h-7A8.492,8.492,0,0,0,5,16.232V20a1,1,0,0,0,1.707.707L9.44,17.974a.251.251,0,0,0,.073-.194c-.006-.093-.013-.186-.013-.28A7.927,7.927,0,0,1,9.76,15.49Z"/><path d="M17.5,11A6.5,6.5,0,1,0,24,17.5,6.508,6.508,0,0,0,17.5,11ZM20,16.75a.75.75,0,0,1,0,1.5H15a.75.75,0,0,1,0-1.5Z"/></svg>