<svg xmlns="http://www.w3.org/2000/svg" viewBox="0 0 24 24"><title>messages-bubble-download-1</title><path d="M17.5,9.5a7.95,7.95,0,0,1,4.962,1.737.25.25,0,0,0,.386-.1A7.907,7.907,0,0,0,23.5,8a8.009,8.009,0,0,0-8-8H8A7.992,7.992,0,0,0,5,15.4v4.1a.5.5,0,0,0,.309.462.5.5,0,0,0,.545-.108L9.58,16.127A.247.247,0,0,0,9.649,16,8.008,8.008,0,0,1,17.5,9.5Z"/><path d="M17.5,24A6.5,6.5,0,1,0,11,17.5,6.508,6.508,0,0,0,17.5,24Zm-2.391-5.688A.5.5,0,0,1,15.5,17.5h1a.25.25,0,0,0,.25-.25V14.5a.75.75,0,0,1,1.5,0v2.75a.25.25,0,0,0,.25.25h1a.5.5,0,0,1,.391.812l-2,2.5a.519.519,0,0,1-.782,0Z"/></svg>