<svg xmlns="http://www.w3.org/2000/svg" viewBox="0 0 24 24"><title>messages-bubble-square-warning-triangle-alternate</title><path d="M8.5,14a1,1,0,0,0-.665.252L5,16.773V15a1,1,0,0,0-1-1L2.25,14A.251.251,0,0,1,2,13.747V2.25A.249.249,0,0,1,2.251,2h18a.25.25,0,0,1,.25.25V12.257a.248.248,0,0,0,.028.116l1.316,2.509a.25.25,0,0,0,.445,0A1.939,1.939,0,0,0,22.5,14V2a2,2,0,0,0-2-2H2A2,2,0,0,0,0,2V14.053A1.953,1.953,0,0,0,2,16H3v3a1,1,0,0,0,1.664.748L8.881,16h3.537a.251.251,0,0,0,.221-.134l.787-1.5a.249.249,0,0,0-.007-.245A.252.252,0,0,0,13.205,14Z"/><path d="M18.782,12.271h0a1.45,1.45,0,0,0-2.562,0l-5.055,9.634a1.433,1.433,0,0,0,.048,1.409A1.457,1.457,0,0,0,12.445,24H22.556a1.459,1.459,0,0,0,1.234-.687,1.434,1.434,0,0,0,.047-1.408ZM17.5,15.25a.75.75,0,0,1,.75.75v3a.75.75,0,0,1-1.5,0V16A.75.75,0,0,1,17.5,15.25Zm0,7a1,1,0,1,1,1-1A1,1,0,0,1,17.5,22.25Z"/></svg>