<svg xmlns="http://www.w3.org/2000/svg" viewBox="0 0 24 24"><title>messages-bubble-add-1</title><path d="M17.5,9.5a7.958,7.958,0,0,1,5.21,1.942A7.98,7.98,0,0,0,15.5,0H8A7.993,7.993,0,0,0,5,15.4v4.1a.5.5,0,0,0,.854.354L9.58,16.127A.247.247,0,0,0,9.649,16,8.008,8.008,0,0,1,17.5,9.5Z"/><path d="M17.5,11A6.5,6.5,0,1,0,24,17.5,6.508,6.508,0,0,0,17.5,11Zm.75,9a.75.75,0,0,1-1.5,0V18.5a.25.25,0,0,0-.25-.25H15a.75.75,0,0,1,0-1.5h1.5a.25.25,0,0,0,.25-.25V15a.75.75,0,0,1,1.5,0v1.5a.25.25,0,0,0,.25.25H20a.75.75,0,0,1,0,1.5H18.5a.25.25,0,0,0-.25.25Z"/></svg>