<svg xmlns="http://www.w3.org/2000/svg" viewBox="0 0 24 24"><title>messages-bubble-settings</title><path d="M11.056,17.169a.251.251,0,0,0,0-.339l-.174-.187a3.283,3.283,0,0,1,3.139-5.435l.227.053a.25.25,0,0,0,.3-.17l.071-.235a3.275,3.275,0,0,1,6.268,0l.073.239a.251.251,0,0,0,.291.172l.275-.058a.248.248,0,0,0,.19-.177,7.336,7.336,0,0,0,.287-2c0-4.962-4.934-9-11-9s-11,4.038-11,9a8.082,8.082,0,0,0,2.657,5.855L1.03,19.36a.5.5,0,0,0,.662.633l5.831-2.43a13.246,13.246,0,0,0,2.74.441.25.25,0,0,0,.23-.123A3.69,3.69,0,0,1,11.056,17.169Z"/><circle cx="17.748" cy="17" r="1.5"/><path d="M23.516,15.623a1.783,1.783,0,0,0-1.7-2.954L20.405,13a.452.452,0,0,1-.533-.311l-.424-1.393a1.775,1.775,0,0,0-3.4,0l-.424,1.393a.455.455,0,0,1-.533.311l-1.411-.328a1.784,1.784,0,0,0-1.7,2.954l.988,1.064a.464.464,0,0,1,0,.626l-.988,1.064a1.784,1.784,0,0,0,1.7,2.954L15.092,21a.453.453,0,0,1,.533.311l.424,1.393a1.775,1.775,0,0,0,3.4,0l.424-1.393A.45.45,0,0,1,20.405,21l1.411.328a1.783,1.783,0,0,0,1.7-2.954l-.987-1.064a.464.464,0,0,1,0-.626ZM17.748,20a3,3,0,1,1,3-3A3,3,0,0,1,17.748,20Z"/></svg>