<svg xmlns="http://www.w3.org/2000/svg" viewBox="0 0 24 24"><title>messages-bubble-square-heart-1-alternate</title><path d="M8.5,14a1,1,0,0,0-.664.252L5,16.773V15a1,1,0,0,0-1-1L2.249,14A.251.251,0,0,1,2,13.747V2.25A.25.25,0,0,1,2.25,2h18a.249.249,0,0,1,.25.25v8.521a.252.252,0,0,0,.244.25,4.261,4.261,0,0,1,1.42.275.254.254,0,0,0,.23-.029.251.251,0,0,0,.106-.206V2a2,2,0,0,0-2-2H2A2,2,0,0,0,0,2V14.053A1.953,1.953,0,0,0,2,16H3v3a1,1,0,0,0,1.664.748L8.88,16h.38a.249.249,0,0,0,.249-.236,5,5,0,0,1,.3-1.429A.25.25,0,0,0,9.571,14Z"/><path d="M21.039,12.546a3.483,3.483,0,0,0-3.058.987l-.481.482-.482-.482a3.526,3.526,0,0,0-5.646.916,3.521,3.521,0,0,0,.653,4.063l5.113,5.334a.5.5,0,0,0,.723,0l5.106-5.327a3.524,3.524,0,0,0,.66-4.07A3.487,3.487,0,0,0,21.039,12.546Z"/></svg>