<svg xmlns="http://www.w3.org/2000/svg" viewBox="0 0 24 24"><title>messages-bubble-graph-alternate</title><path d="M12,.836C5.383.836,0,5.31,0,10.811a9.011,9.011,0,0,0,3.056,6.658L.93,21.713a1,1,0,0,0,1.316,1.355l5.982-2.784a14.267,14.267,0,0,0,3.772.5c6.617,0,12-4.475,12-9.974S18.617.836,12,.836Zm0,17.949a12.169,12.169,0,0,1-3.562-.523,1,1,0,0,0-.714.05L4.653,19.741a.25.25,0,0,1-.329-.338l.869-1.736a1,1,0,0,0-.269-1.228A7.215,7.215,0,0,1,2,10.811c0-4.4,4.486-7.975,10-7.975s10,3.578,10,7.975S17.514,18.785,12,18.785Z"/><path d="M18,13.374H16.5v-6a1,1,0,1,0-2,0v6h-1v-4a1,1,0,0,0-2,0v4h-1v-2.5a1,1,0,0,0-2,0v2.5h-1v-6a1,1,0,0,0-2,0v7a1,1,0,0,0,1,1H18a1,1,0,0,0,0-2Z"/></svg>