<svg xmlns="http://www.w3.org/2000/svg" viewBox="0 0 24 24"><title>messages-bubble-square-upload-alternate</title><path d="M8.5,14a1.006,1.006,0,0,0-.665.252L5,16.773V15a1,1,0,0,0-1-1L2.25,14a.251.251,0,0,1-.25-.25V2.25A.25.25,0,0,1,2.25,2h18a.25.25,0,0,1,.25.25V9.922a.251.251,0,0,0,.151.23,8.032,8.032,0,0,1,1.455.816.25.25,0,0,0,.394-.205V2a2,2,0,0,0-2-2H2A2,2,0,0,0,0,2V14.053A1.953,1.953,0,0,0,2,16H3v3a1,1,0,0,0,1.665.748L8.88,16h.562a.249.249,0,0,0,.244-.2,7.889,7.889,0,0,1,.47-1.454A.25.25,0,0,0,9.927,14Z"/><path d="M17.5,11A6.5,6.5,0,1,0,24,17.5,6.508,6.508,0,0,0,17.5,11Zm2.391,5.688a.5.5,0,0,1-.391.812h-1a.25.25,0,0,0-.25.25V20.5a.75.75,0,0,1-1.5,0V17.75a.25.25,0,0,0-.25-.25h-1a.5.5,0,0,1-.391-.812l2-2.5a.517.517,0,0,1,.782,0Z"/></svg>