<svg xmlns="http://www.w3.org/2000/svg" viewBox="0 0 24 24"><title>messages-bubble-edit-alternate</title><path d="M8.6,17.328a1,1,0,0,0-.662.038l-3.648,1.52a.25.25,0,0,1-.331-.316l.851-2.339a1,1,0,0,0-.275-1.089A7.038,7.038,0,0,1,2,9.9C2,5.546,6.486,2,12,2c4.934,0,9.034,2.843,9.843,6.564a.255.255,0,0,0,.1.151l1.851,1.3A.13.13,0,0,0,24,9.9C24,4.443,18.617,0,12,0S0,4.443,0,9.9a8.876,8.876,0,0,0,2.707,6.26l-1.6,4.4a1,1,0,0,0,1.325,1.265l5.959-2.483c.106.028.214.051.321.074a.25.25,0,0,0,.23-.067l1.275-1.276a.25.25,0,0,0-.138-.424A11.968,11.968,0,0,1,8.6,17.328Z"/><path d="M23.226,11.766a2.618,2.618,0,0,0-3.7,0l-6.679,6.679a.252.252,0,0,0,0,.354L16.2,22.152a.249.249,0,0,0,.353,0l6.679-6.679A2.621,2.621,0,0,0,23.226,11.766Z"/><path d="M11.6,23.991l3.143-.629a.251.251,0,0,0,.128-.422L12.06,20.132a.25.25,0,0,0-.422.128L11.01,23.4a.5.5,0,0,0,.588.588Z"/></svg>