<svg xmlns="http://www.w3.org/2000/svg" viewBox="0 0 24 24"><title>messages-bubble-quote</title><path d="M20.094,4.083A12.79,12.79,0,0,0,12,1.341h0C5.661,1.341.5,5.588.5,10.811a8.6,8.6,0,0,0,3.172,6.538l-2.3,4.584a.5.5,0,0,0,.658.677l6.149-2.86A13.627,13.627,0,0,0,12,20.284h0a12.782,12.782,0,0,0,8.088-2.738A8.662,8.662,0,0,0,23.5,10.817,8.665,8.665,0,0,0,20.094,4.083ZM9.5,13.874a1.75,1.75,0,1,1,1.75-1.75v2a1.753,1.753,0,0,1-1.75,1.75.75.75,0,0,1,0-1.5.253.253,0,0,0,.25-.25v-.275A1.736,1.736,0,0,1,9.5,13.874Zm1-4.5a.749.749,0,0,1-.75-.75v-2.5a.75.75,0,1,1,1.5,0v2.5A.75.75,0,0,1,10.5,9.374Zm3.5-1.5a.75.75,0,0,1,0-1.5c1.822,0,3.25,1.867,3.25,4.25s-1.428,4.25-3.25,4.25a.75.75,0,0,1,0-1.5c.949,0,1.75-1.259,1.75-2.75S14.948,7.874,14,7.874Z"/></svg>