<svg xmlns="http://www.w3.org/2000/svg" viewBox="0 0 24 24"><title>messages-bubble-square-smile-alternate</title><path d="M6.254,9a1,1,0,0,0,1-1,1,1,0,0,1,2,0,1,1,0,0,0,2,0,3,3,0,0,0-6,0A1,1,0,0,0,6.254,9Z"/><path d="M13.754,9a1,1,0,0,0,1-1,1,1,0,0,1,2,0,1,1,0,0,0,2,0,3,3,0,0,0-6,0A1,1,0,0,0,13.754,9Z"/><path d="M8.293,11.805a1,1,0,0,0,0,1.414,5.244,5.244,0,0,0,7.414,0,1,1,0,0,0-1.414-1.414,3.323,3.323,0,0,1-4.586,0A1,1,0,0,0,8.293,11.805Z"/><path d="M22,1H2A2,2,0,0,0,0,3V16.552A1.953,1.953,0,0,0,2,18.5H4.5V22a1,1,0,0,0,1.569.822L12.312,18.5H22a2,2,0,0,0,2-2V3A2,2,0,0,0,22,1Zm0,15.25a.25.25,0,0,1-.25.25H12a1,1,0,0,0-.569.178L6.5,20.09V17.5a1,1,0,0,0-1-1l-3.25,0a.25.25,0,0,1-.25-.25v-13A.25.25,0,0,1,2.25,3h19.5a.25.25,0,0,1,.25.25Z"/></svg>