<svg xmlns="http://www.w3.org/2000/svg" viewBox="0 0 24 24"><title>messages-bubble-typing-alternate_1</title><path d="M12,.874C5.406.874.041,5.333.041,10.815a8.978,8.978,0,0,0,3.045,6.634L.969,21.675A1,1,0,0,0,2.285,23.03l5.957-2.773a14.22,14.22,0,0,0,3.758.5c6.594,0,11.959-4.459,11.959-9.941S18.594.874,12,.874Zm0,17.882a12.132,12.132,0,0,1-3.548-.521,1,1,0,0,0-.713.05L4.692,19.7a.25.25,0,0,1-.329-.339l.86-1.716a1,1,0,0,0-.27-1.229,7.182,7.182,0,0,1-2.912-5.6c0-4.379,4.468-7.941,9.959-7.941s9.959,3.562,9.959,7.941S17.491,18.756,12,18.756Z"/><circle cx="6.959" cy="10.874" r="1.5"/><circle cx="12" cy="10.874" r="1.5"/><circle cx="17" cy="10.874" r="1.5"/></svg>