<svg xmlns="http://www.w3.org/2000/svg" viewBox="0 0 24 24"><title>messages-bubble-window-hi</title><path d="M8.929,4.079a.251.251,0,0,0-.237-.329H3.5A3,3,0,0,0,.5,6.7C.5,6.715.5,22.75.5,22.75a1,1,0,0,0,2,0V8.25a.5.5,0,0,1,.5-.5H8.282a.248.248,0,0,0,.184-.081.251.251,0,0,0,.065-.19C8.511,7.238,8.5,7,8.5,6.75A8.487,8.487,0,0,1,8.929,4.079Z"/><path d="M15,22.75a1,1,0,0,0,2,0V15.5a.249.249,0,0,0-.243-.249,8.518,8.518,0,0,1-1.457-.168.248.248,0,0,0-.208.052.251.251,0,0,0-.092.194Z"/><path d="M16.934,13.383a6.567,6.567,0,0,0,0-13.133A6.432,6.432,0,0,0,10.5,6.817a6.67,6.67,0,0,0,.659,3.107.251.251,0,0,1,0,.222l-.87,1.826-.744,1.563A.5.5,0,0,0,10,14.25a.51.51,0,0,0,.215-.048l1.563-.745,1.822-.868a.25.25,0,0,1,.226.006A6.534,6.534,0,0,0,16.934,13.383ZM13.75,5.25a.75.75,0,0,1,1.5,0v1a.25.25,0,0,0,.25.25h1a.25.25,0,0,0,.25-.25v-1a.75.75,0,0,1,1.5,0v3.5a.75.75,0,0,1-1.5,0v-.5A.25.25,0,0,0,16.5,8h-1a.25.25,0,0,0-.25.25v.5a.75.75,0,0,1-1.5,0Zm7,0v3.5a.75.75,0,0,1-1.5,0V5.25a.75.75,0,0,1,1.5,0Z"/><circle cx="8.83" cy="17.25" r="2"/><path d="M8.83,20.25a3.594,3.594,0,0,0-3.294,2.317.5.5,0,0,0,.471.683h5.647a.5.5,0,0,0,.47-.683A3.594,3.594,0,0,0,8.83,20.25Z"/></svg>