<svg xmlns="http://www.w3.org/2000/svg" viewBox="0 0 24 24"><title>messages-bubble-square-heart-1</title><path d="M10.03,13.779a5.025,5.025,0,0,1,7.329-1.9.249.249,0,0,0,.281,0,5,5,0,0,1,3.571-.814.249.249,0,0,0,.288-.247V1.5A1.5,1.5,0,0,0,20,0H1.5A1.5,1.5,0,0,0,0,1.5V13.553A1.459,1.459,0,0,0,1.5,15H3v3.5a.5.5,0,0,0,.832.374L8.19,15H9.419a.249.249,0,0,0,.243-.191A4.859,4.859,0,0,1,10.03,13.779Z"/><path d="M21.039,12.546a3.485,3.485,0,0,0-3.058.987l-.481.482-.482-.482a3.526,3.526,0,0,0-5.646.916,3.521,3.521,0,0,0,.653,4.063l5.113,5.334a.5.5,0,0,0,.723,0l5.106-5.327a3.524,3.524,0,0,0,.66-4.07A3.487,3.487,0,0,0,21.039,12.546Z"/></svg>