<?xml version="1.0" encoding="utf-8"?>
<!-- Generator: Adobe Illustrator 22.1.0, SVG Export Plug-In . SVG Version: 6.00 Build 0)  -->
<svg version="1.1" id="Layer_1" xmlns="http://www.w3.org/2000/svg" xmlns:xlink="http://www.w3.org/1999/xlink" x="0px" y="0px"
	 viewBox="0 0 24 24" style="enable-background:new 0 0 24 24;" xml:space="preserve">
<g>
	<title>walkman-cassette</title>
	<path d="M2,20c-1.103,0-2-0.897-2-2V6c0-1.103,0.897-2,2-2h20c1.103,0,2,0.897,2,2v12c0,1.103-0.897,2-2,2H2z M22,19
		c0.552,0,1-0.448,1-1V6c0-0.551-0.448-1-1-1H2C1.449,5,1,5.449,1,6v12c0,0.552,0.449,1,1,1h1.793l2.561-2.561
		C6.637,16.156,7.013,16,7.414,16h9.172c0.401,0,0.777,0.156,1.061,0.439L20.207,19H22z M18.793,19l-1.854-1.854
		C16.846,17.053,16.718,17,16.586,17H7.414c-0.133,0-0.259,0.052-0.353,0.146L5.207,19H18.793z"/>
	<path d="M5.5,14.01c-1.379,0-2.5-1.122-2.5-2.5c0-1.379,1.121-2.5,2.5-2.5h13c1.378,0,2.5,1.121,2.5,2.5c0,1.378-1.122,2.5-2.5,2.5
		H5.5z M18.5,10.01c-0.827,0-1.5,0.673-1.5,1.5s0.673,1.5,1.5,1.5s1.5-0.673,1.5-1.5S19.327,10.01,18.5,10.01z M16.501,13.01
		C16.178,12.582,16,12.058,16,11.51s0.178-1.072,0.501-1.5h-2.235c-0.349,0.973-0.349,2.027,0,3H16.501z M13.217,13.01
		c-0.279-0.978-0.279-2.021,0-3h-2.434c0.28,0.979,0.28,2.021,0,3H13.217z M9.734,13.01c0.349-0.973,0.349-2.027,0-3H7.499
		C7.822,10.438,8,10.962,8,11.51s-0.178,1.072-0.501,1.5H9.734z M5.5,10.01c-0.827,0-1.5,0.673-1.5,1.5s0.673,1.5,1.5,1.5
		S7,12.337,7,11.51S6.327,10.01,5.5,10.01z"/>
	<path d="M3.5,7C3.224,7,3,6.776,3,6.5S3.224,6,3.5,6h17C20.776,6,21,6.224,21,6.5S20.776,7,20.5,7H3.5z"/>
</g>
</svg>
