<?xml version="1.0" encoding="utf-8"?>
<!-- Generator: Adobe Illustrator 22.1.0, SVG Export Plug-In . SVG Version: 6.00 Build 0)  -->
<svg version="1.1" id="Layer_1" xmlns="http://www.w3.org/2000/svg" xmlns:xlink="http://www.w3.org/1999/xlink" x="0px" y="0px"
	 viewBox="0 0 24 24" style="enable-background:new 0 0 24 24;" xml:space="preserve">
<g>
	<title>walkman-heaphones-1</title>
	<path d="M7.5,24C6.673,24,6,23.327,6,22.5v-14C6,7.673,6.673,7,7.5,7H8V6.5C8,5.673,8.673,5,9.5,5h1C11.327,5,12,5.673,12,6.5V7
		h4.5C17.327,7,18,7.673,18,8.5v14c0,0.827-0.673,1.5-1.5,1.5H7.5z M16.5,23c0.276,0,0.5-0.224,0.5-0.5v-14
		C17,8.224,16.776,8,16.5,8H15v15H16.5z M7.5,8C7.224,8,7,8.224,7,8.5v14C7,22.776,7.224,23,7.5,23H14V8H7.5z M11,7V6.5
		C11,6.224,10.776,6,10.5,6h-1C9.224,6,9,6.224,9,6.5V7H11z"/>
	<path d="M8.5,20C8.224,20,8,19.776,8,19.5v-8C8,11.224,8.224,11,8.5,11h3c0.276,0,0.5,0.224,0.5,0.5v8c0,0.276-0.224,0.5-0.5,0.5
		H8.5z M11,19c0-0.552-0.449-1-1-1s-1,0.448-1,1H11z M10,17c0.357,0,0.699,0.093,1,0.268v-3.536C10.699,13.907,10.357,14,10,14
		s-0.699-0.093-1-0.268v3.536C9.301,17.093,9.643,17,10,17z M9,12c0,0.552,0.449,1,1,1s1-0.448,1-1H9z"/>
	<path d="M20.5,22c-0.827,0-1.5-0.673-1.5-1.5v-6c0-0.827,0.673-1.5,1.5-1.5c0.654,0,1.227,0.426,1.425,1.036
		c0.394,0.067,0.76,0.226,1.075,0.464V12c0-6.065-4.935-11-11-11S1,5.935,1,12v2.501c0.315-0.238,0.681-0.397,1.075-0.464
		C2.273,13.426,2.846,13,3.5,13C4.327,13,5,13.673,5,14.5v6C5,21.327,4.327,22,3.5,22c-0.654,0-1.227-0.426-1.425-1.036
		C0.88,20.76,0,19.73,0,18.5V12C0,5.383,5.383,0,12,0c6.617,0,12,5.383,12,12v6.5c0,1.23-0.88,2.26-2.075,2.464
		C21.727,21.574,21.154,22,20.5,22z M20.5,14c-0.276,0-0.5,0.224-0.5,0.5v6c0,0.276,0.224,0.5,0.5,0.5s0.5-0.224,0.5-0.5v-6
		C21,14.224,20.776,14,20.5,14z M3.5,14C3.224,14,3,14.224,3,14.5v6C3,20.776,3.224,21,3.5,21S4,20.776,4,20.5v-6
		C4,14.224,3.776,14,3.5,14z M22,19.914c0.586-0.209,1-0.773,1-1.414v-2c0-0.641-0.414-1.206-1-1.414V19.914z M2,15.086
		c-0.586,0.209-1,0.773-1,1.414v2c0,0.641,0.414,1.206,1,1.414V15.086z"/>
</g>
</svg>
