<?xml version="1.0" encoding="utf-8"?>
<!-- Generator: Adobe Illustrator 22.1.0, SVG Export Plug-In . SVG Version: 6.00 Build 0)  -->
<svg version="1.1" id="Layer_1" xmlns="http://www.w3.org/2000/svg" xmlns:xlink="http://www.w3.org/1999/xlink" x="0px" y="0px"
	 viewBox="0 0 24 24" style="enable-background:new 0 0 24 24;" xml:space="preserve">
<g>
	<title>walkman-play</title>
	<path d="M5.5,22c-1.375-0.004-2.496-1.125-2.5-2.499v-7.11C1.172,11.453,0,9.551,0,7.5C0,4.467,2.467,2,5.5,2S11,4.467,11,7.5
		c0,0.503-0.072,1.006-0.214,1.5h2.427C13.072,8.507,13,8.004,13,7.5C13,4.467,15.467,2,18.5,2S24,4.467,24,7.5
		c0,2.051-1.172,3.953-3,4.891V19.5c-0.004,1.375-1.125,2.496-2.499,2.5C18.501,22,5.5,22,5.5,22z M18.5,21
		c0.824-0.002,1.498-0.676,1.5-1.501v-6.712C19.507,12.928,19.003,13,18.5,13c-2.051,0-3.953-1.172-4.892-3h-3.217
		c-0.938,1.828-2.84,3-4.891,3c-0.504,0-1.007-0.072-1.5-0.214V19.5c0.003,0.824,0.676,1.498,1.501,1.5H8.14l0.66-1.982
		c0.203-0.613,0.775-1.026,1.422-1.027c0,0,3.559,0,3.559,0c0.647,0,1.219,0.413,1.424,1.027L15.861,21H18.5z M14.807,21
		l-0.553-1.667c-0.068-0.205-0.259-0.342-0.474-0.342h-3.558c-0.215,0-0.406,0.138-0.474,0.343L9.194,21H14.807z M18.5,3
		C16.019,3,14,5.019,14,7.5s2.019,4.5,4.5,4.5S23,9.981,23,7.5S20.981,3,18.5,3z M5.5,3C3.019,3,1,5.019,1,7.5S3.019,12,5.5,12
		S10,9.981,10,7.5S7.981,3,5.5,3z"/>
	<circle cx="6" cy="17.5" r="0.75"/>
	<circle cx="18" cy="17.5" r="0.75"/>
	<path d="M14,16c-0.827,0-1.5-0.673-1.5-1.5S13.173,13,14,13s1.5,0.673,1.5,1.5S14.827,16,14,16z M14,14c-0.276,0-0.5,0.224-0.5,0.5
		S13.724,15,14,15s0.5-0.224,0.5-0.5S14.276,14,14,14z"/>
	<path d="M10,16c-0.827,0-1.5-0.673-1.5-1.5S9.173,13,10,13s1.5,0.673,1.5,1.5S10.827,16,10,16z M10,14c-0.276,0-0.5,0.224-0.5,0.5
		S9.724,15,10,15s0.5-0.224,0.5-0.5S10.276,14,10,14z"/>
	<path d="M5.5,6.5C5.224,6.5,5,6.276,5,6V4.5C5,4.224,5.224,4,5.5,4S6,4.224,6,4.5V6C6,6.276,5.776,6.5,5.5,6.5z"/>
	<path d="M18.5,6.5C18.224,6.5,18,6.276,18,6V4.5C18,4.224,18.224,4,18.5,4S19,4.224,19,4.5V6C19,6.276,18.776,6.5,18.5,6.5z"/>
	<path d="M15.902,9.5c-0.178,0-0.344-0.096-0.433-0.25c-0.067-0.116-0.085-0.25-0.05-0.38c0.034-0.129,0.117-0.237,0.233-0.304
		l1.299-0.75c0.075-0.044,0.162-0.067,0.25-0.067c0.178,0,0.344,0.096,0.433,0.25c0.067,0.116,0.085,0.251,0.05,0.38
		c-0.034,0.129-0.117,0.237-0.233,0.304l-1.299,0.75C16.076,9.477,15.99,9.5,15.902,9.5z"/>
	<path d="M21.097,9.5c-0.088,0-0.174-0.023-0.25-0.067l-1.297-0.75c-0.116-0.067-0.198-0.175-0.233-0.303
		C19.281,8.25,19.299,8.116,19.366,8c0.089-0.154,0.255-0.25,0.433-0.25c0.088,0,0.174,0.023,0.25,0.068l1.297,0.75
		c0.116,0.067,0.198,0.175,0.233,0.303C21.615,9,21.597,9.134,21.53,9.25C21.441,9.404,21.275,9.5,21.097,9.5z"/>
	<path d="M2.902,9.5c-0.178,0-0.344-0.096-0.433-0.25C2.331,9.011,2.413,8.705,2.652,8.567l1.299-0.75
		C4.027,7.773,4.114,7.75,4.201,7.75c0.178,0,0.344,0.096,0.433,0.25C4.772,8.239,4.69,8.545,4.451,8.683l-1.299,0.75
		C3.076,9.477,2.99,9.5,2.902,9.5z"/>
	<path d="M8.097,9.5c-0.088,0-0.174-0.023-0.25-0.067l-1.298-0.75C6.31,8.545,6.228,8.239,6.366,8
		c0.089-0.154,0.255-0.25,0.433-0.25c0.088,0,0.174,0.023,0.25,0.068l1.298,0.75C8.586,8.705,8.668,9.011,8.53,9.25
		C8.441,9.404,8.275,9.5,8.097,9.5z"/>
</g>
</svg>
