<?xml version="1.0" encoding="utf-8"?>
<!-- Generator: Adobe Illustrator 22.1.0, SVG Export Plug-In . SVG Version: 6.00 Build 0)  -->
<svg version="1.1" id="Layer_1" xmlns="http://www.w3.org/2000/svg" xmlns:xlink="http://www.w3.org/1999/xlink" x="0px" y="0px"
	 viewBox="0 0 24 24" style="enable-background:new 0 0 24 24;" xml:space="preserve">
<g>
	<title>cell-border-frame</title>
	<path d="M1.5,22.997c-0.827,0-1.5-0.673-1.5-1.5v-20c0-0.827,0.673-1.5,1.5-1.5h20c0.827,0,1.5,0.673,1.5,1.5v20
		c0,0.827-0.673,1.5-1.5,1.5H1.5z M1.5,0.997c-0.276,0-0.5,0.224-0.5,0.5v20c0,0.276,0.224,0.5,0.5,0.5h20
		c0.276,0,0.5-0.224,0.5-0.5v-20c0-0.276-0.224-0.5-0.5-0.5H1.5z"/>
	<path d="M11.5,12.997c-0.276,0-0.5-0.224-0.5-0.5v-0.5h-0.5c-0.276,0-0.5-0.224-0.5-0.5s0.224-0.5,0.5-0.5H11v-0.5
		c0-0.276,0.224-0.5,0.5-0.5s0.5,0.224,0.5,0.5v0.5h0.5c0.276,0,0.5,0.224,0.5,0.5s-0.224,0.5-0.5,0.5H12v0.5
		C12,12.773,11.776,12.997,11.5,12.997z"/>
	<path d="M6.5,11.997c-0.276,0-0.5-0.224-0.5-0.5s0.224-0.5,0.5-0.5H8c0.276,0,0.5,0.224,0.5,0.5s-0.224,0.5-0.5,0.5H6.5z"/>
	<path d="M2.5,11.997c-0.276,0-0.5-0.224-0.5-0.5s0.224-0.5,0.5-0.5H4c0.276,0,0.5,0.224,0.5,0.5s-0.224,0.5-0.5,0.5H2.5z"/>
	<path d="M15,11.997c-0.276,0-0.5-0.224-0.5-0.5s0.224-0.5,0.5-0.5h1.5c0.276,0,0.5,0.224,0.5,0.5s-0.224,0.5-0.5,0.5H15z"/>
	<path d="M19,11.997c-0.276,0-0.5-0.224-0.5-0.5s0.224-0.5,0.5-0.5h1.5c0.276,0,0.5,0.224,0.5,0.5s-0.224,0.5-0.5,0.5H19z"/>
	<path d="M11.5,8.497c-0.276,0-0.5-0.224-0.5-0.5v-1.5c0-0.276,0.224-0.5,0.5-0.5s0.5,0.224,0.5,0.5v1.5
		C12,8.273,11.776,8.497,11.5,8.497z"/>
	<path d="M11.5,4.497c-0.276,0-0.5-0.224-0.5-0.5v-1.5c0-0.276,0.224-0.5,0.5-0.5s0.5,0.224,0.5,0.5v1.5
		C12,4.273,11.776,4.497,11.5,4.497z"/>
	<path d="M11.5,16.997c-0.276,0-0.5-0.224-0.5-0.5v-1.5c0-0.276,0.224-0.5,0.5-0.5s0.5,0.224,0.5,0.5v1.5
		C12,16.773,11.776,16.997,11.5,16.997z"/>
	<path d="M11.5,20.997c-0.276,0-0.5-0.224-0.5-0.5v-1.5c0-0.276,0.224-0.5,0.5-0.5s0.5,0.224,0.5,0.5v1.5
		C12,20.773,11.776,20.997,11.5,20.997z"/>
</g>
</svg>
