<?xml version="1.0" encoding="utf-8"?>
<!-- Generator: Adobe Illustrator 22.1.0, SVG Export Plug-In . SVG Version: 6.00 Build 0)  -->
<svg version="1.1" id="Layer_1" xmlns="http://www.w3.org/2000/svg" xmlns:xlink="http://www.w3.org/1999/xlink" x="0px" y="0px"
	 viewBox="0 0 24 24" style="enable-background:new 0 0 24 24;" xml:space="preserve">
<title>laptop-home</title>
<g>
	<path d="M2.728,21.75c-1.09,0-1.976-0.882-1.98-1.966c-0.001-0.288,0.062-0.577,0.183-0.838l1.327-4.083V4.5
		c0-1.241,1.009-2.25,2.25-2.25c0.414,0,0.75,0.336,0.75,0.75S4.92,3.75,4.507,3.75s-0.75,0.336-0.75,0.75v9.75h16.494V4.5
		c0-0.414-0.336-0.75-0.75-0.75s-0.75-0.336-0.75-0.75s0.336-0.75,0.75-0.75c1.241,0,2.25,1.009,2.25,2.25v10.381l1.319,4.069
		c0.211,0.458,0.238,0.973,0.077,1.453c-0.168,0.5-0.521,0.905-0.993,1.14c-0.272,0.135-0.576,0.207-0.88,0.207H2.728z
		 M2.341,19.457c-0.012,0.036-0.026,0.071-0.043,0.104c-0.034,0.067-0.051,0.141-0.051,0.216c0.001,0.261,0.214,0.473,0.475,0.473
		h18.551c0.073,0,0.147-0.017,0.212-0.05c0.114-0.057,0.199-0.155,0.24-0.275c0.041-0.121,0.032-0.25-0.025-0.363
		c-0.017-0.033-0.031-0.068-0.042-0.104l-1.203-3.708H3.546L2.341,19.457z"/>
	<path d="M11.251,18.751c-0.414,0-0.75-0.336-0.75-0.75s0.336-0.75,0.75-0.75h1.5c0.414,0,0.75,0.336,0.75,0.75
		s-0.336,0.75-0.75,0.75H11.251z"/>
	<path d="M9.001,12.75c-1.241,0-2.25-1.009-2.25-2.25V7.854L6.495,8.078c-0.137,0.12-0.312,0.186-0.494,0.186
		c-0.216,0-0.422-0.093-0.564-0.256C5.164,7.697,5.196,7.222,5.507,6.95l4.518-3.954c0.545-0.476,1.247-0.739,1.976-0.739
		s1.431,0.262,1.976,0.739l4.519,3.954c0.311,0.273,0.343,0.747,0.07,1.058c-0.143,0.163-0.348,0.256-0.565,0.256
		c-0.181,0-0.357-0.066-0.493-0.185l-0.256-0.224V10.5c0,1.241-1.009,2.25-2.25,2.25H9.001z M15.001,11.25
		c0.414,0,0.75-0.336,0.75-0.75V6.542l-2.762-2.417c-0.272-0.238-0.623-0.369-0.988-0.369c-0.365,0-0.716,0.131-0.989,0.369
		L8.251,6.542V10.5c0,0.414,0.336,0.75,0.75,0.75h0.75V9c0-1.241,1.009-2.25,2.25-2.25c1.241,0,2.25,1.009,2.25,2.25v2.25H15.001z
		 M12.751,11.25V9c0-0.414-0.336-0.75-0.75-0.75s-0.75,0.336-0.75,0.75v2.25H12.751z"/>
</g>
</svg>
