<svg xmlns="http://www.w3.org/2000/svg" viewBox="0 0 24 24"><defs><style>.a{fill:none;stroke:currentColor;stroke-linecap:round;stroke-linejoin:round;stroke-width:1.5px;}</style></defs><title>messages-bubble-square-lock</title><path class="a" d="M14.25,21.75a1.5,1.5,0,0,0,1.5,1.5"/><line class="a" x1="14.25" y1="17.25" x2="14.25" y2="21.75"/><path class="a" d="M15.75,15.75a1.5,1.5,0,0,0-1.5,1.5"/><line class="a" x1="21.75" y1="15.75" x2="15.75" y2="15.75"/><path class="a" d="M23.25,17.25a1.5,1.5,0,0,0-1.5-1.5"/><line class="a" x1="23.25" y1="21.75" x2="23.25" y2="17.25"/><path class="a" d="M21.75,23.25a1.5,1.5,0,0,0,1.5-1.5"/><line class="a" x1="15.75" y1="23.25" x2="21.75" y2="23.25"/><path class="a" d="M18.75,11.25h0a3,3,0,0,0-3,3v1.5h6v-1.5A3,3,0,0,0,18.75,11.25Z"/><line class="a" x1="18.75" y1="19.154" x2="18.75" y2="19.154"/><path class="a" d="M18.75,19.154a.375.375,0,1,0,.375.375.375.375,0,0,0-.375-.375"/><path class="a" d="M11.25,18.75H9.75l-6,4.5v-4.5H2.25a1.5,1.5,0,0,1-1.5-1.5v-15A1.5,1.5,0,0,1,2.25.75h19.5a1.5,1.5,0,0,1,1.5,1.5v7.5"/></svg>