<svg xmlns="http://www.w3.org/2000/svg" viewBox="0 0 24 24"><defs><style>.a{fill:none;stroke:currentColor;stroke-linecap:round;stroke-linejoin:round;stroke-width:1.5px;}</style></defs><title>messages-bubble-square-typing-1</title><path class="a" d="M21.75,18.75H11.25l-6,4.5v-4.5h-3a1.5,1.5,0,0,1-1.5-1.5v-15A1.5,1.5,0,0,1,2.25.75h19.5a1.5,1.5,0,0,1,1.5,1.5v15A1.5,1.5,0,0,1,21.75,18.75Z"/><line class="a" x1="7.5" y1="9.375" x2="7.5" y2="9.375"/><path class="a" d="M7.5,9.375a.375.375,0,1,0,.375.375A.375.375,0,0,0,7.5,9.375"/><line class="a" x1="12" y1="9.375" x2="12" y2="9.375"/><path class="a" d="M12,9.375a.375.375,0,1,0,.375.375A.375.375,0,0,0,12,9.375"/><line class="a" x1="16.5" y1="9.375" x2="16.5" y2="9.375"/><path class="a" d="M16.5,9.375a.375.375,0,1,0,.375.375.375.375,0,0,0-.375-.375"/></svg>