<svg xmlns="http://www.w3.org/2000/svg" viewBox="0 0 24 24"><defs><style>.a{fill:none;stroke:currentColor;stroke-linecap:round;stroke-linejoin:round;stroke-width:1.5px;}</style></defs><title>messages-bubble-square-smile</title><path class="a" d="M21.75,18.75H11.25l-6,4.5v-4.5h-3a1.5,1.5,0,0,1-1.5-1.5v-15A1.5,1.5,0,0,1,2.25.75h19.5a1.5,1.5,0,0,1,1.5,1.5v15A1.5,1.5,0,0,1,21.75,18.75Z"/><path class="a" d="M9.633,7.25a2.235,2.235,0,0,0-4.012,0"/><path class="a" d="M18.627,7.25a2.235,2.235,0,0,0-4.012,0"/><path class="a" d="M8.252,12.75a5.747,5.747,0,0,0,7.744,0"/></svg>