<svg xmlns="http://www.w3.org/2000/svg" viewBox="0 0 24 24"><defs><style>.a{fill:none;stroke:currentColor;stroke-linecap:round;stroke-linejoin:round;stroke-width:1.5px;}</style></defs><title>messages-bubble-quote</title><path class="a" d="M12.75.75A10.485,10.485,0,0,0,3.833,16.775L.75,23.25l6.474-3.083A10.5,10.5,0,1,0,12.75.75Z"/><line class="a" x1="10.031" y1="6" x2="10.031" y2="8.512"/><path class="a" d="M16.781,14.875a5.747,5.747,0,0,0,0-7.744"/><path class="a" d="M9.751,14.249a.75.75,0,0,0,0-1.5h0a.75.75,0,0,0,0,1.5"/><path class="a" d="M9.916,17.505a2.787,2.787,0,0,0,1.616-2.378c0-1.045-.557-2.378-1.844-2.378"/></svg>