<?xml version="1.0" encoding="utf-8"?>
<!-- Generator: Adobe Illustrator 22.1.0, SVG Export Plug-In . SVG Version: 6.00 Build 0)  -->
<svg version="1.1" id="Layer_1" xmlns="http://www.w3.org/2000/svg" xmlns:xlink="http://www.w3.org/1999/xlink" x="0px" y="0px"
	 viewBox="0 0 24 24" style="enable-background:new 0 0 24 24;" xml:space="preserve">
<g>
	<title>music-player</title>
	<path d="M2,24c-1.103,0-2-0.897-2-2V2c0-1.103,0.897-2,2-2h10c1.103,0,2,0.897,2,2v1h2c1.103,0,2,0.897,2,2v14c0,1.103,0.897,2,2,2
		s2-0.897,2-2v-7.086c-0.427-0.151-0.764-0.487-0.914-0.914H21c-1.103,0-2-0.897-2-2s0.897-2,2-2h0.086c0.209-0.59,0.774-1,1.414-1
		C23.327,6,24,6.673,24,7.5v3c0,0.64-0.41,1.205-1,1.414V19c0,1.654-1.346,3-3,3s-3-1.346-3-3V5c0-0.551-0.448-1-1-1h-2v18
		c0,1.103-0.897,2-2,2H2z M1,22c0,0.552,0.449,1,1,1h10c0.552,0,1-0.448,1-1v-7H1V22z M13,14V2c0-0.551-0.448-1-1-1H2
		C1.449,1,1,1.449,1,2v12H13z M22.5,7C22.224,7,22,7.224,22,7.5v3c0,0.276,0.224,0.5,0.5,0.5s0.5-0.224,0.5-0.5v-3
		C23,7.224,22.776,7,22.5,7z M21,8c-0.552,0-1,0.449-1,1s0.448,1,1,1V8z"/>
	<path d="M3,6C2.724,6,2.5,5.776,2.5,5.5S2.724,5,3,5h1.5C4.776,5,5,5.224,5,5.5S4.776,6,4.5,6H3z"/>
	<path d="M3,8C2.724,8,2.5,7.776,2.5,7.5S2.724,7,3,7h1.5C4.776,7,5,7.224,5,7.5S4.776,8,4.5,8H3z"/>
	<path d="M3,10c-0.276,0-0.5-0.224-0.5-0.5S2.724,9,3,9h1.5C4.776,9,5,9.224,5,9.5S4.776,10,4.5,10H3z"/>
	<path d="M3,12c-0.276,0-0.5-0.224-0.5-0.5S2.724,11,3,11h1.5C4.776,11,5,11.224,5,11.5S4.776,12,4.5,12H3z"/>
	<path d="M9.5,8C9.224,8,9,7.776,9,7.5S9.224,7,9.5,7H11c0.276,0,0.5,0.224,0.5,0.5S11.276,8,11,8H9.5z"/>
	<path d="M9.5,10C9.224,10,9,9.776,9,9.5S9.224,9,9.5,9H11c0.276,0,0.5,0.224,0.5,0.5S11.276,10,11,10H9.5z"/>
	<path d="M9.5,12C9.224,12,9,11.776,9,11.5S9.224,11,9.5,11H11c0.276,0,0.5,0.224,0.5,0.5S11.276,12,11,12H9.5z"/>
	<path d="M6.5,10C6.224,10,6,9.776,6,9.5S6.224,9,6.5,9h1C7.776,9,8,9.224,8,9.5S7.776,10,7.5,10H6.5z"/>
	<path d="M6.5,12C6.224,12,6,11.776,6,11.5S6.224,11,6.5,11h1C7.776,11,8,11.224,8,11.5S7.776,12,7.5,12H6.5z"/>
	<path d="M6.388,21C5.898,21,5.5,20.601,5.5,20.111v-2.222C5.5,17.399,5.899,17,6.389,17c0.168,0,0.331,0.047,0.472,0.136
		l1.692,1.058c0.215,0.133,0.365,0.343,0.422,0.591c0.057,0.247,0.015,0.502-0.119,0.717c-0.077,0.123-0.182,0.229-0.305,0.305
		l-1.693,1.058C6.72,20.953,6.557,21,6.39,21H6.388z M6.5,19.91L7.956,19L6.5,18.09V19.91z"/>
</g>
</svg>
