<?xml version="1.0" encoding="utf-8"?>
<!-- Generator: Adobe Illustrator 22.1.0, SVG Export Plug-In . SVG Version: 6.00 Build 0)  -->
<svg version="1.1" id="Layer_1" xmlns="http://www.w3.org/2000/svg" xmlns:xlink="http://www.w3.org/1999/xlink" x="0px" y="0px"
	 viewBox="0 0 24 24" style="enable-background:new 0 0 24 24;" xml:space="preserve">
<g>
	<title>player-phone-station-1</title>
	<path d="M2.5,24C1.121,24,0,22.878,0,21.5v-8C0,12.121,1.121,11,2.5,11H7V2.5C7,1.121,8.121,0,9.5,0h5C15.878,0,17,1.121,17,2.5V11
		h4.5c1.378,0,2.5,1.121,2.5,2.5v8c0,1.378-1.122,2.5-2.5,2.5H2.5z M21.5,23c0.827,0,1.5-0.673,1.5-1.5v-8
		c0-0.827-0.673-1.5-1.5-1.5H19v11H21.5z M18,23V12h-1v2.5c0,1.378-1.122,2.5-2.5,2.5h-5C8.121,17,7,15.878,7,14.5V12H6v11H18z
		 M2.5,12C1.673,12,1,12.673,1,13.5v8C1,22.327,1.673,23,2.5,23H5V12H2.5z M8,14.5C8,15.327,8.673,16,9.5,16h5
		c0.827,0,1.5-0.673,1.5-1.5V14H8V14.5z M16,13V4H8v9H16z M16,3V2.5C16,1.673,15.327,1,14.5,1h-5C8.673,1,8,1.673,8,2.5V3H16z"/>
	<path d="M21,21.5c-0.827,0-1.5-0.673-1.5-1.5s0.673-1.5,1.5-1.5s1.5,0.673,1.5,1.5S21.827,21.5,21,21.5z M21,19.5
		c-0.276,0-0.5,0.224-0.5,0.5s0.224,0.5,0.5,0.5s0.5-0.224,0.5-0.5S21.276,19.5,21,19.5z"/>
	<path d="M21,16.5c-0.827,0-1.5-0.673-1.5-1.5s0.673-1.5,1.5-1.5s1.5,0.673,1.5,1.5S21.827,16.5,21,16.5z M21,14.5
		c-0.276,0-0.5,0.224-0.5,0.5s0.224,0.5,0.5,0.5s0.5-0.224,0.5-0.5S21.276,14.5,21,14.5z"/>
	<path d="M3,21.5c-0.827,0-1.5-0.673-1.5-1.5s0.673-1.5,1.5-1.5s1.5,0.673,1.5,1.5S3.827,21.5,3,21.5z M3,19.5
		c-0.276,0-0.5,0.224-0.5,0.5s0.224,0.5,0.5,0.5s0.5-0.224,0.5-0.5S3.276,19.5,3,19.5z"/>
	<path d="M3,16.5c-0.827,0-1.5-0.673-1.5-1.5s0.673-1.5,1.5-1.5s1.5,0.673,1.5,1.5S3.827,16.5,3,16.5z M3,14.5
		c-0.276,0-0.5,0.224-0.5,0.5s0.224,0.5,0.5,0.5s0.5-0.224,0.5-0.5S3.276,14.5,3,14.5z"/>
	<path d="M7.5,21C7.224,21,7,20.776,7,20.5S7.224,20,7.5,20h3c0.276,0,0.5,0.224,0.5,0.5S10.776,21,10.5,21H7.5z"/>
	<path d="M13.5,21c-0.276,0-0.5-0.224-0.5-0.5s0.224-0.5,0.5-0.5h2.979c0.276,0,0.5,0.224,0.5,0.5s-0.224,0.5-0.5,0.5H13.5z"/>
</g>
</svg>
