<svg id="Bold" xmlns="http://www.w3.org/2000/svg" viewBox="0 0 24 24"><title>multiple-woman-2</title><path d="M16.039,15.679h0a5.22,5.22,0,0,1,2.46,4.705v1.767a.25.25,0,0,0,.25.25h5a.25.25,0,0,0,.25-.25v-1.4a3.066,3.066,0,0,0-1.425-2.793,18.015,18.015,0,0,0-3.225-1.518c-.292-.1-.6-.362-.6-.653V15.4a.251.251,0,0,1,.252-.25,6.178,6.178,0,0,0,3.959-1.117.421.421,0,0,0,.159-.314.448.448,0,0,0-.133-.339c-.544-.539-.872-.864-1.016-2.971C21.719,6.714,19.136,5.4,17,5.4a5.013,5.013,0,0,0-1.061.124.249.249,0,0,0-.189.305,10.062,10.062,0,0,1,.283,1.8c.136,2.017.329,2.21.8,2.677a2.043,2.043,0,0,1,.6,1.6A2,2,0,0,1,16.6,13.39a8.962,8.962,0,0,1-1.959,1.064.25.25,0,0,0-.029.453Z"/><path d="M17,20.385a3.761,3.761,0,0,0-1.731-3.418,21.7,21.7,0,0,0-3.915-1.858c-.355-.124-.729-.442-.729-.8h0v-.531A.254.254,0,0,1,10.7,13.6a.259.259,0,0,1,.179-.072,7.478,7.478,0,0,0,4.86-1.367.519.519,0,0,0,.194-.384.556.556,0,0,0-.162-.414,3.027,3.027,0,0,1-.8-1.1,8.561,8.561,0,0,1-.435-2.537,6.212,6.212,0,0,0-3.067-5.384,6.281,6.281,0,0,0-5.938,0A6.212,6.212,0,0,0,2.464,7.728a8.471,8.471,0,0,1-.439,2.542,2.594,2.594,0,0,1-.169.342A3.839,3.839,0,0,1,1.2,11.4a.5.5,0,0,0,.067.763,7.351,7.351,0,0,0,4.671,1.37l.188,0a.251.251,0,0,1,.254.25v.53h0c0,.357-.374.675-.729.8a21.7,21.7,0,0,0-3.915,1.858A3.764,3.764,0,0,0,0,20.385H0v1.767a.25.25,0,0,0,.25.25h16.5a.25.25,0,0,0,.25-.25V20.385Z"/></svg>