<svg xmlns="http://www.w3.org/2000/svg" viewBox="0 0 24 24"><title>smart-watch-square-text</title><path d="M16.43,2.75a.251.251,0,0,0,.238-.329L15.975.342A.5.5,0,0,0,15.5,0h-7a.5.5,0,0,0-.475.342L7.332,2.421a.251.251,0,0,0,.238.329Z"/><path d="M7.57,21.25a.248.248,0,0,0-.2.1.251.251,0,0,0-.035.225l.693,2.079A.5.5,0,0,0,8.5,24h7a.5.5,0,0,0,.475-.342l.693-2.079a.251.251,0,0,0-.035-.225.248.248,0,0,0-.2-.1Z"/><path d="M17.5,4H6.5A2.5,2.5,0,0,0,4,6.5v11A2.508,2.508,0,0,0,6.5,20h11A2.5,2.5,0,0,0,20,17.5V6.5A2.5,2.5,0,0,0,17.5,4ZM9,15a1.5,1.5,0,0,1-1.5-1.5v-4A1.5,1.5,0,0,1,9,8h6a1.5,1.5,0,0,1,1.5,1.5v4A1.5,1.5,0,0,1,15,15H12.763a.25.25,0,0,0-.156.055L10.312,16.89A.5.5,0,0,1,9.5,16.5V15.25A.25.25,0,0,0,9.25,15Z"/><path d="M10,11h4a.5.5,0,0,0,0-1H10a.5.5,0,0,0,0,1Z"/><path d="M10,13h3a.5.5,0,0,0,0-1H10a.5.5,0,0,0,0,1Z"/></svg>