<svg xmlns="http://www.w3.org/2000/svg" viewBox="0 0 24 24"><title>smart-watch-wrist-alternate</title><path d="M23.971,17.58,23.155,12.4A3.977,3.977,0,0,0,19.2,9H15.47a6.007,6.007,0,0,0-2.977.79L10.376,11H9.349a.25.25,0,0,1-.236-.167.5.5,0,0,0-.472-.333h-4a.5.5,0,0,0-.471.333A.25.25,0,0,1,3.934,11H1a1,1,0,1,0,0,2h2.06a.249.249,0,0,1,.225.357A1.49,1.49,0,0,0,3.141,14v4a1.485,1.485,0,0,0,.145.642A.25.25,0,0,1,3.061,19H1a1,1,0,0,0,0,2H3.934a.25.25,0,0,1,.236.167.5.5,0,0,0,.471.333h4a.5.5,0,0,0,.472-.333A.25.25,0,0,1,9.349,21h.824l.7.841A5.982,5.982,0,0,0,15.483,24h1.8a3,3,0,0,0,2.991-2.769A.251.251,0,0,1,20.523,21H21a3,3,0,0,0,2.97-3.418Zm-18.33.387a.751.751,0,0,1-.75-.75v-2.5a.752.752,0,0,1,.75-.75h2a.751.751,0,0,1,.75.75v2.5a.75.75,0,0,1-.75.75ZM21,19H16.283a1,1,0,0,0,0,2h1.706a.25.25,0,0,1,.236.334,1.012,1.012,0,0,1-.236.373.987.987,0,0,1-.706.293h-1.8a3.99,3.99,0,0,1-3.072-1.439l-1-1.2a1,1,0,0,0-.769-.36h-.419A.251.251,0,0,1,10,18.641,1.49,1.49,0,0,0,10.141,18V14A1.5,1.5,0,0,0,10,13.355.249.249,0,0,1,10.222,13h.419a1.01,1.01,0,0,0,.5-.132l2.347-1.341A4,4,0,0,1,15.47,11H19.2a1.992,1.992,0,0,1,1.98,1.711l.813,5.159A1,1,0,0,1,21,19Z"/><path d="M5.108,7.277A1,1,0,1,0,6.493,8.719a.751.751,0,0,1,1.016,0A1,1,0,1,0,8.893,7.277,2.759,2.759,0,0,0,5.108,7.277Z"/><path d="M11.321,6.384a1,1,0,0,0-.028-1.414,6.255,6.255,0,0,0-8.584,0A1,1,0,0,0,4.094,6.413a4.236,4.236,0,0,1,5.814,0A1,1,0,0,0,11.321,6.384Z"/><path d="M1.694,4.107a7.73,7.73,0,0,1,10.613,0,1,1,0,1,0,1.387-1.442,9.753,9.753,0,0,0-13.387,0A1,1,0,0,0,1.694,4.107Z"/></svg>