<svg xmlns="http://www.w3.org/2000/svg" viewBox="0 0 24 24"><title>smart-watch-circle-target-alternate</title><path d="M21.5,12A9.5,9.5,0,0,0,17,3.928a.25.25,0,0,1-.109-.148L15.983.373A.5.5,0,0,0,15.5,0h-7a.5.5,0,0,0-.483.371L7.108,3.779A.245.245,0,0,1,7,3.927,9.5,9.5,0,0,0,7,20.076a.25.25,0,0,1,.109.148l.908,3.407A.5.5,0,0,0,8.5,24h7a.5.5,0,0,0,.482-.369l.935-3.427a.247.247,0,0,1,.109-.146A9.5,9.5,0,0,0,21.5,12Zm-8.031,7.359a7.5,7.5,0,1,1,5.89-5.89A7.515,7.515,0,0,1,13.469,19.361Z"/><path d="M10.012,7.311a.681.681,0,0,0-1.025,0L7.237,9.5a.656.656,0,0,0,.513,1.066H8.5a.25.25,0,0,1,.25.25v3.438a.75.75,0,0,0,1.5,0V10.815a.25.25,0,0,1,.25-.25h.75A.656.656,0,0,0,11.762,9.5Z"/><path d="M16.841,13.812a.656.656,0,0,0-.591-.372H15.5a.25.25,0,0,1-.25-.25V10.253a.75.75,0,0,0-1.5,0V13.19a.25.25,0,0,1-.25.25h-.75a.657.657,0,0,0-.513,1.067l1.75,2.187a.657.657,0,0,0,1.025,0l1.75-2.187A.658.658,0,0,0,16.841,13.812Z"/></svg>