<svg xmlns="http://www.w3.org/2000/svg" viewBox="0 0 24 24"><title>smart-watch-square-house-alternate</title><path d="M21,6a3,3,0,0,0-3-3H16.922a.249.249,0,0,1-.24-.182L15.98.365A.5.5,0,0,0,15.5,0h-7a.5.5,0,0,0-.481.363l-.7,2.455A.248.248,0,0,1,7.077,3H6A3,3,0,0,0,3,6V18a3,3,0,0,0,3,3H7.077a.249.249,0,0,1,.24.181l.7,2.456A.5.5,0,0,0,8.5,24h7a.5.5,0,0,0,.48-.363l.7-2.456a.25.25,0,0,1,.24-.181H18a3,3,0,0,0,3-3ZM19,18a1,1,0,0,1-1,1H6a1,1,0,0,1-1-1V6A1,1,0,0,1,6,5H18a1,1,0,0,1,1,1Z"/><path d="M17.129,11.414l-4.91-3.833a.343.343,0,0,0-.439,0L6.87,11.414a.329.329,0,0,0-.1.369A.341.341,0,0,0,7.089,12H8a.25.25,0,0,1,.25.25V15.5a.5.5,0,0,0,.5.5h1.5a.5.5,0,0,0,.5-.5v-1.25a1.25,1.25,0,0,1,2.5,0V15.5a.5.5,0,0,0,.5.5h1.5a.5.5,0,0,0,.5-.5v-3.25A.25.25,0,0,1,16,12h.91a.34.34,0,0,0,.319-.219A.329.329,0,0,0,17.129,11.414Z"/></svg>