<svg xmlns="http://www.w3.org/2000/svg" viewBox="0 0 24 24"><title>smart-watch-circle-sound-alternate</title><path d="M21.5,12A9.5,9.5,0,0,0,17,3.927a.245.245,0,0,1-.109-.148L15.983.373A.5.5,0,0,0,15.5,0h-7a.5.5,0,0,0-.484.371L7.108,3.779A.245.245,0,0,1,7,3.927,9.5,9.5,0,0,0,7,20.076a.25.25,0,0,1,.109.148l.908,3.407A.5.5,0,0,0,8.5,24h7a.5.5,0,0,0,.482-.368l.935-3.428a.247.247,0,0,1,.109-.146A9.5,9.5,0,0,0,21.5,12ZM12,19.5A7.5,7.5,0,1,1,19.5,12,7.509,7.509,0,0,1,12,19.5Z"/><path d="M16.3,8.281a.75.75,0,0,0-1.168.942,4.39,4.39,0,0,1,0,5.558.75.75,0,0,0,1.168.942A5.881,5.881,0,0,0,16.3,8.281Z"/><path d="M14.584,9.781a.75.75,0,0,0-1.168.941,2.026,2.026,0,0,1,0,2.559.75.75,0,0,0,1.168.941A3.514,3.514,0,0,0,14.584,9.781Z"/><path d="M12,15.5a.5.5,0,0,0,.5-.5V9a.5.5,0,0,0-.5-.5h-.5a3.5,3.5,0,0,0-3.083,1.866A.251.251,0,0,1,8.2,10.5H7a.5.5,0,0,0-.5.5v2a.5.5,0,0,0,.5.5H8.2a.249.249,0,0,1,.221.133A3.5,3.5,0,0,0,11.5,15.5Z"/></svg>