<svg xmlns="http://www.w3.org/2000/svg" viewBox="0 0 24 24"><title>smart-watch-square-microphone-alternate</title><path d="M21,6a3,3,0,0,0-3-3H16.922a.249.249,0,0,1-.24-.182L15.98.365A.5.5,0,0,0,15.5,0h-7a.5.5,0,0,0-.481.363l-.7,2.455A.248.248,0,0,1,7.077,3H6A3,3,0,0,0,3,6V18a3,3,0,0,0,3,3H7.077a.249.249,0,0,1,.24.181l.7,2.456A.5.5,0,0,0,8.5,24h7a.5.5,0,0,0,.48-.363l.7-2.456a.25.25,0,0,1,.24-.181H18a3,3,0,0,0,3-3ZM19,18a1,1,0,0,1-1,1H6a1,1,0,0,1-1-1V6A1,1,0,0,1,6,5H18a1,1,0,0,1,1,1Z"/><path d="M12,13a2,2,0,0,0,2-2V9a2,2,0,1,0-4,0v2A2,2,0,0,0,12,13Z"/><path d="M15.5,10.752a.75.75,0,0,0-.75.75,2.75,2.75,0,1,1-5.5,0,.75.75,0,0,0-1.5,0,4.258,4.258,0,0,0,3.305,4.144.25.25,0,0,1,.2.243V17a.75.75,0,0,0,1.5,0V15.889a.249.249,0,0,1,.194-.243A4.258,4.258,0,0,0,16.25,11.5.75.75,0,0,0,15.5,10.752Z"/></svg>