<svg xmlns="http://www.w3.org/2000/svg" viewBox="0 0 24 24"><title>smart-watch-circle-graph-line</title><path d="M15.94,12.886l-.519-.866a.25.25,0,0,0-.446.033l-1.216,2.956a1.249,1.249,0,0,1-2.289-.016L9.606,9.613a.249.249,0,0,0-.452-.043L7.232,12.877a.752.752,0,0,1-.649.373h-2.7a.249.249,0,0,0-.245.295,8.5,8.5,0,0,0,16.718,0,.249.249,0,0,0-.053-.205.251.251,0,0,0-.193-.09h-3.53A.751.751,0,0,1,15.94,12.886Z"/><path d="M8.423,7.845A1.267,1.267,0,0,1,9.6,7.255a1.25,1.25,0,0,1,1.035.753l1.788,5.161a.25.25,0,0,0,.467.013l1.092-2.653A1.249,1.249,0,0,1,16.2,10.4l.739,1.232a.25.25,0,0,0,.215.122h3.085a.25.25,0,0,0,.249-.265,8.5,8.5,0,0,0-16.968,0,.25.25,0,0,0,.249.265H6.008a.251.251,0,0,0,.216-.125Z"/><path d="M7.379,3.051a.125.125,0,0,0,.135.014,9.98,9.98,0,0,1,8.972,0,.125.125,0,0,0,.177-.144l-.68-2.55A.5.5,0,0,0,15.5,0h-7a.5.5,0,0,0-.483.371l-.68,2.551A.125.125,0,0,0,7.379,3.051Z"/><path d="M16.621,20.949a.125.125,0,0,0-.135-.015,9.972,9.972,0,0,1-8.972,0,.125.125,0,0,0-.177.144l.68,2.551A.5.5,0,0,0,8.5,24h7a.5.5,0,0,0,.483-.371l.68-2.551A.125.125,0,0,0,16.621,20.949Z"/></svg>