<svg xmlns="http://www.w3.org/2000/svg" viewBox="0 0 24 24"><title>smart-watch-circle-star-alternate</title><path d="M21.5,12A9.5,9.5,0,0,0,17,3.927a.245.245,0,0,1-.109-.148L15.983.373A.5.5,0,0,0,15.5,0h-7a.5.5,0,0,0-.484.371L7.108,3.779A.245.245,0,0,1,7,3.927,9.5,9.5,0,0,0,7,20.076a.25.25,0,0,1,.109.148l.908,3.407A.5.5,0,0,0,8.5,24h7a.5.5,0,0,0,.482-.368l.935-3.428a.247.247,0,0,1,.109-.146A9.5,9.5,0,0,0,21.5,12ZM12,19.5A7.5,7.5,0,1,1,19.5,12,7.509,7.509,0,0,1,12,19.5Z"/><path d="M15.492,10H14.01a.251.251,0,0,1-.234-.162l-.844-2.229a.431.431,0,0,0-.022-.049,1.054,1.054,0,0,0-1.857.049L10.208,9.84A.251.251,0,0,1,9.974,10H8.492a.986.986,0,0,0-.934.611,1.03,1.03,0,0,0,.3,1.154l1.232.859a.251.251,0,0,1,.087.3l-.717,1.645a1,1,0,0,0,.251,1.158,1.022,1.022,0,0,0,1.2.133l1.956-1.1a.254.254,0,0,1,.245,0l1.957,1.1a1.027,1.027,0,0,0,1.2-.133,1,1,0,0,0,.251-1.158L14.8,12.93a.25.25,0,0,1,.085-.3l1.3-.912a1,1,0,0,0,.238-1.1A.984.984,0,0,0,15.492,10Z"/></svg>