<svg xmlns="http://www.w3.org/2000/svg" viewBox="0 0 24 24"><title>smart-watch-circle-wifi-alternate</title><path d="M21.5,12A9.5,9.5,0,0,0,17,3.927a.245.245,0,0,1-.109-.148L15.983.373A.5.5,0,0,0,15.5,0h-7a.5.5,0,0,0-.484.371L7.108,3.779A.245.245,0,0,1,7,3.927,9.5,9.5,0,0,0,7,20.076a.25.25,0,0,1,.109.148l.908,3.407A.5.5,0,0,0,8.5,24h7a.5.5,0,0,0,.482-.368l.935-3.428a.247.247,0,0,1,.109-.146A9.5,9.5,0,0,0,21.5,12ZM12,19.5A7.5,7.5,0,1,1,19.5,12,7.509,7.509,0,0,1,12,19.5Z"/><circle cx="12" cy="15.002" r="1"/><path d="M16.47,9.634a7.067,7.067,0,0,0-8.941,0A.75.75,0,1,0,8.47,10.8a5.581,5.581,0,0,1,7.059,0,.75.75,0,1,0,.941-1.167Z"/><path d="M14.8,12.044a4.431,4.431,0,0,0-5.607,0,.75.75,0,1,0,.941,1.167,2.945,2.945,0,0,1,3.725,0,.75.75,0,1,0,.941-1.167Z"/></svg>