<svg xmlns="http://www.w3.org/2000/svg" viewBox="0 0 24 24"><title>smart-watch-circle-bell</title><path d="M12,3.5A8.5,8.5,0,1,0,20.5,12,8.5,8.5,0,0,0,12,3.5Zm1.382,12.75a1.5,1.5,0,0,1-2.6,0,.5.5,0,0,1,.433-.75H12.95a.5.5,0,0,1,.432.75Zm2.2-1.75h-7a.5.5,0,1,1,0-1,.5.5,0,0,0,.5-.5V11a3,3,0,0,1,6,0v2a.5.5,0,0,0,.5.5.5.5,0,0,1,0,1Z"/><path d="M7.379,3.051a.125.125,0,0,0,.135.014,9.98,9.98,0,0,1,8.972,0,.125.125,0,0,0,.177-.144l-.68-2.55A.5.5,0,0,0,15.5,0h-7a.5.5,0,0,0-.483.371l-.68,2.551A.125.125,0,0,0,7.379,3.051Z"/><path d="M16.621,20.949a.125.125,0,0,0-.135-.015,9.972,9.972,0,0,1-8.972,0,.125.125,0,0,0-.177.144l.68,2.551A.5.5,0,0,0,8.5,24h7a.5.5,0,0,0,.483-.371l.68-2.551A.125.125,0,0,0,16.621,20.949Z"/></svg>