<svg xmlns="http://www.w3.org/2000/svg" viewBox="0 0 24 24"><title>smart-watch-square-navigation-alternate</title><path d="M21,6a3,3,0,0,0-3-3H16.922a.249.249,0,0,1-.24-.182L15.98.365A.5.5,0,0,0,15.5,0h-7a.5.5,0,0,0-.481.363l-.7,2.455A.248.248,0,0,1,7.077,3H6A3,3,0,0,0,3,6V18a3,3,0,0,0,3,3H7.077a.249.249,0,0,1,.24.181l.7,2.456A.5.5,0,0,0,8.5,24h7a.5.5,0,0,0,.48-.363l.7-2.456a.25.25,0,0,1,.24-.181H18a3,3,0,0,0,3-3ZM19,18a1,1,0,0,1-1,1H6a1,1,0,0,1-1-1V6A1,1,0,0,1,6,5H18a1,1,0,0,1,1,1Z"/><path d="M15.955,8.209a.5.5,0,0,0-.662-.662L7.514,11.082a.5.5,0,0,0,.162.953l3.267.3a.251.251,0,0,1,.227.227l.3,3.266a.5.5,0,0,0,.954.162Z"/></svg>