<svg xmlns="http://www.w3.org/2000/svg" viewBox="0 0 24 24"><title>smart-watch-circle-flash-alternate</title><path d="M21.5,12A9.5,9.5,0,0,0,17,3.927a.245.245,0,0,1-.109-.148L15.983.373A.5.5,0,0,0,15.5,0h-7a.5.5,0,0,0-.484.371L7.108,3.779A.245.245,0,0,1,7,3.927,9.5,9.5,0,0,0,7,20.076a.25.25,0,0,1,.109.148l.908,3.407A.5.5,0,0,0,8.5,24h7a.5.5,0,0,0,.482-.368l.935-3.428a.247.247,0,0,1,.109-.146A9.5,9.5,0,0,0,21.5,12ZM12,19.5A7.5,7.5,0,1,1,19.5,12,7.509,7.509,0,0,1,12,19.5Z"/><path d="M14.75,11h-1a.25.25,0,0,1-.25-.25V7.5a.5.5,0,0,0-.879-.326L8.679,11.764A.751.751,0,0,0,9.25,13h1a.25.25,0,0,1,.25.25V16.5a.5.5,0,0,0,.326.468.5.5,0,0,0,.553-.143l3.941-4.588A.751.751,0,0,0,14.75,11Z"/></svg>