<svg xmlns="http://www.w3.org/2000/svg" viewBox="0 0 24 24"><title>caps</title><path d="M9.25,5h-7a2,2,0,0,0-2,2V8.5a1,1,0,0,0,2,0V7.248A.25.25,0,0,1,2.5,7h2a.25.25,0,0,1,.25.25v9.5A.25.25,0,0,1,4.5,17H3.75a1,1,0,0,0,0,2h4a1,1,0,0,0,0-2H7a.25.25,0,0,1-.25-.25v-9.5A.25.25,0,0,1,7,7H9a.25.25,0,0,1,.25.25V8.5a1,1,0,0,0,2,0V7A2,2,0,0,0,9.25,5Z"/><path d="M21.75,5h-7a2,2,0,0,0-2,2V8.5a1,1,0,0,0,2,0V7.248A.25.25,0,0,1,15,7h2a.25.25,0,0,1,.25.25v9.5A.25.25,0,0,1,17,17h-.75a1,1,0,0,0,0,2h4a1,1,0,0,0,0-2H19.5a.25.25,0,0,1-.25-.25v-9.5A.25.25,0,0,1,19.5,7h2a.25.25,0,0,1,.25.25V8.5a1,1,0,0,0,2,0V7A2,2,0,0,0,21.75,5Z"/></svg>