<svg xmlns="http://www.w3.org/2000/svg" viewBox="0 0 24 24"><title>eraser-2</title><path d="M20.479,21.657h-15a1,1,0,1,0,0,2h15a1,1,0,0,0,0-2Z"/><path d="M22.04,6.435,16.383.777a1.5,1.5,0,0,0-2.122,0L6.5,8.54a1,1,0,0,0,0,1.414l6.364,6.364a1,1,0,0,0,1.413,0h0L22.04,8.556A1.5,1.5,0,0,0,22.04,6.435Z"/><path d="M9.185,19.657a1.825,1.825,0,0,0,1.216-.528L11.413,18a.5.5,0,0,0-.02-.689l-5.776-5.73a.505.505,0,0,0-.708,0l-2.649,2.7a2.593,2.593,0,0,0-.021,3.606l1.083,1.223a1.754,1.754,0,0,0,1.206.543Z"/></svg>