<svg xmlns="http://www.w3.org/2000/svg" viewBox="0 0 24 24"><title>font-expand-horizontal</title><path d="M19,19.5h-.981a.251.251,0,0,1-.237-.17L13.108,5.649a1.14,1.14,0,0,0-2.216,0L6.218,19.329a.251.251,0,0,1-.237.17H5a1,1,0,0,0,0,2H9a1,1,0,0,0,0-2H8.623a.251.251,0,0,1-.237-.331l1.2-3.5a.251.251,0,0,1,.237-.169h4.362a.251.251,0,0,1,.237.169l1.2,3.5a.251.251,0,0,1-.237.331H15a1,1,0,1,0,0,2h4a1,1,0,0,0,0-2Zm-8.327-6a.25.25,0,0,1-.236-.331l1.326-3.884a.251.251,0,0,1,.474,0l1.326,3.884a.25.25,0,0,1-.236.331Z"/><path d="M4.052,9.35a.749.749,0,0,0,1.2-.6v-1.5A.25.25,0,0,1,5.5,7H7.75a1,1,0,0,0,0-2H5.5a.25.25,0,0,1-.25-.25v-1.5a.749.749,0,0,0-1.2-.6L.384,5.4a.751.751,0,0,0,0,1.2L4.05,9.349Z"/><path d="M23.616,5.4,19.948,2.647a.751.751,0,0,0-1.2.6v1.5A.25.25,0,0,1,18.5,5H16.25a1,1,0,0,0,0,2H18.5a.25.25,0,0,1,.25.25v1.5a.751.751,0,0,0,1.2.6h0L23.616,6.6A.75.75,0,0,0,23.616,5.4Z"/></svg>