<svg xmlns="http://www.w3.org/2000/svg" viewBox="0 0 24 24"><title>italic-off</title><path d="M23.707,23.705a1,1,0,0,0,0-1.414l-22-22A1,1,0,0,0,.293,1.705l22,22a1,1,0,0,0,1.414,0Z"/><path d="M6.5,2l6.21-.023a.251.251,0,0,1,.2.1.248.248,0,0,1,.038.222L11.608,6.707a1,1,0,0,0,1.914.582l1.567-5.147a.251.251,0,0,1,.238-.177l5.956-.022a.25.25,0,0,1,.238.329L21.1,3.552a1,1,0,1,0,1.9.631l.535-1.608A1.955,1.955,0,0,0,21.673,0H6.5a1,1,0,0,0,0,2Z"/><path d="M11.044,22H9.383a.25.25,0,0,1-.239-.323l1.639-5.385a1,1,0,1,0-1.914-.582L7.008,21.821A.25.25,0,0,1,6.769,22H4.348a1,1,0,1,0,0,2h6.7a1,1,0,0,0,0-2Z"/></svg>