<svg xmlns="http://www.w3.org/2000/svg" viewBox="0 0 24 24"><title>text-input-area</title><path d="M17.25,21.975H15.818A2.822,2.822,0,0,1,13,19.157V16.588a.25.25,0,0,1,.25-.25h1.137a1,1,0,0,0,0-2H13.25a.249.249,0,0,1-.25-.25V4.838a2.821,2.821,0,0,1,2.818-2.817H17.25a1,1,0,0,0,0-2H15.818a4.815,4.815,0,0,0-3.63,1.652.249.249,0,0,1-.376,0A4.811,4.811,0,0,0,8.182.021H6.75a1,1,0,0,0,0,2H8.182A2.821,2.821,0,0,1,11,4.838v9.25a.249.249,0,0,1-.25.25H9.613a1,1,0,1,0,0,2H10.75a.25.25,0,0,1,.25.25v2.569a2.822,2.822,0,0,1-2.818,2.818H6.75a1,1,0,0,0,0,2H8.182a4.807,4.807,0,0,0,3.63-1.653A.251.251,0,0,1,12,22.236a.254.254,0,0,1,.189.086,4.805,4.805,0,0,0,3.629,1.653H17.25a1,1,0,0,0,0-2Z"/><path d="M1.5,15.384a1,1,0,0,0,1-1V12.475a1,1,0,0,0-2,0v1.909A1,1,0,0,0,1.5,15.384Z"/><path d="M1.5,10.612a1,1,0,0,0,.977-.787.252.252,0,0,1,.191-.191,1,1,0,0,0-.214-1.977A1.957,1.957,0,0,0,.5,9.612,1,1,0,0,0,1.5,10.612Z"/><path d="M5.318,9.657h1.91a1,1,0,0,0,0-2H5.318a1,1,0,0,0,0,2Z"/><path d="M2.685,17.264a.249.249,0,0,1-.2-.2A1,1,0,0,0,.5,17.248,1.957,1.957,0,0,0,2.454,19.2a1,1,0,0,0,1.024-.978A.959.959,0,0,0,2.685,17.264Z"/><path d="M8.228,18.2a1,1,0,0,0-1-1H5.318a1,1,0,0,0,0,2h1.91A1,1,0,0,0,8.228,18.2Z"/><path d="M22.5,11.475a1,1,0,0,0-1,1v1.909a1,1,0,0,0,2,0V12.475A1,1,0,0,0,22.5,11.475Z"/><path d="M21.315,9.6a.249.249,0,0,1,.2.2A1,1,0,0,0,23.5,9.612a1.957,1.957,0,0,0-1.954-1.955,1,1,0,0,0-1.024.977A.959.959,0,0,0,21.315,9.6Z"/><path d="M18.682,7.657h-1.91a1,1,0,0,0,0,2h1.91a1,1,0,0,0,0-2Z"/><path d="M22.5,16.248a1,1,0,0,0-.977.786.252.252,0,0,1-.191.192,1,1,0,0,0,.214,1.977A1.957,1.957,0,0,0,23.5,17.248,1,1,0,0,0,22.5,16.248Z"/><path d="M18.682,17.2h-1.91a1,1,0,1,0,0,2h1.91a1,1,0,0,0,0-2Z"/></svg>