<?xml version="1.0" encoding="utf-8"?>
<!-- Generator: Adobe Illustrator 22.1.0, SVG Export Plug-In . SVG Version: 6.00 Build 0)  -->
<svg version="1.1" id="Light" xmlns="http://www.w3.org/2000/svg" xmlns:xlink="http://www.w3.org/1999/xlink" x="0px" y="0px"
	 viewBox="0 0 24 24" style="enable-background:new 0 0 24 24;" xml:space="preserve">
<g>
	<title>gender-male</title>
	<path d="M8.5,24C3.813,24,0,20.187,0,15.5C0,10.813,3.813,7,8.5,7c2.088,0,4.082,0.762,5.642,2.151L22.293,1H16.5
		C16.224,1,16,0.776,16,0.5S16.224,0,16.5,0h7c0.066,0,0.13,0.013,0.191,0.038c0.123,0.051,0.219,0.147,0.27,0.27
		C23.987,0.37,24,0.434,24,0.5v7C24,7.776,23.776,8,23.5,8S23,7.776,23,7.5V1.707l-8.151,8.151C16.238,11.418,17,13.412,17,15.5
		C17,20.187,13.187,24,8.5,24z M8.5,8C4.365,8,1,11.365,1,15.5S4.365,23,8.5,23s7.5-3.365,7.5-7.5S12.635,8,8.5,8z"/>
</g>
</svg>
