<?xml version="1.0" encoding="utf-8"?>
<!-- Generator: Adobe Illustrator 22.1.0, SVG Export Plug-In . SVG Version: 6.00 Build 0)  -->
<svg version="1.1" id="Light" xmlns="http://www.w3.org/2000/svg" xmlns:xlink="http://www.w3.org/1999/xlink" x="0px" y="0px"
	 viewBox="0 0 24 24" style="enable-background:new 0 0 24 24;" xml:space="preserve">
<g>
	<title>gender-female</title>
	<path d="M12,24c-0.276,0-0.5-0.224-0.5-0.5V21H9c-0.276,0-0.5-0.224-0.5-0.5S8.724,20,9,20h2.5v-5.019
		c-3.945-0.258-7-3.499-7-7.481C4.5,3.365,7.865,0,12,0s7.5,3.365,7.5,7.5c0,3.982-3.055,7.224-7,7.481V20H15
		c0.276,0,0.5,0.224,0.5,0.5S15.276,21,15,21h-2.5v2.5C12.5,23.776,12.276,24,12,24z M12,1C8.416,1,5.5,3.916,5.5,7.5
		S8.416,14,12,14c3.584,0,6.5-2.916,6.5-6.5S15.584,1,12,1z"/>
</g>
</svg>
