<?xml version="1.0" encoding="utf-8"?>
<!-- Generator: Adobe Illustrator 22.1.0, SVG Export Plug-In . SVG Version: 6.00 Build 0)  -->
<svg version="1.1" id="Layer_1" xmlns="http://www.w3.org/2000/svg" xmlns:xlink="http://www.w3.org/1999/xlink" x="0px" y="0px"
	 viewBox="0 0 24 24" style="enable-background:new 0 0 24 24;" xml:space="preserve">
<title>taking-pictures-woman</title>
<g>
	<path d="M2.25,12.002c-1.241,0-2.25-1.009-2.25-2.25v-4.5c0-1.241,1.009-2.25,2.25-2.25h1.036l0.543-1.085
		C3.957,1.661,4.214,1.502,4.5,1.502H9c0.286,0,0.543,0.159,0.671,0.414l0.543,1.086h1.036c1.241,0,2.25,1.009,2.25,2.25v4.5
		c0,1.241-1.009,2.25-2.25,2.25H2.25z M2.25,4.502c-0.414,0-0.75,0.336-0.75,0.75v4.5c0,0.414,0.336,0.75,0.75,0.75h9
		c0.414,0,0.75-0.336,0.75-0.75v-4.5c0-0.414-0.336-0.75-0.75-0.75h-1.5c-0.286,0-0.543-0.159-0.671-0.414L8.536,3.002H4.964
		L4.421,4.087C4.293,4.343,4.036,4.502,3.75,4.502H2.25z"/>
	<path d="M6.75,9.752c-1.447,0-2.625-1.178-2.625-2.625S5.303,4.502,6.75,4.502s2.625,1.178,2.625,2.625S8.197,9.752,6.75,9.752z
		 M6.75,6.002c-0.62,0-1.125,0.505-1.125,1.125S6.13,8.252,6.75,8.252s1.125-0.505,1.125-1.125S7.37,6.002,6.75,6.002z"/>
	<path d="M23.25,24.002c-0.414,0-0.75-0.336-0.75-0.75c0-4.549-3.701-8.25-8.25-8.25S6,18.703,6,23.252
		c0,0.414-0.336,0.75-0.75,0.75s-0.75-0.336-0.75-0.75c0-5.376,4.374-9.75,9.75-9.75S24,17.875,24,23.252
		C24,23.665,23.664,24.002,23.25,24.002z"/>
	<path d="M21.938,13.214c-0.114,0-0.225-0.025-0.328-0.076c-1.179-0.574-2.03-1.82-2.488-3.633c-0.587,0.823-1.369,1.478-2.3,1.919
		c-0.101,0.048-0.209,0.072-0.321,0.072c-0.288,0-0.554-0.168-0.678-0.429c-0.177-0.374-0.017-0.822,0.356-0.999
		c2.243-1.063,3.202-3.753,2.139-5.996c-0.515-1.086-1.423-1.907-2.555-2.311c-0.492-0.175-1.001-0.264-1.516-0.264
		c-0.667,0-1.314,0.147-1.925,0.437C12.219,1.982,12.112,2.007,12,2.007c0,0,0,0,0,0c-0.289,0-0.555-0.168-0.678-0.429
		c-0.177-0.374-0.017-0.822,0.356-0.999C12.488,0.195,13.351,0,14.242,0c2.311,0,4.443,1.346,5.431,3.43
		c0.396,0.836,0.591,1.729,0.577,2.653c0,0.005,0,0.01,0,0.015c-0.002,0.059-0.131,4.646,2.016,5.691
		c0.372,0.181,0.527,0.63,0.346,1.002C22.488,13.048,22.223,13.214,21.938,13.214z"/>
</g>
</svg>
