<?xml version="1.0" encoding="utf-8"?>
<!-- Generator: Adobe Illustrator 22.1.0, SVG Export Plug-In . SVG Version: 6.00 Build 0)  -->
<svg version="1.1" id="Layer_1" xmlns="http://www.w3.org/2000/svg" xmlns:xlink="http://www.w3.org/1999/xlink" x="0px" y="0px"
	 viewBox="0 0 24 24" style="enable-background:new 0 0 24 24;" xml:space="preserve">
<g>
	<title>smart-watch-circle-power</title>
	<path d="M8.5,24c-0.226,0-0.425-0.153-0.483-0.371l-1.126-4.223C4.453,17.719,3,14.958,3,12c0-2.958,1.453-5.719,3.891-7.406
		l1.125-4.223C8.075,0.153,8.274,0,8.5,0h7c0.226,0,0.425,0.153,0.483,0.372l1.125,4.222C19.547,6.281,21,9.042,21,12
		c0,2.941-1.44,5.693-3.858,7.382l-1.16,4.25C15.923,23.849,15.725,24,15.5,24H8.5z M15.118,23l0.79-2.896
		C14.693,20.691,13.353,21,12,21c-1.344,0-2.676-0.304-3.885-0.885L8.884,23H15.118z M7.713,18.749C8.997,19.568,10.478,20,12,20
		c4.411,0,8-3.589,8-8c0-4.411-3.589-8-8-8c-4.411,0-8,3.589-8,8c0,2.605,1.276,5.05,3.417,6.552
		C7.536,18.579,7.642,18.649,7.713,18.749z M8.115,3.885C9.324,3.304,10.656,3,12,3c1.344,0,2.676,0.305,3.885,0.885L15.116,1H8.884
		L8.115,3.885z"/>
	<path d="M12,11.929c-0.276,0-0.5-0.224-0.5-0.5V8c0-0.276,0.224-0.5,0.5-0.5c0.276,0,0.5,0.224,0.5,0.5v3.429
		C12.5,11.705,12.276,11.929,12,11.929z"/>
	<path d="M12,17.001c-1.202,0-2.332-0.468-3.182-1.318c-0.85-0.85-1.318-1.979-1.318-3.182c0-1.202,0.468-2.332,1.318-3.182
		C8.866,9.271,8.93,9.246,8.994,9.246c0.064,0,0.128,0.024,0.176,0.073l0.354,0.353c0.047,0.047,0.073,0.11,0.074,0.177
		s-0.026,0.13-0.073,0.177C8.864,10.687,8.5,11.567,8.5,12.501c0,0.935,0.364,1.813,1.026,2.475c0.661,0.661,1.54,1.025,2.474,1.025
		c0.936,0,1.814-0.364,2.475-1.025c0.661-0.661,1.025-1.54,1.025-2.475c0-0.935-0.365-1.814-1.026-2.475
		c-0.094-0.094-0.146-0.22-0.146-0.354c0-0.134,0.052-0.259,0.146-0.354s0.22-0.146,0.354-0.146s0.259,0.052,0.354,0.146
		c0.85,0.849,1.318,1.979,1.319,3.182c0,1.202-0.468,2.332-1.318,3.182C14.333,16.532,13.203,17.001,12,17.001L12,17.001z"/>
</g>
</svg>
