<?xml version="1.0" encoding="utf-8"?>
<!-- Generator: Adobe Illustrator 22.1.0, SVG Export Plug-In . SVG Version: 6.00 Build 0)  -->
<svg version="1.1" id="Layer_1" xmlns="http://www.w3.org/2000/svg" xmlns:xlink="http://www.w3.org/1999/xlink" x="0px" y="0px"
	 viewBox="0 0 24 24" style="enable-background:new 0 0 24 24;" xml:space="preserve">
<g>
	<title>smart-watch-circle-text</title>
	<path d="M8.5,24c-0.226,0-0.425-0.153-0.483-0.371l-1.126-4.223C4.453,17.719,3,14.958,3,12c0-2.958,1.453-5.719,3.891-7.406
		l1.125-4.223C8.075,0.153,8.274,0,8.5,0h7c0.226,0,0.425,0.153,0.483,0.372l1.125,4.222C19.547,6.281,21,9.042,21,12
		c0,2.941-1.44,5.693-3.858,7.382l-1.16,4.25C15.923,23.849,15.725,24,15.5,24H8.5z M15.118,23l0.79-2.896
		C14.693,20.691,13.353,21,12,21c-1.344,0-2.676-0.304-3.885-0.885L8.884,23H15.118z M7.713,18.749C8.997,19.568,10.478,20,12,20
		c4.411,0,8-3.589,8-8c0-4.411-3.589-8-8-8c-4.411,0-8,3.589-8,8c0,2.605,1.276,5.05,3.417,6.552
		C7.536,18.579,7.642,18.649,7.713,18.749z M8.115,3.885C9.324,3.304,10.656,3,12,3c1.344,0,2.676,0.305,3.885,0.885L15.116,1H8.884
		L8.115,3.885z"/>
	<path d="M10.5,17c-0.075,0-0.15-0.017-0.217-0.05C10.111,16.868,10,16.691,10,16.5V15H9.5C8.673,15,8,14.327,8,13.5v-4
		C8,8.673,8.673,8,9.5,8h6C16.327,8,17,8.673,17,9.5v4c0,0.827-0.673,1.5-1.5,1.5h-2.325l-2.363,1.891
		C10.724,16.961,10.613,17,10.5,17z M9.5,9C9.224,9,9,9.224,9,9.5v4C9,13.776,9.224,14,9.5,14h1c0.276,0,0.5,0.224,0.5,0.5v0.959
		l1.688-1.35C12.776,14.039,12.887,14,13,14h2.5c0.276,0,0.5-0.224,0.5-0.5v-4C16,9.224,15.776,9,15.5,9H9.5z"/>
	<path d="M10.5,11c-0.276,0-0.5-0.224-0.5-0.5s0.224-0.5,0.5-0.5h4c0.276,0,0.5,0.224,0.5,0.5S14.776,11,14.5,11H10.5z"/>
	<path d="M10.5,13c-0.276,0-0.5-0.224-0.5-0.5c0-0.276,0.224-0.5,0.5-0.5h3c0.276,0,0.5,0.224,0.5,0.5c0,0.276-0.224,0.5-0.5,0.5
		H10.5z"/>
</g>
</svg>
