<?xml version="1.0" encoding="utf-8"?>
<!-- Generator: Adobe Illustrator 22.1.0, SVG Export Plug-In . SVG Version: 6.00 Build 0)  -->
<svg version="1.1" id="Layer_1" xmlns="http://www.w3.org/2000/svg" xmlns:xlink="http://www.w3.org/1999/xlink" x="0px" y="0px"
	 viewBox="0 0 24 24" style="enable-background:new 0 0 24 24;" xml:space="preserve">
<g>
	<title>smart-watch-circle-sleep</title>
	<path d="M8.5,24c-0.226,0-0.425-0.153-0.483-0.371l-1.126-4.223C4.453,17.719,3,14.958,3,12c0-2.958,1.453-5.719,3.891-7.406
		l1.125-4.223C8.075,0.153,8.274,0,8.5,0h7c0.226,0,0.425,0.153,0.483,0.372l1.125,4.222C19.547,6.281,21,9.042,21,12
		c0,2.941-1.44,5.693-3.858,7.382l-1.16,4.25C15.923,23.849,15.725,24,15.5,24H8.5z M15.118,23l0.79-2.896
		C14.693,20.691,13.353,21,12,21c-1.344,0-2.676-0.304-3.885-0.885L8.884,23H15.118z M7.713,18.749C8.997,19.568,10.478,20,12,20
		c4.411,0,8-3.589,8-8c0-4.411-3.589-8-8-8c-4.411,0-8,3.589-8,8c0,2.605,1.276,5.05,3.417,6.552
		C7.536,18.579,7.642,18.649,7.713,18.749z M8.115,3.885C9.324,3.304,10.656,3,12,3c1.344,0,2.676,0.305,3.885,0.885L15.116,1H8.884
		L8.115,3.885z"/>
	<path d="M10.74,16c-0.334-0.001-0.645-0.132-0.878-0.368c-0.233-0.235-0.361-0.547-0.359-0.879
		c0.001-0.276,0.096-0.547,0.267-0.763l3.678-4.602c0.038-0.049,0.056-0.111,0.048-0.175c-0.008-0.064-0.04-0.121-0.09-0.161
		C13.364,9.019,13.311,9,13.257,9H10C9.724,9,9.5,8.776,9.5,8.5S9.724,8,10,8h3.26c0.278,0.001,0.549,0.096,0.765,0.267
		c0.26,0.205,0.425,0.5,0.464,0.829c0.039,0.329-0.053,0.654-0.258,0.914l-3.678,4.602c-0.031,0.04-0.05,0.093-0.05,0.146
		c0,0.065,0.024,0.124,0.07,0.171C10.618,14.975,10.677,15,10.743,15H14c0.276,0,0.5,0.224,0.5,0.5S14.276,16,14,16H10.74z"/>
</g>
</svg>
