<?xml version="1.0" encoding="utf-8"?>
<!-- Generator: Adobe Illustrator 22.1.0, SVG Export Plug-In . SVG Version: 6.00 Build 0)  -->
<svg version="1.1" id="Layer_1" xmlns="http://www.w3.org/2000/svg" xmlns:xlink="http://www.w3.org/1999/xlink" x="0px" y="0px"
	 viewBox="0 0 24 24" style="enable-background:new 0 0 24 24;" xml:space="preserve">
<g>
	<title>smart-watch-circle-mail</title>
	<path d="M8.5,24c-0.226,0-0.425-0.153-0.483-0.371l-1.126-4.223C4.453,17.719,3,14.958,3,12c0-2.958,1.453-5.719,3.891-7.406
		l1.125-4.223C8.075,0.153,8.274,0,8.5,0h7c0.226,0,0.425,0.153,0.483,0.372l1.125,4.222C19.547,6.281,21,9.042,21,12
		c0,2.941-1.44,5.693-3.858,7.382l-1.16,4.25C15.923,23.849,15.725,24,15.5,24H8.5z M15.118,23l0.79-2.896
		C14.693,20.691,13.353,21,12,21c-1.344,0-2.676-0.304-3.885-0.885L8.884,23H15.118z M7.713,18.749C8.997,19.568,10.478,20,12,20
		c4.411,0,8-3.589,8-8c0-4.411-3.589-8-8-8c-4.411,0-8,3.589-8,8c0,2.605,1.276,5.05,3.417,6.552
		C7.536,18.579,7.642,18.649,7.713,18.749z M8.115,3.885C9.324,3.304,10.656,3,12,3c1.344,0,2.676,0.305,3.885,0.885L15.116,1H8.884
		L8.115,3.885z"/>
	<path d="M8.5,16C7.673,16,7,15.327,7,14.5v-5C7,8.673,7.673,8,8.5,8h7C16.327,8,17,8.673,17,9.5v5c0,0.827-0.673,1.5-1.5,1.5H8.5z
		 M8,14.5C8,14.776,8.224,15,8.5,15h7c0.276,0,0.5-0.224,0.5-0.5v-3.573l-2.726,1.791c-0.398,0.23-0.836,0.348-1.278,0.348
		c-0.438,0-0.869-0.115-1.246-0.333L8,10.927V14.5z M11.275,11.882c0.207,0.119,0.461,0.186,0.721,0.186
		c0.265,0,0.526-0.07,0.754-0.201L16,9.73V9.5C16,9.224,15.776,9,15.5,9h-7C8.224,9,8,9.224,8,9.5v0.23L11.275,11.882z"/>
</g>
</svg>
