<?xml version="1.0" encoding="utf-8"?>
<!-- Generator: Adobe Illustrator 22.1.0, SVG Export Plug-In . SVG Version: 6.00 Build 0)  -->
<svg version="1.1" id="Layer_1" xmlns="http://www.w3.org/2000/svg" xmlns:xlink="http://www.w3.org/1999/xlink" x="0px" y="0px"
	 viewBox="0 0 24 24" style="enable-background:new 0 0 24 24;" xml:space="preserve">
<g>
	<title>smart-watch-square-cash</title>
	<path d="M8.5,24c-0.215,0-0.406-0.137-0.474-0.342L7.14,21H5.5C4.121,21,3,19.878,3,18.5v-13C3,4.121,4.121,3,5.5,3h1.64
		l0.886-2.658C8.094,0.137,8.285,0,8.5,0h7c0.216,0,0.406,0.137,0.474,0.342L16.86,3h1.64C19.878,3,21,4.121,21,5.5v13
		c0,1.378-1.122,2.5-2.5,2.5h-1.64l-0.886,2.658C15.906,23.863,15.716,24,15.5,24H8.5z M15.14,23l0.667-2H8.194l0.667,2H15.14z
		 M5.5,4C4.673,4,4,4.673,4,5.5v13C4,19.327,4.673,20,5.5,20h13c0.827,0,1.5-0.673,1.5-1.5v-13C20,4.673,19.327,4,18.5,4H5.5z
		 M15.806,3L15.14,1H8.86L8.194,3H15.806z"/>
	<path d="M12,17.5c-0.276,0-0.5-0.224-0.5-0.5v-1H10c-0.276,0-0.5-0.224-0.5-0.5S9.724,15,10,15h2.146
		c0.516,0,0.979-0.287,1.21-0.748c0.162-0.323,0.188-0.69,0.074-1.034s-0.355-0.621-0.678-0.783l-1.95-0.976
		c-0.802-0.401-1.3-1.207-1.301-2.104c0-1.175,0.86-2.154,1.999-2.326V6c0-0.276,0.224-0.5,0.5-0.5c0.276,0,0.5,0.224,0.5,0.5v1H14
		c0.276,0,0.5,0.224,0.5,0.5S14.276,8,14,8h-2.146c-0.361,0-0.701,0.141-0.957,0.397S10.5,8.993,10.501,9.354
		c0,0.516,0.287,0.98,0.748,1.21l1.95,0.976c0.562,0.281,0.981,0.765,1.18,1.362c0.198,0.596,0.153,1.235-0.128,1.797
		c-0.343,0.685-1,1.156-1.75,1.27V17C12.5,17.276,12.276,17.5,12,17.5z"/>
</g>
</svg>
