<?xml version="1.0" encoding="utf-8"?>
<!-- Generator: Adobe Illustrator 22.1.0, SVG Export Plug-In . SVG Version: 6.00 Build 0)  -->
<svg version="1.1" id="Layer_1" xmlns="http://www.w3.org/2000/svg" xmlns:xlink="http://www.w3.org/1999/xlink" x="0px" y="0px"
	 viewBox="0 0 24 24" style="enable-background:new 0 0 24 24;" xml:space="preserve">
<g>
	<title>smart-watch-circle-play</title>
	<path d="M8.5,24c-0.226,0-0.425-0.153-0.483-0.371l-1.126-4.223C4.453,17.719,3,14.958,3,12c0-2.958,1.453-5.719,3.891-7.406
		l1.125-4.223C8.075,0.153,8.274,0,8.5,0h7c0.226,0,0.425,0.153,0.483,0.372l1.125,4.222C19.547,6.281,21,9.042,21,12
		c0,2.941-1.44,5.693-3.858,7.382l-1.16,4.25C15.923,23.849,15.725,24,15.5,24H8.5z M15.118,23l0.79-2.896
		C14.693,20.691,13.353,21,12,21c-1.344,0-2.676-0.304-3.885-0.885L8.884,23H15.118z M7.713,18.749C8.997,19.568,10.478,20,12,20
		c4.411,0,8-3.589,8-8c0-4.411-3.589-8-8-8c-4.411,0-8,3.589-8,8c0,2.605,1.276,5.05,3.417,6.552
		C7.536,18.579,7.642,18.649,7.713,18.749z M8.115,3.885C9.324,3.304,10.656,3,12,3c1.344,0,2.676,0.305,3.885,0.885L15.116,1H8.884
		L8.115,3.885z"/>
	<path d="M10.041,16.346c-0.093,0-0.186-0.013-0.277-0.037c-0.268-0.074-0.491-0.247-0.629-0.489C9.048,15.665,9,15.488,9,15.308
		V8.539c0.001-0.279,0.109-0.54,0.306-0.736C9.503,7.608,9.763,7.5,10.04,7.5c0.182,0,0.359,0.048,0.515,0.136l5.921,3.384
		c0.497,0.284,0.671,0.92,0.387,1.417c-0.092,0.161-0.226,0.295-0.386,0.387l-5.921,3.384C10.397,16.299,10.22,16.346,10.041,16.346
		z M10.04,8.5c-0.011,0-0.02,0.004-0.028,0.011C10.004,8.52,10,8.529,10,8.54v6.767c0.016,0.037,0.035,0.039,0.041,0.039
		l5.939-3.388c0.025-0.033,0.018-0.057,0-0.068l-5.921-3.384L10.04,8.5z"/>
</g>
</svg>
