<svg xmlns="http://www.w3.org/2000/svg" viewBox="0 0 24 24"><title>c-plus-plus-1</title><path d="M22.5,0H1.5A1.5,1.5,0,0,0,0,1.5v21A1.5,1.5,0,0,0,1.5,24h21A1.5,1.5,0,0,0,24,22.5V1.5A1.5,1.5,0,0,0,22.5,0ZM7.5,18.876a.625.625,0,0,1,0,1.25,4.625,4.625,0,0,1,0-9.25.625.625,0,0,1,0,1.25,3.375,3.375,0,0,0,0,6.75Zm6-2.75H12.375a.25.25,0,0,0-.25.25V17.5a.625.625,0,0,1-1.25,0V16.376a.25.25,0,0,0-.25-.25H9.5a.625.625,0,0,1,0-1.25h1.125a.25.25,0,0,0,.25-.25V13.5a.625.625,0,1,1,1.25,0v1.125a.25.25,0,0,0,.25.25H13.5a.625.625,0,0,1,0,1.25Zm6,0H18.375a.25.25,0,0,0-.25.25V17.5a.625.625,0,1,1-1.25,0V16.376a.25.25,0,0,0-.25-.25H15.5a.625.625,0,0,1,0-1.25h1.125a.25.25,0,0,0,.25-.25V13.5a.625.625,0,1,1,1.25,0v1.125a.25.25,0,0,0,.25.25H19.5a.625.625,0,0,1,0,1.25Z"/></svg>