<svg xmlns="http://www.w3.org/2000/svg" viewBox="0 0 24 24"><title>dat</title><path d="M12,9.626a.876.876,0,0,0-.875.875v.625a.25.25,0,0,0,.25.25h1.25a.25.25,0,0,0,.25-.25V10.5A.876.876,0,0,0,12,9.626Z"/><path d="M6.456,9.82a.249.249,0,0,0-.331.239v3.883a.249.249,0,0,0,.331.24A2.238,2.238,0,0,0,7.875,12,2.237,2.237,0,0,0,6.456,9.82Z"/><path d="M22.5,4.5H1.5A1.5,1.5,0,0,0,0,6V18a1.5,1.5,0,0,0,1.5,1.5h21A1.5,1.5,0,0,0,24,18V6A1.5,1.5,0,0,0,22.5,4.5ZM5.5,15.626A.625.625,0,0,1,4.875,15V9A.625.625,0,0,1,5.5,8.376a3.625,3.625,0,0,1,0,7.25ZM14.125,15a.625.625,0,0,1-1.25,0V12.876a.25.25,0,0,0-.25-.25h-1.25a.25.25,0,0,0-.25.25V15a.625.625,0,0,1-1.25,0V10.626a2.213,2.213,0,0,1,1.9-2.239A2.128,2.128,0,0,1,14.125,10.5ZM19.5,9.626H18.375a.25.25,0,0,0-.25.25V15a.625.625,0,0,1-1.25,0V9.876a.25.25,0,0,0-.25-.25H15.5a.625.625,0,0,1,0-1.25h4a.625.625,0,0,1,0,1.25Z"/></svg>