<svg xmlns="http://www.w3.org/2000/svg" viewBox="0 0 24 24"><title>file-code-heart-1</title><path d="M14.715,6.451a.75.75,0,0,0-1.078-1.043l-.018.019L10.952,8.284a.749.749,0,0,0,0,1.023l2.667,2.857a.749.749,0,0,0,1.06.036l.019-.017a.753.753,0,0,0,.018-1.043l-2.03-2.174a.249.249,0,0,1,0-.341Z"/><path d="M16.286,11.14a.75.75,0,0,0,1.078,1.043l.018-.019,2.667-2.857a.749.749,0,0,0,0-1.023L17.382,5.427a.749.749,0,0,0-1.06-.036.731.731,0,0,0-.037,1.06l2.03,2.174a.249.249,0,0,1,0,.341Z"/><path d="M23.415,3,21,.587A2,2,0,0,0,19.587,0H8A2,2,0,0,0,6,2v9.535a.224.224,0,0,0,.122.213c.073.04.146.079.217.122a.633.633,0,0,0,.377-.043A5.019,5.019,0,0,1,7.833,11.3.243.243,0,0,0,8,11.071V2.5A.5.5,0,0,1,8.5,2H19.379a.5.5,0,0,1,.354.146l2.121,2.121A.5.5,0,0,1,22,4.622V18a.5.5,0,0,1-.5.5H13.97a.251.251,0,0,0-.207.111c-.238.334-.845,1.027-1.244,1.474a.249.249,0,0,0,.189.414H22a2,2,0,0,0,2-2V4.415A2,2,0,0,0,23.415,3Z"/><path d="M12.629,14.45A3.508,3.508,0,0,0,9.584,12.5a3.665,3.665,0,0,0-2.695,1.126l-.212.212a.25.25,0,0,1-.353,0l-.212-.212A3.665,3.665,0,0,0,3.417,12.5a3.528,3.528,0,0,0-2.391,6.012l5.113,5.334a.5.5,0,0,0,.723,0l5.106-5.327A3.524,3.524,0,0,0,12.629,14.45Z"/></svg>