<svg xmlns="http://www.w3.org/2000/svg" viewBox="0 0 24 24"><title>file-hqx</title><path d="M12.5,13.626a.876.876,0,0,0-.875.875V17a.875.875,0,0,0,1.75,0V14.5A.876.876,0,0,0,12.5,13.626Z"/><path d="M17.5,6h3.9a.25.25,0,0,0,.177-.427L16.427.428A.25.25,0,0,0,16,.6V4.5A1.5,1.5,0,0,0,17.5,6Z"/><path d="M21.75,7H17.5A2.5,2.5,0,0,1,15,4.5V.251A.25.25,0,0,0,14.75,0H4A2,2,0,0,0,2,2V22a2,2,0,0,0,2,2H20a2,2,0,0,0,2-2V7.251A.25.25,0,0,0,21.75,7ZM9.625,19a.625.625,0,0,1-1.25,0V16.876a.25.25,0,0,0-.25-.25H6.875a.25.25,0,0,0-.25.25V19a.625.625,0,0,1-1.25,0V13a.625.625,0,1,1,1.25,0v2.125a.25.25,0,0,0,.25.25h1.25a.25.25,0,0,0,.25-.25V13a.625.625,0,1,1,1.25,0Zm5-2a2.112,2.112,0,0,1-.993,1.786c-.029.019-.044.088.029.147l.727.577a.633.633,0,0,1,.1.879.627.627,0,0,1-.878.1l-1.93-1.53A2.126,2.126,0,0,1,10.375,17V14.5a2.125,2.125,0,1,1,4.25,0Zm4.934,1.721a.625.625,0,1,1-1.118.558s-.752-1.5-.814-1.629-.194-.12-.243-.023-.825,1.652-.825,1.652a.625.625,0,0,1-.559.346.625.625,0,0,1-.559-.9l1.3-2.609a.252.252,0,0,0,0-.224l-1.3-2.609a.625.625,0,1,1,1.118-.558s.778,1.564.833,1.666a.122.122,0,0,0,.22-.007l.829-1.659a.625.625,0,0,1,1.118.558l-1.3,2.609a.252.252,0,0,0,0,.224Z"/></svg>