<svg xmlns="http://www.w3.org/2000/svg" viewBox="0 0 24 24"><title>file-iso</title><path d="M17.5,6h3.9a.25.25,0,0,0,.177-.427L16.427.428A.25.25,0,0,0,16,.6V4.5A1.5,1.5,0,0,0,17.5,6Z"/><path d="M16.5,13.626a.876.876,0,0,0-.875.875v3a.875.875,0,1,0,1.75,0v-3A.876.876,0,0,0,16.5,13.626Z"/><path d="M21.75,7H17.5A2.5,2.5,0,0,1,15,4.5V.251A.25.25,0,0,0,14.75,0H4A2,2,0,0,0,2,2V22a2,2,0,0,0,2,2H20a2,2,0,0,0,2-2V7.251A.25.25,0,0,0,21.75,7ZM7.875,18.376H8a.625.625,0,0,1,0,1.25H6a.625.625,0,0,1,0-1.25h.125a.25.25,0,0,0,.25-.25v-4.25a.25.25,0,0,0-.25-.25H6a.625.625,0,1,1,0-1.25H8a.625.625,0,0,1,0,1.25H7.875a.25.25,0,0,0-.25.25v4.25A.25.25,0,0,0,7.875,18.376Zm3.052-3.508,1.84,1.226a1.928,1.928,0,0,1-1.07,3.532H10a.625.625,0,0,1,0-1.25h1.7a.678.678,0,0,0,.376-1.242l-1.84-1.226a1.928,1.928,0,0,1,1.07-3.532H13a.625.625,0,0,1,0,1.25H11.3a.678.678,0,0,0-.376,1.242Zm7.7,2.633a2.125,2.125,0,1,1-4.25,0v-3a2.125,2.125,0,1,1,4.25,0Z"/></svg>