<svg xmlns="http://www.w3.org/2000/svg" viewBox="0 0 24 24"><title>file-asp</title><path d="M7,13.626a.876.876,0,0,0-.875.875v.625a.25.25,0,0,0,.25.25h1.25a.25.25,0,0,0,.25-.25V14.5A.876.876,0,0,0,7,13.626Z"/><path d="M17,13.626h-.625a.25.25,0,0,0-.25.25v1.25a.25.25,0,0,0,.25.25H17a.875.875,0,0,0,0-1.75Z"/><path d="M17.5,6h3.9a.25.25,0,0,0,.177-.427L16.427.428A.25.25,0,0,0,16,.6V4.5A1.5,1.5,0,0,0,17.5,6Z"/><path d="M21.75,7H17.5A2.5,2.5,0,0,1,15,4.5V.251A.25.25,0,0,0,14.75,0H4A2,2,0,0,0,2,2V22a2,2,0,0,0,2,2H20a2,2,0,0,0,2-2V7.251A.25.25,0,0,0,21.75,7ZM9.125,19a.625.625,0,0,1-1.25,0V16.876a.25.25,0,0,0-.25-.25H6.375a.25.25,0,0,0-.25.25V19a.625.625,0,0,1-1.25,0V14.626a2.212,2.212,0,0,1,1.9-2.239A2.128,2.128,0,0,1,9.125,14.5Zm2.3-4.133,1.84,1.226a1.928,1.928,0,0,1-1.07,3.532H10.5a.625.625,0,0,1,0-1.25h1.7a.678.678,0,0,0,.376-1.242l-1.84-1.226a1.928,1.928,0,0,1,1.07-3.532h1.7a.625.625,0,0,1,0,1.25H11.8a.678.678,0,0,0-.376,1.242Zm5.448,1.758h-.5a.25.25,0,0,0-.25.25V19a.625.625,0,1,1-1.25,0V13a.625.625,0,0,1,.625-.625H17a2.128,2.128,0,0,1,2.114,2.347A2.213,2.213,0,0,1,16.875,16.626Z"/></svg>