<svg xmlns="http://www.w3.org/2000/svg" viewBox="0 0 24 24"><title>file-code-add-1</title><path d="M14.679,12.2l.018-.017a.751.751,0,0,0,.018-1.043L12.686,8.966a.249.249,0,0,1,0-.341l2.028-2.174a.75.75,0,0,0-1.078-1.043l-.018.019L10.952,8.283a.752.752,0,0,0,0,1.025l2.666,2.857A.752.752,0,0,0,14.679,12.2Z"/><path d="M16.286,11.14a.75.75,0,0,0,1.078,1.043l.018-.018,2.666-2.857a.752.752,0,0,0,0-1.025L17.382,5.427a.751.751,0,0,0-1.061-.036.731.731,0,0,0-.036,1.06l2.029,2.174a.249.249,0,0,1,0,.341Z"/><path d="M23.414,3,21,.587A2,2,0,0,0,19.586,0H8A2,2,0,0,0,6,2V9.214a.248.248,0,0,0,.242.25c.366.006,1.038.033,1.485.082A.246.246,0,0,0,8,9.3V2.5A.5.5,0,0,1,8.5,2H19.379a.5.5,0,0,1,.353.146l2.122,2.121A.5.5,0,0,1,22,4.622V18a.5.5,0,0,1-.5.5H14.631a.244.244,0,0,0-.241.208,7.983,7.983,0,0,1-.373,1.459.243.243,0,0,0,.228.332H22a2,2,0,0,0,2-2V4.415A2,2,0,0,0,23.414,3Z"/><path d="M6.5,11A6.5,6.5,0,1,0,13,17.5,6.508,6.508,0,0,0,6.5,11ZM9,18.251H7.5a.25.25,0,0,0-.25.25V20a.75.75,0,0,1-1.5,0V18.5a.25.25,0,0,0-.25-.25H4a.75.75,0,0,1,0-1.5H5.5a.25.25,0,0,0,.25-.25V15a.75.75,0,1,1,1.5,0v1.5a.25.25,0,0,0,.25.25H9a.75.75,0,0,1,0,1.5Z"/></svg>