<svg xmlns="http://www.w3.org/2000/svg" viewBox="0 0 24 24"><title>file-apk</title><path d="M7,13.126A.876.876,0,0,0,6.125,14v.625a.25.25,0,0,0,.25.25h1.25a.25.25,0,0,0,.25-.25V14A.876.876,0,0,0,7,13.126Z"/><path d="M12,13.126h-.625a.25.25,0,0,0-.25.25v1.25a.25.25,0,0,0,.25.25H12a.875.875,0,0,0,0-1.75Z"/><path d="M17.5,6h3.9a.25.25,0,0,0,.177-.427L16.427.428A.25.25,0,0,0,16,.6V4.5A1.5,1.5,0,0,0,17.5,6Z"/><path d="M21.75,7H17.5A2.5,2.5,0,0,1,15,4.5V.251A.25.25,0,0,0,14.75,0H4A2,2,0,0,0,2,2V22a2,2,0,0,0,2,2H20a2,2,0,0,0,2-2V7.251A.25.25,0,0,0,21.75,7ZM9.125,18.5a.625.625,0,0,1-1.25,0V16.376a.25.25,0,0,0-.25-.25H6.375a.25.25,0,0,0-.25.25V18.5a.625.625,0,0,1-1.25,0V14.126a2.212,2.212,0,0,1,1.9-2.239A2.128,2.128,0,0,1,9.125,14Zm2.75-2.375h-.5a.25.25,0,0,0-.25.25V18.5a.625.625,0,0,1-1.25,0v-6a.625.625,0,0,1,.625-.625H12a2.128,2.128,0,0,1,2.114,2.347A2.213,2.213,0,0,1,11.875,16.126Zm4.686-.448,2.381,2.381a.625.625,0,0,1-.884.884S16.4,17.286,16.317,17.2s-.192-.053-.192.041V18.5a.625.625,0,1,1-1.25,0v-6a.625.625,0,1,1,1.25,0V13.77c0,.164.152.069.152.069l1.781-1.78a.625.625,0,0,1,.884.884l-2.381,2.381A.25.25,0,0,0,16.561,15.678Z"/></svg>