<svg xmlns="http://www.w3.org/2000/svg" viewBox="0 0 24 24"><title>file-ym-1</title><path d="M20,19V10a1,1,0,0,0-1-1H1a1,1,0,0,0-1,1v9a1,1,0,0,0,1,1H19A1,1,0,0,0,20,19ZM9.625,12.5A2.621,2.621,0,0,1,7.8,14.992a.247.247,0,0,0-.176.233V17.5a.625.625,0,0,1-1.25,0V15.225a.247.247,0,0,0-.177-.233A2.622,2.622,0,0,1,4.375,12.5v-1a.625.625,0,1,1,1.25,0v1a1.375,1.375,0,0,0,2.75,0v-1a.625.625,0,1,1,1.25,0Zm5,5a.625.625,0,0,1-1.25,0V14.546c0-.126-.162-.074-.2,0l-.115.23a.65.65,0,0,1-1.118,0s-.056-.121-.11-.221-.206-.114-.206.011V17.5a.625.625,0,0,1-1.25,0v-6a.625.625,0,0,1,1.184-.279s.71,1.408.781,1.562a.177.177,0,0,0,.323-.007l.778-1.555a.625.625,0,0,1,1.184.279Z"/><path d="M23.707,5.708,18.293.294A1,1,0,0,0,17.586,0H6A2,2,0,0,0,4,2v5.75A.25.25,0,0,0,4.25,8h1.5A.25.25,0,0,0,6,7.751V2.5A.5.5,0,0,1,6.5,2H16.75a.25.25,0,0,1,.25.25V5a2,2,0,0,0,2,2h2.75a.25.25,0,0,1,.25.25V21.5a.5.5,0,0,1-.5.5H6.25a.25.25,0,0,1-.25-.25v-.5A.25.25,0,0,0,5.75,21H4.25a.25.25,0,0,0-.25.25V22a2,2,0,0,0,2,2H22a2,2,0,0,0,2-2V6.415A1,1,0,0,0,23.707,5.708Z"/></svg>