<svg xmlns="http://www.w3.org/2000/svg" viewBox="0 0 24 24"><title>hqx</title><path d="M12,9.626a.876.876,0,0,0-.875.875V13a.875.875,0,0,0,1.75,0V10.5A.876.876,0,0,0,12,9.626Z"/><path d="M22.5,4.5H1.5A1.5,1.5,0,0,0,0,6V18a1.5,1.5,0,0,0,1.5,1.5h21A1.5,1.5,0,0,0,24,18V6A1.5,1.5,0,0,0,22.5,4.5ZM9.125,15a.625.625,0,0,1-1.25,0V12.876a.25.25,0,0,0-.25-.25H6.375a.25.25,0,0,0-.25.25V15a.625.625,0,0,1-1.25,0V9a.625.625,0,0,1,1.25,0v2.125a.25.25,0,0,0,.25.25h1.25a.25.25,0,0,0,.25-.25V9a.625.625,0,1,1,1.25,0Zm5-2a2.112,2.112,0,0,1-.993,1.786c-.029.019-.044.088.029.147l.727.577a.634.634,0,0,1,.1.879.627.627,0,0,1-.878.1l-1.93-1.53A2.126,2.126,0,0,1,9.875,13V10.5a2.125,2.125,0,1,1,4.25,0Zm4.934,1.721a.625.625,0,1,1-1.118.558s-.752-1.5-.814-1.629-.194-.12-.242-.023-.826,1.652-.826,1.652a.625.625,0,0,1-.559.346.625.625,0,0,1-.559-.9l1.3-2.609a.252.252,0,0,0,0-.224l-1.3-2.609a.625.625,0,1,1,1.118-.558s.778,1.564.833,1.667a.122.122,0,0,0,.22-.008l.829-1.659a.625.625,0,0,1,1.118.558l-1.3,2.609a.252.252,0,0,0,0,.224Z"/></svg>