<svg xmlns="http://www.w3.org/2000/svg" viewBox="0 0 24 24"><title>rb-1</title><path d="M14.125,18.626a.25.25,0,0,0,.25.25H15.5a1.375,1.375,0,1,0,0-2.75H14.375a.25.25,0,0,0-.25.25Z"/><path d="M10.875,13.5A1.377,1.377,0,0,0,9.5,12.126H8.375a.25.25,0,0,0-.25.25v2.25a.25.25,0,0,0,.25.25H9.5A1.377,1.377,0,0,0,10.875,13.5Z"/><path d="M22.5,0H1.5A1.5,1.5,0,0,0,0,1.5v21A1.5,1.5,0,0,0,1.5,24h21A1.5,1.5,0,0,0,24,22.5V1.5A1.5,1.5,0,0,0,22.5,0ZM11.942,19.059a.625.625,0,0,1,0,.884.643.643,0,0,1-.884,0L8.552,17.437a.25.25,0,0,0-.427.177V19.5a.625.625,0,0,1-1.25,0v-8a.625.625,0,0,1,.625-.625H9.4a2.7,2.7,0,0,1,2.678,2.1A2.629,2.629,0,0,1,9.5,16.126H9.3c-.118,0-.149.13-.06.229C9.3,16.421,11.942,19.059,11.942,19.059Zm6.148-1.13a2.72,2.72,0,0,1-2.725,2.2H13.5a.625.625,0,0,1-.625-.625v-8a.625.625,0,0,1,.625-.625h1.865a2.72,2.72,0,0,1,2.725,2.2,2.588,2.588,0,0,1-.72,2.252.246.246,0,0,0,0,.352A2.587,2.587,0,0,1,18.09,17.929Z"/><path d="M16.875,13.5A1.377,1.377,0,0,0,15.5,12.126H14.375a.25.25,0,0,0-.25.25v2.25a.25.25,0,0,0,.25.25H15.5A1.377,1.377,0,0,0,16.875,13.5Z"/></svg>