<svg xmlns="http://www.w3.org/2000/svg" viewBox="0 0 24 24"><title>ym-1</title><path d="M22.5,0H1.5A1.5,1.5,0,0,0,0,1.5v21A1.5,1.5,0,0,0,1.5,24h21A1.5,1.5,0,0,0,24,22.5V1.5A1.5,1.5,0,0,0,22.5,0ZM11.125,13.428A2.62,2.62,0,0,1,9.3,15.919a.247.247,0,0,0-.176.233v3.276a.625.625,0,0,1-1.25,0V16.152a.247.247,0,0,0-.176-.233,2.62,2.62,0,0,1-1.824-2.491v-2a.625.625,0,0,1,1.25,0v2a1.375,1.375,0,0,0,2.75,0v-2a.625.625,0,0,1,1.25,0Zm6,6a.625.625,0,0,1-1.25,0V14.719c0-.181-.237-.17-.313-.017l-.5,1.005a.625.625,0,0,1-1.118,0l-.524-1.047c-.08-.161-.292-.123-.292.019v4.749a.625.625,0,0,1-1.25,0v-8a.625.625,0,0,1,1.184-.279l1.217,2.435a.251.251,0,0,0,.448,0l1.217-2.435a.625.625,0,0,1,1.184.279Z"/></svg>