<?xml version="1.0" encoding="utf-8"?>
<!-- Generator: Adobe Illustrator 22.1.0, SVG Export Plug-In . SVG Version: 6.00 Build 0)  -->
<svg version="1.1" id="Layer_1" xmlns="http://www.w3.org/2000/svg" xmlns:xlink="http://www.w3.org/1999/xlink" x="0px" y="0px"
	 viewBox="0 0 24 24" style="enable-background:new 0 0 24 24;" xml:space="preserve">
<g>
	<title>cloud-upload</title>
	<path d="M16.3,16.388c-0.276,0-0.5-0.224-0.5-0.5s0.224-0.5,0.5-0.5h2.364c0.468-0.071,3.836-0.704,3.836-4.283
		c0.001-1.14-0.443-2.213-1.251-3.021c-0.807-0.809-1.88-1.254-3.019-1.255c-0.055,0-0.111,0.001-0.167,0.003c0,0,0,0-0.001,0
		c-0.207,0-0.39-0.115-0.47-0.287c-0.704-1.494-1.948-2.625-3.502-3.184c-0.68-0.244-1.385-0.368-2.097-0.368
		c-0.911,0-1.796,0.2-2.632,0.593C7.311,4.552,5.956,6.558,5.823,8.82C5.815,8.965,5.744,9.099,5.628,9.188
		C5.541,9.255,5.433,9.291,5.324,9.291c-0.036,0-0.071-0.004-0.106-0.012C5.011,9.236,4.797,9.214,4.584,9.214
		c-1.45,0-2.719,1.031-3.018,2.452C1.522,11.873,1.5,12.086,1.5,12.298c0,0.906,0.265,1.626,0.789,2.142
		c0.95,0.935,2.456,0.946,2.52,0.946l2.881,0c0.276,0,0.5,0.224,0.5,0.5s-0.224,0.5-0.5,0.5H4.826
		c-0.343-0.002-2.062-0.073-3.239-1.234C0.866,14.441,0.5,13.48,0.5,12.297c0-0.281,0.03-0.563,0.088-0.838
		c0.395-1.88,2.076-3.245,3.997-3.245c0.097,0,0.195,0.004,0.292,0.01C5.2,5.826,6.737,3.718,8.935,2.682
		c0.97-0.457,1.999-0.689,3.058-0.689c0.827,0,1.646,0.144,2.435,0.427c1.699,0.611,3.088,1.819,3.926,3.41
		c2.851,0.068,5.148,2.409,5.146,5.275c0,4.614-4.688,5.272-4.736,5.279c-0.019,0.003-0.042,0.004-0.064,0.004H16.3z"/>
	<path d="M12,21.888c-0.276,0-0.5-0.224-0.5-0.5v-9.793l-2.146,2.147C9.259,13.836,9.134,13.888,9,13.888s-0.259-0.052-0.354-0.146
		S8.5,13.522,8.5,13.388s0.052-0.259,0.146-0.354l3-3C11.741,9.94,11.866,9.888,12,9.888s0.259,0.052,0.354,0.147l3,3
		c0.094,0.094,0.146,0.22,0.146,0.354s-0.052,0.259-0.146,0.354s-0.22,0.146-0.354,0.146s-0.259-0.052-0.354-0.146L12.5,11.595
		v9.793C12.5,21.664,12.276,21.888,12,21.888z"/>
</g>
</svg>
