<?xml version="1.0" encoding="utf-8"?>
<!-- Generator: Adobe Illustrator 22.1.0, SVG Export Plug-In . SVG Version: 6.00 Build 0)  -->
<svg version="1.1" id="Layer_1" xmlns="http://www.w3.org/2000/svg" xmlns:xlink="http://www.w3.org/1999/xlink" x="0px" y="0px"
	 viewBox="0 0 24 24" style="enable-background:new 0 0 24 24;" xml:space="preserve">
<g>
	<title>cloud-file</title>
	<path d="M3.5,14.8c-0.036,0-0.072-0.004-0.107-0.011c-1.773-0.388-2.989-1.985-2.893-3.797c0.005-0.252,0.036-0.516,0.093-0.776
		c0.233-1.06,0.865-1.965,1.778-2.549c0.656-0.419,1.41-0.641,2.182-0.641c0.11,0,0.222,0.005,0.333,0.014
		c0.522-3.46,3.499-6.039,7.024-6.039l0.134,0c2.588,0,5.044,1.454,6.3,3.716c2.806,0.03,5.114,2.321,5.155,5.134
		c0.061,1.927-1.034,3.698-2.79,4.51c-0.066,0.031-0.137,0.046-0.21,0.046c0,0,0,0,0,0c-0.194,0-0.372-0.114-0.453-0.29
		c-0.056-0.121-0.062-0.257-0.016-0.383c0.046-0.125,0.138-0.225,0.26-0.281c1.391-0.643,2.258-2.048,2.21-3.58
		c-0.034-2.294-1.923-4.157-4.21-4.157l-0.063,0c-0.053,0.001-0.105,0.003-0.157,0.005c0,0-0.001,0-0.002,0
		c-0.215,0-0.386-0.106-0.471-0.276C16.559,3.352,14.377,2,12.04,2l-0.118,0c-3.182,0-5.86,2.48-6.099,5.647
		C5.813,7.791,5.74,7.924,5.624,8.01c-0.087,0.064-0.19,0.099-0.298,0.099c-0.036,0-0.072-0.004-0.107-0.012
		C4.999,8.049,4.775,8.025,4.554,8.025c-0.58,0-1.148,0.167-1.642,0.484C2.223,8.949,1.747,9.631,1.571,10.43
		c-0.043,0.196-0.067,0.397-0.071,0.598c-0.071,1.334,0.815,2.501,2.107,2.784c0.13,0.029,0.242,0.106,0.314,0.219
		c0.072,0.113,0.096,0.246,0.068,0.377C3.939,14.635,3.734,14.8,3.5,14.8z"/>
	<path d="M7.526,23c-0.565,0-1.024-0.458-1.026-1.02V11.022c0.006-0.563,0.455-1.009,1.024-1.018h6.332
		c0.971,0,1.885,0.375,2.575,1.057c0.628,0.621,1.014,1.486,1.061,2.375c0.004,0.018,0.007,0.039,0.007,0.063
		c0,0.01-0.001,0.022-0.002,0.034l0.001,0.009c0.002,0.025,0.003,0.049,0.003,0.074v8.362c-0.002,0.277-0.11,0.534-0.304,0.727
		C17.004,22.895,16.748,23,16.477,23H7.526z M7.525,11.004c-0.013,0-0.024,0.01-0.024,0.023v10.951C7.5,21.989,7.512,22,7.524,22
		h8.95l0.276-0.021H16.5V14H14c-0.276,0-0.5-0.224-0.5-0.5v-2.496H7.525z M16.421,13c-0.115-0.466-0.356-0.894-0.693-1.227
		c-0.343-0.339-0.763-0.574-1.227-0.688V13H16.421z"/>
</g>
</svg>
