<?xml version="1.0" encoding="utf-8"?>
<!-- Generator: Adobe Illustrator 22.1.0, SVG Export Plug-In . SVG Version: 6.00 Build 0)  -->
<svg version="1.1" id="Layer_1" xmlns="http://www.w3.org/2000/svg" xmlns:xlink="http://www.w3.org/1999/xlink" x="0px" y="0px"
	 viewBox="0 0 24 24" style="enable-background:new 0 0 24 24;" xml:space="preserve">
<g>
	<title>cloud-music</title>
	<path d="M3.501,14.8c-0.036,0-0.072-0.004-0.107-0.011c-1.774-0.387-2.99-1.985-2.893-3.797c0.005-0.252,0.036-0.515,0.093-0.775
		c0.233-1.06,0.864-1.965,1.778-2.55c0.656-0.42,1.411-0.642,2.182-0.642c0.111,0,0.222,0.005,0.333,0.014
		c0.523-3.459,3.498-6.038,7.02-6.038l0.154,0c2.58,0,5.03,1.454,6.284,3.716c2.806,0.029,5.114,2.32,5.155,5.133
		c0.061,1.927-1.034,3.698-2.79,4.51c-0.066,0.031-0.137,0.046-0.21,0.046c0,0,0,0,0,0c-0.194,0-0.372-0.114-0.453-0.29
		c-0.056-0.121-0.062-0.257-0.016-0.383c0.046-0.125,0.138-0.225,0.26-0.281c1.391-0.643,2.258-2.048,2.21-3.58
		c-0.034-2.293-1.922-4.156-4.209-4.156l-0.063,0c-0.053,0.001-0.106,0.003-0.158,0.005c-0.004,0-0.022,0.001-0.026,0.001
		c-0.188,0-0.363-0.109-0.447-0.278C16.56,3.352,14.38,2,12.044,2l-0.118,0c-3.182,0-5.862,2.48-6.101,5.646
		C5.813,7.79,5.74,7.922,5.624,8.009C5.538,8.073,5.432,8.108,5.325,8.108c-0.036,0-0.072-0.004-0.107-0.012
		C4.999,8.048,4.776,8.024,4.555,8.024c-0.581,0-1.149,0.167-1.644,0.484c-0.689,0.441-1.165,1.124-1.34,1.922
		c-0.043,0.195-0.067,0.396-0.07,0.597c-0.072,1.334,0.814,2.501,2.107,2.784c0.13,0.028,0.242,0.106,0.314,0.218
		c0.072,0.113,0.096,0.246,0.068,0.377C3.939,14.635,3.734,14.8,3.501,14.8z"/>
	<path d="M7,23c-1.379,0-2.5-1.122-2.5-2.5S5.622,18,7,18c0.548,0,1.072,0.178,1.5,0.501v-5.673
		c0.001-0.721,0.515-1.341,1.224-1.473l6-1.125c0.091-0.017,0.184-0.026,0.276-0.026c0.827,0,1.5,0.673,1.5,1.5V18.5
		c0,1.378-1.122,2.5-2.5,2.5s-2.5-1.122-2.5-2.5S13.622,16,15,16c0.549,0,1.072,0.178,1.5,0.501v-4.797c0-0.276-0.224-0.5-0.5-0.5
		c-0.031,0-0.062,0.003-0.092,0.008l-6,1.125c-0.236,0.044-0.408,0.251-0.408,0.491V20.5C9.5,21.878,8.379,23,7,23z M7,19
		c-0.827,0-1.5,0.673-1.5,1.5S6.173,22,7,22s1.5-0.673,1.5-1.5S7.828,19,7,19z M15,17c-0.827,0-1.5,0.673-1.5,1.5S14.173,20,15,20
		s1.5-0.673,1.5-1.5S15.828,17,15,17z"/>
</g>
</svg>
