<?xml version="1.0" encoding="utf-8"?>
<!-- Generator: Adobe Illustrator 22.1.0, SVG Export Plug-In . SVG Version: 6.00 Build 0)  -->
<svg version="1.1" id="Layer_1" xmlns="http://www.w3.org/2000/svg" xmlns:xlink="http://www.w3.org/1999/xlink" x="0px" y="0px"
	 viewBox="0 0 24 24" style="enable-background:new 0 0 24 24;" xml:space="preserve">
<g>
	<title>cloud-storage-drive</title>
	<path d="M5,24.003c-1.654,0-3-1.346-3-3v-2.5c0-0.013,0.001-0.027,0.004-0.042c0.003-0.042,0.013-0.087,0.028-0.13
		c0.001-0.005,0.009-0.027,0.01-0.029l1.545-3.371c-0.68-0.11-1.672-0.4-2.451-1.166C0.382,13.024,0,12.011,0,10.753
		c0-0.294,0.031-0.589,0.091-0.875c0.234-1.111,0.886-2.064,1.837-2.684c0.694-0.453,1.494-0.692,2.314-0.692
		c0.11,0,0.221,0.004,0.332,0.013c0.331-2.507,1.933-4.712,4.23-5.795c1.006-0.475,2.077-0.715,3.184-0.715
		c2.813,0,5.343,1.53,6.641,4.005C21.604,4.073,24.002,6.514,24,9.504c0,3.673-2.802,4.926-4.079,5.305l2.01,3.442
		c0.008,0.013,0.019,0.037,0.024,0.051c0.001,0,0.007,0.016,0.013,0.032C21.989,18.389,22,18.445,22,18.501v2.502
		c0,1.654-1.346,3-3,3H5z M3,21.003c0,1.103,0.897,2,2,2h14c1.103,0,2-0.897,2-2v-2H3V21.003z M20.629,18.003l-2.561-4.385
		c-0.235-0.353-0.645-0.587-1.091-0.615l-10.728,0c-0.4,0.021-0.778,0.267-0.974,0.64l-1.997,4.36H20.629z M4.249,7.502
		c-1.528,0-2.865,1.086-3.18,2.581C1.023,10.303,1,10.529,1,10.753c0,0.979,0.282,1.753,0.837,2.299
		c0.707,0.695,1.712,0.878,2.186,0.927l0.356-0.776c0.368-0.704,1.073-1.159,1.845-1.199L17,12.003
		c0.784,0.045,1.496,0.451,1.917,1.087l0.486,0.831C20.438,13.685,23,12.771,23,9.503c0.002-2.477-2.011-4.493-4.487-4.496
		c-0.058,0-0.116,0.001-0.174,0.003c0,0,0,0-0.001,0c-0.209,0-0.389-0.113-0.471-0.287c-1.066-2.259-3.374-3.719-5.88-3.719
		c-0.958,0-1.886,0.208-2.758,0.619C7.082,2.638,5.66,4.741,5.521,7.112c-0.008,0.145-0.08,0.28-0.196,0.368
		C5.24,7.547,5.132,7.583,5.022,7.583c-0.035,0-0.07-0.004-0.105-0.011C4.698,7.526,4.473,7.502,4.249,7.502z"/>
	<path d="M15,22.003c-0.276,0-0.5-0.224-0.5-0.5s0.224-0.5,0.5-0.5h3c0.276,0,0.5,0.224,0.5,0.5s-0.224,0.5-0.5,0.5H15z"/>
</g>
</svg>
