<?xml version="1.0" encoding="utf-8"?>
<!-- Generator: Adobe Illustrator 22.1.0, SVG Export Plug-In . SVG Version: 6.00 Build 0)  -->
<svg version="1.1" id="Layer_1" xmlns="http://www.w3.org/2000/svg" xmlns:xlink="http://www.w3.org/1999/xlink" x="0px" y="0px"
	 viewBox="0 0 24 24" style="enable-background:new 0 0 24 24;" xml:space="preserve">
<g>
	<title>cloud-monitor-exchange</title>
	<path d="M8.499,11c-0.065,0-0.129-0.013-0.19-0.038c-0.062-0.026-0.117-0.062-0.163-0.109l-2-2C6.051,8.759,5.999,8.634,5.999,8.5
		s0.052-0.259,0.146-0.354S6.366,8,6.499,8s0.259,0.052,0.354,0.146l1.146,1.146V8.25c0-1.135,0.441-2.202,1.244-3.005
		C10.045,4.443,11.112,4.001,12.247,4h0.545l-0.646-0.646C12.051,3.259,11.999,3.134,11.999,3s0.052-0.259,0.146-0.354
		S12.366,2.5,12.499,2.5s0.259,0.052,0.354,0.146l1.5,1.5c0.046,0.046,0.083,0.101,0.108,0.162c0.051,0.121,0.051,0.261,0,0.383
		c-0.025,0.061-0.062,0.116-0.109,0.163l-1.499,1.499C12.758,6.448,12.633,6.5,12.499,6.5s-0.259-0.052-0.354-0.146
		S11.999,6.134,11.999,6s0.052-0.259,0.146-0.354L12.792,5h-0.543c-0.869,0-1.686,0.338-2.299,0.952
		C9.337,6.566,8.999,7.382,8.999,8.25v1.043l1.146-1.146C10.24,8.052,10.366,8,10.499,8s0.259,0.052,0.354,0.146
		s0.146,0.22,0.146,0.354s-0.052,0.259-0.146,0.354l-2,2c-0.046,0.046-0.101,0.083-0.162,0.108C8.628,10.987,8.564,11,8.499,11z"/>
	<path d="M5.499,24c-0.276,0-0.5-0.224-0.5-0.5s0.224-0.5,0.5-0.5h2.5v-1h-6c-1.103,0-2-0.897-2-2v-8c0-1.103,0.897-2,2-2h1.5
		c0.276,0,0.5,0.224,0.5,0.5S3.775,11,3.499,11h-1.5c-0.551,0-1,0.449-1,1v7h15v-7c0-0.551-0.448-1-1-1h-1.5
		c-0.276,0-0.5-0.224-0.5-0.5s0.224-0.5,0.5-0.5h1.5c1.103,0,2,0.897,2,2v8c0,1.103-0.897,2-2,2h-6v1h2.5c0.276,0,0.5,0.224,0.5,0.5
		s-0.224,0.5-0.5,0.5H5.499z M0.999,20c0,0.552,0.449,1,1,1h13c0.552,0,1-0.448,1-1H0.999z"/>
	<path d="M11.999,9c-0.276,0-0.5-0.224-0.5-0.5s0.224-0.5,0.5-0.5h8.726c0.301-0.045,2.274-0.416,2.274-2.357
		c-0.043-1.297-1.145-2.359-2.454-2.359c-0.027,0-0.055,0-0.083,0.001c-0.028,0.001-0.112,0.005-0.118,0.005
		c-0.185,0-0.354-0.102-0.441-0.267C19.248,1.775,17.963,1,16.551,1l-0.046,0c-0.766,0-1.49,0.209-2.116,0.605
		c-0.08,0.051-0.172,0.077-0.267,0.077c-0.172,0-0.331-0.087-0.423-0.233c-0.147-0.234-0.077-0.543,0.156-0.69
		C14.641,0.263,15.555,0,16.5,0l0.043,0c1.672,0,3.226,0.872,4.091,2.286c1.804,0.049,3.304,1.529,3.365,3.341
		c0,2.942-3.146,3.366-3.177,3.37C20.8,8.999,20.781,9,20.76,9H11.999z"/>
</g>
</svg>
