<svg id="Bold" xmlns="http://www.w3.org/2000/svg" viewBox="0 0 24 24"><title>single-woman-vintage-tv</title><path d="M24,3.249a1.5,1.5,0,0,0-1.5-1.5H1.5A1.5,1.5,0,0,0,0,3.249v14.5a1.5,1.5,0,0,0,1.5,1.5h.8a.25.25,0,0,1,.2.406l-.775.969a1,1,0,1,0,1.562,1.25l1.95-2.437a.5.5,0,0,1,.391-.188H18.378a.5.5,0,0,1,.391.188l1.95,2.437a1,1,0,0,0,1.562-1.25l-.775-.969a.25.25,0,0,1,.2-.406h.8a1.5,1.5,0,0,0,1.5-1.5ZM5.335,10.725a.247.247,0,0,1-.051-.372c.3-.338.51-.746.6-2.086a3.12,3.12,0,1,1,6.234,0c.089,1.34.3,1.748.6,2.086a.247.247,0,0,1-.051.372,3.7,3.7,0,0,1-2.216.556.25.25,0,0,0-.25.25v.207a.488.488,0,0,0,.313.458c1.773.67,3.184,1.148,3.522,1.837A5.047,5.047,0,0,1,14.5,15.75a.251.251,0,0,1-.062.187.24.24,0,0,1-.177.08H3.74a.24.24,0,0,1-.177-.08A.245.245,0,0,1,3.5,15.75a5.047,5.047,0,0,1,.465-1.717c.337-.689,1.749-1.167,3.522-1.837a.488.488,0,0,0,.313-.458v-.2a.249.249,0,0,0-.251-.25A3.737,3.737,0,0,1,5.335,10.725ZM17.5,17.249a.5.5,0,0,1-.5-.5V4a.5.5,0,1,1,1,0v12.75A.5.5,0,0,1,17.5,17.249Zm2.25-2.5A.75.75,0,0,1,20.5,14h1a.75.75,0,0,1,0,1.5h-1A.75.75,0,0,1,19.75,14.749ZM21.5,12.5h-1a.75.75,0,0,1,0-1.5h1a.75.75,0,0,1,0,1.5ZM21,8.749a1.5,1.5,0,1,1,1.5-1.5A1.5,1.5,0,0,1,21,8.749Z"/></svg>