<svg xmlns="http://www.w3.org/2000/svg" viewBox="0 0 24 24"><defs><style>.a{fill:none;stroke:currentColor;stroke-linecap:round;stroke-linejoin:round;stroke-width:1.5px;}</style></defs><title>sound</title><line class="a" x1="12.001" y1="3.75" x2="12.001" y2="6.75"/><line class="a" x1="12.001" y1="9.75" x2="12.001" y2="12.75"/><circle class="a" cx="12.001" cy="8.25" r="1.5"/><path class="a" d="M6.751,12.75V2.25a1.5,1.5,0,0,1,1.5-1.5h7.5a1.5,1.5,0,0,1,1.5,1.5v10.5"/><path class="a" d="M15.244,15.1a.933.933,0,0,0-.96.085L11,17.25H9.167a.908.908,0,0,0-.916.9v1.2a.908.908,0,0,0,.916.9H11l3.283,2.07a.929.929,0,0,0,.96.085.9.9,0,0,0,.507-.8V15.9A.9.9,0,0,0,15.244,15.1Z"/></svg>