<svg id="Light" xmlns="http://www.w3.org/2000/svg" viewBox="0 0 24 24"><defs><style>.cls-1{fill:none;stroke:currentColor;stroke-linecap:round;stroke-linejoin:round;}</style></defs><title>single-neutral-id-card-1</title><path class="cls-1" d="M12,2.5a.25.25,0,1,1-.25.25A.25.25,0,0,1,12,2.5"/><path class="cls-1" d="M14.5,4.5h5a1,1,0,0,1,1,1v17a1,1,0,0,1-1,1H4.5a1,1,0,0,1-1-1V5.5a1,1,0,0,1,1-1h5"/><g id="_Group_" data-name="&lt;Group&gt;"><path class="cls-1" d="M17.5,21.22s-2.02-.893-3.432-1.415c-.926-.345-.794-1.907-.258-2.494a4.285,4.285,0,0,0,1.259-3.532A3,3,0,0,0,12,10.5a3,3,0,0,0-3.069,3.279,4.285,4.285,0,0,0,1.259,3.532c.536.587.668,2.149-.258,2.494C8.52,20.327,6.5,21.22,6.5,21.22"/></g><path class="cls-1" d="M14.5,6a.5.5,0,0,1-.5.5H10A.5.5,0,0,1,9.5,6V3a2.5,2.5,0,0,1,5,0Z"/></svg>