<svg id="Light" xmlns="http://www.w3.org/2000/svg" viewBox="0 0 24 24"><defs><style>.cls-1{fill:none;stroke:currentColor;stroke-linecap:round;stroke-linejoin:round;}</style></defs><title>single-neutral-id-card-double</title><path class="cls-1" d="M19.5,5V4a1,1,0,0,0-1-1H1.5a1,1,0,0,0-1,1V16a1,1,0,0,0,1,1h1"/><line class="cls-1" x1="16" y1="11" x2="20.5" y2="11"/><line class="cls-1" x1="16" y1="14" x2="18.5" y2="14"/><path class="cls-1" d="M6.5,17a3.524,3.524,0,0,1,.348-1.411c.245-.49,1.269-.83,2.555-1.307.348-.129.291-1.036.137-1.206a2.567,2.567,0,0,1-.668-1.989,1.632,1.632,0,1,1,3.256,0,2.567,2.567,0,0,1-.668,1.989c-.154.17-.211,1.077.137,1.206,1.286.477,2.31.817,2.555,1.307A3.524,3.524,0,0,1,14.5,17Z"/><path class="cls-1" d="M19.5,20.5a.5.5,0,0,0,.5.5h2.5a1,1,0,0,0,1-1V8a1,1,0,0,0-1-1H5.5a1,1,0,0,0-1,1V20a1,1,0,0,0,1,1h2a.5.5,0,0,0,.5-.5,2,2,0,0,1,4,0,.5.5,0,0,0,.5.5H15a.5.5,0,0,0,.5-.5,2,2,0,0,1,4,0Z"/></svg>