<svg id="Light" xmlns="http://www.w3.org/2000/svg" viewBox="0 0 24 24"><defs><style>.cls-1{fill:none;stroke:currentColor;stroke-linecap:round;stroke-linejoin:round;}</style></defs><title>single-neutral-book</title><path class="cls-1" d="M20,.5H4.5a1.5,1.5,0,0,0,0,3h16A.5.5,0,0,1,21,4V23a.5.5,0,0,1-.5.5H5a2,2,0,0,1-2-2V2"/><g id="_Group_" data-name="&lt;Group&gt;"><path class="cls-1" d="M17.5,19.22s-2.02-.893-3.432-1.415c-.926-.345-.794-1.907-.258-2.494a4.285,4.285,0,0,0,1.259-3.532A3,3,0,0,0,12,8.5a3,3,0,0,0-3.069,3.279,4.285,4.285,0,0,0,1.259,3.532c.536.587.668,2.149-.258,2.494C8.52,18.327,6.5,19.22,6.5,19.22"/></g></svg>