<svg id="Light" xmlns="http://www.w3.org/2000/svg" viewBox="0 0 24 24"><defs><style>.cls-1{fill:none;stroke:currentColor;stroke-linecap:round;stroke-linejoin:round;}</style></defs><title>single-neutral-podium</title><line class="cls-1" x1="21.5" y1="16.5" x2="20" y2="23.5"/><line class="cls-1" x1="5" y1="23.5" x2="3.5" y2="16.5"/><line class="cls-1" x1="1.5" y1="16.5" x2="23.5" y2="16.5"/><path class="cls-1" d="M20,14.5a5.672,5.672,0,0,0-.652-2.3c-.46-.919-2.38-1.557-4.792-2.45-.706-.262-.782-1.682-.256-2.261a4.813,4.813,0,0,0,1.252-3.73A2.984,2.984,0,0,0,12.5.5,2.984,2.984,0,0,0,9.448,3.761,4.813,4.813,0,0,0,10.7,7.491c.526.579.45,2-.256,2.261-2.412.893-4.332,1.531-4.792,2.45A5.672,5.672,0,0,0,5,14.5"/></svg>