<svg id="Light" xmlns="http://www.w3.org/2000/svg" viewBox="0 0 24 24"><defs><style>.cls-1{fill:none;stroke:currentColor;stroke-linecap:round;stroke-linejoin:round;}</style></defs><title>single-neutral-news</title><rect class="cls-1" x="4" y="5" width="5" height="5" rx="0.5" ry="0.5"/><rect class="cls-1" x="1" y="2" width="22" height="16" rx="1" ry="1"/><line class="cls-1" x1="12" y1="18" x2="12" y2="22"/><line class="cls-1" x1="4.5" y1="22" x2="19.5" y2="22"/><path class="cls-1" d="M20.5,15.72s-2.02-.893-3.432-1.415c-.926-.345-.794-1.907-.258-2.494a4.285,4.285,0,0,0,1.259-3.532A3,3,0,0,0,15,5a3,3,0,0,0-3.069,3.279,4.285,4.285,0,0,0,1.259,3.532c.536.587.668,2.149-.258,2.494C11.52,14.827,9.5,15.72,9.5,15.72"/></svg>