<svg id="Regular" xmlns="http://www.w3.org/2000/svg" viewBox="0 0 24 24"><defs><style>.cls-1{fill:none;stroke:currentColor;stroke-linecap:round;stroke-linejoin:round;stroke-width:1.5px;}</style></defs><title>single-woman-idea</title><line class="cls-1" x1="19.125" y1="9.75" x2="19.125" y2="12"/><path class="cls-1" d="M22.875,4.5a3.75,3.75,0,1,0-5.25,3.437V9.75h3V7.937A3.751,3.751,0,0,0,22.875,4.5Z"/><circle class="cls-1" cx="5.625" cy="3.75" r="3"/><path class="cls-1" d="M8.409,9.216,5.625,12.75,2.841,9.216A4.489,4.489,0,0,0,1.125,12.75v3h1.5l.75,7.5h4.5l.75-7.5h1.5v-3A4.489,4.489,0,0,0,8.409,9.216Z"/><path class="cls-1" d="M2.625,3.75s0,3-1.5,3"/><path class="cls-1" d="M8.625,3.75s0,3,1.5,3"/></svg>