<svg id="Regular" xmlns="http://www.w3.org/2000/svg" viewBox="0 0 24 24"><defs><style>.cls-1{fill:none;stroke:currentColor;stroke-linecap:round;stroke-linejoin:round;stroke-width:1.5px;}</style></defs><title>single-woman-flag-1</title><line class="cls-1" x1="0.75" y1="0.75" x2="0.75" y2="23.25"/><polygon class="cls-1" points="11.25 9.75 0.75 9.75 0.75 2.25 11.25 2.25 7.5 6 11.25 9.75"/><circle class="cls-1" cx="18.75" cy="3.75" r="3"/><path class="cls-1" d="M21.534,9.216,18.75,12.75,15.966,9.216A4.489,4.489,0,0,0,14.25,12.75v3h1.5l.75,7.5H21l.75-7.5h1.5v-3A4.489,4.489,0,0,0,21.534,9.216Z"/><path class="cls-1" d="M15.75,3.75s0,3-1.5,3"/><path class="cls-1" d="M21.75,3.75s0,3,1.5,3"/></svg>