<svg id="Regular" xmlns="http://www.w3.org/2000/svg" viewBox="0 0 24 24"><defs><style>.cls-1{fill:none;stroke:currentColor;stroke-linecap:round;stroke-linejoin:round;stroke-width:1.5px;}</style></defs><title>single-woman-statics-3</title><path class="cls-1" d="M12.75,14.25h9a1.5,1.5,0,0,0,1.5-1.5V2.25a1.5,1.5,0,0,0-1.5-1.5H11.25"/><path class="cls-1" d="M15.75,11.25v-6a1.5,1.5,0,0,1,3,0v6"/><line class="cls-1" x1="15.75" y1="8.25" x2="18.75" y2="8.25"/><circle class="cls-1" cx="5.25" cy="3.75" r="3"/><path class="cls-1" d="M8.034,9.216,5.25,12.75,2.466,9.216A4.489,4.489,0,0,0,.75,12.75v3h1.5L3,23.25H7.5l.75-7.5h1.5v-3A4.489,4.489,0,0,0,8.034,9.216Z"/><path class="cls-1" d="M2.25,3.75s0,3-1.5,3"/><path class="cls-1" d="M8.25,3.75s0,3,1.5,3"/></svg>