<svg id="Bold" xmlns="http://www.w3.org/2000/svg" viewBox="0 0 24 24"><title>single-neutral-actions-edit-1</title><path d="M.5,17.75H2.31a.25.25,0,0,1,.249.229L3,23.292a.5.5,0,0,0,.5.458h4a.5.5,0,0,0,.5-.458l.443-5.313a.25.25,0,0,1,.249-.229H10.5a.5.5,0,0,0,.5-.5v-3.5a5.5,5.5,0,0,0-11,0v3.5A.5.5,0,0,0,.5,17.75Z"/><circle cx="5.5" cy="3.75" r="3.5"/><path d="M15.084,22.49a.5.5,0,0,0-.13-.479L12.739,19.8a.5.5,0,0,0-.834.216l-.886,3.1a.5.5,0,0,0,.481.637.492.492,0,0,0,.137-.019l3.1-.886A.5.5,0,0,0,15.084,22.49Z"/><path d="M13.054,17.989a.5.5,0,0,0,0,.707l3,3a.5.5,0,0,0,.707,0l5.01-5.01a.5.5,0,0,0,0-.707l-3-3a.5.5,0,0,0-.707,0Z"/><path d="M19.479,12.271l3,3a.453.453,0,0,0,.327.125.616.616,0,0,0,.426-.171,2.621,2.621,0,0,0,0-3.707,2.641,2.641,0,0,0-3.755.048A.5.5,0,0,0,19.479,12.271Z"/><path d="M.5,17.75H2.31a.25.25,0,0,1,.249.229L3,23.292a.5.5,0,0,0,.5.458h4a.5.5,0,0,0,.5-.458l.443-5.313a.25.25,0,0,1,.249-.229H10.5a.5.5,0,0,0,.5-.5v-3.5a5.5,5.5,0,0,0-11,0v3.5A.5.5,0,0,0,.5,17.75Z"/><circle cx="5.5" cy="3.75" r="3.5"/><path d="M15.084,22.49a.5.5,0,0,0-.13-.479L12.739,19.8a.5.5,0,0,0-.834.216l-.886,3.1a.5.5,0,0,0,.481.637.492.492,0,0,0,.137-.019l3.1-.886A.5.5,0,0,0,15.084,22.49Z"/><path d="M13.054,17.989a.5.5,0,0,0,0,.707l3,3a.5.5,0,0,0,.707,0l5.01-5.01a.5.5,0,0,0,0-.707l-3-3a.5.5,0,0,0-.707,0Z"/><path d="M19.479,12.271l3,3a.453.453,0,0,0,.327.125.616.616,0,0,0,.426-.171,2.621,2.621,0,0,0,0-3.707,2.641,2.641,0,0,0-3.755.048A.5.5,0,0,0,19.479,12.271Z"/></svg>