<svg id="Bold" xmlns="http://www.w3.org/2000/svg" viewBox="0 0 24 24"><title>single-neutral-actions-address</title><path d="M.5,17.75H2.31a.249.249,0,0,1,.249.229L3,23.291a.5.5,0,0,0,.5.459h4a.5.5,0,0,0,.5-.459l.443-5.312a.249.249,0,0,1,.249-.229h.169a.156.156,0,0,0,.114-.05.158.158,0,0,0,.041-.117C9.007,17.472,9,17.362,9,17.25a8.436,8.436,0,0,1,1.672-5.041.252.252,0,0,0,.035-.23A5.5,5.5,0,0,0,0,13.75v3.5A.5.5,0,0,0,.5,17.75Z"/><circle cx="5.5" cy="3.75" r="3.5"/><path d="M10.677,18.566a6.671,6.671,0,0,0,4.987,5,7.09,7.09,0,0,0,1.588.183,6.714,6.714,0,0,0,1.735-.227,1,1,0,0,0-.514-1.932,4.885,4.885,0,0,1-2.362.027,4.723,4.723,0,0,1-3.484-3.494,4.8,4.8,0,0,1,.947-4.133,4.72,4.72,0,0,1,3.8-1.74A4.922,4.922,0,0,1,22,17.266v.812a.8.8,0,0,1-1.594,0V17a3.156,3.156,0,1,0-3.156,3.156,3.106,3.106,0,0,0,1.476-.377.249.249,0,0,1,.312.062A2.793,2.793,0,0,0,24,18.078v-.812a6.933,6.933,0,0,0-6.576-7.014,6.706,6.706,0,0,0-5.4,2.471A6.786,6.786,0,0,0,10.677,18.566Zm6.573-.41A1.157,1.157,0,1,1,18.406,17,1.157,1.157,0,0,1,17.25,18.156Z"/><path d="M.5,17.75H2.31a.249.249,0,0,1,.249.229L3,23.291a.5.5,0,0,0,.5.459h4a.5.5,0,0,0,.5-.459l.443-5.312a.249.249,0,0,1,.249-.229h.169a.156.156,0,0,0,.114-.05.158.158,0,0,0,.041-.117C9.007,17.472,9,17.362,9,17.25a8.436,8.436,0,0,1,1.672-5.041.252.252,0,0,0,.035-.23A5.5,5.5,0,0,0,0,13.75v3.5A.5.5,0,0,0,.5,17.75Z"/><circle cx="5.5" cy="3.75" r="3.5"/><path d="M10.677,18.566a6.671,6.671,0,0,0,4.987,5,7.09,7.09,0,0,0,1.588.183,6.714,6.714,0,0,0,1.735-.227,1,1,0,0,0-.514-1.932,4.885,4.885,0,0,1-2.362.027,4.723,4.723,0,0,1-3.484-3.494,4.8,4.8,0,0,1,.947-4.133,4.72,4.72,0,0,1,3.8-1.74A4.922,4.922,0,0,1,22,17.266v.812a.8.8,0,0,1-1.594,0V17a3.156,3.156,0,1,0-3.156,3.156,3.106,3.106,0,0,0,1.476-.377.249.249,0,0,1,.312.062A2.793,2.793,0,0,0,24,18.078v-.812a6.933,6.933,0,0,0-6.576-7.014,6.706,6.706,0,0,0-5.4,2.471A6.786,6.786,0,0,0,10.677,18.566Zm6.573-.41A1.157,1.157,0,1,1,18.406,17,1.157,1.157,0,0,1,17.25,18.156Z"/></svg>