<svg id="Bold" xmlns="http://www.w3.org/2000/svg" viewBox="0 0 24 24"><title>single-neutral-actions-check-2</title><path d="M.25,18.094H2.06a.249.249,0,0,1,.249.229l.443,5.312a.5.5,0,0,0,.5.459h4a.5.5,0,0,0,.5-.459l.443-5.312a.249.249,0,0,1,.249-.229h.579a.252.252,0,0,0,.179-.076.25.25,0,0,0,.071-.181A7.993,7.993,0,0,1,10.6,13.178a.252.252,0,0,0,.037-.189A5.5,5.5,0,0,0-.25,14.094v3.5A.5.5,0,0,0,.25,18.094Z"/><circle cx="5.25" cy="4.094" r="3.5"/><path d="M17.25,24.094a6.473,6.473,0,0,0,6.2-4.557,1,1,0,0,0-1.91-.6,4.5,4.5,0,1,1-4.3-5.845,1,1,0,0,0,0-2,6.5,6.5,0,0,0,0,13Z"/><path d="M22.043,12.761l-4.616,4.617a.251.251,0,0,1-.354,0L15.9,16.2a1,1,0,1,0-1.415,1.414l1.577,1.577a1.689,1.689,0,0,0,2.386,0l5.014-5.014a1,1,0,0,0-1.414-1.414Z"/><path d="M.25,18.094H2.06a.249.249,0,0,1,.249.229l.443,5.312a.5.5,0,0,0,.5.459h4a.5.5,0,0,0,.5-.459l.443-5.312a.249.249,0,0,1,.249-.229h.579a.252.252,0,0,0,.179-.076.25.25,0,0,0,.071-.181A7.993,7.993,0,0,1,10.6,13.178a.252.252,0,0,0,.037-.189A5.5,5.5,0,0,0-.25,14.094v3.5A.5.5,0,0,0,.25,18.094Z"/><circle cx="5.25" cy="4.094" r="3.5"/><path d="M17.25,24.094a6.473,6.473,0,0,0,6.2-4.557,1,1,0,0,0-1.91-.6,4.5,4.5,0,1,1-4.3-5.845,1,1,0,0,0,0-2,6.5,6.5,0,0,0,0,13Z"/><path d="M22.043,12.761l-4.616,4.617a.251.251,0,0,1-.354,0L15.9,16.2a1,1,0,1,0-1.415,1.414l1.577,1.577a1.689,1.689,0,0,0,2.386,0l5.014-5.014a1,1,0,0,0-1.414-1.414Z"/></svg>