<svg id="Bold" xmlns="http://www.w3.org/2000/svg" viewBox="0 0 24 24"><title>single-neutral-actions-setting</title><path d="M0,17.25a.5.5,0,0,0,.5.5H2.31a.25.25,0,0,1,.249.23L3,23.291a.5.5,0,0,0,.5.458h4a.5.5,0,0,0,.5-.458l.443-5.312a.25.25,0,0,1,.249-.23H10.3a.249.249,0,0,0,.213-.119,3.177,3.177,0,0,1,.367-.492.441.441,0,0,0,.119-.3v-.111a.444.444,0,0,0-.118-.3,3.269,3.269,0,0,1-.433-3.884,3.182,3.182,0,0,1,.22-.332.25.25,0,0,0,.037-.232A5.5,5.5,0,0,0,0,13.75Z"/><circle cx="5.5" cy="3.751" r="3.5"/><circle cx="17.748" cy="16.781" r="1.5"/><path d="M11.98,18.158a1.783,1.783,0,0,0,1.7,2.953l1.411-.327a.453.453,0,0,1,.533.311l.424,1.392a1.775,1.775,0,0,0,3.4,0l.424-1.392a.45.45,0,0,1,.533-.311l1.411.327a1.783,1.783,0,0,0,1.7-2.953l-.987-1.064a.464.464,0,0,1,0-.626l.987-1.064a1.783,1.783,0,0,0-1.7-2.953l-1.411.327a.452.452,0,0,1-.533-.311l-.424-1.392a1.775,1.775,0,0,0-3.4,0l-.424,1.392a.455.455,0,0,1-.533.311l-1.411-.327a1.783,1.783,0,0,0-1.7,2.953l.988,1.064a.464.464,0,0,1,0,.626Zm5.768-4.377a3,3,0,1,1-3,3A3,3,0,0,1,17.748,13.781Z"/><path d="M0,17.25a.5.5,0,0,0,.5.5H2.31a.25.25,0,0,1,.249.23L3,23.291a.5.5,0,0,0,.5.458h4a.5.5,0,0,0,.5-.458l.443-5.312a.25.25,0,0,1,.249-.23H10.3a.249.249,0,0,0,.213-.119,3.177,3.177,0,0,1,.367-.492.441.441,0,0,0,.119-.3v-.111a.444.444,0,0,0-.118-.3,3.269,3.269,0,0,1-.433-3.884,3.182,3.182,0,0,1,.22-.332.25.25,0,0,0,.037-.232A5.5,5.5,0,0,0,0,13.75Z"/><circle cx="5.5" cy="3.751" r="3.5"/><circle cx="17.748" cy="16.781" r="1.5"/><path d="M11.98,18.158a1.783,1.783,0,0,0,1.7,2.953l1.411-.327a.453.453,0,0,1,.533.311l.424,1.392a1.775,1.775,0,0,0,3.4,0l.424-1.392a.45.45,0,0,1,.533-.311l1.411.327a1.783,1.783,0,0,0,1.7-2.953l-.987-1.064a.464.464,0,0,1,0-.626l.987-1.064a1.783,1.783,0,0,0-1.7-2.953l-1.411.327a.452.452,0,0,1-.533-.311l-.424-1.392a1.775,1.775,0,0,0-3.4,0l-.424,1.392a.455.455,0,0,1-.533.311l-1.411-.327a1.783,1.783,0,0,0-1.7,2.953l.988,1.064a.464.464,0,0,1,0,.626Zm5.768-4.377a3,3,0,1,1-3,3A3,3,0,0,1,17.748,13.781Z"/></svg>