<svg id="Bold" xmlns="http://www.w3.org/2000/svg" viewBox="0 0 24 24"><title>single-neutral-actions-flag</title><path d="M0,17.123a.5.5,0,0,0,.5.5H2.309a.25.25,0,0,1,.249.229L3,23.163a.5.5,0,0,0,.5.458h4a.5.5,0,0,0,.5-.458l.443-5.311a.25.25,0,0,1,.249-.229H10.5a.5.5,0,0,0,.5-.5v-3.5a5.5,5.5,0,0,0-11,0Z"/><circle cx="5.498" cy="3.628" r="3.499"/><path d="M24,13.244a.5.5,0,0,0-.709-.454c-2.177,1.01-3.06.405-3.6.04a4.106,4.106,0,0,0-3.6-.49l-1.268.43a.5.5,0,0,0-.339.474c0,9.367.008,2.134.008,9.627a1,1,0,1,0,2,0V18.958a.251.251,0,0,1,.191-.243,3.041,3.041,0,0,1,2.446.441,4.026,4.026,0,0,0,2.27.7,4.253,4.253,0,0,0,1.376-.233l.933-.429a.5.5,0,0,0,.29-.454Z"/><path d="M0,17.123a.5.5,0,0,0,.5.5H2.309a.25.25,0,0,1,.249.229L3,23.163a.5.5,0,0,0,.5.458h4a.5.5,0,0,0,.5-.458l.443-5.311a.25.25,0,0,1,.249-.229H10.5a.5.5,0,0,0,.5-.5v-3.5a5.5,5.5,0,0,0-11,0Z"/><circle cx="5.498" cy="3.628" r="3.499"/><path d="M24,13.244a.5.5,0,0,0-.709-.454c-2.177,1.01-3.06.405-3.6.04a4.106,4.106,0,0,0-3.6-.49l-1.268.43a.5.5,0,0,0-.339.474c0,9.367.008,2.134.008,9.627a1,1,0,1,0,2,0V18.958a.251.251,0,0,1,.191-.243,3.041,3.041,0,0,1,2.446.441,4.026,4.026,0,0,0,2.27.7,4.253,4.253,0,0,0,1.376-.233l.933-.429a.5.5,0,0,0,.29-.454Z"/></svg>