<svg id="Bold" xmlns="http://www.w3.org/2000/svg" viewBox="0 0 24 24"><title>single-neutral-actions-heart</title><path d="M0,17.25a.5.5,0,0,0,.5.5H2.31a.249.249,0,0,1,.249.229L3,23.291a.5.5,0,0,0,.5.459h4a.5.5,0,0,0,.5-.459l.443-5.312a.249.249,0,0,1,.249-.229h.858a.249.249,0,0,0,.236-.332,5.017,5.017,0,0,1,.246-3.889,4.954,4.954,0,0,1,.7-1.04.248.248,0,0,0,.053-.232A5.5,5.5,0,0,0,0,13.75Z"/><circle cx="5.5" cy="3.75" r="3.5"/><path d="M12.023,18.26l0,0L17.139,23.6a.5.5,0,0,0,.721,0l5.105-5.325,0,0a3.522,3.522,0,0,0,.659-4.068,3.526,3.526,0,0,0-5.646-.916l-.305.3a.25.25,0,0,1-.353,0l-.3-.3a3.525,3.525,0,0,0-5.646.916A3.519,3.519,0,0,0,12.023,18.26Z"/><path d="M0,17.25a.5.5,0,0,0,.5.5H2.31a.249.249,0,0,1,.249.229L3,23.291a.5.5,0,0,0,.5.459h4a.5.5,0,0,0,.5-.459l.443-5.312a.249.249,0,0,1,.249-.229h.858a.249.249,0,0,0,.236-.332,5.017,5.017,0,0,1,.246-3.889,4.954,4.954,0,0,1,.7-1.04.248.248,0,0,0,.053-.232A5.5,5.5,0,0,0,0,13.75Z"/><circle cx="5.5" cy="3.75" r="3.5"/><path d="M12.023,18.26l0,0L17.139,23.6a.5.5,0,0,0,.721,0l5.105-5.325,0,0a3.522,3.522,0,0,0,.659-4.068,3.526,3.526,0,0,0-5.646-.916l-.305.3a.25.25,0,0,1-.353,0l-.3-.3a3.525,3.525,0,0,0-5.646.916A3.519,3.519,0,0,0,12.023,18.26Z"/></svg>