<svg id="Bold" xmlns="http://www.w3.org/2000/svg" viewBox="0 0 24 24"><title>single-neutral-actions-warning</title><path d="M0,17.25a.5.5,0,0,0,.5.5h1.81a.25.25,0,0,1,.249.229L3,23.292a.5.5,0,0,0,.5.458h4a.5.5,0,0,0,.5-.458l.442-5.313a.251.251,0,0,1,.25-.229H10.5a.5.5,0,0,0,.5-.5v-3.5a5.5,5.5,0,1,0-11,0Z"/><circle cx="5.501" cy="3.75" r="3.5"/><path d="M18.782,12.021h0a1.45,1.45,0,0,0-2.562,0l-5.055,9.634a1.433,1.433,0,0,0,.048,1.409,1.457,1.457,0,0,0,1.233.686H22.556a1.459,1.459,0,0,0,1.234-.687,1.434,1.434,0,0,0,.047-1.408ZM17.5,15a.75.75,0,0,1,.75.75v2a.75.75,0,0,1-1.5,0v-2A.75.75,0,0,1,17.5,15Zm0,7a1,1,0,1,1,1-1A1,1,0,0,1,17.5,22Z"/><path d="M0,17.25a.5.5,0,0,0,.5.5h1.81a.25.25,0,0,1,.249.229L3,23.292a.5.5,0,0,0,.5.458h4a.5.5,0,0,0,.5-.458l.442-5.313a.251.251,0,0,1,.25-.229H10.5a.5.5,0,0,0,.5-.5v-3.5a5.5,5.5,0,1,0-11,0Z"/><circle cx="5.501" cy="3.75" r="3.5"/><path d="M18.782,12.021h0a1.45,1.45,0,0,0-2.562,0l-5.055,9.634a1.433,1.433,0,0,0,.048,1.409,1.457,1.457,0,0,0,1.233.686H22.556a1.459,1.459,0,0,0,1.234-.687,1.434,1.434,0,0,0,.047-1.408ZM17.5,15a.75.75,0,0,1,.75.75v2a.75.75,0,0,1-1.5,0v-2A.75.75,0,0,1,17.5,15Zm0,7a1,1,0,1,1,1-1A1,1,0,0,1,17.5,22Z"/></svg>