<svg id="Bold" xmlns="http://www.w3.org/2000/svg" viewBox="0 0 24 24"><title>single-neutral-actions-sync</title><path d="M.011,17.25a.5.5,0,0,0,.5.5h1.81a.25.25,0,0,1,.249.229l.443,5.313a.5.5,0,0,0,.5.458h4a.5.5,0,0,0,.5-.458l.443-5.313A.25.25,0,0,1,8.7,17.75h.546a.247.247,0,0,0,.182-.079.25.25,0,0,0,.068-.186c0-.078-.008-.156-.008-.235a7.251,7.251,0,0,1,1.39-4.256.253.253,0,0,0,.044-.189A5.5,5.5,0,0,0,.011,13.75Z"/><circle cx="5.511" cy="3.75" r="3.5"/><path d="M17.136,23.75a6.347,6.347,0,0,0,4.982-2.4A1,1,0,1,0,20.556,20.1a4.376,4.376,0,1,1-.5-5.981.25.25,0,0,1,.083.179.254.254,0,0,1-.073.183l-1.391,1.391a.5.5,0,0,0,.353.854h4.457a.5.5,0,0,0,.5-.5V11.771a.5.5,0,0,0-.853-.353l-1.3,1.3a.251.251,0,0,1-.348.005A6.319,6.319,0,0,0,17.136,11a6.375,6.375,0,1,0,0,12.75Z"/><path d="M.011,17.25a.5.5,0,0,0,.5.5h1.81a.25.25,0,0,1,.249.229l.443,5.313a.5.5,0,0,0,.5.458h4a.5.5,0,0,0,.5-.458l.443-5.313A.25.25,0,0,1,8.7,17.75h.546a.247.247,0,0,0,.182-.079.25.25,0,0,0,.068-.186c0-.078-.008-.156-.008-.235a7.251,7.251,0,0,1,1.39-4.256.253.253,0,0,0,.044-.189A5.5,5.5,0,0,0,.011,13.75Z"/><circle cx="5.511" cy="3.75" r="3.5"/><path d="M17.136,23.75a6.347,6.347,0,0,0,4.982-2.4A1,1,0,1,0,20.556,20.1a4.376,4.376,0,1,1-.5-5.981.25.25,0,0,1,.083.179.254.254,0,0,1-.073.183l-1.391,1.391a.5.5,0,0,0,.353.854h4.457a.5.5,0,0,0,.5-.5V11.771a.5.5,0,0,0-.853-.353l-1.3,1.3a.251.251,0,0,1-.348.005A6.319,6.319,0,0,0,17.136,11a6.375,6.375,0,1,0,0,12.75Z"/></svg>