<svg id="Bold" xmlns="http://www.w3.org/2000/svg" viewBox="0 0 24 24"><title>single-neutral-actions-shield</title><path d="M0,17.25a.5.5,0,0,0,.5.5H2.31a.25.25,0,0,1,.249.229L3,23.292a.5.5,0,0,0,.5.458h4a.5.5,0,0,0,.5-.458l.443-5.313a.25.25,0,0,1,.249-.229h.619a.25.25,0,0,0,.248-.282A7.006,7.006,0,0,1,9.5,16.6V13.206a3.029,3.029,0,0,1,.717-1.953.252.252,0,0,0,.024-.288A5.5,5.5,0,0,0,0,13.75Z"/><circle cx="5.5" cy="3.75" r="3.5"/><path d="M16.19,23.4l.553.211a2.068,2.068,0,0,0,1.47,0l.554-.211C21.848,22.23,24,19.432,24,16.6V13.206a1.541,1.541,0,0,0-.928-1.415,16.365,16.365,0,0,0-5.594-1.041,15.986,15.986,0,0,0-5.55,1.04A1.544,1.544,0,0,0,11,13.206V16.6A7.716,7.716,0,0,0,16.19,23.4ZM14.5,15.75h1.75a.25.25,0,0,0,.25-.25V13.75a1,1,0,0,1,2,0V15.5a.25.25,0,0,0,.25.25H20.5a1,1,0,0,1,0,2H18.75a.25.25,0,0,0-.25.25v1.75a1,1,0,0,1-2,0V18a.25.25,0,0,0-.25-.25H14.5a1,1,0,0,1,0-2Z"/><path d="M0,17.25a.5.5,0,0,0,.5.5H2.31a.25.25,0,0,1,.249.229L3,23.292a.5.5,0,0,0,.5.458h4a.5.5,0,0,0,.5-.458l.443-5.313a.25.25,0,0,1,.249-.229h.619a.25.25,0,0,0,.248-.282A7.006,7.006,0,0,1,9.5,16.6V13.206a3.029,3.029,0,0,1,.717-1.953.252.252,0,0,0,.024-.288A5.5,5.5,0,0,0,0,13.75Z"/><circle cx="5.5" cy="3.75" r="3.5"/><path d="M16.19,23.4l.553.211a2.068,2.068,0,0,0,1.47,0l.554-.211C21.848,22.23,24,19.432,24,16.6V13.206a1.541,1.541,0,0,0-.928-1.415,16.365,16.365,0,0,0-5.594-1.041,15.986,15.986,0,0,0-5.55,1.04A1.544,1.544,0,0,0,11,13.206V16.6A7.716,7.716,0,0,0,16.19,23.4ZM14.5,15.75h1.75a.25.25,0,0,0,.25-.25V13.75a1,1,0,0,1,2,0V15.5a.25.25,0,0,0,.25.25H20.5a1,1,0,0,1,0,2H18.75a.25.25,0,0,0-.25.25v1.75a1,1,0,0,1-2,0V18a.25.25,0,0,0-.25-.25H14.5a1,1,0,0,1,0-2Z"/></svg>