<svg id="Bold" xmlns="http://www.w3.org/2000/svg" viewBox="0 0 24 24"><title>single-neutral-actions-remove</title><path d="M.5,17.75H2.31a.25.25,0,0,1,.249.229L3,23.292a.5.5,0,0,0,.5.458h4a.5.5,0,0,0,.5-.458l.443-5.313a.25.25,0,0,1,.249-.229h.568a.25.25,0,0,0,.182-.078.254.254,0,0,0,.068-.187c0-.078-.008-.156-.008-.235a7.948,7.948,0,0,1,1.345-4.43.25.25,0,0,0,.036-.19A5.5,5.5,0,0,0,0,13.75v3.5A.5.5,0,0,0,.5,17.75Z"/><circle cx="5.5" cy="3.75" r="3.5"/><path d="M17.5,23.75a6.5,6.5,0,1,0-6.5-6.5A6.508,6.508,0,0,0,17.5,23.75Zm3.182-9.682a1,1,0,0,1,0,1.414l-1.591,1.591a.25.25,0,0,0,0,.354l1.591,1.591a1,1,0,1,1-1.414,1.414l-1.591-1.591a.25.25,0,0,0-.354,0l-1.591,1.591a1,1,0,1,1-1.414-1.414l1.591-1.591a.25.25,0,0,0,0-.354l-1.591-1.591a1,1,0,1,1,1.414-1.414l1.591,1.591a.25.25,0,0,0,.354,0l1.591-1.591A1,1,0,0,1,20.682,14.068Z"/><path d="M.5,17.75H2.31a.25.25,0,0,1,.249.229L3,23.292a.5.5,0,0,0,.5.458h4a.5.5,0,0,0,.5-.458l.443-5.313a.25.25,0,0,1,.249-.229h.568a.25.25,0,0,0,.182-.078.254.254,0,0,0,.068-.187c0-.078-.008-.156-.008-.235a7.948,7.948,0,0,1,1.345-4.43.25.25,0,0,0,.036-.19A5.5,5.5,0,0,0,0,13.75v3.5A.5.5,0,0,0,.5,17.75Z"/><circle cx="5.5" cy="3.75" r="3.5"/><path d="M17.5,23.75a6.5,6.5,0,1,0-6.5-6.5A6.508,6.508,0,0,0,17.5,23.75Zm3.182-9.682a1,1,0,0,1,0,1.414l-1.591,1.591a.25.25,0,0,0,0,.354l1.591,1.591a1,1,0,1,1-1.414,1.414l-1.591-1.591a.25.25,0,0,0-.354,0l-1.591,1.591a1,1,0,1,1-1.414-1.414l1.591-1.591a.25.25,0,0,0,0-.354l-1.591-1.591a1,1,0,1,1,1.414-1.414l1.591,1.591a.25.25,0,0,0,.354,0l1.591-1.591A1,1,0,0,1,20.682,14.068Z"/></svg>