<svg id="Bold" xmlns="http://www.w3.org/2000/svg" viewBox="0 0 24 24"><title>single-neutral-actions-key</title><path d="M0,17.25a.5.5,0,0,0,.5.5H2.31a.25.25,0,0,1,.249.229L3,23.292a.5.5,0,0,0,.5.458h4a.5.5,0,0,0,.5-.458l.443-5.313a.25.25,0,0,1,.249-.229h.853a.25.25,0,0,0,.239-.178A5.875,5.875,0,0,1,10.94,15.45a.248.248,0,0,0,.06-.162V13.75a5.5,5.5,0,0,0-11,0Z"/><circle cx="5.5" cy="3.75" r="3.5"/><path d="M15.457,23.748a4.449,4.449,0,0,0,4.266-5.729.252.252,0,0,1,.063-.249l4.067-4.058A.5.5,0,0,0,24,13.358V11.38a.5.5,0,0,0-.5-.5H21.521a.5.5,0,0,0-.343.137l-4.189,3.957a.251.251,0,0,1-.244.057,4.454,4.454,0,1,0-1.288,8.717Zm-1.586-4.606a1.736,1.736,0,1,1,.509,1.228A1.721,1.721,0,0,1,13.871,19.142Z"/><path d="M0,17.25a.5.5,0,0,0,.5.5H2.31a.25.25,0,0,1,.249.229L3,23.292a.5.5,0,0,0,.5.458h4a.5.5,0,0,0,.5-.458l.443-5.313a.25.25,0,0,1,.249-.229h.853a.25.25,0,0,0,.239-.178A5.875,5.875,0,0,1,10.94,15.45a.248.248,0,0,0,.06-.162V13.75a5.5,5.5,0,0,0-11,0Z"/><circle cx="5.5" cy="3.75" r="3.5"/><path d="M15.457,23.748a4.449,4.449,0,0,0,4.266-5.729.252.252,0,0,1,.063-.249l4.067-4.058A.5.5,0,0,0,24,13.358V11.38a.5.5,0,0,0-.5-.5H21.521a.5.5,0,0,0-.343.137l-4.189,3.957a.251.251,0,0,1-.244.057,4.454,4.454,0,1,0-1.288,8.717Zm-1.586-4.606a1.736,1.736,0,1,1,.509,1.228A1.721,1.721,0,0,1,13.871,19.142Z"/></svg>