<svg id="Bold" xmlns="http://www.w3.org/2000/svg" viewBox="0 0 24 24"><title>single-neutral-actions-text</title><path d="M.5,17.75H2.31a.25.25,0,0,1,.249.229L3,23.292a.5.5,0,0,0,.5.458h4a.5.5,0,0,0,.5-.458l.443-5.313a.25.25,0,0,1,.249-.229h.56a.25.25,0,0,0,.25-.25V12.25a2.976,2.976,0,0,1,.414-1.515.252.252,0,0,0-.015-.277A5.5,5.5,0,0,0,0,13.75v3.5A.5.5,0,0,0,.5,17.75Z"/><circle cx="5.5" cy="3.75" r="3.5"/><path d="M11,21.75a2,2,0,0,0,2,2h9a2,2,0,0,0,2-2v-9a2,2,0,0,0-2-2H13a2,2,0,0,0-2,2v9Zm2.25,0A.25.25,0,0,1,13,21.5V13a.25.25,0,0,1,.25-.25h8.5A.25.25,0,0,1,22,13v8.5a.249.249,0,0,1-.25.25Z"/><path d="M20,14.75H15.25a.75.75,0,0,0,0,1.5H20a.75.75,0,0,0,0-1.5Z"/><path d="M17.5,19.25a.75.75,0,0,0,0-1.5H15.25a.75.75,0,0,0,0,1.5Z"/><path d="M.5,17.75H2.31a.25.25,0,0,1,.249.229L3,23.292a.5.5,0,0,0,.5.458h4a.5.5,0,0,0,.5-.458l.443-5.313a.25.25,0,0,1,.249-.229h.56a.25.25,0,0,0,.25-.25V12.25a2.976,2.976,0,0,1,.414-1.515.252.252,0,0,0-.015-.277A5.5,5.5,0,0,0,0,13.75v3.5A.5.5,0,0,0,.5,17.75Z"/><circle cx="5.5" cy="3.75" r="3.5"/><path d="M11,21.75a2,2,0,0,0,2,2h9a2,2,0,0,0,2-2v-9a2,2,0,0,0-2-2H13a2,2,0,0,0-2,2v9Zm2.25,0A.25.25,0,0,1,13,21.5V13a.25.25,0,0,1,.25-.25h8.5A.25.25,0,0,1,22,13v8.5a.249.249,0,0,1-.25.25Z"/><path d="M20,14.75H15.25a.75.75,0,0,0,0,1.5H20a.75.75,0,0,0,0-1.5Z"/><path d="M17.5,19.25a.75.75,0,0,0,0-1.5H15.25a.75.75,0,0,0,0,1.5Z"/></svg>