<svg id="Bold" xmlns="http://www.w3.org/2000/svg" viewBox="0 0 24 24"><title>single-neutral-actions-flight</title><path d="M10.5,17.75a.5.5,0,0,0,.5-.5v-3.5a5.5,5.5,0,0,0-11,0v3.5a.5.5,0,0,0,.5.5H2.31a.249.249,0,0,1,.249.229L3,23.291a.5.5,0,0,0,.5.459h4a.5.5,0,0,0,.5-.459l.443-5.312a.249.249,0,0,1,.249-.229Z"/><circle cx="5.5" cy="3.75" r="3.5"/><path d="M11.169,20.454a.76.76,0,0,0-.164.563.77.77,0,0,0,.308.533l2.877,2.02a.98.98,0,0,0,1.084.032l7.855-4.878A1.869,1.869,0,0,0,24,17.119a1.793,1.793,0,0,0-.105-.6,1.869,1.869,0,0,0-1.35-1.211h0a1.8,1.8,0,0,0-1.41.269l-2,1.365a.25.25,0,0,1-.228.027l-4.653-1.732a.831.831,0,0,0-.782.112L12.586,16a1.138,1.138,0,0,0-.139.13.823.823,0,0,0-.2.6.856.856,0,0,0,.35.611l2.7,1.67a.251.251,0,0,1,.017.414l-.957.709a.25.25,0,0,1-.276.015l-1.17-.69a.782.782,0,0,0-.747.131l-.867.728A1.227,1.227,0,0,0,11.169,20.454Z"/><path d="M10.5,17.75a.5.5,0,0,0,.5-.5v-3.5a5.5,5.5,0,0,0-11,0v3.5a.5.5,0,0,0,.5.5H2.31a.249.249,0,0,1,.249.229L3,23.291a.5.5,0,0,0,.5.459h4a.5.5,0,0,0,.5-.459l.443-5.312a.249.249,0,0,1,.249-.229Z"/><circle cx="5.5" cy="3.75" r="3.5"/><path d="M11.169,20.454a.76.76,0,0,0-.164.563.77.77,0,0,0,.308.533l2.877,2.02a.98.98,0,0,0,1.084.032l7.855-4.878A1.869,1.869,0,0,0,24,17.119a1.793,1.793,0,0,0-.105-.6,1.869,1.869,0,0,0-1.35-1.211h0a1.8,1.8,0,0,0-1.41.269l-2,1.365a.25.25,0,0,1-.228.027l-4.653-1.732a.831.831,0,0,0-.782.112L12.586,16a1.138,1.138,0,0,0-.139.13.823.823,0,0,0-.2.6.856.856,0,0,0,.35.611l2.7,1.67a.251.251,0,0,1,.017.414l-.957.709a.25.25,0,0,1-.276.015l-1.17-.69a.782.782,0,0,0-.747.131l-.867.728A1.227,1.227,0,0,0,11.169,20.454Z"/></svg>