<svg xmlns="http://www.w3.org/2000/svg" viewBox="0 0 24 24"><defs><style>.a{fill:none;stroke:currentColor;stroke-linecap:round;stroke-linejoin:round;}</style></defs><title>direction-button-square</title><path class="a" d="M22.5,21a1,1,0,0,1-1,1H2.5a1,1,0,0,1-1-1V3a1,1,0,0,1,1-1h19a1,1,0,0,1,1,1Z"/><path class="a" d="M17,9.765a.627.627,0,0,1,1.07-.444l2.247,2.247a.628.628,0,0,1,0,.886L18.07,14.7A.627.627,0,0,1,17,14.257Z"/><path class="a" d="M7,9.765a.627.627,0,0,0-1.07-.444L3.683,11.568a.628.628,0,0,0,0,.886L5.93,14.7A.627.627,0,0,0,7,14.257Z"/><path class="a" d="M14.247,16.5a.627.627,0,0,1,.443,1.07l-2.247,2.247a.626.626,0,0,1-.885,0L9.311,17.568a.627.627,0,0,1,.444-1.07Z"/><path class="a" d="M14.247,7.5a.627.627,0,0,0,.443-1.07L12.443,4.181a.626.626,0,0,0-.885,0L9.311,6.428A.627.627,0,0,0,9.755,7.5Z"/></svg>