<?xml version="1.0" encoding="utf-8"?>
<!-- Generator: Adobe Illustrator 22.1.0, SVG Export Plug-In . SVG Version: 6.00 Build 0)  -->
<svg version="1.1" id="Layer_1" xmlns="http://www.w3.org/2000/svg" xmlns:xlink="http://www.w3.org/1999/xlink" x="0px" y="0px"
	 viewBox="0 0 24 24" style="enable-background:new 0 0 24 24;" xml:space="preserve">
<title>music-player</title>
<g>
	<path d="M6.75,21c-1.654,0-3-1.346-3-3s1.346-3,3-3s3,1.346,3,3S8.404,21,6.75,21z M6.75,16.5c-0.827,0-1.5,0.673-1.5,1.5
		s0.673,1.5,1.5,1.5s1.5-0.673,1.5-1.5S7.577,16.5,6.75,16.5z"/>
	<path d="M3.75,10.5C3.336,10.5,3,10.164,3,9.75v-4.5C3,4.836,3.336,4.5,3.75,4.5S4.5,4.836,4.5,5.25v4.5
		C4.5,10.164,4.164,10.5,3.75,10.5z"/>
	<path d="M6.75,10.5C6.336,10.5,6,10.164,6,9.75V7.5c0-0.414,0.336-0.75,0.75-0.75S7.5,7.086,7.5,7.5v2.25
		C7.5,10.164,7.164,10.5,6.75,10.5z"/>
	<path d="M9.75,10.5C9.336,10.5,9,10.164,9,9.75V6c0-0.414,0.336-0.75,0.75-0.75S10.5,5.586,10.5,6v3.75
		C10.5,10.164,10.164,10.5,9.75,10.5z"/>
	<path d="M1.75,24C0.785,24,0,23.215,0,22.25V1.75C0,0.785,0.785,0,1.75,0h10c0.965,0,1.75,0.785,1.75,1.75V19.5h3.75
		c1.241,0,2.25-1.009,2.25-2.25V1.5C19.5,0.673,20.173,0,21,0h1.5C23.327,0,24,0.673,24,1.5v3C24,5.327,23.327,6,22.5,6H21v11.25
		c0,2.068-1.682,3.75-3.75,3.75H13.5v1.25c0,0.965-0.785,1.75-1.75,1.75H1.75z M1.5,22.25c0,0.138,0.112,0.25,0.25,0.25h10
		c0.138,0,0.25-0.112,0.25-0.25V13.5H1.5V22.25z M12,12V1.75c0-0.138-0.112-0.25-0.25-0.25h-10C1.612,1.5,1.5,1.612,1.5,1.75V12H12z
		 M22.5,4.5v-3H21l0,3H22.5z"/>
	<path d="M17.25,5.25c-0.414,0-0.75-0.336-0.75-0.75v-3c0-0.414,0.336-0.75,0.75-0.75S18,1.086,18,1.5v3
		C18,4.914,17.664,5.25,17.25,5.25z"/>
</g>
</svg>
