<?xml version="1.0" encoding="utf-8"?>
<!-- Generator: Adobe Illustrator 22.1.0, SVG Export Plug-In . SVG Version: 6.00 Build 0)  -->
<svg version="1.1" id="Layer_1" xmlns="http://www.w3.org/2000/svg" xmlns:xlink="http://www.w3.org/1999/xlink" x="0px" y="0px"
	 viewBox="0 0 24 24" style="enable-background:new 0 0 24 24;" xml:space="preserve">
<title>portable-player</title>
<g>
	<path d="M6.375,24c-1.447,0-2.625-1.177-2.625-2.625V2.625C3.75,1.178,4.928,0,6.375,0h11.25c1.448,0,2.625,1.178,2.625,2.625
		v18.75c0,1.448-1.177,2.625-2.625,2.625H6.375z M6.375,1.5c-0.62,0-1.125,0.505-1.125,1.125v18.75c0,0.62,0.505,1.125,1.125,1.125
		h11.25c0.62,0,1.125-0.505,1.125-1.125V2.625c0-0.62-0.505-1.125-1.125-1.125H6.375z"/>
	<path d="M12,21c-2.895,0-5.25-2.355-5.25-5.25S9.105,10.5,12,10.5c2.895,0,5.25,2.355,5.25,5.25S14.895,21,12,21z M12,12
		c-2.068,0-3.75,1.682-3.75,3.75S9.932,19.5,12,19.5c2.068,0,3.75-1.682,3.75-3.75S14.068,12,12,12z"/>
	<path d="M12,18c-1.241,0-2.25-1.009-2.25-2.25S10.759,13.5,12,13.5c1.241,0,2.25,1.009,2.25,2.25S13.241,18,12,18z M12,15
		c-0.414,0-0.75,0.336-0.75,0.75S11.586,16.5,12,16.5s0.75-0.336,0.75-0.75S12.414,15,12,15z"/>
	<path d="M7.5,9C7.086,9,6.75,8.664,6.75,8.25v-4.5C6.75,3.336,7.086,3,7.5,3h9c0.414,0,0.75,0.336,0.75,0.75v4.5
		C17.25,8.664,16.914,9,16.5,9H7.5z M15.75,7.5v-3h-7.5v3H15.75z"/>
</g>
</svg>
