<?xml version="1.0" encoding="utf-8"?>
<!-- Generator: Adobe Illustrator 22.1.0, SVG Export Plug-In . SVG Version: 6.00 Build 0)  -->
<svg version="1.1" id="Layer_1" xmlns="http://www.w3.org/2000/svg" xmlns:xlink="http://www.w3.org/1999/xlink" x="0px" y="0px"
	 viewBox="0 0 24 24" style="enable-background:new 0 0 24 24;" xml:space="preserve">
<g>
	<title>headphones-woman</title>
	<path d="M4.5,24c-0.175,0-0.339-0.093-0.429-0.243c-0.09-0.15-0.094-0.339-0.012-0.493c0.843-1.581,2.125-2.862,3.706-3.706
		c1.297-0.692,2.757-1.058,4.22-1.058c3.34,0,6.389,1.825,7.956,4.763c0.082,0.154,0.077,0.343-0.012,0.492
		C19.839,23.907,19.675,24,19.5,24H4.5z M18.615,23c-1.022-1.507-2.529-2.618-4.286-3.153c-0.765-0.233-1.552-0.351-2.34-0.351
		c-1.297,0-2.595,0.327-3.754,0.945c-1.146,0.611-2.124,1.49-2.85,2.559H18.615z"/>
	<path d="M12.005,17.97c-0.083,0-0.165-0.002-0.248-0.006c-2.208-0.101-4.041-1.494-4.76-3.475c-0.102,1.139-0.465,2.245-1.07,3.238
		c-0.092,0.15-0.252,0.24-0.427,0.24l0,0c-0.092,0-0.182-0.025-0.26-0.073c-0.114-0.069-0.194-0.179-0.226-0.309
		c-0.031-0.13-0.01-0.264,0.059-0.378c0.664-1.09,0.993-2.341,0.95-3.616l0-1.609c0-3.296,2.682-5.978,5.977-5.978
		c3.296,0,5.977,2.682,5.977,5.978v1.592c-0.043,1.29,0.286,2.543,0.95,3.633c0.07,0.114,0.091,0.248,0.059,0.378
		c-0.031,0.13-0.112,0.24-0.226,0.309c-0.077,0.048-0.167,0.073-0.26,0.073c-0.176,0-0.335-0.09-0.427-0.24
		c-0.606-0.994-0.969-2.103-1.071-3.251c-0.291,0.798-0.771,1.519-1.407,2.099C14.61,17.475,13.335,17.97,12.005,17.97z
		 M7.721,13.289c0.304,2.051,1.986,3.581,4.082,3.677c0.065,0.003,0.13,0.004,0.195,0.004c1.085,0,2.123-0.402,2.923-1.133
		c0.733-0.669,1.209-1.567,1.357-2.548c-1.62-0.256-3.123-1.021-4.279-2.18C10.844,12.268,9.341,13.034,7.721,13.289z M12,7.004
		c-2.744,0-4.977,2.233-4.978,4.977v0.384c1.771-0.135,3.436-0.97,4.599-2.316C11.714,9.941,11.852,9.879,12,9.879
		s0.286,0.062,0.378,0.169c1.163,1.347,2.827,2.182,4.599,2.316v-0.382C16.977,9.238,14.745,7.005,12,7.004z"/>
	<path d="M4.185,16.487c-0.021,0-0.043-0.001-0.064-0.003c-2.316-0.194-4.128-2.166-4.125-4.49c0.001-1.202,0.471-2.332,1.322-3.181
		C2.044,8.089,2.995,7.638,4.016,7.53C4.26,3.29,7.725,0,12,0c4.275,0,7.74,3.29,7.984,7.53c1.021,0.108,1.972,0.559,2.699,1.284
		c0.851,0.849,1.321,1.979,1.322,3.181c0.003,2.323-1.809,4.295-4.124,4.489c-0.022,0.002-0.044,0.003-0.065,0.003
		c-0.213,0-0.413-0.081-0.565-0.229c-0.159-0.147-0.253-0.365-0.251-0.592V8c0-3.86-3.14-7-7-7S5,4.14,5,8v7.669
		c0.001,0.225-0.094,0.443-0.26,0.598C4.597,16.405,4.393,16.487,4.185,16.487z M4,8.535C3.255,8.64,2.562,8.985,2.023,9.522
		c-0.662,0.66-1.027,1.539-1.028,2.474C0.993,13.734,2.297,15.22,4,15.465V8.535z M20,15.465c1.712-0.254,3.007-1.736,3.005-3.469
		c-0.001-0.935-0.366-1.813-1.028-2.474C21.439,8.985,20.745,8.64,20,8.535V15.465z"/>
</g>
</svg>
