<?xml version="1.0" encoding="utf-8"?>
<!-- Generator: Adobe Illustrator 22.1.0, SVG Export Plug-In . SVG Version: 6.00 Build 0)  -->
<svg version="1.1" id="Layer_1" xmlns="http://www.w3.org/2000/svg" xmlns:xlink="http://www.w3.org/1999/xlink" x="0px" y="0px"
	 viewBox="0 0 24 24" style="enable-background:new 0 0 24 24;" xml:space="preserve">
<g>
	<title>headphones-man</title>
	<path d="M4.5,24c-0.175,0-0.339-0.093-0.429-0.243c-0.09-0.15-0.094-0.339-0.012-0.493c0.843-1.581,2.125-2.862,3.706-3.706
		c1.297-0.692,2.757-1.058,4.22-1.058c3.34,0,6.389,1.825,7.956,4.763c0.082,0.154,0.077,0.343-0.012,0.492
		C19.839,23.907,19.675,24,19.5,24H4.5z M18.615,23c-1.022-1.507-2.529-2.618-4.286-3.153c-0.765-0.233-1.552-0.351-2.34-0.351
		c-1.297,0-2.595,0.327-3.754,0.945c-1.146,0.611-2.124,1.49-2.85,2.559H18.615z"/>
	<path d="M12,17.998c-3.308,0-6-2.692-6-6s2.692-6,6-6s6,2.692,6,6S15.308,17.998,12,17.998z M7.406,10.035
		C7.136,10.66,7,11.318,7,11.998c0,2.757,2.243,5,5,5c2.757,0,5-2.243,5-5c0-0.012,0-0.025,0-0.037
		c-1.01,0.35-2.064,0.528-3.137,0.528C11.492,12.489,9.158,11.599,7.406,10.035z M7.908,9.136c1.588,1.495,3.745,2.349,5.953,2.349
		c1.041,0,2.057-0.184,3.021-0.547c-0.495-2.295-2.517-3.94-4.881-3.94C10.363,6.998,8.848,7.793,7.908,9.136z"/>
	<path d="M19.815,16.487c-0.422,0-0.779-0.329-0.812-0.749C19.002,15.727,19,15.683,19,15.674V8c0-3.86-3.14-7-7-7S5,4.14,5,8v7.674
		c0,0.009-0.002,0.054-0.003,0.063c-0.033,0.421-0.39,0.75-0.811,0.75c-0.022,0-0.043-0.001-0.065-0.002
		c-2.317-0.195-4.128-2.167-4.126-4.49c0.001-1.202,0.471-2.332,1.322-3.181C2.044,8.089,2.995,7.638,4.016,7.53
		C4.26,3.29,7.725,0,12,0c4.275,0,7.74,3.29,7.984,7.53c1.021,0.108,1.972,0.559,2.699,1.284c0.851,0.849,1.321,1.979,1.322,3.181
		c0.003,2.323-1.809,4.295-4.124,4.489C19.858,16.486,19.836,16.487,19.815,16.487z M4,8.535C3.255,8.64,2.562,8.985,2.023,9.522
		c-0.662,0.66-1.027,1.539-1.028,2.474C0.993,13.734,2.298,15.22,4,15.465L4,8.535z M20,15.464c1.709-0.251,3.007-1.734,3.005-3.469
		c-0.001-0.935-0.366-1.813-1.028-2.474C21.439,8.985,20.745,8.64,20,8.535V15.464z"/>
</g>
</svg>
