<?xml version="1.0" encoding="utf-8"?>
<!-- Generator: Adobe Illustrator 22.1.0, SVG Export Plug-In . SVG Version: 6.00 Build 0)  -->
<svg version="1.1" id="Layer_1" xmlns="http://www.w3.org/2000/svg" xmlns:xlink="http://www.w3.org/1999/xlink" x="0px" y="0px"
	 viewBox="0 0 24 24" style="enable-background:new 0 0 24 24;" xml:space="preserve">
<g>
	<title>headphones-1</title>
	<path d="M18.5,22.5c-0.066,0-0.131-0.013-0.192-0.039c-0.06-0.025-0.115-0.061-0.161-0.108l-1.293-1.293
		C16.303,20.51,16,19.778,16,19v-4.5c0-0.783,0.374-1.531,1-2l1.2-0.9c0.024-0.018,0.051-0.033,0.078-0.046
		c0.011-0.007,0.021-0.012,0.033-0.017c0.048-0.02,0.099-0.031,0.151-0.035c0.013-0.002,0.026-0.003,0.037-0.003H20v-1
		c0-4.411-3.589-8-8-8c-4.411,0-8,3.589-8,8v1h1.5c0.011,0,0.024,0.001,0.036,0.003c0.052,0.003,0.104,0.015,0.152,0.035
		c0.013,0.005,0.033,0.016,0.045,0.023C5.749,11.567,5.775,11.581,5.8,11.6L7,12.5c0.626,0.469,1,1.217,1,2V19
		c0,0.778-0.303,1.51-0.854,2.061l-1.293,1.293c-0.045,0.046-0.1,0.083-0.162,0.108C5.629,22.487,5.565,22.5,5.5,22.5h-2
		C2.121,22.5,1,21.378,1,20v-6c0-1.199,0.845-2.215,2-2.449V10.5c0-4.963,4.037-9,9-9s9,4.037,9,9v1.051c1.155,0.234,2,1.25,2,2.449
		v6c0,1.378-1.122,2.5-2.5,2.5H18.5z M20.5,21.5c0.827,0,1.5-0.673,1.5-1.5v-6c0-0.827-0.673-1.5-1.5-1.5H19v9H20.5z M3.5,12.5
		C2.673,12.5,2,13.173,2,14v6c0,0.827,0.673,1.5,1.5,1.5H5v-9H3.5z M17.6,13.3c-0.375,0.282-0.6,0.731-0.6,1.2V19
		c0,0.511,0.199,0.992,0.561,1.354L18,20.793V13L17.6,13.3z M6,20.793l0.439-0.439C6.801,19.992,7,19.511,7,19v-4.5
		c0-0.469-0.224-0.918-0.6-1.2L6,13V20.793z"/>
</g>
</svg>
