<svg id="Light" xmlns="http://www.w3.org/2000/svg" viewBox="0 0 24 24"><defs><style>.cls-1{fill:none;stroke:currentColor;stroke-linecap:round;stroke-linejoin:round;}</style></defs><title>single-man-actions-graduate</title><path class="cls-1" d="M16.381,14.7,9.75,17.337l6.667,2.353a1,1,0,0,0,.666,0l6.038-2.131a.25.25,0,0,0,.009-.468L17.119,14.7A1,1,0,0,0,16.381,14.7Z"/><line class="cls-1" x1="9.75" y1="17.337" x2="9.75" y2="21"/><path class="cls-1" d="M12.75,18.4V21.55a.75.75,0,0,0,.471.7l3.25,1.2a.748.748,0,0,0,.558,0l3.25-1.2a.75.75,0,0,0,.471-.7V18.4"/><path class="cls-1" d="M7.75,16.5h-7c.423-2.286.353-3.58,1.609-4.118L6.75,10.5v-2S5.805,8.15,5.805,6c-.981,0-.981-2,0-2,0-.288-1.644-2.43.422-2,.491-2,5.331-2,5.822,0a2.63,2.63,0,0,1-.44,2c.951,0,.691,2,.007,2,0,2.15-.866,2.5-.866,2.5v2l4.391,1.882a1.949,1.949,0,0,1,.254.13"/></svg>