<svg id="Light" xmlns="http://www.w3.org/2000/svg" viewBox="0 0 24 24"><defs><style>.cls-1{fill:none;stroke:currentColor;stroke-linecap:round;stroke-linejoin:round;}</style></defs><title>single-man-actions-key</title><path class="cls-1" d="M16.405,20.231a1.25,1.25,0,1,1,0-1.768A1.251,1.251,0,0,1,16.405,20.231Z"/><path class="cls-1" d="M19.048,17.942l4.305-4.295a.5.5,0,0,0,.147-.354V12a.5.5,0,0,0-.5-.5H21.7a.5.5,0,0,0-.344.137l-4.429,4.184a4,4,0,1,0,2.122,2.121Z"/><path class="cls-1" d="M10,16.5H.5c.423-2.286.353-3.58,1.609-4.118L6.5,10.5v-2S5.555,8.15,5.555,6c-.981,0-.981-2,0-2,0-.288-1.644-2.43.422-2,.491-2,5.331-2,5.822,0a2.63,2.63,0,0,1-.44,2c.951,0,.691,2,.007,2,0,2.15-.866,2.5-.866,2.5v2l4.391,1.882a1.782,1.782,0,0,1,1.018,1.1"/></svg>