<svg id="Light" xmlns="http://www.w3.org/2000/svg" viewBox="0 0 24 24"><defs><style>.cls-1{fill:none;stroke:currentColor;stroke-linecap:round;stroke-linejoin:round;}</style></defs><title>single-man-actions-share-1</title><line class="cls-1" x1="0.5" y1="15.5" x2="0.5" y2="23.5"/><path class="cls-1" d="M15.5,22.5a3,3,0,0,0-3-3H8.75a3,3,0,0,0-3-3H.5v6Z"/><line class="cls-1" x1="5.75" y1="19.5" x2="8.75" y2="19.5"/><path class="cls-1" d="M7.824,14.548c.2-1.108.445-1.806,1.285-2.166L13.5,10.5v-2s-.945-.35-.945-2.5c-.981,0-.981-2,0-2,0-.288-1.644-2.43.422-2,.491-2,5.331-2,5.822,0a2.63,2.63,0,0,1-.44,2c.951,0,.691,2,.007,2,0,2.15-.866,2.5-.866,2.5v2l4.391,1.882c1.253.537,1.184,1.819,1.609,4.118h-13"/></svg>