<svg id="Light" xmlns="http://www.w3.org/2000/svg" viewBox="0 0 24 24"><defs><style>.cls-1{fill:none;stroke:currentColor;stroke-linecap:round;stroke-linejoin:round;}</style></defs><title>single-man-actions-share-2</title><circle class="cls-1" cx="13.75" cy="18.25" r="2.25"/><circle class="cls-1" cx="21.25" cy="21.25" r="2.25"/><circle class="cls-1" cx="21.25" cy="13.75" r="2.25"/><line class="cls-1" x1="15.675" y1="17.095" x2="19.325" y2="14.905"/><line class="cls-1" x1="15.838" y1="19.085" x2="19.162" y2="20.415"/><path class="cls-1" d="M9.5,16.5H.5c.423-2.286.353-3.58,1.609-4.118L6.5,10.5v-2S5.555,8.15,5.555,6c-.981,0-.981-2,0-2,0-.288-1.644-2.43.422-2,.491-2,5.331-2,5.822,0a2.63,2.63,0,0,1-.44,2c.951,0,.691,2,.007,2,0,2.15-.866,2.5-.866,2.5v2l4.391,1.882A1.9,1.9,0,0,1,16,13.774"/></svg>