<svg id="Light" xmlns="http://www.w3.org/2000/svg" viewBox="0 0 24 24"><defs><style>.cls-1{fill:none;stroke:currentColor;stroke-linecap:round;stroke-linejoin:round;}</style></defs><title>single-man-actions-address</title><path class="cls-1" d="M9,16.5H.5c.423-2.286.353-3.58,1.609-4.118L6.5,10.5v-2S5.555,8.15,5.555,6c-.981,0-.981-2,0-2,0-.288-1.644-2.43.422-2,.491-2,5.331-2,5.822,0a2.63,2.63,0,0,1-.44,2c.951,0,.691,2,.007,2,0,2.15-.866,2.5-.866,2.5v2l1.5.643"/><circle class="cls-1" cx="17.5" cy="17.5" r="2.25"/><path class="cls-1" d="M19.75,17.5v1.125A1.874,1.874,0,0,0,21.625,20.5h0A1.874,1.874,0,0,0,23.5,18.625v-.847A6.185,6.185,0,0,0,17.655,11.5a6,6,0,0,0-1.577,11.835,6.14,6.14,0,0,0,2.966-.038"/></svg>