<svg id="Light" xmlns="http://www.w3.org/2000/svg" viewBox="0 0 24 24"><defs><style>.cls-1{fill:none;stroke:currentColor;stroke-linecap:round;stroke-linejoin:round;}</style></defs><title>single-man-actions-edit-2</title><path class="cls-1" d="M22.881,15.257,15.357,22.78a.506.506,0,0,1-.255.137l-2.867.573a.5.5,0,0,1-.588-.588l.573-2.866a.505.505,0,0,1,.137-.256l7.524-7.523a2.115,2.115,0,0,1,2.991,0l.009.008A2.118,2.118,0,0,1,22.881,15.257Z"/><path class="cls-1" d="M12.5,16.637H.5c.423-2.286.353-3.58,1.609-4.118L6.5,10.637v-2s-.945-.35-.945-2.5c-.981,0-.981-2,0-2,0-.288-1.644-2.43.422-2,.491-2,5.331-2,5.822,0a2.63,2.63,0,0,1-.44,2c.951,0,.691,2,.007,2,0,2.15-.866,2.5-.866,2.5v2l4.391,1.882a1.714,1.714,0,0,1,.771.617"/></svg>