<svg id="Light" xmlns="http://www.w3.org/2000/svg" viewBox="0 0 24 24"><defs><style>.cls-1{fill:none;stroke:currentColor;stroke-linecap:round;stroke-linejoin:round;}</style></defs><title>single-man-actions-information</title><path class="cls-1" d="M9,16.5H.5c.423-2.286.353-3.579,1.609-4.118L6.5,10.5v-2S5.555,8.151,5.555,6c-.981,0-.981-2,0-2,0-.288-1.644-2.429.422-2,.491-2,5.331-2,5.822,0a2.628,2.628,0,0,1-.44,2c.951,0,.691,2,.007,2,0,2.151-.866,2.5-.866,2.5v2l1.5.643"/><g id="_Group_" data-name="&lt;Group&gt;"><circle class="cls-1" cx="17.5" cy="17.5" r="6"/><path class="cls-1" d="M17.5,20.5V17a.5.5,0,0,0-.5-.5H16"/><path class="cls-1" d="M16.75,14a.25.25,0,1,1-.25.25.25.25,0,0,1,.25-.25"/><line class="cls-1" x1="16" y1="20.5" x2="19" y2="20.5"/></g></svg>