<?xml version="1.0" encoding="utf-8"?>
<!-- Generator: Adobe Illustrator 22.1.0, SVG Export Plug-In . SVG Version: 6.00 Build 0)  -->
<svg version="1.1" id="Layer_1" xmlns="http://www.w3.org/2000/svg" xmlns:xlink="http://www.w3.org/1999/xlink" x="0px" y="0px"
	 viewBox="0 0 24 24" style="enable-background:new 0 0 24 24;" xml:space="preserve">
<g>
	<title>search-1</title>
	<path d="M23.5,24c-0.134,0-0.259-0.052-0.354-0.146l-5.589-5.589C15.617,20.031,13.121,21,10.5,21C4.71,21,0,16.29,0,10.5
		C0,4.71,4.71,0,10.5,0C16.29,0,21,4.71,21,10.5c0,2.621-0.969,5.117-2.736,7.057l5.589,5.589C23.948,23.241,24,23.366,24,23.5
		s-0.052,0.259-0.146,0.354S23.634,24,23.5,24z M10.5,1C5.262,1,1,5.262,1,10.5S5.262,20,10.5,20s9.5-4.262,9.5-9.5S15.738,1,10.5,1
		z"/>
</g>
</svg>
