<?xml version="1.0" encoding="utf-8"?>
<!-- Generator: Adobe Illustrator 22.1.0, SVG Export Plug-In . SVG Version: 6.00 Build 0)  -->
<svg version="1.1" id="Layer_1" xmlns="http://www.w3.org/2000/svg" xmlns:xlink="http://www.w3.org/1999/xlink" x="0px" y="0px"
	 viewBox="0 0 24 24" style="enable-background:new 0 0 24 24;" xml:space="preserve">
<g>
	<title>search-circle</title>
	<path d="M18,18.5c-0.134,0-0.259-0.052-0.354-0.146l-2.899-2.899c-1.017,0.852-2.29,1.319-3.611,1.319
		c-3.108,0-5.637-2.529-5.637-5.637C5.5,8.029,8.029,5.5,11.137,5.5c3.108,0,5.637,2.529,5.637,5.637
		c0,1.321-0.467,2.594-1.319,3.611l2.899,2.899C18.448,17.741,18.5,17.866,18.5,18s-0.052,0.259-0.146,0.354S18.134,18.5,18,18.5z
		 M11.137,6.5C8.58,6.5,6.5,8.58,6.5,11.137s2.08,4.637,4.637,4.637s4.637-2.08,4.637-4.637S13.694,6.5,11.137,6.5z"/>
	<path d="M12,24C5.383,24,0,18.617,0,12C0,5.383,5.383,0,12,0c6.617,0,12,5.383,12,12C24,18.617,18.617,24,12,24z M12,1
		C5.935,1,1,5.935,1,12s4.935,11,11,11s11-4.935,11-11S18.065,1,12,1z"/>
</g>
</svg>
