<svg xmlns="http://www.w3.org/2000/svg" viewBox="0 0 24 24"><defs><style>.a{fill:none;stroke:currentColor;stroke-linecap:round;stroke-linejoin:round;}</style></defs><title>image-file-upload</title><circle class="a" cx="6.5" cy="7.5" r="2"/><path class="a" d="M12.3,10.785l-.379-.607a.5.5,0,0,0-.848,0L8.438,14.4,7.362,12.678a.5.5,0,0,0-.848,0L3.5,17.5h5"/><path class="a" d="M9.5,23.5h-8a1,1,0,0,1-1-1V1.5a1,1,0,0,1,1-1H14.793A1,1,0,0,1,15.5.793L19.207,4.5a1,1,0,0,1,.293.707V8.5"/><circle class="a" cx="17.5" cy="17.5" r="6"/><line class="a" x1="17.5" y1="20.5" x2="17.5" y2="14.5"/><line class="a" x1="17.5" y1="14.5" x2="15.25" y2="16.75"/><line class="a" x1="17.5" y1="14.5" x2="19.75" y2="16.75"/></svg>