<svg xmlns="http://www.w3.org/2000/svg" viewBox="0 0 24 24"><defs><style>.a{fill:none;stroke:currentColor;stroke-linecap:round;stroke-linejoin:round;}</style></defs><title>image-file-lock</title><rect class="a" x="14.5" y="15.501" width="9" height="7.999" rx="1" ry="1"/><circle class="a" cx="19" cy="19.563" r="1.25"/><path class="a" d="M21.5,14a2.5,2.5,0,0,0-5,0v1.5h5Z"/><circle class="a" cx="6.5" cy="7.5" r="2"/><path class="a" d="M13.361,12.478l-1.437-2.3a.5.5,0,0,0-.848,0L8.438,14.4,7.362,12.678a.5.5,0,0,0-.848,0L3.5,17.5h8"/><path class="a" d="M11.5,23.5H1.5a1,1,0,0,1-1-1V1.5a1,1,0,0,1,1-1H14.793A1,1,0,0,1,15.5.793L19.207,4.5a1,1,0,0,1,.293.707V8.5"/></svg>