<svg xmlns="http://www.w3.org/2000/svg" viewBox="0 0 24 24"><defs><style>.a{fill:none;stroke:currentColor;stroke-linecap:round;stroke-linejoin:round;}</style></defs><title>image-document-svg</title><rect class="a" x="0.5" y="5" width="23" height="14" rx="1" ry="1"/><path class="a" d="M8.5,9H6.8a1.3,1.3,0,0,0-.723,2.387l1.84,1.226A1.3,1.3,0,0,1,7.2,15H5.5"/><path class="a" d="M13.5,9v1.5A7.5,7.5,0,0,1,12,15a7.5,7.5,0,0,1-1.5-4.5V9"/><path class="a" d="M18.5,11v-.5a1.5,1.5,0,0,0-3,0v3a1.5,1.5,0,0,0,3,0V13h-1"/></svg>