<svg xmlns="http://www.w3.org/2000/svg" viewBox="0 0 24 24"><defs><style>.a{fill:none;stroke:currentColor;stroke-linecap:round;stroke-linejoin:round;}</style></defs><title>image-file-sync</title><ellipse class="a" cx="6.577" cy="7.5" rx="2.026" ry="2"/><path class="a" d="M12.7,11.17l-.628-.992a.51.51,0,0,0-.859,0L8.54,14.4,7.45,12.678a.51.51,0,0,0-.859,0L3.539,17.5H8.5"/><path class="a" d="M8.391,23.5H1.513A1.006,1.006,0,0,1,.5,22.5V1.5A1.006,1.006,0,0,1,1.513.5H14.732a1.015,1.015,0,0,1,.716.293L19.2,4.5a1,1,0,0,1,.3.707V9.5"/><polyline class="a" points="15 18.5 11.5 18.5 11.5 22"/><path class="a" d="M22.917,19.733A5.572,5.572,0,0,1,12.1,18.5"/><polyline class="a" points="20 16.5 23.5 16.5 23.5 13"/><path class="a" d="M12.083,15.267A5.572,5.572,0,0,1,22.9,16.5"/></svg>