<svg xmlns="http://www.w3.org/2000/svg" viewBox="0 0 24 24"><defs><style>.a{fill:none;stroke:currentColor;stroke-linecap:round;stroke-linejoin:round;stroke-width:1.5px;}</style></defs><title>laptop-home</title><path class="a" d="M22.371,19.228A1.226,1.226,0,0,1,21.273,21H2.727a1.225,1.225,0,0,1-1.1-1.775L3,15l18,0Z"/><path class="a" d="M19.5,3A1.5,1.5,0,0,1,21,4.5V15H3.006V4.5A1.5,1.5,0,0,1,4.506,3"/><line class="a" x1="11.25" y1="18.001" x2="12.75" y2="18.001"/><path class="a" d="M7.5,6.2v4.3A1.5,1.5,0,0,0,9,12h6a1.5,1.5,0,0,0,1.5-1.5V6.2"/><path class="a" d="M6,7.514,10.518,3.56a2.252,2.252,0,0,1,2.964,0L18,7.514"/><path class="a" d="M13.5,12h-3V9a1.5,1.5,0,0,1,3,0Z"/></svg>