<?xml version="1.0" encoding="utf-8"?>
<!-- Generator: Adobe Illustrator 22.1.0, SVG Export Plug-In . SVG Version: 6.00 Build 0)  -->
<svg version="1.1" id="Layer_1" xmlns="http://www.w3.org/2000/svg" xmlns:xlink="http://www.w3.org/1999/xlink" x="0px" y="0px"
	 viewBox="0 0 24 24" style="enable-background:new 0 0 24 24;" xml:space="preserve">
<title>monitor-sync</title>
<g>
	<path d="M6,21.002c-0.414,0-0.75-0.336-0.75-0.75s0.336-0.75,0.75-0.75h1.615l0.5-3H3.75c-2.068,0-3.75-1.682-3.75-3.75v-9
		c0-2.068,1.682-3.75,3.75-3.75h16.5c2.068,0,3.75,1.682,3.75,3.75v4.5c0,0.414-0.336,0.75-0.75,0.75s-0.75-0.336-0.75-0.75v-4.5
		c0-1.241-1.009-2.25-2.25-2.25H3.75c-1.241,0-2.25,1.009-2.25,2.25v8.25h8.25c0.414,0,0.75,0.336,0.75,0.75s-0.336,0.75-0.75,0.75
		H1.632c0.313,0.879,1.158,1.5,2.118,1.5H9c0.017,0,0.055,0.003,0.072,0.005c0.001,0,0.002,0,0.003,0
		c0.008,0,0.026,0.002,0.044,0.004c0.011,0.002,0.023,0.004,0.034,0.007c0.015,0.003,0.038,0.01,0.061,0.017
		c0.025,0.007,0.044,0.013,0.062,0.02c0.029,0.012,0.048,0.022,0.067,0.032c0.029,0.015,0.049,0.026,0.068,0.038
		c0.011,0.007,0.04,0.029,0.05,0.037c0.027,0.021,0.045,0.036,0.061,0.052c0.01,0.01,0.036,0.038,0.044,0.049
		c0.021,0.025,0.036,0.042,0.048,0.061c0.012,0.017,0.025,0.038,0.036,0.06c0.015,0.027,0.026,0.047,0.035,0.069
		c0.007,0.015,0.015,0.037,0.022,0.06c0.011,0.032,0.018,0.055,0.023,0.078c0.003,0.014,0.009,0.052,0.01,0.066
		c0.003,0.022,0.005,0.042,0.006,0.062c0.001,0.012,0.002,0.023,0.002,0.034c0,0.024-0.002,0.048-0.005,0.071
		c0.001,0.006-0.001,0.029-0.005,0.052l-0.75,4.5c-0.002,0.012-0.005,0.024-0.008,0.035c-0.015,0.069-0.04,0.134-0.073,0.197
		c-0.003,0.006-0.016,0.029-0.02,0.035c-0.039,0.063-0.087,0.121-0.144,0.171c-0.004,0.003-0.023,0.019-0.027,0.022
		c-0.063,0.05-0.128,0.087-0.197,0.115c-0.011,0.004-0.034,0.011-0.046,0.015c-0.066,0.023-0.143,0.036-0.222,0.037
		c-0.001,0-0.001,0-0.002,0H6z"/>
	<path d="M17.4,24.006c-0.695,0-1.385-0.116-2.052-0.344c-1.419-0.486-2.592-1.442-3.348-2.686v1.525c0,0.414-0.336,0.75-0.75,0.75
		s-0.75-0.336-0.75-0.75v-3.75c0-0.414,0.336-0.75,0.75-0.75H15c0.414,0,0.75,0.336,0.75,0.75s-0.336,0.75-0.75,0.75h-2.067
		c0.524,1.283,1.579,2.289,2.9,2.741c0.509,0.174,1.036,0.262,1.566,0.262c0.735,0,1.448-0.167,2.117-0.495
		c1.157-0.567,2.023-1.551,2.44-2.769c0.104-0.303,0.389-0.508,0.709-0.508c0.083,0,0.166,0.014,0.245,0.041
		c0.188,0.064,0.341,0.199,0.429,0.379c0.088,0.18,0.101,0.384,0.036,0.573c-0.547,1.598-1.683,2.887-3.199,3.63
		C19.3,23.788,18.365,24.006,17.4,24.006z"/>
	<path d="M19.5,16.502c-0.414,0-0.75-0.336-0.75-0.75s0.336-0.75,0.75-0.75h2.067c-0.524-1.283-1.579-2.289-2.9-2.741
		c-0.504-0.172-1.028-0.26-1.557-0.26c-2.064,0-3.899,1.311-4.567,3.261c-0.104,0.304-0.389,0.508-0.709,0.508
		c-0.083,0-0.166-0.014-0.245-0.041c-0.188-0.064-0.341-0.199-0.429-0.379c-0.088-0.18-0.101-0.383-0.036-0.573
		c0.875-2.557,3.281-4.276,5.987-4.276c0.694,0,1.38,0.115,2.041,0.341c1.419,0.486,2.592,1.442,3.348,2.686v-1.525
		c0-0.414,0.336-0.75,0.75-0.75S24,11.589,24,12.002v3.75c0,0.414-0.336,0.75-0.75,0.75H19.5z"/>
</g>
</svg>
