<?xml version="1.0" encoding="utf-8"?>
<!-- Generator: Adobe Illustrator 22.1.0, SVG Export Plug-In . SVG Version: 6.00 Build 0)  -->
<svg version="1.1" id="Layer_1" xmlns="http://www.w3.org/2000/svg" xmlns:xlink="http://www.w3.org/1999/xlink" x="0px" y="0px"
	 viewBox="0 0 24 24" style="enable-background:new 0 0 24 24;" xml:space="preserve">
<title>monitor-share</title>
<g>
	<path d="M6,21c-0.414,0-0.75-0.336-0.75-0.75S5.586,19.5,6,19.5h1.615l0.5-3H3.75C1.682,16.5,0,14.818,0,12.75v-9
		C0,1.682,1.682,0,3.75,0h16.5C22.318,0,24,1.682,24,3.75v4.5C24,8.664,23.664,9,23.25,9S22.5,8.664,22.5,8.25v-4.5
		c0-1.241-1.009-2.25-2.25-2.25H3.75C2.509,1.5,1.5,2.509,1.5,3.75V12h13.633c0.414,0,0.75,0.336,0.75,0.75s-0.336,0.75-0.75,0.75
		H1.632C1.945,14.379,2.79,15,3.75,15H9c0.017,0,0.055,0.003,0.072,0.005c0.001,0,0.002,0,0.003,0c0.008,0,0.027,0.002,0.046,0.005
		c0.01,0.002,0.022,0.004,0.033,0.007c0.015,0.003,0.038,0.01,0.061,0.017c0.025,0.007,0.044,0.013,0.062,0.02
		c0.029,0.012,0.048,0.022,0.067,0.032c0.029,0.015,0.049,0.026,0.068,0.038c0.011,0.007,0.04,0.029,0.05,0.037
		c0.027,0.021,0.045,0.036,0.061,0.052c0.01,0.01,0.036,0.038,0.044,0.049c0.021,0.025,0.036,0.042,0.048,0.061
		c0.012,0.017,0.025,0.038,0.036,0.06c0.015,0.027,0.026,0.047,0.035,0.069c0.007,0.015,0.015,0.037,0.022,0.06
		c0.011,0.032,0.018,0.055,0.023,0.078c0.003,0.014,0.009,0.052,0.01,0.066c0.003,0.022,0.005,0.042,0.006,0.062
		c0.001,0.012,0.002,0.023,0.002,0.034c0,0.024-0.002,0.048-0.005,0.071c0.001,0.006-0.001,0.029-0.005,0.052l-0.606,3.638
		c0.35,0.063,0.617,0.37,0.617,0.738C9.75,20.664,9.414,21,9,21H6z"/>
	<path d="M21,24c-1.654,0-3-1.346-3-3c0-0.125,0.009-0.253,0.026-0.382l-2.111-0.845C15.353,20.537,14.454,21,13.5,21
		c-1.654,0-3-1.346-3-3s1.346-3,3-3c0.794,0,1.544,0.311,2.104,0.863l2.52-1.512C18.041,14.076,18,13.791,18,13.5
		c0-1.654,1.346-3,3-3s3,1.346,3,3c0,1.654-1.346,3-3,3c-0.794,0-1.544-0.311-2.104-0.863l-2.52,1.512
		C16.459,17.424,16.5,17.709,16.5,18c0,0.125-0.009,0.253-0.026,0.382l2.111,0.845C19.147,18.463,20.046,18,21,18
		c1.654,0,3,1.346,3,3S22.654,24,21,24z M21,19.5c-0.615,0-1.161,0.371-1.392,0.944C19.536,20.623,19.5,20.81,19.5,21
		c0,0.827,0.673,1.5,1.5,1.5s1.5-0.673,1.5-1.5S21.827,19.5,21,19.5z M13.5,16.5c-0.827,0-1.5,0.673-1.5,1.5s0.673,1.5,1.5,1.5
		c0.615,0,1.161-0.371,1.392-0.944C14.964,18.377,15,18.19,15,18c0-0.257-0.068-0.511-0.196-0.737
		c-0.008-0.011-0.015-0.021-0.021-0.031c-0.009-0.015-0.016-0.028-0.021-0.04C14.493,16.764,14.019,16.5,13.5,16.5z M19.738,14.306
		C20.006,14.735,20.481,15,21,15c0.827,0,1.5-0.673,1.5-1.5S21.827,12,21,12s-1.5,0.673-1.5,1.5c0,0.256,0.067,0.509,0.195,0.734
		c0.006,0.008,0.017,0.023,0.026,0.04C19.726,14.282,19.732,14.295,19.738,14.306z"/>
</g>
</svg>
