<svg xmlns="http://www.w3.org/2000/svg" viewBox="0 0 24 24"><title>video-player-movie</title><path d="M23.75,18a.25.25,0,0,0,.25-.25V6.25A.25.25,0,0,0,23.75,6H.25A.25.25,0,0,0,0,6.25v11.5A.25.25,0,0,0,.25,18ZM8.877,8.98a.482.482,0,0,1,.72-.417l5.283,3.019a.482.482,0,0,1,0,.836L9.6,15.437a.482.482,0,0,1-.72-.417Z"/><path d="M23.75,5A.25.25,0,0,0,24,4.75V4.5A2.5,2.5,0,0,0,21.5,2H2.5A2.5,2.5,0,0,0,0,4.5v.25A.25.25,0,0,0,.25,5Z"/><path d="M.25,19a.25.25,0,0,0-.25.25v.25A2.5,2.5,0,0,0,2.5,22h19A2.5,2.5,0,0,0,24,19.5v-.25a.25.25,0,0,0-.25-.25Z"/></svg>