<?xml version="1.0" encoding="utf-8"?>
<!-- Generator: Adobe Illustrator 22.1.0, SVG Export Plug-In . SVG Version: 6.00 Build 0)  -->
<svg version="1.1" id="Layer_1" xmlns="http://www.w3.org/2000/svg" xmlns:xlink="http://www.w3.org/1999/xlink" x="0px" y="0px"
	 viewBox="0 0 24 24" style="enable-background:new 0 0 24 24;" xml:space="preserve">
<g>
	<title>attachment-1</title>
	<path d="M10.5,24C7.85,24,6,21.944,6,19V6.5C6,2.734,8.523,0,12,0c3.477,0,6,2.734,6,6.5v9c0,0.276-0.224,0.5-0.5,0.5
		S17,15.776,17,15.5v-9C17,3.313,14.897,1,12,1S7,3.313,7,6.5V19c0,2.355,1.439,4,3.5,4s3.5-1.645,3.5-4V9.5C14,8.914,13.856,7,12,7
		s-2,1.914-2,2.5V17c0,0.276-0.224,0.5-0.5,0.5S9,17.276,9,17V9.5C9,7.374,10.178,6,12,6c1.823,0,3,1.374,3,3.5V19
		C15,21.944,13.149,24,10.5,24z"/>
</g>
</svg>
