<svg xmlns="http://www.w3.org/2000/svg" viewBox="0 0 24 24"><defs><style>.a{fill:none;stroke:currentColor;stroke-linecap:round;stroke-linejoin:round;}</style></defs><title>notes-cash</title><path class="a" d="M9.5,20.5h-8a1,1,0,0,1-1-1V3.5a1,1,0,0,1,1-1h14a1,1,0,0,1,1,1v5"/><line class="a" x1="4.5" y1="4.5" x2="4.5" y2="0.5"/><line class="a" x1="8.5" y1="4.5" x2="8.5" y2="0.5"/><line class="a" x1="12.5" y1="4.5" x2="12.5" y2="0.5"/><path class="a" d="M19,14.5H16.967a1.342,1.342,0,0,0-.5,2.587l2.064.826a1.342,1.342,0,0,1-.5,2.587H16"/><line class="a" x1="17.5" y1="21.5" x2="17.5" y2="20.5"/><line class="a" x1="17.5" y1="14.5" x2="17.5" y2="13.5"/><circle class="a" cx="17.5" cy="17.5" r="6"/></svg>