<svg xmlns="http://www.w3.org/2000/svg" viewBox="0 0 24 24"><defs><style>.a{fill:none;stroke:currentColor;stroke-linecap:round;stroke-linejoin:round;}</style></defs><title>notes-settings</title><path class="a" d="M9.5,20.5h-8a1,1,0,0,1-1-1V3.5a1,1,0,0,1,1-1h14a1,1,0,0,1,1,1v4"/><line class="a" x1="4.5" y1="4.5" x2="4.5" y2="0.5"/><line class="a" x1="8.5" y1="4.5" x2="8.5" y2="0.5"/><line class="a" x1="12.5" y1="4.5" x2="12.5" y2="0.5"/><circle class="a" cx="17.75" cy="17.031" r="1.437"/><path class="a" d="M18.971,11.47l.424,1.392a.951.951,0,0,0,1.124.653l1.412-.327a1.283,1.283,0,0,1,1.221,2.126l-.988,1.065a.96.96,0,0,0,0,1.3l.988,1.065a1.283,1.283,0,0,1-1.221,2.126l-1.412-.328A.953.953,0,0,0,19.4,21.2l-.424,1.392a1.275,1.275,0,0,1-2.442,0L16.105,21.2a.953.953,0,0,0-1.124-.653l-1.412.328a1.283,1.283,0,0,1-1.221-2.126l.988-1.065a.96.96,0,0,0,0-1.3l-.988-1.065a1.283,1.283,0,0,1,1.221-2.126l1.412.327a.951.951,0,0,0,1.124-.653l.424-1.392A1.275,1.275,0,0,1,18.971,11.47Z"/></svg>