<svg xmlns="http://www.w3.org/2000/svg" viewBox="0 0 24 24"><defs><style>.a{fill:none;stroke:currentColor;stroke-linecap:round;stroke-linejoin:round;}</style></defs><title>notes-edit</title><path class="a" d="M9.009,20.494h-7.5a1,1,0,0,1-1-1v-16a1,1,0,0,1,1-1h14a1,1,0,0,1,1,1v7.5"/><line class="a" x1="4.509" y1="4.494" x2="4.509" y2="0.494"/><line class="a" x1="8.509" y1="4.494" x2="8.509" y2="0.494"/><line class="a" x1="12.509" y1="4.494" x2="12.509" y2="0.494"/><path class="a" d="M22.889,15.114l-7.63,7.63-3.75.75.75-3.75,7.63-7.63a2.115,2.115,0,0,1,2.991,0l.009.008A2.116,2.116,0,0,1,22.889,15.114Z"/></svg>