<svg xmlns="http://www.w3.org/2000/svg" viewBox="0 0 24 24"><defs><style>.a{fill:none;stroke:currentColor;stroke-linecap:round;stroke-linejoin:round;}</style></defs><title>earpods-remove</title><circle class="a" cx="17.5" cy="17.5" r="6"/><line class="a" x1="19.621" y1="15.379" x2="15.379" y2="19.621"/><line class="a" x1="19.621" y1="19.621" x2="15.379" y2="15.379"/><path class="a" d="M6,8.5A1.5,1.5,0,0,1,7.5,10"/><path class="a" d="M3.25,5.25A.25.25,0,1,1,3,5.5a.25.25,0,0,1,.25-.25"/><path class="a" d="M10.5,12V5.5A5.268,5.268,0,0,0,5,.5,5.711,5.711,0,0,0,.759,2.322,1,1,0,0,0,.5,2.993V8.007a1,1,0,0,0,.259.671A5.711,5.711,0,0,0,5,10.5,5.9,5.9,0,0,0,7.5,10V22.5a1,1,0,0,0,1,1h1a1,1,0,0,0,1-1v-1"/><path class="a" d="M18,8.5a1.5,1.5,0,0,0-1.433,1.054"/><path class="a" d="M20.75,5.25A.25.25,0,1,0,21,5.5a.25.25,0,0,0-.25-.25"/><path class="a" d="M20.819,10.219a5.542,5.542,0,0,0,2.422-1.541,1,1,0,0,0,.259-.671V2.993a1,1,0,0,0-.259-.671A5.711,5.711,0,0,0,19,.5a5.268,5.268,0,0,0-5.5,5v5"/></svg>