<svg xmlns="http://www.w3.org/2000/svg" viewBox="0 0 24 24"><defs><style>.a{fill:none;stroke:currentColor;stroke-linecap:round;stroke-linejoin:round;}</style></defs><title>earpods-charge</title><path class="a" d="M4.5.5A5.213,5.213,0,0,0,.791,2,1,1,0,0,0,.5,2.709V7.291A1,1,0,0,0,.791,8,5.213,5.213,0,0,0,4.5,9.5a5.325,5.325,0,0,0,3-.92V12.5h2V5A4.77,4.77,0,0,0,4.5.5Z"/><path class="a" d="M2.5,12.5h19a0,0,0,0,1,0,0v7a4,4,0,0,1-4,4H6.5a4,4,0,0,1-4-4v-7A0,0,0,0,1,2.5,12.5Z"/><path class="a" d="M3,4.75A.25.25,0,1,1,2.75,5,.25.25,0,0,1,3,4.75"/><path class="a" d="M19.5.5A5.213,5.213,0,0,1,23.209,2a1,1,0,0,1,.291.705V7.291A1,1,0,0,1,23.209,8,5.213,5.213,0,0,1,19.5,9.5a5.325,5.325,0,0,1-3-.92V12.5h-2V5A4.77,4.77,0,0,1,19.5.5Z"/><path class="a" d="M21,4.75a.25.25,0,1,0,.25.25A.25.25,0,0,0,21,4.75"/><path class="a" d="M12.5,13.5,8.56,18.088a.248.248,0,0,0-.037.267.251.251,0,0,0,.227.145H10.5v4l3.941-4.588a.25.25,0,0,0-.191-.412H12.5Z"/></svg>