<?xml version="1.0" encoding="utf-8"?>
<!-- Generator: Adobe Illustrator 22.1.0, SVG Export Plug-In . SVG Version: 6.00 Build 0)  -->
<svg version="1.1" id="Layer_1" xmlns="http://www.w3.org/2000/svg" xmlns:xlink="http://www.w3.org/1999/xlink" x="0px" y="0px"
	 viewBox="0 0 24 24" style="enable-background:new 0 0 24 24;" xml:space="preserve">
<g>
	<title>code-write</title>
	<path d="M12.498,24c-0.134,0-0.259-0.052-0.354-0.146c-0.128-0.128-0.177-0.316-0.127-0.491l1-3.5
		c0.004-0.014,0.013-0.038,0.02-0.051l0.005-0.013c0.027-0.061,0.06-0.111,0.102-0.153l7.147-7.148
		c0.188-0.189,0.439-0.293,0.706-0.293c0.268,0,0.519,0.104,0.708,0.292l1.793,1.793c0.385,0.385,0.39,1.015,0.01,1.405
		c0,0-7.154,7.156-7.157,7.159c-0.009,0.009-0.021,0.019-0.032,0.027c-0.031,0.026-0.067,0.049-0.106,0.068
		c-0.022,0.01-0.037,0.017-0.053,0.022c-0.013,0.006-0.012,0.006-0.026,0.01l-3.498,1C12.59,23.994,12.544,24,12.498,24z
		 M13.226,22.772l1.817-0.519l-1.298-1.298L13.226,22.772z M15.997,21.793l4.794-4.795l-1.793-1.793L14.204,20L15.997,21.793z
		 M21.498,16.292l1.287-1.287l-1.788-1.799l-1.293,1.293L21.498,16.292z"/>
	<path d="M1.498,24c-0.827,0-1.5-0.673-1.5-1.5v-21c0-0.827,0.673-1.5,1.5-1.5h9.586c0.207,0,0.411,0.044,0.605,0.13
		c0.009,0.004,0.034,0.017,0.043,0.022c0.152,0.071,0.295,0.17,0.413,0.288l5.414,5.414c0.118,0.118,0.218,0.261,0.294,0.425
		c0.003,0.003,0.011,0.019,0.018,0.036c0.083,0.188,0.127,0.391,0.127,0.599V13c0,0.276-0.224,0.5-0.5,0.5s-0.5-0.224-0.5-0.5V7
		h-4.5c-0.827,0-1.5-0.673-1.5-1.5V1h-9.5c-0.276,0-0.5,0.224-0.5,0.5v21c0,0.276,0.224,0.5,0.5,0.5h8.5c0.276,0,0.5,0.224,0.5,0.5
		s-0.224,0.5-0.5,0.5H1.498z M11.998,5.5c0,0.276,0.224,0.5,0.5,0.5h3.793l-4.293-4.293V5.5z"/>
	<path d="M3.998,21c-0.551,0-1-0.448-1-1v-2c0-0.552,0.449-1,1-1h4c0.551,0,1,0.448,1,1h1.5c0.276,0,0.5-0.224,0.5-0.5V14h-2v1
		c0,0.552-0.449,1-1,1h-4c-0.551,0-1-0.448-1-1v-2c0-0.552,0.449-1,1-1h4c0.551,0,1,0.448,1,1h2V9.5c0-0.276-0.224-0.5-0.5-0.5h-1.5
		v1c0,0.551-0.449,1-1,1h-4c-0.551,0-1-0.449-1-1V8c0-0.551,0.449-1,1-1h4c0.551,0,1,0.449,1,1h1.5c0.827,0,1.5,0.673,1.5,1.5V13h2
		c0.276,0,0.5,0.224,0.5,0.5s-0.224,0.5-0.5,0.5h-2v3.5c0,0.827-0.673,1.5-1.5,1.5h-1.5v1c0,0.552-0.449,1-1,1H3.998z M3.998,20h4
		v-2h-4L3.998,20z M3.998,15h4v-2h-4L3.998,15z M3.998,10h4V8h-4L3.998,10z"/>
</g>
</svg>
