<?xml version="1.0" encoding="utf-8"?>
<!-- Generator: Adobe Illustrator 22.1.0, SVG Export Plug-In . SVG Version: 6.00 Build 0)  -->
<svg version="1.1" id="Layer_1" xmlns="http://www.w3.org/2000/svg" xmlns:xlink="http://www.w3.org/1999/xlink" x="0px" y="0px"
	 viewBox="0 0 24 24" style="enable-background:new 0 0 24 24;" xml:space="preserve">
<g>
	<title>monitor-www</title>
	<path d="M5,22.5c-0.276,0-0.5-0.224-0.5-0.5s0.224-0.5,0.5-0.5h6v-1H2c-1.103,0-2-0.897-2-2v-15c0-1.103,0.897-2,2-2h20
		c1.103,0,2,0.897,2,2v15c0,1.103-0.897,2-2,2H12v1h7c0.276,0,0.5,0.224,0.5,0.5s-0.224,0.5-0.5,0.5H5z M1,18.5c0,0.552,0.449,1,1,1
		h20c0.552,0,1-0.448,1-1v-2H1V18.5z M23,15.5v-12c0-0.551-0.448-1-1-1H2c-0.551,0-1,0.449-1,1v12H23z"/>
	<path d="M5.498,13c-0.201,0-0.387-0.126-0.462-0.315l-0.571-1.427C4.157,10.487,4,9.675,4,8.845V7.5C4,7.224,4.224,7,4.5,7
		S5,7.224,5,7.5v1.345c0,0.703,0.133,1.39,0.393,2.042l0.028,0.069l0.598-2.094C6.08,8.649,6.278,8.5,6.5,8.5
		s0.42,0.149,0.481,0.363l0.598,2.094l0.028-0.069C7.868,10.235,8,9.548,8,8.845V7.5C8,7.224,8.224,7,8.5,7S9,7.224,9,7.5v1.345
		c0,0.83-0.156,1.643-0.465,2.414l-0.571,1.427C7.888,12.876,7.706,13,7.5,13c-0.005,0-0.022,0-0.027-0.001
		c-0.213-0.011-0.396-0.157-0.454-0.362L6.5,10.82l-0.519,1.817C5.922,12.843,5.739,12.988,5.526,13C5.522,13,5.502,13,5.498,13z"/>
	<path d="M11.497,13c-0.204,0-0.385-0.124-0.462-0.315l-0.571-1.427C10.157,10.487,10,9.675,10,8.845V7.5C10,7.224,10.224,7,10.5,7
		S11,7.224,11,7.5v1.345c0,0.703,0.133,1.39,0.393,2.042l0.028,0.069l0.598-2.094C12.08,8.649,12.278,8.5,12.5,8.5
		s0.42,0.149,0.481,0.362l0.598,2.094l0.028-0.069C13.868,10.235,14,9.548,14,8.845V7.5C14,7.224,14.224,7,14.5,7S15,7.224,15,7.5
		v1.345c0,0.831-0.156,1.643-0.465,2.414l-0.571,1.427C13.888,12.876,13.706,13,13.5,13c-0.005,0-0.022,0-0.027-0.001
		c-0.212-0.011-0.395-0.156-0.453-0.362L12.5,10.82l-0.519,1.817c-0.058,0.205-0.241,0.351-0.455,0.362
		C11.522,13,11.502,13,11.497,13z"/>
	<path d="M17.501,13c-0.204,0-0.391-0.126-0.466-0.315l-0.571-1.427C16.156,10.487,16,9.675,16,8.845V7.5C16,7.224,16.224,7,16.5,7
		S17,7.224,17,7.5v1.345c0,0.703,0.133,1.39,0.393,2.042l0.028,0.069l0.598-2.094C18.08,8.649,18.278,8.5,18.5,8.5
		s0.42,0.149,0.481,0.362l0.598,2.094l0.028-0.069C19.868,10.235,20,9.548,20,8.845V7.5C20,7.224,20.224,7,20.5,7S21,7.224,21,7.5
		v1.345c0,0.831-0.156,1.643-0.465,2.414l-0.571,1.427C19.888,12.876,19.706,13,19.5,13c-0.005,0-0.022,0-0.027-0.001
		c-0.212-0.011-0.395-0.156-0.453-0.362L18.5,10.82l-0.519,1.817c-0.059,0.206-0.242,0.351-0.455,0.362
		C17.521,13,17.506,13,17.501,13z"/>
</g>
</svg>
