<svg xmlns="http://www.w3.org/2000/svg" viewBox="0 0 24 24"><defs><style>.a{fill:none;stroke:currentColor;stroke-linecap:round;stroke-linejoin:round;}</style></defs><title>network-cash</title><line class="a" x1="1.898" y1="17.5" x2="9.5" y2="17.5"/><line class="a" x1="2.512" y1="5.5" x2="21.496" y2="5.5"/><line class="a" x1="11" y1="11.5" x2="0.511" y2="11.5"/><path class="a" d="M11.378,23.484A11.5,11.5,0,1,1,23.5,11.5"/><path class="a" d="M11.269.526c-6,6.5-5.891,14.958.109,22.958"/><path class="a" d="M12.73.526A16.126,16.126,0,0,1,16.994,9"/><path class="a" d="M19,14.5H16.967a1.342,1.342,0,0,0-.5,2.587l2.064.826a1.342,1.342,0,0,1-.5,2.587H16"/><line class="a" x1="17.5" y1="21.501" x2="17.5" y2="20.501"/><line class="a" x1="17.5" y1="14.501" x2="17.5" y2="13.501"/><circle class="a" cx="17.5" cy="17.501" r="6"/></svg>