<svg xmlns="http://www.w3.org/2000/svg" viewBox="0 0 24 24"><defs><style>.a{fill:none;stroke:currentColor;stroke-linecap:round;stroke-linejoin:round;}</style></defs><title>network-users</title><path class="a" d="M12,14.5C10,13,9,10,9,7.5s1-5.5,3-7"/><path class="a" d="M12,14.5c2-1.5,3-4.5,3-7S14,2,12,.5"/><line class="a" x1="5.674" y1="4.5" x2="18.326" y2="4.5"/><line class="a" x1="5.674" y1="10.5" x2="18.326" y2="10.5"/><line class="a" x1="5" y1="7.5" x2="19" y2="7.5"/><circle class="a" cx="12" cy="7.5" r="7"/><circle class="a" cx="4.5" cy="18.25" r="1.75"/><path class="a" d="M8,23.5a3.612,3.612,0,0,0-7,0Z"/><circle class="a" cx="19.5" cy="18.25" r="1.75"/><path class="a" d="M23,23.5a3.612,3.612,0,0,0-7,0Z"/></svg>