<svg xmlns="http://www.w3.org/2000/svg" viewBox="0 0 24 24"><defs><style>.a{fill:none;stroke:currentColor;stroke-linecap:round;stroke-linejoin:round;}</style></defs><title>network-heart</title><line class="a" x1="1.897" y1="17.5" x2="9.5" y2="17.501"/><line class="a" x1="2.51" y1="5.5" x2="21.495" y2="5.5"/><line class="a" x1="10.5" y1="11.501" x2="0.509" y2="11.5"/><path class="a" d="M11.377,23.484A11.5,11.5,0,1,1,23.412,10.5"/><path class="a" d="M11.268.526c-6,6.5-5.891,14.958.109,22.958"/><path class="a" d="M12.729.526A15.837,15.837,0,0,1,17.153,10.5"/><path class="a" d="M17.5,23.5l-5.114-5.335a3.025,3.025,0,0,1-.567-3.492h0a3.026,3.026,0,0,1,4.846-.786l.835.835.835-.835a3.026,3.026,0,0,1,4.846.786h0a3.025,3.025,0,0,1-.567,3.492Z"/></svg>