<svg xmlns="http://www.w3.org/2000/svg" viewBox="0 0 24 24"><defs><style>.a{fill:none;stroke:currentColor;stroke-linecap:round;stroke-linejoin:round;}</style></defs><title>network-browser</title><line class="a" x1="0.5" y1="4.5" x2="20.5" y2="4.5"/><path class="a" d="M3.5,2.25a.25.25,0,1,0,.25.25.25.25,0,0,0-.25-.25h0"/><path class="a" d="M5.5,2.25a.25.25,0,1,0,.25.25.25.25,0,0,0-.25-.25h0"/><path class="a" d="M7.5,2.25a.25.25,0,1,0,.25.25.25.25,0,0,0-.25-.25h0"/><path class="a" d="M7.5,16.5h-5a2,2,0,0,1-2-2V2.5a2,2,0,0,1,2-2h16a2,2,0,0,1,2,2v6"/><path class="a" d="M16.5,23.5c-2-1.5-3-4.5-3-7s1-5.5,3-7"/><path class="a" d="M16.5,23.5c2-1.5,3-4.5,3-7s-1-5.5-3-7"/><line class="a" x1="10.174" y1="13.5" x2="22.826" y2="13.5"/><line class="a" x1="10.174" y1="19.5" x2="22.826" y2="19.5"/><line class="a" x1="9.5" y1="16.5" x2="23.5" y2="16.5"/><circle class="a" cx="16.5" cy="16.5" r="7"/></svg>