<svg xmlns="http://www.w3.org/2000/svg" viewBox="0 0 24 24"><defs><style>.a{fill:none;stroke:currentColor;stroke-linecap:round;stroke-linejoin:round;}</style></defs><title>network</title><circle class="a" cx="12.036" cy="11.998" r="11.5"/><circle class="a" cx="8.786" cy="7.748" r="2.25"/><circle class="a" cx="14.286" cy="17.748" r="1.25"/><circle class="a" cx="18.786" cy="10.248" r="1.75"/><path class="a" d="M11.036,7.5a9.307,9.307,0,0,1,6,2.5"/><path class="a" d="M19.135,11.964l.4.534s1.5,2,1.5,6.5"/><path class="a" d="M16.859,1.555,17.036,2a19.176,19.176,0,0,1,1,6.662"/><path class="a" d="M17.536,11.5A10.3,10.3,0,0,1,15.4,17.181"/><path class="a" d="M13.688,18.846,13.536,19s-2.5,2.5-8,2.5"/><path class="a" d="M12.036.5a17.085,17.085,0,0,0-3.25,5"/><path class="a" d="M7.618,9.672,7.536,10a12.694,12.694,0,0,0,1,8c1.7,3.406,6,5,6,5l.373.139"/><path class="a" d="M6.536,7.748S2.7,8.023.761,9.721"/><path class="a" d="M.816,14.532l.22-.034s6.881-1.058,12.474,2.27"/></svg>