<svg xmlns="http://www.w3.org/2000/svg" viewBox="0 0 24 24"><defs><style>.a{fill:none;stroke:currentColor;stroke-linecap:round;stroke-linejoin:round;}</style></defs><title>network-settings</title><line class="a" x1="1.899" y1="17.511" x2="10" y2="17.5"/><line class="a" x1="2.512" y1="5.511" x2="21.496" y2="5.511"/><line class="a" x1="10.5" y1="11.5" x2="0.511" y2="11.511"/><path class="a" d="M11.378,23.5A11.5,11.5,0,1,1,23.336,10.006"/><path class="a" d="M11.269.537c-6,6.5-5.891,14.958.109,22.958"/><path class="a" d="M12.73.537A16.248,16.248,0,0,1,16.905,8.5"/><circle class="a" cx="17.75" cy="17.031" r="1.437"/><path class="a" d="M18.971,11.47l.424,1.392a.951.951,0,0,0,1.124.653l1.412-.327a1.283,1.283,0,0,1,1.221,2.126l-.988,1.065a.96.96,0,0,0,0,1.3l.988,1.065a1.283,1.283,0,0,1-1.221,2.126l-1.412-.328A.953.953,0,0,0,19.4,21.2l-.424,1.392a1.275,1.275,0,0,1-2.442,0L16.105,21.2a.953.953,0,0,0-1.124-.653l-1.412.328a1.283,1.283,0,0,1-1.221-2.126l.988-1.065a.96.96,0,0,0,0-1.3l-.988-1.065a1.283,1.283,0,0,1,1.221-2.126l1.412.327a.951.951,0,0,0,1.124-.653l.424-1.392A1.275,1.275,0,0,1,18.971,11.47Z"/></svg>