<svg xmlns="http://www.w3.org/2000/svg" viewBox="0 0 24 24"><defs><style>.a{fill:none;stroke:currentColor;stroke-linecap:round;stroke-linejoin:round;}</style></defs><title>network-shield</title><line class="a" x1="1.898" y1="17.499" x2="9.5" y2="17.499"/><line class="a" x1="2.512" y1="5.499" x2="21.496" y2="5.499"/><line class="a" x1="9.5" y1="11.5" x2="0.511" y2="11.499"/><path class="a" d="M11.378,23.483A11.5,11.5,0,1,1,23.338,10"/><path class="a" d="M11.269.525c-6,6.5-5.891,14.958.109,22.958"/><path class="a" d="M12.73.525A16.127,16.127,0,0,1,17,9.006"/><line class="a" x1="17.5" y1="13.5" x2="17.5" y2="19.5"/><line class="a" x1="20.5" y1="16.5" x2="14.5" y2="16.5"/><path class="a" d="M18.035,23.4l.553-.21c2.63-1,4.912-3.524,4.912-6.338V13.456a1.044,1.044,0,0,0-.628-.958,15.814,15.814,0,0,0-5.394-1,15.521,15.521,0,0,0-5.35,1,1.044,1.044,0,0,0-.628.958v3.393c0,2.814,2.238,5.336,4.868,6.338l.553.21A1.561,1.561,0,0,0,18.035,23.4Z"/></svg>