<svg xmlns="http://www.w3.org/2000/svg" viewBox="0 0 24 24"><defs><style>.a{fill:none;stroke:currentColor;stroke-linecap:round;stroke-linejoin:round;}</style></defs><title>smart-watch-square-time</title><rect class="a" x="6.5" y="14.5" width="11" height="3" rx="0.5" ry="0.5"/><rect class="a" x="3.5" y="3.5" width="17" height="17" rx="2" ry="2"/><polygon class="a" points="16.5 3.5 7.5 3.5 8.5 0.5 15.5 0.5 16.5 3.5"/><polygon class="a" points="7.5 20.5 16.5 20.5 15.5 23.5 8.5 23.5 7.5 20.5"/><circle class="a" cx="6.5" cy="8" r="1"/><path class="a" d="M7.5,8V9.5A1.5,1.5,0,0,1,6,11"/><path class="a" d="M14.5,11V7a2,2,0,0,0-2,2v.5h2"/><path class="a" d="M18.5,10a1,1,0,0,1-2,0V8a1,1,0,0,1,2,0Z"/><path class="a" d="M10.25,7.25A.25.25,0,1,1,10,7.5a.25.25,0,0,1,.25-.25"/><path class="a" d="M10.25,10.5a.25.25,0,1,1-.25.25.25.25,0,0,1,.25-.25"/></svg>