<svg xmlns="http://www.w3.org/2000/svg" viewBox="0 0 24 24"><defs><style>.a{fill:none;stroke:currentColor;stroke-linecap:round;stroke-linejoin:round;}</style></defs><title>smart-watch-square-heart</title><path class="a" d="M12,16.375,7.739,11.929a2.52,2.52,0,0,1-.473-2.91h0A2.521,2.521,0,0,1,11.3,8.364l.7.7.7-.7a2.521,2.521,0,0,1,4.038.655h0a2.522,2.522,0,0,1-.472,2.91Z"/><rect class="a" x="3.5" y="3.5" width="17" height="17" rx="2" ry="2"/><polygon class="a" points="16.5 3.5 7.5 3.5 8.5 0.5 15.5 0.5 16.5 3.5"/><polygon class="a" points="7.5 20.5 16.5 20.5 15.5 23.5 8.5 23.5 7.5 20.5"/></svg>