<svg xmlns="http://www.w3.org/2000/svg" viewBox="0 0 24 24"><defs><style>.a{fill:none;stroke:currentColor;stroke-linecap:round;stroke-linejoin:round;}</style></defs><title>smart-watch-circle-text</title><polyline class="a" points="7.328 4.897 8.5 0.5 15.5 0.5 16.672 4.898"/><polyline class="a" points="7.31 19.037 8.5 23.5 15.5 23.5 16.706 19.08"/><circle class="a" cx="12" cy="12" r="8.5"/><path class="a" d="M15.5,8.5h-6a1,1,0,0,0-1,1v4a1,1,0,0,0,1,1h1v2l2.5-2h2.5a1,1,0,0,0,1-1v-4A1,1,0,0,0,15.5,8.5Z"/><line class="a" x1="10.5" y1="10.5" x2="14.5" y2="10.5"/><line class="a" x1="10.5" y1="12.5" x2="13.5" y2="12.5"/></svg>