<svg xmlns="http://www.w3.org/2000/svg" viewBox="0 0 24 24"><defs><style>.a{fill:none;stroke:currentColor;stroke-linecap:round;stroke-linejoin:round;}</style></defs><title>smart-watch-circle-star</title><polyline class="a" points="7.328 4.897 8.5 0.5 15.5 0.5 16.672 4.898"/><polyline class="a" points="7.31 19.037 8.5 23.5 15.5 23.5 16.706 19.08"/><circle class="a" cx="12" cy="12" r="8.5"/><path class="a" d="M12.589,6.858,13.871,9.5h2.495a.612.612,0,0,1,.431,1.069l-2.166,2.263,1.2,2.761a.654.654,0,0,1-.931.819L12,14.778,9.1,16.412a.654.654,0,0,1-.931-.819l1.2-2.761L7.2,10.569A.612.612,0,0,1,7.632,9.5h2.5l1.285-2.642A.662.662,0,0,1,12.589,6.858Z"/></svg>