<?xml version="1.0" encoding="utf-8"?>
<!-- Generator: Adobe Illustrator 22.1.0, SVG Export Plug-In . SVG Version: 6.00 Build 0)  -->
<svg version="1.1" id="Layer_1" xmlns="http://www.w3.org/2000/svg" xmlns:xlink="http://www.w3.org/1999/xlink" x="0px" y="0px"
	 viewBox="0 0 24 24" style="enable-background:new 0 0 24 24;" xml:space="preserve">
<title>headphones-woman</title>
<g>
	<path d="M16.868,15.997c-0.264,0-0.503-0.135-0.641-0.36c-0.296-0.486-0.527-1.004-0.689-1.546
		c-0.917,1.047-2.231,1.653-3.65,1.653c-1.418,0-2.732-0.605-3.65-1.652c-0.162,0.542-0.392,1.059-0.688,1.545
		c-0.137,0.226-0.377,0.36-0.641,0.36c-0.137,0-0.272-0.038-0.39-0.109c-0.353-0.215-0.466-0.677-0.251-1.031
		c0.524-0.861,0.783-1.847,0.749-2.854l0-1.02c0-0.008,0.001-0.02,0.001-0.032c-0.002-0.036-0.004-0.058-0.004-0.08
		C7.017,8.186,9.203,6,11.889,6c2.686,0,4.872,2.186,4.872,4.872c0,0.025-0.001,0.049-0.003,0.073c0,0,0.001,0.028,0.001,0.038
		v0.995c-0.034,1.028,0.225,2.019,0.75,2.879c0.215,0.353,0.103,0.815-0.25,1.031C17.141,15.96,17.006,15.997,16.868,15.997z
		 M8.673,11.879c0.434,1.392,1.728,2.365,3.216,2.365s2.782-0.974,3.216-2.366c-1.196-0.181-2.314-0.706-3.216-1.51
		C10.988,11.173,9.869,11.698,8.673,11.879z M11.889,7.5c-1.679,0-3.091,1.256-3.333,2.878c1.075-0.186,2.045-0.733,2.765-1.568
		c0.139-0.161,0.346-0.254,0.568-0.254l0,0c0.222,0,0.429,0.093,0.568,0.254c0.72,0.835,1.689,1.382,2.765,1.568
		C14.98,8.756,13.568,7.5,11.889,7.5z"/>
	<path d="M21,16.5c-1.241,0-2.25-1.009-2.25-2.25v-6c-0.011-3.711-3.04-6.739-6.752-6.75C8.289,1.511,5.261,4.54,5.25,8.253v5.998
		c0,1.241-1.009,2.25-2.25,2.25s-2.25-1.009-2.25-2.25v-3C0.75,10.01,1.759,9,3,9C3.259,9,3.511,9.044,3.75,9.13V8.25
		C3.763,3.714,7.463,0.014,11.998,0c4.538,0.013,8.239,3.713,8.252,8.248V9.13C20.489,9.044,20.741,9,21,9
		c1.241,0,2.25,1.009,2.25,2.25v3C23.25,15.491,22.241,16.5,21,16.5z M21,10.5c-0.414,0-0.75,0.336-0.75,0.75v3
		c0,0.414,0.336,0.75,0.75,0.75s0.75-0.336,0.75-0.75v-3C21.75,10.837,21.414,10.5,21,10.5z M3,10.5c-0.414,0-0.75,0.336-0.75,0.75
		v3C2.25,14.664,2.586,15,3,15s0.75-0.336,0.75-0.75v-3C3.75,10.837,3.414,10.5,3,10.5z"/>
	<path d="M4.574,24.001c-0.086,0-0.17-0.015-0.251-0.043c-0.188-0.067-0.34-0.203-0.426-0.384S3.8,23.189,3.867,23
		c0.873-2.467,2.788-4.383,5.256-5.256c0.935-0.331,1.905-0.498,2.883-0.498c1.286,0,2.534,0.285,3.71,0.846
		c2.08,0.993,3.648,2.736,4.417,4.908c0.067,0.189,0.056,0.392-0.03,0.573c-0.086,0.181-0.238,0.317-0.427,0.384
		C19.596,23.986,19.512,24,19.426,24c-0.317,0-0.601-0.201-0.707-0.5c-0.635-1.794-1.931-3.234-3.649-4.055
		c-0.972-0.464-2.003-0.699-3.065-0.699c-0.808,0-1.61,0.139-2.382,0.412C7.585,19.88,6.002,21.462,5.281,23.5
		C5.175,23.799,4.891,24.001,4.574,24.001z"/>
</g>
</svg>
