<?xml version="1.0" encoding="utf-8"?>
<!-- Generator: Adobe Illustrator 22.1.0, SVG Export Plug-In . SVG Version: 6.00 Build 0)  -->
<svg version="1.1" id="Layer_1" xmlns="http://www.w3.org/2000/svg" xmlns:xlink="http://www.w3.org/1999/xlink" x="0px" y="0px"
	 viewBox="0 0 24 24" style="enable-background:new 0 0 24 24;" xml:space="preserve">
<title>headphones-wave</title>
<g>
	<path d="M21.75,21c-1.241,0-2.25-1.009-2.25-2.25V12c-0.012-4.123-3.377-7.488-7.502-7.5C7.876,4.512,4.512,7.877,4.5,12.002v6.748
		C4.5,19.991,3.491,21,2.25,21S0,19.991,0,18.75v-3c0-1.241,1.009-2.25,2.25-2.25c0.259,0,0.511,0.044,0.75,0.129V12
		c0.014-4.949,4.051-8.986,8.998-9c4.95,0.014,8.988,4.051,9.002,8.998v1.631c0.239-0.085,0.491-0.129,0.75-0.129
		c1.241,0,2.25,1.009,2.25,2.25v3C24,19.991,22.991,21,21.75,21z M21.75,15C21.336,15,21,15.336,21,15.75v3
		c0,0.414,0.336,0.75,0.75,0.75s0.75-0.336,0.75-0.75v-3C22.5,15.336,22.164,15,21.75,15z M2.25,15c-0.414,0-0.75,0.336-0.75,0.75v3
		c0,0.414,0.336,0.75,0.75,0.75S3,19.164,3,18.75v-2.998C3,15.336,2.664,15,2.25,15z"/>
	<path d="M13.657,18.894c-0.598,0-1.138-0.354-1.376-0.9l-1.892-4.256l-1.282,2.059C8.83,16.235,8.355,16.497,7.833,16.5H6.75
		C6.336,16.5,6,16.164,6,15.75S6.336,15,6.75,15h1.083l1.282-2.055c0.212-0.34,0.544-0.578,0.934-0.668
		c0.111-0.026,0.227-0.04,0.342-0.04c0.278,0,0.552,0.079,0.79,0.228c0.256,0.159,0.456,0.389,0.578,0.665l1.894,4.26l1.268-1.76
		c0.279-0.391,0.734-0.626,1.217-0.626h1.112c0.414,0,0.75,0.336,0.75,0.75s-0.336,0.75-0.75,0.75h-1.11l-1.262,1.76
		c-0.155,0.22-0.37,0.395-0.621,0.505C14.065,18.852,13.864,18.894,13.657,18.894z"/>
</g>
</svg>
