<?xml version="1.0" encoding="utf-8"?>
<!-- Generator: Adobe Illustrator 22.1.0, SVG Export Plug-In . SVG Version: 6.00 Build 0)  -->
<svg version="1.1" id="Layer_1" xmlns="http://www.w3.org/2000/svg" xmlns:xlink="http://www.w3.org/1999/xlink" x="0px" y="0px"
	 viewBox="0 0 24 24" style="enable-background:new 0 0 24 24;" xml:space="preserve">
<title>headphones-human-music</title>
<g>
	<path d="M14.278,23.999c-0.414,0-0.75-0.336-0.75-0.75v-2.25c0-0.414,0.336-0.75,0.75-0.75h1.5c1.241,0,2.25-1.009,2.25-2.25v-2.25
		c0-0.414,0.336-0.75,0.75-0.75h1.9c-0.224-0.581-0.44-1.156-0.651-1.716c0,0-0.268-0.712-0.37-0.983
		c-0.071-0.187-0.065-0.391,0.017-0.574c0.082-0.183,0.231-0.323,0.418-0.394c0.086-0.032,0.175-0.049,0.266-0.049
		c0.309,0,0.591,0.195,0.701,0.484c0.121,0.318,0.241,0.639,0.363,0.963c0.317,0.844,0.677,1.801,1.052,2.74
		c0.093,0.232,0.064,0.493-0.075,0.699c-0.14,0.206-0.372,0.329-0.621,0.329h-2.25v1.5c0,2.068-1.682,3.75-3.75,3.75h-0.75v1.5
		C15.028,23.663,14.691,23.999,14.278,23.999z"/>
	<path d="M15.068,4.328c-0.147,0-0.29-0.043-0.413-0.124c-0.549-0.362-1.146-0.641-1.775-0.831c-0.192-0.058-0.35-0.187-0.444-0.364
		c-0.095-0.177-0.115-0.38-0.057-0.572c0.094-0.313,0.39-0.533,0.719-0.533c0.073,0,0.145,0.011,0.215,0.031
		c0.769,0.232,1.498,0.574,2.168,1.015c0.345,0.227,0.441,0.693,0.214,1.039C15.555,4.202,15.321,4.328,15.068,4.328z"/>
	<path d="M3.778,23.999c-0.414,0-0.75-0.336-0.75-0.75v-4.445C-0.818,14.998-0.965,8.725,2.726,4.743
		c0.592-0.638,1.265-1.198,1.999-1.665c0.121-0.076,0.26-0.117,0.402-0.117c0.258,0,0.495,0.13,0.634,0.348
		c0.221,0.349,0.118,0.813-0.231,1.035C4.903,4.742,4.33,5.219,3.826,5.762c-3.229,3.483-3.022,8.943,0.461,12.172
		c0.152,0.141,0.24,0.342,0.24,0.55v4.765C4.528,23.663,4.191,23.999,3.778,23.999z"/>
	<path d="M15.707,11.249c-1.296,0-2.351-1.055-2.351-2.351c0-1.296,1.055-2.351,2.351-2.351c0.296,0,0.583,0.054,0.851,0.159V2.899
		c0-0.875,0.558-1.65,1.389-1.927C17.962,0.966,17.981,0.961,18,0.956l3.394-0.864c0.181-0.059,0.392-0.093,0.604-0.093
		c0.316,0,0.621,0.072,0.907,0.215c0.485,0.243,0.847,0.66,1.018,1.175c0.069,0.206,0.104,0.421,0.104,0.641v5.143
		c0,1.296-1.054,2.35-2.35,2.35s-2.35-1.054-2.35-2.35c0-1.296,1.054-2.35,2.35-2.35c0.295,0,0.582,0.054,0.85,0.159V2.03
		c0-0.057-0.009-0.113-0.027-0.167c-0.045-0.135-0.14-0.244-0.267-0.308c-0.075-0.038-0.155-0.057-0.237-0.057
		c-0.057,0-0.113,0.009-0.168,0.028c-0.016,0.005-0.035,0.011-0.054,0.016l-3.374,0.859c-0.206,0.078-0.344,0.276-0.344,0.497v6
		C18.056,10.196,17.001,11.249,15.707,11.249z M15.707,8.047c-0.469,0-0.851,0.382-0.851,0.851s0.382,0.851,0.851,0.851
		s0.851-0.382,0.851-0.851S16.176,8.047,15.707,8.047z M21.678,6.322c-0.469,0-0.85,0.381-0.85,0.85c0,0.469,0.381,0.85,0.85,0.85
		s0.85-0.381,0.85-0.85C22.528,6.704,22.146,6.322,21.678,6.322z"/>
	<path d="M9.033,15.015c-0.327,0-0.656-0.043-0.976-0.129c-0.968-0.26-1.776-0.88-2.277-1.747C4.829,11.491,5.272,9.39,6.778,8.263
		V2.249c0-1.241,1.009-2.25,2.25-2.25s2.25,1.009,2.25,2.25v6.014c0.403,0.303,0.746,0.688,0.998,1.125
		c0.501,0.868,0.634,1.878,0.375,2.846c-0.26,0.968-0.88,1.776-1.747,2.277C10.331,14.841,9.685,15.015,9.033,15.015z M9.028,1.499
		c-0.414,0-0.75,0.336-0.75,0.75v6.416c0,0.267-0.144,0.516-0.375,0.65c-1.074,0.62-1.444,1.999-0.823,3.073
		c0.301,0.521,0.786,0.893,1.366,1.048c0.193,0.052,0.39,0.078,0.587,0.078c0.39,0,0.777-0.105,1.121-0.303
		c0.521-0.301,0.893-0.786,1.048-1.366c0.156-0.58,0.076-1.187-0.225-1.707c-0.197-0.341-0.482-0.626-0.824-0.824
		C9.921,9.181,9.778,8.932,9.778,8.665V2.249C9.778,1.836,9.441,1.499,9.028,1.499z"/>
</g>
</svg>
