<?xml version="1.0" encoding="utf-8"?>
<!-- Generator: Adobe Illustrator 22.1.0, SVG Export Plug-In . SVG Version: 6.00 Build 0)  -->
<svg version="1.1" id="Layer_1" xmlns="http://www.w3.org/2000/svg" xmlns:xlink="http://www.w3.org/1999/xlink" x="0px" y="0px"
	 viewBox="0 0 24 24" style="enable-background:new 0 0 24 24;" xml:space="preserve">
<g>
	<title>trends-torch-1</title>
	<path d="M12.037,23.999c-0.128,0-0.256-0.014-0.381-0.042c-0.657-0.147-1.177-0.666-1.324-1.324L8.636,15H8.537
		c-0.838,0-1.616-0.417-2.08-1.114l-1.406-2.109c-0.102-0.154-0.112-0.35-0.025-0.513C5.113,11.101,5.282,11,5.467,11h13.141
		c0.185,0,0.354,0.101,0.441,0.264c0.087,0.163,0.077,0.359-0.025,0.513l-1.407,2.11C17.152,14.584,16.374,15,15.537,15h-0.099
		l-1.696,7.632C13.565,23.424,12.848,23.999,12.037,23.999z M11.308,22.415c0.063,0.281,0.285,0.503,0.566,0.566
		c0.053,0.011,0.107,0.018,0.161,0.018c0.348,0,0.655-0.245,0.73-0.583L14.413,15H9.66L11.308,22.415z M7.289,13.331
		C7.567,13.75,8.034,14,8.537,14h7c0.503,0,0.969-0.25,1.248-0.667L17.673,12H6.401L7.289,13.331z"/>
	<path d="M5.059,10.08c-0.193,0-0.37-0.113-0.452-0.287C3.569,7.583,4.152,4.948,6.026,3.384c0.09-0.075,0.204-0.116,0.32-0.116
		c0.058,0,0.116,0.01,0.171,0.03c0.166,0.06,0.29,0.206,0.321,0.381c0.117,0.643,0.634,1.128,1.267,1.218
		C8.721,1.87,11.158,0,14.518,0c0.172,0,0.33,0.087,0.423,0.233c0.092,0.147,0.103,0.327,0.029,0.482
		c-0.747,1.57-0.393,3.483,0.857,4.685c0.03,0.002,0.06,0.003,0.09,0.003c0.311,0,0.606-0.102,0.852-0.296
		c0.291-0.228,0.476-0.556,0.52-0.924c0.023-0.188,0.153-0.35,0.332-0.412c0.053-0.019,0.109-0.028,0.165-0.028
		c0.132,0,0.257,0.051,0.351,0.145c1.122,1.107,1.755,2.584,1.783,4.16c0.005,0.566-0.092,1.12-0.287,1.647
		c-0.072,0.195-0.26,0.326-0.469,0.326l0,0c-0.059,0-0.117-0.01-0.173-0.031c-0.126-0.047-0.226-0.139-0.282-0.261
		c-0.056-0.121-0.061-0.257-0.014-0.383c0.153-0.413,0.229-0.846,0.225-1.287c-0.018-1.021-0.352-2.015-0.947-2.836
		c-0.15,0.256-0.348,0.483-0.586,0.669c-0.425,0.333-0.932,0.509-1.468,0.509c-0.096,0-0.194-0.006-0.29-0.017
		c-0.034-0.004-0.069-0.009-0.104-0.015c-0.093-0.015-0.179-0.057-0.25-0.119c-1.461-1.3-2.037-3.354-1.494-5.215
		c-2.632,0.257-4.4,1.893-4.76,4.435C8.988,5.697,8.807,5.873,8.578,5.897C8.491,5.906,8.404,5.911,8.318,5.911
		c-0.895,0-1.724-0.49-2.167-1.25C5.039,5.956,4.777,7.803,5.512,9.367C5.569,9.488,5.575,9.624,5.53,9.749
		c-0.045,0.126-0.137,0.226-0.258,0.283C5.206,10.064,5.134,10.08,5.059,10.08L5.059,10.08z"/>
</g>
</svg>
