<?xml version="1.0" encoding="utf-8"?>
<!-- Generator: Adobe Illustrator 22.1.0, SVG Export Plug-In . SVG Version: 6.00 Build 0)  -->
<svg version="1.1" id="Layer_1" xmlns="http://www.w3.org/2000/svg" xmlns:xlink="http://www.w3.org/1999/xlink" x="0px" y="0px"
	 viewBox="0 0 24 24" style="enable-background:new 0 0 24 24;" xml:space="preserve">
<g>
	<title>instrument-harp</title>
	<path d="M1.5,24C0.673,24,0,23.327,0,22.5v-21C0,0.673,0.673,0,1.5,0h5c1.118,0,2.188,0.535,3.224,1.053
		C10.698,1.54,11.618,2,12.5,2H22c1.103,0,2,0.897,2,2c0,1.074-0.355,2.14-1,3L11.6,22.2C10.755,23.327,9.409,24,8,24H1.5z M8,23
		c1.096,0,2.142-0.523,2.8-1.4L22.2,6.4C22.716,5.712,23,4.86,23,4c0-0.551-0.448-1-1-1h-9.5c-1.118,0-2.188-0.535-3.224-1.053
		C8.302,1.46,7.382,1,6.5,1H4v2h2.5c1.118,0,2.188,0.535,3.224,1.053C10.698,4.54,11.618,5,12.5,5h5C18.327,5,19,5.673,19,6.5
		c0,0.778-0.303,1.51-0.854,2.061L7.561,19.146c-0.245,0.245-0.532,0.443-0.853,0.59C6.315,19.913,5.913,20,5.5,20H4v3H8z M1.5,1
		C1.224,1,1,1.224,1,1.5v21C1,22.776,1.224,23,1.5,23H3V1H1.5z M5.5,19c0.168,0,0.336-0.023,0.5-0.068V4H4v15H5.5z M7,18.293l2-2
		V4.81c-0.714-0.353-1.369-0.65-2-0.76V18.293z M10,15.293l2-2V5.96c-0.704-0.094-1.385-0.369-2-0.658V15.293z M13,12.293l2-2V6h-2
		V12.293z M16,9.293l1.439-1.439C17.801,7.492,18,7.011,18,6.5C18,6.224,17.776,6,17.5,6H16V9.293z"/>
</g>
</svg>
