<?xml version="1.0" encoding="utf-8"?>
<!-- Generator: Adobe Illustrator 22.1.0, SVG Export Plug-In . SVG Version: 6.00 Build 0)  -->
<svg version="1.1" id="Layer_1" xmlns="http://www.w3.org/2000/svg" xmlns:xlink="http://www.w3.org/1999/xlink" x="0px" y="0px"
	 viewBox="0 0 24 24" style="enable-background:new 0 0 24 24;" xml:space="preserve">
<g>
	<title>instrument-contrabass-sheet</title>
	<path d="M5.591,24c-0.276,0-0.5-0.224-0.5-0.5v-0.524c-2.763-0.224-4.895-2.435-5-5.236c-0.005-0.453,0.276-0.843,0.698-0.977
		c0.331-0.124,0.634-0.348,0.865-0.642c0.336-0.428,0.485-0.96,0.42-1.5c-0.065-0.54-0.336-1.022-0.764-1.357
		c-0.105-0.082-0.174-0.206-0.188-0.34c-0.018-0.172-0.027-0.346-0.025-0.518c0.024-2.268,1.759-4.147,3.994-4.376V5h-1
		c-0.276,0-0.5-0.224-0.5-0.5S3.815,4,4.091,4h1V3h-1c-0.276,0-0.5-0.224-0.5-0.5S3.815,2,4.091,2h1V0.5c0-0.276,0.224-0.5,0.5-0.5
		s0.5,0.224,0.5,0.5V2h1c0.276,0,0.5,0.224,0.5,0.5S7.366,3,7.091,3h-1v1h1c0.276,0,0.5,0.224,0.5,0.5S7.366,5,7.091,5h-1v3.023
		c0.005,0,0.009,0.001,0.014,0.001c1.18,0.126,2.243,0.705,2.991,1.631c0.748,0.926,1.091,2.086,0.965,3.267
		c-0.014,0.134-0.083,0.258-0.189,0.341c-0.294,0.231-0.518,0.538-0.649,0.888c-0.393,1.052,0.143,2.227,1.195,2.62
		c0.402,0.127,0.678,0.512,0.674,0.954c-0.105,2.81-2.236,5.024-5,5.25V23.5C6.091,23.776,5.866,24,5.591,24z M2.101,12.624
		c0.537,0.49,0.878,1.152,0.966,1.878c0.097,0.805-0.125,1.599-0.626,2.237c-0.345,0.439-0.803,0.775-1.326,0.969l-0.025,0.011
		c0.086,2.242,1.786,4.031,4.001,4.253v-1.021c0-0.276,0.224-0.5,0.5-0.5s0.5,0.224,0.5,0.5v1.02c2.216-0.223,3.916-2.015,4-4.269
		c-0.776-0.275-1.383-0.839-1.721-1.578c-0.338-0.739-0.368-1.563-0.085-2.323c0.168-0.449,0.442-0.855,0.796-1.178
		c0.088-1.775-1.227-3.357-2.99-3.593v4.803c0,0.276-0.224,0.5-0.5,0.5s-0.5-0.224-0.5-0.5V9.034
		c-1.681,0.223-2.975,1.661-2.994,3.382C2.096,12.485,2.097,12.554,2.101,12.624z"/>
	<path d="M14.091,24c-0.146,0-0.285-0.064-0.38-0.175c-0.086-0.101-0.129-0.23-0.119-0.363s0.072-0.255,0.173-0.342l3.325-2.85V15
		h-3.653c-0.736,0-1.358-0.528-1.479-1.254l-0.667-4c-0.014-0.081-0.021-0.165-0.02-0.248c0-0.4,0.156-0.776,0.44-1.06
		C11.994,8.156,12.371,8,12.771,8h9.639c0.082,0,0.165,0.007,0.246,0.02c0.395,0.066,0.74,0.281,0.974,0.608
		c0.233,0.326,0.325,0.723,0.26,1.118l-0.667,4C23.102,14.472,22.48,15,21.744,15h-3.653v5.27l3.325,2.85
		c0.102,0.087,0.163,0.208,0.173,0.341s-0.032,0.262-0.119,0.364C21.376,23.936,21.237,24,21.091,24
		c-0.119,0-0.235-0.043-0.326-0.121l-2.674-2.292V23.5c0,0.276-0.224,0.5-0.5,0.5s-0.5-0.224-0.5-0.5v-1.913l-2.675,2.292
		C14.326,23.957,14.21,24,14.091,24z M21.744,14c0.245,0,0.452-0.176,0.493-0.418l0.667-4c0.022-0.131-0.009-0.263-0.087-0.372
		c-0.078-0.109-0.193-0.181-0.324-0.203C22.465,9.002,22.438,9,22.411,9h-9.639c-0.134,0-0.26,0.052-0.354,0.146
		c-0.094,0.094-0.146,0.22-0.146,0.354c0,0.028,0.002,0.055,0.007,0.081l0.667,4.001C12.985,13.824,13.192,14,13.438,14h3.653v-1.5
		c0-0.276,0.224-0.5,0.5-0.5s0.5,0.224,0.5,0.5V14H21.744z"/>
</g>
</svg>
