<?xml version="1.0" encoding="utf-8"?>
<!-- Generator: Adobe Illustrator 22.1.0, SVG Export Plug-In . SVG Version: 6.00 Build 0)  -->
<svg version="1.1" id="Layer_1" xmlns="http://www.w3.org/2000/svg" xmlns:xlink="http://www.w3.org/1999/xlink" x="0px" y="0px"
	 viewBox="0 0 24 24" style="enable-background:new 0 0 24 24;" xml:space="preserve">
<g>
	<title>instrument-trumpet-1</title>
	<path d="M3.328,24.011c-0.134,0-0.259-0.052-0.354-0.146l-2.828-2.828c-0.195-0.195-0.195-0.512,0-0.707
		c0.094-0.094,0.22-0.146,0.354-0.146s0.259,0.052,0.354,0.146l0.354,0.354l4.469-4.469l-0.707-0.707L4.616,15.86
		c-0.094,0.094-0.22,0.146-0.354,0.146c-0.134,0-0.259-0.052-0.354-0.146c-0.094-0.094-0.146-0.22-0.146-0.353
		s0.052-0.259,0.146-0.354l1.414-1.415c0.095-0.094,0.22-0.146,0.354-0.146c0.134,0,0.259,0.052,0.354,0.146
		c0.094,0.094,0.146,0.22,0.146,0.353s-0.052,0.259-0.146,0.354L5.676,14.8l0.707,0.707l2.121-2.121l-0.708-0.708l-0.354,0.354
		c-0.094,0.094-0.22,0.146-0.354,0.146s-0.259-0.052-0.354-0.146s-0.146-0.22-0.146-0.354s0.052-0.259,0.146-0.354l1.414-1.414
		c0.094-0.094,0.22-0.146,0.354-0.146s0.259,0.052,0.354,0.146c0.195,0.195,0.195,0.512,0,0.707l-0.354,0.354l0.708,0.708
		l2.121-2.122L10.626,9.85l-0.353,0.353c-0.094,0.094-0.22,0.146-0.354,0.146s-0.259-0.052-0.354-0.146
		c-0.195-0.195-0.195-0.512,0-0.707l1.414-1.414c0.094-0.094,0.22-0.146,0.354-0.146s0.259,0.052,0.354,0.146
		c0.195,0.195,0.195,0.512,0,0.707l-0.354,0.354l0.705,0.705c2.131-2.215,3.132-5.22,2.75-8.279
		c-0.059-0.469,0.099-0.93,0.433-1.265c0.182-0.182,0.44-0.286,0.708-0.286c0.268,0,0.525,0.104,0.707,0.285l7.068,7.072
		c0.189,0.189,0.293,0.44,0.293,0.707s-0.104,0.518-0.293,0.707c-0.288,0.287-0.67,0.445-1.074,0.445l0,0
		c-0.063,0-0.127-0.004-0.191-0.012c-0.413-0.052-0.833-0.078-1.249-0.078c-1.231,0-2.437,0.222-3.591,0.661
		c0.164,0.123,0.316,0.255,0.455,0.394c1.626,1.626,1.752,4.214,0.327,5.991l0.376,0.376c0.195,0.195,0.195,0.512,0,0.707
		c-0.094,0.094-0.22,0.146-0.354,0.146s-0.259-0.052-0.354-0.146l-0.354-0.354l-2.121,2.121l0.353,0.353
		c0.094,0.094,0.146,0.22,0.146,0.354s-0.052,0.259-0.146,0.354s-0.22,0.146-0.354,0.146s-0.259-0.052-0.354-0.146l-0.353-0.353
		l-2.122,2.122l0.354,0.354c0.094,0.094,0.146,0.22,0.146,0.354s-0.052,0.259-0.146,0.354s-0.22,0.146-0.354,0.146
		s-0.259-0.052-0.354-0.146l-0.372-0.372c-0.498,0.402-1.081,0.695-1.699,0.854c-0.367,0.094-0.743,0.142-1.118,0.142
		c-0.795,0-1.581-0.217-2.273-0.626c-0.789-0.467-1.396-1.137-1.774-1.953l-1.829,1.829l0.354,0.354
		c0.094,0.094,0.146,0.22,0.146,0.354s-0.052,0.259-0.146,0.354S3.462,24.011,3.328,24.011z M5.925,20.207
		c0.478,1.389,1.808,2.346,3.287,2.346c0.289,0,0.579-0.037,0.862-0.109c0.446-0.114,0.869-0.319,1.236-0.596l-0.73-0.73
		c-0.397,0.249-0.851,0.379-1.326,0.379l-0.075-0.001c-0.668-0.021-1.287-0.302-1.744-0.789c-0.354-0.378-0.579-0.853-0.65-1.358
		L5.925,20.207z M2.621,22.097l4.469-4.469l-0.707-0.707L1.914,21.39L2.621,22.097z M12.04,21.164l2.121-2.122l-0.708-0.708
		l-2.121,2.121L12.04,21.164z M7.878,18.416c-0.224,0.536-0.121,1.173,0.286,1.607c0.274,0.292,0.646,0.46,1.046,0.473l0.059,0.001
		c0.197,0,0.391-0.04,0.573-0.118L7.878,18.416z M10.626,19.749l2.121-2.121l-2.121-2.122l-2.121,2.122L10.626,19.749z
		 M14.869,18.336l2.121-2.122l-0.708-0.708l-2.121,2.122L14.869,18.336z M7.797,16.921l2.121-2.122l-0.707-0.707L7.09,16.214
		L7.797,16.921z M13.454,16.921l2.121-2.122l-2.121-2.121l-2.121,2.121L13.454,16.921z M17.669,15.479
		c1.034-1.377,0.912-3.336-0.323-4.571c-0.659-0.658-1.536-1.021-2.47-1.021c-0.762,0-1.498,0.246-2.102,0.699L13.49,11.3
		c0.406-0.268,0.888-0.413,1.379-0.413c0.668,0,1.296,0.26,1.767,0.731c0.848,0.848,0.969,2.164,0.317,3.146L17.669,15.479z
		 M10.626,14.092l2.121-2.121l-0.707-0.707l-2.121,2.122L10.626,14.092z M16.22,14.03c0.267-0.562,0.161-1.253-0.291-1.705
		c-0.282-0.282-0.658-0.438-1.059-0.438c-0.228,0-0.447,0.05-0.647,0.146L16.22,14.03z M14.88,8.888c0.555,0,1.096,0.1,1.61,0.297
		c1.482-0.69,3.059-1.04,4.69-1.04c0.46,0,0.925,0.029,1.383,0.086c0.022,0.003,0.044,0.004,0.066,0.004
		c0.139,0,0.27-0.054,0.369-0.153L15.929,1.01c-0.114,0.115-0.168,0.273-0.148,0.434c0.333,2.669-0.291,5.314-1.763,7.525
		C14.3,8.915,14.588,8.888,14.88,8.888z"/>
</g>
</svg>
