<?xml version="1.0" encoding="utf-8"?>
<!-- Generator: Adobe Illustrator 22.1.0, SVG Export Plug-In . SVG Version: 6.00 Build 0)  -->
<svg version="1.1" id="Layer_1" xmlns="http://www.w3.org/2000/svg" xmlns:xlink="http://www.w3.org/1999/xlink" x="0px" y="0px"
	 viewBox="0 0 24 24" style="enable-background:new 0 0 24 24;" xml:space="preserve">
<g>
	<title>instrument-dholak</title>
	<path d="M9.5,24c-0.2,0-0.394-0.039-0.578-0.116c-0.763-0.319-1.125-1.198-0.807-1.962l1.747-4.192C5.7,15.198,5.979,4.156,6,3.498
		C5.371,3.026,5,2.289,5,1.5C5,0.673,5.673,0,6.5,0h11C18.327,0,19,0.673,19,1.5c0,0.789-0.371,1.526-1,1.998
		c0.007,0.24,0.08,3.204-0.355,6.352c-0.576,4.171-1.755,6.821-3.507,7.881l1.746,4.191C15.961,22.106,16,22.301,16,22.5
		c0,0.827-0.673,1.5-1.5,1.5H9.5z M9.038,22.307c-0.051,0.123-0.052,0.259-0.001,0.383s0.147,0.22,0.27,0.271
		C9.369,22.987,9.434,23,9.5,23h5c0.276,0,0.5-0.224,0.5-0.5c0-0.066-0.013-0.132-0.039-0.193l-0.667-1.6l-2.037,1.222
		C12.179,21.975,12.09,22,12,22s-0.179-0.025-0.257-0.071l-2.037-1.223L9.038,22.307z M12,20.917l1.906-1.144L13.167,18h-2.333
		l-0.739,1.773L12,20.917z M13.388,17c1.608-0.772,2.743-3.34,3.285-7.437L15.021,5.02l-2.546,7.639C12.406,12.863,12.215,13,12,13
		s-0.406-0.137-0.474-0.342l-2.547-7.64L7.327,9.555c0.541,4.101,1.676,6.672,3.285,7.445H13.388z M12,10.919L14.306,4H9.694
		L12,10.919z M16.901,7.265c0.103-1.48,0.111-2.719,0.106-3.318C16.84,3.982,16.67,4,16.5,4h-0.786L16.901,7.265z M6.993,3.947
		C6.989,4.545,6.996,5.78,7.099,7.259L8.286,4H7.5C7.33,4,7.161,3.982,6.993,3.947z M6.5,1C6.224,1,6,1.224,6,1.5
		C6,2.327,6.673,3,7.5,3h9C17.327,3,18,2.327,18,1.5C18,1.224,17.776,1,17.5,1H6.5z"/>
</g>
</svg>
