<?xml version="1.0" encoding="utf-8"?>
<!-- Generator: Adobe Illustrator 22.1.0, SVG Export Plug-In . SVG Version: 6.00 Build 0)  -->
<svg version="1.1" id="Layer_1" xmlns="http://www.w3.org/2000/svg" xmlns:xlink="http://www.w3.org/1999/xlink" x="0px" y="0px"
	 viewBox="0 0 24 24" style="enable-background:new 0 0 24 24;" xml:space="preserve">
<g>
	<title>instrument-dholak-1</title>
	<path d="M19.961,24c-0.219,0-0.416-0.146-0.479-0.356l-2.104-6.97c-1.513,0.787-3.188,1.238-4.879,1.312v5.481
		c0,0.276-0.224,0.5-0.5,0.5c-0.276,0-0.5-0.224-0.5-0.5v-5.481c-1.664-0.073-3.314-0.51-4.807-1.274l-2.093,6.933
		C4.536,23.857,4.344,24,4.122,24c-0.049,0-0.098-0.007-0.145-0.021c-0.263-0.079-0.413-0.359-0.334-0.623l2.158-7.151
		c-2.5-1.568-4.316-4.017-4.996-6.748C0.602,8.634,0.5,7.811,0.5,7V4c0-2.759,6.743-4,11.531-4C16.793,0,23.5,1.241,23.5,4v3
		c0,0.811-0.102,1.633-0.302,2.444c-0.002,0.006-0.007,0.026-0.009,0.032c-0.667,2.683-2.458,5.116-4.921,6.685l2.172,7.195
		c0.039,0.128,0.025,0.263-0.038,0.381c-0.063,0.118-0.168,0.204-0.296,0.242C20.059,23.993,20.01,24,19.961,24z M2.007,10
		c1.401,4.078,5.542,7,9.993,7c4.451,0,8.592-2.923,9.993-7C21.18,9.985,20.514,9.322,20.5,8.509V6.727
		c-1.818,0.668-4.332,1.114-7,1.238V11.5c0,0.827-0.673,1.5-1.5,1.5s-1.5-0.673-1.5-1.5V7.962c-2.671-0.128-5.184-0.574-7-1.24V8.5
		C3.486,9.321,2.818,9.987,2.007,10z M11.5,11.5c0,0.276,0.224,0.5,0.5,0.5c0.276,0,0.5-0.224,0.5-0.5V7.996
		C12.344,7.998,12.187,8,12.031,8c-0.177,0-0.354-0.002-0.531-0.005V11.5z M1.715,8.962C1.799,8.987,1.884,9,1.971,9
		C2.262,9,2.495,8.772,2.5,8.491V6.296c-0.388-0.192-0.723-0.396-1-0.61V7C1.5,7.651,1.572,8.311,1.715,8.962z M21.5,8.5
		C21.505,8.774,21.737,9,22.018,9c0.091,0,0.18-0.013,0.268-0.04C22.428,8.31,22.5,7.651,22.5,7V5.689
		c-0.277,0.215-0.612,0.419-1,0.612V8.5z M12.031,1C9.365,1,6.655,1.356,4.597,1.977C2.658,2.561,1.5,3.318,1.5,4
		s1.158,1.439,3.097,2.023C6.655,6.644,9.365,7,12.031,7c3.357,0,6.715-0.567,8.764-1.48c0.004-0.002,0.02-0.009,0.024-0.01
		C21.898,5.027,22.5,4.489,22.5,4c0-0.683-1.151-1.439-3.078-2.024C17.375,1.356,14.681,1,12.031,1z"/>
</g>
</svg>
