<?xml version="1.0" encoding="utf-8"?>
<!-- Generator: Adobe Illustrator 22.1.0, SVG Export Plug-In . SVG Version: 6.00 Build 0)  -->
<svg version="1.1" id="Layer_1" xmlns="http://www.w3.org/2000/svg" xmlns:xlink="http://www.w3.org/1999/xlink" x="0px" y="0px"
	 viewBox="0 0 24 24" style="enable-background:new 0 0 24 24;" xml:space="preserve">
<g>
	<title>instrument-tuba</title>
	<path d="M8.046,23.975c-0.529,0-1.019-0.21-1.415-0.606l-6-6c-0.452-0.452-0.658-1.012-0.596-1.621
		c0.054-0.531,0.31-1.05,0.721-1.461c0.465-0.465,1.072-0.731,1.667-0.731c0.529,0,1.019,0.21,1.415,0.606l0.17,0.17l2.717-2.368
		c-0.158-0.291-0.241-0.615-0.241-0.949c0-1.103,0.897-2,2-2c0.427,0,0.838,0.137,1.181,0.389l1.067-0.928
		c-0.162-0.294-0.247-0.622-0.247-0.96c0-1.103,0.897-2,2-2c0.432,0,0.847,0.139,1.191,0.396l5.076-4.421l-0.621-0.621
		c-0.195-0.195-0.195-0.512,0-0.707c0.094-0.094,0.22-0.146,0.354-0.146s0.259,0.052,0.354,0.146l2.146,2.146l2.146-2.146
		c0.094-0.094,0.22-0.146,0.354-0.146s0.259,0.052,0.354,0.146c0.195,0.195,0.195,0.512,0,0.707l-2.146,2.146l2.146,2.146
		c0.195,0.195,0.195,0.512,0,0.707c-0.094,0.094-0.22,0.146-0.354,0.146s-0.259-0.052-0.354-0.146L22.51,5.247L9.668,19.992
		l0.17,0.17c0.452,0.452,0.658,1.012,0.596,1.621c-0.054,0.531-0.31,1.05-0.721,1.461C9.248,23.708,8.641,23.975,8.046,23.975z
		 M2.417,14.553c-0.036,0-0.073,0.002-0.11,0.006c-0.292,0.032-0.599,0.191-0.843,0.435s-0.402,0.551-0.435,0.842
		c-0.034,0.308,0.07,0.586,0.31,0.826l6,6c0.21,0.21,0.449,0.317,0.71,0.317c0.038,0,0.076-0.002,0.114-0.007
		c0.293-0.032,0.6-0.191,0.844-0.435s0.402-0.551,0.435-0.842c0.034-0.308-0.07-0.586-0.31-0.826l-6-6
		C2.921,14.659,2.681,14.553,2.417,14.553z M8.959,19.283L21.801,4.539l-2.34-2.34L14.304,6.69c0.118,0.259,0.18,0.541,0.18,0.825
		c0,1.103-0.897,2-2,2c-0.383,0-0.748-0.107-1.067-0.31l-1.118,0.973c0.122,0.263,0.186,0.548,0.186,0.837c0,1.103-0.897,2-2,2
		c-0.382,0-0.758-0.112-1.079-0.318L4.717,15.04L8.959,19.283z M8.484,10.015c-0.551,0-1,0.449-1,1s0.449,1,1,1s1-0.449,1-1
		S9.036,10.015,8.484,10.015z M12.484,6.515c-0.551,0-1,0.449-1,1s0.449,1,1,1c0.552,0,1-0.449,1-1S13.036,6.515,12.484,6.515z"/>
</g>
</svg>
