<?xml version="1.0" encoding="utf-8"?>
<!-- Generator: Adobe Illustrator 22.1.0, SVG Export Plug-In . SVG Version: 6.00 Build 0)  -->
<svg version="1.1" id="Layer_1" xmlns="http://www.w3.org/2000/svg" xmlns:xlink="http://www.w3.org/1999/xlink" x="0px" y="0px"
	 viewBox="0 0 24 24" style="enable-background:new 0 0 24 24;" xml:space="preserve">
<g>
	<title>instrument-guitar</title>
	<path d="M10.602,15.918c-0.668,0-1.296-0.26-1.768-0.733c-0.472-0.472-0.732-1.1-0.732-1.768c0-0.668,0.26-1.296,0.732-1.768
		c0.471-0.471,1.099-0.731,1.767-0.731s1.296,0.26,1.768,0.731c0.472,0.472,0.732,1.1,0.733,1.768c0,0.668-0.26,1.296-0.732,1.768
		C11.894,15.66,11.268,15.918,10.602,15.918L10.602,15.918z M10.603,11.919c-0.401,0-0.778,0.156-1.06,0.438
		c-0.283,0.283-0.439,0.66-0.439,1.061c0,0.401,0.156,0.778,0.439,1.061c0.283,0.283,0.66,0.439,1.061,0.44
		c0.401,0,0.777-0.156,1.061-0.439c0.004-0.004,0.019-0.018,0.024-0.022c0.267-0.278,0.416-0.642,0.416-1.039
		c0-0.401-0.156-0.777-0.44-1.06C11.38,12.075,11.004,11.919,10.603,11.919z"/>
	<path d="M6.359,20.989c-0.134,0-0.259-0.052-0.354-0.146l-2.828-2.828c-0.195-0.195-0.195-0.512,0-0.707
		c0.094-0.094,0.22-0.146,0.354-0.146s0.259,0.052,0.354,0.146l2.828,2.828c0.094,0.094,0.146,0.22,0.146,0.354
		s-0.052,0.259-0.146,0.354S6.492,20.989,6.359,20.989z"/>
	<path d="M7.711,23.847c-1.874,0-3.786-0.837-5.244-2.296c-2.163-2.163-2.882-5.349-1.75-7.747c0.833-1.763,2.509-2.774,4.599-2.774
		c0.222,0,0.451,0.011,0.68,0.034c0.015,0.001,0.031,0.002,0.046,0.002c0.215,0,0.412-0.142,0.478-0.346
		c0.107-0.31,0.245-0.602,0.412-0.875c0.804-1.31,2.205-2.092,3.747-2.092c0.807,0,1.599,0.224,2.289,0.648
		c0.048,0.024,0.121,0.041,0.195,0.041c0.132,0,0.262-0.054,0.357-0.149l3.105-3.105c-0.234-0.332-0.203-0.797,0.094-1.094
		l0.897-0.897L16.97,2.549c-0.195-0.195-0.195-0.512,0-0.707c0.094-0.094,0.22-0.146,0.354-0.146s0.259,0.052,0.354,0.146
		l0.646,0.646l0.793-0.793L18.47,1.049c-0.195-0.195-0.195-0.512,0-0.707c0.094-0.094,0.22-0.146,0.354-0.146
		s0.259,0.052,0.354,0.146l0.648,0.648c0.275-0.246,0.626-0.38,0.998-0.38c0.4,0,0.777,0.156,1.06,0.439l1.086,1.085
		c0.565,0.565,0.584,1.471,0.058,2.059l0.649,0.649c0.195,0.195,0.195,0.512,0,0.707c-0.094,0.094-0.22,0.146-0.354,0.146
		s-0.259-0.052-0.354-0.146l-0.647-0.647L21.53,5.695l0.647,0.647c0.195,0.195,0.195,0.512,0,0.707
		c-0.094,0.094-0.22,0.146-0.354,0.146s-0.259-0.052-0.354-0.146l-0.647-0.647l-0.896,0.896c-0.161,0.161-0.376,0.25-0.604,0.25
		c-0.178,0-0.348-0.054-0.491-0.155l-3.105,3.105c-0.155,0.155-0.191,0.39-0.09,0.584c0.151,0.244,0.291,0.541,0.395,0.843
		c0.381,1.108,0.307,2.298-0.208,3.35c-0.514,1.052-1.408,1.841-2.516,2.222c-0.232,0.075-0.375,0.291-0.353,0.526
		c0.233,2.42-0.771,4.345-2.754,5.28C9.434,23.664,8.597,23.847,7.711,23.847z M5.324,12.03c-1.718,0-3.033,0.782-3.703,2.201
		c-0.955,2.024-0.317,4.743,1.553,6.613c1.265,1.265,2.93,1.99,4.569,1.99c0,0,0,0,0,0c0.734,0,1.417-0.147,2.031-0.436
		c1.579-0.745,2.375-2.305,2.185-4.281c-0.068-0.707,0.357-1.352,1.032-1.57c0.848-0.292,1.537-0.9,1.934-1.712
		c0.397-0.812,0.454-1.731,0.161-2.586c-0.081-0.236-0.188-0.463-0.318-0.675c-0.318-0.608-0.213-1.318,0.252-1.783l3.2-3.2
		c0.161-0.161,0.375-0.25,0.604-0.25c0.178,0,0.348,0.054,0.491,0.155l2.948-2.948c0.195-0.195,0.195-0.512,0-0.707l-1.086-1.085
		c-0.094-0.094-0.22-0.146-0.353-0.146c-0.134,0-0.259,0.052-0.354,0.146l-2.948,2.948c0.234,0.333,0.202,0.797-0.094,1.094
		l-3.201,3.201c-0.284,0.284-0.66,0.44-1.059,0.44c-0.239,0-0.478-0.059-0.692-0.169c-0.555-0.34-1.173-0.515-1.801-0.515
		c-1.191,0-2.272,0.603-2.892,1.613c-0.129,0.21-0.235,0.435-0.316,0.668c-0.195,0.604-0.782,1.03-1.426,1.03
		c-0.047,0-0.095-0.002-0.143-0.007C5.705,12.04,5.511,12.03,5.324,12.03z"/>
</g>
</svg>
