<?xml version="1.0" encoding="utf-8"?>
<!-- Generator: Adobe Illustrator 22.1.0, SVG Export Plug-In . SVG Version: 6.00 Build 0)  -->
<svg version="1.1" id="Layer_1" xmlns="http://www.w3.org/2000/svg" xmlns:xlink="http://www.w3.org/1999/xlink" x="0px" y="0px"
	 viewBox="0 0 24 24" style="enable-background:new 0 0 24 24;" xml:space="preserve">
<g>
	<title>instrument-french-horn</title>
	<path d="M4.5,24c-0.191,0-0.362-0.106-0.447-0.276C3.967,23.553,3.986,23.352,4.1,23.2c0.451-0.601,0.829-1.394,1.125-2.359
		c-1.939-1.129-3.368-2.999-3.939-5.162c-0.011-0.03-0.016-0.057-0.019-0.074c-0.176-0.694-0.267-1.403-0.267-2.104
		C1.001,8.818,4.81,5.005,9.493,5c7.048-0.176,11.156-1.717,12.553-4.712C22.129,0.113,22.307,0,22.5,0
		c0.036,0,0.073,0.004,0.108,0.012C22.839,0.063,23,0.264,23,0.5v10c0,0.236-0.161,0.437-0.392,0.488
		C22.573,10.996,22.536,11,22.5,11c-0.193,0-0.371-0.113-0.453-0.288C20.65,7.718,16.544,6.177,9.492,6
		c-4.128,0.002-7.492,3.367-7.491,7.502c0,0.496,0.052,0.999,0.153,1.499h3.841C5.998,14.83,6,14.663,6,14.5v-1
		C6,10.467,8.467,8,11.5,8h1c3.033,0,5.5,2.467,5.5,5.5c-0.001,0.675-0.086,1.36-0.253,2.036c-0.004,0.05-0.016,0.1-0.036,0.149
		c0,0-0.011,0.047-0.016,0.064c-0.468,1.701-1.442,3.193-2.817,4.316c-0.044,0.054-0.096,0.096-0.155,0.125
		c-1.186,0.923-2.595,1.519-4.08,1.724c-0.049,0.015-0.096,0.023-0.143,0.023c-0.008,0-0.017,0-0.026-0.002
		c-0.369,0.044-0.682,0.064-0.983,0.064c-0.44,0-0.886-0.036-1.332-0.108C8.378,22.397,8.627,22.836,8.9,23.2
		c0.115,0.152,0.133,0.353,0.047,0.523C8.862,23.894,8.691,24,8.5,24H4.5z M7.587,23c-0.461-0.84-0.825-1.876-1.087-3.096
		C6.238,21.124,5.874,22.16,5.413,23H7.587z M7.759,20.794c0.57,0.135,1.152,0.204,1.733,0.204c0.169,0,0.339-0.006,0.508-0.018V16
		H7.034C7.118,17.873,7.362,19.484,7.759,20.794z M11,20.844c1.084-0.224,2.114-0.688,3-1.352V16h-3V20.844z M2.431,16
		c0.559,1.588,1.631,2.931,3.062,3.834c0.25-1.115,0.409-2.401,0.474-3.834H2.431z M15,18.59c0.692-0.746,1.226-1.628,1.567-2.59H15
		V18.59z M16.843,15c0.104-0.502,0.156-1.006,0.157-1.5c0-2.481-2.019-4.5-4.5-4.5h-1C9.019,9,7,11.019,7,13.5v1
		c0,0.163,0.002,0.33,0.004,0.5h2.687l-1.138-2.276c-0.078-0.156-0.07-0.338,0.022-0.486C8.666,12.089,8.826,12,9,12h3
		c0.175,0,0.333,0.089,0.425,0.237c0.091,0.146,0.099,0.333,0.022,0.487L11.309,15h2.382l-1.138-2.276
		c-0.077-0.154-0.069-0.34,0.022-0.487C12.667,12.089,12.826,12,13,12h3c0.174,0,0.333,0.089,0.425,0.237
		c0.091,0.146,0.099,0.333,0.022,0.487L16.843,15z M14.5,14.382L15.191,13h-1.382L14.5,14.382z M10.5,14.382L11.191,13H9.809
		L10.5,14.382z M14.958,5.5C18.272,6.089,20.592,7.183,22,8.818V2.182C20.592,3.817,18.272,4.911,14.958,5.5z"/>
</g>
</svg>
