<?xml version="1.0" encoding="utf-8"?>
<!-- Generator: Adobe Illustrator 22.1.0, SVG Export Plug-In . SVG Version: 6.00 Build 0)  -->
<svg version="1.1" id="Layer_1" xmlns="http://www.w3.org/2000/svg" xmlns:xlink="http://www.w3.org/1999/xlink" x="0px" y="0px"
	 viewBox="0 0 24 24" style="enable-background:new 0 0 24 24;" xml:space="preserve">
<g>
	<title>instrument-maracas-1</title>
	<path d="M8.075,20.975c-0.651,0-1.267-0.249-1.736-0.702c-0.48-0.464-0.751-1.088-0.763-1.755c-0.012-0.668,0.238-1.3,0.702-1.78
		c0.02-0.021,2.187-2.188,2.187-2.188L7.69,13.776C7.134,13.956,6.567,14.047,6,14.047c-1.471,0-2.852-0.571-3.89-1.609
		c-0.428-0.428-0.782-0.929-1.053-1.489c-0.027-0.041-0.049-0.087-0.063-0.136C0.058,8.736,0.505,6.266,2.11,4.661
		c1.035-1.035,2.413-1.605,3.881-1.605c0.781,0,1.568,0.169,2.277,0.49c0.035,0.011,0.068,0.027,0.103,0.048
		C8.943,3.866,9.453,4.225,9.889,4.66c0,0,0.001,0.001,0.001,0.001C10.928,5.7,11.5,7.081,11.5,8.55c0,0.571-0.091,1.14-0.271,1.694
		L12,11.016l0.771-0.771C12.591,9.69,12.5,9.12,12.5,8.55c0-1.466,0.57-2.845,1.604-3.883c0.452-0.453,0.974-0.818,1.558-1.092
		c0.01-0.006,0.029-0.016,0.055-0.026c0.725-0.332,1.493-0.5,2.283-0.5c1.47,0,2.851,0.573,3.889,1.611
		c1.605,1.606,2.053,4.076,1.116,6.152c-0.014,0.049-0.035,0.094-0.062,0.135c-0.271,0.561-0.626,1.062-1.054,1.49
		c-1.039,1.039-2.419,1.611-3.889,1.611c-0.571,0-1.139-0.091-1.693-0.271l-0.772,0.772l2.182,2.183
		c0.467,0.483,0.715,1.115,0.704,1.784c-0.011,0.668-0.282,1.292-0.762,1.755c-0.468,0.452-1.084,0.7-1.736,0.7
		c-0.685,0-1.324-0.271-1.799-0.762L12,18.086l-2.131,2.131c-0.459,0.475-1.081,0.745-1.749,0.757L8.075,20.975z M14.837,19.511
		c0.29,0.3,0.674,0.463,1.086,0.463c0.391,0,0.76-0.149,1.041-0.42c0.595-0.575,0.611-1.526,0.037-2.121l-2.173-2.174l-2.121,2.121
		L14.837,19.511z M6.995,17.435C6.719,17.721,6.57,18.1,6.577,18.501s0.17,0.775,0.458,1.053c0.281,0.271,0.65,0.42,1.042,0.42
		c0.411,0,0.795-0.162,1.079-0.457l5.286-5.286c0.01-0.013,0.02-0.027,0.03-0.036c0.015-0.015,0.03-0.026,0.043-0.035l0.809-0.81
		c-0.448-0.249-0.855-0.554-1.211-0.911c-0.356-0.356-0.661-0.762-0.91-1.209c0,0-3.679,3.679-3.681,3.681L6.995,17.435z
		 M9.173,13.843l2.12-2.12l-0.494-0.494c-0.249,0.448-0.554,0.854-0.911,1.21c-0.356,0.356-0.762,0.661-1.212,0.909L9.173,13.843z
		 M15.3,4.952c-0.171,0.127-0.331,0.264-0.477,0.41C13.968,6.218,13.5,7.348,13.5,8.55c0,1.202,0.468,2.332,1.318,3.182
		c0.85,0.85,1.98,1.318,3.182,1.318c1.202,0,2.333-0.469,3.182-1.318c0.146-0.146,0.284-0.307,0.412-0.479l-2.486,0.212
		c-0.03,0.002-0.057,0.003-0.085,0.003c-0.236,0-0.465-0.084-0.645-0.237c-0.204-0.172-0.328-0.414-0.35-0.68
		c-0.01-0.116,0-0.233,0.031-0.347l0.642-2.353l-2.355,0.642c-0.087,0.023-0.175,0.035-0.263,0.035
		c-0.173,0-0.344-0.046-0.496-0.133c-0.232-0.133-0.398-0.348-0.468-0.606c-0.03-0.113-0.041-0.229-0.031-0.346L15.3,4.952z
		 M2.406,11.252c0.128,0.173,0.266,0.333,0.412,0.479C3.666,12.58,4.796,13.047,6,13.047c1.203,0,2.333-0.467,3.181-1.315
		c0.85-0.85,1.318-1.98,1.318-3.182c0-1.201-0.467-2.331-1.316-3.181c-0.003-0.003-0.019-0.02-0.022-0.023
		C9.024,5.208,8.869,5.075,8.7,4.951l0.212,2.492c0.01,0.117-0.001,0.233-0.031,0.346c-0.07,0.258-0.236,0.473-0.468,0.606
		C8.262,8.482,8.09,8.528,7.917,8.528c-0.088,0-0.177-0.012-0.263-0.035L5.298,7.851l0.642,2.353
		c0.031,0.113,0.042,0.23,0.032,0.347c-0.043,0.514-0.48,0.917-0.996,0.917c-0.027,0-0.055-0.001-0.083-0.003L2.406,11.252z
		 M4.976,10.467L4.334,8.114C4.263,7.856,4.298,7.586,4.43,7.355c0.132-0.232,0.347-0.398,0.605-0.469
		C5.121,6.862,5.21,6.851,5.298,6.851s0.177,0.012,0.263,0.035l2.355,0.642l-0.27-3.165C7.118,4.155,6.567,4.05,6.004,4.05
		c-1.205,0-2.337,0.468-3.187,1.318c-1.275,1.275-1.66,3.156-1,4.83L4.976,10.467z M18.702,6.851c0.089,0,0.177,0.012,0.263,0.035
		c0.532,0.145,0.847,0.696,0.702,1.228l-0.642,2.353l3.158-0.269c0.659-1.674,0.274-3.555-1-4.83c-0.85-0.85-1.98-1.318-3.182-1.318
		c-0.567,0-1.121,0.105-1.647,0.312l-0.27,3.166l2.355-0.642C18.524,6.862,18.613,6.851,18.702,6.851z"/>
</g>
</svg>
