<svg xmlns="http://www.w3.org/2000/svg" viewBox="0 0 24 24"><defs><style>.a{fill:none;stroke:currentColor;stroke-linecap:round;stroke-linejoin:round;}</style></defs><title>retouch-select</title><path class="a" d="M19.5,8.25a2.231,2.231,0,0,0,2.5,2.5c-1.615-.006-2.418.86-2.5,2.5a2.211,2.211,0,0,0-2.5-2.5A2.232,2.232,0,0,0,19.5,8.25Z"/><path class="a" d="M12.5,2.25c-.011,2.827,1.368,4.433,4.5,4.5-2.907-.011-4.352,1.549-4.5,4.5-.025-2.784-1.273-4.5-4.5-4.5C10.888,6.71,12.489,5.316,12.5,2.25Z"/><path class="a" d="M.5,18.75v2a1,1,0,0,0,1,1h2"/><path class="a" d="M3.5,2.75h-2a1,1,0,0,0-1,1v2"/><path class="a" d="M23.5,5.75v-2a1,1,0,0,0-1-1h-2"/><path class="a" d="M20.5,21.75h2a1,1,0,0,0,1-1v-2"/><path class="a" d="M17.158,14.75A6,6,0,1,1,7,8.781"/></svg>