<svg xmlns="http://www.w3.org/2000/svg" viewBox="0 0 24 24"><defs><style>.a{fill:none;stroke:currentColor;stroke-linecap:round;stroke-linejoin:round;}</style></defs><title>retouch-landscape</title><path class="a" d="M9,17.492l-1.663-2a1,1,0,0,0-1.587.067L3,19.492H16L12.9,13.281a1,1,0,0,0-1.789,0L8,19.492"/><path class="a" d="M18.5,13v8.5a1,1,0,0,1-1,1H1.5a1,1,0,0,1-1-1v-15a1,1,0,0,1,1-1H8"/><circle class="a" cx="5.004" cy="9.992" r="1.5"/><line class="a" x1="23.496" y1="14.5" x2="14.564" y2="5.568"/><line class="a" x1="11.735" y1="2.739" x2="13.15" y2="4.153"/><line class="a" x1="15.795" y1="1.508" x2="15.405" y2="3.469"/><line class="a" x1="19.075" y1="4.199" x2="17.227" y2="4.965"/><line class="a" x1="10.504" y1="6.799" x2="12.465" y2="6.409"/><line class="a" x1="13.195" y1="10.079" x2="13.961" y2="8.231"/></svg>