<svg xmlns="http://www.w3.org/2000/svg" viewBox="0 0 24 24"><defs><style>.a{fill:none;stroke:currentColor;stroke-linecap:round;stroke-linejoin:round;}</style></defs><title>retouch-sticker</title><path class="a" d="M7.75,9a.25.25,0,1,1-.25.25A.25.25,0,0,1,7.75,9"/><path class="a" d="M5.369,15.5a7.507,7.507,0,0,0,7.561,3.943"/><path class="a" d="M23.489,11.512A11.5,11.5,0,1,0,12,23.5c.171,0,.342,0,.511-.012"/><path class="a" d="M14.5,9.608a2.359,2.359,0,0,1,4,0"/><line class="a" x1="23.489" y1="11.512" x2="12.511" y2="23.488"/><path class="a" d="M12.5,23.5v-1a11,11,0,0,1,11-11"/></svg>