<svg xmlns="http://www.w3.org/2000/svg" viewBox="0 0 24 24"><defs><style>.a{fill:none;stroke:currentColor;stroke-linecap:round;stroke-linejoin:round;stroke-width:1.5px;}</style></defs><title>password-denied</title><path class="a" d="M9,12.75H2.25a1.5,1.5,0,0,1-1.5-1.5v-9A1.5,1.5,0,0,1,2.25.75h18a1.5,1.5,0,0,1,1.5,1.5v6"/><circle class="a" cx="17.25" cy="17.25" r="6"/><line class="a" x1="19.5" y1="14.999" x2="15" y2="19.499"/><line class="a" x1="15" y1="14.999" x2="19.5" y2="19.499"/><path class="a" d="M5.25,6.375a.375.375,0,1,1-.375.375.374.374,0,0,1,.375-.375"/><path class="a" d="M11.25,6.375a.375.375,0,1,1-.375.375.374.374,0,0,1,.375-.375"/><path class="a" d="M17.25,6.375a.375.375,0,1,1-.375.375.374.374,0,0,1,.375-.375"/></svg>