<svg xmlns="http://www.w3.org/2000/svg" viewBox="0 0 24 24"><defs><style>.a{fill:none;stroke:currentColor;stroke-linecap:round;stroke-linejoin:round;stroke-width:1.5px;}</style></defs><title>touch-password-approved</title><polyline class="a" points="20.25 4.5 16.5 9 14.25 6.75"/><path class="a" d="M3.75,12H2.25a1.5,1.5,0,0,1-1.5-1.5V3a1.5,1.5,0,0,1,1.5-1.5h19.5A1.5,1.5,0,0,1,23.25,3v7.5a1.5,1.5,0,0,1-1.5,1.5h-9"/><path class="a" d="M5.25,22.5,2.486,19.39a1.557,1.557,0,1,1,2.327-2.069L6.75,19.5v-9a1.5,1.5,0,0,1,3,0v6.75h1.5a4.5,4.5,0,0,1,4.5,4.5V22.5"/></svg>