<svg xmlns="http://www.w3.org/2000/svg" viewBox="0 0 24 24"><title>content-pen-4</title><path d="M23.436.566a1.5,1.5,0,0,0-2.122,0L19.9,1.98a.5.5,0,0,0,0,.707L21.314,4.1a.5.5,0,0,0,.707,0l1.415-1.414a1.5,1.5,0,0,0,0-2.121Z"/><path d="M3.637,17.537A.5.5,0,0,0,3.18,17.4a.5.5,0,0,0-.364.309L1.308,21.633.345,22.6a.75.75,0,0,0,0,1.061.758.758,0,0,0,1.06,0l.963-.963,3.923-1.509a.5.5,0,0,0,.174-.82Z"/><path d="M19.193,3.394a1.5,1.5,0,0,0-2.122,0l-.707-.707a2,2,0,0,0-2.828,0L9.294,6.93a1,1,0,0,0,0,1.414,1.015,1.015,0,0,0,1.414,0L14.95,4.1l.707.707L4.344,16.122a.5.5,0,0,0,0,.708l2.828,2.828a.5.5,0,0,0,.707,0L20.607,6.929a1.5,1.5,0,0,0,0-2.121Z"/></svg>