<svg xmlns="http://www.w3.org/2000/svg" viewBox="0 0 24 24"><title>content-pen-write-2</title><path d="M8.707,19.8a1,1,0,0,0-1.414,0L6,21.089,4.707,19.8a1,1,0,0,0-1.348-.062l-3,2.5a1,1,0,0,0-.128,1.409,1.016,1.016,0,0,0,1.41.128l2.3-1.916L5.293,23.21a1,1,0,0,0,1.414,0L8,21.917l.793.793A1,1,0,0,0,10.207,21.3Z"/><path d="M14.589,14.8a2.183,2.183,0,0,0-2.975.831c-.5.882-.328,3.718-.262,4.608a.179.179,0,0,0,.092.145.181.181,0,0,0,.172,0c.8-.405,3.308-1.732,3.8-2.614A2.182,2.182,0,0,0,14.589,14.8Zm-.584,2.15a.546.546,0,1,1-.208-.744A.547.547,0,0,1,14.005,16.952Z"/><path d="M23.981,1.83a.5.5,0,0,0-.237-.3L21.125.066a.5.5,0,0,0-.681.193l-.289.517a.907.907,0,0,0-.119-.1L19.719.5a2.455,2.455,0,0,0-3.345.934L13.708,6.164a1,1,0,1,0,1.742.981l2.666-4.734a.455.455,0,0,1,.621-.174s.422.211.474.23l-.962,1.72a.5.5,0,0,0-.045.38.509.509,0,0,0,.237.3l2.62,1.463a.5.5,0,0,0,.68-.193l2.2-3.928A.5.5,0,0,0,23.981,1.83Z"/><path d="M20.573,7.2,17.954,5.74a.5.5,0,0,0-.38-.044.5.5,0,0,0-.3.236L13.615,12.48a.5.5,0,0,0,.193.681l2.619,1.463a.5.5,0,0,0,.68-.193l3.659-6.546A.5.5,0,0,0,20.573,7.2Z"/></svg>