<svg xmlns="http://www.w3.org/2000/svg" viewBox="0 0 24 24"><title>content-pen-3</title><path d="M22.453,1.973a3.1,3.1,0,0,0-3.595-.564.959.959,0,0,0-.095-.143L18.4.9a3.076,3.076,0,0,0-4.345,0L8.581,6.37a1,1,0,0,0,0,1.414,1.012,1.012,0,0,0,1.414,0l5.47-5.47a1.073,1.073,0,0,1,1.517,0l.366.366L15.124,4.905a.517.517,0,0,0,0,.733L18.789,9.3a.517.517,0,0,0,.733,0l2.931-2.931A3.11,3.11,0,0,0,22.453,1.973Z"/><path d="M14.023,6.738a.519.519,0,0,0-.733,0L5.063,14.967a1.554,1.554,0,0,0,0,2.2l2.2,2.2a1.555,1.555,0,0,0,2.2,0l8.228-8.229a.518.518,0,0,0,0-.732Z"/><path d="M3.434,17.76a.5.5,0,0,0-.824.184L.665,23.33a.5.5,0,0,0,.118.523.508.508,0,0,0,.523.117l5.386-1.943a.5.5,0,0,0,.183-.824Z"/></svg>