<svg xmlns="http://www.w3.org/2000/svg" viewBox="0 0 24 24"><title>content-pen-6</title><path d="M5.49,13.617a.5.5,0,0,0-.828.195L3.248,18.054a.5.5,0,0,0,.121.512L6.2,21.394a.5.5,0,0,0,.353.147.486.486,0,0,0,.159-.026L10.951,20.1a.5.5,0,0,0,.2-.828Z"/><path d="M3.369,19.98a.5.5,0,0,0-.707,0L.187,22.455a.5.5,0,0,0,.353.853H.547l2.865-.036a.5.5,0,0,0,.347-.147L4.783,22.1a.5.5,0,0,0,0-.707Z"/><path d="M23.521,5.484,19.278,1.242a1.5,1.5,0,0,0-2.121,0l-.706.707-.262-.286a2.97,2.97,0,0,0-2.146-.97,2.917,2.917,0,0,0-2.185.878L8.676,4.752A1,1,0,1,0,10.09,6.166l3.182-3.181A1.009,1.009,0,0,1,14,2.692a.992.992,0,0,1,.715.323l.291.318.03.03L6.2,12.2a.5.5,0,0,0,0,.707l5.657,5.657a.5.5,0,0,0,.707,0l10.96-10.96A1.5,1.5,0,0,0,23.521,5.484Z"/></svg>