<svg xmlns="http://www.w3.org/2000/svg" viewBox="0 0 24 24"><title>content-pen-5</title><path d="M23.518.615a1,1,0,0,0-1.414,0l-.889.889-.635-.317a2.444,2.444,0,0,0-2.472.175A.848.848,0,0,0,18.05,1.3L17.368.616a2.016,2.016,0,0,0-2.783,0L10.45,4.766H9.483a1,1,0,0,0,0,2h.967a1.955,1.955,0,0,0,1.39-.576l4.113-4.16s.737.734.766.757a.5.5,0,0,0,.018.688L20.66,7.4a.5.5,0,0,0,.691.015l1.066-.976a2.445,2.445,0,0,0,.531-2.881l-.318-.637.888-.888A1,1,0,0,0,23.518.615Z"/><path d="M3,18.4a.5.5,0,0,0-.835.221l-.858,3.146-.9.9a.75.75,0,0,0,1.06,1.061l.9-.9,3.146-.857a.5.5,0,0,0,.352-.355.5.5,0,0,0-.13-.481Z"/><path d="M16.078,4.134a.49.49,0,0,0-.366-.146.5.5,0,0,0-.358.163L3.645,17.049a.5.5,0,0,0,.017.689L6.4,20.473a.5.5,0,0,0,.354.146.494.494,0,0,0,.335-.13L19.982,8.78A.5.5,0,0,0,20,8.057Z"/></svg>