<svg xmlns="http://www.w3.org/2000/svg" viewBox="0 0 24 24"><title>content-ink-pen</title><path d="M23.229.772A1.073,1.073,0,0,0,21.821.678L10.2,9.564a.511.511,0,0,0-.113.119L7.26,13.926a.5.5,0,0,0,.063.631l2.121,2.121a.5.5,0,0,0,.353.147.506.506,0,0,0,.278-.084l4.242-2.828a.515.515,0,0,0,.12-.113L23.323,2.179A1.074,1.074,0,0,0,23.229.772Z"/><path d="M6.616,15.264a.516.516,0,0,0-.707,0l-.561.561H3.5a1.5,1.5,0,0,0-1.45,1.119L.475,22.916a.5.5,0,0,0,.13.48.509.509,0,0,0,.48.13l5.972-1.571A1.5,1.5,0,0,0,8.176,20.5V18.654l.561-.561a.5.5,0,0,0,0-.707ZM5.91,19.155a.75.75,0,1,1,0-1.061A.75.75,0,0,1,5.91,19.155Z"/></svg>