<?xml version="1.0" encoding="utf-8"?>
<!-- Generator: Adobe Illustrator 22.1.0, SVG Export Plug-In . SVG Version: 6.00 Build 0)  -->
<svg version="1.1" id="Layer_1" xmlns="http://www.w3.org/2000/svg" xmlns:xlink="http://www.w3.org/1999/xlink" x="0px" y="0px"
	 viewBox="0 0 24 24" style="enable-background:new 0 0 24 24;" xml:space="preserve">
<title>exit</title>
<g>
	<path d="M15.75,16.504c-0.414,0-0.75-0.336-0.75-0.75v-7.5c0-0.414,0.336-0.75,0.75-0.75s0.75,0.336,0.75,0.75v7.5
		C16.5,16.167,16.164,16.504,15.75,16.504z"/>
	<path d="M20.25,16.504c-0.414,0-0.75-0.336-0.75-0.75v-6.75h-0.75c-0.414,0-0.75-0.336-0.75-0.75s0.336-0.75,0.75-0.75h3
		c0.414,0,0.75,0.336,0.75,0.75s-0.336,0.75-0.75,0.75H21v6.75C21,16.167,20.664,16.504,20.25,16.504z"/>
	<path d="M12,16.504c-0.309,0-0.582-0.185-0.697-0.472L10.5,14.023l-0.804,2.009C9.582,16.319,9.309,16.504,9,16.504
		c-0.096,0-0.19-0.018-0.279-0.054c-0.186-0.074-0.332-0.217-0.41-0.401c-0.079-0.184-0.081-0.388-0.007-0.574l1.389-3.471
		L8.304,8.532c-0.074-0.186-0.072-0.39,0.007-0.574C8.39,7.774,8.535,7.632,8.721,7.558C8.811,7.522,8.904,7.504,9,7.504
		c0.309,0,0.582,0.185,0.697,0.472L10.5,9.984l0.804-2.009C11.418,7.689,11.692,7.504,12,7.504c0.096,0,0.189,0.018,0.279,0.054
		c0.186,0.074,0.332,0.217,0.411,0.401c0.079,0.184,0.081,0.388,0.007,0.574l-1.389,3.471l1.389,3.472
		c0.074,0.186,0.072,0.39-0.007,0.574c-0.079,0.184-0.225,0.326-0.411,0.401C12.19,16.486,12.096,16.504,12,16.504z"/>
	<path d="M3.75,16.504c-1.241,0-2.25-1.009-2.25-2.25v-4.5c0-1.241,1.009-2.25,2.25-2.25h1.5C5.664,7.504,6,7.84,6,8.254
		s-0.336,0.75-0.75,0.75h-1.5C3.336,9.004,3,9.34,3,9.754v2.25h2.25c0.414,0,0.75,0.336,0.75,0.75s-0.336,0.75-0.75,0.75H3v0.75
		c0,0.414,0.336,0.75,0.75,0.75h1.5c0.414,0,0.75,0.336,0.75,0.75s-0.336,0.75-0.75,0.75H3.75z"/>
	<path d="M0.75,4.504C0.336,4.504,0,4.167,0,3.754s0.336-0.75,0.75-0.75h22.5c0.414,0,0.75,0.336,0.75,0.75s-0.336,0.75-0.75,0.75
		H0.75z"/>
	<path d="M0.75,21.004c-0.414,0-0.75-0.336-0.75-0.75s0.336-0.75,0.75-0.75h22.5c0.414,0,0.75,0.336,0.75,0.75
		s-0.336,0.75-0.75,0.75H0.75z"/>
</g>
</svg>
