<?xml version="1.0" encoding="utf-8"?>
<!-- Generator: Adobe Illustrator 22.1.0, SVG Export Plug-In . SVG Version: 6.00 Build 0)  -->
<svg version="1.1" id="Layer_1" xmlns="http://www.w3.org/2000/svg" xmlns:xlink="http://www.w3.org/1999/xlink" x="0px" y="0px"
	 viewBox="0 0 24 24" style="enable-background:new 0 0 24 24;" xml:space="preserve">
<title>login</title>
<g>
	<path d="M11.245,16.494c-0.2,0-0.389-0.078-0.53-0.22l-3.75-3.75c-0.07-0.07-0.125-0.153-0.164-0.246
		c-0.003-0.007-0.006-0.015-0.008-0.023c-0.032-0.086-0.048-0.174-0.048-0.262c0-0.089,0.016-0.178,0.049-0.264
		c0.004-0.013,0.01-0.026,0.015-0.037c0.031-0.077,0.086-0.16,0.157-0.23l3.749-3.749c0.142-0.142,0.33-0.22,0.53-0.22
		s0.389,0.078,0.53,0.22c0.142,0.141,0.22,0.33,0.22,0.53s-0.078,0.389-0.22,0.53l-2.47,2.47h13.939c0.414,0,0.75,0.336,0.75,0.75
		s-0.336,0.75-0.75,0.75H9.305l2.47,2.47c0.292,0.292,0.292,0.768,0,1.061C11.633,16.416,11.445,16.494,11.245,16.494z"/>
	<path d="M11.229,23.244c-1.71,0-3.361-0.382-4.907-1.134c-2.702-1.315-4.73-3.604-5.71-6.444c-0.981-2.84-0.796-5.893,0.519-8.595
		c1.315-2.702,3.604-4.73,6.444-5.71c1.194-0.412,2.432-0.621,3.68-0.621c1.707,0,3.36,0.384,4.915,1.14
		c2.146,1.045,3.875,2.71,5,4.816c0.195,0.364,0.057,0.82-0.308,1.015c-0.109,0.058-0.231,0.089-0.353,0.089
		c-0.277,0-0.531-0.152-0.662-0.397c-0.975-1.825-2.473-3.268-4.333-4.174c-1.348-0.656-2.781-0.989-4.259-0.989
		c-1.081,0-2.154,0.181-3.19,0.539C5.603,3.628,3.62,5.386,2.48,7.727c-1.14,2.342-1.3,4.987-0.45,7.449
		c0.85,2.462,2.607,4.445,4.949,5.585c1.34,0.652,2.77,0.982,4.251,0.982c3.714,0,7.162-2.152,8.783-5.481
		c0.124-0.256,0.389-0.422,0.674-0.422c0.113,0,0.227,0.026,0.328,0.076c0.18,0.088,0.315,0.24,0.381,0.43
		c0.065,0.189,0.053,0.393-0.035,0.573C19.492,20.761,15.514,23.244,11.229,23.244z"/>
</g>
</svg>
