<?xml version="1.0" encoding="utf-8"?>
<!-- Generator: Adobe Illustrator 22.1.0, SVG Export Plug-In . SVG Version: 6.00 Build 0)  -->
<svg version="1.1" id="Layer_1" xmlns="http://www.w3.org/2000/svg" xmlns:xlink="http://www.w3.org/1999/xlink" x="0px" y="0px"
	 viewBox="0 0 24 24" style="enable-background:new 0 0 24 24;" xml:space="preserve">
<title>logout-2</title>
<g>
	<path d="M14.244,22.507c-0.414,0-0.75-0.336-0.75-0.75s0.336-0.75,0.75-0.75h4.5c0.414,0,0.75-0.336,0.75-0.75v-1.5
		c0-0.414,0.336-0.75,0.75-0.75s0.75,0.336,0.75,0.75v1.5c0,1.241-1.009,2.25-2.25,2.25H14.244z"/>
	<path d="M20.244,7.507c-0.414,0-0.75-0.336-0.75-0.75v-1.5c0-0.414-0.336-0.75-0.75-0.75h-4.5c-0.414,0-0.75-0.336-0.75-0.75
		s0.336-0.75,0.75-0.75h4.5c1.241,0,2.25,1.009,2.25,2.25v1.5C20.994,7.17,20.657,7.507,20.244,7.507z"/>
	<path d="M10.493,24.006c-0.071,0-0.143-0.005-0.214-0.016l-8.997-1.285c-0.734-0.105-1.287-0.743-1.288-1.484V3.728
		C-0.007,3.024,0.492,2.407,1.18,2.26l8.977-2.216c0.117-0.025,0.225-0.037,0.333-0.037c0.705,0,1.324,0.498,1.471,1.184
		c0.022,0.103,0.033,0.209,0.033,0.315v21c0,0.401-0.156,0.778-0.44,1.061C11.271,23.85,10.894,24.006,10.493,24.006L10.493,24.006z
		 M1.517,3.722L1.493,3.73l0.001,17.49c0,0,9.001,1.285,9.002,1.285l-0.002-21L1.517,3.722z"/>
	<path d="M20.245,16.506c-0.2,0-0.389-0.078-0.53-0.22s-0.22-0.33-0.22-0.53s0.078-0.389,0.22-0.53l1.72-1.72h-6.441
		c-0.414,0-0.75-0.336-0.75-0.75s0.336-0.75,0.75-0.75h6.439l-1.72-1.72c-0.142-0.141-0.22-0.33-0.22-0.53s0.078-0.389,0.22-0.53
		s0.33-0.22,0.53-0.22s0.389,0.078,0.53,0.22c0,0,2.995,2.994,3.001,3c0.015,0.015,0.031,0.035,0.045,0.054
		c0.041,0.049,0.074,0.102,0.101,0.158c0.015,0.032,0.026,0.063,0.036,0.096c0.016,0.053,0.026,0.103,0.031,0.154
		c0.004,0.042,0.005,0.072,0.004,0.103c-0.004,0.063-0.015,0.122-0.034,0.186c-0.01,0.034-0.02,0.063-0.033,0.093
		c-0.026,0.058-0.062,0.115-0.106,0.167c-0.013,0.019-0.028,0.036-0.042,0.051l-3,3C20.634,16.427,20.445,16.506,20.245,16.506z"/>
	<path d="M7.869,13.132c-0.62,0-1.125-0.505-1.125-1.125c0-0.573,0.425-1.05,0.992-1.117c0.044-0.008,0.088-0.012,0.133-0.012
		c0.622,0.002,1.126,0.507,1.125,1.127C8.994,12.625,8.489,13.132,7.869,13.132z"/>
</g>
</svg>
