<?xml version="1.0" encoding="utf-8"?>
<!-- Generator: Adobe Illustrator 22.1.0, SVG Export Plug-In . SVG Version: 6.00 Build 0)  -->
<svg version="1.1" id="Layer_1" xmlns="http://www.w3.org/2000/svg" xmlns:xlink="http://www.w3.org/1999/xlink" x="0px" y="0px"
	 viewBox="0 0 24 24" style="enable-background:new 0 0 24 24;" xml:space="preserve">
<title>logout</title>
<g>
	<path d="M12.755,16.504c-0.2,0-0.389-0.078-0.53-0.22c-0.292-0.292-0.292-0.768,0-1.061l2.47-2.47H0.755
		c-0.414,0-0.75-0.336-0.75-0.75s0.336-0.75,0.75-0.75h13.939l-2.47-2.47c-0.142-0.141-0.22-0.33-0.22-0.53s0.078-0.389,0.22-0.53
		c0.141-0.142,0.33-0.22,0.53-0.22s0.389,0.078,0.53,0.22l3.75,3.75c0.07,0.07,0.125,0.152,0.163,0.245
		c0.003,0.008,0.007,0.017,0.01,0.026c0.031,0.081,0.047,0.17,0.047,0.259c0,0.087-0.016,0.174-0.047,0.258
		c-0.002,0.006-0.004,0.011-0.006,0.016c-0.042,0.104-0.098,0.186-0.168,0.257l-3.749,3.749
		C13.144,16.426,12.955,16.504,12.755,16.504z"/>
	<path d="M12.769,23.253c-4.285,0-8.262-2.483-10.132-6.325c-0.088-0.18-0.1-0.383-0.035-0.573s0.201-0.342,0.381-0.43
		c0.104-0.05,0.214-0.075,0.328-0.075c0.29,0,0.548,0.162,0.675,0.422c1.14,2.342,3.123,4.099,5.585,4.949
		c1.036,0.358,2.109,0.539,3.189,0.539c1.479,0,2.912-0.333,4.26-0.989c2.342-1.14,4.099-3.123,4.949-5.585
		c0.85-2.462,0.69-5.107-0.45-7.449c-1.621-3.33-5.068-5.482-8.783-5.482c-1.481,0-2.912,0.331-4.251,0.983
		c-1.86,0.905-3.359,2.349-4.333,4.173C4.021,7.656,3.768,7.808,3.49,7.808c-0.122,0-0.244-0.031-0.353-0.088
		c-0.365-0.195-0.503-0.65-0.309-1.015c1.125-2.106,2.853-3.771,5-4.816c1.546-0.753,3.197-1.134,4.907-1.134
		c4.285,0,8.262,2.483,10.132,6.326c1.315,2.702,1.5,5.754,0.519,8.595c-0.98,2.841-3.009,5.129-5.71,6.444
		C16.13,22.872,14.48,23.253,12.769,23.253z"/>
</g>
</svg>
