<svg xmlns="http://www.w3.org/2000/svg" viewBox="0 0 24 24"><defs><style>.a{fill:none;stroke:currentColor;stroke-linecap:round;stroke-linejoin:round;stroke-width:1.5px;}</style></defs><title>headphones-wave</title><rect class="a" x="0.75" y="14.25" width="3" height="6" rx="1.5" ry="1.5"/><rect class="a" x="20.25" y="14.25" width="3" height="6" rx="1.5" ry="1.5"/><path class="a" d="M6.75,15.75H7.833A.75.75,0,0,0,8.47,15.4l1.282-2.059a.75.75,0,0,1,1.322.092l1.894,4.261a.75.75,0,0,0,1.3.133l1.263-1.76a.746.746,0,0,1,.609-.313H17.25"/><path class="a" d="M20.25,15.752V12A8.274,8.274,0,0,0,12,3.75h0A8.274,8.274,0,0,0,3.75,12v3.752"/></svg>