<svg xmlns="http://www.w3.org/2000/svg" viewBox="0 0 24 24"><defs><style>.a{fill:none;stroke:currentColor;stroke-linecap:round;stroke-linejoin:round;stroke-width:1.5px;}</style></defs><title>headphones</title><path class="a" d="M18.75,21.375h0a4.5,4.5,0,0,0,4.5-4.5h0a4.5,4.5,0,0,0-4.5-4.5h0a1.5,1.5,0,0,0-1.5,1.5v6A1.5,1.5,0,0,0,18.75,21.375Z"/><path class="a" d="M5.25,21.375h0a4.5,4.5,0,0,1-4.5-4.5h0a4.5,4.5,0,0,1,4.5-4.5h0a1.5,1.5,0,0,1,1.5,1.5v6A1.5,1.5,0,0,1,5.25,21.375Z"/><path class="a" d="M3.75,12.631V10.875A8.274,8.274,0,0,1,12,2.625h0a8.274,8.274,0,0,1,8.25,8.25v1.756"/></svg>