<?xml version="1.0" encoding="utf-8"?>
<!-- Generator: Adobe Illustrator 22.1.0, SVG Export Plug-In . SVG Version: 6.00 Build 0)  -->
<svg version="1.1" id="Layer_1" xmlns="http://www.w3.org/2000/svg" xmlns:xlink="http://www.w3.org/1999/xlink" x="0px" y="0px"
	 viewBox="0 0 24 24" style="enable-background:new 0 0 24 24;" xml:space="preserve">
<title>printer</title>
<g>
	<path d="M5.25,24c-0.226,0-0.437-0.1-0.58-0.274c-0.143-0.175-0.2-0.402-0.155-0.623L5.235,19.5H2.25C1.009,19.5,0,18.491,0,17.25
		v-6c0-0.051,0.005-0.102,0.016-0.153c0.001-0.007,0.003-0.014,0.005-0.021c0.01-0.042,0.024-0.084,0.043-0.127
		c0.005-0.014,0.012-0.028,0.018-0.04l2.582-5.165C3.048,4.976,3.819,4.5,4.677,4.5H6V0.75C6,0.336,6.336,0,6.75,0h10.5
		C17.664,0,18,0.336,18,0.75V4.5h1.323c0.858,0,1.629,0.476,2.013,1.244l2.585,5.171c0.006,0.012,0.012,0.025,0.017,0.039
		c0.021,0.049,0.035,0.092,0.045,0.136c0.002,0.007,0.003,0.015,0.004,0.022C23.996,11.164,24,11.207,24,11.25v6
		c0,1.241-1.009,2.25-2.25,2.25h-2.985l0.72,3.603c0.044,0.221-0.012,0.448-0.155,0.623C19.187,23.9,18.976,24,18.75,24H5.25z
		 M17.835,22.5l-1.2-6H7.365l-1.2,6H17.835z M21.75,18c0.414,0,0.75-0.336,0.75-0.75V12h-21v5.25C1.5,17.664,1.836,18,2.25,18h3.285
		l0.479-2.397C6.084,15.254,6.394,15,6.75,15h10.5c0.356,0,0.666,0.254,0.735,0.603L18.465,18H21.75z M22.037,10.5l-2.042-4.086
		C19.866,6.159,19.609,6,19.323,6H18v2.25C18,8.664,17.664,9,17.25,9H6.75C6.336,9,6,8.664,6,8.25V6H4.677
		C4.391,6,4.134,6.159,4.006,6.415L1.963,10.5H22.037z M16.5,7.5v-6h-9v6H16.5z"/>
	<circle cx="20.625" cy="14.625" r="1.125"/>
	<path d="M9.75,21C9.336,21,9,20.664,9,20.25s0.336-0.75,0.75-0.75h4.5c0.414,0,0.75,0.336,0.75,0.75S14.664,21,14.25,21H9.75z"/>
</g>
</svg>
