<?xml version="1.0" encoding="utf-8"?>
<!-- Generator: Adobe Illustrator 22.1.0, SVG Export Plug-In . SVG Version: 6.00 Build 0)  -->
<svg version="1.1" id="Layer_1" xmlns="http://www.w3.org/2000/svg" xmlns:xlink="http://www.w3.org/1999/xlink" x="0px" y="0px"
	 viewBox="0 0 24 24" style="enable-background:new 0 0 24 24;" xml:space="preserve">
<title>common-file-give-hand</title>
<g>
	<path d="M0.75,24C0.336,24,0,23.664,0,23.25v-9c0-0.414,0.336-0.75,0.75-0.75s0.75,0.336,0.75,0.75V15H6c1.8,0,3.324,1.268,3.675,3
		h3.075c2.068,0,3.75,1.682,3.75,3.75c0,0.414-0.336,0.75-0.75,0.75H1.5v0.75C1.5,23.664,1.164,24,0.75,24z M14.871,21
		c-0.313-0.879-1.159-1.5-2.121-1.5H6c-0.414,0-0.75-0.336-0.75-0.75S5.586,18,6,18h2.118C7.805,17.121,6.96,16.5,6,16.5H1.5V21
		H14.871z"/>
	<path d="M12.583,16.5c-1.149,0-2.083-0.934-2.083-2.083V2.083C10.5,0.934,11.434,0,12.583,0h6.781c0.55,0,1.087,0.223,1.474,0.611
		l2.551,2.551C23.777,3.549,24,4.087,24,4.636v9.781c0,1.149-0.934,2.083-2.083,2.083H12.583z M12.583,1.5
		C12.261,1.5,12,1.761,12,2.083v12.334C12,14.739,12.261,15,12.583,15h9.334c0.322,0,0.583-0.261,0.583-0.583V4.636
		c0-0.154-0.062-0.304-0.17-0.412l-2.553-2.553C19.668,1.562,19.518,1.5,19.365,1.5H12.583z"/>
</g>
</svg>
