<?xml version="1.0" encoding="utf-8"?>
<!-- Generator: Adobe Illustrator 22.1.0, SVG Export Plug-In . SVG Version: 6.00 Build 0)  -->
<svg version="1.1" id="Layer_1" xmlns="http://www.w3.org/2000/svg" xmlns:xlink="http://www.w3.org/1999/xlink" x="0px" y="0px"
	 viewBox="0 0 24 24" style="enable-background:new 0 0 24 24;" xml:space="preserve">
<title>common-file-search</title>
<g>
	<path d="M2.25,21C1.009,21,0,19.991,0,18.75V2.25C0,1.009,1.009,0,2.25,0h10.629c0.601,0,1.165,0.234,1.59,0.658l2.872,2.872
		C17.766,3.955,18,4.52,18,5.121V7.5c0,0.414-0.336,0.75-0.75,0.75S16.5,7.914,16.5,7.5V5.121c0-0.197-0.08-0.39-0.219-0.53
		l-2.872-2.872c-0.142-0.141-0.33-0.219-0.53-0.219H2.25C1.836,1.5,1.5,1.836,1.5,2.25v16.5c0,0.414,0.336,0.75,0.75,0.75H7.5
		c0.414,0,0.75,0.336,0.75,0.75S7.914,21,7.5,21H2.25z"/>
	<path d="M23.25,24c-0.201,0-0.389-0.078-0.531-0.221l-3.279-3.292c-1.05,0.816-2.343,1.262-3.676,1.262c-3.308,0-6-2.692-6-6
		s2.692-6,6-6s6,2.692,6,6c0,1.334-0.447,2.626-1.264,3.677l3.281,3.293C23.923,22.863,24,23.051,24,23.251
		c0,0.2-0.079,0.388-0.221,0.53C23.638,23.922,23.45,24,23.25,24z M15.764,11.25c-2.481,0-4.5,2.019-4.5,4.5s2.019,4.5,4.5,4.5
		s4.5-2.019,4.5-4.5S18.245,11.25,15.764,11.25z"/>
</g>
</svg>
