<svg xmlns="http://www.w3.org/2000/svg" viewBox="0 0 24 24"><title>read-email-letter</title><path d="M21,10.5H3a1.974,1.974,0,0,0-2,1.942v9.616A1.974,1.974,0,0,0,3,24H21a1.974,1.974,0,0,0,2-1.942V12.442A1.974,1.974,0,0,0,21,10.5Zm-.5,4v2a1,1,0,0,1-1,1h-2a1,1,0,0,1-1-1v-2a1,1,0,0,1,1-1h2A1,1,0,0,1,20.5,14.5Zm-16,4.75H10a.75.75,0,0,1,0,1.5H4.5a.75.75,0,0,1,0-1.5ZM3.75,16.5a.75.75,0,0,1,.75-.75h2a.75.75,0,0,1,0,1.5h-2A.75.75,0,0,1,3.75,16.5Z"/><path d="M4,9A1,1,0,0,0,5,8V2H15.586L19,5.414V8a1,1,0,0,0,2,0V5a1,1,0,0,0-.293-.707l-4-4A1,1,0,0,0,16,0H5A2,2,0,0,0,3,2V8A1,1,0,0,0,4,9Z"/><path d="M7.5,4.75a.75.75,0,0,0,0,1.5h6a.75.75,0,0,0,0-1.5Z"/></svg>