<svg xmlns="http://www.w3.org/2000/svg" viewBox="0 0 24 24"><title>dial-pad</title><circle cx="4.159" cy="2.591" r="2.591"/><circle cx="11.968" cy="2.591" r="2.591"/><path d="M19.841,5.182A2.591,2.591,0,1,0,17.25,2.591,2.594,2.594,0,0,0,19.841,5.182Z"/><path d="M4.159,6.273A2.591,2.591,0,1,0,6.75,8.863,2.593,2.593,0,0,0,4.159,6.273Z"/><path d="M11.968,6.273a2.591,2.591,0,1,0,2.59,2.59A2.593,2.593,0,0,0,11.968,6.273Z"/><path d="M19.841,6.273a2.591,2.591,0,1,0,2.591,2.59A2.593,2.593,0,0,0,19.841,6.273Z"/><path d="M4.159,12.546A2.591,2.591,0,1,0,6.75,15.137,2.594,2.594,0,0,0,4.159,12.546Z"/><path d="M11.968,12.546a2.591,2.591,0,1,0,2.59,2.591A2.594,2.594,0,0,0,11.968,12.546Z"/><circle cx="11.968" cy="21.409" r="2.591"/><path d="M19.841,12.546a2.591,2.591,0,1,0,2.591,2.591A2.594,2.594,0,0,0,19.841,12.546Z"/></svg>