<svg xmlns="http://www.w3.org/2000/svg" viewBox="0 0 24 24"><defs><style>.a{fill:none;stroke:currentColor;stroke-linecap:round;stroke-linejoin:round;stroke-width:1.5px;}</style></defs><title>door-lock</title><rect class="a" x="0.75" y="9.75" width="10.5" height="9" rx="1.5" ry="1.5"/><path class="a" d="M6,13.875a.375.375,0,1,0,.375.375A.374.374,0,0,0,6,13.875H6"/><path class="a" d="M2.25,9.75V7.5a3.75,3.75,0,0,1,7.5,0V9.75"/><path class="a" d="M9.75,21.75a1.5,1.5,0,0,0,1.5,1.5h10.5a1.5,1.5,0,0,0,1.5-1.5V2.25a1.5,1.5,0,0,0-1.5-1.5H11.25a1.5,1.5,0,0,0-1.5,1.5"/></svg>