<svg xmlns="http://www.w3.org/2000/svg" viewBox="0 0 24 24"><defs><style>.a{fill:none;stroke:currentColor;stroke-linecap:round;stroke-linejoin:round;stroke-width:1.5px;}</style></defs><title>key-lock-1</title><circle class="a" cx="3.75" cy="20.25" r="3"/><polyline class="a" points="6.75 20.25 14.25 20.25 14.25 22.5"/><line class="a" x1="11.25" y1="20.25" x2="11.25" y2="21.75"/><path class="a" d="M6.75,15V11.25a1.5,1.5,0,0,1,1.5-1.5h13.5a1.5,1.5,0,0,1,1.5,1.5v10.5a1.5,1.5,0,0,1-1.5,1.5h-4.5"/><path class="a" d="M9.75,9.75V6a5.25,5.25,0,0,1,10.5,0V9.75"/><path class="a" d="M12.914,17.343a2.25,2.25,0,1,1,3.608.813"/></svg>