<svg xmlns="http://www.w3.org/2000/svg" viewBox="0 0 24 24"><defs><style>.a{fill:none;stroke:currentColor;stroke-linecap:round;stroke-linejoin:round;stroke-width:1.5px;}</style></defs><title>audio-document-mp3-1</title><polyline class="a" points="7.5 18 7.5 10.5 5.25 14.25 3 10.5 3 18"/><line class="a" x1="10.5" y1="18" x2="10.5" y2="10.5"/><path class="a" d="M10.5,10.5h.75a2.25,2.25,0,0,1,0,4.5H10.5"/><path class="a" d="M16.5,12A1.5,1.5,0,0,1,18,10.5l1.135.005a1.873,1.873,0,0,1-.008,3.745A1.873,1.873,0,0,1,19.135,18L18,18a1.5,1.5,0,0,1-1.5-1.5"/><path class="a" d="M23.25,21v.75a1.5,1.5,0,0,1-1.5,1.5H2.25a1.5,1.5,0,0,1-1.5-1.5V21"/><path class="a" d="M.75,7.5V2.25A1.5,1.5,0,0,1,2.25.75h19.5a1.5,1.5,0,0,1,1.5,1.5V7.5"/></svg>