<?xml version="1.0" encoding="utf-8"?>
<!-- Generator: Adobe Illustrator 22.1.0, SVG Export Plug-In . SVG Version: 6.00 Build 0)  -->
<svg version="1.1" id="Layer_1" xmlns="http://www.w3.org/2000/svg" xmlns:xlink="http://www.w3.org/1999/xlink" x="0px" y="0px"
	 viewBox="0 0 24 24" style="enable-background:new 0 0 24 24;" xml:space="preserve">
<g>
	<title>video-player-adjust-finger</title>
	<path d="M22.5,24c-0.276,0-0.5-0.224-0.5-0.5v-2.668c0-1.562-1.271-2.832-2.833-2.832H17.5c-0.276,0-0.5-0.224-0.5-0.5V13
		c0-0.552-0.448-1-1-1s-1,0.448-1,1v7c0,0.194-0.113,0.372-0.289,0.453C14.645,20.484,14.574,20.5,14.5,20.5
		c-0.117,0-0.231-0.041-0.321-0.116l-1.289-1.08c-0.022-0.019-0.044-0.04-0.063-0.064c-0.128-0.154-0.309-0.249-0.508-0.267
		c-0.022-0.002-0.045-0.003-0.068-0.003c-0.178,0-0.344,0.06-0.48,0.174c-0.318,0.265-0.361,0.739-0.097,1.057l2.479,2.98
		c0.086,0.103,0.126,0.233,0.114,0.366c-0.012,0.133-0.075,0.253-0.178,0.338C13.998,23.959,13.885,24,13.768,24
		c-0.149,0-0.289-0.066-0.385-0.18l-2.479-2.98c-0.617-0.742-0.516-1.847,0.225-2.465c0.314-0.262,0.71-0.406,1.113-0.406
		c0.056,0,0.111,0.003,0.167,0.008c0.447,0.041,0.856,0.249,1.153,0.586L14,18.929V13c0-1.103,0.897-2,2-2s2,0.897,2,2v4h1.167
		c2.113,0,3.833,1.719,3.833,3.832V23.5C23,23.776,22.776,24,22.5,24z"/>
	<path d="M2,19c-1.138-0.033-2.032-0.977-2-2.103L0,2.089C-0.032,0.974,0.859,0.033,1.985,0L22,0c1.138,0.033,2.031,0.977,2,2.103
		v14.808c0,0.276-0.224,0.5-0.5,0.5s-0.5-0.224-0.5-0.5V2.089C23.016,1.502,22.561,1.017,21.985,1L2,1
		C1.436,1.017,0.983,1.499,1,2.075l0,14.836C0.984,17.498,1.439,17.983,2.015,18H9c0.276,0,0.5,0.224,0.5,0.5S9.276,19,9,19H2z"/>
	<path d="M19.5,15c-0.276,0-0.5-0.224-0.5-0.5s0.224-0.5,0.5-0.5h1c0.276,0,0.5,0.224,0.5,0.5S20.776,15,20.5,15H19.5z"/>
	<path d="M5.5,16C5.224,16,5,15.776,5,15.5V15H3.5C3.224,15,3,14.776,3,14.5S3.224,14,3.5,14H5v-0.5C5,13.224,5.224,13,5.5,13
		S6,13.224,6,13.5V14h6.5c0.276,0,0.5,0.224,0.5,0.5S12.776,15,12.5,15H6v0.5C6,15.776,5.776,16,5.5,16z"/>
	<path d="M8.646,11c-0.401,0-0.778-0.213-0.983-0.555C7.556,10.266,7.5,10.062,7.5,9.855v-5.46c0-0.631,0.514-1.145,1.145-1.145
		c0.201,0,0.4,0.053,0.573,0.154l5.878,2.714c0.016,0.007,0.031,0.015,0.047,0.025c0.542,0.326,0.718,1.03,0.393,1.572
		c-0.096,0.161-0.232,0.296-0.393,0.393c-0.017,0.01-0.033,0.019-0.051,0.027l-5.895,2.723C9.045,10.947,8.847,11,8.646,11z
		 M8.645,4.25C8.565,4.25,8.5,4.315,8.5,4.395v5.46c0,0.026,0.007,0.052,0.021,0.075c0.02,0.033,0.051,0.056,0.089,0.065
		C8.622,9.999,8.634,10,8.645,10c0.026,0,0.051-0.007,0.075-0.021C8.735,9.97,8.751,9.962,8.767,9.954l5.877-2.715
		c0.014-0.011,0.026-0.025,0.035-0.04c0.02-0.034,0.026-0.072,0.016-0.11c-0.008-0.032-0.026-0.059-0.051-0.079L8.767,4.296
		C8.75,4.288,8.733,4.279,8.717,4.269C8.697,4.257,8.671,4.25,8.645,4.25z"/>
</g>
</svg>
