<?xml version="1.0" encoding="utf-8"?>
<!-- Generator: Adobe Illustrator 22.1.0, SVG Export Plug-In . SVG Version: 6.00 Build 0)  -->
<svg version="1.1" id="Layer_1" xmlns="http://www.w3.org/2000/svg" xmlns:xlink="http://www.w3.org/1999/xlink" x="0px" y="0px"
	 viewBox="0 0 24 24" style="enable-background:new 0 0 24 24;" xml:space="preserve">
<g>
	<title>video-player-device</title>
	<path d="M4,20.996c-0.551,0-1-0.448-1-1v-2.009c0-0.552,0.449-1,1-1h10c0.552,0,1,0.448,1,1v2.009c0,0.552-0.448,1-1,1H4z
		 M4,19.996h10v-2.009H4L4,19.996z"/>
	<path d="M12,10.996c-0.827,0-1.5-0.673-1.5-1.5s0.673-1.5,1.5-1.5s1.5,0.673,1.5,1.5S12.827,10.996,12,10.996z M12,8.996
		c-0.276,0-0.5,0.224-0.5,0.5s0.224,0.5,0.5,0.5c0.276,0,0.5-0.224,0.5-0.5S12.276,8.996,12,8.996z"/>
	<path d="M20.5,23.996c-0.276,0-0.5-0.224-0.5-0.5v-0.5H4v0.5c0,0.276-0.224,0.5-0.5,0.5S3,23.771,3,23.496v-0.5H2.5
		c-1.379,0-2.5-1.122-2.5-2.5v-3c0-1.378,1.121-2.5,2.5-2.5h19c1.378,0,2.5,1.122,2.5,2.5v3c0,1.378-1.122,2.5-2.5,2.5H21v0.5
		C21,23.771,20.776,23.996,20.5,23.996z M2.5,15.996c-0.827,0-1.5,0.673-1.5,1.5v3c0,0.827,0.673,1.5,1.5,1.5h19
		c0.827,0,1.5-0.673,1.5-1.5v-3c0-0.827-0.673-1.5-1.5-1.5H21v1c0,0.276-0.224,0.5-0.5,0.5s-0.5-0.224-0.5-0.5v-1h-2v1
		c0,0.276-0.224,0.5-0.5,0.5s-0.5-0.224-0.5-0.5v-1H2.5z"/>
	<path d="M12,12.996c-1.93,0-3.5-1.57-3.5-3.5c0-1.93,1.57-3.5,3.5-3.5s3.5,1.57,3.5,3.5C15.5,11.426,13.93,12.996,12,12.996z
		 M12,6.996c-1.379,0-2.5,1.121-2.5,2.5c0,1.378,1.121,2.5,2.5,2.5c1.378,0,2.5-1.121,2.5-2.5C14.5,8.117,13.378,6.996,12,6.996z"/>
	<path d="M18,9.996c-0.276,0-0.5-0.224-0.5-0.5c0-3.033-2.467-5.5-5.5-5.5c-0.276,0-0.5-0.224-0.5-0.5s0.224-0.5,0.5-0.5
		c3.584,0,6.5,2.916,6.5,6.5C18.5,9.772,18.276,9.996,18,9.996z"/>
	<path d="M20.057,13.996c-0.077,0-0.154-0.018-0.223-0.052c-0.119-0.059-0.208-0.162-0.251-0.289
		c-0.042-0.126-0.033-0.262,0.026-0.382c1.012-2.033,1.172-4.338,0.45-6.49c-0.722-2.153-2.239-3.895-4.271-4.907
		c-1.193-0.594-2.465-0.895-3.78-0.895c-0.917,0-1.829,0.15-2.711,0.446C7.145,2.148,5.402,3.665,4.391,5.697
		C3.806,6.871,3.498,8.184,3.5,9.495c-0.002,1.304,0.306,2.61,0.89,3.777c0.06,0.119,0.07,0.255,0.027,0.381
		c-0.042,0.127-0.131,0.23-0.251,0.29c-0.07,0.034-0.147,0.052-0.223,0.052c0,0,0,0,0,0c-0.191,0-0.362-0.106-0.448-0.276
		C2.843,12.415,2.498,10.954,2.5,9.495C2.498,8.031,2.843,6.563,3.495,5.252C4.626,2.98,6.574,1.285,8.98,0.478
		c0.985-0.33,2.004-0.498,3.029-0.498c1.47,0,2.892,0.337,4.225,1c2.272,1.131,3.967,3.078,4.774,5.484
		c0.807,2.406,0.628,4.982-0.502,7.253C20.419,13.889,20.248,13.996,20.057,13.996z"/>
</g>
</svg>
