<?xml version="1.0" encoding="utf-8"?>
<!-- Generator: Adobe Illustrator 22.1.0, SVG Export Plug-In . SVG Version: 6.00 Build 0)  -->
<svg version="1.1" id="Layer_1" xmlns="http://www.w3.org/2000/svg" xmlns:xlink="http://www.w3.org/1999/xlink" x="0px" y="0px"
	 viewBox="0 0 24 24" style="enable-background:new 0 0 24 24;" xml:space="preserve">
<g>
	<title>video-player-slider</title>
	<path d="M10.617,14.619C10,14.618,9.499,14.116,9.5,13.5v-3c0-0.173,0.041-0.345,0.118-0.5c0.133-0.267,0.363-0.466,0.646-0.561
		c0.115-0.039,0.235-0.058,0.355-0.058c0.174,0,0.341,0.04,0.499,0.118l2.659,1.329c0.251,0.126,0.458,0.333,0.584,0.584
		c0.157,0.313,0.183,0.668,0.073,1s-0.343,0.601-0.656,0.758L11.119,14.5C10.964,14.578,10.791,14.619,10.617,14.619
		C10.617,14.619,10.617,14.619,10.617,14.619z M10.618,10.382c-0.013,0-0.025,0.002-0.037,0.006
		c-0.031,0.01-0.054,0.031-0.069,0.059C10.504,10.463,10.5,10.482,10.5,10.5v3c0,0.065,0.053,0.119,0.118,0.119
		c0.018,0,0.037-0.004,0.053-0.012l2.659-1.329c0.074-0.037,0.129-0.101,0.155-0.179s0.02-0.162-0.017-0.236
		c-0.03-0.059-0.079-0.109-0.138-0.138l-2.658-1.329C10.654,10.386,10.636,10.382,10.618,10.382z"/>
	<path d="M6.5,22C5.673,22,5,21.327,5,20.5v-17C5,2.673,5.673,2,6.5,2h11C18.327,2,19,2.673,19,3.5v17c0,0.827-0.673,1.5-1.5,1.5
		H6.5z M6.5,3C6.224,3,6,3.224,6,3.5v17C6,20.776,6.224,21,6.5,21h11c0.276,0,0.5-0.224,0.5-0.5v-17C18,3.224,17.776,3,17.5,3H6.5z"
		/>
	<path d="M3.5,20C2.673,20,2,19.327,2,18.5V18H1.5C0.673,18,0,17.327,0,16.5v-9C0,6.673,0.673,6,1.5,6H2V5.5C2,4.673,2.673,4,3.5,4
		C3.776,4,4,4.224,4,4.5S3.776,5,3.5,5S3,5.224,3,5.5v13C3,18.776,3.224,19,3.5,19S4,19.224,4,19.5S3.776,20,3.5,20z M1.5,7
		C1.224,7,1,7.224,1,7.5v9C1,16.776,1.224,17,1.5,17H2V7H1.5z"/>
	<path d="M20.5,20c-0.276,0-0.5-0.224-0.5-0.5s0.224-0.5,0.5-0.5s0.5-0.224,0.5-0.5v-13C21,5.224,20.776,5,20.5,5S20,4.776,20,4.5
		S20.224,4,20.5,4C21.327,4,22,4.673,22,5.5V6h0.5C23.327,6,24,6.673,24,7.5v9c0,0.827-0.673,1.5-1.5,1.5H22v0.5
		C22,19.327,21.327,20,20.5,20z M22.5,17c0.276,0,0.5-0.224,0.5-0.5v-9C23,7.224,22.776,7,22.5,7H22v10H22.5z"/>
	<path d="M7.5,20C7.224,20,7,19.776,7,19.5S7.224,19,7.5,19h1C8.776,19,9,19.224,9,19.5S8.776,20,8.5,20H7.5z"/>
	<path d="M11.5,20c-0.276,0-0.5-0.224-0.5-0.5s0.224-0.5,0.5-0.5h1c0.276,0,0.5,0.224,0.5,0.5S12.776,20,12.5,20H11.5z"/>
	<path d="M15.5,20c-0.276,0-0.5-0.224-0.5-0.5s0.224-0.5,0.5-0.5h1c0.276,0,0.5,0.224,0.5,0.5S16.776,20,16.5,20H15.5z"/>
	<path d="M7.5,5C7.224,5,7,4.776,7,4.5S7.224,4,7.5,4h1C8.776,4,9,4.224,9,4.5S8.776,5,8.5,5H7.5z"/>
	<path d="M11.5,5C11.224,5,11,4.776,11,4.5S11.224,4,11.5,4h1C12.776,4,13,4.224,13,4.5S12.776,5,12.5,5H11.5z"/>
	<path d="M15.5,5C15.224,5,15,4.776,15,4.5S15.224,4,15.5,4h1C16.776,4,17,4.224,17,4.5S16.776,5,16.5,5H15.5z"/>
</g>
</svg>
