<?xml version="1.0" encoding="utf-8"?>
<!-- Generator: Adobe Illustrator 22.1.0, SVG Export Plug-In . SVG Version: 6.00 Build 0)  -->
<svg version="1.1" id="Layer_1" xmlns="http://www.w3.org/2000/svg" xmlns:xlink="http://www.w3.org/1999/xlink" x="0px" y="0px"
	 viewBox="0 0 24 24" style="enable-background:new 0 0 24 24;" xml:space="preserve">
<g>
	<title>video-player-adjust</title>
	<path d="M2.5,24C1.121,24,0,22.878,0,21.5v-19C0,1.121,1.121,0,2.5,0h19C22.878,0,24,1.121,24,2.5v19c0,1.378-1.122,2.5-2.5,2.5
		H2.5z M2.5,1C1.673,1,1,1.673,1,2.5v19C1,22.327,1.673,23,2.5,23h19c0.827,0,1.5-0.673,1.5-1.5v-19C23,1.673,22.327,1,21.5,1H2.5z"
		/>
	<path d="M9.041,14.423c-0.093,0-0.186-0.013-0.277-0.037c-0.268-0.074-0.491-0.247-0.629-0.489C8.048,13.741,8,13.564,8,13.385
		v-6.77c0.001-0.279,0.109-0.54,0.306-0.736C8.505,5.682,8.76,5.578,9.042,5.577c0.18,0,0.357,0.047,0.513,0.136l5.922,3.384
		c0.497,0.284,0.671,0.92,0.387,1.417c-0.092,0.161-0.226,0.295-0.387,0.387l-5.921,3.384C9.397,14.376,9.22,14.423,9.041,14.423z
		 M9.04,6.577c-0.011,0-0.02,0.004-0.028,0.011C9.004,6.597,9,6.606,9,6.617v6.767c0.016,0.037,0.035,0.039,0.041,0.039l5.939-3.389
		c0.025-0.033,0.018-0.057,0-0.068L9.059,6.582L9.04,6.577z"/>
	<path d="M14.5,22c-0.827,0-1.5-0.673-1.5-1.5V20H3.5C3.224,20,3,19.776,3,19.5S3.224,19,3.5,19H13v-0.5c0-0.827,0.673-1.5,1.5-1.5
		s1.5,0.673,1.5,1.5V19h4.5c0.276,0,0.5,0.224,0.5,0.5S20.776,20,20.5,20H16v0.5C16,21.327,15.327,22,14.5,22z M14.5,18
		c-0.276,0-0.5,0.224-0.5,0.5v2c0,0.276,0.224,0.5,0.5,0.5s0.5-0.224,0.5-0.5v-2C15,18.224,14.776,18,14.5,18z"/>
</g>
</svg>
