<?xml version="1.0" encoding="utf-8"?>
<!-- Generator: Adobe Illustrator 22.1.0, SVG Export Plug-In . SVG Version: 6.00 Build 0)  -->
<svg version="1.1" id="Layer_1" xmlns="http://www.w3.org/2000/svg" xmlns:xlink="http://www.w3.org/1999/xlink" x="0px" y="0px"
	 viewBox="0 0 24 24" style="enable-background:new 0 0 24 24;" xml:space="preserve">
<g>
	<title>video-player-monitor</title>
	<path d="M9.849,8.85c-0.227,0-0.44-0.089-0.601-0.25C9.088,8.44,9,8.226,9,8V4c0-0.099,0.017-0.198,0.051-0.291
		c0.078-0.214,0.234-0.384,0.44-0.48C9.605,3.176,9.726,3.15,9.85,3.15c0.099,0,0.198,0.017,0.292,0.052l4.56,1.658
		c0.338,0.123,0.603,0.387,0.726,0.726c0.229,0.629-0.097,1.327-0.726,1.556l-4.56,1.658C10.048,8.833,9.95,8.85,9.849,8.85
		C9.85,8.85,9.85,8.85,9.849,8.85z M10,7.786l4.359-1.585c0.054-0.02,0.096-0.058,0.121-0.111s0.027-0.109,0.007-0.164
		c-0.021-0.059-0.068-0.106-0.128-0.128L10,4.214V7.786z"/>
	<path d="M2.5,15C1.673,15,1,14.327,1,13.5v-12C1,0.673,1.673,0,2.5,0h19C22.327,0,23,0.673,23,1.5v12c0,0.827-0.673,1.5-1.5,1.5
		H2.5z M2,13.5C2,13.776,2.224,14,2.5,14h19c0.276,0,0.5-0.224,0.5-0.5V12H2V13.5z M22,11V1.5C22,1.224,21.776,1,21.5,1h-19
		C2.224,1,2,1.224,2,1.5V11H22z"/>
	<path d="M2.64,24c-0.267,0-0.518-0.104-0.707-0.293C1.744,23.518,1.64,23.267,1.64,23c0-0.081,0.01-0.162,0.03-0.241l1.25-5
		C3.031,17.312,3.43,17,3.89,17h16.22c0.46,0,0.859,0.312,0.97,0.758l1.25,5c0.065,0.259,0.025,0.528-0.113,0.757
		c-0.138,0.229-0.356,0.391-0.615,0.456C21.525,23.99,21.443,24,21.36,24H2.64z M2.64,23h18.72l-1.25-5H3.89L2.64,23z"/>
	<path d="M5.5,20C5.224,20,5,19.776,5,19.5S5.224,19,5.5,19h1C6.776,19,7,19.224,7,19.5S6.776,20,6.5,20H5.5z"/>
	<path d="M8.5,20C8.224,20,8,19.776,8,19.5S8.224,19,8.5,19h1c0.276,0,0.5,0.224,0.5,0.5S9.776,20,9.5,20H8.5z"/>
	<path d="M11.5,20c-0.276,0-0.5-0.224-0.5-0.5s0.224-0.5,0.5-0.5h1c0.276,0,0.5,0.224,0.5,0.5S12.776,20,12.5,20H11.5z"/>
	<path d="M14.5,20c-0.276,0-0.5-0.224-0.5-0.5s0.224-0.5,0.5-0.5h1c0.276,0,0.5,0.224,0.5,0.5S15.776,20,15.5,20H14.5z"/>
	<path d="M17.5,20c-0.276,0-0.5-0.224-0.5-0.5s0.224-0.5,0.5-0.5h1c0.276,0,0.5,0.224,0.5,0.5S18.776,20,18.5,20H17.5z"/>
	<path d="M4.5,22C4.224,22,4,21.776,4,21.5S4.224,21,4.5,21h1C5.776,21,6,21.224,6,21.5S5.776,22,5.5,22H4.5z"/>
	<path d="M7.5,22C7.224,22,7,21.776,7,21.5S7.224,21,7.5,21h9c0.276,0,0.5,0.224,0.5,0.5S16.776,22,16.5,22H7.5z"/>
	<path d="M18.5,22c-0.276,0-0.5-0.224-0.5-0.5s0.224-0.5,0.5-0.5h1c0.276,0,0.5,0.224,0.5,0.5S19.776,22,19.5,22H18.5z"/>
</g>
</svg>
