<?xml version="1.0" encoding="utf-8"?>
<!-- Generator: Adobe Illustrator 22.1.0, SVG Export Plug-In . SVG Version: 6.00 Build 0)  -->
<svg version="1.1" id="Layer_1" xmlns="http://www.w3.org/2000/svg" xmlns:xlink="http://www.w3.org/1999/xlink" x="0px" y="0px"
	 viewBox="0 0 24 24" style="enable-background:new 0 0 24 24;" xml:space="preserve">
<g>
	<title>phone-dial</title>
	<path d="M18.5,8.948c-1.369-0.011-2.489-1.13-2.5-2.496V5.403c-1.324-0.116-2.669-0.175-4.001-0.175
		c-1.332,0-2.676,0.059-3.999,0.175v1.044c-0.011,1.369-1.13,2.489-2.496,2.5H2.5C1.131,8.937,0.01,7.818,0,6.451V4.448
		c0.059-1.696,1.249-3.127,2.893-3.488c3.011-0.615,6.074-0.926,9.109-0.926c3.033,0,6.094,0.311,9.099,0.925
		C22.751,1.32,23.941,2.748,24,4.43l0,2.018c-0.01,1.369-1.13,2.49-2.496,2.5c-0.001,0-0.001,0-0.002,0H18.5z M12,4.228
		c1.516,0,3.047,0.075,4.549,0.222C16.806,4.475,17,4.689,17,4.948v1.5c0.007,0.82,0.681,1.494,1.504,1.5H21.5
		c0.82-0.006,1.494-0.681,1.5-1.504V4.448c-0.043-1.211-0.909-2.247-2.106-2.511C17.96,1.337,14.966,1.033,12,1.033
		c-2.967,0-5.961,0.304-8.9,0.905C1.908,2.199,1.043,3.239,1,4.465l0,1.982c0.006,0.82,0.681,1.494,1.504,1.5H5.5
		C6.32,7.941,6.994,7.266,7,6.444V4.948C7,4.689,7.194,4.475,7.451,4.45C8.953,4.302,10.484,4.228,12,4.228z"/>
	<path d="M5.5,13.948c-0.827,0-1.5-0.673-1.5-1.5s0.673-1.5,1.5-1.5h1c0.827,0,1.5,0.673,1.5,1.5s-0.673,1.5-1.5,1.5H5.5z
		 M5.5,11.948c-0.276,0-0.5,0.224-0.5,0.5c0,0.276,0.224,0.5,0.5,0.5h1c0.276,0,0.5-0.224,0.5-0.5c0-0.276-0.224-0.5-0.5-0.5H5.5z"
		/>
	<path d="M11.5,13.948c-0.827,0-1.5-0.673-1.5-1.5s0.673-1.5,1.5-1.5h1c0.827,0,1.5,0.673,1.5,1.5s-0.673,1.5-1.5,1.5H11.5z
		 M11.5,11.948c-0.276,0-0.5,0.224-0.5,0.5c0,0.276,0.224,0.5,0.5,0.5h1c0.276,0,0.5-0.224,0.5-0.5c0-0.276-0.224-0.5-0.5-0.5H11.5z
		"/>
	<path d="M17.5,13.948c-0.827,0-1.5-0.673-1.5-1.5s0.673-1.5,1.5-1.5h1c0.827,0,1.5,0.673,1.5,1.5s-0.673,1.5-1.5,1.5H17.5z
		 M17.5,11.948c-0.276,0-0.5,0.224-0.5,0.5c0,0.276,0.224,0.5,0.5,0.5h1c0.276,0,0.5-0.224,0.5-0.5c0-0.276-0.224-0.5-0.5-0.5H17.5z
		"/>
	<path d="M5.5,18.948c-0.827,0-1.5-0.673-1.5-1.5s0.673-1.5,1.5-1.5h1c0.827,0,1.5,0.673,1.5,1.5s-0.673,1.5-1.5,1.5H5.5z
		 M5.5,16.948c-0.276,0-0.5,0.224-0.5,0.5s0.224,0.5,0.5,0.5h1c0.276,0,0.5-0.224,0.5-0.5s-0.224-0.5-0.5-0.5H5.5z"/>
	<path d="M11.5,18.948c-0.827,0-1.5-0.673-1.5-1.5s0.673-1.5,1.5-1.5h1c0.827,0,1.5,0.673,1.5,1.5s-0.673,1.5-1.5,1.5H11.5z
		 M11.5,16.948c-0.276,0-0.5,0.224-0.5,0.5s0.224,0.5,0.5,0.5h1c0.276,0,0.5-0.224,0.5-0.5s-0.224-0.5-0.5-0.5H11.5z"/>
	<path d="M17.5,18.948c-0.827,0-1.5-0.673-1.5-1.5s0.673-1.5,1.5-1.5h1c0.827,0,1.5,0.673,1.5,1.5s-0.673,1.5-1.5,1.5H17.5z
		 M17.5,16.948c-0.276,0-0.5,0.224-0.5,0.5s0.224,0.5,0.5,0.5h1c0.276,0,0.5-0.224,0.5-0.5s-0.224-0.5-0.5-0.5H17.5z"/>
	<path d="M5.5,23.948c-0.827,0-1.5-0.673-1.5-1.5s0.673-1.5,1.5-1.5h1c0.827,0,1.5,0.673,1.5,1.5s-0.673,1.5-1.5,1.5H5.5z
		 M5.5,21.948c-0.276,0-0.5,0.224-0.5,0.5s0.224,0.5,0.5,0.5h1c0.276,0,0.5-0.224,0.5-0.5s-0.224-0.5-0.5-0.5H5.5z"/>
	<path d="M11.5,23.948c-0.827,0-1.5-0.673-1.5-1.5s0.673-1.5,1.5-1.5h1c0.827,0,1.5,0.673,1.5,1.5s-0.673,1.5-1.5,1.5H11.5z
		 M11.5,21.948c-0.276,0-0.5,0.224-0.5,0.5s0.224,0.5,0.5,0.5h1c0.276,0,0.5-0.224,0.5-0.5s-0.224-0.5-0.5-0.5H11.5z"/>
	<path d="M17.5,23.948c-0.827,0-1.5-0.673-1.5-1.5s0.673-1.5,1.5-1.5h1c0.827,0,1.5,0.673,1.5,1.5s-0.673,1.5-1.5,1.5H17.5z
		 M17.5,21.948c-0.276,0-0.5,0.224-0.5,0.5s0.224,0.5,0.5,0.5h1c0.276,0,0.5-0.224,0.5-0.5s-0.224-0.5-0.5-0.5H17.5z"/>
</g>
</svg>
