<?xml version="1.0" encoding="utf-8"?>
<!-- Generator: Adobe Illustrator 22.1.0, SVG Export Plug-In . SVG Version: 6.00 Build 0)  -->
<svg version="1.1" id="Layer_1" xmlns="http://www.w3.org/2000/svg" xmlns:xlink="http://www.w3.org/1999/xlink" x="0px" y="0px"
	 viewBox="0 0 24 24" style="enable-background:new 0 0 24 24;" xml:space="preserve">
<g>
	<title>phone-off</title>
	<path d="M12,24c-3.178,0-6.174-1.235-8.439-3.477c-0.013-0.009-0.03-0.021-0.046-0.037c-0.01-0.01-0.024-0.027-0.035-0.043
		C1.236,18.178,0,15.18,0,12C0,5.383,5.383,0,12,0c3.179,0,6.176,1.235,8.44,3.478c0.013,0.009,0.029,0.021,0.045,0.037
		c0.01,0.01,0.024,0.027,0.035,0.044C22.765,5.824,24,8.82,24,12C24,18.617,18.617,24,12,24z M4.59,20.118
		C6.625,21.979,9.246,23,12,23c6.065,0,11-4.935,11-11c0-2.754-1.021-5.375-2.882-7.41L4.59,20.118z M12,1C5.935,1,1,5.935,1,12
		c0,2.755,1.022,5.376,2.883,7.411L19.411,3.883C17.376,2.022,14.755,1,12,1z"/>
	<path d="M8.576,13.1c-0.144,0-0.281-0.062-0.376-0.17c-1.064-1.212-2.04-2.517-2.9-3.879C4.624,7.869,4.843,6.409,5.826,5.492
		l0.932-0.931c0.373-0.413,0.923-0.655,1.5-0.655c0.507,0,0.992,0.185,1.368,0.522l1.57,1.566c0.763,0.852,0.7,2.151-0.131,2.905
		l-0.237,0.237c0.189,0.228,0.383,0.455,0.578,0.677c0.088,0.1,0.132,0.229,0.123,0.362s-0.069,0.255-0.169,0.343
		c-0.091,0.08-0.208,0.124-0.33,0.124c-0.144,0-0.281-0.062-0.376-0.17c-0.305-0.347-0.604-0.703-0.89-1.057
		C9.603,9.216,9.618,8.929,9.8,8.748l0.575-0.574c0.439-0.399,0.477-1.066,0.094-1.494l-1.53-1.526
		c-0.177-0.157-0.42-0.249-0.675-0.249c-0.299,0-0.584,0.126-0.782,0.346L6.52,6.212C5.868,6.82,5.722,7.774,6.157,8.536
		c0.824,1.303,1.766,2.563,2.795,3.734c0.088,0.101,0.132,0.229,0.123,0.362c-0.009,0.133-0.069,0.255-0.169,0.344
		C8.815,13.056,8.698,13.1,8.576,13.1z"/>
	<path d="M16.402,19.094c-0.5,0-0.997-0.132-1.435-0.383c-1.379-0.87-2.687-1.848-3.897-2.912c-0.1-0.088-0.16-0.21-0.169-0.343
		c-0.009-0.133,0.035-0.262,0.124-0.362c0.095-0.108,0.232-0.17,0.376-0.17c0.122,0,0.239,0.044,0.33,0.125
		c1.172,1.03,2.434,1.973,3.752,2.805c0.272,0.155,0.592,0.24,0.915,0.24c0.519,0,1.022-0.219,1.379-0.602l0.954-0.956
		c0.441-0.4,0.48-1.066,0.096-1.495l-1.531-1.529c-0.176-0.156-0.419-0.248-0.675-0.248c-0.298,0-0.583,0.125-0.781,0.344
		L15.249,14.2c-0.094,0.094-0.22,0.146-0.354,0.146c-0.113,0-0.224-0.039-0.312-0.109c-0.352-0.281-0.708-0.581-1.06-0.892
		c-0.207-0.182-0.227-0.499-0.044-0.706c0.095-0.108,0.231-0.169,0.375-0.169c0.122,0,0.24,0.044,0.331,0.125
		c0.224,0.197,0.451,0.391,0.677,0.578l0.255-0.255c0.373-0.412,0.923-0.654,1.499-0.654c0.507,0,0.992,0.185,1.368,0.521
		l1.57,1.568c0.765,0.853,0.701,2.152-0.133,2.906l-0.924,0.927C17.959,18.761,17.194,19.094,16.402,19.094z"/>
</g>
</svg>
