<?xml version="1.0" encoding="utf-8"?>
<!-- Generator: Adobe Illustrator 22.1.0, SVG Export Plug-In . SVG Version: 6.00 Build 0)  -->
<svg version="1.1" id="Layer_1" xmlns="http://www.w3.org/2000/svg" xmlns:xlink="http://www.w3.org/1999/xlink" x="0px" y="0px"
	 viewBox="0 0 24 24" style="enable-background:new 0 0 24 24;" xml:space="preserve">
<g>
	<title>phone-book</title>
	<path d="M16.557,20.165c-0.471,0-0.927-0.137-1.318-0.395c-3.326-2.208-6.133-5.014-8.341-8.34c-0.627-0.944-0.5-2.21,0.301-3.01
		l0.734-0.734C8.266,7.353,8.708,7.17,9.18,7.17c0.471,0,0.913,0.182,1.245,0.514l1.338,1.34c0.686,0.687,0.686,1.804,0,2.49
		l-0.123,0.122c1.035,1.218,2.174,2.357,3.392,3.392l0.117-0.116c0.338-0.338,0.781-0.521,1.251-0.521
		c0.471,0,0.914,0.183,1.246,0.516l1.338,1.338c0.687,0.687,0.687,1.805,0,2.491l-0.733,0.733
		C17.799,19.917,17.198,20.165,16.557,20.165z M9.18,8.17c-0.204,0-0.396,0.079-0.54,0.222L7.907,9.126
		c-0.466,0.466-0.54,1.202-0.175,1.75c2.134,3.214,4.846,5.926,8.06,8.06c0.227,0.15,0.491,0.229,0.766,0.229
		c0.374,0,0.724-0.144,0.985-0.405l0.733-0.733c0.297-0.297,0.297-0.78,0-1.076l-1.338-1.339c-0.144-0.144-0.335-0.223-0.539-0.223
		c-0.201,0-0.391,0.078-0.534,0.218l-0.451,0.45c-0.094,0.094-0.22,0.146-0.353,0.146c-0.115,0-0.228-0.04-0.318-0.114
		c-1.518-1.25-2.92-2.652-4.168-4.169c-0.165-0.2-0.151-0.49,0.034-0.673l0.448-0.443c0.296-0.295,0.296-0.778,0-1.074l-1.338-1.34
		C9.575,8.249,9.384,8.17,9.18,8.17z"/>
	<path d="M5,24c-1.379,0-2.5-1.122-2.5-2.5V20H2c-0.276,0-0.5-0.224-0.5-0.5S1.724,19,2,19h0.5v-2H2c-0.276,0-0.5-0.224-0.5-0.5
		S1.724,16,2,16h0.5v-2H2c-0.276,0-0.5-0.224-0.5-0.5S1.724,13,2,13h0.5v-2H2c-0.276,0-0.5-0.224-0.5-0.5S1.724,10,2,10h0.5V8H2
		C1.724,8,1.5,7.776,1.5,7.5S1.724,7,2,7h0.5V2.5C2.5,1.121,3.621,0,5,0h17c0.276,0,0.5,0.224,0.5,0.5S22.276,1,22,1H5
		C4.173,1,3.5,1.673,3.5,2.5S4.173,4,5,4h16c0.827,0,1.5,0.673,1.5,1.5v17c0,0.827-0.673,1.5-1.5,1.5H5z M3.5,21.5
		C3.5,22.327,4.173,23,5,23h16c0.276,0,0.5-0.224,0.5-0.5v-17C21.5,5.224,21.276,5,21,5H5C4.451,5,3.928,4.822,3.5,4.5V7H4
		c0.276,0,0.5,0.224,0.5,0.5S4.276,8,4,8H3.5v2H4c0.276,0,0.5,0.224,0.5,0.5S4.276,11,4,11H3.5v2H4c0.276,0,0.5,0.224,0.5,0.5
		S4.276,14,4,14H3.5v2H4c0.276,0,0.5,0.224,0.5,0.5S4.276,17,4,17H3.5v2H4c0.276,0,0.5,0.224,0.5,0.5S4.276,20,4,20H3.5V21.5z"/>
	<path d="M5,3C4.724,3,4.5,2.776,4.5,2.5S4.724,2,5,2h16c0.276,0,0.5,0.224,0.5,0.5S21.276,3,21,3H5z"/>
</g>
</svg>
