<?xml version="1.0" encoding="utf-8"?>
<!-- Generator: Adobe Illustrator 22.1.0, SVG Export Plug-In . SVG Version: 6.00 Build 0)  -->
<svg version="1.1" id="Regular" xmlns="http://www.w3.org/2000/svg" xmlns:xlink="http://www.w3.org/1999/xlink" x="0px" y="0px"
	 viewBox="0 0 24 24" style="enable-background:new 0 0 24 24;" xml:space="preserve">
<title>multiple-actions-monitor</title>
<g>
	<path d="M0.753,15c-0.031,0-0.062-0.002-0.093-0.006c-0.411-0.052-0.703-0.428-0.651-0.838C0.433,10.789,3.314,8.25,6.712,8.25
		l0.047,0c1.187,0.005,2.35,0.308,3.362,0.876c0.36,0.203,0.489,0.661,0.287,1.021c-0.133,0.236-0.384,0.383-0.654,0.383h0
		c-0.128,0-0.255-0.033-0.366-0.096C8.588,9.986,7.704,9.75,6.828,9.75l-0.115,0c-2.644,0-4.886,1.975-5.216,4.594
		C1.45,14.718,1.13,15,0.753,15z"/>
	<path d="M6.75,8.25c-2.275,0-4.125-1.85-4.125-4.125S4.475,0,6.75,0s4.125,1.85,4.125,4.125S9.024,8.25,6.75,8.25z M6.75,1.5
		c-1.447,0-2.625,1.178-2.625,2.625S5.302,6.75,6.75,6.75s2.625-1.178,2.625-2.625S8.197,1.5,6.75,1.5z"/>
	<path d="M16.5,6.75c-1.861,0-3.375-1.514-3.375-3.375S14.639,0,16.5,0s3.375,1.514,3.375,3.375S18.361,6.75,16.5,6.75z M16.5,1.5
		c-1.034,0-1.875,0.841-1.875,1.875S15.466,5.25,16.5,5.25s1.875-0.841,1.875-1.875S17.534,1.5,16.5,1.5z"/>
	<path d="M20.4,9.75c-0.267,0-0.516-0.144-0.649-0.375c-0.668-1.155-1.915-1.873-3.254-1.873c-0.654,0-1.301,0.174-1.869,0.503
		c-0.357,0.207-0.676,0.468-0.947,0.778c-0.143,0.163-0.348,0.257-0.565,0.257l0,0c-0.181,0-0.356-0.065-0.493-0.184
		c-0.312-0.273-0.344-0.748-0.072-1.059c0.379-0.434,0.825-0.801,1.325-1.09c0.797-0.46,1.702-0.703,2.619-0.703
		c1.874,0,3.619,1.005,4.554,2.622c0.207,0.358,0.084,0.818-0.274,1.025C20.661,9.715,20.531,9.75,20.4,9.75z"/>
	<path d="M14.25,24c-0.414,0-0.75-0.336-0.75-0.75s0.336-0.75,0.75-0.75h2.25V21h-3.75c-1.241,0-2.25-1.009-2.25-2.25v-6
		c0-1.241,1.009-2.25,2.25-2.25h9c1.241,0,2.25,1.009,2.25,2.25v6C24,19.991,22.99,21,21.75,21H18v1.5h2.25
		c0.414,0,0.75,0.336,0.75,0.75S20.663,24,20.25,24H14.25z M12.75,12C12.336,12,12,12.336,12,12.75v6c0,0.414,0.336,0.75,0.75,0.75
		h9c0.414,0,0.75-0.336,0.75-0.75v-6c0-0.414-0.336-0.75-0.75-0.75H12.75z"/>
</g>
</svg>
