<?xml version="1.0" encoding="utf-8"?>
<!-- Generator: Adobe Illustrator 22.1.0, SVG Export Plug-In . SVG Version: 6.00 Build 0)  -->
<svg version="1.1" id="Regular" xmlns="http://www.w3.org/2000/svg" xmlns:xlink="http://www.w3.org/1999/xlink" x="0px" y="0px"
	 viewBox="0 0 24 24" style="enable-background:new 0 0 24 24;" xml:space="preserve">
<title>multiple-actions-laptop</title>
<g>
	<path d="M0.899,15c-0.031,0-0.062-0.002-0.093-0.006c-0.411-0.052-0.703-0.428-0.651-0.838C0.579,10.789,3.461,8.25,6.858,8.25
		l0.047,0c1.184,0,2.341,0.303,3.362,0.876c0.36,0.203,0.489,0.661,0.287,1.021c-0.133,0.236-0.384,0.383-0.655,0.383c0,0,0,0,0,0
		c-0.128,0-0.255-0.033-0.366-0.096C8.735,9.987,7.83,9.75,6.916,9.75l-0.061,0c-2.642,0-4.882,1.975-5.212,4.594
		C1.596,14.718,1.276,15,0.899,15z"/>
	<path d="M6.894,8.25c-2.275,0-4.125-1.85-4.125-4.125S4.619,0,6.894,0s4.125,1.85,4.125,4.125S9.168,8.25,6.894,8.25z M6.894,1.5
		c-1.447,0-2.625,1.178-2.625,2.625S5.447,6.75,6.894,6.75s2.625-1.178,2.625-2.625S8.341,1.5,6.894,1.5z"/>
	<path d="M16.644,6.75c-1.861,0-3.375-1.514-3.375-3.375S14.783,0,16.644,0s3.375,1.514,3.375,3.375S18.505,6.75,16.644,6.75z
		 M16.644,1.5c-1.034,0-1.875,0.841-1.875,1.875S15.61,5.25,16.644,5.25s1.875-0.841,1.875-1.875S17.678,1.5,16.644,1.5z"/>
	<path d="M20.54,9.75c-0.267,0-0.516-0.144-0.649-0.375c-0.668-1.155-1.915-1.873-3.254-1.873c-0.654,0-1.301,0.174-1.869,0.503
		c-0.357,0.206-0.676,0.468-0.947,0.779c-0.142,0.163-0.348,0.256-0.565,0.256l0,0c-0.181,0-0.357-0.066-0.493-0.185
		c-0.151-0.132-0.241-0.315-0.255-0.515c-0.013-0.2,0.052-0.393,0.184-0.544c0.38-0.435,0.826-0.801,1.326-1.09
		c0.796-0.46,1.702-0.704,2.619-0.704c1.874,0,3.619,1.005,4.554,2.622c0.207,0.358,0.084,0.818-0.274,1.025
		C20.801,9.715,20.671,9.75,20.54,9.75z"/>
	<path d="M10.934,24c-0.401,0-0.778-0.156-1.061-0.44c-0.283-0.283-0.439-0.66-0.439-1.061c0-0.16,0.026-0.319,0.077-0.472
		l1.138-3.399V12.75c0-1.241,1.009-2.25,2.25-2.25h7.5c1.241,0,2.25,1.009,2.25,2.25v5.878l1.133,3.397
		c0.26,0.787-0.167,1.638-0.953,1.898C22.676,23.974,22.518,24,22.358,24H10.934z M10.934,22.501L22.358,22.5l-1-3h-9.42
		L10.934,22.501z M21.149,18v-5.25c0-0.414-0.336-0.75-0.75-0.75h-7.5c-0.414,0-0.75,0.336-0.75,0.75V18H21.149z"/>
</g>
</svg>
