<?xml version="1.0" encoding="utf-8"?>
<!-- Generator: Adobe Illustrator 22.1.0, SVG Export Plug-In . SVG Version: 6.00 Build 0)  -->
<svg version="1.1" id="Regular" xmlns="http://www.w3.org/2000/svg" xmlns:xlink="http://www.w3.org/1999/xlink" x="0px" y="0px"
	 viewBox="0 0 24 24" style="enable-background:new 0 0 24 24;" xml:space="preserve">
<title>multiple-actions-mail</title>
<g>
	<path d="M12.75,24c-1.241,0-2.25-1.009-2.25-2.25v-6c0-1.241,1.009-2.25,2.25-2.25h9c1.241,0,2.25,1.009,2.25,2.25v6
		c0,1.241-1.009,2.25-2.25,2.25H12.75z M12,21.75c0,0.414,0.336,0.75,0.75,0.75h9c0.414,0,0.75-0.336,0.75-0.75v-4.647l-4.058,2.534
		c-0.356,0.222-0.768,0.34-1.192,0.34s-0.836-0.117-1.192-0.34L12,17.103V21.75z M16.853,18.364
		c0.118,0.074,0.255,0.113,0.397,0.113c0.142,0,0.28-0.039,0.398-0.113l4.761-2.973C22.281,15.155,22.031,15,21.75,15h-9
		c-0.281,0-0.531,0.155-0.659,0.391L16.853,18.364z"/>
	<path d="M6.75,8.25c-2.275,0-4.125-1.85-4.125-4.125S4.475,0,6.75,0s4.125,1.85,4.125,4.125S9.024,8.25,6.75,8.25z M6.75,1.5
		c-1.447,0-2.625,1.178-2.625,2.625S5.303,6.75,6.75,6.75s2.625-1.178,2.625-2.625S8.197,1.5,6.75,1.5z"/>
	<path d="M16.5,6.75c-1.861,0-3.375-1.514-3.375-3.375S14.639,0,16.5,0s3.375,1.514,3.375,3.375S18.361,6.75,16.5,6.75z M16.5,1.5
		c-1.034,0-1.875,0.841-1.875,1.875S15.466,5.25,16.5,5.25s1.875-0.841,1.875-1.875S17.534,1.5,16.5,1.5z"/>
	<path d="M0.75,15c-0.035,0-0.069-0.002-0.104-0.007c-0.405-0.054-0.694-0.432-0.64-0.842c0.231-1.731,1.106-3.289,2.464-4.387
		c1.204-0.974,2.721-1.511,4.271-1.511c2.068,0,3.997,0.919,5.294,2.521c0.126,0.156,0.184,0.351,0.163,0.55
		s-0.118,0.378-0.274,0.504c-0.133,0.108-0.3,0.167-0.471,0.167c0,0,0,0,0,0c-0.228,0-0.44-0.102-0.583-0.279
		c-0.89-1.1-2.156-1.789-3.565-1.937c-0.188-0.02-0.379-0.03-0.567-0.03c-1.22,0-2.369,0.408-3.324,1.18
		c-1.058,0.856-1.74,2.07-1.92,3.419C1.444,14.72,1.124,15,0.75,15z"/>
	<path d="M20.999,12c-0.415-0.001-0.75-0.339-0.749-0.753c0.007-2.059-1.663-3.739-3.722-3.746c-1.163,0-2.269,0.544-2.971,1.456
		c-0.143,0.186-0.36,0.292-0.594,0.292l0,0c-0.165,0-0.327-0.055-0.457-0.156c-0.159-0.122-0.26-0.299-0.286-0.498
		c-0.026-0.199,0.027-0.396,0.15-0.554c0.984-1.278,2.534-2.041,4.148-2.041c2.903,0.01,5.243,2.365,5.233,5.251
		C21.748,11.665,21.412,12,21,12H20.999z"/>
</g>
</svg>
