<?xml version="1.0" encoding="utf-8"?>
<!-- Generator: Adobe Illustrator 22.1.0, SVG Export Plug-In . SVG Version: 6.00 Build 0)  -->
<svg version="1.1" id="Regular" xmlns="http://www.w3.org/2000/svg" xmlns:xlink="http://www.w3.org/1999/xlink" x="0px" y="0px"
	 viewBox="0 0 24 24" style="enable-background:new 0 0 24 24;" xml:space="preserve">
<title>multiple-actions-graduate</title>
<g>
	<path d="M0.751,15.001c-0.031,0-0.062-0.002-0.093-0.006c-0.411-0.052-0.703-0.427-0.651-0.838C0.43,10.789,3.312,8.25,6.711,8.25
		l0.045,0c2.598,0.089,4.911,1.688,5.905,4.071c0.159,0.382-0.022,0.822-0.404,0.981c-0.093,0.039-0.189,0.058-0.288,0.058
		c-0.304,0-0.576-0.181-0.693-0.462c-0.769-1.844-2.555-3.08-4.552-3.149l-0.031,0c-2.634,0-4.869,1.975-5.199,4.594
		C1.447,14.719,1.127,15.001,0.751,15.001z"/>
	<path d="M6.75,8.249c-2.275,0-4.125-1.85-4.125-4.125s1.85-4.125,4.125-4.125s4.125,1.85,4.125,4.125S9.025,8.249,6.75,8.249z
		 M6.75,1.499c-1.447,0-2.625,1.178-2.625,2.625S5.303,6.749,6.75,6.749s2.625-1.178,2.625-2.625S8.197,1.499,6.75,1.499z"/>
	<path d="M16.5,6.749c-1.861,0-3.375-1.514-3.375-3.375s1.514-3.375,3.375-3.375s3.375,1.514,3.375,3.375S18.361,6.749,16.5,6.749z
		 M16.5,1.499c-1.034,0-1.875,0.841-1.875,1.875s0.841,1.875,1.875,1.875s1.875-0.841,1.875-1.875S17.534,1.499,16.5,1.499z"/>
	<path d="M20.4,9.751c-0.267,0-0.516-0.143-0.649-0.374c-0.501-0.867-1.311-1.487-2.278-1.746c-0.32-0.086-0.648-0.129-0.975-0.129
		c-0.652,0-1.298,0.175-1.87,0.505c-0.357,0.206-0.675,0.468-0.947,0.779c-0.142,0.163-0.348,0.256-0.564,0.256l0,0
		c-0.182,0-0.357-0.066-0.493-0.185c-0.151-0.132-0.242-0.315-0.255-0.515c-0.013-0.2,0.052-0.393,0.184-0.544
		c0.38-0.435,0.826-0.801,1.325-1.09c0.8-0.463,1.705-0.707,2.619-0.707c0.458,0,0.917,0.061,1.364,0.18
		c1.354,0.362,2.487,1.23,3.189,2.444c0.207,0.358,0.084,0.818-0.274,1.025C20.661,9.716,20.531,9.751,20.4,9.751z"/>
	<path d="M16.499,24.004c-0.19,0-0.377-0.036-0.555-0.106l-3.002-1.201c-0.575-0.231-0.945-0.781-0.942-1.4v-2.588l-1.5-0.549v2.677
		c0,0.414-0.336,0.75-0.75,0.75S9,21.251,9,20.837v-3.772c0-0.366,0.27-0.678,0.625-0.738l6.589-2.714
		c0.091-0.038,0.187-0.056,0.286-0.056s0.195,0.019,0.286,0.056l6.75,2.78c0.288,0.118,0.47,0.396,0.464,0.708
		c-0.006,0.308-0.204,0.584-0.493,0.69L21,18.71V21.3c0.003,0.617-0.368,1.166-0.943,1.396l-3,1.2
		C16.878,23.968,16.691,24.004,16.499,24.004z M13.5,21.3l2.999,1.204l3-1.2l0-2.046l-2.742,1.003
		c-0.082,0.031-0.169,0.046-0.258,0.046s-0.176-0.015-0.259-0.046L13.5,19.258V21.3z M16.5,18.759l4.68-1.713l-4.68-1.927
		l-4.68,1.927L16.5,18.759z"/>
</g>
</svg>
