<?xml version="1.0" encoding="utf-8"?>
<!-- Generator: Adobe Illustrator 22.1.0, SVG Export Plug-In . SVG Version: 6.00 Build 0)  -->
<svg version="1.1" id="Regular" xmlns="http://www.w3.org/2000/svg" xmlns:xlink="http://www.w3.org/1999/xlink" x="0px" y="0px"
	 viewBox="0 0 24 24" style="enable-background:new 0 0 24 24;" xml:space="preserve">
<title>multiple-actions-image</title>
<g>
	<path d="M0.75,15c-0.031,0-0.062-0.002-0.093-0.006c-0.411-0.052-0.703-0.428-0.651-0.838C0.43,10.789,3.312,8.25,6.709,8.25
		l0.046,0c1.185,0,2.34,0.302,3.36,0.874c0.175,0.098,0.301,0.258,0.355,0.451c0.054,0.193,0.03,0.395-0.068,0.57
		c-0.132,0.237-0.383,0.384-0.654,0.384l0,0c-0.128,0-0.255-0.033-0.366-0.096C8.585,9.986,7.683,9.75,6.774,9.75
		c-0.001,0-0.068,0-0.068,0c-2.642,0-4.882,1.975-5.212,4.594C1.447,14.718,1.127,15,0.75,15z"/>
	<path d="M6.75,8.25c-2.275,0-4.125-1.85-4.125-4.125S4.475,0,6.75,0s4.125,1.85,4.125,4.125S9.024,8.25,6.75,8.25z M6.75,1.5
		c-1.447,0-2.625,1.178-2.625,2.625S5.303,6.75,6.75,6.75s2.625-1.178,2.625-2.625S8.197,1.5,6.75,1.5z"/>
	<path d="M16.5,6.75c-1.861,0-3.375-1.514-3.375-3.375S14.639,0,16.5,0s3.375,1.514,3.375,3.375S18.361,6.75,16.5,6.75z M16.5,1.5
		c-1.034,0-1.875,0.841-1.875,1.875S15.466,5.25,16.5,5.25s1.875-0.841,1.875-1.875S17.534,1.5,16.5,1.5z"/>
	<path d="M20.4,9.75c-0.267,0-0.516-0.144-0.649-0.375c-0.501-0.868-1.31-1.488-2.278-1.747c-0.321-0.086-0.649-0.129-0.976-0.129
		c-0.651,0-1.298,0.175-1.869,0.505c-0.357,0.207-0.676,0.469-0.948,0.779c-0.143,0.163-0.348,0.256-0.565,0.256l0,0
		c-0.181,0-0.356-0.066-0.493-0.185c-0.312-0.273-0.344-0.748-0.072-1.059c0.381-0.435,0.827-0.802,1.327-1.091
		c0.8-0.462,1.705-0.706,2.618-0.706c0.458,0,0.917,0.061,1.365,0.18c1.355,0.363,2.487,1.231,3.188,2.445
		c0.207,0.358,0.084,0.818-0.274,1.025C20.661,9.715,20.531,9.75,20.4,9.75z"/>
	<circle cx="15.375" cy="14.625" r="1.125"/>
	<path d="M12.75,24c-1.241,0-2.25-1.01-2.25-2.25v-9c0-1.241,1.009-2.25,2.25-2.25h9c1.241,0,2.25,1.009,2.25,2.25v9
		c0,1.241-1.009,2.25-2.25,2.25H12.75z M21.75,22.5c0.414,0,0.75-0.336,0.75-0.75v-0.523l-2.265-3.398l-2.001,2.853
		c-0.118,0.168-0.302,0.282-0.507,0.312c-0.038,0.005-0.073,0.008-0.107,0.008c-0.17,0-0.337-0.059-0.469-0.165l-1.235-0.988
		c0,0-0.001,0-0.001,0L14.15,22.5H21.75z M12.75,12C12.336,12,12,12.336,12,12.75v9c0,0.286,0.161,0.538,0.406,0.664l2.261-3.397
		c0.025-0.036,0.049-0.07,0.074-0.102c0.287-0.36,0.715-0.566,1.176-0.566c0.338,0,0.67,0.116,0.935,0.327l0.613,0.491l1.542-2.197
		c0.107-0.154,0.241-0.285,0.398-0.389c0.246-0.164,0.533-0.252,0.829-0.252c0.099,0,0.198,0.01,0.296,0.03
		c0.393,0.078,0.731,0.305,0.954,0.639l1.017,1.526V12.75c0-0.414-0.336-0.75-0.75-0.75H12.75z"/>
</g>
</svg>
