<?xml version="1.0" encoding="utf-8"?>
<!-- Generator: Adobe Illustrator 22.1.0, SVG Export Plug-In . SVG Version: 6.00 Build 0)  -->
<svg version="1.1" id="Layer_1" xmlns="http://www.w3.org/2000/svg" xmlns:xlink="http://www.w3.org/1999/xlink" x="0px" y="0px"
	 viewBox="0 0 24 24" style="enable-background:new 0 0 24 24;" xml:space="preserve">
<title>volume-control-off-1</title>
<g>
	<path d="M16.127,22.088c-0.049,0-0.099-0.002-0.149-0.007c-2.492-0.25-4.782-1.542-6.285-3.543c-0.12-0.16-0.171-0.358-0.143-0.556
		c0.028-0.198,0.132-0.374,0.292-0.494c0.131-0.098,0.286-0.15,0.45-0.15c0.235,0,0.459,0.112,0.6,0.3
		c1.252,1.667,3.159,2.743,5.233,2.951l0-8.744c0-0.414,0.336-0.75,0.75-0.75s0.75,0.336,0.75,0.75v8.744
		c0,0.05-0.003,0.099-0.008,0.148c-0.039,0.398-0.232,0.758-0.542,1.012C16.808,21.967,16.471,22.088,16.127,22.088z"/>
	<path d="M2.626,22.125c-0.2,0-0.389-0.078-0.53-0.22c-0.292-0.292-0.292-0.768,0-1.061l3.97-3.97H4.876c-0.827,0-1.5-0.673-1.5-1.5
		v-4.5c0-0.827,0.673-1.5,1.5-1.5h3.828c1.325-2.894,4.089-4.88,7.27-5.205c0.049-0.005,0.1-0.008,0.151-0.008
		c0.719,0,1.322,0.509,1.467,1.185l3.253-3.253c0.142-0.142,0.33-0.22,0.53-0.22s0.389,0.078,0.53,0.22
		c0.142,0.141,0.22,0.33,0.22,0.53s-0.078,0.389-0.22,0.53l-18.75,18.75C3.014,22.047,2.826,22.125,2.626,22.125z M4.876,15.375
		h2.689l8.561-8.561V5.663c-0.005,0-0.011,0-0.016,0c-2.795,0.286-5.182,2.1-6.21,4.734c-0.113,0.29-0.388,0.477-0.699,0.477H4.876
		V15.375z"/>
</g>
</svg>
