<?xml version="1.0" encoding="utf-8"?>
<!-- Generator: Adobe Illustrator 22.1.0, SVG Export Plug-In . SVG Version: 6.00 Build 0)  -->
<svg version="1.1" id="Layer_1" xmlns="http://www.w3.org/2000/svg" xmlns:xlink="http://www.w3.org/1999/xlink" x="0px" y="0px"
	 viewBox="0 0 24 24" style="enable-background:new 0 0 24 24;" xml:space="preserve">
<title>volume-control-warning</title>
<g>
	<path d="M9.875,14.944c-0.143,0-0.282-0.041-0.403-0.117L5.031,12H2.249c-1.241,0-2.25-1.009-2.25-2.25v-3
		c0-1.241,1.009-2.25,2.25-2.25h2.781l6.394-4.069C11.807,0.153,12.277,0,12.749,0c1.241,0,2.25,1.009,2.25,2.25v6
		c0,0.414-0.336,0.75-0.75,0.75s-0.75-0.336-0.75-0.75v-6c0-0.414-0.336-0.75-0.75-0.75c-0.161,0-0.321,0.053-0.45,0.15
		c-0.013,0.01-0.03,0.021-0.046,0.032L5.652,5.883C5.531,5.96,5.392,6,5.249,6h-3c-0.414,0-0.75,0.336-0.75,0.75v3
		c0,0.414,0.336,0.75,0.75,0.75h3c0.143,0,0.282,0.04,0.402,0.117l4.626,2.944c0.349,0.222,0.452,0.687,0.23,1.035
		C10.369,14.814,10.133,14.944,9.875,14.944z"/>
	<circle cx="17.249" cy="20.625" r="1.125"/>
	<path d="M17.249,18.75c-0.414,0-0.75-0.336-0.75-0.75v-3c0-0.414,0.336-0.75,0.75-0.75s0.75,0.336,0.75,0.75v3
		C17.999,18.414,17.663,18.75,17.249,18.75z"/>
	<path d="M13.023,24c-1.391,0-2.524-1.132-2.525-2.523c0-0.39,0.092-0.781,0.267-1.131l4.226-8.451
		c0.43-0.861,1.297-1.396,2.262-1.396c0.393,0,0.771,0.089,1.124,0.266c0.486,0.243,0.887,0.644,1.13,1.13l4.226,8.451
		c0.623,1.244,0.117,2.764-1.127,3.386C22.256,23.908,21.865,24,21.475,24H13.023z M17.252,12c-0.392,0-0.744,0.217-0.918,0.567
		l-4.226,8.451c-0.071,0.142-0.109,0.3-0.109,0.459c0,0.565,0.46,1.024,1.024,1.024h8.452c0.158,0,0.317-0.038,0.46-0.109
		c0.504-0.252,0.709-0.869,0.457-1.374l-4.226-8.451c-0.099-0.197-0.261-0.36-0.458-0.459C17.564,12.036,17.41,12,17.252,12z"/>
</g>
</svg>
