<?xml version="1.0" encoding="utf-8"?>
<!-- Generator: Adobe Illustrator 22.1.0, SVG Export Plug-In . SVG Version: 6.00 Build 0)  -->
<svg version="1.1" id="Layer_1" xmlns="http://www.w3.org/2000/svg" xmlns:xlink="http://www.w3.org/1999/xlink" x="0px" y="0px"
	 viewBox="0 0 24 24" style="enable-background:new 0 0 24 24;" xml:space="preserve">
<title>volume-control-mute-1</title>
<g>
	<path d="M23.25,15.375c-0.2,0-0.389-0.078-0.53-0.22l-2.095-2.095l-2.095,2.095c-0.142,0.142-0.33,0.22-0.53,0.22
		s-0.389-0.078-0.53-0.22c-0.292-0.292-0.292-0.768,0-1.061L19.564,12L17.47,9.905c-0.142-0.141-0.22-0.33-0.22-0.53
		s0.078-0.389,0.22-0.53s0.33-0.22,0.53-0.22s0.389,0.078,0.53,0.22l2.095,2.095l2.095-2.095c0.142-0.142,0.33-0.22,0.53-0.22
		s0.389,0.078,0.53,0.22C23.922,8.986,24,9.175,24,9.375s-0.078,0.389-0.22,0.53L21.686,12l2.095,2.095
		c0.292,0.292,0.292,0.768,0,1.061C23.639,15.297,23.45,15.375,23.25,15.375z"/>
	<path d="M12.751,20.963c-0.05,0-0.101-0.003-0.152-0.008c-3.184-0.323-5.949-2.309-7.275-5.205H1.5c-0.827,0-1.5-0.673-1.5-1.5
		v-4.5c0-0.827,0.673-1.5,1.5-1.5h3.825c1.325-2.896,4.091-4.881,7.275-5.205c0.052-0.005,0.101-0.008,0.15-0.008
		c0.827,0,1.5,0.673,1.5,1.499v14.927c0,0.049-0.003,0.098-0.008,0.147c-0.039,0.398-0.232,0.758-0.542,1.012
		C13.433,20.842,13.096,20.963,12.751,20.963z M1.5,14.25h4.321c0.311,0,0.585,0.187,0.699,0.477
		c1.029,2.635,3.417,4.45,6.231,4.736L12.75,4.537c-0.001,0-0.003,0-0.004,0C9.936,4.824,7.549,6.638,6.52,9.273
		C6.406,9.563,6.132,9.75,5.821,9.75H1.5V14.25z"/>
</g>
</svg>
