<?xml version="1.0" encoding="utf-8"?>
<!-- Generator: Adobe Illustrator 22.1.0, SVG Export Plug-In . SVG Version: 6.00 Build 0)  -->
<svg version="1.1" id="Layer_1" xmlns="http://www.w3.org/2000/svg" xmlns:xlink="http://www.w3.org/1999/xlink" x="0px" y="0px"
	 viewBox="0 0 24 24" style="enable-background:new 0 0 24 24;" xml:space="preserve">
<title>volume-control-up</title>
<g>
	<path d="M20.25,15.746c-0.414,0-0.75-0.336-0.75-0.75v-2.25h-2.25c-0.414,0-0.75-0.336-0.75-0.75c0-0.414,0.336-0.75,0.75-0.75
		h2.25v-2.25c0-0.414,0.336-0.75,0.75-0.75S21,8.583,21,8.996v2.25h2.25c0.414,0,0.75,0.336,0.75,0.75c0,0.413-0.336,0.75-0.75,0.75
		H21v2.25C21,15.41,20.664,15.746,20.25,15.746z"/>
	<path d="M12.748,20.245c-0.479,0-0.936-0.149-1.322-0.43l-6.394-4.069H2.25c-1.241,0-2.25-1.009-2.25-2.25v-3
		c0-1.241,1.009-2.25,2.25-2.25h2.781l6.394-4.069c0.389-0.283,0.846-0.433,1.323-0.433c0.346,0,0.695,0.083,1.008,0.239
		C14.524,4.367,15,5.138,15,5.997v12c0,0.483-0.16,0.963-0.45,1.35C14.127,19.909,13.454,20.245,12.748,20.245z M12.253,18.563
		c0.013,0.009,0.029,0.019,0.043,0.03c0.134,0.101,0.29,0.153,0.452,0.153c0.24,0,0.458-0.109,0.601-0.3
		c0.097-0.129,0.15-0.289,0.15-0.45v-12c0-0.286-0.159-0.543-0.415-0.671c-0.106-0.053-0.22-0.08-0.336-0.08
		c-0.162,0-0.317,0.052-0.449,0.151c-0.016,0.012-0.031,0.022-0.046,0.032L6,9.408v5.177L12.253,18.563z M2.25,9.746
		c-0.414,0-0.75,0.336-0.75,0.75v3c0,0.414,0.336,0.75,0.75,0.75H4.5v-4.5H2.25z"/>
</g>
</svg>
