<?xml version="1.0" encoding="utf-8"?>
<!-- Generator: Adobe Illustrator 22.1.0, SVG Export Plug-In . SVG Version: 6.00 Build 0)  -->
<svg version="1.1" id="Layer_1" xmlns="http://www.w3.org/2000/svg" xmlns:xlink="http://www.w3.org/1999/xlink" x="0px" y="0px"
	 viewBox="0 0 24 24" style="enable-background:new 0 0 24 24;" xml:space="preserve">
<title>volume-control-up-1</title>
<g>
	<path d="M20.25,15.787c-0.414,0-0.75-0.336-0.75-0.75v-2.25h-2.25c-0.414,0-0.75-0.336-0.75-0.75c0-0.414,0.336-0.75,0.75-0.75
		h2.25v-2.25c0-0.414,0.336-0.75,0.75-0.75S21,8.624,21,9.037v2.25h2.25c0.414,0,0.75,0.336,0.75,0.75c0,0.414-0.336,0.75-0.75,0.75
		H21v2.25C21,15.451,20.664,15.787,20.25,15.787z"/>
	<path d="M12.751,20.963c-0.05,0-0.101-0.003-0.152-0.008c-3.184-0.323-5.949-2.309-7.275-5.205H1.5c-0.827,0-1.5-0.673-1.5-1.5
		v-4.5c0-0.827,0.673-1.5,1.5-1.5h3.825c1.325-2.896,4.091-4.881,7.275-5.205c0.052-0.005,0.101-0.008,0.15-0.008
		c0.827,0,1.5,0.673,1.5,1.499v14.927c0,0.049-0.003,0.098-0.008,0.147c-0.039,0.398-0.232,0.758-0.542,1.012
		C13.433,20.842,13.096,20.963,12.751,20.963z M1.5,14.25h4.321c0.311,0,0.585,0.187,0.699,0.477
		c1.029,2.635,3.417,4.45,6.231,4.736L12.75,4.537c-0.001,0-0.003,0-0.004,0C9.936,4.824,7.549,6.638,6.52,9.273
		C6.406,9.563,6.132,9.75,5.821,9.75H1.5V14.25z"/>
</g>
</svg>
