<svg xmlns="http://www.w3.org/2000/svg" viewBox="0 0 24 24"><defs><style>.a{fill:none;stroke:currentColor;stroke-linecap:round;stroke-linejoin:round;stroke-width:1.5px;}</style></defs><title>content-typing-machine</title><path class="a" d="M18.929,15.75h1.317a1.5,1.5,0,0,0,1.5-1.5v-3a1.5,1.5,0,0,0-1.5-1.5H3.746a1.5,1.5,0,0,0-1.5,1.5v3a1.5,1.5,0,0,0,1.5,1.5H5.064"/><path class="a" d="M5.246,1.5A.75.75,0,0,1,6,.75H18a.75.75,0,0,1,.75.75V9.75H5.246Z"/><line class="a" x1="21.746" y1="12.75" x2="23.246" y2="12.75"/><line class="a" x1="0.746" y1="12.75" x2="2.246" y2="12.75"/><line class="a" x1="7.916" y1="19.5" x2="7.916" y2="19.5"/><path class="a" d="M7.916,19.5a.375.375,0,1,0,.375.375.375.375,0,0,0-.375-.375"/><line class="a" x1="11.996" y1="19.5" x2="11.996" y2="19.5"/><path class="a" d="M12,19.5a.375.375,0,1,0,.375.375A.375.375,0,0,0,12,19.5"/><line class="a" x1="16.076" y1="19.5" x2="16.076" y2="19.5"/><path class="a" d="M16.076,19.5a.375.375,0,1,0,.375.375.375.375,0,0,0-.375-.375"/><path class="a" d="M17.377,14.25H14.246a2.25,2.25,0,0,1-4.5,0H6.616c-1.177,0-1.123.274-3.613,6.978A1.5,1.5,0,0,0,4.409,23.25H19.584a1.5,1.5,0,0,0,1.406-2.022C18.5,14.529,18.554,14.25,17.377,14.25Z"/><line class="a" x1="8.996" y1="6.75" x2="14.996" y2="6.75"/><line class="a" x1="8.996" y1="3.75" x2="12.746" y2="3.75"/></svg>