<svg xmlns="http://www.w3.org/2000/svg" viewBox="0 0 24 24"><defs><style>.a{fill:none;stroke:currentColor;stroke-linecap:round;stroke-linejoin:round;stroke-width:1.5px;}</style></defs><title>content-quill-pen</title><line class="a" x1="23.254" y1="23.251" x2="16.879" y2="16.876"/><path class="a" d="M3.64,11.267A18.262,18.262,0,0,1,.759.825c.121,0,6.678-.808,11.178,2.9"/><path class="a" d="M19.913,15.758c.238,1.541.039,2.793-.66,3.492-1.06,1.06-3.247,1.056-5.757.137"/><path class="a" d="M4.867,14.9a1.5,1.5,0,0,0,0,2.121l2.121,2.122a1.5,1.5,0,0,0,2.121,0L22.368,5.879a3,3,0,0,0-4.243-4.242Z"/><path class="a" d="M22.368,5.879a3,3,0,0,1,0,4.243L19.186,13.3"/><path class="a" d="M5.914,18.064a2.314,2.314,0,0,0-3.247.065c-.9.9-1.921,5.122-1.921,5.122s4.2-1.035,5.1-1.94A2.313,2.313,0,0,0,5.914,18.064Z"/><line class="a" x1="17.048" y1="11.199" x2="12.805" y2="6.957"/></svg>