<svg xmlns="http://www.w3.org/2000/svg" viewBox="0 0 24 24"><defs><style>.a{fill:none;stroke:currentColor;stroke-linecap:round;stroke-linejoin:round;stroke-width:1.5px;}</style></defs><title>content-typing-machine-1</title><path class="a" d="M21.746,15.75H2.246L1.2,21.479A1.5,1.5,0,0,0,2.671,23.25H21.322A1.5,1.5,0,0,0,22.8,21.479Z"/><path class="a" d="M5.246,1.5A.75.75,0,0,1,6,.75h9l3.75,3.75v6.75H5.246Z"/><line class="a" x1="21.746" y1="12.75" x2="23.246" y2="12.75"/><line class="a" x1="0.746" y1="12.75" x2="2.246" y2="12.75"/><line class="a" x1="16.871" y1="19.125" x2="16.871" y2="19.125"/><path class="a" d="M16.871,19.125a.375.375,0,1,0,.375.375.375.375,0,0,0-.375-.375"/><line class="a" x1="11.996" y1="19.125" x2="11.996" y2="19.125"/><path class="a" d="M12,19.125a.375.375,0,1,0,.375.375A.375.375,0,0,0,12,19.125"/><line class="a" x1="7.121" y1="19.125" x2="7.121" y2="19.125"/><path class="a" d="M7.121,19.125A.375.375,0,1,0,7.5,19.5a.375.375,0,0,0-.375-.375"/><path class="a" d="M2.246,15.75v-3a1.5,1.5,0,0,1,1.5-1.5h16.5a1.5,1.5,0,0,1,1.5,1.5v3"/><line class="a" x1="8.246" y1="8.25" x2="14.996" y2="8.25"/><line class="a" x1="8.246" y1="4.5" x2="11.996" y2="4.5"/></svg>