<?xml version="1.0" encoding="utf-8"?>
<!-- Generator: Adobe Illustrator 22.1.0, SVG Export Plug-In . SVG Version: 6.00 Build 0)  -->
<svg version="1.1" id="Layer_1" xmlns="http://www.w3.org/2000/svg" xmlns:xlink="http://www.w3.org/1999/xlink" x="0px" y="0px"
	 viewBox="0 0 24 24" style="enable-background:new 0 0 24 24;" xml:space="preserve">
<title>lock-shield</title>
<g>
	<path d="M8.25,18C7.009,18,6,16.991,6,15.75v-4.5c0-0.96,0.615-1.808,1.5-2.121V7.5C7.5,5.019,9.519,3,12,3
		c2.481,0,4.5,2.019,4.5,4.5v1.629C17.385,9.442,18,10.29,18,11.25v4.5c0,1.241-1.009,2.25-2.25,2.25H8.25z M8.25,10.5
		c-0.414,0-0.75,0.336-0.75,0.75v4.5c0,0.414,0.336,0.75,0.75,0.75h7.5c0.414,0,0.75-0.336,0.75-0.75v-4.5
		c0-0.414-0.336-0.75-0.75-0.75H8.25z M15,9V7.5c0-1.654-1.346-3-3-3c-1.654,0-3,1.346-3,3V9H15z"/>
	<path d="M12,14.625c-0.62,0-1.125-0.505-1.125-1.125S11.38,12.375,12,12.375c0.304,0.001,0.586,0.118,0.798,0.331
		c0.212,0.213,0.328,0.495,0.327,0.796C13.125,14.121,12.62,14.625,12,14.625z"/>
	<path d="M12,24c-0.066,0-0.131-0.009-0.194-0.026C4.083,21.914,0,17.255,0,10.5V0.75C0,0.336,0.336,0,0.75,0h22.5
		C23.664,0,24,0.336,24,0.75v9.75c0,6.755-4.083,11.414-11.807,13.475C12.131,23.991,12.066,24,12,24z M1.5,10.5
		c0,6.031,3.532,10.059,10.5,11.973c6.968-1.915,10.5-5.942,10.5-11.973v-9h-21V10.5z"/>
</g>
</svg>
