<?xml version="1.0" encoding="utf-8"?>
<!-- Generator: Adobe Illustrator 22.1.0, SVG Export Plug-In . SVG Version: 6.00 Build 0)  -->
<svg version="1.1" id="Layer_1" xmlns="http://www.w3.org/2000/svg" xmlns:xlink="http://www.w3.org/1999/xlink" x="0px" y="0px"
	 viewBox="0 0 24 24" style="enable-background:new 0 0 24 24;" xml:space="preserve">
<title>lock-network</title>
<g>
	<path d="M21,15c-1.37,0-2.564-0.947-2.902-2.25H14.25c-0.414,0-0.75-0.336-0.75-0.75s0.336-0.75,0.75-0.75h3.848
		C18.436,9.947,19.63,9,21,9c1.654,0,3,1.346,3,3C24,13.654,22.654,15,21,15z M21,10.5c-0.827,0-1.5,0.673-1.5,1.5
		s0.673,1.5,1.5,1.5s1.5-0.673,1.5-1.5S21.827,10.5,21,10.5z"/>
	<path d="M14.25,8.25c-0.252,0-0.485-0.125-0.625-0.335c-0.229-0.344-0.135-0.811,0.209-1.04l4.336-2.884C18.057,3.672,18,3.34,18,3
		c0-1.654,1.346-3,3-3s3,1.346,3,3s-1.346,3-3,3c-0.735,0-1.445-0.275-1.993-0.763l-4.342,2.888
		C14.542,8.207,14.398,8.25,14.25,8.25z M21,1.5c-0.827,0-1.5,0.673-1.5,1.5c0,0.299,0.088,0.588,0.255,0.836
		C20.036,4.252,20.501,4.5,21,4.5c0.827,0,1.5-0.673,1.5-1.5S21.827,1.5,21,1.5z"/>
	<path d="M21,24c-1.654,0-3-1.346-3-3c0-0.34,0.057-0.673,0.171-0.992l-4.336-2.883c-0.167-0.111-0.281-0.28-0.32-0.477
		c-0.04-0.196,0-0.396,0.111-0.563c0.139-0.209,0.373-0.335,0.625-0.335c0.148,0,0.292,0.043,0.415,0.126l4.342,2.887
		C19.555,18.275,20.265,18,21,18c1.654,0,3,1.346,3,3S22.654,24,21,24z M21,19.5c-0.827,0-1.5,0.673-1.5,1.5s0.673,1.5,1.5,1.5
		s1.5-0.673,1.5-1.5S21.827,19.5,21,19.5z"/>
	<path d="M2.25,18C1.009,18,0,16.991,0,15.75v-4.5c0-0.96,0.615-1.808,1.5-2.121V7.5C1.5,5.019,3.519,3,6,3s4.5,2.019,4.5,4.5v1.629
		C11.385,9.442,12,10.29,12,11.25v4.5C12,16.991,10.991,18,9.75,18H2.25z M2.25,10.5c-0.414,0-0.75,0.336-0.75,0.75v4.5
		c0,0.414,0.336,0.75,0.75,0.75h7.5c0.414,0,0.75-0.336,0.75-0.75v-4.5c0-0.414-0.336-0.75-0.75-0.75H2.25z M9,9V7.5
		c0-1.654-1.346-3-3-3s-3,1.346-3,3V9H9z"/>
	<path d="M6,14.625c-0.62,0-1.125-0.505-1.125-1.125S5.38,12.375,6,12.375c0.304,0.001,0.586,0.118,0.798,0.331
		c0.212,0.213,0.328,0.495,0.327,0.796C7.125,14.121,6.62,14.625,6,14.625z"/>
</g>
</svg>
