<?xml version="1.0" encoding="utf-8"?>
<!-- Generator: Adobe Illustrator 22.1.0, SVG Export Plug-In . SVG Version: 6.00 Build 0)  -->
<svg version="1.1" id="Layer_1" xmlns="http://www.w3.org/2000/svg" xmlns:xlink="http://www.w3.org/1999/xlink" x="0px" y="0px"
	 viewBox="0 0 24 24" style="enable-background:new 0 0 24 24;" xml:space="preserve">
<title>lock-unlock-4</title>
<g>
	<path d="M8.25,24C7.009,24,6,22.991,6,21.75v-10.5C6,10.009,7.009,9,8.25,9h2.25V6c0-2.481-2.019-4.5-4.5-4.5S1.5,3.519,1.5,6v3.75
		c0,0.414-0.336,0.75-0.75,0.75S0,10.164,0,9.75V6c0-3.308,2.692-6,6-6s6,2.692,6,6v3h9.75C22.991,9,24,10.009,24,11.25v10.5
		c0,1.241-1.009,2.25-2.25,2.25H8.25z M8.25,10.5c-0.414,0-0.75,0.336-0.75,0.75v10.5c0,0.414,0.336,0.75,0.75,0.75h13.5
		c0.414,0,0.75-0.336,0.75-0.75v-10.5c0-0.414-0.336-0.75-0.75-0.75H8.25z"/>
	<path d="M15,19.5c-1.654,0-3-1.346-3-3s1.346-3,3-3s3,1.346,3,3S16.654,19.5,15,19.5z M15,15c-0.827,0-1.5,0.673-1.5,1.5
		S14.173,18,15,18s1.5-0.673,1.5-1.5S15.827,15,15,15z"/>
</g>
</svg>
