<?xml version="1.0" encoding="utf-8"?>
<!-- Generator: Adobe Illustrator 22.1.0, SVG Export Plug-In . SVG Version: 6.00 Build 0)  -->
<svg version="1.1" id="Layer_1" xmlns="http://www.w3.org/2000/svg" xmlns:xlink="http://www.w3.org/1999/xlink" x="0px" y="0px"
	 viewBox="0 0 24 24" style="enable-background:new 0 0 24 24;" xml:space="preserve">
<title>lock-5</title>
<g>
	<path d="M12,24c-4.963,0-9-4.037-9-9c0-2.557,1.091-4.989,3-6.7V6c0-3.308,2.692-6,6-6c3.308,0,6,2.692,6,6v2.3
		c1.909,1.711,3,4.142,3,6.7C21,19.963,16.963,24,12,24z M12,7.5c-4.135,0-7.5,3.365-7.5,7.5s3.365,7.5,7.5,7.5s7.5-3.365,7.5-7.5
		S16.135,7.5,12,7.5z M12,6c1.592,0,3.134,0.416,4.5,1.209V6c0-2.481-2.019-4.5-4.5-4.5C9.519,1.5,7.5,3.519,7.5,6v1.209
		C8.866,6.416,10.408,6,12,6z"/>
	<path d="M12,18c-1.654,0-3-1.346-3-3s1.346-3,3-3c1.654,0,3,1.346,3,3S13.654,18,12,18z M12,13.5c-0.827,0-1.5,0.673-1.5,1.5
		s0.673,1.5,1.5,1.5s1.5-0.673,1.5-1.5S12.827,13.5,12,13.5z"/>
</g>
</svg>
