<?xml version="1.0" encoding="utf-8"?>
<!-- Generator: Adobe Illustrator 22.1.0, SVG Export Plug-In . SVG Version: 6.00 Build 0)  -->
<svg version="1.1" id="Layer_1" xmlns="http://www.w3.org/2000/svg" xmlns:xlink="http://www.w3.org/1999/xlink" x="0px" y="0px"
	 viewBox="0 0 24 24" style="enable-background:new 0 0 24 24;" xml:space="preserve">
<title>lock-unlock-2</title>
<g>
	<path d="M15,24c-4.963,0-9-4.037-9-9c0-2.557,1.091-4.989,3-6.7V5.25C9,3.182,7.318,1.5,5.25,1.5S1.5,3.182,1.5,5.25v4.5
		c0,0.414-0.336,0.75-0.75,0.75S0,10.164,0,9.75v-4.5C0,2.355,2.355,0,5.25,0s5.25,2.355,5.25,5.25v1.959
		C11.866,6.416,13.408,6,15,6c4.963,0,9,4.037,9,9S19.963,24,15,24z M15,7.5c-4.135,0-7.5,3.365-7.5,7.5s3.365,7.5,7.5,7.5
		s7.5-3.365,7.5-7.5S19.135,7.5,15,7.5z"/>
	<path d="M15,17.25c-0.414,0-0.75-0.336-0.75-0.75v-3c0-0.414,0.336-0.75,0.75-0.75s0.75,0.336,0.75,0.75v3
		C15.75,16.914,15.414,17.25,15,17.25z"/>
</g>
</svg>
