<?xml version="1.0" encoding="utf-8"?>
<!-- Generator: Adobe Illustrator 22.1.0, SVG Export Plug-In . SVG Version: 6.00 Build 0)  -->
<svg version="1.1" id="Layer_1" xmlns="http://www.w3.org/2000/svg" xmlns:xlink="http://www.w3.org/1999/xlink" x="0px" y="0px"
	 viewBox="0 0 24 24" style="enable-background:new 0 0 24 24;" xml:space="preserve">
<title>touch-finger-lock</title>
<g>
	<path d="M23.25,24c-0.414,0-0.75-0.336-0.75-0.75v-3.459c0-1.104-0.791-2.038-1.88-2.219l-1.993-0.332
		C18.264,17.179,18,16.868,18,16.5v-3c0-0.414-0.336-0.75-0.75-0.75s-0.75,0.336-0.75,0.75v5.25c0,0.262-0.133,0.5-0.356,0.638
		c-0.119,0.073-0.255,0.112-0.394,0.112c-0.116,0-0.232-0.028-0.336-0.08l-1.174-0.588c-0.057-0.029-0.118-0.051-0.179-0.066
		c-0.073-0.018-0.146-0.028-0.218-0.028c-0.407,0-0.761,0.277-0.86,0.673c-0.083,0.335,0.037,0.692,0.307,0.909l2.929,2.344
		c0.323,0.258,0.375,0.731,0.117,1.054C16.193,23.897,15.979,24,15.75,24c-0.169,0-0.336-0.058-0.468-0.164l-2.929-2.344
		c-0.726-0.581-1.05-1.54-0.825-2.443c0.155-0.619,0.541-1.141,1.088-1.469c0.372-0.223,0.796-0.341,1.225-0.341
		c0.195,0,0.391,0.024,0.583,0.072c0.169,0.042,0.333,0.103,0.489,0.181L15,17.536V13.5c0-1.241,1.009-2.25,2.25-2.25
		s2.25,1.009,2.25,2.25v2.365l1.366,0.228C22.682,16.395,24,17.95,24,19.791v3.459C24,23.664,23.664,24,23.25,24z"/>
	<path d="M8.25,12.375c-0.62,0-1.125-0.505-1.125-1.125c-0.001-0.298,0.115-0.581,0.327-0.794c0.212-0.213,0.494-0.331,0.793-0.331
		c0.625,0,1.129,0.505,1.129,1.125S8.87,12.375,8.25,12.375z"/>
	<path d="M4.125,15C3.505,15,3,14.495,3,13.875v-5.25C3,8.005,3.505,7.5,4.125,7.5H4.5V6.75C4.5,4.682,6.182,3,8.25,3
		S12,4.682,12,6.75V7.5h0.375c0.62,0,1.125,0.505,1.125,1.125v5.25c0,0.62-0.505,1.125-1.125,1.125H4.125z M12,13.5V9H4.5l0,4.5H12z
		 M10.5,7.5V6.75c0-1.241-1.009-2.25-2.25-2.25S6,5.509,6,6.75V7.5H10.5z"/>
	<path d="M2.25,18C1.009,18,0,16.991,0,15.75V2.25C0,1.009,1.009,0,2.25,0h12c1.241,0,2.25,1.009,2.25,2.25v6
		C16.5,8.664,16.164,9,15.75,9S15,8.664,15,8.25v-6c0-0.414-0.336-0.75-0.75-0.75h-12C1.836,1.5,1.5,1.836,1.5,2.25v13.5
		c0,0.414,0.336,0.75,0.75,0.75h6C8.664,16.5,9,16.836,9,17.25S8.664,18,8.25,18H2.25z"/>
</g>
</svg>
