<?xml version="1.0" encoding="utf-8"?>
<!-- Generator: Adobe Illustrator 22.1.0, SVG Export Plug-In . SVG Version: 6.00 Build 0)  -->
<svg version="1.1" id="Layer_1" xmlns="http://www.w3.org/2000/svg" xmlns:xlink="http://www.w3.org/1999/xlink" x="0px" y="0px"
	 viewBox="0 0 24 24" style="enable-background:new 0 0 24 24;" xml:space="preserve">
<g>
	<title>transfer-pictures-laptop</title>
	<path d="M5.53,24c-2.375,0-4.481-1.424-5.365-3.628c-0.047-0.118-0.071-0.243-0.072-0.371c0-0.552,0.449-1.001,1-1.001h1.814V8.167
		C2.907,6.972,3.879,6,5.074,6h2.833c0.276,0,0.5,0.224,0.5,0.5S8.183,7,7.907,7H5.074C4.431,7,3.907,7.524,3.907,8.167V19h4.5
		c0.276,0,0.5,0.224,0.5,0.5c0,0.799,1.402,1.5,3,1.5s3-0.701,3-1.5c0-0.276,0.224-0.5,0.5-0.5h4.5v-6c0-0.276,0.224-0.5,0.5-0.5
		s0.5,0.224,0.5,0.5v6h1.813c0.128,0,0.253,0.024,0.372,0.072c0.247,0.099,0.442,0.289,0.547,0.535
		c0.105,0.246,0.108,0.518,0.009,0.766C22.764,22.576,20.658,24,18.284,24H5.53z M1.093,20c0.731,1.823,2.472,3,4.436,3h12.755
		c1.964,0,3.705-1.178,4.436-3h-6.889c-0.36,1.171-1.961,2-3.924,2s-3.565-0.829-3.925-2L1.093,20z"/>
	<path d="M11.407,11c-0.827,0-1.5-0.673-1.5-1.5v-6c0-0.827,0.673-1.5,1.5-1.5h2.691l0.862-1.724C15.045,0.106,15.217,0,15.407,0h5
		c0.19,0,0.362,0.106,0.447,0.276L21.716,2h0.691c0.827,0,1.5,0.673,1.5,1.5v6c0,0.827-0.673,1.5-1.5,1.5H11.407z M11.407,3
		c-0.276,0-0.5,0.224-0.5,0.5v6c0,0.276,0.224,0.5,0.5,0.5h11c0.276,0,0.5-0.224,0.5-0.5v-6c0-0.276-0.224-0.5-0.5-0.5h-1
		c-0.19,0-0.362-0.106-0.447-0.276L20.098,1h-4.382l-0.862,1.724C14.769,2.894,14.597,3,14.407,3H11.407z"/>
	<path d="M17.907,9c-1.654,0-3-1.346-3-3s1.346-3,3-3s3,1.346,3,3S19.561,9,17.907,9z M17.907,4c-1.103,0-2,0.897-2,2s0.897,2,2,2
		s2-0.897,2-2S19.01,4,17.907,4z"/>
</g>
</svg>
