<svg xmlns="http://www.w3.org/2000/svg" viewBox="0 0 24 24"><defs><style>.a{fill:none;stroke:currentColor;stroke-linecap:round;stroke-linejoin:round;stroke-width:1.5px;}</style></defs><title>like-circle</title><circle class="a" cx="12" cy="12" r="11.25"/><path class="a" d="M7.5,16.4a3.576,3.576,0,0,1,.909.13l2.12.588a3.581,3.581,0,0,0,.961.131h2.849a3.464,3.464,0,0,0,3.483-3.062L18,11.3a2.561,2.561,0,0,0-1.985-2.6l-.849-.181a.854.854,0,0,1-.663-.824V5.772a1.313,1.313,0,0,0-2.625,0v.88A4.314,4.314,0,0,1,7.5,10.9Z"/><polyline class="a" points="5.8 9.75 7.5 9.75 7.5 17.25 5.8 17.25"/></svg>