<svg xmlns="http://www.w3.org/2000/svg" viewBox="0 0 24 24"><title>trends-torch</title><path d="M8.75,10.261H15.5a.5.5,0,0,0,.421-.231A4.627,4.627,0,0,0,16.5,7.51a4.151,4.151,0,0,0-2.816-3.964A.5.5,0,0,0,13,3.954a1.3,1.3,0,0,1-.338.716A3.486,3.486,0,0,1,13.8.915a.5.5,0,0,0-.408-.89A7.8,7.8,0,0,0,7.5,7.51a4.849,4.849,0,0,0,.831,2.525A.5.5,0,0,0,8.75,10.261Z"/><path d="M19.962,12.07a.5.5,0,0,0-.462-.309H4.5a.5.5,0,0,0-.354.854,12.086,12.086,0,0,0,4.81,2.674l1.828,7.723a1.247,1.247,0,0,0,2.434,0l1.828-7.723a12.085,12.085,0,0,0,4.808-2.674A.5.5,0,0,0,19.962,12.07Z"/></svg>