<svg xmlns="http://www.w3.org/2000/svg" viewBox="0 0 24 24"><title>trends-torch-2</title><path d="M5.429,11a.5.5,0,0,0-.415.777l1.4,2.109A2.494,2.494,0,0,0,8.5,15h.1l1.7,7.633a1.746,1.746,0,0,0,3.409,0h0L15.4,15h.1a2.5,2.5,0,0,0,2.08-1.112h0l1.407-2.11A.5.5,0,0,0,18.571,11Z"/><path d="M10.369,9.5a.249.249,0,0,0,.246-.292,1.412,1.412,0,0,1-.017-.144,1.494,1.494,0,0,1,.742-1.423,3.213,3.213,0,0,0,1.473-1.521,5.253,5.253,0,0,1,1.063,3.118.246.246,0,0,0,.068.184.249.249,0,0,0,.181.078h2.917a.249.249,0,0,0,.246-.209C18.07,4.535,13.643.8,13.118.378c-.357-.287-.594-.474-.9-.327a.465.465,0,0,0-.283.426A11.119,11.119,0,0,1,8.617,4.113c-2.372,1.9-2.354,3.8-1.967,5.207a.249.249,0,0,0,.241.183Z"/></svg>