<?xml version="1.0" encoding="utf-8"?>
<!-- Generator: Adobe Illustrator 22.1.0, SVG Export Plug-In . SVG Version: 6.00 Build 0)  -->
<svg version="1.1" id="Layer_1" xmlns="http://www.w3.org/2000/svg" xmlns:xlink="http://www.w3.org/1999/xlink" x="0px" y="0px"
	 viewBox="0 0 24 24" style="enable-background:new 0 0 24 24;" xml:space="preserve">
<title>mobile-phone-horizontal</title>
<g>
	<path d="M3.751,19.5c-2.068,0-3.75-1.682-3.75-3.75v-7.5c0-2.068,1.682-3.75,3.75-3.75h16.5c2.068,0,3.75,1.682,3.75,3.75v7.5
		c0,2.068-1.682,3.75-3.75,3.75H3.751z M20.251,18c1.241,0,2.25-1.009,2.25-2.25v-7.5c0-1.241-1.009-2.25-2.25-2.25h-0.75v12H20.251
		z M3.751,6c-1.241,0-2.25,1.009-2.25,2.25v7.5c0,1.241,1.009,2.25,2.25,2.25h14.25V6H3.751z"/>
</g>
</svg>
