<?xml version="1.0" encoding="utf-8"?>
<!-- Generator: Adobe Illustrator 22.1.0, SVG Export Plug-In . SVG Version: 6.00 Build 0)  -->
<svg version="1.1" id="Layer_1" xmlns="http://www.w3.org/2000/svg" xmlns:xlink="http://www.w3.org/1999/xlink" x="0px" y="0px"
	 viewBox="0 0 24 24" style="enable-background:new 0 0 24 24;" xml:space="preserve">
<title>mobile-phone-blackberry-2</title>
<g>
	<circle cx="7.875" cy="15.375" r="1.125"/>
	<circle cx="12" cy="15.375" r="1.125"/>
	<circle cx="16.125" cy="15.375" r="1.125"/>
	<circle cx="7.875" cy="19.125" r="1.125"/>
	<circle cx="12" cy="19.125" r="1.125"/>
	<path d="M16.125,20.25c-0.62,0-1.125-0.505-1.125-1.125S15.505,18,16.125,18c0.014,0,0.03,0.001,0.046,0.003
		c0.01,0.001,0.019,0.002,0.027,0.003c0.583,0.029,1.052,0.521,1.052,1.12C17.25,19.745,16.745,20.25,16.125,20.25z"/>
	<path d="M5.25,24C4.009,24,3,22.991,3,21.75V2.25C3,1.009,4.009,0,5.25,0h13.5C19.991,0,21,1.009,21,2.25v19.5
		c0,1.241-1.009,2.25-2.25,2.25H5.25z M4.5,21.75c0,0.414,0.336,0.75,0.75,0.75h13.5c0.414,0,0.75-0.336,0.75-0.75V12h-15V21.75z
		 M19.5,10.5V2.25c0-0.414-0.336-0.75-0.75-0.75H5.25C4.836,1.5,4.5,1.836,4.5,2.25v8.25H19.5z"/>
</g>
</svg>
