<?xml version="1.0" encoding="utf-8"?>
<!-- Generator: Adobe Illustrator 22.1.0, SVG Export Plug-In . SVG Version: 6.00 Build 0)  -->
<svg version="1.1" id="Layer_1" xmlns="http://www.w3.org/2000/svg" xmlns:xlink="http://www.w3.org/1999/xlink" x="0px" y="0px"
	 viewBox="0 0 24 24" style="enable-background:new 0 0 24 24;" xml:space="preserve">
<title>mobile-phone-blackberry</title>
<g>
	<path d="M8.25,24c-2.068,0-3.75-1.682-3.75-3.75V6.75c0-1.799,1.268-3.323,3-3.673V0.75C7.5,0.336,7.836,0,8.25,0S9,0.336,9,0.75V3
		h6.75c2.068,0,3.75,1.682,3.75,3.75v13.5c0,2.068-1.682,3.75-3.75,3.75H8.25z M6,20.25c0,1.241,1.009,2.25,2.25,2.25h7.5
		c1.241,0,2.25-1.009,2.25-2.25V13.5H6V20.25z M18,12V6.75c0-1.241-1.009-2.25-2.25-2.25h-7.5C7.009,4.5,6,5.509,6,6.75V12H18z"/>
	<circle cx="10.125" cy="15.75" r="1.125"/>
	<circle cx="14.25" cy="15.75" r="1.125"/>
	<circle cx="10.125" cy="19.5" r="1.125"/>
	<circle cx="14.25" cy="19.5" r="1.125"/>
</g>
</svg>
