<?xml version="1.0" encoding="utf-8"?>
<!-- Generator: Adobe Illustrator 22.1.0, SVG Export Plug-In . SVG Version: 6.00 Build 0)  -->
<svg version="1.1" id="Layer_1" xmlns="http://www.w3.org/2000/svg" xmlns:xlink="http://www.w3.org/1999/xlink" x="0px" y="0px"
	 viewBox="0 0 24 24" style="enable-background:new 0 0 24 24;" xml:space="preserve">
<title>phone-hand-hold</title>
<g>
	<path d="M16.014,23.865c-0.414,0-0.75-0.336-0.75-0.75V21.24c0-0.614,0.088-1.224,0.263-1.813c0.286-1.052,1.026-1.926,2.026-2.391
		c0.437-0.185,0.711-0.594,0.711-1.048v-5.623c0-0.414-0.336-0.75-0.75-0.75s-0.75,0.336-0.75,0.75v2.25
		c0,0.414-0.336,0.75-0.75,0.75c-1.241,0-2.25,1.009-2.25,2.25c0,0.414-0.336,0.75-0.75,0.75s-0.75-0.336-0.75-0.75
		c0-0.2,0.017-0.4,0.049-0.599l-5.109,1.259c-0.241,0.06-0.488,0.09-0.735,0.09c-0.047,0-0.094-0.001-0.142-0.004
		c0.103,0.294,0.326,0.538,0.624,0.664c1.02,0.474,1.765,1.353,2.054,2.418c0.171,0.575,0.259,1.182,0.258,1.797v1.875
		c0,0.414-0.336,0.75-0.75,0.75s-0.75-0.336-0.75-0.75V21.24c0-0.47-0.067-0.936-0.201-1.386c-0.177-0.651-0.621-1.179-1.22-1.457
		c-0.953-0.403-1.578-1.349-1.579-2.406v-0.144c-0.641-0.426-1.106-1.082-1.289-1.829L2.082,8.352
		C1.676,6.701,2.689,5.027,4.34,4.622l1.924-0.473V3.385c0.001-1.105,0.792-2.038,1.881-2.219l5.999-1
		c0.123-0.02,0.248-0.031,0.371-0.031c0.956,0,1.788,0.599,2.109,1.471l0.177-0.044c0.247-0.06,0.492-0.09,0.737-0.09
		c1.423,0,2.654,0.966,2.993,2.348c0,0,1.397,5.68,1.398,5.685c0.19,0.784,0.062,1.609-0.363,2.309
		c-0.409,0.675-1.047,1.158-1.803,1.37v2.802c0,1.057-0.629,2.007-1.603,2.419c-0.58,0.27-1.018,0.793-1.192,1.43
		c-0.137,0.464-0.206,0.933-0.206,1.402v1.875C16.764,23.529,16.428,23.865,16.014,23.865z M4.698,6.078
		c-0.41,0.101-0.756,0.356-0.976,0.718S3.438,7.584,3.538,7.993l1.393,5.666c0.116,0.47,0.437,0.857,0.881,1.06
		c0.214,0.097,0.434,0.145,0.66,0.145c0.125,0,0.251-0.015,0.374-0.045l0.799-0.197l-1.031-4.184
		C6.516,10.036,6.762,9.629,7.164,9.53c0.059-0.015,0.119-0.022,0.18-0.022c0.346,0,0.645,0.235,0.728,0.571l1.031,4.184l3.979-0.98
		c0.55-0.69,1.327-1.166,2.183-1.342v-1.576c0-1.241,1.009-2.25,2.25-2.25s2.25,1.009,2.25,2.25v1.198
		c0.212-0.13,0.389-0.309,0.521-0.525c0.219-0.361,0.284-0.786,0.183-1.197l-1.393-5.662c-0.174-0.71-0.806-1.206-1.537-1.206
		c-0.126,0-0.253,0.015-0.376,0.046c-0.007,0.002-0.397,0.097-0.397,0.097v2.228c0,1.104-0.79,2.038-1.879,2.22l-6,1
		C8.761,8.585,8.635,8.595,8.51,8.595c-0.469,0-0.919-0.145-1.303-0.419C6.718,7.827,6.394,7.308,6.295,6.715
		c-0.02-0.122-0.031-0.247-0.031-0.371V5.694L4.698,6.078z M14.515,1.636c-0.041,0-0.082,0.003-0.124,0.01l-5.999,1
		c-0.363,0.06-0.627,0.371-0.627,0.74v2.959c0,0.041,0.003,0.083,0.01,0.123c0.033,0.198,0.141,0.371,0.304,0.488
		c0.128,0.091,0.278,0.14,0.434,0.14c0.042,0,0.084-0.003,0.125-0.01l6-1c0.363-0.061,0.627-0.372,0.626-0.74V2.386
		c0-0.041-0.003-0.083-0.01-0.124C15.194,1.905,14.877,1.636,14.515,1.636z"/>
</g>
</svg>
