<?xml version="1.0" encoding="utf-8"?>
<!-- Generator: Adobe Illustrator 22.1.0, SVG Export Plug-In . SVG Version: 6.00 Build 0)  -->
<svg version="1.1" id="Layer_1" xmlns="http://www.w3.org/2000/svg" xmlns:xlink="http://www.w3.org/1999/xlink" x="0px" y="0px"
	 viewBox="0 0 24 24" style="enable-background:new 0 0 24 24;" xml:space="preserve">
<title>phone-hand-hold-1</title>
<g>
	<path d="M12,24c-1.862,0-3.394-1.331-3.693-3.115L6.75,21.508v1.742C6.75,23.664,6.414,24,6,24s-0.75-0.336-0.75-0.75V21
		c0-0.309,0.185-0.582,0.472-0.696l2.452-0.981c0.132-0.053,0.268-0.118,0.414-0.198c0.034-0.022,0.07-0.042,0.107-0.059
		c0.486-0.287,0.891-0.672,1.206-1.145l1.645-2.467c0.184-0.276,0.184-0.633,0-0.909L11.52,14.51
		c-0.131-0.176-0.323-0.289-0.54-0.32c-0.04-0.006-0.08-0.009-0.12-0.009c-0.177,0-0.345,0.057-0.489,0.164L8.7,15.6
		c-0.131,0.098-0.286,0.15-0.449,0.15c-0.235,0-0.459-0.112-0.6-0.3c-0.12-0.161-0.171-0.358-0.143-0.556
		C7.536,14.696,7.64,14.52,7.8,14.4l0.45-0.337v-3.176L5.695,11.98c-0.889,0.381-1.588,1.081-1.969,1.97l-1.173,2.744
		c-0.202,0.47-0.304,0.968-0.304,1.479v5.076C2.25,23.664,1.914,24,1.5,24s-0.75-0.336-0.75-0.75v-5.076
		c0-0.716,0.143-1.412,0.425-2.07l1.172-2.744c0.533-1.245,1.512-2.225,2.757-2.758L8.25,9.255V3.75C8.25,1.682,9.932,0,12,0h7.5
		c2.068,0,3.75,1.682,3.75,3.75v16.5c0,2.068-1.682,3.75-3.75,3.75H12z M9.75,20.25c0,1.241,1.009,2.25,2.25,2.25h7.5
		c1.241,0,2.25-1.009,2.25-2.25V19.5H10.546c-0.239,0.246-0.506,0.469-0.796,0.668V20.25z M21.75,18V3.75
		c0-1.241-1.009-2.25-2.25-2.25H12c-1.241,0-2.25,1.009-2.25,2.25v9.216c0.34-0.187,0.718-0.285,1.11-0.285
		c0.111,0,0.224,0.008,0.334,0.024c0.613,0.088,1.156,0.409,1.527,0.906c0.025,0.033,0.048,0.066,0.071,0.1
		c0.522,0.784,0.523,1.794,0.002,2.575L11.651,18H21.75z"/>
</g>
</svg>
