<svg xmlns="http://www.w3.org/2000/svg" viewBox="0 0 24 24"><defs><style>.a{fill:none;stroke:currentColor;stroke-linecap:round;stroke-linejoin:round;stroke-width:1.5px;}</style></defs><title>phone-actions-restaurant</title><path class="a" d="M12.37,22.54l.01.007a4.5,4.5,0,0,0,5.6-.615l.629-.629a1.5,1.5,0,0,0,0-2.122L15.956,16.53a1.5,1.5,0,0,0-2.122,0h0a1.5,1.5,0,0,1-2.121,0L7.471,12.287a1.5,1.5,0,0,1,0-2.121h0a1.5,1.5,0,0,0,0-2.122L4.819,5.393a1.5,1.5,0,0,0-2.121,0l-.63.629a4.5,4.5,0,0,0-.614,5.6l.006.01A40.606,40.606,0,0,0,12.37,22.54Z"/><line class="a" x1="14.25" y1="0.75" x2="14.25" y2="11.25"/><path class="a" d="M11.25.75V3a3,3,0,0,0,3,3h0a3,3,0,0,0,3-3V.75"/><path class="a" d="M23.25,11.25V.75h0a13.241,13.241,0,0,0-3.75,7.5h3.75"/></svg>