<svg xmlns="http://www.w3.org/2000/svg" viewBox="0 0 24 24"><defs><style>.a{fill:none;stroke:currentColor;stroke-linecap:round;stroke-linejoin:round;stroke-width:1.5px;}</style></defs><title>phone-actions-smile</title><path class="a" d="M7.471,12.287a1.5,1.5,0,0,1,0-2.121h0a1.5,1.5,0,0,0,0-2.122L4.819,5.393a1.5,1.5,0,0,0-2.121,0l-.63.629a4.5,4.5,0,0,0-.614,5.6l.006.01A40.606,40.606,0,0,0,12.37,22.54l.01.007a4.5,4.5,0,0,0,5.6-.615l.629-.629a1.5,1.5,0,0,0,0-2.122L15.956,16.53a1.5,1.5,0,0,0-2.122,0h0a1.5,1.5,0,0,1-2.121,0"/><path class="a" d="M17.25.75a6,6,0,0,0-5.23,8.94L10.5,14.25l4.426-1.967A6,6,0,1,0,17.25.75Z"/><path class="a" d="M20.25,6.75a3,3,0,0,1-6,0Z"/></svg>