<svg xmlns="http://www.w3.org/2000/svg" viewBox="0 0 24 24"><defs><style>.a{fill:none;stroke:currentColor;stroke-linecap:round;stroke-linejoin:round;stroke-width:1.5px;}</style></defs><title>phone-actions-pause</title><path class="a" d="M12.464,22.54l.01.006a4.5,4.5,0,0,0,5.6-.614l.629-.63a1.5,1.5,0,0,0,0-2.121L16.05,16.529a1.5,1.5,0,0,0-2.122,0h0a1.5,1.5,0,0,1-2.121,0L7.564,12.287a1.5,1.5,0,0,1,0-2.121h0a1.5,1.5,0,0,0,0-2.122L4.913,5.393a1.5,1.5,0,0,0-2.122,0l-.629.629a4.5,4.5,0,0,0-.615,5.6l.007.01A40.592,40.592,0,0,0,12.464,22.54Z"/><path class="a" d="M15.656,9h0a1.5,1.5,0,0,1-1.5-1.5V2.25a1.5,1.5,0,0,1,1.5-1.5h0a1.5,1.5,0,0,1,1.5,1.5V7.5A1.5,1.5,0,0,1,15.656,9Z"/><path class="a" d="M21.656,9h0a1.5,1.5,0,0,1-1.5-1.5V2.25a1.5,1.5,0,0,1,1.5-1.5h0a1.5,1.5,0,0,1,1.5,1.5V7.5A1.5,1.5,0,0,1,21.656,9Z"/></svg>