<svg xmlns="http://www.w3.org/2000/svg" viewBox="0 0 24 24"><title>smiley-lol-side</title><path d="M12,0A12,12,0,1,0,24,12,12.013,12.013,0,0,0,12,0Zm4.349,16.349a6.166,6.166,0,0,1-5.942,1.592.149.149,0,0,1-.067-.25l7.349-7.35A.155.155,0,0,1,17.8,10.3c.09.019.131.059.144.111A6.175,6.175,0,0,1,16.349,16.349Zm-12.481-3a1,1,0,1,1,0-2H8.111a1,1,0,0,1,.814,1.581L7.156,15.41a1,1,0,0,1-1.627-1.163l.356-.5a.249.249,0,0,0-.2-.4ZM14.582,5.189a1,1,0,0,1,1.2,1.6L12.953,8.911a1,1,0,0,1-1.6-.8V3.868a1,1,0,1,1,2,0V5.611a.25.25,0,0,0,.4.2Z"/></svg>