<svg xmlns="http://www.w3.org/2000/svg" viewBox="0 0 24 24"><title>smiley-in-love-alternate-1</title><path d="M23.55,4.359a4.279,4.279,0,0,0-3.135-2.3,4.233,4.233,0,0,0-1.527.03.248.248,0,0,1-.189-.037,11.972,11.972,0,0,0-13.4,0,.255.255,0,0,1-.19.038,4.228,4.228,0,0,0-1.526-.031A4.275,4.275,0,0,0,.506,8.3a.247.247,0,0,1,.019.192,12,12,0,1,0,22.949-.007.252.252,0,0,1,.019-.192A4.265,4.265,0,0,0,23.55,4.359Zm-21.309.9a2.268,2.268,0,0,1,3.633-.59l.45.449a.25.25,0,0,0,.354,0l.449-.449A2.269,2.269,0,0,1,11,6.19q0,.081,0,.162a2.268,2.268,0,0,1-.663,1.522L6.681,11.687a.25.25,0,0,1-.18.077.254.254,0,0,1-.181-.077L2.665,7.874A2.269,2.269,0,0,1,2.241,5.255ZM7.059,15.709a.441.441,0,0,1,.38-.22h9.123a.439.439,0,0,1,.38.658,5.706,5.706,0,0,1-9.882,0A.439.439,0,0,1,7.059,15.709ZM21.336,7.874l-3.655,3.813a.25.25,0,0,1-.18.077.254.254,0,0,1-.181-.077L13.665,7.874a2.269,2.269,0,0,1,3.209-3.209l.45.449a.25.25,0,0,0,.354,0l.449-.449a2.269,2.269,0,0,1,3.209,3.209Z"/></svg>