<svg xmlns="http://www.w3.org/2000/svg" viewBox="0 0 24 24"><title>smiley-sad-crying-alternate</title><circle cx="7.083" cy="9" r="1.5"/><circle cx="17.083" cy="9" r="1.5"/><path d="M15.1,21.539A10,10,0,1,1,21.708,9.272a1,1,0,1,0,1.923-.544A12,12,0,1,0,15.7,23.445a1,1,0,1,0-.6-1.906Z"/><path d="M6.927,18.338a1,1,0,0,0,1.384-.291,4.505,4.505,0,0,1,5.443-1.727,1,1,0,1,0,.745-1.856,6.507,6.507,0,0,0-7.864,2.489A1,1,0,0,0,6.927,18.338Z"/><path d="M21.074,11.932a1,1,0,0,0-1.647,0c-.667.965-2.844,4.246-2.844,5.9a3.667,3.667,0,0,0,7.334,0C23.917,16.178,21.741,12.9,21.074,11.932ZM20.25,19.5a1.67,1.67,0,0,1-1.667-1.667,10.192,10.192,0,0,1,1.453-3.15.251.251,0,0,1,.215-.121.248.248,0,0,1,.214.122,10.17,10.17,0,0,1,1.452,3.149A1.669,1.669,0,0,1,20.25,19.5Z"/></svg>