<svg xmlns="http://www.w3.org/2000/svg" viewBox="0 0 24 24"><title>smiley-fever</title><path d="M15.408,16.711a.25.25,0,0,0,.308.025l3.569-2.365a.252.252,0,0,0,.072-.345l-.56-.861a.251.251,0,0,0-.346-.073l-3.91,2.525a.25.25,0,0,0,0,.42A6.458,6.458,0,0,1,15.408,16.711Z"/><path d="M12,0A12,12,0,1,0,24,12,12.013,12.013,0,0,0,12,0Zm5.355,6.447A2.656,2.656,0,0,0,15.25,5.5a1,1,0,0,1,0-2c1.153,0,3.142.547,3.895,2.053a1,1,0,0,1-1.79.894ZM17.5,9.5A1.5,1.5,0,1,1,16,8,1.5,1.5,0,0,1,17.5,9.5Zm-9.25-6a1,1,0,0,1,0,2,2.656,2.656,0,0,0-2.105.947,1,1,0,1,1-1.79-.894C5.108,4.047,7.1,3.5,8.25,3.5Zm1.25,6A1.5,1.5,0,1,1,8,8,1.5,1.5,0,0,1,9.5,9.5Zm12.477,4.887-5.312,3.519a.251.251,0,0,0-.1.284,1,1,0,0,1-1.792.846A4.5,4.5,0,0,0,8.158,18,1,1,0,1,1,6.9,16.451a6.506,6.506,0,0,1,5.488-1.313.248.248,0,0,0,.188-.034l6.953-4.491a2.251,2.251,0,0,1,2.453,3.774Z"/></svg>