<svg xmlns="http://www.w3.org/2000/svg" viewBox="0 0 24 24"><title>smiley-zipped-alternate</title><path d="M17.908,20.068A10,10,0,1,1,12,2a9.943,9.943,0,0,1,9.959,9.09,1,1,0,0,0,1.992-.18A12,12,0,1,0,12,24a11.919,11.919,0,0,0,7.092-2.318,1,1,0,1,0-1.184-1.614Z"/><circle cx="8" cy="9" r="2"/><circle cx="16" cy="9" r="2"/><path d="M21.5,13.5c-.921,0-3.188.286-4.106,1.408A.249.249,0,0,1,17.2,15H16.75a.25.25,0,0,1-.25-.25V14a1,1,0,0,0-2,0v.75a.25.25,0,0,1-.25.25h-1.5a.25.25,0,0,1-.25-.25V14a1,1,0,0,0-2,0v.75a.25.25,0,0,1-.25.25H8.75a.25.25,0,0,1-.25-.25V14a1,1,0,0,0-2,0v.75a.25.25,0,0,1-.25.25H6a1,1,0,0,0,0,2H8.25a.25.25,0,0,1,.25.25V18a1,1,0,0,0,2,0v-.75a.25.25,0,0,1,.25-.25h1.5a.25.25,0,0,1,.25.25V18a1,1,0,0,0,2,0v-.75a.25.25,0,0,1,.25-.25H17.2a.249.249,0,0,1,.193.092c.918,1.122,3.185,1.408,4.106,1.408a2.5,2.5,0,0,0,0-5Z"/></svg>