<svg xmlns="http://www.w3.org/2000/svg" viewBox="0 0 24 24"><title>smiley-lol-alternate</title><path d="M8.375,9.9a1,1,0,0,0,.917.6.973.973,0,0,0,.4-.084A1,1,0,0,0,10.207,9.1a3.5,3.5,0,0,0-6.414,0,1,1,0,0,0,1.832.8,1.5,1.5,0,0,1,2.75,0Z"/><path d="M18.375,9.9a1,1,0,1,0,1.832-.8,3.5,3.5,0,0,0-6.415,0,1,1,0,1,0,1.832.8,1.5,1.5,0,0,1,2.751,0Z"/><path d="M12,18.5a5.7,5.7,0,0,0,4.941-2.853.439.439,0,0,0-.38-.658H7.438a.44.44,0,0,0-.379.659A5.7,5.7,0,0,0,12,18.5Z"/><path d="M21.823,12.432a1.038,1.038,0,0,0-1.646,0C19.522,13.379,18,15.722,18,17a3,3,0,0,0,6,0C24,15.722,22.478,13.379,21.823,12.432ZM21,18a1,1,0,0,1-1-1,6.06,6.06,0,0,1,.782-1.772.251.251,0,0,1,.436,0A6.08,6.08,0,0,1,22,17,1,1,0,0,1,21,18Z"/><path d="M1.142,9.962a1,1,0,0,0,1.234-.69,10,10,0,0,1,19.248,0,1,1,0,0,0,.961.728.983.983,0,0,0,.273-.038,1,1,0,0,0,.69-1.234,12,12,0,0,0-23.1,0A1,1,0,0,0,1.142,9.962Z"/><path d="M17,20.662a10.176,10.176,0,0,1-10,0A1,1,0,0,0,6,22.4a12.021,12.021,0,0,0,12,0,1,1,0,0,0-1-1.733Z"/><path d="M3.823,12.432a1.038,1.038,0,0,0-1.646,0C1.522,13.379,0,15.722,0,17a3,3,0,0,0,6,0C6,15.722,4.478,13.379,3.823,12.432ZM3,18a1,1,0,0,1-1-1,6.1,6.1,0,0,1,.783-1.772.25.25,0,0,1,.435,0A6.047,6.047,0,0,1,4,17,1,1,0,0,1,3,18Z"/></svg>