<svg xmlns="http://www.w3.org/2000/svg" viewBox="0 0 24 24"><title>smiley-crazy-tongue-alternate</title><path d="M6.014,11.164A1,1,0,0,0,7,12a.927.927,0,0,0,.165-.014l3-.5a1,1,0,0,0,.543-1.693l-3-3A1,1,0,1,0,6.293,8.207L7.575,9.49a.249.249,0,0,1-.135.423l-.6.1A1,1,0,0,0,6.014,11.164Z"/><path d="M17.707,6.793a1,1,0,0,0-1.414,0l-3,3a1,1,0,0,0,.565,1.7l3.5.5a1,1,0,1,0,.284-1.98l-1.026-.146a.25.25,0,0,1-.141-.425l1.232-1.232A1,1,0,0,0,17.707,6.793Z"/><path d="M17.2,14.5H6.8a.5.5,0,0,0-.433.75,6.514,6.514,0,0,0,1.538,1.8.253.253,0,0,1,.092.2V20a4,4,0,0,0,8,0V17.244a.25.25,0,0,1,.093-.2,6.528,6.528,0,0,0,1.537-1.8.5.5,0,0,0-.433-.75ZM12,22a2,2,0,0,1-2-2V17.55a.252.252,0,0,1,.138-.224A4.2,4.2,0,0,1,12,17a4.428,4.428,0,0,1,1.855.311.251.251,0,0,1,.145.227V20A2,2,0,0,1,12,22Z"/><path d="M12,0A12,12,0,0,0,4.406,21.292a1,1,0,0,0,1.266-1.548,10,10,0,1,1,12.627.024,1,1,0,1,0,1.26,1.552A12,12,0,0,0,12,0Z"/></svg>