<svg xmlns="http://www.w3.org/2000/svg" viewBox="0 0 24 24"><title>smiley-lol-sideways-alternate</title><path d="M18.276,10.314a.5.5,0,0,0-.837-.225l-7.35,7.351a.5.5,0,0,0,.225.836,6.5,6.5,0,0,0,7.962-7.962Z"/><path d="M16.2,5.388a.142.142,0,0,1-.226,0,1,1,0,0,0-1.4-.2l-.829.621a.25.25,0,0,1-.4-.2V3.865a1,1,0,0,0-2,0V8.108a1,1,0,0,0,1.6.8l2.828-2.122a1.094,1.094,0,0,0,.124-.11.245.245,0,0,1,.182-.077.248.248,0,0,1,.181.079.955.955,0,0,0,.163.141C17.376,7.474,19.718,9,21,9a3,3,0,0,0,0-6c-1.279,0-3.621,1.522-4.569,2.177A.991.991,0,0,0,16.2,5.388ZM21,5a1,1,0,0,1,0,2,6.046,6.046,0,0,1-1.773-.783.25.25,0,0,1,0-.435A6.04,6.04,0,0,1,21,5Z"/><path d="M3.263,16.873A10,10,0,0,1,16.873,3.262a1,1,0,1,0,.976-1.745A12,12,0,0,0,1.517,17.848a1,1,0,0,0,.874.513.988.988,0,0,0,.487-.128A1,1,0,0,0,3.263,16.873Z"/><path d="M22.881,13.878a1,1,0,0,0-1.223.708,10.012,10.012,0,0,1-7.071,7.071,1,1,0,0,0,.257,1.967.962.962,0,0,0,.259-.035A12.009,12.009,0,0,0,23.589,15.1,1,1,0,0,0,22.881,13.878Z"/><path d="M5.173,16.428C4.519,17.375,3,19.718,3,21a3,3,0,0,0,6,0c0-1.279-1.523-3.622-2.177-4.569A1.039,1.039,0,0,0,5.173,16.428ZM6,22a1,1,0,0,1-1-1,6.049,6.049,0,0,1,.782-1.772.25.25,0,0,1,.435,0A6.033,6.033,0,0,1,7,21,1,1,0,0,1,6,22Z"/><path d="M8.108,11.35H3.865a1,1,0,0,0,0,2H5.679a.25.25,0,0,1,.2.395l-.356.5a1,1,0,0,0,1.627,1.163l1.768-2.476a1,1,0,0,0-.813-1.581Z"/></svg>