<svg xmlns="http://www.w3.org/2000/svg" viewBox="0 0 24 24"><title>smiley-lol-sideways</title><path d="M24,4.5a4,4,0,0,0-4-4,6.07,6.07,0,0,0-2.459.744.252.252,0,0,1-.221,0A12.005,12.005,0,0,0,1.5,17.818a.249.249,0,0,1,.01.221A5.223,5.223,0,0,0,1,20,4,4,0,0,0,7.387,23.2a.253.253,0,0,1,.241-.032,12.034,12.034,0,0,0,12.857-2.69A12.025,12.025,0,0,0,23.048,7.3a.25.25,0,0,1,.037-.257A3.978,3.978,0,0,0,24,4.5Zm-4-2a2,2,0,0,1,0,4c-.883,0-2.912-1.279-3.689-1.791a.251.251,0,0,1,0-.418C17.089,3.776,19.117,2.5,20,2.5ZM17.053,17.05a6.109,6.109,0,0,1-4.349,1.8,6.2,6.2,0,0,1-1.593-.209.153.153,0,0,1-.106-.107.147.147,0,0,1,.039-.143l7.35-7.35a.142.142,0,0,1,.148-.034.147.147,0,0,1,.1.1A6.176,6.176,0,0,1,17.053,17.05ZM15.428,7.176,12.6,9.3a1,1,0,0,1-.6.2,1,1,0,0,1-1-1V4.255a1,1,0,1,1,2,0V6a.25.25,0,0,0,.4.2l.829-.622a1,1,0,0,1,1.2,1.6Zm-9.509,6.74.356-.5a.251.251,0,0,0-.2-.4H4.258a1,1,0,0,1,0-2H8.5A1,1,0,0,1,9.313,12.6L7.546,15.078a1,1,0,0,1-1.627-1.162ZM5,22a2,2,0,0,1-2-2c0-.883,1.279-2.911,1.791-3.689a.251.251,0,0,1,.418,0C5.721,17.085,7,19.114,7,20A2,2,0,0,1,5,22Z"/></svg>