<svg xmlns="http://www.w3.org/2000/svg" viewBox="0 0 24 24"><title>smiley-lol-alternate-1</title><path d="M24,12A12,12,0,1,0,.169,14.007a3,3,0,0,0,1.165,3.487,12,12,0,0,0,21.332,0,3,3,0,0,0,1.165-3.487A12.071,12.071,0,0,0,24,12ZM12,20.5a6,6,0,0,1-5.862-4.716.5.5,0,0,1,.758-.528A9.3,9.3,0,0,0,12,16.5a9.3,9.3,0,0,0,5.1-1.244.5.5,0,0,1,.758.528A6,6,0,0,1,12,20.5Zm7.158-9.737a.749.749,0,0,1-1.019-.292A1.488,1.488,0,0,0,16.8,9.75h0a1.49,1.49,0,0,0-1.345.722.758.758,0,0,1-1.02.291.75.75,0,0,1-.292-1.02A3.01,3.01,0,0,1,16.8,8.25h0A3,3,0,0,1,19.45,9.744.749.749,0,0,1,19.158,10.763ZM4.845,9.743A3.01,3.01,0,0,1,7.5,8.25h0a3,3,0,0,1,2.653,1.494.75.75,0,0,1-1.312.727A1.488,1.488,0,0,0,7.5,9.75h0a1.492,1.492,0,0,0-1.345.722.758.758,0,0,1-1.02.291A.749.749,0,0,1,4.845,9.743ZM1.774,14.137a6.709,6.709,0,0,1,2.233-1.3.5.5,0,0,1,.693.489,6.693,6.693,0,0,1-.473,2.541,1.517,1.517,0,0,1-2.09.364A1.5,1.5,0,0,1,1.774,14.137Zm18,1.726a6.693,6.693,0,0,1-.473-2.541.5.5,0,0,1,.693-.489,6.709,6.709,0,0,1,2.233,1.3,1.5,1.5,0,1,1-2.453,1.726Z"/></svg>