<svg xmlns="http://www.w3.org/2000/svg" viewBox="0 0 24 24"><title>smiley-very-happy</title><path d="M12,0A12,12,0,1,0,24,12,12.013,12.013,0,0,0,12,0ZM6.438,5.394l.067-.465a.5.5,0,0,1,.99,0l.067.464a3.013,3.013,0,0,0,2.544,2.546l.464.066a.5.5,0,0,1,0,.99l-.464.066a3.013,3.013,0,0,0-2.544,2.545l-.067.465a.5.5,0,0,1-.99,0l-.067-.464A3.013,3.013,0,0,0,3.894,9.061L3.43,8.995a.5.5,0,0,1,0-.99l.464-.066A3.013,3.013,0,0,0,6.438,5.394ZM9.5,16.5a2.5,2.5,0,0,1,5,0v2a2.5,2.5,0,0,1-5,0Zm8.062-4.894-.067.465a.5.5,0,0,1-.99,0l-.067-.464a3.013,3.013,0,0,0-2.544-2.546l-.464-.066a.5.5,0,0,1,0-.99l.464-.066a3.013,3.013,0,0,0,2.544-2.545l.067-.465a.5.5,0,0,1,.99,0l.067.464a3.013,3.013,0,0,0,2.544,2.546l.464.066a.5.5,0,0,1,0,.99l-.464.066A3.013,3.013,0,0,0,17.562,11.606Z"/></svg>