<svg xmlns="http://www.w3.org/2000/svg" viewBox="0 0 24 24"><title>smiley-bright</title><path d="M12,0A12,12,0,1,0,24,12,12.013,12.013,0,0,0,12,0ZM22.25,8.75a.749.749,0,0,1-.644.742l-.5.071a3.019,3.019,0,0,0-2.546,2.546l-.071.5a.749.749,0,0,1-1.484,0l-.071-.5a3.019,3.019,0,0,0-2.546-2.546l-.5-.071a.749.749,0,0,1,0-1.484l.5-.071a3.019,3.019,0,0,0,2.546-2.546l.071-.5a.749.749,0,0,1,1.484,0l.071.5a3.019,3.019,0,0,0,2.546,2.546l.5.071A.749.749,0,0,1,22.25,8.75Zm-9.662,9.625A3.385,3.385,0,0,0,15.8,16.059a1,1,0,1,1,1.9.632,5.379,5.379,0,0,1-5.11,3.684,1,1,0,0,1,0-2ZM2.894,8.008l.5-.071A3.019,3.019,0,0,0,5.937,5.391l.071-.5a.749.749,0,0,1,1.484,0l.071.5a3.019,3.019,0,0,0,2.546,2.546l.5.071a.749.749,0,0,1,0,1.484l-.5.071a3.019,3.019,0,0,0-2.546,2.546l-.071.5a.749.749,0,0,1-1.484,0l-.071-.5A3.019,3.019,0,0,0,3.391,9.563l-.5-.071a.749.749,0,0,1,0-1.484Z"/></svg>