<svg xmlns="http://www.w3.org/2000/svg" viewBox="0 0 24 24"><title>smiley-devastated-1-alternate</title><path d="M18.485,10.3a1,1,0,0,0-1.359.389.778.778,0,0,1-1.251,0,1,1,0,0,0-1.75.969A2.69,2.69,0,0,0,16.5,13h0a2.694,2.694,0,0,0,2.375-1.345A1,1,0,0,0,18.485,10.3Z"/><path d="M7.5,13a2.69,2.69,0,0,0,2.372-1.346,1,1,0,0,0-1.75-.969.778.778,0,0,1-1.251,0,1,1,0,1,0-1.748.971A2.694,2.694,0,0,0,7.5,13Z"/><path d="M6,8.972c.168,0,4.123-.039,4.97-3.424a1,1,0,0,0-1.94-.486C8.563,6.927,6.1,6.971,6,6.972a1,1,0,0,0,0,2Z"/><path d="M18,8.972a1,1,0,0,0,0-2c-.105,0-2.567-.044-3.034-1.91a1,1,0,0,0-1.94.486C13.877,8.933,17.832,8.972,18,8.972Z"/><path d="M12,0A12,12,0,1,0,24,12,12.013,12.013,0,0,0,12,0Zm0,22A10,10,0,1,1,22,12,10.011,10.011,0,0,1,12,22Z"/><path d="M12,14.989a5.7,5.7,0,0,0-4.941,2.852.44.44,0,0,0,.379.659,21.078,21.078,0,0,1,9.123,0,.439.439,0,0,0,.38-.658A5.7,5.7,0,0,0,12,14.989Z"/></svg>