<svg xmlns="http://www.w3.org/2000/svg" viewBox="0 0 24 24"><title>smiley-tongue-3-alternate</title><path d="M12,0A12,12,0,0,0,4.406,21.292a1,1,0,0,0,1.266-1.548,10,10,0,1,1,12.627.024,1,1,0,1,0,1.26,1.552A12,12,0,0,0,12,0Z"/><path d="M17.2,14.5H6.8a.5.5,0,0,0-.432.75,6.528,6.528,0,0,0,1.537,1.8.25.25,0,0,1,.093.2V20a4,4,0,0,0,8,0V17.244a.25.25,0,0,1,.093-.2,6.528,6.528,0,0,0,1.537-1.8.5.5,0,0,0-.433-.75ZM12,22a2,2,0,0,1-2-2V17.55a.252.252,0,0,1,.138-.224A4.2,4.2,0,0,1,12,17a4.424,4.424,0,0,1,1.855.311.251.251,0,0,1,.145.227V20A2,2,0,0,1,12,22Z"/><circle cx="8" cy="9" r="2"/><circle cx="16" cy="9" r="2"/></svg>