<svg xmlns="http://www.w3.org/2000/svg" viewBox="0 0 24 24"><title>smiley-sick-contageous-alternate</title><path d="M6.553,8.9A1,1,0,0,0,7.9,8.448,2.656,2.656,0,0,1,10,7.5a1,1,0,0,0,0-2c-1.153,0-3.142.547-3.895,2.053A1,1,0,0,0,6.553,8.9Z"/><path d="M13,6.5a1,1,0,0,0,1,1,2.656,2.656,0,0,1,2.105.947,1,1,0,1,0,1.79-.894C17.142,6.048,15.153,5.5,14,5.5A1,1,0,0,0,13,6.5Z"/><path d="M24,12A12,12,0,1,0,12,24,12.014,12.014,0,0,0,24,12Zm-21.96.891a.25.25,0,0,1,.322-.261l3.461,1.057A.25.25,0,0,1,6,13.926v1.325a.25.25,0,0,1-.25.25H2.808a.251.251,0,0,1-.236-.166A9.924,9.924,0,0,1,2.04,12.891ZM8,13a.5.5,0,0,1,.5-.5h7a.5.5,0,0,1,.5.5v4a.5.5,0,0,1-.5.5h-7A.5.5,0,0,1,8,17Zm10,.925a.25.25,0,0,1,.177-.239l3.461-1.057a.25.25,0,0,1,.322.261,9.907,9.907,0,0,1-.532,2.443.25.25,0,0,1-.236.167H18.25a.25.25,0,0,1-.25-.25ZM12,2a10.017,10.017,0,0,1,9.846,8.245.25.25,0,0,1-.173.283l-3.638,1.111a.249.249,0,0,1-.291-.116A2,2,0,0,0,16,10.5H8a2,2,0,0,0-1.744,1.022.248.248,0,0,1-.291.116L2.327,10.528a.249.249,0,0,1-.173-.282A10.017,10.017,0,0,1,12,2Zm0,20a10,10,0,0,1-8.07-4.1.25.25,0,0,1,.2-.4H5.764a.249.249,0,0,1,.248.222A2,2,0,0,0,8,19.5h8a2,2,0,0,0,1.988-1.778.25.25,0,0,1,.248-.222h1.632a.25.25,0,0,1,.2.4A10,10,0,0,1,12,22Z"/></svg>