<svg xmlns="http://www.w3.org/2000/svg" viewBox="0 0 24 24"><title>smiley-drop</title><path d="M24,5.8c0-1.325-1.165-3.29-2.143-4.7a1.959,1.959,0,0,0-3.224,0c-.164.237-.333.49-.5.753a.246.246,0,0,1-.333.078,11.737,11.737,0,1,0,5.19,6.614A.245.245,0,0,1,23.04,8.3,3.735,3.735,0,0,0,24,5.8ZM20.04,2.51a.244.244,0,0,1,.409,0c.471.716,1.592,2.5,1.592,3.286a1.8,1.8,0,0,1-3.592,0C18.449,5.013,19.569,3.226,20.04,2.51Zm-1,7.182a.98.98,0,0,1-.566,1.264,1,1,0,0,1-.35.064.98.98,0,0,1-.915-.63,1.183,1.183,0,0,0-1.044-.839,1.182,1.182,0,0,0-1.043.839.98.98,0,0,1-1.831-.7,3.017,3.017,0,0,1,5.749,0ZM7.347,7.592a3.121,3.121,0,0,1,2.875,2.1.981.981,0,0,1-.567,1.264.992.992,0,0,1-.349.064.98.98,0,0,1-.915-.63,1.184,1.184,0,0,0-1.044-.839A1.183,1.183,0,0,0,6.3,10.39a.98.98,0,0,1-1.831-.7A3.121,3.121,0,0,1,7.347,7.592Zm-.432,8.292a.426.426,0,0,1,.372-.215h8.936a.428.428,0,0,1,.372.644,5.589,5.589,0,0,1-9.68,0A.427.427,0,0,1,6.915,15.884Z"/></svg>