<svg xmlns="http://www.w3.org/2000/svg" viewBox="0 0 24 24"><title>smiley-blush-alternate</title><path d="M12,16.5a5.306,5.306,0,0,0-3.707,1.293.993.993,0,0,0-.006,1.4,1.008,1.008,0,0,0,1.408.03A3.46,3.46,0,0,1,12,18.5a3.478,3.478,0,0,1,2.293.707,1,1,0,0,0,1.414-1.414A5.306,5.306,0,0,0,12,16.5Z"/><path d="M16.707,11.793a1,1,0,0,0-1.414,0l-1.5,1.5a1,1,0,1,0,1.414,1.414l1.5-1.5A1,1,0,0,0,16.707,11.793Z"/><path d="M20.207,11.793a1,1,0,0,0-1.414,0l-1.5,1.5a1,1,0,1,0,1.414,1.414l1.5-1.5A1,1,0,0,0,20.207,11.793Z"/><path d="M6.707,11.793a1,1,0,0,0-1.414,0l-1.5,1.5a1,1,0,1,0,1.414,1.414l1.5-1.5A1,1,0,0,0,6.707,11.793Z"/><path d="M10.207,13.207a1,1,0,0,0-1.414-1.414l-1.5,1.5a1,1,0,1,0,1.414,1.414Z"/><path d="M12,0A12,12,0,1,0,24,12,12.013,12.013,0,0,0,12,0Zm0,22A10,10,0,1,1,22,12,10.011,10.011,0,0,1,12,22Z"/><circle cx="8" cy="8" r="2"/><circle cx="16" cy="8" r="2"/></svg>