<svg xmlns="http://www.w3.org/2000/svg" viewBox="0 0 24 24"><title>smiley-kiss-heart</title><path d="M23.488,15.733a.253.253,0,0,1-.021-.2,11.993,11.993,0,1,0-8.279,8.033.25.25,0,0,1,.215.04,2.031,2.031,0,0,0,.625.31,2,2,0,0,0,1.559-.187l4.305-2.477,0,0a4.048,4.048,0,0,0,1.591-5.521ZM16.816,21.87a.251.251,0,0,1-.346-.1l-2.192-4.212,0,0a2.052,2.052,0,0,1,3.6-1.969l.265.484a.248.248,0,0,0,.149.12.252.252,0,0,0,.19-.021l.483-.265a2.052,2.052,0,0,1,1.973,3.6l0,0ZM9.6,16.233l1.648,1.535a1,1,0,0,1-1.363,1.464l-1.6-1.491-.017-.014A2,2,0,0,1,8.6,14.368l.021-.011,1.922-1.206a1,1,0,0,1,1.059,1.7l-1.932,1.2a.16.16,0,0,0-.072.111C9.59,16.19,9.584,16.218,9.6,16.233ZM7.5,7a2,2,0,1,1-2,2A2,2,0,0,1,7.5,7Zm6,2.1a3.5,3.5,0,0,1,6.415,0,1,1,0,0,1-.516,1.316.976.976,0,0,1-.4.084,1,1,0,0,1-.917-.6,1.5,1.5,0,0,0-2.751,0A1,1,0,1,1,13.5,9.1Z"/></svg>