<svg xmlns="http://www.w3.org/2000/svg" viewBox="0 0 24 24"><title>smiley-silent-alternate</title><path d="M16.313,12.919a1,1,0,0,0-1.394-.232l-2.774,1.981a.249.249,0,0,1-.29,0L9.081,12.687a1,1,0,0,0-1.162,1.626L9.995,15.8a.249.249,0,0,1,0,.406L7.919,17.687a1,1,0,1,0,1.162,1.626l2.774-1.981a.249.249,0,0,1,.29,0l2.774,1.981a1,1,0,0,0,1.162-1.626L14.005,16.2a.249.249,0,0,1,0-.406l2.076-1.484A1,1,0,0,0,16.313,12.919Z"/><path d="M12,0A12,12,0,1,0,24,12,12.013,12.013,0,0,0,12,0Zm0,22A10,10,0,1,1,22,12,10.011,10.011,0,0,1,12,22Z"/><circle cx="7.5" cy="9" r="2"/><circle cx="16.5" cy="9" r="2"/></svg>