<svg xmlns="http://www.w3.org/2000/svg" viewBox="0 0 24 24"><title>smiley-look-one-eye-alternate</title><path d="M9.692,19h5a1,1,0,0,0,0-2h-5a1,1,0,0,0,0,2Z"/><path d="M6.888,9.832a3.153,3.153,0,0,0,1.8.668,2.805,2.805,0,0,0,2.395-1.553.993.993,0,0,0-.438-1.327A1.006,1.006,0,0,0,9.3,8.041s-.257.459-.612.459A1.429,1.429,0,0,1,8,8.168a3.159,3.159,0,0,0-1.8-.668A2.8,2.8,0,0,0,3.8,9.053a.993.993,0,0,0,.437,1.327A1.006,1.006,0,0,0,5.58,9.959s.258-.459.612-.459A1.431,1.431,0,0,1,6.888,9.832Z"/><path d="M6.692,14h2.5a1,1,0,0,0,0-2h-2.5a1,1,0,0,0,0,2Z"/><path d="M13.6,5.052a1,1,0,0,0,1.4-.2,2.751,2.751,0,0,1,4.4,0,1,1,0,1,0,1.6-1.194,4.75,4.75,0,0,0-7.6,0A1,1,0,0,0,13.6,5.052Z"/><path d="M23.07,13.931a1,1,0,0,0-1.227.7A10,10,0,1,1,12.192,2a1,1,0,0,0,0-2,12,12,0,1,0,11.58,15.158A1,1,0,0,0,23.07,13.931Z"/><path d="M21.692,11a4.5,4.5,0,1,0-4.5,4.5A4.5,4.5,0,0,0,21.692,11Zm-7,0a2.5,2.5,0,1,1,2.5,2.5A2.5,2.5,0,0,1,14.692,11Z"/><circle cx="17.192" cy="11" r="1"/></svg>