<svg xmlns="http://www.w3.org/2000/svg" viewBox="0 0 24 24"><title>smiley-lol-alternate-2</title><path d="M12,2a10.013,10.013,0,0,1,9.967,9.187.251.251,0,0,0,.145.208,12.61,12.61,0,0,1,1.527.8A.236.236,0,0,0,24,12,12,12,0,0,0,0,12v.031a.249.249,0,0,0,.386.208,12.026,12.026,0,0,1,1.5-.8.251.251,0,0,0,.144-.208A10.013,10.013,0,0,1,12,2Z"/><path d="M20.4,17.837a.249.249,0,0,0-.329.067,9.99,9.99,0,0,1-16.106.035.251.251,0,0,0-.324-.069,3.256,3.256,0,0,1-1.409.419.25.25,0,0,0-.192.389,11.99,11.99,0,0,0,19.934-.006.25.25,0,0,0-.186-.388A3.271,3.271,0,0,1,20.4,17.837Z"/><path d="M16.692,8.067h0a3.208,3.208,0,0,0-2.83,1.6,1,1,0,0,0,1.748.971,1.076,1.076,0,0,1,.591-.485,1.441,1.441,0,0,1,.491-.083h0a1.441,1.441,0,0,1,.491.083,1.077,1.077,0,0,1,.589.484,1,1,0,1,0,1.749-.969A3.2,3.2,0,0,0,16.692,8.067Z"/><path d="M6.519,10.635a1.076,1.076,0,0,1,.591-.485,1.441,1.441,0,0,1,.491-.083h0a1.44,1.44,0,0,1,.49.083,1.074,1.074,0,0,1,.589.484,1,1,0,1,0,1.749-.969A3.2,3.2,0,0,0,7.6,8.067h0a3.207,3.207,0,0,0-2.83,1.6,1,1,0,0,0,1.748.971Z"/><path d="M17.534,14.216a.493.493,0,0,0-.544-.01A9.083,9.083,0,0,1,12,15.422a9.089,9.089,0,0,1-4.99-1.216.489.489,0,0,0-.742.516,5.868,5.868,0,0,0,11.464,0A.49.49,0,0,0,17.534,14.216Z"/><path d="M3.466,16.049a7.862,7.862,0,0,0,.555-2.983.586.586,0,0,0-.813-.572,7.844,7.844,0,0,0-2.62,1.529,1.76,1.76,0,1,0,2.878,2.026Z"/><path d="M20.88,12.494a.585.585,0,0,0-.812.572,7.864,7.864,0,0,0,.554,2.983A1.76,1.76,0,0,0,23.5,14.023,7.849,7.849,0,0,0,20.88,12.494Z"/></svg>