<svg xmlns="http://www.w3.org/2000/svg" viewBox="0 0 24 24"><title>smiley-explosion-alternate</title><path d="M21.827,4.471a.25.25,0,0,1-.162-.171,3.947,3.947,0,0,0-5.21-2.6.25.25,0,0,1-.261-.05,6.163,6.163,0,0,0-8.388,0,.25.25,0,0,1-.261.05,3.947,3.947,0,0,0-5.21,2.6.25.25,0,0,1-.162.171A3.146,3.146,0,0,0,3.2,10.608H5.782a1,1,0,0,0,0-2H3.2a1.152,1.152,0,1,1,0-2.3,1,1,0,0,0,1-1,1.9,1.9,0,0,1,1.934-1.87,1.943,1.943,0,0,1,1.169.4,1,1,0,0,0,1.391-.2,4.16,4.16,0,0,1,6.612,0,1,1,0,0,0,1.391.2,1.943,1.943,0,0,1,1.169-.395A1.9,1.9,0,0,1,19.8,5.305a1,1,0,0,0,1,1,1.152,1.152,0,1,1,0,2.3H18.218a1,1,0,0,0,0,2H20.8a3.146,3.146,0,0,0,1.027-6.137Z"/><path d="M18.346,11.479a2,2,0,0,1-2-2V7.7a1,1,0,1,0-2,0V9.48a3.975,3.975,0,0,0,.832,2.439.25.25,0,0,1-.176.4c-.77.068-1.753.114-3,.114s-2.234-.046-3-.114a.25.25,0,0,1-.176-.4A3.975,3.975,0,0,0,9.652,9.48V7.7a1,1,0,0,0-2,0V9.48a2,2,0,0,1-2,2,1,1,0,0,0-.905.574,8.174,8.174,0,1,0,14.5,0A1,1,0,0,0,18.346,11.479ZM12,22a6.181,6.181,0,0,1-5.924-7.921.25.25,0,0,1,.307-.17A23.412,23.412,0,0,0,12,14.435a23.412,23.412,0,0,0,5.617-.526.25.25,0,0,1,.307.17A6.181,6.181,0,0,1,12,22Z"/><path d="M13,10.565V8.652a1,1,0,0,0-2,0v1.913a1,1,0,0,0,2,0Z"/><circle cx="8.5" cy="16.5" r="1"/><circle cx="15.5" cy="16.5" r="1"/><path d="M12,17.5a1,1,0,0,0-1,1V20a1,1,0,0,0,2,0V18.5A1,1,0,0,0,12,17.5Z"/></svg>