<svg xmlns="http://www.w3.org/2000/svg" viewBox="0 0 24 24"><title>smiley-disapointed-mad</title><path d="M12,0A12,12,0,1,0,24,12,12.013,12.013,0,0,0,12,0ZM9.8,6.4A1,1,0,0,1,8.2,7.6a1.544,1.544,0,0,0-2.4,0A1,1,0,0,1,4.2,6.4a3.5,3.5,0,0,1,5.6,0ZM7,9a1.5,1.5,0,1,1-1.5,1.5A1.5,1.5,0,0,1,7,9Zm-.448,7.954a6.5,6.5,0,0,1,10.9,0,1,1,0,0,1-1.676,1.092,4.5,4.5,0,0,0-7.544,0,1,1,0,1,1-1.676-1.092ZM15.5,10.5A1.5,1.5,0,1,1,17,12,1.5,1.5,0,0,1,15.5,10.5Zm2.7-2.9a1.544,1.544,0,0,0-2.4,0,1,1,0,1,1-1.6-1.2,3.5,3.5,0,0,1,5.6,0,1,1,0,0,1-1.6,1.2Z"/></svg>