<svg xmlns="http://www.w3.org/2000/svg" viewBox="0 0 24 24"><title>smiley-spoilt-alternate</title><path d="M16.152,14.421a2,2,0,0,0-3.232.22l-.708,1.133a.251.251,0,0,1-.424,0l-.708-1.133a2,2,0,0,0-3.232-.22L6.231,16.359a1,1,0,0,0,1.538,1.282l1.395-1.675a.25.25,0,0,1,.4.028l.737,1.18a2,2,0,0,0,3.39,0l.737-1.18a.25.25,0,0,1,.4-.028l1.4,1.675a1,1,0,0,0,1.538-1.282Z"/><path d="M12,0A12,12,0,1,0,24,12,12.013,12.013,0,0,0,12,0Zm0,22A10,10,0,1,1,22,12,10.011,10.011,0,0,1,12,22Z"/><circle cx="8" cy="9" r="2"/><circle cx="16" cy="9" r="2"/></svg>