<svg xmlns="http://www.w3.org/2000/svg" viewBox="0 0 24 24"><title>smiley-scared</title><rect x="9.5" y="14" width="1.75" height="3.5" rx="0.25" ry="0.25"/><path d="M16.25,14a.25.25,0,0,0-.25.25v3a.25.25,0,0,0,.25.25,1.75,1.75,0,0,0,0-3.5Z"/><rect x="12.75" y="14" width="1.75" height="3.5" rx="0.25" ry="0.25"/><path d="M8,14.25A.25.25,0,0,0,7.75,14a1.75,1.75,0,0,0,0,3.5A.25.25,0,0,0,8,17.25Z"/><path d="M12,0A12,12,0,1,0,24,12,12.013,12.013,0,0,0,12,0Zm4.25,19H7.75a3.25,3.25,0,0,1,0-6.5h8.5a3.25,3.25,0,0,1,0,6.5ZM10,8A2,2,0,1,1,8,6,2,2,0,0,1,10,8Zm4,0a2,2,0,1,1,2,2A2,2,0,0,1,14,8Z"/></svg>