<svg xmlns="http://www.w3.org/2000/svg" viewBox="0 0 24 24"><title>smiley-blessed</title><path d="M12,0A12,12,0,1,0,24,12,12.013,12.013,0,0,0,12,0ZM6.435,8.144A1.207,1.207,0,0,0,7.5,9a1.207,1.207,0,0,0,1.065-.856,1,1,0,0,1,1.87.712A3.187,3.187,0,0,1,7.5,11,3.187,3.187,0,0,1,4.565,8.856a1,1,0,0,1,1.87-.712Zm.624,7.565a.438.438,0,0,1,.379-.22h9.123a.439.439,0,0,1,.38.658,5.706,5.706,0,0,1-9.882,0A.436.436,0,0,1,7.059,15.709ZM16.5,11a3.187,3.187,0,0,1-2.935-2.144,1,1,0,1,1,1.87-.712A1.207,1.207,0,0,0,16.5,9a1.207,1.207,0,0,0,1.065-.856,1,1,0,1,1,1.87.712A3.187,3.187,0,0,1,16.5,11Z"/></svg>