<svg xmlns="http://www.w3.org/2000/svg" viewBox="0 0 24 24"><title>smiley-fever-alternate</title><path d="M12,15a4.491,4.491,0,0,1,3.773,2.046,1,1,0,0,0,1.792-.846.251.251,0,0,1,.1-.283l5.311-3.52a2.25,2.25,0,0,0-2.452-3.774l-6.953,4.491a.248.248,0,0,1-.188.034A6.548,6.548,0,0,0,12,13c-.205,0-.409.01-.612.028a6.486,6.486,0,0,0-4.836,2.926,1,1,0,1,0,1.676,1.092,4.486,4.486,0,0,1,3.04-1.986A4.566,4.566,0,0,1,12,15Zm9.34-5.118a.75.75,0,1,1,.814,1.261l-.827.548a.25.25,0,0,1-.347-.072l-.552-.849a.244.244,0,0,1-.035-.188.25.25,0,0,1,.109-.158Zm-2.519,1.627a.25.25,0,0,1,.346.074l.564.868a.25.25,0,0,1-.071.345l-2.943,1.95a.25.25,0,0,1-.308-.024,6.412,6.412,0,0,0-.868-.675.247.247,0,0,1-.113-.21.25.25,0,0,1,.114-.21Z"/><path d="M21.227,14.864c-.1.243-.213.481-.332.712A10,10,0,0,1,2,11c0-.32.015-.637.045-.949A1,1,0,0,0,.053,9.864C.019,10.238,0,10.617,0,11a12,12,0,0,0,23.071,4.638,1,1,0,0,0-.4-1.24,1.084,1.084,0,0,0-.136-.069A1,1,0,0,0,21.227,14.864Z"/><circle cx="8" cy="7.5" r="1.75"/><circle cx="16" cy="7.5" r="1.75"/><path d="M3.053,5.4a1,1,0,0,0,1.342-.448C4.977,3.782,6.988,3,8.5,3a1,1,0,0,0,0-2C6.382,1,3.6,2.07,2.606,4.053A1,1,0,0,0,3.053,5.4Z"/><path d="M15.5,3c1.513,0,3.524.782,4.106,1.947A1,1,0,1,0,21.4,4.053C20.4,2.07,17.619,1,15.5,1a1,1,0,0,0,0,2Z"/></svg>