<svg xmlns="http://www.w3.org/2000/svg" viewBox="0 0 24 24"><title>smiley-crying-alternate</title><path d="M15.1,21.539A10,10,0,1,1,21.708,9.272a1,1,0,1,0,1.923-.544A12,12,0,1,0,15.7,23.445a1,1,0,1,0-.6-1.906Z"/><path d="M6.927,18.338a1,1,0,0,0,1.384-.291,4.505,4.505,0,0,1,5.443-1.727,1,1,0,1,0,.745-1.856,6.507,6.507,0,0,0-7.864,2.489A1,1,0,0,0,6.927,18.338Z"/><path d="M21.074,11.932a1,1,0,0,0-1.647,0c-.667.965-2.844,4.246-2.844,5.9a3.667,3.667,0,0,0,7.334,0C23.917,16.178,21.741,12.9,21.074,11.932ZM20.25,19.5a1.67,1.67,0,0,1-1.667-1.667,10.18,10.18,0,0,1,1.453-3.149.25.25,0,0,1,.429,0,10.182,10.182,0,0,1,1.452,3.15A1.669,1.669,0,0,1,20.25,19.5Z"/><path d="M7.083,10.935a1,1,0,0,0,.923-.617,5.493,5.493,0,0,1,2.062-2.482,1,1,0,1,0-1.1-1.672A7.48,7.48,0,0,0,6.161,9.549a1,1,0,0,0,.922,1.386Z"/><path d="M17.083,10.935a1,1,0,0,0,.923-1.386A7.48,7.48,0,0,0,15.2,6.164a1,1,0,0,0-1.1,1.672,5.493,5.493,0,0,1,2.062,2.482A1,1,0,0,0,17.083,10.935Z"/></svg>