<svg xmlns="http://www.w3.org/2000/svg" viewBox="0 0 24 24"><title>smiley-petrified</title><path d="M16.5,17.916a8.921,8.921,0,0,1,4.722-7.672,2.108,2.108,0,0,1,2.449.286.133.133,0,0,0,.225-.111,12,12,0,0,0-23.792,0,.134.134,0,0,0,.073.136.132.132,0,0,0,.152-.025,2.11,2.11,0,0,1,2.449-.286A8.921,8.921,0,0,1,7.5,17.916a31.347,31.347,0,0,1-.33,4.864.25.25,0,0,0,.15.269,11.991,11.991,0,0,0,9.36,0,.25.25,0,0,0,.15-.269A31.347,31.347,0,0,1,16.5,17.916ZM12,13a2.5,2.5,0,0,1,2.5,2.5v2a2.5,2.5,0,0,1-5,0v-2A2.5,2.5,0,0,1,12,13Zm4.5-2.5a2.292,2.292,0,0,1-2-2.5,2.292,2.292,0,0,1,2-2.5,2.293,2.293,0,0,1,2,2.5A2.293,2.293,0,0,1,16.5,10.5ZM5.5,8a2.292,2.292,0,0,1,2-2.5A2.293,2.293,0,0,1,9.5,8a2.293,2.293,0,0,1-2,2.5A2.292,2.292,0,0,1,5.5,8Z"/><path d="M4.944,23.67A21.426,21.426,0,0,0,5.5,17.916a7.313,7.313,0,0,0-2.511-5.188A2.7,2.7,0,0,0,1.689,12a.417.417,0,0,0-.071.1,3.509,3.509,0,0,0,.215.8,14.3,14.3,0,0,1,.81,5.022A7.5,7.5,0,0,1,.458,23.557a.25.25,0,0,0,.174.43H4.668a.25.25,0,0,0,.245-.2A1.011,1.011,0,0,1,4.944,23.67Z"/><path d="M21.357,17.916a14.3,14.3,0,0,1,.81-5.022,3.466,3.466,0,0,0,.214-.8.43.43,0,0,0-.07-.1,2.7,2.7,0,0,0-1.3.728A7.313,7.313,0,0,0,18.5,17.916a21.359,21.359,0,0,0,.558,5.759,1.127,1.127,0,0,1,.028.111.251.251,0,0,0,.246.2h4.036a.25.25,0,0,0,.173-.43A7.5,7.5,0,0,1,21.357,17.916Z"/></svg>