<svg xmlns="http://www.w3.org/2000/svg" viewBox="0 0 24 24"><title>smiley-glasses</title><path d="M19.75,7.75a.5.5,0,0,0-.5-.5H15a.5.5,0,0,0-.5.5V11a.5.5,0,0,0,.5.5h4.251a.5.5,0,0,0,.5-.5Z"/><path d="M4.25,11a.5.5,0,0,0,.5.5H8.5A.5.5,0,0,0,9,11V7.75a.5.5,0,0,0-.5-.5H4.75a.5.5,0,0,0-.5.5Z"/><path d="M12,0A12,12,0,1,0,24,12,12.013,12.013,0,0,0,12,0Zm4.941,17.147a5.706,5.706,0,0,1-9.882,0,.44.44,0,0,1,.379-.659h9.123a.439.439,0,0,1,.38.658ZM4.25,5.25H9a2,2,0,0,1,2,2v.875a.25.25,0,0,0,.25.25h1a.25.25,0,0,0,.25-.25V7.25a2,2,0,0,1,2-2h5.25a2,2,0,0,1,2,2V11.5a2,2,0,0,1-2,2H14.5a2,2,0,0,1-2-2v-.875a.25.25,0,0,0-.25-.25h-1a.25.25,0,0,0-.25.25V11.5a2,2,0,0,1-2,2H4.25a2,2,0,0,1-2-2V7.25A2,2,0,0,1,4.25,5.25Z"/></svg>