<svg xmlns="http://www.w3.org/2000/svg" viewBox="0 0 24 24"><title>smiley-scared-alternate</title><path d="M15.75,12.25H8.25a3.5,3.5,0,0,0,0,7h7.5a3.5,3.5,0,0,0,0-7Zm-3,2.25a.25.25,0,0,1,.25-.25h1a.25.25,0,0,1,.25.25V17a.25.25,0,0,1-.25.25H13a.25.25,0,0,1-.25-.25ZM11.25,17a.25.25,0,0,1-.25.25H10A.25.25,0,0,1,9.75,17V14.5a.25.25,0,0,1,.25-.25h1a.25.25,0,0,1,.25.25Zm-4.5-1.25a1.5,1.5,0,0,1,1.2-1.47.251.251,0,0,1,.3.245v2.45a.251.251,0,0,1-.3.245A1.5,1.5,0,0,1,6.75,15.75Zm9.3,1.47a.251.251,0,0,1-.3-.245v-2.45a.251.251,0,0,1,.3-.245,1.5,1.5,0,0,1,0,2.94Z"/><path d="M12,0A12,12,0,1,0,24,12,12.013,12.013,0,0,0,12,0Zm0,22A10,10,0,1,1,22,12,10.011,10.011,0,0,1,12,22Z"/><circle cx="8" cy="8.5" r="2"/><circle cx="16" cy="8.5" r="2"/></svg>