<svg xmlns="http://www.w3.org/2000/svg" viewBox="0 0 24 24"><title>smiley-spoilt</title><path d="M12,0A12,12,0,1,0,24,12,12.013,12.013,0,0,0,12,0ZM7.5,7a2,2,0,1,1-2,2A2,2,0,0,1,7.5,7ZM6.231,16.359,7.848,14.42a2,2,0,0,1,3.232.221l.708,1.133a.251.251,0,0,0,.424,0l.708-1.133a2,2,0,0,1,3.232-.22l1.617,1.938a1,1,0,0,1-1.538,1.282l-1.4-1.675a.25.25,0,0,0-.4.028L13.7,17.173a2,2,0,0,1-3.39,0l-.737-1.179a.25.25,0,0,0-.4-.028L7.769,17.641a1,1,0,0,1-1.538-1.282ZM16.5,11a2,2,0,1,1,2-2A2,2,0,0,1,16.5,11Z"/></svg>