<svg xmlns="http://www.w3.org/2000/svg" viewBox="0 0 24 24"><title>smiley-cowboy-alternate</title><path d="M23.121,4.441a1,1,0,1,0-1.414,1.415,1,1,0,0,1-.567,1.692.25.25,0,0,1-.267-.145L18.692,2.55a3.556,3.556,0,0,0-2.2-2.263c-1.554-.447-3.033.6-3.745,1.1l-.188.131a1,1,0,0,1-1.11,0c-.049-.034-.113-.081-.188-.135C10.562.873,9.12-.188,7.553.25A3.564,3.564,0,0,0,5.318,2.525L3.127,7.4a.251.251,0,0,1-.267.145,1,1,0,0,1-.567-1.692A1,1,0,1,0,.879,4.441,3,3,0,0,0,3,9.563H21a3,3,0,0,0,2.121-5.122ZM7.153,3.319c.19-.454.506-1.022.938-1.142.633-.178,1.544.5,1.985.819.1.075.191.139.26.185a2.993,2.993,0,0,0,3.328,0L13.9,3.02c.458-.322,1.415-.989,2.038-.811.422.122.729.671.923,1.135L18.594,7.21a.25.25,0,0,1-.228.353H5.634a.25.25,0,0,1-.228-.353Z"/><path d="M21.164,10.643a1,1,0,0,0-.8,1.164A8.5,8.5,0,1,1,3.5,13.353a8.581,8.581,0,0,1,.14-1.546,1,1,0,0,0-1.967-.361A10.5,10.5,0,1,0,22.5,13.353a10.577,10.577,0,0,0-.173-1.907A1,1,0,0,0,21.164,10.643Z"/><path d="M7.553,16.847a.393.393,0,0,0,0,.395,5.136,5.136,0,0,0,8.894,0,.395.395,0,0,0-.342-.592H7.9A.392.392,0,0,0,7.553,16.847Z"/><circle cx="8.136" cy="12.785" r="1.5"/><circle cx="15.864" cy="12.785" r="1.5"/></svg>