<svg xmlns="http://www.w3.org/2000/svg" viewBox="0 0 24 24"><title>smiley-oops</title><path d="M18.5,13.75a5.75,5.75,0,0,1,0-11.5c.175,0,.349.008.52.023a11.977,11.977,0,0,0-14.04,0c.171-.015.345-.023.52-.023A5.75,5.75,0,1,1,.15,10.107a12,12,0,1,0,23.7,0A5.76,5.76,0,0,1,18.5,13.75Zm-5.447-.145a1,1,0,0,1,1.342.448l.5,1a1,1,0,0,1-.448,1.342A.989.989,0,0,1,14,16.5a1,1,0,0,1-.9-.553l-.5-1A1,1,0,0,1,13.053,13.605ZM9.105,15.053l.5-1a1,1,0,1,1,1.79.894l-.5,1a1,1,0,0,1-.9.553.989.989,0,0,1-.446-.105A1,1,0,0,1,9.105,15.053ZM9.5,18.5h5a1,1,0,0,1,0,2h-5a1,1,0,0,1,0-2Z"/><circle cx="5.5" cy="6.5" r="2"/><circle cx="18.5" cy="6.5" r="2"/></svg>