<svg xmlns="http://www.w3.org/2000/svg" viewBox="0 0 24 24"><defs><style>.a{fill:none;stroke:currentColor;stroke-linecap:round;stroke-linejoin:round;}</style></defs><title>modern-music-electric-guitar</title><path class="a" d="M19.8,6.267a1,1,0,0,1-1.414,0L16.975,4.853a1,1,0,0,1,0-1.415l.186-.186a1,1,0,0,1,.391-.242L22.088,1.5a.927.927,0,0,1,.949,1.535Z"/><polyline class="a" points="16.975 4.853 9.55 12.277 10.964 13.691 18.389 6.267"/><path class="a" d="M11.187,10.64a2.881,2.881,0,0,1-.8-2.538,6.278,6.278,0,0,1,.738-1.99A1.15,1.15,0,0,0,9.3,4.749a6.56,6.56,0,0,0-1.91,3.406c-.22,1.038-1,2.463-2.1,2.485a4.638,4.638,0,0,0-4.6,4.746,5.927,5.927,0,0,0,1.812,4.249l1.1,1.1a5.93,5.93,0,0,0,4.249,1.812,4.639,4.639,0,0,0,4.746-4.6c0-1.1,1.235-1.789,2.286-1.755a4.13,4.13,0,0,0,3.324-1.269,1.1,1.1,0,0,0-.719-1.846c-3.306-.254-4-.141-4.891-1.029"/><line class="a" x1="7.782" y1="13.338" x2="9.904" y2="15.459"/><rect class="a" x="3.338" y="16.154" width="5" height="2.5" rx="1" ry="1" transform="translate(14.016 0.97) rotate(45)"/></svg>