<svg xmlns="http://www.w3.org/2000/svg" viewBox="0 0 24 24"><title>button-zigzag-1</title><path d="M8.532,2a4.755,4.755,0,0,0-4.75,4.75V16a.25.25,0,0,1-.25.25H1.511a1,1,0,0,0-.706,1.709l3.521,3.5a1,1,0,0,0,1.411,0l3.52-3.5a1,1,0,0,0-.7-1.709H6.532a.249.249,0,0,1-.25-.25V6.749a2.25,2.25,0,1,1,4.5,0v10.5a4.75,4.75,0,1,0,9.5,0L20.246,8a.249.249,0,0,1,.25-.251H22.49a1,1,0,0,0,.711-1.7l-3.458-3.5a1,1,0,0,0-1.41-.013l-3.583,3.5a1,1,0,0,0,.7,1.716H17.5a.249.249,0,0,1,.25.249l.036,9.251a2.25,2.25,0,0,1-4.5,0V6.749A4.756,4.756,0,0,0,8.532,2Z"/></svg>