<svg xmlns="http://www.w3.org/2000/svg" viewBox="0 0 24 24"><title>button-loop-1</title><path d="M23.716,11.354A5.125,5.125,0,0,0,20.474,7.1,5.481,5.481,0,0,0,14.9,7.96L12.16,10.238a.248.248,0,0,1-.32,0L9.123,7.974a5.428,5.428,0,0,0-5.785-.755A5.218,5.218,0,0,0,.25,11.9V12a6.284,6.284,0,0,0,.034.644,5.125,5.125,0,0,0,3.242,4.25A5.523,5.523,0,0,0,5.61,17.3a5.449,5.449,0,0,0,3.5-1.263l2.735-2.279a.251.251,0,0,1,.32,0L14.9,16.038a5.478,5.478,0,0,0,5.579.855,5.125,5.125,0,0,0,3.242-4.253A6.181,6.181,0,0,0,23.75,12,6.289,6.289,0,0,0,23.716,11.354ZM7.5,14.118a2.987,2.987,0,0,1-3.039.459,2.632,2.632,0,0,1-1.695-2.2,4.038,4.038,0,0,1-.02-.44A2.7,2.7,0,0,1,4.38,9.492a3.1,3.1,0,0,1,1.279-.278,2.868,2.868,0,0,1,1.863.68l2.3,1.913a.248.248,0,0,1,.09.192.251.251,0,0,1-.09.192Zm13.726-1.74a2.632,2.632,0,0,1-1.7,2.2,2.987,2.987,0,0,1-3.039-.459l-2.313-1.927a.251.251,0,0,1-.09-.192.248.248,0,0,1,.09-.192L16.5,9.879a2.991,2.991,0,0,1,3.039-.459,2.632,2.632,0,0,1,1.7,2.2,3.7,3.7,0,0,1,.02.382A3.613,3.613,0,0,1,21.23,12.378Z"/></svg>