<svg xmlns="http://www.w3.org/2000/svg" viewBox="0 0 24 24"><title>button-rewind-alternate</title><path d="M12,.246A11.751,11.751,0,1,0,23.75,12,11.764,11.764,0,0,0,12,.246Zm0,21A9.251,9.251,0,1,1,21.25,12,9.262,9.262,0,0,1,12,21.248Z"/><path d="M15.167,9.215l-2.832,1.526a.253.253,0,0,1-.247-.006.25.25,0,0,1-.122-.215V9.883a.733.733,0,0,0-1.117-.668L6,11.829a.706.706,0,0,0,0,1.29l4.852,2.612a.85.85,0,0,0,.4.107.71.71,0,0,0,.361-.1.759.759,0,0,0,.356-.675v-.638a.25.25,0,0,1,.369-.22l2.831,1.524a.731.731,0,0,0,1.118-.666V9.883a.733.733,0,0,0-1.117-.668Z"/></svg>