<svg xmlns="http://www.w3.org/2000/svg" viewBox="0 0 24 24"><title>button-refresh-one</title><path d="M3.36,8.017A1,1,0,0,0,5,7.249v-1A.25.25,0,0,1,5.25,6H18.5a.25.25,0,0,1,.25.25v5a1.25,1.25,0,1,0,2.5,0v-5.5A2.252,2.252,0,0,0,19,3.5H5.25A.25.25,0,0,1,5,3.249v-1A1,1,0,0,0,3.36,1.48l-3,2.5a1,1,0,0,0,0,1.537Z"/><path d="M23.651,17.99l-3.5-3a1,1,0,0,0-1.651.759v1.5a.25.25,0,0,1-.25.25H5.5a.25.25,0,0,1-.25-.25V12.268a1.25,1.25,0,0,0-2.5,0v5.481A2.253,2.253,0,0,0,5,20H18.25a.25.25,0,0,1,.25.25v1.5a1,1,0,0,0,1.651.758l3.5-3a1,1,0,0,0,0-1.517Z"/><path d="M12.5,16.749a1,1,0,0,0,1-1V7.831a1,1,0,0,0-1.693-.721L8.837,9.965a1,1,0,1,0,1.386,1.442l.854-.821a.25.25,0,0,1,.423.18v4.983A1,1,0,0,0,12.5,16.749Z"/></svg>