<?xml version="1.0" encoding="utf-8"?>
<!-- Generator: Adobe Illustrator 22.1.0, SVG Export Plug-In . SVG Version: 6.00 Build 0)  -->
<svg version="1.1" id="Layer_1" xmlns="http://www.w3.org/2000/svg" xmlns:xlink="http://www.w3.org/1999/xlink" x="0px" y="0px"
	 viewBox="0 0 24 24" style="enable-background:new 0 0 24 24;" xml:space="preserve">
<g>
	<title>checklist</title>
	<path d="M2.5,23.999c-1.379,0-2.5-1.122-2.5-2.5v-19c0-1.379,1.121-2.5,2.5-2.5h19c1.378,0,2.5,1.121,2.5,2.5v19
		c0,1.378-1.122,2.5-2.5,2.5H2.5z M2.5,0.999c-0.827,0-1.5,0.673-1.5,1.5v19c0,0.827,0.673,1.5,1.5,1.5h19
		c0.827,0,1.5-0.673,1.5-1.5v-19c0-0.827-0.673-1.5-1.5-1.5H2.5z"/>
	<path d="M6.5,9.499c-0.134,0-0.259-0.052-0.354-0.146l-1.5-1.5C4.552,7.758,4.5,7.633,4.5,7.499S4.552,7.24,4.646,7.146
		S4.866,6.999,5,6.999s0.259,0.052,0.354,0.146L6.5,8.292l3.646-3.646c0.094-0.094,0.22-0.146,0.354-0.146s0.259,0.052,0.354,0.146
		S11,4.865,11,4.999s-0.052,0.259-0.146,0.354l-4,4C6.759,9.447,6.634,9.499,6.5,9.499z"/>
	<path d="M6.5,19.499c-0.134,0-0.259-0.052-0.354-0.146l-1.5-1.5C4.552,17.758,4.5,17.633,4.5,17.499s0.052-0.259,0.146-0.354
		S4.866,16.999,5,16.999s0.259,0.052,0.354,0.146L6.5,18.292l3.646-3.646c0.094-0.094,0.22-0.146,0.354-0.146
		s0.259,0.052,0.354,0.146S11,14.865,11,14.999s-0.052,0.259-0.146,0.354l-4,4C6.759,19.447,6.634,19.499,6.5,19.499z"/>
	<path d="M13.5,8.999c-0.276,0-0.5-0.224-0.5-0.5s0.224-0.5,0.5-0.5h6c0.276,0,0.5,0.224,0.5,0.5s-0.224,0.5-0.5,0.5H13.5z"/>
	<path d="M13.5,17.999c-0.276,0-0.5-0.224-0.5-0.5s0.224-0.5,0.5-0.5h6c0.276,0,0.5,0.224,0.5,0.5s-0.224,0.5-0.5,0.5H13.5z"/>
</g>
</svg>
