<?xml version="1.0" encoding="utf-8"?>
<!-- Generator: Adobe Illustrator 22.1.0, SVG Export Plug-In . SVG Version: 6.00 Build 0)  -->
<svg version="1.1" id="Layer_1" xmlns="http://www.w3.org/2000/svg" xmlns:xlink="http://www.w3.org/1999/xlink" x="0px" y="0px"
	 viewBox="0 0 24 24" style="enable-background:new 0 0 24 24;" xml:space="preserve">
<g>
	<title>task-checklist-check</title>
	<path d="M1.5,24C0.673,24,0,23.327,0,22.5v-19C0,2.673,0.673,2,1.5,2h2C3.776,2,4,2.224,4,2.5S3.776,3,3.5,3h-2
		C1.224,3,1,3.224,1,3.5v19C1,22.776,1.224,23,1.5,23H10c0.276,0,0.5,0.224,0.5,0.5S10.276,24,10,24H1.5z"/>
	<path d="M18.5,10C18.224,10,18,9.776,18,9.5v-6C18,3.224,17.776,3,17.5,3h-2C15.224,3,15,2.776,15,2.5S15.224,2,15.5,2h2
		C18.327,2,19,2.673,19,3.5v6C19,9.776,18.776,10,18.5,10z"/>
	<path d="M3,22c-0.551,0-1-0.448-1-1V5c0-0.551,0.449-1,1-1h2V2.5C5,2.224,5.224,2,5.5,2h1.55C7.284,0.845,8.3,0,9.5,0
		s2.216,0.845,2.45,2h1.55C13.776,2,14,2.224,14,2.5V4h2c0.552,0,1,0.449,1,1v4.5c0,0.276-0.224,0.5-0.5,0.5S16,9.776,16,9.5V5h-2
		v0.5C14,5.776,13.776,6,13.5,6h-8C5.224,6,5,5.776,5,5.5V5H3v16h7c0.276,0,0.5,0.224,0.5,0.5S10.276,22,10,22H3z M13,5V3h-1.5
		C11.224,3,11,2.776,11,2.5C11,1.673,10.327,1,9.5,1S8,1.673,8,2.5C8,2.776,7.776,3,7.5,3H6v2H13z"/>
	<path d="M5.5,8.999c-0.276,0-0.5-0.224-0.5-0.5s0.224-0.5,0.5-0.5h8c0.276,0,0.5,0.224,0.5,0.5s-0.224,0.5-0.5,0.5H5.5z"/>
	<path d="M5.5,11.999c-0.276,0-0.5-0.224-0.5-0.5s0.224-0.5,0.5-0.5h6c0.276,0,0.5,0.224,0.5,0.5s-0.224,0.5-0.5,0.5H5.5z"/>
	<path d="M5.5,14.999c-0.276,0-0.5-0.224-0.5-0.5s0.224-0.5,0.5-0.5h4c0.276,0,0.5,0.224,0.5,0.5s-0.224,0.5-0.5,0.5H5.5z"/>
	<path d="M17.5,23.999c-3.584,0-6.5-2.916-6.5-6.5s2.916-6.5,6.5-6.5s6.5,2.916,6.5,6.5S21.084,23.999,17.5,23.999z M17.5,11.999
		c-3.033,0-5.5,2.467-5.5,5.5s2.467,5.5,5.5,5.5s5.5-2.467,5.5-5.5S20.533,11.999,17.5,11.999z"/>
	<path d="M16.667,20.429c-0.271,0-0.531-0.087-0.749-0.25c-0.046-0.035-0.09-0.073-0.131-0.114l-1.502-1.502
		c-0.195-0.195-0.195-0.512,0-0.707c0.094-0.094,0.22-0.146,0.354-0.146l0,0c0.134,0,0.259,0.052,0.354,0.146l1.5,1.5
		c0.007,0.007,0.017,0.016,0.027,0.023c0.043,0.032,0.095,0.05,0.149,0.05c0.012,0,0.024-0.001,0.036-0.003
		c0.066-0.009,0.125-0.044,0.164-0.097l2.905-3.874c0.094-0.125,0.243-0.2,0.4-0.2c0.109,0,0.212,0.034,0.3,0.1
		c0.107,0.08,0.177,0.197,0.196,0.33c0.019,0.132-0.015,0.264-0.095,0.371l-2.905,3.874c-0.2,0.267-0.493,0.44-0.824,0.488
		C16.786,20.425,16.726,20.429,16.667,20.429z"/>
</g>
</svg>
