<?xml version="1.0" encoding="utf-8"?>
<!-- Generator: Adobe Illustrator 22.1.0, SVG Export Plug-In . SVG Version: 6.00 Build 0)  -->
<svg version="1.1" id="Layer_1" xmlns="http://www.w3.org/2000/svg" xmlns:xlink="http://www.w3.org/1999/xlink" x="0px" y="0px"
	 viewBox="0 0 24 24" style="enable-background:new 0 0 24 24;" xml:space="preserve">
<title>speakers-1</title>
<g>
	<path d="M5.25,24C4.009,24,3,22.991,3,21.75V2.25C3,1.009,4.009,0,5.25,0h13.5C19.991,0,21,1.009,21,2.25v19.5
		c0,1.241-1.009,2.25-2.25,2.25H5.25z M5.25,1.5C4.836,1.5,4.5,1.836,4.5,2.25v19.5c0,0.414,0.336,0.75,0.75,0.75h13.5
		c0.414,0,0.75-0.336,0.75-0.75V2.25c0-0.414-0.336-0.75-0.75-0.75H5.25z"/>
	<path d="M12,17.25c-1.241,0-2.25-1.009-2.25-2.25s1.009-2.25,2.25-2.25c1.241,0,2.25,1.009,2.25,2.25S13.241,17.25,12,17.25z
		 M12,14.25c-0.414,0-0.75,0.336-0.75,0.75s0.336,0.75,0.75,0.75s0.75-0.336,0.75-0.75S12.414,14.25,12,14.25z"/>
	<path d="M12,7.5c-1.241,0-2.25-1.009-2.25-2.25S10.759,3,12,3c1.241,0,2.25,1.009,2.25,2.25S13.241,7.5,12,7.5z M12,4.5
		c-0.414,0-0.75,0.336-0.75,0.75S11.586,6,12,6s0.75-0.336,0.75-0.75S12.414,4.5,12,4.5z"/>
	<path d="M12,21c-3.308,0-6-2.692-6-6s2.692-6,6-6s6,2.692,6,6S15.308,21,12,21z M12,10.5c-2.481,0-4.5,2.019-4.5,4.5
		s2.019,4.5,4.5,4.5c2.481,0,4.5-2.019,4.5-4.5S14.481,10.5,12,10.5z"/>
</g>
</svg>
