<?xml version="1.0" encoding="utf-8"?>
<!-- Generator: Adobe Illustrator 22.1.0, SVG Export Plug-In . SVG Version: 6.00 Build 0)  -->
<svg version="1.1" id="Layer_1" xmlns="http://www.w3.org/2000/svg" xmlns:xlink="http://www.w3.org/1999/xlink" x="0px" y="0px"
	 viewBox="0 0 24 24" style="enable-background:new 0 0 24 24;" xml:space="preserve">
<title>layout-column</title>
<g>
	<path d="M2.25,23.997c-1.241,0-2.25-1.009-2.25-2.25v-19.5c0-1.241,1.009-2.25,2.25-2.25h1.5C4.991-0.003,6,1.006,6,2.247v19.5
		c0,1.241-1.009,2.25-2.25,2.25H2.25z M2.25,1.497c-0.414,0-0.75,0.336-0.75,0.75v19.5c0,0.414,0.336,0.75,0.75,0.75h1.5
		c0.414,0,0.75-0.336,0.75-0.75v-19.5c0-0.414-0.336-0.75-0.75-0.75H2.25z"/>
	<path d="M11.251,23.997c-1.241,0-2.25-1.009-2.25-2.25v-19.5c0-1.241,1.009-2.25,2.25-2.25h1.5c1.241,0,2.25,1.009,2.25,2.25v19.5
		c0,1.241-1.009,2.25-2.25,2.25H11.251z M11.251,1.497c-0.414,0-0.75,0.336-0.75,0.75v19.5c0,0.414,0.336,0.75,0.75,0.75h1.5
		c0.414,0,0.75-0.336,0.75-0.75v-19.5c0-0.414-0.336-0.75-0.75-0.75H11.251z"/>
	<path d="M20.25,23.997c-1.241,0-2.25-1.009-2.25-2.25v-19.5c0-1.241,1.009-2.25,2.25-2.25h1.5c1.241,0,2.25,1.009,2.25,2.25v19.5
		c0,1.241-1.009,2.25-2.25,2.25H20.25z M20.25,1.497c-0.414,0-0.75,0.336-0.75,0.75v19.5c0,0.414,0.336,0.75,0.75,0.75h1.5
		c0.414,0,0.75-0.336,0.75-0.75v-19.5c0-0.414-0.336-0.75-0.75-0.75H20.25z"/>
</g>
</svg>
