<svg xmlns="http://www.w3.org/2000/svg" viewBox="0 0 24 24"><defs><style>.a{fill:none;stroke:currentColor;stroke-linecap:round;stroke-linejoin:round;}</style></defs><title>laptop-shield</title><line class="a" x1="12" y1="9.004" x2="12" y2="12.004"/><line class="a" x1="10.5" y1="10.504" x2="13.5" y2="10.504"/><path class="a" d="M12.357,14.435l.369-.14A4.878,4.878,0,0,0,16,10.069V7.808a.7.7,0,0,0-.419-.639A10.529,10.529,0,0,0,11.986,6.5a10.334,10.334,0,0,0-3.567.665A.7.7,0,0,0,8,7.808v2.261A4.848,4.848,0,0,0,11.245,14.3l.369.14A1.035,1.035,0,0,0,12.357,14.435Z"/><path class="a" d="M21.306,20.5H2.694A2,2,0,0,1,.721,18.833L.5,17.5h23l-.221,1.329A2,2,0,0,1,21.306,20.5Z"/><path class="a" d="M2.5,3.5h19a1,1,0,0,1,1,1v13a0,0,0,0,1,0,0H1.5a0,0,0,0,1,0,0V4.5A1,1,0,0,1,2.5,3.5Z"/></svg>