<svg xmlns="http://www.w3.org/2000/svg" viewBox="0 0 24 24"><defs><style>.a{fill:none;stroke:currentColor;stroke-linecap:round;stroke-linejoin:round;}</style></defs><title>monitor-home</title><line class="a" x1="5" y1="22.004" x2="19" y2="22.004"/><line class="a" x1="11.5" y1="20.004" x2="11.5" y2="22.004"/><line class="a" x1="0.5" y1="16.004" x2="23.5" y2="16.004"/><rect class="a" x="0.5" y="2.004" width="23" height="18" rx="1.5" ry="1.5"/><path class="a" d="M9,8.136V12a1,1,0,0,0,1,1h4a1,1,0,0,0,1-1V8.136"/><path class="a" d="M8,9.011l3.012-2.636a1.5,1.5,0,0,1,1.976,0L16,9.011"/><path class="a" d="M13,13H11V11a1,1,0,1,1,2,0Z"/></svg>