<svg xmlns="http://www.w3.org/2000/svg" viewBox="0 0 24 24"><title>walkman</title><path d="M24,7.5A1.5,1.5,0,0,0,22.5,6H1.5A1.5,1.5,0,0,0,0,7.5v13A1.5,1.5,0,0,0,1.5,22h21A1.5,1.5,0,0,0,24,20.5ZM8.364,17.337l7.113-8A1,1,0,0,1,16.225,9H20a1,1,0,0,1,1,1v6.5A2.5,2.5,0,0,1,18.5,19H9.113a1,1,0,0,1-.749-1.663ZM3,11A1,1,0,0,1,3,9H9.5a1,1,0,0,1,0,2Z"/><circle cx="17" cy="14" r="1.5"/><path d="M9.5,5h2.75a.25.25,0,0,0,.25-.25V2.25A.25.25,0,0,0,12.25,2H10.5A1.5,1.5,0,0,0,9,3.5v1A.5.5,0,0,0,9.5,5Z"/><path d="M18.5,4.75a.25.25,0,0,0,.25.25H21.5a.5.5,0,0,0,.5-.5v-1A1.5,1.5,0,0,0,20.5,2H18.75a.25.25,0,0,0-.25.25Z"/><rect x="14" y="2" width="3" height="3" rx="0.25" ry="0.25"/></svg>