<svg xmlns="http://www.w3.org/2000/svg" viewBox="0 0 24 24"><title>walkman-heaphones-1</title><path d="M12,0A12.013,12.013,0,0,0,0,12v7.5a2,2,0,0,0,4,0V15a2,2,0,0,0-1.778-1.988A.249.249,0,0,1,2,12.764V12a10,10,0,0,1,20,0v.764a.25.25,0,0,1-.222.248A2,2,0,0,0,20,15v4.5a2,2,0,0,0,4,0V12A12.013,12.013,0,0,0,12,0Z"/><path d="M16.5,7h-9A1.5,1.5,0,0,0,6,8.5v14A1.5,1.5,0,0,0,7.5,24h9A1.5,1.5,0,0,0,18,22.5V8.5A1.5,1.5,0,0,0,16.5,7ZM8.78,13.473a.838.838,0,0,1-.28-.622V10.333A.834.834,0,0,1,9.333,9.5h4.334A1.835,1.835,0,0,1,15.5,11.333v6.258a.833.833,0,0,1-1.388.622ZM11.5,20.5a.5.5,0,0,1-.5.5H9a.5.5,0,0,1,0-1h2A.5.5,0,0,1,11.5,20.5Z"/><circle cx="12" cy="12.333" r="1"/></svg>