<?xml version="1.0" encoding="utf-8"?>
<!-- Generator: Adobe Illustrator 22.1.0, SVG Export Plug-In . SVG Version: 6.00 Build 0)  -->
<svg version="1.1" id="Regular" xmlns="http://www.w3.org/2000/svg" xmlns:xlink="http://www.w3.org/1999/xlink" x="0px" y="0px"
	 viewBox="0 0 24 24" style="enable-background:new 0 0 24 24;" xml:space="preserve">
<title>multiple-actions-sync</title>
<g>
	<path d="M17.252,23.999c-3.08,0-5.768-2.083-6.537-5.065c-0.45-1.746-0.194-3.563,0.722-5.115c0.916-1.553,2.382-2.656,4.128-3.107
		c0.552-0.142,1.119-0.214,1.684-0.214c2.066,0,3.983,0.936,5.25,2.506V11.25c0-0.414,0.336-0.75,0.75-0.75S24,10.836,24,11.25v4.5
		c0,0.414-0.336,0.75-0.75,0.75H19.5c-0.414,0-0.75-0.336-0.75-0.75S19.086,15,19.5,15h2.494c-0.86-1.816-2.704-3.002-4.745-3.002
		c-0.439,0-0.88,0.056-1.309,0.167c-1.358,0.35-2.499,1.208-3.211,2.416c-0.713,1.208-0.912,2.621-0.562,3.979
		c0.598,2.32,2.689,3.939,5.086,3.939c0.439,0,0.88-0.056,1.309-0.167c1.095-0.282,2.086-0.925,2.792-1.808
		c0.143-0.179,0.357-0.282,0.586-0.282c0.169,0,0.335,0.058,0.468,0.164c0.156,0.125,0.255,0.303,0.278,0.502
		c0.022,0.199-0.034,0.395-0.159,0.552c-0.906,1.136-2.181,1.961-3.589,2.324C18.385,23.927,17.818,23.999,17.252,23.999
		L17.252,23.999z"/>
	<path d="M6,7.5c-2.068,0-3.75-1.682-3.75-3.75S3.932,0,6,0s3.75,1.682,3.75,3.75S8.068,7.5,6,7.5z M6,1.5
		c-1.241,0-2.25,1.009-2.25,2.25S4.759,6,6,6s2.25-1.009,2.25-2.25S7.241,1.5,6,1.5z"/>
	<path d="M3.75,24c-0.387,0-0.708-0.29-0.746-0.675L2.321,16.5H0.75C0.336,16.5,0,16.164,0,15.75V13.5
		c0-2.303,1.344-4.43,3.424-5.419C4.24,7.693,5.105,7.496,5.997,7.496c0.684,0,1.361,0.118,2.013,0.349
		c1.511,0.537,2.722,1.63,3.41,3.077c0.086,0.181,0.097,0.384,0.029,0.573c-0.067,0.189-0.204,0.34-0.385,0.426
		c-0.101,0.048-0.21,0.073-0.322,0.073l0,0c-0.288,0-0.554-0.168-0.678-0.428C9.324,10.007,7.725,9,5.993,9
		C5.324,9,4.676,9.146,4.068,9.436C2.508,10.177,1.5,11.773,1.5,13.5V15H3c0.387,0,0.708,0.29,0.746,0.675L4.429,22.5h3.143
		l0.454-4.541c0.039-0.385,0.357-0.676,0.741-0.676c0.029,0,0.057,0.002,0.086,0.005c0.193,0.019,0.373,0.115,0.499,0.271
		c0.127,0.155,0.186,0.35,0.166,0.55l-0.522,5.216C8.958,23.71,8.637,24,8.25,24H3.75z"/>
	<path d="M16.5,6.75c-1.861,0-3.375-1.514-3.375-3.375S14.639,0,16.5,0s3.375,1.514,3.375,3.375S18.361,6.75,16.5,6.75z M16.5,1.5
		c-1.034,0-1.875,0.841-1.875,1.875S15.466,5.25,16.5,5.25s1.875-0.841,1.875-1.875S17.534,1.5,16.5,1.5z"/>
	<path d="M20.4,9.75c-0.267,0-0.516-0.144-0.649-0.375c-0.501-0.868-1.31-1.488-2.278-1.747c-0.321-0.086-0.649-0.129-0.976-0.129
		c-0.651,0-1.298,0.175-1.869,0.505c-0.357,0.207-0.676,0.469-0.948,0.779c-0.143,0.163-0.348,0.256-0.565,0.256l0,0
		c-0.181,0-0.356-0.066-0.493-0.185c-0.312-0.273-0.344-0.748-0.072-1.059c0.381-0.435,0.827-0.802,1.327-1.091
		c0.8-0.462,1.705-0.706,2.618-0.706c0.458,0,0.917,0.061,1.365,0.18c1.355,0.363,2.487,1.231,3.188,2.445
		c0.207,0.358,0.084,0.818-0.274,1.025C20.661,9.715,20.531,9.75,20.4,9.75z"/>
</g>
</svg>
