<?xml version="1.0" encoding="utf-8"?>
<!-- Generator: Adobe Illustrator 22.1.0, SVG Export Plug-In . SVG Version: 6.00 Build 0)  -->
<svg version="1.1" id="Regular" xmlns="http://www.w3.org/2000/svg" xmlns:xlink="http://www.w3.org/1999/xlink" x="0px" y="0px"
	 viewBox="0 0 24 24" style="enable-background:new 0 0 24 24;" xml:space="preserve">
<title>multiple-actions-chat</title>
<g>
	<path d="M14.25,24c-0.124,0-0.246-0.031-0.354-0.089c-0.244-0.13-0.396-0.384-0.396-0.661V21h-0.75c-1.241,0-2.25-1.009-2.25-2.25
		v-6c0-1.241,1.009-2.25,2.25-2.25h9c1.241,0,2.25,1.009,2.25,2.25v6c0,1.241-1.009,2.25-2.25,2.25h-2.773l-4.311,2.874
		C14.542,23.957,14.398,24,14.25,24z M12.75,12C12.336,12,12,12.336,12,12.75v6c0,0.414,0.336,0.75,0.75,0.75h1.5
		c0.414,0,0.75,0.336,0.75,0.75v1.599l3.334-2.223c0.124-0.083,0.268-0.126,0.416-0.126h3c0.414,0,0.75-0.336,0.75-0.75v-6
		c0-0.414-0.336-0.75-0.75-0.75H12.75z"/>
	<path d="M14.25,15c-0.414,0-0.75-0.336-0.75-0.75s0.336-0.75,0.75-0.75h6c0.414,0,0.75,0.336,0.75,0.75S20.664,15,20.25,15H14.25z"
		/>
	<path d="M14.25,18c-0.414,0-0.75-0.336-0.75-0.75s0.336-0.75,0.75-0.75h6c0.414,0,0.75,0.336,0.75,0.75S20.664,18,20.25,18H14.25z"
		/>
	<path d="M6,7.5c-2.068,0-3.75-1.682-3.75-3.75S3.932,0,6,0s3.75,1.682,3.75,3.75S8.068,7.5,6,7.5z M6,1.5
		c-1.241,0-2.25,1.009-2.25,2.25S4.759,6,6,6s2.25-1.009,2.25-2.25S7.241,1.5,6,1.5z"/>
	<path d="M3.75,24c-0.387,0-0.708-0.29-0.746-0.675L2.321,16.5H0.75C0.336,16.5,0,16.164,0,15.75V13.5
		c0.001-1.281,0.401-2.505,1.156-3.539C2.102,8.667,3.496,7.819,5.08,7.573c0.309-0.048,0.623-0.072,0.933-0.072
		c1.273,0,2.494,0.4,3.53,1.158c0.334,0.244,0.407,0.714,0.163,1.048C9.564,9.899,9.338,10.014,9.1,10.014c0,0,0,0,0,0
		c-0.16,0-0.313-0.05-0.442-0.144C7.88,9.301,6.965,9.001,6.012,9.001c-0.233,0-0.469,0.018-0.702,0.055
		C4.122,9.24,3.077,9.876,2.367,10.847C1.801,11.622,1.501,12.54,1.5,13.5V15H3c0.387,0,0.708,0.29,0.746,0.675L4.429,22.5h3.142
		l0.192-1.919c0.038-0.385,0.357-0.676,0.74-0.676c0.029,0,0.058,0.002,0.088,0.005c0.192,0.019,0.371,0.115,0.498,0.271
		c0.127,0.155,0.186,0.35,0.166,0.549l-0.259,2.594C8.958,23.71,8.637,24,8.25,24H3.75z"/>
	<path d="M16.348,6.75c-1.861,0-3.375-1.514-3.375-3.375S14.487,0,16.348,0s3.375,1.514,3.375,3.375S18.209,6.75,16.348,6.75z
		 M16.348,1.5c-1.034,0-1.875,0.841-1.875,1.875s0.841,1.875,1.875,1.875s1.875-0.841,1.875-1.875S17.382,1.5,16.348,1.5z"/>
	<path d="M20.245,9.75c-0.267,0-0.516-0.144-0.649-0.375c-0.668-1.156-1.915-1.874-3.254-1.874c-0.654,0-1.3,0.174-1.869,0.502
		c-0.357,0.207-0.676,0.469-0.948,0.779C13.382,8.947,13.176,9.04,12.96,9.04l0,0c-0.181,0-0.356-0.066-0.493-0.185
		c-0.312-0.273-0.344-0.747-0.072-1.059c0.381-0.435,0.827-0.802,1.327-1.091c0.796-0.46,1.701-0.703,2.618-0.703
		c1.875,0,3.62,1.005,4.554,2.623c0.207,0.358,0.084,0.818-0.274,1.025C20.506,9.715,20.377,9.75,20.245,9.75z"/>
</g>
</svg>
