<?xml version="1.0" encoding="utf-8"?>
<!-- Generator: Adobe Illustrator 22.1.0, SVG Export Plug-In . SVG Version: 6.00 Build 0)  -->
<svg version="1.1" id="Regular" xmlns="http://www.w3.org/2000/svg" xmlns:xlink="http://www.w3.org/1999/xlink" x="0px" y="0px"
	 viewBox="0 0 24 24" style="enable-background:new 0 0 24 24;" xml:space="preserve">
<title>multiple-actions-image</title>
<g>
	<path d="M15.375,15.75c-0.62,0-1.125-0.505-1.125-1.125c-0.001-0.299,0.115-0.581,0.327-0.794c0.212-0.213,0.494-0.331,0.794-0.331
		c0.624,0,1.129,0.505,1.129,1.125S15.995,15.75,15.375,15.75z"/>
	<path d="M12.75,24c-1.241,0-2.25-1.01-2.25-2.25v-9c0-1.241,1.009-2.25,2.25-2.25h9c1.241,0,2.25,1.009,2.25,2.25v9
		C24,22.991,22.99,24,21.75,24H12.75z M21.75,22.5c0.414,0,0.75-0.336,0.75-0.75v-0.523l-2.265-3.398l-2,2.852
		c-0.118,0.168-0.302,0.282-0.507,0.312C17.689,20.998,17.655,21,17.622,21c-0.171,0-0.338-0.058-0.47-0.165L15.92,19.85
		l-1.769,2.65H21.75z M12.75,12C12.336,12,12,12.336,12,12.75v9c0,0.286,0.161,0.538,0.406,0.664l2.263-3.399
		c0.026-0.039,0.053-0.076,0.082-0.111c0.248-0.309,0.604-0.504,1.002-0.548c0.055-0.006,0.112-0.009,0.167-0.009
		c0.342,0,0.665,0.114,0.934,0.33l0.611,0.489l1.542-2.197c0.107-0.154,0.242-0.285,0.399-0.389c0.246-0.163,0.532-0.25,0.827-0.25
		c0.504,0,0.972,0.25,1.25,0.669l1.016,1.525V12.75c0-0.414-0.336-0.75-0.75-0.75H12.75z"/>
	<path d="M6,7.5c-2.068,0-3.75-1.682-3.75-3.75S3.932,0,6,0s3.75,1.682,3.75,3.75S8.068,7.5,6,7.5z M6,1.5
		c-1.241,0-2.25,1.009-2.25,2.25S4.759,6,6,6s2.25-1.009,2.25-2.25S7.24,1.5,6,1.5z"/>
	<path d="M3.75,24c-0.387,0-0.708-0.29-0.746-0.675L2.321,16.5h-1.57c-0.414,0-0.75-0.336-0.75-0.75V13.5
		c0.001-1.601,0.657-3.161,1.799-4.282c1.129-1.107,2.624-1.716,4.211-1.716l0.048,0c1.604,0.016,3.104,0.655,4.227,1.799
		c0.14,0.143,0.216,0.332,0.214,0.532c-0.002,0.2-0.082,0.388-0.225,0.528c-0.141,0.138-0.327,0.215-0.525,0.215l0,0
		c-0.203,0-0.393-0.08-0.536-0.225C8.374,9.493,7.248,9.014,6.046,9.002l-0.058,0c-1.176,0-2.291,0.457-3.137,1.287
		C1.993,11.13,1.502,12.3,1.501,13.5V15H3c0.387,0,0.708,0.29,0.746,0.675L4.429,22.5h3.143l0.319-3.187
		c0.039-0.385,0.358-0.676,0.743-0.676c0.027,0,0.054,0.001,0.082,0.004c0.195,0.02,0.375,0.116,0.502,0.271
		c0.127,0.155,0.186,0.35,0.166,0.55l-0.387,3.862C8.957,23.71,8.637,24,8.25,24H3.75z"/>
	<path d="M16.5,6.75c-1.861,0-3.375-1.514-3.375-3.375S14.639,0,16.5,0s3.375,1.514,3.375,3.375S18.361,6.75,16.5,6.75z M16.5,1.5
		c-1.034,0-1.875,0.841-1.875,1.875S15.466,5.25,16.5,5.25s1.875-0.841,1.875-1.875S17.534,1.5,16.5,1.5z"/>
	<path d="M20.4,9.75c-0.267,0-0.516-0.144-0.649-0.375c-0.501-0.868-1.31-1.488-2.278-1.747c-0.32-0.086-0.649-0.129-0.976-0.129
		c-0.651,0-1.298,0.174-1.87,0.505c-0.357,0.207-0.676,0.469-0.947,0.779c-0.143,0.163-0.349,0.256-0.565,0.256l0,0
		c-0.181,0-0.356-0.066-0.493-0.185c-0.312-0.273-0.344-0.748-0.072-1.059c0.38-0.435,0.826-0.802,1.327-1.091
		c0.8-0.462,1.706-0.706,2.619-0.706c0.458,0,0.917,0.061,1.365,0.181c1.355,0.363,2.487,1.231,3.188,2.445
		c0.207,0.358,0.084,0.818-0.274,1.025C20.661,9.715,20.531,9.75,20.4,9.75z"/>
</g>
</svg>
