<?xml version="1.0" encoding="utf-8"?>
<!-- Generator: Adobe Illustrator 22.1.0, SVG Export Plug-In . SVG Version: 6.00 Build 0)  -->
<svg version="1.1" id="Regular" xmlns="http://www.w3.org/2000/svg" xmlns:xlink="http://www.w3.org/1999/xlink" x="0px" y="0px"
	 viewBox="0 0 24 24" style="enable-background:new 0 0 24 24;" xml:space="preserve">
<title>multiple-actions-graduate</title>
<g>
	<path d="M16.5,24.005c-0.192,0-0.38-0.037-0.559-0.109l-2.998-1.199c-0.576-0.231-0.946-0.78-0.943-1.4V18.71l-1.5-0.549v2.677
		c0,0.414-0.336,0.75-0.75,0.75S9,21.251,9,20.838v-3.771c0-0.364,0.268-0.675,0.621-0.737l6.593-2.715
		c0.092-0.038,0.188-0.056,0.286-0.056s0.194,0.019,0.285,0.056l6.751,2.779c0.288,0.118,0.47,0.396,0.464,0.708
		c-0.007,0.312-0.2,0.583-0.493,0.69L21,18.71v2.591c0.003,0.617-0.367,1.165-0.942,1.396l-3.001,1.2
		C16.88,23.969,16.692,24.005,16.5,24.005z M13.5,21.301l3,1.204l3.001-1.2l0-2.045l-2.742,1.004
		c-0.082,0.03-0.169,0.046-0.258,0.046s-0.176-0.016-0.259-0.046L13.5,19.259V21.301z M16.5,18.76l4.68-1.713L16.5,15.12
		l-4.68,1.927L16.5,18.76z"/>
	<path d="M6,7.501c-2.068,0-3.75-1.682-3.75-3.75S3.932,0.001,6,0.001s3.75,1.682,3.75,3.75S8.068,7.501,6,7.501z M6,1.501
		c-1.241,0-2.25,1.009-2.25,2.25S4.76,6.001,6,6.001s2.25-1.009,2.25-2.25S7.241,1.501,6,1.501z"/>
	<path d="M3.75,24.001c-0.387,0-0.708-0.29-0.746-0.675l-0.682-6.825H0.75c-0.414,0-0.75-0.336-0.75-0.75v-2.25
		c0.001-2.142,1.156-4.136,3.014-5.202C3.92,7.778,4.95,7.503,5.991,7.503c2.15,0,4.147,1.154,5.214,3.013
		c0.1,0.174,0.126,0.376,0.074,0.569s-0.177,0.355-0.351,0.454c-0.113,0.065-0.242,0.1-0.373,0.1c-0.268,0-0.517-0.144-0.651-0.377
		c-0.8-1.393-2.299-2.259-3.912-2.259c-0.781,0-1.553,0.206-2.233,0.596c-1.393,0.8-2.259,2.295-2.26,3.902v1.5H3
		c0.387,0,0.708,0.29,0.746,0.675l0.682,6.825H8.25c0.414,0,0.75,0.336,0.75,0.75s-0.336,0.75-0.75,0.75H3.75z"/>
	<path d="M16.5,6.751c-1.861,0-3.375-1.514-3.375-3.375s1.514-3.375,3.375-3.375s3.375,1.514,3.375,3.375S18.361,6.751,16.5,6.751z
		 M16.5,1.501c-1.034,0-1.875,0.841-1.875,1.875s0.841,1.875,1.875,1.875s1.875-0.841,1.875-1.875S17.534,1.501,16.5,1.501z"/>
	<path d="M20.4,9.751c-0.267,0-0.516-0.144-0.649-0.375c-0.501-0.868-1.31-1.488-2.278-1.747C17.153,7.543,16.824,7.5,16.497,7.5
		c-0.651,0-1.298,0.175-1.869,0.505c-0.357,0.207-0.676,0.469-0.948,0.779c-0.143,0.163-0.348,0.256-0.565,0.256l0,0
		c-0.182,0-0.357-0.066-0.494-0.185c-0.151-0.132-0.241-0.314-0.255-0.514c-0.013-0.2,0.052-0.393,0.183-0.544
		c0.381-0.435,0.827-0.802,1.327-1.091C14.677,6.244,15.582,6,16.496,6c0.458,0,0.917,0.061,1.365,0.18
		c1.355,0.363,2.487,1.231,3.188,2.445c0.207,0.358,0.084,0.818-0.274,1.025C20.661,9.716,20.532,9.751,20.4,9.751z"/>
</g>
</svg>
