<?xml version="1.0" encoding="utf-8"?>
<!-- Generator: Adobe Illustrator 22.1.0, SVG Export Plug-In . SVG Version: 6.00 Build 0)  -->
<svg version="1.1" id="Regular" xmlns="http://www.w3.org/2000/svg" xmlns:xlink="http://www.w3.org/1999/xlink" x="0px" y="0px"
	 viewBox="0 0 24 24" style="enable-background:new 0 0 24 24;" xml:space="preserve">
<title>multiple-actions-setting</title>
<g>
	<path d="M5.999,7.5c-2.068,0-3.75-1.682-3.75-3.75S3.931,0,5.999,0s3.75,1.682,3.75,3.75S8.067,7.5,5.999,7.5z M5.999,1.5
		c-1.241,0-2.25,1.009-2.25,2.25S4.758,6,5.999,6s2.25-1.009,2.25-2.25S7.239,1.5,5.999,1.5z"/>
	<path d="M3.749,24c-0.387,0-0.708-0.29-0.746-0.675L2.32,16.5H0.749c-0.414,0-0.75-0.336-0.75-0.75V13.5
		c0-1.579,0.609-3.069,1.714-4.197c1.121-1.145,2.622-1.785,4.225-1.802l0.071,0c1.574,0,3.062,0.609,4.191,1.714
		c0.143,0.14,0.223,0.328,0.225,0.528s-0.074,0.39-0.214,0.533C10.068,10.42,9.878,10.5,9.674,10.5c0,0,0,0,0,0
		c-0.198,0-0.384-0.076-0.525-0.214c-0.846-0.828-1.97-1.285-3.164-1.285l-0.034,0c-1.201,0.013-2.326,0.493-3.167,1.351
		c-0.828,0.846-1.285,1.964-1.285,3.148V15h1.5c0.387,0,0.708,0.29,0.746,0.675L4.428,22.5H7.57l0.454-4.541
		c0.039-0.385,0.357-0.676,0.741-0.676c0.029,0,0.057,0.002,0.086,0.005c0.193,0.019,0.372,0.115,0.499,0.271
		c0.127,0.155,0.186,0.35,0.166,0.55l-0.522,5.216C8.957,23.71,8.636,24,8.249,24H3.749z"/>
	<path d="M17.249,18.75c-1.241,0-2.25-1.009-2.25-2.25s1.009-2.25,2.25-2.25s2.25,1.009,2.25,2.25S18.49,18.75,17.249,18.75z
		 M17.249,15.75c-0.414,0-0.75,0.336-0.75,0.75s0.336,0.75,0.75,0.75s0.75-0.336,0.75-0.75S17.663,15.75,17.249,15.75z"/>
	<path d="M17.248,23.998c-0.202,0-0.403-0.03-0.599-0.088c-0.671-0.202-1.192-0.723-1.393-1.393l-0.441-1.45
		c-0.031-0.103-0.126-0.175-0.232-0.175c-0.018,0-0.036,0.002-0.054,0.006l-1.473,0.341c-0.154,0.035-0.311,0.053-0.467,0.053
		c-0.965,0-1.821-0.684-2.035-1.626c-0.153-0.676,0.037-1.381,0.51-1.887l1.028-1.109c0.089-0.096,0.089-0.246,0.001-0.342
		l-1.031-1.112c-0.379-0.407-0.578-0.939-0.558-1.496c0.02-0.558,0.255-1.074,0.664-1.455c0.388-0.361,0.894-0.56,1.424-0.56
		c0.154,0,0.309,0.017,0.459,0.051l1.478,0.343c0.016,0.004,0.034,0.006,0.052,0.006c0.106,0,0.202-0.071,0.233-0.173l0.442-1.455
		C15.521,9.607,16.341,9,17.25,9c0.204,0,0.406,0.03,0.602,0.089c0.67,0.203,1.189,0.724,1.39,1.394l0.441,1.451
		c0.031,0.103,0.128,0.174,0.235,0.174c0.018,0,0.035-0.002,0.053-0.006l1.471-0.342c0.155-0.035,0.312-0.053,0.467-0.053
		c0.393,0,0.778,0.112,1.113,0.324c0.472,0.298,0.799,0.762,0.921,1.307c0.152,0.674-0.039,1.378-0.509,1.883l-1.029,1.11
		c-0.089,0.096-0.089,0.246,0,0.342l1.031,1.112c0.379,0.406,0.578,0.937,0.558,1.495c-0.019,0.558-0.254,1.074-0.661,1.454
		c-0.388,0.362-0.893,0.562-1.424,0.562l0,0c-0.156,0-0.311-0.018-0.463-0.052l-1.476-0.342c-0.016-0.004-0.034-0.006-0.052-0.006
		c-0.107,0-0.203,0.071-0.234,0.172l-0.443,1.45C18.979,23.389,18.16,23.998,17.248,23.998z M14.581,19.392
		c0.763,0,1.45,0.51,1.67,1.24l0.441,1.45c0.057,0.189,0.202,0.334,0.39,0.391c0.055,0.017,0.111,0.025,0.167,0.025
		c0.254,0,0.483-0.17,0.557-0.414l0.443-1.45c0.219-0.728,0.905-1.237,1.668-1.237c0.131,0,0.263,0.015,0.391,0.045l1.473,0.341
		c0.041,0.009,0.084,0.014,0.128,0.014c0.149,0,0.291-0.056,0.4-0.158c0.115-0.108,0.182-0.253,0.187-0.41
		c0.005-0.157-0.051-0.307-0.158-0.422l-1.031-1.113c-0.621-0.667-0.621-1.714,0-2.383l1.03-1.11
		c0.133-0.144,0.187-0.343,0.145-0.532c-0.035-0.154-0.127-0.284-0.26-0.368c-0.094-0.06-0.203-0.091-0.313-0.091
		c-0.044,0-0.088,0.005-0.131,0.015l-1.468,0.341c-0.128,0.03-0.26,0.044-0.39,0.044c-0.763,0-1.45-0.51-1.67-1.239
		c0,0-0.443-1.455-0.443-1.457c-0.056-0.186-0.201-0.331-0.387-0.388c-0.055-0.017-0.112-0.025-0.168-0.025
		c-0.254,0-0.483,0.17-0.556,0.413l-0.442,1.454c-0.22,0.729-0.906,1.238-1.67,1.238c-0.13,0-0.261-0.015-0.389-0.044l-1.475-0.343
		c-0.039-0.009-0.082-0.014-0.125-0.014c-0.149,0-0.292,0.056-0.401,0.158c-0.115,0.107-0.182,0.253-0.187,0.41
		c-0.005,0.157,0.051,0.307,0.158,0.422l1.031,1.112c0.621,0.667,0.621,1.714,0,2.383l-1.029,1.11
		c-0.135,0.144-0.189,0.343-0.146,0.533c0.06,0.265,0.301,0.458,0.574,0.458c0.043,0,0.087-0.005,0.131-0.015l1.469-0.34
		C14.319,19.407,14.451,19.392,14.581,19.392z"/>
	<path d="M16.499,6.75c-1.861,0-3.375-1.514-3.375-3.375S14.638,0,16.499,0s3.375,1.514,3.375,3.375S18.36,6.75,16.499,6.75z
		 M16.499,1.5c-1.034,0-1.875,0.841-1.875,1.875s0.841,1.875,1.875,1.875s1.875-0.841,1.875-1.875S17.533,1.5,16.499,1.5z"/>
	<path d="M20.399,9.75c-0.267,0-0.516-0.144-0.649-0.375c-0.501-0.868-1.31-1.488-2.278-1.747c-0.32-0.086-0.649-0.129-0.976-0.129
		c-0.651,0-1.298,0.174-1.87,0.505c-0.357,0.207-0.676,0.469-0.947,0.779C13.536,8.947,13.33,9.04,13.114,9.04l0,0
		c-0.181,0-0.356-0.066-0.493-0.185c-0.312-0.273-0.344-0.747-0.072-1.059c0.38-0.435,0.826-0.802,1.327-1.091
		c0.8-0.462,1.706-0.706,2.619-0.706c0.458,0,0.917,0.061,1.365,0.181c1.355,0.363,2.487,1.231,3.188,2.445
		c0.207,0.358,0.084,0.818-0.274,1.025C20.66,9.715,20.53,9.75,20.399,9.75z"/>
</g>
</svg>
