<svg id="Bold" xmlns="http://www.w3.org/2000/svg" viewBox="0 0 24 24"><title>single-man-heart</title><path d="M23.627,1.957a3.526,3.526,0,0,0-5.646-.916l-.305.305a.25.25,0,0,1-.354,0l-.3-.305a3.527,3.527,0,0,0-5.647.916,3.519,3.519,0,0,0,.654,4.063l5.113,5.334a.5.5,0,0,0,.722,0l5.106-5.327A3.522,3.522,0,0,0,23.627,1.957Z"/><path d="M5.5,8.994a5.506,5.506,0,0,0-5.5,5.5v3a.5.5,0,0,0,.5.5H2.31a.249.249,0,0,1,.249.229L3,23.535a.5.5,0,0,0,.5.459h4a.5.5,0,0,0,.5-.459l.443-5.312a.249.249,0,0,1,.249-.229H10.5a.5.5,0,0,0,.5-.5v-3A5.506,5.506,0,0,0,5.5,8.994Zm.75,5.948a.75.75,0,0,1-1.5,0V10.994a.75.75,0,0,1,1.5,0Z"/><path d="M5.5,8.144A4.069,4.069,0,1,0,1.435,4.075,4.074,4.074,0,0,0,5.5,8.144ZM3.571,3.356a.25.25,0,0,1,.362-.124,5.053,5.053,0,0,0,2.609.726A4.961,4.961,0,0,0,7.278,3.9a.254.254,0,0,1,.2.058.249.249,0,0,1,.086.189,2.028,2.028,0,0,1-2.062,2A2.07,2.07,0,0,1,3.435,4.075,2,2,0,0,1,3.571,3.356Z"/><path d="M23.627,1.957a3.526,3.526,0,0,0-5.646-.916l-.305.305a.25.25,0,0,1-.354,0l-.3-.305a3.527,3.527,0,0,0-5.647.916,3.519,3.519,0,0,0,.654,4.063l5.113,5.334a.5.5,0,0,0,.722,0l5.106-5.327A3.522,3.522,0,0,0,23.627,1.957Z"/><path d="M5.5,8.994a5.506,5.506,0,0,0-5.5,5.5v3a.5.5,0,0,0,.5.5H2.31a.249.249,0,0,1,.249.229L3,23.535a.5.5,0,0,0,.5.459h4a.5.5,0,0,0,.5-.459l.443-5.312a.249.249,0,0,1,.249-.229H10.5a.5.5,0,0,0,.5-.5v-3A5.506,5.506,0,0,0,5.5,8.994Zm.75,5.948a.75.75,0,0,1-1.5,0V10.994a.75.75,0,0,1,1.5,0Z"/><path d="M5.5,8.144A4.069,4.069,0,1,0,1.435,4.075,4.074,4.074,0,0,0,5.5,8.144ZM3.571,3.356a.25.25,0,0,1,.362-.124,5.053,5.053,0,0,0,2.609.726A4.961,4.961,0,0,0,7.278,3.9a.254.254,0,0,1,.2.058.249.249,0,0,1,.086.189,2.028,2.028,0,0,1-2.062,2A2.07,2.07,0,0,1,3.435,4.075,2,2,0,0,1,3.571,3.356Z"/></svg>