<svg id="Bold" xmlns="http://www.w3.org/2000/svg" viewBox="0 0 24 24"><title>single-man-megaphone</title><path d="M5.5,8.994a5.506,5.506,0,0,0-5.5,5.5v3a.5.5,0,0,0,.5.5H2.31a.249.249,0,0,1,.249.229L3,23.535a.5.5,0,0,0,.5.459h4a.5.5,0,0,0,.5-.459l.443-5.312a.249.249,0,0,1,.249-.229H10.5a.5.5,0,0,0,.5-.5v-3A5.506,5.506,0,0,0,5.5,8.994Zm.75,5.948a.75.75,0,0,1-1.5,0V10.994a.75.75,0,0,1,1.5,0Z"/><path d="M5.5,8.144A4.069,4.069,0,1,0,1.435,4.075,4.074,4.074,0,0,0,5.5,8.144Zm0-2A2.07,2.07,0,0,1,3.435,4.075a1.989,1.989,0,0,1,.136-.718.249.249,0,0,1,.362-.124,5.061,5.061,0,0,0,2.609.725A4.961,4.961,0,0,0,7.278,3.9a.249.249,0,0,1,.287.247A2.028,2.028,0,0,1,5.5,6.144Z"/><path d="M23,0a1,1,0,0,0-1,1v.547a.251.251,0,0,1-.192.243L12.77,3.936a.25.25,0,0,1-.3-.182A1,1,0,0,0,10.5,4V8a1,1,0,0,0,1.969.246.25.25,0,0,1,.3-.182l1.038.247A.25.25,0,0,1,14,8.554V9.5a2.992,2.992,0,0,0,5.937.537.248.248,0,0,1,.109-.165.251.251,0,0,1,.194-.034l1.568.372a.251.251,0,0,1,.192.243V11a1,1,0,0,0,2,0V1A1,1,0,0,0,23,0ZM18,9.5a1,1,0,0,1-2,0V9.147a.25.25,0,0,1,.308-.243l1.5.357A.245.245,0,0,1,18,9.5Z"/><path d="M5.5,8.994a5.506,5.506,0,0,0-5.5,5.5v3a.5.5,0,0,0,.5.5H2.31a.249.249,0,0,1,.249.229L3,23.535a.5.5,0,0,0,.5.459h4a.5.5,0,0,0,.5-.459l.443-5.312a.249.249,0,0,1,.249-.229H10.5a.5.5,0,0,0,.5-.5v-3A5.506,5.506,0,0,0,5.5,8.994Zm.75,5.948a.75.75,0,0,1-1.5,0V10.994a.75.75,0,0,1,1.5,0Z"/><path d="M5.5,8.144A4.069,4.069,0,1,0,1.435,4.075,4.074,4.074,0,0,0,5.5,8.144Zm0-2A2.07,2.07,0,0,1,3.435,4.075a1.989,1.989,0,0,1,.136-.718.249.249,0,0,1,.362-.124,5.061,5.061,0,0,0,2.609.725A4.961,4.961,0,0,0,7.278,3.9a.249.249,0,0,1,.287.247A2.028,2.028,0,0,1,5.5,6.144Z"/><path d="M23,0a1,1,0,0,0-1,1v.547a.251.251,0,0,1-.192.243L12.77,3.936a.25.25,0,0,1-.3-.182A1,1,0,0,0,10.5,4V8a1,1,0,0,0,1.969.246.25.25,0,0,1,.3-.182l1.038.247A.25.25,0,0,1,14,8.554V9.5a2.992,2.992,0,0,0,5.937.537.248.248,0,0,1,.109-.165.251.251,0,0,1,.194-.034l1.568.372a.251.251,0,0,1,.192.243V11a1,1,0,0,0,2,0V1A1,1,0,0,0,23,0ZM18,9.5a1,1,0,0,1-2,0V9.147a.25.25,0,0,1,.308-.243l1.5.357A.245.245,0,0,1,18,9.5Z"/></svg>