<svg id="Bold" xmlns="http://www.w3.org/2000/svg" viewBox="0 0 24 24"><title>single-man-question</title><path d="M17.5.008a6.5,6.5,0,1,0,6.5,6.5A6.506,6.506,0,0,0,17.5.008Zm0,11.5a1,1,0,1,1,1-1A1,1,0,0,1,17.5,11.506Zm.75-4.108v.359a.75.75,0,1,1-1.5,0V7.2a1.256,1.256,0,0,1,.988-1.222,1.125,1.125,0,1,0-1.363-1.1.75.75,0,0,1-1.5,0A2.625,2.625,0,1,1,18.251,7.4Z"/><path d="M5.5,8.994a5.505,5.505,0,0,0-5.5,5.5v3a.5.5,0,0,0,.5.5H2.31a.25.25,0,0,1,.249.229L3,23.534a.5.5,0,0,0,.5.458h4a.5.5,0,0,0,.5-.458l.443-5.312a.25.25,0,0,1,.249-.229H10.5a.5.5,0,0,0,.5-.5v-3A5.506,5.506,0,0,0,5.5,8.994Zm.75,5.948a.75.75,0,0,1-1.5,0V10.994a.75.75,0,0,1,1.5,0Z"/><path d="M5.5,8.144A4.068,4.068,0,1,0,1.434,4.076,4.073,4.073,0,0,0,5.5,8.144Zm0-2A2.07,2.07,0,0,1,3.434,4.076a1.968,1.968,0,0,1,.137-.718.249.249,0,0,1,.362-.124,5.058,5.058,0,0,0,2.608.725A4.985,4.985,0,0,0,7.278,3.9a.249.249,0,0,1,.286.247A2.028,2.028,0,0,1,5.5,6.144Z"/><path d="M17.5.008a6.5,6.5,0,1,0,6.5,6.5A6.506,6.506,0,0,0,17.5.008Zm0,11.5a1,1,0,1,1,1-1A1,1,0,0,1,17.5,11.506Zm.75-4.108v.359a.75.75,0,1,1-1.5,0V7.2a1.256,1.256,0,0,1,.988-1.222,1.125,1.125,0,1,0-1.363-1.1.75.75,0,0,1-1.5,0A2.625,2.625,0,1,1,18.251,7.4Z"/><path d="M5.5,8.994a5.505,5.505,0,0,0-5.5,5.5v3a.5.5,0,0,0,.5.5H2.31a.25.25,0,0,1,.249.229L3,23.534a.5.5,0,0,0,.5.458h4a.5.5,0,0,0,.5-.458l.443-5.312a.25.25,0,0,1,.249-.229H10.5a.5.5,0,0,0,.5-.5v-3A5.506,5.506,0,0,0,5.5,8.994Zm.75,5.948a.75.75,0,0,1-1.5,0V10.994a.75.75,0,0,1,1.5,0Z"/><path d="M5.5,8.144A4.068,4.068,0,1,0,1.434,4.076,4.073,4.073,0,0,0,5.5,8.144Zm0-2A2.07,2.07,0,0,1,3.434,4.076a1.968,1.968,0,0,1,.137-.718.249.249,0,0,1,.362-.124,5.058,5.058,0,0,0,2.608.725A4.985,4.985,0,0,0,7.278,3.9a.249.249,0,0,1,.286.247A2.028,2.028,0,0,1,5.5,6.144Z"/></svg>