<svg id="Bold" xmlns="http://www.w3.org/2000/svg" viewBox="0 0 24 24"><title>single-man-setting</title><path d="M22.529,7.282a.464.464,0,0,1,0-.626l.987-1.065a1.783,1.783,0,0,0-1.7-2.953l-1.411.327a.452.452,0,0,1-.534-.311l-.423-1.392a1.776,1.776,0,0,0-3.4,0l-.424,1.392a.453.453,0,0,1-.533.311L13.68,2.638a1.748,1.748,0,0,0-1.936.841,1.758,1.758,0,0,0,.235,2.112l.988,1.065a.464.464,0,0,1,0,.626l-.988,1.064a1.783,1.783,0,0,0,1.7,2.953l1.411-.327a.452.452,0,0,1,.533.311l.424,1.392a1.776,1.776,0,0,0,3.4,0l.423-1.392a.451.451,0,0,1,.534-.311l1.411.327a1.783,1.783,0,0,0,1.7-2.953ZM17.748,8.906a1.938,1.938,0,1,1,1.937-1.937A1.94,1.94,0,0,1,17.748,8.906Z"/><path d="M5.5,9A5.506,5.506,0,0,0,0,14.5v3a.5.5,0,0,0,.5.5H2.31a.25.25,0,0,1,.249.229L3,23.542A.5.5,0,0,0,3.5,24h4a.5.5,0,0,0,.5-.458l.443-5.313A.25.25,0,0,1,8.69,18H10.5a.5.5,0,0,0,.5-.5v-3A5.506,5.506,0,0,0,5.5,9Zm.75,5.948a.75.75,0,0,1-1.5,0V11a.75.75,0,0,1,1.5,0Z"/><path d="M5.5,8.15A4.069,4.069,0,1,0,1.435,4.082,4.073,4.073,0,0,0,5.5,8.15ZM3.571,3.363a.25.25,0,0,1,.362-.124,5.052,5.052,0,0,0,2.609.725,4.961,4.961,0,0,0,.736-.056.249.249,0,0,1,.287.248A2.028,2.028,0,0,1,5.5,6.15,2.07,2.07,0,0,1,3.435,4.082,1.994,1.994,0,0,1,3.571,3.363Z"/><path d="M22.529,7.282a.464.464,0,0,1,0-.626l.987-1.065a1.783,1.783,0,0,0-1.7-2.953l-1.411.327a.452.452,0,0,1-.534-.311l-.423-1.392a1.776,1.776,0,0,0-3.4,0l-.424,1.392a.453.453,0,0,1-.533.311L13.68,2.638a1.748,1.748,0,0,0-1.936.841,1.758,1.758,0,0,0,.235,2.112l.988,1.065a.464.464,0,0,1,0,.626l-.988,1.064a1.783,1.783,0,0,0,1.7,2.953l1.411-.327a.452.452,0,0,1,.533.311l.424,1.392a1.776,1.776,0,0,0,3.4,0l.423-1.392a.451.451,0,0,1,.534-.311l1.411.327a1.783,1.783,0,0,0,1.7-2.953ZM17.748,8.906a1.938,1.938,0,1,1,1.937-1.937A1.94,1.94,0,0,1,17.748,8.906Z"/><path d="M5.5,9A5.506,5.506,0,0,0,0,14.5v3a.5.5,0,0,0,.5.5H2.31a.25.25,0,0,1,.249.229L3,23.542A.5.5,0,0,0,3.5,24h4a.5.5,0,0,0,.5-.458l.443-5.313A.25.25,0,0,1,8.69,18H10.5a.5.5,0,0,0,.5-.5v-3A5.506,5.506,0,0,0,5.5,9Zm.75,5.948a.75.75,0,0,1-1.5,0V11a.75.75,0,0,1,1.5,0Z"/><path d="M5.5,8.15A4.069,4.069,0,1,0,1.435,4.082,4.073,4.073,0,0,0,5.5,8.15ZM3.571,3.363a.25.25,0,0,1,.362-.124,5.052,5.052,0,0,0,2.609.725,4.961,4.961,0,0,0,.736-.056.249.249,0,0,1,.287.248A2.028,2.028,0,0,1,5.5,6.15,2.07,2.07,0,0,1,3.435,4.082,1.994,1.994,0,0,1,3.571,3.363Z"/></svg>