<svg xmlns="http://www.w3.org/2000/svg" viewBox="0 0 24 24"><defs><style>.a{fill:none;stroke:currentColor;stroke-linecap:round;stroke-linejoin:round;}</style></defs><title>face-id-4</title><path class="a" d="M.5,6.5v-3a3,3,0,0,1,3-3h3"/><path class="a" d="M23.5,6.5v-3a3,3,0,0,0-3-3h-3"/><path class="a" d="M.5,17.5v3a3,3,0,0,0,3,3h3"/><path class="a" d="M23.5,17.5v3a3,3,0,0,1-3,3h-3"/><path class="a" d="M3.959,19.087a25.59,25.59,0,0,1,5.413-2.352c.837-.31.928-2.229.328-2.89-.866-.952-1.6-2.069-1.6-4.765A3.812,3.812,0,0,1,12,4.913,3.812,3.812,0,0,1,15.9,9.08c0,2.7-.734,3.813-1.6,4.765-.6.661-.509,2.58.328,2.89a25.59,25.59,0,0,1,5.413,2.352"/></svg>