<svg xmlns="http://www.w3.org/2000/svg" viewBox="0 0 24 24"><defs><style>.a{fill:none;stroke:currentColor;stroke-linecap:round;stroke-linejoin:round;stroke-width:1.5px;}</style></defs><title>zip-file-lock</title><rect class="a" x="14.25" y="15.75" width="9" height="7.5" rx="1" ry="1"/><path class="a" d="M21.75,15.75v-1.5a3,3,0,0,0-3-3h0a3,3,0,0,0-3,3v1.5"/><path class="a" d="M18.75,19.154a.375.375,0,1,1-.375.375.375.375,0,0,1,.375-.375"/><path class="a" d="M10.226,4.557A1.951,1.951,0,0,1,9.752,6.09a2.039,2.039,0,0,1-3,0,1.951,1.951,0,0,1-.474-1.533L6.75.75h3Z"/><path class="a" d="M8.25,9.375a.375.375,0,1,1-.375.375.375.375,0,0,1,.375-.375"/><path class="a" d="M8.25,13.125a.375.375,0,1,1-.375.375.375.375,0,0,1,.375-.375"/><path class="a" d="M8.25,16.875a.375.375,0,1,1-.375.375.375.375,0,0,1,.375-.375"/><path class="a" d="M11.25,20.25h-9a1.5,1.5,0,0,1-1.5-1.5V2.25A1.5,1.5,0,0,1,2.25.75H12.879a1.5,1.5,0,0,1,1.06.439l2.872,2.872a1.5,1.5,0,0,1,.439,1.06V8.25"/></svg>