<svg xmlns="http://www.w3.org/2000/svg" viewBox="0 0 24 24"><defs><style>.a{fill:none;stroke:currentColor;stroke-linecap:round;stroke-linejoin:round;stroke-width:1.5px;}</style></defs><title>zip-file-share</title><circle class="a" cx="13.5" cy="18" r="2.25"/><circle class="a" cx="21" cy="21" r="2.25"/><circle class="a" cx="21" cy="13.5" r="2.25"/><line class="a" x1="15.425" y1="16.845" x2="19.075" y2="14.655"/><line class="a" x1="15.588" y1="18.835" x2="18.912" y2="20.165"/><path class="a" d="M10.226,4.557A1.951,1.951,0,0,1,9.752,6.09a2.039,2.039,0,0,1-3,0,1.951,1.951,0,0,1-.474-1.533L6.75.75h3Z"/><path class="a" d="M8.25,9.375a.375.375,0,1,1-.375.375.375.375,0,0,1,.375-.375"/><path class="a" d="M8.25,13.125a.375.375,0,1,1-.375.375.375.375,0,0,1,.375-.375"/><path class="a" d="M8.25,16.875a.375.375,0,1,1-.375.375.375.375,0,0,1,.375-.375"/><path class="a" d="M7.5,20.25H2.25a1.5,1.5,0,0,1-1.5-1.5V2.25A1.5,1.5,0,0,1,2.25.75H12.879a1.5,1.5,0,0,1,1.06.439l2.872,2.872a1.5,1.5,0,0,1,.439,1.06V8.25"/></svg>