<svg xmlns="http://www.w3.org/2000/svg" viewBox="0 0 24 24"><defs><style>.a{fill:none;stroke:currentColor;stroke-linecap:round;stroke-linejoin:round;}</style></defs><title>kindle-hold</title><line class="a" x1="7.5" y1="19.5" x2="9.5" y2="19.5"/><path class="a" d="M14,21.505H2A1.512,1.512,0,0,1,.5,20V2A1.505,1.505,0,0,1,2,.5H15A1.5,1.5,0,0,1,16.5,2V15.5"/><path class="a" d="M15.231,17.5H3a.5.5,0,0,1-.5-.5V3A.5.5,0,0,1,3,2.5H14a.5.5,0,0,1,.5.5V13.937"/><path class="a" d="M23.5,23.5l-3-4V14.941c0-1.694-2.081-3.3-4-4.941"/><path class="a" d="M17.5,16.5l-2.25-2.25a1.061,1.061,0,0,0-1.5,0,1.248,1.248,0,0,0,0,1.5L16.5,19v1c0,1,2,3.5,2,3.5"/><line class="a" x1="5.5" y1="12.5" x2="11.5" y2="12.5"/><line class="a" x1="5.5" y1="9.5" x2="11.5" y2="9.5"/><line class="a" x1="5.5" y1="6.5" x2="9.5" y2="6.5"/></svg>