<svg xmlns="http://www.w3.org/2000/svg" viewBox="0 0 24 24"><defs><style>.a{fill:none;stroke:currentColor;stroke-linecap:round;stroke-linejoin:round;stroke-width:1.5px;}</style></defs><title>music-genre-team</title><circle class="a" cx="3.375" cy="4.875" r="2.625"/><path class="a" d="M7.514,10.983A4.5,4.5,0,0,0,.75,9.1"/><circle class="a" cx="20.625" cy="4.875" r="2.625"/><path class="a" d="M16.486,10.983A4.5,4.5,0,0,1,23.25,9.1"/><circle class="a" cx="12" cy="4.125" r="3.375"/><path class="a" d="M16.715,11.249a6.067,6.067,0,0,0-9.43,0"/><circle class="a" cx="7.125" cy="21.375" r="1.875"/><circle class="a" cx="14.625" cy="19.875" r="1.875"/><path class="a" d="M9,21.375V16.25a1.5,1.5,0,0,1,1.026-1.423l4.5-1.25A1.5,1.5,0,0,1,16.5,15v4.875"/></svg>