<svg xmlns="http://www.w3.org/2000/svg" viewBox="0 0 24 24"><title>photography-equipment-light-umbrella</title><path d="M19.925,23.828a1,1,0,0,0,.277-1.387l-1.445-2.167a3.044,3.044,0,0,0-1.7-1.164.249.249,0,0,1-.184-.241V15.618a.172.172,0,0,1,.294-.122,1,1,0,0,0,1.414,0l1.414-1.414a1,1,0,0,0,0-1.414L16.455,9.133a1.024,1.024,0,0,0-1.414,0L13.273,10.9a.5.5,0,0,0,0,.707L14.8,13.129a.251.251,0,0,1,.073.177v5.563a.25.25,0,0,1-.184.241,3.044,3.044,0,0,0-1.7,1.164l-1.445,2.167a1,1,0,1,0,1.664,1.11l1.209-1.814a.25.25,0,0,1,.458.139V23a1,1,0,0,0,2,0V21.873a.25.25,0,0,1,.458-.139l1.211,1.817A1,1,0,0,0,19.925,23.828Z"/><path d="M8.241,12.953a2.5,2.5,0,0,0-.651,2.2.75.75,0,0,1-1.27.653A9.23,9.23,0,0,1,5.135,4.191a.25.25,0,0,1,.452.082c.488,2.134,2.637,5.2,4.755,7.42a.25.25,0,0,1-.184.422A2.56,2.56,0,0,0,8.241,12.953Z"/><path d="M12.4,8.832A3.108,3.108,0,0,1,14.4,7.907a.25.25,0,0,0,.153-.432C11,4.153,7.222,2.355,6.585,2.992s1.161,4.414,4.483,7.97a.249.249,0,0,0,.432-.152,3.108,3.108,0,0,1,.925-2.005"/><path d="M16.557,4.631a2.507,2.507,0,0,1,2.2-.652.75.75,0,0,0,.653-1.27A9.231,9.231,0,0,0,7.8,1.525a.25.25,0,0,0,.082.452c2.134.487,5.2,2.637,7.42,4.754a.249.249,0,0,0,.422-.183A2.562,2.562,0,0,1,16.557,4.631Z"/></svg>