<svg xmlns="http://www.w3.org/2000/svg" viewBox="0 0 24 24"><title>programming-flag</title><path d="M1.5,24A1.5,1.5,0,0,0,3,22.5v-3.83a.25.25,0,0,1,.165-.235L4.371,18a8.766,8.766,0,0,1,7.381.971A10.33,10.33,0,0,0,20,20.1l2.8-.873A1.655,1.655,0,0,0,24,17.644V4.485A1.652,1.652,0,0,0,21.9,2.9l-2.172.692a9.36,9.36,0,0,1-7.45-1.025A9.779,9.779,0,0,0,4.052,1.5l-.717.261A.25.25,0,0,1,3,1.525V1.5a1.5,1.5,0,0,0-3,0v21A1.5,1.5,0,0,0,1.5,24ZM15.22,8.031a.75.75,0,1,1,1.06-1.06l3,3a.749.749,0,0,1,0,1.06l-3,3a.75.75,0,1,1-1.06-1.06l2.293-2.293a.252.252,0,0,0,0-.354Zm-4.207,6.182a.751.751,0,0,1-.475-.949l2-6a.75.75,0,1,1,1.424.474l-2,6a.751.751,0,0,1-.712.513A.787.787,0,0,1,11.013,14.213ZM5.22,11.031a.749.749,0,0,1,0-1.06l3-3a.75.75,0,0,1,1.06,1.06L6.987,10.324a.252.252,0,0,0,0,.354L9.28,12.971a.75.75,0,1,1-1.06,1.06Z"/></svg>