<?xml version="1.0" encoding="utf-8"?>
<!-- Generator: Adobe Illustrator 22.1.0, SVG Export Plug-In . SVG Version: 6.00 Build 0)  -->
<svg version="1.1" id="Layer_1" xmlns="http://www.w3.org/2000/svg" xmlns:xlink="http://www.w3.org/1999/xlink" x="0px" y="0px"
	 viewBox="0 0 24 24" style="enable-background:new 0 0 24 24;" xml:space="preserve">
<title>rss-feed</title>
<g>
	<path d="M4.503,24c-2.481,0-4.5-2.019-4.5-4.5s2.019-4.5,4.5-4.5s4.5,2.019,4.5,4.5S6.984,24,4.503,24z M4.503,16.5
		c-1.654,0-3,1.346-3,3s1.346,3,3,3s3-1.346,3-3S6.157,16.5,4.503,16.5z"/>
	<path d="M15.153,23.996c-0.083,0-0.166-0.014-0.245-0.041c-0.189-0.065-0.342-0.2-0.43-0.381c-0.088-0.18-0.1-0.384-0.035-0.573
		c0.765-2.222,0.765-4.669,0-6.891c-0.921-2.671-2.826-4.824-5.366-6.063C7.614,9.335,6.057,8.973,4.451,8.973
		c-1.17,0-2.332,0.196-3.454,0.583C0.918,9.583,0.836,9.597,0.752,9.597c-0.32,0-0.605-0.203-0.709-0.506
		c-0.065-0.189-0.053-0.393,0.035-0.573s0.24-0.315,0.43-0.38c1.28-0.441,2.607-0.665,3.944-0.665c1.835,0,3.612,0.413,5.283,1.228
		c2.9,1.414,5.076,3.872,6.126,6.923c0.874,2.537,0.874,5.331,0,7.868C15.758,23.793,15.473,23.996,15.153,23.996z"/>
	<path d="M22.892,23.988c-0.049,0-0.098-0.005-0.147-0.014c-0.408-0.083-0.671-0.479-0.589-0.884
		c0.48-2.375,0.479-4.783-0.002-7.158C20.455,7.563,13.028,1.488,4.493,1.488c-1.199,0-2.407,0.122-3.591,0.362
		c-0.051,0.01-0.1,0.015-0.149,0.015c-0.355,0-0.665-0.253-0.735-0.601C-0.065,0.859,0.198,0.463,0.603,0.38
		c1.282-0.26,2.591-0.392,3.889-0.392c9.246,0,17.292,6.58,19.132,15.646c0.522,2.572,0.523,5.18,0.003,7.753
		C23.556,23.735,23.247,23.988,22.892,23.988z"/>
</g>
</svg>
