<?xml version="1.0" encoding="utf-8"?>
<!-- Generator: Adobe Illustrator 22.1.0, SVG Export Plug-In . SVG Version: 6.00 Build 0)  -->
<svg version="1.1" id="Layer_1" xmlns="http://www.w3.org/2000/svg" xmlns:xlink="http://www.w3.org/1999/xlink" x="0px" y="0px"
	 viewBox="0 0 24 24" style="enable-background:new 0 0 24 24;" xml:space="preserve">
<title>wifi-signal</title>
<g>
	<path d="M12.008,24.005c-0.414,0-0.75-0.336-0.75-0.75v-11.25c0-0.414,0.336-0.75,0.75-0.75s0.75,0.336,0.75,0.75v11.25
		C12.758,23.669,12.421,24.005,12.008,24.005z"/>
	<path d="M20.433,20.208c-0.183,0-0.359-0.067-0.497-0.188c-0.15-0.133-0.24-0.316-0.252-0.516c-0.012-0.2,0.054-0.393,0.187-0.543
		c1.858-2.1,2.787-4.799,2.616-7.598c-0.171-2.8-1.422-5.365-3.523-7.223c-1.917-1.697-4.386-2.631-6.951-2.631
		c-3.013,0-5.881,1.29-7.87,3.538c-3.509,3.966-3.509,9.948,0,13.914c0.274,0.31,0.245,0.785-0.065,1.059
		c-0.137,0.122-0.314,0.188-0.497,0.188c-0.215,0-0.419-0.092-0.562-0.253c-4.01-4.533-4.01-11.369,0-15.902
		c2.274-2.57,5.552-4.043,8.995-4.043c2.931,0,5.752,1.068,7.944,3.007c2.401,2.124,3.831,5.055,4.026,8.255
		c0.196,3.2-0.866,6.284-2.99,8.684C20.853,20.116,20.648,20.208,20.433,20.208z"/>
	<path d="M15.227,14.677c-0.135,0-0.268-0.037-0.384-0.106c-0.172-0.103-0.294-0.266-0.343-0.46s-0.02-0.396,0.083-0.568
		c0.411-0.688,0.529-1.495,0.333-2.272c-0.196-0.777-0.683-1.431-1.371-1.842c-0.464-0.277-0.994-0.423-1.532-0.423
		c-1.054,0-2.043,0.56-2.581,1.462c-0.566,0.948-0.566,2.127,0,3.075c0.212,0.355,0.095,0.816-0.259,1.028
		c-0.117,0.069-0.25,0.106-0.384,0.106c-0.263,0-0.51-0.14-0.644-0.366c-0.849-1.422-0.849-3.19,0-4.612
		c0.616-1.032,1.597-1.762,2.763-2.057c0.364-0.092,0.737-0.138,1.108-0.138c0.805,0,1.6,0.22,2.299,0.637
		c1.032,0.616,1.763,1.597,2.057,2.763c0.294,1.165,0.117,2.375-0.499,3.408C15.737,14.537,15.49,14.677,15.227,14.677z"/>
	<path d="M17.847,16.608c-0.171,0-0.338-0.059-0.47-0.166c-0.322-0.259-0.373-0.732-0.114-1.054
		c1.132-1.404,1.648-3.165,1.456-4.957c-0.193-1.793-1.072-3.403-2.476-4.534c-1.214-0.978-2.673-1.495-4.219-1.495
		c-0.245,0-0.493,0.013-0.737,0.04C9.493,4.634,7.883,5.513,6.751,6.917c-1.977,2.454-1.977,6.016,0,8.47
		c0.126,0.156,0.183,0.352,0.162,0.551s-0.119,0.378-0.275,0.504c-0.132,0.107-0.299,0.166-0.47,0.166
		c-0.228,0-0.441-0.102-0.584-0.279c-2.417-3-2.417-7.353,0-10.353C6.966,4.26,8.934,3.185,11.125,2.95
		c0.298-0.032,0.6-0.048,0.898-0.048c1.892,0,3.677,0.632,5.16,1.827c1.716,1.383,2.791,3.351,3.026,5.542
		c0.236,2.191-0.396,4.343-1.779,6.059C18.288,16.506,18.075,16.608,17.847,16.608z"/>
</g>
</svg>
