<?xml version="1.0" encoding="utf-8"?>
<!-- Generator: Adobe Illustrator 22.1.0, SVG Export Plug-In . SVG Version: 6.00 Build 0)  -->
<svg version="1.1" id="Layer_1" xmlns="http://www.w3.org/2000/svg" xmlns:xlink="http://www.w3.org/1999/xlink" x="0px" y="0px"
	 viewBox="0 0 24 24" style="enable-background:new 0 0 24 24;" xml:space="preserve">
<g>
	<title>vinyl-record</title>
	<path d="M12,24C5.383,24,0,18.617,0,12C0,5.383,5.383,0,12,0c6.617,0,12,5.383,12,12C24,18.617,18.617,24,12,24z M12,1
		C5.935,1,1,5.935,1,12s4.935,11,11,11s11-4.935,11-11S18.065,1,12,1z"/>
	<path d="M12,15c-1.654,0-3-1.346-3-3c0-1.654,1.346-3,3-3c1.654,0,3,1.346,3,3C15,13.654,13.654,15,12,15z M12,10
		c-1.103,0-2,0.897-2,2s0.897,2,2,2s2-0.897,2-2S13.103,10,12,10z"/>
	<path d="M20.877,11.08c-0.247,0-0.455-0.177-0.493-0.421C19.82,7.14,17.09,4.325,13.59,3.654c-0.271-0.052-0.449-0.314-0.397-0.585
		c0.045-0.235,0.251-0.406,0.491-0.406c0.031,0,0.062,0.003,0.094,0.009c3.912,0.75,6.963,3.896,7.593,7.829
		c0.021,0.132-0.01,0.264-0.089,0.372s-0.194,0.18-0.326,0.201C20.93,11.078,20.903,11.08,20.877,11.08z"/>
	<path d="M18.9,11.4c-0.247,0-0.455-0.177-0.493-0.422c-0.429-2.691-2.515-4.845-5.191-5.361c-0.27-0.052-0.448-0.315-0.396-0.585
		c0.046-0.236,0.252-0.406,0.491-0.406c0.031,0,0.063,0.003,0.095,0.009c3.088,0.594,5.495,3.08,5.989,6.186
		c0.021,0.132-0.01,0.264-0.089,0.372c-0.078,0.108-0.194,0.179-0.326,0.2C18.951,11.398,18.925,11.4,18.9,11.4z"/>
	<path d="M16.932,11.711c-0.247,0-0.454-0.177-0.493-0.421c-0.299-1.864-1.745-3.354-3.6-3.708
		c-0.271-0.052-0.449-0.314-0.397-0.585c0.045-0.235,0.252-0.406,0.491-0.406c0.031,0,0.062,0.003,0.093,0.009
		c2.268,0.433,4.036,2.254,4.401,4.532c0.021,0.132-0.01,0.264-0.089,0.372c-0.078,0.108-0.194,0.179-0.326,0.2
		C16.985,11.709,16.958,11.711,16.932,11.711z"/>
	<path d="M10.316,21.337c-0.031,0-0.062-0.003-0.093-0.009c-3.914-0.75-6.965-3.896-7.594-7.829
		c-0.021-0.132,0.01-0.264,0.089-0.372c0.078-0.108,0.194-0.179,0.326-0.2c0.026-0.004,0.053-0.007,0.08-0.007
		c0.242,0,0.454,0.181,0.493,0.421c0.563,3.52,3.293,6.334,6.793,7.005c0.271,0.052,0.449,0.315,0.397,0.585
		C10.762,21.166,10.556,21.337,10.316,21.337z"/>
	<path d="M10.694,19.369c-0.031,0-0.061-0.003-0.092-0.009c-3.09-0.592-5.499-3.076-5.995-6.181
		c-0.021-0.132,0.01-0.264,0.089-0.372c0.078-0.108,0.194-0.179,0.326-0.2C5.047,12.602,5.075,12.6,5.102,12.6
		c0.246,0,0.453,0.177,0.492,0.421c0.431,2.691,2.518,4.844,5.195,5.357c0.271,0.052,0.449,0.315,0.397,0.585
		C11.14,19.198,10.933,19.369,10.694,19.369z"/>
	<path d="M11.068,17.41c-0.03,0-0.061-0.003-0.093-0.009c-2.268-0.433-4.037-2.254-4.401-4.533c-0.021-0.132,0.01-0.264,0.089-0.372
		c0.078-0.108,0.194-0.179,0.326-0.2c0.026-0.004,0.053-0.007,0.08-0.007c0.247,0,0.454,0.177,0.493,0.421
		c0.298,1.864,1.745,3.355,3.6,3.708c0.271,0.052,0.449,0.314,0.397,0.585C11.514,17.239,11.308,17.41,11.068,17.41z"/>
	<circle cx="12" cy="12.002" r="0.75"/>
</g>
</svg>
