<?xml version="1.0" encoding="utf-8"?>
<!-- Generator: Adobe Illustrator 22.1.0, SVG Export Plug-In . SVG Version: 6.00 Build 0)  -->
<svg version="1.1" id="Layer_1" xmlns="http://www.w3.org/2000/svg" xmlns:xlink="http://www.w3.org/1999/xlink" x="0px" y="0px"
	 viewBox="0 0 24 24" style="enable-background:new 0 0 24 24;" xml:space="preserve">
<g>
	<title>composition-vertical</title>
	<path d="M5.2,24c-0.552,0-1-0.448-1.001-0.999c0-0.106,0.016-0.21,0.049-0.31c2.273-6.895,2.273-14.489,0-21.382
		c-0.083-0.258-0.06-0.53,0.062-0.767c0.123-0.237,0.33-0.413,0.585-0.494C4.995,0.016,5.097,0,5.2,0h13.6
		c0.551,0,1,0.448,1.001,0.998c0,0.107-0.017,0.213-0.051,0.315c-2.374,6.892-2.374,14.477-0.002,21.364
		c0.086,0.254,0.068,0.526-0.051,0.766c-0.118,0.24-0.323,0.419-0.576,0.504C19.018,23.982,18.91,24,18.801,24H5.2z M5.201,1
		c2.338,7.092,2.338,14.907-0.002,22.003L18.801,23c-2.443-7.094-2.443-14.909,0.001-22.005L5.201,1z"/>
</g>
</svg>
