<?xml version="1.0" encoding="utf-8"?>
<!-- Generator: Adobe Illustrator 22.1.0, SVG Export Plug-In . SVG Version: 6.00 Build 0)  -->
<svg version="1.1" id="Layer_1" xmlns="http://www.w3.org/2000/svg" xmlns:xlink="http://www.w3.org/1999/xlink" x="0px" y="0px"
	 viewBox="0 0 24 24" style="enable-background:new 0 0 24 24;" xml:space="preserve">
<g>
	<title>composition-human</title>
	<path d="M0.5,24c-0.135,0-0.266-0.055-0.359-0.152C0.047,23.75-0.004,23.618,0,23.483c0.051-1.485,0.404-2.918,1.049-4.257
		c0.738-1.475,3.242-2.396,6.709-3.67l0.915-0.337C8.801,15.171,8.923,14.954,9,14.639c0.207-0.851,0.012-1.927-0.13-2.083
		c-1.037-1.14-2.05-2.547-2.05-6.055C6.82,2.701,9.422,1,12,1s5.18,1.701,5.18,5.5c0,3.507-1.013,4.914-2.05,6.055
		c-0.119,0.145-0.342,1.217-0.129,2.088c0.077,0.313,0.198,0.528,0.325,0.575l0.903,0.333c3.473,1.276,5.983,2.198,6.719,3.669
		c0.648,1.344,1.002,2.778,1.052,4.263c0.005,0.134-0.046,0.267-0.14,0.365C23.765,23.945,23.634,24,23.5,24H0.5z M22.969,23
		c-0.101-1.161-0.41-2.283-0.919-3.34c-0.555-1.11-3.155-2.065-6.165-3.171l-0.905-0.333c-0.32-0.118-0.745-0.435-0.95-1.276
		c-0.232-0.948-0.125-2.464,0.361-2.998c0.906-0.996,1.79-2.232,1.79-5.383C16.18,4.26,14.887,2,12,2C9.112,2,7.82,4.26,7.82,6.5
		c0,3.152,0.884,4.387,1.79,5.383c0.484,0.532,0.592,2.046,0.362,2.992c-0.205,0.843-0.63,1.162-0.951,1.281l-0.917,0.338
		c-3.005,1.104-5.599,2.059-6.156,3.173C1.44,20.718,1.132,21.839,1.031,23H22.969z"/>
	<path d="M23.5,4C23.224,4,23,3.776,23,3.5v-2C23,1.224,22.776,1,22.5,1h-2C20.224,1,20,0.776,20,0.5S20.224,0,20.5,0h2
		C23.327,0,24,0.673,24,1.5v2C24,3.776,23.776,4,23.5,4z"/>
	<path d="M20.5,15c-0.276,0-0.5-0.224-0.5-0.5s0.224-0.5,0.5-0.5h2c0.276,0,0.5-0.224,0.5-0.5v-2c0-0.276,0.224-0.5,0.5-0.5
		s0.5,0.224,0.5,0.5v2c0,0.827-0.673,1.5-1.5,1.5H20.5z"/>
	<path d="M0.5,4C0.224,4,0,3.776,0,3.5v-2C0,0.673,0.673,0,1.5,0h2C3.776,0,4,0.224,4,0.5S3.776,1,3.5,1h-2C1.224,1,1,1.224,1,1.5v2
		C1,3.776,0.776,4,0.5,4z"/>
	<path d="M1.5,15C0.673,15,0,14.327,0,13.5v-2C0,11.224,0.224,11,0.5,11S1,11.224,1,11.5v2C1,13.776,1.224,14,1.5,14h2
		C3.776,14,4,14.224,4,14.5S1.5,15,1.5,15z"/>
</g>
</svg>
