<?xml version="1.0" encoding="utf-8"?>
<!-- Generator: Adobe Illustrator 22.1.0, SVG Export Plug-In . SVG Version: 6.00 Build 0)  -->
<svg version="1.1" id="Layer_1" xmlns="http://www.w3.org/2000/svg" xmlns:xlink="http://www.w3.org/1999/xlink" x="0px" y="0px"
	 viewBox="0 0 24 24" style="enable-background:new 0 0 24 24;" xml:space="preserve">
<g>
	<title>composition-16-to-9</title>
	<path d="M4.5,19.5C2.019,19.5,0,17.481,0,15V9c0-2.481,2.019-4.5,4.5-4.5h15C21.981,4.5,24,6.519,24,9v6c0,2.481-2.019,4.5-4.5,4.5
		H4.5z M4.5,5.5C2.57,5.5,1,7.07,1,9v6c0,1.93,1.57,3.5,3.5,3.5h15c1.93,0,3.5-1.57,3.5-3.5V9c0-1.93-1.57-3.5-3.5-3.5H4.5z"/>
	<path d="M4.5,15.5C4.224,15.5,4,15.276,4,15s0.224-0.5,0.5-0.5H5v-4l-1.2,0.9c-0.087,0.066-0.191,0.1-0.3,0.1
		c-0.156,0-0.306-0.075-0.4-0.2c-0.08-0.107-0.114-0.239-0.095-0.371C3.024,10.797,3.093,10.68,3.2,10.6l1.2-0.9
		C4.572,9.571,4.785,9.5,5,9.5c0.551,0,1,0.449,1,1v4h0.5C6.776,14.5,7,14.724,7,15s-0.224,0.5-0.5,0.5H4.5z"/>
	<path d="M10,15.5c-1.103,0-2-0.897-2-2V12c0-1.379,1.121-2.5,2.5-2.5c0.276,0,0.5,0.224,0.5,0.5s-0.224,0.5-0.5,0.5
		c-0.744,0-1.364,0.545-1.48,1.257C9.316,11.589,9.651,11.5,10,11.5c1.103,0,2,0.897,2,2S11.103,15.5,10,15.5z M10,12.5
		c-0.551,0-1,0.448-1,1s0.449,1,1,1s1-0.448,1-1S10.551,12.5,10,12.5z"/>
	<path d="M18.5,15.5c-0.276,0-0.5-0.224-0.5-0.5s0.224-0.5,0.5-0.5c0.744,0,1.364-0.545,1.48-1.257
		C19.684,13.411,19.349,13.5,19,13.5c-1.103,0-2-0.897-2-2s0.897-2,2-2s2,0.897,2,2V13C21,14.378,19.878,15.5,18.5,15.5z M19,10.5
		c-0.552,0-1,0.449-1,1s0.448,1,1,1s1-0.449,1-1S19.552,10.5,19,10.5z"/>
	<circle cx="14.5" cy="10.5" r="0.75"/>
	<circle cx="14.5" cy="14.5" r="0.75"/>
</g>
</svg>
