<?xml version="1.0" encoding="utf-8"?>
<!-- Generator: Adobe Illustrator 22.1.0, SVG Export Plug-In . SVG Version: 6.00 Build 0)  -->
<svg version="1.1" id="Layer_1" xmlns="http://www.w3.org/2000/svg" xmlns:xlink="http://www.w3.org/1999/xlink" x="0px" y="0px"
	 viewBox="0 0 24 24" style="enable-background:new 0 0 24 24;" xml:space="preserve">
<g>
	<title>composition-frame-man</title>
	<path d="M1,23.5c-0.276,0-0.5-0.224-0.5-0.5s0.224-0.5,0.5-0.5h22c0.276,0,0.5,0.224,0.5,0.5s-0.224,0.5-0.5,0.5H1z"/>
	<path d="M1,1.5C0.724,1.5,0.5,1.276,0.5,1S0.724,0.5,1,0.5h22c0.276,0,0.5,0.224,0.5,0.5S23.276,1.5,23,1.5H1z"/>
	<path d="M2,20.5c-0.827,0-1.5-0.673-1.5-1.5V5c0-0.827,0.673-1.5,1.5-1.5h20c0.827,0,1.5,0.673,1.5,1.5v14
		c0,0.827-0.673,1.5-1.5,1.5H2z M22,19.5c0.276,0,0.5-0.224,0.5-0.5V5c0-0.276-0.224-0.5-0.5-0.5H2C1.724,4.5,1.5,4.724,1.5,5v14
		c0,0.276,0.224,0.5,0.5,0.5h2.228c0.266-0.479,0.681-0.858,1.182-1.076L9.5,16.67v-1.402c-0.359-0.296-0.856-0.957-0.934-2.376
		c-0.514-0.245-0.746-0.854-0.746-1.392c0-0.542,0.214-1.015,0.561-1.277C8.072,9.63,7.706,8.861,8.117,8.318
		c0.188-0.248,0.486-0.374,0.886-0.374c0.049,0,0.1,0.002,0.153,0.006C9.723,6.884,11.226,6.5,12.388,6.5
		c1.461,0,3.077,0.582,3.396,1.881c0.121,0.646,0.042,1.305-0.22,1.888c0.266,0.245,0.415,0.639,0.415,1.118
		c0,0.54-0.193,1.17-0.621,1.459c-0.063,1.454-0.525,2.12-0.859,2.414v1.41l4.088,1.752c0.503,0.219,0.918,0.598,1.184,1.077H22z
		 M18.47,19.5c-0.087-0.063-0.18-0.116-0.279-0.159l-4.388-1.881C13.619,17.381,13.5,17.2,13.5,17v-2
		c0-0.198,0.114-0.374,0.293-0.455c0.049-0.034,0.573-0.432,0.573-2.045c0-0.258,0.196-0.471,0.448-0.497
		c0.058-0.069,0.166-0.302,0.166-0.616c0-0.187-0.048-0.386-0.12-0.386c-0.188,0-0.358-0.104-0.444-0.27
		c-0.086-0.168-0.072-0.366,0.036-0.519c0.331-0.467,0.46-1.057,0.356-1.62C14.632,7.88,13.457,7.5,12.388,7.5
		c-1.069,0-2.245,0.384-2.426,1.119C9.907,8.843,9.707,9,9.476,9c-0.034,0-0.067-0.003-0.1-0.01
		C9.227,8.959,9.101,8.943,9.001,8.943c-0.028,0-0.05,0.001-0.068,0.003c0.015,0.11,0.094,0.355,0.381,0.904
		c0.156,0.299,0.242,0.463,0.242,0.65c0,0.276-0.224,0.5-0.5,0.5c-0.177,0-0.236,0.343-0.236,0.5S8.879,12,9.055,12
		c0.276,0,0.5,0.224,0.5,0.5c0,1.694,0.637,2.038,0.644,2.042C10.375,14.616,10.5,14.802,10.5,15v2c0,0.2-0.119,0.381-0.303,0.46
		l-4.391,1.882c-0.098,0.043-0.191,0.096-0.277,0.158H18.47z"/>
</g>
</svg>
