<?xml version="1.0" encoding="utf-8"?>
<!-- Generator: Adobe Illustrator 22.1.0, SVG Export Plug-In . SVG Version: 6.00 Build 0)  -->
<svg version="1.1" id="Layer_1" xmlns="http://www.w3.org/2000/svg" xmlns:xlink="http://www.w3.org/1999/xlink" x="0px" y="0px"
	 viewBox="0 0 24 24" style="enable-background:new 0 0 24 24;" xml:space="preserve">
<g>
	<title>composition-hand-frame</title>
	<path d="M4.636,13.001c-0.899,0-1.679-0.609-1.897-1.481L2.3,9.763C2.062,9.916,1.785,10,1.5,10h-1C0.224,10,0,9.776,0,9.5
		S0.224,9,0.5,9h1C1.776,9,2,8.776,2,8.5v-7C2,1.224,1.776,1,1.5,1h-1C0.224,1,0,0.776,0,0.5S0.224,0,0.5,0h1
		c0.64,0,1.205,0.41,1.414,1H7.5C8.879,1,10,2.121,10,3.5V5h5c1.103,0,2,0.897,2,2s-0.897,2-2,2H6.14l0.393,1.571
		c0.126,0.506,0.048,1.032-0.221,1.48c-0.269,0.448-0.696,0.765-1.202,0.891C4.955,12.981,4.796,13.001,4.636,13.001z M3.709,11.277
		c0.107,0.426,0.488,0.724,0.927,0.724c0.078,0,0.156-0.01,0.232-0.029c0.511-0.128,0.823-0.648,0.695-1.159L5.015,8.621
		C4.977,8.471,5.01,8.315,5.106,8.192C5.201,8.07,5.345,8,5.5,8H15c0.552,0,1-0.449,1-1s-0.448-1-1-1H9.5C9.224,6,9,5.776,9,5.5v-2
		C9,2.673,8.327,2,7.5,2H3v6.438L3.709,11.277z"/>
	<path d="M22.5,24c-0.64,0-1.205-0.41-1.414-1H16.5c-1.378,0-2.5-1.122-2.5-2.5V19H9c-1.103,0-2-0.897-2-2s0.897-2,2-2h8.86
		l-0.393-1.571c-0.261-1.046,0.377-2.11,1.423-2.371c0.156-0.039,0.317-0.059,0.477-0.059c0.352,0,0.698,0.097,1.003,0.279
		c0.448,0.269,0.764,0.696,0.891,1.203l0.438,1.756C21.938,14.083,22.214,14,22.5,14h1c0.276,0,0.5,0.224,0.5,0.5S23.776,15,23.5,15
		h-1c-0.276,0-0.5,0.224-0.5,0.5v7c0,0.276,0.224,0.5,0.5,0.5h1c0.276,0,0.5,0.224,0.5,0.5S23.776,24,23.5,24H22.5z M9,16
		c-0.551,0-1,0.448-1,1s0.449,1,1,1h5.5c0.276,0,0.5,0.224,0.5,0.5v2c0,0.827,0.673,1.5,1.5,1.5H21v-6.437l-0.709-2.84
		c-0.062-0.247-0.217-0.456-0.436-0.588c-0.149-0.089-0.318-0.136-0.49-0.136c-0.078,0-0.157,0.01-0.234,0.029
		c-0.511,0.128-0.823,0.648-0.695,1.159l0.548,2.192c0.038,0.15,0.005,0.307-0.091,0.429C18.799,15.93,18.655,16,18.5,16H9z"/>
	<path d="M3.5,19C2.673,19,2,18.327,2,17.5V16c0-0.276,0.224-0.5,0.5-0.5S3,15.724,3,16v1.5C3,17.776,3.224,18,3.5,18H5
		c0.276,0,0.5,0.224,0.5,0.5S5.276,19,5,19H3.5z"/>
	<path d="M21,8.5c-0.276,0-0.5-0.224-0.5-0.5V6.5C20.5,6.224,20.276,6,20,6h-1.5C18.224,6,18,5.776,18,5.5S18.224,5,18.5,5H20
		c0.827,0,1.5,0.673,1.5,1.5V8C21.5,8.276,21.276,8.5,21,8.5z"/>
</g>
</svg>
