<svg xmlns="http://www.w3.org/2000/svg" viewBox="0 0 24 24"><defs><style>.a{fill:none;stroke:currentColor;stroke-linecap:round;stroke-linejoin:round;}</style></defs><title>video-player-smartphone-horizontal</title><path class="a" d="M9.307,15.852a.54.54,0,0,1-.807-.468V8.616a.54.54,0,0,1,.807-.468l5.921,3.384a.539.539,0,0,1,0,.936Z"/><line class="a" x1="2.5" y1="14.502" x2="2.5" y2="9.502"/><rect class="a" x="0.5" y="3.5" width="23" height="17" rx="2" ry="2"/><line class="a" x1="19.5" y1="3.502" x2="19.5" y2="20.498"/><path class="a" d="M21.25,11.75a.25.25,0,0,1,.25.25h0a.25.25,0,0,1-.25.25h0A.25.25,0,0,1,21,12h0a.25.25,0,0,1,.25-.25h0"/></svg>