<svg xmlns="http://www.w3.org/2000/svg" viewBox="0 0 24 24"><defs><style>.a{fill:none;stroke:currentColor;stroke-linecap:round;stroke-linejoin:round;stroke-width:1.5px;}</style></defs><title>drawer-play</title><path class="a" d="M17.168,15.75a5.951,5.951,0,0,1-10.336,0H3a1.5,1.5,0,0,0-1.5,1.5v4.5A1.5,1.5,0,0,0,3,23.25H21a1.5,1.5,0,0,0,1.5-1.5v-4.5a1.5,1.5,0,0,0-1.5-1.5Z"/><path class="a" d="M19.5,12.75V2.25A1.5,1.5,0,0,0,18,.75H6a1.5,1.5,0,0,0-1.5,1.5v10.5"/><path class="a" d="M10.239,11.91A.857.857,0,0,1,9,11.144V5.356a.857.857,0,0,1,1.239-.766l5.788,2.9a.855.855,0,0,1,0,1.53Z"/></svg>