<svg xmlns="http://www.w3.org/2000/svg" viewBox="0 0 24 24"><defs><style>.a{fill:none;stroke:currentColor;stroke-linecap:round;stroke-linejoin:round;stroke-width:1.5px;}</style></defs><title>light-mode-sunny-woman</title><line class="a" x1="18.008" y1="0.814" x2="18.008" y2="1.678"/><line class="a" x1="21.731" y1="2.333" x2="21.12" y2="2.944"/><line class="a" x1="23.25" y1="6.056" x2="22.386" y2="6.056"/><line class="a" x1="21.731" y1="9.667" x2="21.12" y2="9.056"/><line class="a" x1="18.008" y1="11.186" x2="18.008" y2="10.322"/><line class="a" x1="14.397" y1="9.667" x2="15.008" y2="9.056"/><line class="a" x1="12.878" y1="6.056" x2="13.742" y2="6.056"/><line class="a" x1="14.397" y1="2.333" x2="15.008" y2="2.944"/><circle class="a" cx="18" cy="6.064" r="2.25"/><path class="a" d="M12.75,23.186a6.018,6.018,0,0,0-6-6h0a6.018,6.018,0,0,0-6,6"/><path class="a" d="M2.829,11.739v.921a5.465,5.465,0,0,1-.8,3.026"/><path class="a" d="M10.455,11.739v.921a5.465,5.465,0,0,0,.8,3.026"/><path class="a" d="M2.839,11.941a5.075,5.075,0,0,0,3.8-1.756,5.074,5.074,0,0,0,3.8,1.756"/><circle class="a" cx="6.642" cy="11.636" r="3.815"/></svg>