<svg xmlns="http://www.w3.org/2000/svg" viewBox="0 0 24 24"><defs><style>.a{fill:none;stroke:currentColor;stroke-linecap:round;stroke-linejoin:round;stroke-width:1.5px;}</style></defs><title>light-mode-brightness</title><path class="a" d="M20.25,15.372l2.357-2.357a1.5,1.5,0,0,0,0-2.121L20.25,8.537V5.2a1.5,1.5,0,0,0-1.5-1.5H15.417L13.061,1.347a1.5,1.5,0,0,0-2.122,0L8.583,3.7H5.25a1.5,1.5,0,0,0-1.5,1.5V8.537L1.393,10.894a1.5,1.5,0,0,0,0,2.121L3.75,15.372V18.7a1.5,1.5,0,0,0,1.5,1.5H8.583l2.356,2.357a1.5,1.5,0,0,0,2.122,0L15.417,20.2H18.75a1.5,1.5,0,0,0,1.5-1.5Z"/><circle class="a" cx="12" cy="11.954" r="5.25"/></svg>