<svg xmlns="http://www.w3.org/2000/svg" viewBox="0 0 24 24"><title>transfer-pictures-laptop</title><path d="M21.5,16V12.5a1,1,0,0,0-1-1h0a1,1,0,0,0-1,1V16a1,1,0,0,0,2,0Z"/><path d="M3.5,17a1,1,0,0,0,1-1V8a1,1,0,0,1,1-1h3a1,1,0,0,0,1-1h0a1,1,0,0,0-1-1h-3a3,3,0,0,0-3,3v8A1,1,0,0,0,3.5,17Z"/><path d="M23.5,18.5H16a.5.5,0,0,0-.5.5c0,.708-1.5,1.5-3.5,1.5S8.5,19.708,8.5,19a.5.5,0,0,0-.5-.5H.5a.5.5,0,0,0-.474.658A7.075,7.075,0,0,0,6.74,24H17.26a7.075,7.075,0,0,0,6.714-4.842A.5.5,0,0,0,23.5,18.5Z"/><path d="M22.5,2h-.536a.251.251,0,0,1-.224-.138L20.947.276A.5.5,0,0,0,20.5,0H16a.5.5,0,0,0-.447.276L14.76,1.862A.251.251,0,0,1,14.536,2H12.5A1.5,1.5,0,0,0,11,3.5v5A1.5,1.5,0,0,0,12.5,10h10A1.5,1.5,0,0,0,24,8.5v-5A1.5,1.5,0,0,0,22.5,2ZM18,7.5a2,2,0,1,1,2-2A2,2,0,0,1,18,7.5Z"/></svg>