<?xml version="1.0" encoding="utf-8"?>
<!-- Generator: Adobe Illustrator 22.1.0, SVG Export Plug-In . SVG Version: 6.00 Build 0)  -->
<svg version="1.1" id="Layer_1" xmlns="http://www.w3.org/2000/svg" xmlns:xlink="http://www.w3.org/1999/xlink" x="0px" y="0px"
	 viewBox="0 0 24 24" style="enable-background:new 0 0 24 24;" xml:space="preserve">
<title>cable-split</title>
<g>
	<path d="M11.31,15.44c-2.068,0-3.75-1.682-3.75-3.75s1.682-3.75,3.75-3.75s3.75,1.682,3.75,3.75S13.378,15.44,11.31,15.44z
		 M11.31,9.44c-1.241,0-2.25,1.009-2.25,2.25s1.009,2.25,2.25,2.25s2.25-1.009,2.25-2.25S12.55,9.44,11.31,9.44z"/>
	<path d="M17.685,8.937c-0.401,0-0.778-0.156-1.061-0.44l-2.121-2.121c-0.283-0.283-0.439-0.66-0.439-1.061
		c0-0.401,0.156-0.778,0.44-1.061l3.814-3.814c0.283-0.283,0.66-0.439,1.061-0.439s0.778,0.156,1.061,0.439l2.121,2.121
		c0.585,0.585,0.585,1.536,0,2.121l-3.814,3.814C18.462,8.781,18.086,8.937,17.685,8.937z M15.564,5.315l2.121,2.121l3.814-3.814
		l-2.121-2.121L15.564,5.315z"/>
	<path d="M8.999,20.251c-0.414,0-0.75-0.336-0.75-0.75s0.336-0.75,0.75-0.75h4.5c0.414,0,0.75,0.336,0.75,0.75
		s-0.336,0.75-0.75,0.75H8.999z"/>
	<path d="M8.999,24.001c-0.414,0-0.75-0.336-0.75-0.75s0.336-0.75,0.75-0.75h4.5c0.414,0,0.75,0.336,0.75,0.75
		s-0.336,0.75-0.75,0.75H8.999z"/>
	<path d="M4.415,8.728c-0.2,0-0.389-0.078-0.53-0.22c-0.142-0.141-0.22-0.33-0.22-0.53s0.078-0.389,0.22-0.53l3.182-3.182
		c0.142-0.142,0.33-0.22,0.53-0.22s0.389,0.078,0.53,0.22c0.142,0.141,0.22,0.33,0.22,0.53s-0.078,0.389-0.22,0.53L4.945,8.508
		C4.803,8.65,4.615,8.728,4.415,8.728z"/>
	<path d="M1.764,6.076c-0.2,0-0.389-0.078-0.53-0.22c-0.142-0.141-0.22-0.33-0.22-0.53s0.078-0.389,0.22-0.53l3.182-3.182
		c0.142-0.142,0.33-0.22,0.53-0.22s0.389,0.078,0.53,0.22c0.142,0.141,0.22,0.33,0.22,0.53s-0.078,0.389-0.22,0.53L2.294,5.856
		C2.152,5.998,1.964,6.076,1.764,6.076z"/>
</g>
</svg>
