<?xml version="1.0" encoding="utf-8"?>
<!-- Generator: Adobe Illustrator 22.1.0, SVG Export Plug-In . SVG Version: 6.00 Build 0)  -->
<svg version="1.1" id="Layer_1" xmlns="http://www.w3.org/2000/svg" xmlns:xlink="http://www.w3.org/1999/xlink" x="0px" y="0px"
	 viewBox="0 0 24 24" style="enable-background:new 0 0 24 24;" xml:space="preserve">
<title>power-adapter</title>
<g>
	<path d="M11.994,23.758c-0.806,0-1.618-0.083-2.413-0.246c-4.732-0.885-8.396-4.517-9.329-9.25
		C-0.991,8.457,2.136,2.69,7.687,0.556C7.855,0.489,8.039,0.453,8.23,0.452c0.835,0,1.512,0.673,1.516,1.501v1.545h4.5V1.952
		c-0.002-0.165,0.025-0.332,0.08-0.492c0.207-0.606,0.775-1.012,1.415-1.012c0.163,0,0.325,0.027,0.481,0.08
		c5.554,2.106,8.714,7.84,7.525,13.639C22.607,19.724,17.665,23.758,11.994,23.758L11.994,23.758z M8.224,1.956
		C3.369,3.823,0.632,8.872,1.721,13.961c0.815,4.137,4.013,7.306,8.148,8.079c0.704,0.144,1.416,0.217,2.122,0.217
		c4.963,0,9.288-3.529,10.285-8.392C23.316,8.8,20.567,3.793,15.74,1.949l0.006,1.55c0,0.827-0.673,1.5-1.5,1.5h-4.5
		c-0.827,0-1.5-0.673-1.5-1.5l0-1.546C8.238,1.954,8.231,1.955,8.224,1.956z"/>
	<path d="M11.996,14.748c-1.241,0-2.25-1.009-2.25-2.25v-3.75c0-1.241,1.009-2.25,2.25-2.25c1.241,0,2.25,1.009,2.25,2.25v3.75
		C14.246,13.739,13.237,14.748,11.996,14.748z M11.996,7.998c-0.414,0-0.75,0.336-0.75,0.75v3.75c0,0.414,0.336,0.75,0.75,0.75
		s0.75-0.336,0.75-0.75v-3.75C12.746,8.335,12.409,7.998,11.996,7.998z"/>
	<path d="M5.621,14.748c-0.62,0-1.125-0.505-1.125-1.125c0-0.599,0.469-1.091,1.068-1.121c0.018-0.002,0.04-0.004,0.057-0.004
		c0.026,0,0.052,0.002,0.077,0.006c0.019,0,0.04,0.002,0.059,0.006c0.004,0.001,0.008,0.001,0.012,0.002
		c0.559,0.074,0.977,0.547,0.977,1.111C6.746,14.244,6.241,14.748,5.621,14.748z"/>
	<path d="M8.621,19.248c-0.62,0-1.125-0.505-1.125-1.125c0-0.563,0.416-1.035,0.973-1.111c0.007-0.001,0.014-0.003,0.021-0.004
		c0.015-0.002,0.032-0.004,0.048-0.004c0.032-0.004,0.057-0.006,0.083-0.006c0.03,0,0.059,0.003,0.088,0.007c0,0,0,0-0.001,0
		c0.017,0.001,0.036,0.002,0.051,0.005c0.003,0.001,0.006,0.001,0.01,0.002c0.559,0.074,0.977,0.547,0.977,1.111
		C9.746,18.744,9.241,19.248,8.621,19.248z"/>
	<path d="M15.371,19.248c-0.62,0-1.125-0.505-1.125-1.125c0-0.599,0.469-1.09,1.068-1.121c0.018-0.002,0.041-0.004,0.057-0.004
		c0.026,0,0.052,0.002,0.077,0.006c0.019,0,0.04,0.002,0.059,0.006c0.004,0.001,0.008,0.001,0.011,0.002
		c0.559,0.073,0.978,0.546,0.978,1.111C16.496,18.744,15.991,19.248,15.371,19.248z"/>
	<path d="M18.371,14.748c-0.62,0-1.125-0.505-1.125-1.125c0-0.607,0.473-1.097,1.079-1.122c0.016-0.001,0.033-0.003,0.046-0.003
		c0.62,0,1.125,0.505,1.125,1.125S18.991,14.748,18.371,14.748z"/>
</g>
</svg>
