<?xml version="1.0" encoding="utf-8"?>
<!-- Generator: Adobe Illustrator 22.1.0, SVG Export Plug-In . SVG Version: 6.00 Build 0)  -->
<svg version="1.1" id="Layer_1" xmlns="http://www.w3.org/2000/svg" xmlns:xlink="http://www.w3.org/1999/xlink" x="0px" y="0px"
	 viewBox="0 0 24 24" style="enable-background:new 0 0 24 24;" xml:space="preserve">
<g>
	<title>paginate-filter-mail</title>
	<path d="M1.5,22.508c-0.827,0-1.5-0.673-1.5-1.5v-14c0-0.827,0.673-1.5,1.5-1.5H3V3.486c0-1.103,0.897-2,2-2h17
		c1.103,0,2,0.897,2,2v14c0,1.103-0.897,2-2,2h-2v1.522c0,0.827-0.673,1.5-1.5,1.5H1.5z M1.5,6.508c-0.276,0-0.5,0.224-0.5,0.5v14
		c0,0.276,0.224,0.5,0.5,0.5h17c0.276,0,0.5-0.224,0.5-0.5v-1.522H5c-1.103,0-2-0.897-2-2V6.508H1.5z M4.039,3.212
		C4.013,3.3,4,3.392,4,3.486v14c0,0.552,0.449,1,1,1h17c0.552,0,1-0.448,1-1v-14c0-0.094-0.013-0.186-0.039-0.275l-9.118,8.638
		c-0.093,0.088-0.215,0.137-0.344,0.137s-0.251-0.049-0.344-0.137L4.039,3.212z M13.5,10.797l8.741-8.281
		c-0.079-0.02-0.159-0.03-0.241-0.03H5c-0.082,0-0.163,0.01-0.241,0.03L13.5,10.797z"/>
</g>
</svg>
