<?xml version="1.0" encoding="utf-8"?>
<!-- Generator: Adobe Illustrator 22.1.0, SVG Export Plug-In . SVG Version: 6.00 Build 0)  -->
<svg version="1.1" id="Layer_1" xmlns="http://www.w3.org/2000/svg" xmlns:xlink="http://www.w3.org/1999/xlink" x="0px" y="0px"
	 viewBox="0 0 24 24" style="enable-background:new 0 0 24 24;" xml:space="preserve">
<g>
	<title>paginate-filter-4</title>
	<path d="M1.5,24C0.673,24,0,23.327,0,22.5v-17C0,4.673,0.673,4,1.5,4H3V1.5C3,0.673,3.673,0,4.5,0h18C23.327,0,24,0.673,24,1.5v18
		c0,0.827-0.673,1.5-1.5,1.5H20v1.5c0,0.827-0.673,1.5-1.5,1.5H1.5z M1.5,5C1.224,5,1,5.224,1,5.5v17C1,22.776,1.224,23,1.5,23h17
		c0.276,0,0.5-0.224,0.5-0.5V21H4.5C3.673,21,3,20.327,3,19.5V5H1.5z M4.5,1C4.224,1,4,1.224,4,1.5v18C4,19.776,4.224,20,4.5,20h18
		c0.276,0,0.5-0.224,0.5-0.5v-18C23,1.224,22.776,1,22.5,1H4.5z"/>
	<path d="M15.5,15c-0.276,0-0.5-0.224-0.5-0.5V13h-4.5c-0.276,0-0.5-0.224-0.5-0.5v-1C10,8.467,12.467,6,15.5,6
		C15.776,6,16,6.224,16,6.5v8C16,14.776,15.776,15,15.5,15z M15,12V7.027c-2.263,0.25-4,2.166-4,4.473V12H15z"/>
</g>
</svg>
