<?xml version="1.0" encoding="utf-8"?>
<!-- Generator: Adobe Illustrator 22.1.0, SVG Export Plug-In . SVG Version: 6.00 Build 0)  -->
<svg version="1.1" id="Layer_1" xmlns="http://www.w3.org/2000/svg" xmlns:xlink="http://www.w3.org/1999/xlink" x="0px" y="0px"
	 viewBox="0 0 24 24" style="enable-background:new 0 0 24 24;" xml:space="preserve">
<g>
	<title>paginate-filter-2</title>
	<path d="M1.5,24C0.673,24,0,23.327,0,22.5v-17C0,4.673,0.673,4,1.5,4H3V1.5C3,0.673,3.673,0,4.5,0h18C23.327,0,24,0.673,24,1.5v18
		c0,0.827-0.673,1.5-1.5,1.5H20v1.5c0,0.827-0.673,1.5-1.5,1.5H1.5z M1.5,5C1.224,5,1,5.224,1,5.5v17C1,22.776,1.224,23,1.5,23h17
		c0.276,0,0.5-0.224,0.5-0.5V21H4.5C3.673,21,3,20.327,3,19.5V5H1.5z M4.5,1C4.224,1,4,1.224,4,1.5v18C4,19.776,4.224,20,4.5,20h18
		c0.276,0,0.5-0.224,0.5-0.5v-18C23,1.224,22.776,1,22.5,1H4.5z"/>
	<path d="M11,15c-0.206,0-0.394-0.13-0.468-0.323c-0.073-0.193-0.018-0.415,0.137-0.552l3.592-3.17
		c0.918-0.808,1.423-1.252,1.199-2.356c-0.106-0.524-0.41-0.974-0.855-1.27c-0.329-0.218-0.71-0.333-1.1-0.333
		c-0.134,0-0.27,0.014-0.402,0.041C12.173,7.226,11.499,8.051,11.5,9c0,0.276-0.224,0.5-0.5,0.5c-0.276,0-0.5-0.224-0.5-0.5
		c-0.001-1.422,1.009-2.66,2.403-2.943c0.199-0.04,0.402-0.061,0.603-0.061c0.586,0,1.157,0.173,1.651,0.5
		c0.668,0.443,1.124,1.119,1.283,1.904c0.339,1.671-0.563,2.465-1.518,3.305L12.322,14H16.5c0.276,0,0.5,0.224,0.5,0.5
		S16.776,15,16.5,15H11z"/>
</g>
</svg>
