<?xml version="1.0" encoding="utf-8"?>
<!-- Generator: Adobe Illustrator 22.1.0, SVG Export Plug-In . SVG Version: 6.00 Build 0)  -->
<svg version="1.1" id="Layer_1" xmlns="http://www.w3.org/2000/svg" xmlns:xlink="http://www.w3.org/1999/xlink" x="0px" y="0px"
	 viewBox="0 0 24 24" style="enable-background:new 0 0 24 24;" xml:space="preserve">
<g>
	<title>paginate-filter-music</title>
	<path d="M1.5,24C0.673,24,0,23.327,0,22.5v-17C0,4.673,0.673,4,1.5,4H3V1.5C3,0.673,3.673,0,4.5,0h18C23.327,0,24,0.673,24,1.5v18
		c0,0.827-0.673,1.5-1.5,1.5H20v1.5c0,0.827-0.673,1.5-1.5,1.5H1.5z M1.5,5C1.224,5,1,5.224,1,5.5v17C1,22.776,1.224,23,1.5,23h17
		c0.276,0,0.5-0.224,0.5-0.5V21H4.5C3.673,21,3,20.327,3,19.5V5H1.5z M4.5,1C4.224,1,4,1.224,4,1.5v18C4,19.776,4.224,20,4.5,20h18
		c0.276,0,0.5-0.224,0.5-0.5v-18C23,1.224,22.776,1,22.5,1H4.5z"/>
	<path d="M9.496,16.793c-1.379,0-2.5-1.122-2.5-2.5s1.121-2.5,2.5-2.5c0.55,0,1.075,0.179,1.504,0.505V6.624
		c0.001-0.721,0.516-1.341,1.224-1.474l6-1.125C18.315,4.008,18.408,4,18.5,4C19.327,4,20,4.673,20,5.5v6.793
		c0,0.016-0.003,0.04-0.007,0.06c-0.017,1.335-1.137,2.44-2.497,2.44c-1.378,0-2.5-1.122-2.5-2.5c0-1.379,1.122-2.5,2.5-2.5
		c0.551,0,1.075,0.179,1.504,0.504V5.5C19,5.224,18.776,5,18.5,5c-0.031,0-0.062,0.003-0.092,0.009l-6,1.125
		C12.172,6.178,12,6.384,12,6.625v7.669c0,0.015-0.002,0.036-0.006,0.055C11.964,15.699,10.849,16.793,9.496,16.793z M9.496,12.793
		c-0.827,0-1.5,0.673-1.5,1.5s0.673,1.5,1.5,1.5s1.5-0.673,1.5-1.5S10.323,12.793,9.496,12.793z M17.496,10.793
		c-0.827,0-1.5,0.673-1.5,1.5s0.673,1.5,1.5,1.5s1.5-0.673,1.5-1.5S18.323,10.793,17.496,10.793z"/>
</g>
</svg>
