<?xml version="1.0" encoding="utf-8"?>
<!-- Generator: Adobe Illustrator 22.1.0, SVG Export Plug-In . SVG Version: 6.00 Build 0)  -->
<svg version="1.1" id="Layer_1" xmlns="http://www.w3.org/2000/svg" xmlns:xlink="http://www.w3.org/1999/xlink" x="0px" y="0px"
	 viewBox="0 0 24 24" style="enable-background:new 0 0 24 24;" xml:space="preserve">
<g>
	<title>paginate-filter-android</title>
	<path d="M8.5,18C7.673,18,7,17.327,7,16.5v-4C7,12.224,7.224,12,7.5,12h12c0.276,0,0.5,0.224,0.5,0.5v4c0,0.827-0.673,1.5-1.5,1.5
		H8.5z M8,16.5C8,16.776,8.224,17,8.5,17h10c0.276,0,0.5-0.224,0.5-0.5V13H8V16.5z"/>
	<path d="M1.5,24C0.673,24,0,23.327,0,22.5v-17C0,4.673,0.673,4,1.5,4H3V1.5C3,0.673,3.673,0,4.5,0h18C23.327,0,24,0.673,24,1.5v18
		c0,0.827-0.673,1.5-1.5,1.5H20v1.5c0,0.827-0.673,1.5-1.5,1.5H1.5z M1.5,5C1.224,5,1,5.224,1,5.5v17C1,22.776,1.224,23,1.5,23h17
		c0.276,0,0.5-0.224,0.5-0.5V21H4.5C3.673,21,3,20.327,3,19.5V5H1.5z M4.5,1C4.224,1,4,1.224,4,1.5v18C4,19.776,4.224,20,4.5,20h18
		c0.276,0,0.5-0.224,0.5-0.5v-18C23,1.224,22.776,1,22.5,1H4.5z"/>
	<path d="M7.5,11C7.224,11,7,10.776,7,10.5c0-1.963,0.862-3.777,2.375-5.02L7.836,3.839C7.745,3.742,7.697,3.614,7.701,3.481
		s0.06-0.257,0.158-0.349c0.093-0.087,0.214-0.135,0.342-0.135c0.138,0,0.271,0.058,0.365,0.158l1.637,1.747
		C11.202,4.311,12.337,4,13.5,4c1.199,0,2.365,0.329,3.385,0.954l1.688-1.8c0.094-0.1,0.227-0.158,0.365-0.158
		c0.127,0,0.249,0.048,0.342,0.135c0.201,0.189,0.211,0.506,0.023,0.707l-1.601,1.707C19.166,6.787,20,8.577,20,10.5
		c0,0.276-0.224,0.5-0.5,0.5H7.5z M18.978,10c-0.253-2.824-2.611-5-5.478-5c-2.867,0-5.224,2.176-5.478,5H18.978z"/>
	<path d="M11.5,8.247c-0.414,0-0.75-0.336-0.75-0.75s0.336-0.75,0.75-0.75c0.01,0,0.044,0.003,0.048,0.004
		c0.385,0.015,0.702,0.343,0.702,0.746C12.25,7.911,11.914,8.247,11.5,8.247z"/>
	<circle cx="15.5" cy="7.497" r="0.75"/>
</g>
</svg>
