<?xml version="1.0" encoding="utf-8"?>
<!-- Generator: Adobe Illustrator 22.1.0, SVG Export Plug-In . SVG Version: 6.00 Build 0)  -->
<svg version="1.1" id="Light" xmlns="http://www.w3.org/2000/svg" xmlns:xlink="http://www.w3.org/1999/xlink" x="0px" y="0px"
	 viewBox="0 0 24 24" style="enable-background:new 0 0 24 24;" xml:space="preserve">
<g>
	<title>single-neutral-actions-download</title>
	<path d="M17.5,24c-3.584,0-6.5-2.916-6.5-6.5s2.916-6.5,6.5-6.5s6.5,2.916,6.5,6.5S21.084,24,17.5,24z M17.5,12
		c-3.033,0-5.5,2.467-5.5,5.5s2.467,5.5,5.5,5.5s5.5-2.467,5.5-5.5S20.533,12,17.5,12z"/>
	<path d="M17.5,21c-0.066,0-0.13-0.013-0.191-0.039c-0.062-0.025-0.117-0.062-0.163-0.109l-2.249-2.249
		c-0.094-0.094-0.146-0.22-0.146-0.354s0.052-0.259,0.146-0.354s0.22-0.146,0.354-0.146s0.259,0.052,0.354,0.146L17,19.293V14.5
		c0-0.276,0.224-0.5,0.5-0.5s0.5,0.224,0.5,0.5v4.793l1.396-1.396c0.094-0.094,0.22-0.146,0.354-0.146s0.259,0.052,0.354,0.146
		s0.146,0.22,0.146,0.354s-0.052,0.259-0.146,0.354l-2.25,2.25c-0.045,0.046-0.101,0.083-0.163,0.109
		C17.63,20.987,17.566,21,17.5,21z"/>
	<path d="M7.5,9.5c-2.619,0-4.75-2.131-4.75-4.75S4.881,0,7.5,0s4.75,2.131,4.75,4.75S10.119,9.5,7.5,9.5z M7.5,1
		C5.432,1,3.75,2.682,3.75,4.75S5.432,8.5,7.5,8.5s3.75-1.682,3.75-3.75S9.568,1,7.5,1z"/>
	<path d="M0.5,18C0.224,18,0,17.776,0,17.5c0-2,0.781-3.883,2.199-5.301C3.617,10.781,5.5,10,7.5,10c1.44,0,2.842,0.411,4.053,1.19
		c0.232,0.149,0.299,0.459,0.151,0.691c-0.093,0.144-0.25,0.23-0.421,0.23l0,0c-0.096,0-0.189-0.027-0.27-0.079
		C9.963,11.356,8.748,11,7.5,11c-1.737,0-3.369,0.676-4.597,1.904C1.8,14.008,1.136,15.454,1.019,17H8.5C8.776,17,9,17.224,9,17.5
		S8.776,18,8.5,18H0.5z"/>
</g>
</svg>
