<?xml version="1.0" encoding="utf-8"?>
<!-- Generator: Adobe Illustrator 22.1.0, SVG Export Plug-In . SVG Version: 6.00 Build 0)  -->
<svg version="1.1" id="Light" xmlns="http://www.w3.org/2000/svg" xmlns:xlink="http://www.w3.org/1999/xlink" x="0px" y="0px"
	 viewBox="0 0 24 24" style="enable-background:new 0 0 24 24;" xml:space="preserve">
<g>
	<title>single-neutral-actions-add</title>
	<path d="M17.5,24c-3.584,0-6.5-2.916-6.5-6.5c0-3.584,2.916-6.5,6.5-6.5s6.5,2.916,6.5,6.5C24,21.084,21.084,24,17.5,24z M17.5,12
		c-3.033,0-5.5,2.467-5.5,5.5s2.467,5.5,5.5,5.5s5.5-2.467,5.5-5.5S20.533,12,17.5,12z"/>
	<path d="M17.5,21c-0.276,0-0.5-0.224-0.5-0.5V18h-2.5c-0.276,0-0.5-0.224-0.5-0.5s0.224-0.5,0.5-0.5H17v-2.5
		c0-0.276,0.224-0.5,0.5-0.5s0.5,0.224,0.5,0.5V17h2.5c0.276,0,0.5,0.224,0.5,0.5S20.776,18,20.5,18H18v2.5
		C18,20.775,17.776,21,17.5,21z"/>
	<path d="M7.5,9.501c-2.619,0-4.75-2.131-4.75-4.75s2.131-4.75,4.75-4.75s4.75,2.131,4.75,4.75S10.119,9.501,7.5,9.501z M7.5,1.001
		c-2.068,0-3.75,1.682-3.75,3.75s1.682,3.75,3.75,3.75s3.75-1.682,3.75-3.75S9.568,1.001,7.5,1.001z"/>
	<path d="M0.5,18C0.224,18,0,17.775,0,17.5c0-2,0.781-3.883,2.199-5.301C3.617,10.781,5.5,10,7.5,10c1.44,0,2.842,0.411,4.053,1.19
		c0.232,0.149,0.299,0.459,0.151,0.691c-0.093,0.144-0.25,0.23-0.421,0.23l0,0c-0.096,0-0.189-0.027-0.27-0.079
		C9.963,11.356,8.748,11,7.5,11c-3.428,0-6.226,2.615-6.482,6H8.5C8.776,17,9,17.224,9,17.5S8.776,18,8.5,18H0.5z"/>
</g>
</svg>
