<?xml version="1.0" encoding="utf-8"?>
<!-- Generator: Adobe Illustrator 22.1.0, SVG Export Plug-In . SVG Version: 6.00 Build 0)  -->
<svg version="1.1" id="Light" xmlns="http://www.w3.org/2000/svg" xmlns:xlink="http://www.w3.org/1999/xlink" x="0px" y="0px"
	 viewBox="0 0 24 24" style="enable-background:new 0 0 24 24;" xml:space="preserve">
<g>
	<title>single-neutral-actions-text</title>
	<path d="M12.5,24c-0.827,0-1.5-0.673-1.5-1.5v-10c0-0.827,0.673-1.5,1.5-1.5h10c0.827,0,1.5,0.673,1.5,1.5v10
		c0,0.827-0.673,1.5-1.5,1.5H12.5z M12.5,12c-0.276,0-0.5,0.224-0.5,0.5v10c0,0.276,0.224,0.5,0.5,0.5h10c0.276,0,0.5-0.224,0.5-0.5
		v-10c0-0.276-0.224-0.5-0.5-0.5H12.5z"/>
	<path d="M14.5,15c-0.276,0-0.5-0.224-0.5-0.5s0.224-0.5,0.5-0.5h6c0.276,0,0.5,0.224,0.5,0.5S20.776,15,20.5,15H14.5z"/>
	<path d="M14.5,18c-0.276,0-0.5-0.224-0.5-0.5s0.224-0.5,0.5-0.5h6c0.276,0,0.5,0.224,0.5,0.5S20.776,18,20.5,18H14.5z"/>
	<path d="M14.5,21c-0.276,0-0.5-0.224-0.5-0.5s0.224-0.5,0.5-0.5h2.25c0.276,0,0.5,0.224,0.5,0.5s-0.224,0.5-0.5,0.5H14.5z"/>
	<path d="M7.5,9.5c-2.619,0-4.75-2.131-4.75-4.75S4.881,0,7.5,0s4.75,2.131,4.75,4.75S10.119,9.5,7.5,9.5z M7.5,1
		C5.432,1,3.75,2.682,3.75,4.75S5.432,8.5,7.5,8.5s3.75-1.682,3.75-3.75S9.568,1,7.5,1z"/>
	<path d="M0.5,18c-0.132,0-0.261-0.053-0.354-0.146C0.052,17.759,0,17.634,0,17.5c0-0.354,0.026-0.711,0.076-1.061
		c0.285-1.984,1.325-3.739,2.93-4.941c1.31-0.981,2.861-1.5,4.484-1.5c0.359,0,0.723,0.026,1.081,0.078
		c0.132,0.019,0.249,0.088,0.329,0.195c0.08,0.107,0.114,0.239,0.095,0.371c-0.035,0.245-0.248,0.429-0.495,0.429
		c-0.023,0-0.046-0.002-0.069-0.005c-0.312-0.045-0.628-0.067-0.939-0.067c-1.407,0-2.751,0.449-3.886,1.3
		c-1.391,1.042-2.292,2.562-2.539,4.282C1.046,16.719,1.031,16.86,1.02,17H8.5C8.776,17,9,17.224,9,17.5S8.776,18,8.5,18H0.5z"/>
</g>
</svg>
