<?xml version="1.0" encoding="utf-8"?>
<!-- Generator: Adobe Illustrator 22.1.0, SVG Export Plug-In . SVG Version: 6.00 Build 0)  -->
<svg version="1.1" id="Light" xmlns="http://www.w3.org/2000/svg" xmlns:xlink="http://www.w3.org/1999/xlink" x="0px" y="0px"
	 viewBox="0 0 24 24" style="enable-background:new 0 0 24 24;" xml:space="preserve">
<g>
	<title>single-neutral-actions-sync</title>
	<path d="M17.496,24.005c-0.97,0-1.911-0.215-2.798-0.638c-1.566-0.749-2.748-2.062-3.326-3.699
		c-0.578-1.637-0.485-3.401,0.264-4.968c0.749-1.567,2.062-2.748,3.7-3.326c0.698-0.247,1.424-0.372,2.159-0.372
		c2.264,0,4.33,1.164,5.506,3.036v-3.033c0-0.276,0.224-0.5,0.5-0.5s0.5,0.224,0.5,0.5v4.5c0,0.276-0.224,0.5-0.5,0.5H19
		c-0.276,0-0.5-0.224-0.5-0.5s0.224-0.5,0.5-0.5h3.4c-0.933-1.836-2.819-3.002-4.906-3.002c-0.621,0-1.236,0.106-1.826,0.314
		c-1.385,0.489-2.497,1.489-3.13,2.814c-0.633,1.325-0.713,2.818-0.223,4.204c0.489,1.385,1.489,2.497,2.815,3.13
		c0.75,0.358,1.547,0.54,2.367,0.54c0.623,0,1.241-0.107,1.836-0.317c0.971-0.343,1.824-0.95,2.466-1.755
		c0.096-0.119,0.238-0.188,0.391-0.188c0.113,0,0.224,0.039,0.312,0.109c0.104,0.083,0.17,0.202,0.185,0.334
		c0.015,0.133-0.023,0.264-0.106,0.368c-0.759,0.951-1.767,1.668-2.915,2.074C18.963,23.879,18.233,24.005,17.496,24.005z"/>
	<path d="M7.5,9.502c-2.619,0-4.75-2.131-4.75-4.75s2.131-4.75,4.75-4.75s4.75,2.131,4.75,4.75S10.119,9.502,7.5,9.502z M7.5,1.002
		c-2.068,0-3.75,1.682-3.75,3.75s1.682,3.75,3.75,3.75s3.75-1.682,3.75-3.75S9.568,1.002,7.5,1.002z"/>
	<path d="M0.5,18.002c-0.276,0-0.5-0.224-0.5-0.5c0-2,0.781-3.883,2.199-5.301C3.617,10.783,5.5,10.002,7.5,10.002
		c1.44,0,2.842,0.411,4.053,1.19c0.232,0.149,0.299,0.459,0.151,0.691c-0.093,0.144-0.25,0.23-0.421,0.23l0,0
		c-0.096,0-0.189-0.027-0.27-0.079c-1.05-0.674-2.265-1.031-3.513-1.031c-1.736,0-3.368,0.676-4.596,1.904
		c-1.104,1.104-1.767,2.55-1.885,4.096H8.5c0.276,0,0.5,0.224,0.5,0.5s-0.224,0.5-0.5,0.5H0.5z"/>
</g>
</svg>
