<?xml version="1.0" encoding="utf-8"?>
<!-- Generator: Adobe Illustrator 22.1.0, SVG Export Plug-In . SVG Version: 6.00 Build 0)  -->
<svg version="1.1" id="Light" xmlns="http://www.w3.org/2000/svg" xmlns:xlink="http://www.w3.org/1999/xlink" x="0px" y="0px"
	 viewBox="0 0 24 24" style="enable-background:new 0 0 24 24;" xml:space="preserve">
<g>
	<title>single-neutral-actions-money</title>
	<path d="M17.5,22c-0.276,0-0.5-0.224-0.5-0.5V21h-1c-0.276,0-0.5-0.224-0.5-0.5S15.724,20,16,20h2.031
		c0.345,0,0.651-0.208,0.78-0.528c0.084-0.208,0.081-0.437-0.007-0.644c-0.088-0.207-0.251-0.367-0.46-0.451l-2.063-0.826
		c-0.702-0.283-1.155-0.953-1.155-1.708c0-0.492,0.191-0.954,0.539-1.302c0.348-0.348,0.81-0.54,1.302-0.541H17v-0.5
		c0-0.276,0.224-0.5,0.5-0.5s0.5,0.224,0.5,0.5V14h1c0.276,0,0.5,0.224,0.5,0.5S19.276,15,19,15h-1.479
		c-0.007,0.001-0.014,0.001-0.021,0.001s-0.014,0-0.021-0.001h-0.511c-0.224,0-0.436,0.088-0.594,0.248
		c-0.159,0.159-0.247,0.371-0.247,0.595c0,0.345,0.207,0.652,0.528,0.781l2.063,0.826c0.457,0.184,0.815,0.535,1.008,0.987
		c0.193,0.453,0.198,0.953,0.014,1.41C19.457,20.546,18.787,21,18.031,21H18v0.5C18,21.776,17.776,22,17.5,22z"/>
	<path d="M17.5,24c-3.584,0-6.5-2.916-6.5-6.5s2.916-6.5,6.5-6.5s6.5,2.916,6.5,6.5S21.084,24,17.5,24z M17.5,12
		c-3.033,0-5.5,2.467-5.5,5.5s2.467,5.5,5.5,5.5s5.5-2.467,5.5-5.5S20.533,12,17.5,12z"/>
	<path d="M7.5,9.5c-2.619,0-4.75-2.131-4.75-4.75S4.881,0,7.5,0s4.75,2.131,4.75,4.75S10.119,9.5,7.5,9.5z M7.5,1
		C5.432,1,3.75,2.682,3.75,4.75S5.432,8.5,7.5,8.5s3.75-1.682,3.75-3.75S9.568,1,7.5,1z"/>
	<path d="M0.5,18C0.224,18,0,17.776,0,17.5c0-2,0.781-3.883,2.199-5.301C3.617,10.781,5.5,10,7.5,10c1.44,0,2.842,0.411,4.053,1.19
		c0.232,0.149,0.299,0.459,0.151,0.691c-0.093,0.144-0.25,0.23-0.421,0.23l0,0c-0.096,0-0.189-0.027-0.27-0.079
		C9.963,11.356,8.748,11,7.5,11c-1.737,0-3.369,0.676-4.597,1.904C1.8,14.008,1.136,15.454,1.019,17H8.5C8.776,17,9,17.224,9,17.5
		S8.776,18,8.5,18H0.5z"/>
</g>
</svg>
