<?xml version="1.0" encoding="utf-8"?>
<!-- Generator: Adobe Illustrator 22.1.0, SVG Export Plug-In . SVG Version: 6.00 Build 0)  -->
<svg version="1.1" id="Light" xmlns="http://www.w3.org/2000/svg" xmlns:xlink="http://www.w3.org/1999/xlink" x="0px" y="0px"
	 viewBox="0 0 24 24" style="enable-background:new 0 0 24 24;" xml:space="preserve">
<g>
	<title>single-neutral-actions-location</title>
	<path d="M19,18.084c-1.103,0-2-0.897-2-2s0.897-2,2-2s2,0.897,2,2S20.103,18.084,19,18.084z M19,15.084c-0.552,0-1,0.448-1,1
		s0.448,1,1,1s1-0.448,1-1S19.552,15.084,19,15.084z"/>
	<path d="M19,23.86c-0.256,0-0.499-0.097-0.685-0.272c-0.012-0.011-0.028-0.027-0.044-0.043C16.987,22.17,14,18.693,14,16.084
		c0-2.757,2.243-5,5-5s5,2.243,5,5c0,2.609-2.987,6.086-4.271,7.46c-0.183,0.196-0.432,0.307-0.699,0.316
		C19.028,23.86,19.002,23.86,19,23.86z M19,12.084c-2.206,0-4,1.794-4,4c0,2.316,3.062,5.773,4.001,6.778
		C19.938,21.857,23,18.401,23,16.084C23,13.879,21.206,12.084,19,12.084z"/>
	<path d="M7.5,9.584c-2.619,0-4.75-2.131-4.75-4.75s2.131-4.75,4.75-4.75s4.75,2.131,4.75,4.75S10.119,9.584,7.5,9.584z M7.5,1.084
		c-2.068,0-3.75,1.682-3.75,3.75s1.682,3.75,3.75,3.75s3.75-1.682,3.75-3.75S9.568,1.084,7.5,1.084z"/>
	<path d="M0.5,18.083c-0.276,0-0.5-0.224-0.5-0.5c0-2.003,0.78-3.886,2.197-5.303c1.417-1.417,3.3-2.197,5.303-2.197
		c2.223,0,4.317,0.976,5.745,2.679c0.086,0.102,0.127,0.232,0.115,0.365s-0.074,0.254-0.177,0.34
		c-0.09,0.075-0.204,0.117-0.322,0.117l0,0c-0.148,0-0.288-0.065-0.383-0.179c-1.238-1.475-3.053-2.321-4.979-2.321
		c-1.736,0-3.368,0.676-4.596,1.904c-1.104,1.104-1.767,2.55-1.885,4.096H11.5c0.276,0,0.5,0.224,0.5,0.5s-0.224,0.5-0.5,0.5H0.5z"
		/>
</g>
</svg>
