<?xml version="1.0" encoding="utf-8"?>
<!-- Generator: Adobe Illustrator 22.1.0, SVG Export Plug-In . SVG Version: 6.00 Build 0)  -->
<svg version="1.1" id="Layer_1" xmlns="http://www.w3.org/2000/svg" xmlns:xlink="http://www.w3.org/1999/xlink" x="0px" y="0px"
	 viewBox="0 0 24 24" style="enable-background:new 0 0 24 24;" xml:space="preserve">
<title>radio-stereo-1</title>
<g>
	<path d="M10.492,15c-0.414,0-0.75-0.336-0.75-0.75s0.336-0.75,0.75-0.75h3c0.414,0,0.75,0.336,0.75,0.75S13.906,15,13.492,15
		H10.492z"/>
	<path d="M17.992,20.25c-1.654,0-3-1.346-3-3s1.346-3,3-3s3,1.346,3,3S19.646,20.25,17.992,20.25z M17.992,15.75
		c-0.827,0-1.5,0.673-1.5,1.5s0.673,1.5,1.5,1.5s1.5-0.673,1.5-1.5S18.819,15.75,17.992,15.75z"/>
	<path d="M5.992,20.25c-1.654,0-3-1.346-3-3s1.346-3,3-3s3,1.346,3,3S7.646,20.25,5.992,20.25z M5.992,15.75
		c-0.827,0-1.5,0.673-1.5,1.5s0.673,1.5,1.5,1.5s1.5-0.673,1.5-1.5S6.819,15.75,5.992,15.75z"/>
	<path d="M3.742,7.5c-0.414,0-0.75-0.336-0.75-0.75C2.992,4.682,4.674,3,6.742,3c0.414,0,0.75,0.336,0.75,0.75S7.156,4.5,6.742,4.5
		c-1.241,0-2.25,1.009-2.25,2.25C4.492,7.164,4.156,7.5,3.742,7.5z"/>
	<path d="M0.742,7.5c-0.414,0-0.75-0.336-0.75-0.75C-0.008,3.028,3.02,0,6.742,0c0.414,0,0.75,0.336,0.75,0.75S7.156,1.5,6.742,1.5
		c-2.895,0-5.25,2.355-5.25,5.25C1.492,7.164,1.156,7.5,0.742,7.5z"/>
	<path d="M20.242,7.5c-0.414,0-0.75-0.336-0.75-0.75c0-1.241-1.009-2.25-2.25-2.25c-0.414,0-0.75-0.336-0.75-0.75S16.829,3,17.242,3
		c2.068,0,3.75,1.682,3.75,3.75C20.992,7.164,20.656,7.5,20.242,7.5z"/>
	<path d="M23.242,7.5c-0.414,0-0.75-0.336-0.75-0.75c0-2.895-2.355-5.25-5.25-5.25c-0.414,0-0.75-0.336-0.75-0.75S16.829,0,17.242,0
		c3.722,0,6.75,3.028,6.75,6.75C23.992,7.164,23.656,7.5,23.242,7.5z"/>
	<path d="M4.742,24c-2.619,0-4.75-2.131-4.75-4.75v-4c0-2.619,2.131-4.75,4.75-4.75h2.135l0.387-1.941
		C7.474,7.511,8.402,6.75,9.471,6.75h5.041c1.069,0,1.997,0.761,2.206,1.809l0.388,1.941h2.135c2.619,0,4.75,2.131,4.75,4.75v4
		c0,2.619-2.131,4.75-4.75,4.75H4.742z M19.242,22.5c1.792,0,3.25-1.458,3.25-3.25v-4c0-1.792-1.458-3.25-3.25-3.25h-14.5
		c-1.792,0-3.25,1.458-3.25,3.25v4c0,1.792,1.458,3.25,3.25,3.25h3.036l1.293-2.585C9.199,19.659,9.457,19.5,9.742,19.5h4.5
		c0.286,0,0.543,0.159,0.671,0.415l1.293,2.585H19.242z M14.529,22.5l-0.75-1.5h-3.573l-0.75,1.5H14.529z M15.577,10.5l-0.329-1.647
		c-0.07-0.35-0.379-0.603-0.736-0.603H9.471c-0.357,0-0.666,0.254-0.736,0.603L8.407,10.5H15.577z"/>
</g>
</svg>
