<?xml version="1.0" encoding="utf-8"?>
<!-- Generator: Adobe Illustrator 22.1.0, SVG Export Plug-In . SVG Version: 6.00 Build 0)  -->
<svg version="1.1" id="Layer_1" xmlns="http://www.w3.org/2000/svg" xmlns:xlink="http://www.w3.org/1999/xlink" x="0px" y="0px"
	 viewBox="0 0 24 24" style="enable-background:new 0 0 24 24;" xml:space="preserve">
<title>radio-retro</title>
<g>
	<path d="M20.25,24c-0.414,0-0.75-0.336-0.75-0.75V22.5h-15v0.75C4.5,23.664,4.164,24,3.75,24S3,23.664,3,23.25V22.5H2.25
		C1.009,22.5,0,21.491,0,20.25v-12C0,7.009,1.009,6,2.25,6H4.5V3.75C4.5,3.336,4.836,3,5.25,3S6,3.336,6,3.75V6h15.75
		C22.991,6,24,7.009,24,8.25v12c0,1.241-1.009,2.25-2.25,2.25H21v0.75C21,23.664,20.664,24,20.25,24z M2.25,7.5
		C1.836,7.5,1.5,7.836,1.5,8.25v12C1.5,20.664,1.836,21,2.25,21h19.5c0.414,0,0.75-0.336,0.75-0.75v-12
		c0-0.414-0.336-0.75-0.75-0.75H2.25z"/>
	<path d="M18.856,15.004c-0.043,0-0.087-0.001-0.13-0.004H5.262c-0.021,0.002-0.066,0.003-0.111,0.003
		c-1.113,0-2.056-0.868-2.148-1.977C3.001,13.006,3,12.985,3,12.964v-1.928c0-0.021,0.001-0.042,0.003-0.062
		C3.095,9.865,4.04,8.997,5.156,8.997c0.043,0,0.086,0.001,0.129,0.004L18.738,9c0.021-0.002,0.064-0.003,0.107-0.003
		c1.115,0,2.061,0.868,2.153,1.977C20.999,10.997,21,11.017,21,11.036v1.928c0,0.019-0.001,0.039-0.002,0.058
		C20.905,14.135,19.965,15.004,18.856,15.004C18.856,15.004,18.856,15.004,18.856,15.004z M18.75,13.5
		c0.019,0,0.085,0.004,0.101,0.004c0.333,0,0.609-0.247,0.649-0.577v-1.854c-0.04-0.325-0.323-0.577-0.651-0.577
		c-0.015,0-0.081,0.004-0.099,0.004H16.5v3H18.75z M4.5,12.927c0.04,0.325,0.323,0.577,0.651,0.576c0.015,0,0.08-0.003,0.099-0.003
		H15v-3H5.25c-0.017,0-0.082-0.003-0.096-0.003c-0.33,0-0.614,0.252-0.654,0.576V12.927z"/>
	<path d="M8.25,19.5c-0.414,0-0.75-0.336-0.75-0.75S7.836,18,8.25,18h7.5c0.414,0,0.75,0.336,0.75,0.75s-0.336,0.75-0.75,0.75H8.25z
		"/>
	<path d="M5.25,2.25C4.836,2.25,4.5,1.914,4.5,1.5V0.75C4.5,0.336,4.836,0,5.25,0S6,0.336,6,0.75V1.5C6,1.914,5.664,2.25,5.25,2.25z
		"/>
	<path d="M1.5,4.5c-0.414,0-0.75-0.336-0.75-0.75S1.086,3,1.5,3h0.75C2.664,3,3,3.336,3,3.75S2.664,4.5,2.25,4.5H1.5z"/>
	<path d="M8.25,4.5C7.836,4.5,7.5,4.164,7.5,3.75S7.836,3,8.25,3H9c0.414,0,0.75,0.336,0.75,0.75S9.414,4.5,9,4.5H8.25z"/>
	<circle cx="4.125" cy="18.375" r="1.125"/>
	<circle cx="19.875" cy="18.375" r="1.125"/>
</g>
</svg>
