<?xml version="1.0" encoding="utf-8"?>
<!-- Generator: Adobe Illustrator 22.1.0, SVG Export Plug-In . SVG Version: 6.00 Build 0)  -->
<svg version="1.1" id="Layer_1" xmlns="http://www.w3.org/2000/svg" xmlns:xlink="http://www.w3.org/1999/xlink" x="0px" y="0px"
	 viewBox="0 0 24 24" style="enable-background:new 0 0 24 24;" xml:space="preserve">
<title>expand-diagonal-2</title>
<g>
	<path d="M0.75,23.999c-0.088,0-0.175-0.016-0.26-0.047c-0.008-0.003-0.015-0.005-0.022-0.008c-0.188-0.077-0.336-0.226-0.412-0.41
		c-0.003-0.007-0.006-0.015-0.009-0.023C0.017,23.429,0,23.34,0,23.249v-6.75c0-0.414,0.336-0.75,0.75-0.75s0.75,0.336,0.75,0.75
		v4.939l6.97-6.97c0.142-0.142,0.33-0.22,0.53-0.22s0.389,0.078,0.53,0.22c0.142,0.142,0.22,0.33,0.22,0.53s-0.078,0.389-0.22,0.53
		l-6.97,6.97H7.5c0.414,0,0.75,0.336,0.75,0.75s-0.336,0.75-0.75,0.75H0.75z"/>
	<path d="M15,9.749c-0.2,0-0.389-0.078-0.53-0.22c-0.142-0.141-0.22-0.33-0.22-0.53s0.078-0.389,0.22-0.53l6.97-6.97H16.5
		c-0.414,0-0.75-0.336-0.75-0.75s0.336-0.75,0.75-0.75h6.75c0.089,0,0.176,0.016,0.261,0.048c0.011,0.004,0.022,0.008,0.032,0.012
		c0.176,0.072,0.324,0.221,0.4,0.404c0.003,0.008,0.007,0.017,0.01,0.026C23.984,0.571,24,0.66,24,0.749v6.75
		c0,0.414-0.336,0.75-0.75,0.75s-0.75-0.336-0.75-0.75V2.56l-6.97,6.97C15.389,9.671,15.2,9.749,15,9.749z"/>
	<path d="M15.75,16.499c-0.2,0-0.389-0.078-0.53-0.22l-7.5-7.5C7.578,8.638,7.5,8.449,7.5,8.249s0.078-0.389,0.22-0.53
		c0.141-0.142,0.33-0.22,0.53-0.22s0.389,0.078,0.53,0.22l7.5,7.5c0.292,0.292,0.292,0.768,0,1.061
		C16.139,16.421,15.95,16.499,15.75,16.499z"/>
</g>
</svg>
