<?xml version="1.0" encoding="utf-8"?>
<!-- Generator: Adobe Illustrator 22.1.0, SVG Export Plug-In . SVG Version: 6.00 Build 0)  -->
<svg version="1.1" id="Layer_1" xmlns="http://www.w3.org/2000/svg" xmlns:xlink="http://www.w3.org/1999/xlink" x="0px" y="0px"
	 viewBox="0 0 24 24" style="enable-background:new 0 0 24 24;" xml:space="preserve">
<g>
	<title>dial-finger</title>
	<path d="M2.501,3c-0.276,0-0.5-0.224-0.5-0.5S2.225,2,2.501,2h2c0.276,0,0.5,0.224,0.5,0.5S4.777,3,4.501,3H2.501z"/>
	<path d="M2.501,7c-0.276,0-0.5-0.224-0.5-0.5S2.225,6,2.501,6h2c0.276,0,0.5,0.224,0.5,0.5S4.777,7,4.501,7H2.501z"/>
	<path d="M2.501,11c-0.276,0-0.5-0.224-0.5-0.5s0.224-0.5,0.5-0.5h2c0.276,0,0.5,0.224,0.5,0.5S4.777,11,4.501,11H2.501z"/>
	<path d="M7.501,3c-0.276,0-0.5-0.224-0.5-0.5S7.225,2,7.501,2h2c0.276,0,0.5,0.224,0.5,0.5S9.777,3,9.501,3H7.501z"/>
	<path d="M7.501,7c-0.276,0-0.5-0.224-0.5-0.5S7.225,6,7.501,6h2c0.276,0,0.5,0.224,0.5,0.5S9.777,7,9.501,7H7.501z"/>
	<path d="M7.501,11c-0.276,0-0.5-0.224-0.5-0.5s0.224-0.5,0.5-0.5h2c0.276,0,0.5,0.224,0.5,0.5S9.777,11,9.501,11H7.501z"/>
	<path d="M12.501,3c-0.276,0-0.5-0.224-0.5-0.5s0.224-0.5,0.5-0.5h2c0.276,0,0.5,0.224,0.5,0.5S14.777,3,14.501,3H12.501z"/>
	<path d="M12.001,24.001c-0.18,0-0.347-0.098-0.436-0.255l-3.519-6.256c-0.139-0.249-0.213-0.53-0.214-0.815
		c-0.001-0.447,0.172-0.866,0.487-1.183S9.054,15.001,9.5,15h0.501c0.635,0.002,1.227,0.286,1.624,0.779
		c0.127,0.156,0.254,0.314,0.376,0.467V9c0-1.103,0.897-2,2-2s2,0.897,2,2v4.642l4.869,1.649c0.814,0.276,1.282,1.115,1.088,1.952
		l-1.47,6.37C20.435,23.841,20.235,24,20.001,24c-0.039,0-0.077-0.004-0.113-0.013c-0.129-0.03-0.24-0.109-0.311-0.222
		c-0.071-0.113-0.094-0.247-0.063-0.377l1.47-6.37c0.078-0.335-0.109-0.67-0.434-0.78l-5.208-1.764
		c-0.203-0.069-0.34-0.259-0.34-0.474V9c0-0.551-0.448-1-1-1s-1,0.449-1,1v8.693c0,0.214-0.136,0.404-0.339,0.473
		c-0.051,0.018-0.105,0.027-0.161,0.027c-0.154,0-0.302-0.073-0.396-0.195c-0.006-0.008-0.637-0.826-1.257-1.59
		C10.639,16.15,10.33,16.001,9.999,16H9.501c-0.178,0-0.347,0.071-0.473,0.198c-0.127,0.127-0.196,0.296-0.196,0.475
		c0,0.114,0.03,0.227,0.086,0.327l3.519,6.256c0.135,0.24,0.05,0.546-0.191,0.681C12.172,23.978,12.087,24.001,12.001,24.001z"/>
</g>
</svg>
