<?xml version="1.0" encoding="utf-8"?>
<!-- Generator: Adobe Illustrator 22.1.0, SVG Export Plug-In . SVG Version: 6.00 Build 0)  -->
<svg version="1.1" id="Layer_1" xmlns="http://www.w3.org/2000/svg" xmlns:xlink="http://www.w3.org/1999/xlink" x="0px" y="0px"
	 viewBox="0 0 24 24" style="enable-background:new 0 0 24 24;" xml:space="preserve">
<title>archive-folder</title>
<g>
	<path d="M3.75,11.625c-0.414,0-0.75-0.336-0.75-0.75s0.336-0.75,0.75-0.75h16.5c0.414,0,0.75,0.336,0.75,0.75
		s-0.336,0.75-0.75,0.75H3.75z"/>
	<path d="M3.75,7.875C3.336,7.875,3,7.539,3,7.125s0.336-0.75,0.75-0.75h16.5c0.414,0,0.75,0.336,0.75,0.75s-0.336,0.75-0.75,0.75
		H3.75z"/>
	<path d="M3.75,4.125C3.336,4.125,3,3.789,3,3.375s0.336-0.75,0.75-0.75h16.5c0.414,0,0.75,0.336,0.75,0.75s-0.336,0.75-0.75,0.75
		H3.75z"/>
	<path d="M2.25,21.375c-1.241,0-2.25-1.009-2.25-2.25v-3.75c0-0.827,0.673-1.5,1.5-1.5H9c0.414,0,0.75,0.336,0.75,0.75
		c0,1.241,1.009,2.25,2.25,2.25c1.241,0,2.25-1.009,2.25-2.25c0-0.414,0.336-0.75,0.75-0.75h7.5c0.827,0,1.5,0.673,1.5,1.5v3.75
		c0,1.241-1.009,2.25-2.25,2.25H2.25z M1.5,19.125c0,0.414,0.336,0.75,0.75,0.75h19.5c0.414,0,0.75-0.336,0.75-0.75v-3.75h-6.825
		c-0.35,1.732-1.875,3-3.675,3s-3.324-1.268-3.675-3H1.5V19.125z"/>
</g>
</svg>
