<svg xmlns="http://www.w3.org/2000/svg" viewBox="0 0 24 24"><defs><style>.a{fill:none;stroke:currentColor;stroke-linecap:round;stroke-linejoin:round;stroke-width:1.5px;}</style></defs><title>mood-peace</title><path class="a" d="M20.175,16.573a1.771,1.771,0,0,1-3.542,0V13.031a1.771,1.771,0,0,1,3.542,0Z"/><path class="a" d="M16.633,15.392a1.771,1.771,0,0,1-3.542,0V11.851a1.771,1.771,0,1,1,3.542,0Z"/><path class="a" d="M9.869,11.25,10.885,2.3a1.714,1.714,0,1,1,3.412.331l-.815,8.11"/><path class="a" d="M6.441,11.25,5.5,2.628A1.714,1.714,0,1,1,8.913,2.3l.956,8.949"/><path class="a" d="M11.575,19.25a4,4,0,0,0-4-4h3.5a2,2,0,0,0,0-4H6.325a2,2,0,0,0-2,2v5a3,3,0,0,0,1.608,2.658,2.6,2.6,0,0,1,1.392,2.3v.041"/><path class="a" d="M18.025,18.3A3.005,3.005,0,0,1,16.7,20.274a3.54,3.54,0,0,0-1.623,2.976"/></svg>