<svg xmlns="http://www.w3.org/2000/svg" viewBox="0 0 24 24"><defs><style>.a{fill:none;stroke:currentColor;stroke-linecap:round;stroke-linejoin:round;stroke-width:1.5px;}</style></defs><title>mood-happy-smartphone</title><path class="a" d="M18,.75a5.226,5.226,0,0,0-3.937,8.69l-.657,3.779,3.423-2.111A5.246,5.246,0,1,0,18,.75Z"/><circle class="a" cx="8.232" cy="15.375" r="3.375"/><path class="a" d="M13.46,23.243A6.062,6.062,0,0,0,3,23.25"/><line class="a" x1="18" y1="14.25" x2="18" y2="23.25"/><path class="a" d="M.75,23.25V3.75a3,3,0,0,1,3-3h7.5"/><line class="a" x1="0.75" y1="6.75" x2="9.75" y2="6.75"/><line class="a" x1="6.75" y1="3.75" x2="9.75" y2="3.75"/><path class="a" d="M20.25,5.571A2.107,2.107,0,0,1,18,7.5a2.107,2.107,0,0,1-2.25-1.929"/></svg>