<svg xmlns="http://www.w3.org/2000/svg" viewBox="0 0 24 24"><title>microphone-1</title><path d="M13.5,19h-3a.5.5,0,0,0-.5.562l.445,3.562a1,1,0,0,0,.992.876h1.118a1,1,0,0,0,.992-.876L14,19.562A.5.5,0,0,0,13.5,19Z"/><path d="M16.25,8.5a.25.25,0,0,0,.25-.25V2.5A2,2,0,0,0,15.176.618,9.824,9.824,0,0,0,12,0,9.824,9.824,0,0,0,8.824.618,2,2,0,0,0,7.5,2.5V8.25a.25.25,0,0,0,.25.25Z"/><path d="M13.25,10a.25.25,0,0,0-.25.25V13a1,1,0,0,1-2,0V10.25a.25.25,0,0,0-.25-.25h-3a.25.25,0,0,0-.25.25V14a1.928,1.928,0,0,0,.422,1.2L9.3,16.923a1.536,1.536,0,0,0,1.2.577h3a1.534,1.534,0,0,0,1.2-.578L16.078,15.2A1.928,1.928,0,0,0,16.5,14V10.25a.25.25,0,0,0-.25-.25Z"/></svg>