<svg xmlns="http://www.w3.org/2000/svg" viewBox="0 0 24 24"><title>microphone-sing-man</title><path d="M18.041,18.907a1.863,1.863,0,0,1-2.082,0,.75.75,0,1,0-.918,1.187,3.253,3.253,0,0,0,3.918,0,.75.75,0,1,0-.918-1.187Z"/><circle cx="19" cy="17" r="0.75"/><circle cx="15" cy="17" r="0.75"/><path d="M18.766,10.344a.246.246,0,0,0-.073.047,3.241,3.241,0,0,1-5.005-.762.248.248,0,0,0-.332-.095A7.148,7.148,0,0,0,10,16v1a7,7,0,0,0,14,0V16a8.587,8.587,0,0,0-2.855-6.5.25.25,0,0,0-.257-.039ZM17,22a5.006,5.006,0,0,1-5-5v-.561a.25.25,0,0,1,.146-.227,5.291,5.291,0,0,0,1.713-1.543.249.249,0,0,1,.323-.051,4.943,4.943,0,0,0,5.636,0,.249.249,0,0,1,.323.051,5.291,5.291,0,0,0,1.713,1.543.25.25,0,0,1,.146.227V17A5.006,5.006,0,0,1,17,22Z"/><path d="M7.75,12.25a.5.5,0,0,1,0-1h1.5A.25.25,0,0,0,9.5,11V9.5a.25.25,0,0,0-.25-.25H7.75a.5.5,0,0,1,0-1h1.5A.25.25,0,0,0,9.5,8a3,3,0,0,0-6,0,.25.25,0,0,0,.25.25h2a.5.5,0,0,1,0,1h-2a.25.25,0,0,0-.25.25V11a.25.25,0,0,0,.25.25h2a.5.5,0,0,1,0,1h-2a.25.25,0,0,0-.25.25,3,3,0,0,0,6,0,.25.25,0,0,0-.25-.25Z"/><path d="M6.5,3.5A4.505,4.505,0,0,1,11,8a1,1,0,0,0,2,0A6.511,6.511,0,0,0,7.7,1.612a.25.25,0,0,1-.2-.245V1a1,1,0,0,0-2,0v.367a.25.25,0,0,1-.2.245A6.511,6.511,0,0,0,0,8,1,1,0,0,0,2,8,4.505,4.505,0,0,1,6.5,3.5Z"/><path d="M24,2A2,2,0,0,0,21.632.034c-.041.008-3.572,1.14-3.572,1.14A2,2,0,0,0,16.5,3.126V6.11a.25.25,0,0,1-.188.242A1.75,1.75,0,1,0,18.5,8.046l0-4.738a.249.249,0,0,1,.174-.238l3-.957A.25.25,0,0,1,22,2.351V4.11a.25.25,0,0,1-.188.242A1.75,1.75,0,1,0,24,6.046Z"/></svg>