<svg xmlns="http://www.w3.org/2000/svg" viewBox="0 0 24 24"><title>gaming-100</title><path d="M12,11a.5.5,0,0,0-.5.5v2a.5.5,0,0,0,1,0v-2A.5.5,0,0,0,12,11Z"/><path d="M16.5,11a.5.5,0,0,0-.5.5v2a.5.5,0,0,0,1,0v-2A.5.5,0,0,0,16.5,11Z"/><path d="M21.919,8.2a.5.5,0,0,1-.22-.532A4.505,4.505,0,0,0,16.329,2.3a.5.5,0,0,1-.532-.22,4.5,4.5,0,0,0-7.594,0,.5.5,0,0,1-.531.221A4.5,4.5,0,0,0,2.3,7.67a.5.5,0,0,1-.22.532,4.506,4.506,0,0,0,0,7.6.5.5,0,0,1,.22.532A4.505,4.505,0,0,0,7.671,21.7a.5.5,0,0,1,.532.22,4.505,4.505,0,0,0,7.594,0,.5.5,0,0,1,.532-.22,4.506,4.506,0,0,0,5.37-5.37.5.5,0,0,1,.22-.532,4.506,4.506,0,0,0,0-7.6ZM8.5,15h-2a.5.5,0,0,1,0-1,.5.5,0,0,0,.5-.5v-2a.5.5,0,0,0-.5-.5.5.5,0,0,1,0-1H7a1,1,0,0,1,1,1v2.5a.5.5,0,0,0,.5.5.5.5,0,0,1,0,1Zm5-1.5a1.5,1.5,0,0,1-3,0v-2a1.5,1.5,0,0,1,3,0Zm4.5,0a1.5,1.5,0,0,1-3,0v-2a1.5,1.5,0,0,1,3,0Z"/></svg>