<svg xmlns="http://www.w3.org/2000/svg" viewBox="0 0 24 24"><title>gaming-second-place</title><path d="M15.052,11.329a.25.25,0,0,0-.336.234v1.329a.251.251,0,0,0,.336.234.927.927,0,0,0,0-1.8Z"/><path d="M23.511,10.254a1.566,1.566,0,0,0,.369-1.74A1.632,1.632,0,0,0,22.357,7.5H17.476a1,1,0,0,1-.89-.543L13.464.885a1.653,1.653,0,0,0-2.928,0L7.414,6.957a1,1,0,0,1-.89.543H1.643A1.633,1.633,0,0,0,.12,8.514a1.564,1.564,0,0,0,.369,1.739L4.7,14.367a1,1,0,0,1,.247,1.04L2.737,21.875A1.566,1.566,0,0,0,3.208,23.6a1.656,1.656,0,0,0,1.846.217l6.488-3.347a.994.994,0,0,1,.916,0l6.488,3.346a1.653,1.653,0,0,0,1.846-.216,1.566,1.566,0,0,0,.471-1.722L19.05,15.407a1,1,0,0,1,.248-1.04Zm-13.572,4.8a.249.249,0,0,0,.227.145H11a.75.75,0,0,1,0,1.5H8a.75.75,0,0,1-.571-1.236L10.042,12.4a.628.628,0,0,0,.208-.447.7.7,0,0,0-1.37-.223.749.749,0,1,1-1.422-.474,2.2,2.2,0,0,1,4.292.7,2.084,2.084,0,0,1-.607,1.465l-1.167,1.37A.248.248,0,0,0,9.939,15.055Zm5.185-.408a.5.5,0,0,0-.408.491v.812a.75.75,0,0,1-1.5,0V10.5a.75.75,0,0,1,.75-.75H14.6a2.571,2.571,0,0,1,2.65,2.478A2.522,2.522,0,0,1,15.124,14.647Z"/></svg>