<svg xmlns="http://www.w3.org/2000/svg" viewBox="0 0 24 24"><title>gaming-treasure-add</title><path d="M3.75,7H.5a.5.5,0,0,0-.5.5V14a2.5,2.5,0,0,0,2.5,2.5H3.75a.5.5,0,0,0,.5-.5V7.5A.5.5,0,0,0,3.75,7Z"/><path d="M20.5,7H17.25a.5.5,0,0,0-.5.5V9a.5.5,0,0,0,.515.5,7.967,7.967,0,0,1,3.058.512A.5.5,0,0,0,21,9.547V7.5A.5.5,0,0,0,20.5,7Z"/><path d="M14.912,9.93a.5.5,0,0,0,.338-.473V7.5a.5.5,0,0,0-.5-.5H13.5a.5.5,0,0,0-.5.5v1a2.5,2.5,0,0,1-5,0v-1A.5.5,0,0,0,7.5,7H6.25a.5.5,0,0,0-.5.5V16a.5.5,0,0,0,.5.5H9.133a.5.5,0,0,0,.492-.412A8.026,8.026,0,0,1,14.912,9.93Z"/><path d="M4.5,0h-1A3.5,3.5,0,0,0,0,3.5V5a.5.5,0,0,0,.5.5H3.75a.5.5,0,0,0,.5-.5V2.5A5.329,5.329,0,0,1,4.722.355.25.25,0,0,0,4.5,0Z"/><path d="M6.25,5.5h8.5a.5.5,0,0,0,.5-.5V2.5A3.349,3.349,0,0,0,14.421.272,1,1,0,0,0,13.735,0H7.265a1,1,0,0,0-.686.272A3.351,3.351,0,0,0,5.75,2.5V5A.5.5,0,0,0,6.25,5.5Z"/><path d="M16.75,2.5V5a.5.5,0,0,0,.5.5H20.5A.5.5,0,0,0,21,5V3.5A3.5,3.5,0,0,0,17.5,0h-1a.25.25,0,0,0-.226.355A5.329,5.329,0,0,1,16.75,2.5Z"/><circle cx="10.5" cy="8.5" r="1"/><path d="M17.5,11A6.5,6.5,0,1,0,24,17.5,6.508,6.508,0,0,0,17.5,11Zm3,7.5H19a.5.5,0,0,0-.5.5v1.5a1,1,0,0,1-2,0V19a.5.5,0,0,0-.5-.5H14.5a1,1,0,0,1,0-2H16a.5.5,0,0,0,.5-.5V14.5a1,1,0,0,1,2,0V16a.5.5,0,0,0,.5.5h1.5a1,1,0,0,1,0,2Z"/></svg>