<svg id="Light" xmlns="http://www.w3.org/2000/svg" viewBox="0 0 24 24"><defs><style>.cls-1{fill:none;stroke:currentColor;stroke-linecap:round;stroke-linejoin:round;}</style></defs><title>single-neutral-actions-graduate</title><path class="cls-1" d="M10.5,14a5,5,0,0,0-10,0v3.5H3l.5,6h4L7.625,22"/><circle class="cls-1" cx="5.5" cy="4" r="3.5"/><path class="cls-1" d="M16.143,14.7,9.512,17.337l6.667,2.353a1,1,0,0,0,.666,0l6.038-2.131a.25.25,0,0,0,.009-.468L16.881,14.7A1,1,0,0,0,16.143,14.7Z"/><line class="cls-1" x1="9.512" y1="17.337" x2="9.512" y2="21"/><path class="cls-1" d="M12.512,18.4V21.55a.749.749,0,0,0,.472.7l3.25,1.2a.745.745,0,0,0,.557,0l3.25-1.2a.75.75,0,0,0,.471-.7V18.4"/></svg>