<svg id="Light" xmlns="http://www.w3.org/2000/svg" viewBox="0 0 24 24"><defs><style>.cls-1{fill:none;stroke:currentColor;stroke-linecap:round;stroke-linejoin:round;}</style></defs><title>single-neutral-actions-flight</title><path class="cls-1" d="M10.232,12.382A5,5,0,0,0,.5,14v3.5H3l.5,6h4l.5-6"/><circle class="cls-1" cx="5.5" cy="4" r="3.5"/><path class="cls-1" d="M22.255,14.8a1.61,1.61,0,0,1,1.155,1.037,1.522,1.522,0,0,1,.09.513,1.591,1.591,0,0,1-.743,1.378L13.6,23.415a.561.561,0,0,1-.621-.018L9.616,21.04a.31.31,0,0,1-.047-.437.29.29,0,0,1,.053-.052l1.409-1.243a.31.31,0,0,1,.3-.051L13.1,20.309l2.24-1.563-4.245-2.628a.385.385,0,0,1-.044-.544.378.378,0,0,1,.062-.058l1.038-.769a.386.386,0,0,1,.364-.052l5.85,2.178,2.706-1.847A1.5,1.5,0,0,1,22.255,14.8Z"/></svg>