<svg id="Light" xmlns="http://www.w3.org/2000/svg" viewBox="0 0 24 24"><defs><style>.cls-1{fill:none;stroke:currentColor;stroke-linecap:round;stroke-linejoin:round;}</style></defs><title>single-neutral-actions-laptop</title><circle class="cls-1" cx="5.5" cy="4" r="3.5"/><path class="cls-1" d="M9,10.43A5,5,0,0,0,.5,14v3.5H3l.5,6h4l.5-6H9"/><path class="cls-1" d="M23.435,22.776a.5.5,0,0,1-.447.724h-13a.5.5,0,0,1-.447-.724L11.488,19.5h10Z"/><path class="cls-1" d="M11.988,12.5h9a.5.5,0,0,1,.5.5v6.5a0,0,0,0,1,0,0h-10a0,0,0,0,1,0,0V13A.5.5,0,0,1,11.988,12.5Z"/><line class="cls-1" x1="15.988" y1="21.5" x2="16.988" y2="21.5"/></svg>