<svg xmlns="http://www.w3.org/2000/svg" viewBox="0 0 24 24"><defs><style>.a{fill:none;stroke:currentColor;stroke-linecap:round;stroke-linejoin:round;stroke-width:1.5px;}</style></defs><title>keyboard-asterisk-2</title><path class="a" d="M21,8.953H17.2l1.9-3.295a1.5,1.5,0,0,0-.549-2.049l-2.6-1.5a1.5,1.5,0,0,0-2.049.549L12,5.953l-1.9-3.3a1.5,1.5,0,0,0-2.049-.549l-2.6,1.5A1.5,1.5,0,0,0,4.9,5.658L6.8,8.953H3a1.5,1.5,0,0,0-1.5,1.5v3a1.5,1.5,0,0,0,1.5,1.5H6.8L4.9,18.247A1.5,1.5,0,0,0,5.451,20.3l2.6,1.5a1.5,1.5,0,0,0,2.049-.549L12,17.953l1.9,3.294a1.5,1.5,0,0,0,2.049.549l2.6-1.5a1.5,1.5,0,0,0,.549-2.049l-1.9-3.294H21a1.5,1.5,0,0,0,1.5-1.5v-3A1.5,1.5,0,0,0,21,8.953Z"/></svg>