<svg xmlns="http://www.w3.org/2000/svg" viewBox="0 0 24 24"><defs><style>.a{fill:none;stroke:currentColor;stroke-linecap:round;stroke-linejoin:round;}</style></defs><title>lens-shade-1</title><path class="a" d="M8,18.5h8a0,0,0,0,1,0,0v2a1,1,0,0,1-1,1H9a1,1,0,0,1-1-1v-2A0,0,0,0,1,8,18.5Z"/><path class="a" d="M14.07.5a1.281,1.281,0,0,1,1.243.97l.763,3.054a.851.851,0,0,0,1.552.235l1.121-1.845a.86.86,0,0,1,1.584.588l-.669,4.012A1.179,1.179,0,0,1,18.5,8.5H5.5a1.179,1.179,0,0,1-1.164-.986L3.667,3.5a.86.86,0,0,1,1.584-.588L6.372,4.759a.851.851,0,0,0,1.552-.235L8.687,1.47A1.281,1.281,0,0,1,9.93.5Z"/><path class="a" d="M6,8.5H18a0,0,0,0,1,0,0v2a1,1,0,0,1-1,1H7a1,1,0,0,1-1-1v-2A0,0,0,0,1,6,8.5Z"/><line class="a" x1="9" y1="8.5" x2="9" y2="11.5"/><line class="a" x1="12" y1="8.5" x2="12" y2="11.5"/><line class="a" x1="15" y1="8.5" x2="15" y2="11.5"/><path class="a" d="M7,11.5H17a0,0,0,0,1,0,0v6a1,1,0,0,1-1,1H8a1,1,0,0,1-1-1v-6A0,0,0,0,1,7,11.5Z"/><line class="a" x1="10.5" y1="18.5" x2="10.5" y2="21.5"/><line class="a" x1="13.5" y1="18.5" x2="13.5" y2="21.5"/><path class="a" d="M9,21.5v1a1,1,0,0,0,1,1h4a1,1,0,0,0,1-1v-1"/></svg>