<svg id="Light" xmlns="http://www.w3.org/2000/svg" viewBox="0 0 24 24"><defs><style>.cls-1{fill:none;stroke:currentColor;stroke-linecap:round;stroke-linejoin:round;}</style></defs><title>single-man-book</title><path class="cls-1" d="M20,.5H4.5a1.5,1.5,0,0,0,0,3h16A.5.5,0,0,1,21,4V23a.5.5,0,0,1-.5.5H5a2,2,0,0,1-2-2V2"/><path class="cls-1" d="M17.5,18.5,14,17V15s.866-.35.866-2.5c.684,0,.944-2-.007-2a2.63,2.63,0,0,0,.44-2c-.491-2-5.331-2-5.822,0-2.066-.43-.422,1.712-.422,2-.981,0-.981,2,0,2,0,2.15.945,2.5.945,2.5v2L6.5,18.5"/></svg>