<svg id="Light" xmlns="http://www.w3.org/2000/svg" viewBox="0 0 24 24"><defs><style>.cls-1{fill:none;stroke:currentColor;stroke-linecap:round;stroke-linejoin:round;}</style></defs><title>single-man-vintage-tv</title><line class="cls-1" x1="17.5" y1="18.5" x2="17.5" y2="2.5"/><line class="cls-1" x1="19.5" y1="15.5" x2="21.5" y2="15.5"/><line class="cls-1" x1="19.5" y1="13.5" x2="21.5" y2="13.5"/><line class="cls-1" x1="19.5" y1="11.5" x2="21.5" y2="11.5"/><circle class="cls-1" cx="20.5" cy="7.5" r="1"/><line class="cls-1" x1="5" y1="18.5" x2="2.5" y2="21.5"/><line class="cls-1" x1="19" y1="18.5" x2="21.5" y2="21.5"/><rect class="cls-1" x="0.5" y="2.5" width="23" height="16" rx="1" ry="1"/><path class="cls-1" d="M14.5,16,11,14.5v-2s.866-.35.866-2.5c.684,0,.944-2-.007-2a2.63,2.63,0,0,0,.44-2c-.491-2-5.331-2-5.822,0-2.066-.43-.422,1.712-.422,2-.981,0-.981,2,0,2,0,2.15.945,2.5.945,2.5v2L3.5,16"/></svg>