<svg id="Light" xmlns="http://www.w3.org/2000/svg" viewBox="0 0 24 24"><defs><style>.cls-1{fill:none;stroke:currentColor;stroke-linecap:round;stroke-linejoin:round;}</style></defs><title>single-man-monitor</title><rect class="cls-1" x="1" y="2" width="22" height="16" rx="1" ry="1"/><line class="cls-1" x1="12" y1="18" x2="12" y2="22"/><line class="cls-1" x1="4.5" y1="22" x2="19.5" y2="22"/><path class="cls-1" d="M17.5,15.5,14,14V12s.866-.349.866-2.5c.684,0,.944-2-.007-2a2.627,2.627,0,0,0,.44-2c-.491-2-5.331-2-5.822,0-2.066-.429-.422,1.712-.422,2-.981,0-.981,2,0,2,0,2.151.945,2.5.945,2.5v2L6.5,15.5"/></svg>