<svg xmlns="http://www.w3.org/2000/svg" viewBox="0 0 24 24"><defs><style>.a{fill:none;stroke:currentColor;stroke-linecap:round;stroke-linejoin:round;}</style></defs><title>instrument-accordian</title><path class="a" d="M9.287,17.217a1,1,0,0,1-.7,1.23l-2.892.8a2,2,0,0,1-2.461-1.395L.572,8.214a2,2,0,0,1,1.4-2.461l2.891-.8a1,1,0,0,1,1.231.7Z"/><line class="a" x1="3.464" y1="7.414" x2="6.355" y2="6.615"/><line class="a" x1="3.997" y1="9.342" x2="6.888" y2="8.542"/><line class="a" x1="5.063" y1="13.197" x2="7.954" y2="12.398"/><line class="a" x1="5.596" y1="15.125" x2="8.487" y2="14.325"/><line class="a" x1="6.129" y1="17.052" x2="9.02" y2="16.253"/><path class="a" d="M14.533,17.086a1,1,0,0,0,.674,1.243l2.876.855a2,2,0,0,0,2.487-1.348L23.417,8.25A2,2,0,0,0,22.07,5.763l-2.876-.854a1,1,0,0,0-1.244.674Z"/><path class="a" d="M20.47,7.636a.25.25,0,1,1-.311.168.249.249,0,0,1,.311-.168"/><path class="a" d="M19.616,10.511a.25.25,0,1,1-.311.169.25.25,0,0,1,.311-.169"/><path class="a" d="M18.762,13.387a.25.25,0,1,1-.311.169.25.25,0,0,1,.311-.169"/><path class="a" d="M17.907,16.263a.25.25,0,1,1-.31.168.25.25,0,0,1,.31-.168"/><line class="a" x1="12" y1="13.181" x2="12" y2="4.681"/><line class="a" x1="10" y1="12.181" x2="9" y2="5.181"/><line class="a" x1="14" y1="12.181" x2="15" y2="5.181"/></svg>