<svg xmlns="http://www.w3.org/2000/svg" viewBox="0 0 24 24"><defs><style>.a{fill:none;stroke:currentColor;stroke-linecap:round;stroke-linejoin:round;}</style></defs><title>instrument-triangle</title><path class="a" d="M11.66,3.5V2a1.5,1.5,0,0,1,3,0,2.5,2.5,0,0,0,2.5,2.5h.5"/><line class="a" x1="15.403" y1="17.757" x2="22.66" y2="10.5"/><path class="a" d="M18.16,19.5h2.6a1,1,0,0,0,.824-1.567L19.913,15.5"/><path class="a" d="M17.847,12.5l-6.187-9L1.522,17.925A1,1,0,0,0,2.34,19.5H8.66"/><path class="a" d="M12.221,23.061A1.5,1.5,0,1,1,10.1,20.939l3.889-3.889a.5.5,0,0,1,.707,0l1.414,1.414a.5.5,0,0,1,0,.708Z"/></svg>