<svg xmlns="http://www.w3.org/2000/svg" viewBox="0 0 24 24"><defs><style>.a{fill:none;stroke:currentColor;stroke-linecap:round;stroke-linejoin:round;}</style></defs><title>instrument-trumpet-1</title><path class="a" d="M16.5,9.721a10.633,10.633,0,0,1,6-1.005,1.024,1.024,0,0,0,.85-.291.5.5,0,0,0,0-.707L16.282.646a.5.5,0,0,0-.707,0,1.024,1.024,0,0,0-.291.85,10.632,10.632,0,0,1-3.033,8.838l-.211.212"/><line class="a" x1="0.5" y1="20.672" x2="3.328" y2="23.5"/><path class="a" d="M12.04,10.546,1.207,21.379l1.414,1.414L13.454,11.96a2,2,0,0,1,2.828,2.829l-5.656,5.656A2,2,0,0,1,7.8,17.617L5.361,20.053A3.975,3.975,0,0,0,12.04,21.86L17.7,16.2a4,4,0,0,0-5.657-5.657Z"/><line class="a" x1="4.969" y1="14.789" x2="12.747" y2="22.567"/><line class="a" x1="4.262" y1="15.496" x2="5.676" y2="14.081"/><line class="a" x1="10.626" y1="9.132" x2="18.404" y2="16.91"/><line class="a" x1="11.333" y1="8.425" x2="9.919" y2="9.839"/><line class="a" x1="8.504" y1="11.253" x2="7.09" y2="12.667"/><line class="a" x1="7.797" y1="11.96" x2="15.575" y2="19.738"/></svg>