<svg xmlns="http://www.w3.org/2000/svg" viewBox="0 0 24 24"><defs><style>.a{fill:none;stroke:currentColor;stroke-linecap:round;stroke-linejoin:round;}</style></defs><title>instrument-pan-flute</title><rect class="a" x="1" y="16.5" width="22" height="3" rx="0.5" ry="0.5"/><path class="a" d="M22,19.5v3a1,1,0,0,1-1,1H19a1,1,0,0,1-1-1v-3"/><path class="a" d="M18,16.5V1.5a1,1,0,0,1,1-1h2a1,1,0,0,1,1,1v15"/><path class="a" d="M18,19.5v3a1,1,0,0,1-1,1H15a1,1,0,0,1-1-1v-3"/><path class="a" d="M14,16.5V4.5a1,1,0,0,1,1-1h2a1,1,0,0,1,1,1v12"/><path class="a" d="M14,19.5v3a1,1,0,0,1-1,1H11a1,1,0,0,1-1-1v-3"/><path class="a" d="M10,16.5v-9a1,1,0,0,1,1-1h2a1,1,0,0,1,1,1v9"/><path class="a" d="M10,19.5v3a1,1,0,0,1-1,1H7a1,1,0,0,1-1-1v-3"/><path class="a" d="M6,16.5v-6a1,1,0,0,1,1-1H9a1,1,0,0,1,1,1v6"/><path class="a" d="M6,19.5v3a1,1,0,0,1-1,1H3a1,1,0,0,1-1-1v-3"/><path class="a" d="M2,16.5v-3a1,1,0,0,1,1-1H5a1,1,0,0,1,1,1v3"/></svg>