<svg xmlns="http://www.w3.org/2000/svg" viewBox="0 0 24 24"><defs><style>.a{fill:none;stroke:currentColor;stroke-linecap:round;stroke-linejoin:round;}</style></defs><title>instrument-piano</title><line class="a" x1="17" y1="10.313" x2="23" y2="10.313"/><line class="a" x1="1" y1="10.313" x2="6.5" y2="10.313"/><path class="a" d="M2,10.313v5a1,1,0,0,0,1,1H21a1,1,0,0,0,1-1v-5"/><line class="a" x1="2" y1="14.313" x2="22" y2="14.313"/><line class="a" x1="3" y1="16.313" x2="3" y2="23.313"/><line class="a" x1="21" y1="16.313" x2="21" y2="23.313"/><path class="a" d="M14.5,19.313a1,1,0,0,1-1,1h-3a1,1,0,0,1,0-2h3A1,1,0,0,1,14.5,19.313Z"/><line class="a" x1="12" y1="20.313" x2="12" y2="23.313"/><line class="a" x1="11" y1="23.313" x2="13" y2="23.313"/><path class="a" d="M2,10.313,17.645.832a1,1,0,0,1,1.373.337l1.3,2.138a1,1,0,0,1-.337,1.373,1.006,1.006,0,0,0-.358,1.348L22,10.313"/><line class="a" x1="16.149" y1="4.313" x2="19.5" y2="10.313"/><path class="a" d="M9.5,8.313h5a.5.5,0,0,1,.5.5v5.5a0,0,0,0,1,0,0H9a0,0,0,0,1,0,0v-5.5A.5.5,0,0,1,9.5,8.313Z"/><line class="a" x1="11" y1="10.313" x2="13" y2="10.313"/><line class="a" x1="11" y1="12.313" x2="13" y2="12.313"/></svg>