<svg xmlns="http://www.w3.org/2000/svg" viewBox="0 0 24 24"><defs><style>.a{fill:none;stroke:currentColor;stroke-linecap:round;stroke-linejoin:round;}</style></defs><title>instrument-french-horn</title><path class="a" d="M22.5,10.5c-1.641-3.517-6.478-4.837-13-5,6.522-.163,11.359-1.483,13-5Z"/><path class="a" d="M8.5,23.5c-1.5-2-2-5.5-2-9,0,3.5-.5,7-2,9Z"/><line class="a" x1="1.752" y1="15.5" x2="17.248" y2="15.5"/><polygon class="a" points="9 12.5 12 12.5 10.5 15.5 9 12.5"/><line class="a" x1="10.5" y1="15.5" x2="10.5" y2="21.438"/><polygon class="a" points="13 12.5 16 12.5 14.5 15.5 13 12.5"/><line class="a" x1="14.5" y1="15.5" x2="14.5" y2="19.745"/><path class="a" d="M7.369,21.213A8.007,8.007,0,0,0,17.5,13.5a5,5,0,0,0-5-5h-1a5,5,0,0,0-5,5v1"/><path class="a" d="M9.5,5.5A8,8,0,0,0,5.815,20.6"/></svg>