<svg xmlns="http://www.w3.org/2000/svg" viewBox="0 0 24 24"><defs><style>.a{fill:none;stroke:currentColor;stroke-linecap:round;stroke-linejoin:round;}</style></defs><title>navigation-up-3</title><path class="a" d="M22,23.5a.5.5,0,0,0,.5-.5V11.5a11,11,0,0,0-11-11h0a11,11,0,0,0-11,11V23a.5.5,0,0,0,.5.5H9a.5.5,0,0,0,.5-.5V15c0-.275-.159-.341-.354-.147l-1.8,1.793a.5.5,0,0,1-.708,0L5.354,15.355a.5.5,0,0,1,0-.707l5.78-5.782a.5.5,0,0,1,.707,0l5.806,5.784a.5.5,0,0,1,0,.706l-1.289,1.289a.5.5,0,0,1-.708,0l-1.795-1.793c-.195-.194-.354-.128-.354.147v8a.5.5,0,0,0,.5.5Z"/></svg>