<svg xmlns="http://www.w3.org/2000/svg" viewBox="0 0 24 24"><defs><style>.a{fill:none;stroke:currentColor;stroke-linecap:round;stroke-linejoin:round;}</style></defs><title>navigation-right-2</title><path class="a" d="M12,23.5l7.429-10.68a1.547,1.547,0,0,0,0-1.641L12,.5"/><path class="a" d="M5,23.5c-.55,0-.743-.37-.429-.821l6.858-9.859a1.547,1.547,0,0,0,0-1.641L4.571,1.318C4.257.867,4.45.5,5,.5H6.5a2.152,2.152,0,0,1,1.571.82l6.858,9.859a1.547,1.547,0,0,1,0,1.641L8.071,22.677A2.153,2.153,0,0,1,6.5,23.5Z"/></svg>