<svg xmlns="http://www.w3.org/2000/svg" viewBox="0 0 24 24"><defs><style>.a{fill:none;stroke:currentColor;stroke-linecap:round;stroke-linejoin:round;}</style></defs><title>navigation-left-4</title><path class="a" d="M23.5,23a.5.5,0,0,1-.5.5H11.5a11,11,0,0,1-11-11h0a11,11,0,0,1,11-11H23a.5.5,0,0,1,.5.5v8a.5.5,0,0,1-.5.5H15c-.275,0-.341-.159-.147-.353l1.794-1.8a.5.5,0,0,0,0-.707L15.358,6.355a.5.5,0,0,0-.708,0L8.869,12.134a.5.5,0,0,0,0,.708l5.783,5.8a.5.5,0,0,0,.706,0l1.29-1.29a.5.5,0,0,0,0-.707l-1.794-1.8c-.194-.194-.128-.354.147-.354h8a.5.5,0,0,1,.5.5Z"/></svg>