<svg xmlns="http://www.w3.org/2000/svg" viewBox="0 0 24 24"><defs><style>.a{fill:none;stroke:currentColor;stroke-linecap:round;stroke-linejoin:round;}</style></defs><title>navigation-left-2</title><path class="a" d="M12,23.5,4.571,12.818a1.547,1.547,0,0,1,0-1.641L12,.5"/><path class="a" d="M19,23.5c.55,0,.743-.37.429-.821l-6.858-9.859a1.547,1.547,0,0,1,0-1.641l6.858-9.859C19.743.867,19.55.5,19,.5H17.5a2.152,2.152,0,0,0-1.571.82L9.071,11.177a1.547,1.547,0,0,0,0,1.641l6.858,9.859A2.153,2.153,0,0,0,17.5,23.5Z"/></svg>