<svg xmlns="http://www.w3.org/2000/svg" viewBox="0 0 24 24"><title>door-password-lock</title><path d="M.5,11.5h11A.5.5,0,0,0,12,11V3.5A3.5,3.5,0,0,0,8.5,0h-5A3.5,3.5,0,0,0,0,3.5V11A.5.5,0,0,0,.5,11.5Zm9-8a1,1,0,1,1-1,1A1,1,0,0,1,9.5,3.5ZM9.5,7a1,1,0,1,1-1,1A1,1,0,0,1,9.5,7ZM6,3.5a1,1,0,1,1-1,1A1,1,0,0,1,6,3.5ZM6,7A1,1,0,1,1,5,8,1,1,0,0,1,6,7ZM2.5,3.5a1,1,0,1,1-1,1A1,1,0,0,1,2.5,3.5ZM2.5,7a1,1,0,1,1-1,1A1,1,0,0,1,2.5,7Z"/><path d="M11.482,21.5H6a3,3,0,0,1,0-6h5.75a.25.25,0,0,0,.25-.25V13.5a.5.5,0,0,0-.5-.5H.5a.5.5,0,0,0-.5.5v7A3.5,3.5,0,0,0,3.5,24h5a3.486,3.486,0,0,0,3.213-2.154.25.25,0,0,0-.231-.346Z"/><path d="M21.019,17.862l-1.037-.3A14.74,14.74,0,0,0,15.939,17H6a1.5,1.5,0,0,0,0,3h9.939a14.74,14.74,0,0,0,4.043-.566l1.037-.3a.663.663,0,0,0,0-1.275Z"/></svg>