<svg xmlns="http://www.w3.org/2000/svg" viewBox="0 0 24 24"><title>lock-3</title><path d="M15,16.5a.5.5,0,0,1,0-1h.449A3.485,3.485,0,0,0,12.5,12.551V13a.5.5,0,0,1-1,0v-.449A3.485,3.485,0,0,0,8.551,15.5H9a.5.5,0,0,1,0,1H8.551A3.485,3.485,0,0,0,11.5,19.449V19a.5.5,0,0,1,1,0v.449A3.485,3.485,0,0,0,15.449,16.5ZM12,17a1,1,0,1,1,1-1A1,1,0,0,1,12,17Z"/><path d="M18.75,11.725V6.75a6.75,6.75,0,0,0-13.5,0v4.975a8,8,0,1,0,13.5,0ZM12.5,21a.5.5,0,0,1-1,0v-.551A4.474,4.474,0,0,1,7.551,16.5H7a.5.5,0,0,1,0-1h.551A4.474,4.474,0,0,1,11.5,11.551V11a.5.5,0,0,1,1,0v.551A4.474,4.474,0,0,1,16.449,15.5H17a.5.5,0,0,1,0,1h-.551A4.474,4.474,0,0,1,12.5,20.449ZM12,2.5a4.255,4.255,0,0,1,4.25,4.25V8.381a.5.5,0,0,1-.722.448,7.922,7.922,0,0,0-7.056,0,.5.5,0,0,1-.722-.448V6.75A4.255,4.255,0,0,1,12,2.5Z"/></svg>