<svg xmlns="http://www.w3.org/2000/svg" viewBox="0 0 24 24"><title>lock-shield</title><path d="M13.75,7.244a1.75,1.75,0,0,0-3.5,0v1.5a.25.25,0,0,0,.25.25h3a.25.25,0,0,0,.25-.25Z"/><path d="M24,1.953A1.959,1.959,0,0,0,22.043.006H1.959A1.958,1.958,0,0,0,.012,1.965L0,9.306A15.145,15.145,0,0,0,11.862,23.975a.974.974,0,0,0,.194.019,1,1,0,0,0,.2-.021A15.145,15.145,0,0,0,23.988,9.2ZM7.5,15.494v-5.5a1,1,0,0,1,1-1h.25V7.244a3.25,3.25,0,0,1,6.5,0v1.75h.25a1,1,0,0,1,1,1v5.5a1,1,0,0,1-1,1h-7A1,1,0,0,1,7.5,15.494Z"/><circle cx="12" cy="13.244" r="1.25"/></svg>