<svg xmlns="http://www.w3.org/2000/svg" viewBox="0 0 24 24"><title>lock-password-1</title><path d="M19.5,9.5h-.75V6.75a6.75,6.75,0,0,0-13.5,0V9.5H4.5a2,2,0,0,0-2,2V22a2,2,0,0,0,2,2h15a2,2,0,0,0,2-2V11.5A2,2,0,0,0,19.5,9.5Zm-4,8.5a1,1,0,1,1,1-1A1,1,0,0,1,15.5,18Zm1,2.5a1,1,0,1,1-1-1A1,1,0,0,1,16.5,20.5Zm-1-6a1,1,0,1,1,1-1A1,1,0,0,1,15.5,14.5ZM12,18a1,1,0,1,1,1-1A1,1,0,0,1,12,18Zm1,2.5a1,1,0,1,1-1-1A1,1,0,0,1,13,20.5Zm-1-6a1,1,0,1,1,1-1A1,1,0,0,1,12,14.5ZM8.5,18a1,1,0,1,1,1-1A1,1,0,0,1,8.5,18Zm1,2.5a1,1,0,1,1-1-1A1,1,0,0,1,9.5,20.5Zm-1-6a1,1,0,1,1,1-1A1,1,0,0,1,8.5,14.5ZM7.75,6.75a4.25,4.25,0,0,1,8.5,0V9a.5.5,0,0,1-.5.5H8.25a.5.5,0,0,1-.5-.5Z"/></svg>