<svg xmlns="http://www.w3.org/2000/svg" viewBox="0 0 24 24"><defs><style>.a{fill:none;stroke:currentColor;stroke-linecap:round;stroke-linejoin:round;stroke-width:1.5px;}</style></defs><title>asp-1</title><rect class="a" x="0.738" y="0.754" width="22.5" height="22.5" rx="1.5" ry="1.5"/><path class="a" d="M4.488,18V12a1.5,1.5,0,0,1,3,0v6"/><line class="a" x1="4.488" y1="15.004" x2="7.488" y2="15.004"/><path class="a" d="M13.488,10.5h-1.5a1.5,1.5,0,0,0-1.5,1.5c0,2.25,3,2.25,3,4.5a1.5,1.5,0,0,1-1.5,1.5h-1.5"/><line class="a" x1="16.488" y1="18.004" x2="16.488" y2="10.504"/><path class="a" d="M16.488,10.5h.75a2.25,2.25,0,0,1,0,4.5h-.75"/></svg>