<svg xmlns="http://www.w3.org/2000/svg" viewBox="0 0 24 24"><defs><style>.a{fill:none;stroke:currentColor;stroke-linecap:round;stroke-linejoin:round;stroke-width:1.5px;}</style></defs><title>bin</title><line class="a" x1="1.488" y1="3.754" x2="22.488" y2="3.754"/><line class="a" x1="1.488" y1="20.254" x2="22.488" y2="20.254"/><line class="a" x1="5.988" y1="15.754" x2="5.988" y2="8.254"/><path class="a" d="M5.988,8.254h1.5a1.5,1.5,0,0,1,1.5,1.5v.75a1.5,1.5,0,0,1-1.5,1.5h-1.5"/><path class="a" d="M5.988,12h1.5a1.5,1.5,0,0,1,1.5,1.5v.75a1.5,1.5,0,0,1-1.5,1.5h-1.5"/><line class="a" x1="11.988" y1="15.754" x2="11.988" y2="8.254"/><polyline class="a" points="14.988 15.754 14.988 8.254 17.988 15.754 17.988 8.254"/></svg>