<svg xmlns="http://www.w3.org/2000/svg" viewBox="0 0 24 24"><defs><style>.a{fill:none;stroke:currentColor;stroke-linecap:round;stroke-linejoin:round;stroke-width:1.5px;}</style></defs><title>css-1</title><rect class="a" x="0.738" y="0.754" width="22.5" height="22.5" rx="1.5" ry="1.5"/><path class="a" d="M7.488,10.5a3,3,0,0,0-3,3V15a3,3,0,0,0,3,3"/><path class="a" d="M13.488,10.5h-1.5a1.5,1.5,0,0,0-1.5,1.5c0,2.25,3,2.25,3,4.5a1.5,1.5,0,0,1-1.5,1.5h-1.5"/><path class="a" d="M19.488,10.5h-1.5a1.5,1.5,0,0,0-1.5,1.5c0,2.25,3,2.25,3,4.5a1.5,1.5,0,0,1-1.5,1.5h-1.5"/></svg>