<svg xmlns="http://www.w3.org/2000/svg" viewBox="0 0 24 24"><defs><style>.a{fill:none;stroke:currentColor;stroke-linecap:round;stroke-linejoin:round;stroke-width:1.5px;}</style></defs><title>css</title><line class="a" x1="1.488" y1="3.754" x2="22.488" y2="3.754"/><line class="a" x1="1.488" y1="20.254" x2="22.488" y2="20.254"/><path class="a" d="M7.488,8.254a3,3,0,0,0-3,3v1.5a3,3,0,0,0,3,3"/><path class="a" d="M13.488,8.254h-1.5a1.5,1.5,0,0,0-1.5,1.5c0,2.25,3,2.25,3,4.5a1.5,1.5,0,0,1-1.5,1.5h-1.5"/><path class="a" d="M19.488,8.254h-1.5a1.5,1.5,0,0,0-1.5,1.5c0,2.25,3,2.25,3,4.5a1.5,1.5,0,0,1-1.5,1.5h-1.5"/></svg>