<svg xmlns="http://www.w3.org/2000/svg" viewBox="0 0 24 24"><defs><style>.a{fill:none;stroke:currentColor;stroke-linecap:round;stroke-linejoin:round;stroke-width:1.5px;}</style></defs><title>file-py</title><path class="a" d="M11.244,23.254h-9a1.5,1.5,0,0,1-1.5-1.5V2.254a1.5,1.5,0,0,1,1.5-1.5H12.872a1.5,1.5,0,0,1,1.061.439L19.8,7.064a1.5,1.5,0,0,1,.44,1.061v4.629"/><path class="a" d="M20.244,8.254h-6a1.5,1.5,0,0,1-1.5-1.5v-6"/><path class="a" d="M20.244,15.754V18a1.5,1.5,0,1,0,3,0v-2.25"/><line class="a" x1="21.744" y1="19.504" x2="21.744" y2="23.254"/><line class="a" x1="14.244" y1="23.254" x2="14.244" y2="15.754"/><path class="a" d="M14.244,15.754h.75a2.25,2.25,0,0,1,0,4.5h-.75"/></svg>