<svg xmlns="http://www.w3.org/2000/svg" viewBox="0 0 24 24"><defs><style>.a{fill:none;stroke:currentColor;stroke-linecap:round;stroke-linejoin:round;stroke-width:1.5px;}</style></defs><title>file-exe</title><path class="a" d="M5.244,23.254h-3a1.5,1.5,0,0,1-1.5-1.5V2.254a1.5,1.5,0,0,1,1.5-1.5H12.872a1.5,1.5,0,0,1,1.061.439L19.8,7.064a1.5,1.5,0,0,1,.44,1.061v4.629"/><path class="a" d="M20.244,8.254h-6a1.5,1.5,0,0,1-1.5-1.5v-6"/><path class="a" d="M11.244,23.254h-1.5a1.5,1.5,0,0,1-1.5-1.5v-4.5a1.5,1.5,0,0,1,1.5-1.5h1.5"/><line class="a" x1="8.244" y1="20.254" x2="11.244" y2="20.254"/><path class="a" d="M23.244,23.254h-1.5a1.5,1.5,0,0,1-1.5-1.5v-4.5a1.5,1.5,0,0,1,1.5-1.5h1.5"/><line class="a" x1="20.244" y1="20.254" x2="23.244" y2="20.254"/><line class="a" x1="14.244" y1="15.754" x2="17.244" y2="23.254"/><line class="a" x1="17.244" y1="15.754" x2="14.244" y2="23.254"/></svg>