<svg xmlns="http://www.w3.org/2000/svg" viewBox="0 0 24 24"><defs><style>.a{fill:none;stroke:currentColor;stroke-linecap:round;stroke-linejoin:round;stroke-width:1.5px;}</style></defs><title>file-code-edit</title><path class="a" d="M22.618,14.123l-7.631,7.631-3.75.75.75-3.75,7.631-7.631a2.115,2.115,0,0,1,2.991,0l.009.009A2.115,2.115,0,0,1,22.618,14.123Z"/><path class="a" d="M8.238,20.254h-6a1.5,1.5,0,0,1-1.5-1.5V2.254a1.5,1.5,0,0,1,1.5-1.5H12.866a1.5,1.5,0,0,1,1.061.439L16.8,4.064a1.5,1.5,0,0,1,.44,1.061V8.254"/><rect class="a" x="6.738" y="5.254" width="3" height="4.5" rx="0.75" ry="0.75"/><line class="a" x1="3.738" y1="5.254" x2="3.738" y2="9.754"/><line class="a" x1="12.738" y1="5.254" x2="12.738" y2="9.754"/><rect class="a" x="3.738" y="12.754" width="3" height="4.5" rx="0.75" ry="0.75"/><line class="a" x1="9.738" y1="12.894" x2="9.738" y2="17.394"/></svg>