<svg xmlns="http://www.w3.org/2000/svg" viewBox="0 0 24 24"><defs><style>.a{fill:none;stroke:currentColor;stroke-linecap:round;stroke-linejoin:round;stroke-width:1.5px;}</style></defs><title>file-code-sync</title><polyline class="a" points="15 18.754 11.25 18.754 11.25 22.504"/><path class="a" d="M22.668,19.487a5.572,5.572,0,0,1-10.74-.733"/><polyline class="a" points="19.5 15.754 23.25 15.754 23.25 12.004"/><path class="a" d="M11.833,15.02a5.573,5.573,0,0,1,10.74.734"/><path class="a" d="M8.25,20.254h-6a1.5,1.5,0,0,1-1.5-1.5V2.254a1.5,1.5,0,0,1,1.5-1.5H12.879a1.5,1.5,0,0,1,1.061.439l2.871,2.871a1.5,1.5,0,0,1,.439,1.061V8.254"/><rect class="a" x="6.75" y="5.254" width="3" height="4.5" rx="0.75" ry="0.75"/><line class="a" x1="3.75" y1="5.254" x2="3.75" y2="9.754"/><line class="a" x1="12.75" y1="5.254" x2="12.75" y2="9.754"/><rect class="a" x="3.75" y="12.754" width="3" height="4.5" rx="0.75" ry="0.75"/></svg>