<svg xmlns="http://www.w3.org/2000/svg" viewBox="0 0 24 24"><defs><style>.a{fill:none;stroke:currentColor;stroke-linecap:round;stroke-linejoin:round;stroke-width:1.5px;}</style></defs><title>file-code-cash-1</title><path class="a" d="M18.738,14.254H16.7a1.342,1.342,0,0,0-.5,2.587l2.063.825a1.342,1.342,0,0,1-.5,2.588H15.738"/><line class="a" x1="17.238" y1="14.254" x2="17.238" y2="13.504"/><line class="a" x1="17.238" y1="21.004" x2="17.238" y2="20.254"/><circle class="a" cx="17.238" cy="17.254" r="6"/><path class="a" d="M8.238,20.254h-6a1.5,1.5,0,0,1-1.5-1.5V2.254a1.5,1.5,0,0,1,1.5-1.5H12.866a1.5,1.5,0,0,1,1.061.439L16.8,4.064a1.5,1.5,0,0,1,.44,1.061V8.254"/><polyline class="a" points="8.988 6.004 11.238 8.254 8.988 10.504"/><polyline class="a" points="5.988 6.004 3.738 8.254 5.988 10.504"/></svg>