<svg xmlns="http://www.w3.org/2000/svg" viewBox="0 0 24 24"><defs><style>.a{fill:none;stroke:currentColor;stroke-linecap:round;stroke-linejoin:round;stroke-width:1.5px;}</style></defs><title>file-code-information</title><circle class="a" cx="17.241" cy="17.254" r="6"/><line class="a" x1="17.241" y1="20.254" x2="17.241" y2="17.254"/><path class="a" d="M17.241,14.314a.375.375,0,1,0,.375.375.375.375,0,0,0-.375-.375"/><path class="a" d="M8.241,20.254h-6a1.5,1.5,0,0,1-1.5-1.5V2.254a1.5,1.5,0,0,1,1.5-1.5H12.869a1.5,1.5,0,0,1,1.061.439L16.8,4.064a1.5,1.5,0,0,1,.44,1.061V8.254"/><rect class="a" x="6.741" y="5.254" width="3" height="4.5" rx="0.75" ry="0.75"/><line class="a" x1="3.741" y1="5.254" x2="3.741" y2="9.754"/><line class="a" x1="12.741" y1="5.254" x2="12.741" y2="9.754"/><rect class="a" x="3.741" y="12.754" width="3" height="4.5" rx="0.75" ry="0.75"/></svg>