<svg xmlns="http://www.w3.org/2000/svg" viewBox="0 0 24 24"><defs><style>.a{fill:none;stroke:currentColor;stroke-linecap:round;stroke-linejoin:round;stroke-width:1.5px;}</style></defs><title>file-dat</title><path class="a" d="M5.25,23.254h-3a1.5,1.5,0,0,1-1.5-1.5V2.254a1.5,1.5,0,0,1,1.5-1.5H12.879a1.5,1.5,0,0,1,1.06.439l5.872,5.871a1.5,1.5,0,0,1,.439,1.061v4.629"/><path class="a" d="M20.25,8.254h-6a1.5,1.5,0,0,1-1.5-1.5v-6"/><path class="a" d="M8.25,23.254a3,3,0,0,0,3-3v-1.5a3,3,0,0,0-3-3Z"/><path class="a" d="M14.25,23.254v-6a1.5,1.5,0,0,1,3,0v6"/><line class="a" x1="14.25" y1="20.254" x2="17.25" y2="20.254"/><line class="a" x1="21.75" y1="23.254" x2="21.75" y2="15.754"/><line class="a" x1="20.25" y1="15.754" x2="23.25" y2="15.754"/></svg>