<svg xmlns="http://www.w3.org/2000/svg" viewBox="0 0 24 24"><defs><style>.a{fill:none;stroke:currentColor;stroke-linecap:round;stroke-linejoin:round;stroke-width:1.5px;}</style></defs><title>file-code-star-1</title><path class="a" d="M17.953,11.681l1.539,4.07h3a.735.735,0,0,1,.518,1.283l-2.6,1.815,1.441,3.313a.785.785,0,0,1-1.118.983l-3.483-1.961-3.483,1.961a.785.785,0,0,1-1.118-.983l1.441-3.313-2.6-1.815A.734.734,0,0,1,12,15.751h3l1.542-4.07A.8.8,0,0,1,17.953,11.681Z"/><path class="a" d="M8.25,20.254h-6a1.5,1.5,0,0,1-1.5-1.5V2.254a1.5,1.5,0,0,1,1.5-1.5H12.879a1.5,1.5,0,0,1,1.061.439l2.871,2.871a1.5,1.5,0,0,1,.439,1.061V8.254"/><polyline class="a" points="9 6.004 11.25 8.254 9 10.504"/><polyline class="a" points="6 6.004 3.75 8.254 6 10.504"/></svg>