<svg xmlns="http://www.w3.org/2000/svg" viewBox="0 0 24 24"><defs><style>.a{fill:none;stroke:currentColor;stroke-linecap:round;stroke-linejoin:round;stroke-width:1.5px;}</style></defs><title>file-c-plus-plus</title><path class="a" d="M.75,12.753V2.253a1.5,1.5,0,0,1,1.5-1.5H12.879a1.5,1.5,0,0,1,1.06.44l5.872,5.871a1.5,1.5,0,0,1,.439,1.061v4.628"/><path class="a" d="M20.25,8.253h-6a1.5,1.5,0,0,1-1.5-1.5v-6"/><path class="a" d="M5.25,15.753a3,3,0,0,0-3,3v1.5a3,3,0,0,0,3,3"/><line class="a" x1="8.25" y1="20.253" x2="14.25" y2="20.253"/><line class="a" x1="11.25" y1="23.253" x2="11.25" y2="17.253"/><line class="a" x1="17.25" y1="20.253" x2="23.25" y2="20.253"/><line class="a" x1="20.25" y1="23.253" x2="20.25" y2="17.253"/></svg>