<svg xmlns="http://www.w3.org/2000/svg" viewBox="0 0 24 24"><defs><style>.a{fill:none;stroke:currentColor;stroke-linecap:round;stroke-linejoin:round;stroke-width:1.5px;}</style></defs><title>file-bin</title><path class="a" d="M8.241,23.253h-6a1.5,1.5,0,0,1-1.5-1.5V2.253a1.5,1.5,0,0,1,1.5-1.5H12.869a1.5,1.5,0,0,1,1.061.44L19.8,7.064a1.5,1.5,0,0,1,.44,1.061v4.628"/><path class="a" d="M20.241,8.253h-6a1.5,1.5,0,0,1-1.5-1.5v-6"/><line class="a" x1="11.241" y1="23.253" x2="11.241" y2="15.753"/><path class="a" d="M11.241,15.753h1.5a1.5,1.5,0,0,1,1.5,1.5V18a1.5,1.5,0,0,1-1.5,1.5h-1.5"/><path class="a" d="M11.241,19.5h1.5a1.5,1.5,0,0,1,1.5,1.5v.75a1.5,1.5,0,0,1-1.5,1.5h-1.5"/><line class="a" x1="17.241" y1="23.254" x2="17.241" y2="15.754"/><polyline class="a" points="20.241 23.254 20.241 15.754 23.241 23.254 23.241 15.754"/></svg>