<svg xmlns="http://www.w3.org/2000/svg" viewBox="0 0 24 24"><defs><style>.a{fill:none;stroke:currentColor;stroke-linecap:round;stroke-linejoin:round;stroke-width:1.5px;}</style></defs><title>file-code-remove</title><circle class="a" cx="17.249" cy="17.254" r="6"/><line class="a" x1="19.499" y1="15.003" x2="14.999" y2="19.503"/><line class="a" x1="14.999" y1="15.003" x2="19.499" y2="19.503"/><path class="a" d="M8.249,20.254h-6a1.5,1.5,0,0,1-1.5-1.5V2.254a1.5,1.5,0,0,1,1.5-1.5H12.878a1.5,1.5,0,0,1,1.06.439L16.81,4.064a1.5,1.5,0,0,1,.439,1.061V8.254"/><rect class="a" x="6.749" y="5.254" width="3" height="4.5" rx="0.75" ry="0.75"/><line class="a" x1="3.749" y1="5.254" x2="3.749" y2="9.754"/><line class="a" x1="12.749" y1="5.254" x2="12.749" y2="9.754"/><rect class="a" x="3.749" y="12.754" width="3" height="4.5" rx="0.75" ry="0.75"/></svg>