<svg xmlns="http://www.w3.org/2000/svg" viewBox="0 0 24 24"><defs><style>.a{fill:none;stroke:currentColor;stroke-linecap:round;stroke-linejoin:round;stroke-width:1.5px;}</style></defs><title>file-code-refresh-1</title><polyline class="a" points="19.5 15.754 23.25 15.754 23.25 11.254"/><path class="a" d="M23.061,15.754A6,6,0,1,0,21.94,21"/><path class="a" d="M8.25,20.254h-6a1.5,1.5,0,0,1-1.5-1.5V2.254a1.5,1.5,0,0,1,1.5-1.5H12.879a1.5,1.5,0,0,1,1.061.439l2.871,2.871a1.5,1.5,0,0,1,.439,1.061V8.254"/><polyline class="a" points="9 6.004 11.25 8.254 9 10.504"/><polyline class="a" points="6 6.004 3.75 8.254 6 10.504"/></svg>