<svg xmlns="http://www.w3.org/2000/svg" viewBox="0 0 24 24"><defs><style>.a{fill:none;stroke:currentColor;stroke-linecap:round;stroke-linejoin:round;stroke-width:1.5px;}</style></defs><title>iso</title><line class="a" x1="1.502" y1="3.753" x2="22.502" y2="3.753"/><line class="a" x1="1.502" y1="20.253" x2="22.502" y2="20.253"/><line class="a" x1="6.002" y1="15.753" x2="6.002" y2="8.253"/><path class="a" d="M12,8.253H10.5A1.5,1.5,0,0,0,9,9.753c0,2.25,3,2.25,3,4.5a1.5,1.5,0,0,1-1.5,1.5H9"/><path class="a" d="M16.5,8.253a1.5,1.5,0,0,0-1.5,1.5v4.5a1.5,1.5,0,0,0,3,0v-4.5A1.5,1.5,0,0,0,16.5,8.253Z"/></svg>