<svg xmlns="http://www.w3.org/2000/svg" viewBox="0 0 24 24"><defs><style>.a{fill:none;stroke:currentColor;stroke-linecap:round;stroke-linejoin:round;stroke-width:1.5px;}</style></defs><title>java</title><line class="a" x1="0.738" y1="3.754" x2="23.238" y2="3.754"/><line class="a" x1="0.738" y1="20.254" x2="23.238" y2="20.254"/><path class="a" d="M3.738,8.254v6a1.5,1.5,0,0,1-1.5,1.5H.738"/><path class="a" d="M6.738,15.754v-6a1.5,1.5,0,0,1,3,0v6"/><line class="a" x1="6.738" y1="12.754" x2="9.738" y2="12.754"/><path class="a" d="M18.738,15.754v-6a1.5,1.5,0,1,1,3,0v6"/><line class="a" x1="18.738" y1="12.754" x2="21.738" y2="12.754"/><path class="a" d="M12.738,8.254V10.8a8.924,8.924,0,0,0,1.5,4.954,8.932,8.932,0,0,0,1.5-4.954V8.254"/></svg>