<svg xmlns="http://www.w3.org/2000/svg" viewBox="0 0 24 24"><defs><style>.a{fill:none;stroke:currentColor;stroke-linecap:round;stroke-linejoin:round;stroke-width:1.5px;}</style></defs><title>sql</title><line class="a" x1="1.5" y1="3.754" x2="22.5" y2="3.754"/><line class="a" x1="1.5" y1="20.254" x2="22.5" y2="20.254"/><path class="a" d="M16.5,8.254v6a1.5,1.5,0,0,0,1.5,1.5h1.5"/><path class="a" d="M7.5,8.254H6a1.5,1.5,0,0,0-1.5,1.5c0,2.25,3,2.25,3,4.5a1.5,1.5,0,0,1-1.5,1.5H4.5"/><path class="a" d="M13.5,14.254a1.5,1.5,0,0,1-3,0v-4.5a1.5,1.5,0,1,1,3,0Z"/><line class="a" x1="12" y1="15.754" x2="13.5" y2="17.254"/></svg>