<svg xmlns="http://www.w3.org/2000/svg" viewBox="0 0 24 24"><defs><style>.a{fill:none;stroke:currentColor;stroke-linecap:round;stroke-linejoin:round;}</style></defs><title>file-copyright-dollar</title><path class="a" d="M13.5,23.5h9a1,1,0,0,0,1-1V6.475A5.975,5.975,0,0,0,17.525.5H5.5a1,1,0,0,0-1,1v7"/><path class="a" d="M18.5.58V4.5a1,1,0,0,0,1,1h3.92"/><circle class="a" cx="6.5" cy="17.5" r="6"/><path class="a" d="M5,19a1.5,1.5,0,1,0,1.5-1.5A1.5,1.5,0,1,1,8,16"/><line class="a" x1="6.5" y1="13.5" x2="6.5" y2="14.5"/><line class="a" x1="6.5" y1="20.5" x2="6.5" y2="21.5"/></svg>