<svg xmlns="http://www.w3.org/2000/svg" viewBox="0 0 24 24"><defs><style>.a{fill:none;stroke:currentColor;stroke-linecap:round;stroke-linejoin:round;}</style></defs><title>file-copyright-cc</title><path class="a" d="M13.5,23.5h9a1,1,0,0,0,1-1V6.475A5.975,5.975,0,0,0,17.525.5H5.5a1,1,0,0,0-1,1v7"/><path class="a" d="M18.5.58V4.5a1,1,0,0,0,1,1h3.92"/><circle class="a" cx="6.5" cy="17.5" r="6"/><path class="a" d="M5.5,19.5a2.006,2.006,0,0,1-2-2h0a2.006,2.006,0,0,1,2-2"/><path class="a" d="M9.5,19.5a2.006,2.006,0,0,1-2-2h0a2.006,2.006,0,0,1,2-2"/></svg>