<svg xmlns="http://www.w3.org/2000/svg" viewBox="0 0 24 24"><defs><style>.a{fill:none;stroke:currentColor;stroke-linecap:round;stroke-linejoin:round;stroke-width:1.5px;}</style></defs><title>electronics-rocker-switch</title><rect class="a" x="0.75" y="0.75" width="22.5" height="22.5" rx="1.5" ry="1.5"/><path class="a" d="M15.714,20.25H8.25a1.5,1.5,0,0,1-1.5-1.5V5.25a1.5,1.5,0,0,1,1.5-1.5H18a1.5,1.5,0,0,1,1.392,2.057L17.214,11.25v7.5A1.5,1.5,0,0,1,15.714,20.25Z"/><polyline class="a" points="11.25 20.25 11.25 11.25 14.25 3.75"/><line class="a" x1="11.25" y1="11.25" x2="17.214" y2="11.25"/><path class="a" d="M3.75,3.375a.375.375,0,1,0,.375.375.375.375,0,0,0-.375-.375h0"/><path class="a" d="M3.75,19.875a.375.375,0,1,0,.375.375.375.375,0,0,0-.375-.375h0"/><path class="a" d="M20.25,19.875a.375.375,0,1,0,.375.375.375.375,0,0,0-.375-.375h0"/></svg>