<svg xmlns="http://www.w3.org/2000/svg" viewBox="0 0 24 24"><defs><style>.a{fill:none;stroke:currentColor;stroke-linecap:round;stroke-linejoin:round;}</style></defs><title>like-shine</title><path class="a" d="M.5,12.5h2a7.949,7.949,0,0,0,7.5-8c0-1.581,3-1.781,3,1.219A31.593,31.593,0,0,1,12,11.5h8a1.5,1.5,0,0,1,0,3H19a1.5,1.5,0,0,1,0,3H18"/><path class="a" d="M18,17.5h0a1.5,1.5,0,0,1,0,3H17a1.5,1.5,0,0,1,0,3H10.5c-4,0-2-2-10-2"/><line class="a" x1="3.5" y1="7.5" x2="3.5" y2="5.5"/><line class="a" x1="2.5" y1="6.5" x2="4.5" y2="6.5"/><line class="a" x1="7.5" y1="2.5" x2="7.5" y2="0.5"/><line class="a" x1="6.5" y1="1.5" x2="8.5" y2="1.5"/><line class="a" x1="17.5" y1="4.5" x2="17.5" y2="2.5"/><line class="a" x1="16.5" y1="3.5" x2="18.5" y2="3.5"/><line class="a" x1="22.5" y1="9.5" x2="22.5" y2="7.5"/><line class="a" x1="21.5" y1="8.5" x2="23.5" y2="8.5"/></svg>