<svg xmlns="http://www.w3.org/2000/svg" viewBox="0 0 24 24"><defs><style>.a{fill:none;stroke:currentColor;stroke-linecap:round;stroke-linejoin:round;}</style></defs><title>music-book-note</title><path class="a" d="M15,13.25H1a.5.5,0,0,1-.5-.5v-9a.5.5,0,0,1,.5-.5h.5"/><polyline class="a" points="17.5 3.25 18.5 3.25 18.5 9.25"/><path class="a" d="M9.5,5.25c0-1.849,1.829-2.9,5.488-2.994a.5.5,0,0,1,.512.5v7a.5.5,0,0,1-.488.5C11.337,10.34,9.5,11.4,9.5,13.25c0-1.853-1.837-2.91-5.512-2.994a.5.5,0,0,1-.488-.5v-7a.5.5,0,0,1,.512-.5C7.671,2.345,9.5,3.4,9.5,5.25Z"/><line class="a" x1="9.5" y1="5.25" x2="9.5" y2="13.25"/><line class="a" x1="9.5" y1="13.25" x2="9.5" y2="23.25"/><line class="a" x1="9.5" y1="19.75" x2="13" y2="23.25"/><line class="a" x1="9.5" y1="19.75" x2="6" y2="23.25"/><circle class="a" cx="16.25" cy="17" r="1.25"/><circle class="a" cx="21.25" cy="15.5" r="1.25"/><path class="a" d="M17.5,17V12.583a1,1,0,0,1,.684-.948l3-.834a1,1,0,0,1,1.316.949V15.5"/><circle class="a" cx="22.25" cy="5" r="1.25"/><line class="a" x1="23.5" y1="5" x2="23.5" y2="0.75"/></svg>