<svg xmlns="http://www.w3.org/2000/svg" viewBox="0 0 24 24"><defs><style>.a{fill:none;stroke:currentColor;stroke-linecap:round;stroke-linejoin:round;}</style></defs><title>music-clef-sheet</title><path class="a" d="M6.5,20.5v1a2,2,0,0,0,4,0V2.5a2,2,0,0,1,4,0,3.2,3.2,0,0,1-1.152,2.46L6.97,10.275A4.086,4.086,0,0,0,9.586,17.5H10A3.5,3.5,0,0,0,13.5,14a2.5,2.5,0,0,0-5,0"/><circle class="a" cx="7.5" cy="20.5" r="1"/><line class="a" x1="0.5" y1="4.5" x2="8.5" y2="4.5"/><line class="a" x1="16.5" y1="4.5" x2="23.5" y2="4.5"/><line class="a" x1="0.5" y1="9.5" x2="4" y2="9.5"/><line class="a" x1="15.5" y1="9.5" x2="23.5" y2="9.5"/><line class="a" x1="0.5" y1="14.5" x2="3" y2="14.5"/><line class="a" x1="15.5" y1="14.5" x2="23.5" y2="14.5"/><line class="a" x1="0.5" y1="19.5" x2="4.5" y2="19.5"/><line class="a" x1="13.5" y1="19.5" x2="23.5" y2="19.5"/></svg>