<svg xmlns="http://www.w3.org/2000/svg" viewBox="0 0 24 24"><defs><style>.a{fill:none;stroke:currentColor;stroke-linecap:round;stroke-linejoin:round;}</style></defs><title>music-basket-buy</title><path class="a" d="M20.779,21.579a2,2,0,0,1-1.973,1.671H5.194a2,2,0,0,1-1.973-1.671L1.5,11.25h21Z"/><path class="a" d="M23.5,10.25a1,1,0,0,1-1,1H1.5a1,1,0,0,1,0-2h21A1,1,0,0,1,23.5,10.25Z"/><line class="a" x1="3.5" y1="6.75" x2="9.5" y2="0.75"/><line class="a" x1="20.5" y1="6.75" x2="14.5" y2="0.75"/><path class="a" d="M10.5,19.261a1.035,1.035,0,0,1-1,1,1,1,0,0,1,0-2h1Z"/><path class="a" d="M15.5,19.261a1.035,1.035,0,0,1-1,1,1,1,0,1,1,0-2h1Z"/><path class="a" d="M10.5,18.261v-3a1,1,0,0,1,1-1h3a1,1,0,0,1,1,1v3"/></svg>