<svg xmlns="http://www.w3.org/2000/svg" viewBox="0 0 24 24"><title>flag-settings</title><path d="M23.382,2.174a1.586,1.586,0,0,0-1.616-.1,12.136,12.136,0,0,1-4.126.885A18.636,18.636,0,0,1,12.9,1.98C9.543,1,8.38.768,5.806,1.1A1.5,1.5,0,0,0,4.5,2.59V17.61A1.5,1.5,0,0,0,6.172,19.1c2.255-.259,3.305-.039,6.442.879A19.314,19.314,0,0,0,17.64,21a14.09,14.09,0,0,0,5.08-1.152c.672-.256,1.28-.6,1.28-1.528V3.4A1.5,1.5,0,0,0,23.382,2.174Zm-5.237,9.133.767.828A1.248,1.248,0,0,1,17.723,14.2l-1.1-.255a.493.493,0,0,0-.579.337l-.329,1.083a1.242,1.242,0,0,1-2.378,0l-.33-1.083a.492.492,0,0,0-.579-.337l-1.1.255a1.248,1.248,0,0,1-1.189-2.067l.767-.828a.5.5,0,0,0,0-.676L10.143,9.8a1.248,1.248,0,0,1,1.19-2.067l1.1.254a.486.486,0,0,0,.579-.337l.33-1.082a1.242,1.242,0,0,1,2.378,0l.329,1.082a.49.49,0,0,0,.579.337l1.1-.254A1.247,1.247,0,0,1,18.912,9.8l-.768.828A.5.5,0,0,0,18.145,11.307Z"/><path d="M1.5,0A1.5,1.5,0,0,0,0,1.5v21a1.5,1.5,0,0,0,3,0V1.5A1.5,1.5,0,0,0,1.5,0Z"/><path d="M17.125,10.969a2.6,2.6,0,1,0-2.6,2.6A2.6,2.6,0,0,0,17.125,10.969Zm-2.6,1.1a1.1,1.1,0,1,1,1.1-1.1A1.1,1.1,0,0,1,14.528,12.066Z"/></svg>