<svg xmlns="http://www.w3.org/2000/svg" viewBox="0 0 24 24"><title>flag-skull</title><path d="M23.382,2.174a1.587,1.587,0,0,0-1.616-.1,12.136,12.136,0,0,1-4.126.885A18.636,18.636,0,0,1,12.9,1.98C9.543,1,8.38.768,5.806,1.1A1.5,1.5,0,0,0,4.5,2.59V17.61A1.5,1.5,0,0,0,6.172,19.1c2.255-.259,3.305-.039,6.442.879A19.314,19.314,0,0,0,17.64,21a14.09,14.09,0,0,0,5.08-1.152c.672-.256,1.28-.6,1.28-1.528V3.4A1.5,1.5,0,0,0,23.382,2.174ZM12,16.732a1,1,0,0,1-1-1V14.418a1.893,1.893,0,0,0-.409-1.208,4.925,4.925,0,0,1-1.081-2.866,5.066,5.066,0,0,1,4.07-5.261,5.061,5.061,0,0,1,4.82,8.138,1.93,1.93,0,0,0-.4,1.235v1.276a1,1,0,0,1-2,0,.25.25,0,0,0-.5,0,1,1,0,0,1-2,0,.25.25,0,0,0-.5,0A1,1,0,0,1,12,16.732Z"/><path d="M1.5,0A1.5,1.5,0,0,0,0,1.5v21a1.5,1.5,0,0,0,3,0V1.5A1.5,1.5,0,0,0,1.5,0Z"/><circle cx="12.624" cy="10.232" r="1.25"/><circle cx="16.374" cy="10.232" r="1.25"/></svg>