<svg xmlns="http://www.w3.org/2000/svg" viewBox="0 0 24 24"><defs><style>.a{fill:none;stroke:currentColor;stroke-linecap:round;stroke-linejoin:round;stroke-width:1.5px;}</style></defs><title>android-1</title><path class="a" d="M18.75,23.253H5.25a1.5,1.5,0,0,1-1.5-1.5v-10.5h16.5v10.5A1.5,1.5,0,0,1,18.75,23.253Z"/><path class="a" d="M20.25,10.5a8.25,8.25,0,0,0-16.5,0v.75h16.5Z"/><path class="a" d="M8.625,6.753a.375.375,0,1,1-.375.375.375.375,0,0,1,.375-.375"/><path class="a" d="M15.375,6.753A.375.375,0,1,1,15,7.128a.375.375,0,0,1,.375-.375"/><line class="a" x1="7.359" y1="3.682" x2="5.25" y2="0.753"/><line class="a" x1="16.641" y1="3.682" x2="18.75" y2="0.753"/><path class="a" d="M3.75,11.253a3,3,0,0,0-3,3v6"/><path class="a" d="M20.25,11.253a3,3,0,0,1,3,3v6"/></svg>