<svg xmlns="http://www.w3.org/2000/svg" viewBox="0 0 24 24"><defs><style>.a{fill:none;stroke:currentColor;stroke-linecap:round;stroke-linejoin:round;stroke-width:1.5px;}</style></defs><title>android-settings</title><circle class="a" cx="17.25" cy="16.503" r="1.5"/><path class="a" d="M18.524,10.7l.442,1.452a.993.993,0,0,0,1.174.681l1.472-.341a1.339,1.339,0,0,1,1.275,2.218l-1.031,1.111a1,1,0,0,0,0,1.362L22.887,18.3a1.339,1.339,0,0,1-1.275,2.218l-1.472-.341a.993.993,0,0,0-1.174.681l-.442,1.452a1.33,1.33,0,0,1-2.548,0l-.442-1.452a.993.993,0,0,0-1.174-.681l-1.472.341A1.339,1.339,0,0,1,11.613,18.3l1.031-1.112a1,1,0,0,0,0-1.362l-1.031-1.111a1.339,1.339,0,0,1,1.275-2.218l1.472.341a.993.993,0,0,0,1.174-.681l.442-1.452A1.33,1.33,0,0,1,18.524,10.7Z"/><path class="a" d="M9.75,11.253h-6v10.5a1.5,1.5,0,0,0,1.5,1.5h4.5"/><path class="a" d="M19.94,8.257A8.251,8.251,0,0,0,3.75,10.5v.75"/><path class="a" d="M8.625,6.753a.375.375,0,1,1-.375.375.375.375,0,0,1,.375-.375"/><path class="a" d="M15.375,6.753A.375.375,0,1,1,15,7.128a.375.375,0,0,1,.375-.375"/><line class="a" x1="7.359" y1="3.682" x2="5.25" y2="0.753"/><line class="a" x1="16.641" y1="3.682" x2="18.75" y2="0.753"/><path class="a" d="M3.75,11.253a3,3,0,0,0-3,3v6"/></svg>