<svg xmlns="http://www.w3.org/2000/svg" viewBox="0 0 24 24"><defs><style>.a{fill:none;stroke:currentColor;stroke-linecap:round;stroke-linejoin:round;stroke-width:1.5px;}</style></defs><title>navigation-arrows-up</title><path class="a" d="M1.5,23.247a.75.75,0,0,1-.511-1.3l9.987-8.8a1.5,1.5,0,0,1,2.047,0l9.986,8.8a.75.75,0,0,1-.512,1.3Z"/><path class="a" d="M17.672,17.247H22.5a.75.75,0,0,0,.512-1.3l-9.986-8.8a1.5,1.5,0,0,0-2.047,0l-9.987,8.8a.75.75,0,0,0,.511,1.3H6.325"/><path class="a" d="M17.671,11.247H22.5a.75.75,0,0,0,.512-1.3l-9.986-8.8a1.5,1.5,0,0,0-2.047,0L.988,9.949a.75.75,0,0,0,.511,1.3H6.325"/></svg>