<svg xmlns="http://www.w3.org/2000/svg" viewBox="0 0 24 24"><defs><style>.a{fill:none;stroke:currentColor;stroke-linecap:round;stroke-linejoin:round;stroke-width:1.5px;}</style></defs><title>navigation-arrows-right</title><path class="a" d="M.751,1.5a.75.75,0,0,1,1.3-.511l8.8,9.987a1.5,1.5,0,0,1,0,2.047l-8.8,9.986a.75.75,0,0,1-1.3-.512Z"/><path class="a" d="M6.751,17.671V22.5a.75.75,0,0,0,1.3.512l8.8-9.986a1.5,1.5,0,0,0,0-2.047L8.049.987a.75.75,0,0,0-1.3.511V6.324"/><path class="a" d="M12.751,17.671V22.5a.75.75,0,0,0,1.3.512l8.8-9.986a1.5,1.5,0,0,0,0-2.047L14.049.987a.75.75,0,0,0-1.3.511V6.324"/></svg>