<?xml version="1.0" encoding="utf-8"?>
<!-- Generator: Adobe Illustrator 22.1.0, SVG Export Plug-In . SVG Version: 6.00 Build 0)  -->
<svg version="1.1" id="Layer_1" xmlns="http://www.w3.org/2000/svg" xmlns:xlink="http://www.w3.org/1999/xlink" x="0px" y="0px"
	 viewBox="0 0 24 24" style="enable-background:new 0 0 24 24;" xml:space="preserve">
<title>gauge-dashboard-1</title>
<g>
	<circle cx="6.377" cy="7.882" r="1.125"/>
	<circle cx="19.127" cy="11.632" r="1.125"/>
	<path d="M17.621,9.007c-0.302-0.002-0.584-0.12-0.796-0.334c-0.212-0.214-0.327-0.497-0.325-0.798
		c0.004-0.617,0.508-1.119,1.125-1.119c0,0,0.009,0,0.01,0c0.615,0.005,1.115,0.51,1.115,1.125
		c-0.004,0.621-0.508,1.125-1.125,1.125H17.621z"/>
	<circle cx="9.377" cy="4.882" r="1.125"/>
	<path d="M12,24.007c-4.028,0-7.765-2.01-10.002-5.38c-0.009-0.01-0.019-0.021-0.029-0.034c-0.03-0.041-0.055-0.083-0.077-0.13
		C0.654,16.531,0,14.299,0,12.007c0-6.617,5.383-12,12-12c6.617,0,12,5.383,12,12c0,2.293-0.655,4.525-1.893,6.457
		c-0.021,0.046-0.046,0.088-0.075,0.126c-0.006,0.008-0.018,0.022-0.029,0.034C19.767,21.995,16.029,24.007,12,24.007z M3.619,18.32
		c1.985,2.629,5.09,4.187,8.381,4.187c3.291,0,6.396-1.558,8.381-4.187c-2.469-1.662-5.359-2.539-8.381-2.539
		C8.977,15.781,6.088,16.658,3.619,18.32z M12,1.507c-5.79,0-10.5,4.71-10.5,10.5c0,1.772,0.449,3.511,1.301,5.056
		c1.662-1.115,3.496-1.907,5.462-2.358c0.141-1.723,1.472-3.149,3.184-3.405l2.094-6.281c0.102-0.307,0.387-0.513,0.711-0.513
		c0.081,0,0.162,0.013,0.239,0.039c0.189,0.063,0.343,0.196,0.432,0.376c0.089,0.179,0.104,0.382,0.041,0.572l-1.967,5.902
		c1.501,0.416,2.614,1.75,2.741,3.309c1.966,0.45,3.8,1.242,5.462,2.358c0.852-1.545,1.301-3.284,1.301-5.056
		C22.5,6.217,17.79,1.507,12,1.507z M12,14.281c0.724,0,1.451,0.047,2.17,0.141c-0.258-0.964-1.135-1.665-2.17-1.665
		s-1.912,0.702-2.17,1.665C10.548,14.328,11.276,14.281,12,14.281z"/>
	<circle cx="4.877" cy="11.632" r="1.125"/>
</g>
</svg>
