<svg xmlns="http://www.w3.org/2000/svg" viewBox="0 0 24 24"><title>charging-flash</title><path d="M7.5,18A5.773,5.773,0,0,1,2,12,5.773,5.773,0,0,1,7.5,6a1,1,0,0,0,0-2A7.771,7.771,0,0,0,0,12a7.771,7.771,0,0,0,7.5,8,1,1,0,0,0,0-2Z"/><path d="M16.5,4a1,1,0,0,0,0,2A5.773,5.773,0,0,1,22,12a5.773,5.773,0,0,1-5.5,6,1,1,0,0,0,0,2A7.771,7.771,0,0,0,24,12,7.771,7.771,0,0,0,16.5,4Z"/><path d="M14,5a.5.5,0,0,0-.891-.312l-5.9,7.37A.875.875,0,0,0,7.875,13.5H9.75a.25.25,0,0,1,.25.25V19a.5.5,0,0,0,.891.312l5.9-7.37a.875.875,0,0,0-.667-1.442H14.25a.25.25,0,0,1-.25-.25Z"/></svg>