<svg xmlns="http://www.w3.org/2000/svg" viewBox="0 0 24 24"><title>charging-battery-low</title><path d="M24,10.5a2,2,0,0,0-2-2h-.5v-1a2,2,0,0,0-2-2H2a2,2,0,0,0-2,2v9a2,2,0,0,0,2,2H19.5a2,2,0,0,0,2-2v-1H22a2,2,0,0,0,2-2Zm-2,2.75a.25.25,0,0,1-.25.25H20.5a1,1,0,0,0-1,1V16a.5.5,0,0,1-.5.5H2.5A.5.5,0,0,1,2,16V8a.5.5,0,0,1,.5-.5H19a.5.5,0,0,1,.5.5V9.5a1,1,0,0,0,1,1h1.25a.25.25,0,0,1,.25.25Z"/><path d="M6,9.5A.5.5,0,0,0,5.5,9H3.875A.868.868,0,0,0,3,9.857v4.286A.868.868,0,0,0,3.875,15H5.5a.5.5,0,0,0,.5-.5Z"/></svg>