<svg xmlns="http://www.w3.org/2000/svg" viewBox="0 0 24 24"><title>charging-battery-empty</title><path d="M24,10.5a2,2,0,0,0-2-2H21v-1a2,2,0,0,0-2-2H14.75a.25.25,0,0,0-.25.25v1.5a.25.25,0,0,0,.25.25H18.5A.5.5,0,0,1,19,8V9.5a1,1,0,0,0,1,1h2v3H20a1,1,0,0,0-1,1V16a.5.5,0,0,1-.5.5H14.184a.25.25,0,0,0-.195.094l-1.2,1.5a.25.25,0,0,0,.2.406H19a2,2,0,0,0,2-2v-1h1a2,2,0,0,0,2-2Z"/><path d="M2.5,16.5A.5.5,0,0,1,2,16V8a.5.5,0,0,1,.5-.5H7.816a.247.247,0,0,0,.195-.094l1.2-1.5a.25.25,0,0,0-.2-.406H2a2,2,0,0,0-2,2v9a2,2,0,0,0,2,2H7.25a.25.25,0,0,0,.25-.25v-1.5a.25.25,0,0,0-.25-.25Z"/><path d="M15.792,11.941a.875.875,0,0,0-.667-1.442H13.25a.25.25,0,0,1-.25-.25V5a.5.5,0,0,0-.891-.312l-5.9,7.37A.875.875,0,0,0,6.875,13.5H8.75a.25.25,0,0,1,.25.25V19a.5.5,0,0,0,.334.472.507.507,0,0,0,.557-.159Z"/></svg>