<svg xmlns="http://www.w3.org/2000/svg" viewBox="0 0 24 24"><defs><style>.a{fill:none;stroke:currentColor;stroke-linecap:round;stroke-linejoin:round;}</style></defs><title>tags-alert</title><path class="a" d="M18.342,7.212a2.824,2.824,0,0,0,.7-1.714v-4a1,1,0,0,0-1-1L13.784.505a2.789,2.789,0,0,0-1.707.708L1.249,12.041a1,1,0,0,0,0,1.414l4.836,4.836a.99.99,0,0,0,1.407-.007Z"/><circle class="a" cx="15.542" cy="3.998" r="1.5"/><line class="a" x1="17.042" y1="20.498" x2="17.042" y2="20.498"/><path class="a" d="M17.042,20.5a.25.25,0,1,0,.25.25.25.25,0,0,0-.25-.25"/><line class="a" x1="17.042" y1="18.498" x2="17.042" y2="15.498"/><path class="a" d="M17.88,12.5a.95.95,0,0,0-1.676,0l-5.056,9.634a.923.923,0,0,0,.031.914.947.947,0,0,0,.807.449H22.1a.948.948,0,0,0,.807-.448.923.923,0,0,0,.031-.914Z"/></svg>