<svg xmlns="http://www.w3.org/2000/svg" viewBox="0 0 24 24"><title>alarm-bell-sleep-1</title><path d="M23,15H21.546l2.245-2.886A1,1,0,0,0,23,10.5H19.5a1,1,0,0,0,0,2h1.456l-2.245,2.886A1,1,0,0,0,19.5,17H23a1,1,0,0,0,0-2Z"/><path d="M15.5,2h2.39L14.727,5.868A1,1,0,0,0,15.5,7.5H20a1,1,0,0,0,0-2h-2.39l3.164-3.867A1,1,0,0,0,20,0H15.5a1,1,0,0,0,0,2Z"/><path d="M9.5,21.5h-3A.5.5,0,0,0,6,22a2,2,0,0,0,4,0A.5.5,0,0,0,9.5,21.5Z"/><path d="M15,18.5a1,1,0,0,1-1-1V13c0-3.451-2.167-6.317-5-6.874V4.5a1,1,0,1,0-2,0V6.127C4.168,6.684,2,9.55,2,13v4.5a1,1,0,0,1-1,1,1,1,0,0,0,0,2H15a1,1,0,1,0,0-2Z"/></svg>