<svg xmlns="http://www.w3.org/2000/svg" viewBox="0 0 24 24"><title>alarm-clock-1</title><path d="M21.5,12.254a9.5,9.5,0,1,0-15.375,7.46L3.793,22.047a1,1,0,0,0,0,1.414,1.014,1.014,0,0,0,1.414,0L7.863,20.8a9.483,9.483,0,0,0,8.274,0l2.656,2.657a1.014,1.014,0,0,0,1.414,0,1,1,0,0,0,0-1.414l-2.332-2.333A9.488,9.488,0,0,0,21.5,12.254Zm-10.25-6.5a.75.75,0,1,1,1.5,0V11.5H15.5a.75.75,0,0,1,0,1.5H12a.75.75,0,0,1-.75-.75Z"/><path d="M7.4,2.27a.5.5,0,0,0,.129-.823,4.486,4.486,0,0,0-6.339,6.34.5.5,0,0,0,.368.161.505.505,0,0,0,.454-.29A11.019,11.019,0,0,1,7.4,2.27Z"/><path d="M19.5.254a4.484,4.484,0,0,0-3.033,1.193.5.5,0,0,0,.129.823,11.019,11.019,0,0,1,5.388,5.388.519.519,0,0,0,.454.29.5.5,0,0,0,.368-.161A4.486,4.486,0,0,0,19.5.254Z"/></svg>