<svg xmlns="http://www.w3.org/2000/svg" viewBox="0 0 24 24"><title>alarm-bell-timer-1</title><path d="M9.5,21.5h-3A.5.5,0,0,0,6,22a2,2,0,0,0,4,0A.5.5,0,0,0,9.5,21.5Z"/><path d="M11.419,7.275A5.566,5.566,0,0,0,9,6.127V4.5a1,1,0,1,0-2,0V6.127C4.168,6.684,2,9.55,2,13v4.5a1,1,0,0,1-1,1,1,1,0,0,0,0,2H15a1,1,0,1,0,0-2,1,1,0,0,1-1-1V13a8.019,8.019,0,0,0-.218-1.866A7.006,7.006,0,0,1,11.419,7.275Z"/><path d="M18.251,0A5.75,5.75,0,1,0,24,5.751,5.756,5.756,0,0,0,18.251,0Zm0,9.5A3.75,3.75,0,1,1,22,5.751,3.755,3.755,0,0,1,18.251,9.5Z"/><path d="M19.751,5H19V3.751a.75.75,0,0,0-1.5,0v2a.75.75,0,0,0,.75.75h1.5a.75.75,0,0,0,0-1.5Z"/></svg>