<?xml version="1.0" encoding="utf-8"?>
<!-- Generator: Adobe Illustrator 22.1.0, SVG Export Plug-In . SVG Version: 6.00 Build 0)  -->
<svg version="1.1" id="Layer_1" xmlns="http://www.w3.org/2000/svg" xmlns:xlink="http://www.w3.org/1999/xlink" x="0px" y="0px"
	 viewBox="0 0 24 24" style="enable-background:new 0 0 24 24;" xml:space="preserve">
<title>list-bullets-1</title>
<g>
	<path d="M8.25,4.498c-0.414,0-0.75-0.336-0.75-0.75s0.336-0.75,0.75-0.75h15c0.414,0,0.75,0.336,0.75,0.75s-0.336,0.75-0.75,0.75
		H8.25z"/>
	<path d="M8.25,13.498c-0.414,0-0.75-0.336-0.75-0.75s0.336-0.75,0.75-0.75h15c0.414,0,0.75,0.336,0.75,0.75s-0.336,0.75-0.75,0.75
		H8.25z"/>
	<path d="M8.25,22.498c-0.414,0-0.75-0.336-0.75-0.75s0.336-0.75,0.75-0.75h15c0.414,0,0.75,0.336,0.75,0.75s-0.336,0.75-0.75,0.75
		H8.25z"/>
	<path d="M1.5,5.998c-0.827,0-1.5-0.673-1.5-1.5v-3c0-0.827,0.673-1.5,1.5-1.5h3c0.827,0,1.5,0.673,1.5,1.5v3
		c0,0.827-0.673,1.5-1.5,1.5H1.5z M1.5,4.498h3v-3h-3V4.498z"/>
	<path d="M1.5,14.998c-0.827,0-1.5-0.673-1.5-1.5v-3c0-0.827,0.673-1.5,1.5-1.5h3c0.827,0,1.5,0.673,1.5,1.5v3
		C6,14.325,1.5,14.998,1.5,14.998z M1.5,13.498h3v-3h-3V13.498z"/>
	<path d="M1.5,23.998c-0.827,0-1.5-0.673-1.5-1.5v-3c0-0.827,0.673-1.5,1.5-1.5h3c0.827,0,1.5,0.673,1.5,1.5v3
		c0,0.827-0.673,1.5-1.5,1.5H1.5z M1.5,22.498h3v-3h-3V22.498z"/>
</g>
</svg>
