<?xml version="1.0" encoding="utf-8"?>
<!-- Generator: Adobe Illustrator 22.1.0, SVG Export Plug-In . SVG Version: 6.00 Build 0)  -->
<svg version="1.1" id="Layer_1" xmlns="http://www.w3.org/2000/svg" xmlns:xlink="http://www.w3.org/1999/xlink" x="0px" y="0px"
	 viewBox="0 0 24 24" style="enable-background:new 0 0 24 24;" xml:space="preserve">
<title>list-add</title>
<g>
	<path d="M17.25,23.873c-3.722,0-6.75-3.028-6.75-6.75s3.028-6.75,6.75-6.75S24,13.401,24,17.123S20.972,23.873,17.25,23.873z
		 M17.25,11.873c-2.895,0-5.25,2.355-5.25,5.25s2.355,5.25,5.25,5.25s5.25-2.355,5.25-5.25S20.145,11.873,17.25,11.873z"/>
	<path d="M17.25,20.873c-0.414,0-0.75-0.336-0.75-0.75v-2.25h-2.25c-0.414,0-0.75-0.336-0.75-0.75s0.336-0.75,0.75-0.75h2.25v-2.25
		c0-0.414,0.336-0.75,0.75-0.75S18,13.709,18,14.123v2.25h2.25c0.414,0,0.75,0.336,0.75,0.75s-0.336,0.75-0.75,0.75H18v2.25
		C18,20.537,17.664,20.873,17.25,20.873z"/>
	<path d="M5.25,2.873c-0.414,0-0.75-0.336-0.75-0.75s0.336-0.75,0.75-0.75h15c0.414,0,0.75,0.336,0.75,0.75s-0.336,0.75-0.75,0.75
		H5.25z"/>
	<path d="M5.25,8.873c-0.414,0-0.75-0.336-0.75-0.75s0.336-0.75,0.75-0.75h15c0.414,0,0.75,0.336,0.75,0.75s-0.336,0.75-0.75,0.75
		H5.25z"/>
	<path d="M5.25,14.873c-0.414,0-0.75-0.336-0.75-0.75s0.336-0.75,0.75-0.75h3c0.414,0,0.75,0.336,0.75,0.75s-0.336,0.75-0.75,0.75
		H5.25z"/>
	<circle cx="1.125" cy="2.123" r="1.125"/>
	<circle cx="1.125" cy="8.123" r="1.125"/>
	<circle cx="1.125" cy="14.123" r="1.125"/>
</g>
</svg>
