<svg xmlns="http://www.w3.org/2000/svg" viewBox="0 0 24 24"><defs><style>.a{fill:none;stroke:currentColor;stroke-linecap:round;stroke-linejoin:round;}</style></defs><title>cloud-storage-drive</title><path class="a" d="M19.151,14.473S23.5,13.914,23.5,9.5a4.991,4.991,0,0,0-5.18-4.992A6.989,6.989,0,0,0,5.022,7.08,3.75,3.75,0,0,0,.5,10.75c0,3.809,3.835,3.744,3.835,3.744"/><path class="a" d="M21.5,21A2.5,2.5,0,0,1,19,23.5H5A2.5,2.5,0,0,1,2.5,21V18.5h19Z"/><path class="a" d="M2.5,18.5l2.333-5.092A1.7,1.7,0,0,1,6.25,12.5H17a1.935,1.935,0,0,1,1.5.863l3,5.137Z"/><line class="a" x1="15" y1="21.5" x2="18" y2="21.5"/></svg>