<svg xmlns="http://www.w3.org/2000/svg" viewBox="0 0 24 24"><defs><style>.a{fill:none;stroke:currentColor;stroke-linecap:round;stroke-linejoin:round;}</style></defs><title>cloud-check</title><path class="a" d="M20.5,13.907A4.313,4.313,0,0,0,23,9.858a4.711,4.711,0,0,0-4.954-4.635A6.707,6.707,0,0,0,12,1.5,6.605,6.605,0,0,0,5.325,7.609,3.561,3.561,0,0,0,1,11.018,3.186,3.186,0,0,0,3.5,14.3"/><circle class="a" cx="12" cy="16.501" r="6"/><path class="a" d="M14.674,14.757l-2.9,3.874a.75.75,0,0,1-1.13.08l-1.5-1.5"/></svg>