<svg xmlns="http://www.w3.org/2000/svg" viewBox="0 0 24 24"><defs><style>.a{fill:none;stroke:currentColor;stroke-linecap:round;stroke-linejoin:round;}</style></defs><title>cloud-photo</title><path class="a" d="M20.5,13.906A4.311,4.311,0,0,0,23,9.857a4.711,4.711,0,0,0-4.954-4.635A6.706,6.706,0,0,0,12,1.5,6.605,6.605,0,0,0,5.325,7.609,3.561,3.561,0,0,0,1,11.018,3.186,3.186,0,0,0,3.5,14.3"/><path class="a" d="M18,21.5a1,1,0,0,1-1,1H7a1,1,0,0,1-1-1v-6a1,1,0,0,1,1-1H9.5l.223-.447a1,1,0,0,1,.894-.553h2.764a1,1,0,0,1,.894.553l.225.447H17a1,1,0,0,1,1,1Z"/><circle class="a" cx="12" cy="18.5" r="2"/></svg>