<svg xmlns="http://www.w3.org/2000/svg" viewBox="0 0 24 24"><defs><style>.a{fill:none;stroke:currentColor;stroke-linecap:round;stroke-linejoin:round;}</style></defs><title>cloud-server</title><path class="a" d="M20.5,6.927a3.631,3.631,0,0,0-3.828-3.564A5.184,5.184,0,0,0,12,.5,5.1,5.1,0,0,0,6.842,5.2,2.749,2.749,0,0,0,3.5,7.82c0,2.722,2.956,2.68,2.956,2.68H17.174S20.5,10.079,20.5,6.927Z"/><path class="a" d="M6.75,20.749A.25.25,0,1,0,7,21a.249.249,0,0,0-.25-.25h0"/><path class="a" d="M9.25,20.749A.25.25,0,1,0,9.5,21a.249.249,0,0,0-.25-.25h0"/><path class="a" d="M20.5,22A1.5,1.5,0,0,1,19,23.5H5A1.5,1.5,0,0,1,3.5,22V20A1.5,1.5,0,0,1,5,18.5H19A1.5,1.5,0,0,1,20.5,20Z"/><path class="a" d="M6.75,15.749A.25.25,0,1,0,7,16a.249.249,0,0,0-.25-.25h0"/><path class="a" d="M9.25,15.749A.25.25,0,1,0,9.5,16a.249.249,0,0,0-.25-.25h0"/><path class="a" d="M20.5,17A1.5,1.5,0,0,1,19,18.5H5A1.5,1.5,0,0,1,3.5,17V15A1.5,1.5,0,0,1,5,13.5H19A1.5,1.5,0,0,1,20.5,15Z"/></svg>