<svg xmlns="http://www.w3.org/2000/svg" viewBox="0 0 24 24"><title>lens-shutter</title><path d="M12,0A12,12,0,1,0,24,12,12.013,12.013,0,0,0,12,0Zm8.5,12a8.453,8.453,0,0,1-1.214,4.379.249.249,0,0,1-.43,0l-3.32-5.75a.248.248,0,0,1,0-.25.251.251,0,0,1,.217-.125h4.361a.249.249,0,0,1,.245.205A8.456,8.456,0,0,1,20.5,12Zm-17,0A8.453,8.453,0,0,1,4.714,7.621a.249.249,0,0,1,.43,0l3.32,5.75a.248.248,0,0,1,0,.25.251.251,0,0,1-.217.125H3.886a.249.249,0,0,1-.245-.205A8.456,8.456,0,0,1,3.5,12ZM19.435,7.879a.25.25,0,0,1-.218.371h-6.64a.25.25,0,0,1-.216-.375L14.541,4.1a.25.25,0,0,1,.3-.111A8.522,8.522,0,0,1,19.435,7.879ZM9.041,9.624a.25.25,0,0,1-.433,0L6.429,5.849a.248.248,0,0,1,.054-.315A8.466,8.466,0,0,1,12,3.5h.148a.252.252,0,0,1,.213.127.249.249,0,0,1,0,.248Zm2.381,6.126a.25.25,0,0,1,.217.375L9.458,19.9a.25.25,0,0,1-.3.111,8.527,8.527,0,0,1-4.593-3.892.25.25,0,0,1,.218-.371Zm3.537-1.375a.25.25,0,0,1,.433,0l2.179,3.776a.248.248,0,0,1-.054.315A8.466,8.466,0,0,1,12,20.5h-.148a.25.25,0,0,1-.212-.375Z"/></svg>