<svg xmlns="http://www.w3.org/2000/svg" viewBox="0 0 24 24"><title>lens-vertical</title><path d="M8.275,22.5a.251.251,0,0,0-.245.3A1.5,1.5,0,0,0,9.5,24h5a1.5,1.5,0,0,0,1.47-1.2.25.25,0,0,0-.245-.3Z"/><path d="M7.25,16.5a.25.25,0,0,0-.25.25V20.5a1.49,1.49,0,0,0,.3.9.249.249,0,0,0,.2.1h9a.251.251,0,0,0,.2-.1,1.49,1.49,0,0,0,.3-.9V16.75a.25.25,0,0,0-.25-.25Z"/><path d="M5.25,4.5A.25.25,0,0,0,5,4.75v5.336a3.887,3.887,0,0,0,.94,2.545.248.248,0,0,1,.06.162V14a1.7,1.7,0,0,0,.5,1.207l.22.22A.249.249,0,0,0,6.9,15.5H17.1a.249.249,0,0,0,.177-.073l.22-.22A1.7,1.7,0,0,0,18,14V12.793a.248.248,0,0,1,.06-.162A3.887,3.887,0,0,0,19,10.086V4.75a.25.25,0,0,0-.25-.25Zm4,6a.75.75,0,0,1-1.5,0v-4a.75.75,0,0,1,1.5,0Zm3.5,0a.75.75,0,0,1-1.5,0v-4a.75.75,0,0,1,1.5,0Zm2.75.75a.75.75,0,0,1-.75-.75v-4a.75.75,0,0,1,1.5,0v4A.75.75,0,0,1,15.5,11.25Z"/><path d="M20,2.75A.75.75,0,0,0,19.25,2h-.1a.248.248,0,0,1-.24-.182A2.5,2.5,0,0,0,16.5,0h-9A2.5,2.5,0,0,0,5.094,1.818.248.248,0,0,1,4.854,2h-.1a.75.75,0,0,0,0,1.5h14.5A.75.75,0,0,0,20,2.75Z"/></svg>