<svg xmlns="http://www.w3.org/2000/svg" viewBox="0 0 24 24"><title>password-lock-2</title><path d="M0,6.5v7a1.981,1.981,0,0,0,1.957,2h8.608a1,1,0,0,0,0-2H2.5A.5.5,0,0,1,2,13L1.96,7a.5.5,0,0,1,.5-.5H21.5A.5.5,0,0,1,22,7v3.5a1,1,0,0,0,2,0v-4a1.981,1.981,0,0,0-1.956-2H1.957A1.982,1.982,0,0,0,0,6.5Z"/><circle cx="6.5" cy="10" r="1.5"/><circle cx="12.5" cy="10" r="1.5"/><path d="M21.882,15.515a.249.249,0,0,1-.214-.247V14.25a3.5,3.5,0,0,0-7,0v1.018a.249.249,0,0,1-.214.247A1.5,1.5,0,0,0,13.168,17v5.5a1.5,1.5,0,0,0,1.5,1.5h7a1.5,1.5,0,0,0,1.5-1.5V17A1.5,1.5,0,0,0,21.882,15.515ZM18.168,21.25a1,1,0,1,1,1-1A1,1,0,0,1,18.168,21.25Zm1.5-6a.25.25,0,0,1-.25.25h-2.5a.25.25,0,0,1-.25-.25v-1a1.5,1.5,0,0,1,3,0Z"/></svg>