<svg xmlns="http://www.w3.org/2000/svg" viewBox="0 0 24 24"><title>password-lock-1</title><path d="M1.956,15.417h8.609a1,1,0,0,0,0-2H2.5a.5.5,0,0,1-.5-.5l-.038-6a.5.5,0,0,1,.5-.5H21.5a.5.5,0,0,1,.5.5v3.5a1,1,0,1,0,2,0v-4a1.981,1.981,0,0,0-1.956-2H1.956A1.981,1.981,0,0,0,0,6.417v7A1.981,1.981,0,0,0,1.956,15.417Z"/><path d="M7.972,8.409a.75.75,0,0,0-1.038-.216l-.125.082a.25.25,0,0,1-.387-.209V7.917a.75.75,0,0,0-1.5,0v.131a.25.25,0,0,1-.389.208l-.109-.073a.75.75,0,1,0-.832,1.248L4,9.7a.25.25,0,0,1,0,.417l-.408.268a.75.75,0,1,0,.822,1.254l.124-.081a.248.248,0,0,1,.256-.011.251.251,0,0,1,.131.22v.148a.75.75,0,0,0,1.5,0v-.131a.25.25,0,0,1,.389-.208l.109.073A.75.75,0,0,0,7.752,10.4l-.406-.271a.249.249,0,0,1,0-.417l.409-.268A.749.749,0,0,0,7.972,8.409Z"/><path d="M12.327,12.667a.75.75,0,0,0,.75-.75v-.131a.25.25,0,0,1,.389-.208l.109.073a.75.75,0,0,0,.832-1.248L14,10.132a.25.25,0,0,1,0-.417l.408-.268a.75.75,0,1,0-.822-1.254l-.125.082a.25.25,0,0,1-.387-.209V7.917a.75.75,0,0,0-1.5,0v.131a.25.25,0,0,1-.389.208l-.109-.073a.75.75,0,1,0-.832,1.248l.407.271a.25.25,0,0,1,0,.417l-.408.268a.75.75,0,1,0,.822,1.254l.124-.081a.25.25,0,0,1,.387.209v.148A.75.75,0,0,0,12.327,12.667Z"/><path d="M22.664,15.515a.249.249,0,0,1-.214-.247V14.25a3.5,3.5,0,0,0-7,0v1.018a.249.249,0,0,1-.214.247A1.5,1.5,0,0,0,13.95,17v5.5a1.5,1.5,0,0,0,1.5,1.5h7a1.5,1.5,0,0,0,1.5-1.5V17A1.5,1.5,0,0,0,22.664,15.515ZM19.95,20.25a1,1,0,1,1-1-1A1,1,0,0,1,19.95,20.25Zm-2.5-6a1.5,1.5,0,0,1,3,0v1a.25.25,0,0,1-.25.25H17.7a.25.25,0,0,1-.25-.25Z"/></svg>