<svg xmlns="http://www.w3.org/2000/svg" viewBox="0 0 24 24"><title>password-lock</title><path d="M4.125,12.625h9V7.267A1.619,1.619,0,0,0,11.5,5.656h-.375V4.581a4.5,4.5,0,0,0-9,0V5.656H1.75A1.619,1.619,0,0,0,.125,7.267v7.248a1.616,1.616,0,0,0,1.5,1.605v-1A2.5,2.5,0,0,1,4.125,12.625Zm0-8.044a2.5,2.5,0,0,1,5,0V5.656h-5Z"/><path d="M22.125,14.375h-17a1.752,1.752,0,0,0-1.75,1.75v6a1.752,1.752,0,0,0,1.75,1.75h17a1.752,1.752,0,0,0,1.75-1.75v-6A1.752,1.752,0,0,0,22.125,14.375Zm-17.25,7.75v-6a.25.25,0,0,1,.25-.25h17a.25.25,0,0,1,.25.25v6a.25.25,0,0,1-.25.25h-17A.25.25,0,0,1,4.875,22.125Z"/><path d="M9.436,19.125l.969-.97a.75.75,0,0,0-1.06-1.06l-.97.97-.97-.97a.75.75,0,0,0-1.06,1.06l.969.97-.969.97a.75.75,0,0,0,1.06,1.06l.97-.969.97.969a.75.75,0,1,0,1.06-1.06Z"/><path d="M11.845,18.155l.969.97-.969.97a.749.749,0,0,0,0,1.06.76.76,0,0,0,1.06,0l.97-.969.97.969a.759.759,0,0,0,1.06,0,.749.749,0,0,0,0-1.06l-.969-.97.969-.97a.75.75,0,0,0-1.06-1.06l-.97.97-.97-.97a.75.75,0,0,0-1.06,1.06Z"/><path d="M20,19.875H17.875a.75.75,0,0,0,0,1.5H20a.75.75,0,0,0,0-1.5Z"/></svg>