<svg xmlns="http://www.w3.org/2000/svg" viewBox="0 0 24 24"><title>password-type</title><path d="M21.5,2.5H2.5A2.5,2.5,0,0,0,0,5V19a2.5,2.5,0,0,0,2.5,2.5h19A2.5,2.5,0,0,0,24,19V5A2.5,2.5,0,0,0,21.5,2.5ZM21,14.75H17a.75.75,0,0,1,0-1.5h4a.75.75,0,0,1,0,1.5Zm-6.469-1.28a.749.749,0,0,1,0,1.06.768.768,0,0,1-1.061,0l-1.293-1.293a.25.25,0,0,0-.353,0L10.531,14.53a.757.757,0,0,1-1.061,0,.749.749,0,0,1,0-1.06l1.293-1.293a.25.25,0,0,0,0-.354L9.47,10.53a.75.75,0,0,1,1.061-1.06l1.293,1.293a.25.25,0,0,0,.353,0L13.47,9.47a.75.75,0,0,1,1.061,1.06l-1.293,1.293a.25.25,0,0,0,0,.354Zm-7,0a.749.749,0,0,1,0,1.06.759.759,0,0,1-1.06,0L5.177,13.237a.252.252,0,0,0-.354,0L3.53,14.53a.768.768,0,0,1-1.06,0,.749.749,0,0,1,0-1.06l1.293-1.293a.252.252,0,0,0,0-.354L2.47,10.53A.75.75,0,0,1,3.53,9.47l1.293,1.293a.252.252,0,0,0,.354,0L6.47,9.47a.75.75,0,0,1,1.06,1.06L6.237,11.823a.252.252,0,0,0,0,.354Z"/></svg>