<?xml version="1.0" encoding="utf-8"?>
<!-- Generator: Adobe Illustrator 22.1.0, SVG Export Plug-In . SVG Version: 6.00 Build 0)  -->
<svg version="1.1" id="Layer_1" xmlns="http://www.w3.org/2000/svg" xmlns:xlink="http://www.w3.org/1999/xlink" x="0px" y="0px"
	 viewBox="0 0 24 24" style="enable-background:new 0 0 24 24;" xml:space="preserve">
<g>
	<title>monitor-edit</title>
	<path d="M5.498,18c-0.276,0-0.5-0.224-0.5-0.5s0.224-0.5,0.5-0.5h1.5c0.551,0,1-0.448,1-1v-1h-6.5c-0.827,0-1.5-0.673-1.5-1.5v-12
		c0-0.827,0.673-1.5,1.5-1.5h18c0.827,0,1.5,0.673,1.5,1.5v8c0,0.276-0.224,0.5-0.5,0.5s-0.5-0.224-0.5-0.5v-8
		c0-0.276-0.224-0.5-0.5-0.5h-18c-0.276,0-0.5,0.224-0.5,0.5V11h16.5c0.276,0,0.5,0.224,0.5,0.5s-0.224,0.5-0.5,0.5h-16.5v1.5
		c0,0.276,0.224,0.5,0.5,0.5h13c0.276,0,0.5,0.224,0.5,0.5s-0.224,0.5-0.5,0.5h-5.5v1c0,0.357-0.093,0.699-0.268,1h2.768
		c0.276,0,0.5,0.224,0.5,0.5s-0.224,0.5-0.5,0.5H5.498z"/>
	<path d="M11.498,24c-0.134,0-0.259-0.052-0.354-0.147c-0.128-0.128-0.177-0.316-0.127-0.491l1.2-4.199
		c0.004-0.014,0.013-0.038,0.02-0.051c-0.001,0.001-0.001,0.002-0.001,0.002c0,0,0.004-0.01,0.009-0.021
		c0.028-0.06,0.06-0.108,0.1-0.147l7.179-7.179C20.018,11.272,20.677,11,21.377,11s1.359,0.273,1.854,0.768
		c1.022,1.022,1.022,2.685,0,3.707l-7.179,7.179c-0.04,0.04-0.087,0.072-0.145,0.099c-0.008,0.003-0.034,0.014-0.042,0.017
		c-0.013,0.006-0.014,0.007-0.028,0.011l-4.201,1.2C11.59,23.994,11.544,24,11.498,24z M12.226,22.772l2.517-0.719l-1.798-1.798
		L12.226,22.772z M15.698,21.593l5.572-5.572l-2.293-2.293L13.405,19.3L15.698,21.593z M21.977,15.314l0.546-0.546
		c0.632-0.632,0.632-1.661,0-2.293C22.218,12.169,21.811,12,21.377,12s-0.841,0.168-1.146,0.474l-0.546,0.546L21.977,15.314z"/>
</g>
</svg>
