<?xml version="1.0" encoding="utf-8"?>
<!-- Generator: Adobe Illustrator 22.1.0, SVG Export Plug-In . SVG Version: 6.00 Build 0)  -->
<svg version="1.1" id="Layer_1" xmlns="http://www.w3.org/2000/svg" xmlns:xlink="http://www.w3.org/1999/xlink" x="0px" y="0px"
	 viewBox="0 0 24 24" style="enable-background:new 0 0 24 24;" xml:space="preserve">
<g>
	<title>monitor-share</title>
	<path d="M5.5,18C5.224,18,5,17.776,5,17.5S5.224,17,5.5,17H7c0.551,0,1-0.448,1-1v-1H1.5C0.673,15,0,14.327,0,13.5v-12
		C0,0.673,0.673,0,1.5,0h18C20.327,0,21,0.673,21,1.5v8c0,0.276-0.224,0.5-0.5,0.5S20,9.776,20,9.5v-8C20,1.224,19.776,1,19.5,1h-18
		C1.224,1,1,1.224,1,1.5V11h16.5c0.276,0,0.5,0.224,0.5,0.5S17.776,12,17.5,12H1v1.5C1,13.776,1.224,14,1.5,14h10
		c0.276,0,0.5,0.224,0.5,0.5S11.776,15,11.5,15H9v1c0,0.357-0.093,0.699-0.268,1H9.5c0.276,0,0.5,0.224,0.5,0.5S9.776,18,9.5,18H5.5
		z"/>
	<path d="M21.25,24c-1.516,0-2.75-1.234-2.75-2.75c0-0.18,0.018-0.36,0.055-0.54l-2.482-0.993C15.57,20.514,14.699,21,13.75,21
		C12.234,21,11,19.766,11,18.25s1.234-2.75,2.75-2.75c0.797,0,1.535,0.337,2.058,0.932l2.868-1.721
		C18.559,14.402,18.5,14.08,18.5,13.75c0-1.516,1.234-2.75,2.75-2.75S24,12.234,24,13.75s-1.234,2.75-2.75,2.75
		c-0.797,0-1.535-0.337-2.058-0.932l-2.868,1.72c0.117,0.309,0.176,0.632,0.176,0.961c0,0.18-0.018,0.36-0.055,0.54l2.482,0.993
		c0.503-0.796,1.374-1.282,2.323-1.282c1.516,0,2.75,1.234,2.75,2.75S22.766,24,21.25,24z M21.25,19.5
		c-0.965,0-1.75,0.785-1.75,1.75S20.285,23,21.25,23S23,22.215,23,21.25S22.215,19.5,21.25,19.5z M13.75,16.5
		c-0.965,0-1.75,0.785-1.75,1.75S12.785,20,13.75,20s1.75-0.785,1.75-1.75c0-0.304-0.081-0.605-0.235-0.871
		c-0.008-0.01-0.015-0.02-0.02-0.028c-0.006-0.01-0.011-0.021-0.016-0.032C14.917,16.813,14.361,16.5,13.75,16.5z M19.77,14.681
		c0.313,0.506,0.869,0.819,1.48,0.819c0.965,0,1.75-0.785,1.75-1.75S22.215,12,21.25,12s-1.75,0.785-1.75,1.75
		c0,0.304,0.081,0.605,0.235,0.872c0.005,0.007,0.01,0.013,0.014,0.02C19.757,14.653,19.764,14.667,19.77,14.681z"/>
</g>
</svg>
