<?xml version="1.0" encoding="utf-8"?>
<!-- Generator: Adobe Illustrator 22.1.0, SVG Export Plug-In . SVG Version: 6.00 Build 0)  -->
<svg version="1.1" id="Layer_1" xmlns="http://www.w3.org/2000/svg" xmlns:xlink="http://www.w3.org/1999/xlink" x="0px" y="0px"
	 viewBox="0 0 24 24" style="enable-background:new 0 0 24 24;" xml:space="preserve">
<g>
	<title>monitor-flash</title>
	<path d="M5.515,18c-0.276,0-0.5-0.224-0.5-0.5s0.224-0.5,0.5-0.5h1.5c0.551,0,1-0.448,1-1v-1h-6.5c-0.827,0-1.5-0.673-1.5-1.5v-12
		c0-0.827,0.673-1.5,1.5-1.5h18c0.827,0,1.5,0.673,1.5,1.5v6c0,0.276-0.224,0.5-0.5,0.5s-0.5-0.224-0.5-0.5v-6
		c0-0.276-0.224-0.5-0.5-0.5h-18c-0.276,0-0.5,0.224-0.5,0.5V11h14.5c0.276,0,0.5,0.224,0.5,0.5s-0.224,0.5-0.5,0.5h-14.5v1.5
		c0,0.276,0.224,0.5,0.5,0.5h12c0.276,0,0.5,0.224,0.5,0.5s-0.224,0.5-0.5,0.5h-4.5v1c0,0.357-0.093,0.699-0.268,1h3.768
		c0.276,0,0.5,0.224,0.5,0.5s-0.224,0.5-0.5,0.5H5.515z"/>
	<path d="M17.515,24c-0.056,0-0.112-0.01-0.166-0.028c-0.2-0.07-0.334-0.26-0.334-0.472V18H14.89
		c-0.206-0.001-0.405-0.074-0.562-0.205c-0.37-0.311-0.418-0.865-0.107-1.235l5.904-7.373C20.22,9.068,20.362,9,20.515,9
		c0.057,0,0.112,0.01,0.166,0.028c0.2,0.07,0.334,0.26,0.334,0.472V15h2.125c0.206,0.001,0.405,0.074,0.561,0.205
		c0.37,0.311,0.418,0.865,0.107,1.235l-5.904,7.373C17.81,23.932,17.668,24,17.515,24z M17.515,17c0.276,0,0.5,0.224,0.5,0.5v4.576
		L22.88,16h-2.365c-0.276,0-0.5-0.224-0.5-0.5v-4.576L15.15,17H17.515z"/>
</g>
</svg>
