<svg xmlns="http://www.w3.org/2000/svg" viewBox="0 0 24 24"><title>equalizer-1</title><path d="M24,2A1.5,1.5,0,0,0,22.5.5H1.5A1.5,1.5,0,0,0,0,2V22a1.5,1.5,0,0,0,1.5,1.5h21A1.5,1.5,0,0,0,24,22ZM18,18.5a1,1,0,0,1,0-2h.5a.25.25,0,0,0,.25-.25V9a.75.75,0,0,1,1.5,0v7.25a.25.25,0,0,0,.25.25H21a1,1,0,0,1,0,2h-.5a.25.25,0,0,0-.25.25V21a.75.75,0,0,1-1.5,0V18.75a.25.25,0,0,0-.25-.25Zm-7.5-4a1,1,0,0,1,0-2H11a.25.25,0,0,0,.25-.25V9a.75.75,0,0,1,1.5,0v3.25a.25.25,0,0,0,.25.25h.5a1,1,0,0,1,0,2H13a.25.25,0,0,0-.25.25V21a.75.75,0,0,1-1.5,0V14.75A.25.25,0,0,0,11,14.5ZM3.5,5a1,1,0,0,1,0-2h17a1,1,0,0,1,0,2ZM3,18.5a1,1,0,0,1,0-2h.5a.25.25,0,0,0,.25-.25V9a.75.75,0,0,1,1.5,0v7.25a.25.25,0,0,0,.25.25H6a1,1,0,0,1,0,2H5.5a.25.25,0,0,0-.25.25V21a.75.75,0,0,1-1.5,0V18.75a.25.25,0,0,0-.25-.25Z"/></svg>