<svg xmlns="http://www.w3.org/2000/svg" viewBox="0 0 24 24"><defs><style>.a{fill:none;stroke:currentColor;stroke-linecap:round;stroke-linejoin:round;stroke-width:1.5px;}</style></defs><title>antenna-house-connect</title><polyline class="a" points="9 19.464 5.262 10.5 1.5 19.463"/><line class="a" x1="5.25" y1="10.5" x2="5.25" y2="8.25"/><path class="a" d="M3,5.625A2.119,2.119,0,0,1,5.25,3.667,2.119,2.119,0,0,1,7.5,5.625"/><path class="a" d="M.75,4.667A4.239,4.239,0,0,1,5.25.75a4.239,4.239,0,0,1,4.5,3.917"/><path class="a" d="M5.25,20.25v2.021a1,1,0,0,0,1.018.979H17.732a1,1,0,0,0,1.018-.979V19.5"/><polyline class="a" points="21.75 14 21.75 19.5 15.75 19.5 15.75 14"/><polyline class="a" points="14.25 15 18.75 12 23.25 15"/><line class="a" x1="3.058" y1="15.75" x2="7.451" y2="15.75"/></svg>