<svg xmlns="http://www.w3.org/2000/svg" viewBox="0 0 24 24"><defs><style>.a{fill:none;stroke:currentColor;stroke-linecap:round;stroke-linejoin:round;stroke-width:1.5px;}</style></defs><title>antenna-tower</title><line class="a" x1="0.75" y1="23.25" x2="21" y2="23.25"/><path class="a" d="M9.75,23.25h-9V7.992a.5.5,0,0,1,.5-.492h8a.5.5,0,0,1,.5.492Z"/><path class="a" d="M7.5,5.144A.7.7,0,0,0,6.75,4.5h-3A.7.7,0,0,0,3,5.144V7.5H7.5Z"/><line class="a" x1="5.25" y1="4.5" x2="5.25" y2="0.75"/><line class="a" x1="3.75" y1="10.5" x2="6.75" y2="10.5"/><line class="a" x1="3.75" y1="13.5" x2="6.75" y2="13.5"/><line class="a" x1="3.75" y1="16.5" x2="6.75" y2="16.5"/><line class="a" x1="3.75" y1="19.5" x2="6.75" y2="19.5"/><path class="a" d="M12.906,5.421a5.961,5.961,0,0,1,5.829,5.829"/><path class="a" d="M13.905.764a9.751,9.751,0,0,1,9.33,9.288"/><path class="a" d="M17.25,14.25H13.5a.75.75,0,0,0-.75.75v8.25H18V15A.75.75,0,0,0,17.25,14.25Z"/></svg>