<svg xmlns="http://www.w3.org/2000/svg" viewBox="0 0 24 24"><defs><style>.a{fill:none;stroke:currentColor;stroke-linecap:round;stroke-linejoin:round;stroke-width:1.5px;}</style></defs><title>monitor-signal</title><path class="a" d="M7.5,8.25H5.25a1.5,1.5,0,0,0-1.5,1.5v7.5a1.5,1.5,0,0,0,1.5,1.5h13.5a1.5,1.5,0,0,0,1.5-1.5V9.75a1.5,1.5,0,0,0-1.5-1.5H16.5"/><polygon class="a" points="15 23.25 9 23.25 9.75 18.75 14.25 18.75 15 23.25"/><line class="a" x1="6.75" y1="23.25" x2="17.25" y2="23.25"/><line class="a" x1="12" y1="7.576" x2="12" y2="7.576"/><path class="a" d="M12,7.576a.375.375,0,1,0,.375.375A.375.375,0,0,0,12,7.576"/><path class="a" d="M18,2.873a9.542,9.542,0,0,0-12,0"/><path class="a" d="M8.5,5.25a5.566,5.566,0,0,1,7,0"/></svg>