<?xml version="1.0" encoding="utf-8"?>
<!-- Generator: Adobe Illustrator 22.1.0, SVG Export Plug-In . SVG Version: 6.00 Build 0)  -->
<svg version="1.1" id="Layer_1" xmlns="http://www.w3.org/2000/svg" xmlns:xlink="http://www.w3.org/1999/xlink" x="0px" y="0px"
	 viewBox="0 0 24 24" style="enable-background:new 0 0 24 24;" xml:space="preserve">
<title>calendar-refresh</title>
<g>
	<path d="M2.25,17.999c-1.241,0-2.25-1.009-2.25-2.25v-12c0-1.241,1.009-2.25,2.25-2.25H4.5v-0.75c0-0.414,0.336-0.75,0.75-0.75
		S6,0.335,6,0.749v0.75h6v-0.75c0-0.414,0.336-0.75,0.75-0.75s0.75,0.336,0.75,0.75v0.75h2.25c1.241,0,2.25,1.009,2.25,2.25v4.5
		c0,0.414-0.336,0.75-0.75,0.75s-0.75-0.336-0.75-0.75v-0.75h-15v8.25c0,0.414,0.336,0.75,0.75,0.75h6c0.414,0,0.75,0.336,0.75,0.75
		s-0.336,0.75-0.75,0.75H2.25z M16.5,5.999v-2.25c0-0.414-0.336-0.75-0.75-0.75H13.5v0.75c0,0.414-0.336,0.75-0.75,0.75
		S12,4.162,12,3.749v-0.75H6v0.75c0,0.414-0.336,0.75-0.75,0.75S4.5,4.162,4.5,3.749v-0.75H2.25c-0.414,0-0.75,0.336-0.75,0.75v2.25
		H16.5z"/>
	<path d="M17.39,23.998c-0.695,0-1.383-0.115-2.046-0.343c-1.417-0.486-2.588-1.442-3.344-2.685v1.528c0,0.414-0.336,0.75-0.75,0.75
		s-0.75-0.336-0.75-0.75v-3.75c0-0.414,0.336-0.75,0.75-0.75H15c0.414,0,0.75,0.336,0.75,0.75s-0.336,0.75-0.75,0.75h-2.066
		c0.524,1.28,1.578,2.285,2.897,2.738c0.505,0.173,1.03,0.261,1.56,0.261c2.063,0,3.898-1.31,4.567-3.258
		c0.104-0.303,0.389-0.507,0.709-0.507c0.083,0,0.165,0.014,0.244,0.041c0.189,0.065,0.342,0.199,0.43,0.38
		c0.088,0.18,0.101,0.383,0.036,0.573C22.5,22.281,20.094,23.998,17.39,23.998z"/>
	<path d="M19.5,16.499c-0.414,0-0.75-0.336-0.75-0.75s0.336-0.75,0.75-0.75h2.067c-0.524-1.283-1.579-2.289-2.901-2.741
		c-0.505-0.172-1.028-0.26-1.557-0.26c-2.064,0-3.899,1.311-4.567,3.261c-0.104,0.304-0.389,0.508-0.709,0.508
		c-0.083,0-0.165-0.014-0.244-0.041c-0.188-0.064-0.342-0.199-0.43-0.379c-0.088-0.18-0.101-0.383-0.036-0.573
		c0.875-2.557,3.281-4.276,5.987-4.276c0.694,0,1.38,0.115,2.042,0.341c1.419,0.486,2.592,1.442,3.348,2.686v-1.526
		c0-0.414,0.336-0.75,0.75-0.75S24,11.585,24,11.999v3.75c0,0.414-0.336,0.75-0.75,0.75H19.5z"/>
</g>
</svg>
