<?xml version="1.0" encoding="utf-8"?>
<!-- Generator: Adobe Illustrator 22.1.0, SVG Export Plug-In . SVG Version: 6.00 Build 0)  -->
<svg version="1.1" id="Layer_1" xmlns="http://www.w3.org/2000/svg" xmlns:xlink="http://www.w3.org/1999/xlink" x="0px" y="0px"
	 viewBox="0 0 24 24" style="enable-background:new 0 0 24 24;" xml:space="preserve">
<title>calendar-favorite-heart</title>
<g>
	<path d="M2.25,24C1.009,24,0,22.991,0,21.75V5.25C0,4.009,1.009,3,2.25,3H6V0.75C6,0.336,6.336,0,6.75,0S7.5,0.336,7.5,0.75V3h9
		V0.75C16.5,0.336,16.836,0,17.25,0S18,0.336,18,0.75V3h3.75C22.991,3,24,4.009,24,5.25v16.5c0,1.241-1.009,2.25-2.25,2.25H2.25z
		 M1.5,21.75c0,0.414,0.336,0.75,0.75,0.75h19.5c0.414,0,0.75-0.336,0.75-0.75V10.5h-21V21.75z M22.5,9V5.25
		c0-0.414-0.336-0.75-0.75-0.75H18V6c0,0.414-0.336,0.75-0.75,0.75S16.5,6.414,16.5,6V4.5h-9V6c0,0.414-0.336,0.75-0.75,0.75
		S6,6.414,6,6V4.5H2.25C1.836,4.5,1.5,4.836,1.5,5.25V9H22.5z"/>
	<path d="M11.966,21.004c-0.352-0.008-0.682-0.155-0.927-0.411l-3.507-3.627c-1.041-1.091-1.042-2.796-0.003-3.884
		c0.028-0.029,0.057-0.058,0.087-0.087c0.497-0.474,1.142-0.734,1.817-0.734l0.08,0.001c0.705,0.017,1.364,0.309,1.852,0.821
		L12,13.737l0.641-0.66c0.021-0.023,0.053-0.054,0.085-0.085c0.495-0.472,1.143-0.732,1.824-0.732l0.069,0.001
		c0.707,0.017,1.365,0.309,1.854,0.821c1.035,1.087,1.035,2.789,0,3.875l-3.543,3.668c-0.26,0.249-0.586,0.379-0.929,0.379
		C11.997,21.004,11.969,21.004,11.966,21.004z M9.444,13.761c-0.296,0-0.578,0.113-0.792,0.317
		c-0.012,0.012-0.026,0.025-0.039,0.039c-0.485,0.508-0.485,1.302-0.001,1.809L12,19.429l3.39-3.51
		c0.479-0.503,0.479-1.295-0.003-1.802c-0.212-0.222-0.498-0.349-0.805-0.356l-0.048-0.001c-0.288,0-0.555,0.11-0.773,0.318
		c-0.014,0.013-0.027,0.026-0.039,0.039l-1.184,1.219C12.4,15.478,12.204,15.559,12,15.559s-0.4-0.081-0.538-0.223l-1.179-1.214
		c-0.216-0.227-0.503-0.354-0.81-0.361L9.444,13.761z"/>
</g>
</svg>
