<?xml version="1.0" encoding="utf-8"?>
<!-- Generator: Adobe Illustrator 22.1.0, SVG Export Plug-In . SVG Version: 6.00 Build 0)  -->
<svg version="1.1" id="Layer_1" xmlns="http://www.w3.org/2000/svg" xmlns:xlink="http://www.w3.org/1999/xlink" x="0px" y="0px"
	 viewBox="0 0 24 24" style="enable-background:new 0 0 24 24;" xml:space="preserve">
<title>calendar-download</title>
<g>
	<path d="M17.25,24c-3.722,0-6.75-3.028-6.75-6.75s3.028-6.75,6.75-6.75S24,13.528,24,17.25S20.972,24,17.25,24z M17.25,12
		C14.355,12,12,14.355,12,17.25s2.355,5.25,5.25,5.25s5.25-2.355,5.25-5.25S20.145,12,17.25,12z"/>
	<path d="M17.25,21c-0.087,0-0.174-0.016-0.258-0.046c-0.006-0.002-0.011-0.004-0.017-0.006c-0.104-0.042-0.186-0.097-0.256-0.167
		l-2.25-2.25c-0.292-0.292-0.292-0.768,0-1.061c0.142-0.142,0.33-0.22,0.53-0.22s0.389,0.078,0.53,0.22l0.97,0.97V14.25
		c0-0.414,0.336-0.75,0.75-0.75S18,13.836,18,14.25v4.189l0.97-0.97c0.142-0.142,0.33-0.22,0.53-0.22s0.389,0.078,0.53,0.22
		c0.292,0.292,0.292,0.768,0,1.061l-2.25,2.25c-0.07,0.07-0.152,0.125-0.245,0.163c-0.008,0.003-0.017,0.007-0.026,0.01
		C17.428,20.984,17.339,21,17.25,21z"/>
	<path d="M2.25,18C1.009,18,0,16.991,0,15.75V3.765c0-1.241,1.009-2.25,2.25-2.25h2.243V0.75C4.493,0.336,4.829,0,5.243,0
		s0.75,0.336,0.75,0.75v0.765h6V0.75c0-0.414,0.336-0.75,0.75-0.75s0.75,0.336,0.75,0.75v0.765h2.257c1.241,0,2.25,1.009,2.25,2.25
		V8.25C18,8.664,17.664,9,17.25,9S16.5,8.664,16.5,8.25V7.5h-15v8.25c0,0.414,0.336,0.75,0.75,0.75h6C8.664,16.5,9,16.836,9,17.25
		S8.664,18,8.25,18H2.25z M16.5,6V3.765c0-0.414-0.336-0.75-0.75-0.75h-2.257V3.75c0,0.414-0.336,0.75-0.75,0.75
		s-0.75-0.336-0.75-0.75V3.015h-6V3.75c0,0.414-0.336,0.75-0.75,0.75s-0.75-0.336-0.75-0.75V3.015H2.25
		c-0.414,0-0.75,0.336-0.75,0.75V6H16.5z"/>
</g>
</svg>
