<?xml version="1.0" encoding="utf-8"?>
<!-- Generator: Adobe Illustrator 22.1.0, SVG Export Plug-In . SVG Version: 6.00 Build 0)  -->
<svg version="1.1" id="Layer_1" xmlns="http://www.w3.org/2000/svg" xmlns:xlink="http://www.w3.org/1999/xlink" x="0px" y="0px"
	 viewBox="0 0 24 24" style="enable-background:new 0 0 24 24;" xml:space="preserve">
<title>calendar-skull</title>
<g>
	<path d="M2.25,18C1.009,18,0,16.991,0,15.75V3.765c0-1.241,1.009-2.25,2.25-2.25h2.243V0.75C4.493,0.336,4.829,0,5.243,0
		s0.75,0.336,0.75,0.75v0.765h6V0.75c0-0.414,0.336-0.75,0.75-0.75s0.75,0.336,0.75,0.75v0.765h2.257c1.241,0,2.25,1.009,2.25,2.25
		V10.5c0,0.414-0.336,0.75-0.75,0.75s-0.75-0.336-0.75-0.75v-3h-15v8.25c0,0.414,0.336,0.75,0.75,0.75h9
		c0.414,0,0.75,0.336,0.75,0.75S11.664,18,11.25,18H2.25z M16.5,6V3.765c0-0.414-0.336-0.75-0.75-0.75h-2.257V3.75
		c0,0.414-0.336,0.75-0.75,0.75s-0.75-0.336-0.75-0.75V3.015h-6V3.75c0,0.414-0.336,0.75-0.75,0.75s-0.75-0.336-0.75-0.75V3.015
		H2.25c-0.414,0-0.75,0.336-0.75,0.75V6H16.5z"/>
	<path d="M21.75,24C21.336,24,21,23.664,21,23.25V21c0-0.286,0.159-0.543,0.414-0.671l0.158-0.079
		c0.573-0.286,0.928-0.861,0.928-1.5c0-2.068-1.682-3.75-3.75-3.75S15,16.682,15,18.75c0,0.64,0.355,1.214,0.927,1.5l0.159,0.08
		C16.341,20.457,16.5,20.714,16.5,21v2.25c0,0.414-0.336,0.75-0.75,0.75S15,23.664,15,23.25v-1.801
		c-0.931-0.577-1.5-1.591-1.5-2.699c0-2.895,2.355-5.25,5.25-5.25S24,15.855,24,18.75c0,1.108-0.569,2.122-1.5,2.699v1.801
		C22.5,23.664,22.164,24,21.75,24z"/>
	<path d="M18.75,24C18.336,24,18,23.664,18,23.25v-1.5c0-0.414,0.336-0.75,0.75-0.75s0.75,0.336,0.75,0.75v1.5
		C19.5,23.664,19.164,24,18.75,24z"/>
	<path d="M16.875,19.5c-0.62,0-1.125-0.505-1.125-1.125s0.505-1.125,1.125-1.125c0.014,0,0.03,0.001,0.046,0.003
		c0.01,0.001,0.019,0.002,0.027,0.003C17.531,17.284,18,17.777,18,18.375C18,18.995,17.495,19.5,16.875,19.5z"/>
	<path d="M20.625,19.5c-0.62,0-1.125-0.505-1.125-1.125s0.505-1.125,1.125-1.125c0.014,0,0.032,0.001,0.048,0.003
		c0.605,0.026,1.077,0.515,1.077,1.122C21.75,18.995,21.245,19.5,20.625,19.5z"/>
</g>
</svg>
