<?xml version="1.0" encoding="utf-8"?>
<!-- Generator: Adobe Illustrator 22.1.0, SVG Export Plug-In . SVG Version: 6.00 Build 0)  -->
<svg version="1.1" id="Layer_1" xmlns="http://www.w3.org/2000/svg" xmlns:xlink="http://www.w3.org/1999/xlink" x="0px" y="0px"
	 viewBox="0 0 24 24" style="enable-background:new 0 0 24 24;" xml:space="preserve">
<title>calendar-add-1</title>
<g>
	<path d="M2.25,18C1.009,18,0,16.991,0,15.75v-12C0,2.509,1.009,1.5,2.25,1.5H4.5V0.75C4.5,0.336,4.836,0,5.25,0S6,0.336,6,0.75V1.5
		h6V0.75C12,0.336,12.336,0,12.75,0s0.75,0.336,0.75,0.75V1.5h2.25C16.991,1.5,18,2.509,18,3.75v4.5C18,8.664,17.664,9,17.25,9
		S16.5,8.664,16.5,8.25V7.5h-15v8.25c0,0.414,0.336,0.75,0.75,0.75h6C8.664,16.5,9,16.836,9,17.25S8.664,18,8.25,18H2.25z M16.5,6
		V3.75C16.5,3.336,16.164,3,15.75,3H13.5v0.75c0,0.414-0.336,0.75-0.75,0.75S12,4.164,12,3.75V3H6v0.75C6,4.164,5.664,4.5,5.25,4.5
		S4.5,4.164,4.5,3.75V3H2.25C1.836,3,1.5,3.336,1.5,3.75V6H16.5z"/>
	<path d="M17.25,24c-3.722,0-6.75-3.028-6.75-6.75s3.028-6.75,6.75-6.75S24,13.528,24,17.25S20.972,24,17.25,24z M17.25,12
		C14.355,12,12,14.355,12,17.25s2.355,5.25,5.25,5.25s5.25-2.355,5.25-5.25S20.145,12,17.25,12z"/>
	<path d="M17.25,21c-0.414,0-0.75-0.336-0.75-0.75V18h-2.25c-0.414,0-0.75-0.336-0.75-0.75s0.336-0.75,0.75-0.75h2.25v-2.25
		c0-0.414,0.336-0.75,0.75-0.75S18,13.836,18,14.25v2.25h2.25c0.414,0,0.75,0.336,0.75,0.75S20.664,18,20.25,18H18v2.25
		C18,20.664,17.664,21,17.25,21z"/>
</g>
</svg>
