<?xml version="1.0" encoding="utf-8"?>
<!-- Generator: Adobe Illustrator 22.1.0, SVG Export Plug-In . SVG Version: 6.00 Build 0)  -->
<svg version="1.1" id="Layer_1" xmlns="http://www.w3.org/2000/svg" xmlns:xlink="http://www.w3.org/1999/xlink" x="0px" y="0px"
	 viewBox="0 0 24 24" style="enable-background:new 0 0 24 24;" xml:space="preserve">
<title>calendar-lock-1</title>
<g>
	<path d="M15.75,24c-1.241,0-2.25-1.009-2.25-2.25v-4.5c0-0.96,0.615-1.808,1.5-2.121V14.25c0-2.068,1.682-3.75,3.75-3.75
		s3.75,1.682,3.75,3.75v0.879c0.885,0.314,1.5,1.162,1.5,2.121v4.5c0,1.241-1.009,2.25-2.25,2.25H15.75z M15.75,16.5
		c-0.414,0-0.75,0.336-0.75,0.75v4.5c0,0.414,0.336,0.75,0.75,0.75h6c0.414,0,0.75-0.336,0.75-0.75v-4.5
		c0-0.414-0.336-0.75-0.75-0.75H15.75z M21,15v-0.75c0-1.241-1.009-2.25-2.25-2.25s-2.25,1.009-2.25,2.25L21,15z"/>
	<circle cx="18.75" cy="19.53" r="1.125"/>
	<path d="M2.25,18C1.009,18,0,16.991,0,15.75V3.765c0-1.241,1.009-2.25,2.25-2.25h2.243V0.75C4.493,0.336,4.829,0,5.243,0
		s0.75,0.336,0.75,0.75v0.765h6V0.75c0-0.414,0.336-0.75,0.75-0.75s0.75,0.336,0.75,0.75v0.765h2.257c1.241,0,2.25,1.009,2.25,2.25
		V8.25C18,8.664,17.664,9,17.25,9S16.5,8.664,16.5,8.25V7.5h-15v8.25c0,0.414,0.336,0.75,0.75,0.75h6C8.664,16.5,9,16.836,9,17.25
		S8.664,18,8.25,18H2.25z M16.5,6V3.765c0-0.414-0.336-0.75-0.75-0.75h-2.257V3.75c0,0.414-0.336,0.75-0.75,0.75
		s-0.75-0.336-0.75-0.75V3.015h-6V3.75c0,0.414-0.336,0.75-0.75,0.75s-0.75-0.336-0.75-0.75V3.015H2.25
		c-0.414,0-0.75,0.336-0.75,0.75V6H16.5z"/>
</g>
</svg>
