<?xml version="1.0" encoding="utf-8"?>
<!-- Generator: Adobe Illustrator 22.1.0, SVG Export Plug-In . SVG Version: 6.00 Build 0)  -->
<svg version="1.1" id="Layer_1" xmlns="http://www.w3.org/2000/svg" xmlns:xlink="http://www.w3.org/1999/xlink" x="0px" y="0px"
	 viewBox="0 0 24 24" style="enable-background:new 0 0 24 24;" xml:space="preserve">
<title>calendar-search</title>
<g>
	<path d="M2.25,24C1.009,24,0,22.991,0,21.75V5.25C0,4.009,1.009,3,2.25,3H6V0.75C6,0.336,6.336,0,6.75,0S7.5,0.336,7.5,0.75V3h9
		V0.75C16.5,0.336,16.836,0,17.25,0S18,0.336,18,0.75V3h3.75C22.991,3,24,4.009,24,5.25v16.5c0,1.241-1.009,2.25-2.25,2.25H2.25z
		 M1.5,21.75c0,0.414,0.336,0.75,0.75,0.75h19.5c0.414,0,0.75-0.336,0.75-0.75V10.5h-21V21.75z M22.5,9V5.25
		c0-0.414-0.336-0.75-0.75-0.75H18V6c0,0.414-0.336,0.75-0.75,0.75S16.5,6.414,16.5,6V4.5h-9V6c0,0.414-0.336,0.75-0.75,0.75
		S6,6.414,6,6V4.5H2.25C1.836,4.5,1.5,4.836,1.5,5.25V9H22.5z"/>
	<path d="M15.75,21c-0.2,0-0.389-0.078-0.53-0.22l-1.689-1.689c-0.636,0.427-1.39,0.658-2.156,0.658
		c-2.137,0-3.875-1.738-3.875-3.875S9.238,12,11.375,12s3.875,1.738,3.875,3.875c0,0.766-0.232,1.52-0.658,2.156l1.689,1.689
		c0.292,0.292,0.292,0.768,0,1.061C16.139,20.922,15.95,21,15.75,21z M11.375,13.5C10.065,13.5,9,14.565,9,15.875
		s1.065,2.375,2.375,2.375s2.375-1.065,2.375-2.375S12.685,13.5,11.375,13.5z"/>
</g>
</svg>
