<?xml version="1.0" encoding="utf-8"?>
<!-- Generator: Adobe Illustrator 22.1.0, SVG Export Plug-In . SVG Version: 6.00 Build 0)  -->
<svg version="1.1" id="Layer_1" xmlns="http://www.w3.org/2000/svg" xmlns:xlink="http://www.w3.org/1999/xlink" x="0px" y="0px"
	 viewBox="0 0 24 24" style="enable-background:new 0 0 24 24;" xml:space="preserve">
<title>calendar-share</title>
<g>
	<path d="M21,24c-1.654,0-3-1.346-3-3c0-0.125,0.009-0.253,0.026-0.382l-2.111-0.844C15.353,20.538,14.454,21,13.5,21
		c-1.654,0-3-1.346-3-3s1.346-3,3-3c0.794,0,1.544,0.311,2.104,0.863l2.52-1.512C18.041,14.076,18,13.791,18,13.5
		c0-1.654,1.346-3,3-3s3,1.346,3,3c0,1.654-1.346,3-3,3c-0.794,0-1.544-0.311-2.104-0.863l-2.52,1.512
		C16.459,17.424,16.5,17.709,16.5,18c0,0.126-0.009,0.254-0.026,0.383l2.111,0.844C19.147,18.463,20.045,18,21,18
		c1.654,0,3,1.346,3,3S22.654,24,21,24z M21,19.5c-0.827,0-1.5,0.673-1.5,1.5s0.673,1.5,1.5,1.5s1.5-0.673,1.5-1.5
		S21.827,19.5,21,19.5z M13.5,16.5c-0.827,0-1.5,0.673-1.5,1.5s0.673,1.5,1.5,1.5S15,18.827,15,18c0-0.257-0.068-0.511-0.196-0.737
		c-0.008-0.011-0.015-0.021-0.021-0.031c-0.009-0.015-0.016-0.028-0.021-0.04C14.493,16.764,14.019,16.5,13.5,16.5z M19.738,14.306
		C20.006,14.735,20.481,15,21,15c0.827,0,1.5-0.673,1.5-1.5S21.827,12,21,12s-1.5,0.673-1.5,1.5c0,0.256,0.067,0.509,0.195,0.734
		c0.006,0.008,0.017,0.023,0.026,0.04C19.726,14.282,19.732,14.295,19.738,14.306z"/>
	<path d="M2.25,18C1.009,18,0,16.991,0,15.75V3.765c0-1.241,1.009-2.25,2.25-2.25h2.243V0.75C4.493,0.336,4.829,0,5.243,0
		s0.75,0.336,0.75,0.75v0.765h6V0.75c0-0.414,0.336-0.75,0.75-0.75s0.75,0.336,0.75,0.75v0.765h2.257c1.241,0,2.25,1.009,2.25,2.25
		V8.25C18,8.664,17.664,9,17.25,9S16.5,8.664,16.5,8.25V7.5h-15v8.25c0,0.414,0.336,0.75,0.75,0.75h6C8.664,16.5,9,16.836,9,17.25
		S8.664,18,8.25,18H2.25z M16.5,6V3.765c0-0.414-0.336-0.75-0.75-0.75h-2.257V3.75c0,0.414-0.336,0.75-0.75,0.75
		s-0.75-0.336-0.75-0.75V3.015h-6V3.75c0,0.414-0.336,0.75-0.75,0.75s-0.75-0.336-0.75-0.75V3.015H2.25
		c-0.414,0-0.75,0.336-0.75,0.75V6H16.5z"/>
</g>
</svg>
