<?xml version="1.0" encoding="utf-8"?>
<!-- Generator: Adobe Illustrator 22.1.0, SVG Export Plug-In . SVG Version: 6.00 Build 0)  -->
<svg version="1.1" id="Layer_1" xmlns="http://www.w3.org/2000/svg" xmlns:xlink="http://www.w3.org/1999/xlink" x="0px" y="0px"
	 viewBox="0 0 24 24" style="enable-background:new 0 0 24 24;" xml:space="preserve">
<title>calendar-lock</title>
<g>
	<path d="M19.5,24c-0.414,0-0.75-0.336-0.75-0.75s0.336-0.75,0.75-0.75H21c0.414,0,0.75-0.336,0.75-0.75V10.5H2.25v11.25
		c0,0.414,0.336,0.75,0.75,0.75h1.5c0.414,0,0.75,0.336,0.75,0.75S4.914,24,4.5,24H3c-1.241,0-2.25-1.009-2.25-2.25V5.25
		C0.75,4.009,1.759,3,3,3h3.75V0.75C6.75,0.336,7.086,0,7.5,0s0.75,0.336,0.75,0.75V3h7.5V0.75C15.75,0.336,16.086,0,16.5,0
		s0.75,0.336,0.75,0.75V3H21c1.241,0,2.25,1.009,2.25,2.25v16.5c0,1.241-1.009,2.25-2.25,2.25H19.5z M21.75,9V5.25
		c0-0.414-0.336-0.75-0.75-0.75h-3.75V6c0,0.414-0.336,0.75-0.75,0.75S15.75,6.414,15.75,6V4.5h-7.5V6c0,0.414-0.336,0.75-0.75,0.75
		S6.75,6.414,6.75,6V4.5H3c-0.414,0-0.75,0.336-0.75,0.75V9H21.75z"/>
	<circle cx="12" cy="20.25" r="1.125"/>
	<path d="M7.875,24c-0.62,0-1.125-0.505-1.125-1.125v-5.25c0-0.62,0.505-1.125,1.125-1.125H8.25v-0.75C8.25,13.682,9.932,12,12,12
		c2.068,0,3.75,1.682,3.75,3.75v0.75h0.375c0.62,0,1.125,0.505,1.125,1.125v5.25c0,0.62-0.505,1.125-1.125,1.125H7.875z M15.75,22.5
		V18h-7.5l0,4.5H15.75z M14.25,16.5v-0.75c0-1.241-1.009-2.25-2.25-2.25c-1.241,0-2.25,1.009-2.25,2.25v0.75H14.25z"/>
</g>
</svg>
