<svg xmlns="http://www.w3.org/2000/svg" viewBox="0 0 24 24"><defs><style>.a{fill:none;stroke:currentColor;stroke-linecap:round;stroke-linejoin:round;stroke-width:1.5px;}</style></defs><title>earpods-right</title><line class="a" x1="3.75" y1="10.745" x2="3.75" y2="9"/><path class="a" d="M6.75,5.625A.375.375,0,1,0,7.125,6a.375.375,0,0,0-.375-.375h0"/><path class="a" d="M.75,6V22.5a.75.75,0,0,0,.75.75H3a.75.75,0,0,0,.75-.75V10.745a5.255,5.255,0,0,0,6-1.071V2.326A5.25,5.25,0,0,0,.75,6Z"/><circle class="a" cx="16.5" cy="16.5" r="6.75"/><line class="a" x1="15" y1="20.25" x2="15" y2="12.75"/><path class="a" d="M15,12.75h1.125a1.875,1.875,0,0,1,0,3.75H15"/><line class="a" x1="18" y1="20.25" x2="15.75" y2="16.5"/></svg>