<svg xmlns="http://www.w3.org/2000/svg" viewBox="0 0 24 24"><defs><style>.a{fill:none;stroke:currentColor;stroke-linecap:round;stroke-linejoin:round;stroke-width:1.5px;}</style></defs><title>earpods-check</title><line class="a" x1="6.75" y1="10.745" x2="6.75" y2="9"/><path class="a" d="M3.75,5.625A.375.375,0,1,0,4.125,6a.375.375,0,0,0-.375-.375h0"/><path class="a" d="M9.75,12.75V6a5.25,5.25,0,0,0-9-3.674V9.674a5.255,5.255,0,0,0,6,1.071V22.5a.75.75,0,0,0,.75.75H9a.75.75,0,0,0,.75-.75V21"/><path class="a" d="M18.75,5.625A.375.375,0,1,0,19.125,6a.375.375,0,0,0-.375-.375h0"/><path class="a" d="M21.75,9.674V2.326A5.25,5.25,0,0,0,12.75,6V9.75"/><path class="a" d="M23.25,17.25a6,6,0,1,1-6-6"/><path class="a" d="M23.25,12.75l-5.47,5.469a.749.749,0,0,1-1.06,0L15,16.5"/></svg>