<svg xmlns="http://www.w3.org/2000/svg" viewBox="0 0 24 24"><defs><style>.a{fill:none;stroke:currentColor;stroke-linecap:round;stroke-linejoin:round;stroke-width:1.5px;}</style></defs><title>earpods-bluetooth-2</title><line class="a" x1="6.75" y1="10.745" x2="6.75" y2="9"/><path class="a" d="M3.75,5.625A.375.375,0,1,0,4.125,6a.375.375,0,0,0-.375-.375h0"/><path class="a" d="M9.75,6V22.5a.75.75,0,0,1-.75.75H7.5a.75.75,0,0,1-.75-.75V10.745a5.255,5.255,0,0,1-6-1.071V2.326A5.25,5.25,0,0,1,9.75,6Z"/><line class="a" x1="15.75" y1="11.25" x2="15.75" y2="9"/><path class="a" d="M18.75,5.625A.375.375,0,1,0,19.125,6a.375.375,0,0,0-.375-.375h0"/><path class="a" d="M21.75,9V2.326A5.25,5.25,0,0,0,12.75,6V22.5a.75.75,0,0,0,.75.75H15a.75.75,0,0,0,.75-.75"/><polyline class="a" points="15.75 20.25 23.25 14.25 19.5 11.25 19.5 23.25 23.25 20.25 15.75 14.25"/></svg>