<svg xmlns="http://www.w3.org/2000/svg" viewBox="0 0 24 24"><defs><style>.a{fill:none;stroke:currentColor;stroke-linecap:round;stroke-linejoin:round;stroke-width:1.5px;}</style></defs><title>earpods-remove</title><circle class="a" cx="17.25" cy="17.25" r="6"/><line class="a" x1="19.5" y1="15" x2="15" y2="19.5"/><line class="a" x1="15" y1="15" x2="19.5" y2="19.5"/><line class="a" x1="6.75" y1="10.745" x2="6.75" y2="9"/><path class="a" d="M3.75,5.625A.375.375,0,1,0,4.125,6a.375.375,0,0,0-.375-.375h0"/><path class="a" d="M9.75,12.75V6a5.25,5.25,0,0,0-9-3.674V9.674a5.255,5.255,0,0,0,6,1.071V22.5a.75.75,0,0,0,.75.75H9a.75.75,0,0,0,.75-.75V21"/><path class="a" d="M18.75,5.625A.375.375,0,1,0,19.125,6a.375.375,0,0,0-.375-.375h0"/><path class="a" d="M21.75,9.674V2.326A5.25,5.25,0,0,0,12.75,6V9.75"/></svg>