<svg xmlns="http://www.w3.org/2000/svg" viewBox="0 0 24 24"><defs><style>.a{fill:none;stroke:currentColor;stroke-linecap:round;stroke-linejoin:round;stroke-width:1.5px;}</style></defs><title>earpods</title><line class="a" x1="6.75" y1="10.745" x2="6.75" y2="9"/><path class="a" d="M3.75,5.625A.375.375,0,1,0,4.125,6a.375.375,0,0,0-.375-.375h0"/><path class="a" d="M9.75,6V22.5a.75.75,0,0,1-.75.75H7.5a.75.75,0,0,1-.75-.75V10.745a5.255,5.255,0,0,1-6-1.071V2.326A5.25,5.25,0,0,1,9.75,6Z"/><line class="a" x1="17.25" y1="10.745" x2="17.25" y2="9"/><path class="a" d="M20.25,5.625A.375.375,0,1,0,20.625,6a.375.375,0,0,0-.375-.375h0"/><path class="a" d="M14.25,6V22.5a.75.75,0,0,0,.75.75h1.5a.75.75,0,0,0,.75-.75V10.745a5.255,5.255,0,0,0,6-1.071V2.326A5.25,5.25,0,0,0,14.25,6Z"/></svg>