<svg xmlns="http://www.w3.org/2000/svg" viewBox="0 0 24 24"><title>sound</title><path d="M16.239,0H7.761A1.963,1.963,0,0,0,5.875,2.03V13a1,1,0,0,0,2,0L7.892,2.5a.5.5,0,0,1,.5-.5h7.233a.5.5,0,0,1,.5.5V13a1,1,0,0,0,2,0V2.03A1.963,1.963,0,0,0,16.239,0Z"/><path d="M11.875,14a5,5,0,1,0,5,5A5,5,0,0,0,11.875,14Zm2,7a.5.5,0,0,1-.237.426.5.5,0,0,1-.487.021l-1.789-.894a.5.5,0,0,0-.223-.053h-.764a.5.5,0,0,1-.5-.5V18a.5.5,0,0,1,.5-.5h.764a.5.5,0,0,0,.223-.053l1.789-.894a.5.5,0,0,1,.487.021.5.5,0,0,1,.237.426Z"/><path d="M11.875,3a1,1,0,0,0-1,1v2.25a.25.25,0,0,1-.25.25h-.5a1,1,0,0,0,0,2h.5a.25.25,0,0,1,.25.25V11a1,1,0,0,0,2,0V8.751a.25.25,0,0,1,.25-.25h.5a1,1,0,1,0,0-2h-.5a.25.25,0,0,1-.25-.25V4A1,1,0,0,0,11.875,3Z"/></svg>