<svg xmlns="http://www.w3.org/2000/svg" viewBox="0 0 24 24"><title>download-square-2</title><path d="M6.975,11.914a.75.75,0,0,0,.071.786l4.5,6a.752.752,0,0,0,.6.3h.01a.749.749,0,0,0,.6-.317l4.251-6A.75.75,0,0,0,16.4,11.5H13.9a.25.25,0,0,1-.25-.25V5.75a1.5,1.5,0,0,0-3,0v5.5a.25.25,0,0,1-.25.25H7.646A.75.75,0,0,0,6.975,11.914Z"/><path d="M17.229,22h-1a1,1,0,0,0,0,2h1a1,1,0,0,0,0-2Z"/><path d="M6.771,24h1a1,1,0,1,0,0-2h-1a1,1,0,0,0,0,2Z"/><path d="M11.521,22a1,1,0,0,0,0,2h1a1,1,0,0,0,0-2Z"/><path d="M17.271,0h-1a1,1,0,0,0,0,2h1a1,1,0,0,0,0-2Z"/><path d="M7.771,0h-1a1,1,0,0,0,0,2h1a1,1,0,1,0,0-2Z"/><path d="M11.521,2h1a1,1,0,0,0,0-2h-1a1,1,0,0,0,0,2Z"/><path d="M.021,17.25a1,1,0,0,0,2,0v-1a1,1,0,0,0-2,0Z"/><path d="M1.021,8.75a1,1,0,0,0,1-1v-1a1,1,0,0,0-2,0v1A1,1,0,0,0,1.021,8.75Z"/><path d="M.021,12.5a1,1,0,0,0,2,0v-1a1,1,0,0,0-2,0Z"/><path d="M22.979,15.25a1,1,0,0,0-1,1v1a1,1,0,0,0,2,0v-1A1,1,0,0,0,22.979,15.25Z"/><path d="M23.021,5.75a1,1,0,0,0-1,1v1a1,1,0,0,0,2,0v-1A1,1,0,0,0,23.021,5.75Z"/><path d="M23.021,10.5a1,1,0,0,0-1,1v1a1,1,0,0,0,2,0v-1A1,1,0,0,0,23.021,10.5Z"/><path d="M22.979,20a1,1,0,0,0-1,1v.75a.25.25,0,0,1-.25.25h-.75a1,1,0,0,0,0,2h1a2,2,0,0,0,2-2V21A1,1,0,0,0,22.979,20Z"/><path d="M2.979,22h-.75a.25.25,0,0,1-.25-.25V21a1,1,0,0,0-2,0v1a2,2,0,0,0,2,2h1a1,1,0,0,0,0-2Z"/><path d="M21.979,0h-1a1,1,0,0,0,0,2h.75a.25.25,0,0,1,.25.25V3a1,1,0,0,0,2,0V2A2,2,0,0,0,21.979,0Z"/><path d="M2.979,0h-1a2,2,0,0,0-2,2V3a1,1,0,0,0,2,0V2.25A.25.25,0,0,1,2.229,2h.75a1,1,0,0,0,0-2Z"/></svg>