<svg xmlns="http://www.w3.org/2000/svg" viewBox="0 0 24 24"><title>harddrive-download-1</title><path d="M10.549,5.646a.25.25,0,0,1-.25.25H8.6a.976.976,0,0,0-.69,1.667l3.416,3.416a.977.977,0,0,0,1.381,0L16.12,7.563A.976.976,0,0,0,15.43,5.9h-1.7a.25.25,0,0,1-.25-.25V1.469a1.465,1.465,0,0,0-2.929,0Z"/><path d="M20.812,14.2H3.187A2.94,2.94,0,0,0,.25,17.14v3.917A2.941,2.941,0,0,0,3.187,24H20.812a2.941,2.941,0,0,0,2.938-2.938V17.14A2.94,2.94,0,0,0,20.812,14.2Zm-15.911,5a.735.735,0,0,1,.734-.735H9.252a.735.735,0,1,1,0,1.469H5.635A.734.734,0,0,1,4.9,19.207Zm13.953,1.361A1.469,1.469,0,1,1,20.323,19.1,1.471,1.471,0,0,1,18.854,20.568Z"/></svg>