<svg xmlns="http://www.w3.org/2000/svg" viewBox="0 0 24 24"><title>laptop-download</title><path d="M2.5,8v8a1,1,0,0,0,2,0V8a1,1,0,0,1,1-1H8A1,1,0,0,0,9,6H9A1,1,0,0,0,8,5H5.5A3,3,0,0,0,2.5,8Z"/><path d="M18.5,7a1,1,0,0,1,1,1v8a1,1,0,0,0,2,0V8a3,3,0,0,0-3-3H16a1,1,0,0,0-1,1h0a1,1,0,0,0,1,1Z"/><path d="M6.74,24H17.26a7.076,7.076,0,0,0,6.714-4.842A.5.5,0,0,0,23.5,18.5H16a.5.5,0,0,0-.5.5c0,.708-1.5,1.5-3.5,1.5S8.5,19.708,8.5,19a.5.5,0,0,0-.5-.5H.5a.5.5,0,0,0-.474.658A7.076,7.076,0,0,0,6.74,24Z"/><path d="M10.5,8.75a.25.25,0,0,1-.25.25H8.5a1,1,0,0,0-.708,1.707l3.5,3.5a1,1,0,0,0,1.415,0l3.5-3.5A1,1,0,0,0,15.5,9H13.75a.249.249,0,0,1-.25-.25V1.5a1.5,1.5,0,0,0-3,0Z"/></svg>