<svg xmlns="http://www.w3.org/2000/svg" viewBox="0 0 24 24"><defs><style>.a{fill:none;stroke:currentColor;stroke-linecap:round;stroke-linejoin:round;}</style></defs><title>picture-flower</title><rect class="a" x="0.5" y="0.5" width="23" height="23" rx="1" ry="1"/><line class="a" x1="11.5" y1="15.5" x2="11.5" y2="19.5"/><line class="a" x1="0.5" y1="19.5" x2="23.5" y2="19.5"/><path class="a" d="M12.953,9.519a3.825,3.825,0,0,1,2.422-1.074c1.354.007,2.746.224,2.906,1.076-.125.921-1.54,1.141-2.781,1.089A3.6,3.6,0,0,1,12.953,9.519Z"/><path class="a" d="M9.984,9.519A3.825,3.825,0,0,0,7.562,8.445c-1.354.007-2.746.224-2.906,1.076.125.921,1.54,1.141,2.781,1.089A3.6,3.6,0,0,0,9.984,9.519Z"/><path class="a" d="M10.611,7.982a3.816,3.816,0,0,0-.236-2.638C9.71,4.163,8.845,3.053,8.021,3.327c-.744.557-.248,1.9.4,2.959A3.593,3.593,0,0,0,10.611,7.982Z"/><path class="a" d="M12.224,7.982a3.819,3.819,0,0,1,.237-2.638c.664-1.181,1.529-2.291,2.352-2.017.746.557.248,1.9-.4,2.959A3.592,3.592,0,0,1,12.224,7.982Z"/><path class="a" d="M10.6,10.986a3.822,3.822,0,0,1-.237,2.639c-.664,1.181-1.529,2.291-2.352,2.017-.746-.556-.248-1.9.4-2.96A3.6,3.6,0,0,1,10.6,10.986Z"/><path class="a" d="M12.217,10.986a3.825,3.825,0,0,0,.236,2.639c.665,1.181,1.53,2.291,2.354,2.017.744-.556.248-1.9-.4-2.96A3.6,3.6,0,0,0,12.217,10.986Z"/></svg>