<svg xmlns="http://www.w3.org/2000/svg" viewBox="0 0 24 24"><defs><style>.a{fill:none;stroke:currentColor;stroke-linecap:round;stroke-linejoin:round;}</style></defs><title>picture-stack-human</title><rect class="a" x="0.5" y="4.5" width="15" height="15" rx="4" ry="4"/><path class="a" d="M14.383,18.266a5.406,5.406,0,0,0-.448-1.465c-.4-.8-2.063-1.35-4.153-2.123-.565-.21-.472-1.685-.222-1.961a4.168,4.168,0,0,0,1.085-3.232A2.725,2.725,0,0,0,8,6.5,2.725,2.725,0,0,0,5.355,9.485,4.168,4.168,0,0,0,6.44,12.717c.25.276.343,1.751-.222,1.961C4.128,15.451,2.464,16,2.065,16.8a5.406,5.406,0,0,0-.448,1.465"/><path class="a" d="M16.5,19.357a4,4,0,0,0,3-3.857v-7a4.006,4.006,0,0,0-3-3.857"/><path class="a" d="M20.5,19.357a4,4,0,0,0,3-3.857v-7a4.006,4.006,0,0,0-3-3.857"/></svg>