<svg xmlns="http://www.w3.org/2000/svg" viewBox="0 0 24 24"><defs><style>.a{fill:none;stroke:currentColor;stroke-linecap:round;stroke-linejoin:round;stroke-width:1.5px;}</style></defs><title>smiley-surprised-1</title><circle class="a" cx="12" cy="12" r="11.25"/><path class="a" d="M7.125,9a.375.375,0,1,1-.375.375A.375.375,0,0,1,7.125,9"/><path class="a" d="M16.875,9a.375.375,0,1,1-.375.375A.375.375,0,0,1,16.875,9"/><line class="a" x1="10.5" y1="10.5" x2="9.75" y2="12"/><line class="a" x1="13.5" y1="10.5" x2="14.25" y2="12"/><path class="a" d="M15.665,19.5a.76.76,0,0,0,.744-.9,4.5,4.5,0,0,0-8.818,0,.759.759,0,0,0,.744.9A9.33,9.33,0,0,1,15.665,19.5Z"/></svg>