<svg xmlns="http://www.w3.org/2000/svg" viewBox="0 0 24 24"><defs><style>.a{fill:none;stroke:currentColor;stroke-linecap:round;stroke-linejoin:round;stroke-width:1.5px;}</style></defs><title>smiley-drop</title><path class="a" d="M23.241,11.553q.009.222.009.447A11.24,11.24,0,1,1,16.53,1.7"/><path class="a" d="M18.048,18a6.752,6.752,0,0,0-12.1,0"/><path class="a" d="M18.493,10.5a2.25,2.25,0,0,0-4.243,0"/><path class="a" d="M9.75,10.5a2.25,2.25,0,0,0-4.243,0"/><path class="a" d="M23.25,5.75A2.384,2.384,0,0,1,21,8.25a2.384,2.384,0,0,1-2.25-2.5c0-1.381,2.25-5,2.25-5S23.25,4.369,23.25,5.75Z"/></svg>