<svg xmlns="http://www.w3.org/2000/svg" viewBox="0 0 24 24"><defs><style>.a{fill:none;stroke:currentColor;stroke-linecap:round;stroke-linejoin:round;stroke-width:1.5px;}</style></defs><title>smiley-decode</title><rect class="a" x="18.75" y="18.75" width="3" height="3"/><line class="a" x1="9.75" y1="21.75" x2="6.75" y2="21.75"/><line class="a" x1="8.25" y1="21.75" x2="8.25" y2="18.75"/><polyline class="a" points="12.75 21.75 14.25 18.75 15.75 21.75"/><path class="a" d="M.775,12.75a11.25,11.25,0,0,1,22.45,0"/><path class="a" d="M7.285,10.643a.375.375,0,1,1-.375.375.375.375,0,0,1,.375-.375"/><path class="a" d="M17.25,10.643a.375.375,0,1,1-.375.375.375.375,0,0,1,.375-.375"/><path class="a" d="M6,7.584a3.539,3.539,0,0,1,2.334.291,3.542,3.542,0,0,1,1.684,1.643"/><path class="a" d="M18.268,7.584A3.687,3.687,0,0,0,14.25,9.518"/><line class="a" x1="0.75" y1="15.75" x2="23.25" y2="15.75"/><line class="a" x1="0.75" y1="18.75" x2="3.75" y2="21.75"/><line class="a" x1="0.75" y1="21.75" x2="3.75" y2="18.75"/></svg>