<svg xmlns="http://www.w3.org/2000/svg" viewBox="0 0 24 24"><defs><style>.a{fill:none;stroke:currentColor;stroke-linecap:round;stroke-linejoin:round;stroke-width:1.5px;}</style></defs><title>smiley-glasses</title><path class="a" d="M3,5.25a11.252,11.252,0,0,1,18,0"/><path class="a" d="M23.129,10.342A11.251,11.251,0,1,1,.75,12a11.333,11.333,0,0,1,.121-1.658"/><path class="a" d="M5.634,14.25a.75.75,0,0,0-.707,1,7.5,7.5,0,0,0,14.146,0,.75.75,0,0,0-.707-1Z"/><rect class="a" x="0.75" y="5.25" width="9" height="6" rx="1.5" ry="1.5"/><rect class="a" x="14.25" y="5.25" width="9" height="6" rx="1.5" ry="1.5"/><line class="a" x1="9.75" y1="8.25" x2="14.25" y2="8.25"/></svg>