<svg xmlns="http://www.w3.org/2000/svg" viewBox="0 0 24 24"><defs><style>.a{fill:none;stroke:currentColor;stroke-linecap:round;stroke-linejoin:round;stroke-width:1.5px;}</style></defs><title>smiley-nauseous-1</title><circle class="a" cx="12" cy="12" r="11.25"/><path class="a" d="M16.5,10.5a.375.375,0,1,1-.375.375A.375.375,0,0,1,16.5,10.5"/><path class="a" d="M15.578,16.249a6.791,6.791,0,0,0-7.149.122"/><path class="a" d="M18.834,8.166a3.689,3.689,0,0,1-4.018-1.934"/><path class="a" d="M7.5,10.5a.375.375,0,1,0,.375.375A.375.375,0,0,0,7.5,10.5"/><path class="a" d="M5.166,8.166A3.54,3.54,0,0,0,7.5,7.875,3.539,3.539,0,0,0,9.183,6.232"/><path class="a" d="M7.5,14.25h0a3.181,3.181,0,0,1,0,4.5h0"/><path class="a" d="M16.5,14.25h0a3.181,3.181,0,0,0,0,4.5h0"/></svg>