<svg xmlns="http://www.w3.org/2000/svg" viewBox="0 0 24 24"><defs><style>.a{fill:none;stroke:currentColor;stroke-linecap:round;stroke-linejoin:round;stroke-width:1.5px;}</style></defs><title>smiley-bright</title><circle class="a" cx="12" cy="12" r="11.25"/><path class="a" d="M17.1,15.6a6.754,6.754,0,0,1-5.085,3.118"/><line class="a" x1="16.125" y1="14.625" x2="18" y2="16.5"/><path class="a" d="M7.5,6A8.718,8.718,0,0,1,5.25,8.625,8.718,8.718,0,0,1,7.5,11.25,8.718,8.718,0,0,1,9.75,8.625,8.718,8.718,0,0,1,7.5,6"/><path class="a" d="M16.5,6a8.718,8.718,0,0,1-2.25,2.625A8.718,8.718,0,0,1,16.5,11.25a8.718,8.718,0,0,1,2.25-2.625A8.718,8.718,0,0,1,16.5,6"/></svg>