<svg xmlns="http://www.w3.org/2000/svg" viewBox="0 0 24 24"><defs><style>.a{fill:none;stroke:currentColor;stroke-linecap:round;stroke-linejoin:round;stroke-width:1.5px;}</style></defs><title>smiley-tongue-sticking</title><circle class="a" cx="12" cy="12" r="11.25"/><line class="a" x1="6.75" y1="15.75" x2="17.25" y2="15.75"/><line class="a" x1="6.75" y1="7.5" x2="9" y2="7.5"/><line class="a" x1="6.75" y1="10.5" x2="9" y2="10.5"/><line class="a" x1="15" y1="7.5" x2="17.25" y2="7.5"/><line class="a" x1="15" y1="10.5" x2="17.25" y2="10.5"/><path class="a" d="M12.75,15.75V18a1.5,1.5,0,0,0,1.5,1.5h0a1.5,1.5,0,0,0,1.5-1.5V15.75"/><circle class="a" cx="12" cy="12" r="11.25"/><line class="a" x1="6.75" y1="15.75" x2="17.25" y2="15.75"/><line class="a" x1="6.75" y1="7.5" x2="9" y2="7.5"/><line class="a" x1="6.75" y1="10.5" x2="9" y2="10.5"/><line class="a" x1="15" y1="7.5" x2="17.25" y2="7.5"/><line class="a" x1="15" y1="10.5" x2="17.25" y2="10.5"/><path class="a" d="M12.75,15.75V18a1.5,1.5,0,0,0,1.5,1.5h0a1.5,1.5,0,0,0,1.5-1.5V15.75"/></svg>