<?xml version="1.0" encoding="utf-8"?>
<!-- Generator: Adobe Illustrator 22.1.0, SVG Export Plug-In . SVG Version: 6.00 Build 0)  -->
<svg version="1.1" id="Light" xmlns="http://www.w3.org/2000/svg" xmlns:xlink="http://www.w3.org/1999/xlink" x="0px" y="0px"
	 viewBox="0 0 24 24" style="enable-background:new 0 0 24 24;" xml:space="preserve">
<g>
	<title>single-neutral-podium</title>
	<path d="M20,24c-0.036,0-0.072-0.004-0.106-0.011c-0.129-0.028-0.241-0.105-0.314-0.217c-0.073-0.112-0.097-0.246-0.069-0.377
		L20.882,17H4.119l1.37,6.395c0.028,0.131,0.003,0.264-0.069,0.376c-0.073,0.112-0.185,0.189-0.315,0.217
		C5.072,23.996,5.036,24,5,24c-0.234,0-0.44-0.166-0.489-0.395L3.096,17H1.5C1.224,17,1,16.776,1,16.5S1.224,16,1.5,16h22
		c0.276,0,0.5,0.224,0.5,0.5S23.776,17,23.5,17h-1.596l-1.416,6.605C20.44,23.834,20.234,24,20,24z"/>
	<path d="M4.973,14.999c-0.28-0.018-0.489-0.256-0.472-0.531c0.057-0.88,0.295-1.721,0.709-2.501
		c0.505-1.009,2.168-1.62,4.471-2.467l0.59-0.217c0.07-0.026,0.173-0.141,0.232-0.381c0.094-0.385,0.017-0.867-0.172-1.075
		C9.318,6.73,8.814,5.248,8.946,3.76c-0.01-0.124-0.013-0.249-0.01-0.371c0.025-0.93,0.411-1.795,1.087-2.435
		c0.65-0.615,1.501-0.954,2.396-0.954L12.513,0c0.014-0.001,0.044-0.001,0.074-0.001c0.101,0,0.209,0.005,0.316,0.015
		c0.927,0.086,1.764,0.528,2.359,1.244c0.583,0.703,0.865,1.59,0.792,2.499c0.132,1.489-0.373,2.972-1.386,4.071
		c-0.187,0.206-0.264,0.687-0.17,1.071c0.059,0.24,0.162,0.356,0.232,0.383l0.59,0.217c2.302,0.846,3.965,1.458,4.476,2.478
		c0.41,0.77,0.647,1.61,0.704,2.492c0.009,0.133-0.035,0.262-0.124,0.362c-0.088,0.1-0.21,0.16-0.344,0.169c0,0-0.001,0-0.001,0
		c-0.291,0-0.513-0.205-0.53-0.467c-0.047-0.739-0.247-1.444-0.594-2.097c-0.339-0.677-2.004-1.289-3.932-1.998l-0.592-0.218
		c-0.421-0.156-0.725-0.541-0.857-1.084c-0.177-0.725-0.014-1.522,0.404-1.982c0.834-0.905,1.244-2.123,1.125-3.345
		c-0.003-0.032-0.003-0.063,0-0.095c0.062-0.661-0.138-1.306-0.562-1.816c-0.424-0.511-1.021-0.826-1.682-0.887
		c-0.077-0.007-0.155-0.01-0.233-0.01h-0.144c-0.648,0-1.26,0.242-1.723,0.68c-0.482,0.456-0.757,1.073-0.775,1.736
		c-0.003,0.101,0.001,0.201,0.01,0.299c0.003,0.032,0.003,0.064,0,0.096c-0.119,1.221,0.29,2.439,1.122,3.342
		c0.421,0.463,0.583,1.261,0.406,1.987c-0.132,0.542-0.436,0.926-0.856,1.082l-0.59,0.218c-1.929,0.709-3.595,1.322-3.928,1.987
		c-0.352,0.662-0.552,1.369-0.6,2.107C5.482,14.795,4.976,15,4.973,14.999z"/>
</g>
</svg>
