<?xml version="1.0" encoding="utf-8"?>
<!-- Generator: Adobe Illustrator 22.1.0, SVG Export Plug-In . SVG Version: 6.00 Build 0)  -->
<svg version="1.1" id="Light" xmlns="http://www.w3.org/2000/svg" xmlns:xlink="http://www.w3.org/1999/xlink" x="0px" y="0px"
	 viewBox="0 0 24 24" style="enable-background:new 0 0 24 24;" xml:space="preserve">
<g>
	<title>single-neutral-vintage-tv</title>
	<path d="M19.5,16c-0.276,0-0.5-0.224-0.5-0.5s0.224-0.5,0.5-0.5h2c0.276,0,0.5,0.224,0.5,0.5S21.776,16,21.5,16H19.5z"/>
	<path d="M19.5,14c-0.276,0-0.5-0.224-0.5-0.5s0.224-0.5,0.5-0.5h2c0.276,0,0.5,0.224,0.5,0.5S21.776,14,21.5,14H19.5z"/>
	<path d="M19.5,12c-0.276,0-0.5-0.224-0.5-0.5s0.224-0.5,0.5-0.5h2c0.276,0,0.5,0.224,0.5,0.5S21.776,12,21.5,12H19.5z"/>
	<path d="M20.5,9C19.673,9,19,8.327,19,7.5S19.673,6,20.5,6S22,6.673,22,7.5S21.327,9,20.5,9z M20.5,7C20.224,7,20,7.224,20,7.5
		S20.224,8,20.5,8S21,7.776,21,7.5S20.776,7,20.5,7z"/>
	<path d="M21.5,22c-0.149,0-0.289-0.065-0.384-0.18L18.766,19H5.234l-2.35,2.82C2.789,21.935,2.649,22,2.5,22
		c-0.116,0-0.23-0.041-0.32-0.115c-0.212-0.177-0.241-0.493-0.064-0.705L3.932,19H1.5C0.673,19,0,18.327,0,17.5v-14
		C0,2.673,0.673,2,1.5,2h21C23.327,2,24,2.673,24,3.5v14c0,0.827-0.673,1.5-1.5,1.5h-2.432l1.817,2.18
		c0.176,0.212,0.148,0.528-0.064,0.704C21.73,21.959,21.616,22,21.5,22z M22.5,18c0.276,0,0.5-0.224,0.5-0.5v-14
		C23,3.224,22.776,3,22.5,3H18v15H22.5z M1.5,3C1.224,3,1,3.224,1,3.5v14C1,17.776,1.224,18,1.5,18H17V3H1.5z"/>
	<path d="M14.5,16.72c-0.07,0-0.137-0.014-0.201-0.042c-0.021-0.009-2.028-0.895-3.404-1.404c-0.473-0.176-0.807-0.577-0.941-1.129
		c-0.181-0.75,0.024-1.663,0.487-2.17c0.851-0.836,1.26-1.977,1.131-3.14c-0.004-0.034-0.004-0.068-0.001-0.102
		C11.7,7.36,10.688,6.139,9.316,6.01C9.238,6.003,9.159,5.999,9.081,5.999L9.014,6L8.939,5.999c-1.376,0-2.483,1.068-2.52,2.431
		c-0.003,0.1,0.001,0.202,0.01,0.302C6.432,8.766,6.432,8.8,6.428,8.833c-0.129,1.164,0.276,2.301,1.112,3.121
		c0.479,0.523,0.687,1.44,0.506,2.19c-0.134,0.552-0.467,0.953-0.939,1.129c-1.38,0.51-3.384,1.395-3.404,1.404
		C3.638,16.706,3.57,16.72,3.5,16.72c-0.198,0-0.378-0.117-0.458-0.298c-0.111-0.252,0.003-0.548,0.255-0.659
		c0.358-0.158,2.164-0.948,3.461-1.427c0.155-0.057,0.261-0.201,0.315-0.427c0.1-0.415-0.018-1.004-0.253-1.261
		c-1.028-1.007-1.538-2.422-1.392-3.874c-0.01-0.123-0.013-0.248-0.009-0.372c0.051-1.877,1.618-3.404,3.492-3.404
		c0.034,0,0.068,0,0.102,0.001c0.013-0.001,0.042-0.001,0.072-0.001c0.103,0,0.213,0.005,0.322,0.015
		c1.899,0.178,3.313,1.862,3.163,3.76c0.146,1.453-0.367,2.871-1.411,3.894c-0.22,0.242-0.334,0.827-0.234,1.241
		c0.054,0.225,0.161,0.369,0.316,0.427c1.295,0.479,3.101,1.269,3.45,1.422c0.261,0.116,0.376,0.412,0.265,0.664
		C14.877,16.603,14.698,16.72,14.5,16.72L14.5,16.72z"/>
</g>
</svg>
