<svg xmlns="http://www.w3.org/2000/svg" viewBox="0 0 24 24"><defs><style>.a{fill:none;stroke:currentColor;stroke-linecap:round;stroke-linejoin:round;}</style></defs><title>wifi-search</title><path class="a" d="M3.06,7.623a8.946,8.946,0,0,1,12.653,0"/><path class="a" d="M18.215,4.169A12.526,12.526,0,0,0,.5,4.169"/><path class="a" d="M5.617,11.076a5.372,5.372,0,0,1,7.594,0"/><path class="a" d="M15.713,7.623a8.946,8.946,0,0,0-12.653,0"/><path class="a" d="M13.211,11.076a5.372,5.372,0,0,0-7.594,0"/><path class="a" d="M9.358,17.5a1.79,1.79,0,1,1,0-3.579"/><circle class="a" cx="16.744" cy="17.029" r="4.529"/><line class="a" x1="23.215" y1="23.5" x2="19.967" y2="20.252"/></svg>