<svg xmlns="http://www.w3.org/2000/svg" viewBox="0 0 24 24"><defs><style>.a{fill:none;stroke:currentColor;stroke-linecap:round;stroke-linejoin:round;}</style></defs><title>wifi-download</title><path class="a" d="M3.032,7.6a8.944,8.944,0,0,1,12.653,0"/><path class="a" d="M18.216,4.169A12.526,12.526,0,0,0,.5,4.169"/><path class="a" d="M15.685,7.6a8.944,8.944,0,0,0-12.653,0"/><path class="a" d="M12.355,10.36a5.372,5.372,0,0,0-6.794.66"/><path class="a" d="M9.358,17.5a1.79,1.79,0,0,1,0-3.579"/><circle class="a" cx="17.5" cy="17.5" r="6"/><line class="a" x1="17.5" y1="14.5" x2="17.5" y2="20.5"/><line class="a" x1="17.5" y1="20.5" x2="15.25" y2="18.25"/><line class="a" x1="17.5" y1="20.5" x2="19.75" y2="18.25"/></svg>