<svg xmlns="http://www.w3.org/2000/svg" viewBox="0 0 24 24"><defs><style>.a{fill:none;stroke:currentColor;stroke-linecap:round;stroke-linejoin:round;}</style></defs><title>wifi-lock</title><path class="a" d="M3.031,7.6a8.946,8.946,0,0,1,12.654,0"/><path class="a" d="M18.215,4.169A12.526,12.526,0,0,0,.5,4.169"/><path class="a" d="M5.561,11.02a5.369,5.369,0,0,1,7.593,0"/><path class="a" d="M15.685,7.6a8.946,8.946,0,0,0-12.654,0"/><path class="a" d="M13.154,11.02a5.369,5.369,0,0,0-7.593,0"/><path class="a" d="M11.147,15.71a1.79,1.79,0,1,1-1.789-1.789A1.79,1.79,0,0,1,11.147,15.71Z"/><rect class="a" x="14.373" y="15.468" width="9" height="7.999" rx="1" ry="1"/><circle class="a" cx="18.873" cy="19.53" r="1.25"/><path class="a" d="M21.373,13.967a2.5,2.5,0,0,0-5,0v1.5h5Z"/></svg>