<svg xmlns="http://www.w3.org/2000/svg" viewBox="0 0 24 24"><defs><style>.a{fill:none;stroke:currentColor;stroke-linecap:round;stroke-linejoin:round;}</style></defs><title>wifi-heart</title><path class="a" d="M5.6,7.818a8.945,8.945,0,0,1,12.653,0"/><path class="a" d="M20.786,5.393a12.524,12.524,0,0,0-17.715,0"/><path class="a" d="M8.133,10.243a5.37,5.37,0,0,1,7.593,0"/><path class="a" d="M18.256,7.818a8.945,8.945,0,0,0-12.653,0"/><path class="a" d="M15.726,10.243a5.37,5.37,0,0,0-7.593,0"/><path class="a" d="M12.289,21.846a.5.5,0,0,1-.722,0L7.789,17.9a2.449,2.449,0,0,1-.459-2.827h0a2.449,2.449,0,0,1,3.922-.636l.676.676.676-.676a2.449,2.449,0,0,1,3.922.636h0a2.448,2.448,0,0,1-.458,2.827Z"/></svg>