<svg xmlns="http://www.w3.org/2000/svg" viewBox="0 0 24 24"><defs><style>.a{fill:none;stroke:currentColor;stroke-linecap:round;stroke-linejoin:round;}</style></defs><title>wifi-question</title><path class="a" d="M3.032,7.6a8.946,8.946,0,0,1,12.654,0"/><path class="a" d="M18.216,4.169A12.527,12.527,0,0,0,.5,4.169"/><path class="a" d="M15.686,7.6a8.946,8.946,0,0,0-12.654,0"/><path class="a" d="M12.355,10.36a5.37,5.37,0,0,0-6.793.66"/><path class="a" d="M9.358,17.5a1.79,1.79,0,0,1,0-3.579"/><circle class="a" cx="17.5" cy="17.5" r="6"/><path class="a" d="M15.625,16.042A1.875,1.875,0,1,1,17.5,17.917v1"/><path class="a" d="M17.5,20.917a.25.25,0,1,1-.25.25.25.25,0,0,1,.25-.25"/></svg>