<?xml version="1.0" encoding="utf-8"?>
<!-- Generator: Adobe Illustrator 22.1.0, SVG Export Plug-In . SVG Version: 6.00 Build 0)  -->
<svg version="1.1" id="Layer_1" xmlns="http://www.w3.org/2000/svg" xmlns:xlink="http://www.w3.org/1999/xlink" x="0px" y="0px"
	 viewBox="0 0 24 24" style="enable-background:new 0 0 24 24;" xml:space="preserve">
<title>wifi-search</title>
<g>
	<path d="M5.96,12.034c-0.2,0-0.388-0.078-0.53-0.219c-0.293-0.293-0.293-0.768,0-1.061C6.544,9.639,8.087,9,9.663,9
		c0.332,0,0.66,0.027,0.981,0.079c0.198,0.032,0.371,0.139,0.488,0.302c0.117,0.163,0.164,0.361,0.132,0.559
		c-0.059,0.365-0.371,0.63-0.741,0.63l0,0c-0.039,0-0.079-0.003-0.119-0.009c-0.245-0.04-0.475-0.06-0.685-0.06l-0.05,0
		c-1.187,0-2.343,0.479-3.178,1.314C6.349,11.956,6.161,12.034,5.96,12.034z"/>
	<path d="M3.071,8.572c-0.209,0-0.41-0.088-0.552-0.242C2.383,8.182,2.313,7.991,2.321,7.79c0.008-0.2,0.094-0.385,0.242-0.521
		c1.956-1.799,4.479-2.79,7.104-2.79c2.367,0,4.702,0.826,6.573,2.327c0.156,0.125,0.254,0.304,0.276,0.503
		c0.022,0.199-0.035,0.395-0.161,0.551c-0.143,0.178-0.356,0.281-0.585,0.281c-0.17,0-0.336-0.058-0.469-0.164
		c-1.628-1.306-3.577-1.996-5.634-1.996c-2.249,0-4.411,0.85-6.089,2.393C3.439,8.502,3.259,8.572,3.071,8.572z"/>
	<path d="M18.6,4.642c-0.17,0-0.337-0.059-0.47-0.166c-2.409-1.936-5.413-3.003-8.459-3.003c-3.042,0-6.044,1.064-8.451,2.996
		C1.088,4.576,0.921,4.635,0.751,4.635l0,0c-0.229,0-0.442-0.102-0.585-0.281C-0.093,4.032-0.042,3.559,0.281,3.3
		c2.653-2.129,5.988-3.302,9.39-3.302c3.41,0.001,6.746,1.177,9.399,3.31c0.156,0.125,0.254,0.304,0.276,0.503
		c0.022,0.199-0.036,0.395-0.161,0.551C19.042,4.54,18.829,4.642,18.6,4.642z"/>
	<path d="M23.25,24c-0.2,0-0.389-0.078-0.53-0.22l-3.294-3.293c-1.051,0.816-2.343,1.262-3.676,1.262c-3.308,0-6-2.692-6-6
		s2.692-6,6-6s6,2.692,6,6c0,1.334-0.446,2.626-1.263,3.677l3.294,3.293c0.142,0.141,0.22,0.33,0.22,0.53
		c0,0.2-0.078,0.389-0.22,0.53S23.451,24,23.25,24z M15.75,11.25c-2.481,0-4.5,2.019-4.5,4.5s2.019,4.5,4.5,4.5s4.5-2.019,4.5-4.5
		S18.232,11.25,15.75,11.25z"/>
</g>
</svg>
