<?xml version="1.0" encoding="utf-8"?>
<!-- Generator: Adobe Illustrator 22.1.0, SVG Export Plug-In . SVG Version: 6.00 Build 0)  -->
<svg version="1.1" id="Layer_1" xmlns="http://www.w3.org/2000/svg" xmlns:xlink="http://www.w3.org/1999/xlink" x="0px" y="0px"
	 viewBox="0 0 24 24" style="enable-background:new 0 0 24 24;" xml:space="preserve">
<title>wifi-lock</title>
<g>
	<path d="M5.96,12.034c-0.201,0-0.389-0.078-0.531-0.22c-0.142-0.142-0.219-0.33-0.219-0.531s0.078-0.389,0.22-0.53
		c1.13-1.127,2.635-1.748,4.238-1.748c1.598,0,3.1,0.618,4.229,1.739c0.293,0.292,0.294,0.767,0.003,1.06
		c-0.142,0.143-0.331,0.222-0.532,0.222l0,0c-0.199,0-0.387-0.077-0.529-0.218c-0.846-0.841-1.972-1.304-3.172-1.304
		c-1.203,0-2.332,0.466-3.179,1.311C6.349,11.956,6.16,12.034,5.96,12.034z"/>
	<path d="M3.071,8.572c-0.209,0-0.411-0.088-0.552-0.242c-0.28-0.304-0.26-0.78,0.044-1.06c1.957-1.798,4.48-2.789,7.106-2.789
		c2.609,0,5.12,0.979,7.072,2.757c0.148,0.135,0.235,0.319,0.244,0.52s-0.06,0.392-0.195,0.54c-0.141,0.155-0.344,0.245-0.554,0.245
		c-0.187,0-0.367-0.069-0.505-0.196c-1.674-1.525-3.827-2.365-6.062-2.365c-2.25,0-4.413,0.849-6.09,2.392
		C3.439,8.502,3.259,8.572,3.071,8.572z"/>
	<path d="M18.6,4.642c-0.17,0-0.337-0.059-0.47-0.166c-2.409-1.936-5.413-3.003-8.459-3.003c-3.042,0-6.044,1.064-8.451,2.996
		C1.088,4.576,0.921,4.635,0.751,4.635l0,0c-0.229,0-0.442-0.102-0.585-0.281C-0.093,4.032-0.042,3.559,0.281,3.3
		c2.653-2.129,5.988-3.302,9.39-3.302c3.41,0.001,6.746,1.177,9.399,3.31c0.156,0.125,0.254,0.304,0.276,0.503
		c0.022,0.199-0.036,0.395-0.161,0.551C19.042,4.54,18.829,4.642,18.6,4.642z"/>
	<path d="M15.75,24c-1.241,0-2.25-1.009-2.25-2.25v-4.5c0-0.96,0.615-1.808,1.5-2.121V14.25c0-2.068,1.682-3.75,3.75-3.75
		s3.75,1.682,3.75,3.75v0.879c0.885,0.314,1.5,1.162,1.5,2.121v4.5c0,1.241-1.009,2.25-2.25,2.25H15.75z M15.75,16.5
		c-0.414,0-0.75,0.336-0.75,0.75v4.5c0,0.414,0.336,0.75,0.75,0.75h6c0.414,0,0.75-0.336,0.75-0.75v-4.5
		c0-0.414-0.336-0.75-0.75-0.75H15.75z M21,15v-0.75c0-1.241-1.009-2.25-2.25-2.25s-2.25,1.009-2.25,2.25L21,15z"/>
	<circle cx="18.75" cy="19.53" r="1.125"/>
</g>
</svg>
