<?xml version="1.0" encoding="utf-8"?>
<!-- Generator: Adobe Illustrator 22.1.0, SVG Export Plug-In . SVG Version: 6.00 Build 0)  -->
<svg version="1.1" id="Layer_1" xmlns="http://www.w3.org/2000/svg" xmlns:xlink="http://www.w3.org/1999/xlink" x="0px" y="0px"
	 viewBox="0 0 24 24" style="enable-background:new 0 0 24 24;" xml:space="preserve">
<title>wifi-laptop</title>
<g>
	<path d="M2.253,23.25c-0.601,0-1.166-0.234-1.591-0.659C0.237,22.167,0.003,21.602,0.003,21c0-0.348,0.082-0.696,0.238-1.007
		l1.836-3.67c0.308-0.617,0.781-1.137,1.357-1.5C3.155,14.442,3.001,13.98,3.001,13.5V3c0-1.241,1.009-2.25,2.25-2.25h13.5
		c1.241,0,2.25,1.009,2.25,2.25v10.5c0,0.48-0.154,0.942-0.433,1.324c0.576,0.363,1.049,0.882,1.358,1.5l1.836,3.67
		c0.269,0.538,0.312,1.148,0.122,1.718c-0.19,0.57-0.59,1.032-1.128,1.301c-0.311,0.155-0.659,0.238-1.007,0.238H2.253z M5.43,15.75
		c-0.858,0-1.629,0.477-2.012,1.244l-1.836,3.67C1.53,20.768,1.503,20.884,1.503,21c0,0.414,0.336,0.75,0.75,0.75h19.496
		c0.116,0,0.232-0.027,0.336-0.079c0.179-0.09,0.313-0.244,0.376-0.434c0.063-0.19,0.049-0.393-0.041-0.573l-1.836-3.67
		c-0.384-0.767-1.155-1.244-2.012-1.244H5.43L5.43,15.75z M5.251,2.25c-0.414,0-0.75,0.336-0.75,0.75v10.5
		c0,0.414,0.336,0.75,0.75,0.75h13.5c0.414,0,0.75-0.336,0.75-0.75V3c0-0.414-0.336-0.75-0.75-0.75H5.251z"/>
	<path d="M9.751,20.25c-0.414,0-0.75-0.336-0.75-0.75s0.336-0.75,0.75-0.75h4.5c0.414,0,0.75,0.336,0.75,0.75s-0.336,0.75-0.75,0.75
		H9.751z"/>
	<path d="M11.968,12.734c-0.62,0-1.125-0.505-1.125-1.125c0-0.62,0.505-1.125,1.125-1.125c0.62,0,1.125,0.505,1.125,1.125
		C13.093,12.229,12.589,12.734,11.968,12.734z"/>
	<path d="M15.253,9.214c-0.146,0-0.287-0.042-0.41-0.122c-0.857-0.56-1.852-0.856-2.875-0.856c-1.024,0-2.018,0.296-2.875,0.856
		c-0.123,0.08-0.265,0.122-0.41,0.122c-0.255,0-0.489-0.127-0.628-0.34C7.946,8.707,7.908,8.506,7.949,8.31
		C7.99,8.114,8.105,7.946,8.273,7.836c1.101-0.719,2.379-1.1,3.695-1.1s2.594,0.38,3.695,1.1c0.346,0.226,0.444,0.692,0.218,1.038
		C15.742,9.087,15.507,9.214,15.253,9.214z"/>
	<path d="M6.861,6.844c-0.247,0-0.478-0.121-0.617-0.324C6.129,6.356,6.087,6.156,6.123,5.959c0.036-0.197,0.146-0.368,0.311-0.482
		C8.058,4.354,9.972,3.76,11.968,3.76c1.996,0,3.91,0.594,5.535,1.717c0.34,0.235,0.426,0.704,0.19,1.044
		c-0.14,0.202-0.371,0.323-0.617,0.323c-0.153,0-0.3-0.046-0.426-0.133c-1.374-0.95-2.992-1.452-4.682-1.452S8.66,5.761,7.287,6.711
		C7.161,6.798,7.013,6.844,6.861,6.844z"/>
</g>
</svg>
