<?xml version="1.0" encoding="utf-8"?>
<!-- Generator: Adobe Illustrator 22.1.0, SVG Export Plug-In . SVG Version: 6.00 Build 0)  -->
<svg version="1.1" id="Layer_1" xmlns="http://www.w3.org/2000/svg" xmlns:xlink="http://www.w3.org/1999/xlink" x="0px" y="0px"
	 viewBox="0 0 24 24" style="enable-background:new 0 0 24 24;" xml:space="preserve">
<title>wifi-heart_1</title>
<g>
	<path d="M5.961,12.034c-0.201,0-0.389-0.078-0.531-0.22c-0.141-0.142-0.219-0.33-0.219-0.531c0-0.2,0.079-0.389,0.22-0.53
		c1.114-1.111,2.664-1.748,4.252-1.748c0.859,0,1.688,0.178,2.464,0.53c0.182,0.082,0.322,0.231,0.392,0.419
		c0.071,0.188,0.064,0.391-0.019,0.574c-0.121,0.268-0.389,0.441-0.683,0.441l0,0c-0.108,0-0.212-0.023-0.31-0.067
		c-0.581-0.263-1.202-0.397-1.846-0.397c-1.193,0-2.356,0.478-3.191,1.311C6.35,11.956,6.162,12.034,5.961,12.034z"/>
	<path d="M3.072,8.572c-0.209,0-0.411-0.088-0.552-0.242C2.24,8.025,2.26,7.55,2.564,7.27c1.956-1.798,4.48-2.789,7.105-2.789
		c2.609,0,5.12,0.979,7.072,2.758c0.148,0.135,0.235,0.32,0.244,0.52c0.009,0.2-0.06,0.392-0.195,0.54
		c-0.141,0.155-0.344,0.245-0.554,0.245c-0.187,0-0.366-0.069-0.505-0.195c-1.674-1.526-3.827-2.365-6.062-2.365
		c-2.25,0-4.413,0.849-6.091,2.392C3.44,8.502,3.26,8.572,3.072,8.572z"/>
	<path d="M18.601,4.642c-0.17,0-0.337-0.059-0.47-0.166c-2.409-1.936-5.413-3.003-8.459-3.003c-3.042,0-6.044,1.064-8.451,2.996
		C1.088,4.576,0.922,4.635,0.752,4.635l0,0c-0.229,0-0.442-0.102-0.585-0.281C-0.092,4.032-0.041,3.559,0.282,3.3
		C2.935,1.17,6.27-0.002,9.672-0.002c3.41,0.001,6.746,1.177,9.399,3.31c0.156,0.125,0.254,0.304,0.276,0.503
		c0.022,0.199-0.036,0.395-0.161,0.551C19.043,4.54,18.83,4.642,18.601,4.642z"/>
	<path d="M17.252,24c-0.203,0-0.4-0.084-0.541-0.231l-5.114-5.334c-1.142-1.142-1.424-2.891-0.697-4.347
		c0.644-1.287,1.94-2.087,3.383-2.087c0.588,0,1.155,0.134,1.684,0.399c0.363,0.181,0.693,0.419,0.981,0.707l0.305,0.305
		l0.305-0.305c0.712-0.712,1.66-1.104,2.67-1.104s1.958,0.392,2.67,1.104c0.287,0.286,0.525,0.616,0.707,0.981
		c0.728,1.457,0.443,3.208-0.707,4.359l-5.103,5.323C17.652,23.916,17.455,24,17.252,24z M14.281,13.501
		c-0.87,0-1.652,0.482-2.04,1.257c-0.438,0.877-0.267,1.933,0.427,2.627l4.584,4.781l4.573-4.77
		c0.702-0.703,0.876-1.761,0.438-2.639c-0.11-0.219-0.253-0.418-0.426-0.591c-0.429-0.429-1.001-0.666-1.609-0.666
		s-1.18,0.236-1.609,0.666l-0.835,0.835c-0.142,0.142-0.33,0.22-0.53,0.22s-0.389-0.078-0.53-0.22l-0.835-0.835
		c-0.173-0.173-0.372-0.316-0.591-0.426C14.976,13.582,14.635,13.501,14.281,13.501z"/>
</g>
</svg>
