<?xml version="1.0" encoding="utf-8"?>
<!-- Generator: Adobe Illustrator 22.1.0, SVG Export Plug-In . SVG Version: 6.00 Build 0)  -->
<svg version="1.1" id="Layer_1" xmlns="http://www.w3.org/2000/svg" xmlns:xlink="http://www.w3.org/1999/xlink" x="0px" y="0px"
	 viewBox="0 0 24 24" style="enable-background:new 0 0 24 24;" xml:space="preserve">
<g>
	<title>calendar-cash</title>
	<path d="M1.5,24.001c-0.827,0-1.5-0.673-1.5-1.5v-19c0-0.827,0.673-1.5,1.5-1.5H5v-1.5c0-0.276,0.224-0.5,0.5-0.5S6,0.225,6,0.501
		v1.5h12v-1.5c0-0.276,0.224-0.5,0.5-0.5s0.5,0.224,0.5,0.5v1.5h3.5c0.827,0,1.5,0.673,1.5,1.5v19c0,0.827-0.673,1.5-1.5,1.5H1.5z
		 M1,22.501c0,0.276,0.224,0.5,0.5,0.5h21c0.276,0,0.5-0.224,0.5-0.5v-14.5H1V22.501z M23,7.001v-3.5c0-0.276-0.224-0.5-0.5-0.5H19
		v2.5c0,0.276-0.224,0.5-0.5,0.5S18,5.777,18,5.501v-2.5H6v2.5c0,0.276-0.224,0.5-0.5,0.5S5,5.777,5,5.501v-2.5H1.5
		c-0.276,0-0.5,0.224-0.5,0.5v3.5H23z"/>
	<path d="M12,21.001c-3.033,0-5.5-2.467-5.5-5.5s2.467-5.5,5.5-5.5s5.5,2.467,5.5,5.5S15.033,21.001,12,21.001z M12,11.001
		c-2.481,0-4.5,2.019-4.5,4.5s2.019,4.5,4.5,4.5c2.481,0,4.5-2.019,4.5-4.5S14.481,11.001,12,11.001z"/>
	<path d="M12,19.001c-0.276,0-0.5-0.224-0.5-0.5V18H10c-0.276,0-0.5-0.224-0.5-0.5S9.724,17,10,17h3c0.276,0,0.5-0.224,0.5-0.5
		S13.276,16,13,16h-2c-0.827,0-1.5-0.673-1.5-1.5S10.173,13,11,13h0.5v-0.499c0-0.276,0.224-0.5,0.5-0.5c0.276,0,0.5,0.224,0.5,0.5
		V13H14c0.276,0,0.5,0.224,0.5,0.5S14.276,14,14,14h-1.979c-0.007,0.001-0.015,0.001-0.021,0.001s-0.014,0-0.021-0.001H11
		c-0.276,0-0.5,0.224-0.5,0.5S10.724,15,11,15h2c0.827,0,1.5,0.673,1.5,1.5S13.827,18,13,18h-0.5v0.501
		C12.5,18.777,12.276,19.001,12,19.001z"/>
</g>
</svg>
