<?xml version="1.0" encoding="utf-8"?>
<!-- Generator: Adobe Illustrator 22.1.0, SVG Export Plug-In . SVG Version: 6.00 Build 0)  -->
<svg version="1.1" id="Layer_1" xmlns="http://www.w3.org/2000/svg" xmlns:xlink="http://www.w3.org/1999/xlink" x="0px" y="0px"
	 viewBox="0 0 24 24" style="enable-background:new 0 0 24 24;" xml:space="preserve">
<g>
	<title>calendar-plane</title>
	<path d="M1.5,24.001c-0.827,0-1.5-0.673-1.5-1.5v-19c0-0.827,0.673-1.5,1.5-1.5H5v-1.5c0-0.276,0.224-0.5,0.5-0.5S6,0.225,6,0.501
		v1.5h12v-1.5c0-0.276,0.224-0.5,0.5-0.5s0.5,0.224,0.5,0.5v1.5h3.5c0.827,0,1.5,0.673,1.5,1.5v19c0,0.827-0.673,1.5-1.5,1.5H1.5z
		 M1,22.501c0,0.276,0.224,0.5,0.5,0.5h21c0.276,0,0.5-0.224,0.5-0.5v-14.5H1V22.501z M23,7.001v-3.5c0-0.276-0.224-0.5-0.5-0.5H19
		v2.5c0,0.276-0.224,0.5-0.5,0.5S18,5.777,18,5.501v-2.5H6v2.5c0,0.276-0.224,0.5-0.5,0.5S5,5.777,5,5.501v-2.5H1.5
		c-0.276,0-0.5,0.224-0.5,0.5v3.5H23z"/>
	<path d="M9.755,20.001c-0.203,0-0.398-0.062-0.564-0.178l-2.879-2.021c-0.183-0.146-0.285-0.328-0.307-0.535
		c-0.022-0.204,0.037-0.404,0.166-0.563c0.029-0.04,0.078-0.089,0.131-0.129l1.18-1.042c0.148-0.121,0.323-0.184,0.501-0.184
		c0.087,0,0.173,0.015,0.255,0.044c0.03,0.01,0.06,0.025,0.088,0.042l1.236,0.734l1.032-0.72l-2.993-1.85
		c-0.023-0.014-0.044-0.029-0.063-0.046c-0.346-0.297-0.387-0.822-0.092-1.17c0.038-0.045,0.081-0.085,0.128-0.122l0.898-0.663
		c0.144-0.107,0.314-0.163,0.493-0.163c0.099,0,0.197,0.018,0.291,0.052l4.776,1.774l2.106-1.438
		c0.298-0.205,0.649-0.313,1.013-0.313c0.132,0,0.264,0.015,0.392,0.043c0.634,0.148,1.138,0.601,1.352,1.212
		C18.964,12.958,19,13.163,19,13.371c0.012,0.642-0.321,1.258-0.87,1.604l-7.856,4.878C10.118,19.949,9.939,20.001,9.755,20.001z
		 M9.765,19.004l7.834-4.877c0.252-0.159,0.406-0.446,0.401-0.746c0-0.102-0.016-0.192-0.047-0.281
		c-0.101-0.29-0.337-0.502-0.632-0.571c-0.054-0.012-0.111-0.018-0.169-0.018c-0.161,0-0.316,0.048-0.448,0.139l-2.321,1.584
		c-0.083,0.057-0.181,0.087-0.282,0.087c-0.06,0-0.119-0.011-0.175-0.032l-4.932-1.832l-0.61,0.45l3.384,2.092
		c0.144,0.089,0.232,0.243,0.237,0.412c0.005,0.168-0.075,0.327-0.213,0.424l-1.92,1.34c-0.085,0.059-0.184,0.09-0.286,0.09
		c-0.09,0-0.178-0.024-0.256-0.07L8.011,16.41l-0.859,0.758L9.765,19.004z"/>
</g>
</svg>
