<?xml version="1.0" encoding="utf-8"?>
<!-- Generator: Adobe Illustrator 22.1.0, SVG Export Plug-In . SVG Version: 6.00 Build 0)  -->
<svg version="1.1" id="Layer_1" xmlns="http://www.w3.org/2000/svg" xmlns:xlink="http://www.w3.org/1999/xlink" x="0px" y="0px"
	 viewBox="0 0 24 24" style="enable-background:new 0 0 24 24;" xml:space="preserve">
<g>
	<title>calendar-download</title>
	<path d="M17.5,24.001c-3.584,0-6.5-2.916-6.5-6.5s2.916-6.5,6.5-6.5s6.5,2.916,6.5,6.5S21.084,24.001,17.5,24.001z M17.5,12.001
		c-3.033,0-5.5,2.467-5.5,5.5s2.467,5.5,5.5,5.5s5.5-2.467,5.5-5.5S20.533,12.001,17.5,12.001z"/>
	<path d="M17.5,21.001c-0.066,0-0.13-0.013-0.191-0.039c-0.062-0.025-0.117-0.062-0.163-0.109l-2.249-2.249
		c-0.094-0.094-0.146-0.22-0.146-0.354s0.052-0.259,0.146-0.354s0.22-0.146,0.354-0.146s0.259,0.052,0.354,0.146L17,19.294v-4.793
		c0-0.276,0.224-0.5,0.5-0.5s0.5,0.224,0.5,0.5v4.793l1.396-1.396c0.094-0.094,0.22-0.146,0.354-0.146s0.259,0.052,0.354,0.146
		s0.146,0.22,0.146,0.354s-0.052,0.259-0.146,0.354l-2.25,2.25c-0.045,0.046-0.101,0.083-0.163,0.109
		C17.63,20.988,17.566,21.001,17.5,21.001z"/>
	<path d="M1.5,19C0.673,19,0,18.327,0,17.5v-14C0,2.673,0.673,2,1.5,2H5V0.501c0-0.276,0.224-0.5,0.5-0.5S6,0.225,6,0.501V2h9V0.501
		c0-0.276,0.224-0.5,0.5-0.5s0.5,0.224,0.5,0.5V2h3.5C20.327,2,21,2.673,21,3.5V10c0,0.276-0.224,0.5-0.5,0.5S20,10.276,20,10V8.001
		H1V17.5C1,17.776,1.224,18,1.5,18h8c0.276,0,0.5,0.224,0.5,0.5S9.776,19,9.5,19H1.5z M20,7.001V3.5C20,3.224,19.776,3,19.5,3H16
		v2.501c0,0.276-0.224,0.5-0.5,0.5S15,5.777,15,5.501V3H6v2.501c0,0.276-0.224,0.5-0.5,0.5S5,5.777,5,5.501V3H1.5
		C1.224,3,1,3.224,1,3.5v3.501H20z"/>
</g>
</svg>
