<?xml version="1.0" encoding="utf-8"?>
<!-- Generator: Adobe Illustrator 22.1.0, SVG Export Plug-In . SVG Version: 6.00 Build 0)  -->
<svg version="1.1" id="Layer_1" xmlns="http://www.w3.org/2000/svg" xmlns:xlink="http://www.w3.org/1999/xlink" x="0px" y="0px"
	 viewBox="0 0 24 24" style="enable-background:new 0 0 24 24;" xml:space="preserve">
<g>
	<title>calendar-home</title>
	<path d="M12.5,24.001c-0.276,0-0.5-0.224-0.5-0.5v-6.114l-1.177,0.996c-0.091,0.076-0.205,0.118-0.323,0.118
		c-0.148,0-0.287-0.065-0.382-0.177c-0.178-0.21-0.152-0.526,0.058-0.704l6.5-5.5c0.09-0.076,0.204-0.118,0.323-0.118
		s0.233,0.042,0.323,0.118l6.5,5.5c0.211,0.178,0.237,0.495,0.059,0.705c-0.095,0.112-0.234,0.177-0.382,0.177
		c-0.118,0-0.232-0.042-0.322-0.118L22,17.387v6.114c0,0.276-0.224,0.5-0.5,0.5H12.5z M21,23.001v-6.46l-4-3.385l-4,3.385v6.46h2
		V20.5c0-1.103,0.897-2,2-2s2,0.897,2,2v2.501H21z M18,23v-2.5c0-0.552-0.448-1-1-1s-1,0.448-1,1V23H18z"/>
	<path d="M1.5,19C0.672,19,0,18.327,0,17.5v-14C0,2.673,0.672,2,1.5,2H5V0.501c0-0.276,0.224-0.5,0.5-0.5S6,0.225,6,0.501V2h9V0.501
		c0-0.276,0.224-0.5,0.5-0.5s0.5,0.224,0.5,0.5V2h3.5C20.327,2,21,2.673,21,3.5v9c0,0.276-0.224,0.5-0.5,0.5S20,12.776,20,12.5
		V8.001H1V17.5C1,17.776,1.224,18,1.5,18h7C8.775,18,9,18.224,9,18.5S8.775,19,8.5,19H1.5z M20,7.001V3.5C20,3.224,19.775,3,19.5,3
		H16v2.501c0,0.276-0.224,0.5-0.5,0.5S15,5.777,15,5.501V3H6v2.501c0,0.276-0.224,0.5-0.5,0.5S5,5.777,5,5.501V3H1.5
		C1.224,3,1,3.224,1,3.5v3.501H20z"/>
</g>
</svg>
