<?xml version="1.0" encoding="utf-8"?>
<!-- Generator: Adobe Illustrator 22.1.0, SVG Export Plug-In . SVG Version: 6.00 Build 0)  -->
<svg version="1.1" id="Layer_1" xmlns="http://www.w3.org/2000/svg" xmlns:xlink="http://www.w3.org/1999/xlink" x="0px" y="0px"
	 viewBox="0 0 24 24" style="enable-background:new 0 0 24 24;" xml:space="preserve">
<g>
	<title>calendar-block</title>
	<path d="M17.5,24.001c-1.722,0-3.345-0.669-4.572-1.884c-0.009-0.007-0.017-0.014-0.024-0.021
		c-0.007-0.007-0.014-0.015-0.021-0.024C11.669,20.846,11,19.223,11,17.501c0-3.584,2.916-6.5,6.5-6.5
		c1.719,0,3.338,0.666,4.564,1.876c0.012,0.009,0.024,0.019,0.032,0.027c0.012,0.012,0.022,0.025,0.03,0.036
		C23.332,14.158,24,15.78,24,17.501C24,21.085,21.084,24.001,17.5,24.001z M13.983,21.725c0.988,0.824,2.227,1.276,3.517,1.276
		c3.033,0,5.5-2.467,5.5-5.5c0-1.29-0.451-2.529-1.276-3.517L13.983,21.725z M17.5,12.001c-3.033,0-5.5,2.467-5.5,5.5
		c0,1.29,0.451,2.529,1.276,3.517l7.742-7.742C20.029,12.452,18.79,12.001,17.5,12.001z"/>
	<path d="M1.5,19C0.673,19,0,18.327,0,17.5v-14C0,2.673,0.673,2,1.5,2H5V0.501c0-0.276,0.224-0.5,0.5-0.5S6,0.225,6,0.501V2h9V0.501
		c0-0.276,0.224-0.5,0.5-0.5s0.5,0.224,0.5,0.5V2h3.5C20.327,2,21,2.673,21,3.5V10c0,0.276-0.224,0.5-0.5,0.5S20,10.276,20,10V8.001
		H1V17.5C1,17.776,1.224,18,1.5,18h8c0.276,0,0.5,0.224,0.5,0.5S9.776,19,9.5,19H1.5z M20,7.001V3.5C20,3.224,19.776,3,19.5,3H16
		v2.501c0,0.276-0.224,0.5-0.5,0.5S15,5.777,15,5.501V3H6v2.501c0,0.276-0.224,0.5-0.5,0.5S5,5.777,5,5.501V3H1.5
		C1.224,3,1,3.224,1,3.5v3.501H20z"/>
</g>
</svg>
