<?xml version="1.0" encoding="utf-8"?>
<!-- Generator: Adobe Illustrator 22.1.0, SVG Export Plug-In . SVG Version: 6.00 Build 0)  -->
<svg version="1.1" id="Layer_1" xmlns="http://www.w3.org/2000/svg" xmlns:xlink="http://www.w3.org/1999/xlink" x="0px" y="0px"
	 viewBox="0 0 24 24" style="enable-background:new 0 0 24 24;" xml:space="preserve">
<title>cog-3</title>
<g>
	<path d="M15.845,24.001c-0.764,0-1.496-0.326-2.009-0.894l-0.94-1.042c-0.229-0.253-0.556-0.398-0.898-0.398
		c-0.3,0-0.587,0.11-0.809,0.311c-0.031,0.028-0.06,0.057-0.088,0.088l-0.943,1.043c-0.512,0.567-1.245,0.893-2.012,0.893
		c-0.671,0-1.315-0.247-1.813-0.696c-0.608-0.549-0.933-1.333-0.891-2.151l0.072-1.4c0.016-0.322-0.094-0.632-0.312-0.872
		s-0.514-0.382-0.837-0.398c-0.019-0.001-0.04-0.001-0.061-0.001c-0.021,0-0.042,0-0.063,0.001l-1.396,0.072
		c-0.043,0.002-0.083,0.003-0.122,0.003c-1.454,0-2.647-1.133-2.715-2.58c-0.038-0.811,0.284-1.589,0.885-2.134l1.044-0.942
		c0.239-0.216,0.38-0.513,0.396-0.836c0.016-0.323-0.093-0.633-0.309-0.872c-0.028-0.031-0.057-0.06-0.088-0.088l-1.041-0.939
		c-1.109-0.999-1.199-2.716-0.2-3.826c0.513-0.569,1.248-0.896,2.016-0.896c0.045,0,0.091,0.001,0.136,0.003l1.401,0.072
		c0.024,0.001,0.046,0.002,0.068,0.002c0.641,0,1.169-0.504,1.202-1.148c0.002-0.043,0.002-0.085,0-0.126L5.446,2.85
		C5.411,2.125,5.66,1.432,6.147,0.896c0.487-0.536,1.153-0.85,1.875-0.884C8.066,0.01,8.11,0.008,8.154,0.008
		c0.761,0,1.491,0.324,2.003,0.888c0,0,0.948,1.043,0.95,1.046c0.216,0.236,0.511,0.376,0.831,0.392
		c0.019,0.001,0.039,0.001,0.059,0.001c0.302,0,0.59-0.111,0.813-0.311c0.031-0.028,0.059-0.056,0.086-0.086l0.941-1.043
		c0.512-0.566,1.245-0.89,2.01-0.89c0.674,0,1.319,0.249,1.818,0.701c0.604,0.547,0.927,1.328,0.886,2.142l-0.072,1.401
		c-0.017,0.323,0.093,0.632,0.309,0.872c0.216,0.24,0.513,0.381,0.835,0.398c0.021,0.001,0.042,0.002,0.062,0.002
		s0.041-0.001,0.062-0.002l1.401-0.072c0.049-0.003,0.097-0.004,0.146-0.004c1.438,0,2.625,1.127,2.702,2.565
		c0.044,0.821-0.282,1.607-0.892,2.157l-1.042,0.94c-0.495,0.447-0.534,1.213-0.087,1.708c0.026,0.029,0.056,0.059,0.087,0.087
		l1.042,0.94c1.109,1.001,1.197,2.718,0.197,3.826c-0.513,0.568-1.245,0.895-2.008,0.895c0,0,0,0,0,0
		c-0.048,0-0.095-0.001-0.143-0.004l-1.4-0.072c-0.022-0.001-0.043-0.002-0.064-0.002c-0.643,0-1.172,0.505-1.205,1.149
		c-0.002,0.041-0.002,0.082,0,0.123l0.072,1.4c0.077,1.492-1.074,2.768-2.566,2.845C15.94,24,15.893,24.001,15.845,24.001z
		 M4.305,16.983c0.045,0,0.09,0.001,0.135,0.003c0.722,0.036,1.388,0.352,1.874,0.89c0.486,0.538,0.734,1.231,0.698,1.954
		L6.94,21.231c-0.019,0.365,0.126,0.715,0.397,0.96c0.222,0.201,0.51,0.311,0.809,0.311c0.342,0,0.67-0.145,0.898-0.398l0.944-1.044
		c0.062-0.068,0.127-0.133,0.194-0.194c0.499-0.45,1.143-0.698,1.815-0.698c0.766,0,1.5,0.325,2.012,0.892l0.94,1.042
		c0.232,0.257,0.551,0.399,0.898,0.399c0.021,0,0.042,0,0.063-0.001c0.665-0.034,1.178-0.604,1.144-1.27l-0.072-1.4
		c-0.005-0.092-0.005-0.184,0-0.276c0.073-1.441,1.267-2.571,2.716-2.571c0.042,0,0.084,0.001,0.126,0.003l1.402,0.072
		c0.022,0.001,0.043,0.002,0.065,0.002c0.345,0,0.663-0.142,0.895-0.399c0.447-0.495,0.407-1.261-0.088-1.708l-1.042-0.939
		c-0.069-0.062-0.134-0.127-0.195-0.196c-0.484-0.536-0.731-1.23-0.694-1.954s0.353-1.388,0.889-1.873l1.042-0.94
		c0.273-0.246,0.418-0.597,0.399-0.963c-0.034-0.642-0.562-1.145-1.201-1.145c-0.023,0-0.046,0.001-0.069,0.002l-1.403,0.072
		c-0.046,0.002-0.093,0.004-0.14,0.004s-0.094-0.001-0.14-0.004c-0.722-0.038-1.387-0.354-1.871-0.891
		c-0.484-0.537-0.73-1.231-0.693-1.953l0.072-1.4c0.018-0.362-0.126-0.71-0.396-0.955c-0.222-0.201-0.511-0.312-0.812-0.312
		c-0.341,0-0.668,0.145-0.896,0.396l-0.939,1.041c-0.06,0.067-0.126,0.133-0.196,0.196c-0.498,0.45-1.142,0.698-1.813,0.698
		c-0.046,0-0.092-0.001-0.139-0.004C11.14,3.795,10.475,3.479,9.99,2.943L9.047,1.905c-0.232-0.256-0.55-0.396-0.895-0.396
		c-0.02,0-0.039,0-0.059,0.001C7.771,1.525,7.474,1.666,7.257,1.905C7.04,2.144,6.929,2.453,6.944,2.776l0.072,1.397
		c0.005,0.094,0.005,0.188,0,0.281C6.942,5.896,5.755,7.025,4.314,7.025c-0.048,0-0.095-0.001-0.144-0.004l-1.4-0.072
		C2.747,6.948,2.725,6.948,2.703,6.948c-0.345,0-0.662,0.142-0.895,0.4C1.593,7.588,1.483,7.897,1.5,8.22
		c0.017,0.322,0.158,0.619,0.398,0.835l1.042,0.94c0.069,0.062,0.134,0.127,0.195,0.195c1.001,1.109,0.913,2.825-0.195,3.826
		l-1.042,0.94c-0.267,0.242-0.41,0.589-0.393,0.951c0.031,0.646,0.561,1.152,1.207,1.152c0.019,0,0.038,0,0.058-0.001l1.397-0.072
		C4.214,16.984,4.26,16.983,4.305,16.983z"/>
	<path d="M12,18.752c-1.982,0-3.855-0.869-5.143-2.385c-0.011-0.01-0.021-0.02-0.031-0.032c-0.01-0.012-0.02-0.025-0.029-0.039
		c-0.993-1.194-1.547-2.724-1.547-4.294c0-3.722,3.028-6.75,6.75-6.75s6.75,3.028,6.75,6.75C18.75,15.724,15.722,18.752,12,18.752z
		 M8.5,15.909c0.965,0.868,2.193,1.342,3.5,1.342c1.44,0,2.8-0.586,3.79-1.621l-3.753-2.682L8.5,15.909z M11.25,6.806
		c-2.554,0.367-4.5,2.576-4.5,5.195c0,0.984,0.27,1.93,0.786,2.758l3.714-3.109V6.806z M16.663,14.411
		c0.385-0.743,0.587-1.568,0.587-2.41c0-2.62-1.947-4.828-4.5-5.195v4.809L16.663,14.411z"/>
</g>
</svg>
