<?xml version="1.0" encoding="utf-8"?>
<!-- Generator: Adobe Illustrator 22.1.0, SVG Export Plug-In . SVG Version: 6.00 Build 0)  -->
<svg version="1.1" id="Layer_1" xmlns="http://www.w3.org/2000/svg" xmlns:xlink="http://www.w3.org/1999/xlink" x="0px" y="0px"
	 viewBox="0 0 24 24" style="enable-background:new 0 0 24 24;" xml:space="preserve">
<title>cog-circle</title>
<g>
	<path d="M12,24.001c-6.617,0-12-5.383-12-12c0-6.617,5.383-12,12-12c6.617,0,12,5.383,12,12C24,18.618,18.617,24.001,12,24.001z
		 M12,1.501c-5.79,0-10.5,4.71-10.5,10.5c0,5.79,4.71,10.5,10.5,10.5c5.79,0,10.5-4.71,10.5-10.5C22.5,6.211,17.79,1.501,12,1.501z"
		/>
	<path d="M14.459,18.755c-0.531,0-1.04-0.226-1.397-0.62l-0.544-0.599c-0.071-0.079-0.164-0.123-0.268-0.128
		c-0.001,0-0.002,0-0.004,0c-0.115,0-0.204,0.035-0.275,0.099c-0.008,0.008-0.019,0.018-0.028,0.028l-0.545,0.601
		c-0.356,0.393-0.865,0.619-1.398,0.619c-0.469,0-0.918-0.173-1.265-0.487c-0.421-0.381-0.647-0.925-0.618-1.493l0.042-0.813
		c0.013-0.216-0.15-0.4-0.362-0.413c-0.001,0-0.041,0-0.042,0l-0.812,0.042c-0.032,0.001-0.061,0.002-0.09,0.002
		c-1.009,0-1.839-0.787-1.889-1.791c-0.029-0.568,0.197-1.112,0.618-1.493l0.599-0.544c0.159-0.144,0.171-0.389,0.028-0.547
		C6.2,11.209,6.192,11.2,6.182,11.191l-0.601-0.546C5.208,10.305,4.99,9.84,4.967,9.337C4.944,8.833,5.118,8.351,5.458,7.979
		c0.356-0.391,0.864-0.615,1.394-0.615c0.027,0,0.054,0,0.081,0.002c0,0,0.821,0.042,0.823,0.042c0.117,0,0.207-0.035,0.277-0.098
		c0.076-0.068,0.122-0.163,0.128-0.266c0.001-0.014,0-0.028,0-0.042L8.117,6.193c-0.052-1.04,0.751-1.927,1.789-1.979
		c0.032-0.002,0.064-0.002,0.096-0.002c0.531,0,1.04,0.226,1.397,0.621l0.545,0.604c0.069,0.076,0.164,0.121,0.267,0.126
		c0.001,0,0.002,0,0.003,0c0.114,0,0.205-0.035,0.275-0.099c0.012-0.01,0.02-0.019,0.028-0.027l0.546-0.601
		c0.356-0.393,0.866-0.619,1.398-0.619c0.469,0,0.918,0.173,1.265,0.487c0.421,0.382,0.647,0.926,0.618,1.493l-0.042,0.813
		c-0.011,0.212,0.153,0.393,0.365,0.404l0.06,0.375l-0.019-0.375l0.811-0.042c0.031-0.001,0.06-0.002,0.089-0.002
		c1.01,0,1.84,0.787,1.891,1.791c0.029,0.568-0.197,1.112-0.619,1.493l-0.599,0.544c-0.077,0.07-0.122,0.165-0.127,0.268
		c-0.005,0.103,0.03,0.202,0.099,0.278c0.01,0.011,0.018,0.019,0.028,0.028l0.601,0.546c0.77,0.697,0.83,1.891,0.132,2.663
		c-0.357,0.395-0.867,0.621-1.4,0.621c0,0-0.062-0.001-0.093-0.002c0,0-0.814-0.042-0.815-0.042c-0.229,0-0.392,0.157-0.403,0.365
		c-0.001,0.013,0,0.029,0,0.044l0.042,0.809c0.025,0.504-0.147,0.987-0.485,1.36c-0.338,0.374-0.801,0.593-1.304,0.619
		C14.522,18.754,14.491,18.755,14.459,18.755z M12.229,15.907c0.033,0,0.066,0.001,0.099,0.002c0.501,0.025,0.964,0.245,1.302,0.619
		l0.544,0.599c0.075,0.083,0.176,0.128,0.284,0.128c0.127-0.006,0.22-0.05,0.29-0.127c0.069-0.076,0.104-0.175,0.099-0.278
		l-0.042-0.811c-0.003-0.065-0.003-0.131,0-0.195c0.052-1.003,0.876-1.789,1.876-1.789c0.035,0,0.07,0.001,0.105,0.003
		c0,0,0.812,0.042,0.812,0.042c0.128,0,0.229-0.045,0.303-0.127c0.069-0.076,0.104-0.175,0.099-0.278
		c-0.005-0.104-0.049-0.197-0.127-0.267l-0.601-0.546c-0.046-0.042-0.091-0.087-0.134-0.135c-0.696-0.769-0.636-1.964,0.135-2.662
		l0.599-0.544c0.087-0.079,0.134-0.19,0.128-0.307c-0.01-0.202-0.184-0.367-0.387-0.367l-0.829,0.042
		c-0.032,0.002-0.064,0.002-0.096,0.002s-0.064-0.001-0.097-0.002c-1.039-0.054-1.84-0.942-1.787-1.98l0.042-0.812
		c0.006-0.115-0.04-0.226-0.126-0.304c-0.071-0.064-0.163-0.099-0.259-0.099c-0.111,0-0.213,0.045-0.287,0.127l-0.546,0.601
		c-0.041,0.045-0.087,0.091-0.135,0.135c-0.345,0.312-0.794,0.485-1.262,0.485c-0.031,0-0.063-0.001-0.094-0.002
		c-0.504-0.025-0.967-0.245-1.305-0.618l-0.546-0.605c-0.073-0.081-0.176-0.126-0.287-0.126c-0.12,0.005-0.215,0.051-0.284,0.127
		C9.645,5.915,9.61,6.014,9.615,6.116l0.042,0.811c0.004,0.067,0.003,0.134,0,0.201C9.602,8.127,8.775,8.91,7.775,8.91
		c-0.035,0-0.07-0.001-0.105-0.003c0,0-0.81-0.042-0.81-0.042c-0.119,0-0.222,0.046-0.295,0.126c-0.07,0.077-0.105,0.173-0.1,0.278
		C6.47,9.371,6.514,9.467,6.591,9.536l0.599,0.544c0.045,0.041,0.09,0.086,0.132,0.132c0.698,0.771,0.638,1.967-0.133,2.664
		L6.589,13.42c-0.087,0.079-0.133,0.19-0.128,0.307c0.01,0.202,0.181,0.367,0.38,0.367l0.836-0.043
		c0.031-0.002,0.063-0.003,0.096-0.003c0.037,0,0.074,0.001,0.111,0.003c0.503,0.029,0.964,0.253,1.298,0.63
		c0.335,0.377,0.503,0.861,0.474,1.363l-0.042,0.807c-0.006,0.115,0.04,0.226,0.127,0.304c0.071,0.064,0.162,0.099,0.258,0.099
		c0.109,0,0.214-0.046,0.287-0.127l0.546-0.601c0.042-0.046,0.086-0.09,0.131-0.131C11.312,16.08,11.761,15.907,12.229,15.907z"/>
	<path d="M12.23,14.481c-1.654,0-3-1.346-3-3c0-1.654,1.346-3,3-3c1.654,0,3,1.346,3,3C15.23,13.135,13.884,14.481,12.23,14.481z
		 M12.23,9.981c-0.827,0-1.5,0.673-1.5,1.5s0.673,1.5,1.5,1.5s1.5-0.673,1.5-1.5S13.057,9.981,12.23,9.981z"/>
</g>
</svg>
