<?xml version="1.0" encoding="utf-8"?>
<!-- Generator: Adobe Illustrator 22.1.0, SVG Export Plug-In . SVG Version: 6.00 Build 0)  -->
<svg version="1.1" id="Layer_1" xmlns="http://www.w3.org/2000/svg" xmlns:xlink="http://www.w3.org/1999/xlink" x="0px" y="0px"
	 viewBox="0 0 24 24" style="enable-background:new 0 0 24 24;" xml:space="preserve">
<title>tool-box</title>
<g>
	<path d="M2.25,22.501c-1.241,0-2.25-1.009-2.25-2.25v-12c0-1.241,1.009-2.25,2.25-2.25h4.558c0.368-2.55,2.584-4.5,5.192-4.5
		s4.824,1.95,5.192,4.5h4.558c1.241,0,2.25,1.009,2.25,2.25v12c0,1.241-1.009,2.25-2.25,2.25H2.25z M1.5,20.251
		c0,0.414,0.336,0.75,0.75,0.75h19.5c0.414,0,0.75-0.336,0.75-0.75v-6.75h-8.25c0,1.24-1.01,2.249-2.25,2.249
		c-1.24,0-2.25-1.009-2.25-2.249H1.5V20.251z M12,11.25c-0.414,0-0.75,0.336-0.75,0.75v1.5c0,0.414,0.336,0.75,0.75,0.75
		s0.75-0.336,0.75-0.75V12C12.75,11.586,12.414,11.25,12,11.25z M22.5,12.001v-3.75c0-0.414-0.336-0.75-0.75-0.75H2.25
		c-0.414,0-0.75,0.336-0.75,0.75v3.75h8.25V12c0-1.241,1.009-2.25,2.25-2.25c1.241,0,2.25,1.009,2.25,2.25v0.001H22.5z
		 M15.672,6.001c-0.352-1.712-1.892-3-3.672-3s-3.32,1.288-3.672,3H15.672z"/>
</g>
</svg>
