<svg xmlns="http://www.w3.org/2000/svg" viewBox="0 0 24 24"><title>rating-star-winner</title><path d="M16.023,12.8,14.9,10.2a.5.5,0,0,1,.1-.545l2.044-2.136A.643.643,0,0,0,16.585,6.4H14.277a.5.5,0,0,1-.449-.282l-1.21-2.492a.7.7,0,0,0-1.235,0L10.171,6.119a.5.5,0,0,1-.45.281H7.414a.643.643,0,0,0-.451,1.123L9.008,9.659a.5.5,0,0,1,.1.545L7.978,12.8a.686.686,0,0,0,.977.859l2.8-1.577a.5.5,0,0,1,.491,0l2.8,1.577A.686.686,0,0,0,16.023,12.8Z"/><path d="M23.838,16.005a.49.49,0,0,0-.345-.855H21.81a.5.5,0,0,1-.45-.282l-.889-1.831a.529.529,0,0,0-.941,0l-.891,1.832a.5.5,0,0,1-.45.281H16.506a.489.489,0,0,0-.343.855l1.5,1.571a.5.5,0,0,1,.1.545l-.828,1.9a.523.523,0,0,0,.745.654l2.075-1.169a.5.5,0,0,1,.491,0l2.075,1.169a.523.523,0,0,0,.744-.654l-.827-1.9a.5.5,0,0,1,.1-.545Z"/><path d="M7.493,15.15H5.81a.5.5,0,0,1-.45-.282l-.889-1.831a.529.529,0,0,0-.941,0l-.891,1.832a.5.5,0,0,1-.45.281H.506a.489.489,0,0,0-.343.855l1.5,1.571a.5.5,0,0,1,.1.545l-.828,1.9a.523.523,0,0,0,.745.654L3.755,19.51a.5.5,0,0,1,.491,0l2.075,1.169a.523.523,0,0,0,.744-.654l-.827-1.9a.5.5,0,0,1,.1-.545l1.5-1.571A.49.49,0,0,0,7.493,15.15Z"/></svg>