<svg xmlns="http://www.w3.org/2000/svg" viewBox="0 0 24 24"><title>rating-star-give</title><path d="M23.912,7.022A1.413,1.413,0,0,0,22.593,6.1H17.836a.5.5,0,0,1-.471-.333L15.65.912a1.407,1.407,0,0,0-2.635,0L13.01.931,11.3,5.771a.5.5,0,0,1-.472.333H6.072a1.407,1.407,0,0,0-.9,2.487l4.072,3.375a.5.5,0,0,1,.155.543L9,13.7a.5.5,0,0,0,.272.616A3.732,3.732,0,0,1,11.2,16.266a2.475,2.475,0,0,1,.194.766.5.5,0,0,0,.778.37l1.87-1.264a.5.5,0,0,1,.575.011l4.2,3.076a1.407,1.407,0,0,0,2.17-1.577l-1.713-5.139a.5.5,0,0,1,.155-.543l4.084-3.384A1.411,1.411,0,0,0,23.912,7.022Z"/><path d="M6.375,19.5a.625.625,0,0,1,0-1.25H8.9a1,1,0,0,0,.919-1.394A2.233,2.233,0,0,0,7.764,15.5H3.5A.5.5,0,0,0,3,16v6.5a.5.5,0,0,0,.5.5H14.264A2.238,2.238,0,0,0,16.5,20.764V20.5a1,1,0,0,0-1-1Z"/><path d="M2,15.75a1.02,1.02,0,0,0-1-1,1,1,0,0,0-1,1V23a1,1,0,0,0,1,1,1.044,1.044,0,0,0,1-1Z"/></svg>