<svg xmlns="http://www.w3.org/2000/svg" viewBox="0 0 24 24"><title>rating-star-subtract</title><path d="M21.552,10.578A1.465,1.465,0,0,0,20.6,8H14.655L12.528,1.95a1.466,1.466,0,0,0-2.751.019L7.657,8H1.714a1.464,1.464,0,0,0-.938,2.589L5.8,14.736,3.693,21.068a1.466,1.466,0,0,0,2.256,1.648L11.157,18.9l5.207,3.818a1.465,1.465,0,0,0,2.256-1.644l-2.111-6.336ZM14.707,13.63a1,1,0,0,0-.313,1.087l1.549,4.647a.25.25,0,0,1-.385.281l-3.811-2.794a1,1,0,0,0-1.183,0l-3.81,2.794a.25.25,0,0,1-.385-.281l1.549-4.647a1,1,0,0,0-.313-1.087L3.74,10.442A.25.25,0,0,1,3.9,10H8.366a1,1,0,0,0,.943-.668L10.92,4.748a.25.25,0,0,1,.472,0L13,9.332a1,1,0,0,0,.944.668h4.466a.25.25,0,0,1,.159.442Z"/><path d="M22.749,2h-5a1,1,0,0,0,0,2h5a1,1,0,0,0,0-2Z"/></svg>