<svg xmlns="http://www.w3.org/2000/svg" viewBox="0 0 24 24"><title>rating-star-check</title><path d="M20.707,11.854l2.066-1.713A1.5,1.5,0,0,0,21.8,7.5H15.711a.5.5,0,0,1-.472-.334L13.054.975a1.5,1.5,0,0,0-2.816.016L8.06,7.166a.5.5,0,0,1-.472.334H1.5a1.5,1.5,0,0,0-.963,2.65l5.184,4.3a.5.5,0,0,1,.155.543L3.7,21.523A1.5,1.5,0,0,0,6.007,23.21l5.264-3.86a6.5,6.5,0,1,0,9.436-7.5ZM17.5,22A4.5,4.5,0,1,1,22,17.5,4.505,4.505,0,0,1,17.5,22Z"/><path d="M19.166,15.741l-2.381,2.947L15.53,17.433a.75.75,0,0,0-1.061,1.06l1.354,1.355a1.387,1.387,0,0,0,2.063-.138l2.446-3.025a.75.75,0,0,0-1.166-.944Z"/></svg>