<svg xmlns="http://www.w3.org/2000/svg" viewBox="0 0 24 24"><defs><style>.a{fill:none;stroke:currentColor;stroke-linecap:round;stroke-linejoin:round;}</style></defs><title>common-file-rotate</title><path class="a" d="M22.5,5.5V4A1.5,1.5,0,0,0,21,2.5H16"/><polyline class="a" points="18 0.5 16 2.5 18 4.5"/><path class="a" d="M1.5,18.5V20A1.5,1.5,0,0,0,3,21.5H8"/><polyline class="a" points="6 23.5 8 21.5 6 19.5"/><path class="a" d="M11,16.5H1.389A.889.889,0,0,1,.5,15.611V1.389A.889.889,0,0,1,1.389.5H9.965a.893.893,0,0,1,.629.26L12.74,2.906a.893.893,0,0,1,.26.629V7.5"/><path class="a" d="M11.889,7.5h8.576a.893.893,0,0,1,.629.26L23.24,9.906a.893.893,0,0,1,.26.629V22.611a.889.889,0,0,1-.889.889H11.889A.889.889,0,0,1,11,22.611V8.389A.889.889,0,0,1,11.889,7.5Z"/></svg>