<svg xmlns="http://www.w3.org/2000/svg" viewBox="0 0 24 24"><defs><style>.a{fill:none;stroke:currentColor;stroke-linecap:round;stroke-linejoin:round;}</style></defs><title>common-file-text</title><path class="a" d="M21.207,4.5a1,1,0,0,1,.293.707V22.5a1,1,0,0,1-1,1H3.5a1,1,0,0,1-1-1V1.5a1,1,0,0,1,1-1H16.793A1,1,0,0,1,17.5.793Z"/><line class="a" x1="6" y1="16" x2="18" y2="16"/><line class="a" x1="6" y1="19" x2="18" y2="19"/><line class="a" x1="6" y1="13" x2="18" y2="13"/><line class="a" x1="6" y1="10" x2="18" y2="10"/><line class="a" x1="6" y1="7" x2="13" y2="7"/><line class="a" x1="6" y1="7" x2="13" y2="7"/><line class="a" x1="6" y1="10" x2="18" y2="10"/><line class="a" x1="6" y1="13" x2="18" y2="13"/><line class="a" x1="6" y1="16" x2="18" y2="16"/><line class="a" x1="6" y1="19" x2="18" y2="19"/></svg>