<svg xmlns="http://www.w3.org/2000/svg" viewBox="0 0 24 24"><defs><style>.a{fill:none;stroke:currentColor;stroke-linecap:round;stroke-linejoin:round;}</style></defs><title>common-file-settings-1</title><circle class="a" cx="11.5" cy="12.875" r="1.25"/><path class="a" d="M12.562,8.039,12.93,9.25a.827.827,0,0,0,.978.567l1.227-.284A1.116,1.116,0,0,1,16.2,11.382l-.858.925a.836.836,0,0,0,0,1.136l.858.925a1.116,1.116,0,0,1-1.062,1.849l-1.227-.284a.827.827,0,0,0-.978.567l-.368,1.211a1.109,1.109,0,0,1-2.124,0L10.07,16.5a.827.827,0,0,0-.978-.567l-1.227.284A1.116,1.116,0,0,1,6.8,14.368l.858-.925a.836.836,0,0,0,0-1.136L6.8,11.382A1.116,1.116,0,0,1,7.865,9.533l1.227.284a.827.827,0,0,0,.978-.567l.368-1.211A1.109,1.109,0,0,1,12.562,8.039Z"/><path class="a" d="M21.207,4.5a1,1,0,0,1,.293.707V22.5a1,1,0,0,1-1,1H3.5a1,1,0,0,1-1-1V1.5a1,1,0,0,1,1-1H16.793A1,1,0,0,1,17.5.793Z"/></svg>