<svg id="Bold" xmlns="http://www.w3.org/2000/svg" viewBox="0 0 24 24"><title>single-man</title><path d="M22.947,19.219c-.734-1.47-3.241-2.391-6.71-3.666l-1.074-.4A.251.251,0,0,1,15,14.922V12.8a.252.252,0,0,1,.083-.187,4.252,4.252,0,0,0,1.4-2.767.248.248,0,0,1,.071-.153,1.9,1.9,0,0,0,.445-.9,2.29,2.29,0,0,0-.319-1.931.253.253,0,0,1-.038-.252,8.277,8.277,0,0,0,.849-4.263C17.159.689,14.822.048,12.922,0,11.341-.034,9.388.311,8.713,1.364a.251.251,0,0,1-.172.113A1.846,1.846,0,0,0,7.284,2.2c-1.038,1.4.14,4.5.109,4.4a.252.252,0,0,1-.049.236A2.271,2.271,0,0,0,7,8.791a1.9,1.9,0,0,0,.445.9.246.246,0,0,1,.071.153,4.252,4.252,0,0,0,1.4,2.767A.252.252,0,0,1,9,12.8v2.122a.251.251,0,0,1-.163.235l-1.076.4c-3.469,1.275-5.975,2.2-6.708,3.666A10.573,10.573,0,0,0,0,23.5a.5.5,0,0,0,.5.5h23a.5.5,0,0,0,.5-.5A10.573,10.573,0,0,0,22.947,19.219Z"/></svg>