<svg id="Bold" xmlns="http://www.w3.org/2000/svg" viewBox="0 0 24 24"><title>single-man-shield</title><path d="M23.5,1.957A1.458,1.458,0,0,0,22.044.5H1.956A1.458,1.458,0,0,0,.5,1.957V9.25A14.644,14.644,0,0,0,11.9,23.49a.5.5,0,0,0,.2,0A14.644,14.644,0,0,0,23.5,9.25Zm-6,14.311a.5.5,0,0,1-.5.5H7a.5.5,0,0,1-.5-.5,4.924,4.924,0,0,1,.487-1.988c.369-.739,1.5-1.156,3.073-1.733l.19-.071a.249.249,0,0,0,.163-.234v-.451a.254.254,0,0,0-.067-.171,2.127,2.127,0,0,1-.561-1.139.239.239,0,0,0-.045-.109,1.218,1.218,0,0,1-.188-.434A1.322,1.322,0,0,1,9.649,9a.252.252,0,0,0,.021-.19,2.356,2.356,0,0,1,.053-1.973,1.061,1.061,0,0,1,.58-.392.253.253,0,0,0,.121-.076,2.654,2.654,0,0,1,1.984-.6c.975.023,2.079.362,2.256,1.245a3.515,3.515,0,0,1-.306,1.816.248.248,0,0,0,.01.2,1.336,1.336,0,0,1,.08.905,1.221,1.221,0,0,1-.188.433.248.248,0,0,0-.045.109,2.13,2.13,0,0,1-.561,1.14.254.254,0,0,0-.067.171v.451a.249.249,0,0,0,.163.234l.19.071c1.57.577,2.7.994,3.073,1.733A4.924,4.924,0,0,1,17.5,16.268Z"/></svg>