<svg id="Bold" xmlns="http://www.w3.org/2000/svg" viewBox="0 0 24 24"><title>single-man-search</title><path d="M23.414,23.414a2,2,0,0,0,0-2.828l-4.069-4.069a.251.251,0,0,1-.033-.313A10.508,10.508,0,1,0,16.2,19.312a.249.249,0,0,1,.313.033l4.069,4.069A2,2,0,0,0,23.414,23.414ZM10.5,2A8.5,8.5,0,1,1,2,10.5,8.51,8.51,0,0,1,10.5,2Z"/><path d="M5,14.767a.5.5,0,0,0,.5.5h10a.5.5,0,0,0,.5-.5,4.931,4.931,0,0,0-.487-1.988c-.369-.738-1.5-1.155-3.074-1.732l-.189-.07a.251.251,0,0,1-.163-.235v-.451a.254.254,0,0,1,.067-.171,2.13,2.13,0,0,0,.562-1.147.222.222,0,0,1,.04-.1,1.185,1.185,0,0,0,.192-.438,1.333,1.333,0,0,0-.08-.9.248.248,0,0,1-.01-.2,3.515,3.515,0,0,0,.306-1.816c-.177-.883-1.281-1.222-2.256-1.245a2.661,2.661,0,0,0-1.984.6.253.253,0,0,1-.121.076,1.061,1.061,0,0,0-.58.392A2.358,2.358,0,0,0,8.17,7.311a.252.252,0,0,1-.021.19,1.32,1.32,0,0,0-.1.936,1.185,1.185,0,0,0,.192.438.222.222,0,0,1,.04.1,2.13,2.13,0,0,0,.562,1.147.254.254,0,0,1,.067.171v.451a.251.251,0,0,1-.163.235l-.189.07c-1.57.577-2.7.994-3.074,1.732A4.931,4.931,0,0,0,5,14.767Z"/></svg>