<?xml version="1.0" encoding="utf-8"?>
<!-- Generator: Adobe Illustrator 22.1.0, SVG Export Plug-In . SVG Version: 6.00 Build 0)  -->
<svg version="1.1" id="Layer_1" xmlns="http://www.w3.org/2000/svg" xmlns:xlink="http://www.w3.org/1999/xlink" x="0px" y="0px"
	 viewBox="0 0 24 24" style="enable-background:new 0 0 24 24;" xml:space="preserve">
<g>
	<title>phone-scroll</title>
	<path d="M2.5,24C1.121,24,0,22.878,0,21.5v-19C0,1.121,1.121,0,2.5,0h10C13.878,0,15,1.121,15,2.5v1h0.87
		c0.516,0,1.011,0.157,1.433,0.453L21.658,7H23.5C23.776,7,24,7.224,24,7.5S23.776,8,23.5,8h-2c-0.103,0-0.202-0.031-0.287-0.09
		l-4.484-3.138C16.476,4.594,16.179,4.5,15.871,4.5H15V9h2c0.276,0,0.5,0.224,0.5,0.5S17.276,10,17,10h-5.5
		c-0.827,0-1.5,0.673-1.5,1.5s0.673,1.5,1.5,1.5h3c0.262,0,0.481,0.205,0.499,0.466c0.127,1.888,1.647,3.407,3.535,3.535L23.5,17
		c0.276,0,0.5,0.224,0.5,0.5S23.776,18,23.5,18h-5c-2.251-0.151-4.08-1.818-4.444-4H11.5C10.121,14,9,12.878,9,11.5
		C9,10.121,10.121,9,11.5,9H14V2.5C14,1.673,13.327,1,12.5,1h-10C1.673,1,1,1.673,1,2.5V19h13v-1.029c0-0.276,0.224-0.5,0.5-0.5
		s0.5,0.224,0.5,0.5V21.5c0,1.378-1.122,2.5-2.5,2.5H2.5z M1,21.5C1,22.327,1.673,23,2.5,23h10c0.827,0,1.5-0.673,1.5-1.5V20H1V21.5
		z"/>
	<path d="M7.5,22.25c-0.414,0-0.75-0.336-0.75-0.75c0-0.383,0.287-0.701,0.668-0.743c0.011-0.001,0.022-0.002,0.033-0.002
		C7.457,20.752,7.478,20.75,7.5,20.75c0.012,0,0.033,0.002,0.044,0.003l0.016,0.002c0.38,0.021,0.69,0.349,0.69,0.745
		C8.25,21.914,7.914,22.25,7.5,22.25z"/>
	<path d="M7.5,8.5C7.224,8.5,7,8.276,7,8V5L6.4,5.8C6.306,5.925,6.156,6,6,6C5.891,6,5.787,5.965,5.7,5.9
		C5.593,5.82,5.524,5.703,5.505,5.571C5.486,5.438,5.52,5.307,5.6,5.2l1.5-2c0.01-0.014,0.023-0.027,0.038-0.04
		C7.233,3.058,7.364,3,7.5,3c0.137,0,0.267,0.058,0.363,0.16C7.877,3.173,7.89,3.187,7.9,3.2l1.5,2
		c0.08,0.107,0.114,0.239,0.095,0.371C9.476,5.703,9.407,5.82,9.3,5.9C9.213,5.965,9.109,6,9,6C8.844,6,8.694,5.925,8.6,5.8L8,5v3
		C8,8.276,7.776,8.5,7.5,8.5z"/>
	<path d="M7.5,17c-0.072,0-0.143-0.016-0.212-0.049c-0.016-0.007-0.046-0.026-0.06-0.037c-0.032-0.02-0.064-0.046-0.092-0.075
		c-0.014-0.013-0.028-0.028-0.038-0.041L5.6,14.8c-0.08-0.107-0.114-0.238-0.095-0.371C5.524,14.297,5.593,14.18,5.7,14.1
		C5.788,14.034,5.892,14,6,14c0.157,0,0.306,0.075,0.4,0.2L7,15v-3c0-0.276,0.224-0.5,0.5-0.5S8,11.724,8,12v3l0.6-0.8
		C8.693,14.075,8.843,14,9,14c0.109,0,0.212,0.034,0.3,0.1c0.107,0.08,0.176,0.197,0.195,0.329C9.514,14.562,9.48,14.693,9.4,14.8
		l-1.5,2c-0.01,0.013-0.023,0.028-0.037,0.04c-0.028,0.03-0.061,0.056-0.099,0.08c-0.002,0.002-0.023,0.018-0.053,0.032
		C7.643,16.984,7.572,17,7.5,17z"/>
</g>
</svg>
