<?xml version="1.0" encoding="utf-8"?>
<!-- Generator: Adobe Illustrator 22.1.0, SVG Export Plug-In . SVG Version: 6.00 Build 0)  -->
<svg version="1.1" id="Layer_1" xmlns="http://www.w3.org/2000/svg" xmlns:xlink="http://www.w3.org/1999/xlink" x="0px" y="0px"
	 viewBox="0 0 24 24" style="enable-background:new 0 0 24 24;" xml:space="preserve">
<g>
	<title>phone-rotate-1</title>
	<path d="M14.512,19.949c-0.513,0-0.995-0.2-1.358-0.563l-8.54-8.541c-0.362-0.362-0.562-0.845-0.562-1.358s0.2-0.996,0.562-1.358
		L8.13,4.613c0.362-0.362,0.845-0.562,1.358-0.562c0.514,0,0.996,0.2,1.358,0.562l8.541,8.54c0.363,0.363,0.563,0.845,0.563,1.358
		c0,0.513-0.2,0.996-0.563,1.358l-3.517,3.517C15.508,19.749,15.025,19.949,14.512,19.949z M9.488,5.051
		c-0.246,0-0.478,0.096-0.651,0.269L5.321,8.836c-0.359,0.359-0.359,0.943,0,1.302l8.54,8.541c0.174,0.174,0.405,0.269,0.651,0.269
		c0.247,0,0.478-0.096,0.651-0.269l3.517-3.517c0.359-0.359,0.359-0.943,0-1.302L10.14,5.32C9.966,5.146,9.735,5.051,9.488,5.051z"
		/>
	<path d="M3.556,23.845c-0.234,0-0.434-0.159-0.487-0.387c-0.062-0.269,0.106-0.538,0.374-0.6l3.807-0.88
		c-4.496-2.14-7.016-7.08-6.04-12.037c0.046-0.234,0.252-0.404,0.489-0.404c0.032,0,0.066,0.003,0.099,0.01
		c0.13,0.026,0.243,0.101,0.318,0.212c0.074,0.111,0.101,0.244,0.075,0.375c-0.903,4.588,1.451,9.106,5.641,11.012l-2.03-3.621
		c-0.065-0.117-0.081-0.252-0.045-0.38s0.12-0.235,0.237-0.301c0.074-0.042,0.159-0.064,0.244-0.064
		c0.181,0,0.348,0.098,0.436,0.256l2.702,4.82c0.004,0.006,0.007,0.012,0.01,0.019c0.028,0.052,0.047,0.119,0.052,0.19
		c0.001,0.019-0.001,0.058-0.004,0.077c0,0.017-0.001,0.058-0.015,0.104c-0.002,0.008-0.016,0.045-0.02,0.055
		c-0.007,0.017-0.018,0.035-0.03,0.052c-0.026,0.045-0.056,0.082-0.091,0.113c-0.004,0.004-0.021,0.021-0.025,0.024
		c-0.049,0.039-0.102,0.067-0.16,0.085c-0.012,0.005-0.023,0.009-0.035,0.011l-5.388,1.246C3.633,23.841,3.595,23.845,3.556,23.845z
		"/>
	<path d="M22.306,14.463c-0.031,0-0.064-0.003-0.096-0.009c-0.132-0.026-0.245-0.101-0.319-0.212
		c-0.074-0.111-0.101-0.244-0.075-0.375c0.903-4.591-1.452-9.109-5.646-11.013l2.03,3.622c0.065,0.116,0.082,0.251,0.045,0.38
		c-0.036,0.129-0.12,0.235-0.237,0.301c-0.075,0.042-0.159,0.064-0.244,0.064c-0.181,0-0.348-0.098-0.436-0.255l-2.702-4.82
		c-0.004-0.006-0.007-0.013-0.01-0.02c-0.029-0.058-0.046-0.121-0.051-0.188c-0.001-0.019,0.001-0.057,0.004-0.076
		c0-0.019,0.001-0.059,0.015-0.106c0.002-0.008,0.006-0.017,0.01-0.025c0.003-0.011,0.007-0.022,0.013-0.034
		c0.008-0.018,0.023-0.041,0.037-0.059c0.023-0.037,0.048-0.068,0.075-0.094c0.019-0.018,0.037-0.032,0.056-0.046
		c0.034-0.024,0.07-0.043,0.111-0.059c0.021-0.01,0.045-0.02,0.064-0.024l5.383-1.245c0.037-0.009,0.075-0.013,0.113-0.013
		c0.234,0,0.434,0.159,0.487,0.387c0.062,0.269-0.106,0.538-0.374,0.6l-3.805,0.88c4.498,2.138,7.02,7.078,6.044,12.037
		C22.75,14.293,22.544,14.463,22.306,14.463z"/>
</g>
</svg>
