<?xml version="1.0" encoding="utf-8"?>
<!-- Generator: Adobe Illustrator 22.1.0, SVG Export Plug-In . SVG Version: 6.00 Build 0)  -->
<svg version="1.1" id="Regular" xmlns="http://www.w3.org/2000/svg" xmlns:xlink="http://www.w3.org/1999/xlink" x="0px" y="0px"
	 viewBox="0 0 24 24" style="enable-background:new 0 0 24 24;" xml:space="preserve">
<title>single-woman-actions-mail</title>
<g>
	<path d="M12.75,24c-1.241,0-2.25-1.009-2.25-2.25v-6c0-1.241,1.009-2.25,2.25-2.25h9c1.241,0,2.25,1.009,2.25,2.25v6
		c0,1.241-1.009,2.25-2.25,2.25H12.75z M12,21.75c0,0.414,0.336,0.75,0.75,0.75h9c0.414,0,0.75-0.336,0.75-0.75v-4.647l-4.058,2.534
		c-0.356,0.222-0.768,0.34-1.192,0.34s-0.836-0.117-1.192-0.34L12,17.103V21.75z M16.853,18.364
		c0.118,0.074,0.255,0.113,0.397,0.113c0.142,0,0.28-0.039,0.398-0.113l4.761-2.973C22.281,15.155,22.031,15,21.75,15h-9
		c-0.281,0-0.531,0.155-0.659,0.391L16.853,18.364z"/>
	<path d="M3.75,24c-0.387,0-0.708-0.29-0.746-0.675L2.321,16.5H0.75C0.336,16.5,0,16.164,0,15.75V13.5
		c-0.001-2.026,1.009-3.9,2.702-5.013c0.123-0.081,0.265-0.123,0.412-0.123c0.253,0,0.488,0.126,0.627,0.338L6,12.135l2.26-3.437
		c0.109-0.165,0.282-0.283,0.476-0.323c0.049-0.01,0.1-0.015,0.151-0.015c0.147,0,0.29,0.043,0.413,0.125
		c0.789,0.522,1.453,1.233,1.92,2.055c0.099,0.174,0.124,0.377,0.071,0.57c-0.053,0.193-0.179,0.354-0.353,0.453
		c-0.113,0.064-0.241,0.098-0.37,0.098l0,0c-0.269,0-0.519-0.146-0.652-0.38c-0.225-0.396-0.515-0.762-0.85-1.077l-2.438,3.708
		C6.492,14.117,6.258,14.239,6,14.239c-0.258,0-0.492-0.122-0.627-0.327l-2.44-3.708C2.017,11.052,1.499,12.232,1.5,13.5V15H3
		c0.387,0,0.708,0.29,0.746,0.675L4.429,22.5H8.25C8.664,22.5,9,22.836,9,23.25S8.664,24,8.25,24H3.75z"/>
	<path d="M11.25,8.25c-0.674,0-1.847-0.264-2.521-1.933C8.027,7.068,7.05,7.5,6,7.5S3.973,7.068,3.271,6.317
		C2.597,7.986,1.424,8.25,0.75,8.25C0.336,8.25,0,7.914,0,7.5s0.336-0.75,0.75-0.75c1.444,0,1.5-2.971,1.5-3.001
		C2.25,1.682,3.932,0,6,0s3.75,1.682,3.75,3.75c0,0.029,0.055,3,1.5,3C11.664,6.75,12,7.086,12,7.5S11.664,8.25,11.25,8.25z M6,1.5
		c-1.241,0-2.25,1.009-2.25,2.25S4.759,6,6,6s2.25-1.009,2.25-2.25S7.241,1.5,6,1.5z"/>
</g>
</svg>
