<?xml version="1.0" encoding="utf-8"?>
<!-- Generator: Adobe Illustrator 22.1.0, SVG Export Plug-In . SVG Version: 6.00 Build 0)  -->
<svg version="1.1" id="Regular" xmlns="http://www.w3.org/2000/svg" xmlns:xlink="http://www.w3.org/1999/xlink" x="0px" y="0px"
	 viewBox="0 0 24 24" style="enable-background:new 0 0 24 24;" xml:space="preserve">
<title>single-woman-actions-upload</title>
<g>
	<path d="M17.25,24c-3.722,0-6.75-3.028-6.75-6.75s3.028-6.75,6.75-6.75S24,13.528,24,17.25S20.972,24,17.25,24z M17.25,12
		C14.355,12,12,14.355,12,17.25s2.355,5.25,5.25,5.25s5.25-2.355,5.25-5.25S20.145,12,17.25,12z"/>
	<path d="M17.25,21c-0.414,0-0.75-0.336-0.75-0.75v-4.189l-0.97,0.97c-0.142,0.142-0.33,0.22-0.53,0.22s-0.389-0.078-0.53-0.22
		c-0.292-0.292-0.292-0.768,0-1.061l2.25-2.25c0.07-0.07,0.152-0.125,0.245-0.163c0.008-0.003,0.017-0.007,0.026-0.01
		c0.082-0.031,0.17-0.047,0.259-0.047c0.087,0,0.174,0.016,0.258,0.046c0.006,0.002,0.011,0.004,0.017,0.006
		c0.104,0.042,0.186,0.097,0.256,0.167l2.25,2.25c0.292,0.292,0.292,0.768,0,1.061c-0.142,0.142-0.33,0.22-0.53,0.22
		s-0.389-0.078-0.53-0.22L18,16.061v4.189C18,20.664,17.664,21,17.25,21z"/>
	<path d="M3.75,24c-0.387,0-0.708-0.29-0.746-0.675L2.321,16.5H0.75C0.336,16.5,0,16.164,0,15.75V13.5
		c-0.001-2.026,1.009-3.9,2.702-5.013c0.123-0.081,0.265-0.123,0.412-0.123c0.253,0,0.488,0.126,0.627,0.338L6,12.135l2.26-3.437
		c0.109-0.165,0.282-0.283,0.476-0.323c0.049-0.01,0.1-0.015,0.151-0.015c0.147,0,0.29,0.043,0.413,0.125
		c0.789,0.522,1.453,1.233,1.92,2.055c0.099,0.174,0.124,0.377,0.071,0.57c-0.053,0.193-0.179,0.354-0.353,0.453
		c-0.113,0.064-0.241,0.098-0.37,0.098l0,0c-0.269,0-0.519-0.146-0.652-0.38c-0.225-0.396-0.515-0.762-0.85-1.077l-2.438,3.708
		C6.492,14.117,6.258,14.239,6,14.239c-0.258,0-0.492-0.122-0.627-0.327l-2.44-3.708C2.017,11.052,1.499,12.232,1.5,13.5V15H3
		c0.387,0,0.708,0.29,0.746,0.675L4.429,22.5h3.143l0.289-2.898c0.039-0.385,0.357-0.676,0.741-0.676
		c0.029,0,0.058,0.002,0.087,0.005c0.192,0.019,0.372,0.115,0.499,0.271c0.127,0.155,0.186,0.35,0.166,0.549l-0.357,3.573
		C8.958,23.71,8.637,24,8.25,24H3.75z"/>
	<path d="M11.25,8.25c-0.674,0-1.847-0.264-2.521-1.933C8.027,7.068,7.05,7.5,6,7.5S3.973,7.068,3.271,6.317
		C2.597,7.986,1.424,8.25,0.75,8.25C0.336,8.25,0,7.914,0,7.5s0.336-0.75,0.75-0.75c1.444,0,1.5-2.971,1.5-3.001
		C2.25,1.682,3.932,0,6,0s3.75,1.682,3.75,3.75c0,0.029,0.055,3,1.5,3C11.664,6.75,12,7.086,12,7.5S11.664,8.25,11.25,8.25z M6,1.5
		c-1.241,0-2.25,1.009-2.25,2.25S4.759,6,6,6s2.25-1.009,2.25-2.25S7.241,1.5,6,1.5z"/>
</g>
</svg>
