<?xml version="1.0" encoding="utf-8"?>
<!-- Generator: Adobe Illustrator 22.1.0, SVG Export Plug-In . SVG Version: 6.00 Build 0)  -->
<svg version="1.1" id="Regular" xmlns="http://www.w3.org/2000/svg" xmlns:xlink="http://www.w3.org/1999/xlink" x="0px" y="0px"
	 viewBox="0 0 24 24" style="enable-background:new 0 0 24 24;" xml:space="preserve">
<title>single-woman-actions-flag</title>
<g>
	<path d="M3.75,24c-0.387,0-0.708-0.29-0.746-0.675L2.321,16.5H0.75C0.336,16.5,0,16.164,0,15.75V13.5
		c-0.002-2.026,1.009-3.9,2.702-5.013c0.123-0.081,0.265-0.123,0.411-0.123c0.253,0,0.488,0.126,0.627,0.338L6,12.135l2.258-3.433
		c0.11-0.168,0.279-0.282,0.476-0.323c0.051-0.01,0.101-0.015,0.151-0.015c0.148,0,0.291,0.043,0.414,0.124
		c0.358,0.237,0.693,0.512,0.993,0.82c0.14,0.143,0.216,0.332,0.214,0.533c-0.002,0.2-0.082,0.388-0.225,0.528
		c-0.141,0.138-0.328,0.214-0.525,0.214c-0.203,0-0.394-0.08-0.536-0.225c-0.051-0.052-0.102-0.102-0.156-0.152l-2.438,3.706
		C6.492,14.117,6.257,14.239,6,14.239c-0.258,0-0.492-0.122-0.627-0.327l-2.44-3.708C2.017,11.052,1.499,12.232,1.5,13.5V15H3
		c0.387,0,0.708,0.29,0.746,0.675L4.429,22.5h3.143l0.682-6.825C8.292,15.29,8.613,15,9,15h0.75c0.414,0,0.75,0.336,0.75,0.75
		s-0.336,0.75-0.75,0.75H9.679l-0.682,6.825C8.958,23.71,8.637,24,8.25,24H3.75z"/>
	<path d="M0.75,8.25C0.336,8.25,0,7.914,0,7.5s0.336-0.75,0.75-0.75c1.444,0,1.5-2.971,1.5-3.001C2.25,1.682,3.932,0,6,0
		s3.75,1.682,3.75,3.749c0.001,0.701,0.231,2.315,0.936,2.827c0.334,0.243,0.409,0.713,0.166,1.048
		c-0.141,0.193-0.368,0.309-0.607,0.309c-0.159,0-0.312-0.05-0.441-0.143C9.352,7.462,8.993,6.967,8.73,6.315
		C8.028,7.067,7.05,7.5,6,7.5c-1.05,0-2.027-0.432-2.729-1.183C2.597,7.986,1.424,8.25,0.75,8.25z M6,1.5
		c-1.241,0-2.25,1.009-2.25,2.25S4.759,6,6,6s2.25-1.009,2.25-2.25S7.24,1.5,6,1.5z"/>
	<path d="M12.75,24C12.336,24,12,23.664,12,23.25V9c0-0.074,0.012-0.147,0.036-0.225c0.06-0.228,0.24-0.422,0.476-0.502l1.5-0.509
		c0.513-0.173,1.049-0.261,1.595-0.261c1.011,0,1.984,0.297,2.813,0.86c0.58,0.393,1.261,0.601,1.97,0.601
		c0.381,0,0.756-0.061,1.114-0.182l1.5-0.509c0.077-0.026,0.158-0.04,0.241-0.04c0.158,0,0.309,0.049,0.437,0.141
		c0.196,0.141,0.313,0.369,0.313,0.61v8.285c0,0.322-0.205,0.607-0.509,0.71l-1.5,0.508c-0.512,0.173-1.049,0.261-1.594,0.261
		c-1.011,0-1.983-0.297-2.812-0.858c-0.58-0.394-1.262-0.602-1.972-0.602c-0.383,0-0.758,0.062-1.117,0.183l-0.99,0.336v5.444
		C13.5,23.664,13.164,24,12.75,24z M15.606,15.787c1.012,0,1.986,0.298,2.815,0.861c0.579,0.393,1.26,0.6,1.969,0.6
		c0.382,0,0.757-0.061,1.115-0.182l0.99-0.335v-6.701l-0.509,0.173c-0.512,0.173-1.048,0.261-1.594,0.261
		c-1.011,0-1.984-0.297-2.813-0.859c-0.58-0.393-1.261-0.601-1.97-0.601c-0.382,0-0.757,0.061-1.115,0.182l-0.99,0.336L13.5,16.221
		l0.508-0.172C14.522,15.875,15.059,15.787,15.606,15.787z"/>
</g>
</svg>
