<svg xmlns="http://www.w3.org/2000/svg" viewBox="0 0 24 24"><defs><style>.a{fill:none;stroke:currentColor;stroke-linecap:round;stroke-linejoin:round;stroke-width:1.5px;}</style></defs><title>download-square-2</title><path class="a" d="M.752,21.751a1.5,1.5,0,0,0,1.5,1.5"/><path class="a" d="M2.252.751a1.5,1.5,0,0,0-1.5,1.5"/><path class="a" d="M23.252,2.251a1.5,1.5,0,0,0-1.5-1.5"/><path class="a" d="M21.752,23.251a1.5,1.5,0,0,0,1.5-1.5"/><line class="a" x1="23.252" y1="6.001" x2="23.252" y2="7.501"/><line class="a" x1="23.252" y1="11.251" x2="23.252" y2="12.751"/><line class="a" x1="23.252" y1="16.501" x2="23.252" y2="18.001"/><line class="a" x1="0.752" y1="6.001" x2="0.752" y2="7.501"/><line class="a" x1="0.752" y1="11.251" x2="0.752" y2="12.751"/><line class="a" x1="0.752" y1="16.501" x2="0.752" y2="18.001"/><line class="a" x1="6.002" y1="23.251" x2="7.502" y2="23.251"/><line class="a" x1="11.252" y1="23.251" x2="12.752" y2="23.251"/><line class="a" x1="16.502" y1="23.251" x2="18.002" y2="23.251"/><line class="a" x1="6.002" y1="0.751" x2="7.502" y2="0.751"/><line class="a" x1="11.252" y1="0.751" x2="12.752" y2="0.751"/><line class="a" x1="16.502" y1="0.751" x2="18.002" y2="0.751"/><line class="a" x1="12.002" y1="6.001" x2="12.002" y2="18.001"/><polyline class="a" points="16.502 13.501 12.002 18.001 7.502 13.501"/></svg>