<svg xmlns="http://www.w3.org/2000/svg" viewBox="0 0 24 24"><defs><style>.a{fill:none;stroke:currentColor;stroke-linecap:round;stroke-linejoin:round;stroke-width:1.5px;}</style></defs><title>laptop-upload</title><path class="a" d="M7.5,8.25H5.25a1.5,1.5,0,0,0-1.5,1.5v6a1.5,1.5,0,0,0,1.5,1.5h13.5a1.5,1.5,0,0,0,1.5-1.5v-6a1.5,1.5,0,0,0-1.5-1.5H16.5"/><path class="a" d="M20.249,23.25H3.751a1.5,1.5,0,0,1-1.4-2.026l.953-3a1.5,1.5,0,0,1,1.4-.974h14.42a1.5,1.5,0,0,1,1.4.974l1.125,3A1.5,1.5,0,0,1,20.249,23.25Z"/><line class="a" x1="10.501" y1="20.25" x2="13.501" y2="20.25"/><line class="a" x1="12.001" y1="12.75" x2="12.001" y2="0.75"/><polyline class="a" points="9.001 3.75 12.001 0.75 15.001 3.75"/></svg>