<?xml version="1.0" encoding="utf-8"?>
<!-- Generator: Adobe Illustrator 22.1.0, SVG Export Plug-In . SVG Version: 6.00 Build 0)  -->
<svg version="1.1" id="Layer_1" xmlns="http://www.w3.org/2000/svg" xmlns:xlink="http://www.w3.org/1999/xlink" x="0px" y="0px"
	 viewBox="0 0 24 24" style="enable-background:new 0 0 24 24;" xml:space="preserve">
<g>
	<title>expand</title>
	<path d="M23.5,10C23.224,10,23,9.776,23,9.5v-4C23,5.224,22.776,5,22.5,5h-6C16.224,5,16,4.776,16,4.5S16.224,4,16.5,4h6
		C23.327,4,24,4.673,24,5.5v4C24,9.776,23.776,10,23.5,10z"/>
	<path d="M0.5,10C0.224,10,0,9.776,0,9.5v-4C0,4.673,0.673,4,1.5,4h6C7.776,4,8,4.224,8,4.5S7.776,5,7.5,5h-6C1.224,5,1,5.224,1,5.5
		v4C1,9.776,0.776,10,0.5,10z"/>
	<path d="M16.5,20c-0.276,0-0.5-0.224-0.5-0.5s0.224-0.5,0.5-0.5h6c0.276,0,0.5-0.224,0.5-0.5v-4c0-0.276,0.224-0.5,0.5-0.5
		s0.5,0.224,0.5,0.5v4c0,0.827-0.673,1.5-1.5,1.5H16.5z"/>
	<path d="M1.5,20C0.673,20,0,19.327,0,18.5v-4C0,14.224,0.224,14,0.5,14S1,14.224,1,14.5v4C1,18.776,1.224,19,1.5,19h6
		C7.776,19,8,19.224,8,19.5S7.776,20,7.5,20H1.5z"/>
	<path d="M5.5,15.999c-0.827,0-1.5-0.673-1.5-1.5v-5c0-0.827,0.673-1.5,1.5-1.5h13c0.827,0,1.5,0.673,1.5,1.5v5
		c0,0.827-0.673,1.5-1.5,1.5H5.5z M5.5,8.999c-0.276,0-0.5,0.224-0.5,0.5v5c0,0.276,0.224,0.5,0.5,0.5h13c0.276,0,0.5-0.224,0.5-0.5
		v-5c0-0.276-0.224-0.5-0.5-0.5H5.5z"/>
</g>
</svg>
