<?xml version="1.0" encoding="utf-8"?>
<!-- Generator: Adobe Illustrator 22.1.0, SVG Export Plug-In . SVG Version: 6.00 Build 0)  -->
<svg version="1.1" id="Layer_1" xmlns="http://www.w3.org/2000/svg" xmlns:xlink="http://www.w3.org/1999/xlink" x="0px" y="0px"
	 viewBox="0 0 24 24" style="enable-background:new 0 0 24 24;" xml:space="preserve">
<g>
	<title>expand-8</title>
	<path d="M1.5,23.999c-0.827,0-1.5-0.673-1.5-1.5v-8c0-0.827,0.673-1.5,1.5-1.5h8c0.827,0,1.5,0.673,1.5,1.5v8
		c0,0.827-0.673,1.5-1.5,1.5H1.5z M1.5,13.999c-0.276,0-0.5,0.224-0.5,0.5v8c0,0.276,0.224,0.5,0.5,0.5h8c0.276,0,0.5-0.224,0.5-0.5
		v-8c0-0.276-0.224-0.5-0.5-0.5H1.5z"/>
	<path d="M0.5,9.5C0.224,9.5,0,9.276,0,9V1.5C0,0.673,0.673,0,1.5,0h8C9.776,0,10,0.224,10,0.5S9.776,1,9.5,1h-8
		C1.224,1,1,1.224,1,1.5V9C1,9.276,0.776,9.5,0.5,9.5z"/>
	<path d="M23.5,10C23.224,10,23,9.776,23,9.5v-8C23,1.224,22.776,1,22.5,1h-8C14.224,1,14,0.776,14,0.5S14.224,0,14.5,0h8
		C23.327,0,24,0.673,24,1.5v8C24,9.776,23.776,10,23.5,10z"/>
	<path d="M15,24c-0.276,0-0.5-0.224-0.5-0.5S14.724,23,15,23h7.5c0.276,0,0.5-0.224,0.5-0.5v-8c0-0.276,0.224-0.5,0.5-0.5
		s0.5,0.224,0.5,0.5v8c0,0.827-0.673,1.5-1.5,1.5H15z"/>
</g>
</svg>
