<?xml version="1.0" encoding="utf-8"?>
<!-- Generator: Adobe Illustrator 22.1.0, SVG Export Plug-In . SVG Version: 6.00 Build 0)  -->
<svg version="1.1" id="Layer_1" xmlns="http://www.w3.org/2000/svg" xmlns:xlink="http://www.w3.org/1999/xlink" x="0px" y="0px"
	 viewBox="0 0 24 24" style="enable-background:new 0 0 24 24;" xml:space="preserve">
<g>
	<title>shrink-4</title>
	<path d="M10.515,15.014c-0.827,0-1.5-0.673-1.5-1.5v-3c0-0.827,0.673-1.5,1.5-1.5h3c0.827,0,1.5,0.673,1.5,1.5v3
		c0,0.827-0.673,1.5-1.5,1.5H10.515z M10.515,10.014c-0.276,0-0.5,0.224-0.5,0.5v3c0,0.276,0.224,0.5,0.5,0.5h3
		c0.276,0,0.5-0.224,0.5-0.5v-3c0-0.276-0.224-0.5-0.5-0.5H10.515z"/>
	<path d="M16.515,8.014c-0.065,0-0.129-0.013-0.191-0.038c-0.122-0.05-0.22-0.149-0.271-0.271c-0.025-0.061-0.038-0.126-0.038-0.191
		v-5c0-0.276,0.224-0.5,0.5-0.5s0.5,0.224,0.5,0.5v3.793l6.132-6.131c0.094-0.094,0.22-0.146,0.354-0.146l0,0
		c0.134,0,0.259,0.052,0.354,0.146c0.195,0.195,0.195,0.512,0,0.707l-6.132,6.131h3.793c0.276,0,0.5,0.224,0.5,0.5
		s-0.224,0.5-0.5,0.5H16.515z"/>
	<path d="M0.531,23.999c-0.134,0-0.259-0.052-0.354-0.146s-0.146-0.22-0.146-0.354s0.052-0.259,0.146-0.354l6.13-6.131H2.515
		c-0.276,0-0.5-0.224-0.5-0.5s0.224-0.5,0.5-0.5h5c0.066,0,0.13,0.013,0.192,0.039c0.123,0.051,0.219,0.147,0.27,0.27
		c0.025,0.061,0.038,0.125,0.038,0.191v5c0,0.276-0.224,0.5-0.5,0.5s-0.5-0.224-0.5-0.5v-3.793l-6.13,6.131
		C0.79,23.947,0.664,23.999,0.531,23.999z"/>
	<path d="M23.5,23.999c-0.134,0-0.259-0.052-0.354-0.146l-6.132-6.131v3.793c0,0.276-0.224,0.5-0.5,0.5s-0.5-0.224-0.5-0.5v-5
		c0-0.066,0.013-0.13,0.039-0.191c0.051-0.123,0.147-0.219,0.27-0.27c0.061-0.025,0.125-0.038,0.191-0.038h5
		c0.276,0,0.5,0.224,0.5,0.5s-0.224,0.5-0.5,0.5h-3.793l6.132,6.131c0.195,0.195,0.195,0.512,0,0.707
		C23.759,23.947,23.634,23.999,23.5,23.999z"/>
	<path d="M2.515,8.014c-0.276,0-0.5-0.224-0.5-0.5s0.224-0.5,0.5-0.5h3.793L0.169,0.875C0.075,0.78,0.023,0.655,0.023,0.521
		c0-0.134,0.052-0.259,0.147-0.354c0.094-0.094,0.22-0.146,0.353-0.146s0.259,0.052,0.354,0.146l6.138,6.139V2.514
		c0-0.276,0.224-0.5,0.5-0.5s0.5,0.224,0.5,0.5v5c0,0.066-0.013,0.13-0.038,0.192c-0.051,0.123-0.147,0.219-0.27,0.27
		C7.644,8.001,7.58,8.014,7.515,8.014H2.515z"/>
</g>
</svg>
