<svg xmlns="http://www.w3.org/2000/svg" viewBox="0 0 24 24"><title>microphone-podcast-international</title><path d="M7.805,9.91A5.216,5.216,0,0,1,6.748,6.869a.247.247,0,0,1,.071-.18A.25.25,0,0,1,7,6.613H8.492a.25.25,0,0,1,.25.248c0,.224.012.581.047.983a.75.75,0,1,0,1.494-.128c-.016-.181-.037-.475-.04-.85a.249.249,0,0,1,.25-.253h3a.249.249,0,0,1,.25.253c0,.361-.023.646-.037.821A.75.75,0,0,0,15.2,7.81c.032-.387.041-.731.043-.949a.251.251,0,0,1,.25-.248H17a.251.251,0,0,1,.25.257A5.224,5.224,0,0,1,16.257,9.8a.75.75,0,1,0,1.217.876,6.75,6.75,0,1,0-10.864.137A.75.75,0,0,0,7.805,9.91Zm9.058-5.141a.249.249,0,0,1-.232.344H15.357A.249.249,0,0,1,15.11,4.9a12.694,12.694,0,0,0-.522-2.2.25.25,0,0,1,.379-.285,5.326,5.326,0,0,1,1.9,2.355ZM12.306,1.5a.247.247,0,0,1,.207.135,10.91,10.91,0,0,1,1.066,3.186.25.25,0,0,1-.247.292H10.651a.25.25,0,0,1-.246-.292A10.937,10.937,0,0,1,11.47,1.635a.254.254,0,0,1,.207-.135c.105-.006.209-.009.315-.009S12.2,1.494,12.306,1.5ZM8.28,3.029a5.365,5.365,0,0,1,.737-.615A.25.25,0,0,1,9.4,2.7a12.513,12.513,0,0,0-.522,2.2.25.25,0,0,1-.247.214H7.361a.25.25,0,0,1-.232-.343A5.208,5.208,0,0,1,8.28,3.029Z"/><path d="M11.992,18.259a2.971,2.971,0,0,0,3-2.934v-2.84a3,3,0,0,0-6,0v2.84A2.97,2.97,0,0,0,11.992,18.259Z"/><path d="M17.742,13.759a.75.75,0,0,0-1.5,0v1.5a4.25,4.25,0,1,1-8.5,0v-1.5a.75.75,0,0,0-1.5,0v1.5a5.758,5.758,0,0,0,4.791,5.67.251.251,0,0,1,.209.246v1.084a.25.25,0,0,1-.25.25h-3a.75.75,0,0,0,0,1.5h8a.75.75,0,1,0,0-1.5h-3a.25.25,0,0,1-.25-.25V21.175a.25.25,0,0,1,.208-.246,5.759,5.759,0,0,0,4.792-5.67Z"/></svg>