<svg xmlns="http://www.w3.org/2000/svg" viewBox="0 0 24 24"><title>microphone-podcast-laptop</title><path d="M14.5,11.563a.251.251,0,0,0-.265-.25c-.07,0-.139.006-.209.006a3.575,3.575,0,0,1-1.322-.247,3.992,3.992,0,0,1-1.431-.991A.249.249,0,0,0,11.09,10H4.251A.25.25,0,0,1,4,9.75V3A1,1,0,0,1,5,2H16a1,1,0,0,1,1,1V4.482a.248.248,0,0,0,.06.162,2.991,2.991,0,0,1,.5.809.242.242,0,0,0,.118.13l.959.488A.251.251,0,0,0,19,5.848V3a3,3,0,0,0-3-3H5A3,3,0,0,0,2,3v7.568a.256.256,0,0,1-.055.156L.463,12.578a2.113,2.113,0,0,0,1.648,3.428h12.14a.25.25,0,0,0,.25-.25Z"/><path d="M17.558,16.7a.254.254,0,0,1-.058-.16V11.886a.25.25,0,0,0-.175-.239l-1.5-.471a.25.25,0,0,0-.325.239v5.128a.254.254,0,0,1-.058.16l-.942,1.13-3.769,4.522a1,1,0,0,0,1.538,1.281L14.5,20.958l.558-.67a.25.25,0,0,1,.442.16V23a1,1,0,0,0,2,0V20.448a.25.25,0,0,1,.442-.16l.558.67,2.231,2.678a1,1,0,0,0,1.538-1.281L18.5,17.833Z"/><path d="M15.5,9.506l1.133-2.777c.378-.926-.573-1.854-1.285-2.145a3,3,0,1,0-2.266,5.556C13.793,10.43,15.122,10.432,15.5,9.506Z"/><path d="M23.012,9.887l-.731-.242a.249.249,0,0,1-.159-.16,1.587,1.587,0,0,0-.787-.926L17.956,6.84a.25.25,0,0,0-.207-.009.254.254,0,0,0-.143.151c-.014.041-.03.082-.046.123h0L16.426,9.884c-.017.042-.035.082-.054.122a.251.251,0,0,0,.151.346l3.617,1.135a1.6,1.6,0,0,0,1.522-.323.249.249,0,0,1,.246-.05.25.25,0,0,1,.03.46l-.575.287a1.559,1.559,0,0,0,0,2.789l0,0,.959.511a.25.25,0,0,1,.127.168.253.253,0,0,1-.047.206.508.508,0,0,1-.038.043l-.646.646a.75.75,0,0,0,1.06,1.061l.647-.647A1.941,1.941,0,0,0,24,15.256a1.548,1.548,0,0,0-.862-1.394l-1.059-.529a.086.086,0,0,1-.047-.077.084.084,0,0,1,.047-.076l1.059-.529A1.55,1.55,0,0,0,24,11.256,1.451,1.451,0,0,0,23.012,9.887Z"/></svg>