<?xml version="1.0" encoding="utf-8"?>
<!-- Generator: Adobe Illustrator 22.1.0, SVG Export Plug-In . SVG Version: 6.00 Build 0)  -->
<svg version="1.1" id="Layer_1" xmlns="http://www.w3.org/2000/svg" xmlns:xlink="http://www.w3.org/1999/xlink" x="0px" y="0px"
	 viewBox="0 0 24 24" style="enable-background:new 0 0 24 24;" xml:space="preserve">
<title>vintage-tv-3</title>
<g>
	<path d="M4.289,23.25c-0.659,0-1.251-0.366-1.546-0.956l-0.5-1.001H1.728C0.775,21.293,0,20.518,0,19.565V2.478
		C0,1.525,0.775,0.75,1.728,0.75h20.544C23.225,0.75,24,1.525,24,2.478v17.087c0,0.953-0.775,1.728-1.728,1.728h-0.515l-0.5,1.001
		c-0.294,0.59-0.887,0.956-1.546,0.956H4.289z M1.728,2.25C1.602,2.25,1.5,2.352,1.5,2.478v17.087c0,0.126,0.102,0.228,0.228,0.228
		h0.979c0.286,0,0.543,0.159,0.671,0.415l0.707,1.416c0.039,0.079,0.116,0.126,0.204,0.126h15.422c0.088,0,0.165-0.047,0.204-0.126
		l0.707-1.416c0.128-0.256,0.385-0.415,0.671-0.415h0.979c0.126,0,0.228-0.102,0.228-0.228V2.478c0-0.126-0.102-0.228-0.228-0.228
		H1.728z"/>
	<path d="M5.25,20.25c-0.414,0-0.75-0.336-0.75-0.75s0.336-0.75,0.75-0.75h2.935c0.414,0,0.75,0.336,0.75,0.75
		s-0.336,0.75-0.75,0.75H5.25z"/>
	<path d="M17.022,20.25c-0.414,0-0.75-0.336-0.75-0.75s0.336-0.75,0.75-0.75H18c0.414,0,0.75,0.336,0.75,0.75s-0.336,0.75-0.75,0.75
		H17.022z"/>
	<path d="M12.75,20.25c-0.414,0-0.75-0.336-0.75-0.75s0.336-0.75,0.75-0.75h0.978c0.414,0,0.75,0.336,0.75,0.75
		s-0.336,0.75-0.75,0.75H12.75z"/>
	<path d="M10.674,17.148c-2.212,0-4.447-0.13-6.644-0.387C3.426,16.668,2.999,16.175,3,15.585V5.022c0-0.587,0.421-1.079,1.001-1.17
		C6.221,3.591,8.467,3.46,10.693,3.46c0.442,0,0.884,0.005,1.325,0.016c0.422-0.01,0.863-0.016,1.305-0.016
		c2.215,0,4.451,0.131,6.647,0.389c0.595,0.09,1.032,0.595,1.03,1.177v10.562c0,0.587-0.421,1.079-1,1.17
		c-2.22,0.26-4.467,0.392-6.692,0.392c0,0,0,0,0,0c-0.442,0-0.885-0.005-1.325-0.015C11.559,17.143,11.117,17.148,10.674,17.148z
		 M12,15.633c0.437,0.01,0.874,0.016,1.311,0.016c2.063,0,4.143-0.116,6.188-0.344V5.303c-2.033-0.228-4.117-0.344-6.184-0.344
		c-0.433,0-0.866,0.005-1.298,0.015c-0.452-0.01-0.887-0.015-1.322-0.015c-2.068,0-4.151,0.116-6.196,0.345v10.002
		c2.032,0.227,4.113,0.343,6.178,0.343c0.435,0,0.87-0.005,1.304-0.016c0.003,0,0.006,0,0.009,0S11.997,15.633,12,15.633z"/>
</g>
</svg>
