<?xml version="1.0" encoding="utf-8"?>
<!-- Generator: Adobe Illustrator 22.1.0, SVG Export Plug-In . SVG Version: 6.00 Build 0)  -->
<svg version="1.1" id="Layer_1" xmlns="http://www.w3.org/2000/svg" xmlns:xlink="http://www.w3.org/1999/xlink" x="0px" y="0px"
	 viewBox="0 0 24 24" style="enable-background:new 0 0 24 24;" xml:space="preserve">
<title>instrument-piano-keys</title>
<g>
	<path d="M3,21.75c-1.241,0-2.25-1.009-2.25-2.25V6c0-1.241,1.009-2.25,2.25-2.25h0.879C4.192,2.865,5.04,2.25,6,2.25
		s1.808,0.615,2.121,1.5h1.757c0.314-0.885,1.162-1.5,2.121-1.5c0.96,0,1.808,0.615,2.121,1.5h1.757
		c0.313-0.885,1.161-1.5,2.121-1.5s1.808,0.615,2.121,1.5H21c1.241,0,2.25,1.009,2.25,2.25v13.5c0,1.241-1.009,2.25-2.25,2.25H3z
		 M21,20.25c0.414,0,0.75-0.336,0.75-0.75V6c0-0.414-0.336-0.75-0.75-0.75h-0.75v6c0,0.96-0.615,1.808-1.5,2.121v6.879H21z
		 M17.25,20.25v-6.879c-0.885-0.314-1.5-1.161-1.5-2.121v-6h-1.5v6c0,0.96-0.615,1.808-1.5,2.121v6.879H17.25z M11.25,20.25v-6.879
		c-0.885-0.313-1.5-1.161-1.5-2.121v-6h-1.5v6c0,0.96-0.615,1.808-1.5,2.121v6.879H11.25z M3,5.25C2.586,5.25,2.25,5.586,2.25,6
		v13.5c0,0.414,0.336,0.75,0.75,0.75h2.25v-6.879c-0.885-0.313-1.5-1.161-1.5-2.121v-6H3z M18,3.75c-0.414,0-0.75,0.336-0.75,0.75
		v6.75c0,0.414,0.336,0.75,0.75,0.75s0.75-0.336,0.75-0.75V4.5C18.75,4.086,18.414,3.75,18,3.75z M12,3.75
		c-0.414,0-0.75,0.336-0.75,0.75v6.75c0,0.414,0.336,0.75,0.75,0.75s0.75-0.336,0.75-0.75V4.5C12.75,4.086,12.414,3.75,12,3.75z
		 M6,3.75c-0.414,0-0.75,0.336-0.75,0.75v6.75C5.25,11.664,5.586,12,6,12s0.75-0.336,0.75-0.75V4.5C6.75,4.086,6.414,3.75,6,3.75z"
		/>
</g>
</svg>
