<?xml version="1.0" encoding="utf-8"?>
<!-- Generator: Adobe Illustrator 22.1.0, SVG Export Plug-In . SVG Version: 6.00 Build 0)  -->
<svg version="1.1" id="Layer_1" xmlns="http://www.w3.org/2000/svg" xmlns:xlink="http://www.w3.org/1999/xlink" x="0px" y="0px"
	 viewBox="0 0 24 24" style="enable-background:new 0 0 24 24;" xml:space="preserve">
<title>instrument-triangle</title>
<g>
	<path d="M7.545,23.97c-0.417-0.002-0.806-0.165-1.098-0.46c-0.291-0.294-0.45-0.684-0.448-1.098
		c0.001-0.245,0.062-0.488,0.174-0.705l1.217-2.323c0.13-0.248,0.385-0.402,0.665-0.402c0.12,0,0.24,0.03,0.347,0.085
		c0.367,0.192,0.509,0.646,0.317,1.013L7.503,22.4c-0.004,0.034,0.001,0.045,0.01,0.055c0.01,0.01,0.021,0.015,0.035,0.015h14.905
		c0.032-0.012,0.04-0.021,0.044-0.035c0.004-0.013,0.003-0.025-0.003-0.038L15.001,8.086l-3.268,6.238
		c-0.13,0.248-0.384,0.402-0.665,0.402c-0.12,0-0.24-0.03-0.347-0.085c-0.367-0.192-0.509-0.647-0.317-1.013l3.846-7.344V2.253
		c-0.002-0.59,0.226-1.147,0.644-1.567c0.417-0.42,0.973-0.653,1.565-0.655c0.597,0,1.152,0.229,1.57,0.643
		c0.42,0.417,0.653,0.973,0.655,1.565c0.003,0.744,0.503,1.41,1.216,1.62c0.192,0.057,0.351,0.185,0.447,0.361
		c0.096,0.176,0.117,0.379,0.061,0.571c-0.093,0.317-0.389,0.538-0.719,0.538c-0.071,0-0.142-0.01-0.211-0.03
		c-1.345-0.396-2.288-1.652-2.293-3.054c-0.001-0.191-0.076-0.371-0.212-0.506c-0.133-0.132-0.315-0.208-0.5-0.208
		c-0.2,0.001-0.379,0.076-0.514,0.212c-0.135,0.136-0.209,0.316-0.208,0.508v4.034l8.073,15.42c0.192,0.37,0.228,0.79,0.103,1.185
		c-0.125,0.395-0.397,0.717-0.765,0.907c-0.217,0.113-0.462,0.173-0.707,0.174c0,0-0.001,0-0.001,0H7.545z"/>
	<path d="M11.626,19.845c-0.2,0-0.389-0.078-0.53-0.22L0.221,8.75c-0.142-0.141-0.22-0.33-0.22-0.53s0.078-0.389,0.22-0.53
		c0.141-0.142,0.33-0.22,0.53-0.22s0.389,0.078,0.53,0.22l10.875,10.875c0.292,0.292,0.292,0.768,0,1.061
		C12.015,19.767,11.826,19.845,11.626,19.845z"/>
</g>
</svg>
