<?xml version="1.0" encoding="utf-8"?>
<!-- Generator: Adobe Illustrator 22.1.0, SVG Export Plug-In . SVG Version: 6.00 Build 0)  -->
<svg version="1.1" id="Layer_1" xmlns="http://www.w3.org/2000/svg" xmlns:xlink="http://www.w3.org/1999/xlink" x="0px" y="0px"
	 viewBox="0 0 24 24" style="enable-background:new 0 0 24 24;" xml:space="preserve">
<title>instrument-tuba</title>
<g>
	<path d="M7.572,24.001c-0.599,0-1.162-0.233-1.587-0.655l-5.325-5.325c-0.426-0.426-0.66-0.991-0.66-1.594
		c0-0.602,0.234-1.168,0.66-1.594c0.424-0.425,0.99-0.658,1.591-0.658c0.378,0,0.742,0.092,1.068,0.268l2.835-2.457
		c-0.171-0.322-0.26-0.679-0.26-1.048c0-1.243,1.011-2.254,2.254-2.254c0.481,0,0.94,0.15,1.322,0.429l0.666-0.578
		c-0.18-0.329-0.274-0.694-0.274-1.074c0-1.243,1.011-2.254,2.254-2.254c0.492,0,0.958,0.157,1.345,0.447l4.494-3.894L17.477,1.28
		c-0.142-0.141-0.22-0.33-0.22-0.53s0.078-0.389,0.22-0.53S17.807,0,18.007,0s0.389,0.078,0.53,0.22l2.091,2.091L22.72,0.22
		C22.861,0.078,23.05,0,23.25,0s0.389,0.078,0.53,0.22C23.922,0.361,24,0.549,24,0.75c0,0.2-0.078,0.389-0.22,0.53l-2.091,2.091
		l2.091,2.091C23.922,5.604,24,5.793,24,5.993c0,0.2-0.078,0.389-0.22,0.53s-0.33,0.22-0.53,0.22s-0.389-0.078-0.53-0.22
		l-0.479-0.479L9.558,20.679c0.47,0.864,0.327,1.938-0.384,2.654C8.744,23.764,8.18,24,7.578,24.001
		C7.578,24.001,7.572,24.001,7.572,24.001z M2.255,15.674c-0.202,0-0.391,0.078-0.533,0.22c-0.142,0.143-0.221,0.332-0.221,0.533
		s0.078,0.391,0.221,0.533l5.318,5.318c0.146,0.145,0.331,0.222,0.533,0.222c0.203,0,0.391-0.079,0.532-0.221
		c0.003-0.003,0.022-0.021,0.025-0.025c0.277-0.279,0.271-0.75-0.022-1.042l-5.319-5.32C2.646,15.752,2.456,15.674,2.255,15.674z
		 M8.557,19.543l12.62-14.561l-2.159-2.158l-4.717,4.088c0.046,0.18,0.069,0.365,0.069,0.55c0,1.243-1.011,2.254-2.254,2.254
		c-0.293,0-0.584-0.058-0.855-0.169l-0.936,0.811c0.051,0.189,0.077,0.384,0.077,0.581c0,1.243-1.011,2.254-2.254,2.254
		c-0.304,0-0.605-0.062-0.884-0.182l-2.808,2.433L8.557,19.543z M8.149,10.184c-0.416,0-0.754,0.338-0.754,0.754
		c0,0.416,0.338,0.754,0.754,0.754s0.754-0.338,0.754-0.754C8.903,10.522,8.565,10.184,8.149,10.184z M12.117,6.707
		c-0.416,0-0.754,0.338-0.754,0.754s0.338,0.754,0.754,0.754c0.416,0,0.754-0.338,0.754-0.754S12.533,6.707,12.117,6.707z"/>
</g>
</svg>
