<?xml version="1.0" encoding="utf-8"?>
<!-- Generator: Adobe Illustrator 22.1.0, SVG Export Plug-In . SVG Version: 6.00 Build 0)  -->
<svg version="1.1" id="Layer_1" xmlns="http://www.w3.org/2000/svg" xmlns:xlink="http://www.w3.org/1999/xlink" x="0px" y="0px"
	 viewBox="0 0 24 24" style="enable-background:new 0 0 24 24;" xml:space="preserve">
<title>phone-booth</title>
<g>
	<path d="M3.75,24.01C3.336,24.01,3,23.674,3,23.26s0.336-0.75,0.75-0.75H4.5V5.26c0-0.369,0.268-0.677,0.62-0.739
		c0.72-1.661,2.008-2.997,3.649-3.78c1.022-0.488,2.107-0.735,3.224-0.735c0.852,0,1.696,0.146,2.51,0.434
		c1.964,0.696,3.546,2.175,4.373,4.08C19.231,4.582,19.5,4.89,19.5,5.26v17.25h0.75c0.414,0,0.75,0.336,0.75,0.75
		s-0.336,0.75-0.75,0.75H3.75z M18,22.51v-4.5H6v4.5H18z M18,16.51v-3h-3v3H18z M13.5,16.51v-3h-3v3H13.5z M9,16.51v-3H6v3H9z
		 M18,12.01v-3h-3v3H18z M13.5,12.01v-3h-3v3H13.5z M9,12.01v-3H6v3H9z M18,7.51v-1.5H6v1.5H18z M17.196,4.51
		c-0.71-1.239-1.826-2.171-3.193-2.655c-0.652-0.231-1.327-0.348-2.009-0.348c-0.893,0-1.761,0.198-2.579,0.588
		C8.3,2.627,7.407,3.455,6.804,4.51H17.196z"/>
</g>
</svg>
