<?xml version="1.0" encoding="utf-8"?>
<!-- Generator: Adobe Illustrator 22.1.0, SVG Export Plug-In . SVG Version: 6.00 Build 0)  -->
<svg version="1.1" id="Layer_1" xmlns="http://www.w3.org/2000/svg" xmlns:xlink="http://www.w3.org/1999/xlink" x="0px" y="0px"
	 viewBox="0 0 24 24" style="enable-background:new 0 0 24 24;" xml:space="preserve">
<title>phone-retro-1</title>
<g>
	<path d="M18,9.02c-1.241,0-2.25-1.009-2.25-2.25c0-0.414-0.336-0.75-0.75-0.75H9c-0.414,0-0.75,0.336-0.75,0.75
		C8.25,8.01,7.241,9.02,6,9.02H2.25C1.009,9.02,0,8.01,0,6.77V5.88c-0.001-2.481,1.689-4.589,4.111-5.127
		c0.024-0.005,0.05-0.01,0.076-0.013c2.579-0.496,5.206-0.747,7.808-0.747c2.608,0,5.24,0.253,7.824,0.751
		c0.025,0.003,0.048,0.007,0.069,0.011C22.309,1.293,24,3.4,24,5.88v0.89c0,1.241-1.009,2.25-2.25,2.25H18z M15,4.52
		c1.241,0,2.25,1.009,2.25,2.25c0,0.414,0.336,0.75,0.75,0.75h3.75c0.414,0,0.75-0.336,0.75-0.75V5.88
		c0-1.754-1.189-3.252-2.894-3.651c-0.012-0.002-0.024-0.004-0.035-0.006c-2.501-0.484-5.051-0.73-7.577-0.73
		c-2.522,0-5.068,0.245-7.567,0.729C4.416,2.223,4.404,2.225,4.392,2.227C2.688,2.627,1.499,4.126,1.5,5.88v0.89
		c0,0.414,0.336,0.75,0.75,0.75H6c0.414,0,0.75-0.336,0.75-0.75c0-1.241,1.009-2.25,2.25-2.25H15z"/>
	<path d="M5.653,24.02c-0.157,0-0.314-0.01-0.466-0.029c-0.993-0.124-1.879-0.628-2.494-1.418c-0.615-0.791-0.885-1.773-0.761-2.767
		l0.093-0.744c0.48-3.84,3.266-7.083,6.975-8.157V9.02c0-0.414,0.336-0.75,0.75-0.75s0.75,0.336,0.75,0.75v1.576
		c0.402-0.05,0.804-0.076,1.199-0.076h0.605c0.394,0,0.795,0.025,1.195,0.075V9.02c0-0.414,0.336-0.75,0.75-0.75S15,8.606,15,9.02
		v1.883c3.71,1.073,6.498,4.315,6.979,8.155l0.093,0.744c0.02,0.155,0.03,0.312,0.03,0.466c0.001,2.068-1.681,3.751-3.748,3.751
		C18.353,24.02,5.653,24.02,5.653,24.02z M11.699,12.02c-4.152,0-7.671,3.107-8.186,7.227L3.42,19.991
		c-0.074,0.596,0.088,1.186,0.457,1.66c0.369,0.474,0.901,0.777,1.497,0.851c0.092,0.011,0.185,0.017,0.279,0.017h12.7
		c1.24-0.001,2.249-1.01,2.249-2.251c0-0.092-0.006-0.186-0.018-0.281l-0.093-0.745c-0.516-4.118-4.035-7.224-8.186-7.224H11.699z"
		/>
	<path d="M12,21.02c-2.068,0-3.75-1.682-3.75-3.75s1.682-3.75,3.75-3.75c2.068,0,3.75,1.682,3.75,3.75S14.068,21.02,12,21.02z
		 M12,15.02c-1.241,0-2.25,1.009-2.25,2.25s1.009,2.25,2.25,2.25c1.241,0,2.25-1.009,2.25-2.25S13.241,15.02,12,15.02z"/>
</g>
</svg>
