<?xml version="1.0" encoding="utf-8"?>
<!-- Generator: Adobe Illustrator 22.1.0, SVG Export Plug-In . SVG Version: 6.00 Build 0)  -->
<svg version="1.1" id="Layer_1" xmlns="http://www.w3.org/2000/svg" xmlns:xlink="http://www.w3.org/1999/xlink" x="0px" y="0px"
	 viewBox="0 0 24 24" style="enable-background:new 0 0 24 24;" xml:space="preserve">
<title>phone-incoming-call</title>
<g>
	<path d="M18,21.013c-1.241,0-2.25-1.009-2.25-2.25c0-0.414-0.336-0.75-0.75-0.75H9c-0.414,0-0.75,0.336-0.75,0.75
		c0,1.241-1.009,2.25-2.25,2.25H2.25c-1.241,0-2.25-1.009-2.25-2.25v-0.89c-0.002-2.481,1.689-4.59,4.111-5.128
		c0.025-0.006,0.051-0.01,0.077-0.013c2.577-0.495,5.203-0.747,7.804-0.747c2.609,0,5.242,0.253,7.827,0.751
		c0.026,0.003,0.051,0.007,0.072,0.012C22.309,13.286,24,15.393,24,17.873v0.89c0,1.241-1.009,2.25-2.25,2.25H18z M15,16.513
		c1.241,0,2.25,1.009,2.25,2.25c0,0.414,0.336,0.75,0.75,0.75h3.75c0.414,0,0.75-0.336,0.75-0.75v-0.89
		c0-1.754-1.189-3.252-2.894-3.651c-0.01-0.001-0.02-0.003-0.029-0.005c-2.507-0.486-5.058-0.731-7.584-0.731
		c-2.521,0-5.067,0.245-7.565,0.728c-0.011,0.002-0.023,0.004-0.035,0.006c-1.705,0.4-2.894,1.899-2.893,3.653v0.89
		c0,0.414,0.336,0.75,0.75,0.75H6c0.414,0,0.75-0.336,0.75-0.75c0-1.241,1.009-2.25,2.25-2.25H15z"/>
	<path d="M12,9.763c-0.414,0-0.75-0.336-0.75-0.75v-5.25c0-0.414,0.336-0.75,0.75-0.75s0.75,0.336,0.75,0.75v5.25
		C12.75,9.427,12.414,9.763,12,9.763z"/>
	<path d="M6.75,9.763c-0.262,0-0.509-0.14-0.643-0.364l-2.25-3.75C3.644,5.294,3.76,4.833,4.114,4.62
		C4.231,4.55,4.364,4.513,4.5,4.513c0.262,0,0.508,0.14,0.643,0.364l2.25,3.75C7.606,8.982,7.49,9.443,7.136,9.656
		C7.019,9.726,6.886,9.763,6.75,9.763z"/>
	<path d="M17.25,9.763c-0.136,0-0.269-0.037-0.386-0.107c-0.172-0.103-0.293-0.267-0.342-0.461C16.474,9,16.504,8.799,16.607,8.627
		l2.25-3.75c0.135-0.225,0.382-0.364,0.644-0.364c0.136,0,0.269,0.037,0.385,0.107c0.172,0.103,0.293,0.267,0.342,0.461
		c0.049,0.194,0.019,0.396-0.084,0.568l-2.25,3.75C17.758,9.624,17.512,9.763,17.25,9.763z"/>
</g>
</svg>
