<?xml version="1.0" encoding="utf-8"?>
<!-- Generator: Adobe Illustrator 22.1.0, SVG Export Plug-In . SVG Version: 6.00 Build 0)  -->
<svg version="1.1" id="Regular" xmlns="http://www.w3.org/2000/svg" xmlns:xlink="http://www.w3.org/1999/xlink" x="0px" y="0px"
	 viewBox="0 0 24 24" style="enable-background:new 0 0 24 24;" xml:space="preserve">
<title>single-man-book</title>
<g>
	<path d="M5.25,24c-1.654,0-3-1.346-3-3V3.75C2.25,1.682,3.932,0,6,0h13.5c1.241,0,2.25,1.009,2.25,2.25v15
		c0,0.96-0.615,1.808-1.5,2.121V22.5H21c0.414,0,0.75,0.336,0.75,0.75S21.414,24,21,24H5.25z M5.25,19.5c-0.827,0-1.5,0.673-1.5,1.5
		s0.673,1.5,1.5,1.5h13.5v-3H5.25z M6,1.5c-1.241,0-2.25,1.009-2.25,2.25v14.651C4.201,18.139,4.714,18,5.25,18H19.5
		c0.414,0,0.75-0.336,0.75-0.75v-15c0-0.414-0.336-0.75-0.75-0.75H6z"/>
	<path d="M11.65,12c-2.275,0-4.125-1.85-4.125-4.125c0-0.58,0.121-1.146,0.361-1.68c0,0,0.011-0.024,0.016-0.033
		C8.584,4.69,10.049,3.75,11.65,3.75c2.275,0,4.125,1.85,4.125,4.125c0,0.023-0.001,0.046-0.003,0.069
		c0.003,0.035,0.001,0.088-0.008,0.146C15.651,10.284,13.847,12,11.65,12z M9.028,7.765c-0.002,0.037-0.003,0.073-0.003,0.11
		c0,1.447,1.178,2.625,2.625,2.625c1.047,0,1.981-0.628,2.397-1.554C13.748,8.982,13.45,9,13.154,9
		C11.682,9,10.243,8.565,9.028,7.765z M9.557,6.298C10.591,7.075,11.851,7.5,13.14,7.5c0.365,0,0.727-0.033,1.088-0.1
		c-0.225-1.229-1.301-2.15-2.578-2.15C10.826,5.25,10.05,5.645,9.557,6.298z"/>
	<path d="M6.9,15.75c-0.166,0-0.33-0.056-0.461-0.159c-0.326-0.254-0.384-0.727-0.13-1.053c0.341-0.436,0.735-0.831,1.172-1.172
		c1.2-0.937,2.64-1.432,4.163-1.432c2.107,0,4.056,0.949,5.348,2.604c0.254,0.326,0.196,0.798-0.13,1.053
		c-0.131,0.102-0.295,0.158-0.461,0.158c-0.233,0-0.448-0.105-0.592-0.288c-1.006-1.289-2.524-2.027-4.165-2.027
		c-1.186,0-2.306,0.385-3.24,1.115c-0.34,0.265-0.647,0.572-0.912,0.912C7.348,15.645,7.132,15.75,6.9,15.75z"/>
</g>
</svg>
