<?xml version="1.0" encoding="utf-8"?>
<!-- Generator: Adobe Illustrator 22.1.0, SVG Export Plug-In . SVG Version: 6.00 Build 0)  -->
<svg version="1.1" id="Regular" xmlns="http://www.w3.org/2000/svg" xmlns:xlink="http://www.w3.org/1999/xlink" x="0px" y="0px"
	 viewBox="0 0 24 24" style="enable-background:new 0 0 24 24;" xml:space="preserve">
<title>single-man-news</title>
<g>
	<path d="M4.5,22.5c-0.414,0-0.75-0.336-0.75-0.75S4.086,21,4.5,21h6.75v-1.5H3c-1.241,0-2.25-1.009-2.25-2.25V3.75
		C0.75,2.509,1.759,1.5,3,1.5h18c1.241,0,2.25,1.009,2.25,2.25v13.5c0,1.241-1.009,2.25-2.25,2.25h-8.25V21h6.75
		c0.414,0,0.75,0.336,0.75,0.75s-0.336,0.75-0.75,0.75H4.5z M3,3C2.586,3,2.25,3.336,2.25,3.75v13.5C2.25,17.664,2.586,18,3,18h18
		c0.414,0,0.75-0.336,0.75-0.75V3.75C21.75,3.336,21.414,3,21,3H3z"/>
	<path d="M4.5,10.5c-0.414,0-0.75-0.336-0.75-0.75v-4.5c0-0.414,0.336-0.75,0.75-0.75H9c0.414,0,0.75,0.336,0.75,0.75v4.5
		c0,0.414-0.336,0.75-0.75,0.75H4.5z M8.25,9V6h-3v3H8.25z"/>
	<path d="M15.25,12.75c-2.274,0-4.125-1.85-4.125-4.125c0-0.58,0.121-1.146,0.361-1.68c0,0,0.013-0.028,0.018-0.037
		C12.169,5.45,13.642,4.5,15.25,4.5c2.274,0,4.125,1.85,4.125,4.125c0,0.021-0.001,0.042-0.003,0.063
		c0.004,0.056,0.001,0.112-0.009,0.168C19.242,11.042,17.44,12.75,15.25,12.75z M12.627,8.515c-0.002,0.037-0.002,0.074-0.002,0.11
		c0,1.447,1.177,2.625,2.625,2.625c1.048,0,1.981-0.628,2.397-1.555c-0.3,0.036-0.6,0.055-0.897,0.055
		C15.281,9.75,13.842,9.315,12.627,8.515z M13.157,7.047C14.19,7.825,15.45,8.25,16.74,8.25c0.366,0,0.728-0.034,1.089-0.1
		C17.604,6.922,16.527,6,15.25,6C14.427,6,13.65,6.395,13.157,7.047z"/>
	<path d="M10.5,16.499c-0.166,0-0.33-0.056-0.461-0.159c-0.326-0.254-0.384-0.727-0.13-1.053c0.34-0.436,0.734-0.83,1.171-1.172
		c1.2-0.937,2.64-1.432,4.163-1.432c2.107,0,4.056,0.949,5.348,2.604c0.254,0.326,0.196,0.798-0.13,1.053
		c-0.131,0.102-0.295,0.159-0.461,0.159l0,0c-0.233,0-0.449-0.105-0.592-0.289c-1.005-1.288-2.523-2.027-4.165-2.027
		c-1.186,0-2.306,0.385-3.241,1.115c-0.34,0.265-0.647,0.572-0.912,0.912C10.948,16.394,10.732,16.499,10.5,16.499z"/>
</g>
</svg>
