<?xml version="1.0" encoding="utf-8"?>
<!-- Generator: Adobe Illustrator 22.1.0, SVG Export Plug-In . SVG Version: 6.00 Build 0)  -->
<svg version="1.1" id="Regular" xmlns="http://www.w3.org/2000/svg" xmlns:xlink="http://www.w3.org/1999/xlink" x="0px" y="0px"
	 viewBox="0 0 24 24" style="enable-background:new 0 0 24 24;" xml:space="preserve">
<title>single-man-vintage-tv</title>
<g>
	<path d="M21.75,22.5c-0.2,0-0.389-0.078-0.53-0.22l-2.78-2.78H5.561l-2.78,2.78c-0.142,0.142-0.33,0.22-0.53,0.22
		s-0.389-0.078-0.53-0.22c-0.142-0.142-0.22-0.33-0.22-0.53s0.078-0.389,0.22-0.53l1.72-1.72H2.25C1.009,19.5,0,18.491,0,17.25V3.75
		C0,2.509,1.009,1.5,2.25,1.5h19.5C22.991,1.5,24,2.509,24,3.75v13.5c0,1.241-1.009,2.25-2.25,2.25h-1.189l1.72,1.72
		c0.142,0.142,0.22,0.33,0.22,0.53s-0.078,0.389-0.22,0.53S21.95,22.5,21.75,22.5z M21.75,18c0.414,0,0.75-0.336,0.75-0.75V3.75
		C22.5,3.336,22.164,3,21.75,3H16.5v15H21.75z M2.25,3C1.836,3,1.5,3.336,1.5,3.75v13.5C1.5,17.664,1.836,18,2.25,18H15V3H2.25z"/>
	<path d="M18.75,12C18.336,12,18,11.664,18,11.25s0.336-0.75,0.75-0.75h1.5c0.414,0,0.75,0.336,0.75,0.75S20.664,12,20.25,12H18.75z
		"/>
	<path d="M18.75,15C18.336,15,18,14.664,18,14.25s0.336-0.75,0.75-0.75h1.5c0.414,0,0.75,0.336,0.75,0.75S20.664,15,20.25,15H18.75z
		"/>
	<circle cx="19.5" cy="7.875" r="1.125"/>
	<path d="M8.25,12.671c-2.177,0-3.948-1.771-3.948-3.948c0-0.555,0.116-1.096,0.345-1.608c0,0,0.011-0.023,0.016-0.033v0
		C5.319,5.672,6.719,4.775,8.25,4.775c2.177,0,3.948,1.771,3.948,3.948c0,0.02-0.001,0.04-0.002,0.059
		c0.003,0.054,0,0.109-0.009,0.165C12.069,11.037,10.344,12.671,8.25,12.671z M5.802,8.723c0,1.35,1.098,2.448,2.448,2.448
		c0.948,0,1.802-0.558,2.204-1.386c-0.262,0.029-0.522,0.044-0.78,0.044c-1.376,0-2.726-0.401-3.871-1.138
		C5.802,8.702,5.802,8.712,5.802,8.723z M6.322,7.221c0.967,0.717,2.141,1.108,3.341,1.108c0.329,0,0.657-0.029,0.984-0.087
		C10.422,7.116,9.425,6.275,8.25,6.275C7.496,6.275,6.783,6.631,6.322,7.221z"/>
	<path d="M3.75,16.223c-0.167,0-0.331-0.057-0.462-0.159c-0.158-0.123-0.258-0.301-0.282-0.5c-0.024-0.199,0.03-0.395,0.154-0.553
		c0.324-0.415,0.699-0.789,1.114-1.114c1.145-0.894,2.517-1.367,3.97-1.367c2.008,0,3.866,0.904,5.097,2.481
		c0.124,0.158,0.178,0.354,0.154,0.553s-0.125,0.376-0.282,0.5c-0.131,0.103-0.295,0.159-0.461,0.159
		c-0.233,0-0.448-0.105-0.591-0.288c-0.946-1.211-2.373-1.905-3.915-1.905c-1.115,0-2.169,0.363-3.048,1.049
		c-0.319,0.249-0.607,0.537-0.856,0.856C4.198,16.118,3.982,16.223,3.75,16.223z"/>
</g>
</svg>
