<?xml version="1.0" encoding="utf-8"?>
<!-- Generator: Adobe Illustrator 22.1.0, SVG Export Plug-In . SVG Version: 6.00 Build 0)  -->
<svg version="1.1" id="Regular" xmlns="http://www.w3.org/2000/svg" xmlns:xlink="http://www.w3.org/1999/xlink" x="0px" y="0px"
	 viewBox="0 0 24 24" style="enable-background:new 0 0 24 24;" xml:space="preserve">
<title>multiple-neutral-1</title>
<g>
	<path d="M6,7.5c-2.068,0-3.75-1.682-3.75-3.75S3.932,0,6,0s3.75,1.682,3.75,3.75S8.068,7.5,6,7.5z M6,1.5
		c-1.241,0-2.25,1.009-2.25,2.25S4.759,6,6,6s2.25-1.009,2.25-2.25S7.241,1.5,6,1.5z"/>
	<path d="M3.75,24c-0.387,0-0.708-0.29-0.746-0.675L2.321,16.5H0.75C0.336,16.5,0,16.164,0,15.75V13.5c0-3.308,2.692-6,6-6
		s6,2.692,6,6v2.25c0,0.414-0.336,0.75-0.75,0.75H9.679l-0.682,6.825C8.958,23.71,8.637,24,8.25,24H3.75z M7.571,22.5l0.682-6.825
		C8.292,15.29,8.613,15,9,15h1.5v-1.5C10.5,11.019,8.481,9,6,9s-4.5,2.019-4.5,4.5V15H3c0.387,0,0.708,0.29,0.746,0.675L4.429,22.5
		H7.571z"/>
	<path d="M18,7.5c-2.068,0-3.75-1.682-3.75-3.75S15.932,0,18,0s3.75,1.682,3.75,3.75S20.068,7.5,18,7.5z M18,1.5
		c-1.241,0-2.25,1.009-2.25,2.25S16.759,6,18,6s2.25-1.009,2.25-2.25S19.241,1.5,18,1.5z"/>
	<path d="M15.75,24c-0.387,0-0.708-0.291-0.746-0.676L14.321,16.5H13.5c-0.414,0-0.75-0.336-0.75-0.75S13.086,15,13.5,15H15
		c0.387,0,0.708,0.291,0.746,0.676l0.683,6.824h3.143l0.683-6.825C20.292,15.291,20.613,15,21,15h1.5v-1.5
		c-0.001-1.201-0.47-2.331-1.321-3.18C20.33,9.471,19.201,9.004,18,9.004c-1.573,0.001-3.049,0.837-3.857,2.182
		c-0.135,0.224-0.382,0.364-0.643,0.364c-0.136,0-0.269-0.037-0.386-0.107c-0.354-0.213-0.47-0.675-0.257-1.029
		c1.077-1.793,3.046-2.908,5.138-2.91c1.605,0,3.111,0.623,4.244,1.754c1.134,1.132,1.76,2.639,1.761,4.241v2.25
		c0,0.414-0.336,0.75-0.75,0.75h-1.571l-0.683,6.825C20.958,23.709,20.637,24,20.25,24H15.75z"/>
</g>
</svg>
