<?xml version="1.0" encoding="utf-8"?>
<!-- Generator: Adobe Illustrator 22.1.0, SVG Export Plug-In . SVG Version: 6.00 Build 0)  -->
<svg version="1.1" id="Regular" xmlns="http://www.w3.org/2000/svg" xmlns:xlink="http://www.w3.org/1999/xlink" x="0px" y="0px"
	 viewBox="0 0 24 24" style="enable-background:new 0 0 24 24;" xml:space="preserve">
<title>multiple-man-woman-2</title>
<g>
	<path d="M6,7.5c-2.068,0-3.75-1.682-3.75-3.75S3.932,0,6,0s3.75,1.682,3.75,3.75S8.067,7.5,6,7.5z M6,1.5
		c-1.241,0-2.25,1.009-2.25,2.25S4.759,6,6,6s2.25-1.009,2.25-2.25S7.24,1.5,6,1.5z"/>
	<path d="M3.75,24c-0.387,0-0.708-0.29-0.746-0.675L2.321,16.5H0.75C0.336,16.5,0,16.164,0,15.75V13.5c0-3.308,2.692-6,6-6
		s6,2.692,6,6v2.25c0,0.414-0.336,0.75-0.75,0.75H9.678l-0.682,6.825C8.957,23.71,8.637,24,8.25,24H3.75z M7.571,22.5l0.682-6.825
		C8.292,15.29,8.613,15,9,15h1.5v-1.5C10.5,11.019,8.481,9,6,9s-4.5,2.019-4.5,4.5V15H3c0.387,0,0.708,0.29,0.746,0.675L4.428,22.5
		H7.571z"/>
	<path d="M15,24c-0.368,0-0.679-0.264-0.74-0.627L13.614,19.5H12.75c-0.414,0-0.75-0.336-0.75-0.75S12.336,18,12.75,18h1.5
		c0.368,0,0.679,0.264,0.74,0.627l0.646,3.873h3.229l0.646-3.873C19.57,18.264,19.881,18,20.25,18h1.959l-1.921-5.763
		C19.386,9.53,18.491,9,17.25,9c-1.103,0.001-2.086,0.702-2.447,1.745c-0.105,0.302-0.39,0.505-0.709,0.505
		c-0.083,0-0.166-0.014-0.245-0.041c-0.391-0.135-0.599-0.563-0.464-0.954c0.57-1.646,2.123-2.753,3.865-2.755
		c2.68,0,3.759,2.155,4.462,4.263l2.25,6.75c0.076,0.229,0.037,0.481-0.103,0.676c-0.14,0.195-0.368,0.311-0.608,0.311h-2.365
		l-0.646,3.873C20.179,23.736,19.868,24,19.5,24H15z"/>
	<path d="M17.25,7.5c-2.068,0-3.75-1.682-3.75-3.75S15.182,0,17.25,0S21,1.682,21,3.75S19.318,7.5,17.25,7.5z M17.25,1.5
		C16.009,1.5,15,2.509,15,3.75S16.009,6,17.25,6s2.25-1.009,2.25-2.25S18.49,1.5,17.25,1.5z"/>
</g>
</svg>
