<?xml version="1.0" encoding="utf-8"?>
<!-- Generator: Adobe Illustrator 22.1.0, SVG Export Plug-In . SVG Version: 6.00 Build 0)  -->
<svg version="1.1" id="Regular" xmlns="http://www.w3.org/2000/svg" xmlns:xlink="http://www.w3.org/1999/xlink" x="0px" y="0px"
	 viewBox="0 0 24 24" style="enable-background:new 0 0 24 24;" xml:space="preserve">
<title>multiple-man-woman-1</title>
<g>
	<path d="M6,7.5c-2.068,0-3.75-1.682-3.75-3.75S3.932,0,6,0s3.75,1.682,3.75,3.75S8.068,7.5,6,7.5z M6,1.5
		c-1.241,0-2.25,1.009-2.25,2.25S4.759,6,6,6s2.25-1.009,2.25-2.25S7.241,1.5,6,1.5z"/>
	<path d="M3.75,24c-0.387,0-0.708-0.29-0.746-0.675L2.321,16.5H0.75C0.336,16.5,0,16.164,0,15.75V13.5c0-3.308,2.692-6,6-6
		s6,2.692,6,6v2.25c0,0.414-0.336,0.75-0.75,0.75H9.679l-0.682,6.825C8.958,23.71,8.637,24,8.25,24H3.75z M7.571,22.5l0.682-6.825
		C8.292,15.29,8.613,15,9,15h1.5v-1.5c0-2.198-1.617-4.072-3.75-4.433v5.183C6.75,14.664,6.414,15,6,15s-0.75-0.336-0.75-0.75V9.067
		C3.117,9.428,1.5,11.302,1.5,13.5V15H3c0.387,0,0.708,0.29,0.746,0.675L4.429,22.5H7.571z"/>
	<path d="M15.75,24c-0.387,0-0.708-0.291-0.746-0.676L14.321,16.5H13.5c-0.414,0-0.75-0.336-0.75-0.75S13.086,15,13.5,15H15
		c0.387,0,0.708,0.291,0.746,0.676l0.683,6.824h3.143l0.683-6.825C20.292,15.291,20.613,15,21,15h1.5v-1.5
		c0.001-1.268-0.517-2.448-1.434-3.296l-2.44,3.708c-0.135,0.205-0.369,0.327-0.626,0.327s-0.492-0.122-0.626-0.327l-2.438-3.704
		c-0.309,0.289-0.579,0.622-0.793,0.979c-0.135,0.225-0.382,0.364-0.644,0.364c-0.136,0-0.269-0.037-0.386-0.107
		c-0.354-0.213-0.469-0.675-0.256-1.029c0.46-0.766,1.098-1.432,1.843-1.925c0.123-0.081,0.266-0.125,0.415-0.125
		c0.049,0,0.098,0.005,0.147,0.015c0.196,0.04,0.37,0.158,0.479,0.323L18,12.136l2.26-3.434c0.139-0.211,0.374-0.338,0.627-0.338
		c0.146,0,0.289,0.043,0.411,0.123C22.991,9.6,24.001,11.474,24,13.5v2.25c0,0.414-0.336,0.75-0.75,0.75h-1.571l-0.683,6.825
		C20.958,23.709,20.637,24,20.25,24H15.75z"/>
	<path d="M23.25,8.25c-0.674,0-1.847-0.264-2.521-1.933C20.027,7.068,19.05,7.5,18,7.5s-2.027-0.432-2.729-1.183
		C14.597,7.986,13.424,8.25,12.75,8.25C12.336,8.25,12,7.914,12,7.5s0.336-0.75,0.75-0.75c1.444,0,1.5-2.971,1.5-3.001
		C14.25,1.682,15.933,0,18,0s3.75,1.682,3.75,3.75c0,0.029,0.055,3,1.5,3C23.664,6.75,24,7.086,24,7.5S23.664,8.25,23.25,8.25z
		 M18,1.5c-1.241,0-2.25,1.009-2.25,2.25S16.759,6,18,6s2.25-1.009,2.25-2.25S19.241,1.5,18,1.5z"/>
</g>
</svg>
