<svg xmlns="http://www.w3.org/2000/svg" viewBox="0 0 24 24"><defs><style>.a{fill:none;stroke:currentColor;stroke-linecap:round;stroke-linejoin:round;stroke-width:1.5px;}</style></defs><title>browser-com</title><path class="a" d="M23.25,19.5v.635a1.62,1.62,0,0,1-1.615,1.615H2.25a1.5,1.5,0,0,1-1.5-1.5V19.5"/><path class="a" d="M.75,8.25V3.865A1.62,1.62,0,0,1,2.365,2.25H21.643A1.612,1.612,0,0,1,23.25,3.857V8.25"/><line class="a" x1="23.25" y1="6.75" x2="0.75" y2="6.75"/><path class="a" d="M8.25,11.25a3,3,0,0,0-3,3h0a3,3,0,0,0,3,3"/><path class="a" d="M12.75,11.25a1.5,1.5,0,0,0-1.5,1.5v3a1.5,1.5,0,0,0,3,0v-3A1.5,1.5,0,0,0,12.75,11.25Z"/><polyline class="a" points="21.75 17.25 21.75 11.25 19.5 15 17.25 11.25 17.25 17.25"/><path class="a" d="M2.625,16.5a.375.375,0,1,1-.375.375.375.375,0,0,1,.375-.375"/></svg>