<?xml version="1.0" encoding="utf-8"?>
<!-- Generator: Adobe Illustrator 22.1.0, SVG Export Plug-In . SVG Version: 6.00 Build 0)  -->
<svg version="1.1" id="Layer_1" xmlns="http://www.w3.org/2000/svg" xmlns:xlink="http://www.w3.org/1999/xlink" x="0px" y="0px"
	 viewBox="0 0 24 24" style="enable-background:new 0 0 24 24;" xml:space="preserve">
<title>award-medal</title>
<g>
	<path d="M14.912,19.723c-0.237,0-0.469-0.062-0.673-0.18L12,18.279l-2.247,1.264c-0.197,0.115-0.427,0.177-0.661,0.177
		c-0.116,0-0.233-0.015-0.346-0.046c-0.345-0.091-0.634-0.312-0.814-0.621c-0.209-0.361-0.238-0.806-0.077-1.19l0.88-2.022
		L7.15,14.28c-0.524-0.508-0.537-1.352-0.026-1.879c0.253-0.261,0.599-0.406,0.974-0.406h1.664l1.041-2.048
		c0.175-0.329,0.46-0.564,0.805-0.669c0.128-0.039,0.261-0.059,0.394-0.059c0.219,0,0.439,0.055,0.634,0.16
		c0.24,0.128,0.434,0.323,0.561,0.565l1.044,2.056h1.667c0.735,0,1.328,0.583,1.345,1.3c0.009,0.371-0.139,0.732-0.406,0.99
		l-1.581,1.556l0.876,2.013c0.142,0.338,0.144,0.704,0.008,1.034c-0.135,0.331-0.392,0.589-0.721,0.728
		C15.265,19.688,15.091,19.723,14.912,19.723z M12.001,16.668c0.129,0,0.256,0.033,0.368,0.097l2.203,1.243l-0.887-2.037
		c-0.123-0.283-0.058-0.618,0.162-0.834l1.663-1.637H13.78c-0.284,0-0.54-0.157-0.669-0.411L12,10.901l-1.11,2.184
		c-0.129,0.253-0.385,0.41-0.669,0.41H8.491l1.664,1.637c0.22,0.216,0.285,0.551,0.162,0.834l-0.887,2.038l2.204-1.24
		C11.745,16.702,11.872,16.668,12.001,16.668z"/>
	<path d="M12.001,23.999c-4.963,0-9-4.037-9-9c0-1.417,0.339-2.826,0.983-4.085l-3.93-9.888c-0.153-0.384,0.036-0.821,0.42-0.974
		c0.089-0.035,0.182-0.053,0.277-0.053c0.309,0,0.583,0.186,0.697,0.473l3.536,8.898C6.039,8.059,7.448,7.06,9.031,6.504
		L7.527,0.945C7.474,0.752,7.5,0.55,7.6,0.376c0.1-0.174,0.261-0.298,0.455-0.351c0.064-0.017,0.13-0.026,0.196-0.026
		c0.338,0,0.636,0.228,0.724,0.554l1.509,5.575c0.502-0.086,1.01-0.129,1.517-0.129c0.506,0,1.015,0.043,1.517,0.129l1.509-5.575
		c0.089-0.326,0.386-0.554,0.723-0.554c0.067,0,0.134,0.009,0.198,0.027c0.397,0.108,0.635,0.52,0.527,0.919L14.97,6.504
		c1.583,0.556,2.992,1.555,4.047,2.867l3.537-8.899c0.114-0.287,0.388-0.473,0.697-0.473c0.095,0,0.188,0.018,0.277,0.053
		c0.186,0.074,0.332,0.216,0.412,0.4c0.079,0.184,0.082,0.388,0.008,0.574l-3.929,9.888c0.643,1.259,0.983,2.668,0.983,4.085
		C21.001,19.962,16.963,23.999,12.001,23.999z M12.001,7.499c-4.135,0-7.5,3.365-7.5,7.5s3.365,7.5,7.5,7.5s7.5-3.365,7.5-7.5
		S16.136,7.499,12.001,7.499z"/>
</g>
</svg>
