<?xml version="1.0" encoding="utf-8"?>
<!-- Generator: Adobe Illustrator 22.1.0, SVG Export Plug-In . SVG Version: 6.00 Build 0)  -->
<svg version="1.1" id="Layer_1" xmlns="http://www.w3.org/2000/svg" xmlns:xlink="http://www.w3.org/1999/xlink" x="0px" y="0px"
	 viewBox="0 0 24 24" style="enable-background:new 0 0 24 24;" xml:space="preserve">
<title>award-ribbon-star-3</title>
<g>
	<path d="M17.25,24c-0.13,0-0.259-0.034-0.372-0.098L12,21.114l-4.878,2.788C7.009,23.966,6.88,24,6.75,24
		c-0.161,0-0.314-0.05-0.443-0.145c-0.239-0.176-0.353-0.476-0.29-0.765l1.382-6.359C4.679,15.107,3,12.171,3,9c0-4.963,4.037-9,9-9
		s9,4.037,9,9c0,3.171-1.679,6.107-4.399,7.731l1.382,6.36c0.063,0.289-0.051,0.589-0.29,0.764C17.564,23.95,17.41,24,17.25,24z
		 M12,19.5c0.13,0,0.259,0.034,0.372,0.099l3.787,2.164l-0.947-4.357C14.186,17.8,13.107,18,12,18c-1.107,0-2.186-0.2-3.212-0.594
		l-0.947,4.357l3.787-2.164C11.741,19.534,11.87,19.5,12,19.5z M12,1.5C7.865,1.5,4.5,4.865,4.5,9s3.365,7.5,7.5,7.5
		s7.5-3.365,7.5-7.5S16.135,1.5,12,1.5z"/>
	<path d="M9.092,13.72c-0.116,0-0.233-0.015-0.346-0.045c-0.345-0.091-0.635-0.312-0.814-0.621c-0.209-0.361-0.238-0.806-0.077-1.19
		l0.881-2.022l-1.586-1.56C6.897,8.036,6.754,7.705,6.748,7.349C6.742,6.994,6.875,6.657,7.123,6.401
		c0.253-0.262,0.59-0.406,0.949-0.406l1.689,0l1.04-2.044c0.173-0.327,0.456-0.563,0.801-0.67c0.13-0.04,0.265-0.061,0.399-0.061
		c0.217,0,0.435,0.054,0.629,0.157c0.241,0.127,0.436,0.322,0.563,0.563L14.24,6l1.693,0c0.71,0,1.302,0.583,1.32,1.3
		c0.009,0.371-0.139,0.732-0.406,0.99l-1.58,1.552l0.875,2.012c0.141,0.336,0.143,0.701,0.008,1.033
		c-0.135,0.332-0.391,0.591-0.721,0.729c-0.165,0.069-0.339,0.103-0.517,0.103c-0.237,0-0.47-0.062-0.673-0.18L12,12.28
		l-2.247,1.264C9.556,13.658,9.326,13.72,9.092,13.72z M12,10.669c0.129,0,0.256,0.033,0.368,0.096l2.204,1.24l-0.887-2.038
		c-0.123-0.282-0.058-0.618,0.162-0.834L15.509,7.5l-1.73,0c-0.284,0-0.54-0.157-0.669-0.41L12,4.903l-1.111,2.183
		c-0.129,0.253-0.385,0.41-0.668,0.41H8.49l1.664,1.637c0.22,0.216,0.285,0.551,0.162,0.834l-0.887,2.038l2.204-1.24
		C11.744,10.702,11.871,10.669,12,10.669z"/>
</g>
</svg>
