<svg xmlns="http://www.w3.org/2000/svg" viewBox="0 0 24 24"><defs><style>.a{fill:none;stroke:currentColor;stroke-linecap:round;stroke-linejoin:round;stroke-width:1.5px;}</style></defs><title>messages-people-woman-bubble-square-1</title><path class="a" d="M2.626,12.486v1a5.91,5.91,0,0,1-.859,3.273"/><path class="a" d="M10.873,12.486v1a5.909,5.909,0,0,0,.86,3.273"/><path class="a" d="M2.638,12.705a5.487,5.487,0,0,0,4.112-1.9,5.487,5.487,0,0,0,4.112,1.9"/><circle class="a" cx="6.75" cy="12.375" r="4.125"/><path class="a" d="M12.75,23.25a6.054,6.054,0,0,0-12,0"/><path class="a" d="M14.25,15.75h1.5v4.5l4.5-4.5h1.494a1.506,1.506,0,0,0,1.506-1.506V2.25a1.5,1.5,0,0,0-1.5-1.5h-12a1.5,1.5,0,0,0-1.5,1.5V4.5"/><line class="a" x1="19.875" y1="7.875" x2="19.875" y2="7.875"/><path class="a" d="M20.25,8.25a.375.375,0,0,0-.375-.375"/><path class="a" d="M19.875,8.625a.375.375,0,0,0,.375-.375"/><path class="a" d="M19.5,8.25a.375.375,0,0,0,.375.375"/><path class="a" d="M19.875,7.875a.375.375,0,0,0-.375.375"/><line class="a" x1="12.375" y1="7.875" x2="12.375" y2="7.875"/><path class="a" d="M12.75,8.25a.375.375,0,0,0-.375-.375"/><path class="a" d="M12.375,8.625a.375.375,0,0,0,.375-.375"/><path class="a" d="M12,8.25a.375.375,0,0,0,.375.375"/><path class="a" d="M12.375,7.875A.375.375,0,0,0,12,8.25"/><line class="a" x1="16.125" y1="7.875" x2="16.125" y2="7.875"/><path class="a" d="M16.5,8.25a.375.375,0,0,0-.375-.375"/><path class="a" d="M16.125,8.625A.375.375,0,0,0,16.5,8.25"/><path class="a" d="M15.75,8.25a.375.375,0,0,0,.375.375"/><path class="a" d="M16.125,7.875a.375.375,0,0,0-.375.375"/></svg>