<svg xmlns="http://www.w3.org/2000/svg" viewBox="0 0 24 24"><defs><style>.a{fill:none;stroke:currentColor;stroke-linecap:round;stroke-linejoin:round;stroke-width:1.5px;}</style></defs><title>messages-people-user-question</title><path class="a" d="M11.25,15.75h3v4.5l4.5-4.5h3a1.5,1.5,0,0,0,1.5-1.5v-12a1.5,1.5,0,0,0-1.5-1.5h-12a1.5,1.5,0,0,0-1.5,1.5"/><circle class="a" cx="4.5" cy="6.75" r="3"/><path class="a" d="M8.25,17.25V15a3.75,3.75,0,0,0-7.5,0v2.25h1.5l.75,6H6l.75-6Z"/><path class="a" d="M13.5,7.125A1.875,1.875,0,1,1,15.375,9"/><line class="a" x1="15.375" y1="11.25" x2="15.375" y2="11.25"/><path class="a" d="M15.375,11.25a.375.375,0,1,0,.375.375.375.375,0,0,0-.375-.375"/></svg>