<svg xmlns="http://www.w3.org/2000/svg" viewBox="0 0 24 24"><defs><style>.a{fill:none;stroke:currentColor;stroke-linecap:round;stroke-linejoin:round;stroke-width:1.5px;}</style></defs><title>messages-people-person-bubble-1</title><line class="a" x1="16.875" y1="12.75" x2="16.875" y2="12.75"/><path class="a" d="M16.875,12.75a.375.375,0,1,0,.375.375.375.375,0,0,0-.375-.375"/><line class="a" x1="13.875" y1="15" x2="13.875" y2="15"/><path class="a" d="M14.25,15.375A.375.375,0,0,0,13.875,15"/><path class="a" d="M13.5,15.375a.375.375,0,0,0,.75,0"/><path class="a" d="M13.875,15a.375.375,0,0,0-.375.375"/><path class="a" d="M12.75,9.75h6a4.5,4.5,0,1,0-4.458-4.915A2.988,2.988,0,0,0,9,6.75"/><circle class="a" cx="6.75" cy="13.125" r="3.375"/><path class="a" d="M12.75,23.25a6.054,6.054,0,0,0-12,0"/></svg>