<svg xmlns="http://www.w3.org/2000/svg" viewBox="0 0 24 24"><title>indent-increase</title><path d="M18.626,21H1.126a1,1,0,0,0,0,2h17.5a1,1,0,0,0,0-2Z"/><path d="M1.126,3h17.5a1,1,0,0,0,0-2H1.126a1,1,0,0,0,0,2Z"/><path d="M1.126,8h11.5a1,1,0,0,0,0-2H1.126a1,1,0,0,0,0,2Z"/><path d="M1.126,13h11.5a1,1,0,0,0,0-2H1.126a1,1,0,1,0,0,2Z"/><path d="M1.126,18h11.5a1,1,0,1,0,0-2H1.126a1,1,0,0,0,0,2Z"/><path d="M18.291,6.75a1,1,0,0,0-1.665.748v9.329a1,1,0,0,0,1.665.747l5.247-4.665a1,1,0,0,0,0-1.494Z"/></svg>