<svg xmlns="http://www.w3.org/2000/svg" viewBox="0 0 24 24"><title>paragraph-left-to-right</title><path d="M5.871,8.816h2.2a.245.245,0,0,1,.245.244v7.592a.98.98,0,1,0,1.959,0V2.2a.245.245,0,0,1,.245-.245h2.449a.245.245,0,0,1,.245.245V16.652a.98.98,0,1,0,1.959,0V2.2a.245.245,0,0,1,.245-.245h2.694a.98.98,0,0,0,0-1.959H5.871a4.409,4.409,0,0,0,0,8.817Zm0-6.858h2.2A.245.245,0,0,1,8.32,2.2V6.611a.245.245,0,0,1-.245.245h-2.2a2.449,2.449,0,0,1,0-4.9Z"/><path d="M22.87,19.246l-3.9-3.919a.49.49,0,0,0-.837.346v2.694a.245.245,0,0,1-.245.244H1.967a.98.98,0,0,0,0,1.96H17.885a.245.245,0,0,1,.245.245v2.693a.49.49,0,0,0,.837.346l3.9-3.919A.489.489,0,0,0,22.87,19.246Z"/></svg>