<svg xmlns="http://www.w3.org/2000/svg" viewBox="0 0 24 24"><title>paragraph-image-right</title><path d="M22.044,0H1.956A1.959,1.959,0,0,0,0,1.954V22.042A1.959,1.959,0,0,0,1.956,24H22.044A1.959,1.959,0,0,0,24,22.042V1.954A1.959,1.959,0,0,0,22.044,0ZM21,22,3,22.04a1,1,0,0,1-1-1L1.958,3a1,1,0,0,1,1-1L21,1.956a1,1,0,0,1,1,1V21A1,1,0,0,1,21,22Z"/><path d="M5,12.748H9.5a.75.75,0,0,0,0-1.5H5a.75.75,0,1,0,0,1.5Z"/><path d="M5,7.747H9.5a.75.75,0,0,0,0-1.5H5a.75.75,0,0,0,0,1.5Z"/><path d="M5,18.247H19a.75.75,0,0,0,0-1.5H5a.75.75,0,0,0,0,1.5Z"/><rect x="13" y="5.998" width="7" height="7" rx="0.5" ry="0.5"/></svg>