<svg xmlns="http://www.w3.org/2000/svg" viewBox="0 0 24 24"><title>paragraph-bullets</title><path d="M22.044,0H1.956A1.959,1.959,0,0,0,0,1.954V22.042A1.959,1.959,0,0,0,1.956,24H22.044A1.959,1.959,0,0,0,24,22.042V1.954A1.959,1.959,0,0,0,22.044,0ZM21,22,3,22.04a1,1,0,0,1-1-1L1.958,3a1,1,0,0,1,1-1L21,1.956a1,1,0,0,1,1,1V21A1,1,0,0,1,21,22Z"/><path d="M11,8.248h8.5a.75.75,0,0,0,0-1.5H11a.75.75,0,0,0,0,1.5Z"/><path d="M11,12.748h8.5a.75.75,0,0,0,0-1.5H11a.75.75,0,0,0,0,1.5Z"/><path d="M11,17.248h5.5a.75.75,0,1,0,0-1.5H11a.75.75,0,0,0,0,1.5Z"/><rect x="3.5" y="12.998" width="4.875" height="4.875" rx="0.875" ry="0.875"/><rect x="3.5" y="5.623" width="4.875" height="4.875" rx="0.875" ry="0.875"/></svg>