<svg xmlns="http://www.w3.org/2000/svg" viewBox="0 0 24 24"><title>paragraph-indent</title><path d="M2.2,8.348a1,1,0,0,0,1.4.2l3.465-2.6a1.5,1.5,0,0,0,0-2.4L3.6.948a1,1,0,0,0-1.2,1.6l2.666,2a.25.25,0,0,1,0,.4l-2.666,2A1,1,0,0,0,2.2,8.348Z"/><path d="M23,21.248H1a1,1,0,0,0,0,2H23a1,1,0,0,0,0-2Z"/><path d="M23,16.248H1a1,1,0,0,0,0,2H23a1,1,0,0,0,0-2Z"/><path d="M23,11.248H1a1,1,0,0,0,0,2H23a1,1,0,0,0,0-2Z"/><path d="M24,7.248a1,1,0,0,0-1-1H12a1,1,0,0,0,0,2H23A1,1,0,0,0,24,7.248Z"/><path d="M12,3.248H23a1,1,0,0,0,0-2H12a1,1,0,0,0,0,2Z"/></svg>