<?xml version="1.0" encoding="utf-8"?>
<!-- Generator: Adobe Illustrator 22.1.0, SVG Export Plug-In . SVG Version: 6.00 Build 0)  -->
<svg version="1.1" id="Layer_1" xmlns="http://www.w3.org/2000/svg" xmlns:xlink="http://www.w3.org/1999/xlink" x="0px" y="0px"
	 viewBox="0 0 24 24" style="enable-background:new 0 0 24 24;" xml:space="preserve">
<g>
	<title>focus-frame</title>
	<path d="M2.5,19.5C1.673,19.5,1,18.827,1,18V6c0-0.827,0.673-1.5,1.5-1.5h19C22.327,4.5,23,5.173,23,6v12
		c0,0.827-0.673,1.5-1.5,1.5H2.5z M2.5,5.5C2.224,5.5,2,5.724,2,6v12c0,0.276,0.224,0.5,0.5,0.5h19c0.276,0,0.5-0.224,0.5-0.5V6
		c0-0.276-0.224-0.5-0.5-0.5H2.5z"/>
	<path d="M4.5,12.5C4.224,12.5,4,12.276,4,12V8.5c0-0.551,0.449-1,1-1h3.484c0.276,0,0.5,0.224,0.5,0.5s-0.224,0.5-0.5,0.5H5V12
		C5,12.276,4.776,12.5,4.5,12.5z"/>
	<path d="M15.5,16.5c-0.276,0-0.5-0.224-0.5-0.5s0.224-0.5,0.5-0.5H19V12c0-0.276,0.224-0.5,0.5-0.5S20,11.724,20,12v3.5
		c0,0.552-0.448,1-1,1H15.5z"/>
</g>
</svg>
