<?xml version="1.0" encoding="utf-8"?>
<!-- Generator: Adobe Illustrator 22.1.0, SVG Export Plug-In . SVG Version: 6.00 Build 0)  -->
<svg version="1.1" id="Layer_1" xmlns="http://www.w3.org/2000/svg" xmlns:xlink="http://www.w3.org/1999/xlink" x="0px" y="0px"
	 viewBox="0 0 24 24" style="enable-background:new 0 0 24 24;" xml:space="preserve">
<g>
	<title>zoom-in</title>
	<path d="M23.5,23.999c-0.134,0-0.259-0.052-0.354-0.146l-9.004-9.004c-1.56,1.389-3.554,2.151-5.642,2.151
		c-4.687,0-8.5-3.813-8.5-8.5c0-4.687,3.813-8.5,8.5-8.5c4.687,0,8.5,3.813,8.5,8.5c0,2.088-0.762,4.082-2.151,5.642l9.004,9.004
		C23.948,23.24,24,23.365,24,23.499s-0.052,0.259-0.146,0.354S23.634,23.999,23.5,23.999z M8.5,0.999c-4.135,0-7.5,3.365-7.5,7.5
		s3.365,7.5,7.5,7.5s7.5-3.365,7.5-7.5S12.635,0.999,8.5,0.999z"/>
	<path d="M8.5,12.499c-0.276,0-0.5-0.224-0.5-0.5v-3H5c-0.276,0-0.5-0.224-0.5-0.5s0.224-0.5,0.5-0.5h3v-3
		c0-0.276,0.224-0.5,0.5-0.5S9,4.723,9,4.999v3h3c0.276,0,0.5,0.224,0.5,0.5s-0.224,0.5-0.5,0.5H9v3
		C9,12.275,8.776,12.499,8.5,12.499z"/>
</g>
</svg>
