<?xml version="1.0" encoding="utf-8"?>
<!-- Generator: Adobe Illustrator 22.1.0, SVG Export Plug-In . SVG Version: 6.00 Build 0)  -->
<svg version="1.1" id="Layer_1" xmlns="http://www.w3.org/2000/svg" xmlns:xlink="http://www.w3.org/1999/xlink" x="0px" y="0px"
	 viewBox="0 0 24 24" style="enable-background:new 0 0 24 24;" xml:space="preserve">
<g>
	<title>printer</title>
	<path d="M5,24c-0.155,0-0.299-0.07-0.394-0.193c-0.095-0.122-0.128-0.278-0.091-0.428L5.61,19H3.383
		c-0.755,0-1.395-0.565-1.488-1.314c0,0-0.892-7.136-0.893-7.142c-0.005-0.056,0.001-0.113,0.016-0.172
		c0.001-0.004,0.007-0.025,0.008-0.029c0,0,0,0,0,0c-0.001,0,0.004-0.015,0.009-0.029l1.749-4.371C3.013,5.371,3.56,5,4.177,5H7V0.5
		C7,0.224,7.224,0,7.5,0h7c0.134,0,0.259,0.052,0.354,0.146l2,2C16.948,2.241,17,2.366,17,2.5V5h2.823
		c0.617,0,1.164,0.371,1.392,0.943l1.749,4.371c0.005,0.012,0.01,0.028,0.013,0.042c0.002,0.006,0.003,0.013,0.005,0.017
		c0.015,0.056,0.021,0.113,0.016,0.168c0,0.007-0.001,0.014-0.002,0.02l-0.891,7.124C22.012,18.435,21.372,19,20.617,19H17.89
		l1.094,4.379c0.038,0.15,0.005,0.307-0.091,0.429C18.799,23.93,18.655,24,18.5,24H5z M17.859,23l-1.75-7H7.39l-1.75,7H17.859z
		 M20.617,18c0.251,0,0.465-0.188,0.496-0.438L21.934,11H2.066l0.821,6.562C2.918,17.812,3.132,18,3.383,18H5.86l0.655-2.621
		C6.571,15.156,6.77,15,7,15h9.5c0.23,0,0.429,0.156,0.485,0.379L17.64,18H20.617z M21.761,10l-1.475-3.685
		C20.211,6.124,20.028,6,19.823,6H17v1h0.5C17.776,7,18,7.224,18,7.5S17.776,8,17.5,8h-11C6.224,8,6,7.776,6,7.5S6.224,7,6.5,7H7V6
		H4.177C3.972,6,3.79,6.124,3.713,6.314L2.239,10H21.761z M16,7V2.707L14.293,1H8v6H16z"/>
	<circle cx="19.5" cy="13" r="0.75"/>
	<circle cx="19.5" cy="15.5" r="0.75"/>
	<path d="M11.5,18c-0.276,0-0.5-0.224-0.5-0.5s0.224-0.5,0.5-0.5H14c0.276,0,0.5,0.224,0.5,0.5S14.276,18,14,18H11.5z"/>
	<path d="M8.5,20C8.224,20,8,19.776,8,19.5S8.224,19,8.5,19h6c0.276,0,0.5,0.224,0.5,0.5S14.776,20,14.5,20H8.5z"/>
	<path d="M7.5,22C7.224,22,7,21.776,7,21.5S7.224,21,7.5,21H15c0.276,0,0.5,0.224,0.5,0.5S15.276,22,15,22H7.5z"/>
</g>
</svg>
