<svg xmlns="http://www.w3.org/2000/svg" viewBox="0 0 24 24"><title>audio-file-search</title><path d="M10.168,19.787a.241.241,0,0,1-.03-.3A5.515,5.515,0,1,0,8.45,21.171a.241.241,0,0,1,.3.03l2.506,2.506a1,1,0,0,0,1.414-1.414ZM5.5,20.033a3.5,3.5,0,1,1,3.5-3.5A3.5,3.5,0,0,1,5.5,20.033Z"/><path d="M14,13.588A2.246,2.246,0,0,0,16.233,11.5a.734.734,0,0,0,.017-.084V6.247c0-.141.178-.18.271-.122l1.08.68a.75.75,0,1,0,.8-1.269L16.583,4.395A1.251,1.251,0,0,0,14.75,5.5V8.9a.246.246,0,0,1-.294.244,2.029,2.029,0,0,0-1.47.221,2.314,2.314,0,0,0-1.229,1.8A2.253,2.253,0,0,0,14,13.588Z"/><path d="M23.415,3,21,.585A2,2,0,0,0,19.586,0H8A2,2,0,0,0,6,2V9.082a.5.5,0,0,0,.442.489,6.9,6.9,0,0,1,.915.187A.5.5,0,0,0,8,9.293V2.5A.5.5,0,0,1,8.5,2H19.379a.5.5,0,0,1,.353.146l2.122,2.122A.5.5,0,0,1,22,4.621V18a.5.5,0,0,1-.5.5H12.558a.493.493,0,0,0-.463.337,6.883,6.883,0,0,1-.36.841.267.267,0,0,0,.033.26c.051.051.34.341.483.483a.354.354,0,0,0,.251.078H22a2,2,0,0,0,2-2V4.414A2,2,0,0,0,23.415,3Z"/></svg>