<svg xmlns="http://www.w3.org/2000/svg" viewBox="0 0 24 24"><title>audio-document-mp3-1</title><path d="M11.5,12.125H10.375a.25.25,0,0,0-.25.25v2.25a.25.25,0,0,0,.25.25H11.5a1.375,1.375,0,0,0,0-2.75Z"/><path d="M22.5,0H1.5A1.5,1.5,0,0,0,0,1.5v21A1.5,1.5,0,0,0,1.5,24h21A1.5,1.5,0,0,0,24,22.5V1.5A1.5,1.5,0,0,0,22.5,0ZM8.125,19.5a.625.625,0,0,1-1.25,0V14.671c0-.195-.175-.195-.257-.009-.058.129-.559,1.117-.559,1.117a.625.625,0,0,1-1.118,0s-.5-.986-.568-1.135-.248-.137-.248.056v4.8a.625.625,0,0,1-1.25,0v-8a.625.625,0,0,1,1.184-.279l1.217,2.435a.251.251,0,0,0,.448,0l1.217-2.435a.625.625,0,0,1,1.184.279ZM11.4,16.125H10.375a.25.25,0,0,0-.25.25V19.5a.625.625,0,0,1-1.25,0v-8a.625.625,0,0,1,.625-.625h2a2.629,2.629,0,0,1,2.574,3.149A2.7,2.7,0,0,1,11.4,16.125Zm9.689,1.837a2.7,2.7,0,0,1-2.7,2.163H15.5a.625.625,0,0,1,0-1.25h3a1.375,1.375,0,0,0,0-2.75H17a.625.625,0,0,1,0-1.25h1.5a1.375,1.375,0,0,0,0-2.75h-3a.625.625,0,0,1,0-1.25h2.885a2.7,2.7,0,0,1,2.7,2.163,2.621,2.621,0,0,1-.7,2.288.244.244,0,0,0,0,.348A2.621,2.621,0,0,1,21.085,17.962Z"/></svg>