<svg xmlns="http://www.w3.org/2000/svg" viewBox="0 0 24 24"><title>audio-document-mid</title><path d="M16.455,9.819a.25.25,0,0,0-.33.24v3.882a.25.25,0,0,0,.33.24A2.237,2.237,0,0,0,17.875,12,2.237,2.237,0,0,0,16.455,9.819Z"/><path d="M22.5,4.5H1.5A1.5,1.5,0,0,0,0,6V18a1.5,1.5,0,0,0,1.5,1.5h21A1.5,1.5,0,0,0,24,18V6A1.5,1.5,0,0,0,22.5,4.5ZM10.125,15a.625.625,0,0,1-1.25,0V11.968c0-.1-.121-.078-.159,0l-.157.314a.65.65,0,0,1-1.118,0s-.1-.2-.148-.3-.168-.085-.168,0V15a.625.625,0,0,1-1.25,0V9a.625.625,0,0,1,1.184-.279s.718,1.428.779,1.558a.178.178,0,0,0,.324,0c.074-.146.779-1.557.779-1.557A.625.625,0,0,1,10.125,9Zm3.25-.625H13.5a.625.625,0,0,1,0,1.25h-2a.625.625,0,0,1,0-1.25h.125a.25.25,0,0,0,.25-.25V9.875a.25.25,0,0,0-.25-.25H11.5a.625.625,0,0,1,0-1.25h2a.625.625,0,0,1,0,1.25h-.125a.25.25,0,0,0-.25.25v4.25A.25.25,0,0,0,13.375,14.375Zm2.125,1.25A.625.625,0,0,1,14.875,15V9a.625.625,0,0,1,.625-.625,3.625,3.625,0,0,1,0,7.25Z"/></svg>