<svg xmlns="http://www.w3.org/2000/svg" viewBox="0 0 24 24"><title>audio-file-alternate</title><path d="M21.707,5.707,16.293.293A1,1,0,0,0,15.586,0H4A2,2,0,0,0,2,2V22a2,2,0,0,0,2,2H20a2,2,0,0,0,2-2V6.414A1,1,0,0,0,21.707,5.707ZM20,21.5a.5.5,0,0,1-.5.5H4.5a.5.5,0,0,1-.5-.5V2.5A.5.5,0,0,1,4.5,2H14.965a.5.5,0,0,1,.353.146l4.536,4.536A.5.5,0,0,1,20,7.035Z"/><path d="M14.645,6.733a.99.99,0,0,0-.122.031L10.374,8.1A2.2,2.2,0,0,0,8.65,10.246V13.8c0,.149-.131.15-.2.15a2.2,2.2,0,1,0,2.2,2.2v-5.9a.2.2,0,0,1,.163-.2,1.207,1.207,0,0,0,.122-.03L15.05,8.7h0a.2.2,0,0,1,.2.2v2.527c0,.165-.132.128-.2.128a2.2,2.2,0,1,0,2.2,2.2V8.9a2.2,2.2,0,0,0-2.605-2.163Z"/></svg>