<?xml version="1.0" encoding="utf-8"?>
<!-- Generator: Adobe Illustrator 22.1.0, SVG Export Plug-In . SVG Version: 6.00 Build 0)  -->
<svg version="1.1" id="Layer_1" xmlns="http://www.w3.org/2000/svg" xmlns:xlink="http://www.w3.org/1999/xlink" x="0px" y="0px"
	 viewBox="0 0 24 24" style="enable-background:new 0 0 24 24;" xml:space="preserve">
<title>keyboard-asterisk-1</title>
<g>
	<path d="M12.001,23.247c-0.414,0-0.75-0.336-0.75-0.75v-9.231l-9.389,5.164c-0.11,0.061-0.235,0.093-0.361,0.093
		c-0.274,0-0.526-0.149-0.658-0.389c-0.199-0.362-0.067-0.819,0.296-1.019l9.305-5.118L1.139,6.879
		C0.777,6.68,0.644,6.223,0.843,5.861c0.132-0.24,0.384-0.389,0.657-0.389c0.126,0,0.251,0.032,0.362,0.093l9.388,5.163V1.497
		c0-0.414,0.336-0.75,0.75-0.75s0.75,0.336,0.75,0.75v9.231l9.389-5.164c0.111-0.061,0.236-0.093,0.361-0.093
		c0.274,0,0.526,0.149,0.657,0.388c0.096,0.175,0.119,0.378,0.063,0.57c-0.056,0.192-0.183,0.352-0.359,0.448l-9.305,5.118
		l9.305,5.118c0.176,0.096,0.303,0.256,0.359,0.448c0.056,0.193,0.033,0.395-0.063,0.571c-0.132,0.24-0.384,0.388-0.657,0.388
		c-0.126,0-0.25-0.032-0.361-0.093l-9.389-5.164v9.231C12.751,22.911,12.414,23.247,12.001,23.247z"/>
</g>
</svg>
