<?xml version="1.0" encoding="utf-8"?>
<!-- Generator: Adobe Illustrator 22.1.0, SVG Export Plug-In . SVG Version: 6.00 Build 0)  -->
<svg version="1.1" id="Layer_1" xmlns="http://www.w3.org/2000/svg" xmlns:xlink="http://www.w3.org/1999/xlink" x="0px" y="0px"
	 viewBox="0 0 24 24" style="enable-background:new 0 0 24 24;" xml:space="preserve">
<title>keyboard-alt</title>
<g>
	<path d="M18,15.747c-0.414,0-0.75-0.336-0.75-0.75v-5.25H16.5c-0.414,0-0.75-0.336-0.75-0.75s0.336-0.75,0.75-0.75h3
		c0.414,0,0.75,0.336,0.75,0.75s-0.336,0.75-0.75,0.75h-0.75v5.25C18.75,15.411,18.414,15.747,18,15.747z"/>
	<path d="M13.5,15.75c-1.241,0-2.25-1.009-2.25-2.25V9c0-0.414,0.336-0.75,0.75-0.75S12.75,8.586,12.75,9v4.5
		c0,0.414,0.336,0.75,0.75,0.75H15c0.414,0,0.75,0.336,0.75,0.75s-0.336,0.75-0.75,0.75H13.5z"/>
	<path d="M9,15.75c-0.414,0-0.75-0.336-0.75-0.75v-2.253h-1.5V15c0,0.414-0.336,0.75-0.75,0.75S5.25,15.414,5.25,15v-4.5
		c0-1.241,1.009-2.25,2.25-2.25s2.25,1.009,2.25,2.25V15C9.75,15.414,9.414,15.75,9,15.75z M8.25,11.247V10.5
		c0-0.414-0.336-0.75-0.75-0.75s-0.75,0.336-0.75,0.75v0.747H8.25z"/>
	<path d="M4.5,23.247c-2.068,0-3.75-1.682-3.75-3.75v-15c0-2.068,1.682-3.75,3.75-3.75h15c2.068,0,3.75,1.682,3.75,3.75v15
		c0,2.068-1.682,3.75-3.75,3.75H4.5z M4.5,2.247c-1.241,0-2.25,1.009-2.25,2.25v15c0,1.241,1.009,2.25,2.25,2.25h15
		c1.241,0,2.25-1.009,2.25-2.25v-15c0-1.241-1.009-2.25-2.25-2.25H4.5z"/>
</g>
</svg>
