<?xml version="1.0" encoding="utf-8"?>
<!-- Generator: Adobe Illustrator 22.1.0, SVG Export Plug-In . SVG Version: 6.00 Build 0)  -->
<svg version="1.1" id="Layer_1" xmlns="http://www.w3.org/2000/svg" xmlns:xlink="http://www.w3.org/1999/xlink" x="0px" y="0px"
	 viewBox="0 0 24 24" style="enable-background:new 0 0 24 24;" xml:space="preserve">
<title>keyboard-arrow-left</title>
<g>
	<path d="M4.5,16.997c-0.2,0-0.389-0.078-0.53-0.22l-3.75-3.75c-0.07-0.07-0.125-0.153-0.163-0.245
		c-0.003-0.007-0.006-0.016-0.009-0.024C0.017,12.677,0,12.588,0,12.497c0-0.089,0.016-0.176,0.048-0.261
		c0.002-0.007,0.005-0.014,0.008-0.021c0.04-0.097,0.095-0.179,0.166-0.249L3.97,8.217c0.142-0.142,0.33-0.22,0.53-0.22
		s0.389,0.078,0.53,0.22c0.142,0.141,0.22,0.33,0.22,0.53s-0.078,0.389-0.22,0.53l-2.47,2.47H23.25c0.414,0,0.75,0.336,0.75,0.75
		s-0.336,0.75-0.75,0.75H2.561l2.47,2.47c0.142,0.142,0.22,0.33,0.22,0.53s-0.078,0.389-0.22,0.53
		C4.889,16.919,4.7,16.997,4.5,16.997z"/>
</g>
</svg>
