<?xml version="1.0" encoding="utf-8"?>
<!-- Generator: Adobe Illustrator 22.1.0, SVG Export Plug-In . SVG Version: 6.00 Build 0)  -->
<svg version="1.1" id="Layer_1" xmlns="http://www.w3.org/2000/svg" xmlns:xlink="http://www.w3.org/1999/xlink" x="0px" y="0px"
	 viewBox="0 0 24 24" style="enable-background:new 0 0 24 24;" xml:space="preserve">
<g>
	<title>loading-circle-2</title>
	<path d="M12,23.498c-6.341,0-11.5-5.159-11.5-11.5s5.159-11.5,11.5-11.5s11.5,5.159,11.5,11.5S18.341,23.498,12,23.498z M12,1.498
		c-5.79,0-10.5,4.71-10.5,10.5c0,5.79,4.71,10.5,10.5,10.5c5.79,0,10.5-4.71,10.5-10.5C22.5,6.208,17.79,1.498,12,1.498z"/>
	<path d="M19,15.2c-0.062,0-0.123-0.011-0.18-0.034c-0.124-0.048-0.222-0.142-0.277-0.264c-0.054-0.122-0.057-0.258-0.009-0.383
		c0.311-0.806,0.468-1.654,0.466-2.519c0-0.276,0.223-0.5,0.499-0.501c0.276,0,0.5,0.224,0.501,0.499
		c0.001,0.989-0.178,1.959-0.534,2.88C19.393,15.071,19.206,15.2,19,15.2z"/>
	<path d="M16.5,18.5c-0.157,0-0.306-0.075-0.4-0.2c-0.165-0.22-0.121-0.534,0.099-0.7c0.531-0.399,1.002-0.87,1.401-1.401
		C17.694,16.075,17.844,16,18,16c0.109,0,0.213,0.034,0.3,0.1c0.22,0.166,0.265,0.48,0.1,0.7c-0.455,0.606-0.993,1.145-1.6,1.6
		C16.713,18.465,16.609,18.5,16.5,18.5z"/>
	<path d="M12.003,19.999c-0.912,0-1.811-0.153-2.669-0.456c-0.26-0.092-0.397-0.378-0.306-0.638c0.07-0.2,0.26-0.334,0.472-0.334
		c0.056,0,0.111,0.009,0.164,0.028c0.753,0.265,1.54,0.4,2.338,0.4c0.865,0,1.712-0.156,2.518-0.465
		c0.058-0.022,0.118-0.033,0.179-0.033c0.206,0,0.393,0.129,0.467,0.321c0.048,0.125,0.044,0.261-0.01,0.383
		c-0.054,0.122-0.153,0.215-0.278,0.263C13.958,19.82,12.991,19.999,12.003,19.999z"/>
	<path d="M7.5,18.5c-0.108,0-0.212-0.034-0.299-0.099c-1.573-1.179-2.654-2.888-3.045-4.814c-0.425-2.094-0.008-4.228,1.173-6.009
		c1.102-1.662,2.761-2.838,4.688-3.328c0.125-0.981,0.976-1.75,1.983-1.75c1.103,0,2,0.897,2,2s-0.897,2-2,2
		c-0.82,0-1.55-0.503-1.852-1.25C8.512,5.694,7.103,6.711,6.162,8.13c-1.033,1.558-1.398,3.426-1.026,5.259
		C5.478,15.073,6.424,16.569,7.8,17.6c0.22,0.166,0.265,0.48,0.1,0.7C7.806,18.425,7.656,18.5,7.5,18.5z M12,3.498
		c-0.551,0-1,0.449-1,1s0.449,1,1,1c0.552,0,1-0.449,1-1S12.552,3.498,12,3.498z"/>
</g>
</svg>
