<?xml version="1.0" encoding="utf-8"?>
<!-- Generator: Adobe Illustrator 22.1.0, SVG Export Plug-In . SVG Version: 6.00 Build 0)  -->
<svg version="1.1" id="Layer_1" xmlns="http://www.w3.org/2000/svg" xmlns:xlink="http://www.w3.org/1999/xlink" x="0px" y="0px"
	 viewBox="0 0 24 24" style="enable-background:new 0 0 24 24;" xml:space="preserve">
<g>
	<title>loading-circle-1</title>
	<path d="M12.022,23.495c-4.535,0-8.66-2.668-10.511-6.796C-1.082,10.912,1.516,4.094,7.302,1.501
		c1.489-0.667,3.071-1.005,4.702-1.006c0.276,0,0.5,0.224,0.5,0.5s-0.224,0.5-0.5,0.5c-1.489,0-2.934,0.309-4.293,0.918
		C2.428,4.781,0.056,11.006,2.424,16.29c1.689,3.77,5.457,6.206,9.597,6.206c1.48,0,2.92-0.309,4.279-0.918
		c0.065-0.029,0.134-0.044,0.205-0.044c0.197,0,0.376,0.116,0.456,0.296c0.054,0.121,0.059,0.257,0.011,0.382
		c-0.048,0.125-0.141,0.224-0.263,0.279C15.221,23.156,13.644,23.495,12.022,23.495z"/>
	<path d="M20.059,5.002c-0.138,0-0.272-0.058-0.366-0.16c-0.208-0.224-0.42-0.433-0.628-0.621c-0.227-0.205-0.456-0.396-0.679-0.566
		c-0.219-0.167-0.262-0.481-0.095-0.701c0.094-0.124,0.242-0.197,0.398-0.197c0.11,0,0.215,0.035,0.303,0.102
		c0.244,0.186,0.495,0.395,0.744,0.62c0.231,0.209,0.463,0.438,0.69,0.683c0.188,0.202,0.176,0.519-0.026,0.707
		C20.307,4.955,20.186,5.002,20.059,5.002z"/>
	<path d="M22.47,9.108c-0.217,0-0.408-0.139-0.476-0.345c-0.091-0.281-0.195-0.561-0.308-0.831c-0.113-0.269-0.239-0.538-0.376-0.8
		c-0.128-0.244-0.033-0.547,0.211-0.675C21.594,6.42,21.674,6.4,21.754,6.4c0.187,0,0.357,0.103,0.443,0.269
		c0.149,0.285,0.288,0.58,0.412,0.877c0.124,0.297,0.237,0.602,0.336,0.908c0.085,0.262-0.059,0.545-0.321,0.63
		C22.574,9.1,22.522,9.108,22.47,9.108z"/>
	<path d="M22.918,13.845c-0.022,0-0.043-0.001-0.066-0.004c-0.128-0.016-0.247-0.083-0.329-0.188
		c-0.082-0.105-0.118-0.236-0.102-0.369c0.036-0.29,0.06-0.587,0.073-0.882c0.013-0.294,0.013-0.591,0-0.884
		c-0.012-0.276,0.202-0.51,0.477-0.522c0,0,0,0,0.001,0c0.288,0,0.509,0.209,0.521,0.477c0.014,0.322,0.014,0.649,0,0.972
		c-0.014,0.326-0.041,0.65-0.079,0.962C23.383,13.657,23.169,13.845,22.918,13.845z"/>
	<path d="M21.325,18.335c-0.094,0-0.185-0.026-0.264-0.076c-0.113-0.07-0.192-0.18-0.222-0.311c-0.031-0.13-0.008-0.264,0.062-0.378
		c0.155-0.25,0.303-0.51,0.438-0.771c0.135-0.261,0.26-0.531,0.372-0.802c0.078-0.188,0.26-0.309,0.463-0.309
		c0.065,0,0.129,0.012,0.189,0.037c0.256,0.105,0.377,0.398,0.273,0.653c-0.122,0.296-0.259,0.592-0.408,0.88
		c-0.15,0.29-0.311,0.573-0.478,0.841C21.658,18.247,21.499,18.335,21.325,18.335z"/>
	<path d="M16.233,2.338c-0.067,0-0.131-0.013-0.193-0.039c-0.292-0.122-0.595-0.232-0.899-0.327
		c-0.263-0.082-0.41-0.363-0.329-0.626c0.066-0.21,0.258-0.351,0.478-0.351c0.05,0,0.1,0.007,0.148,0.022
		c0.334,0.104,0.667,0.225,0.988,0.359c0.254,0.106,0.375,0.4,0.269,0.654C16.617,2.218,16.436,2.338,16.233,2.338z"/>
	<path d="M18.987,20.993c-0.151,0-0.292-0.067-0.387-0.183c-0.084-0.103-0.124-0.233-0.111-0.366
		c0.013-0.133,0.077-0.253,0.181-0.337c0.243-0.199,0.481-0.414,0.708-0.638c0.094-0.093,0.219-0.144,0.351-0.144
		c0.134,0,0.26,0.052,0.355,0.147c0.194,0.197,0.192,0.514-0.003,0.708c-0.251,0.248-0.513,0.484-0.778,0.7
		C19.214,20.953,19.101,20.993,18.987,20.993z"/>
	<path d="M12.004,20.495c-4.687,0-8.5-3.813-8.5-8.5c0-0.276,0.224-0.5,0.5-0.5s0.5,0.224,0.5,0.5c0,4.135,3.365,7.5,7.5,7.5
		s7.5-3.365,7.5-7.5s-3.365-7.5-7.5-7.5c-0.276,0-0.5-0.224-0.5-0.5s0.224-0.5,0.5-0.5c4.687,0,8.5,3.813,8.5,8.5
		C20.504,16.682,16.691,20.495,12.004,20.495z"/>
</g>
</svg>
