<?xml version="1.0" encoding="utf-8"?>
<!-- Generator: Adobe Illustrator 22.1.0, SVG Export Plug-In . SVG Version: 6.00 Build 0)  -->
<svg version="1.1" id="Layer_1" xmlns="http://www.w3.org/2000/svg" xmlns:xlink="http://www.w3.org/1999/xlink" x="0px" y="0px"
	 viewBox="0 0 24 24" style="enable-background:new 0 0 24 24;" xml:space="preserve">
<g>
	<title>loading-circle</title>
	<path d="M12,22.998c-0.276,0-0.5-0.224-0.5-0.5v-2c0-0.276,0.224-0.5,0.5-0.5c0.276,0,0.5,0.224,0.5,0.5v2
		C12.5,22.774,12.276,22.998,12,22.998z"/>
	<path d="M19.5,13.498c-0.276,0-0.5-0.224-0.5-0.5s0.224-0.5,0.5-0.5h2c0.276,0,0.5,0.224,0.5,0.5s-0.224,0.5-0.5,0.5H19.5z"/>
	<path d="M12,5.998c-0.276,0-0.5-0.224-0.5-0.5v-4c0-0.276,0.224-0.5,0.5-0.5c0.276,0,0.5,0.224,0.5,0.5v4
		C12.5,5.774,12.276,5.998,12,5.998z"/>
	<path d="M8.173,22.236c-0.066,0-0.13-0.013-0.191-0.038c-0.255-0.106-0.376-0.399-0.27-0.654l0.767-1.847
		c0.078-0.187,0.259-0.308,0.462-0.308c0.066,0,0.13,0.013,0.191,0.038c0.255,0.106,0.376,0.399,0.271,0.654l-0.767,1.847
		C8.557,22.115,8.376,22.236,8.173,22.236z"/>
	<path d="M15.826,22.236c-0.203,0-0.385-0.122-0.462-0.31l-0.762-1.847c-0.105-0.255,0.017-0.548,0.272-0.653
		c0.062-0.025,0.125-0.038,0.19-0.038c0.204,0,0.386,0.122,0.463,0.31l0.762,1.847c0.105,0.255-0.017,0.548-0.272,0.653
		C15.955,22.223,15.891,22.236,15.826,22.236z"/>
	<path d="M2.5,13.498c-0.276,0-0.5-0.224-0.5-0.5s0.224-0.5,0.5-0.5h2c0.276,0,0.5,0.224,0.5,0.5s-0.224,0.5-0.5,0.5H2.5z"/>
	<path d="M18.929,10.628c-0.203,0-0.384-0.121-0.462-0.308c-0.052-0.124-0.052-0.26,0-0.383c0.051-0.123,0.147-0.219,0.271-0.271
		L20.584,8.9c0.062-0.025,0.125-0.038,0.191-0.038c0.203,0,0.385,0.121,0.462,0.308c0.051,0.124,0.051,0.259,0,0.383
		c-0.051,0.123-0.147,0.219-0.271,0.271L19.12,10.59C19.059,10.615,18.995,10.628,18.929,10.628z"/>
	<path d="M3.223,17.134c-0.203,0-0.384-0.121-0.462-0.309c-0.105-0.254,0.016-0.547,0.27-0.653l1.847-0.766
		c0.062-0.025,0.126-0.038,0.192-0.038c0.203,0,0.384,0.121,0.462,0.309c0.105,0.254-0.016,0.547-0.27,0.653l-1.847,0.766
		C3.353,17.121,3.289,17.134,3.223,17.134z"/>
	<path d="M18.717,20.216c-0.134,0-0.259-0.052-0.354-0.146l-1.414-1.414c-0.195-0.195-0.195-0.512,0-0.707
		c0.094-0.094,0.22-0.146,0.354-0.146s0.259,0.052,0.354,0.146l1.414,1.414c0.195,0.195,0.195,0.512,0,0.707
		C18.976,20.164,18.851,20.216,18.717,20.216z"/>
	<path d="M17.303,8.194c-0.134,0-0.259-0.052-0.354-0.146c-0.195-0.195-0.195-0.512,0-0.707l1.414-1.414
		c0.094-0.094,0.22-0.146,0.354-0.146s0.259,0.052,0.354,0.146c0.195,0.195,0.195,0.512,0,0.707l-1.414,1.414
		C17.562,8.142,17.437,8.194,17.303,8.194z"/>
	<path d="M14.869,6.569c-0.066,0-0.13-0.013-0.191-0.038c-0.124-0.051-0.22-0.147-0.271-0.271c-0.051-0.123-0.051-0.259,0-0.383
		l0.766-1.848c0.077-0.187,0.259-0.309,0.462-0.309c0.066,0,0.13,0.013,0.191,0.038c0.124,0.051,0.22,0.147,0.271,0.271
		c0.051,0.123,0.051,0.259,0,0.383L15.331,6.26C15.253,6.448,15.072,6.569,14.869,6.569z"/>
	<path d="M9.13,6.569c-0.203,0-0.384-0.121-0.462-0.308L7.901,4.414c-0.051-0.123-0.051-0.259,0-0.383
		c0.051-0.123,0.147-0.22,0.271-0.271c0.061-0.025,0.125-0.038,0.191-0.038c0.203,0,0.384,0.121,0.462,0.308l0.767,1.847
		c0.051,0.123,0.051,0.259,0,0.383C9.541,6.384,9.445,6.48,9.322,6.531C9.261,6.556,9.196,6.569,9.13,6.569z"/>
	<path d="M6.696,8.194c-0.134,0-0.259-0.052-0.354-0.146L4.928,6.634c-0.195-0.195-0.195-0.512,0-0.707
		C5.023,5.832,5.148,5.78,5.282,5.78s0.259,0.052,0.354,0.146L7.05,7.341c0.195,0.195,0.195,0.512,0,0.707
		C6.955,8.142,6.83,8.194,6.696,8.194z"/>
	<path d="M5.282,20.216c-0.134,0-0.259-0.052-0.354-0.146c-0.195-0.195-0.195-0.512,0-0.707l1.414-1.414
		c0.094-0.094,0.22-0.146,0.354-0.146s0.259,0.052,0.354,0.146c0.195,0.195,0.195,0.512,0,0.707L5.635,20.07
		C5.541,20.164,5.416,20.216,5.282,20.216z"/>
	<path d="M20.776,17.134c-0.066,0-0.13-0.013-0.191-0.038l-1.847-0.766c-0.124-0.051-0.219-0.147-0.271-0.271
		c-0.051-0.124-0.051-0.26,0-0.383c0.078-0.188,0.26-0.308,0.462-0.308c0.066,0,0.13,0.013,0.191,0.038l1.847,0.766
		c0.124,0.051,0.219,0.147,0.271,0.271c0.051,0.124,0.051,0.26,0,0.383C21.16,17.013,20.979,17.134,20.776,17.134z"/>
	<path d="M5.07,10.628c-0.066,0-0.13-0.013-0.191-0.038L3.031,9.824c-0.255-0.106-0.376-0.399-0.27-0.653
		C2.839,8.983,3.02,8.862,3.223,8.862c0.066,0,0.13,0.013,0.192,0.038l1.847,0.766c0.255,0.106,0.376,0.399,0.27,0.653
		C5.454,10.507,5.273,10.628,5.07,10.628z"/>
</g>
</svg>
