<?xml version="1.0" encoding="utf-8"?>
<!-- Generator: Adobe Illustrator 22.1.0, SVG Export Plug-In . SVG Version: 6.00 Build 0)  -->
<svg version="1.1" id="Layer_1" xmlns="http://www.w3.org/2000/svg" xmlns:xlink="http://www.w3.org/1999/xlink" x="0px" y="0px"
	 viewBox="0 0 24 24" style="enable-background:new 0 0 24 24;" xml:space="preserve">
<title>programming-language-css</title>
<g>
	<path d="M2.365,22.5C1.064,22.496,0.004,21.436,0,20.137V3.857C0.004,2.561,1.06,1.504,2.355,1.5h19.28
		C22.936,1.504,23.996,2.564,24,3.863V20.25c0,1.241-1.009,2.25-2.25,2.25H2.365z M1.5,20.135C1.501,20.61,1.891,20.999,2.367,21
		H21.75c0.414,0,0.75-0.336,0.75-0.75V7.5h-21V20.135z M22.5,6V3.865C22.499,3.39,22.11,3.001,21.633,3H2.357
		C1.886,3.002,1.501,3.387,1.5,3.859V6H22.5z"/>
	<path d="M7.5,18.75c-2.068,0-3.75-1.682-3.75-3.75v-1.5c0-2.068,1.682-3.75,3.75-3.75c0.414,0,0.75,0.336,0.75,0.75
		s-0.336,0.75-0.75,0.75c-1.241,0-2.25,1.009-2.25,2.25V15c0,1.241,1.009,2.25,2.25,2.25c0.414,0,0.75,0.336,0.75,0.75
		S7.914,18.75,7.5,18.75z"/>
	<path d="M16.5,18.75c-0.414,0-0.75-0.336-0.75-0.75s0.336-0.75,0.75-0.75H18c0.414,0,0.75-0.336,0.75-0.75
		c0-0.715-0.434-1.075-1.2-1.65c-0.802-0.602-1.8-1.35-1.8-2.85c0-1.241,1.009-2.25,2.25-2.25h1.5c0.414,0,0.75,0.336,0.75,0.75
		s-0.336,0.75-0.75,0.75H18c-0.414,0-0.75,0.336-0.75,0.75c0,0.715,0.434,1.075,1.2,1.65c0.802,0.602,1.8,1.35,1.8,2.85
		c0,1.241-1.009,2.25-2.25,2.25H16.5z"/>
	<path d="M10.5,18.75c-0.414,0-0.75-0.336-0.75-0.75s0.336-0.75,0.75-0.75H12c0.414,0,0.75-0.336,0.75-0.75
		c0-0.715-0.434-1.075-1.2-1.65c-0.802-0.602-1.8-1.35-1.8-2.85c0-1.241,1.009-2.25,2.25-2.25h1.5c0.414,0,0.75,0.336,0.75,0.75
		s-0.336,0.75-0.75,0.75H12c-0.414,0-0.75,0.336-0.75,0.75c0,0.715,0.434,1.075,1.2,1.65c0.802,0.602,1.8,1.35,1.8,2.85
		c0,1.241-1.009,2.25-2.25,2.25H10.5z"/>
</g>
</svg>
