<svg id="Light" xmlns="http://www.w3.org/2000/svg" viewBox="0 0 24 24"><defs><style>.cls-1{fill:none;stroke:currentColor;stroke-linecap:round;stroke-linejoin:round;}</style></defs><title>multiple-actions-star</title><path class="cls-1" d="M19.089,13.858l1.282,2.769h2.5A.613.613,0,0,1,23.3,17.7l-2.166,2.135,1.2,2.761a.654.654,0,0,1-.931.819l-2.9-1.634-2.9,1.634a.654.654,0,0,1-.931-.819l1.2-2.761L13.7,17.7a.613.613,0,0,1,.429-1.07h2.495l1.285-2.769A.662.662,0,0,1,19.089,13.858Z"/><path class="cls-1" d="M.5,15.5a6,6,0,0,1,12,0Z"/><circle class="cls-1" cx="6.5" cy="4.25" r="3.75"/><circle class="cls-1" cx="16" cy="4.25" r="3.75"/><path class="cls-1" d="M19.47,10.605A6,6,0,0,0,13,10.3"/></svg>