<svg id="Light" xmlns="http://www.w3.org/2000/svg" viewBox="0 0 24 24"><defs><style>.cls-1{fill:none;stroke:currentColor;stroke-linecap:round;stroke-linejoin:round;}</style></defs><title>multiple-actions-image</title><rect class="cls-1" x="13.5" y="13.5" width="10" height="10" rx="1" ry="1"/><path class="cls-1" d="M23.5,21.5l-2.137-2.138a1,1,0,0,0-1.54.153L18.5,21.5l-1.157-1.157a1,1,0,0,0-1.527.133l-1.955,2.793"/><path class="cls-1" d="M17,16.25a.25.25,0,1,1-.25.25.25.25,0,0,1,.25-.25"/><path class="cls-1" d="M10.5,15.5H.5a6,6,0,0,1,10.472-4"/><circle class="cls-1" cx="6.5" cy="4.25" r="3.75"/><circle class="cls-1" cx="16" cy="4.25" r="3.75"/><path class="cls-1" d="M20.459,11.485a6,6,0,0,0-7.43-1.2"/></svg>