<svg id="Light" xmlns="http://www.w3.org/2000/svg" viewBox="0 0 24 24"><defs><style>.cls-1{fill:none;stroke:currentColor;stroke-linecap:round;stroke-linejoin:round;}</style></defs><title>multiple-actions-video</title><path class="cls-1" d="M23.5,18.167a.5.5,0,0,0-.64-.48l-1.36.4V17.5a1,1,0,0,0-1-1h-6a1,1,0,0,0-1,1v5a1,1,0,0,0,1,1h6a1,1,0,0,0,1-1v-.667l1.342.448a.5.5,0,0,0,.658-.475Z"/><path class="cls-1" d="M.5,15.5a6,6,0,0,1,12,0Z"/><circle class="cls-1" cx="6.5" cy="4.25" r="3.75"/><circle class="cls-1" cx="16" cy="4.25" r="3.75"/><path class="cls-1" d="M13,10.3a6,6,0,0,1,8.918,4.2"/></svg>