<svg id="Light" xmlns="http://www.w3.org/2000/svg" viewBox="0 0 24 24"><defs><style>.cls-1{fill:none;stroke:currentColor;stroke-linecap:round;stroke-linejoin:round;}</style></defs><title>multiple-actions-location</title><path class="cls-1" d="M23.5,17.5c0,2.053-2.7,4.78-3.662,5.69a.489.489,0,0,1-.676,0C18.2,22.28,15.5,19.553,15.5,17.5a4,4,0,0,1,8,0Z"/><path class="cls-1" d="M19.5,17.25a.25.25,0,1,1-.25.25.25.25,0,0,1,.25-.25"/><path class="cls-1" d="M.5,15.5a6,6,0,0,1,12,0Z"/><circle class="cls-1" cx="6.5" cy="4.25" r="3.75"/><circle class="cls-1" cx="16" cy="4.25" r="3.75"/><path class="cls-1" d="M19.991,11.02A6,6,0,0,0,13,10.3"/></svg>