<svg id="Light" xmlns="http://www.w3.org/2000/svg" viewBox="0 0 24 24"><defs><style>.cls-1{fill:none;stroke:currentColor;stroke-linecap:round;stroke-linejoin:round;}</style></defs><title>multiple-actions-player</title><rect class="cls-1" x="13.5" y="13.5" width="10" height="10" rx="1" ry="1"/><rect class="cls-1" x="13.5" y="13.5" width="10" height="10" rx="1" ry="1"/><path class="cls-1" d="M16.5,18.5V16.983a.359.359,0,0,1,.543-.307l3.283,1.517a.358.358,0,0,1,0,.614l-3.283,1.517a.359.359,0,0,1-.543-.307Z"/><path class="cls-1" d="M10.5,15.5H.5a6,6,0,0,1,10.472-4"/><circle class="cls-1" cx="6.5" cy="4.25" r="3.75"/><circle class="cls-1" cx="16" cy="4.25" r="3.75"/><path class="cls-1" d="M20.477,11.505a6,6,0,0,0-7.46-1.212"/></svg>