<svg id="Light" xmlns="http://www.w3.org/2000/svg" viewBox="0 0 24 24"><defs><style>.cls-1{fill:none;stroke:currentColor;stroke-linecap:round;stroke-linejoin:round;}</style></defs><title>multiple-actions-alarm</title><path class="cls-1" d="M22.719,19.086V17a3.5,3.5,0,0,0-3.688-3.495A3.633,3.633,0,0,0,15.719,17.2v1.888a3.412,3.412,0,0,1-.449,1.693.5.5,0,0,0,.447.721h7a.5.5,0,0,0,.448-.721A3.413,3.413,0,0,1,22.719,19.086Z"/><line class="cls-1" x1="18.719" y1="23.5" x2="19.719" y2="23.5"/><path class="cls-1" d="M.719,15.5a6,6,0,0,1,12,0Z"/><circle class="cls-1" cx="6.719" cy="4.25" r="3.75"/><circle class="cls-1" cx="16.219" cy="4.25" r="3.75"/><path class="cls-1" d="M20.675,11.481a6,6,0,0,0-7.418-1.2"/></svg>