<svg xmlns="http://www.w3.org/2000/svg" viewBox="0 0 24 24"><title>keyboard-gaming</title><path d="M21.5,13H17.811a.25.25,0,0,1-.177-.074l-.78-.78A.5.5,0,0,0,16.5,12h-9a.5.5,0,0,0-.354.146l-.78.78A.25.25,0,0,1,6.189,13H3.25a.25.25,0,0,1-.25-.25V12.5a2,2,0,0,1,2-2H18.5a4.5,4.5,0,1,0,0-9H12a.5.5,0,0,1-.5-.5,1,1,0,1,0-2,0A2.5,2.5,0,0,0,12,3.5h6.5a2.5,2.5,0,1,1,0,5H5a4,4,0,0,0-4,4v1a.013.013,0,0,1-.006.014A2.493,2.493,0,0,0,0,15.5v5A2.5,2.5,0,0,0,2.5,23H6.189a.249.249,0,0,1,.177.073l.78.78A.5.5,0,0,0,7.5,24h9a.5.5,0,0,0,.354-.147l.78-.78A.249.249,0,0,1,17.811,23H21.5A2.5,2.5,0,0,0,24,20.5v-5A2.5,2.5,0,0,0,21.5,13Zm-3.25,3h-.5a.5.5,0,1,1,0-1h.5a.5.5,0,0,1,0,1Zm.5,1.5a.5.5,0,0,1-.5.5h-.5a.5.5,0,0,1,0-1h.5A.5.5,0,0,1,18.75,17.5ZM15.25,16h-.5a.5.5,0,0,1,0-1h.5a.5.5,0,0,1,0,1Zm.5,1.5a.5.5,0,0,1-.5.5h-.5a.5.5,0,0,1,0-1h.5A.5.5,0,0,1,15.75,17.5ZM12.25,16h-.5a.5.5,0,0,1,0-1h.5a.5.5,0,0,1,0,1Zm.5,1.5a.5.5,0,0,1-.5.5h-.5a.5.5,0,0,1,0-1h.5A.5.5,0,0,1,12.75,17.5Zm-3-2a.5.5,0,0,1-.5.5h-.5a.5.5,0,0,1,0-1h.5A.5.5,0,0,1,9.75,15.5Zm-1,1.5h.5a.5.5,0,0,1,0,1h-.5a.5.5,0,0,1,0-1Zm7.75,3a.5.5,0,0,1,0,1h-9a.5.5,0,0,1,0-1ZM6.25,18h-.5a.5.5,0,0,1,0-1h.5a.5.5,0,0,1,0,1Zm0-2h-.5a.5.5,0,0,1,0-1h.5a.5.5,0,0,1,0,1Z"/></svg>