<svg xmlns="http://www.w3.org/2000/svg" viewBox="0 0 24 24"><title>keyboard-wireless-2</title><path d="M6.82,5.069a9.483,9.483,0,0,1,10.36,0,1,1,0,0,0,1.111-1.662,11.335,11.335,0,0,0-12.582,0A1,1,0,0,0,6.82,5.069Z"/><path d="M7.475,6.871A1,1,0,1,0,8.584,8.535a6.253,6.253,0,0,1,6.832,0,1,1,0,1,0,1.109-1.664A8.286,8.286,0,0,0,7.475,6.871Z"/><path d="M22,12.5H2a1,1,0,0,0-1,1v8a1,1,0,0,0,1,1H22a1,1,0,0,0,1-1v-8A1,1,0,0,0,22,12.5ZM16.5,15H17a.5.5,0,0,1,0,1h-.5a.5.5,0,0,1,0-1Zm0,2.5H17a.5.5,0,0,1,0,1h-.5a.5.5,0,0,1,0-1Zm-3-2.5H14a.5.5,0,0,1,0,1h-.5a.5.5,0,0,1,0-1Zm0,2.5H14a.5.5,0,1,1,0,1h-.5a.5.5,0,0,1,0-1Zm-3-2.5H11a.5.5,0,0,1,0,1h-.5a.5.5,0,0,1,0-1Zm0,2.5H11a.5.5,0,0,1,0,1h-.5a.5.5,0,0,1,0-1ZM7.5,15H8a.5.5,0,0,1,0,1H7.5a.5.5,0,0,1,0-1Zm0,2.5H8a.5.5,0,0,1,0,1H7.5a.5.5,0,0,1,0-1ZM5,18.5H4.5a.5.5,0,0,1,0-1H5a.5.5,0,0,1,0,1ZM5,16H4.5a.5.5,0,0,1,0-1H5a.5.5,0,0,1,0,1Zm12.5,5H6.5a.5.5,0,0,1,0-1h11a.5.5,0,0,1,0,1ZM20,18.5h-.5a.5.5,0,0,1,0-1H20a.5.5,0,0,1,0,1ZM20,16h-.5a.5.5,0,1,1,0-1H20a.5.5,0,0,1,0,1Z"/></svg>