<svg xmlns="http://www.w3.org/2000/svg" viewBox="0 0 24 24"><defs><style>.a{fill:none;stroke:currentColor;stroke-linecap:round;stroke-linejoin:round;}</style></defs><title>camera-holder</title><path class="a" d="M17.5,11a1,1,0,0,1-1,1H6.5V4a1,1,0,0,1,1-1h9a1,1,0,0,1,1,1Z"/><rect class="a" x="17.5" y="5" width="3" height="3"/><polyline class="a" points="2.6 6 6.5 6 6.5 9 2.6 9"/><path class="a" d="M23.5,8.127a1,1,0,0,1-1.553.833L20.5,8V5l1.444-.967a1,1,0,0,1,1.556.831Z"/><path class="a" d="M2.291,9.514A1,1,0,0,1,1.434,10H1a.5.5,0,0,1-.5-.5v-4A.5.5,0,0,1,1,5h.434a1,1,0,0,1,.857.486l.592.985a2,2,0,0,1,0,2.058Z"/><path class="a" d="M13.5,12v1A1.5,1.5,0,0,1,12,14.5,2.5,2.5,0,0,0,9.5,17v2.5a1.5,1.5,0,0,1-3,0V12"/><circle class="a" cx="10" cy="6.5" r="1.5"/><line class="a" x1="15.5" y1="10" x2="13.5" y2="10"/></svg>