<?xml version="1.0" encoding="utf-8"?>
<!-- Generator: Adobe Illustrator 22.1.0, SVG Export Plug-In . SVG Version: 6.00 Build 0)  -->
<svg version="1.1" id="Layer_1" xmlns="http://www.w3.org/2000/svg" xmlns:xlink="http://www.w3.org/1999/xlink" x="0px" y="0px"
	 viewBox="0 0 24 24" style="enable-background:new 0 0 24 24;" xml:space="preserve">
<title>align-portrait</title>
<g>
	<path d="M3.75,23.998c-0.414,0-0.75-0.336-0.75-0.75V2.559l-1.72,1.72c-0.142,0.142-0.33,0.22-0.53,0.22S0.361,4.42,0.22,4.278
		C0.078,4.137,0,3.948,0,3.748s0.078-0.389,0.22-0.53l2.999-2.999c0.07-0.07,0.152-0.125,0.245-0.163
		C3.472,0.052,3.481,0.048,3.49,0.045c0.085-0.032,0.172-0.047,0.26-0.047c0.089,0,0.177,0.016,0.261,0.048
		c0.007,0.002,0.014,0.005,0.021,0.007c0.097,0.04,0.179,0.095,0.249,0.166L7.28,3.218c0.142,0.141,0.22,0.33,0.22,0.53
		s-0.078,0.389-0.22,0.53c-0.141,0.142-0.33,0.22-0.53,0.22S6.361,4.42,6.22,4.278L4.5,2.559v20.689
		C4.5,23.662,4.164,23.998,3.75,23.998z"/>
	<path d="M11.25,22.498c-1.241,0-2.25-1.009-2.25-2.25v-16.5c0-1.241,1.009-2.25,2.25-2.25h10.5c1.241,0,2.25,1.009,2.25,2.25v16.5
		c0,1.241-1.009,2.25-2.25,2.25H11.25z M11.25,2.998c-0.414,0-0.75,0.336-0.75,0.75v16.5c0,0.414,0.336,0.75,0.75,0.75h10.5
		c0.414,0,0.75-0.336,0.75-0.75v-16.5c0-0.414-0.336-0.75-0.75-0.75H11.25z"/>
	<path d="M16.5,12.748c-1.861,0-3.375-1.514-3.375-3.375s1.514-3.375,3.375-3.375s3.375,1.514,3.375,3.375
		S18.361,12.748,16.5,12.748z M16.5,7.498c-1.034,0-1.875,0.841-1.875,1.875s0.841,1.875,1.875,1.875s1.875-0.841,1.875-1.875
		S17.534,7.498,16.5,7.498z"/>
	<path d="M12,17.998c-0.414,0-0.75-0.336-0.75-0.75c0-2.895,2.355-5.25,5.25-5.25s5.25,2.355,5.25,5.25
		c0,0.414-0.336,0.75-0.75,0.75H12z M20.174,16.498c-0.352-1.712-1.892-3-3.674-3s-3.323,1.288-3.674,3H20.174z"/>
</g>
</svg>
