<?xml version="1.0" encoding="utf-8"?>
<!-- Generator: Adobe Illustrator 22.1.0, SVG Export Plug-In . SVG Version: 6.00 Build 0)  -->
<svg version="1.1" id="Layer_1" xmlns="http://www.w3.org/2000/svg" xmlns:xlink="http://www.w3.org/1999/xlink" x="0px" y="0px"
	 viewBox="0 0 24 24" style="enable-background:new 0 0 24 24;" xml:space="preserve">
<title>indent-decrease</title>
<g>
	<path d="M0.75,3.498C0.336,3.498,0,3.162,0,2.748s0.336-0.75,0.75-0.75h22.5c0.414,0,0.75,0.336,0.75,0.75s-0.336,0.75-0.75,0.75
		H0.75z"/>
	<path d="M11.25,7.998c-0.414,0-0.75-0.336-0.75-0.75s0.336-0.75,0.75-0.75h12c0.414,0,0.75,0.336,0.75,0.75s-0.336,0.75-0.75,0.75
		H11.25z"/>
	<path d="M11.25,12.498c-0.414,0-0.75-0.336-0.75-0.75s0.336-0.75,0.75-0.75h12c0.414,0,0.75,0.336,0.75,0.75s-0.336,0.75-0.75,0.75
		H11.25z"/>
	<path d="M11.25,16.998c-0.414,0-0.75-0.336-0.75-0.75s0.336-0.75,0.75-0.75h12c0.414,0,0.75,0.336,0.75,0.75s-0.336,0.75-0.75,0.75
		H11.25z"/>
	<path d="M0.75,21.498c-0.414,0-0.75-0.336-0.75-0.75s0.336-0.75,0.75-0.75h22.5c0.414,0,0.75,0.336,0.75,0.75
		s-0.336,0.75-0.75,0.75H0.75z"/>
	<path d="M7.499,18.499c-0.4,0-0.776-0.156-1.059-0.438L1.5,13.117c-0.283-0.283-0.439-0.659-0.439-1.06
		c0-0.401,0.156-0.777,0.439-1.061c0,0,4.94-4.939,4.94-4.939c0.283-0.283,0.66-0.439,1.06-0.439c0.401,0,0.778,0.156,1.061,0.439
		C8.844,6.341,9,6.717,9,7.116V17c0,0.401-0.157,0.778-0.44,1.061C8.276,18.344,7.9,18.499,7.5,18.499H7.499z M2.561,12.057L7.5,17
		l0-9.883L2.561,12.057z"/>
</g>
</svg>
