<?xml version="1.0" encoding="utf-8"?>
<!-- Generator: Adobe Illustrator 22.1.0, SVG Export Plug-In . SVG Version: 6.00 Build 0)  -->
<svg version="1.1" id="Layer_1" xmlns="http://www.w3.org/2000/svg" xmlns:xlink="http://www.w3.org/1999/xlink" x="0px" y="0px"
	 viewBox="0 0 24 24" style="enable-background:new 0 0 24 24;" xml:space="preserve">
<title>insert-image-top</title>
<g>
	<path d="M3.75,8.998c-0.2,0-0.389-0.078-0.53-0.22C3.078,8.637,3,8.448,3,8.248s0.078-0.389,0.22-0.53l1.72-1.72H0.75
		C0.336,5.998,0,5.662,0,5.248s0.336-0.75,0.75-0.75h4.189l-1.72-1.72C3.078,2.637,3,2.448,3,2.248s0.078-0.389,0.22-0.53
		c0.141-0.142,0.33-0.22,0.53-0.22s0.389,0.078,0.53,0.22l3,3c0.07,0.07,0.125,0.152,0.163,0.245C7.447,4.97,7.45,4.979,7.453,4.988
		C7.484,5.074,7.5,5.16,7.5,5.248c0,0.089-0.016,0.176-0.048,0.261C7.45,5.516,7.447,5.523,7.445,5.53
		c-0.04,0.097-0.095,0.179-0.166,0.25L4.28,8.778C4.139,8.92,3.95,8.998,3.75,8.998z"/>
	<path d="M9.75,14.248c-0.414,0-0.75-0.336-0.75-0.75s0.336-0.75,0.75-0.75h9.75c0.414,0,0.75,0.336,0.75,0.75
		s-0.336,0.75-0.75,0.75H9.75z"/>
	<path d="M9.75,18.748c-0.414,0-0.75-0.336-0.75-0.75s0.336-0.75,0.75-0.75h13.5c0.414,0,0.75,0.336,0.75,0.75
		s-0.336,0.75-0.75,0.75H9.75z"/>
	<path d="M9.75,23.248c-0.414,0-0.75-0.336-0.75-0.75s0.336-0.75,0.75-0.75h9.75c0.414,0,0.75,0.336,0.75,0.75
		s-0.336,0.75-0.75,0.75H9.75z"/>
	<path d="M11.25,9.748C10.009,9.748,9,8.739,9,7.498v-4.5c0-1.241,1.009-2.25,2.25-2.25h10.5c1.241,0,2.25,1.009,2.25,2.25v4.5
		c0,1.241-1.009,2.25-2.25,2.25H11.25z M11.25,2.248c-0.414,0-0.75,0.336-0.75,0.75v4.5c0,0.414,0.336,0.75,0.75,0.75h10.5
		c0.414,0,0.75-0.336,0.75-0.75v-4.5c0-0.414-0.336-0.75-0.75-0.75H11.25z"/>
</g>
</svg>
