<?xml version="1.0" encoding="utf-8"?>
<!-- Generator: Adobe Illustrator 22.1.0, SVG Export Plug-In . SVG Version: 6.00 Build 0)  -->
<svg version="1.1" id="Layer_1" xmlns="http://www.w3.org/2000/svg" xmlns:xlink="http://www.w3.org/1999/xlink" x="0px" y="0px"
	 viewBox="0 0 24 24" style="enable-background:new 0 0 24 24;" xml:space="preserve">
<title>paragraph-two-column</title>
<g>
	<path d="M2.25,23.998c-1.241,0-2.25-1.009-2.25-2.25v-19.5c0-1.241,1.009-2.25,2.25-2.25h19.5c1.241,0,2.25,1.009,2.25,2.25v19.5
		c0,1.241-1.009,2.25-2.25,2.25H2.25z M2.25,1.498c-0.414,0-0.75,0.336-0.75,0.75v19.5c0,0.414,0.336,0.75,0.75,0.75h19.5
		c0.414,0,0.75-0.336,0.75-0.75v-19.5c0-0.414-0.336-0.75-0.75-0.75H2.25z"/>
	<path d="M14.25,5.998c-0.414,0-0.75-0.336-0.75-0.75s0.336-0.75,0.75-0.75h4.5c0.414,0,0.75,0.336,0.75,0.75s-0.336,0.75-0.75,0.75
		H14.25z"/>
	<path d="M14.25,10.498c-0.414,0-0.75-0.336-0.75-0.75s0.336-0.75,0.75-0.75h4.5c0.414,0,0.75,0.336,0.75,0.75
		s-0.336,0.75-0.75,0.75H14.25z"/>
	<path d="M14.25,19.498c-0.414,0-0.75-0.336-0.75-0.75s0.336-0.75,0.75-0.75h3c0.414,0,0.75,0.336,0.75,0.75s-0.336,0.75-0.75,0.75
		H14.25z"/>
	<path d="M6.75,5.998C6.336,5.998,6,5.662,6,5.248s0.336-0.75,0.75-0.75h3c0.414,0,0.75,0.336,0.75,0.75s-0.336,0.75-0.75,0.75H6.75
		z"/>
	<path d="M5.25,10.498c-0.414,0-0.75-0.336-0.75-0.75s0.336-0.75,0.75-0.75h4.5c0.414,0,0.75,0.336,0.75,0.75s-0.336,0.75-0.75,0.75
		H5.25z"/>
	<path d="M14.25,14.998c-0.414,0-0.75-0.336-0.75-0.75s0.336-0.75,0.75-0.75h4.5c0.414,0,0.75,0.336,0.75,0.75
		s-0.336,0.75-0.75,0.75H14.25z"/>
	<path d="M5.25,14.998c-0.414,0-0.75-0.336-0.75-0.75s0.336-0.75,0.75-0.75h4.5c0.414,0,0.75,0.336,0.75,0.75s-0.336,0.75-0.75,0.75
		H5.25z"/>
	<path d="M5.25,19.498c-0.414,0-0.75-0.336-0.75-0.75s0.336-0.75,0.75-0.75h4.5c0.414,0,0.75,0.336,0.75,0.75s-0.336,0.75-0.75,0.75
		H5.25z"/>
</g>
</svg>
