<?xml version="1.0" encoding="utf-8"?>
<!-- Generator: Adobe Illustrator 22.1.0, SVG Export Plug-In . SVG Version: 6.00 Build 0)  -->
<svg version="1.1" id="Layer_1" xmlns="http://www.w3.org/2000/svg" xmlns:xlink="http://www.w3.org/1999/xlink" x="0px" y="0px"
	 viewBox="0 0 24 24" style="enable-background:new 0 0 24 24;" xml:space="preserve">
<title>paragraph-left-align</title>
<g>
	<path d="M0.75,3.748C0.336,3.748,0,3.412,0,2.998s0.336-0.75,0.75-0.75h21c0.414,0,0.75,0.336,0.75,0.75s-0.336,0.75-0.75,0.75
		H0.75z"/>
	<path d="M0.75,8.248C0.336,8.248,0,7.912,0,7.498s0.336-0.75,0.75-0.75h18c0.414,0,0.75,0.336,0.75,0.75s-0.336,0.75-0.75,0.75
		H0.75z"/>
	<path d="M0.75,12.748c-0.414,0-0.75-0.336-0.75-0.75s0.336-0.75,0.75-0.75h22.5c0.414,0,0.75,0.336,0.75,0.75
		s-0.336,0.75-0.75,0.75H0.75z"/>
	<path d="M0.75,17.248c-0.414,0-0.75-0.336-0.75-0.75s0.336-0.75,0.75-0.75h18c0.414,0,0.75,0.336,0.75,0.75s-0.336,0.75-0.75,0.75
		H0.75z"/>
	<path d="M0.75,21.748c-0.414,0-0.75-0.336-0.75-0.75s0.336-0.75,0.75-0.75h21c0.414,0,0.75,0.336,0.75,0.75s-0.336,0.75-0.75,0.75
		H0.75z"/>
</g>
</svg>
