<?xml version="1.0" encoding="utf-8"?>
<!-- Generator: Adobe Illustrator 22.1.0, SVG Export Plug-In . SVG Version: 6.00 Build 0)  -->
<svg version="1.1" id="Layer_1" xmlns="http://www.w3.org/2000/svg" xmlns:xlink="http://www.w3.org/1999/xlink" x="0px" y="0px"
	 viewBox="0 0 24 24" style="enable-background:new 0 0 24 24;" xml:space="preserve">
<title>paragraph-center-align</title>
<g>
	<path d="M2.241,3.748c-0.414,0-0.75-0.336-0.75-0.75s0.336-0.75,0.75-0.75h19.5c0.414,0,0.75,0.336,0.75,0.75
		s-0.336,0.75-0.75,0.75H2.241z"/>
	<path d="M5.241,8.248c-0.414,0-0.75-0.336-0.75-0.75s0.336-0.75,0.75-0.75h13.5c0.414,0,0.75,0.336,0.75,0.75
		s-0.336,0.75-0.75,0.75H5.241z"/>
	<path d="M0.741,12.748c-0.414,0-0.75-0.336-0.75-0.75s0.336-0.75,0.75-0.75h22.5c0.414,0,0.75,0.336,0.75,0.75
		s-0.336,0.75-0.75,0.75H0.741z"/>
	<path d="M5.241,17.248c-0.414,0-0.75-0.336-0.75-0.75s0.336-0.75,0.75-0.75h13.5c0.414,0,0.75,0.336,0.75,0.75
		s-0.336,0.75-0.75,0.75H5.241z"/>
	<path d="M2.241,21.748c-0.414,0-0.75-0.336-0.75-0.75s0.336-0.75,0.75-0.75h19.5c0.414,0,0.75,0.336,0.75,0.75
		s-0.336,0.75-0.75,0.75H2.241z"/>
</g>
</svg>
