<svg xmlns="http://www.w3.org/2000/svg" viewBox="0 0 24 24"><title>picture-double</title><path d="M3.25,13.25a1,1,0,0,1-1-1v-6a1,1,0,0,1,1-1h11a1,1,0,0,1,.98.8.25.25,0,0,0,.245.2H17A.25.25,0,0,0,17.25,6V5.25a2,2,0,0,0-2-2h-13a2,2,0,0,0-2,2v8a2,2,0,0,0,2,2H4A.25.25,0,0,0,4.25,15V13.5A.25.25,0,0,0,4,13.25Z"/><path d="M21.25,7.75h-13a2.5,2.5,0,0,0-2.5,2.5v8a2.5,2.5,0,0,0,2.5,2.5h13a2.5,2.5,0,0,0,2.5-2.5v-8A2.5,2.5,0,0,0,21.25,7.75Zm-13,9.5v-6a1,1,0,0,1,1-1h11a1,1,0,0,1,1,1v6a1,1,0,0,1-1,1h-11A1,1,0,0,1,8.25,17.25Z"/></svg>