<svg xmlns="http://www.w3.org/2000/svg" viewBox="0 0 24 24"><title>picture-flower-1</title><path d="M24,2a2,2,0,0,0-2-2H2A2,2,0,0,0,0,2V22a2,2,0,0,0,2,2H22a2,2,0,0,0,2-2ZM20.5,22H3.5A1.5,1.5,0,0,1,2,20.5V18.25A.25.25,0,0,1,2.25,18h19.5a.25.25,0,0,1,.25.25V20.5A1.5,1.5,0,0,1,20.5,22ZM7.7,6.312a1.492,1.492,0,0,1-.1-1.495c.435-.75,1.619-.87,2.8-.33a.247.247,0,0,0,.229-.011.25.25,0,0,0,.124-.193c.123-1.3.821-2.262,1.687-2.262s1.564.965,1.688,2.262a.249.249,0,0,0,.353.2,3.356,3.356,0,0,1,1.459-.33,1.49,1.49,0,0,1,1.344.661,1.491,1.491,0,0,1-.1,1.5,3.436,3.436,0,0,1-1.017,1.1.25.25,0,0,0,0,.407,3.439,3.439,0,0,1,1.017,1.1,1.489,1.489,0,0,1,.1,1.494,1.49,1.49,0,0,1-1.344.661,3.384,3.384,0,0,1-1.459-.331.25.25,0,0,0-.353.2c-.124,1.3-.821,2.262-1.688,2.262s-1.564-.965-1.687-2.262a.25.25,0,0,0-.353-.2c-1.186.541-2.37.421-2.8-.33a1.49,1.49,0,0,1,.1-1.494,3.458,3.458,0,0,1,1.019-1.1.25.25,0,0,0,0-.407A3.455,3.455,0,0,1,7.7,6.312Zm-1.773,7.5a.35.35,0,0,1,.2-.225,3.791,3.791,0,0,1,4.786,1.647l0,.008a3.791,3.791,0,0,1-4.934-1.134A.349.349,0,0,1,5.925,13.81Z"/><circle cx="12.443" cy="7.613" r="1.5"/></svg>