<svg xmlns="http://www.w3.org/2000/svg" viewBox="0 0 24 24"><title>picture-flower</title><path d="M24,2a2,2,0,0,0-2-2H2A2,2,0,0,0,0,2V22a2,2,0,0,0,2,2H22a2,2,0,0,0,2-2ZM22,20.5A1.5,1.5,0,0,1,20.5,22H3.5A1.5,1.5,0,0,1,2,20.5V18.25A.25.25,0,0,1,2.25,18h19.5a.25.25,0,0,1,.25.25ZM5.705,8.155a3.622,3.622,0,0,1,2.634-.566c.118,0,.233.013.346.024a.249.249,0,0,0,.226-.4A3.272,3.272,0,0,1,8.7,6.9c-.652-1.14-1.515-2.651-.078-3.48a1.5,1.5,0,0,1,1.186-.159c.827.239,1.366,1.157,1.806,2,.055.105.106.209.152.312a.25.25,0,0,0,.457,0,3.4,3.4,0,0,1,.173-.34c.664-1.137,1.538-2.637,2.976-1.808a1.486,1.486,0,0,1,.73.947,3.617,3.617,0,0,1-.826,2.564c-.063.1-.128.2-.194.287a.25.25,0,0,0,.231.394,3.344,3.344,0,0,1,.364-.02H15.7c1.316.007,3.053.016,3.053,1.674a1.49,1.49,0,0,1-.455,1.105,2.949,2.949,0,0,1-2.068.58c-.191,0-.38-.006-.566-.013-.118,0-.233-.014-.346-.025a.25.25,0,0,0-.226.4,3.256,3.256,0,0,1,.208.32c.652,1.142,1.515,2.651.078,3.481a1.549,1.549,0,0,1-.778.218,1.468,1.468,0,0,1-.408-.058c-.827-.241-1.366-1.158-1.806-2-.055-.105-.106-.209-.152-.312a.25.25,0,0,0-.457,0,3.4,3.4,0,0,1-.173.34c-.531.908-1.2,2.048-2.174,2.048a1.6,1.6,0,0,1-.8-.24,1.482,1.482,0,0,1-.73-.947A3.617,3.617,0,0,1,8.721,11.6c.063-.1.128-.2.194-.287a.249.249,0,0,0,.013-.272.252.252,0,0,0-.243-.123,3.342,3.342,0,0,1-.364.021H8.3C6.988,10.928,5.25,10.92,5.25,9.262A1.493,1.493,0,0,1,5.705,8.155Z"/><path d="M9.4,9.262a2.6,2.6,0,1,0,2.6-2.6A2.6,2.6,0,0,0,9.4,9.262Zm2.6-1.1a1.1,1.1,0,1,1-1.1,1.1A1.1,1.1,0,0,1,12,8.165Z"/></svg>