<svg xmlns="http://www.w3.org/2000/svg" viewBox="0 0 24 24"><title>picture-stack-human</title><path d="M15.025,17.508a.453.453,0,0,0,.423-.616c-.052-.135-.112-.272-.18-.408-.389-.778-2.013-1.317-4.051-2.072-.552-.205-.461-1.643-.217-1.912a4.066,4.066,0,0,0,1.059-3.154A2.482,2.482,0,0,0,9.478,6.638,2.481,2.481,0,0,0,6.9,9.346,4.07,4.07,0,0,0,7.956,12.5c.245.269.335,1.707-.216,1.912-2.039.755-3.663,1.294-4.051,2.072a4.378,4.378,0,0,0-.18.408.453.453,0,0,0,.422.616Z"/><path d="M19,19.5a2,2,0,0,1-2,2H2a2,2,0,0,1-2-2V4.5a2,2,0,0,1,2-2H17a2,2,0,0,1,2,2ZM2.5,4.5A.5.5,0,0,0,2,5V19a.5.5,0,0,0,.5.5h14A.5.5,0,0,0,17,19V5a.5.5,0,0,0-.5-.5Z"/><path d="M20.75,19.25A.75.75,0,0,1,20,18.5V5.5a.75.75,0,0,1,1.5,0v13A.75.75,0,0,1,20.75,19.25Z"/><path d="M23.25,16.75A.75.75,0,0,1,22.5,16V8A.75.75,0,0,1,24,8v8A.75.75,0,0,1,23.25,16.75Z"/></svg>