<svg xmlns="http://www.w3.org/2000/svg" viewBox="0 0 24 24"><defs><style>.a{fill:none;stroke:currentColor;stroke-linecap:round;stroke-linejoin:round;}</style></defs><title>ranking-winner</title><path class="a" d="M16.5,14V4a1,1,0,0,0-1-1h-7a1,1,0,0,0-1,1v6h-6a1,1,0,0,0-1,1v9a1,1,0,0,0,1,1h21a1,1,0,0,0,1-1V15a1,1,0,0,0-1-1Z"/><path class="a" d="M11,6h.5a.5.5,0,0,1,.5.5V10"/><line class="a" x1="11" y1="10" x2="13" y2="10"/><line class="a" x1="7.5" y1="10" x2="7.5" y2="21"/><line class="a" x1="16.5" y1="14" x2="16.5" y2="21"/></svg>