<?xml version="1.0" encoding="utf-8"?>
<!-- Generator: Adobe Illustrator 22.1.0, SVG Export Plug-In . SVG Version: 6.00 Build 0)  -->
<svg version="1.1" id="Layer_1" xmlns="http://www.w3.org/2000/svg" xmlns:xlink="http://www.w3.org/1999/xlink" x="0px" y="0px"
	 viewBox="0 0 24 24" style="enable-background:new 0 0 24 24;" xml:space="preserve">
<title>camera-settings-rotate</title>
<g>
	<path d="M14.935,21.843c-0.375,0-0.695-0.281-0.743-0.654c-0.026-0.199,0.027-0.396,0.15-0.554c0.122-0.159,0.299-0.26,0.498-0.285
		c4.439-0.573,7.661-2.443,7.661-4.445c0-1.139-1.04-2.039-1.913-2.593c-0.349-0.222-0.453-0.686-0.231-1.035
		c0.139-0.218,0.375-0.348,0.634-0.348c0.142,0,0.281,0.04,0.401,0.117C23.098,13.128,24,14.463,24,15.904
		c0,2.856-3.604,5.24-8.969,5.933C15,21.841,14.967,21.843,14.935,21.843z"/>
	<path d="M10.043,23.991c-0.2,0-0.389-0.078-0.53-0.22c-0.142-0.142-0.22-0.33-0.22-0.531s0.078-0.389,0.22-0.53l0.742-0.742
		C4.263,21.554,0,19.065,0,15.9c0-0.026,0.001-0.052,0.004-0.078c0.175-1.641,1.16-3.058,2.635-3.793
		c0.105-0.052,0.22-0.078,0.334-0.078c0.286,0,0.544,0.159,0.672,0.415c0.185,0.371,0.033,0.822-0.337,1.006
		C2.307,13.87,1.632,14.829,1.5,15.938c0.044,2.162,3.811,4.097,8.602,4.51l-0.59-0.59c-0.292-0.292-0.292-0.768,0-1.061
		c0.142-0.142,0.33-0.22,0.53-0.22s0.389,0.078,0.53,0.22l1.926,1.926c0.16,0.143,0.251,0.345,0.251,0.558c0,0.001,0,0.003,0,0.004
		c0,0.2-0.078,0.389-0.22,0.53l-1.957,1.956C10.432,23.913,10.243,23.991,10.043,23.991z"/>
	<path d="M6.885,12.742c-1.26,0-2.307-0.993-2.384-2.26L4.5,4c0.051-1.345,1.126-2.432,2.448-2.49l1.278-0.001l1.357-1.293
		c0.14-0.134,0.324-0.207,0.517-0.207h3.775c0.193,0,0.377,0.073,0.517,0.207l1.357,1.293h1.27c1.347,0.058,2.43,1.14,2.48,2.462
		l0,6.465c-0.076,1.303-1.128,2.306-2.396,2.306c-0.041,0-0.081-0.001-0.122-0.003L6.981,12.74
		C6.96,12.741,6.922,12.742,6.885,12.742z M6.99,3.009C6.464,3.037,6.02,3.492,6,4.029l0,6.408c0.027,0.434,0.432,0.805,0.901,0.805
		l0.044-0.001l10.074-0.001l0.064,0.001c0.487,0,0.89-0.373,0.919-0.85L18,4c-0.02-0.517-0.475-0.968-1.014-0.992l-1.537,0.001
		c-0.193,0-0.377-0.073-0.517-0.207l-1.357-1.293H10.4L9.043,2.802c-0.14,0.134-0.324,0.207-0.517,0.207H6.99z"/>
	<path d="M12,9.741c-1.654,0-3-1.346-3-3s1.346-3,3-3c1.654,0,3,1.346,3,3S13.654,9.741,12,9.741z M12,5.241
		c-0.827,0-1.5,0.673-1.5,1.5s0.673,1.5,1.5,1.5s1.5-0.673,1.5-1.5S12.827,5.241,12,5.241z"/>
</g>
</svg>
