<?xml version="1.0" encoding="utf-8"?>
<!-- Generator: Adobe Illustrator 22.1.0, SVG Export Plug-In . SVG Version: 6.00 Build 0)  -->
<svg version="1.1" id="Layer_1" xmlns="http://www.w3.org/2000/svg" xmlns:xlink="http://www.w3.org/1999/xlink" x="0px" y="0px"
	 viewBox="0 0 24 24" style="enable-background:new 0 0 24 24;" xml:space="preserve">
<title>camera-settings-rotate-1</title>
<g>
	<path d="M5.235,14.625c-1.241,0-2.25-1.009-2.25-2.25v-7.5c0-1.241,1.009-2.25,2.25-2.25h2.689l1.28-1.28
		c0.142-0.142,0.33-0.22,0.53-0.22h4.5c0.198,0,0.391,0.08,0.53,0.22l1.28,1.28h2.689c1.241,0,2.25,1.009,2.25,2.25v7.5
		c0,1.241-1.009,2.25-2.25,2.25H5.235z M5.235,4.125c-0.414,0-0.75,0.336-0.75,0.75v7.5c0,0.414,0.336,0.75,0.75,0.75h13.5
		c0.414,0,0.75-0.336,0.75-0.75v-7.5c0-0.414-0.336-0.75-0.75-0.75h-3c-0.198,0-0.391-0.08-0.53-0.22l-1.28-1.28h-3.879l-1.28,1.28
		c-0.142,0.142-0.33,0.22-0.53,0.22H5.235z"/>
	<path d="M11.985,11.625c-1.654,0-3-1.346-3-3s1.346-3,3-3s3,1.346,3,3S13.64,11.625,11.985,11.625z M11.985,7.125
		c-0.827,0-1.5,0.673-1.5,1.5s0.673,1.5,1.5,1.5c0.827,0,1.5-0.673,1.5-1.5S12.813,7.125,11.985,7.125z"/>
	<path d="M13.486,20.583c-0.398,0-0.727-0.312-0.749-0.71c-0.01-0.2,0.057-0.392,0.191-0.541c0.134-0.149,0.318-0.237,0.518-0.248
		c5.583-0.297,9.039-2.158,9.039-3.711c-0.013-0.355-0.166-0.706-0.429-0.977c-0.289-0.296-0.282-0.772,0.014-1.061
		c0.14-0.137,0.326-0.213,0.523-0.213c0.204,0,0.395,0.081,0.537,0.227c0.523,0.537,0.827,1.246,0.854,1.996
		c0,2.761-4.3,4.908-10.458,5.236C13.52,20.582,13.493,20.583,13.486,20.583z"/>
	<path d="M6.735,22.875c-0.2,0-0.389-0.078-0.53-0.22c-0.142-0.142-0.22-0.33-0.22-0.53s0.078-0.389,0.22-0.53l1.33-1.33
		c-4.595-0.77-7.522-2.654-7.522-4.892c0.027-0.772,0.331-1.486,0.855-2.023c0.142-0.146,0.333-0.227,0.537-0.227
		c0.197,0,0.383,0.076,0.524,0.213c0.143,0.14,0.224,0.327,0.226,0.527c0.003,0.2-0.073,0.39-0.213,0.533
		c-0.263,0.27-0.416,0.626-0.429,1.004c0,1.319,2.564,2.716,6.071,3.348L6.815,17.21c-0.185-0.37-0.034-0.821,0.335-1.006
		c0.104-0.052,0.22-0.079,0.335-0.079c0.286,0,0.543,0.159,0.671,0.414l1.5,3c0.145,0.289,0.088,0.637-0.141,0.866l-2.25,2.25
		C7.124,22.797,6.936,22.875,6.735,22.875z"/>
</g>
</svg>
