<?xml version="1.0" encoding="utf-8"?>
<!-- Generator: Adobe Illustrator 22.1.0, SVG Export Plug-In . SVG Version: 6.00 Build 0)  -->
<svg version="1.1" id="Layer_1" xmlns="http://www.w3.org/2000/svg" xmlns:xlink="http://www.w3.org/1999/xlink" x="0px" y="0px"
	 viewBox="0 0 24 24" style="enable-background:new 0 0 24 24;" xml:space="preserve">
<title>spelling-check</title>
<g>
	<path d="M11.25,16.498c-0.414,0-0.75-0.336-0.75-0.75v-5.25H3v5.25c0,0.414-0.336,0.75-0.75,0.75s-0.75-0.336-0.75-0.75v-10.5
		c0-2.895,2.355-5.25,5.25-5.25S12,2.353,12,5.248v10.5C12,16.161,11.664,16.498,11.25,16.498z M10.5,8.998v-3.75
		c0-2.068-1.682-3.75-3.75-3.75S3,3.18,3,5.248v3.75H10.5z"/>
	<path d="M12.749,23.998c-0.401,0-0.777-0.156-1.06-0.44l-2.999-3c-0.142-0.142-0.22-0.33-0.22-0.53s0.078-0.389,0.22-0.53
		c0.142-0.142,0.33-0.22,0.53-0.22s0.389,0.078,0.53,0.22l3,3l8.303-8.304c0.112-0.28,0.387-0.472,0.697-0.472
		c0.414,0,0.75,0.336,0.75,0.75v0.086c0,0.198-0.08,0.391-0.22,0.53l-8.47,8.47C13.527,23.842,13.15,23.998,12.749,23.998
		L12.749,23.998z"/>
</g>
</svg>
