<?xml version="1.0" encoding="utf-8"?>
<!-- Generator: Adobe Illustrator 22.1.0, SVG Export Plug-In . SVG Version: 6.00 Build 0)  -->
<svg version="1.1" id="Layer_1" xmlns="http://www.w3.org/2000/svg" xmlns:xlink="http://www.w3.org/1999/xlink" x="0px" y="0px"
	 viewBox="0 0 24 24" style="enable-background:new 0 0 24 24;" xml:space="preserve">
<g>
	<title>hourglass-1</title>
	<path d="M12,11.502c-0.196,0-0.374-0.115-0.455-0.293l-2.5-5.5C8.96,5.522,8.997,5.305,9.138,5.157
		C9.232,5.058,9.364,5.002,9.5,5.002c0.064,0,0.126,0.012,0.185,0.036C10.428,5.334,11.207,5.484,12,5.484
		c0.793,0,1.572-0.151,2.315-0.447c0.059-0.024,0.122-0.036,0.185-0.036c0.136,0,0.268,0.056,0.362,0.155
		c0.142,0.149,0.178,0.365,0.093,0.552l-2.5,5.5C12.375,11.387,12.196,11.502,12,11.502z M12,9.793l1.584-3.485
		C13.064,6.425,12.533,6.485,12,6.485s-1.064-0.059-1.584-0.177L12,9.793z"/>
	<path d="M3,24.003c-0.276,0-0.5-0.224-0.5-0.5s0.224-0.5,0.5-0.5h1.172l4.177-9.601c0.386-0.887,0.386-1.904,0-2.791L4.173,1.003H3
		c-0.276,0-0.5-0.224-0.5-0.5s0.224-0.5,0.5-0.5h18c0.276,0,0.5,0.224,0.5,0.5s-0.224,0.5-0.5,0.5h-1.173l-4.176,9.604
		c-0.386,0.887-0.386,1.904,0,2.791l4.177,9.605H21c0.276,0,0.5,0.224,0.5,0.5s-0.224,0.5-0.5,0.5H3z M18.737,23.002l-4.003-9.206
		c-0.496-1.14-0.496-2.448,0-3.589l4.002-9.205H5.263l4.003,9.21c0.496,1.14,0.496,2.448,0,3.588l-4.003,9.201H18.737z"/>
	<path d="M8.941,21.003c-0.172,0-0.33-0.087-0.422-0.232c-0.092-0.145-0.104-0.325-0.03-0.481l3.059-6.5
		c0.082-0.174,0.26-0.287,0.452-0.287s0.37,0.113,0.452,0.287l3.059,6.5c0.073,0.156,0.062,0.335-0.03,0.48
		c-0.093,0.146-0.25,0.232-0.423,0.232H8.941z M14.271,20.003L12,15.177l-2.271,4.826H14.271z"/>
</g>
</svg>
