<?xml version="1.0" encoding="utf-8"?>
<!-- Generator: Adobe Illustrator 22.1.0, SVG Export Plug-In . SVG Version: 6.00 Build 0)  -->
<svg version="1.1" id="Layer_1" xmlns="http://www.w3.org/2000/svg" xmlns:xlink="http://www.w3.org/1999/xlink" x="0px" y="0px"
	 viewBox="0 0 24 24" style="enable-background:new 0 0 24 24;" xml:space="preserve">
<g>
	<title>time-stopwatch-half-1</title>
	<path d="M12.5,24C6.71,24,2,19.289,2,13.5c0-2.754,1.055-5.342,2.977-7.315L3.75,4.958L3.354,5.354
		C3.259,5.449,3.134,5.501,3,5.501S2.741,5.449,2.646,5.354c-0.195-0.195-0.195-0.512,0-0.707l1.5-1.5
		C4.241,3.053,4.366,3.001,4.5,3.001s0.259,0.052,0.354,0.146S5,3.367,5,3.501S4.948,3.76,4.854,3.854L4.457,4.251l1.251,1.25
		C7.473,4.001,9.69,3.125,12,3.015V1.001h-0.5c-0.276,0-0.5-0.224-0.5-0.5s0.224-0.5,0.5-0.5h2c0.276,0,0.5,0.224,0.5,0.5
		s-0.224,0.5-0.5,0.5H13V23.5C13,23.775,12.776,24,12.5,24z M12,4.013C7.014,4.275,3,8.478,3,13.5c0,5.021,4.014,9.224,9,9.487
		V4.013z"/>
	<path d="M17.5,14.001c-0.276,0-0.5-0.224-0.5-0.5s0.224-0.5,0.5-0.5h2c0.276,0,0.5,0.224,0.5,0.5s-0.224,0.5-0.5,0.5H17.5z"/>
	<path d="M16,10.501c-0.134,0-0.259-0.052-0.354-0.146s-0.146-0.22-0.146-0.354s0.052-0.259,0.146-0.354l1.5-1.5
		c0.094-0.094,0.22-0.146,0.354-0.146s0.259,0.052,0.354,0.146S18,8.367,18,8.501s-0.052,0.259-0.146,0.354l-1.5,1.5
		C16.259,10.449,16.134,10.501,16,10.501z"/>
	<path d="M17.5,19.001c-0.134,0-0.259-0.052-0.354-0.146l-1.5-1.5c-0.094-0.094-0.146-0.22-0.146-0.354s0.052-0.259,0.146-0.354
		s0.22-0.146,0.354-0.146s0.259,0.052,0.354,0.146l1.5,1.5C17.948,18.242,18,18.367,18,18.501s-0.052,0.259-0.146,0.354
		S17.634,19.001,17.5,19.001z"/>
	<path d="M5.5,14.001c-0.276,0-0.5-0.224-0.5-0.5s0.224-0.5,0.5-0.5h2c0.276,0,0.5,0.224,0.5,0.5s-0.224,0.5-0.5,0.5H5.5z"/>
	<path d="M7.5,19.001c-0.134,0-0.259-0.052-0.354-0.146S7,18.634,7,18.501s0.052-0.259,0.146-0.354l1.5-1.5
		c0.094-0.094,0.22-0.146,0.354-0.146s0.259,0.052,0.354,0.146S9.5,16.867,9.5,17.001s-0.052,0.259-0.146,0.354l-1.5,1.5
		C7.759,18.949,7.634,19.001,7.5,19.001z"/>
	<path d="M9,10.501c-0.134,0-0.259-0.052-0.354-0.146l-1.5-1.5C7.052,8.76,7,8.634,7,8.501s0.052-0.259,0.146-0.354
		S7.366,8.001,7.5,8.001s0.259,0.052,0.354,0.146l1.5,1.5C9.448,9.742,9.5,9.867,9.5,10.001s-0.052,0.259-0.146,0.354
		S9.134,10.501,9,10.501z"/>
</g>
</svg>
