<svg xmlns="http://www.w3.org/2000/svg" viewBox="0 0 24 24"><title>monitor-transfer</title><path d="M4.25,11.963a.75.75,0,0,0,0-1.5h-1a.75.75,0,0,0,0,1.5Z"/><path d="M11.25,5.755a.75.75,0,0,0,.75-.75V1.755A1.751,1.751,0,0,0,10.25.005H1.75A1.751,1.751,0,0,0,0,1.755V7.713a1.75,1.75,0,0,0,1.75,1.75h2.5A.75.75,0,0,0,5,8.713V7.505a.5.5,0,0,0-.5-.5H1.75a.25.25,0,0,1-.25-.25v-5a.251.251,0,0,1,.25-.25h8.5a.251.251,0,0,1,.25.25v3.25A.75.75,0,0,0,11.25,5.755Z"/><path d="M24,9.505a2,2,0,0,0-2-2H8.5a2,2,0,0,0-2,2v9.458a2,2,0,0,0,2,2H14a.25.25,0,0,1,.25.25v.531a.25.25,0,0,1-.25.25H11.25a1,1,0,0,0,0,2h8a1,1,0,0,0,0-2H16.5a.25.25,0,0,1-.25-.25v-.531a.25.25,0,0,1,.25-.25H22a2,2,0,0,0,2-2Zm-2.25,0a.25.25,0,0,1,.25.25v7.458a.25.25,0,0,1-.25.25h-13a.25.25,0,0,1-.25-.25V9.755a.25.25,0,0,1,.25-.25Z"/></svg>