<svg xmlns="http://www.w3.org/2000/svg" viewBox="0 0 24 24"><title>monitor-lock</title><path d="M17.25,20.708h-2.7a.251.251,0,0,1-.233-.158,2.481,2.481,0,0,0-4.632,0,.251.251,0,0,1-.233.158H6.75a.75.75,0,0,0,0,1.5h2.7a.251.251,0,0,1,.233.159,2.481,2.481,0,0,0,4.632,0,.251.251,0,0,1,.233-.159h2.7a.75.75,0,0,0,0-1.5ZM12,22.458a1,1,0,1,1,1-1A1,1,0,0,1,12,22.458Z"/><path d="M1.25,20.708H.75a.75.75,0,0,0,0,1.5h.5a.75.75,0,0,0,0-1.5Z"/><path d="M4.25,20.708h-.5a.75.75,0,0,0,0,1.5h.5a.75.75,0,0,0,0-1.5Z"/><path d="M20.25,20.708h-.5a.75.75,0,0,0,0,1.5h.5a.75.75,0,0,0,0-1.5Z"/><path d="M23.25,20.708h-.5a.75.75,0,0,0,0,1.5h.5a.75.75,0,0,0,0-1.5Z"/><path d="M22,2.041a2,2,0,0,0-2-2H17.5a1,1,0,0,0,0,2h2.25a.25.25,0,0,1,.25.25v8.5a.25.25,0,0,1-.25.25H4.25a.25.25,0,0,1-.25-.25v-8.5a.25.25,0,0,1,.25-.25H7a1,1,0,1,0,0-2H4a2,2,0,0,0-2,2v10.5a2,2,0,0,0,2,2h6.75a.25.25,0,0,1,.25.25v1a.25.25,0,0,1-.25.25h-5a1,1,0,0,0,0,2h12.5a1,1,0,0,0,0-2h-5a.25.25,0,0,1-.25-.25v-1a.25.25,0,0,1,.25-.25H20a2,2,0,0,0,2-2Z"/><path d="M8.5,8.041a1.5,1.5,0,0,0,1.5,1.5h4a1.5,1.5,0,0,0,1.5-1.5v-3a1.491,1.491,0,0,0-.643-1.223.249.249,0,0,1-.107-.205V3.041a2.75,2.75,0,0,0-5.5,0v.572a.249.249,0,0,1-.107.205A1.491,1.491,0,0,0,8.5,5.041ZM13,6.561a1,1,0,1,1-1-1A1,1,0,0,1,13,6.561Zm-1-4.77a1.252,1.252,0,0,1,1.25,1.25v.25a.25.25,0,0,1-.25.25H11a.25.25,0,0,1-.25-.25v-.25A1.252,1.252,0,0,1,12,1.791Z"/></svg>