<svg xmlns="http://www.w3.org/2000/svg" viewBox="0 0 24 24"><title>monitor-exchange-arrow</title><path d="M10.25,11.5h-8a2,2,0,0,0-2,2v5.693a1.49,1.49,0,0,0,.486,1.1A1.987,1.987,0,0,0,2.25,21H5a.25.25,0,0,1,.25.25v.5A.25.25,0,0,1,5,22H3.75a1,1,0,0,0,0,2h5a1,1,0,0,0,0-2H7.5a.25.25,0,0,1-.25-.25v-.5A.25.25,0,0,1,7.5,21h2.75a1.987,1.987,0,0,0,1.514-.709,1.49,1.49,0,0,0,.486-1.1V13.5A2,2,0,0,0,10.25,11.5Zm-.25,2a.25.25,0,0,1,.25.25v4A.25.25,0,0,1,10,18H2.5a.25.25,0,0,1-.25-.25v-4a.25.25,0,0,1,.25-.25Z"/><path d="M23.75,2a2,2,0,0,0-2-2h-8a2,2,0,0,0-2,2V7.693a1.49,1.49,0,0,0,.486,1.1A1.987,1.987,0,0,0,13.75,9.5H16.5a.25.25,0,0,1,.25.25v.5a.25.25,0,0,1-.25.25H15.25a1,1,0,0,0,0,2h5a1,1,0,0,0,0-2H19a.25.25,0,0,1-.25-.25v-.5A.25.25,0,0,1,19,9.5h2.75a1.987,1.987,0,0,0,1.514-.709,1.49,1.49,0,0,0,.486-1.1ZM21.5,2a.25.25,0,0,1,.25.25v4a.25.25,0,0,1-.25.25H14a.25.25,0,0,1-.25-.25v-4A.25.25,0,0,1,14,2Z"/><path d="M7.126,5.39a.5.5,0,0,0,.224.053.5.5,0,0,0,.3-.1l2-1.5a.5.5,0,0,0,0-.8l-2-1.5a.5.5,0,0,0-.8.4v.25a.25.25,0,0,1-.25.25H4.85a3,3,0,0,0-3,3v1.5a.25.25,0,0,1-.25.25H1.35a.5.5,0,0,0-.4.8l1.5,2a.5.5,0,0,0,.8,0l1.5-2a.5.5,0,0,0-.4-.8H4.1a.25.25,0,0,1-.25-.25v-1.5a1,1,0,0,1,1-1H6.6a.25.25,0,0,1,.25.25v.25A.5.5,0,0,0,7.126,5.39Z"/></svg>