<svg xmlns="http://www.w3.org/2000/svg" viewBox="0 0 24 24"><title>phone-monitor-exchange</title><path d="M23.8,11.221a1.753,1.753,0,0,0-1.75-1.75h-6a1.753,1.753,0,0,0-1.75,1.75v11a1.752,1.752,0,0,0,1.75,1.75h6a1.752,1.752,0,0,0,1.75-1.75Zm-2,9a.249.249,0,0,1-.25.25h-5a.249.249,0,0,1-.25-.25v-8.5a.251.251,0,0,1,.25-.25h5a.251.251,0,0,1,.25.25Z"/><path d="M12.2,2.028a2,2,0,0,0-2-2h-8a2,2,0,0,0-2,2V7.721a1.493,1.493,0,0,0,.485,1.1A1.99,1.99,0,0,0,2.2,9.528H4.95a.25.25,0,0,1,.25.25v.5a.25.25,0,0,1-.25.25H3.7a1,1,0,0,0,0,2h5a1,1,0,0,0,0-2H7.45a.25.25,0,0,1-.25-.25v-.5a.25.25,0,0,1,.25-.25H10.2a1.987,1.987,0,0,0,1.514-.709,1.49,1.49,0,0,0,.486-1.1V2.028Zm-2.25,0a.25.25,0,0,1,.25.25v4a.25.25,0,0,1-.25.25H2.45a.25.25,0,0,1-.25-.25v-4a.25.25,0,0,1,.25-.25Z"/><path d="M20.3,8.179a1,1,0,0,0,1-1V6.971a4,4,0,0,0-4-4H15.045a1,1,0,1,0,0,2H17.3a2,2,0,0,1,2,2v.208A1,1,0,0,0,20.3,8.179Z"/><path d="M12.05,19.971H8.3a2,2,0,0,1-2-2V15.177a1,1,0,0,0-2,0v2.794a4,4,0,0,0,4,4h3.75a1,1,0,0,0,0-2Z"/></svg>