<svg xmlns="http://www.w3.org/2000/svg" viewBox="0 0 24 24"><title>router-signal-double</title><path d="M24,17a3,3,0,0,0-3-3h-.25a.25.25,0,0,1-.25-.25V9.5a1.5,1.5,0,1,0-3,0v4.25a.25.25,0,0,1-.25.25H6.75a.25.25,0,0,1-.25-.25V9.5a1.5,1.5,0,0,0-3,0v4.25a.25.25,0,0,1-.25.25H3a3,3,0,0,0-3,3v2a3,3,0,0,0,2.769,2.991A.249.249,0,0,1,3,22.241v.26a1.5,1.5,0,0,0,3,0v-.25A.25.25,0,0,1,6.25,22h11.5a.25.25,0,0,1,.25.25v.25a1.5,1.5,0,1,0,3,0v-.26a.249.249,0,0,1,.231-.249A3,3,0,0,0,24,19ZM8.08,19.081a1.125,1.125,0,1,1,1.125-1.125A1.125,1.125,0,0,1,8.08,19.081Zm-3.874.081a1.181,1.181,0,0,1-.718-.262A1.185,1.185,0,0,1,3,17.956a1.206,1.206,0,0,1,2.411,0,1.176,1.176,0,0,1-.252.7A1.183,1.183,0,0,1,4.206,19.162ZM20,19H16a1,1,0,0,1,0-2h4a.99.99,0,0,1,.471,1.866A.97.97,0,0,1,20,19Z"/><path d="M3.087,4.46a1,1,0,0,0,.838,1.816,3,3,0,0,1,2.427-.039,1,1,0,0,0,.78-1.842A5.007,5.007,0,0,0,3.087,4.46Z"/><path d="M.148,2.7a1,1,0,0,0,1.375.329,6.993,6.993,0,0,1,7.083-.138,1,1,0,1,0,.979-1.744,9,9,0,0,0-9.109.177A1,1,0,0,0,.148,2.7Z"/><path d="M16.991,4.46a1,1,0,0,0,.838,1.816,3.005,3.005,0,0,1,2.428-.039,1,1,0,0,0,.779-1.842A5.007,5.007,0,0,0,16.991,4.46Z"/><path d="M23.872,2.51a1,1,0,0,0-.382-1.361,9,9,0,0,0-9.109.177,1,1,0,0,0,1.046,1.705,6.993,6.993,0,0,1,7.083-.138A1,1,0,0,0,23.872,2.51Z"/></svg>