<svg xmlns="http://www.w3.org/2000/svg" viewBox="0 0 24 24"><title>stamps-mail</title><circle cx="12" cy="12" r="2.75"/><path d="M22,6a1,1,0,0,1,1-1h.5a.5.5,0,0,0,.5-.5v-3A1.5,1.5,0,0,0,22.5,0h-3a.5.5,0,0,0-.5.5V1a1,1,0,0,1-2,0V.5a.5.5,0,0,0-.5-.5h-3a.5.5,0,0,0-.5.5V1a1,1,0,0,1-2,0V.5a.5.5,0,0,0-.5-.5h-3A.5.5,0,0,0,7,.5V1A1,1,0,0,1,5,1V.5A.5.5,0,0,0,4.5,0h-3A1.5,1.5,0,0,0,0,1.5v3A.5.5,0,0,0,.5,5H1A1,1,0,0,1,1,7H.5a.5.5,0,0,0-.5.5v3a.5.5,0,0,0,.5.5H1a1,1,0,0,1,0,2H.5a.5.5,0,0,0-.5.5v3a.5.5,0,0,0,.5.5H1a1,1,0,0,1,0,2H.5a.5.5,0,0,0-.5.5v3A1.5,1.5,0,0,0,1.5,24h3a.5.5,0,0,0,.5-.5V23a1,1,0,0,1,2,0v.5a.5.5,0,0,0,.5.5h3a.5.5,0,0,0,.5-.5V23a1,1,0,0,1,2,0v.5a.5.5,0,0,0,.5.5h3a.5.5,0,0,0,.5-.5V23a1,1,0,0,1,2,0v.5a.5.5,0,0,0,.5.5h3A1.5,1.5,0,0,0,24,22.5v-3a.5.5,0,0,0-.5-.5H23a1,1,0,0,1,0-2h.5a.5.5,0,0,0,.5-.5v-3a.5.5,0,0,0-.5-.5H23a1,1,0,0,1,0-2h.5a.5.5,0,0,0,.5-.5v-3a.5.5,0,0,0-.5-.5H23A1,1,0,0,1,22,6Zm-5.735,8.445a.25.25,0,0,0,.187.242,1.84,1.84,0,0,0,.45.063c1.248,0,1.922-1.59,1.922-3.086a5.725,5.725,0,0,0-1.57-3.937A7.333,7.333,0,0,0,11.806,5.75a6.25,6.25,0,1,0,.039,12.5,6.439,6.439,0,0,0,3.176-.835.749.749,0,1,1,.751,1.3,7.951,7.951,0,0,1-3.927,1.038,7.75,7.75,0,1,1-.039-15.5,8.655,8.655,0,0,1,6.529,2.438,7.236,7.236,0,0,1,1.989,4.976c0,2.657-1.439,4.586-3.422,4.586a1.962,1.962,0,0,1-1.863-.88.249.249,0,0,0-.376-.072A4.21,4.21,0,0,1,12,16.25a4.25,4.25,0,0,1,0-8.5,4.19,4.19,0,0,1,2.556.877.25.25,0,0,0,.359-.057.723.723,0,0,1,.6-.32.75.75,0,0,1,.75.75Z"/></svg>