<svg xmlns="http://www.w3.org/2000/svg" viewBox="0 0 24 24"><defs><style>.a{fill:none;stroke:currentColor;stroke-linecap:round;stroke-linejoin:round;}</style></defs><title>phone-selfie-man-1</title><path class="a" d="M4,23.5V5.5a2,2,0,0,1,2-2"/><path class="a" d="M18,3.5a2,2,0,0,1,2,2V23.5"/><line class="a" x1="20" y1="8.504" x2="4" y2="8.504"/><circle class="a" cx="12" cy="5.504" r="1"/><line class="a" x1="12" y1="2.504" x2="12" y2="0.504"/><line class="a" x1="10" y1="3.504" x2="8.5" y2="2.004"/><line class="a" x1="14" y1="3.504" x2="15.5" y2="2.004"/><line class="a" x1="15" y1="5.504" x2="17" y2="5.504"/><line class="a" x1="7" y1="5.504" x2="9" y2="5.504"/><path class="a" d="M18,22.729,13.957,21V19s.866-.35.866-2.5c.684,0,.943-2-.008-2a2.625,2.625,0,0,0,.44-2c-.49-2-5.33-2-5.821,0-2.066-.43-.422,1.712-.422,2-.981,0-.981,2,0,2,0,2.15.945,2.5.945,2.5v2L6,22.691"/></svg>