<svg xmlns="http://www.w3.org/2000/svg" viewBox="0 0 24 24"><defs><style>.a{fill:none;stroke:currentColor;stroke-linecap:round;stroke-linejoin:round;}</style></defs><title>phone-selfie-shoot</title><path class="a" d="M17,3.5a2,2,0,0,1,2,2v16a2,2,0,0,1-2,2H7a2,2,0,0,1-2-2V5.5a2,2,0,0,1,2-2"/><circle class="a" cx="12" cy="5.5" r="1"/><line class="a" x1="12" y1="2.5" x2="12" y2="0.5"/><line class="a" x1="10" y1="3.5" x2="8.5" y2="2"/><line class="a" x1="14" y1="3.5" x2="15.5" y2="2"/><line class="a" x1="15" y1="5.5" x2="17" y2="5.5"/><line class="a" x1="7" y1="5.5" x2="9" y2="5.5"/><line class="a" x1="9.5" y1="21.5" x2="14.5" y2="21.5"/></svg>