<?xml version="1.0" encoding="utf-8"?>
<!-- Generator: Adobe Illustrator 22.1.0, SVG Export Plug-In . SVG Version: 6.00 Build 0)  -->
<svg version="1.1" id="Layer_1" xmlns="http://www.w3.org/2000/svg" xmlns:xlink="http://www.w3.org/1999/xlink" x="0px" y="0px"
	 viewBox="0 0 24 24" style="enable-background:new 0 0 24 24;" xml:space="preserve">
<g>
	<title>computer-bug-1</title>
	<path d="M12,24c-3.462,0-6.622-1.869-8.304-4.894L1.883,19.99c-0.068,0.034-0.142,0.051-0.219,0.051
		c-0.193,0-0.365-0.108-0.45-0.281c-0.058-0.12-0.067-0.256-0.023-0.382c0.044-0.126,0.134-0.228,0.254-0.286l1.812-0.884
		c-0.435-1.02-0.683-2.098-0.741-3.21H0.5c-0.276,0-0.5-0.224-0.5-0.5s0.224-0.5,0.5-0.5h2.016c0.052-1,0.258-1.973,0.615-2.899
		l-1.84-0.819c-0.122-0.054-0.216-0.153-0.263-0.278C0.979,9.877,0.983,9.742,1.037,9.62c0.08-0.18,0.26-0.297,0.457-0.297
		c0.07,0,0.138,0.014,0.202,0.043l1.841,0.82c0.147-0.286,0.313-0.572,0.494-0.85C4.06,9.256,4.106,9.186,4.168,9.13
		C5.05,7.847,6.233,6.799,7.606,6.079c-0.553-0.598-0.982-1.31-1.254-2.085C5.318,3.919,4.5,3.053,4.5,2c0-1.103,0.897-2,2-2
		s2,0.897,2,2c0,0.786-0.453,1.484-1.151,1.81c0.268,0.692,0.689,1.318,1.23,1.829C9.674,5.215,10.824,5,12,5
		c1.177,0,2.326,0.215,3.42,0.639c0.541-0.51,0.962-1.136,1.23-1.829C15.953,3.484,15.5,2.786,15.5,2c0-1.103,0.897-2,2-2
		s2,0.897,2,2c0,1.053-0.818,1.919-1.852,1.995c-0.272,0.774-0.701,1.487-1.254,2.085c1.373,0.719,2.556,1.768,3.438,3.051
		c0.062,0.056,0.108,0.126,0.136,0.205c0.181,0.279,0.347,0.564,0.494,0.85l1.841-0.82c0.065-0.029,0.133-0.043,0.203-0.043
		c0.198,0,0.377,0.117,0.457,0.297c0.054,0.121,0.058,0.257,0.01,0.382c-0.048,0.125-0.142,0.223-0.264,0.278l-1.84,0.819
		c0.356,0.926,0.563,1.899,0.615,2.899H23.5c0.276,0,0.5,0.224,0.5,0.5s-0.224,0.5-0.5,0.5h-2.016
		c-0.057,1.113-0.306,2.19-0.74,3.21l1.812,0.884c0.248,0.121,0.351,0.421,0.23,0.668c-0.083,0.17-0.259,0.281-0.449,0.281
		c-0.077,0-0.15-0.017-0.219-0.051l-1.812-0.884C18.622,22.131,15.462,24,12,24z M12.5,22.982c4.435-0.261,8-4.013,8-8.482
		c0-1.597-0.448-3.15-1.296-4.502H12.5V22.982z M4.796,9.998C3.948,11.35,3.5,12.903,3.5,14.5c0,4.469,3.565,8.221,8,8.482V9.998
		H4.796z M18.474,8.998C16.852,7.086,14.521,6,12,6C9.479,6,7.147,7.086,5.526,8.998H18.474z M17.5,1c-0.552,0-1,0.449-1,1
		s0.448,1,1,1s1-0.449,1-1S18.052,1,17.5,1z M6.5,1c-0.551,0-1,0.449-1,1s0.449,1,1,1s1-0.449,1-1S7.051,1,6.5,1z"/>
</g>
</svg>
