<?xml version="1.0" encoding="utf-8"?>
<!-- Generator: Adobe Illustrator 22.1.0, SVG Export Plug-In . SVG Version: 6.00 Build 0)  -->
<svg version="1.1" id="Layer_1" xmlns="http://www.w3.org/2000/svg" xmlns:xlink="http://www.w3.org/1999/xlink" x="0px" y="0px"
	 viewBox="0 0 24 24" style="enable-background:new 0 0 24 24;" xml:space="preserve">
<g>
	<title>firewall</title>
	<path d="M1.5,24C0.673,24,0,23.327,0,22.5v-8C0,13.673,0.673,13,1.5,13h21c0.827,0,1.5,0.673,1.5,1.5v8c0,0.827-0.673,1.5-1.5,1.5
		H1.5z M22.5,23c0.276,0,0.5-0.224,0.5-0.5v-2h-6V23H22.5z M16,23v-2.5H5V23H16z M1,22.5C1,22.776,1.224,23,1.5,23H4v-2.5H1V22.5z
		 M23,19.5V17H11.5v2.5H23z M10.5,19.5V17H1v2.5H10.5z M23,16v-1.5c0-0.276-0.224-0.5-0.5-0.5H17v2H23z M16,16v-2H5v2H16z M4,16v-2
		H1.5C1.224,14,1,14.224,1,14.5V16H4z"/>
	<path d="M8.164,12.007c-0.022,0-0.044-0.001-0.066-0.004c-0.275-0.037-0.467-0.289-0.43-0.562c0.244-1.814,1.346-3.427,2.946-4.315
		c0.145-0.085,0.317-0.131,0.492-0.131c0.086,0,0.173,0.011,0.257,0.033c0.259,0.068,0.475,0.233,0.609,0.464
		c0.141,0.242,0.174,0.534,0.091,0.801c-0.23,0.77-0.175,1.623,0.149,2.364c0.205-0.047,0.386-0.182,0.485-0.369
		c0.196-0.32,0.519-0.504,0.872-0.504c0.183,0,0.363,0.051,0.519,0.147c0.052,0.032,0.102,0.069,0.149,0.111
		c0.381,0.359,0.675,0.8,0.855,1.282c0.096,0.258-0.035,0.547-0.293,0.643C14.743,11.989,14.684,12,14.624,12
		c-0.208,0-0.396-0.131-0.468-0.325c-0.127-0.339-0.333-0.649-0.596-0.897c-0.277,0.542-0.876,0.897-1.512,0.897c0,0,0,0,0,0
		c-0.067,0-0.134-0.004-0.201-0.012c-0.16-0.019-0.302-0.115-0.379-0.256c-0.567-1.035-0.698-2.276-0.36-3.406
		c-1.332,0.734-2.245,2.07-2.448,3.573C8.626,11.821,8.413,12.007,8.164,12.007z"/>
	<path d="M18.549,12c-0.056,0-0.112-0.009-0.165-0.028c-0.26-0.091-0.398-0.377-0.307-0.637c0.682-1.952,0.452-4.13-0.608-5.895
		l-1.578,1.978c-0.095,0.12-0.237,0.188-0.39,0.188c-0.029,0-0.059-0.002-0.088-0.008c-0.182-0.033-0.33-0.162-0.387-0.337
		c-0.663-2.022-0.668-4.162-0.015-6.188c-2.835,0.385-5.342,2.115-6.707,4.627C8.229,5.838,8.093,5.933,7.939,5.956
		C7.913,5.96,7.889,5.962,7.865,5.962c-0.132,0-0.256-0.05-0.349-0.142L6.187,4.526C4.6,6.398,4.111,9.012,4.922,11.335
		c0.091,0.26-0.047,0.546-0.307,0.637C4.561,11.991,4.506,12,4.45,12c-0.213,0-0.402-0.135-0.472-0.335
		C3.051,9.009,3.605,6.025,5.425,3.88C5.439,3.863,5.454,3.846,5.47,3.83c0.19-0.195,0.445-0.303,0.718-0.303
		c0.262,0,0.509,0.1,0.697,0.283l0.871,0.849c1.569-2.479,4.207-4.181,7.117-4.576c0.044-0.006,0.09-0.01,0.136-0.01
		c0.105,0,0.208,0.016,0.308,0.048c0.525,0.17,0.814,0.735,0.645,1.259c-0.486,1.51-0.566,3.104-0.237,4.642l1.252-1.569
		c0.095-0.12,0.238-0.188,0.391-0.188h0.261c0.163,0,0.317,0.08,0.41,0.214c1.456,2.093,1.823,4.778,0.983,7.185
		C18.951,11.865,18.761,12,18.549,12z"/>
</g>
</svg>
