<?xml version="1.0" encoding="utf-8"?>
<!-- Generator: Adobe Illustrator 22.1.0, SVG Export Plug-In . SVG Version: 6.00 Build 0)  -->
<svg version="1.1" id="Layer_1" xmlns="http://www.w3.org/2000/svg" xmlns:xlink="http://www.w3.org/1999/xlink" x="0px" y="0px"
	 viewBox="0 0 24 24" style="enable-background:new 0 0 24 24;" xml:space="preserve">
<g>
	<title>shield-unlock</title>
	<path d="M9,16.999c-0.827,0-1.5-0.673-1.5-1.5v-5c0-0.827,0.673-1.5,1.5-1.5h4.5v-1.5c0-0.827-0.673-1.5-1.5-1.5
		s-1.5,0.673-1.5,1.5c0,0.276-0.224,0.5-0.5,0.5s-0.5-0.224-0.5-0.5c0-1.379,1.121-2.5,2.5-2.5c1.378,0,2.5,1.121,2.5,2.5v1.5H15
		c0.827,0,1.5,0.673,1.5,1.5v5c0,0.827-0.673,1.5-1.5,1.5H9z M9,9.999c-0.276,0-0.5,0.224-0.5,0.5v5c0,0.276,0.224,0.5,0.5,0.5h6
		c0.276,0,0.5-0.224,0.5-0.5v-5c0-0.276-0.224-0.5-0.5-0.5H9z"/>
	<path d="M12,14.499c-0.827,0-1.5-0.673-1.5-1.5c0-0.827,0.673-1.5,1.5-1.5s1.5,0.673,1.5,1.5C13.5,13.826,12.827,14.499,12,14.499z
		 M12,12.5c-0.276,0-0.5,0.224-0.5,0.5s0.224,0.5,0.5,0.5c0.276,0,0.5-0.224,0.5-0.5S12.276,12.5,12,12.5z"/>
	<path d="M12,23.999c-0.457,0-0.905-0.08-1.332-0.237l-1.122-0.414C4.498,21.57,1.062,16.775,1,11.417V3.774
		c0.003-0.816,0.489-1.548,1.238-1.866c3.037-1.268,6.238-1.91,9.516-1.91l0.25,0.001l0.244-0.001c3.276,0,6.475,0.642,9.509,1.909
		C22.511,2.226,22.998,2.958,23,3.773v7.639c-0.062,5.362-3.5,10.159-8.553,11.94l-1.114,0.411
		C12.905,23.92,12.457,23.999,12,23.999z M11.776,0.998c-3.16,0-6.238,0.616-9.15,1.831C2.248,2.991,2.001,3.362,2,3.776v7.635
		c0.057,4.935,3.226,9.355,7.885,10.996l1.128,0.416C11.329,22.94,11.662,23,12,23s0.671-0.059,0.988-0.176l1.12-0.414
		c4.665-1.643,7.835-6.065,7.892-11.005V3.774c-0.001-0.412-0.249-0.784-0.629-0.946c-2.91-1.214-5.974-1.831-9.105-1.831
		c-0.087,0-0.173,0-0.26,0.001L11.776,0.998z"/>
</g>
</svg>
