<?xml version="1.0" encoding="utf-8"?>
<!-- Generator: Adobe Illustrator 22.1.0, SVG Export Plug-In . SVG Version: 6.00 Build 0)  -->
<svg version="1.1" id="Layer_1" xmlns="http://www.w3.org/2000/svg" xmlns:xlink="http://www.w3.org/1999/xlink" x="0px" y="0px"
	 viewBox="0 0 24 24" style="enable-background:new 0 0 24 24;" xml:space="preserve">
<g>
	<title>shield-search</title>
	<path d="M17,16.999c-0.134,0-0.259-0.052-0.354-0.146l-2.938-2.938c-0.9,0.738-2.02,1.142-3.179,1.142
		c-2.773,0-5.029-2.256-5.029-5.029s2.256-5.029,5.029-5.029c2.773,0,5.029,2.256,5.029,5.029c0,1.16-0.404,2.28-1.142,3.18
		l2.938,2.938c0.094,0.094,0.146,0.22,0.146,0.354s-0.052,0.259-0.146,0.354S17.134,16.999,17,16.999z M10.529,5.999
		c-2.222,0-4.029,1.807-4.029,4.029c0,2.222,1.807,4.029,4.029,4.029s4.029-1.807,4.029-4.029
		C14.558,7.807,12.751,5.999,10.529,5.999z"/>
	<path d="M12,23.999c-0.457,0-0.905-0.08-1.332-0.237l-1.122-0.414C4.498,21.57,1.062,16.775,1,11.417V3.774
		c0.003-0.816,0.489-1.548,1.238-1.866c3.037-1.268,6.238-1.91,9.516-1.91l0.25,0.001l0.244-0.001c3.276,0,6.475,0.642,9.509,1.909
		C22.511,2.226,22.998,2.958,23,3.773v7.639c-0.062,5.362-3.5,10.159-8.553,11.94l-1.114,0.411
		C12.905,23.92,12.457,23.999,12,23.999z M11.776,0.998c-3.16,0-6.238,0.616-9.15,1.831C2.248,2.991,2.001,3.362,2,3.776v7.635
		c0.057,4.935,3.226,9.355,7.885,10.996l1.128,0.416C11.329,22.94,11.662,23,12,23s0.671-0.059,0.988-0.176l1.12-0.414
		c4.665-1.643,7.835-6.065,7.892-11.005V3.774c-0.001-0.412-0.249-0.784-0.629-0.946c-2.91-1.214-5.974-1.831-9.105-1.831
		c-0.087,0-0.173,0-0.26,0.001L11.776,0.998z"/>
</g>
</svg>
