<?xml version="1.0" encoding="utf-8"?>
<!-- Generator: Adobe Illustrator 22.1.0, SVG Export Plug-In . SVG Version: 6.00 Build 0)  -->
<svg version="1.1" id="Layer_1" xmlns="http://www.w3.org/2000/svg" xmlns:xlink="http://www.w3.org/1999/xlink" x="0px" y="0px"
	 viewBox="0 0 24 24" style="enable-background:new 0 0 24 24;" xml:space="preserve">
<g>
	<title>shield-key</title>
	<path d="M12,23.999c-0.457,0-0.905-0.08-1.332-0.237l-1.122-0.414C4.498,21.57,1.062,16.775,1,11.417V3.774
		c0.003-0.816,0.489-1.548,1.238-1.866c3.037-1.268,6.238-1.91,9.516-1.91l0.25,0.001l0.244-0.001c3.276,0,6.475,0.642,9.509,1.909
		C22.511,2.226,22.998,2.958,23,3.773v7.639c-0.062,5.362-3.5,10.159-8.553,11.94l-1.114,0.411
		C12.905,23.92,12.457,23.999,12,23.999z M11.776,0.998c-3.16,0-6.238,0.616-9.15,1.831C2.248,2.991,2.001,3.362,2,3.776v7.635
		c0.057,4.935,3.226,9.355,7.885,10.996l1.128,0.416C11.329,22.94,11.662,23,12,23s0.671-0.059,0.988-0.176l1.12-0.414
		c4.665-1.643,7.835-6.065,7.892-11.005V3.774c-0.001-0.412-0.249-0.784-0.629-0.946c-2.91-1.214-5.974-1.831-9.105-1.831
		c-0.087,0-0.173,0-0.26,0.001L11.776,0.998z"/>
	<path d="M10.497,18.001c-0.637,0-1.259-0.135-1.848-0.401c-2.261-1.021-3.271-3.691-2.25-5.953
		c0.495-1.096,1.386-1.933,2.511-2.358c0.514-0.194,1.05-0.293,1.593-0.293c0.521,0,1.033,0.09,1.525,0.269l4.12-4.12
		c0.094-0.094,0.22-0.146,0.354-0.146h2c0.276,0,0.5,0.224,0.5,0.5v2c0,0.134-0.052,0.259-0.146,0.354l-4.12,4.12
		c0.394,1.094,0.348,2.315-0.132,3.377c-0.494,1.096-1.386,1.933-2.51,2.358c-0.514,0.194-1.05,0.293-1.593,0.293H10.497z
		 M10.502,9.997c-0.422,0-0.838,0.077-1.239,0.228c-0.875,0.33-1.568,0.982-1.953,1.834c-0.794,1.759-0.009,3.836,1.75,4.63
		c0.459,0.207,0.943,0.312,1.438,0.312c0.422,0,0.839-0.077,1.239-0.228c0.875-0.33,1.568-0.982,1.953-1.834
		c0.413-0.915,0.413-1.965,0-2.88c-0.085-0.188-0.044-0.413,0.102-0.559L18,7.292V5.999h-1.293L12.5,10.207
		c-0.094,0.094-0.22,0.146-0.354,0.146c-0.071,0-0.14-0.015-0.205-0.044C11.482,10.102,10.998,9.997,10.502,9.997z"/>
	<path d="M10.5,15.249c-0.965,0-1.75-0.785-1.75-1.75s0.785-1.75,1.75-1.75s1.75,0.785,1.75,1.75S11.465,15.249,10.5,15.249z
		 M10.5,12.749c-0.414,0-0.75,0.336-0.75,0.75s0.336,0.75,0.75,0.75s0.75-0.336,0.75-0.75S10.914,12.749,10.5,12.749z"/>
</g>
</svg>
