<?xml version="1.0" encoding="utf-8"?>
<!-- Generator: Adobe Illustrator 22.1.0, SVG Export Plug-In . SVG Version: 6.00 Build 0)  -->
<svg version="1.1" id="Layer_1" xmlns="http://www.w3.org/2000/svg" xmlns:xlink="http://www.w3.org/1999/xlink" x="0px" y="0px"
	 viewBox="0 0 24 24" style="enable-background:new 0 0 24 24;" xml:space="preserve">
<g>
	<title>smiley-sick</title>
	<path d="M16.51,11.004c-0.995,0-1.902-0.502-2.428-1.342c-0.071-0.113-0.093-0.247-0.063-0.377c0.03-0.13,0.109-0.241,0.222-0.312
		c0.079-0.05,0.171-0.076,0.265-0.076c0.174,0,0.333,0.088,0.424,0.235c0.342,0.546,0.932,0.872,1.58,0.872
		c0.347,0,0.687-0.098,0.982-0.282c0.238-0.149,0.442-0.353,0.59-0.59c0.092-0.147,0.25-0.235,0.424-0.235
		c0.094,0,0.186,0.026,0.265,0.076c0.113,0.071,0.192,0.181,0.222,0.312s0.007,0.264-0.063,0.377
		c-0.229,0.366-0.543,0.68-0.908,0.908C17.568,10.854,17.045,11.004,16.51,11.004z"/>
	<path d="M7.501,11.005c-0.533,0-1.055-0.151-1.511-0.436c-0.365-0.228-0.679-0.542-0.908-0.908
		C4.936,9.428,5.007,9.119,5.241,8.973c0.08-0.05,0.171-0.076,0.265-0.076c0.174,0,0.332,0.088,0.424,0.235
		c0.149,0.238,0.353,0.442,0.59,0.59c0.297,0.186,0.636,0.284,0.982,0.284c0.141,0,0.283-0.016,0.422-0.048
		c0.484-0.112,0.896-0.405,1.159-0.826c0.092-0.147,0.25-0.235,0.424-0.235c0.094,0,0.186,0.026,0.265,0.076
		c0.113,0.071,0.192,0.181,0.222,0.311c0.03,0.13,0.008,0.264-0.063,0.377c-0.405,0.647-1.038,1.099-1.782,1.27
		C7.935,10.981,7.717,11.005,7.501,11.005z"/>
	<path d="M9.506,20.004c-0.827,0-1.5-0.673-1.5-1.5c0-1.378,1.121-2.5,2.5-2.5c0.276,0,0.5,0.224,0.5,0.5s-0.224,0.5-0.5,0.5
		c-0.827,0-1.5,0.673-1.5,1.5c0,0.276,0.224,0.5,0.5,0.5h2c0.276,0,0.5,0.224,0.5,0.5s-0.224,0.5-0.5,0.5H9.506z"/>
	<path d="M20.165,23.61c-4.223,0-7.659-3.436-7.659-7.659c-0.001-0.012-0.001-0.046,0-0.08c0.012-0.387,0.175-0.747,0.459-1.012
		c0.27-0.254,0.621-0.394,0.987-0.394l0.057,0.001c0.386,0.012,0.746,0.176,1.012,0.459c0.266,0.284,0.406,0.654,0.393,1.042
		c0.001,0.312,0.121,0.621,0.34,0.862c0.247,0.272,0.6,0.428,0.969,0.428c0.326,0,0.638-0.12,0.879-0.338
		c0.701-0.639,1.61-0.991,2.559-0.991c2.122,0,3.845,1.723,3.845,3.841S22.283,23.61,20.165,23.61z M13.96,15.465
		c-0.243,0-0.447,0.198-0.455,0.44v0.028c0,3.685,2.988,6.677,6.659,6.677c1.567,0,2.841-1.274,2.841-2.841
		s-1.274-2.841-2.841-2.841c-0.703,0-1.373,0.26-1.89,0.731c-0.426,0.386-0.976,0.598-1.551,0.598c-0.651,0-1.274-0.276-1.71-0.756
		c-0.386-0.425-0.599-0.976-0.599-1.55c0.008-0.263-0.189-0.478-0.44-0.486l-0.015-0.25V15.465z"/>
	<path d="M11.911,24.006c-1.085,0-2.17-0.148-3.225-0.441C2.256,21.781-1.524,15.1,0.259,8.671C1.707,3.45,6.503-0.197,11.923-0.197
		c1.087,0,2.174,0.148,3.23,0.441c3.115,0.864,5.706,2.889,7.298,5.702c1.592,2.813,1.992,6.077,1.129,9.192
		c-0.06,0.216-0.258,0.366-0.482,0.366c-0.045,0-0.089-0.006-0.133-0.018c-0.267-0.074-0.423-0.35-0.349-0.616
		c0.792-2.857,0.425-5.852-1.035-8.432C20.12,3.858,17.742,2,14.885,1.208c-0.969-0.269-1.966-0.405-2.964-0.405
		c-4.971,0-9.37,3.345-10.699,8.135c-1.636,5.898,1.832,12.027,7.73,13.663c0.969,0.269,1.964,0.405,2.959,0.405
		c0.506,0,1.02-0.035,1.526-0.105c0.022-0.003,0.046-0.005,0.071-0.005c0.248,0,0.459,0.186,0.493,0.432
		c0.018,0.132-0.016,0.263-0.097,0.37c-0.081,0.106-0.198,0.175-0.331,0.193C13.022,23.967,12.462,24.006,11.911,24.006z"/>
</g>
</svg>
