<?xml version="1.0" encoding="utf-8"?>
<!-- Generator: Adobe Illustrator 22.1.0, SVG Export Plug-In . SVG Version: 6.00 Build 0)  -->
<svg version="1.1" id="Layer_1" xmlns="http://www.w3.org/2000/svg" xmlns:xlink="http://www.w3.org/1999/xlink" x="0px" y="0px"
	 viewBox="0 0 24 24" style="enable-background:new 0 0 24 24;" xml:space="preserve">
<g>
	<title>smiley-cheerful</title>
	<path d="M5.5,10.108c-0.094,0-0.186-0.026-0.265-0.076C5.001,9.886,4.93,9.577,5.076,9.343c0.229-0.365,0.542-0.679,0.908-0.908
		C6.44,8.15,6.963,7.999,7.495,7.999c0.216,0,0.434,0.025,0.647,0.074c0.744,0.172,1.377,0.623,1.782,1.27
		C9.995,9.456,10.017,9.59,9.987,9.72c-0.03,0.13-0.109,0.241-0.222,0.312c-0.079,0.05-0.171,0.076-0.265,0.076
		c-0.174,0-0.332-0.088-0.424-0.235C8.813,9.452,8.401,9.159,7.917,9.047C7.778,9.015,7.637,8.999,7.496,8.999
		c-0.346,0-0.685,0.098-0.982,0.284c-0.237,0.149-0.442,0.353-0.59,0.59C5.832,10.02,5.674,10.108,5.5,10.108z"/>
	<path d="M14.5,10.108c-0.094,0-0.186-0.026-0.265-0.076c-0.113-0.071-0.192-0.181-0.222-0.311c-0.03-0.13-0.008-0.264,0.063-0.377
		c0.405-0.648,1.038-1.099,1.782-1.27c0.213-0.049,0.431-0.074,0.647-0.074c0.533,0,1.055,0.151,1.511,0.436
		c0.365,0.228,0.679,0.542,0.908,0.908c0.071,0.113,0.094,0.247,0.063,0.377s-0.109,0.241-0.222,0.312
		c-0.08,0.05-0.171,0.076-0.265,0.076l0,0c-0.174,0-0.332-0.088-0.424-0.235c-0.148-0.237-0.353-0.441-0.59-0.59
		c-0.297-0.186-0.636-0.284-0.982-0.284c-0.141,0-0.282,0.016-0.421,0.048c-0.484,0.112-0.896,0.405-1.159,0.826
		C14.832,10.02,14.673,10.108,14.5,10.108z"/>
	<path d="M12,24C5.383,24,0,18.617,0,12C0,5.383,5.383,0,12,0c6.617,0,12,5.383,12,12C24,18.617,18.617,24,12,24z M12,1
		C5.935,1,1,5.935,1,12s4.935,11,11,11s11-4.935,11-11S18.065,1,12,1z"/>
	<path d="M13.5,19c-0.575,0-1.124-0.254-1.5-0.679C11.623,18.747,11.075,19,10.5,19c-1.103,0-2-0.897-2-2c0-0.276,0.224-0.5,0.5-0.5
		s0.5,0.224,0.5,0.5c0,0.552,0.449,1,1,1s1-0.448,1-1c0-0.276,0.224-0.5,0.5-0.5c0.276,0,0.5,0.224,0.5,0.5c0,0.552,0.448,1,1,1
		s1-0.448,1-1c0-0.276,0.224-0.5,0.5-0.5s0.5,0.224,0.5,0.5C15.5,18.103,14.603,19,13.5,19z"/>
</g>
</svg>
