<?xml version="1.0" encoding="utf-8"?>
<!-- Generator: Adobe Illustrator 22.1.0, SVG Export Plug-In . SVG Version: 6.00 Build 0)  -->
<svg version="1.1" id="Layer_1" xmlns="http://www.w3.org/2000/svg" xmlns:xlink="http://www.w3.org/1999/xlink" x="0px" y="0px"
	 viewBox="0 0 24 24" style="enable-background:new 0 0 24 24;" xml:space="preserve">
<g>
	<title>smiley-nauseous</title>
	<path d="M4.486,8.5C4.353,8.496,4.229,8.441,4.137,8.344S3.997,8.12,4,7.987C4.007,7.714,4.224,7.5,4.493,7.5
		C4.498,7.5,4.6,7.501,4.6,7.501c0.987,0,1.919-0.483,2.493-1.291C7.186,6.079,7.338,6,7.5,6C7.605,6,7.705,6.032,7.79,6.092
		c0.109,0.077,0.181,0.192,0.203,0.324c0.022,0.132-0.008,0.264-0.085,0.373C7.147,7.861,5.909,8.501,4.595,8.501
		C4.558,8.501,4.522,8.501,4.486,8.5z"/>
	<path d="M19.405,8.501c-1.314,0-2.552-0.64-3.313-1.712c-0.077-0.109-0.107-0.241-0.085-0.373c0.022-0.132,0.094-0.247,0.204-0.324
		C16.296,6.032,16.396,6,16.5,6c0.162,0,0.314,0.079,0.408,0.21c0.574,0.808,1.51,1.291,2.503,1.291c0,0,0.077-0.001,0.077-0.001
		c0.278,0,0.505,0.223,0.512,0.487c0.003,0.134-0.045,0.26-0.137,0.357s-0.216,0.152-0.35,0.156
		C19.478,8.501,19.441,8.501,19.405,8.501z"/>
	<circle cx="6.5" cy="10" r="0.75"/>
	<circle cx="17.5" cy="10" r="0.75"/>
	<path d="M12,24C5.383,24,0,18.617,0,12C0,5.383,5.383,0,12,0c6.617,0,12,5.383,12,12C24,18.617,18.617,24,12,24z M12,1
		C5.935,1,1,5.935,1,12s4.935,11,11,11s11-4.935,11-11S18.065,1,12,1z"/>
	<path d="M14.5,18c-0.276,0-0.5-0.224-0.5-0.5c0-0.682,0.141-1.365,0.412-1.992C13.653,15.175,12.824,15,12,15
		c-0.824,0-1.653,0.175-2.412,0.508c0.271,0.627,0.412,1.31,0.412,1.992c0,0.275-0.224,0.5-0.5,0.5
		c-0.134,0-0.259-0.052-0.354-0.147C9.052,17.759,9,17.633,9,17.5c0-0.685-0.176-1.362-0.511-1.959
		c-0.005-0.007-0.01-0.015-0.014-0.022c-0.003-0.006-0.007-0.013-0.01-0.019c-0.383-0.665-0.945-1.202-1.627-1.555
		c-0.118-0.061-0.206-0.165-0.247-0.292c-0.041-0.127-0.029-0.263,0.032-0.382C6.71,13.104,6.88,13,7.068,13
		c0.08,0,0.159,0.02,0.23,0.056c0.719,0.372,1.338,0.914,1.801,1.576C10.008,14.218,11.006,14,12,14
		c0.994,0,1.992,0.218,2.901,0.632c0.463-0.661,1.082-1.204,1.801-1.576c0.071-0.037,0.15-0.056,0.23-0.056
		c0.187,0,0.357,0.104,0.444,0.27c0.062,0.119,0.073,0.254,0.033,0.382c-0.041,0.127-0.128,0.231-0.247,0.293
		c-0.682,0.353-1.244,0.889-1.627,1.553c-0.002,0.004-0.003,0.008-0.005,0.011c-0.005,0.01-0.012,0.021-0.019,0.031
		C15.175,16.14,15,16.816,15,17.5C15,17.776,14.776,18,14.5,18z"/>
</g>
</svg>
