<?xml version="1.0" encoding="utf-8"?>
<!-- Generator: Adobe Illustrator 22.1.0, SVG Export Plug-In . SVG Version: 6.00 Build 0)  -->
<svg version="1.1" id="Layer_1" xmlns="http://www.w3.org/2000/svg" xmlns:xlink="http://www.w3.org/1999/xlink" x="0px" y="0px"
	 viewBox="0 0 24 24" style="enable-background:new 0 0 24 24;" xml:space="preserve">
<g>
	<title>smiley-angel</title>
	<path d="M9.5,10.164c-0.174,0-0.332-0.088-0.424-0.235C8.734,9.383,8.144,9.057,7.496,9.057c-0.347,0-0.687,0.098-0.982,0.282
		c-0.237,0.149-0.442,0.353-0.59,0.59c-0.092,0.147-0.25,0.235-0.424,0.235c-0.094,0-0.186-0.026-0.265-0.076
		C5.001,9.941,4.93,9.632,5.076,9.399C5.305,9.033,5.619,8.72,5.984,8.491c0.454-0.284,0.977-0.434,1.512-0.434
		c0.995,0,1.902,0.502,2.428,1.342c0.071,0.113,0.093,0.247,0.063,0.377c-0.03,0.13-0.109,0.241-0.222,0.312
		C9.686,10.138,9.594,10.164,9.5,10.164z"/>
	<path d="M14.5,10.164c-0.094,0-0.186-0.026-0.265-0.077c-0.113-0.071-0.192-0.181-0.222-0.311s-0.007-0.264,0.063-0.377
		c0.526-0.84,1.433-1.342,2.428-1.342c0.535,0,1.057,0.15,1.512,0.435c0.365,0.228,0.679,0.542,0.908,0.908
		c0.071,0.113,0.094,0.247,0.063,0.377s-0.109,0.241-0.222,0.312c-0.08,0.05-0.171,0.076-0.265,0.076
		c-0.174,0-0.332-0.088-0.424-0.235c-0.149-0.238-0.353-0.442-0.59-0.59c-0.295-0.185-0.635-0.282-0.982-0.282
		c-0.647,0-1.238,0.326-1.58,0.873C14.832,10.076,14.673,10.164,14.5,10.164z"/>
	<path d="M12,20.06c-0.913,0-1.81-0.178-2.665-0.531c-1.729-0.712-3.077-2.055-3.796-3.781c-0.051-0.123-0.052-0.259-0.001-0.383
		c0.051-0.124,0.147-0.22,0.27-0.271C5.869,15.069,5.934,15.056,6,15.056c0.203,0,0.384,0.121,0.462,0.308
		c0.616,1.479,1.772,2.63,3.254,3.24c0.734,0.302,1.502,0.455,2.284,0.455c0.791,0,1.567-0.156,2.308-0.465
		c1.471-0.613,2.618-1.76,3.231-3.231c0.078-0.187,0.259-0.307,0.462-0.307c0.066,0,0.131,0.013,0.192,0.038
		c0.123,0.051,0.219,0.147,0.27,0.271c0.051,0.124,0.051,0.26-0.001,0.383c-0.715,1.715-2.053,3.054-3.769,3.769
		C13.829,19.877,12.923,20.06,12,20.06z"/>
	<path d="M12,24.056c-6.617,0-12-5.383-12-12c0-2.239,0.622-4.415,1.801-6.313C0.606,5.277,0,4.711,0,4.056
		c0-0.893,1.147-2.087,6.599-2.711C8.289,0.49,10.105,0.056,12,0.056c1.895,0,3.711,0.434,5.401,1.289
		C22.854,1.968,24,3.162,24,4.056c0,0.655-0.606,1.221-1.802,1.687C23.378,7.641,24,9.817,24,12.056
		C24,18.673,18.617,24.056,12,24.056z M2.779,6.064C1.615,7.849,1,9.917,1,12.056c0,6.065,4.935,11,11,11s11-4.935,11-11
		c0-2.139-0.615-4.206-1.779-5.992C19.008,6.686,15.583,7.056,12,7.056S4.992,6.686,2.779,6.064z M3.398,5.209
		C5.558,5.749,8.662,6.056,12,6.056s6.442-0.307,8.602-0.847C18.521,2.602,15.333,1.056,12,1.056S5.479,2.602,3.398,5.209z
		 M19.455,2.661c0.818,0.65,1.547,1.402,2.175,2.247C22.706,4.536,23,4.201,23,4.056C23,3.887,22.368,3.208,19.455,2.661z
		 M4.545,2.661C1.632,3.208,1,3.887,1,4.056c0,0.145,0.294,0.48,1.37,0.852C2.998,4.064,3.727,3.312,4.545,2.661z"/>
</g>
</svg>
