<?xml version="1.0" encoding="utf-8"?>
<!-- Generator: Adobe Illustrator 22.1.0, SVG Export Plug-In . SVG Version: 6.00 Build 0)  -->
<svg version="1.1" id="Layer_1" xmlns="http://www.w3.org/2000/svg" xmlns:xlink="http://www.w3.org/1999/xlink" x="0px" y="0px"
	 viewBox="0 0 24 24" style="enable-background:new 0 0 24 24;" xml:space="preserve">
<g>
	<title>smiley-dizzy</title>
	<path d="M12,24C5.383,24,0,18.617,0,12C0,5.383,5.383,0,12,0c6.617,0,12,5.383,12,12C24,18.617,18.617,24,12,24z M12,1
		C5.935,1,1,5.935,1,12s4.935,11,11,11s11-4.935,11-11S18.065,1,12,1z"/>
	<path d="M14,20.5c-1.103,0-2-0.897-2-2V16H7.5C7.224,16,7,15.776,7,15.5S7.224,15,7.5,15h9c0.276,0,0.5,0.224,0.5,0.5
		S16.776,16,16.5,16H16v2.5C16,19.603,15.103,20.5,14,20.5z M13,18.5c0,0.552,0.448,1,1,1s1-0.448,1-1V16h-2V18.5z"/>
	<path d="M7,11.5c-1.654,0-3-1.346-3-3s1.346-3,3-3c1.379,0,2.5,1.121,2.5,2.5c0,0.827-0.673,1.5-1.5,1.5S6.5,8.827,6.5,8
		c0-0.276,0.224-0.5,0.5-0.5S7.5,7.724,7.5,8S7.724,8.5,8,8.5S8.5,8.276,8.5,8c0-0.827-0.673-1.5-1.5-1.5c-1.103,0-2,0.897-2,2
		s0.897,2,2,2c0.276,0,0.5,0.224,0.5,0.5S7.276,11.5,7,11.5z"/>
	<path d="M17,11.5c-1.654,0-3-1.346-3-3s1.346-3,3-3c1.378,0,2.5,1.121,2.5,2.5c0,0.827-0.673,1.5-1.5,1.5S16.5,8.827,16.5,8
		c0-0.276,0.224-0.5,0.5-0.5s0.5,0.224,0.5,0.5s0.224,0.5,0.5,0.5s0.5-0.224,0.5-0.5c0-0.827-0.673-1.5-1.5-1.5
		c-1.103,0-2,0.897-2,2s0.897,2,2,2c0.276,0,0.5,0.224,0.5,0.5S17.276,11.5,17,11.5z"/>
</g>
</svg>
