<?xml version="1.0" encoding="utf-8"?>
<!-- Generator: Adobe Illustrator 22.1.0, SVG Export Plug-In . SVG Version: 6.00 Build 0)  -->
<svg version="1.1" id="Layer_1" xmlns="http://www.w3.org/2000/svg" xmlns:xlink="http://www.w3.org/1999/xlink" x="0px" y="0px"
	 viewBox="0 0 24 24" style="enable-background:new 0 0 24 24;" xml:space="preserve">
<g>
	<title>smiley-surprised-1</title>
	<circle cx="6.5" cy="10" r="0.75"/>
	<circle cx="17.5" cy="10" r="0.75"/>
	<path d="M8.545,19.752c-0.169,0-0.334-0.034-0.49-0.101c-0.628-0.271-0.918-1.001-0.648-1.628c0.507-1.18,1.437-2.11,2.618-2.618
		c0.632-0.271,1.296-0.409,1.975-0.409c0.633,0,1.256,0.12,1.852,0.358c1.241,0.494,2.215,1.442,2.742,2.67
		c0.145,0.336,0.134,0.717-0.03,1.045c-0.212,0.422-0.637,0.684-1.11,0.684l0,0c-0.194,0-0.38-0.044-0.554-0.132
		c-0.819-0.408-1.739-0.624-2.661-0.624c-0.073,0-0.147,0.001-0.22,0.004c-0.094-0.003-0.169-0.004-0.244-0.004
		c-0.932,0-1.857,0.216-2.676,0.625C8.928,19.706,8.736,19.752,8.545,19.752z M11.999,15.995c-0.542,0-1.074,0.11-1.58,0.328
		c-0.945,0.406-1.688,1.15-2.095,2.094c-0.052,0.121,0.004,0.262,0.125,0.315c0.03,0.013,0.062,0.019,0.094,0.019
		c0.037,0,0.074-0.009,0.107-0.025c0.959-0.479,2.028-0.731,3.093-0.731c0.092,0,0.183,0.002,0.275,0.006
		c0.069-0.004,0.158-0.005,0.248-0.005c1.057,0,2.122,0.253,3.08,0.731c0.034,0.017,0.07,0.025,0.107,0.025
		c0.092,0,0.174-0.05,0.215-0.132c0.031-0.063,0.034-0.137,0.006-0.202c-0.422-0.982-1.201-1.74-2.194-2.136
		C13.004,16.092,12.506,15.995,11.999,15.995z"/>
	<path d="M12,24C5.383,24,0,18.617,0,12C0,5.383,5.383,0,12,0c6.617,0,12,5.383,12,12C24,18.617,18.617,24,12,24z M12,1
		C5.935,1,1,5.935,1,12s4.935,11,11,11s11-4.935,11-11S18.065,1,12,1z"/>
	<path d="M10.5,13c-0.077,0-0.154-0.018-0.223-0.052c-0.12-0.06-0.209-0.163-0.251-0.289s-0.033-0.262,0.027-0.382l0.5-1
		C10.638,11.106,10.809,11,11,11c0.077,0,0.154,0.018,0.223,0.053c0.247,0.123,0.347,0.424,0.224,0.671l-0.5,1
		C10.862,12.894,10.691,13,10.5,13z"/>
	<path d="M13.5,13c-0.19,0-0.362-0.106-0.447-0.276l-0.5-1c-0.06-0.12-0.069-0.255-0.027-0.382s0.131-0.229,0.251-0.289
		C12.845,11.018,12.923,11,13,11c0.191,0,0.362,0.106,0.447,0.277l0.5,1c0.06,0.119,0.069,0.255,0.027,0.382
		s-0.131,0.229-0.251,0.289C13.654,12.982,13.577,13,13.5,13z"/>
</g>
</svg>
