<?xml version="1.0" encoding="utf-8"?>
<!-- Generator: Adobe Illustrator 22.1.0, SVG Export Plug-In . SVG Version: 6.00 Build 0)  -->
<svg version="1.1" id="Layer_1" xmlns="http://www.w3.org/2000/svg" xmlns:xlink="http://www.w3.org/1999/xlink" x="0px" y="0px"
	 viewBox="0 0 24 24" style="enable-background:new 0 0 24 24;" xml:space="preserve">
<g>
	<title>smiley-tongue</title>
	<path d="M5.5,10.108c-0.094,0-0.186-0.026-0.265-0.076C5.001,9.886,4.93,9.577,5.076,9.343c0.229-0.365,0.542-0.679,0.908-0.908
		C6.44,8.15,6.963,7.999,7.495,7.999c0.216,0,0.434,0.025,0.647,0.074c0.744,0.172,1.377,0.623,1.782,1.27
		C9.995,9.456,10.017,9.59,9.987,9.72c-0.03,0.13-0.109,0.241-0.222,0.312c-0.079,0.05-0.171,0.076-0.265,0.076
		c-0.174,0-0.332-0.088-0.424-0.235C8.813,9.452,8.401,9.159,7.917,9.047C7.778,9.015,7.637,8.999,7.496,8.999
		c-0.346,0-0.685,0.098-0.982,0.284c-0.237,0.149-0.442,0.353-0.59,0.59C5.832,10.02,5.674,10.108,5.5,10.108z"/>
	<path d="M14.5,10.108c-0.094,0-0.186-0.026-0.265-0.076c-0.113-0.071-0.192-0.181-0.222-0.311c-0.03-0.13-0.008-0.264,0.063-0.377
		c0.405-0.648,1.038-1.099,1.782-1.27c0.213-0.049,0.431-0.074,0.647-0.074c0.533,0,1.055,0.151,1.511,0.436
		c0.365,0.228,0.679,0.542,0.908,0.908c0.071,0.113,0.094,0.247,0.063,0.377s-0.109,0.241-0.222,0.312
		c-0.08,0.05-0.171,0.076-0.265,0.076l0,0c-0.174,0-0.332-0.088-0.424-0.235c-0.148-0.237-0.353-0.441-0.59-0.59
		c-0.297-0.186-0.636-0.284-0.982-0.284c-0.141,0-0.282,0.016-0.421,0.048c-0.484,0.112-0.896,0.405-1.159,0.826
		C14.832,10.02,14.673,10.108,14.5,10.108z"/>
	<path d="M12,24C5.383,24,0,18.617,0,12C0,5.383,5.383,0,12,0c6.617,0,12,5.383,12,12C24,18.617,18.617,24,12,24z M12,1
		C5.935,1,1,5.935,1,12s4.935,11,11,11s11-4.935,11-11S18.065,1,12,1z"/>
	<path d="M13,20c-1.654,0-3-1.346-3-3H8.5C8.224,17,8,16.776,8,16.5S8.224,16,8.5,16h7c0.827,0,1.5-0.673,1.5-1.5
		c0-0.276,0.224-0.5,0.5-0.5s0.5,0.224,0.5,0.5c0,1.199-0.845,2.215-2,2.449V17C16,18.654,14.654,20,13,20z M11,17
		c0,1.103,0.897,2,2,2s2-0.897,2-2H11z"/>
	<path d="M19.5,15.5c-0.133,0-0.259-0.052-0.353-0.146c-0.195-0.195-0.195-0.512-0.001-0.707c0.357-0.357,0.357-0.937,0-1.293
		c-0.195-0.196-0.194-0.513,0-0.707c0.095-0.094,0.22-0.146,0.354-0.146s0.259,0.052,0.354,0.146c0.745,0.746,0.745,1.961,0,2.707
		C19.759,15.448,19.634,15.5,19.5,15.5z"/>
</g>
</svg>
