<?xml version="1.0" encoding="utf-8"?>
<!-- Generator: Adobe Illustrator 22.1.0, SVG Export Plug-In . SVG Version: 6.00 Build 0)  -->
<svg version="1.1" id="Layer_1" xmlns="http://www.w3.org/2000/svg" xmlns:xlink="http://www.w3.org/1999/xlink" x="0px" y="0px"
	 viewBox="0 0 24 24" style="enable-background:new 0 0 24 24;" xml:space="preserve">
<g>
	<title>smiley-oops</title>
	<path d="M12,24C5.383,24,0,18.617,0,12C0,5.383,5.383,0,12,0c6.617,0,12,5.383,12,12C24,18.617,18.617,24,12,24z M12,1
		C5.935,1,1,5.935,1,12s4.935,11,11,11s11-4.935,11-11S18.065,1,12,1z"/>
	<path d="M9.5,19C9.224,19,9,18.776,9,18.5S9.224,18,9.5,18h5c0.276,0,0.5,0.224,0.5,0.5S14.776,19,14.5,19H9.5z"/>
	<path d="M10.5,13c-0.077,0-0.154-0.018-0.223-0.052c-0.12-0.06-0.209-0.163-0.251-0.289s-0.033-0.262,0.027-0.382l0.5-1
		C10.638,11.106,10.809,11,11,11c0.077,0,0.154,0.018,0.223,0.053c0.247,0.123,0.347,0.424,0.224,0.671l-0.5,1
		C10.862,12.894,10.691,13,10.5,13z"/>
	<path d="M13.5,13c-0.19,0-0.362-0.106-0.447-0.276l-0.5-1c-0.06-0.12-0.069-0.255-0.027-0.382s0.131-0.229,0.251-0.289
		C12.845,11.018,12.923,11,13,11c0.191,0,0.362,0.106,0.447,0.277l0.5,1c0.06,0.119,0.069,0.255,0.027,0.382
		s-0.131,0.229-0.251,0.289C13.654,12.982,13.577,13,13.5,13z"/>
	<path d="M7.56,8.189c-0.2,0-0.388-0.078-0.529-0.218C6.738,7.679,6.737,7.203,7.029,6.91c0.141-0.142,0.329-0.22,0.53-0.221
		c0.197,0,0.382,0.075,0.523,0.211c0.301,0.3,0.302,0.775,0.011,1.068C8.091,7.97,8.089,7.971,8.087,7.973
		C7.946,8.113,7.759,8.189,7.56,8.189z"/>
	<path d="M6.5,12C4.57,12,3,10.43,3,8.5S4.57,5,6.5,5S10,6.57,10,8.5S8.43,12,6.5,12z M6.5,6C5.121,6,4,7.121,4,8.5S5.121,11,6.5,11
		S9,9.879,9,8.5S7.879,6,6.5,6z"/>
	<path d="M18.56,8.189c-0.2,0-0.388-0.078-0.529-0.219c-0.292-0.292-0.294-0.767-0.002-1.06c0.143-0.142,0.331-0.22,0.532-0.22
		c0.2,0,0.388,0.078,0.53,0.219c0.142,0.141,0.22,0.329,0.221,0.529c0.001,0.196-0.074,0.382-0.211,0.523
		C18.949,8.111,18.761,8.189,18.56,8.189z"/>
	<path d="M17.5,12c-1.93,0-3.5-1.57-3.5-3.5S15.57,5,17.5,5S21,6.57,21,8.5S19.43,12,17.5,12z M17.5,6C16.122,6,15,7.121,15,8.5
		s1.122,2.5,2.5,2.5S20,9.879,20,8.5S18.878,6,17.5,6z"/>
</g>
</svg>
