<?xml version="1.0" encoding="utf-8"?>
<!-- Generator: Adobe Illustrator 22.1.0, SVG Export Plug-In . SVG Version: 6.00 Build 0)  -->
<svg version="1.1" id="Layer_1" xmlns="http://www.w3.org/2000/svg" xmlns:xlink="http://www.w3.org/1999/xlink" x="0px" y="0px"
	 viewBox="0 0 24 24" style="enable-background:new 0 0 24 24;" xml:space="preserve">
<g>
	<title>smiley-blushing</title>
	<path d="M13.5,19c-0.575,0-1.124-0.254-1.5-0.679C11.623,18.747,11.075,19,10.5,19c-1.103,0-2-0.897-2-2c0-0.276,0.224-0.5,0.5-0.5
		s0.5,0.224,0.5,0.5c0,0.552,0.449,1,1,1s1-0.448,1-1c0-0.276,0.224-0.5,0.5-0.5c0.276,0,0.5,0.224,0.5,0.5c0,0.552,0.448,1,1,1
		s1-0.448,1-1c0-0.276,0.224-0.5,0.5-0.5s0.5,0.224,0.5,0.5C15.5,18.103,14.603,19,13.5,19z"/>
	<path d="M5.486,8.5C5.353,8.496,5.229,8.441,5.137,8.344S4.997,8.12,5,7.987C5.007,7.714,5.224,7.5,5.493,7.5
		c0.004,0,0.106,0.002,0.106,0.002c0.987,0,1.919-0.483,2.493-1.291C8.186,6.079,8.338,6,8.5,6c0.104,0,0.204,0.032,0.289,0.092
		c0.109,0.077,0.181,0.192,0.203,0.324c0.022,0.132-0.008,0.264-0.085,0.373C8.147,7.861,6.909,8.501,5.595,8.501
		C5.558,8.501,5.522,8.501,5.486,8.5z"/>
	<path d="M18.405,8.501c-1.314,0-2.552-0.64-3.313-1.712c-0.077-0.109-0.107-0.241-0.085-0.373c0.022-0.132,0.094-0.247,0.204-0.324
		C15.296,6.032,15.396,6,15.5,6c0.162,0,0.314,0.079,0.408,0.21c0.574,0.808,1.51,1.291,2.504,1.291L18.488,7.5
		c0.286,0,0.505,0.214,0.512,0.486c0.003,0.134-0.045,0.261-0.137,0.358s-0.216,0.152-0.35,0.156
		C18.478,8.501,18.441,8.501,18.405,8.501z"/>
	<path d="M12,24C5.383,24,0,18.617,0,12C0,5.383,5.383,0,12,0c6.617,0,12,5.383,12,12C24,18.617,18.617,24,12,24z M12,1
		C5.935,1,1,5.935,1,12s4.935,11,11,11s11-4.935,11-11S18.065,1,12,1z"/>
	<path d="M14.5,14.5c-0.134,0-0.259-0.052-0.354-0.146S14,14.134,14,14s0.052-0.259,0.146-0.354l2-2
		c0.094-0.094,0.22-0.146,0.354-0.146s0.259,0.052,0.354,0.146S17,11.866,17,12s-0.052,0.259-0.146,0.354l-2,2
		C14.759,14.448,14.634,14.5,14.5,14.5z"/>
	<path d="M17.5,14.5c-0.134,0-0.259-0.052-0.354-0.146S17,14.134,17,14s0.052-0.259,0.146-0.354l2-2
		c0.094-0.094,0.22-0.146,0.354-0.146s0.259,0.052,0.354,0.146S20,11.866,20,12s-0.052,0.259-0.146,0.354l-2,2
		C17.759,14.448,17.634,14.5,17.5,14.5z"/>
	<path d="M4.5,14.5c-0.134,0-0.259-0.052-0.354-0.146S4,14.134,4,14s0.052-0.259,0.146-0.354l2-2C6.241,11.552,6.366,11.5,6.5,11.5
		s0.259,0.052,0.354,0.146S7,11.866,7,12s-0.052,0.259-0.146,0.354l-2,2C4.759,14.448,4.634,14.5,4.5,14.5z"/>
	<path d="M7.5,14.5c-0.134,0-0.259-0.052-0.354-0.146S7,14.134,7,14s0.052-0.259,0.146-0.354l2-2C9.241,11.552,9.366,11.5,9.5,11.5
		s0.259,0.052,0.354,0.146S10,11.866,10,12s-0.052,0.259-0.146,0.354l-2,2C7.759,14.448,7.634,14.5,7.5,14.5z"/>
</g>
</svg>
