<?xml version="1.0" encoding="utf-8"?>
<!-- Generator: Adobe Illustrator 22.1.0, SVG Export Plug-In . SVG Version: 6.00 Build 0)  -->
<svg version="1.1" id="Layer_1" xmlns="http://www.w3.org/2000/svg" xmlns:xlink="http://www.w3.org/1999/xlink" x="0px" y="0px"
	 viewBox="0 0 24 24" style="enable-background:new 0 0 24 24;" xml:space="preserve">
<g>
	<title>smiley-shook</title>
	<path d="M12,24C5.383,24,0,18.617,0,12C0,5.383,5.383,0,12,0c6.617,0,12,5.383,12,12C24,18.617,18.617,24,12,24z M12,1
		C5.935,1,1,5.935,1,12s4.935,11,11,11s11-4.935,11-11S18.065,1,12,1z"/>
	<path d="M8.75,11.5c-0.134,0-0.259-0.052-0.354-0.146L7.25,10.207l-1.146,1.146C6.009,11.448,5.884,11.5,5.75,11.5
		s-0.259-0.052-0.354-0.146S5.25,11.134,5.25,11s0.052-0.259,0.146-0.354L6.543,9.5L5.396,8.354C5.302,8.259,5.25,8.134,5.25,8
		s0.052-0.259,0.146-0.354S5.616,7.5,5.75,7.5s0.259,0.052,0.354,0.146L7.25,8.793l1.146-1.146C8.491,7.552,8.616,7.5,8.75,7.5
		s0.259,0.052,0.354,0.146S9.25,7.866,9.25,8S9.198,8.259,9.104,8.354L7.957,9.5l1.146,1.146C9.198,10.741,9.25,10.866,9.25,11
		s-0.052,0.259-0.146,0.354S8.884,11.5,8.75,11.5z"/>
	<path d="M18,11.5c-0.134,0-0.259-0.052-0.354-0.146L16.5,10.207l-1.146,1.146C15.259,11.448,15.134,11.5,15,11.5
		s-0.259-0.052-0.354-0.146S14.5,11.134,14.5,11s0.052-0.259,0.146-0.354L15.793,9.5l-1.146-1.146C14.552,8.259,14.5,8.134,14.5,8
		s0.052-0.259,0.146-0.354S14.866,7.5,15,7.5s0.259,0.052,0.354,0.146L16.5,8.793l1.146-1.146C17.741,7.552,17.866,7.5,18,7.5
		s0.259,0.052,0.354,0.146S18.5,7.866,18.5,8s-0.052,0.259-0.146,0.354L17.207,9.5l1.146,1.146C18.448,10.741,18.5,10.866,18.5,11
		s-0.052,0.259-0.146,0.354S18.134,11.5,18,11.5z"/>
	<path d="M12,20c-1.103,0-2-0.897-2-2v-2c0-1.103,0.897-2,2-2s2,0.897,2,2v2C14,19.103,13.103,20,12,20z M12,15
		c-0.551,0-1,0.448-1,1v2c0,0.552,0.449,1,1,1c0.552,0,1-0.448,1-1v-2C13,15.448,12.552,15,12,15z"/>
</g>
</svg>
