<?xml version="1.0" encoding="utf-8"?>
<!-- Generator: Adobe Illustrator 22.1.0, SVG Export Plug-In . SVG Version: 6.00 Build 0)  -->
<svg version="1.1" id="Layer_1" xmlns="http://www.w3.org/2000/svg" xmlns:xlink="http://www.w3.org/1999/xlink" x="0px" y="0px"
	 viewBox="0 0 24 24" style="enable-background:new 0 0 24 24;" xml:space="preserve">
<g>
	<title>smiley-sad-crying_1</title>
	<path d="M21,18.999c-1.654,0-3-1.346-3-3c0-1.485,2.309-5.327,2.573-5.76c0.088-0.145,0.248-0.232,0.427-0.232
		s0.339,0.087,0.427,0.232C21.69,10.672,24,14.513,24,15.999C24,17.653,22.654,18.999,21,18.999z M21,11.485
		c-1.028,1.793-2,3.797-2,4.513c0,1.103,0.897,2,2,2s2-0.897,2-2C23,15.282,22.027,13.278,21,11.485z"/>
	<path d="M4.486,8.498C4.353,8.495,4.229,8.44,4.137,8.343S3.996,8.119,4,7.985c0.007-0.269,0.228-0.487,0.492-0.487
		c0.005,0,0.097,0.001,0.097,0.001c0.994,0,1.929-0.482,2.503-1.29C7.185,6.077,7.338,5.998,7.5,5.998
		c0.104,0,0.204,0.032,0.289,0.092C7.898,6.168,7.97,6.283,7.993,6.415c0.022,0.132-0.008,0.264-0.085,0.373
		C7.147,7.86,5.908,8.5,4.594,8.5C4.558,8.5,4.522,8.499,4.486,8.498z"/>
	<path d="M19.405,8.5c-1.314,0-2.552-0.64-3.313-1.712c-0.077-0.109-0.107-0.241-0.085-0.373c0.022-0.132,0.094-0.247,0.204-0.324
		c0.085-0.06,0.185-0.092,0.289-0.092c0.162,0,0.314,0.079,0.408,0.21c0.573,0.808,1.513,1.291,2.513,1.29
		c0,0,0.068-0.001,0.068-0.001c0.278,0,0.504,0.223,0.511,0.487c0.003,0.134-0.045,0.26-0.137,0.357s-0.216,0.152-0.35,0.156
		C19.478,8.499,19.441,8.5,19.405,8.5z"/>
	<circle cx="6.5" cy="9.998" r="0.75"/>
	<circle cx="17.5" cy="9.998" r="0.75"/>
	<path d="M15.454,19.751c-0.19,0-0.382-0.046-0.554-0.132c-0.819-0.408-1.739-0.624-2.66-0.624c-0.074,0-0.147,0.001-0.221,0.004
		c-0.094-0.003-0.169-0.004-0.244-0.004c-0.931,0-1.856,0.216-2.676,0.625c-0.171,0.086-0.363,0.132-0.554,0.132l0,0
		c-0.17,0-0.335-0.034-0.491-0.102c-0.303-0.13-0.538-0.372-0.661-0.679c-0.122-0.308-0.118-0.645,0.013-0.948
		c0.508-1.18,1.438-2.11,2.618-2.618c0.627-0.27,1.29-0.406,1.968-0.406c2.004,0,3.81,1.187,4.601,3.024
		c0.145,0.337,0.133,0.719-0.031,1.046c-0.148,0.296-0.403,0.516-0.717,0.62C15.719,19.729,15.587,19.751,15.454,19.751z
		 M12.26,17.994c1.062,0,2.129,0.252,3.087,0.73c0.034,0.017,0.071,0.026,0.108,0.026c0.025,0,0.051-0.004,0.076-0.012
		c0.06-0.02,0.109-0.062,0.138-0.119c0.032-0.063,0.034-0.137,0.006-0.202c-0.632-1.47-2.077-2.42-3.68-2.42
		c-0.543,0-1.072,0.109-1.574,0.325c-0.945,0.406-1.688,1.15-2.095,2.094c-0.026,0.06-0.027,0.123-0.003,0.183
		c0.024,0.06,0.068,0.105,0.127,0.131c0.031,0.013,0.063,0.02,0.095,0.02c0.037,0,0.073-0.009,0.107-0.025
		c0.959-0.479,2.029-0.731,3.093-0.731c0.092,0,0.183,0.002,0.275,0.006C12.086,17.995,12.173,17.994,12.26,17.994z"/>
	<path d="M11.968,24C5.961,24,0.844,19.503,0.066,13.541c-0.414-3.176,0.436-6.327,2.394-8.873c1.958-2.546,4.786-4.176,7.962-4.59
		c0.523-0.068,1.054-0.103,1.578-0.103c2.655,0,5.179,0.862,7.299,2.493c2.543,1.956,4.172,4.785,4.587,7.967
		c0.018,0.132-0.018,0.263-0.099,0.369s-0.199,0.174-0.332,0.191c-0.022,0.003-0.044,0.004-0.065,0.004
		c-0.25,0-0.462-0.187-0.495-0.435c-0.381-2.916-1.874-5.51-4.205-7.303C16.746,1.765,14.433,0.975,12,0.975
		c-0.481,0-0.968,0.032-1.448,0.095c-2.916,0.38-5.51,1.874-7.303,4.205c-1.793,2.331-2.571,5.221-2.191,8.138
		C1.771,18.878,6.462,23,11.969,22.999c0.475,0,0.957-0.031,1.432-0.093c2.244-0.293,4.315-1.253,5.989-2.777
		c0.092-0.084,0.212-0.13,0.336-0.13c0.14,0,0.275,0.059,0.37,0.163c0.09,0.099,0.136,0.227,0.13,0.36
		c-0.006,0.133-0.064,0.256-0.163,0.346c-1.825,1.662-4.084,2.71-6.533,3.029C13.012,23.965,12.487,24,11.968,24z"/>
</g>
</svg>
