<?xml version="1.0" encoding="utf-8"?>
<!-- Generator: Adobe Illustrator 22.1.0, SVG Export Plug-In . SVG Version: 6.00 Build 0)  -->
<svg version="1.1" id="Layer_1" xmlns="http://www.w3.org/2000/svg" xmlns:xlink="http://www.w3.org/1999/xlink" x="0px" y="0px"
	 viewBox="0 0 24 24" style="enable-background:new 0 0 24 24;" xml:space="preserve">
<g>
	<title>smiley-wrong</title>
	<path d="M12,24C5.383,24,0,18.617,0,12C0,5.383,5.383,0,12,0c6.617,0,12,5.383,12,12C24,18.617,18.617,24,12,24z M12,1
		C5.935,1,1,5.935,1,12s4.935,11,11,11s11-4.935,11-11S18.065,1,12,1z"/>
	<path d="M7.5,10.5C7.224,10.5,7,10.276,7,10V9H6C5.724,9,5.5,8.776,5.5,8.5S5.724,8,6,8h1V7c0-0.276,0.224-0.5,0.5-0.5S8,6.724,8,7
		v1h1c0.276,0,0.5,0.224,0.5,0.5S9.276,9,9,9H8v1C8,10.276,7.776,10.5,7.5,10.5z"/>
	<path d="M16.5,10.5c-0.276,0-0.5-0.224-0.5-0.5V9h-1c-0.276,0-0.5-0.224-0.5-0.5S14.724,8,15,8h1V7c0-0.276,0.224-0.5,0.5-0.5
		S17,6.724,17,7v1h1c0.276,0,0.5,0.224,0.5,0.5S18.276,9,18,9h-1v1C17,10.276,16.776,10.5,16.5,10.5z"/>
	<path d="M14.5,20c-1.654,0-3-1.346-3-3c0-1.103-0.897-2-2-2s-2,0.897-2,2v1c0,0.276-0.224,0.5-0.5,0.5S6.5,18.276,6.5,18v-1
		c0-1.654,1.346-3,3-3s3,1.346,3,3c0,1.103,0.897,2,2,2s2-0.897,2-2v-1c0-0.276,0.224-0.5,0.5-0.5s0.5,0.224,0.5,0.5v1
		C17.5,18.654,16.154,20,14.5,20z"/>
</g>
</svg>
