<?xml version="1.0" encoding="utf-8"?>
<!-- Generator: Adobe Illustrator 22.1.0, SVG Export Plug-In . SVG Version: 6.00 Build 0)  -->
<svg version="1.1" id="Layer_1" xmlns="http://www.w3.org/2000/svg" xmlns:xlink="http://www.w3.org/1999/xlink" x="0px" y="0px"
	 viewBox="0 0 24 24" style="enable-background:new 0 0 24 24;" xml:space="preserve">
<g>
	<title>smiley-shine-big-eyes</title>
	<path d="M11.999,20.994c-0.464,0-0.93-0.051-1.387-0.15c-2.475-0.54-4.424-2.489-4.964-4.965c-0.118-0.538,0.225-1.072,0.763-1.19
		c0.069-0.015,0.141-0.023,0.213-0.023c0.193,0,0.38,0.055,0.541,0.158C8.487,15.591,10.006,16,11.544,16
		c0.144,0,0.289-0.003,0.433-0.011c0.166,0.007,0.308,0.01,0.449,0.01c1.554,0,3.083-0.41,4.42-1.185
		c0.152-0.096,0.335-0.149,0.523-0.149c0.072,0,0.145,0.008,0.216,0.024c0.261,0.057,0.484,0.213,0.628,0.438
		c0.144,0.224,0.192,0.491,0.134,0.752C17.701,18.843,15.031,20.994,11.999,20.994z M6.624,15.667
		c0.458,2.094,2.106,3.743,4.201,4.2c0.385,0.084,0.78,0.126,1.171,0.126c2.567,0,4.828-1.82,5.375-4.327
		c-1.509,0.876-3.208,1.333-4.933,1.333c-0.153,0-0.307-0.004-0.46-0.011c-0.132,0.008-0.287,0.011-0.443,0.011
		c-1.71,0-3.402-0.457-4.893-1.322L6.624,15.667z"/>
	<path d="M4.502,10.989c-0.276,0-0.5-0.224-0.5-0.5c0-1.93-1.57-3.5-3.5-3.5c-0.276,0-0.5-0.224-0.5-0.5s0.224-0.5,0.5-0.5
		c1.93,0,3.5-1.57,3.5-3.5c0-0.276,0.224-0.5,0.5-0.5s0.5,0.224,0.5,0.5c0,1.93,1.57,3.5,3.5,3.5c0.276,0,0.5,0.224,0.5,0.5
		s-0.224,0.5-0.5,0.5c-1.93,0-3.5,1.57-3.5,3.5C5.002,10.764,4.778,10.989,4.502,10.989z M2.564,6.489
		c0.833,0.429,1.509,1.105,1.938,1.938C4.931,7.593,5.607,6.918,6.44,6.489C5.607,6.059,4.931,5.384,4.502,4.551
		C4.073,5.384,3.397,6.059,2.564,6.489z"/>
	<path d="M19.502,10.989c-0.276,0-0.5-0.224-0.5-0.5c0-1.93-1.57-3.5-3.5-3.5c-0.276,0-0.5-0.224-0.5-0.5s0.224-0.5,0.5-0.5
		c1.93,0,3.5-1.57,3.5-3.5c0-0.276,0.224-0.5,0.5-0.5s0.5,0.224,0.5,0.5c0,1.93,1.57,3.5,3.5,3.5c0.276,0,0.5,0.224,0.5,0.5
		s-0.224,0.5-0.5,0.5c-1.93,0-3.5,1.57-3.5,3.5C20.002,10.764,19.778,10.989,19.502,10.989z M17.564,6.489
		c0.833,0.429,1.509,1.105,1.938,1.938c0.429-0.833,1.105-1.509,1.938-1.938c-0.833-0.429-1.509-1.105-1.938-1.938
		C19.073,5.384,18.397,6.059,17.564,6.489z"/>
	<path d="M12.003,23.981c-0.869,0-1.744-0.096-2.601-0.286C2.943,22.261-1.146,15.84,0.287,9.38c0.05-0.227,0.255-0.392,0.487-0.392
		c0.037,0,0.074,0.004,0.11,0.012C1.152,9.06,1.323,9.328,1.263,9.597c-0.635,2.864-0.115,5.807,1.465,8.289
		c1.58,2.481,4.027,4.198,6.891,4.833c0.784,0.174,1.586,0.262,2.384,0.262c5.114,0,9.629-3.625,10.737-8.619
		c0.173-0.778,0.26-1.576,0.261-2.374c0-0.802-0.088-1.607-0.261-2.392C22.681,9.327,22.852,9.06,23.121,9
		c0.034-0.008,0.072-0.012,0.109-0.012c0.232,0,0.437,0.165,0.487,0.392c0.189,0.855,0.285,1.733,0.285,2.608
		c-0.001,0.87-0.096,1.741-0.285,2.59C22.508,20.026,17.582,23.981,12.003,23.981L12.003,23.981z"/>
	<path d="M17.002,2.13c-0.076,0-0.149-0.017-0.217-0.05c-1.513-0.728-3.122-1.097-4.783-1.097c-1.661,0-3.27,0.369-4.783,1.098
		C7.151,2.113,7.078,2.13,7.002,2.13c-0.191,0-0.368-0.111-0.451-0.283C6.493,1.726,6.486,1.59,6.53,1.464
		c0.044-0.126,0.135-0.227,0.255-0.285c1.65-0.794,3.405-1.197,5.217-1.197s3.567,0.403,5.217,1.197
		c0.12,0.058,0.211,0.159,0.255,0.285c0.044,0.126,0.037,0.262-0.021,0.382C17.37,2.019,17.193,2.13,17.002,2.13z"/>
</g>
</svg>
