<?xml version="1.0" encoding="utf-8"?>
<!-- Generator: Adobe Illustrator 22.1.0, SVG Export Plug-In . SVG Version: 6.00 Build 0)  -->
<svg version="1.1" id="Layer_1" xmlns="http://www.w3.org/2000/svg" xmlns:xlink="http://www.w3.org/1999/xlink" x="0px" y="0px"
	 viewBox="0 0 24 24" style="enable-background:new 0 0 24 24;" xml:space="preserve">
<g>
	<title>smiley-unhappy</title>
	<circle cx="8.5" cy="8" r="0.75"/>
	<circle cx="15.5" cy="8" r="0.75"/>
	<path d="M10.38,19c-0.116,0-0.23-0.041-0.32-0.115c-0.103-0.086-0.166-0.206-0.178-0.339s0.028-0.263,0.114-0.365
		c1.336-1.604,3.308-2.525,5.409-2.525c0.58,0,1.158,0.073,1.718,0.215c0.129,0.033,0.238,0.114,0.306,0.229
		c0.068,0.115,0.088,0.25,0.054,0.379C17.428,16.7,17.228,16.855,17,16.855l0,0c-0.042,0-0.083-0.005-0.123-0.016
		c-0.479-0.122-0.974-0.184-1.471-0.184c-1.803,0-3.495,0.789-4.641,2.165C10.669,18.934,10.529,19,10.38,19z"/>
	<path d="M12,24C5.383,24,0,18.617,0,12C0,5.383,5.383,0,12,0c6.617,0,12,5.383,12,12C24,18.617,18.617,24,12,24z M12,1
		C5.935,1,1,5.935,1,12s4.935,11,11,11s11-4.935,11-11S18.065,1,12,1z"/>
</g>
</svg>
