<?xml version="1.0" encoding="utf-8"?>
<!-- Generator: Adobe Illustrator 22.1.0, SVG Export Plug-In . SVG Version: 6.00 Build 0)  -->
<svg version="1.1" id="Layer_1" xmlns="http://www.w3.org/2000/svg" xmlns:xlink="http://www.w3.org/1999/xlink" x="0px" y="0px"
	 viewBox="0 0 24 24" style="enable-background:new 0 0 24 24;" xml:space="preserve">
<g>
	<title>smiley-wink</title>
	<path d="M7.25,10.251c-0.414,0-0.75-0.336-0.75-0.75c0-0.414,0.336-0.751,0.75-0.751c0.022,0,0.043,0.001,0.064,0.004
		C7.691,8.777,8,9.106,8,9.501C8,9.915,7.664,10.251,7.25,10.251z"/>
	<path d="M12.01,20c-0.798,0-1.595-0.121-2.368-0.359c-2.042-0.63-3.716-2.018-4.715-3.907c-0.062-0.118-0.075-0.253-0.036-0.381
		c0.039-0.128,0.126-0.232,0.244-0.295C5.207,15.02,5.288,15,5.369,15c0.186,0,0.355,0.102,0.442,0.267
		c0.874,1.653,2.339,2.867,4.125,3.418c0.677,0.208,1.374,0.314,2.073,0.314c1.126,0,2.254-0.282,3.262-0.814
		c1.249-0.66,2.258-1.669,2.918-2.918C18.276,15.102,18.445,15,18.631,15c0.081,0,0.162,0.02,0.234,0.059
		c0.118,0.062,0.204,0.167,0.244,0.295c0.039,0.127,0.027,0.263-0.036,0.381c-0.754,1.427-1.907,2.58-3.335,3.335
		C14.586,19.678,13.297,20,12.01,20z"/>
	<path d="M12,24C5.383,24,0,18.617,0,12C0,5.383,5.383,0,12,0c6.617,0,12,5.383,12,12C24,18.617,18.617,24,12,24z M12,1
		C5.935,1,1,5.935,1,12s4.935,11,11,11s11-4.935,11-11S18.065,1,12,1z"/>
	<path d="M14.5,10.108c-0.094,0-0.186-0.026-0.265-0.076c-0.113-0.071-0.192-0.181-0.222-0.311c-0.03-0.13-0.008-0.264,0.063-0.377
		c0.405-0.648,1.038-1.099,1.782-1.27c0.213-0.049,0.431-0.074,0.647-0.074c0.533,0,1.055,0.151,1.511,0.436
		c0.365,0.228,0.679,0.542,0.908,0.908c0.071,0.113,0.094,0.247,0.063,0.377s-0.109,0.241-0.222,0.312
		c-0.08,0.05-0.171,0.076-0.265,0.076c-0.174,0-0.332-0.088-0.424-0.235c-0.148-0.237-0.353-0.441-0.59-0.59
		c-0.297-0.186-0.636-0.284-0.982-0.284c-0.141,0-0.282,0.016-0.421,0.048c-0.484,0.112-0.896,0.405-1.159,0.826
		C14.832,10.02,14.673,10.108,14.5,10.108z"/>
</g>
</svg>
