<?xml version="1.0" encoding="utf-8"?>
<!-- Generator: Adobe Illustrator 22.1.0, SVG Export Plug-In . SVG Version: 6.00 Build 0)  -->
<svg version="1.1" id="Layer_1" xmlns="http://www.w3.org/2000/svg" xmlns:xlink="http://www.w3.org/1999/xlink" x="0px" y="0px"
	 viewBox="0 0 24 24" style="enable-background:new 0 0 24 24;" xml:space="preserve">
<g>
	<title>smiley-sad-nerd</title>
	<path d="M16.5,19.5c-0.276,0-0.5-0.224-0.5-0.5c0-2.206-1.794-4-4-4s-4,1.794-4,4c0,0.276-0.224,0.5-0.5,0.5S7,19.276,7,19
		c0-2.757,2.243-5,5-5c2.757,0,5,2.243,5,5C17,19.276,16.776,19.5,16.5,19.5z"/>
	<path d="M12,24C5.383,24,0,18.617,0,12c0-1.969,0.49-3.919,1.419-5.652L0.193,5.395c-0.218-0.169-0.257-0.484-0.088-0.702
		C0.201,4.57,0.345,4.5,0.5,4.5c0.111,0,0.22,0.037,0.307,0.105L1.932,5.48C4.161,2.043,7.904,0,12,0
		c4.096,0,7.839,2.043,10.068,5.48l1.125-0.875C23.281,4.537,23.389,4.5,23.5,4.5c0.156,0,0.3,0.07,0.395,0.193
		c0.082,0.105,0.118,0.236,0.101,0.369c-0.016,0.132-0.083,0.25-0.189,0.333l-1.226,0.954C23.51,8.081,24,10.031,24,12
		C24,18.617,18.617,24,12,24z M2.22,6.971C1.421,8.52,1,10.252,1,12c0,6.065,4.935,11,11,11s11-4.935,11-11
		c0-1.748-0.421-3.48-1.22-5.029l-1.937,1.506C19.948,8.812,20,9.156,20,9.5c0,1.93-1.57,3.5-3.5,3.5c-1.738,0-3.216-1.3-3.461-3
		h-2.078c-0.245,1.7-1.723,3-3.461,3C5.57,13,4,11.43,4,9.5c0-0.344,0.052-0.687,0.156-1.023L2.22,6.971z M16.5,7
		C15.122,7,14,8.121,14,9.5s1.122,2.5,2.5,2.5S19,10.879,19,9.5S17.878,7,16.5,7z M7.5,7C6.122,7,5,8.121,5,9.5S6.122,12,7.5,12
		S10,10.879,10,9.5S8.879,7,7.5,7z M13.039,9c0.245-1.7,1.723-3,3.461-3c1.168,0,2.257,0.588,2.905,1.552l1.872-1.456
		C19.239,2.901,15.788,1,12,1C8.212,1,4.761,2.901,2.723,6.095l1.872,1.456C5.243,6.588,6.331,6,7.5,6c1.738,0,3.216,1.3,3.461,3
		H13.039z"/>
	<circle cx="8" cy="9" r="0.75"/>
	<circle cx="17" cy="9" r="0.75"/>
</g>
</svg>
