<?xml version="1.0" encoding="utf-8"?>
<!-- Generator: Adobe Illustrator 22.1.0, SVG Export Plug-In . SVG Version: 6.00 Build 0)  -->
<svg version="1.1" id="Layer_1" xmlns="http://www.w3.org/2000/svg" xmlns:xlink="http://www.w3.org/1999/xlink" x="0px" y="0px"
	 viewBox="0 0 24 24" style="enable-background:new 0 0 24 24;" xml:space="preserve">
<g>
	<title>messages-bubble-add</title>
	<path d="M17.5,24c-3.584,0-6.5-2.916-6.5-6.5s2.916-6.5,6.5-6.5s6.5,2.916,6.5,6.5S21.085,24,17.5,24z M17.5,12
		c-3.033,0-5.5,2.467-5.5,5.5s2.467,5.5,5.5,5.5s5.5-2.467,5.5-5.5S20.533,12,17.5,12z"/>
	<path d="M17.5,21c-0.276,0-0.5-0.224-0.5-0.5V18h-2.5c-0.276,0-0.5-0.224-0.5-0.5s0.224-0.5,0.5-0.5H17v-2.5
		c0-0.276,0.224-0.5,0.5-0.5s0.5,0.224,0.5,0.5V17h2.5c0.276,0,0.5,0.224,0.5,0.5S20.776,18,20.5,18H18v2.5
		C18,20.776,17.776,21,17.5,21z"/>
	<path d="M1.5,20c-0.132,0-0.257-0.051-0.351-0.144c-0.147-0.146-0.19-0.37-0.106-0.559l1.862-4.189
		c-1.796-1.522-2.852-3.733-2.905-6.096c0-2.418,1.152-4.685,3.244-6.389C5.321,0.931,8.076,0,11,0c6.065,0,11,4.037,11,9
		c-0.004,0.535-0.065,1.068-0.181,1.587c-0.051,0.226-0.256,0.391-0.487,0.391c-0.037,0-0.074-0.004-0.111-0.012
		c-0.13-0.029-0.241-0.107-0.312-0.22c-0.072-0.113-0.095-0.247-0.065-0.377c0.101-0.45,0.154-0.911,0.157-1.371
		C21,4.588,16.514,1,11,1C5.486,1,1,4.589,1,9c0.05,2.191,1.079,4.221,2.823,5.563c0.183,0.142,0.246,0.388,0.152,0.6L2.496,18.49
		l4.431-2.044C6.994,16.415,7.065,16.4,7.137,16.4c0.05,0,0.101,0.008,0.149,0.022c0.741,0.233,1.506,0.395,2.275,0.48
		c0.133,0.015,0.252,0.081,0.335,0.185c0.083,0.104,0.121,0.235,0.106,0.368C9.974,17.709,9.761,17.9,9.506,17.9
		c-0.018,0-0.037-0.001-0.055-0.003c-0.769-0.086-1.535-0.242-2.277-0.463l-5.464,2.52C1.643,19.985,1.573,20,1.5,20z"/>
</g>
</svg>
