<?xml version="1.0" encoding="utf-8"?>
<!-- Generator: Adobe Illustrator 22.1.0, SVG Export Plug-In . SVG Version: 6.00 Build 0)  -->
<svg version="1.1" id="Layer_1" xmlns="http://www.w3.org/2000/svg" xmlns:xlink="http://www.w3.org/1999/xlink" x="0px" y="0px"
	 viewBox="0 0 24 24" style="enable-background:new 0 0 24 24;" xml:space="preserve">
<g>
	<title>messages-bubble-download</title>
	<path d="M17.5,24c-3.584,0-6.5-2.916-6.5-6.5s2.916-6.5,6.5-6.5s6.5,2.916,6.5,6.5S21.085,24,17.5,24z M17.5,12
		c-3.033,0-5.5,2.467-5.5,5.5s2.467,5.5,5.5,5.5s5.5-2.467,5.5-5.5S20.533,12,17.5,12z"/>
	<path d="M17.5,21c-0.066,0-0.13-0.013-0.191-0.039c-0.062-0.025-0.117-0.062-0.163-0.109l-2.249-2.249
		c-0.094-0.094-0.146-0.22-0.146-0.354s0.052-0.259,0.146-0.354s0.22-0.146,0.354-0.146s0.259,0.052,0.354,0.146L17,19.293V14.5
		c0-0.276,0.224-0.5,0.5-0.5s0.5,0.224,0.5,0.5v4.793l1.396-1.396c0.094-0.094,0.22-0.146,0.354-0.146s0.259,0.052,0.354,0.146
		s0.146,0.22,0.146,0.354s-0.052,0.259-0.146,0.354l-2.25,2.25c-0.045,0.046-0.101,0.083-0.163,0.109
		C17.63,20.987,17.566,21,17.5,21z"/>
	<path d="M1.5,20c-0.132,0-0.257-0.051-0.351-0.144c-0.147-0.146-0.19-0.37-0.106-0.559l1.862-4.189
		c-1.795-1.523-2.851-3.734-2.905-6.096c0-2.418,1.152-4.685,3.244-6.389C5.321,0.931,8.076,0,11,0c6.065,0,11,4.037,11,9
		c-0.004,0.535-0.065,1.069-0.181,1.587c-0.052,0.23-0.252,0.391-0.487,0.391c-0.037,0-0.074-0.004-0.111-0.012
		c-0.13-0.029-0.241-0.107-0.312-0.22c-0.072-0.113-0.095-0.247-0.065-0.377c0.101-0.45,0.154-0.912,0.157-1.372
		C21,4.588,16.514,1,11,1C5.486,1,1,4.589,1,9c0.05,2.191,1.079,4.221,2.823,5.564c0.183,0.141,0.246,0.387,0.152,0.599L2.496,18.49
		l4.431-2.044c0.066-0.03,0.138-0.046,0.21-0.046c0.051,0,0.1,0.008,0.149,0.022c0.741,0.232,1.506,0.394,2.275,0.48
		c0.274,0.031,0.472,0.279,0.441,0.553C9.974,17.709,9.76,17.9,9.505,17.9c-0.018,0-0.036-0.001-0.054-0.003
		c-0.77-0.087-1.535-0.242-2.277-0.463l-5.464,2.52C1.643,19.985,1.573,20,1.5,20z"/>
</g>
</svg>
