<?xml version="1.0" encoding="utf-8"?>
<!-- Generator: Adobe Illustrator 22.1.0, SVG Export Plug-In . SVG Version: 6.00 Build 0)  -->
<svg version="1.1" id="Layer_1" xmlns="http://www.w3.org/2000/svg" xmlns:xlink="http://www.w3.org/1999/xlink" x="0px" y="0px"
	 viewBox="0 0 24 24" style="enable-background:new 0 0 24 24;" xml:space="preserve">
<g>
	<title>messages-bubble-disable-1</title>
	<path d="M7.5,18.5c-0.066,0-0.131-0.013-0.192-0.038C7.121,18.385,7,18.203,7,18v-3.5c-3.849-0.011-6.989-3.151-7-6.999
		C0,3.505,3.271,0,7,0h8c3.729,0,7,3.505,7,7.5c0.001,0.929-0.18,1.835-0.539,2.693C21.383,10.38,21.202,10.5,21,10.5
		c-0.066,0-0.131-0.013-0.192-0.039c-0.124-0.052-0.219-0.148-0.27-0.272c-0.051-0.124-0.05-0.259,0.001-0.383
		c0.307-0.734,0.463-1.51,0.461-2.306C21,4.038,18.196,1,15,1H7C3.804,1,1,4.037,1,7.5c0.01,3.298,2.702,5.99,6.001,6H7.5
		C7.776,13.5,8,13.724,8,14v2.793l1.146-1.146C9.241,15.552,9.366,15.5,9.5,15.5s0.259,0.052,0.354,0.146
		c0.195,0.195,0.195,0.512,0,0.707l-2,2C7.759,18.448,7.634,18.5,7.5,18.5z"/>
	<path d="M17.5,24c-1.722,0-3.345-0.669-4.572-1.884c-0.009-0.007-0.017-0.014-0.024-0.021c-0.007-0.007-0.014-0.015-0.021-0.024
		C11.669,20.845,11,19.222,11,17.5c0-3.584,2.916-6.5,6.5-6.5c1.719,0,3.338,0.666,4.564,1.876c0.012,0.009,0.024,0.019,0.032,0.027
		c0.012,0.012,0.022,0.025,0.03,0.036C23.332,14.157,24,15.779,24,17.5C24,21.084,21.084,24,17.5,24z M13.983,21.724
		C14.971,22.549,16.21,23,17.5,23c3.033,0,5.5-2.467,5.5-5.5c0-1.29-0.451-2.529-1.276-3.517L13.983,21.724z M17.5,12
		c-3.033,0-5.5,2.467-5.5,5.5c0,1.29,0.451,2.529,1.276,3.517l7.742-7.742C20.029,12.451,18.79,12,17.5,12z"/>
</g>
</svg>
