<?xml version="1.0" encoding="utf-8"?>
<!-- Generator: Adobe Illustrator 22.1.0, SVG Export Plug-In . SVG Version: 6.00 Build 0)  -->
<svg version="1.1" id="Layer_1" xmlns="http://www.w3.org/2000/svg" xmlns:xlink="http://www.w3.org/1999/xlink" x="0px" y="0px"
	 viewBox="0 0 24 24" style="enable-background:new 0 0 24 24;" xml:space="preserve">
<g>
	<title>messages-bubble-information</title>
	<path d="M1.583,23.5c-0.122,0-0.24-0.044-0.331-0.125c-0.161-0.142-0.213-0.37-0.131-0.567l2.256-5.413
		c-2.042-1.713-3.239-4.211-3.294-6.885c0-5.522,5.383-10.01,12-10.01c6.617,0,12,4.486,12,10c0,5.514-5.383,10-12,10
		c-1.38,0-2.749-0.202-4.068-0.599l-6.183,3.533C1.756,23.477,1.67,23.5,1.583,23.5z M12.083,1.5c-6.065,0-11,4.037-11,9
		c0.051,2.499,1.219,4.813,3.205,6.345c0.179,0.138,0.243,0.38,0.156,0.588l-1.836,4.405l5.098-2.913
		c0.076-0.043,0.161-0.066,0.248-0.066c0.051,0,0.102,0.008,0.151,0.023c1.287,0.41,2.625,0.618,3.977,0.618c6.065,0,11-4.037,11-9
		S18.148,1.5,12.083,1.5z"/>
	<path d="M10.583,15.5c-0.276,0-0.5-0.224-0.5-0.5s0.224-0.5,0.5-0.5h1.5V9c0-0.276-0.224-0.5-0.5-0.5h-1
		c-0.276,0-0.5-0.224-0.5-0.5s0.224-0.5,0.5-0.5h1c0.827,0,1.5,0.673,1.5,1.5v5.5h1.5c0.276,0,0.5,0.224,0.5,0.5s-0.224,0.5-0.5,0.5
		H10.583z"/>
	<circle cx="12.333" cy="5.75" r="0.75"/>
</g>
</svg>
