<?xml version="1.0" encoding="utf-8"?>
<!-- Generator: Adobe Illustrator 22.1.0, SVG Export Plug-In . SVG Version: 6.00 Build 0)  -->
<svg version="1.1" id="Layer_1" xmlns="http://www.w3.org/2000/svg" xmlns:xlink="http://www.w3.org/1999/xlink" x="0px" y="0px"
	 viewBox="0 0 24 24" style="enable-background:new 0 0 24 24;" xml:space="preserve">
<g>
	<title>messages-bubble-text</title>
	<path d="M12,24C5.383,24,0,18.617,0,12C0,5.383,5.383,0,12,0c6.617,0,12,5.383,12,12C24,18.617,18.617,24,12,24z M12,1
		C5.935,1,1,5.935,1,12s4.935,11,11,11s11-4.935,11-11S18.065,1,12,1z"/>
	<path d="M7,18c-0.134,0-0.265-0.055-0.359-0.151c-0.148-0.153-0.183-0.383-0.089-0.573l1.283-2.561
		c-1.127-0.989-1.788-2.402-1.823-3.911c0-1.564,0.735-3.028,2.07-4.126c1.321-1.087,3.071-1.685,4.93-1.685c3.86,0,7,2.602,7,5.8
		c0,3.198-3.14,5.8-7,5.8c-0.778-0.005-1.529-0.106-2.237-0.302l-3.565,1.662C7.145,17.984,7.074,18,7,18z M13.013,5.993
		c-3.308,0-6,2.153-6,4.8c0.031,1.341,0.669,2.577,1.75,3.387c0.194,0.145,0.256,0.408,0.147,0.625L8.09,16.44l2.433-1.134
		c0.065-0.031,0.138-0.047,0.211-0.047c0.049,0,0.097,0.007,0.144,0.021c0.687,0.208,1.399,0.313,2.116,0.313
		c3.326,0,6.018-2.153,6.018-4.8S16.321,5.993,13.013,5.993z"/>
	<path d="M10.459,9c-0.276,0-0.5-0.224-0.5-0.5s0.224-0.5,0.5-0.5h5c0.276,0,0.5,0.224,0.5,0.5S15.735,9,15.459,9H10.459z"/>
	<path d="M10.459,11c-0.276,0-0.5-0.224-0.5-0.5s0.224-0.5,0.5-0.5h5c0.276,0,0.5,0.224,0.5,0.5s-0.224,0.5-0.5,0.5H10.459z"/>
	<path d="M10.459,13c-0.276,0-0.5-0.224-0.5-0.5c0-0.276,0.224-0.5,0.5-0.5h5c0.276,0,0.5,0.224,0.5,0.5c0,0.276-0.224,0.5-0.5,0.5
		H10.459z"/>
</g>
</svg>
