<?xml version="1.0" encoding="utf-8"?>
<!-- Generator: Adobe Illustrator 22.1.0, SVG Export Plug-In . SVG Version: 6.00 Build 0)  -->
<svg version="1.1" id="Layer_1" xmlns="http://www.w3.org/2000/svg" xmlns:xlink="http://www.w3.org/1999/xlink" x="0px" y="0px"
	 viewBox="0 0 24 24" style="enable-background:new 0 0 24 24;" xml:space="preserve">
<g>
	<title>messages-bubble-double</title>
	<path d="M23,24c-0.06,0-0.119-0.011-0.175-0.032l-3.812-1.43c-0.915,0.377-1.876,0.569-2.86,0.569c-1.445,0-2.852-0.418-4.07-1.209
		C10.152,20.643,9,18.625,9,16.5c0-3.523,3.435-6.5,7.5-6.5s7.5,2.977,7.5,6.5c0.001,1.569-0.696,3.1-1.874,4.135l1.321,2.641
		c0.093,0.186,0.063,0.405-0.076,0.558C23.277,23.94,23.142,24,23,24z M19,21.5c0.059,0,0.118,0.01,0.174,0.031l2.809,1.053
		l-0.931-1.861c-0.108-0.217-0.046-0.479,0.147-0.624c1.128-0.845,1.801-2.19,1.8-3.599c0-2.982-2.977-5.5-6.5-5.5
		S10,13.519,10,16.5c0,1.786,0.982,3.49,2.627,4.559c1.055,0.686,2.274,1.048,3.524,1.048c0.913,0,1.803-0.19,2.645-0.564
		C18.862,21.514,18.93,21.5,19,21.5z"/>
	<path d="M1,16.5c-0.145,0-0.282-0.062-0.377-0.172c-0.14-0.16-0.162-0.392-0.057-0.576l1.807-3.163
		C0.903,11.308,0.041,9.469,0,7.51C0,3.367,4.037,0,9,0s9,3.365,9,7.5c-0.005,0.369-0.042,0.736-0.109,1.093
		C17.846,8.829,17.641,9,17.402,9c-0.032,0-0.065-0.003-0.098-0.01c-0.128-0.024-0.242-0.099-0.317-0.209
		c-0.075-0.11-0.103-0.243-0.078-0.375c0.057-0.3,0.087-0.608,0.091-0.914C17,3.914,13.411,1,9,1C4.589,1,1,3.916,1,7.5
		c0.038,1.802,0.884,3.471,2.321,4.573c0.198,0.151,0.253,0.429,0.13,0.645l-1.306,2.285l3.608-1.444
		c0.06-0.024,0.123-0.036,0.186-0.036c0.051,0,0.102,0.008,0.151,0.023c0.484,0.154,0.983,0.269,1.483,0.343
		c0.132,0.02,0.249,0.09,0.328,0.197s0.113,0.239,0.093,0.371c-0.036,0.247-0.245,0.427-0.496,0.427
		c-0.023,0-0.046-0.001-0.069-0.005c-0.497-0.073-0.99-0.183-1.469-0.326l-4.775,1.911C1.126,16.488,1.064,16.5,1,16.5z"/>
</g>
</svg>
