<?xml version="1.0" encoding="utf-8"?>
<!-- Generator: Adobe Illustrator 22.1.0, SVG Export Plug-In . SVG Version: 6.00 Build 0)  -->
<svg version="1.1" id="Layer_1" xmlns="http://www.w3.org/2000/svg" xmlns:xlink="http://www.w3.org/1999/xlink" x="0px" y="0px"
	 viewBox="0 0 24 24" style="enable-background:new 0 0 24 24;" xml:space="preserve">
<g>
	<title>messages-bubble-square-quote</title>
	<path d="M7.522,22.491c-0.066,0-0.131-0.013-0.192-0.038c-0.187-0.077-0.308-0.259-0.308-0.462v-3.5h-5.5
		c-0.827,0-1.5-0.673-1.5-1.5v-14c0-0.827,0.673-1.5,1.5-1.5h21c0.827,0,1.5,0.673,1.5,1.5v14c0,0.827-0.673,1.5-1.5,1.5H11.729
		l-3.854,3.854C7.781,22.439,7.656,22.491,7.522,22.491z M1.522,2.491c-0.276,0-0.5,0.224-0.5,0.5v14c0,0.276,0.224,0.5,0.5,0.5h6
		c0.276,0,0.5,0.224,0.5,0.5v2.793l3.146-3.146c0.094-0.094,0.22-0.146,0.354-0.146h11c0.276,0,0.5-0.224,0.5-0.5v-14
		c0-0.276-0.224-0.5-0.5-0.5H1.522z"/>
	<path d="M10.522,7.991c-0.276,0-0.5-0.224-0.5-0.5v-2.5c0-0.276,0.224-0.5,0.5-0.5s0.5,0.224,0.5,0.5v2.5
		C11.022,7.767,10.798,7.991,10.522,7.991z"/>
	<path d="M9.521,14.491c-0.276,0-0.5-0.224-0.5-0.5s0.224-0.5,0.5-0.5s0.5-0.224,0.5-0.5v-0.768c-0.301,0.175-0.643,0.268-1,0.268
		c-1.103,0-2-0.897-2-2s0.897-2,2-2s2,0.897,2,2v2.5C11.021,13.818,10.348,14.491,9.521,14.491z M9.021,9.491c-0.551,0-1,0.449-1,1
		s0.449,1,1,1s1-0.449,1-1S9.573,9.491,9.021,9.491z"/>
	<path d="M14.021,13.491c-0.276,0-0.5-0.224-0.5-0.5s0.224-0.5,0.5-0.5c1.103,0,2-1.346,2-3s-0.897-3-2-3
		c-0.276,0-0.5-0.224-0.5-0.5s0.224-0.5,0.5-0.5c1.654,0,3,1.794,3,4S15.675,13.491,14.021,13.491z"/>
</g>
</svg>
