<?xml version="1.0" encoding="utf-8"?>
<!-- Generator: Adobe Illustrator 22.1.0, SVG Export Plug-In . SVG Version: 6.00 Build 0)  -->
<svg version="1.1" id="Layer_1" xmlns="http://www.w3.org/2000/svg" xmlns:xlink="http://www.w3.org/1999/xlink" x="0px" y="0px"
	 viewBox="0 0 24 24" style="enable-background:new 0 0 24 24;" xml:space="preserve">
<g>
	<title>messages-bubble-square-upload</title>
	<path d="M17.5,24c-3.584,0-6.5-2.916-6.5-6.5s2.916-6.5,6.5-6.5s6.5,2.916,6.5,6.5S21.084,24,17.5,24z M17.5,12
		c-3.033,0-5.5,2.467-5.5,5.5s2.467,5.5,5.5,5.5s5.5-2.467,5.5-5.5S20.533,12,17.5,12z"/>
	<path d="M17.5,21c-0.276,0-0.5-0.224-0.5-0.5v-4.793l-1.396,1.396c-0.094,0.094-0.22,0.146-0.354,0.146s-0.259-0.052-0.354-0.146
		s-0.146-0.22-0.146-0.354s0.052-0.259,0.146-0.354l2.25-2.25c0.045-0.046,0.101-0.083,0.163-0.109C17.369,14.013,17.434,14,17.5,14
		s0.131,0.013,0.191,0.038c0.062,0.025,0.117,0.062,0.163,0.109l2.249,2.249c0.094,0.094,0.146,0.22,0.146,0.354
		s-0.052,0.259-0.146,0.354s-0.22,0.146-0.354,0.146s-0.259-0.052-0.354-0.146L18,15.707V20.5C18,20.776,17.776,21,17.5,21z"/>
	<path d="M4.5,19c-0.066,0-0.131-0.013-0.192-0.038C4.121,18.885,4,18.703,4,18.5V15H1.5C0.673,15,0,14.327,0,13.5v-12
		C0,0.673,0.673,0,1.5,0h19C21.327,0,22,0.673,22,1.5v8c0,0.276-0.224,0.5-0.5,0.5S21,9.776,21,9.5v-8C21,1.224,20.776,1,20.5,1h-19
		C1.224,1,1,1.224,1,1.5v12C1,13.776,1.224,14,1.5,14h3C4.776,14,5,14.224,5,14.5v2.793l3.146-3.146C8.241,14.052,8.366,14,8.5,14h1
		c0.276,0,0.5,0.224,0.5,0.5S9.776,15,9.5,15H8.707l-3.854,3.854C4.759,18.948,4.634,19,4.5,19z"/>
</g>
</svg>
