<?xml version="1.0" encoding="utf-8"?>
<!-- Generator: Adobe Illustrator 22.1.0, SVG Export Plug-In . SVG Version: 6.00 Build 0)  -->
<svg version="1.1" id="Layer_1" xmlns="http://www.w3.org/2000/svg" xmlns:xlink="http://www.w3.org/1999/xlink" x="0px" y="0px"
	 viewBox="0 0 24 24" style="enable-background:new 0 0 24 24;" xml:space="preserve">
<g>
	<title>messages-bubble-square-settings</title>
	<path d="M17.75,18.937c-1.068,0-1.937-0.869-1.937-1.937s0.869-1.937,1.937-1.937s1.937,0.869,1.937,1.937
		S18.818,18.937,17.75,18.937z M17.75,16.063c-0.517,0-0.937,0.42-0.937,0.937s0.42,0.937,0.937,0.937s0.937-0.42,0.937-0.937
		S18.267,16.063,17.75,16.063z"/>
	<path d="M17.749,23.969c-0.172,0-0.344-0.025-0.51-0.075c-0.572-0.172-1.017-0.617-1.189-1.189l-0.424-1.391
		c-0.057-0.19-0.235-0.323-0.434-0.323c-0.033,0-0.067,0.004-0.1,0.011l-1.411,0.327c-0.131,0.029-0.262,0.044-0.393,0.044
		c-0.827,0-1.559-0.585-1.741-1.391c-0.13-0.575,0.033-1.176,0.434-1.607l0.988-1.064c0.162-0.175,0.162-0.45-0.001-0.626
		l-0.987-1.063c-0.67-0.719-0.629-1.849,0.09-2.519c0.331-0.309,0.762-0.479,1.215-0.479c0.132,0,0.263,0.015,0.392,0.044
		l1.415,0.327c0.033,0.008,0.067,0.012,0.101,0.012c0.197,0,0.375-0.132,0.432-0.322l0.425-1.394
		c0.136-0.453,0.441-0.826,0.859-1.051c0.259-0.139,0.549-0.212,0.839-0.212c0.173,0,0.346,0.026,0.513,0.076
		c0.572,0.172,1.016,0.616,1.188,1.188l0.424,1.391c0.057,0.191,0.235,0.323,0.433,0.323c0.034,0,0.067-0.004,0.1-0.011l1.411-0.327
		c0.131-0.029,0.262-0.043,0.393-0.043c0.828,0,1.56,0.585,1.742,1.39c0.13,0.574-0.032,1.175-0.434,1.607l-0.988,1.064
		c-0.162,0.175-0.162,0.45,0.001,0.626l0.987,1.063c0.324,0.348,0.494,0.802,0.477,1.278c-0.017,0.476-0.218,0.917-0.567,1.241
		c-0.332,0.308-0.763,0.478-1.215,0.478c0,0,0,0,0,0c-0.131,0-0.263-0.015-0.391-0.043l-1.415-0.328
		c-0.034-0.008-0.067-0.012-0.101-0.012c-0.197,0-0.374,0.132-0.431,0.322l-0.424,1.394C19.226,23.449,18.527,23.969,17.749,23.969z
		 M15.193,19.992c0.636,0,1.208,0.425,1.391,1.033l0.424,1.391c0.075,0.251,0.27,0.445,0.519,0.52
		c0.073,0.022,0.148,0.033,0.223,0.033c0.339,0,0.644-0.227,0.742-0.552l0.425-1.394c0.183-0.607,0.755-1.031,1.391-1.031
		c0.108,0,0.218,0.012,0.324,0.037l1.413,0.327c0.054,0.012,0.112,0.019,0.169,0.019c0.199,0,0.388-0.074,0.533-0.21
		c0.153-0.143,0.241-0.336,0.249-0.545s-0.067-0.408-0.209-0.561l-0.989-1.065c-0.515-0.557-0.516-1.429-0.001-1.986l0.989-1.065
		c0.177-0.19,0.248-0.454,0.191-0.706c-0.046-0.204-0.168-0.378-0.345-0.49c-0.126-0.079-0.27-0.121-0.417-0.121
		c-0.058,0-0.117,0.006-0.174,0.019l-1.409,0.326c-0.107,0.024-0.215,0.037-0.324,0.037c-0.636,0-1.209-0.425-1.392-1.033
		c0,0-0.424-1.392-0.425-1.393c-0.075-0.249-0.269-0.443-0.519-0.518c-0.073-0.022-0.149-0.033-0.225-0.033
		c-0.126,0-0.252,0.032-0.365,0.093c-0.183,0.098-0.316,0.261-0.375,0.459l-0.425,1.394c-0.183,0.607-0.755,1.031-1.391,1.031
		c-0.108,0-0.217-0.012-0.324-0.037l-1.413-0.327c-0.055-0.013-0.113-0.019-0.17-0.019c-0.198,0-0.387,0.075-0.533,0.21
		c-0.316,0.294-0.334,0.791-0.04,1.107l0.989,1.064c0.515,0.557,0.516,1.429,0.001,1.986l-0.989,1.065
		c-0.177,0.19-0.248,0.454-0.191,0.706c0.08,0.354,0.401,0.611,0.764,0.611c0.058,0,0.115-0.006,0.172-0.019l1.409-0.327
		C14.976,20.004,15.085,19.992,15.193,19.992z"/>
	<path d="M4.5,19.031c-0.066,0-0.131-0.013-0.192-0.038C4.121,18.915,4,18.734,4,18.531v-3.5H1.5c-0.827,0-1.5-0.673-1.5-1.5v-12
		c0-0.827,0.673-1.5,1.5-1.5h19c0.827,0,1.5,0.673,1.5,1.5v8c0,0.276-0.224,0.5-0.5,0.5S21,9.806,21,9.531v-8
		c0-0.276-0.224-0.5-0.5-0.5h-19c-0.276,0-0.5,0.224-0.5,0.5v12c0,0.276,0.224,0.5,0.5,0.5h3c0.276,0,0.5,0.224,0.5,0.5v2.793
		l3.146-3.146c0.094-0.094,0.22-0.146,0.354-0.146h1c0.276,0,0.5,0.224,0.5,0.5s-0.224,0.5-0.5,0.5H8.707l-3.854,3.854
		C4.759,18.979,4.634,19.031,4.5,19.031z"/>
</g>
</svg>
