<?xml version="1.0" encoding="utf-8"?>
<!-- Generator: Adobe Illustrator 22.1.0, SVG Export Plug-In . SVG Version: 6.00 Build 0)  -->
<svg version="1.1" id="Layer_1" xmlns="http://www.w3.org/2000/svg" xmlns:xlink="http://www.w3.org/1999/xlink" x="0px" y="0px"
	 viewBox="0 0 24 24" style="enable-background:new 0 0 24 24;" xml:space="preserve">
<g>
	<title>messages-bubble-square-check</title>
	<path d="M17.5,24c-3.584,0-6.5-2.916-6.5-6.5s2.916-6.5,6.5-6.5s6.5,2.916,6.5,6.5S21.084,24,17.5,24z M17.5,12
		c-3.033,0-5.5,2.467-5.5,5.5s2.467,5.5,5.5,5.5s5.5-2.467,5.5-5.5S20.533,12,17.5,12z"/>
	<path d="M16.667,20.429c-0.272,0-0.531-0.087-0.75-0.251c-0.046-0.034-0.091-0.073-0.133-0.115l-1.5-1.5
		c-0.195-0.195-0.195-0.512,0-0.707c0.094-0.094,0.22-0.146,0.354-0.146s0.259,0.052,0.354,0.146l1.5,1.5
		c0.008,0.008,0.017,0.015,0.026,0.022c0.044,0.033,0.096,0.051,0.15,0.051c0.012,0,0.025-0.001,0.037-0.002
		c0.067-0.01,0.124-0.043,0.165-0.098l2.905-3.872c0.093-0.125,0.243-0.2,0.4-0.2c0.109,0,0.213,0.035,0.3,0.1
		c0.107,0.08,0.176,0.197,0.195,0.329c0.019,0.132-0.015,0.264-0.095,0.371l-2.905,3.872c-0.201,0.268-0.494,0.44-0.825,0.488
		C16.785,20.425,16.726,20.429,16.667,20.429z"/>
	<path d="M4.5,19c-0.066,0-0.131-0.013-0.192-0.038C4.121,18.885,4,18.703,4,18.5V15H1.5C0.673,15,0,14.327,0,13.5v-12
		C0,0.673,0.673,0,1.5,0h19C21.327,0,22,0.673,22,1.5v8c0,0.276-0.224,0.5-0.5,0.5S21,9.776,21,9.5v-8C21,1.224,20.776,1,20.5,1h-19
		C1.224,1,1,1.224,1,1.5v12C1,13.776,1.224,14,1.5,14h3C4.776,14,5,14.224,5,14.5v2.793l3.146-3.146C8.241,14.052,8.366,14,8.5,14h1
		c0.276,0,0.5,0.224,0.5,0.5S9.776,15,9.5,15H8.707l-3.854,3.854C4.759,18.948,4.634,19,4.5,19z"/>
</g>
</svg>
