<?xml version="1.0" encoding="utf-8"?>
<!-- Generator: Adobe Illustrator 22.1.0, SVG Export Plug-In . SVG Version: 6.00 Build 0)  -->
<svg version="1.1" id="Layer_1" xmlns="http://www.w3.org/2000/svg" xmlns:xlink="http://www.w3.org/1999/xlink" x="0px" y="0px"
	 viewBox="0 0 24 24" style="enable-background:new 0 0 24 24;" xml:space="preserve">
<g>
	<title>messages-bubble-star-1</title>
	<path d="M7.5,18.501c-0.066,0-0.131-0.013-0.192-0.038C7.121,18.385,7,18.204,7,18.001v-3.5c-3.849-0.011-6.989-3.151-7-6.999
		c0-3.996,3.271-7.501,7-7.501h8c3.729,0,7,3.505,7,7.5c0.001,0.929-0.18,1.835-0.539,2.693c-0.078,0.187-0.26,0.307-0.462,0.307
		c-0.066,0-0.131-0.013-0.193-0.039c-0.123-0.051-0.219-0.148-0.27-0.271c-0.051-0.124-0.05-0.259,0.001-0.383
		c0.307-0.734,0.463-1.51,0.461-2.306c0-3.463-2.804-6.501-6-6.501H7c-3.196,0-6,3.037-6,6.5c0.01,3.298,2.702,5.99,6.001,6H7.5
		c0.276,0,0.5,0.224,0.5,0.5v2.793l1.146-1.146c0.094-0.094,0.22-0.146,0.354-0.146s0.259,0.052,0.354,0.146
		c0.195,0.195,0.195,0.512,0,0.707l-2,2C7.759,18.449,7.633,18.501,7.5,18.501z"/>
	<path d="M13.629,24c-0.112,0-0.225-0.015-0.335-0.044c-0.332-0.089-0.609-0.302-0.781-0.599c-0.199-0.344-0.226-0.769-0.073-1.137
		l1.299-2.988l-2.33-2.075c-0.509-0.451-0.556-1.232-0.105-1.741C11.543,15.148,11.869,15,12.223,15l0.053,0.001l2.652,0
		l1.411-3.268c0.242-0.452,0.687-0.721,1.168-0.721c0.212,0,0.424,0.054,0.612,0.155c0.224,0.12,0.406,0.302,0.527,0.526
		c0.003,0.006,0.016,0.032,0.019,0.039l1.409,3.269h2.666L22.78,15c0.304,0,0.598,0.117,0.827,0.33
		c0.242,0.224,0.382,0.529,0.394,0.859c0.014,0.37-0.136,0.723-0.412,0.969l-2.329,2.075l1.295,2.981
		c0.134,0.321,0.135,0.671,0.005,0.989s-0.377,0.566-0.693,0.698c-0.156,0.065-0.322,0.098-0.493,0.098l0,0
		c-0.227,0-0.449-0.059-0.644-0.171l-3.23-1.82l-3.234,1.823C14.073,23.941,13.852,24,13.629,24z M12.237,16
		c-0.074,0-0.137,0.027-0.183,0.079c-0.041,0.046-0.062,0.106-0.058,0.169c0.004,0.063,0.031,0.119,0.078,0.161l2.601,2.317
		c0.162,0.145,0.212,0.375,0.126,0.573l-1.44,3.313c-0.031,0.075-0.024,0.17,0.019,0.245c0.038,0.066,0.1,0.113,0.173,0.133
		c0.025,0.007,0.05,0.01,0.075,0.01c0.049,0,0.098-0.013,0.142-0.039l3.484-1.963c0.075-0.042,0.16-0.064,0.246-0.064
		s0.171,0.022,0.246,0.064l3.48,1.961C21.272,22.986,21.323,23,21.374,23c0.038,0,0.074-0.007,0.108-0.021
		c0.146-0.061,0.214-0.228,0.154-0.373l-1.437-3.306c-0.086-0.198-0.036-0.428,0.126-0.572l2.6-2.317
		c0.052-0.047,0.081-0.114,0.078-0.184c-0.002-0.062-0.029-0.121-0.075-0.163C22.883,16.022,22.827,16,22.766,16l-3.021,0
		c-0.2,0-0.381-0.119-0.459-0.303l-1.528-3.544c-0.028-0.045-0.067-0.082-0.113-0.107c-0.044-0.024-0.092-0.036-0.142-0.036
		c-0.111,0-0.213,0.06-0.265,0.157l-1.522,3.531c-0.079,0.183-0.259,0.302-0.459,0.302L12.237,16z"/>
</g>
</svg>
