<?xml version="1.0" encoding="utf-8"?>
<!-- Generator: Adobe Illustrator 22.1.0, SVG Export Plug-In . SVG Version: 6.00 Build 0)  -->
<svg version="1.1" id="Layer_1" xmlns="http://www.w3.org/2000/svg" xmlns:xlink="http://www.w3.org/1999/xlink" x="0px" y="0px"
	 viewBox="0 0 24 24" style="enable-background:new 0 0 24 24;" xml:space="preserve">
<g>
	<title>messages-bubble-square-lock</title>
	<path d="M15.5,24c-0.827,0-1.5-0.673-1.5-1.5v-5.999c0-0.827,0.673-1.5,1.5-1.5H16V14c0-1.654,1.346-3,3-3s3,1.346,3,3v1.001h0.5
		c0.827,0,1.5,0.673,1.5,1.5V22.5c0,0.827-0.673,1.5-1.5,1.5H15.5z M15.5,16.001c-0.276,0-0.5,0.224-0.5,0.5V22.5
		c0,0.276,0.224,0.5,0.5,0.5h7c0.276,0,0.5-0.224,0.5-0.5v-5.999c0-0.276-0.224-0.5-0.5-0.5H15.5z M21,15v-1c0-1.103-0.897-2-2-2
		s-2,0.897-2,2L21,15z"/>
	<path d="M19,21.313c-0.965,0-1.75-0.785-1.75-1.75s0.785-1.75,1.75-1.75s1.75,0.785,1.75,1.75S19.965,21.313,19,21.313z M19,18.813
		c-0.414,0-0.75,0.336-0.75,0.75s0.336,0.75,0.75,0.75s0.75-0.336,0.75-0.75S19.414,18.813,19,18.813z"/>
	<path d="M4.5,19c-0.066,0-0.131-0.013-0.192-0.038C4.121,18.885,4,18.703,4,18.5V15H1.5C0.673,15,0,14.327,0,13.5v-12
		C0,0.673,0.673,0,1.5,0h19C21.327,0,22,0.673,22,1.5v8c0,0.276-0.224,0.5-0.5,0.5S21,9.776,21,9.5v-8C21,1.224,20.776,1,20.5,1h-19
		C1.224,1,1,1.224,1,1.5v12C1,13.776,1.224,14,1.5,14h3C4.776,14,5,14.224,5,14.5v2.793l3.146-3.146C8.241,14.052,8.366,14,8.5,14
		H13c0.276,0,0.5,0.224,0.5,0.5S13.276,15,13,15H8.707l-3.854,3.854C4.759,18.948,4.634,19,4.5,19z"/>
</g>
</svg>
