<?xml version="1.0" encoding="utf-8"?>
<!-- Generator: Adobe Illustrator 22.1.0, SVG Export Plug-In . SVG Version: 6.00 Build 0)  -->
<svg version="1.1" id="Layer_1" xmlns="http://www.w3.org/2000/svg" xmlns:xlink="http://www.w3.org/1999/xlink" x="0px" y="0px"
	 viewBox="0 0 24 24" style="enable-background:new 0 0 24 24;" xml:space="preserve">
<g>
	<title>messages-bubble-warning-triangle</title>
	<circle cx="17.499" cy="20.75" r="0.75"/>
	<path d="M17.499,19c-0.276,0-0.5-0.224-0.5-0.5v-3c0-0.276,0.224-0.5,0.5-0.5s0.5,0.224,0.5,0.5v3
		C17.999,18.776,17.775,19,17.499,19z"/>
	<path d="M12.443,23.996c-0.506,0-0.966-0.256-1.232-0.684c-0.263-0.427-0.282-0.968-0.049-1.411l5.056-9.634
		c0.138-0.258,0.345-0.466,0.601-0.602c0.209-0.111,0.444-0.17,0.679-0.17c0.144,0,0.287,0.021,0.425,0.064
		c0.367,0.112,0.669,0.36,0.851,0.698c0.002,0.003,5.062,9.644,5.062,9.644c0.233,0.443,0.214,0.982-0.048,1.409
		c-0.267,0.43-0.727,0.686-1.231,0.686H12.443z M17.498,12.496c-0.072,0-0.145,0.018-0.21,0.053
		c-0.079,0.042-0.144,0.106-0.186,0.186l-5.054,9.631c-0.069,0.132-0.064,0.293,0.014,0.419c0.082,0.131,0.224,0.21,0.38,0.21
		h10.114c0.157,0,0.3-0.079,0.382-0.212c0.077-0.125,0.083-0.286,0.013-0.417l-5.056-9.634c-0.055-0.104-0.15-0.182-0.264-0.217
		C17.587,12.503,17.543,12.496,17.498,12.496z"/>
	<path d="M1.499,20c-0.132,0-0.257-0.051-0.351-0.144c-0.147-0.146-0.19-0.37-0.106-0.559l1.862-4.189
		c-1.795-1.523-2.851-3.733-2.905-6.096c0-2.418,1.152-4.685,3.244-6.389C5.32,0.931,8.075,0,10.999,0c6.066,0,11,4.037,11,9
		c-0.006,1.301-0.347,2.585-0.986,3.716c-0.089,0.157-0.256,0.254-0.436,0.254c-0.085,0-0.17-0.022-0.244-0.064
		c-0.241-0.137-0.326-0.442-0.191-0.682c0.555-0.983,0.852-2.098,0.857-3.226c0-4.41-4.486-7.998-10-7.998s-10,3.589-10,8
		c0.05,2.191,1.079,4.221,2.823,5.564c0.183,0.141,0.246,0.387,0.152,0.599L2.495,18.49l4.432-2.044
		c0.065-0.03,0.138-0.046,0.209-0.046c0.052,0,0.104,0.008,0.154,0.025C8.486,16.806,9.73,17,10.987,17
		c0.218-0.002,0.449-0.012,0.746-0.03c0,0,0.055-0.003,0.06-0.003c0.267,0,0.488,0.206,0.504,0.469
		c0.008,0.133-0.036,0.262-0.125,0.362c-0.089,0.1-0.211,0.159-0.344,0.167l-0.035,0.002C11.529,17.984,11.272,18,11.005,18
		c-1.312,0-2.595-0.19-3.834-0.565l-5.463,2.519C1.642,19.985,1.572,20,1.499,20z"/>
</g>
</svg>
