<?xml version="1.0" encoding="utf-8"?>
<!-- Generator: Adobe Illustrator 22.1.0, SVG Export Plug-In . SVG Version: 6.00 Build 0)  -->
<svg version="1.1" id="Layer_1" xmlns="http://www.w3.org/2000/svg" xmlns:xlink="http://www.w3.org/1999/xlink" x="0px" y="0px"
	 viewBox="0 0 24 24" style="enable-background:new 0 0 24 24;" xml:space="preserve">
<g>
	<title>messages-bubble-disable</title>
	<path d="M17.5,24.001c-1.72,0-3.341-0.667-4.567-1.879c-0.01-0.008-0.021-0.016-0.029-0.024c-0.009-0.009-0.018-0.02-0.027-0.032
		C11.671,20.851,11,19.226,11,17.501c0-3.584,2.916-6.5,6.5-6.5c1.72,0,3.341,0.667,4.567,1.879c0.011,0.008,0.021,0.017,0.03,0.025
		c0.009,0.009,0.019,0.021,0.027,0.032C23.33,14.153,24,15.777,24,17.501C24,21.086,21.085,24.001,17.5,24.001z M13.984,21.726
		c0.988,0.824,2.227,1.275,3.517,1.275c3.033,0,5.5-2.467,5.5-5.5c0-1.29-0.451-2.529-1.275-3.517L13.984,21.726z M17.5,12.001
		c-3.033,0-5.5,2.467-5.5,5.5c0,1.291,0.451,2.53,1.276,3.518l7.742-7.742C20.03,12.452,18.791,12.001,17.5,12.001z"/>
	<path d="M1.5,20c-0.132,0-0.257-0.051-0.351-0.144c-0.147-0.145-0.19-0.37-0.106-0.559l1.862-4.19
		c-1.795-1.522-2.851-3.733-2.905-6.095c0-2.418,1.152-4.685,3.244-6.389C5.321,0.932,8.076,0,11,0c6.065,0,11,4.037,11,9
		c-0.004,0.535-0.065,1.068-0.181,1.586c-0.052,0.23-0.251,0.391-0.486,0.391c-0.038,0-0.075-0.004-0.112-0.013
		c-0.129-0.029-0.24-0.107-0.312-0.22c-0.072-0.113-0.095-0.247-0.065-0.377c0.101-0.45,0.154-0.911,0.157-1.371
		C21,4.588,16.514,1,11,1C5.486,1,1,4.589,1,9c0.05,2.191,1.079,4.221,2.823,5.563c0.183,0.142,0.246,0.388,0.152,0.599L2.496,18.49
		l4.431-2.044c0.066-0.03,0.138-0.046,0.21-0.046c0.051,0,0.101,0.008,0.15,0.023c0.74,0.233,1.505,0.394,2.274,0.48
		c0.133,0.015,0.252,0.081,0.335,0.185c0.083,0.104,0.121,0.235,0.106,0.368C9.974,17.709,9.76,17.9,9.505,17.9
		c-0.018,0-0.036-0.001-0.054-0.003c-0.769-0.086-1.535-0.242-2.277-0.463l-5.464,2.52C1.643,19.985,1.573,20,1.5,20z"/>
</g>
</svg>
