<?xml version="1.0" encoding="utf-8"?>
<!-- Generator: Adobe Illustrator 22.1.0, SVG Export Plug-In . SVG Version: 6.00 Build 0)  -->
<svg version="1.1" id="Layer_1" xmlns="http://www.w3.org/2000/svg" xmlns:xlink="http://www.w3.org/1999/xlink" x="0px" y="0px"
	 viewBox="0 0 24 24" style="enable-background:new 0 0 24 24;" xml:space="preserve">
<g>
	<title>messages-bubble-image</title>
	<path d="M7.694,14.5c-0.189,0-0.366-0.11-0.449-0.28c-0.083-0.171-0.062-0.377,0.054-0.527l2.451-3.151
		C10.049,10.194,10.467,10,10.906,10c0.271,0,0.537,0.074,0.771,0.215c0.015,0.009,0.03,0.019,0.045,0.03l1.382,1.057l1.358-1.748
		c0.294-0.353,0.717-0.552,1.167-0.552c0.349,0,0.689,0.123,0.957,0.346c0.101,0.084,0.192,0.182,0.269,0.292l2.754,4.08
		c0.104,0.154,0.114,0.351,0.027,0.514c-0.087,0.164-0.256,0.265-0.441,0.265H7.694z M18.253,13.5l-2.223-3.293
		c-0.021-0.03-0.052-0.063-0.085-0.091C15.856,10.041,15.742,10,15.626,10c-0.149,0-0.29,0.066-0.385,0.18l-1.652,2.127
		c-0.096,0.123-0.24,0.193-0.395,0.193c-0.111,0-0.215-0.035-0.303-0.103l-1.749-1.338C11.068,11.021,10.986,11,10.904,11
		c-0.146,0-0.284,0.064-0.379,0.175L8.716,13.5H18.253z"/>
	<path d="M9.194,8.501c-1.103,0-2-0.897-2-2s0.897-2,2-2s2,0.897,2,2S10.297,8.501,9.194,8.501z M9.194,5.501c-0.551,0-1,0.449-1,1
		s0.449,1,1,1s1-0.449,1-1S9.745,5.501,9.194,5.501z"/>
	<path d="M1.694,23.5c-0.122,0-0.24-0.044-0.331-0.125c-0.161-0.142-0.213-0.37-0.131-0.567l2.255-5.413
		c-2.041-1.713-3.239-4.211-3.294-6.885c0-5.522,5.383-10.01,12-10.01s12,4.486,12,10c0,5.514-5.383,10-12,10
		c-1.38,0-2.748-0.202-4.068-0.599l-6.184,3.533C1.867,23.477,1.781,23.5,1.694,23.5z M12.194,1.5c-6.065,0-11,4.037-11,9
		c0.051,2.499,1.219,4.813,3.205,6.345c0.179,0.138,0.243,0.38,0.156,0.588L2.72,21.838l5.099-2.913
		c0.076-0.043,0.162-0.066,0.248-0.066c0.051,0,0.102,0.008,0.151,0.023c1.287,0.41,2.624,0.618,3.976,0.618c6.066,0,11-4.037,11-9
		S18.26,1.5,12.194,1.5z"/>
</g>
</svg>
