<?xml version="1.0" encoding="utf-8"?>
<!-- Generator: Adobe Illustrator 22.1.0, SVG Export Plug-In . SVG Version: 6.00 Build 0)  -->
<svg version="1.1" id="Layer_1" xmlns="http://www.w3.org/2000/svg" xmlns:xlink="http://www.w3.org/1999/xlink" x="0px" y="0px"
	 viewBox="0 0 24 24" style="enable-background:new 0 0 24 24;" xml:space="preserve">
<g>
	<title>messages-bubble-check-1</title>
	<path d="M7.5,18.5c-0.066,0-0.131-0.013-0.192-0.038C7.121,18.385,7,18.203,7,18v-3.5c-3.849-0.011-6.989-3.151-7-6.999
		C0,3.505,3.271,0,7,0h8c3.729,0,7,3.505,7,7.5c0.001,0.929-0.18,1.835-0.539,2.693C21.383,10.38,21.202,10.5,21,10.5
		c-0.066,0-0.131-0.013-0.192-0.039c-0.124-0.052-0.219-0.148-0.27-0.272c-0.051-0.124-0.05-0.259,0.001-0.383
		c0.307-0.734,0.463-1.51,0.461-2.306C21,4.038,18.196,1,15,1H7C3.804,1,1,4.037,1,7.5c0.01,3.298,2.702,5.99,6.001,6H7.5
		C7.776,13.5,8,13.724,8,14v2.793l1.146-1.146C9.241,15.552,9.366,15.5,9.5,15.5s0.259,0.052,0.354,0.146
		c0.195,0.195,0.195,0.512,0,0.707l-2,2C7.759,18.448,7.634,18.5,7.5,18.5z"/>
	<path d="M17.5,24c-3.584,0-6.5-2.916-6.5-6.5s2.916-6.5,6.5-6.5s6.5,2.916,6.5,6.5S21.084,24,17.5,24z M17.5,12
		c-3.033,0-5.5,2.467-5.5,5.5s2.467,5.5,5.5,5.5s5.5-2.467,5.5-5.5S20.533,12,17.5,12z"/>
	<path d="M16.667,20.429c-0.272,0-0.531-0.087-0.75-0.251c-0.046-0.034-0.091-0.073-0.133-0.115l-1.5-1.5
		c-0.195-0.195-0.195-0.512,0-0.707c0.094-0.094,0.22-0.146,0.354-0.146l0,0c0.134,0,0.259,0.052,0.354,0.146l1.5,1.5
		c0.008,0.008,0.017,0.015,0.026,0.022c0.044,0.033,0.096,0.051,0.15,0.051c0.012,0,0.025-0.001,0.037-0.002
		c0.067-0.01,0.124-0.043,0.165-0.098l2.905-3.873c0.094-0.125,0.243-0.2,0.4-0.2c0.109,0,0.212,0.034,0.3,0.1
		c0.107,0.08,0.177,0.197,0.196,0.33c0.019,0.132-0.015,0.264-0.095,0.371l-2.905,3.874c-0.201,0.268-0.494,0.44-0.825,0.488
		C16.785,20.425,16.726,20.429,16.667,20.429z"/>
</g>
</svg>
