<?xml version="1.0" encoding="utf-8"?>
<!-- Generator: Adobe Illustrator 22.1.0, SVG Export Plug-In . SVG Version: 6.00 Build 0)  -->
<svg version="1.1" id="Layer_1" xmlns="http://www.w3.org/2000/svg" xmlns:xlink="http://www.w3.org/1999/xlink" x="0px" y="0px"
	 viewBox="0 0 24 24" style="enable-background:new 0 0 24 24;" xml:space="preserve">
<g>
	<title>messages-bubble-typing_1</title>
	<path d="M6.002,12.501c-1.103,0-2-0.897-2-2s0.897-2,2-2s2,0.897,2,2S7.105,12.501,6.002,12.501z M6.002,9.501
		c-0.551,0-1,0.449-1,1s0.449,1,1,1s1-0.449,1-1S6.553,9.501,6.002,9.501z"/>
	<path d="M12.002,12.501c-1.103,0-2-0.897-2-2s0.897-2,2-2s2,0.897,2,2S13.105,12.501,12.002,12.501z M12.002,9.501
		c-0.551,0-1,0.449-1,1s0.449,1,1,1c0.552,0,1-0.449,1-1S12.553,9.501,12.002,9.501z"/>
	<path d="M18.002,12.501c-1.103,0-2-0.897-2-2s0.897-2,2-2s2,0.897,2,2S19.105,12.501,18.002,12.501z M18.002,9.501
		c-0.552,0-1,0.449-1,1s0.448,1,1,1s1-0.449,1-1S18.553,9.501,18.002,9.501z"/>
	<path d="M1.5,23.5c-0.122,0-0.24-0.044-0.331-0.125c-0.161-0.142-0.213-0.37-0.131-0.567l2.256-5.413
		C1.253,15.682,0.055,13.184,0,10.51C0,4.988,5.383,0.5,12,0.5c6.617,0,12,4.486,12,10c0,5.514-5.383,10-12,10
		c-1.38,0-2.749-0.202-4.068-0.599l-6.183,3.533C1.673,23.477,1.587,23.5,1.5,23.5z M12,1.5c-6.065,0-11,4.037-11,9
		c0.051,2.499,1.219,4.813,3.205,6.345c0.179,0.138,0.243,0.38,0.156,0.588l-1.836,4.405l5.098-2.913
		c0.075-0.043,0.161-0.066,0.248-0.066c0.051,0,0.102,0.008,0.151,0.023C9.31,19.292,10.648,19.5,12,19.5c6.065,0,11-4.037,11-9
		S18.065,1.5,12,1.5z"/>
</g>
</svg>
