<?xml version="1.0" encoding="utf-8"?>
<!-- Generator: Adobe Illustrator 22.1.0, SVG Export Plug-In . SVG Version: 6.00 Build 0)  -->
<svg version="1.1" id="Layer_1" xmlns="http://www.w3.org/2000/svg" xmlns:xlink="http://www.w3.org/1999/xlink" x="0px" y="0px"
	 viewBox="0 0 24 24" style="enable-background:new 0 0 24 24;" xml:space="preserve">
<g>
	<title>messages-bubble-quote</title>
	<path d="M10.667,9c-0.276,0-0.5-0.224-0.5-0.5V6c0-0.276,0.224-0.5,0.5-0.5s0.5,0.224,0.5,0.5v2.5C11.167,8.776,10.943,9,10.667,9z
		"/>
	<path d="M9.666,15.5c-0.276,0-0.5-0.224-0.5-0.5s0.224-0.5,0.5-0.5s0.5-0.224,0.5-0.5v-0.768c-0.301,0.175-0.643,0.268-1,0.268
		c-1.103,0-2-0.897-2-2s0.897-2,2-2s2,0.897,2,2V14C11.166,14.827,10.493,15.5,9.666,15.5z M9.166,10.5c-0.551,0-1,0.449-1,1
		s0.449,1,1,1s1-0.449,1-1S9.717,10.5,9.166,10.5z"/>
	<path d="M14.166,14.5c-0.276,0-0.5-0.224-0.5-0.5s0.224-0.5,0.5-0.5c1.103,0,2-1.346,2-3s-0.897-3-2-3c-0.276,0-0.5-0.224-0.5-0.5
		s0.224-0.5,0.5-0.5c1.654,0,3,1.794,3,4S15.82,14.5,14.166,14.5z"/>
	<path d="M1.667,23.5c-0.122,0-0.24-0.044-0.331-0.125c-0.161-0.142-0.213-0.37-0.131-0.567l2.256-5.413
		c-2.041-1.713-3.239-4.211-3.294-6.885c0-5.522,5.383-10.01,12-10.01c6.617,0,12,4.486,12,10c0,5.514-5.383,10-12,10
		c-1.381,0-2.749-0.202-4.068-0.599l-6.183,3.533C1.84,23.477,1.754,23.5,1.667,23.5z M12.167,1.5c-6.065,0-11,4.037-11,9
		c0.051,2.499,1.22,4.813,3.205,6.345c0.179,0.138,0.243,0.38,0.156,0.588l-1.836,4.405l5.098-2.913
		c0.076-0.043,0.161-0.066,0.248-0.066c0.051,0,0.102,0.008,0.151,0.023c1.287,0.41,2.624,0.618,3.975,0.618
		c6.068,0,11.002-4.037,11.002-9S18.232,1.5,12.167,1.5z"/>
</g>
</svg>
