<?xml version="1.0" encoding="utf-8"?>
<!-- Generator: Adobe Illustrator 22.1.0, SVG Export Plug-In . SVG Version: 6.00 Build 0)  -->
<svg version="1.1" id="Layer_1" xmlns="http://www.w3.org/2000/svg" xmlns:xlink="http://www.w3.org/1999/xlink" x="0px" y="0px"
	 viewBox="0 0 24 24" style="enable-background:new 0 0 24 24;" xml:space="preserve">
<g>
	<title>messages-bubble-quotation</title>
	<path d="M8.639,14.5c-0.275,0-0.499-0.223-0.5-0.498c-0.001-0.276,0.223-0.501,0.498-0.502c0.825-0.003,1.499-0.677,1.502-1.502v-1
		c-0.428,0.323-0.952,0.501-1.5,0.501c-1.379,0-2.5-1.121-2.5-2.5s1.121-2.5,2.5-2.5s2.5,1.121,2.5,2.5v3
		c-0.005,1.374-1.126,2.495-2.498,2.5C8.64,14.5,8.639,14.5,8.639,14.5z M8.639,7.5c-0.827,0-1.5,0.673-1.5,1.5s0.673,1.5,1.5,1.5
		s1.5-0.673,1.5-1.5S9.466,7.5,8.639,7.5z"/>
	<path d="M15.639,14.5c-0.275,0-0.499-0.223-0.5-0.498c-0.001-0.276,0.222-0.501,0.498-0.502c0.825-0.003,1.499-0.677,1.502-1.502
		v-1c-0.428,0.323-0.952,0.501-1.5,0.501c-1.378,0-2.5-1.121-2.5-2.5s1.122-2.5,2.5-2.5s2.5,1.121,2.5,2.5v3
		c-0.005,1.374-1.125,2.495-2.498,2.5C15.64,14.5,15.64,14.5,15.639,14.5L15.639,14.5z M15.639,7.5c-0.827,0-1.5,0.673-1.5,1.5
		s0.673,1.5,1.5,1.5s1.5-0.673,1.5-1.5S16.466,7.5,15.639,7.5z"/>
	<path d="M1.639,23.5c-0.122,0-0.24-0.044-0.331-0.125c-0.161-0.142-0.213-0.37-0.131-0.567l2.255-5.413
		c-2.042-1.713-3.239-4.211-3.294-6.885c0-5.522,5.383-10.01,12-10.01s12,4.486,12,10c0,5.514-5.383,10-12,10
		c-1.38,0-2.749-0.202-4.068-0.599l-6.183,3.533C1.812,23.477,1.726,23.5,1.639,23.5z M12.139,1.5c-6.065,0-11,4.037-11,9
		c0.051,2.499,1.219,4.813,3.205,6.345c0.179,0.138,0.243,0.38,0.156,0.588l-1.835,4.405l5.098-2.913
		c0.075-0.043,0.161-0.066,0.248-0.066c0.051,0,0.102,0.008,0.151,0.023c1.287,0.41,2.625,0.618,3.977,0.618c6.065,0,11-4.037,11-9
		S18.204,1.5,12.139,1.5z"/>
</g>
</svg>
