<?xml version="1.0" encoding="utf-8"?>
<!-- Generator: Adobe Illustrator 22.1.0, SVG Export Plug-In . SVG Version: 6.00 Build 0)  -->
<svg version="1.1" id="Layer_1" xmlns="http://www.w3.org/2000/svg" xmlns:xlink="http://www.w3.org/1999/xlink" x="0px" y="0px"
	 viewBox="0 0 24 24" style="enable-background:new 0 0 24 24;" xml:space="preserve">
<g>
	<title>messages-bubble-share</title>
	<path d="M21.25,24c-1.516,0-2.75-1.234-2.75-2.75c0-0.179,0.018-0.36,0.055-0.539l-2.482-0.993C15.57,20.514,14.699,21,13.75,21
		C12.234,21,11,19.766,11,18.25s1.234-2.75,2.75-2.75c0.797,0,1.535,0.337,2.058,0.932l2.868-1.721
		C18.559,14.402,18.5,14.08,18.5,13.75c0-1.516,1.234-2.75,2.75-2.75S24,12.234,24,13.75s-1.234,2.75-2.75,2.75
		c-0.797,0-1.535-0.337-2.058-0.932l-2.868,1.72c0.117,0.309,0.176,0.632,0.176,0.961c0,0.18-0.018,0.361-0.055,0.54l2.482,0.992
		c0.503-0.796,1.374-1.282,2.323-1.282c1.516,0,2.75,1.234,2.75,2.75S22.767,24,21.25,24z M21.25,19.5
		c-0.965,0-1.75,0.785-1.75,1.75S20.286,23,21.25,23S23,22.215,23,21.25S22.215,19.5,21.25,19.5z M13.75,16.5
		c-0.965,0-1.75,0.785-1.75,1.75S12.786,20,13.75,20s1.75-0.785,1.75-1.75c0-0.304-0.081-0.605-0.235-0.871
		c-0.008-0.01-0.015-0.02-0.02-0.028c-0.006-0.01-0.011-0.021-0.016-0.032C14.917,16.813,14.361,16.5,13.75,16.5z M19.771,14.681
		c0.313,0.506,0.869,0.819,1.48,0.819c0.965,0,1.75-0.785,1.75-1.75S22.215,12,21.25,12s-1.75,0.785-1.75,1.75
		c0,0.304,0.081,0.605,0.235,0.872c0.005,0.007,0.01,0.013,0.014,0.02C19.757,14.653,19.765,14.667,19.771,14.681z"/>
	<path d="M1.5,20c-0.132,0-0.257-0.051-0.351-0.144c-0.147-0.146-0.19-0.37-0.106-0.559l1.862-4.189
		c-1.795-1.523-2.851-3.734-2.905-6.096c0-2.418,1.152-4.685,3.244-6.389C5.321,0.931,8.076,0,11,0c6.065,0,11,4.037,11,9
		c0,0.181-0.008,0.364-0.023,0.542C21.956,9.799,21.737,10,21.48,10c-0.007,0-0.036-0.001-0.043-0.002
		c-0.133-0.011-0.253-0.073-0.34-0.176c-0.086-0.102-0.127-0.232-0.116-0.365C20.994,9.306,21,9.151,21,9c0-4.411-4.486-8-10-8
		C5.486,1,1,4.589,1,9c0.05,2.191,1.079,4.221,2.823,5.564c0.183,0.141,0.246,0.387,0.152,0.599L2.496,18.49l4.431-2.044
		c0.066-0.03,0.138-0.046,0.21-0.046c0.051,0,0.1,0.008,0.149,0.022c0.741,0.232,1.506,0.394,2.275,0.48
		c0.274,0.031,0.472,0.279,0.441,0.553C9.974,17.709,9.76,17.9,9.505,17.9c-0.018,0-0.036-0.001-0.054-0.003
		c-0.77-0.087-1.535-0.242-2.277-0.463l-5.464,2.52C1.643,19.985,1.573,20,1.5,20z"/>
</g>
</svg>
