<?xml version="1.0" encoding="utf-8"?>
<!-- Generator: Adobe Illustrator 22.1.0, SVG Export Plug-In . SVG Version: 6.00 Build 0)  -->
<svg version="1.1" id="Layer_1" xmlns="http://www.w3.org/2000/svg" xmlns:xlink="http://www.w3.org/1999/xlink" x="0px" y="0px"
	 viewBox="0 0 24 24" style="enable-background:new 0 0 24 24;" xml:space="preserve">
<g>
	<title>messages-bubble-subtract-1</title>
	<path d="M7.5,18.5c-0.066,0-0.131-0.013-0.192-0.038C7.121,18.385,7,18.203,7,18v-3.5c-3.849-0.011-6.989-3.15-7-6.998
		C0,3.505,3.271,0,7,0h8c3.729,0,7,3.505,7,7.5c0.001,0.929-0.18,1.835-0.539,2.693C21.383,10.38,21.202,10.5,21,10.5
		c-0.067,0-0.132-0.013-0.193-0.039c-0.254-0.106-0.374-0.4-0.268-0.654c0.307-0.734,0.463-1.51,0.461-2.306C21,4.038,18.196,1,15,1
		H7C3.804,1,1,4.038,1,7.5c0.01,3.299,2.702,5.991,6.001,6H7.5C7.776,13.5,8,13.724,8,14v2.793l1.146-1.146
		C9.241,15.552,9.366,15.5,9.5,15.5s0.259,0.052,0.354,0.146c0.195,0.195,0.195,0.512,0,0.707l-2,2
		C7.759,18.448,7.634,18.5,7.5,18.5z"/>
	<path d="M17.5,24.001c-3.584,0-6.5-2.916-6.5-6.5s2.916-6.5,6.5-6.5s6.5,2.916,6.5,6.5S21.084,24.001,17.5,24.001z M17.5,12.001
		c-3.033,0-5.5,2.467-5.5,5.5s2.467,5.5,5.5,5.5s5.5-2.467,5.5-5.5S20.533,12.001,17.5,12.001z"/>
	<path d="M14.5,18.001c-0.276,0-0.5-0.224-0.5-0.5s0.224-0.5,0.5-0.5h6c0.276,0,0.5,0.224,0.5,0.5s-0.224,0.5-0.5,0.5H14.5z"/>
</g>
</svg>
