<?xml version="1.0" encoding="utf-8"?>
<!-- Generator: Adobe Illustrator 22.1.0, SVG Export Plug-In . SVG Version: 6.00 Build 0)  -->
<svg version="1.1" id="Layer_1" xmlns="http://www.w3.org/2000/svg" xmlns:xlink="http://www.w3.org/1999/xlink" x="0px" y="0px"
	 viewBox="0 0 24 24" style="enable-background:new 0 0 24 24;" xml:space="preserve">
<g>
	<title>messages-bubble-square-warning-triangle</title>
	<circle cx="17.499" cy="20.75" r="0.75"/>
	<path d="M17.499,19c-0.276,0-0.5-0.224-0.5-0.5v-3c0-0.276,0.224-0.5,0.5-0.5s0.5,0.224,0.5,0.5v3
		C17.999,18.776,17.775,19,17.499,19z"/>
	<path d="M12.443,23.997c-0.506,0-0.966-0.256-1.232-0.684c-0.263-0.427-0.282-0.968-0.049-1.41l5.055-9.635
		c0.137-0.257,0.344-0.463,0.598-0.599c0.21-0.112,0.446-0.172,0.681-0.172c0.143,0,0.285,0.021,0.423,0.063
		c0.368,0.112,0.671,0.36,0.854,0.698c0.003,0.005,5.062,9.645,5.062,9.645c0.233,0.443,0.214,0.982-0.048,1.408
		c-0.267,0.43-0.727,0.686-1.231,0.686H12.443z M17.498,12.497c-0.074,0-0.145,0.018-0.211,0.053
		c-0.079,0.042-0.143,0.106-0.185,0.185l-5.054,9.632c-0.069,0.132-0.064,0.292,0.014,0.419c0.082,0.131,0.224,0.21,0.379,0.21
		h10.114c0.155,0,0.301-0.081,0.382-0.212c0.077-0.125,0.083-0.286,0.013-0.417l-5.056-9.635c-0.056-0.104-0.15-0.181-0.265-0.216
		C17.586,12.504,17.542,12.497,17.498,12.497z"/>
	<path d="M4.499,19c-0.066,0-0.131-0.013-0.192-0.038C4.12,18.884,3.999,18.703,3.999,18.5V15h-2.5c-0.827,0-1.5-0.673-1.5-1.5v-12
		c0-0.827,0.673-1.5,1.5-1.5h19c0.827,0,1.5,0.673,1.5,1.5V11c0,0.276-0.224,0.5-0.5,0.5s-0.5-0.224-0.5-0.5V1.5
		c0-0.276-0.224-0.5-0.5-0.5h-19c-0.276,0-0.5,0.224-0.5,0.5v12c0,0.276,0.224,0.5,0.5,0.5h3c0.276,0,0.5,0.224,0.5,0.5v2.793
		l3.146-3.146C8.24,14.052,8.365,14,8.499,14h2.5c0.276,0,0.5,0.224,0.5,0.5s-0.224,0.5-0.5,0.5H8.706l-3.854,3.854
		C4.758,18.948,4.632,19,4.499,19z"/>
</g>
</svg>
