<svg xmlns="http://www.w3.org/2000/svg" viewBox="0 0 24 24"><title>instrument-guitar</title><path d="M23.707,4.793l-.47-.47a.25.25,0,0,1,0-.353l.117-.116a1.5,1.5,0,0,0,0-2.122L22.268.646a1.5,1.5,0,0,0-2.122,0L20.03.763a.25.25,0,0,1-.353,0l-.47-.47a1,1,0,0,0-1.414,1.414l.47.47a.25.25,0,0,1,0,.353l-.233.233a.25.25,0,0,1-.353,0l-.47-.47a1,1,0,0,0-1.414,1.414l.469.47a.242.242,0,0,1,.073.176.249.249,0,0,1-.073.177l-.116.116h0a.859.859,0,0,0-.175.949.25.25,0,0,1-.053.279l-2.582,2.55a.5.5,0,0,1-.584.089,4.8,4.8,0,0,0-4.028-.263,4.135,4.135,0,0,0-2.389,2.6.484.484,0,0,1-.524.343A4.942,4.942,0,0,0,.531,13.938a7.037,7.037,0,0,0,1.751,7.746c1.084,1.084,4.3,3.375,7.735,1.753a5.009,5.009,0,0,0,2.753-5.282.5.5,0,0,1,.343-.523A4.143,4.143,0,0,0,15.72,15.24a4.791,4.791,0,0,0-.268-4.024.5.5,0,0,1,.09-.584L18.126,8.08a.248.248,0,0,1,.275-.052.88.88,0,0,0,.953-.174l.116-.117a.25.25,0,0,1,.353,0l.47.47a1,1,0,0,0,1.414-1.414l-.47-.47a.25.25,0,0,1,0-.353l.233-.233a.25.25,0,0,1,.353,0l.47.47a1,1,0,0,0,1.414-1.414ZM10.414,15.774a2.222,2.222,0,1,1,2.222-2.22A2.221,2.221,0,0,1,10.414,15.774ZM7.166,20.861a.75.75,0,0,1-1.061,0l-3-3A.75.75,0,0,1,4.166,16.8l3,3A.749.749,0,0,1,7.166,20.861Z"/></svg>