<svg xmlns="http://www.w3.org/2000/svg" viewBox="0 0 24 24"><title>instrument-piano</title><path d="M22.5,12.313a.5.5,0,0,0-.5-.5H16a.25.25,0,0,1-.25-.25v-.5a.25.25,0,0,1,.25-.25h2.032a.25.25,0,0,0,.225-.358L15.471,4.637a.751.751,0,0,1,1.354-.648l3.2,6.682a.25.25,0,0,0,.226.142H22a.5.5,0,0,0,.437-.743L20.056,5.785a.5.5,0,0,1,.181-.678,1.5,1.5,0,0,0,.505-2.06L19.446.909A1.5,1.5,0,0,0,17.385.4L1.741,9.885A.5.5,0,0,0,2,10.813H8a.25.25,0,0,1,.25.25v.5a.25.25,0,0,1-.25.25H2a.5.5,0,0,0-.5.5v3a1.5,1.5,0,0,0,.857,1.355.25.25,0,0,1,.143.226v5.919a1,1,0,0,0,2,0v-5.75a.25.25,0,0,1,.25-.25h14.5a.25.25,0,0,1,.25.25v5.75a1,1,0,1,0,2,0V16.894a.249.249,0,0,1,.142-.226,1.5,1.5,0,0,0,.858-1.355ZM9.75,8.813a.25.25,0,0,1,.25-.25h4a.25.25,0,0,1,.25.25v4.25a.25.25,0,0,1-.25.25H10a.25.25,0,0,1-.25-.25Z"/><path d="M14,17.813H10a1.5,1.5,0,0,0,0,3h1a.25.25,0,0,1,.25.25v1a.25.25,0,0,1-.25.25.75.75,0,0,0,0,1.5h2a.75.75,0,1,0,0-1.5.25.25,0,0,1-.25-.25v-1a.25.25,0,0,1,.25-.25h1a1.5,1.5,0,1,0,0-3Z"/></svg>