<svg xmlns="http://www.w3.org/2000/svg" viewBox="0 0 24 24"><title>instrument-contrabass-sheet</title><path d="M23.979,9.748A1.5,1.5,0,0,0,22.5,8H12.861a1.5,1.5,0,0,0-1.48,1.747l.666,4A1.5,1.5,0,0,0,13.527,15h1.9a.25.25,0,0,0,.25-.25V12.5a2,2,0,0,1,4,0v2.25a.25.25,0,0,0,.25.25h1.9a1.5,1.5,0,0,0,1.479-1.253Z"/><path d="M18.68,12.5a1,1,0,0,0-2,0v6.483a.247.247,0,0,1-.073.176l-3.134,3.134a1,1,0,1,0,1.414,1.414l1.367-1.366a.25.25,0,0,1,.426.177V23a1,1,0,0,0,2,0v-.482a.25.25,0,0,1,.427-.177l1.366,1.366a1,1,0,0,0,1.414-1.414l-3.133-3.134a.247.247,0,0,1-.074-.176Z"/><path d="M11,17.226a1,1,0,0,0-.7-.963,1.932,1.932,0,0,1-1.277-1.59,1.9,1.9,0,0,1,.737-1.895.5.5,0,0,0,.206-.349A4.381,4.381,0,0,0,8.885,9.011a4.51,4.51,0,0,0-2.2-1.354A.251.251,0,0,1,6.5,7.415V4.25A.25.25,0,0,1,6.75,4H7A1,1,0,0,0,7,2H6.75a.25.25,0,0,1-.25-.25V1a1,1,0,0,0-2,0v.75A.25.25,0,0,1,4.25,2H4A1,1,0,0,0,4,4h.25a.25.25,0,0,1,.25.25V7.415a.251.251,0,0,1-.185.242,4.51,4.51,0,0,0-2.2,1.355,4.379,4.379,0,0,0-1.082,3.417.5.5,0,0,0,.206.349,1.9,1.9,0,0,1,.736,1.894A1.934,1.934,0,0,1,.7,16.263a1,1,0,0,0-.7.963,5.334,5.334,0,0,0,3.145,4.757.25.25,0,0,0,.355-.226V21a2,2,0,0,1,4,0v.757a.25.25,0,0,0,.355.226A5.342,5.342,0,0,0,11,17.226Z"/><path d="M6.5,21a1,1,0,0,0-2,0v2a1,1,0,0,0,2,0Z"/></svg>