<svg xmlns="http://www.w3.org/2000/svg" viewBox="0 0 24 24"><title>notes-settings</title><path d="M10.3,17.5H2.249A.25.25,0,0,1,2,17.25V4.75a.25.25,0,0,1,.25-.25h1.5A.25.25,0,0,1,4,4.75V5A1,1,0,0,0,6,5V4.75a.25.25,0,0,1,.25-.25h1.5A.25.25,0,0,1,8,4.75V5a1,1,0,0,0,2,0V4.75a.25.25,0,0,1,.25-.25h1.5a.25.25,0,0,1,.25.25V5a1,1,0,1,0,2,0V4.75a.25.25,0,0,1,.25-.25h1a.25.25,0,0,1,.25.25V8.944a.246.246,0,0,0,.38.21,3.238,3.238,0,0,1,1.4-.548.245.245,0,0,0,.217-.24V4.5a2,2,0,0,0-2-2h-1.25A.25.25,0,0,1,14,2.25V1a1,1,0,0,0-2,0V2.25a.25.25,0,0,1-.25.25h-1.5A.25.25,0,0,1,10,2.25V1A1,1,0,0,0,8,1V2.25a.25.25,0,0,1-.25.25h-1.5A.25.25,0,0,1,6,2.25V1A1,1,0,0,0,4,1V2.25a.25.25,0,0,1-.25.25H2a2,2,0,0,0-2,2v13a2,2,0,0,0,2,2H9.787a.245.245,0,0,0,.242-.225,3.248,3.248,0,0,1,.491-1.4A.247.247,0,0,0,10.3,17.5Z"/><circle cx="17.749" cy="17.031" r="1.5"/><path d="M22.529,17.344a.464.464,0,0,1,0-.626l.988-1.064a1.783,1.783,0,0,0-1.7-2.953l-1.41.327a.451.451,0,0,1-.534-.311l-.424-1.392a1.774,1.774,0,0,0-3.4,0l-.424,1.391a.455.455,0,0,1-.533.312L13.682,12.7a1.783,1.783,0,0,0-1.7,2.953l.988,1.064a.464.464,0,0,1,0,.626l-.988,1.065a1.783,1.783,0,0,0,1.7,2.953l1.41-.327a.453.453,0,0,1,.534.311l.424,1.392a1.775,1.775,0,0,0,3.4,0l.424-1.392a.452.452,0,0,1,.533-.311l1.411.327a1.783,1.783,0,0,0,1.7-2.953Zm-4.78,2.687a3,3,0,1,1,3-3A3,3,0,0,1,17.749,20.031Z"/></svg>