<svg xmlns="http://www.w3.org/2000/svg" viewBox="0 0 24 24"><title>notes-warning</title><path d="M11.59,17.866a.25.25,0,0,0-.222-.366H2.251A.249.249,0,0,1,2,17.25V4.75a.249.249,0,0,1,.25-.25h1.5A.25.25,0,0,1,4,4.75V5A1,1,0,0,0,6,5V4.75a.249.249,0,0,1,.25-.25h1.5A.25.25,0,0,1,8,4.75V5a1,1,0,0,0,2,0V4.75a.249.249,0,0,1,.25-.25h1.5a.25.25,0,0,1,.25.25V5a1,1,0,0,0,2,0V4.75a.249.249,0,0,1,.25-.25h1a.25.25,0,0,1,.25.25v5.544a.246.246,0,0,0,.383.206,2.891,2.891,0,0,1,1.382-.49.248.248,0,0,0,.235-.244V4.5a2,2,0,0,0-2-2h-1.25A.249.249,0,0,1,14,2.25V1a1,1,0,0,0-2,0V2.25a.25.25,0,0,1-.25.25h-1.5A.249.249,0,0,1,10,2.25V1A1,1,0,0,0,8,1V2.25a.25.25,0,0,1-.25.25h-1.5A.249.249,0,0,1,6,2.25V1A1,1,0,0,0,4,1V2.25a.25.25,0,0,1-.25.25H2a2,2,0,0,0-2,2v13a2,2,0,0,0,2,2h8.58a.253.253,0,0,0,.222-.134Z"/><path d="M23.836,21.905l-5.055-9.634a1.449,1.449,0,0,0-2.561,0l-5.055,9.634a1.426,1.426,0,0,0,.047,1.408A1.454,1.454,0,0,0,12.445,24H22.556a1.456,1.456,0,0,0,1.233-.686A1.428,1.428,0,0,0,23.836,21.905ZM16.751,16a.75.75,0,0,1,1.5,0v2.5a.75.75,0,0,1-1.5,0Zm.75,6.25a1,1,0,1,1,1-1A1,1,0,0,1,17.5,22.25Z"/></svg>