<svg xmlns="http://www.w3.org/2000/svg" viewBox="0 0 24 24"><title>notes-text-flip</title><path d="M23,4.75a2,2,0,0,0-2-2H19a.25.25,0,0,1-.25-.25V1.25a1,1,0,0,0-2,0V5.408a1,1,0,1,0,2,0V5A.25.25,0,0,1,19,4.75h1.5a.5.5,0,0,1,.5.5v10.5a.5.5,0,0,1-.5.5h-3a2,2,0,0,0-2,2v3a.5.5,0,0,1-.5.5H3.5a.5.5,0,0,1-.5-.5v-16a.5.5,0,0,1,.5-.5h1a.25.25,0,0,0,.25-.25V3a.25.25,0,0,0-.25-.25H3a2,2,0,0,0-2,2v17a2,2,0,0,0,2,2H16.5a1,1,0,0,0,.737-.324l5.5-6A1,1,0,0,0,23,16.75Z"/><path d="M12.25,6.408a1,1,0,0,0,1-1V5a.25.25,0,0,1,.25-.25h2a.25.25,0,0,0,.25-.25V3a.25.25,0,0,0-.25-.25h-2a.25.25,0,0,1-.25-.25V1.25a1,1,0,0,0-2,0V5.408A1,1,0,0,0,12.25,6.408Z"/><path d="M6.75,6.408a1,1,0,0,0,1-1V5A.25.25,0,0,1,8,4.75h2a.25.25,0,0,0,.25-.25V3A.25.25,0,0,0,10,2.75H8a.25.25,0,0,1-.25-.25V1.25a1,1,0,0,0-2,0V5.408A1,1,0,0,0,6.75,6.408Z"/><path d="M6.707,11.457l.5-.5a1,1,0,0,1,1.415,0,3.072,3.072,0,0,0,4.242,0,1,1,0,0,1,1.414,0,3,3,0,0,0,4.243,0l.343-.344A1,1,0,1,0,17.45,9.2l-.344.344a1.024,1.024,0,0,1-1.414,0,3,3,0,0,0-4.242,0,1.024,1.024,0,0,1-1.414,0,3,3,0,0,0-4.243,0l-.5.5a1,1,0,0,0,1.414,1.414Z"/><path d="M6.707,17.457l.5-.5a1,1,0,0,1,1.415,0,3,3,0,0,0,4.242,0,1,1,0,0,0-1.414-1.414,1.024,1.024,0,0,1-1.414,0,3,3,0,0,0-4.243,0l-.5.5a1,1,0,0,0,1.414,1.414Z"/></svg>