<svg xmlns="http://www.w3.org/2000/svg" viewBox="0 0 24 24"><title>notes-calendar</title><path d="M23,4.579a2,2,0,0,0-2-2H19.25a.25.25,0,0,1-.25-.25V1.421a1,1,0,1,0-2,0V5.579a1,1,0,1,0,2,0V5.354a.251.251,0,0,1,.3-.245,1.5,1.5,0,0,1,1.2,1.47v13a1.5,1.5,0,0,1-1.5,1.5H5a1.5,1.5,0,0,1-1.5-1.5v-13A1.5,1.5,0,0,1,4.786,5.094.249.249,0,0,0,5,4.847V2.829a.25.25,0,0,0-.25-.25H3a2,2,0,0,0-2,2v17a2,2,0,0,0,2,2h0l18.005-.087a2.005,2.005,0,0,0,1.99-2Z"/><path d="M12.5,6.579a1,1,0,0,0,1-1v-.25a.25.25,0,0,1,.25-.25h2a.25.25,0,0,0,.25-.25v-2a.25.25,0,0,0-.25-.25h-2a.25.25,0,0,1-.25-.25V1.421a1,1,0,1,0-2,0V5.579A1,1,0,0,0,12.5,6.579Z"/><path d="M7,6.579a1,1,0,0,0,1-1v-.25a.25.25,0,0,1,.25-.25h2a.25.25,0,0,0,.25-.25v-2a.25.25,0,0,0-.25-.25h-2A.25.25,0,0,1,8,2.329V1.421a1,1,0,0,0-2,0V5.579A1,1,0,0,0,7,6.579Z"/></svg>