<svg xmlns="http://www.w3.org/2000/svg" viewBox="0 0 24 24"><title>notes-cash</title><path d="M12,4.75V5a1,1,0,0,0,2,0V4.75a.25.25,0,0,1,.25-.25h1a.25.25,0,0,1,.25.25v4.7a.245.245,0,0,0,.3.238A7.881,7.881,0,0,1,17.26,9.5a.244.244,0,0,0,.24-.243V4.5a2,2,0,0,0-2-2H14.25A.25.25,0,0,1,14,2.25V1a1,1,0,0,0-2,0V2.25a.25.25,0,0,1-.25.25h-1.5A.25.25,0,0,1,10,2.25V1A1,1,0,0,0,8,1V2.25a.25.25,0,0,1-.25.25H6.25A.25.25,0,0,1,6,2.25V1A1,1,0,0,0,4,1V2.25a.25.25,0,0,1-.25.25H2a2,2,0,0,0-2,2v13a2,2,0,0,0,2,2H9.453a.244.244,0,0,0,.238-.3A7.881,7.881,0,0,1,9.5,17.74a.244.244,0,0,0-.243-.24H2.25A.25.25,0,0,1,2,17.25V4.75a.25.25,0,0,1,.25-.25h1.5A.25.25,0,0,1,4,4.75V5A1,1,0,0,0,6,5V4.75a.25.25,0,0,1,.25-.25h1.5A.25.25,0,0,1,8,4.75V5a1,1,0,0,0,2,0V4.75a.25.25,0,0,1,.25-.25h1.5A.25.25,0,0,1,12,4.75Z"/><path d="M17.5,11A6.5,6.5,0,1,0,24,17.5,6.508,6.508,0,0,0,17.5,11Zm1.038,10.177c-.093.024-.288.109-.288.294v.279a.75.75,0,0,1-1.5,0V21.5a.248.248,0,0,0-.248-.248H16a.75.75,0,0,1,0-1.5h2.033a.592.592,0,0,0,.22-1.141l-2.063-.825a2.085,2.085,0,0,1,.344-3.978.333.333,0,0,0,.216-.328V13.25a.75.75,0,0,1,1.5,0v.25a.25.25,0,0,0,.25.25H19a.75.75,0,0,1,0,1.5H16.967a.592.592,0,0,0-.22,1.141l2.063.825a2.084,2.084,0,0,1-.272,3.961Z"/></svg>