<svg xmlns="http://www.w3.org/2000/svg" viewBox="0 0 24 24"><title>notes-book</title><path d="M24,4a3,3,0,0,0-3-3h-.774a.5.5,0,0,1-.433-.25A1.491,1.491,0,0,0,18.5,0H4.044a1.5,1.5,0,0,0-1.5,1.5v.75a.25.25,0,0,0,.25.25H4a1,1,0,0,1,0,2H1a1,1,0,0,0,0,2H2.294a.25.25,0,0,1,.25.25v3a.25.25,0,0,0,.25.25H4a1,1,0,0,1,0,2H1a1,1,0,0,0,0,2H2.294a.25.25,0,0,1,.25.25v3a.25.25,0,0,0,.25.25H4a1,1,0,0,1,0,2H1a1,1,0,0,0,0,2H2.294a.25.25,0,0,1,.25.25v.75a1.5,1.5,0,0,0,1.5,1.5H18.5a1.491,1.491,0,0,0,1.293-.75.5.5,0,0,1,.433-.25H21a3,3,0,0,0,3-3V4ZM15.206,8a1.5,1.5,0,0,1-1.5,1.5H9.5A1.5,1.5,0,0,1,8,8V5.5A1.5,1.5,0,0,1,9.5,4h4.206a1.5,1.5,0,0,1,1.5,1.5ZM22,10.75a.25.25,0,0,1-.25.25h-1.5a.25.25,0,0,1-.25-.25V8.25A.25.25,0,0,1,20.25,8h1.5a.25.25,0,0,1,.25.25Zm-2,2.5a.25.25,0,0,1,.25-.25h1.5a.25.25,0,0,1,.25.25v2.5a.25.25,0,0,1-.25.25h-1.5a.25.25,0,0,1-.25-.25ZM22,4V5.75a.25.25,0,0,1-.25.25h-1.5A.25.25,0,0,1,20,5.75V3.25A.25.25,0,0,1,20.25,3H21A1,1,0,0,1,22,4Zm0,16a1,1,0,0,1-1,1h-.75a.25.25,0,0,1-.25-.25v-2.5a.25.25,0,0,1,.25-.25h1.5a.25.25,0,0,1,.25.25Z"/></svg>