<svg xmlns="http://www.w3.org/2000/svg" viewBox="0 0 24 24"><title>notes-sync</title><path d="M11.75,4.5a.25.25,0,0,1,.25.25V5a1,1,0,0,0,2,0V4.75a.25.25,0,0,1,.25-.25h1a.25.25,0,0,1,.25.25v4.7a.243.243,0,0,0,.3.238A7.954,7.954,0,0,1,17.26,9.5a.244.244,0,0,0,.24-.243V4.5a2,2,0,0,0-2-2H14.25A.25.25,0,0,1,14,2.25V1a1,1,0,0,0-2,0V2.25a.25.25,0,0,1-.25.25h-1.5A.25.25,0,0,1,10,2.25V1A1,1,0,0,0,8,1V2.25a.25.25,0,0,1-.25.25H6.25A.25.25,0,0,1,6,2.25V1A1,1,0,0,0,4,1V2.25a.25.25,0,0,1-.25.25H2a2,2,0,0,0-2,2v13a2,2,0,0,0,2,2H9.25a.25.25,0,0,0,.25-.25v-1.5a.25.25,0,0,0-.25-.25h-7A.25.25,0,0,1,2,17.25V4.75a.25.25,0,0,1,.25-.25h1.5A.25.25,0,0,1,4,4.75V5A1,1,0,0,0,6,5V4.75a.25.25,0,0,1,.25-.25h1.5A.25.25,0,0,1,8,4.75V5a1,1,0,0,0,2,0V4.75a.25.25,0,0,1,.25-.25Z"/><path d="M22.77,18.6a1,1,0,0,0-1.256.582,4.046,4.046,0,0,1-1.278,1.931,4.164,4.164,0,0,1-5.656-.472.256.256,0,0,1,.014-.349l1.717-1.717a.5.5,0,0,0-.354-.853H11.5a.5.5,0,0,0-.5.5V22.68a.5.5,0,0,0,.854.353l.974-.974a.244.244,0,0,1,.353.008,6.085,6.085,0,0,0,10.211-2.2A1,1,0,0,0,22.77,18.6Z"/><path d="M23.691,11.772a.5.5,0,0,0-.545.109l-1.03,1.03a.244.244,0,0,1-.352-.007,6.1,6.1,0,0,0-10.2,2.225,1,1,0,0,0,1.88.684A4.025,4.025,0,0,1,14.719,13.9a4.154,4.154,0,0,1,5.637.436.255.255,0,0,1-.012.35L18.69,16.338a.5.5,0,0,0,.353.853H23.5a.5.5,0,0,0,.5-.5V12.234A.5.5,0,0,0,23.691,11.772Z"/></svg>