<svg xmlns="http://www.w3.org/2000/svg" viewBox="0 0 24 24"><title>notes-home</title><path d="M10.25,4.5h1.5a.25.25,0,0,1,.25.25V5a1,1,0,0,0,2,0V4.75a.25.25,0,0,1,.25-.25h1a.25.25,0,0,1,.25.25v5.326a.244.244,0,0,0,.368.2,2.475,2.475,0,0,1,1.353-.266.247.247,0,0,0,.279-.241V4.5a2,2,0,0,0-2-2H14.25A.25.25,0,0,1,14,2.25V1a1,1,0,0,0-2,0V2.25a.25.25,0,0,1-.25.25h-1.5A.25.25,0,0,1,10,2.25V1A1,1,0,0,0,8,1V2.25a.25.25,0,0,1-.25.25H6.25A.25.25,0,0,1,6,2.25V1A1,1,0,0,0,4,1V2.25a.25.25,0,0,1-.25.25H2a2,2,0,0,0-2,2v13a2,2,0,0,0,2,2H8.132a.246.246,0,0,0,.237-.328,6.076,6.076,0,0,1-.322-1.441A.242.242,0,0,0,7.8,17.5H2.25A.25.25,0,0,1,2,17.25V4.75a.25.25,0,0,1,.25-.25h1.5A.25.25,0,0,1,4,4.75V5A1,1,0,0,0,6,5V4.75a.25.25,0,0,1,.25-.25h1.5A.25.25,0,0,1,8,4.75V5a1,1,0,0,0,2,0V4.75A.25.25,0,0,1,10.25,4.5Z"/><path d="M23.823,17.618l-6.5-5.5a.5.5,0,0,0-.647,0l-6.5,5.5a.5.5,0,0,0,.324.882h1.25a.25.25,0,0,1,.25.25V23.5a.5.5,0,0,0,.5.5h9a.5.5,0,0,0,.5-.5V18.75a.25.25,0,0,1,.25-.25H23.5a.5.5,0,0,0,.323-.882Z"/></svg>