<svg xmlns="http://www.w3.org/2000/svg" viewBox="0 0 24 24"><title>notes-share</title><path d="M12,4.75V5a1,1,0,0,0,2,0V4.75a.25.25,0,0,1,.25-.25h1a.25.25,0,0,1,.25.25v8.944c0,.153.1.238.222.166l1.242-.745a.238.238,0,0,0,.111-.161,4.211,4.211,0,0,1,.4-1.134.224.224,0,0,0,.026-.105V4.5a2,2,0,0,0-2-2H14.25A.25.25,0,0,1,14,2.25V1a1,1,0,0,0-2,0V2.25a.25.25,0,0,1-.25.25h-1.5A.25.25,0,0,1,10,2.25V1A1,1,0,0,0,8,1V2.25a.25.25,0,0,1-.25.25H6.25A.25.25,0,0,1,6,2.25V1A1,1,0,0,0,4,1V2.25a.25.25,0,0,1-.25.25H2a2,2,0,0,0-2,2v13a2,2,0,0,0,2,2H9.4a.248.248,0,0,0,.246-.286,11.266,11.266,0,0,1-.09-1.458.25.25,0,0,0-.25-.256H2.25A.25.25,0,0,1,2,17.25V4.75a.25.25,0,0,1,.25-.25h1.5A.25.25,0,0,1,4,4.75V5A1,1,0,0,0,6,5V4.75a.25.25,0,0,1,.25-.25h1.5A.25.25,0,0,1,8,4.75V5a1,1,0,0,0,2,0V4.75a.25.25,0,0,1,.25-.25h1.5A.25.25,0,0,1,12,4.75Z"/><path d="M22.129,18.639a2.74,2.74,0,0,0-2.767.623.24.24,0,0,1-.258.053L16.553,18.3a.114.114,0,0,1-.06-.084l-.03-.353a.118.118,0,0,1,.056-.1L19.442,16a.245.245,0,0,1,.266.012,2.741,2.741,0,0,0,4.168-1.425A2.759,2.759,0,0,0,21.25,11a2.808,2.808,0,0,0-2.713,3.059.243.243,0,0,1-.115.221L15.558,16a.245.245,0,0,1-.266-.012,2.741,2.741,0,0,0-4.168,1.426A2.759,2.759,0,0,0,13.75,21a2.729,2.729,0,0,0,1.887-.761.245.245,0,0,1,.26-.053s1.923.781,2.463,1a.239.239,0,0,1,.144.214,2.753,2.753,0,1,0,5.361-1.025A2.681,2.681,0,0,0,22.129,18.639Z"/></svg>