<?xml version="1.0" encoding="utf-8"?>
<!-- Generator: Adobe Illustrator 22.1.0, SVG Export Plug-In . SVG Version: 6.00 Build 0)  -->
<svg version="1.1" id="Layer_1" xmlns="http://www.w3.org/2000/svg" xmlns:xlink="http://www.w3.org/1999/xlink" x="0px" y="0px"
	 viewBox="0 0 24 24" style="enable-background:new 0 0 24 24;" xml:space="preserve">
<title>reflect-up</title>
<g>
	<path d="M16.499,7.938c-0.401,0-0.777-0.156-1.06-0.44L10.5,2.559c-0.282-0.283-0.438-0.659-0.439-1.058
		C10.06,1.1,10.216,0.723,10.499,0.439c0.283-0.284,0.659-0.441,1.061-0.441h9.879c0.4,0,0.775,0.156,1.058,0.437
		c0.586,0.585,0.588,1.537,0.004,2.123L17.56,7.499C17.276,7.782,16.9,7.938,16.499,7.938L16.499,7.938z M16.5,6.438l4.94-4.939
		l-9.879-0.001L16.5,6.438z"/>
	<path d="M11.561,23.998c-0.401,0-0.777-0.156-1.061-0.439c-0.283-0.283-0.44-0.66-0.44-1.061c0-0.395,0.16-0.782,0.439-1.061
		l4.94-4.939c0.283-0.283,0.659-0.439,1.059-0.439c0.401,0,0.777,0.156,1.06,0.438l4.941,4.94c0.283,0.283,0.439,0.66,0.439,1.061
		c0,0.401-0.157,0.777-0.44,1.061c-0.283,0.283-0.659,0.438-1.06,0.438H11.561z M11.56,22.498l9.879,0L16.5,17.559L11.56,22.498z"/>
	<path d="M9.75,12.748c-0.414,0-0.75-0.336-0.75-0.75s0.336-0.75,0.75-0.75h13.5c0.414,0,0.75,0.336,0.75,0.75
		s-0.336,0.75-0.75,0.75H9.75z"/>
	<path d="M6.75,20.097c-0.049,0-0.1-0.005-0.15-0.015C2.776,19.302,0.001,15.903,0,12c0.074-3.181,1.69-6.107,4.284-7.876
		L1.401,3.741C1.203,3.715,1.026,3.613,0.905,3.454C0.783,3.295,0.73,3.098,0.757,2.899c0.049-0.371,0.367-0.652,0.74-0.652
		c0.035,0,0.071,0.002,0.106,0.008l5.253,0.697c0.276,0.036,0.506,0.221,0.603,0.483c0.003,0.007,0.009,0.026,0.01,0.028
		c0.011,0.034,0.02,0.071,0.026,0.109C7.496,3.578,7.5,3.606,7.501,3.612c0.003,0.029,0.004,0.055,0.004,0.081
		c0,0.018,0,0.043-0.002,0.068C7.503,3.775,7.501,3.789,7.5,3.801L6.803,9.052C6.755,9.423,6.435,9.703,6.061,9.703
		c-0.034,0-0.067-0.002-0.101-0.007C5.763,9.67,5.586,9.568,5.465,9.409C5.343,9.25,5.29,9.053,5.317,8.854l0.52-3.923
		C3.249,6.338,1.569,9.05,1.5,12.018c0.001,3.179,2.272,5.956,5.4,6.594c0.405,0.083,0.668,0.48,0.585,0.885
		C7.414,19.844,7.105,20.097,6.75,20.097z"/>
</g>
</svg>
