<svg xmlns="http://www.w3.org/2000/svg" viewBox="0 0 24 24"><title>bluetooth-search</title><path d="M14.527,9.784a.251.251,0,0,0,.169-.17A7.494,7.494,0,1,0,9.614,14.7a.25.25,0,0,0,.17-.17A7.025,7.025,0,0,1,14.527,9.784ZM10.8,9.25a.626.626,0,0,1-.01.993L7.658,12.591a.626.626,0,0,1-1-.5V9.151L4.509,10.823a.625.625,0,0,1-.768-.987l2.894-2.25L3.761,5.344a.625.625,0,1,1,.769-.985L6.658,6.02V3.091a.624.624,0,0,1,1-.5l3.131,2.347a.626.626,0,0,1,.009.994L8.668,7.588Z"/><path d="M8,6.085a.25.25,0,0,0,.4.2l.815-.634a.249.249,0,0,0,0-.4L8.4,4.64a.253.253,0,0,0-.262-.023A.249.249,0,0,0,8,4.841Z"/><path d="M8,10.341a.25.25,0,0,0,.4.2l.816-.612a.25.25,0,0,0,0-.4L8.4,8.9a.25.25,0,0,0-.4.2Z"/><path d="M23.707,23.707a1,1,0,0,0,0-1.414L21.03,19.616a5.509,5.509,0,1,0-1.415,1.414l2.678,2.677A1,1,0,0,0,23.707,23.707ZM16.5,13A3.5,3.5,0,1,1,13,16.5,3.5,3.5,0,0,1,16.5,13Z"/></svg>