<svg xmlns="http://www.w3.org/2000/svg" viewBox="0 0 24 24"><title>wifi-transfer</title><path d="M22.706,0H12.821A1.32,1.32,0,0,0,11.5,1.314V3.765a.25.25,0,0,0,.059.161A3.979,3.979,0,0,1,12.5,6.5v5.25a.25.25,0,0,0,.25.25h9.957A1.291,1.291,0,0,0,24,10.714V1.288A1.292,1.292,0,0,0,22.706,0ZM16.138,6.909A.75.75,0,1,1,15.2,5.742a4.432,4.432,0,0,1,5.608,0,.75.75,0,1,1-.942,1.167A2.944,2.944,0,0,0,16.138,6.909ZM19,8.7a1,1,0,1,1-1-1A1,1,0,0,1,19,8.7ZM14.471,4.5a.75.75,0,0,1-.942-1.168,7.071,7.071,0,0,1,8.942,0A.75.75,0,0,1,21.529,4.5,5.577,5.577,0,0,0,14.471,4.5Z"/><path d="M8.5,4h-6A2.5,2.5,0,0,0,0,6.5v15A2.5,2.5,0,0,0,2.5,24h6A2.5,2.5,0,0,0,11,21.5V6.5A2.5,2.5,0,0,0,8.5,4Zm1,14.5a1,1,0,0,1-1,1h-6a1,1,0,0,1-1-1V7a1,1,0,0,1,1-1h6a1,1,0,0,1,1,1Z"/><path d="M12.293,23.707a1,1,0,0,0,1.414,0l3.142-3.142,1.3,1.3A.5.5,0,0,0,19,21.512V17.5a.5.5,0,0,0-.5-.5h-4a.5.5,0,0,0-.354.853l1.291,1.295-3.144,3.145A1,1,0,0,0,12.293,23.707Z"/></svg>