<svg id="Bold" xmlns="http://www.w3.org/2000/svg" viewBox="0 0 24 24"><title>single-woman-news</title><path d="M24,2.5A1.5,1.5,0,0,0,22.5,1H1.5A1.5,1.5,0,0,0,0,2.5V17a1.5,1.5,0,0,0,1.5,1.5h9a.5.5,0,0,1,.5.5v1.5a.5.5,0,0,1-.5.5H4a1,1,0,0,0,0,2H20a1,1,0,0,0,0-2H13.5a.5.5,0,0,1-.5-.5V19a.5.5,0,0,1,.5-.5h9A1.5,1.5,0,0,0,24,17ZM9,9.5a.5.5,0,0,1-.5.5h-5A.5.5,0,0,1,3,9.5v-5A.5.5,0,0,1,3.5,4h5a.5.5,0,0,1,.5.5Zm11.28,5.686a.5.5,0,0,1-.388.814h-8a.5.5,0,0,1-.388-.815A5.69,5.69,0,0,1,15.9,13,5.676,5.676,0,0,1,20.28,15.186Zm.119-4.041a.633.633,0,0,1-1.065.686,4.112,4.112,0,0,1-.516-1.206.252.252,0,0,0-.175-.178.249.249,0,0,0-.242.062,3.595,3.595,0,0,1-5.017,0,.25.25,0,0,0-.417.116,4.1,4.1,0,0,1-.517,1.208.633.633,0,1,1-1.064-.686,3.521,3.521,0,0,0,.5-1.934v-1.7a4.012,4.012,0,1,1,8.024,0l0,1.7A3.521,3.521,0,0,0,20.4,11.145Z"/><path d="M19.09,7.9a.5.5,0,0,0-.4-.585,4.345,4.345,0,0,1-2.408-1.381.425.425,0,0,0-.394-.193c-.311.013-.391.189-.393.193A4.348,4.348,0,0,1,13.09,7.316a.5.5,0,0,0-.4.585.505.505,0,0,0,.586.4,5.3,5.3,0,0,0,2.449-1.211.25.25,0,0,1,.327,0A5.294,5.294,0,0,0,18.505,8.3.5.5,0,0,0,19.09,7.9Z"/></svg>