<svg id="Bold" xmlns="http://www.w3.org/2000/svg" viewBox="0 0 24 24"><title>single-woman-search</title><path d="M23.414,23.414a2,2,0,0,0,0-2.828l-4.069-4.069a.25.25,0,0,1-.033-.313A10.508,10.508,0,1,0,16.2,19.312a.249.249,0,0,1,.313.033l4.069,4.069a2,2,0,0,0,2.828,0ZM10.5,2A8.5,8.5,0,1,1,2,10.5,8.51,8.51,0,0,1,10.5,2Z"/><path d="M5.954,12.5a1,1,0,0,0,1.384-.292q.042-.065.078-.132A.25.25,0,0,1,7.794,12a4.277,4.277,0,0,0,5.412,0,.251.251,0,0,1,.378.073c.024.044.05.088.078.131a1,1,0,1,0,1.676-1.093,3.3,3.3,0,0,1-.468-1.829V8.314a4.37,4.37,0,0,0-8.74,0v.972a3.3,3.3,0,0,1-.468,1.831A1,1,0,0,0,5.954,12.5ZM10.5,10.969A2.239,2.239,0,0,1,8.355,9.4a.5.5,0,0,1,.309-.618,5.327,5.327,0,0,0,1.713-1,.187.187,0,0,1,.247,0,5.342,5.342,0,0,0,1.713,1,.5.5,0,0,1,.308.617A2.234,2.234,0,0,1,10.5,10.969Z"/><path d="M10.5,13.469a5.691,5.691,0,0,0-4.39,2.184.5.5,0,0,0,.388.816h8a.5.5,0,0,0,.388-.816A5.682,5.682,0,0,0,10.5,13.469Z"/></svg>