<svg id="Bold" xmlns="http://www.w3.org/2000/svg" viewBox="0 0 24 24"><title>single-woman-shield</title><path d="M23.5,1.957A1.458,1.458,0,0,0,22.043.5H1.957A1.458,1.458,0,0,0,.5,1.957V9.25A14.645,14.645,0,0,0,11.9,23.49a.5.5,0,0,0,.2,0A14.645,14.645,0,0,0,23.5,9.25ZM16.108,17h-8a.5.5,0,0,1-.388-.815A5.689,5.689,0,0,1,12.11,14,5.68,5.68,0,0,1,16.5,16.185a.5.5,0,0,1-.388.815Zm.506-4.855a.633.633,0,0,1-1.064.686,4.087,4.087,0,0,1-.517-1.206.25.25,0,0,0-.416-.117,3.595,3.595,0,0,1-5.018,0,.249.249,0,0,0-.416.116,4.126,4.126,0,0,1-.517,1.208A.633.633,0,0,1,7.6,12.145a3.512,3.512,0,0,0,.5-1.934v-1.7a4.013,4.013,0,1,1,8.025,0l0,1.7A3.521,3.521,0,0,0,16.614,12.145Z"/><path d="M15.306,8.9a.5.5,0,0,0-.4-.585A4.348,4.348,0,0,1,12.5,6.935s-.083-.18-.394-.193a.424.424,0,0,0-.393.193A4.345,4.345,0,0,1,9.306,8.316a.5.5,0,0,0-.4.585.5.5,0,0,0,.585.4,5.294,5.294,0,0,0,2.449-1.211.25.25,0,0,1,.327,0A5.3,5.3,0,0,0,14.72,9.3.505.505,0,0,0,15.306,8.9Z"/></svg>