<svg xmlns="http://www.w3.org/2000/svg" viewBox="0 0 24 24"><defs><style>.a{fill:none;stroke:currentColor;stroke-linecap:round;stroke-linejoin:round;}</style></defs><title>responsive-design-laptop-1</title><path class="a" d="M2.5,20.5v-10a1,1,0,0,1,1-1"/><line class="a" x1="17.5" y1="20.5" x2="17.5" y2="17.5"/><rect class="a" x="5.5" y="0.5" width="8" height="15" rx="1" ry="1"/><rect class="a" x="15.5" y="0.5" width="8" height="15" rx="1" ry="1"/><line class="a" x1="23.5" y1="2.5" x2="15.5" y2="2.5"/><line class="a" x1="23.5" y1="11.5" x2="15.5" y2="11.5"/><path class="a" d="M19.5,13.25h0a.25.25,0,0,1,.25.25h0a.25.25,0,0,1-.25.25h0a.25.25,0,0,1-.25-.25h0a.25.25,0,0,1,.25-.25"/><path class="a" d="M11.5,20.5a1.5,1.5,0,0,1-3,0H.5v1a2,2,0,0,0,2,2h15a2,2,0,0,0,2-2v-1Z"/></svg>