<svg xmlns="http://www.w3.org/2000/svg" viewBox="0 0 24 24"><defs><style>.a{fill:none;stroke:currentColor;stroke-linecap:round;stroke-linejoin:round;}</style></defs><title>responsive-design-laptop</title><line class="a" x1="4.5" y1="17.5" x2="4.5" y2="20.5"/><line class="a" x1="15.5" y1="9.5" x2="8.5" y2="9.5"/><line class="a" x1="19.5" y1="20.5" x2="19.5" y2="17.5"/><rect class="a" x="15.5" y="0.5" width="8" height="15" rx="1" ry="1"/><path class="a" d="M15.5,11.5v1a1,1,0,0,0,1,1h6a1,1,0,0,0,1-1v-1"/><path class="a" d="M23.5,4.5v-1a1,1,0,0,0-1-1h-6a1,1,0,0,0-1,1v1"/><path class="a" d="M13.5,20.5a1.5,1.5,0,0,1-3,0h-8v1a2,2,0,0,0,2,2h15a2,2,0,0,0,2-2v-1Z"/><rect class="a" x="0.5" y="0.5" width="8" height="15" rx="1" ry="1"/><line class="a" x1="8.5" y1="2.5" x2="0.5" y2="2.5"/><line class="a" x1="8.5" y1="11.5" x2="0.5" y2="11.5"/><path class="a" d="M4.5,13.25a.25.25,0,0,1,.25.25h0a.25.25,0,0,1-.25.25h0a.25.25,0,0,1-.25-.25h0a.25.25,0,0,1,.25-.25"/><line class="a" x1="4.5" y1="13.25" x2="4.5" y2="13.25"/></svg>