<svg xmlns="http://www.w3.org/2000/svg" viewBox="0 0 24 24"><defs><style>.a{fill:none;stroke:currentColor;stroke-linecap:round;stroke-linejoin:round;}</style></defs><title>responsive-design-phone</title><line class="a" x1="16.5" y1="13.5" x2="20.5" y2="13.5"/><path class="a" d="M10.5,19.5v3a1,1,0,0,1-1,1h-5a1,1,0,0,1-1-1v-8a1,1,0,0,1,1-1H6"/><line class="a" x1="3.5" y1="15.5" x2="5" y2="15.5"/><line class="a" x1="3.5" y1="21.5" x2="10.5" y2="21.5"/><path class="a" d="M8.5,12V2A1.5,1.5,0,0,1,10,.5h9A1.5,1.5,0,0,1,20.5,2V16A1.5,1.5,0,0,1,19,17.5H12.5"/><line class="a" x1="14.5" y1="10.5" x2="7.5" y2="17.5"/><polyline class="a" points="11.5 10.5 14.5 10.5 14.5 13.5"/><polyline class="a" points="7.5 14.5 7.5 17.5 10.5 17.5"/><line class="a" x1="8.5" y1="3.5" x2="20.5" y2="3.5"/></svg>