<svg xmlns="http://www.w3.org/2000/svg" viewBox="0 0 24 24"><defs><style>.a{fill:none;stroke:currentColor;stroke-linecap:round;stroke-linejoin:round;}</style></defs><title>responsive-design-expand-1</title><line class="a" x1="4.5" y1="4.5" x2="23.5" y2="4.5"/><line class="a" x1="7.5" y1="2.25" x2="7.5" y2="2.25"/><path class="a" d="M7.5,2.25a.25.25,0,1,0,.25.25.25.25,0,0,0-.25-.25"/><line class="a" x1="9.5" y1="2.25" x2="9.5" y2="2.25"/><path class="a" d="M9.5,2.25a.25.25,0,1,0,.25.25.25.25,0,0,0-.25-.25"/><line class="a" x1="11.5" y1="2.25" x2="11.5" y2="2.25"/><path class="a" d="M11.5,2.25a.25.25,0,1,0,.25.25.25.25,0,0,0-.25-.25"/><path class="a" d="M4.5,5.5v-3a2,2,0,0,1,2-2h15a2,2,0,0,1,2,2v10a2,2,0,0,1-2,2"/><rect class="a" x="0.5" y="13.5" width="13" height="10" rx="2" ry="2"/><line class="a" x1="0.5" y1="16.5" x2="13.5" y2="16.5"/><line class="a" x1="4.5" y1="7.5" x2="4.5" y2="11.5"/><polyline class="a" points="2.5 9.5 4.5 7.5 6.5 9.5"/><line class="a" x1="19.5" y1="14.5" x2="15.5" y2="14.5"/><polyline class="a" points="17.5 12.5 19.5 14.5 17.5 16.5"/><rect class="a" x="3.5" y="18.5" width="2" height="3" rx="0.5" ry="0.5"/><rect class="a" x="8.5" y="18.5" width="2" height="3" rx="0.5" ry="0.5"/><rect class="a" x="8.5" y="6.5" width="2" height="4" rx="0.5" ry="0.5"/><rect class="a" x="12.5" y="6.5" width="2" height="4" rx="0.5" ry="0.5"/><rect class="a" x="16.5" y="6.5" width="2" height="4" rx="0.5" ry="0.5"/></svg>