<svg id="Bold" xmlns="http://www.w3.org/2000/svg" viewBox="0 0 24 24"><title>single-neutral-money</title><path d="M5.5,8.5A5.506,5.506,0,0,0,0,14v3.5a.5.5,0,0,0,.5.5H2.31a.25.25,0,0,1,.249.229L3,23.542A.5.5,0,0,0,3.5,24h4a.5.5,0,0,0,.5-.458l.443-5.313A.25.25,0,0,1,8.69,18H10.5a.5.5,0,0,0,.5-.5V14A5.506,5.506,0,0,0,5.5,8.5Z"/><circle cx="5.5" cy="4" r="3.5"/><path d="M17.5,0A6.5,6.5,0,1,0,24,6.5,6.508,6.508,0,0,0,17.5,0Zm.95,10.2a.249.249,0,0,0-.2.245v.308a.75.75,0,0,1-1.5,0V10.5a.25.25,0,0,0-.25-.25H16a.75.75,0,0,1,0-1.5h2.033a.592.592,0,0,0,.22-1.141L16.19,6.784A2.084,2.084,0,0,1,16.55,2.8a.249.249,0,0,0,.2-.245V2.25a.75.75,0,0,1,1.5,0V2.5a.25.25,0,0,0,.25.25H19a.75.75,0,0,1,0,1.5H16.967a.592.592,0,0,0-.22,1.141l2.063.825a2.084,2.084,0,0,1-.36,3.981Z"/><path d="M5.5,8.5A5.506,5.506,0,0,0,0,14v3.5a.5.5,0,0,0,.5.5H2.31a.25.25,0,0,1,.249.229L3,23.542A.5.5,0,0,0,3.5,24h4a.5.5,0,0,0,.5-.458l.443-5.313A.25.25,0,0,1,8.69,18H10.5a.5.5,0,0,0,.5-.5V14A5.506,5.506,0,0,0,5.5,8.5Z"/><circle cx="5.5" cy="4" r="3.5"/><path d="M17.5,0A6.5,6.5,0,1,0,24,6.5,6.508,6.508,0,0,0,17.5,0Zm.95,10.2a.249.249,0,0,0-.2.245v.308a.75.75,0,0,1-1.5,0V10.5a.25.25,0,0,0-.25-.25H16a.75.75,0,0,1,0-1.5h2.033a.592.592,0,0,0,.22-1.141L16.19,6.784A2.084,2.084,0,0,1,16.55,2.8a.249.249,0,0,0,.2-.245V2.25a.75.75,0,0,1,1.5,0V2.5a.25.25,0,0,0,.25.25H19a.75.75,0,0,1,0,1.5H16.967a.592.592,0,0,0-.22,1.141l2.063.825a2.084,2.084,0,0,1-.36,3.981Z"/></svg>