<svg id="Bold" xmlns="http://www.w3.org/2000/svg" viewBox="0 0 24 24"><title>single-neutral-rotate</title><path d="M18.206,13.186a1,1,0,1,0-.462,1.945c3.123.741,4.256,1.8,4.256,2.333,0,.869-2.864,2.6-8.569,2.941a1,1,0,0,0,.059,2c.021,0,.041,0,.062,0C18.372,22.11,24,20.642,24,17.464,24,15.592,21.942,14.072,18.206,13.186Z"/><path d="M7.916,17.842a.5.5,0,0,0-.892.206l-.3,1.576a.25.25,0,0,1-.3.2C3.538,19.154,2,18.122,2,17.464c0-.532,1.133-1.593,4.256-2.334a1,1,0,0,0-.462-1.946C2.058,14.071,0,15.591,0,17.464c0,2.191,2.809,3.6,6.06,4.335a.251.251,0,0,1,.191.291l-.242,1.264a.5.5,0,0,0,.746.524l3.455-2.046a.5.5,0,0,0,.145-.73Z"/><circle cx="12" cy="2.552" r="2.5"/><path d="M13.167,18.052a.5.5,0,0,0,.5-.443l.506-4.336a.251.251,0,0,1,.249-.221H15.5a.5.5,0,0,0,.5-.5v-2.4a4,4,0,1,0-8,0v2.4a.5.5,0,0,0,.5.5H9.582a.251.251,0,0,1,.249.221l.506,4.336a.5.5,0,0,0,.5.443Z"/><path d="M18.206,13.186a1,1,0,1,0-.462,1.945c3.123.741,4.256,1.8,4.256,2.333,0,.869-2.864,2.6-8.569,2.941a1,1,0,0,0,.059,2c.021,0,.041,0,.062,0C18.372,22.11,24,20.642,24,17.464,24,15.592,21.942,14.072,18.206,13.186Z"/><path d="M7.916,17.842a.5.5,0,0,0-.892.206l-.3,1.576a.25.25,0,0,1-.3.2C3.538,19.154,2,18.122,2,17.464c0-.532,1.133-1.593,4.256-2.334a1,1,0,0,0-.462-1.946C2.058,14.071,0,15.591,0,17.464c0,2.191,2.809,3.6,6.06,4.335a.251.251,0,0,1,.191.291l-.242,1.264a.5.5,0,0,0,.746.524l3.455-2.046a.5.5,0,0,0,.145-.73Z"/><circle cx="12" cy="2.552" r="2.5"/><path d="M13.167,18.052a.5.5,0,0,0,.5-.443l.506-4.336a.251.251,0,0,1,.249-.221H15.5a.5.5,0,0,0,.5-.5v-2.4a4,4,0,1,0-8,0v2.4a.5.5,0,0,0,.5.5H9.582a.251.251,0,0,1,.249.221l.506,4.336a.5.5,0,0,0,.5.443Z"/></svg>