<svg id="Bold" xmlns="http://www.w3.org/2000/svg" viewBox="0 0 24 24"><title>single-neutral-find</title><path d="M23.414,23.414a2,2,0,0,0,0-2.828l-3.928-3.928a.5.5,0,0,1-.07-.618,10.508,10.508,0,1,0-3.376,3.376.5.5,0,0,1,.618.07l3.928,3.928A2,2,0,0,0,23.414,23.414ZM10.5,2A8.5,8.5,0,1,1,2,10.5,8.51,8.51,0,0,1,10.5,2Z"/><path d="M9.319,9.205a.25.25,0,0,0,.021-.462,2.75,2.75,0,1,1,2.32,0,.25.25,0,0,0,.021.462A3.5,3.5,0,0,1,14,12.5V14a.5.5,0,0,1-.5.5h-.829a.25.25,0,0,0-.248.222l-.2,1.833a.5.5,0,0,1-.5.445H9.278a.5.5,0,0,1-.5-.445l-.2-1.833a.25.25,0,0,0-.248-.222H7.5A.5.5,0,0,1,7,14V12.5A3.5,3.5,0,0,1,9.319,9.205Z"/><path d="M23.414,23.414a2,2,0,0,0,0-2.828l-3.928-3.928a.5.5,0,0,1-.07-.618,10.508,10.508,0,1,0-3.376,3.376.5.5,0,0,1,.618.07l3.928,3.928A2,2,0,0,0,23.414,23.414ZM10.5,2A8.5,8.5,0,1,1,2,10.5,8.51,8.51,0,0,1,10.5,2Z"/><path d="M9.319,9.205a.25.25,0,0,0,.021-.462,2.75,2.75,0,1,1,2.32,0,.25.25,0,0,0,.021.462A3.5,3.5,0,0,1,14,12.5V14a.5.5,0,0,1-.5.5h-.829a.25.25,0,0,0-.248.222l-.2,1.833a.5.5,0,0,1-.5.445H9.278a.5.5,0,0,1-.5-.445l-.2-1.833a.25.25,0,0,0-.248-.222H7.5A.5.5,0,0,1,7,14V12.5A3.5,3.5,0,0,1,9.319,9.205Z"/></svg>