<svg xmlns="http://www.w3.org/2000/svg" viewBox="0 0 24 24"><defs><style>.a{fill:none;stroke:currentColor;stroke-linecap:round;stroke-linejoin:round;stroke-width:1.5px;}</style></defs><title>connect-device-cancel</title><path class="a" d="M9.75,18A2.25,2.25,0,0,1,7.5,20.25H3A2.25,2.25,0,0,1,.75,18V6A2.25,2.25,0,0,1,3,3.75H7.5A2.25,2.25,0,0,1,9.75,6"/><path class="a" d="M14.25,6A2.25,2.25,0,0,1,16.5,3.75H21A2.25,2.25,0,0,1,23.25,6V18A2.25,2.25,0,0,1,21,20.25H16.5A2.25,2.25,0,0,1,14.25,18"/><line class="a" x1="8.25" y1="8.25" x2="15.75" y2="15.75"/><line class="a" x1="15.75" y1="8.25" x2="8.25" y2="15.75"/><line class="a" x1="0.75" y1="17.25" x2="5.25" y2="17.25"/><line class="a" x1="18.75" y1="17.25" x2="23.25" y2="17.25"/></svg>