<?xml version="1.0" encoding="utf-8"?>
<!-- Generator: Adobe Illustrator 22.1.0, SVG Export Plug-In . SVG Version: 6.00 Build 0)  -->
<svg version="1.1" id="Layer_1" xmlns="http://www.w3.org/2000/svg" xmlns:xlink="http://www.w3.org/1999/xlink" x="0px" y="0px"
	 viewBox="0 0 24 24" style="enable-background:new 0 0 24 24;" xml:space="preserve">
<g>
	<title>module-phone-puzzle-1</title>
	<path d="M7.487,22.25c-0.198,0-0.385-0.077-0.526-0.217c-0.142-0.141-0.221-0.328-0.222-0.529
		c-0.002-0.414,0.333-0.752,0.745-0.754c0.418,0,0.755,0.336,0.755,0.75s-0.336,0.75-0.75,0.75H7.487z"/>
	<path d="M2.989,24c-1.379,0-2.5-1.122-2.5-2.5v-19c0-1.379,1.121-2.5,2.5-2.5h9c1.378,0,2.5,1.121,2.5,2.5v6
		c0,0.276-0.224,0.5-0.5,0.5s-0.5-0.224-0.5-0.5v-6c0-0.827-0.673-1.5-1.5-1.5h-9c-0.827,0-1.5,0.673-1.5,1.5V19h6.5
		c0.276,0,0.5,0.224,0.5,0.5S8.265,20,7.989,20h-6.5v1.5c0,0.827,0.673,1.5,1.5,1.5h7.5c0.276,0,0.5,0.224,0.5,0.5
		s-0.224,0.5-0.5,0.5H2.989z"/>
	<path d="M15.642,24.022c-0.401,0-0.778-0.157-1.061-0.44l-5.657-5.656c-0.585-0.584-0.585-1.536,0-2.121l1.45-1.45
		c0.045-0.045,0.097-0.088,0.154-0.126c0.165-0.109,0.355-0.166,0.552-0.166c0.338,0,0.65,0.168,0.836,0.449
		c0.047,0.068,0.102,0.136,0.162,0.198c0.284,0.292,0.667,0.453,1.076,0.453c0.393,0,0.765-0.15,1.046-0.423
		c0.287-0.279,0.448-0.654,0.454-1.054c0.006-0.4-0.145-0.779-0.425-1.067c-0.067-0.067-0.145-0.131-0.23-0.187
		c-0.055-0.037-0.108-0.08-0.156-0.128c-0.188-0.189-0.292-0.44-0.292-0.707s0.105-0.518,0.294-0.707l1.45-1.442
		c0.283-0.282,0.659-0.438,1.06-0.438c0.401,0,0.778,0.156,1.061,0.439l1.094,1.093c0.334-0.504,0.841-0.874,1.432-1.033
		c0.213-0.057,0.432-0.087,0.651-0.087c1.127,0,2.12,0.76,2.415,1.848c0.284,1.051-0.146,2.15-1.031,2.736l1.094,1.094
		c0.283,0.283,0.439,0.659,0.439,1.061c0,0.401-0.156,0.777-0.439,1.06l-1.562,1.561c-0.098,0.098-0.213,0.174-0.342,0.224
		c-0.117,0.046-0.24,0.069-0.365,0.069l0,0c-0.415,0-0.78-0.249-0.931-0.635c-0.076-0.193-0.189-0.365-0.335-0.512
		c-0.283-0.283-0.66-0.439-1.061-0.439c-0.401,0-0.778,0.156-1.06,0.438c-0.585,0.585-0.585,1.537,0,2.122
		c0.147,0.148,0.318,0.26,0.509,0.335c0.129,0.051,0.244,0.126,0.342,0.224c0.189,0.189,0.293,0.44,0.293,0.707
		s-0.104,0.518-0.293,0.707l-1.561,1.562C16.42,23.865,16.043,24.022,15.642,24.022L15.642,24.022z M9.632,16.511
		c-0.195,0.195-0.195,0.512,0,0.707l5.657,5.657c0.094,0.095,0.22,0.147,0.354,0.147c0.133,0,0.259-0.052,0.354-0.146l1.562-1.562
		c-0.321-0.126-0.607-0.314-0.851-0.559c-0.472-0.472-0.732-1.099-0.732-1.767s0.26-1.296,0.732-1.768
		c0.471-0.471,1.099-0.731,1.767-0.731c0.669,0,1.297,0.26,1.768,0.731c0.244,0.244,0.433,0.531,0.559,0.854l1.562-1.561
		c0.195-0.195,0.195-0.512,0-0.707l-1.6-1.6c-0.126-0.126-0.176-0.311-0.129-0.483c0.046-0.171,0.181-0.307,0.352-0.353
		c0.799-0.216,1.273-1.041,1.057-1.84c-0.176-0.653-0.772-1.109-1.448-1.109c-0.131,0-0.263,0.018-0.391,0.052
		c-0.513,0.139-0.918,0.544-1.057,1.058c-0.046,0.172-0.182,0.307-0.354,0.353c-0.042,0.011-0.085,0.017-0.129,0.017
		c-0.133,0-0.259-0.052-0.354-0.146l-1.6-1.6c-0.094-0.094-0.22-0.146-0.354-0.146c-0.134,0-0.259,0.052-0.353,0.146l-1.452,1.444
		c0.141,0.093,0.272,0.2,0.39,0.318c0.47,0.483,0.722,1.115,0.713,1.783c-0.01,0.668-0.278,1.292-0.757,1.757
		c-0.469,0.456-1.087,0.707-1.742,0.707c-0.682,0-1.319-0.269-1.793-0.756c-0.101-0.104-0.194-0.218-0.276-0.339l-0.004-0.005
		L9.632,16.511z"/>
</g>
</svg>
