<?xml version="1.0" encoding="utf-8"?>
<!-- Generator: Adobe Illustrator 22.1.0, SVG Export Plug-In . SVG Version: 6.00 Build 0)  -->
<svg version="1.1" id="Layer_1" xmlns="http://www.w3.org/2000/svg" xmlns:xlink="http://www.w3.org/1999/xlink" x="0px" y="0px"
	 viewBox="0 0 24 24" style="enable-background:new 0 0 24 24;" xml:space="preserve">
<g>
	<title>module-phone-puzzle</title>
	<circle cx="7.499" cy="21.479" r="0.75"/>
	<path d="M2.999,23.979c-1.379,0-2.5-1.122-2.5-2.5V2.5c0-1.379,1.121-2.5,2.5-2.5h9c1.379,0,2.5,1.121,2.5,2.5v5.979
		c0,0.276-0.224,0.5-0.5,0.5s-0.5-0.224-0.5-0.5v-3.5h-12v14h6.5c0.276,0,0.5,0.224,0.5,0.5s-0.224,0.5-0.5,0.5h-6.5v1.5
		c0,0.827,0.673,1.5,1.5,1.5h8c0.276,0,0.5,0.224,0.5,0.5s-0.224,0.5-0.5,0.5H2.999z M13.499,3.979V2.5c0-0.827-0.673-1.5-1.5-1.5
		h-9c-0.827,0-1.5,0.673-1.5,1.5v1.479H13.499z"/>
	<path d="M5.999,2.979c-0.276,0-0.5-0.224-0.5-0.5s0.224-0.5,0.5-0.5h3c0.276,0,0.5,0.224,0.5,0.5s-0.224,0.5-0.5,0.5H5.999z"/>
	<path d="M15.635,24c-0.401,0-0.777-0.156-1.061-0.439l-5.657-5.657c-0.585-0.584-0.585-1.536,0-2.121l1.459-1.443
		c0.046-0.046,0.099-0.09,0.156-0.127c0.163-0.108,0.353-0.165,0.549-0.165c0.338,0,0.65,0.168,0.836,0.449
		c0.056,0.085,0.119,0.162,0.189,0.231c0.279,0.27,0.648,0.419,1.037,0.419c0.389,0,0.76-0.151,1.043-0.424
		c0.287-0.278,0.45-0.651,0.457-1.052c0.007-0.401-0.142-0.781-0.42-1.068c-0.064-0.065-0.143-0.129-0.226-0.183
		c-0.058-0.039-0.112-0.082-0.16-0.131c-0.388-0.391-0.386-1.025,0.005-1.414l1.448-1.448c0.283-0.283,0.659-0.438,1.061-0.438
		c0.401,0,0.778,0.156,1.061,0.438l1.093,1.093c0.335-0.508,0.845-0.879,1.439-1.037c0.211-0.057,0.429-0.085,0.646-0.085
		c1.129,0,2.122,0.763,2.415,1.854c0.281,1.051-0.15,2.148-1.037,2.733l1.092,1.092c0.283,0.283,0.439,0.659,0.439,1.06
		c0,0.401-0.156,0.778-0.439,1.061l-1.561,1.562c-0.097,0.098-0.213,0.174-0.343,0.224c-0.117,0.046-0.24,0.069-0.365,0.069l0,0
		c-0.138,0-0.272-0.028-0.4-0.084c-0.245-0.107-0.433-0.303-0.531-0.552c-0.075-0.192-0.188-0.363-0.333-0.509
		c-0.283-0.284-0.66-0.44-1.062-0.44c-0.4,0-0.777,0.155-1.059,0.437c-0.585,0.584-0.587,1.536-0.003,2.122
		c0.146,0.146,0.318,0.259,0.512,0.334c0.129,0.05,0.245,0.126,0.344,0.225c0.189,0.19,0.293,0.441,0.292,0.708
		c-0.001,0.267-0.105,0.518-0.295,0.707l-1.561,1.56C16.412,23.844,16.036,24,15.635,24z M9.623,16.491
		c-0.193,0.193-0.193,0.51,0.002,0.705l5.657,5.657c0.094,0.094,0.22,0.146,0.354,0.146c0.134,0,0.259-0.052,0.353-0.146
		l1.562-1.561c-0.322-0.127-0.61-0.315-0.855-0.56c-0.974-0.976-0.971-2.562,0.004-3.536c0.471-0.47,1.098-0.729,1.765-0.729
		c0.67,0,1.299,0.26,1.771,0.734c0.243,0.243,0.43,0.529,0.556,0.85l1.561-1.561c0.195-0.195,0.195-0.512,0-0.707l-1.6-1.6
		c-0.126-0.126-0.176-0.311-0.129-0.483c0.046-0.172,0.182-0.308,0.354-0.354c0.799-0.214,1.275-1.038,1.061-1.837
		c-0.175-0.655-0.772-1.112-1.45-1.112c-0.13,0-0.26,0.017-0.387,0.051c-0.516,0.138-0.923,0.545-1.061,1.061
		c-0.046,0.172-0.181,0.308-0.354,0.354c-0.042,0.011-0.085,0.017-0.129,0.017c-0.132,0-0.261-0.053-0.354-0.147l-1.6-1.6
		c-0.094-0.094-0.22-0.146-0.354-0.146c-0.134,0-0.259,0.052-0.353,0.146l-1.449,1.449c0.139,0.093,0.271,0.201,0.389,0.32
		c0.961,0.995,0.935,2.582-0.057,3.54c-0.471,0.455-1.088,0.705-1.737,0.705c-0.649,0-1.266-0.25-1.737-0.705
		c-0.123-0.122-0.231-0.254-0.324-0.395L9.623,16.491z M11.082,15.047C11.082,15.047,11.082,15.046,11.082,15.047L11.082,15.047z"/>
</g>
</svg>
