<svg xmlns="http://www.w3.org/2000/svg" viewBox="0 0 24 24"><defs><style>.a{fill:none;stroke:currentColor;stroke-linecap:round;stroke-linejoin:round;}</style></defs><title>loading-3</title><path class="a" d="M10.432.6A.5.5,0,0,1,11,1.1V6.185a.5.5,0,0,1-.376.485A5.457,5.457,0,0,0,8.079,8.144a.5.5,0,0,1-.607.083l-4.4-2.54a.5.5,0,0,1-.145-.739A11.458,11.458,0,0,1,10.432.6Z"/><path class="a" d="M21.071,4.947a.5.5,0,0,1-.144.74l-4.4,2.54a.5.5,0,0,1-.607-.083A5.44,5.44,0,0,0,13.376,6.67.5.5,0,0,1,13,6.185V1.1a.5.5,0,0,1,.172-.377.5.5,0,0,1,.4-.118A11.457,11.457,0,0,1,21.071,4.947Z"/><path class="a" d="M23.5,12a11.43,11.43,0,0,1-.851,4.336.5.5,0,0,1-.714.244l-4.4-2.548a.5.5,0,0,1-.231-.569,5.428,5.428,0,0,0,0-2.927.5.5,0,0,1,.231-.569l4.4-2.547a.5.5,0,0,1,.714.244A11.43,11.43,0,0,1,23.5,12Z"/><path class="a" d="M20.927,18.309a.5.5,0,0,1,.144.739,11.46,11.46,0,0,1-7.5,4.347A.5.5,0,0,1,13,22.9V17.81a.5.5,0,0,1,.376-.484,5.457,5.457,0,0,0,2.545-1.474.5.5,0,0,1,.607-.083Z"/><path class="a" d="M10.624,17.326A.5.5,0,0,1,11,17.81V22.9a.5.5,0,0,1-.568.495,11.461,11.461,0,0,1-7.5-4.346.5.5,0,0,1,.145-.739l4.4-2.54a.5.5,0,0,1,.607.083A5.457,5.457,0,0,0,10.624,17.326Z"/><path class="a" d="M6.5,12a5.361,5.361,0,0,0,.2,1.463.5.5,0,0,1-.231.569l-4.4,2.548a.5.5,0,0,1-.714-.244,11.472,11.472,0,0,1,0-8.672.5.5,0,0,1,.714-.244l4.4,2.547a.5.5,0,0,1,.231.569A5.374,5.374,0,0,0,6.5,12Z"/></svg>