<svg xmlns="http://www.w3.org/2000/svg" viewBox="0 0 24 24"><defs><style>.a{fill:none;stroke:currentColor;stroke-linecap:round;stroke-linejoin:round;}</style></defs><title>loading-circle-1</title><path class="a" d="M16.5,22.038A11,11,0,1,1,12,1"/><path class="a" d="M18.684,3.262c.246.187.483.386.712.593s.449.426.659.652"/><path class="a" d="M21.75,6.905q.215.411.394.839t.322.869"/><path class="a" d="M22.989,11.5q.021.463,0,.927c-.013.308-.038.617-.076.923"/><path class="a" d="M22.169,16.193q-.177.429-.39.841t-.458.806"/><path class="a" d="M15.286,1.5q.481.15.943.343"/><path class="a" d="M19.725,19.829c-.237.234-.485.458-.743.669"/><path class="a" d="M12,4a8,8,0,1,1-8,8"/></svg>