<svg xmlns="http://www.w3.org/2000/svg" viewBox="0 0 24 24"><title>image-document-tiff</title><path d="M22.375,4.375H1.625A1.627,1.627,0,0,0,0,6V18a1.627,1.627,0,0,0,1.625,1.625h20.75A1.627,1.627,0,0,0,24,18V6A1.627,1.627,0,0,0,22.375,4.375ZM7.5,9.625H6.375a.25.25,0,0,0-.25.25V15a.625.625,0,0,1-1.25,0V9.875a.25.25,0,0,0-.25-.25H3.5a.625.625,0,0,1,0-1.25h4a.625.625,0,0,1,0,1.25Zm3.875,4.75H11.5a.625.625,0,0,1,0,1.25h-2a.625.625,0,0,1,0-1.25h.125a.25.25,0,0,0,.25-.25V9.875a.25.25,0,0,0-.25-.25H9.5a.625.625,0,0,1,0-1.25h2a.625.625,0,0,1,0,1.25h-.125a.25.25,0,0,0-.25.25v4.25A.25.25,0,0,0,11.375,14.375ZM16.5,9.625h-2a.375.375,0,0,0-.375.375v1.125a.25.25,0,0,0,.25.25H15.5a.625.625,0,0,1,0,1.25H14.375a.25.25,0,0,0-.25.25V15a.625.625,0,0,1-1.25,0V10A1.626,1.626,0,0,1,14.5,8.375h2a.625.625,0,0,1,0,1.25Zm5,0h-2a.375.375,0,0,0-.375.375v1.125a.25.25,0,0,0,.25.25H20.5a.625.625,0,0,1,0,1.25H19.375a.25.25,0,0,0-.25.25V15a.625.625,0,0,1-1.25,0V10A1.626,1.626,0,0,1,19.5,8.375h2a.625.625,0,0,1,0,1.25Z"/></svg>