<svg xmlns="http://www.w3.org/2000/svg" viewBox="0 0 24 24"><title>image-file-light-alternate</title><path d="M21.707,5.707,16.293.293A1,1,0,0,0,15.586,0H4A2,2,0,0,0,2,2V22a2,2,0,0,0,2,2H20a2,2,0,0,0,2-2V6.414A1,1,0,0,0,21.707,5.707ZM20,21.5a.5.5,0,0,1-.5.5H4.5a.5.5,0,0,1-.5-.5V2.5A.5.5,0,0,1,4.5,2H14.965a.5.5,0,0,1,.353.146l4.536,4.536A.5.5,0,0,1,20,7.035Z"/><circle cx="14.5" cy="16" r="3.5"/><path d="M12.279,12.107a.245.245,0,0,0,.081-.362L9.787,8.312a.252.252,0,0,0-.421.033L5.711,15.132a.25.25,0,0,0,.22.369H9.839a.244.244,0,0,0,.24-.21A4.48,4.48,0,0,1,12.279,12.107Z"/></svg>