<svg xmlns="http://www.w3.org/2000/svg" viewBox="0 0 24 24"><title>image-file-bmp</title><path d="M17.5,6h3.9a.25.25,0,0,0,.177-.427L16.427.427A.25.25,0,0,0,16,.6V4.5A1.5,1.5,0,0,0,17.5,6Z"/><path d="M7.5,17.125H6.875a.25.25,0,0,0-.25.25v1.25a.25.25,0,0,0,.25.25H7.5a.875.875,0,0,0,0-1.75Z"/><path d="M17.5,14.125h-.625a.25.25,0,0,0-.25.25v1.25a.25.25,0,0,0,.25.25H17.5a.875.875,0,0,0,0-1.75Z"/><path d="M7.5,14.125H6.875a.25.25,0,0,0-.25.25v1.25a.25.25,0,0,0,.25.25H7.5a.875.875,0,0,0,0-1.75Z"/><path d="M22,7.25A.25.25,0,0,0,21.75,7H17.5A2.5,2.5,0,0,1,15,4.5V.25A.25.25,0,0,0,14.75,0H4A2,2,0,0,0,2,2V22a2,2,0,0,0,2,2H20a2,2,0,0,0,2-2ZM9.149,16.661a2.13,2.13,0,0,1,.412,1.867,2.174,2.174,0,0,1-2.137,1.6H6a.625.625,0,0,1-.625-.625v-6A.625.625,0,0,1,6,12.875H7.424a2.174,2.174,0,0,1,2.137,1.6,2.13,2.13,0,0,1-.412,1.867A.248.248,0,0,0,9.149,16.661ZM14.625,19.5a.625.625,0,0,1-1.25,0V16.436c0-.107-.108-.073-.144,0s-.172.343-.172.343a.65.65,0,0,1-1.118,0s-.138-.261-.172-.343-.144-.094-.144,0V19.5a.625.625,0,0,1-1.25,0v-6a.625.625,0,0,1,1.184-.279s.731,1.474.8,1.606.206.139.276,0l.8-1.606a.625.625,0,0,1,1.184.279Zm2.75-2.375h-.5a.25.25,0,0,0-.25.25V19.5a.625.625,0,0,1-1.25,0v-6A.625.625,0,0,1,16,12.875h1.5a2.128,2.128,0,0,1,2.114,2.347A2.213,2.213,0,0,1,17.375,17.125Z"/></svg>