<svg xmlns="http://www.w3.org/2000/svg" viewBox="0 0 24 24"><title>image-document-eps-1</title><path d="M22.5,0H1.5A1.5,1.5,0,0,0,0,1.5v21A1.5,1.5,0,0,0,1.5,24h21A1.5,1.5,0,0,0,24,22.5V1.5A1.5,1.5,0,0,0,22.5,0ZM7,14.875a.625.625,0,0,1,0,1.25H5.375a.25.25,0,0,0-.25.25V18A.875.875,0,0,0,6,18.875H8.5a.625.625,0,0,1,0,1.25H6A2.124,2.124,0,0,1,3.875,18V13A2.124,2.124,0,0,1,6,10.875H8.5a.625.625,0,0,1,0,1.25H6A.875.875,0,0,0,5.125,13v1.625a.25.25,0,0,0,.25.25Zm5.4,1.25H11.375a.25.25,0,0,0-.25.25V19.5a.625.625,0,0,1-1.25,0v-8a.625.625,0,0,1,.625-.625h2a2.629,2.629,0,0,1,2.574,3.149A2.7,2.7,0,0,1,12.4,16.125Zm5.409-1.672,1.949.976a2.479,2.479,0,0,1-1.108,4.7H16.5a.625.625,0,0,1,0-1.25h2.146a1.229,1.229,0,0,0,.549-2.328l-1.949-.976a2.479,2.479,0,0,1,1.108-4.7H20.5a.625.625,0,0,1,0,1.25H18.354a1.229,1.229,0,0,0-.549,2.328Z"/><path d="M12.5,12.125H11.375a.25.25,0,0,0-.25.25v2.25a.25.25,0,0,0,.25.25H12.5a1.375,1.375,0,0,0,0-2.75Z"/></svg>