<svg xmlns="http://www.w3.org/2000/svg" viewBox="0 0 24 24"><title>image-file-png</title><path d="M17.5,6h3.9a.25.25,0,0,0,.177-.427L16.427.427A.25.25,0,0,0,16,.6V4.5A1.5,1.5,0,0,0,17.5,6Z"/><path d="M7,13.625H6.375a.25.25,0,0,0-.25.25v1.25a.25.25,0,0,0,.25.25H7a.875.875,0,0,0,0-1.75Z"/><path d="M21.75,7H17.5A2.5,2.5,0,0,1,15,4.5V.25A.25.25,0,0,0,14.75,0H4A2,2,0,0,0,2,2V22a2,2,0,0,0,2,2H20a2,2,0,0,0,2-2V7.25A.25.25,0,0,0,21.75,7ZM6.875,16.625h-.5a.25.25,0,0,0-.25.25V19a.625.625,0,0,1-1.25,0V13a.625.625,0,0,1,.625-.625H7a2.128,2.128,0,0,1,2.114,2.347A2.213,2.213,0,0,1,6.875,16.625ZM14.125,19a.624.624,0,0,1-.481.608.644.644,0,0,1-.144.017.627.627,0,0,1-.559-.346s-1.485-2.965-1.552-3.1-.264-.188-.264,0V19a.625.625,0,0,1-1.25,0V13a.625.625,0,0,1,1.184-.279s1.489,2.988,1.554,3.108.262.16.262-.021V13a.625.625,0,0,1,1.25,0Zm5-4a.625.625,0,0,1-1.25,0v-.5a.875.875,0,0,0-1.75,0v3a.876.876,0,0,0,1.68.345c.029-.07.06-.22-.1-.22H17.5a.625.625,0,0,1,0-1.25h1a.625.625,0,0,1,.625.625v.5a2.125,2.125,0,0,1-4.25,0v-3a2.125,2.125,0,0,1,4.25,0Z"/></svg>