<svg xmlns="http://www.w3.org/2000/svg" viewBox="0 0 24 24"><title>image-file-landscape-alternate</title><path d="M21.707,5.707,16.293.293A1,1,0,0,0,15.586,0H4A2,2,0,0,0,2,2V22a2,2,0,0,0,2,2H20a2,2,0,0,0,2-2V6.414A1,1,0,0,0,21.707,5.707ZM20,21.5a.5.5,0,0,1-.5.5H4.5a.5.5,0,0,1-.5-.5V2.5A.5.5,0,0,1,4.5,2H14.965a.5.5,0,0,1,.353.146l4.536,4.536A.5.5,0,0,1,20,7.035Z"/><circle cx="8.799" cy="8" r="2"/><path d="M14.223,10.678a.5.5,0,0,0-.848,0L10.949,14.56a.251.251,0,0,1-.424,0l-.864-1.382a.5.5,0,0,0-.848,0L6.038,17.617A.25.25,0,0,0,6.25,18h12.1a.25.25,0,0,0,.212-.383Z"/></svg>