<svg xmlns="http://www.w3.org/2000/svg" viewBox="0 0 24 24"><title>image-file-settings</title><path d="M13.187,7.03A1.493,1.493,0,1,0,11.7,5.538,1.493,1.493,0,0,0,13.187,7.03Z"/><path d="M23.414,3,21,.586A2,2,0,0,0,19.585,0H8A2,2,0,0,0,6,2V8.294a.245.245,0,0,0,.214.247,7.858,7.858,0,0,1,1.45.318A.248.248,0,0,0,8,8.626V2.5A.5.5,0,0,1,8.5,2H19.379a.5.5,0,0,1,.353.146l2.122,2.122A.5.5,0,0,1,22,4.621V18a.5.5,0,0,1-.5.5H14.141a.25.25,0,0,0-.238.315,3.245,3.245,0,0,1,.023,1.377.248.248,0,0,0,.239.307H22a2,2,0,0,0,2-2V4.415A2,2,0,0,0,23.414,3Z"/><path d="M20.477,12.9a.186.186,0,0,0-.006-.189L17.235,7.536a.373.373,0,0,0-.633,0l-1.81,2.9a.187.187,0,0,1-.317,0L13.831,9.4a.375.375,0,0,0-.633,0L12.129,11.11a.253.253,0,0,0,.1.356,3.224,3.224,0,0,1,1.4,1.373.245.245,0,0,0,.227.161h6.459A.185.185,0,0,0,20.477,12.9Z"/><circle cx="6.252" cy="17.031" r="1.5"/><path d="M12.02,15.654a1.782,1.782,0,0,0-1.7-2.953l-1.411.326a.453.453,0,0,1-.533-.31l-.424-1.393a1.775,1.775,0,0,0-3.4,0l-.424,1.393a.456.456,0,0,1-.533.31L2.185,12.7a1.782,1.782,0,0,0-1.7,2.952l.988,1.066a.463.463,0,0,1,0,.625L.484,18.408a1.782,1.782,0,0,0,1.7,2.953L3.6,21.035a.453.453,0,0,1,.533.311l.424,1.391a1.774,1.774,0,0,0,3.4,0l.424-1.392a.453.453,0,0,1,.533-.311l1.411.326a1.782,1.782,0,0,0,1.7-2.952l-.988-1.065a.463.463,0,0,1,0-.625ZM6.252,20.031a3,3,0,1,1,3-3A3,3,0,0,1,6.252,20.031Z"/></svg>