<svg xmlns="http://www.w3.org/2000/svg" viewBox="0 0 24 24"><title>image-file-edit</title><path d="M14.68,5.538A1.493,1.493,0,1,0,13.187,7.03,1.493,1.493,0,0,0,14.68,5.538Z"/><path d="M11.122,12.9a.187.187,0,0,0,.163.1h9.028a.186.186,0,0,0,.158-.286L17.235,7.536a.374.374,0,0,0-.633,0l-1.81,2.9a.187.187,0,0,1-.317,0L13.831,9.4a.374.374,0,0,0-.633,0l-2.071,3.312A.187.187,0,0,0,11.122,12.9Z"/><path d="M23.414,3,21,.586A2,2,0,0,0,19.585,0H8A2,2,0,0,0,6,2v9.067a.249.249,0,0,0,.073.177l1.5,1.5A.25.25,0,0,0,8,12.567V2.5A.5.5,0,0,1,8.5,2H19.379a.5.5,0,0,1,.353.146l2.122,2.122A.5.5,0,0,1,22,4.621V18a.5.5,0,0,1-.5.5H13.679a.247.247,0,0,0-.234.333c.162.437.359,1.153.447,1.486a.244.244,0,0,0,.24.18H22a2,2,0,0,0,2-2V4.415A2,2,0,0,0,23.414,3Z"/><path d="M11.15,18.449,4.57,11.868A2.71,2.71,0,0,0,.964,11.6a2.622,2.622,0,0,0-.2,3.881l6.679,6.679a.25.25,0,0,0,.353,0L11.15,18.8A.249.249,0,0,0,11.15,18.449Z"/><path d="M11.938,20.135,9.129,22.943a.251.251,0,0,0,.128.423l3.143.628a.566.566,0,0,0,.452-.137.5.5,0,0,0,.136-.451l-.628-3.143A.25.25,0,0,0,11.938,20.135Z"/></svg>