<svg xmlns="http://www.w3.org/2000/svg" viewBox="0 0 24 24"><title>image-file-eps</title><path d="M12,13.625h-.625a.25.25,0,0,0-.25.25v1.25a.25.25,0,0,0,.25.25H12a.875.875,0,0,0,0-1.75Z"/><path d="M17.5,6h3.9a.25.25,0,0,0,.177-.427L16.427.427A.25.25,0,0,0,16,.6V4.5A1.5,1.5,0,0,0,17.5,6Z"/><path d="M21.75,7H17.5A2.5,2.5,0,0,1,15,4.5V.25A.25.25,0,0,0,14.75,0H4A2,2,0,0,0,2,2V22a2,2,0,0,0,2,2H20a2,2,0,0,0,2-2V7.25A.25.25,0,0,0,21.75,7ZM5.875,15.375H7a.625.625,0,0,1,0,1.25H5.875a.25.25,0,0,0-.25.25V18A.375.375,0,0,0,6,18.375H8a.625.625,0,0,1,0,1.25H6A1.626,1.626,0,0,1,4.375,18V14A1.626,1.626,0,0,1,6,12.375H8a.625.625,0,0,1,0,1.25H6A.375.375,0,0,0,5.625,14v1.125A.25.25,0,0,0,5.875,15.375Zm6,1.25h-.5a.25.25,0,0,0-.25.25V19a.625.625,0,0,1-1.25,0V13a.625.625,0,0,1,.625-.625H12a2.128,2.128,0,0,1,2.114,2.347A2.213,2.213,0,0,1,11.875,16.625Zm4.552-1.758,1.84,1.227a1.928,1.928,0,0,1-1.07,3.532H15.5a.625.625,0,0,1,0-1.25h1.7a.678.678,0,0,0,.376-1.242l-1.84-1.227a1.928,1.928,0,0,1,1.07-3.532h1.7a.625.625,0,0,1,0,1.25H16.8a.678.678,0,0,0-.376,1.242Z"/></svg>