<svg xmlns="http://www.w3.org/2000/svg" viewBox="0 0 24 24"><title>image-file-share</title><path d="M13.187,7.03A1.493,1.493,0,1,0,11.7,5.538,1.493,1.493,0,0,0,13.187,7.03Z"/><path d="M23.414,3,21,.586A2,2,0,0,0,19.585,0H8A2,2,0,0,0,6,2V12.015a.25.25,0,0,0,.469.121A6.218,6.218,0,0,1,7.9,10.222.233.233,0,0,0,8,10.03V2.5A.5.5,0,0,1,8.5,2H19.379a.5.5,0,0,1,.353.146l2.121,2.122A.5.5,0,0,1,22,4.621V18a.5.5,0,0,1-.5.5H13.981a.247.247,0,0,0-.212.379,4.227,4.227,0,0,1,.617,1.425.245.245,0,0,0,.237.2H22a2,2,0,0,0,2-2V4.414A2,2,0,0,0,23.414,3Z"/><path d="M14.622,13h5.691a.186.186,0,0,0,.158-.286L17.235,7.536a.373.373,0,0,0-.633,0l-1.81,2.9a.187.187,0,0,1-.317,0L13.831,9.4a.375.375,0,0,0-.633,0l-.421.674a.26.26,0,0,0,.082.328,4.252,4.252,0,0,1,1.526,2.4A.244.244,0,0,0,14.622,13Z"/><path d="M8.442,16a.245.245,0,0,1,.266.012,2.74,2.74,0,0,0,4.167-1.425A2.758,2.758,0,0,0,10.25,11a2.808,2.808,0,0,0-2.713,3.059.245.245,0,0,1-.115.221L4.558,16a.245.245,0,0,1-.266-.012,2.71,2.71,0,0,0-2.406-.349A2.706,2.706,0,0,0,.124,17.413,2.759,2.759,0,0,0,2.75,21a2.729,2.729,0,0,0,1.887-.761.244.244,0,0,1,.259-.053s1.924.781,2.464,1A.239.239,0,0,1,7.5,21.4a2.753,2.753,0,1,0,5.361-1.025,2.681,2.681,0,0,0-1.736-1.74,2.74,2.74,0,0,0-2.767.623.24.24,0,0,1-.258.053L5.553,18.3a.114.114,0,0,1-.06-.084l-.03-.353a.118.118,0,0,1,.056-.1Z"/></svg>