<svg xmlns="http://www.w3.org/2000/svg" viewBox="0 0 24 24"><title>image-document-svg</title><path d="M22.5,4.5H1.5A1.5,1.5,0,0,0,0,6V18a1.5,1.5,0,0,0,1.5,1.5h21A1.5,1.5,0,0,0,24,18V6A1.5,1.5,0,0,0,22.5,4.5ZM6.427,10.867l1.84,1.227A1.927,1.927,0,0,1,7.2,15.625H5.5a.625.625,0,0,1,0-1.25H7.2a.678.678,0,0,0,.376-1.242l-1.84-1.227A1.927,1.927,0,0,1,6.8,8.375H8.5a.625.625,0,0,1,0,1.25H6.8a.678.678,0,0,0-.376,1.242Zm7.7-.367A8.176,8.176,0,0,1,12.5,15.375a.625.625,0,0,1-1,0A8.176,8.176,0,0,1,9.875,10.5V9a.625.625,0,0,1,1.25,0v1.5a6.93,6.93,0,0,0,.674,2.966.252.252,0,0,0,.4.008,6.922,6.922,0,0,0,.678-2.974V9a.625.625,0,0,1,1.25,0Zm5,.5a.625.625,0,0,1-1.25,0v-.5a.875.875,0,0,0-1.75,0v3a.875.875,0,0,0,1.671.365c.034-.075.082-.24-.1-.24h-.2a.625.625,0,0,1,0-1.25h1a.625.625,0,0,1,.625.625v.5a2.125,2.125,0,0,1-4.25,0v-3a2.125,2.125,0,0,1,4.25,0Z"/></svg>