<svg xmlns="http://www.w3.org/2000/svg" viewBox="0 0 24 24"><title>image-document-bmp</title><path d="M7,9.625H6.375a.25.25,0,0,0-.25.25v1.25a.25.25,0,0,0,.25.25H7a.875.875,0,0,0,0-1.75Z"/><path d="M22.5,4.5H1.5A1.5,1.5,0,0,0,0,6V18a1.5,1.5,0,0,0,1.5,1.5h21A1.5,1.5,0,0,0,24,18V6A1.5,1.5,0,0,0,22.5,4.5ZM8.649,12.161a2.13,2.13,0,0,1,.412,1.867,2.174,2.174,0,0,1-2.137,1.6H5.5A.625.625,0,0,1,4.875,15V9A.625.625,0,0,1,5.5,8.375H6.924a2.174,2.174,0,0,1,2.137,1.6,2.13,2.13,0,0,1-.412,1.867A.248.248,0,0,0,8.649,12.161ZM14.125,15a.625.625,0,0,1-1.25,0V11.936c0-.107-.108-.074-.144,0l-.172.343a.65.65,0,0,1-1.118,0s-.138-.26-.172-.343-.144-.094-.144,0V15a.625.625,0,0,1-1.25,0V9a.625.625,0,0,1,1.184-.279s.73,1.474.8,1.606.206.139.276,0l.8-1.606A.625.625,0,0,1,14.125,9Zm2.75-2.375h-.5a.25.25,0,0,0-.25.25V15a.625.625,0,0,1-1.25,0V9a.625.625,0,0,1,.625-.625H17a2.128,2.128,0,0,1,2.114,2.347A2.213,2.213,0,0,1,16.875,12.625Z"/><path d="M7,12.625H6.375a.25.25,0,0,0-.25.25v1.25a.25.25,0,0,0,.25.25H7a.875.875,0,0,0,0-1.75Z"/><path d="M17,9.625h-.625a.25.25,0,0,0-.25.25v1.25a.25.25,0,0,0,.25.25H17a.875.875,0,0,0,0-1.75Z"/></svg>