<svg xmlns="http://www.w3.org/2000/svg" viewBox="0 0 24 24"><title>image-document-png-1</title><path d="M6.5,12.125H5.375a.25.25,0,0,0-.25.25v2.25a.25.25,0,0,0,.25.25H6.5a1.375,1.375,0,0,0,0-2.75Z"/><path d="M22.5,0H1.5A1.5,1.5,0,0,0,0,1.5v21A1.5,1.5,0,0,0,1.5,24h21A1.5,1.5,0,0,0,24,22.5V1.5A1.5,1.5,0,0,0,22.5,0ZM6.4,16.125H5.375a.25.25,0,0,0-.25.25V19.5a.625.625,0,0,1-1.25,0v-8a.625.625,0,0,1,.625-.625h2a2.629,2.629,0,0,1,2.574,3.149A2.7,2.7,0,0,1,6.4,16.125ZM15.125,19.5a.624.624,0,0,1-.481.608.644.644,0,0,1-.144.017.627.627,0,0,1-.559-.346L11.6,15.094a.25.25,0,0,0-.474.112V19.5a.625.625,0,0,1-1.25,0v-8a.625.625,0,0,1,1.184-.279L13.4,15.906a.25.25,0,0,0,.474-.112V11.5a.625.625,0,0,1,1.25,0Zm3.375-.625A1.377,1.377,0,0,0,19.875,17.5s.04-.375-.255-.375H19a.625.625,0,0,1,0-1.25h1.5a.625.625,0,0,1,.625.625v1a2.625,2.625,0,0,1-5.25,0v-4a2.625,2.625,0,0,1,5.25,0,.625.625,0,0,1-1.25,0,1.375,1.375,0,0,0-2.75,0v4A1.377,1.377,0,0,0,18.5,18.875Z"/></svg>