<svg xmlns="http://www.w3.org/2000/svg" viewBox="0 0 24 24"><defs><style>.a{fill:none;stroke:currentColor;stroke-linecap:round;stroke-linejoin:round;}</style></defs><title>asp</title><rect class="a" x="0.5" y="5.004" width="23" height="14" rx="1" ry="1"/><path class="a" d="M5.5,15V10.5a1.5,1.5,0,1,1,3,0V15"/><line class="a" x1="5.5" y1="12.004" x2="8.5" y2="12.004"/><path class="a" d="M13.5,9H11.8a1.3,1.3,0,0,0-.723,2.386l1.84,1.227A1.3,1.3,0,0,1,12.2,15H10.5"/><path class="a" d="M18.5,10.5A1.5,1.5,0,0,1,17,12H15.5V9H17A1.5,1.5,0,0,1,18.5,10.5Z"/><line class="a" x1="15.5" y1="15.004" x2="15.5" y2="12.004"/></svg>