<svg xmlns="http://www.w3.org/2000/svg" viewBox="0 0 24 24"><defs><style>.a{fill:none;stroke:currentColor;stroke-linecap:round;stroke-linejoin:round;}</style></defs><title>exe-1</title><rect class="a" x="0.5" y="0.504" width="23" height="23" rx="1" ry="1"/><path class="a" d="M20.5,19.5H18A1.5,1.5,0,0,1,16.5,18V13A1.5,1.5,0,0,1,18,11.5h2.5"/><line class="a" x1="16.5" y1="15.504" x2="19" y2="15.504"/><path class="a" d="M8.5,19.5H6A1.5,1.5,0,0,1,4.5,18V13A1.5,1.5,0,0,1,6,11.5H8.5"/><line class="a" x1="4.5" y1="15.504" x2="7" y2="15.504"/><line class="a" x1="10.5" y1="19.504" x2="14.5" y2="11.504"/><line class="a" x1="14.5" y1="19.504" x2="10.5" y2="11.504"/></svg>