<svg xmlns="http://www.w3.org/2000/svg" viewBox="0 0 24 24"><defs><style>.a{fill:none;stroke:currentColor;stroke-linecap:round;stroke-linejoin:round;}</style></defs><title>file-code-search</title><circle class="a" cx="17.061" cy="17.033" r="4.529"/><line class="a" x1="23.531" y1="23.504" x2="20.284" y2="20.256"/><path class="a" d="M11.531,23.5h-10a1,1,0,0,1-1-1V1.5a1,1,0,0,1,1-1H14.824A1,1,0,0,1,15.531.8L19.238,4.5a1,1,0,0,1,.293.707V9.5"/><line class="a" x1="3.531" y1="5.504" x2="3.531" y2="9.504"/><line class="a" x1="12.531" y1="5.504" x2="12.531" y2="9.504"/><line class="a" x1="9.531" y1="12.504" x2="9.531" y2="16.504"/><line class="a" x1="15.531" y1="5.504" x2="15.531" y2="9.504"/><path class="a" d="M8.031,5.5A1.5,1.5,0,0,1,9.531,7V8a1.5,1.5,0,1,1-3,0V7A1.5,1.5,0,0,1,8.031,5.5Z"/><path class="a" d="M5.031,12.5a1.5,1.5,0,0,1,1.5,1.5v1a1.5,1.5,0,0,1-3,0V14A1.5,1.5,0,0,1,5.031,12.5Z"/></svg>