<svg xmlns="http://www.w3.org/2000/svg" viewBox="0 0 24 24"><defs><style>.a{fill:none;stroke:currentColor;stroke-linecap:round;stroke-linejoin:round;}</style></defs><title>file-code-check-1</title><path class="a" d="M10.5,23.5h-9a1,1,0,0,1-1-1V1.5a1,1,0,0,1,1-1H14.793A1,1,0,0,1,15.5.8L19.207,4.5a1,1,0,0,1,.293.707V8.5"/><polyline class="a" points="6.5 7.004 3.5 10.004 6.5 13.004"/><polyline class="a" points="9.5 7.004 12.5 10.004 9.5 13.004"/><circle class="a" cx="17.5" cy="17.504" r="6"/><path class="a" d="M20.174,15.759l-2.905,3.874a.751.751,0,0,1-1.131.08l-1.5-1.5"/></svg>