<svg xmlns="http://www.w3.org/2000/svg" viewBox="0 0 24 24"><defs><style>.a{fill:none;stroke:currentColor;stroke-linecap:round;stroke-linejoin:round;}</style></defs><title>file-code-star-1</title><path class="a" d="M9.542,23.5h-8a1,1,0,0,1-1-1V1.5a1,1,0,0,1,1-1H14.835A1,1,0,0,1,15.542.8L19.249,4.5a1,1,0,0,1,.293.707V8.5"/><polyline class="a" points="6.542 7.004 3.542 10.004 6.542 13.004"/><polyline class="a" points="9.542 7.004 12.542 10.004 9.542 13.004"/><path class="a" d="M18.248,11.934l1.539,3.57h2.994a.735.735,0,0,1,.518,1.283L20.7,19.1l1.441,3.314a.785.785,0,0,1-1.118.982l-3.48-1.961L14.062,23.4a.785.785,0,0,1-1.117-.982l1.44-3.314-2.6-2.315A.734.734,0,0,1,12.3,15.5H15.3l1.541-3.57A.794.794,0,0,1,18.248,11.934Z"/></svg>