<svg xmlns="http://www.w3.org/2000/svg" viewBox="0 0 24 24"><defs><style>.a{fill:none;stroke:currentColor;stroke-linecap:round;stroke-linejoin:round;}</style></defs><title>file-ym</title><path class="a" d="M20.5,23.5a1,1,0,0,0,1-1V6.478A5.975,5.975,0,0,0,15.525.5H3.5a1,1,0,0,0-1,1v21a1,1,0,0,0,1,1Z"/><path class="a" d="M16.5.584V4.5a1,1,0,0,0,1,1h3.92"/><polyline class="a" points="13.5 18.504 13.5 12.504 15 15.504 16.5 12.504 16.5 18.504"/><line class="a" x1="9.5" y1="15.504" x2="9.5" y2="18.504"/><path class="a" d="M7.5,12.5v1a2,2,0,0,0,4,0v-1"/></svg>