<svg xmlns="http://www.w3.org/2000/svg" viewBox="0 0 24 24"><defs><style>.a{fill:none;stroke:currentColor;stroke-linecap:round;stroke-linejoin:round;}</style></defs><title>file-code-question-1</title><path class="a" d="M9.542,23.5h-8a1,1,0,0,1-1-1V1.5a1,1,0,0,1,1-1H14.835A1,1,0,0,1,15.542.8L19.249,4.5a1,1,0,0,1,.293.707V8.5"/><polyline class="a" points="6.542 7.004 3.542 10.004 6.542 13.004"/><polyline class="a" points="9.542 7.004 12.542 10.004 9.542 13.004"/><circle class="a" cx="17.542" cy="17.504" r="6"/><path class="a" d="M15.667,16.045a1.875,1.875,0,1,1,1.875,1.875v1"/><path class="a" d="M17.542,20.92a.25.25,0,1,1-.25.25.25.25,0,0,1,.25-.25"/></svg>