<svg xmlns="http://www.w3.org/2000/svg" viewBox="0 0 24 24"><defs><style>.a{fill:none;stroke:currentColor;stroke-linecap:round;stroke-linejoin:round;}</style></defs><title>file-dat-1</title><path class="a" d="M19.5,12.5V6.478A5.975,5.975,0,0,0,13.525.5H1.5a1,1,0,0,0-1,1v21a1,1,0,0,0,1,1h3"/><path class="a" d="M14.5.584V4.5a1,1,0,0,0,1,1h3.92"/><path class="a" d="M7.5,15.5a4,4,0,0,1,0,8Z"/><path class="a" d="M13.5,23.5v-6a2,2,0,1,1,4,0v6"/><line class="a" x1="13.5" y1="19.504" x2="17.5" y2="19.504"/><line class="a" x1="19.5" y1="15.504" x2="23.5" y2="15.504"/><line class="a" x1="21.5" y1="15.504" x2="21.5" y2="23.504"/></svg>