<svg xmlns="http://www.w3.org/2000/svg" viewBox="0 0 24 24"><defs><style>.a{fill:none;stroke:currentColor;stroke-linecap:round;stroke-linejoin:round;}</style></defs><title>file-database</title><path class="a" d="M21.207,4.5a1,1,0,0,1,.293.707V22.5a1,1,0,0,1-1,1H3.5a1,1,0,0,1-1-1V1.5a1,1,0,0,1,1-1H16.793A1,1,0,0,1,17.5.8Z"/><path class="a" d="M17.5,9.565c0,1.157-2.489,2.129-5.513,2.129s-5.473-.937-5.473-2.1S8.965,7.5,11.987,7.5,17.5,8.407,17.5,9.565Z"/><path class="a" d="M17.5,13.017c0,1.158-2.489,2.13-5.513,2.13s-5.473-.939-5.473-2.1"/><path class="a" d="M6.514,9.6v6.811c0,1.156,2.45,2.1,5.473,2.1s5.513-.973,5.513-2.13V9.565"/></svg>