<svg xmlns="http://www.w3.org/2000/svg" viewBox="0 0 24 24"><defs><style>.a{fill:none;stroke:currentColor;stroke-linecap:round;stroke-linejoin:round;}</style></defs><title>java</title><rect class="a" x="0.5" y="5.004" width="23" height="14" rx="1" ry="1"/><path class="a" d="M6.031,9v4.5a1.5,1.5,0,0,1-3,0"/><path class="a" d="M8.031,15V10.5a1.5,1.5,0,0,1,3,0V15"/><line class="a" x1="8.031" y1="12.004" x2="11.031" y2="12.004"/><path class="a" d="M18.031,15V10.5a1.5,1.5,0,1,1,3,0V15"/><line class="a" x1="18.031" y1="12.004" x2="21.031" y2="12.004"/><path class="a" d="M16.031,9v1.5a7.5,7.5,0,0,1-1.5,4.5,7.5,7.5,0,0,1-1.5-4.5V9"/></svg>