<svg xmlns="http://www.w3.org/2000/svg" viewBox="0 0 24 24"><defs><style>.a{fill:none;stroke:currentColor;stroke-linecap:round;stroke-linejoin:round;}</style></defs><title>php-1</title><rect class="a" x="0.5" y="0.504" width="23" height="23" rx="1" ry="1"/><path class="a" d="M20.5,13.5a2,2,0,0,1-2,2h-2v-4h2A2,2,0,0,1,20.5,13.5Z"/><line class="a" x1="16.5" y1="19.504" x2="16.5" y2="15.504"/><path class="a" d="M8.5,13.5a2,2,0,0,1-2,2h-2v-4h2A2,2,0,0,1,8.5,13.5Z"/><line class="a" x1="4.5" y1="19.504" x2="4.5" y2="15.504"/><line class="a" x1="14.5" y1="11.504" x2="14.5" y2="19.504"/><line class="a" x1="10.5" y1="19.504" x2="10.5" y2="11.504"/><line class="a" x1="10.5" y1="15.504" x2="14.5" y2="15.504"/></svg>