<svg xmlns="http://www.w3.org/2000/svg" viewBox="0 0 24 24"><defs><style>.a{fill:none;stroke:currentColor;stroke-linecap:round;stroke-linejoin:round;stroke-width:1.5px;}</style></defs><title>award-medal-4</title><path class="a" d="M16.706,17.25a2.4,2.4,0,0,0-2.353-4.075,2.4,2.4,0,0,0-4.7,0A2.4,2.4,0,0,0,7.3,17.25a2.4,2.4,0,0,0,2.353,4.075,2.4,2.4,0,0,0,4.705,0,2.4,2.4,0,0,0,2.353-4.075Z"/><line class="a" x1="12" y1="16.875" x2="12" y2="16.875"/><path class="a" d="M12,16.875a.375.375,0,1,0,.375.375A.375.375,0,0,0,12,16.875"/><path class="a" d="M12.84,11.4l3.782-2.7a1.5,1.5,0,0,0,.628-1.221V2.25a1.5,1.5,0,0,0-1.5-1.5H8.25a1.5,1.5,0,0,0-1.5,1.5V7.478A1.5,1.5,0,0,0,7.378,8.7l3.785,2.7"/><line class="a" x1="12" y1="0.75" x2="12" y2="11.25"/></svg>