<?xml version="1.0" encoding="utf-8"?>
<!-- Generator: Adobe Illustrator 22.1.0, SVG Export Plug-In . SVG Version: 6.00 Build 0)  -->
<svg version="1.1" id="Layer_1" xmlns="http://www.w3.org/2000/svg" xmlns:xlink="http://www.w3.org/1999/xlink" x="0px" y="0px"
	 viewBox="0 0 24 24" style="enable-background:new 0 0 24 24;" xml:space="preserve">
<title>module-hands-puzzle</title>
<g>
	<path d="M11.002,13.515c-0.435,0-0.843-0.171-1.147-0.481L4.96,8.139c-0.621-0.615-0.632-1.63-0.021-2.26l1.239-1.239
		c0.222-0.221,0.515-0.343,0.825-0.343c0.045,0,0.091,0.003,0.137,0.008c0.347,0.038,0.66,0.229,0.856,0.523
		c0.037,0.055,0.08,0.108,0.128,0.156C8.172,5.04,8.2,5.069,8.23,5.095c0.176,0.157,0.394,0.24,0.63,0.24
		c0.019,0,0.038,0,0.057-0.002C9.17,5.318,9.402,5.205,9.571,5.016c0.348-0.391,0.312-0.993-0.079-1.341
		C9.415,3.599,9.362,3.555,9.305,3.517C9.012,3.321,8.822,3.009,8.783,2.659c-0.04-0.354,0.081-0.704,0.334-0.957l1.231-1.231
		c0.305-0.301,0.707-0.466,1.133-0.466c0.433,0,0.839,0.17,1.143,0.477l0.692,0.692c0.022-0.024,0.045-0.048,0.069-0.071
		c0.474-0.459,1.089-0.71,1.736-0.71c0.645,0,1.257,0.249,1.725,0.701c0.477,0.461,0.745,1.08,0.756,1.744
		c0.011,0.663-0.237,1.291-0.698,1.768c-0.027,0.027-0.054,0.053-0.081,0.078l0.695,0.696c0.627,0.616,0.637,1.634,0.019,2.267
		L16.21,8.975c-0.223,0.222-0.517,0.343-0.828,0.343l0,0c-0.085,0-0.17-0.009-0.254-0.028c-0.386-0.086-0.703-0.355-0.85-0.722
		c-0.051-0.126-0.126-0.24-0.223-0.337c-0.052-0.057-0.08-0.085-0.11-0.112c-0.174-0.155-0.397-0.24-0.63-0.24
		c-0.019,0-0.038,0-0.057,0.002c-0.253,0.015-0.486,0.128-0.654,0.317c-0.168,0.189-0.253,0.433-0.238,0.687
		c0.015,0.254,0.127,0.486,0.317,0.654c0.011,0.01,0.024,0.022,0.038,0.036c0.096,0.098,0.21,0.174,0.337,0.226
		c0.363,0.147,0.63,0.463,0.715,0.846c0.087,0.391-0.029,0.795-0.311,1.08l-1.33,1.324C11.827,13.352,11.426,13.515,11.002,13.515z
		 M6.007,6.931c-0.033,0.035-0.031,0.104,0.01,0.145l4.903,4.902c0.03,0.031,0.062,0.037,0.083,0.037
		c0.02,0,0.049-0.005,0.075-0.031l1.008-1.004c-0.154-0.098-0.296-0.214-0.426-0.345c-0.467-0.419-0.753-1.015-0.792-1.662
		c-0.038-0.653,0.18-1.282,0.615-1.772c0.435-0.489,1.034-0.78,1.687-0.818c0.049-0.003,0.1-0.005,0.15-0.005
		c0.596,0,1.172,0.22,1.621,0.619c0.072,0.064,0.141,0.133,0.204,0.204c0.115,0.113,0.222,0.248,0.316,0.398l1.008-1.009
		c0.037-0.037,0.034-0.107-0.008-0.148L15.069,5.05c-0.19-0.19-0.264-0.469-0.192-0.729c0.071-0.259,0.277-0.462,0.538-0.528
		c0.159-0.041,0.304-0.123,0.42-0.239c0.176-0.182,0.272-0.429,0.268-0.692c-0.004-0.262-0.111-0.507-0.3-0.69
		c-0.186-0.18-0.428-0.278-0.683-0.278s-0.498,0.099-0.684,0.279c-0.108,0.109-0.189,0.252-0.23,0.411
		c-0.066,0.26-0.269,0.467-0.528,0.538c-0.065,0.018-0.132,0.027-0.199,0.027c-0.2,0-0.389-0.078-0.53-0.22L11.56,1.539
		c-0.029-0.029-0.059-0.035-0.08-0.035c-0.02,0-0.049,0.005-0.075,0.03l-0.968,0.968c0.029,0.027,0.058,0.054,0.085,0.082
		c0.454,0.402,0.747,1.011,0.785,1.655c0.038,0.653-0.18,1.282-0.615,1.772c-0.435,0.489-1.034,0.78-1.687,0.818
		C8.956,6.833,8.908,6.835,8.859,6.835c-0.6,0-1.177-0.22-1.626-0.619c-0.071-0.063-0.14-0.132-0.204-0.204
		C7.013,5.996,6.996,5.979,6.979,5.96L6.007,6.931z"/>
	<path d="M8.248,24.001c-0.414,0-0.75-0.336-0.75-0.75v-3.136c0.001-0.744-0.217-1.465-0.63-2.084l-1.143-1.714
		c-0.106-0.176-0.248-0.284-0.419-0.327c-0.053-0.013-0.106-0.02-0.16-0.02c-0.116,0-0.231,0.032-0.333,0.093l-0.033,0.021
		c-0.258,0.173-0.354,0.52-0.221,0.808l1.331,2.223c0.103,0.172,0.133,0.373,0.084,0.568s-0.17,0.358-0.342,0.461
		c-0.117,0.07-0.25,0.107-0.385,0.107c-0.262,0-0.509-0.14-0.644-0.365l-1.348-2.25c-0.008-0.013-0.018-0.031-0.027-0.049
		c-0.157-0.312-0.236-0.663-0.227-1.017C3,16.546,2.998,16.524,2.998,16.501v-3.75c0-0.414-0.336-0.75-0.75-0.75
		s-0.75,0.336-0.75,0.75v5.172c0,0.848,0.292,1.68,0.822,2.342l2.013,2.517c0.125,0.156,0.182,0.352,0.16,0.551
		c-0.022,0.199-0.12,0.378-0.277,0.503c-0.133,0.106-0.299,0.164-0.468,0.164c-0.229,0-0.443-0.103-0.586-0.282l-2.013-2.517
		c-0.742-0.927-1.151-2.092-1.151-3.279v-5.172c0-1.241,1.009-2.25,2.25-2.25s2.25,1.009,2.25,2.25v1.821
		c0.209-0.067,0.427-0.101,0.647-0.101c0.176,0,0.352,0.022,0.525,0.065c0.557,0.14,1.027,0.488,1.322,0.98l1.124,1.683
		c0.578,0.867,0.883,1.876,0.882,2.917v3.135C8.998,23.664,8.662,24.001,8.248,24.001z"/>
	<path d="M20.248,24.001c-0.169,0-0.336-0.058-0.468-0.164c-0.323-0.259-0.375-0.731-0.117-1.054l2.014-2.517
		c0.53-0.662,0.822-1.494,0.822-2.342v-5.172c0-0.414-0.336-0.75-0.75-0.75s-0.75,0.336-0.75,0.75v3.75
		c0,0.01-0.001,0.025-0.002,0.039c0.014,0.364-0.064,0.725-0.226,1.048c-0.006,0.012-0.014,0.028-0.023,0.043l-1.355,2.256
		c-0.135,0.225-0.382,0.364-0.644,0.364c-0.136,0-0.269-0.037-0.385-0.107c-0.172-0.103-0.293-0.267-0.342-0.461
		c-0.049-0.195-0.018-0.396,0.085-0.568l1.335-2.221c0.133-0.289,0.036-0.636-0.23-0.813l-0.035-0.021
		c-0.094-0.056-0.209-0.088-0.325-0.088c-0.053,0-0.107,0.007-0.159,0.02c-0.169,0.042-0.311,0.147-0.4,0.296l-1.162,1.744
		c-0.413,0.619-0.632,1.34-0.631,2.083v3.136c0,0.414-0.336,0.75-0.75,0.75s-0.75-0.336-0.75-0.75v-3.136
		c0-1.041,0.305-2.05,0.883-2.916l1.143-1.714c0.371-0.62,1.073-1.014,1.824-1.014c0.221,0,0.44,0.034,0.65,0.101v-1.82
		c0-1.241,1.009-2.25,2.25-2.25s2.25,1.009,2.25,2.25v5.172c0,1.188-0.409,2.352-1.151,3.28l-2.014,2.517
		C20.691,23.898,20.477,24.001,20.248,24.001z"/>
</g>
</svg>
