<?xml version="1.0" encoding="utf-8"?>
<!-- Generator: Adobe Illustrator 22.1.0, SVG Export Plug-In . SVG Version: 6.00 Build 0)  -->
<svg version="1.1" id="Layer_1" xmlns="http://www.w3.org/2000/svg" xmlns:xlink="http://www.w3.org/1999/xlink" x="0px" y="0px"
	 viewBox="0 0 24 24" style="enable-background:new 0 0 24 24;" xml:space="preserve">
<title>module-phone-puzzle</title>
<g>
	<path d="M14.503,13.521c-0.436,0-0.844-0.171-1.148-0.482L8.461,8.145C7.832,7.529,7.822,6.51,8.442,5.877l1.236-1.236
		C9.9,4.42,10.194,4.299,10.506,4.299c0.043,0,0.087,0.002,0.13,0.007c0.35,0.039,0.662,0.229,0.858,0.522
		c0.037,0.056,0.08,0.109,0.128,0.156c0.05,0.055,0.078,0.083,0.108,0.11c0.175,0.155,0.399,0.24,0.631,0.24
		c0.272,0,0.531-0.116,0.711-0.318c0.168-0.189,0.252-0.433,0.238-0.687c-0.015-0.254-0.127-0.486-0.317-0.654
		c-0.076-0.074-0.129-0.118-0.188-0.157c-0.292-0.197-0.481-0.508-0.522-0.854c-0.041-0.358,0.081-0.708,0.334-0.962l1.231-1.231
		c0.305-0.301,0.707-0.466,1.133-0.466c0.434,0,0.84,0.17,1.144,0.477l0.69,0.692c0.022-0.024,0.045-0.048,0.068-0.071
		c0.474-0.45,1.085-0.694,1.726-0.694c0.638,0,1.244,0.242,1.707,0.682c0.48,0.456,0.754,1.073,0.772,1.736
		c0.017,0.664-0.224,1.294-0.68,1.774c-0.028,0.028-0.055,0.054-0.083,0.08l0.698,0.695c0.628,0.618,0.637,1.636,0.019,2.269
		L19.71,8.976c-0.222,0.221-0.515,0.343-0.826,0.343l0,0c-0.085,0-0.171-0.009-0.255-0.028c-0.385-0.085-0.702-0.354-0.849-0.72
		c-0.051-0.128-0.126-0.241-0.223-0.338c-0.053-0.058-0.08-0.086-0.11-0.112c-0.177-0.158-0.396-0.241-0.631-0.241
		c-0.019,0-0.038,0.001-0.057,0.002C16.505,7.897,16.273,8.01,16.104,8.2c-0.168,0.19-0.253,0.434-0.238,0.687
		c0.015,0.253,0.128,0.486,0.317,0.654c0.013,0.012,0.027,0.025,0.04,0.038c0.094,0.095,0.208,0.172,0.336,0.224
		c0.362,0.146,0.63,0.462,0.715,0.845c0.087,0.391-0.029,0.795-0.312,1.081l-1.328,1.329C15.328,13.357,14.927,13.521,14.503,13.521
		z M9.508,6.932C9.472,6.969,9.474,7.038,9.516,7.078l4.905,4.906c0.031,0.031,0.062,0.037,0.084,0.037
		c0.02,0,0.049-0.005,0.074-0.03l1.008-1.009c-0.155-0.099-0.297-0.214-0.427-0.345c-0.467-0.419-0.753-1.015-0.792-1.663
		c-0.038-0.653,0.18-1.283,0.615-1.772c0.434-0.489,1.033-0.78,1.687-0.818c0.049-0.003,0.097-0.004,0.145-0.004
		c0.6,0,1.178,0.22,1.626,0.619c0.068,0.06,0.134,0.126,0.196,0.196c0.121,0.12,0.229,0.258,0.324,0.407l1.012-1.012
		c0.036-0.037,0.034-0.107-0.008-0.148l-1.396-1.39c-0.191-0.19-0.265-0.469-0.194-0.729c0.071-0.26,0.278-0.463,0.539-0.53
		c0.158-0.04,0.302-0.123,0.417-0.238c0.364-0.383,0.345-1.004-0.048-1.377c-0.184-0.174-0.424-0.27-0.677-0.27
		s-0.493,0.096-0.677,0.27c-0.103,0.103-0.186,0.25-0.226,0.406c-0.067,0.261-0.27,0.467-0.529,0.537
		c-0.065,0.018-0.131,0.026-0.198,0.026c-0.2,0-0.389-0.078-0.531-0.22L15.06,1.539c-0.03-0.03-0.063-0.035-0.08-0.035
		c-0.02,0-0.049,0.005-0.075,0.031l-0.968,0.968c0.029,0.026,0.057,0.054,0.085,0.081c0.465,0.412,0.75,1.007,0.787,1.66
		c0.036,0.653-0.182,1.281-0.615,1.768c-0.464,0.522-1.132,0.822-1.833,0.822c-0.6,0-1.178-0.219-1.626-0.618
		c-0.072-0.064-0.14-0.132-0.203-0.203c-0.016-0.016-0.033-0.034-0.051-0.053L9.508,6.932z"/>
	<path d="M6.042,24.002c-1.92,0-3.482-1.562-3.483-3.482V4.985c0.001-1.92,1.563-3.482,3.483-3.483h3.267
		c0.414,0,0.75,0.336,0.75,0.75s-0.336,0.75-0.75,0.75H6.042c-1.093,0-1.983,0.89-1.983,1.983v11.517h10.5v-0.75
		c0-0.414,0.336-0.75,0.75-0.75s0.75,0.336,0.75,0.75v4.768c0,1.92-1.562,3.482-3.482,3.482H6.042z M4.059,20.52
		c0,1.093,0.89,1.982,1.983,1.982h6.535c1.093,0,1.982-0.889,1.982-1.982v-2.518h-10.5V20.52z"/>
	<circle cx="9.309" cy="20.252" r="1.125"/>
</g>
</svg>
