<?xml version="1.0" encoding="utf-8"?>
<!-- Generator: Adobe Illustrator 22.1.0, SVG Export Plug-In . SVG Version: 6.00 Build 0)  -->
<svg version="1.1" id="Layer_1" xmlns="http://www.w3.org/2000/svg" xmlns:xlink="http://www.w3.org/1999/xlink" x="0px" y="0px"
	 viewBox="0 0 24 24" style="enable-background:new 0 0 24 24;" xml:space="preserve">
<g>
	<title>bookmarks-document</title>
	<path d="M1.5,24C0.673,24,0,23.327,0,22.5v-20C0,1.673,0.673,1,1.5,1h2.583C4.291,0.41,4.857-0.001,5.497-0.001h5
		c0.64,0,1.206,0.41,1.414,1.001H22.5C23.327,1,24,1.673,24,2.5v20c0,0.827-0.673,1.5-1.5,1.5H1.5z M1.5,2C1.224,2,1,2.224,1,2.5v20
		C1,22.776,1.224,23,1.5,23h21c0.276,0,0.5-0.224,0.5-0.5v-20C23,2.224,22.776,2,22.5,2H11.997L12,10.5
		c0,0.685-0.364,0.895-0.52,0.954c-0.078,0.029-0.161,0.044-0.245,0.044c-0.269,0-0.528-0.142-0.771-0.421L8,8.259l-2.468,2.817
		c-0.244,0.279-0.504,0.42-0.771,0.42c-0.086,0-0.169-0.015-0.247-0.045c-0.155-0.058-0.517-0.268-0.517-0.952V2H1.5z M8,7
		c0.144,0,0.281,0.062,0.376,0.171L11,10.17l-0.003-8.671c0-0.276-0.224-0.5-0.5-0.5h-5c-0.266,0-0.485,0.211-0.498,0.475
		C5,1.483,5,1.492,5,1.5c0,0.013-0.001,0.027-0.004,0.042l0.001,8.627l2.627-2.998C7.719,7.062,7.856,7,8,7z"/>
	<path d="M14.5,6.999c-0.276,0-0.5-0.224-0.5-0.5s0.224-0.5,0.5-0.5h6c0.276,0,0.5,0.224,0.5,0.5s-0.224,0.5-0.5,0.5H14.5z"/>
	<path d="M14.5,10.999c-0.276,0-0.5-0.224-0.5-0.5s0.224-0.5,0.5-0.5h6c0.276,0,0.5,0.224,0.5,0.5s-0.224,0.5-0.5,0.5H14.5z"/>
	<path d="M3.5,14.999c-0.276,0-0.5-0.224-0.5-0.5s0.224-0.5,0.5-0.5h17c0.276,0,0.5,0.224,0.5,0.5s-0.224,0.5-0.5,0.5H3.5z"/>
	<path d="M3.5,18.999c-0.276,0-0.5-0.224-0.5-0.5s0.224-0.5,0.5-0.5h16.497c0.276,0,0.5,0.224,0.5,0.5s-0.224,0.5-0.5,0.5H3.5z"/>
</g>
</svg>
