<?xml version="1.0" encoding="utf-8"?>
<!-- Generator: Adobe Illustrator 22.1.0, SVG Export Plug-In . SVG Version: 6.00 Build 0)  -->
<svg version="1.1" id="Layer_1" xmlns="http://www.w3.org/2000/svg" xmlns:xlink="http://www.w3.org/1999/xlink" x="0px" y="0px"
	 viewBox="0 0 24 24" style="enable-background:new 0 0 24 24;" xml:space="preserve">
<g>
	<title>tags-cash</title>
	<path d="M6.786,19.081c-0.398,0-0.772-0.155-1.054-0.437l-4.836-4.836c-0.584-0.585-0.585-1.536,0-2.121L11.725,0.859
		c0.57-0.512,1.289-0.812,2.033-0.854l4.285-0.008c0.828,0,1.501,0.673,1.501,1.5v4c-0.041,0.765-0.333,1.486-0.824,2.044
		L16.9,9.399c-0.094,0.097-0.221,0.15-0.357,0.15c-0.131,0-0.256-0.051-0.35-0.142c-0.197-0.193-0.2-0.51-0.007-0.708l1.8-1.837
		c0.328-0.375,0.53-0.872,0.557-1.391l0-3.973c0-0.276-0.224-0.5-0.5-0.5l-4.257,0.007c-0.496,0.028-0.989,0.234-1.374,0.58
		L1.604,12.395c-0.195,0.195-0.195,0.512,0,0.707l4.836,4.836c0.087,0.087,0.213,0.137,0.346,0.137c0.134,0,0.26-0.05,0.347-0.137
		l1.053-1.075c0.095-0.097,0.222-0.15,0.358-0.15c0.132,0,0.256,0.051,0.35,0.143c0.095,0.094,0.149,0.219,0.15,0.352
		c0.001,0.134-0.049,0.26-0.143,0.355l-1.05,1.072C7.562,18.923,7.184,19.081,6.786,19.081z"/>
	<path d="M15.543,5.998c-1.103,0-2-0.897-2-2s0.897-2,2-2s2,0.897,2,2S16.646,5.998,15.543,5.998z M15.543,2.998
		c-0.552,0-1,0.449-1,1s0.448,1,1,1s1-0.449,1-1S16.095,2.998,15.543,2.998z"/>
	<path d="M17.043,21.998c-0.276,0-0.5-0.224-0.5-0.5V21h-1c-0.276,0-0.5-0.224-0.5-0.5s0.224-0.5,0.5-0.5h1.47
		c0.01-0.001,0.021-0.002,0.03-0.002c0.011,0,0.023,0.001,0.035,0.003L17.573,20c0.35,0,0.657-0.208,0.786-0.53
		c0.171-0.431-0.04-0.921-0.471-1.092l-2.063-0.825c-0.704-0.282-1.159-0.954-1.158-1.712c0.001-1.015,0.828-1.84,1.842-1.84h0.034
		v-0.502c0-0.276,0.224-0.5,0.5-0.5s0.5,0.224,0.5,0.5V14h1c0.276,0,0.5,0.224,0.5,0.5s-0.224,0.5-0.5,0.5H16.51
		c-0.465,0-0.843,0.377-0.844,0.841c0,0.347,0.208,0.654,0.529,0.783l2.063,0.825c0.942,0.375,1.404,1.447,1.03,2.391
		C19.008,20.544,18.336,21,17.578,21h-0.034v0.498C17.543,21.774,17.319,21.998,17.043,21.998z"/>
	<path d="M17.043,23.998c-3.584,0-6.5-2.916-6.5-6.5s2.916-6.5,6.5-6.5s6.5,2.916,6.5,6.5S20.628,23.998,17.043,23.998z
		 M17.043,11.998c-3.033,0-5.5,2.467-5.5,5.5s2.467,5.5,5.5,5.5s5.5-2.467,5.5-5.5S20.076,11.998,17.043,11.998z"/>
</g>
</svg>
