<?xml version="1.0" encoding="utf-8"?>
<!-- Generator: Adobe Illustrator 22.1.0, SVG Export Plug-In . SVG Version: 6.00 Build 0)  -->
<svg version="1.1" id="Layer_1" xmlns="http://www.w3.org/2000/svg" xmlns:xlink="http://www.w3.org/1999/xlink" x="0px" y="0px"
	 viewBox="0 0 24 24" style="enable-background:new 0 0 24 24;" xml:space="preserve">
<g>
	<title>tags-1</title>
	<path d="M15,23.766c-0.041,0-0.082-0.002-0.123-0.007c-0.281-0.033-0.539-0.18-0.71-0.403L1.101,10.291
		c-0.512-0.57-0.812-1.289-0.854-2.033L0.241,1.737c0-0.828,0.673-1.5,1.5-1.5h6.491c0.766,0.041,1.486,0.337,2.041,0.835
		L23.36,14.165c0.446,0.345,0.542,0.971,0.218,1.435c-0.16,0.229-0.408,0.386-0.683,0.433l-5.255,1.604l-1.604,5.253
		C15.951,23.391,15.509,23.766,15,23.766z M1.741,1.237c-0.276,0-0.5,0.224-0.5,0.5L1.247,8.23c0.028,0.495,0.234,0.988,0.58,1.374
		L14.9,22.675c0.021,0.021,0.041,0.044,0.058,0.07c0.008,0.011,0.021,0.019,0.035,0.02c0,0,0.001,0,0.001,0
		c0.032,0,0.053-0.019,0.056-0.044c0.003-0.03,0.01-0.059,0.019-0.088l1.693-5.542c0.048-0.159,0.173-0.284,0.332-0.332l5.544-1.692
		c0.027-0.009,0.056-0.015,0.086-0.018c0.013-0.002,0.027-0.01,0.035-0.021c0.017-0.024,0.011-0.056-0.013-0.073
		c-0.023-0.016-0.046-0.035-0.066-0.056L9.585,1.797C9.217,1.468,8.726,1.266,8.211,1.237L1.741,1.237z"/>
	<path d="M5.74,8.237c-1.379,0-2.5-1.121-2.5-2.5s1.121-2.5,2.5-2.5s2.5,1.121,2.5,2.5S7.118,8.237,5.74,8.237z M5.74,4.237
		c-0.827,0-1.5,0.673-1.5,1.5s0.673,1.5,1.5,1.5s1.5-0.673,1.5-1.5S6.567,4.237,5.74,4.237z"/>
</g>
</svg>
