<?xml version="1.0" encoding="utf-8"?>
<!-- Generator: Adobe Illustrator 22.1.0, SVG Export Plug-In . SVG Version: 6.00 Build 0)  -->
<svg version="1.1" id="Layer_1" xmlns="http://www.w3.org/2000/svg" xmlns:xlink="http://www.w3.org/1999/xlink" x="0px" y="0px"
	 viewBox="0 0 24 24" style="enable-background:new 0 0 24 24;" xml:space="preserve">
<g>
	<title>tags-alert</title>
	<path d="M6.782,19.079c-0.397,0-0.77-0.154-1.05-0.435l-4.836-4.836c-0.585-0.585-0.585-1.536,0-2.121L11.724,0.859
		c0.57-0.512,1.289-0.812,2.033-0.854l4.285-0.008c0.828,0,1.501,0.673,1.501,1.5v4c-0.04,0.765-0.333,1.486-0.824,2.044
		C18.714,7.546,7.849,18.634,7.849,18.634C7.561,18.922,7.183,19.079,6.782,19.079z M13.785,1.005
		c-0.496,0.028-0.989,0.234-1.374,0.58L1.603,12.394c-0.195,0.195-0.195,0.512,0,0.707l4.836,4.836
		c0.092,0.092,0.215,0.143,0.346,0.143s0.254-0.051,0.347-0.143L17.98,6.867c0.332-0.38,0.535-0.879,0.562-1.396l0-3.973
		c0-0.276-0.224-0.5-0.5-0.5L13.785,1.005z"/>
	<path d="M15.542,5.998c-1.103,0-2-0.897-2-2s0.897-2,2-2s2,0.897,2,2S16.645,5.998,15.542,5.998z M15.542,2.998
		c-0.552,0-1,0.449-1,1s0.448,1,1,1s1-0.449,1-1S16.094,2.998,15.542,2.998z"/>
	<circle cx="17.042" cy="20.75" r="0.75"/>
	<path d="M17.042,18.998c-0.276,0-0.5-0.224-0.5-0.5v-3c0-0.276,0.224-0.5,0.5-0.5s0.5,0.224,0.5,0.5v3
		C17.542,18.773,17.318,18.998,17.042,18.998z"/>
	<path d="M11.986,23.997c-0.499,0-0.971-0.263-1.232-0.686c-0.263-0.427-0.281-0.967-0.048-1.41l5.056-9.634
		c0.137-0.257,0.344-0.463,0.597-0.599c0.209-0.112,0.445-0.171,0.681-0.171c0.535,0,1.024,0.291,1.278,0.76
		c0.002,0.005,5.063,9.645,5.063,9.645c0.233,0.442,0.215,0.982-0.048,1.408c-0.263,0.423-0.734,0.686-1.231,0.686H11.986z
		 M17.041,12.497c-0.074,0-0.145,0.018-0.211,0.053c-0.079,0.042-0.143,0.106-0.185,0.185l-5.054,9.631
		c-0.069,0.132-0.064,0.292,0.014,0.419c0.081,0.13,0.226,0.211,0.379,0.211H22.1c0.155,0,0.301-0.081,0.382-0.212
		c0.077-0.125,0.083-0.286,0.013-0.417l-5.058-9.635C17.36,12.588,17.208,12.497,17.041,12.497z"/>
</g>
</svg>
