<svg id="Bold" xmlns="http://www.w3.org/2000/svg" viewBox="0 0 24 24"><title>single-neutral-actions-graduate</title><path d="M10.462,15.663l2.876-1.234a.5.5,0,0,0,.21-.75A7.517,7.517,0,0,0,7.456,10.5,7.544,7.544,0,0,0,.271,15.858.5.5,0,0,0,.75,16.5H9.264a.5.5,0,0,0,.4-.2A1.94,1.94,0,0,1,10.462,15.663Z"/><circle cx="7.25" cy="4.75" r="4.75"/><path d="M23.416,18.046a.5.5,0,0,0,.019-.935l-6-2.383a.5.5,0,0,0-.37,0l-6,2.383a.5.5,0,0,0-.315.473v3.381a.75.75,0,1,0,1.5,0V18.812a.251.251,0,0,1,.333-.236l4.5,1.589a.532.532,0,0,0,.167.028.521.521,0,0,0,.166-.028Z"/><path d="M20.845,22.917a.5.5,0,0,0,.334-.471V20.3a.5.5,0,0,0-.667-.471l-3.179,1.123a.249.249,0,0,1-.166,0l-3.179-1.123a.5.5,0,0,0-.667.471v2.146a.5.5,0,0,0,.334.471l2.572.908a3.075,3.075,0,0,0,2.045,0Z"/></svg>