<svg id="Bold" xmlns="http://www.w3.org/2000/svg" viewBox="0 0 24 24"><title>single-neutral-actions-music</title><path d="M12.456,13.83a3.318,3.318,0,0,1,.1-.776.5.5,0,0,0-.142-.48A7.483,7.483,0,0,0,.065,15.857a.5.5,0,0,0,.479.643H11.956a.5.5,0,0,0,.5-.5Z"/><circle cx="7.044" cy="4.75" r="4.75"/><path d="M21.456,22a2.5,2.5,0,0,0,2.5-2.5V12.705a2,2,0,0,0-2.368-1.967l-6,1.125a2,2,0,0,0-1.631,1.967v4.931a.251.251,0,0,1-.081.185.248.248,0,0,1-.191.064c-.075-.006-.151-.01-.228-.01a2.5,2.5,0,1,0,2.5,2.5V14.244a.5.5,0,0,1,.408-.491l5-.937a.5.5,0,0,1,.592.491v3.454a.251.251,0,0,1-.081.185.248.248,0,0,1-.191.064c-.075-.006-.151-.01-.228-.01a2.5,2.5,0,0,0,0,5Z"/></svg>