<svg id="Bold" xmlns="http://www.w3.org/2000/svg" viewBox="0 0 24 24"><title>single-neutral-actions-laptop</title><path d="M10.5,14a2.967,2.967,0,0,1,.575-1.756.5.5,0,0,0,.086-.4.505.505,0,0,0-.239-.33A7.4,7.4,0,0,0,7.207,10.5,7.543,7.543,0,0,0,.022,15.857.5.5,0,0,0,.5,16.5H10a.5.5,0,0,0,.5-.5Z"/><circle cx="7.001" cy="4.75" r="4.75"/><path d="M23.894,22.635a.243.243,0,0,0-.018-.032l-1.785-2.868A.53.53,0,0,0,22,19.649V14a1.5,1.5,0,0,0-1.5-1.5h-7A1.5,1.5,0,0,0,12,14v5.648a.536.536,0,0,0-.091.087l-1.8,2.9a.92.92,0,0,0,.043.929.957.957,0,0,0,.809.436H23.042a.957.957,0,0,0,.809-.436A.92.92,0,0,0,23.894,22.635ZM14,14.75a.25.25,0,0,1,.25-.25h5.5a.25.25,0,0,1,.25.25v4a.249.249,0,0,1-.25.25h-5.5a.25.25,0,0,1-.25-.25Zm1.516,7.631a.242.242,0,0,1,0-.239l.273-.476a.232.232,0,0,1,.2-.118h1.855a.231.231,0,0,1,.2.118l.273.476a.242.242,0,0,1,0,.239.232.232,0,0,1-.2.119h-2.4A.232.232,0,0,1,15.516,22.381Z"/></svg>