<svg id="Bold" xmlns="http://www.w3.org/2000/svg" viewBox="0 0 24 24"><title>single-neutral-actions-cart</title><path d="M11.06,15.126a2.008,2.008,0,0,1,.273-1.8,1.92,1.92,0,0,1,.45-.445.5.5,0,0,0,.015-.8A7.452,7.452,0,0,0,7.25,10.5,7.543,7.543,0,0,0,.065,15.857a.5.5,0,0,0,.479.643H10.826a.5.5,0,0,0,.474-.659Z"/><circle cx="7.044" cy="4.75" r="4.75"/><path d="M15.725,23.989A1.423,1.423,0,1,0,14.3,22.566,1.424,1.424,0,0,0,15.725,23.989Z"/><path d="M20.851,22.577A1.423,1.423,0,1,0,19.428,24,1.424,1.424,0,0,0,20.851,22.577Z"/><path d="M23.443,10.789a.746.746,0,0,0-.948.474l-.8,2.384a.5.5,0,0,1-.475.342H12.956a.5.5,0,0,0-.474.659l1.846,5.5a.5.5,0,0,0,.474.341h6.067a.5.5,0,0,0,.481-.365l2.568-8.387A.75.75,0,0,0,23.443,10.789Z"/></svg>