<svg id="Bold" xmlns="http://www.w3.org/2000/svg" viewBox="0 0 24 24"><title>single-neutral-actions-share-2</title><path d="M12.785,14.112a.5.5,0,0,0,.28-.8A7.507,7.507,0,0,0,7.25,10.5,7.543,7.543,0,0,0,.065,15.857a.5.5,0,0,0,.479.643h8.99a.5.5,0,0,0,.44-.262A4.251,4.251,0,0,1,12.785,14.112Z"/><circle cx="7.044" cy="4.75" r="4.75"/><path d="M10.956,18.25a2.742,2.742,0,0,0,4.638,1.989.251.251,0,0,1,.265-.051l2.449.98a.25.25,0,0,1,.157.224,2.443,2.443,0,0,0,.183.867,2.761,2.761,0,1,0,.671-3,.253.253,0,0,1-.266.051l-2.444-.978a.249.249,0,0,1-.157-.219c0-.041-.008-.1-.019-.178a.217.217,0,0,1,.1-.219L19.393,16a.251.251,0,0,1,.271.009,2.708,2.708,0,0,0,1.542.487,2.75,2.75,0,1,0-2.75-2.75,2.214,2.214,0,0,0,.022.295.249.249,0,0,1-.12.247L15.52,16a.251.251,0,0,1-.271-.009,2.709,2.709,0,0,0-1.543-.487A2.753,2.753,0,0,0,10.956,18.25Z"/></svg>