<svg id="Bold" xmlns="http://www.w3.org/2000/svg" viewBox="0 0 24 24"><title>single-neutral-actions-mobilephone</title><path d="M13.5,14.112a.507.507,0,0,0-.085-.28A7.533,7.533,0,0,0,7.206,10.5,7.542,7.542,0,0,0,.021,15.852a.5.5,0,0,0,.479.642H13a.5.5,0,0,0,.5-.5Z"/><circle cx="7" cy="4.748" r="4.749"/><path d="M22.526,11.005H16.474A1.493,1.493,0,0,0,15,12.513v9.979h0A1.493,1.493,0,0,0,16.474,24h6.052A1.493,1.493,0,0,0,24,22.492h0V12.513A1.493,1.493,0,0,0,22.526,11.005ZM17,21.5v-8a.5.5,0,0,1,.5-.5h4a.5.5,0,0,1,.5.5v8a.5.5,0,0,1-.5.5h-4A.5.5,0,0,1,17,21.5Z"/></svg>