<svg id="Bold" xmlns="http://www.w3.org/2000/svg" viewBox="0 0 24 24"><title>single-neutral-actions-upload</title><path d="M11.335,12.419a.5.5,0,0,0-.117-.741,7.475,7.475,0,0,0-11.2,4.179A.5.5,0,0,0,.5,16.5H9.166a.47.47,0,0,0,.462-.387A7.958,7.958,0,0,1,11.335,12.419Z"/><circle cx="7" cy="4.75" r="4.75"/><path d="M17.5,11A6.5,6.5,0,1,0,24,17.5,6.508,6.508,0,0,0,17.5,11Zm-1,9.5V18.25a.5.5,0,0,0-.5-.5h-.9a.5.5,0,0,1-.391-.812l2.4-3a.517.517,0,0,1,.782,0l2.4,3a.5.5,0,0,1-.391.812H19a.5.5,0,0,0-.5.5V20.5a1,1,0,0,1-2,0Z"/></svg>