<svg id="Bold" xmlns="http://www.w3.org/2000/svg" viewBox="0 0 24 24"><title>single-neutral-actions-view</title><path d="M10.98,12.213a.5.5,0,0,0-.149-.744A7.378,7.378,0,0,0,7.206,10.5,7.543,7.543,0,0,0,.021,15.857.5.5,0,0,0,.5,16.5H9.017a.5.5,0,0,0,.5-.466A6.951,6.951,0,0,1,10.98,12.213Z"/><circle cx="7" cy="4.75" r="4.75"/><path d="M21.173,19.759a.25.25,0,0,1-.034-.311,5.509,5.509,0,1,0-1.691,1.691.25.25,0,0,1,.311.034l2.534,2.534a1,1,0,0,0,1.414-1.414ZM16.5,13A3.5,3.5,0,1,1,13,16.5,3.5,3.5,0,0,1,16.5,13Z"/></svg>