<svg id="Bold" xmlns="http://www.w3.org/2000/svg" viewBox="0 0 24 24"><title>single-neutral-actions-refresh</title><path d="M11.335,12.419a.5.5,0,0,0-.117-.741,7.475,7.475,0,0,0-11.2,4.179A.5.5,0,0,0,.5,16.5H9.14a.5.5,0,0,0,.492-.411A7.96,7.96,0,0,1,11.335,12.419Z"/><circle cx="7" cy="4.75" r="4.75"/><path d="M23.391,19.871a1,1,0,1,0-1.892-.648,4.091,4.091,0,0,1-6.918,1.419.25.25,0,0,1,.008-.345l1.722-1.721a.5.5,0,0,0-.354-.853H11.5a.5.5,0,0,0-.5.5V22.68a.5.5,0,0,0,.854.353l.969-.969a.249.249,0,0,1,.359,0,6.085,6.085,0,0,0,10.209-2.2Z"/><path d="M24,12.234a.5.5,0,0,0-.854-.353l-1.025,1.025a.249.249,0,0,1-.358,0,6.1,6.1,0,0,0-10.2,2.227,1,1,0,0,0,1.893.648,4.092,4.092,0,0,1,6.9-1.445.251.251,0,0,1-.007.347l-1.66,1.659a.5.5,0,0,0,.354.853H23.5a.5.5,0,0,0,.5-.5Z"/></svg>