<svg xmlns="http://www.w3.org/2000/svg" viewBox="0 0 24 24"><title>phone-action-data-transfer-1</title><path d="M12,12.75V18.5a1,1,0,0,1-1,1H4a1,1,0,0,1-1-1V7.5a1,1,0,0,1,1-1H9.25a.25.25,0,0,0,.25-.25v-2A.25.25,0,0,0,9.25,4H3.5A2.5,2.5,0,0,0,1,6.5v15A2.5,2.5,0,0,0,3.5,24h8A2.5,2.5,0,0,0,14,21.5V12.75a.25.25,0,0,0-.25-.25h-1.5A.25.25,0,0,0,12,12.75Z"/><path d="M13.907,10.791l2.5-3.5A.5.5,0,0,0,16,6.5H14.75V1.25a1.25,1.25,0,0,0-2.5,0V6.5H11a.5.5,0,0,0-.407.791l2.5,3.5a.5.5,0,0,0,.814,0Z"/><path d="M22.907,3.709l-2.5-3.5a.519.519,0,0,0-.814,0l-2.5,3.5A.5.5,0,0,0,17.5,4.5h1.25V9.75a1.25,1.25,0,0,0,2.5,0V4.5H22.5a.5.5,0,0,0,.407-.791Z"/></svg>