<svg xmlns="http://www.w3.org/2000/svg" viewBox="0 0 24 24"><title>phone-action-star-1</title><path d="M12,14.712V18.5a1,1,0,0,1-1,1H4a1,1,0,0,1-1-1V7.5a1,1,0,0,1,1-1H8.448a.247.247,0,0,0,.24-.322A2.764,2.764,0,0,1,8.656,4.34.251.251,0,0,0,8.426,4H3.5A2.5,2.5,0,0,0,1,6.5v15A2.5,2.5,0,0,0,3.5,24h8A2.5,2.5,0,0,0,14,21.5V14.528a.245.245,0,0,0-.334-.232,2.859,2.859,0,0,1-1.38.175A.25.25,0,0,0,12,14.712Z"/><path d="M21.74,4H19.075L17.666.732,17.653.705a1.293,1.293,0,0,0-2.317.027L13.925,4H11.259a1.229,1.229,0,0,0-1.166.76,1.271,1.271,0,0,0,.319,1.4L12.741,8.23l-1.295,2.981a1.255,1.255,0,0,0,.315,1.451,1.287,1.287,0,0,0,.864.338,1.3,1.3,0,0,0,.642-.172L16.5,11.007l3.236,1.821a1.275,1.275,0,0,0,1.505-.166,1.256,1.256,0,0,0,.316-1.45l-1.3-2.982L22.61,6.139a1.262,1.262,0,0,0,.3-1.378A1.232,1.232,0,0,0,21.74,4Z"/></svg>