<svg xmlns="http://www.w3.org/2000/svg" viewBox="0 0 24 24"><title>phone-action-disable-1</title><path d="M11.751,14.642V18.5a1,1,0,0,1-1,1h-7a1,1,0,0,1-1-1V7.5a1,1,0,0,1,1-1h3.8A.245.245,0,0,0,7.8,6.272a8.554,8.554,0,0,1,.4-1.946A.245.245,0,0,0,7.968,4H3.251a2.5,2.5,0,0,0-2.5,2.5v15a2.5,2.5,0,0,0,2.5,2.5h8a2.5,2.5,0,0,0,2.5-2.5V15.291a.242.242,0,0,0-.17-.231,8.33,8.33,0,0,1-1.462-.63A.245.245,0,0,0,11.751,14.642Z"/><path d="M23.075,5.408A6.913,6.913,0,0,0,17.84.175a7.015,7.015,0,0,0-8.414,8.41A7.008,7.008,0,0,0,21.2,11.949a7.038,7.038,0,0,0,1.875-6.541ZM15.092,11.87a4.82,4.82,0,0,1-1.6-.7L20.424,4.24a4.772,4.772,0,0,1,.7,1.6h0a5.05,5.05,0,0,1-1.336,4.694A4.983,4.983,0,0,1,15.092,11.87ZM19.01,2.826,12.078,9.758A5,5,0,0,1,19.01,2.826Z"/></svg>