<svg xmlns="http://www.w3.org/2000/svg" viewBox="0 0 24 24"><title>phone-action-ring-1</title><path d="M12,11.75V18.5a1,1,0,0,1-1,1H4a1,1,0,0,1-1-1V7.5a1,1,0,0,1,1-1h6.735a.245.245,0,0,0,.25-.239c.01-.476.02-1.524.029-2.011a.246.246,0,0,0-.25-.25H3.5A2.5,2.5,0,0,0,1,6.5v15A2.5,2.5,0,0,0,3.5,24h8A2.5,2.5,0,0,0,14,21.5V11.75a.25.25,0,0,0-.25-.25h-1.5A.25.25,0,0,0,12,11.75Z"/><path d="M22.658,8.883A4.085,4.085,0,0,1,21.5,6.167V4.5a4.5,4.5,0,0,0-9,0V6.167a4.08,4.08,0,0,1-1.158,2.715L11.1,9.2a.5.5,0,0,0,.4.8h11a.5.5,0,0,0,.4-.8Z"/><path d="M18.286,11H15.714a.5.5,0,0,0-.4.193.508.508,0,0,0-.1.307.528.528,0,0,0,.015.125,1.827,1.827,0,0,0,3.541,0,.482.482,0,0,0,.016-.125.514.514,0,0,0-.1-.307A.5.5,0,0,0,18.286,11Z"/></svg>