<svg xmlns="http://www.w3.org/2000/svg" viewBox="0 0 24 24"><title>phone-action-wifi</title><path d="M17,0H7A3,3,0,0,0,4,3V21a3,3,0,0,0,3,3H17a3,3,0,0,0,3-3V3A3,3,0,0,0,17,0Zm1,19a.5.5,0,0,1-.5.5H6.5A.5.5,0,0,1,6,19V3.5A.5.5,0,0,1,6.5,3h11a.5.5,0,0,1,.5.5Z"/><circle cx="12" cy="14.199" r="1"/><path d="M16.471,8.832a7.068,7.068,0,0,0-8.942,0A.75.75,0,1,0,8.471,10a5.58,5.58,0,0,1,7.058,0,.761.761,0,0,0,1.055-.112A.751.751,0,0,0,16.471,8.832Z"/><path d="M14.8,11.242a4.432,4.432,0,0,0-5.608,0,.75.75,0,1,0,.942,1.167,2.941,2.941,0,0,1,3.724,0,.765.765,0,0,0,1.055-.112A.751.751,0,0,0,14.8,11.242Z"/></svg>