<svg xmlns="http://www.w3.org/2000/svg" viewBox="0 0 24 24"><title>phone-action-edit-2</title><path d="M11.955,14.629V18.5a1,1,0,0,1-1,1h-7a1,1,0,0,1-1-1V7.5a1,1,0,0,1,1-1h6.582a.25.25,0,0,0,.177-.074L12.15,4.99a2.226,2.226,0,0,0,.456-.516c.058-.17-.179-.287-.365-.349A2.489,2.489,0,0,0,11.455,4h-8a2.5,2.5,0,0,0-2.5,2.5v15a2.5,2.5,0,0,0,2.5,2.5h8a2.5,2.5,0,0,0,2.5-2.5v-7.32a.25.25,0,0,0-.322-.24l-1.5.451A.249.249,0,0,0,11.955,14.629Z"/><path d="M11.786,9.034a.5.5,0,0,0-.834.216l-.886,3.1a.5.5,0,0,0,.127.491.53.53,0,0,0,.491.127l3.1-.885A.5.5,0,0,0,14,11.249Z"/><rect x="12.416" y="3.954" width="8.086" height="5.243" rx="0.5" ry="0.5" transform="translate(0.171 13.564) rotate(-45)"/><path d="M22.279.755A2.655,2.655,0,0,0,18.526.8a.5.5,0,0,0,0,.708l3,3a.536.536,0,0,0,.377.123.583.583,0,0,0,.377-.169A2.625,2.625,0,0,0,22.279.755Z"/></svg>