<svg xmlns="http://www.w3.org/2000/svg" viewBox="0 0 24 24"><title>phone-action-add-user-1</title><path d="M11,13.75V18.5a1,1,0,0,1-1,1H3a1,1,0,0,1-1-1V7.5a1,1,0,0,1,1-1H8.681a.24.24,0,0,0,.187-.091A6.369,6.369,0,0,1,9.934,5.361a.24.24,0,0,0,.066-.3,4.478,4.478,0,0,1-.342-.875A.244.244,0,0,0,9.423,4H2.5A2.5,2.5,0,0,0,0,6.5v15A2.5,2.5,0,0,0,2.5,24h8A2.5,2.5,0,0,0,13,21.5V13.75a.25.25,0,0,0-.25-.25h-1.5A.25.25,0,0,0,11,13.75Z"/><path d="M15.056,10.523A2.053,2.053,0,0,1,17.08,9h.435a.461.461,0,0,0,.5-.509c0-.47.019-.838.019-.838A4.941,4.941,0,0,0,15.315,5.7,3.012,3.012,0,0,0,16.859,2.07,2.93,2.93,0,0,0,14.954.148a3,3,0,0,0-2.325,5.519A4.812,4.812,0,0,0,9,10.277V11.5a.5.5,0,0,0,.5.5h5.383a.245.245,0,0,0,.234-.325A2.022,2.022,0,0,1,15.056,10.523Z"/><path d="M23,10H21.25A.25.25,0,0,1,21,9.75V8a1,1,0,0,0-2,0V9.75a.25.25,0,0,1-.25.25H17a1,1,0,0,0,0,2h1.75a.25.25,0,0,1,.25.25V14a1,1,0,0,0,2,0V12.25a.25.25,0,0,1,.25-.25H23a1,1,0,0,0,0-2Z"/></svg>