<svg xmlns="http://www.w3.org/2000/svg" viewBox="0 0 24 24"><defs><style>.a{fill:none;stroke:currentColor;stroke-linecap:round;stroke-linejoin:round;stroke-width:1.5px;}</style></defs><title>sim-card</title><path class="a" d="M21.25,6.555a1.5,1.5,0,0,0-.361-.976l-4.44-4.3A1.5,1.5,0,0,0,15.31.75H4.75a1.5,1.5,0,0,0-1.5,1.5v19.5a1.5,1.5,0,0,0,1.5,1.5h15a1.5,1.5,0,0,0,1.5-1.5Z"/><rect class="a" x="7.75" y="14.25" width="7.5" height="6" rx="1.5" ry="1.5"/><line class="a" x1="7.75" y1="17.25" x2="9.25" y2="17.25"/><line class="a" x1="15.25" y1="17.25" x2="13.75" y2="17.25"/><line class="a" x1="7.75" y1="0.75" x2="7.75" y2="5.25"/><line class="a" x1="12.25" y1="0.75" x2="12.25" y2="5.25"/></svg>