<svg xmlns="http://www.w3.org/2000/svg" viewBox="0 0 24 24"><title>composition-layout-3</title><path d="M22,0H2A2,2,0,0,0,0,2V22a2,2,0,0,0,2,2H22a2,2,0,0,0,2-2V2A2,2,0,0,0,22,0Zm0,6.733a.25.25,0,0,1-.25.25h-8.5a.25.25,0,0,1-.25-.25V2.25A.25.25,0,0,1,13.25,2H21.5a.5.5,0,0,1,.5.5Zm-9,2.5a.25.25,0,0,1,.25-.25h8.5a.25.25,0,0,1,.25.25v5.5a.25.25,0,0,1-.25.25h-8.5a.25.25,0,0,1-.25-.25ZM10.75,2a.25.25,0,0,1,.25.25v8.483a.25.25,0,0,1-.25.25H2.25a.25.25,0,0,1-.25-.25V2.5A.5.5,0,0,1,2.5,2ZM2,13.233a.25.25,0,0,1,.25-.25h8.5a.25.25,0,0,1,.25.25V21.75a.25.25,0,0,1-.25.25H2.5a.5.5,0,0,1-.5-.5ZM13.25,22a.25.25,0,0,1-.25-.25V17.233a.25.25,0,0,1,.25-.25h8.5a.25.25,0,0,1,.25.25V21.5a.5.5,0,0,1-.5.5Z"/></svg>