<svg xmlns="http://www.w3.org/2000/svg" viewBox="0 0 24 24"><title>composition-man</title><path d="M16.237,15.554c-.35-.13-.709-.261-1.074-.4A.25.25,0,0,1,15,14.923V12.8a.249.249,0,0,1,.083-.186,4.247,4.247,0,0,0,1.406-2.861A1.779,1.779,0,0,0,17,8.792a2.208,2.208,0,0,0-.415-2.038c.026-.068.059-.147.093-.233a8.291,8.291,0,0,0,.814-4.175C17.159.689,14.822.049,12.922,0c-1.64-.033-3.651.329-4.267,1.458A1.883,1.883,0,0,0,7.284,2.2c-.869,1.171-.238,3.252.1,4.369.018.062.036.118.051.167A2.194,2.194,0,0,0,7,8.792a1.779,1.779,0,0,0,.509.962,4.247,4.247,0,0,0,1.406,2.861A.249.249,0,0,1,9,12.8v2.122a.25.25,0,0,1-.163.234l-1.076.4c-3.469,1.275-5.975,2.2-6.708,3.666A10.567,10.567,0,0,0,0,23.5a.5.5,0,0,0,.5.5h23a.5.5,0,0,0,.5-.5,10.567,10.567,0,0,0-1.053-4.28C22.213,17.75,19.706,16.829,16.237,15.554Z"/><path d="M1,5A1,1,0,0,0,2,4V2.5A.5.5,0,0,1,2.5,2H4A1,1,0,0,0,4,0H2A2,2,0,0,0,0,2V4A1,1,0,0,0,1,5Z"/><path d="M2,15H4a1,1,0,0,0,0-2H2.5a.5.5,0,0,1-.5-.5V11a1,1,0,0,0-2,0v2A2,2,0,0,0,2,15Z"/><path d="M22,0H20a1,1,0,0,0,0,2h1.5a.5.5,0,0,1,.5.5V4a1,1,0,0,0,2,0V2A2,2,0,0,0,22,0Z"/><path d="M23,10a1,1,0,0,0-1,1v1.5a.5.5,0,0,1-.5.5H20a1,1,0,0,0,0,2h2a2,2,0,0,0,2-2V11A1,1,0,0,0,23,10Z"/></svg>