<svg xmlns="http://www.w3.org/2000/svg" viewBox="0 0 24 24"><title>composition-layout</title><path d="M24,2a2,2,0,0,0-2-2H2A2,2,0,0,0,0,2V22a2,2,0,0,0,2,2H22a2,2,0,0,0,2-2ZM21.5,2a.5.5,0,0,1,.5.5V6.733a.25.25,0,0,1-.25.25H2.25A.25.25,0,0,1,2,6.733V2.5A.5.5,0,0,1,2.5,2ZM2.25,14.983a.25.25,0,0,1-.25-.25v-5.5a.25.25,0,0,1,.25-.25h4.5a.25.25,0,0,1,.25.25v5.5a.25.25,0,0,1-.25.25ZM9,9.233a.25.25,0,0,1,.25-.25h5.5a.25.25,0,0,1,.25.25v5.5a.25.25,0,0,1-.25.25H9.25a.25.25,0,0,1-.25-.25Zm8,0a.25.25,0,0,1,.25-.25h4.5a.25.25,0,0,1,.25.25v5.5a.25.25,0,0,1-.25.25h-4.5a.25.25,0,0,1-.25-.25ZM2.5,22a.5.5,0,0,1-.5-.5V17.233a.25.25,0,0,1,.25-.25h19.5a.25.25,0,0,1,.25.25V21.5a.5.5,0,0,1-.5.5Z"/></svg>