<svg xmlns="http://www.w3.org/2000/svg" viewBox="0 0 24 24"><title>composition-window-human</title><path d="M17.79,17c-.389-.777-2.013-1.471-4.051-2.226-.552-.2-.461-1.642-.217-1.912a4.065,4.065,0,0,0,1.059-3.153A2.482,2.482,0,0,0,12,7,2.482,2.482,0,0,0,9.419,9.709a4.065,4.065,0,0,0,1.059,3.153c.244.27.335,1.708-.217,1.912C8.223,15.529,6.6,16.223,6.21,17c-.068.136-.127.273-.18.408a.453.453,0,0,0,.423.616H17.547a.453.453,0,0,0,.423-.616C17.917,17.273,17.858,17.136,17.79,17Z"/><path d="M21,2.5H3a3,3,0,0,0-3,3v13a3,3,0,0,0,3,3H21a3,3,0,0,0,3-3V5.5A3,3,0,0,0,21,2.5Zm1,16a1,1,0,0,1-1,1H3a1,1,0,0,1-1-1V5.5a1,1,0,0,1,1-1H21a1,1,0,0,1,1,1Z"/></svg>