<svg xmlns="http://www.w3.org/2000/svg" viewBox="0 0 24 24"><title>composition-focus</title><path d="M24,2a2,2,0,0,0-2-2H2A2,2,0,0,0,0,2V22a2,2,0,0,0,2,2H22a2,2,0,0,0,2-2Zm-2,8.75a.25.25,0,0,1-.25.25H18.634a.25.25,0,0,1-.245-.2A6.507,6.507,0,0,0,13.2,5.612a.252.252,0,0,1-.2-.246V2.25A.25.25,0,0,1,13.25,2H21.5a.5.5,0,0,1,.5.5ZM10.75,2a.25.25,0,0,1,.25.25V5.366a.25.25,0,0,1-.2.245A6.51,6.51,0,0,0,5.611,10.8a.25.25,0,0,1-.245.2H2.25A.25.25,0,0,1,2,10.75V2.5A.5.5,0,0,1,2.5,2ZM2,13.25A.25.25,0,0,1,2.25,13H5.366a.25.25,0,0,1,.245.2A6.507,6.507,0,0,0,10.8,18.388a.252.252,0,0,1,.2.246V21.75a.25.25,0,0,1-.25.25H2.5a.5.5,0,0,1-.5-.5ZM13.25,22a.25.25,0,0,1-.25-.25V18.634a.25.25,0,0,1,.2-.245A6.51,6.51,0,0,0,18.389,13.2a.25.25,0,0,1,.245-.2H21.75a.25.25,0,0,1,.25.25V21.5a.5.5,0,0,1-.5.5Z"/></svg>