<svg xmlns="http://www.w3.org/2000/svg" viewBox="0 0 24 24"><title>composition-net</title><path d="M24,2a2,2,0,0,0-2-2H2A2,2,0,0,0,0,2V22a2,2,0,0,0,2,2H22a2,2,0,0,0,2-2ZM22,15.059a.251.251,0,0,1-.353.228l-8.1-3.68a.25.25,0,0,1-.124-.331l4.15-9.129A.25.25,0,0,1,17.805,2h3.7a.5.5,0,0,1,.5.5ZM15.059,2a.251.251,0,0,1,.228.353l-3.68,8.1a.25.25,0,0,1-.331.124L2.147,6.423A.25.25,0,0,1,2,6.2V2.5A.5.5,0,0,1,2.5,2ZM2,8.941a.251.251,0,0,1,.353-.228l8.1,3.68a.25.25,0,0,1,.124.331l-4.15,9.129A.25.25,0,0,1,6.2,22H2.5a.5.5,0,0,1-.5-.5ZM8.941,22a.251.251,0,0,1-.228-.353l3.68-8.095a.25.25,0,0,1,.331-.124l9.129,4.149a.25.25,0,0,1,.147.228v3.7a.5.5,0,0,1-.5.5Z"/></svg>