<?xml version="1.0" encoding="utf-8"?>
<!-- Generator: Adobe Illustrator 22.1.0, SVG Export Plug-In . SVG Version: 6.00 Build 0)  -->
<svg version="1.1" id="Layer_1" xmlns="http://www.w3.org/2000/svg" xmlns:xlink="http://www.w3.org/1999/xlink" x="0px" y="0px"
	 viewBox="0 0 24 24" style="enable-background:new 0 0 24 24;" xml:space="preserve">
<g>
	<title>stamps-famous</title>
	<path d="M4.5,20C4.224,20,4,19.776,4,19.5v-15C4,4.224,4.224,4,4.5,4h15C19.775,4,20,4.224,20,4.5v15c0,0.276-0.224,0.5-0.5,0.5
		H4.5z M19,19V9.279l-6.128-1.442c-0.047-0.012-0.094-0.026-0.141-0.043L10.728,13H11.5c0.276,0,0.5,0.224,0.5,0.5v2
		c0,0.276,0.224,0.5,0.5,0.5h3c0.276,0,0.5,0.224,0.5,0.5V18c0,0.157-0.075,0.306-0.2,0.4L15,19H19z M13.333,19L15,17.75V17h-2.5
		c-0.827,0-1.5-0.673-1.5-1.5V14h-1c-0.165,0-0.319-0.081-0.412-0.217c-0.093-0.136-0.114-0.309-0.054-0.463l2.383-6.194
		c-0.195-0.339-0.251-0.733-0.156-1.113L12.014,5H5v14H13.333z M12.731,6.255c-0.032,0.13-0.012,0.264,0.056,0.379
		s0.178,0.195,0.307,0.228L19,8.252V5h-5.956L12.731,6.255z"/>
	<circle cx="13.5" cy="10" r="0.75"/>
	<path d="M21.183,24c-0.616,0-1.203-0.198-1.696-0.574c-0.231-0.176-0.429-0.38-0.593-0.611c-0.447,0.624-1.131,1.046-1.898,1.155
		c-0.132,0.019-0.265,0.028-0.398,0.028c-0.912,0-1.775-0.456-2.3-1.189c-0.447,0.627-1.133,1.052-1.903,1.161
		c-0.132,0.019-0.266,0.028-0.399,0.028c-0.912,0-1.774-0.456-2.298-1.189c-0.447,0.627-1.133,1.052-1.903,1.161
		c-0.132,0.019-0.267,0.028-0.4,0.028c-0.909,0-1.769-0.454-2.294-1.184c-0.447,0.631-1.137,1.055-1.913,1.16
		C3.062,23.991,2.933,24,2.806,24c-0.616,0-1.203-0.198-1.696-0.574c-0.597-0.455-0.982-1.115-1.083-1.858
		c-0.101-0.744,0.094-1.483,0.548-2.08c0.176-0.231,0.38-0.429,0.611-0.593c-0.624-0.447-1.046-1.131-1.155-1.898
		c-0.15-1.058,0.308-2.093,1.16-2.698c-0.627-0.447-1.051-1.132-1.16-1.902c-0.15-1.057,0.308-2.093,1.16-2.698
		C0.564,9.252,0.14,8.566,0.031,7.797c-0.149-1.055,0.307-2.089,1.155-2.694C0.555,4.655,0.132,3.966,0.026,3.19
		C-0.075,2.446,0.12,1.707,0.574,1.11c0.454-0.597,1.114-0.982,1.858-1.083C2.56,0.01,2.689,0.001,2.817,0.001
		c0.615,0,1.201,0.199,1.695,0.574C4.742,0.75,4.94,0.953,5.103,1.183c0.448-0.628,1.136-1.052,1.909-1.159
		c0.129-0.018,0.259-0.027,0.389-0.027c0.914,0,1.778,0.457,2.302,1.192c0.447-0.626,1.132-1.049,1.901-1.158
		c0.133-0.019,0.268-0.028,0.401-0.028c0.613,0,1.198,0.196,1.691,0.567c0.237,0.178,0.439,0.385,0.606,0.62
		c0.447-0.626,1.132-1.05,1.901-1.159c0.133-0.019,0.268-0.028,0.402-0.028c0.613,0,1.198,0.196,1.691,0.567
		c0.234,0.176,0.435,0.381,0.601,0.613c0.522-0.732,1.381-1.188,2.289-1.189c1.551,0,2.812,1.259,2.814,2.806
		c0,0.912-0.457,1.775-1.193,2.301c0.628,0.447,1.052,1.133,1.162,1.903c0.106,0.747-0.085,1.49-0.538,2.093
		c-0.178,0.236-0.385,0.439-0.62,0.606c0.626,0.447,1.05,1.132,1.159,1.901c0.106,0.747-0.085,1.49-0.538,2.093
		c-0.178,0.237-0.385,0.439-0.62,0.606c0.626,0.447,1.05,1.132,1.159,1.901c0.106,0.747-0.085,1.49-0.538,2.093
		c-0.177,0.235-0.383,0.437-0.615,0.603c0.63,0.448,1.053,1.136,1.158,1.912c0.101,0.744-0.094,1.482-0.548,2.08
		c-0.454,0.597-1.114,0.982-1.858,1.083C21.44,23.991,21.311,24,21.183,24z M2.814,1.001c-0.082,0-0.165,0.006-0.247,0.017
		C2.088,1.083,1.663,1.331,1.37,1.715C1.078,2.1,0.952,2.576,1.017,3.055c0.109,0.803,0.747,1.441,1.55,1.55
		C2.813,4.638,2.999,4.85,3,5.099C3.001,5.347,2.816,5.56,2.57,5.595C1.575,5.736,0.88,6.661,1.021,7.656
		c0.113,0.799,0.75,1.436,1.549,1.549C2.815,9.24,3,9.453,3,9.7c0,0.247-0.185,0.46-0.43,0.495c-0.995,0.141-1.69,1.066-1.549,2.061
		c0.113,0.799,0.75,1.436,1.549,1.549C2.815,13.84,3,14.053,3,14.3s-0.185,0.46-0.43,0.495c-0.481,0.068-0.908,0.32-1.201,0.71
		s-0.417,0.869-0.349,1.351c0.113,0.799,0.75,1.436,1.549,1.549c0.246,0.035,0.43,0.249,0.43,0.497s-0.187,0.46-0.432,0.494
		c-0.479,0.065-0.904,0.312-1.197,0.697s-0.418,0.861-0.353,1.34c0.065,0.479,0.313,0.904,0.698,1.197
		C2.033,22.872,2.41,23,2.805,23c0.083,0,0.166-0.006,0.249-0.017c0.803-0.109,1.441-0.746,1.55-1.55
		C4.638,21.187,4.85,21.001,5.099,21c0.249,0,0.462,0.185,0.496,0.43c0.127,0.894,0.902,1.567,1.804,1.567
		c0.085,0,0.172-0.006,0.257-0.018c0.799-0.113,1.436-0.75,1.549-1.549C9.239,21.185,9.452,21,9.7,21s0.46,0.185,0.495,0.43
		c0.127,0.894,0.902,1.567,1.804,1.567c0.085,0,0.171-0.006,0.256-0.018c0.799-0.113,1.436-0.75,1.549-1.549
		C13.84,21.185,14.053,21,14.3,21s0.46,0.185,0.495,0.429c0.126,0.894,0.902,1.568,1.804,1.568c0.085,0,0.171-0.006,0.256-0.018
		c0.799-0.113,1.436-0.75,1.549-1.549C18.439,21.185,18.652,21,18.9,21c0.25,0,0.462,0.187,0.496,0.433
		c0.065,0.479,0.313,0.904,0.698,1.197c0.318,0.242,0.695,0.37,1.091,0.37c0.083,0,0.166-0.006,0.249-0.017
		c0.479-0.065,0.905-0.313,1.197-0.698c0.293-0.385,0.418-0.861,0.353-1.34c-0.109-0.803-0.746-1.44-1.55-1.55
		C21.186,19.362,21,19.15,21,18.901c0-0.248,0.184-0.461,0.43-0.496c0.481-0.068,0.908-0.32,1.201-0.71s0.417-0.869,0.348-1.351
		c-0.113-0.799-0.75-1.436-1.549-1.549C21.184,14.76,21,14.547,21,14.3s0.185-0.46,0.429-0.495c0.482-0.068,0.909-0.32,1.202-0.709
		c0.292-0.389,0.416-0.869,0.347-1.351c-0.113-0.799-0.75-1.436-1.549-1.549C21.184,10.16,21,9.948,21,9.7
		c0-0.248,0.185-0.46,0.43-0.495c0.482-0.068,0.909-0.32,1.202-0.71c0.292-0.389,0.416-0.869,0.347-1.351
		c-0.113-0.799-0.75-1.436-1.549-1.549C21.184,5.56,21,5.348,21,5.1c0-0.248,0.185-0.461,0.431-0.495
		C22.325,4.479,22.999,3.704,23,2.8c-0.001-0.996-0.813-1.807-1.81-1.807c-0.906,0.001-1.676,0.677-1.795,1.572
		C19.363,2.812,19.151,2.999,18.902,3c-0.25,0-0.463-0.185-0.498-0.43c-0.068-0.482-0.32-0.909-0.709-1.202
		c-0.319-0.239-0.696-0.366-1.091-0.366c-0.086,0-0.174,0.006-0.26,0.018c-0.799,0.113-1.436,0.75-1.549,1.549
		C14.76,2.816,14.547,3,14.3,3s-0.46-0.185-0.495-0.43c-0.127-0.894-0.901-1.568-1.801-1.568c-0.086,0-0.173,0.006-0.259,0.019
		c-0.799,0.113-1.436,0.75-1.549,1.549C10.16,2.815,9.947,3,9.7,3C9.451,3,9.239,2.814,9.205,2.569
		C9.08,1.673,8.306,0.997,7.403,0.997c-0.084,0-0.169,0.006-0.253,0.018C6.346,1.126,5.706,1.765,5.595,2.569
		C5.561,2.815,5.348,3,5.1,3C4.851,3,4.638,2.814,4.604,2.567C4.539,2.089,4.292,1.663,3.907,1.371
		C3.589,1.129,3.211,1.001,2.814,1.001z"/>
</g>
</svg>
