<?xml version="1.0" encoding="utf-8"?>
<!-- Generator: Adobe Illustrator 22.1.0, SVG Export Plug-In . SVG Version: 6.00 Build 0)  -->
<svg version="1.1" id="Layer_1" xmlns="http://www.w3.org/2000/svg" xmlns:xlink="http://www.w3.org/1999/xlink" x="0px" y="0px"
	 viewBox="0 0 24 24" style="enable-background:new 0 0 24 24;" xml:space="preserve">
<g>
	<title>earpods-bluetooth-1</title>
	<path d="M6.5,24C6.224,24,6,23.776,6,23.5V5H5c0,0.551-0.449,1-1,1H3C1.346,6,0,4.654,0,3s1.346-3,3-3h1c0.551,0,1,0.449,1,1h2
		c1.103,0,2,0.897,2,2S8.103,5,7,5v18.5C7,23.776,6.776,24,6.5,24z M3,1C1.897,1,1,1.897,1,3s0.897,2,2,2h1V1H3z M7,4
		c0.551,0,1-0.449,1-1S7.551,2,7,2H5v2H7z"/>
	<path d="M12.5,10C12.224,10,12,9.776,12,9.5V5c-1.103,0-2-0.897-2-2s0.897-2,2-2h2c0-0.551,0.448-1,1-1h1c1.654,0,3,1.346,3,3
		s-1.346,3-3,3h-1c-0.552,0-1-0.449-1-1h-1v4.5C13,9.776,12.776,10,12.5,10z M15,5h1c1.103,0,2-0.897,2-2s-0.897-2-2-2h-1L15,5z
		 M12,2c-0.551,0-1,0.449-1,1s0.449,1,1,1h2V2H12z"/>
	<path d="M16.5,21.5c-0.082,0-0.164-0.021-0.236-0.059C16.101,21.354,16,21.185,16,21v-2.49l-1.684,1.377
		C14.227,19.96,14.115,20,14,20c-0.15,0-0.292-0.067-0.387-0.183c-0.175-0.213-0.143-0.529,0.07-0.704L16,17.218v-0.436
		l-2.316-1.895c-0.214-0.175-0.245-0.491-0.071-0.704C13.708,14.067,13.85,14,14,14c0.115,0,0.227,0.04,0.316,0.113L16,15.49V13
		c0-0.185,0.101-0.354,0.264-0.441c0.072-0.039,0.154-0.059,0.236-0.059c0.099,0,0.195,0.029,0.278,0.084l3,2
		c0.131,0.088,0.214,0.234,0.222,0.392s-0.061,0.312-0.183,0.412L17.845,17l1.971,1.613c0.122,0.1,0.191,0.254,0.183,0.412
		c-0.008,0.157-0.091,0.304-0.222,0.391l-3,2C16.695,21.471,16.599,21.5,16.5,21.5z M17,20.066l1.66-1.107l-1.604-1.313L17,17.691
		V20.066z M17.056,16.354l1.604-1.313L17,13.934v2.375L17.056,16.354z"/>
	<path d="M17,24c-3.86,0-7-3.14-7-7s3.14-7,7-7s7,3.14,7,7S20.86,24,17,24z M17,11c-3.308,0-6,2.692-6,6s2.692,6,6,6s6-2.692,6-6
		S20.308,11,17,11z"/>
</g>
</svg>
