<?xml version="1.0" encoding="utf-8"?>
<!-- Generator: Adobe Illustrator 22.1.0, SVG Export Plug-In . SVG Version: 6.00 Build 0)  -->
<svg version="1.1" id="Layer_1" xmlns="http://www.w3.org/2000/svg" xmlns:xlink="http://www.w3.org/1999/xlink" x="0px" y="0px"
	 viewBox="0 0 24 24" style="enable-background:new 0 0 24 24;" xml:space="preserve">
<g>
	<title>earpods-bluetooth-2</title>
	<path d="M8.5,23.999c-0.827,0-1.5-0.673-1.5-1.5V10.718C6.389,10.905,5.755,11,5.111,11L4.934,11c-1.715,0-3.37-0.722-4.541-1.981
		C0.139,8.738,0,8.38,0,8.006V2.992c0-0.374,0.138-0.731,0.389-1.008C1.563,0.722,3.222-0.001,4.94-0.001l0.065,0
		C5.08-0.004,5.168-0.007,5.256-0.007c3.067,0,5.59,2.407,5.743,5.481L11,22.499c0,0.827-0.673,1.5-1.5,1.5H8.5z M6,7.999
		c1.103,0,2,0.897,2,2v12.5c0,0.276,0.224,0.5,0.5,0.5h1c0.276,0,0.5-0.224,0.5-0.5v-17C9.874,2.978,7.784,0.994,5.242,0.994
		c-0.073,0-0.146,0.002-0.219,0.005H4.957c-1.452,0-2.849,0.606-3.832,1.662C1.045,2.749,1,2.868,1,2.992v5.014
		C1,8.131,1.046,8.25,1.13,8.343c0.979,1.052,2.374,1.657,3.825,1.657L5.102,10c0.622,0,1.254-0.11,1.841-0.319
		C6.808,9.282,6.432,8.999,6,8.999c-0.276,0-0.5-0.224-0.5-0.5S5.724,7.999,6,7.999z"/>
	<path d="M14.5,23.999c-0.827,0-1.5-0.673-1.5-1.5v-17c0.154-3.093,2.685-5.505,5.764-5.505c0.086,0,0.172,0.002,0.259,0.006
		l0.05-0.001c1.711,0,3.363,0.722,4.534,1.981C23.862,2.261,24,2.619,24,2.993v5.013c0,0.373-0.138,0.731-0.388,1.008
		C22.437,10.277,20.774,11,19.046,11c0,0-0.127,0.001-0.169,0.001c-0.627,0-1.269-0.097-1.876-0.283v3.282
		c0,0.276-0.224,0.5-0.5,0.5s-0.5-0.224-0.5-0.5v-4c0-1.103,0.897-2,2-2c0.276,0,0.5,0.224,0.5,0.5s-0.224,0.5-0.5,0.5
		c-0.432,0-0.808,0.282-0.942,0.682c0.585,0.209,1.21,0.319,1.821,0.319L19.051,10c1.448,0,2.841-0.606,3.824-1.662
		C22.955,8.249,23,8.131,23,8.007V2.992c0-0.125-0.046-0.244-0.13-0.336c-0.979-1.052-2.368-1.657-3.809-1.657l-0.056,0
		c-0.089-0.004-0.164-0.005-0.238-0.005c-2.547,0-4.641,1.99-4.768,4.53l0,16.975c0,0.276,0.224,0.5,0.5,0.5h1
		c0.276,0,0.5,0.224,0.5,0.5s-0.224,0.5-0.5,0.5H14.5z"/>
	<path d="M19.5,23.999c-0.084,0-0.168-0.021-0.242-0.062C19.099,23.848,19,23.681,19,23.499v-3.895l-3.255,1.831
		c-0.074,0.042-0.159,0.064-0.245,0.064c-0.18,0-0.347-0.098-0.436-0.255c-0.066-0.116-0.082-0.251-0.046-0.38
		c0.036-0.129,0.12-0.236,0.236-0.301l3.225-1.814l-3.225-1.814c-0.116-0.065-0.2-0.172-0.236-0.301
		c-0.036-0.129-0.02-0.264,0.046-0.38c0.088-0.157,0.255-0.255,0.435-0.255c0.086,0,0.171,0.022,0.246,0.065L19,17.894v-3.895
		c0-0.182,0.099-0.349,0.258-0.437c0.074-0.041,0.158-0.063,0.242-0.063c0.094,0,0.186,0.026,0.265,0.076l4,2.5
		c0.149,0.093,0.239,0.26,0.235,0.435c-0.004,0.176-0.102,0.338-0.255,0.424l-3.225,1.814l3.225,1.814
		c0.153,0.086,0.25,0.248,0.255,0.423c0.004,0.177-0.086,0.343-0.235,0.436l-4,2.5C19.686,23.973,19.594,23.999,19.5,23.999z
		 M20,22.597l2.521-1.575L20,19.604V22.597z M20,17.894l2.521-1.417L20,14.902V17.894z"/>
	<circle cx="3.25" cy="5.499" r="0.75"/>
	<circle cx="20.75" cy="5.499" r="0.75"/>
</g>
</svg>
