<svg xmlns="http://www.w3.org/2000/svg" viewBox="0 0 24 24"><title>taking-pictures-woman</title><path d="M14.5,13.5c-.089,0-.179,0-.267,0a.25.25,0,0,0-.242.23A3,3,0,0,1,11,16.5H7.688a.251.251,0,0,0-.185.081A9.465,9.465,0,0,0,5,23a.5.5,0,0,0,.5.5h18A.5.5,0,0,0,24,23,9.511,9.511,0,0,0,14.5,13.5Z"/><path d="M10.537,4.919A.251.251,0,0,0,10.721,5H11a2.987,2.987,0,0,1,1.73.551.25.25,0,0,0,.281,0,7.36,7.36,0,0,0,1.33-1.116.246.246,0,0,1,.182-.078.25.25,0,0,1,.182.078,7.277,7.277,0,0,0,3.593,2.1.248.248,0,0,1,.191.261A4,4,0,0,1,14.5,10.5c-.079,0-.157,0-.235-.007a.254.254,0,0,0-.187.068.25.25,0,0,0-.078.182v1.5a.25.25,0,0,0,.238.25c.087,0,.174.006.262.006a5.979,5.979,0,0,0,4.051-1.578.251.251,0,0,1,.406.1,6.851,6.851,0,0,0,.727,1.5,1,1,0,1,0,1.679-1.085,6.079,6.079,0,0,1-.863-3.35V6.5A6,6,0,0,0,9.154,3.778a.25.25,0,0,0-.007.212.245.245,0,0,0,.157.141A2.738,2.738,0,0,1,10.537,4.919Z"/><path d="M11,15a1.5,1.5,0,0,0,1.5-1.5V8A1.5,1.5,0,0,0,11,6.5H9.96a.249.249,0,0,1-.219-.129A1.45,1.45,0,0,0,8.382,5.5H6.118a1.45,1.45,0,0,0-1.359.871A.249.249,0,0,1,4.54,6.5H1.5A1.5,1.5,0,0,0,0,8v5.5A1.5,1.5,0,0,0,1.5,15ZM7.25,8.25A2.25,2.25,0,1,1,5,10.5,2.25,2.25,0,0,1,7.25,8.25Z"/></svg>