<svg xmlns="http://www.w3.org/2000/svg" viewBox="0 0 24 24"><defs><style>.a{fill:none;stroke:currentColor;stroke-linecap:round;stroke-linejoin:round;}</style></defs><title>cd-box-1</title><rect class="a" x="0.5" y="0.5" width="23" height="23" rx="1" ry="1"/><circle class="a" cx="12" cy="12" r="8.5"/><path class="a" d="M13.5,12A1.5,1.5,0,0,1,12,13.5h0A1.5,1.5,0,0,1,10.5,12h0A1.5,1.5,0,0,1,12,10.5h0A1.5,1.5,0,0,1,13.5,12Z"/><path class="a" d="M10,16.033A4.5,4.5,0,0,1,7.5,12"/><path class="a" d="M14,7.967A4.5,4.5,0,0,1,16.5,12"/></svg>