<svg xmlns="http://www.w3.org/2000/svg" viewBox="0 0 24 24"><defs><style>.a{fill:none;stroke:currentColor;stroke-linecap:round;stroke-linejoin:round;stroke-width:1.5px;}</style></defs><title>firewall</title><rect class="a" x="0.75" y="14.25" width="22.5" height="9"/><line class="a" x1="0.75" y1="18.75" x2="23.25" y2="18.75"/><line class="a" x1="15.75" y1="14.25" x2="15.75" y2="18.75"/><line class="a" x1="8.25" y1="14.25" x2="8.25" y2="18.75"/><line class="a" x1="5.25" y1="18.75" x2="5.25" y2="23.25"/><line class="a" x1="12.75" y1="18.75" x2="12.75" y2="23.25"/><line class="a" x1="20.25" y1="18.75" x2="20.25" y2="23.25"/><path class="a" d="M11.4,14.25c-2.7,0-5.4-2.015-5.4-4.5,0-2.7,1.35-4.5,3.6-4.5-.3,1.5-.45,2.7,1.35,2.7,2.7,0,1.967-3.925-.9-7.2C13.778.75,17.7,4.5,17.7,7.5,17.7,11.228,16.8,14.25,11.4,14.25Z"/></svg>