<svg xmlns="http://www.w3.org/2000/svg" viewBox="0 0 24 24"><defs><style>.a{fill:none;stroke:currentColor;stroke-linecap:round;stroke-linejoin:round;stroke-width:1.5px;}</style></defs><title>shield-home</title><path class="a" d="M2.25,3.923v7.614A11.907,11.907,0,0,0,9.882,22.65l1.041.4a3,3,0,0,0,2.154,0l1.041-.4A11.907,11.907,0,0,0,21.75,11.537V3.923a1.487,1.487,0,0,0-.868-1.362A21.7,21.7,0,0,0,12,.75,21.7,21.7,0,0,0,3.118,2.561,1.487,1.487,0,0,0,2.25,3.923Z"/><path class="a" d="M7.5,8.448v5.8A1.5,1.5,0,0,0,9,15.75h6a1.5,1.5,0,0,0,1.5-1.5v-5.8"/><path class="a" d="M6,9.76l4.518-3.953a2.249,2.249,0,0,1,2.964,0L18,9.76"/><path class="a" d="M13.5,15.75h-3v-3a1.5,1.5,0,0,1,3,0Z"/></svg>