<svg xmlns="http://www.w3.org/2000/svg" viewBox="0 0 24 24"><defs><style>.a{fill:none;stroke:currentColor;stroke-linecap:round;stroke-linejoin:round;stroke-width:1.5px;}</style></defs><title>shield-settings</title><path class="a" d="M23.25,9.938A13.5,13.5,0,0,1,12,23.25,13.5,13.5,0,0,1,.75,9.938V2.25A1.5,1.5,0,0,1,2.25.75h19.5a1.5,1.5,0,0,1,1.5,1.5Z"/><circle class="a" cx="12" cy="10.5" r="1.5"/><path class="a" d="M13.274,4.7l.442,1.453a.994.994,0,0,0,1.174.681l1.472-.341a1.339,1.339,0,0,1,1.275,2.218L16.606,9.819a1,1,0,0,0,0,1.362l1.031,1.111a1.339,1.339,0,0,1-1.275,2.218l-1.472-.341a.994.994,0,0,0-1.174.681L13.274,16.3a1.33,1.33,0,0,1-2.548,0l-.442-1.453a.994.994,0,0,0-1.174-.681l-1.472.341a1.339,1.339,0,0,1-1.275-2.218l1.031-1.111a1,1,0,0,0,0-1.362L6.363,8.708A1.339,1.339,0,0,1,7.638,6.49l1.472.341a.994.994,0,0,0,1.174-.681L10.726,4.7A1.33,1.33,0,0,1,13.274,4.7Z"/></svg>