<?xml version="1.0" encoding="utf-8"?>
<!-- Generator: Adobe Illustrator 22.1.0, SVG Export Plug-In . SVG Version: 6.00 Build 0)  -->
<svg version="1.1" id="Layer_1" xmlns="http://www.w3.org/2000/svg" xmlns:xlink="http://www.w3.org/1999/xlink" x="0px" y="0px"
	 viewBox="0 0 24 24" style="enable-background:new 0 0 24 24;" xml:space="preserve">
<g>
	<title>read-email-target</title>
	<path d="M5.832,2.8c-0.172,0-0.33-0.087-0.422-0.232c-0.148-0.233-0.079-0.543,0.153-0.69C7.482,0.657,9.708,0.012,12,0.012
		c2.292,0,4.518,0.645,6.437,1.866c0.113,0.072,0.191,0.183,0.219,0.313c0.029,0.13,0.006,0.264-0.066,0.377
		C18.498,2.714,18.34,2.8,18.168,2.8c-0.095,0-0.188-0.027-0.268-0.078c-1.758-1.119-3.798-1.71-5.899-1.71
		c-2.101,0-4.141,0.591-5.9,1.71C6.02,2.773,5.928,2.8,5.832,2.8z"/>
	<path d="M21.7,18.668c-0.094,0-0.187-0.027-0.268-0.078c-0.233-0.149-0.302-0.458-0.154-0.691c2.282-3.584,2.282-8.215,0-11.799
		c-0.148-0.232-0.079-0.542,0.153-0.69c0.08-0.051,0.173-0.078,0.268-0.078c0.172,0,0.33,0.087,0.422,0.232
		c2.49,3.91,2.49,8.963,0,12.873C22.03,18.581,21.872,18.668,21.7,18.668z"/>
	<path d="M2.3,18.668c-0.172,0-0.33-0.086-0.422-0.231c-2.49-3.91-2.49-8.963,0-12.873C1.971,5.418,2.128,5.332,2.3,5.332
		c0.095,0,0.188,0.027,0.268,0.078C2.801,5.558,2.87,5.868,2.722,6.1c-2.282,3.584-2.282,8.215,0,11.799
		c0.148,0.233,0.079,0.542-0.153,0.69C2.488,18.641,2.395,18.668,2.3,18.668z"/>
	<path d="M12,23.988c-2.292,0-4.518-0.645-6.436-1.866c-0.233-0.148-0.302-0.458-0.154-0.69C5.503,21.287,5.66,21.2,5.832,21.2
		c0.095,0,0.188,0.027,0.268,0.078c1.759,1.119,3.799,1.711,5.9,1.711c2.101,0,4.141-0.592,5.899-1.71
		c0.081-0.051,0.173-0.078,0.268-0.078c0.172,0,0.33,0.087,0.422,0.231c0.148,0.232,0.079,0.542-0.153,0.69
		C16.518,23.343,14.292,23.988,12,23.988z"/>
	<path d="M23.5,24c-0.134,0-0.259-0.052-0.354-0.146l-4.5-4.5C18.552,19.259,18.5,19.134,18.5,19s0.052-0.259,0.146-0.354
		S18.866,18.5,19,18.5s0.259,0.052,0.354,0.146l4.5,4.5C23.948,23.241,24,23.366,24,23.5s-0.052,0.259-0.146,0.354
		S23.634,24,23.5,24z"/>
	<path d="M0.5,24c-0.134,0-0.259-0.052-0.354-0.146S0,23.634,0,23.5s0.052-0.259,0.146-0.354l4.5-4.5
		C4.741,18.552,4.866,18.5,5,18.5s0.259,0.052,0.354,0.146S5.5,18.866,5.5,19s-0.052,0.259-0.146,0.354l-4.5,4.5
		C0.759,23.948,0.634,24,0.5,24z"/>
	<path d="M19,5.5c-0.134,0-0.259-0.052-0.354-0.146S18.5,5.134,18.5,5s0.052-0.259,0.146-0.354l4.5-4.5
		C23.241,0.052,23.366,0,23.5,0s0.259,0.052,0.354,0.146S24,0.366,24,0.5s-0.052,0.259-0.146,0.354l-4.5,4.5
		C19.259,5.448,19.134,5.5,19,5.5z"/>
	<path d="M5,5.5c-0.134,0-0.259-0.052-0.354-0.146l-4.5-4.5C0.052,0.759,0,0.634,0,0.5s0.052-0.259,0.146-0.354S0.366,0,0.5,0
		s0.259,0.052,0.354,0.146l4.5,4.5C5.448,4.741,5.5,4.866,5.5,5S5.448,5.259,5.354,5.354S5.134,5.5,5,5.5z"/>
	<path d="M6.5,17C5.673,17,5,16.327,5,15.5v-7C5,7.673,5.673,7,6.5,7h11C18.327,7,19,7.673,19,8.5v7c0,0.827-0.673,1.5-1.5,1.5H6.5z
		 M6,15.5C6,15.776,6.224,16,6.5,16h11c0.276,0,0.5-0.224,0.5-0.5V9.861l-4.958,2.827c-0.303,0.189-0.665,0.292-1.04,0.292
		c-0.378,0-0.745-0.105-1.062-0.303L6,9.861V15.5z M11.453,11.819c0.171,0.107,0.359,0.16,0.55,0.16c0.188,0,0.37-0.052,0.527-0.15
		L18,8.709V8.5C18,8.224,17.776,8,17.5,8h-11C6.224,8,6,8.224,6,8.5v0.209L11.453,11.819z"/>
</g>
</svg>
