<?xml version="1.0" encoding="utf-8"?>
<!-- Generator: Adobe Illustrator 22.1.0, SVG Export Plug-In . SVG Version: 6.00 Build 0)  -->
<svg version="1.1" id="Layer_1" xmlns="http://www.w3.org/2000/svg" xmlns:xlink="http://www.w3.org/1999/xlink" x="0px" y="0px"
	 viewBox="0 0 24 24" style="enable-background:new 0 0 24 24;" xml:space="preserve">
<g>
	<title>read-email-monitor</title>
	<path d="M7.5,13C6.673,13,6,12.327,6,11.5v-5C6,5.673,6.673,5,7.5,5h9C17.327,5,18,5.673,18,6.5v5c0,0.827-0.673,1.5-1.5,1.5H7.5z
		 M7,11.5C7,11.776,7.224,12,7.5,12h9c0.276,0,0.5-0.224,0.5-0.5V7.817l-3.772,1.928c-0.361,0.209-0.788,0.322-1.224,0.322
		c-0.441,0-0.874-0.116-1.253-0.335L7,7.817V11.5z M11.228,8.855c0.244,0.141,0.509,0.212,0.775,0.212
		c0.263,0,0.521-0.069,0.747-0.199L17,6.694V6.5C17,6.224,16.776,6,16.5,6h-9C7.224,6,7,6.224,7,6.5v0.194L11.228,8.855z"/>
	<path d="M7.5,24C7.224,24,7,23.776,7,23.5S7.224,23,7.5,23h1.369c0.588-0.901,0.96-1.931,1.085-3H1.5C0.673,20,0,19.327,0,18.5v-17
		C0,0.673,0.673,0,1.5,0h21C23.327,0,24,0.673,24,1.5v17c0,0.827-0.673,1.5-1.5,1.5h-8.454c0.125,1.07,0.498,2.099,1.085,3H16.5
		c0.276,0,0.5,0.224,0.5,0.5S16.776,24,16.5,24H7.5z M13.967,23c-0.502-0.924-0.819-1.949-0.927-3h-2.08
		c-0.108,1.051-0.425,2.076-0.927,3H13.967z M1,18.5C1,18.776,1.224,19,1.5,19h21c0.276,0,0.5-0.224,0.5-0.5V17H1V18.5z M23,16V1.5
		C23,1.224,22.776,1,22.5,1h-21C1.224,1,1,1.224,1,1.5V16H23z"/>
</g>
</svg>
