<?xml version="1.0" encoding="utf-8"?>
<!-- Generator: Adobe Illustrator 22.1.0, SVG Export Plug-In . SVG Version: 6.00 Build 0)  -->
<svg version="1.1" id="Layer_1" xmlns="http://www.w3.org/2000/svg" xmlns:xlink="http://www.w3.org/1999/xlink" x="0px" y="0px"
	 viewBox="0 0 24 24" style="enable-background:new 0 0 24 24;" xml:space="preserve">
<g>
	<title>read-email-at</title>
	<path d="M12.012,24.021c-0.741,0-1.49-0.07-2.225-0.207c-3.154-0.588-5.889-2.369-7.703-5.014c-1.814-2.646-2.49-5.839-1.902-8.992
		C0.77,6.654,2.55,3.919,5.196,2.105c2.011-1.379,4.352-2.108,6.767-2.108c0.741,0,1.49,0.07,2.225,0.207
		c3.153,0.588,5.889,2.368,7.703,5.014c1.375,2.006,2.103,4.351,2.105,6.783v1c0,2.206-1.794,4-4,4c-1.64,0-3.081-0.988-3.691-2.467
		C15.413,16.049,13.782,17,11.996,17c-2.757,0-5-2.243-5-5c0-2.757,2.243-5,5-5s5,2.243,5,5v1c0,1.654,1.346,3,3,3s3-1.346,3-3v-1
		c-0.002-2.229-0.669-4.379-1.93-6.218c-1.663-2.425-4.171-4.057-7.062-4.596c-0.675-0.126-1.361-0.189-2.041-0.189
		c-2.214,0-4.359,0.668-6.203,1.933C3.336,4.592,1.704,7.1,1.165,9.991c-0.539,2.891,0.08,5.818,1.743,8.244
		c1.663,2.425,4.171,4.058,7.062,4.596c0.675,0.126,1.362,0.19,2.041,0.19c2.214,0,4.359-0.668,6.203-1.933
		C18.297,21.03,18.395,21,18.496,21c0.165,0,0.319,0.082,0.413,0.218c0.075,0.11,0.104,0.243,0.079,0.375
		c-0.025,0.131-0.099,0.245-0.209,0.321C16.768,23.292,14.428,24.021,12.012,24.021z M11.996,8c-2.206,0-4,1.794-4,4s1.794,4,4,4
		c2.205,0,4-1.794,4-4S14.202,8,11.996,8z"/>
</g>
</svg>
