<svg id="Regular" xmlns="http://www.w3.org/2000/svg" viewBox="0 0 24 24"><defs><style>.cls-1{fill:none;stroke:currentColor;stroke-linecap:round;stroke-linejoin:round;stroke-width:1.5px;}</style></defs><title>single-woman-actions-player</title><rect class="cls-1" x="11.25" y="11.25" width="12" height="12" rx="1.5" ry="1.5"/><path class="cls-1" d="M15.75,15.43a.43.43,0,0,1,.651-.369l3.033,1.821a.429.429,0,0,1,0,.737L16.4,19.439a.43.43,0,0,1-.651-.369Z"/><circle class="cls-1" cx="6" cy="3.75" r="3"/><path class="cls-1" d="M8.886,9.114,6,13.5,3.114,9.114A5.246,5.246,0,0,0,.75,13.5v2.25H3l.75,7.5h4.5"/><path class="cls-1" d="M3,3.75S3,7.5.75,7.5"/><path class="cls-1" d="M9,3.75S9,7.5,11.25,7.5"/></svg>