<svg id="Regular" xmlns="http://www.w3.org/2000/svg" viewBox="0 0 24 24"><defs><style>.cls-1{fill:none;stroke:currentColor;stroke-linecap:round;stroke-linejoin:round;stroke-width:1.5px;}</style></defs><title>single-woman-actions-laptop</title><path class="cls-1" d="M21.75,12.75v6H11.25v-6a1.5,1.5,0,0,1,1.5-1.5h7.5A1.5,1.5,0,0,1,21.75,12.75Z"/><path class="cls-1" d="M11.25,18.75h10.5l1.171,3.513a.75.75,0,0,1-.712.987H10.791a.75.75,0,0,1-.712-.987Z"/><path class="cls-1" d="M8.944,3.164A3,3,0,1,1,6.588.806,3,3,0,0,1,8.944,3.164Z"/><path class="cls-1" d="M8.886,9.114,6,13.5,3.114,9.114A5.246,5.246,0,0,0,.75,13.5v2.25H3l.75,7.5h3"/><path class="cls-1" d="M3,3.75S3,7.5.75,7.5"/><path class="cls-1" d="M9,3.75S9,7.5,11.25,7.5"/></svg>