<svg id="Regular" xmlns="http://www.w3.org/2000/svg" viewBox="0 0 24 24"><defs><style>.cls-1{fill:none;stroke:currentColor;stroke-linecap:round;stroke-linejoin:round;stroke-width:1.5px;}</style></defs><title>single-woman-actions-video</title><path class="cls-1" d="M23.249,15.75l-3,1v-1a1.5,1.5,0,0,0-1.5-1.5h-6a1.5,1.5,0,0,0-1.5,1.5v6a1.5,1.5,0,0,0,1.5,1.5h6a1.5,1.5,0,0,0,1.5-1.5v-1l3,1Z"/><circle class="cls-1" cx="6" cy="3.75" r="3"/><path class="cls-1" d="M10.568,10.91a5.279,5.279,0,0,0-1.682-1.8L6,13.5,3.115,9.114A5.247,5.247,0,0,0,.75,13.5v2.25H3l.75,7.5h4.5"/><path class="cls-1" d="M3,3.75S3,7.5.75,7.5"/><path class="cls-1" d="M9,3.75S9,7.5,11.25,7.5"/></svg>