<svg id="Bold" xmlns="http://www.w3.org/2000/svg" viewBox="0 0 24 24"><title>multiple-woman-2</title><path d="M13.834,4.206A4.207,4.207,0,1,0,18.041,0,4.211,4.211,0,0,0,13.834,4.206Zm4.207,2.227A2.222,2.222,0,0,1,15.9,4.81a.247.247,0,0,1,.158-.3,4.63,4.63,0,0,0,1.8-1.128.247.247,0,0,1,.353,0,4.615,4.615,0,0,0,1.8,1.128.248.248,0,0,1,.157.3A2.224,2.224,0,0,1,18.041,6.433Z"/><path d="M23.505,18.557a.5.5,0,0,0,.477-.625c-1.964-7.163-1.879-7.547-3.006-8.6a.5.5,0,0,0-.757.1l-1.737,2.736a.495.495,0,0,1-.837,0L15.923,9.411a.5.5,0,0,0-.756-.1c-.93.858-1.053,1.289-2.1,5.186a.5.5,0,0,0,0,.259c.2.761.44,1.636.718,2.647a2.535,2.535,0,0,1,.077.882.25.25,0,0,0,.248.273h.8a.247.247,0,0,1,.243.2l.921,4.846v.008a.5.5,0,0,0,.484.388h2.969a.5.5,0,0,0,.483-.388l0-.008.92-4.846a.248.248,0,0,1,.244-.2Z"/><path d="M.1,18.362a.494.494,0,0,0,.393.2h2.3a.247.247,0,0,1,.243.2l.921,4.847,0,.007A.5.5,0,0,0,4.443,24H7.412a.5.5,0,0,0,.483-.388l0-.007.921-4.847a.247.247,0,0,1,.243-.2h2.321a.5.5,0,0,0,.477-.626C9.9,10.769,9.98,10.385,8.852,9.33a.5.5,0,0,0-.756.1L6.359,12.16a.5.5,0,0,1-.837,0L3.8,9.411a.5.5,0,0,0-.755-.1C1.891,10.373,1.978,10.78.017,17.931A.5.5,0,0,0,.1,18.362Z"/><path d="M1.711,4.206A4.206,4.206,0,1,0,5.917,0,4.211,4.211,0,0,0,1.711,4.206ZM5.917,6.433A2.224,2.224,0,0,1,3.78,4.81a.248.248,0,0,1,.158-.3,4.616,4.616,0,0,0,1.8-1.128.247.247,0,0,1,.353,0A4.615,4.615,0,0,0,7.9,4.509a.249.249,0,0,1,.158.3A2.224,2.224,0,0,1,5.917,6.433Z"/><path d="M13.834,4.206A4.207,4.207,0,1,0,18.041,0,4.211,4.211,0,0,0,13.834,4.206Zm4.207,2.227A2.222,2.222,0,0,1,15.9,4.81a.247.247,0,0,1,.158-.3,4.63,4.63,0,0,0,1.8-1.128.247.247,0,0,1,.353,0,4.615,4.615,0,0,0,1.8,1.128.248.248,0,0,1,.157.3A2.224,2.224,0,0,1,18.041,6.433Z"/><path d="M23.505,18.557a.5.5,0,0,0,.477-.625c-1.964-7.163-1.879-7.547-3.006-8.6a.5.5,0,0,0-.757.1l-1.737,2.736a.495.495,0,0,1-.837,0L15.923,9.411a.5.5,0,0,0-.756-.1c-.93.858-1.053,1.289-2.1,5.186a.5.5,0,0,0,0,.259c.2.761.44,1.636.718,2.647a2.535,2.535,0,0,1,.077.882.25.25,0,0,0,.248.273h.8a.247.247,0,0,1,.243.2l.921,4.846v.008a.5.5,0,0,0,.484.388h2.969a.5.5,0,0,0,.483-.388l0-.008.92-4.846a.248.248,0,0,1,.244-.2Z"/><path d="M.1,18.362a.494.494,0,0,0,.393.2h2.3a.247.247,0,0,1,.243.2l.921,4.847,0,.007A.5.5,0,0,0,4.443,24H7.412a.5.5,0,0,0,.483-.388l0-.007.921-4.847a.247.247,0,0,1,.243-.2h2.321a.5.5,0,0,0,.477-.626C9.9,10.769,9.98,10.385,8.852,9.33a.5.5,0,0,0-.756.1L6.359,12.16a.5.5,0,0,1-.837,0L3.8,9.411a.5.5,0,0,0-.755-.1C1.891,10.373,1.978,10.78.017,17.931A.5.5,0,0,0,.1,18.362Z"/><path d="M1.711,4.206A4.206,4.206,0,1,0,5.917,0,4.211,4.211,0,0,0,1.711,4.206ZM5.917,6.433A2.224,2.224,0,0,1,3.78,4.81a.248.248,0,0,1,.158-.3,4.616,4.616,0,0,0,1.8-1.128.247.247,0,0,1,.353,0A4.615,4.615,0,0,0,7.9,4.509a.249.249,0,0,1,.158.3A2.224,2.224,0,0,1,5.917,6.433Z"/></svg>