<svg xmlns="http://www.w3.org/2000/svg" viewBox="0 0 24 24"><defs><style>.a{fill:none;stroke:currentColor;stroke-linecap:round;stroke-linejoin:round;}</style></defs><title>computer-bug-2</title><path class="a" d="M12,2.5a5,5,0,0,0-5,5v11a5,5,0,0,0,10,0V7.5A5,5,0,0,0,12,2.5Z"/><path class="a" d="M22.5,19.5a5.267,5.267,0,0,1-5.5-5,5.268,5.268,0,0,1,5.5-5"/><path class="a" d="M1.5,9.5a5.268,5.268,0,0,1,5.5,5,5.267,5.267,0,0,1-5.5,5"/><line class="a" x1="7" y1="14.5" x2="1" y2="14.5"/><line class="a" x1="23" y1="14.5" x2="17" y2="14.5"/><path class="a" d="M7.832,4.737A7.517,7.517,0,0,1,4.769.5"/><path class="a" d="M19.23.5a7.508,7.508,0,0,1-3.062,4.237"/><line class="a" x1="7" y1="8.5" x2="17" y2="8.5"/></svg>