<svg xmlns="http://www.w3.org/2000/svg" viewBox="0 0 24 24"><defs><style>.a{fill:none;stroke:currentColor;stroke-linecap:round;stroke-linejoin:round;}</style></defs><title>firewall</title><rect class="a" x="0.5" y="13.5" width="23" height="10" rx="1" ry="1"/><path class="a" d="M8.164,11.507a5.321,5.321,0,0,1,2.693-3.944.5.5,0,0,1,.729.581,3.943,3.943,0,0,0,.32,3.023,1.23,1.23,0,0,0,1.233-.645.5.5,0,0,1,.763-.108,2.875,2.875,0,0,1,.722,1.086"/><path class="a" d="M18.549,11.5a7.476,7.476,0,0,0-.921-6.734h-.261L15.5,7.106a9.514,9.514,0,0,1-.014-5.879.5.5,0,0,0-.545-.649A9.511,9.511,0,0,0,7.864,5.462L6.536,4.168a.5.5,0,0,0-.73.035A7.474,7.474,0,0,0,4.45,11.5"/><line class="a" x1="0.5" y1="16.5" x2="23.5" y2="16.5"/><line class="a" x1="0.5" y1="20" x2="23.5" y2="20"/><line class="a" x1="4.5" y1="13.5" x2="4.5" y2="16.5"/><line class="a" x1="11" y1="17" x2="11" y2="20"/><line class="a" x1="16.5" y1="13.5" x2="16.5" y2="16.5"/><line class="a" x1="4.5" y1="20" x2="4.5" y2="23.5"/><line class="a" x1="16.5" y1="20" x2="16.5" y2="23.5"/></svg>