<svg xmlns="http://www.w3.org/2000/svg" viewBox="0 0 24 24"><defs><style>.a{fill:none;stroke:currentColor;stroke-linecap:round;stroke-linejoin:round;}</style></defs><title>security-lock</title><path class="a" d="M6.5,8.5V6a5.5,5.5,0,0,1,11,0V8.5"/><line class="a" x1="2.5" y1="13.5" x2="21.5" y2="13.5"/><line class="a" x1="2.5" y1="18.5" x2="21.5" y2="18.5"/><rect class="a" x="2.5" y="8.5" width="19" height="15" rx="2.5" ry="2.5"/><path class="a" d="M5.25,10.75A.25.25,0,1,1,5,11a.25.25,0,0,1,.25-.25"/><path class="a" d="M7.75,10.75A.25.25,0,1,1,7.5,11a.25.25,0,0,1,.25-.25"/><path class="a" d="M5.25,15.75A.25.25,0,1,1,5,16a.25.25,0,0,1,.25-.25"/><path class="a" d="M7.75,15.75A.25.25,0,1,1,7.5,16a.25.25,0,0,1,.25-.25"/><path class="a" d="M5.25,20.75A.25.25,0,1,1,5,21a.25.25,0,0,1,.25-.25"/><path class="a" d="M7.75,20.75A.25.25,0,1,1,7.5,21a.25.25,0,0,1,.25-.25"/></svg>