<svg xmlns="http://www.w3.org/2000/svg" viewBox="0 0 24 24"><defs><style>.a{fill:none;stroke:currentColor;stroke-linecap:round;stroke-linejoin:round;}</style></defs><title>shield-warning</title><line class="a" x1="12" y1="13.5" x2="12" y2="6.5"/><path class="a" d="M11.991,15.5a.255.255,0,0,1,.259.245.246.246,0,0,1-.241.255.255.255,0,0,1-.259-.245.246.246,0,0,1,.241-.255"/><path class="a" d="M1.5,3.775v7.637A12.311,12.311,0,0,0,9.719,22.88l1.121.414a3.365,3.365,0,0,0,2.32,0l1.121-.414A12.311,12.311,0,0,0,22.5,11.412V3.775a1.533,1.533,0,0,0-.934-1.406A24.237,24.237,0,0,0,12,.5,24.237,24.237,0,0,0,2.434,2.369,1.533,1.533,0,0,0,1.5,3.775Z"/></svg>