<svg xmlns="http://www.w3.org/2000/svg" viewBox="0 0 24 24"><defs><style>.a{fill:none;stroke:currentColor;stroke-linecap:round;stroke-linejoin:round;stroke-width:1.5px;}</style></defs><title>force-touch-double-tap</title><path class="a" d="M11.307,23.25h-7.5a3,3,0,0,1-3-3V3.75a3,3,0,0,1,3-3h7.5a3,3,0,0,1,3,3V6"/><line class="a" x1="0.807" y1="18.75" x2="6.807" y2="18.75"/><path class="a" d="M23.193,16.152l-2.445-2.446a3,3,0,0,0-3.865-.32l-1.644,1.175L13.117,12.44A1.5,1.5,0,1,0,11,14.561l3.712,3.712-1.245.415a1.637,1.637,0,0,0,.7,3.181l3.728-.414"/><path class="a" d="M9.061,16.651A4.5,4.5,0,1,1,15.2,10.5"/></svg>