<?xml version="1.0" encoding="utf-8"?>
<!-- Generator: Adobe Illustrator 22.1.0, SVG Export Plug-In . SVG Version: 6.00 Build 0)  -->
<svg version="1.1" id="Layer_1" xmlns="http://www.w3.org/2000/svg" xmlns:xlink="http://www.w3.org/1999/xlink" x="0px" y="0px"
	 viewBox="0 0 24 24" style="enable-background:new 0 0 24 24;" xml:space="preserve">
<g>
	<title>laptop-bug</title>
	<path d="M5.623,18c-2.657,0-4.964-1.801-5.608-4.379c-0.038-0.15-0.004-0.307,0.091-0.429C0.201,13.07,0.344,13,0.5,13H3V2.167
		C3,0.972,3.972,0,5.167,0h13.666C20.027,0,21,0.972,21,2.167V9.5c0,0.276-0.224,0.5-0.5,0.5S20,9.776,20,9.5V2.167
		C20,1.524,19.476,1,18.833,1H5.167C4.523,1,4,1.524,4,2.167V13h6.5c0.276,0,0.5,0.224,0.5,0.5S10.775,14,10.5,14H1.185
		c0.721,1.808,2.463,3,4.437,3H9.5c0.276,0,0.5,0.224,0.5,0.5S9.775,18,9.5,18H5.623z"/>
	<path d="M21.5,24c-0.153,0-0.295-0.068-0.391-0.187l-1.837-2.296C18.735,21.833,18.127,22,17.5,22s-1.236-0.167-1.772-0.483
		l-1.837,2.296C13.795,23.932,13.652,24,13.499,24c-0.113,0-0.224-0.039-0.312-0.109c-0.215-0.173-0.25-0.488-0.078-0.703
		l1.839-2.299c-0.491-0.524-0.808-1.181-0.91-1.889H11.5c-0.276,0-0.5-0.224-0.5-0.5s0.224-0.5,0.5-0.5H14v-1.5
		c0-0.643,0.175-1.265,0.507-1.811l-2.391-2.869c-0.176-0.212-0.148-0.528,0.064-0.704C12.27,11.041,12.383,11,12.5,11
		c0.149,0,0.289,0.065,0.384,0.18l2.272,2.726C15.801,13.32,16.624,13,17.5,13s1.698,0.32,2.344,0.906l2.272-2.726
		C22.211,11.066,22.351,11,22.5,11c0.116,0,0.23,0.041,0.32,0.115c0.212,0.177,0.241,0.493,0.065,0.705l-2.391,2.869
		C20.825,15.235,21,15.857,21,16.5V18h2.5c0.276,0,0.5,0.224,0.5,0.5S23.775,19,23.5,19h-2.539c-0.102,0.708-0.418,1.365-0.91,1.889
		l1.839,2.299c0.172,0.215,0.137,0.531-0.078,0.703C21.724,23.961,21.613,24,21.5,24z M15,18.5c0,1.378,1.122,2.5,2.5,2.5
		s2.5-1.122,2.5-2.5V17h-5V18.5z M19.948,16c-0.235-1.141-1.261-2-2.448-2s-2.213,0.859-2.448,2H19.948z"/>
</g>
</svg>
