<?xml version="1.0" encoding="utf-8"?>
<!-- Generator: Adobe Illustrator 22.1.0, SVG Export Plug-In . SVG Version: 6.00 Build 0)  -->
<svg version="1.1" id="Layer_1" xmlns="http://www.w3.org/2000/svg" xmlns:xlink="http://www.w3.org/1999/xlink" x="0px" y="0px"
	 viewBox="0 0 24 24" style="enable-background:new 0 0 24 24;" xml:space="preserve">
<g>
	<title>laptop-settings</title>
	<path d="M5.623,18c-2.657,0-4.964-1.801-5.608-4.379c-0.038-0.15-0.004-0.307,0.091-0.429C0.201,13.07,0.345,13,0.5,13H3V2.167
		C3,0.972,3.972,0,5.167,0h13.666C20.028,0,21,0.972,21,2.167V9.5c0,0.276-0.224,0.5-0.5,0.5S20,9.775,20,9.5V2.167
		C20,1.523,19.476,1,18.833,1H5.167C4.523,1,4,1.523,4,2.167V13h5.5c0.276,0,0.5,0.224,0.5,0.5S9.776,14,9.5,14H1.185
		c0.721,1.808,2.463,3,4.437,3H10.5c0.276,0,0.5,0.224,0.5,0.5S10.776,18,10.5,18H5.623z"/>
	<path d="M17.75,18.968c-1.068,0-1.937-0.869-1.937-1.937s0.869-1.937,1.937-1.937s1.937,0.869,1.937,1.937
		S18.818,18.968,17.75,18.968z M17.75,16.094c-0.517,0-0.937,0.42-0.937,0.937s0.42,0.937,0.937,0.937s0.937-0.42,0.937-0.937
		S18.266,16.094,17.75,16.094z"/>
	<path d="M17.754,24c-0.172,0-0.343-0.025-0.51-0.075c-0.573-0.172-1.017-0.617-1.189-1.189l-0.428-1.389
		c-0.057-0.191-0.236-0.324-0.434-0.324c-0.033,0-0.067,0.004-0.1,0.011l-1.411,0.327c-0.131,0.029-0.262,0.044-0.393,0.044
		c-0.827,0-1.559-0.585-1.741-1.391c-0.13-0.575,0.033-1.176,0.434-1.607l0.987-1.064c0.16-0.174,0.16-0.447-0.001-0.621
		l-0.987-1.064c-0.324-0.347-0.493-0.801-0.475-1.278c0.017-0.476,0.218-0.917,0.566-1.241c0.331-0.308,0.763-0.478,1.215-0.478
		c0.131,0,0.263,0.015,0.392,0.043l1.415,0.328c0.033,0.008,0.067,0.012,0.1,0.012c0.198,0,0.375-0.132,0.432-0.322l0.425-1.394
		c0.135-0.452,0.439-0.826,0.856-1.051c0.26-0.14,0.551-0.214,0.842-0.214c0.172,0,0.343,0.025,0.51,0.075
		c0.573,0.171,1.018,0.614,1.191,1.186l0.424,1.391c0.057,0.19,0.235,0.323,0.433,0.323c0.034,0,0.067-0.004,0.1-0.011l1.411-0.327
		c0.131-0.029,0.262-0.044,0.394-0.044c0.827,0,1.559,0.585,1.741,1.391c0.13,0.574-0.032,1.175-0.434,1.607l-0.988,1.064
		c-0.16,0.173-0.159,0.447,0.001,0.622l0.987,1.063c0.324,0.348,0.493,0.802,0.476,1.278c-0.017,0.476-0.218,0.917-0.567,1.241
		c-0.331,0.309-0.762,0.479-1.214,0.479l0,0c-0.132,0-0.264-0.015-0.393-0.044l-1.415-0.327c-0.031-0.007-0.063-0.011-0.095-0.011
		c-0.198,0-0.375,0.133-0.432,0.323l-0.424,1.395C19.231,23.48,18.532,24,17.754,24L17.754,24z M15.193,20.023
		c0.635,0,1.207,0.424,1.39,1.032l0.428,1.389c0.076,0.253,0.27,0.447,0.52,0.522C17.605,22.989,17.68,23,17.755,23
		c0.339,0,0.644-0.227,0.742-0.552l0.424-1.394c0.181-0.608,0.754-1.034,1.392-1.034c0.106,0,0.212,0.012,0.315,0.035l1.415,0.327
		c0.055,0.013,0.112,0.019,0.17,0.019c0.198,0,0.387-0.075,0.533-0.21c0.153-0.143,0.241-0.336,0.249-0.545
		c0.008-0.209-0.067-0.408-0.209-0.562l-0.989-1.066c-0.511-0.555-0.511-1.424-0.001-1.979l0.989-1.066
		c0.177-0.19,0.249-0.454,0.191-0.707c-0.046-0.204-0.168-0.378-0.345-0.49c-0.126-0.079-0.27-0.121-0.417-0.121
		c-0.058,0-0.117,0.006-0.175,0.019l-1.409,0.326c-0.107,0.024-0.215,0.037-0.324,0.037c-0.636,0-1.209-0.425-1.392-1.033
		l-0.424-1.39c-0.076-0.25-0.27-0.444-0.52-0.519c-0.073-0.022-0.148-0.033-0.223-0.033c-0.126,0-0.253,0.032-0.366,0.094
		c-0.182,0.099-0.315,0.262-0.375,0.46l-0.425,1.394c-0.183,0.607-0.755,1.031-1.391,1.031c-0.108,0-0.217-0.012-0.323-0.037
		l-1.413-0.327c-0.055-0.013-0.113-0.019-0.171-0.019c-0.197,0-0.386,0.075-0.532,0.21c-0.316,0.294-0.334,0.791-0.04,1.107
		l0.989,1.066c0.511,0.555,0.511,1.424,0.001,1.978l-0.989,1.066c-0.177,0.19-0.249,0.454-0.192,0.707
		c0.08,0.354,0.401,0.611,0.764,0.611c0.058,0,0.115-0.006,0.172-0.019l1.409-0.327C14.975,20.036,15.084,20.023,15.193,20.023z"/>
</g>
</svg>
