<?xml version="1.0" encoding="utf-8"?>
<!-- Generator: Adobe Illustrator 22.1.0, SVG Export Plug-In . SVG Version: 6.00 Build 0)  -->
<svg version="1.1" id="Layer_1" xmlns="http://www.w3.org/2000/svg" xmlns:xlink="http://www.w3.org/1999/xlink" x="0px" y="0px"
	 viewBox="0 0 24 24" style="enable-background:new 0 0 24 24;" xml:space="preserve">
<g>
	<title>laptop-flash</title>
	<path d="M5.622,18c-2.657,0-4.964-1.801-5.608-4.379c-0.038-0.15-0.004-0.307,0.091-0.429C0.2,13.07,0.344,13,0.499,13h2.5V2.167
		C2.999,0.972,3.971,0,5.166,0h13.666c1.195,0,2.167,0.972,2.167,2.167V7.5c0,0.276-0.224,0.5-0.5,0.5s-0.5-0.224-0.5-0.5V2.167
		C19.999,1.524,19.475,1,18.832,1H5.166C4.522,1,3.999,1.524,3.999,2.167V13h9.5c0.276,0,0.5,0.224,0.5,0.5s-0.224,0.5-0.5,0.5
		H1.184c0.721,1.808,2.463,3,4.437,3h6.877c0.276,0,0.5,0.224,0.5,0.5s-0.224,0.5-0.5,0.5H5.622z"/>
	<path d="M17.499,24c-0.056,0-0.112-0.01-0.166-0.028c-0.2-0.07-0.334-0.26-0.334-0.472V18h-2.125
		c-0.206-0.001-0.405-0.074-0.561-0.205c-0.18-0.151-0.29-0.363-0.31-0.596c-0.02-0.233,0.052-0.46,0.203-0.639l5.903-7.373
		C20.204,9.068,20.346,9,20.499,9c0.057,0,0.112,0.01,0.166,0.028c0.2,0.07,0.334,0.26,0.334,0.472V15h2.125
		c0.206,0.001,0.405,0.074,0.562,0.205c0.37,0.311,0.418,0.865,0.107,1.235l-5.904,7.373C17.793,23.932,17.651,24,17.499,24z
		 M17.499,17c0.276,0,0.5,0.224,0.5,0.5v4.576L22.864,16h-2.365c-0.276,0-0.5-0.224-0.5-0.5v-4.576L15.134,17H17.499z"/>
</g>
</svg>
