<?xml version="1.0" encoding="utf-8"?>
<!-- Generator: Adobe Illustrator 22.1.0, SVG Export Plug-In . SVG Version: 6.00 Build 0)  -->
<svg version="1.1" id="Layer_1" xmlns="http://www.w3.org/2000/svg" xmlns:xlink="http://www.w3.org/1999/xlink" x="0px" y="0px"
	 viewBox="0 0 24 24" style="enable-background:new 0 0 24 24;" xml:space="preserve">
<g>
	<title>laptop-lock-2</title>
	<path d="M15.5,24c-0.827,0-1.5-0.673-1.5-1.5v-5.999c0-0.827,0.673-1.5,1.5-1.5H16V14c0-1.654,1.346-3,3-3s3,1.346,3,3v1.001h0.5
		c0.827,0,1.5,0.673,1.5,1.5V22.5c0,0.827-0.673,1.5-1.5,1.5H15.5z M15.5,16.001c-0.276,0-0.5,0.224-0.5,0.5V22.5
		c0,0.276,0.224,0.5,0.5,0.5h7c0.276,0,0.5-0.224,0.5-0.5v-5.999c0-0.276-0.224-0.5-0.5-0.5H15.5z M21,15v-1c0-1.103-0.897-2-2-2
		s-2,0.897-2,2L21,15z"/>
	<path d="M19,21.313c-0.965,0-1.75-0.785-1.75-1.75s0.785-1.75,1.75-1.75s1.75,0.785,1.75,1.75S19.964,21.313,19,21.313z M19,18.813
		c-0.414,0-0.75,0.336-0.75,0.75s0.336,0.75,0.75,0.75s0.75-0.336,0.75-0.75S19.413,18.813,19,18.813z"/>
	<path d="M5.623,18c-2.657,0-4.964-1.801-5.608-4.379c-0.038-0.15-0.004-0.307,0.091-0.429C0.201,13.07,0.344,13,0.5,13H3V2.167
		C3,0.972,3.972,0,5.167,0h13.666C20.027,0,21,0.972,21,2.167V9.5c0,0.276-0.224,0.5-0.5,0.5S20,9.776,20,9.5V2.167
		C20,1.524,19.476,1,18.833,1H5.167C4.523,1,4,1.524,4,2.167V13h9.5c0.276,0,0.5,0.224,0.5,0.5S13.775,14,13.5,14H1.185
		c0.721,1.808,2.463,3,4.437,3H12.5c0.276,0,0.5,0.224,0.5,0.5S12.775,18,12.5,18H5.623z"/>
</g>
</svg>
