<?xml version="1.0" encoding="utf-8"?>
<!-- Generator: Adobe Illustrator 22.1.0, SVG Export Plug-In . SVG Version: 6.00 Build 0)  -->
<svg version="1.1" id="Layer_1" xmlns="http://www.w3.org/2000/svg" xmlns:xlink="http://www.w3.org/1999/xlink" x="0px" y="0px"
	 viewBox="0 0 24 24" style="enable-background:new 0 0 24 24;" xml:space="preserve">
<title>ui-columns</title>
<g>
	<path d="M2.25,10.5C1.009,10.5,0,9.491,0,8.25v-6C0,1.009,1.009,0,2.25,0h19.5C22.991,0,24,1.009,24,2.25v6
		c0,1.241-1.009,2.25-2.25,2.25H2.25z M21.75,9c0.414,0,0.75-0.336,0.75-0.75v-6c0-0.414-0.336-0.75-0.75-0.75h-6V9H21.75z
		 M2.25,1.5C1.836,1.5,1.5,1.836,1.5,2.25v6C1.5,8.664,1.836,9,2.25,9h12V1.5H2.25z"/>
	<path d="M3.75,4.5C3.336,4.5,3,4.164,3,3.75S3.336,3,3.75,3h7.272c0.414,0,0.75,0.336,0.75,0.75s-0.336,0.75-0.75,0.75H3.75z"/>
	<path d="M3.748,7.5C3.335,7.499,2.999,7.162,3,6.748C3.001,6.336,3.337,6,3.75,6l4.456,0.011c0.413,0.001,0.749,0.338,0.748,0.752
		c-0.001,0.413-0.337,0.748-0.75,0.748L3.748,7.5z"/>
	<path d="M19.5,7.5c-0.2,0-0.389-0.078-0.53-0.22l-1.5-1.5c-0.142-0.141-0.22-0.33-0.22-0.53s0.078-0.389,0.22-0.53l1.5-1.5
		C19.111,3.078,19.3,3,19.5,3s0.389,0.078,0.53,0.22c0.142,0.141,0.22,0.33,0.22,0.53s-0.078,0.389-0.22,0.53l-0.97,0.97l0.97,0.97
		c0.142,0.141,0.22,0.33,0.22,0.53s-0.078,0.389-0.22,0.53S19.7,7.5,19.5,7.5z"/>
	<path d="M2.25,24C1.009,24,0,22.991,0,21.75v-6c0-1.241,1.009-2.25,2.25-2.25h19.5c1.241,0,2.25,1.009,2.25,2.25v6
		c0,1.241-1.009,2.25-2.25,2.25H2.25z M21.75,22.5c0.414,0,0.75-0.336,0.75-0.75v-6c0-0.414-0.336-0.75-0.75-0.75h-6v7.5H21.75z
		 M2.25,15c-0.414,0-0.75,0.336-0.75,0.75v6c0,0.414,0.336,0.75,0.75,0.75h12V15H2.25z"/>
	<path d="M3.75,18C3.336,18,3,17.664,3,17.25s0.336-0.75,0.75-0.75h7.272c0.414,0,0.75,0.336,0.75,0.75S11.436,18,11.022,18H3.75z"
		/>
	<path d="M3.748,21C3.335,20.999,2.999,20.662,3,20.248C3.001,19.836,3.337,19.5,3.75,19.5l4.456,0.011
		c0.2,0,0.388,0.079,0.53,0.221c0.141,0.142,0.219,0.331,0.218,0.531c-0.001,0.412-0.337,0.748-0.75,0.748L3.748,21z"/>
	<path d="M19.5,21c-0.2,0-0.389-0.078-0.53-0.22l-1.5-1.5c-0.292-0.292-0.292-0.768,0-1.061l1.5-1.5
		c0.142-0.142,0.33-0.22,0.53-0.22s0.389,0.078,0.53,0.22c0.292,0.292,0.292,0.768,0,1.061l-0.97,0.97l0.97,0.97
		c0.292,0.292,0.292,0.768,0,1.061C19.889,20.922,19.7,21,19.5,21z"/>
</g>
</svg>
