<?xml version="1.0" encoding="utf-8"?>
<!-- Generator: Adobe Illustrator 22.1.0, SVG Export Plug-In . SVG Version: 6.00 Build 0)  -->
<svg version="1.1" id="Layer_1" xmlns="http://www.w3.org/2000/svg" xmlns:xlink="http://www.w3.org/1999/xlink" x="0px" y="0px"
	 viewBox="0 0 24 24" style="enable-background:new 0 0 24 24;" xml:space="preserve">
<title>ui-screen-split</title>
<g>
	<path d="M12,21c-0.116,0-0.232-0.027-0.335-0.079l-1.5-0.75c-0.37-0.185-0.52-0.636-0.335-1.006
		c0.128-0.256,0.385-0.415,0.672-0.415c0.115,0,0.231,0.027,0.334,0.078L12,19.412l1.165-0.583c0.105-0.052,0.22-0.079,0.335-0.079
		c0.286,0,0.543,0.159,0.671,0.415c0.185,0.37,0.034,0.821-0.335,1.006l-1.5,0.75C12.232,20.973,12.116,21,12,21z"/>
	<path d="M8.25,24c-2.068,0-3.75-1.682-3.75-3.75v-3H2.25C1.009,17.25,0,16.241,0,15V2.25C0,1.009,1.009,0,2.25,0h19.5
		C22.991,0,24,1.009,24,2.25V15c0,1.241-1.009,2.25-2.25,2.25H19.5v3c0,2.068-1.682,3.75-3.75,3.75H8.25z M6,20.25
		c0,1.241,1.009,2.25,2.25,2.25h7.5c1.241,0,2.25-1.009,2.25-2.25v-3H6V20.25z M1.5,15c0,0.414,0.336,0.75,0.75,0.75h19.5
		c0.414,0,0.75-0.336,0.75-0.75v-3h-21V15z M22.5,10.5V6.75h-21v3.75H22.5z M22.5,5.25v-3c0-0.414-0.336-0.75-0.75-0.75H2.25
		C1.836,1.5,1.5,1.836,1.5,2.25v3H22.5z"/>
</g>
</svg>
