<?xml version="1.0" encoding="utf-8"?>
<!-- Generator: Adobe Illustrator 22.1.0, SVG Export Plug-In . SVG Version: 6.00 Build 0)  -->
<svg version="1.1" id="Layer_1" xmlns="http://www.w3.org/2000/svg" xmlns:xlink="http://www.w3.org/1999/xlink" x="0px" y="0px"
	 viewBox="0 0 24 24" style="enable-background:new 0 0 24 24;" xml:space="preserve">
<title>ui-webpage-play-1</title>
<g>
	<path d="M5.25,20.999c-0.2,0-0.389-0.078-0.53-0.22l-1.5-1.5c-0.292-0.292-0.292-0.768,0-1.061l1.5-1.5
		c0.142-0.142,0.33-0.22,0.53-0.22s0.389,0.078,0.53,0.22c0.292,0.292,0.292,0.768,0,1.061l-0.97,0.97l0.97,0.97
		c0.292,0.292,0.292,0.768,0,1.061C5.639,20.92,5.45,20.999,5.25,20.999z"/>
	<path d="M18.75,20.999c-0.2,0-0.389-0.078-0.53-0.22c-0.292-0.292-0.292-0.768,0-1.061l0.97-0.97l-0.97-0.97
		c-0.292-0.292-0.292-0.768,0-1.061c0.142-0.142,0.33-0.22,0.53-0.22s0.389,0.078,0.53,0.22l1.5,1.5
		c0.292,0.292,0.292,0.768,0,1.061l-1.5,1.5C19.139,20.92,18.95,20.999,18.75,20.999z"/>
	<path d="M18,23.249c-0.414,0-0.75-0.336-0.75-0.75s0.336-0.75,0.75-0.75h3.75c0.414,0,0.75-0.336,0.75-0.75v-4.5
		c0-0.414-0.336-0.75-0.75-0.75H18c-0.414,0-0.75-0.336-0.75-0.75s0.336-0.75,0.75-0.75h2.25v-12c0-0.414-0.336-0.75-0.75-0.75h-15
		c-0.414,0-0.75,0.336-0.75,0.75v12H6c0.414,0,0.75,0.336,0.75,0.75s-0.336,0.75-0.75,0.75H2.25c-0.414,0-0.75,0.336-0.75,0.75v4.5
		c0,0.414,0.336,0.75,0.75,0.75H6c0.414,0,0.75,0.336,0.75,0.75s-0.336,0.75-0.75,0.75H2.25c-1.241,0-2.25-1.009-2.25-2.25v-4.5
		c0-1.241,1.009-2.25,2.25-2.25v-12c0-1.241,1.009-2.25,2.25-2.25h15c1.241,0,2.25,1.009,2.25,2.25v12c1.241,0,2.25,1.009,2.25,2.25
		v4.5c0,1.241-1.009,2.25-2.25,2.25H18z"/>
	<path d="M9.771,23.998c-0.302,0-0.591-0.091-0.836-0.263c-0.439-0.317-0.693-0.822-0.685-1.354v-5.776
		c-0.009-0.522,0.244-1.024,0.676-1.336C9.178,15.092,9.469,15,9.772,15c0.248,0,0.493,0.063,0.709,0.184l5.207,2.894
		c0.4,0.247,0.667,0.615,0.768,1.044c0.101,0.429,0.028,0.871-0.204,1.246c-0.134,0.216-0.318,0.4-0.533,0.533l-5.239,2.913
		C10.265,23.934,10.02,23.998,9.771,23.998z M9.777,16.509c-0.017,0.021-0.028,0.052-0.027,0.083v5.8
		c-0.001,0.038,0.01,0.071,0.028,0.095l5.181-2.88c-0.002,0.001-0.003,0.002-0.004,0.002c-0.003,0,0.01-0.014,0.021-0.032
		c0.021-0.035,0.028-0.074,0.019-0.114c-0.009-0.039-0.032-0.071-0.067-0.093L9.777,16.509z"/>
</g>
</svg>
