<svg xmlns="http://www.w3.org/2000/svg" viewBox="0 0 24 24"><title>cell-border-right</title><path d="M4.5,22H2.25a.249.249,0,0,1-.25-.25V19.5a1,1,0,0,0-2,0V22a2,2,0,0,0,2,2H4.5a1,1,0,0,0,0-2Z"/><path d="M4.5,0H2A2,2,0,0,0,0,2V4.5a1,1,0,0,0,2,0V2.247A.25.25,0,0,1,2.25,2H4.5a1,1,0,0,0,0-2Z"/><path d="M15,11H13.25a.249.249,0,0,1-.25-.25V9a1,1,0,0,0-2,0v1.75a.249.249,0,0,1-.25.25H9a1,1,0,0,0,0,2h1.75a.25.25,0,0,1,.25.25V15a1,1,0,0,0,2,0v-1.75a.25.25,0,0,1,.25-.25H15a1,1,0,0,0,0-2Z"/><path d="M15,22H13.25a.249.249,0,0,1-.25-.25V19.5a1,1,0,0,0-2,0v2.25a.249.249,0,0,1-.25.25H9a1,1,0,0,0,0,2h6a1,1,0,0,0,0-2Z"/><path d="M15,0H9A1,1,0,0,0,9,2h1.75a.25.25,0,0,1,.25.25V4.5a1,1,0,0,0,2,0V2.247A.25.25,0,0,1,13.25,2H15a1,1,0,0,0,0-2Z"/><path d="M1,8A1,1,0,0,0,0,9v6a1,1,0,0,0,2,0v-1.75A.25.25,0,0,1,2.25,13H4.5a1,1,0,0,0,0-2H2.25a.249.249,0,0,1-.25-.25V9A1,1,0,0,0,1,8Z"/><path d="M23,0a1,1,0,0,0-1,1V23a1,1,0,0,0,2,0V1A1,1,0,0,0,23,0Z"/><path d="M20,0H18a1,1,0,0,0,0,2h2a1,1,0,0,0,0-2Z"/><path d="M20,11H18a1,1,0,0,0,0,2h2a1,1,0,0,0,0-2Z"/><path d="M20,22H18a1,1,0,0,0,0,2h2a1,1,0,0,0,0-2Z"/></svg>