<?xml version="1.0" encoding="utf-8"?>
<!-- Generator: Adobe Illustrator 22.1.0, SVG Export Plug-In . SVG Version: 6.00 Build 0)  -->
<svg version="1.1" id="Layer_1" xmlns="http://www.w3.org/2000/svg" xmlns:xlink="http://www.w3.org/1999/xlink" x="0px" y="0px"
	 viewBox="0 0 24 24" style="enable-background:new 0 0 24 24;" xml:space="preserve">
<title>vide-document-avi-1</title>
<g>
	<path d="M1.75,24C0.785,24,0,23.215,0,22.25V1.75C0,0.785,0.785,0,1.75,0h20.5C23.215,0,24,0.785,24,1.75v20.5
		c0,0.965-0.785,1.75-1.75,1.75H1.75z M1.75,1.5C1.612,1.5,1.5,1.612,1.5,1.75v20.5c0,0.138,0.112,0.25,0.25,0.25h20.5
		c0.138,0,0.25-0.112,0.25-0.25V1.75c0-0.138-0.112-0.25-0.25-0.25H1.75z"/>
	<path d="M9,18.75c-0.414,0-0.75-0.336-0.75-0.75v-2.25h-1.5V18c0,0.414-0.336,0.75-0.75,0.75S5.25,18.414,5.25,18v-6
		c0-1.241,1.009-2.25,2.25-2.25S9.75,10.759,9.75,12v6C9.75,18.414,9.414,18.75,9,18.75z M8.25,14.25V12
		c0-0.414-0.336-0.75-0.75-0.75S6.75,11.586,6.75,12v2.25H8.25z"/>
	<path d="M13.5,18.75c-0.251,0-0.484-0.125-0.624-0.334c-1.064-1.596-1.626-3.453-1.626-5.37V10.5c0-0.414,0.336-0.75,0.75-0.75
		s0.75,0.336,0.75,0.75v2.546c0,1.184,0.258,2.354,0.75,3.423c0.492-1.069,0.75-2.239,0.75-3.423V10.5c0-0.414,0.336-0.75,0.75-0.75
		s0.75,0.336,0.75,0.75v2.546c0,1.917-0.562,3.775-1.626,5.37C13.984,18.625,13.751,18.75,13.5,18.75z"/>
	<path d="M18,18.75c-0.414,0-0.75-0.336-0.75-0.75v-7.5c0-0.414,0.336-0.75,0.75-0.75s0.75,0.336,0.75,0.75V18
		C18.75,18.414,18.414,18.75,18,18.75z"/>
</g>
</svg>
