<?xml version="1.0" encoding="utf-8"?>
<!-- Generator: Adobe Illustrator 22.1.0, SVG Export Plug-In . SVG Version: 6.00 Build 0)  -->
<svg version="1.1" id="Layer_1" xmlns="http://www.w3.org/2000/svg" xmlns:xlink="http://www.w3.org/1999/xlink" x="0px" y="0px"
	 viewBox="0 0 24 24" style="enable-background:new 0 0 24 24;" xml:space="preserve">
<title>vide-document-mpg-1</title>
<g>
	<path d="M2.25,24C1.009,24,0,22.991,0,21.75V21c0-0.414,0.336-0.75,0.75-0.75S1.5,20.586,1.5,21v0.75c0,0.414,0.336,0.75,0.75,0.75
		h19.5c0.414,0,0.75-0.336,0.75-0.75V21c0-0.414,0.336-0.75,0.75-0.75S24,20.586,24,21v0.75c0,1.241-1.009,2.25-2.25,2.25H2.25z"/>
	<path d="M23.25,8.25c-0.414,0-0.75-0.336-0.75-0.75V2.25c0-0.414-0.336-0.75-0.75-0.75H2.25C1.836,1.5,1.5,1.836,1.5,2.25V7.5
		c0,0.414-0.336,0.75-0.75,0.75S0,7.914,0,7.5V2.25C0,1.009,1.009,0,2.25,0h19.5C22.991,0,24,1.009,24,2.25V7.5
		C24,7.914,23.664,8.25,23.25,8.25z"/>
	<path d="M7.5,18.75c-0.414,0-0.75-0.336-0.75-0.75v-4.792l-0.857,1.428C5.759,14.86,5.512,15,5.25,15s-0.509-0.14-0.643-0.364
		L3.75,13.208V18c0,0.414-0.336,0.75-0.75,0.75S2.25,18.414,2.25,18v-7.5c0-0.336,0.226-0.633,0.55-0.723
		C2.865,9.759,2.932,9.75,3,9.75c0.262,0,0.508,0.139,0.643,0.364l1.607,2.678l1.607-2.678C6.992,9.889,7.239,9.75,7.5,9.75
		c0.067,0,0.135,0.009,0.2,0.027c0.324,0.09,0.55,0.387,0.55,0.723V18C8.25,18.414,7.914,18.75,7.5,18.75z"/>
	<path d="M14.981,18.735c-0.414,0-0.75-0.336-0.75-0.75v-0.75H10.5c-0.222,0-0.431-0.097-0.574-0.267
		c-0.143-0.17-0.203-0.393-0.165-0.612c0.493-2.821,2.32-5.261,4.888-6.529c0.103-0.051,0.218-0.078,0.332-0.078
		c0.14,0,0.277,0.039,0.396,0.113c0.222,0.138,0.354,0.376,0.354,0.637v7.485C15.731,18.399,15.395,18.735,14.981,18.735z
		 M14.231,15.735v-3.909c-1.322,0.962-2.307,2.343-2.783,3.909H14.231z"/>
	<path d="M19.5,18.75c-0.251,0-0.484-0.125-0.624-0.334c-1.064-1.596-1.626-3.453-1.626-5.37V10.5c0-0.414,0.336-0.75,0.75-0.75
		s0.75,0.336,0.75,0.75v2.546c0,1.184,0.258,2.354,0.75,3.423c0.492-1.069,0.75-2.239,0.75-3.423V10.5c0-0.414,0.336-0.75,0.75-0.75
		s0.75,0.336,0.75,0.75v2.546c0,1.917-0.562,3.775-1.626,5.37C19.984,18.625,19.751,18.75,19.5,18.75z"/>
</g>
</svg>
