<?xml version="1.0" encoding="utf-8"?>
<!-- Generator: Adobe Illustrator 22.1.0, SVG Export Plug-In . SVG Version: 6.00 Build 0)  -->
<svg version="1.1" id="Layer_1" xmlns="http://www.w3.org/2000/svg" xmlns:xlink="http://www.w3.org/1999/xlink" x="0px" y="0px"
	 viewBox="0 0 24 24" style="enable-background:new 0 0 24 24;" xml:space="preserve">
<title>vide-document-m4v</title>
<g>
	<path d="M0.75,4.5C0.336,4.5,0,4.164,0,3.75S0.336,3,0.75,3h22.5C23.664,3,24,3.336,24,3.75S23.664,4.5,23.25,4.5H0.75z"/>
	<path d="M0.75,21C0.336,21,0,20.664,0,20.25s0.336-0.75,0.75-0.75h22.5c0.414,0,0.75,0.336,0.75,0.75S23.664,21,23.25,21H0.75z"/>
	<path d="M8.25,16.5c-0.414,0-0.75-0.336-0.75-0.75v-4.792l-0.857,1.428C6.508,12.611,6.262,12.75,6,12.75s-0.508-0.139-0.643-0.364
		L4.5,10.958v4.792c0,0.414-0.336,0.75-0.75,0.75S3,16.164,3,15.75v-7.5c0-0.336,0.226-0.633,0.55-0.723
		C3.616,7.509,3.683,7.5,3.75,7.5c0.262,0,0.508,0.139,0.643,0.364L6,10.542l1.607-2.678C7.742,7.64,7.989,7.5,8.251,7.5
		c0.067,0,0.134,0.009,0.198,0.026C8.774,7.617,9,7.914,9,8.25v7.5C9,16.164,8.664,16.5,8.25,16.5z"/>
	<path d="M12.75,16.5c-1.241,0-2.25-1.009-2.25-2.25v-4.5c0-1.241,1.009-2.25,2.25-2.25C13.991,7.5,15,8.509,15,9.75v4.5
		C15,15.491,13.991,16.5,12.75,16.5z M12.75,9C12.336,9,12,9.336,12,9.75v4.5c0,0.414,0.336,0.75,0.75,0.75s0.75-0.336,0.75-0.75
		v-4.5C13.5,9.336,13.164,9,12.75,9z"/>
	<path d="M18.75,16.504c-0.251,0-0.484-0.125-0.624-0.334c-1.064-1.596-1.626-3.453-1.626-5.37V8.25c0-0.414,0.336-0.75,0.75-0.75
		S18,7.836,18,8.25v2.55c0,1.184,0.258,2.354,0.75,3.423c0.492-1.069,0.75-2.239,0.75-3.423V8.25c0-0.414,0.336-0.75,0.75-0.75
		S21,7.836,21,8.25v2.55c0,1.917-0.562,3.774-1.626,5.37C19.234,16.379,19.001,16.504,18.75,16.504z"/>
</g>
</svg>
