<?xml version="1.0" encoding="utf-8"?>
<!-- Generator: Adobe Illustrator 22.1.0, SVG Export Plug-In . SVG Version: 6.00 Build 0)  -->
<svg version="1.1" id="Layer_1" xmlns="http://www.w3.org/2000/svg" xmlns:xlink="http://www.w3.org/1999/xlink" x="0px" y="0px"
	 viewBox="0 0 24 24" style="enable-background:new 0 0 24 24;" xml:space="preserve">
<title>vide-document-mp4</title>
<g>
	<path d="M1.5,4.5c-0.414,0-0.75-0.336-0.75-0.75S1.086,3,1.5,3h21c0.414,0,0.75,0.336,0.75,0.75S22.914,4.5,22.5,4.5H1.5z"/>
	<path d="M1.5,21c-0.414,0-0.75-0.336-0.75-0.75S1.086,19.5,1.5,19.5h21c0.414,0,0.75,0.336,0.75,0.75S22.914,21,22.5,21H1.5z"/>
	<path d="M7.5,16.5c-0.414,0-0.75-0.336-0.75-0.75v-4.792l-0.857,1.428C5.758,12.611,5.512,12.75,5.25,12.75
		s-0.508-0.139-0.643-0.364L3.75,10.958v4.792c0,0.414-0.336,0.75-0.75,0.75s-0.75-0.336-0.75-0.75v-7.5
		c0-0.336,0.226-0.633,0.55-0.723C2.866,7.509,2.932,7.5,3,7.5c0.262,0,0.509,0.139,0.643,0.364l1.607,2.678l1.607-2.678
		C6.992,7.64,7.239,7.5,7.501,7.5c0.067,0,0.134,0.009,0.198,0.027C8.024,7.617,8.25,7.914,8.25,8.25v7.5
		C8.25,16.164,7.914,16.5,7.5,16.5z"/>
	<path d="M10.5,16.5c-0.414,0-0.75-0.336-0.75-0.75v-7.5c0-0.414,0.336-0.75,0.75-0.75h0.75c1.654,0,3,1.346,3,3s-1.346,3-3,3v2.25
		C11.25,16.164,10.914,16.5,10.5,16.5z M11.25,12c0.827,0,1.5-0.673,1.5-1.5S12.077,9,11.25,9V12z"/>
	<path d="M20.981,16.5c-0.414,0-0.75-0.336-0.75-0.75V15H16.5c-0.222,0-0.432-0.098-0.574-0.268
		c-0.143-0.169-0.203-0.392-0.164-0.611c0.493-2.821,2.32-5.262,4.888-6.529c0.103-0.051,0.217-0.078,0.332-0.078
		c0.14,0,0.277,0.039,0.396,0.113c0.221,0.138,0.354,0.376,0.354,0.637v7.485C21.731,16.164,21.395,16.5,20.981,16.5z M20.231,13.5
		V9.591c-1.322,0.962-2.307,2.343-2.783,3.909H20.231z"/>
</g>
</svg>
