<?xml version="1.0" encoding="utf-8"?>
<!-- Generator: Adobe Illustrator 22.1.0, SVG Export Plug-In . SVG Version: 6.00 Build 0)  -->
<svg version="1.1" id="Layer_1" xmlns="http://www.w3.org/2000/svg" xmlns:xlink="http://www.w3.org/1999/xlink" x="0px" y="0px"
	 viewBox="0 0 24 24" style="enable-background:new 0 0 24 24;" xml:space="preserve">
<title>vide-document-mov</title>
<g>
	<path d="M0.75,4.5C0.336,4.5,0,4.164,0,3.75S0.336,3,0.75,3h22.5C23.664,3,24,3.336,24,3.75S23.664,4.5,23.25,4.5H0.75z"/>
	<path d="M0.75,21C0.336,21,0,20.664,0,20.25s0.336-0.75,0.75-0.75h22.5c0.414,0,0.75,0.336,0.75,0.75S23.664,21,23.25,21H0.75z"/>
	<path d="M8.25,16.5c-0.414,0-0.75-0.336-0.75-0.75v-4.792l-0.857,1.428C6.508,12.611,6.262,12.75,6,12.75s-0.508-0.139-0.643-0.364
		L4.5,10.958v4.792c0,0.414-0.336,0.75-0.75,0.75S3,16.164,3,15.75v-7.5c0-0.336,0.226-0.633,0.55-0.723
		C3.616,7.509,3.683,7.5,3.75,7.5c0.262,0,0.508,0.139,0.643,0.364L6,10.542l1.607-2.678C7.742,7.64,7.989,7.5,8.251,7.5
		c0.067,0,0.134,0.009,0.198,0.026C8.774,7.617,9,7.914,9,8.25v7.5C9,16.164,8.664,16.5,8.25,16.5z"/>
	<path d="M11.25,16.5c-0.414,0-0.75-0.336-0.75-0.75v-7.5c0-0.414,0.336-0.75,0.75-0.75H12c1.654,0,3,1.346,3,3s-1.346,3-3,3v2.25
		C12,16.164,11.664,16.5,11.25,16.5z M12,12c0.827,0,1.5-0.673,1.5-1.5S12.827,9,12,9V12z"/>
	<path d="M18.75,16.5c-1.241,0-2.25-1.009-2.25-2.25v-4.5c0-1.241,1.009-2.25,2.25-2.25h1.5C20.664,7.5,21,7.836,21,8.25
		S20.664,9,20.25,9h-1.5C18.336,9,18,9.336,18,9.75v4.5c0,0.414,0.336,0.75,0.75,0.75s0.75-0.336,0.75-0.75V13.5
		c-0.414,0-0.75-0.336-0.75-0.75S19.086,12,19.5,12h0.75c0.414,0,0.75,0.336,0.75,0.75v1.5C21,15.491,19.991,16.5,18.75,16.5z"/>
</g>
</svg>
