<svg id="Regular" xmlns="http://www.w3.org/2000/svg" viewBox="0 0 24 24"><defs><style>.cls-1{fill:none;stroke:currentColor;stroke-linecap:round;stroke-linejoin:round;stroke-width:1.5px;}</style></defs><title>multiple-man-woman-1</title><path class="cls-1" d="M.75,20.25a6.75,6.75,0,0,1,13.5,0"/><path class="cls-1" d="M3.945,5.781a6.857,6.857,0,0,0,7.642,1.536"/><circle class="cls-1" cx="7.5" cy="7.875" r="4.125"/><path class="cls-1" d="M15,13.667a6.757,6.757,0,0,1,8.25,6.583"/><path class="cls-1" d="M14.251,4.416a4.125,4.125,0,1,1,.756,7.305"/><path class="cls-1" d="M20.612,8.2l.011.778a5.9,5.9,0,0,0,.86,3.272"/><path class="cls-1" d="M14.247,7.867A5.56,5.56,0,0,0,16.5,6.305a5.483,5.483,0,0,0,4.112,1.9"/></svg>