<?xml version="1.0" encoding="utf-8"?>
<!-- Generator: Adobe Illustrator 22.1.0, SVG Export Plug-In . SVG Version: 6.00 Build 0)  -->
<svg version="1.1" id="Layer_1" xmlns="http://www.w3.org/2000/svg" xmlns:xlink="http://www.w3.org/1999/xlink" x="0px" y="0px"
	 viewBox="0 0 24 24" style="enable-background:new 0 0 24 24;" xml:space="preserve">
<title>hyperlink</title>
<g>
	<path d="M5.25,17.75C2.355,17.75,0,15.395,0,12.5c0-2.895,2.355-5.25,5.25-5.25h1.5c1.487,0.003,2.905,0.641,3.893,1.752
		c0.275,0.309,0.247,0.784-0.062,1.059c-0.138,0.122-0.315,0.189-0.498,0.189c-0.214,0-0.418-0.092-0.561-0.252
		C8.818,9.207,7.807,8.752,6.749,8.75H5.25c-2.068,0-3.75,1.682-3.75,3.75c0,2.068,1.682,3.75,3.75,3.75h1.5
		c1.057-0.002,2.068-0.458,2.772-1.249c0.142-0.16,0.346-0.251,0.56-0.251c0.184,0,0.361,0.067,0.499,0.19
		c0.309,0.275,0.337,0.75,0.062,1.059c-0.987,1.11-2.405,1.748-3.891,1.751C6.751,17.75,5.25,17.75,5.25,17.75z"/>
	<path d="M17.25,17.75c-1.487-0.003-2.905-0.642-3.893-1.751c-0.275-0.309-0.247-0.784,0.062-1.059
		c0.138-0.122,0.315-0.189,0.499-0.189c0.214,0,0.418,0.092,0.56,0.251c0.704,0.792,1.715,1.247,2.773,1.249h1.499
		c2.068,0,3.75-1.682,3.75-3.75c0-2.068-1.682-3.75-3.75-3.75h-1.5c-1.058,0.002-2.068,0.457-2.771,1.248
		c-0.142,0.16-0.346,0.252-0.561,0.252c-0.184,0-0.361-0.067-0.498-0.189c-0.15-0.133-0.239-0.316-0.25-0.516
		c-0.012-0.2,0.055-0.393,0.188-0.543c0.987-1.11,2.405-1.749,3.891-1.752h1.501c2.895,0,5.25,2.355,5.25,5.25
		c0,2.895-2.355,5.25-5.25,5.25H17.25z"/>
	<path d="M6.75,13.249c-0.414,0-0.75-0.336-0.75-0.75s0.336-0.75,0.75-0.75h10.5c0.414,0,0.75,0.336,0.75,0.75
		s-0.336,0.75-0.75,0.75H6.75z"/>
</g>
</svg>
