<?xml version="1.0" encoding="utf-8"?>
<!-- Generator: Adobe Illustrator 22.1.0, SVG Export Plug-In . SVG Version: 6.00 Build 0)  -->
<svg version="1.1" id="Layer_1" xmlns="http://www.w3.org/2000/svg" xmlns:xlink="http://www.w3.org/1999/xlink" x="0px" y="0px"
	 viewBox="0 0 24 24" style="enable-background:new 0 0 24 24;" xml:space="preserve">
<title>link-broken-1</title>
<g>
	<path d="M18.543,16.503c-0.066,0-0.132-0.001-0.199-0.004l-1.844,0c-0.414,0-0.75-0.336-0.75-0.75s0.336-0.75,0.75-0.75h1.875
		c0.061,0.002,0.105,0.003,0.15,0.003h0c1.701,0,3.113-1.317,3.223-3.002c-0.11-1.686-1.51-3.004-3.198-3.004
		c-0.048,0-0.096,0.001-0.144,0.003L16.5,9c-0.414,0-0.75-0.336-0.75-0.75S16.087,7.5,16.5,7.5h1.875
		c0.05-0.002,0.115-0.004,0.18-0.004c2.5,0,4.562,1.961,4.694,4.464c0.001,0.026,0.001,0.053,0,0.08
		C23.116,14.542,21.049,16.502,18.543,16.503L18.543,16.503z"/>
	<path d="M5.443,16.503c-2.498,0-4.558-1.96-4.692-4.463c-0.001-0.027-0.001-0.052,0-0.077c0.133-2.506,2.197-4.467,4.7-4.467
		c0.068,0,0.137,0.001,0.207,0.005L7.5,7.5c0.414,0,0.75,0.336,0.75,0.75S7.914,9,7.5,9H5.625C5.563,8.998,5.517,8.997,5.471,8.997
		c-1.7,0-3.11,1.317-3.22,3.003c0.11,1.686,1.512,3.003,3.201,3.003c0.047,0,0.093-0.001,0.14-0.003l1.907,0
		c0.414,0,0.75,0.336,0.75,0.75s-0.336,0.75-0.75,0.75H5.625C5.575,16.502,5.509,16.503,5.443,16.503L5.443,16.503z"/>
	<path d="M12,5.999c-0.414,0-0.75-0.336-0.75-0.75v-4.5c0-0.414,0.336-0.75,0.75-0.75s0.75,0.336,0.75,0.75v4.5
		C12.75,5.663,12.414,5.999,12,5.999z"/>
	<path d="M9,5.999c-0.2,0-0.389-0.078-0.53-0.22l-1.5-1.5c-0.142-0.141-0.22-0.33-0.22-0.53s0.078-0.389,0.22-0.53
		c0.141-0.142,0.33-0.22,0.53-0.22s0.389,0.078,0.53,0.22l1.5,1.5c0.142,0.141,0.22,0.33,0.22,0.53s-0.078,0.389-0.22,0.53
		C9.389,5.921,9.201,5.999,9,5.999z"/>
	<path d="M15,5.999c-0.2,0-0.389-0.078-0.53-0.22c-0.142-0.141-0.22-0.33-0.22-0.53s0.078-0.389,0.22-0.53l1.5-1.5
		c0.142-0.142,0.33-0.22,0.53-0.22s0.389,0.078,0.53,0.22c0.142,0.141,0.22,0.33,0.22,0.53s-0.078,0.389-0.22,0.53l-1.5,1.5
		C15.389,5.921,15.2,5.999,15,5.999z"/>
	<path d="M12,23.999c-0.414,0-0.75-0.336-0.75-0.75v-4.5c0-0.414,0.336-0.75,0.75-0.75s0.75,0.336,0.75,0.75v4.5
		C12.75,23.663,12.414,23.999,12,23.999z"/>
	<path d="M7.5,20.999c-0.2,0-0.389-0.078-0.53-0.22c-0.292-0.292-0.292-0.768,0-1.061l1.5-1.5c0.142-0.142,0.33-0.22,0.53-0.22
		s0.389,0.078,0.53,0.22c0.292,0.292,0.292,0.768,0,1.061l-1.5,1.5C7.889,20.921,7.701,20.999,7.5,20.999z"/>
	<path d="M16.5,20.999c-0.2,0-0.389-0.078-0.53-0.22l-1.5-1.5c-0.292-0.292-0.292-0.768,0-1.061c0.142-0.142,0.33-0.22,0.53-0.22
		s0.389,0.078,0.53,0.22l1.5,1.5c0.292,0.292,0.292,0.768,0,1.061C16.889,20.921,16.7,20.999,16.5,20.999z"/>
</g>
</svg>
