<svg xmlns="http://www.w3.org/2000/svg" viewBox="0 0 24 24"><defs><style>.a{fill:none;stroke:currentColor;stroke-linecap:round;stroke-linejoin:round;}</style></defs><title>house-signal</title><path class="a" d="M7.5,18.5V23a.5.5,0,0,0,.5.5h8a.5.5,0,0,0,.5-.5V18.5"/><polyline class="a" points="4.5 17 12 10.5 19.5 17"/><path class="a" d="M15.5,10.5H17a.5.5,0,0,1,.5.5v1.5"/><path class="a" d="M13.5,20a.5.5,0,0,0-.5-.5H11a.5.5,0,0,0-.5.5v3.5h3Z"/><path class="a" d="M15.409,7.5a4.918,4.918,0,0,0-6.818,0"/><path class="a" d="M17.455,5.511a7.869,7.869,0,0,0-10.91,0"/><path class="a" d="M19.5,3.521a10.82,10.82,0,0,0-15,0"/></svg>