<svg xmlns="http://www.w3.org/2000/svg" viewBox="0 0 24 24"><title>direction-button-square-alternate</title><path d="M22,0H2A2,2,0,0,0,0,2V22a2,2,0,0,0,2,2H22a2,2,0,0,0,2-2V2A2,2,0,0,0,22,0Zm0,21.5a.5.5,0,0,1-.5.5H2.5a.5.5,0,0,1-.5-.5V2.5A.5.5,0,0,1,2.5,2h19a.5.5,0,0,1,.5.5Z"/><path d="M9.5,7.5h5a.5.5,0,0,0,.384-.82l-2.5-3a.517.517,0,0,0-.768,0l-2.5,3A.5.5,0,0,0,9.5,7.5Z"/><path d="M11.616,20.32a.5.5,0,0,0,.768,0l2.5-3a.5.5,0,0,0-.384-.82h-5a.5.5,0,0,0-.384.82Z"/><path d="M16.788,14.953a.5.5,0,0,0,.532-.069l3-2.5a.5.5,0,0,0,0-.768l-3-2.5a.5.5,0,0,0-.82.384v5A.5.5,0,0,0,16.788,14.953Z"/><path d="M6.68,14.884A.5.5,0,0,0,7.5,14.5v-5a.5.5,0,0,0-.82-.384l-3,2.5a.5.5,0,0,0,0,.768Z"/></svg>