<svg xmlns="http://www.w3.org/2000/svg" viewBox="0 0 24 24"><title>direction-button-2</title><circle cx="12" cy="11.987" r="2.5"/><path d="M12.8.387a1.036,1.036,0,0,0-1.6,0l-3,4a1,1,0,0,0,.8,1.6h6a1,1,0,0,0,.8-1.6Z"/><path d="M5.447,8.092A1,1,0,0,0,4.4,8.187l-4,3a1,1,0,0,0,0,1.6l4,3a1,1,0,0,0,1.6-.8v-6A1,1,0,0,0,5.447,8.092Z"/><path d="M15,17.987H9a1,1,0,0,0-.8,1.6l3,4a1,1,0,0,0,1.6,0l3-4a1,1,0,0,0-.8-1.6Z"/><path d="M23.6,11.187l-4-3a1,1,0,0,0-1.6.8v6a1,1,0,0,0,1.6.8l4-3a1,1,0,0,0,0-1.6Z"/></svg>