<svg xmlns="http://www.w3.org/2000/svg" viewBox="0 0 24 24"><defs><style>.a{fill:none;stroke:currentColor;stroke-linecap:round;stroke-linejoin:round;}</style></defs><title>video-edit-camera-measure</title><path class="a" d="M17.506,8V4.182a1.67,1.67,0,0,0-1.5-1.682H13.019a.5.5,0,0,1-.338-.131L10.785.631A.5.5,0,0,0,10.448.5H7.565a.5.5,0,0,0-.338.131l-1.9,1.738a.5.5,0,0,1-.337.131H2.006a1.671,1.671,0,0,0-1.5,1.682V13a1.5,1.5,0,0,0,1.5,1.5h10.5"/><circle class="a" cx="9.006" cy="8" r="3.5"/><path class="a" d="M3.256,5.5a.25.25,0,1,1-.25.25.25.25,0,0,1,.25-.25"/><path class="a" d="M23.494,11.5h-8a1,1,0,0,0,0,2h2.5l2.5-2"/><line class="a" x1="16.494" y1="11.5" x2="16.494" y2="10.5"/><path class="a" d="M23.494,19.5h-8a1,1,0,0,1,0-2h2.5l2.5,2"/><line class="a" x1="16.494" y1="19.5" x2="16.494" y2="20.5"/><line class="a" x1="20.494" y1="13.5" x2="23.494" y2="13.5"/><line class="a" x1="20.494" y1="15.5" x2="23.494" y2="15.5"/><line class="a" x1="20.494" y1="17.5" x2="23.494" y2="17.5"/><line class="a" x1="22.494" y1="19.5" x2="22.494" y2="23.5"/><line class="a" x1="22.494" y1="22.5" x2="20.494" y2="22.5"/></svg>