<svg xmlns="http://www.w3.org/2000/svg" viewBox="0 0 24 24"><defs><style>.a{fill:none;stroke:currentColor;stroke-linecap:round;stroke-linejoin:round;}</style></defs><title>video-edit-split</title><path class="a" d="M14,21.5h8a1,1,0,0,0,1-1V7.5a1,1,0,0,0-1-1H14"/><path class="a" d="M10,6.5H2a1,1,0,0,0-1,1v13a1,1,0,0,0,1,1h8"/><polyline class="a" points="23 18.5 15 18.5 15 9.5 23 9.5"/><line class="a" x1="19" y1="9.5" x2="19" y2="6.5"/><line class="a" x1="15" y1="10" x2="15" y2="6.5"/><line class="a" x1="19" y1="21.5" x2="19" y2="18.5"/><line class="a" x1="15" y1="21.5" x2="15" y2="18.5"/><polyline class="a" points="1 9.5 9 9.5 9 18.5 1 18.5"/><line class="a" x1="9" y1="9.5" x2="9" y2="6.5"/><line class="a" x1="5" y1="9.5" x2="5" y2="6.5"/><line class="a" x1="5" y1="21.5" x2="5" y2="18.5"/><line class="a" x1="9" y1="21.5" x2="9" y2="18.5"/><line class="a" x1="12" y1="4.5" x2="12" y2="7"/><line class="a" x1="12" y1="10" x2="12" y2="12.5"/><line class="a" x1="12" y1="15.5" x2="12" y2="18"/><line class="a" x1="12" y1="21" x2="12" y2="23.5"/><polygon class="a" points="10 0.5 12 4.5 14 0.5 10 0.5"/></svg>