<svg xmlns="http://www.w3.org/2000/svg" viewBox="0 0 24 24"><defs><style>.a{fill:none;stroke:currentColor;stroke-linecap:round;stroke-linejoin:round;}</style></defs><title>camera-glasses</title><path class="a" d="M3.169,18a4.183,4.183,0,0,0,7.56,1.034l.741-1.186a1.8,1.8,0,0,1,3.06,0l.741,1.186A4.182,4.182,0,0,0,23,16.818V12H3v2"/><rect class="a" x="1" y="14" width="5" height="4" rx="1" ry="1"/><polyline class="a" points="6 15 9 15 9 17 6 17"/><path class="a" d="M3,12,6.188,4.828A3.077,3.077,0,0,1,9,3h1"/><path class="a" d="M23,12,19.812,4.828A3.077,3.077,0,0,0,17,3H16"/><path class="a" d="M3.25,15.751A.25.25,0,1,1,3,16a.25.25,0,0,1,.25-.25"/></svg>