<svg xmlns="http://www.w3.org/2000/svg" viewBox="0 0 24 24"><title>video-edit-camera-measure</title><circle cx="5.5" cy="5" r="2"/><path d="M19,2a2,2,0,0,0-2-2H2A2,2,0,0,0,0,2V17a2,2,0,0,0,2,2h9.25a.25.25,0,0,0,.25-.25V8.329a.252.252,0,0,0-.12-.214A.77.77,0,0,0,11,8a.943.943,0,0,0-.868.664l-1.592,3.5a.25.25,0,0,1-.42.056L7.024,10.908a1.163,1.163,0,0,0-1.967.153L3.066,14.379a.251.251,0,0,1-.215.121h-.6A.25.25,0,0,1,2,14.25V2.5A.5.5,0,0,1,2.5,2h14a.5.5,0,0,1,.5.5V7.25a.25.25,0,0,0,.25.25h1.5A.25.25,0,0,0,19,7.25Z"/><path d="M24,12a1,1,0,0,0-1-1H17.25a.25.25,0,0,1-.25-.25V10.5a1,1,0,0,0-2,0v.25a.25.25,0,0,1-.25.25,1.75,1.75,0,0,0,0,3.5H17.5a.754.754,0,0,0,.469-.164l1.6-1.281A.246.246,0,0,1,19.731,13H23A1,1,0,0,0,24,12Z"/><path d="M23,14.5H20a1,1,0,0,0,0,2h3a1,1,0,0,0,0-2Z"/><path d="M22.75,20.25A.25.25,0,0,1,23,20a1,1,0,0,0,0-2H19.726a.245.245,0,0,1-.156-.055l-1.6-1.281A.754.754,0,0,0,17.5,16.5H14.75a1.75,1.75,0,0,0,0,3.5.25.25,0,0,1,.25.25v.25a1,1,0,0,0,2,0v-.25a.25.25,0,0,1,.25-.25H20.5a.25.25,0,0,1,.25.25v.5a.25.25,0,0,1-.25.25h-.75a1,1,0,0,0,0,2h.775a.25.25,0,0,1,.245.2,1,1,0,0,0,1.846.3,1,1,0,0,0,.134-.5Z"/></svg>