<svg xmlns="http://www.w3.org/2000/svg" viewBox="0 0 24 24"><defs><style>.a{fill:none;stroke:currentColor;stroke-linecap:round;stroke-linejoin:round;}</style></defs><title>server-share</title><path class="a" d="M21.5,4.5a2,2,0,0,1-2,2H2.5a2,2,0,0,1-2-2v-2a2,2,0,0,1,2-2h17a2,2,0,0,1,2,2Z"/><path class="a" d="M2.5,12.5a2,2,0,0,1-2-2v-2a2,2,0,0,1,2-2h17a2,2,0,0,1,2,2V10"/><path class="a" d="M4.75,3.25A.25.25,0,1,0,5,3.5a.25.25,0,0,0-.25-.25h0"/><path class="a" d="M8.25,3.25a.25.25,0,1,0,.25.25.25.25,0,0,0-.25-.25h0"/><path class="a" d="M4.75,9.25A.25.25,0,1,0,5,9.5a.25.25,0,0,0-.25-.25h0"/><path class="a" d="M8.25,9.25a.25.25,0,1,0,.25.25.25.25,0,0,0-.25-.25h0"/><path class="a" d="M9,18.5H2.5a2,2,0,0,1-2-2v-2a2,2,0,0,1,2-2h13"/><path class="a" d="M4.75,15.25A.25.25,0,1,0,5,15.5a.25.25,0,0,0-.25-.25h0"/><path class="a" d="M8.25,15.25a.25.25,0,1,0,.25.25.25.25,0,0,0-.25-.25h0"/><circle class="a" cx="13.75" cy="18.25" r="2.25"/><circle class="a" cx="21.25" cy="21.25" r="2.25"/><circle class="a" cx="21.25" cy="13.75" r="2.25"/><line class="a" x1="15.675" y1="17.095" x2="19.325" y2="14.905"/><line class="a" x1="15.838" y1="19.085" x2="19.162" y2="20.415"/></svg>