<svg xmlns="http://www.w3.org/2000/svg" viewBox="0 0 24 24"><defs><style>.a{fill:none;stroke:currentColor;stroke-linecap:round;stroke-linejoin:round;}</style></defs><title>server-warning-1</title><path class="a" d="M17.5,20.5a.25.25,0,1,0,.25.25.25.25,0,0,0-.25-.25h0"/><line class="a" x1="17.5" y1="18.5" x2="17.5" y2="15.5"/><path class="a" d="M18.338,12.5a.95.95,0,0,0-1.676,0l-5.056,9.634a.923.923,0,0,0,.031.914.947.947,0,0,0,.807.449H22.556a.948.948,0,0,0,.807-.448.923.923,0,0,0,.031-.914Z"/><line class="a" x1="5.5" y1="20.5" x2="8.5" y2="20.5"/><line class="a" x1="8.501" y1="15.5" x2="8.501" y2="20.5"/><path class="a" d="M3.25,20a.25.25,0,1,0,.25.25A.25.25,0,0,0,3.25,20h0"/><path class="a" d="M.75,20a.25.25,0,1,0,.25.25A.25.25,0,0,0,.75,20h0"/><path class="a" d="M4.25,12.75A.25.25,0,1,0,4.5,13a.25.25,0,0,0-.25-.25h0"/><path class="a" d="M6.75,12.75A.25.25,0,1,0,7,13a.25.25,0,0,0-.25-.25h0"/><path class="a" d="M14.5,10.5H3a2.5,2.5,0,0,0,0,5h8.5"/><path class="a" d="M4.25,7.75A.25.25,0,1,0,4.5,8a.25.25,0,0,0-.25-.25h0"/><path class="a" d="M6.75,7.75A.25.25,0,1,0,7,8a.25.25,0,0,0-.25-.25h0"/><path class="a" d="M17.5,8A2.5,2.5,0,0,0,15,5.5H3a2.5,2.5,0,0,0,0,5H14.5"/><path class="a" d="M4.25,2.75A.25.25,0,1,0,4.5,3a.25.25,0,0,0-.25-.25h0"/><path class="a" d="M6.75,2.75A.25.25,0,1,0,7,3a.25.25,0,0,0-.25-.25h0"/><path class="a" d="M17.5,3A2.5,2.5,0,0,0,15,.5H3a2.5,2.5,0,0,0,0,5H15A2.5,2.5,0,0,0,17.5,3Z"/></svg>