<svg xmlns="http://www.w3.org/2000/svg" viewBox="0 0 24 24"><defs><style>.a{fill:none;stroke:currentColor;stroke-linecap:round;stroke-linejoin:round;}</style></defs><title>server-heart</title><path class="a" d="M21.5,4.5a2,2,0,0,1-2,2H2.5a2,2,0,0,1-2-2v-2a2,2,0,0,1,2-2h17a2,2,0,0,1,2,2Z"/><path class="a" d="M2.5,12.5a2,2,0,0,1-2-2v-2a2,2,0,0,1,2-2h17a2,2,0,0,1,2,2v2"/><path class="a" d="M4.75,3.25A.25.25,0,1,0,5,3.5a.25.25,0,0,0-.25-.25h0"/><path class="a" d="M8.25,3.25a.25.25,0,1,0,.25.25.25.25,0,0,0-.25-.25h0"/><path class="a" d="M4.75,9.25A.25.25,0,1,0,5,9.5a.25.25,0,0,0-.25-.25h0"/><path class="a" d="M8.25,9.25a.25.25,0,1,0,.25.25.25.25,0,0,0-.25-.25h0"/><path class="a" d="M9,18.5H2.5a2,2,0,0,1-2-2v-2a2,2,0,0,1,2-2h8"/><path class="a" d="M4.75,15.25A.25.25,0,1,0,5,15.5a.25.25,0,0,0-.25-.25h0"/><path class="a" d="M8.25,15.25a.25.25,0,1,0,.25.25.25.25,0,0,0-.25-.25h0"/><path class="a" d="M17.5,23.5l-5.113-5.335a3.026,3.026,0,0,1-.567-3.492h0a3.026,3.026,0,0,1,4.846-.786l.834.836.835-.835a3.025,3.025,0,0,1,4.845.786h0a3.026,3.026,0,0,1-.567,3.492Z"/></svg>