<svg xmlns="http://www.w3.org/2000/svg" viewBox="0 0 24 24"><defs><style>.a{fill:none;stroke:currentColor;stroke-linecap:round;stroke-linejoin:round;}</style></defs><title>server-choose</title><path class="a" d="M8.25,11.75A.25.25,0,1,0,8.5,12a.25.25,0,0,0-.25-.25h0"/><path class="a" d="M10.75,11.75A.25.25,0,1,0,11,12a.25.25,0,0,0-.25-.25h0"/><path class="a" d="M19.5,12A2.5,2.5,0,0,0,17,9.5H7a2.5,2.5,0,0,0,0,5H17A2.5,2.5,0,0,0,19.5,12Z"/><path class="a" d="M8.25,16.75A.25.25,0,1,0,8.5,17a.25.25,0,0,0-.25-.25h0"/><path class="a" d="M10.75,16.75A.25.25,0,1,0,11,17a.25.25,0,0,0-.25-.25h0"/><path class="a" d="M19.5,17A2.5,2.5,0,0,0,17,14.5H7a2.5,2.5,0,0,0,0,5H17A2.5,2.5,0,0,0,19.5,17Z"/><path class="a" d="M8.25,6.75A.25.25,0,1,0,8.5,7a.25.25,0,0,0-.25-.25h0"/><path class="a" d="M10.75,6.75A.25.25,0,1,0,11,7a.25.25,0,0,0-.25-.25h0"/><path class="a" d="M19.5,7A2.5,2.5,0,0,0,17,4.5H7a2.5,2.5,0,0,0,0,5H17A2.5,2.5,0,0,0,19.5,7Z"/><path class="a" d="M21.5,18a2,2,0,0,0,0-4,2,2,0,0,0,0-4,2,2,0,0,0,0-4"/><path class="a" d="M2.5,18a2,2,0,0,1,0-4,2,2,0,0,1,0-4,2,2,0,0,1,0-4"/></svg>