<svg xmlns="http://www.w3.org/2000/svg" viewBox="0 0 24 24"><defs><style>.a{fill:none;stroke:currentColor;stroke-linecap:round;stroke-linejoin:round;}</style></defs><title>server-settings-1</title><circle class="a" cx="17.75" cy="17.031" r="1.438"/><path class="a" d="M18.971,11.47l.424,1.392a.951.951,0,0,0,1.125.653l1.411-.327a1.283,1.283,0,0,1,1.221,2.126l-.988,1.064a.96.96,0,0,0,0,1.3l.987,1.065a1.283,1.283,0,0,1-1.221,2.126l-1.411-.327A.951.951,0,0,0,19.4,21.2l-.424,1.392a1.275,1.275,0,0,1-2.442,0L16.105,21.2a.951.951,0,0,0-1.125-.653l-1.411.327a1.283,1.283,0,0,1-1.221-2.126l.987-1.065a.96.96,0,0,0,0-1.3l-.987-1.065a1.283,1.283,0,0,1,1.221-2.126l1.411.327a.952.952,0,0,0,1.125-.653l.424-1.392A1.275,1.275,0,0,1,18.971,11.47Z"/><line class="a" x1="5.5" y1="20.5" x2="8.5" y2="20.5"/><line class="a" x1="8.501" y1="15.5" x2="8.501" y2="20.5"/><path class="a" d="M3.25,20a.25.25,0,1,0,.25.25A.25.25,0,0,0,3.25,20h0"/><path class="a" d="M.75,20a.25.25,0,1,0,.25.25A.25.25,0,0,0,.75,20h0"/><path class="a" d="M4.25,12.75A.25.25,0,1,0,4.5,13a.25.25,0,0,0-.25-.25h0"/><path class="a" d="M6.75,12.75A.25.25,0,1,0,7,13a.25.25,0,0,0-.25-.25h0"/><path class="a" d="M12.5,10.5H3a2.5,2.5,0,0,0,0,5H9.5"/><path class="a" d="M4.25,7.75A.25.25,0,1,0,4.5,8a.25.25,0,0,0-.25-.25h0"/><path class="a" d="M6.75,7.75A.25.25,0,1,0,7,8a.25.25,0,0,0-.25-.25h0"/><path class="a" d="M17.5,8A2.5,2.5,0,0,0,15,5.5H3a2.5,2.5,0,0,0,0,5h9.5"/><path class="a" d="M4.25,2.75A.25.25,0,1,0,4.5,3a.25.25,0,0,0-.25-.25h0"/><path class="a" d="M6.75,2.75A.25.25,0,1,0,7,3a.25.25,0,0,0-.25-.25h0"/><path class="a" d="M17.5,3A2.5,2.5,0,0,0,15,.5H3a2.5,2.5,0,0,0,0,5H15A2.5,2.5,0,0,0,17.5,3Z"/></svg>