<?xml version="1.0" encoding="utf-8"?>
<!-- Generator: Adobe Illustrator 22.1.0, SVG Export Plug-In . SVG Version: 6.00 Build 0)  -->
<svg version="1.1" id="Light" xmlns="http://www.w3.org/2000/svg" xmlns:xlink="http://www.w3.org/1999/xlink" x="0px" y="0px"
	 viewBox="0 0 24 24" style="enable-background:new 0 0 24 24;" xml:space="preserve">
<g>
	<title>single-man-actions-music</title>
	<path d="M13.5,24c-1.379,0-2.5-1.122-2.5-2.5s1.121-2.5,2.5-2.5c0.549,0,1.072,0.178,1.5,0.501V13.83
		c0-0.722,0.515-1.342,1.224-1.475l6-1.125c0.092-0.017,0.185-0.026,0.276-0.026c0.827,0,1.5,0.673,1.5,1.5V19.5
		c0,1.378-1.122,2.5-2.5,2.5S19,20.878,19,19.5s1.122-2.5,2.5-2.5c0.549,0,1.072,0.178,1.5,0.501v-4.796c0-0.276-0.224-0.5-0.5-0.5
		c-0.031,0-0.062,0.003-0.092,0.009l-6,1.125C16.172,13.383,16,13.59,16,13.83v7.67C16,22.878,14.878,24,13.5,24z M13.5,20
		c-0.827,0-1.5,0.673-1.5,1.5s0.673,1.5,1.5,1.5s1.5-0.673,1.5-1.5S14.327,20,13.5,20z M21.5,18c-0.827,0-1.5,0.673-1.5,1.5
		s0.673,1.5,1.5,1.5s1.5-0.673,1.5-1.5S22.327,18,21.5,18z"/>
	<path d="M0.5,18C0.224,18,0,17.776,0,17.5c0-2.003,0.82-3.956,2.251-5.358c1.41-1.382,3.28-2.143,5.265-2.143l0.06,0
		c2.004,0.021,3.879,0.82,5.281,2.251c0.094,0.095,0.145,0.222,0.143,0.355s-0.055,0.259-0.15,0.352
		c-0.094,0.092-0.218,0.143-0.35,0.143c-0.135,0-0.262-0.053-0.357-0.15c-1.215-1.24-2.84-1.933-4.577-1.951l-0.054,0
		c-1.719,0-3.339,0.659-4.561,1.857C1.838,13.947,1.142,15.445,1.02,17H12.5c0.276,0,0.5,0.224,0.5,0.5S12.776,18,12.5,18H0.5z"/>
	<path d="M7.5,9.5c-2.619,0-4.75-2.131-4.75-4.75c0-0.822,0.218-1.636,0.631-2.356c0.018-0.04,0.04-0.073,0.058-0.097
		C4.311,0.858,5.828,0,7.5,0c2.357,0,4.377,1.762,4.7,4.099c0.003,0.011,0.007,0.034,0.009,0.062
		c0.028,0.221,0.041,0.409,0.041,0.589C12.25,7.369,10.119,9.5,7.5,9.5z M3.996,3.426C3.833,3.851,3.75,4.295,3.75,4.75
		c0,2.068,1.682,3.75,3.75,3.75c2.023,0,3.677-1.611,3.748-3.617C10.497,5.127,9.717,5.25,8.923,5.25
		C7.129,5.25,5.355,4.589,3.996,3.426z M8.936,4.25c0.746,0,1.49-0.131,2.204-0.389C10.734,2.191,9.235,1,7.5,1
		C6.307,1,5.195,1.566,4.487,2.524c1.2,1.098,2.799,1.725,4.422,1.726c0.003,0,0.006,0,0.009,0C8.923,4.25,8.931,4.25,8.936,4.25z"
		/>
</g>
</svg>
