<?xml version="1.0" encoding="utf-8"?>
<!-- Generator: Adobe Illustrator 22.1.0, SVG Export Plug-In . SVG Version: 6.00 Build 0)  -->
<svg version="1.1" id="Light" xmlns="http://www.w3.org/2000/svg" xmlns:xlink="http://www.w3.org/1999/xlink" x="0px" y="0px"
	 viewBox="0 0 24 24" style="enable-background:new 0 0 24 24;" xml:space="preserve">
<g>
	<title>single-man-actions-block</title>
	<path d="M17.5,24c-1.722,0-3.345-0.669-4.572-1.884c-0.009-0.007-0.017-0.014-0.024-0.021c-0.007-0.007-0.014-0.015-0.021-0.024
		C11.669,20.845,11,19.222,11,17.5c0-3.584,2.916-6.5,6.5-6.5c1.719,0,3.338,0.666,4.564,1.876c0.012,0.009,0.024,0.019,0.032,0.027
		c0.012,0.012,0.022,0.025,0.03,0.036C23.332,14.157,24,15.779,24,17.5C24,21.084,21.084,24,17.5,24z M13.983,21.724
		C14.971,22.549,16.21,23,17.5,23c3.033,0,5.5-2.467,5.5-5.5c0-1.29-0.451-2.529-1.276-3.517L13.983,21.724z M17.5,12
		c-3.033,0-5.5,2.467-5.5,5.5c0,1.29,0.451,2.529,1.276,3.517l7.742-7.742C20.029,12.451,18.79,12,17.5,12z"/>
	<path d="M0.5,18C0.224,18,0,17.776,0,17.5c0-2,0.781-3.883,2.199-5.301C3.617,10.781,5.5,10,7.5,10c1.44,0,2.842,0.411,4.053,1.19
		c0.232,0.149,0.299,0.459,0.151,0.691c-0.093,0.144-0.25,0.23-0.421,0.23l0,0c-0.096,0-0.189-0.027-0.27-0.079
		C9.963,11.356,8.748,11,7.5,11c-1.737,0-3.369,0.676-4.597,1.904C1.8,14.008,1.136,15.454,1.019,17H8.5C8.776,17,9,17.224,9,17.5
		S8.776,18,8.5,18H0.5z"/>
	<path d="M7.5,9.5c-2.619,0-4.75-2.131-4.75-4.75c0-0.822,0.218-1.636,0.631-2.355c0.018-0.041,0.041-0.074,0.06-0.099
		C4.313,0.858,5.829,0,7.5,0c2.357,0,4.377,1.762,4.7,4.099c0.003,0.011,0.007,0.034,0.009,0.062
		c0.028,0.221,0.041,0.409,0.041,0.589C12.25,7.369,10.119,9.5,7.5,9.5z M3.995,3.426C3.832,3.852,3.75,4.296,3.75,4.75
		c0,2.068,1.682,3.75,3.75,3.75c2.023,0,3.677-1.611,3.748-3.617C10.497,5.127,9.717,5.25,8.923,5.25
		C7.128,5.25,5.355,4.589,3.995,3.426z M4.487,2.524c1.201,1.1,2.802,1.726,4.427,1.726c0.766,0,1.512-0.131,2.227-0.389
		C10.734,2.191,9.235,1,7.5,1C6.307,1,5.195,1.566,4.487,2.524z"/>
</g>
</svg>
