<?xml version="1.0" encoding="utf-8"?>
<!-- Generator: Adobe Illustrator 22.1.0, SVG Export Plug-In . SVG Version: 6.00 Build 0)  -->
<svg version="1.1" id="Light" xmlns="http://www.w3.org/2000/svg" xmlns:xlink="http://www.w3.org/1999/xlink" x="0px" y="0px"
	 viewBox="0 0 24 24" style="enable-background:new 0 0 24 24;" xml:space="preserve">
<g>
	<title>single-man-actions-address</title>
	<path d="M17.486,23.997c-0.513,0-1.026-0.059-1.522-0.176c-2.995-0.71-5.097-3.458-4.998-6.534
		c0.113-3.528,2.966-6.291,6.494-6.291c0.071,0,0.141,0.001,0.211,0.003c3.611,0.199,6.388,3.18,6.329,6.787v0.838
		c0,0.636-0.248,1.233-0.696,1.681c-0.448,0.448-1.044,0.694-1.677,0.694c-0.637,0-1.234-0.248-1.682-0.696
		c-0.238-0.238-0.419-0.519-0.536-0.828c-0.509,0.491-1.193,0.774-1.908,0.774c-1.516,0-2.75-1.234-2.75-2.75s1.234-2.75,2.75-2.75
		s2.75,1.234,2.75,2.75v1.125c0,0.367,0.143,0.713,0.402,0.972c0.259,0.259,0.604,0.402,0.971,0.403
		c0.369,0,0.715-0.143,0.974-0.402S23,18.993,23,18.626v-0.848c0.051-3.074-2.309-5.611-5.372-5.78
		c-0.05-0.001-0.105-0.002-0.16-0.002c-2.99,0-5.406,2.338-5.502,5.323c-0.084,2.602,1.694,4.927,4.228,5.528
		c0.421,0.099,0.856,0.149,1.293,0.149c0.485,0,0.967-0.062,1.431-0.184c0.043-0.011,0.084-0.016,0.126-0.016
		c0.228,0,0.427,0.153,0.485,0.373c0.07,0.267-0.09,0.541-0.357,0.611C18.623,23.924,18.056,23.997,17.486,23.997z M17.5,15.749
		c-0.965,0-1.75,0.785-1.75,1.75s0.785,1.75,1.75,1.75s1.75-0.785,1.75-1.75S18.465,15.749,17.5,15.749z"/>
	<path d="M0.5,17.999c-0.276,0-0.5-0.224-0.5-0.5c0-2,0.781-3.883,2.199-5.301C3.617,10.78,5.5,9.999,7.5,9.999
		c1.441,0,2.842,0.411,4.054,1.19c0.232,0.149,0.299,0.459,0.151,0.691c-0.092,0.144-0.25,0.23-0.421,0.23
		c-0.096,0-0.189-0.027-0.27-0.079c-1.05-0.675-2.265-1.031-3.513-1.031c-3.428,0-6.226,2.615-6.482,6H8.5
		c0.276,0,0.5,0.224,0.5,0.5s-0.224,0.5-0.5,0.5H0.5z"/>
	<path d="M7.5,9.499c-2.619,0-4.75-2.131-4.75-4.75c0-0.822,0.218-1.637,0.631-2.356c0.018-0.04,0.04-0.073,0.058-0.097
		C4.312,0.857,5.828-0.001,7.5-0.001c2.356,0,4.377,1.762,4.7,4.098c0.003,0.012,0.008,0.034,0.009,0.063
		c0.028,0.221,0.041,0.408,0.041,0.589C12.25,7.368,10.119,9.499,7.5,9.499z M3.996,3.425C3.833,3.85,3.75,4.294,3.75,4.749
		c0,2.068,1.682,3.75,3.75,3.75c2.023,0,3.677-1.611,3.748-3.617c-0.75,0.244-1.531,0.367-2.325,0.367c0,0-0.005,0-0.007,0
		C7.129,5.249,5.355,4.588,3.996,3.425z M4.487,2.523c1.202,1.099,2.804,1.726,4.429,1.726c0.765,0,1.51-0.131,2.225-0.389
		C10.734,2.19,9.235,0.999,7.5,0.999C6.307,0.999,5.195,1.565,4.487,2.523z"/>
</g>
</svg>
