<svg id="Bold" xmlns="http://www.w3.org/2000/svg" viewBox="0 0 24 24"><title>single-man-actions-refresh</title><path d="M12.542,11.233a.25.25,0,0,0-.056-.426l-1.335-.572a.25.25,0,0,1-.151-.23V8.87a.251.251,0,0,1,.073-.177,3.3,3.3,0,0,0,.779-2.23.248.248,0,0,1,.089-.177,1.876,1.876,0,0,0,.537-1.4,1.58,1.58,0,0,0-.316-1.015.248.248,0,0,1-.034-.265,2.528,2.528,0,0,0,.156-1.726C11.943.492,10.241,0,8.887,0A3.75,3.75,0,0,0,5.725,1.324a.253.253,0,0,1-.213.118,1.073,1.073,0,0,0-.9.375c-.372.493-.1,1.171.176,1.732a.251.251,0,0,1-.045.288,1.2,1.2,0,0,0-.162.2A1.766,1.766,0,0,0,4.319,5a1.524,1.524,0,0,0,.639,1.331.252.252,0,0,1,.117.194A3.158,3.158,0,0,0,5.92,8.7.25.25,0,0,1,6,8.883v1.122a.251.251,0,0,1-.152.23L1.912,11.922C.639,12.468.457,13.626.205,15.23c-.056.359-.117.751-.2,1.179a.5.5,0,0,0,.106.411A.5.5,0,0,0,.5,17H9.293a.248.248,0,0,0,.248-.227A7.99,7.99,0,0,1,12.542,11.233Z"/><path d="M23.391,19.871a1,1,0,1,0-1.892-.648,4.091,4.091,0,0,1-6.918,1.419.25.25,0,0,1,.008-.345l1.721-1.721a.5.5,0,0,0-.353-.853H11.5a.5.5,0,0,0-.5.5V22.68a.5.5,0,0,0,.854.353l.969-.969a.249.249,0,0,1,.359,0,6.085,6.085,0,0,0,10.209-2.2Z"/><path d="M23.691,11.772a.5.5,0,0,0-.545.109l-1.025,1.025a.249.249,0,0,1-.358,0,6.1,6.1,0,0,0-10.2,2.227,1,1,0,0,0,1.893.648,4.09,4.09,0,0,1,6.894-1.445.25.25,0,0,1-.006.347l-1.66,1.659a.5.5,0,0,0,.354.853H23.5a.5.5,0,0,0,.5-.5V12.234A.5.5,0,0,0,23.691,11.772Z"/></svg>