<svg id="Bold" xmlns="http://www.w3.org/2000/svg" viewBox="0 0 24 24"><title>single-man-actions-key</title><path d="M15.082,11.922l-3.935-1.687A.248.248,0,0,1,11,10.006V8.871a.251.251,0,0,1,.073-.177,3.3,3.3,0,0,0,.779-2.23.248.248,0,0,1,.089-.176,1.876,1.876,0,0,0,.537-1.4,1.577,1.577,0,0,0-.317-1.014.25.25,0,0,1-.033-.265,2.534,2.534,0,0,0,.156-1.726C11.939.5,10.237,0,8.884,0A3.753,3.753,0,0,0,5.722,1.328a.25.25,0,0,1-.212.118,1.073,1.073,0,0,0-.9.375c-.371.492-.1,1.17.176,1.731a.251.251,0,0,1-.045.288,1.3,1.3,0,0,0-.162.2A1.762,1.762,0,0,0,4.318,5a1.521,1.521,0,0,0,.638,1.331.249.249,0,0,1,.117.194A3.159,3.159,0,0,0,5.918,8.7.25.25,0,0,1,6,8.884v1.122a.249.249,0,0,1-.152.229L1.911,11.922c-1.272.546-1.454,1.7-1.706,3.307-.056.359-.117.751-.2,1.179a.5.5,0,0,0,.106.411A.5.5,0,0,0,.5,17H9.916a.249.249,0,0,0,.223-.138,5.29,5.29,0,0,1,.3-.522A5.985,5.985,0,0,1,16.1,13.632a.25.25,0,0,0,.261-.337A2.249,2.249,0,0,0,15.082,11.922Z"/><path d="M24,11.631a.5.5,0,0,0-.5-.5H21.522a.5.5,0,0,0-.343.136l-4.187,3.956a.253.253,0,0,1-.245.057,4.454,4.454,0,1,0-1.791,8.687,4.355,4.355,0,0,0,.509.029,4.451,4.451,0,0,0,4.259-5.729.252.252,0,0,1,.063-.249l4.067-4.056A.5.5,0,0,0,24,13.608Zm-7.162,8.985h0a1.736,1.736,0,0,1-2.455-2.455,1.778,1.778,0,0,1,2.455,0,1.736,1.736,0,0,1,0,2.454Z"/></svg>