<svg id="Bold" xmlns="http://www.w3.org/2000/svg" viewBox="0 0 24 24"><title>single-man-actions-credit-card</title><path d="M9.124,15.125a3,3,0,0,1,3-3h2.053a.25.25,0,0,0,.1-.48l-3-1.285a.25.25,0,0,1-.152-.23V8.995a.252.252,0,0,1,.074-.177,3.311,3.311,0,0,0,.779-2.231.251.251,0,0,1,.088-.176,1.873,1.873,0,0,0,.538-1.4A1.58,1.58,0,0,0,12.287,4a.251.251,0,0,1-.034-.264,2.531,2.531,0,0,0,.157-1.727C12.069.618,10.367.125,9.013.125A3.752,3.752,0,0,0,5.85,1.449a.251.251,0,0,1-.212.118,1.072,1.072,0,0,0-.9.375c-.372.493-.106,1.17.176,1.732a.251.251,0,0,1-.046.288,1.3,1.3,0,0,0-.162.2,1.763,1.763,0,0,0-.265.961,1.521,1.521,0,0,0,.638,1.331A.249.249,0,0,1,5.2,6.65a3.167,3.167,0,0,0,.845,2.175.25.25,0,0,1,.08.183v1.123a.248.248,0,0,1-.151.229L2.037,12.047C.765,12.593.582,13.751.33,15.355c-.055.359-.117.751-.2,1.179a.5.5,0,0,0,.491.591H8.874a.25.25,0,0,0,.25-.25Z"/><path d="M22.124,13.375h-10a1.753,1.753,0,0,0-1.75,1.75v7a1.753,1.753,0,0,0,1.75,1.75h10a1.752,1.752,0,0,0,1.75-1.75v-7A1.752,1.752,0,0,0,22.124,13.375Zm0,9h-10a.251.251,0,0,1-.25-.25v-3a.25.25,0,0,1,.25-.25h10a.25.25,0,0,1,.25.25v3A.25.25,0,0,1,22.124,22.375Zm-10-7.5h10a.25.25,0,0,1,.25.25v1a.25.25,0,0,1-.25.25h-10a.25.25,0,0,1-.25-.25v-1A.251.251,0,0,1,12.124,14.875Z"/><path d="M20.874,20.625a.75.75,0,0,0-.75-.75h-1.25a.75.75,0,1,0,0,1.5h1.25A.75.75,0,0,0,20.874,20.625Z"/></svg>