<svg id="Bold" xmlns="http://www.w3.org/2000/svg" viewBox="0 0 24 24"><title>single-man-actions-address</title><path d="M12.668,11.358a.25.25,0,0,0-.056-.426l-1.335-.572a.251.251,0,0,1-.152-.23V8.994a.252.252,0,0,1,.074-.177,3.305,3.305,0,0,0,.779-2.23.251.251,0,0,1,.088-.176,1.875,1.875,0,0,0,.538-1.4A1.575,1.575,0,0,0,12.287,4a.252.252,0,0,1-.034-.265,2.529,2.529,0,0,0,.157-1.727C12.069.617,10.367.125,9.013.125A3.752,3.752,0,0,0,5.85,1.449a.251.251,0,0,1-.212.118,1.069,1.069,0,0,0-.9.375c-.372.492-.106,1.17.176,1.732a.249.249,0,0,1-.046.287,1.352,1.352,0,0,0-.162.2,1.766,1.766,0,0,0-.265.962,1.524,1.524,0,0,0,.638,1.331.249.249,0,0,1,.117.193,3.165,3.165,0,0,0,.845,2.175.251.251,0,0,1,.08.183V10.13a.25.25,0,0,1-.151.23L2.037,12.046C.765,12.592.582,13.75.33,15.354c-.055.359-.117.752-.2,1.18a.5.5,0,0,0,.491.591H9.418a.25.25,0,0,0,.249-.228A7.982,7.982,0,0,1,12.668,11.358Z"/><path d="M17.542,10.876A6.5,6.5,0,0,0,15.848,23.7a6.844,6.844,0,0,0,1.528.175,6.474,6.474,0,0,0,1.671-.218,1,1,0,1,0-.513-1.933,4.617,4.617,0,0,1-2.239.026A4.474,4.474,0,0,1,13,18.44a4.543,4.543,0,0,1,.9-3.916,4.479,4.479,0,0,1,3.6-1.648,4.664,4.664,0,0,1,4.382,4.753v.777a.709.709,0,0,1-.536.681.656.656,0,0,1-.182.038.72.72,0,0,1-.719-.719V17.375a3.063,3.063,0,1,0-3.063,3.062,3.009,3.009,0,0,0,1.4-.349.247.247,0,0,1,.306.06,2.745,2.745,0,0,0,.9.7,2.688,2.688,0,0,0,1.18.281,2.722,2.722,0,0,0,2.718-2.719v-.777A6.676,6.676,0,0,0,17.542,10.876Zm-.168,7.561a1.063,1.063,0,1,1,1.063-1.062A1.063,1.063,0,0,1,17.374,18.437Z"/></svg>