<svg id="Bold" xmlns="http://www.w3.org/2000/svg" viewBox="0 0 24 24"><title>single-man-actions-player</title><path d="M10.5,12a1.489,1.489,0,0,1,.746-1.29.25.25,0,0,0-.027-.446l-.066-.029A.249.249,0,0,1,11,10.006V8.87a.252.252,0,0,1,.074-.177,3.311,3.311,0,0,0,.779-2.231.251.251,0,0,1,.088-.176,1.873,1.873,0,0,0,.538-1.4,1.58,1.58,0,0,0-.317-1.015.251.251,0,0,1-.034-.264,2.531,2.531,0,0,0,.157-1.727C11.944.493,10.242,0,8.888,0A3.752,3.752,0,0,0,5.725,1.324a.251.251,0,0,1-.212.118,1.072,1.072,0,0,0-.9.375c-.372.493-.106,1.17.176,1.732a.251.251,0,0,1-.046.288,1.3,1.3,0,0,0-.162.2A1.763,1.763,0,0,0,4.32,5a1.521,1.521,0,0,0,.638,1.331.249.249,0,0,1,.117.194A3.167,3.167,0,0,0,5.92,8.7.25.25,0,0,1,6,8.883v1.123a.248.248,0,0,1-.151.229L1.912,11.922C.64,12.468.457,13.626.205,15.23c-.055.359-.117.751-.2,1.179A.5.5,0,0,0,.5,17h9.749a.25.25,0,0,0,.25-.25Z"/><path d="M24,22.125v-8.25A1.876,1.876,0,0,0,22.124,12h-8.25A1.877,1.877,0,0,0,12,13.875v8.25A1.877,1.877,0,0,0,13.874,24h8.25A1.876,1.876,0,0,0,24,22.125ZM15.5,16.18a.931.931,0,0,1,1.408-.8L19.942,17.2a.929.929,0,0,1,0,1.594l-3.035,1.82a.923.923,0,0,1-.478.133.94.94,0,0,1-.459-.121.931.931,0,0,1-.471-.809Z"/></svg>