<svg id="Bold" xmlns="http://www.w3.org/2000/svg" viewBox="0 0 24 24"><title>single-man-actions-lock</title><path d="M14.352,14.228a.25.25,0,0,0,.154-.217,4.425,4.425,0,0,1,.514-1.823.245.245,0,0,0,.014-.2.252.252,0,0,0-.137-.146l-3.745-1.607a.251.251,0,0,1-.152-.23V8.87a.252.252,0,0,1,.074-.177,3.305,3.305,0,0,0,.779-2.23.251.251,0,0,1,.088-.177,1.873,1.873,0,0,0,.538-1.4,1.58,1.58,0,0,0-.317-1.015.252.252,0,0,1-.034-.265,2.527,2.527,0,0,0,.157-1.726C11.944.492,10.242,0,8.888,0A3.752,3.752,0,0,0,5.725,1.324a.251.251,0,0,1-.212.118,1.072,1.072,0,0,0-.9.375c-.372.493-.106,1.171.176,1.732a.251.251,0,0,1-.046.288,1.3,1.3,0,0,0-.162.2A1.765,1.765,0,0,0,4.32,5a1.524,1.524,0,0,0,.638,1.331.249.249,0,0,1,.117.194A3.167,3.167,0,0,0,5.92,8.7.25.25,0,0,1,6,8.883v1.122a.25.25,0,0,1-.151.23L1.912,11.922C.64,12.468.457,13.626.205,15.23c-.055.359-.117.751-.2,1.179A.5.5,0,0,0,.5,17H12.259a.25.25,0,0,0,.249-.231A3.008,3.008,0,0,1,14.352,14.228Z"/><path d="M22.5,24A1.5,1.5,0,0,0,24,22.5V17a1.5,1.5,0,0,0-1.285-1.485.249.249,0,0,1-.215-.247V14.25a3.5,3.5,0,0,0-7,0v1.018a.249.249,0,0,1-.214.247A1.5,1.5,0,0,0,14,17v5.5A1.5,1.5,0,0,0,15.5,24h7Zm-5-9.75a1.5,1.5,0,1,1,3,0v1a.25.25,0,0,1-.25.25h-2.5a.25.25,0,0,1-.25-.25Zm2.5,6a1,1,0,1,1-1-1A1,1,0,0,1,20,20.25Z"/></svg>