<svg id="Bold" xmlns="http://www.w3.org/2000/svg" viewBox="0 0 24 24"><title>single-man-actions-check-2</title><path d="M11.844,11.842a7.128,7.128,0,0,1,.7-.607.25.25,0,0,0-.054-.427l-1.335-.573a.251.251,0,0,1-.152-.23V8.87a.252.252,0,0,1,.074-.177,3.305,3.305,0,0,0,.779-2.23.251.251,0,0,1,.088-.177,1.873,1.873,0,0,0,.538-1.4,1.58,1.58,0,0,0-.317-1.015.252.252,0,0,1-.034-.265,2.527,2.527,0,0,0,.157-1.726C11.944.492,10.242,0,8.888,0A3.752,3.752,0,0,0,5.725,1.324a.251.251,0,0,1-.212.118,1.072,1.072,0,0,0-.9.375c-.372.493-.106,1.171.176,1.732a.251.251,0,0,1-.046.288,1.3,1.3,0,0,0-.162.2A1.765,1.765,0,0,0,4.32,5a1.524,1.524,0,0,0,.638,1.331.249.249,0,0,1,.117.194A3.167,3.167,0,0,0,5.92,8.7.25.25,0,0,1,6,8.883v1.122a.25.25,0,0,1-.151.23L1.912,11.922C.64,12.468.457,13.626.205,15.23c-.055.359-.117.751-.2,1.179A.5.5,0,0,0,.5,17H9.3a.25.25,0,0,0,.249-.227A7.949,7.949,0,0,1,11.844,11.842Z"/><path d="M23.048,18.19a1,1,0,0,0-1.253.656A4.5,4.5,0,1,1,17.5,13a1,1,0,0,0,0-2,6.5,6.5,0,1,0,6.2,8.443A1,1,0,0,0,23.048,18.19Z"/><path d="M22.292,12.668l-4.616,4.615a.249.249,0,0,1-.353,0L16.144,16.1A1,1,0,0,0,14.73,17.52L16.307,19.1a1.69,1.69,0,0,0,2.386,0l5.013-5.014a1,1,0,1,0-1.414-1.414Z"/></svg>