<svg id="Bold" xmlns="http://www.w3.org/2000/svg" viewBox="0 0 24 24"><title>single-man-actions-text</title><path d="M9.5,12.5a2.988,2.988,0,0,1,1.385-2.513A.251.251,0,0,0,11,9.777V8.87a.251.251,0,0,1,.073-.177,3.3,3.3,0,0,0,.779-2.231.248.248,0,0,1,.089-.176,1.876,1.876,0,0,0,.537-1.4,1.58,1.58,0,0,0-.316-1.015.247.247,0,0,1-.034-.264,2.531,2.531,0,0,0,.156-1.727C11.943.493,10.241,0,8.888,0A3.751,3.751,0,0,0,5.725,1.324a.253.253,0,0,1-.213.118,1.072,1.072,0,0,0-.9.375c-.371.493-.1,1.17.176,1.732a.251.251,0,0,1-.045.288,1.247,1.247,0,0,0-.162.2A1.763,1.763,0,0,0,4.319,5a1.522,1.522,0,0,0,.639,1.331.249.249,0,0,1,.117.194A3.167,3.167,0,0,0,5.92,8.7.25.25,0,0,1,6,8.883v1.123a.249.249,0,0,1-.152.229L1.912,11.922C.64,12.468.457,13.626.205,15.23c-.056.359-.117.751-.2,1.179a.5.5,0,0,0,.106.411A.5.5,0,0,0,.5,17H9.25a.25.25,0,0,0,.25-.25Z"/><path d="M22,11H13a2,2,0,0,0-2,2v9a2,2,0,0,0,2,2h9a2,2,0,0,0,2-2V13A2,2,0,0,0,22,11Zm-9,2.25a.25.25,0,0,1,.25-.25h8.5a.25.25,0,0,1,.25.25v8.5a.255.255,0,0,1-.073.177.251.251,0,0,1-.177.073h-8.5a.25.25,0,0,1-.25-.25Z"/><path d="M20,16.5A.75.75,0,0,0,20,15H15.25a.75.75,0,0,0,0,1.5Z"/><path d="M15.25,19.5H17.5a.75.75,0,0,0,0-1.5H15.25a.75.75,0,0,0,0,1.5Z"/></svg>