<svg id="Bold" xmlns="http://www.w3.org/2000/svg" viewBox="0 0 24 24"><title>single-man-actions-music</title><path d="M12.5,13.83a3.476,3.476,0,0,1,.867-2.29.249.249,0,0,0-.09-.394l-2.124-.91a.251.251,0,0,1-.152-.23V8.87a.252.252,0,0,1,.074-.177,3.308,3.308,0,0,0,.779-2.23.251.251,0,0,1,.088-.177,1.873,1.873,0,0,0,.538-1.4,1.575,1.575,0,0,0-.317-1.014.253.253,0,0,1-.034-.265,2.53,2.53,0,0,0,.157-1.727C11.944.493,10.242,0,8.888,0A3.755,3.755,0,0,0,5.725,1.324a.249.249,0,0,1-.212.118,1.073,1.073,0,0,0-.9.376c-.372.492-.106,1.17.176,1.732a.25.25,0,0,1-.046.287,1.3,1.3,0,0,0-.162.2A1.765,1.765,0,0,0,4.32,5a1.521,1.521,0,0,0,.638,1.331.25.25,0,0,1,.117.194A3.167,3.167,0,0,0,5.92,8.7.25.25,0,0,1,6,8.883v1.123a.25.25,0,0,1-.151.23L1.912,11.922C.64,12.468.457,13.626.205,15.23c-.055.359-.117.752-.2,1.179A.5.5,0,0,0,.5,17H12.249a.25.25,0,0,0,.25-.25Z"/><path d="M13.5,24A2.5,2.5,0,0,0,16,21.5V14.037a.251.251,0,0,1,.2-.246l5.5-1.031a.25.25,0,0,1,.3.246v3.755a.251.251,0,0,1-.081.185.248.248,0,0,1-.191.064C21.652,17,21.576,17,21.5,17A2.5,2.5,0,1,0,24,19.5V12.705a2,2,0,0,0-2.368-1.966l-6,1.125A2,2,0,0,0,14,13.83v4.931a.251.251,0,0,1-.081.185.248.248,0,0,1-.191.064C13.652,19,13.576,19,13.5,19a2.5,2.5,0,0,0,0,5Z"/></svg>