<svg id="Bold" xmlns="http://www.w3.org/2000/svg" viewBox="0 0 24 24"><title>single-man-actions-location</title><path d="M12,16a6.465,6.465,0,0,1,1.8-4.477.25.25,0,0,0-.082-.4l-2.066-.886a.249.249,0,0,1-.152-.229V8.87a.252.252,0,0,1,.074-.177,3.311,3.311,0,0,0,.779-2.231.251.251,0,0,1,.088-.176,1.873,1.873,0,0,0,.538-1.4,1.58,1.58,0,0,0-.317-1.015.251.251,0,0,1-.034-.264,2.531,2.531,0,0,0,.157-1.727C12.444.493,10.742,0,9.388,0A3.752,3.752,0,0,0,6.225,1.324a.251.251,0,0,1-.212.118,1.072,1.072,0,0,0-.9.375c-.372.493-.106,1.17.176,1.732a.251.251,0,0,1-.046.288,1.3,1.3,0,0,0-.162.2A1.763,1.763,0,0,0,4.82,5a1.521,1.521,0,0,0,.638,1.331.249.249,0,0,1,.117.194A3.167,3.167,0,0,0,6.42,8.7a.25.25,0,0,1,.08.183v1.123a.248.248,0,0,1-.151.229L2.412,11.922C1.14,12.468.957,13.626.705,15.23c-.055.359-.117.751-.2,1.179A.5.5,0,0,0,1,17H11.811A.25.25,0,0,0,12,16.913a.247.247,0,0,0,.058-.2A4.828,4.828,0,0,1,12,16Z"/><path d="M18.5,11a5.006,5.006,0,0,0-5,5c0,3.171,4.457,7.664,4.647,7.854a.5.5,0,0,0,.707,0c.189-.19,4.646-4.683,4.646-7.854A5.006,5.006,0,0,0,18.5,11Zm-1.75,5a1.75,1.75,0,1,1,1.75,1.75A1.753,1.753,0,0,1,16.749,16Z"/></svg>