<svg id="Bold" xmlns="http://www.w3.org/2000/svg" viewBox="0 0 24 24"><title>single-neutral-actions-chat</title><path d="M9.5,12a3.471,3.471,0,0,1,1.1-2.528.251.251,0,0,0,.079-.184,2.264,2.264,0,0,1,.11-.8,5.618,5.618,0,0,0,1.466-4.314C12.256,1.756,10.677,0,8.5,0S4.744,1.756,4.744,4.174A5.605,5.605,0,0,0,6.2,8.471a2.505,2.505,0,0,1,.073,1.317.614.614,0,0,1-.135.308l-.632.233c-2.446.9-4.214,1.549-4.753,2.626A9.167,9.167,0,0,0,0,16.5a.5.5,0,0,0,.5.5H9.25a.25.25,0,0,0,.25-.25Z"/><path d="M22,10H13a2,2,0,0,0-2,2v7a2,2,0,0,0,2,2h.75a.25.25,0,0,1,.25.25V23a1,1,0,0,0,1.625.781l3.407-2.726A.247.247,0,0,1,19.188,21H22a2,2,0,0,0,2-2V12A2,2,0,0,0,22,10Zm-3.875,9.219L16.406,20.6A.25.25,0,0,1,16,20.4V20a1,1,0,0,0-1-1H13.25a.25.25,0,0,1-.25-.25v-6.5a.25.25,0,0,1,.25-.25h8.5a.25.25,0,0,1,.25.25v6.5a.249.249,0,0,1-.25.25h-3A1,1,0,0,0,18.125,19.219Z"/><path d="M15,13.5A.75.75,0,0,0,15,15h5a.75.75,0,0,0,0-1.5Z"/><path d="M18.75,16.75A.75.75,0,0,0,18,16H15a.75.75,0,0,0,0,1.5h3A.75.75,0,0,0,18.75,16.75Z"/></svg>