<svg id="Bold" xmlns="http://www.w3.org/2000/svg" viewBox="0 0 24 24"><title>single-neutral-actions-email</title><path d="M10.5,15.5A2.5,2.5,0,0,1,13,13h2.813a.25.25,0,0,0,.194-.408c-.657-.8-2.005-1.343-4.508-2.263L10.87,10.1a.6.6,0,0,1-.138-.31,2.632,2.632,0,0,1,.058-1.3,5.618,5.618,0,0,0,1.466-4.314C12.256,1.756,10.677,0,8.5,0S4.744,1.756,4.744,4.174A5.605,5.605,0,0,0,6.2,8.471a2.505,2.505,0,0,1,.073,1.317.614.614,0,0,1-.135.308l-.632.233c-2.446.9-4.214,1.549-4.753,2.626A9.167,9.167,0,0,0,0,16.5a.5.5,0,0,0,.5.5h9.75a.25.25,0,0,0,.25-.25Z"/><path d="M23.871,18.042a.249.249,0,0,0-.254.007l-4.425,3.078a2.26,2.26,0,0,1-2.384,0l-4.425-3.078a.25.25,0,0,0-.383.212V22.5A1.5,1.5,0,0,0,13.5,24h9A1.5,1.5,0,0,0,24,22.5V18.261A.249.249,0,0,0,23.871,18.042Z"/><path d="M24,16a1.5,1.5,0,0,0-1.5-1.5h-9A1.5,1.5,0,0,0,12,16a.074.074,0,0,0,.035.063L17.6,19.855a.752.752,0,0,0,.794,0l5.568-3.792A.075.075,0,0,0,24,16Z"/></svg>