<svg id="Bold" xmlns="http://www.w3.org/2000/svg" viewBox="0 0 24 24"><title>single-neutral-actions-monitor</title><path d="M9.5,13a3.484,3.484,0,0,1,1.251-2.672.25.25,0,0,0,.059-.31.931.931,0,0,1-.078-.23,2.632,2.632,0,0,1,.058-1.3,5.618,5.618,0,0,0,1.466-4.314C12.256,1.756,10.677,0,8.5,0S4.744,1.756,4.744,4.174A5.605,5.605,0,0,0,6.2,8.471a2.505,2.505,0,0,1,.073,1.317c-.086.368-.094.292-.767.541-2.446.9-4.214,1.549-4.753,2.626A9.167,9.167,0,0,0,0,16.5a.5.5,0,0,0,.5.5H9.25a.25.25,0,0,0,.25-.25Z"/><path d="M20,22H18.75a.25.25,0,0,1-.25-.25v-.5a.25.25,0,0,1,.25-.25H22a2,2,0,0,0,2-2V13a2,2,0,0,0-2-2H13a2,2,0,0,0-2,2v6a2,2,0,0,0,2,2h3.25a.25.25,0,0,1,.25.25v.5a.25.25,0,0,1-.25.25H15a.987.987,0,0,0-.847.5A.974.974,0,0,0,14,23a1,1,0,0,0,1,1h5a1,1,0,0,0,1-1,.974.974,0,0,0-.153-.5A.987.987,0,0,0,20,22Zm-7-8.75a.25.25,0,0,1,.25-.25h8.5a.25.25,0,0,1,.25.25v5.5a.249.249,0,0,1-.25.25h-8.5a.25.25,0,0,1-.25-.25Z"/></svg>