<svg id="Bold" xmlns="http://www.w3.org/2000/svg" viewBox="0 0 24 24"><title>single-neutral-actions-player</title><path d="M10.5,12a1.5,1.5,0,0,1,.776-1.312.249.249,0,0,0-.034-.453L10.87,10.1a.6.6,0,0,1-.138-.31,2.632,2.632,0,0,1,.058-1.3,5.618,5.618,0,0,0,1.466-4.314C12.256,1.756,10.677,0,8.5,0S4.744,1.756,4.744,4.174A5.605,5.605,0,0,0,6.2,8.471a2.505,2.505,0,0,1,.073,1.317.614.614,0,0,1-.135.308l-.632.233c-2.446.9-4.214,1.549-4.753,2.626A9.167,9.167,0,0,0,0,16.5a.5.5,0,0,0,.5.5h9.75a.25.25,0,0,0,.25-.25Z"/><path d="M24,13.875A1.877,1.877,0,0,0,22.125,12h-8.25A1.877,1.877,0,0,0,12,13.875v8.25A1.877,1.877,0,0,0,13.875,24h8.25A1.877,1.877,0,0,0,24,22.125Zm-8.5,2.3a.93.93,0,0,1,1.408-.8l3.033,1.82a.928.928,0,0,1,0,1.595l-3.033,1.819a.93.93,0,0,1-1.408-.8Z"/></svg>