<svg id="Bold" xmlns="http://www.w3.org/2000/svg" viewBox="0 0 24 24"><title>single-neutral-actions-home</title><path d="M8.884,16.093l5.168-4.373a.251.251,0,0,0-.06-.42c-.71-.312-1.547-.624-2.494-.972l-.628-.23a.6.6,0,0,1-.138-.311,2.573,2.573,0,0,1,.058-1.3,5.618,5.618,0,0,0,1.466-4.314C12.256,1.756,10.677,0,8.5,0S4.744,1.756,4.744,4.174A5.605,5.605,0,0,0,6.2,8.471a2.453,2.453,0,0,1,.073,1.316.615.615,0,0,1-.135.309l-.631.232c-2.447.9-4.215,1.55-4.754,2.626A9.173,9.173,0,0,0,0,16.5a.5.5,0,0,0,.5.5H8.052a.25.25,0,0,0,.223-.137A2.5,2.5,0,0,1,8.884,16.093Z"/><path d="M21.5,24a.5.5,0,0,0,.5-.5V18.75a.25.25,0,0,1,.25-.25H23.5a.5.5,0,0,0,.323-.881l-6.5-5.5a.5.5,0,0,0-.647,0l-6.5,5.5a.5.5,0,0,0,.324.881h1.25a.25.25,0,0,1,.25.25V23.5a.5.5,0,0,0,.5.5Z"/></svg>