<svg id="Bold" xmlns="http://www.w3.org/2000/svg" viewBox="0 0 24 24"><title>single-neutral-actions-share-1</title><path d="M18.5,10.328l-.628-.23a.6.6,0,0,1-.138-.311,2.573,2.573,0,0,1,.058-1.3,5.618,5.618,0,0,0,1.466-4.314C19.256,1.756,17.677,0,15.5,0s-3.756,1.756-3.756,4.174a5.605,5.605,0,0,0,1.451,4.3,2.453,2.453,0,0,1,.073,1.316.615.615,0,0,1-.135.309l-.631.232c-2.447.9-4.215,1.55-4.754,2.626a7.139,7.139,0,0,0-.6,1.947.249.249,0,0,0,.247.292h4.714A1.991,1.991,0,0,1,14.064,16.8a.25.25,0,0,0,.245.2H23.5a.5.5,0,0,0,.5-.5,9.173,9.173,0,0,0-.748-3.546C22.713,11.878,20.945,11.229,18.5,10.328Z"/><path d="M1,16.387a1,1,0,0,0-1,1V23a1,1,0,0,0,2,0V17.387A1,1,0,0,0,1,16.387Z"/><path d="M12.5,20.193h-7a.348.348,0,0,1-.322-.386.371.371,0,0,1,.371-.371H7.5A.887.887,0,0,0,8.319,18.2a1.9,1.9,0,0,0-1.813-1.006l-3-.032a.553.553,0,0,0-.358.145A.5.5,0,0,0,3,17.661v5.032a.5.5,0,0,0,.5.5h8a2.04,2.04,0,0,0,2-1.924v-.2A.971.971,0,0,0,12.5,20.193Z"/></svg>