<svg id="Bold" xmlns="http://www.w3.org/2000/svg" viewBox="0 0 24 24"><title>single-neutral-actions-shield</title><path d="M9.5,13.456A2.928,2.928,0,0,1,11.3,10.7a.25.25,0,0,0-.028-.457l-.4-.148a.6.6,0,0,1-.138-.311,2.573,2.573,0,0,1,.058-1.3,5.618,5.618,0,0,0,1.466-4.314C12.256,1.756,10.677,0,8.5,0S4.744,1.756,4.744,4.174A5.605,5.605,0,0,0,6.2,8.471a2.453,2.453,0,0,1,.073,1.316.615.615,0,0,1-.135.309l-.631.232c-2.447.9-4.215,1.55-4.754,2.626A9.173,9.173,0,0,0,0,16.5a.5.5,0,0,0,.5.5H9.25a.249.249,0,0,0,.25-.251Z"/><path d="M23.072,12.04A16.386,16.386,0,0,0,17.479,11a15.988,15.988,0,0,0-5.551,1.04A1.545,1.545,0,0,0,11,13.456v3.393a7.718,7.718,0,0,0,5.19,6.805l.553.211a2.071,2.071,0,0,0,.736.135,2.04,2.04,0,0,0,.734-.136l.554-.21C21.848,22.48,24,19.682,24,16.849V13.456A1.545,1.545,0,0,0,23.072,12.04ZM18.25,15.5a.25.25,0,0,0,.25.25h2a.75.75,0,0,1,0,1.5h-2a.25.25,0,0,0-.25.25v2a.75.75,0,0,1-1.5,0v-2a.25.25,0,0,0-.25-.25h-2a.75.75,0,0,1,0-1.5h2a.25.25,0,0,0,.25-.25v-2a.75.75,0,0,1,1.5,0Z"/></svg>