<svg xmlns="http://www.w3.org/2000/svg" viewBox="0 0 24 24"><defs><style>.a{fill:none;stroke:currentColor;stroke-linecap:round;stroke-linejoin:round;stroke-width:1.5px;}</style></defs><title>database-share</title><ellipse class="a" cx="12" cy="3.001" rx="5.25" ry="2.25"/><path class="a" d="M6.75,3V6c0,1.242,2.351,2.25,5.25,2.25S17.25,7.243,17.25,6V3"/><path class="a" d="M6.75,6V9c0,1.242,2.351,2.25,5.25,2.25S17.25,10.243,17.25,9V6"/><rect class="a" x="0.75" y="14.251" width="9" height="6" rx="1.5" ry="1.5"/><line class="a" x1="5.25" y1="20.251" x2="5.25" y2="23.251"/><line class="a" x1="3" y1="23.251" x2="7.5" y2="23.251"/><rect class="a" x="14.25" y="14.251" width="9" height="6" rx="1.5" ry="1.5"/><line class="a" x1="18.75" y1="20.251" x2="18.75" y2="23.251"/><line class="a" x1="16.5" y1="23.251" x2="21" y2="23.251"/><path class="a" d="M2.251,11.251v-1.5a1.5,1.5,0,0,1,1.5-1.5"/><path class="a" d="M21.751,11.251v-1.5a1.5,1.5,0,0,0-1.5-1.5"/></svg>