<svg xmlns="http://www.w3.org/2000/svg" viewBox="0 0 24 24"><defs><style>.a{fill:none;stroke:currentColor;stroke-linecap:round;stroke-linejoin:round;stroke-width:1.5px;}</style></defs><title>database-1</title><line class="a" x1="12" y1="15.751" x2="12" y2="23.251"/><line class="a" x1="4.5" y1="23.251" x2="19.5" y2="23.251"/><path class="a" d="M22.875,22.5a.375.375,0,1,0,.375.375.374.374,0,0,0-.375-.375h0"/><path class="a" d="M1.125,22.5a.375.375,0,1,0,.375.375.374.374,0,0,0-.375-.375h0"/><ellipse class="a" cx="12" cy="3.751" rx="6.75" ry="3"/><path class="a" d="M5.25,3.751v4.5c0,1.657,3.022,3,6.75,3s6.75-1.343,6.75-3v-4.5"/><path class="a" d="M5.25,8.251v4.5c0,1.657,3.022,3,6.75,3s6.75-1.343,6.75-3v-4.5"/></svg>