<svg xmlns="http://www.w3.org/2000/svg" viewBox="0 0 24 24"><defs><style>.a{fill:none;stroke:currentColor;stroke-linecap:round;stroke-linejoin:round;stroke-width:1.5px;}</style></defs><title>database-star</title><path class="a" d="M14.183,9.666c-.706.056-1.436.085-2.183.085C5.787,9.751.75,7.736.75,5.251S5.787.751,12,.751s11.25,2.014,11.25,4.5c0,1.344-1.473,2.55-3.808,3.375"/><line class="a" x1="23.25" y1="12.001" x2="23.25" y2="5.251"/><path class="a" d="M.75,5.251v6c0,1.962,3.139,3.631,7.519,4.246"/><path class="a" d="M.75,11.251v6c0,2.125,3.684,3.906,8.637,4.378"/><path class="a" d="M17.956,11.75,19.5,15.82h2.994a.735.735,0,0,1,.518,1.283l-2.6,1.746,1.44,3.313a.785.785,0,0,1-1.117.983L17.25,21.184l-3.48,1.961a.785.785,0,0,1-1.117-.983l1.44-3.313-2.6-1.746a.734.734,0,0,1,.514-1.283h3l1.541-4.07A.794.794,0,0,1,17.956,11.75Z"/></svg>