<?xml version="1.0" encoding="utf-8"?>
<!-- Generator: Adobe Illustrator 22.1.0, SVG Export Plug-In . SVG Version: 6.00 Build 0)  -->
<svg version="1.1" id="Layer_1" xmlns="http://www.w3.org/2000/svg" xmlns:xlink="http://www.w3.org/1999/xlink" x="0px" y="0px"
	 viewBox="0 0 24 24" style="enable-background:new 0 0 24 24;" xml:space="preserve">
<g>
	<title>electronics-motor</title>
	<path d="M12,24c-0.276,0-0.5-0.224-0.5-0.5V21h-2C9.224,21,9,20.776,9,20.5V19H7.5C6.121,19,5,17.878,5,16.5v-10
		C5,5.121,6.121,4,7.5,4H10V1.5C10,0.673,10.673,0,11.5,0h1C13.327,0,14,0.673,14,1.5V4h2.5C17.878,4,19,5.121,19,6.5v10
		c0,1.378-1.122,2.5-2.5,2.5H15v1.5c0,0.276-0.224,0.5-0.5,0.5h-2v2.5C12.5,23.776,12.276,24,12,24z M14,20v-1h-4v1H14z M6,16.5
		C6,17.327,6.673,18,7.5,18h9c0.827,0,1.5-0.673,1.5-1.5V8H6V16.5z M18,7V6.5C18,5.673,17.327,5,16.5,5h-9C6.673,5,6,5.673,6,6.5V7
		H18z M13,4V1.5C13,1.224,12.776,1,12.5,1h-1C11.224,1,11,1.224,11,1.5V4H13z"/>
	<path d="M8.5,16C8.224,16,8,15.776,8,15.5V12c0-0.099,0.029-0.195,0.084-0.277l1-1.5C9.177,10.083,9.333,10,9.5,10
		c0.099,0,0.195,0.029,0.277,0.084c0.229,0.153,0.291,0.464,0.138,0.693L9,12.151V15h0.5c0.276,0,0.5,0.224,0.5,0.5S9.776,16,9.5,16
		H8.5z"/>
	<path d="M14.5,16c-0.276,0-0.5-0.224-0.5-0.5s0.224-0.5,0.5-0.5H15v-2.849l-0.916-1.374c-0.074-0.111-0.101-0.245-0.074-0.375
		c0.026-0.131,0.102-0.244,0.213-0.318C14.305,10.029,14.401,10,14.5,10c0.167,0,0.323,0.083,0.416,0.223l1,1.5
		C15.971,11.805,16,11.901,16,12v3.5c0,0.276-0.224,0.5-0.5,0.5H14.5z"/>
</g>
</svg>
