<?xml version="1.0" encoding="utf-8"?>
<!-- Generator: Adobe Illustrator 22.1.0, SVG Export Plug-In . SVG Version: 6.00 Build 0)  -->
<svg version="1.1" id="Layer_1" xmlns="http://www.w3.org/2000/svg" xmlns:xlink="http://www.w3.org/1999/xlink" x="0px" y="0px"
	 viewBox="0 0 24 24" style="enable-background:new 0 0 24 24;" xml:space="preserve">
<g>
	<title>electronics-zener-diode</title>
	<path d="M19.5,21c-0.134,0-0.259-0.052-0.354-0.146l-2-2C17.052,18.759,17,18.634,17,18.5v-4.551l-9.725,5.984
		c-0.235,0.145-0.505,0.222-0.781,0.222c-0.523,0-0.998-0.265-1.272-0.708C5.077,19.212,5,18.94,5,18.663V13H0.5
		C0.224,13,0,12.776,0,12.5C0,12.224,0.224,12,0.5,12H5V6.337c0-0.398,0.155-0.773,0.436-1.055C5.718,5,6.092,4.844,6.491,4.844
		c0.278,0,0.549,0.077,0.785,0.222L17,11.051V6.707l-1.854-1.854C15.052,4.759,15,4.634,15,4.5s0.052-0.259,0.146-0.354
		S15.366,4,15.5,4s0.259,0.052,0.354,0.146l2,2C17.948,6.241,18,6.366,18,6.5V12h5.5c0.276,0,0.5,0.224,0.5,0.5
		c0,0.276-0.224,0.5-0.5,0.5H18v5.293l1.854,1.854c0.195,0.195,0.195,0.512,0,0.707C19.759,20.948,19.634,21,19.5,21z M6.491,5.844
		c-0.131,0-0.255,0.051-0.348,0.144C6.051,6.082,6,6.205,6,6.337v12.326c0,0.092,0.025,0.181,0.073,0.259
		c0.09,0.146,0.247,0.234,0.42,0.234c0.091,0,0.18-0.025,0.257-0.073l10.016-6.163c0.065-0.04,0.121-0.096,0.161-0.161
		c0.051-0.083,0.076-0.178,0.073-0.274c-0.001-0.034-0.005-0.066-0.013-0.098c-0.031-0.128-0.109-0.237-0.221-0.305L6.751,5.918
		C6.673,5.87,6.583,5.844,6.491,5.844l0-0.25L6.491,5.844z"/>
</g>
</svg>
