<?xml version="1.0" encoding="utf-8"?>
<!-- Generator: Adobe Illustrator 22.1.0, SVG Export Plug-In . SVG Version: 6.00 Build 0)  -->
<svg version="1.1" id="Layer_1" xmlns="http://www.w3.org/2000/svg" xmlns:xlink="http://www.w3.org/1999/xlink" x="0px" y="0px"
	 viewBox="0 0 24 24" style="enable-background:new 0 0 24 24;" xml:space="preserve">
<g>
	<title>electronics-capacitor-1</title>
	<path d="M12,24c-0.276,0-0.5-0.224-0.5-0.5V14h-8C3.224,14,3,13.776,3,13.5S3.224,13,3.5,13h17c0.276,0,0.5,0.224,0.5,0.5
		S20.776,14,20.5,14h-8v9.5C12.5,23.776,12.276,24,12,24z"/>
	<path d="M3.5,11C3.224,11,3,10.776,3,10.5S3.224,10,3.5,10h8V0.5C11.5,0.224,11.724,0,12,0c0.276,0,0.5,0.224,0.5,0.5V10h8
		c0.276,0,0.5,0.224,0.5,0.5S20.776,11,20.5,11H3.5z"/>
</g>
</svg>
