<?xml version="1.0" encoding="utf-8"?>
<!-- Generator: Adobe Illustrator 22.1.0, SVG Export Plug-In . SVG Version: 6.00 Build 0)  -->
<svg version="1.1" id="Layer_1" xmlns="http://www.w3.org/2000/svg" xmlns:xlink="http://www.w3.org/1999/xlink" x="0px" y="0px"
	 viewBox="0 0 24 24" style="enable-background:new 0 0 24 24;" xml:space="preserve">
<g>
	<title>electronics-diode</title>
	<path d="M17.5,20.5c-0.276,0-0.5-0.224-0.5-0.5v-6.551l-9.725,5.984c-0.235,0.145-0.505,0.222-0.781,0.222
		c-0.523,0-0.998-0.265-1.272-0.708C5.077,18.712,5,18.44,5,18.163V12.5H0.5C0.224,12.5,0,12.276,0,12c0-0.276,0.224-0.5,0.5-0.5H5
		V5.837c0-0.398,0.155-0.773,0.436-1.055C5.718,4.5,6.092,4.344,6.491,4.344c0.278,0,0.549,0.077,0.785,0.222L17,10.551V4
		c0-0.276,0.224-0.5,0.5-0.5S18,3.724,18,4v7.5h5.5c0.276,0,0.5,0.224,0.5,0.5c0,0.276-0.224,0.5-0.5,0.5H18V20
		C18,20.276,17.776,20.5,17.5,20.5z M6.491,5.344c-0.131,0-0.255,0.051-0.348,0.144C6.051,5.582,6,5.705,6,5.837v12.326
		c0,0.092,0.025,0.181,0.073,0.259c0.09,0.146,0.247,0.234,0.42,0.234c0.091,0,0.18-0.025,0.257-0.073l10.016-6.163
		c0.065-0.04,0.121-0.096,0.161-0.161c0.051-0.083,0.076-0.178,0.073-0.274c-0.001-0.034-0.005-0.066-0.013-0.098
		c-0.031-0.128-0.109-0.237-0.221-0.305L6.751,5.418C6.673,5.37,6.583,5.344,6.491,5.344l0-0.25L6.491,5.344z"/>
</g>
</svg>
