<?xml version="1.0" encoding="utf-8"?>
<!-- Generator: Adobe Illustrator 22.1.0, SVG Export Plug-In . SVG Version: 6.00 Build 0)  -->
<svg version="1.1" id="Layer_1" xmlns="http://www.w3.org/2000/svg" xmlns:xlink="http://www.w3.org/1999/xlink" x="0px" y="0px"
	 viewBox="0 0 24 24" style="enable-background:new 0 0 24 24;" xml:space="preserve">
<g>
	<title>electronics-capacitor</title>
	<path d="M15.5,24c-0.276,0-0.5-0.224-0.5-0.5V17H9v6.5C9,23.776,8.776,24,8.5,24S8,23.776,8,23.5V17H6.5C6.224,17,6,16.776,6,16.5
		V14H5.5C5.224,14,5,13.776,5,13.5S5.224,13,5.5,13H6V1.5C6,0.673,6.673,0,7.5,0h9C17.327,0,18,0.673,18,1.5V13h0.5
		c0.276,0,0.5,0.224,0.5,0.5S18.776,14,18.5,14H18v2.5c0,0.276-0.224,0.5-0.5,0.5H16v6.5C16,23.776,15.776,24,15.5,24z M17,16v-2H7
		v2H17z M17,13V1.5C17,1.224,16.776,1,16.5,1h-9C7.224,1,7,1.224,7,1.5V13H17z"/>
</g>
</svg>
