<svg xmlns="http://www.w3.org/2000/svg" viewBox="0 0 24 24"><defs><style>.a{fill:none;stroke:currentColor;stroke-linecap:round;stroke-linejoin:round;}</style></defs><title>desktop-monitor-lock</title><rect class="a" x="9" y="7.5" width="6" height="5" rx="1" ry="1"/><path class="a" d="M12,4.5h0a2,2,0,0,0-2,2v1h4v-1A2,2,0,0,0,12,4.5Z"/><path class="a" d="M12,9.77a.25.25,0,1,1-.25.25A.25.25,0,0,1,12,9.77"/><path class="a" d="M9,22.5a6.979,6.979,0,0,0,1.5-4"/><path class="a" d="M15,22.5a6.979,6.979,0,0,1-1.5-4"/><line class="a" x1="7.499" y1="22.5" x2="16.499" y2="22.5"/><line class="a" x1="0.5" y1="15.5" x2="23.5" y2="15.5"/><rect class="a" x="0.5" y="1.5" width="23" height="17" rx="1" ry="1"/></svg>