<svg xmlns="http://www.w3.org/2000/svg" viewBox="0 0 24 24"><defs><style>.a{fill:none;stroke:currentColor;stroke-linecap:round;stroke-linejoin:round;}</style></defs><title>desktop-computer-3</title><path class="a" d="M8.5.5h7a1,1,0,0,1,1,1v20a0,0,0,0,1,0,0h-9a0,0,0,0,1,0,0V1.5A1,1,0,0,1,8.5.5Z"/><path class="a" d="M16.5,18h.856a1,1,0,0,1,.91.586l1.591,3.5a1,1,0,0,1-.91,1.414H5.053a1,1,0,0,1-.91-1.414l1.591-3.5A1,1,0,0,1,6.644,18H7.5"/><line class="a" x1="10.5" y1="0.5" x2="10.5" y2="21.5"/><path class="a" d="M13.5,16.25a.25.25,0,1,1-.25.25.25.25,0,0,1,.25-.25"/><line class="a" x1="10.5" y1="3.5" x2="16.5" y2="3.5"/><line class="a" x1="10.5" y1="6.5" x2="16.5" y2="6.5"/><line class="a" x1="10.5" y1="9.5" x2="16.5" y2="9.5"/></svg>