<svg xmlns="http://www.w3.org/2000/svg" viewBox="0 0 24 24"><defs><style>.a{fill:none;stroke:currentColor;stroke-linecap:round;stroke-linejoin:round;}</style></defs><title>desktop-monitor-warning</title><path class="a" d="M17.5,9a.25.25,0,1,1-.25.25A.25.25,0,0,1,17.5,9"/><line class="a" x1="17.5" y1="7" x2="17.5" y2="4"/><path class="a" d="M18.338,1a.95.95,0,0,0-1.676,0l-5.056,9.635a.923.923,0,0,0,.031.914.948.948,0,0,0,.807.448H22.556a.948.948,0,0,0,.807-.448.923.923,0,0,0,.031-.914Z"/><line class="a" x1="0.5" y1="16.5" x2="21.5" y2="16.5"/><path class="a" d="M21.5,14v4.5a1,1,0,0,1-1,1H1.5a1,1,0,0,1-1-1V5.5a1,1,0,0,1,1-1h9"/><path class="a" d="M8,23.5a6.979,6.979,0,0,0,1.5-4"/><path class="a" d="M14,23.5a6.979,6.979,0,0,1-1.5-4"/><line class="a" x1="6.5" y1="23.5" x2="15.5" y2="23.5"/></svg>