<?xml version="1.0" encoding="utf-8"?>
<!-- Generator: Adobe Illustrator 22.1.0, SVG Export Plug-In . SVG Version: 6.00 Build 0)  -->
<svg version="1.1" id="Layer_1" xmlns="http://www.w3.org/2000/svg" xmlns:xlink="http://www.w3.org/1999/xlink" x="0px" y="0px"
	 viewBox="0 0 24 24" style="enable-background:new 0 0 24 24;" xml:space="preserve">
<g>
	<title>laptop-lock</title>
	<path d="M10,15c-0.827,0-1.5-0.673-1.5-1.5v-3c0-0.64,0.41-1.205,1-1.414V8.5C9.5,7.121,10.621,6,12,6c1.378,0,2.5,1.121,2.5,2.5
		v0.586c0.59,0.209,1,0.774,1,1.414v3c0,0.827-0.673,1.5-1.5,1.5H10z M10,10c-0.276,0-0.5,0.224-0.5,0.5v3
		c0,0.276,0.224,0.5,0.5,0.5h4c0.276,0,0.5-0.224,0.5-0.5v-3c0-0.276-0.224-0.5-0.5-0.5H10z M13.5,9V8.5C13.5,7.673,12.827,7,12,7
		s-1.5,0.673-1.5,1.5V9H13.5z"/>
	<circle cx="12" cy="12.02" r="0.75"/>
	<path d="M1.5,21C0.673,21,0,20.327,0,19.5v-2C0,17.224,0.224,17,0.5,17H1V5.5C1,4.121,2.121,3,3.5,3h17C21.878,3,23,4.121,23,5.5
		V17h0.5c0.276,0,0.5,0.224,0.5,0.5v2c0,0.827-0.673,1.5-1.5,1.5H1.5z M1,19.5C1,19.776,1.224,20,1.5,20h21
		c0.276,0,0.5-0.224,0.5-0.5V18h-8v0.5c0,0.276-0.224,0.5-0.5,0.5h-5C9.224,19,9,18.776,9,18.5V18H1V19.5z M14,18v-0.5
		c0-0.276,0.224-0.5,0.5-0.5H22V5.5C22,4.673,21.327,4,20.5,4h-17C2.673,4,2,4.673,2,5.5V17h7.5c0.276,0,0.5,0.224,0.5,0.5V18H14z"
		/>
</g>
</svg>
