<?xml version="1.0" encoding="utf-8"?>
<!-- Generator: Adobe Illustrator 22.1.0, SVG Export Plug-In . SVG Version: 6.00 Build 0)  -->
<svg version="1.1" id="Layer_1" xmlns="http://www.w3.org/2000/svg" xmlns:xlink="http://www.w3.org/1999/xlink" x="0px" y="0px"
	 viewBox="0 0 24 24" style="enable-background:new 0 0 24 24;" xml:space="preserve">
<g>
	<title>voice-id-lock</title>
	<path d="M0.5,18.001c-0.276,0-0.5-0.224-0.5-0.5v-15c0-0.276,0.224-0.5,0.5-0.5S1,2.225,1,2.501v15
		C1,17.777,0.776,18.001,0.5,18.001z"/>
	<path d="M2.5,14.001c-0.276,0-0.5-0.224-0.5-0.5v-7c0-0.276,0.224-0.5,0.5-0.5S3,6.225,3,6.501v7C3,13.777,2.776,14.001,2.5,14.001
		z"/>
	<path d="M4.5,15.001c-0.276,0-0.5-0.224-0.5-0.5v-9c0-0.276,0.224-0.5,0.5-0.5S5,5.225,5,5.501v9C5,14.777,4.776,15.001,4.5,15.001
		z"/>
	<path d="M6.5,16.001c-0.276,0-0.5-0.224-0.5-0.5v-11c0-0.276,0.224-0.5,0.5-0.5S7,4.225,7,4.501v11
		C7,15.777,6.776,16.001,6.5,16.001z"/>
	<path d="M8.5,17.001c-0.276,0-0.5-0.224-0.5-0.5v-13c0-0.276,0.224-0.5,0.5-0.5S9,3.225,9,3.501v13
		C9,16.777,8.776,17.001,8.5,17.001z"/>
	<path d="M20.5,9.997c-0.276,0-0.5-0.224-0.5-0.5V2.501c0-0.276,0.224-0.5,0.5-0.5s0.5,0.224,0.5,0.5v6.996
		C21,9.773,20.776,9.997,20.5,9.997z"/>
	<path d="M18.5,9.983c-0.276,0-0.5-0.224-0.5-0.5V6.501c0-0.276,0.224-0.5,0.5-0.5s0.5,0.224,0.5,0.5v2.982
		C19,9.759,18.776,9.983,18.5,9.983z"/>
	<path d="M16.5,10.493c-0.276,0-0.5-0.224-0.5-0.5V5.501c0-0.276,0.224-0.5,0.5-0.5s0.5,0.224,0.5,0.5v4.492
		C17,10.269,16.776,10.493,16.5,10.493z"/>
	<path d="M14.5,13.995c-0.276,0-0.5-0.224-0.5-0.5V4.501c0-0.276,0.224-0.5,0.5-0.5s0.5,0.224,0.5,0.5v8.994
		C15,13.77,14.776,13.995,14.5,13.995z"/>
	<path d="M12.5,17.001c-0.276,0-0.5-0.224-0.5-0.5v-13c0-0.276,0.224-0.5,0.5-0.5c0.276,0,0.5,0.224,0.5,0.5v13
		C13,16.777,12.776,17.001,12.5,17.001z"/>
	<path d="M10.5,20.001c-0.276,0-0.5-0.224-0.5-0.5v-19c0-0.276,0.224-0.5,0.5-0.5s0.5,0.224,0.5,0.5v19
		C11,19.777,10.776,20.001,10.5,20.001z"/>
	<path d="M15.5,24c-0.827,0-1.5-0.673-1.5-1.5v-5.999c0-0.827,0.673-1.5,1.5-1.5H16V14c0-1.654,1.346-3,3-3s3,1.346,3,3v1.001h0.5
		c0.827,0,1.5,0.673,1.5,1.5V22.5c0,0.827-0.673,1.5-1.5,1.5H15.5z M15.5,16.001c-0.276,0-0.5,0.224-0.5,0.5V22.5
		c0,0.276,0.224,0.5,0.5,0.5h7c0.276,0,0.5-0.224,0.5-0.5v-5.999c0-0.276-0.224-0.5-0.5-0.5H15.5z M21,15v-1c0-1.103-0.897-2-2-2
		s-2,0.897-2,2L21,15z"/>
	<path d="M19,21.313c-0.965,0-1.75-0.785-1.75-1.75s0.785-1.75,1.75-1.75s1.75,0.785,1.75,1.75S19.965,21.313,19,21.313z M19,18.813
		c-0.414,0-0.75,0.336-0.75,0.75s0.336,0.75,0.75,0.75s0.75-0.336,0.75-0.75S19.414,18.813,19,18.813z"/>
</g>
</svg>
