<?xml version="1.0" encoding="utf-8"?>
<!-- Generator: Adobe Illustrator 22.1.0, SVG Export Plug-In . SVG Version: 6.00 Build 0)  -->
<svg version="1.1" id="Light" xmlns="http://www.w3.org/2000/svg" xmlns:xlink="http://www.w3.org/1999/xlink" x="0px" y="0px"
	 viewBox="0 0 24 24" style="enable-background:new 0 0 24 24;" xml:space="preserve">
<g>
	<title>single-neutral-shopping-bag</title>
	<path d="M13.176,24c-0.827,0-1.5-0.673-1.5-1.5c0-0.055,0.003-0.11,0.009-0.165l0.778-7C12.548,14.574,13.188,14,13.954,14h0.605
		v-1c0-1.654,1.346-3,3-3s3,1.346,3,3v1h0.605c0.765,0,1.406,0.574,1.49,1.335l0.778,7c0.09,0.822-0.504,1.565-1.326,1.656
		C22.052,23.997,21.997,24,21.941,24H13.176z M13.954,15c-0.255,0-0.469,0.191-0.497,0.445l-0.778,7
		c-0.002,0.019-0.003,0.037-0.003,0.055c0,0.276,0.224,0.5,0.5,0.5h8.765c0.019,0,0.037-0.001,0.055-0.003
		c0.273-0.03,0.472-0.278,0.442-0.552l-0.778-7C21.632,15.192,21.419,15,21.164,15h-0.605v2.5c0,0.276-0.224,0.5-0.5,0.5
		s-0.5-0.224-0.5-0.5V15h-4v2.5c0,0.276-0.224,0.5-0.5,0.5s-0.5-0.224-0.5-0.5V15H13.954z M19.559,14v-1c0-1.103-0.897-2-2-2
		s-2,0.897-2,2v1H19.559z"/>
	<path d="M6.059,8c-2.206,0-4-1.794-4-4s1.794-4,4-4s4,1.794,4,4S8.265,8,6.059,8z M6.059,1c-1.654,0-3,1.346-3,3s1.346,3,3,3
		s3-1.346,3-3S7.713,1,6.059,1z"/>
	<path d="M4.059,24c-0.258,0-0.477-0.201-0.498-0.458L3.099,18h-2.04c-0.276,0-0.5-0.224-0.5-0.5V14
		c0-2.415,1.547-4.524,3.851-5.248c0.535-0.168,1.089-0.254,1.646-0.254c2.416,0,4.526,1.548,5.25,3.852
		c0.083,0.263-0.064,0.544-0.327,0.627C10.931,12.992,10.88,13,10.83,13c0,0,0,0,0,0c-0.22,0-0.411-0.141-0.477-0.35
		C9.76,10.765,8.033,9.499,6.056,9.499c-0.455,0-0.908,0.07-1.346,0.207C2.825,10.298,1.559,12.024,1.559,14v3h2
		c0.258,0,0.477,0.201,0.498,0.458L4.519,23h3.08l0.462-5.542C8.083,17.201,8.301,17,8.559,17h1c0.276,0,0.5,0.224,0.5,0.5
		S9.835,18,9.559,18h-0.54l-0.462,5.542C8.536,23.799,8.317,24,8.059,24H4.059z"/>
</g>
</svg>
