<?xml version="1.0" encoding="utf-8"?>
<!-- Generator: Adobe Illustrator 22.1.0, SVG Export Plug-In . SVG Version: 6.00 Build 0)  -->
<svg version="1.1" id="Light" xmlns="http://www.w3.org/2000/svg" xmlns:xlink="http://www.w3.org/1999/xlink" x="0px" y="0px"
	 viewBox="0 0 24 24" style="enable-background:new 0 0 24 24;" xml:space="preserve">
<g>
	<title>single-neutral-up-down</title>
	<path d="M3.5,11.501c-0.276,0-0.5-0.224-0.5-0.5V1.708L0.854,3.854C0.759,3.949,0.634,4.001,0.5,4.001S0.241,3.949,0.146,3.854
		S0,3.634,0,3.501s0.052-0.259,0.146-0.354l3-3c0.046-0.046,0.101-0.083,0.162-0.108C3.37,0.014,3.434,0.001,3.5,0.001
		s0.13,0.013,0.191,0.038c0.062,0.026,0.116,0.062,0.163,0.108l3,3C6.948,3.242,7,3.367,7,3.501S6.948,3.76,6.854,3.854
		S6.634,4.001,6.5,4.001S6.241,3.949,6.146,3.854L4,1.708v9.293C4,11.276,3.776,11.501,3.5,11.501z"/>
	<path d="M20.5,24.001c-0.066,0-0.13-0.013-0.191-0.039c-0.062-0.025-0.117-0.062-0.163-0.109l-2.999-2.999
		C17.052,20.76,17,20.634,17,20.501s0.052-0.259,0.146-0.354s0.22-0.146,0.354-0.146s0.259,0.052,0.354,0.146L20,22.294v-9.293
		c0-0.276,0.224-0.5,0.5-0.5s0.5,0.224,0.5,0.5v9.293l2.146-2.146c0.094-0.094,0.22-0.146,0.354-0.146s0.259,0.052,0.354,0.146
		S24,20.367,24,20.501s-0.052,0.259-0.146,0.354l-3,3c-0.045,0.046-0.101,0.083-0.163,0.109C20.63,23.988,20.566,24.001,20.5,24.001
		z"/>
	<path d="M12,9.501c-1.792,0-3.25-1.458-3.25-3.25s1.458-3.25,3.25-3.25c1.792,0,3.25,1.458,3.25,3.25S13.792,9.501,12,9.501z
		 M12,4.001c-1.241,0-2.25,1.009-2.25,2.25s1.009,2.25,2.25,2.25c1.241,0,2.25-1.009,2.25-2.25S13.241,4.001,12,4.001z"/>
	<path d="M10.5,22.001c-0.258,0-0.477-0.201-0.498-0.458l-0.379-4.542H8.5c-0.276,0-0.5-0.224-0.5-0.5v-3c0-2.206,1.794-4,4-4
		s4,1.794,4,4v3c0,0.276-0.224,0.5-0.5,0.5h-1.123l-0.379,4.542c-0.021,0.257-0.24,0.458-0.498,0.458H10.5z M13.04,21.001
		l0.379-4.542c0.021-0.257,0.24-0.458,0.498-0.458H15v-2.5c0-1.654-1.346-3-3-3c-1.654,0-3,1.346-3,3v2.5h1.083
		c0.258,0,0.477,0.201,0.498,0.458l0.379,4.542H13.04z"/>
</g>
</svg>
