<?xml version="1.0" encoding="utf-8"?>
<!-- Generator: Adobe Illustrator 22.1.0, SVG Export Plug-In . SVG Version: 6.00 Build 0)  -->
<svg version="1.1" id="Light" xmlns="http://www.w3.org/2000/svg" xmlns:xlink="http://www.w3.org/1999/xlink" x="0px" y="0px"
	 viewBox="0 0 24 24" style="enable-background:new 0 0 24 24;" xml:space="preserve">
<g>
	<title>single-neutral-statics-1</title>
	<path d="M13.5,15c-0.276,0-0.5-0.224-0.5-0.5s0.224-0.5,0.5-0.5h9c0.276,0,0.5-0.224,0.5-0.5v-12C23,1.224,22.776,1,22.5,1h-12
		C10.224,1,10,0.776,10,0.5S10.224,0,10.5,0h12C23.327,0,24,0.673,24,1.5v12c0,0.827-0.673,1.5-1.5,1.5H13.5z"/>
	<path d="M13.5,11c-0.094,0-0.185-0.026-0.265-0.076c-0.234-0.146-0.305-0.456-0.159-0.689l2.5-4
		c0.081-0.13,0.215-0.214,0.367-0.232C15.962,6.001,15.982,6,16.002,6c0.132,0,0.257,0.052,0.352,0.147l2.055,2.055l2.167-3.467
		C20.668,4.588,20.826,4.5,21,4.5c0.094,0,0.185,0.026,0.265,0.076c0.234,0.146,0.305,0.455,0.159,0.689l-2.5,4
		c-0.081,0.13-0.215,0.214-0.367,0.232C18.537,9.499,18.519,9.5,18.5,9.5c-0.134,0-0.259-0.052-0.354-0.146l-2.056-2.056
		l-2.167,3.467C13.832,10.912,13.674,11,13.5,11z"/>
	<path d="M3.5,24c-0.258,0-0.477-0.201-0.498-0.458L2.54,18H0.5C0.224,18,0,17.776,0,17.5V14c0-3.033,2.467-5.5,5.5-5.5
		S11,10.967,11,14v3.5c0,0.276-0.224,0.5-0.5,0.5H8.46l-0.462,5.542C7.977,23.799,7.758,24,7.5,24H3.5z M7.04,23l0.462-5.542
		C7.523,17.201,7.742,17,8,17h2v-3c0-2.481-2.019-4.5-4.5-4.5S1,11.519,1,14v3h2c0.258,0,0.477,0.201,0.498,0.458L3.96,23H7.04z"/>
	<path d="M5.5,8c-2.206,0-4-1.794-4-4s1.794-4,4-4s4,1.794,4,4S7.706,8,5.5,8z M5.5,1c-1.654,0-3,1.346-3,3s1.346,3,3,3s3-1.346,3-3
		S7.154,1,5.5,1z"/>
</g>
</svg>
