<?xml version="1.0" encoding="utf-8"?>
<!-- Generator: Adobe Illustrator 22.1.0, SVG Export Plug-In . SVG Version: 6.00 Build 0)  -->
<svg version="1.1" id="Light" xmlns="http://www.w3.org/2000/svg" xmlns:xlink="http://www.w3.org/1999/xlink" x="0px" y="0px"
	 viewBox="0 0 24 24" style="enable-background:new 0 0 24 24;" xml:space="preserve">
<g>
	<title>single-neutral-flag-1</title>
	<path d="M0.5,24C0.224,24,0,23.776,0,23.5v-21C0,2.224,0.224,2,0.5,2S1,2.224,1,2.5V4h7.932C9.199,4,9.45,4.104,9.639,4.292
		c0.189,0.189,0.294,0.44,0.294,0.707c0,0.234-0.082,0.462-0.232,0.642L8.151,7.5l1.55,1.86c0.171,0.205,0.252,0.464,0.227,0.731
		c-0.024,0.266-0.151,0.507-0.355,0.678C9.394,10.918,9.166,11,8.933,11H1v12.5C1,23.776,0.776,24,0.5,24z M8.932,10L7.116,7.82
		c-0.155-0.185-0.155-0.455,0-0.64L8.933,5L1,5v5H8.932z"/>
	<path d="M16.5,24c-0.258,0-0.477-0.201-0.498-0.458L15.54,18H13.5c-0.276,0-0.5-0.224-0.5-0.5V14c0-3.033,2.467-5.5,5.5-5.5
		S24,10.967,24,14v3.5c0,0.276-0.224,0.5-0.5,0.5h-2.04l-0.462,5.542C20.977,23.799,20.758,24,20.5,24H16.5z M20.04,23l0.462-5.542
		C20.523,17.201,20.742,17,21,17h2v-3c0-2.481-2.019-4.5-4.5-4.5S14,11.519,14,14v3h2c0.258,0,0.477,0.201,0.498,0.458L16.96,23
		H20.04z"/>
	<path d="M18.5,8c-2.206,0-4-1.794-4-4s1.794-4,4-4s4,1.794,4,4S20.706,8,18.5,8z M18.5,1c-1.654,0-3,1.346-3,3s1.346,3,3,3
		s3-1.346,3-3S20.154,1,18.5,1z"/>
</g>
</svg>
