<?xml version="1.0" encoding="utf-8"?>
<!-- Generator: Adobe Illustrator 22.1.0, SVG Export Plug-In . SVG Version: 6.00 Build 0)  -->
<svg version="1.1" id="Light" xmlns="http://www.w3.org/2000/svg" xmlns:xlink="http://www.w3.org/1999/xlink" x="0px" y="0px"
	 viewBox="0 0 24 24" style="enable-background:new 0 0 24 24;" xml:space="preserve">
<g>
	<title>single-neutral-home</title>
	<path d="M12,11.502c-1.792,0-3.25-1.458-3.25-3.25s1.458-3.25,3.25-3.25c1.792,0,3.25,1.458,3.25,3.25S13.792,11.502,12,11.502z
		 M12,6.002c-1.241,0-2.25,1.009-2.25,2.25s1.009,2.25,2.25,2.25c1.241,0,2.25-1.009,2.25-2.25S13.241,6.002,12,6.002z"/>
	<path d="M10.5,24.002c-0.258,0-0.477-0.201-0.498-0.458l-0.379-4.542H8.5c-0.276,0-0.5-0.224-0.5-0.5v-3c0-2.206,1.794-4,4-4
		s4,1.794,4,4v3c0,0.276-0.224,0.5-0.5,0.5h-1.123l-0.379,4.542c-0.021,0.257-0.24,0.458-0.498,0.458H10.5z M13.04,23.002
		l0.379-4.542c0.021-0.257,0.24-0.458,0.498-0.458H15v-2.5c0-1.654-1.346-3-3-3c-1.654,0-3,1.346-3,3v2.5h1.083
		c0.258,0,0.477,0.201,0.498,0.458l0.379,4.542H13.04z"/>
	<path d="M16.5,24.002c-0.276,0-0.5-0.224-0.5-0.5s0.224-0.5,0.5-0.5h6c0.276,0,0.5-0.224,0.5-0.5v-13.7
		c0-0.164-0.08-0.317-0.215-0.411l-10.5-7.3C12.202,1.033,12.103,1.002,12,1.002c-0.103,0-0.202,0.031-0.286,0.089l-10.5,7.3
		C1.08,8.485,1,8.638,1,8.802v13.7c0,0.276,0.224,0.5,0.5,0.5h6c0.276,0,0.5,0.224,0.5,0.5s-0.224,0.5-0.5,0.5h-6
		c-0.827,0-1.5-0.673-1.5-1.5v-13.7C0,8.311,0.24,7.851,0.643,7.57l10.5-7.3C11.395,0.095,11.691,0.003,12,0.003
		c0.309,0,0.605,0.093,0.857,0.268l10.5,7.3C23.76,7.851,24,8.311,24,8.802v13.7c0,0.827-0.673,1.5-1.5,1.5H16.5z"/>
</g>
</svg>
