<?xml version="1.0" encoding="utf-8"?>
<!-- Generator: Adobe Illustrator 22.1.0, SVG Export Plug-In . SVG Version: 6.00 Build 0)  -->
<svg version="1.1" id="Light" xmlns="http://www.w3.org/2000/svg" xmlns:xlink="http://www.w3.org/1999/xlink" x="0px" y="0px"
	 viewBox="0 0 24 24" style="enable-background:new 0 0 24 24;" xml:space="preserve">
<g>
	<title>single-neutral-increase</title>
	<path d="M11.488,9.89c-0.113,0-0.224-0.039-0.312-0.11c-0.104-0.083-0.17-0.202-0.185-0.335c-0.015-0.133,0.023-0.263,0.106-0.368
		L14.036,5.4c0.288-0.36,0.714-0.566,1.17-0.566c0.296,0,0.585,0.088,0.834,0.255l1.495,1c0.082,0.055,0.178,0.084,0.276,0.084
		c0.148,0,0.287-0.065,0.382-0.177L22.422,1H18.5C18.224,1,18,0.776,18,0.5S18.224,0,18.5,0h5c0.023,0,0.065,0.007,0.087,0.013l0,0
		c0.008,0,0.043,0.005,0.084,0.02c0.042,0.015,0.073,0.035,0.093,0.048c0,0,0,0,0,0c0.002,0,0.03,0.013,0.058,0.037
		c0.011,0.009,0.022,0.021,0.033,0.033c0.023,0.024,0.038,0.046,0.049,0.062c0.015,0.02,0.034,0.045,0.05,0.079
		c0.015,0.032,0.022,0.063,0.026,0.082c0.006,0.024,0.014,0.051,0.017,0.083C23.999,0.471,24,0.486,24,0.5v5
		C24,5.776,23.776,6,23.5,6S23,5.776,23,5.5V1.865l-4.042,4.777c-0.286,0.338-0.703,0.531-1.145,0.531
		c-0.297,0-0.584-0.087-0.832-0.252l-1.496-1c-0.083-0.056-0.18-0.085-0.279-0.085c-0.151,0-0.293,0.069-0.389,0.189l-2.939,3.678
		C11.783,9.822,11.641,9.89,11.488,9.89z"/>
	<path d="M3.5,24c-0.258,0-0.477-0.201-0.498-0.458L2.54,18H0.5C0.224,18,0,17.776,0,17.5V14c0-3.033,2.467-5.5,5.5-5.5
		S11,10.967,11,14v3.5c0,0.276-0.224,0.5-0.5,0.5H8.46l-0.462,5.542C7.977,23.799,7.758,24,7.5,24H3.5z M7.04,23l0.462-5.542
		C7.523,17.201,7.742,17,8,17h2v-3c0-2.481-2.019-4.5-4.5-4.5S1,11.519,1,14v3h2c0.258,0,0.477,0.201,0.498,0.458L3.96,23H7.04z"/>
	<path d="M5.5,8c-2.206,0-4-1.794-4-4s1.794-4,4-4s4,1.794,4,4S7.706,8,5.5,8z M5.5,1c-1.654,0-3,1.346-3,3s1.346,3,3,3s3-1.346,3-3
		S7.154,1,5.5,1z"/>
</g>
</svg>
