<?xml version="1.0" encoding="utf-8"?>
<!-- Generator: Adobe Illustrator 22.1.0, SVG Export Plug-In . SVG Version: 6.00 Build 0)  -->
<svg version="1.1" id="Light" xmlns="http://www.w3.org/2000/svg" xmlns:xlink="http://www.w3.org/1999/xlink" x="0px" y="0px"
	 viewBox="0 0 24 24" style="enable-background:new 0 0 24 24;" xml:space="preserve">
<g>
	<title>single-neutral</title>
	<path d="M10,24c-0.258,0-0.477-0.201-0.498-0.458L9.04,18H7c-0.276,0-0.5-0.224-0.5-0.5V14c0-3.033,2.467-5.5,5.5-5.5
		s5.5,2.467,5.5,5.5v3.5c0,0.276-0.224,0.5-0.5,0.5h-2.04l-0.462,5.542C14.477,23.799,14.258,24,14,24H10z M13.54,23l0.462-5.542
		C14.023,17.201,14.242,17,14.5,17h2v-3c0-2.481-2.019-4.5-4.5-4.5c-2.481,0-4.5,2.019-4.5,4.5v3h2c0.258,0,0.477,0.201,0.498,0.458
		L10.46,23H13.54z"/>
	<path d="M12,8C9.794,8,8,6.206,8,4s1.794-4,4-4s4,1.794,4,4S14.206,8,12,8z M12,1c-1.654,0-3,1.346-3,3s1.346,3,3,3
		c1.654,0,3-1.346,3-3S13.654,1,12,1z"/>
</g>
</svg>
