<svg xmlns="http://www.w3.org/2000/svg" viewBox="0 0 24 24"><defs><style>.a{fill:none;stroke:currentColor;stroke-linecap:round;stroke-linejoin:round;}</style></defs><title>time-clock-file-add</title><circle class="a" cx="17.5" cy="17.501" r="6"/><line class="a" x1="17.5" y1="14.501" x2="17.5" y2="20.501"/><line class="a" x1="20.5" y1="17.501" x2="14.5" y2="17.501"/><path class="a" d="M10.5,23.5h-9a1,1,0,0,1-1-1V1.5a1,1,0,0,1,1-1H14.793A1,1,0,0,1,15.5.794L19.207,4.5a1,1,0,0,1,.293.707V8.5"/><path class="a" d="M8.189,15.327a5,5,0,1,1,6.019-6.513"/><polyline class="a" points="9.5 7.501 9.5 10.501 11.5 10.501"/></svg>