<svg id="Light" xmlns="http://www.w3.org/2000/svg" viewBox="0 0 24 24"><defs><style>.cls-1{fill:none;stroke:currentColor;stroke-linecap:round;stroke-linejoin:round;}</style></defs><title>single-woman-actions-music</title><circle class="cls-1" cx="13.5" cy="21.5" r="2"/><circle class="cls-1" cx="21.5" cy="19.5" r="2"/><path class="cls-1" d="M23.5,19.5V12.705a1,1,0,0,0-1.184-.983l-6,1.125a1,1,0,0,0-.816.983V21.5"/><path class="cls-1" d="M2.547,4.577A4.637,4.637,0,0,0,6,2.974a4.637,4.637,0,0,0,3.453,1.6"/><circle class="cls-1" cx="6" cy="4" r="3.5"/><path class="cls-1" d="M6,9a3.8,3.8,0,0,1,3.7,2.918L11.5,18.5H8.543l-1.054,5h-3l-1.054-5H.5l1.805-6.582A3.8,3.8,0,0,1,6,9Z"/></svg>