<svg id="Light" xmlns="http://www.w3.org/2000/svg" viewBox="0 0 24 24"><defs><style>.cls-1{fill:none;stroke:currentColor;stroke-linecap:round;stroke-linejoin:round;}</style></defs><title>single-woman-actions-share-1</title><line class="cls-1" x1="0.5" y1="15.5" x2="0.5" y2="23.5"/><path class="cls-1" d="M15.5,22.5a3,3,0,0,0-3-3H8.75a3,3,0,0,0-3-3H.5v6Z"/><line class="cls-1" x1="5.75" y1="19.5" x2="9.5" y2="19.5"/><path class="cls-1" d="M21.453,4.577A4.637,4.637,0,0,1,18,2.974a4.637,4.637,0,0,1-3.453,1.6"/><circle class="cls-1" cx="18" cy="4" r="3.5"/><path class="cls-1" d="M17.5,23.5h2.011l1.054-5H23.5l-1.8-6.582a3.8,3.8,0,0,0-7.39,0l-1.25,4.56"/></svg>