<svg id="Light" xmlns="http://www.w3.org/2000/svg" viewBox="0 0 24 24"><defs><style>.cls-1{fill:none;stroke:currentColor;stroke-linecap:round;stroke-linejoin:round;}</style></defs><title>single-woman-actions-flash</title><path class="cls-1" d="M20.5,10.226a.25.25,0,0,0-.445-.157L14.589,16.9a.375.375,0,0,0,.286.618H17.5V22.8a.25.25,0,0,0,.445.156l5.466-6.826a.376.376,0,0,0-.286-.618H20.5Z"/><path class="cls-1" d="M2.547,4.577A4.637,4.637,0,0,0,6,2.974a4.637,4.637,0,0,0,3.453,1.6"/><circle class="cls-1" cx="6" cy="4" r="3.5"/><path class="cls-1" d="M6,9a3.8,3.8,0,0,1,3.7,2.918L11.5,18.5H8.543l-1.054,5h-3l-1.054-5H.5l1.805-6.582A3.8,3.8,0,0,1,6,9Z"/></svg>