<svg id="Light" xmlns="http://www.w3.org/2000/svg" viewBox="0 0 24 24"><defs><style>.cls-1{fill:none;stroke:currentColor;stroke-linecap:round;stroke-linejoin:round;}</style></defs><title>single-woman-actions-edit-1</title><path class="cls-1" d="M15.7,22.313l-3.335.953a.5.5,0,0,1-.618-.618l.953-3.335,7.093-7.093a2.2,2.2,0,0,1,2.923-.232,2.122,2.122,0,0,1,.163,3.147Z"/><line class="cls-1" x1="18.979" y1="13.035" x2="21.979" y2="16.035"/><line class="cls-1" x1="12.7" y1="19.313" x2="15.7" y2="22.313"/><path class="cls-1" d="M2.547,4.577A4.637,4.637,0,0,0,6,2.974a4.637,4.637,0,0,0,3.453,1.6"/><circle class="cls-1" cx="6" cy="4" r="3.5"/><path class="cls-1" d="M6,9a3.8,3.8,0,0,1,3.7,2.918L11.5,18.5H8.543l-1.054,5h-3l-1.054-5H.5l1.805-6.582A3.8,3.8,0,0,1,6,9Z"/></svg>