<svg id="Light" xmlns="http://www.w3.org/2000/svg" viewBox="0 0 24 24"><defs><style>.cls-1{fill:none;stroke:currentColor;stroke-linecap:round;stroke-linejoin:round;}</style></defs><title>single-woman-actions-key</title><path class="cls-1" d="M16.405,20.231a1.25,1.25,0,1,1,0-1.768A1.251,1.251,0,0,1,16.405,20.231Z"/><path class="cls-1" d="M19.048,17.942l4.305-4.295a.5.5,0,0,0,.147-.354V12a.5.5,0,0,0-.5-.5H21.7a.5.5,0,0,0-.344.137l-4.429,4.184a4,4,0,1,0,2.122,2.121Z"/><path class="cls-1" d="M2.547,4.577A4.637,4.637,0,0,0,6,2.974a4.637,4.637,0,0,0,3.453,1.6"/><circle class="cls-1" cx="6" cy="4" r="3.5"/><path class="cls-1" d="M9.435,18.5H8.543l-1.054,5h-3l-1.054-5H.5l1.805-6.582a3.8,3.8,0,0,1,7.39,0l.7,2.559"/></svg>