<svg id="Light" xmlns="http://www.w3.org/2000/svg" viewBox="0 0 24 24"><defs><style>.cls-1{fill:none;stroke:currentColor;stroke-linecap:round;stroke-linejoin:round;}</style></defs><title>single-woman-actions-alarm</title><path class="cls-1" d="M22.5,20.5a.5.5,0,0,0,.4-.792,4.03,4.03,0,0,1-.9-2.541v-1.5a4.116,4.116,0,0,0-3.607-4.153A4,4,0,0,0,14,15.5v1.667a4.03,4.03,0,0,1-.9,2.541.5.5,0,0,0,.4.792Z"/><path class="cls-1" d="M16.714,22.5a1.327,1.327,0,0,0,2.572,0"/><path class="cls-1" d="M2.547,4.577A4.637,4.637,0,0,0,6,2.974a4.637,4.637,0,0,0,3.453,1.6"/><circle class="cls-1" cx="6" cy="4" r="3.5"/><path class="cls-1" d="M6,9a3.8,3.8,0,0,1,3.7,2.918L11.5,18.5H8.543l-1.054,5h-3l-1.054-5H.5l1.805-6.582A3.8,3.8,0,0,1,6,9Z"/></svg>