<svg xmlns="http://www.w3.org/2000/svg" viewBox="0 0 24 24"><defs><style>.a{fill:none;stroke:currentColor;stroke-linecap:round;stroke-linejoin:round;stroke-width:1.5px;}</style></defs><title>rating-star-give</title><line class="a" x1="0.751" y1="14.25" x2="0.751" y2="23.25"/><path class="a" d="M15.751,21.75a3,3,0,0,0-3-3H9a3,3,0,0,0-3-3H.751v6Z"/><line class="a" x1="6.001" y1="18.75" x2="8.999" y2="18.75"/><path class="a" d="M12.709,15.709l1.471-.856,5.4,3.14a.187.187,0,0,0,.277-.2l-1.319-6.1L23.187,7.53A.187.187,0,0,0,23.08,7.2l-6.21-.631L14.352.862a.188.188,0,0,0-.344,0L11.49,6.573,5.28,7.2a.187.187,0,0,0-.106.326l4.653,4.161L9.5,13.215"/></svg>