<svg xmlns="http://www.w3.org/2000/svg" viewBox="0 0 24 24"><defs><style>.a{fill:none;stroke:currentColor;stroke-linecap:round;stroke-linejoin:round;stroke-width:1.5px;}</style></defs><title>rating-star-top</title><path class="a" d="M12.53,1.075,13.779,3.75h2.127a.583.583,0,0,1,.42,1L14.373,6.453l1.082,2.485a.59.59,0,0,1-.84.737L12,8.2,9.384,9.675a.589.589,0,0,1-.839-.737L9.627,6.453,7.674,4.747a.583.583,0,0,1,.419-1H10.22l1.249-2.675A.6.6,0,0,1,12.53,1.075Z"/><line class="a" x1="12" y1="8.204" x2="12" y2="14.25"/><path class="a" d="M4.5,3.6a11.25,11.25,0,1,0,15,0"/><path class="a" d="M5.635,9.735a6.75,6.75,0,1,0,12.73,0"/></svg>