<svg xmlns="http://www.w3.org/2000/svg" viewBox="0 0 24 24"><defs><style>.a{fill:none;stroke:currentColor;stroke-linecap:round;stroke-linejoin:round;stroke-width:1.5px;}</style></defs><title>rating-star-bubble-1</title><path class="a" d="M12.593,6.8l1.4,2.95h2.377a.651.651,0,0,1,.469,1.114L14.652,12.81l1.209,2.778a.658.658,0,0,1-.938.823L12,14.767,9.077,16.411a.658.658,0,0,1-.938-.823L9.348,12.81,7.165,10.864A.651.651,0,0,1,7.634,9.75h2.377l1.4-2.95A.665.665,0,0,1,12.593,6.8Z"/><path class="a" d="M12.576,1.013l1.878,2.161a.765.765,0,0,0,.748.243l2.79-.645a.764.764,0,0,1,.932.678l.25,2.852a.761.761,0,0,0,.462.636l2.636,1.119a.763.763,0,0,1,.356,1.1l-1.475,2.454a.764.764,0,0,0,0,.786l1.475,2.454a.763.763,0,0,1-.356,1.1l-2.636,1.119a.761.761,0,0,0-.462.636l-.25,2.852a.764.764,0,0,1-.932.678l-2.79-.645a.765.765,0,0,0-.748.243l-1.878,2.162a.765.765,0,0,1-1.152,0L9.546,20.826a.765.765,0,0,0-.748-.243l-2.79.645a.764.764,0,0,1-.932-.678L4.826,17.7a.761.761,0,0,0-.462-.636L1.728,15.943a.763.763,0,0,1-.356-1.1l1.475-2.454a.76.76,0,0,0,0-.786L1.372,9.153a.763.763,0,0,1,.356-1.1L4.364,6.938A.761.761,0,0,0,4.826,6.3l.25-2.852a.764.764,0,0,1,.932-.678l2.79.645a.765.765,0,0,0,.748-.243l1.878-2.161A.763.763,0,0,1,12.576,1.013Z"/></svg>