<svg xmlns="http://www.w3.org/2000/svg" viewBox="0 0 24 24"><title>phone-expand-1</title><path d="M9.084,3.5h5.832a.5.5,0,0,0,.342-.865L12.754.3a1.106,1.106,0,0,0-1.508,0l-2.5,2.34a.5.5,0,0,0,.342.865Z"/><path d="M14.916,20.5H9.084a.5.5,0,0,0-.342.865l2.5,2.339a1.107,1.107,0,0,0,1.508,0l2.5-2.34a.5.5,0,0,0-.342-.865Z"/><path d="M23.7,11.246l-2.34-2.5a.5.5,0,0,0-.865.341v5.833a.5.5,0,0,0,.865.34l2.339-2.5A1.106,1.106,0,0,0,23.7,11.246Z"/><path d="M3.185,8.619a.5.5,0,0,0-.548.124L.3,11.245a1.106,1.106,0,0,0,0,1.509l2.34,2.5a.5.5,0,0,0,.865-.34V9.084A.5.5,0,0,0,3.185,8.619Z"/><path d="M14.7,5H9.3A2.285,2.285,0,0,0,7,7.266v9.469A2.284,2.284,0,0,0,9.3,19h5.4A2.284,2.284,0,0,0,17,16.735V7.266A2.285,2.285,0,0,0,14.7,5Zm.9,10a1,1,0,0,1-1,1H9.4a1,1,0,0,1-1-1V7.325c0-.552.447-.5,1-.5h5.2c.553,0,1-.052,1,.5Z"/></svg>