<svg xmlns="http://www.w3.org/2000/svg" viewBox="0 0 24 24"><title>phone-rotate-1</title><path d="M23.843,6.339a9.789,9.789,0,0,0-6-4.327V.873A.75.75,0,0,0,16.638.278l-2.6,2a.75.75,0,0,0,0,1.189l2.6,2a.765.765,0,0,0,.789.079.749.749,0,0,0,.419-.673V4.082A7.808,7.808,0,0,1,22.15,7.4a1.014,1.014,0,0,0,1.379.315A1,1,0,0,0,23.843,6.339Z"/><path d="M9.99,20.985c-.033-.03-.068-.057-.1-.084L7.624,19.146c-.211-.163-.476-.336-.725-.24a.637.637,0,0,0-.323.626,3.483,3.483,0,0,1,.015.749,7.722,7.722,0,0,1-4.465-3.043,2.261,2.261,0,0,0-.672-.738,1,1,0,0,0-1.043.058,1,1,0,0,0-.394.966,1.792,1.792,0,0,0,.317.667A9.964,9.964,0,0,0,6.591,22.33a6.173,6.173,0,0,1-.017.921.694.694,0,0,0,.336.589c.273.124.513-.09.717-.246l2.187-1.682c.2-.157.429-.368.383-.62A.553.553,0,0,0,9.99,20.985Z"/><path d="M10.869,2.537a2.5,2.5,0,0,0-3.536,0L2.4,7.473a2.5,2.5,0,0,0,0,3.535l9.464,9.464a2.5,2.5,0,0,0,3.535,0l4.935-4.935a2.5,2.5,0,0,0,0-3.536Zm-.738,1.911,7,7a1,1,0,0,1,0,1.414l-4.409,4.41a1,1,0,0,1-1.414,0l-7-7a1,1,0,0,1,0-1.415L8.717,4.448A1,1,0,0,1,10.131,4.448Z"/></svg>