<?xml version="1.0" encoding="utf-8"?>
<!-- Generator: Adobe Illustrator 22.1.0, SVG Export Plug-In . SVG Version: 6.00 Build 0)  -->
<svg version="1.1" id="Layer_1" xmlns="http://www.w3.org/2000/svg" xmlns:xlink="http://www.w3.org/1999/xlink" x="0px" y="0px"
	 viewBox="0 0 24 24" style="enable-background:new 0 0 24 24;" xml:space="preserve">
<title>smiley-decode</title>
<g>
	<path d="M18.75,22.5c-0.414,0-0.75-0.336-0.75-0.75v-3c0-0.414,0.336-0.75,0.75-0.75h3c0.414,0,0.75,0.336,0.75,0.75v3
		c0,0.414-0.336,0.75-0.75,0.75H18.75z M21,21v-1.5h-1.5V21H21z"/>
	<path d="M6.75,22.5C6.336,22.5,6,22.164,6,21.75S6.336,21,6.75,21H7.5v-2.25C7.5,18.337,7.836,18,8.25,18S9,18.337,9,18.75V21h0.75
		c0.414,0,0.75,0.336,0.75,0.75s-0.336,0.75-0.75,0.75H6.75z"/>
	<path d="M12.75,22.5c-0.115,0-0.231-0.027-0.335-0.079c-0.37-0.185-0.52-0.636-0.336-1.006l1.5-3C13.707,18.159,13.964,18,14.25,18
		s0.543,0.159,0.671,0.415l1.5,3c0.185,0.37,0.034,0.821-0.335,1.006c-0.104,0.052-0.22,0.079-0.335,0.079
		c-0.286,0-0.543-0.159-0.671-0.415l-0.829-1.658l-0.829,1.658C13.293,22.342,13.036,22.5,12.75,22.5z"/>
	<path d="M23.225,13.5c-0.393,0-0.721-0.307-0.748-0.7c-0.349-5.225-4.552-9.428-9.777-9.777C12.465,3.007,12.226,3,11.992,3
		C6.489,3,1.89,7.304,1.523,12.8c-0.026,0.393-0.355,0.7-0.75,0.7c-0.008,0-0.038-0.001-0.046-0.001
		c-0.415-0.028-0.728-0.386-0.701-0.798c0.214-3.198,1.66-6.122,4.072-8.232C6.287,2.554,9.088,1.5,11.985,1.5
		c0.27,0,0.544,0.009,0.814,0.027C18.771,1.925,23.575,6.729,23.974,12.7c0.027,0.412-0.286,0.771-0.698,0.798
		C23.257,13.5,23.24,13.5,23.225,13.5z"/>
	<circle cx="7.285" cy="11.018" r="1.125"/>
	<circle cx="17.25" cy="11.018" r="1.125"/>
	<path d="M10.018,10.268c-0.287,0-0.545-0.16-0.673-0.418C9.065,9.282,8.593,8.823,8.018,8.556c-0.4-0.199-0.835-0.302-1.268-0.302
		c-0.199,0-0.397,0.021-0.59,0.063C6.107,8.329,6.053,8.334,5.999,8.334c-0.35,0-0.657-0.248-0.732-0.591
		C5.225,7.549,5.261,7.348,5.369,7.179C5.477,7.011,5.644,6.894,5.84,6.852c0.298-0.065,0.604-0.098,0.911-0.098
		c0.664,0,1.327,0.156,1.918,0.451c0.868,0.403,1.589,1.108,2.021,1.982c0.183,0.371,0.031,0.821-0.34,1.005
		C10.247,10.242,10.132,10.268,10.018,10.268z"/>
	<path d="M14.25,10.268c-0.118,0-0.236-0.028-0.341-0.082c-0.178-0.091-0.311-0.247-0.372-0.437
		c-0.062-0.191-0.045-0.394,0.046-0.572c0.75-1.467,2.303-2.416,3.956-2.416c0.294,0,0.591,0.03,0.88,0.089
		c0.196,0.04,0.365,0.154,0.476,0.321c0.11,0.167,0.149,0.367,0.109,0.563c-0.071,0.348-0.38,0.6-0.735,0.6c0,0,0,0,0,0
		c-0.049,0-0.099-0.005-0.148-0.015c-0.191-0.039-0.386-0.058-0.581-0.058c-1.095,0-2.124,0.628-2.621,1.599
		C14.789,10.112,14.533,10.268,14.25,10.268z"/>
	<path d="M0.75,16.5C0.336,16.5,0,16.164,0,15.75S0.336,15,0.75,15h22.5c0.414,0,0.75,0.336,0.75,0.75s-0.336,0.75-0.75,0.75H0.75z"
		/>
	<path d="M3.75,22.5c-0.2,0-0.389-0.078-0.53-0.22l-0.97-0.97l-0.97,0.97c-0.142,0.142-0.33,0.22-0.53,0.22s-0.389-0.078-0.53-0.22
		c-0.292-0.292-0.292-0.768,0-1.061l0.97-0.97l-0.97-0.97c-0.292-0.292-0.292-0.768,0-1.061C0.361,18.078,0.55,18,0.75,18
		s0.389,0.078,0.53,0.22l0.97,0.97l0.97-0.97C3.361,18.078,3.55,18,3.75,18s0.389,0.078,0.53,0.22c0.292,0.292,0.292,0.768,0,1.061
		l-0.97,0.97l0.97,0.97c0.292,0.292,0.292,0.768,0,1.061C4.139,22.422,3.95,22.5,3.75,22.5z"/>
</g>
</svg>
