<?xml version="1.0" encoding="utf-8"?>
<!-- Generator: Adobe Illustrator 22.1.0, SVG Export Plug-In . SVG Version: 6.00 Build 0)  -->
<svg version="1.1" id="Layer_1" xmlns="http://www.w3.org/2000/svg" xmlns:xlink="http://www.w3.org/1999/xlink" x="0px" y="0px"
	 viewBox="0 0 24 24" style="enable-background:new 0 0 24 24;" xml:space="preserve">
<title>smiley-sick-contageous</title>
<g>
	<path d="M5.732,9.518c-0.118,0-0.236-0.029-0.342-0.083C5.212,9.344,5.08,9.189,5.018,8.998S4.973,8.604,5.065,8.426
		c0.751-1.467,2.305-2.415,3.958-2.415c0.294,0,0.589,0.03,0.877,0.088c0.405,0.082,0.668,0.479,0.586,0.884
		c-0.071,0.348-0.38,0.601-0.735,0.601c-0.049,0-0.098-0.005-0.148-0.015C9.41,7.53,9.215,7.51,9.02,7.51
		C7.926,7.51,6.897,8.138,6.4,9.11C6.271,9.362,6.015,9.518,5.732,9.518z"/>
	<path d="M18.268,9.518c-0.283,0-0.539-0.156-0.668-0.408c-0.498-0.972-1.526-1.599-2.621-1.599c-0.194,0-0.389,0.02-0.58,0.058
		c-0.051,0.01-0.1,0.015-0.148,0.015l0,0c-0.356,0-0.665-0.253-0.736-0.601c-0.04-0.196-0.001-0.396,0.11-0.563
		c0.111-0.167,0.28-0.281,0.476-0.321c0.288-0.058,0.583-0.088,0.877-0.088c1.653,0,3.207,0.948,3.958,2.415
		c0.091,0.178,0.108,0.381,0.046,0.572c-0.062,0.191-0.194,0.346-0.372,0.437C18.505,9.49,18.386,9.518,18.268,9.518z"/>
	<path d="M12,24c-4.422,0-8.472-2.426-10.573-6.332C1.396,17.622,1.37,17.573,1.35,17.52C0.467,15.823,0,13.915,0,12
		c0-0.222,0.008-0.454,0.024-0.729c0-0.041,0.003-0.083,0.009-0.125C0.476,4.894,5.729,0,12,0c6.271,0,11.523,4.894,11.966,11.145
		c0.007,0.043,0.01,0.086,0.009,0.127C23.992,11.547,24,11.779,24,12c0,1.915-0.467,3.823-1.351,5.521
		c-0.02,0.052-0.045,0.101-0.076,0.146C20.472,21.574,16.423,24,12,24z M3.387,18c1.969,2.83,5.141,4.5,8.613,4.5
		c3.472,0,6.644-1.67,8.613-4.5H18c0,1.241-1.009,2.25-2.25,2.25h-7.5C7.009,20.25,6,19.241,6,18H3.387z M8.25,13.5
		c-0.414,0-0.75,0.336-0.75,0.75V18c0,0.414,0.336,0.75,0.75,0.75h7.5c0.414,0,0.75-0.336,0.75-0.75v-3.75
		c0-0.414-0.336-0.75-0.75-0.75H8.25z M21.483,16.5c0.627-1.314,0.967-2.712,1.012-4.166l-4.507,1.69
		C17.996,14.1,18,14.176,18,14.25v2.25H21.483z M6,16.5v-2.25c0-0.074,0.004-0.15,0.012-0.225l-4.507-1.69
		C1.55,13.788,1.89,15.186,2.517,16.5H6z M15.75,12c0.605,0,1.172,0.239,1.593,0.665l5.082-1.906C21.805,5.544,17.281,1.5,12,1.5
		c-5.281,0-9.805,4.044-10.425,9.259l5.081,1.906C7.078,12.239,7.645,12,8.25,12H15.75z"/>
</g>
</svg>
