<?xml version="1.0" encoding="utf-8"?>
<!-- Generator: Adobe Illustrator 22.1.0, SVG Export Plug-In . SVG Version: 6.00 Build 0)  -->
<svg version="1.1" id="Layer_1" xmlns="http://www.w3.org/2000/svg" xmlns:xlink="http://www.w3.org/1999/xlink" x="0px" y="0px"
	 viewBox="0 0 24 24" style="enable-background:new 0 0 24 24;" xml:space="preserve">
<title>smiley-devastated-1</title>
<g>
	<path d="M12,24C5.383,24,0,18.617,0,12C0,5.383,5.383,0,12,0c6.617,0,12,5.383,12,12C24,18.617,18.617,24,12,24z M12,1.5
		C6.21,1.5,1.5,6.21,1.5,12c0,5.79,4.71,10.5,10.5,10.5c5.79,0,10.5-4.71,10.5-10.5C22.5,6.21,17.79,1.5,12,1.5z"/>
	<path d="M7.504,12.756c-0.17,0-0.342-0.017-0.51-0.051c-0.668-0.135-1.243-0.522-1.619-1.09c-0.111-0.167-0.15-0.367-0.11-0.563
		s0.154-0.365,0.321-0.476C5.709,10.493,5.852,10.45,6,10.45c0.253,0,0.486,0.125,0.625,0.336c0.155,0.234,0.392,0.393,0.666,0.448
		c0.07,0.014,0.141,0.021,0.212,0.021c0.205,0,0.404-0.061,0.577-0.176c0.118-0.078,0.217-0.177,0.295-0.295
		C8.514,10.575,8.748,10.45,9,10.45c0.148,0,0.291,0.043,0.415,0.125c0.167,0.111,0.281,0.28,0.32,0.476s0.001,0.396-0.11,0.563
		C9.436,11.9,9.195,12.141,8.91,12.33C8.49,12.608,8.004,12.756,7.504,12.756z"/>
	<path d="M16.504,12.756c-0.17,0-0.342-0.017-0.51-0.051c-0.667-0.135-1.242-0.522-1.619-1.09c-0.111-0.167-0.15-0.367-0.11-0.563
		s0.154-0.365,0.321-0.476c0.123-0.082,0.266-0.125,0.414-0.125c0.252,0,0.486,0.125,0.625,0.335
		c0.155,0.234,0.392,0.394,0.667,0.449c0.07,0.014,0.141,0.021,0.211,0.021c0.205,0,0.405-0.061,0.578-0.175
		c0.118-0.078,0.217-0.177,0.295-0.294c0.139-0.21,0.373-0.335,0.625-0.335c0.147,0,0.29,0.043,0.414,0.125
		c0.167,0.111,0.281,0.28,0.321,0.476c0.04,0.197,0.001,0.397-0.11,0.564c-0.189,0.286-0.43,0.527-0.716,0.716
		C17.49,12.608,17.004,12.756,16.504,12.756z"/>
	<path d="M15.756,19.65c-0.102,0-0.201-0.02-0.294-0.06c-1.066-0.455-2.2-0.686-3.371-0.686s-2.305,0.231-3.37,0.686
		c-0.094,0.04-0.193,0.06-0.295,0.06c-0.091,0-0.184-0.009-0.276-0.026c-0.819-0.154-1.36-0.944-1.207-1.762
		c0.423-2.077,2.031-3.687,4.099-4.108c0.349-0.071,0.705-0.107,1.058-0.107c1.025,0,2.023,0.302,2.887,0.873
		c1.169,0.774,1.968,1.957,2.247,3.331c0.019,0.101,0.028,0.193,0.028,0.286c0.002,0.401-0.154,0.78-0.438,1.066
		c-0.284,0.287-0.663,0.445-1.067,0.447c0,0-0.001,0-0.001,0H15.756z M12.099,15.147c-0.252,0-0.507,0.026-0.757,0.077
		c-1.456,0.297-2.594,1.418-2.913,2.865c1.166-0.455,2.396-0.685,3.662-0.685c1.262,0,2.49,0.229,3.653,0.681
		c-0.204-0.956-0.767-1.774-1.583-2.314C13.543,15.363,12.83,15.147,12.099,15.147z"/>
	<path d="M6.003,8.997c-0.307,0-0.614-0.033-0.912-0.098C4.686,8.811,4.429,8.41,4.517,8.006C4.592,7.664,4.9,7.416,5.249,7.416
		c0.054,0,0.108,0.006,0.161,0.018c0.193,0.042,0.392,0.063,0.591,0.063c0.432,0,0.863-0.101,1.248-0.293
		C7.84,6.929,8.315,6.468,8.596,5.9c0.127-0.257,0.385-0.417,0.673-0.417c0.114,0,0.229,0.027,0.331,0.077
		c0.371,0.183,0.524,0.634,0.34,1.005C9.509,7.438,8.784,8.145,7.9,8.555C7.325,8.843,6.665,8.997,6.003,8.997z"/>
	<path d="M18.106,8.989c-1.653,0-3.206-0.948-3.958-2.415c-0.091-0.178-0.108-0.381-0.046-0.572
		c0.062-0.191,0.194-0.346,0.372-0.437c0.105-0.054,0.223-0.083,0.342-0.083c0.283,0,0.539,0.156,0.668,0.408
		c0.498,0.972,1.526,1.599,2.621,1.599c0.194,0,0.389-0.02,0.58-0.058c0.05-0.01,0.1-0.015,0.148-0.015
		c0.356,0,0.665,0.253,0.736,0.601c0.04,0.196,0.001,0.396-0.11,0.563c-0.111,0.167-0.28,0.281-0.476,0.321
		C18.695,8.96,18.4,8.989,18.106,8.989z"/>
</g>
</svg>
