<?xml version="1.0" encoding="utf-8"?>
<!-- Generator: Adobe Illustrator 22.1.0, SVG Export Plug-In . SVG Version: 6.00 Build 0)  -->
<svg version="1.1" id="Layer_1" xmlns="http://www.w3.org/2000/svg" xmlns:xlink="http://www.w3.org/1999/xlink" x="0px" y="0px"
	 viewBox="0 0 24 24" style="enable-background:new 0 0 24 24;" xml:space="preserve">
<title>smiley-blush</title>
<g>
	<path d="M12,24C5.383,24,0,18.617,0,12C0,5.383,5.383,0,12,0c6.617,0,12,5.383,12,12C24,18.617,18.617,24,12,24z M12,1.5
		C6.21,1.5,1.5,6.21,1.5,12c0,5.79,4.71,10.5,10.5,10.5c5.79,0,10.5-4.71,10.5-10.5C22.5,6.21,17.79,1.5,12,1.5z"/>
	<circle cx="8.25" cy="9" r="1.125"/>
	<circle cx="15.75" cy="9" r="1.125"/>
	<path d="M5.25,14.25c-0.2,0-0.389-0.078-0.53-0.22c-0.292-0.292-0.292-0.768,0-1.061l0.75-0.75C5.611,12.078,5.8,12,6,12l0,0
		c0.2,0,0.389,0.078,0.53,0.22c0.292,0.292,0.292,0.768,0,1.061l-0.75,0.75C5.639,14.172,5.45,14.25,5.25,14.25z"/>
	<path d="M8.25,14.25c-0.2,0-0.389-0.078-0.53-0.22c-0.292-0.292-0.292-0.768,0-1.061l0.75-0.75C8.611,12.078,8.8,12,9,12l0,0
		c0.2,0,0.389,0.078,0.53,0.22c0.292,0.292,0.292,0.768,0,1.061l-0.75,0.75C8.639,14.172,8.45,14.25,8.25,14.25z"/>
	<path d="M15,14.25c-0.2,0-0.389-0.078-0.53-0.22c-0.292-0.292-0.292-0.768,0-1.061l0.75-0.75c0.142-0.142,0.33-0.22,0.53-0.22l0,0
		c0.2,0,0.389,0.078,0.53,0.22c0.292,0.292,0.292,0.768,0,1.061l-0.75,0.75C15.389,14.172,15.2,14.25,15,14.25z"/>
	<path d="M18,14.25c-0.2,0-0.389-0.078-0.53-0.22c-0.292-0.292-0.292-0.768,0-1.061l0.75-0.75c0.142-0.142,0.33-0.22,0.53-0.22l0,0
		c0.2,0,0.389,0.078,0.53,0.22c0.292,0.292,0.292,0.768,0,1.061l-0.75,0.75C18.389,14.172,18.2,14.25,18,14.25z"/>
	<path d="M9,19.5c-0.286,0-0.543-0.159-0.671-0.414c-0.185-0.37-0.034-0.821,0.335-1.006l3-1.5C11.768,16.527,11.884,16.5,12,16.5
		l0,0c0.116,0,0.232,0.027,0.335,0.079l3,1.5c0.37,0.185,0.52,0.636,0.335,1.006C15.543,19.341,15.286,19.5,15,19.5
		c-0.115,0-0.231-0.027-0.334-0.079L12,18.088l-2.665,1.333C9.232,19.473,9.116,19.5,9,19.5z"/>
</g>
</svg>
