<?xml version="1.0" encoding="utf-8"?>
<!-- Generator: Adobe Illustrator 22.1.0, SVG Export Plug-In . SVG Version: 6.00 Build 0)  -->
<svg version="1.1" id="Layer_1" xmlns="http://www.w3.org/2000/svg" xmlns:xlink="http://www.w3.org/1999/xlink" x="0px" y="0px"
	 viewBox="0 0 24 24" style="enable-background:new 0 0 24 24;" xml:space="preserve">
<title>smiley-rich</title>
<g>
	<path d="M12,24C5.383,24,0,18.617,0,12C0,5.383,5.383,0,12,0c6.617,0,12,5.383,12,12C24,18.617,18.617,24,12,24z M12,1.5
		C6.21,1.5,1.5,6.21,1.5,12c0,5.79,4.71,10.5,10.5,10.5c5.79,0,10.5-4.71,10.5-10.5C22.5,6.21,17.79,1.5,12,1.5z"/>
	<path d="M11.986,20.253c-1.159,0-2.276-0.262-3.319-0.779c-1.462-0.724-2.667-1.929-3.391-3.391
		C5.187,15.904,5.173,15.7,5.237,15.51c0.064-0.19,0.198-0.344,0.378-0.432C5.718,15.027,5.833,15,5.948,15
		c0.287,0,0.545,0.16,0.672,0.417c0.58,1.17,1.543,2.134,2.713,2.714c0.835,0.413,1.727,0.623,2.653,0.623c0,0,0,0,0,0
		c2.304,0,4.369-1.279,5.389-3.336C17.504,15.16,17.761,15,18.049,15c0.115,0,0.229,0.027,0.333,0.078
		c0.179,0.089,0.313,0.242,0.378,0.432c0.064,0.19,0.05,0.393-0.039,0.573C17.445,18.656,14.865,20.253,11.986,20.253z"/>
	<path d="M8.25,13.5c-0.414,0-0.75-0.336-0.75-0.75v-0.354c-0.674-0.154-1.282-0.543-1.705-1.099
		c-0.121-0.159-0.173-0.356-0.146-0.555c0.027-0.199,0.13-0.375,0.289-0.496c0.131-0.1,0.288-0.153,0.453-0.153
		c0.233,0,0.456,0.111,0.597,0.296c0.276,0.364,0.715,0.581,1.174,0.581L8.22,10.97c0.774,0,1.342-0.422,1.342-0.798
		c0-0.376-0.561-0.796-1.312-0.796c-1.551,0-2.813-1.031-2.813-2.298c0-1.052,0.85-1.943,2.063-2.213V4.5
		c0-0.414,0.336-0.75,0.75-0.75S9,4.086,9,4.5v0.357c0.675,0.154,1.284,0.542,1.705,1.095c0.25,0.329,0.186,0.801-0.143,1.051
		c-0.132,0.1-0.289,0.153-0.454,0.153c-0.236,0-0.454-0.108-0.597-0.296C9.234,6.496,8.798,6.279,8.345,6.279
		c-0.021,0-0.042,0-0.064,0.001C7.505,6.281,6.937,6.702,6.937,7.078c0,0.377,0.562,0.798,1.313,0.798
		c1.551,0,2.812,1.03,2.812,2.296c0,1.052-0.849,1.943-2.062,2.213v0.365C9,13.164,8.664,13.5,8.25,13.5z"/>
	<path d="M15.75,13.5c-0.414,0-0.75-0.336-0.75-0.75v-0.354c-0.674-0.154-1.283-0.543-1.705-1.099
		c-0.25-0.329-0.186-0.801,0.143-1.051c0.131-0.1,0.288-0.153,0.454-0.153c0.233,0,0.457,0.111,0.598,0.297
		c0.276,0.363,0.714,0.58,1.17,0.58l0.06-0.001c0.775,0,1.342-0.422,1.342-0.798c0-0.376-0.561-0.796-1.312-0.796
		c-1.551,0-2.813-1.031-2.813-2.298c0-1.052,0.85-1.943,2.063-2.213V4.5c0-0.414,0.336-0.75,0.75-0.75S16.5,4.086,16.5,4.5v0.356
		c0.675,0.154,1.284,0.542,1.705,1.096c0.25,0.329,0.186,0.801-0.143,1.051c-0.132,0.1-0.289,0.153-0.454,0.153
		c-0.236,0-0.454-0.108-0.597-0.295c-0.281-0.37-0.706-0.582-1.165-0.582c-0.022,0-0.043,0-0.065,0.001
		c-0.776,0.001-1.344,0.421-1.344,0.798c0,0.377,0.562,0.798,1.313,0.798c1.551,0,2.812,1.03,2.812,2.296
		c0,1.052-0.849,1.943-2.062,2.213v0.365C16.5,13.164,16.164,13.5,15.75,13.5z"/>
</g>
</svg>
