<?xml version="1.0" encoding="utf-8"?>
<!-- Generator: Adobe Illustrator 22.1.0, SVG Export Plug-In . SVG Version: 6.00 Build 0)  -->
<svg version="1.1" id="Layer_1" xmlns="http://www.w3.org/2000/svg" xmlns:xlink="http://www.w3.org/1999/xlink" x="0px" y="0px"
	 viewBox="0 0 24 24" style="enable-background:new 0 0 24 24;" xml:space="preserve">
<title>smiley-one-eye-smile</title>
<g>
	<circle cx="15.75" cy="8.25" r="1.125"/>
	<path d="M15.75,12C13.682,12,12,10.318,12,8.25s1.682-3.75,3.75-3.75s3.75,1.682,3.75,3.75S17.818,12,15.75,12z M15.75,6
		c-1.241,0-2.25,1.009-2.25,2.25s1.009,2.25,2.25,2.25S18,9.491,18,8.25S16.991,6,15.75,6z"/>
	<path d="M12,24C5.383,24,0,18.617,0,12C0,5.383,5.383,0,12,0c6.617,0,12,5.383,12,12C24,18.617,18.617,24,12,24z M12,1.5
		C6.21,1.5,1.5,6.21,1.5,12c0,5.79,4.71,10.5,10.5,10.5c5.79,0,10.5-4.71,10.5-10.5C22.5,6.21,17.79,1.5,12,1.5z"/>
	<path d="M11.993,21.006c-0.932,0-1.852-0.158-2.737-0.47C6.89,19.701,5.054,17.866,4.22,15.5c-0.133-0.377-0.112-0.784,0.061-1.146
		s0.476-0.634,0.854-0.768c0.159-0.057,0.328-0.086,0.5-0.086h12.732c0.827,0,1.5,0.673,1.5,1.5c0,0.17-0.029,0.337-0.085,0.499
		C18.619,18.793,15.489,21.006,11.993,21.006z M5.634,15c0.684,1.937,2.186,3.438,4.121,4.121c0.724,0.256,1.477,0.385,2.239,0.385
		c2.861,0,5.421-1.811,6.372-4.505L5.634,15z"/>
	<path d="M7.5,11.25c-1.654,0-3-1.346-3-3s1.346-3,3-3s3,1.346,3,3S9.154,11.25,7.5,11.25z M7.5,6.75C6.673,6.75,6,7.423,6,8.25
		s0.673,1.5,1.5,1.5S9,9.077,9,8.25S8.327,6.75,7.5,6.75z"/>
</g>
</svg>
