<?xml version="1.0" encoding="utf-8"?>
<!-- Generator: Adobe Illustrator 22.1.0, SVG Export Plug-In . SVG Version: 6.00 Build 0)  -->
<svg version="1.1" id="Layer_1" xmlns="http://www.w3.org/2000/svg" xmlns:xlink="http://www.w3.org/1999/xlink" x="0px" y="0px"
	 viewBox="0 0 24 24" style="enable-background:new 0 0 24 24;" xml:space="preserve">
<title>smiley-bad</title>
<g>
	<path d="M12,24C5.383,24,0,18.617,0,12C0,5.383,5.383,0,12,0c6.617,0,12,5.383,12,12C24,18.617,18.617,24,12,24z M12,1.5
		C6.21,1.5,1.5,6.21,1.5,12c0,5.79,4.71,10.5,10.5,10.5c5.79,0,10.5-4.71,10.5-10.5C22.5,6.21,17.79,1.5,12,1.5z"/>
	<path d="M8.335,19.5c-0.091,0-0.184-0.009-0.276-0.026C7.24,19.319,6.7,18.528,6.854,17.711c0.423-2.074,2.031-3.683,4.096-4.104
		c0.347-0.071,0.701-0.107,1.052-0.107c2.483,0,4.645,1.767,5.142,4.201c0.019,0.099,0.028,0.19,0.028,0.282
		c0.003,0.834-0.672,1.514-1.504,1.518c0,0-0.001,0-0.001,0H8.335z M12.001,15c-0.251,0-0.504,0.026-0.751,0.076
		C9.775,15.377,8.627,16.525,8.326,18h7.339C15.319,16.26,13.774,15,12.001,15z"/>
	<path d="M6,10.5c-0.414,0-0.75-0.336-0.75-0.75S5.586,9,6,9h1.939L6.22,7.28C6.078,7.139,6,6.95,6,6.75s0.078-0.389,0.22-0.53
		C6.361,6.078,6.55,6,6.75,6s0.389,0.078,0.53,0.22l3,3c0.215,0.215,0.279,0.536,0.163,0.818C10.327,10.318,10.055,10.5,9.75,10.5H6
		z"/>
	<path d="M14.25,10.5c-0.304,0-0.576-0.182-0.693-0.463C13.44,9.756,13.504,9.435,13.72,9.22l3-3C16.861,6.078,17.05,6,17.25,6
		s0.389,0.078,0.53,0.22C17.922,6.361,18,6.55,18,6.75s-0.078,0.389-0.22,0.53L16.061,9H18c0.414,0,0.75,0.336,0.75,0.75
		S18.414,10.5,18,10.5H14.25z"/>
</g>
</svg>
