<?xml version="1.0" encoding="utf-8"?>
<!-- Generator: Adobe Illustrator 22.1.0, SVG Export Plug-In . SVG Version: 6.00 Build 0)  -->
<svg version="1.1" id="Layer_1" xmlns="http://www.w3.org/2000/svg" xmlns:xlink="http://www.w3.org/1999/xlink" x="0px" y="0px"
	 viewBox="0 0 24 24" style="enable-background:new 0 0 24 24;" xml:space="preserve">
<title>smiley-drool</title>
<g>
	<path d="M14.997,24c-0.522,0-1.013-0.175-1.42-0.506c-0.327-0.266-0.569-0.61-0.705-0.998c-0.252,0.101-0.521,0.153-0.795,0.153
		c-0.025,0-0.05,0-0.075-0.001c-0.027,0.001-0.054,0.001-0.081,0.001c-1.155,0-2.107-0.909-2.169-2.069L9.75,19.937
		c-2.987-0.841-5.209-3.222-5.835-6.283c-0.045-0.222,0.011-0.449,0.154-0.625c0.143-0.175,0.354-0.276,0.581-0.276h14.7
		c0.226,0,0.438,0.1,0.581,0.275c0.143,0.174,0.199,0.402,0.154,0.624c-0.374,1.848-1.378,3.515-2.835,4.713v3.531
		c0,0.025-0.001,0.05-0.004,0.074c-0.11,1.06-0.957,1.907-2.014,2.017C15.154,23.996,15.075,24,14.997,24z M14.25,21.851
		c0.027,0.188,0.123,0.358,0.272,0.479c0.137,0.111,0.301,0.17,0.474,0.17c0.027,0,0.054-0.001,0.081-0.004
		c0.344-0.036,0.623-0.305,0.673-0.645v-4.567c-1.129,0.807-2.389,1.41-3.741,1.788c-0.019,0.006-0.043,0.011-0.068,0.016
		c-0.39,0.073-0.676,0.402-0.692,0.802l0,0.649c0.018,0.327,0.328,0.608,0.69,0.608l0.093,0l0.036,0.001
		c0.363,0,0.663-0.285,0.682-0.648c0.021-0.398,0.35-0.71,0.749-0.71c0.01,0,0.029,0,0.039,0.001
		c0.391,0.01,0.712,0.339,0.712,0.749V21.851z M5.634,14.254c0.734,2.08,2.442,3.673,4.586,4.258
		c0.343-0.458,0.844-0.777,1.413-0.892c1.186-0.335,2.295-0.872,3.296-1.595c0.27-0.18,0.566-0.271,0.868-0.271
		c0.213,0,0.421,0.045,0.618,0.133c0.276,0.115,0.502,0.321,0.649,0.576c0.573-0.648,1.016-1.397,1.302-2.208H5.634z"/>
	<path d="M8.215,23.353c-0.086,0-0.171-0.015-0.252-0.044C1.729,21.086-1.534,14.205,0.69,7.971
		c1.701-4.768,6.249-7.972,11.317-7.972c1.37,0,2.723,0.235,4.023,0.699c6.234,2.224,9.497,9.105,7.273,15.339
		c-0.598,1.676-1.581,3.225-2.843,4.479c-0.142,0.141-0.33,0.218-0.529,0.218l0,0c-0.201,0-0.39-0.079-0.532-0.221
		c-0.292-0.293-0.29-0.769,0.003-1.061c1.104-1.097,1.964-2.453,2.487-3.919c0.941-2.638,0.797-5.489-0.407-8.027
		c-1.203-2.538-3.319-4.454-5.957-5.396c-1.137-0.406-2.321-0.611-3.519-0.611c-4.435,0-8.415,2.803-9.904,6.975
		C0.157,13.93,3.012,19.951,8.467,21.897c0.39,0.139,0.593,0.569,0.454,0.958C8.815,23.153,8.532,23.353,8.215,23.353z"/>
	<path d="M5.732,9.522c-0.118,0-0.236-0.029-0.342-0.083C5.022,9.251,4.876,8.798,5.064,8.43c0.751-1.467,2.305-2.416,3.958-2.416
		c0.294,0,0.589,0.03,0.877,0.088c0.405,0.082,0.668,0.479,0.586,0.884c-0.071,0.348-0.38,0.601-0.735,0.601
		c-0.049,0-0.098-0.005-0.148-0.015C9.41,7.534,9.215,7.514,9.02,7.514c-1.094,0-2.123,0.628-2.62,1.599
		C6.271,9.365,6.015,9.522,5.732,9.522z"/>
	<path d="M18.268,9.522c-0.283,0-0.539-0.156-0.668-0.408c-0.497-0.972-1.526-1.599-2.621-1.599c-0.194,0-0.389,0.02-0.58,0.058
		c-0.051,0.01-0.1,0.015-0.148,0.015l0,0c-0.356,0-0.666-0.253-0.736-0.6c-0.083-0.405,0.18-0.802,0.585-0.884
		c0.288-0.058,0.583-0.088,0.877-0.088c1.653,0,3.207,0.948,3.958,2.415c0.091,0.178,0.108,0.382,0.046,0.572
		c-0.062,0.191-0.194,0.346-0.372,0.437C18.504,9.493,18.386,9.522,18.268,9.522z"/>
</g>
</svg>
