<svg xmlns="http://www.w3.org/2000/svg" viewBox="0 0 24 24"><title>focus-flower</title><rect x="10.75" y="15.5" width="2" height="8.5" rx="0.25" ry="0.25"/><ellipse cx="18.5" cy="19.25" rx="6.538" ry="1.541" transform="translate(-8.193 18.72) rotate(-45)"/><ellipse cx="5.25" cy="19.5" rx="1.5" ry="6.185" transform="translate(-12.251 9.424) rotate(-45)"/><path d="M11.75,13.986a7.509,7.509,0,0,0,7.5-7.5V1.07c0-1.045-.892-1.315-1.561-.646L15.427,2.686a.25.25,0,0,1-.354,0L12.811.424a1.54,1.54,0,0,0-2.122,0L8.427,2.686a.25.25,0,0,1-.354,0L5.811.424C5.134-.253,4.25.037,4.25,1.07V6.486A7.509,7.509,0,0,0,11.75,13.986Z"/></svg>