<svg xmlns="http://www.w3.org/2000/svg" viewBox="0 0 24 24"><title>focus-frame-target-alternate</title><path d="M21.25,2H2.75A2.752,2.752,0,0,0,0,4.75v14.5A2.752,2.752,0,0,0,2.75,22h18.5A2.752,2.752,0,0,0,24,19.25V4.75A2.752,2.752,0,0,0,21.25,2ZM22.5,19.25a1.252,1.252,0,0,1-1.25,1.25H2.75A1.252,1.252,0,0,1,1.5,19.25V4.75A1.252,1.252,0,0,1,2.75,3.5h18.5A1.252,1.252,0,0,1,22.5,4.75Z"/><path d="M3.75,9.5a.75.75,0,0,0,.75-.75v-2a.25.25,0,0,1,.25-.25h2a.75.75,0,0,0,0-1.5h-2A1.752,1.752,0,0,0,3,6.75v2A.75.75,0,0,0,3.75,9.5Z"/><path d="M19.25,5h-2a.75.75,0,0,0,0,1.5h2a.25.25,0,0,1,.25.25v2a.75.75,0,0,0,1.5,0v-2A1.752,1.752,0,0,0,19.25,5Z"/><path d="M6.75,17.5h-2a.25.25,0,0,1-.25-.25v-2a.75.75,0,0,0-1.5,0v2A1.752,1.752,0,0,0,4.75,19h2a.75.75,0,0,0,0-1.5Z"/><path d="M20.25,14.5a.75.75,0,0,0-.75.75v2a.25.25,0,0,1-.25.25h-2a.75.75,0,0,0,0,1.5h2A1.752,1.752,0,0,0,21,17.25v-2A.75.75,0,0,0,20.25,14.5Z"/><path d="M16.654,12.95a.249.249,0,0,1,.245-.2H18a.75.75,0,0,0,0-1.5H16.9a.25.25,0,0,1-.245-.2,4.762,4.762,0,0,0-3.7-3.7.25.25,0,0,1-.2-.245V6a.75.75,0,0,0-1.5,0V7.1a.25.25,0,0,1-.2.245,4.762,4.762,0,0,0-3.7,3.7.25.25,0,0,1-.245.2H6a.75.75,0,0,0,0,1.5H7.1a.25.25,0,0,1,.245.2,4.762,4.762,0,0,0,3.7,3.7.25.25,0,0,1,.2.245V18a.75.75,0,0,0,1.5,0V16.9a.25.25,0,0,1,.2-.245A4.762,4.762,0,0,0,16.654,12.95ZM12,15.25A3.25,3.25,0,1,1,15.25,12,3.254,3.254,0,0,1,12,15.25Z"/><circle cx="12" cy="12" r="1"/></svg>