<svg xmlns="http://www.w3.org/2000/svg" viewBox="0 0 24 24"><title>focus-auto</title><path d="M12,7.5a1.753,1.753,0,0,0-1.75,1.75v2a.25.25,0,0,0,.25.25h3a.249.249,0,0,0,.25-.25v-2A1.752,1.752,0,0,0,12,7.5Z"/><path d="M22.783,11.116l-2.46-2.46a.249.249,0,0,1-.074-.176V5A1.251,1.251,0,0,0,19,3.75H15.52a.251.251,0,0,1-.177-.073l-2.46-2.46a1.251,1.251,0,0,0-1.767,0l-2.46,2.46a.251.251,0,0,1-.177.073H5A1.252,1.252,0,0,0,3.749,5V8.48a.248.248,0,0,1-.073.176l-2.46,2.46a1.252,1.252,0,0,0,0,1.768l2.46,2.46a.249.249,0,0,1,.073.177V19A1.251,1.251,0,0,0,5,20.25h3.48a.251.251,0,0,1,.177.073l2.46,2.46a1.25,1.25,0,0,0,1.767,0l2.46-2.46a.251.251,0,0,1,.177-.073H19A1.25,1.25,0,0,0,20.249,19V15.521a.25.25,0,0,1,.074-.177l2.46-2.46A1.25,1.25,0,0,0,22.783,11.116ZM10.5,13a.25.25,0,0,0-.25.25v4a.75.75,0,0,1-1.5,0v-8a3.25,3.25,0,0,1,6.5,0v8a.75.75,0,0,1-1.5,0v-4A.249.249,0,0,0,13.5,13Z"/></svg>