<svg xmlns="http://www.w3.org/2000/svg" viewBox="0 0 24 24"><title>focus-auto-1</title><path d="M12,5.75a3.5,3.5,0,0,0-3.5,3.5v8a1,1,0,0,0,2,0v-3.5a.25.25,0,0,1,.25-.25h2.5a.25.25,0,0,1,.25.25v3.5a1,1,0,0,0,2,0v-8A3.5,3.5,0,0,0,12,5.75ZM10.75,11.5a.25.25,0,0,1-.25-.25v-2a1.5,1.5,0,0,1,3,0v2a.25.25,0,0,1-.25.25Z"/><path d="M5,2.5a1,1,0,0,0-1-1H2a2,2,0,0,0-2,2v2a1,1,0,0,0,2,0V4a.5.5,0,0,1,.5-.5H4A1,1,0,0,0,5,2.5Z"/><path d="M4,20.5H2.5A.5.5,0,0,1,2,20V18.5a1,1,0,0,0-2,0v2a2,2,0,0,0,2,2H4a1,1,0,0,0,0-2Z"/><path d="M22,1.5H20a1,1,0,0,0,0,2h1.5A.5.5,0,0,1,22,4V5.5a1,1,0,0,0,2,0v-2A2,2,0,0,0,22,1.5Z"/><path d="M23,17.5a1,1,0,0,0-1,1V20a.5.5,0,0,1-.5.5H20a1,1,0,0,0,0,2h2a2,2,0,0,0,2-2v-2A1,1,0,0,0,23,17.5Z"/></svg>