<svg xmlns="http://www.w3.org/2000/svg" viewBox="0 0 24 24"><defs><style>.a{fill:none;stroke:currentColor;stroke-linecap:round;stroke-linejoin:round;stroke-width:1.5px;}</style></defs><title>tags-download</title><path class="a" d="M9,19.188a1.5,1.5,0,0,1-2.121,0L1.5,13.81a1.5,1.5,0,0,1,0-2.122L12,1.188A1.5,1.5,0,0,1,13.061.749h5.378a1.5,1.5,0,0,1,1.5,1.5V7.628a1.5,1.5,0,0,1-.439,1.06"/><path class="a" d="M16.189,4.124a.375.375,0,1,0,.375.375.375.375,0,0,0-.375-.375h0"/><circle class="a" cx="16.939" cy="17.249" r="6"/><line class="a" x1="16.939" y1="14.249" x2="16.939" y2="20.249"/><line class="a" x1="16.939" y1="20.249" x2="14.689" y2="17.999"/><line class="a" x1="16.939" y1="20.249" x2="19.189" y2="17.999"/></svg>