<svg xmlns="http://www.w3.org/2000/svg" viewBox="0 0 24 24"><defs><style>.a{fill:none;stroke:currentColor;stroke-linecap:round;stroke-linejoin:round;stroke-width:1.5px;}</style></defs><title>tags-lock</title><path class="a" d="M9.75,19.188a1.5,1.5,0,0,1-2.121,0L2.25,13.81a1.5,1.5,0,0,1,0-2.122l10.5-10.5A1.5,1.5,0,0,1,13.811.749h5.378a1.5,1.5,0,0,1,1.5,1.5V7.628a1.5,1.5,0,0,1-.439,1.06"/><path class="a" d="M17.314,4.5a.375.375,0,0,0-.375-.375h0a.375.375,0,1,0,.375.375"/><rect class="a" x="13.189" y="15.749" width="9" height="7.5" rx="1.5" ry="1.5"/><path class="a" d="M17.689,11.249h0a3,3,0,0,0-3,3v1.5h6v-1.5A3,3,0,0,0,17.689,11.249Z"/><path class="a" d="M17.689,19.153a.375.375,0,1,0,.375.375.375.375,0,0,0-.375-.375h0"/></svg>