<svg xmlns="http://www.w3.org/2000/svg" viewBox="0 0 24 24"><defs><style>.a{fill:none;stroke:currentColor;stroke-linecap:round;stroke-linejoin:round;}</style></defs><title>android-sync</title><line class="a" x1="10.906" y1="3.504" x2="9.031" y2="1.504"/><line class="a" x1="13.094" y1="3.504" x2="14.969" y2="1.504"/><path class="a" d="M17.827,8.5a.5.5,0,0,0,.472-.666A6.541,6.541,0,0,0,12,3.5,6.537,6.537,0,0,0,5.685,7.84a.5.5,0,0,0,.473.664Z"/><path class="a" d="M2.5,20V12A1.326,1.326,0,0,1,4,10.5H5.5"/><path class="a" d="M21.5,20V12A1.326,1.326,0,0,0,20,10.5H18.5"/><polyline class="a" points="18.5 20.004 18.5 10.504 5.5 10.504 5.5 20.004"/><polyline class="a" points="10.5 20.004 8 20.004 8 22.504"/><path class="a" d="M15.612,20.493A3.715,3.715,0,0,1,8.452,20"/><polyline class="a" points="13.5 18.004 16 18.004 16 15.504"/><path class="a" d="M8.389,17.515a3.715,3.715,0,0,1,7.16.489"/><path class="a" d="M10.25,6a.25.25,0,1,1-.25.25A.25.25,0,0,1,10.25,6"/><path class="a" d="M13.75,6a.25.25,0,1,1-.25.25A.25.25,0,0,1,13.75,6"/></svg>