<svg xmlns="http://www.w3.org/2000/svg" viewBox="0 0 24 24"><defs><style>.a{fill:none;stroke:currentColor;stroke-linecap:round;stroke-linejoin:round;}</style></defs><title>android-download</title><path class="a" d="M2.5,19.5V11A1.326,1.326,0,0,1,4,9.5H5.5"/><path class="a" d="M21.5,19.5V11A1.326,1.326,0,0,0,20,9.5H18.5"/><line class="a" x1="10.98" y1="2.576" x2="9.037" y2="0.504"/><line class="a" x1="13.032" y1="2.576" x2="14.975" y2="0.504"/><path class="a" d="M17.833,7.5a.5.5,0,0,0,.472-.666,6.541,6.541,0,0,0-6.3-4.334A6.537,6.537,0,0,0,5.691,6.84a.5.5,0,0,0,.473.664Z"/><path class="a" d="M14.5,19.5h3a1,1,0,0,0,1-1v-9H5.5v9a1,1,0,0,0,1,1h3"/><path class="a" d="M10.25,5a.25.25,0,1,1-.25.25A.25.25,0,0,1,10.25,5"/><path class="a" d="M13.75,5a.25.25,0,1,1-.25.25A.25.25,0,0,1,13.75,5"/><line class="a" x1="11.999" y1="23.504" x2="11.999" y2="15.504"/><polyline class="a" points="13.999 21.504 11.999 23.504 9.999 21.504"/></svg>