<?xml version="1.0" encoding="utf-8"?>
<!-- Generator: Adobe Illustrator 22.1.0, SVG Export Plug-In . SVG Version: 6.00 Build 0)  -->
<svg version="1.1" id="Layer_1" xmlns="http://www.w3.org/2000/svg" xmlns:xlink="http://www.w3.org/1999/xlink" x="0px" y="0px"
	 viewBox="0 0 24 24" style="enable-background:new 0 0 24 24;" xml:space="preserve">
<title>phone-action-cart</title>
<g>
	<path d="M5.323,24c-1.92,0-3.482-1.562-3.482-3.482V4.983c0-1.92,1.562-3.482,3.482-3.483h1.768c0.414,0,0.75,0.336,0.75,0.75
		S7.504,3,7.091,3H5.323C4.23,3,3.341,3.89,3.341,4.983V18h10.5v-3c0-0.414,0.336-0.75,0.75-0.75s0.75,0.336,0.75,0.75v5.518
		C15.34,22.438,13.778,24,11.858,24H5.323z M3.341,20.518c0,1.093,0.889,1.982,1.982,1.982h6.535c1.093,0,1.982-0.889,1.983-1.982
		V19.5h-10.5V20.518z"/>
	<path d="M12.516,9.75c-0.6,0-1.141-0.356-1.378-0.908L9.514,4.298C9.372,3.972,9.369,3.561,9.516,3.194
		c0.149-0.372,0.433-0.664,0.801-0.822c0.188-0.081,0.387-0.122,0.592-0.122h9.157l0.638-1.756c0.108-0.296,0.391-0.494,0.705-0.494
		c0.088,0,0.174,0.015,0.257,0.046c0.388,0.141,0.589,0.572,0.448,0.961l-2.82,7.757c-0.215,0.586-0.777,0.982-1.4,0.987
		c-0.001,0-0.002,0-0.003,0H12.516z M17.889,8.25l1.632-4.5h-8.612l1.608,4.498L17.889,8.25z"/>
	<path d="M13.534,12.75c-0.62,0-1.125-0.505-1.125-1.125c0-0.598,0.468-1.089,1.067-1.121c0.001,0,0.046-0.004,0.058-0.004
		c0.62,0,1.125,0.505,1.125,1.125S14.154,12.75,13.534,12.75z"/>
	<circle cx="17.284" cy="11.625" r="1.125"/>
</g>
</svg>
