<?xml version="1.0" encoding="utf-8"?>
<!-- Generator: Adobe Illustrator 22.1.0, SVG Export Plug-In . SVG Version: 6.00 Build 0)  -->
<svg version="1.1" id="Layer_1" xmlns="http://www.w3.org/2000/svg" xmlns:xlink="http://www.w3.org/1999/xlink" x="0px" y="0px"
	 viewBox="0 0 24 24" style="enable-background:new 0 0 24 24;" xml:space="preserve">
<title>phone-action-refresh</title>
<g>
	<path d="M4.233,24.001c-0.931,0-1.805-0.362-2.462-1.019C1.113,22.325,0.75,21.45,0.75,20.52V4.984
		c0-1.921,1.562-3.483,3.483-3.483H9c0.414,0,0.75,0.336,0.75,0.75S9.414,3.001,9,3.001H4.233c-1.094,0-1.983,0.89-1.983,1.983
		v13.017h10.5v-2.25c0-0.414,0.336-0.75,0.75-0.75s0.75,0.336,0.75,0.75v4.768c0,1.92-1.562,3.482-3.482,3.482H4.233z M2.25,20.519
		c0,0.53,0.207,1.028,0.581,1.402c0.374,0.374,0.872,0.58,1.401,0.58h6.535c1.094,0,1.983-0.889,1.983-1.982v-1.018H2.25V20.519z"/>
	<path d="M16.502,13.501c-3.079,0-5.767-2.082-6.537-5.064c-0.93-3.604,1.245-7.293,4.849-8.223C15.367,0.072,15.934,0,16.499,0
		c2.065,0,3.983,0.936,5.251,2.506V0.751c0-0.414,0.336-0.75,0.75-0.75s0.75,0.336,0.75,0.75v4.5c0,0.414-0.336,0.75-0.75,0.75
		h-3.75c-0.414,0-0.75-0.336-0.75-0.75s0.336-0.75,0.75-0.75h2.494C20.384,2.686,18.54,1.5,16.5,1.5c-0.44,0-0.88,0.056-1.31,0.167
		c-1.358,0.35-2.498,1.208-3.21,2.416c-0.712,1.208-0.912,2.621-0.561,3.979c0.599,2.319,2.689,3.939,5.083,3.939c0,0,0,0,0,0
		c0.44,0,0.881-0.056,1.311-0.167c1.095-0.283,2.086-0.925,2.791-1.808c0.143-0.179,0.356-0.282,0.586-0.282
		c0.169,0,0.335,0.058,0.468,0.164c0.156,0.125,0.255,0.303,0.277,0.502c0.022,0.199-0.034,0.395-0.159,0.552
		c-0.907,1.135-2.181,1.961-3.588,2.324C17.636,13.429,17.069,13.501,16.502,13.501L16.502,13.501z"/>
</g>
</svg>
