<?xml version="1.0" encoding="utf-8"?>
<!-- Generator: Adobe Illustrator 22.1.0, SVG Export Plug-In . SVG Version: 6.00 Build 0)  -->
<svg version="1.1" id="Layer_1" xmlns="http://www.w3.org/2000/svg" xmlns:xlink="http://www.w3.org/1999/xlink" x="0px" y="0px"
	 viewBox="0 0 24 24" style="enable-background:new 0 0 24 24;" xml:space="preserve">
<title>phone-action-flash</title>
<g>
	<path d="M7.232,24c-1.92,0-3.482-1.561-3.483-3.48V4.983c0-1.921,1.562-3.483,3.483-3.483h4.017c0.414,0,0.75,0.336,0.75,0.75
		S11.663,3,11.249,3H7.232C6.139,3,5.249,3.89,5.249,4.983V18h10.5v-2.25c0-0.414,0.336-0.75,0.75-0.75s0.75,0.336,0.75,0.75v4.768
		c0,1.92-1.562,3.482-3.482,3.482H7.232z M5.249,20.518c0,1.093,0.89,1.982,1.982,1.982h6.535c1.093,0,1.983-0.889,1.983-1.982V19.5
		h-10.5V20.518z"/>
	<path d="M13.499,15c-0.089,0-0.177-0.016-0.261-0.047c-0.292-0.108-0.489-0.391-0.489-0.703V9h-1.875
		c-0.267,0-0.526-0.095-0.729-0.268c-0.472-0.402-0.53-1.113-0.128-1.586l5.914-6.885C16.073,0.095,16.28,0,16.499,0
		c0.089,0,0.176,0.016,0.26,0.046c0.293,0.109,0.49,0.392,0.49,0.704V6h1.875c0.266,0.001,0.523,0.095,0.724,0.265
		c0.474,0.399,0.536,1.11,0.136,1.585l-5.917,6.888C13.926,14.905,13.718,15,13.499,15z M13.499,7.5c0.414,0,0.75,0.336,0.75,0.75
		v3.976l4.06-4.727L16.5,7.5c-0.414,0-0.75-0.336-0.75-0.75V2.774l-4.06,4.727L13.499,7.5z"/>
</g>
</svg>
