<?xml version="1.0" encoding="utf-8"?>
<!-- Generator: Adobe Illustrator 22.1.0, SVG Export Plug-In . SVG Version: 6.00 Build 0)  -->
<svg version="1.1" id="Layer_1" xmlns="http://www.w3.org/2000/svg" xmlns:xlink="http://www.w3.org/1999/xlink" x="0px" y="0px"
	 viewBox="0 0 24 24" style="enable-background:new 0 0 24 24;" xml:space="preserve">
<title>phone-action-navigation-pin</title>
<g>
	<path d="M6.483,24C4.563,24,3.001,22.439,3,20.52V4.983C3,3.062,4.562,1.5,6.483,1.5H9c0.414,0,0.75,0.336,0.75,0.75S9.414,3,9,3
		H6.483C5.39,3,4.5,3.89,4.5,4.983V18H15v-2.25c0-0.414,0.336-0.75,0.75-0.75s0.75,0.336,0.75,0.75v4.768
		c0,1.92-1.562,3.482-3.482,3.482H6.483z M4.5,20.518c0,1.093,0.89,1.982,1.982,1.982h6.535C14.11,22.5,15,21.611,15,20.518V19.5
		H4.5V20.518z"/>
	<path d="M15.75,6.375c-0.62,0-1.125-0.505-1.125-1.125c0-0.598,0.469-1.09,1.067-1.121c-0.001,0,0.003,0,0.004,0
		c0.01-0.001,0.016-0.002,0.026-0.003c0,0-0.01,0-0.019,0.001c0.016-0.002,0.033-0.003,0.047-0.003c0.62,0,1.125,0.505,1.125,1.125
		S16.37,6.375,15.75,6.375z"/>
	<path d="M15.749,13.426c-0.337,0-0.656-0.11-0.922-0.317c-0.097-0.076-0.185-0.164-0.26-0.26C12.712,10.477,10.5,7.233,10.5,5.25
		C10.5,2.355,12.855,0,15.75,0S21,2.355,21,5.25c0,1.98-2.212,5.226-4.068,7.6C16.646,13.216,16.215,13.426,15.749,13.426z
		 M15.75,1.5C13.682,1.5,12,3.182,12,5.25c0,1.161,1.437,3.719,3.75,6.676c2.313-2.959,3.75-5.517,3.75-6.676
		C19.5,3.182,17.818,1.5,15.75,1.5z"/>
</g>
</svg>
