<?xml version="1.0" encoding="utf-8"?>
<!-- Generator: Adobe Illustrator 22.1.0, SVG Export Plug-In . SVG Version: 6.00 Build 0)  -->
<svg version="1.1" id="Layer_1" xmlns="http://www.w3.org/2000/svg" xmlns:xlink="http://www.w3.org/1999/xlink" x="0px" y="0px"
	 viewBox="0 0 24 24" style="enable-background:new 0 0 24 24;" xml:space="preserve">
<title>phone-action-lock</title>
<g>
	<path d="M5.733,24c-1.92,0-3.482-1.561-3.483-3.48V4.983C2.25,3.062,3.812,1.5,5.733,1.5H9c0.414,0,0.75,0.336,0.75,0.75
		S9.414,3,9,3H5.733C4.64,3,3.75,3.89,3.75,4.983V18h10.5v-2.25c0-0.414,0.336-0.75,0.75-0.75s0.75,0.336,0.75,0.75v4.768
		c0,1.92-1.562,3.482-3.482,3.482H5.733z M3.75,20.518c0,1.093,0.89,1.982,1.982,1.982h6.535c1.093,0,1.983-0.889,1.983-1.982V19.5
		H3.75V20.518z"/>
	<path d="M13.5,13.5c-1.241,0-2.25-1.009-2.25-2.25v-4.5c0-0.96,0.615-1.808,1.5-2.121V3.75C12.75,1.682,14.432,0,16.5,0
		s3.75,1.682,3.75,3.75v0.879c0.885,0.314,1.5,1.162,1.5,2.121v4.5c0,1.241-1.009,2.25-2.25,2.25H13.5z M13.5,6
		c-0.414,0-0.75,0.336-0.75,0.75v4.5c0,0.414,0.336,0.75,0.75,0.75h6c0.414,0,0.75-0.336,0.75-0.75v-4.5
		C20.25,6.336,19.914,6,19.5,6H13.5z M18.75,4.5V3.75c0-1.241-1.009-2.25-2.25-2.25s-2.25,1.009-2.25,2.25V4.5H18.75z"/>
	<circle cx="16.5" cy="9.03" r="1.125"/>
</g>
</svg>
