<?xml version="1.0" encoding="utf-8"?>
<!-- Generator: Adobe Illustrator 22.1.0, SVG Export Plug-In . SVG Version: 6.00 Build 0)  -->
<svg version="1.1" id="Layer_1" xmlns="http://www.w3.org/2000/svg" xmlns:xlink="http://www.w3.org/1999/xlink" x="0px" y="0px"
	 viewBox="0 0 24 24" style="enable-background:new 0 0 24 24;" xml:space="preserve">
<title>phone-action-check</title>
<g>
	<path d="M5.733,24c-1.92,0-3.482-1.561-3.483-3.48V4.983C2.25,3.062,3.812,1.5,5.733,1.5H7.5c0.414,0,0.75,0.336,0.75,0.75
		S7.914,3,7.5,3H5.733C4.64,3,3.75,3.89,3.75,4.983V18h10.5v-2.25c0-0.414,0.336-0.75,0.75-0.75s0.75,0.336,0.75,0.75v4.768
		c0,1.92-1.562,3.482-3.482,3.482H5.733z M3.75,20.518c0,1.093,0.89,1.982,1.982,1.982h6.535c1.093,0,1.983-0.889,1.983-1.982V19.5
		H3.75V20.518z"/>
	<path d="M15,13.5c-3.722,0-6.75-3.028-6.75-6.75S11.278,0,15,0s6.75,3.028,6.75,6.75S18.722,13.5,15,13.5z M15,1.5
		c-2.895,0-5.25,2.355-5.25,5.25S12.105,12,15,12c2.895,0,5.25-2.355,5.25-5.25S17.895,1.5,15,1.5z"/>
	<path d="M14.171,9.929c-0.327,0-0.638-0.104-0.901-0.302c-0.053-0.04-0.106-0.086-0.156-0.135L11.613,7.99
		c-0.142-0.141-0.22-0.33-0.22-0.53c0-0.2,0.078-0.389,0.22-0.53c0.141-0.142,0.33-0.22,0.53-0.22c0.2,0,0.389,0.078,0.53,0.22
		l1.5,1.5l2.9-3.873c0.141-0.188,0.366-0.301,0.601-0.301c0.163,0,0.319,0.052,0.449,0.15c0.331,0.248,0.398,0.719,0.151,1.049
		l-2.9,3.873c-0.242,0.322-0.594,0.529-0.991,0.586C14.312,9.924,14.241,9.929,14.171,9.929z"/>
</g>
</svg>
