<svg xmlns="http://www.w3.org/2000/svg" viewBox="0 0 24 24"><title>newspaper-read-woman</title><path d="M21.781,12.114a.5.5,0,0,1-.281-.45V11.2a1.67,1.67,0,0,0-.688-1.353,1.8,1.8,0,0,0-1.6-.268l-1,.33a.25.25,0,0,1-.326-.273L18.522,5.3a4.716,4.716,0,0,0-1.18-3.423C16.212.632,14.415,0,12,0S7.788.632,6.658,1.878A4.716,4.716,0,0,0,5.478,5.3L6.11,9.64a.253.253,0,0,1-.087.228.25.25,0,0,1-.239.046L4.767,9.577a1.791,1.791,0,0,0-1.58.274A1.672,1.672,0,0,0,2.5,11.2v.46a.5.5,0,0,1-.281.45,3.87,3.87,0,0,0,0,7,.5.5,0,0,1,.281.449v.569a1.707,1.707,0,0,0,1.3,1.645l8,2.2a.739.739,0,0,0,.4,0l7.989-2.192A1.712,1.712,0,0,0,21.5,20.132v-.569a.5.5,0,0,1,.281-.449,3.87,3.87,0,0,0,0-7ZM5,17.114a.5.5,0,0,1-.5.5c-1.1,0-2.5-.5-2.5-2s1.4-2,2.5-2a.5.5,0,0,1,.5.5Zm11.283-6.851a.5.5,0,0,1-.337.4l-3.631,1.2a1,1,0,0,1-.63,0l-3.631-1.2a.5.5,0,0,1-.337-.4l-.465-3.2a.5.5,0,0,1,.5-.572c2.157.035,3.264-.373,3.925-.921a.5.5,0,0,1,.638,0c.662.548,1.768.956,3.925.921a.5.5,0,0,1,.5.572ZM19.5,17.614a.5.5,0,0,1-.5-.5v-3a.5.5,0,0,1,.5-.5c1.105,0,2.5.5,2.5,2S20.605,17.614,19.5,17.614Z"/><circle cx="10" cy="8.25" r="1"/><circle cx="14" cy="8.25" r="1"/></svg>