<svg xmlns="http://www.w3.org/2000/svg" viewBox="0 0 24 24"><title>broken-tab-remove-alternate</title><path d="M22,17.5a2,2,0,0,0,2-2v-7a2,2,0,0,0-2-2H2a2,2,0,0,0-2,2v7a2,2,0,0,0,2,2Zm-19.5-2A.5.5,0,0,1,2,15V9a.5.5,0,0,1,.5-.5H13.7a.5.5,0,0,1,.456.705l-1,2.236a1.514,1.514,0,0,0,.015,1.154l.99,2.2a.5.5,0,0,1-.456.705ZM21.03,12.969a.75.75,0,1,1-1.061,1.061l-.793-.793a.249.249,0,0,0-.353,0l-.793.793a.75.75,0,0,1-1.061-1.061l.793-.792a.25.25,0,0,0,0-.354l-.793-.793A.75.75,0,0,1,18.03,9.969l.793.793a.249.249,0,0,0,.353,0l.793-.793A.75.75,0,0,1,21.03,11.03l-.793.793a.25.25,0,0,0,0,.354Z"/></svg>