<svg xmlns="http://www.w3.org/2000/svg" viewBox="0 0 24 24"><title>remove-circle-alternate</title><path d="M.249,12A11.751,11.751,0,1,0,12,.249,11.765,11.765,0,0,0,.249,12Zm21,0A9.251,9.251,0,1,1,12,2.749,9.262,9.262,0,0,1,21.251,12Z"/><path d="M8.833,7.066A1.25,1.25,0,1,0,7.065,8.834l2.99,2.989a.25.25,0,0,1,0,.354l-2.99,2.99a1.25,1.25,0,1,0,1.768,1.767l2.989-2.989a.249.249,0,0,1,.354,0l2.99,2.989a1.249,1.249,0,1,0,1.767-1.767l-2.989-2.99a.25.25,0,0,1,0-.354l2.989-2.989a1.25,1.25,0,1,0-1.767-1.768l-2.99,2.99a.251.251,0,0,1-.354,0Z"/></svg>