<svg xmlns="http://www.w3.org/2000/svg" viewBox="0 0 24 24"><title>remove-circle-bold</title><path d="M12,23.5A11.5,11.5,0,1,0,.5,12,11.513,11.513,0,0,0,12,23.5ZM7.05,9.172a1,1,0,0,1,0-1.415l.707-.707a1,1,0,0,1,1.415,0L11.823,9.7a.25.25,0,0,0,.354,0L14.828,7.05a1,1,0,0,1,1.415,0l.707.707a1,1,0,0,1,0,1.415L14.3,11.823a.25.25,0,0,0,0,.354l2.652,2.651a1,1,0,0,1,0,1.415l-.707.707a1,1,0,0,1-1.415,0L12.177,14.3a.252.252,0,0,0-.354,0L9.172,16.95a1,1,0,0,1-1.415,0l-.707-.707a1,1,0,0,1,0-1.415L9.7,12.177a.25.25,0,0,0,0-.354Z"/></svg>