<svg xmlns="http://www.w3.org/2000/svg" viewBox="0 0 24 24"><title>subtract-tab-alternate</title><path d="M18.408,6a3.825,3.825,0,0,0-2.414-.972H2.211a2,2,0,0,0-2,2v9.936a2,2,0,0,0,2,2H15.994A3.839,3.839,0,0,0,18.408,18l4.775-4.585a1.956,1.956,0,0,0,0-2.828Zm-1.385,10.55a1.72,1.72,0,0,1-1.029.414H2.461a.25.25,0,0,1-.25-.25V7.282a.25.25,0,0,1,.25-.25H15.994a1.93,1.93,0,0,1,1.029.414l4.584,4.343a.251.251,0,0,1,0,.362Z"/><path d="M10.711,10.718h-5a1.25,1.25,0,0,0,0,2.5h5a1.25,1.25,0,1,0,0-2.5Z"/></svg>