<?xml version="1.0" encoding="utf-8"?>
<!-- Generator: Adobe Illustrator 22.1.0, SVG Export Plug-In . SVG Version: 6.00 Build 0)  -->
<svg version="1.1" id="Layer_1" xmlns="http://www.w3.org/2000/svg" xmlns:xlink="http://www.w3.org/1999/xlink" x="0px" y="0px"
	 viewBox="0 0 24 24" style="enable-background:new 0 0 24 24;" xml:space="preserve">
<g>
	<title>photo-frame-landscape</title>
	<path d="M1.273,24.002c-0.11,0-0.219-0.014-0.324-0.042c-0.328-0.086-0.603-0.295-0.774-0.588
		c-0.171-0.293-0.218-0.635-0.132-0.964l2.469-8.53L0.03,1.793C-0.13,0.977,0.401,0.187,1.213,0.028C1.308,0.009,1.404,0,1.5,0
		h15.869c1.183,0,2.213,0.841,2.449,2l4.153,20.21c0.077,0.398-0.005,0.799-0.23,1.131c-0.225,0.332-0.565,0.556-0.958,0.632
		C22.69,23.991,22.595,24,22.5,24H6.631c-1.182,0-2.212-0.841-2.449-2l-1.237-6.019l-1.938,6.693
		c-0.015,0.059-0.005,0.132,0.031,0.194c0.036,0.062,0.095,0.107,0.165,0.125c0.022,0.006,0.046,0.009,0.069,0.009H2.5
		c0.276,0,0.5,0.224,0.5,0.5s-0.224,0.5-0.5,0.5H1.273z M1.5,1C1.468,1,1.436,1.003,1.405,1.009C1.134,1.062,0.957,1.325,1.01,1.596
		l4.152,20.203C5.304,22.495,5.922,23,6.632,23H22.5c0.031,0,0.063-0.003,0.094-0.009c0.13-0.025,0.244-0.1,0.319-0.211
		c0.075-0.11,0.102-0.244,0.077-0.375L18.839,2.201C18.697,1.505,18.079,1,17.369,1H1.5z"/>
	<path d="M19.861,21L7.609,21c-0.523-0.019-0.966-0.378-1.086-0.872L3.227,4.091C3.209,4.026,3.2,3.933,3.205,3.844
		c0.012-0.237,0.117-0.456,0.294-0.615c0.164-0.148,0.375-0.229,0.595-0.229c0.016,0,0.033,0,0.049,0.001L16.391,3
		c0.523,0.019,0.966,0.377,1.086,0.872c0.001,0.006,3.297,16.037,3.297,16.037c0.017,0.062,0.026,0.154,0.022,0.244
		C20.771,20.629,20.379,21,19.905,21L19.861,21z M7.499,19.909C7.51,19.954,7.568,19.998,7.628,20l12.144,0l-3.27-15.904
		C16.49,4.046,16.436,4.002,16.373,4L4.228,4L7.499,19.909z"/>
	<path d="M9.405,16.994c-0.175,0-0.334-0.089-0.425-0.237c-0.092-0.148-0.1-0.33-0.022-0.486l1.613-3.225
		c0.072-0.143,0.209-0.244,0.367-0.27c0.027-0.004,0.054-0.006,0.08-0.006c0.132,0,0.26,0.053,0.354,0.147l0.817,0.816l1.614-2.96
		c0.088-0.163,0.251-0.261,0.434-0.261c0.006,0,0.031,0.001,0.037,0.001c0.187,0.01,0.358,0.131,0.431,0.309l2.258,5.483
		c0.063,0.155,0.046,0.33-0.047,0.469c-0.093,0.139-0.248,0.222-0.416,0.222H9.405z M15.754,15.994l-1.574-3.823l-1.432,2.626
		c-0.074,0.137-0.212,0.233-0.367,0.256c-0.025,0.004-0.048,0.005-0.072,0.005c-0.134,0-0.259-0.052-0.354-0.147l-0.799-0.798
		l-0.941,1.881H15.754z"/>
	<path d="M10.373,11.191c-0.808,0-1.467-0.657-1.468-1.465C8.904,9.334,9.056,8.965,9.332,8.687
		c0.277-0.278,0.645-0.431,1.037-0.432c0.81,0,1.469,0.657,1.471,1.465c0.002,0.809-0.656,1.469-1.465,1.471
		C10.375,11.191,10.373,11.191,10.373,11.191z M10.373,9.255c-0.126,0-0.244,0.049-0.332,0.138C9.953,9.481,9.904,9.599,9.904,9.724
		c0.001,0.257,0.21,0.467,0.468,0.467c0.259-0.001,0.469-0.211,0.468-0.469C10.84,9.465,10.63,9.255,10.373,9.255z"/>
</g>
</svg>
