<?xml version="1.0" encoding="utf-8"?>
<!-- Generator: Adobe Illustrator 22.1.0, SVG Export Plug-In . SVG Version: 6.00 Build 0)  -->
<svg version="1.1" id="Layer_1" xmlns="http://www.w3.org/2000/svg" xmlns:xlink="http://www.w3.org/1999/xlink" x="0px" y="0px"
	 viewBox="0 0 24 24" style="enable-background:new 0 0 24 24;" xml:space="preserve">
<g>
	<title>flip-vertical-down</title>
	<path d="M13,18.616c-0.018,0-0.041-0.003-0.061-0.007c-0.017-0.002-0.037-0.005-0.046-0.008l-3.981-0.96
		c-0.13-0.031-0.24-0.111-0.309-0.225c-0.07-0.114-0.091-0.248-0.059-0.378c0.054-0.226,0.254-0.383,0.485-0.383
		c0.04,0,0.081,0.005,0.12,0.015l2.598,0.626c-2.579-3.898-2.268-9.133,0.833-12.693c0.094-0.109,0.232-0.172,0.377-0.172
		c0.121,0,0.238,0.044,0.328,0.123c0.101,0.088,0.161,0.209,0.17,0.343c0.009,0.133-0.034,0.262-0.122,0.363
		c-2.905,3.336-3.112,8.203-0.564,11.763l0.746-3.02c0.055-0.224,0.255-0.381,0.484-0.381c0.042,0,0.083,0.005,0.123,0.016
		c0.127,0.031,0.237,0.112,0.306,0.226c0.069,0.115,0.09,0.249,0.057,0.379l-0.986,3.994c-0.055,0.224-0.255,0.38-0.485,0.38
		C13.012,18.616,13.002,18.616,13,18.616z"/>
	<path d="M2.5,20c-0.414,0-0.75-0.336-0.75-0.75c0-0.387,0.303-0.714,0.69-0.745C2.446,18.504,2.491,18.5,2.5,18.5
		c0.02,0,0.04,0.002,0.06,0.005c0.001,0,0.015,0.002,0.02,0.002c0.383,0.041,0.671,0.36,0.671,0.743C3.25,19.664,2.914,20,2.5,20z"
		/>
	<path d="M2.5,16c-0.414,0-0.75-0.336-0.75-0.75c0-0.387,0.303-0.714,0.69-0.745C2.446,14.504,2.491,14.5,2.5,14.5
		c0.02,0,0.04,0.002,0.06,0.005c0.001,0,0.015,0.002,0.02,0.002c0.383,0.041,0.671,0.36,0.671,0.743C3.25,15.664,2.914,16,2.5,16z"
		/>
	<circle cx="22.5" cy="19.25" r="0.75"/>
	<circle cx="22.5" cy="15.25" r="0.75"/>
	<path d="M2.5,24c-0.414,0-0.75-0.336-0.75-0.75c0-0.384,0.289-0.704,0.673-0.744c0,0,0.014-0.001,0.02-0.001
		C2.46,22.502,2.479,22.5,2.5,22.5c0.01,0,0.024,0.001,0.036,0.002c0.017,0.001,0.029,0.003,0.042,0.005
		c0.368,0.027,0.672,0.355,0.672,0.743C3.25,23.664,2.914,24,2.5,24z"/>
	<path d="M6.5,24c-0.414,0-0.75-0.336-0.75-0.75c0-0.384,0.288-0.702,0.671-0.743c0.005,0,0.019-0.002,0.02-0.002
		C6.46,22.502,6.48,22.5,6.5,22.5c0.009,0,0.057,0.004,0.07,0.006c0.377,0.03,0.68,0.357,0.68,0.744C7.25,23.664,6.914,24,6.5,24z"
		/>
	<circle cx="10.5" cy="23.25" r="0.75"/>
	<path d="M14.5,24c-0.414,0-0.75-0.336-0.75-0.75c0-0.389,0.305-0.716,0.694-0.746c0.004,0,0.036-0.003,0.037-0.003
		c0.434,0,0.769,0.336,0.769,0.749C15.25,23.664,14.914,24,14.5,24z"/>
	<circle cx="18.5" cy="23.25" r="0.75"/>
	<circle cx="22.5" cy="23.25" r="0.75"/>
	<path d="M22.5,10C22.224,10,22,9.776,22,9.5v-8C22,1.224,21.776,1,21.5,1h-18C3.224,1,3,1.224,3,1.5v8C3,9.776,2.776,10,2.5,10
		S2,9.776,2,9.5v-8C2,0.673,2.673,0,3.5,0h18C22.327,0,23,0.673,23,1.5v8C23,9.776,22.776,10,22.5,10z"/>
	<path d="M13.5,11.999c-0.276,0-0.5-0.224-0.5-0.5s0.224-0.5,0.5-0.5h10c0.276,0,0.5,0.224,0.5,0.5s-0.224,0.5-0.5,0.5H13.5z"/>
	<path d="M0.5,11.999c-0.276,0-0.5-0.224-0.5-0.5s0.224-0.5,0.5-0.5h7c0.276,0,0.5,0.224,0.5,0.5s-0.224,0.5-0.5,0.5H0.5z"/>
</g>
</svg>
