<svg xmlns="http://www.w3.org/2000/svg" viewBox="0 0 24 24"><title>camera-holder</title><path d="M6.75,13.25a.25.25,0,0,0-.25.25v6.25a2,2,0,0,0,4,0v-2.5a2,2,0,0,1,2-2,2,2,0,0,0,1.98-1.714.25.25,0,0,0-.248-.286Z"/><path d="M6,11.75a.5.5,0,0,0,.5.5H17a1.5,1.5,0,0,0,1.5-1.5v-7A1.5,1.5,0,0,0,17,2.25H7.5A1.5,1.5,0,0,0,6,3.75V5.5a.25.25,0,0,1-.25.25H3.325a.251.251,0,0,1-.215-.121l-.39-.65A1.508,1.508,0,0,0,1.434,4.25H1a1,1,0,0,0-1,1v4a1,1,0,0,0,1,1h.434A1.508,1.508,0,0,0,2.72,9.521l.39-.65a.251.251,0,0,1,.215-.121H5.75A.25.25,0,0,1,6,9Zm2.5-5.5A1.5,1.5,0,1,1,10,7.75,1.5,1.5,0,0,1,8.5,6.25Z"/><path d="M24,4.614a1.5,1.5,0,0,0-2.335-1.246l-1.443.966A.5.5,0,0,0,20,4.75v3a.5.5,0,0,0,.224.416l1.447.961A1.5,1.5,0,0,0,24,7.877Z"/></svg>