<svg xmlns="http://www.w3.org/2000/svg" viewBox="0 0 24 24"><defs><style>.a{fill:none;stroke:currentColor;stroke-linecap:round;stroke-linejoin:round;}</style></defs><title>text-input-area</title><line class="a" x1="12" y1="4.498" x2="12" y2="19.498"/><path class="a" d="M6.5.5H8a4,4,0,0,1,4,4,4,4,0,0,1,4-4h1.5"/><path class="a" d="M6.5,23.5H8a4,4,0,0,0,4-4,4,4,0,0,0,4,4h1.5"/><line class="a" x1="9.5" y1="15.498" x2="14.5" y2="15.498"/><line class="a" x1="1" y1="12.498" x2="1" y2="14.498"/><path class="a" d="M2,8.5a1,1,0,0,0-1,1"/><line class="a" x1="4" y1="8.498" x2="6" y2="8.498"/><line class="a" x1="8" y1="8.498" x2="10" y2="8.498"/><path class="a" d="M2,18.5a1,1,0,0,1-1-1"/><line class="a" x1="4" y1="18.498" x2="6" y2="18.498"/><line class="a" x1="8" y1="18.498" x2="10" y2="18.498"/><line class="a" x1="23" y1="12.498" x2="23" y2="14.498"/><path class="a" d="M22,8.5a1,1,0,0,1,1,1"/><line class="a" x1="20" y1="8.498" x2="18" y2="8.498"/><line class="a" x1="16" y1="8.498" x2="14" y2="8.498"/><path class="a" d="M22,18.5a1,1,0,0,0,1-1"/><line class="a" x1="20" y1="18.498" x2="18" y2="18.498"/><line class="a" x1="16" y1="18.498" x2="14" y2="18.498"/></svg>