<svg xmlns="http://www.w3.org/2000/svg" viewBox="0 0 24 24"><defs><style>.a{fill:none;stroke:currentColor;stroke-linecap:round;stroke-linejoin:round;}</style></defs><title>text-format</title><line class="a" x1="21.5" y1="5.498" x2="21.5" y2="18.498"/><line class="a" x1="5.5" y1="2.498" x2="18.5" y2="2.498"/><line class="a" x1="2.5" y1="18.498" x2="2.5" y2="5.498"/><line class="a" x1="18.5" y1="21.498" x2="5.5" y2="21.498"/><rect class="a" x="0.5" y="0.498" width="3" height="3" rx="0.5" ry="0.5"/><rect class="a" x="20.5" y="0.498" width="3" height="3" rx="0.5" ry="0.5"/><rect class="a" x="0.5" y="20.498" width="3" height="3" rx="0.5" ry="0.5"/><rect class="a" x="20.5" y="20.498" width="3" height="3" rx="0.5" ry="0.5"/><path class="a" d="M7,8.5V7a.5.5,0,0,1,.5-.5h9A.5.5,0,0,1,17,7V8.5"/><line class="a" x1="12" y1="6.498" x2="12" y2="18.498"/><line class="a" x1="10.5" y1="18.498" x2="13.5" y2="18.498"/></svg>