<svg xmlns="http://www.w3.org/2000/svg" viewBox="0 0 24 24"><title>award-medal</title><path d="M23.423.359A.5.5,0,0,0,23,.125H18a.5.5,0,0,0-.452.285L14.665,6.465a.25.25,0,0,0,.152.346,9.511,9.511,0,0,1,4.136,2.608.25.25,0,0,0,.409-.062L23.451.842A.5.5,0,0,0,23.423.359Z"/><path d="M9.184,6.811a.248.248,0,0,0,.154-.138.252.252,0,0,0,0-.208L6.452.41A.5.5,0,0,0,6,.125H1A.5.5,0,0,0,.549.842L4.637,9.358a.25.25,0,0,0,.409.062A9.508,9.508,0,0,1,9.184,6.811Z"/><path d="M12,7.875a8,8,0,1,0,8,8A8.009,8.009,0,0,0,12,7.875Zm3.725,7.252-1.559,1.534a.25.25,0,0,0-.054.278l.863,1.983a.507.507,0,0,1-.722.635l-2.129-1.2a.251.251,0,0,0-.246,0l-2.129,1.2a.507.507,0,0,1-.722-.635l.863-1.983a.25.25,0,0,0-.054-.278L8.277,15.127A.474.474,0,0,1,8.61,14.3h1.778a.251.251,0,0,0,.227-.145l.93-2a.513.513,0,0,1,.912,0l.928,2a.251.251,0,0,0,.227.145H15.39A.474.474,0,0,1,15.725,15.127Z"/></svg>