<svg xmlns="http://www.w3.org/2000/svg" viewBox="0 0 24 24"><title>award-medal-4</title><path d="M17.043,14.043l.349-1.746a.807.807,0,0,0-.98-.982l-1.747.35-1.418-1.418,2.144-1.838A3.448,3.448,0,0,0,16.5,6V2h2a1,1,0,0,0,0-2H5.5a1,1,0,0,0,0,2h2V6A3.448,3.448,0,0,0,8.609,8.409l2.144,1.839L9.335,11.665l-1.747-.35a.807.807,0,0,0-.98.981l.349,1.747L5,16a1,1,0,0,0,0,1.414l1.957,1.957-.349,1.747a.807.807,0,0,0,.98.981l1.748-.35,1.956,1.957a1,1,0,0,0,1.415,0l1.957-1.958,1.748.35a.807.807,0,0,0,.98-.981l-.349-1.747L19,17.415A1,1,0,0,0,19,16ZM14.5,16.708a2.5,2.5,0,1,1-2.5-2.5A2.5,2.5,0,0,1,14.5,16.708ZM9.911,6.891A1.531,1.531,0,0,1,9.5,6V2.25A.25.25,0,0,1,9.75,2h2a.25.25,0,0,1,.25.25V8.138a.25.25,0,0,1-.413.189Z"/></svg>