<svg xmlns="http://www.w3.org/2000/svg" viewBox="0 0 24 24"><title>award-star-head</title><path d="M16.374,12.561a1.19,1.19,0,0,0,.3-1.377L15.561,8.625a.25.25,0,0,1,.056-.28l2.011-1.933A1.2,1.2,0,0,0,17.913,5.1,1.172,1.172,0,0,0,16.8,4.38H14.541a.252.252,0,0,1-.228-.147L13.1,1.567l-.009-.018A1.217,1.217,0,0,0,12,.88h0a1.223,1.223,0,0,0-1.1.687L9.686,4.233a.25.25,0,0,1-.228.147H7.2A1.171,1.171,0,0,0,6.087,5.1a1.2,1.2,0,0,0,.289,1.314L8.383,8.345a.249.249,0,0,1,.056.28L7.328,11.183a1.189,1.189,0,0,0,.3,1.377,1.213,1.213,0,0,0,1.429.159l2.822-1.59a.249.249,0,0,1,.245,0l2.822,1.59A1.223,1.223,0,0,0,16.374,12.561Z"/><path d="M9.314,18.442a1,1,0,0,0-1.981.282L7.6,20.583a.251.251,0,0,1-.212.283l-1.851.264a1,1,0,0,0,.14,1.99c.1,0-.086.022,2.736-.38a1.5,1.5,0,0,0,1.272-1.7Z"/><path d="M6.217,19.659a1.493,1.493,0,0,0,.563-1L7.015,16.7a1,1,0,1,0-1.985-.239l-.146,1.211a.249.249,0,0,1-.278.218l-1.2-.146a1,1,0,0,0-.241,1.985l1.949.238A1.491,1.491,0,0,0,6.217,19.659Z"/><path d="M3.953,16.49a1.491,1.491,0,0,0,.8-.82l.635-1.581a1,1,0,1,0-1.857-.745l-.354.882a.25.25,0,0,1-.325.139l-.876-.353a1,1,0,0,0-.749,1.854l1.576.636A1.486,1.486,0,0,0,3.953,16.49Z"/><path d="M2.7,13.177a1.484,1.484,0,0,0,.989-.585l.9-1.2A1,1,0,0,0,3.3,9.928L3.077,8.016a1,1,0,1,0-1.987.228l.231,2.016A.987.987,0,0,0,.2,10.592a1,1,0,0,0,.2,1.4l1.192.9A1.487,1.487,0,0,0,2.7,13.177Z"/><path d="M18.465,21.13l-1.851-.264a.251.251,0,0,1-.212-.283l.265-1.859a1,1,0,0,0-1.981-.282l-.369,2.6a1.5,1.5,0,0,0,1.271,1.7c2.8.4,2.635.381,2.737.381a1,1,0,0,0,.14-1.99Z"/><path d="M20.6,17.746l-1.2.146a.249.249,0,0,1-.278-.218l-.146-1.211a1,1,0,0,0-1.985.239l.235,1.959a1.5,1.5,0,0,0,1.668,1.308l1.95-.238a1,1,0,0,0-.241-1.985Z"/><path d="M22.021,14.012l-.876.353a.25.25,0,0,1-.325-.139l-.354-.882a1,1,0,0,0-1.857.745l.635,1.58A1.5,1.5,0,0,0,21.2,16.5l1.575-.636a1,1,0,0,0-.749-1.854Z"/><path d="M23.8,10.592a.987.987,0,0,0-1.119-.332l.231-2.016a1,1,0,1,0-1.987-.228L20.7,9.928a1,1,0,0,0-1.29,1.468l.9,1.2a1.5,1.5,0,0,0,2.1.3l1.192-.9A1,1,0,0,0,23.8,10.592Z"/></svg>