<?xml version="1.0" encoding="utf-8"?>
<!-- Generator: Adobe Illustrator 22.1.0, SVG Export Plug-In . SVG Version: 6.00 Build 0)  -->
<svg version="1.1" id="Layer_1" xmlns="http://www.w3.org/2000/svg" xmlns:xlink="http://www.w3.org/1999/xlink" x="0px" y="0px"
	 viewBox="0 0 24 24" style="enable-background:new 0 0 24 24;" xml:space="preserve">
<g>
	<title>notes-give</title>
	<path d="M0.5,24C0.224,24,0,23.776,0,23.5v-8C0,15.224,0.224,15,0.5,15S1,15.224,1,15.5V16h5.5c1.738,0,3.216,1.3,3.461,3H13.5
		c1.93,0,3.5,1.57,3.5,3.5c0,0.276-0.224,0.5-0.5,0.5H1v0.5C1,23.776,0.776,24,0.5,24z M15.949,22c-0.235-1.141-1.261-2-2.449-2h-8
		C5.224,20,5,19.776,5,19.5S5.224,19,5.5,19h3.448c-0.235-1.141-1.261-2-2.448-2H1v5H15.949z"/>
	<path d="M12.25,16C11.561,16,11,15.439,11,14.75V3.25C11,2.561,11.561,2,12.25,2H14V0.5C14,0.224,14.224,0,14.5,0S15,0.224,15,0.5
		V2h2V0.5C17,0.224,17.224,0,17.5,0S18,0.224,18,0.5V2h2V0.5C20,0.224,20.224,0,20.5,0S21,0.224,21,0.5V2h1.75
		C23.439,2,24,2.561,24,3.25V14.5c0,0.827-0.673,1.5-1.5,1.5H12.25z M12.25,3C12.112,3,12,3.112,12,3.25v11.5
		c0,0.138,0.112,0.25,0.25,0.25H22.5c0.276,0,0.5-0.224,0.5-0.5V3.25C23,3.112,22.888,3,22.75,3H21v1c0,0.276-0.224,0.5-0.5,0.5
		S20,4.276,20,4V3h-2v1c0,0.276-0.224,0.5-0.5,0.5S17,4.276,17,4V3h-2v1c0,0.276-0.224,0.5-0.5,0.5S14,4.276,14,4V3H12.25z"/>
</g>
</svg>
