<?xml version="1.0" encoding="utf-8"?>
<!-- Generator: Adobe Illustrator 22.1.0, SVG Export Plug-In . SVG Version: 6.00 Build 0)  -->
<svg version="1.1" id="Layer_1" xmlns="http://www.w3.org/2000/svg" xmlns:xlink="http://www.w3.org/1999/xlink" x="0px" y="0px"
	 viewBox="0 0 24 24" style="enable-background:new 0 0 24 24;" xml:space="preserve">
<g>
	<title>notes-disable</title>
	<path d="M1.5,21C0.673,21,0,20.327,0,19.5v-16C0,2.673,0.673,2,1.5,2H4V0.5C4,0.224,4.224,0,4.5,0S5,0.224,5,0.5V2h3V0.5
		C8,0.224,8.224,0,8.5,0S9,0.224,9,0.5V2h3V0.5C12,0.224,12.224,0,12.5,0C12.776,0,13,0.224,13,0.5V2h2.5C16.327,2,17,2.673,17,3.5
		v5C17,8.776,16.776,9,16.5,9S16,8.776,16,8.5v-5C16,3.224,15.776,3,15.5,3H13v1.5C13,4.776,12.776,5,12.5,5
		C12.224,5,12,4.776,12,4.5V3H9v1.5C9,4.776,8.776,5,8.5,5S8,4.776,8,4.5V3H5v1.5C5,4.776,4.776,5,4.5,5S4,4.776,4,4.5V3H1.5
		C1.224,3,1,3.224,1,3.5v16C1,19.776,1.224,20,1.5,20h8c0.276,0,0.5,0.224,0.5,0.5S9.776,21,9.5,21H1.5z"/>
	<path d="M17.5,24c-1.722,0-3.345-0.669-4.572-1.884c-0.009-0.007-0.017-0.014-0.024-0.021c-0.007-0.007-0.014-0.015-0.021-0.024
		C11.669,20.845,11,19.222,11,17.5c0-3.584,2.916-6.5,6.5-6.5c1.719,0,3.338,0.666,4.564,1.876c0.012,0.009,0.024,0.019,0.032,0.027
		c0.012,0.012,0.022,0.025,0.03,0.036C23.332,14.157,24,15.779,24,17.5C24,21.084,21.084,24,17.5,24z M13.983,21.724
		C14.971,22.549,16.21,23,17.5,23c3.033,0,5.5-2.467,5.5-5.5c0-1.29-0.451-2.529-1.276-3.517L13.983,21.724z M17.5,12
		c-3.033,0-5.5,2.467-5.5,5.5c0,1.29,0.451,2.529,1.276,3.517l7.742-7.742C20.029,12.451,18.79,12,17.5,12z"/>
</g>
</svg>
