<?xml version="1.0" encoding="utf-8"?>
<!-- Generator: Adobe Illustrator 22.1.0, SVG Export Plug-In . SVG Version: 6.00 Build 0)  -->
<svg version="1.1" id="Layer_1" xmlns="http://www.w3.org/2000/svg" xmlns:xlink="http://www.w3.org/1999/xlink" x="0px" y="0px"
	 viewBox="0 0 24 24" style="enable-background:new 0 0 24 24;" xml:space="preserve">
<g>
	<title>notes-diary</title>
	<path d="M4,24c-0.827,0-1.5-0.673-1.5-1.5v-21C2.5,0.673,3.173,0,4,0h16c0.827,0,1.5,0.673,1.5,1.5v21c0,0.827-0.673,1.5-1.5,1.5H4
		z M20,23c0.276,0,0.5-0.224,0.5-0.5v-21C20.5,1.224,20.276,1,20,1H6.5v22H20z M4,1C3.724,1,3.5,1.224,3.5,1.5v21
		C3.5,22.776,3.724,23,4,23h1.5V1H4z"/>
	<path d="M11.5,10c-0.551,0-1-0.449-1-1V6c0-0.551,0.449-1,1-1h5c0.552,0,1,0.449,1,1v3c0,0.551-0.448,1-1,1H11.5z M11.5,9h5V6h-5
		L11.5,9z"/>
</g>
</svg>
