<?xml version="1.0" encoding="utf-8"?>
<!-- Generator: Adobe Illustrator 22.1.0, SVG Export Plug-In . SVG Version: 6.00 Build 0)  -->
<svg version="1.1" id="Layer_1" xmlns="http://www.w3.org/2000/svg" xmlns:xlink="http://www.w3.org/1999/xlink" x="0px" y="0px"
	 viewBox="0 0 24 24" style="enable-background:new 0 0 24 24;" xml:space="preserve">
<g>
	<title>notes-checklist-flip</title>
	<path d="M2.5,24C1.673,24,1,23.327,1,22.5v-19C1,2.673,1.673,2,2.5,2H4V0.5C4,0.224,4.224,0,4.5,0S5,0.224,5,0.5V2h4V0.5
		C9,0.224,9.224,0,9.5,0S10,0.224,10,0.5V2h4V0.5C14,0.224,14.224,0,14.5,0S15,0.224,15,0.5V2h4V0.5C19,0.224,19.224,0,19.5,0
		S20,0.224,20,0.5V2h1.5C22.327,2,23,2.673,23,3.5v14c0,0.066-0.013,0.13-0.039,0.191c-0.025,0.062-0.062,0.117-0.109,0.163
		l-5.999,5.999c-0.045,0.046-0.101,0.083-0.163,0.109C16.63,23.987,16.566,24,16.5,24H2.5z M2.5,3C2.224,3,2,3.224,2,3.5v19
		C2,22.776,2.224,23,2.5,23H16v-4.5c0-0.827,0.673-1.5,1.5-1.5H22V3.5C22,3.224,21.776,3,21.5,3H20v2c0,0.276-0.224,0.5-0.5,0.5
		S19,5.276,19,5V3h-4v2c0,0.276-0.224,0.5-0.5,0.5S14,5.276,14,5V3h-4v2c0,0.276-0.224,0.5-0.5,0.5S9,5.276,9,5V3H5v2
		c0,0.276-0.224,0.5-0.5,0.5S4,5.276,4,5V3H2.5z M17.5,18c-0.276,0-0.5,0.224-0.5,0.5v3.793L21.293,18H17.5z"/>
	<path d="M6.5,11c-0.134,0-0.259-0.052-0.354-0.146l-1.5-1.5C4.552,9.259,4.5,9.134,4.5,9s0.052-0.259,0.146-0.354S4.866,8.5,5,8.5
		s0.259,0.052,0.354,0.146L6.5,9.793l2.646-2.646C9.241,7.052,9.366,7,9.5,7s0.259,0.052,0.354,0.146S10,7.366,10,7.5
		S9.948,7.759,9.854,7.854l-3,3C6.759,10.948,6.634,11,6.5,11z"/>
	<path d="M6.5,16.5c-0.134,0-0.259-0.052-0.354-0.146l-1.5-1.5C4.552,14.759,4.5,14.634,4.5,14.5s0.052-0.259,0.146-0.354
		S4.866,14,5,14s0.259,0.052,0.354,0.146L6.5,15.293l2.646-2.646C9.241,12.552,9.366,12.5,9.5,12.5s0.259,0.052,0.354,0.146
		S10,12.866,10,13s-0.052,0.259-0.146,0.354l-3,3C6.759,16.448,6.634,16.5,6.5,16.5z"/>
	<path d="M11.5,10C11.224,10,11,9.776,11,9.5S11.224,9,11.5,9H18c0.276,0,0.5,0.224,0.5,0.5S18.276,10,18,10H11.5z"/>
	<path d="M11.5,15c-0.276,0-0.5-0.224-0.5-0.5s0.224-0.5,0.5-0.5H18c0.276,0,0.5,0.224,0.5,0.5S18.276,15,18,15H11.5z"/>
</g>
</svg>
