<?xml version="1.0" encoding="utf-8"?>
<!-- Generator: Adobe Illustrator 22.1.0, SVG Export Plug-In . SVG Version: 6.00 Build 0)  -->
<svg version="1.1" id="Layer_1" xmlns="http://www.w3.org/2000/svg" xmlns:xlink="http://www.w3.org/1999/xlink" x="0px" y="0px"
	 viewBox="0 0 24 24" style="enable-background:new 0 0 24 24;" xml:space="preserve">
<g>
	<title>notes-tasks</title>
	<path d="M4,24c-0.827,0-1.5-0.673-1.5-1.5v-19C2.5,2.673,3.173,2,4,2h2c0.276,0,0.5,0.224,0.5,0.5S6.276,3,6,3H4
		C3.724,3,3.5,3.224,3.5,3.5v19C3.5,22.776,3.724,23,4,23h16c0.276,0,0.5-0.224,0.5-0.5v-19C20.5,3.224,20.276,3,20,3h-2
		c-0.276,0-0.5-0.224-0.5-0.5S17.724,2,18,2h2c0.827,0,1.5,0.673,1.5,1.5v19c0,0.827-0.673,1.5-1.5,1.5H4z"/>
	<path d="M5.5,22c-0.551,0-1-0.448-1-1V5c0-0.551,0.449-1,1-1h2V2.5C7.5,2.224,7.724,2,8,2h1.55C9.784,0.845,10.8,0,12,0
		c1.2,0,2.216,0.845,2.45,2H16c0.276,0,0.5,0.224,0.5,0.5V4h2c0.552,0,1,0.449,1,1v12.5c0,0.066-0.013,0.13-0.039,0.191
		c-0.025,0.062-0.062,0.117-0.109,0.163l-3.999,3.999c-0.045,0.046-0.101,0.083-0.163,0.109C15.13,21.987,15.066,22,15,22H5.5z
		 M5.5,21h9v-3c0-0.552,0.448-1,1-1h3V5h-2v0.5C16.5,5.776,16.276,6,16,6H8C7.724,6,7.5,5.776,7.5,5.5V5l-2,0L5.5,21z M15.5,20.293
		L17.793,18H15.5L15.5,20.293z M15.5,5V3H14c-0.276,0-0.5-0.224-0.5-0.5C13.5,1.673,12.827,1,12,1s-1.5,0.673-1.5,1.5
		C10.5,2.776,10.276,3,10,3H8.5v2H15.5z"/>
	<path d="M8,11.5c-0.134,0-0.259-0.052-0.354-0.146S7.5,11.134,7.5,11s0.052-0.259,0.146-0.354l0.793-0.793
		C8.722,9.571,9.099,9.415,9.5,9.415s0.778,0.156,1.061,0.439l0.086,0.086c0.094,0.094,0.22,0.146,0.354,0.146
		s0.259-0.052,0.354-0.146l0.086-0.086c0.283-0.283,0.66-0.439,1.061-0.439c0.401,0,0.778,0.156,1.061,0.438l0.086,0.086
		c0.094,0.094,0.219,0.146,0.353,0.146s0.259-0.052,0.354-0.146l0.793-0.793C15.241,9.052,15.366,9,15.5,9s0.259,0.052,0.354,0.146
		S16,9.366,16,9.5s-0.052,0.259-0.146,0.354l-0.793,0.793c-0.283,0.283-0.659,0.438-1.061,0.438c-0.401,0-0.778-0.156-1.061-0.438
		l-0.086-0.086c-0.094-0.094-0.219-0.146-0.353-0.146s-0.259,0.052-0.354,0.146l-0.086,0.086c-0.283,0.283-0.659,0.439-1.06,0.439
		s-0.778-0.156-1.061-0.439l-0.086-0.086c-0.094-0.094-0.22-0.146-0.354-0.146s-0.259,0.052-0.354,0.146l-0.793,0.793
		C8.259,11.448,8.134,11.5,8,11.5z"/>
	<path d="M8,15.5c-0.134,0-0.259-0.052-0.354-0.146S7.5,15.134,7.5,15s0.052-0.259,0.146-0.354l0.793-0.793
		c0.283-0.283,0.66-0.439,1.061-0.439s0.778,0.156,1.061,0.439l0.086,0.086c0.094,0.094,0.22,0.146,0.354,0.146
		c0.134,0,0.259-0.052,0.353-0.146l0.086-0.086c0.283-0.283,0.66-0.439,1.061-0.439c0.401,0,0.778,0.156,1.061,0.439l0.086,0.086
		c0.094,0.094,0.22,0.146,0.354,0.146s0.259-0.052,0.354-0.146l0.793-0.793C15.241,13.052,15.366,13,15.5,13
		s0.259,0.052,0.354,0.146S16,13.366,16,13.5s-0.052,0.259-0.146,0.354l-0.793,0.793c-0.283,0.283-0.659,0.439-1.061,0.439
		s-0.778-0.156-1.061-0.439l-0.086-0.086c-0.094-0.094-0.22-0.146-0.354-0.146s-0.259,0.052-0.354,0.146l-0.086,0.086
		c-0.283,0.283-0.66,0.439-1.061,0.439s-0.778-0.156-1.061-0.439l-0.086-0.086c-0.094-0.094-0.22-0.146-0.354-0.146
		c-0.134,0-0.259,0.052-0.353,0.146l-0.793,0.793C8.259,15.448,8.134,15.5,8,15.5z"/>
</g>
</svg>
