<?xml version="1.0" encoding="utf-8"?>
<!-- Generator: Adobe Illustrator 22.1.0, SVG Export Plug-In . SVG Version: 6.00 Build 0)  -->
<svg version="1.1" id="Layer_1" xmlns="http://www.w3.org/2000/svg" xmlns:xlink="http://www.w3.org/1999/xlink" x="0px" y="0px"
	 viewBox="0 0 24 24" style="enable-background:new 0 0 24 24;" xml:space="preserve">
<g>
	<title>notes-remove</title>
	<path d="M1.559,21c-0.827,0-1.5-0.673-1.5-1.5v-16c0-0.827,0.673-1.5,1.5-1.5h2.5V0.501c0-0.276,0.224-0.5,0.5-0.5
		s0.5,0.224,0.5,0.5V2h3V0.501c0-0.276,0.224-0.5,0.5-0.5s0.5,0.224,0.5,0.5V2h3V0.501c0-0.276,0.224-0.5,0.5-0.5
		c0.276,0,0.5,0.224,0.5,0.5V2h2.5c0.827,0,1.5,0.673,1.5,1.5v5c0,0.276-0.224,0.5-0.5,0.5s-0.5-0.224-0.5-0.5v-5
		c0-0.276-0.224-0.5-0.5-0.5h-2.5v1.501c0,0.276-0.224,0.5-0.5,0.5c-0.276,0-0.5-0.224-0.5-0.5V3h-3v1.501
		c0,0.276-0.224,0.5-0.5,0.5s-0.5-0.224-0.5-0.5V3h-3v1.501c0,0.276-0.224,0.5-0.5,0.5s-0.5-0.224-0.5-0.5V3h-2.5
		c-0.276,0-0.5,0.224-0.5,0.5v16c0,0.276,0.224,0.5,0.5,0.5h8c0.276,0,0.5,0.224,0.5,0.5S9.835,21,9.559,21H1.559z"/>
	<path d="M17.559,24.001c-3.584,0-6.5-2.916-6.5-6.5s2.916-6.5,6.5-6.5c3.584,0,6.5,2.916,6.5,6.5S21.143,24.001,17.559,24.001z
		 M17.559,12.001c-3.033,0-5.5,2.467-5.5,5.5s2.467,5.5,5.5,5.5s5.5-2.467,5.5-5.5S20.591,12.001,17.559,12.001z"/>
	<path d="M19.68,20.122c-0.134,0-0.259-0.052-0.354-0.146l-1.768-1.768l-1.767,1.768c-0.094,0.094-0.22,0.146-0.354,0.146
		s-0.259-0.052-0.354-0.146c-0.195-0.195-0.195-0.512,0-0.707l1.768-1.768l-1.768-1.768c-0.195-0.195-0.195-0.512,0-0.707
		c0.094-0.094,0.22-0.146,0.354-0.146s0.259,0.052,0.354,0.146l1.767,1.768l1.768-1.768c0.094-0.094,0.22-0.146,0.354-0.146
		s0.259,0.052,0.354,0.146c0.195,0.195,0.195,0.512,0,0.707l-1.768,1.768l1.768,1.768c0.195,0.195,0.195,0.512,0,0.707
		C19.939,20.07,19.813,20.122,19.68,20.122z"/>
</g>
</svg>
