<?xml version="1.0" encoding="utf-8"?>
<!-- Generator: Adobe Illustrator 22.1.0, SVG Export Plug-In . SVG Version: 6.00 Build 0)  -->
<svg version="1.1" id="Layer_1" xmlns="http://www.w3.org/2000/svg" xmlns:xlink="http://www.w3.org/1999/xlink" x="0px" y="0px"
	 viewBox="0 0 24 24" style="enable-background:new 0 0 24 24;" xml:space="preserve">
<g>
	<title>notes-give-1</title>
	<path d="M0.5,24C0.224,24,0,23.776,0,23.5S0.224,23,0.5,23h2C2.776,23,3,22.776,3,22.5v-6C3,16.224,2.776,16,2.5,16h-2
		C0.224,16,0,15.776,0,15.5S0.224,15,0.5,15h2c0.64,0,1.205,0.41,1.414,1H8.5c1.738,0,3.216,1.3,3.461,3H15.5
		c1.93,0,3.5,1.57,3.5,3.5c0,0.276-0.224,0.5-0.5,0.5H3.914C3.705,23.59,3.14,24,2.5,24H0.5z M17.949,22
		c-0.235-1.141-1.261-2-2.449-2h-7C8.224,20,8,19.776,8,19.5S8.224,19,8.5,19h2.448c-0.235-1.141-1.261-2-2.448-2H4v5H17.949z"/>
	<circle cx="1.25" cy="21.25" r="0.75"/>
	<path d="M12.25,16C11.561,16,11,15.439,11,14.75V3.25C11,2.561,11.561,2,12.25,2H14V0.5C14,0.224,14.224,0,14.5,0S15,0.224,15,0.5
		V2h2V0.5C17,0.224,17.224,0,17.5,0S18,0.224,18,0.5V2h2V0.5C20,0.224,20.224,0,20.5,0S21,0.224,21,0.5V2h1.75
		C23.439,2,24,2.561,24,3.25V14.5c0,0.827-0.673,1.5-1.5,1.5H12.25z M12.25,3C12.112,3,12,3.112,12,3.25v11.5
		c0,0.138,0.112,0.25,0.25,0.25H22.5c0.276,0,0.5-0.224,0.5-0.5V3.25C23,3.112,22.888,3,22.75,3H21v1c0,0.276-0.224,0.5-0.5,0.5
		S20,4.276,20,4V3h-2v1c0,0.276-0.224,0.5-0.5,0.5S17,4.276,17,4V3h-2v1c0,0.276-0.224,0.5-0.5,0.5S14,4.276,14,4V3H12.25z"/>
</g>
</svg>
