<?xml version="1.0" encoding="utf-8"?>
<!-- Generator: Adobe Illustrator 22.1.0, SVG Export Plug-In . SVG Version: 6.00 Build 0)  -->
<svg version="1.1" id="Layer_1" xmlns="http://www.w3.org/2000/svg" xmlns:xlink="http://www.w3.org/1999/xlink" x="0px" y="0px"
	 viewBox="0 0 24 24" style="enable-background:new 0 0 24 24;" xml:space="preserve">
<g>
	<title>notes-book</title>
	<path d="M9,10c-0.551,0-1-0.449-1-1V6c0-0.551,0.449-1,1-1h5c0.552,0,1,0.449,1,1v3c0,0.551-0.448,1-1,1H9z M9,9h5V6H9L9,9z"/>
	<path d="M4.5,23C3.673,23,3,22.327,3,21.5V20H2.5C2.224,20,2,19.776,2,19.5S2.224,19,2.5,19H3v-4H2.5C2.224,15,2,14.776,2,14.5
		S2.224,14,2.5,14H3v-4H2.5C2.224,10,2,9.776,2,9.5S2.224,9,2.5,9H3V5H2.5C2.224,5,2,4.776,2,4.5S2.224,4,2.5,4H3V2.5
		C3,1.673,3.673,1,4.5,1h13C18.327,1,19,1.673,19,2.5V3h1.5C21.327,3,22,3.673,22,4.5v14c0,0.827-0.673,1.5-1.5,1.5H19v1.5
		c0,0.827-0.673,1.5-1.5,1.5H4.5z M4,21.5C4,21.776,4.224,22,4.5,22h13c0.276,0,0.5-0.224,0.5-0.5v-19C18,2.224,17.776,2,17.5,2h-13
		C4.224,2,4,2.224,4,2.5V4h1.5C5.776,4,6,4.224,6,4.5S5.776,5,5.5,5H4v4h1.5C5.776,9,6,9.224,6,9.5S5.776,10,5.5,10H4v4h1.5
		C5.776,14,6,14.224,6,14.5S5.776,15,5.5,15H4v4h1.5C5.776,19,6,19.224,6,19.5S5.776,20,5.5,20H4V21.5z M20.5,19
		c0.276,0,0.5-0.224,0.5-0.5V16h-2v3H20.5z M21,15v-3h-2L21,15z M21,11V8h-2v3H21z M21,7V4.5C21,4.224,20.776,4,20.5,4H19v3H21z"/>
</g>
</svg>
