<?xml version="1.0" encoding="utf-8"?>
<!-- Generator: Adobe Illustrator 22.1.0, SVG Export Plug-In . SVG Version: 6.00 Build 0)  -->
<svg version="1.1" id="Layer_1" xmlns="http://www.w3.org/2000/svg" xmlns:xlink="http://www.w3.org/1999/xlink" x="0px" y="0px"
	 viewBox="0 0 24 24" style="enable-background:new 0 0 24 24;" xml:space="preserve">
<title>microphone-podcast-international</title>
<g>
	<path d="M12.001,18.003c-2.481,0-4.5-2.019-4.5-4.5v-1.5c0-2.481,2.019-4.5,4.5-4.5c2.481,0,4.5,2.019,4.5,4.5v1.5
		C16.501,15.984,14.482,18.003,12.001,18.003z M12.001,9.003c-1.654,0-3,1.346-3,3v1.5c0,1.654,1.346,3,3,3c1.654,0,3-1.346,3-3
		v-1.5C15.001,10.349,13.655,9.003,12.001,9.003z"/>
	<path d="M9.751,24.003c-0.414,0-0.75-0.336-0.75-0.75s0.336-0.75,0.75-0.75h1.5v-1.537c-3.813-0.378-6.75-3.59-6.75-7.463
		c0-0.414,0.336-0.75,0.75-0.75s0.75,0.336,0.75,0.75c0,3.308,2.692,6,6,6s6-2.692,6-6c0-0.414,0.336-0.75,0.75-0.75
		s0.75,0.336,0.75,0.75c0,3.873-2.937,7.084-6.75,7.463v1.537h1.5c0.414,0,0.75,0.336,0.75,0.75s-0.336,0.75-0.75,0.75H9.751z"/>
	<path d="M6.001,11.353c-0.282,0-0.537-0.156-0.667-0.406c-0.927-1.798-1.083-3.929-0.431-5.85C4.916,5.04,4.934,4.985,4.96,4.932
		c0.109-0.298,0.235-0.586,0.374-0.857c0.918-1.781,2.474-3.098,4.382-3.708c0.723-0.231,1.471-0.351,2.225-0.358
		c0.017-0.002,0.038-0.004,0.059-0.004c0.014,0,0.042,0.002,0.063,0.005c1.18,0.009,2.315,0.289,3.373,0.834
		c1.668,0.86,2.945,2.305,3.595,4.07c0.031,0.06,0.053,0.124,0.066,0.19c0.66,1.948,0.508,4.021-0.431,5.842
		c-0.129,0.251-0.384,0.407-0.667,0.407c-0.119,0-0.238-0.029-0.344-0.083c-0.368-0.19-0.512-0.643-0.323-1.01
		c0.681-1.321,0.844-2.822,0.47-4.256h-2.803c0,0.186-0.067,0.363-0.192,0.502c-0.134,0.149-0.318,0.237-0.518,0.247
		c-0.007,0-0.033,0.001-0.04,0.001c-0.399,0-0.728-0.312-0.749-0.711c-0.001-0.013-0.001-0.026-0.002-0.039h-2.998
		C10.501,6.016,10.5,6.029,10.5,6.042c-0.021,0.398-0.35,0.71-0.749,0.71c-0.007,0-0.034-0.001-0.041-0.001
		C9.311,6.731,9,6.399,9.001,6.003H6.195c-0.366,1.419-0.198,2.955,0.473,4.256c0.189,0.367,0.044,0.821-0.323,1.01
		C6.238,11.324,6.12,11.353,6.001,11.353L6.001,11.353z M17.189,4.503c-0.572-0.996-1.406-1.793-2.44-2.326
		c-0.339-0.175-0.69-0.316-1.051-0.423c0.514,0.849,0.889,1.781,1.103,2.749H17.189z M13.256,4.503
		c-0.249-0.934-0.677-1.815-1.256-2.586c-0.579,0.772-1.007,1.653-1.256,2.586H13.256z M9.2,4.503
		c0.213-0.966,0.588-1.899,1.101-2.747c-0.043,0.013-0.086,0.026-0.129,0.04C8.741,2.254,7.556,3.21,6.809,4.503H9.2z"/>
</g>
</svg>
