<?xml version="1.0" encoding="utf-8"?>
<!-- Generator: Adobe Illustrator 22.1.0, SVG Export Plug-In . SVG Version: 6.00 Build 0)  -->
<svg version="1.1" id="Layer_1" xmlns="http://www.w3.org/2000/svg" xmlns:xlink="http://www.w3.org/1999/xlink" x="0px" y="0px"
	 viewBox="0 0 24 24" style="enable-background:new 0 0 24 24;" xml:space="preserve">
<title>microphone-podcast-man</title>
<g>
	<path d="M2.25,24c-0.414,0-0.75-0.336-0.75-0.75s0.336-0.75,0.75-0.75h0.758l-0.005-1.558C1.335,20.643,0.069,19.21,0,17.48
		l0-5.657c0.026-0.991,0.429-1.901,1.136-2.572c0.681-0.646,1.577-1.002,2.522-1.002L3.743,8.25
		c0.021-0.001,0.062-0.002,0.103-0.002c1.931,0,3.57,1.579,3.653,3.52L7.5,17.427c-0.051,1.76-1.316,3.206-2.998,3.512L4.508,22.5
		H5.25C5.664,22.5,6,22.836,6,23.25S5.664,24,5.25,24H2.25z M1.5,17.45c0.045,1.125,1.016,2.052,2.165,2.052
		c0,0,0.096-0.001,0.102-0.001l0.054,0.001c1.185,0,2.143-0.919,2.179-2.092l0-5.61c-0.049-1.124-1.026-2.052-2.177-2.052L3.75,9.75
		L3.67,9.749c-1.186,0-2.139,0.92-2.17,2.094l0,0.907h2.239c0.414,0,0.75,0.336,0.75,0.75s-0.336,0.75-0.75,0.75H1.5l0,1.5h2.239
		c0.414,0,0.75,0.336,0.75,0.75s-0.336,0.75-0.75,0.75H1.5V17.45z"/>
	<path d="M9.75,18c-0.2,0-0.388-0.078-0.53-0.219C9.08,17.641,9,17.448,9,17.25c0.001-4.135,3.366-7.499,7.501-7.499
		c2.698,0.001,5.199,1.459,6.528,3.806c0.204,0.36,0.076,0.819-0.283,1.022c-0.113,0.063-0.24,0.097-0.369,0.097
		c-0.27,0-0.52-0.146-0.653-0.38c-1.063-1.878-3.063-3.045-5.221-3.045c-1.604,0-3.111,0.624-4.244,1.756
		c-0.948,0.948-1.547,2.176-1.712,3.493h0.703c0.414,0,0.75,0.336,0.75,0.75S11.664,18,11.25,18H9.75z"/>
	<path d="M16.5,9.75c-2.688,0-4.875-2.187-4.875-4.875c0-0.839,0.221-1.67,0.639-2.404c0.017-0.034,0.034-0.059,0.045-0.075
		C13.183,0.92,14.79,0,16.5,0c2.388,0,4.454,1.778,4.814,4.139c0.013,0.052,0.021,0.103,0.022,0.151
		c0.026,0.218,0.039,0.404,0.039,0.584C21.375,7.563,19.188,9.75,16.5,9.75z M13.23,4.037c-0.07,0.272-0.105,0.552-0.105,0.838
		c0,1.861,1.514,3.375,3.375,3.375c1.694,0,3.101-1.255,3.339-2.883c-0.639,0.172-1.296,0.258-1.96,0.258
		C16.19,5.625,14.561,5.065,13.23,4.037z M13.939,2.683c1.093,0.92,2.509,1.442,3.935,1.442c0.63,0,1.245-0.095,1.838-0.282
		C19.268,2.468,17.967,1.5,16.5,1.5C15.513,1.5,14.578,1.937,13.939,2.683z"/>
	<path d="M15.25,22.5c-0.965,0-1.75-0.785-1.75-1.75v-4.5c0-0.689,0.561-1.25,1.25-1.25h5c0.689,0,1.25,0.561,1.25,1.25v0.25h0.75
		c1.241,0,2.25,1.009,2.25,2.25S22.991,21,21.75,21h-0.768c-0.122,0.847-0.852,1.5-1.732,1.5H15.25z M15,20.75
		c0,0.138,0.112,0.25,0.25,0.25h4c0.138,0,0.25-0.112,0.25-0.25V16.5H15V20.75z M21.75,19.5c0.414,0,0.75-0.336,0.75-0.75
		S22.164,18,21.75,18H21v1.5H21.75z"/>
</g>
</svg>
