<?xml version="1.0" encoding="utf-8"?>
<!-- Generator: Adobe Illustrator 22.1.0, SVG Export Plug-In . SVG Version: 6.00 Build 0)  -->
<svg version="1.1" id="Layer_1" xmlns="http://www.w3.org/2000/svg" xmlns:xlink="http://www.w3.org/1999/xlink" x="0px" y="0px"
	 viewBox="0 0 24 24" style="enable-background:new 0 0 24 24;" xml:space="preserve">
<title>drawer-open</title>
<g>
	<path d="M2.25,16.5C1.009,16.5,0,15.491,0,14.25v-4.5C0,8.509,1.009,7.5,2.25,7.5h4.582c0.269,0,0.518,0.145,0.651,0.378
		c0.461,0.807,1.131,1.477,1.938,1.938c0.783,0.447,1.672,0.683,2.569,0.683c1.869,0,3.603-1.004,4.526-2.621
		C16.65,7.645,16.9,7.5,17.168,7.5h4.582C22.991,7.5,24,8.509,24,9.75v4.5c0,1.241-1.009,2.25-2.25,2.25H2.25z M2.25,9
		C1.836,9,1.5,9.336,1.5,9.75v4.5C1.5,14.664,1.836,15,2.25,15h19.5c0.414,0,0.75-0.336,0.75-0.75v-4.5C22.5,9.336,22.164,9,21.75,9
		h-4.163c-1.244,1.882-3.321,2.999-5.598,2.999c-1.158,0-2.303-0.304-3.312-0.88C7.77,10.6,6.991,9.871,6.414,9H2.25z"/>
</g>
</svg>
