<?xml version="1.0" encoding="utf-8"?>
<!-- Generator: Adobe Illustrator 22.1.0, SVG Export Plug-In . SVG Version: 6.00 Build 0)  -->
<svg version="1.1" id="Layer_1" xmlns="http://www.w3.org/2000/svg" xmlns:xlink="http://www.w3.org/1999/xlink" x="0px" y="0px"
	 viewBox="0 0 24 24" style="enable-background:new 0 0 24 24;" xml:space="preserve">
<title>drawer-home</title>
<g>
	<path d="M3,24c-1.241,0-2.25-1.009-2.25-2.25v-4.5C0.75,16.009,1.759,15,3,15h3.832c0.268,0,0.518,0.145,0.651,0.378
		c0.461,0.807,1.131,1.478,1.938,1.938C10.204,17.763,11.093,18,11.991,18c1.869,0,3.603-1.005,4.526-2.622
		C16.65,15.145,16.9,15,17.168,15H21c1.241,0,2.25,1.009,2.25,2.25v4.5c0,1.241-1.009,2.25-2.25,2.25H3z M3,16.5
		c-0.414,0-0.75,0.336-0.75,0.75v4.5c0,0.414,0.336,0.75,0.75,0.75h18c0.414,0,0.75-0.336,0.75-0.75v-4.5
		c0-0.414-0.336-0.75-0.75-0.75h-3.413c-1.244,1.882-3.32,2.999-5.597,2.999c-1.158,0-2.303-0.304-3.312-0.88
		C7.77,18.101,6.991,17.371,6.414,16.5H3z"/>
	<path d="M19.5,13.5c-0.414,0-0.75-0.336-0.75-0.75V2.25c0-0.414-0.336-0.75-0.75-0.75H6c-0.414,0-0.75,0.336-0.75,0.75v10.5
		c0,0.414-0.336,0.75-0.75,0.75s-0.75-0.336-0.75-0.75V2.25C3.75,1.009,4.759,0,6,0h12c1.241,0,2.25,1.009,2.25,2.25v10.5
		C20.25,13.164,19.914,13.5,19.5,13.5z"/>
	<path d="M10.5,13.5c-1.241,0-2.25-1.009-2.25-2.25v-3.9L7.186,8.11C7.057,8.202,6.907,8.25,6.75,8.25
		c-0.242,0-0.47-0.117-0.61-0.314C5.899,7.599,5.978,7.13,6.314,6.89l5.25-3.75C11.692,3.048,11.843,3,12,3s0.308,0.048,0.436,0.14
		l5.25,3.75c0.336,0.24,0.415,0.71,0.174,1.046C17.72,8.133,17.491,8.25,17.25,8.25c-0.157,0-0.307-0.048-0.435-0.139L15.75,7.35
		v3.9c0,1.241-1.009,2.25-2.25,2.25H10.5z M9.75,11.25c0,0.414,0.336,0.75,0.75,0.75h3c0.414,0,0.75-0.336,0.75-0.75V6.279L12,4.672
		L9.75,6.279V11.25z"/>
</g>
</svg>
