<?xml version="1.0" encoding="utf-8"?>
<!-- Generator: Adobe Illustrator 22.1.0, SVG Export Plug-In . SVG Version: 6.00 Build 0)  -->
<svg version="1.1" id="Layer_1" xmlns="http://www.w3.org/2000/svg" xmlns:xlink="http://www.w3.org/1999/xlink" x="0px" y="0px"
	 viewBox="0 0 24 24" style="enable-background:new 0 0 24 24;" xml:space="preserve">
<g>
	<title>charging-wireless-charging-port</title>
	<path d="M18.5,24c-0.276,0-0.5-0.224-0.5-0.5V20h-0.5c-0.276,0-0.5-0.224-0.5-0.5v-4c0-1.378,1.122-2.5,2.5-2.5H20V8
		c0-1.654-1.346-3-3-3s-3,1.346-3,3v11.5c0,2.481-2.019,4.5-4.5,4.5S5,21.981,5,19.5V13H4.5C4.224,13,4,12.776,4,12.5v-1.714
		C1.635,10.116,0,7.97,0,5.5C0,2.467,2.467,0,5.5,0S11,2.467,11,5.5c0,2.47-1.635,4.616-4,5.286V12.5C7,12.776,6.776,13,6.5,13H6
		v6.5C6,21.43,7.57,23,9.5,23s3.5-1.57,3.5-3.5V8c0-2.206,1.794-4,4-4s4,1.794,4,4v5h0.5c1.378,0,2.5,1.122,2.5,2.5v4
		c0,0.276-0.224,0.5-0.5,0.5H23v3.5c0,0.276-0.224,0.5-0.5,0.5H18.5z M22,23v-3h-3v3H22z M23,19v-3.5c0-0.827-0.673-1.5-1.5-1.5h-2
		c-0.827,0-1.5,0.673-1.5,1.5V19H23z M6,12v-1.027C5.822,10.991,5.659,11,5.5,11S5.178,10.991,5,10.973V12H6z M5.5,1
		C3.019,1,1,3.019,1,5.5S3.019,10,5.5,10S10,7.981,10,5.5S7.981,1,5.5,1z"/>
	<path d="M5.5,9C3.57,9,2,7.43,2,5.5S3.57,2,5.5,2S9,3.57,9,5.5S7.43,9,5.5,9z M5.5,3C4.121,3,3,4.121,3,5.5S4.121,8,5.5,8
		S8,6.879,8,5.5S6.879,3,5.5,3z"/>
</g>
</svg>
