<?xml version="1.0" encoding="utf-8"?>
<!-- Generator: Adobe Illustrator 22.1.0, SVG Export Plug-In . SVG Version: 6.00 Build 0)  -->
<svg version="1.1" id="Layer_1" xmlns="http://www.w3.org/2000/svg" xmlns:xlink="http://www.w3.org/1999/xlink" x="0px" y="0px"
	 viewBox="0 0 24 24" style="enable-background:new 0 0 24 24;" xml:space="preserve">
<g>
	<title>charging-flash</title>
	<path d="M8,20c-4.411,0-8-3.589-8-8c0-4.411,3.589-8,8-8c0.276,0,0.5,0.224,0.5,0.5S8.276,5,8,5c-3.86,0-7,3.14-7,7s3.14,7,7,7
		c0.276,0,0.5,0.224,0.5,0.5S8.276,20,8,20z"/>
	<path d="M16,20c-0.276,0-0.5-0.224-0.5-0.5S15.724,19,16,19c3.86,0,7-3.14,7-7s-3.14-7-7-7c-0.276,0-0.5-0.224-0.5-0.5
		S15.724,4,16,4c4.411,0,8,3.589,8,8C24,16.411,20.411,20,16,20z"/>
	<path d="M10.271,22c-0.076,0-0.152-0.018-0.22-0.051c-0.209-0.103-0.321-0.342-0.265-0.569L11.362,15H6.926
		c-0.401,0-0.777-0.156-1.061-0.439S5.426,13.9,5.426,13.5c0-0.311,0.094-0.609,0.273-0.862l7.329-10.425
		C13.121,2.079,13.274,2,13.437,2c0.067,0,0.132,0.013,0.193,0.039c0.218,0.091,0.341,0.317,0.299,0.55L12.598,10h4.332
		c0.827,0,1.5,0.673,1.5,1.5c0,0.337-0.115,0.669-0.325,0.933l-7.442,9.378C10.567,21.931,10.424,22,10.271,22z M6.517,13.212
		c-0.059,0.084-0.091,0.184-0.091,0.287c0,0.134,0.052,0.26,0.146,0.354C6.667,13.948,6.793,14,6.926,14H12
		c0.155,0,0.298,0.07,0.394,0.192s0.129,0.278,0.092,0.428l-1.178,4.769l6.014-7.578c0.07-0.088,0.109-0.199,0.109-0.311
		c0-0.276-0.224-0.5-0.5-0.5H12c-0.148,0-0.288-0.065-0.384-0.179c-0.095-0.114-0.135-0.263-0.109-0.409l1.037-5.773L6.517,13.212z"
		/>
</g>
</svg>
