<?xml version="1.0" encoding="utf-8"?>
<!-- Generator: Adobe Illustrator 22.1.0, SVG Export Plug-In . SVG Version: 6.00 Build 0)  -->
<svg version="1.1" id="Layer_1" xmlns="http://www.w3.org/2000/svg" xmlns:xlink="http://www.w3.org/1999/xlink" x="0px" y="0px"
	 viewBox="0 0 24 24" style="enable-background:new 0 0 24 24;" xml:space="preserve">
<g>
	<title>charging-battery-almost-full</title>
	<path d="M1.5,18C0.673,18,0,17.327,0,16.5v-9C0,6.673,0.673,6,1.5,6h18C20.327,6,21,6.673,21,7.5V9h1.5c0.827,0,1.5,0.673,1.5,1.5
		v3c0,0.827-0.673,1.5-1.5,1.5H21v1.5c0,0.827-0.673,1.5-1.5,1.5H1.5z M1.5,7C1.224,7,1,7.224,1,7.5v9C1,16.776,1.224,17,1.5,17h18
		c0.276,0,0.5-0.224,0.5-0.5v-2c0-0.276,0.224-0.5,0.5-0.5h2c0.276,0,0.5-0.224,0.5-0.5v-3c0-0.276-0.224-0.5-0.5-0.5h-2
		C20.224,10,20,9.776,20,9.5v-2C20,7.224,19.776,7,19.5,7H1.5z"/>
	<path d="M3.5,16C3.224,16,3,15.776,3,15.5v-7C3,8.224,3.224,8,3.5,8S4,8.224,4,8.5v7C4,15.776,3.776,16,3.5,16z"/>
	<path d="M6.5,16C6.224,16,6,15.776,6,15.5v-7C6,8.224,6.224,8,6.5,8S7,8.224,7,8.5v7C7,15.776,6.776,16,6.5,16z"/>
	<path d="M9.5,16C9.224,16,9,15.776,9,15.5v-7C9,8.224,9.224,8,9.5,8S10,8.224,10,8.5v7C10,15.776,9.776,16,9.5,16z"/>
	<path d="M12.5,16c-0.276,0-0.5-0.224-0.5-0.5v-7C12,8.224,12.224,8,12.5,8C12.776,8,13,8.224,13,8.5v7C13,15.776,12.776,16,12.5,16
		z"/>
	<path d="M15.5,16c-0.276,0-0.5-0.224-0.5-0.5v-7C15,8.224,15.224,8,15.5,8S16,8.224,16,8.5v7C16,15.776,15.776,16,15.5,16z"/>
</g>
</svg>
