<?xml version="1.0" encoding="utf-8"?>
<!-- Generator: Adobe Illustrator 22.1.0, SVG Export Plug-In . SVG Version: 6.00 Build 0)  -->
<svg version="1.1" id="Layer_1" xmlns="http://www.w3.org/2000/svg" xmlns:xlink="http://www.w3.org/1999/xlink" x="0px" y="0px"
	 viewBox="0 0 24 24" style="enable-background:new 0 0 24 24;" xml:space="preserve">
<g>
	<title>charging-battery-empty</title>
	<path d="M15.5,18.25c-0.276,0-0.5-0.224-0.5-0.5s0.224-0.5,0.5-0.5h4c0.276,0,0.5-0.224,0.5-0.5v-2c0-0.276,0.224-0.5,0.5-0.5h2
		c0.276,0,0.5-0.224,0.5-0.5v-3c0-0.276-0.224-0.5-0.5-0.5h-2c-0.276,0-0.5-0.224-0.5-0.5v-2c0-0.276-0.224-0.5-0.5-0.5H15
		c-0.276,0-0.5-0.224-0.5-0.5s0.224-0.5,0.5-0.5h4.5c0.827,0,1.5,0.673,1.5,1.5v1.5h1.5c0.827,0,1.5,0.673,1.5,1.5v3
		c0,0.827-0.673,1.5-1.5,1.5H21v1.5c0,0.827-0.673,1.5-1.5,1.5H15.5z"/>
	<path d="M1.5,18.25c-0.827,0-1.5-0.673-1.5-1.5v-9c0-0.827,0.673-1.5,1.5-1.5h7c0.276,0,0.5,0.224,0.5,0.5s-0.224,0.5-0.5,0.5h-7
		C1.224,7.25,1,7.474,1,7.75v9c0,0.276,0.224,0.5,0.5,0.5H9c0.276,0,0.5,0.224,0.5,0.5s-0.224,0.5-0.5,0.5H1.5z"/>
	<path d="M11.5,18.75c-0.041,0-0.082-0.005-0.122-0.015C11.156,18.679,11,18.48,11,18.25v-4H8.5c-0.175,0-0.339-0.093-0.429-0.243
		c-0.09-0.15-0.095-0.339-0.012-0.493l4-7.5C12.146,5.851,12.315,5.75,12.5,5.75c0.041,0,0.082,0.005,0.121,0.015
		C12.844,5.821,13,6.02,13,6.25v4h2.5c0.175,0,0.339,0.093,0.429,0.243c0.09,0.15,0.095,0.338,0.013,0.492l-4,7.5
		C11.854,18.649,11.685,18.75,11.5,18.75z M11.5,13.25c0.276,0,0.5,0.224,0.5,0.5v2.5l2.667-5H12.5c-0.276,0-0.5-0.224-0.5-0.5v-2.5
		l-2.667,5H11.5z"/>
</g>
</svg>
