<?xml version="1.0" encoding="utf-8"?>
<!-- Generator: Adobe Illustrator 22.1.0, SVG Export Plug-In . SVG Version: 6.00 Build 0)  -->
<svg version="1.1" id="Layer_1" xmlns="http://www.w3.org/2000/svg" xmlns:xlink="http://www.w3.org/1999/xlink" x="0px" y="0px"
	 viewBox="0 0 24 24" style="enable-background:new 0 0 24 24;" xml:space="preserve">
<g>
	<title>charging-cable</title>
	<path d="M12.5,12c-0.058,0-0.115-0.01-0.17-0.03C12.132,11.899,12,11.71,12,11.5V8H9C8.809,8,8.638,7.894,8.553,7.724
		C8.468,7.553,8.486,7.352,8.6,7.2l4.5-6C13.194,1.075,13.344,1,13.5,1c0.053,0,0.106,0.008,0.157,0.025
		C13.863,1.094,14,1.285,14,1.5V5h3.5c0.193,0,0.371,0.113,0.453,0.288c0.082,0.175,0.055,0.383-0.069,0.532l-5,6
		C12.789,11.935,12.648,12,12.5,12z M12.5,7C12.776,7,13,7.224,13,7.5v2.619L16.433,6H13.5C13.224,6,13,5.776,13,5.5V3l-3,4H12.5z"
		/>
	<path d="M12.5,24C7.262,24,3,19.738,3,14.5V12H2.5C1.121,12,0,10.879,0,9.5v-5C0,4.224,0.224,4,0.5,4H1V0.5C1,0.224,1.224,0,1.5,0
		h4C5.776,0,6,0.224,6,0.5V4h0.5C6.776,4,7,4.224,7,4.5v5C7,10.879,5.879,12,4.5,12H4v2.5c0,3.01,1.558,5.725,4.069,7.252
		C7.379,20.819,7,19.689,7,18.5c0-3.033,2.467-5.5,5.5-5.5s5.5,2.467,5.5,5.5c0,1.189-0.379,2.319-1.069,3.252
		C19.441,20.225,21,17.51,21,14.5V12h-0.5c-0.827,0-1.5-0.673-1.5-1.5v-4C19,6.224,19.224,6,19.5,6H20V3.5C20,3.224,20.224,3,20.5,3
		h2C22.776,3,23,3.224,23,3.5V6h0.5C23.776,6,24,6.224,24,6.5v4c0,0.827-0.673,1.5-1.5,1.5H22v2.5C22,19.738,17.738,24,12.5,24z
		 M12.5,14C10.019,14,8,16.019,8,18.5s2.019,4.5,4.5,4.5c2.481,0,4.5-2.019,4.5-4.5S14.981,14,12.5,14z M20,10.5
		c0,0.276,0.224,0.5,0.5,0.5h2c0.276,0,0.5-0.224,0.5-0.5V7h-3V10.5z M1,9.5C1,10.327,1.673,11,2.5,11h2C5.327,11,6,10.327,6,9.5V5
		H1V9.5z M22,6V4h-1v2H22z M5,4V1H2v3H5z"/>
</g>
</svg>
