<?xml version="1.0" encoding="utf-8"?>
<!-- Generator: Adobe Illustrator 22.1.0, SVG Export Plug-In . SVG Version: 6.00 Build 0)  -->
<svg version="1.1" id="Layer_1" xmlns="http://www.w3.org/2000/svg" xmlns:xlink="http://www.w3.org/1999/xlink" x="0px" y="0px"
	 viewBox="0 0 24 24" style="enable-background:new 0 0 24 24;" xml:space="preserve">
<g>
	<title>charging-light-idea</title>
	<path d="M11,17c-0.059,0-0.118-0.01-0.173-0.031C10.631,16.896,10.5,16.708,10.5,16.5V13H9.25c-0.291-0.001-0.558-0.171-0.68-0.434
		c-0.124-0.266-0.08-0.582,0.112-0.805l3.939-4.587C12.716,7.063,12.854,7,13,7c0.06,0,0.118,0.011,0.174,0.031
		C13.369,7.103,13.5,7.292,13.5,7.5V11h1.25c0.178,0,0.351,0.063,0.486,0.179c0.153,0.13,0.246,0.312,0.262,0.511
		c0.016,0.2-0.047,0.394-0.177,0.547l-3.942,4.589C11.284,16.937,11.146,17,11,17z M11,12c0.276,0,0.5,0.224,0.5,0.5v2.65
		l2.707-3.151L13,12c-0.276,0-0.5-0.224-0.5-0.5V8.85l-2.706,3.151L11,12z"/>
	<circle cx="12" cy="23.25" r="0.75"/>
	<circle cx="0.75" cy="12" r="0.75"/>
	<path d="M2.259,18.375c-0.267,0-0.516-0.143-0.65-0.374c-0.206-0.357-0.084-0.817,0.272-1.024c0.114-0.067,0.244-0.102,0.376-0.102
		c0.265,0,0.513,0.142,0.647,0.37c0.21,0.363,0.087,0.823-0.271,1.03C2.518,18.34,2.389,18.375,2.259,18.375z"/>
	<path d="M6.375,22.493c-0.13,0-0.259-0.034-0.372-0.099c-0.359-0.206-0.483-0.666-0.278-1.024c0.013-0.022,0.027-0.043,0.043-0.063
		c0.136-0.192,0.367-0.314,0.611-0.314c0.129,0,0.257,0.034,0.37,0.099c0.359,0.206,0.483,0.665,0.277,1.024
		C6.893,22.348,6.643,22.493,6.375,22.493z"/>
	<path d="M21.741,18.375c-0.132,0-0.262-0.035-0.376-0.102c-0.173-0.1-0.296-0.262-0.348-0.456
		c-0.052-0.194-0.024-0.396,0.076-0.569c0.134-0.23,0.383-0.373,0.649-0.373c0.132,0,0.262,0.035,0.376,0.102
		c0.356,0.207,0.479,0.666,0.273,1.023C22.257,18.231,22.008,18.375,21.741,18.375z"/>
	<path d="M17.625,22.492c-0.268,0-0.517-0.144-0.651-0.375c-0.206-0.358-0.083-0.818,0.275-1.024c0.114-0.066,0.243-0.1,0.374-0.1
		c0.268,0,0.517,0.144,0.651,0.375c0.005,0.008,0.012,0.022,0.016,0.03c0.086,0.151,0.111,0.35,0.06,0.54
		c-0.052,0.193-0.176,0.354-0.35,0.454C17.886,22.458,17.756,22.492,17.625,22.492z"/>
	<path d="M2.256,7.126c-0.131,0-0.26-0.035-0.374-0.101c-0.173-0.1-0.297-0.262-0.349-0.455S1.507,6.174,1.607,6.001
		c0.1-0.173,0.262-0.298,0.455-0.35c0.064-0.017,0.13-0.026,0.195-0.026c0.129,0,0.257,0.034,0.37,0.098
		c0.178,0.103,0.303,0.265,0.354,0.458c0.052,0.194,0.025,0.396-0.076,0.568C2.807,6.924,2.645,7.048,2.452,7.1
		C2.388,7.117,2.322,7.126,2.256,7.126z"/>
	<path d="M6.375,3.007c-0.267,0-0.516-0.143-0.649-0.373C5.519,2.277,5.641,1.817,5.998,1.609c0.114-0.067,0.244-0.102,0.376-0.102
		c0.267,0,0.516,0.143,0.649,0.373c0.101,0.178,0.127,0.379,0.076,0.57C7.048,2.645,6.924,2.806,6.75,2.907
		C6.636,2.973,6.507,3.007,6.375,3.007L6.375,3.007z"/>
	<path d="M21.744,7.125c-0.267,0-0.516-0.143-0.649-0.373c-0.1-0.173-0.128-0.375-0.076-0.569c0.051-0.194,0.175-0.356,0.348-0.456
		c0.115-0.066,0.245-0.101,0.376-0.101c0.267,0,0.516,0.143,0.649,0.373c0.207,0.357,0.085,0.817-0.272,1.025
		C22.006,7.09,21.876,7.125,21.744,7.125z"/>
	<path d="M17.624,3.007c-0.131,0-0.26-0.035-0.373-0.1c-0.358-0.207-0.482-0.666-0.276-1.024c0.101-0.175,0.262-0.299,0.455-0.351
		c0.063-0.017,0.13-0.026,0.196-0.026c0.13,0,0.259,0.035,0.373,0.1c0.359,0.211,0.481,0.669,0.276,1.025
		C18.141,2.864,17.892,3.007,17.624,3.007z"/>
	<circle cx="23.25" cy="12" r="0.75"/>
	<path d="M12.007,19.499c-3.092,0-5.911-1.938-7.013-4.822C4.28,12.808,4.337,10.771,5.155,8.94s2.298-3.233,4.166-3.947
		C9.379,4.971,9.439,4.96,9.5,4.96c0.206,0,0.394,0.129,0.467,0.322c0.048,0.125,0.044,0.261-0.01,0.383
		C9.902,5.786,9.803,5.879,9.678,5.927c-1.622,0.62-2.905,1.834-3.613,3.42c-0.708,1.585-0.757,3.351-0.137,4.973
		c0.956,2.5,3.399,4.179,6.079,4.179c0.791,0,1.569-0.144,2.313-0.429c3.348-1.28,5.031-5.045,3.751-8.393
		c-0.754-1.972-2.425-3.459-4.471-3.979C12.364,5.385,11.5,4.276,11.5,3V0.5C11.5,0.224,11.724,0,12,0c0.276,0,0.5,0.224,0.5,0.5V3
		c0,0.818,0.553,1.529,1.346,1.729c2.361,0.6,4.29,2.316,5.159,4.591c1.477,3.863-0.465,8.207-4.327,9.683
		C13.819,19.332,12.92,19.499,12.007,19.499L12.007,19.499z"/>
</g>
</svg>
