<?xml version="1.0" encoding="utf-8"?>
<!-- Generator: Adobe Illustrator 22.1.0, SVG Export Plug-In . SVG Version: 6.00 Build 0)  -->
<svg version="1.1" id="Layer_1" xmlns="http://www.w3.org/2000/svg" xmlns:xlink="http://www.w3.org/1999/xlink" x="0px" y="0px"
	 viewBox="0 0 24 24" style="enable-background:new 0 0 24 24;" xml:space="preserve">
<g>
	<title>charging-battery-eco-1</title>
	<path d="M15.5,17.5c-0.276,0-0.5-0.224-0.5-0.5s0.224-0.5,0.5-0.5h4c0.276,0,0.5-0.224,0.5-0.5v-2c0-0.276,0.224-0.5,0.5-0.5h2
		c0.276,0,0.5-0.224,0.5-0.5v-3c0-0.276-0.224-0.5-0.5-0.5h-2C20.224,9.5,20,9.276,20,9V7c0-0.276-0.224-0.5-0.5-0.5h-1
		C18.224,6.5,18,6.276,18,6s0.224-0.5,0.5-0.5h1C20.327,5.5,21,6.173,21,7v1.5h1.5c0.827,0,1.5,0.673,1.5,1.5v3
		c0,0.827-0.673,1.5-1.5,1.5H21V16c0,0.827-0.673,1.5-1.5,1.5H15.5z"/>
	<path d="M1.5,17.5C0.673,17.5,0,16.827,0,16V7c0-0.827,0.673-1.5,1.5-1.5h5C6.776,5.5,7,5.724,7,6S6.776,6.5,6.5,6.5h-5
		C1.224,6.5,1,6.724,1,7v9c0,0.276,0.224,0.5,0.5,0.5h2C3.776,16.5,4,16.724,4,17s-0.224,0.5-0.5,0.5H1.5z"/>
	<path d="M5.5,19c-0.04,0-0.08-0.005-0.119-0.014c-0.131-0.032-0.24-0.113-0.309-0.228c-0.069-0.115-0.089-0.249-0.057-0.378
		c0.238-0.958,0.608-1.879,1.101-2.741C5.395,14.748,5,13.641,5,12.5c0-2.757,2.243-5,5-5c2.826,0,6.218-1.915,6.252-1.934
		C16.327,5.523,16.413,5.5,16.5,5.5c0.088,0,0.175,0.023,0.251,0.068C16.905,5.656,17,5.822,17,6c0,0.115-0.01,2.855-0.833,5.642
		C15.035,15.474,12.902,17.5,10,17.5c-1.149,0-2.255-0.397-3.147-1.124c-0.384,0.716-0.676,1.47-0.868,2.244
		C5.93,18.844,5.73,19,5.5,19z M7.376,15.513C8.106,16.151,9.03,16.5,10,16.5c4.927,0,5.809-7.304,5.964-9.656
		C14.707,7.461,12.253,8.5,10,8.5c-2.206,0-4,1.794-4,4c0,0.798,0.244,1.583,0.691,2.242c1.172-1.65,2.761-2.927,4.615-3.704
		C11.368,11.013,11.433,11,11.5,11c0.202,0,0.383,0.121,0.461,0.307c0.052,0.123,0.052,0.259,0.002,0.382
		c-0.051,0.124-0.146,0.22-0.27,0.272C9.94,12.696,8.451,13.921,7.376,15.513z"/>
</g>
</svg>
