<svg xmlns="http://www.w3.org/2000/svg" viewBox="0 0 24 24"><defs><style>.a{fill:none;stroke:currentColor;stroke-linecap:round;stroke-linejoin:round;stroke-width:1.5px;}</style></defs><title>notes-warning</title><path class="a" d="M17.25,20.25a.375.375,0,1,1-.375.375.375.375,0,0,1,.375-.375"/><line class="a" x1="17.25" y1="18" x2="17.25" y2="15"/><path class="a" d="M23.063,20.682a1.774,1.774,0,0,1-1.587,2.568H13.024a1.774,1.774,0,0,1-1.587-2.568l4.226-8.451a1.774,1.774,0,0,1,3.174,0Z"/><path class="a" d="M8.25,20.25h-6a1.464,1.464,0,0,1-1.5-1.5V3.857A1.556,1.556,0,0,1,2.25,2.25h15a1.556,1.556,0,0,1,1.5,1.607V8.25"/><line class="a" x1="5.25" y1="0.75" x2="5.25" y2="5.25"/><line class="a" x1="9.75" y1="0.75" x2="9.75" y2="5.25"/><line class="a" x1="14.25" y1="0.75" x2="14.25" y2="5.25"/></svg>