<svg xmlns="http://www.w3.org/2000/svg" viewBox="0 0 24 24"><defs><style>.a{fill:none;stroke:currentColor;stroke-linecap:round;stroke-linejoin:round;stroke-width:1.5px;}</style></defs><title>notes-flip-1</title><path class="a" d="M14.689,19.811a1.5,1.5,0,0,1-1.06.439H2.25a1.5,1.5,0,0,1-1.5-1.5v-15a1.5,1.5,0,0,1,1.5-1.5h16.5a1.5,1.5,0,0,1,1.5,1.5v9.879a1.5,1.5,0,0,1-.439,1.06Z"/><line class="a" x1="5.25" y1="0.75" x2="5.25" y2="3.75"/><line class="a" x1="15.75" y1="0.75" x2="15.75" y2="3.75"/><path class="a" d="M20.115,14.25H15.75a1.5,1.5,0,0,0-1.5,1.5v4.365"/><path class="a" d="M23.25,10.5V21.75a1.5,1.5,0,0,1-1.5,1.5h-15"/></svg>