<svg xmlns="http://www.w3.org/2000/svg" viewBox="0 0 24 24"><defs><style>.a{fill:none;stroke:currentColor;stroke-linecap:round;stroke-linejoin:round;stroke-width:1.5px;}</style></defs><title>notes-cash</title><path class="a" d="M18.75,14.25H16.717a1.342,1.342,0,0,0-.5,2.587l2.064.826a1.342,1.342,0,0,1-.5,2.587H15.75"/><line class="a" x1="17.25" y1="14.25" x2="17.25" y2="13.5"/><line class="a" x1="17.25" y1="21" x2="17.25" y2="20.25"/><circle class="a" cx="17.25" cy="17.25" r="6"/><path class="a" d="M8.25,20.25h-6a1.464,1.464,0,0,1-1.5-1.5V3.857A1.556,1.556,0,0,1,2.25,2.25h15a1.556,1.556,0,0,1,1.5,1.607V8.25"/><line class="a" x1="5.25" y1="0.75" x2="5.25" y2="5.25"/><line class="a" x1="9.75" y1="0.75" x2="9.75" y2="5.25"/><line class="a" x1="14.25" y1="0.75" x2="14.25" y2="5.25"/></svg>