<svg xmlns="http://www.w3.org/2000/svg" viewBox="0 0 24 24"><defs><style>.a{fill:none;stroke:currentColor;stroke-linecap:round;stroke-linejoin:round;stroke-width:1.5px;}</style></defs><title>notes-quill</title><line class="a" x1="10.981" y1="23.25" x2="16.814" y2="17.416"/><path class="a" d="M23.178,11.052a10.471,10.471,0,0,0-2.24,0l-2,3.18-1.229-2.289c-4.459,2.189-6.2,7.478-4.551,9.13C15.37,23.289,24.128,19.408,23.178,11.052Z"/><path class="a" d="M8.25,20.25h-6a1.464,1.464,0,0,1-1.5-1.5V3.857A1.556,1.556,0,0,1,2.25,2.25h15a1.556,1.556,0,0,1,1.5,1.607V8.25"/><line class="a" x1="5.25" y1="0.75" x2="5.25" y2="5.25"/><line class="a" x1="9.75" y1="0.75" x2="9.75" y2="5.25"/><line class="a" x1="14.25" y1="0.75" x2="14.25" y2="5.25"/></svg>