<svg xmlns="http://www.w3.org/2000/svg" viewBox="0 0 24 24"><defs><style>.a{fill:none;stroke:currentColor;stroke-linecap:round;stroke-linejoin:round;stroke-width:1.5px;}</style></defs><title>notes-text-flip</title><path class="a" d="M13.629,23.25H2.25a1.5,1.5,0,0,1-1.5-1.5v-18a1.5,1.5,0,0,1,1.5-1.5h19.5a1.5,1.5,0,0,1,1.5,1.5v9.879a1.5,1.5,0,0,1-.439,1.06l-8.122,8.122A1.5,1.5,0,0,1,13.629,23.25Z"/><path class="a" d="M14.25,23.115V15.75a1.5,1.5,0,0,1,1.5-1.5h7.365"/><line class="a" x1="5.25" y1="0.75" x2="5.25" y2="3.75"/><line class="a" x1="18.75" y1="0.75" x2="18.75" y2="3.75"/><line class="a" x1="5.25" y1="8.25" x2="17.25" y2="8.25"/><line class="a" x1="5.25" y1="12.75" x2="10.5" y2="12.75"/></svg>