<svg xmlns="http://www.w3.org/2000/svg" viewBox="0 0 24 24"><defs><style>.a{fill:none;stroke:currentColor;stroke-linecap:round;stroke-linejoin:round;stroke-width:1.5px;}</style></defs><title>notes-sync</title><polyline class="a" points="15 18.75 11.25 18.75 11.25 22.5"/><path class="a" d="M22.667,19.483a5.572,5.572,0,0,1-10.74-.733"/><polyline class="a" points="19.5 15.75 23.25 15.75 23.25 12"/><path class="a" d="M11.833,15.017a5.572,5.572,0,0,1,10.74.733"/><path class="a" d="M8.25,20.25h-6a1.464,1.464,0,0,1-1.5-1.5V3.857A1.556,1.556,0,0,1,2.25,2.25h15a1.556,1.556,0,0,1,1.5,1.607V8.25"/><line class="a" x1="5.25" y1="0.75" x2="5.25" y2="5.25"/><line class="a" x1="9.75" y1="0.75" x2="9.75" y2="5.25"/><line class="a" x1="14.25" y1="0.75" x2="14.25" y2="5.25"/></svg>