<?xml version="1.0" encoding="utf-8"?>
<!-- Generator: Adobe Illustrator 22.1.0, SVG Export Plug-In . SVG Version: 6.00 Build 0)  -->
<svg version="1.1" id="Layer_1" xmlns="http://www.w3.org/2000/svg" xmlns:xlink="http://www.w3.org/1999/xlink" x="0px" y="0px"
	 viewBox="0 0 24 24" style="enable-background:new 0 0 24 24;" xml:space="preserve">
<title>cellular-network-lte</title>
<g>
	<path d="M8.363,12c-0.414,0-0.75-0.336-0.75-0.75V3.311l-1.72,1.72c-0.142,0.142-0.33,0.22-0.53,0.22s-0.389-0.078-0.53-0.22
		C4.691,4.889,4.613,4.7,4.613,4.5s0.078-0.389,0.22-0.53L7.832,0.97c0.07-0.07,0.152-0.125,0.245-0.163
		C8.085,0.803,8.094,0.8,8.103,0.797C8.188,0.766,8.275,0.75,8.363,0.75c0.089,0,0.177,0.016,0.261,0.048
		C8.631,0.8,8.638,0.803,8.645,0.805C8.741,0.845,8.824,0.9,8.894,0.971l2.999,2.999c0.142,0.141,0.22,0.33,0.22,0.53
		s-0.078,0.389-0.22,0.53c-0.141,0.142-0.33,0.22-0.53,0.22s-0.389-0.078-0.53-0.22l-1.72-1.72v7.939
		C9.113,11.664,8.777,12,8.363,12z"/>
	<path d="M15.863,12c-0.089,0-0.176-0.016-0.261-0.048c-0.011-0.004-0.022-0.008-0.032-0.012c-0.085-0.035-0.167-0.09-0.238-0.16
		l-3-3c-0.142-0.141-0.22-0.33-0.22-0.53s0.078-0.389,0.22-0.53c0.141-0.142,0.33-0.22,0.53-0.22s0.389,0.078,0.53,0.22l1.72,1.72
		V1.5c0-0.414,0.336-0.75,0.75-0.75s0.75,0.336,0.75,0.75v7.939l1.72-1.72c0.142-0.142,0.33-0.22,0.53-0.22s0.389,0.078,0.53,0.22
		c0.142,0.141,0.22,0.33,0.22,0.53s-0.078,0.389-0.22,0.53l-3,3c-0.07,0.07-0.153,0.125-0.245,0.163
		c-0.007,0.003-0.016,0.006-0.024,0.009C16.044,11.983,15.954,12,15.863,12z"/>
	<path d="M11.363,23.25c-0.414,0-0.75-0.336-0.75-0.75v-6.75h-0.75c-0.414,0-0.75-0.336-0.75-0.75s0.336-0.75,0.75-0.75h3
		c0.414,0,0.75,0.336,0.75,0.75s-0.336,0.75-0.75,0.75h-0.75v6.75C12.113,22.914,11.777,23.25,11.363,23.25z"/>
	<path d="M6.863,23.25c-1.241,0-2.25-1.009-2.25-2.25v-6c0-0.414,0.336-0.75,0.75-0.75s0.75,0.336,0.75,0.75v6
		c0,0.414,0.336,0.75,0.75,0.75h1.5c0.414,0,0.75,0.336,0.75,0.75s-0.336,0.75-0.75,0.75H6.863z"/>
	<path d="M17.363,23.25c-1.241,0-2.25-1.009-2.25-2.25v-4.5c0-1.241,1.009-2.25,2.25-2.25h1.5c0.414,0,0.75,0.336,0.75,0.75
		s-0.336,0.75-0.75,0.75h-1.5c-0.414,0-0.75,0.336-0.75,0.75v2.25h2.25c0.414,0,0.75,0.336,0.75,0.75s-0.336,0.75-0.75,0.75h-2.25
		V21c0,0.414,0.336,0.75,0.75,0.75h1.5c0.414,0,0.75,0.336,0.75,0.75s-0.336,0.75-0.75,0.75H17.363z"/>
</g>
</svg>
