<?xml version="1.0" encoding="utf-8"?>
<!-- Generator: Adobe Illustrator 22.1.0, SVG Export Plug-In . SVG Version: 6.00 Build 0)  -->
<svg version="1.1" id="Layer_1" xmlns="http://www.w3.org/2000/svg" xmlns:xlink="http://www.w3.org/1999/xlink" x="0px" y="0px"
	 viewBox="0 0 24 24" style="enable-background:new 0 0 24 24;" xml:space="preserve">
<g>
	<title>connector-1</title>
	<path d="M13,23.5c-0.276,0-0.5-0.224-0.5-0.5v-3.5h-1V23c0,0.276-0.224,0.5-0.5,0.5s-0.5-0.224-0.5-0.5v-3.5H10
		c-0.827,0-1.5-0.673-1.5-1.5v-2c0-0.276-0.224-0.5-0.5-0.5H6c-0.827,0-1.5-0.673-1.5-1.5v-0.5H1c-0.276,0-0.5-0.224-0.5-0.5
		s0.224-0.5,0.5-0.5h3.5v-1H1c-0.276,0-0.5-0.224-0.5-0.5s0.224-0.5,0.5-0.5h3.5V10c0-0.827,0.673-1.5,1.5-1.5h2
		c0.276,0,0.5-0.224,0.5-0.5V6c0-0.827,0.673-1.5,1.5-1.5h0.5V1c0-0.276,0.224-0.5,0.5-0.5s0.5,0.224,0.5,0.5v3.5h1V1
		c0-0.276,0.224-0.5,0.5-0.5s0.5,0.224,0.5,0.5v3.5H14c0.827,0,1.5,0.673,1.5,1.5v2c0,0.276,0.224,0.5,0.5,0.5h2
		c0.827,0,1.5,0.673,1.5,1.5v0.5H23c0.276,0,0.5,0.224,0.5,0.5s-0.224,0.5-0.5,0.5h-3.5v1H23c0.276,0,0.5,0.224,0.5,0.5
		s-0.224,0.5-0.5,0.5h-3.5V14c0,0.827-0.673,1.5-1.5,1.5h-2c-0.276,0-0.5,0.224-0.5,0.5v2c0,0.827-0.673,1.5-1.5,1.5h-0.5V23
		C13.5,23.276,13.276,23.5,13,23.5z M6,9.5c-0.276,0-0.5,0.224-0.5,0.5v4c0,0.276,0.224,0.5,0.5,0.5h2c0.827,0,1.5,0.673,1.5,1.5v2
		c0,0.276,0.224,0.5,0.5,0.5h4c0.276,0,0.5-0.224,0.5-0.5v-2c0-0.827,0.673-1.5,1.5-1.5h2c0.276,0,0.5-0.224,0.5-0.5v-4
		c0-0.276-0.224-0.5-0.5-0.5h-2c-0.827,0-1.5-0.673-1.5-1.5V6c0-0.276-0.224-0.5-0.5-0.5h-4C9.724,5.5,9.5,5.724,9.5,6v2
		c0,0.827-0.673,1.5-1.5,1.5H6z"/>
</g>
</svg>
