<?xml version="1.0" encoding="utf-8"?>
<!-- Generator: Adobe Illustrator 22.1.0, SVG Export Plug-In . SVG Version: 6.00 Build 0)  -->
<svg version="1.1" id="Layer_1" xmlns="http://www.w3.org/2000/svg" xmlns:xlink="http://www.w3.org/1999/xlink" x="0px" y="0px"
	 viewBox="0 0 24 24" style="enable-background:new 0 0 24 24;" xml:space="preserve">
<g>
	<title>laptop</title>
	<path d="M0.5,24C0.224,24,0,23.776,0,23.5S0.224,23,0.5,23H11v-4H1.981c-0.828-0.002-1.5-0.676-1.498-1.503
		c0.001-0.262,0.07-0.52,0.201-0.747l2.334-4.002c0.075-0.131,0.172-0.25,0.285-0.352C3.108,12.137,3,11.823,3,11.5v-10
		C3,0.673,3.673,0,4.5,0h14C19.327,0,20,0.673,20,1.5v10c0,0.233-0.054,0.458-0.159,0.664c0.258,0.131,0.476,0.334,0.621,0.586
		l2.332,3.998c0.414,0.718,0.168,1.637-0.548,2.051c-0.226,0.13-0.483,0.2-0.744,0.201H12v4h11.5c0.276,0,0.5,0.224,0.5,0.5
		S23.776,24,23.5,24H0.5z M4.314,13c-0.177,0-0.343,0.096-0.431,0.25l-2.334,4.002c-0.043,0.074-0.066,0.16-0.066,0.247
		c-0.001,0.276,0.223,0.5,0.499,0.501H21.5c0.085,0,0.171-0.024,0.246-0.067c0.239-0.138,0.321-0.444,0.183-0.683l-2.332-3.998
		C19.507,13.096,19.342,13,19.164,13H4.314z M4.5,1C4.224,1,4,1.224,4,1.5v10C4,11.776,4.224,12,4.5,12h14
		c0.276,0,0.5-0.224,0.5-0.5v-10C19,1.224,18.776,1,18.5,1H4.5z"/>
	<path d="M10,17c-0.276,0-0.5-0.224-0.5-0.5S9.724,16,10,16h3c0.276,0,0.5,0.224,0.5,0.5S13.276,17,13,17H10z"/>
</g>
</svg>
