<?xml version="1.0" encoding="utf-8"?>
<!-- Generator: Adobe Illustrator 22.1.0, SVG Export Plug-In . SVG Version: 6.00 Build 0)  -->
<svg version="1.1" id="Layer_1" xmlns="http://www.w3.org/2000/svg" xmlns:xlink="http://www.w3.org/1999/xlink" x="0px" y="0px"
	 viewBox="0 0 24 24" style="enable-background:new 0 0 24 24;" xml:space="preserve">
<g>
	<title>monitor-network</title>
	<path d="M3,24c-0.276,0-0.5-0.224-0.5-0.5S2.724,23,3,23h2.5v-2H2c-0.827,0-1.5-0.673-1.5-1.5v-5C0.5,13.673,1.173,13,2,13h8
		c0.827,0,1.5,0.673,1.5,1.5v5c0,0.827-0.673,1.5-1.5,1.5H6.5v2H9c0.276,0,0.5,0.224,0.5,0.5S9.276,24,9,24H3z M2,14
		c-0.276,0-0.5,0.224-0.5,0.5v5C1.5,19.776,1.724,20,2,20h8c0.276,0,0.5-0.224,0.5-0.5v-5c0-0.276-0.224-0.5-0.5-0.5H2z"/>
	<path d="M15,24c-0.276,0-0.5-0.224-0.5-0.5S14.724,23,15,23h2.5v-2H14c-0.827,0-1.5-0.673-1.5-1.5v-5c0-0.827,0.673-1.5,1.5-1.5h8
		c0.827,0,1.5,0.673,1.5,1.5v5c0,0.827-0.673,1.5-1.5,1.5h-3.5v2H21c0.276,0,0.5,0.224,0.5,0.5S21.276,24,21,24H15z M14,14
		c-0.276,0-0.5,0.224-0.5,0.5v5c0,0.276,0.224,0.5,0.5,0.5h8c0.276,0,0.5-0.224,0.5-0.5v-5c0-0.276-0.224-0.5-0.5-0.5H14z"/>
	<path d="M9,12c-0.276,0-0.5-0.224-0.5-0.5S8.724,11,9,11h2.5V9H7C6.173,9,5.5,8.327,5.5,7.5v-6C5.5,0.673,6.173,0,7,0h10
		c0.827,0,1.5,0.673,1.5,1.5v6C18.5,8.327,17.827,9,17,9h-4.5v2H15c0.276,0,0.5,0.224,0.5,0.5S15.276,12,15,12H9z M7,1
		C6.724,1,6.5,1.224,6.5,1.5v6C6.5,7.776,6.724,8,7,8h10c0.276,0,0.5-0.224,0.5-0.5v-6C17.5,1.224,17.276,1,17,1H7z"/>
</g>
</svg>
