<?xml version="1.0" encoding="utf-8"?>
<!-- Generator: Adobe Illustrator 22.1.0, SVG Export Plug-In . SVG Version: 6.00 Build 0)  -->
<svg version="1.1" id="Layer_1" xmlns="http://www.w3.org/2000/svg" xmlns:xlink="http://www.w3.org/1999/xlink" x="0px" y="0px"
	 viewBox="0 0 24 24" style="enable-background:new 0 0 24 24;" xml:space="preserve">
<g>
	<title>monitor-transfer-file</title>
	<path d="M17,10c-0.552,0-1-0.449-1-1V1c0-0.551,0.448-1,1-1h3c0.451,0.024,0.868,0.195,1.188,0.482L23.5,2.792
		c0.07,0.078,0.13,0.157,0.188,0.248C23.873,3.115,24,3.294,24,3.5c0,0.066-0.014,0.131-0.041,0.192
		c0.022,0.1,0.035,0.193,0.04,0.281L24,9c0,0.551-0.448,1-1,1H17z M17,1v8h6V4h-3c-0.276,0-0.5-0.224-0.5-0.5V1L17,1z M22.293,3
		c0,0-1.793-1.793-1.793-1.793V3H22.293z"/>
	<path d="M8.5,11c-0.066,0-0.13-0.013-0.191-0.038c-0.062-0.026-0.116-0.062-0.162-0.108l-2-2C6.052,8.759,6,8.634,6,8.5
		s0.052-0.259,0.146-0.354S6.366,8,6.5,8s0.259,0.052,0.354,0.146L8,9.293V9c0-3.033,2.467-5.5,5.5-5.5C13.776,3.5,14,3.724,14,4
		s-0.224,0.5-0.5,0.5C11.019,4.5,9,6.519,9,9v0.293l1.146-1.146C10.241,8.052,10.366,8,10.5,8s0.259,0.052,0.354,0.146
		S11,8.366,11,8.5s-0.052,0.259-0.146,0.354l-2,2c-0.046,0.046-0.101,0.083-0.162,0.108C8.63,10.987,8.566,11,8.5,11z"/>
	<path d="M5,24c-0.276,0-0.5-0.224-0.5-0.5S4.724,23,5,23h2.5v-1H2c-1.103,0-2-0.897-2-2v-7c0-1.103,0.897-2,2-2h2
		c0.276,0,0.5,0.224,0.5,0.5S4.276,12,4,12H2c-0.551,0-1,0.448-1,1v6h14v-6c0-0.552-0.448-1-1-1h-1.5c-0.276,0-0.5-0.224-0.5-0.5
		s0.224-0.5,0.5-0.5H14c1.103,0,2,0.897,2,2v7c0,1.103-0.897,2-2,2H8.5v1H11c0.276,0,0.5,0.224,0.5,0.5S11.276,24,11,24H5z M1,20
		c0,0.552,0.449,1,1,1h12c0.552,0,1-0.448,1-1H1z"/>
</g>
</svg>
