<?xml version="1.0" encoding="utf-8"?>
<!-- Generator: Adobe Illustrator 22.1.0, SVG Export Plug-In . SVG Version: 6.00 Build 0)  -->
<svg version="1.1" id="Layer_1" xmlns="http://www.w3.org/2000/svg" xmlns:xlink="http://www.w3.org/1999/xlink" x="0px" y="0px"
	 viewBox="0 0 24 24" style="enable-background:new 0 0 24 24;" xml:space="preserve">
<g>
	<title>monitor-lock</title>
	<path d="M7.5,19C7.224,19,7,18.776,7,18.5S7.224,18,7.5,18h1.36l0.093-0.15c0.566-0.856,0.93-1.835,1.064-2.85H3
		c-0.827,0-1.5-0.673-1.5-1.5v-12C1.5,0.673,2.173,0,3,0h18c0.827,0,1.5,0.673,1.5,1.5v12c0,0.827-0.673,1.5-1.5,1.5h-7.018
		c0.133,1.015,0.496,1.991,1.057,2.838L15.14,18h1.36c0.276,0,0.5,0.224,0.5,0.5S16.776,19,16.5,19H7.5z M13.963,18
		c-0.529-0.914-0.867-1.939-0.988-3h-1.951c-0.121,1.059-0.459,2.084-0.989,3H13.963z M3,1C2.724,1,2.5,1.224,2.5,1.5v12
		C2.5,13.776,2.724,14,3,14h18c0.276,0,0.5-0.224,0.5-0.5v-12C21.5,1.224,21.276,1,21,1H3z"/>
	<path d="M4,24c-0.276,0-0.5-0.224-0.5-0.5S3.724,23,4,23h7.5v-2.5c0-0.276,0.224-0.5,0.5-0.5c0.276,0,0.5,0.224,0.5,0.5V23H20
		c0.276,0,0.5,0.224,0.5,0.5S20.276,24,20,24H4z"/>
	<path d="M10,12c-0.827,0-1.5-0.673-1.5-1.5v-3c0-0.64,0.41-1.205,1-1.414V5.5C9.5,4.121,10.621,3,12,3c1.378,0,2.5,1.121,2.5,2.5
		v0.586c0.59,0.209,1,0.774,1,1.414v3c0,0.827-0.673,1.5-1.5,1.5H10z M10,7C9.724,7,9.5,7.224,9.5,7.5v3c0,0.276,0.224,0.5,0.5,0.5
		h4c0.276,0,0.5-0.224,0.5-0.5v-3C14.5,7.224,14.276,7,14,7H10z M13.5,6V5.5C13.5,4.673,12.827,4,12,4s-1.5,0.673-1.5,1.5V6H13.5z"
		/>
	<circle cx="12" cy="9.02" r="0.75"/>
</g>
</svg>
