<?xml version="1.0" encoding="utf-8"?>
<!-- Generator: Adobe Illustrator 22.1.0, SVG Export Plug-In . SVG Version: 6.00 Build 0)  -->
<svg version="1.1" id="Layer_1" xmlns="http://www.w3.org/2000/svg" xmlns:xlink="http://www.w3.org/1999/xlink" x="0px" y="0px"
	 viewBox="0 0 24 24" style="enable-background:new 0 0 24 24;" xml:space="preserve">
<g>
	<title>monitor-users</title>
	<path d="M8.5,24C8.224,24,8,23.776,8,23.5S8.224,23,8.5,23h3v-1h-6c-1.137-0.033-2.031-0.976-2-2.102L3.5,13
		c0-0.276,0.224-0.5,0.5-0.5s0.5,0.224,0.5,0.5v5h15v-5c0-0.276,0.224-0.5,0.5-0.5s0.5,0.224,0.5,0.5v6.912
		c0.031,1.115-0.86,2.054-1.985,2.088H12.5v1h3c0.276,0,0.5,0.224,0.5,0.5S15.776,24,15.5,24H8.5z M4.5,19.912
		C4.484,20.498,4.939,20.983,5.515,21H18.5c0.564-0.017,1.016-0.499,1-1.074V19h-15V19.912z"/>
	<path d="M14,14c-0.134,0-0.259-0.052-0.354-0.146S13.5,13.634,13.5,13.5s0.052-0.259,0.146-0.354L16.793,10H15
		c-0.276,0-0.5-0.224-0.5-0.5S14.724,9,15,9h3c0.066,0,0.13,0.013,0.191,0.038c0.123,0.051,0.219,0.147,0.27,0.27
		C18.487,9.37,18.5,9.434,18.5,9.5v3c0,0.276-0.224,0.5-0.5,0.5s-0.5-0.224-0.5-0.5v-1.793l-3.146,3.146
		C14.259,13.948,14.134,14,14,14z"/>
	<path d="M10,14c-0.134,0-0.259-0.052-0.354-0.146L6.5,10.707V12.5C6.5,12.776,6.276,13,6,13s-0.5-0.224-0.5-0.5v-3
		c0-0.065,0.013-0.129,0.038-0.19c0.051-0.122,0.149-0.221,0.27-0.271C5.87,9.013,5.934,9,6,9h3c0.276,0,0.5,0.224,0.5,0.5
		S9.276,10,9,10H7.207l3.146,3.146c0.094,0.094,0.146,0.22,0.146,0.354s-0.052,0.259-0.146,0.354S10.134,14,10,14z"/>
	<path d="M16,8c-0.276,0-0.5-0.224-0.5-0.5c0-1.202,0.602-2.623,2.251-3.217C17.274,3.818,17,3.179,17,2.5C17,1.121,18.122,0,19.5,0
		S22,1.121,22,2.5c0,0.679-0.274,1.318-0.751,1.783C22.898,4.877,23.5,6.298,23.5,7.5C23.5,7.776,23.276,8,23,8H16z M22.454,7
		c-0.142-0.759-0.717-2-2.954-2s-2.812,1.241-2.954,2H22.454z M19.5,1C18.673,1,18,1.673,18,2.5S18.673,4,19.5,4S21,3.327,21,2.5
		S20.327,1,19.5,1z"/>
	<path d="M1,8C0.724,8,0.5,7.776,0.5,7.5c0-1.202,0.602-2.623,2.251-3.217C2.274,3.818,2,3.179,2,2.5C2,1.121,3.121,0,4.5,0
		S7,1.121,7,2.5c0,0.679-0.274,1.318-0.751,1.783C7.898,4.877,8.5,6.298,8.5,7.5C8.5,7.776,8.276,8,8,8H1z M7.454,7
		C7.312,6.24,6.737,5,4.5,5S1.688,6.24,1.546,7H7.454z M4.5,1C3.673,1,3,1.673,3,2.5S3.673,4,4.5,4S6,3.327,6,2.5S5.327,1,4.5,1z"/>
</g>
</svg>
