<?xml version="1.0" encoding="utf-8"?>
<!-- Generator: Adobe Illustrator 22.1.0, SVG Export Plug-In . SVG Version: 6.00 Build 0)  -->
<svg version="1.1" id="Layer_1" xmlns="http://www.w3.org/2000/svg" xmlns:xlink="http://www.w3.org/1999/xlink" x="0px" y="0px"
	 viewBox="0 0 24 24" style="enable-background:new 0 0 24 24;" xml:space="preserve">
<g>
	<title>monitor-exchange-arrow-1</title>
	<path d="M8.5,11c-0.066,0-0.13-0.013-0.191-0.038c-0.062-0.026-0.116-0.062-0.162-0.108l-2-2C6.052,8.759,6,8.634,6,8.5
		s0.052-0.259,0.146-0.354S6.366,8,6.5,8s0.259,0.052,0.354,0.146L8,9.293V7.75c0-1.135,0.441-2.202,1.244-3.005
		C10.046,3.943,11.113,3.5,12.248,3.5h0.545l-0.646-0.646C12.052,2.759,12,2.634,12,2.5s0.052-0.259,0.146-0.354S12.366,2,12.5,2
		s0.259,0.052,0.354,0.146l1.5,1.5c0.046,0.046,0.083,0.101,0.109,0.163c0.05,0.121,0.05,0.261,0,0.382
		c-0.025,0.061-0.062,0.116-0.109,0.163l-1.499,1.499C12.759,5.948,12.634,6,12.5,6s-0.259-0.052-0.354-0.146S12,5.634,12,5.5
		s0.052-0.259,0.146-0.354L12.793,4.5H12.25c-0.869,0-1.686,0.338-2.299,0.952C9.338,6.066,9,6.882,9,7.75v1.543l1.146-1.146
		C10.241,8.052,10.366,8,10.5,8s0.259,0.052,0.354,0.146S11,8.366,11,8.5s-0.052,0.259-0.146,0.354l-2,2
		c-0.046,0.046-0.101,0.083-0.162,0.108C8.63,10.987,8.566,11,8.5,11z"/>
	<path d="M5,24c-0.276,0-0.5-0.224-0.5-0.5S4.724,23,5,23h2.5v-1H2c-1.103,0-2-0.897-2-2v-7c0-1.103,0.897-2,2-2h1.5
		C3.776,11,4,11.224,4,11.5S3.776,12,3.5,12H2c-0.551,0-1,0.448-1,1v6h14v-6c0-0.552-0.448-1-1-1h-1.5c-0.276,0-0.5-0.224-0.5-0.5
		s0.224-0.5,0.5-0.5H14c1.103,0,2,0.897,2,2v7c0,1.103-0.897,2-2,2H8.5v1H11c0.276,0,0.5,0.224,0.5,0.5S11.276,24,11,24H5z M1,20
		c0,0.552,0.449,1,1,1h12c0.552,0,1-0.448,1-1H1z"/>
	<path d="M16.5,11c-0.276,0-0.5-0.224-0.5-0.5s0.224-0.5,0.5-0.5h1V9H14c-0.495,0-0.968-0.181-1.333-0.508
		c-0.205-0.184-0.223-0.501-0.039-0.706C12.722,7.68,12.858,7.619,13,7.619c0.123,0,0.242,0.045,0.333,0.127
		C13.511,7.906,13.754,7.998,14.001,8H22c0.552,0,1-0.449,1-1h-8.5C14.224,7,14,6.776,14,6.5S14.224,6,14.5,6H23V2
		c0-0.551-0.448-1-1-1h-8c-0.276,0-0.5-0.224-0.5-0.5S13.724,0,14,0h8c1.103,0,2,0.897,2,2v5c0,1.103-0.897,2-2,2h-3.5v1h1
		c0.276,0,0.5,0.224,0.5,0.5S19.776,11,19.5,11H16.5z"/>
</g>
</svg>
