<?xml version="1.0" encoding="utf-8"?>
<!-- Generator: Adobe Illustrator 22.1.0, SVG Export Plug-In . SVG Version: 6.00 Build 0)  -->
<svg version="1.1" id="Layer_1" xmlns="http://www.w3.org/2000/svg" xmlns:xlink="http://www.w3.org/1999/xlink" x="0px" y="0px"
	 viewBox="0 0 24 24" style="enable-background:new 0 0 24 24;" xml:space="preserve">
<g>
	<title>monitor-transfer-folder</title>
	<path d="M8,11c-0.066,0-0.13-0.013-0.191-0.038c-0.062-0.026-0.116-0.062-0.162-0.108l-2-2C5.552,8.759,5.5,8.634,5.5,8.5
		s0.052-0.259,0.146-0.354S5.866,8,6,8s0.259,0.052,0.354,0.146L7.5,9.293V9c0-3.65,1.346-5.5,4-5.5C11.776,3.5,12,3.724,12,4
		s-0.224,0.5-0.5,0.5c-2.075,0-3,1.388-3,4.5v0.293l1.146-1.146C9.741,8.052,9.866,8,10,8s0.259,0.052,0.354,0.146
		S10.5,8.366,10.5,8.5s-0.052,0.259-0.146,0.354l-2,2c-0.046,0.046-0.101,0.083-0.162,0.108C8.13,10.987,8.066,11,8,11z"/>
	<path d="M5,24c-0.276,0-0.5-0.224-0.5-0.5S4.724,23,5,23h2.5v-1H2c-1.103,0-2-0.897-2-2v-7c0-1.103,0.897-2,2-2h2
		c0.276,0,0.5,0.224,0.5,0.5S4.276,12,4,12H2c-0.551,0-1,0.448-1,1v6h14v-6c0-0.552-0.448-1-1-1h-1.5c-0.276,0-0.5-0.224-0.5-0.5
		s0.224-0.5,0.5-0.5H14c1.103,0,2,0.897,2,2v7c0,1.103-0.897,2-2,2H8.5v1H11c0.276,0,0.5,0.224,0.5,0.5S11.276,24,11,24H5z M1,20
		c0,0.552,0.449,1,1,1h12c0.552,0,1-0.448,1-1H1z"/>
	<path d="M14.5,9C13.673,9,13,8.327,13,7.5v-7C13,0.224,13.224,0,13.5,0h2C15.776,0,16,0.224,16,0.5V1h6.5C22.776,1,23,1.224,23,1.5
		V3h0.5C23.776,3,24,3.224,24,3.5V7c0,1.103-0.897,2-2,2H14.5z M22,8c0.552,0,1-0.449,1-1V4h-7v3.5c0,0.173-0.029,0.341-0.085,0.5
		H22z M14,7.5C14,7.776,14.224,8,14.5,8S15,7.776,15,7.5v-4C15,3.224,15.224,3,15.5,3H22V2h-6.5C15.224,2,15,1.776,15,1.5V1h-1V7.5z
		"/>
</g>
</svg>
