<?xml version="1.0" encoding="utf-8"?>
<!-- Generator: Adobe Illustrator 22.1.0, SVG Export Plug-In . SVG Version: 6.00 Build 0)  -->
<svg version="1.1" id="Layer_1" xmlns="http://www.w3.org/2000/svg" xmlns:xlink="http://www.w3.org/1999/xlink" x="0px" y="0px"
	 viewBox="0 0 24 24" style="enable-background:new 0 0 24 24;" xml:space="preserve">
<g>
	<title>network-arrow-sync</title>
	<path d="M11.999,19.001c-3.86,0-7-3.14-7-7s3.14-7,7-7c1.969,0,3.859,0.84,5.187,2.304c0.002,0.003,0.01,0.012,0.01,0.012
		c1.163,1.289,1.803,2.952,1.803,4.684C18.999,15.861,15.859,19.001,11.999,19.001z M11.999,6.001c-3.308,0-6,2.692-6,6s2.692,6,6,6
		s6-2.692,6-6c0-1.205-0.351-2.351-1.02-3.341c-0.295,0.61-0.751,1.132-1.315,1.499c-0.082,0.053-0.176,0.081-0.273,0.081
		c-0.041,0-0.082-0.005-0.122-0.015c-0.393-0.098-0.708-0.148-0.937-0.148c-0.123,0-0.189,0.015-0.22,0.025
		c-0.011,0.145,0.126,0.534,0.188,0.706c0.03,0.086,0.06,0.17,0.087,0.251c0.08-0.013,0.164-0.041,0.218-0.068
		c0.069-0.034,0.145-0.051,0.221-0.051c0.189,0,0.361,0.105,0.446,0.273c0.495,0.975,0.59,1.833,0.281,2.55
		c-0.33,0.763-1.021,1.107-1.298,1.218c-0.461,0.472-0.72,0.834-0.91,1.101c-0.49,0.686-0.781,0.945-1.909,0.945
		c-0.743,0-1.349-1.538-1.349-1.913c0-1.811-0.79-2.043-1.478-2.043c-1.066,0-1.348-1.067-1.348-1.631
		c0-0.098,0.021-2.393,1.814-2.751c0.291-0.058,0.555-0.088,0.784-0.088c0.397,0,0.708,0.09,0.924,0.266
		c0.086,0.071,0.157,0.155,0.208,0.248c0.009,0.001,0.019,0.001,0.031,0.001c0.053,0,0.114-0.01,0.174-0.029
		c0.14-0.044,0.388-0.177,0.428-0.398c0.041-0.227-0.176-0.551-0.582-0.867c-0.223-0.174-0.326-0.423-0.282-0.685
		c0.025-0.148,0.093-0.547,1.277-1.137C12.024,6.001,12.012,6.001,11.999,6.001z M9.87,9.6c-0.166,0-0.368,0.023-0.6,0.07
		c-0.989,0.198-1.01,1.756-1.01,1.772c0,0.004,0.008,0.63,0.348,0.63c0.925,0,2.478,0.395,2.478,3.043
		c0.016,0.147,0.322,0.731,0.475,0.912c0.599-0.007,0.641-0.065,0.969-0.525c0.221-0.31,0.524-0.735,1.094-1.305
		c0.059-0.059,0.133-0.103,0.213-0.126c0.018-0.006,0.579-0.191,0.799-0.706c0.149-0.348,0.121-0.791-0.084-1.316
		c-0.079,0.013-0.155,0.02-0.229,0.02c-0.278,0-0.519-0.095-0.698-0.273c-0.064-0.064-0.11-0.144-0.132-0.232
		c-0.029-0.118-0.08-0.26-0.133-0.412c-0.197-0.556-0.438-1.239,0-1.721c0.216-0.237,0.534-0.352,0.974-0.352
		c0.263,0,0.576,0.041,0.953,0.125c0.466-0.357,0.804-0.857,0.964-1.427c-0.659-0.663-1.465-1.165-2.343-1.461
		c-0.999,0.349-1.711,0.709-2.02,0.916c0.713,0.652,0.79,1.243,0.719,1.638c-0.096,0.532-0.533,0.993-1.113,1.174
		c-0.161,0.05-0.32,0.076-0.475,0.076c-0.313,0-0.593-0.108-0.788-0.303c-0.054-0.054-0.094-0.12-0.119-0.191
		C10.067,9.612,9.99,9.6,9.87,9.6z"/>
	<path d="M6.476,21.429c-0.04,0-0.073-0.004-0.105-0.011l-4.462-0.932c-0.13-0.027-0.243-0.104-0.316-0.215
		c-0.073-0.112-0.099-0.245-0.071-0.376c0.048-0.231,0.254-0.398,0.489-0.398c0.035,0,0.07,0.004,0.105,0.011l2.329,0.487
		c-3.766-3.547-4.572-9.301-1.804-13.78c1.989-3.217,5.577-5.216,9.365-5.216c0.779,0,1.561,0.084,2.323,0.249
		c0.13,0.028,0.242,0.106,0.314,0.218c0.073,0.112,0.097,0.246,0.068,0.377c-0.05,0.228-0.255,0.394-0.489,0.394
		c-0.036,0-0.072-0.004-0.106-0.011c-0.693-0.15-1.403-0.226-2.111-0.226c-3.444,0-6.707,1.817-8.515,4.742
		c-2.705,4.377-1.646,10.045,2.373,13.156l-0.243-2.28c-0.029-0.274,0.17-0.521,0.444-0.55c0.018-0.002,0.036-0.003,0.053-0.003
		c0.256,0,0.47,0.192,0.497,0.447l0.359,3.366C6.978,20.917,6.977,20.959,6.971,21C6.97,21.009,6.967,21.02,6.965,21.03
		c-0.01,0.046-0.025,0.089-0.047,0.13c-0.006,0.014-0.014,0.028-0.022,0.04c-0.004,0.006-0.01,0.013-0.015,0.02
		c-0.014,0.019-0.027,0.034-0.04,0.048c0,0.001-0.027,0.029-0.027,0.029c-0.006,0.005-0.011,0.009-0.016,0.013
		c-0.033,0.029-0.076,0.056-0.124,0.077c-0.004,0.002-0.028,0.011-0.032,0.013c-0.062,0.021-0.113,0.03-0.164,0.03
		C6.478,21.429,6.476,21.429,6.476,21.429z"/>
	<path d="M12.004,23.004c-0.787,0-1.576-0.085-2.346-0.254c-0.13-0.029-0.242-0.106-0.314-0.219
		c-0.072-0.113-0.096-0.246-0.068-0.377c0.05-0.228,0.255-0.393,0.488-0.393c0.036,0,0.072,0.004,0.107,0.012
		c0.699,0.153,1.416,0.23,2.13,0.23c0,0,0,0,0.001,0c3.443,0,6.705-1.817,8.513-4.741c2.707-4.378,1.646-10.052-2.378-13.162
		l0.208,2.304c0.025,0.274-0.178,0.518-0.453,0.543c-0.007,0.001-0.038,0.002-0.045,0.002c-0.26,0-0.474-0.196-0.498-0.455
		l-0.296-3.292c-0.037-0.134-0.018-0.275,0.054-0.392c0.092-0.148,0.25-0.236,0.425-0.236c0.02,0,0.039,0.001,0.058,0.003
		c0.016,0,0.035,0.002,0.051,0.005l3.918,0.771c0.131,0.026,0.244,0.101,0.319,0.212c0.074,0.111,0.101,0.244,0.075,0.375
		c-0.046,0.234-0.252,0.404-0.49,0.404c-0.033,0-0.066-0.003-0.099-0.01l-1.837-0.361c3.8,3.544,4.621,9.316,1.839,13.816
		C19.378,21.006,15.79,23.004,12.004,23.004z"/>
</g>
</svg>
