<?xml version="1.0" encoding="utf-8"?>
<!-- Generator: Adobe Illustrator 22.1.0, SVG Export Plug-In . SVG Version: 6.00 Build 0)  -->
<svg version="1.1" id="Layer_1" xmlns="http://www.w3.org/2000/svg" xmlns:xlink="http://www.w3.org/1999/xlink" x="0px" y="0px"
	 viewBox="0 0 24 24" style="enable-background:new 0 0 24 24;" xml:space="preserve">
<g>
	<title>phone-antenna</title>
	<path d="M15.003,24c-0.827,0-1.5-0.673-1.5-1.5v-11c0-0.827,0.673-1.5,1.5-1.5h6c0.827,0,1.5,0.673,1.5,1.5v11
		c0,0.827-0.673,1.5-1.5,1.5H15.003z M14.503,22.5c0,0.276,0.224,0.5,0.5,0.5h6c0.276,0,0.5-0.224,0.5-0.5V20h-7V22.5z M21.503,19
		v-7.5c0-0.276-0.224-0.5-0.5-0.5h-6c-0.276,0-0.5,0.224-0.5,0.5V19H21.503z"/>
	<circle cx="18.003" cy="21.5" r="0.75"/>
	<path d="M2.507,11.999c-0.485,0-0.667-0.306-0.712-0.399c-0.044-0.093-0.166-0.428,0.141-0.804L4.69,7.433
		C2.882,5.395,2.747,2.388,4.394,0.2C4.488,0.075,4.637,0,4.794,0C4.902,0,5.006,0.035,5.093,0.1l3.794,2.839l1.14-1.523
		c0.094-0.125,0.244-0.2,0.4-0.2c0.109,0,0.212,0.034,0.299,0.099c0.221,0.165,0.266,0.479,0.101,0.7l-1.14,1.523l3.794,2.839
		c0.107,0.08,0.176,0.197,0.195,0.329c0.019,0.133-0.015,0.265-0.095,0.371l-0.018,0.024c-1.091,1.449-2.76,2.28-4.58,2.28
		c-0.527,0-1.045-0.072-1.547-0.215l1.335,1.63c0.308,0.374,0.187,0.71,0.143,0.804c-0.044,0.094-0.227,0.4-0.713,0.4H2.507z
		 M7.647,10.999L5.354,8.201l-2.291,2.798H7.647z M4.914,1.215c-1.237,2.06-0.731,4.738,1.213,6.201l0.022,0.016
		c0.824,0.621,1.805,0.948,2.836,0.948c1.333,0,2.585-0.55,3.477-1.518L8.705,4.052c-0.008-0.005-0.016-0.01-0.023-0.016
		c-0.005-0.004-0.01-0.008-0.015-0.013L4.914,1.215z"/>
	<path d="M20.003,9c-0.276,0-0.5-0.224-0.5-0.5V4h-6c-0.276,0-0.5-0.224-0.5-0.5s0.224-0.5,0.5-0.5h6.5c0.276,0,0.5,0.224,0.5,0.5v5
		C20.503,8.776,20.278,9,20.003,9z"/>
	<path d="M5.002,21c-0.276,0-0.5-0.224-0.5-0.5v-6.544c0-0.276,0.224-0.5,0.5-0.5s0.5,0.224,0.5,0.5V20h6c0.276,0,0.5,0.224,0.5,0.5
		s-0.224,0.5-0.5,0.5H5.002z"/>
</g>
</svg>
