<?xml version="1.0" encoding="utf-8"?>
<!-- Generator: Adobe Illustrator 22.1.0, SVG Export Plug-In . SVG Version: 6.00 Build 0)  -->
<svg version="1.1" id="Layer_1" xmlns="http://www.w3.org/2000/svg" xmlns:xlink="http://www.w3.org/1999/xlink" x="0px" y="0px"
	 viewBox="0 0 24 24" style="enable-background:new 0 0 24 24;" xml:space="preserve">
<g>
	<title>router-signal-double</title>
	<path d="M20.5,22.493c-0.276,0-0.5-0.224-0.5-0.5v-1H4v1c0,0.276-0.224,0.5-0.5,0.5S3,22.268,3,21.993v-1H2.5
		c-1.379,0-2.5-1.122-2.5-2.5v-2c0-1.378,1.121-2.5,2.5-2.5H5v-5c0-0.276,0.224-0.5,0.5-0.5S6,8.717,6,8.993v5h12v-5
		c0-0.276,0.224-0.5,0.5-0.5s0.5,0.224,0.5,0.5v5h2.5c1.378,0,2.5,1.122,2.5,2.5v2c0,1.378-1.122,2.5-2.5,2.5H21v1
		C21,22.268,20.776,22.493,20.5,22.493z M2.5,14.993c-0.827,0-1.5,0.673-1.5,1.5v2c0,0.827,0.673,1.5,1.5,1.5h19
		c0.827,0,1.5-0.673,1.5-1.5v-2c0-0.827-0.673-1.5-1.5-1.5H2.5z"/>
	<path d="M3.5,17.993c-0.276,0-0.5-0.224-0.5-0.5v-0.5c0-0.276,0.224-0.5,0.5-0.5s0.5,0.224,0.5,0.5v0.5
		C4,17.768,3.776,17.993,3.5,17.993z"/>
	<path d="M6.5,17.993c-0.276,0-0.5-0.224-0.5-0.5v-0.5c0-0.276,0.224-0.5,0.5-0.5s0.5,0.224,0.5,0.5v0.5
		C7,17.768,6.776,17.993,6.5,17.993z"/>
	<path d="M9.5,17.993c-0.276,0-0.5-0.224-0.5-0.5v-0.5c0-0.276,0.224-0.5,0.5-0.5s0.5,0.224,0.5,0.5v0.5
		C10,17.768,9.776,17.993,9.5,17.993z"/>
	<path d="M23.214,3.921c-0.099,0-0.195-0.029-0.278-0.084C21.614,2.955,20.08,2.488,18.5,2.488s-3.114,0.466-4.437,1.349
		c-0.082,0.055-0.178,0.084-0.277,0.084l0,0c-0.168,0-0.323-0.083-0.417-0.223c-0.074-0.111-0.101-0.244-0.074-0.375
		c0.026-0.131,0.102-0.244,0.213-0.318c1.488-0.992,3.214-1.517,4.991-1.517s3.504,0.525,4.991,1.517
		c0.111,0.074,0.187,0.187,0.213,0.318c0.026,0.131,0,0.264-0.074,0.375C23.537,3.838,23.382,3.921,23.214,3.921z"/>
	<path d="M22.105,5.585c-0.099,0-0.195-0.029-0.277-0.084C20.836,4.84,19.685,4.49,18.5,4.49s-2.336,0.349-3.328,1.011
		c-0.083,0.055-0.179,0.084-0.277,0.084c-0.168,0-0.324-0.083-0.416-0.223c-0.074-0.111-0.1-0.244-0.074-0.375
		c0.026-0.131,0.102-0.244,0.213-0.318c1.157-0.771,2.5-1.179,3.882-1.179s2.725,0.408,3.882,1.179
		c0.111,0.074,0.187,0.187,0.213,0.318c0.026,0.131,0,0.264-0.074,0.376C22.428,5.502,22.273,5.585,22.105,5.585z"/>
	<path d="M21,7.249c-0.099,0-0.195-0.029-0.278-0.084c-0.661-0.441-1.428-0.674-2.219-0.674s-1.558,0.233-2.219,0.674
		c-0.082,0.055-0.178,0.084-0.277,0.084c-0.168,0-0.323-0.083-0.417-0.223c-0.074-0.111-0.101-0.244-0.074-0.375
		c0.026-0.131,0.102-0.244,0.213-0.318c0.827-0.551,1.786-0.843,2.774-0.843c0.988,0,1.947,0.291,2.774,0.843
		c0.111,0.074,0.187,0.187,0.213,0.318c0.026,0.131,0,0.264-0.074,0.375C21.323,7.166,21.168,7.249,21,7.249z"/>
	<path d="M10.214,3.921c-0.099,0-0.195-0.029-0.277-0.084C8.614,2.955,7.08,2.488,5.5,2.488S2.386,2.955,1.063,3.837
		C0.981,3.892,0.885,3.921,0.786,3.921l0,0c-0.168,0-0.323-0.083-0.416-0.223c-0.153-0.229-0.091-0.54,0.138-0.693
		C1.996,2.013,3.722,1.488,5.5,1.488s3.504,0.525,4.991,1.517c0.229,0.153,0.292,0.464,0.139,0.693
		C10.537,3.838,10.381,3.921,10.214,3.921z"/>
	<path d="M9.105,5.585c-0.099,0-0.195-0.029-0.277-0.084C7.836,4.84,6.685,4.49,5.5,4.49S3.164,4.84,2.172,5.501
		C2.089,5.556,1.994,5.585,1.895,5.585c-0.168,0-0.323-0.083-0.416-0.223c-0.074-0.111-0.1-0.244-0.074-0.375
		c0.026-0.131,0.102-0.244,0.213-0.318C2.775,3.898,4.117,3.49,5.5,3.49s2.725,0.408,3.882,1.179
		c0.111,0.074,0.187,0.187,0.213,0.318c0.026,0.131,0,0.264-0.074,0.375C9.428,5.502,9.273,5.585,9.105,5.585z"/>
	<path d="M8,7.249c-0.099,0-0.195-0.029-0.277-0.084C7.06,6.722,6.291,6.488,5.5,6.488S3.94,6.722,3.278,7.165
		C3.195,7.22,3.099,7.249,3,7.249c-0.168,0-0.323-0.083-0.416-0.222c-0.153-0.229-0.091-0.54,0.138-0.693
		C3.55,5.78,4.51,5.488,5.5,5.488S7.45,5.78,8.278,6.333c0.229,0.153,0.291,0.464,0.138,0.693C8.323,7.166,8.167,7.249,8,7.249z"/>
	<path d="M13.5,18.993c-0.552,0-1-0.448-1-1v-1c0-0.552,0.448-1,1-1H20c0.552,0,1,0.448,1,1v1c0,0.552-0.448,1-1,1H13.5z
		 M13.5,17.993H20v-1h-6.5L13.5,17.993z"/>
</g>
</svg>
