<svg xmlns="http://www.w3.org/2000/svg" viewBox="0 0 24 24"><defs><style>.a{fill:none;stroke:currentColor;stroke-linecap:round;stroke-linejoin:round;}</style></defs><title>audio-file-share</title><path class="a" d="M9.5,23.5h-8a1,1,0,0,1-1-1V1.5a1,1,0,0,1,1-1H14.793A1,1,0,0,1,15.5.793L19.207,4.5a1,1,0,0,1,.293.707V8.5"/><path class="a" d="M9.5,14c0,.933-1.119,1.687-2.5,1.687S4.5,14.933,4.5,14,5.619,12.314,7,12.314,9.5,13.068,9.5,14Z"/><path class="a" d="M9.5,14V7.223A1,1,0,0,1,11,6.355L13,7.5"/><circle class="a" cx="13.75" cy="18.25" r="2.25"/><circle class="a" cx="21.25" cy="21.25" r="2.25"/><circle class="a" cx="21.25" cy="13.75" r="2.25"/><line class="a" x1="15.675" y1="17.095" x2="19.325" y2="14.905"/><line class="a" x1="15.838" y1="19.085" x2="19.162" y2="20.415"/></svg>