<?xml version="1.0" encoding="utf-8"?>
<!-- Generator: Adobe Illustrator 22.1.0, SVG Export Plug-In . SVG Version: 6.00 Build 0)  -->
<svg version="1.1" id="Layer_1" xmlns="http://www.w3.org/2000/svg" xmlns:xlink="http://www.w3.org/1999/xlink" x="0px" y="0px"
	 viewBox="0 0 24 24" style="enable-background:new 0 0 24 24;" xml:space="preserve">
<title>dial-pad</title>
<g>
	<path d="M3,6C1.346,6,0,4.654,0,3s1.346-3,3-3s3,1.346,3,3S4.654,6,3,6z M3,1.5C2.173,1.5,1.5,2.173,1.5,3S2.173,4.5,3,4.5
		S4.5,3.827,4.5,3S3.827,1.5,3,1.5z"/>
	<path d="M12,6c-1.654,0-3-1.346-3-3s1.346-3,3-3c1.654,0,3,1.346,3,3S13.654,6,12,6z M12,1.5c-0.827,0-1.5,0.673-1.5,1.5
		s0.673,1.5,1.5,1.5s1.5-0.673,1.5-1.5S12.827,1.5,12,1.5z"/>
	<path d="M21,6c-1.654,0-3-1.346-3-3s1.346-3,3-3s3,1.346,3,3S22.654,6,21,6z M21,1.5c-0.827,0-1.5,0.673-1.5,1.5s0.673,1.5,1.5,1.5
		s1.5-0.673,1.5-1.5S21.827,1.5,21,1.5z"/>
	<path d="M3,15c-1.654,0-3-1.346-3-3c0-1.654,1.346-3,3-3s3,1.346,3,3C6,13.654,4.654,15,3,15z M3,10.5c-0.827,0-1.5,0.673-1.5,1.5
		s0.673,1.5,1.5,1.5s1.5-0.673,1.5-1.5S3.827,10.5,3,10.5z"/>
	<path d="M12,15c-1.654,0-3-1.346-3-3c0-1.654,1.346-3,3-3c1.654,0,3,1.346,3,3C15,13.654,13.654,15,12,15z M12,10.5
		c-0.827,0-1.5,0.673-1.5,1.5s0.673,1.5,1.5,1.5s1.5-0.673,1.5-1.5S12.827,10.5,12,10.5z"/>
	<path d="M21,15c-1.654,0-3-1.346-3-3c0-1.654,1.346-3,3-3s3,1.346,3,3C24,13.654,22.654,15,21,15z M21,10.5
		c-0.827,0-1.5,0.673-1.5,1.5s0.673,1.5,1.5,1.5s1.5-0.673,1.5-1.5S21.827,10.5,21,10.5z"/>
	<path d="M12,24c-1.654,0-3-1.346-3-3s1.346-3,3-3c1.654,0,3,1.346,3,3S13.654,24,12,24z M12,19.5c-0.827,0-1.5,0.673-1.5,1.5
		s0.673,1.5,1.5,1.5s1.5-0.673,1.5-1.5S12.827,19.5,12,19.5z"/>
</g>
</svg>
