<?xml version="1.0" encoding="utf-8"?>
<!-- Generator: Adobe Illustrator 22.1.0, SVG Export Plug-In . SVG Version: 6.00 Build 0)  -->
<svg version="1.1" id="Layer_1" xmlns="http://www.w3.org/2000/svg" xmlns:xlink="http://www.w3.org/1999/xlink" x="0px" y="0px"
	 viewBox="0 0 24 24" style="enable-background:new 0 0 24 24;" xml:space="preserve">
<g>
	<title>flag-triangle</title>
	<path d="M5.77,15c-0.2,0-0.38-0.118-0.459-0.301c-0.109-0.253,0.007-0.548,0.26-0.658L19.517,8L5.571,1.959
		C5.449,1.906,5.354,1.808,5.305,1.684C5.256,1.56,5.258,1.424,5.311,1.301C5.39,1.118,5.57,1,5.77,1
		c0.069,0,0.136,0.014,0.199,0.042l14.082,6.1c0.586,0.257,0.675,0.645,0.676,0.854c0.001,0.168-0.063,0.589-0.67,0.862
		L5.969,14.959C5.905,14.986,5.838,15,5.77,15z"/>
	<path d="M3.77,24c-0.276,0-0.5-0.224-0.5-0.5v-23c0-0.276,0.224-0.5,0.5-0.5s0.5,0.224,0.5,0.5v23C4.27,23.776,4.046,24,3.77,24z"
		/>
</g>
</svg>
