<?xml version="1.0" encoding="utf-8"?>
<!-- Generator: Adobe Illustrator 22.1.0, SVG Export Plug-In . SVG Version: 6.00 Build 0)  -->
<svg version="1.1" id="Layer_1" xmlns="http://www.w3.org/2000/svg" xmlns:xlink="http://www.w3.org/1999/xlink" x="0px" y="0px"
	 viewBox="0 0 24 24" style="enable-background:new 0 0 24 24;" xml:space="preserve">
<g>
	<title>flag-cash</title>
	<path d="M0.5,24C0.224,24,0,23.776,0,23.5v-23C0,0.224,0.224,0,0.5,0S1,0.224,1,0.5v2.333C2.793,2.327,4.638,2.047,6.487,2
		c1.578,0,3.516,0.517,5.39,1.016C13.691,3.5,15.565,4,17,4c1.702-0.068,3.391-0.397,5.01-0.978c0.163-0.055,0.326-0.082,0.49-0.082
		c0.827,0,1.5,0.673,1.5,1.5v13.878c0,0.623-0.392,1.189-0.976,1.406c-1.918,0.748-3.938,1.177-6,1.275c0,0-0.001,0-0.001,0
		c-1.591,0-3.528-0.517-5.401-1.017C9.807,19.499,7.934,19,6.5,19c-1.852,0.047-3.703,0.34-5.5,0.873V23.5C1,23.776,0.776,24,0.5,24
		z M6.494,18c1.572,0,3.51,0.517,5.385,1.017C13.694,19.501,15.567,20,17,20c1.934-0.092,3.845-0.499,5.667-1.21
		C22.868,18.715,23,18.526,23,18.319V4.44c0-0.276-0.224-0.5-0.5-0.5c-0.054,0-0.109,0.009-0.161,0.027
		C20.631,4.58,18.84,4.928,17.02,5c0,0,0,0-0.001,0c-1.586,0-3.524-0.517-5.398-1.016C9.809,3.5,7.935,3,6.5,3
		C4.642,3.047,2.791,3.34,1,3.87v14.959C2.787,18.326,4.631,18.047,6.487,18C6.49,18,6.492,18,6.494,18z"/>
	<path d="M12.5,16c-0.276,0-0.5-0.224-0.5-0.5V15h-1c-0.276,0-0.5-0.224-0.5-0.5S10.724,14,11,14h2.03
		c0.35,0,0.657-0.208,0.786-0.53c0.171-0.431-0.04-0.921-0.471-1.092l-2.063-0.825c-0.704-0.282-1.159-0.954-1.158-1.712
		c0.001-0.492,0.193-0.955,0.541-1.302C11.012,8.191,11.474,8,11.965,8H12V7.5C12,7.224,12.224,7,12.5,7C12.776,7,13,7.224,13,7.5V8
		h1c0.276,0,0.5,0.224,0.5,0.5S14.276,9,14,9h-2.033c-0.226,0-0.437,0.087-0.596,0.246c-0.159,0.159-0.247,0.37-0.247,0.595
		c0,0.347,0.207,0.654,0.529,0.783l2.063,0.825c0.942,0.375,1.404,1.447,1.03,2.391C14.464,14.544,13.793,15,13.034,15H13v0.5
		C13,15.776,12.776,16,12.5,16z"/>
</g>
</svg>
