<?xml version="1.0" encoding="utf-8"?>
<!-- Generator: Adobe Illustrator 22.1.0, SVG Export Plug-In . SVG Version: 6.00 Build 0)  -->
<svg version="1.1" id="Layer_1" xmlns="http://www.w3.org/2000/svg" xmlns:xlink="http://www.w3.org/1999/xlink" x="0px" y="0px"
	 viewBox="0 0 24 24" style="enable-background:new 0 0 24 24;" xml:space="preserve">
<g>
	<title>flag-star</title>
	<path d="M0.5,24C0.224,24,0,23.776,0,23.5v-23C0,0.224,0.224,0,0.5,0S1,0.224,1,0.5v2.333C2.793,2.327,4.638,2.047,6.487,2
		c1.578,0,3.516,0.517,5.39,1.016C13.691,3.5,15.565,4,17,4c1.703-0.068,3.392-0.397,5.011-0.978
		C22.174,2.968,22.336,2.94,22.5,2.94c0.827,0,1.5,0.673,1.5,1.499v13.878c0,0.623-0.392,1.189-0.976,1.406
		c-1.918,0.748-3.938,1.177-6,1.275c0,0-0.001,0-0.001,0c-1.591,0-3.528-0.517-5.401-1.017C9.807,19.499,7.934,19,6.5,19
		c-1.852,0.047-3.703,0.34-5.5,0.873V23.5C1,23.776,0.776,24,0.5,24z M6.494,18c1.572,0,3.51,0.517,5.385,1.017
		C13.694,19.501,15.567,20,17,20c1.934-0.092,3.845-0.499,5.667-1.21C22.868,18.715,23,18.526,23,18.319V4.44
		c0-0.133-0.052-0.259-0.146-0.353C22.759,3.992,22.634,3.94,22.5,3.94c-0.059,0.002-0.116,0.011-0.16,0.026
		C20.632,4.58,18.841,4.928,17.02,5c0,0,0,0-0.001,0c-1.586,0-3.524-0.517-5.398-1.016C9.809,3.5,7.935,3,6.5,3
		C4.642,3.047,2.791,3.34,1,3.87v14.959C2.787,18.326,4.631,18.047,6.487,18C6.49,18,6.492,18,6.494,18z"/>
	<path d="M9.274,17c-0.411,0-0.795-0.22-1-0.575c-0.18-0.311-0.205-0.694-0.066-1.026l1.07-2.462l-1.939-2.023
		c-0.195-0.171-0.325-0.445-0.343-0.738C6.979,9.881,7.078,9.595,7.275,9.373C7.486,9.136,7.79,9,8.108,9L8.154,9l2.166,0
		l1.148-2.361c0.207-0.394,0.603-0.635,1.038-0.635c0.185,0,0.371,0.046,0.536,0.132c0.21,0.11,0.38,0.28,0.49,0.49
		C13.535,6.632,14.684,9,14.684,9h2.187l0.037-0.001c0.582,0,1.074,0.479,1.098,1.068c0.014,0.334-0.122,0.654-0.373,0.876
		l-1.907,1.995l1.068,2.456c0.121,0.289,0.124,0.604,0.007,0.889c-0.116,0.285-0.337,0.509-0.622,0.628
		C16.038,16.969,15.888,17,15.734,17l0,0c-0.204,0-0.404-0.053-0.579-0.155l-2.65-1.493l-2.66,1.496C9.674,16.947,9.476,17,9.274,17
		z M8.115,10c-0.04,0-0.07,0.012-0.092,0.037c-0.02,0.023-0.03,0.051-0.028,0.081c0.002,0.03,0.015,0.057,0.037,0.077l2.198,2.291
		c0.14,0.146,0.178,0.36,0.098,0.546l-1.2,2.761c-0.016,0.038-0.012,0.091,0.011,0.132C9.166,15.971,9.217,16,9.273,16
		c0.027,0,0.053-0.007,0.077-0.021l2.91-1.637c0.074-0.042,0.159-0.064,0.245-0.064c0.086,0,0.171,0.022,0.245,0.064l2.9,1.634
		C15.678,15.992,15.706,16,15.734,16c0.02,0,0.04-0.004,0.058-0.011c0.039-0.016,0.068-0.045,0.083-0.084s0.016-0.079,0-0.118
		l-1.198-2.756c-0.081-0.185-0.042-0.399,0.097-0.545l2.166-2.263c0.063-0.058,0.068-0.093,0.067-0.116
		C17.005,10.048,16.954,10,16.895,10l-2.523,0c-0.19,0-0.367-0.111-0.45-0.282l-1.28-2.638c-0.011-0.02-0.034-0.043-0.063-0.058
		c-0.023-0.012-0.048-0.019-0.074-0.019c-0.061,0-0.115,0.033-0.143,0.086l-1.278,2.629C11,9.89,10.823,10,10.633,10L8.115,10z"/>
</g>
</svg>
