<?xml version="1.0" encoding="utf-8"?>
<!-- Generator: Adobe Illustrator 22.1.0, SVG Export Plug-In . SVG Version: 6.00 Build 0)  -->
<svg version="1.1" id="Layer_1" xmlns="http://www.w3.org/2000/svg" xmlns:xlink="http://www.w3.org/1999/xlink" x="0px" y="0px"
	 viewBox="0 0 24 24" style="enable-background:new 0 0 24 24;" xml:space="preserve">
<g>
	<title>flag-settings</title>
	<path d="M0.5,24C0.224,24,0,23.776,0,23.5v-23C0,0.224,0.224,0,0.5,0S1,0.224,1,0.5v2.333C2.793,2.327,4.638,2.047,6.487,2
		c1.578,0,3.516,0.517,5.39,1.016C13.691,3.5,15.565,4,17,4c1.703-0.068,3.392-0.397,5.011-0.978
		C22.174,2.968,22.336,2.94,22.5,2.94c0.827,0,1.5,0.673,1.5,1.499v13.878c0,0.623-0.392,1.189-0.976,1.406
		c-1.918,0.748-3.938,1.177-6,1.275c0,0-0.001,0-0.001,0c-1.591,0-3.528-0.517-5.401-1.017C9.807,19.499,7.934,19,6.5,19
		c-1.852,0.047-3.703,0.34-5.5,0.873V23.5C1,23.776,0.776,24,0.5,24z M6.494,18c1.572,0,3.51,0.517,5.385,1.017
		C13.694,19.501,15.567,20,17,20c1.934-0.092,3.845-0.499,5.667-1.21C22.868,18.715,23,18.526,23,18.319V4.44
		c0-0.133-0.052-0.259-0.146-0.353C22.759,3.992,22.634,3.94,22.5,3.94c-0.059,0.002-0.116,0.011-0.16,0.026
		C20.632,4.58,18.841,4.928,17.02,5c0,0,0,0-0.001,0c-1.586,0-3.524-0.517-5.398-1.016C9.809,3.5,7.935,3,6.5,3
		C4.642,3.047,2.791,3.34,1,3.87v14.959C2.787,18.326,4.631,18.047,6.487,18C6.49,18,6.492,18,6.494,18z"/>
	<path d="M12,12.25c-0.414,0-0.75-0.336-0.75-0.75c0-0.396,0.311-0.724,0.708-0.747c0,0,0.001,0,0.001,0
		c0.013-0.002,0.026-0.003,0.04-0.003c0.022,0,0.044,0.002,0.066,0.005c0.014,0,0.012,0.001,0.026,0.003
		c0.369,0.037,0.659,0.357,0.659,0.742C12.75,11.914,12.414,12.25,12,12.25z"/>
	<path d="M11.998,16.503c-0.134,0-0.267-0.02-0.396-0.058c-0.45-0.134-0.799-0.483-0.933-0.933l-0.294-0.966
		c-0.021-0.068-0.086-0.115-0.158-0.115c-0.012,0-0.024,0.001-0.036,0.004l-0.978,0.227c-0.103,0.023-0.205,0.034-0.306,0.034
		c-0.265,0-0.524-0.076-0.749-0.22c-0.313-0.201-0.529-0.512-0.608-0.875c-0.096-0.441,0.028-0.903,0.333-1.237l0.689-0.743
		c0.058-0.063,0.058-0.166,0-0.229l-0.687-0.74c-0.253-0.272-0.384-0.627-0.37-0.999c0.014-0.372,0.172-0.716,0.444-0.969
		C8.207,8.442,8.544,8.31,8.897,8.31C8.999,8.31,9.1,8.321,9.2,8.343l0.986,0.229c0.011,0.003,0.024,0.004,0.036,0.004
		c0.071,0,0.134-0.047,0.154-0.115l0.296-0.971C10.844,6.909,11.391,6.502,12,6.502c0.133,0,0.266,0.019,0.395,0.057
		c0.448,0.133,0.796,0.479,0.932,0.926l0.295,0.969c0.021,0.069,0.085,0.116,0.156,0.116c0.012,0,0.024-0.001,0.035-0.004
		l0.981-0.228c0.103-0.023,0.208-0.035,0.311-0.035c0.654,0,1.212,0.446,1.357,1.084c0.102,0.451-0.025,0.921-0.341,1.259
		l-0.686,0.74c-0.058,0.063-0.058,0.166,0,0.229l0.687,0.74c0.253,0.273,0.385,0.627,0.371,0.999
		c-0.014,0.372-0.172,0.716-0.445,0.969c-0.259,0.24-0.595,0.372-0.948,0.372l0,0c-0.102,0-0.204-0.011-0.303-0.034l-0.986-0.229
		c-0.011-0.002-0.023-0.004-0.035-0.004c-0.071,0-0.135,0.047-0.155,0.115l-0.295,0.971C13.154,16.096,12.607,16.503,11.998,16.503z
		 M10.218,13.43c0.509,0,0.967,0.339,1.115,0.825l0.295,0.969c0.038,0.128,0.136,0.226,0.261,0.263
		c0.036,0.011,0.073,0.016,0.11,0.016c0.17,0,0.323-0.114,0.372-0.277l0.295-0.971c0.146-0.486,0.603-0.825,1.112-0.825
		c0.087,0,0.175,0.01,0.261,0.03l0.983,0.229c0.024,0.005,0.052,0.008,0.08,0.008c0.1,0,0.195-0.037,0.268-0.105
		c0.077-0.071,0.121-0.168,0.125-0.273c0.004-0.105-0.033-0.205-0.104-0.282l-0.687-0.741c-0.411-0.445-0.411-1.142,0-1.587
		l0.688-0.741c0.09-0.096,0.126-0.229,0.097-0.356c-0.04-0.177-0.201-0.305-0.383-0.305c-0.029,0-0.058,0.003-0.086,0.01
		l-0.979,0.227c-0.086,0.02-0.173,0.03-0.26,0.03c-0.509,0-0.967-0.339-1.114-0.826l-0.295-0.969
		c-0.038-0.125-0.135-0.222-0.26-0.259C12.074,7.507,12.037,7.501,12,7.501c-0.17,0-0.323,0.114-0.371,0.277l-0.296,0.972
		c-0.146,0.486-0.603,0.825-1.112,0.825c-0.088,0-0.176-0.01-0.261-0.03L8.978,9.318C8.952,9.312,8.924,9.309,8.896,9.309
		c-0.099,0-0.194,0.037-0.267,0.105C8.47,9.562,8.461,9.811,8.608,9.97l0.687,0.741c0.411,0.445,0.412,1.142,0,1.587L8.609,13.04
		c-0.084,0.092-0.119,0.222-0.092,0.346c0.022,0.103,0.083,0.19,0.171,0.247c0.064,0.041,0.137,0.062,0.211,0.062
		c0.028,0,0.057-0.003,0.085-0.009l0.975-0.226C10.044,13.439,10.13,13.43,10.218,13.43z"/>
</g>
</svg>
