<?xml version="1.0" encoding="utf-8"?>
<!-- Generator: Adobe Illustrator 22.1.0, SVG Export Plug-In . SVG Version: 6.00 Build 0)  -->
<svg version="1.1" id="Layer_1" xmlns="http://www.w3.org/2000/svg" xmlns:xlink="http://www.w3.org/1999/xlink" x="0px" y="0px"
	 viewBox="0 0 24 24" style="enable-background:new 0 0 24 24;" xml:space="preserve">
<g>
	<title>flag</title>
	<path d="M7.6,17c-0.268,0-0.518-0.104-0.707-0.292C6.704,16.52,6.6,16.269,6.599,16.001c0-0.13,0.025-0.257,0.073-0.377
		C6.92,15.011,7.449,14.459,8.224,14H4c-0.276,0-0.5-0.224-0.5-0.5S3.724,13,4,13h6.5V2.5C10.5,2.224,10.276,2,10,2H4
		C3.724,2,3.5,1.776,3.5,1.5S3.724,1,4,1h6c0.827,0,1.5,0.673,1.5,1.5V4H21c0.667,0,0.881,0.324,0.949,0.518
		c0.068,0.194,0.104,0.581-0.417,0.998L15.3,10.5l7.012,5.609c0.166,0.133,0.229,0.356,0.159,0.556C22.401,16.866,22.212,17,22,17
		H7.6z M11.16,13.97c-0.015,0.007-0.039,0.016-0.07,0.022c-0.026,0.005-2.913,0.577-3.491,2.008L20.575,16l-6.387-5.11
		C14.068,10.795,14,10.653,14,10.5s0.068-0.295,0.188-0.391L20.575,5H11.5v8.5c0,0.019-0.005,0.051-0.01,0.074
		c-0.003,0.025-0.009,0.058-0.022,0.094c-0.009,0.026-0.021,0.049-0.035,0.073c-0.019,0.033-0.037,0.06-0.059,0.085
		c-0.018,0.021-0.038,0.039-0.06,0.057c-0.029,0.024-0.056,0.042-0.085,0.056C11.207,13.952,11.184,13.962,11.16,13.97z"/>
	<path d="M2,24c-0.276,0-0.5-0.224-0.5-0.5v-23C1.5,0.224,1.724,0,2,0s0.5,0.224,0.5,0.5v23C2.5,23.776,2.276,24,2,24z"/>
</g>
</svg>
