<?xml version="1.0" encoding="utf-8"?>
<!-- Generator: Adobe Illustrator 22.1.0, SVG Export Plug-In . SVG Version: 6.00 Build 0)  -->
<svg version="1.1" id="Layer_1" xmlns="http://www.w3.org/2000/svg" xmlns:xlink="http://www.w3.org/1999/xlink" x="0px" y="0px"
	 viewBox="0 0 24 24" style="enable-background:new 0 0 24 24;" xml:space="preserve">
<g>
	<title>flag-plain</title>
	<path d="M10.257,18.486c-0.134,0-0.259-0.052-0.354-0.146c-0.195-0.195-0.195-0.512,0-0.707l4.597-4.597L7.075,5.61
		c-0.094-0.094-0.22-0.146-0.353-0.146c-0.134,0-0.259,0.052-0.354,0.146L2.125,9.854c-0.094,0.094-0.22,0.146-0.354,0.146
		S1.512,9.949,1.418,9.854C1.323,9.76,1.271,9.634,1.271,9.501c0-0.134,0.052-0.259,0.146-0.354l4.243-4.244
		c0.283-0.283,0.66-0.439,1.061-0.439c0.401,0,0.778,0.156,1.06,0.439l1.062,1.061l5.302-5.303c0.283-0.283,0.659-0.439,1.061-0.439
		c0.401,0,0.778,0.156,1.061,0.438l7.071,7.071c0.584,0.585,0.584,1.536,0,2.121l-7.72,7.721c-0.189,0.188-0.44,0.292-0.706,0.292
		c0,0,0,0,0,0c-0.268,0-0.52-0.105-0.709-0.295c-0.076-0.077-0.138-0.164-0.186-0.259c-0.298-0.602-0.363-1.345-0.197-2.181
		l-3.208,3.208C10.516,18.434,10.391,18.486,10.257,18.486z M15.656,13.248c0.001,0-0.009,0.028-0.028,0.058
		c-0.014,0.021-1.387,2.202-0.716,3.561l7.718-7.721c0.195-0.195,0.195-0.512,0-0.707l-7.071-7.071
		c-0.094-0.094-0.22-0.146-0.354-0.146s-0.259,0.052-0.354,0.146L9.55,6.672l6.01,6.009c0.014,0.014,0.032,0.039,0.045,0.058
		c0.018,0.023,0.036,0.049,0.051,0.082c0.012,0.026,0.02,0.049,0.027,0.074c0.011,0.034,0.018,0.072,0.02,0.11
		c0.001,0.024,0,0.044-0.001,0.064c-0.003,0.044-0.011,0.084-0.025,0.124C15.672,13.212,15.664,13.23,15.656,13.248
		C15.656,13.248,15.656,13.248,15.656,13.248z"/>
	<path d="M12.721,23.779c-0.134,0-0.259-0.052-0.354-0.146l-12-12c-0.094-0.094-0.146-0.22-0.146-0.354s0.052-0.259,0.146-0.354
		s0.22-0.146,0.354-0.146s0.259,0.052,0.354,0.146l12,12c0.094,0.094,0.146,0.22,0.146,0.354s-0.052,0.259-0.146,0.354
		S12.855,23.779,12.721,23.779z"/>
</g>
</svg>
