<?xml version="1.0" encoding="utf-8"?>
<!-- Generator: Adobe Illustrator 22.1.0, SVG Export Plug-In . SVG Version: 6.00 Build 0)  -->
<svg version="1.1" id="Layer_1" xmlns="http://www.w3.org/2000/svg" xmlns:xlink="http://www.w3.org/1999/xlink" x="0px" y="0px"
	 viewBox="0 0 24 24" style="enable-background:new 0 0 24 24;" xml:space="preserve">
<g>
	<title>flag-flash</title>
	<path d="M0.5,24C0.224,24,0,23.776,0,23.5v-23C0,0.224,0.224,0,0.5,0S1,0.224,1,0.5v2.333C2.793,2.327,4.638,2.047,6.487,2
		c1.578,0,3.516,0.517,5.39,1.016C13.691,3.5,15.565,4,17,4c1.702-0.068,3.391-0.397,5.01-0.978c0.163-0.055,0.326-0.082,0.49-0.082
		c0.827,0,1.5,0.673,1.5,1.5v13.878c0,0.623-0.392,1.189-0.976,1.406c-1.918,0.748-3.938,1.177-6,1.275c0,0-0.001,0-0.001,0
		c-1.591,0-3.528-0.517-5.401-1.017C9.807,19.499,7.934,19,6.5,19c-1.852,0.047-3.703,0.34-5.5,0.873V23.5C1,23.776,0.776,24,0.5,24
		z M6.494,18c1.572,0,3.51,0.517,5.385,1.017C13.694,19.501,15.567,20,17,20c1.934-0.092,3.845-0.499,5.667-1.21
		C22.868,18.715,23,18.526,23,18.319V4.44c0-0.276-0.224-0.5-0.5-0.5c-0.054,0-0.109,0.009-0.161,0.027
		C20.631,4.58,18.84,4.928,17.02,5c0,0,0,0-0.001,0c-1.586,0-3.524-0.517-5.398-1.016C9.809,3.5,7.935,3,6.5,3
		C4.642,3.047,2.791,3.34,1,3.87v14.959C2.787,18.326,4.631,18.047,6.487,18C6.49,18,6.492,18,6.494,18z"/>
	<path d="M11.5,16c-0.059,0-0.118-0.01-0.174-0.031C11.131,15.896,11,15.708,11,15.5V12H9.751c-0.178,0-0.351-0.063-0.486-0.178
		c-0.153-0.13-0.246-0.312-0.262-0.511c-0.016-0.2,0.047-0.394,0.177-0.547l3.941-4.589C13.216,6.063,13.354,6,13.5,6
		c0.06,0,0.118,0.011,0.174,0.031C13.869,6.103,14,6.292,14,6.5V10h1.249c0.178,0,0.351,0.063,0.486,0.179
		c0.153,0.13,0.246,0.312,0.262,0.511c0.016,0.2-0.047,0.394-0.177,0.547l-3.941,4.589C11.784,15.937,11.646,16,11.5,16z M11.5,11
		c0.276,0,0.5,0.224,0.5,0.5v2.65l2.706-3.151L13.5,11c-0.276,0-0.5-0.224-0.5-0.5V7.85l-2.706,3.151L11.5,11z"/>
</g>
</svg>
