<?xml version="1.0" encoding="utf-8"?>
<!-- Generator: Adobe Illustrator 22.1.0, SVG Export Plug-In . SVG Version: 6.00 Build 0)  -->
<svg version="1.1" id="Layer_1" xmlns="http://www.w3.org/2000/svg" xmlns:xlink="http://www.w3.org/1999/xlink" x="0px" y="0px"
	 viewBox="0 0 24 24" style="enable-background:new 0 0 24 24;" xml:space="preserve">
<g>
	<title>flag-triangle-1</title>
	<path d="M4.75,24c-0.276,0-0.5-0.224-0.5-0.5v-23c0-0.276,0.224-0.5,0.5-0.5s0.5,0.224,0.5,0.5v23C5.25,23.775,5.026,24,4.75,24z"
		/>
	<path d="M7.75,15c-0.174,0-0.337-0.092-0.427-0.24c-0.069-0.114-0.09-0.248-0.059-0.378c0.031-0.13,0.112-0.24,0.226-0.309
		L18.289,7.5L7.49,0.927C7.376,0.857,7.296,0.748,7.264,0.618C7.233,0.488,7.254,0.354,7.323,0.24C7.414,0.09,7.574,0,7.75,0
		c0.092,0,0.182,0.025,0.26,0.073l11.5,7c0.148,0.09,0.24,0.253,0.24,0.427s-0.092,0.337-0.24,0.427l-11.5,7
		C7.931,14.975,7.842,15,7.75,15z"/>
</g>
</svg>
