<svg xmlns="http://www.w3.org/2000/svg" viewBox="0 0 24 24"><title>android-download</title><path d="M12.75,19.5a6.029,6.029,0,0,1,4.56-5.823.25.25,0,0,0,.19-.243V10.5a.75.75,0,0,0-.75-.75h-12A.75.75,0,0,0,4,10.5V20.524a1.221,1.221,0,0,0,1.212,1.227h7.62a.25.25,0,0,0,.237-.33A6.257,6.257,0,0,1,12.75,19.5Z"/><path d="M3.97,7.172A1,1,0,0,0,4.914,8.5H16.583a1,1,0,0,0,.943-1.331A6.865,6.865,0,0,0,14.142,3.3a.25.25,0,0,1-.119-.314l.633-1.625A1,1,0,0,0,12.793.638l-.7,1.788a.251.251,0,0,1-.269.157A7.406,7.406,0,0,0,10.756,2.5a7.531,7.531,0,0,0-1.08.082.25.25,0,0,1-.268-.158L8.721.642a1,1,0,0,0-1.867.719L7.48,2.988a.249.249,0,0,1-.12.312A6.806,6.806,0,0,0,3.97,7.172ZM13,5a.75.75,0,1,1-.75.75A.75.75,0,0,1,13,5ZM8.5,5a.75.75,0,1,1-.75.75A.75.75,0,0,1,8.5,5Z"/><path d="M20.75,11a1,1,0,1,0-2,0v2.256a.25.25,0,0,0,.239.249,5.95,5.95,0,0,1,1.44.241.249.249,0,0,0,.321-.24Z"/><path d="M1.75,19a1,1,0,0,0,1-1V11a1,1,0,0,0-2,0v7A1,1,0,0,0,1.75,19Z"/><path d="M14.25,19.5a4.5,4.5,0,1,0,4.5-4.5A4.5,4.5,0,0,0,14.25,19.5Zm2.538.309a.5.5,0,0,1,.462-.309h.5a.25.25,0,0,0,.25-.25V17.5a.75.75,0,0,1,1.5,0v1.75a.25.25,0,0,0,.25.25h.5a.5.5,0,0,1,.354.854l-1.5,1.5a.5.5,0,0,1-.708,0l-1.5-1.5A.5.5,0,0,1,16.788,19.81Z"/></svg>