<svg xmlns="http://www.w3.org/2000/svg" viewBox="0 0 24 24"><title>android</title><path d="M19.5,10.251H4.5a3,3,0,0,0-3,3v4.5a1,1,0,0,0,2,0v-4.5a1,1,0,0,1,1-1h.25a.5.5,0,0,1,.5.5V19.5a.75.75,0,0,0,.75.75H7a.5.5,0,0,1,.5.5V23a1,1,0,0,0,2,0v-2.25a.5.5,0,0,1,.5-.5h4a.5.5,0,0,1,.5.5V23a1,1,0,1,0,2,0v-2.25a.5.5,0,0,1,.5-.5h1a.75.75,0,0,0,.75-.75v-6.75a.5.5,0,0,1,.5-.5h.25a1,1,0,0,1,1,1v4.5a1,1,0,1,0,2,0v-4.5A3,3,0,0,0,19.5,10.251Z"/><path d="M6.459,3.374a.249.249,0,0,1,.02.33A6.963,6.963,0,0,0,5,8v.5a.5.5,0,0,0,.5.5h13a.5.5,0,0,0,.5-.5V8a6.963,6.963,0,0,0-1.479-4.3.249.249,0,0,1,.02-.33l1.666-1.666A1,1,0,1,0,17.793.294L16.04,2.046a.248.248,0,0,1-.31.034,6.984,6.984,0,0,0-7.46,0,.25.25,0,0,1-.31-.035L6.207.294A1,1,0,0,0,4.793,1.708ZM15.25,4.5V6a.75.75,0,1,1-1.5,0V4.5a.75.75,0,1,1,1.5,0Zm-5,1.5a.75.75,0,1,1-1.5,0V4.5a.75.75,0,1,1,1.5,0Z"/></svg>