<?xml version="1.0" encoding="utf-8"?>
<!-- Generator: Adobe Illustrator 22.1.0, SVG Export Plug-In . SVG Version: 6.00 Build 0)  -->
<svg version="1.1" id="Light" xmlns="http://www.w3.org/2000/svg" xmlns:xlink="http://www.w3.org/1999/xlink" x="0px" y="0px"
	 viewBox="0 0 24 24" style="enable-background:new 0 0 24 24;" xml:space="preserve">
<g>
	<title>multiple-man-woman-3</title>
	<path d="M14.724,24c-0.235,0-0.441-0.167-0.489-0.397l-0.924-4.38c-0.028-0.13-0.003-0.264,0.07-0.376s0.185-0.189,0.316-0.216
		c0.034-0.007,0.069-0.011,0.104-0.011c0.234,0,0.44,0.167,0.489,0.397L15.129,23h2.189l0.97-4.603
		C18.337,18.167,18.543,18,18.778,18h2.299l-1.627-5.95c-0.14-0.585-0.429-1.114-0.837-1.537c-0.612-0.635-1.434-0.994-2.315-1.01
		l-0.066-0.001c-0.855,0-1.667,0.328-2.285,0.923c-0.093,0.09-0.216,0.14-0.346,0.14c-0.135,0-0.267-0.056-0.36-0.153
		c-0.191-0.199-0.185-0.516,0.013-0.707c0.805-0.776,1.867-1.203,2.99-1.203l0.073,0.001c1.149,0.022,2.22,0.489,3.017,1.316
		c0.531,0.552,0.906,1.238,1.085,1.983l1.796,6.567c0.041,0.149,0.009,0.312-0.085,0.435S21.886,19,21.732,19h-2.548l-0.97,4.603
		C18.164,23.833,17.959,24,17.724,24H14.724z"/>
	<path d="M5.235,24c-0.258,0-0.477-0.201-0.498-0.458L4.275,18h-2.04c-0.276,0-0.5-0.224-0.5-0.5V14c0-3.033,2.467-5.5,5.5-5.5
		s5.5,2.467,5.5,5.5v3.5c0,0.276-0.224,0.5-0.5,0.5h-2.04l-0.462,5.542C9.711,23.799,9.492,24,9.235,24H5.235z M8.775,23
		l0.462-5.542C9.258,17.201,9.477,17,9.735,17h2v-3c0-2.481-2.019-4.5-4.5-4.5s-4.5,2.019-4.5,4.5v3h2
		c0.258,0,0.477,0.201,0.498,0.458L5.695,23H8.775z"/>
	<path d="M7.235,8c-2.206,0-4-1.794-4-4c0-0.691,0.183-1.374,0.528-1.979c0.016-0.034,0.034-0.06,0.047-0.078
		C4.525,0.748,5.84,0,7.235,0c2.206,0,4,1.794,4,4S9.44,8,7.235,8z M4.389,3.058C4.287,3.363,4.235,3.679,4.235,4
		c0,1.654,1.346,3,3,3c1.577,0,2.873-1.223,2.991-2.769C9.635,4.409,9.022,4.5,8.401,4.5C6.953,4.5,5.511,3.978,4.389,3.058z
		 M4.871,2.155C5.837,3.012,7.111,3.5,8.4,3.5c0.591,0,1.171-0.097,1.729-0.289C9.776,1.918,8.591,1,7.235,1
		C6.308,1,5.439,1.428,4.871,2.155z"/>
	<path d="M16.235,8c-1.959,0-3.616-1.404-3.941-3.338c-0.002-0.003-0.011-0.036-0.012-0.078c0-0.001,0-0.001,0-0.002
		C12.25,4.37,12.235,4.18,12.235,4c0-2.206,1.794-4,4-4s4,1.794,4,4c0,0.183-0.015,0.371-0.048,0.589
		c-0.001,0.021-0.006,0.05-0.011,0.071C19.847,6.601,18.193,8,16.235,8z M13.419,5.025C13.846,6.201,14.966,7,16.235,7
		s2.388-0.799,2.815-1.975c-1.057-0.142-2.04-0.606-2.815-1.329C15.459,4.419,14.476,4.883,13.419,5.025z M16.235,2.477
		c0.145,0,0.282,0.063,0.378,0.172c0.665,0.767,1.609,1.266,2.622,1.391c0-0.013,0-0.027,0-0.04c0-1.654-1.346-3-3-3s-3,1.346-3,3
		c0,0.013,0,0.027,0,0.04c1.013-0.125,1.957-0.624,2.622-1.39C15.952,2.54,16.09,2.477,16.235,2.477z"/>
</g>
</svg>
