<?xml version="1.0" encoding="utf-8"?>
<!-- Generator: Adobe Illustrator 22.1.0, SVG Export Plug-In . SVG Version: 6.00 Build 0)  -->
<svg version="1.1" id="Layer_1" xmlns="http://www.w3.org/2000/svg" xmlns:xlink="http://www.w3.org/1999/xlink" x="0px" y="0px"
	 viewBox="0 0 24 24" style="enable-background:new 0 0 24 24;" xml:space="preserve">
<title>text-format</title>
<g>
	<path d="M10.875,17.248c-0.414,0-0.75-0.336-0.75-0.75s0.336-0.75,0.75-0.75h0.375V8.25H9V9c0,0.414-0.336,0.75-0.75,0.75
		S7.5,9.414,7.5,9V7.873C7.505,7.254,8.008,6.752,8.623,6.75h3.339C11.976,6.749,11.99,6.748,12,6.748
		c0.014,0,0.027,0.001,0.04,0.002h3.335c0.619,0.002,1.124,0.506,1.125,1.123V9c0,0.414-0.336,0.75-0.75,0.75S15,9.414,15,9V8.25
		h-2.25v7.498h0.375c0.414,0,0.75,0.336,0.75,0.75s-0.336,0.75-0.75,0.75H10.875z"/>
	<path d="M3,16.498c-0.414,0-0.75-0.336-0.75-0.75v-7.5c0-0.414,0.336-0.75,0.75-0.75s0.75,0.336,0.75,0.75v7.5
		C3.75,16.162,3.414,16.498,3,16.498z"/>
	<path d="M1.313,5.998C0.589,5.998,0,5.409,0,4.685V1.311c0-0.724,0.589-1.313,1.313-1.313h3.374C5.411-0.002,6,0.587,6,1.311v3.374
		c0,0.724-0.589,1.313-1.313,1.313H1.313z M4.5,4.498v-3h-3v3H4.5z"/>
	<path d="M1.313,23.998C0.589,23.998,0,23.409,0,22.685v-3.374c0-0.724,0.589-1.313,1.313-1.313h3.374
		C5.411,17.998,6,18.587,6,19.311v3.374c0,0.724-0.589,1.313-1.313,1.313H1.313z M4.5,22.498v-3h-3v3H4.5z"/>
	<path d="M21,16.498c-0.414,0-0.75-0.336-0.75-0.75v-7.5c0-0.414,0.336-0.75,0.75-0.75s0.75,0.336,0.75,0.75v7.5
		C21.75,16.162,21.414,16.498,21,16.498z"/>
	<path d="M8.25,3.748c-0.414,0-0.75-0.336-0.75-0.75s0.336-0.75,0.75-0.75h7.5c0.414,0,0.75,0.336,0.75,0.75s-0.336,0.75-0.75,0.75
		H8.25z"/>
	<path d="M8.25,21.748c-0.414,0-0.75-0.336-0.75-0.75s0.336-0.75,0.75-0.75h7.5c0.414,0,0.75,0.336,0.75,0.75s-0.336,0.75-0.75,0.75
		H8.25z"/>
	<path d="M19.313,5.998C18.589,5.998,18,5.409,18,4.685V1.311c0-0.724,0.589-1.313,1.313-1.313h3.374
		C23.411-0.002,24,0.587,24,1.311v3.374c0,0.724-0.589,1.313-1.313,1.313H19.313z M22.5,4.498v-3h-3v3H22.5z"/>
	<path d="M19.313,23.998c-0.724,0-1.313-0.589-1.313-1.313v-3.374c0-0.724,0.589-1.313,1.313-1.313h3.374
		c0.724,0,1.313,0.589,1.313,1.313v3.374c0,0.724-0.589,1.313-1.313,1.313H19.313z M22.5,22.498v-3h-3v3H22.5z"/>
</g>
</svg>
