<?xml version="1.0" encoding="utf-8"?>
<!-- Generator: Adobe Illustrator 22.1.0, SVG Export Plug-In . SVG Version: 6.00 Build 0)  -->
<svg version="1.1" id="Layer_1" xmlns="http://www.w3.org/2000/svg" xmlns:xlink="http://www.w3.org/1999/xlink" x="0px" y="0px"
	 viewBox="0 0 24 24" style="enable-background:new 0 0 24 24;" xml:space="preserve">
<title>text-options</title>
<g>
	<path d="M2.25,23.998c-1.241,0-2.25-1.009-2.25-2.25v-4.5c0-1.241,1.009-2.25,2.25-2.25h19.5c1.241,0,2.25,1.009,2.25,2.25v4.5
		c0,1.241-1.009,2.25-2.25,2.25H2.25z M2.25,16.498c-0.414,0-0.75,0.336-0.75,0.75v4.5c0,0.414,0.336,0.75,0.75,0.75h19.5
		c0.414,0,0.75-0.336,0.75-0.75v-4.5c0-0.414-0.336-0.75-0.75-0.75H2.25z"/>
	<path d="M15.709,13.498l-0.709,0c-0.414,0-0.75-0.336-0.75-0.75s0.336-0.75,0.75-0.75v-3H9v3c0.414,0,0.75,0.336,0.75,0.75
		s-0.336,0.75-0.75,0.75H7.5c-0.414,0-0.75-0.336-0.75-0.75s0.336-0.75,0.75-0.75V4.5C7.5,2.019,9.519,0,12,0
		c2.481,0,4.5,2.019,4.5,4.5v7.498c0.414,0,0.75,0.336,0.75,0.75s-0.336,0.75-0.75,0.75h-0.712C15.774,13.499,15.76,13.5,15.75,13.5
		C15.739,13.5,15.723,13.499,15.709,13.498z M15,7.498V4.5c0-1.654-1.346-3-3-3c-1.654,0-3,1.346-3,3v2.998H15z"/>
	<path d="M18,20.998c-0.2,0-0.389-0.078-0.53-0.22l-1.5-1.5c-0.215-0.215-0.279-0.536-0.163-0.817s0.389-0.463,0.693-0.463h3
		c0.304,0,0.576,0.182,0.693,0.463s0.053,0.602-0.163,0.817l-1.5,1.5C18.389,20.92,18.2,20.998,18,20.998z"/>
</g>
</svg>
