<svg xmlns="http://www.w3.org/2000/svg" viewBox="0 0 24 24"><defs><style>.a{fill:none;stroke:currentColor;stroke-linecap:round;stroke-linejoin:round;}</style></defs><title>folder-file</title><path class="a" d="M17,.58V4.5a1,1,0,0,0,1,1h3.92"/><path class="a" d="M5,12.5V1.5a1,1,0,0,1,1-1H16.586a1,1,0,0,1,.707.293l4.414,4.414A1,1,0,0,1,22,5.914V20.5a1,1,0,0,1-1,1H16"/><line class="a" x1="8" y1="5.5" x2="14.5" y2="5.5"/><line class="a" x1="8" y1="5.5" x2="14.5" y2="5.5"/><line class="a" x1="8" y1="8.5" x2="15.5" y2="8.5"/><line class="a" x1="8" y1="11.5" x2="18.5" y2="11.5"/><path class="a" d="M15,14.5H8a1,1,0,0,1-.8-.4l-.9-1.2a1,1,0,0,0-.8-.4H3a1,1,0,0,0-1,1v9a1,1,0,0,0,1,1H15a1,1,0,0,0,1-1v-7A1,1,0,0,0,15,14.5Z"/></svg>