<svg xmlns="http://www.w3.org/2000/svg" viewBox="0 0 24 24"><defs><style>.a{fill:none;stroke:currentColor;stroke-linecap:round;stroke-linejoin:round;}</style></defs><title>folder-home-1</title><path class="a" d="M11.736,5a1,1,0,0,1-.894-.553L9.894,2.553A1,1,0,0,0,9,2H1.5a1,1,0,0,0-1,1V21a1,1,0,0,0,1,1h21a1,1,0,0,0,1-1V6a1,1,0,0,0-1-1Z"/><path class="a" d="M10.5,18V15.5a1.5,1.5,0,0,1,3,0V18"/><path class="a" d="M8.5,12.182V17a1,1,0,0,0,1,1h5a1,1,0,0,0,1-1V12.182"/><path class="a" d="M6.5,14l4.827-4.388a1,1,0,0,1,1.346,0L17.5,14"/></svg>