<svg xmlns="http://www.w3.org/2000/svg" viewBox="0 0 24 24"><defs><style>.a{fill:none;stroke:currentColor;stroke-linecap:round;stroke-linejoin:round;}</style></defs><title>folder-file-star</title><path class="a" d="M21,13v7.5a1,1,0,0,1-1,1H15"/><path class="a" d="M4,12.5V1.5a1,1,0,0,1,1-1h8.5"/><path class="a" d="M14,14.5H7a1,1,0,0,1-.8-.4l-.9-1.2a1,1,0,0,0-.8-.4H2a1,1,0,0,0-1,1v9a1,1,0,0,0,1,1H14a1,1,0,0,0,1-1v-7A1,1,0,0,0,14,14.5Z"/><path class="a" d="M18.589.859l1.282,2.768h2.5A.613.613,0,0,1,22.8,4.7L20.631,6.832l1.2,2.761a.654.654,0,0,1-.931.819L18,8.778l-2.9,1.634a.654.654,0,0,1-.931-.819l1.2-2.761L13.2,4.7a.613.613,0,0,1,.429-1.07h2.495L17.412.859A.662.662,0,0,1,18.589.859Z"/></svg>