<svg xmlns="http://www.w3.org/2000/svg" viewBox="0 0 24 24"><defs><style>.a{fill:none;stroke:currentColor;stroke-linecap:round;stroke-linejoin:round;}</style></defs><title>folder-connect</title><path class="a" d="M23.5,5a1,1,0,0,0-1-1H17.618a1,1,0,0,1-.894-.553l-.448-.894A1,1,0,0,0,15.382,2H13.5a1,1,0,0,0-1,1v7a1,1,0,0,0,1,1h9a1,1,0,0,0,1-1Z"/><path class="a" d="M23.5,17a1,1,0,0,0-1-1H17.618a1,1,0,0,1-.894-.553l-.448-.894A1,1,0,0,0,15.382,14H13.5a1,1,0,0,0-1,1v7a1,1,0,0,0,1,1h9a1,1,0,0,0,1-1Z"/><line class="a" x1="0.5" y1="1" x2="0.5" y2="3"/><line class="a" x1="0.5" y1="6" x2="0.5" y2="8"/><line class="a" x1="0.5" y1="11" x2="0.5" y2="13"/><path class="a" d="M.5,16v1a1,1,0,0,0,1,1h1"/><line class="a" x1="0.5" y1="7" x2="2.5" y2="7"/><line class="a" x1="5.5" y1="7" x2="7.5" y2="7"/><line class="a" x1="10.5" y1="7" x2="12.5" y2="7"/><line class="a" x1="5.5" y1="18" x2="7.5" y2="18"/><line class="a" x1="10.5" y1="18" x2="12.5" y2="18"/></svg>