<svg xmlns="http://www.w3.org/2000/svg" viewBox="0 0 24 24"><defs><style>.a{fill:none;stroke:currentColor;stroke-linecap:round;stroke-linejoin:round;stroke-width:1.5px;}</style></defs><title>iris-scan-denied</title><circle class="a" cx="17.25" cy="17.25" r="6"/><line class="a" x1="19.5" y1="14.999" x2="15" y2="19.499"/><line class="a" x1="15" y1="14.999" x2="19.5" y2="19.499"/><path class="a" d="M21.75,9.7c.382-.361.741-.727,1.073-1.093a1.662,1.662,0,0,0,0-2.226C20.2,3.5,16.031.684,12,.751,7.969.684,3.8,3.5,1.179,6.385a1.663,1.663,0,0,0,0,2.226,18.849,18.849,0,0,0,7.082,4.955"/><path class="a" d="M10.5,10.937A3.749,3.749,0,1,1,15.438,9"/></svg>