<?xml version="1.0" encoding="utf-8"?>
<!-- Generator: Adobe Illustrator 22.1.0, SVG Export Plug-In . SVG Version: 6.00 Build 0)  -->
<svg version="1.1" id="Layer_1" xmlns="http://www.w3.org/2000/svg" xmlns:xlink="http://www.w3.org/1999/xlink" x="0px" y="0px"
	 viewBox="0 0 24 24" style="enable-background:new 0 0 24 24;" xml:space="preserve">
<g>
	<title>gesture-swipe-vertical-up-two-fingers</title>
	<path d="M10.493,18.002c-0.276,0-0.5-0.224-0.5-0.5v-3c0-0.276,0.224-0.5,0.5-0.5h1.5c1.103,0,2,0.897,2,2s-0.897,2-2,2H10.493z
		 M11.993,17.002c0.552,0,1-0.448,1-1s-0.448-1-1-1h-1v2H11.993z"/>
	<path d="M2.493,20.002c-0.276,0-0.5-0.224-0.5-0.5s0.224-0.5,0.5-0.5h9.5c1.654,0,3-1.346,3-3s-1.346-3-3-3h-9.5
		c-0.276,0-0.5-0.224-0.5-0.5c0-0.276,0.224-0.5,0.5-0.5h9.5c1.654,0,3-1.346,3-3s-1.346-3-3-3h-9.5c-0.276,0-0.5-0.224-0.5-0.5
		s0.224-0.5,0.5-0.5h9.5c2.206,0,4,1.794,4,4c0,1.458-0.814,2.803-2.074,3.5c1.259,0.697,2.074,2.042,2.074,3.5c0,2.206-1.794,4-4,4
		H2.493z"/>
	<path d="M10.493,11.002c-0.276,0-0.5-0.224-0.5-0.5v-3c0-0.276,0.224-0.5,0.5-0.5h1.5c1.103,0,2,0.897,2,2s-0.897,2-2,2H10.493z
		 M11.993,10.002c0.552,0,1-0.449,1-1s-0.448-1-1-1h-1v2H11.993z"/>
	<path d="M16.553,24.002c-0.099,0-0.196-0.029-0.279-0.085c-0.229-0.155-0.29-0.466-0.135-0.695
		c1.814-2.689,2.854-6.784,2.854-11.234c0.108-3.605-0.729-7.164-2.424-10.332l-0.613,1.523c-0.077,0.191-0.259,0.314-0.464,0.314
		c-0.064,0-0.127-0.012-0.187-0.036c-0.124-0.05-0.22-0.145-0.273-0.268c-0.052-0.123-0.054-0.259-0.004-0.383l1-2.486
		c0.006-0.014,0.016-0.033,0.025-0.048c0.014-0.027,0.033-0.06,0.061-0.092c0.005-0.005,0.01-0.011,0.016-0.017
		c0.024-0.026,0.056-0.06,0.104-0.089c0.076-0.046,0.164-0.07,0.253-0.07c0.043,0,0.086,0.006,0.128,0.016l2.956,0.479
		c0.272,0.044,0.458,0.301,0.414,0.573c-0.04,0.244-0.247,0.42-0.493,0.42c-0.027,0-0.054-0.002-0.081-0.006l-1.971-0.319
		c1.783,3.326,2.664,7.061,2.551,10.837c0,4.632-1.103,8.928-3.025,11.779C16.874,23.919,16.719,24.002,16.553,24.002z"/>
</g>
</svg>
