<?xml version="1.0" encoding="utf-8"?>
<!-- Generator: Adobe Illustrator 22.1.0, SVG Export Plug-In . SVG Version: 6.00 Build 0)  -->
<svg version="1.1" id="Layer_1" xmlns="http://www.w3.org/2000/svg" xmlns:xlink="http://www.w3.org/1999/xlink" x="0px" y="0px"
	 viewBox="0 0 24 24" style="enable-background:new 0 0 24 24;" xml:space="preserve">
<g>
	<title>gesture-zoom-in-two-fingers</title>
	<path d="M2.498,14.504c-0.153,0-0.295-0.068-0.391-0.188l-2-2.5c-0.024-0.03-0.038-0.058-0.045-0.073
		c-0.011-0.018-0.021-0.037-0.03-0.059c-0.023-0.061-0.035-0.122-0.035-0.181c0-0.006,0-0.012,0.001-0.018
		c0.002-0.055,0.014-0.109,0.034-0.162c0.005-0.014,0.023-0.047,0.031-0.06c0.007-0.015,0.02-0.043,0.044-0.072l2-2.5
		c0.095-0.119,0.238-0.188,0.391-0.188c0.113,0,0.224,0.039,0.312,0.11c0.104,0.083,0.17,0.202,0.185,0.335S2.972,9.212,2.888,9.316
		l-1.352,1.69l0.964,0.002c0.276,0,0.5,0.225,0.499,0.501c0,0.275-0.225,0.499-0.5,0.499l-0.96-0.002l1.348,1.685
		c0.172,0.215,0.137,0.531-0.078,0.703C2.722,14.465,2.611,14.504,2.498,14.504z"/>
	<path d="M20.498,14.504c-0.113,0-0.224-0.039-0.312-0.109c-0.215-0.173-0.25-0.488-0.078-0.703l1.349-1.686l-0.955,0.002
		c-0.276,0-0.5-0.224-0.501-0.499c0-0.276,0.223-0.5,0.499-0.501l0.96-0.002l-1.352-1.69c-0.172-0.215-0.137-0.53,0.078-0.703
		c0.089-0.071,0.199-0.11,0.312-0.11c0.153,0,0.295,0.068,0.391,0.187l2,2.5c0.024,0.03,0.037,0.058,0.044,0.073
		c0.01,0.017,0.021,0.036,0.03,0.058c0.023,0.06,0.035,0.12,0.035,0.178c0,0.062-0.012,0.123-0.035,0.183
		c-0.005,0.014-0.021,0.045-0.029,0.058c-0.008,0.017-0.022,0.045-0.045,0.074l-2,2.5C20.792,14.436,20.65,14.504,20.498,14.504z"/>
	<path d="M6.5,13C6.224,13,6,12.776,6,12.5V11c0-1.103,0.897-2,2-2s2,0.897,2,2v1.5c0,0.276-0.224,0.5-0.5,0.5H6.5z M9,12v-1
		c0-0.551-0.449-1-1-1s-1,0.449-1,1v1H9z"/>
	<path d="M18.5,16c-0.276,0-0.5-0.224-0.5-0.5V11c0-1.654-1.346-3-3-3s-3,1.346-3,3v4.5c0,0.276-0.224,0.5-0.5,0.5
		S11,15.776,11,15.5V11c0-1.654-1.346-3-3-3s-3,1.346-3,3v4.5C5,15.776,4.776,16,4.5,16S4,15.776,4,15.5V11c0-2.206,1.794-4,4-4
		c1.458,0,2.803,0.815,3.5,2.074C12.197,7.815,13.542,7,15,7c2.206,0,4,1.794,4,4v4.5C19,15.776,18.776,16,18.5,16z"/>
	<path d="M13.5,13c-0.276,0-0.5-0.224-0.5-0.5V11c0-1.103,0.897-2,2-2s2,0.897,2,2v1.5c0,0.276-0.224,0.5-0.5,0.5H13.5z M16,12v-1
		c0-0.551-0.448-1-1-1s-1,0.449-1,1v1H16z"/>
</g>
</svg>
