<?xml version="1.0" encoding="utf-8"?>
<!-- Generator: Adobe Illustrator 22.1.0, SVG Export Plug-In . SVG Version: 6.00 Build 0)  -->
<svg version="1.1" id="Layer_1" xmlns="http://www.w3.org/2000/svg" xmlns:xlink="http://www.w3.org/1999/xlink" x="0px" y="0px"
	 viewBox="0 0 24 24" style="enable-background:new 0 0 24 24;" xml:space="preserve">
<g>
	<title>gesture-swipe-vertical-down-two-fingers</title>
	<path d="M10.492,11c-0.276,0-0.5-0.224-0.5-0.5v-3c0-0.276,0.224-0.5,0.5-0.5h1.5c1.103,0,2,0.897,2,2s-0.897,2-2,2H10.492z
		 M11.992,10c0.552,0,1-0.449,1-1s-0.448-1-1-1h-1v2H11.992z"/>
	<path d="M2.492,20c-0.276,0-0.5-0.224-0.5-0.5s0.224-0.5,0.5-0.5h9.5c1.654,0,3-1.346,3-3s-1.346-3-3-3h-9.5
		c-0.276,0-0.5-0.224-0.5-0.5c0-0.276,0.224-0.5,0.5-0.5h9.5c1.654,0,3-1.346,3-3s-1.346-3-3-3h-9.5c-0.276,0-0.5-0.224-0.5-0.5
		S2.216,5,2.492,5h9.5c2.206,0,4,1.794,4,4c0,1.458-0.814,2.803-2.074,3.5c1.259,0.697,2.074,2.042,2.074,3.5c0,2.206-1.794,4-4,4
		H2.492z"/>
	<path d="M10.492,18c-0.276,0-0.5-0.224-0.5-0.5v-3c0-0.276,0.224-0.5,0.5-0.5h1.5c1.103,0,2,0.897,2,2s-0.897,2-2,2H10.492z
		 M11.992,17c0.552,0,1-0.448,1-1s-0.448-1-1-1h-1v2H11.992z"/>
	<path d="M16.492,24.004c-0.205,0-0.387-0.123-0.464-0.314l-1-2.5c-0.102-0.256,0.023-0.547,0.279-0.65
		c0.059-0.024,0.121-0.036,0.185-0.036c0.206,0,0.388,0.124,0.465,0.315l0.611,1.528c1.694-3.173,2.531-6.734,2.424-10.332
		c0-4.453-1.041-8.546-2.854-11.235c-0.154-0.229-0.094-0.54,0.135-0.694C16.355,0.029,16.452,0,16.552,0
		c0.166,0,0.321,0.082,0.415,0.22c1.923,2.851,3.026,7.145,3.026,11.78c0.112,3.769-0.77,7.507-2.554,10.839l1.972-0.329
		c0.027-0.005,0.055-0.007,0.083-0.007c0.245,0,0.451,0.176,0.492,0.418c0.022,0.132-0.009,0.264-0.086,0.373
		s-0.193,0.181-0.325,0.203l-3,0.5C16.546,24.002,16.519,24.004,16.492,24.004z"/>
</g>
</svg>
