<?xml version="1.0" encoding="utf-8"?>
<!-- Generator: Adobe Illustrator 22.1.0, SVG Export Plug-In . SVG Version: 6.00 Build 0)  -->
<svg version="1.1" id="Layer_1" xmlns="http://www.w3.org/2000/svg" xmlns:xlink="http://www.w3.org/1999/xlink" x="0px" y="0px"
	 viewBox="0 0 24 24" style="enable-background:new 0 0 24 24;" xml:space="preserve">
<g>
	<title>gesture-tap-1</title>
	<path d="M15.535,22.014c-0.276,0-0.5-0.224-0.5-0.5v-9.5c0-1.654-1.346-3-3-3s-3,1.346-3,3v9.5c0,0.276-0.224,0.5-0.5,0.5
		s-0.5-0.224-0.5-0.5v-9.5c0-2.206,1.794-4,4-4c2.206,0,4,1.794,4,4v9.5C16.035,21.79,15.81,22.014,15.535,22.014z"/>
	<path d="M17.536,15.974c-0.094,0-0.186-0.026-0.266-0.077c-0.234-0.147-0.304-0.456-0.157-0.689
		c1.215-1.934,1.219-4.435,0.009-6.372c-0.849-1.359-2.177-2.306-3.738-2.667c-0.449-0.104-0.907-0.156-1.363-0.156
		c-1.115,0-2.21,0.316-3.167,0.914C7.497,7.775,6.551,9.102,6.19,10.666c-0.361,1.563-0.093,3.172,0.755,4.529
		c0.071,0.114,0.093,0.248,0.063,0.378c-0.03,0.13-0.109,0.241-0.222,0.312c-0.079,0.05-0.17,0.076-0.264,0.076
		c-0.173,0-0.332-0.088-0.424-0.235c-2.045-3.274-1.046-7.601,2.228-9.646c1.116-0.697,2.394-1.066,3.696-1.066
		c0.531,0,1.065,0.061,1.588,0.182c1.822,0.421,3.371,1.526,4.361,3.112c1.412,2.26,1.408,5.178-0.01,7.434
		C17.867,15.887,17.709,15.974,17.536,15.974z"/>
	<path d="M5.035,18.94c-0.14,0-0.274-0.059-0.369-0.162c-3.729-4.061-3.459-10.4,0.602-14.129c1.847-1.696,4.248-2.63,6.76-2.63
		c2.797,0,5.483,1.178,7.369,3.232c3.527,3.841,3.539,9.644,0.027,13.498c-0.094,0.104-0.229,0.163-0.37,0.163l0,0
		c-0.125,0-0.244-0.046-0.337-0.13c-0.099-0.09-0.157-0.213-0.163-0.347c-0.006-0.134,0.04-0.261,0.13-0.36
		c3.161-3.469,3.15-8.691-0.024-12.148c-1.698-1.848-4.115-2.908-6.633-2.908c-2.261,0-4.422,0.841-6.084,2.367
		c-3.655,3.357-3.898,9.061-0.542,12.716c0.09,0.098,0.137,0.226,0.131,0.36c-0.006,0.134-0.063,0.257-0.161,0.347
		C5.28,18.893,5.16,18.94,5.035,18.94z"/>
	<path d="M10.535,14.014c-0.276,0-0.5-0.224-0.5-0.5v-1.5c0-1.103,0.897-2,2-2c1.103,0,2,0.897,2,2v1.5c0,0.276-0.224,0.5-0.5,0.5
		H10.535z M13.035,13.014v-1c0-0.551-0.449-1-1-1s-1,0.449-1,1v1H13.035z"/>
</g>
</svg>
