<?xml version="1.0" encoding="utf-8"?>
<!-- Generator: Adobe Illustrator 22.1.0, SVG Export Plug-In . SVG Version: 6.00 Build 0)  -->
<svg version="1.1" id="Layer_1" xmlns="http://www.w3.org/2000/svg" xmlns:xlink="http://www.w3.org/1999/xlink" x="0px" y="0px"
	 viewBox="0 0 24 24" style="enable-background:new 0 0 24 24;" xml:space="preserve">
<g>
	<title>gesture-tap-expand-all-direction</title>
	<path d="M11.502,5.001c-0.276,0-0.5-0.224-0.5-0.5v-2.96l-1.688,1.35c-0.088,0.071-0.199,0.11-0.312,0.11
		c-0.153,0-0.295-0.068-0.391-0.188C8.528,2.709,8.49,2.578,8.505,2.446S8.585,2.194,8.69,2.11l2.5-2
		c0.03-0.024,0.058-0.037,0.073-0.044c0.018-0.011,0.037-0.022,0.06-0.03c0.053-0.021,0.107-0.032,0.161-0.034
		c0.006,0,0.013-0.001,0.019-0.001c0.007,0,0.014,0,0.021,0.001c0.054,0.003,0.107,0.014,0.159,0.034
		c0.014,0.005,0.047,0.023,0.06,0.03c0.015,0.007,0.043,0.021,0.073,0.045l2.5,2c0.215,0.172,0.25,0.487,0.078,0.703
		c-0.096,0.119-0.238,0.188-0.391,0.188c-0.113,0-0.224-0.039-0.312-0.109l-1.688-1.35v2.96C12.002,4.777,11.778,5.001,11.502,5.001
		z"/>
	<path d="M11.502,24.001c-0.06,0-0.12-0.012-0.18-0.035c-0.014-0.006-0.047-0.022-0.059-0.03c-0.015-0.007-0.042-0.02-0.072-0.044
		l-2.5-2c-0.215-0.173-0.25-0.488-0.078-0.703c0.096-0.119,0.238-0.188,0.391-0.188c0.113,0,0.224,0.039,0.312,0.11l1.688,1.35
		v-2.96c0-0.276,0.224-0.5,0.5-0.5s0.5,0.224,0.5,0.5v2.96l1.688-1.35c0.089-0.071,0.199-0.11,0.312-0.11
		c0.153,0,0.295,0.068,0.391,0.188c0.172,0.216,0.137,0.531-0.078,0.703l-2.5,2c-0.03,0.024-0.058,0.037-0.073,0.044
		c-0.013,0.008-0.046,0.025-0.06,0.03C11.622,23.989,11.562,24.001,11.502,24.001z"/>
	<path d="M2.502,14.501c-0.153,0-0.295-0.068-0.391-0.188l-2-2.5c-0.024-0.03-0.037-0.057-0.044-0.072
		c-0.008-0.013-0.025-0.047-0.031-0.061c-0.044-0.115-0.044-0.243,0-0.358c0.005-0.014,0.023-0.048,0.031-0.061
		c0.007-0.014,0.02-0.042,0.044-0.071l2-2.5c0.095-0.119,0.238-0.188,0.391-0.188c0.113,0,0.224,0.039,0.312,0.11
		c0.104,0.083,0.17,0.202,0.185,0.335S2.976,9.209,2.892,9.313l-1.35,1.688h1.96c0.276,0,0.5,0.224,0.5,0.5s-0.224,0.5-0.5,0.5
		h-1.96l1.35,1.688c0.172,0.215,0.137,0.531-0.078,0.703C2.726,14.462,2.615,14.501,2.502,14.501z"/>
	<path d="M21.502,14.501c-0.113,0-0.224-0.039-0.312-0.109c-0.215-0.173-0.25-0.488-0.078-0.703l1.35-1.688h-1.96
		c-0.276,0-0.5-0.224-0.5-0.5s0.224-0.5,0.5-0.5h1.96l-1.35-1.688c-0.172-0.215-0.137-0.53,0.078-0.703
		c0.089-0.071,0.199-0.11,0.312-0.11c0.153,0,0.295,0.068,0.391,0.188l2,2.5c0.024,0.03,0.038,0.059,0.045,0.074
		c0.01,0.016,0.02,0.035,0.029,0.056c0.046,0.118,0.046,0.246,0.001,0.362c-0.006,0.014-0.023,0.049-0.031,0.062
		c-0.005,0.012-0.019,0.041-0.044,0.072l-1.999,2.499C21.796,14.433,21.654,14.501,21.502,14.501z"/>
	<path d="M17.505,16.96c-0.094,0-0.185-0.026-0.265-0.076c-0.114-0.072-0.192-0.182-0.222-0.313c-0.03-0.13-0.007-0.264,0.064-0.377
		c1.215-1.934,1.218-4.435,0.008-6.372c-1.103-1.765-3.009-2.818-5.098-2.818c-1.121,0-2.217,0.315-3.17,0.91
		c-1.359,0.849-2.306,2.177-2.666,3.739c-0.36,1.562-0.091,3.17,0.758,4.529c0.071,0.114,0.093,0.248,0.063,0.378
		s-0.109,0.241-0.223,0.312c-0.078,0.05-0.17,0.076-0.264,0.076c-0.173,0-0.332-0.088-0.424-0.235
		C5.074,15.126,4.76,13.25,5.18,11.428c0.42-1.822,1.525-3.371,3.111-4.362c1.112-0.695,2.391-1.062,3.699-1.062
		c2.437,0,4.66,1.229,5.947,3.289c1.412,2.26,1.409,5.177-0.009,7.434C17.836,16.873,17.678,16.96,17.505,16.96z"/>
	<path d="M11,18c-0.149,0-0.289-0.065-0.384-0.18l-2.5-3c-0.011-0.013-0.022-0.028-0.032-0.043c-0.499-0.749-0.365-1.282-0.24-1.533
		c0.188-0.379,0.574-0.614,1.059-0.643c0.032-0.002,0.066-0.003,0.1-0.003c0.332,0,0.679,0.097,0.996,0.274V9.5
		C10,8.673,10.673,8,11.5,8S13,8.673,13,9.5v1.677c0.299,0.134,0.578,0.255,0.835,0.367c1.845,0.802,2.959,1.287,2.619,2.759
		c-0.114,0.491-0.599,2.096-0.86,2.958l-0.116,0.384C15.416,17.854,15.219,18,15,18H11z M14.629,17l0.008-0.027
		c0.239-0.792,0.737-2.437,0.843-2.896c0.134-0.581-0.114-0.777-2.043-1.617c-0.344-0.149-0.725-0.315-1.143-0.505
		C12.115,11.874,12,11.696,12,11.5v-2C12,9.224,11.776,9,11.5,9S11,9.224,11,9.5v4.52c0,0.219-0.147,0.416-0.357,0.479
		c-0.047,0.014-0.095,0.021-0.143,0.021c-0.169,0-0.325-0.084-0.418-0.225c-0.338-0.513-0.782-0.697-1.084-0.697l-0.036,0.001
		c-0.126,0.008-0.203,0.051-0.222,0.09c-0.026,0.052-0.024,0.225,0.162,0.512L11.234,17H14.629z"/>
</g>
</svg>
