<?xml version="1.0" encoding="utf-8"?>
<!-- Generator: Adobe Illustrator 22.1.0, SVG Export Plug-In . SVG Version: 6.00 Build 0)  -->
<svg version="1.1" id="Layer_1" xmlns="http://www.w3.org/2000/svg" xmlns:xlink="http://www.w3.org/1999/xlink" x="0px" y="0px"
	 viewBox="0 0 24 24" style="enable-background:new 0 0 24 24;" xml:space="preserve">
<g>
	<title>gesture-swipe-horizontal-right-1</title>
	<path d="M20.492,12.008c-0.216,0-0.406-0.137-0.474-0.342c-0.087-0.261,0.054-0.545,0.316-0.633l2.526-0.842l-0.842-2.526
		c-0.087-0.261,0.054-0.545,0.316-0.633c0.052-0.017,0.105-0.026,0.159-0.026c0.215,0,0.405,0.137,0.473,0.342l1,3
		c0.087,0.261-0.054,0.545-0.316,0.633l-3,1C20.599,11.999,20.546,12.008,20.492,12.008z"/>
	<path d="M0.493,11.485c-0.142,0-0.277-0.06-0.372-0.165c-0.184-0.205-0.168-0.521,0.037-0.706c1.747-1.575,3.895-2.616,6.214-3.013
		C6.4,7.596,6.428,7.594,6.455,7.594c0.245,0,0.452,0.175,0.493,0.416C6.995,8.281,6.811,8.54,6.54,8.587
		c-2.131,0.364-4.107,1.322-5.713,2.769C0.735,11.439,0.616,11.485,0.493,11.485z"/>
	<path d="M18.492,11.005c-0.216,0-0.406-0.137-0.474-0.342c-0.087-0.261,0.054-0.545,0.316-0.633l1.797-0.599
		c-0.885-0.364-1.802-0.647-2.734-0.842c-0.131-0.027-0.243-0.104-0.316-0.216c-0.073-0.112-0.098-0.245-0.071-0.376
		c0.048-0.23,0.254-0.397,0.49-0.397c0.034,0,0.068,0.004,0.102,0.01c1.042,0.219,2.065,0.539,3.049,0.954l-0.634-1.902
		c-0.087-0.261,0.054-0.545,0.316-0.633c0.052-0.017,0.105-0.026,0.159-0.026c0.215,0,0.405,0.137,0.474,0.342l1,3
		c0.021,0.066,0.029,0.132,0.024,0.197c-0.005,0.064-0.022,0.127-0.052,0.186c-0.025,0.05-0.059,0.094-0.103,0.137
		c-0.007,0.007-0.026,0.022-0.033,0.028c-0.035,0.027-0.071,0.049-0.109,0.066c-0.015,0.008-0.03,0.015-0.044,0.019l-2.998,0.999
		C18.599,10.996,18.546,11.005,18.492,11.005z"/>
	<path d="M15.492,19.005c-0.276,0-0.5-0.224-0.5-0.5v-9.5c0-1.654-1.346-3-3-3c-1.654,0-3,1.346-3,3v9.5c0,0.276-0.224,0.5-0.5,0.5
		s-0.5-0.224-0.5-0.5v-9.5c0-2.206,1.794-4,4-4s4,1.794,4,4v9.5C15.992,18.781,15.768,19.005,15.492,19.005z"/>
	<path d="M10.492,11.005c-0.276,0-0.5-0.224-0.5-0.5v-1.5c0-1.103,0.897-2,2-2s2,0.897,2,2v1.5c0,0.276-0.224,0.5-0.5,0.5H10.492z
		 M12.992,10.005v-1c0-0.551-0.448-1-1-1c-0.551,0-1,0.449-1,1v1H12.992z"/>
</g>
</svg>
