<?xml version="1.0" encoding="utf-8"?>
<!-- Generator: Adobe Illustrator 22.1.0, SVG Export Plug-In . SVG Version: 6.00 Build 0)  -->
<svg version="1.1" id="Layer_1" xmlns="http://www.w3.org/2000/svg" xmlns:xlink="http://www.w3.org/1999/xlink" x="0px" y="0px"
	 viewBox="0 0 24 24" style="enable-background:new 0 0 24 24;" xml:space="preserve">
<g>
	<title>gesture-two-finger-zoom-out</title>
	<path d="M21.005,9.003c-0.276,0-0.5-0.224-0.5-0.5s0.224-0.5,0.5-0.5h1.355c-1.483-1.341-3.825-2.264-6.403-2.505
		c-0.274-0.026-0.477-0.27-0.452-0.544C15.529,4.7,15.748,4.5,16.004,4.5c0.008,0,0.037,0.001,0.044,0.002
		c2.815,0.263,5.31,1.249,6.957,2.734V6.003c0-0.276,0.224-0.5,0.5-0.5s0.5,0.224,0.5,0.5v2.5c0,0.02-0.004,0.049-0.009,0.071
		c-0.001,0.009-0.003,0.016-0.004,0.022C23.98,8.652,23.963,8.7,23.939,8.744c-0.005,0.008-0.013,0.022-0.019,0.03
		c-0.02,0.034-0.055,0.075-0.098,0.111c-0.003,0.003-0.005,0.005-0.008,0.007c-0.01,0.008-0.02,0.016-0.032,0.022
		c-0.086,0.059-0.179,0.089-0.278,0.089H21.005z"/>
	<path d="M0.505,9.003c-0.053,0-0.095-0.012-0.121-0.019C0.377,8.983,0.359,8.979,0.34,8.973C0.302,8.959,0.273,8.943,0.253,8.93
		C0.24,8.924,0.22,8.914,0.2,8.898C0.188,8.889,0.175,8.877,0.164,8.865C0.139,8.84,0.12,8.817,0.105,8.796
		c-0.02-0.026-0.036-0.05-0.048-0.075C0.046,8.698,0.039,8.677,0.032,8.656c-0.009-0.028-0.02-0.067-0.024-0.113
		c-0.002-0.013-0.003-0.027-0.003-0.04v-2.5c0-0.276,0.224-0.5,0.5-0.5s0.5,0.224,0.5,0.5v1.231
		c1.654-1.491,4.149-2.477,6.953-2.732c0.008-0.001,0.034-0.002,0.041-0.002c0.262,0,0.478,0.195,0.502,0.454
		C8.526,5.23,8.323,5.474,8.048,5.498C5.425,5.736,3.129,6.64,1.641,8.003h1.364c0.276,0,0.5,0.224,0.5,0.5s-0.224,0.5-0.5,0.5
		H0.505z"/>
	<path d="M9.349,23.003c-0.168,0-0.323-0.083-0.416-0.223l-3.061-4.59c-0.543-0.83-0.361-1.413-0.204-1.686
		c0.234-0.408,0.705-0.652,1.259-0.652c0.037,0,0.075,0.001,0.113,0.003c0.682,0.034,1.384,0.395,1.965,0.992l-0.002-6.365
		c0-0.827,0.673-1.5,1.5-1.5s1.5,0.673,1.5,1.5v4.362l0.163,0.04l1.36-4.367c0.191-0.598,0.74-0.998,1.365-0.998
		c0.147,0,0.293,0.023,0.434,0.068c0.685,0.219,1.102,0.917,0.97,1.624l-1.199,4.488c0.874,0.386,2.031,0.924,1.706,2.337
		c-0.109,0.471-0.616,3.271-0.845,4.553c-0.042,0.239-0.25,0.412-0.492,0.412H9.349z M15.045,22.003
		c0.223-1.239,0.668-3.698,0.781-4.189c0.127-0.553-0.137-0.757-1.179-1.218c-0.12-0.053-0.238-0.105-0.355-0.159
		c-0.221-0.102-0.336-0.347-0.273-0.583l1.3-4.862c0.032-0.18-0.098-0.386-0.3-0.451c-0.043-0.014-0.088-0.021-0.132-0.021
		c-0.068,0-0.134,0.016-0.196,0.048c-0.102,0.052-0.177,0.142-0.213,0.251l-1.499,4.812c-0.065,0.21-0.257,0.352-0.477,0.352
		c-0.041,0-0.082-0.005-0.122-0.015l-0.998-0.246c-0.224-0.055-0.381-0.254-0.381-0.485v-4.754c0-0.276-0.224-0.5-0.5-0.5
		s-0.5,0.224-0.5,0.5l0.002,8.02c0,0.235-0.167,0.44-0.396,0.489C9.575,19,9.54,19.003,9.505,19.003
		c-0.197,0-0.376-0.116-0.456-0.296c-0.59-1.321-1.479-1.824-2.061-1.854c-0.022-0.001-0.042-0.002-0.061-0.002
		c-0.188,0-0.338,0.057-0.391,0.15c-0.053,0.093-0.04,0.315,0.171,0.638l2.91,4.364H15.045z"/>
</g>
</svg>
