<?xml version="1.0" encoding="utf-8"?>
<!-- Generator: Adobe Illustrator 22.1.0, SVG Export Plug-In . SVG Version: 6.00 Build 0)  -->
<svg version="1.1" id="Layer_1" xmlns="http://www.w3.org/2000/svg" xmlns:xlink="http://www.w3.org/1999/xlink" x="0px" y="0px"
	 viewBox="0 0 24 24" style="enable-background:new 0 0 24 24;" xml:space="preserve">
<g>
	<title>gesture-tap-swipe-horizontal</title>
	<path d="M2.49,14.51c-0.153,0-0.295-0.068-0.391-0.188l-2-2.5c-0.024-0.03-0.037-0.057-0.044-0.072
		c-0.008-0.013-0.025-0.047-0.031-0.061c-0.044-0.115-0.044-0.243,0-0.358c0.005-0.014,0.023-0.048,0.031-0.061
		c0.007-0.014,0.02-0.042,0.044-0.071l2-2.5C2.195,8.578,2.337,8.51,2.49,8.51c0.113,0,0.224,0.039,0.312,0.11
		c0.104,0.083,0.17,0.202,0.184,0.335S2.964,9.218,2.881,9.322L1.53,11.01h1.96c0.276,0,0.5,0.224,0.5,0.5s-0.224,0.5-0.5,0.5H1.53
		l1.35,1.688c0.172,0.215,0.137,0.531-0.078,0.703C2.714,14.471,2.603,14.51,2.49,14.51z"/>
	<path d="M21.49,14.51c-0.113,0-0.224-0.039-0.312-0.109c-0.215-0.173-0.25-0.488-0.078-0.703l1.35-1.688h-1.96
		c-0.276,0-0.5-0.224-0.5-0.5s0.224-0.5,0.5-0.5h1.96L21.1,9.322c-0.172-0.215-0.137-0.53,0.078-0.703
		c0.088-0.071,0.199-0.11,0.312-0.11c0.153,0,0.295,0.068,0.391,0.188l2,2.5c0.024,0.03,0.038,0.059,0.045,0.074
		c0.01,0.016,0.02,0.035,0.029,0.056C24,11.446,24,11.574,23.955,11.69c-0.006,0.014-0.023,0.049-0.031,0.062
		c-0.005,0.012-0.019,0.041-0.044,0.072l-1.999,2.499C21.784,14.442,21.642,14.51,21.49,14.51z"/>
	<path d="M17.494,15.97c-0.094,0-0.186-0.026-0.266-0.077c-0.113-0.071-0.192-0.182-0.222-0.312c-0.03-0.13-0.007-0.264,0.064-0.377
		c1.215-1.934,1.219-4.435,0.008-6.372c-1.103-1.765-3.009-2.819-5.099-2.819c-1.12,0-2.216,0.315-3.169,0.91
		c-2.806,1.753-3.662,5.462-1.909,8.268c0.071,0.114,0.093,0.248,0.063,0.378c-0.03,0.13-0.109,0.241-0.222,0.312
		c-0.079,0.05-0.17,0.076-0.264,0.076c-0.173,0-0.332-0.088-0.424-0.235c-0.991-1.586-1.305-3.463-0.884-5.285
		c0.421-1.822,1.526-3.371,3.111-4.362c1.112-0.695,2.391-1.062,3.698-1.062c2.437,0,4.66,1.229,5.947,3.289
		c1.412,2.26,1.409,5.177-0.009,7.434C17.825,15.883,17.667,15.97,17.494,15.97z"/>
	<path d="M15.49,22.01c-0.276,0-0.5-0.224-0.5-0.5v-9.5c0-1.654-1.346-3-3-3c-1.654,0-3,1.346-3,3v9.5c0,0.276-0.224,0.5-0.5,0.5
		s-0.5-0.224-0.5-0.5v-9.5c0-2.206,1.794-4,4-4s4,1.794,4,4v9.5C15.99,21.786,15.766,22.01,15.49,22.01z"/>
	<path d="M10.49,14.01c-0.276,0-0.5-0.224-0.5-0.5v-1.5c0-1.103,0.897-2,2-2s2,0.897,2,2v1.5c0,0.276-0.224,0.5-0.5,0.5H10.49z
		 M12.99,13.01v-1c0-0.551-0.448-1-1-1c-0.551,0-1,0.449-1,1v1H12.99z"/>
</g>
</svg>
