<?xml version="1.0" encoding="utf-8"?>
<!-- Generator: Adobe Illustrator 22.1.0, SVG Export Plug-In . SVG Version: 6.00 Build 0)  -->
<svg version="1.1" id="Layer_1" xmlns="http://www.w3.org/2000/svg" xmlns:xlink="http://www.w3.org/1999/xlink" x="0px" y="0px"
	 viewBox="0 0 24 24" style="enable-background:new 0 0 24 24;" xml:space="preserve">
<g>
	<title>gesture-tap-two-fingers-clock</title>
	<path d="M6.493,15.008c-0.276,0-0.5-0.224-0.5-0.5v-1.5c0-1.103,0.897-2,2-2s2,0.897,2,2v1.5c0,0.276-0.224,0.5-0.5,0.5H6.493z
		 M8.993,14.008v-1c0-0.552-0.449-1-1-1s-1,0.448-1,1v1H8.993z"/>
	<path d="M18.493,22.008c-0.276,0-0.5-0.224-0.5-0.5v-9.5c-0.001-1.652-1.346-2.997-2.999-2.998c-1.655,0-3,1.345-3.001,2.998v9.5
		c0,0.276-0.224,0.5-0.5,0.5s-0.5-0.224-0.5-0.5v-8.5c-0.001-1.653-1.346-2.998-2.999-2.999c-1.655,0-3,1.345-3.001,2.999v8.5
		c0,0.276-0.224,0.5-0.5,0.5s-0.5-0.224-0.5-0.5v-8.5c0-1.069,0.417-2.073,1.172-2.828c0.755-0.755,1.76-1.17,2.827-1.17
		c1.295,0,2.488,0.621,3.235,1.653c0.561-1.566,2.062-2.652,3.765-2.652c2.205,0.001,3.999,1.795,4,3.998v9.5
		C18.993,21.783,18.769,22.008,18.493,22.008z"/>
	<path d="M13.493,14.008c-0.276,0-0.5-0.224-0.5-0.5v-1.5c0-1.103,0.897-2,2-2s2,0.897,2,2v1.5c0,0.276-0.224,0.5-0.5,0.5H13.493z
		 M15.993,13.008v-1c0-0.551-0.448-1-1-1s-1,0.449-1,1v1H15.993z"/>
	<path d="M17.493,5.008c-0.276,0-0.5-0.224-0.5-0.5v-2c0-0.276,0.224-0.5,0.5-0.5s0.5,0.224,0.5,0.5v1.5h0.5
		c0.276,0,0.5,0.224,0.5,0.5s-0.224,0.5-0.5,0.5H17.493z"/>
	<path d="M17.493,7.508c-1.93,0-3.5-1.57-3.5-3.5s1.57-3.5,3.5-3.5s3.5,1.57,3.5,3.5S19.423,7.508,17.493,7.508z M17.493,1.508
		c-1.378,0-2.5,1.121-2.5,2.5s1.122,2.5,2.5,2.5s2.5-1.121,2.5-2.5S18.872,1.508,17.493,1.508z"/>
	<path d="M2.544,12.049c-0.024,0-0.047-0.001-0.071-0.005C2.2,12.005,2.01,11.752,2.048,11.479c0.215-1.522,1.01-2.87,2.239-3.794
		c1.006-0.757,2.199-1.158,3.45-1.158c0.271,0,0.545,0.019,0.816,0.057c0.573,0.081,1.129,0.247,1.652,0.494
		c0.121,0.057,0.212,0.158,0.257,0.283c0.045,0.126,0.039,0.262-0.018,0.382c-0.082,0.174-0.26,0.286-0.452,0.286
		c-0.074,0-0.146-0.016-0.213-0.048C9.346,7.779,8.886,7.642,8.413,7.575C8.189,7.543,7.962,7.527,7.737,7.527
		c-1.032,0-2.017,0.331-2.849,0.957c-1.015,0.764-1.672,1.877-1.85,3.135C3.004,11.864,2.791,12.049,2.544,12.049z"/>
	<path d="M20.292,13.508c-0.046,0-0.091-0.006-0.135-0.019c-0.265-0.074-0.421-0.35-0.347-0.616c0.44-1.574,0.082-3.266-0.958-4.527
		c-0.175-0.213-0.145-0.528,0.067-0.704c0.09-0.074,0.203-0.114,0.318-0.114c0.15,0,0.291,0.066,0.386,0.182
		c1.248,1.513,1.677,3.544,1.149,5.433C20.713,13.357,20.515,13.508,20.292,13.508z"/>
	<path d="M12.006,7.408c-0.17,0-0.327-0.085-0.42-0.228c-0.15-0.231-0.084-0.542,0.147-0.692c0.506-0.328,1.056-0.577,1.636-0.741
		c0.044-0.012,0.09-0.019,0.135-0.019c0.223,0,0.421,0.15,0.482,0.364c0.075,0.266-0.08,0.543-0.345,0.617
		c-0.483,0.136-0.942,0.344-1.364,0.617C12.196,7.38,12.102,7.408,12.006,7.408z"/>
</g>
</svg>
