<?xml version="1.0" encoding="utf-8"?>
<!-- Generator: Adobe Illustrator 22.1.0, SVG Export Plug-In . SVG Version: 6.00 Build 0)  -->
<svg version="1.1" id="Layer_1" xmlns="http://www.w3.org/2000/svg" xmlns:xlink="http://www.w3.org/1999/xlink" x="0px" y="0px"
	 viewBox="0 0 24 24" style="enable-background:new 0 0 24 24;" xml:space="preserve">
<g>
	<title>gesture-tap-horizontal-expand</title>
	<path d="M2.501,14.499c-0.153,0-0.295-0.069-0.391-0.188l-2-2.5c-0.024-0.03-0.037-0.057-0.044-0.072
		c-0.008-0.013-0.025-0.046-0.031-0.06c-0.045-0.116-0.045-0.244,0-0.359c0.005-0.014,0.023-0.048,0.031-0.061
		c0.007-0.014,0.02-0.042,0.044-0.071l2-2.5c0.095-0.119,0.237-0.188,0.391-0.188c0.113,0,0.224,0.039,0.312,0.11
		c0.104,0.083,0.17,0.202,0.184,0.335S2.975,9.207,2.891,9.311l-1.35,1.688h1.96c0.276,0,0.5,0.224,0.5,0.5s-0.224,0.5-0.5,0.5
		h-1.96l1.35,1.688c0.083,0.104,0.121,0.235,0.107,0.368s-0.08,0.252-0.185,0.335C2.725,14.46,2.614,14.499,2.501,14.499z"/>
	<path d="M21.501,14.499c-0.113,0-0.224-0.039-0.312-0.11c-0.215-0.172-0.25-0.488-0.078-0.703l1.35-1.688h-1.96
		c-0.276,0-0.5-0.224-0.5-0.5s0.224-0.5,0.5-0.5h1.96l-1.35-1.688c-0.172-0.215-0.137-0.53,0.078-0.703
		c0.089-0.071,0.199-0.11,0.312-0.11c0.153,0,0.295,0.068,0.391,0.188l2,2.5c0.024,0.031,0.037,0.058,0.044,0.073
		c0.01,0.017,0.021,0.036,0.029,0.057c0.046,0.118,0.046,0.246,0.001,0.362c-0.006,0.014-0.023,0.049-0.031,0.062
		c-0.006,0.012-0.019,0.04-0.042,0.069l-2.001,2.502C21.796,14.431,21.653,14.499,21.501,14.499z"/>
	<path d="M17.5,15.958c-0.094,0-0.186-0.026-0.266-0.076c-0.113-0.071-0.192-0.182-0.222-0.312s-0.007-0.264,0.064-0.377
		c1.218-1.936,1.221-4.439,0.008-6.378c-0.85-1.359-2.178-2.305-3.74-2.664c-0.447-0.103-0.904-0.155-1.357-0.155
		c-1.117,0-2.214,0.317-3.172,0.916c-1.359,0.85-2.305,2.179-2.664,3.74c-0.36,1.562-0.089,3.17,0.761,4.529
		c0.071,0.113,0.093,0.247,0.063,0.377c-0.03,0.13-0.109,0.241-0.222,0.312c-0.079,0.05-0.171,0.076-0.265,0.076
		c-0.174,0-0.332-0.088-0.424-0.235c-0.992-1.585-1.307-3.461-0.888-5.283C5.596,8.605,6.7,7.055,8.285,6.063
		c1.117-0.699,2.396-1.068,3.7-1.068c0.529,0,1.062,0.061,1.583,0.181c1.823,0.42,3.372,1.524,4.364,3.109
		c1.415,2.261,1.412,5.182-0.009,7.44C17.831,15.871,17.673,15.958,17.5,15.958z"/>
	<path d="M10.344,23.999c-0.168,0-0.323-0.083-0.416-0.223l-3.06-4.589c-0.543-0.83-0.361-1.413-0.204-1.686
		c0.234-0.408,0.708-0.652,1.266-0.652c0.034,0,0.069,0.001,0.104,0.003c0.683,0.034,1.385,0.395,1.966,0.993L10,11.48
		c0-0.827,0.673-1.5,1.5-1.5s1.5,0.673,1.5,1.5v4.381l3.563,1.063c0.906,0.261,1.451,1.188,1.237,2.111
		c-0.077,0.334-0.346,1.781-0.799,4.301l-0.045,0.251c-0.043,0.239-0.25,0.411-0.492,0.411H10.344z M16.046,22.999
		c0.315-1.749,0.678-3.746,0.78-4.188c0.094-0.405-0.145-0.812-0.544-0.926l-3.925-1.171C12.147,16.65,12,16.453,12,16.234V11.48
		c0-0.276-0.224-0.5-0.5-0.5s-0.5,0.224-0.5,0.5l0.001,8.019c0,0.235-0.167,0.44-0.396,0.489c-0.033,0.007-0.069,0.011-0.105,0.011
		c-0.196,0-0.375-0.116-0.455-0.296c-0.59-1.321-1.479-1.823-2.06-1.853l-0.048-0.001c-0.197,0-0.352,0.057-0.404,0.149
		c-0.053,0.093-0.04,0.315,0.171,0.638l2.909,4.363H16.046z"/>
</g>
</svg>
