<?xml version="1.0" encoding="utf-8"?>
<!-- Generator: Adobe Illustrator 22.1.0, SVG Export Plug-In . SVG Version: 6.00 Build 0)  -->
<svg version="1.1" id="Layer_1" xmlns="http://www.w3.org/2000/svg" xmlns:xlink="http://www.w3.org/1999/xlink" x="0px" y="0px"
	 viewBox="0 0 24 24" style="enable-background:new 0 0 24 24;" xml:space="preserve">
<g>
	<title>gesture-swipe-vertical</title>
	<path d="M4.5,16.006c-0.276,0-0.5-0.224-0.5-0.5s0.224-0.5,0.5-0.5H14c1.654,0,3-1.346,3-3c0-1.654-1.346-3-3-3H4.5
		c-0.276,0-0.5-0.224-0.5-0.5s0.224-0.5,0.5-0.5H14c2.206,0,4,1.794,4,4s-1.794,4-4,4H4.5z"/>
	<path d="M13.498,6.006c-0.276,0-0.5-0.224-0.5-0.5v-3.96l-1.688,1.35c-0.088,0.071-0.199,0.109-0.312,0.109l0,0
		c-0.153,0-0.295-0.068-0.391-0.188c-0.083-0.104-0.121-0.235-0.106-0.368s0.08-0.252,0.185-0.335l2.5-2
		c0.03-0.024,0.058-0.037,0.073-0.045c0.017-0.01,0.037-0.021,0.059-0.03c0.053-0.021,0.107-0.032,0.161-0.034
		c0.006,0,0.013-0.001,0.019-0.001c0.007,0,0.014,0,0.021,0.001c0.054,0.003,0.106,0.014,0.158,0.034
		c0.014,0.005,0.048,0.023,0.061,0.031c0.015,0.007,0.043,0.021,0.073,0.045l2.5,2c0.215,0.172,0.25,0.487,0.078,0.703
		c-0.096,0.119-0.238,0.188-0.391,0.188c-0.113,0-0.224-0.039-0.312-0.109l-1.688-1.35v3.96C13.998,5.782,13.774,6.006,13.498,6.006
		z"/>
	<path d="M13.498,24.006c-0.06,0-0.121-0.012-0.18-0.035c-0.014-0.005-0.047-0.022-0.059-0.03c-0.014-0.007-0.042-0.02-0.071-0.043
		l-2.501-2.001c-0.215-0.173-0.25-0.488-0.078-0.703c0.096-0.119,0.238-0.188,0.391-0.188c0.113,0,0.224,0.039,0.312,0.11
		l1.688,1.35v-3.96c0-0.276,0.224-0.5,0.5-0.5s0.5,0.224,0.5,0.5v3.96l1.688-1.35c0.089-0.071,0.199-0.109,0.312-0.109
		c0.152,0,0.295,0.068,0.39,0.187c0.172,0.216,0.137,0.531-0.077,0.703l-2.5,2c-0.031,0.024-0.058,0.037-0.073,0.044
		c-0.013,0.008-0.045,0.025-0.06,0.03C13.619,23.994,13.558,24.006,13.498,24.006z"/>
	<path d="M12.5,14.006c-0.276,0-0.5-0.224-0.5-0.5v-3c0-0.276,0.224-0.5,0.5-0.5H14c1.103,0,2,0.897,2,2s-0.897,2-2,2H12.5z
		 M14,13.006c0.552,0,1-0.448,1-1c0-0.551-0.448-1-1-1h-1v2H14z"/>
</g>
</svg>
