<svg xmlns="http://www.w3.org/2000/svg" viewBox="0 0 24 24"><defs><style>.a{fill:none;stroke:currentColor;stroke-linecap:round;stroke-linejoin:round;stroke-width:1.5px;}</style></defs><title>touch-id</title><line class="a" x1="3" y1="14.25" x2="3" y2="23.25"/><path class="a" d="M16.478,2.144A8.311,8.311,0,0,0,11.888.75h0C7.37.75,3.613,4.453,3.072,9.2"/><path class="a" d="M21,23.25V10.375A10.187,10.187,0,0,0,20.023,6"/><path class="a" d="M18,15.75v-4.5c0-3.713-2.7-6.75-6-6.75h0c-3.3,0-6,3.037-6,6.75v12"/><line class="a" x1="18" y1="23.25" x2="18" y2="18.75"/><line class="a" x1="9" y1="17.25" x2="9" y2="23.25"/><path class="a" d="M15,23.25V12c0-2.063-1.35-3.75-3-3.75h0c-1.65,0-3,1.687-3,3.75v2.25"/><line class="a" x1="12" y1="20.25" x2="12" y2="23.25"/><line class="a" x1="12" y1="11.25" x2="12" y2="17.25"/></svg>