<svg xmlns="http://www.w3.org/2000/svg" viewBox="0 0 24 24"><defs><style>.a{fill:none;stroke:currentColor;stroke-linecap:round;stroke-linejoin:round;stroke-width:1.5px;}</style></defs><title>touch-id-smartphone-1</title><path class="a" d="M15,15v5.25a3,3,0,0,1-3,3H4.5a3,3,0,0,1-3-3V3.75a3,3,0,0,1,3-3H12"/><line class="a" x1="1.501" y1="18.75" x2="15.001" y2="18.75"/><path class="a" d="M22.5,12V6.75a4.477,4.477,0,0,0-.6-2.25"/><line class="a" x1="13.501" y1="6.75" x2="13.501" y2="12"/><path class="a" d="M19.472,2.5a4.507,4.507,0,0,0-5.2,1.738"/><path class="a" d="M16.5,7.5V6.75a1.5,1.5,0,0,1,3,0V12"/><line class="a" x1="16.501" y1="10.5" x2="16.501" y2="12"/></svg>