<svg xmlns="http://www.w3.org/2000/svg" viewBox="0 0 24 24"><title>hierarchy-8</title><path d="M20.5,15.5h-.038a.5.5,0,0,1-.451-.247L15.154,7a.5.5,0,0,1-.018-.476A3.41,3.41,0,0,0,15.5,5a3.5,3.5,0,0,0-7,0,3.41,3.41,0,0,0,.364,1.52A.5.5,0,0,1,8.846,7L3.988,15.253a.5.5,0,0,1-.45.247H3.5a3.5,3.5,0,1,0,3.137,5.03.5.5,0,0,1,.449-.28h9.828a.5.5,0,0,1,.449.28A3.5,3.5,0,1,0,20.5,15.5ZM7.085,17.749a.5.5,0,0,1-.448-.277A3.37,3.37,0,0,0,6.28,16.9a.5.5,0,0,1-.034-.558l4.525-7.693a.5.5,0,0,1,.541-.235,2.962,2.962,0,0,0,1.376,0,.5.5,0,0,1,.541.235l4.524,7.691a.5.5,0,0,1-.034.558,3.48,3.48,0,0,0-.356.569.5.5,0,0,1-.448.278Z"/></svg>