<svg xmlns="http://www.w3.org/2000/svg" viewBox="0 0 24 24"><title>hierarchy-5</title><path d="M24,19.5A1.5,1.5,0,0,0,22.5,18h-.75a.25.25,0,0,1-.25-.25V12.5a2,2,0,0,0-2-2H13.25a.25.25,0,0,1-.25-.25v-5A.25.25,0,0,1,13.25,5H18.5A1.5,1.5,0,0,0,20,3.5v-2A1.5,1.5,0,0,0,18.5,0H5.5A1.5,1.5,0,0,0,4,1.5v2A1.5,1.5,0,0,0,5.5,5h5.25a.25.25,0,0,1,.25.25v5a.25.25,0,0,1-.25.25H4.5a2,2,0,0,0-2,2v5.25a.25.25,0,0,1-.25.25H1.5A1.5,1.5,0,0,0,0,19.5v3A1.5,1.5,0,0,0,1.5,24h3A1.5,1.5,0,0,0,6,22.5v-3a1.5,1.5,0,0,0-1.286-1.485.25.25,0,0,1-.214-.247V12.749a.25.25,0,0,1,.25-.25h6a.25.25,0,0,1,.25.25v5a.25.25,0,0,1-.25.25H10.5A1.5,1.5,0,0,0,9,19.5v3A1.5,1.5,0,0,0,10.5,24h3A1.5,1.5,0,0,0,15,22.5v-3A1.5,1.5,0,0,0,13.5,18h-.25a.25.25,0,0,1-.25-.25v-5a.25.25,0,0,1,.25-.25h6a.25.25,0,0,1,.25.25v5.018a.25.25,0,0,1-.214.247A1.5,1.5,0,0,0,18,19.5v3A1.5,1.5,0,0,0,19.5,24h3A1.5,1.5,0,0,0,24,22.5Z"/></svg>