<svg xmlns="http://www.w3.org/2000/svg" viewBox="0 0 24 24"><title>retouch-landscape</title><path d="M10.907,14.113,9.523,16.99a.249.249,0,0,1-.407.063l-.887-.945a1.091,1.091,0,0,0-1.838.138L4.4,19.488a.5.5,0,0,0,.426.762h9.346a.5.5,0,0,0,.466-.683L12.52,14.16A.83.83,0,0,0,10.907,14.113Z"/><path d="M18,12.5a1,1,0,0,0-1,1v8a.5.5,0,0,1-.5.5H2.5a.5.5,0,0,1-.5-.5V7.5A.5.5,0,0,1,2.5,7h4a1,1,0,0,0,0-2H2A2,2,0,0,0,0,7V22a2,2,0,0,0,2,2H17a2,2,0,0,0,2-2V13.5A1,1,0,0,0,18,12.5Z"/><circle cx="6.75" cy="11.75" r="1.75"/><path d="M23.707,14.949a1,1,0,0,0,0-1.414L14.774,4.6A1,1,0,0,0,13.36,6.017l8.933,8.932a1,1,0,0,0,1.414,0Z"/><path d="M11.623,3.925a.75.75,0,0,0,1.061-1.06L11.27,1.451a.75.75,0,1,0-1.061,1.06Z"/><path d="M14.263,3.447a.755.755,0,0,0,.882-.59L15.534.9A.75.75,0,0,0,14.063.6l-.389,1.962A.749.749,0,0,0,14.263,3.447Z"/><path d="M15.944,3.514A.75.75,0,1,0,16.519,4.9l1.847-.765a.75.75,0,0,0-.574-1.386Z"/><path d="M9.654,6.777l1.962-.391a.75.75,0,1,0-.293-1.471l-1.962.391a.749.749,0,0,0-.589.881A.758.758,0,0,0,9.654,6.777Z"/><path d="M13.252,6.78a.752.752,0,0,0-.981.406l-.764,1.847a.75.75,0,1,0,1.386.574l.764-1.847A.749.749,0,0,0,13.252,6.78Z"/></svg>