<svg xmlns="http://www.w3.org/2000/svg" viewBox="0 0 24 24"><title>retouch-smile</title><path d="M12,0A12,12,0,1,0,24,12,12.013,12.013,0,0,0,12,0Zm0,22.041A10.041,10.041,0,1,1,22.041,12,10.052,10.052,0,0,1,12,22.041Z"/><path d="M12,4.5A7.5,7.5,0,1,0,19.5,12,7.508,7.508,0,0,0,12,4.5ZM9.5,9.75a1,1,0,1,1-1,1A1,1,0,0,1,9.5,9.75Zm-.094,4.886a.75.75,0,0,1,1.02-.292,3.312,3.312,0,0,0,3.148,0,.75.75,0,1,1,.727,1.311,4.758,4.758,0,0,1-4.6,0A.75.75,0,0,1,9.406,14.636ZM14.5,11.75a1,1,0,1,1,1-1A1,1,0,0,1,14.5,11.75Z"/></svg>