<svg xmlns="http://www.w3.org/2000/svg" viewBox="0 0 24 24"><title>retouch-select</title><path d="M1,5A1,1,0,0,0,2,4V2.5A.5.5,0,0,1,2.5,2H4A1,1,0,0,0,4,0H2A2,2,0,0,0,0,2V4A1,1,0,0,0,1,5Z"/><path d="M19,1a1,1,0,0,0,1,1h1.5a.5.5,0,0,1,.5.5V4a1,1,0,0,0,2,0V2a2,2,0,0,0-2-2H20A1,1,0,0,0,19,1Z"/><path d="M4,22H2.5a.5.5,0,0,1-.5-.5V20a1,1,0,0,0-2,0v2a2,2,0,0,0,2,2H4a1,1,0,0,0,0-2Z"/><path d="M23,19a1,1,0,0,0-1,1v1.5a.5.5,0,0,1-.5.5H20a1,1,0,0,0,0,2h2a2,2,0,0,0,2-2V20A1,1,0,0,0,23,19Z"/><path d="M16.141,10.329A.074.074,0,0,0,16,10.35a2,2,0,0,1-2,1.9h-.042A2,2,0,0,1,12,10.268c-.017-1.929-.6-2.518-2.488-2.518H9.5a1.993,1.993,0,0,1-1.444-.617A.249.249,0,0,0,7.741,7.1,7,7,0,1,0,18.5,13a7.193,7.193,0,0,0-.045-.795.25.25,0,0,0-.222-.22A2.5,2.5,0,0,1,16.141,10.329Z"/><path d="M23.266,8.75C21.993,8.723,21.5,8.235,21.5,7.01V7a.749.749,0,0,0-.747-.752h0A.75.75,0,0,0,20,7h0c0,1.243-.5,1.734-1.761,1.752a.75.75,0,0,0,.011,1.5h.006c1.244,0,1.733.493,1.744,1.757a.75.75,0,0,0,.734.743h.016a.75.75,0,0,0,.749-.712c.064-1.274.594-1.8,1.748-1.788A.758.758,0,0,0,24,9.509.75.75,0,0,0,23.266,8.75Z"/><path d="M18.469,6.5c.01,0,.022,0,.031,0A.75.75,0,0,0,18.516,5c-2.611-.056-3.773-1.208-3.766-3.737V1.252A.749.749,0,0,0,14,.5h0a.75.75,0,0,0-.75.747h0C13.241,3.806,12.081,4.964,9.489,5A.75.75,0,0,0,9.5,6.5h.01c2.563,0,3.717,1.159,3.74,3.756a.75.75,0,0,0,.734.744H14a.75.75,0,0,0,.749-.712C14.88,7.669,16.027,6.5,18.469,6.5ZM12.93,5.939a.25.25,0,0,1,0-.4,3.934,3.934,0,0,0,.866-.862.251.251,0,0,1,.4,0,3.956,3.956,0,0,0,.917.89.25.25,0,0,1,.007.4,4.085,4.085,0,0,0-.873.906.246.246,0,0,1-.205.106.25.25,0,0,1-.205-.107A3.929,3.929,0,0,0,12.93,5.939Z"/></svg>