<?xml version="1.0" encoding="utf-8"?>
<!-- Generator: Adobe Illustrator 22.1.0, SVG Export Plug-In . SVG Version: 6.00 Build 0)  -->
<svg version="1.1" id="Layer_1" xmlns="http://www.w3.org/2000/svg" xmlns:xlink="http://www.w3.org/1999/xlink" x="0px" y="0px"
	 viewBox="0 0 24 24" style="enable-background:new 0 0 24 24;" xml:space="preserve">
<title>cloud-flash</title>
<g>
	<path d="M19.385,16.397c-0.353,0-0.661-0.25-0.733-0.596c-0.041-0.196-0.004-0.396,0.106-0.564c0.11-0.168,0.278-0.283,0.474-0.324
		c1.078-0.227,2.003-0.86,2.605-1.782s0.809-2.025,0.582-3.103c-0.227-1.078-0.86-2.004-1.782-2.606
		c-0.674-0.44-1.45-0.672-2.245-0.672c-0.286,0-0.575,0.03-0.858,0.09c-0.539,0.113-1.043,0.33-1.497,0.643
		c-0.125,0.087-0.273,0.133-0.426,0.133c-0.098,0-0.194-0.019-0.285-0.056c-0.236-0.097-0.405-0.305-0.452-0.555
		c-0.598-3.191-3.388-5.506-6.633-5.506c-0.415,0-0.834,0.039-1.246,0.116c-3.658,0.686-6.076,4.22-5.39,7.879
		c0.404,2.156,1.837,3.987,3.833,4.897c0.182,0.083,0.321,0.232,0.391,0.42c0.07,0.188,0.063,0.392-0.02,0.574
		c-0.121,0.266-0.389,0.439-0.682,0.439c-0.108,0-0.212-0.023-0.311-0.068c-2.44-1.113-4.191-3.35-4.685-5.986
		c-0.406-2.163,0.057-4.356,1.303-6.177c1.246-1.821,3.123-3.047,5.285-3.452c0.503-0.094,1.016-0.142,1.524-0.142
		c3.605,0,6.772,2.337,7.855,5.738c0.361-0.16,0.738-0.282,1.127-0.364c0.385-0.081,0.778-0.122,1.168-0.122
		c1.086,0,2.145,0.317,3.063,0.916c1.258,0.821,2.122,2.083,2.431,3.553c0.309,1.47,0.027,2.973-0.794,4.231
		s-2.083,2.122-3.553,2.431C19.492,16.391,19.439,16.397,19.385,16.397z"/>
	<path d="M11.25,24.001c-0.079,0-0.157-0.012-0.232-0.037c-0.309-0.1-0.518-0.387-0.518-0.713v-4.5H8.685
		c-0.278-0.002-0.546-0.078-0.78-0.221C7.563,18.32,7.324,17.99,7.23,17.601c-0.094-0.39-0.03-0.793,0.18-1.134
		c0.022-0.035,0.046-0.068,0.073-0.099l6.202-7.109c0.141-0.163,0.348-0.257,0.565-0.257c0.09,0,0.178,0.016,0.262,0.047
		C14.804,9.159,15,9.441,15,9.752v4.499h0.75c0.279,0,0.552,0.077,0.789,0.224c0.341,0.21,0.58,0.541,0.672,0.931
		c0.092,0.389,0.027,0.792-0.183,1.133c-0.011,0.018-0.021,0.033-0.032,0.048l-5.138,7.104C11.717,23.884,11.49,24.001,11.25,24.001
		z M11.25,17.251c0.414,0,0.75,0.336,0.75,0.75v2.933l3.748-5.183l-1.498,0c-0.414,0-0.75-0.336-0.75-0.75v-3.248l-4.797,5.499
		L11.25,17.251z"/>
</g>
</svg>
