<?xml version="1.0" encoding="utf-8"?>
<!-- Generator: Adobe Illustrator 22.1.0, SVG Export Plug-In . SVG Version: 6.00 Build 0)  -->
<svg version="1.1" id="Layer_1" xmlns="http://www.w3.org/2000/svg" xmlns:xlink="http://www.w3.org/1999/xlink" x="0px" y="0px"
	 viewBox="0 0 24 24" style="enable-background:new 0 0 24 24;" xml:space="preserve">
<title>cloud-smartphone-upload</title>
<g>
	<circle cx="19.5" cy="20.25" r="1.125"/>
	<path d="M8.25,21C7.009,21,6,19.991,6,18.75v-4.189l-1.72,1.72c-0.142,0.142-0.33,0.22-0.53,0.22s-0.389-0.078-0.53-0.22
		C3.078,16.139,3,15.95,3,15.75s0.078-0.389,0.22-0.53l3-3c0.07-0.07,0.153-0.125,0.246-0.164c0.008-0.003,0.017-0.007,0.027-0.01
		C6.577,12.016,6.663,12,6.75,12c0.088,0,0.175,0.016,0.26,0.047c0.008,0.002,0.015,0.005,0.022,0.008
		c0.096,0.04,0.179,0.095,0.249,0.165l2.999,2.999c0.292,0.292,0.292,0.768,0,1.061c-0.142,0.142-0.33,0.22-0.53,0.22
		s-0.389-0.078-0.53-0.22l-1.72-1.72v4.189c0,0.414,0.336,0.75,0.75,0.75h4.5c0.414,0,0.75,0.336,0.75,0.75S13.163,21,12.75,21H8.25
		z"/>
	<path d="M5.25,10.5c-2.728,0-4.969-2.039-5.226-4.743C-0.109,4.366,0.31,3.005,1.202,1.925c0.892-1.08,2.15-1.748,3.541-1.88
		C4.91,0.03,5.08,0.022,5.247,0.022c1.227,0,2.378,0.415,3.329,1.201c0.735,0.607,1.279,1.382,1.594,2.262
		C10.724,3.172,11.357,3.002,11.997,3c2.07,0,3.752,1.682,3.752,3.75S14.068,10.5,12,10.5H5.25z M5.246,1.522
		c-0.119,0-0.241,0.006-0.362,0.017C2.833,1.734,1.322,3.563,1.517,5.615C1.7,7.545,3.3,9,5.239,9H12c1.241,0,2.25-1.009,2.25-2.25
		c0-1.24-1.009-2.25-2.25-2.25c-0.665,0.002-1.29,0.299-1.714,0.813c-0.143,0.173-0.354,0.273-0.579,0.273
		c-0.074,0-0.148-0.011-0.22-0.033C9.197,5.464,8.99,5.211,8.961,4.907C8.867,3.913,8.39,3.015,7.621,2.379
		C6.942,1.818,6.121,1.522,5.246,1.522z"/>
	<path d="M17.25,24C16.009,24,15,22.991,15,21.75v-9c0-1.241,1.009-2.25,2.25-2.25h4.5c1.241,0,2.25,1.009,2.25,2.25v9
		C24,22.991,22.99,24,21.75,24H17.25z M17.25,12c-0.414,0-0.75,0.337-0.75,0.75v9c0,0.414,0.336,0.75,0.75,0.75h4.5
		c0.414,0,0.75-0.336,0.75-0.75v-9c0-0.414-0.336-0.75-0.75-0.75H17.25z"/>
</g>
</svg>
