<?xml version="1.0" encoding="utf-8"?>
<!-- Generator: Adobe Illustrator 22.1.0, SVG Export Plug-In . SVG Version: 6.00 Build 0)  -->
<svg version="1.1" id="Layer_1" xmlns="http://www.w3.org/2000/svg" xmlns:xlink="http://www.w3.org/1999/xlink" x="0px" y="0px"
	 viewBox="0 0 24 24" style="enable-background:new 0 0 24 24;" xml:space="preserve">
<title>cloud-disable</title>
<g>
	<path d="M17.247,24.002c-1.789,0-3.475-0.695-4.749-1.957c-0.008-0.007-0.016-0.014-0.024-0.022c-0.01-0.01-0.019-0.02-0.028-0.031
		c-1.252-1.257-1.95-2.946-1.95-4.74c0-3.722,3.028-6.75,6.75-6.75c1.783,0,3.464,0.691,4.736,1.945
		c0.013,0.01,0.025,0.021,0.036,0.031c0.01,0.01,0.021,0.023,0.031,0.036c1.253,1.266,1.947,2.95,1.947,4.738
		C23.997,20.974,20.969,24.002,17.247,24.002z M14.106,21.453c0.906,0.679,2.007,1.049,3.142,1.049c2.895,0,5.25-2.355,5.25-5.25
		c0-1.135-0.37-2.236-1.049-3.142L14.106,21.453z M17.247,12.002c-2.895,0-5.25,2.355-5.25,5.25c0,1.135,0.369,2.235,1.048,3.141
		l7.343-7.343C19.483,12.371,18.382,12.002,17.247,12.002z"/>
	<path d="M8.237,16.502c-3.965,0-7.375-2.829-8.107-6.725c-0.407-2.166,0.053-4.36,1.297-6.18C2.67,1.777,4.547,0.551,6.713,0.144
		c0.504-0.095,1.019-0.143,1.528-0.143c3.603,0,6.769,2.336,7.854,5.734c0.287-0.128,0.585-0.231,0.89-0.31
		c0.458-0.117,0.927-0.177,1.396-0.177c2.567,0,4.806,1.737,5.444,4.225c0.103,0.4-0.139,0.81-0.54,0.913
		c-0.062,0.016-0.124,0.023-0.186,0.023c-0.343,0-0.642-0.232-0.727-0.563c-0.468-1.824-2.108-3.097-3.99-3.097
		c-0.344,0-0.688,0.044-1.024,0.13C16.883,7,16.438,7.203,16.035,7.482c-0.125,0.087-0.273,0.133-0.427,0.133
		c-0.098,0-0.194-0.019-0.285-0.056c-0.235-0.097-0.405-0.304-0.452-0.555c-0.6-3.189-3.388-5.504-6.631-5.504
		c-0.417,0-0.837,0.039-1.25,0.117C5.221,1.951,3.686,2.955,2.668,4.445C1.649,5.935,1.271,7.73,1.604,9.499
		c0.599,3.188,3.389,5.503,6.634,5.503c0,0,0.006,0,0.01,0c0.413,0,0.75,0.336,0.75,0.749c0,0.41-0.339,0.747-0.756,0.751
		C8.24,16.502,8.238,16.502,8.237,16.502z"/>
</g>
</svg>
