<?xml version="1.0" encoding="utf-8"?>
<!-- Generator: Adobe Illustrator 22.1.0, SVG Export Plug-In . SVG Version: 6.00 Build 0)  -->
<svg version="1.1" id="Layer_1" xmlns="http://www.w3.org/2000/svg" xmlns:xlink="http://www.w3.org/1999/xlink" x="0px" y="0px"
	 viewBox="0 0 24 24" style="enable-background:new 0 0 24 24;" xml:space="preserve">
<title>cloud-phone-exchange</title>
<g>
	<circle cx="19.5" cy="20.251" r="1.125"/>
	<path d="M17.25,24.001c-1.241,0-2.25-1.009-2.25-2.25v-9c0-1.241,1.009-2.25,2.25-2.25h4.5c1.241,0,2.25,1.009,2.25,2.25v9
		c0,1.241-1.009,2.25-2.25,2.25H17.25z M17.25,12.001c-0.414,0-0.75,0.337-0.75,0.75v9c0,0.414,0.336,0.75,0.75,0.75h4.5
		c0.414,0,0.75-0.336,0.75-0.75v-9c0-0.414-0.336-0.75-0.75-0.75H17.25z"/>
	<path d="M5.25,10.501c-2.727,0-4.968-2.038-5.226-4.742c-0.133-1.391,0.286-2.752,1.178-3.832s2.149-1.748,3.541-1.88
		c0.167-0.016,0.337-0.024,0.504-0.024c1.21,0,2.393,0.426,3.329,1.2C9.31,1.83,9.855,2.604,10.17,3.485
		c0.554-0.313,1.187-0.482,1.828-0.484c2.07,0,3.752,1.682,3.752,3.75s-1.682,3.75-3.75,3.75H5.25z M5.246,1.523
		c-0.121,0-0.242,0.006-0.362,0.017C3.89,1.635,2.992,2.111,2.356,2.881C1.72,3.651,1.422,4.623,1.517,5.617
		c0.184,1.929,1.782,3.384,3.717,3.384c0,0,6.766,0,6.766,0c1.241,0,2.25-1.009,2.25-2.25c0-1.24-1.009-2.25-2.249-2.25
		c-0.665,0.002-1.29,0.298-1.714,0.812c-0.143,0.173-0.354,0.273-0.579,0.273c-0.074,0-0.148-0.011-0.219-0.033
		C9.197,5.464,8.99,5.211,8.961,4.907C8.866,3.913,8.39,3.016,7.62,2.38C6.942,1.819,6.121,1.523,5.246,1.523z"/>
	<path d="M9,23.251c-0.2,0-0.389-0.078-0.53-0.22c-0.142-0.142-0.22-0.33-0.22-0.53s0.078-0.389,0.22-0.53l0.97-0.97H8.25
		c-2.068,0-3.75-1.682-3.75-3.75v-2.689l-0.97,0.97c-0.142,0.142-0.33,0.22-0.53,0.22s-0.389-0.078-0.53-0.22
		c-0.142-0.142-0.22-0.33-0.22-0.53s0.078-0.389,0.22-0.53l2.25-2.25c0.07-0.07,0.153-0.125,0.246-0.164
		c0.008-0.003,0.017-0.007,0.027-0.01c0.086-0.031,0.172-0.047,0.258-0.047c0.088,0,0.175,0.016,0.26,0.047
		c0.008,0.002,0.015,0.005,0.022,0.008c0.096,0.04,0.179,0.095,0.249,0.165l2.249,2.249c0.142,0.142,0.22,0.33,0.22,0.53
		s-0.078,0.389-0.22,0.53c-0.142,0.142-0.33,0.22-0.53,0.22s-0.389-0.078-0.53-0.22L6,14.562v2.689c0,1.241,1.009,2.25,2.25,2.25
		h1.189l-0.97-0.97c-0.292-0.292-0.292-0.768,0-1.061c0.142-0.142,0.33-0.22,0.53-0.22s0.389,0.078,0.53,0.22l2.25,2.25
		c0.07,0.07,0.125,0.153,0.163,0.245c0.003,0.007,0.006,0.016,0.009,0.024C11.983,20.071,12,20.161,12,20.251
		c0,0.089-0.016,0.176-0.048,0.261c-0.004,0.011-0.008,0.022-0.012,0.032c-0.035,0.085-0.09,0.167-0.16,0.238l-2.25,2.25
		C9.388,23.173,9.2,23.251,9,23.251z"/>
</g>
</svg>
