<?xml version="1.0" encoding="utf-8"?>
<!-- Generator: Adobe Illustrator 22.1.0, SVG Export Plug-In . SVG Version: 6.00 Build 0)  -->
<svg version="1.1" id="Layer_1" xmlns="http://www.w3.org/2000/svg" xmlns:xlink="http://www.w3.org/1999/xlink" x="0px" y="0px"
	 viewBox="0 0 24 24" style="enable-background:new 0 0 24 24;" xml:space="preserve">
<title>cloud-phone</title>
<g>
	<circle cx="12" cy="20.252" r="1.125"/>
	<path d="M9.75,24.002c-1.241,0-2.25-1.009-2.25-2.25v-9c0-1.241,1.009-2.25,2.25-2.25h4.5c1.241,0,2.25,1.009,2.25,2.25v9
		c0,1.241-1.009,2.25-2.25,2.25H9.75z M9.75,12.002c-0.414,0-0.75,0.336-0.75,0.75v9c0,0.414,0.336,0.75,0.75,0.75h4.5
		c0.414,0,0.75-0.336,0.75-0.75v-9c0-0.414-0.336-0.75-0.75-0.75H9.75z"/>
	<path d="M18.733,16.489c-0.391,0-0.719-0.305-0.748-0.696c-0.014-0.2,0.05-0.394,0.181-0.545c0.131-0.151,0.313-0.243,0.513-0.257
		c1.099-0.08,2.101-0.583,2.822-1.416c0.721-0.833,1.073-1.898,0.994-2.997c-0.156-2.146-1.96-3.827-4.107-3.827
		c-0.101,0-0.203,0.004-0.305,0.011c-0.734,0.053-1.442,0.302-2.047,0.72c-0.125,0.087-0.273,0.133-0.426,0.133
		c-0.099,0-0.195-0.019-0.286-0.057c-0.235-0.097-0.405-0.304-0.452-0.555c-0.598-3.191-3.387-5.507-6.631-5.507
		c-0.416,0-0.835,0.039-1.247,0.116C3.336,2.3,0.918,5.834,1.604,9.493c0.411,2.194,1.877,4.039,3.921,4.937
		c0.183,0.08,0.324,0.227,0.397,0.414s0.069,0.391-0.012,0.574c-0.12,0.273-0.39,0.449-0.687,0.449
		c-0.104,0-0.206-0.021-0.302-0.064C2.424,14.706,0.632,12.45,0.13,9.769c-0.406-2.162,0.057-4.356,1.303-6.177
		C2.678,1.771,4.555,0.545,6.718,0.14c0.503-0.094,1.016-0.142,1.524-0.142c3.605,0,6.773,2.337,7.856,5.739
		c0.592-0.262,1.233-0.423,1.876-0.47c0.137-0.01,0.274-0.015,0.409-0.015c2.932,0,5.395,2.292,5.608,5.218
		c0.109,1.499-0.373,2.95-1.355,4.087c-0.983,1.136-2.349,1.822-3.848,1.931C18.771,16.488,18.752,16.489,18.733,16.489z"/>
</g>
</svg>
