<?xml version="1.0" encoding="utf-8"?>
<!-- Generator: Adobe Illustrator 22.1.0, SVG Export Plug-In . SVG Version: 6.00 Build 0)  -->
<svg version="1.1" id="Layer_1" xmlns="http://www.w3.org/2000/svg" xmlns:xlink="http://www.w3.org/1999/xlink" x="0px" y="0px"
	 viewBox="0 0 24 24" style="enable-background:new 0 0 24 24;" xml:space="preserve">
<title>cloud-subtract</title>
<g>
	<path d="M17.251,23.999c-3.722,0-6.75-3.028-6.75-6.75s3.028-6.75,6.75-6.75s6.75,3.028,6.75,6.75S20.973,23.999,17.251,23.999z
		 M17.251,11.999c-2.895,0-5.25,2.355-5.25,5.25s2.355,5.25,5.25,5.25s5.25-2.355,5.25-5.25S20.146,11.999,17.251,11.999z"/>
	<path d="M14.251,17.999c-0.414,0-0.75-0.336-0.75-0.75s0.336-0.75,0.75-0.75h6c0.414,0,0.75,0.336,0.75,0.75s-0.336,0.75-0.75,0.75
		H14.251z"/>
	<path d="M8.242,16.499c-3.964,0-7.374-2.829-8.106-6.727C-0.704,5.301,2.25,0.981,6.72,0.141c0.509-0.096,1.027-0.144,1.54-0.144
		c1.656,0,3.26,0.499,4.64,1.442c1.522,1.041,2.647,2.553,3.202,4.295c0.286-0.127,0.584-0.231,0.889-0.309
		c0.461-0.118,0.933-0.178,1.404-0.178c0.998,0,1.984,0.272,2.853,0.786c1.291,0.764,2.208,1.986,2.58,3.439
		c0.05,0.194,0.021,0.396-0.081,0.568c-0.102,0.172-0.265,0.295-0.459,0.344c-0.062,0.016-0.124,0.023-0.186,0.023
		c-0.343,0-0.642-0.232-0.727-0.563c-0.273-1.066-0.945-1.961-1.891-2.521c-0.637-0.377-1.359-0.576-2.09-0.576
		c-0.345,0-0.692,0.044-1.031,0.131c-0.474,0.122-0.919,0.324-1.321,0.603c-0.125,0.087-0.272,0.133-0.427,0.133
		c-0.098,0-0.194-0.019-0.285-0.056c-0.236-0.097-0.405-0.305-0.453-0.555c-0.333-1.772-1.336-3.309-2.824-4.326
		c-1.129-0.772-2.441-1.18-3.795-1.18c-0.42,0-0.844,0.04-1.262,0.118C3.339,2.302,0.923,5.837,1.61,9.495
		c0.599,3.186,3.383,5.499,6.624,5.503c0.005,0,0.028,0,0.034,0C8.673,15.008,9,15.34,9.001,15.748c0,0.199-0.078,0.386-0.219,0.528
		c-0.143,0.144-0.334,0.223-0.536,0.223C8.246,16.499,8.242,16.499,8.242,16.499z"/>
</g>
</svg>
