<?xml version="1.0" encoding="utf-8"?>
<!-- Generator: Adobe Illustrator 22.1.0, SVG Export Plug-In . SVG Version: 6.00 Build 0)  -->
<svg version="1.1" id="Layer_1" xmlns="http://www.w3.org/2000/svg" xmlns:xlink="http://www.w3.org/1999/xlink" x="0px" y="0px"
	 viewBox="0 0 24 24" style="enable-background:new 0 0 24 24;" xml:space="preserve">
<title>cloud-off</title>
<g>
	<path d="M8.249,18.751c-1.446,0-2.871-0.382-4.123-1.103c-1.909-1.101-3.275-2.88-3.846-5.008C-0.291,10.512,0,8.288,1.101,6.379
		c0.134-0.232,0.383-0.375,0.65-0.375c0.131,0,0.26,0.035,0.374,0.1c0.174,0.1,0.298,0.262,0.35,0.455
		c0.052,0.193,0.025,0.396-0.075,0.569C1.5,8.691,1.261,10.51,1.729,12.251c0.467,1.741,1.585,3.196,3.147,4.097
		c1.024,0.591,2.19,0.903,3.372,0.903h4.501c0.414,0,0.75,0.336,0.75,0.75s-0.336,0.75-0.75,0.75H8.249z"/>
	<path d="M20.986,17.993c-0.259,0-0.496-0.13-0.634-0.348c-0.221-0.349-0.117-0.814,0.232-1.035c0.93-0.59,1.575-1.507,1.815-2.581
		c0.24-1.075,0.048-2.179-0.542-3.109c-0.59-0.93-1.507-1.575-2.581-1.815c-0.3-0.067-0.606-0.101-0.909-0.101
		c-0.776,0-1.536,0.222-2.199,0.643c-0.045,0.029-0.089,0.057-0.132,0.087c-0.125,0.087-0.273,0.133-0.426,0.133
		c-0.099,0-0.196-0.019-0.287-0.057c-0.234-0.096-0.403-0.304-0.45-0.555c-0.332-1.772-1.334-3.309-2.822-4.327
		c-1.13-0.773-2.442-1.181-3.797-1.181c-0.419,0-0.843,0.04-1.259,0.118L6.9,3.5l0.07,0.369C6.92,3.877,6.875,3.881,6.831,3.881
		c-0.363,0-0.674-0.26-0.738-0.618C6.021,2.856,6.292,2.466,6.7,2.393c0.513-0.096,1.037-0.145,1.555-0.145
		c1.658,0,3.264,0.499,4.642,1.442c1.522,1.041,2.646,2.555,3.201,4.297c0.714-0.317,1.49-0.483,2.268-0.483
		c0.414,0,0.83,0.046,1.238,0.138c1.466,0.328,2.716,1.207,3.52,2.476c0.805,1.268,1.067,2.774,0.739,4.24
		c-0.328,1.466-1.207,2.716-2.476,3.521C21.267,17.953,21.129,17.993,20.986,17.993z"/>
	<path d="M20.249,21.751c-0.2,0-0.389-0.078-0.53-0.22l-18-18c-0.142-0.141-0.22-0.33-0.22-0.53s0.078-0.389,0.22-0.53
		c0.141-0.142,0.33-0.22,0.53-0.22s0.389,0.078,0.53,0.22l18,18c0.292,0.292,0.292,0.768,0,1.061
		C20.638,21.673,20.449,21.751,20.249,21.751z"/>
</g>
</svg>
