<?xml version="1.0" encoding="utf-8"?>
<!-- Generator: Adobe Illustrator 22.1.0, SVG Export Plug-In . SVG Version: 6.00 Build 0)  -->
<svg version="1.1" id="Layer_1" xmlns="http://www.w3.org/2000/svg" xmlns:xlink="http://www.w3.org/1999/xlink" x="0px" y="0px"
	 viewBox="0 0 24 24" style="enable-background:new 0 0 24 24;" xml:space="preserve">
<title>cloud-warning</title>
<g>
	<circle cx="17.252" cy="20.624" r="1.125"/>
	<path d="M17.252,18.749c-0.414,0-0.75-0.336-0.75-0.75v-3c0-0.414,0.336-0.75,0.75-0.75s0.75,0.336,0.75,0.75v3
		C18.002,18.412,17.666,18.749,17.252,18.749z"/>
	<path d="M13.026,23.999c-0.675,0-1.308-0.262-1.784-0.738c-0.477-0.476-0.739-1.11-0.74-1.783c0-0.391,0.092-0.782,0.267-1.131
		l4.225-8.452c0.43-0.861,1.297-1.396,2.262-1.396c0.393,0,0.771,0.089,1.124,0.266c0.486,0.243,0.887,0.644,1.13,1.13l4.226,8.452
		c0.301,0.603,0.35,1.288,0.136,1.927c-0.213,0.64-0.663,1.158-1.266,1.459c-0.349,0.174-0.739,0.266-1.129,0.266H13.026z
		 M17.254,11.999c-0.392,0-0.744,0.217-0.918,0.567l-4.225,8.452c-0.071,0.142-0.109,0.3-0.109,0.459c0,0.273,0.107,0.531,0.3,0.723
		c0.193,0.193,0.45,0.299,0.723,0.299h8.453c0.158,0,0.317-0.037,0.458-0.108c0.245-0.122,0.427-0.332,0.513-0.592
		s0.067-0.537-0.055-0.781l-4.226-8.452c-0.098-0.197-0.261-0.36-0.458-0.459C17.566,12.035,17.413,11.999,17.254,11.999z"/>
	<path d="M8.241,16.499c-3.965,0-7.375-2.829-8.107-6.727C-0.273,7.61,0.189,5.416,1.434,3.595c1.245-1.821,3.122-3.048,5.284-3.454
		c0.509-0.096,1.027-0.144,1.54-0.144c1.656,0,3.26,0.499,4.64,1.442c1.523,1.041,2.647,2.554,3.202,4.297
		c0.717-0.317,1.5-0.483,2.291-0.483c0.798,0,1.568,0.164,2.289,0.486c1.371,0.613,2.42,1.723,2.956,3.126
		c0.535,1.403,0.492,2.93-0.121,4.3c-0.12,0.27-0.389,0.444-0.685,0.444c-0.106,0-0.209-0.022-0.306-0.066
		c-0.182-0.081-0.322-0.229-0.394-0.417s-0.066-0.391,0.016-0.574c0.45-1.005,0.481-2.125,0.089-3.153
		c-0.393-1.028-1.162-1.842-2.167-2.292c-0.528-0.236-1.093-0.356-1.678-0.356c-0.849,0-1.662,0.252-2.351,0.729
		c-0.125,0.087-0.273,0.133-0.427,0.133c-0.099,0-0.195-0.019-0.286-0.057c-0.235-0.097-0.405-0.304-0.452-0.555
		c-0.599-3.189-3.388-5.504-6.631-5.504c-0.416,0-0.837,0.039-1.249,0.117c-3.658,0.687-6.075,4.222-5.387,7.88
		c0.599,3.189,3.389,5.503,6.634,5.503h2.26c0.414,0,0.75,0.336,0.75,0.75s-0.336,0.75-0.75,0.75H8.241z"/>
</g>
</svg>
