<?xml version="1.0" encoding="utf-8"?>
<!-- Generator: Adobe Illustrator 22.1.0, SVG Export Plug-In . SVG Version: 6.00 Build 0)  -->
<svg version="1.1" id="Regular" xmlns="http://www.w3.org/2000/svg" xmlns:xlink="http://www.w3.org/1999/xlink" x="0px" y="0px"
	 viewBox="0 0 24 24" style="enable-background:new 0 0 24 24;" xml:space="preserve">
<title>single-neutral-circle</title>
<g>
	<path d="M12,24C5.383,24,0,18.617,0,12C0,5.383,5.383,0,12,0c6.617,0,12,5.383,12,12C24,18.617,18.617,24,12,24z M12,1.5
		C6.21,1.5,1.5,6.21,1.5,12c0,5.79,4.71,10.5,10.5,10.5c5.79,0,10.5-4.71,10.5-10.5C22.5,6.21,17.79,1.5,12,1.5z"/>
	<path d="M12,9c-1.654,0-3-1.346-3-3s1.346-3,3-3c1.654,0,3,1.346,3,3S13.654,9,12,9z M12,4.5c-0.827,0-1.5,0.673-1.5,1.5
		s0.673,1.5,1.5,1.5s1.5-0.673,1.5-1.5S12.827,4.5,12,4.5z"/>
	<path d="M10.5,21c-0.368,0-0.679-0.263-0.74-0.626L9.115,16.5H8.25c-0.414,0-0.75-0.336-0.75-0.75V13.5C7.5,11.019,9.519,9,12,9
		c2.481,0,4.5,2.019,4.5,4.5v2.25c0,0.414-0.336,0.75-0.75,0.75h-0.865l-0.646,3.873C14.179,20.736,13.868,21,13.5,21H10.5z
		 M12.865,19.5l0.646-3.873C13.571,15.264,13.882,15,14.25,15H15v-1.5c0-1.654-1.346-3-3-3c-1.654,0-3,1.346-3,3V15h0.75
		c0.368,0,0.679,0.263,0.74,0.626l0.646,3.874H12.865z"/>
</g>
</svg>
