<?xml version="1.0" encoding="utf-8"?>
<!-- Generator: Adobe Illustrator 22.1.0, SVG Export Plug-In . SVG Version: 6.00 Build 0)  -->
<svg version="1.1" id="Regular" xmlns="http://www.w3.org/2000/svg" xmlns:xlink="http://www.w3.org/1999/xlink" x="0px" y="0px"
	 viewBox="0 0 24 24" style="enable-background:new 0 0 24 24;" xml:space="preserve">
<title>single-neutral</title>
<g>
	<path d="M12,7.5c-2.068,0-3.75-1.682-3.75-3.75S9.932,0,12,0c2.068,0,3.75,1.682,3.75,3.75S14.068,7.5,12,7.5z M12,1.5
		c-1.241,0-2.25,1.009-2.25,2.25S10.759,6,12,6c1.241,0,2.25-1.009,2.25-2.25S13.241,1.5,12,1.5z"/>
	<path d="M9.75,24c-0.387,0-0.708-0.29-0.746-0.675L8.321,16.5H6.75C6.336,16.5,6,16.164,6,15.75V13.5c0-3.308,2.692-6,6-6
		s6,2.692,6,6v2.25c0,0.414-0.336,0.75-0.75,0.75h-1.571l-0.683,6.825C14.958,23.709,14.637,24,14.25,24H9.75z M13.571,22.5
		l0.683-6.825C14.292,15.291,14.613,15,15,15h1.5v-1.5c0-2.481-2.019-4.5-4.5-4.5c-2.481,0-4.5,2.019-4.5,4.5V15H9
		c0.387,0,0.708,0.29,0.746,0.675l0.682,6.825H13.571z"/>
</g>
</svg>
