<?xml version="1.0" encoding="utf-8"?>
<!-- Generator: Adobe Illustrator 22.1.0, SVG Export Plug-In . SVG Version: 6.00 Build 0)  -->
<svg version="1.1" id="Regular" xmlns="http://www.w3.org/2000/svg" xmlns:xlink="http://www.w3.org/1999/xlink" x="0px" y="0px"
	 viewBox="0 0 24 24" style="enable-background:new 0 0 24 24;" xml:space="preserve">
<title>single-neutral-idea</title>
<g>
	<path d="M5.625,7.5c-2.068,0-3.75-1.682-3.75-3.75S3.557,0,5.625,0s3.75,1.682,3.75,3.75S7.693,7.5,5.625,7.5z M5.625,1.5
		c-1.241,0-2.25,1.009-2.25,2.25S4.384,6,5.625,6s2.25-1.009,2.25-2.25S6.866,1.5,5.625,1.5z"/>
	<path d="M3.375,24c-0.387,0-0.708-0.29-0.746-0.675L1.946,16.5H1.125c-0.414,0-0.75-0.336-0.75-0.75v-3
		c0-2.895,2.355-5.25,5.25-5.25s5.25,2.355,5.25,5.25v3c0,0.414-0.336,0.75-0.75,0.75H9.304l-0.682,6.825
		C8.583,23.71,8.262,24,7.875,24H3.375z M7.196,22.5l0.682-6.825C7.917,15.29,8.238,15,8.625,15h0.75v-2.25
		c0-2.068-1.682-3.75-3.75-3.75s-3.75,1.682-3.75,3.75V15h0.75c0.387,0,0.708,0.29,0.746,0.675L4.054,22.5H7.196z"/>
	<path d="M19.125,12.75c-0.414,0-0.75-0.336-0.75-0.75v-1.5h-0.75c-0.414,0-0.75-0.336-0.75-0.75V8.397
		c-1.394-0.802-2.25-2.275-2.25-3.897c0-2.481,2.019-4.5,4.5-4.5c1.202,0,2.332,0.468,3.182,1.318c0.85,0.85,1.318,1.98,1.318,3.182
		c0,1.622-0.856,3.095-2.25,3.897V9.75c0,0.414-0.336,0.75-0.75,0.75h-0.75V12C19.875,12.414,19.539,12.75,19.125,12.75z M19.875,9
		V7.937c0-0.298,0.177-0.568,0.45-0.687c1.093-0.478,1.8-1.557,1.8-2.75c0-0.801-0.312-1.554-0.879-2.121
		C20.68,1.812,19.927,1.5,19.125,1.5c-1.654,0-3,1.346-3,3c0,1.193,0.707,2.272,1.8,2.749c0.273,0.119,0.45,0.389,0.45,0.688V9
		H19.875z"/>
</g>
</svg>
