<?xml version="1.0" encoding="utf-8"?>
<!-- Generator: Adobe Illustrator 22.1.0, SVG Export Plug-In . SVG Version: 6.00 Build 0)  -->
<svg version="1.1" id="Regular" xmlns="http://www.w3.org/2000/svg" xmlns:xlink="http://www.w3.org/1999/xlink" x="0px" y="0px"
	 viewBox="0 0 24 24" style="enable-background:new 0 0 24 24;" xml:space="preserve">
<title>single-neutral-focus</title>
<g>
	<path d="M0.75,7.501C0.336,7.501,0,7.165,0,6.751V2.25C0,1.009,1.009,0,2.25,0h4.5C7.164,0,7.5,0.336,7.5,0.75S7.164,1.5,6.75,1.5
		h-4.5C1.836,1.5,1.5,1.836,1.5,2.25v4.501C1.5,7.165,1.164,7.501,0.75,7.501z"/>
	<path d="M23.25,7.501c-0.414,0-0.75-0.336-0.75-0.75V2.25c0-0.414-0.336-0.75-0.75-0.75h-4.5c-0.414,0-0.75-0.336-0.75-0.75
		S16.836,0,17.25,0h4.5C22.991,0,24,1.009,24,2.25v4.501C24,7.165,23.664,7.501,23.25,7.501z"/>
	<path d="M2.25,24C1.009,24,0,22.991,0,21.75v-4.5c0-0.414,0.336-0.75,0.75-0.75s0.75,0.336,0.75,0.75v4.5
		c0,0.414,0.336,0.75,0.75,0.75h4.5c0.414,0,0.75,0.336,0.75,0.75S7.164,24,6.75,24H2.25z"/>
	<path d="M17.25,24c-0.414,0-0.75-0.336-0.75-0.75s0.336-0.75,0.75-0.75h4.5c0.414,0,0.75-0.336,0.75-0.75v-4.5
		c0-0.414,0.336-0.75,0.75-0.75S24,16.836,24,17.25v4.5c0,1.241-1.009,2.25-2.25,2.25H17.25z"/>
	<path d="M12,9c-1.654,0-3-1.346-3-3s1.346-3,3-3c1.654,0,3,1.346,3,3S13.654,9,12,9z M12,4.5c-0.827,0-1.5,0.673-1.5,1.5
		s0.673,1.5,1.5,1.5s1.5-0.673,1.5-1.5S12.827,4.5,12,4.5z"/>
	<path d="M10.5,21c-0.368,0-0.679-0.263-0.74-0.626L9.115,16.5H8.25c-0.414,0-0.75-0.336-0.75-0.75V13.5C7.5,11.019,9.519,9,12,9
		c2.481,0,4.5,2.019,4.5,4.5v2.25c0,0.414-0.336,0.75-0.75,0.75h-0.865l-0.646,3.873C14.179,20.736,13.868,21,13.5,21H10.5z
		 M12.865,19.5l0.646-3.873C13.571,15.264,13.882,15,14.25,15H15v-1.5c0-1.654-1.346-3-3-3c-1.654,0-3,1.346-3,3V15h0.75
		c0.368,0,0.679,0.263,0.74,0.626l0.646,3.874H12.865z"/>
</g>
</svg>
