<?xml version="1.0" encoding="utf-8"?>
<!-- Generator: Adobe Illustrator 22.1.0, SVG Export Plug-In . SVG Version: 6.00 Build 0)  -->
<svg version="1.1" id="Light" xmlns="http://www.w3.org/2000/svg" xmlns:xlink="http://www.w3.org/1999/xlink" x="0px" y="0px"
	 viewBox="0 0 24 24" style="enable-background:new 0 0 24 24;" xml:space="preserve">
<g>
	<title>multiple-man-1</title>
	<path d="M0.5,22.499c-0.276,0-0.5-0.224-0.5-0.5v-2.878c0-1.442,0.866-2.719,2.206-3.252L6.5,14.16v-1.854
		c-0.501-0.306-1.385-1.102-1.49-2.94C4.618,9.136,4.38,8.63,4.38,7.999c0-0.579,0.195-1.048,0.531-1.302
		C4.663,5.812,4.221,4.2,4.974,3.386C5.241,3.099,5.609,2.953,6.07,2.953c0.037,0,0.075,0.001,0.113,0.003
		C6.782,1.885,8.452,1.499,9.75,1.499c1.625,0,3.41,0.581,3.735,1.879c0.296,1.184-0.143,2.572-0.385,3.329
		c0.329,0.256,0.52,0.721,0.52,1.293c0,0.631-0.237,1.137-0.63,1.367c-0.105,1.839-0.989,2.634-1.49,2.94v1.853l4.284,1.699
		C17.13,16.389,18,17.666,18,19.113v2.886c0,0.276-0.224,0.5-0.5,0.5H0.5z M17,21.499v-2.386c0-1.033-0.622-1.946-1.583-2.325
		l-4.601-1.824c-0.192-0.076-0.316-0.259-0.316-0.465v-2.5c0-0.215,0.137-0.406,0.342-0.474C10.885,11.509,12,11.088,12,8.999
		c0-0.276,0.224-0.5,0.5-0.5c0.03-0.025,0.119-0.224,0.119-0.5s-0.09-0.475-0.138-0.504c-0.002,0-0.005,0-0.007,0
		C12.22,7.495,12,7.272,12,6.999c0-0.137,0.047-0.285,0.142-0.579c0.211-0.658,0.603-1.883,0.374-2.8
		c-0.184-0.736-1.531-1.121-2.765-1.121c-1.235,0-2.581,0.385-2.765,1.121C6.929,3.844,6.729,3.999,6.5,3.999
		c-0.032,0-0.064-0.003-0.097-0.009C6.279,3.965,6.168,3.953,6.071,3.953c-0.172,0-0.294,0.038-0.363,0.113
		c-0.381,0.411,0.037,1.9,0.174,2.389C5.963,6.743,6,6.875,6,6.999c0,0.276-0.224,0.5-0.5,0.5c-0.03,0.025-0.12,0.224-0.12,0.5
		s0.09,0.475,0.138,0.504c0.002,0,0.005,0,0.007,0C5.78,8.503,6,8.726,6,8.999c0,2.09,1.116,2.511,1.164,2.527
		C7.365,11.597,7.5,11.787,7.5,11.999v2.5c0,0.206-0.124,0.388-0.315,0.464l-4.609,1.835C1.619,17.179,1,18.091,1,19.121v2.378H17z"
		/>
	<path d="M19.5,22.499c-0.276,0-0.5-0.224-0.5-0.5s0.224-0.5,0.5-0.5H23v-2.386c0-1.033-0.622-1.946-1.583-2.325l-4.601-1.824
		c-0.192-0.076-0.316-0.259-0.316-0.465v-2.5c0-0.215,0.137-0.406,0.342-0.474C16.885,11.509,18,11.088,18,8.999
		c0-0.273,0.221-0.496,0.493-0.5c0-0.004,0.015-0.02,0.033-0.054c0.058-0.106,0.093-0.272,0.093-0.446
		c0-0.276-0.09-0.475-0.138-0.504c-0.002,0-0.005,0-0.007,0C18.22,7.495,18,7.272,18,6.999c0-0.137,0.047-0.285,0.142-0.579
		c0.211-0.658,0.603-1.883,0.374-2.8c-0.16-0.638-1.353-1.12-2.776-1.12c-0.335,0-0.663,0.027-0.974,0.079
		c-0.028,0.005-0.056,0.007-0.084,0.007c-0.245,0-0.452-0.175-0.493-0.417c-0.046-0.272,0.138-0.53,0.41-0.576
		c0.374-0.063,0.762-0.096,1.154-0.096c1.624,0,3.408,0.581,3.732,1.879c0.296,1.184-0.143,2.572-0.385,3.328
		c0.329,0.256,0.52,0.721,0.52,1.293c0,0.631-0.237,1.137-0.63,1.367c-0.105,1.838-0.989,2.634-1.49,2.94v1.853l4.284,1.699
		C23.13,16.389,24,17.666,24,19.113v2.886c0,0.276-0.224,0.5-0.5,0.5H19.5z"/>
</g>
</svg>
