<?xml version="1.0" encoding="utf-8"?>
<!-- Generator: Adobe Illustrator 22.1.0, SVG Export Plug-In . SVG Version: 6.00 Build 0)  -->
<svg version="1.1" id="Light" xmlns="http://www.w3.org/2000/svg" xmlns:xlink="http://www.w3.org/1999/xlink" x="0px" y="0px"
	 viewBox="0 0 24 24" style="enable-background:new 0 0 24 24;" xml:space="preserve">
<g>
	<title>multiple-man-woman-1</title>
	<path d="M0.499,22.5c-0.276,0-0.5-0.224-0.5-0.5v-2.878c0-1.442,0.866-2.719,2.206-3.252l4.294-1.709v-1.854
		c-0.501-0.306-1.385-1.102-1.49-2.94C4.617,9.137,4.38,8.631,4.38,8c0-0.579,0.195-1.048,0.531-1.302
		C4.662,5.812,4.22,4.201,4.974,3.387C5.24,3.099,5.609,2.953,6.069,2.953c0.037,0,0.075,0.001,0.113,0.003
		C6.782,1.885,8.452,1.5,9.749,1.5c1.625,0,3.41,0.581,3.735,1.879c0.296,1.184-0.143,2.572-0.385,3.329
		c0.329,0.256,0.52,0.721,0.52,1.293c0,0.631-0.237,1.137-0.63,1.367c-0.105,1.839-0.989,2.634-1.49,2.94v1.853l4.284,1.699
		c1.345,0.53,2.215,1.808,2.216,3.255V22c0,0.276-0.224,0.5-0.5,0.5H0.499z M16.999,21.5v-2.386c0-1.033-0.622-1.946-1.583-2.325
		l-4.601-1.824c-0.192-0.076-0.316-0.259-0.316-0.465V12c0-0.215,0.137-0.406,0.342-0.474c0.044-0.016,1.158-0.437,1.158-2.526
		c0-0.276,0.224-0.5,0.5-0.5c0.03-0.025,0.119-0.224,0.119-0.5s-0.09-0.475-0.138-0.504c-0.002,0-0.005,0-0.007,0
		c-0.254,0-0.474-0.223-0.474-0.496c0-0.137,0.047-0.285,0.142-0.579c0.211-0.658,0.603-1.883,0.374-2.8
		C12.33,2.885,10.984,2.5,9.749,2.5c-1.235,0-2.581,0.385-2.765,1.121C6.929,3.844,6.729,4,6.499,4C6.467,4,6.435,3.997,6.403,3.99
		C6.279,3.966,6.167,3.953,6.071,3.953c-0.171,0-0.294,0.038-0.363,0.113c-0.381,0.411,0.037,1.9,0.174,2.389
		C5.963,6.744,5.999,6.876,5.999,7c0,0.276-0.224,0.5-0.5,0.5C5.47,7.525,5.38,7.724,5.38,8s0.09,0.475,0.138,0.504
		c0.002,0,0.005,0,0.007,0c0.254,0,0.475,0.223,0.475,0.496c0,2.09,1.116,2.511,1.164,2.527C7.364,11.598,7.499,11.788,7.499,12v2.5
		c0,0.206-0.124,0.388-0.315,0.464l-4.609,1.835C1.618,17.18,1,18.092,0.999,19.122V21.5H16.999z"/>
	<path d="M19.999,22.5c-0.276,0-0.5-0.224-0.5-0.5s0.224-0.5,0.5-0.5h3v-1.518c0.084-1.193-0.458-2.339-1.416-3.008
		c-1.116-0.716-2.322-1.323-3.576-1.799c-0.52-0.16-0.92-0.631-1.003-1.194c-0.004-0.026-0.005-0.05-0.005-0.073v-1.555
		c0-0.477,0.385-0.829,0.569-0.998c0.578-0.489,0.914-1.19,0.931-1.929V7.722c-1.308-0.29-2.501-1-3.378-2.014
		c-0.087-0.101-0.13-0.23-0.121-0.363c0.01-0.133,0.071-0.255,0.172-0.342c0.091-0.079,0.207-0.122,0.327-0.122
		c0.146,0,0.284,0.063,0.378,0.173c0.82,0.948,1.955,1.573,3.196,1.758c0.243,0.036,0.426,0.249,0.426,0.494v2.13
		c-0.023,1.036-0.486,2.006-1.27,2.669c-0.193,0.177-0.226,0.25-0.232,0.268l0.001,0.276c0.095,0.004,0.189,0.006,0.283,0.006
		c1.191,0,2.366-0.311,3.399-0.899c-0.608-0.677-0.985-1.528-1.143-3.863c-0.259-3.832-2.772-5.198-5.038-5.198
		c-0.226,0-0.455,0.014-0.679,0.042c-0.02,0.003-0.042,0.004-0.063,0.004c-0.251,0-0.464-0.189-0.495-0.439
		c-0.034-0.273,0.161-0.523,0.434-0.557c0.264-0.033,0.534-0.05,0.803-0.05c1.47,0,2.854,0.49,3.898,1.38
		c1.262,1.077,2.001,2.72,2.139,4.75c0.139,2.052,0.431,2.755,0.888,3.276c0.042,0.048,0.078,0.098,0.108,0.149
		c0.136,0.227,0.175,0.495,0.11,0.754c-0.065,0.259-0.227,0.478-0.457,0.615c-1.197,0.682-2.546,1.041-3.906,1.041
		c-0.089,0-0.181-0.002-0.279-0.006v0.21c0.037,0.171,0.166,0.314,0.334,0.366c1.342,0.509,2.618,1.151,3.807,1.914
		c1.257,0.878,1.966,2.361,1.857,3.875L23.999,22c0,0.276-0.224,0.5-0.5,0.5H19.999z"/>
</g>
</svg>
