<svg id="Light" xmlns="http://www.w3.org/2000/svg" viewBox="0 0 24 24"><defs><style>.cls-1{fill:none;stroke:currentColor;stroke-linecap:round;stroke-linejoin:round;}</style></defs><title>single-neutral-actions-chat</title><path class="cls-1" d="M22.5,20.635H18.25L14.906,23.31a.25.25,0,0,1-.406-.2v-2.48h-2a1,1,0,0,1-1-1v-7a1,1,0,0,1,1-1h10a1,1,0,0,1,1,1v7A1,1,0,0,1,22.5,20.635Z"/><line class="cls-1" x1="14.5" y1="14.635" x2="20.5" y2="14.635"/><line class="cls-1" x1="14.5" y1="17.635" x2="18.5" y2="17.635"/><path class="cls-1" d="M9.5,16.635H.5a8.719,8.719,0,0,1,.7-3.322c.49-.981,2.539-1.661,5.111-2.613.695-.258.581-2.074.273-2.413A5.127,5.127,0,0,1,5.244,4.309,3.354,3.354,0,0,1,8.5.635a3.354,3.354,0,0,1,3.256,3.674A5.127,5.127,0,0,1,10.42,8.287a2.654,2.654,0,0,0-.154,1.831"/></svg>