<svg id="Light" xmlns="http://www.w3.org/2000/svg" viewBox="0 0 24 24"><defs><style>.cls-1{fill:none;stroke:currentColor;stroke-linecap:round;stroke-linejoin:round;}</style></defs><title>single-neutral-actions-home</title><g id="_Group_" data-name="&lt;Group&gt;"><path class="cls-1" d="M12.5,16.308V22.5a1,1,0,0,0,1,1h7a1,1,0,0,0,1-1V16.308"/><path class="cls-1" d="M10.5,18l5.854-4.953a1,1,0,0,1,1.292,0L23.5,18"/><path class="cls-1" d="M18.5,23.5h-3v-3a1.5,1.5,0,0,1,3,0Z"/></g><path class="cls-1" d="M8.5,16.5H.5a8.722,8.722,0,0,1,.7-3.322c.49-.981,2.539-1.661,5.111-2.613.695-.258.581-2.073.273-2.412A5.131,5.131,0,0,1,5.244,4.174,3.354,3.354,0,0,1,8.5.5a3.354,3.354,0,0,1,3.256,3.674A5.131,5.131,0,0,1,10.42,8.153c-.308.339-.422,2.154.273,2.412,1.272.471,2.416.875,3.307,1.282"/></svg>