<svg id="Light" xmlns="http://www.w3.org/2000/svg" viewBox="0 0 24 24"><defs><style>.cls-1{fill:none;stroke:currentColor;stroke-linecap:round;stroke-linejoin:round;}</style></defs><title>single-neutral-actions-heart</title><g id="New_Symbol_8" data-name="New Symbol 8"><path class="cls-1" d="M17.861,23.235a.5.5,0,0,1-.722,0l-4.753-4.958a3.027,3.027,0,0,1-.567-3.493h0A3.026,3.026,0,0,1,16.665,14l.835.835L18.335,14a3.026,3.026,0,0,1,4.846.786h0a3.027,3.027,0,0,1-.567,3.493Z"/></g><path class="cls-1" d="M9,16.612H.5a8.719,8.719,0,0,1,.7-3.322c.49-.981,2.539-1.661,5.111-2.614C7,10.419,6.888,8.6,6.58,8.264A5.129,5.129,0,0,1,5.244,4.285,3.353,3.353,0,0,1,8.5.612a3.353,3.353,0,0,1,3.256,3.673A5.129,5.129,0,0,1,10.42,8.264c-.308.339-.422,2.155.273,2.412L12,11.158"/></svg>