<svg id="Light" xmlns="http://www.w3.org/2000/svg" viewBox="0 0 24 24"><defs><style>.cls-1{fill:none;stroke:currentColor;stroke-linecap:round;stroke-linejoin:round;}</style></defs><title>single-neutral-actions-lock</title><g id="_Group_" data-name="&lt;Group&gt;"><rect class="cls-1" x="14.5" y="15.501" width="9" height="7.999" rx="1" ry="1"/><path class="cls-1" d="M19,11.5h0a3,3,0,0,0-3,3v1h6v-1A3,3,0,0,0,19,11.5Z"/><circle class="cls-1" cx="19" cy="19.563" r="1.25"/></g><path class="cls-1" d="M11.5,16.5H.5a8.719,8.719,0,0,1,.7-3.322c.49-.981,2.539-1.661,5.111-2.613.695-.258.581-2.074.273-2.413A5.127,5.127,0,0,1,5.244,4.174,3.354,3.354,0,0,1,8.5.5a3.354,3.354,0,0,1,3.256,3.674A5.127,5.127,0,0,1,10.42,8.152c-.308.339-.422,2.155.273,2.413,1.272.471,2.416.875,3.307,1.282"/></svg>