<svg id="Light" xmlns="http://www.w3.org/2000/svg" viewBox="0 0 24 24"><defs><style>.cls-1{fill:none;stroke:currentColor;stroke-linecap:round;stroke-linejoin:round;}</style></defs><title>single-neutral-actions-star</title><path class="cls-1" d="M18.206,11.93l1.539,3.323H22.74a.735.735,0,0,1,.517,1.283l-2.6,2.563,1.44,3.313a.785.785,0,0,1-1.117.982L17.5,21.433l-3.48,1.961a.785.785,0,0,1-1.117-.982l1.44-3.313-2.6-2.563a.734.734,0,0,1,.514-1.283h3l1.541-3.323A.8.8,0,0,1,18.206,11.93Z"/><path class="cls-1" d="M8.5,16.5H.5a8.719,8.719,0,0,1,.7-3.322c.49-.981,2.539-1.661,5.111-2.613.695-.258.581-2.074.273-2.413A5.127,5.127,0,0,1,5.244,4.174,3.354,3.354,0,0,1,8.5.5a3.354,3.354,0,0,1,3.256,3.674A5.127,5.127,0,0,1,10.42,8.152c-.308.339-.422,2.155.273,2.413,1.273.471,2.417.875,3.308,1.282"/></svg>