<?xml version="1.0" encoding="utf-8"?>
<!-- Generator: Adobe Illustrator 22.1.0, SVG Export Plug-In . SVG Version: 6.00 Build 0)  -->
<svg version="1.1" id="Layer_1" xmlns="http://www.w3.org/2000/svg" xmlns:xlink="http://www.w3.org/1999/xlink" x="0px" y="0px"
	 viewBox="0 0 24 24" style="enable-background:new 0 0 24 24;" xml:space="preserve">
<title>phone-lock-horizontal</title>
<g>
	<path d="M9,16.235c-1.241,0-2.25-1.009-2.25-2.25v-4.5c0-0.96,0.615-1.808,1.5-2.121V6.485c0-2.068,1.682-3.75,3.75-3.75
		c2.068,0,3.75,1.682,3.75,3.75v0.879c0.885,0.314,1.5,1.162,1.5,2.121v4.5c0,1.241-1.009,2.25-2.25,2.25H9z M9,8.735
		c-0.414,0-0.75,0.336-0.75,0.75v4.5c0,0.414,0.336,0.75,0.75,0.75h6c0.414,0,0.75-0.336,0.75-0.75v-4.5
		c0-0.414-0.336-0.75-0.75-0.75H9z M14.25,7.235v-0.75c0-1.241-1.009-2.25-2.25-2.25c-1.241,0-2.25,1.009-2.25,2.25v0.75H14.25z"/>
	<path d="M12,12.89c-0.62,0-1.125-0.505-1.125-1.125c0-0.599,0.469-1.09,1.067-1.121c-0.001,0,0.003,0,0.005,0
		c0.012-0.001,0.019-0.002,0.031-0.003c0,0-0.021,0.001-0.035,0.003c0.018-0.002,0.04-0.004,0.057-0.004
		c0.62,0,1.125,0.505,1.125,1.125C13.125,12.385,12.62,12.89,12,12.89z"/>
	<path d="M4.5,21.265c-2.068,0-3.75-1.682-3.75-3.75v-6c0-2.068,1.682-3.75,3.75-3.75c0.414,0,0.75,0.336,0.75,0.75
		s-0.336,0.75-0.75,0.75c-1.241,0-2.25,1.009-2.25,2.25v6c0,1.241,1.009,2.25,2.25,2.25h12.75v-2.25c0-0.414,0.336-0.75,0.75-0.75
		s0.75,0.336,0.75,0.75v2.25h0.75c1.241,0,2.25-1.009,2.25-2.25v-6c0-1.241-1.009-2.25-2.25-2.25c-0.414,0-0.75-0.336-0.75-0.75
		s0.336-0.75,0.75-0.75c2.068,0,3.75,1.682,3.75,3.75v6c0,2.068-1.682,3.75-3.75,3.75H4.5z"/>
</g>
</svg>
