<?xml version="1.0" encoding="utf-8"?>
<!-- Generator: Adobe Illustrator 22.1.0, SVG Export Plug-In . SVG Version: 6.00 Build 0)  -->
<svg version="1.1" id="Layer_1" xmlns="http://www.w3.org/2000/svg" xmlns:xlink="http://www.w3.org/1999/xlink" x="0px" y="0px"
	 viewBox="0 0 24 24" style="enable-background:new 0 0 24 24;" xml:space="preserve">
<title>phone-expand-1</title>
<g>
	<path d="M9.751,19.5c-1.241,0-2.25-1.009-2.25-2.25V6.75c0-1.241,1.009-2.25,2.25-2.25h4.5c1.241,0,2.25,1.009,2.25,2.25v10.5
		c0,1.241-1.009,2.25-2.25,2.25H9.751z M9.001,17.25c0,0.414,0.336,0.75,0.75,0.75h4.5c0.414,0,0.75-0.336,0.75-0.75V16.5
		L9.001,17.25z M15.001,15V6.75c0-0.414-0.336-0.75-0.75-0.75h-4.5c-0.414,0-0.75,0.336-0.75,0.75L15.001,15z"/>
	<path d="M13.501,3c-0.2,0-0.389-0.078-0.53-0.22l-0.97-0.97l-0.97,0.97C10.89,2.922,10.701,3,10.501,3s-0.389-0.078-0.53-0.22
		c-0.142-0.141-0.22-0.33-0.22-0.53s0.078-0.389,0.22-0.53l1.5-1.5C11.612,0.078,11.801,0,12.001,0s0.389,0.078,0.53,0.22l1.5,1.5
		c0.142,0.141,0.22,0.33,0.22,0.53s-0.078,0.389-0.22,0.53S13.701,3,13.501,3z"/>
	<path d="M12.001,24c-0.2,0-0.389-0.078-0.53-0.22l-1.5-1.5c-0.292-0.292-0.292-0.768,0-1.061c0.142-0.142,0.33-0.22,0.53-0.22
		s0.389,0.078,0.53,0.22l0.97,0.97l0.97-0.97c0.142-0.142,0.33-0.22,0.53-0.22s0.389,0.078,0.53,0.22
		c0.292,0.292,0.292,0.768,0,1.061l-1.5,1.5C12.39,23.922,12.201,24,12.001,24z"/>
	<path d="M20.251,14.25c-0.2,0-0.389-0.078-0.53-0.22c-0.292-0.292-0.292-0.768,0-1.061L20.69,12l-0.97-0.97
		c-0.142-0.141-0.22-0.33-0.22-0.53s0.078-0.389,0.22-0.53s0.33-0.22,0.53-0.22s0.389,0.078,0.53,0.22l1.5,1.5
		c0.142,0.141,0.22,0.33,0.22,0.53s-0.078,0.389-0.22,0.531l-1.5,1.5C20.64,14.172,20.451,14.25,20.251,14.25z"/>
	<path d="M3.751,14.25c-0.2,0-0.389-0.078-0.53-0.22l-1.5-1.5c-0.142-0.142-0.22-0.33-0.22-0.53s0.078-0.389,0.22-0.53l1.5-1.5
		c0.142-0.142,0.33-0.22,0.53-0.22s0.389,0.078,0.53,0.22c0.142,0.141,0.22,0.33,0.22,0.53s-0.078,0.389-0.22,0.53L3.312,12
		l0.97,0.97c0.292,0.292,0.292,0.768,0,1.061C4.14,14.172,3.951,14.25,3.751,14.25z"/>
</g>
</svg>
