<?xml version="1.0" encoding="utf-8"?>
<!-- Generator: Adobe Illustrator 22.1.0, SVG Export Plug-In . SVG Version: 6.00 Build 0)  -->
<svg version="1.1" id="Layer_1" xmlns="http://www.w3.org/2000/svg" xmlns:xlink="http://www.w3.org/1999/xlink" x="0px" y="0px"
	 viewBox="0 0 24 24" style="enable-background:new 0 0 24 24;" xml:space="preserve">
<title>phone-horizontal</title>
<g>
	<path d="M15.75,14.986c-1.241,0-2.25-1.009-2.25-2.25v-4.5c0-0.96,0.615-1.808,1.5-2.121V5.236c0-2.068,1.682-3.75,3.75-3.75
		s3.75,1.682,3.75,3.75v0.879C23.385,6.428,24,7.276,24,8.236v4.5c0,1.241-1.009,2.25-2.25,2.25H15.75z M15.75,7.486
		c-0.414,0-0.75,0.336-0.75,0.75v4.5c0,0.414,0.336,0.75,0.75,0.75h6c0.414,0,0.75-0.336,0.75-0.75v-4.5
		c0-0.414-0.336-0.75-0.75-0.75H15.75z M21,5.986v-0.75c0-1.241-1.009-2.25-2.25-2.25s-2.25,1.009-2.25,2.25v0.75H21z"/>
	<circle cx="18.75" cy="10.515" r="1.125"/>
	<path d="M3.75,22.515c-2.068,0-3.75-1.682-3.75-3.75v-6c0-2.068,1.682-3.75,3.75-3.75h7.5c0.414,0,0.75,0.336,0.75,0.75
		s-0.336,0.75-0.75,0.75h-7.5c-1.241,0-2.25,1.009-2.25,2.25v6c0,1.241,1.009,2.25,2.25,2.25H16.5v-3.75
		c0-0.414,0.336-0.75,0.75-0.75S18,16.851,18,17.265v3.75h0.75c1.241,0,2.25-1.009,2.25-2.25v-1.5c0-0.414,0.336-0.75,0.75-0.75
		s0.75,0.336,0.75,0.75v1.5c0,2.068-1.682,3.75-3.75,3.75H3.75z"/>
</g>
</svg>
