<svg xmlns="http://www.w3.org/2000/svg" viewBox="0 0 24 24"><defs><style>.a{fill:none;stroke:currentColor;stroke-linecap:round;stroke-linejoin:round;stroke-width:1.5px;}</style></defs><title>laptop-lock</title><path class="a" d="M5.25,12.75a1.5,1.5,0,0,1-1.5-1.5v-6a1.5,1.5,0,0,1,1.5-1.5h7.5"/><path class="a" d="M20.068,16.724a1.5,1.5,0,0,1-1.405,2.026H3.751a1.5,1.5,0,0,1-1.4-2.026l1.125-3a1.5,1.5,0,0,1,1.4-.974H17.711a1.5,1.5,0,0,1,1.4.974Z"/><line class="a" x1="9.75" y1="15.75" x2="12.75" y2="15.75"/><rect class="a" x="15.75" y="3.75" width="7.5" height="6" rx="1.5" ry="1.5"/><line class="a" x1="19.5" y1="6.375" x2="19.5" y2="6.375"/><path class="a" d="M19.5,6.375a.375.375,0,1,0,.375.375.375.375,0,0,0-.375-.375"/><line class="a" x1="0.75" y1="23.25" x2="23.25" y2="23.25"/><line class="a" x1="11.25" y1="18.75" x2="11.25" y2="23.25"/><path class="a" d="M17.25,3.75V3a2.25,2.25,0,0,1,4.5,0v.75"/></svg>