<svg xmlns="http://www.w3.org/2000/svg" viewBox="0 0 24 24"><defs><style>.a{fill:none;stroke:currentColor;stroke-linecap:round;stroke-linejoin:round;stroke-width:1.5px;}</style></defs><title>laptop</title><path class="a" d="M18,14.25H6a1.5,1.5,0,0,1-1.4-2.026l1.04-3a1.5,1.5,0,0,1,1.4-.974h9.921a1.5,1.5,0,0,1,1.4.974l1.04,3A1.5,1.5,0,0,1,18,14.25Z"/><line class="a" x1="10.501" y1="11.25" x2="13.501" y2="11.25"/><rect class="a" x="6.001" y="0.75" width="12" height="7.5" rx="1.5" ry="1.5"/><line class="a" x1="0.75" y1="21.75" x2="10.5" y2="21.75"/><line class="a" x1="13.5" y1="21.75" x2="23.25" y2="21.75"/><line class="a" x1="12" y1="17.25" x2="12" y2="20.25"/><circle class="a" cx="12" cy="21.75" r="1.5"/></svg>