<svg xmlns="http://www.w3.org/2000/svg" viewBox="0 0 24 24"><defs><style>.a{fill:none;stroke:currentColor;stroke-linecap:round;stroke-linejoin:round;stroke-width:1.5px;}</style></defs><title>monitor-users</title><polygon class="a" points="15 23.25 9 23.25 9.75 18.75 14.25 18.75 15 23.25"/><line class="a" x1="6.75" y1="23.25" x2="17.25" y2="23.25"/><path class="a" d="M6.75,9h-6V8.25a3,3,0,0,1,3-3h0a3,3,0,0,1,3,3Z"/><circle class="a" cx="3.75" cy="3" r="2.25"/><path class="a" d="M23.25,9h-6V8.25a3,3,0,0,1,3-3h0a3,3,0,0,1,3,3Z"/><circle class="a" cx="20.25" cy="3" r="2.25"/><path class="a" d="M20.25,12v5.25a1.5,1.5,0,0,1-1.5,1.5H5.25a1.5,1.5,0,0,1-1.5-1.5V12"/><line class="a" x1="3.75" y1="15.75" x2="20.25" y2="15.75"/><line class="a" x1="9.75" y1="6.75" x2="14.25" y2="6.75"/></svg>