<svg xmlns="http://www.w3.org/2000/svg" viewBox="0 0 24 24"><defs><style>.a{fill:none;stroke:currentColor;stroke-linecap:round;stroke-linejoin:round;stroke-width:1.5px;}</style></defs><title>network-arrow-sync</title><path class="a" d="M12,6V8.886a1.5,1.5,0,0,1-.668,1.249l-.48.32a1.5,1.5,0,0,0-.51,1.919l.237.474a1.5,1.5,0,0,0,2.013.67l.829-.414a1.5,1.5,0,0,0,.829-1.342V11.52A1.5,1.5,0,0,1,15.276,10.1L17.3,9.178"/><circle class="a" cx="12" cy="12" r="6"/><path class="a" d="M16.068,1.509A11.251,11.251,0,0,0,4.349,20.248"/><polyline class="a" points="4.351 16.649 4.351 20.25 0.75 20.25"/><path class="a" d="M7.932,22.492A11.251,11.251,0,0,0,19.651,3.753"/><polyline class="a" points="19.649 7.352 19.649 3.75 23.25 3.75"/></svg>