<svg xmlns="http://www.w3.org/2000/svg" viewBox="0 0 24 24"><title>cloud-monitor-download</title><path d="M22.884,3.009a3.565,3.565,0,0,0-1.919-.959.248.248,0,0,1-.164-.1A4.684,4.684,0,0,0,17,0a4.612,4.612,0,0,0-4.4,3.137.252.252,0,0,1-.19.168,2.965,2.965,0,0,0-1.307.616,2.84,2.84,0,0,0-1.052,2.2,2.733,2.733,0,0,0,.785,2A3.426,3.426,0,0,0,13.1,9h.018c8.183,0,7.545,0,7.628-.008A3.548,3.548,0,0,0,23.95,5.5,3.438,3.438,0,0,0,22.884,3.009ZM20.545,7H13.1C11.475,7,11.94,5.25,12.989,5.25a1.074,1.074,0,0,1,.2.02,1,1,0,0,0,1.2-.92A2.569,2.569,0,0,1,17,2a2.642,2.642,0,0,1,2.372,1.444A.966.966,0,0,0,20.306,4a1.678,1.678,0,0,1,1.19.445A1.449,1.449,0,0,1,21.95,5.5,1.556,1.556,0,0,1,20.545,7Z"/><path d="M7.55,8.5a1,1,0,0,0-1,1v3.25A.25.25,0,0,1,6.3,13H5.05a.5.5,0,0,0-.353.853l2.5,2.5a.5.5,0,0,0,.707,0l2.5-2.5A.5.5,0,0,0,10.05,13H8.8a.25.25,0,0,1-.25-.25V9.5A1,1,0,0,0,7.55,8.5Z"/><path d="M3.55,12.5a1,1,0,0,0,0-2H2.05a2,2,0,0,0-2,2v6.417a2,2,0,0,0,2,2H6.3a.25.25,0,0,1,.25.25v.583A.25.25,0,0,1,6.3,22H3.55a1,1,0,0,0,0,2h8a1,1,0,0,0,0-2H8.8a.25.25,0,0,1-.25-.25v-.583a.25.25,0,0,1,.25-.25h4.25a2,2,0,0,0,2-2V12.5a2,2,0,0,0-2-2h-1.5a1,1,0,0,0,0,2H12.8a.25.25,0,0,1,.25.25v5a.25.25,0,0,1-.25.25H2.3a.25.25,0,0,1-.25-.25v-5a.25.25,0,0,1,.25-.25Z"/></svg>