<svg xmlns="http://www.w3.org/2000/svg" viewBox="0 0 24 24"><title>cloud-monitor-upload</title><path d="M13.1,9h.019c5.239,0,6.548,0,7.628-.008A3.438,3.438,0,0,0,23.95,5.5a3.436,3.436,0,0,0-1.066-2.49,3.563,3.563,0,0,0-1.919-.96.251.251,0,0,1-.164-.1A4.683,4.683,0,0,0,17,0a4.612,4.612,0,0,0-4.4,3.136.252.252,0,0,1-.19.168,2.956,2.956,0,0,0-1.306.616,2.84,2.84,0,0,0-1.053,2.2,2.736,2.736,0,0,0,.785,2A3.426,3.426,0,0,0,13.1,9ZM12.37,5.468c.612-.5,1.007.1,1.629-.385a1,1,0,0,0,.389-.733A2.569,2.569,0,0,1,17,2a2.641,2.641,0,0,1,2.372,1.443A.986.986,0,0,0,20.306,4a1.628,1.628,0,0,1,1.189.445A1.45,1.45,0,0,1,21.95,5.5a1.557,1.557,0,0,1-1.4,1.5H13.116c-.4,0-1.066-.12-1.066-.877A.843.843,0,0,1,12.37,5.468Z"/><path d="M7.55,14.5a1,1,0,0,0,1-1v-3.25A.25.25,0,0,1,8.8,10h1.25a.5.5,0,0,0,.354-.854l-2.5-2.5a.5.5,0,0,0-.707,0l-2.5,2.5A.5.5,0,0,0,5.05,10H6.3a.25.25,0,0,1,.25.25V13.5A1,1,0,0,0,7.55,14.5Z"/><path d="M.05,18.916a2,2,0,0,0,2,2H6.3a.25.25,0,0,1,.25.25v.583A.25.25,0,0,1,6.3,22H3.55a1,1,0,0,0,0,2h8a1,1,0,0,0,0-2H8.8a.25.25,0,0,1-.25-.25v-.583a.25.25,0,0,1,.25-.25h4.25a2,2,0,0,0,2-2V12.5a2,2,0,0,0-2-2h-1.5a1,1,0,0,0,0,2H12.8a.25.25,0,0,1,.25.25v5a.25.25,0,0,1-.25.25H2.3a.25.25,0,0,1-.25-.25v-5a.25.25,0,0,1,.25-.25H3.55a1,1,0,0,0,0-2H2.05a2,2,0,0,0-2,2Z"/></svg>