<svg xmlns="http://www.w3.org/2000/svg" viewBox="0 0 24 24"><title>cloud-monitor-exchange</title><path d="M4.1,9.3a.5.5,0,0,0,.8,0l1.5-2A.5.5,0,0,0,6,6.5H5.5V4.749a1,1,0,0,1,1-1h2v.5a.5.5,0,0,0,.276.447A.508.508,0,0,0,9,4.749a.5.5,0,0,0,.3-.1l2-1.5a.5.5,0,0,0,0-.8l-2-1.5a.5.5,0,0,0-.8.4v.5h-2a3,3,0,0,0-3,3V6.5H3a.5.5,0,0,0-.4.8Z"/><path d="M23.011,2.938a3.336,3.336,0,0,0-1.883-.907.249.249,0,0,1-.174-.107A4.426,4.426,0,0,0,17.3,0a4.357,4.357,0,0,0-4.2,3.1.25.25,0,0,1-.2.178,2.711,2.711,0,0,0-1.329.586,2.59,2.59,0,0,0-.961,2.01,2.489,2.489,0,0,0,.71,1.821A3.161,3.161,0,0,0,13.4,8.5h.017l7.6-.006A3.3,3.3,0,0,0,24,5.249,3.194,3.194,0,0,0,23.011,2.938ZM20.922,7H13.415C13.106,7,12.1,6.919,12.1,5.874a1.085,1.085,0,0,1,.41-.849,1.218,1.218,0,0,1,.777-.275,1.294,1.294,0,0,1,.254.025.75.75,0,0,0,.9-.689A2.82,2.82,0,0,1,17.3,1.5a2.894,2.894,0,0,1,2.6,1.583.767.767,0,0,0,.7.42,1.826,1.826,0,0,1,1.371.514A1.7,1.7,0,0,1,22.5,5.249,1.625,1.625,0,0,1,20.922,7Z"/><path d="M15,12a2,2,0,0,0-2-2H2a2,2,0,0,0-2,2v6.917a2,2,0,0,0,2,2H6.25a.25.25,0,0,1,.25.25v.583a.25.25,0,0,1-.25.25H3.5a1,1,0,0,0,0,2h8a1,1,0,0,0,0-2H8.75a.25.25,0,0,1-.25-.25v-.583a.25.25,0,0,1,.25-.25H13a2,2,0,0,0,2-2Zm-2.25,0a.25.25,0,0,1,.25.25v5.5a.25.25,0,0,1-.25.25H2.25a.25.25,0,0,1-.25-.25v-5.5A.25.25,0,0,1,2.25,12Z"/></svg>