<svg xmlns="http://www.w3.org/2000/svg" viewBox="0 0 24 24"><title>cloud-smartphone-download</title><path d="M11.647,9.853a.5.5,0,0,0,.707,0l2.5-2.5A.5.5,0,0,0,14.5,6.5H13.25A.25.25,0,0,1,13,6.25V4.5a1,1,0,0,0-2,0V6.25a.25.25,0,0,1-.25.25H9.5a.5.5,0,0,0-.353.853Z"/><path d="M4.953,15.4A1.012,1.012,0,0,0,6,14.386H6a1.019,1.019,0,0,0-.983-1.013c-1.453-.062-1.878-.292-2.378-.783A2.375,2.375,0,0,1,2,10.8,2.588,2.588,0,0,1,4.586,8.217a2.7,2.7,0,0,1,.535.054,1,1,0,0,0,1.2-.963C6.41,1.572,14.617-.065,17.142,5.263a.98.98,0,0,0,.941.571,3.726,3.726,0,0,1,3,1.306,3.882,3.882,0,0,1,.9,2.867A3.7,3.7,0,0,1,19.21,13.26a.983.983,0,0,0-.71.941h0a.986.986,0,0,0,1.288.934A5.538,5.538,0,0,0,24,9.876a5.767,5.767,0,0,0-5.215-6.019.252.252,0,0,1-.191-.12,7.684,7.684,0,0,0-14.1,2.294.251.251,0,0,1-.227.2A4.643,4.643,0,0,0,.624,8.47,4.467,4.467,0,0,0,0,10.918a4.289,4.289,0,0,0,1.235,3.1A5.473,5.473,0,0,0,4.953,15.4Z"/><path d="M17,13.25a1.752,1.752,0,0,0-1.75-1.75h-6A1.752,1.752,0,0,0,7.5,13.25v9A1.752,1.752,0,0,0,9.25,24h6A1.752,1.752,0,0,0,17,22.25Zm-2,7a.25.25,0,0,1-.25.25h-5a.25.25,0,0,1-.25-.25v-6.5a.251.251,0,0,1,.25-.25h5a.25.25,0,0,1,.25.25Z"/></svg>