<svg xmlns="http://www.w3.org/2000/svg" viewBox="0 0 24 24"><title>cloud-settings</title><path d="M2.184,15.683a.947.947,0,0,0,1.392-.709l.012-.084a.921.921,0,0,0-.435-.959,2.18,2.18,0,0,1-.514-.373A2.373,2.373,0,0,1,2,11.773,2.588,2.588,0,0,1,4.586,9.186a2.643,2.643,0,0,1,.535.056,1.009,1.009,0,0,0,.811-.186,1,1,0,0,0,.392-.779C6.4,2.54,14.617.906,17.141,6.232a1.025,1.025,0,0,0,.978.569,3.686,3.686,0,0,1,2.937,1.275,3.8,3.8,0,0,1,.935,2.8,3.429,3.429,0,0,1-1.325,2.607.952.952,0,0,0-.336.949l.01.047a.95.95,0,0,0,1.516.6A5.4,5.4,0,0,0,24,10.729a5.763,5.763,0,0,0-5.218-5.9.25.25,0,0,1-.19-.12A7.684,7.684,0,0,0,4.493,7a.249.249,0,0,1-.227.195A4.646,4.646,0,0,0,.62,9.446,4.479,4.479,0,0,0,0,11.893a4.287,4.287,0,0,0,1.235,3.09A4.277,4.277,0,0,0,2.184,15.683Z"/><circle cx="11.981" cy="16.061" r="1.5"/><path d="M17.984,19.551a1.757,1.757,0,0,0-.235-2.112l-.987-1.064a.464.464,0,0,1,0-.626l.987-1.065a1.783,1.783,0,0,0-1.7-2.953l-1.41.327a.456.456,0,0,1-.534-.311l-.424-1.392a1.775,1.775,0,0,0-3.4,0l-.424,1.392a.45.45,0,0,1-.533.311l-1.411-.327a1.783,1.783,0,0,0-1.7,2.953L7.2,15.749a.464.464,0,0,1,0,.626l-.988,1.064a1.783,1.783,0,0,0,1.7,2.953l1.411-.327a.453.453,0,0,1,.533.311l.424,1.392a1.775,1.775,0,0,0,3.4,0l.424-1.392a.447.447,0,0,1,.533-.311l1.411.327A1.742,1.742,0,0,0,17.984,19.551Zm-6-.49a3,3,0,1,1,3-3A3,3,0,0,1,11.981,19.061Z"/></svg>