<svg xmlns="http://www.w3.org/2000/svg" viewBox="0 0 24 24"><title>cloud-lock</title><path d="M5.5,16.208v-.035a1,1,0,0,0-.883-1,2.877,2.877,0,0,1-1.978-.763A2.371,2.371,0,0,1,2,12.624a2.588,2.588,0,0,1,2.586-2.587,2.635,2.635,0,0,1,.535.056,1.008,1.008,0,0,0,.811-.186,1,1,0,0,0,.392-.779c.081-5.754,8.3-7.363,10.818-2.045a.986.986,0,0,0,.941.571,3.684,3.684,0,0,1,2.973,1.272A3.828,3.828,0,0,1,22,11.6a3.689,3.689,0,0,1-2.788,3.483.982.982,0,0,0-.709.941h0a.978.978,0,0,0,1.248.946A5.56,5.56,0,0,0,24,11.641a5.766,5.766,0,0,0-5.216-5.964.252.252,0,0,1-.191-.12,7.685,7.685,0,0,0-14.1,2.3.251.251,0,0,1-.227.2A4.642,4.642,0,0,0,.62,10.3,4.479,4.479,0,0,0,0,12.744a4.287,4.287,0,0,0,1.235,3.09,5.14,5.14,0,0,0,3.179,1.351A.986.986,0,0,0,5.5,16.208Z"/><path d="M17,15.179a1.52,1.52,0,0,0-1.286-1.485.25.25,0,0,1-.214-.247V12.429a3.5,3.5,0,0,0-7,0v1.018a.25.25,0,0,1-.213.247A1.519,1.519,0,0,0,7,15.179v5.5a1.5,1.5,0,0,0,1.5,1.5h7a1.5,1.5,0,0,0,1.5-1.5Zm-5,4.25a1,1,0,1,1,1-1A1,1,0,0,1,12,19.429Zm-1.5-7a1.5,1.5,0,0,1,3,0v1a.25.25,0,0,1-.25.25h-2.5a.25.25,0,0,1-.25-.25Z"/></svg>