<svg xmlns="http://www.w3.org/2000/svg" viewBox="0 0 24 24"><title>cloud-folder</title><path d="M24,11.657a5.767,5.767,0,0,0-5.215-6,.249.249,0,0,1-.191-.12,7.684,7.684,0,0,0-14.1,2.294.251.251,0,0,1-.227.2A4.643,4.643,0,0,0,.624,10.274,4.47,4.47,0,0,0,0,12.723a4.293,4.293,0,0,0,1.235,3.1,4.906,4.906,0,0,0,2.571,1.27A1,1,0,0,0,5,16.11V16.1a.979.979,0,0,0-.793-.971,2.979,2.979,0,0,1-1.568-.733A2.374,2.374,0,0,1,2,12.609a2.588,2.588,0,0,1,2.586-2.588,2.7,2.7,0,0,1,.535.054.989.989,0,0,0,.811-.184,1,1,0,0,0,.392-.779c.085-5.736,8.293-7.372,10.818-2.044a.974.974,0,0,0,.941.57A3.739,3.739,0,0,1,21.1,8.958a3.888,3.888,0,0,1,.89,2.812,3.425,3.425,0,0,1-1.564,2.718A.966.966,0,0,0,20,15.3h0a1,1,0,0,0,1.56.826A5.408,5.408,0,0,0,24,11.657Z"/><path d="M18.5,14.7a1,1,0,0,0-1-1H13.035a.5.5,0,0,1-.416-.223l-.7-1.055A.5.5,0,0,0,11.5,12.2h-4a1,1,0,0,0-1,1v8a1,1,0,0,0,1,1h10a1,1,0,0,0,1-1Z"/></svg>