<svg xmlns="http://www.w3.org/2000/svg" viewBox="0 0 24 24"><title>cloud-file</title><path d="M24,11.623a5.766,5.766,0,0,0-5.216-5.962.249.249,0,0,1-.191-.12,7.684,7.684,0,0,0-14.1,2.294.251.251,0,0,1-.227.2A4.643,4.643,0,0,0,.624,10.274,4.47,4.47,0,0,0,0,12.723a4.293,4.293,0,0,0,1.235,3.1A5.478,5.478,0,0,0,4.807,17.2h.711a.982.982,0,0,0,.982-.982v-.037a.981.981,0,0,0-.982-.981H4.811a3.571,3.571,0,0,1-2.172-.8A2.374,2.374,0,0,1,2,12.609a2.588,2.588,0,0,1,2.586-2.588,2.7,2.7,0,0,1,.535.054.988.988,0,0,0,.811-.184,1,1,0,0,0,.392-.779c.085-5.736,8.293-7.372,10.818-2.044a.985.985,0,0,0,.941.57,3.775,3.775,0,0,1,3.325,1.731,3.8,3.8,0,0,1-2.2,5.7.983.983,0,0,0-.711.942h0a.977.977,0,0,0,1.248.945A5.559,5.559,0,0,0,24,11.623Z"/><path d="M13.5,15.2a.5.5,0,0,1-.5-.5v-3a.5.5,0,0,0-.5-.5h-4a.5.5,0,0,0-.5.5v10a.5.5,0,0,0,.5.5h8a.5.5,0,0,0,.5-.5v-6a.5.5,0,0,0-.5-.5Z"/><path d="M14.25,14.2H16.1a.25.25,0,0,0,.176-.427l-1.853-1.854a.25.25,0,0,0-.427.177v1.854A.25.25,0,0,0,14.25,14.2Z"/></svg>