<svg xmlns="http://www.w3.org/2000/svg" viewBox="0 0 24 24"><title>cloud-disable</title><path d="M24,11.219a5.765,5.765,0,0,0-5.216-5.952.249.249,0,0,1-.191-.12,7.684,7.684,0,0,0-14.1,2.294.25.25,0,0,1-.227.2A4.642,4.642,0,0,0,.624,9.881,4.467,4.467,0,0,0,0,12.329a4.293,4.293,0,0,0,1.235,3.1,4.624,4.624,0,0,0,1.78,1.062.963.963,0,0,0,1.243-.86l0-.026A.986.986,0,0,0,3.6,14.572,2.58,2.58,0,0,1,2.639,14,2.374,2.374,0,0,1,2,12.215,2.588,2.588,0,0,1,4.586,9.627a2.626,2.626,0,0,1,.535.055,1,1,0,0,0,1.2-.963c.085-5.736,8.293-7.373,10.818-2.045a.974.974,0,0,0,.941.57,3.737,3.737,0,0,1,3,1.309,3.888,3.888,0,0,1,.9,2.812,3.426,3.426,0,0,1-1.473,2.667.973.973,0,0,0-.4.964l.01.059a.968.968,0,0,0,1.525.608A5.4,5.4,0,0,0,24,11.219Z"/><path d="M18.664,16.089a6.5,6.5,0,1,0-6.5,6.5A6.508,6.508,0,0,0,18.664,16.089Zm-6.5,4.5a4.422,4.422,0,0,1-2.1-.532.25.25,0,0,1-.13-.183.253.253,0,0,1,.071-.214l5.727-5.727a.249.249,0,0,1,.214-.07.252.252,0,0,1,.184.129,4.433,4.433,0,0,1,.531,2.1A4.5,4.5,0,0,1,12.164,20.589Zm-4.5-4.5a4.505,4.505,0,0,1,4.5-4.5,4.428,4.428,0,0,1,2.1.533.246.246,0,0,1,.129.184.251.251,0,0,1-.07.213L8.594,18.246a.253.253,0,0,1-.214.071.25.25,0,0,1-.183-.13A4.424,4.424,0,0,1,7.664,16.089Z"/></svg>