<svg xmlns="http://www.w3.org/2000/svg" viewBox="0 0 24 24"><title>cloud-phone-exchange</title><path d="M22.879,3.2a3.749,3.749,0,0,0-2.052-1.014.25.25,0,0,1-.167-.1A4.943,4.943,0,0,0,16.625,0a4.87,4.87,0,0,0-4.663,3.359.253.253,0,0,1-.194.171,3.1,3.1,0,0,0-1.415.653A2.975,2.975,0,0,0,9.25,6.49a2.855,2.855,0,0,0,.82,2.089,3.594,3.594,0,0,0,2.378.921h8.058a1.066,1.066,0,0,0,.126-.008A3.732,3.732,0,0,0,24,5.819,3.6,3.6,0,0,0,22.879,3.2ZM20.43,7.5H12.463c-.453,0-1.213-.137-1.213-1.01a.975.975,0,0,1,.369-.759,1.116,1.116,0,0,1,.707-.25,1.159,1.159,0,0,1,.233.024,1.023,1.023,0,0,0,.807-.188,1,1,0,0,0,.389-.732A2.824,2.824,0,0,1,16.625,2a2.9,2.9,0,0,1,2.606,1.588.963.963,0,0,0,.935.558,1.756,1.756,0,0,1,1.325.5A1.629,1.629,0,0,1,22,5.819,1.735,1.735,0,0,1,20.43,7.5Z"/><path d="M15,17a.5.5,0,0,0-.276-.448.51.51,0,0,0-.524.047l-2,1.5a.5.5,0,0,0,0,.8l2,1.5a.5.5,0,0,0,.3.1.508.508,0,0,0,.224-.053A.5.5,0,0,0,15,20v-.25a.25.25,0,0,1,.25-.25H17a3,3,0,0,0,3-3V15a.25.25,0,0,1,.25-.25h.25a.5.5,0,0,0,.4-.8l-1.5-2a.518.518,0,0,0-.8,0l-1.5,2a.5.5,0,0,0,.4.8h.25A.25.25,0,0,1,18,15v1.5a1,1,0,0,1-1,1H15.25a.25.25,0,0,1-.25-.25Z"/><path d="M7.75,9.5h-6A1.752,1.752,0,0,0,0,11.25v11A1.752,1.752,0,0,0,1.75,24h6A1.752,1.752,0,0,0,9.5,22.25v-11A1.752,1.752,0,0,0,7.75,9.5ZM7.5,20.25a.25.25,0,0,1-.25.25h-5A.25.25,0,0,1,2,20.25v-8.5a.25.25,0,0,1,.25-.25h5a.25.25,0,0,1,.25.25Z"/></svg>