<?xml version="1.0" encoding="utf-8"?>
<!-- Generator: Adobe Illustrator 22.1.0, SVG Export Plug-In . SVG Version: 6.00 Build 0)  -->
<svg version="1.1" id="Layer_1" xmlns="http://www.w3.org/2000/svg" xmlns:xlink="http://www.w3.org/1999/xlink" x="0px" y="0px"
	 viewBox="0 0 24 24" style="enable-background:new 0 0 24 24;" xml:space="preserve">
<g>
	<title>laptop-home</title>
	<path d="M10,15c-0.827,0-1.5-0.673-1.5-1.5v-2.762l-0.171,0.149C8.237,10.967,8.12,11.011,8,11.011
		c-0.144,0-0.281-0.062-0.376-0.171c-0.182-0.207-0.161-0.524,0.047-0.706l3.012-2.636C11.046,7.181,11.514,7.005,12,7.005
		s0.954,0.175,1.317,0.493l3.012,2.636c0.208,0.181,0.229,0.498,0.047,0.705c-0.095,0.109-0.233,0.171-0.376,0.171
		c-0.121,0-0.238-0.044-0.329-0.124L15.5,10.738V13.5c0,0.827-0.673,1.5-1.5,1.5H10z M14,14c0.276,0,0.5-0.224,0.5-0.5V9.863
		l-1.841-1.611C12.477,8.093,12.243,8.005,12,8.005c-0.243,0-0.477,0.088-0.659,0.246L9.5,9.863V13.5c0,0.276,0.224,0.5,0.5,0.5h0.5
		v-1.5c0-0.827,0.673-1.5,1.5-1.5s1.5,0.673,1.5,1.5V14H14z M12.5,14v-1.5c0-0.276-0.224-0.5-0.5-0.5c-0.276,0-0.5,0.224-0.5,0.5V14
		H12.5z"/>
	<path d="M2.694,21c-1.225,0-2.262-0.876-2.466-2.084l-0.221-1.335c-0.024-0.145,0.016-0.293,0.112-0.405
		C0.213,17.064,0.352,17,0.5,17H1V4.5C1,3.673,1.673,3,2.5,3h19C22.327,3,23,3.673,23,4.5V17h0.5c0.148,0,0.287,0.065,0.382,0.177
		c0.094,0.112,0.135,0.259,0.111,0.405l-0.221,1.329C23.57,20.122,22.533,21,21.306,21H2.694z M1.214,18.751
		C1.336,19.475,1.958,20,2.693,20h18.613c0.736,0,1.359-0.527,1.48-1.253L22.91,18H1.089L1.214,18.751z M22,17V4.5
		C22,4.224,21.775,4,21.5,4h-19C2.224,4,2,4.224,2,4.5V17H22z"/>
</g>
</svg>
