<?xml version="1.0" encoding="utf-8"?>
<!-- Generator: Adobe Illustrator 22.1.0, SVG Export Plug-In . SVG Version: 6.00 Build 0)  -->
<svg version="1.1" id="Layer_1" xmlns="http://www.w3.org/2000/svg" xmlns:xlink="http://www.w3.org/1999/xlink" x="0px" y="0px"
	 viewBox="0 0 24 24" style="enable-background:new 0 0 24 24;" xml:space="preserve">
<g>
	<title>laptop-user</title>
	<path d="M2.694,21c-1.225,0-2.262-0.876-2.466-2.084l-0.221-1.335c-0.024-0.145,0.016-0.293,0.112-0.405
		C0.213,17.064,0.352,17,0.5,17H1V4.5C1,3.673,1.673,3,2.5,3h19C22.327,3,23,3.673,23,4.5V17h0.5c0.148,0,0.287,0.065,0.382,0.177
		c0.094,0.112,0.135,0.259,0.111,0.405l-0.221,1.329C23.57,20.122,22.533,21,21.306,21H2.694z M1.214,18.751
		C1.336,19.475,1.958,20,2.693,20h18.613c0.736,0,1.359-0.527,1.48-1.253L22.91,18H1.089L1.214,18.751z M22,17V4.5
		C22,4.224,21.775,4,21.5,4h-19C2.224,4,2,4.224,2,4.5V17H22z"/>
	<path d="M12,10.504c-1.516,0-2.75-1.234-2.75-2.75s1.234-2.75,2.75-2.75s2.75,1.234,2.75,2.75S13.516,10.504,12,10.504z M12,6.004
		c-0.965,0-1.75,0.785-1.75,1.75s0.785,1.75,1.75,1.75c0.965,0,1.75-0.785,1.75-1.75S12.965,6.004,12,6.004z"/>
	<path d="M7.5,15c-0.156,0-0.3-0.071-0.395-0.193c-0.094-0.121-0.128-0.282-0.089-0.43c0.465-1.825,1.888-3.248,3.713-3.713
		c0.417-0.106,0.844-0.16,1.271-0.16c2.353,0,4.403,1.593,4.985,3.874c0.038,0.149,0.004,0.31-0.09,0.43
		C16.801,14.928,16.653,15,16.5,15H7.5z M15.803,14c-0.65-1.507-2.137-2.497-3.804-2.497c-0.343,0-0.688,0.043-1.023,0.129
		C9.72,11.952,8.704,12.825,8.197,14H15.803z"/>
</g>
</svg>
