<?xml version="1.0" encoding="utf-8"?>
<!-- Generator: Adobe Illustrator 22.1.0, SVG Export Plug-In . SVG Version: 6.00 Build 0)  -->
<svg version="1.1" id="Layer_1" xmlns="http://www.w3.org/2000/svg" xmlns:xlink="http://www.w3.org/1999/xlink" x="0px" y="0px"
	 viewBox="0 0 24 24" style="enable-background:new 0 0 24 24;" xml:space="preserve">
<g>
	<title>monitor-play</title>
	<path d="M9.146,13.505c-0.094,0-0.189-0.012-0.281-0.035c-0.297-0.075-0.547-0.26-0.703-0.523C8.056,12.77,8,12.567,8,12.36V6.9
		c0-0.305,0.118-0.592,0.333-0.809c0.216-0.217,0.503-0.336,0.808-0.337c0.203,0,0.401,0.053,0.576,0.154l5.878,2.714
		c0.015,0.007,0.031,0.015,0.047,0.024c0.262,0.157,0.448,0.406,0.523,0.702c0.075,0.297,0.03,0.604-0.127,0.867
		c-0.096,0.161-0.233,0.298-0.395,0.396c-0.014,0.009-0.031,0.018-0.049,0.026l-5.897,2.724C9.543,13.452,9.346,13.505,9.146,13.505
		z M9.144,6.755c-0.039,0-0.074,0.015-0.102,0.042C9.015,6.825,9,6.86,9,6.899v5.461c0,0.026,0.007,0.052,0.021,0.074
		c0.02,0.033,0.051,0.056,0.089,0.066c0.011,0.003,0.023,0.004,0.035,0.004c0.026,0,0.051-0.007,0.074-0.021
		c0.016-0.009,0.029-0.016,0.043-0.023l5.881-2.717c0.014-0.011,0.027-0.025,0.036-0.041c0.02-0.033,0.025-0.071,0.016-0.109
		c-0.008-0.032-0.026-0.059-0.052-0.078L9.266,6.801C9.25,6.793,9.234,6.785,9.219,6.776C9.196,6.762,9.17,6.755,9.144,6.755l0-0.25
		L9.144,6.755z"/>
	<path d="M5,22.504c-0.276,0-0.5-0.224-0.5-0.5s0.224-0.5,0.5-0.5h6v-1H2c-1.103,0-2-0.897-2-2v-15c0-1.103,0.897-2,2-2h20
		c1.103,0,2,0.897,2,2v15c0,1.103-0.897,2-2,2H12v1h7c0.276,0,0.5,0.224,0.5,0.5s-0.224,0.5-0.5,0.5H5z M1,18.504
		c0,0.552,0.449,1,1,1h20c0.552,0,1-0.448,1-1v-2H1V18.504z M23,15.504v-12c0-0.551-0.448-1-1-1H2c-0.551,0-1,0.449-1,1v12H23z"/>
</g>
</svg>
