<?xml version="1.0" encoding="utf-8"?>
<!-- Generator: Adobe Illustrator 22.1.0, SVG Export Plug-In . SVG Version: 6.00 Build 0)  -->
<svg version="1.1" id="Layer_1" xmlns="http://www.w3.org/2000/svg" xmlns:xlink="http://www.w3.org/1999/xlink" x="0px" y="0px"
	 viewBox="0 0 24 24" style="enable-background:new 0 0 24 24;" xml:space="preserve">
<g>
	<title>monitor-movie</title>
	<path d="M16.499,14.004c-0.276,0-0.5-0.224-0.5-0.5v-1h-7v1c0,0.276-0.224,0.5-0.5,0.5s-0.5-0.224-0.5-0.5v-9
		c0-0.276,0.224-0.5,0.5-0.5s0.5,0.224,0.5,0.5v1h7v-1c0-0.276,0.224-0.5,0.5-0.5s0.5,0.224,0.5,0.5v9
		C16.999,13.78,16.775,14.004,16.499,14.004z M15.999,11.504v-5h-7v5H15.999z"/>
	<path d="M4.499,14.004c-0.276,0-0.5-0.224-0.5-0.5v-9c0-0.276,0.224-0.5,0.5-0.5s0.5,0.224,0.5,0.5v9
		C4.999,13.78,4.775,14.004,4.499,14.004z"/>
	<path d="M20.499,14.004c-0.276,0-0.5-0.224-0.5-0.5v-9c0-0.276,0.224-0.5,0.5-0.5s0.5,0.224,0.5,0.5v9
		C20.999,13.78,20.775,14.004,20.499,14.004z"/>
	<path d="M6.499,6.504c-0.276,0-0.5-0.224-0.5-0.5v-1.5c0-0.276,0.224-0.5,0.5-0.5s0.5,0.224,0.5,0.5v1.5
		C6.999,6.28,6.775,6.504,6.499,6.504z"/>
	<path d="M6.499,10.004c-0.276,0-0.5-0.224-0.5-0.5v-1.5c0-0.276,0.224-0.5,0.5-0.5s0.5,0.224,0.5,0.5v1.5
		C6.999,9.78,6.775,10.004,6.499,10.004z"/>
	<path d="M6.499,13.504c-0.276,0-0.5-0.224-0.5-0.5v-1.5c0-0.276,0.224-0.5,0.5-0.5s0.5,0.224,0.5,0.5v1.5
		C6.999,13.28,6.775,13.504,6.499,13.504z"/>
	<path d="M18.499,6.504c-0.276,0-0.5-0.224-0.5-0.5v-1.5c0-0.276,0.224-0.5,0.5-0.5s0.5,0.224,0.5,0.5v1.5
		C18.999,6.28,18.775,6.504,18.499,6.504z"/>
	<path d="M18.499,10.004c-0.276,0-0.5-0.224-0.5-0.5v-1.5c0-0.276,0.224-0.5,0.5-0.5s0.5,0.224,0.5,0.5v1.5
		C18.999,9.78,18.775,10.004,18.499,10.004z"/>
	<path d="M18.499,13.504c-0.276,0-0.5-0.224-0.5-0.5v-1.5c0-0.276,0.224-0.5,0.5-0.5s0.5,0.224,0.5,0.5v1.5
		C18.999,13.28,18.775,13.504,18.499,13.504z"/>
	<path d="M5,22.504c-0.276,0-0.5-0.224-0.5-0.5s0.224-0.5,0.5-0.5h6v-1H2c-1.103,0-2-0.897-2-2v-15c0-1.103,0.897-2,2-2h20
		c1.103,0,2,0.897,2,2v15c0,1.103-0.897,2-2,2H12v1h7c0.276,0,0.5,0.224,0.5,0.5s-0.224,0.5-0.5,0.5H5z M1,18.504
		c0,0.552,0.449,1,1,1h20c0.552,0,1-0.448,1-1v-2H1V18.504z M23,15.504v-12c0-0.551-0.448-1-1-1H2c-0.551,0-1,0.449-1,1v12H23z"/>
</g>
</svg>
