<?xml version="1.0" encoding="utf-8"?>
<!-- Generator: Adobe Illustrator 22.1.0, SVG Export Plug-In . SVG Version: 6.00 Build 0)  -->
<svg version="1.1" id="Layer_1" xmlns="http://www.w3.org/2000/svg" xmlns:xlink="http://www.w3.org/1999/xlink" x="0px" y="0px"
	 viewBox="0 0 24 24" style="enable-background:new 0 0 24 24;" xml:space="preserve">
<g>
	<title>monitor-heart</title>
	<path d="M12,13.5c-0.135,0-0.267-0.056-0.361-0.154L8.23,9.793C7.469,9.032,7.281,7.866,7.766,6.895
		c0.301-0.601,0.818-1.049,1.456-1.262c0.259-0.086,0.528-0.13,0.798-0.13c0.392,0,0.77,0.09,1.124,0.267
		c0.243,0.122,0.462,0.28,0.654,0.471L12,6.445l0.203-0.203c0.475-0.475,1.107-0.736,1.78-0.736s1.305,0.261,1.78,0.736
		c0.192,0.192,0.351,0.412,0.471,0.654c0.485,0.971,0.295,2.138-0.472,2.905l-3.402,3.546C12.267,13.444,12.135,13.5,12,13.5z
		 M10.019,6.503c-0.163,0-0.325,0.026-0.481,0.079C9.153,6.71,8.841,6.98,8.66,7.343C8.368,7.927,8.482,8.631,8.944,9.093L12,12.278
		l3.048-3.177c0.468-0.468,0.584-1.173,0.292-1.758c-0.073-0.146-0.168-0.278-0.284-0.394c-0.287-0.287-0.668-0.444-1.073-0.444
		c-0.405,0-0.786,0.158-1.073,0.444l-0.557,0.557C12.262,7.597,12.133,7.649,12,7.649s-0.262-0.052-0.354-0.144l-0.557-0.557
		c-0.115-0.115-0.248-0.211-0.394-0.284C10.482,6.558,10.254,6.503,10.019,6.503z"/>
	<path d="M5,22.504c-0.276,0-0.5-0.224-0.5-0.5s0.224-0.5,0.5-0.5h6v-1H2c-1.103,0-2-0.897-2-2v-15c0-1.103,0.897-2,2-2h20
		c1.103,0,2,0.897,2,2v15c0,1.103-0.897,2-2,2H12v1h7c0.276,0,0.5,0.224,0.5,0.5s-0.224,0.5-0.5,0.5H5z M1,18.504
		c0,0.552,0.449,1,1,1h20c0.552,0,1-0.448,1-1v-2H1V18.504z M23,15.504v-12c0-0.551-0.448-1-1-1H2c-0.551,0-1,0.449-1,1v12H23z"/>
</g>
</svg>
