<?xml version="1.0" encoding="utf-8"?>
<!-- Generator: Adobe Illustrator 22.1.0, SVG Export Plug-In . SVG Version: 6.00 Build 0)  -->
<svg version="1.1" id="Layer_1" xmlns="http://www.w3.org/2000/svg" xmlns:xlink="http://www.w3.org/1999/xlink" x="0px" y="0px"
	 viewBox="0 0 24 24" style="enable-background:new 0 0 24 24;" xml:space="preserve">
<title>email-action-upload</title>
<g>
	<path d="M2.25,24C1.009,24,0,22.991,0,21.75v-10.5C0,10.01,1.009,9,2.25,9H9c0.414,0,0.75,0.336,0.75,0.75S9.414,10.5,9,10.5H2.25
		c-0.414,0-0.75,0.336-0.75,0.75v0.315l9.472,5.412c0.311,0.178,0.666,0.271,1.028,0.271s0.717-0.094,1.028-0.271l9.472-5.412V11.25
		c0-0.414-0.336-0.75-0.75-0.75H15c-0.414,0-0.75-0.336-0.75-0.75S14.586,9,15,9h6.75C22.991,9,24,10.01,24,11.25v10.5
		c0,1.241-1.009,2.25-2.25,2.25H2.25z M1.5,21.75c0,0.414,0.336,0.75,0.75,0.75h19.5c0.414,0,0.75-0.336,0.75-0.75v-8.458
		l-8.728,4.987c-0.536,0.306-1.149,0.468-1.772,0.468c-0.623,0-1.235-0.162-1.772-0.468L1.5,13.293V21.75z"/>
	<path d="M12,13.5c-0.414,0-0.75-0.336-0.75-0.75V2.311L8.719,4.336C8.587,4.442,8.42,4.5,8.25,4.5l0,0
		c-0.229,0-0.443-0.103-0.586-0.282C7.406,3.896,7.458,3.423,7.781,3.164l3.75-3c0.011-0.009,0.023-0.017,0.035-0.025
		c0.053-0.038,0.112-0.069,0.174-0.092c0.009-0.003,0.03-0.01,0.039-0.013C11.854,0.012,11.926,0.001,11.998,0
		c0.077,0,0.149,0.012,0.224,0.035c0.009,0.003,0.036,0.011,0.044,0.015c0.055,0.02,0.112,0.05,0.166,0.089
		c0.013,0.008,0.025,0.017,0.036,0.026l3.75,3c0.323,0.258,0.375,0.731,0.117,1.054C16.193,4.398,15.979,4.5,15.75,4.5
		c-0.169,0-0.335-0.058-0.468-0.164L12.75,2.311V12.75C12.75,13.164,12.414,13.5,12,13.5z"/>
</g>
</svg>
