<?xml version="1.0" encoding="utf-8"?>
<!-- Generator: Adobe Illustrator 22.1.0, SVG Export Plug-In . SVG Version: 6.00 Build 0)  -->
<svg version="1.1" id="Layer_1" xmlns="http://www.w3.org/2000/svg" xmlns:xlink="http://www.w3.org/1999/xlink" x="0px" y="0px"
	 viewBox="0 0 24 24" style="enable-background:new 0 0 24 24;" xml:space="preserve">
<title>email-action-search</title>
<g>
	<path d="M23.249,24c-0.2,0-0.389-0.078-0.53-0.22l-3.293-3.293c-1.051,0.817-2.343,1.263-3.677,1.263c-3.308,0-6-2.692-6-6
		s2.692-6,6-6s6,2.692,6,6c0,1.333-0.446,2.626-1.263,3.677l3.293,3.293c0.292,0.292,0.292,0.768,0,1.061
		C23.638,23.922,23.45,24,23.249,24z M15.749,11.25c-2.481,0-4.5,2.019-4.5,4.5s2.019,4.5,4.5,4.5s4.5-2.019,4.5-4.5
		S18.231,11.25,15.749,11.25z"/>
	<path d="M2.249,16.5c-1.241,0-2.25-1.009-2.25-2.25v-12c0-0.504,0.164-0.981,0.476-1.38C0.482,0.859,0.49,0.847,0.497,0.839
		C0.503,0.831,0.512,0.821,0.52,0.812C0.954,0.294,1.581,0,2.249,0h18c0.671,0,1.301,0.296,1.731,0.814
		c0.01,0.01,0.019,0.022,0.026,0.031c0.006,0.007,0.012,0.017,0.018,0.026c0.311,0.399,0.475,0.875,0.475,1.379v7.5
		c0,0.414-0.336,0.75-0.75,0.75s-0.75-0.336-0.75-0.75V2.562l-7.276,5.596c-0.704,0.542-1.583,0.841-2.474,0.841
		c-0.891,0-1.77-0.299-2.474-0.841L1.499,2.562V14.25c0,0.414,0.336,0.75,0.75,0.75h5.25c0.414,0,0.75,0.336,0.75,0.75
		s-0.336,0.75-0.75,0.75H2.249z M9.69,6.969c0.444,0.342,0.998,0.53,1.56,0.53s1.116-0.188,1.559-0.53L19.92,1.5H2.579L9.69,6.969z"
		/>
</g>
</svg>
