<?xml version="1.0" encoding="utf-8"?>
<!-- Generator: Adobe Illustrator 22.1.0, SVG Export Plug-In . SVG Version: 6.00 Build 0)  -->
<svg version="1.1" id="Layer_1" xmlns="http://www.w3.org/2000/svg" xmlns:xlink="http://www.w3.org/1999/xlink" x="0px" y="0px"
	 viewBox="0 0 24 24" style="enable-background:new 0 0 24 24;" xml:space="preserve">
<title>email-action-cash</title>
<g>
	<path d="M3,24.002c-1.241,0-2.25-1.009-2.25-2.25v-9.7c0.001-0.827,0.674-1.499,1.5-1.499l0.029,0c0.313,0,0.643,0.119,0.903,0.325
		l0.568,0.451V2.25C3.75,1.009,4.759,0,6,0h12c1.241,0,2.25,1.009,2.25,2.25v9.078l0.568-0.45c0.264-0.209,0.595-0.324,0.931-0.324
		c0.462,0,0.89,0.207,1.177,0.568c0.209,0.264,0.324,0.594,0.325,0.93v9.701c0,1.241-1.009,2.25-2.25,2.25H3z M2.25,21.752
		c0,0.414,0.336,0.75,0.75,0.75h18c0.414,0,0.75-0.336,0.75-0.75v-9.7l-7.431,5.894c-0.662,0.52-1.485,0.805-2.32,0.805
		c-0.834,0-1.656-0.285-2.316-0.803L2.25,12.053L2.25,21.752z M10.613,16.771c0.4,0.313,0.88,0.48,1.386,0.48
		c0.508,0,0.989-0.167,1.39-0.482l5.36-4.251V2.25c0-0.414-0.336-0.75-0.75-0.75H6c-0.414,0-0.75,0.336-0.75,0.75v10.268
		L10.613,16.771z"/>
	<path d="M12,13.5c-0.414,0-0.75-0.336-0.75-0.75v-0.354c-0.674-0.154-1.282-0.543-1.705-1.099
		c-0.121-0.159-0.173-0.356-0.146-0.555c0.027-0.199,0.13-0.375,0.289-0.496c0.131-0.1,0.288-0.153,0.453-0.153
		c0.233,0,0.457,0.111,0.597,0.296c0.276,0.364,0.715,0.581,1.172,0.581l0.058-0.001c0.775,0,1.342-0.422,1.342-0.798
		c0-0.376-0.561-0.796-1.312-0.796c-1.551,0-2.813-1.031-2.813-2.298c0-1.052,0.85-1.943,2.063-2.213V4.5
		c0-0.414,0.336-0.75,0.75-0.75s0.75,0.336,0.75,0.75v0.355c0.675,0.154,1.283,0.542,1.705,1.097
		c0.25,0.329,0.186,0.801-0.143,1.051c-0.132,0.1-0.289,0.153-0.454,0.153c-0.234,0-0.457-0.111-0.598-0.296
		c-0.276-0.363-0.716-0.58-1.176-0.58L12.029,6.28c-0.774,0-1.342,0.422-1.342,0.798c0,0.377,0.562,0.798,1.313,0.798
		c1.551,0,2.812,1.03,2.812,2.296c0,1.052-0.849,1.943-2.062,2.213v0.365C12.75,13.164,12.414,13.5,12,13.5z"/>
</g>
</svg>
