<?xml version="1.0" encoding="utf-8"?>
<!-- Generator: Adobe Illustrator 22.1.0, SVG Export Plug-In . SVG Version: 6.00 Build 0)  -->
<svg version="1.1" id="Layer_1" xmlns="http://www.w3.org/2000/svg" xmlns:xlink="http://www.w3.org/1999/xlink" x="0px" y="0px"
	 viewBox="0 0 24 24" style="enable-background:new 0 0 24 24;" xml:space="preserve">
<title>email-action-reply-2</title>
<g>
	<path d="M17.25,24c-3.722,0-6.75-3.028-6.75-6.75s3.028-6.75,6.75-6.75S24,13.528,24,17.25S20.972,24,17.25,24z M17.25,12
		C14.355,12,12,14.355,12,17.25s2.355,5.25,5.25,5.25s5.25-2.355,5.25-5.25S20.145,12,17.25,12z"/>
	<path d="M16.5,20.25c-0.2,0-0.389-0.078-0.53-0.22l-2.25-2.25c-0.07-0.07-0.125-0.152-0.163-0.245
		c-0.003-0.008-0.007-0.017-0.01-0.026c-0.031-0.082-0.047-0.17-0.047-0.259c0-0.087,0.016-0.174,0.046-0.258
		c0.002-0.006,0.004-0.011,0.006-0.017c0.042-0.104,0.097-0.186,0.167-0.256l2.25-2.25c0.142-0.142,0.33-0.22,0.53-0.22
		s0.389,0.078,0.53,0.22c0.292,0.292,0.292,0.768,0,1.061l-0.97,0.97h4.189c0.414,0,0.75,0.336,0.75,0.75S20.664,18,20.25,18h-4.189
		l0.97,0.97c0.292,0.292,0.292,0.768,0,1.061C16.889,20.172,16.7,20.25,16.5,20.25z"/>
	<path d="M2.25,16.5C1.009,16.5,0,15.491,0,14.25v-12c0-0.504,0.164-0.981,0.476-1.38c0.007-0.011,0.015-0.022,0.022-0.031
		c0.006-0.008,0.015-0.018,0.023-0.027C0.954,0.294,1.582,0,2.25,0h18c0.671,0,1.301,0.296,1.731,0.814
		c0.01,0.01,0.019,0.022,0.026,0.031c0.006,0.007,0.012,0.017,0.018,0.026C22.336,1.27,22.5,1.746,22.5,2.25V9
		c0,0.414-0.336,0.75-0.75,0.75S21,9.414,21,9V2.562l-7.276,5.596C13.02,8.7,12.141,8.999,11.25,8.999
		c-0.891,0-1.77-0.299-2.474-0.841L1.5,2.562V14.25C1.5,14.664,1.836,15,2.25,15h6C8.664,15,9,15.336,9,15.75S8.664,16.5,8.25,16.5
		H2.25z M9.69,6.969c0.444,0.342,0.998,0.53,1.56,0.53s1.116-0.188,1.559-0.53L19.921,1.5H2.579L9.69,6.969z"/>
</g>
</svg>
