<?xml version="1.0" encoding="utf-8"?>
<!-- Generator: Adobe Illustrator 22.1.0, SVG Export Plug-In . SVG Version: 6.00 Build 0)  -->
<svg version="1.1" id="Layer_1" xmlns="http://www.w3.org/2000/svg" xmlns:xlink="http://www.w3.org/1999/xlink" x="0px" y="0px"
	 viewBox="0 0 24 24" style="enable-background:new 0 0 24 24;" xml:space="preserve">
<title>email-action-music</title>
<g>
	<path d="M3,24.002c-1.241,0-2.25-1.009-2.25-2.25v-9.7c0.001-0.827,0.674-1.499,1.5-1.499l0.029,0c0.313,0,0.643,0.119,0.903,0.325
		l0.568,0.451V2.25C3.75,1.009,4.759,0,6,0h12c1.241,0,2.25,1.009,2.25,2.25v9.078l0.568-0.45c0.264-0.209,0.595-0.324,0.931-0.324
		c0.462,0,0.89,0.207,1.177,0.568c0.209,0.264,0.324,0.594,0.325,0.93v9.701c0,1.241-1.009,2.25-2.25,2.25H3z M2.25,21.752
		c0,0.414,0.336,0.75,0.75,0.75h18c0.414,0,0.75-0.336,0.75-0.75v-9.7l-7.431,5.894c-0.662,0.52-1.485,0.805-2.32,0.805
		c-0.834,0-1.656-0.285-2.316-0.803L2.25,12.053L2.25,21.752z M10.613,16.771c0.4,0.313,0.88,0.48,1.386,0.48
		c0.508,0,0.989-0.167,1.39-0.482l5.36-4.251V2.25c0-0.414-0.336-0.75-0.75-0.75H6c-0.414,0-0.75,0.336-0.75,0.75v10.268
		L10.613,16.771z"/>
	<path d="M8.999,13.551c-1.241,0-2.25-1.009-2.25-2.25c0-1.241,1.009-2.25,2.25-2.25c0.259,0,0.512,0.044,0.751,0.13V5.722
		c0-1.034,0.701-1.932,1.704-2.182l3-0.75C14.632,2.745,14.815,2.722,15,2.722c0.601,0,1.166,0.234,1.591,0.659
		c0.425,0.425,0.659,0.99,0.659,1.591V9.8c0,0.011-0.001,0.027-0.002,0.041c-0.021,1.22-1.026,2.21-2.249,2.21
		c-1.241,0-2.25-1.009-2.25-2.25s1.009-2.25,2.25-2.25c0.259,0,0.512,0.044,0.751,0.13V4.972c0-0.2-0.078-0.389-0.22-0.53
		S15.2,4.222,15,4.222c-0.062,0-0.123,0.007-0.182,0.022l-3,0.75c-0.334,0.084-0.568,0.383-0.568,0.728V11.3
		c0,0.011-0.001,0.027-0.002,0.041C11.232,12.555,10.225,13.551,8.999,13.551z M8.999,10.551c-0.414,0-0.75,0.336-0.75,0.75
		s0.336,0.75,0.75,0.75s0.75-0.336,0.75-0.75S9.413,10.551,8.999,10.551z M14.999,9.051c-0.414,0-0.75,0.336-0.75,0.75
		s0.336,0.75,0.75,0.75s0.75-0.336,0.75-0.75S15.413,9.051,14.999,9.051z"/>
</g>
</svg>
