<?xml version="1.0" encoding="utf-8"?>
<!-- Generator: Adobe Illustrator 22.1.0, SVG Export Plug-In . SVG Version: 6.00 Build 0)  -->
<svg version="1.1" id="Layer_1" xmlns="http://www.w3.org/2000/svg" xmlns:xlink="http://www.w3.org/1999/xlink" x="0px" y="0px"
	 viewBox="0 0 24 24" style="enable-background:new 0 0 24 24;" xml:space="preserve">
<title>email-action-read</title>
<g>
	<path d="M3,23.5c-1.241,0-2.25-1.009-2.25-2.25V10c0-0.014,0.001-0.029,0.003-0.044c0.003-0.058,0.012-0.109,0.026-0.158
		c0.004-0.013,0.011-0.033,0.015-0.045c0.01-0.033,0.032-0.082,0.059-0.129c0.004-0.007,0.022-0.036,0.027-0.043
		C0.907,9.54,0.94,9.5,0.976,9.465C0.987,9.453,1,9.441,1.012,9.43l8.273-7.27c0.05-0.053,0.102-0.104,0.155-0.154
		c0.697-0.651,1.607-1.009,2.561-1.009c0.042,0,0.084,0.001,0.126,0.002c0.988,0.034,1.905,0.446,2.586,1.161l8.281,7.277
		c0.01,0.009,0.035,0.035,0.038,0.038c0.038,0.039,0.066,0.073,0.09,0.111c0.005,0.008,0.023,0.037,0.028,0.046
		c0.023,0.039,0.045,0.088,0.061,0.138c0.007,0.017,0.008,0.021,0.012,0.039c0.012,0.042,0.021,0.096,0.023,0.153
		C23.249,9.974,23.25,9.988,23.25,10v11.25c0,1.241-1.009,2.25-2.25,2.25H3z M2.25,21.25C2.25,21.663,2.586,22,3,22h18
		c0.414,0,0.75-0.336,0.75-0.75v-9.698l-4.816,3.82l2.347,2.347c0.142,0.142,0.22,0.33,0.22,0.53s-0.078,0.389-0.22,0.53
		S18.95,19,18.75,19s-0.389-0.078-0.53-0.22l-2.469-2.469l-1.432,1.135c-0.662,0.52-1.485,0.805-2.32,0.805
		c-0.834,0-1.656-0.285-2.315-0.803l-1.434-1.138L5.78,18.78C5.639,18.922,5.45,19,5.25,19s-0.389-0.078-0.53-0.22
		c-0.142-0.142-0.22-0.33-0.22-0.53s0.078-0.389,0.22-0.53l2.347-2.347l-4.817-3.82V21.25z M10.613,16.272
		c0.4,0.313,0.88,0.48,1.386,0.48c0.508,0,0.989-0.167,1.39-0.482l7.94-6.299l-7.632-6.707c-0.018-0.016-0.035-0.033-0.052-0.05
		c-0.412-0.441-0.969-0.694-1.569-0.715c-0.026-0.001-0.052-0.001-0.078-0.001c-0.571,0-1.116,0.215-1.535,0.605
		c-0.037,0.035-0.074,0.071-0.109,0.109c-0.016,0.017-0.034,0.034-0.051,0.05L2.67,9.97L10.613,16.272z"/>
</g>
</svg>
