<?xml version="1.0" encoding="utf-8"?>
<!-- Generator: Adobe Illustrator 22.1.0, SVG Export Plug-In . SVG Version: 6.00 Build 0)  -->
<svg version="1.1" id="Layer_1" xmlns="http://www.w3.org/2000/svg" xmlns:xlink="http://www.w3.org/1999/xlink" x="0px" y="0px"
	 viewBox="0 0 24 24" style="enable-background:new 0 0 24 24;" xml:space="preserve">
<title>email-action-read-document</title>
<g>
	<path d="M3,24.002c-1.241,0-2.25-1.009-2.25-2.25v-9.7c0.001-0.827,0.674-1.499,1.5-1.499l0.029,0c0.313,0,0.643,0.119,0.903,0.325
		l0.568,0.451V2.25C3.75,1.009,4.759,0,6,0h12c1.241,0,2.25,1.009,2.25,2.25v9.078l0.568-0.45c0.264-0.209,0.595-0.324,0.931-0.324
		c0.462,0,0.89,0.207,1.177,0.568c0.209,0.264,0.324,0.594,0.325,0.93v9.701c0,1.241-1.009,2.25-2.25,2.25H3z M2.25,21.752
		c0,0.414,0.336,0.75,0.75,0.75h18c0.414,0,0.75-0.336,0.75-0.75v-9.7l-7.431,5.894c-0.662,0.52-1.485,0.805-2.32,0.805
		c-0.834,0-1.656-0.285-2.316-0.803L2.25,12.053L2.25,21.752z M10.613,16.771c0.4,0.313,0.88,0.48,1.386,0.48
		c0.508,0,0.989-0.167,1.39-0.482l5.36-4.251V2.25c0-0.414-0.336-0.75-0.75-0.75H6c-0.414,0-0.75,0.336-0.75,0.75v10.268
		L10.613,16.771z"/>
	<path d="M8.25,6C7.836,6,7.5,5.664,7.5,5.25S7.836,4.5,8.25,4.5h3C11.664,4.5,12,4.836,12,5.25S11.664,6,11.25,6H8.25z"/>
	<path d="M8.25,9C7.836,9,7.5,8.664,7.5,8.25S7.836,7.5,8.25,7.5h7.5c0.414,0,0.75,0.336,0.75,0.75S16.164,9,15.75,9H8.25z"/>
	<path d="M8.25,12c-0.414,0-0.75-0.336-0.75-0.75s0.336-0.75,0.75-0.75h7.5c0.414,0,0.75,0.336,0.75,0.75S16.164,12,15.75,12H8.25z"
		/>
</g>
</svg>
