<?xml version="1.0" encoding="utf-8"?>
<!-- Generator: Adobe Illustrator 22.1.0, SVG Export Plug-In . SVG Version: 6.00 Build 0)  -->
<svg version="1.1" id="Layer_1" xmlns="http://www.w3.org/2000/svg" xmlns:xlink="http://www.w3.org/1999/xlink" x="0px" y="0px"
	 viewBox="0 0 24 24" style="enable-background:new 0 0 24 24;" xml:space="preserve">
<title>email-action-image</title>
<g>
	<path d="M3,24.002c-1.241,0-2.25-1.009-2.25-2.25v-9.7c0.001-0.827,0.674-1.499,1.5-1.499l0.029,0c0.313,0,0.643,0.119,0.903,0.325
		l0.568,0.451V2.25C3.75,1.009,4.759,0,6,0h12c1.241,0,2.25,1.009,2.25,2.25v9.078l0.568-0.45c0.264-0.209,0.595-0.324,0.931-0.324
		c0.462,0,0.89,0.207,1.177,0.568c0.209,0.264,0.324,0.594,0.325,0.93v9.701c0,1.241-1.009,2.25-2.25,2.25H3z M2.25,21.752
		c0,0.414,0.336,0.75,0.75,0.75h18c0.414,0,0.75-0.336,0.75-0.75v-9.7l-7.431,5.894c-0.662,0.52-1.485,0.805-2.32,0.805
		c-0.834,0-1.656-0.285-2.316-0.803L2.25,12.053L2.25,21.752z M10.613,16.771c0.4,0.313,0.88,0.48,1.386,0.48
		c0.508,0,0.989-0.167,1.39-0.482l5.36-4.251V2.25c0-0.414-0.336-0.75-0.75-0.75H6c-0.414,0-0.75,0.336-0.75,0.75v10.268
		L10.613,16.771z"/>
	<path d="M9,7.5c-1.241,0-2.25-1.009-2.25-2.25S7.759,3,9,3s2.25,1.009,2.25,2.25S10.241,7.5,9,7.5z M9,4.5
		c-0.414,0-0.75,0.336-0.75,0.75S8.586,6,9,6s0.75-0.336,0.75-0.75S9.414,4.5,9,4.5z"/>
	<path d="M9,13.5c-0.267,0-0.516-0.144-0.65-0.375c-0.134-0.232-0.133-0.52,0.001-0.751l2.55-4.4
		c0.015-0.025,0.031-0.049,0.048-0.073c0.362-0.482,0.888-0.794,1.483-0.879C12.539,7.007,12.647,7,12.754,7
		c0.488,0,0.953,0.156,1.346,0.45c0.171,0.128,0.322,0.28,0.45,0.45c0.019,0.026,0.035,0.05,0.05,0.076l2.549,4.398
		c0.134,0.231,0.134,0.519,0.001,0.75c-0.133,0.232-0.382,0.376-0.65,0.376H9z M15.198,12l-1.871-3.229
		C13.29,8.726,13.247,8.685,13.2,8.65C13.069,8.552,12.915,8.5,12.753,8.5c-0.036,0-0.072,0.003-0.108,0.008
		c-0.186,0.026-0.353,0.12-0.471,0.263L10.302,12H15.198z"/>
</g>
</svg>
