<?xml version="1.0" encoding="utf-8"?>
<!-- Generator: Adobe Illustrator 22.1.0, SVG Export Plug-In . SVG Version: 6.00 Build 0)  -->
<svg version="1.1" id="Layer_1" xmlns="http://www.w3.org/2000/svg" xmlns:xlink="http://www.w3.org/1999/xlink" x="0px" y="0px"
	 viewBox="0 0 24 24" style="enable-background:new 0 0 24 24;" xml:space="preserve">
<title>email-action-sync-1</title>
<g>
	<path d="M17.4,24.006c-0.695,0-1.385-0.116-2.052-0.344c-1.419-0.486-2.592-1.442-3.348-2.686v1.525c0,0.414-0.336,0.75-0.75,0.75
		s-0.75-0.336-0.75-0.75v-3.75c0-0.414,0.336-0.75,0.75-0.75H15c0.414,0,0.75,0.336,0.75,0.75s-0.336,0.75-0.75,0.75h-2.067
		c0.524,1.283,1.579,2.289,2.9,2.741c0.509,0.174,1.036,0.262,1.566,0.262c0.735,0,1.448-0.167,2.117-0.495
		c1.157-0.567,2.023-1.551,2.44-2.769c0.104-0.303,0.389-0.508,0.709-0.508c0.083,0,0.166,0.014,0.245,0.041
		c0.188,0.064,0.341,0.199,0.429,0.379c0.088,0.18,0.101,0.384,0.036,0.573c-0.547,1.598-1.683,2.887-3.199,3.63
		C19.3,23.788,18.365,24.006,17.4,24.006z"/>
	<path d="M19.5,16.502c-0.414,0-0.75-0.336-0.75-0.75s0.336-0.75,0.75-0.75h2.067c-0.524-1.283-1.579-2.289-2.9-2.741
		c-0.504-0.172-1.028-0.26-1.557-0.26c-2.064,0-3.899,1.311-4.567,3.261c-0.104,0.304-0.389,0.508-0.709,0.508
		c-0.083,0-0.166-0.014-0.245-0.041c-0.188-0.064-0.341-0.199-0.429-0.379c-0.088-0.18-0.101-0.383-0.036-0.573
		c0.875-2.557,3.281-4.276,5.987-4.276c0.694,0,1.38,0.115,2.041,0.341c1.419,0.486,2.592,1.442,3.348,2.686v-1.525
		c0-0.414,0.336-0.75,0.75-0.75S24,11.589,24,12.002v3.75c0,0.414-0.336,0.75-0.75,0.75H19.5z"/>
	<path d="M2.25,16.502c-1.241,0-2.25-1.009-2.25-2.25v-12c0-0.504,0.164-0.981,0.476-1.38C0.483,0.861,0.491,0.85,0.497,0.841
		c0.006-0.008,0.015-0.018,0.023-0.027C0.954,0.296,1.582,0.002,2.25,0.002h18c0.671,0,1.301,0.296,1.731,0.814
		c0.01,0.01,0.019,0.022,0.026,0.031c0.006,0.007,0.012,0.017,0.018,0.026C22.336,1.272,22.5,1.749,22.5,2.252v6
		c0,0.414-0.336,0.75-0.75,0.75S21,8.666,21,8.252V2.564l-7.276,5.596c-0.704,0.542-1.583,0.841-2.474,0.841
		c-0.891,0-1.77-0.299-2.474-0.841L1.5,2.565v11.688c0,0.414,0.336,0.75,0.75,0.75h6c0.414,0,0.75,0.336,0.75,0.75
		s-0.336,0.75-0.75,0.75H2.25z M9.69,6.972c0.444,0.342,0.998,0.53,1.56,0.53s1.116-0.188,1.559-0.53l7.111-5.469H2.579L9.69,6.972z
		"/>
</g>
</svg>
