<?xml version="1.0" encoding="utf-8"?>
<!-- Generator: Adobe Illustrator 22.1.0, SVG Export Plug-In . SVG Version: 6.00 Build 0)  -->
<svg version="1.1" id="Layer_1" xmlns="http://www.w3.org/2000/svg" xmlns:xlink="http://www.w3.org/1999/xlink" x="0px" y="0px"
	 viewBox="0 0 24 24" style="enable-background:new 0 0 24 24;" xml:space="preserve">
<g>
	<title>app-window-rss</title>
	<path d="M2.5,22.504c-1.379,0-2.5-1.122-2.5-2.5v-16c0-1.379,1.121-2.5,2.5-2.5h19c1.378,0,2.5,1.121,2.5,2.5v16
		c0,1.378-1.122,2.5-2.5,2.5H2.5z M1,20.004c0,0.827,0.673,1.5,1.5,1.5h19c0.827,0,1.5-0.673,1.5-1.5v-12.5H1V20.004z M23,6.504
		v-2.5c0-0.827-0.673-1.5-1.5-1.5h-19c-0.827,0-1.5,0.673-1.5,1.5v2.5H23z"/>
	<circle cx="4" cy="4.504" r="0.75"/>
	<circle cx="7" cy="4.504" r="0.75"/>
	<circle cx="10" cy="4.504" r="0.75"/>
	<circle cx="8.511" cy="18.504" r="0.75"/>
	<path d="M13.367,20c-0.276,0-0.5-0.224-0.5-0.5c-0.002-2.951-2.405-5.352-5.356-5.352c-0.276,0-0.5-0.224-0.5-0.5
		s0.224-0.5,0.5-0.5c3.502,0,6.354,2.849,6.356,6.352C13.867,19.776,13.643,20,13.367,20z"/>
	<path d="M17,20c-0.276,0-0.5-0.224-0.5-0.5c-0.002-4.954-4.035-8.985-8.989-8.986c-0.276,0-0.5-0.224-0.5-0.5s0.224-0.5,0.5-0.5
		c5.506,0.001,9.987,4.48,9.989,9.986C17.5,19.776,17.276,20,17,20z"/>
</g>
</svg>
