<?xml version="1.0" encoding="utf-8"?>
<!-- Generator: Adobe Illustrator 22.1.0, SVG Export Plug-In . SVG Version: 6.00 Build 0)  -->
<svg version="1.1" id="Layer_1" xmlns="http://www.w3.org/2000/svg" xmlns:xlink="http://www.w3.org/1999/xlink" x="0px" y="0px"
	 viewBox="0 0 24 24" style="enable-background:new 0 0 24 24;" xml:space="preserve">
<g>
	<title>app-window-expand-1</title>
	<path d="M2.5,21.504c-1.379,0-2.5-1.122-2.5-2.5v-14c0-1.379,1.121-2.5,2.5-2.5h19c1.378,0,2.5,1.121,2.5,2.5v14
		c0,1.378-1.122,2.5-2.5,2.5H2.5z M1,19.004c0,0.827,0.673,1.5,1.5,1.5h19c0.827,0,1.5-0.673,1.5-1.5v-10.5H1V19.004z M23,7.504
		v-2.5c0-0.827-0.673-1.5-1.5-1.5h-19c-0.827,0-1.5,0.673-1.5,1.5v2.5H23z"/>
	<circle cx="4" cy="5.504" r="0.75"/>
	<circle cx="7" cy="5.504" r="0.75"/>
	<circle cx="10" cy="5.504" r="0.75"/>
	<path d="M10.5,13.504c-0.134,0-0.259-0.052-0.354-0.146L8,11.211v0.75c0,0.276-0.224,0.5-0.5,0.5S7,12.237,7,11.961v-1.957
		c0-0.065,0.013-0.129,0.038-0.19c0.051-0.122,0.149-0.221,0.27-0.271C7.37,9.517,7.434,9.504,7.5,9.504h1.956
		c0.276,0,0.5,0.224,0.5,0.5s-0.224,0.5-0.5,0.5H8.707l2.146,2.146C10.948,12.745,11,12.87,11,13.004s-0.052,0.259-0.146,0.354
		S10.634,13.504,10.5,13.504z"/>
	<path d="M13.5,13.504c-0.134,0-0.259-0.052-0.354-0.146S13,13.137,13,13.004s0.052-0.259,0.146-0.354l2.146-2.146h-0.749
		c-0.276,0-0.5-0.224-0.5-0.5s0.224-0.5,0.5-0.5H16.5c0.066,0,0.13,0.013,0.191,0.038c0.123,0.051,0.219,0.147,0.27,0.27
		C16.987,9.874,17,9.938,17,10.004v1.957c0,0.276-0.224,0.5-0.5,0.5s-0.5-0.224-0.5-0.5v-0.75l-2.146,2.146
		C13.759,13.452,13.634,13.504,13.5,13.504z"/>
	<path d="M7.5,19.504c-0.066,0-0.13-0.013-0.192-0.039c-0.123-0.051-0.219-0.147-0.27-0.27C7.013,19.134,7,19.07,7,19.004v-1.957
		c0-0.276,0.224-0.5,0.5-0.5s0.5,0.224,0.5,0.5v0.75l2.146-2.146c0.094-0.094,0.22-0.146,0.354-0.146s0.259,0.052,0.354,0.146
		S11,15.87,11,16.004s-0.052,0.259-0.146,0.354l-2.146,2.146h0.749c0.276,0,0.5,0.224,0.5,0.5s-0.224,0.5-0.5,0.5H7.5z"/>
	<path d="M14.544,19.504c-0.276,0-0.5-0.224-0.5-0.5s0.224-0.5,0.5-0.5h0.749l-2.146-2.146C13.052,16.263,13,16.137,13,16.004
		s0.052-0.259,0.146-0.354s0.22-0.146,0.354-0.146s0.259,0.052,0.354,0.146L16,17.797v-0.75c0-0.276,0.224-0.5,0.5-0.5
		s0.5,0.224,0.5,0.5v1.957c0,0.066-0.013,0.13-0.039,0.191c-0.051,0.123-0.147,0.219-0.27,0.27
		c-0.061,0.025-0.125,0.038-0.191,0.038H14.544z"/>
</g>
</svg>
