<?xml version="1.0" encoding="utf-8"?>
<!-- Generator: Adobe Illustrator 22.1.0, SVG Export Plug-In . SVG Version: 6.00 Build 0)  -->
<svg version="1.1" id="Layer_1" xmlns="http://www.w3.org/2000/svg" xmlns:xlink="http://www.w3.org/1999/xlink" x="0px" y="0px"
	 viewBox="0 0 24 24" style="enable-background:new 0 0 24 24;" xml:space="preserve">
<g>
	<title>app-window-move-right</title>
	<path d="M2.5,22.504c-1.379,0-2.5-1.122-2.5-2.5v-16c0-1.379,1.121-2.5,2.5-2.5h19c1.378,0,2.5,1.121,2.5,2.5v16
		c0,1.378-1.122,2.5-2.5,2.5H2.5z M21.5,21.504c0.827,0,1.5-0.673,1.5-1.5v-12.5H8v1c0,0.276-0.224,0.5-0.5,0.5S7,8.78,7,8.504v-1H1
		v12.5c0,0.827,0.673,1.5,1.5,1.5H7v-1.5c0-0.276,0.224-0.5,0.5-0.5s0.5,0.224,0.5,0.5v1.5H21.5z M23,6.504v-2.5
		c0-0.827-0.673-1.5-1.5-1.5h-19c-0.827,0-1.5,0.673-1.5,1.5v2.5h6.396C7.425,6.497,7.46,6.49,7.5,6.49
		c0.041,0,0.076,0.007,0.104,0.014H23z"/>
	<circle cx="4" cy="4.504" r="0.75"/>
	<circle cx="7" cy="4.504" r="0.75"/>
	<circle cx="10" cy="4.504" r="0.75"/>
	<path d="M7.5,13.504c-0.276,0-0.5-0.224-0.5-0.5V10.99c0-0.276,0.224-0.5,0.5-0.5S8,10.714,8,10.99v2.014
		C8,13.28,7.776,13.504,7.5,13.504z"/>
	<path d="M7.5,18.004c-0.276,0-0.5-0.224-0.5-0.5v-2c0-0.276,0.224-0.5,0.5-0.5s0.5,0.224,0.5,0.5v2
		C8,17.78,7.776,18.004,7.5,18.004z"/>
	<path d="M16.5,18.504c-0.134,0-0.259-0.052-0.354-0.146c-0.195-0.195-0.195-0.512,0-0.707l2.146-2.146H10.5
		c-0.276,0-0.5-0.224-0.5-0.5s0.224-0.5,0.5-0.5h7.793l-2.146-2.146c-0.195-0.195-0.195-0.512,0-0.707
		c0.094-0.094,0.22-0.146,0.354-0.146s0.259,0.052,0.354,0.146l3,3c0.046,0.045,0.083,0.101,0.109,0.163
		c0.05,0.121,0.05,0.261,0,0.382c-0.025,0.062-0.062,0.117-0.109,0.163l-2.999,2.999C16.759,18.452,16.634,18.504,16.5,18.504z"/>
</g>
</svg>
