<?xml version="1.0" encoding="utf-8"?>
<!-- Generator: Adobe Illustrator 22.1.0, SVG Export Plug-In . SVG Version: 6.00 Build 0)  -->
<svg version="1.1" id="Layer_1" xmlns="http://www.w3.org/2000/svg" xmlns:xlink="http://www.w3.org/1999/xlink" x="0px" y="0px"
	 viewBox="0 0 24 24" style="enable-background:new 0 0 24 24;" xml:space="preserve">
<g>
	<title>app-window-error-404</title>
	<path d="M2.5,21.504c-1.379,0-2.5-1.122-2.5-2.5v-14c0-1.379,1.121-2.5,2.5-2.5h19c1.378,0,2.5,1.121,2.5,2.5v14
		c0,1.378-1.122,2.5-2.5,2.5H2.5z M1,19.004c0,0.827,0.673,1.5,1.5,1.5h19c0.827,0,1.5-0.673,1.5-1.5v-10.5H1V19.004z M23,7.504
		v-2.5c0-0.827-0.673-1.5-1.5-1.5h-19c-0.827,0-1.5,0.673-1.5,1.5v2.5H23z"/>
	<circle cx="4" cy="5.504" r="0.75"/>
	<circle cx="7" cy="5.504" r="0.75"/>
	<circle cx="10" cy="5.504" r="0.75"/>
	<path d="M11.5,17.014c-1.103,0-2-0.897-2-2v-2c0-1.103,0.897-2,2-2s2,0.897,2,2v2C13.5,16.117,12.603,17.014,11.5,17.014z
		 M11.5,12.014c-0.551,0-1,0.448-1,1v2c0,0.552,0.449,1,1,1s1-0.448,1-1v-2C12.5,12.462,12.051,12.014,11.5,12.014z"/>
	<path d="M7.987,17.004c-0.276,0-0.5-0.224-0.5-0.5V16H5c-0.148,0-0.287-0.065-0.383-0.178c-0.095-0.113-0.135-0.261-0.11-0.407
		c0.328-1.882,1.546-3.509,3.259-4.353c0.069-0.034,0.145-0.051,0.221-0.051c0.093,0,0.184,0.026,0.264,0.075
		c0.148,0.092,0.236,0.251,0.236,0.425v4.994C8.487,16.78,8.263,17.004,7.987,17.004z M7.487,15v-2.606
		C6.605,13.035,5.948,13.956,5.632,15H7.487z"/>
	<path d="M18,17.004c-0.276,0-0.5-0.224-0.5-0.5V16h-2.487c-0.148,0-0.287-0.065-0.382-0.178c-0.096-0.114-0.136-0.262-0.11-0.408
		c0.328-1.881,1.546-3.508,3.259-4.353c0.069-0.034,0.145-0.052,0.221-0.052c0.094,0,0.185,0.026,0.264,0.076
		c0.148,0.092,0.236,0.251,0.236,0.424v4.994C18.5,16.78,18.276,17.004,18,17.004z M17.5,15v-2.606
		c-0.882,0.641-1.539,1.562-1.855,2.606H17.5z"/>
</g>
</svg>
