<?xml version="1.0" encoding="utf-8"?>
<!-- Generator: Adobe Illustrator 22.1.0, SVG Export Plug-In . SVG Version: 6.00 Build 0)  -->
<svg version="1.1" id="Layer_1" xmlns="http://www.w3.org/2000/svg" xmlns:xlink="http://www.w3.org/1999/xlink" x="0px" y="0px"
	 viewBox="0 0 24 24" style="enable-background:new 0 0 24 24;" xml:space="preserve">
<g>
	<title>app-window-subtract</title>
	<path d="M17.517,24.005c-3.584,0-6.5-2.916-6.5-6.5s2.916-6.5,6.5-6.5s6.5,2.916,6.5,6.5S21.101,24.005,17.517,24.005z
		 M17.517,12.005c-3.033,0-5.5,2.467-5.5,5.5s2.467,5.5,5.5,5.5s5.5-2.467,5.5-5.5S20.55,12.005,17.517,12.005z"/>
	<path d="M14.517,18.005c-0.276,0-0.5-0.224-0.5-0.5s0.224-0.5,0.5-0.5h6c0.276,0,0.5,0.224,0.5,0.5s-0.224,0.5-0.5,0.5H14.517z"/>
	<path d="M3.516,3.254c-0.414,0-0.75-0.336-0.75-0.75c0-0.412,0.335-0.748,0.747-0.75c0.419,0.002,0.754,0.339,0.753,0.752
		C4.266,2.918,3.93,3.254,3.516,3.254z"/>
	<path d="M5.516,3.254c-0.414,0-0.75-0.336-0.75-0.75c0-0.396,0.311-0.724,0.707-0.747C5.485,1.756,5.5,1.754,5.516,1.754
		c0.416,0.002,0.751,0.339,0.75,0.752C6.266,2.918,5.93,3.254,5.516,3.254z"/>
	<path d="M7.516,3.254c-0.414,0-0.75-0.336-0.75-0.75s0.336-0.75,0.75-0.75c0.012,0,0.035,0.002,0.047,0.004l0.015,0.001
		c0.381,0.024,0.69,0.353,0.688,0.747C8.266,2.918,7.93,3.254,7.516,3.254z"/>
	<path d="M2.516,17c-1.379,0-2.5-1.122-2.5-2.5v-12c0-1.379,1.121-2.5,2.5-2.5h16c1.378,0,2.5,1.121,2.5,2.5v6
		c0,0.276-0.224,0.5-0.5,0.5s-0.5-0.224-0.5-0.5V5.004h-19V14.5c0,0.827,0.673,1.5,1.5,1.5h6c0.276,0,0.5,0.224,0.5,0.5
		S8.792,17,8.516,17H2.516z M20.016,4.004V2.5c0-0.827-0.673-1.5-1.5-1.5h-16c-0.827,0-1.5,0.673-1.5,1.5v1.504H20.016z"/>
</g>
</svg>
