<?xml version="1.0" encoding="utf-8"?>
<!-- Generator: Adobe Illustrator 22.1.0, SVG Export Plug-In . SVG Version: 6.00 Build 0)  -->
<svg version="1.1" id="Layer_1" xmlns="http://www.w3.org/2000/svg" xmlns:xlink="http://www.w3.org/1999/xlink" x="0px" y="0px"
	 viewBox="0 0 24 24" style="enable-background:new 0 0 24 24;" xml:space="preserve">
<g>
	<title>app-window-upload</title>
	<path d="M2.5,22.504c-1.379,0-2.5-1.122-2.5-2.5v-16c0-1.379,1.121-2.5,2.5-2.5h19c1.378,0,2.5,1.121,2.5,2.5v16
		c0,1.378-1.122,2.5-2.5,2.5H2.5z M1,20.004c0,0.827,0.673,1.5,1.5,1.5h19c0.827,0,1.5-0.673,1.5-1.5v-12.5H1V20.004z M23,6.504
		v-2.5c0-0.827-0.673-1.5-1.5-1.5h-19c-0.827,0-1.5,0.673-1.5,1.5v2.5H23z"/>
	<circle cx="4" cy="4.504" r="0.75"/>
	<circle cx="7" cy="4.504" r="0.75"/>
	<circle cx="10" cy="4.504" r="0.75"/>
	<path d="M12.5,16.504c-0.276,0-0.5-0.224-0.5-0.5v-4.793l-2.146,2.146c-0.094,0.094-0.22,0.146-0.354,0.146
		s-0.259-0.052-0.354-0.146S9,13.137,9,13.004s0.052-0.259,0.146-0.354l3-3c0.047-0.047,0.101-0.083,0.163-0.109
		c0.061-0.025,0.125-0.038,0.191-0.038s0.13,0.013,0.191,0.038c0.061,0.025,0.116,0.062,0.163,0.108l3,3
		C15.948,12.745,16,12.87,16,13.004s-0.052,0.259-0.146,0.354s-0.22,0.146-0.354,0.146s-0.259-0.052-0.354-0.146L13,11.211v4.793
		C13,16.28,12.776,16.504,12.5,16.504z"/>
	<path d="M8,18.5c-0.551,0-1-0.448-1-1v-1.488c0-0.276,0.224-0.5,0.5-0.5s0.5,0.224,0.5,0.5V17.5h9v-1.488
		c0-0.276,0.224-0.5,0.5-0.5s0.5,0.224,0.5,0.5V17.5c0,0.552-0.448,1-1,1H8z"/>
</g>
</svg>
