<?xml version="1.0" encoding="utf-8"?>
<!-- Generator: Adobe Illustrator 22.1.0, SVG Export Plug-In . SVG Version: 6.00 Build 0)  -->
<svg version="1.1" id="Layer_1" xmlns="http://www.w3.org/2000/svg" xmlns:xlink="http://www.w3.org/1999/xlink" x="0px" y="0px"
	 viewBox="0 0 24 24" style="enable-background:new 0 0 24 24;" xml:space="preserve">
<g>
	<title>app-window-link</title>
	<path d="M20.121,19.382c-0.134,0-0.259-0.052-0.354-0.146c-0.195-0.195-0.195-0.512,0-0.707l2.121-2.121
		c0.585-0.585,0.585-1.537,0-2.122c-0.283-0.283-0.659-0.439-1.061-0.439c-0.401,0-0.778,0.156-1.061,0.438l-2.121,2.122
		c-0.094,0.094-0.22,0.146-0.354,0.146s-0.259-0.052-0.354-0.146c-0.195-0.195-0.195-0.512,0-0.707l2.121-2.122
		c0.471-0.471,1.099-0.731,1.767-0.731c0.669,0,1.297,0.26,1.768,0.731c0.472,0.472,0.732,1.1,0.732,1.768
		c0,0.668-0.26,1.296-0.733,1.768l-2.121,2.121C20.38,19.33,20.255,19.382,20.121,19.382z"/>
	<path d="M15.171,23.505c-0.668,0-1.296-0.26-1.768-0.733c-0.472-0.472-0.732-1.101-0.732-1.768c0-0.668,0.26-1.296,0.733-1.768
		l2.12-2.121c0.094-0.094,0.22-0.146,0.354-0.146s0.259,0.052,0.354,0.146c0.195,0.195,0.195,0.512,0,0.707l-2.12,2.121
		c-0.585,0.585-0.586,1.537-0.001,2.122c0.283,0.283,0.66,0.44,1.061,0.44c0.401,0,0.778-0.156,1.061-0.439l2.121-2.119
		c0.094-0.094,0.22-0.146,0.354-0.146s0.259,0.052,0.354,0.146s0.146,0.22,0.146,0.354c0,0.134-0.052,0.259-0.147,0.353
		l-2.121,2.119C16.467,23.245,15.839,23.505,15.171,23.505L15.171,23.505z"/>
	<path d="M16.232,20.443c-0.134,0-0.259-0.052-0.354-0.146c-0.195-0.195-0.195-0.512,0-0.707l3.536-3.535
		c0.094-0.094,0.22-0.146,0.354-0.146s0.259,0.052,0.354,0.146c0.195,0.195,0.195,0.512,0,0.707l-3.536,3.535
		C16.491,20.391,16.365,20.443,16.232,20.443z"/>
	<path d="M5,3.926c-0.414,0-0.75-0.336-0.75-0.75c0-0.397,0.312-0.725,0.709-0.747c0,0,0.001,0,0.002,0
		C4.974,2.427,4.987,2.426,5,2.426c0.012,0,0.038,0.002,0.05,0.004c0.014,0,0.031,0.002,0.045,0.005c0.001,0,0.001,0,0.002,0
		C5.47,2.483,5.75,2.799,5.75,3.176C5.75,3.59,5.414,3.926,5,3.926z"/>
	<path d="M7,3.926c-0.414,0-0.75-0.336-0.75-0.75S6.586,2.426,7,2.426c0.012,0,0.036,0.002,0.048,0.004
		C7.438,2.451,7.75,2.779,7.75,3.176C7.75,3.59,7.414,3.926,7,3.926z"/>
	<path d="M9,3.926c-0.414,0-0.75-0.336-0.75-0.75c0-0.397,0.312-0.725,0.71-0.747C8.968,2.428,8.984,2.426,9,2.426
		c0.414,0,0.75,0.336,0.75,0.75S9.414,3.926,9,3.926z"/>
	<path d="M4,17.676c-1.379,0-2.5-1.122-2.5-2.5v-12c0-1.379,1.121-2.5,2.5-2.5h16c1.378,0,2.5,1.121,2.5,2.5v6
		c0,0.276-0.224,0.5-0.5,0.5s-0.5-0.224-0.5-0.5v-3.5h-19v9.5c0,0.827,0.673,1.5,1.5,1.5h6c0.276,0,0.5,0.224,0.5,0.5
		s-0.224,0.5-0.5,0.5H4z M21.5,4.676v-1.5c0-0.827-0.673-1.5-1.5-1.5H4c-0.827,0-1.5,0.673-1.5,1.5v1.5H21.5z"/>
</g>
</svg>
