<?xml version="1.0" encoding="utf-8"?>
<!-- Generator: Adobe Illustrator 22.1.0, SVG Export Plug-In . SVG Version: 6.00 Build 0)  -->
<svg version="1.1" id="Layer_1" xmlns="http://www.w3.org/2000/svg" xmlns:xlink="http://www.w3.org/1999/xlink" x="0px" y="0px"
	 viewBox="0 0 24 24" style="enable-background:new 0 0 24 24;" xml:space="preserve">
<g>
	<title>app-window-minimize</title>
	<path d="M4,3.754c-0.414,0-0.75-0.336-0.75-0.75C3.256,2.589,3.593,2.254,4,2.254c0.414,0,0.75,0.337,0.75,0.75
		c0,0.2-0.078,0.389-0.22,0.53C4.388,3.676,4.2,3.754,4,3.754z"/>
	<path d="M7,3.754c-0.414,0-0.75-0.336-0.75-0.75C6.256,2.589,6.593,2.254,7,2.254c0.414,0,0.75,0.337,0.75,0.75
		c0,0.2-0.078,0.389-0.22,0.53C7.388,3.676,7.2,3.754,7,3.754z"/>
	<path d="M10,3.754c-0.414,0-0.75-0.336-0.75-0.75C9.25,2.588,9.586,2.25,10,2.25c0.036,0,0.073,0.004,0.108,0.012
		c0.367,0.053,0.642,0.37,0.642,0.742c0,0.2-0.078,0.389-0.22,0.53C10.388,3.676,10.2,3.754,10,3.754z"/>
	<path d="M2.5,21C1.121,21,0,19.878,0,18.5v-16C0,1.121,1.121,0,2.5,0h19C22.878,0,24,1.121,24,2.5V18c0,0.276-0.224,0.5-0.5,0.5
		S23,18.276,23,18V6.004H1V18.5C1,19.327,1.673,20,2.5,20h5C7.776,20,8,20.224,8,20.5S7.776,21,7.5,21H2.5z M23,5.004V2.5
		C23,1.673,22.327,1,21.5,1h-19C1.673,1,1,1.673,1,2.5v2.504H23z"/>
	<path d="M11,18.004c-0.276,0-0.5-0.224-0.5-0.5s0.224-0.5,0.5-0.5h3.293L5.646,8.357C5.552,8.263,5.5,8.137,5.5,8.004
		S5.552,7.745,5.646,7.65S5.866,7.504,6,7.504S6.259,7.556,6.354,7.65L15,16.297v-3.293c0-0.276,0.224-0.5,0.5-0.5
		s0.5,0.224,0.5,0.5v4.5c0,0.066-0.013,0.13-0.039,0.191c-0.051,0.123-0.147,0.219-0.27,0.27c-0.061,0.025-0.125,0.038-0.191,0.038
		H11z"/>
	<path d="M16,24.004c-0.552,0-1-0.448-1-1v-2c0-0.552,0.448-1,1-1h7c0.552,0,1,0.448,1,1v2c0,0.552-0.448,1-1,1H16z M16,23.004h7v-2
		h-7L16,23.004z"/>
</g>
</svg>
