<?xml version="1.0" encoding="utf-8"?>
<!-- Generator: Adobe Illustrator 22.1.0, SVG Export Plug-In . SVG Version: 6.00 Build 0)  -->
<svg version="1.1" id="Layer_1" xmlns="http://www.w3.org/2000/svg" xmlns:xlink="http://www.w3.org/1999/xlink" x="0px" y="0px"
	 viewBox="0 0 24 24" style="enable-background:new 0 0 24 24;" xml:space="preserve">
<g>
	<title>app-window-two</title>
	<circle cx="3.5" cy="4.504" r="0.75"/>
	<path d="M5.5,5.254c-0.414,0-0.75-0.336-0.75-0.75c0-0.396,0.31-0.724,0.707-0.747C5.47,3.755,5.485,3.754,5.5,3.754
		c0.414,0,0.75,0.336,0.75,0.75S5.914,5.254,5.5,5.254z"/>
	<path d="M7.5,5.254c-0.414,0-0.75-0.336-0.75-0.75c0-0.409,0.333-0.745,0.742-0.75c0.425,0.004,0.758,0.34,0.758,0.75
		C8.25,4.917,7.914,5.254,7.5,5.254z"/>
	<path d="M5.5,22C4.121,22,3,20.878,3,19.5v-1.496H2.5c-1.379,0-2.5-1.122-2.5-2.5v-11c0-1.379,1.121-2.5,2.5-2.5h16
		c1.378,0,2.5,1.121,2.5,2.5V6h0.5C22.878,6,24,7.121,24,8.5v11c0,1.378-1.122,2.5-2.5,2.5H5.5z M4,19.5C4,20.327,4.673,21,5.5,21
		h16c0.827,0,1.5-0.673,1.5-1.5v-8.496h-2v4.5c0,1.378-1.122,2.5-2.5,2.5H4V19.5z M3.5,17c0.014,0,0.031,0.002,0.047,0.005
		L18.5,17.004c0.827,0,1.5-0.673,1.5-1.5v-8.5H1v8.5c0,0.827,0.673,1.5,1.5,1.5h0.957C3.472,17.001,3.488,17,3.5,17z M23,10.004V8.5
		C23,7.673,22.327,7,21.5,7H21v3.004H23z M20,6.004v-1.5c0-0.827-0.673-1.5-1.5-1.5h-16c-0.827,0-1.5,0.673-1.5,1.5v1.5H20z"/>
</g>
</svg>
