<?xml version="1.0" encoding="utf-8"?>
<!-- Generator: Adobe Illustrator 22.1.0, SVG Export Plug-In . SVG Version: 6.00 Build 0)  -->
<svg version="1.1" id="Layer_1" xmlns="http://www.w3.org/2000/svg" xmlns:xlink="http://www.w3.org/1999/xlink" x="0px" y="0px"
	 viewBox="0 0 24 24" style="enable-background:new 0 0 24 24;" xml:space="preserve">
<g>
	<title>app-window-expand</title>
	<path d="M4,3.754c-0.414,0-0.75-0.336-0.75-0.75C3.256,2.589,3.593,2.254,4,2.254c0.414,0,0.75,0.337,0.75,0.75
		c0,0.2-0.078,0.389-0.22,0.53C4.388,3.676,4.2,3.754,4,3.754z"/>
	<path d="M7,3.754c-0.414,0-0.75-0.336-0.75-0.75C6.256,2.589,6.593,2.254,7,2.254c0.414,0,0.75,0.337,0.75,0.75
		c0,0.2-0.078,0.389-0.22,0.53C7.388,3.676,7.2,3.754,7,3.754z"/>
	<path d="M10,3.754c-0.414,0-0.75-0.336-0.75-0.75C9.25,2.588,9.586,2.25,10,2.25c0.036,0,0.073,0.004,0.108,0.012
		c0.367,0.053,0.642,0.37,0.642,0.742c0,0.2-0.078,0.389-0.22,0.53C10.388,3.676,10.2,3.754,10,3.754z"/>
	<path d="M13.5,21c-0.276,0-0.5-0.224-0.5-0.5s0.224-0.5,0.5-0.5h8c0.827,0,1.5-0.673,1.5-1.5V6.004H1V18c0,0.276-0.224,0.5-0.5,0.5
		S0,18.276,0,18V2.5C0,1.121,1.121,0,2.5,0h19C22.878,0,24,1.121,24,2.5v16c0,1.378-1.122,2.5-2.5,2.5H13.5z M23,5.004V2.5
		C23,1.673,22.327,1,21.5,1h-19C1.673,1,1,1.673,1,2.5v2.504H23z"/>
	<path d="M6.086,18.402c-0.134,0-0.26-0.052-0.354-0.147c-0.194-0.194-0.194-0.511,0.001-0.707l8.559-8.544H11
		c-0.276,0-0.5-0.224-0.5-0.5s0.224-0.5,0.5-0.5h4.5c0.065,0,0.129,0.013,0.191,0.038c0.062,0.026,0.116,0.062,0.163,0.108
		c0.008,0.008,0.017,0.019,0.025,0.029c0.036,0.042,0.064,0.086,0.083,0.133c0.021,0.051,0.033,0.105,0.037,0.162
		C15.999,8.484,16,8.494,16,8.504v3.958c0,0.276-0.224,0.5-0.5,0.5s-0.5-0.224-0.5-0.5V9.709l-8.561,8.547
		C6.345,18.35,6.219,18.402,6.086,18.402z"/>
	<path d="M1,24.004c-0.551,0-1-0.448-1-1v-2c0-0.552,0.449-1,1-1h6c0.551,0,1,0.448,1,1v2c0,0.552-0.449,1-1,1H1z M1,23.004h6v-2H1
		L1,23.004z"/>
</g>
</svg>
