<?xml version="1.0" encoding="utf-8"?>
<!-- Generator: Adobe Illustrator 22.1.0, SVG Export Plug-In . SVG Version: 6.00 Build 0)  -->
<svg version="1.1" id="Layer_1" xmlns="http://www.w3.org/2000/svg" xmlns:xlink="http://www.w3.org/1999/xlink" x="0px" y="0px"
	 viewBox="0 0 24 24" style="enable-background:new 0 0 24 24;" xml:space="preserve">
<g>
	<title>app-window-add</title>
	<path d="M17.518,24.006c-3.584,0-6.5-2.916-6.5-6.5c0-3.584,2.916-6.5,6.5-6.5s6.5,2.916,6.5,6.5
		C24.018,21.09,21.102,24.006,17.518,24.006z M17.518,12.006c-3.033,0-5.5,2.467-5.5,5.5s2.467,5.5,5.5,5.5s5.5-2.467,5.5-5.5
		S20.551,12.006,17.518,12.006z"/>
	<path d="M17.518,21.006c-0.276,0-0.5-0.224-0.5-0.5v-2.5h-2.5c-0.276,0-0.5-0.224-0.5-0.5s0.224-0.5,0.5-0.5h2.5v-2.5
		c0-0.276,0.224-0.5,0.5-0.5s0.5,0.224,0.5,0.5v2.5h2.5c0.276,0,0.5,0.224,0.5,0.5s-0.224,0.5-0.5,0.5h-2.5v2.5
		C18.018,20.781,17.794,21.006,17.518,21.006z"/>
	<circle cx="3.515" cy="2.504" r="0.75"/>
	<path d="M5.515,3.254c-0.414,0-0.75-0.336-0.75-0.75c0-0.391,0.307-0.719,0.699-0.746c0.004,0,0.032-0.002,0.033-0.002
		c0.434,0,0.769,0.336,0.769,0.748C6.265,2.917,5.929,3.254,5.515,3.254z"/>
	<path d="M7.515,3.254c-0.414,0-0.75-0.336-0.75-0.75c0-0.409,0.333-0.745,0.742-0.749c0.425,0.004,0.758,0.34,0.758,0.749
		C8.265,2.917,7.929,3.254,7.515,3.254z"/>
	<path d="M2.515,17c-1.379,0-2.5-1.122-2.5-2.5v-12c0-1.379,1.121-2.5,2.5-2.5h16c1.378,0,2.5,1.121,2.5,2.5v6
		c0,0.276-0.224,0.5-0.5,0.5s-0.5-0.224-0.5-0.5V5.004h-19V14.5c0,0.827,0.673,1.5,1.5,1.5h6c0.276,0,0.5,0.224,0.5,0.5
		S8.791,17,8.515,17H2.515z M20.015,4.004V2.5c0-0.827-0.673-1.5-1.5-1.5h-16c-0.827,0-1.5,0.673-1.5,1.5v1.504H20.015z"/>
</g>
</svg>
