<?xml version="1.0" encoding="utf-8"?>
<!-- Generator: Adobe Illustrator 22.1.0, SVG Export Plug-In . SVG Version: 6.00 Build 0)  -->
<svg version="1.1" id="Layer_1" xmlns="http://www.w3.org/2000/svg" xmlns:xlink="http://www.w3.org/1999/xlink" x="0px" y="0px"
	 viewBox="0 0 24 24" style="enable-background:new 0 0 24 24;" xml:space="preserve">
<g>
	<title>app-window-type</title>
	<path d="M2.5,21.504c-1.379,0-2.5-1.122-2.5-2.5v-14c0-1.379,1.121-2.5,2.5-2.5h19c1.378,0,2.5,1.121,2.5,2.5v14
		c0,1.378-1.122,2.5-2.5,2.5H2.5z M1,19.004c0,0.827,0.673,1.5,1.5,1.5h19c0.827,0,1.5-0.673,1.5-1.5v-10.5H1V19.004z M23,7.504
		v-2.5c0-0.827-0.673-1.5-1.5-1.5h-19c-0.827,0-1.5,0.673-1.5,1.5v2.5H23z"/>
	<circle cx="4" cy="5.504" r="0.75"/>
	<circle cx="7" cy="5.504" r="0.75"/>
	<circle cx="10" cy="5.504" r="0.75"/>
	<path d="M11.5,19.504c-0.276,0-0.5-0.224-0.5-0.5V10.5H8V12c0,0.276-0.224,0.5-0.5,0.5S7,12.276,7,12v-1.5c0-0.551,0.449-1,1-1h7
		c0.552,0,1,0.449,1,1V12c0,0.276-0.224,0.5-0.5,0.5S15,12.276,15,12v-1.5h-3v8.504C12,19.28,11.776,19.504,11.5,19.504z"/>
</g>
</svg>
