<?xml version="1.0" encoding="utf-8"?>
<!-- Generator: Adobe Illustrator 22.1.0, SVG Export Plug-In . SVG Version: 6.00 Build 0)  -->
<svg version="1.1" id="Layer_1" xmlns="http://www.w3.org/2000/svg" xmlns:xlink="http://www.w3.org/1999/xlink" x="0px" y="0px"
	 viewBox="0 0 24 24" style="enable-background:new 0 0 24 24;" xml:space="preserve">
<g>
	<title>app-window-move-down</title>
	<path d="M2.5,22.504c-1.379,0-2.5-1.122-2.5-2.5v-16c0-1.379,1.121-2.5,2.5-2.5h19c1.378,0,2.5,1.121,2.5,2.5v16
		c0,1.378-1.122,2.5-2.5,2.5H2.5z M1,20.004c0,0.827,0.673,1.5,1.5,1.5h19c0.827,0,1.5-0.673,1.5-1.5v-12.5H1V20.004z M23,6.504
		v-2.5c0-0.827-0.673-1.5-1.5-1.5h-19c-0.827,0-1.5,0.673-1.5,1.5v2.5H23z"/>
	<circle cx="4" cy="4.504" r="0.75"/>
	<circle cx="7" cy="4.504" r="0.75"/>
	<circle cx="10" cy="4.504" r="0.75"/>
	<path d="M18.5,11.504c-0.276,0-0.5-0.224-0.5-0.5s0.224-0.5,0.5-0.5h2.014c0.276,0,0.5,0.224,0.5,0.5s-0.224,0.5-0.5,0.5H18.5z"/>
	<path d="M13.486,11.504c-0.276,0-0.5-0.224-0.5-0.5s0.224-0.5,0.5-0.5H15.5c0.276,0,0.5,0.224,0.5,0.5s-0.224,0.5-0.5,0.5H13.486z"
		/>
	<path d="M8.5,11.504c-0.276,0-0.5-0.224-0.5-0.5s0.224-0.5,0.5-0.5h2c0.276,0,0.5,0.224,0.5,0.5s-0.224,0.5-0.5,0.5H8.5z"/>
	<path d="M3.5,11.504c-0.276,0-0.5-0.224-0.5-0.5s0.224-0.5,0.5-0.5h2c0.276,0,0.5,0.224,0.5,0.5s-0.224,0.5-0.5,0.5H3.5z"/>
	<path d="M11.999,19.504c-0.066,0-0.13-0.013-0.192-0.039c-0.061-0.025-0.116-0.062-0.163-0.109l-2.999-2.999
		c-0.094-0.094-0.146-0.22-0.146-0.354s0.052-0.259,0.146-0.354s0.22-0.146,0.354-0.146s0.259,0.052,0.354,0.146l2.146,2.146v-4.77
		c0-0.276,0.224-0.5,0.5-0.5c0.276,0,0.5,0.224,0.5,0.5v4.77l2.146-2.146c0.094-0.094,0.22-0.146,0.354-0.146
		s0.259,0.052,0.354,0.146s0.146,0.22,0.146,0.354s-0.052,0.259-0.146,0.354l-3,3c-0.046,0.046-0.101,0.083-0.163,0.109
		C12.129,19.491,12.065,19.504,11.999,19.504z"/>
</g>
</svg>
