<?xml version="1.0" encoding="utf-8"?>
<!-- Generator: Adobe Illustrator 22.1.0, SVG Export Plug-In . SVG Version: 6.00 Build 0)  -->
<svg version="1.1" id="Layer_1" xmlns="http://www.w3.org/2000/svg" xmlns:xlink="http://www.w3.org/1999/xlink" x="0px" y="0px"
	 viewBox="0 0 24 24" style="enable-background:new 0 0 24 24;" xml:space="preserve">
<title>vip-crown-king</title>
<g>
	<path d="M3,24c-1.654,0-3-1.346-3-3c0-0.761,0.292-1.49,0.809-2.044c-0.533-0.986-0.814-2.088-0.814-3.207
		c0-1.803,0.703-3.498,1.978-4.773C3.246,9.704,4.938,9.002,6.738,9c0.003,0,0.015,0,0.018,0C6.925,9,7.104,9.009,7.3,9.026
		c0.981-1.236,2.396-2.033,3.95-2.228V3.75h-1.5C9.336,3.75,9,3.414,9,3s0.336-0.75,0.75-0.75h1.5v-1.5C11.25,0.336,11.586,0,12,0
		s0.75,0.336,0.75,0.75v1.5h1.5C14.664,2.25,15,2.586,15,3s-0.336,0.75-0.75,0.75h-1.5v3.048c1.555,0.195,2.97,0.991,3.95,2.228
		C16.898,9.008,17.08,9,17.251,9c1.806,0,3.501,0.702,4.776,1.977c1.275,1.274,1.977,2.969,1.978,4.773
		c0,1.119-0.28,2.221-0.813,3.207C23.708,19.51,24,20.239,24,21c0,1.654-1.346,3-3,3H3z M3,19.5c-0.827,0-1.5,0.673-1.5,1.5
		s0.673,1.5,1.5,1.5h18c0.827,0,1.5-0.673,1.5-1.5s-0.673-1.5-1.5-1.5H3z M21,18c0.315,0,0.624,0.05,0.923,0.147
		c0.382-0.741,0.582-1.564,0.582-2.398c0-1.402-0.546-2.72-1.538-3.712c-0.918-0.918-2.116-1.454-3.402-1.528
		C17.851,11.219,18,11.983,18,12.75c0,0.414-0.336,0.75-0.75,0.75s-0.75-0.336-0.75-0.75c0-2.481-2.019-4.5-4.5-4.5
		c-2.481,0-4.5,2.019-4.5,4.5c0,0.414-0.336,0.75-0.75,0.75S6,13.164,6,12.75c0-0.767,0.15-1.531,0.436-2.241
		c-1.287,0.075-2.485,0.611-3.402,1.528c-0.992,0.992-1.538,2.31-1.538,3.712c0,0.834,0.2,1.656,0.582,2.398
		C2.376,18.049,2.685,18,3,18H21z"/>
</g>
</svg>
