<svg xmlns="http://www.w3.org/2000/svg" viewBox="0 0 24 24"><title>camera-retro</title><path d="M19,17.5a.5.5,0,0,1,0-1h4.75a.25.25,0,0,0,.25-.25v-2.5a.25.25,0,0,0-.25-.25H19a.5.5,0,0,1,0-1h4.75a.25.25,0,0,0,.25-.25V7a1.5,1.5,0,0,0-1.5-1.5H1.5A1.5,1.5,0,0,0,0,7v5.25a.25.25,0,0,0,.25.25H5a.5.5,0,0,1,0,1H.25a.25.25,0,0,0-.25.25v2.5a.25.25,0,0,0,.25.25H5a.5.5,0,0,1,0,1H.25a.25.25,0,0,0-.25.25V20a1.5,1.5,0,0,0,1.5,1.5h21A1.5,1.5,0,0,0,24,20V17.75a.25.25,0,0,0-.25-.25ZM6.5,15A5.5,5.5,0,1,1,12,20.5,5.506,5.506,0,0,1,6.5,15Zm14-4.75A1.25,1.25,0,1,1,21.75,9,1.25,1.25,0,0,1,20.5,10.25ZM3,9.5a1,1,0,0,1,0-2H6a1,1,0,0,1,0,2Z"/><path d="M17,4.5h4a.5.5,0,0,0,.5-.5A1.5,1.5,0,0,0,20,2.5H18A1.5,1.5,0,0,0,16.5,4,.5.5,0,0,0,17,4.5Z"/><circle cx="12" cy="15" r="3.5"/></svg>