<svg xmlns="http://www.w3.org/2000/svg" viewBox="0 0 24 24"><title>camera-double</title><path d="M22,2H18.265L17.049.218A.5.5,0,0,0,16.636,0H13.364a.5.5,0,0,0-.413.218L11.735,2H10A2.158,2.158,0,0,0,8,4.182V9.25a.25.25,0,0,0,.25.25h.386a2,2,0,0,1,1.652.873l.694,1.018a.252.252,0,0,0,.207.109H14a3.457,3.457,0,0,1,2.725,1.4.253.253,0,0,0,.2.1H22a2,2,0,0,0,2-2V4.182A2.158,2.158,0,0,0,22,2ZM21,4a1,1,0,1,1-1,1A1,1,0,0,1,21,4ZM12.5,7.5a3,3,0,1,1,3,3A3,3,0,0,1,12.5,7.5Z"/><path d="M9.049,11.218A.5.5,0,0,0,8.636,11H5.364a.5.5,0,0,0-.413.218L3.735,13H2a2.158,2.158,0,0,0-2,2.182V22a2,2,0,0,0,2,2H14a2,2,0,0,0,2-2V15.182A2.158,2.158,0,0,0,14,13H10.265ZM4.5,18.5a3,3,0,1,1,3,3A3,3,0,0,1,4.5,18.5ZM13,17a1,1,0,1,1,1-1A1,1,0,0,1,13,17Z"/></svg>