<svg xmlns="http://www.w3.org/2000/svg" viewBox="0 0 24 24"><title>camera-2</title><path d="M22.061,6.682,18.142,5.521A.488.488,0,0,0,18,5.5H11a.489.489,0,0,0-.132.018L6.622,6.676a.25.25,0,0,0-.179.294A2.5,2.5,0,0,1,6.5,7.5v12c0,.077,0,.153-.01.227A.249.249,0,0,0,6.739,20H9.121a.244.244,0,0,1,.163.061,7.985,7.985,0,0,0,10.432,0A.249.249,0,0,1,19.879,20H21.5A2.5,2.5,0,0,0,24,17.5V9.117A2.5,2.5,0,0,0,22.061,6.682ZM8.5,14a6,6,0,1,1,6,6A6.006,6.006,0,0,1,8.5,14Z"/><path d="M10.605,3.813a.5.5,0,0,0,.481.638h6.828a.5.5,0,0,0,.481-.638A2.511,2.511,0,0,0,15.991,2H13.009A2.511,2.511,0,0,0,10.605,3.813Z"/><circle cx="14.5" cy="14" r="4"/><rect y="6" width="5.5" height="15" rx="1.5" ry="1.5"/></svg>