<?xml version="1.0" encoding="utf-8"?>
<!-- Generator: Adobe Illustrator 22.1.0, SVG Export Plug-In . SVG Version: 6.00 Build 0)  -->
<svg version="1.1" id="Layer_1" xmlns="http://www.w3.org/2000/svg" xmlns:xlink="http://www.w3.org/1999/xlink" x="0px" y="0px"
	 viewBox="0 0 24 24" style="enable-background:new 0 0 24 24;" xml:space="preserve">
<title>server-sync-1</title>
<g>
	<circle cx="4.5" cy="3.752" r="1.125"/>
	<path d="M9.751,4.502c-0.414,0-0.75-0.336-0.75-0.75s0.336-0.75,0.75-0.75h1.5c0.414,0,0.75,0.336,0.75,0.75s-0.336,0.75-0.75,0.75
		H9.751z"/>
	<path d="M14.251,4.502c-0.414,0-0.75-0.336-0.75-0.75s0.336-0.75,0.75-0.75h1.5c0.414,0,0.75,0.336,0.75,0.75
		s-0.336,0.75-0.75,0.75H14.251z"/>
	<circle cx="4.5" cy="9.752" r="1.125"/>
	<path d="M9.751,10.502c-0.414,0-0.75-0.336-0.75-0.75s0.336-0.75,0.75-0.75h1.5c0.414,0,0.75,0.336,0.75,0.75
		s-0.336,0.75-0.75,0.75H9.751z"/>
	<circle cx="1.126" cy="18.377" r="1.125"/>
	<path d="M4.502,19.502c-0.414,0-0.75-0.336-0.75-0.75s0.336-0.75,0.75-0.75h2.999v-4.5h-3.75c-2.068,0-3.75-1.682-3.75-3.75
		c0-1.196,0.564-2.298,1.505-3c-0.941-0.702-1.505-1.804-1.505-3c0-2.068,1.682-3.75,3.75-3.75h12c2.068,0,3.75,1.682,3.75,3.75
		c0,1.195-0.563,2.296-1.502,2.998c0.428,0.32,0.782,0.727,1.042,1.202c0.096,0.176,0.118,0.378,0.062,0.571
		c-0.056,0.192-0.184,0.351-0.36,0.447c-0.11,0.06-0.234,0.092-0.359,0.092c-0.275,0-0.527-0.149-0.658-0.39
		c-0.395-0.722-1.151-1.17-1.974-1.17h-12c-1.241,0-2.25,1.009-2.25,2.25s1.009,2.25,2.25,2.25h6c0.414,0,0.75,0.336,0.75,0.75
		s-0.336,0.75-0.75,0.75h-0.75v5.25c0,0.414-0.336,0.75-0.75,0.75H4.502z M3.751,1.502c-1.241,0-2.25,1.009-2.25,2.25
		s1.009,2.25,2.25,2.25h12c1.241,0,2.25-1.009,2.25-2.25s-1.009-2.25-2.25-2.25H3.751z"/>
	<path d="M17.401,24.006c-0.695,0-1.385-0.116-2.052-0.344c-1.419-0.486-2.592-1.442-3.348-2.686v1.525
		c0,0.414-0.336,0.75-0.75,0.75s-0.75-0.336-0.75-0.75v-3.75c0-0.414,0.336-0.75,0.75-0.75h3.75c0.414,0,0.75,0.336,0.75,0.75
		s-0.336,0.75-0.75,0.75h-2.067c0.524,1.283,1.579,2.289,2.9,2.741c0.509,0.174,1.036,0.262,1.566,0.262
		c0.736,0,1.448-0.167,2.117-0.495c1.157-0.567,2.023-1.551,2.44-2.769c0.104-0.303,0.388-0.508,0.709-0.508
		c0.083,0,0.166,0.014,0.245,0.041c0.188,0.064,0.341,0.199,0.429,0.379c0.088,0.18,0.101,0.384,0.036,0.573
		c-0.547,1.598-1.683,2.887-3.199,3.63C19.301,23.788,18.366,24.006,17.401,24.006z"/>
	<path d="M19.501,16.502c-0.414,0-0.75-0.336-0.75-0.75s0.336-0.75,0.75-0.75h2.067c-0.524-1.283-1.579-2.289-2.9-2.741
		c-0.505-0.172-1.028-0.26-1.557-0.26c-2.064,0-3.899,1.311-4.566,3.261c-0.104,0.304-0.389,0.508-0.709,0.508
		c-0.083,0-0.165-0.014-0.244-0.041c-0.188-0.064-0.341-0.199-0.43-0.379c-0.088-0.18-0.101-0.383-0.036-0.573
		c0.875-2.557,3.281-4.276,5.987-4.276c0.693,0,1.38,0.115,2.041,0.341c1.419,0.486,2.592,1.442,3.348,2.686v-1.526
		c0-0.414,0.336-0.75,0.75-0.75s0.75,0.336,0.75,0.75v3.75c0,0.414-0.336,0.75-0.75,0.75H19.501z"/>
</g>
</svg>
