<?xml version="1.0" encoding="utf-8"?>
<!-- Generator: Adobe Illustrator 22.1.0, SVG Export Plug-In . SVG Version: 6.00 Build 0)  -->
<svg version="1.1" id="Layer_1" xmlns="http://www.w3.org/2000/svg" xmlns:xlink="http://www.w3.org/1999/xlink" x="0px" y="0px"
	 viewBox="0 0 24 24" style="enable-background:new 0 0 24 24;" xml:space="preserve">
<title>server-add-1</title>
<g>
	<circle cx="4.5" cy="3.75" r="1.125"/>
	<path d="M9.751,4.5c-0.414,0-0.75-0.336-0.75-0.75S9.337,3,9.751,3h1.5c0.414,0,0.75,0.336,0.75,0.75s-0.336,0.75-0.75,0.75H9.751z
		"/>
	<path d="M14.251,4.5c-0.414,0-0.75-0.336-0.75-0.75S13.837,3,14.251,3h1.5c0.414,0,0.75,0.336,0.75,0.75s-0.336,0.75-0.75,0.75
		H14.251z"/>
	<circle cx="4.5" cy="9.75" r="1.125"/>
	<path d="M9.751,10.5c-0.414,0-0.75-0.336-0.75-0.75S9.337,9,9.751,9h1.5c0.414,0,0.75,0.336,0.75,0.75s-0.336,0.75-0.75,0.75H9.751
		z"/>
	<circle cx="1.126" cy="18.375" r="1.125"/>
	<path d="M4.5,19.5c-0.414,0-0.75-0.336-0.75-0.75S4.086,18,4.5,18h3.001v-4.5h-3.75c-2.068,0-3.75-1.682-3.75-3.75
		c0-1.196,0.564-2.298,1.505-3c-0.941-0.702-1.505-1.804-1.505-3C0.001,1.682,1.683,0,3.751,0h12c2.068,0,3.75,1.682,3.75,3.75
		c0,1.195-0.563,2.297-1.503,2.999C18.405,7.052,18.746,7.434,19,7.875c0.1,0.173,0.127,0.375,0.075,0.569
		C19.024,8.638,18.9,8.799,18.726,8.9C18.612,8.965,18.482,9,18.351,9c-0.268,0-0.517-0.144-0.65-0.375
		c-0.4-0.694-1.147-1.125-1.948-1.125H3.751c-1.241,0-2.25,1.009-2.25,2.25S2.51,12,3.751,12H9.73c0.414,0,0.75,0.336,0.75,0.75
		s-0.336,0.75-0.75,0.75H9.001v5.25c0,0.414-0.336,0.75-0.75,0.75H4.5z M3.751,1.5c-1.241,0-2.25,1.009-2.25,2.25S2.51,6,3.751,6h12
		c1.241,0,2.25-1.009,2.25-2.25s-1.009-2.25-2.25-2.25H3.751z"/>
	<path d="M17.251,24c-3.722,0-6.75-3.028-6.75-6.75s3.028-6.75,6.75-6.75s6.75,3.028,6.75,6.75S20.973,24,17.251,24z M17.251,12
		c-2.895,0-5.25,2.355-5.25,5.25s2.355,5.25,5.25,5.25s5.25-2.355,5.25-5.25S20.146,12,17.251,12z"/>
	<path d="M17.251,21c-0.414,0-0.75-0.336-0.75-0.75V18h-2.25c-0.414,0-0.75-0.336-0.75-0.75s0.336-0.75,0.75-0.75h2.25v-2.25
		c0-0.414,0.336-0.75,0.75-0.75s0.75,0.336,0.75,0.75v2.25h2.25c0.414,0,0.75,0.336,0.75,0.75S20.665,18,20.251,18h-2.25v2.25
		C18.001,20.664,17.665,21,17.251,21z"/>
</g>
</svg>
