<?xml version="1.0" encoding="utf-8"?>
<!-- Generator: Adobe Illustrator 22.1.0, SVG Export Plug-In . SVG Version: 6.00 Build 0)  -->
<svg version="1.1" id="Layer_1" xmlns="http://www.w3.org/2000/svg" xmlns:xlink="http://www.w3.org/1999/xlink" x="0px" y="0px"
	 viewBox="0 0 24 24" style="enable-background:new 0 0 24 24;" xml:space="preserve">
<title>server</title>
<g>
	<path d="M5.623,9.375C5.321,9.374,5.039,9.256,4.827,9.043C4.615,8.83,4.499,8.547,4.5,8.247c0.001-0.3,0.119-0.582,0.332-0.794
		c0.212-0.211,0.494-0.327,0.793-0.327c0.012,0,0.028,0.001,0.043,0.002c0.01,0.001,0.02,0.002,0.03,0.003
		C6.279,7.157,6.75,7.649,6.75,8.25C6.749,8.553,6.631,8.836,6.418,9.048C6.206,9.259,5.924,9.375,5.625,9.375H5.623z"/>
	<path d="M13.501,9c-0.414,0-0.75-0.336-0.75-0.75s0.336-0.75,0.75-0.75h1.5c0.414,0,0.75,0.336,0.75,0.75S15.415,9,15.001,9H13.501
		z"/>
	<path d="M18.001,9c-0.414,0-0.75-0.336-0.75-0.75s0.336-0.75,0.75-0.75h1.5c0.414,0,0.75,0.336,0.75,0.75S19.915,9,19.501,9H18.001
		z"/>
	<path d="M5.623,15.375c-0.302-0.001-0.584-0.119-0.796-0.332C4.615,14.83,4.499,14.547,4.5,14.247
		c0.001-0.618,0.506-1.122,1.125-1.122c0.623,0.003,1.125,0.508,1.125,1.125c-0.002,0.621-0.507,1.125-1.125,1.125H5.623z"/>
	<path d="M13.501,15c-0.414,0-0.75-0.336-0.75-0.75s0.336-0.75,0.75-0.75h1.5c0.414,0,0.75,0.336,0.75,0.75S15.415,15,15.001,15
		H13.501z"/>
	<path d="M18.001,15c-0.414,0-0.75-0.336-0.75-0.75s0.336-0.75,0.75-0.75h1.5c0.414,0,0.75,0.336,0.75,0.75S19.915,15,19.501,15
		H18.001z"/>
	<circle cx="22.876" cy="22.875" r="1.125"/>
	<circle cx="1.14" cy="22.875" r="1.125"/>
	<path d="M4.501,24c-0.414,0-0.75-0.336-0.75-0.75s0.336-0.75,0.75-0.75h6.75V18h-7.5c-2.068,0-3.75-1.682-3.75-3.75
		c0-1.197,0.564-2.298,1.505-3c-0.941-0.702-1.505-1.804-1.505-3c0-0.745,0.219-1.464,0.632-2.082l1.926-3.468
		C3.485,1.035,5.243,0,7.149,0h9.7c1.906,0,3.664,1.035,4.59,2.701l1.929,3.467c0.414,0.618,0.633,1.338,0.633,2.083
		c0,1.196-0.564,2.298-1.505,3c0.941,0.702,1.505,1.803,1.505,3c0,2.068-1.682,3.75-3.75,3.75h-7.5v4.5h6.75
		c0.414,0,0.75,0.336,0.75,0.75S19.915,24,19.501,24H4.501z M3.751,12c-1.241,0-2.25,1.009-2.25,2.25s1.009,2.25,2.25,2.25h16.5
		c1.241,0,2.25-1.009,2.25-2.25S21.492,12,20.251,12H3.751z M3.751,6c-1.241,0-2.25,1.009-2.25,2.25s1.009,2.25,2.25,2.25h16.5
		c1.241,0,2.25-1.009,2.25-2.25S21.492,6,20.251,6H3.751z M7.149,1.5c-1.361,0-2.617,0.739-3.278,1.929L3.257,4.533
		C3.421,4.511,3.585,4.5,3.751,4.5h16.5c0.165,0,0.328,0.011,0.491,0.033L20.128,3.43c-0.661-1.19-1.918-1.93-3.279-1.93H7.149z"/>
</g>
</svg>
