<?xml version="1.0" encoding="utf-8"?>
<!-- Generator: Adobe Illustrator 22.1.0, SVG Export Plug-In . SVG Version: 6.00 Build 0)  -->
<svg version="1.1" id="Layer_1" xmlns="http://www.w3.org/2000/svg" xmlns:xlink="http://www.w3.org/1999/xlink" x="0px" y="0px"
	 viewBox="0 0 24 24" style="enable-background:new 0 0 24 24;" xml:space="preserve">
<title>server-refresh</title>
<g>
	<circle cx="5.251" cy="5.252" r="1.125"/>
	<circle cx="5.251" cy="14.252" r="1.125"/>
	<path d="M5.251,19.502c-2.895,0-5.25-2.355-5.25-5.25c0-1.865,0.979-3.56,2.548-4.5c-1.569-0.94-2.548-2.635-2.548-4.5
		c0-2.895,2.355-5.25,5.25-5.25h12c1.405,0,2.722,0.545,3.713,1.535c0.992,0.991,1.54,2.309,1.541,3.711
		c0.001,1.458-0.612,2.863-1.681,3.854c-0.139,0.129-0.32,0.2-0.51,0.2c-0.208,0-0.409-0.088-0.55-0.24
		c-0.281-0.303-0.263-0.779,0.04-1.06c0.764-0.708,1.202-1.712,1.201-2.753c-0.001-2.066-1.684-3.747-3.75-3.747H5.251
		c-2.068,0-3.75,1.682-3.75,3.75s1.682,3.75,3.75,3.75h7.5c0.414,0,0.75,0.336,0.75,0.75s-0.336,0.75-0.75,0.75h-7.5
		c-2.068,0-3.75,1.682-3.75,3.75c0,2.068,1.682,3.75,3.75,3.75h3c0.414,0,0.75,0.336,0.75,0.75s-0.336,0.75-0.75,0.75H5.251z"/>
	<path d="M10.501,6.002c-0.414,0-0.75-0.336-0.75-0.75s0.336-0.75,0.75-0.75h6.75c0.414,0,0.75,0.336,0.75,0.75
		s-0.336,0.75-0.75,0.75H10.501z"/>
	<path d="M17.241,24.004c-1.195,0-2.376-0.324-3.418-0.938c-1.553-0.916-2.657-2.382-3.107-4.128
		c-0.93-3.604,1.245-7.292,4.849-8.223c0.557-0.144,1.128-0.217,1.698-0.217c1.196,0,2.377,0.325,3.418,0.939
		c0.7,0.413,1.315,0.944,1.82,1.567v-1.752c0-0.414,0.336-0.75,0.75-0.75s0.75,0.336,0.75,0.75v4.5c0,0.414-0.336,0.75-0.75,0.75
		h-3.75c-0.414,0-0.75-0.336-0.75-0.75s0.336-0.75,0.75-0.75h2.494c-0.446-0.951-1.155-1.73-2.076-2.273
		c-0.81-0.478-1.729-0.73-2.657-0.73c-0.443,0-0.887,0.057-1.321,0.169c-1.356,0.35-2.495,1.209-3.208,2.418
		c-0.713,1.209-0.913,2.622-0.563,3.977c0.35,1.358,1.208,2.498,2.416,3.211c0.81,0.478,1.729,0.73,2.657,0.73
		c0.443,0,0.887-0.057,1.322-0.169c1.094-0.282,2.085-0.924,2.791-1.808c0.143-0.179,0.356-0.282,0.586-0.282
		c0.169,0,0.335,0.058,0.468,0.164c0.156,0.125,0.255,0.303,0.278,0.502c0.022,0.199-0.034,0.395-0.159,0.552
		c-0.907,1.136-2.181,1.961-3.588,2.324C18.382,23.931,17.81,24.004,17.241,24.004z"/>
</g>
</svg>
