<?xml version="1.0" encoding="utf-8"?>
<!-- Generator: Adobe Illustrator 22.1.0, SVG Export Plug-In . SVG Version: 6.00 Build 0)  -->
<svg version="1.1" id="Layer_1" xmlns="http://www.w3.org/2000/svg" xmlns:xlink="http://www.w3.org/1999/xlink" x="0px" y="0px"
	 viewBox="0 0 24 24" style="enable-background:new 0 0 24 24;" xml:space="preserve">
<title>server-edit</title>
<g>
	<circle cx="5.251" cy="5.25" r="1.125"/>
	<circle cx="5.251" cy="14.25" r="1.125"/>
	<path d="M5.251,19.5c-2.895,0-5.25-2.355-5.25-5.25c0-1.865,0.979-3.56,2.548-4.5C0.98,8.81,0.001,7.115,0.001,5.25
		C0.001,2.355,2.356,0,5.251,0h12c2.895,0,5.25,2.355,5.251,5.249c0,1.782-0.891,3.427-2.383,4.4
		c-0.122,0.079-0.264,0.121-0.409,0.121c-0.255,0-0.49-0.127-0.629-0.34c-0.226-0.346-0.127-0.812,0.219-1.038
		c1.067-0.695,1.703-1.87,1.703-3.143C21.001,3.182,19.319,1.5,17.252,1.5H5.251c-2.068,0-3.75,1.682-3.75,3.75S3.183,9,5.251,9h7.5
		c0.414,0,0.75,0.336,0.75,0.75s-0.336,0.75-0.75,0.75h-7.5c-2.068,0-3.75,1.682-3.75,3.75c0,2.068,1.682,3.75,3.75,3.75h3
		c0.414,0,0.75,0.336,0.75,0.75s-0.336,0.75-0.75,0.75H5.251z"/>
	<path d="M10.501,6c-0.414,0-0.75-0.336-0.75-0.75s0.336-0.75,0.75-0.75h6.75c0.414,0,0.75,0.336,0.75,0.75S17.664,6,17.251,6
		H10.501z"/>
	<path d="M11.25,24c-0.2,0-0.389-0.078-0.53-0.22c-0.178-0.177-0.255-0.431-0.205-0.677l0.75-3.75
		c0.029-0.146,0.1-0.279,0.205-0.384l7.63-7.631c0.541-0.54,1.26-0.838,2.026-0.838c0.766,0,1.486,0.298,2.026,0.838
		c0.006,0.006,0.03,0.032,0.039,0.041c0.516,0.513,0.809,1.227,0.809,1.993c0,0.765-0.298,1.485-0.839,2.026L15.53,23.03
		c-0.104,0.105-0.238,0.176-0.384,0.205l-3.749,0.75C11.348,23.995,11.299,24,11.25,24z M12.206,22.294l2.424-0.485l7.47-7.47
		c0.258-0.258,0.399-0.601,0.399-0.965c0-0.365-0.142-0.707-0.4-0.965c-0.006-0.006-0.019-0.02-0.029-0.031
		c-0.248-0.245-0.581-0.379-0.939-0.379c-0.368,0-0.713,0.142-0.972,0.401l-7.469,7.47L12.206,22.294z"/>
	<path d="M10.501,15c-0.414,0-0.75-0.336-0.75-0.75s0.336-0.75,0.75-0.75h3c0.414,0,0.75,0.336,0.75,0.75S13.914,15,13.501,15
		H10.501z"/>
</g>
</svg>
