<?xml version="1.0" encoding="utf-8"?>
<!-- Generator: Adobe Illustrator 22.1.0, SVG Export Plug-In . SVG Version: 6.00 Build 0)  -->
<svg version="1.1" id="Layer_1" xmlns="http://www.w3.org/2000/svg" xmlns:xlink="http://www.w3.org/1999/xlink" x="0px" y="0px"
	 viewBox="0 0 24 24" style="enable-background:new 0 0 24 24;" xml:space="preserve">
<title>server-2</title>
<g>
	<circle cx="4.5" cy="7.5" r="1.125"/>
	<circle cx="4.5" cy="16.5" r="1.125"/>
	<path d="M5.251,21.75c-2.895,0-5.25-2.355-5.25-5.25c0-1.865,0.979-3.559,2.548-4.5C0.98,11.06,0.001,9.365,0.001,7.5
		c0-2.895,2.355-5.25,5.25-5.25h13.5c2.895,0,5.25,2.355,5.25,5.25c0,1.865-0.979,3.559-2.548,4.5
		c1.569,0.941,2.548,2.635,2.548,4.5c0,2.895-2.355,5.25-5.25,5.25H5.251z M5.251,12.75c-2.068,0-3.75,1.682-3.75,3.75
		s1.682,3.75,3.75,3.75h13.5c2.068,0,3.75-1.682,3.75-3.75s-1.682-3.75-3.75-3.75H5.251z M5.251,3.75c-2.068,0-3.75,1.682-3.75,3.75
		s1.682,3.75,3.75,3.75h13.5c2.068,0,3.75-1.682,3.75-3.75s-1.682-3.75-3.75-3.75H5.251z"/>
	<path d="M10.501,8.25c-0.414,0-0.75-0.336-0.75-0.75s0.336-0.75,0.75-0.75h8.25c0.414,0,0.75,0.336,0.75,0.75
		s-0.336,0.75-0.75,0.75H10.501z"/>
	<path d="M10.501,17.25c-0.414,0-0.75-0.336-0.75-0.75s0.336-0.75,0.75-0.75h8.25c0.414,0,0.75,0.336,0.75,0.75
		s-0.336,0.75-0.75,0.75H10.501z"/>
</g>
</svg>
