<?xml version="1.0" encoding="utf-8"?>
<!-- Generator: Adobe Illustrator 22.1.0, SVG Export Plug-In . SVG Version: 6.00 Build 0)  -->
<svg version="1.1" id="Layer_1" xmlns="http://www.w3.org/2000/svg" xmlns:xlink="http://www.w3.org/1999/xlink" x="0px" y="0px"
	 viewBox="0 0 24 24" style="enable-background:new 0 0 24 24;" xml:space="preserve">
<title>server-cash</title>
<g>
	<circle cx="5.251" cy="5.25" r="1.125"/>
	<circle cx="5.251" cy="14.25" r="1.125"/>
	<path d="M5.251,19.5c-2.895,0-5.25-2.355-5.25-5.25c0-1.865,0.979-3.56,2.548-4.5C0.98,8.81,0.001,7.115,0.001,5.25
		C0.001,2.355,2.356,0,5.251,0h12c2.895,0,5.25,2.356,5.25,5.251c0,1.483-0.632,2.904-1.733,3.897
		c-0.138,0.125-0.317,0.193-0.502,0.193c-0.212,0-0.415-0.09-0.557-0.248c-0.134-0.148-0.202-0.341-0.192-0.541
		c0.01-0.2,0.098-0.384,0.247-0.519C20.549,7.325,21,6.31,21,5.25c0-2.068-1.682-3.75-3.75-3.75h-12c-2.068,0-3.75,1.682-3.75,3.75
		S3.183,9,5.251,9H12c0.414,0,0.75,0.336,0.75,0.75S12.414,10.5,12,10.5H5.251c-2.068,0-3.75,1.682-3.75,3.75
		c0,2.068,1.682,3.75,3.75,3.75h3c0.414,0,0.75,0.336,0.75,0.75s-0.336,0.75-0.75,0.75H5.251z"/>
	<path d="M10.501,6c-0.414,0-0.75-0.336-0.75-0.75s0.336-0.75,0.75-0.75h6.75c0.414,0,0.75,0.336,0.75,0.75S17.665,6,17.251,6
		H10.501z"/>
	<path d="M17.251,21.75c-0.414,0-0.75-0.336-0.75-0.75h-0.75c-0.414,0-0.75-0.336-0.75-0.75s0.336-0.75,0.75-0.75h2.03
		c0.247,0,0.463-0.146,0.553-0.373c0.058-0.147,0.056-0.307-0.007-0.452c-0.062-0.145-0.177-0.257-0.324-0.315l-2.064-0.827
		c-0.797-0.321-1.312-1.082-1.312-1.94c0-0.558,0.217-1.083,0.612-1.479c0.344-0.344,0.785-0.554,1.262-0.603V13.5
		c0-0.414,0.336-0.75,0.75-0.75s0.75,0.336,0.75,0.75h0.75c0.414,0,0.75,0.336,0.75,0.75S19.165,15,18.751,15h-2.033
		c-0.158,0-0.306,0.062-0.418,0.174c-0.112,0.112-0.173,0.261-0.173,0.419c0,0.243,0.146,0.458,0.371,0.549l2.062,0.826
		c0.517,0.206,0.924,0.602,1.145,1.115c0.221,0.514,0.229,1.082,0.023,1.6c-0.292,0.733-0.956,1.229-1.727,1.307V21
		C18.001,21.414,17.665,21.75,17.251,21.75z"/>
	<path d="M17.251,24c-3.722,0-6.75-3.028-6.75-6.75s3.028-6.75,6.75-6.75s6.75,3.028,6.75,6.75S20.973,24,17.251,24z M17.251,12
		c-2.895,0-5.25,2.355-5.25,5.25s2.355,5.25,5.25,5.25s5.25-2.355,5.25-5.25S20.146,12,17.251,12z"/>
</g>
</svg>
