<?xml version="1.0" encoding="utf-8"?>
<!-- Generator: Adobe Illustrator 22.1.0, SVG Export Plug-In . SVG Version: 6.00 Build 0)  -->
<svg version="1.1" id="Layer_1" xmlns="http://www.w3.org/2000/svg" xmlns:xlink="http://www.w3.org/1999/xlink" x="0px" y="0px"
	 viewBox="0 0 24 24" style="enable-background:new 0 0 24 24;" xml:space="preserve">
<title>move-to-bottom</title>
<g>
	<path d="M0.75,7.498C0.336,7.498,0,7.162,0,6.748v-6c0-0.414,0.336-0.75,0.75-0.75h6c0.414,0,0.75,0.336,0.75,0.75v6
		c0,0.414-0.336,0.75-0.75,0.75H0.75z M6,5.998v-4.5H1.5v4.5H6z"/>
	<path d="M0.75,11.248c-0.414,0-0.75-0.336-0.75-0.75v-0.75c0-0.414,0.336-0.75,0.75-0.75h1.5C2.664,8.998,3,9.334,3,9.748
		s-0.336,0.75-0.75,0.75H1.5C1.5,10.912,1.164,11.248,0.75,11.248z"/>
	<path d="M0.75,14.998c-0.414,0-0.75-0.336-0.75-0.75v-0.75c0-0.414,0.336-0.75,0.75-0.75s0.75,0.336,0.75,0.75h0.75
		c0.414,0,0.75,0.336,0.75,0.75S0.75,14.998,0.75,14.998z"/>
	<path d="M5.25,14.998c-0.414,0-0.75-0.336-0.75-0.75s0.336-0.75,0.75-0.75H6c0-0.414,0.336-0.75,0.75-0.75s0.75,0.336,0.75,0.75
		v0.75C7.5,14.662,5.25,14.998,5.25,14.998z"/>
	<path d="M0.75,23.998c-0.414,0-0.75-0.336-0.75-0.75v-1.5c0-0.414,0.336-0.75,0.75-0.75s0.75,0.336,0.75,0.75v0.75h0.75
		c0.414,0,0.75,0.336,0.75,0.75s-0.336,0.75-0.75,0.75H0.75z"/>
	<path d="M5.25,23.998c-0.414,0-0.75-0.336-0.75-0.75s0.336-0.75,0.75-0.75H6v-0.75c0-0.414,0.336-0.75,0.75-0.75
		s0.75,0.336,0.75,0.75v1.5c0,0.414-0.336,0.75-0.75,0.75H5.25z"/>
	<path d="M6.75,11.248c-0.414,0-0.75-0.336-0.75-0.75H5.25c-0.414,0-0.75-0.336-0.75-0.75s0.336-0.75,0.75-0.75h1.5
		c0.414,0,0.75,0.336,0.75,0.75v0.75C7.5,10.912,7.164,11.248,6.75,11.248z"/>
	<path d="M0.75,19.498c-0.414,0-0.75-0.336-0.75-0.75v-1.5c0-0.414,0.336-0.75,0.75-0.75h1.5c0.414,0,0.75,0.336,0.75,0.75
		s-0.336,0.75-0.75,0.75H1.5v0.75C1.5,19.162,1.164,19.498,0.75,19.498z"/>
	<path d="M6.75,19.498c-0.414,0-0.75-0.336-0.75-0.75v-0.75H5.25c-0.414,0-0.75-0.336-0.75-0.75s0.336-0.75,0.75-0.75h1.5
		c0.414,0,0.75,0.336,0.75,0.75v1.5C7.5,19.162,7.164,19.498,6.75,19.498z"/>
	<path d="M15,23.998c-0.2,0-0.389-0.078-0.53-0.22l-3.739-3.739c-0.143-0.132-0.231-0.333-0.231-0.54c0-0.009,0-0.018,0.001-0.027
		c0.003-0.08,0.018-0.156,0.045-0.229c0.005-0.014,0.011-0.031,0.016-0.042c0.028-0.067,0.07-0.134,0.123-0.194
		c0.011-0.014,0.023-0.028,0.035-0.04l3.75-3.75c0.142-0.142,0.33-0.22,0.53-0.22s0.389,0.078,0.53,0.22
		c0.292,0.292,0.292,0.768,0,1.061l-2.472,2.472h2.691c3.722,0,6.75-3.028,6.75-6.75s-3.028-6.75-6.75-6.75h-4.5
		c-0.414,0-0.75-0.336-0.75-0.75s0.336-0.75,0.75-0.75h4.5C20.299,3.75,24,7.451,24,12s-3.701,8.25-8.25,8.25h-2.688l2.468,2.468
		c0.292,0.292,0.292,0.768,0,1.061C15.389,23.92,15.2,23.998,15,23.998z"/>
</g>
</svg>
