<?xml version="1.0" encoding="utf-8"?>
<!-- Generator: Adobe Illustrator 22.1.0, SVG Export Plug-In . SVG Version: 6.00 Build 0)  -->
<svg version="1.1" id="Layer_1" xmlns="http://www.w3.org/2000/svg" xmlns:xlink="http://www.w3.org/1999/xlink" x="0px" y="0px"
	 viewBox="0 0 24 24" style="enable-background:new 0 0 24 24;" xml:space="preserve">
<title>move-back</title>
<g>
	<path d="M23.25,20.998c-0.414,0-0.75-0.336-0.75-0.75v-9c0-0.414-0.336-0.75-0.75-0.75H2.561l3.97,3.97
		c0.142,0.142,0.22,0.33,0.22,0.53s-0.078,0.389-0.22,0.53C6.389,15.67,6.2,15.748,6,15.748s-0.389-0.078-0.53-0.22l-5.25-5.25
		c-0.07-0.07-0.125-0.152-0.163-0.245c-0.003-0.008-0.007-0.017-0.01-0.026C0.016,9.922,0,9.836,0,9.748
		C0,9.66,0.016,9.572,0.048,9.487C0.05,9.48,0.053,9.473,0.055,9.466C0.095,9.37,0.15,9.287,0.221,9.217L5.47,3.968
		C5.611,3.826,5.8,3.748,6,3.748s0.389,0.078,0.53,0.22c0.142,0.141,0.22,0.33,0.22,0.53s-0.078,0.389-0.22,0.53l-3.97,3.97H21.75
		c1.241,0,2.25,1.009,2.25,2.25v9C24,20.662,23.664,20.998,23.25,20.998z"/>
</g>
</svg>
