<?xml version="1.0" encoding="utf-8"?>
<!-- Generator: Adobe Illustrator 22.1.0, SVG Export Plug-In . SVG Version: 6.00 Build 0)  -->
<svg version="1.1" id="Layer_1" xmlns="http://www.w3.org/2000/svg" xmlns:xlink="http://www.w3.org/1999/xlink" x="0px" y="0px"
	 viewBox="0 0 24 24" style="enable-background:new 0 0 24 24;" xml:space="preserve">
<title>move-up-1</title>
<g>
	<path d="M12,23.998c-0.414,0-0.75-0.336-0.75-0.75V7.059l-2.47,2.47c-0.142,0.142-0.33,0.22-0.53,0.22S7.861,9.67,7.72,9.528
		C7.578,9.387,7.5,9.198,7.5,8.998s0.078-0.389,0.22-0.53l3.749-3.749c0.07-0.07,0.152-0.125,0.245-0.163
		c0.008-0.003,0.016-0.006,0.025-0.009c0.086-0.032,0.172-0.047,0.26-0.047c0.089,0,0.177,0.016,0.261,0.048
		c0.007,0.002,0.014,0.005,0.02,0.007c0.097,0.04,0.179,0.095,0.25,0.166l3.749,3.749c0.142,0.141,0.22,0.33,0.22,0.53
		s-0.078,0.389-0.22,0.53s-0.33,0.22-0.53,0.22s-0.389-0.078-0.53-0.22l-2.47-2.47v16.189C12.75,23.662,12.414,23.998,12,23.998z"/>
	<path d="M0.75,1.498C0.336,1.498,0,1.162,0,0.748s0.336-0.75,0.75-0.75h22.5c0.414,0,0.75,0.336,0.75,0.75s-0.336,0.75-0.75,0.75
		H0.75z"/>
</g>
</svg>
