<?xml version="1.0" encoding="utf-8"?>
<!-- Generator: Adobe Illustrator 22.1.0, SVG Export Plug-In . SVG Version: 6.00 Build 0)  -->
<svg version="1.1" id="Layer_1" xmlns="http://www.w3.org/2000/svg" xmlns:xlink="http://www.w3.org/1999/xlink" x="0px" y="0px"
	 viewBox="0 0 24 24" style="enable-background:new 0 0 24 24;" xml:space="preserve">
<title>move-left</title>
<g>
	<path d="M4.5,16.498c-0.2,0-0.389-0.078-0.53-0.22l-3.75-3.75c-0.07-0.07-0.125-0.152-0.163-0.245
		c-0.003-0.008-0.007-0.017-0.01-0.026C0.016,12.172,0,12.086,0,11.998c0-0.089,0.016-0.176,0.048-0.261
		c0.002-0.007,0.005-0.014,0.008-0.021c0.04-0.097,0.095-0.179,0.166-0.249L3.97,7.718c0.142-0.142,0.33-0.22,0.53-0.22
		s0.389,0.078,0.53,0.22c0.142,0.141,0.22,0.33,0.22,0.53s-0.078,0.389-0.22,0.53l-2.47,2.47h8.689c0.414,0,0.75,0.336,0.75,0.75
		s-0.336,0.75-0.75,0.75H2.561l2.47,2.47c0.292,0.292,0.292,0.768,0,1.061C4.889,16.42,4.7,16.498,4.5,16.498z"/>
	<path d="M17.25,23.998c-1.241,0-2.25-1.009-2.25-2.25v-19.5c0-1.241,1.009-2.25,2.25-2.25h4.5c1.241,0,2.25,1.009,2.25,2.25v19.5
		c0,1.241-1.009,2.25-2.25,2.25H17.25z M17.25,1.498c-0.414,0-0.75,0.336-0.75,0.75v19.5c0,0.414,0.336,0.75,0.75,0.75h4.5
		c0.414,0,0.75-0.336,0.75-0.75v-19.5c0-0.414-0.336-0.75-0.75-0.75H17.25z"/>
</g>
</svg>
