<?xml version="1.0" encoding="utf-8"?>
<!-- Generator: Adobe Illustrator 22.1.0, SVG Export Plug-In . SVG Version: 6.00 Build 0)  -->
<svg version="1.1" id="Layer_1" xmlns="http://www.w3.org/2000/svg" xmlns:xlink="http://www.w3.org/1999/xlink" x="0px" y="0px"
	 viewBox="0 0 24 24" style="enable-background:new 0 0 24 24;" xml:space="preserve">
<title>move-up</title>
<g>
	<path d="M12,11.998c-0.414,0-0.75-0.336-0.75-0.75V2.559l-2.47,2.47c-0.142,0.142-0.33,0.22-0.53,0.22S7.861,5.17,7.72,5.028
		C7.578,4.887,7.5,4.698,7.5,4.498s0.078-0.389,0.22-0.53l3.749-3.749c0.07-0.07,0.152-0.125,0.245-0.163
		c0.008-0.003,0.016-0.006,0.025-0.009c0.086-0.032,0.172-0.047,0.26-0.047c0.089,0,0.177,0.016,0.261,0.048
		c0.007,0.002,0.014,0.005,0.02,0.007c0.097,0.04,0.179,0.095,0.25,0.166l3.749,3.749c0.142,0.141,0.22,0.33,0.22,0.53
		s-0.078,0.389-0.22,0.53s-0.33,0.22-0.53,0.22s-0.389-0.078-0.53-0.22l-2.47-2.47v8.689C12.75,11.662,12.414,11.998,12,11.998z"/>
	<path d="M2.25,23.998c-1.241,0-2.25-1.009-2.25-2.25v-4.5c0-1.241,1.009-2.25,2.25-2.25h19.5c1.241,0,2.25,1.009,2.25,2.25v4.5
		c0,1.241-1.009,2.25-2.25,2.25H2.25z M2.25,16.498c-0.414,0-0.75,0.336-0.75,0.75v4.5c0,0.414,0.336,0.75,0.75,0.75h19.5
		c0.414,0,0.75-0.336,0.75-0.75v-4.5c0-0.414-0.336-0.75-0.75-0.75H2.25z"/>
</g>
</svg>
