<?xml version="1.0" encoding="utf-8"?>
<!-- Generator: Adobe Illustrator 22.1.0, SVG Export Plug-In . SVG Version: 6.00 Build 0)  -->
<svg version="1.1" id="Layer_1" xmlns="http://www.w3.org/2000/svg" xmlns:xlink="http://www.w3.org/1999/xlink" x="0px" y="0px"
	 viewBox="0 0 24 24" style="enable-background:new 0 0 24 24;" xml:space="preserve">
<title>move-down-1</title>
<g>
	<path d="M12,19.498c-0.088,0-0.175-0.016-0.26-0.047c-0.008-0.003-0.015-0.005-0.022-0.008c-0.096-0.039-0.179-0.094-0.249-0.165
		L7.72,15.528c-0.292-0.292-0.292-0.768,0-1.061c0.142-0.142,0.33-0.22,0.53-0.22s0.389,0.078,0.53,0.22l2.47,2.47V0.748
		c0-0.414,0.336-0.75,0.75-0.75s0.75,0.336,0.75,0.75v16.189l2.47-2.47c0.142-0.142,0.33-0.22,0.53-0.22s0.389,0.078,0.53,0.22
		c0.292,0.292,0.292,0.768,0,1.061l-3.75,3.75c-0.07,0.07-0.153,0.125-0.246,0.164c-0.008,0.003-0.017,0.007-0.026,0.01
		C12.173,19.483,12.087,19.498,12,19.498z"/>
	<path d="M0.75,23.998c-0.414,0-0.75-0.336-0.75-0.75s0.336-0.75,0.75-0.75h22.5c0.414,0,0.75,0.336,0.75,0.75
		s-0.336,0.75-0.75,0.75H0.75z"/>
</g>
</svg>
