<svg xmlns="http://www.w3.org/2000/svg" viewBox="0 0 24 24"><title>paginate-filter-9-alternate</title><path d="M22,0H5.5a2,2,0,0,0-2,2V18.5a2,2,0,0,0,2,2H22a2,2,0,0,0,2-2V2A2,2,0,0,0,22,0Zm-.145,18.354a.5.5,0,0,1-.354.146H6a.5.5,0,0,1-.5-.5V2.5A.5.5,0,0,1,6,2H21.5a.5.5,0,0,1,.5.5V18A.5.5,0,0,1,21.855,18.351Z"/><path d="M19.5,22H2.5a.5.5,0,0,1-.5-.5V4.5a1,1,0,0,0-2,0V22a2,2,0,0,0,2,2H19.5a1,1,0,0,0,0-2Z"/><path d="M13.5,5a3.5,3.5,0,1,0,1.359,6.726A2,2,0,0,1,13,13h-.5a1,1,0,0,0,0,2H13a4,4,0,0,0,4-4V8.5A3.5,3.5,0,0,0,13.5,5Zm0,5A1.5,1.5,0,1,1,15,8.5,1.5,1.5,0,0,1,13.5,10Z"/></svg>