<svg xmlns="http://www.w3.org/2000/svg" viewBox="0 0 24 24"><title>paginate-filter-2</title><path d="M22,0H5.5a2,2,0,0,0-2,2V18.5a2,2,0,0,0,2,2H22a2,2,0,0,0,2-2V2A2,2,0,0,0,22,0Zm-5.5,14.75H11a.75.75,0,0,1-.5-1.313l3.594-3.17c.975-.86,1.3-1.2,1.117-2.118A1.75,1.75,0,0,0,11.75,8.5a.75.75,0,0,1-1.5,0,3.25,3.25,0,0,1,6.435-.649c.368,1.811-.63,2.691-1.6,3.542l-2.106,1.857H16.5a.75.75,0,0,1,0,1.5Z"/><path d="M19.5,22H2.5a.5.5,0,0,1-.5-.5V4.5a1,1,0,0,0-2,0V22a2,2,0,0,0,2,2H19.5a1,1,0,0,0,0-2Z"/></svg>