<svg xmlns="http://www.w3.org/2000/svg" viewBox="0 0 24 24"><title>paginate-filter-audio-alternate</title><path d="M16,5.5c-.92,0-1.664-1.049-1.668-1.054a1.077,1.077,0,0,0-.919-.428A1.031,1.031,0,0,0,12.5,5v5.25a.25.25,0,0,1-.25.25H11.5a3,3,0,1,0,3,3V7.511a.25.25,0,0,1,.108-.206.253.253,0,0,1,.231-.028A3.229,3.229,0,0,0,16,7.5a.745.745,0,0,1,.67.491,1.188,1.188,0,0,1-.377,1.3A1,1,0,0,0,17.707,10.7a3.17,3.17,0,0,0,.811-3.48A2.739,2.739,0,0,0,16,5.5Z"/><path d="M22,0H5.5a2,2,0,0,0-2,2V18.5a2,2,0,0,0,2,2H22a2,2,0,0,0,2-2V2A2,2,0,0,0,22,0Zm-.145,18.354a.5.5,0,0,1-.354.146H6a.5.5,0,0,1-.5-.5V2.5A.5.5,0,0,1,6,2H21.5a.5.5,0,0,1,.5.5V18A.5.5,0,0,1,21.855,18.351Z"/><path d="M19.5,22H2.5a.5.5,0,0,1-.5-.5V4.5a1,1,0,0,0-2,0V22a2,2,0,0,0,2,2H19.5a1,1,0,0,0,0-2Z"/></svg>