<svg id="Bold" xmlns="http://www.w3.org/2000/svg" viewBox="0 0 24 24"><title>single-neutral-id-card-3</title><path d="M24,6.25a2,2,0,0,0-2-2H16a.5.5,0,0,0-.5.5v1.5a.5.5,0,0,1-1,0V3.75a3,3,0,0,0-6,0v2.5a.5.5,0,0,1-1,0V4.75a.5.5,0,0,0-.5-.5H2a2,2,0,0,0-2,2v15a2,2,0,0,0,2,2H22a2,2,0,0,0,2-2ZM10.5,3.5a1,1,0,1,1,1,1A1,1,0,0,1,10.5,3.5Zm-8,17.75a.5.5,0,0,1-.5-.5V10.25a.5.5,0,0,1,.5-.5h19a.5.5,0,0,1,.5.5v10.5a.5.5,0,0,1-.5.5Z"/><path d="M19.25,13.5H14.5a.75.75,0,0,0,0,1.5h4.75a.75.75,0,0,0,0-1.5Z"/><path d="M18,16.5H14.5a.75.75,0,0,0,0,1.5H18a.75.75,0,0,0,0-1.5Z"/><circle cx="7.996" cy="13.75" r="2"/><path d="M8,16.75A3.6,3.6,0,0,0,4.7,19.066a.5.5,0,0,0,.471.684H10.82a.5.5,0,0,0,.471-.684A3.6,3.6,0,0,0,8,16.75Z"/></svg>