<svg id="Bold" xmlns="http://www.w3.org/2000/svg" viewBox="0 0 24 24"><title>single-neutral-vintage-tv</title><path d="M24,3.249a1.5,1.5,0,0,0-1.5-1.5H1.5A1.5,1.5,0,0,0,0,3.249v14.5a1.5,1.5,0,0,0,1.5,1.5h.8a.25.25,0,0,1,.2.406l-.775.969a1,1,0,1,0,1.562,1.25L5.2,19.44a.5.5,0,0,1,.393-.191H18.412a.5.5,0,0,1,.393.191l1.914,2.434a1,1,0,0,0,1.562-1.25l-.775-.969a.25.25,0,0,1,.2-.406h.8a1.5,1.5,0,0,0,1.5-1.5ZM8.508,4.749a3,3,0,1,1-3.012,3A3.006,3.006,0,0,1,8.508,4.749Zm5.007,11.667a.305.305,0,0,1-.085.233.31.31,0,0,1-.228.1H4.017a.5.5,0,0,1-.5-.556,5.021,5.021,0,0,1,10,.223ZM18,16.749a.5.5,0,0,1-1,0V4a.5.5,0,1,1,1,0Zm4.25-2a.75.75,0,0,1-.75.75h-1a.75.75,0,0,1,0-1.5h1A.75.75,0,0,1,22.25,14.749ZM21.5,12.5h-1a.75.75,0,0,1,0-1.5h1a.75.75,0,0,1,0,1.5ZM21,8.749a1.5,1.5,0,1,1,1.5-1.5A1.5,1.5,0,0,1,21,8.749Z"/></svg>