<svg id="Bold" xmlns="http://www.w3.org/2000/svg" viewBox="0 0 24 24"><title>single-neutral-phone-book</title><path d="M24,4a3,3,0,0,0-3-3h-.774a.5.5,0,0,1-.433-.25A1.491,1.491,0,0,0,18.5,0H3.75A.25.25,0,0,0,3.5.25v23.5a.25.25,0,0,0,.25.25H18.5a1.491,1.491,0,0,0,1.293-.75.5.5,0,0,1,.433-.25H21a3,3,0,0,0,3-3ZM11.492,6.5a3,3,0,1,1-3.012,3A3.007,3.007,0,0,1,11.492,6.5Zm4.923,11.9a.313.313,0,0,1-.229.1H7a.5.5,0,0,1-.5-.556,5.021,5.021,0,0,1,10,.223A.308.308,0,0,1,16.415,18.4ZM22,10.75a.25.25,0,0,1-.25.25h-1.5a.25.25,0,0,1-.25-.25V8.25A.25.25,0,0,1,20.25,8h1.5a.25.25,0,0,1,.25.25Zm-2,2.5a.25.25,0,0,1,.25-.25h1.5a.25.25,0,0,1,.25.25v2.5a.25.25,0,0,1-.25.25h-1.5a.25.25,0,0,1-.25-.25ZM21,3a1,1,0,0,1,1,1V5.75a.25.25,0,0,1-.25.25h-1.5A.25.25,0,0,1,20,5.75V3.25A.25.25,0,0,1,20.25,3Zm1,17a1,1,0,0,1-1,1h-.75a.25.25,0,0,1-.25-.25v-2.5a.25.25,0,0,1,.25-.25h1.5a.25.25,0,0,1,.25.25Z"/><path d="M2.25,0H1.5A1.5,1.5,0,0,0,0,1.5v21A1.5,1.5,0,0,0,1.5,24h.75a.25.25,0,0,0,.25-.25V.25A.25.25,0,0,0,2.25,0Z"/></svg>