<?xml version="1.0" encoding="utf-8"?>
<!-- Generator: Adobe Illustrator 22.1.0, SVG Export Plug-In . SVG Version: 6.00 Build 0)  -->
<svg version="1.1" id="Layer_1" xmlns="http://www.w3.org/2000/svg" xmlns:xlink="http://www.w3.org/1999/xlink" x="0px" y="0px"
	 viewBox="0 0 24 24" style="enable-background:new 0 0 24 24;" xml:space="preserve">
<g>
	<title>binocular</title>
	<path d="M18.5,24.005c-3.033,0-5.5-2.467-5.5-5.5v-8.93c-0.331-0.047-0.666-0.07-1-0.07s-0.669,0.024-1,0.07v8.93
		c0,3.033-2.467,5.5-5.5,5.5S0,21.537,0,18.505c0-1.161,0.364-2.275,1.052-3.222l2.988-6.975c0.025-0.058,0.061-0.111,0.106-0.156
		L5.57,6.728l1.462-3.899c0.029-0.078,0.077-0.147,0.139-0.201C7.676,2.188,8.325,1.945,9,1.945s1.324,0.242,1.829,0.683
		C10.938,2.723,11,2.86,11,3.005v4c0,0.276-0.224,0.5-0.5,0.5S10,7.28,10,7.005V3.249C9.708,3.052,9.357,2.945,9,2.945
		c-0.391,0-0.772,0.128-1.079,0.362L6.468,7.18C6.443,7.247,6.404,7.307,6.354,7.358L4.922,8.79l-2.108,4.919
		c0.818-0.463,1.732-0.705,2.687-0.705c1.799,0,3.48,0.899,4.5,2.351v-5.56c-0.909,0.289-1.5,0.757-1.5,1.209
		c0,0.276-0.224,0.5-0.5,0.5s-0.5-0.224-0.5-0.5c0-1.425,1.935-2.5,4.5-2.5s4.5,1.075,4.5,2.5c0,0.276-0.224,0.5-0.5,0.5
		s-0.5-0.224-0.5-0.5c0-0.452-0.591-0.92-1.5-1.209v5.56c1.02-1.452,2.701-2.351,4.5-2.351c0.954,0,1.869,0.241,2.687,0.705
		L19.078,8.79l-1.432-1.432c-0.05-0.05-0.089-0.111-0.114-0.176L16.08,3.37C15.772,3.136,15.391,3.008,15,3.008
		c-0.357,0-0.708,0.108-1,0.305v3.692c0,0.276-0.224,0.5-0.5,0.5S13,7.28,13,7.005V3.068c0-0.144,0.062-0.282,0.171-0.377
		c0.504-0.44,1.154-0.683,1.829-0.683s1.324,0.242,1.829,0.683c0.061,0.053,0.109,0.122,0.139,0.198l1.462,3.837l1.424,1.424
		c0.045,0.045,0.081,0.098,0.106,0.157l2.99,6.977c0.687,0.947,1.05,2.059,1.05,3.219C24,21.537,21.533,24.005,18.5,24.005z
		 M18.5,14.005c-2.481,0-4.5,2.019-4.5,4.5s2.019,4.5,4.5,4.5s4.5-2.019,4.5-4.5S20.981,14.005,18.5,14.005z M5.5,14.005
		c-2.481,0-4.5,2.019-4.5,4.5s2.019,4.5,4.5,4.5s4.5-2.019,4.5-4.5S7.981,14.005,5.5,14.005z"/>
</g>
</svg>
