<?xml version="1.0" encoding="utf-8"?>
<!-- Generator: Adobe Illustrator 22.1.0, SVG Export Plug-In . SVG Version: 6.00 Build 0)  -->
<svg version="1.1" id="Layer_1" xmlns="http://www.w3.org/2000/svg" xmlns:xlink="http://www.w3.org/1999/xlink" x="0px" y="0px"
	 viewBox="0 0 24 24" style="enable-background:new 0 0 24 24;" xml:space="preserve">
<g>
	<title>view-square</title>
	<path d="M12,17c-5.277,0-8.269-4.688-8.299-4.735c-0.101-0.161-0.101-0.369,0-0.53C3.731,11.688,6.723,7,12,7
		c5.289,0,8.27,4.688,8.299,4.735c0.101,0.161,0.101,0.369,0,0.53C20.27,12.312,17.289,17,12,17z M4.734,12
		c0.683,0.929,3.248,4,7.266,4c4.018,0,6.582-3.071,7.266-4C18.582,11.071,16.018,8,12,8C7.982,8,5.418,11.071,4.734,12z"/>
	<path d="M12,15c-1.654,0-3-1.346-3-3c0-1.654,1.346-3,3-3c1.654,0,3,1.346,3,3C15,13.654,13.654,15,12,15z M12,10
		c-1.103,0-2,0.897-2,2s0.897,2,2,2s2-0.897,2-2S13.103,10,12,10z"/>
	<circle cx="12" cy="12" r="0.75"/>
	<path d="M2.5,24C1.121,24,0,22.878,0,21.5v-19C0,1.121,1.121,0,2.5,0h19C22.878,0,24,1.121,24,2.5v19c0,1.378-1.122,2.5-2.5,2.5
		H2.5z M2.5,1C1.673,1,1,1.673,1,2.5v19C1,22.327,1.673,23,2.5,23h19c0.827,0,1.5-0.673,1.5-1.5v-19C23,1.673,22.327,1,21.5,1H2.5z"
		/>
</g>
</svg>
