<?xml version="1.0" encoding="utf-8"?>
<!-- Generator: Adobe Illustrator 22.1.0, SVG Export Plug-In . SVG Version: 6.00 Build 0)  -->
<svg version="1.1" id="Layer_1" xmlns="http://www.w3.org/2000/svg" xmlns:xlink="http://www.w3.org/1999/xlink" x="0px" y="0px"
	 viewBox="0 0 24 24" style="enable-background:new 0 0 24 24;" xml:space="preserve">
<g>
	<title>view-1</title>
	<path d="M12.001,16c-2.206,0-4-1.794-4-4s1.794-4,4-4s4,1.794,4,4S14.206,16,12.001,16z M12.001,9c-1.654,0-3,1.346-3,3
		c0,1.654,1.346,3,3,3c1.654,0,3-1.346,3-3C15.001,10.346,13.655,9,12.001,9z"/>
	<path d="M12.001,19c-5.72,0-10.441-4.854-11.751-6.342c-0.327-0.376-0.327-0.94-0.002-1.315C1.559,9.855,6.281,5,12.001,5
		c5.714,0,10.432,4.845,11.747,6.337c0.002,0.002,0.004,0.004,0.006,0.007c0.325,0.374,0.325,0.938,0,1.312
		C22.442,14.145,17.72,19,12.001,19z M12.001,6C6.701,6,2.24,10.594,1,12.003C2.241,13.406,6.7,18,12.001,18
		c5.3,0,9.76-4.594,11.001-6.003C21.76,10.594,17.3,6,12.001,6z"/>
</g>
</svg>
