<svg xmlns="http://www.w3.org/2000/svg" viewBox="0 0 24 24"><defs><style>.a{fill:none;stroke:currentColor;stroke-linecap:round;stroke-linejoin:round;stroke-width:1.5px;}</style></defs><title>printer-view</title><path class="a" d="M5.25,17.248h-3a1.5,1.5,0,0,1-1.5-1.5v-7.5a1.5,1.5,0,0,1,1.5-1.5h19.5a1.5,1.5,0,0,1,1.5,1.5v6"/><line class="a" x1="3.75" y1="9.748" x2="4.5" y2="9.748"/><polyline class="a" points="13.5 23.248 5.25 23.248 5.25 12.748 8.25 12.748"/><path class="a" d="M18.75,6.748H5.25v-4.5a1.5,1.5,0,0,1,1.5-1.5h10.5a1.5,1.5,0,0,1,1.5,1.5Z"/><circle class="a" cx="15.75" cy="15.748" r="5.25"/><line class="a" x1="23.25" y1="23.248" x2="19.462" y2="19.46"/></svg>