<?xml version="1.0" encoding="utf-8"?>
<!-- Generator: Adobe Illustrator 22.1.0, SVG Export Plug-In . SVG Version: 6.00 Build 0)  -->
<svg version="1.1" id="Layer_1" xmlns="http://www.w3.org/2000/svg" xmlns:xlink="http://www.w3.org/1999/xlink" x="0px" y="0px"
	 viewBox="0 0 24 24" style="enable-background:new 0 0 24 24;" xml:space="preserve">
<g>
	<title>mobile-phone-3</title>
	<path d="M7.501,24c-1.93,0-3.5-1.57-3.5-3.5v-3.968C4,16.521,3.999,16.508,3.999,16.5v-11c0-0.008,0.001-0.021,0.002-0.032V3.5
		c0-1.93,1.57-3.5,3.5-3.5h9c1.93,0,3.5,1.57,3.5,3.5v17c0,1.93-1.57,3.5-3.5,3.5H7.501z M5.001,20.5c0,1.378,1.121,2.5,2.5,2.5h9
		c1.378,0,2.5-1.122,2.5-2.5v-2.589C18.841,17.97,18.672,18,18.499,18h-13c-0.171,0-0.339-0.03-0.498-0.087V20.5z M5.499,5
		C5.231,5,5.008,5.219,5.001,5.487l0,11.032C5.008,16.781,5.231,17,5.499,17h13c0.276,0,0.5-0.224,0.5-0.5v-11
		c0-0.276-0.224-0.5-0.5-0.5H5.499z M18.499,4c0.173,0,0.342,0.03,0.502,0.089V3.5c0-1.379-1.122-2.5-2.5-2.5h-9
		c-1.379,0-2.5,1.121-2.5,2.5v0.587C5.16,4.03,5.328,4,5.499,4H18.499z"/>
	<path d="M9.501,3c-0.276,0-0.5-0.224-0.5-0.5S9.225,2,9.501,2h5c0.276,0,0.5,0.224,0.5,0.5S14.777,3,14.501,3H9.501z"/>
	<path d="M11.501,22c-0.827,0-1.5-0.673-1.5-1.5s0.673-1.5,1.5-1.5H12.5c0.827,0,1.5,0.673,1.5,1.5S13.327,22,12.5,22H11.501z
		 M11.501,20c-0.276,0-0.5,0.224-0.5,0.5s0.224,0.5,0.5,0.5H12.5c0.276,0,0.5-0.224,0.5-0.5S12.776,20,12.5,20H11.501z"/>
</g>
</svg>
