<svg xmlns="http://www.w3.org/2000/svg" viewBox="0 0 24 24"><defs><style>.a{fill:none;stroke:currentColor;stroke-linecap:round;stroke-linejoin:round;stroke-width:1.5px;}</style></defs><title>programming-hold-code</title><path class="a" d="M13.533,16.35l7.545-.575a1.554,1.554,0,0,1,1.509,2.244h0a1.559,1.559,0,0,1-.845.76L11.308,22.691a2.991,2.991,0,0,1-2,.037L1.314,20.064"/><path class="a" d="M6.564,17.064h5.788a1.335,1.335,0,0,0,1.266-.912h0a1.335,1.335,0,0,0-.915-1.709L6.765,12.824a4.512,4.512,0,0,0-1.924-.1l-3.527.588"/><polyline class="a" points="8.73 2.966 5.064 5.716 8.73 8.466"/><polyline class="a" points="17.897 2.966 21.564 5.716 17.897 8.466"/><line class="a" x1="14.23" y1="1.132" x2="12.397" y2="10.299"/></svg>