<?xml version="1.0" encoding="utf-8"?>
<!-- Generator: Adobe Illustrator 22.1.0, SVG Export Plug-In . SVG Version: 6.00 Build 0)  -->
<svg version="1.1" id="Layer_1" xmlns="http://www.w3.org/2000/svg" xmlns:xlink="http://www.w3.org/1999/xlink" x="0px" y="0px"
	 viewBox="0 0 24 24" style="enable-background:new 0 0 24 24;" xml:space="preserve">
<g>
	<title>computer-chip-flash</title>
	<path d="M16.5,11c-0.107,0-0.21-0.034-0.297-0.098c-0.188-0.139-0.255-0.386-0.162-0.601L17.465,7H15.5
		c-0.167,0-0.323-0.083-0.416-0.223c-0.093-0.14-0.11-0.315-0.045-0.47l2.5-6C17.616,0.121,17.797,0,18,0h5
		c0.198,0,0.378,0.117,0.458,0.299c0.08,0.181,0.045,0.392-0.089,0.539L20.472,4H23.5c0.208,0,0.397,0.131,0.469,0.327
		c0.072,0.195,0.015,0.417-0.144,0.553l-7,6C16.735,10.957,16.619,11,16.5,11z M18.225,6c0.169,0,0.325,0.084,0.418,0.225
		c0.093,0.141,0.108,0.318,0.041,0.473l-0.87,2.016L22.148,5h-2.812c-0.198,0-0.378-0.117-0.458-0.299
		c-0.08-0.181-0.045-0.392,0.089-0.539L21.864,1h-3.531L16.25,6H18.225z"/>
	<path d="M13.5,24c-0.276,0-0.5-0.224-0.5-0.5V21h-3v2.5c0,0.276-0.224,0.5-0.5,0.5S9,23.776,9,23.5V21H6v2.5
		C6,23.776,5.775,24,5.5,24S5,23.776,5,23.5V21H4.5C3.673,21,3,20.327,3,19.5V19H0.5C0.224,19,0,18.776,0,18.5S0.224,18,0.5,18H3v-3
		H0.5C0.224,15,0,14.776,0,14.5S0.224,14,0.5,14H3v-3H0.5C0.224,11,0,10.776,0,10.5S0.224,10,0.5,10H3V9.5C3,8.673,3.673,8,4.5,8H5
		V5.5C5,5.224,5.224,5,5.5,5S6,5.224,6,5.5V8h3V5.5C9,5.224,9.224,5,9.5,5S10,5.224,10,5.5V8h3.5C13.775,8,14,8.224,14,8.5
		S13.775,9,13.5,9h-9C4.224,9,4,9.224,4,9.5v10C4,19.776,4.224,20,4.5,20h10c0.276,0,0.5-0.224,0.5-0.5v-7
		c0-0.276,0.224-0.5,0.5-0.5s0.5,0.224,0.5,0.5V14h2.5c0.276,0,0.5,0.224,0.5,0.5S18.775,15,18.5,15H16v3h2.5
		c0.276,0,0.5,0.224,0.5,0.5S18.775,19,18.5,19H16v0.5c0,0.827-0.673,1.5-1.5,1.5H14v2.5C14,23.776,13.775,24,13.5,24z"/>
	<path d="M7.5,19C6.121,19,5,17.878,5,16.5v-4C5,11.121,6.121,10,7.5,10h4c1.378,0,2.5,1.121,2.5,2.5v4c0,1.378-1.122,2.5-2.5,2.5
		H7.5z M7.5,11C6.673,11,6,11.673,6,12.5v4C6,17.327,6.673,18,7.5,18h4c0.827,0,1.5-0.673,1.5-1.5v-4c0-0.827-0.673-1.5-1.5-1.5H7.5
		z"/>
</g>
</svg>
