<svg id="Layer_1" data-name="Layer 1" xmlns="http://www.w3.org/2000/svg" viewBox="0 0 24.5 24.46"><defs><style>.a{fill:none;stroke:currentColor;stroke-linecap:round;stroke-linejoin:round;stroke-width:1.5px;}</style></defs><title>star-empty</title><path d="M13.36,1.33l2.95,6.35H22A1.41,1.41,0,0,1,23.5,9a1.43,1.43,0,0,1-.47,1.1l-5,4.91,2.76,6.34a1.5,1.5,0,0,1-.81,2,1.49,1.49,0,0,1-1.33-.09L12,19.52,5.34,23.28A1.51,1.51,0,0,1,3.2,21.4L6,15.05l-5-4.9a1.42,1.42,0,0,1-.13-2A1.4,1.4,0,0,1,2,7.68H7.71l3-6.36A1.53,1.53,0,0,1,12.74.71,1.48,1.48,0,0,1,13.36,1.33Z" transform="translate(0.25 0.23)" class="a"/></svg>