<?xml version="1.0" encoding="utf-8"?>
<!-- Generator: Adobe Illustrator 22.1.0, SVG Export Plug-In . SVG Version: 6.00 Build 0)  -->
<svg version="1.1" id="Layer_1" xmlns="http://www.w3.org/2000/svg" xmlns:xlink="http://www.w3.org/1999/xlink" x="0px" y="0px"
	 viewBox="0 0 24 24" style="enable-background:new 0 0 24 24;" xml:space="preserve">
<title>touch-finger-1</title>
<g>
	<path d="M9.477,23.997c-0.234,0-0.458-0.112-0.599-0.3l-3.85-5.132c-0.579-0.773-0.608-1.833-0.073-2.636
		c0.339-0.508,0.855-0.853,1.454-0.972c0.148-0.03,0.3-0.045,0.451-0.045c0.449,0,0.886,0.133,1.264,0.385
		c0.035,0.023,0.069,0.047,0.102,0.073l0.498,0.375V7.5c0-1.241,1.009-2.25,2.25-2.25s2.25,1.009,2.25,2.25v5.399l3.587,0.798
		c1.835,0.407,3.091,2.127,2.921,4l-0.511,5.622C19.184,23.707,18.863,24,18.473,24L9.477,23.997z M17.788,22.5l0.449-4.94
		c0.102-1.124-0.651-2.155-1.752-2.4l-4.174-0.928c-0.346-0.077-0.587-0.378-0.587-0.732v-6c0-0.414-0.336-0.75-0.75-0.75
		s-0.75,0.336-0.75,0.75v9.747c0,0.286-0.159,0.543-0.415,0.671c-0.103,0.052-0.219,0.079-0.335,0.079
		c-0.161,0-0.322-0.053-0.451-0.15l-1.7-1.278l-0.036-0.025c-0.128-0.085-0.277-0.131-0.43-0.131c-0.052,0-0.104,0.005-0.155,0.016
		c-0.206,0.041-0.384,0.159-0.5,0.333c-0.183,0.275-0.173,0.639,0.026,0.904l3.625,4.832L17.788,22.5z"/>
	<path d="M10.977,3.747c-0.414,0-0.75-0.336-0.75-0.75v-2.25c0-0.414,0.336-0.75,0.75-0.75s0.75,0.336,0.75,0.75v2.25
		C11.727,3.411,11.39,3.747,10.977,3.747z"/>
	<path d="M13.977,4.497c-0.2,0-0.389-0.078-0.53-0.22c-0.142-0.141-0.22-0.33-0.22-0.53s0.078-0.389,0.22-0.53l1.5-1.5
		c0.142-0.142,0.33-0.22,0.53-0.22s0.389,0.078,0.53,0.22c0.142,0.141,0.22,0.33,0.22,0.53s-0.078,0.389-0.22,0.53l-1.5,1.5
		C14.366,4.419,14.177,4.497,13.977,4.497z"/>
	<path d="M7.977,4.497c-0.2,0-0.389-0.078-0.53-0.22l-1.5-1.5c-0.142-0.141-0.22-0.33-0.22-0.53s0.078-0.389,0.22-0.53
		c0.141-0.142,0.33-0.22,0.53-0.22s0.389,0.078,0.53,0.22l1.5,1.5c0.142,0.141,0.22,0.33,0.22,0.53s-0.078,0.389-0.22,0.53
		C8.366,4.419,8.177,4.497,7.977,4.497z"/>
	<path d="M14.727,6.747c-0.414,0-0.75-0.336-0.75-0.75s0.336-0.75,0.75-0.75h2.25c0.414,0,0.75,0.336,0.75,0.75
		s-0.336,0.75-0.75,0.75H14.727z"/>
	<path d="M4.977,6.747c-0.414,0-0.75-0.336-0.75-0.75s0.336-0.75,0.75-0.75h2.25c0.414,0,0.75,0.336,0.75,0.75
		s-0.336,0.75-0.75,0.75H4.977z"/>
</g>
</svg>
