<?xml version="1.0" encoding="utf-8"?>
<!-- Generator: Adobe Illustrator 22.1.0, SVG Export Plug-In . SVG Version: 6.00 Build 0)  -->
<svg version="1.1" id="Layer_1" xmlns="http://www.w3.org/2000/svg" xmlns:xlink="http://www.w3.org/1999/xlink" x="0px" y="0px"
	 viewBox="0 0 24 24" style="enable-background:new 0 0 24 24;" xml:space="preserve">
<g>
	<title>programming-language-monitor-html</title>
	<path d="M10.499,12.5c-0.276,0-0.5-0.224-0.5-0.5V7.5h-0.5c-0.276,0-0.5-0.224-0.5-0.5s0.224-0.5,0.5-0.5h2
		c0.276,0,0.5,0.224,0.5,0.5s-0.224,0.5-0.5,0.5h-0.5V12C10.999,12.276,10.775,12.5,10.499,12.5z"/>
	<path d="M7.499,12.5c-0.276,0-0.5-0.224-0.5-0.5v-1.5h-1V12c0,0.276-0.224,0.5-0.5,0.5s-0.5-0.224-0.5-0.5V7
		c0-0.276,0.224-0.5,0.5-0.5s0.5,0.224,0.5,0.5v2.5h1V7c0-0.276,0.224-0.5,0.5-0.5s0.5,0.224,0.5,0.5v5
		C7.999,12.276,7.775,12.5,7.499,12.5z"/>
	<path d="M19.5,12.5c-0.827,0-1.5-0.673-1.5-1.5V7c0-0.276,0.224-0.5,0.5-0.5S19,6.724,19,7v4c0,0.276,0.224,0.5,0.5,0.5h1
		c0.276,0,0.5,0.224,0.5,0.5c0,0.276-0.224,0.5-0.5,0.5H19.5z"/>
	<path d="M16.499,12.5c-0.276,0-0.5-0.224-0.5-0.5V8.805l-0.571,0.952c-0.088,0.147-0.248,0.234-0.429,0.234
		s-0.341-0.088-0.429-0.234l-0.571-0.952V12c0,0.276-0.224,0.5-0.5,0.5s-0.5-0.224-0.5-0.5V7c0-0.224,0.151-0.422,0.367-0.482
		C13.409,6.506,13.454,6.5,13.498,6.5c0.176,0,0.34,0.093,0.43,0.243l1.071,1.785l1.071-1.785C16.16,6.593,16.324,6.5,16.499,6.5
		c0.045,0,0.09,0.006,0.133,0.018c0.216,0.06,0.366,0.258,0.366,0.482v5C16.999,12.276,16.775,12.5,16.499,12.5z"/>
	<path d="M5,22.5c-0.276,0-0.5-0.224-0.5-0.5s0.224-0.5,0.5-0.5h6v-1H2c-1.103,0-2-0.897-2-2v-15c0-1.103,0.897-2,2-2h20
		c1.103,0,2,0.897,2,2v15c0,1.103-0.897,2-2,2H12v1h7c0.276,0,0.5,0.224,0.5,0.5s-0.224,0.5-0.5,0.5H5z M1,18.5c0,0.552,0.449,1,1,1
		h20c0.552,0,1-0.448,1-1v-2H1V18.5z M23,15.5v-12c0-0.551-0.448-1-1-1H2c-0.551,0-1,0.449-1,1v12H23z"/>
</g>
</svg>
