<?xml version="1.0" encoding="utf-8"?>
<!-- Generator: Adobe Illustrator 22.1.0, SVG Export Plug-In . SVG Version: 6.00 Build 0)  -->
<svg version="1.1" id="Layer_1" xmlns="http://www.w3.org/2000/svg" xmlns:xlink="http://www.w3.org/1999/xlink" x="0px" y="0px"
	 viewBox="0 0 24 24" style="enable-background:new 0 0 24 24;" xml:space="preserve">
<g>
	<title>programming-language-code</title>
	<path d="M8.502,6c-0.276,0-0.5-0.224-0.5-0.5S8.226,5,8.502,5h6c0.276,0,0.5,0.224,0.5,0.5S14.777,6,14.502,6H8.502z"/>
	<path d="M8.502,9c-0.276,0-0.5-0.224-0.5-0.5S8.226,8,8.502,8h6c0.276,0,0.5,0.224,0.5,0.5S14.777,9,14.502,9H8.502z"/>
	<path d="M8.502,12c-0.276,0-0.5-0.224-0.5-0.5s0.224-0.5,0.5-0.5h6c0.276,0,0.5,0.224,0.5,0.5s-0.224,0.5-0.5,0.5H8.502z"/>
	<path d="M8.502,15c-0.276,0-0.5-0.224-0.5-0.5s0.224-0.5,0.5-0.5h6c0.276,0,0.5,0.224,0.5,0.5s-0.224,0.5-0.5,0.5H8.502z"/>
	<path d="M3.502,24c-1.93,0-3.5-1.57-3.5-3.5s1.57-3.5,3.5-3.5h1.5V3.5c0-1.93,1.57-3.5,3.5-3.5h12.5
		c1.647,0.046,2.948,1.36,2.974,2.996c0.023,0.226-0.051,0.463-0.203,0.653c-0.156,0.195-0.38,0.318-0.629,0.346
		C23.11,3.998,23.075,4,23.04,4h-4.038v16.5c0,1.93-1.57,3.5-3.5,3.5H3.502z M15.502,17c0.276,0,0.5,0.224,0.5,0.5
		s-0.224,0.5-0.5,0.5c-1.378,0-2.5,1.122-2.5,2.5s1.122,2.5,2.5,2.5s2.5-1.122,2.5-2.5V3c0-0.744,0.279-1.455,0.768-2H8.502
		c-1.379,0-2.5,1.121-2.5,2.5V17H15.502z M3.502,18c-1.379,0-2.5,1.122-2.5,2.5s1.121,2.5,2.5,2.5h9.551
		c-0.668-0.652-1.051-1.544-1.051-2.5s0.383-1.848,1.051-2.5H3.502z M22.977,3c-0.049-1.106-0.907-1.968-1.984-2
		c-1.098,0.001-1.991,0.899-1.991,2H22.977z"/>
</g>
</svg>
