<svg xmlns="http://www.w3.org/2000/svg" viewBox="0 0 24 24"><defs><style>.a{fill:none;stroke:currentColor;stroke-linecap:round;stroke-linejoin:round;stroke-width:1.5px;}</style></defs><title>usb-type-c</title><line class="a" x1="3" y1="9.38" x2="3" y2="1.88"/><line class="a" x1="1.5" y1="1.88" x2="4.5" y2="1.88"/><path class="a" d="M12.75,14.63a3,3,0,0,0-3,3v1.5a3,3,0,0,0,3,3"/><line class="a" x1="13.5" y1="9.38" x2="13.5" y2="1.88"/><path class="a" d="M13.5,1.88h.75a2.25,2.25,0,0,1,0,4.5H13.5"/><path class="a" d="M7.5,1.88V4.13a1.5,1.5,0,0,0,3,0V1.88"/><line class="a" x1="9" y1="5.63" x2="9" y2="9.38"/><path class="a" d="M22.5,9.38H21a1.5,1.5,0,0,1-1.5-1.5V3.38A1.5,1.5,0,0,1,21,1.88h1.5"/><line class="a" x1="19.5" y1="6.38" x2="22.5" y2="6.38"/></svg>