<svg xmlns="http://www.w3.org/2000/svg" viewBox="0 0 24 24"><defs><style>.a{fill:none;stroke:currentColor;stroke-linecap:round;stroke-linejoin:round;stroke-width:1.5px;}</style></defs><title>usb-cable-1</title><path class="a" d="M17.25,8.25H6.75V1.5A.75.75,0,0,1,7.5.75h9a.75.75,0,0,1,.75.75Z"/><line class="a" x1="9.75" y1="3.75" x2="9.75" y2="5.25"/><line class="a" x1="14.25" y1="3.75" x2="14.25" y2="5.25"/><polyline class="a" points="14.25 23.25 14.25 20.25 9.75 20.25 9.75 23.25"/><path class="a" d="M14.25,20.25H9.75a4.5,4.5,0,0,1-4.5-4.5v-6a1.5,1.5,0,0,1,1.5-1.5h10.5a1.5,1.5,0,0,1,1.5,1.5v6A4.5,4.5,0,0,1,14.25,20.25Z"/></svg>