<svg xmlns="http://www.w3.org/2000/svg" viewBox="0 0 24 24"><defs><style>.a{fill:none;stroke:currentColor;stroke-linecap:round;stroke-linejoin:round;stroke-width:1.5px;}</style></defs><title>usb-cable</title><path class="a" d="M16.5,6.75h-9V2.25A1.5,1.5,0,0,1,9,.75h6a1.5,1.5,0,0,1,1.5,1.5Z"/><path class="a" d="M18,6.75H6a1.5,1.5,0,0,0-1.5,1.5v2.507a3,3,0,0,0,.879,2.122L7.5,15v2.938a1.5,1.5,0,0,0,1.5,1.5h6a1.5,1.5,0,0,0,1.5-1.5V15l2.121-2.121a3,3,0,0,0,.879-2.122V8.25A1.5,1.5,0,0,0,18,6.75Z"/><line class="a" x1="11.25" y1="3.75" x2="12.75" y2="3.75"/><polyline class="a" points="10.5 11.25 12 9.75 13.5 11.25"/><line class="a" x1="12" y1="19.438" x2="12" y2="23.25"/></svg>