<?xml version="1.0" encoding="utf-8"?>
<!-- Generator: Adobe Illustrator 22.1.0, SVG Export Plug-In . SVG Version: 6.00 Build 0)  -->
<svg version="1.1" id="Light" xmlns="http://www.w3.org/2000/svg" xmlns:xlink="http://www.w3.org/1999/xlink" x="0px" y="0px"
	 viewBox="0 0 24 24" style="enable-background:new 0 0 24 24;" xml:space="preserve">
<g>
	<title>single-neutral-id-card-1</title>
	<path d="M11.949,16.5c-2.068,0-3.75-1.682-3.75-3.75c0-2.068,1.682-3.75,3.75-3.75c2.068,0,3.75,1.682,3.75,3.75
		C15.699,14.818,14.017,16.5,11.949,16.5z M11.949,10c-1.516,0-2.75,1.234-2.75,2.75s1.234,2.75,2.75,2.75s2.75-1.234,2.75-2.75
		S13.465,10,11.949,10z"/>
	<path d="M17.006,21.5c-0.209,0-0.398-0.132-0.47-0.329c-0.69-1.897-2.513-3.171-4.536-3.171c-0.56,0-1.113,0.098-1.644,0.291
		c-1.342,0.489-2.392,1.539-2.881,2.881c-0.071,0.197-0.26,0.329-0.47,0.329c-0.058,0-0.116-0.01-0.171-0.03
		c-0.126-0.046-0.226-0.138-0.282-0.259s-0.062-0.257-0.017-0.382c0.59-1.621,1.858-2.888,3.478-3.479
		c0.641-0.233,1.309-0.352,1.986-0.352c2.441,0,4.641,1.539,5.475,3.831c0.046,0.125,0.04,0.261-0.017,0.382
		c-0.056,0.121-0.157,0.213-0.282,0.259C17.122,21.49,17.065,21.5,17.006,21.5z"/>
	<circle cx="12" cy="2.75" r="0.75"/>
	<path d="M4.5,24C3.673,24,3,23.327,3,22.5v-17C3,4.673,3.673,4,4.5,4H9V3c0-1.654,1.346-3,3-3c1.654,0,3,1.346,3,3v1h4.5
		C20.327,4,21,4.673,21,5.5v17c0,0.827-0.673,1.5-1.5,1.5H4.5z M4.5,5C4.224,5,4,5.224,4,5.5v17C4,22.776,4.224,23,4.5,23h15
		c0.276,0,0.5-0.224,0.5-0.5v-17C20,5.224,19.776,5,19.5,5H15v1c0,0.551-0.448,1-1,1h-4C9.449,7,9,6.551,9,6V5H4.5z M12,1
		c-1.103,0-2,0.897-2,2v3h4V3C14,1.897,13.103,1,12,1z"/>
</g>
</svg>
