<?xml version="1.0" encoding="utf-8"?>
<!-- Generator: Adobe Illustrator 22.1.0, SVG Export Plug-In . SVG Version: 6.00 Build 0)  -->
<svg version="1.1" id="Light" xmlns="http://www.w3.org/2000/svg" xmlns:xlink="http://www.w3.org/1999/xlink" x="0px" y="0px"
	 viewBox="0 0 24 24" style="enable-background:new 0 0 24 24;" xml:space="preserve">
<g>
	<title>single-neutral-vintage-tv</title>
	<path d="M8.949,12.25c-2.068,0-3.75-1.682-3.75-3.75s1.682-3.75,3.75-3.75s3.75,1.682,3.75,3.75S11.017,12.25,8.949,12.25z
		 M8.949,5.75c-1.516,0-2.75,1.234-2.75,2.75s1.234,2.75,2.75,2.75s2.75-1.234,2.75-2.75S10.465,5.75,8.949,5.75z"/>
	<path d="M14.006,17.25c-0.209,0-0.398-0.132-0.47-0.329c-0.691-1.897-2.513-3.171-4.536-3.171c-0.56,0-1.113,0.098-1.644,0.291
		c-1.342,0.489-2.392,1.539-2.881,2.881c-0.071,0.197-0.26,0.329-0.47,0.329c-0.058,0-0.115-0.01-0.17-0.03
		c-0.126-0.046-0.226-0.138-0.283-0.259s-0.062-0.257-0.017-0.382c0.59-1.621,1.858-2.888,3.478-3.479
		c0.641-0.233,1.309-0.352,1.986-0.352c2.441,0,4.641,1.539,5.475,3.831c0.046,0.125,0.04,0.261-0.017,0.382
		c-0.056,0.121-0.157,0.213-0.282,0.259C14.122,17.24,14.065,17.25,14.006,17.25z"/>
	<path d="M19.5,16.75c-0.276,0-0.5-0.224-0.5-0.5s0.224-0.5,0.5-0.5h2c0.276,0,0.5,0.224,0.5,0.5s-0.224,0.5-0.5,0.5H19.5z"/>
	<path d="M19.5,14.75c-0.276,0-0.5-0.224-0.5-0.5s0.224-0.5,0.5-0.5h2c0.276,0,0.5,0.224,0.5,0.5s-0.224,0.5-0.5,0.5H19.5z"/>
	<path d="M19.5,12.75c-0.276,0-0.5-0.224-0.5-0.5c0-0.276,0.224-0.5,0.5-0.5h2c0.276,0,0.5,0.224,0.5,0.5c0,0.276-0.224,0.5-0.5,0.5
		H19.5z"/>
	<path d="M20.5,8.75c-0.827,0-1.5-0.673-1.5-1.5s0.673-1.5,1.5-1.5S22,6.423,22,7.25S21.327,8.75,20.5,8.75z M20.5,6.75
		c-0.276,0-0.5,0.224-0.5,0.5s0.224,0.5,0.5,0.5S21,7.526,21,7.25S20.776,6.75,20.5,6.75z"/>
	<path d="M21.5,22.25c-0.153,0-0.295-0.068-0.391-0.187l-1.85-2.313H4.74l-1.85,2.312C2.795,22.182,2.652,22.25,2.5,22.25
		c-0.113,0-0.224-0.039-0.312-0.11c-0.215-0.172-0.25-0.488-0.078-0.703l1.35-1.688H1.5c-0.827,0-1.5-0.673-1.5-1.5v-15
		c0-0.827,0.673-1.5,1.5-1.5h21c0.827,0,1.5,0.673,1.5,1.5v15c0,0.827-0.673,1.5-1.5,1.5h-1.959l1.35,1.688
		c0.172,0.215,0.137,0.531-0.078,0.703C21.724,22.211,21.613,22.25,21.5,22.25z M22.5,18.75c0.276,0,0.5-0.224,0.5-0.5v-15
		c0-0.276-0.224-0.5-0.5-0.5H18v16H22.5z M1.5,2.75C1.224,2.75,1,2.974,1,3.25v15c0,0.276,0.224,0.5,0.5,0.5H17v-16H1.5z"/>
</g>
</svg>
