<?xml version="1.0" encoding="utf-8"?>
<!-- Generator: Adobe Illustrator 22.1.0, SVG Export Plug-In . SVG Version: 6.00 Build 0)  -->
<svg version="1.1" id="Light" xmlns="http://www.w3.org/2000/svg" xmlns:xlink="http://www.w3.org/1999/xlink" x="0px" y="0px"
	 viewBox="0 0 24 24" style="enable-background:new 0 0 24 24;" xml:space="preserve">
<g>
	<title>single-neutral-id-card-4</title>
	<path d="M13.5,15c-0.276,0-0.5-0.224-0.5-0.5s0.224-0.5,0.5-0.5h7c0.276,0,0.5,0.224,0.5,0.5S20.776,15,20.5,15H13.5z"/>
	<path d="M13.5,12c-0.276,0-0.5-0.224-0.5-0.5s0.224-0.5,0.5-0.5h7c0.276,0,0.5,0.224,0.5,0.5S20.776,12,20.5,12H13.5z"/>
	<path d="M13.5,9C13.224,9,13,8.776,13,8.5S13.224,8,13.5,8H17c0.276,0,0.5,0.224,0.5,0.5S17.276,9,17,9H13.5z"/>
	<path d="M7,11.5c-1.516,0-2.75-1.234-2.75-2.75S5.484,6,7,6s2.75,1.234,2.75,2.75S8.516,11.5,7,11.5z M7,7
		C6.035,7,5.25,7.785,5.25,8.75S6.035,10.5,7,10.5s1.75-0.785,1.75-1.75S7.965,7,7,7z"/>
	<path d="M2.5,16c-0.156,0-0.3-0.071-0.395-0.193c-0.094-0.121-0.128-0.282-0.089-0.43c0.465-1.825,1.888-3.248,3.713-3.713
		c0.417-0.106,0.844-0.16,1.271-0.16c2.353,0,4.403,1.593,4.985,3.874c0.038,0.148,0.005,0.309-0.09,0.43
		C11.8,15.929,11.656,16,11.5,16H2.5z M10.803,15C10.152,13.493,8.665,12.503,7,12.503c-0.343,0-0.688,0.043-1.024,0.129
		C4.721,12.952,3.704,13.825,3.197,15H10.803z"/>
	<path d="M20,21c-0.552,0-1-0.448-1-1v-0.5c0-0.827-0.673-1.5-1.5-1.5S16,18.673,16,19.5V20c0,0.552-0.448,1-1,1H8.5
		c-0.551,0-1-0.448-1-1v-0.5C7.5,18.673,6.827,18,6,18s-1.5,0.673-1.5,1.5V20c0,0.552-0.449,1-1,1h-2C0.673,21,0,20.327,0,19.5v-15
		C0,3.673,0.673,3,1.5,3h21C23.327,3,24,3.673,24,4.5v15c0,0.827-0.673,1.5-1.5,1.5H20z M17.5,17c1.378,0,2.5,1.122,2.5,2.5V20h2.5
		c0.276,0,0.5-0.224,0.5-0.5v-15C23,4.224,22.776,4,22.5,4h-21C1.224,4,1,4.224,1,4.5v15C1,19.776,1.224,20,1.5,20h2v-0.5
		C3.5,18.122,4.621,17,6,17s2.5,1.122,2.5,2.5V20H15v-0.5C15,18.122,16.122,17,17.5,17z"/>
</g>
</svg>
