<?xml version="1.0" encoding="utf-8"?>
<!-- Generator: Adobe Illustrator 22.1.0, SVG Export Plug-In . SVG Version: 6.00 Build 0)  -->
<svg version="1.1" id="Light" xmlns="http://www.w3.org/2000/svg" xmlns:xlink="http://www.w3.org/1999/xlink" x="0px" y="0px"
	 viewBox="0 0 24 24" style="enable-background:new 0 0 24 24;" xml:space="preserve">
<g>
	<title>single-neutral-phone-book</title>
	<path d="M1.5,24C0.673,24,0,23.327,0,22.5v-21C0,0.673,0.673,0,1.5,0h18C20.327,0,21,0.673,21,1.5h0.5
		c1.375,0.004,2.496,1.125,2.5,2.499V20c-0.004,1.375-1.125,2.496-2.499,2.5H21c0,0.827-0.673,1.5-1.5,1.5H1.5z M19.5,23
		c0.276,0,0.5-0.224,0.5-0.5v-21C20,1.224,19.776,1,19.5,1H4v22H19.5z M1.5,1C1.224,1,1,1.224,1,1.5v21C1,22.776,1.224,23,1.5,23H3
		V1H1.5z M21.5,21.5c0.824-0.002,1.498-0.676,1.5-1.501V17.5h-2v4H21.5z M23,16.5v-4h-2v4H23z M23,11.5v-4h-2v4H23z M23,6.5V4
		c-0.002-0.824-0.676-1.497-1.501-1.5H21v4H23z"/>
	<path d="M6.5,18C6.224,18,6,17.776,6,17.5c0-3.033,2.467-5.5,5.5-5.5s5.5,2.467,5.5,5.5c0,0.276-0.224,0.5-0.5,0.5H6.5z M15.972,17
		c-0.25-2.263-2.166-4-4.472-4c-2.307,0-4.223,1.737-4.473,4H15.972z"/>
	<path d="M11.5,11.5C9.57,11.5,8,9.93,8,8s1.57-3.5,3.5-3.5S15,6.07,15,8S13.43,11.5,11.5,11.5z M11.5,5.5C10.121,5.5,9,6.621,9,8
		s1.121,2.5,2.5,2.5c1.378,0,2.5-1.121,2.5-2.5S12.878,5.5,11.5,5.5z"/>
</g>
</svg>
