<?xml version="1.0" encoding="utf-8"?>
<!-- Generator: Adobe Illustrator 22.1.0, SVG Export Plug-In . SVG Version: 6.00 Build 0)  -->
<svg version="1.1" id="Light" xmlns="http://www.w3.org/2000/svg" xmlns:xlink="http://www.w3.org/1999/xlink" x="0px" y="0px"
	 viewBox="0 0 24 24" style="enable-background:new 0 0 24 24;" xml:space="preserve">
<g>
	<title>single-neutral-circle</title>
	<path d="M12,24C5.383,24,0,18.617,0,12C0,5.383,5.383,0,12,0c6.617,0,12,5.383,12,12C24,18.617,18.617,24,12,24z M12,1
		C5.935,1,1,5.935,1,12s4.935,11,11,11s11-4.935,11-11S18.065,1,12,1z"/>
	<path d="M12,13.5c-2.619,0-4.75-2.131-4.75-4.75S9.381,4,12,4s4.75,2.131,4.75,4.75S14.619,13.5,12,13.5z M12,5
		C9.932,5,8.25,6.682,8.25,8.75S9.932,12.5,12,12.5c2.068,0,3.75-1.682,3.75-3.75S14.068,5,12,5z"/>
	<path d="M5.683,19c-0.075,0-0.147-0.016-0.214-0.049c-0.249-0.118-0.355-0.417-0.237-0.666c0.739-1.562,2.005-2.829,3.567-3.567
		C9.806,14.242,10.88,14,11.989,14c2.887,0,5.549,1.682,6.781,4.286c0.117,0.25,0.011,0.548-0.238,0.666
		C18.463,18.984,18.391,19,18.317,19c-0.193,0-0.37-0.112-0.452-0.286C16.798,16.458,14.491,15,11.989,15
		c-0.96,0-1.89,0.209-2.763,0.623c-1.353,0.64-2.451,1.738-3.091,3.091C6.053,18.888,5.875,19,5.683,19z"/>
</g>
</svg>
