<svg xmlns="http://www.w3.org/2000/svg" viewBox="0 0 24 24"><title>security-remote-lock</title><path d="M21.5,11.625a2,2,0,0,0-2-2h-.25a.5.5,0,0,1-.5-.5v-2.5a6.75,6.75,0,0,0-13.5,0v2.5a.5.5,0,0,1-.5.5H4.5a2,2,0,0,0-2,2v10.5a2,2,0,0,0,2,2h15a2,2,0,0,0,2-2Zm-13.75-5a4.25,4.25,0,0,1,8.5,0v2.5a.5.5,0,0,1-.5.5H8.25a.5.5,0,0,1-.5-.5ZM12,21.125a1.41,1.41,0,1,1,1.409-1.409A1.408,1.408,0,0,1,12,21.125Zm2.917-3.7a.75.75,0,0,1-1.054.113,2.945,2.945,0,0,0-3.725,0A.75.75,0,0,1,9.2,16.367a4.436,4.436,0,0,1,5.609,0A.75.75,0,0,1,14.917,17.422Zm1.666-2.41a.75.75,0,0,1-1.054.113,5.577,5.577,0,0,0-7.058,0,.75.75,0,0,1-.942-1.168,7.068,7.068,0,0,1,8.942,0A.75.75,0,0,1,16.583,15.012Z"/></svg>