<svg xmlns="http://www.w3.org/2000/svg" viewBox="0 0 24 24"><title>shield-check-1</title><path d="M24,1.953A1.96,1.96,0,0,0,22.045.006H1.96A1.961,1.961,0,0,0,.012,1.964L0,9.306A15.145,15.145,0,0,0,11.861,23.974a.976.976,0,0,0,.4,0A15.144,15.144,0,0,0,23.988,9.2ZM12,17.994a7.25,7.25,0,0,1,0-14.5,1,1,0,1,1,0,2,5.25,5.25,0,1,0,5.167,6.19,1,1,0,1,1,1.967.356A7.241,7.241,0,0,1,12,17.994ZM18.957,5.349a1,1,0,0,1,0,1.414l-5.7,5.7a1.787,1.787,0,0,1-2.519,0L8.949,10.669a1,1,0,0,1,1.415-1.415l1.282,1.284a.5.5,0,0,0,.708,0l5.189-5.189A1,1,0,0,1,18.957,5.349Z"/></svg>