<svg xmlns="http://www.w3.org/2000/svg" viewBox="0 0 24 24"><title>shield-lock</title><circle cx="12" cy="11.994" r="1.5"/><path d="M12,4.744a1.752,1.752,0,0,0-1.75,1.75v1.25a.5.5,0,0,0,.5.5h2.5a.5.5,0,0,0,.5-.5V6.494A1.752,1.752,0,0,0,12,4.744Z"/><path d="M24,1.953A1.959,1.959,0,0,0,22.043.006H1.959A1.958,1.958,0,0,0,.012,1.965L0,9.306A15.146,15.146,0,0,0,11.861,23.975a1,1,0,0,0,.4,0A15.145,15.145,0,0,0,23.988,9.2ZM17,14.744a1,1,0,0,1-1,1H8a1,1,0,0,1-1-1v-5.5a1,1,0,0,1,1-1h.25a.5.5,0,0,0,.5-.5V6.494a3.25,3.25,0,0,1,6.5,0v1.25a.5.5,0,0,0,.5.5H16a1,1,0,0,1,1,1Z"/></svg>