<?xml version="1.0" encoding="utf-8"?>
<!-- Generator: Adobe Illustrator 22.1.0, SVG Export Plug-In . SVG Version: 6.00 Build 0)  -->
<svg version="1.1" id="Layer_1" xmlns="http://www.w3.org/2000/svg" xmlns:xlink="http://www.w3.org/1999/xlink" x="0px" y="0px"
	 viewBox="0 0 24 24" style="enable-background:new 0 0 24 24;" xml:space="preserve">
<g>
	<title>radio-search-station</title>
	<path d="M3,24c-1.379,0-2.5-1.122-2.5-2.5v-11C0.5,9.121,1.621,8,3,8h15.5V3.5C18.5,3.224,18.724,3,19,3s0.5,0.224,0.5,0.5V8H21
		c1.378,0,2.5,1.121,2.5,2.5v11c0,1.378-1.122,2.5-2.5,2.5H3z M3,9c-0.827,0-1.5,0.673-1.5,1.5v11C1.5,22.327,2.173,23,3,23h18
		c0.827,0,1.5-0.673,1.5-1.5v-11C22.5,9.673,21.827,9,21,9H3z"/>
	<path d="M19,2c-0.276,0-0.5-0.224-0.5-0.5v-1C18.5,0.224,18.724,0,19,0s0.5,0.224,0.5,0.5v1C19.5,1.776,19.276,2,19,2z"/>
	<path d="M21,4c-0.276,0-0.5-0.224-0.5-0.5S20.724,3,21,3h1c0.276,0,0.5,0.224,0.5,0.5S22.276,4,22,4H21z"/>
	<path d="M16,4c-0.276,0-0.5-0.224-0.5-0.5S15.724,3,16,3h1c0.276,0,0.5,0.224,0.5,0.5S17.276,4,17,4H16z"/>
	<path d="M5.5,15c-1.103,0-2-0.897-2-2s0.897-2,2-2h8c1.103,0,2,0.897,2,2s-0.897,2-2,2H5.5z M13.5,14c0.552,0,1-0.448,1-1
		s-0.448-1-1-1h-2v2H13.5z M5.5,12c-0.551,0-1,0.448-1,1s0.449,1,1,1h5v-2H5.5z"/>
	<path d="M19.5,15c-1.103,0-2-0.897-2-2s0.897-2,2-2s2,0.897,2,2S20.603,15,19.5,15z M19.5,12c-0.552,0-1,0.448-1,1s0.448,1,1,1
		s1-0.448,1-1S20.052,12,19.5,12z"/>
	<path d="M4,21c-0.276,0-0.5-0.224-0.5-0.5v-3C3.5,17.224,3.724,17,4,17s0.5,0.224,0.5,0.5v3C4.5,20.776,4.276,21,4,21z"/>
	<path d="M8,21c-0.276,0-0.5-0.224-0.5-0.5v-3C7.5,17.224,7.724,17,8,17s0.5,0.224,0.5,0.5v3C8.5,20.776,8.276,21,8,21z"/>
	<path d="M12,21c-0.276,0-0.5-0.224-0.5-0.5v-3c0-0.276,0.224-0.5,0.5-0.5c0.276,0,0.5,0.224,0.5,0.5v3C12.5,20.776,12.276,21,12,21
		z"/>
	<path d="M16,21c-0.276,0-0.5-0.224-0.5-0.5v-3c0-0.276,0.224-0.5,0.5-0.5s0.5,0.224,0.5,0.5v3C16.5,20.776,16.276,21,16,21z"/>
	<path d="M20,21c-0.276,0-0.5-0.224-0.5-0.5v-3c0-0.276,0.224-0.5,0.5-0.5s0.5,0.224,0.5,0.5v3C20.5,20.776,20.276,21,20,21z"/>
</g>
</svg>
