<?xml version="1.0" encoding="utf-8"?>
<!-- Generator: Adobe Illustrator 22.1.0, SVG Export Plug-In . SVG Version: 6.00 Build 0)  -->
<svg version="1.1" id="Layer_1" xmlns="http://www.w3.org/2000/svg" xmlns:xlink="http://www.w3.org/1999/xlink" x="0px" y="0px"
	 viewBox="0 0 24 24" style="enable-background:new 0 0 24 24;" xml:space="preserve">
<g>
	<title>radio-stereo</title>
	<path d="M4.5,22.5C2.019,22.5,0,20.481,0,18c0-1.508,0.745-2.894,2-3.735V13.25c0-0.861,0.828-1.559,2-1.716V9
		c0-0.827,0.673-1.5,1.5-1.5h13C19.327,7.5,20,8.173,20,9v2.534c1.172,0.157,2,0.855,2,1.716v1.015c1.255,0.841,2,2.227,2,3.735
		c0,2.481-2.019,4.5-4.5,4.5H4.5z M19.5,14.5c-1.93,0-3.5,1.57-3.5,3.5s1.57,3.5,3.5,3.5S23,19.93,23,18S21.43,14.5,19.5,14.5z
		 M16.675,21.5C15.626,20.654,15,19.375,15,18c0-2.481,2.019-4.5,4.5-4.5c0.513,0,1.016,0.087,1.5,0.26v-0.51
		c0-0.354-0.642-0.75-1.5-0.75h-3.293l-1.854,1.854C14.259,14.448,14.134,14.5,14,14.5h-4c-0.134,0-0.259-0.052-0.354-0.146
		L7.793,12.5H4.5c-0.859,0-1.5,0.396-1.5,0.75v0.51c0.484-0.173,0.987-0.26,1.5-0.26C6.981,13.5,9,15.519,9,18
		c0,1.375-0.626,2.654-1.675,3.5H16.675z M4.5,14.5C2.57,14.5,1,16.07,1,18s1.57,3.5,3.5,3.5S8,19.93,8,18S6.43,14.5,4.5,14.5z
		 M13.793,13.5l1-1H9.207l1,1H13.793z M19,11.5V9c0-0.276-0.224-0.5-0.5-0.5h-13C5.224,8.5,5,8.724,5,9v2.5H19z"/>
	<path d="M10.5,17.5c-0.276,0-0.5-0.224-0.5-0.5s0.224-0.5,0.5-0.5h3c0.276,0,0.5,0.224,0.5,0.5s-0.224,0.5-0.5,0.5H10.5z"/>
	<path d="M19.5,19.5c-0.827,0-1.5-0.673-1.5-1.5s0.673-1.5,1.5-1.5S21,17.173,21,18S20.327,19.5,19.5,19.5z M19.5,17.5
		c-0.276,0-0.5,0.224-0.5,0.5s0.224,0.5,0.5,0.5S20,18.276,20,18S19.776,17.5,19.5,17.5z"/>
	<path d="M4.5,19.5C3.673,19.5,3,18.827,3,18s0.673-1.5,1.5-1.5S6,17.173,6,18S5.327,19.5,4.5,19.5z M4.5,17.5
		C4.224,17.5,4,17.724,4,18s0.224,0.5,0.5,0.5S5,18.276,5,18S4.776,17.5,4.5,17.5z"/>
	<circle cx="10.75" cy="19.241" r="0.75"/>
	<circle cx="13.25" cy="19.241" r="0.75"/>
	<path d="M2.5,6.5C2.224,6.5,2,6.276,2,6c0-1.379,1.121-2.5,2.5-2.5C4.776,3.5,5,3.724,5,4S4.776,4.5,4.5,4.5C3.673,4.5,3,5.173,3,6
		C3,6.276,2.776,6.5,2.5,6.5z"/>
	<path d="M0.5,6.5C0.224,6.5,0,6.276,0,6c0-2.481,2.019-4.5,4.5-4.5C4.776,1.5,5,1.724,5,2S4.776,2.5,4.5,2.5C2.57,2.5,1,4.07,1,6
		C1,6.276,0.776,6.5,0.5,6.5z"/>
	<path d="M21.5,6.5C21.224,6.5,21,6.276,21,6c0-0.827-0.673-1.5-1.5-1.5C19.224,4.5,19,4.276,19,4s0.224-0.5,0.5-0.5
		C20.878,3.5,22,4.621,22,6C22,6.276,21.776,6.5,21.5,6.5z"/>
	<path d="M23.5,6.5C23.224,6.5,23,6.276,23,6c0-1.93-1.57-3.5-3.5-3.5C19.224,2.5,19,2.276,19,2s0.224-0.5,0.5-0.5
		C21.981,1.5,24,3.519,24,6C24,6.276,23.776,6.5,23.5,6.5z"/>
</g>
</svg>
