<?xml version="1.0" encoding="utf-8"?>
<!-- Generator: Adobe Illustrator 22.1.0, SVG Export Plug-In . SVG Version: 6.00 Build 0)  -->
<svg version="1.1" id="Layer_1" xmlns="http://www.w3.org/2000/svg" xmlns:xlink="http://www.w3.org/1999/xlink" x="0px" y="0px"
	 viewBox="0 0 24 24" style="enable-background:new 0 0 24 24;" xml:space="preserve">
<g>
	<title>radio-antenna-2</title>
	<path d="M5.5,22C3.57,22,2,20.43,2,18.5S3.57,15,5.5,15S9,16.57,9,18.5S7.43,22,5.5,22z M5.5,16C4.121,16,3,17.122,3,18.5
		S4.121,21,5.5,21S8,19.878,8,18.5S6.879,16,5.5,16z"/>
	<path d="M18.5,22c-1.93,0-3.5-1.57-3.5-3.5s1.57-3.5,3.5-3.5s3.5,1.57,3.5,3.5S20.43,22,18.5,22z M18.5,16
		c-1.378,0-2.5,1.122-2.5,2.5s1.122,2.5,2.5,2.5s2.5-1.122,2.5-2.5S19.878,16,18.5,16z"/>
	<path d="M10.399,20c-0.151,0-0.292-0.067-0.388-0.184c-0.095-0.116-0.133-0.268-0.102-0.416c0.187-0.912,0.087-1.845-0.289-2.698
		c-0.068-0.155-0.054-0.333,0.039-0.475C9.752,16.085,9.909,16,10.078,16h3.843c0.17,0,0.326,0.085,0.419,0.227
		c0.093,0.142,0.107,0.319,0.039,0.475c-0.376,0.852-0.475,1.785-0.289,2.698c0.031,0.148-0.007,0.3-0.103,0.417
		C13.893,19.933,13.751,20,13.6,20H10.399z M13.021,19c-0.061-0.671,0.003-1.352,0.188-2h-2.42c0.185,0.648,0.25,1.329,0.188,2
		H13.021z"/>
	<path d="M1.5,24C0.673,24,0,23.327,0,22.5v-12C0,9.673,0.673,9,1.5,9H3V8.5C3,8.224,3.224,8,3.5,8S4,8.224,4,8.5V9h1V8.5
		C5,8.224,5.224,8,5.5,8S6,8.224,6,8.5V9h1V8.5C7,8.224,7.224,8,7.5,8S8,8.224,8,8.5V9h11V8.5c0-0.02,0-0.041,0.001-0.061
		L0.314,0.964C0.058,0.862-0.067,0.57,0.036,0.314C0.112,0.123,0.294,0,0.5,0c0.063,0,0.126,0.012,0.185,0.035l18.689,7.475
		C19.657,7.188,20.065,7,20.5,7C21.327,7,22,7.673,22,8.5V9h0.5c0.827,0,1.5,0.673,1.5,1.5v12c0,0.827-0.673,1.5-1.5,1.5H1.5z
		 M1,22.5C1,22.776,1.224,23,1.5,23h21c0.276,0,0.5-0.224,0.5-0.5V14H1V22.5z M23,13v-2.5c0-0.276-0.224-0.5-0.5-0.5h-21
		C1.224,10,1,10.224,1,10.5V13h16v-1.5c0-0.276,0.224-0.5,0.5-0.5s0.5,0.224,0.5,0.5V13H23z M21,9V8.5C21,8.224,20.776,8,20.5,8
		S20,8.224,20,8.5V9H21z"/>
	<path d="M2.5,12C2.224,12,2,11.776,2,11.5S2.224,11,2.5,11h13c0.276,0,0.5,0.224,0.5,0.5S15.776,12,15.5,12H2.5z"/>
	<path d="M19.5,12c-0.276,0-0.5-0.224-0.5-0.5s0.224-0.5,0.5-0.5h2c0.276,0,0.5,0.224,0.5,0.5S21.776,12,21.5,12H19.5z"/>
</g>
</svg>
