<?xml version="1.0" encoding="utf-8"?>
<!-- Generator: Adobe Illustrator 22.1.0, SVG Export Plug-In . SVG Version: 6.00 Build 0)  -->
<svg version="1.1" id="Layer_1" xmlns="http://www.w3.org/2000/svg" xmlns:xlink="http://www.w3.org/1999/xlink" x="0px" y="0px"
	 viewBox="0 0 24 24" style="enable-background:new 0 0 24 24;" xml:space="preserve">
<g>
	<title>radio-antenna</title>
	<path d="M18.5,24c-0.276,0-0.5-0.224-0.5-0.5V23H6v0.5C6,23.775,5.776,24,5.5,24S5,23.775,5,23.5V23H2.5C1.121,23,0,21.878,0,20.5
		v-10c0-1.341,1.037-2.427,2.37-2.494l15.906-7.953C18.345,0.018,18.423,0,18.5,0c0.19,0,0.362,0.106,0.447,0.276
		c0.124,0.247,0.023,0.548-0.223,0.671L4.618,8H21.5c1.378,0,2.5,1.121,2.5,2.5v10c0,1.378-1.122,2.5-2.5,2.5H19v0.5
		C19,23.775,18.776,24,18.5,24z M2.5,9C1.673,9,1,9.673,1,10.5v10C1,21.327,1.673,22,2.5,22h19c0.827,0,1.5-0.673,1.5-1.5v-10
		C23,9.673,22.327,9,21.5,9H2.5z"/>
	<path d="M4,17c-1.103,0-2-0.897-2-2v-3c0-1.103,0.897-2,2-2h16c1.103,0,2,0.897,2,2v3c0,1.103-0.897,2-2,2H4z M3,15
		c0,0.552,0.449,1,1,1h16c0.552,0,1-0.448,1-1H3z M21,14v-1H3v1H21z M21,12c0-0.551-0.448-1-1-1H4c-0.551,0-1,0.449-1,1H21z"/>
	<path d="M4.5,21C3.673,21,3,20.327,3,19.5S3.673,18,4.5,18S6,18.673,6,19.5S5.327,21,4.5,21z M4.5,19C4.224,19,4,19.224,4,19.5
		S4.224,20,4.5,20S5,19.775,5,19.5S4.776,19,4.5,19z"/>
	<path d="M19.5,21c-0.827,0-1.5-0.673-1.5-1.5s0.673-1.5,1.5-1.5s1.5,0.673,1.5,1.5S20.327,21,19.5,21z M19.5,19
		c-0.276,0-0.5,0.224-0.5,0.5s0.224,0.5,0.5,0.5s0.5-0.224,0.5-0.5S19.776,19,19.5,19z"/>
	<path d="M8.5,21C7.673,21,7,20.327,7,19.5S7.673,18,8.5,18h7c0.827,0,1.5,0.673,1.5,1.5S16.327,21,15.5,21H8.5z M15.5,20
		c0.276,0,0.5-0.224,0.5-0.5S15.776,19,15.5,19H14v1H15.5z M8.5,19C8.224,19,8,19.224,8,19.5S8.224,20,8.5,20H13v-1H8.5z"/>
</g>
</svg>
