<?xml version="1.0" encoding="utf-8"?>
<!-- Generator: Adobe Illustrator 22.1.0, SVG Export Plug-In . SVG Version: 6.00 Build 0)  -->
<svg version="1.1" id="Layer_1" xmlns="http://www.w3.org/2000/svg" xmlns:xlink="http://www.w3.org/1999/xlink" x="0px" y="0px"
	 viewBox="0 0 24 24" style="enable-background:new 0 0 24 24;" xml:space="preserve">
<g>
	<title>radio-stereo-1</title>
	<path d="M6.5,22.5C2.916,22.5,0,19.584,0,16v-2c0-2.481,2.019-4.5,4.5-4.5h2.153l1.135-3.026C8.007,5.891,8.571,5.5,9.193,5.5
		h5.614c0.622,0,1.186,0.391,1.404,0.974L17.347,9.5H19.5c2.481,0,4.5,2.019,4.5,4.5v2c0,3.584-2.916,6.5-6.5,6.5H6.5z M16.598,21.5
		l-1.875-3H9.277l-1.875,3H16.598z M17.772,21.491C20.667,21.348,23,18.914,23,16v-2c0-1.93-1.57-3.5-3.5-3.5h-0.282l-0.978,2.004
		c0.086-0.006,0.173-0.01,0.26-0.01c1.58,0,2.969,1.065,3.378,2.59c0.242,0.903,0.119,1.846-0.349,2.656
		c-0.467,0.81-1.222,1.389-2.125,1.631c-0.296,0.08-0.601,0.12-0.906,0.12c-1.171,0-2.267-0.598-2.91-1.557l-0.018,0.036
		L17.772,21.491z M4.5,10.5C2.57,10.5,1,12.07,1,14v2c0,2.914,2.332,5.348,5.228,5.491l2.201-3.521l-0.018-0.036
		c-0.643,0.959-1.739,1.557-2.91,1.557c-0.305,0-0.61-0.04-0.906-0.12c-1.864-0.5-2.974-2.424-2.473-4.287
		c0.409-1.525,1.799-2.59,3.379-2.59c0.086,0,0.173,0.003,0.259,0.01L4.782,10.5H4.5z M5.503,13.49c-1.13,0-2.123,0.762-2.415,1.852
		c-0.357,1.331,0.435,2.705,1.767,3.062c0.212,0.057,0.429,0.086,0.646,0.086c1.058,0,2.015-0.687,2.361-1.683l-1.553-3.181
		c-0.052-0.019-0.105-0.037-0.158-0.052C5.938,13.519,5.721,13.49,5.503,13.49z M16.138,16.808c0.345,0.995,1.303,1.683,2.361,1.683
		c0.217,0,0.434-0.029,0.646-0.085c0.645-0.173,1.184-0.587,1.518-1.166c0.334-0.578,0.422-1.252,0.249-1.897
		c-0.173-0.645-0.587-1.184-1.165-1.518c-0.381-0.22-0.811-0.336-1.245-0.336c-0.219,0-0.438,0.029-0.652,0.086
		c-0.053,0.014-0.106,0.032-0.158,0.052L16.138,16.808z M14.688,17.5l3.418-7H5.895l1.229,2.517
		c0.003,0.006,0.012,0.025,0.014,0.031L9.312,17.5H14.688z M16.278,9.5l-1.004-2.675C15.202,6.63,15.014,6.5,14.807,6.5H9.193h0
		c-0.207,0-0.395,0.13-0.468,0.325L7.722,9.5H16.278z"/>
	<circle cx="18.5" cy="15.991" r="0.75"/>
	<circle cx="5.5" cy="15.991" r="0.75"/>
	<circle cx="10.25" cy="15.75" r="0.75"/>
	<circle cx="13.75" cy="15.75" r="0.75"/>
	<path d="M10,14.491c-0.551,0-1-0.448-1-1v-1c0-0.551,0.449-1,1-1h4c0.552,0,1,0.449,1,1v1c0,0.552-0.448,1-1,1H10z M10,13.491h4v-1
		h-4L10,13.491z"/>
	<path d="M2.5,6.5C2.224,6.5,2,6.276,2,6c0-1.379,1.121-2.5,2.5-2.5C4.776,3.5,5,3.724,5,4S4.776,4.5,4.5,4.5C3.673,4.5,3,5.173,3,6
		C3,6.276,2.776,6.5,2.5,6.5z"/>
	<path d="M0.5,6.5C0.224,6.5,0,6.276,0,6c0-2.481,2.019-4.5,4.5-4.5C4.776,1.5,5,1.724,5,2S4.776,2.5,4.5,2.5C2.57,2.5,1,4.07,1,6
		C1,6.276,0.776,6.5,0.5,6.5z"/>
	<path d="M21.5,6.5C21.224,6.5,21,6.276,21,6c0-0.827-0.673-1.5-1.5-1.5C19.224,4.5,19,4.276,19,4s0.224-0.5,0.5-0.5
		C20.878,3.5,22,4.621,22,6C22,6.276,21.776,6.5,21.5,6.5z"/>
	<path d="M23.5,6.5C23.224,6.5,23,6.276,23,6c0-1.93-1.57-3.5-3.5-3.5C19.224,2.5,19,2.276,19,2s0.224-0.5,0.5-0.5
		C21.981,1.5,24,3.519,24,6C24,6.276,23.776,6.5,23.5,6.5z"/>
</g>
</svg>
